<?xml version="1.0" encoding="UTF-8" standalone="no"?>
<!DOCTYPE svg PUBLIC "-//W3C//DTD SVG 1.1//EN"
 "http://www.w3.org/Graphics/SVG/1.1/DTD/svg11.dtd">
<!-- Generated by graphviz version 8.0.3 (20230416.2022)
 -->
<!-- Title: G Pages: 1 -->
<svg width="566pt" height="640pt"
 viewBox="0.00 0.00 637.25 720.00" xmlns="http://www.w3.org/2000/svg" xmlns:xlink="http://www.w3.org/1999/xlink">
<g id="graph0" class="graph" transform="scale(0.500391 0.500391) rotate(0) translate(4 1275)">
<title>G</title>
<polygon fill="white" stroke="none" points="-4,4 -4,-1275 1128,-1275 1128,4 -4,4"/>
<text text-anchor="middle" x="562" y="-1238.2" font-family="Arial" font-size="36.00" fill="blue">Reaction Path Analysis</text>
<!-- CH3CH2OH -->
<g id="node1" class="node">
<title>CH3CH2OH</title>
<g id="a_node1"><a xlink:href="Species\0.svg" xlink:title="CH3CH2OH">
<polygon fill="none" stroke="none" points="597.5,-1223 398.5,-1223 398.5,-1176 597.5,-1176 597.5,-1223"/>
<text text-anchor="middle" x="498" y="-1191" font-family="Times New Roman,serif" font-size="35.00">CH3CH2OH</text>
</a>
</g>
</g>
<!-- CH3CH2OH(S) -->
<g id="node2" class="node">
<title>CH3CH2OH(S)</title>
<g id="a_node2"><a xlink:href="Species\14.svg" xlink:title="CH3CH2OH(S)">
<polygon fill="dodgerblue" stroke="none" points="619,-1125 377,-1125 377,-1078 619,-1078 619,-1125"/>
<text text-anchor="middle" x="498" y="-1093" font-family="Times New Roman,serif" font-size="35.00">CH3CH2OH(S)</text>
</a>
</g>
</g>
<!-- CH3CH2OH&#45;&gt;CH3CH2OH(S) -->
<g id="edge1" class="edge">
<title>CH3CH2OH&#45;&gt;CH3CH2OH(S)</title>
<path fill="none" stroke="green" stroke-width="6" d="M498,-1176.23C498,-1164.2 498,-1149.11 498,-1135.72"/>
<polygon fill="green" stroke="green" stroke-width="6" points="503.25,-1140.98 498,-1130.98 492.75,-1140.98 503.25,-1140.98"/>
<text text-anchor="middle" x="544.5" y="-1143" font-family="Times New Roman,serif" font-size="30.00"> &#160;&#160;100%</text>
</g>
<!-- CH3CHOH(S) -->
<g id="node15" class="node">
<title>CH3CHOH(S)</title>
<g id="a_node15"><a xlink:href="Species\15.svg" xlink:title="CH3CHOH(S)">
<polygon fill="dodgerblue" stroke="none" points="610,-1027 386,-1027 386,-980 610,-980 610,-1027"/>
<text text-anchor="middle" x="498" y="-995" font-family="Times New Roman,serif" font-size="35.00">CH3CHOH(S)</text>
</a>
</g>
</g>
<!-- CH3CH2OH(S)&#45;&gt;CH3CHOH(S) -->
<g id="edge8" class="edge">
<title>CH3CH2OH(S)&#45;&gt;CH3CHOH(S)</title>
<path fill="none" stroke="black" stroke-width="5" d="M498,-1078.23C498,-1066.2 498,-1051.11 498,-1037.72"/>
<polygon fill="black" stroke="black" stroke-width="5" points="502.38,-1042.98 498,-1032.98 493.63,-1042.98 502.38,-1042.98"/>
<text text-anchor="middle" x="537" y="-1045" font-family="Times New Roman,serif" font-size="30.00"> &#160;&#160;87%</text>
</g>
<!-- CH2CH2OH(S) -->
<g id="node16" class="node">
<title>CH2CH2OH(S)</title>
<g id="a_node16"><a xlink:href="Species\17.svg" xlink:title="CH2CH2OH(S)">
<polygon fill="purple" stroke="none" points="870,-1027 628,-1027 628,-980 870,-980 870,-1027"/>
<text text-anchor="middle" x="749" y="-995" font-family="Times New Roman,serif" font-size="35.00">CH2CH2OH(S)</text>
</a>
</g>
</g>
<!-- CH3CH2OH(S)&#45;&gt;CH2CH2OH(S) -->
<g id="edge9" class="edge">
<title>CH3CH2OH(S)&#45;&gt;CH2CH2OH(S)</title>
<path fill="none" stroke="black" d="M556.53,-1078.11C593.5,-1063.97 641.43,-1045.64 680.21,-1030.81"/>
<polygon fill="black" stroke="black" points="681.29,-1033.76 689.38,-1026.92 678.79,-1027.23 681.29,-1033.76"/>
<text text-anchor="middle" x="691.5" y="-1045" font-family="Times New Roman,serif" font-size="30.00"> &#160;&#160;0%</text>
</g>
<!-- CH3CH2O(S) -->
<g id="node17" class="node">
<title>CH3CH2O(S)</title>
<g id="a_node17"><a xlink:href="Species\26.svg" xlink:title="CH3CH2O(S)">
<polygon fill="purple" stroke="none" points="368,-1027 150,-1027 150,-980 368,-980 368,-1027"/>
<text text-anchor="middle" x="259" y="-995" font-family="Times New Roman,serif" font-size="35.00">CH3CH2O(S)</text>
</a>
</g>
</g>
<!-- CH3CH2OH(S)&#45;&gt;CH3CH2O(S) -->
<g id="edge10" class="edge">
<title>CH3CH2OH(S)&#45;&gt;CH3CH2O(S)</title>
<path fill="none" stroke="black" d="M439.26,-1078.12C431.43,-1075.08 423.51,-1071.99 416,-1069 385.14,-1056.73 351.01,-1042.77 322.49,-1030.97"/>
<polygon fill="black" stroke="black" points="324.23,-1027.49 313.65,-1026.9 321.55,-1033.96 324.23,-1027.49"/>
<text text-anchor="middle" x="455" y="-1045" font-family="Times New Roman,serif" font-size="30.00"> &#160;&#160;12%</text>
</g>
<!-- CH3CHO(S) -->
<g id="node3" class="node">
<title>CH3CHO(S)</title>
<g id="a_node3"><a xlink:href="Species\27.svg" xlink:title="CH3CHO(S)">
<polygon fill="dodgerblue" stroke="none" points="374,-929 174,-929 174,-882 374,-882 374,-929"/>
<text text-anchor="middle" x="274" y="-897" font-family="Times New Roman,serif" font-size="35.00">CH3CHO(S)</text>
</a>
</g>
</g>
<!-- CH3CHO -->
<g id="node4" class="node">
<title>CH3CHO</title>
<g id="a_node4"><a xlink:href="Species\1.svg" xlink:title="CH3CHO">
<polygon fill="none" stroke="none" points="201,-831 45,-831 45,-784 201,-784 201,-831"/>
<text text-anchor="middle" x="123" y="-799" font-family="Times New Roman,serif" font-size="35.00">CH3CHO</text>
</a>
</g>
</g>
<!-- CH3CHO(S)&#45;&gt;CH3CHO -->
<g id="edge2" class="edge">
<title>CH3CHO(S)&#45;&gt;CH3CHO</title>
<path fill="none" stroke="green" d="M234.15,-882.12C229.02,-879.11 223.86,-876.02 219,-873 200.72,-861.65 180.93,-848.5 164.09,-837.04"/>
<polygon fill="green" stroke="green" points="166.29,-833.63 156.06,-830.88 162.34,-839.41 166.29,-833.63"/>
<text text-anchor="middle" x="250.5" y="-849" font-family="Times New Roman,serif" font-size="30.00"> &#160;&#160;0%</text>
</g>
<!-- CH3CO(S) -->
<g id="node20" class="node">
<title>CH3CO(S)</title>
<g id="a_node20"><a xlink:href="Species\28.svg" xlink:title="CH3CO(S)">
<polygon fill="springgreen" stroke="none" points="394.5,-831 219.5,-831 219.5,-784 394.5,-784 394.5,-831"/>
<text text-anchor="middle" x="307" y="-799" font-family="Times New Roman,serif" font-size="35.00">CH3CO(S)</text>
</a>
</g>
</g>
<!-- CH3CHO(S)&#45;&gt;CH3CO(S) -->
<g id="edge21" class="edge">
<title>CH3CHO(S)&#45;&gt;CH3CO(S)</title>
<path fill="none" stroke="green" d="M281.65,-882.23C285.83,-870.08 291.08,-854.81 295.72,-841.32"/>
<polygon fill="green" stroke="green" points="299.33,-842.57 299.27,-831.98 292.71,-840.3 299.33,-842.57"/>
<text text-anchor="middle" x="335" y="-849" font-family="Times New Roman,serif" font-size="30.00"> &#160;&#160;15%</text>
</g>
<!-- CH3CH2(S) -->
<g id="node5" class="node">
<title>CH3CH2(S)</title>
<g id="a_node5"><a xlink:href="Species\38.svg" xlink:title="CH3CH2(S)">
<polygon fill="dodgerblue" stroke="none" points="963,-635 771,-635 771,-588 963,-588 963,-635"/>
<text text-anchor="middle" x="867" y="-603" font-family="Times New Roman,serif" font-size="35.00">CH3CH2(S)</text>
</a>
</g>
</g>
<!-- CH3CH3 -->
<g id="node6" class="node">
<title>CH3CH3</title>
<g id="a_node6"><a xlink:href="Species\2.svg" xlink:title="CH3CH3">
<polygon fill="none" stroke="none" points="941.5,-537 792.5,-537 792.5,-490 941.5,-490 941.5,-537"/>
<text text-anchor="middle" x="867" y="-505" font-family="Times New Roman,serif" font-size="35.00">CH3CH3</text>
</a>
</g>
</g>
<!-- CH3CH2(S)&#45;&gt;CH3CH3 -->
<g id="edge3" class="edge">
<title>CH3CH2(S)&#45;&gt;CH3CH3</title>
<path fill="none" stroke="green" d="M867,-588.23C867,-576.2 867,-561.11 867,-547.72"/>
<polygon fill="green" stroke="green" points="870.5,-547.98 867,-537.98 863.5,-547.98 870.5,-547.98"/>
<text text-anchor="middle" x="898.5" y="-555" font-family="Times New Roman,serif" font-size="30.00"> &#160;&#160;0%</text>
</g>
<!-- CH3(S) -->
<g id="node7" class="node">
<title>CH3(S)</title>
<g id="a_node7"><a xlink:href="Species\55.svg" xlink:title="CH3(S)">
<polygon fill="dodgerblue" stroke="none" points="126,-145 0,-145 0,-98 126,-98 126,-145"/>
<text text-anchor="middle" x="63" y="-113" font-family="Times New Roman,serif" font-size="35.00">CH3(S)</text>
</a>
</g>
</g>
<!-- CH4 -->
<g id="node8" class="node">
<title>CH4</title>
<g id="a_node8"><a xlink:href="Species\7.svg" xlink:title="CH4">
<polygon fill="none" stroke="none" points="104.5,-47 21.5,-47 21.5,0 104.5,0 104.5,-47"/>
<text text-anchor="middle" x="63" y="-15" font-family="Times New Roman,serif" font-size="35.00">CH4</text>
</a>
</g>
</g>
<!-- CH3(S)&#45;&gt;CH4 -->
<g id="edge4" class="edge">
<title>CH3(S)&#45;&gt;CH4</title>
<path fill="none" stroke="black" stroke-width="6" d="M63,-98.23C63,-86.2 63,-71.11 63,-57.72"/>
<polygon fill="black" stroke="black" stroke-width="6" points="68.25,-62.98 63,-52.98 57.75,-62.98 68.25,-62.98"/>
<text text-anchor="middle" x="109.5" y="-65" font-family="Times New Roman,serif" font-size="30.00"> &#160;&#160;100%</text>
</g>
<!-- CO(S) -->
<g id="node9" class="node">
<title>CO(S)</title>
<g id="a_node9"><a xlink:href="Species\54.svg" xlink:title="CO(S)">
<polygon fill="orange" stroke="none" points="553.5,-439 444.5,-439 444.5,-392 553.5,-392 553.5,-439"/>
<text text-anchor="middle" x="499" y="-407" font-family="Times New Roman,serif" font-size="35.00">CO(S)</text>
</a>
</g>
</g>
<!-- CO -->
<g id="node10" class="node">
<title>CO</title>
<g id="a_node10"><a xlink:href="Species\10.svg" xlink:title="CO">
<polygon fill="none" stroke="none" points="531.5,-341 466.5,-341 466.5,-294 531.5,-294 531.5,-341"/>
<text text-anchor="middle" x="499" y="-309" font-family="Times New Roman,serif" font-size="35.00">CO</text>
</a>
</g>
</g>
<!-- CO(S)&#45;&gt;CO -->
<g id="edge5" class="edge">
<title>CO(S)&#45;&gt;CO</title>
<path fill="none" stroke="green" stroke-width="3" d="M499,-392.23C499,-380.2 499,-365.11 499,-351.72"/>
<polygon fill="green" stroke="green" stroke-width="3" points="502.5,-354.98 499,-344.98 495.5,-354.98 502.5,-354.98"/>
<text text-anchor="middle" x="538" y="-359" font-family="Times New Roman,serif" font-size="30.00"> &#160;&#160;54%</text>
</g>
<!-- COOH(S) -->
<g id="node33" class="node">
<title>COOH(S)</title>
<g id="a_node33"><a xlink:href="Species\64.svg" xlink:title="COOH(S)">
<polygon fill="dodgerblue" stroke="none" points="906.5,-341 747.5,-341 747.5,-294 906.5,-294 906.5,-341"/>
<text text-anchor="middle" x="827" y="-309" font-family="Times New Roman,serif" font-size="35.00">COOH(S)</text>
</a>
</g>
</g>
<!-- CO(S)&#45;&gt;COOH(S) -->
<g id="edge37" class="edge">
<title>CO(S)&#45;&gt;COOH(S)</title>
<path fill="none" stroke="black" stroke-width="3" d="M553.16,-398.65C603.88,-383.8 680.55,-361.36 739.87,-344"/>
<polygon fill="black" stroke="black" stroke-width="3" points="737.75,-348.1 746.36,-341.93 735.78,-341.38 737.75,-348.1"/>
<text text-anchor="middle" x="750" y="-359" font-family="Times New Roman,serif" font-size="30.00"> &#160;&#160;45%</text>
</g>
<!-- CO2(S) -->
<g id="node11" class="node">
<title>CO2(S)</title>
<g id="a_node11"><a xlink:href="Species\63.svg" xlink:title="CO2(S)">
<polygon fill="dodgerblue" stroke="none" points="890.5,-243 763.5,-243 763.5,-196 890.5,-196 890.5,-243"/>
<text text-anchor="middle" x="827" y="-211" font-family="Times New Roman,serif" font-size="35.00">CO2(S)</text>
</a>
</g>
</g>
<!-- CO2 -->
<g id="node12" class="node">
<title>CO2</title>
<g id="a_node12"><a xlink:href="Species\11.svg" xlink:title="CO2">
<polygon fill="none" stroke="none" points="868.5,-145 785.5,-145 785.5,-98 868.5,-98 868.5,-145"/>
<text text-anchor="middle" x="827" y="-113" font-family="Times New Roman,serif" font-size="35.00">CO2</text>
</a>
</g>
</g>
<!-- CO2(S)&#45;&gt;CO2 -->
<g id="edge6" class="edge">
<title>CO2(S)&#45;&gt;CO2</title>
<path fill="none" stroke="green" stroke-width="3" d="M827,-196.23C827,-184.2 827,-169.11 827,-155.72"/>
<polygon fill="green" stroke="green" stroke-width="3" points="830.5,-158.98 827,-148.98 823.5,-158.98 830.5,-158.98"/>
<text text-anchor="middle" x="866" y="-163" font-family="Times New Roman,serif" font-size="30.00"> &#160;&#160;45%</text>
</g>
<!-- H2O -->
<g id="node13" class="node">
<title>H2O</title>
<g id="a_node13"><a xlink:href="Species\12.svg" xlink:title="H2O">
<polygon fill="none" stroke="none" points="1088.5,-1027 1003.5,-1027 1003.5,-980 1088.5,-980 1088.5,-1027"/>
<text text-anchor="middle" x="1046" y="-995" font-family="Times New Roman,serif" font-size="35.00">H2O</text>
</a>
</g>
</g>
<!-- H2O(S) -->
<g id="node14" class="node">
<title>H2O(S)</title>
<g id="a_node14"><a xlink:href="Species\59.svg" xlink:title="H2O(S)">
<polygon fill="springgreen" stroke="none" points="1110,-929 982,-929 982,-882 1110,-882 1110,-929"/>
<text text-anchor="middle" x="1046" y="-897" font-family="Times New Roman,serif" font-size="35.00">H2O(S)</text>
</a>
</g>
</g>
<!-- H2O&#45;&gt;H2O(S) -->
<g id="edge7" class="edge">
<title>H2O&#45;&gt;H2O(S)</title>
<path fill="none" stroke="green" stroke-width="3" d="M1046,-980.23C1046,-968.2 1046,-953.11 1046,-939.72"/>
<polygon fill="green" stroke="green" stroke-width="3" points="1049.5,-942.98 1046,-932.98 1042.5,-942.98 1049.5,-942.98"/>
<text text-anchor="middle" x="1085" y="-947" font-family="Times New Roman,serif" font-size="30.00"> &#160;&#160;45%</text>
</g>
<!-- OH(S) -->
<g id="node22" class="node">
<title>OH(S)</title>
<g id="a_node22"><a xlink:href="Species\60.svg" xlink:title="OH(S)">
<polygon fill="purple" stroke="none" points="1101,-831 991,-831 991,-784 1101,-784 1101,-831"/>
<text text-anchor="middle" x="1046" y="-799" font-family="Times New Roman,serif" font-size="35.00">OH(S)</text>
</a>
</g>
</g>
<!-- H2O(S)&#45;&gt;OH(S) -->
<g id="edge41" class="edge">
<title>H2O(S)&#45;&gt;OH(S)</title>
<path fill="none" stroke="green" stroke-width="3" d="M1046,-882.23C1046,-870.2 1046,-855.11 1046,-841.72"/>
<polygon fill="green" stroke="green" stroke-width="3" points="1049.5,-844.98 1046,-834.98 1042.5,-844.98 1049.5,-844.98"/>
<text text-anchor="middle" x="1085" y="-849" font-family="Times New Roman,serif" font-size="30.00"> &#160;&#160;45%</text>
</g>
<!-- CH3CHOH(S)&#45;&gt;CH3CHO(S) -->
<g id="edge12" class="edge">
<title>CH3CHOH(S)&#45;&gt;CH3CHO(S)</title>
<path fill="none" stroke="black" d="M447.79,-980.1C419.45,-967.54 383.33,-951.7 351,-938 347.15,-936.37 343.18,-934.7 339.17,-933.03"/>
<polygon fill="black" stroke="black" points="340.75,-929.48 330.17,-928.87 338.06,-935.94 340.75,-929.48"/>
<text text-anchor="middle" x="455.5" y="-947" font-family="Times New Roman,serif" font-size="30.00"> &#160;&#160;2%</text>
</g>
<!-- CH3COH(S) -->
<g id="node18" class="node">
<title>CH3COH(S)</title>
<g id="a_node18"><a xlink:href="Species\16.svg" xlink:title="CH3COH(S)">
<polygon fill="springgreen" stroke="none" points="613,-929 413,-929 413,-882 613,-882 613,-929"/>
<text text-anchor="middle" x="513" y="-897" font-family="Times New Roman,serif" font-size="35.00">CH3COH(S)</text>
</a>
</g>
</g>
<!-- CH3CHOH(S)&#45;&gt;CH3COH(S) -->
<g id="edge11" class="edge">
<title>CH3CHOH(S)&#45;&gt;CH3COH(S)</title>
<path fill="none" stroke="black" stroke-width="5" d="M501.48,-980.23C503.36,-968.2 505.72,-953.11 507.81,-939.72"/>
<polygon fill="black" stroke="black" stroke-width="5" points="512.27,-945.53 509.49,-934.98 503.62,-944.18 512.27,-945.53"/>
<text text-anchor="middle" x="546" y="-947" font-family="Times New Roman,serif" font-size="30.00"> &#160;&#160;84%</text>
</g>
<!-- CH2CHOH(S) -->
<g id="node23" class="node">
<title>CH2CHOH(S)</title>
<g id="a_node23"><a xlink:href="Species\18.svg" xlink:title="CH2CHOH(S)">
<polygon fill="dodgerblue" stroke="none" points="857,-929 633,-929 633,-882 857,-882 857,-929"/>
<text text-anchor="middle" x="745" y="-897" font-family="Times New Roman,serif" font-size="35.00">CH2CHOH(S)</text>
</a>
</g>
</g>
<!-- CH2CH2OH(S)&#45;&gt;CH2CHOH(S) -->
<g id="edge17" class="edge">
<title>CH2CH2OH(S)&#45;&gt;CH2CHOH(S)</title>
<path fill="none" stroke="black" d="M748.07,-980.23C747.57,-968.2 746.94,-953.11 746.38,-939.72"/>
<polygon fill="black" stroke="black" points="749.85,-939.82 745.94,-929.98 742.86,-940.11 749.85,-939.82"/>
<text text-anchor="middle" x="778.5" y="-947" font-family="Times New Roman,serif" font-size="30.00"> &#160;&#160;0%</text>
</g>
<!-- CH3CH2O(S)&#45;&gt;CH3CHO(S) -->
<g id="edge20" class="edge">
<title>CH3CH2O(S)&#45;&gt;CH3CHO(S)</title>
<path fill="none" stroke="black" d="M262.48,-980.23C264.36,-968.2 266.72,-953.11 268.81,-939.72"/>
<polygon fill="black" stroke="black" points="272.4,-940.4 270.49,-929.98 265.49,-939.32 272.4,-940.4"/>
<text text-anchor="middle" x="308" y="-947" font-family="Times New Roman,serif" font-size="30.00"> &#160;&#160;12%</text>
</g>
<!-- CH2COH(S) -->
<g id="node19" class="node">
<title>CH2COH(S)</title>
<g id="a_node19"><a xlink:href="Species\19.svg" xlink:title="CH2COH(S)">
<polygon fill="springgreen" stroke="none" points="613,-831 413,-831 413,-784 613,-784 613,-831"/>
<text text-anchor="middle" x="513" y="-799" font-family="Times New Roman,serif" font-size="35.00">CH2COH(S)</text>
</a>
</g>
</g>
<!-- CH3COH(S)&#45;&gt;CH2COH(S) -->
<g id="edge13" class="edge">
<title>CH3COH(S)&#45;&gt;CH2COH(S)</title>
<path fill="none" stroke="green" stroke-width="4" d="M513,-882.23C513,-870.2 513,-855.11 513,-841.72"/>
<polygon fill="green" stroke="green" stroke-width="4" points="516.5,-846.98 513,-836.98 509.5,-846.98 516.5,-846.98"/>
<text text-anchor="middle" x="552" y="-849" font-family="Times New Roman,serif" font-size="30.00"> &#160;&#160;72%</text>
</g>
<!-- CH3COH(S)&#45;&gt;CH3CO(S) -->
<g id="edge14" class="edge">
<title>CH3COH(S)&#45;&gt;CH3CO(S)</title>
<path fill="none" stroke="green" d="M451.11,-882.18C444.24,-879.28 437.42,-876.19 431,-873 406.16,-860.64 402.52,-852.99 378,-840 375.26,-838.55 372.45,-837.11 369.58,-835.68"/>
<polygon fill="green" stroke="green" points="371.27,-832.12 360.74,-830.91 368.21,-838.42 371.27,-832.12"/>
<text text-anchor="middle" x="470" y="-849" font-family="Times New Roman,serif" font-size="30.00"> &#160;&#160;11%</text>
</g>
<!-- CH3C(S) -->
<g id="node21" class="node">
<title>CH3C(S)</title>
<g id="a_node21"><a xlink:href="Species\40.svg" xlink:title="CH3C(S)">
<polygon fill="springgreen" stroke="none" points="780.5,-831 631.5,-831 631.5,-784 780.5,-784 780.5,-831"/>
<text text-anchor="middle" x="706" y="-799" font-family="Times New Roman,serif" font-size="35.00">CH3C(S)</text>
</a>
</g>
</g>
<!-- CH3COH(S)&#45;&gt;CH3C(S) -->
<g id="edge15" class="edge">
<title>CH3COH(S)&#45;&gt;CH3C(S)</title>
<path fill="none" stroke="black" d="M612.8,-884.06C616.58,-883.35 620.32,-882.66 624,-882 649.24,-877.45 661.04,-889.1 681,-873 690.73,-865.15 696.68,-853.01 700.32,-841.38"/>
<polygon fill="black" stroke="black" points="703.9,-842.53 703.05,-831.97 697.13,-840.76 703.9,-842.53"/>
<text text-anchor="middle" x="731.5" y="-849" font-family="Times New Roman,serif" font-size="30.00"> &#160;&#160;0%</text>
</g>
<!-- CH3COH(S)&#45;&gt;OH(S) -->
<g id="edge16" class="edge">
<title>CH3COH(S)&#45;&gt;OH(S)</title>
<path fill="none" stroke="black" d="M612.73,-883.61C616.53,-883.03 620.3,-882.49 624,-882 687.13,-873.65 703.84,-881.12 767,-873 860.17,-861.02 886.24,-856.84 980.43,-831.29"/>
<polygon fill="black" stroke="black" points="981.27,-834.41 990,-828.41 979.43,-827.66 981.27,-834.41"/>
<text text-anchor="middle" x="977.5" y="-849" font-family="Times New Roman,serif" font-size="30.00"> &#160;&#160;0%</text>
</g>
<!-- CH2CO(S) -->
<g id="node24" class="node">
<title>CH2CO(S)</title>
<g id="a_node24"><a xlink:href="Species\31.svg" xlink:title="CH2CO(S)">
<polygon fill="springgreen" stroke="none" points="394.5,-733 219.5,-733 219.5,-686 394.5,-686 394.5,-733"/>
<text text-anchor="middle" x="307" y="-701" font-family="Times New Roman,serif" font-size="35.00">CH2CO(S)</text>
</a>
</g>
</g>
<!-- CH2COH(S)&#45;&gt;CH2CO(S) -->
<g id="edge19" class="edge">
<title>CH2COH(S)&#45;&gt;CH2CO(S)</title>
<path fill="none" stroke="green" stroke-width="4" d="M472.8,-784.12C448.8,-771.13 417.54,-754.86 389,-742 385.38,-740.37 381.65,-738.75 377.87,-737.14"/>
<polygon fill="green" stroke="green" stroke-width="4" points="383.35,-735.55 372.77,-734.96 380.67,-742.02 383.35,-735.55"/>
<text text-anchor="middle" x="493" y="-751" font-family="Times New Roman,serif" font-size="30.00"> &#160;&#160;72%</text>
</g>
<!-- CH3CO(S)&#45;&gt;CH3(S) -->
<g id="edge23" class="edge">
<title>CH3CO(S)&#45;&gt;CH3(S)</title>
<path fill="none" stroke="black" d="M219.51,-786.03C134.45,-764.87 18,-731.98 18,-710.5 18,-710.5 18,-710.5 18,-218.5 18,-195.3 28.91,-171.68 39.98,-153.67"/>
<polygon fill="black" stroke="black" points="43.23,-156.09 45.73,-145.8 37.36,-152.28 43.23,-156.09"/>
<text text-anchor="middle" x="49.5" y="-457" font-family="Times New Roman,serif" font-size="30.00"> &#160;&#160;0%</text>
</g>
<!-- CH3CO(S)&#45;&gt;CO(S) -->
<g id="edge24" class="edge">
<title>CH3CO(S)&#45;&gt;CO(S)</title>
<path fill="none" stroke="black" d="M377.88,-784.06C445.46,-761.6 537,-727.97 537,-710.5 537,-710.5 537,-710.5 537,-512.5 537,-489.97 527.84,-466.41 518.51,-448.27"/>
<polygon fill="black" stroke="black" points="521.21,-446.92 513.37,-439.8 515.06,-450.25 521.21,-446.92"/>
<text text-anchor="middle" x="568.5" y="-604" font-family="Times New Roman,serif" font-size="30.00"> &#160;&#160;0%</text>
</g>
<!-- CH3CO(S)&#45;&gt;CH2CO(S) -->
<g id="edge22" class="edge">
<title>CH3CO(S)&#45;&gt;CH2CO(S)</title>
<path fill="none" stroke="green" stroke-width="2" d="M307,-784.23C307,-772.2 307,-757.11 307,-743.72"/>
<polygon fill="green" stroke="green" stroke-width="2" points="310.5,-745.98 307,-735.98 303.5,-745.98 310.5,-745.98"/>
<text text-anchor="middle" x="346" y="-751" font-family="Times New Roman,serif" font-size="30.00"> &#160;&#160;27%</text>
</g>
<!-- CH3CH(S) -->
<g id="node30" class="node">
<title>CH3CH(S)</title>
<g id="a_node30"><a xlink:href="Species\39.svg" xlink:title="CH3CH(S)">
<polygon fill="dodgerblue" stroke="none" points="782,-733 608,-733 608,-686 782,-686 782,-733"/>
<text text-anchor="middle" x="695" y="-701" font-family="Times New Roman,serif" font-size="35.00">CH3CH(S)</text>
</a>
</g>
</g>
<!-- CH3C(S)&#45;&gt;CH3CH(S) -->
<g id="edge35" class="edge">
<title>CH3C(S)&#45;&gt;CH3CH(S)</title>
<path fill="none" stroke="green" d="M703.45,-784.23C702.07,-772.2 700.34,-757.11 698.81,-743.72"/>
<polygon fill="green" stroke="green" points="702.19,-743.51 697.58,-733.98 695.24,-744.31 702.19,-743.51"/>
<text text-anchor="middle" x="733.5" y="-751" font-family="Times New Roman,serif" font-size="30.00"> &#160;&#160;0%</text>
</g>
<!-- OH(S)&#45;&gt;COOH(S) -->
<g id="edge42" class="edge">
<title>OH(S)&#45;&gt;COOH(S)</title>
<path fill="none" stroke="black" stroke-width="3" d="M1036.32,-784.07C1028.93,-764.91 1020,-736.4 1020,-710.5 1020,-710.5 1020,-710.5 1020,-414.5 1020,-364.45 967.33,-340.49 917.02,-329.03"/>
<polygon fill="black" stroke="black" stroke-width="3" points="920.84,-325.41 910.34,-326.77 919.39,-332.26 920.84,-325.41"/>
<text text-anchor="middle" x="1059" y="-555" font-family="Times New Roman,serif" font-size="30.00"> &#160;&#160;45%</text>
</g>
<!-- CH2CHOH(S)&#45;&gt;CH2COH(S) -->
<g id="edge18" class="edge">
<title>CH2CHOH(S)&#45;&gt;CH2COH(S)</title>
<path fill="none" stroke="green" d="M633.19,-884.34C626.42,-881.1 619.95,-877.35 614,-873 600.15,-862.88 607.13,-851.03 594,-840 592.61,-838.83 591.17,-837.71 589.69,-836.62"/>
<polygon fill="green" stroke="green" points="592.11,-833.36 581.83,-830.8 588.27,-839.21 592.11,-833.36"/>
<text text-anchor="middle" x="645.5" y="-849" font-family="Times New Roman,serif" font-size="30.00"> &#160;&#160;0%</text>
</g>
<!-- CH2CO(S)&#45;&gt;CO(S) -->
<g id="edge27" class="edge">
<title>CH2CO(S)&#45;&gt;CO(S)</title>
<path fill="none" stroke="black" d="M375.39,-686.15C379.88,-683.42 384.14,-680.38 388,-677 437.97,-633.21 409.48,-589.15 460,-546 468.98,-538.33 477.66,-546.25 485,-537 504.47,-512.45 506.04,-475.75 503.94,-449.3"/>
<polygon fill="black" stroke="black" points="507.35,-449.26 502.85,-439.66 500.38,-449.97 507.35,-449.26"/>
<text text-anchor="middle" x="491.5" y="-555" font-family="Times New Roman,serif" font-size="30.00"> &#160;&#160;0%</text>
</g>
<!-- CHCO(S) -->
<g id="node25" class="node">
<title>CHCO(S)</title>
<g id="a_node25"><a xlink:href="Species\34.svg" xlink:title="CHCO(S)">
<polygon fill="springgreen" stroke="none" points="381.5,-635 224.5,-635 224.5,-588 381.5,-588 381.5,-635"/>
<text text-anchor="middle" x="303" y="-603" font-family="Times New Roman,serif" font-size="35.00">CHCO(S)</text>
</a>
</g>
</g>
<!-- CH2CO(S)&#45;&gt;CHCO(S) -->
<g id="edge25" class="edge">
<title>CH2CO(S)&#45;&gt;CHCO(S)</title>
<path fill="none" stroke="green" stroke-width="5" d="M306.07,-686.23C305.57,-674.2 304.94,-659.11 304.38,-645.72"/>
<polygon fill="green" stroke="green" stroke-width="5" points="308.72,-650.79 303.94,-640.98 299.98,-651.15 308.72,-650.79"/>
<text text-anchor="middle" x="345" y="-653" font-family="Times New Roman,serif" font-size="30.00"> &#160;&#160;99%</text>
</g>
<!-- CH2(S) -->
<g id="node26" class="node">
<title>CH2(S)</title>
<g id="a_node26"><a xlink:href="Species\56.svg" xlink:title="CH2(S)">
<polygon fill="dodgerblue" stroke="none" points="172,-243 46,-243 46,-196 172,-196 172,-243"/>
<text text-anchor="middle" x="109" y="-211" font-family="Times New Roman,serif" font-size="35.00">CH2(S)</text>
</a>
</g>
</g>
<!-- CH2CO(S)&#45;&gt;CH2(S) -->
<g id="edge26" class="edge">
<title>CH2CO(S)&#45;&gt;CH2(S)</title>
<path fill="none" stroke="black" d="M219.73,-700.85C164.71,-690.67 104,-667.08 104,-612.5 104,-612.5 104,-612.5 104,-316.5 104,-295.63 105.19,-272.24 106.41,-253.78"/>
<polygon fill="black" stroke="black" points="109.96,-254.2 107.17,-243.98 102.98,-253.72 109.96,-254.2"/>
<text text-anchor="middle" x="135.5" y="-457" font-family="Times New Roman,serif" font-size="30.00"> &#160;&#160;0%</text>
</g>
<!-- CHCO(S)&#45;&gt;CO(S) -->
<g id="edge30" class="edge">
<title>CHCO(S)&#45;&gt;CO(S)</title>
<path fill="none" stroke="black" stroke-width="5" d="M355.21,-588.14C359.11,-585.38 362.77,-582.34 366,-579 396.3,-547.72 373.66,-518.02 407,-490 418.97,-479.94 427.66,-489.15 441,-481 455.06,-472.41 467.7,-459.37 477.56,-447.27"/>
<polygon fill="black" stroke="black" stroke-width="5" points="478.55,-453.27 481.23,-442.69 471.64,-447.9 478.55,-453.27"/>
<text text-anchor="middle" x="446" y="-506" font-family="Times New Roman,serif" font-size="30.00"> &#160;&#160;99%</text>
</g>
<!-- CCO(S) -->
<g id="node27" class="node">
<title>CCO(S)</title>
<g id="a_node27"><a xlink:href="Species\37.svg" xlink:title="CCO(S)">
<polygon fill="dodgerblue" stroke="none" points="357,-537 225,-537 225,-490 357,-490 357,-537"/>
<text text-anchor="middle" x="291" y="-505" font-family="Times New Roman,serif" font-size="35.00">CCO(S)</text>
</a>
</g>
</g>
<!-- CHCO(S)&#45;&gt;CCO(S) -->
<g id="edge28" class="edge">
<title>CHCO(S)&#45;&gt;CCO(S)</title>
<path fill="none" stroke="black" d="M300.22,-588.23C298.71,-576.2 296.83,-561.11 295.15,-547.72"/>
<polygon fill="black" stroke="black" points="298.52,-547.47 293.81,-537.98 291.58,-548.33 298.52,-547.47"/>
<text text-anchor="middle" x="330.5" y="-555" font-family="Times New Roman,serif" font-size="30.00"> &#160;&#160;0%</text>
</g>
<!-- CH(S) -->
<g id="node28" class="node">
<title>CH(S)</title>
<g id="a_node28"><a xlink:href="Species\57.svg" xlink:title="CH(S)">
<polygon fill="springgreen" stroke="none" points="244,-341 136,-341 136,-294 244,-294 244,-341"/>
<text text-anchor="middle" x="190" y="-309" font-family="Times New Roman,serif" font-size="35.00">CH(S)</text>
</a>
</g>
</g>
<!-- CHCO(S)&#45;&gt;CH(S) -->
<g id="edge29" class="edge">
<title>CHCO(S)&#45;&gt;CH(S)</title>
<path fill="none" stroke="black" stroke-width="5" d="M267.64,-588.14C249.8,-575.19 229.2,-557.43 216,-537 179.2,-480.06 180.93,-397.07 185.45,-351.5"/>
<polygon fill="black" stroke="black" stroke-width="5" points="189.89,-357.18 186.64,-346.76 181.19,-356.22 189.89,-357.18"/>
<text text-anchor="middle" x="232" y="-457" font-family="Times New Roman,serif" font-size="30.00"> &#160;&#160;99%</text>
</g>
<!-- CH2(S)&#45;&gt;CH3(S) -->
<g id="edge38" class="edge">
<title>CH2(S)&#45;&gt;CH3(S)</title>
<path fill="none" stroke="black" stroke-width="5" d="M98.33,-196.23C92.39,-183.84 84.9,-168.2 78.34,-154.52"/>
<polygon fill="black" stroke="black" stroke-width="5" points="84.04,-157.11 75.77,-149.98 76.15,-160.89 84.04,-157.11"/>
<text text-anchor="middle" x="132" y="-163" font-family="Times New Roman,serif" font-size="30.00"> &#160;&#160;99%</text>
</g>
<!-- CCO(S)&#45;&gt;CO(S) -->
<g id="edge32" class="edge">
<title>CCO(S)&#45;&gt;CO(S)</title>
<path fill="none" stroke="black" d="M340.39,-490.08C344.83,-487.29 349.11,-484.25 353,-481 367.12,-469.2 362.7,-458.22 378,-448 394.6,-436.92 414.9,-429.73 434.08,-425.07"/>
<polygon fill="black" stroke="black" points="434.59,-428.32 443.59,-422.74 433.07,-421.49 434.59,-428.32"/>
<text text-anchor="middle" x="409.5" y="-457" font-family="Times New Roman,serif" font-size="30.00"> &#160;&#160;0%</text>
</g>
<!-- C(S) -->
<g id="node29" class="node">
<title>C(S)</title>
<g id="a_node29"><a xlink:href="Species\58.svg" xlink:title="C(S)">
<polygon fill="dodgerblue" stroke="none" points="317.5,-439 234.5,-439 234.5,-392 317.5,-392 317.5,-439"/>
<text text-anchor="middle" x="276" y="-407" font-family="Times New Roman,serif" font-size="35.00">C(S)</text>
</a>
</g>
</g>
<!-- CCO(S)&#45;&gt;C(S) -->
<g id="edge31" class="edge">
<title>CCO(S)&#45;&gt;C(S)</title>
<path fill="none" stroke="black" d="M287.52,-490.23C285.64,-478.2 283.28,-463.11 281.19,-449.72"/>
<polygon fill="black" stroke="black" points="284.51,-449.32 279.51,-439.98 277.6,-450.4 284.51,-449.32"/>
<text text-anchor="middle" x="317.5" y="-457" font-family="Times New Roman,serif" font-size="30.00"> &#160;&#160;0%</text>
</g>
<!-- CH(S)&#45;&gt;CH2(S) -->
<g id="edge39" class="edge">
<title>CH(S)&#45;&gt;CH2(S)</title>
<path fill="none" stroke="green" stroke-width="5" d="M171.21,-294.23C160.45,-281.48 146.79,-265.29 135.01,-251.33"/>
<polygon fill="green" stroke="green" stroke-width="5" points="141.76,-251.8 131.97,-246.98 135.07,-257.44 141.76,-251.8"/>
<text text-anchor="middle" x="201" y="-261" font-family="Times New Roman,serif" font-size="30.00"> &#160;&#160;99%</text>
</g>
<!-- C(S)&#45;&gt;CH(S) -->
<g id="edge40" class="edge">
<title>C(S)&#45;&gt;CH(S)</title>
<path fill="none" stroke="green" d="M256.05,-392.23C244.52,-379.36 229.85,-362.98 217.27,-348.94"/>
<polygon fill="green" stroke="green" points="220.42,-347.09 211.14,-341.98 215.2,-351.76 220.42,-347.09"/>
<text text-anchor="middle" x="277.5" y="-359" font-family="Times New Roman,serif" font-size="30.00"> &#160;&#160;0%</text>
</g>
<!-- CH3CH(S)&#45;&gt;CH3CH2(S) -->
<g id="edge33" class="edge">
<title>CH3CH(S)&#45;&gt;CH3CH2(S)</title>
<path fill="none" stroke="black" d="M734.88,-686.05C757,-673.62 785,-657.92 810,-644 812.33,-642.7 814.72,-641.37 817.14,-640.03"/>
<polygon fill="black" stroke="black" points="818.45,-642.75 825.5,-634.84 815.06,-636.63 818.45,-642.75"/>
<text text-anchor="middle" x="841.5" y="-653" font-family="Times New Roman,serif" font-size="30.00"> &#160;&#160;0%</text>
</g>
<!-- CH2CH2(S) -->
<g id="node31" class="node">
<title>CH2CH2(S)</title>
<g id="a_node31"><a xlink:href="Species\41.svg" xlink:title="CH2CH2(S)">
<polygon fill="dodgerblue" stroke="none" points="992,-733 800,-733 800,-686 992,-686 992,-733"/>
<text text-anchor="middle" x="896" y="-701" font-family="Times New Roman,serif" font-size="35.00">CH2CH2(S)</text>
</a>
</g>
</g>
<!-- CH2CH2(S)&#45;&gt;CH3CH2(S) -->
<g id="edge34" class="edge">
<title>CH2CH2(S)&#45;&gt;CH3CH2(S)</title>
<path fill="none" stroke="green" d="M889.27,-686.23C885.6,-674.08 880.99,-658.81 876.91,-645.32"/>
<polygon fill="green" stroke="green" points="880.03,-644.54 873.79,-635.98 873.33,-646.56 880.03,-644.54"/>
<text text-anchor="middle" x="916.5" y="-653" font-family="Times New Roman,serif" font-size="30.00"> &#160;&#160;0%</text>
</g>
<!-- CH2CH(S) -->
<g id="node32" class="node">
<title>CH2CH(S)</title>
<g id="a_node32"><a xlink:href="Species\42.svg" xlink:title="CH2CH(S)">
<polygon fill="dodgerblue" stroke="none" points="973,-831 799,-831 799,-784 973,-784 973,-831"/>
<text text-anchor="middle" x="886" y="-799" font-family="Times New Roman,serif" font-size="35.00">CH2CH(S)</text>
</a>
</g>
</g>
<!-- CH2CH(S)&#45;&gt;CH2CH2(S) -->
<g id="edge36" class="edge">
<title>CH2CH(S)&#45;&gt;CH2CH2(S)</title>
<path fill="none" stroke="green" d="M888.32,-784.23C889.57,-772.2 891.14,-757.11 892.54,-743.72"/>
<polygon fill="green" stroke="green" points="896.1,-744.29 893.66,-733.98 889.14,-743.56 896.1,-744.29"/>
<text text-anchor="middle" x="923.5" y="-751" font-family="Times New Roman,serif" font-size="30.00"> &#160;&#160;0%</text>
</g>
<!-- COOH(S)&#45;&gt;CO2(S) -->
<g id="edge43" class="edge">
<title>COOH(S)&#45;&gt;CO2(S)</title>
<path fill="none" stroke="black" stroke-width="3" d="M827,-294.23C827,-282.2 827,-267.11 827,-253.72"/>
<polygon fill="black" stroke="black" stroke-width="3" points="830.5,-256.98 827,-246.98 823.5,-256.98 830.5,-256.98"/>
<text text-anchor="middle" x="866" y="-261" font-family="Times New Roman,serif" font-size="30.00"> &#160;&#160;45%</text>
</g>
</g>
</svg>
