<?xml version="1.0" encoding="UTF-8" standalone="no"?>
<!DOCTYPE svg PUBLIC "-//W3C//DTD SVG 1.1//EN"
 "http://www.w3.org/Graphics/SVG/1.1/DTD/svg11.dtd">
<!-- Generated by graphviz version 8.0.3 (20230416.2022)
 -->
<!-- Title: G Pages: 1 -->
<svg width="640pt" height="169pt"
 viewBox="0.00 0.00 720.00 189.72" xmlns="http://www.w3.org/2000/svg" xmlns:xlink="http://www.w3.org/1999/xlink">
<g id="graph0" class="graph" transform="scale(0.490421 0.490421) rotate(0) translate(4 339.86)">
<title>G</title>
<polygon fill="white" stroke="none" points="-4,4 -4,-339.86 1301,-339.86 1301,4 -4,4"/>
<text text-anchor="middle" x="648.5" y="-303.06" font-family="Arial" font-size="36.00" fill="blue">Reaction Path Analysis</text>
<!-- R100 -->
<g id="node1" class="node">
<title>R100</title>
<g id="a_node1"><a xlink:href="100.svg" xlink:title="R100">
<polygon fill="cornsilk" stroke="none" points="691,-156.36 597,-156.36 597,-109.36 691,-109.36 691,-156.36"/>
<text text-anchor="middle" x="644" y="-124.36" font-family="Times New Roman,serif" font-size="35.00">R100</text>
</a>
</g>
</g>
<!-- R266 -->
<g id="node6" class="node">
<title>R266</title>
<g id="a_node6"><a xlink:href="266.svg" xlink:title="R266">
<polygon fill="cornsilk" stroke="none" points="1297,-156.36 1203,-156.36 1203,-109.36 1297,-109.36 1297,-156.36"/>
<text text-anchor="middle" x="1250" y="-124.36" font-family="Times New Roman,serif" font-size="35.00">R266</text>
</a>
</g>
</g>
<!-- R100&#45;&gt;R266 -->
<g id="edge5" class="edge">
<title>R100&#45;&gt;R266</title>
<path fill="none" stroke="black" stroke-width="6" d="M690.89,-132.86C796.85,-132.86 1058.9,-132.86 1182.48,-132.86"/>
<polygon fill="black" stroke="black" stroke-width="6" points="1177.18,-143.36 1197.18,-132.86 1177.18,-122.36 1177.18,-143.36"/>
<text text-anchor="middle" x="947" y="-141.86" font-family="Times New Roman,serif" font-size="30.00"> &#160;&#160;748 &#160;&#160;100% &#160;&#160;0.00773 mol/s &#160;&#160;&#160;2.07E&#45;01</text>
</g>
<!-- R0 -->
<g id="node2" class="node">
<title>R0</title>
<g id="a_node2"><a xlink:href="0.svg" xlink:title="R0">
<polygon fill="cornsilk" stroke="none" points="67,-254.36 9,-254.36 9,-207.36 67,-207.36 67,-254.36"/>
<text text-anchor="middle" x="38" y="-222.36" font-family="Times New Roman,serif" font-size="35.00">R0</text>
</a>
</g>
</g>
<!-- R0&#45;&gt;R100 -->
<g id="edge1" class="edge">
<title>R0&#45;&gt;R100</title>
<path fill="none" stroke="black" stroke-width="3" d="M66.99,-236.23C149.65,-250.69 398.09,-284.07 577,-201.86 594.59,-193.78 609.86,-178.71 621.27,-164.72"/>
<polygon fill="black" stroke="black" stroke-width="3" points="622.51,-169.26 625.87,-159.21 616.97,-164.97 622.51,-169.26"/>
<text text-anchor="middle" x="341" y="-263.86" font-family="Times New Roman,serif" font-size="30.00"> &#160;&#160;129 &#160;&#160;50% &#160;&#160;0.0342 mol/s &#160;&#160;&#160;1.00E+00</text>
</g>
<!-- R61 -->
<g id="node3" class="node">
<title>R61</title>
<g id="a_node3"><a xlink:href="61.svg" xlink:title="R61">
<polygon fill="cornsilk" stroke="none" points="76,-189.36 0,-189.36 0,-142.36 76,-142.36 76,-189.36"/>
<text text-anchor="middle" x="38" y="-157.36" font-family="Times New Roman,serif" font-size="35.00">R61</text>
</a>
</g>
</g>
<!-- R61&#45;&gt;R100 -->
<g id="edge2" class="edge">
<title>R61&#45;&gt;R100</title>
<path fill="none" stroke="black" stroke-width="3" d="M75.97,-165.93C163.35,-165.74 389.4,-163.25 577,-143.86 580.09,-143.54 583.25,-143.17 586.44,-142.76"/>
<polygon fill="black" stroke="black" stroke-width="3" points="583.88,-146.09 593.3,-141.23 582.91,-139.16 583.88,-146.09"/>
<text text-anchor="middle" x="341" y="-173.86" font-family="Times New Roman,serif" font-size="30.00"> &#160;&#160;129 &#160;&#160;50% &#160;&#160;0.0342 mol/s &#160;&#160;&#160;1.00E+00</text>
</g>
<!-- R4 -->
<g id="node4" class="node">
<title>R4</title>
<g id="a_node4"><a xlink:href="4.svg" xlink:title="R4">
<polygon fill="cornsilk" stroke="none" points="67,-124.36 9,-124.36 9,-77.36 67,-77.36 67,-124.36"/>
<text text-anchor="middle" x="38" y="-92.36" font-family="Times New Roman,serif" font-size="35.00">R4</text>
</a>
</g>
</g>
<!-- R4&#45;&gt;R100 -->
<g id="edge3" class="edge">
<title>R4&#45;&gt;R100</title>
<path fill="none" stroke="black" stroke-width="3" d="M67,-98.43C147.19,-92.09 384.34,-77.76 577,-110.86 580.23,-111.41 583.51,-112.1 586.81,-112.88"/>
<polygon fill="black" stroke="black" stroke-width="3" points="582.74,-115.48 593.3,-114.65 584.53,-108.71 582.74,-115.48"/>
<text text-anchor="middle" x="341" y="-119.86" font-family="Times New Roman,serif" font-size="30.00"> &#160;&#160;299 &#160;&#160;50% &#160;&#160;0.0342 mol/s &#160;&#160;&#160;1.00E+00</text>
</g>
<!-- R15 -->
<g id="node5" class="node">
<title>R15</title>
<g id="a_node5"><a xlink:href="15.svg" xlink:title="R15">
<polygon fill="cornsilk" stroke="none" points="76,-59.36 0,-59.36 0,-12.36 76,-12.36 76,-59.36"/>
<text text-anchor="middle" x="38" y="-27.36" font-family="Times New Roman,serif" font-size="35.00">R15</text>
</a>
</g>
</g>
<!-- R15&#45;&gt;R100 -->
<g id="edge4" class="edge">
<title>R15&#45;&gt;R100</title>
<path fill="none" stroke="black" stroke-width="3" d="M75.75,-27.06C166.51,-7.33 406.26,32.39 577,-51.86 598.06,-62.25 614.69,-82.84 625.99,-100.66"/>
<polygon fill="black" stroke="black" stroke-width="3" points="621.26,-99.9 629.41,-106.66 627.25,-96.29 621.26,-99.9"/>
<text text-anchor="middle" x="341" y="-60.86" font-family="Times New Roman,serif" font-size="30.00"> &#160;&#160;299 &#160;&#160;50% &#160;&#160;0.0342 mol/s &#160;&#160;&#160;1.00E+00</text>
</g>
</g>
</svg>
