<?xml version="1.0" encoding="UTF-8" standalone="no"?>
<!DOCTYPE svg PUBLIC "-//W3C//DTD SVG 1.1//EN"
 "http://www.w3.org/Graphics/SVG/1.1/DTD/svg11.dtd">
<!-- Generated by graphviz version 8.0.3 (20230416.2022)
 -->
<!-- Title: G Pages: 1 -->
<svg width="640pt" height="172pt"
 viewBox="0.00 0.00 720.00 193.24" xmlns="http://www.w3.org/2000/svg" xmlns:xlink="http://www.w3.org/1999/xlink">
<g id="graph0" class="graph" transform="scale(0.484481 0.484481) rotate(0) translate(4 350.54)">
<title>G</title>
<polygon fill="white" stroke="none" points="-4,4 -4,-350.54 1317,-350.54 1317,4 -4,4"/>
<text text-anchor="middle" x="656.5" y="-313.74" font-family="Arial" font-size="36.00" fill="blue">Reaction Path Analysis</text>
<!-- R100 -->
<g id="node1" class="node">
<title>R100</title>
<g id="a_node1"><a xlink:href="100.svg" xlink:title="R100">
<polygon fill="cornsilk" stroke="none" points="699,-162.04 605,-162.04 605,-115.04 699,-115.04 699,-162.04"/>
<text text-anchor="middle" x="652" y="-130.04" font-family="Times New Roman,serif" font-size="35.00">R100</text>
</a>
</g>
</g>
<!-- R266 -->
<g id="node6" class="node">
<title>R266</title>
<g id="a_node6"><a xlink:href="266.svg" xlink:title="R266">
<polygon fill="cornsilk" stroke="none" points="1313,-162.04 1219,-162.04 1219,-115.04 1313,-115.04 1313,-162.04"/>
<text text-anchor="middle" x="1266" y="-130.04" font-family="Times New Roman,serif" font-size="35.00">R266</text>
</a>
</g>
</g>
<!-- R100&#45;&gt;R266 -->
<g id="edge5" class="edge">
<title>R100&#45;&gt;R266</title>
<path fill="none" stroke="black" stroke-width="6" d="M699,-138.54C806.26,-138.54 1073.28,-138.54 1198.37,-138.54"/>
<polygon fill="black" stroke="black" stroke-width="6" points="1193.3,-149.04 1213.3,-138.54 1193.3,-128.04 1193.3,-149.04"/>
<text text-anchor="middle" x="959" y="-147.54" font-family="Times New Roman,serif" font-size="30.00"> &#160;&#160;748 &#160;&#160;100% &#160;&#160;5.26e&#45;10 mol/s &#160;&#160;&#160;1.85E&#45;02</text>
</g>
<!-- R0 -->
<g id="node2" class="node">
<title>R0</title>
<g id="a_node2"><a xlink:href="0.svg" xlink:title="R0">
<polygon fill="cornsilk" stroke="none" points="67,-260.04 9,-260.04 9,-213.04 67,-213.04 67,-260.04"/>
<text text-anchor="middle" x="38" y="-228.04" font-family="Times New Roman,serif" font-size="35.00">R0</text>
</a>
</g>
</g>
<!-- R0&#45;&gt;R100 -->
<g id="edge1" class="edge">
<title>R0&#45;&gt;R100</title>
<path fill="none" stroke="black" stroke-width="3" d="M66.81,-242.49C151.22,-259.07 409.87,-298.9 592,-208.54 608.58,-200.31 622.29,-185.08 632.31,-170.92"/>
<polygon fill="black" stroke="black" stroke-width="3" points="633.72,-175.12 636.35,-164.85 627.89,-171.23 633.72,-175.12"/>
<text text-anchor="middle" x="345" y="-274.54" font-family="Times New Roman,serif" font-size="30.00"> &#160;&#160;129 &#160;&#160;50% &#160;&#160;4.67e&#45;08 mol/s &#160;&#160;&#160;1.00E+00</text>
</g>
<!-- R61 -->
<g id="node3" class="node">
<title>R61</title>
<g id="a_node3"><a xlink:href="61.svg" xlink:title="R61">
<polygon fill="cornsilk" stroke="none" points="76,-195.04 0,-195.04 0,-148.04 76,-148.04 76,-195.04"/>
<text text-anchor="middle" x="38" y="-163.04" font-family="Times New Roman,serif" font-size="35.00">R61</text>
</a>
</g>
</g>
<!-- R61&#45;&gt;R100 -->
<g id="edge2" class="edge">
<title>R61&#45;&gt;R100</title>
<path fill="none" stroke="black" stroke-width="3" d="M75.7,-171.91C164.59,-172.4 398.41,-171.32 592,-149.54 592.8,-149.45 593.6,-149.36 594.4,-149.26"/>
<polygon fill="black" stroke="black" stroke-width="3" points="591.62,-152.62 601.04,-147.77 590.65,-145.69 591.62,-152.62"/>
<text text-anchor="middle" x="345" y="-180.54" font-family="Times New Roman,serif" font-size="30.00"> &#160;&#160;129 &#160;&#160;50% &#160;&#160;4.67e&#45;08 mol/s &#160;&#160;&#160;1.00E+00</text>
</g>
<!-- R4 -->
<g id="node4" class="node">
<title>R4</title>
<g id="a_node4"><a xlink:href="4.svg" xlink:title="R4">
<polygon fill="cornsilk" stroke="none" points="67,-130.04 9,-130.04 9,-83.04 67,-83.04 67,-130.04"/>
<text text-anchor="middle" x="38" y="-98.04" font-family="Times New Roman,serif" font-size="35.00">R4</text>
</a>
</g>
</g>
<!-- R4&#45;&gt;R100 -->
<g id="edge3" class="edge">
<title>R4&#45;&gt;R100</title>
<path fill="none" stroke="black" stroke-width="3" d="M66.96,-103.75C148.68,-96.3 393.89,-78.95 592,-116.54 592.81,-116.69 593.61,-116.86 594.43,-117.03"/>
<polygon fill="black" stroke="black" stroke-width="3" points="590.49,-119.66 601.05,-118.72 592.22,-112.87 590.49,-119.66"/>
<text text-anchor="middle" x="345" y="-125.54" font-family="Times New Roman,serif" font-size="30.00"> &#160;&#160;299 &#160;&#160;50% &#160;&#160;4.67e&#45;08 mol/s &#160;&#160;&#160;1.00E+00</text>
</g>
<!-- R15 -->
<g id="node5" class="node">
<title>R15</title>
<g id="a_node5"><a xlink:href="15.svg" xlink:title="R15">
<polygon fill="cornsilk" stroke="none" points="76,-65.04 0,-65.04 0,-18.04 76,-18.04 76,-65.04"/>
<text text-anchor="middle" x="38" y="-33.04" font-family="Times New Roman,serif" font-size="35.00">R15</text>
</a>
</g>
</g>
<!-- R15&#45;&gt;R100 -->
<g id="edge4" class="edge">
<title>R15&#45;&gt;R100</title>
<path fill="none" stroke="black" stroke-width="3" d="M75.74,-31.89C168.75,-9.6 418.41,36.84 592,-55.54 612.15,-66.26 626.98,-87.28 636.73,-105.48"/>
<polygon fill="black" stroke="black" stroke-width="3" points="632.01,-103.85 639.63,-111.22 638.26,-100.71 632.01,-103.85"/>
<text text-anchor="middle" x="345" y="-64.54" font-family="Times New Roman,serif" font-size="30.00"> &#160;&#160;299 &#160;&#160;50% &#160;&#160;4.67e&#45;08 mol/s &#160;&#160;&#160;1.00E+00</text>
</g>
</g>
</svg>
