<?xml version="1.0" encoding="UTF-8" standalone="no"?>
<!DOCTYPE svg PUBLIC "-//W3C//DTD SVG 1.1//EN"
 "http://www.w3.org/Graphics/SVG/1.1/DTD/svg11.dtd">
<!-- Generated by graphviz version 8.0.3 (20230416.2022)
 -->
<!-- Title: G Pages: 1 -->
<svg width="610pt" height="228pt"
 viewBox="0.00 0.00 686.00 256.50" xmlns="http://www.w3.org/2000/svg" xmlns:xlink="http://www.w3.org/1999/xlink">
<g id="graph0" class="graph" transform="scale(0.888889 0.888889) rotate(0) translate(4 252.5)">
<title>G</title>
<polygon fill="white" stroke="none" points="-4,4 -4,-252.5 682,-252.5 682,4 -4,4"/>
<text text-anchor="middle" x="339" y="-215.7" font-family="Arial" font-size="36.00" fill="blue">Reaction Path Analysis</text>
<!-- R103 -->
<g id="node1" class="node">
<title>R103</title>
<g id="a_node1"><a xlink:href="103.svg" xlink:title="R103">
<polygon fill="cornsilk" stroke="none" points="678,-112 584,-112 584,-65 678,-65 678,-112"/>
<text text-anchor="middle" x="631" y="-80" font-family="Times New Roman,serif" font-size="35.00">R103</text>
</a>
</g>
</g>
<!-- R0 -->
<g id="node2" class="node">
<title>R0</title>
<g id="a_node2"><a xlink:href="0.svg" xlink:title="R0">
<polygon fill="cornsilk" stroke="none" points="76,-177 18,-177 18,-130 76,-130 76,-177"/>
<text text-anchor="middle" x="47" y="-145" font-family="Times New Roman,serif" font-size="35.00">R0</text>
</a>
</g>
</g>
<!-- R0&#45;&gt;R103 -->
<g id="edge1" class="edge">
<title>R0&#45;&gt;R103</title>
<path fill="none" stroke="black" stroke-width="5" d="M75.83,-157.09C155.93,-166.36 392.96,-186.36 575,-125.5 577.9,-124.53 580.79,-123.36 583.64,-122.05"/>
<polygon fill="black" stroke="black" stroke-width="5" points="583.54,-132.33 596.58,-114.82 574.87,-117.13 583.54,-132.33"/>
<text text-anchor="middle" x="339" y="-176.5" font-family="Times New Roman,serif" font-size="30.00"> &#160;&#160;136 &#160;&#160;92% &#160;&#160;0.0342 mol/s &#160;&#160;&#160;1.00E+00</text>
</g>
<!-- R70 -->
<g id="node3" class="node">
<title>R70</title>
<g id="a_node3"><a xlink:href="70.svg" xlink:title="R70">
<polygon fill="cornsilk" stroke="none" points="85,-112 9,-112 9,-65 85,-65 85,-112"/>
<text text-anchor="middle" x="47" y="-80" font-family="Times New Roman,serif" font-size="35.00">R70</text>
</a>
</g>
</g>
<!-- R70&#45;&gt;R103 -->
<g id="edge2" class="edge">
<title>R70&#45;&gt;R103</title>
<path fill="none" stroke="black" stroke-width="5" d="M84.85,-88.5C180.92,-88.5 440.14,-88.5 563.28,-88.5"/>
<polygon fill="black" stroke="black" stroke-width="5" points="558.28,-97.25 578.28,-88.5 558.28,-79.75 558.28,-97.25"/>
<text text-anchor="middle" x="339" y="-97.5" font-family="Times New Roman,serif" font-size="30.00"> &#160;&#160;136 &#160;&#160;92% &#160;&#160;0.0342 mol/s &#160;&#160;&#160;1.00E+00</text>
</g>
<!-- R226 -->
<g id="node4" class="node">
<title>R226</title>
<g id="a_node4"><a xlink:href="226.svg" xlink:title="R226">
<polygon fill="cornsilk" stroke="none" points="94,-47 0,-47 0,0 94,0 94,-47"/>
<text text-anchor="middle" x="47" y="-15" font-family="Times New Roman,serif" font-size="35.00">R226</text>
</a>
</g>
</g>
<!-- R226&#45;&gt;R103 -->
<g id="edge3" class="edge">
<title>R226&#45;&gt;R103</title>
<path fill="none" stroke="black" d="M93.92,-17.94C187.36,-8.33 405.12,5.29 575,-51.5 580.94,-53.49 586.85,-56.3 592.46,-59.5"/>
<polygon fill="black" stroke="black" points="590.24,-62.87 600.58,-65.18 593.94,-56.93 590.24,-62.87"/>
<text text-anchor="middle" x="339" y="-60.5" font-family="Times New Roman,serif" font-size="30.00"> &#160;&#160;705 &#160;&#160;7% &#160;&#160;0.00271 mol/s &#160;&#160;&#160;9.97E&#45;01</text>
</g>
</g>
</svg>
