<?xml version="1.0" encoding="UTF-8" standalone="no"?>
<!DOCTYPE svg PUBLIC "-//W3C//DTD SVG 1.1//EN"
 "http://www.w3.org/Graphics/SVG/1.1/DTD/svg11.dtd">
<!-- Generated by graphviz version 8.0.3 (20230416.2022)
 -->
<!-- Title: G Pages: 1 -->
<svg width="640pt" height="179pt"
 viewBox="0.00 0.00 720.00 201.38" xmlns="http://www.w3.org/2000/svg" xmlns:xlink="http://www.w3.org/1999/xlink">
<g id="graph0" class="graph" transform="scale(0.507534 0.507534) rotate(0) translate(4 348.69)">
<title>G</title>
<polygon fill="white" stroke="none" points="-4,4 -4,-348.69 1257,-348.69 1257,4 -4,4"/>
<text text-anchor="middle" x="626.5" y="-311.89" font-family="Arial" font-size="36.00" fill="blue">Reaction Path Analysis</text>
<!-- R104 -->
<g id="node1" class="node">
<title>R104</title>
<g id="a_node1"><a xlink:href="104.svg" xlink:title="R104">
<polygon fill="cornsilk" stroke="none" points="669,-161.19 575,-161.19 575,-114.19 669,-114.19 669,-161.19"/>
<text text-anchor="middle" x="622" y="-129.19" font-family="Times New Roman,serif" font-size="35.00">R104</text>
</a>
</g>
</g>
<!-- R261 -->
<g id="node6" class="node">
<title>R261</title>
<g id="a_node6"><a xlink:href="261.svg" xlink:title="R261">
<polygon fill="cornsilk" stroke="none" points="1253,-161.19 1159,-161.19 1159,-114.19 1253,-114.19 1253,-161.19"/>
<text text-anchor="middle" x="1206" y="-129.19" font-family="Times New Roman,serif" font-size="35.00">R261</text>
</a>
</g>
</g>
<!-- R104&#45;&gt;R261 -->
<g id="edge5" class="edge">
<title>R104&#45;&gt;R261</title>
<path fill="none" stroke="black" stroke-width="6" d="M668.67,-137.69C770.96,-137.69 1018.87,-137.69 1138.38,-137.69"/>
<polygon fill="black" stroke="black" stroke-width="6" points="1133.14,-148.19 1153.14,-137.69 1133.14,-127.19 1133.14,-148.19"/>
<text text-anchor="middle" x="914" y="-146.69" font-family="Times New Roman,serif" font-size="30.00"> &#160;&#160;741 &#160;&#160;100% &#160;&#160;0.209 mol/s &#160;&#160;&#160;1.27E&#45;02</text>
</g>
<!-- R0 -->
<g id="node2" class="node">
<title>R0</title>
<g id="a_node2"><a xlink:href="0.svg" xlink:title="R0">
<polygon fill="cornsilk" stroke="none" points="67,-259.19 9,-259.19 9,-212.19 67,-212.19 67,-259.19"/>
<text text-anchor="middle" x="38" y="-227.19" font-family="Times New Roman,serif" font-size="35.00">R0</text>
</a>
</g>
</g>
<!-- R0&#45;&gt;R104 -->
<g id="edge1" class="edge">
<title>R0&#45;&gt;R104</title>
<path fill="none" stroke="black" stroke-width="3" d="M66.8,-241.77C148.84,-258.21 394.84,-296.57 566,-207.69 581.98,-199.39 594.8,-184.15 604.03,-170"/>
<polygon fill="black" stroke="black" stroke-width="3" points="605.34,-174.31 607.58,-163.95 599.37,-170.65 605.34,-174.31"/>
<text text-anchor="middle" x="330" y="-272.69" font-family="Times New Roman,serif" font-size="30.00"> &#160;&#160;137 &#160;&#160;50% &#160;&#160;0.0342 mol/s &#160;&#160;&#160;1.00E+00</text>
</g>
<!-- R70 -->
<g id="node3" class="node">
<title>R70</title>
<g id="a_node3"><a xlink:href="70.svg" xlink:title="R70">
<polygon fill="cornsilk" stroke="none" points="76,-194.19 0,-194.19 0,-147.19 76,-147.19 76,-194.19"/>
<text text-anchor="middle" x="38" y="-162.19" font-family="Times New Roman,serif" font-size="35.00">R70</text>
</a>
</g>
</g>
<!-- R70&#45;&gt;R104 -->
<g id="edge2" class="edge">
<title>R70&#45;&gt;R104</title>
<path fill="none" stroke="black" stroke-width="3" d="M75.9,-171.11C160.45,-171.67 374.87,-170.7 564.45,-148.68"/>
<polygon fill="black" stroke="black" stroke-width="3" points="561.65,-152.06 571.17,-147.41 560.83,-145.11 561.65,-152.06"/>
<text text-anchor="middle" x="330" y="-179.69" font-family="Times New Roman,serif" font-size="30.00"> &#160;&#160;137 &#160;&#160;50% &#160;&#160;0.0342 mol/s &#160;&#160;&#160;1.00E+00</text>
</g>
<!-- R6 -->
<g id="node4" class="node">
<title>R6</title>
<g id="a_node4"><a xlink:href="6.svg" xlink:title="R6">
<polygon fill="cornsilk" stroke="none" points="67,-129.19 9,-129.19 9,-82.19 67,-82.19 67,-129.19"/>
<text text-anchor="middle" x="38" y="-97.19" font-family="Times New Roman,serif" font-size="35.00">R6</text>
</a>
</g>
</g>
<!-- R6&#45;&gt;R104 -->
<g id="edge3" class="edge">
<title>R6&#45;&gt;R104</title>
<path fill="none" stroke="black" stroke-width="3" d="M66.81,-102.74C144.49,-95.23 370.19,-78.36 564.47,-115.83"/>
<polygon fill="black" stroke="black" stroke-width="3" points="560.67,-119.44 571.16,-117.95 562.03,-112.57 560.67,-119.44"/>
<text text-anchor="middle" x="330" y="-124.69" font-family="Times New Roman,serif" font-size="30.00"> &#160;&#160;315 &#160;&#160;50% &#160;&#160;0.0342 mol/s &#160;&#160;&#160;1.00E+00</text>
</g>
<!-- R15 -->
<g id="node5" class="node">
<title>R15</title>
<g id="a_node5"><a xlink:href="15.svg" xlink:title="R15">
<polygon fill="cornsilk" stroke="none" points="76,-64.19 0,-64.19 0,-17.19 76,-17.19 76,-64.19"/>
<text text-anchor="middle" x="38" y="-32.19" font-family="Times New Roman,serif" font-size="35.00">R15</text>
</a>
</g>
</g>
<!-- R15&#45;&gt;R104 -->
<g id="edge4" class="edge">
<title>R15&#45;&gt;R104</title>
<path fill="none" stroke="black" stroke-width="3" d="M75.85,-30.82C166.17,-8.81 403.09,35.6 566,-54.69 585.43,-65.45 599.21,-86.32 608.12,-104.44"/>
<polygon fill="black" stroke="black" stroke-width="3" points="604.34,-102.78 611.69,-110.42 610.71,-99.87 604.34,-102.78"/>
<text text-anchor="middle" x="330" y="-63.69" font-family="Times New Roman,serif" font-size="30.00"> &#160;&#160;315 &#160;&#160;50% &#160;&#160;0.0342 mol/s &#160;&#160;&#160;1.00E+00</text>
</g>
</g>
</svg>
