<?xml version="1.0" encoding="UTF-8" standalone="no"?>
<!DOCTYPE svg PUBLIC "-//W3C//DTD SVG 1.1//EN"
 "http://www.w3.org/Graphics/SVG/1.1/DTD/svg11.dtd">
<!-- Generated by graphviz version 8.0.3 (20230416.2022)
 -->
<!-- Title: G Pages: 1 -->
<svg width="640pt" height="85pt"
 viewBox="0.00 0.00 720.00 95.73" xmlns="http://www.w3.org/2000/svg" xmlns:xlink="http://www.w3.org/1999/xlink">
<g id="graph0" class="graph" transform="scale(0.479401 0.479401) rotate(0) translate(4 173.5)">
<title>G</title>
<polygon fill="white" stroke="none" points="-4,4 -4,-173.5 1331,-173.5 1331,4 -4,4"/>
<text text-anchor="middle" x="663.5" y="-136.7" font-family="Arial" font-size="36.00" fill="blue">Reaction Path Analysis</text>
<!-- R105 -->
<g id="node1" class="node">
<title>R105</title>
<g id="a_node1"><a xlink:href="105.svg" xlink:title="R105">
<polygon fill="cornsilk" stroke="none" points="706,-79 612,-79 612,-32 706,-32 706,-79"/>
<text text-anchor="middle" x="659" y="-47" font-family="Times New Roman,serif" font-size="35.00">R105</text>
</a>
</g>
</g>
<!-- R331 -->
<g id="node4" class="node">
<title>R331</title>
<g id="a_node4"><a xlink:href="331.svg" xlink:title="R331">
<polygon fill="cornsilk" stroke="none" points="1327,-79 1233,-79 1233,-32 1327,-32 1327,-79"/>
<text text-anchor="middle" x="1280" y="-47" font-family="Times New Roman,serif" font-size="35.00">R331</text>
</a>
</g>
</g>
<!-- R105&#45;&gt;R331 -->
<g id="edge3" class="edge">
<title>R105&#45;&gt;R331</title>
<path fill="none" stroke="black" stroke-width="6" d="M705.77,-55.5C813.93,-55.5 1085.71,-55.5 1212.25,-55.5"/>
<polygon fill="black" stroke="black" stroke-width="6" points="1207.05,-66 1227.05,-55.5 1207.05,-45 1207.05,-66"/>
<text text-anchor="middle" x="969.5" y="-64.5" font-family="Times New Roman,serif" font-size="30.00"> &#160;&#160;555 &#160;&#160;100% &#160;&#160;2.18e&#45;15 mol/s &#160;&#160;&#160;1.00E+00</text>
</g>
<!-- R0 -->
<g id="node2" class="node">
<title>R0</title>
<g id="a_node2"><a xlink:href="0.svg" xlink:title="R0">
<polygon fill="cornsilk" stroke="none" points="67,-112 9,-112 9,-65 67,-65 67,-112"/>
<text text-anchor="middle" x="38" y="-80" font-family="Times New Roman,serif" font-size="35.00">R0</text>
</a>
</g>
</g>
<!-- R0&#45;&gt;R105 -->
<g id="edge1" class="edge">
<title>R0&#45;&gt;R105</title>
<path fill="none" stroke="black" stroke-width="6" d="M67,-88.97C146.79,-89.99 382.54,-90.74 591.4,-67.62"/>
<polygon fill="black" stroke="black" stroke-width="6" points="587.5,-77.95 606.17,-65.23 585.1,-57.09 587.5,-77.95"/>
<text text-anchor="middle" x="348.5" y="-97.5" font-family="Times New Roman,serif" font-size="30.00"> &#160;&#160;146 &#160;&#160;100% &#160;&#160;2.18e&#45;15 mol/s &#160;&#160;&#160;1.00E+00</text>
</g>
<!-- R87 -->
<g id="node3" class="node">
<title>R87</title>
<g id="a_node3"><a xlink:href="87.svg" xlink:title="R87">
<polygon fill="cornsilk" stroke="none" points="76,-47 0,-47 0,0 76,0 76,-47"/>
<text text-anchor="middle" x="38" y="-15" font-family="Times New Roman,serif" font-size="35.00">R87</text>
</a>
</g>
</g>
<!-- R87&#45;&gt;R105 -->
<g id="edge2" class="edge">
<title>R87&#45;&gt;R105</title>
<path fill="none" stroke="black" stroke-width="6" d="M75.78,-19.62C163.47,-11.3 391.8,4.81 591.67,-31.8"/>
<polygon fill="black" stroke="black" stroke-width="6" points="584.53,-41.28 606.16,-34.76 588.52,-20.66 584.53,-41.28"/>
<text text-anchor="middle" x="348.5" y="-42.5" font-family="Times New Roman,serif" font-size="30.00"> &#160;&#160;146 &#160;&#160;100% &#160;&#160;2.18e&#45;15 mol/s &#160;&#160;&#160;1.00E+00</text>
</g>
</g>
</svg>
