<?xml version="1.0" encoding="UTF-8" standalone="no"?>
<!DOCTYPE svg PUBLIC "-//W3C//DTD SVG 1.1//EN"
 "http://www.w3.org/Graphics/SVG/1.1/DTD/svg11.dtd">
<!-- Generated by graphviz version 8.0.3 (20230416.2022)
 -->
<!-- Title: G Pages: 1 -->
<svg width="640pt" height="205pt"
 viewBox="0.00 0.00 720.00 231.16" xmlns="http://www.w3.org/2000/svg" xmlns:xlink="http://www.w3.org/1999/xlink">
<g id="graph0" class="graph" transform="scale(0.487062 0.487062) rotate(0) translate(4 417.87)">
<title>G</title>
<polygon fill="white" stroke="none" points="-4,4 -4,-417.87 1310,-417.87 1310,4 -4,4"/>
<text text-anchor="middle" x="653" y="-381.07" font-family="Arial" font-size="36.00" fill="blue">Reaction Path Analysis</text>
<!-- R106 -->
<g id="node1" class="node">
<title>R106</title>
<g id="a_node1"><a xlink:href="106.svg" xlink:title="R106">
<polygon fill="cornsilk" stroke="none" points="700,-191.37 606,-191.37 606,-144.37 700,-144.37 700,-191.37"/>
<text text-anchor="middle" x="653" y="-159.37" font-family="Times New Roman,serif" font-size="35.00">R106</text>
</a>
</g>
</g>
<!-- R242 -->
<g id="node7" class="node">
<title>R242</title>
<g id="a_node7"><a xlink:href="242.svg" xlink:title="R242">
<polygon fill="cornsilk" stroke="none" points="1306,-191.37 1212,-191.37 1212,-144.37 1306,-144.37 1306,-191.37"/>
<text text-anchor="middle" x="1259" y="-159.37" font-family="Times New Roman,serif" font-size="35.00">R242</text>
</a>
</g>
</g>
<!-- R106&#45;&gt;R242 -->
<g id="edge6" class="edge">
<title>R106&#45;&gt;R242</title>
<path fill="none" stroke="black" stroke-width="6" d="M699.89,-167.87C805.85,-167.87 1067.9,-167.87 1191.48,-167.87"/>
<polygon fill="black" stroke="black" stroke-width="6" points="1186.18,-178.37 1206.18,-167.87 1186.18,-157.37 1186.18,-178.37"/>
<text text-anchor="middle" x="956" y="-176.87" font-family="Times New Roman,serif" font-size="30.00"> &#160;&#160;711 &#160;&#160;100% &#160;&#160;0.00155 mol/s &#160;&#160;&#160;3.89E&#45;01</text>
</g>
<!-- R0 -->
<g id="node2" class="node">
<title>R0</title>
<g id="a_node2"><a xlink:href="0.svg" xlink:title="R0">
<polygon fill="cornsilk" stroke="none" points="76,-321.37 18,-321.37 18,-274.37 76,-274.37 76,-321.37"/>
<text text-anchor="middle" x="47" y="-289.37" font-family="Times New Roman,serif" font-size="35.00">R0</text>
</a>
</g>
</g>
<!-- R0&#45;&gt;R106 -->
<g id="edge1" class="edge">
<title>R0&#45;&gt;R106</title>
<path fill="none" stroke="black" d="M75.95,-304.9C158.94,-324.14 408.7,-370.25 578.5,-275.87 607.6,-259.69 627.49,-226.56 639.17,-201.24"/>
<polygon fill="black" stroke="black" points="642.72,-202.84 643.53,-192.28 636.31,-200.03 642.72,-202.84"/>
<text text-anchor="middle" x="350" y="-341.87" font-family="Times New Roman,serif" font-size="30.00"> &#160;&#160;147 &#160;&#160;1% &#160;&#160;0.0342 mol/s &#160;&#160;&#160;1.00E+00</text>
</g>
<!-- R87 -->
<g id="node3" class="node">
<title>R87</title>
<g id="a_node3"><a xlink:href="87.svg" xlink:title="R87">
<polygon fill="cornsilk" stroke="none" points="85,-256.37 9,-256.37 9,-209.37 85,-209.37 85,-256.37"/>
<text text-anchor="middle" x="47" y="-224.37" font-family="Times New Roman,serif" font-size="35.00">R87</text>
</a>
</g>
</g>
<!-- R87&#45;&gt;R106 -->
<g id="edge2" class="edge">
<title>R87&#45;&gt;R106</title>
<path fill="none" stroke="black" d="M84.82,-236.04C172.24,-242.47 398.44,-252.68 578.5,-204.87 586.66,-202.7 594.96,-199.57 602.91,-196.02"/>
<polygon fill="black" stroke="black" points="604.22,-198.8 611.75,-191.36 601.22,-192.48 604.22,-198.8"/>
<text text-anchor="middle" x="350" y="-249.87" font-family="Times New Roman,serif" font-size="30.00"> &#160;&#160;147 &#160;&#160;1% &#160;&#160;0.0342 mol/s &#160;&#160;&#160;1.00E+00</text>
</g>
<!-- R13 -->
<g id="node4" class="node">
<title>R13</title>
<g id="a_node4"><a xlink:href="13.svg" xlink:title="R13">
<polygon fill="cornsilk" stroke="none" points="85,-191.37 9,-191.37 9,-144.37 85,-144.37 85,-191.37"/>
<text text-anchor="middle" x="47" y="-159.37" font-family="Times New Roman,serif" font-size="35.00">R13</text>
</a>
</g>
</g>
<!-- R13&#45;&gt;R106 -->
<g id="edge3" class="edge">
<title>R13&#45;&gt;R106</title>
<path fill="none" stroke="black" d="M84.87,-167.87C186.83,-167.87 473.07,-167.87 595.4,-167.87"/>
<polygon fill="black" stroke="black" points="595.37,-171.37 605.37,-167.87 595.37,-164.37 595.37,-171.37"/>
<text text-anchor="middle" x="350" y="-176.87" font-family="Times New Roman,serif" font-size="30.00"> &#160;&#160;323 &#160;&#160;1% &#160;&#160;0.0342 mol/s &#160;&#160;&#160;1.00E+00</text>
</g>
<!-- R15 -->
<g id="node5" class="node">
<title>R15</title>
<g id="a_node5"><a xlink:href="15.svg" xlink:title="R15">
<polygon fill="cornsilk" stroke="none" points="85,-126.37 9,-126.37 9,-79.37 85,-79.37 85,-126.37"/>
<text text-anchor="middle" x="47" y="-94.37" font-family="Times New Roman,serif" font-size="35.00">R15</text>
</a>
</g>
</g>
<!-- R15&#45;&gt;R106 -->
<g id="edge4" class="edge">
<title>R15&#45;&gt;R106</title>
<path fill="none" stroke="black" d="M84.82,-99.7C172.24,-93.26 398.44,-83.05 578.5,-130.87 586.66,-133.03 594.96,-136.17 602.91,-139.71"/>
<polygon fill="black" stroke="black" points="601.22,-143.26 611.75,-144.37 604.22,-136.93 601.22,-143.26"/>
<text text-anchor="middle" x="350" y="-139.87" font-family="Times New Roman,serif" font-size="30.00"> &#160;&#160;323 &#160;&#160;1% &#160;&#160;0.0342 mol/s &#160;&#160;&#160;1.00E+00</text>
</g>
<!-- R332 -->
<g id="node6" class="node">
<title>R332</title>
<g id="a_node6"><a xlink:href="332.svg" xlink:title="R332">
<polygon fill="cornsilk" stroke="none" points="94,-61.37 0,-61.37 0,-14.37 94,-14.37 94,-61.37"/>
<text text-anchor="middle" x="47" y="-29.37" font-family="Times New Roman,serif" font-size="35.00">R332</text>
</a>
</g>
</g>
<!-- R332&#45;&gt;R106 -->
<g id="edge5" class="edge">
<title>R332&#45;&gt;R106</title>
<path fill="none" stroke="black" stroke-width="5" d="M93.94,-26.37C190.77,-4.79 419.92,32.01 578.5,-56.87 605.25,-71.86 624.02,-101.13 635.89,-125.85"/>
<polygon fill="black" stroke="black" stroke-width="5" points="626.1,-124.89 642.11,-139.74 642.15,-117.91 626.1,-124.89"/>
<text text-anchor="middle" x="350" y="-65.87" font-family="Times New Roman,serif" font-size="30.00"> &#160;&#160;556 &#160;&#160;97% &#160;&#160;2.38 mol/s &#160;&#160;&#160;1.39E&#45;02</text>
</g>
</g>
</svg>
