<?xml version="1.0" encoding="UTF-8" standalone="no"?>
<!DOCTYPE svg PUBLIC "-//W3C//DTD SVG 1.1//EN"
 "http://www.w3.org/Graphics/SVG/1.1/DTD/svg11.dtd">
<!-- Generated by graphviz version 8.0.3 (20230416.2022)
 -->
<!-- Title: G Pages: 1 -->
<svg width="640pt" height="282pt"
 viewBox="0.00 0.00 720.00 317.03" xmlns="http://www.w3.org/2000/svg" xmlns:xlink="http://www.w3.org/1999/xlink">
<g id="graph0" class="graph" transform="scale(0.479401 0.479401) rotate(0) translate(4 583.83)">
<title>G</title>
<polygon fill="white" stroke="none" points="-4,4 -4,-583.83 1331,-583.83 1331,4 -4,4"/>
<text text-anchor="middle" x="663.5" y="-547.03" font-family="Arial" font-size="36.00" fill="blue">Reaction Path Analysis</text>
<!-- R109 -->
<g id="node1" class="node">
<title>R109</title>
<g id="a_node1"><a xlink:href="109.svg" xlink:title="R109">
<polygon fill="cornsilk" stroke="none" points="706,-278.33 612,-278.33 612,-231.33 706,-231.33 706,-278.33"/>
<text text-anchor="middle" x="659" y="-246.33" font-family="Times New Roman,serif" font-size="35.00">R109</text>
</a>
</g>
</g>
<!-- R177 -->
<g id="node4" class="node">
<title>R177</title>
<g id="a_node4"><a xlink:href="177.svg" xlink:title="R177">
<polygon fill="cornsilk" stroke="none" points="1327,-506.33 1233,-506.33 1233,-459.33 1327,-459.33 1327,-506.33"/>
<text text-anchor="middle" x="1280" y="-474.33" font-family="Times New Roman,serif" font-size="35.00">R177</text>
</a>
</g>
</g>
<!-- R109&#45;&gt;R177 -->
<g id="edge3" class="edge">
<title>R109&#45;&gt;R177</title>
<path fill="none" stroke="black" d="M659.32,-278.3C659.48,-321.63 666.76,-413.69 722.5,-456.83 799.06,-516.09 1096.24,-498.56 1222.13,-488.11"/>
<polygon fill="black" stroke="black" points="1222.39,-491.52 1232.05,-487.18 1221.79,-484.54 1222.39,-491.52"/>
<text text-anchor="middle" x="969.5" y="-507.83" font-family="Times New Roman,serif" font-size="30.00"> &#160;&#160;480 &#160;&#160;14% &#160;&#160;4.67e&#45;08 mol/s &#160;&#160;&#160;1.00E+00</text>
</g>
<!-- R215 -->
<g id="node5" class="node">
<title>R215</title>
<g id="a_node5"><a xlink:href="215.svg" xlink:title="R215">
<polygon fill="cornsilk" stroke="none" points="1327,-441.33 1233,-441.33 1233,-394.33 1327,-394.33 1327,-441.33"/>
<text text-anchor="middle" x="1280" y="-409.33" font-family="Times New Roman,serif" font-size="35.00">R215</text>
</a>
</g>
</g>
<!-- R109&#45;&gt;R215 -->
<g id="edge4" class="edge">
<title>R109&#45;&gt;R215</title>
<path fill="none" stroke="black" d="M662.8,-278.12C668.09,-310.7 682.85,-368.9 722.5,-395.83 763.1,-423.4 1089.37,-421.08 1222.62,-418.94"/>
<polygon fill="black" stroke="black" points="1222.45,-422.42 1232.39,-418.76 1222.33,-415.42 1222.45,-422.42"/>
<text text-anchor="middle" x="969.5" y="-428.83" font-family="Times New Roman,serif" font-size="30.00"> &#160;&#160;557 &#160;&#160;14% &#160;&#160;4.67e&#45;08 mol/s &#160;&#160;&#160;1.00E+00</text>
</g>
<!-- R314 -->
<g id="node6" class="node">
<title>R314</title>
<g id="a_node6"><a xlink:href="314.svg" xlink:title="R314">
<polygon fill="cornsilk" stroke="none" points="1327,-376.33 1233,-376.33 1233,-329.33 1327,-329.33 1327,-376.33"/>
<text text-anchor="middle" x="1280" y="-344.33" font-family="Times New Roman,serif" font-size="35.00">R314</text>
</a>
</g>
</g>
<!-- R109&#45;&gt;R314 -->
<g id="edge5" class="edge">
<title>R109&#45;&gt;R314</title>
<path fill="none" stroke="black" d="M673.73,-278.17C684.68,-294.4 701.63,-314.85 722.5,-324.83 809.54,-366.46 1098.83,-360.21 1222.33,-355.43"/>
<polygon fill="black" stroke="black" points="1222.19,-358.89 1232.05,-355 1221.91,-351.9 1222.19,-358.89"/>
<text text-anchor="middle" x="969.5" y="-367.83" font-family="Times New Roman,serif" font-size="30.00"> &#160;&#160;558 &#160;&#160;14% &#160;&#160;4.67e&#45;08 mol/s &#160;&#160;&#160;1.00E+00</text>
</g>
<!-- R236 -->
<g id="node7" class="node">
<title>R236</title>
<g id="a_node7"><a xlink:href="236.svg" xlink:title="R236">
<polygon fill="cornsilk" stroke="none" points="1327,-311.33 1233,-311.33 1233,-264.33 1327,-264.33 1327,-311.33"/>
<text text-anchor="middle" x="1280" y="-279.33" font-family="Times New Roman,serif" font-size="35.00">R236</text>
</a>
</g>
</g>
<!-- R109&#45;&gt;R236 -->
<g id="edge6" class="edge">
<title>R109&#45;&gt;R236</title>
<path fill="none" stroke="black" d="M705.98,-263.65C711.53,-264.5 717.13,-265.26 722.5,-265.83 904.35,-285.34 1121.3,-288.03 1222.19,-288.1"/>
<polygon fill="black" stroke="black" points="1222.04,-291.6 1232.04,-288.1 1222.04,-284.6 1222.04,-291.6"/>
<text text-anchor="middle" x="969.5" y="-296.83" font-family="Times New Roman,serif" font-size="30.00"> &#160;&#160;612 &#160;&#160;14% &#160;&#160;4.67e&#45;08 mol/s &#160;&#160;&#160;1.00E+00</text>
</g>
<!-- R324 -->
<g id="node8" class="node">
<title>R324</title>
<g id="a_node8"><a xlink:href="324.svg" xlink:title="R324">
<polygon fill="cornsilk" stroke="none" points="1327,-246.33 1233,-246.33 1233,-199.33 1327,-199.33 1327,-246.33"/>
<text text-anchor="middle" x="1280" y="-214.33" font-family="Times New Roman,serif" font-size="35.00">R324</text>
</a>
</g>
</g>
<!-- R109&#45;&gt;R324 -->
<g id="edge7" class="edge">
<title>R109&#45;&gt;R324</title>
<path fill="none" stroke="black" d="M705.97,-236.8C711.47,-235.19 717.07,-233.81 722.5,-232.83 902.62,-200.39 1120.83,-210.48 1222.18,-217.92"/>
<polygon fill="black" stroke="black" points="1221.84,-221.48 1232.07,-218.75 1222.36,-214.5 1221.84,-221.48"/>
<text text-anchor="middle" x="969.5" y="-241.83" font-family="Times New Roman,serif" font-size="30.00"> &#160;&#160;613 &#160;&#160;14% &#160;&#160;4.67e&#45;08 mol/s &#160;&#160;&#160;1.00E+00</text>
</g>
<!-- R303 -->
<g id="node9" class="node">
<title>R303</title>
<g id="a_node9"><a xlink:href="303.svg" xlink:title="R303">
<polygon fill="cornsilk" stroke="none" points="1327,-181.33 1233,-181.33 1233,-134.33 1327,-134.33 1327,-181.33"/>
<text text-anchor="middle" x="1280" y="-149.33" font-family="Times New Roman,serif" font-size="35.00">R303</text>
</a>
</g>
</g>
<!-- R109&#45;&gt;R303 -->
<g id="edge8" class="edge">
<title>R109&#45;&gt;R303</title>
<path fill="none" stroke="black" d="M670.65,-231.66C680.92,-212.34 698.44,-186.09 722.5,-173.83 808.5,-130.02 1099.03,-144.83 1222.61,-153.46"/>
<polygon fill="black" stroke="black" points="1222.11,-157 1232.33,-154.22 1222.61,-150.02 1222.11,-157"/>
<text text-anchor="middle" x="969.5" y="-182.83" font-family="Times New Roman,serif" font-size="30.00"> &#160;&#160;627 &#160;&#160;14% &#160;&#160;4.67e&#45;08 mol/s &#160;&#160;&#160;1.00E+00</text>
</g>
<!-- R315 -->
<g id="node10" class="node">
<title>R315</title>
<g id="a_node10"><a xlink:href="315.svg" xlink:title="R315">
<polygon fill="cornsilk" stroke="none" points="1327,-116.33 1233,-116.33 1233,-69.33 1327,-69.33 1327,-116.33"/>
<text text-anchor="middle" x="1280" y="-84.33" font-family="Times New Roman,serif" font-size="35.00">R315</text>
</a>
</g>
</g>
<!-- R109&#45;&gt;R315 -->
<g id="edge9" class="edge">
<title>R109&#45;&gt;R315</title>
<path fill="none" stroke="black" d="M662.31,-231.37C667.03,-197.53 681.13,-136.01 722.5,-107.83 802.37,-53.44 1097.01,-74.87 1222.16,-86.85"/>
<polygon fill="black" stroke="black" points="1221.73,-90.43 1232.02,-87.91 1222.41,-83.46 1221.73,-90.43"/>
<text text-anchor="middle" x="969.5" y="-116.83" font-family="Times New Roman,serif" font-size="30.00"> &#160;&#160;628 &#160;&#160;14% &#160;&#160;4.67e&#45;08 mol/s &#160;&#160;&#160;1.00E+00</text>
</g>
<!-- R118 -->
<g id="node11" class="node">
<title>R118</title>
<g id="a_node11"><a xlink:href="118.svg" xlink:title="R118">
<polygon fill="cornsilk" stroke="none" points="1327,-51.33 1233,-51.33 1233,-4.33 1327,-4.33 1327,-51.33"/>
<text text-anchor="middle" x="1280" y="-19.33" font-family="Times New Roman,serif" font-size="35.00">R118</text>
</a>
</g>
</g>
<!-- R109&#45;&gt;R118 -->
<g id="edge10" class="edge">
<title>R109&#45;&gt;R118</title>
<path fill="none" stroke="black" d="M663.16,-231.43C670.62,-180.02 691.11,-59.87 722.5,-35.83 799.29,22.98 1096.34,-5.3 1222.17,-20.42"/>
<polygon fill="black" stroke="black" points="1221.73,-24.02 1232.08,-21.76 1222.58,-17.07 1221.73,-24.02"/>
<text text-anchor="middle" x="969.5" y="-44.83" font-family="Times New Roman,serif" font-size="30.00"> &#160;&#160;640 &#160;&#160;0% &#160;&#160;1.01e&#45;11 mol/s &#160;&#160;&#160;1.00E+00</text>
</g>
<!-- R15 -->
<g id="node2" class="node">
<title>R15</title>
<g id="a_node2"><a xlink:href="15.svg" xlink:title="R15">
<polygon fill="cornsilk" stroke="none" points="76,-311.33 0,-311.33 0,-264.33 76,-264.33 76,-311.33"/>
<text text-anchor="middle" x="38" y="-279.33" font-family="Times New Roman,serif" font-size="35.00">R15</text>
</a>
</g>
</g>
<!-- R15&#45;&gt;R109 -->
<g id="edge1" class="edge">
<title>R15&#45;&gt;R109</title>
<path fill="none" stroke="black" stroke-width="6" d="M75.78,-288.4C162.98,-289.34 389.5,-289.32 591.46,-266.95"/>
<polygon fill="black" stroke="black" stroke-width="6" points="587.5,-277.28 606.17,-264.56 585.1,-256.42 587.5,-277.28"/>
<text text-anchor="middle" x="348.5" y="-296.83" font-family="Times New Roman,serif" font-size="30.00"> &#160;&#160;153 &#160;&#160;100% &#160;&#160;4.67e&#45;08 mol/s &#160;&#160;&#160;1.00E+00</text>
</g>
<!-- R1 -->
<g id="node3" class="node">
<title>R1</title>
<g id="a_node3"><a xlink:href="1.svg" xlink:title="R1">
<polygon fill="cornsilk" stroke="none" points="67,-246.33 9,-246.33 9,-199.33 67,-199.33 67,-246.33"/>
<text text-anchor="middle" x="38" y="-214.33" font-family="Times New Roman,serif" font-size="35.00">R1</text>
</a>
</g>
</g>
<!-- R1&#45;&gt;R109 -->
<g id="edge2" class="edge">
<title>R1&#45;&gt;R109</title>
<path fill="none" stroke="black" stroke-width="6" d="M66.97,-219.8C147.17,-211.84 384.92,-193.3 591.62,-231.12"/>
<polygon fill="black" stroke="black" stroke-width="6" points="584.53,-240.61 606.16,-234.09 588.52,-219.99 584.53,-240.61"/>
<text text-anchor="middle" x="348.5" y="-241.83" font-family="Times New Roman,serif" font-size="30.00"> &#160;&#160;153 &#160;&#160;100% &#160;&#160;4.67e&#45;08 mol/s &#160;&#160;&#160;1.00E+00</text>
</g>
</g>
</svg>
