<?xml version="1.0" encoding="UTF-8" standalone="no"?>
<!DOCTYPE svg PUBLIC "-//W3C//DTD SVG 1.1//EN"
 "http://www.w3.org/Graphics/SVG/1.1/DTD/svg11.dtd">
<!-- Generated by graphviz version 8.0.3 (20230416.2022)
 -->
<!-- Title: G Pages: 1 -->
<svg width="640pt" height="329pt"
 viewBox="0.00 0.00 720.00 370.27" xmlns="http://www.w3.org/2000/svg" xmlns:xlink="http://www.w3.org/1999/xlink">
<g id="graph0" class="graph" transform="scale(0.503937 0.503937) rotate(0) translate(4 649.11)">
<title>G</title>
<polygon fill="white" stroke="none" points="-4,4 -4,-649.11 1266,-649.11 1266,4 -4,4"/>
<text text-anchor="middle" x="631" y="-612.31" font-family="Arial" font-size="36.00" fill="blue">Reaction Path Analysis</text>
<!-- R109 -->
<g id="node1" class="node">
<title>R109</title>
<g id="a_node1"><a xlink:href="109.svg" xlink:title="R109">
<polygon fill="cornsilk" stroke="none" points="678,-313.61 584,-313.61 584,-266.61 678,-266.61 678,-313.61"/>
<text text-anchor="middle" x="631" y="-281.61" font-family="Times New Roman,serif" font-size="35.00">R109</text>
</a>
</g>
</g>
<!-- R15 -->
<g id="node2" class="node">
<title>R15</title>
<g id="a_node2"><a xlink:href="15.svg" xlink:title="R15">
<polygon fill="cornsilk" stroke="none" points="1253,-573.61 1177,-573.61 1177,-526.61 1253,-526.61 1253,-573.61"/>
<text text-anchor="middle" x="1215" y="-541.61" font-family="Times New Roman,serif" font-size="35.00">R15</text>
</a>
</g>
</g>
<!-- R109&#45;&gt;R15 -->
<g id="edge1" class="edge">
<title>R109&#45;&gt;R15</title>
<path fill="none" stroke="black" stroke-width="5" d="M634.06,-313.55C639.29,-367 654.98,-495.39 687,-522.11 756.78,-580.36 1034.93,-565.14 1156.57,-555.34"/>
<polygon fill="black" stroke="black" stroke-width="5" points="1152.17,-563.99 1171.37,-553.6 1150.71,-546.55 1152.17,-563.99"/>
<text text-anchor="middle" x="923" y="-573.11" font-family="Times New Roman,serif" font-size="30.00"> &#160;&#160;153 &#160;&#160;96% &#160;&#160;6.47 mol/s &#160;&#160;&#160;5.23E&#45;03</text>
</g>
<!-- R1 -->
<g id="node3" class="node">
<title>R1</title>
<g id="a_node3"><a xlink:href="1.svg" xlink:title="R1">
<polygon fill="cornsilk" stroke="none" points="1244,-508.61 1186,-508.61 1186,-461.61 1244,-461.61 1244,-508.61"/>
<text text-anchor="middle" x="1215" y="-476.61" font-family="Times New Roman,serif" font-size="35.00">R1</text>
</a>
</g>
</g>
<!-- R109&#45;&gt;R1 -->
<g id="edge2" class="edge">
<title>R109&#45;&gt;R1</title>
<path fill="none" stroke="black" stroke-width="5" d="M631.99,-313.61C633.4,-350.87 642.14,-422.81 687,-457.11 724.43,-485.74 1042.02,-486.44 1165.33,-485.61"/>
<polygon fill="black" stroke="black" stroke-width="5" points="1160.37,-494.35 1180.3,-485.44 1160.23,-476.85 1160.37,-494.35"/>
<text text-anchor="middle" x="923" y="-494.11" font-family="Times New Roman,serif" font-size="30.00"> &#160;&#160;153 &#160;&#160;96% &#160;&#160;6.47 mol/s &#160;&#160;&#160;5.23E&#45;03</text>
</g>
<!-- R177 -->
<g id="node4" class="node">
<title>R177</title>
<g id="a_node4"><a xlink:href="177.svg" xlink:title="R177">
<polygon fill="cornsilk" stroke="none" points="1262,-443.61 1168,-443.61 1168,-396.61 1262,-396.61 1262,-443.61"/>
<text text-anchor="middle" x="1215" y="-411.61" font-family="Times New Roman,serif" font-size="35.00">R177</text>
</a>
</g>
</g>
<!-- R109&#45;&gt;R177 -->
<g id="edge3" class="edge">
<title>R109&#45;&gt;R177</title>
<path fill="none" stroke="black" d="M637.33,-313.55C644.26,-338.03 658.93,-375.29 687,-393.11 725.94,-417.84 1029.73,-420.37 1157.58,-420.33"/>
<polygon fill="black" stroke="black" points="1157.31,-423.83 1167.31,-420.32 1157.3,-416.83 1157.31,-423.83"/>
<text text-anchor="middle" x="923" y="-429.11" font-family="Times New Roman,serif" font-size="30.00"> &#160;&#160;480 &#160;&#160;0% &#160;&#160;0.0342 mol/s &#160;&#160;&#160;1.00E+00</text>
</g>
<!-- R215 -->
<g id="node5" class="node">
<title>R215</title>
<g id="a_node5"><a xlink:href="215.svg" xlink:title="R215">
<polygon fill="cornsilk" stroke="none" points="1262,-378.61 1168,-378.61 1168,-331.61 1262,-331.61 1262,-378.61"/>
<text text-anchor="middle" x="1215" y="-346.61" font-family="Times New Roman,serif" font-size="35.00">R215</text>
</a>
</g>
</g>
<!-- R109&#45;&gt;R215 -->
<g id="edge4" class="edge">
<title>R109&#45;&gt;R215</title>
<path fill="none" stroke="black" d="M660.42,-313.43C668.54,-318.89 677.72,-324.01 687,-327.11 772.76,-355.78 1039.56,-356.89 1157.25,-355.89"/>
<polygon fill="black" stroke="black" points="1157.2,-359.38 1167.16,-355.79 1157.13,-352.38 1157.2,-359.38"/>
<text text-anchor="middle" x="923" y="-365.11" font-family="Times New Roman,serif" font-size="30.00"> &#160;&#160;557 &#160;&#160;0% &#160;&#160;0.0342 mol/s &#160;&#160;&#160;1.00E+00</text>
</g>
<!-- R314 -->
<g id="node6" class="node">
<title>R314</title>
<g id="a_node6"><a xlink:href="314.svg" xlink:title="R314">
<polygon fill="cornsilk" stroke="none" points="1262,-313.61 1168,-313.61 1168,-266.61 1262,-266.61 1262,-313.61"/>
<text text-anchor="middle" x="1215" y="-281.61" font-family="Times New Roman,serif" font-size="35.00">R314</text>
</a>
</g>
</g>
<!-- R109&#45;&gt;R314 -->
<g id="edge5" class="edge">
<title>R109&#45;&gt;R314</title>
<path fill="none" stroke="black" d="M677.67,-290.11C782.94,-290.11 1042.39,-290.11 1157.47,-290.11"/>
<polygon fill="black" stroke="black" points="1157.14,-293.61 1167.14,-290.11 1157.14,-286.61 1157.14,-293.61"/>
<text text-anchor="middle" x="923" y="-299.11" font-family="Times New Roman,serif" font-size="30.00"> &#160;&#160;558 &#160;&#160;0% &#160;&#160;0.0342 mol/s &#160;&#160;&#160;1.00E+00</text>
</g>
<!-- R236 -->
<g id="node7" class="node">
<title>R236</title>
<g id="a_node7"><a xlink:href="236.svg" xlink:title="R236">
<polygon fill="cornsilk" stroke="none" points="1262,-248.61 1168,-248.61 1168,-201.61 1262,-201.61 1262,-248.61"/>
<text text-anchor="middle" x="1215" y="-216.61" font-family="Times New Roman,serif" font-size="35.00">R236</text>
</a>
</g>
</g>
<!-- R109&#45;&gt;R236 -->
<g id="edge6" class="edge">
<title>R109&#45;&gt;R236</title>
<path fill="none" stroke="black" d="M660.42,-266.79C668.54,-261.34 677.72,-256.21 687,-253.11 850.58,-198.43 1058.54,-209.03 1157.17,-218.47"/>
<polygon fill="black" stroke="black" points="1156.78,-222.04 1167.08,-219.55 1157.47,-215.08 1156.78,-222.04"/>
<text text-anchor="middle" x="923" y="-262.11" font-family="Times New Roman,serif" font-size="30.00"> &#160;&#160;612 &#160;&#160;0% &#160;&#160;0.0342 mol/s &#160;&#160;&#160;1.00E+00</text>
</g>
<!-- R324 -->
<g id="node8" class="node">
<title>R324</title>
<g id="a_node8"><a xlink:href="324.svg" xlink:title="R324">
<polygon fill="cornsilk" stroke="none" points="1262,-183.61 1168,-183.61 1168,-136.61 1262,-136.61 1262,-183.61"/>
<text text-anchor="middle" x="1215" y="-151.61" font-family="Times New Roman,serif" font-size="35.00">R324</text>
</a>
</g>
</g>
<!-- R109&#45;&gt;R324 -->
<g id="edge7" class="edge">
<title>R109&#45;&gt;R324</title>
<path fill="none" stroke="black" d="M635.7,-266.64C641.41,-239.16 655.25,-194.79 687,-174.11 763.04,-124.58 1037.51,-143.39 1157.36,-154.38"/>
<polygon fill="black" stroke="black" points="1156.84,-157.94 1167.12,-155.38 1157.49,-150.97 1156.84,-157.94"/>
<text text-anchor="middle" x="923" y="-183.11" font-family="Times New Roman,serif" font-size="30.00"> &#160;&#160;613 &#160;&#160;0% &#160;&#160;0.0342 mol/s &#160;&#160;&#160;1.00E+00</text>
</g>
<!-- R315 -->
<g id="node10" class="node">
<title>R315</title>
<g id="a_node10"><a xlink:href="315.svg" xlink:title="R315">
<polygon fill="cornsilk" stroke="none" points="1262,-118.61 1168,-118.61 1168,-71.61 1262,-71.61 1262,-118.61"/>
<text text-anchor="middle" x="1215" y="-86.61" font-family="Times New Roman,serif" font-size="35.00">R315</text>
</a>
</g>
</g>
<!-- R109&#45;&gt;R315 -->
<g id="edge9" class="edge">
<title>R109&#45;&gt;R315</title>
<path fill="none" stroke="black" d="M635.51,-266.63C642.79,-221.38 661.07,-124.84 687,-105.11 759.3,-50.11 1036.46,-74.41 1157.22,-88.09"/>
<polygon fill="black" stroke="black" points="1156.72,-91.67 1167.06,-89.33 1157.52,-84.71 1156.72,-91.67"/>
<text text-anchor="middle" x="923" y="-114.11" font-family="Times New Roman,serif" font-size="30.00"> &#160;&#160;628 &#160;&#160;0% &#160;&#160;0.0342 mol/s &#160;&#160;&#160;1.00E+00</text>
</g>
<!-- R118 -->
<g id="node11" class="node">
<title>R118</title>
<g id="a_node11"><a xlink:href="118.svg" xlink:title="R118">
<polygon fill="cornsilk" stroke="none" points="1262,-53.61 1168,-53.61 1168,-6.61 1262,-6.61 1262,-53.61"/>
<text text-anchor="middle" x="1215" y="-21.61" font-family="Times New Roman,serif" font-size="35.00">R118</text>
</a>
</g>
</g>
<!-- R109&#45;&gt;R118 -->
<g id="edge10" class="edge">
<title>R109&#45;&gt;R118</title>
<path fill="none" stroke="black" d="M633.41,-266.76C637.4,-209.28 650.96,-63.46 687,-34.11 757.52,23.31 1036.31,-6.04 1157.38,-22.02"/>
<polygon fill="black" stroke="black" points="1156.87,-25.62 1167.25,-23.48 1157.8,-18.68 1156.87,-25.62"/>
<text text-anchor="middle" x="923" y="-43.11" font-family="Times New Roman,serif" font-size="30.00"> &#160;&#160;640 &#160;&#160;0% &#160;&#160;0.00272 mol/s &#160;&#160;&#160;1.00E+00</text>
</g>
<!-- R303 -->
<g id="node9" class="node">
<title>R303</title>
<g id="a_node9"><a xlink:href="303.svg" xlink:title="R303">
<polygon fill="cornsilk" stroke="none" points="94,-313.61 0,-313.61 0,-266.61 94,-266.61 94,-313.61"/>
<text text-anchor="middle" x="47" y="-281.61" font-family="Times New Roman,serif" font-size="35.00">R303</text>
</a>
</g>
</g>
<!-- R303&#45;&gt;R109 -->
<g id="edge8" class="edge">
<title>R303&#45;&gt;R109</title>
<path fill="none" stroke="black" stroke-width="6" d="M93.67,-290.11C195.96,-290.11 443.87,-290.11 563.38,-290.11"/>
<polygon fill="black" stroke="black" stroke-width="6" points="558.14,-300.61 578.14,-290.11 558.14,-279.61 558.14,-300.61"/>
<text text-anchor="middle" x="339" y="-299.11" font-family="Times New Roman,serif" font-size="30.00"> &#160;&#160;627 &#160;&#160;100% &#160;&#160;0.537 mol/s &#160;&#160;&#160;5.64E&#45;02</text>
</g>
</g>
</svg>
