<?xml version="1.0" encoding="UTF-8" standalone="no"?>
<!DOCTYPE svg PUBLIC "-//W3C//DTD SVG 1.1//EN"
 "http://www.w3.org/Graphics/SVG/1.1/DTD/svg11.dtd">
<!-- Generated by graphviz version 8.0.3 (20230416.2022)
 -->
<!-- Title: G Pages: 1 -->
<svg width="640pt" height="194pt"
 viewBox="0.00 0.00 720.00 218.71" xmlns="http://www.w3.org/2000/svg" xmlns:xlink="http://www.w3.org/1999/xlink">
<g id="graph0" class="graph" transform="scale(0.543755 0.543755) rotate(0) translate(4 353.52)">
<title>G</title>
<polygon fill="white" stroke="none" points="-4,4 -4,-353.52 1173,-353.52 1173,4 -4,4"/>
<text text-anchor="middle" x="584.5" y="-316.72" font-family="Arial" font-size="36.00" fill="blue">Reaction Path Analysis</text>
<!-- R11 -->
<g id="node1" class="node">
<title>R11</title>
<g id="a_node1"><a xlink:href="11.svg" xlink:title="R11">
<polygon fill="cornsilk" stroke="none" points="618,-164.02 542,-164.02 542,-117.02 618,-117.02 618,-164.02"/>
<text text-anchor="middle" x="580" y="-132.02" font-family="Times New Roman,serif" font-size="35.00">R11</text>
</a>
</g>
</g>
<!-- R24 -->
<g id="node6" class="node">
<title>R24</title>
<g id="a_node6"><a xlink:href="24.svg" xlink:title="R24">
<polygon fill="cornsilk" stroke="none" points="1169,-229.02 1093,-229.02 1093,-182.02 1169,-182.02 1169,-229.02"/>
<text text-anchor="middle" x="1131" y="-197.02" font-family="Times New Roman,serif" font-size="35.00">R24</text>
</a>
</g>
</g>
<!-- R11&#45;&gt;R24 -->
<g id="edge5" class="edge">
<title>R11&#45;&gt;R24</title>
<path fill="none" stroke="black" stroke-width="2" d="M604.51,-164.01C611.25,-169.39 618.96,-174.44 627,-177.52 784.55,-238 990.35,-223.22 1082.17,-212.27"/>
<polygon fill="black" stroke="black" stroke-width="2" points="1080.56,-215.62 1090.05,-210.92 1079.7,-208.68 1080.56,-215.62"/>
<text text-anchor="middle" x="855.5" y="-230.52" font-family="Times New Roman,serif" font-size="30.00"> &#160;&#160;29 &#160;&#160;33% &#160;&#160;0.0342 mol/s &#160;&#160;&#160;1.00E+00</text>
</g>
<!-- R40 -->
<g id="node7" class="node">
<title>R40</title>
<g id="a_node7"><a xlink:href="40.svg" xlink:title="R40">
<polygon fill="cornsilk" stroke="none" points="1169,-164.02 1093,-164.02 1093,-117.02 1169,-117.02 1169,-164.02"/>
<text text-anchor="middle" x="1131" y="-132.02" font-family="Times New Roman,serif" font-size="35.00">R40</text>
</a>
</g>
</g>
<!-- R11&#45;&gt;R40 -->
<g id="edge6" class="edge">
<title>R11&#45;&gt;R40</title>
<path fill="none" stroke="black" stroke-width="2" d="M617.87,-140.52C714.47,-140.52 974.83,-140.52 1082.45,-140.52"/>
<polygon fill="black" stroke="black" stroke-width="2" points="1080.29,-144.02 1090.29,-140.52 1080.29,-137.02 1080.29,-144.02"/>
<text text-anchor="middle" x="855.5" y="-149.52" font-family="Times New Roman,serif" font-size="30.00"> &#160;&#160;45 &#160;&#160;33% &#160;&#160;0.0342 mol/s &#160;&#160;&#160;1.00E+00</text>
</g>
<!-- R85 -->
<g id="node8" class="node">
<title>R85</title>
<g id="a_node8"><a xlink:href="85.svg" xlink:title="R85">
<polygon fill="cornsilk" stroke="none" points="1169,-99.02 1093,-99.02 1093,-52.02 1169,-52.02 1169,-99.02"/>
<text text-anchor="middle" x="1131" y="-67.02" font-family="Times New Roman,serif" font-size="35.00">R85</text>
</a>
</g>
</g>
<!-- R11&#45;&gt;R85 -->
<g id="edge7" class="edge">
<title>R11&#45;&gt;R85</title>
<path fill="none" stroke="black" stroke-width="2" d="M604.51,-117.04C611.25,-111.65 618.96,-106.61 627,-103.52 784.55,-43.05 990.35,-57.83 1082.17,-68.78"/>
<polygon fill="black" stroke="black" stroke-width="2" points="1079.7,-72.37 1090.05,-70.12 1080.56,-65.42 1079.7,-72.37"/>
<text text-anchor="middle" x="855.5" y="-112.52" font-family="Times New Roman,serif" font-size="30.00"> &#160;&#160;91 &#160;&#160;33% &#160;&#160;0.0342 mol/s &#160;&#160;&#160;1.00E+00</text>
</g>
<!-- R3 -->
<g id="node2" class="node">
<title>R3</title>
<g id="a_node2"><a xlink:href="3.svg" xlink:title="R3">
<polygon fill="cornsilk" stroke="none" points="58,-262.02 0,-262.02 0,-215.02 58,-215.02 58,-262.02"/>
<text text-anchor="middle" x="29" y="-230.02" font-family="Times New Roman,serif" font-size="35.00">R3</text>
</a>
</g>
</g>
<!-- R3&#45;&gt;R11 -->
<g id="edge1" class="edge">
<title>R3&#45;&gt;R11</title>
<path fill="none" stroke="black" stroke-width="3" d="M57.78,-245.2C137.97,-262.85 374.25,-303.42 533,-211.52 547.67,-203.03 558.46,-187.77 565.88,-173.57"/>
<polygon fill="black" stroke="black" stroke-width="3" points="568.31,-178.53 569.5,-168.01 562,-175.49 568.31,-178.53"/>
<text text-anchor="middle" x="304.5" y="-277.52" font-family="Times New Roman,serif" font-size="30.00"> &#160;&#160;11 &#160;&#160;50% &#160;&#160;0.0342 mol/s &#160;&#160;&#160;1.00E+00</text>
</g>
<!-- R2 -->
<g id="node3" class="node">
<title>R2</title>
<g id="a_node3"><a xlink:href="2.svg" xlink:title="R2">
<polygon fill="cornsilk" stroke="none" points="58,-197.02 0,-197.02 0,-150.02 58,-150.02 58,-197.02"/>
<text text-anchor="middle" x="29" y="-165.02" font-family="Times New Roman,serif" font-size="35.00">R2</text>
</a>
</g>
</g>
<!-- R2&#45;&gt;R11 -->
<g id="edge2" class="edge">
<title>R2&#45;&gt;R11</title>
<path fill="none" stroke="black" stroke-width="3" d="M57.98,-174.16C133.02,-175.49 345.09,-176.65 531.39,-151.47"/>
<polygon fill="black" stroke="black" stroke-width="3" points="528.78,-154.81 538.21,-149.97 527.83,-147.88 528.78,-154.81"/>
<text text-anchor="middle" x="304.5" y="-183.52" font-family="Times New Roman,serif" font-size="30.00"> &#160;&#160;11 &#160;&#160;50% &#160;&#160;0.0342 mol/s &#160;&#160;&#160;1.00E+00</text>
</g>
<!-- R0 -->
<g id="node4" class="node">
<title>R0</title>
<g id="a_node4"><a xlink:href="0.svg" xlink:title="R0">
<polygon fill="cornsilk" stroke="none" points="58,-132.02 0,-132.02 0,-85.02 58,-85.02 58,-132.02"/>
<text text-anchor="middle" x="29" y="-100.02" font-family="Times New Roman,serif" font-size="35.00">R0</text>
</a>
</g>
</g>
<!-- R0&#45;&gt;R11 -->
<g id="edge3" class="edge">
<title>R0&#45;&gt;R11</title>
<path fill="none" stroke="black" stroke-width="3" d="M57.78,-105.02C133.19,-96.36 347.85,-77.32 531.43,-118.76"/>
<polygon fill="black" stroke="black" stroke-width="3" points="527.55,-121.38 538.08,-120.24 529.14,-114.57 527.55,-121.38"/>
<text text-anchor="middle" x="304.5" y="-127.52" font-family="Times New Roman,serif" font-size="30.00"> &#160;&#160;16 &#160;&#160;50% &#160;&#160;0.0342 mol/s &#160;&#160;&#160;1.00E+00</text>
</g>
<!-- R8 -->
<g id="node5" class="node">
<title>R8</title>
<g id="a_node5"><a xlink:href="8.svg" xlink:title="R8">
<polygon fill="cornsilk" stroke="none" points="58,-67.02 0,-67.02 0,-20.02 58,-20.02 58,-67.02"/>
<text text-anchor="middle" x="29" y="-35.02" font-family="Times New Roman,serif" font-size="35.00">R8</text>
</a>
</g>
</g>
<!-- R8&#45;&gt;R11 -->
<g id="edge4" class="edge">
<title>R8&#45;&gt;R11</title>
<path fill="none" stroke="black" stroke-width="3" d="M57.73,-35.27C138.3,-13.03 376.55,40.25 533,-55.52 551.51,-66.85 563.06,-88.43 569.95,-107.01"/>
<polygon fill="black" stroke="black" stroke-width="3" points="565.89,-104.87 572.41,-113.22 572.52,-102.62 565.89,-104.87"/>
<text text-anchor="middle" x="304.5" y="-64.52" font-family="Times New Roman,serif" font-size="30.00"> &#160;&#160;16 &#160;&#160;50% &#160;&#160;0.0342 mol/s &#160;&#160;&#160;1.00E+00</text>
</g>
</g>
</svg>
