<?xml version="1.0" encoding="UTF-8" standalone="no"?>
<!DOCTYPE svg PUBLIC "-//W3C//DTD SVG 1.1//EN"
 "http://www.w3.org/Graphics/SVG/1.1/DTD/svg11.dtd">
<!-- Generated by graphviz version 8.0.3 (20230416.2022)
 -->
<!-- Title: G Pages: 1 -->
<svg width="640pt" height="259pt"
 viewBox="0.00 0.00 720.00 290.85" xmlns="http://www.w3.org/2000/svg" xmlns:xlink="http://www.w3.org/1999/xlink">
<g id="graph0" class="graph" transform="scale(0.498442 0.498442) rotate(0) translate(4 514.68)">
<title>G</title>
<polygon fill="white" stroke="none" points="-4,4 -4,-514.68 1280,-514.68 1280,4 -4,4"/>
<text text-anchor="middle" x="638" y="-477.88" font-family="Arial" font-size="36.00" fill="blue">Reaction Path Analysis</text>
<!-- R110 -->
<g id="node1" class="node">
<title>R110</title>
<g id="a_node1"><a xlink:href="110.svg" xlink:title="R110">
<polygon fill="cornsilk" stroke="none" points="685,-242.18 591,-242.18 591,-195.18 685,-195.18 685,-242.18"/>
<text text-anchor="middle" x="638" y="-210.18" font-family="Times New Roman,serif" font-size="35.00">R110</text>
</a>
</g>
</g>
<!-- R178 -->
<g id="node4" class="node">
<title>R178</title>
<g id="a_node4"><a xlink:href="178.svg" xlink:title="R178">
<polygon fill="cornsilk" stroke="none" points="1276,-437.18 1182,-437.18 1182,-390.18 1276,-390.18 1276,-437.18"/>
<text text-anchor="middle" x="1229" y="-405.18" font-family="Times New Roman,serif" font-size="35.00">R178</text>
</a>
</g>
</g>
<!-- R110&#45;&gt;R178 -->
<g id="edge3" class="edge">
<title>R110&#45;&gt;R178</title>
<path fill="none" stroke="black" d="M639.13,-242.17C640.76,-280.61 650.18,-356.22 697.5,-391.68 770.82,-446.63 1050.17,-429.5 1171.35,-419.11"/>
<polygon fill="black" stroke="black" points="1171.57,-422.52 1181.23,-418.16 1170.96,-415.54 1171.57,-422.52"/>
<text text-anchor="middle" x="933.5" y="-438.68" font-family="Times New Roman,serif" font-size="30.00"> &#160;&#160;481 &#160;&#160;16% &#160;&#160;0.0342 mol/s &#160;&#160;&#160;1.00E+00</text>
</g>
<!-- R216 -->
<g id="node5" class="node">
<title>R216</title>
<g id="a_node5"><a xlink:href="216.svg" xlink:title="R216">
<polygon fill="cornsilk" stroke="none" points="1276,-372.18 1182,-372.18 1182,-325.18 1276,-325.18 1276,-372.18"/>
<text text-anchor="middle" x="1229" y="-340.18" font-family="Times New Roman,serif" font-size="35.00">R216</text>
</a>
</g>
</g>
<!-- R110&#45;&gt;R216 -->
<g id="edge4" class="edge">
<title>R110&#45;&gt;R216</title>
<path fill="none" stroke="black" d="M645.19,-241.94C652.99,-266.22 668.98,-303.14 697.5,-320.68 775.49,-368.65 1051.62,-359.05 1171.63,-352.33"/>
<polygon fill="black" stroke="black" points="1171.62,-355.78 1181.4,-351.71 1171.21,-348.79 1171.62,-355.78"/>
<text text-anchor="middle" x="933.5" y="-366.68" font-family="Times New Roman,serif" font-size="30.00"> &#160;&#160;559 &#160;&#160;16% &#160;&#160;0.034 mol/s &#160;&#160;&#160;9.96E&#45;01</text>
</g>
<!-- R333 -->
<g id="node6" class="node">
<title>R333</title>
<g id="a_node6"><a xlink:href="333.svg" xlink:title="R333">
<polygon fill="cornsilk" stroke="none" points="1276,-307.18 1182,-307.18 1182,-260.18 1276,-260.18 1276,-307.18"/>
<text text-anchor="middle" x="1229" y="-275.18" font-family="Times New Roman,serif" font-size="35.00">R333</text>
</a>
</g>
</g>
<!-- R110&#45;&gt;R333 -->
<g id="edge5" class="edge">
<title>R110&#45;&gt;R333</title>
<path fill="none" stroke="black" d="M669.41,-242.01C678.05,-247.46 687.77,-252.58 697.5,-255.68 784.34,-283.34 1053.25,-284.98 1171.37,-284.29"/>
<polygon fill="black" stroke="black" points="1171.35,-287.79 1181.32,-284.22 1171.3,-280.79 1171.35,-287.79"/>
<text text-anchor="middle" x="933.5" y="-292.68" font-family="Times New Roman,serif" font-size="30.00"> &#160;&#160;560 &#160;&#160;16% &#160;&#160;0.0342 mol/s &#160;&#160;&#160;1.00E+00</text>
</g>
<!-- R237 -->
<g id="node7" class="node">
<title>R237</title>
<g id="a_node7"><a xlink:href="237.svg" xlink:title="R237">
<polygon fill="cornsilk" stroke="none" points="1276,-242.18 1182,-242.18 1182,-195.18 1276,-195.18 1276,-242.18"/>
<text text-anchor="middle" x="1229" y="-210.18" font-family="Times New Roman,serif" font-size="35.00">R237</text>
</a>
</g>
</g>
<!-- R110&#45;&gt;R237 -->
<g id="edge6" class="edge">
<title>R110&#45;&gt;R237</title>
<path fill="none" stroke="black" d="M684.73,-218.68C791.17,-218.68 1055.26,-218.68 1171.52,-218.68"/>
<polygon fill="black" stroke="black" points="1171.3,-222.18 1181.3,-218.68 1171.3,-215.18 1171.3,-222.18"/>
<text text-anchor="middle" x="933.5" y="-227.68" font-family="Times New Roman,serif" font-size="30.00"> &#160;&#160;614 &#160;&#160;16% &#160;&#160;0.0341 mol/s &#160;&#160;&#160;9.98E&#45;01</text>
</g>
<!-- R365 -->
<g id="node8" class="node">
<title>R365</title>
<g id="a_node8"><a xlink:href="365.svg" xlink:title="R365">
<polygon fill="cornsilk" stroke="none" points="1276,-177.18 1182,-177.18 1182,-130.18 1276,-130.18 1276,-177.18"/>
<text text-anchor="middle" x="1229" y="-145.18" font-family="Times New Roman,serif" font-size="35.00">R365</text>
</a>
</g>
</g>
<!-- R110&#45;&gt;R365 -->
<g id="edge7" class="edge">
<title>R110&#45;&gt;R365</title>
<path fill="none" stroke="black" d="M669.41,-195.36C678.05,-189.9 687.77,-184.78 697.5,-181.68 863.14,-128.93 1072.45,-138.68 1171.33,-147.49"/>
<polygon fill="black" stroke="black" points="1170.98,-151.07 1181.26,-148.5 1171.63,-144.1 1170.98,-151.07"/>
<text text-anchor="middle" x="933.5" y="-190.68" font-family="Times New Roman,serif" font-size="30.00"> &#160;&#160;615 &#160;&#160;16% &#160;&#160;0.0342 mol/s &#160;&#160;&#160;1.00E+00</text>
</g>
<!-- R373 -->
<g id="node10" class="node">
<title>R373</title>
<g id="a_node10"><a xlink:href="373.svg" xlink:title="R373">
<polygon fill="cornsilk" stroke="none" points="1276,-112.18 1182,-112.18 1182,-65.18 1276,-65.18 1276,-112.18"/>
<text text-anchor="middle" x="1229" y="-80.18" font-family="Times New Roman,serif" font-size="35.00">R373</text>
</a>
</g>
</g>
<!-- R110&#45;&gt;R373 -->
<g id="edge9" class="edge">
<title>R110&#45;&gt;R373</title>
<path fill="none" stroke="black" d="M643.48,-195.36C650.08,-168.08 665.32,-124.05 697.5,-103.68 774.79,-54.77 1051.31,-72.71 1171.52,-83.22"/>
<polygon fill="black" stroke="black" points="1171.04,-86.78 1181.31,-84.18 1171.66,-79.81 1171.04,-86.78"/>
<text text-anchor="middle" x="933.5" y="-112.68" font-family="Times New Roman,serif" font-size="30.00"> &#160;&#160;630 &#160;&#160;16% &#160;&#160;0.0342 mol/s &#160;&#160;&#160;1.00E+00</text>
</g>
<!-- R88 -->
<g id="node11" class="node">
<title>R88</title>
<g id="a_node11"><a xlink:href="88.svg" xlink:title="R88">
<polygon fill="cornsilk" stroke="none" points="1267,-47.18 1191,-47.18 1191,-0.18 1267,-0.18 1267,-47.18"/>
<text text-anchor="middle" x="1229" y="-15.18" font-family="Times New Roman,serif" font-size="35.00">R88</text>
</a>
</g>
</g>
<!-- R110&#45;&gt;R88 -->
<g id="edge10" class="edge">
<title>R110&#45;&gt;R88</title>
<path fill="none" stroke="black" d="M638.5,-195.26C639.05,-154.83 646.75,-72.61 697.5,-34.68 772.73,21.55 1064.72,-4.82 1180.41,-17.88"/>
<polygon fill="black" stroke="black" points="1179.71,-21.44 1190.04,-19.1 1180.51,-14.48 1179.71,-21.44"/>
<text text-anchor="middle" x="933.5" y="-43.68" font-family="Times New Roman,serif" font-size="30.00"> &#160;&#160;641 &#160;&#160;0% &#160;&#160;0.00167 mol/s &#160;&#160;&#160;7.21E&#45;01</text>
</g>
<!-- R16 -->
<g id="node2" class="node">
<title>R16</title>
<g id="a_node2"><a xlink:href="16.svg" xlink:title="R16">
<polygon fill="cornsilk" stroke="none" points="85,-307.18 9,-307.18 9,-260.18 85,-260.18 85,-307.18"/>
<text text-anchor="middle" x="47" y="-275.18" font-family="Times New Roman,serif" font-size="35.00">R16</text>
</a>
</g>
</g>
<!-- R16&#45;&gt;R110 -->
<g id="edge1" class="edge">
<title>R16&#45;&gt;R110</title>
<path fill="none" stroke="black" d="M84.86,-288.33C173.34,-298.09 403.69,-315.23 582,-255.68 587.94,-253.7 593.85,-250.88 599.46,-247.68"/>
<polygon fill="black" stroke="black" points="600.94,-250.26 607.58,-242.01 597.24,-244.32 600.94,-250.26"/>
<text text-anchor="middle" x="342.5" y="-306.68" font-family="Times New Roman,serif" font-size="30.00"> &#160;&#160;154 &#160;&#160;0% &#160;&#160;0.0342 mol/s &#160;&#160;&#160;1.00E+00</text>
</g>
<!-- R1 -->
<g id="node3" class="node">
<title>R1</title>
<g id="a_node3"><a xlink:href="1.svg" xlink:title="R1">
<polygon fill="cornsilk" stroke="none" points="76,-242.18 18,-242.18 18,-195.18 76,-195.18 76,-242.18"/>
<text text-anchor="middle" x="47" y="-210.18" font-family="Times New Roman,serif" font-size="35.00">R1</text>
</a>
</g>
</g>
<!-- R1&#45;&gt;R110 -->
<g id="edge2" class="edge">
<title>R1&#45;&gt;R110</title>
<path fill="none" stroke="black" d="M75.62,-218.68C166.47,-218.68 457.25,-218.68 580.71,-218.68"/>
<polygon fill="black" stroke="black" points="580.42,-222.18 590.42,-218.68 580.42,-215.18 580.42,-222.18"/>
<text text-anchor="middle" x="342.5" y="-227.68" font-family="Times New Roman,serif" font-size="30.00"> &#160;&#160;154 &#160;&#160;0% &#160;&#160;0.0342 mol/s &#160;&#160;&#160;1.00E+00</text>
</g>
<!-- R307 -->
<g id="node9" class="node">
<title>R307</title>
<g id="a_node9"><a xlink:href="307.svg" xlink:title="R307">
<polygon fill="cornsilk" stroke="none" points="94,-177.18 0,-177.18 0,-130.18 94,-130.18 94,-177.18"/>
<text text-anchor="middle" x="47" y="-145.18" font-family="Times New Roman,serif" font-size="35.00">R307</text>
</a>
</g>
</g>
<!-- R307&#45;&gt;R110 -->
<g id="edge8" class="edge">
<title>R307&#45;&gt;R110</title>
<path fill="none" stroke="black" stroke-width="5" d="M93.81,-148.08C188.08,-138.25 409.41,-124.05 582,-181.68 584.9,-182.65 587.79,-183.82 590.64,-185.13"/>
<polygon fill="black" stroke="black" stroke-width="5" points="581.88,-190.05 603.58,-192.36 590.54,-174.85 581.88,-190.05"/>
<text text-anchor="middle" x="342.5" y="-190.68" font-family="Times New Roman,serif" font-size="30.00"> &#160;&#160;629 &#160;&#160;99% &#160;&#160;54700.0 mol/s &#160;&#160;&#160;6.25E&#45;07</text>
</g>
</g>
</svg>
