<?xml version="1.0" encoding="UTF-8" standalone="no"?>
<!DOCTYPE svg PUBLIC "-//W3C//DTD SVG 1.1//EN"
 "http://www.w3.org/Graphics/SVG/1.1/DTD/svg11.dtd">
<!-- Generated by graphviz version 8.0.3 (20230416.2022)
 -->
<!-- Title: G Pages: 1 -->
<svg width="640pt" height="166pt"
 viewBox="0.00 0.00 720.00 187.29" xmlns="http://www.w3.org/2000/svg" xmlns:xlink="http://www.w3.org/1999/xlink">
<g id="graph0" class="graph" transform="scale(0.47619 0.47619) rotate(0) translate(4 345.6)">
<title>G</title>
<polygon fill="white" stroke="none" points="-4,4 -4,-345.6 1340,-345.6 1340,4 -4,4"/>
<text text-anchor="middle" x="668" y="-308.8" font-family="Arial" font-size="36.00" fill="blue">Reaction Path Analysis</text>
<!-- R112 -->
<g id="node1" class="node">
<title>R112</title>
<g id="a_node1"><a xlink:href="112.svg" xlink:title="R112">
<polygon fill="cornsilk" stroke="none" points="715,-167.1 621,-167.1 621,-120.1 715,-120.1 715,-167.1"/>
<text text-anchor="middle" x="668" y="-135.1" font-family="Times New Roman,serif" font-size="35.00">R112</text>
</a>
</g>
</g>
<!-- R180 -->
<g id="node4" class="node">
<title>R180</title>
<g id="a_node4"><a xlink:href="180.svg" xlink:title="R180">
<polygon fill="cornsilk" stroke="none" points="1336,-167.1 1242,-167.1 1242,-120.1 1336,-120.1 1336,-167.1"/>
<text text-anchor="middle" x="1289" y="-135.1" font-family="Times New Roman,serif" font-size="35.00">R180</text>
</a>
</g>
</g>
<!-- R112&#45;&gt;R180 -->
<g id="edge3" class="edge">
<title>R112&#45;&gt;R180</title>
<path fill="none" stroke="black" stroke-width="6" d="M714.77,-143.6C822.93,-143.6 1094.71,-143.6 1221.25,-143.6"/>
<polygon fill="black" stroke="black" stroke-width="6" points="1216.05,-154.1 1236.05,-143.6 1216.05,-133.1 1216.05,-154.1"/>
<text text-anchor="middle" x="978.5" y="-152.6" font-family="Times New Roman,serif" font-size="30.00"> &#160;&#160;483 &#160;&#160;100% &#160;&#160;4.67e&#45;08 mol/s &#160;&#160;&#160;1.00E+00</text>
</g>
<!-- R18 -->
<g id="node2" class="node">
<title>R18</title>
<g id="a_node2"><a xlink:href="18.svg" xlink:title="R18">
<polygon fill="cornsilk" stroke="none" points="85,-260.1 9,-260.1 9,-213.1 85,-213.1 85,-260.1"/>
<text text-anchor="middle" x="47" y="-228.1" font-family="Times New Roman,serif" font-size="35.00">R18</text>
</a>
</g>
</g>
<!-- R18&#45;&gt;R112 -->
<g id="edge1" class="edge">
<title>R18&#45;&gt;R112</title>
<path fill="none" stroke="black" stroke-width="5" d="M84.92,-243.33C177.35,-258.39 424.18,-287.47 604.5,-206.6 616.81,-201.08 628,-191.97 637.41,-182.37"/>
<polygon fill="black" stroke="black" stroke-width="5" points="640.44,-191.63 647.03,-170.81 627.27,-180.1 640.44,-191.63"/>
<text text-anchor="middle" x="357.5" y="-269.6" font-family="Times New Roman,serif" font-size="30.00"> &#160;&#160;158 &#160;&#160;85% &#160;&#160;4.67e&#45;08 mol/s &#160;&#160;&#160;1.00E+00</text>
</g>
<!-- R1 -->
<g id="node3" class="node">
<title>R1</title>
<g id="a_node3"><a xlink:href="1.svg" xlink:title="R1">
<polygon fill="cornsilk" stroke="none" points="76,-195.1 18,-195.1 18,-148.1 76,-148.1 76,-195.1"/>
<text text-anchor="middle" x="47" y="-163.1" font-family="Times New Roman,serif" font-size="35.00">R1</text>
</a>
</g>
</g>
<!-- R1&#45;&gt;R112 -->
<g id="edge2" class="edge">
<title>R1&#45;&gt;R112</title>
<path fill="none" stroke="black" stroke-width="5" d="M75.82,-171.05C154.68,-169.39 386.78,-163.69 600.65,-149.67"/>
<polygon fill="black" stroke="black" stroke-width="5" points="595.91,-158.36 615.28,-148.29 594.74,-140.89 595.91,-158.36"/>
<text text-anchor="middle" x="357.5" y="-178.6" font-family="Times New Roman,serif" font-size="30.00"> &#160;&#160;158 &#160;&#160;85% &#160;&#160;4.67e&#45;08 mol/s &#160;&#160;&#160;1.00E+00</text>
</g>
<!-- R253 -->
<g id="node5" class="node">
<title>R253</title>
<g id="a_node5"><a xlink:href="253.svg" xlink:title="R253">
<polygon fill="cornsilk" stroke="none" points="94,-107.1 0,-107.1 0,-60.1 94,-60.1 94,-107.1"/>
<text text-anchor="middle" x="47" y="-75.1" font-family="Times New Roman,serif" font-size="35.00">R253</text>
</a>
</g>
</g>
<!-- R253&#45;&gt;R112 -->
<g id="edge4" class="edge">
<title>R253&#45;&gt;R112</title>
<path fill="none" stroke="black" d="M94,-91.6C99.54,-92.38 105.14,-93.07 110.5,-93.6 219.83,-104.41 498.04,-85.48 604.5,-112.6 608.3,-113.57 612.15,-114.79 615.96,-116.18"/>
<polygon fill="black" stroke="black" points="614.33,-119.71 624.92,-120.22 616.96,-113.22 614.33,-119.71"/>
<text text-anchor="middle" x="357.5" y="-121.6" font-family="Times New Roman,serif" font-size="30.00"> &#160;&#160;643 &#160;&#160;14% &#160;&#160;8.08e&#45;09 mol/s &#160;&#160;&#160;1.25E&#45;03</text>
</g>
<!-- R253&#45;&gt;R112 -->
<g id="edge5" class="edge">
<title>R253&#45;&gt;R112</title>
<path fill="none" stroke="black" d="M93.73,-61.37C99.27,-59.42 104.94,-57.75 110.5,-56.6 325.51,-12.14 409.14,43.6 604.5,-56.6 626.48,-67.87 642.48,-90.88 652.79,-110.4"/>
<polygon fill="black" stroke="black" points="650.08,-111.81 657.66,-119.21 656.34,-108.69 650.08,-111.81"/>
<text text-anchor="middle" x="357.5" y="-65.6" font-family="Times New Roman,serif" font-size="30.00"> &#160;&#160;726 &#160;&#160;0% &#160;&#160;1.01e&#45;11 mol/s &#160;&#160;&#160;9.99E&#45;01</text>
</g>
</g>
</svg>
