<?xml version="1.0" encoding="UTF-8" standalone="no"?>
<!DOCTYPE svg PUBLIC "-//W3C//DTD SVG 1.1//EN"
 "http://www.w3.org/Graphics/SVG/1.1/DTD/svg11.dtd">
<!-- Generated by graphviz version 8.0.3 (20230416.2022)
 -->
<!-- Title: G Pages: 1 -->
<svg width="640pt" height="165pt"
 viewBox="0.00 0.00 720.00 186.11" xmlns="http://www.w3.org/2000/svg" xmlns:xlink="http://www.w3.org/1999/xlink">
<g id="graph0" class="graph" transform="scale(0.492308 0.492308) rotate(0) translate(4 332.02)">
<title>G</title>
<polygon fill="white" stroke="none" points="-4,4 -4,-332.02 1296,-332.02 1296,4 -4,4"/>
<text text-anchor="middle" x="646" y="-295.22" font-family="Arial" font-size="36.00" fill="blue">Reaction Path Analysis</text>
<!-- R112 -->
<g id="node1" class="node">
<title>R112</title>
<g id="a_node1"><a xlink:href="112.svg" xlink:title="R112">
<polygon fill="cornsilk" stroke="none" points="693,-159.52 599,-159.52 599,-112.52 693,-112.52 693,-159.52"/>
<text text-anchor="middle" x="646" y="-127.52" font-family="Times New Roman,serif" font-size="35.00">R112</text>
</a>
</g>
</g>
<!-- R180 -->
<g id="node4" class="node">
<title>R180</title>
<g id="a_node4"><a xlink:href="180.svg" xlink:title="R180">
<polygon fill="cornsilk" stroke="none" points="1292,-159.52 1198,-159.52 1198,-112.52 1292,-112.52 1292,-159.52"/>
<text text-anchor="middle" x="1245" y="-127.52" font-family="Times New Roman,serif" font-size="35.00">R180</text>
</a>
</g>
</g>
<!-- R112&#45;&gt;R180 -->
<g id="edge3" class="edge">
<title>R112&#45;&gt;R180</title>
<path fill="none" stroke="black" stroke-width="6" d="M692.85,-136.02C797.71,-136.02 1055.33,-136.02 1177.56,-136.02"/>
<polygon fill="black" stroke="black" stroke-width="6" points="1172.4,-146.52 1192.4,-136.02 1172.4,-125.52 1172.4,-146.52"/>
<text text-anchor="middle" x="945.5" y="-145.02" font-family="Times New Roman,serif" font-size="30.00"> &#160;&#160;483 &#160;&#160;100% &#160;&#160;0.0342 mol/s &#160;&#160;&#160;1.00E+00</text>
</g>
<!-- R18 -->
<g id="node2" class="node">
<title>R18</title>
<g id="a_node2"><a xlink:href="18.svg" xlink:title="R18">
<polygon fill="cornsilk" stroke="none" points="85,-252.52 9,-252.52 9,-205.52 85,-205.52 85,-252.52"/>
<text text-anchor="middle" x="47" y="-220.52" font-family="Times New Roman,serif" font-size="35.00">R18</text>
</a>
</g>
</g>
<!-- R18&#45;&gt;R112 -->
<g id="edge1" class="edge">
<title>R18&#45;&gt;R112</title>
<path fill="none" stroke="black" d="M84.95,-234.81C173.56,-247.04 403.47,-268.89 575,-198.02 591.37,-191.26 606.5,-179 618.48,-167.16"/>
<polygon fill="black" stroke="black" points="620.44,-170.12 624.87,-160.5 615.41,-165.26 620.44,-170.12"/>
<text text-anchor="middle" x="346.5" y="-256.02" font-family="Times New Roman,serif" font-size="30.00"> &#160;&#160;158 &#160;&#160;6% &#160;&#160;0.0342 mol/s &#160;&#160;&#160;1.00E+00</text>
</g>
<!-- R1 -->
<g id="node3" class="node">
<title>R1</title>
<g id="a_node3"><a xlink:href="1.svg" xlink:title="R1">
<polygon fill="cornsilk" stroke="none" points="76,-187.52 18,-187.52 18,-140.52 76,-140.52 76,-187.52"/>
<text text-anchor="middle" x="47" y="-155.52" font-family="Times New Roman,serif" font-size="35.00">R1</text>
</a>
</g>
</g>
<!-- R1&#45;&gt;R112 -->
<g id="edge2" class="edge">
<title>R1&#45;&gt;R112</title>
<path fill="none" stroke="black" d="M75.73,-163.29C154.16,-161.14 384.23,-154.17 575,-142.02 579.38,-141.74 583.92,-141.42 588.47,-141.08"/>
<polygon fill="black" stroke="black" points="588.39,-144.52 598.08,-140.25 587.84,-137.54 588.39,-144.52"/>
<text text-anchor="middle" x="346.5" y="-170.02" font-family="Times New Roman,serif" font-size="30.00"> &#160;&#160;158 &#160;&#160;6% &#160;&#160;0.0342 mol/s &#160;&#160;&#160;1.00E+00</text>
</g>
<!-- R253 -->
<g id="node5" class="node">
<title>R253</title>
<g id="a_node5"><a xlink:href="253.svg" xlink:title="R253">
<polygon fill="cornsilk" stroke="none" points="94,-99.52 0,-99.52 0,-52.52 94,-52.52 94,-99.52"/>
<text text-anchor="middle" x="47" y="-67.52" font-family="Times New Roman,serif" font-size="35.00">R253</text>
</a>
</g>
</g>
<!-- R253&#45;&gt;R112 -->
<g id="edge4" class="edge">
<title>R253&#45;&gt;R112</title>
<path fill="none" stroke="black" stroke-width="5" d="M93.86,-83.25C101.89,-84.32 110.18,-85.3 118,-86.02 219.22,-95.33 476.02,-81.93 575,-105.02 576.5,-105.37 578.02,-105.76 579.53,-106.17"/>
<polygon fill="black" stroke="black" stroke-width="5" points="572.4,-112.69 594.15,-110.82 578.02,-96.11 572.4,-112.69"/>
<text text-anchor="middle" x="346.5" y="-114.02" font-family="Times New Roman,serif" font-size="30.00"> &#160;&#160;643 &#160;&#160;93% &#160;&#160;0.528 mol/s &#160;&#160;&#160;5.10E&#45;03</text>
</g>
<!-- R253&#45;&gt;R112 -->
<g id="edge5" class="edge">
<title>R253&#45;&gt;R112</title>
<path fill="none" stroke="black" d="M93.99,-55.55C101.86,-52.85 110.06,-50.5 118,-49.02 317.68,-11.85 391.81,38.71 575,-49.02 598.44,-60.25 616.53,-83.58 628.44,-103.25"/>
<polygon fill="black" stroke="black" points="625.77,-104.63 633.79,-111.55 631.83,-101.13 625.77,-104.63"/>
<text text-anchor="middle" x="346.5" y="-58.02" font-family="Times New Roman,serif" font-size="30.00"> &#160;&#160;726 &#160;&#160;0% &#160;&#160;0.0027 mol/s &#160;&#160;&#160;9.95E&#45;01</text>
</g>
</g>
</svg>
