<?xml version="1.0" encoding="UTF-8" standalone="no"?>
<!DOCTYPE svg PUBLIC "-//W3C//DTD SVG 1.1//EN"
 "http://www.w3.org/Graphics/SVG/1.1/DTD/svg11.dtd">
<!-- Generated by graphviz version 8.0.3 (20230416.2022)
 -->
<!-- Title: G Pages: 1 -->
<svg width="640pt" height="116pt"
 viewBox="0.00 0.00 720.00 130.67" xmlns="http://www.w3.org/2000/svg" xmlns:xlink="http://www.w3.org/1999/xlink">
<g id="graph0" class="graph" transform="scale(0.479401 0.479401) rotate(0) translate(4 238.28)">
<title>G</title>
<polygon fill="white" stroke="none" points="-4,4 -4,-238.28 1331,-238.28 1331,4 -4,4"/>
<text text-anchor="middle" x="663.5" y="-201.48" font-family="Arial" font-size="36.00" fill="blue">Reaction Path Analysis</text>
<!-- R113 -->
<g id="node1" class="node">
<title>R113</title>
<g id="a_node1"><a xlink:href="113.svg" xlink:title="R113">
<polygon fill="cornsilk" stroke="none" points="706,-116.78 612,-116.78 612,-69.78 706,-69.78 706,-116.78"/>
<text text-anchor="middle" x="659" y="-84.78" font-family="Times New Roman,serif" font-size="35.00">R113</text>
</a>
</g>
</g>
<!-- R76 -->
<g id="node4" class="node">
<title>R76</title>
<g id="a_node4"><a xlink:href="76.svg" xlink:title="R76">
<polygon fill="cornsilk" stroke="none" points="1318,-148.78 1242,-148.78 1242,-101.78 1318,-101.78 1318,-148.78"/>
<text text-anchor="middle" x="1280" y="-116.78" font-family="Times New Roman,serif" font-size="35.00">R76</text>
</a>
</g>
</g>
<!-- R113&#45;&gt;R76 -->
<g id="edge3" class="edge">
<title>R113&#45;&gt;R76</title>
<path fill="none" stroke="black" stroke-width="5" d="M695.75,-116.63C704.2,-121.03 713.4,-124.96 722.5,-127.28 899.8,-172.38 1119.28,-149.67 1221.54,-134.78"/>
<polygon fill="black" stroke="black" stroke-width="5" points="1217.63,-143.32 1236.09,-131.66 1215.01,-126.01 1217.63,-143.32"/>
<text text-anchor="middle" x="969.5" y="-162.28" font-family="Times New Roman,serif" font-size="30.00"> &#160;&#160;460 &#160;&#160;99% &#160;&#160;0.000162 mol/s &#160;&#160;&#160;6.22E&#45;08</text>
</g>
<!-- R113&#45;&gt;R76 -->
<g id="edge5" class="edge">
<title>R113&#45;&gt;R76</title>
<path fill="none" stroke="black" d="M705.63,-90.02C820.73,-82.28 1120.56,-65.24 1216.5,-90.28 1222.67,-91.89 1228.87,-94.25 1234.85,-97.01"/>
<polygon fill="black" stroke="black" points="1233.14,-100.58 1243.65,-101.96 1236.3,-94.33 1233.14,-100.58"/>
<text text-anchor="middle" x="969.5" y="-99.28" font-family="Times New Roman,serif" font-size="30.00"> &#160;&#160;644 &#160;&#160;0% &#160;&#160;1.01e&#45;11 mol/s &#160;&#160;&#160;1.00E+00</text>
</g>
<!-- R181 -->
<g id="node5" class="node">
<title>R181</title>
<g id="a_node5"><a xlink:href="181.svg" xlink:title="R181">
<polygon fill="cornsilk" stroke="none" points="1327,-60.78 1233,-60.78 1233,-13.78 1327,-13.78 1327,-60.78"/>
<text text-anchor="middle" x="1280" y="-28.78" font-family="Times New Roman,serif" font-size="35.00">R181</text>
</a>
</g>
</g>
<!-- R113&#45;&gt;R181 -->
<g id="edge4" class="edge">
<title>R113&#45;&gt;R181</title>
<path fill="none" stroke="black" d="M679.43,-69.98C690.66,-58.37 705.85,-45.51 722.5,-39.28 895.1,25.31 1119.46,-5.24 1222.61,-25.01"/>
<polygon fill="black" stroke="black" points="1221.61,-28.58 1232.1,-27.07 1222.96,-21.71 1221.61,-28.58"/>
<text text-anchor="middle" x="969.5" y="-48.28" font-family="Times New Roman,serif" font-size="30.00"> &#160;&#160;484 &#160;&#160;0% &#160;&#160;4.67e&#45;08 mol/s &#160;&#160;&#160;1.00E+00</text>
</g>
<!-- R19 -->
<g id="node2" class="node">
<title>R19</title>
<g id="a_node2"><a xlink:href="19.svg" xlink:title="R19">
<polygon fill="cornsilk" stroke="none" points="76,-149.78 0,-149.78 0,-102.78 76,-102.78 76,-149.78"/>
<text text-anchor="middle" x="38" y="-117.78" font-family="Times New Roman,serif" font-size="35.00">R19</text>
</a>
</g>
</g>
<!-- R19&#45;&gt;R113 -->
<g id="edge1" class="edge">
<title>R19&#45;&gt;R113</title>
<path fill="none" stroke="black" stroke-width="6" d="M75.78,-126.85C162.98,-127.79 389.5,-127.77 591.46,-105.39"/>
<polygon fill="black" stroke="black" stroke-width="6" points="587.5,-115.73 606.17,-103.01 585.1,-94.86 587.5,-115.73"/>
<text text-anchor="middle" x="348.5" y="-135.28" font-family="Times New Roman,serif" font-size="30.00"> &#160;&#160;160 &#160;&#160;100% &#160;&#160;4.67e&#45;08 mol/s &#160;&#160;&#160;1.00E+00</text>
</g>
<!-- R1 -->
<g id="node3" class="node">
<title>R1</title>
<g id="a_node3"><a xlink:href="1.svg" xlink:title="R1">
<polygon fill="cornsilk" stroke="none" points="67,-84.78 9,-84.78 9,-37.78 67,-37.78 67,-84.78"/>
<text text-anchor="middle" x="38" y="-52.78" font-family="Times New Roman,serif" font-size="35.00">R1</text>
</a>
</g>
</g>
<!-- R1&#45;&gt;R113 -->
<g id="edge2" class="edge">
<title>R1&#45;&gt;R113</title>
<path fill="none" stroke="black" stroke-width="6" d="M66.97,-58.25C147.17,-50.29 384.92,-31.75 591.62,-69.57"/>
<polygon fill="black" stroke="black" stroke-width="6" points="584.53,-79.05 606.16,-72.54 588.52,-58.44 584.53,-79.05"/>
<text text-anchor="middle" x="348.5" y="-80.28" font-family="Times New Roman,serif" font-size="30.00"> &#160;&#160;160 &#160;&#160;100% &#160;&#160;4.67e&#45;08 mol/s &#160;&#160;&#160;1.00E+00</text>
</g>
</g>
</svg>
