<?xml version="1.0" encoding="UTF-8" standalone="no"?>
<!DOCTYPE svg PUBLIC "-//W3C//DTD SVG 1.1//EN"
 "http://www.w3.org/Graphics/SVG/1.1/DTD/svg11.dtd">
<!-- Generated by graphviz version 8.0.3 (20230416.2022)
 -->
<!-- Title: G Pages: 1 -->
<svg width="640pt" height="116pt"
 viewBox="0.00 0.00 720.00 130.66" xmlns="http://www.w3.org/2000/svg" xmlns:xlink="http://www.w3.org/1999/xlink">
<g id="graph0" class="graph" transform="scale(0.479401 0.479401) rotate(0) translate(4 238.26)">
<title>G</title>
<polygon fill="white" stroke="none" points="-4,4 -4,-238.26 1331,-238.26 1331,4 -4,4"/>
<text text-anchor="middle" x="663.5" y="-201.46" font-family="Arial" font-size="36.00" fill="blue">Reaction Path Analysis</text>
<!-- R113 -->
<g id="node1" class="node">
<title>R113</title>
<g id="a_node1"><a xlink:href="113.svg" xlink:title="R113">
<polygon fill="cornsilk" stroke="none" points="706,-116.76 612,-116.76 612,-69.76 706,-69.76 706,-116.76"/>
<text text-anchor="middle" x="659" y="-84.76" font-family="Times New Roman,serif" font-size="35.00">R113</text>
</a>
</g>
</g>
<!-- R76 -->
<g id="node4" class="node">
<title>R76</title>
<g id="a_node4"><a xlink:href="76.svg" xlink:title="R76">
<polygon fill="cornsilk" stroke="none" points="1318,-148.76 1242,-148.76 1242,-101.76 1318,-101.76 1318,-148.76"/>
<text text-anchor="middle" x="1280" y="-116.76" font-family="Times New Roman,serif" font-size="35.00">R76</text>
</a>
</g>
</g>
<!-- R113&#45;&gt;R76 -->
<g id="edge3" class="edge">
<title>R113&#45;&gt;R76</title>
<path fill="none" stroke="black" d="M695.75,-116.61C704.2,-121.01 713.4,-124.94 722.5,-127.26 905.75,-173.88 1134.05,-148.05 1231.43,-133.3"/>
<polygon fill="black" stroke="black" points="1231.75,-136.63 1241.09,-131.64 1230.68,-129.72 1231.75,-136.63"/>
<text text-anchor="middle" x="969.5" y="-162.26" font-family="Times New Roman,serif" font-size="30.00"> &#160;&#160;460 &#160;&#160;0% &#160;&#160;3.54e&#45;19 mol/s &#160;&#160;&#160;6.22E&#45;08</text>
</g>
<!-- R113&#45;&gt;R76 -->
<g id="edge5" class="edge">
<title>R113&#45;&gt;R76</title>
<path fill="none" stroke="black" d="M705.63,-90C820.73,-82.26 1120.56,-65.22 1216.5,-90.26 1222.67,-91.87 1228.87,-94.23 1234.85,-96.99"/>
<polygon fill="black" stroke="black" points="1233.14,-100.56 1243.65,-101.94 1236.3,-94.31 1233.14,-100.56"/>
<text text-anchor="middle" x="969.5" y="-99.26" font-family="Times New Roman,serif" font-size="30.00"> &#160;&#160;644 &#160;&#160;0% &#160;&#160;2.2e&#45;26 mol/s &#160;&#160;&#160;1.00E+00</text>
</g>
<!-- R181 -->
<g id="node5" class="node">
<title>R181</title>
<g id="a_node5"><a xlink:href="181.svg" xlink:title="R181">
<polygon fill="cornsilk" stroke="none" points="1327,-60.76 1233,-60.76 1233,-13.76 1327,-13.76 1327,-60.76"/>
<text text-anchor="middle" x="1280" y="-28.76" font-family="Times New Roman,serif" font-size="35.00">R181</text>
</a>
</g>
</g>
<!-- R113&#45;&gt;R181 -->
<g id="edge4" class="edge">
<title>R113&#45;&gt;R181</title>
<path fill="none" stroke="black" stroke-width="5" d="M679.43,-69.96C690.66,-58.35 705.85,-45.49 722.5,-39.26 889.69,23.31 1105.44,-3.4 1212.56,-23.11"/>
<polygon fill="black" stroke="black" stroke-width="5" points="1205.81,-30.87 1227.1,-26.05 1209.11,-13.68 1205.81,-30.87"/>
<text text-anchor="middle" x="969.5" y="-48.26" font-family="Times New Roman,serif" font-size="30.00"> &#160;&#160;484 &#160;&#160;99% &#160;&#160;2.18e&#45;15 mol/s &#160;&#160;&#160;1.00E+00</text>
</g>
<!-- R19 -->
<g id="node2" class="node">
<title>R19</title>
<g id="a_node2"><a xlink:href="19.svg" xlink:title="R19">
<polygon fill="cornsilk" stroke="none" points="76,-149.76 0,-149.76 0,-102.76 76,-102.76 76,-149.76"/>
<text text-anchor="middle" x="38" y="-117.76" font-family="Times New Roman,serif" font-size="35.00">R19</text>
</a>
</g>
</g>
<!-- R19&#45;&gt;R113 -->
<g id="edge1" class="edge">
<title>R19&#45;&gt;R113</title>
<path fill="none" stroke="black" stroke-width="6" d="M75.78,-126.83C162.98,-127.77 389.5,-127.75 591.46,-105.37"/>
<polygon fill="black" stroke="black" stroke-width="6" points="587.5,-115.71 606.17,-102.99 585.1,-94.84 587.5,-115.71"/>
<text text-anchor="middle" x="348.5" y="-135.26" font-family="Times New Roman,serif" font-size="30.00"> &#160;&#160;160 &#160;&#160;100% &#160;&#160;2.18e&#45;15 mol/s &#160;&#160;&#160;1.00E+00</text>
</g>
<!-- R1 -->
<g id="node3" class="node">
<title>R1</title>
<g id="a_node3"><a xlink:href="1.svg" xlink:title="R1">
<polygon fill="cornsilk" stroke="none" points="67,-84.76 9,-84.76 9,-37.76 67,-37.76 67,-84.76"/>
<text text-anchor="middle" x="38" y="-52.76" font-family="Times New Roman,serif" font-size="35.00">R1</text>
</a>
</g>
</g>
<!-- R1&#45;&gt;R113 -->
<g id="edge2" class="edge">
<title>R1&#45;&gt;R113</title>
<path fill="none" stroke="black" stroke-width="6" d="M66.97,-58.23C147.17,-50.27 384.92,-31.73 591.62,-69.55"/>
<polygon fill="black" stroke="black" stroke-width="6" points="584.53,-79.04 606.16,-72.52 588.52,-58.42 584.53,-79.04"/>
<text text-anchor="middle" x="348.5" y="-80.26" font-family="Times New Roman,serif" font-size="30.00"> &#160;&#160;160 &#160;&#160;100% &#160;&#160;2.18e&#45;15 mol/s &#160;&#160;&#160;1.00E+00</text>
</g>
</g>
</svg>
