<?xml version="1.0" encoding="UTF-8" standalone="no"?>
<!DOCTYPE svg PUBLIC "-//W3C//DTD SVG 1.1//EN"
 "http://www.w3.org/Graphics/SVG/1.1/DTD/svg11.dtd">
<!-- Generated by graphviz version 8.0.3 (20230416.2022)
 -->
<!-- Title: G Pages: 1 -->
<svg width="640pt" height="92pt"
 viewBox="0.00 0.00 720.00 103.99" xmlns="http://www.w3.org/2000/svg" xmlns:xlink="http://www.w3.org/1999/xlink">
<g id="graph0" class="graph" transform="scale(0.49574 0.49574) rotate(0) translate(4 182.47)">
<title>G</title>
<polygon fill="white" stroke="none" points="-4,4 -4,-182.47 1287,-182.47 1287,4 -4,4"/>
<text text-anchor="middle" x="641.5" y="-145.67" font-family="Arial" font-size="36.00" fill="blue">Reaction Path Analysis</text>
<!-- R114 -->
<g id="node1" class="node">
<title>R114</title>
<g id="a_node1"><a xlink:href="114.svg" xlink:title="R114">
<polygon fill="cornsilk" stroke="none" points="684,-87.97 590,-87.97 590,-40.97 684,-40.97 684,-87.97"/>
<text text-anchor="middle" x="637" y="-55.97" font-family="Times New Roman,serif" font-size="35.00">R114</text>
</a>
</g>
</g>
<!-- R315 -->
<g id="node4" class="node">
<title>R315</title>
<g id="a_node4"><a xlink:href="315.svg" xlink:title="R315">
<polygon fill="cornsilk" stroke="none" points="1283,-87.97 1189,-87.97 1189,-40.97 1283,-40.97 1283,-87.97"/>
<text text-anchor="middle" x="1236" y="-55.97" font-family="Times New Roman,serif" font-size="35.00">R315</text>
</a>
</g>
</g>
<!-- R114&#45;&gt;R315 -->
<g id="edge3" class="edge">
<title>R114&#45;&gt;R315</title>
<path fill="none" stroke="black" d="M683.75,-69.14C690.7,-69.69 697.78,-70.16 704.5,-70.47 910.51,-79.74 962.49,-79.74 1168.5,-70.47 1171.75,-70.32 1175.09,-70.13 1178.46,-69.92"/>
<polygon fill="black" stroke="black" points="1178.53,-73.35 1188.25,-69.14 1178.02,-66.37 1178.53,-73.35"/>
<text text-anchor="middle" x="936.5" y="-85.47" font-family="Times New Roman,serif" font-size="30.00"> &#160;&#160;645 &#160;&#160;0% &#160;&#160;0.00271 mol/s &#160;&#160;&#160;9.98E&#45;01</text>
</g>
<!-- R114&#45;&gt;R315 -->
<g id="edge4" class="edge">
<title>R114&#45;&gt;R315</title>
<path fill="none" stroke="black" stroke-width="5" d="M681.4,-40.99C688.91,-37.88 696.79,-35.18 704.5,-33.47 905.84,11.16 967.16,11.16 1168.5,-33.47 1169.58,-33.71 1170.67,-33.97 1171.76,-34.25"/>
<polygon fill="black" stroke="black" stroke-width="5" points="1164.84,-40.84 1186.6,-38.99 1170.47,-24.27 1164.84,-40.84"/>
<text text-anchor="middle" x="936.5" y="-42.47" font-family="Times New Roman,serif" font-size="30.00"> &#160;&#160;788 &#160;&#160;99% &#160;&#160;1.78 mol/s &#160;&#160;&#160;1.53E&#45;03</text>
</g>
<!-- R20 -->
<g id="node2" class="node">
<title>R20</title>
<g id="a_node2"><a xlink:href="20.svg" xlink:title="R20">
<polygon fill="cornsilk" stroke="none" points="76,-120.97 0,-120.97 0,-73.97 76,-73.97 76,-120.97"/>
<text text-anchor="middle" x="38" y="-88.97" font-family="Times New Roman,serif" font-size="35.00">R20</text>
</a>
</g>
</g>
<!-- R20&#45;&gt;R114 -->
<g id="edge1" class="edge">
<title>R20&#45;&gt;R114</title>
<path fill="none" stroke="black" stroke-width="6" d="M75.96,-97.96C160.81,-98.67 376.45,-98.09 569.47,-76.59"/>
<polygon fill="black" stroke="black" stroke-width="6" points="565.51,-86.92 584.17,-74.19 563.09,-66.06 565.51,-86.92"/>
<text text-anchor="middle" x="337.5" y="-106.47" font-family="Times New Roman,serif" font-size="30.00"> &#160;&#160;162 &#160;&#160;100% &#160;&#160;0.0342 mol/s &#160;&#160;&#160;1.00E+00</text>
</g>
<!-- R1 -->
<g id="node3" class="node">
<title>R1</title>
<g id="a_node3"><a xlink:href="1.svg" xlink:title="R1">
<polygon fill="cornsilk" stroke="none" points="67,-55.97 9,-55.97 9,-8.97 67,-8.97 67,-55.97"/>
<text text-anchor="middle" x="38" y="-23.97" font-family="Times New Roman,serif" font-size="35.00">R1</text>
</a>
</g>
</g>
<!-- R1&#45;&gt;R114 -->
<g id="edge2" class="edge">
<title>R1&#45;&gt;R114</title>
<path fill="none" stroke="black" stroke-width="6" d="M66.73,-29.5C144.52,-21.89 371.5,-4.57 569.56,-40.75"/>
<polygon fill="black" stroke="black" stroke-width="6" points="562.53,-50.25 584.16,-43.73 566.52,-29.63 562.53,-50.25"/>
<text text-anchor="middle" x="337.5" y="-51.47" font-family="Times New Roman,serif" font-size="30.00"> &#160;&#160;162 &#160;&#160;100% &#160;&#160;0.0342 mol/s &#160;&#160;&#160;1.00E+00</text>
</g>
</g>
</svg>
