<?xml version="1.0" encoding="UTF-8" standalone="no"?>
<!DOCTYPE svg PUBLIC "-//W3C//DTD SVG 1.1//EN"
 "http://www.w3.org/Graphics/SVG/1.1/DTD/svg11.dtd">
<!-- Generated by graphviz version 8.0.3 (20230416.2022)
 -->
<!-- Title: G Pages: 1 -->
<svg width="640pt" height="95pt"
 viewBox="0.00 0.00 720.00 106.99" xmlns="http://www.w3.org/2000/svg" xmlns:xlink="http://www.w3.org/1999/xlink">
<g id="graph0" class="graph" transform="scale(0.490421 0.490421) rotate(0) translate(4 189.91)">
<title>G</title>
<polygon fill="white" stroke="none" points="-4,4 -4,-189.91 1301,-189.91 1301,4 -4,4"/>
<text text-anchor="middle" x="648.5" y="-153.11" font-family="Arial" font-size="36.00" fill="blue">Reaction Path Analysis</text>
<!-- R115 -->
<g id="node1" class="node">
<title>R115</title>
<g id="a_node1"><a xlink:href="115.svg" xlink:title="R115">
<polygon fill="cornsilk" stroke="none" points="691,-95.41 597,-95.41 597,-48.41 691,-48.41 691,-95.41"/>
<text text-anchor="middle" x="644" y="-63.41" font-family="Times New Roman,serif" font-size="35.00">R115</text>
</a>
</g>
</g>
<!-- R245 -->
<g id="node4" class="node">
<title>R245</title>
<g id="a_node4"><a xlink:href="245.svg" xlink:title="R245">
<polygon fill="cornsilk" stroke="none" points="1297,-95.41 1203,-95.41 1203,-48.41 1297,-48.41 1297,-95.41"/>
<text text-anchor="middle" x="1250" y="-63.41" font-family="Times New Roman,serif" font-size="35.00">R245</text>
</a>
</g>
</g>
<!-- R115&#45;&gt;R245 -->
<g id="edge3" class="edge">
<title>R115&#45;&gt;R245</title>
<path fill="none" stroke="black" d="M690.89,-77.3C693.97,-77.54 697.03,-77.75 700,-77.91 915.7,-89.65 972.94,-89.83 1192.21,-77.89"/>
<polygon fill="black" stroke="black" points="1192.32,-81.34 1202.11,-77.3 1191.94,-74.35 1192.32,-81.34"/>
<text text-anchor="middle" x="947" y="-94.91" font-family="Times New Roman,serif" font-size="30.00"> &#160;&#160;646 &#160;&#160;0% &#160;&#160;0.00272 mol/s &#160;&#160;&#160;1.00E+00</text>
</g>
<!-- R115&#45;&gt;R245 -->
<g id="edge4" class="edge">
<title>R115&#45;&gt;R245</title>
<path fill="none" stroke="black" stroke-width="5" d="M680.56,-48.46C686.81,-45.35 693.43,-42.64 700,-40.91 906.14,13.18 977.45,14.77 1193.48,-43.06"/>
<polygon fill="black" stroke="black" stroke-width="5" points="1185.85,-50.69 1207.44,-47.46 1190.42,-33.79 1185.85,-50.69"/>
<text text-anchor="middle" x="947" y="-49.91" font-family="Times New Roman,serif" font-size="30.00"> &#160;&#160;716 &#160;&#160;99% &#160;&#160;489000.0 mol/s &#160;&#160;&#160;5.56E&#45;09</text>
</g>
<!-- R21 -->
<g id="node2" class="node">
<title>R21</title>
<g id="a_node2"><a xlink:href="21.svg" xlink:title="R21">
<polygon fill="cornsilk" stroke="none" points="76,-128.41 0,-128.41 0,-81.41 76,-81.41 76,-128.41"/>
<text text-anchor="middle" x="38" y="-96.41" font-family="Times New Roman,serif" font-size="35.00">R21</text>
</a>
</g>
</g>
<!-- R21&#45;&gt;R115 -->
<g id="edge1" class="edge">
<title>R21&#45;&gt;R115</title>
<path fill="none" stroke="black" stroke-width="6" d="M75.89,-105.11C160.68,-105.2 376.34,-103.42 576.18,-82.94"/>
<polygon fill="black" stroke="black" stroke-width="6" points="572.24,-93.28 591.02,-80.72 570.02,-72.39 572.24,-93.28"/>
<text text-anchor="middle" x="341" y="-113.91" font-family="Times New Roman,serif" font-size="30.00"> &#160;&#160;164 &#160;&#160;100% &#160;&#160;0.0199 mol/s &#160;&#160;&#160;7.05E&#45;01</text>
</g>
<!-- R1 -->
<g id="node3" class="node">
<title>R1</title>
<g id="a_node3"><a xlink:href="1.svg" xlink:title="R1">
<polygon fill="cornsilk" stroke="none" points="67,-63.41 9,-63.41 9,-16.41 67,-16.41 67,-63.41"/>
<text text-anchor="middle" x="38" y="-31.41" font-family="Times New Roman,serif" font-size="35.00">R1</text>
</a>
</g>
</g>
<!-- R1&#45;&gt;R115 -->
<g id="edge2" class="edge">
<title>R1&#45;&gt;R115</title>
<path fill="none" stroke="black" stroke-width="6" d="M66.92,-37.32C144.83,-30.73 371.39,-15.94 576.61,-50.29"/>
<polygon fill="black" stroke="black" stroke-width="6" points="569.51,-59.76 591.03,-52.89 573.15,-39.08 569.51,-59.76"/>
<text text-anchor="middle" x="341" y="-58.91" font-family="Times New Roman,serif" font-size="30.00"> &#160;&#160;164 &#160;&#160;100% &#160;&#160;0.0199 mol/s &#160;&#160;&#160;7.05E&#45;01</text>
</g>
</g>
</svg>
