<?xml version="1.0" encoding="UTF-8" standalone="no"?>
<!DOCTYPE svg PUBLIC "-//W3C//DTD SVG 1.1//EN"
 "http://www.w3.org/Graphics/SVG/1.1/DTD/svg11.dtd">
<!-- Generated by graphviz version 8.0.3 (20230416.2022)
 -->
<!-- Title: G Pages: 1 -->
<svg width="640pt" height="255pt"
 viewBox="0.00 0.00 720.00 287.40" xmlns="http://www.w3.org/2000/svg" xmlns:xlink="http://www.w3.org/1999/xlink">
<g id="graph0" class="graph" transform="scale(0.490421 0.490421) rotate(0) translate(4 516.91)">
<title>G</title>
<polygon fill="white" stroke="none" points="-4,4 -4,-516.91 1301,-516.91 1301,4 -4,4"/>
<text text-anchor="middle" x="648.5" y="-480.11" font-family="Arial" font-size="36.00" fill="blue">Reaction Path Analysis</text>
<!-- R117 -->
<g id="node1" class="node">
<title>R117</title>
<g id="a_node1"><a xlink:href="117.svg" xlink:title="R117">
<polygon fill="cornsilk" stroke="none" points="691,-246.41 597,-246.41 597,-199.41 691,-199.41 691,-246.41"/>
<text text-anchor="middle" x="644" y="-214.41" font-family="Times New Roman,serif" font-size="35.00">R117</text>
</a>
</g>
</g>
<!-- R121 -->
<g id="node5" class="node">
<title>R121</title>
<g id="a_node5"><a xlink:href="121.svg" xlink:title="R121">
<polygon fill="cornsilk" stroke="none" points="1297,-441.41 1203,-441.41 1203,-394.41 1297,-394.41 1297,-441.41"/>
<text text-anchor="middle" x="1250" y="-409.41" font-family="Times New Roman,serif" font-size="35.00">R121</text>
</a>
</g>
</g>
<!-- R117&#45;&gt;R121 -->
<g id="edge4" class="edge">
<title>R117&#45;&gt;R121</title>
<path fill="none" stroke="black" d="M644.97,-246.11C646.33,-283.3 654.98,-355.56 700,-389.91 775.86,-447.79 1068.17,-432.33 1192.51,-422.79"/>
<polygon fill="black" stroke="black" points="1192.6,-426.22 1202.3,-421.95 1192.05,-419.24 1192.6,-426.22"/>
<text text-anchor="middle" x="947" y="-440.91" font-family="Times New Roman,serif" font-size="30.00"> &#160;&#160;485 &#160;&#160;14% &#160;&#160;4.67e&#45;08 mol/s &#160;&#160;&#160;1.00E+00</text>
</g>
<!-- R335 -->
<g id="node6" class="node">
<title>R335</title>
<g id="a_node6"><a xlink:href="335.svg" xlink:title="R335">
<polygon fill="cornsilk" stroke="none" points="1297,-376.41 1203,-376.41 1203,-329.41 1297,-329.41 1297,-376.41"/>
<text text-anchor="middle" x="1250" y="-344.41" font-family="Times New Roman,serif" font-size="35.00">R335</text>
</a>
</g>
</g>
<!-- R117&#45;&gt;R335 -->
<g id="edge5" class="edge">
<title>R117&#45;&gt;R335</title>
<path fill="none" stroke="black" d="M650.32,-246.36C657.24,-270.85 671.92,-308.12 700,-325.91 740.82,-351.77 1060.75,-353.61 1192.55,-353.25"/>
<polygon fill="black" stroke="black" points="1192.22,-356.75 1202.2,-353.22 1192.19,-349.75 1192.22,-356.75"/>
<text text-anchor="middle" x="947" y="-361.91" font-family="Times New Roman,serif" font-size="30.00"> &#160;&#160;563 &#160;&#160;14% &#160;&#160;4.67e&#45;08 mol/s &#160;&#160;&#160;1.00E+00</text>
</g>
<!-- R336 -->
<g id="node7" class="node">
<title>R336</title>
<g id="a_node7"><a xlink:href="336.svg" xlink:title="R336">
<polygon fill="cornsilk" stroke="none" points="1297,-311.41 1203,-311.41 1203,-264.41 1297,-264.41 1297,-311.41"/>
<text text-anchor="middle" x="1250" y="-279.41" font-family="Times New Roman,serif" font-size="35.00">R336</text>
</a>
</g>
</g>
<!-- R117&#45;&gt;R336 -->
<g id="edge6" class="edge">
<title>R117&#45;&gt;R336</title>
<path fill="none" stroke="black" d="M673.41,-246.24C681.54,-251.7 690.72,-256.82 700,-259.91 790,-289.89 1071.28,-290.19 1192.49,-288.83"/>
<polygon fill="black" stroke="black" points="1192.41,-292.32 1202.37,-288.7 1192.32,-285.32 1192.41,-292.32"/>
<text text-anchor="middle" x="947" y="-297.91" font-family="Times New Roman,serif" font-size="30.00"> &#160;&#160;564 &#160;&#160;14% &#160;&#160;4.67e&#45;08 mol/s &#160;&#160;&#160;1.00E+00</text>
</g>
<!-- R344 -->
<g id="node8" class="node">
<title>R344</title>
<g id="a_node8"><a xlink:href="344.svg" xlink:title="R344">
<polygon fill="cornsilk" stroke="none" points="1297,-246.41 1203,-246.41 1203,-199.41 1297,-199.41 1297,-246.41"/>
<text text-anchor="middle" x="1250" y="-214.41" font-family="Times New Roman,serif" font-size="35.00">R344</text>
</a>
</g>
</g>
<!-- R117&#45;&gt;R344 -->
<g id="edge7" class="edge">
<title>R117&#45;&gt;R344</title>
<path fill="none" stroke="black" d="M690.89,-222.91C799.81,-222.91 1073.67,-222.91 1192.51,-222.91"/>
<polygon fill="black" stroke="black" points="1192.18,-226.41 1202.18,-222.91 1192.18,-219.41 1192.18,-226.41"/>
<text text-anchor="middle" x="947" y="-231.91" font-family="Times New Roman,serif" font-size="30.00"> &#160;&#160;616 &#160;&#160;14% &#160;&#160;4.67e&#45;08 mol/s &#160;&#160;&#160;1.00E+00</text>
</g>
<!-- R366 -->
<g id="node9" class="node">
<title>R366</title>
<g id="a_node9"><a xlink:href="366.svg" xlink:title="R366">
<polygon fill="cornsilk" stroke="none" points="1297,-181.41 1203,-181.41 1203,-134.41 1297,-134.41 1297,-181.41"/>
<text text-anchor="middle" x="1250" y="-149.41" font-family="Times New Roman,serif" font-size="35.00">R366</text>
</a>
</g>
</g>
<!-- R117&#45;&gt;R366 -->
<g id="edge8" class="edge">
<title>R117&#45;&gt;R366</title>
<path fill="none" stroke="black" d="M673.41,-199.58C681.54,-194.12 690.72,-189 700,-185.91 871.88,-128.65 1090.73,-140.91 1192.38,-151.08"/>
<polygon fill="black" stroke="black" points="1191.71,-154.63 1202.02,-152.18 1192.43,-147.67 1191.71,-154.63"/>
<text text-anchor="middle" x="947" y="-194.91" font-family="Times New Roman,serif" font-size="30.00"> &#160;&#160;617 &#160;&#160;14% &#160;&#160;4.67e&#45;08 mol/s &#160;&#160;&#160;1.00E+00</text>
</g>
<!-- R349 -->
<g id="node10" class="node">
<title>R349</title>
<g id="a_node10"><a xlink:href="349.svg" xlink:title="R349">
<polygon fill="cornsilk" stroke="none" points="1297,-116.41 1203,-116.41 1203,-69.41 1297,-69.41 1297,-116.41"/>
<text text-anchor="middle" x="1250" y="-84.41" font-family="Times New Roman,serif" font-size="35.00">R349</text>
</a>
</g>
</g>
<!-- R117&#45;&gt;R349 -->
<g id="edge9" class="edge">
<title>R117&#45;&gt;R349</title>
<path fill="none" stroke="black" d="M648.46,-199.51C653.97,-171.59 667.63,-126.03 700,-104.91 779.73,-52.87 1069.21,-74.73 1192.63,-86.85"/>
<polygon fill="black" stroke="black" points="1192.04,-90.41 1202.34,-87.92 1192.74,-83.44 1192.04,-90.41"/>
<text text-anchor="middle" x="947" y="-113.91" font-family="Times New Roman,serif" font-size="30.00"> &#160;&#160;631 &#160;&#160;14% &#160;&#160;4.67e&#45;08 mol/s &#160;&#160;&#160;1.00E+00</text>
</g>
<!-- R374 -->
<g id="node11" class="node">
<title>R374</title>
<g id="a_node11"><a xlink:href="374.svg" xlink:title="R374">
<polygon fill="cornsilk" stroke="none" points="1297,-51.41 1203,-51.41 1203,-4.41 1297,-4.41 1297,-51.41"/>
<text text-anchor="middle" x="1250" y="-19.41" font-family="Times New Roman,serif" font-size="35.00">R374</text>
</a>
</g>
</g>
<!-- R117&#45;&gt;R374 -->
<g id="edge10" class="edge">
<title>R117&#45;&gt;R374</title>
<path fill="none" stroke="black" d="M648.33,-199.74C655.41,-154.05 673.53,-55.01 700,-34.91 775.9,22.73 1068.19,-5.41 1192.51,-20.48"/>
<polygon fill="black" stroke="black" points="1191.95,-24.06 1202.3,-21.81 1192.8,-17.12 1191.95,-24.06"/>
<text text-anchor="middle" x="947" y="-43.91" font-family="Times New Roman,serif" font-size="30.00"> &#160;&#160;632 &#160;&#160;14% &#160;&#160;4.67e&#45;08 mol/s &#160;&#160;&#160;1.00E+00</text>
</g>
<!-- R1 -->
<g id="node2" class="node">
<title>R1</title>
<g id="a_node2"><a xlink:href="1.svg" xlink:title="R1">
<polygon fill="cornsilk" stroke="none" points="67,-339.41 9,-339.41 9,-292.41 67,-292.41 67,-339.41"/>
<text text-anchor="middle" x="38" y="-307.41" font-family="Times New Roman,serif" font-size="35.00">R1</text>
</a>
</g>
</g>
<!-- R1&#45;&gt;R117 -->
<g id="edge1" class="edge">
<title>R1&#45;&gt;R117</title>
<path fill="none" stroke="black" stroke-width="5" d="M66.87,-321.71C150.9,-337.75 407.05,-375.85 588,-286.91 599.32,-281.35 609.24,-272.29 617.43,-262.72"/>
<polygon fill="black" stroke="black" stroke-width="5" points="621.88,-271.37 626.86,-250.12 607.87,-260.88 621.88,-271.37"/>
<text text-anchor="middle" x="341" y="-351.91" font-family="Times New Roman,serif" font-size="30.00"> &#160;&#160;167 &#160;&#160;99% &#160;&#160;4.67e&#45;08 mol/s &#160;&#160;&#160;1.00E+00</text>
</g>
<!-- R26 -->
<g id="node3" class="node">
<title>R26</title>
<g id="a_node3"><a xlink:href="26.svg" xlink:title="R26">
<polygon fill="cornsilk" stroke="none" points="76,-274.41 0,-274.41 0,-227.41 76,-227.41 76,-274.41"/>
<text text-anchor="middle" x="38" y="-242.41" font-family="Times New Roman,serif" font-size="35.00">R26</text>
</a>
</g>
</g>
<!-- R26&#45;&gt;R117 -->
<g id="edge2" class="edge">
<title>R26&#45;&gt;R117</title>
<path fill="none" stroke="black" stroke-width="5" d="M76,-250.3C161.52,-248.71 379.98,-243.61 576.35,-229.67"/>
<polygon fill="black" stroke="black" stroke-width="5" points="571.79,-238.33 591.11,-228.15 570.52,-220.88 571.79,-238.33"/>
<text text-anchor="middle" x="341" y="-258.91" font-family="Times New Roman,serif" font-size="30.00"> &#160;&#160;167 &#160;&#160;99% &#160;&#160;4.67e&#45;08 mol/s &#160;&#160;&#160;1.00E+00</text>
</g>
<!-- R43 -->
<g id="node4" class="node">
<title>R43</title>
<g id="a_node4"><a xlink:href="43.svg" xlink:title="R43">
<polygon fill="cornsilk" stroke="none" points="76,-186.41 0,-186.41 0,-139.41 76,-139.41 76,-186.41"/>
<text text-anchor="middle" x="38" y="-154.41" font-family="Times New Roman,serif" font-size="35.00">R43</text>
</a>
</g>
</g>
<!-- R43&#45;&gt;R117 -->
<g id="edge3" class="edge">
<title>R43&#45;&gt;R117</title>
<path fill="none" stroke="black" d="M75.88,-170.35C81.91,-171.36 88.12,-172.26 94,-172.91 203.21,-184.88 482.29,-161.99 588,-191.91 591.12,-192.79 594.25,-193.88 597.34,-195.12"/>
<polygon fill="black" stroke="black" points="595.52,-198.59 606.08,-199.52 598.41,-192.21 595.52,-198.59"/>
<text text-anchor="middle" x="341" y="-200.91" font-family="Times New Roman,serif" font-size="30.00"> &#160;&#160;439 &#160;&#160;0% &#160;&#160;7.66e&#45;12 mol/s &#160;&#160;&#160;8.06E&#45;01</text>
</g>
<!-- R43&#45;&gt;R117 -->
<g id="edge11" class="edge">
<title>R43&#45;&gt;R117</title>
<path fill="none" stroke="black" d="M75.72,-142.07C81.67,-139.53 87.89,-137.33 94,-135.91 307.86,-86.25 395.69,-29.97 588,-135.91 608.7,-147.31 622.69,-170.15 631.38,-189.56"/>
<polygon fill="black" stroke="black" points="628.48,-190.72 635.56,-198.61 634.95,-188.03 628.48,-190.72"/>
<text text-anchor="middle" x="341" y="-144.91" font-family="Times New Roman,serif" font-size="30.00"> &#160;&#160;648 &#160;&#160;0% &#160;&#160;3.19e&#45;11 mol/s &#160;&#160;&#160;1.94E&#45;01</text>
</g>
</g>
</svg>
