<?xml version="1.0" encoding="UTF-8" standalone="no"?>
<!DOCTYPE svg PUBLIC "-//W3C//DTD SVG 1.1//EN"
 "http://www.w3.org/Graphics/SVG/1.1/DTD/svg11.dtd">
<!-- Generated by graphviz version 8.0.3 (20230416.2022)
 -->
<!-- Title: G Pages: 1 -->
<svg width="610pt" height="428pt"
 viewBox="0.00 0.00 686.00 481.23" xmlns="http://www.w3.org/2000/svg" xmlns:xlink="http://www.w3.org/1999/xlink">
<g id="graph0" class="graph" transform="scale(0.888889 0.888889) rotate(0) translate(4 477.23)">
<title>G</title>
<polygon fill="white" stroke="none" points="-4,4 -4,-477.23 682,-477.23 682,4 -4,4"/>
<text text-anchor="middle" x="339" y="-440.43" font-family="Arial" font-size="36.00" fill="blue">Reaction Path Analysis</text>
<!-- R118 -->
<g id="node1" class="node">
<title>R118</title>
<g id="a_node1"><a xlink:href="118.svg" xlink:title="R118">
<polygon fill="cornsilk" stroke="none" points="678,-237.73 584,-237.73 584,-190.73 678,-190.73 678,-237.73"/>
<text text-anchor="middle" x="631" y="-205.73" font-family="Times New Roman,serif" font-size="35.00">R118</text>
</a>
</g>
</g>
<!-- R1 -->
<g id="node2" class="node">
<title>R1</title>
<g id="a_node2"><a xlink:href="1.svg" xlink:title="R1">
<polygon fill="cornsilk" stroke="none" points="76,-400.73 18,-400.73 18,-353.73 76,-353.73 76,-400.73"/>
<text text-anchor="middle" x="47" y="-368.73" font-family="Times New Roman,serif" font-size="35.00">R1</text>
</a>
</g>
</g>
<!-- R1&#45;&gt;R118 -->
<g id="edge1" class="edge">
<title>R1&#45;&gt;R118</title>
<path fill="none" stroke="black" d="M75.67,-379.9C172.45,-388.69 494.25,-412.91 575,-355.23 609.29,-330.73 622.2,-281.59 627.06,-248.3"/>
<polygon fill="black" stroke="black" points="630.63,-249.04 628.42,-238.67 623.68,-248.15 630.63,-249.04"/>
<text text-anchor="middle" x="339" y="-401.23" font-family="Times New Roman,serif" font-size="30.00"> &#160;&#160;168 &#160;&#160;0% &#160;&#160;0.0342 mol/s &#160;&#160;&#160;1.00E+00</text>
</g>
<!-- R26 -->
<g id="node3" class="node">
<title>R26</title>
<g id="a_node3"><a xlink:href="26.svg" xlink:title="R26">
<polygon fill="cornsilk" stroke="none" points="85,-335.73 9,-335.73 9,-288.73 85,-288.73 85,-335.73"/>
<text text-anchor="middle" x="47" y="-303.73" font-family="Times New Roman,serif" font-size="35.00">R26</text>
</a>
</g>
</g>
<!-- R26&#45;&gt;R118 -->
<g id="edge2" class="edge">
<title>R26&#45;&gt;R118</title>
<path fill="none" stroke="black" d="M84.66,-314.13C189.69,-319 489.62,-328.56 575,-284.23 590.98,-275.93 603.8,-260.69 613.03,-246.55"/>
<polygon fill="black" stroke="black" points="616.34,-248.85 618.58,-238.49 610.37,-245.19 616.34,-248.85"/>
<text text-anchor="middle" x="339" y="-327.23" font-family="Times New Roman,serif" font-size="30.00"> &#160;&#160;168 &#160;&#160;0% &#160;&#160;0.0342 mol/s &#160;&#160;&#160;1.00E+00</text>
</g>
<!-- R337 -->
<g id="node4" class="node">
<title>R337</title>
<g id="a_node4"><a xlink:href="337.svg" xlink:title="R337">
<polygon fill="cornsilk" stroke="none" points="94,-270.73 0,-270.73 0,-223.73 94,-223.73 94,-270.73"/>
<text text-anchor="middle" x="47" y="-238.73" font-family="Times New Roman,serif" font-size="35.00">R337</text>
</a>
</g>
</g>
<!-- R337&#45;&gt;R118 -->
<g id="edge3" class="edge">
<title>R337&#45;&gt;R118</title>
<path fill="none" stroke="black" d="M93.66,-247.7C183.54,-248.13 389.88,-246.56 573.5,-225.21"/>
<polygon fill="black" stroke="black" points="573.65,-228.6 583.17,-223.95 572.83,-221.65 573.65,-228.6"/>
<text text-anchor="middle" x="339" y="-256.23" font-family="Times New Roman,serif" font-size="30.00"> &#160;&#160;565 &#160;&#160;17% &#160;&#160;2.93 mol/s &#160;&#160;&#160;1.14E&#45;02</text>
</g>
<!-- R367 -->
<g id="node5" class="node">
<title>R367</title>
<g id="a_node5"><a xlink:href="367.svg" xlink:title="R367">
<polygon fill="cornsilk" stroke="none" points="94,-205.73 0,-205.73 0,-158.73 94,-158.73 94,-205.73"/>
<text text-anchor="middle" x="47" y="-173.73" font-family="Times New Roman,serif" font-size="35.00">R367</text>
</a>
</g>
</g>
<!-- R367&#45;&gt;R118 -->
<g id="edge4" class="edge">
<title>R367&#45;&gt;R118</title>
<path fill="none" stroke="black" stroke-width="4" d="M93.72,-177.63C182.46,-169.85 384.37,-157.76 563.55,-190.51"/>
<polygon fill="black" stroke="black" stroke-width="4" points="558.19,-196.57 579.16,-193.49 560.85,-182.82 558.19,-196.57"/>
<text text-anchor="middle" x="339" y="-201.23" font-family="Times New Roman,serif" font-size="30.00"> &#160;&#160;618 &#160;&#160;67% &#160;&#160;11.4 mol/s &#160;&#160;&#160;2.98E&#45;03</text>
</g>
<!-- R375 -->
<g id="node6" class="node">
<title>R375</title>
<g id="a_node6"><a xlink:href="375.svg" xlink:title="R375">
<polygon fill="cornsilk" stroke="none" points="94,-140.73 0,-140.73 0,-93.73 94,-93.73 94,-140.73"/>
<text text-anchor="middle" x="47" y="-108.73" font-family="Times New Roman,serif" font-size="35.00">R375</text>
</a>
</g>
</g>
<!-- R375&#45;&gt;R118 -->
<g id="edge5" class="edge">
<title>R375&#45;&gt;R118</title>
<path fill="none" stroke="black" d="M93.88,-113.16C206.48,-104 493.25,-85.92 575,-131.23 594.43,-141.99 608.21,-162.86 617.12,-180.98"/>
<polygon fill="black" stroke="black" points="614.34,-182.32 621.69,-189.96 620.71,-179.41 614.34,-182.32"/>
<text text-anchor="middle" x="339" y="-140.23" font-family="Times New Roman,serif" font-size="30.00"> &#160;&#160;633 &#160;&#160;15% &#160;&#160;2.56 mol/s &#160;&#160;&#160;1.30E&#45;02</text>
</g>
<!-- R109 -->
<g id="node7" class="node">
<title>R109</title>
<g id="a_node7"><a xlink:href="109.svg" xlink:title="R109">
<polygon fill="cornsilk" stroke="none" points="94,-75.73 0,-75.73 0,-28.73 94,-28.73 94,-75.73"/>
<text text-anchor="middle" x="47" y="-43.73" font-family="Times New Roman,serif" font-size="35.00">R109</text>
</a>
</g>
</g>
<!-- R109&#45;&gt;R118 -->
<g id="edge6" class="edge">
<title>R109&#45;&gt;R118</title>
<path fill="none" stroke="black" d="M93.83,-37.67C192.38,-9.4 427.45,41.35 575,-64.23 611.94,-90.66 624.13,-144.66 628.11,-180.14"/>
<polygon fill="black" stroke="black" points="624.71,-180.33 629.14,-189.95 631.68,-179.67 624.71,-180.33"/>
<text text-anchor="middle" x="339" y="-73.23" font-family="Times New Roman,serif" font-size="30.00"> &#160;&#160;640 &#160;&#160;0% &#160;&#160;0.00272 mol/s &#160;&#160;&#160;1.00E+00</text>
</g>
</g>
</svg>
