<?xml version="1.0" encoding="UTF-8" standalone="no"?>
<!DOCTYPE svg PUBLIC "-//W3C//DTD SVG 1.1//EN"
 "http://www.w3.org/Graphics/SVG/1.1/DTD/svg11.dtd">
<!-- Generated by graphviz version 8.0.3 (20230416.2022)
 -->
<!-- Title: G Pages: 1 -->
<svg width="640pt" height="125pt"
 viewBox="0.00 0.00 720.00 141.10" xmlns="http://www.w3.org/2000/svg" xmlns:xlink="http://www.w3.org/1999/xlink">
<g id="graph0" class="graph" transform="scale(0.487062 0.487062) rotate(0) translate(4 253.5)">
<title>G</title>
<polygon fill="white" stroke="none" points="-4,4 -4,-253.5 1310,-253.5 1310,4 -4,4"/>
<text text-anchor="middle" x="653" y="-216.7" font-family="Arial" font-size="36.00" fill="blue">Reaction Path Analysis</text>
<!-- R118 -->
<g id="node1" class="node">
<title>R118</title>
<g id="a_node1"><a xlink:href="118.svg" xlink:title="R118">
<polygon fill="cornsilk" stroke="none" points="700,-112 606,-112 606,-65 700,-65 700,-112"/>
<text text-anchor="middle" x="653" y="-80" font-family="Times New Roman,serif" font-size="35.00">R118</text>
</a>
</g>
</g>
<!-- R337 -->
<g id="node4" class="node">
<title>R337</title>
<g id="a_node4"><a xlink:href="337.svg" xlink:title="R337">
<polygon fill="cornsilk" stroke="none" points="1306,-177 1212,-177 1212,-130 1306,-130 1306,-177"/>
<text text-anchor="middle" x="1259" y="-145" font-family="Times New Roman,serif" font-size="35.00">R337</text>
</a>
</g>
</g>
<!-- R118&#45;&gt;R337 -->
<g id="edge3" class="edge">
<title>R118&#45;&gt;R337</title>
<path fill="none" stroke="black" stroke-width="2" d="M682.41,-111.83C690.54,-117.29 699.72,-122.41 709,-125.5 880.88,-182.76 1099.73,-170.5 1201.38,-160.33"/>
<polygon fill="black" stroke="black" stroke-width="2" points="1199.43,-163.74 1209.02,-159.23 1198.71,-156.78 1199.43,-163.74"/>
<text text-anchor="middle" x="956" y="-177.5" font-family="Times New Roman,serif" font-size="30.00"> &#160;&#160;565 &#160;&#160;33% &#160;&#160;2.18e&#45;15 mol/s &#160;&#160;&#160;1.00E+00</text>
</g>
<!-- R367 -->
<g id="node5" class="node">
<title>R367</title>
<g id="a_node5"><a xlink:href="367.svg" xlink:title="R367">
<polygon fill="cornsilk" stroke="none" points="1306,-112 1212,-112 1212,-65 1306,-65 1306,-112"/>
<text text-anchor="middle" x="1259" y="-80" font-family="Times New Roman,serif" font-size="35.00">R367</text>
</a>
</g>
</g>
<!-- R118&#45;&gt;R367 -->
<g id="edge4" class="edge">
<title>R118&#45;&gt;R367</title>
<path fill="none" stroke="black" stroke-width="2" d="M699.89,-88.5C808.81,-88.5 1082.67,-88.5 1201.51,-88.5"/>
<polygon fill="black" stroke="black" stroke-width="2" points="1199.18,-92 1209.18,-88.5 1199.18,-85 1199.18,-92"/>
<text text-anchor="middle" x="956" y="-97.5" font-family="Times New Roman,serif" font-size="30.00"> &#160;&#160;618 &#160;&#160;33% &#160;&#160;2.18e&#45;15 mol/s &#160;&#160;&#160;1.00E+00</text>
</g>
<!-- R375 -->
<g id="node6" class="node">
<title>R375</title>
<g id="a_node6"><a xlink:href="375.svg" xlink:title="R375">
<polygon fill="cornsilk" stroke="none" points="1306,-47 1212,-47 1212,0 1306,0 1306,-47"/>
<text text-anchor="middle" x="1259" y="-15" font-family="Times New Roman,serif" font-size="35.00">R375</text>
</a>
</g>
</g>
<!-- R118&#45;&gt;R375 -->
<g id="edge5" class="edge">
<title>R118&#45;&gt;R375</title>
<path fill="none" stroke="black" stroke-width="2" d="M682.41,-65.17C690.54,-59.71 699.72,-54.59 709,-51.5 880.88,5.76 1099.73,-6.5 1201.38,-16.67"/>
<polygon fill="black" stroke="black" stroke-width="2" points="1198.71,-20.22 1209.02,-17.77 1199.43,-13.26 1198.71,-20.22"/>
<text text-anchor="middle" x="956" y="-60.5" font-family="Times New Roman,serif" font-size="30.00"> &#160;&#160;633 &#160;&#160;33% &#160;&#160;2.18e&#45;15 mol/s &#160;&#160;&#160;1.00E+00</text>
</g>
<!-- R1 -->
<g id="node2" class="node">
<title>R1</title>
<g id="a_node2"><a xlink:href="1.svg" xlink:title="R1">
<polygon fill="cornsilk" stroke="none" points="76,-177 18,-177 18,-130 76,-130 76,-177"/>
<text text-anchor="middle" x="47" y="-145" font-family="Times New Roman,serif" font-size="35.00">R1</text>
</a>
</g>
</g>
<!-- R1&#45;&gt;R118 -->
<g id="edge1" class="edge">
<title>R1&#45;&gt;R118</title>
<path fill="none" stroke="black" stroke-width="5" d="M75.8,-157.18C158.06,-167 406.4,-188.99 597,-125.5 599.9,-124.53 602.79,-123.37 605.64,-122.06"/>
<polygon fill="black" stroke="black" stroke-width="5" points="605.54,-132.34 618.59,-114.83 596.88,-117.13 605.54,-132.34"/>
<text text-anchor="middle" x="350" y="-177.5" font-family="Times New Roman,serif" font-size="30.00"> &#160;&#160;168 &#160;&#160;99% &#160;&#160;2.18e&#45;15 mol/s &#160;&#160;&#160;1.00E+00</text>
</g>
<!-- R26 -->
<g id="node3" class="node">
<title>R26</title>
<g id="a_node3"><a xlink:href="26.svg" xlink:title="R26">
<polygon fill="cornsilk" stroke="none" points="85,-112 9,-112 9,-65 85,-65 85,-112"/>
<text text-anchor="middle" x="47" y="-80" font-family="Times New Roman,serif" font-size="35.00">R26</text>
</a>
</g>
</g>
<!-- R26&#45;&gt;R118 -->
<g id="edge2" class="edge">
<title>R26&#45;&gt;R118</title>
<path fill="none" stroke="black" stroke-width="5" d="M84.87,-88.5C184.16,-88.5 458.2,-88.5 585.46,-88.5"/>
<polygon fill="black" stroke="black" stroke-width="5" points="580.37,-97.25 600.37,-88.5 580.37,-79.75 580.37,-97.25"/>
<text text-anchor="middle" x="350" y="-97.5" font-family="Times New Roman,serif" font-size="30.00"> &#160;&#160;168 &#160;&#160;99% &#160;&#160;2.18e&#45;15 mol/s &#160;&#160;&#160;1.00E+00</text>
</g>
<!-- R109 -->
<g id="node7" class="node">
<title>R109</title>
<g id="a_node7"><a xlink:href="109.svg" xlink:title="R109">
<polygon fill="cornsilk" stroke="none" points="94,-47 0,-47 0,0 94,0 94,-47"/>
<text text-anchor="middle" x="47" y="-15" font-family="Times New Roman,serif" font-size="35.00">R109</text>
</a>
</g>
</g>
<!-- R109&#45;&gt;R118 -->
<g id="edge6" class="edge">
<title>R109&#45;&gt;R118</title>
<path fill="none" stroke="black" d="M93.98,-17.77C190.26,-7.49 418.85,7.85 597,-51.5 602.95,-53.48 608.85,-56.29 614.46,-59.49"/>
<polygon fill="black" stroke="black" points="612.25,-62.86 622.59,-65.17 615.94,-56.91 612.25,-62.86"/>
<text text-anchor="middle" x="350" y="-60.5" font-family="Times New Roman,serif" font-size="30.00"> &#160;&#160;640 &#160;&#160;0% &#160;&#160;2.2e&#45;26 mol/s &#160;&#160;&#160;1.00E+00</text>
</g>
</g>
</svg>
