<?xml version="1.0" encoding="UTF-8" standalone="no"?>
<!DOCTYPE svg PUBLIC "-//W3C//DTD SVG 1.1//EN"
 "http://www.w3.org/Graphics/SVG/1.1/DTD/svg11.dtd">
<!-- Generated by graphviz version 8.0.3 (20230416.2022)
 -->
<!-- Title: G Pages: 1 -->
<svg width="640pt" height="282pt"
 viewBox="0.00 0.00 720.00 317.03" xmlns="http://www.w3.org/2000/svg" xmlns:xlink="http://www.w3.org/1999/xlink">
<g id="graph0" class="graph" transform="scale(0.479401 0.479401) rotate(0) translate(4 583.82)">
<title>G</title>
<polygon fill="white" stroke="none" points="-4,4 -4,-583.82 1331,-583.82 1331,4 -4,4"/>
<text text-anchor="middle" x="663.5" y="-547.02" font-family="Arial" font-size="36.00" fill="blue">Reaction Path Analysis</text>
<!-- R119 -->
<g id="node1" class="node">
<title>R119</title>
<g id="a_node1"><a xlink:href="119.svg" xlink:title="R119">
<polygon fill="cornsilk" stroke="none" points="706,-278.32 612,-278.32 612,-231.32 706,-231.32 706,-278.32"/>
<text text-anchor="middle" x="659" y="-246.32" font-family="Times New Roman,serif" font-size="35.00">R119</text>
</a>
</g>
</g>
<!-- R182 -->
<g id="node4" class="node">
<title>R182</title>
<g id="a_node4"><a xlink:href="182.svg" xlink:title="R182">
<polygon fill="cornsilk" stroke="none" points="1327,-506.32 1233,-506.32 1233,-459.32 1327,-459.32 1327,-506.32"/>
<text text-anchor="middle" x="1280" y="-474.32" font-family="Times New Roman,serif" font-size="35.00">R182</text>
</a>
</g>
</g>
<!-- R119&#45;&gt;R182 -->
<g id="edge3" class="edge">
<title>R119&#45;&gt;R182</title>
<path fill="none" stroke="black" d="M659.32,-278.29C659.48,-321.62 666.76,-413.68 722.5,-456.82 799.06,-516.08 1096.24,-498.55 1222.13,-488.1"/>
<polygon fill="black" stroke="black" points="1222.39,-491.5 1232.05,-487.17 1221.79,-484.53 1222.39,-491.5"/>
<text text-anchor="middle" x="969.5" y="-507.82" font-family="Times New Roman,serif" font-size="30.00"> &#160;&#160;486 &#160;&#160;14% &#160;&#160;2.18e&#45;15 mol/s &#160;&#160;&#160;1.00E+00</text>
</g>
<!-- R218 -->
<g id="node5" class="node">
<title>R218</title>
<g id="a_node5"><a xlink:href="218.svg" xlink:title="R218">
<polygon fill="cornsilk" stroke="none" points="1327,-441.32 1233,-441.32 1233,-394.32 1327,-394.32 1327,-441.32"/>
<text text-anchor="middle" x="1280" y="-409.32" font-family="Times New Roman,serif" font-size="35.00">R218</text>
</a>
</g>
</g>
<!-- R119&#45;&gt;R218 -->
<g id="edge4" class="edge">
<title>R119&#45;&gt;R218</title>
<path fill="none" stroke="black" d="M662.8,-278.11C668.09,-310.69 682.85,-368.89 722.5,-395.82 763.1,-423.39 1089.37,-421.07 1222.62,-418.92"/>
<polygon fill="black" stroke="black" points="1222.45,-422.41 1232.39,-418.74 1222.33,-415.41 1222.45,-422.41"/>
<text text-anchor="middle" x="969.5" y="-428.82" font-family="Times New Roman,serif" font-size="30.00"> &#160;&#160;566 &#160;&#160;14% &#160;&#160;2.18e&#45;15 mol/s &#160;&#160;&#160;1.00E+00</text>
</g>
<!-- R316 -->
<g id="node6" class="node">
<title>R316</title>
<g id="a_node6"><a xlink:href="316.svg" xlink:title="R316">
<polygon fill="cornsilk" stroke="none" points="1327,-376.32 1233,-376.32 1233,-329.32 1327,-329.32 1327,-376.32"/>
<text text-anchor="middle" x="1280" y="-344.32" font-family="Times New Roman,serif" font-size="35.00">R316</text>
</a>
</g>
</g>
<!-- R119&#45;&gt;R316 -->
<g id="edge5" class="edge">
<title>R119&#45;&gt;R316</title>
<path fill="none" stroke="black" d="M673.73,-278.16C684.68,-294.39 701.63,-314.84 722.5,-324.82 809.54,-366.45 1098.83,-360.2 1222.33,-355.41"/>
<polygon fill="black" stroke="black" points="1222.19,-358.88 1232.05,-354.99 1221.91,-351.89 1222.19,-358.88"/>
<text text-anchor="middle" x="969.5" y="-367.82" font-family="Times New Roman,serif" font-size="30.00"> &#160;&#160;567 &#160;&#160;14% &#160;&#160;2.18e&#45;15 mol/s &#160;&#160;&#160;1.00E+00</text>
</g>
<!-- R238 -->
<g id="node7" class="node">
<title>R238</title>
<g id="a_node7"><a xlink:href="238.svg" xlink:title="R238">
<polygon fill="cornsilk" stroke="none" points="1327,-311.32 1233,-311.32 1233,-264.32 1327,-264.32 1327,-311.32"/>
<text text-anchor="middle" x="1280" y="-279.32" font-family="Times New Roman,serif" font-size="35.00">R238</text>
</a>
</g>
</g>
<!-- R119&#45;&gt;R238 -->
<g id="edge6" class="edge">
<title>R119&#45;&gt;R238</title>
<path fill="none" stroke="black" d="M705.98,-263.63C711.53,-264.48 717.13,-265.24 722.5,-265.82 904.35,-285.33 1121.3,-288.02 1222.19,-288.09"/>
<polygon fill="black" stroke="black" points="1222.04,-291.59 1232.04,-288.09 1222.04,-284.59 1222.04,-291.59"/>
<text text-anchor="middle" x="969.5" y="-296.82" font-family="Times New Roman,serif" font-size="30.00"> &#160;&#160;619 &#160;&#160;14% &#160;&#160;2.18e&#45;15 mol/s &#160;&#160;&#160;1.00E+00</text>
</g>
<!-- R325 -->
<g id="node8" class="node">
<title>R325</title>
<g id="a_node8"><a xlink:href="325.svg" xlink:title="R325">
<polygon fill="cornsilk" stroke="none" points="1327,-246.32 1233,-246.32 1233,-199.32 1327,-199.32 1327,-246.32"/>
<text text-anchor="middle" x="1280" y="-214.32" font-family="Times New Roman,serif" font-size="35.00">R325</text>
</a>
</g>
</g>
<!-- R119&#45;&gt;R325 -->
<g id="edge7" class="edge">
<title>R119&#45;&gt;R325</title>
<path fill="none" stroke="black" d="M705.97,-236.79C711.47,-235.18 717.07,-233.8 722.5,-232.82 902.62,-200.38 1120.83,-210.46 1222.18,-217.91"/>
<polygon fill="black" stroke="black" points="1221.84,-221.47 1232.07,-218.73 1222.36,-214.49 1221.84,-221.47"/>
<text text-anchor="middle" x="969.5" y="-241.82" font-family="Times New Roman,serif" font-size="30.00"> &#160;&#160;620 &#160;&#160;14% &#160;&#160;2.18e&#45;15 mol/s &#160;&#160;&#160;1.00E+00</text>
</g>
<!-- R310 -->
<g id="node9" class="node">
<title>R310</title>
<g id="a_node9"><a xlink:href="310.svg" xlink:title="R310">
<polygon fill="cornsilk" stroke="none" points="1327,-181.32 1233,-181.32 1233,-134.32 1327,-134.32 1327,-181.32"/>
<text text-anchor="middle" x="1280" y="-149.32" font-family="Times New Roman,serif" font-size="35.00">R310</text>
</a>
</g>
</g>
<!-- R119&#45;&gt;R310 -->
<g id="edge8" class="edge">
<title>R119&#45;&gt;R310</title>
<path fill="none" stroke="black" d="M670.65,-231.64C680.92,-212.33 698.44,-186.07 722.5,-173.82 808.5,-130 1099.03,-144.82 1222.61,-153.45"/>
<polygon fill="black" stroke="black" points="1222.11,-156.99 1232.33,-154.21 1222.61,-150.01 1222.11,-156.99"/>
<text text-anchor="middle" x="969.5" y="-182.82" font-family="Times New Roman,serif" font-size="30.00"> &#160;&#160;634 &#160;&#160;14% &#160;&#160;2.18e&#45;15 mol/s &#160;&#160;&#160;1.00E+00</text>
</g>
<!-- R317 -->
<g id="node10" class="node">
<title>R317</title>
<g id="a_node10"><a xlink:href="317.svg" xlink:title="R317">
<polygon fill="cornsilk" stroke="none" points="1327,-116.32 1233,-116.32 1233,-69.32 1327,-69.32 1327,-116.32"/>
<text text-anchor="middle" x="1280" y="-84.32" font-family="Times New Roman,serif" font-size="35.00">R317</text>
</a>
</g>
</g>
<!-- R119&#45;&gt;R317 -->
<g id="edge9" class="edge">
<title>R119&#45;&gt;R317</title>
<path fill="none" stroke="black" d="M662.31,-231.35C667.03,-197.52 681.13,-135.99 722.5,-107.82 802.37,-53.43 1097.01,-74.86 1222.16,-86.84"/>
<polygon fill="black" stroke="black" points="1221.73,-90.41 1232.02,-87.9 1222.41,-83.45 1221.73,-90.41"/>
<text text-anchor="middle" x="969.5" y="-116.82" font-family="Times New Roman,serif" font-size="30.00"> &#160;&#160;635 &#160;&#160;14% &#160;&#160;2.18e&#45;15 mol/s &#160;&#160;&#160;1.00E+00</text>
</g>
<!-- R44 -->
<g id="node11" class="node">
<title>R44</title>
<g id="a_node11"><a xlink:href="44.svg" xlink:title="R44">
<polygon fill="cornsilk" stroke="none" points="1318,-51.32 1242,-51.32 1242,-4.32 1318,-4.32 1318,-51.32"/>
<text text-anchor="middle" x="1280" y="-19.32" font-family="Times New Roman,serif" font-size="35.00">R44</text>
</a>
</g>
</g>
<!-- R119&#45;&gt;R44 -->
<g id="edge10" class="edge">
<title>R119&#45;&gt;R44</title>
<path fill="none" stroke="black" d="M663.16,-231.42C670.62,-180 691.11,-59.86 722.5,-35.82 801.26,24.5 1111.71,-6.8 1231.5,-21.55"/>
<polygon fill="black" stroke="black" points="1230.79,-25.11 1241.15,-22.88 1231.66,-18.17 1230.79,-25.11"/>
<text text-anchor="middle" x="969.5" y="-44.82" font-family="Times New Roman,serif" font-size="30.00"> &#160;&#160;649 &#160;&#160;0% &#160;&#160;2.2e&#45;26 mol/s &#160;&#160;&#160;1.00E+00</text>
</g>
<!-- R26 -->
<g id="node2" class="node">
<title>R26</title>
<g id="a_node2"><a xlink:href="26.svg" xlink:title="R26">
<polygon fill="cornsilk" stroke="none" points="76,-311.32 0,-311.32 0,-264.32 76,-264.32 76,-311.32"/>
<text text-anchor="middle" x="38" y="-279.32" font-family="Times New Roman,serif" font-size="35.00">R26</text>
</a>
</g>
</g>
<!-- R26&#45;&gt;R119 -->
<g id="edge1" class="edge">
<title>R26&#45;&gt;R119</title>
<path fill="none" stroke="black" stroke-width="6" d="M75.78,-288.39C162.98,-289.33 389.5,-289.31 591.46,-266.93"/>
<polygon fill="black" stroke="black" stroke-width="6" points="587.5,-277.27 606.17,-264.55 585.1,-256.41 587.5,-277.27"/>
<text text-anchor="middle" x="348.5" y="-296.82" font-family="Times New Roman,serif" font-size="30.00"> &#160;&#160;169 &#160;&#160;100% &#160;&#160;2.18e&#45;15 mol/s &#160;&#160;&#160;1.00E+00</text>
</g>
<!-- R1 -->
<g id="node3" class="node">
<title>R1</title>
<g id="a_node3"><a xlink:href="1.svg" xlink:title="R1">
<polygon fill="cornsilk" stroke="none" points="67,-246.32 9,-246.32 9,-199.32 67,-199.32 67,-246.32"/>
<text text-anchor="middle" x="38" y="-214.32" font-family="Times New Roman,serif" font-size="35.00">R1</text>
</a>
</g>
</g>
<!-- R1&#45;&gt;R119 -->
<g id="edge2" class="edge">
<title>R1&#45;&gt;R119</title>
<path fill="none" stroke="black" stroke-width="6" d="M66.97,-219.79C147.17,-211.83 384.92,-193.29 591.62,-231.11"/>
<polygon fill="black" stroke="black" stroke-width="6" points="584.53,-240.6 606.16,-234.08 588.52,-219.98 584.53,-240.6"/>
<text text-anchor="middle" x="348.5" y="-241.82" font-family="Times New Roman,serif" font-size="30.00"> &#160;&#160;169 &#160;&#160;100% &#160;&#160;2.18e&#45;15 mol/s &#160;&#160;&#160;1.00E+00</text>
</g>
</g>
</svg>
