<?xml version="1.0" encoding="UTF-8" standalone="no"?>
<!DOCTYPE svg PUBLIC "-//W3C//DTD SVG 1.1//EN"
 "http://www.w3.org/Graphics/SVG/1.1/DTD/svg11.dtd">
<!-- Generated by graphviz version 8.0.3 (20230416.2022)
 -->
<!-- Title: G Pages: 1 -->
<svg width="640pt" height="293pt"
 viewBox="0.00 0.00 720.00 329.76" xmlns="http://www.w3.org/2000/svg" xmlns:xlink="http://www.w3.org/1999/xlink">
<g id="graph0" class="graph" transform="scale(0.501961 0.501961) rotate(0) translate(4 579.95)">
<title>G</title>
<polygon fill="white" stroke="none" points="-4,4 -4,-579.95 1271,-579.95 1271,4 -4,4"/>
<text text-anchor="middle" x="633.5" y="-543.15" font-family="Arial" font-size="36.00" fill="blue">Reaction Path Analysis</text>
<!-- R119 -->
<g id="node1" class="node">
<title>R119</title>
<g id="a_node1"><a xlink:href="119.svg" xlink:title="R119">
<polygon fill="cornsilk" stroke="none" points="676,-276.45 582,-276.45 582,-229.45 676,-229.45 676,-276.45"/>
<text text-anchor="middle" x="629" y="-244.45" font-family="Times New Roman,serif" font-size="35.00">R119</text>
</a>
</g>
</g>
<!-- R182 -->
<g id="node4" class="node">
<title>R182</title>
<g id="a_node4"><a xlink:href="182.svg" xlink:title="R182">
<polygon fill="cornsilk" stroke="none" points="1267,-504.45 1173,-504.45 1173,-457.45 1267,-457.45 1267,-504.45"/>
<text text-anchor="middle" x="1220" y="-472.45" font-family="Times New Roman,serif" font-size="35.00">R182</text>
</a>
</g>
</g>
<!-- R119&#45;&gt;R182 -->
<g id="edge3" class="edge">
<title>R119&#45;&gt;R182</title>
<path fill="none" stroke="black" d="M633.36,-276.15C640.82,-324.14 660.35,-431.68 688.5,-453.95 760.39,-510.81 1040.53,-495.64 1162.14,-486.03"/>
<polygon fill="black" stroke="black" points="1162.37,-489.44 1172.05,-485.14 1161.8,-482.46 1162.37,-489.44"/>
<text text-anchor="middle" x="924.5" y="-503.95" font-family="Times New Roman,serif" font-size="30.00"> &#160;&#160;486 &#160;&#160;15% &#160;&#160;0.0342 mol/s &#160;&#160;&#160;1.00E+00</text>
</g>
<!-- R218 -->
<g id="node5" class="node">
<title>R218</title>
<g id="a_node5"><a xlink:href="218.svg" xlink:title="R218">
<polygon fill="cornsilk" stroke="none" points="1267,-439.45 1173,-439.45 1173,-392.45 1267,-392.45 1267,-439.45"/>
<text text-anchor="middle" x="1220" y="-407.45" font-family="Times New Roman,serif" font-size="35.00">R218</text>
</a>
</g>
</g>
<!-- R119&#45;&gt;R218 -->
<g id="edge4" class="edge">
<title>R119&#45;&gt;R218</title>
<path fill="none" stroke="black" d="M632.24,-276.28C636.71,-308.59 649.94,-366.04 688.5,-392.95 726.61,-419.54 1033.76,-418.51 1162.52,-416.88"/>
<polygon fill="black" stroke="black" points="1162.36,-420.36 1172.31,-416.73 1162.27,-413.37 1162.36,-420.36"/>
<text text-anchor="middle" x="924.5" y="-425.95" font-family="Times New Roman,serif" font-size="30.00"> &#160;&#160;566 &#160;&#160;15% &#160;&#160;0.0342 mol/s &#160;&#160;&#160;1.00E+00</text>
</g>
<!-- R316 -->
<g id="node6" class="node">
<title>R316</title>
<g id="a_node6"><a xlink:href="316.svg" xlink:title="R316">
<polygon fill="cornsilk" stroke="none" points="1267,-374.45 1173,-374.45 1173,-327.45 1267,-327.45 1267,-374.45"/>
<text text-anchor="middle" x="1220" y="-342.45" font-family="Times New Roman,serif" font-size="35.00">R316</text>
</a>
</g>
</g>
<!-- R119&#45;&gt;R316 -->
<g id="edge5" class="edge">
<title>R119&#45;&gt;R316</title>
<path fill="none" stroke="black" d="M642.5,-276.25C652.59,-292.45 668.38,-312.89 688.5,-322.95 770.19,-363.8 1043.04,-358.2 1162.34,-353.57"/>
<polygon fill="black" stroke="black" points="1162.21,-357.04 1172.06,-353.14 1161.92,-350.05 1162.21,-357.04"/>
<text text-anchor="middle" x="924.5" y="-364.95" font-family="Times New Roman,serif" font-size="30.00"> &#160;&#160;567 &#160;&#160;15% &#160;&#160;0.0342 mol/s &#160;&#160;&#160;1.00E+00</text>
</g>
<!-- R238 -->
<g id="node7" class="node">
<title>R238</title>
<g id="a_node7"><a xlink:href="238.svg" xlink:title="R238">
<polygon fill="cornsilk" stroke="none" points="1267,-309.45 1173,-309.45 1173,-262.45 1267,-262.45 1267,-309.45"/>
<text text-anchor="middle" x="1220" y="-277.45" font-family="Times New Roman,serif" font-size="35.00">R238</text>
</a>
</g>
</g>
<!-- R119&#45;&gt;R238 -->
<g id="edge6" class="edge">
<title>R119&#45;&gt;R238</title>
<path fill="none" stroke="black" d="M675.89,-262.23C680.14,-262.89 684.39,-263.48 688.5,-263.95 860.24,-283.55 1065.03,-286.24 1162.3,-286.28"/>
<polygon fill="black" stroke="black" points="1162.06,-289.78 1172.06,-286.27 1162.06,-282.78 1162.06,-289.78"/>
<text text-anchor="middle" x="924.5" y="-294.95" font-family="Times New Roman,serif" font-size="30.00"> &#160;&#160;619 &#160;&#160;14% &#160;&#160;0.0341 mol/s &#160;&#160;&#160;9.96E&#45;01</text>
</g>
<!-- R325 -->
<g id="node8" class="node">
<title>R325</title>
<g id="a_node8"><a xlink:href="325.svg" xlink:title="R325">
<polygon fill="cornsilk" stroke="none" points="1267,-244.45 1173,-244.45 1173,-197.45 1267,-197.45 1267,-244.45"/>
<text text-anchor="middle" x="1220" y="-212.45" font-family="Times New Roman,serif" font-size="35.00">R325</text>
</a>
</g>
</g>
<!-- R119&#45;&gt;R325 -->
<g id="edge7" class="edge">
<title>R119&#45;&gt;R325</title>
<path fill="none" stroke="black" d="M675.88,-234.04C680.1,-232.81 684.34,-231.75 688.5,-230.95 858.37,-198.41 1064.44,-208.22 1162.23,-215.77"/>
<polygon fill="black" stroke="black" points="1161.8,-219.32 1172.04,-216.62 1162.35,-212.34 1161.8,-219.32"/>
<text text-anchor="middle" x="924.5" y="-239.95" font-family="Times New Roman,serif" font-size="30.00"> &#160;&#160;620 &#160;&#160;15% &#160;&#160;0.0342 mol/s &#160;&#160;&#160;1.00E+00</text>
</g>
<!-- R310 -->
<g id="node9" class="node">
<title>R310</title>
<g id="a_node9"><a xlink:href="310.svg" xlink:title="R310">
<polygon fill="cornsilk" stroke="none" points="1267,-179.45 1173,-179.45 1173,-132.45 1267,-132.45 1267,-179.45"/>
<text text-anchor="middle" x="1220" y="-147.45" font-family="Times New Roman,serif" font-size="35.00">R310</text>
</a>
</g>
</g>
<!-- R119&#45;&gt;R310 -->
<g id="edge8" class="edge">
<title>R119&#45;&gt;R310</title>
<path fill="none" stroke="black" d="M639.59,-229.82C648.95,-210.54 665.21,-184.31 688.5,-171.95 769.21,-129.13 1043.22,-143.05 1162.62,-151.5"/>
<polygon fill="black" stroke="black" points="1162.11,-155.04 1172.33,-152.27 1162.61,-148.06 1162.11,-155.04"/>
<text text-anchor="middle" x="924.5" y="-180.95" font-family="Times New Roman,serif" font-size="30.00"> &#160;&#160;634 &#160;&#160;8% &#160;&#160;0.0197 mol/s &#160;&#160;&#160;7.02E&#45;01</text>
</g>
<!-- R317 -->
<g id="node10" class="node">
<title>R317</title>
<g id="a_node10"><a xlink:href="317.svg" xlink:title="R317">
<polygon fill="cornsilk" stroke="none" points="1267,-114.45 1173,-114.45 1173,-67.45 1267,-67.45 1267,-114.45"/>
<text text-anchor="middle" x="1220" y="-82.45" font-family="Times New Roman,serif" font-size="35.00">R317</text>
</a>
</g>
</g>
<!-- R119&#45;&gt;R317 -->
<g id="edge9" class="edge">
<title>R119&#45;&gt;R317</title>
<path fill="none" stroke="black" d="M631.66,-229.55C635.45,-195.78 647.87,-134.36 688.5,-105.95 763.47,-53.54 1041.26,-73.4 1162.17,-84.96"/>
<polygon fill="black" stroke="black" points="1161.73,-88.53 1172.02,-86.01 1162.41,-81.56 1161.73,-88.53"/>
<text text-anchor="middle" x="924.5" y="-114.95" font-family="Times New Roman,serif" font-size="30.00"> &#160;&#160;635 &#160;&#160;15% &#160;&#160;0.0342 mol/s &#160;&#160;&#160;1.00E+00</text>
</g>
<!-- R44 -->
<g id="node11" class="node">
<title>R44</title>
<g id="a_node11"><a xlink:href="44.svg" xlink:title="R44">
<polygon fill="cornsilk" stroke="none" points="1258,-49.45 1182,-49.45 1182,-2.45 1258,-2.45 1258,-49.45"/>
<text text-anchor="middle" x="1220" y="-17.45" font-family="Times New Roman,serif" font-size="35.00">R44</text>
</a>
</g>
</g>
<!-- R119&#45;&gt;R44 -->
<g id="edge10" class="edge">
<title>R119&#45;&gt;R44</title>
<path fill="none" stroke="black" d="M632.74,-229.68C639.28,-178.55 657.61,-59.06 688.5,-34.95 762.62,22.91 1055.93,-5.79 1171.67,-19.79"/>
<polygon fill="black" stroke="black" points="1170.96,-23.35 1181.31,-21.09 1171.81,-16.4 1170.96,-23.35"/>
<text text-anchor="middle" x="924.5" y="-43.95" font-family="Times New Roman,serif" font-size="30.00"> &#160;&#160;649 &#160;&#160;1% &#160;&#160;0.00272 mol/s &#160;&#160;&#160;1.00E+00</text>
</g>
<!-- R26 -->
<g id="node2" class="node">
<title>R26</title>
<g id="a_node2"><a xlink:href="26.svg" xlink:title="R26">
<polygon fill="cornsilk" stroke="none" points="76,-309.45 0,-309.45 0,-262.45 76,-262.45 76,-309.45"/>
<text text-anchor="middle" x="38" y="-277.45" font-family="Times New Roman,serif" font-size="35.00">R26</text>
</a>
</g>
</g>
<!-- R26&#45;&gt;R119 -->
<g id="edge1" class="edge">
<title>R26&#45;&gt;R119</title>
<path fill="none" stroke="black" stroke-width="6" d="M75.74,-286.41C159.52,-287.03 371.51,-286.28 561.5,-265.07"/>
<polygon fill="black" stroke="black" stroke-width="6" points="557.51,-275.41 576.17,-262.67 555.09,-254.55 557.51,-275.41"/>
<text text-anchor="middle" x="333.5" y="-294.95" font-family="Times New Roman,serif" font-size="30.00"> &#160;&#160;169 &#160;&#160;100% &#160;&#160;0.0341 mol/s &#160;&#160;&#160;9.96E&#45;01</text>
</g>
<!-- R1 -->
<g id="node3" class="node">
<title>R1</title>
<g id="a_node3"><a xlink:href="1.svg" xlink:title="R1">
<polygon fill="cornsilk" stroke="none" points="67,-244.45 9,-244.45 9,-197.45 67,-197.45 67,-244.45"/>
<text text-anchor="middle" x="38" y="-212.45" font-family="Times New Roman,serif" font-size="35.00">R1</text>
</a>
</g>
</g>
<!-- R1&#45;&gt;R119 -->
<g id="edge2" class="edge">
<title>R1&#45;&gt;R119</title>
<path fill="none" stroke="black" stroke-width="6" d="M66.89,-217.98C144.04,-210.48 366.87,-193.68 561.6,-229.24"/>
<polygon fill="black" stroke="black" stroke-width="6" points="554.53,-238.73 576.16,-232.21 558.52,-218.11 554.53,-238.73"/>
<text text-anchor="middle" x="333.5" y="-239.95" font-family="Times New Roman,serif" font-size="30.00"> &#160;&#160;169 &#160;&#160;100% &#160;&#160;0.0341 mol/s &#160;&#160;&#160;9.96E&#45;01</text>
</g>
</g>
</svg>
