<?xml version="1.0" encoding="UTF-8" standalone="no"?>
<!DOCTYPE svg PUBLIC "-//W3C//DTD SVG 1.1//EN"
 "http://www.w3.org/Graphics/SVG/1.1/DTD/svg11.dtd">
<!-- Generated by graphviz version 8.0.3 (20230416.2022)
 -->
<!-- Title: G Pages: 1 -->
<svg width="640pt" height="220pt"
 viewBox="0.00 0.00 720.00 247.16" xmlns="http://www.w3.org/2000/svg" xmlns:xlink="http://www.w3.org/1999/xlink">
<g id="graph0" class="graph" transform="scale(0.537364 0.537364) rotate(0) translate(4 404.85)">
<title>G</title>
<polygon fill="white" stroke="none" points="-4,4 -4,-404.85 1187,-404.85 1187,4 -4,4"/>
<text text-anchor="middle" x="591.5" y="-368.05" font-family="Arial" font-size="36.00" fill="blue">Reaction Path Analysis</text>
<!-- R12 -->
<g id="node1" class="node">
<title>R12</title>
<g id="a_node1"><a xlink:href="12.svg" xlink:title="R12">
<polygon fill="cornsilk" stroke="none" points="625,-191.35 549,-191.35 549,-144.35 625,-144.35 625,-191.35"/>
<text text-anchor="middle" x="587" y="-159.35" font-family="Times New Roman,serif" font-size="35.00">R12</text>
</a>
</g>
</g>
<!-- R25 -->
<g id="node5" class="node">
<title>R25</title>
<g id="a_node5"><a xlink:href="25.svg" xlink:title="R25">
<polygon fill="cornsilk" stroke="none" points="1183,-191.35 1107,-191.35 1107,-144.35 1183,-144.35 1183,-191.35"/>
<text text-anchor="middle" x="1145" y="-159.35" font-family="Times New Roman,serif" font-size="35.00">R25</text>
</a>
</g>
</g>
<!-- R12&#45;&gt;R25 -->
<g id="edge6" class="edge">
<title>R12&#45;&gt;R25</title>
<path fill="none" stroke="black" stroke-width="6" d="M624.91,-167.85C719.62,-167.85 971.78,-167.85 1086.15,-167.85"/>
<polygon fill="black" stroke="black" stroke-width="6" points="1081.1,-178.35 1101.1,-167.85 1081.1,-157.35 1081.1,-178.35"/>
<text text-anchor="middle" x="866" y="-176.85" font-family="Times New Roman,serif" font-size="30.00"> &#160;&#160;30 &#160;&#160;100% &#160;&#160;0.0341 mol/s &#160;&#160;&#160;9.98E&#45;01</text>
</g>
<!-- R3 -->
<g id="node2" class="node">
<title>R3</title>
<g id="a_node2"><a xlink:href="3.svg" xlink:title="R3">
<polygon fill="cornsilk" stroke="none" points="58,-247.35 0,-247.35 0,-200.35 58,-200.35 58,-247.35"/>
<text text-anchor="middle" x="29" y="-215.35" font-family="Times New Roman,serif" font-size="35.00">R3</text>
</a>
</g>
</g>
<!-- R3&#45;&gt;R12 -->
<g id="edge1" class="edge">
<title>R3&#45;&gt;R12</title>
<path fill="none" stroke="black" stroke-width="3" d="M57.78,-247.16C64.5,-251.55 71.93,-255.5 79.5,-257.85 273.48,-318.06 361.66,-361.23 536.5,-257.85 557.06,-245.7 569.65,-221.63 576.99,-201.44"/>
<polygon fill="black" stroke="black" stroke-width="3" points="579.62,-205.61 579.45,-195.02 572.98,-203.4 579.62,-205.61"/>
<text text-anchor="middle" x="308" y="-328.85" font-family="Times New Roman,serif" font-size="30.00"> &#160;&#160;12 &#160;&#160;50% &#160;&#160;0.0342 mol/s &#160;&#160;&#160;1.00E+00</text>
</g>
<!-- R3&#45;&gt;R12 -->
<g id="edge2" class="edge">
<title>R3&#45;&gt;R12</title>
<path fill="none" stroke="black" stroke-width="3" d="M57.75,-222.08C64.84,-221.65 72.45,-221.21 79.5,-220.85 130.26,-218.26 488.29,-217.92 536.5,-201.85 540.5,-200.52 544.48,-198.76 548.33,-196.73"/>
<polygon fill="black" stroke="black" stroke-width="3" points="547.77,-201.36 554.62,-193.27 544.22,-195.33 547.77,-201.36"/>
<text text-anchor="middle" x="308" y="-229.85" font-family="Times New Roman,serif" font-size="30.00"> &#160;&#160;12 &#160;&#160;50% &#160;&#160;0.0342 mol/s &#160;&#160;&#160;1.00E+00</text>
</g>
<!-- R3&#45;&gt;R12 -->
<g id="edge3" class="edge">
<title>R3&#45;&gt;R12</title>
<path fill="none" stroke="black" stroke-width="3" d="M42.72,-200.38C51.23,-187.3 63.75,-172.2 79.5,-164.85 125.52,-143.39 485.75,-163.32 536.5,-164.85 537.15,-164.87 537.8,-164.89 538.45,-164.91"/>
<polygon fill="black" stroke="black" stroke-width="3" points="535.11,-168.45 545.25,-165.38 535.41,-161.45 535.11,-168.45"/>
<text text-anchor="middle" x="308" y="-173.85" font-family="Times New Roman,serif" font-size="30.00"> &#160;&#160;12 &#160;&#160;50% &#160;&#160;0.0342 mol/s &#160;&#160;&#160;1.00E+00</text>
</g>
<!-- R1 -->
<g id="node3" class="node">
<title>R1</title>
<g id="a_node3"><a xlink:href="1.svg" xlink:title="R1">
<polygon fill="cornsilk" stroke="none" points="58,-135.35 0,-135.35 0,-88.35 58,-88.35 58,-135.35"/>
<text text-anchor="middle" x="29" y="-103.35" font-family="Times New Roman,serif" font-size="35.00">R1</text>
</a>
</g>
</g>
<!-- R1&#45;&gt;R12 -->
<g id="edge4" class="edge">
<title>R1&#45;&gt;R12</title>
<path fill="none" stroke="black" stroke-width="3" d="M57.79,-109.45C150.68,-101.84 449.37,-80.9 536.5,-117.85 546.37,-122.04 555.29,-129.23 562.75,-136.87"/>
<polygon fill="black" stroke="black" stroke-width="3" points="557.4,-136.5 566.7,-141.57 562.6,-131.81 557.4,-136.5"/>
<text text-anchor="middle" x="308" y="-126.85" font-family="Times New Roman,serif" font-size="30.00"> &#160;&#160;25 &#160;&#160;50% &#160;&#160;0.0342 mol/s &#160;&#160;&#160;1.00E+00</text>
</g>
<!-- R8 -->
<g id="node4" class="node">
<title>R8</title>
<g id="a_node4"><a xlink:href="8.svg" xlink:title="R8">
<polygon fill="cornsilk" stroke="none" points="58,-70.35 0,-70.35 0,-23.35 58,-23.35 58,-70.35"/>
<text text-anchor="middle" x="29" y="-38.35" font-family="Times New Roman,serif" font-size="35.00">R8</text>
</a>
</g>
</g>
<!-- R8&#45;&gt;R12 -->
<g id="edge5" class="edge">
<title>R8&#45;&gt;R12</title>
<path fill="none" stroke="black" stroke-width="3" d="M57.97,-38.09C139.72,-14.31 382.23,43.13 536.5,-58.85 561.72,-75.52 574.26,-108.45 580.39,-133.77"/>
<polygon fill="black" stroke="black" stroke-width="3" points="577.16,-131.4 582.71,-140.43 584,-129.91 577.16,-131.4"/>
<text text-anchor="middle" x="308" y="-67.85" font-family="Times New Roman,serif" font-size="30.00"> &#160;&#160;25 &#160;&#160;50% &#160;&#160;0.0342 mol/s &#160;&#160;&#160;1.00E+00</text>
</g>
</g>
</svg>
