<?xml version="1.0" encoding="UTF-8" standalone="no"?>
<!DOCTYPE svg PUBLIC "-//W3C//DTD SVG 1.1//EN"
 "http://www.w3.org/Graphics/SVG/1.1/DTD/svg11.dtd">
<!-- Generated by graphviz version 8.0.3 (20230416.2022)
 -->
<!-- Title: G Pages: 1 -->
<svg width="640pt" height="214pt"
 viewBox="0.00 0.00 720.00 241.30" xmlns="http://www.w3.org/2000/svg" xmlns:xlink="http://www.w3.org/1999/xlink">
<g id="graph0" class="graph" transform="scale(0.498442 0.498442) rotate(0) translate(4 426.32)">
<title>G</title>
<polygon fill="white" stroke="none" points="-4,4 -4,-426.32 1280,-426.32 1280,4 -4,4"/>
<text text-anchor="middle" x="638" y="-389.52" font-family="Arial" font-size="36.00" fill="blue">Reaction Path Analysis</text>
<!-- R121 -->
<g id="node1" class="node">
<title>R121</title>
<g id="a_node1"><a xlink:href="121.svg" xlink:title="R121">
<polygon fill="cornsilk" stroke="none" points="685,-199.82 591,-199.82 591,-152.82 685,-152.82 685,-199.82"/>
<text text-anchor="middle" x="638" y="-167.82" font-family="Times New Roman,serif" font-size="35.00">R121</text>
</a>
</g>
</g>
<!-- R339 -->
<g id="node7" class="node">
<title>R339</title>
<g id="a_node7"><a xlink:href="339.svg" xlink:title="R339">
<polygon fill="cornsilk" stroke="none" points="1276,-199.82 1182,-199.82 1182,-152.82 1276,-152.82 1276,-199.82"/>
<text text-anchor="middle" x="1229" y="-167.82" font-family="Times New Roman,serif" font-size="35.00">R339</text>
</a>
</g>
</g>
<!-- R121&#45;&gt;R339 -->
<g id="edge6" class="edge">
<title>R121&#45;&gt;R339</title>
<path fill="none" stroke="black" stroke-width="6" d="M684.73,-176.32C788.16,-176.32 1040.47,-176.32 1161.33,-176.32"/>
<polygon fill="black" stroke="black" stroke-width="6" points="1156.3,-186.82 1176.3,-176.32 1156.3,-165.82 1156.3,-186.82"/>
<text text-anchor="middle" x="933.5" y="-185.32" font-family="Times New Roman,serif" font-size="30.00"> &#160;&#160;570 &#160;&#160;100% &#160;&#160;0.0194 mol/s &#160;&#160;&#160;6.98E&#45;01</text>
</g>
<!-- R1 -->
<g id="node2" class="node">
<title>R1</title>
<g id="a_node2"><a xlink:href="1.svg" xlink:title="R1">
<polygon fill="cornsilk" stroke="none" points="76,-329.82 18,-329.82 18,-282.82 76,-282.82 76,-329.82"/>
<text text-anchor="middle" x="47" y="-297.82" font-family="Times New Roman,serif" font-size="35.00">R1</text>
</a>
</g>
</g>
<!-- R1&#45;&gt;R121 -->
<g id="edge1" class="edge">
<title>R1&#45;&gt;R121</title>
<path fill="none" stroke="black" stroke-width="3" d="M75.75,-313.41C159.24,-333.08 412.54,-380.39 578.5,-278.32 603.23,-263.12 618.54,-233.32 627.26,-209.85"/>
<polygon fill="black" stroke="black" stroke-width="3" points="629.85,-214.18 629.81,-203.58 623.23,-211.89 629.85,-214.18"/>
<text text-anchor="middle" x="342.5" y="-350.32" font-family="Times New Roman,serif" font-size="30.00"> &#160;&#160;172 &#160;&#160;48% &#160;&#160;0.0342 mol/s &#160;&#160;&#160;1.00E+00</text>
</g>
<!-- R28 -->
<g id="node3" class="node">
<title>R28</title>
<g id="a_node3"><a xlink:href="28.svg" xlink:title="R28">
<polygon fill="cornsilk" stroke="none" points="85,-264.82 9,-264.82 9,-217.82 85,-217.82 85,-264.82"/>
<text text-anchor="middle" x="47" y="-232.82" font-family="Times New Roman,serif" font-size="35.00">R28</text>
</a>
</g>
</g>
<!-- R28&#45;&gt;R121 -->
<g id="edge2" class="edge">
<title>R28&#45;&gt;R121</title>
<path fill="none" stroke="black" stroke-width="3" d="M84.66,-241.79C189.07,-242.73 486.34,-242.68 578.5,-213.32 584.89,-211.29 591.27,-208.39 597.34,-205.09"/>
<polygon fill="black" stroke="black" stroke-width="3" points="596.75,-209.73 603.59,-201.65 593.2,-203.7 596.75,-209.73"/>
<text text-anchor="middle" x="342.5" y="-250.32" font-family="Times New Roman,serif" font-size="30.00"> &#160;&#160;172 &#160;&#160;48% &#160;&#160;0.0342 mol/s &#160;&#160;&#160;1.00E+00</text>
</g>
<!-- R90 -->
<g id="node4" class="node">
<title>R90</title>
<g id="a_node4"><a xlink:href="90.svg" xlink:title="R90">
<polygon fill="cornsilk" stroke="none" points="85,-199.82 9,-199.82 9,-152.82 85,-152.82 85,-199.82"/>
<text text-anchor="middle" x="47" y="-167.82" font-family="Times New Roman,serif" font-size="35.00">R90</text>
</a>
</g>
</g>
<!-- R90&#45;&gt;R121 -->
<g id="edge3" class="edge">
<title>R90&#45;&gt;R121</title>
<path fill="none" stroke="black" d="M84.84,-176.32C184.61,-176.32 460.52,-176.32 580.29,-176.32"/>
<polygon fill="black" stroke="black" points="580.04,-179.82 590.04,-176.32 580.04,-172.82 580.04,-179.82"/>
<text text-anchor="middle" x="342.5" y="-185.32" font-family="Times New Roman,serif" font-size="30.00"> &#160;&#160;479 &#160;&#160;3% &#160;&#160;0.00272 mol/s &#160;&#160;&#160;1.00E+00</text>
</g>
<!-- R0 -->
<g id="node5" class="node">
<title>R0</title>
<g id="a_node5"><a xlink:href="0.svg" xlink:title="R0">
<polygon fill="cornsilk" stroke="none" points="76,-134.82 18,-134.82 18,-87.82 76,-87.82 76,-134.82"/>
<text text-anchor="middle" x="47" y="-102.82" font-family="Times New Roman,serif" font-size="35.00">R0</text>
</a>
</g>
</g>
<!-- R0&#45;&gt;R121 -->
<g id="edge4" class="edge">
<title>R0&#45;&gt;R121</title>
<path fill="none" stroke="black" stroke-width="3" d="M75.93,-107.96C156.34,-99.27 394.39,-80.69 578.5,-139.32 584.89,-141.36 591.27,-144.26 597.34,-147.56"/>
<polygon fill="black" stroke="black" stroke-width="3" points="593.2,-148.95 603.59,-151 596.75,-142.92 593.2,-148.95"/>
<text text-anchor="middle" x="342.5" y="-148.32" font-family="Times New Roman,serif" font-size="30.00"> &#160;&#160;485 &#160;&#160;48% &#160;&#160;0.0342 mol/s &#160;&#160;&#160;1.00E+00</text>
</g>
<!-- R117 -->
<g id="node6" class="node">
<title>R117</title>
<g id="a_node6"><a xlink:href="117.svg" xlink:title="R117">
<polygon fill="cornsilk" stroke="none" points="94,-69.82 0,-69.82 0,-22.82 94,-22.82 94,-69.82"/>
<text text-anchor="middle" x="47" y="-37.82" font-family="Times New Roman,serif" font-size="35.00">R117</text>
</a>
</g>
</g>
<!-- R117&#45;&gt;R121 -->
<g id="edge5" class="edge">
<title>R117&#45;&gt;R121</title>
<path fill="none" stroke="black" stroke-width="3" d="M94,-33.02C191.93,-7.58 424.63,37.23 578.5,-60.32 607.26,-78.56 622.44,-115.62 630.06,-142.97"/>
<polygon fill="black" stroke="black" stroke-width="3" points="625.83,-140.47 631.71,-149.28 632.61,-138.73 625.83,-140.47"/>
<text text-anchor="middle" x="342.5" y="-69.32" font-family="Times New Roman,serif" font-size="30.00"> &#160;&#160;485 &#160;&#160;48% &#160;&#160;0.0342 mol/s &#160;&#160;&#160;1.00E+00</text>
</g>
</g>
</svg>
