<?xml version="1.0" encoding="UTF-8" standalone="no"?>
<!DOCTYPE svg PUBLIC "-//W3C//DTD SVG 1.1//EN"
 "http://www.w3.org/Graphics/SVG/1.1/DTD/svg11.dtd">
<!-- Generated by graphviz version 8.0.3 (20230416.2022)
 -->
<!-- Title: G Pages: 1 -->
<svg width="640pt" height="127pt"
 viewBox="0.00 0.00 720.00 143.27" xmlns="http://www.w3.org/2000/svg" xmlns:xlink="http://www.w3.org/1999/xlink">
<g id="graph0" class="graph" transform="scale(0.498442 0.498442) rotate(0) translate(4 251.5)">
<title>G</title>
<polygon fill="white" stroke="none" points="-4,4 -4,-251.5 1280,-251.5 1280,4 -4,4"/>
<text text-anchor="middle" x="638" y="-214.7" font-family="Arial" font-size="36.00" fill="blue">Reaction Path Analysis</text>
<!-- R122 -->
<g id="node1" class="node">
<title>R122</title>
<g id="a_node1"><a xlink:href="122.svg" xlink:title="R122">
<polygon fill="cornsilk" stroke="none" points="685,-112 591,-112 591,-65 685,-65 685,-112"/>
<text text-anchor="middle" x="638" y="-80" font-family="Times New Roman,serif" font-size="35.00">R122</text>
</a>
</g>
</g>
<!-- R340 -->
<g id="node4" class="node">
<title>R340</title>
<g id="a_node4"><a xlink:href="340.svg" xlink:title="R340">
<polygon fill="cornsilk" stroke="none" points="1276,-112 1182,-112 1182,-65 1276,-65 1276,-112"/>
<text text-anchor="middle" x="1229" y="-80" font-family="Times New Roman,serif" font-size="35.00">R340</text>
</a>
</g>
</g>
<!-- R122&#45;&gt;R340 -->
<g id="edge3" class="edge">
<title>R122&#45;&gt;R340</title>
<path fill="none" stroke="black" stroke-width="6" d="M684.73,-88.5C788.16,-88.5 1040.47,-88.5 1161.33,-88.5"/>
<polygon fill="black" stroke="black" stroke-width="6" points="1156.3,-99 1176.3,-88.5 1156.3,-78 1156.3,-99"/>
<text text-anchor="middle" x="933.5" y="-97.5" font-family="Times New Roman,serif" font-size="30.00"> &#160;&#160;571 &#160;&#160;100% &#160;&#160;0.0161 mol/s &#160;&#160;&#160;6.54E&#45;01</text>
</g>
<!-- R1 -->
<g id="node2" class="node">
<title>R1</title>
<g id="a_node2"><a xlink:href="1.svg" xlink:title="R1">
<polygon fill="cornsilk" stroke="none" points="76,-177 18,-177 18,-130 76,-130 76,-177"/>
<text text-anchor="middle" x="47" y="-145" font-family="Times New Roman,serif" font-size="35.00">R1</text>
</a>
</g>
</g>
<!-- R1&#45;&gt;R122 -->
<g id="edge1" class="edge">
<title>R1&#45;&gt;R122</title>
<path fill="none" stroke="black" stroke-width="5" d="M75.93,-156.87C156.34,-165.55 394.39,-184.14 578.5,-125.5 581.85,-124.43 585.19,-123.13 588.49,-121.66"/>
<polygon fill="black" stroke="black" stroke-width="5" points="588.19,-131.06 601.59,-113.82 579.84,-115.68 588.19,-131.06"/>
<text text-anchor="middle" x="342.5" y="-175.5" font-family="Times New Roman,serif" font-size="30.00"> &#160;&#160;173 &#160;&#160;96% &#160;&#160;0.0342 mol/s &#160;&#160;&#160;1.00E+00</text>
</g>
<!-- R28 -->
<g id="node3" class="node">
<title>R28</title>
<g id="a_node3"><a xlink:href="28.svg" xlink:title="R28">
<polygon fill="cornsilk" stroke="none" points="85,-112 9,-112 9,-65 85,-65 85,-112"/>
<text text-anchor="middle" x="47" y="-80" font-family="Times New Roman,serif" font-size="35.00">R28</text>
</a>
</g>
</g>
<!-- R28&#45;&gt;R122 -->
<g id="edge2" class="edge">
<title>R28&#45;&gt;R122</title>
<path fill="none" stroke="black" stroke-width="5" d="M84.84,-88.5C181.9,-88.5 445.65,-88.5 570.18,-88.5"/>
<polygon fill="black" stroke="black" stroke-width="5" points="565.04,-97.25 585.04,-88.5 565.04,-79.75 565.04,-97.25"/>
<text text-anchor="middle" x="342.5" y="-97.5" font-family="Times New Roman,serif" font-size="30.00"> &#160;&#160;173 &#160;&#160;96% &#160;&#160;0.0342 mol/s &#160;&#160;&#160;1.00E+00</text>
</g>
<!-- R241 -->
<g id="node5" class="node">
<title>R241</title>
<g id="a_node5"><a xlink:href="241.svg" xlink:title="R241">
<polygon fill="cornsilk" stroke="none" points="94,-47 0,-47 0,0 94,0 94,-47"/>
<text text-anchor="middle" x="47" y="-15" font-family="Times New Roman,serif" font-size="35.00">R241</text>
</a>
</g>
</g>
<!-- R241&#45;&gt;R122 -->
<g id="edge4" class="edge">
<title>R241&#45;&gt;R122</title>
<path fill="none" stroke="black" d="M93.74,-18.32C187.35,-9.34 406.48,3.29 578.5,-51.5 584.89,-53.53 591.27,-56.44 597.34,-59.74"/>
<polygon fill="black" stroke="black" points="595.2,-63.13 605.59,-65.18 598.75,-57.09 595.2,-63.13"/>
<text text-anchor="middle" x="342.5" y="-60.5" font-family="Times New Roman,serif" font-size="30.00"> &#160;&#160;709 &#160;&#160;3% &#160;&#160;0.00131 mol/s &#160;&#160;&#160;6.59E&#45;01</text>
</g>
</g>
</svg>
