<?xml version="1.0" encoding="UTF-8" standalone="no"?>
<!DOCTYPE svg PUBLIC "-//W3C//DTD SVG 1.1//EN"
 "http://www.w3.org/Graphics/SVG/1.1/DTD/svg11.dtd">
<!-- Generated by graphviz version 8.0.3 (20230416.2022)
 -->
<!-- Title: G Pages: 1 -->
<svg width="640pt" height="168pt"
 viewBox="0.00 0.00 720.00 189.05" xmlns="http://www.w3.org/2000/svg" xmlns:xlink="http://www.w3.org/1999/xlink">
<g id="graph0" class="graph" transform="scale(0.479401 0.479401) rotate(0) translate(4 346.53)">
<title>G</title>
<polygon fill="white" stroke="none" points="-4,4 -4,-346.53 1331,-346.53 1331,4 -4,4"/>
<text text-anchor="middle" x="663.5" y="-309.73" font-family="Arial" font-size="36.00" fill="blue">Reaction Path Analysis</text>
<!-- R123 -->
<g id="node1" class="node">
<title>R123</title>
<g id="a_node1"><a xlink:href="123.svg" xlink:title="R123">
<polygon fill="cornsilk" stroke="none" points="706,-159.03 612,-159.03 612,-112.03 706,-112.03 706,-159.03"/>
<text text-anchor="middle" x="659" y="-127.03" font-family="Times New Roman,serif" font-size="35.00">R123</text>
</a>
</g>
</g>
<!-- R185 -->
<g id="node4" class="node">
<title>R185</title>
<g id="a_node4"><a xlink:href="185.svg" xlink:title="R185">
<polygon fill="cornsilk" stroke="none" points="1327,-257.03 1233,-257.03 1233,-210.03 1327,-210.03 1327,-257.03"/>
<text text-anchor="middle" x="1280" y="-225.03" font-family="Times New Roman,serif" font-size="35.00">R185</text>
</a>
</g>
</g>
<!-- R123&#45;&gt;R185 -->
<g id="edge3" class="edge">
<title>R123&#45;&gt;R185</title>
<path fill="none" stroke="black" stroke-width="2" d="M673.73,-158.88C684.68,-175.11 701.63,-195.55 722.5,-205.53 889.6,-285.45 1118.05,-261.48 1222.6,-244.33"/>
<polygon fill="black" stroke="black" stroke-width="2" points="1221.95,-247.65 1231.23,-242.53 1220.79,-240.74 1221.95,-247.65"/>
<text text-anchor="middle" x="969.5" y="-270.53" font-family="Times New Roman,serif" font-size="30.00"> &#160;&#160;488 &#160;&#160;33% &#160;&#160;2.18e&#45;15 mol/s &#160;&#160;&#160;1.00E+00</text>
</g>
<!-- R221 -->
<g id="node5" class="node">
<title>R221</title>
<g id="a_node5"><a xlink:href="221.svg" xlink:title="R221">
<polygon fill="cornsilk" stroke="none" points="1327,-192.03 1233,-192.03 1233,-145.03 1327,-145.03 1327,-192.03"/>
<text text-anchor="middle" x="1280" y="-160.03" font-family="Times New Roman,serif" font-size="35.00">R221</text>
</a>
</g>
</g>
<!-- R123&#45;&gt;R221 -->
<g id="edge4" class="edge">
<title>R123&#45;&gt;R221</title>
<path fill="none" stroke="black" stroke-width="2" d="M705.98,-144.35C711.53,-145.2 717.13,-145.96 722.5,-146.53 904.35,-166.04 1121.3,-168.73 1222.19,-168.81"/>
<polygon fill="black" stroke="black" stroke-width="2" points="1220.04,-172.31 1230.04,-168.81 1220.04,-165.31 1220.04,-172.31"/>
<text text-anchor="middle" x="969.5" y="-177.53" font-family="Times New Roman,serif" font-size="30.00"> &#160;&#160;572 &#160;&#160;33% &#160;&#160;2.18e&#45;15 mol/s &#160;&#160;&#160;1.00E+00</text>
</g>
<!-- R318 -->
<g id="node6" class="node">
<title>R318</title>
<g id="a_node6"><a xlink:href="318.svg" xlink:title="R318">
<polygon fill="cornsilk" stroke="none" points="1327,-127.03 1233,-127.03 1233,-80.03 1327,-80.03 1327,-127.03"/>
<text text-anchor="middle" x="1280" y="-95.03" font-family="Times New Roman,serif" font-size="35.00">R318</text>
</a>
</g>
</g>
<!-- R123&#45;&gt;R318 -->
<g id="edge5" class="edge">
<title>R123&#45;&gt;R318</title>
<path fill="none" stroke="black" stroke-width="2" d="M705.97,-117.5C711.47,-115.9 717.07,-114.51 722.5,-113.53 902.62,-81.09 1120.83,-91.18 1222.18,-98.62"/>
<polygon fill="black" stroke="black" stroke-width="2" points="1219.84,-102.18 1230.07,-99.45 1220.36,-95.2 1219.84,-102.18"/>
<text text-anchor="middle" x="969.5" y="-122.53" font-family="Times New Roman,serif" font-size="30.00"> &#160;&#160;573 &#160;&#160;33% &#160;&#160;2.18e&#45;15 mol/s &#160;&#160;&#160;1.00E+00</text>
</g>
<!-- R131 -->
<g id="node7" class="node">
<title>R131</title>
<g id="a_node7"><a xlink:href="131.svg" xlink:title="R131">
<polygon fill="cornsilk" stroke="none" points="1327,-62.03 1233,-62.03 1233,-15.03 1327,-15.03 1327,-62.03"/>
<text text-anchor="middle" x="1280" y="-30.03" font-family="Times New Roman,serif" font-size="35.00">R131</text>
</a>
</g>
</g>
<!-- R123&#45;&gt;R131 -->
<g id="edge6" class="edge">
<title>R123&#45;&gt;R131</title>
<path fill="none" stroke="black" d="M670.65,-112.36C680.92,-93.05 698.44,-66.79 722.5,-54.53 887.61,29.58 1117.53,-3.32 1222.58,-25.14"/>
<polygon fill="black" stroke="black" points="1221.75,-28.75 1232.26,-27.41 1223.21,-21.91 1221.75,-28.75"/>
<text text-anchor="middle" x="969.5" y="-63.53" font-family="Times New Roman,serif" font-size="30.00"> &#160;&#160;651 &#160;&#160;0% &#160;&#160;2.2e&#45;26 mol/s &#160;&#160;&#160;1.00E+00</text>
</g>
<!-- R28 -->
<g id="node2" class="node">
<title>R28</title>
<g id="a_node2"><a xlink:href="28.svg" xlink:title="R28">
<polygon fill="cornsilk" stroke="none" points="76,-192.03 0,-192.03 0,-145.03 76,-145.03 76,-192.03"/>
<text text-anchor="middle" x="38" y="-160.03" font-family="Times New Roman,serif" font-size="35.00">R28</text>
</a>
</g>
</g>
<!-- R28&#45;&gt;R123 -->
<g id="edge1" class="edge">
<title>R28&#45;&gt;R123</title>
<path fill="none" stroke="black" stroke-width="6" d="M75.78,-169.11C162.98,-170.05 389.5,-170.02 591.46,-147.65"/>
<polygon fill="black" stroke="black" stroke-width="6" points="587.5,-157.98 606.17,-145.26 585.1,-137.12 587.5,-157.98"/>
<text text-anchor="middle" x="348.5" y="-177.53" font-family="Times New Roman,serif" font-size="30.00"> &#160;&#160;174 &#160;&#160;100% &#160;&#160;2.18e&#45;15 mol/s &#160;&#160;&#160;1.00E+00</text>
</g>
<!-- R1 -->
<g id="node3" class="node">
<title>R1</title>
<g id="a_node3"><a xlink:href="1.svg" xlink:title="R1">
<polygon fill="cornsilk" stroke="none" points="67,-127.03 9,-127.03 9,-80.03 67,-80.03 67,-127.03"/>
<text text-anchor="middle" x="38" y="-95.03" font-family="Times New Roman,serif" font-size="35.00">R1</text>
</a>
</g>
</g>
<!-- R1&#45;&gt;R123 -->
<g id="edge2" class="edge">
<title>R1&#45;&gt;R123</title>
<path fill="none" stroke="black" stroke-width="6" d="M66.97,-100.5C147.17,-92.54 384.92,-74 591.62,-111.83"/>
<polygon fill="black" stroke="black" stroke-width="6" points="584.53,-121.31 606.16,-114.8 588.52,-100.69 584.53,-121.31"/>
<text text-anchor="middle" x="348.5" y="-122.53" font-family="Times New Roman,serif" font-size="30.00"> &#160;&#160;174 &#160;&#160;100% &#160;&#160;2.18e&#45;15 mol/s &#160;&#160;&#160;1.00E+00</text>
</g>
</g>
</svg>
