<?xml version="1.0" encoding="UTF-8" standalone="no"?>
<!DOCTYPE svg PUBLIC "-//W3C//DTD SVG 1.1//EN"
 "http://www.w3.org/Graphics/SVG/1.1/DTD/svg11.dtd">
<!-- Generated by graphviz version 8.0.3 (20230416.2022)
 -->
<!-- Title: G Pages: 1 -->
<svg width="640pt" height="175pt"
 viewBox="0.00 0.00 720.00 196.91" xmlns="http://www.w3.org/2000/svg" xmlns:xlink="http://www.w3.org/1999/xlink">
<g id="graph0" class="graph" transform="scale(0.501961 0.501961) rotate(0) translate(4 344.69)">
<title>G</title>
<polygon fill="white" stroke="none" points="-4,4 -4,-344.69 1271,-344.69 1271,4 -4,4"/>
<text text-anchor="middle" x="633.5" y="-307.89" font-family="Arial" font-size="36.00" fill="blue">Reaction Path Analysis</text>
<!-- R123 -->
<g id="node1" class="node">
<title>R123</title>
<g id="a_node1"><a xlink:href="123.svg" xlink:title="R123">
<polygon fill="cornsilk" stroke="none" points="676,-158.19 582,-158.19 582,-111.19 676,-111.19 676,-158.19"/>
<text text-anchor="middle" x="629" y="-126.19" font-family="Times New Roman,serif" font-size="35.00">R123</text>
</a>
</g>
</g>
<!-- R185 -->
<g id="node4" class="node">
<title>R185</title>
<g id="a_node4"><a xlink:href="185.svg" xlink:title="R185">
<polygon fill="cornsilk" stroke="none" points="1267,-256.19 1173,-256.19 1173,-209.19 1267,-209.19 1267,-256.19"/>
<text text-anchor="middle" x="1220" y="-224.19" font-family="Times New Roman,serif" font-size="35.00">R185</text>
</a>
</g>
</g>
<!-- R123&#45;&gt;R185 -->
<g id="edge3" class="edge">
<title>R123&#45;&gt;R185</title>
<path fill="none" stroke="black" stroke-width="2" d="M642.5,-157.99C652.59,-174.19 668.38,-194.63 688.5,-204.69 845.29,-283.09 1061.71,-260.51 1162.77,-243.67"/>
<polygon fill="black" stroke="black" stroke-width="2" points="1162.08,-247 1171.35,-241.86 1160.9,-240.1 1162.08,-247"/>
<text text-anchor="middle" x="924.5" y="-268.69" font-family="Times New Roman,serif" font-size="30.00"> &#160;&#160;488 &#160;&#160;32% &#160;&#160;0.0342 mol/s &#160;&#160;&#160;1.00E+00</text>
</g>
<!-- R221 -->
<g id="node5" class="node">
<title>R221</title>
<g id="a_node5"><a xlink:href="221.svg" xlink:title="R221">
<polygon fill="cornsilk" stroke="none" points="1267,-191.19 1173,-191.19 1173,-144.19 1267,-144.19 1267,-191.19"/>
<text text-anchor="middle" x="1220" y="-159.19" font-family="Times New Roman,serif" font-size="35.00">R221</text>
</a>
</g>
</g>
<!-- R123&#45;&gt;R221 -->
<g id="edge4" class="edge">
<title>R123&#45;&gt;R221</title>
<path fill="none" stroke="black" stroke-width="2" d="M675.89,-143.97C680.14,-144.63 684.39,-145.22 688.5,-145.69 860.24,-165.29 1065.03,-167.98 1162.3,-168.02"/>
<polygon fill="black" stroke="black" stroke-width="2" points="1160.06,-171.52 1170.06,-168.01 1160.06,-164.52 1160.06,-171.52"/>
<text text-anchor="middle" x="924.5" y="-176.69" font-family="Times New Roman,serif" font-size="30.00"> &#160;&#160;572 &#160;&#160;32% &#160;&#160;0.0341 mol/s &#160;&#160;&#160;9.97E&#45;01</text>
</g>
<!-- R318 -->
<g id="node6" class="node">
<title>R318</title>
<g id="a_node6"><a xlink:href="318.svg" xlink:title="R318">
<polygon fill="cornsilk" stroke="none" points="1267,-126.19 1173,-126.19 1173,-79.19 1267,-79.19 1267,-126.19"/>
<text text-anchor="middle" x="1220" y="-94.19" font-family="Times New Roman,serif" font-size="35.00">R318</text>
</a>
</g>
</g>
<!-- R123&#45;&gt;R318 -->
<g id="edge5" class="edge">
<title>R123&#45;&gt;R318</title>
<path fill="none" stroke="black" stroke-width="2" d="M675.88,-115.78C680.1,-114.55 684.34,-113.49 688.5,-112.69 858.37,-80.15 1064.44,-89.96 1162.23,-97.51"/>
<polygon fill="black" stroke="black" stroke-width="2" points="1159.8,-101.06 1170.04,-98.37 1160.35,-94.08 1159.8,-101.06"/>
<text text-anchor="middle" x="924.5" y="-121.69" font-family="Times New Roman,serif" font-size="30.00"> &#160;&#160;573 &#160;&#160;32% &#160;&#160;0.0342 mol/s &#160;&#160;&#160;1.00E+00</text>
</g>
<!-- R131 -->
<g id="node7" class="node">
<title>R131</title>
<g id="a_node7"><a xlink:href="131.svg" xlink:title="R131">
<polygon fill="cornsilk" stroke="none" points="1267,-61.19 1173,-61.19 1173,-14.19 1267,-14.19 1267,-61.19"/>
<text text-anchor="middle" x="1220" y="-29.19" font-family="Times New Roman,serif" font-size="35.00">R131</text>
</a>
</g>
</g>
<!-- R123&#45;&gt;R131 -->
<g id="edge6" class="edge">
<title>R123&#45;&gt;R131</title>
<path fill="none" stroke="black" d="M639.59,-111.56C648.95,-92.28 665.21,-66.05 688.5,-53.69 843.22,28.38 1060.64,-2.6 1162.36,-24"/>
<polygon fill="black" stroke="black" points="1161.49,-27.61 1172.01,-26.29 1162.97,-20.76 1161.49,-27.61"/>
<text text-anchor="middle" x="924.5" y="-62.69" font-family="Times New Roman,serif" font-size="30.00"> &#160;&#160;651 &#160;&#160;2% &#160;&#160;0.00272 mol/s &#160;&#160;&#160;1.00E+00</text>
</g>
<!-- R28 -->
<g id="node2" class="node">
<title>R28</title>
<g id="a_node2"><a xlink:href="28.svg" xlink:title="R28">
<polygon fill="cornsilk" stroke="none" points="76,-191.19 0,-191.19 0,-144.19 76,-144.19 76,-191.19"/>
<text text-anchor="middle" x="38" y="-159.19" font-family="Times New Roman,serif" font-size="35.00">R28</text>
</a>
</g>
</g>
<!-- R28&#45;&gt;R123 -->
<g id="edge1" class="edge">
<title>R28&#45;&gt;R123</title>
<path fill="none" stroke="black" stroke-width="6" d="M75.74,-168.15C159.52,-168.77 371.51,-168.02 561.5,-146.81"/>
<polygon fill="black" stroke="black" stroke-width="6" points="557.51,-157.15 576.17,-144.41 555.09,-136.29 557.51,-157.15"/>
<text text-anchor="middle" x="333.5" y="-176.69" font-family="Times New Roman,serif" font-size="30.00"> &#160;&#160;174 &#160;&#160;100% &#160;&#160;0.0275 mol/s &#160;&#160;&#160;8.37E&#45;01</text>
</g>
<!-- R1 -->
<g id="node3" class="node">
<title>R1</title>
<g id="a_node3"><a xlink:href="1.svg" xlink:title="R1">
<polygon fill="cornsilk" stroke="none" points="67,-126.19 9,-126.19 9,-79.19 67,-79.19 67,-126.19"/>
<text text-anchor="middle" x="38" y="-94.19" font-family="Times New Roman,serif" font-size="35.00">R1</text>
</a>
</g>
</g>
<!-- R1&#45;&gt;R123 -->
<g id="edge2" class="edge">
<title>R1&#45;&gt;R123</title>
<path fill="none" stroke="black" stroke-width="6" d="M66.89,-99.72C144.04,-92.22 366.87,-75.42 561.6,-110.98"/>
<polygon fill="black" stroke="black" stroke-width="6" points="554.53,-120.47 576.16,-113.96 558.52,-99.85 554.53,-120.47"/>
<text text-anchor="middle" x="333.5" y="-121.69" font-family="Times New Roman,serif" font-size="30.00"> &#160;&#160;174 &#160;&#160;100% &#160;&#160;0.0275 mol/s &#160;&#160;&#160;8.37E&#45;01</text>
</g>
</g>
</svg>
