<?xml version="1.0" encoding="UTF-8" standalone="no"?>
<!DOCTYPE svg PUBLIC "-//W3C//DTD SVG 1.1//EN"
 "http://www.w3.org/Graphics/SVG/1.1/DTD/svg11.dtd">
<!-- Generated by graphviz version 8.0.3 (20230416.2022)
 -->
<!-- Title: G Pages: 1 -->
<svg width="640pt" height="130pt"
 viewBox="0.00 0.00 720.00 146.46" xmlns="http://www.w3.org/2000/svg" xmlns:xlink="http://www.w3.org/1999/xlink">
<g id="graph0" class="graph" transform="scale(0.507534 0.507534) rotate(0) translate(4 252.5)">
<title>G</title>
<polygon fill="white" stroke="none" points="-4,4 -4,-252.5 1257,-252.5 1257,4 -4,4"/>
<text text-anchor="middle" x="626.5" y="-215.7" font-family="Arial" font-size="36.00" fill="blue">Reaction Path Analysis</text>
<!-- R124 -->
<g id="node1" class="node">
<title>R124</title>
<g id="a_node1"><a xlink:href="124.svg" xlink:title="R124">
<polygon fill="cornsilk" stroke="none" points="669,-112 575,-112 575,-65 669,-65 669,-112"/>
<text text-anchor="middle" x="622" y="-80" font-family="Times New Roman,serif" font-size="35.00">R124</text>
</a>
</g>
</g>
<!-- R186 -->
<g id="node4" class="node">
<title>R186</title>
<g id="a_node4"><a xlink:href="186.svg" xlink:title="R186">
<polygon fill="cornsilk" stroke="none" points="1253,-177 1159,-177 1159,-130 1253,-130 1253,-177"/>
<text text-anchor="middle" x="1206" y="-145" font-family="Times New Roman,serif" font-size="35.00">R186</text>
</a>
</g>
</g>
<!-- R124&#45;&gt;R186 -->
<g id="edge3" class="edge">
<title>R124&#45;&gt;R186</title>
<path fill="none" stroke="black" stroke-width="2" d="M651.42,-111.82C659.54,-117.28 668.72,-122.4 678,-125.5 841.58,-180.19 1049.54,-169.59 1148.17,-160.15"/>
<polygon fill="black" stroke="black" stroke-width="2" points="1146.47,-163.53 1156.08,-159.06 1145.78,-156.57 1146.47,-163.53"/>
<text text-anchor="middle" x="914" y="-176.5" font-family="Times New Roman,serif" font-size="30.00"> &#160;&#160;489 &#160;&#160;33% &#160;&#160;0.0342 mol/s &#160;&#160;&#160;1.00E+00</text>
</g>
<!-- R222 -->
<g id="node5" class="node">
<title>R222</title>
<g id="a_node5"><a xlink:href="222.svg" xlink:title="R222">
<polygon fill="cornsilk" stroke="none" points="1253,-112 1159,-112 1159,-65 1253,-65 1253,-112"/>
<text text-anchor="middle" x="1206" y="-80" font-family="Times New Roman,serif" font-size="35.00">R222</text>
</a>
</g>
</g>
<!-- R124&#45;&gt;R222 -->
<g id="edge4" class="edge">
<title>R124&#45;&gt;R222</title>
<path fill="none" stroke="black" stroke-width="2" d="M668.67,-88.5C773.94,-88.5 1033.39,-88.5 1148.47,-88.5"/>
<polygon fill="black" stroke="black" stroke-width="2" points="1146.14,-92 1156.14,-88.5 1146.14,-85 1146.14,-92"/>
<text text-anchor="middle" x="914" y="-97.5" font-family="Times New Roman,serif" font-size="30.00"> &#160;&#160;574 &#160;&#160;33% &#160;&#160;0.0342 mol/s &#160;&#160;&#160;1.00E+00</text>
</g>
<!-- R341 -->
<g id="node6" class="node">
<title>R341</title>
<g id="a_node6"><a xlink:href="341.svg" xlink:title="R341">
<polygon fill="cornsilk" stroke="none" points="1253,-47 1159,-47 1159,0 1253,0 1253,-47"/>
<text text-anchor="middle" x="1206" y="-15" font-family="Times New Roman,serif" font-size="35.00">R341</text>
</a>
</g>
</g>
<!-- R124&#45;&gt;R341 -->
<g id="edge5" class="edge">
<title>R124&#45;&gt;R341</title>
<path fill="none" stroke="black" stroke-width="2" d="M651.42,-65.18C659.54,-59.72 668.72,-54.6 678,-51.5 841.58,3.19 1049.54,-7.41 1148.17,-16.85"/>
<polygon fill="black" stroke="black" stroke-width="2" points="1145.78,-20.43 1156.08,-17.94 1146.47,-13.47 1145.78,-20.43"/>
<text text-anchor="middle" x="914" y="-60.5" font-family="Times New Roman,serif" font-size="30.00"> &#160;&#160;575 &#160;&#160;33% &#160;&#160;0.0342 mol/s &#160;&#160;&#160;1.00E+00</text>
</g>
<!-- R29 -->
<g id="node2" class="node">
<title>R29</title>
<g id="a_node2"><a xlink:href="29.svg" xlink:title="R29">
<polygon fill="cornsilk" stroke="none" points="76,-177 0,-177 0,-130 76,-130 76,-177"/>
<text text-anchor="middle" x="38" y="-145" font-family="Times New Roman,serif" font-size="35.00">R29</text>
</a>
</g>
</g>
<!-- R29&#45;&gt;R124 -->
<g id="edge1" class="edge">
<title>R29&#45;&gt;R124</title>
<path fill="none" stroke="black" stroke-width="5" d="M75.95,-157.72C163.06,-166.37 387.12,-180.9 562,-125.5 565.37,-124.43 568.74,-123.13 572.06,-121.65"/>
<polygon fill="black" stroke="black" stroke-width="5" points="571.85,-131.01 585.31,-113.82 563.55,-115.6 571.85,-131.01"/>
<text text-anchor="middle" x="330" y="-174.5" font-family="Times New Roman,serif" font-size="30.00"> &#160;&#160;175 &#160;&#160;94% &#160;&#160;0.0339 mol/s &#160;&#160;&#160;9.93E&#45;01</text>
</g>
<!-- R1 -->
<g id="node3" class="node">
<title>R1</title>
<g id="a_node3"><a xlink:href="1.svg" xlink:title="R1">
<polygon fill="cornsilk" stroke="none" points="67,-112 9,-112 9,-65 67,-65 67,-112"/>
<text text-anchor="middle" x="38" y="-80" font-family="Times New Roman,serif" font-size="35.00">R1</text>
</a>
</g>
</g>
<!-- R1&#45;&gt;R124 -->
<g id="edge2" class="edge">
<title>R1&#45;&gt;R124</title>
<path fill="none" stroke="black" stroke-width="5" d="M66.68,-88.5C154.25,-88.5 426.98,-88.5 554.29,-88.5"/>
<polygon fill="black" stroke="black" stroke-width="5" points="549.22,-97.25 569.22,-88.5 549.22,-79.75 549.22,-97.25"/>
<text text-anchor="middle" x="330" y="-97.5" font-family="Times New Roman,serif" font-size="30.00"> &#160;&#160;175 &#160;&#160;94% &#160;&#160;0.0339 mol/s &#160;&#160;&#160;9.93E&#45;01</text>
</g>
<!-- R91 -->
<g id="node7" class="node">
<title>R91</title>
<g id="a_node7"><a xlink:href="91.svg" xlink:title="R91">
<polygon fill="cornsilk" stroke="none" points="76,-47 0,-47 0,0 76,0 76,-47"/>
<text text-anchor="middle" x="38" y="-15" font-family="Times New Roman,serif" font-size="35.00">R91</text>
</a>
</g>
</g>
<!-- R91&#45;&gt;R124 -->
<g id="edge6" class="edge">
<title>R91&#45;&gt;R124</title>
<path fill="none" stroke="black" d="M75.95,-19.28C163.06,-10.63 387.12,3.9 562,-51.5 568.43,-53.54 574.86,-56.44 580.98,-59.74"/>
<polygon fill="black" stroke="black" points="578.91,-63.17 589.31,-65.18 582.43,-57.12 578.91,-63.17"/>
<text text-anchor="middle" x="330" y="-60.5" font-family="Times New Roman,serif" font-size="30.00"> &#160;&#160;652 &#160;&#160;5% &#160;&#160;0.00186 mol/s &#160;&#160;&#160;3.72E&#45;01</text>
</g>
</g>
</svg>
