<?xml version="1.0" encoding="UTF-8" standalone="no"?>
<!DOCTYPE svg PUBLIC "-//W3C//DTD SVG 1.1//EN"
 "http://www.w3.org/Graphics/SVG/1.1/DTD/svg11.dtd">
<!-- Generated by graphviz version 8.0.3 (20230416.2022)
 -->
<!-- Title: G Pages: 1 -->
<svg width="640pt" height="198pt"
 viewBox="0.00 0.00 720.00 222.53" xmlns="http://www.w3.org/2000/svg" xmlns:xlink="http://www.w3.org/1999/xlink">
<g id="graph0" class="graph" transform="scale(0.49574 0.49574) rotate(0) translate(4 395.01)">
<title>G</title>
<polygon fill="white" stroke="none" points="-4,4 -4,-395.01 1287,-395.01 1287,4 -4,4"/>
<text text-anchor="middle" x="641.5" y="-358.21" font-family="Arial" font-size="36.00" fill="blue">Reaction Path Analysis</text>
<!-- R125 -->
<g id="node1" class="node">
<title>R125</title>
<g id="a_node1"><a xlink:href="125.svg" xlink:title="R125">
<polygon fill="cornsilk" stroke="none" points="684,-195.51 590,-195.51 590,-148.51 684,-148.51 684,-195.51"/>
<text text-anchor="middle" x="637" y="-163.51" font-family="Times New Roman,serif" font-size="35.00">R125</text>
</a>
</g>
</g>
<!-- R64 -->
<g id="node4" class="node">
<title>R64</title>
<g id="a_node4"><a xlink:href="64.svg" xlink:title="R64">
<polygon fill="cornsilk" stroke="none" points="1274,-284.51 1198,-284.51 1198,-237.51 1274,-237.51 1274,-284.51"/>
<text text-anchor="middle" x="1236" y="-252.51" font-family="Times New Roman,serif" font-size="35.00">R64</text>
</a>
</g>
</g>
<!-- R125&#45;&gt;R64 -->
<g id="edge3" class="edge">
<title>R125&#45;&gt;R64</title>
<path fill="none" stroke="black" stroke-width="5" d="M646.76,-195.36C656.3,-217.07 673.87,-248.08 700.5,-262.01 856.91,-343.82 1075.99,-303.5 1178.25,-277.38"/>
<polygon fill="black" stroke="black" stroke-width="5" points="1175.15,-286.66 1192.23,-273.07 1170.65,-269.75 1175.15,-286.66"/>
<text text-anchor="middle" x="936.5" y="-319.01" font-family="Times New Roman,serif" font-size="30.00"> &#160;&#160;448 &#160;&#160;99% &#160;&#160;542.0 mol/s &#160;&#160;&#160;5.01E&#45;06</text>
</g>
<!-- R125&#45;&gt;R64 -->
<g id="edge7" class="edge">
<title>R125&#45;&gt;R64</title>
<path fill="none" stroke="black" d="M674.49,-195.45C682.75,-199.72 691.69,-203.58 700.5,-206.01 801.69,-233.94 1071.66,-195.86 1172.5,-225.01 1178.97,-226.88 1185.49,-229.56 1191.74,-232.62"/>
<polygon fill="black" stroke="black" points="1189.82,-236.1 1200.3,-237.68 1193.1,-229.91 1189.82,-236.1"/>
<text text-anchor="middle" x="936.5" y="-234.01" font-family="Times New Roman,serif" font-size="30.00"> &#160;&#160;653 &#160;&#160;0% &#160;&#160;0.00272 mol/s &#160;&#160;&#160;1.00E+00</text>
</g>
<!-- R187 -->
<g id="node5" class="node">
<title>R187</title>
<g id="a_node5"><a xlink:href="187.svg" xlink:title="R187">
<polygon fill="cornsilk" stroke="none" points="1283,-200.51 1189,-200.51 1189,-153.51 1283,-153.51 1283,-200.51"/>
<text text-anchor="middle" x="1236" y="-168.51" font-family="Times New Roman,serif" font-size="35.00">R187</text>
</a>
</g>
</g>
<!-- R125&#45;&gt;R187 -->
<g id="edge4" class="edge">
<title>R125&#45;&gt;R187</title>
<path fill="none" stroke="black" d="M683.78,-171.14C776.19,-169.6 991.65,-167.06 1172.5,-173.01 1174.45,-173.08 1176.44,-173.15 1178.45,-173.24"/>
<polygon fill="black" stroke="black" points="1178.12,-176.77 1188.28,-173.76 1178.46,-169.78 1178.12,-176.77"/>
<text text-anchor="middle" x="936.5" y="-182.01" font-family="Times New Roman,serif" font-size="30.00"> &#160;&#160;490 &#160;&#160;0% &#160;&#160;0.0342 mol/s &#160;&#160;&#160;1.00E+00</text>
</g>
<!-- R223 -->
<g id="node6" class="node">
<title>R223</title>
<g id="a_node6"><a xlink:href="223.svg" xlink:title="R223">
<polygon fill="cornsilk" stroke="none" points="1283,-135.51 1189,-135.51 1189,-88.51 1283,-88.51 1283,-135.51"/>
<text text-anchor="middle" x="1236" y="-103.51" font-family="Times New Roman,serif" font-size="35.00">R223</text>
</a>
</g>
</g>
<!-- R125&#45;&gt;R223 -->
<g id="edge5" class="edge">
<title>R125&#45;&gt;R223</title>
<path fill="none" stroke="black" d="M667.52,-148.58C677.45,-141.98 688.94,-135.63 700.5,-132.01 867.92,-79.61 1079.32,-93.66 1178.62,-104.62"/>
<polygon fill="black" stroke="black" points="1177.97,-108.18 1188.3,-105.83 1178.76,-101.23 1177.97,-108.18"/>
<text text-anchor="middle" x="936.5" y="-141.01" font-family="Times New Roman,serif" font-size="30.00"> &#160;&#160;576 &#160;&#160;0% &#160;&#160;0.0342 mol/s &#160;&#160;&#160;1.00E+00</text>
</g>
<!-- R342 -->
<g id="node7" class="node">
<title>R342</title>
<g id="a_node7"><a xlink:href="342.svg" xlink:title="R342">
<polygon fill="cornsilk" stroke="none" points="1283,-70.51 1189,-70.51 1189,-23.51 1283,-23.51 1283,-70.51"/>
<text text-anchor="middle" x="1236" y="-38.51" font-family="Times New Roman,serif" font-size="35.00">R342</text>
</a>
</g>
</g>
<!-- R125&#45;&gt;R342 -->
<g id="edge6" class="edge">
<title>R125&#45;&gt;R342</title>
<path fill="none" stroke="black" d="M643.31,-148.8C650.89,-121.65 667.69,-77.9 700.5,-58.01 852.28,33.99 1075.56,-5.32 1178.82,-31.1"/>
<polygon fill="black" stroke="black" points="1177.77,-34.7 1188.32,-33.78 1179.5,-27.92 1177.77,-34.7"/>
<text text-anchor="middle" x="936.5" y="-67.01" font-family="Times New Roman,serif" font-size="30.00"> &#160;&#160;577 &#160;&#160;0% &#160;&#160;0.0342 mol/s &#160;&#160;&#160;1.00E+00</text>
</g>
<!-- R30 -->
<g id="node2" class="node">
<title>R30</title>
<g id="a_node2"><a xlink:href="30.svg" xlink:title="R30">
<polygon fill="cornsilk" stroke="none" points="76,-228.51 0,-228.51 0,-181.51 76,-181.51 76,-228.51"/>
<text text-anchor="middle" x="38" y="-196.51" font-family="Times New Roman,serif" font-size="35.00">R30</text>
</a>
</g>
</g>
<!-- R30&#45;&gt;R125 -->
<g id="edge1" class="edge">
<title>R30&#45;&gt;R125</title>
<path fill="none" stroke="black" stroke-width="6" d="M75.96,-205.5C160.81,-206.21 376.45,-205.64 569.47,-184.14"/>
<polygon fill="black" stroke="black" stroke-width="6" points="565.51,-194.47 584.17,-181.74 563.09,-173.61 565.51,-194.47"/>
<text text-anchor="middle" x="337.5" y="-214.01" font-family="Times New Roman,serif" font-size="30.00"> &#160;&#160;177 &#160;&#160;100% &#160;&#160;0.0342 mol/s &#160;&#160;&#160;1.00E+00</text>
</g>
<!-- R1 -->
<g id="node3" class="node">
<title>R1</title>
<g id="a_node3"><a xlink:href="1.svg" xlink:title="R1">
<polygon fill="cornsilk" stroke="none" points="67,-163.51 9,-163.51 9,-116.51 67,-116.51 67,-163.51"/>
<text text-anchor="middle" x="38" y="-131.51" font-family="Times New Roman,serif" font-size="35.00">R1</text>
</a>
</g>
</g>
<!-- R1&#45;&gt;R125 -->
<g id="edge2" class="edge">
<title>R1&#45;&gt;R125</title>
<path fill="none" stroke="black" stroke-width="6" d="M66.73,-137.04C144.52,-129.43 371.5,-112.12 569.56,-148.3"/>
<polygon fill="black" stroke="black" stroke-width="6" points="562.53,-157.79 584.16,-151.28 566.52,-137.17 562.53,-157.79"/>
<text text-anchor="middle" x="337.5" y="-159.01" font-family="Times New Roman,serif" font-size="30.00"> &#160;&#160;177 &#160;&#160;100% &#160;&#160;0.0342 mol/s &#160;&#160;&#160;1.00E+00</text>
</g>
</g>
</svg>
