<?xml version="1.0" encoding="UTF-8" standalone="no"?>
<!DOCTYPE svg PUBLIC "-//W3C//DTD SVG 1.1//EN"
 "http://www.w3.org/Graphics/SVG/1.1/DTD/svg11.dtd">
<!-- Generated by graphviz version 8.0.3 (20230416.2022)
 -->
<!-- Title: G Pages: 1 -->
<svg width="640pt" height="194pt"
 viewBox="0.00 0.00 720.00 217.93" xmlns="http://www.w3.org/2000/svg" xmlns:xlink="http://www.w3.org/1999/xlink">
<g id="graph0" class="graph" transform="scale(0.479401 0.479401) rotate(0) translate(4 400.07)">
<title>G</title>
<polygon fill="white" stroke="none" points="-4,4 -4,-400.07 1331,-400.07 1331,4 -4,4"/>
<text text-anchor="middle" x="663.5" y="-363.27" font-family="Arial" font-size="36.00" fill="blue">Reaction Path Analysis</text>
<!-- R125 -->
<g id="node1" class="node">
<title>R125</title>
<g id="a_node1"><a xlink:href="125.svg" xlink:title="R125">
<polygon fill="cornsilk" stroke="none" points="706,-198.57 612,-198.57 612,-151.57 706,-151.57 706,-198.57"/>
<text text-anchor="middle" x="659" y="-166.57" font-family="Times New Roman,serif" font-size="35.00">R125</text>
</a>
</g>
</g>
<!-- R64 -->
<g id="node4" class="node">
<title>R64</title>
<g id="a_node4"><a xlink:href="64.svg" xlink:title="R64">
<polygon fill="cornsilk" stroke="none" points="1318,-287.57 1242,-287.57 1242,-240.57 1318,-240.57 1318,-287.57"/>
<text text-anchor="middle" x="1280" y="-255.57" font-family="Times New Roman,serif" font-size="35.00">R64</text>
</a>
</g>
</g>
<!-- R125&#45;&gt;R64 -->
<g id="edge3" class="edge">
<title>R125&#45;&gt;R64</title>
<path fill="none" stroke="black" d="M668.76,-198.42C678.3,-220.12 695.87,-251.14 722.5,-265.07 891.63,-353.53 1131.12,-304.87 1231.67,-278.04"/>
<polygon fill="black" stroke="black" points="1232.37,-281.2 1241.1,-275.2 1230.53,-274.45 1232.37,-281.2"/>
<text text-anchor="middle" x="969.5" y="-324.07" font-family="Times New Roman,serif" font-size="30.00"> &#160;&#160;448 &#160;&#160;0% &#160;&#160;2.95e&#45;21 mol/s &#160;&#160;&#160;7.46E&#45;06</text>
</g>
<!-- R125&#45;&gt;R64 -->
<g id="edge7" class="edge">
<title>R125&#45;&gt;R64</title>
<path fill="none" stroke="black" d="M696.49,-198.52C704.75,-202.79 713.69,-206.65 722.5,-209.07 828.43,-238.2 1110.94,-197.66 1216.5,-228.07 1222.98,-229.94 1229.49,-232.61 1235.74,-235.67"/>
<polygon fill="black" stroke="black" points="1233.83,-239.14 1244.3,-240.73 1237.1,-232.96 1233.83,-239.14"/>
<text text-anchor="middle" x="969.5" y="-237.07" font-family="Times New Roman,serif" font-size="30.00"> &#160;&#160;653 &#160;&#160;0% &#160;&#160;2.2e&#45;26 mol/s &#160;&#160;&#160;1.00E+00</text>
</g>
<!-- R187 -->
<g id="node5" class="node">
<title>R187</title>
<g id="a_node5"><a xlink:href="187.svg" xlink:title="R187">
<polygon fill="cornsilk" stroke="none" points="1327,-203.57 1233,-203.57 1233,-156.57 1327,-156.57 1327,-203.57"/>
<text text-anchor="middle" x="1280" y="-171.57" font-family="Times New Roman,serif" font-size="35.00">R187</text>
</a>
</g>
</g>
<!-- R125&#45;&gt;R187 -->
<g id="edge4" class="edge">
<title>R125&#45;&gt;R187</title>
<path fill="none" stroke="black" stroke-width="2" d="M705.83,-174.19C801,-172.58 1027,-169.84 1216.5,-176.07 1218.45,-176.14 1220.44,-176.21 1222.45,-176.29"/>
<polygon fill="black" stroke="black" stroke-width="2" points="1220.12,-179.83 1230.28,-176.82 1220.46,-172.84 1220.12,-179.83"/>
<text text-anchor="middle" x="969.5" y="-185.07" font-family="Times New Roman,serif" font-size="30.00"> &#160;&#160;490 &#160;&#160;33% &#160;&#160;2.18e&#45;15 mol/s &#160;&#160;&#160;1.00E+00</text>
</g>
<!-- R223 -->
<g id="node6" class="node">
<title>R223</title>
<g id="a_node6"><a xlink:href="223.svg" xlink:title="R223">
<polygon fill="cornsilk" stroke="none" points="1327,-138.57 1233,-138.57 1233,-91.57 1327,-91.57 1327,-138.57"/>
<text text-anchor="middle" x="1280" y="-106.57" font-family="Times New Roman,serif" font-size="35.00">R223</text>
</a>
</g>
</g>
<!-- R125&#45;&gt;R223 -->
<g id="edge5" class="edge">
<title>R125&#45;&gt;R223</title>
<path fill="none" stroke="black" stroke-width="2" d="M689.52,-151.63C699.44,-145.03 710.94,-138.68 722.5,-135.07 898.13,-80.24 1120.19,-95.88 1222.58,-107.52"/>
<polygon fill="black" stroke="black" stroke-width="2" points="1219.95,-111.08 1230.29,-108.77 1220.76,-104.13 1219.95,-111.08"/>
<text text-anchor="middle" x="969.5" y="-144.07" font-family="Times New Roman,serif" font-size="30.00"> &#160;&#160;576 &#160;&#160;33% &#160;&#160;2.18e&#45;15 mol/s &#160;&#160;&#160;1.00E+00</text>
</g>
<!-- R342 -->
<g id="node7" class="node">
<title>R342</title>
<g id="a_node7"><a xlink:href="342.svg" xlink:title="R342">
<polygon fill="cornsilk" stroke="none" points="1327,-73.57 1233,-73.57 1233,-26.57 1327,-26.57 1327,-73.57"/>
<text text-anchor="middle" x="1280" y="-41.57" font-family="Times New Roman,serif" font-size="35.00">R342</text>
</a>
</g>
</g>
<!-- R125&#45;&gt;R342 -->
<g id="edge6" class="edge">
<title>R125&#45;&gt;R342</title>
<path fill="none" stroke="black" stroke-width="2" d="M665.24,-151.64C672.75,-124.25 689.48,-80.11 722.5,-60.07 881.63,36.5 1116.38,-6.6 1222.84,-33.86"/>
<polygon fill="black" stroke="black" stroke-width="2" points="1220.79,-37.46 1231.35,-36.6 1222.56,-30.69 1220.79,-37.46"/>
<text text-anchor="middle" x="969.5" y="-69.07" font-family="Times New Roman,serif" font-size="30.00"> &#160;&#160;577 &#160;&#160;33% &#160;&#160;2.18e&#45;15 mol/s &#160;&#160;&#160;1.00E+00</text>
</g>
<!-- R30 -->
<g id="node2" class="node">
<title>R30</title>
<g id="a_node2"><a xlink:href="30.svg" xlink:title="R30">
<polygon fill="cornsilk" stroke="none" points="76,-231.57 0,-231.57 0,-184.57 76,-184.57 76,-231.57"/>
<text text-anchor="middle" x="38" y="-199.57" font-family="Times New Roman,serif" font-size="35.00">R30</text>
</a>
</g>
</g>
<!-- R30&#45;&gt;R125 -->
<g id="edge1" class="edge">
<title>R30&#45;&gt;R125</title>
<path fill="none" stroke="black" stroke-width="6" d="M75.78,-208.65C162.98,-209.59 389.5,-209.56 591.46,-187.19"/>
<polygon fill="black" stroke="black" stroke-width="6" points="587.5,-197.52 606.17,-184.8 585.1,-176.66 587.5,-197.52"/>
<text text-anchor="middle" x="348.5" y="-217.07" font-family="Times New Roman,serif" font-size="30.00"> &#160;&#160;177 &#160;&#160;100% &#160;&#160;2.18e&#45;15 mol/s &#160;&#160;&#160;1.00E+00</text>
</g>
<!-- R1 -->
<g id="node3" class="node">
<title>R1</title>
<g id="a_node3"><a xlink:href="1.svg" xlink:title="R1">
<polygon fill="cornsilk" stroke="none" points="67,-166.57 9,-166.57 9,-119.57 67,-119.57 67,-166.57"/>
<text text-anchor="middle" x="38" y="-134.57" font-family="Times New Roman,serif" font-size="35.00">R1</text>
</a>
</g>
</g>
<!-- R1&#45;&gt;R125 -->
<g id="edge2" class="edge">
<title>R1&#45;&gt;R125</title>
<path fill="none" stroke="black" stroke-width="6" d="M66.97,-140.04C147.17,-132.08 384.92,-113.54 591.62,-151.37"/>
<polygon fill="black" stroke="black" stroke-width="6" points="584.53,-160.85 606.16,-154.33 588.52,-140.23 584.53,-160.85"/>
<text text-anchor="middle" x="348.5" y="-162.07" font-family="Times New Roman,serif" font-size="30.00"> &#160;&#160;177 &#160;&#160;100% &#160;&#160;2.18e&#45;15 mol/s &#160;&#160;&#160;1.00E+00</text>
</g>
</g>
</svg>
