<?xml version="1.0" encoding="UTF-8" standalone="no"?>
<!DOCTYPE svg PUBLIC "-//W3C//DTD SVG 1.1//EN"
 "http://www.w3.org/Graphics/SVG/1.1/DTD/svg11.dtd">
<!-- Generated by graphviz version 8.0.3 (20230416.2022)
 -->
<!-- Title: G Pages: 1 -->
<svg width="640pt" height="127pt"
 viewBox="0.00 0.00 720.00 143.44" xmlns="http://www.w3.org/2000/svg" xmlns:xlink="http://www.w3.org/1999/xlink">
<g id="graph0" class="graph" transform="scale(0.479401 0.479401) rotate(0) translate(4 261.96)">
<title>G</title>
<polygon fill="white" stroke="none" points="-4,4 -4,-261.96 1331,-261.96 1331,4 -4,4"/>
<text text-anchor="middle" x="663.5" y="-225.16" font-family="Arial" font-size="36.00" fill="blue">Reaction Path Analysis</text>
<!-- R126 -->
<g id="node1" class="node">
<title>R126</title>
<g id="a_node1"><a xlink:href="126.svg" xlink:title="R126">
<polygon fill="cornsilk" stroke="none" points="706,-130.46 612,-130.46 612,-83.46 706,-83.46 706,-130.46"/>
<text text-anchor="middle" x="659" y="-98.46" font-family="Times New Roman,serif" font-size="35.00">R126</text>
</a>
</g>
</g>
<!-- R188 -->
<g id="node4" class="node">
<title>R188</title>
<g id="a_node4"><a xlink:href="188.svg" xlink:title="R188">
<polygon fill="cornsilk" stroke="none" points="1327,-186.46 1233,-186.46 1233,-139.46 1327,-139.46 1327,-186.46"/>
<text text-anchor="middle" x="1280" y="-154.46" font-family="Times New Roman,serif" font-size="35.00">R188</text>
</a>
</g>
</g>
<!-- R126&#45;&gt;R188 -->
<g id="edge3" class="edge">
<title>R126&#45;&gt;R188</title>
<path fill="none" stroke="black" stroke-width="2" d="M696.49,-130.39C704.75,-134.66 713.69,-138.53 722.5,-140.96 899.68,-189.78 1120.54,-178.23 1222.54,-169.04"/>
<polygon fill="black" stroke="black" stroke-width="2" points="1220.58,-172.46 1230.21,-168.05 1219.93,-165.49 1220.58,-172.46"/>
<text text-anchor="middle" x="969.5" y="-185.96" font-family="Times New Roman,serif" font-size="30.00"> &#160;&#160;491 &#160;&#160;25% &#160;&#160;4.67e&#45;08 mol/s &#160;&#160;&#160;1.00E+00</text>
</g>
<!-- R266 -->
<g id="node5" class="node">
<title>R266</title>
<g id="a_node5"><a xlink:href="266.svg" xlink:title="R266">
<polygon fill="cornsilk" stroke="none" points="1327,-98.46 1233,-98.46 1233,-51.46 1327,-51.46 1327,-98.46"/>
<text text-anchor="middle" x="1280" y="-66.46" font-family="Times New Roman,serif" font-size="35.00">R266</text>
</a>
</g>
</g>
<!-- R126&#45;&gt;R266 -->
<g id="edge4" class="edge">
<title>R126&#45;&gt;R266</title>
<path fill="none" stroke="black" d="M705.94,-106.99C801.31,-106.65 1027.68,-103.73 1216.5,-84.96 1218.34,-84.77 1220.21,-84.57 1222.1,-84.35"/>
<polygon fill="black" stroke="black" points="1222.53,-87.7 1232,-82.95 1221.64,-80.75 1222.53,-87.7"/>
<text text-anchor="middle" x="969.5" y="-114.96" font-family="Times New Roman,serif" font-size="30.00"> &#160;&#160;654 &#160;&#160;0% &#160;&#160;1.01e&#45;11 mol/s &#160;&#160;&#160;1.00E+00</text>
</g>
<!-- R126&#45;&gt;R266 -->
<g id="edge5" class="edge">
<title>R126&#45;&gt;R266</title>
<path fill="none" stroke="black" stroke-width="4" d="M677.16,-83.66C688.39,-70.46 704.33,-55.18 722.5,-47.96 920.45,30.72 996.91,-1.42 1212.97,-48.36"/>
<polygon fill="black" stroke="black" stroke-width="4" points="1207.25,-54.36 1228.27,-51.72 1210.19,-40.68 1207.25,-54.36"/>
<text text-anchor="middle" x="969.5" y="-56.96" font-family="Times New Roman,serif" font-size="30.00"> &#160;&#160;747 &#160;&#160;74% &#160;&#160;1.34e&#45;07 mol/s &#160;&#160;&#160;7.55E&#45;05</text>
</g>
<!-- R31 -->
<g id="node2" class="node">
<title>R31</title>
<g id="a_node2"><a xlink:href="31.svg" xlink:title="R31">
<polygon fill="cornsilk" stroke="none" points="76,-163.46 0,-163.46 0,-116.46 76,-116.46 76,-163.46"/>
<text text-anchor="middle" x="38" y="-131.46" font-family="Times New Roman,serif" font-size="35.00">R31</text>
</a>
</g>
</g>
<!-- R31&#45;&gt;R126 -->
<g id="edge1" class="edge">
<title>R31&#45;&gt;R126</title>
<path fill="none" stroke="black" stroke-width="6" d="M75.78,-140.53C162.98,-141.47 389.5,-141.44 591.46,-119.07"/>
<polygon fill="black" stroke="black" stroke-width="6" points="587.5,-129.4 606.17,-116.69 585.1,-108.54 587.5,-129.4"/>
<text text-anchor="middle" x="348.5" y="-148.96" font-family="Times New Roman,serif" font-size="30.00"> &#160;&#160;178 &#160;&#160;100% &#160;&#160;4.67e&#45;08 mol/s &#160;&#160;&#160;1.00E+00</text>
</g>
<!-- R1 -->
<g id="node3" class="node">
<title>R1</title>
<g id="a_node3"><a xlink:href="1.svg" xlink:title="R1">
<polygon fill="cornsilk" stroke="none" points="67,-98.46 9,-98.46 9,-51.46 67,-51.46 67,-98.46"/>
<text text-anchor="middle" x="38" y="-66.46" font-family="Times New Roman,serif" font-size="35.00">R1</text>
</a>
</g>
</g>
<!-- R1&#45;&gt;R126 -->
<g id="edge2" class="edge">
<title>R1&#45;&gt;R126</title>
<path fill="none" stroke="black" stroke-width="6" d="M66.97,-71.93C147.17,-63.96 384.92,-45.43 591.62,-83.25"/>
<polygon fill="black" stroke="black" stroke-width="6" points="584.53,-92.73 606.16,-86.22 588.52,-72.11 584.53,-92.73"/>
<text text-anchor="middle" x="348.5" y="-93.96" font-family="Times New Roman,serif" font-size="30.00"> &#160;&#160;178 &#160;&#160;100% &#160;&#160;4.67e&#45;08 mol/s &#160;&#160;&#160;1.00E+00</text>
</g>
</g>
</svg>
