<?xml version="1.0" encoding="UTF-8" standalone="no"?>
<!DOCTYPE svg PUBLIC "-//W3C//DTD SVG 1.1//EN"
 "http://www.w3.org/Graphics/SVG/1.1/DTD/svg11.dtd">
<!-- Generated by graphviz version 8.0.3 (20230416.2022)
 -->
<!-- Title: G Pages: 1 -->
<svg width="640pt" height="90pt"
 viewBox="0.00 0.00 720.00 101.59" xmlns="http://www.w3.org/2000/svg" xmlns:xlink="http://www.w3.org/1999/xlink">
<g id="graph0" class="graph" transform="scale(0.479401 0.479401) rotate(0) translate(4 184.36)">
<title>G</title>
<polygon fill="white" stroke="none" points="-4,4 -4,-184.36 1331,-184.36 1331,4 -4,4"/>
<text text-anchor="middle" x="663.5" y="-147.56" font-family="Arial" font-size="36.00" fill="blue">Reaction Path Analysis</text>
<!-- R127 -->
<g id="node1" class="node">
<title>R127</title>
<g id="a_node1"><a xlink:href="127.svg" xlink:title="R127">
<polygon fill="cornsilk" stroke="none" points="706,-89.86 612,-89.86 612,-42.86 706,-42.86 706,-89.86"/>
<text text-anchor="middle" x="659" y="-57.86" font-family="Times New Roman,serif" font-size="35.00">R127</text>
</a>
</g>
</g>
<!-- R273 -->
<g id="node4" class="node">
<title>R273</title>
<g id="a_node4"><a xlink:href="273.svg" xlink:title="R273">
<polygon fill="cornsilk" stroke="none" points="1327,-89.86 1233,-89.86 1233,-42.86 1327,-42.86 1327,-89.86"/>
<text text-anchor="middle" x="1280" y="-57.86" font-family="Times New Roman,serif" font-size="35.00">R273</text>
</a>
</g>
</g>
<!-- R127&#45;&gt;R273 -->
<g id="edge3" class="edge">
<title>R127&#45;&gt;R273</title>
<path fill="none" stroke="black" d="M705.76,-71.06C712.54,-71.6 719.45,-72.06 726,-72.36 942.22,-82.16 996.78,-82.16 1213,-72.36 1216.07,-72.22 1219.22,-72.04 1222.4,-71.84"/>
<polygon fill="black" stroke="black" points="1222.51,-75.27 1232.24,-71.06 1222.01,-68.28 1222.51,-75.27"/>
<text text-anchor="middle" x="969.5" y="-88.36" font-family="Times New Roman,serif" font-size="30.00"> &#160;&#160;655 &#160;&#160;0% &#160;&#160;2.2e&#45;26 mol/s &#160;&#160;&#160;9.99E&#45;01</text>
</g>
<!-- R127&#45;&gt;R273 -->
<g id="edge4" class="edge">
<title>R127&#45;&gt;R273</title>
<path fill="none" stroke="black" stroke-width="5" d="M703.06,-42.87C710.52,-39.76 718.34,-37.07 726,-35.36 937.25,11.79 1001.75,11.79 1213,-35.36 1214.08,-35.6 1215.16,-35.86 1216.24,-36.13"/>
<polygon fill="black" stroke="black" stroke-width="5" points="1209.18,-42.68 1230.94,-40.87 1214.85,-26.12 1209.18,-42.68"/>
<text text-anchor="middle" x="969.5" y="-44.36" font-family="Times New Roman,serif" font-size="30.00"> &#160;&#160;755 &#160;&#160;99% &#160;&#160;3.13e&#45;23 mol/s &#160;&#160;&#160;7.02E&#45;04</text>
</g>
<!-- R32 -->
<g id="node2" class="node">
<title>R32</title>
<g id="a_node2"><a xlink:href="32.svg" xlink:title="R32">
<polygon fill="cornsilk" stroke="none" points="76,-122.86 0,-122.86 0,-75.86 76,-75.86 76,-122.86"/>
<text text-anchor="middle" x="38" y="-90.86" font-family="Times New Roman,serif" font-size="35.00">R32</text>
</a>
</g>
</g>
<!-- R32&#45;&gt;R127 -->
<g id="edge1" class="edge">
<title>R32&#45;&gt;R127</title>
<path fill="none" stroke="black" stroke-width="6" d="M75.78,-99.93C162.98,-100.87 389.5,-100.84 591.46,-78.47"/>
<polygon fill="black" stroke="black" stroke-width="6" points="587.5,-88.8 606.17,-76.09 585.1,-67.94 587.5,-88.8"/>
<text text-anchor="middle" x="348.5" y="-108.36" font-family="Times New Roman,serif" font-size="30.00"> &#160;&#160;179 &#160;&#160;100% &#160;&#160;2.18e&#45;15 mol/s &#160;&#160;&#160;1.00E+00</text>
</g>
<!-- R1 -->
<g id="node3" class="node">
<title>R1</title>
<g id="a_node3"><a xlink:href="1.svg" xlink:title="R1">
<polygon fill="cornsilk" stroke="none" points="67,-57.86 9,-57.86 9,-10.86 67,-10.86 67,-57.86"/>
<text text-anchor="middle" x="38" y="-25.86" font-family="Times New Roman,serif" font-size="35.00">R1</text>
</a>
</g>
</g>
<!-- R1&#45;&gt;R127 -->
<g id="edge2" class="edge">
<title>R1&#45;&gt;R127</title>
<path fill="none" stroke="black" stroke-width="6" d="M66.97,-31.33C147.17,-23.36 384.92,-4.83 591.62,-42.65"/>
<polygon fill="black" stroke="black" stroke-width="6" points="584.53,-52.13 606.16,-45.62 588.52,-31.51 584.53,-52.13"/>
<text text-anchor="middle" x="348.5" y="-53.36" font-family="Times New Roman,serif" font-size="30.00"> &#160;&#160;179 &#160;&#160;100% &#160;&#160;2.18e&#45;15 mol/s &#160;&#160;&#160;1.00E+00</text>
</g>
</g>
</svg>
