<?xml version="1.0" encoding="UTF-8" standalone="no"?>
<!DOCTYPE svg PUBLIC "-//W3C//DTD SVG 1.1//EN"
 "http://www.w3.org/Graphics/SVG/1.1/DTD/svg11.dtd">
<!-- Generated by graphviz version 8.0.3 (20230416.2022)
 -->
<!-- Title: G Pages: 1 -->
<svg width="640pt" height="94pt"
 viewBox="0.00 0.00 720.00 105.35" xmlns="http://www.w3.org/2000/svg" xmlns:xlink="http://www.w3.org/1999/xlink">
<g id="graph0" class="graph" transform="scale(0.49574 0.49574) rotate(0) translate(4 184.9)">
<title>G</title>
<polygon fill="white" stroke="none" points="-4,4 -4,-184.9 1287,-184.9 1287,4 -4,4"/>
<text text-anchor="middle" x="641.5" y="-148.1" font-family="Arial" font-size="36.00" fill="blue">Reaction Path Analysis</text>
<!-- R129 -->
<g id="node1" class="node">
<title>R129</title>
<g id="a_node1"><a xlink:href="129.svg" xlink:title="R129">
<polygon fill="cornsilk" stroke="none" points="684,-90.4 590,-90.4 590,-43.4 684,-43.4 684,-90.4"/>
<text text-anchor="middle" x="637" y="-58.4" font-family="Times New Roman,serif" font-size="35.00">R129</text>
</a>
</g>
</g>
<!-- R261 -->
<g id="node4" class="node">
<title>R261</title>
<g id="a_node4"><a xlink:href="261.svg" xlink:title="R261">
<polygon fill="cornsilk" stroke="none" points="1283,-90.4 1189,-90.4 1189,-43.4 1283,-43.4 1283,-90.4"/>
<text text-anchor="middle" x="1236" y="-58.4" font-family="Times New Roman,serif" font-size="35.00">R261</text>
</a>
</g>
</g>
<!-- R129&#45;&gt;R261 -->
<g id="edge3" class="edge">
<title>R129&#45;&gt;R261</title>
<path fill="none" stroke="black" d="M683.7,-71.8C689.35,-72.25 695.06,-72.64 700.5,-72.9 910.04,-82.94 962.96,-82.94 1172.5,-72.9 1174.46,-72.81 1176.45,-72.7 1178.45,-72.57"/>
<polygon fill="black" stroke="black" points="1178.57,-76 1188.3,-71.8 1178.07,-69.02 1178.57,-76"/>
<text text-anchor="middle" x="936.5" y="-88.9" font-family="Times New Roman,serif" font-size="30.00"> &#160;&#160;657 &#160;&#160;0% &#160;&#160;0.00272 mol/s &#160;&#160;&#160;1.00E+00</text>
</g>
<!-- R129&#45;&gt;R261 -->
<g id="edge4" class="edge">
<title>R129&#45;&gt;R261</title>
<path fill="none" stroke="black" stroke-width="5" d="M678.68,-43.43C685.75,-40.32 693.19,-37.62 700.5,-35.9 904.74,11.97 968.26,11.97 1172.5,-35.9 1173.19,-36.06 1173.87,-36.23 1174.56,-36.41"/>
<polygon fill="black" stroke="black" stroke-width="5" points="1167.54,-42.98 1189.32,-41.43 1173.4,-26.49 1167.54,-42.98"/>
<text text-anchor="middle" x="936.5" y="-44.9" font-family="Times New Roman,serif" font-size="30.00"> &#160;&#160;740 &#160;&#160;99% &#160;&#160;219.0 mol/s &#160;&#160;&#160;1.24E&#45;05</text>
</g>
<!-- R34 -->
<g id="node2" class="node">
<title>R34</title>
<g id="a_node2"><a xlink:href="34.svg" xlink:title="R34">
<polygon fill="cornsilk" stroke="none" points="76,-123.4 0,-123.4 0,-76.4 76,-76.4 76,-123.4"/>
<text text-anchor="middle" x="38" y="-91.4" font-family="Times New Roman,serif" font-size="35.00">R34</text>
</a>
</g>
</g>
<!-- R34&#45;&gt;R129 -->
<g id="edge1" class="edge">
<title>R34&#45;&gt;R129</title>
<path fill="none" stroke="black" stroke-width="6" d="M75.96,-100.39C160.81,-101.1 376.45,-100.53 569.47,-79.03"/>
<polygon fill="black" stroke="black" stroke-width="6" points="565.51,-89.36 584.17,-76.63 563.09,-68.5 565.51,-89.36"/>
<text text-anchor="middle" x="337.5" y="-108.9" font-family="Times New Roman,serif" font-size="30.00"> &#160;&#160;181 &#160;&#160;100% &#160;&#160;0.0342 mol/s &#160;&#160;&#160;1.00E+00</text>
</g>
<!-- R1 -->
<g id="node3" class="node">
<title>R1</title>
<g id="a_node3"><a xlink:href="1.svg" xlink:title="R1">
<polygon fill="cornsilk" stroke="none" points="67,-58.4 9,-58.4 9,-11.4 67,-11.4 67,-58.4"/>
<text text-anchor="middle" x="38" y="-26.4" font-family="Times New Roman,serif" font-size="35.00">R1</text>
</a>
</g>
</g>
<!-- R1&#45;&gt;R129 -->
<g id="edge2" class="edge">
<title>R1&#45;&gt;R129</title>
<path fill="none" stroke="black" stroke-width="6" d="M66.73,-31.93C144.52,-24.32 371.5,-7 569.56,-43.19"/>
<polygon fill="black" stroke="black" stroke-width="6" points="562.53,-52.68 584.16,-46.17 566.52,-32.06 562.53,-52.68"/>
<text text-anchor="middle" x="337.5" y="-53.9" font-family="Times New Roman,serif" font-size="30.00"> &#160;&#160;181 &#160;&#160;100% &#160;&#160;0.0342 mol/s &#160;&#160;&#160;1.00E+00</text>
</g>
</g>
</svg>
