<?xml version="1.0" encoding="UTF-8" standalone="no"?>
<!DOCTYPE svg PUBLIC "-//W3C//DTD SVG 1.1//EN"
 "http://www.w3.org/Graphics/SVG/1.1/DTD/svg11.dtd">
<!-- Generated by graphviz version 8.0.3 (20230416.2022)
 -->
<!-- Title: G Pages: 1 -->
<svg width="640pt" height="246pt"
 viewBox="0.00 0.00 720.00 277.00" xmlns="http://www.w3.org/2000/svg" xmlns:xlink="http://www.w3.org/1999/xlink">
<g id="graph0" class="graph" transform="scale(0.490421 0.490421) rotate(0) translate(4 498.06)">
<title>G</title>
<polygon fill="white" stroke="none" points="-4,4 -4,-498.06 1301,-498.06 1301,4 -4,4"/>
<text text-anchor="middle" x="648.5" y="-461.26" font-family="Arial" font-size="36.00" fill="blue">Reaction Path Analysis</text>
<!-- R130 -->
<g id="node1" class="node">
<title>R130</title>
<g id="a_node1"><a xlink:href="130.svg" xlink:title="R130">
<polygon fill="cornsilk" stroke="none" points="691,-232.56 597,-232.56 597,-185.56 691,-185.56 691,-232.56"/>
<text text-anchor="middle" x="644" y="-200.56" font-family="Times New Roman,serif" font-size="35.00">R130</text>
</a>
</g>
</g>
<!-- R134 -->
<g id="node7" class="node">
<title>R134</title>
<g id="a_node7"><a xlink:href="134.svg" xlink:title="R134">
<polygon fill="cornsilk" stroke="none" points="1297,-362.56 1203,-362.56 1203,-315.56 1297,-315.56 1297,-362.56"/>
<text text-anchor="middle" x="1250" y="-330.56" font-family="Times New Roman,serif" font-size="35.00">R134</text>
</a>
</g>
</g>
<!-- R130&#45;&gt;R134 -->
<g id="edge6" class="edge">
<title>R130&#45;&gt;R134</title>
<path fill="none" stroke="black" stroke-width="2" d="M650.32,-232.51C657.24,-257 671.92,-294.27 700,-312.06 855.09,-410.32 1087.15,-376.14 1192.89,-353.09"/>
<polygon fill="black" stroke="black" stroke-width="2" points="1192.33,-356.35 1201.33,-350.76 1190.8,-349.52 1192.33,-356.35"/>
<text text-anchor="middle" x="947" y="-387.06" font-family="Times New Roman,serif" font-size="30.00"> &#160;&#160;492 &#160;&#160;21% &#160;&#160;4.67e&#45;08 mol/s &#160;&#160;&#160;1.00E+00</text>
</g>
<!-- R184 -->
<g id="node8" class="node">
<title>R184</title>
<g id="a_node8"><a xlink:href="184.svg" xlink:title="R184">
<polygon fill="cornsilk" stroke="none" points="1297,-297.56 1203,-297.56 1203,-250.56 1297,-250.56 1297,-297.56"/>
<text text-anchor="middle" x="1250" y="-265.56" font-family="Times New Roman,serif" font-size="35.00">R184</text>
</a>
</g>
</g>
<!-- R130&#45;&gt;R184 -->
<g id="edge7" class="edge">
<title>R130&#45;&gt;R184</title>
<path fill="none" stroke="black" stroke-width="2" d="M673.41,-232.39C681.54,-237.85 690.72,-242.97 700,-246.06 790,-276.04 1071.28,-276.34 1192.49,-274.98"/>
<polygon fill="black" stroke="black" stroke-width="2" points="1190.41,-278.47 1200.37,-274.85 1190.32,-271.47 1190.41,-278.47"/>
<text text-anchor="middle" x="947" y="-284.06" font-family="Times New Roman,serif" font-size="30.00"> &#160;&#160;493 &#160;&#160;21% &#160;&#160;4.67e&#45;08 mol/s &#160;&#160;&#160;1.00E+00</text>
</g>
<!-- R343 -->
<g id="node9" class="node">
<title>R343</title>
<g id="a_node9"><a xlink:href="343.svg" xlink:title="R343">
<polygon fill="cornsilk" stroke="none" points="1297,-232.56 1203,-232.56 1203,-185.56 1297,-185.56 1297,-232.56"/>
<text text-anchor="middle" x="1250" y="-200.56" font-family="Times New Roman,serif" font-size="35.00">R343</text>
</a>
</g>
</g>
<!-- R130&#45;&gt;R343 -->
<g id="edge8" class="edge">
<title>R130&#45;&gt;R343</title>
<path fill="none" stroke="black" stroke-width="2" d="M690.89,-209.06C799.81,-209.06 1073.67,-209.06 1192.51,-209.06"/>
<polygon fill="black" stroke="black" stroke-width="2" points="1190.18,-212.56 1200.18,-209.06 1190.18,-205.56 1190.18,-212.56"/>
<text text-anchor="middle" x="947" y="-218.06" font-family="Times New Roman,serif" font-size="30.00"> &#160;&#160;578 &#160;&#160;21% &#160;&#160;4.67e&#45;08 mol/s &#160;&#160;&#160;1.00E+00</text>
</g>
<!-- R344 -->
<g id="node10" class="node">
<title>R344</title>
<g id="a_node10"><a xlink:href="344.svg" xlink:title="R344">
<polygon fill="cornsilk" stroke="none" points="1297,-167.56 1203,-167.56 1203,-120.56 1297,-120.56 1297,-167.56"/>
<text text-anchor="middle" x="1250" y="-135.56" font-family="Times New Roman,serif" font-size="35.00">R344</text>
</a>
</g>
</g>
<!-- R130&#45;&gt;R344 -->
<g id="edge9" class="edge">
<title>R130&#45;&gt;R344</title>
<path fill="none" stroke="black" stroke-width="2" d="M673.41,-185.73C681.54,-180.27 690.72,-175.15 700,-172.06 871.88,-114.8 1090.73,-127.06 1192.38,-137.23"/>
<polygon fill="black" stroke="black" stroke-width="2" points="1189.71,-140.78 1200.02,-138.33 1190.43,-133.82 1189.71,-140.78"/>
<text text-anchor="middle" x="947" y="-181.06" font-family="Times New Roman,serif" font-size="30.00"> &#160;&#160;579 &#160;&#160;21% &#160;&#160;4.67e&#45;08 mol/s &#160;&#160;&#160;1.00E+00</text>
</g>
<!-- R345 -->
<g id="node11" class="node">
<title>R345</title>
<g id="a_node11"><a xlink:href="345.svg" xlink:title="R345">
<polygon fill="cornsilk" stroke="none" points="1297,-102.56 1203,-102.56 1203,-55.56 1297,-55.56 1297,-102.56"/>
<text text-anchor="middle" x="1250" y="-70.56" font-family="Times New Roman,serif" font-size="35.00">R345</text>
</a>
</g>
</g>
<!-- R130&#45;&gt;R345 -->
<g id="edge10" class="edge">
<title>R130&#45;&gt;R345</title>
<path fill="none" stroke="black" d="M648.46,-185.66C653.97,-157.74 667.63,-112.18 700,-91.06 853.6,9.19 1086.4,-34.47 1192.61,-62.35"/>
<polygon fill="black" stroke="black" points="1191.53,-65.95 1202.1,-65.16 1193.34,-59.19 1191.53,-65.95"/>
<text text-anchor="middle" x="947" y="-100.06" font-family="Times New Roman,serif" font-size="30.00"> &#160;&#160;580 &#160;&#160;15% &#160;&#160;3.52e&#45;08 mol/s &#160;&#160;&#160;8.02E&#45;01</text>
</g>
<!-- R1 -->
<g id="node2" class="node">
<title>R1</title>
<g id="a_node2"><a xlink:href="1.svg" xlink:title="R1">
<polygon fill="cornsilk" stroke="none" points="67,-390.56 9,-390.56 9,-343.56 67,-343.56 67,-390.56"/>
<text text-anchor="middle" x="38" y="-358.56" font-family="Times New Roman,serif" font-size="35.00">R1</text>
</a>
</g>
</g>
<!-- R1&#45;&gt;R130 -->
<g id="edge1" class="edge">
<title>R1&#45;&gt;R130</title>
<path fill="none" stroke="black" stroke-width="2" d="M66.8,-375.39C153.37,-399.54 422.18,-460.67 588,-344.06 620.78,-321.01 634.05,-274.83 639.4,-242.95"/>
<polygon fill="black" stroke="black" stroke-width="2" points="642.97,-244.74 640.99,-234.33 636.05,-243.71 642.97,-244.74"/>
<text text-anchor="middle" x="341" y="-422.06" font-family="Times New Roman,serif" font-size="30.00"> &#160;&#160;182 &#160;&#160;39% &#160;&#160;4.67e&#45;08 mol/s &#160;&#160;&#160;1.00E+00</text>
</g>
<!-- R41 -->
<g id="node3" class="node">
<title>R41</title>
<g id="a_node3"><a xlink:href="41.svg" xlink:title="R41">
<polygon fill="cornsilk" stroke="none" points="76,-325.56 0,-325.56 0,-278.56 76,-278.56 76,-325.56"/>
<text text-anchor="middle" x="38" y="-293.56" font-family="Times New Roman,serif" font-size="35.00">R41</text>
</a>
</g>
</g>
<!-- R41&#45;&gt;R130 -->
<g id="edge2" class="edge">
<title>R41&#45;&gt;R130</title>
<path fill="none" stroke="black" stroke-width="2" d="M75.93,-303.82C184.02,-308.4 497.74,-317.42 588,-273.06 602.39,-265.99 614.53,-253.27 623.71,-241.02"/>
<polygon fill="black" stroke="black" stroke-width="2" points="625.97,-244.46 628.86,-234.27 620.25,-240.44 625.97,-244.46"/>
<text text-anchor="middle" x="341" y="-316.06" font-family="Times New Roman,serif" font-size="30.00"> &#160;&#160;182 &#160;&#160;39% &#160;&#160;4.67e&#45;08 mol/s &#160;&#160;&#160;1.00E+00</text>
</g>
<!-- R2 -->
<g id="node4" class="node">
<title>R2</title>
<g id="a_node4"><a xlink:href="2.svg" xlink:title="R2">
<polygon fill="cornsilk" stroke="none" points="67,-260.56 9,-260.56 9,-213.56 67,-213.56 67,-260.56"/>
<text text-anchor="middle" x="38" y="-228.56" font-family="Times New Roman,serif" font-size="35.00">R2</text>
</a>
</g>
</g>
<!-- R2&#45;&gt;R130 -->
<g id="edge3" class="edge">
<title>R2&#45;&gt;R130</title>
<path fill="none" stroke="black" stroke-width="2" d="M66.75,-236.62C145.98,-235.22 380.28,-230.1 586.38,-215.1"/>
<polygon fill="black" stroke="black" stroke-width="2" points="584.39,-218.53 594.11,-214.3 583.87,-211.55 584.39,-218.53"/>
<text text-anchor="middle" x="341" y="-245.06" font-family="Times New Roman,serif" font-size="30.00"> &#160;&#160;238 &#160;&#160;39% &#160;&#160;4.67e&#45;08 mol/s &#160;&#160;&#160;1.00E+00</text>
</g>
<!-- R26 -->
<g id="node5" class="node">
<title>R26</title>
<g id="a_node5"><a xlink:href="26.svg" xlink:title="R26">
<polygon fill="cornsilk" stroke="none" points="76,-195.56 0,-195.56 0,-148.56 76,-148.56 76,-195.56"/>
<text text-anchor="middle" x="38" y="-163.56" font-family="Times New Roman,serif" font-size="35.00">R26</text>
</a>
</g>
</g>
<!-- R26&#45;&gt;R130 -->
<g id="edge4" class="edge">
<title>R26&#45;&gt;R130</title>
<path fill="none" stroke="black" stroke-width="2" d="M75.68,-170.1C182.37,-164.76 491.1,-152.07 588,-178.06 591.18,-178.91 594.37,-179.99 597.52,-181.23"/>
<polygon fill="black" stroke="black" stroke-width="2" points="594.87,-183.77 605.42,-184.67 597.73,-177.39 594.87,-183.77"/>
<text text-anchor="middle" x="341" y="-187.06" font-family="Times New Roman,serif" font-size="30.00"> &#160;&#160;238 &#160;&#160;39% &#160;&#160;4.67e&#45;08 mol/s &#160;&#160;&#160;1.00E+00</text>
</g>
<!-- R55 -->
<g id="node6" class="node">
<title>R55</title>
<g id="a_node6"><a xlink:href="55.svg" xlink:title="R55">
<polygon fill="cornsilk" stroke="none" points="76,-111.56 0,-111.56 0,-64.56 76,-64.56 76,-111.56"/>
<text text-anchor="middle" x="38" y="-79.56" font-family="Times New Roman,serif" font-size="35.00">R55</text>
</a>
</g>
</g>
<!-- R55&#45;&gt;R130 -->
<g id="edge5" class="edge">
<title>R55&#45;&gt;R130</title>
<path fill="none" stroke="black" d="M75.74,-99.28C81.79,-100.78 88.04,-102.13 94,-103.06 148.28,-111.56 540.26,-97.87 588,-125.06 607.55,-136.2 621.37,-157.46 630.27,-175.81"/>
<polygon fill="black" stroke="black" points="627.4,-176.95 634.71,-184.62 633.77,-174.07 627.4,-176.95"/>
<text text-anchor="middle" x="341" y="-134.06" font-family="Times New Roman,serif" font-size="30.00"> &#160;&#160;443 &#160;&#160;0% &#160;&#160;1.01e&#45;11 mol/s &#160;&#160;&#160;1.00E+00</text>
</g>
<!-- R55&#45;&gt;R130 -->
<g id="edge11" class="edge">
<title>R55&#45;&gt;R130</title>
<path fill="none" stroke="black" stroke-width="2" d="M76,-71.07C81.91,-68.99 88.04,-67.21 94,-66.06 309.59,-24.54 407.02,58.24 588,-66.06 623.36,-90.35 636,-140.78 640.51,-174.78"/>
<polygon fill="black" stroke="black" stroke-width="2" points="637.13,-173.09 641.74,-182.62 644.09,-172.29 637.13,-173.09"/>
<text text-anchor="middle" x="341" y="-75.06" font-family="Times New Roman,serif" font-size="30.00"> &#160;&#160;658 &#160;&#160;20% &#160;&#160;2.48e&#45;08 mol/s &#160;&#160;&#160;4.07E&#45;04</text>
</g>
</g>
</svg>
