<?xml version="1.0" encoding="UTF-8" standalone="no"?>
<!DOCTYPE svg PUBLIC "-//W3C//DTD SVG 1.1//EN"
 "http://www.w3.org/Graphics/SVG/1.1/DTD/svg11.dtd">
<!-- Generated by graphviz version 8.0.3 (20230416.2022)
 -->
<!-- Title: G Pages: 1 -->
<svg width="640pt" height="206pt"
 viewBox="0.00 0.00 720.00 231.84" xmlns="http://www.w3.org/2000/svg" xmlns:xlink="http://www.w3.org/1999/xlink">
<g id="graph0" class="graph" transform="scale(0.47619 0.47619) rotate(0) translate(4 428.77)">
<title>G</title>
<polygon fill="white" stroke="none" points="-4,4 -4,-428.77 1340,-428.77 1340,4 -4,4"/>
<text text-anchor="middle" x="668" y="-391.97" font-family="Arial" font-size="36.00" fill="blue">Reaction Path Analysis</text>
<!-- R131 -->
<g id="node1" class="node">
<title>R131</title>
<g id="a_node1"><a xlink:href="131.svg" xlink:title="R131">
<polygon fill="cornsilk" stroke="none" points="715,-201.27 621,-201.27 621,-154.27 715,-154.27 715,-201.27"/>
<text text-anchor="middle" x="668" y="-169.27" font-family="Times New Roman,serif" font-size="35.00">R131</text>
</a>
</g>
</g>
<!-- R346 -->
<g id="node6" class="node">
<title>R346</title>
<g id="a_node6"><a xlink:href="346.svg" xlink:title="R346">
<polygon fill="cornsilk" stroke="none" points="1336,-201.27 1242,-201.27 1242,-154.27 1336,-154.27 1336,-201.27"/>
<text text-anchor="middle" x="1289" y="-169.27" font-family="Times New Roman,serif" font-size="35.00">R346</text>
</a>
</g>
</g>
<!-- R131&#45;&gt;R346 -->
<g id="edge5" class="edge">
<title>R131&#45;&gt;R346</title>
<path fill="none" stroke="black" stroke-width="6" d="M714.77,-177.77C822.93,-177.77 1094.71,-177.77 1221.25,-177.77"/>
<polygon fill="black" stroke="black" stroke-width="6" points="1216.05,-188.27 1236.05,-177.77 1216.05,-167.27 1216.05,-188.27"/>
<text text-anchor="middle" x="978.5" y="-186.77" font-family="Times New Roman,serif" font-size="30.00"> &#160;&#160;581 &#160;&#160;100% &#160;&#160;2.18e&#45;15 mol/s &#160;&#160;&#160;1.00E+00</text>
</g>
<!-- R1 -->
<g id="node2" class="node">
<title>R1</title>
<g id="a_node2"><a xlink:href="1.svg" xlink:title="R1">
<polygon fill="cornsilk" stroke="none" points="76,-331.27 18,-331.27 18,-284.27 76,-284.27 76,-331.27"/>
<text text-anchor="middle" x="47" y="-299.27" font-family="Times New Roman,serif" font-size="35.00">R1</text>
</a>
</g>
</g>
<!-- R1&#45;&gt;R131 -->
<g id="edge1" class="edge">
<title>R1&#45;&gt;R131</title>
<path fill="none" stroke="black" stroke-width="3" d="M75.73,-314.77C161.61,-334.83 427.94,-384.57 604.5,-279.77 630.01,-264.62 646.52,-234.62 656.12,-211.05"/>
<polygon fill="black" stroke="black" stroke-width="3" points="658.63,-215.67 658.93,-205.08 652.09,-213.17 658.63,-215.67"/>
<text text-anchor="middle" x="357.5" y="-352.77" font-family="Times New Roman,serif" font-size="30.00"> &#160;&#160;183 &#160;&#160;49% &#160;&#160;2.18e&#45;15 mol/s &#160;&#160;&#160;1.00E+00</text>
</g>
<!-- R41 -->
<g id="node3" class="node">
<title>R41</title>
<g id="a_node3"><a xlink:href="41.svg" xlink:title="R41">
<polygon fill="cornsilk" stroke="none" points="85,-266.27 9,-266.27 9,-219.27 85,-219.27 85,-266.27"/>
<text text-anchor="middle" x="47" y="-234.27" font-family="Times New Roman,serif" font-size="35.00">R41</text>
</a>
</g>
</g>
<!-- R41&#45;&gt;R131 -->
<g id="edge2" class="edge">
<title>R41&#45;&gt;R131</title>
<path fill="none" stroke="black" stroke-width="3" d="M84.87,-243.2C192.84,-244.13 506.89,-244.15 604.5,-214.77 611.4,-212.69 618.32,-209.7 624.93,-206.3"/>
<polygon fill="black" stroke="black" stroke-width="3" points="624.28,-211.01 631.33,-203.1 620.89,-204.88 624.28,-211.01"/>
<text text-anchor="middle" x="357.5" y="-251.77" font-family="Times New Roman,serif" font-size="30.00"> &#160;&#160;183 &#160;&#160;49% &#160;&#160;2.18e&#45;15 mol/s &#160;&#160;&#160;1.00E+00</text>
</g>
<!-- R2 -->
<g id="node4" class="node">
<title>R2</title>
<g id="a_node4"><a xlink:href="2.svg" xlink:title="R2">
<polygon fill="cornsilk" stroke="none" points="76,-201.27 18,-201.27 18,-154.27 76,-154.27 76,-201.27"/>
<text text-anchor="middle" x="47" y="-169.27" font-family="Times New Roman,serif" font-size="35.00">R2</text>
</a>
</g>
</g>
<!-- R2&#45;&gt;R131 -->
<g id="edge3" class="edge">
<title>R2&#45;&gt;R131</title>
<path fill="none" stroke="black" stroke-width="3" d="M75.8,-177.77C170.43,-177.77 481.32,-177.77 610.22,-177.77"/>
<polygon fill="black" stroke="black" stroke-width="3" points="607.02,-181.27 617.02,-177.77 607.02,-174.27 607.02,-181.27"/>
<text text-anchor="middle" x="357.5" y="-186.77" font-family="Times New Roman,serif" font-size="30.00"> &#160;&#160;239 &#160;&#160;49% &#160;&#160;2.18e&#45;15 mol/s &#160;&#160;&#160;1.00E+00</text>
</g>
<!-- R26 -->
<g id="node5" class="node">
<title>R26</title>
<g id="a_node5"><a xlink:href="26.svg" xlink:title="R26">
<polygon fill="cornsilk" stroke="none" points="85,-136.27 9,-136.27 9,-89.27 85,-89.27 85,-136.27"/>
<text text-anchor="middle" x="47" y="-104.27" font-family="Times New Roman,serif" font-size="35.00">R26</text>
</a>
</g>
</g>
<!-- R26&#45;&gt;R131 -->
<g id="edge4" class="edge">
<title>R26&#45;&gt;R131</title>
<path fill="none" stroke="black" stroke-width="3" d="M84.83,-108.66C175.53,-99.8 416,-84.02 604.5,-140.77 611.4,-142.84 618.32,-145.83 624.93,-149.23"/>
<polygon fill="black" stroke="black" stroke-width="3" points="620.89,-150.65 631.33,-152.43 624.28,-144.53 620.89,-150.65"/>
<text text-anchor="middle" x="357.5" y="-149.77" font-family="Times New Roman,serif" font-size="30.00"> &#160;&#160;239 &#160;&#160;49% &#160;&#160;2.18e&#45;15 mol/s &#160;&#160;&#160;1.00E+00</text>
</g>
<!-- R123 -->
<g id="node7" class="node">
<title>R123</title>
<g id="a_node7"><a xlink:href="123.svg" xlink:title="R123">
<polygon fill="cornsilk" stroke="none" points="94,-71.27 0,-71.27 0,-24.27 94,-24.27 94,-71.27"/>
<text text-anchor="middle" x="47" y="-39.27" font-family="Times New Roman,serif" font-size="35.00">R123</text>
</a>
</g>
</g>
<!-- R123&#45;&gt;R131 -->
<g id="edge6" class="edge">
<title>R123&#45;&gt;R131</title>
<path fill="none" stroke="black" d="M93.73,-34.66C194.64,-8.6 440.42,39.03 604.5,-61.77 633.93,-79.84 650.38,-116.94 658.93,-144.33"/>
<polygon fill="black" stroke="black" points="655.78,-145.04 661.93,-153.66 662.5,-143.09 655.78,-145.04"/>
<text text-anchor="middle" x="357.5" y="-70.77" font-family="Times New Roman,serif" font-size="30.00"> &#160;&#160;651 &#160;&#160;0% &#160;&#160;2.2e&#45;26 mol/s &#160;&#160;&#160;1.00E+00</text>
</g>
</g>
</svg>
