<?xml version="1.0" encoding="UTF-8" standalone="no"?>
<!DOCTYPE svg PUBLIC "-//W3C//DTD SVG 1.1//EN"
 "http://www.w3.org/Graphics/SVG/1.1/DTD/svg11.dtd">
<!-- Generated by graphviz version 8.0.3 (20230416.2022)
 -->
<!-- Title: G Pages: 1 -->
<svg width="640pt" height="177pt"
 viewBox="0.00 0.00 720.00 198.83" xmlns="http://www.w3.org/2000/svg" xmlns:xlink="http://www.w3.org/1999/xlink">
<g id="graph0" class="graph" transform="scale(0.479401 0.479401) rotate(0) translate(4 364.66)">
<title>G</title>
<polygon fill="white" stroke="none" points="-4,4 -4,-364.66 1331,-364.66 1331,4 -4,4"/>
<text text-anchor="middle" x="663.5" y="-327.86" font-family="Arial" font-size="36.00" fill="blue">Reaction Path Analysis</text>
<!-- R133 -->
<g id="node1" class="node">
<title>R133</title>
<g id="a_node1"><a xlink:href="133.svg" xlink:title="R133">
<polygon fill="cornsilk" stroke="none" points="706,-169.16 612,-169.16 612,-122.16 706,-122.16 706,-169.16"/>
<text text-anchor="middle" x="659" y="-137.16" font-family="Times New Roman,serif" font-size="35.00">R133</text>
</a>
</g>
</g>
<!-- R192 -->
<g id="node4" class="node">
<title>R192</title>
<g id="a_node4"><a xlink:href="192.svg" xlink:title="R192">
<polygon fill="cornsilk" stroke="none" points="1327,-294.16 1233,-294.16 1233,-247.16 1327,-247.16 1327,-294.16"/>
<text text-anchor="middle" x="1280" y="-262.16" font-family="Times New Roman,serif" font-size="35.00">R192</text>
</a>
</g>
</g>
<!-- R133&#45;&gt;R192 -->
<g id="edge3" class="edge">
<title>R133&#45;&gt;R192</title>
<path fill="none" stroke="black" stroke-width="2" d="M667.65,-168.96C676.71,-192.37 694.22,-227.25 722.5,-243.66 806.05,-292.14 1097.95,-281.41 1222.25,-274.35"/>
<polygon fill="black" stroke="black" stroke-width="2" points="1220.26,-277.8 1230.04,-273.72 1219.85,-270.81 1220.26,-277.8"/>
<text text-anchor="middle" x="969.5" y="-288.66" font-family="Times New Roman,serif" font-size="30.00"> &#160;&#160;495 &#160;&#160;33% &#160;&#160;2.18e&#45;15 mol/s &#160;&#160;&#160;1.00E+00</text>
</g>
<!-- R225 -->
<g id="node5" class="node">
<title>R225</title>
<g id="a_node5"><a xlink:href="225.svg" xlink:title="R225">
<polygon fill="cornsilk" stroke="none" points="1327,-229.16 1233,-229.16 1233,-182.16 1327,-182.16 1327,-229.16"/>
<text text-anchor="middle" x="1280" y="-197.16" font-family="Times New Roman,serif" font-size="35.00">R225</text>
</a>
</g>
</g>
<!-- R133&#45;&gt;R225 -->
<g id="edge4" class="edge">
<title>R133&#45;&gt;R225</title>
<path fill="none" stroke="black" stroke-width="2" d="M693.71,-168.97C702.68,-174.07 712.64,-178.79 722.5,-181.66 814.91,-208.52 1100.02,-208.12 1222.33,-206.61"/>
<polygon fill="black" stroke="black" stroke-width="2" points="1220.34,-210.1 1230.3,-206.47 1220.25,-203.1 1220.34,-210.1"/>
<text text-anchor="middle" x="969.5" y="-215.66" font-family="Times New Roman,serif" font-size="30.00"> &#160;&#160;584 &#160;&#160;33% &#160;&#160;2.18e&#45;15 mol/s &#160;&#160;&#160;1.00E+00</text>
</g>
<!-- R347 -->
<g id="node6" class="node">
<title>R347</title>
<g id="a_node6"><a xlink:href="347.svg" xlink:title="R347">
<polygon fill="cornsilk" stroke="none" points="1327,-164.16 1233,-164.16 1233,-117.16 1327,-117.16 1327,-164.16"/>
<text text-anchor="middle" x="1280" y="-132.16" font-family="Times New Roman,serif" font-size="35.00">R347</text>
</a>
</g>
</g>
<!-- R133&#45;&gt;R347 -->
<g id="edge5" class="edge">
<title>R133&#45;&gt;R347</title>
<path fill="none" stroke="black" stroke-width="2" d="M705.77,-145.29C816.84,-144.39 1100.44,-142.1 1222.13,-141.12"/>
<polygon fill="black" stroke="black" stroke-width="2" points="1220.08,-144.61 1230.05,-141.03 1220.02,-137.61 1220.08,-144.61"/>
<text text-anchor="middle" x="969.5" y="-153.66" font-family="Times New Roman,serif" font-size="30.00"> &#160;&#160;585 &#160;&#160;33% &#160;&#160;2.18e&#45;15 mol/s &#160;&#160;&#160;1.00E+00</text>
</g>
<!-- R242 -->
<g id="node7" class="node">
<title>R242</title>
<g id="a_node7"><a xlink:href="242.svg" xlink:title="R242">
<polygon fill="cornsilk" stroke="none" points="1327,-80.16 1233,-80.16 1233,-33.16 1327,-33.16 1327,-80.16"/>
<text text-anchor="middle" x="1280" y="-48.16" font-family="Times New Roman,serif" font-size="35.00">R242</text>
</a>
</g>
</g>
<!-- R133&#45;&gt;R242 -->
<g id="edge6" class="edge">
<title>R133&#45;&gt;R242</title>
<path fill="none" stroke="black" d="M688.2,-122.19C698.39,-114.97 710.39,-107.84 722.5,-103.66 930.6,-31.86 998.04,-94.77 1216.5,-67.66 1218.43,-67.42 1220.38,-67.16 1222.36,-66.89"/>
<polygon fill="black" stroke="black" points="1222.63,-70.24 1232,-65.3 1221.59,-63.31 1222.63,-70.24"/>
<text text-anchor="middle" x="969.5" y="-112.66" font-family="Times New Roman,serif" font-size="30.00"> &#160;&#160;661 &#160;&#160;0% &#160;&#160;2.2e&#45;26 mol/s &#160;&#160;&#160;1.00E+00</text>
</g>
<!-- R133&#45;&gt;R242 -->
<g id="edge7" class="edge">
<title>R133&#45;&gt;R242</title>
<path fill="none" stroke="black" d="M665.05,-122.61C672.44,-95.16 689.1,-50.52 722.5,-30.66 816.86,25.45 1108.85,-9.16 1216.5,-30.66 1218.57,-31.07 1220.67,-31.56 1222.76,-32.1"/>
<polygon fill="black" stroke="black" points="1221.64,-35.72 1232.22,-35.25 1223.65,-29.02 1221.64,-35.72"/>
<text text-anchor="middle" x="969.5" y="-39.66" font-family="Times New Roman,serif" font-size="30.00"> &#160;&#160;710 &#160;&#160;0% &#160;&#160;8.49e&#45;20 mol/s &#160;&#160;&#160;2.59E&#45;07</text>
</g>
<!-- R42 -->
<g id="node2" class="node">
<title>R42</title>
<g id="a_node2"><a xlink:href="42.svg" xlink:title="R42">
<polygon fill="cornsilk" stroke="none" points="76,-202.16 0,-202.16 0,-155.16 76,-155.16 76,-202.16"/>
<text text-anchor="middle" x="38" y="-170.16" font-family="Times New Roman,serif" font-size="35.00">R42</text>
</a>
</g>
</g>
<!-- R42&#45;&gt;R133 -->
<g id="edge1" class="edge">
<title>R42&#45;&gt;R133</title>
<path fill="none" stroke="black" stroke-width="6" d="M75.78,-179.23C162.98,-180.17 389.5,-180.15 591.46,-157.78"/>
<polygon fill="black" stroke="black" stroke-width="6" points="587.5,-168.11 606.17,-155.39 585.1,-147.25 587.5,-168.11"/>
<text text-anchor="middle" x="348.5" y="-187.66" font-family="Times New Roman,serif" font-size="30.00"> &#160;&#160;185 &#160;&#160;100% &#160;&#160;2.18e&#45;15 mol/s &#160;&#160;&#160;1.00E+00</text>
</g>
<!-- R1 -->
<g id="node3" class="node">
<title>R1</title>
<g id="a_node3"><a xlink:href="1.svg" xlink:title="R1">
<polygon fill="cornsilk" stroke="none" points="67,-137.16 9,-137.16 9,-90.16 67,-90.16 67,-137.16"/>
<text text-anchor="middle" x="38" y="-105.16" font-family="Times New Roman,serif" font-size="35.00">R1</text>
</a>
</g>
</g>
<!-- R1&#45;&gt;R133 -->
<g id="edge2" class="edge">
<title>R1&#45;&gt;R133</title>
<path fill="none" stroke="black" stroke-width="6" d="M66.97,-110.63C147.17,-102.67 384.92,-84.13 591.62,-121.95"/>
<polygon fill="black" stroke="black" stroke-width="6" points="584.53,-131.44 606.16,-124.92 588.52,-110.82 584.53,-131.44"/>
<text text-anchor="middle" x="348.5" y="-132.66" font-family="Times New Roman,serif" font-size="30.00"> &#160;&#160;185 &#160;&#160;100% &#160;&#160;2.18e&#45;15 mol/s &#160;&#160;&#160;1.00E+00</text>
</g>
</g>
</svg>
