<?xml version="1.0" encoding="UTF-8" standalone="no"?>
<!DOCTYPE svg PUBLIC "-//W3C//DTD SVG 1.1//EN"
 "http://www.w3.org/Graphics/SVG/1.1/DTD/svg11.dtd">
<!-- Generated by graphviz version 8.0.3 (20230416.2022)
 -->
<!-- Title: G Pages: 1 -->
<svg width="640pt" height="176pt"
 viewBox="0.00 0.00 720.00 198.01" xmlns="http://www.w3.org/2000/svg" xmlns:xlink="http://www.w3.org/1999/xlink">
<g id="graph0" class="graph" transform="scale(0.479401 0.479401) rotate(0) translate(4 363.15)">
<title>G</title>
<polygon fill="white" stroke="none" points="-4,4 -4,-363.15 1331,-363.15 1331,4 -4,4"/>
<text text-anchor="middle" x="663.5" y="-326.35" font-family="Arial" font-size="36.00" fill="blue">Reaction Path Analysis</text>
<!-- R133 -->
<g id="node1" class="node">
<title>R133</title>
<g id="a_node1"><a xlink:href="133.svg" xlink:title="R133">
<polygon fill="cornsilk" stroke="none" points="706,-167.65 612,-167.65 612,-120.65 706,-120.65 706,-167.65"/>
<text text-anchor="middle" x="659" y="-135.65" font-family="Times New Roman,serif" font-size="35.00">R133</text>
</a>
</g>
</g>
<!-- R192 -->
<g id="node4" class="node">
<title>R192</title>
<g id="a_node4"><a xlink:href="192.svg" xlink:title="R192">
<polygon fill="cornsilk" stroke="none" points="1327,-292.65 1233,-292.65 1233,-245.65 1327,-245.65 1327,-292.65"/>
<text text-anchor="middle" x="1280" y="-260.65" font-family="Times New Roman,serif" font-size="35.00">R192</text>
</a>
</g>
</g>
<!-- R133&#45;&gt;R192 -->
<g id="edge3" class="edge">
<title>R133&#45;&gt;R192</title>
<path fill="none" stroke="black" d="M668.45,-167.49C678.31,-190.92 697.05,-225.83 726,-242.15 809.61,-289.3 1099.35,-279.31 1222.7,-272.65"/>
<polygon fill="black" stroke="black" points="1222.61,-276.1 1232.4,-272.05 1222.22,-269.11 1222.61,-276.1"/>
<text text-anchor="middle" x="969.5" y="-287.15" font-family="Times New Roman,serif" font-size="30.00"> &#160;&#160;495 &#160;&#160;0% &#160;&#160;4.67e&#45;08 mol/s &#160;&#160;&#160;1.00E+00</text>
</g>
<!-- R225 -->
<g id="node5" class="node">
<title>R225</title>
<g id="a_node5"><a xlink:href="225.svg" xlink:title="R225">
<polygon fill="cornsilk" stroke="none" points="1327,-227.65 1233,-227.65 1233,-180.65 1327,-180.65 1327,-227.65"/>
<text text-anchor="middle" x="1280" y="-195.65" font-family="Times New Roman,serif" font-size="35.00">R225</text>
</a>
</g>
</g>
<!-- R133&#45;&gt;R225 -->
<g id="edge4" class="edge">
<title>R133&#45;&gt;R225</title>
<path fill="none" stroke="black" d="M696.08,-167.65C705.47,-172.67 715.81,-177.32 726,-180.15 818.02,-205.75 1100.59,-206.07 1222.28,-204.93"/>
<polygon fill="black" stroke="black" points="1222.24,-208.42 1232.2,-204.82 1222.17,-201.42 1222.24,-208.42"/>
<text text-anchor="middle" x="969.5" y="-214.15" font-family="Times New Roman,serif" font-size="30.00"> &#160;&#160;584 &#160;&#160;0% &#160;&#160;4.67e&#45;08 mol/s &#160;&#160;&#160;1.00E+00</text>
</g>
<!-- R347 -->
<g id="node6" class="node">
<title>R347</title>
<g id="a_node6"><a xlink:href="347.svg" xlink:title="R347">
<polygon fill="cornsilk" stroke="none" points="1327,-162.65 1233,-162.65 1233,-115.65 1327,-115.65 1327,-162.65"/>
<text text-anchor="middle" x="1280" y="-130.65" font-family="Times New Roman,serif" font-size="35.00">R347</text>
</a>
</g>
</g>
<!-- R133&#45;&gt;R347 -->
<g id="edge5" class="edge">
<title>R133&#45;&gt;R347</title>
<path fill="none" stroke="black" d="M705.77,-143.78C816.84,-142.88 1100.44,-140.59 1222.13,-139.61"/>
<polygon fill="black" stroke="black" points="1222.08,-143.1 1232.05,-139.52 1222.02,-136.1 1222.08,-143.1"/>
<text text-anchor="middle" x="969.5" y="-152.15" font-family="Times New Roman,serif" font-size="30.00"> &#160;&#160;585 &#160;&#160;0% &#160;&#160;4.67e&#45;08 mol/s &#160;&#160;&#160;1.00E+00</text>
</g>
<!-- R242 -->
<g id="node7" class="node">
<title>R242</title>
<g id="a_node7"><a xlink:href="242.svg" xlink:title="R242">
<polygon fill="cornsilk" stroke="none" points="1327,-78.65 1233,-78.65 1233,-31.65 1327,-31.65 1327,-78.65"/>
<text text-anchor="middle" x="1280" y="-46.65" font-family="Times New Roman,serif" font-size="35.00">R242</text>
</a>
</g>
</g>
<!-- R133&#45;&gt;R242 -->
<g id="edge6" class="edge">
<title>R133&#45;&gt;R242</title>
<path fill="none" stroke="black" d="M689.95,-120.69C700.73,-113.48 713.37,-106.34 726,-102.15 932,-33.83 997.51,-92.02 1213,-66.15 1216.08,-65.78 1219.24,-65.37 1222.42,-64.93"/>
<polygon fill="black" stroke="black" points="1222.89,-68.25 1232.28,-63.33 1221.87,-61.32 1222.89,-68.25"/>
<text text-anchor="middle" x="969.5" y="-111.15" font-family="Times New Roman,serif" font-size="30.00"> &#160;&#160;661 &#160;&#160;0% &#160;&#160;1.01e&#45;11 mol/s &#160;&#160;&#160;1.00E+00</text>
</g>
<!-- R133&#45;&gt;R242 -->
<g id="edge7" class="edge">
<title>R133&#45;&gt;R242</title>
<path fill="none" stroke="black" stroke-width="5" d="M665.73,-121.06C673.93,-93.56 691.94,-48.88 726,-29.15 814.9,22.33 1078.03,-5.73 1212.68,-30.62"/>
<polygon fill="black" stroke="black" stroke-width="5" points="1205.84,-38.37 1227.14,-33.57 1209.16,-21.19 1205.84,-38.37"/>
<text text-anchor="middle" x="969.5" y="-38.15" font-family="Times New Roman,serif" font-size="30.00"> &#160;&#160;710 &#160;&#160;99% &#160;&#160;3.89e&#45;05 mol/s &#160;&#160;&#160;2.59E&#45;07</text>
</g>
<!-- R42 -->
<g id="node2" class="node">
<title>R42</title>
<g id="a_node2"><a xlink:href="42.svg" xlink:title="R42">
<polygon fill="cornsilk" stroke="none" points="76,-200.65 0,-200.65 0,-153.65 76,-153.65 76,-200.65"/>
<text text-anchor="middle" x="38" y="-168.65" font-family="Times New Roman,serif" font-size="35.00">R42</text>
</a>
</g>
</g>
<!-- R42&#45;&gt;R133 -->
<g id="edge1" class="edge">
<title>R42&#45;&gt;R133</title>
<path fill="none" stroke="black" stroke-width="6" d="M75.78,-177.73C162.98,-178.67 389.5,-178.64 591.46,-156.27"/>
<polygon fill="black" stroke="black" stroke-width="6" points="587.5,-166.6 606.17,-153.88 585.1,-145.74 587.5,-166.6"/>
<text text-anchor="middle" x="348.5" y="-186.15" font-family="Times New Roman,serif" font-size="30.00"> &#160;&#160;185 &#160;&#160;100% &#160;&#160;4.67e&#45;08 mol/s &#160;&#160;&#160;1.00E+00</text>
</g>
<!-- R1 -->
<g id="node3" class="node">
<title>R1</title>
<g id="a_node3"><a xlink:href="1.svg" xlink:title="R1">
<polygon fill="cornsilk" stroke="none" points="67,-135.65 9,-135.65 9,-88.65 67,-88.65 67,-135.65"/>
<text text-anchor="middle" x="38" y="-103.65" font-family="Times New Roman,serif" font-size="35.00">R1</text>
</a>
</g>
</g>
<!-- R1&#45;&gt;R133 -->
<g id="edge2" class="edge">
<title>R1&#45;&gt;R133</title>
<path fill="none" stroke="black" stroke-width="6" d="M66.97,-109.12C147.17,-101.16 384.92,-82.62 591.62,-120.45"/>
<polygon fill="black" stroke="black" stroke-width="6" points="584.53,-129.93 606.16,-123.41 588.52,-109.31 584.53,-129.93"/>
<text text-anchor="middle" x="348.5" y="-131.15" font-family="Times New Roman,serif" font-size="30.00"> &#160;&#160;185 &#160;&#160;100% &#160;&#160;4.67e&#45;08 mol/s &#160;&#160;&#160;1.00E+00</text>
</g>
</g>
</svg>
