<?xml version="1.0" encoding="UTF-8" standalone="no"?>
<!DOCTYPE svg PUBLIC "-//W3C//DTD SVG 1.1//EN"
 "http://www.w3.org/Graphics/SVG/1.1/DTD/svg11.dtd">
<!-- Generated by graphviz version 8.0.3 (20230416.2022)
 -->
<!-- Title: G Pages: 1 -->
<svg width="640pt" height="122pt"
 viewBox="0.00 0.00 720.00 136.88" xmlns="http://www.w3.org/2000/svg" xmlns:xlink="http://www.w3.org/1999/xlink">
<g id="graph0" class="graph" transform="scale(0.47619 0.47619) rotate(0) translate(4 251.5)">
<title>G</title>
<polygon fill="white" stroke="none" points="-4,4 -4,-251.5 1340,-251.5 1340,4 -4,4"/>
<text text-anchor="middle" x="668" y="-214.7" font-family="Arial" font-size="36.00" fill="blue">Reaction Path Analysis</text>
<!-- R136 -->
<g id="node1" class="node">
<title>R136</title>
<g id="a_node1"><a xlink:href="136.svg" xlink:title="R136">
<polygon fill="cornsilk" stroke="none" points="715,-112 621,-112 621,-65 715,-65 715,-112"/>
<text text-anchor="middle" x="668" y="-80" font-family="Times New Roman,serif" font-size="35.00">R136</text>
</a>
</g>
</g>
<!-- R195 -->
<g id="node4" class="node">
<title>R195</title>
<g id="a_node4"><a xlink:href="195.svg" xlink:title="R195">
<polygon fill="cornsilk" stroke="none" points="1336,-112 1242,-112 1242,-65 1336,-65 1336,-112"/>
<text text-anchor="middle" x="1289" y="-80" font-family="Times New Roman,serif" font-size="35.00">R195</text>
</a>
</g>
</g>
<!-- R136&#45;&gt;R195 -->
<g id="edge3" class="edge">
<title>R136&#45;&gt;R195</title>
<path fill="none" stroke="black" stroke-width="6" d="M714.77,-88.5C822.93,-88.5 1094.71,-88.5 1221.25,-88.5"/>
<polygon fill="black" stroke="black" stroke-width="6" points="1216.05,-99 1236.05,-88.5 1216.05,-78 1216.05,-99"/>
<text text-anchor="middle" x="978.5" y="-97.5" font-family="Times New Roman,serif" font-size="30.00"> &#160;&#160;496 &#160;&#160;100% &#160;&#160;2.18e&#45;15 mol/s &#160;&#160;&#160;1.00E+00</text>
</g>
<!-- R43 -->
<g id="node2" class="node">
<title>R43</title>
<g id="a_node2"><a xlink:href="43.svg" xlink:title="R43">
<polygon fill="cornsilk" stroke="none" points="85,-177 9,-177 9,-130 85,-130 85,-177"/>
<text text-anchor="middle" x="47" y="-145" font-family="Times New Roman,serif" font-size="35.00">R43</text>
</a>
</g>
</g>
<!-- R43&#45;&gt;R136 -->
<g id="edge1" class="edge">
<title>R43&#45;&gt;R136</title>
<path fill="none" stroke="black" stroke-width="5" d="M84.83,-157.61C175.53,-166.47 416,-182.24 604.5,-125.5 608.35,-124.34 612.21,-122.9 616.02,-121.26"/>
<polygon fill="black" stroke="black" stroke-width="5" points="615.55,-130.77 629.33,-113.84 607.55,-115.2 615.55,-130.77"/>
<text text-anchor="middle" x="357.5" y="-175.5" font-family="Times New Roman,serif" font-size="30.00"> &#160;&#160;188 &#160;&#160;99% &#160;&#160;2.18e&#45;15 mol/s &#160;&#160;&#160;1.00E+00</text>
</g>
<!-- R1 -->
<g id="node3" class="node">
<title>R1</title>
<g id="a_node3"><a xlink:href="1.svg" xlink:title="R1">
<polygon fill="cornsilk" stroke="none" points="76,-112 18,-112 18,-65 76,-65 76,-112"/>
<text text-anchor="middle" x="47" y="-80" font-family="Times New Roman,serif" font-size="35.00">R1</text>
</a>
</g>
</g>
<!-- R1&#45;&gt;R136 -->
<g id="edge2" class="edge">
<title>R1&#45;&gt;R136</title>
<path fill="none" stroke="black" stroke-width="5" d="M75.8,-88.5C168.06,-88.5 465.83,-88.5 600.17,-88.5"/>
<polygon fill="black" stroke="black" stroke-width="5" points="595.02,-97.25 615.02,-88.5 595.02,-79.75 595.02,-97.25"/>
<text text-anchor="middle" x="357.5" y="-97.5" font-family="Times New Roman,serif" font-size="30.00"> &#160;&#160;188 &#160;&#160;99% &#160;&#160;2.18e&#45;15 mol/s &#160;&#160;&#160;1.00E+00</text>
</g>
<!-- R141 -->
<g id="node5" class="node">
<title>R141</title>
<g id="a_node5"><a xlink:href="141.svg" xlink:title="R141">
<polygon fill="cornsilk" stroke="none" points="94,-47 0,-47 0,0 94,0 94,-47"/>
<text text-anchor="middle" x="47" y="-15" font-family="Times New Roman,serif" font-size="35.00">R141</text>
</a>
</g>
</g>
<!-- R141&#45;&gt;R136 -->
<g id="edge4" class="edge">
<title>R141&#45;&gt;R136</title>
<path fill="none" stroke="black" d="M93.97,-18.52C190.84,-9.6 422.02,3.43 604.5,-51.5 611.4,-53.58 618.32,-56.57 624.93,-59.96"/>
<polygon fill="black" stroke="black" points="622.89,-63.39 633.33,-65.16 626.28,-57.26 622.89,-63.39"/>
<text text-anchor="middle" x="357.5" y="-60.5" font-family="Times New Roman,serif" font-size="30.00"> &#160;&#160;662 &#160;&#160;0% &#160;&#160;1.43e&#45;25 mol/s &#160;&#160;&#160;1.18E&#45;01</text>
</g>
</g>
</svg>
