<?xml version="1.0" encoding="UTF-8" standalone="no"?>
<!DOCTYPE svg PUBLIC "-//W3C//DTD SVG 1.1//EN"
 "http://www.w3.org/Graphics/SVG/1.1/DTD/svg11.dtd">
<!-- Generated by graphviz version 8.0.3 (20230416.2022)
 -->
<!-- Title: G Pages: 1 -->
<svg width="640pt" height="128pt"
 viewBox="0.00 0.00 720.00 143.67" xmlns="http://www.w3.org/2000/svg" xmlns:xlink="http://www.w3.org/1999/xlink">
<g id="graph0" class="graph" transform="scale(0.479401 0.479401) rotate(0) translate(4 262.39)">
<title>G</title>
<polygon fill="white" stroke="none" points="-4,4 -4,-262.39 1331,-262.39 1331,4 -4,4"/>
<text text-anchor="middle" x="663.5" y="-225.59" font-family="Arial" font-size="36.00" fill="blue">Reaction Path Analysis</text>
<!-- R138 -->
<g id="node1" class="node">
<title>R138</title>
<g id="a_node1"><a xlink:href="138.svg" xlink:title="R138">
<polygon fill="cornsilk" stroke="none" points="706,-130.89 612,-130.89 612,-83.89 706,-83.89 706,-130.89"/>
<text text-anchor="middle" x="659" y="-98.89" font-family="Times New Roman,serif" font-size="35.00">R138</text>
</a>
</g>
</g>
<!-- R197 -->
<g id="node4" class="node">
<title>R197</title>
<g id="a_node4"><a xlink:href="197.svg" xlink:title="R197">
<polygon fill="cornsilk" stroke="none" points="1327,-186.89 1233,-186.89 1233,-139.89 1327,-139.89 1327,-186.89"/>
<text text-anchor="middle" x="1280" y="-154.89" font-family="Times New Roman,serif" font-size="35.00">R197</text>
</a>
</g>
</g>
<!-- R138&#45;&gt;R197 -->
<g id="edge3" class="edge">
<title>R138&#45;&gt;R197</title>
<path fill="none" stroke="black" stroke-width="5" d="M696.49,-130.83C704.75,-135.1 713.69,-138.96 722.5,-141.39 894.12,-188.68 1106.72,-179.33 1212.59,-170.35"/>
<polygon fill="black" stroke="black" stroke-width="5" points="1208.08,-179 1227.21,-168.48 1206.5,-161.57 1208.08,-179"/>
<text text-anchor="middle" x="969.5" y="-186.39" font-family="Times New Roman,serif" font-size="30.00"> &#160;&#160;498 &#160;&#160;99% &#160;&#160;2.18e&#45;15 mol/s &#160;&#160;&#160;1.00E+00</text>
</g>
<!-- R251 -->
<g id="node5" class="node">
<title>R251</title>
<g id="a_node5"><a xlink:href="251.svg" xlink:title="R251">
<polygon fill="cornsilk" stroke="none" points="1327,-98.89 1233,-98.89 1233,-51.89 1327,-51.89 1327,-98.89"/>
<text text-anchor="middle" x="1280" y="-66.89" font-family="Times New Roman,serif" font-size="35.00">R251</text>
</a>
</g>
</g>
<!-- R138&#45;&gt;R251 -->
<g id="edge4" class="edge">
<title>R138&#45;&gt;R251</title>
<path fill="none" stroke="black" d="M705.94,-107.42C801.31,-107.08 1027.68,-104.16 1216.5,-85.39 1218.34,-85.21 1220.21,-85 1222.1,-84.79"/>
<polygon fill="black" stroke="black" points="1222.53,-88.13 1232,-83.39 1221.64,-81.19 1222.53,-88.13"/>
<text text-anchor="middle" x="969.5" y="-115.39" font-family="Times New Roman,serif" font-size="30.00"> &#160;&#160;664 &#160;&#160;0% &#160;&#160;2.2e&#45;26 mol/s &#160;&#160;&#160;1.00E+00</text>
</g>
<!-- R138&#45;&gt;R251 -->
<g id="edge5" class="edge">
<title>R138&#45;&gt;R251</title>
<path fill="none" stroke="black" d="M677.16,-84.09C688.39,-70.89 704.33,-55.61 722.5,-48.39 926.53,32.7 1001.49,-3.93 1216.5,-48.39 1218.58,-48.82 1220.68,-49.32 1222.79,-49.89"/>
<polygon fill="black" stroke="black" points="1221.68,-53.52 1232.27,-53.16 1223.77,-46.84 1221.68,-53.52"/>
<text text-anchor="middle" x="969.5" y="-57.39" font-family="Times New Roman,serif" font-size="30.00"> &#160;&#160;724 &#160;&#160;0% &#160;&#160;3.34e&#45;20 mol/s &#160;&#160;&#160;6.59E&#45;07</text>
</g>
<!-- R45 -->
<g id="node2" class="node">
<title>R45</title>
<g id="a_node2"><a xlink:href="45.svg" xlink:title="R45">
<polygon fill="cornsilk" stroke="none" points="76,-163.89 0,-163.89 0,-116.89 76,-116.89 76,-163.89"/>
<text text-anchor="middle" x="38" y="-131.89" font-family="Times New Roman,serif" font-size="35.00">R45</text>
</a>
</g>
</g>
<!-- R45&#45;&gt;R138 -->
<g id="edge1" class="edge">
<title>R45&#45;&gt;R138</title>
<path fill="none" stroke="black" stroke-width="6" d="M75.78,-140.96C162.98,-141.9 389.5,-141.88 591.46,-119.5"/>
<polygon fill="black" stroke="black" stroke-width="6" points="587.5,-129.84 606.17,-117.12 585.1,-108.98 587.5,-129.84"/>
<text text-anchor="middle" x="348.5" y="-149.39" font-family="Times New Roman,serif" font-size="30.00"> &#160;&#160;190 &#160;&#160;100% &#160;&#160;2.18e&#45;15 mol/s &#160;&#160;&#160;1.00E+00</text>
</g>
<!-- R1 -->
<g id="node3" class="node">
<title>R1</title>
<g id="a_node3"><a xlink:href="1.svg" xlink:title="R1">
<polygon fill="cornsilk" stroke="none" points="67,-98.89 9,-98.89 9,-51.89 67,-51.89 67,-98.89"/>
<text text-anchor="middle" x="38" y="-66.89" font-family="Times New Roman,serif" font-size="35.00">R1</text>
</a>
</g>
</g>
<!-- R1&#45;&gt;R138 -->
<g id="edge2" class="edge">
<title>R1&#45;&gt;R138</title>
<path fill="none" stroke="black" stroke-width="6" d="M66.97,-72.36C147.17,-64.4 384.92,-45.86 591.62,-83.68"/>
<polygon fill="black" stroke="black" stroke-width="6" points="584.53,-93.17 606.16,-86.65 588.52,-72.55 584.53,-93.17"/>
<text text-anchor="middle" x="348.5" y="-94.39" font-family="Times New Roman,serif" font-size="30.00"> &#160;&#160;190 &#160;&#160;100% &#160;&#160;2.18e&#45;15 mol/s &#160;&#160;&#160;1.00E+00</text>
</g>
</g>
</svg>
