<?xml version="1.0" encoding="UTF-8" standalone="no"?>
<!DOCTYPE svg PUBLIC "-//W3C//DTD SVG 1.1//EN"
 "http://www.w3.org/Graphics/SVG/1.1/DTD/svg11.dtd">
<!-- Generated by graphviz version 8.0.3 (20230416.2022)
 -->
<!-- Title: G Pages: 1 -->
<svg width="610pt" height="327pt"
 viewBox="0.00 0.00 686.00 368.42" xmlns="http://www.w3.org/2000/svg" xmlns:xlink="http://www.w3.org/1999/xlink">
<g id="graph0" class="graph" transform="scale(0.888889 0.888889) rotate(0) translate(4 364.42)">
<title>G</title>
<polygon fill="white" stroke="none" points="-4,4 -4,-364.42 682,-364.42 682,4 -4,4"/>
<text text-anchor="middle" x="339" y="-327.62" font-family="Arial" font-size="36.00" fill="blue">Reaction Path Analysis</text>
<!-- R138 -->
<g id="node1" class="node">
<title>R138</title>
<g id="a_node1"><a xlink:href="138.svg" xlink:title="R138">
<polygon fill="cornsilk" stroke="none" points="94,-168.92 0,-168.92 0,-121.92 94,-121.92 94,-168.92"/>
<text text-anchor="middle" x="47" y="-136.92" font-family="Times New Roman,serif" font-size="35.00">R138</text>
</a>
</g>
</g>
<!-- R45 -->
<g id="node2" class="node">
<title>R45</title>
<g id="a_node2"><a xlink:href="45.svg" xlink:title="R45">
<polygon fill="cornsilk" stroke="none" points="669,-293.92 593,-293.92 593,-246.92 669,-246.92 669,-293.92"/>
<text text-anchor="middle" x="631" y="-261.92" font-family="Times New Roman,serif" font-size="35.00">R45</text>
</a>
</g>
</g>
<!-- R138&#45;&gt;R45 -->
<g id="edge1" class="edge">
<title>R138&#45;&gt;R45</title>
<path fill="none" stroke="black" d="M53.94,-168.62C61.25,-191.94 76.14,-226.76 103,-243.42 182.2,-292.56 468.43,-280.64 582.55,-273.68"/>
<polygon fill="black" stroke="black" points="582.6,-277.12 592.36,-273.01 582.16,-270.14 582.6,-277.12"/>
<text text-anchor="middle" x="339" y="-288.42" font-family="Times New Roman,serif" font-size="30.00"> &#160;&#160;190 &#160;&#160;0% &#160;&#160;0.565 mol/s &#160;&#160;&#160;5.40E&#45;02</text>
</g>
<!-- R1 -->
<g id="node3" class="node">
<title>R1</title>
<g id="a_node3"><a xlink:href="1.svg" xlink:title="R1">
<polygon fill="cornsilk" stroke="none" points="660,-228.92 602,-228.92 602,-181.92 660,-181.92 660,-228.92"/>
<text text-anchor="middle" x="631" y="-196.92" font-family="Times New Roman,serif" font-size="35.00">R1</text>
</a>
</g>
</g>
<!-- R138&#45;&gt;R1 -->
<g id="edge2" class="edge">
<title>R138&#45;&gt;R1</title>
<path fill="none" stroke="black" d="M77.63,-168.9C85.47,-173.93 94.2,-178.58 103,-181.42 193.81,-210.77 486.03,-208.24 591.54,-206.28"/>
<polygon fill="black" stroke="black" points="591.39,-209.77 601.32,-206.07 591.25,-202.77 591.39,-209.77"/>
<text text-anchor="middle" x="339" y="-215.42" font-family="Times New Roman,serif" font-size="30.00"> &#160;&#160;190 &#160;&#160;0% &#160;&#160;0.565 mol/s &#160;&#160;&#160;5.40E&#45;02</text>
</g>
<!-- R197 -->
<g id="node4" class="node">
<title>R197</title>
<g id="a_node4"><a xlink:href="197.svg" xlink:title="R197">
<polygon fill="cornsilk" stroke="none" points="678,-163.92 584,-163.92 584,-116.92 678,-116.92 678,-163.92"/>
<text text-anchor="middle" x="631" y="-131.92" font-family="Times New Roman,serif" font-size="35.00">R197</text>
</a>
</g>
</g>
<!-- R138&#45;&gt;R197 -->
<g id="edge3" class="edge">
<title>R138&#45;&gt;R197</title>
<path fill="none" stroke="black" d="M93.67,-145.03C198.94,-144.12 458.39,-141.9 573.47,-140.91"/>
<polygon fill="black" stroke="black" points="573.17,-144.4 583.14,-140.82 573.11,-137.4 573.17,-144.4"/>
<text text-anchor="middle" x="339" y="-153.42" font-family="Times New Roman,serif" font-size="30.00"> &#160;&#160;498 &#160;&#160;0% &#160;&#160;0.0342 mol/s &#160;&#160;&#160;1.00E+00</text>
</g>
<!-- R251 -->
<g id="node5" class="node">
<title>R251</title>
<g id="a_node5"><a xlink:href="251.svg" xlink:title="R251">
<polygon fill="cornsilk" stroke="none" points="678,-77.92 584,-77.92 584,-30.92 678,-30.92 678,-77.92"/>
<text text-anchor="middle" x="631" y="-45.92" font-family="Times New Roman,serif" font-size="35.00">R251</text>
</a>
</g>
</g>
<!-- R138&#45;&gt;R251 -->
<g id="edge4" class="edge">
<title>R138&#45;&gt;R251</title>
<path fill="none" stroke="black" d="M72.42,-121.97C81.36,-114.75 92,-107.61 103,-103.42 296.33,-29.74 364.83,-97.39 573.5,-67.42"/>
<polygon fill="black" stroke="black" points="573.82,-70.76 583.19,-65.81 572.78,-63.83 573.82,-70.76"/>
<text text-anchor="middle" x="339" y="-112.42" font-family="Times New Roman,serif" font-size="30.00"> &#160;&#160;664 &#160;&#160;0% &#160;&#160;0.00272 mol/s &#160;&#160;&#160;1.00E+00</text>
</g>
<!-- R138&#45;&gt;R251 -->
<g id="edge5" class="edge">
<title>R138&#45;&gt;R251</title>
<path fill="none" stroke="black" stroke-width="5" d="M51.67,-122C57.36,-94.61 71.17,-50.48 103,-30.42 186.71,22.34 441.15,-5.38 563.67,-28.69"/>
<polygon fill="black" stroke="black" stroke-width="5" points="556.91,-36.46 578.24,-31.83 560.36,-19.31 556.91,-36.46"/>
<text text-anchor="middle" x="339" y="-39.42" font-family="Times New Roman,serif" font-size="30.00"> &#160;&#160;724 &#160;&#160;99% &#160;&#160;1530.0 mol/s &#160;&#160;&#160;1.77E&#45;06</text>
</g>
</g>
</svg>
