<?xml version="1.0" encoding="UTF-8" standalone="no"?>
<!DOCTYPE svg PUBLIC "-//W3C//DTD SVG 1.1//EN"
 "http://www.w3.org/Graphics/SVG/1.1/DTD/svg11.dtd">
<!-- Generated by graphviz version 8.0.3 (20230416.2022)
 -->
<!-- Title: G Pages: 1 -->
<svg width="640pt" height="303pt"
 viewBox="0.00 0.00 720.00 341.43" xmlns="http://www.w3.org/2000/svg" xmlns:xlink="http://www.w3.org/1999/xlink">
<g id="graph0" class="graph" transform="scale(0.487062 0.487062) rotate(0) translate(4 619.12)">
<title>G</title>
<polygon fill="white" stroke="none" points="-4,4 -4,-619.12 1310,-619.12 1310,4 -4,4"/>
<text text-anchor="middle" x="653" y="-582.32" font-family="Arial" font-size="36.00" fill="blue">Reaction Path Analysis</text>
<!-- R140 -->
<g id="node1" class="node">
<title>R140</title>
<g id="a_node1"><a xlink:href="140.svg" xlink:title="R140">
<polygon fill="cornsilk" stroke="none" points="700,-296.62 606,-296.62 606,-249.62 700,-249.62 700,-296.62"/>
<text text-anchor="middle" x="653" y="-264.62" font-family="Times New Roman,serif" font-size="35.00">R140</text>
</a>
</g>
</g>
<!-- R144 -->
<g id="node7" class="node">
<title>R144</title>
<g id="a_node7"><a xlink:href="144.svg" xlink:title="R144">
<polygon fill="cornsilk" stroke="none" points="1306,-329.62 1212,-329.62 1212,-282.62 1306,-282.62 1306,-329.62"/>
<text text-anchor="middle" x="1259" y="-297.62" font-family="Times New Roman,serif" font-size="35.00">R144</text>
</a>
</g>
</g>
<!-- R140&#45;&gt;R144 -->
<g id="edge6" class="edge">
<title>R140&#45;&gt;R144</title>
<path fill="none" stroke="black" stroke-width="3" d="M699.83,-282.84C702.92,-283.33 706,-283.76 709,-284.12 887.94,-305.46 1101.76,-307.28 1201.53,-306.77"/>
<polygon fill="black" stroke="black" stroke-width="3" points="1198.28,-310.27 1208.26,-306.71 1198.24,-303.27 1198.28,-310.27"/>
<text text-anchor="middle" x="956" y="-315.12" font-family="Times New Roman,serif" font-size="30.00"> &#160;&#160;499 &#160;&#160;50% &#160;&#160;2.18e&#45;15 mol/s &#160;&#160;&#160;1.00E+00</text>
</g>
<!-- R220 -->
<g id="node8" class="node">
<title>R220</title>
<g id="a_node8"><a xlink:href="220.svg" xlink:title="R220">
<polygon fill="cornsilk" stroke="none" points="1306,-264.62 1212,-264.62 1212,-217.62 1306,-217.62 1306,-264.62"/>
<text text-anchor="middle" x="1259" y="-232.62" font-family="Times New Roman,serif" font-size="35.00">R220</text>
</a>
</g>
</g>
<!-- R140&#45;&gt;R220 -->
<g id="edge7" class="edge">
<title>R140&#45;&gt;R220</title>
<path fill="none" stroke="black" stroke-width="3" d="M699.84,-253.38C702.91,-252.5 705.98,-251.73 709,-251.12 885.75,-215.4 1101.04,-227.01 1201.41,-235.5"/>
<polygon fill="black" stroke="black" stroke-width="3" points="1197.94,-239.06 1208.21,-236.44 1198.55,-232.09 1197.94,-239.06"/>
<text text-anchor="middle" x="956" y="-260.12" font-family="Times New Roman,serif" font-size="30.00"> &#160;&#160;500 &#160;&#160;50% &#160;&#160;2.18e&#45;15 mol/s &#160;&#160;&#160;1.00E+00</text>
</g>
<!-- R1 -->
<g id="node2" class="node">
<title>R1</title>
<g id="a_node2"><a xlink:href="1.svg" xlink:title="R1">
<polygon fill="cornsilk" stroke="none" points="76,-510.62 18,-510.62 18,-463.62 76,-463.62 76,-510.62"/>
<text text-anchor="middle" x="47" y="-478.62" font-family="Times New Roman,serif" font-size="35.00">R1</text>
</a>
</g>
</g>
<!-- R1&#45;&gt;R140 -->
<g id="edge1" class="edge">
<title>R1&#45;&gt;R140</title>
<path fill="none" stroke="black" stroke-width="3" d="M75.75,-495.73C163.29,-521.05 437.29,-585.85 597,-460.12 621.05,-441.18 638.58,-355.62 646.79,-307.06"/>
<polygon fill="black" stroke="black" stroke-width="3" points="650.37,-310.87 648.54,-300.43 643.46,-309.73 650.37,-310.87"/>
<text text-anchor="middle" x="350" y="-543.12" font-family="Times New Roman,serif" font-size="30.00"> &#160;&#160;192 &#160;&#160;49% &#160;&#160;2.18e&#45;15 mol/s &#160;&#160;&#160;1.00E+00</text>
</g>
<!-- R53 -->
<g id="node3" class="node">
<title>R53</title>
<g id="a_node3"><a xlink:href="53.svg" xlink:title="R53">
<polygon fill="cornsilk" stroke="none" points="85,-445.62 9,-445.62 9,-398.62 85,-398.62 85,-445.62"/>
<text text-anchor="middle" x="47" y="-413.62" font-family="Times New Roman,serif" font-size="35.00">R53</text>
</a>
</g>
</g>
<!-- R53&#45;&gt;R140 -->
<g id="edge2" class="edge">
<title>R53&#45;&gt;R140</title>
<path fill="none" stroke="black" stroke-width="3" d="M84.89,-422.73C201.2,-424.36 554.97,-426.87 597,-398.12 627.1,-377.52 640.89,-336.54 647.1,-307.1"/>
<polygon fill="black" stroke="black" stroke-width="3" points="650.69,-310.94 649.12,-300.46 643.82,-309.63 650.69,-310.94"/>
<text text-anchor="middle" x="350" y="-432.12" font-family="Times New Roman,serif" font-size="30.00"> &#160;&#160;192 &#160;&#160;49% &#160;&#160;2.18e&#45;15 mol/s &#160;&#160;&#160;1.00E+00</text>
</g>
<!-- R3 -->
<g id="node4" class="node">
<title>R3</title>
<g id="a_node4"><a xlink:href="3.svg" xlink:title="R3">
<polygon fill="cornsilk" stroke="none" points="76,-380.62 18,-380.62 18,-333.62 76,-333.62 76,-380.62"/>
<text text-anchor="middle" x="47" y="-348.62" font-family="Times New Roman,serif" font-size="35.00">R3</text>
</a>
</g>
</g>
<!-- R3&#45;&gt;R140 -->
<g id="edge3" class="edge">
<title>R3&#45;&gt;R140</title>
<path fill="none" stroke="black" stroke-width="3" d="M75.77,-358.32C173.76,-362.18 502.56,-371.59 597,-329.12 609.02,-323.71 619.8,-314.4 628.57,-304.91"/>
<polygon fill="black" stroke="black" stroke-width="3" points="629.85,-309.47 633.74,-299.61 624.55,-304.89 629.85,-309.47"/>
<text text-anchor="middle" x="350" y="-370.12" font-family="Times New Roman,serif" font-size="30.00"> &#160;&#160;281 &#160;&#160;49% &#160;&#160;2.18e&#45;15 mol/s &#160;&#160;&#160;1.00E+00</text>
</g>
<!-- R26 -->
<g id="node5" class="node">
<title>R26</title>
<g id="a_node5"><a xlink:href="26.svg" xlink:title="R26">
<polygon fill="cornsilk" stroke="none" points="85,-315.62 9,-315.62 9,-268.62 85,-268.62 85,-315.62"/>
<text text-anchor="middle" x="47" y="-283.62" font-family="Times New Roman,serif" font-size="35.00">R26</text>
</a>
</g>
</g>
<!-- R26&#45;&gt;R140 -->
<g id="edge4" class="edge">
<title>R26&#45;&gt;R140</title>
<path fill="none" stroke="black" stroke-width="3" d="M85,-292.32C171.94,-292.58 396.3,-291.89 595.16,-279.13"/>
<polygon fill="black" stroke="black" stroke-width="3" points="592.36,-282.56 602.11,-278.42 591.9,-275.58 592.36,-282.56"/>
<text text-anchor="middle" x="350" y="-301.12" font-family="Times New Roman,serif" font-size="30.00"> &#160;&#160;281 &#160;&#160;49% &#160;&#160;2.18e&#45;15 mol/s &#160;&#160;&#160;1.00E+00</text>
</g>
<!-- R70 -->
<g id="node6" class="node">
<title>R70</title>
<g id="a_node6"><a xlink:href="70.svg" xlink:title="R70">
<polygon fill="cornsilk" stroke="none" points="85,-231.62 9,-231.62 9,-184.62 85,-184.62 85,-231.62"/>
<text text-anchor="middle" x="47" y="-199.62" font-family="Times New Roman,serif" font-size="35.00">R70</text>
</a>
</g>
</g>
<!-- R70&#45;&gt;R140 -->
<g id="edge5" class="edge">
<title>R70&#45;&gt;R140</title>
<path fill="none" stroke="black" d="M84.73,-219.37C90.79,-220.87 97.03,-222.2 103,-223.12 211.59,-239.79 491.29,-212.19 597,-242.12 600.12,-243 603.25,-244.09 606.34,-245.33"/>
<polygon fill="black" stroke="black" points="604.52,-248.8 615.08,-249.73 607.41,-242.42 604.52,-248.8"/>
<text text-anchor="middle" x="350" y="-251.12" font-family="Times New Roman,serif" font-size="30.00"> &#160;&#160;455 &#160;&#160;0% &#160;&#160;2.2e&#45;26 mol/s &#160;&#160;&#160;9.98E&#45;01</text>
</g>
<!-- R70&#45;&gt;R140 -->
<g id="edge8" class="edge">
<title>R70&#45;&gt;R140</title>
<path fill="none" stroke="black" d="M85,-191.12C90.91,-189.05 97.04,-187.26 103,-186.12 156.9,-175.74 548.92,-159.63 597,-186.12 617.7,-197.52 631.69,-220.35 640.38,-239.77"/>
<polygon fill="black" stroke="black" points="637.48,-240.93 644.56,-248.82 643.95,-238.24 637.48,-240.93"/>
<text text-anchor="middle" x="350" y="-195.12" font-family="Times New Roman,serif" font-size="30.00"> &#160;&#160;666 &#160;&#160;0% &#160;&#160;1.16e&#45;23 mol/s &#160;&#160;&#160;1.89E&#45;03</text>
</g>
<!-- R189 -->
<g id="node9" class="node">
<title>R189</title>
<g id="a_node9"><a xlink:href="189.svg" xlink:title="R189">
<polygon fill="cornsilk" stroke="none" points="94,-128.62 0,-128.62 0,-81.62 94,-81.62 94,-128.62"/>
<text text-anchor="middle" x="47" y="-96.62" font-family="Times New Roman,serif" font-size="35.00">R189</text>
</a>
</g>
</g>
<!-- R189&#45;&gt;R140 -->
<g id="edge9" class="edge">
<title>R189&#45;&gt;R140</title>
<path fill="none" stroke="black" d="M93.9,-110.34C96.98,-110.62 100.03,-110.89 103,-111.12 157.78,-115.38 552.29,-102.18 597,-134.12 630.77,-158.24 643.81,-206.47 648.84,-239.27"/>
<polygon fill="black" stroke="black" points="645.45,-239.31 650.26,-248.75 652.39,-238.37 645.45,-239.31"/>
<text text-anchor="middle" x="350" y="-143.12" font-family="Times New Roman,serif" font-size="30.00"> &#160;&#160;667 &#160;&#160;0% &#160;&#160;2.85e&#45;23 mol/s &#160;&#160;&#160;7.71E&#45;04</text>
</g>
<!-- R189&#45;&gt;R140 -->
<g id="edge10" class="edge">
<title>R189&#45;&gt;R140</title>
<path fill="none" stroke="black" d="M83.56,-81.66C89.81,-78.55 96.43,-75.84 103,-74.12 315.37,-18.39 422.29,58.86 597,-74.12 623.17,-94.04 640.09,-187.68 647.57,-239.09"/>
<polygon fill="black" stroke="black" points="644.2,-239.27 649.06,-248.69 651.13,-238.29 644.2,-239.27"/>
<text text-anchor="middle" x="350" y="-83.12" font-family="Times New Roman,serif" font-size="30.00"> &#160;&#160;695 &#160;&#160;0% &#160;&#160;2.2e&#45;26 mol/s &#160;&#160;&#160;9.99E&#45;01</text>
</g>
</g>
</svg>
