<?xml version="1.0" encoding="UTF-8" standalone="no"?>
<!DOCTYPE svg PUBLIC "-//W3C//DTD SVG 1.1//EN"
 "http://www.w3.org/Graphics/SVG/1.1/DTD/svg11.dtd">
<!-- Generated by graphviz version 8.0.3 (20230416.2022)
 -->
<!-- Title: G Pages: 1 -->
<svg width="610pt" height="313pt"
 viewBox="0.00 0.00 686.00 352.63" xmlns="http://www.w3.org/2000/svg" xmlns:xlink="http://www.w3.org/1999/xlink">
<g id="graph0" class="graph" transform="scale(0.888889 0.888889) rotate(0) translate(4 348.63)">
<title>G</title>
<polygon fill="white" stroke="none" points="-4,4 -4,-348.63 682,-348.63 682,4 -4,4"/>
<text text-anchor="middle" x="339" y="-311.83" font-family="Arial" font-size="36.00" fill="blue">Reaction Path Analysis</text>
<!-- R142 -->
<g id="node1" class="node">
<title>R142</title>
<g id="a_node1"><a xlink:href="142.svg" xlink:title="R142">
<polygon fill="cornsilk" stroke="none" points="94,-161.13 0,-161.13 0,-114.13 94,-114.13 94,-161.13"/>
<text text-anchor="middle" x="47" y="-129.13" font-family="Times New Roman,serif" font-size="35.00">R142</text>
</a>
</g>
</g>
<!-- R53 -->
<g id="node2" class="node">
<title>R53</title>
<g id="a_node2"><a xlink:href="53.svg" xlink:title="R53">
<polygon fill="cornsilk" stroke="none" points="669,-259.13 593,-259.13 593,-212.13 669,-212.13 669,-259.13"/>
<text text-anchor="middle" x="631" y="-227.13" font-family="Times New Roman,serif" font-size="35.00">R53</text>
</a>
</g>
</g>
<!-- R142&#45;&gt;R53 -->
<g id="edge1" class="edge">
<title>R142&#45;&gt;R53</title>
<path fill="none" stroke="black" stroke-width="5" d="M59.42,-160.9C68.73,-177.09 83.52,-197.52 103,-207.63 256.97,-287.59 471.49,-264.58 572.75,-247.18"/>
<polygon fill="black" stroke="black" stroke-width="5" points="569.03,-256.66 587.15,-244.49 565.91,-239.44 569.03,-256.66"/>
<text text-anchor="middle" x="339" y="-272.63" font-family="Times New Roman,serif" font-size="30.00"> &#160;&#160;194 &#160;&#160;81% &#160;&#160;0.164 mol/s &#160;&#160;&#160;1.47E&#45;01</text>
</g>
<!-- R1 -->
<g id="node3" class="node">
<title>R1</title>
<g id="a_node3"><a xlink:href="1.svg" xlink:title="R1">
<polygon fill="cornsilk" stroke="none" points="660,-194.13 602,-194.13 602,-147.13 660,-147.13 660,-194.13"/>
<text text-anchor="middle" x="631" y="-162.13" font-family="Times New Roman,serif" font-size="35.00">R1</text>
</a>
</g>
</g>
<!-- R142&#45;&gt;R1 -->
<g id="edge2" class="edge">
<title>R142&#45;&gt;R1</title>
<path fill="none" stroke="black" stroke-width="5" d="M93.83,-147.35C96.93,-147.84 100,-148.27 103,-148.63 278.15,-169.67 488.13,-171.5 581.33,-171.12"/>
<polygon fill="black" stroke="black" stroke-width="5" points="576.22,-179.87 596.17,-170.99 576.11,-162.37 576.22,-179.87"/>
<text text-anchor="middle" x="339" y="-179.63" font-family="Times New Roman,serif" font-size="30.00"> &#160;&#160;194 &#160;&#160;81% &#160;&#160;0.164 mol/s &#160;&#160;&#160;1.47E&#45;01</text>
</g>
<!-- R200 -->
<g id="node4" class="node">
<title>R200</title>
<g id="a_node4"><a xlink:href="200.svg" xlink:title="R200">
<polygon fill="cornsilk" stroke="none" points="678,-129.13 584,-129.13 584,-82.13 678,-82.13 678,-129.13"/>
<text text-anchor="middle" x="631" y="-97.13" font-family="Times New Roman,serif" font-size="35.00">R200</text>
</a>
</g>
</g>
<!-- R142&#45;&gt;R200 -->
<g id="edge3" class="edge">
<title>R142&#45;&gt;R200</title>
<path fill="none" stroke="black" d="M93.84,-117.9C96.91,-117.02 99.98,-116.24 103,-115.63 271.41,-81.54 476.28,-92.08 573.53,-100.12"/>
<polygon fill="black" stroke="black" points="573.02,-103.67 583.28,-101.03 573.62,-96.7 573.02,-103.67"/>
<text text-anchor="middle" x="339" y="-124.63" font-family="Times New Roman,serif" font-size="30.00"> &#160;&#160;501 &#160;&#160;17% &#160;&#160;0.0342 mol/s &#160;&#160;&#160;1.00E+00</text>
</g>
<!-- R71 -->
<g id="node5" class="node">
<title>R71</title>
<g id="a_node5"><a xlink:href="71.svg" xlink:title="R71">
<polygon fill="cornsilk" stroke="none" points="669,-64.13 593,-64.13 593,-17.13 669,-17.13 669,-64.13"/>
<text text-anchor="middle" x="631" y="-32.13" font-family="Times New Roman,serif" font-size="35.00">R71</text>
</a>
</g>
</g>
<!-- R142&#45;&gt;R71 -->
<g id="edge4" class="edge">
<title>R142&#45;&gt;R71</title>
<path fill="none" stroke="black" d="M56.31,-114.36C64.74,-94.6 79.87,-67.45 103,-54.63 259.86,32.3 485.35,-5.64 582.5,-28.23"/>
<polygon fill="black" stroke="black" points="581.61,-31.85 592.15,-30.77 583.24,-25.05 581.61,-31.85"/>
<text text-anchor="middle" x="339" y="-63.63" font-family="Times New Roman,serif" font-size="30.00"> &#160;&#160;668 &#160;&#160;1% &#160;&#160;0.00272 mol/s &#160;&#160;&#160;1.00E+00</text>
</g>
</g>
</svg>
