<?xml version="1.0" encoding="UTF-8" standalone="no"?>
<!DOCTYPE svg PUBLIC "-//W3C//DTD SVG 1.1//EN"
 "http://www.w3.org/Graphics/SVG/1.1/DTD/svg11.dtd">
<!-- Generated by graphviz version 8.0.3 (20230416.2022)
 -->
<!-- Title: G Pages: 1 -->
<svg width="640pt" height="85pt"
 viewBox="0.00 0.00 720.00 95.73" xmlns="http://www.w3.org/2000/svg" xmlns:xlink="http://www.w3.org/1999/xlink">
<g id="graph0" class="graph" transform="scale(0.479401 0.479401) rotate(0) translate(4 173.5)">
<title>G</title>
<polygon fill="white" stroke="none" points="-4,4 -4,-173.5 1331,-173.5 1331,4 -4,4"/>
<text text-anchor="middle" x="663.5" y="-136.7" font-family="Arial" font-size="36.00" fill="blue">Reaction Path Analysis</text>
<!-- R143 -->
<g id="node1" class="node">
<title>R143</title>
<g id="a_node1"><a xlink:href="143.svg" xlink:title="R143">
<polygon fill="cornsilk" stroke="none" points="706,-79 612,-79 612,-32 706,-32 706,-79"/>
<text text-anchor="middle" x="659" y="-47" font-family="Times New Roman,serif" font-size="35.00">R143</text>
</a>
</g>
</g>
<!-- R201 -->
<g id="node4" class="node">
<title>R201</title>
<g id="a_node4"><a xlink:href="201.svg" xlink:title="R201">
<polygon fill="cornsilk" stroke="none" points="1327,-112 1233,-112 1233,-65 1327,-65 1327,-112"/>
<text text-anchor="middle" x="1280" y="-80" font-family="Times New Roman,serif" font-size="35.00">R201</text>
</a>
</g>
</g>
<!-- R143&#45;&gt;R201 -->
<g id="edge3" class="edge">
<title>R143&#45;&gt;R201</title>
<path fill="none" stroke="black" stroke-width="5" d="M705.98,-64.32C711.53,-65.17 717.13,-65.92 722.5,-66.5 898.64,-85.4 1107.71,-88.51 1212.34,-88.76"/>
<polygon fill="black" stroke="black" stroke-width="5" points="1207.03,-97.51 1227.04,-88.77 1207.04,-80.01 1207.03,-97.51"/>
<text text-anchor="middle" x="969.5" y="-97.5" font-family="Times New Roman,serif" font-size="30.00"> &#160;&#160;502 &#160;&#160;99% &#160;&#160;2.18e&#45;15 mol/s &#160;&#160;&#160;1.00E+00</text>
</g>
<!-- R370 -->
<g id="node5" class="node">
<title>R370</title>
<g id="a_node5"><a xlink:href="370.svg" xlink:title="R370">
<polygon fill="cornsilk" stroke="none" points="1327,-47 1233,-47 1233,0 1327,0 1327,-47"/>
<text text-anchor="middle" x="1280" y="-15" font-family="Times New Roman,serif" font-size="35.00">R370</text>
</a>
</g>
</g>
<!-- R143&#45;&gt;R370 -->
<g id="edge4" class="edge">
<title>R143&#45;&gt;R370</title>
<path fill="none" stroke="black" d="M705.97,-37.47C711.47,-35.86 717.07,-34.48 722.5,-33.5 902.62,-1.06 1120.83,-11.15 1222.18,-18.59"/>
<polygon fill="black" stroke="black" points="1221.84,-22.15 1232.07,-19.41 1222.36,-15.17 1221.84,-22.15"/>
<text text-anchor="middle" x="969.5" y="-42.5" font-family="Times New Roman,serif" font-size="30.00"> &#160;&#160;669 &#160;&#160;0% &#160;&#160;2.19e&#45;26 mol/s &#160;&#160;&#160;9.96E&#45;01</text>
</g>
<!-- R54 -->
<g id="node2" class="node">
<title>R54</title>
<g id="a_node2"><a xlink:href="54.svg" xlink:title="R54">
<polygon fill="cornsilk" stroke="none" points="76,-112 0,-112 0,-65 76,-65 76,-112"/>
<text text-anchor="middle" x="38" y="-80" font-family="Times New Roman,serif" font-size="35.00">R54</text>
</a>
</g>
</g>
<!-- R54&#45;&gt;R143 -->
<g id="edge1" class="edge">
<title>R54&#45;&gt;R143</title>
<path fill="none" stroke="black" stroke-width="6" d="M75.78,-89.07C162.98,-90.01 389.5,-89.99 591.46,-67.62"/>
<polygon fill="black" stroke="black" stroke-width="6" points="587.5,-77.95 606.17,-65.23 585.1,-57.09 587.5,-77.95"/>
<text text-anchor="middle" x="348.5" y="-97.5" font-family="Times New Roman,serif" font-size="30.00"> &#160;&#160;195 &#160;&#160;100% &#160;&#160;2.18e&#45;15 mol/s &#160;&#160;&#160;1.00E+00</text>
</g>
<!-- R1 -->
<g id="node3" class="node">
<title>R1</title>
<g id="a_node3"><a xlink:href="1.svg" xlink:title="R1">
<polygon fill="cornsilk" stroke="none" points="67,-47 9,-47 9,0 67,0 67,-47"/>
<text text-anchor="middle" x="38" y="-15" font-family="Times New Roman,serif" font-size="35.00">R1</text>
</a>
</g>
</g>
<!-- R1&#45;&gt;R143 -->
<g id="edge2" class="edge">
<title>R1&#45;&gt;R143</title>
<path fill="none" stroke="black" stroke-width="6" d="M66.97,-20.47C147.17,-12.51 384.92,6.03 591.62,-31.79"/>
<polygon fill="black" stroke="black" stroke-width="6" points="584.53,-41.28 606.16,-34.76 588.52,-20.66 584.53,-41.28"/>
<text text-anchor="middle" x="348.5" y="-42.5" font-family="Times New Roman,serif" font-size="30.00"> &#160;&#160;195 &#160;&#160;100% &#160;&#160;2.18e&#45;15 mol/s &#160;&#160;&#160;1.00E+00</text>
</g>
</g>
</svg>
