<?xml version="1.0" encoding="UTF-8" standalone="no"?>
<!DOCTYPE svg PUBLIC "-//W3C//DTD SVG 1.1//EN"
 "http://www.w3.org/Graphics/SVG/1.1/DTD/svg11.dtd">
<!-- Generated by graphviz version 8.0.3 (20230416.2022)
 -->
<!-- Title: G Pages: 1 -->
<svg width="640pt" height="171pt"
 viewBox="0.00 0.00 720.00 191.92" xmlns="http://www.w3.org/2000/svg" xmlns:xlink="http://www.w3.org/1999/xlink">
<g id="graph0" class="graph" transform="scale(0.481203 0.481203) rotate(0) translate(4 350.52)">
<title>G</title>
<polygon fill="white" stroke="none" points="-4,4 -4,-350.52 1326,-350.52 1326,4 -4,4"/>
<text text-anchor="middle" x="661" y="-313.72" font-family="Arial" font-size="36.00" fill="blue">Reaction Path Analysis</text>
<!-- R144 -->
<g id="node1" class="node">
<title>R144</title>
<g id="a_node1"><a xlink:href="144.svg" xlink:title="R144">
<polygon fill="cornsilk" stroke="none" points="708,-162.02 614,-162.02 614,-115.02 708,-115.02 708,-162.02"/>
<text text-anchor="middle" x="661" y="-130.02" font-family="Times New Roman,serif" font-size="35.00">R144</text>
</a>
</g>
</g>
<!-- R212 -->
<g id="node6" class="node">
<title>R212</title>
<g id="a_node6"><a xlink:href="212.svg" xlink:title="R212">
<polygon fill="cornsilk" stroke="none" points="1322,-162.02 1228,-162.02 1228,-115.02 1322,-115.02 1322,-162.02"/>
<text text-anchor="middle" x="1275" y="-130.02" font-family="Times New Roman,serif" font-size="35.00">R212</text>
</a>
</g>
</g>
<!-- R144&#45;&gt;R212 -->
<g id="edge5" class="edge">
<title>R144&#45;&gt;R212</title>
<path fill="none" stroke="black" stroke-width="6" d="M708,-138.52C815.26,-138.52 1082.28,-138.52 1207.37,-138.52"/>
<polygon fill="black" stroke="black" stroke-width="6" points="1202.3,-149.02 1222.3,-138.52 1202.3,-128.02 1202.3,-149.02"/>
<text text-anchor="middle" x="968" y="-147.52" font-family="Times New Roman,serif" font-size="30.00"> &#160;&#160;703 &#160;&#160;100% &#160;&#160;1.54e&#45;24 mol/s &#160;&#160;&#160;1.39E&#45;02</text>
</g>
<!-- R1 -->
<g id="node2" class="node">
<title>R1</title>
<g id="a_node2"><a xlink:href="1.svg" xlink:title="R1">
<polygon fill="cornsilk" stroke="none" points="76,-260.02 18,-260.02 18,-213.02 76,-213.02 76,-260.02"/>
<text text-anchor="middle" x="47" y="-228.02" font-family="Times New Roman,serif" font-size="35.00">R1</text>
</a>
</g>
</g>
<!-- R1&#45;&gt;R144 -->
<g id="edge1" class="edge">
<title>R1&#45;&gt;R144</title>
<path fill="none" stroke="black" stroke-width="3" d="M75.81,-242.47C160.22,-259.05 418.87,-298.88 601,-208.52 617.58,-200.29 631.29,-185.06 641.31,-170.9"/>
<polygon fill="black" stroke="black" stroke-width="3" points="642.72,-175.1 645.35,-164.84 636.89,-171.22 642.72,-175.1"/>
<text text-anchor="middle" x="354" y="-274.52" font-family="Times New Roman,serif" font-size="30.00"> &#160;&#160;196 &#160;&#160;50% &#160;&#160;2.18e&#45;15 mol/s &#160;&#160;&#160;1.00E+00</text>
</g>
<!-- R55 -->
<g id="node3" class="node">
<title>R55</title>
<g id="a_node3"><a xlink:href="55.svg" xlink:title="R55">
<polygon fill="cornsilk" stroke="none" points="85,-195.02 9,-195.02 9,-148.02 85,-148.02 85,-195.02"/>
<text text-anchor="middle" x="47" y="-163.02" font-family="Times New Roman,serif" font-size="35.00">R55</text>
</a>
</g>
</g>
<!-- R55&#45;&gt;R144 -->
<g id="edge2" class="edge">
<title>R55&#45;&gt;R144</title>
<path fill="none" stroke="black" stroke-width="3" d="M84.7,-171.89C173.59,-172.38 407.41,-171.3 601,-149.52 601.8,-149.43 602.6,-149.34 603.4,-149.24"/>
<polygon fill="black" stroke="black" stroke-width="3" points="600.62,-152.6 610.04,-147.76 599.65,-145.67 600.62,-152.6"/>
<text text-anchor="middle" x="354" y="-180.52" font-family="Times New Roman,serif" font-size="30.00"> &#160;&#160;196 &#160;&#160;50% &#160;&#160;2.18e&#45;15 mol/s &#160;&#160;&#160;1.00E+00</text>
</g>
<!-- R0 -->
<g id="node4" class="node">
<title>R0</title>
<g id="a_node4"><a xlink:href="0.svg" xlink:title="R0">
<polygon fill="cornsilk" stroke="none" points="76,-130.02 18,-130.02 18,-83.02 76,-83.02 76,-130.02"/>
<text text-anchor="middle" x="47" y="-98.02" font-family="Times New Roman,serif" font-size="35.00">R0</text>
</a>
</g>
</g>
<!-- R0&#45;&gt;R144 -->
<g id="edge3" class="edge">
<title>R0&#45;&gt;R144</title>
<path fill="none" stroke="black" stroke-width="3" d="M75.96,-103.73C157.68,-96.29 402.89,-78.93 601,-116.52 601.81,-116.67 602.61,-116.84 603.43,-117.01"/>
<polygon fill="black" stroke="black" stroke-width="3" points="599.49,-119.64 610.05,-118.71 601.22,-112.85 599.49,-119.64"/>
<text text-anchor="middle" x="354" y="-125.52" font-family="Times New Roman,serif" font-size="30.00"> &#160;&#160;499 &#160;&#160;50% &#160;&#160;2.18e&#45;15 mol/s &#160;&#160;&#160;1.00E+00</text>
</g>
<!-- R140 -->
<g id="node5" class="node">
<title>R140</title>
<g id="a_node5"><a xlink:href="140.svg" xlink:title="R140">
<polygon fill="cornsilk" stroke="none" points="94,-65.02 0,-65.02 0,-18.02 94,-18.02 94,-65.02"/>
<text text-anchor="middle" x="47" y="-33.02" font-family="Times New Roman,serif" font-size="35.00">R140</text>
</a>
</g>
</g>
<!-- R140&#45;&gt;R144 -->
<g id="edge4" class="edge">
<title>R140&#45;&gt;R144</title>
<path fill="none" stroke="black" stroke-width="3" d="M93.69,-29.77C192.92,-6.87 432.71,34.04 601,-55.52 621.15,-66.24 635.98,-87.26 645.73,-105.46"/>
<polygon fill="black" stroke="black" stroke-width="3" points="641.01,-103.84 648.63,-111.2 647.26,-100.69 641.01,-103.84"/>
<text text-anchor="middle" x="354" y="-64.52" font-family="Times New Roman,serif" font-size="30.00"> &#160;&#160;499 &#160;&#160;50% &#160;&#160;2.18e&#45;15 mol/s &#160;&#160;&#160;1.00E+00</text>
</g>
</g>
</svg>
