<?xml version="1.0" encoding="UTF-8" standalone="no"?>
<!DOCTYPE svg PUBLIC "-//W3C//DTD SVG 1.1//EN"
 "http://www.w3.org/Graphics/SVG/1.1/DTD/svg11.dtd">
<!-- Generated by graphviz version 8.0.3 (20230416.2022)
 -->
<!-- Title: G Pages: 1 -->
<svg width="629pt" height="229pt"
 viewBox="0.00 0.00 708.00 257.50" xmlns="http://www.w3.org/2000/svg" xmlns:xlink="http://www.w3.org/1999/xlink">
<g id="graph0" class="graph" transform="scale(0.888889 0.888889) rotate(0) translate(4 253.5)">
<title>G</title>
<polygon fill="white" stroke="none" points="-4,4 -4,-253.5 704,-253.5 704,4 -4,4"/>
<text text-anchor="middle" x="350" y="-216.7" font-family="Arial" font-size="36.00" fill="blue">Reaction Path Analysis</text>
<!-- R146 -->
<g id="node1" class="node">
<title>R146</title>
<g id="a_node1"><a xlink:href="146.svg" xlink:title="R146">
<polygon fill="cornsilk" stroke="none" points="700,-112 606,-112 606,-65 700,-65 700,-112"/>
<text text-anchor="middle" x="653" y="-80" font-family="Times New Roman,serif" font-size="35.00">R146</text>
</a>
</g>
</g>
<!-- R55 -->
<g id="node2" class="node">
<title>R55</title>
<g id="a_node2"><a xlink:href="55.svg" xlink:title="R55">
<polygon fill="cornsilk" stroke="none" points="85,-177 9,-177 9,-130 85,-130 85,-177"/>
<text text-anchor="middle" x="47" y="-145" font-family="Times New Roman,serif" font-size="35.00">R55</text>
</a>
</g>
</g>
<!-- R55&#45;&gt;R146 -->
<g id="edge1" class="edge">
<title>R55&#45;&gt;R146</title>
<path fill="none" stroke="black" stroke-width="4" d="M84.88,-158.23C175.1,-168.42 412.97,-186.81 597,-125.5 599.9,-124.53 602.79,-123.37 605.64,-122.06"/>
<polygon fill="black" stroke="black" stroke-width="4" points="604.68,-129.82 618.59,-113.83 597.74,-117.65 604.68,-129.82"/>
<text text-anchor="middle" x="350" y="-177.5" font-family="Times New Roman,serif" font-size="30.00"> &#160;&#160;198 &#160;&#160;61% &#160;&#160;4.67e&#45;08 mol/s &#160;&#160;&#160;1.00E+00</text>
</g>
<!-- R1 -->
<g id="node3" class="node">
<title>R1</title>
<g id="a_node3"><a xlink:href="1.svg" xlink:title="R1">
<polygon fill="cornsilk" stroke="none" points="76,-112 18,-112 18,-65 76,-65 76,-112"/>
<text text-anchor="middle" x="47" y="-80" font-family="Times New Roman,serif" font-size="35.00">R1</text>
</a>
</g>
</g>
<!-- R1&#45;&gt;R146 -->
<g id="edge2" class="edge">
<title>R1&#45;&gt;R146</title>
<path fill="none" stroke="black" stroke-width="4" d="M75.92,-88.5C166.48,-88.5 453.8,-88.5 585.22,-88.5"/>
<polygon fill="black" stroke="black" stroke-width="4" points="580.03,-95.5 600.03,-88.5 580.03,-81.5 580.03,-95.5"/>
<text text-anchor="middle" x="350" y="-97.5" font-family="Times New Roman,serif" font-size="30.00"> &#160;&#160;198 &#160;&#160;61% &#160;&#160;4.67e&#45;08 mol/s &#160;&#160;&#160;1.00E+00</text>
</g>
<!-- R160 -->
<g id="node4" class="node">
<title>R160</title>
<g id="a_node4"><a xlink:href="160.svg" xlink:title="R160">
<polygon fill="cornsilk" stroke="none" points="94,-47 0,-47 0,0 94,0 94,-47"/>
<text text-anchor="middle" x="47" y="-15" font-family="Times New Roman,serif" font-size="35.00">R160</text>
</a>
</g>
</g>
<!-- R160&#45;&gt;R146 -->
<g id="edge3" class="edge">
<title>R160&#45;&gt;R146</title>
<path fill="none" stroke="black" stroke-width="2" d="M93.98,-17.77C190.26,-7.49 418.85,7.85 597,-51.5 602.95,-53.48 608.85,-56.29 614.46,-59.49"/>
<polygon fill="black" stroke="black" stroke-width="2" points="611.25,-61.86 621.59,-64.17 614.94,-55.91 611.25,-61.86"/>
<text text-anchor="middle" x="350" y="-60.5" font-family="Times New Roman,serif" font-size="30.00"> &#160;&#160;670 &#160;&#160;38% &#160;&#160;2.94e&#45;08 mol/s &#160;&#160;&#160;3.43E&#45;04</text>
</g>
</g>
</svg>
