<?xml version="1.0" encoding="UTF-8" standalone="no"?>
<!DOCTYPE svg PUBLIC "-//W3C//DTD SVG 1.1//EN"
 "http://www.w3.org/Graphics/SVG/1.1/DTD/svg11.dtd">
<!-- Generated by graphviz version 8.0.3 (20230416.2022)
 -->
<!-- Title: G Pages: 1 -->
<svg width="640pt" height="87pt"
 viewBox="0.00 0.00 720.00 97.93" xmlns="http://www.w3.org/2000/svg" xmlns:xlink="http://www.w3.org/1999/xlink">
<g id="graph0" class="graph" transform="scale(0.490421 0.490421) rotate(0) translate(4 173.5)">
<title>G</title>
<polygon fill="white" stroke="none" points="-4,4 -4,-173.5 1301,-173.5 1301,4 -4,4"/>
<text text-anchor="middle" x="648.5" y="-136.7" font-family="Arial" font-size="36.00" fill="blue">Reaction Path Analysis</text>
<!-- R147 -->
<g id="node1" class="node">
<title>R147</title>
<g id="a_node1"><a xlink:href="147.svg" xlink:title="R147">
<polygon fill="cornsilk" stroke="none" points="691,-79 597,-79 597,-32 691,-32 691,-79"/>
<text text-anchor="middle" x="644" y="-47" font-family="Times New Roman,serif" font-size="35.00">R147</text>
</a>
</g>
</g>
<!-- R293 -->
<g id="node4" class="node">
<title>R293</title>
<g id="a_node4"><a xlink:href="293.svg" xlink:title="R293">
<polygon fill="cornsilk" stroke="none" points="1297,-79 1203,-79 1203,-32 1297,-32 1297,-79"/>
<text text-anchor="middle" x="1250" y="-47" font-family="Times New Roman,serif" font-size="35.00">R293</text>
</a>
</g>
</g>
<!-- R147&#45;&gt;R293 -->
<g id="edge3" class="edge">
<title>R147&#45;&gt;R293</title>
<path fill="none" stroke="black" stroke-width="6" d="M690.89,-55.5C796.85,-55.5 1058.9,-55.5 1182.48,-55.5"/>
<polygon fill="black" stroke="black" stroke-width="6" points="1177.18,-66 1197.18,-55.5 1177.18,-45 1177.18,-66"/>
<text text-anchor="middle" x="947" y="-64.5" font-family="Times New Roman,serif" font-size="30.00"> &#160;&#160;671 &#160;&#160;100% &#160;&#160;0.00265 mol/s &#160;&#160;&#160;9.76E&#45;01</text>
</g>
<!-- R56 -->
<g id="node2" class="node">
<title>R56</title>
<g id="a_node2"><a xlink:href="56.svg" xlink:title="R56">
<polygon fill="cornsilk" stroke="none" points="76,-112 0,-112 0,-65 76,-65 76,-112"/>
<text text-anchor="middle" x="38" y="-80" font-family="Times New Roman,serif" font-size="35.00">R56</text>
</a>
</g>
</g>
<!-- R56&#45;&gt;R147 -->
<g id="edge1" class="edge">
<title>R56&#45;&gt;R147</title>
<path fill="none" stroke="black" stroke-width="6" d="M75.85,-88.86C161.07,-89.3 378.69,-88.21 576.5,-67.07"/>
<polygon fill="black" stroke="black" stroke-width="6" points="572.39,-77.42 591.11,-64.78 570.08,-56.55 572.39,-77.42"/>
<text text-anchor="middle" x="341" y="-97.5" font-family="Times New Roman,serif" font-size="30.00"> &#160;&#160;199 &#160;&#160;100% &#160;&#160;0.0342 mol/s &#160;&#160;&#160;1.00E+00</text>
</g>
<!-- R1 -->
<g id="node3" class="node">
<title>R1</title>
<g id="a_node3"><a xlink:href="1.svg" xlink:title="R1">
<polygon fill="cornsilk" stroke="none" points="67,-47 9,-47 9,0 67,0 67,-47"/>
<text text-anchor="middle" x="38" y="-15" font-family="Times New Roman,serif" font-size="35.00">R1</text>
</a>
</g>
</g>
<!-- R1&#45;&gt;R147 -->
<g id="edge2" class="edge">
<title>R1&#45;&gt;R147</title>
<path fill="none" stroke="black" stroke-width="6" d="M66.87,-20.71C145.14,-13.54 373.73,2.72 576.63,-32.81"/>
<polygon fill="black" stroke="black" stroke-width="6" points="569.54,-42.28 591.12,-35.59 573.36,-21.63 569.54,-42.28"/>
<text text-anchor="middle" x="341" y="-42.5" font-family="Times New Roman,serif" font-size="30.00"> &#160;&#160;199 &#160;&#160;100% &#160;&#160;0.0342 mol/s &#160;&#160;&#160;1.00E+00</text>
</g>
</g>
</svg>
