<?xml version="1.0" encoding="UTF-8" standalone="no"?>
<!DOCTYPE svg PUBLIC "-//W3C//DTD SVG 1.1//EN"
 "http://www.w3.org/Graphics/SVG/1.1/DTD/svg11.dtd">
<!-- Generated by graphviz version 8.0.3 (20230416.2022)
 -->
<!-- Title: G Pages: 1 -->
<svg width="640pt" height="311pt"
 viewBox="0.00 0.00 720.00 350.26" xmlns="http://www.w3.org/2000/svg" xmlns:xlink="http://www.w3.org/1999/xlink">
<g id="graph0" class="graph" transform="scale(0.503937 0.503937) rotate(0) translate(4 613.82)">
<title>G</title>
<polygon fill="white" stroke="none" points="-4,4 -4,-613.82 1266,-613.82 1266,4 -4,4"/>
<text text-anchor="middle" x="631" y="-577.02" font-family="Arial" font-size="36.00" fill="blue">Reaction Path Analysis</text>
<!-- R149 -->
<g id="node1" class="node">
<title>R149</title>
<g id="a_node1"><a xlink:href="149.svg" xlink:title="R149">
<polygon fill="cornsilk" stroke="none" points="678,-293.32 584,-293.32 584,-246.32 678,-246.32 678,-293.32"/>
<text text-anchor="middle" x="631" y="-261.32" font-family="Times New Roman,serif" font-size="35.00">R149</text>
</a>
</g>
</g>
<!-- R152 -->
<g id="node6" class="node">
<title>R152</title>
<g id="a_node6"><a xlink:href="152.svg" xlink:title="R152">
<polygon fill="cornsilk" stroke="none" points="1262,-326.32 1168,-326.32 1168,-279.32 1262,-279.32 1262,-326.32"/>
<text text-anchor="middle" x="1215" y="-294.32" font-family="Times New Roman,serif" font-size="35.00">R152</text>
</a>
</g>
</g>
<!-- R149&#45;&gt;R152 -->
<g id="edge5" class="edge">
<title>R149&#45;&gt;R152</title>
<path fill="none" stroke="black" stroke-width="3" d="M677.83,-279.54C680.93,-280.02 684,-280.46 687,-280.82 857.32,-301.28 1060.57,-303.57 1157.35,-303.33"/>
<polygon fill="black" stroke="black" stroke-width="3" points="1154.35,-306.83 1164.34,-303.29 1154.33,-299.83 1154.35,-306.83"/>
<text text-anchor="middle" x="923" y="-311.82" font-family="Times New Roman,serif" font-size="30.00"> &#160;&#160;503 &#160;&#160;50% &#160;&#160;0.0342 mol/s &#160;&#160;&#160;1.00E+00</text>
</g>
<!-- R231 -->
<g id="node7" class="node">
<title>R231</title>
<g id="a_node7"><a xlink:href="231.svg" xlink:title="R231">
<polygon fill="cornsilk" stroke="none" points="1262,-261.32 1168,-261.32 1168,-214.32 1262,-214.32 1262,-261.32"/>
<text text-anchor="middle" x="1215" y="-229.32" font-family="Times New Roman,serif" font-size="35.00">R231</text>
</a>
</g>
</g>
<!-- R149&#45;&gt;R231 -->
<g id="edge6" class="edge">
<title>R149&#45;&gt;R231</title>
<path fill="none" stroke="black" stroke-width="3" d="M677.84,-250.08C680.91,-249.2 683.98,-248.43 687,-247.82 855.41,-213.72 1060.28,-224.26 1157.53,-232.3"/>
<polygon fill="black" stroke="black" stroke-width="3" points="1154.02,-235.86 1164.28,-233.22 1154.62,-228.88 1154.02,-235.86"/>
<text text-anchor="middle" x="923" y="-256.82" font-family="Times New Roman,serif" font-size="30.00"> &#160;&#160;504 &#160;&#160;50% &#160;&#160;0.0342 mol/s &#160;&#160;&#160;1.00E+00</text>
</g>
<!-- R1 -->
<g id="node2" class="node">
<title>R1</title>
<g id="a_node2"><a xlink:href="1.svg" xlink:title="R1">
<polygon fill="cornsilk" stroke="none" points="76,-507.32 18,-507.32 18,-460.32 76,-460.32 76,-507.32"/>
<text text-anchor="middle" x="47" y="-475.32" font-family="Times New Roman,serif" font-size="35.00">R1</text>
</a>
</g>
</g>
<!-- R1&#45;&gt;R149 -->
<g id="edge1" class="edge">
<title>R1&#45;&gt;R149</title>
<path fill="none" stroke="black" stroke-width="2" d="M75.84,-492.36C161.17,-516.68 422.52,-577.11 575,-456.82 621.22,-420.35 630.02,-347.1 630.91,-303.89"/>
<polygon fill="black" stroke="black" stroke-width="2" points="634.42,-306.1 630.99,-296.07 627.42,-306.05 634.42,-306.1"/>
<text text-anchor="middle" x="339" y="-537.82" font-family="Times New Roman,serif" font-size="30.00"> &#160;&#160;201 &#160;&#160;32% &#160;&#160;0.0342 mol/s &#160;&#160;&#160;1.00E+00</text>
</g>
<!-- R60 -->
<g id="node3" class="node">
<title>R60</title>
<g id="a_node3"><a xlink:href="60.svg" xlink:title="R60">
<polygon fill="cornsilk" stroke="none" points="85,-442.32 9,-442.32 9,-395.32 85,-395.32 85,-442.32"/>
<text text-anchor="middle" x="47" y="-410.32" font-family="Times New Roman,serif" font-size="35.00">R60</text>
</a>
</g>
</g>
<!-- R60&#45;&gt;R149 -->
<g id="edge2" class="edge">
<title>R60&#45;&gt;R149</title>
<path fill="none" stroke="black" stroke-width="2" d="M84.6,-419.35C197.45,-420.7 534.82,-422.36 575,-394.82 605.09,-374.19 618.87,-333.21 625.09,-303.79"/>
<polygon fill="black" stroke="black" stroke-width="2" points="628.68,-305.63 627.12,-295.15 621.81,-304.32 628.68,-305.63"/>
<text text-anchor="middle" x="339" y="-428.82" font-family="Times New Roman,serif" font-size="30.00"> &#160;&#160;201 &#160;&#160;32% &#160;&#160;0.0342 mol/s &#160;&#160;&#160;1.00E+00</text>
</g>
<!-- R4 -->
<g id="node4" class="node">
<title>R4</title>
<g id="a_node4"><a xlink:href="4.svg" xlink:title="R4">
<polygon fill="cornsilk" stroke="none" points="76,-377.32 18,-377.32 18,-330.32 76,-330.32 76,-377.32"/>
<text text-anchor="middle" x="47" y="-345.32" font-family="Times New Roman,serif" font-size="35.00">R4</text>
</a>
</g>
</g>
<!-- R4&#45;&gt;R149 -->
<g id="edge3" class="edge">
<title>R4&#45;&gt;R149</title>
<path fill="none" stroke="black" stroke-width="2" d="M75.97,-354.96C171.63,-358.46 484.8,-366.5 575,-325.82 587.01,-320.4 597.79,-311.09 606.56,-301.59"/>
<polygon fill="black" stroke="black" stroke-width="2" points="608.84,-305.15 612.73,-295.3 603.54,-300.57 608.84,-305.15"/>
<text text-anchor="middle" x="339" y="-366.82" font-family="Times New Roman,serif" font-size="30.00"> &#160;&#160;301 &#160;&#160;32% &#160;&#160;0.0342 mol/s &#160;&#160;&#160;1.00E+00</text>
</g>
<!-- R26 -->
<g id="node5" class="node">
<title>R26</title>
<g id="a_node5"><a xlink:href="26.svg" xlink:title="R26">
<polygon fill="cornsilk" stroke="none" points="85,-312.32 9,-312.32 9,-265.32 85,-265.32 85,-312.32"/>
<text text-anchor="middle" x="47" y="-280.32" font-family="Times New Roman,serif" font-size="35.00">R26</text>
</a>
</g>
</g>
<!-- R26&#45;&gt;R149 -->
<g id="edge4" class="edge">
<title>R26&#45;&gt;R149</title>
<path fill="none" stroke="black" stroke-width="2" d="M84.79,-288.97C169.11,-289.09 383.09,-288.12 573.34,-275.82"/>
<polygon fill="black" stroke="black" stroke-width="2" points="571.36,-279.26 581.11,-275.11 570.9,-272.28 571.36,-279.26"/>
<text text-anchor="middle" x="339" y="-297.82" font-family="Times New Roman,serif" font-size="30.00"> &#160;&#160;301 &#160;&#160;32% &#160;&#160;0.0342 mol/s &#160;&#160;&#160;1.00E+00</text>
</g>
<!-- R282 -->
<g id="node8" class="node">
<title>R282</title>
<g id="a_node8"><a xlink:href="282.svg" xlink:title="R282">
<polygon fill="cornsilk" stroke="none" points="94,-228.32 0,-228.32 0,-181.32 94,-181.32 94,-228.32"/>
<text text-anchor="middle" x="47" y="-196.32" font-family="Times New Roman,serif" font-size="35.00">R282</text>
</a>
</g>
</g>
<!-- R282&#45;&gt;R149 -->
<g id="edge7" class="edge">
<title>R282&#45;&gt;R149</title>
<path fill="none" stroke="black" d="M93.75,-218.12C96.86,-218.77 99.97,-219.35 103,-219.82 206.74,-235.84 474.02,-210.13 575,-238.82 578.12,-239.7 581.24,-240.79 584.34,-242.04"/>
<polygon fill="black" stroke="black" points="582.52,-245.51 593.08,-246.44 585.41,-239.13 582.52,-245.51"/>
<text text-anchor="middle" x="339" y="-247.82" font-family="Times New Roman,serif" font-size="30.00"> &#160;&#160;673 &#160;&#160;4% &#160;&#160;0.00498 mol/s &#160;&#160;&#160;2.61E&#45;01</text>
</g>
<!-- R282&#45;&gt;R149 -->
<g id="edge10" class="edge">
<title>R282&#45;&gt;R149</title>
<path fill="none" stroke="black" d="M93.83,-185.01C96.9,-184.15 99.97,-183.4 103,-182.82 154.5,-172.9 529.06,-157.51 575,-182.82 595.7,-194.22 609.69,-217.05 618.38,-236.47"/>
<polygon fill="black" stroke="black" points="615.48,-237.63 622.56,-245.52 621.95,-234.94 615.48,-237.63"/>
<text text-anchor="middle" x="339" y="-191.82" font-family="Times New Roman,serif" font-size="30.00"> &#160;&#160;766 &#160;&#160;1% &#160;&#160;0.00176 mol/s &#160;&#160;&#160;7.39E&#45;01</text>
</g>
<!-- R205 -->
<g id="node9" class="node">
<title>R205</title>
<g id="a_node9"><a xlink:href="205.svg" xlink:title="R205">
<polygon fill="cornsilk" stroke="none" points="94,-125.32 0,-125.32 0,-78.32 94,-78.32 94,-125.32"/>
<text text-anchor="middle" x="47" y="-93.32" font-family="Times New Roman,serif" font-size="35.00">R205</text>
</a>
</g>
</g>
<!-- R205&#45;&gt;R149 -->
<g id="edge8" class="edge">
<title>R205&#45;&gt;R149</title>
<path fill="none" stroke="black" stroke-width="2" d="M93.9,-107.02C96.98,-107.31 100.03,-107.58 103,-107.82 155.35,-112 532.3,-101.25 575,-131.82 608.3,-155.65 621.45,-203 626.64,-235.54"/>
<polygon fill="black" stroke="black" stroke-width="2" points="623.3,-234.95 628.16,-244.36 630.23,-233.97 623.3,-234.95"/>
<text text-anchor="middle" x="339" y="-140.82" font-family="Times New Roman,serif" font-size="30.00"> &#160;&#160;674 &#160;&#160;25% &#160;&#160;0.0264 mol/s &#160;&#160;&#160;8.53E&#45;02</text>
</g>
<!-- R205&#45;&gt;R149 -->
<g id="edge9" class="edge">
<title>R205&#45;&gt;R149</title>
<path fill="none" stroke="black" d="M83.56,-78.36C89.81,-75.25 96.43,-72.54 103,-70.82 305.91,-17.57 408.07,56.24 575,-70.82 601.17,-90.74 618.09,-184.38 625.57,-235.79"/>
<polygon fill="black" stroke="black" points="622.2,-235.97 627.06,-245.38 629.13,-234.99 622.2,-235.97"/>
<text text-anchor="middle" x="339" y="-79.82" font-family="Times New Roman,serif" font-size="30.00"> &#160;&#160;700 &#160;&#160;2% &#160;&#160;0.00246 mol/s &#160;&#160;&#160;9.15E&#45;01</text>
</g>
</g>
</svg>
