<?xml version="1.0" encoding="UTF-8" standalone="no"?>
<!DOCTYPE svg PUBLIC "-//W3C//DTD SVG 1.1//EN"
 "http://www.w3.org/Graphics/SVG/1.1/DTD/svg11.dtd">
<!-- Generated by graphviz version 8.0.3 (20230416.2022)
 -->
<!-- Title: G Pages: 1 -->
<svg width="640pt" height="536pt"
 viewBox="0.00 0.00 720.00 602.48" xmlns="http://www.w3.org/2000/svg" xmlns:xlink="http://www.w3.org/1999/xlink">
<g id="graph0" class="graph" transform="scale(0.465793 0.465793) rotate(0) translate(4 1145.73)">
<title>G</title>
<polygon fill="white" stroke="none" points="-4,4 -4,-1145.73 1370,-1145.73 1370,4 -4,4"/>
<text text-anchor="middle" x="683" y="-1108.93" font-family="Arial" font-size="36.00" fill="blue">Reaction Path Analysis</text>
<!-- R15 -->
<g id="node1" class="node">
<title>R15</title>
<g id="a_node1"><a xlink:href="15.svg" xlink:title="R15">
<polygon fill="cornsilk" stroke="none" points="721,-547.23 645,-547.23 645,-500.23 721,-500.23 721,-547.23"/>
<text text-anchor="middle" x="683" y="-515.23" font-family="Times New Roman,serif" font-size="35.00">R15</text>
</a>
</g>
</g>
<!-- R92 -->
<g id="node4" class="node">
<title>R92</title>
<g id="a_node4"><a xlink:href="92.svg" xlink:title="R92">
<polygon fill="cornsilk" stroke="none" points="1357,-1067.23 1281,-1067.23 1281,-1020.23 1357,-1020.23 1357,-1067.23"/>
<text text-anchor="middle" x="1319" y="-1035.23" font-family="Times New Roman,serif" font-size="35.00">R92</text>
</a>
</g>
</g>
<!-- R15&#45;&gt;R92 -->
<g id="edge3" class="edge">
<title>R15&#45;&gt;R92</title>
<path fill="none" stroke="black" d="M684.34,-547.08C686.16,-636.27 697.63,-953.55 769,-1016.73 842.36,-1081.67 1151.25,-1059.8 1270.63,-1048.6"/>
<polygon fill="black" stroke="black" points="1270.62,-1052.03 1280.24,-1047.59 1269.96,-1045.06 1270.62,-1052.03"/>
<text text-anchor="middle" x="1001" y="-1069.73" font-family="Times New Roman,serif" font-size="30.00"> &#160;&#160;103 &#160;&#160;6% &#160;&#160;0.0342 mol/s &#160;&#160;&#160;1.00E+00</text>
</g>
<!-- R94 -->
<g id="node5" class="node">
<title>R94</title>
<g id="a_node5"><a xlink:href="94.svg" xlink:title="R94">
<polygon fill="cornsilk" stroke="none" points="1357,-1002.23 1281,-1002.23 1281,-955.23 1357,-955.23 1357,-1002.23"/>
<text text-anchor="middle" x="1319" y="-970.23" font-family="Times New Roman,serif" font-size="35.00">R94</text>
</a>
</g>
</g>
<!-- R15&#45;&gt;R94 -->
<g id="edge4" class="edge">
<title>R15&#45;&gt;R94</title>
<path fill="none" stroke="black" d="M685,-547.04C689.01,-628.46 706.84,-898.09 769,-951.73 806.48,-984.07 1143.85,-981.72 1270.36,-979.67"/>
<polygon fill="black" stroke="black" points="1270.29,-983.16 1280.23,-979.49 1270.17,-976.16 1270.29,-983.16"/>
<text text-anchor="middle" x="1001" y="-988.73" font-family="Times New Roman,serif" font-size="30.00"> &#160;&#160;152 &#160;&#160;6% &#160;&#160;0.0342 mol/s &#160;&#160;&#160;1.00E+00</text>
</g>
<!-- R96 -->
<g id="node7" class="node">
<title>R96</title>
<g id="a_node7"><a xlink:href="96.svg" xlink:title="R96">
<polygon fill="cornsilk" stroke="none" points="1357,-937.23 1281,-937.23 1281,-890.23 1357,-890.23 1357,-937.23"/>
<text text-anchor="middle" x="1319" y="-905.23" font-family="Times New Roman,serif" font-size="35.00">R96</text>
</a>
</g>
</g>
<!-- R15&#45;&gt;R96 -->
<g id="edge6" class="edge">
<title>R15&#45;&gt;R96</title>
<path fill="none" stroke="black" d="M685.88,-547.02C692.31,-620.08 715.99,-842.54 769,-886.73 807.02,-918.43 1144.05,-916.48 1270.42,-914.6"/>
<polygon fill="black" stroke="black" points="1270.33,-918.09 1280.28,-914.43 1270.22,-911.09 1270.33,-918.09"/>
<text text-anchor="middle" x="1001" y="-923.73" font-family="Times New Roman,serif" font-size="30.00"> &#160;&#160;229 &#160;&#160;6% &#160;&#160;0.0342 mol/s &#160;&#160;&#160;1.00E+00</text>
</g>
<!-- R98 -->
<g id="node9" class="node">
<title>R98</title>
<g id="a_node9"><a xlink:href="98.svg" xlink:title="R98">
<polygon fill="cornsilk" stroke="none" points="1357,-872.23 1281,-872.23 1281,-825.23 1357,-825.23 1357,-872.23"/>
<text text-anchor="middle" x="1319" y="-840.23" font-family="Times New Roman,serif" font-size="35.00">R98</text>
</a>
</g>
</g>
<!-- R15&#45;&gt;R98 -->
<g id="edge8" class="edge">
<title>R15&#45;&gt;R98</title>
<path fill="none" stroke="black" d="M687.17,-547.02C696.37,-610.81 725.23,-785.94 769,-820.73 807.76,-851.53 1144.33,-850.8 1270.5,-849.41"/>
<polygon fill="black" stroke="black" points="1270.38,-852.9 1280.34,-849.28 1270.3,-845.9 1270.38,-852.9"/>
<text text-anchor="middle" x="1001" y="-858.73" font-family="Times New Roman,serif" font-size="30.00"> &#160;&#160;276 &#160;&#160;6% &#160;&#160;0.0342 mol/s &#160;&#160;&#160;1.00E+00</text>
</g>
<!-- R215 -->
<g id="node10" class="node">
<title>R215</title>
<g id="a_node10"><a xlink:href="215.svg" xlink:title="R215">
<polygon fill="cornsilk" stroke="none" points="1366,-807.23 1272,-807.23 1272,-760.23 1366,-760.23 1366,-807.23"/>
<text text-anchor="middle" x="1319" y="-775.23" font-family="Times New Roman,serif" font-size="35.00">R215</text>
</a>
</g>
</g>
<!-- R15&#45;&gt;R215 -->
<g id="edge9" class="edge">
<title>R15&#45;&gt;R215</title>
<path fill="none" stroke="black" d="M684.62,-547.03C687.31,-595.23 700.98,-705.58 769,-755.73 807.95,-784.44 1129.71,-785.23 1261.77,-784.32"/>
<polygon fill="black" stroke="black" points="1261.47,-787.82 1271.45,-784.24 1261.42,-780.82 1261.47,-787.82"/>
<text text-anchor="middle" x="1001" y="-792.73" font-family="Times New Roman,serif" font-size="30.00"> &#160;&#160;277 &#160;&#160;6% &#160;&#160;0.0342 mol/s &#160;&#160;&#160;1.00E+00</text>
</g>
<!-- R100 -->
<g id="node11" class="node">
<title>R100</title>
<g id="a_node11"><a xlink:href="100.svg" xlink:title="R100">
<polygon fill="cornsilk" stroke="none" points="1366,-742.23 1272,-742.23 1272,-695.23 1366,-695.23 1366,-742.23"/>
<text text-anchor="middle" x="1319" y="-710.23" font-family="Times New Roman,serif" font-size="35.00">R100</text>
</a>
</g>
</g>
<!-- R15&#45;&gt;R100 -->
<g id="edge10" class="edge">
<title>R15&#45;&gt;R100</title>
<path fill="none" stroke="black" d="M688.2,-546.97C696.37,-584.56 718.24,-657.8 769,-690.73 809.54,-717.03 1129.63,-719.24 1261.51,-719.02"/>
<polygon fill="black" stroke="black" points="1261.18,-722.51 1271.18,-718.99 1261.17,-715.51 1261.18,-722.51"/>
<text text-anchor="middle" x="1001" y="-727.73" font-family="Times New Roman,serif" font-size="30.00"> &#160;&#160;299 &#160;&#160;6% &#160;&#160;0.0342 mol/s &#160;&#160;&#160;1.00E+00</text>
</g>
<!-- R102 -->
<g id="node12" class="node">
<title>R102</title>
<g id="a_node12"><a xlink:href="102.svg" xlink:title="R102">
<polygon fill="cornsilk" stroke="none" points="1366,-677.23 1272,-677.23 1272,-630.23 1366,-630.23 1366,-677.23"/>
<text text-anchor="middle" x="1319" y="-645.23" font-family="Times New Roman,serif" font-size="35.00">R102</text>
</a>
</g>
</g>
<!-- R15&#45;&gt;R102 -->
<g id="edge11" class="edge">
<title>R15&#45;&gt;R102</title>
<path fill="none" stroke="black" d="M694.57,-546.78C707.85,-572.69 733.3,-613.5 769,-631.73 812.02,-653.69 1130.66,-654.67 1261.83,-654.12"/>
<polygon fill="black" stroke="black" points="1261.46,-657.62 1271.44,-654.07 1261.42,-650.62 1261.46,-657.62"/>
<text text-anchor="middle" x="1001" y="-662.73" font-family="Times New Roman,serif" font-size="30.00"> &#160;&#160;311 &#160;&#160;6% &#160;&#160;0.0342 mol/s &#160;&#160;&#160;1.00E+00</text>
</g>
<!-- R104 -->
<g id="node13" class="node">
<title>R104</title>
<g id="a_node13"><a xlink:href="104.svg" xlink:title="R104">
<polygon fill="cornsilk" stroke="none" points="1366,-612.23 1272,-612.23 1272,-565.23 1366,-565.23 1366,-612.23"/>
<text text-anchor="middle" x="1319" y="-580.23" font-family="Times New Roman,serif" font-size="35.00">R104</text>
</a>
</g>
</g>
<!-- R15&#45;&gt;R104 -->
<g id="edge12" class="edge">
<title>R15&#45;&gt;R104</title>
<path fill="none" stroke="black" d="M720.66,-543.13C735.29,-549.94 752.55,-556.86 769,-560.73 944.74,-602.02 1160.51,-597.58 1261.21,-592.44"/>
<polygon fill="black" stroke="black" points="1261.24,-595.89 1271.04,-591.87 1260.87,-588.9 1261.24,-595.89"/>
<text text-anchor="middle" x="1001" y="-603.73" font-family="Times New Roman,serif" font-size="30.00"> &#160;&#160;315 &#160;&#160;6% &#160;&#160;0.0342 mol/s &#160;&#160;&#160;1.00E+00</text>
</g>
<!-- R106 -->
<g id="node15" class="node">
<title>R106</title>
<g id="a_node15"><a xlink:href="106.svg" xlink:title="R106">
<polygon fill="cornsilk" stroke="none" points="1366,-547.23 1272,-547.23 1272,-500.23 1366,-500.23 1366,-547.23"/>
<text text-anchor="middle" x="1319" y="-515.23" font-family="Times New Roman,serif" font-size="35.00">R106</text>
</a>
</g>
</g>
<!-- R15&#45;&gt;R106 -->
<g id="edge14" class="edge">
<title>R15&#45;&gt;R106</title>
<path fill="none" stroke="black" d="M720.83,-523.73C827.01,-523.73 1134.29,-523.73 1261.66,-523.73"/>
<polygon fill="black" stroke="black" points="1261.33,-527.23 1271.33,-523.73 1261.33,-520.23 1261.33,-527.23"/>
<text text-anchor="middle" x="1001" y="-532.73" font-family="Times New Roman,serif" font-size="30.00"> &#160;&#160;323 &#160;&#160;6% &#160;&#160;0.0342 mol/s &#160;&#160;&#160;1.00E+00</text>
</g>
<!-- R241 -->
<g id="node16" class="node">
<title>R241</title>
<g id="a_node16"><a xlink:href="241.svg" xlink:title="R241">
<polygon fill="cornsilk" stroke="none" points="1366,-482.23 1272,-482.23 1272,-435.23 1366,-435.23 1366,-482.23"/>
<text text-anchor="middle" x="1319" y="-450.23" font-family="Times New Roman,serif" font-size="35.00">R241</text>
</a>
</g>
</g>
<!-- R15&#45;&gt;R241 -->
<g id="edge15" class="edge">
<title>R15&#45;&gt;R241</title>
<path fill="none" stroke="black" d="M720.66,-504.33C735.29,-497.51 752.55,-490.59 769,-486.73 944.74,-445.44 1160.51,-449.88 1261.21,-455.01"/>
<polygon fill="black" stroke="black" points="1260.87,-458.55 1271.04,-455.59 1261.24,-451.56 1260.87,-458.55"/>
<text text-anchor="middle" x="1001" y="-495.73" font-family="Times New Roman,serif" font-size="30.00"> &#160;&#160;324 &#160;&#160;4% &#160;&#160;0.0254 mol/s &#160;&#160;&#160;7.96E&#45;01</text>
</g>
<!-- R108 -->
<g id="node17" class="node">
<title>R108</title>
<g id="a_node17"><a xlink:href="108.svg" xlink:title="R108">
<polygon fill="cornsilk" stroke="none" points="1366,-417.23 1272,-417.23 1272,-370.23 1366,-370.23 1366,-417.23"/>
<text text-anchor="middle" x="1319" y="-385.23" font-family="Times New Roman,serif" font-size="35.00">R108</text>
</a>
</g>
</g>
<!-- R15&#45;&gt;R108 -->
<g id="edge16" class="edge">
<title>R15&#45;&gt;R108</title>
<path fill="none" stroke="black" d="M694.51,-500.46C707.72,-474.31 733.12,-433.11 769,-414.73 853.57,-371.41 1139.03,-382.8 1261.47,-389.98"/>
<polygon fill="black" stroke="black" points="1260.91,-393.51 1271.1,-390.62 1261.33,-386.52 1260.91,-393.51"/>
<text text-anchor="middle" x="1001" y="-423.73" font-family="Times New Roman,serif" font-size="30.00"> &#160;&#160;370 &#160;&#160;5% &#160;&#160;0.0285 mol/s &#160;&#160;&#160;8.58E&#45;01</text>
</g>
<!-- R274 -->
<g id="node18" class="node">
<title>R274</title>
<g id="a_node18"><a xlink:href="274.svg" xlink:title="R274">
<polygon fill="cornsilk" stroke="none" points="1366,-352.23 1272,-352.23 1272,-305.23 1366,-305.23 1366,-352.23"/>
<text text-anchor="middle" x="1319" y="-320.23" font-family="Times New Roman,serif" font-size="35.00">R274</text>
</a>
</g>
</g>
<!-- R15&#45;&gt;R274 -->
<g id="edge17" class="edge">
<title>R15&#45;&gt;R274</title>
<path fill="none" stroke="black" d="M687.34,-500.49C694.41,-460.84 714.94,-381 769,-345.73 848.75,-293.69 1138.22,-312.5 1261.63,-323.29"/>
<polygon fill="black" stroke="black" points="1261.07,-326.84 1271.34,-324.24 1261.69,-319.87 1261.07,-326.84"/>
<text text-anchor="middle" x="1001" y="-354.73" font-family="Times New Roman,serif" font-size="30.00"> &#160;&#160;371 &#160;&#160;6% &#160;&#160;0.0341 mol/s &#160;&#160;&#160;9.97E&#45;01</text>
</g>
<!-- R299 -->
<g id="node21" class="node">
<title>R299</title>
<g id="a_node21"><a xlink:href="299.svg" xlink:title="R299">
<polygon fill="cornsilk" stroke="none" points="1366,-287.23 1272,-287.23 1272,-240.23 1366,-240.23 1366,-287.23"/>
<text text-anchor="middle" x="1319" y="-255.23" font-family="Times New Roman,serif" font-size="35.00">R299</text>
</a>
</g>
</g>
<!-- R15&#45;&gt;R299 -->
<g id="edge20" class="edge">
<title>R15&#45;&gt;R299</title>
<path fill="none" stroke="black" d="M683.8,-500.45C684.77,-449.36 695.13,-327.66 769,-273.73 807.99,-245.26 1128.98,-255.58 1261.31,-261.13"/>
<polygon fill="black" stroke="black" points="1260.87,-264.66 1271.01,-261.59 1261.17,-257.67 1260.87,-264.66"/>
<text text-anchor="middle" x="1001" y="-282.73" font-family="Times New Roman,serif" font-size="30.00"> &#160;&#160;405 &#160;&#160;6% &#160;&#160;0.0342 mol/s &#160;&#160;&#160;1.00E+00</text>
</g>
<!-- R302 -->
<g id="node24" class="node">
<title>R302</title>
<g id="a_node24"><a xlink:href="302.svg" xlink:title="R302">
<polygon fill="cornsilk" stroke="none" points="1366,-222.23 1272,-222.23 1272,-175.23 1366,-175.23 1366,-222.23"/>
<text text-anchor="middle" x="1319" y="-190.23" font-family="Times New Roman,serif" font-size="35.00">R302</text>
</a>
</g>
</g>
<!-- R15&#45;&gt;R302 -->
<g id="edge23" class="edge">
<title>R15&#45;&gt;R302</title>
<path fill="none" stroke="black" d="M686.89,-500.57C695.54,-435.34 723.48,-252.55 769,-216.73 806.99,-186.83 1129.32,-193 1261.65,-196.86"/>
<polygon fill="black" stroke="black" points="1261.25,-200.38 1271.35,-197.18 1261.45,-193.39 1261.25,-200.38"/>
<text text-anchor="middle" x="1001" y="-225.73" font-family="Times New Roman,serif" font-size="30.00"> &#160;&#160;408 &#160;&#160;6% &#160;&#160;0.0314 mol/s &#160;&#160;&#160;9.24E&#45;01</text>
</g>
<!-- R304 -->
<g id="node26" class="node">
<title>R304</title>
<g id="a_node26"><a xlink:href="304.svg" xlink:title="R304">
<polygon fill="cornsilk" stroke="none" points="1366,-157.23 1272,-157.23 1272,-110.23 1366,-110.23 1366,-157.23"/>
<text text-anchor="middle" x="1319" y="-125.23" font-family="Times New Roman,serif" font-size="35.00">R304</text>
</a>
</g>
</g>
<!-- R15&#45;&gt;R304 -->
<g id="edge25" class="edge">
<title>R15&#45;&gt;R304</title>
<path fill="none" stroke="black" d="M685.81,-500.43C692.04,-426.79 715.27,-201.31 769,-156.73 806.22,-125.85 1129,-129.46 1261.55,-132.29"/>
<polygon fill="black" stroke="black" points="1261.19,-135.81 1271.26,-132.53 1261.34,-128.81 1261.19,-135.81"/>
<text text-anchor="middle" x="1001" y="-165.73" font-family="Times New Roman,serif" font-size="30.00"> &#160;&#160;410 &#160;&#160;6% &#160;&#160;0.0342 mol/s &#160;&#160;&#160;1.00E+00</text>
</g>
<!-- R26 -->
<g id="node27" class="node">
<title>R26</title>
<g id="a_node27"><a xlink:href="26.svg" xlink:title="R26">
<polygon fill="cornsilk" stroke="none" points="1357,-78.23 1281,-78.23 1281,-31.23 1357,-31.23 1357,-78.23"/>
<text text-anchor="middle" x="1319" y="-46.23" font-family="Times New Roman,serif" font-size="35.00">R26</text>
</a>
</g>
</g>
<!-- R15&#45;&gt;R26 -->
<g id="edge26" class="edge">
<title>R15&#45;&gt;R26</title>
<path fill="none" stroke="black" d="M684.98,-500.31C688.95,-418.54 706.65,-147.71 769,-93.73 808.03,-59.93 1181.71,-75.56 1233,-69.73 1245.32,-68.33 1258.56,-66.27 1270.83,-64.11"/>
<polygon fill="black" stroke="black" points="1271.11,-67.44 1280.33,-62.22 1269.86,-60.55 1271.11,-67.44"/>
<text text-anchor="middle" x="1001" y="-102.73" font-family="Times New Roman,serif" font-size="30.00"> &#160;&#160;420 &#160;&#160;0% &#160;&#160;0.00236 mol/s &#160;&#160;&#160;8.84E&#45;01</text>
</g>
<!-- R15&#45;&gt;R26 -->
<g id="edge27" class="edge">
<title>R15&#45;&gt;R26</title>
<path fill="none" stroke="black" d="M684.26,-500.36C685.8,-411.13 696.36,-93.87 769,-32.73 847.88,33.67 1130.71,-19.71 1233,-32.73 1245.4,-34.31 1258.57,-37.13 1270.75,-40.24"/>
<polygon fill="black" stroke="black" points="1269.59,-43.82 1280.16,-43.02 1271.4,-37.06 1269.59,-43.82"/>
<text text-anchor="middle" x="1001" y="-41.73" font-family="Times New Roman,serif" font-size="30.00"> &#160;&#160;431 &#160;&#160;3% &#160;&#160;0.0181 mol/s &#160;&#160;&#160;1.16E&#45;01</text>
</g>
<!-- R0 -->
<g id="node2" class="node">
<title>R0</title>
<g id="a_node2"><a xlink:href="0.svg" xlink:title="R0">
<polygon fill="cornsilk" stroke="none" points="76,-840.23 18,-840.23 18,-793.23 76,-793.23 76,-840.23"/>
<text text-anchor="middle" x="47" y="-808.23" font-family="Times New Roman,serif" font-size="35.00">R0</text>
</a>
</g>
</g>
<!-- R0&#45;&gt;R15 -->
<g id="edge1" class="edge">
<title>R0&#45;&gt;R15</title>
<path fill="none" stroke="black" d="M75.77,-825.94C167.27,-854.4 462.79,-930.8 627,-790.73 661.9,-760.96 675.48,-623.16 680.02,-558.02"/>
<polygon fill="black" stroke="black" points="683.57,-558.32 680.74,-548.11 676.59,-557.86 683.57,-558.32"/>
<text text-anchor="middle" x="365" y="-880.73" font-family="Times New Roman,serif" font-size="30.00"> &#160;&#160;18 &#160;&#160;0% &#160;&#160;0.0342 mol/s &#160;&#160;&#160;1.00E+00</text>
</g>
<!-- R14 -->
<g id="node3" class="node">
<title>R14</title>
<g id="a_node3"><a xlink:href="14.svg" xlink:title="R14">
<polygon fill="cornsilk" stroke="none" points="85,-775.23 9,-775.23 9,-728.23 85,-728.23 85,-775.23"/>
<text text-anchor="middle" x="47" y="-743.23" font-family="Times New Roman,serif" font-size="35.00">R14</text>
</a>
</g>
</g>
<!-- R14&#45;&gt;R15 -->
<g id="edge2" class="edge">
<title>R14&#45;&gt;R15</title>
<path fill="none" stroke="black" d="M84.97,-752.62C205.96,-755.19 584.82,-760.47 627,-726.73 653.23,-705.74 670.17,-610.06 677.62,-557.89"/>
<polygon fill="black" stroke="black" points="681.2,-558.54 679.11,-548.16 674.27,-557.58 681.2,-558.54"/>
<text text-anchor="middle" x="365" y="-762.73" font-family="Times New Roman,serif" font-size="30.00"> &#160;&#160;18 &#160;&#160;0% &#160;&#160;0.0342 mol/s &#160;&#160;&#160;1.00E+00</text>
</g>
<!-- R109 -->
<g id="node6" class="node">
<title>R109</title>
<g id="a_node6"><a xlink:href="109.svg" xlink:title="R109">
<polygon fill="cornsilk" stroke="none" points="94,-710.23 0,-710.23 0,-663.23 94,-663.23 94,-710.23"/>
<text text-anchor="middle" x="47" y="-678.23" font-family="Times New Roman,serif" font-size="35.00">R109</text>
</a>
</g>
</g>
<!-- R109&#45;&gt;R15 -->
<g id="edge5" class="edge">
<title>R109&#45;&gt;R15</title>
<path fill="none" stroke="black" d="M93.66,-687.83C222.78,-690.55 584.02,-695.31 627,-664.73 661.33,-640.3 674.24,-591.14 679.08,-557.83"/>
<polygon fill="black" stroke="black" points="682.65,-558.56 680.44,-548.2 675.7,-557.67 682.65,-558.56"/>
<text text-anchor="middle" x="365" y="-698.73" font-family="Times New Roman,serif" font-size="30.00"> &#160;&#160;153 &#160;&#160;0% &#160;&#160;6.47 mol/s &#160;&#160;&#160;5.23E&#45;03</text>
</g>
<!-- R177 -->
<g id="node8" class="node">
<title>R177</title>
<g id="a_node8"><a xlink:href="177.svg" xlink:title="R177">
<polygon fill="cornsilk" stroke="none" points="94,-645.23 0,-645.23 0,-598.23 94,-598.23 94,-645.23"/>
<text text-anchor="middle" x="47" y="-613.23" font-family="Times New Roman,serif" font-size="35.00">R177</text>
</a>
</g>
</g>
<!-- R177&#45;&gt;R15 -->
<g id="edge7" class="edge">
<title>R177&#45;&gt;R15</title>
<path fill="none" stroke="black" d="M93.79,-624.44C213.83,-630.79 534.69,-642.69 627,-594.73 643.23,-586.3 656.13,-570.68 665.35,-556.24"/>
<polygon fill="black" stroke="black" points="668.75,-558.39 670.88,-548.01 662.74,-554.79 668.75,-558.39"/>
<text text-anchor="middle" x="365" y="-638.73" font-family="Times New Roman,serif" font-size="30.00"> &#160;&#160;230 &#160;&#160;0% &#160;&#160;0.0759 mol/s &#160;&#160;&#160;2.37E&#45;01</text>
</g>
<!-- R236 -->
<g id="node14" class="node">
<title>R236</title>
<g id="a_node14"><a xlink:href="236.svg" xlink:title="R236">
<polygon fill="cornsilk" stroke="none" points="94,-580.23 0,-580.23 0,-533.23 94,-533.23 94,-580.23"/>
<text text-anchor="middle" x="47" y="-548.23" font-family="Times New Roman,serif" font-size="35.00">R236</text>
</a>
</g>
</g>
<!-- R236&#45;&gt;R15 -->
<g id="edge13" class="edge">
<title>R236&#45;&gt;R15</title>
<path fill="none" stroke="black" d="M93.98,-557.46C192.21,-558.48 429.7,-558.06 627,-534.73 629.4,-534.44 631.84,-534.11 634.31,-533.75"/>
<polygon fill="black" stroke="black" points="634.86,-537.04 644.15,-531.94 633.71,-530.13 634.86,-537.04"/>
<text text-anchor="middle" x="365" y="-566.73" font-family="Times New Roman,serif" font-size="30.00"> &#160;&#160;316 &#160;&#160;0% &#160;&#160;8.88 mol/s &#160;&#160;&#160;3.82E&#45;03</text>
</g>
<!-- R275 -->
<g id="node19" class="node">
<title>R275</title>
<g id="a_node19"><a xlink:href="275.svg" xlink:title="R275">
<polygon fill="cornsilk" stroke="none" points="94,-515.23 0,-515.23 0,-468.23 94,-468.23 94,-515.23"/>
<text text-anchor="middle" x="47" y="-483.23" font-family="Times New Roman,serif" font-size="35.00">R275</text>
</a>
</g>
</g>
<!-- R275&#45;&gt;R15 -->
<g id="edge18" class="edge">
<title>R275&#45;&gt;R15</title>
<path fill="none" stroke="black" d="M93.64,-486.98C192.22,-477.92 431.86,-462.4 627,-501.73 629.65,-502.26 632.33,-502.92 635.01,-503.66"/>
<polygon fill="black" stroke="black" points="633.69,-507.24 644.28,-506.93 635.82,-500.56 633.69,-507.24"/>
<text text-anchor="middle" x="365" y="-510.73" font-family="Times New Roman,serif" font-size="30.00"> &#160;&#160;372 &#160;&#160;0% &#160;&#160;2230.0 mol/s &#160;&#160;&#160;1.53E&#45;05</text>
</g>
<!-- R298 -->
<g id="node20" class="node">
<title>R298</title>
<g id="a_node20"><a xlink:href="298.svg" xlink:title="R298">
<polygon fill="cornsilk" stroke="none" points="94,-450.23 0,-450.23 0,-403.23 94,-403.23 94,-450.23"/>
<text text-anchor="middle" x="47" y="-418.23" font-family="Times New Roman,serif" font-size="35.00">R298</text>
</a>
</g>
</g>
<!-- R298&#45;&gt;R15 -->
<g id="edge19" class="edge">
<title>R298&#45;&gt;R15</title>
<path fill="none" stroke="black" d="M93.96,-422.27C214.42,-411.43 536.22,-388.12 627,-438.73 646.95,-449.85 660.82,-471.58 669.64,-490.28"/>
<polygon fill="black" stroke="black" points="666.8,-491.53 674.02,-499.28 673.21,-488.71 666.8,-491.53"/>
<text text-anchor="middle" x="365" y="-447.73" font-family="Times New Roman,serif" font-size="30.00"> &#160;&#160;404 &#160;&#160;0% &#160;&#160;73500.0 mol/s &#160;&#160;&#160;4.65E&#45;07</text>
</g>
<!-- R300 -->
<g id="node22" class="node">
<title>R300</title>
<g id="a_node22"><a xlink:href="300.svg" xlink:title="R300">
<polygon fill="cornsilk" stroke="none" points="94,-385.23 0,-385.23 0,-338.23 94,-338.23 94,-385.23"/>
<text text-anchor="middle" x="47" y="-353.23" font-family="Times New Roman,serif" font-size="35.00">R300</text>
</a>
</g>
</g>
<!-- R300&#45;&gt;R15 -->
<g id="edge21" class="edge">
<title>R300&#45;&gt;R15</title>
<path fill="none" stroke="black" d="M93.77,-355.9C215.25,-341.41 542.26,-309.13 627,-369.73 665.19,-397.04 676.99,-453.34 680.56,-489.77"/>
<polygon fill="black" stroke="black" points="677.13,-489.7 681.42,-499.39 684.1,-489.14 677.13,-489.7"/>
<text text-anchor="middle" x="365" y="-378.73" font-family="Times New Roman,serif" font-size="30.00"> &#160;&#160;406 &#160;&#160;0% &#160;&#160;4.31 mol/s &#160;&#160;&#160;7.80E&#45;03</text>
</g>
<!-- R301 -->
<g id="node23" class="node">
<title>R301</title>
<g id="a_node23"><a xlink:href="301.svg" xlink:title="R301">
<polygon fill="cornsilk" stroke="none" points="94,-320.23 0,-320.23 0,-273.23 94,-273.23 94,-320.23"/>
<text text-anchor="middle" x="47" y="-288.23" font-family="Times New Roman,serif" font-size="35.00">R301</text>
</a>
</g>
</g>
<!-- R301&#45;&gt;R15 -->
<g id="edge22" class="edge">
<title>R301&#45;&gt;R15</title>
<path fill="none" stroke="black" d="M93.81,-293.54C223.34,-284.95 585.57,-264.14 627,-296.73 657.03,-320.35 672.65,-432.19 678.8,-489.58"/>
<polygon fill="black" stroke="black" points="675.4,-489.7 679.91,-499.29 682.36,-488.98 675.4,-489.7"/>
<text text-anchor="middle" x="365" y="-305.73" font-family="Times New Roman,serif" font-size="30.00"> &#160;&#160;407 &#160;&#160;0% &#160;&#160;5950.0 mol/s &#160;&#160;&#160;5.74E&#45;06</text>
</g>
<!-- R303 -->
<g id="node25" class="node">
<title>R303</title>
<g id="a_node25"><a xlink:href="303.svg" xlink:title="R303">
<polygon fill="cornsilk" stroke="none" points="94,-255.23 0,-255.23 0,-208.23 94,-208.23 94,-255.23"/>
<text text-anchor="middle" x="47" y="-223.23" font-family="Times New Roman,serif" font-size="35.00">R303</text>
</a>
</g>
</g>
<!-- R303&#45;&gt;R15 -->
<g id="edge24" class="edge">
<title>R303&#45;&gt;R15</title>
<path fill="none" stroke="black" stroke-width="5" d="M93.65,-215.46C200.85,-180.46 471.38,-111.25 627,-241.73 662.7,-271.66 675.58,-408.04 679.94,-479.6"/>
<polygon fill="black" stroke="black" stroke-width="5" points="671.25,-474.84 681.07,-494.33 688.72,-473.89 671.25,-474.84"/>
<text text-anchor="middle" x="365" y="-250.73" font-family="Times New Roman,serif" font-size="30.00"> &#160;&#160;409 &#160;&#160;99% &#160;&#160;11800000.0 mol/s &#160;&#160;&#160;2.89E&#45;09</text>
</g>
</g>
</svg>
