<?xml version="1.0" encoding="UTF-8" standalone="no"?>
<!DOCTYPE svg PUBLIC "-//W3C//DTD SVG 1.1//EN"
 "http://www.w3.org/Graphics/SVG/1.1/DTD/svg11.dtd">
<!-- Generated by graphviz version 8.0.3 (20230416.2022)
 -->
<!-- Title: G Pages: 1 -->
<svg width="640pt" height="87pt"
 viewBox="0.00 0.00 720.00 97.93" xmlns="http://www.w3.org/2000/svg" xmlns:xlink="http://www.w3.org/1999/xlink">
<g id="graph0" class="graph" transform="scale(0.490421 0.490421) rotate(0) translate(4 173.5)">
<title>G</title>
<polygon fill="white" stroke="none" points="-4,4 -4,-173.5 1301,-173.5 1301,4 -4,4"/>
<text text-anchor="middle" x="648.5" y="-136.7" font-family="Arial" font-size="36.00" fill="blue">Reaction Path Analysis</text>
<!-- R154 -->
<g id="node1" class="node">
<title>R154</title>
<g id="a_node1"><a xlink:href="154.svg" xlink:title="R154">
<polygon fill="cornsilk" stroke="none" points="691,-79 597,-79 597,-32 691,-32 691,-79"/>
<text text-anchor="middle" x="644" y="-47" font-family="Times New Roman,serif" font-size="35.00">R154</text>
</a>
</g>
</g>
<!-- R312 -->
<g id="node4" class="node">
<title>R312</title>
<g id="a_node4"><a xlink:href="312.svg" xlink:title="R312">
<polygon fill="cornsilk" stroke="none" points="1297,-79 1203,-79 1203,-32 1297,-32 1297,-79"/>
<text text-anchor="middle" x="1250" y="-47" font-family="Times New Roman,serif" font-size="35.00">R312</text>
</a>
</g>
</g>
<!-- R154&#45;&gt;R312 -->
<g id="edge3" class="edge">
<title>R154&#45;&gt;R312</title>
<path fill="none" stroke="black" stroke-width="6" d="M690.89,-55.5C796.85,-55.5 1058.9,-55.5 1182.48,-55.5"/>
<polygon fill="black" stroke="black" stroke-width="6" points="1177.18,-66 1197.18,-55.5 1177.18,-45 1177.18,-66"/>
<text text-anchor="middle" x="947" y="-64.5" font-family="Times New Roman,serif" font-size="30.00"> &#160;&#160;676 &#160;&#160;100% &#160;&#160;0.00272 mol/s &#160;&#160;&#160;9.99E&#45;01</text>
</g>
<!-- R61 -->
<g id="node2" class="node">
<title>R61</title>
<g id="a_node2"><a xlink:href="61.svg" xlink:title="R61">
<polygon fill="cornsilk" stroke="none" points="76,-112 0,-112 0,-65 76,-65 76,-112"/>
<text text-anchor="middle" x="38" y="-80" font-family="Times New Roman,serif" font-size="35.00">R61</text>
</a>
</g>
</g>
<!-- R61&#45;&gt;R154 -->
<g id="edge1" class="edge">
<title>R61&#45;&gt;R154</title>
<path fill="none" stroke="black" stroke-width="6" d="M75.89,-88.7C160.68,-88.79 376.34,-87 576.18,-66.52"/>
<polygon fill="black" stroke="black" stroke-width="6" points="572.24,-76.86 591.02,-64.31 570.02,-55.98 572.24,-76.86"/>
<text text-anchor="middle" x="341" y="-97.5" font-family="Times New Roman,serif" font-size="30.00"> &#160;&#160;206 &#160;&#160;100% &#160;&#160;0.0339 mol/s &#160;&#160;&#160;9.92E&#45;01</text>
</g>
<!-- R1 -->
<g id="node3" class="node">
<title>R1</title>
<g id="a_node3"><a xlink:href="1.svg" xlink:title="R1">
<polygon fill="cornsilk" stroke="none" points="67,-47 9,-47 9,0 67,0 67,-47"/>
<text text-anchor="middle" x="38" y="-15" font-family="Times New Roman,serif" font-size="35.00">R1</text>
</a>
</g>
</g>
<!-- R1&#45;&gt;R154 -->
<g id="edge2" class="edge">
<title>R1&#45;&gt;R154</title>
<path fill="none" stroke="black" stroke-width="6" d="M66.92,-20.91C144.83,-14.32 371.39,0.47 576.61,-33.87"/>
<polygon fill="black" stroke="black" stroke-width="6" points="569.51,-43.34 591.03,-36.47 573.15,-22.66 569.51,-43.34"/>
<text text-anchor="middle" x="341" y="-42.5" font-family="Times New Roman,serif" font-size="30.00"> &#160;&#160;206 &#160;&#160;100% &#160;&#160;0.0339 mol/s &#160;&#160;&#160;9.92E&#45;01</text>
</g>
</g>
</svg>
