<?xml version="1.0" encoding="UTF-8" standalone="no"?>
<!DOCTYPE svg PUBLIC "-//W3C//DTD SVG 1.1//EN"
 "http://www.w3.org/Graphics/SVG/1.1/DTD/svg11.dtd">
<!-- Generated by graphviz version 8.0.3 (20230416.2022)
 -->
<!-- Title: G Pages: 1 -->
<svg width="616pt" height="228pt"
 viewBox="0.00 0.00 693.00 256.50" xmlns="http://www.w3.org/2000/svg" xmlns:xlink="http://www.w3.org/1999/xlink">
<g id="graph0" class="graph" transform="scale(0.888889 0.888889) rotate(0) translate(4 252.5)">
<title>G</title>
<polygon fill="white" stroke="none" points="-4,4 -4,-252.5 689,-252.5 689,4 -4,4"/>
<text text-anchor="middle" x="342.5" y="-215.7" font-family="Arial" font-size="36.00" fill="blue">Reaction Path Analysis</text>
<!-- R155 -->
<g id="node1" class="node">
<title>R155</title>
<g id="a_node1"><a xlink:href="155.svg" xlink:title="R155">
<polygon fill="cornsilk" stroke="none" points="94,-112 0,-112 0,-65 94,-65 94,-112"/>
<text text-anchor="middle" x="47" y="-80" font-family="Times New Roman,serif" font-size="35.00">R155</text>
</a>
</g>
</g>
<!-- R62 -->
<g id="node2" class="node">
<title>R62</title>
<g id="a_node2"><a xlink:href="62.svg" xlink:title="R62">
<polygon fill="cornsilk" stroke="none" points="676,-177 600,-177 600,-130 676,-130 676,-177"/>
<text text-anchor="middle" x="638" y="-145" font-family="Times New Roman,serif" font-size="35.00">R62</text>
</a>
</g>
</g>
<!-- R155&#45;&gt;R62 -->
<g id="edge1" class="edge">
<title>R155&#45;&gt;R62</title>
<path fill="none" stroke="black" stroke-width="5" d="M76.42,-111.82C84.54,-117.28 93.72,-122.4 103,-125.5 268.78,-180.86 479.52,-169.94 579.44,-160.28"/>
<polygon fill="black" stroke="black" stroke-width="5" points="575.15,-168.9 594.14,-158.14 573.35,-151.5 575.15,-168.9"/>
<text text-anchor="middle" x="342.5" y="-176.5" font-family="Times New Roman,serif" font-size="30.00"> &#160;&#160;207 &#160;&#160;99% &#160;&#160;37700.0 mol/s &#160;&#160;&#160;9.07E&#45;07</text>
</g>
<!-- R1 -->
<g id="node3" class="node">
<title>R1</title>
<g id="a_node3"><a xlink:href="1.svg" xlink:title="R1">
<polygon fill="cornsilk" stroke="none" points="667,-112 609,-112 609,-65 667,-65 667,-112"/>
<text text-anchor="middle" x="638" y="-80" font-family="Times New Roman,serif" font-size="35.00">R1</text>
</a>
</g>
</g>
<!-- R155&#45;&gt;R1 -->
<g id="edge2" class="edge">
<title>R155&#45;&gt;R1</title>
<path fill="none" stroke="black" stroke-width="5" d="M93.73,-88.5C202.6,-88.5 476.41,-88.5 588.26,-88.5"/>
<polygon fill="black" stroke="black" stroke-width="5" points="583.26,-97.25 603.26,-88.5 583.26,-79.75 583.26,-97.25"/>
<text text-anchor="middle" x="342.5" y="-97.5" font-family="Times New Roman,serif" font-size="30.00"> &#160;&#160;207 &#160;&#160;99% &#160;&#160;37700.0 mol/s &#160;&#160;&#160;9.07E&#45;07</text>
</g>
<!-- R297 -->
<g id="node4" class="node">
<title>R297</title>
<g id="a_node4"><a xlink:href="297.svg" xlink:title="R297">
<polygon fill="cornsilk" stroke="none" points="685,-47 591,-47 591,0 685,0 685,-47"/>
<text text-anchor="middle" x="638" y="-15" font-family="Times New Roman,serif" font-size="35.00">R297</text>
</a>
</g>
</g>
<!-- R155&#45;&gt;R297 -->
<g id="edge3" class="edge">
<title>R155&#45;&gt;R297</title>
<path fill="none" stroke="black" d="M76.42,-65.18C84.54,-59.72 93.72,-54.6 103,-51.5 269.35,4.05 480.99,-7.14 580.48,-16.82"/>
<polygon fill="black" stroke="black" points="579.89,-20.38 590.19,-17.9 580.59,-13.41 579.89,-20.38"/>
<text text-anchor="middle" x="342.5" y="-60.5" font-family="Times New Roman,serif" font-size="30.00"> &#160;&#160;677 &#160;&#160;0% &#160;&#160;0.00272 mol/s &#160;&#160;&#160;1.00E+00</text>
</g>
</g>
</svg>
