<?xml version="1.0" encoding="UTF-8" standalone="no"?>
<!DOCTYPE svg PUBLIC "-//W3C//DTD SVG 1.1//EN"
 "http://www.w3.org/Graphics/SVG/1.1/DTD/svg11.dtd">
<!-- Generated by graphviz version 8.0.3 (20230416.2022)
 -->
<!-- Title: G Pages: 1 -->
<svg width="610pt" height="228pt"
 viewBox="0.00 0.00 686.00 256.50" xmlns="http://www.w3.org/2000/svg" xmlns:xlink="http://www.w3.org/1999/xlink">
<g id="graph0" class="graph" transform="scale(0.888889 0.888889) rotate(0) translate(4 252.5)">
<title>G</title>
<polygon fill="white" stroke="none" points="-4,4 -4,-252.5 682,-252.5 682,4 -4,4"/>
<text text-anchor="middle" x="339" y="-215.7" font-family="Arial" font-size="36.00" fill="blue">Reaction Path Analysis</text>
<!-- R158 -->
<g id="node1" class="node">
<title>R158</title>
<g id="a_node1"><a xlink:href="158.svg" xlink:title="R158">
<polygon fill="cornsilk" stroke="none" points="94,-112 0,-112 0,-65 94,-65 94,-112"/>
<text text-anchor="middle" x="47" y="-80" font-family="Times New Roman,serif" font-size="35.00">R158</text>
</a>
</g>
</g>
<!-- R64 -->
<g id="node2" class="node">
<title>R64</title>
<g id="a_node2"><a xlink:href="64.svg" xlink:title="R64">
<polygon fill="cornsilk" stroke="none" points="669,-177 593,-177 593,-130 669,-130 669,-177"/>
<text text-anchor="middle" x="631" y="-145" font-family="Times New Roman,serif" font-size="35.00">R64</text>
</a>
</g>
</g>
<!-- R158&#45;&gt;R64 -->
<g id="edge1" class="edge">
<title>R158&#45;&gt;R64</title>
<path fill="none" stroke="black" stroke-width="5" d="M76.42,-111.82C84.54,-117.28 93.72,-122.4 103,-125.5 266.22,-180.07 473.63,-169.63 572.52,-160.21"/>
<polygon fill="black" stroke="black" stroke-width="5" points="568.29,-168.82 587.3,-158.09 566.52,-151.41 568.29,-168.82"/>
<text text-anchor="middle" x="339" y="-176.5" font-family="Times New Roman,serif" font-size="30.00"> &#160;&#160;210 &#160;&#160;99% &#160;&#160;0.657 mol/s &#160;&#160;&#160;4.71E&#45;02</text>
</g>
<!-- R1 -->
<g id="node3" class="node">
<title>R1</title>
<g id="a_node3"><a xlink:href="1.svg" xlink:title="R1">
<polygon fill="cornsilk" stroke="none" points="660,-112 602,-112 602,-65 660,-65 660,-112"/>
<text text-anchor="middle" x="631" y="-80" font-family="Times New Roman,serif" font-size="35.00">R1</text>
</a>
</g>
</g>
<!-- R158&#45;&gt;R1 -->
<g id="edge2" class="edge">
<title>R158&#45;&gt;R1</title>
<path fill="none" stroke="black" stroke-width="5" d="M93.67,-88.5C201.36,-88.5 470.41,-88.5 581.18,-88.5"/>
<polygon fill="black" stroke="black" stroke-width="5" points="576,-97.25 596,-88.5 576,-79.75 576,-97.25"/>
<text text-anchor="middle" x="339" y="-97.5" font-family="Times New Roman,serif" font-size="30.00"> &#160;&#160;210 &#160;&#160;99% &#160;&#160;0.657 mol/s &#160;&#160;&#160;4.71E&#45;02</text>
</g>
<!-- R291 -->
<g id="node4" class="node">
<title>R291</title>
<g id="a_node4"><a xlink:href="291.svg" xlink:title="R291">
<polygon fill="cornsilk" stroke="none" points="678,-47 584,-47 584,0 678,0 678,-47"/>
<text text-anchor="middle" x="631" y="-15" font-family="Times New Roman,serif" font-size="35.00">R291</text>
</a>
</g>
</g>
<!-- R158&#45;&gt;R291 -->
<g id="edge3" class="edge">
<title>R158&#45;&gt;R291</title>
<path fill="none" stroke="black" d="M76.42,-65.18C84.54,-59.72 93.72,-54.6 103,-51.5 266.58,3.19 474.54,-7.41 573.17,-16.85"/>
<polygon fill="black" stroke="black" points="572.78,-20.43 583.08,-17.94 573.47,-13.47 572.78,-20.43"/>
<text text-anchor="middle" x="339" y="-60.5" font-family="Times New Roman,serif" font-size="30.00"> &#160;&#160;680 &#160;&#160;0% &#160;&#160;0.00272 mol/s &#160;&#160;&#160;1.00E+00</text>
</g>
</g>
</svg>
