<?xml version="1.0" encoding="UTF-8" standalone="no"?>
<!DOCTYPE svg PUBLIC "-//W3C//DTD SVG 1.1//EN"
 "http://www.w3.org/Graphics/SVG/1.1/DTD/svg11.dtd">
<!-- Generated by graphviz version 8.0.3 (20230416.2022)
 -->
<!-- Title: G Pages: 1 -->
<svg width="629pt" height="492pt"
 viewBox="0.00 0.00 708.00 554.06" xmlns="http://www.w3.org/2000/svg" xmlns:xlink="http://www.w3.org/1999/xlink">
<g id="graph0" class="graph" transform="scale(0.888889 0.888889) rotate(0) translate(4 550.06)">
<title>G</title>
<polygon fill="white" stroke="none" points="-4,4 -4,-550.06 704,-550.06 704,4 -4,4"/>
<text text-anchor="middle" x="350" y="-513.26" font-family="Arial" font-size="36.00" fill="blue">Reaction Path Analysis</text>
<!-- R159 -->
<g id="node1" class="node">
<title>R159</title>
<g id="a_node1"><a xlink:href="159.svg" xlink:title="R159">
<polygon fill="cornsilk" stroke="none" points="700,-259.56 606,-259.56 606,-212.56 700,-212.56 700,-259.56"/>
<text text-anchor="middle" x="653" y="-227.56" font-family="Times New Roman,serif" font-size="35.00">R159</text>
</a>
</g>
</g>
<!-- R1 -->
<g id="node2" class="node">
<title>R1</title>
<g id="a_node2"><a xlink:href="1.svg" xlink:title="R1">
<polygon fill="cornsilk" stroke="none" points="76,-473.56 18,-473.56 18,-426.56 76,-426.56 76,-473.56"/>
<text text-anchor="middle" x="47" y="-441.56" font-family="Times New Roman,serif" font-size="35.00">R1</text>
</a>
</g>
</g>
<!-- R1&#45;&gt;R159 -->
<g id="edge1" class="edge">
<title>R1&#45;&gt;R159</title>
<path fill="none" stroke="black" stroke-width="3" d="M75.98,-452.77C176.19,-461.86 515.46,-487.25 597,-423.06 621.05,-404.12 638.58,-318.56 646.79,-270"/>
<polygon fill="black" stroke="black" stroke-width="3" points="650.37,-273.81 648.54,-263.37 643.46,-272.67 650.37,-273.81"/>
<text text-anchor="middle" x="350" y="-474.06" font-family="Times New Roman,serif" font-size="30.00"> &#160;&#160;211 &#160;&#160;49% &#160;&#160;2.18e&#45;15 mol/s &#160;&#160;&#160;1.00E+00</text>
</g>
<!-- R68 -->
<g id="node3" class="node">
<title>R68</title>
<g id="a_node3"><a xlink:href="68.svg" xlink:title="R68">
<polygon fill="cornsilk" stroke="none" points="85,-408.56 9,-408.56 9,-361.56 85,-361.56 85,-408.56"/>
<text text-anchor="middle" x="47" y="-376.56" font-family="Times New Roman,serif" font-size="35.00">R68</text>
</a>
</g>
</g>
<!-- R68&#45;&gt;R159 -->
<g id="edge2" class="edge">
<title>R68&#45;&gt;R159</title>
<path fill="none" stroke="black" stroke-width="3" d="M84.89,-385.67C201.2,-387.3 554.97,-389.81 597,-361.06 627.1,-340.46 640.89,-299.48 647.1,-270.05"/>
<polygon fill="black" stroke="black" stroke-width="3" points="650.69,-273.88 649.12,-263.4 643.82,-272.57 650.69,-273.88"/>
<text text-anchor="middle" x="350" y="-395.06" font-family="Times New Roman,serif" font-size="30.00"> &#160;&#160;211 &#160;&#160;49% &#160;&#160;2.18e&#45;15 mol/s &#160;&#160;&#160;1.00E+00</text>
</g>
<!-- R6 -->
<g id="node4" class="node">
<title>R6</title>
<g id="a_node4"><a xlink:href="6.svg" xlink:title="R6">
<polygon fill="cornsilk" stroke="none" points="76,-343.56 18,-343.56 18,-296.56 76,-296.56 76,-343.56"/>
<text text-anchor="middle" x="47" y="-311.56" font-family="Times New Roman,serif" font-size="35.00">R6</text>
</a>
</g>
</g>
<!-- R6&#45;&gt;R159 -->
<g id="edge3" class="edge">
<title>R6&#45;&gt;R159</title>
<path fill="none" stroke="black" stroke-width="3" d="M75.77,-321.26C173.76,-325.12 502.56,-334.53 597,-292.06 609.02,-286.65 619.8,-277.34 628.57,-267.85"/>
<polygon fill="black" stroke="black" stroke-width="3" points="629.85,-272.41 633.74,-262.55 624.55,-267.83 629.85,-272.41"/>
<text text-anchor="middle" x="350" y="-333.06" font-family="Times New Roman,serif" font-size="30.00"> &#160;&#160;318 &#160;&#160;49% &#160;&#160;2.18e&#45;15 mol/s &#160;&#160;&#160;1.00E+00</text>
</g>
<!-- R26 -->
<g id="node5" class="node">
<title>R26</title>
<g id="a_node5"><a xlink:href="26.svg" xlink:title="R26">
<polygon fill="cornsilk" stroke="none" points="85,-278.56 9,-278.56 9,-231.56 85,-231.56 85,-278.56"/>
<text text-anchor="middle" x="47" y="-246.56" font-family="Times New Roman,serif" font-size="35.00">R26</text>
</a>
</g>
</g>
<!-- R26&#45;&gt;R159 -->
<g id="edge4" class="edge">
<title>R26&#45;&gt;R159</title>
<path fill="none" stroke="black" stroke-width="3" d="M85,-255.27C171.94,-255.52 396.3,-254.83 595.16,-242.08"/>
<polygon fill="black" stroke="black" stroke-width="3" points="592.36,-245.5 602.11,-241.36 591.9,-238.52 592.36,-245.5"/>
<text text-anchor="middle" x="350" y="-264.06" font-family="Times New Roman,serif" font-size="30.00"> &#160;&#160;318 &#160;&#160;49% &#160;&#160;2.18e&#45;15 mol/s &#160;&#160;&#160;1.00E+00</text>
</g>
<!-- R78 -->
<g id="node6" class="node">
<title>R78</title>
<g id="a_node6"><a xlink:href="78.svg" xlink:title="R78">
<polygon fill="cornsilk" stroke="none" points="85,-194.56 9,-194.56 9,-147.56 85,-147.56 85,-194.56"/>
<text text-anchor="middle" x="47" y="-162.56" font-family="Times New Roman,serif" font-size="35.00">R78</text>
</a>
</g>
</g>
<!-- R78&#45;&gt;R159 -->
<g id="edge5" class="edge">
<title>R78&#45;&gt;R159</title>
<path fill="none" stroke="black" d="M84.73,-182.31C90.79,-183.81 97.03,-185.14 103,-186.06 211.59,-202.73 491.29,-175.14 597,-205.06 600.12,-205.94 603.25,-207.03 606.34,-208.27"/>
<polygon fill="black" stroke="black" points="604.52,-211.74 615.08,-212.67 607.41,-205.36 604.52,-211.74"/>
<text text-anchor="middle" x="350" y="-214.06" font-family="Times New Roman,serif" font-size="30.00"> &#160;&#160;463 &#160;&#160;0% &#160;&#160;1.15e&#45;26 mol/s &#160;&#160;&#160;6.78E&#45;01</text>
</g>
<!-- R78&#45;&gt;R159 -->
<g id="edge6" class="edge">
<title>R78&#45;&gt;R159</title>
<path fill="none" stroke="black" d="M85,-154.06C90.91,-151.99 97.04,-150.21 103,-149.06 156.9,-138.68 548.92,-122.57 597,-149.06 617.7,-160.46 631.69,-183.3 640.38,-202.71"/>
<polygon fill="black" stroke="black" points="637.48,-203.87 644.56,-211.76 643.95,-201.18 637.48,-203.87"/>
<text text-anchor="middle" x="350" y="-158.06" font-family="Times New Roman,serif" font-size="30.00"> &#160;&#160;681 &#160;&#160;0% &#160;&#160;2.43e&#45;26 mol/s &#160;&#160;&#160;3.22E&#45;01</text>
</g>
<!-- R198 -->
<g id="node7" class="node">
<title>R198</title>
<g id="a_node7"><a xlink:href="198.svg" xlink:title="R198">
<polygon fill="cornsilk" stroke="none" points="94,-91.56 0,-91.56 0,-44.56 94,-44.56 94,-91.56"/>
<text text-anchor="middle" x="47" y="-59.56" font-family="Times New Roman,serif" font-size="35.00">R198</text>
</a>
</g>
</g>
<!-- R198&#45;&gt;R159 -->
<g id="edge7" class="edge">
<title>R198&#45;&gt;R159</title>
<path fill="none" stroke="black" d="M93.9,-73.28C96.98,-73.56 100.03,-73.83 103,-74.06 157.78,-78.32 552.29,-65.12 597,-97.06 630.77,-121.18 643.81,-169.41 648.84,-202.21"/>
<polygon fill="black" stroke="black" points="645.45,-202.25 650.26,-211.69 652.39,-201.31 645.45,-202.25"/>
<text text-anchor="middle" x="350" y="-106.06" font-family="Times New Roman,serif" font-size="30.00"> &#160;&#160;682 &#160;&#160;0% &#160;&#160;1.1e&#45;20 mol/s &#160;&#160;&#160;2.01E&#45;06</text>
</g>
<!-- R198&#45;&gt;R159 -->
<g id="edge8" class="edge">
<title>R198&#45;&gt;R159</title>
<path fill="none" stroke="black" d="M83.56,-44.6C89.81,-41.49 96.43,-38.78 103,-37.06 209.18,-9.19 509.65,29.43 597,-37.06 623.17,-56.98 640.09,-150.62 647.57,-202.04"/>
<polygon fill="black" stroke="black" points="644.2,-202.21 649.06,-211.63 651.13,-201.24 644.2,-202.21"/>
<text text-anchor="middle" x="350" y="-46.06" font-family="Times New Roman,serif" font-size="30.00"> &#160;&#160;696 &#160;&#160;0% &#160;&#160;2.2e&#45;26 mol/s &#160;&#160;&#160;1.00E+00</text>
</g>
</g>
</svg>
