<?xml version="1.0" encoding="UTF-8" standalone="no"?>
<!DOCTYPE svg PUBLIC "-//W3C//DTD SVG 1.1//EN"
 "http://www.w3.org/Graphics/SVG/1.1/DTD/svg11.dtd">
<!-- Generated by graphviz version 8.0.3 (20230416.2022)
 -->
<!-- Title: G Pages: 1 -->
<svg width="640pt" height="244pt"
 viewBox="0.00 0.00 720.00 274.16" xmlns="http://www.w3.org/2000/svg" xmlns:xlink="http://www.w3.org/1999/xlink">
<g id="graph0" class="graph" transform="scale(0.501961 0.501961) rotate(0) translate(4 481.5)">
<title>G</title>
<polygon fill="white" stroke="none" points="-4,4 -4,-481.5 1271,-481.5 1271,4 -4,4"/>
<text text-anchor="middle" x="633.5" y="-444.7" font-family="Arial" font-size="36.00" fill="blue">Reaction Path Analysis</text>
<!-- R159 -->
<g id="node1" class="node">
<title>R159</title>
<g id="a_node1"><a xlink:href="159.svg" xlink:title="R159">
<polygon fill="cornsilk" stroke="none" points="685,-220 591,-220 591,-173 685,-173 685,-220"/>
<text text-anchor="middle" x="638" y="-188" font-family="Times New Roman,serif" font-size="35.00">R159</text>
</a>
</g>
</g>
<!-- R78 -->
<g id="node6" class="node">
<title>R78</title>
<g id="a_node6"><a xlink:href="78.svg" xlink:title="R78">
<polygon fill="cornsilk" stroke="none" points="1267,-220 1191,-220 1191,-173 1267,-173 1267,-220"/>
<text text-anchor="middle" x="1229" y="-188" font-family="Times New Roman,serif" font-size="35.00">R78</text>
</a>
</g>
</g>
<!-- R159&#45;&gt;R78 -->
<g id="edge5" class="edge">
<title>R159&#45;&gt;R78</title>
<path fill="none" stroke="black" stroke-width="4" d="M684.89,-201.88C687.97,-202.13 691.03,-202.34 694,-202.5 900.04,-213.7 956.96,-214.05 1170.27,-202.25"/>
<polygon fill="black" stroke="black" stroke-width="4" points="1165.49,-209.19 1185.06,-201.08 1164.7,-195.21 1165.49,-209.19"/>
<text text-anchor="middle" x="933.5" y="-219.5" font-family="Times New Roman,serif" font-size="30.00"> &#160;&#160;463 &#160;&#160;67% &#160;&#160;0.00294 mol/s &#160;&#160;&#160;3.25E&#45;01</text>
</g>
<!-- R159&#45;&gt;R78 -->
<g id="edge6" class="edge">
<title>R159&#45;&gt;R78</title>
<path fill="none" stroke="black" stroke-width="2" d="M674.56,-173.04C680.81,-169.93 687.43,-167.22 694,-165.5 899.92,-111.46 967.08,-111.46 1173,-165.5 1176.18,-166.33 1179.38,-167.4 1182.54,-168.63"/>
<polygon fill="black" stroke="black" stroke-width="2" points="1179.88,-171.17 1190.44,-172.04 1182.73,-164.78 1179.88,-171.17"/>
<text text-anchor="middle" x="933.5" y="-174.5" font-family="Times New Roman,serif" font-size="30.00"> &#160;&#160;681 &#160;&#160;32% &#160;&#160;0.00141 mol/s &#160;&#160;&#160;6.75E&#45;01</text>
</g>
<!-- R1 -->
<g id="node2" class="node">
<title>R1</title>
<g id="a_node2"><a xlink:href="1.svg" xlink:title="R1">
<polygon fill="cornsilk" stroke="none" points="76,-378 18,-378 18,-331 76,-331 76,-378"/>
<text text-anchor="middle" x="47" y="-346" font-family="Times New Roman,serif" font-size="35.00">R1</text>
</a>
</g>
</g>
<!-- R1&#45;&gt;R159 -->
<g id="edge1" class="edge">
<title>R1&#45;&gt;R159</title>
<path fill="none" stroke="black" d="M75.95,-362.59C160.54,-385.28 417.81,-440.95 578.5,-330.5 611.53,-307.8 626.07,-262.13 632.36,-230.46"/>
<polygon fill="black" stroke="black" points="635.94,-231.36 634.26,-220.9 629.05,-230.12 635.94,-231.36"/>
<text text-anchor="middle" x="342.5" y="-405.5" font-family="Times New Roman,serif" font-size="30.00"> &#160;&#160;211 &#160;&#160;0% &#160;&#160;0.0342 mol/s &#160;&#160;&#160;1.00E+00</text>
</g>
<!-- R68 -->
<g id="node3" class="node">
<title>R68</title>
<g id="a_node3"><a xlink:href="68.svg" xlink:title="R68">
<polygon fill="cornsilk" stroke="none" points="85,-313 9,-313 9,-266 85,-266 85,-313"/>
<text text-anchor="middle" x="47" y="-281" font-family="Times New Roman,serif" font-size="35.00">R68</text>
</a>
</g>
</g>
<!-- R68&#45;&gt;R159 -->
<g id="edge2" class="edge">
<title>R68&#45;&gt;R159</title>
<path fill="none" stroke="black" d="M84.74,-290.93C190.02,-294.49 490.84,-300.71 578.5,-259.5 593.06,-252.65 605.74,-240.39 615.53,-228.5"/>
<polygon fill="black" stroke="black" points="618.77,-231.03 622.14,-220.99 613.24,-226.74 618.77,-231.03"/>
<text text-anchor="middle" x="342.5" y="-302.5" font-family="Times New Roman,serif" font-size="30.00"> &#160;&#160;211 &#160;&#160;0% &#160;&#160;0.0342 mol/s &#160;&#160;&#160;1.00E+00</text>
</g>
<!-- R6 -->
<g id="node4" class="node">
<title>R6</title>
<g id="a_node4"><a xlink:href="6.svg" xlink:title="R6">
<polygon fill="cornsilk" stroke="none" points="76,-248 18,-248 18,-201 76,-201 76,-248"/>
<text text-anchor="middle" x="47" y="-216" font-family="Times New Roman,serif" font-size="35.00">R6</text>
</a>
</g>
</g>
<!-- R6&#45;&gt;R159 -->
<g id="edge3" class="edge">
<title>R6&#45;&gt;R159</title>
<path fill="none" stroke="black" d="M75.93,-223.94C154.91,-222.22 386.57,-216.31 578.5,-202.5 579.14,-202.45 579.78,-202.41 580.42,-202.36"/>
<polygon fill="black" stroke="black" points="580.36,-205.79 590.04,-201.48 579.78,-198.81 580.36,-205.79"/>
<text text-anchor="middle" x="342.5" y="-231.5" font-family="Times New Roman,serif" font-size="30.00"> &#160;&#160;318 &#160;&#160;0% &#160;&#160;0.0342 mol/s &#160;&#160;&#160;1.00E+00</text>
</g>
<!-- R26 -->
<g id="node5" class="node">
<title>R26</title>
<g id="a_node5"><a xlink:href="26.svg" xlink:title="R26">
<polygon fill="cornsilk" stroke="none" points="85,-183 9,-183 9,-136 85,-136 85,-183"/>
<text text-anchor="middle" x="47" y="-151" font-family="Times New Roman,serif" font-size="35.00">R26</text>
</a>
</g>
</g>
<!-- R26&#45;&gt;R159 -->
<g id="edge4" class="edge">
<title>R26&#45;&gt;R159</title>
<path fill="none" stroke="black" d="M84.9,-157.66C189.25,-152.83 485,-141.69 578.5,-165.5 582.06,-166.4 585.64,-167.57 589.19,-168.91"/>
<polygon fill="black" stroke="black" points="587.46,-172.4 598.03,-173.1 590.2,-165.96 587.46,-172.4"/>
<text text-anchor="middle" x="342.5" y="-174.5" font-family="Times New Roman,serif" font-size="30.00"> &#160;&#160;318 &#160;&#160;0% &#160;&#160;0.0342 mol/s &#160;&#160;&#160;1.00E+00</text>
</g>
<!-- R198 -->
<g id="node7" class="node">
<title>R198</title>
<g id="a_node7"><a xlink:href="198.svg" xlink:title="R198">
<polygon fill="cornsilk" stroke="none" points="94,-99 0,-99 0,-52 94,-52 94,-99"/>
<text text-anchor="middle" x="47" y="-67" font-family="Times New Roman,serif" font-size="35.00">R198</text>
</a>
</g>
</g>
<!-- R198&#45;&gt;R159 -->
<g id="edge7" class="edge">
<title>R198&#45;&gt;R159</title>
<path fill="none" stroke="black" stroke-width="5" d="M93.8,-88.18C98.07,-89.08 102.35,-89.87 106.5,-90.5 158.42,-98.34 532.49,-88.2 578.5,-113.5 595.3,-122.74 608.39,-139.11 617.88,-154.89"/>
<polygon fill="black" stroke="black" stroke-width="5" points="608.57,-154.77 625.69,-168.31 624.02,-146.55 608.57,-154.77"/>
<text text-anchor="middle" x="342.5" y="-122.5" font-family="Times New Roman,serif" font-size="30.00"> &#160;&#160;682 &#160;&#160;99% &#160;&#160;135.0 mol/s &#160;&#160;&#160;2.01E&#45;05</text>
</g>
<!-- R198&#45;&gt;R159 -->
<g id="edge8" class="edge">
<title>R198&#45;&gt;R159</title>
<path fill="none" stroke="black" d="M93.65,-57.09C191.9,-20.74 426.77,48.36 578.5,-53.5 614.42,-77.61 628.3,-128.09 633.65,-162.15"/>
<polygon fill="black" stroke="black" points="630.32,-162.59 635.16,-172.01 637.25,-161.62 630.32,-162.59"/>
<text text-anchor="middle" x="342.5" y="-62.5" font-family="Times New Roman,serif" font-size="30.00"> &#160;&#160;696 &#160;&#160;0% &#160;&#160;0.00272 mol/s &#160;&#160;&#160;1.00E+00</text>
</g>
</g>
</svg>
