<?xml version="1.0" encoding="UTF-8" standalone="no"?>
<!DOCTYPE svg PUBLIC "-//W3C//DTD SVG 1.1//EN"
 "http://www.w3.org/Graphics/SVG/1.1/DTD/svg11.dtd">
<!-- Generated by graphviz version 8.0.3 (20230416.2022)
 -->
<!-- Title: G Pages: 1 -->
<svg width="640pt" height="425pt"
 viewBox="0.00 0.00 720.00 477.91" xmlns="http://www.w3.org/2000/svg" xmlns:xlink="http://www.w3.org/1999/xlink">
<g id="graph0" class="graph" transform="scale(0.501961 0.501961) rotate(0) translate(4 842.3)">
<title>G</title>
<polygon fill="white" stroke="none" points="-4,4 -4,-842.3 1271,-842.3 1271,4 -4,4"/>
<text text-anchor="middle" x="633.5" y="-805.5" font-family="Arial" font-size="36.00" fill="blue">Reaction Path Analysis</text>
<!-- R16 -->
<g id="node1" class="node">
<title>R16</title>
<g id="a_node1"><a xlink:href="16.svg" xlink:title="R16">
<polygon fill="cornsilk" stroke="none" points="667,-406.8 591,-406.8 591,-359.8 667,-359.8 667,-406.8"/>
<text text-anchor="middle" x="629" y="-374.8" font-family="Times New Roman,serif" font-size="35.00">R16</text>
</a>
</g>
</g>
<!-- R110 -->
<g id="node4" class="node">
<title>R110</title>
<g id="a_node4"><a xlink:href="110.svg" xlink:title="R110">
<polygon fill="cornsilk" stroke="none" points="1267,-764.8 1173,-764.8 1173,-717.8 1267,-717.8 1267,-764.8"/>
<text text-anchor="middle" x="1220" y="-732.8" font-family="Times New Roman,serif" font-size="35.00">R110</text>
</a>
</g>
</g>
<!-- R16&#45;&gt;R110 -->
<g id="edge3" class="edge">
<title>R16&#45;&gt;R110</title>
<path fill="none" stroke="black" d="M630.25,-406.6C631.51,-475.06 639.14,-673.39 685,-714.3 754.1,-775.93 1039.74,-757.91 1162.51,-746.95"/>
<polygon fill="black" stroke="black" points="1162.53,-750.37 1172.17,-745.98 1161.89,-743.4 1162.53,-750.37"/>
<text text-anchor="middle" x="924.5" y="-766.3" font-family="Times New Roman,serif" font-size="30.00"> &#160;&#160;154 &#160;&#160;9% &#160;&#160;4.67e&#45;08 mol/s &#160;&#160;&#160;1.00E+00</text>
</g>
<!-- R178 -->
<g id="node5" class="node">
<title>R178</title>
<g id="a_node5"><a xlink:href="178.svg" xlink:title="R178">
<polygon fill="cornsilk" stroke="none" points="1267,-699.8 1173,-699.8 1173,-652.8 1267,-652.8 1267,-699.8"/>
<text text-anchor="middle" x="1220" y="-667.8" font-family="Times New Roman,serif" font-size="35.00">R178</text>
</a>
</g>
</g>
<!-- R16&#45;&gt;R178 -->
<g id="edge4" class="edge">
<title>R16&#45;&gt;R178</title>
<path fill="none" stroke="black" d="M631.28,-406.59C635.05,-465.45 648.21,-617.76 685,-649.3 720.57,-679.79 1032.08,-678.98 1162.24,-677.28"/>
<polygon fill="black" stroke="black" points="1162.19,-680.77 1172.14,-677.13 1162.1,-673.77 1162.19,-680.77"/>
<text text-anchor="middle" x="924.5" y="-686.3" font-family="Times New Roman,serif" font-size="30.00"> &#160;&#160;231 &#160;&#160;9% &#160;&#160;4.67e&#45;08 mol/s &#160;&#160;&#160;1.00E+00</text>
</g>
<!-- R216 -->
<g id="node6" class="node">
<title>R216</title>
<g id="a_node6"><a xlink:href="216.svg" xlink:title="R216">
<polygon fill="cornsilk" stroke="none" points="1267,-634.8 1173,-634.8 1173,-587.8 1267,-587.8 1267,-634.8"/>
<text text-anchor="middle" x="1220" y="-602.8" font-family="Times New Roman,serif" font-size="35.00">R216</text>
</a>
</g>
</g>
<!-- R16&#45;&gt;R216 -->
<g id="edge5" class="edge">
<title>R16&#45;&gt;R216</title>
<path fill="none" stroke="black" d="M632.92,-406.6C639.48,-454.8 657.02,-562.82 685,-585.3 721.52,-614.64 1032.48,-613.88 1162.36,-612.24"/>
<polygon fill="black" stroke="black" points="1162.29,-615.73 1172.25,-612.1 1162.2,-608.73 1162.29,-615.73"/>
<text text-anchor="middle" x="924.5" y="-621.3" font-family="Times New Roman,serif" font-size="30.00"> &#160;&#160;278 &#160;&#160;9% &#160;&#160;4.67e&#45;08 mol/s &#160;&#160;&#160;1.00E+00</text>
</g>
<!-- R237 -->
<g id="node7" class="node">
<title>R237</title>
<g id="a_node7"><a xlink:href="237.svg" xlink:title="R237">
<polygon fill="cornsilk" stroke="none" points="1267,-569.8 1173,-569.8 1173,-522.8 1267,-522.8 1267,-569.8"/>
<text text-anchor="middle" x="1220" y="-537.8" font-family="Times New Roman,serif" font-size="35.00">R237</text>
</a>
</g>
</g>
<!-- R16&#45;&gt;R237 -->
<g id="edge6" class="edge">
<title>R16&#45;&gt;R237</title>
<path fill="none" stroke="black" d="M631.57,-406.75C635.15,-439.25 646.83,-497.05 685,-524.3 723.11,-551.51 1033.16,-549.49 1162.58,-547.42"/>
<polygon fill="black" stroke="black" points="1162.48,-550.9 1172.42,-547.24 1162.36,-543.9 1162.48,-550.9"/>
<text text-anchor="middle" x="924.5" y="-557.3" font-family="Times New Roman,serif" font-size="30.00"> &#160;&#160;317 &#160;&#160;9% &#160;&#160;4.67e&#45;08 mol/s &#160;&#160;&#160;1.00E+00</text>
</g>
<!-- R242 -->
<g id="node8" class="node">
<title>R242</title>
<g id="a_node8"><a xlink:href="242.svg" xlink:title="R242">
<polygon fill="cornsilk" stroke="none" points="1267,-504.8 1173,-504.8 1173,-457.8 1267,-457.8 1267,-504.8"/>
<text text-anchor="middle" x="1220" y="-472.8" font-family="Times New Roman,serif" font-size="35.00">R242</text>
</a>
</g>
</g>
<!-- R16&#45;&gt;R242 -->
<g id="edge7" class="edge">
<title>R16&#45;&gt;R242</title>
<path fill="none" stroke="black" d="M641.42,-406.57C650.73,-422.76 665.52,-443.19 685,-453.3 766.71,-495.69 1042.27,-489.21 1162.31,-484.13"/>
<polygon fill="black" stroke="black" points="1162.25,-487.6 1172.09,-483.67 1161.95,-480.6 1162.25,-487.6"/>
<text text-anchor="middle" x="924.5" y="-496.3" font-family="Times New Roman,serif" font-size="30.00"> &#160;&#160;325 &#160;&#160;9% &#160;&#160;4.67e&#45;08 mol/s &#160;&#160;&#160;1.00E+00</text>
</g>
<!-- R276 -->
<g id="node9" class="node">
<title>R276</title>
<g id="a_node9"><a xlink:href="276.svg" xlink:title="R276">
<polygon fill="cornsilk" stroke="none" points="1267,-439.8 1173,-439.8 1173,-392.8 1267,-392.8 1267,-439.8"/>
<text text-anchor="middle" x="1220" y="-407.8" font-family="Times New Roman,serif" font-size="35.00">R276</text>
</a>
</g>
</g>
<!-- R16&#45;&gt;R276 -->
<g id="edge8" class="edge">
<title>R16&#45;&gt;R276</title>
<path fill="none" stroke="black" d="M666.85,-391.49C672.89,-392.6 679.1,-393.59 685,-394.3 857.98,-415.03 1064.48,-417.19 1162.28,-416.86"/>
<polygon fill="black" stroke="black" points="1162.11,-420.36 1172.09,-416.82 1162.08,-413.36 1162.11,-420.36"/>
<text text-anchor="middle" x="924.5" y="-425.3" font-family="Times New Roman,serif" font-size="30.00"> &#160;&#160;373 &#160;&#160;9% &#160;&#160;4.67e&#45;08 mol/s &#160;&#160;&#160;1.00E+00</text>
</g>
<!-- R277 -->
<g id="node10" class="node">
<title>R277</title>
<g id="a_node10"><a xlink:href="277.svg" xlink:title="R277">
<polygon fill="cornsilk" stroke="none" points="1267,-374.8 1173,-374.8 1173,-327.8 1267,-327.8 1267,-374.8"/>
<text text-anchor="middle" x="1220" y="-342.8" font-family="Times New Roman,serif" font-size="35.00">R277</text>
</a>
</g>
</g>
<!-- R16&#45;&gt;R277 -->
<g id="edge9" class="edge">
<title>R16&#45;&gt;R277</title>
<path fill="none" stroke="black" d="M666.72,-366.51C672.72,-364.38 678.95,-362.52 685,-361.3 855.86,-326.73 1063.77,-337.54 1162.16,-345.73"/>
<polygon fill="black" stroke="black" points="1161.77,-349.29 1172.04,-346.66 1162.37,-342.32 1161.77,-349.29"/>
<text text-anchor="middle" x="924.5" y="-370.3" font-family="Times New Roman,serif" font-size="30.00"> &#160;&#160;374 &#160;&#160;9% &#160;&#160;4.67e&#45;08 mol/s &#160;&#160;&#160;1.00E+00</text>
</g>
<!-- R299 -->
<g id="node11" class="node">
<title>R299</title>
<g id="a_node11"><a xlink:href="299.svg" xlink:title="R299">
<polygon fill="cornsilk" stroke="none" points="1267,-309.8 1173,-309.8 1173,-262.8 1267,-262.8 1267,-309.8"/>
<text text-anchor="middle" x="1220" y="-277.8" font-family="Times New Roman,serif" font-size="35.00">R299</text>
</a>
</g>
</g>
<!-- R16&#45;&gt;R299 -->
<g id="edge10" class="edge">
<title>R16&#45;&gt;R299</title>
<path fill="none" stroke="black" d="M638.56,-359.93C647.07,-340.43 662.18,-313.88 685,-301.3 765.62,-256.83 1042.41,-272.32 1162.57,-281.51"/>
<polygon fill="black" stroke="black" points="1162.12,-285.06 1172.36,-282.35 1162.66,-278.08 1162.12,-285.06"/>
<text text-anchor="middle" x="924.5" y="-310.3" font-family="Times New Roman,serif" font-size="30.00"> &#160;&#160;405 &#160;&#160;9% &#160;&#160;4.67e&#45;08 mol/s &#160;&#160;&#160;1.00E+00</text>
</g>
<!-- R305 -->
<g id="node12" class="node">
<title>R305</title>
<g id="a_node12"><a xlink:href="305.svg" xlink:title="R305">
<polygon fill="cornsilk" stroke="none" points="1267,-244.8 1173,-244.8 1173,-197.8 1267,-197.8 1267,-244.8"/>
<text text-anchor="middle" x="1220" y="-212.8" font-family="Times New Roman,serif" font-size="35.00">R305</text>
</a>
</g>
</g>
<!-- R16&#45;&gt;R305 -->
<g id="edge11" class="edge">
<title>R16&#45;&gt;R305</title>
<path fill="none" stroke="black" d="M630.94,-359.9C633.72,-325.79 644.4,-263.33 685,-234.3 759.98,-180.69 1040.52,-202.5 1162.15,-214.93"/>
<polygon fill="black" stroke="black" points="1161.76,-218.51 1172.07,-216.06 1162.49,-211.55 1161.76,-218.51"/>
<text text-anchor="middle" x="924.5" y="-243.3" font-family="Times New Roman,serif" font-size="30.00"> &#160;&#160;411 &#160;&#160;9% &#160;&#160;4.67e&#45;08 mol/s &#160;&#160;&#160;1.00E+00</text>
</g>
<!-- R306 -->
<g id="node13" class="node">
<title>R306</title>
<g id="a_node13"><a xlink:href="306.svg" xlink:title="R306">
<polygon fill="cornsilk" stroke="none" points="1267,-179.8 1173,-179.8 1173,-132.8 1267,-132.8 1267,-179.8"/>
<text text-anchor="middle" x="1220" y="-147.8" font-family="Times New Roman,serif" font-size="35.00">R306</text>
</a>
</g>
</g>
<!-- R16&#45;&gt;R306 -->
<g id="edge12" class="edge">
<title>R16&#45;&gt;R306</title>
<path fill="none" stroke="black" d="M632.31,-359.83C637.92,-308.27 654.13,-187.73 685,-163.3 757.43,-105.98 1040.56,-133.64 1162.56,-148.73"/>
<polygon fill="black" stroke="black" points="1161.8,-152.28 1172.16,-150.06 1162.67,-145.34 1161.8,-152.28"/>
<text text-anchor="middle" x="924.5" y="-172.3" font-family="Times New Roman,serif" font-size="30.00"> &#160;&#160;412 &#160;&#160;9% &#160;&#160;4.67e&#45;08 mol/s &#160;&#160;&#160;1.00E+00</text>
</g>
<!-- R307 -->
<g id="node14" class="node">
<title>R307</title>
<g id="a_node14"><a xlink:href="307.svg" xlink:title="R307">
<polygon fill="cornsilk" stroke="none" points="1267,-114.8 1173,-114.8 1173,-67.8 1267,-67.8 1267,-114.8"/>
<text text-anchor="middle" x="1220" y="-82.8" font-family="Times New Roman,serif" font-size="35.00">R307</text>
</a>
</g>
</g>
<!-- R16&#45;&gt;R307 -->
<g id="edge13" class="edge">
<title>R16&#45;&gt;R307</title>
<path fill="none" stroke="black" d="M630.74,-360.05C633.26,-297.22 643.86,-126.46 685,-92.3 721,-62.41 1032.26,-79.04 1162.29,-87.41"/>
<polygon fill="black" stroke="black" points="1161.98,-90.96 1172.19,-88.12 1162.44,-83.97 1161.98,-90.96"/>
<text text-anchor="middle" x="924.5" y="-101.3" font-family="Times New Roman,serif" font-size="30.00"> &#160;&#160;413 &#160;&#160;9% &#160;&#160;4.67e&#45;08 mol/s &#160;&#160;&#160;1.00E+00</text>
</g>
<!-- R27 -->
<g id="node15" class="node">
<title>R27</title>
<g id="a_node15"><a xlink:href="27.svg" xlink:title="R27">
<polygon fill="cornsilk" stroke="none" points="1258,-49.8 1182,-49.8 1182,-2.8 1258,-2.8 1258,-49.8"/>
<text text-anchor="middle" x="1220" y="-17.8" font-family="Times New Roman,serif" font-size="35.00">R27</text>
</a>
</g>
</g>
<!-- R16&#45;&gt;R27 -->
<g id="edge14" class="edge">
<title>R16&#45;&gt;R27</title>
<path fill="none" stroke="black" d="M630.02,-359.98C630.63,-289.43 636.56,-80.58 685,-38.3 756.4,24.02 1054.23,-5.53 1171.37,-19.97"/>
<polygon fill="black" stroke="black" points="1170.78,-23.55 1181.13,-21.32 1171.65,-16.6 1170.78,-23.55"/>
<text text-anchor="middle" x="924.5" y="-47.3" font-family="Times New Roman,serif" font-size="30.00"> &#160;&#160;432 &#160;&#160;0% &#160;&#160;1.15e&#45;11 mol/s &#160;&#160;&#160;3.18E&#45;01</text>
</g>
<!-- R0 -->
<g id="node2" class="node">
<title>R0</title>
<g id="a_node2"><a xlink:href="0.svg" xlink:title="R0">
<polygon fill="cornsilk" stroke="none" points="67,-439.8 9,-439.8 9,-392.8 67,-392.8 67,-439.8"/>
<text text-anchor="middle" x="38" y="-407.8" font-family="Times New Roman,serif" font-size="35.00">R0</text>
</a>
</g>
</g>
<!-- R0&#45;&gt;R16 -->
<g id="edge1" class="edge">
<title>R0&#45;&gt;R16</title>
<path fill="none" stroke="black" stroke-width="6" d="M66.77,-417C144.23,-418.55 369.51,-420.52 570.43,-395.26"/>
<polygon fill="black" stroke="black" stroke-width="6" points="566.58,-405.57 585.04,-392.56 563.85,-384.75 566.58,-405.57"/>
<text text-anchor="middle" x="333.5" y="-426.3" font-family="Times New Roman,serif" font-size="30.00"> &#160;&#160;19 &#160;&#160;100% &#160;&#160;4.67e&#45;08 mol/s &#160;&#160;&#160;1.00E+00</text>
</g>
<!-- R14 -->
<g id="node3" class="node">
<title>R14</title>
<g id="a_node3"><a xlink:href="14.svg" xlink:title="R14">
<polygon fill="cornsilk" stroke="none" points="76,-374.8 0,-374.8 0,-327.8 76,-327.8 76,-374.8"/>
<text text-anchor="middle" x="38" y="-342.8" font-family="Times New Roman,serif" font-size="35.00">R14</text>
</a>
</g>
</g>
<!-- R14&#45;&gt;R16 -->
<g id="edge2" class="edge">
<title>R14&#45;&gt;R16</title>
<path fill="none" stroke="black" stroke-width="6" d="M75.75,-346.84C161.1,-337.53 379.33,-319.88 570.95,-360"/>
<polygon fill="black" stroke="black" stroke-width="6" points="563.39,-369.41 585.18,-363.49 567.93,-348.91 563.39,-369.41"/>
<text text-anchor="middle" x="333.5" y="-370.3" font-family="Times New Roman,serif" font-size="30.00"> &#160;&#160;19 &#160;&#160;100% &#160;&#160;4.67e&#45;08 mol/s &#160;&#160;&#160;1.00E+00</text>
</g>
</g>
</svg>
