<?xml version="1.0" encoding="UTF-8" standalone="no"?>
<!DOCTYPE svg PUBLIC "-//W3C//DTD SVG 1.1//EN"
 "http://www.w3.org/Graphics/SVG/1.1/DTD/svg11.dtd">
<!-- Generated by graphviz version 8.0.3 (20230416.2022)
 -->
<!-- Title: G Pages: 1 -->
<svg width="640pt" height="86pt"
 viewBox="0.00 0.00 720.00 96.74" xmlns="http://www.w3.org/2000/svg" xmlns:xlink="http://www.w3.org/1999/xlink">
<g id="graph0" class="graph" transform="scale(0.484481 0.484481) rotate(0) translate(4 173.5)">
<title>G</title>
<polygon fill="white" stroke="none" points="-4,4 -4,-173.5 1317,-173.5 1317,4 -4,4"/>
<text text-anchor="middle" x="656.5" y="-136.7" font-family="Arial" font-size="36.00" fill="blue">Reaction Path Analysis</text>
<!-- R162 -->
<g id="node1" class="node">
<title>R162</title>
<g id="a_node1"><a xlink:href="162.svg" xlink:title="R162">
<polygon fill="cornsilk" stroke="none" points="699,-79 605,-79 605,-32 699,-32 699,-79"/>
<text text-anchor="middle" x="652" y="-47" font-family="Times New Roman,serif" font-size="35.00">R162</text>
</a>
</g>
</g>
<!-- R371 -->
<g id="node4" class="node">
<title>R371</title>
<g id="a_node4"><a xlink:href="371.svg" xlink:title="R371">
<polygon fill="cornsilk" stroke="none" points="1313,-79 1219,-79 1219,-32 1313,-32 1313,-79"/>
<text text-anchor="middle" x="1266" y="-47" font-family="Times New Roman,serif" font-size="35.00">R371</text>
</a>
</g>
</g>
<!-- R162&#45;&gt;R371 -->
<g id="edge3" class="edge">
<title>R162&#45;&gt;R371</title>
<path fill="none" stroke="black" stroke-width="6" d="M699,-55.5C806.26,-55.5 1073.28,-55.5 1198.37,-55.5"/>
<polygon fill="black" stroke="black" stroke-width="6" points="1193.3,-66 1213.3,-55.5 1193.3,-45 1193.3,-66"/>
<text text-anchor="middle" x="959" y="-64.5" font-family="Times New Roman,serif" font-size="30.00"> &#160;&#160;684 &#160;&#160;100% &#160;&#160;0.00272 mol/s &#160;&#160;&#160;1.00E+00</text>
</g>
<!-- R69 -->
<g id="node2" class="node">
<title>R69</title>
<g id="a_node2"><a xlink:href="69.svg" xlink:title="R69">
<polygon fill="cornsilk" stroke="none" points="76,-112 0,-112 0,-65 76,-65 76,-112"/>
<text text-anchor="middle" x="38" y="-80" font-family="Times New Roman,serif" font-size="35.00">R69</text>
</a>
</g>
</g>
<!-- R69&#45;&gt;R162 -->
<g id="edge1" class="edge">
<title>R69&#45;&gt;R162</title>
<path fill="none" stroke="black" stroke-width="6" d="M75.78,-88.73C161.39,-88.9 381.03,-87.28 584.16,-66.52"/>
<polygon fill="black" stroke="black" stroke-width="6" points="580.24,-76.86 599.02,-64.31 578.03,-55.98 580.24,-76.86"/>
<text text-anchor="middle" x="345" y="-97.5" font-family="Times New Roman,serif" font-size="30.00"> &#160;&#160;214 &#160;&#160;100% &#160;&#160;0.0342 mol/s &#160;&#160;&#160;1.00E+00</text>
</g>
<!-- R1 -->
<g id="node3" class="node">
<title>R1</title>
<g id="a_node3"><a xlink:href="1.svg" xlink:title="R1">
<polygon fill="cornsilk" stroke="none" points="67,-47 9,-47 9,0 67,0 67,-47"/>
<text text-anchor="middle" x="38" y="-15" font-family="Times New Roman,serif" font-size="35.00">R1</text>
</a>
</g>
</g>
<!-- R1&#45;&gt;R162 -->
<g id="edge2" class="edge">
<title>R1&#45;&gt;R162</title>
<path fill="none" stroke="black" stroke-width="6" d="M66.75,-20.91C145.29,-14.22 376.02,1.03 584.6,-33.87"/>
<polygon fill="black" stroke="black" stroke-width="6" points="577.51,-43.34 599.03,-36.47 581.15,-22.66 577.51,-43.34"/>
<text text-anchor="middle" x="345" y="-42.5" font-family="Times New Roman,serif" font-size="30.00"> &#160;&#160;214 &#160;&#160;100% &#160;&#160;0.0342 mol/s &#160;&#160;&#160;1.00E+00</text>
</g>
</g>
</svg>
