<?xml version="1.0" encoding="UTF-8" standalone="no"?>
<!DOCTYPE svg PUBLIC "-//W3C//DTD SVG 1.1//EN"
 "http://www.w3.org/Graphics/SVG/1.1/DTD/svg11.dtd">
<!-- Generated by graphviz version 8.0.3 (20230416.2022)
 -->
<!-- Title: G Pages: 1 -->
<svg width="640pt" height="332pt"
 viewBox="0.00 0.00 720.00 373.94" xmlns="http://www.w3.org/2000/svg" xmlns:xlink="http://www.w3.org/1999/xlink">
<g id="graph0" class="graph" transform="scale(0.49574 0.49574) rotate(0) translate(4 666.5)">
<title>G</title>
<polygon fill="white" stroke="none" points="-4,4 -4,-666.5 1287,-666.5 1287,4 -4,4"/>
<text text-anchor="middle" x="641.5" y="-629.7" font-family="Arial" font-size="36.00" fill="blue">Reaction Path Analysis</text>
<!-- R163 -->
<g id="node1" class="node">
<title>R163</title>
<g id="a_node1"><a xlink:href="163.svg" xlink:title="R163">
<polygon fill="cornsilk" stroke="none" points="684,-330 590,-330 590,-283 684,-283 684,-330"/>
<text text-anchor="middle" x="637" y="-298" font-family="Times New Roman,serif" font-size="35.00">R163</text>
</a>
</g>
</g>
<!-- R13 -->
<g id="node4" class="node">
<title>R13</title>
<g id="a_node4"><a xlink:href="13.svg" xlink:title="R13">
<polygon fill="cornsilk" stroke="none" points="1274,-591 1198,-591 1198,-544 1274,-544 1274,-591"/>
<text text-anchor="middle" x="1236" y="-559" font-family="Times New Roman,serif" font-size="35.00">R13</text>
</a>
</g>
</g>
<!-- R163&#45;&gt;R13 -->
<g id="edge3" class="edge">
<title>R163&#45;&gt;R13</title>
<path fill="none" stroke="black" d="M640.78,-329.68C647.72,-383.2 667.62,-512.88 700.5,-539.5 774.31,-599.26 1071.02,-581.44 1187.61,-571.83"/>
<polygon fill="black" stroke="black" points="1187.65,-575.25 1197.32,-570.93 1187.06,-568.28 1187.65,-575.25"/>
<text text-anchor="middle" x="936.5" y="-590.5" font-family="Times New Roman,serif" font-size="30.00"> &#160;&#160;332 &#160;&#160;1% &#160;&#160;0.0598 mol/s &#160;&#160;&#160;2.67E&#45;01</text>
</g>
<!-- R26 -->
<g id="node5" class="node">
<title>R26</title>
<g id="a_node5"><a xlink:href="26.svg" xlink:title="R26">
<polygon fill="cornsilk" stroke="none" points="1274,-526 1198,-526 1198,-479 1274,-479 1274,-526"/>
<text text-anchor="middle" x="1236" y="-494" font-family="Times New Roman,serif" font-size="35.00">R26</text>
</a>
</g>
</g>
<!-- R163&#45;&gt;R26 -->
<g id="edge4" class="edge">
<title>R163&#45;&gt;R26</title>
<path fill="none" stroke="black" d="M638.94,-329.77C641.86,-367.45 653.61,-441.06 700.5,-475.5 739.17,-503.9 1063.4,-504.05 1187.21,-503.05"/>
<polygon fill="black" stroke="black" points="1187.23,-506.54 1197.2,-502.95 1187.17,-499.54 1187.23,-506.54"/>
<text text-anchor="middle" x="936.5" y="-511.5" font-family="Times New Roman,serif" font-size="30.00"> &#160;&#160;332 &#160;&#160;1% &#160;&#160;0.0598 mol/s &#160;&#160;&#160;2.67E&#45;01</text>
</g>
<!-- R61 -->
<g id="node6" class="node">
<title>R61</title>
<g id="a_node6"><a xlink:href="61.svg" xlink:title="R61">
<polygon fill="cornsilk" stroke="none" points="1274,-451 1198,-451 1198,-404 1274,-404 1274,-451"/>
<text text-anchor="middle" x="1236" y="-419" font-family="Times New Roman,serif" font-size="35.00">R61</text>
</a>
</g>
</g>
<!-- R163&#45;&gt;R61 -->
<g id="edge5" class="edge">
<title>R163&#45;&gt;R61</title>
<path fill="none" stroke="black" stroke-width="5" d="M642.76,-329.6C649.91,-357.68 666.4,-403.84 700.5,-424.5 740.41,-448.67 1047.49,-436.72 1177.33,-430.48"/>
<polygon fill="black" stroke="black" stroke-width="5" points="1172.46,-439.18 1192,-429.46 1171.6,-421.71 1172.46,-439.18"/>
<text text-anchor="middle" x="936.5" y="-447.5" font-family="Times New Roman,serif" font-size="30.00"> &#160;&#160;447 &#160;&#160;92% &#160;&#160;3.06 mol/s &#160;&#160;&#160;8.86E&#45;04</text>
</g>
<!-- R163&#45;&gt;R61 -->
<g id="edge11" class="edge">
<title>R163&#45;&gt;R61</title>
<path fill="none" stroke="black" d="M654.26,-329.75C665.48,-343.72 681.72,-360.32 700.5,-368.5 796.74,-410.42 1072.36,-356 1172.5,-387.5 1180.62,-390.06 1188.72,-393.96 1196.26,-398.34"/>
<polygon fill="black" stroke="black" points="1194.13,-401.76 1204.47,-404.08 1197.84,-395.82 1194.13,-401.76"/>
<text text-anchor="middle" x="936.5" y="-396.5" font-family="Times New Roman,serif" font-size="30.00"> &#160;&#160;685 &#160;&#160;0% &#160;&#160;0.00272 mol/s &#160;&#160;&#160;9.99E&#45;01</text>
</g>
<!-- R166 -->
<g id="node7" class="node">
<title>R166</title>
<g id="a_node7"><a xlink:href="166.svg" xlink:title="R166">
<polygon fill="cornsilk" stroke="none" points="1283,-372 1189,-372 1189,-325 1283,-325 1283,-372"/>
<text text-anchor="middle" x="1236" y="-340" font-family="Times New Roman,serif" font-size="35.00">R166</text>
</a>
</g>
</g>
<!-- R163&#45;&gt;R166 -->
<g id="edge6" class="edge">
<title>R163&#45;&gt;R166</title>
<path fill="none" stroke="black" d="M683.72,-311.14C689.37,-311.64 695.06,-312.11 700.5,-312.5 909.98,-327.65 964.16,-308.92 1172.5,-335.5 1174.44,-335.75 1176.4,-336.02 1178.38,-336.32"/>
<polygon fill="black" stroke="black" points="1177.62,-339.91 1188.06,-338.09 1178.77,-333 1177.62,-339.91"/>
<text text-anchor="middle" x="936.5" y="-344.5" font-family="Times New Roman,serif" font-size="30.00"> &#160;&#160;506 &#160;&#160;1% &#160;&#160;0.0342 mol/s &#160;&#160;&#160;1.00E+00</text>
</g>
<!-- R249 -->
<g id="node8" class="node">
<title>R249</title>
<g id="a_node8"><a xlink:href="249.svg" xlink:title="R249">
<polygon fill="cornsilk" stroke="none" points="1283,-307 1189,-307 1189,-260 1283,-260 1283,-307"/>
<text text-anchor="middle" x="1236" y="-275" font-family="Times New Roman,serif" font-size="35.00">R249</text>
</a>
</g>
</g>
<!-- R163&#45;&gt;R249 -->
<g id="edge7" class="edge">
<title>R163&#45;&gt;R249</title>
<path fill="none" stroke="black" d="M683.73,-284.27C689.27,-282.32 694.94,-280.65 700.5,-279.5 871.57,-244.13 1080.06,-262.94 1178.45,-275.37"/>
<polygon fill="black" stroke="black" points="1177.95,-278.97 1188.32,-276.78 1178.85,-272.03 1177.95,-278.97"/>
<text text-anchor="middle" x="936.5" y="-288.5" font-family="Times New Roman,serif" font-size="30.00"> &#160;&#160;507 &#160;&#160;1% &#160;&#160;0.0342 mol/s &#160;&#160;&#160;1.00E+00</text>
</g>
<!-- R348 -->
<g id="node9" class="node">
<title>R348</title>
<g id="a_node9"><a xlink:href="348.svg" xlink:title="R348">
<polygon fill="cornsilk" stroke="none" points="1283,-242 1189,-242 1189,-195 1283,-195 1283,-242"/>
<text text-anchor="middle" x="1236" y="-210" font-family="Times New Roman,serif" font-size="35.00">R348</text>
</a>
</g>
</g>
<!-- R163&#45;&gt;R348 -->
<g id="edge8" class="edge">
<title>R163&#45;&gt;R348</title>
<path fill="none" stroke="black" d="M647.97,-283.15C657.99,-262.99 675.53,-235.16 700.5,-222.5 782.57,-180.89 1058.23,-201.34 1178.3,-212.68"/>
<polygon fill="black" stroke="black" points="1177.8,-216.24 1188.08,-213.71 1178.46,-209.27 1177.8,-216.24"/>
<text text-anchor="middle" x="936.5" y="-231.5" font-family="Times New Roman,serif" font-size="30.00"> &#160;&#160;586 &#160;&#160;1% &#160;&#160;0.0342 mol/s &#160;&#160;&#160;1.00E+00</text>
</g>
<!-- R349 -->
<g id="node10" class="node">
<title>R349</title>
<g id="a_node10"><a xlink:href="349.svg" xlink:title="R349">
<polygon fill="cornsilk" stroke="none" points="1283,-177 1189,-177 1189,-130 1283,-130 1283,-177"/>
<text text-anchor="middle" x="1236" y="-145" font-family="Times New Roman,serif" font-size="35.00">R349</text>
</a>
</g>
</g>
<!-- R163&#45;&gt;R349 -->
<g id="edge9" class="edge">
<title>R163&#45;&gt;R349</title>
<path fill="none" stroke="black" d="M640.41,-283C645.25,-249.47 659.48,-188.93 700.5,-161.5 777.18,-110.22 1057.08,-133.76 1178.35,-146.84"/>
<polygon fill="black" stroke="black" points="1177.91,-150.42 1188.23,-148.03 1178.67,-143.46 1177.91,-150.42"/>
<text text-anchor="middle" x="936.5" y="-170.5" font-family="Times New Roman,serif" font-size="30.00"> &#160;&#160;587 &#160;&#160;1% &#160;&#160;0.0342 mol/s &#160;&#160;&#160;1.00E+00</text>
</g>
<!-- R350 -->
<g id="node11" class="node">
<title>R350</title>
<g id="a_node11"><a xlink:href="350.svg" xlink:title="R350">
<polygon fill="cornsilk" stroke="none" points="1283,-112 1189,-112 1189,-65 1283,-65 1283,-112"/>
<text text-anchor="middle" x="1236" y="-80" font-family="Times New Roman,serif" font-size="35.00">R350</text>
</a>
</g>
</g>
<!-- R163&#45;&gt;R350 -->
<g id="edge10" class="edge">
<title>R163&#45;&gt;R350</title>
<path fill="none" stroke="black" d="M641.31,-283.34C649.01,-233.09 669.84,-116.68 700.5,-93.5 737.86,-65.26 1048.65,-78.45 1178.42,-85.29"/>
<polygon fill="black" stroke="black" points="1178.12,-88.83 1188.29,-85.87 1178.49,-81.84 1178.12,-88.83"/>
<text text-anchor="middle" x="936.5" y="-102.5" font-family="Times New Roman,serif" font-size="30.00"> &#160;&#160;588 &#160;&#160;1% &#160;&#160;0.0342 mol/s &#160;&#160;&#160;1.00E+00</text>
</g>
<!-- R95 -->
<g id="node12" class="node">
<title>R95</title>
<g id="a_node12"><a xlink:href="95.svg" xlink:title="R95">
<polygon fill="cornsilk" stroke="none" points="1274,-47 1198,-47 1198,0 1274,0 1274,-47"/>
<text text-anchor="middle" x="1236" y="-15" font-family="Times New Roman,serif" font-size="35.00">R95</text>
</a>
</g>
</g>
<!-- R163&#45;&gt;R95 -->
<g id="edge12" class="edge">
<title>R163&#45;&gt;R95</title>
<path fill="none" stroke="black" d="M639.92,-283.04C645.29,-223.77 662.63,-70.46 700.5,-39.5 773.96,20.56 1070.87,-5.09 1187.57,-17.87"/>
<polygon fill="black" stroke="black" points="1186.96,-21.43 1197.29,-19.06 1187.74,-14.48 1186.96,-21.43"/>
<text text-anchor="middle" x="936.5" y="-48.5" font-family="Times New Roman,serif" font-size="30.00"> &#160;&#160;686 &#160;&#160;0% &#160;&#160;0.00272 mol/s &#160;&#160;&#160;1.00E+00</text>
</g>
<!-- R1 -->
<g id="node2" class="node">
<title>R1</title>
<g id="a_node2"><a xlink:href="1.svg" xlink:title="R1">
<polygon fill="cornsilk" stroke="none" points="67,-363 9,-363 9,-316 67,-316 67,-363"/>
<text text-anchor="middle" x="38" y="-331" font-family="Times New Roman,serif" font-size="35.00">R1</text>
</a>
</g>
</g>
<!-- R1&#45;&gt;R163 -->
<g id="edge1" class="edge">
<title>R1&#45;&gt;R163</title>
<path fill="none" stroke="black" stroke-width="6" d="M66.76,-339.9C144.15,-340.71 369.22,-340.91 569.34,-318.64"/>
<polygon fill="black" stroke="black" stroke-width="6" points="565.51,-328.96 584.17,-316.22 563.1,-308.09 565.51,-328.96"/>
<text text-anchor="middle" x="337.5" y="-348.5" font-family="Times New Roman,serif" font-size="30.00"> &#160;&#160;215 &#160;&#160;100% &#160;&#160;0.0342 mol/s &#160;&#160;&#160;1.00E+00</text>
</g>
<!-- R86 -->
<g id="node3" class="node">
<title>R86</title>
<g id="a_node3"><a xlink:href="86.svg" xlink:title="R86">
<polygon fill="cornsilk" stroke="none" points="76,-298 0,-298 0,-251 76,-251 76,-298"/>
<text text-anchor="middle" x="38" y="-266" font-family="Times New Roman,serif" font-size="35.00">R86</text>
</a>
</g>
</g>
<!-- R86&#45;&gt;R163 -->
<g id="edge2" class="edge">
<title>R86&#45;&gt;R163</title>
<path fill="none" stroke="black" stroke-width="6" d="M75.97,-270.65C161.3,-262.71 378.65,-247.86 569.69,-282.8"/>
<polygon fill="black" stroke="black" stroke-width="6" points="562.53,-292.28 584.16,-285.76 566.52,-271.66 562.53,-292.28"/>
<text text-anchor="middle" x="337.5" y="-293.5" font-family="Times New Roman,serif" font-size="30.00"> &#160;&#160;215 &#160;&#160;100% &#160;&#160;0.0342 mol/s &#160;&#160;&#160;1.00E+00</text>
</g>
</g>
</svg>
