<?xml version="1.0" encoding="UTF-8" standalone="no"?>
<!DOCTYPE svg PUBLIC "-//W3C//DTD SVG 1.1//EN"
 "http://www.w3.org/Graphics/SVG/1.1/DTD/svg11.dtd">
<!-- Generated by graphviz version 8.0.3 (20230416.2022)
 -->
<!-- Title: G Pages: 1 -->
<svg width="640pt" height="352pt"
 viewBox="0.00 0.00 720.00 396.25" xmlns="http://www.w3.org/2000/svg" xmlns:xlink="http://www.w3.org/1999/xlink">
<g id="graph0" class="graph" transform="scale(0.833333 0.833333) rotate(0) translate(4 418.66)">
<title>G</title>
<polygon fill="white" stroke="none" points="-4,4 -4,-418.66 764,-418.66 764,4 -4,4"/>
<text text-anchor="middle" x="380" y="-381.86" font-family="Arial" font-size="36.00" fill="blue">Reaction Path Analysis</text>
<!-- R164 -->
<g id="node1" class="node">
<title>R164</title>
<g id="a_node1"><a xlink:href="164.svg" xlink:title="R164">
<polygon fill="cornsilk" stroke="none" points="760,-213.16 666,-213.16 666,-166.16 760,-166.16 760,-213.16"/>
<text text-anchor="middle" x="713" y="-181.16" font-family="Times New Roman,serif" font-size="35.00">R164</text>
</a>
</g>
</g>
<!-- R1 -->
<g id="node2" class="node">
<title>R1</title>
<g id="a_node2"><a xlink:href="1.svg" xlink:title="R1">
<polygon fill="cornsilk" stroke="none" points="76,-343.16 18,-343.16 18,-296.16 76,-296.16 76,-343.16"/>
<text text-anchor="middle" x="47" y="-311.16" font-family="Times New Roman,serif" font-size="35.00">R1</text>
</a>
</g>
</g>
<!-- R1&#45;&gt;R164 -->
<g id="edge1" class="edge">
<title>R1&#45;&gt;R164</title>
<path fill="none" stroke="black" d="M75.98,-322.04C182.14,-330.53 558.93,-355.63 657,-293.66 681.71,-278.05 695.98,-247.4 703.76,-223.4"/>
<polygon fill="black" stroke="black" points="707.38,-224.5 706.89,-213.92 700.67,-222.5 707.38,-224.5"/>
<text text-anchor="middle" x="380" y="-342.66" font-family="Times New Roman,serif" font-size="30.00"> &#160;&#160;216 &#160;&#160;0% &#160;&#160;0.0342 mol/s &#160;&#160;&#160;1.00E+00</text>
</g>
<!-- R86 -->
<g id="node3" class="node">
<title>R86</title>
<g id="a_node3"><a xlink:href="86.svg" xlink:title="R86">
<polygon fill="cornsilk" stroke="none" points="85,-278.16 9,-278.16 9,-231.16 85,-231.16 85,-278.16"/>
<text text-anchor="middle" x="47" y="-246.16" font-family="Times New Roman,serif" font-size="35.00">R86</text>
</a>
</g>
</g>
<!-- R86&#45;&gt;R164 -->
<g id="edge2" class="edge">
<title>R86&#45;&gt;R164</title>
<path fill="none" stroke="black" d="M84.71,-255.55C199.45,-257.93 549.97,-262.02 657,-226.66 662.95,-224.7 668.86,-221.89 674.47,-218.7"/>
<polygon fill="black" stroke="black" points="675.95,-221.28 682.6,-213.03 672.26,-215.33 675.95,-221.28"/>
<text text-anchor="middle" x="380" y="-265.66" font-family="Times New Roman,serif" font-size="30.00"> &#160;&#160;216 &#160;&#160;0% &#160;&#160;0.0342 mol/s &#160;&#160;&#160;1.00E+00</text>
</g>
<!-- R13 -->
<g id="node4" class="node">
<title>R13</title>
<g id="a_node4"><a xlink:href="13.svg" xlink:title="R13">
<polygon fill="cornsilk" stroke="none" points="85,-213.16 9,-213.16 9,-166.16 85,-166.16 85,-213.16"/>
<text text-anchor="middle" x="47" y="-181.16" font-family="Times New Roman,serif" font-size="35.00">R13</text>
</a>
</g>
</g>
<!-- R13&#45;&gt;R164 -->
<g id="edge3" class="edge">
<title>R13&#45;&gt;R164</title>
<path fill="none" stroke="black" d="M84.65,-189.66C194.65,-189.66 522.6,-189.66 655.31,-189.66"/>
<polygon fill="black" stroke="black" points="655.03,-193.16 665.03,-189.66 655.03,-186.16 655.03,-193.16"/>
<text text-anchor="middle" x="380" y="-198.66" font-family="Times New Roman,serif" font-size="30.00"> &#160;&#160;333 &#160;&#160;0% &#160;&#160;0.0341 mol/s &#160;&#160;&#160;9.96E&#45;01</text>
</g>
<!-- R26 -->
<g id="node5" class="node">
<title>R26</title>
<g id="a_node5"><a xlink:href="26.svg" xlink:title="R26">
<polygon fill="cornsilk" stroke="none" points="85,-148.16 9,-148.16 9,-101.16 85,-101.16 85,-148.16"/>
<text text-anchor="middle" x="47" y="-116.16" font-family="Times New Roman,serif" font-size="35.00">R26</text>
</a>
</g>
</g>
<!-- R26&#45;&gt;R164 -->
<g id="edge4" class="edge">
<title>R26&#45;&gt;R164</title>
<path fill="none" stroke="black" d="M84.93,-119.62C181.79,-107.82 449.97,-84.27 657,-152.66 662.95,-154.63 668.86,-157.43 674.47,-160.63"/>
<polygon fill="black" stroke="black" points="672.26,-163.99 682.6,-166.3 675.95,-158.05 672.26,-163.99"/>
<text text-anchor="middle" x="380" y="-161.66" font-family="Times New Roman,serif" font-size="30.00"> &#160;&#160;333 &#160;&#160;0% &#160;&#160;0.0341 mol/s &#160;&#160;&#160;9.96E&#45;01</text>
</g>
<!-- R351 -->
<g id="node6" class="node">
<title>R351</title>
<g id="a_node6"><a xlink:href="351.svg" xlink:title="R351">
<polygon fill="cornsilk" stroke="none" points="94,-83.16 0,-83.16 0,-36.16 94,-36.16 94,-83.16"/>
<text text-anchor="middle" x="47" y="-51.16" font-family="Times New Roman,serif" font-size="35.00">R351</text>
</a>
</g>
</g>
<!-- R351&#45;&gt;R164 -->
<g id="edge5" class="edge">
<title>R351&#45;&gt;R164</title>
<path fill="none" stroke="black" stroke-width="5" d="M93.6,-45.2C201.74,-13.87 478.05,48.44 657,-68.66 683.36,-85.91 697.24,-119.17 704.47,-146.46"/>
<polygon fill="black" stroke="black" stroke-width="5" points="695.07,-143.01 707.94,-160.65 712.15,-139.23 695.07,-143.01"/>
<text text-anchor="middle" x="380" y="-77.66" font-family="Times New Roman,serif" font-size="30.00"> &#160;&#160;589 &#160;&#160;99% &#160;&#160;1140000000.0 mol/s &#160;&#160;&#160;3.00E&#45;11</text>
</g>
</g>
</svg>
