<?xml version="1.0" encoding="UTF-8" standalone="no"?>
<!DOCTYPE svg PUBLIC "-//W3C//DTD SVG 1.1//EN"
 "http://www.w3.org/Graphics/SVG/1.1/DTD/svg11.dtd">
<!-- Generated by graphviz version 8.0.3 (20230416.2022)
 -->
<!-- Title: G Pages: 1 -->
<svg width="610pt" height="313pt"
 viewBox="0.00 0.00 686.00 352.51" xmlns="http://www.w3.org/2000/svg" xmlns:xlink="http://www.w3.org/1999/xlink">
<g id="graph0" class="graph" transform="scale(0.888889 0.888889) rotate(0) translate(4 348.51)">
<title>G</title>
<polygon fill="white" stroke="none" points="-4,4 -4,-348.51 682,-348.51 682,4 -4,4"/>
<text text-anchor="middle" x="339" y="-311.71" font-family="Arial" font-size="36.00" fill="blue">Reaction Path Analysis</text>
<!-- R168 -->
<g id="node1" class="node">
<title>R168</title>
<g id="a_node1"><a xlink:href="168.svg" xlink:title="R168">
<polygon fill="cornsilk" stroke="none" points="94,-161.01 0,-161.01 0,-114.01 94,-114.01 94,-161.01"/>
<text text-anchor="middle" x="47" y="-129.01" font-family="Times New Roman,serif" font-size="35.00">R168</text>
</a>
</g>
</g>
<!-- R87 -->
<g id="node2" class="node">
<title>R87</title>
<g id="a_node2"><a xlink:href="87.svg" xlink:title="R87">
<polygon fill="cornsilk" stroke="none" points="669,-259.01 593,-259.01 593,-212.01 669,-212.01 669,-259.01"/>
<text text-anchor="middle" x="631" y="-227.01" font-family="Times New Roman,serif" font-size="35.00">R87</text>
</a>
</g>
</g>
<!-- R168&#45;&gt;R87 -->
<g id="edge1" class="edge">
<title>R168&#45;&gt;R87</title>
<path fill="none" stroke="black" stroke-width="4" d="M59.42,-160.77C68.73,-176.97 83.52,-197.4 103,-207.51 256.97,-287.46 471.49,-264.46 572.75,-247.06"/>
<polygon fill="black" stroke="black" stroke-width="4" points="569.71,-254.82 588.15,-244.37 567.22,-241.04 569.71,-254.82"/>
<text text-anchor="middle" x="339" y="-272.51" font-family="Times New Roman,serif" font-size="30.00"> &#160;&#160;220 &#160;&#160;79% &#160;&#160;0.139 mol/s &#160;&#160;&#160;1.65E&#45;01</text>
</g>
<!-- R1 -->
<g id="node3" class="node">
<title>R1</title>
<g id="a_node3"><a xlink:href="1.svg" xlink:title="R1">
<polygon fill="cornsilk" stroke="none" points="660,-194.01 602,-194.01 602,-147.01 660,-147.01 660,-194.01"/>
<text text-anchor="middle" x="631" y="-162.01" font-family="Times New Roman,serif" font-size="35.00">R1</text>
</a>
</g>
</g>
<!-- R168&#45;&gt;R1 -->
<g id="edge2" class="edge">
<title>R168&#45;&gt;R1</title>
<path fill="none" stroke="black" stroke-width="4" d="M93.83,-147.23C96.93,-147.72 100,-148.15 103,-148.51 278.15,-169.55 488.13,-171.38 581.33,-171"/>
<polygon fill="black" stroke="black" stroke-width="4" points="576.21,-178 596.17,-170.87 576.12,-164 576.21,-178"/>
<text text-anchor="middle" x="339" y="-179.51" font-family="Times New Roman,serif" font-size="30.00"> &#160;&#160;220 &#160;&#160;79% &#160;&#160;0.139 mol/s &#160;&#160;&#160;1.65E&#45;01</text>
</g>
<!-- R210 -->
<g id="node4" class="node">
<title>R210</title>
<g id="a_node4"><a xlink:href="210.svg" xlink:title="R210">
<polygon fill="cornsilk" stroke="none" points="678,-129.01 584,-129.01 584,-82.01 678,-82.01 678,-129.01"/>
<text text-anchor="middle" x="631" y="-97.01" font-family="Times New Roman,serif" font-size="35.00">R210</text>
</a>
</g>
</g>
<!-- R168&#45;&gt;R210 -->
<g id="edge3" class="edge">
<title>R168&#45;&gt;R210</title>
<path fill="none" stroke="black" d="M93.84,-117.78C96.91,-116.89 99.98,-116.12 103,-115.51 271.41,-81.42 476.28,-91.96 573.53,-100"/>
<polygon fill="black" stroke="black" points="573.02,-103.55 583.28,-100.91 573.62,-96.58 573.02,-103.55"/>
<text text-anchor="middle" x="339" y="-124.51" font-family="Times New Roman,serif" font-size="30.00"> &#160;&#160;509 &#160;&#160;19% &#160;&#160;0.0342 mol/s &#160;&#160;&#160;1.00E+00</text>
</g>
<!-- R150 -->
<g id="node5" class="node">
<title>R150</title>
<g id="a_node5"><a xlink:href="150.svg" xlink:title="R150">
<polygon fill="cornsilk" stroke="none" points="678,-64.01 584,-64.01 584,-17.01 678,-17.01 678,-64.01"/>
<text text-anchor="middle" x="631" y="-32.01" font-family="Times New Roman,serif" font-size="35.00">R150</text>
</a>
</g>
</g>
<!-- R168&#45;&gt;R150 -->
<g id="edge4" class="edge">
<title>R168&#45;&gt;R150</title>
<path fill="none" stroke="black" d="M56.31,-114.24C64.74,-94.47 79.87,-67.33 103,-54.51 255.16,29.82 471.89,-3.36 573.42,-26.04"/>
<polygon fill="black" stroke="black" points="572.53,-29.65 583.06,-28.47 574.09,-22.83 572.53,-29.65"/>
<text text-anchor="middle" x="339" y="-63.51" font-family="Times New Roman,serif" font-size="30.00"> &#160;&#160;688 &#160;&#160;1% &#160;&#160;0.00272 mol/s &#160;&#160;&#160;9.99E&#45;01</text>
</g>
</g>
</svg>
