<?xml version="1.0" encoding="UTF-8" standalone="no"?>
<!DOCTYPE svg PUBLIC "-//W3C//DTD SVG 1.1//EN"
 "http://www.w3.org/Graphics/SVG/1.1/DTD/svg11.dtd">
<!-- Generated by graphviz version 8.0.3 (20230416.2022)
 -->
<!-- Title: G Pages: 1 -->
<svg width="640pt" height="41pt"
 viewBox="0.00 0.00 720.00 46.69" xmlns="http://www.w3.org/2000/svg" xmlns:xlink="http://www.w3.org/1999/xlink">
<g id="graph0" class="graph" transform="scale(0.368876 0.368876) rotate(0) translate(4 108.5)">
<title>G</title>
<polygon fill="white" stroke="none" points="-4,4 -4,-108.5 1731,-108.5 1731,4 -4,4"/>
<text text-anchor="middle" x="863.5" y="-71.7" font-family="Arial" font-size="36.00" fill="blue">Reaction Path Analysis</text>
<!-- CH2CH2OH(S) -->
<g id="node1" class="node">
<title>CH2CH2OH(S)</title>
<g id="a_node1"><a xlink:href="17.svg" xlink:title="CH2CH2OH(S)">
<polygon fill="purple" stroke="none" points="989,-47 747,-47 747,0 989,0 989,-47"/>
<text text-anchor="middle" x="868" y="-15" font-family="Times New Roman,serif" font-size="35.00">CH2CH2OH(S)</text>
</a>
</g>
</g>
<!-- CH2CHOH(S) -->
<g id="node2" class="node">
<title>CH2CHOH(S)</title>
<g id="a_node2"><a xlink:href="18.svg" xlink:title="CH2CHOH(S)">
<polygon fill="dodgerblue" stroke="none" points="1727,-47 1503,-47 1503,0 1727,0 1727,-47"/>
<text text-anchor="middle" x="1615" y="-15" font-family="Times New Roman,serif" font-size="35.00">CH2CHOH(S)</text>
</a>
</g>
</g>
<!-- CH2CH2OH(S)&#45;&gt;CH2CHOH(S) -->
<g id="edge1" class="edge">
<title>CH2CH2OH(S)&#45;&gt;CH2CHOH(S)</title>
<path fill="none" stroke="black" stroke-width="5" d="M988.7,-23.5C1123.67,-23.5 1342.5,-23.5 1482.24,-23.5"/>
<polygon fill="black" stroke="black" stroke-width="5" points="1477.11,-32.25 1497.11,-23.5 1477.11,-14.75 1477.11,-32.25"/>
<text text-anchor="middle" x="1241.5" y="-32.5" font-family="Times New Roman,serif" font-size="30.00"> &#160;&#160;17 &#160;&#160;99% &#160;&#160;2.55e&#45;09 mol/s &#160;&#160;&#160;7.68E&#45;01</text>
</g>
<!-- CH3CH2OH(S) -->
<g id="node3" class="node">
<title>CH3CH2OH(S)</title>
<g id="a_node3"><a xlink:href="14.svg" xlink:title="CH3CH2OH(S)">
<polygon fill="dodgerblue" stroke="none" points="242,-47 0,-47 0,0 242,0 242,-47"/>
<text text-anchor="middle" x="121" y="-15" font-family="Times New Roman,serif" font-size="35.00">CH3CH2OH(S)</text>
</a>
</g>
</g>
<!-- CH3CH2OH(S)&#45;&gt;CH2CH2OH(S) -->
<g id="edge2" class="edge">
<title>CH3CH2OH(S)&#45;&gt;CH2CH2OH(S)</title>
<path fill="none" stroke="black" stroke-width="6" d="M241.7,-23.5C373.84,-23.5 586.34,-23.5 726.33,-23.5"/>
<polygon fill="black" stroke="black" stroke-width="6" points="721.29,-34 741.29,-23.5 721.29,-13 721.29,-34"/>
<text text-anchor="middle" x="494.5" y="-32.5" font-family="Times New Roman,serif" font-size="30.00"> &#160;&#160;37 &#160;&#160;100% &#160;&#160;2.55e&#45;09 mol/s &#160;&#160;&#160;9.99E&#45;01</text>
</g>
</g>
</svg>
