<?xml version="1.0" encoding="UTF-8" standalone="no"?>
<!DOCTYPE svg PUBLIC "-//W3C//DTD SVG 1.1//EN"
 "http://www.w3.org/Graphics/SVG/1.1/DTD/svg11.dtd">
<!-- Generated by graphviz version 8.0.3 (20230416.2022)
 -->
<!-- Title: G Pages: 1 -->
<svg width="640pt" height="517pt"
 viewBox="0.00 0.00 720.00 581.99" xmlns="http://www.w3.org/2000/svg" xmlns:xlink="http://www.w3.org/1999/xlink">
<g id="graph0" class="graph" transform="scale(0.505529 0.505529) rotate(0) translate(4 1019.33)">
<title>G</title>
<polygon fill="white" stroke="none" points="-4,4 -4,-1019.33 1262,-1019.33 1262,4 -4,4"/>
<text text-anchor="middle" x="629" y="-982.53" font-family="Arial" font-size="36.00" fill="blue">Reaction Path Analysis</text>
<!-- R17 -->
<g id="node1" class="node">
<title>R17</title>
<g id="a_node1"><a xlink:href="17.svg" xlink:title="R17">
<polygon fill="cornsilk" stroke="none" points="658,-485.83 582,-485.83 582,-438.83 658,-438.83 658,-485.83"/>
<text text-anchor="middle" x="620" y="-453.83" font-family="Times New Roman,serif" font-size="35.00">R17</text>
</a>
</g>
</g>
<!-- R31 -->
<g id="node4" class="node">
<title>R31</title>
<g id="a_node4"><a xlink:href="31.svg" xlink:title="R31">
<polygon fill="cornsilk" stroke="none" points="1249,-940.83 1173,-940.83 1173,-893.83 1249,-893.83 1249,-940.83"/>
<text text-anchor="middle" x="1211" y="-908.83" font-family="Times New Roman,serif" font-size="35.00">R31</text>
</a>
</g>
</g>
<!-- R17&#45;&gt;R31 -->
<g id="edge3" class="edge">
<title>R17&#45;&gt;R31</title>
<path fill="none" stroke="black" d="M622.28,-485.7C627.18,-571.06 646,-862.57 676,-890.33 745.71,-954.85 1045.22,-933.47 1162.57,-922.3"/>
<polygon fill="black" stroke="black" points="1162.73,-925.7 1172.35,-921.25 1162.06,-918.73 1162.73,-925.7"/>
<text text-anchor="middle" x="915.5" y="-943.33" font-family="Times New Roman,serif" font-size="30.00"> &#160;&#160;104 &#160;&#160;7% &#160;&#160;2.18e&#45;15 mol/s &#160;&#160;&#160;1.00E+00</text>
</g>
<!-- R46 -->
<g id="node5" class="node">
<title>R46</title>
<g id="a_node5"><a xlink:href="46.svg" xlink:title="R46">
<polygon fill="cornsilk" stroke="none" points="1249,-875.83 1173,-875.83 1173,-828.83 1249,-828.83 1249,-875.83"/>
<text text-anchor="middle" x="1211" y="-843.83" font-family="Times New Roman,serif" font-size="35.00">R46</text>
</a>
</g>
</g>
<!-- R17&#45;&gt;R46 -->
<g id="edge4" class="edge">
<title>R17&#45;&gt;R46</title>
<path fill="none" stroke="black" d="M620.87,-485.76C621.01,-558.74 625.66,-779.79 676,-825.33 711.62,-857.56 1038.79,-855.32 1162.72,-853.29"/>
<polygon fill="black" stroke="black" points="1162.43,-856.78 1172.37,-853.1 1162.31,-849.78 1162.43,-856.78"/>
<text text-anchor="middle" x="915.5" y="-862.33" font-family="Times New Roman,serif" font-size="30.00"> &#160;&#160;155 &#160;&#160;7% &#160;&#160;2.18e&#45;15 mol/s &#160;&#160;&#160;1.00E+00</text>
</g>
<!-- R111 -->
<g id="node6" class="node">
<title>R111</title>
<g id="a_node6"><a xlink:href="111.svg" xlink:title="R111">
<polygon fill="cornsilk" stroke="none" points="1258,-810.83 1164,-810.83 1164,-763.83 1258,-763.83 1258,-810.83"/>
<text text-anchor="middle" x="1211" y="-778.83" font-family="Times New Roman,serif" font-size="35.00">R111</text>
</a>
</g>
</g>
<!-- R17&#45;&gt;R111 -->
<g id="edge5" class="edge">
<title>R17&#45;&gt;R111</title>
<path fill="none" stroke="black" d="M621.72,-485.57C624.21,-549.25 634.75,-724.19 676,-760.33 711.24,-791.2 1022.94,-790.18 1153.19,-788.36"/>
<polygon fill="black" stroke="black" points="1153.16,-791.85 1163.11,-788.2 1153.06,-784.85 1153.16,-791.85"/>
<text text-anchor="middle" x="915.5" y="-797.33" font-family="Times New Roman,serif" font-size="30.00"> &#160;&#160;156 &#160;&#160;7% &#160;&#160;2.18e&#45;15 mol/s &#160;&#160;&#160;1.00E+00</text>
</g>
<!-- R58 -->
<g id="node7" class="node">
<title>R58</title>
<g id="a_node7"><a xlink:href="58.svg" xlink:title="R58">
<polygon fill="cornsilk" stroke="none" points="1249,-745.83 1173,-745.83 1173,-698.83 1249,-698.83 1249,-745.83"/>
<text text-anchor="middle" x="1211" y="-713.83" font-family="Times New Roman,serif" font-size="35.00">R58</text>
</a>
</g>
</g>
<!-- R17&#45;&gt;R58 -->
<g id="edge6" class="edge">
<title>R17&#45;&gt;R58</title>
<path fill="none" stroke="black" d="M623.06,-485.77C628.29,-539.23 643.97,-667.62 676,-694.33 712.85,-725.07 1038.51,-724.42 1162.42,-723.04"/>
<polygon fill="black" stroke="black" points="1162.12,-726.53 1172.08,-722.91 1162.04,-719.53 1162.12,-726.53"/>
<text text-anchor="middle" x="915.5" y="-732.33" font-family="Times New Roman,serif" font-size="30.00"> &#160;&#160;232 &#160;&#160;7% &#160;&#160;2.18e&#45;15 mol/s &#160;&#160;&#160;1.00E+00</text>
</g>
<!-- R179 -->
<g id="node8" class="node">
<title>R179</title>
<g id="a_node8"><a xlink:href="179.svg" xlink:title="R179">
<polygon fill="cornsilk" stroke="none" points="1258,-680.83 1164,-680.83 1164,-633.83 1258,-633.83 1258,-680.83"/>
<text text-anchor="middle" x="1211" y="-648.83" font-family="Times New Roman,serif" font-size="35.00">R179</text>
</a>
</g>
</g>
<!-- R17&#45;&gt;R179 -->
<g id="edge7" class="edge">
<title>R17&#45;&gt;R179</title>
<path fill="none" stroke="black" d="M620.99,-485.83C622.39,-523.1 631.13,-595.04 676,-629.33 713.23,-657.78 1023.78,-658.77 1153.46,-657.92"/>
<polygon fill="black" stroke="black" points="1153.35,-661.42 1163.32,-657.84 1153.3,-654.42 1153.35,-661.42"/>
<text text-anchor="middle" x="915.5" y="-666.33" font-family="Times New Roman,serif" font-size="30.00"> &#160;&#160;233 &#160;&#160;7% &#160;&#160;2.18e&#45;15 mol/s &#160;&#160;&#160;1.00E+00</text>
</g>
<!-- R59 -->
<g id="node9" class="node">
<title>R59</title>
<g id="a_node9"><a xlink:href="59.svg" xlink:title="R59">
<polygon fill="cornsilk" stroke="none" points="1249,-615.83 1173,-615.83 1173,-568.83 1249,-568.83 1249,-615.83"/>
<text text-anchor="middle" x="1211" y="-583.83" font-family="Times New Roman,serif" font-size="35.00">R59</text>
</a>
</g>
</g>
<!-- R17&#45;&gt;R59 -->
<g id="edge8" class="edge">
<title>R17&#45;&gt;R59</title>
<path fill="none" stroke="black" d="M626.33,-485.78C633.25,-510.26 647.93,-547.52 676,-565.33 716.47,-591.02 1039.27,-592.83 1162.46,-592.57"/>
<polygon fill="black" stroke="black" points="1162.41,-596.07 1172.4,-592.55 1162.39,-589.07 1162.41,-596.07"/>
<text text-anchor="middle" x="915.5" y="-601.33" font-family="Times New Roman,serif" font-size="30.00"> &#160;&#160;279 &#160;&#160;7% &#160;&#160;2.18e&#45;15 mol/s &#160;&#160;&#160;1.00E+00</text>
</g>
<!-- R217 -->
<g id="node10" class="node">
<title>R217</title>
<g id="a_node10"><a xlink:href="217.svg" xlink:title="R217">
<polygon fill="cornsilk" stroke="none" points="1258,-550.83 1164,-550.83 1164,-503.83 1258,-503.83 1258,-550.83"/>
<text text-anchor="middle" x="1211" y="-518.83" font-family="Times New Roman,serif" font-size="35.00">R217</text>
</a>
</g>
</g>
<!-- R17&#45;&gt;R217 -->
<g id="edge9" class="edge">
<title>R17&#45;&gt;R217</title>
<path fill="none" stroke="black" d="M649.42,-485.66C657.54,-491.12 666.72,-496.23 676,-499.33 763.2,-528.45 1035.13,-529.27 1153.73,-528.15"/>
<polygon fill="black" stroke="black" points="1153.42,-531.65 1163.38,-528.04 1153.35,-524.65 1153.42,-531.65"/>
<text text-anchor="middle" x="915.5" y="-537.33" font-family="Times New Roman,serif" font-size="30.00"> &#160;&#160;280 &#160;&#160;7% &#160;&#160;2.18e&#45;15 mol/s &#160;&#160;&#160;1.00E+00</text>
</g>
<!-- R229 -->
<g id="node11" class="node">
<title>R229</title>
<g id="a_node11"><a xlink:href="229.svg" xlink:title="R229">
<polygon fill="cornsilk" stroke="none" points="1258,-485.83 1164,-485.83 1164,-438.83 1258,-438.83 1258,-485.83"/>
<text text-anchor="middle" x="1211" y="-453.83" font-family="Times New Roman,serif" font-size="35.00">R229</text>
</a>
</g>
</g>
<!-- R17&#45;&gt;R229 -->
<g id="edge10" class="edge">
<title>R17&#45;&gt;R229</title>
<path fill="none" stroke="black" d="M657.84,-462.33C757.61,-462.33 1033.52,-462.33 1153.29,-462.33"/>
<polygon fill="black" stroke="black" points="1153.04,-465.83 1163.04,-462.33 1153.04,-458.83 1153.04,-465.83"/>
<text text-anchor="middle" x="915.5" y="-471.33" font-family="Times New Roman,serif" font-size="30.00"> &#160;&#160;300 &#160;&#160;7% &#160;&#160;2.18e&#45;15 mol/s &#160;&#160;&#160;1.00E+00</text>
</g>
<!-- R230 -->
<g id="node12" class="node">
<title>R230</title>
<g id="a_node12"><a xlink:href="230.svg" xlink:title="R230">
<polygon fill="cornsilk" stroke="none" points="1258,-420.83 1164,-420.83 1164,-373.83 1258,-373.83 1258,-420.83"/>
<text text-anchor="middle" x="1211" y="-388.83" font-family="Times New Roman,serif" font-size="35.00">R230</text>
</a>
</g>
</g>
<!-- R17&#45;&gt;R230 -->
<g id="edge11" class="edge">
<title>R17&#45;&gt;R230</title>
<path fill="none" stroke="black" d="M649.42,-439.01C657.54,-433.55 666.72,-428.43 676,-425.33 842.35,-369.78 1053.99,-380.97 1153.48,-390.65"/>
<polygon fill="black" stroke="black" points="1152.89,-394.21 1163.19,-391.73 1153.59,-387.24 1152.89,-394.21"/>
<text text-anchor="middle" x="915.5" y="-434.33" font-family="Times New Roman,serif" font-size="30.00"> &#160;&#160;326 &#160;&#160;7% &#160;&#160;2.18e&#45;15 mol/s &#160;&#160;&#160;1.00E+00</text>
</g>
<!-- R243 -->
<g id="node13" class="node">
<title>R243</title>
<g id="a_node13"><a xlink:href="243.svg" xlink:title="R243">
<polygon fill="cornsilk" stroke="none" points="1258,-355.83 1164,-355.83 1164,-308.83 1258,-308.83 1258,-355.83"/>
<text text-anchor="middle" x="1211" y="-323.83" font-family="Times New Roman,serif" font-size="35.00">R243</text>
</a>
</g>
</g>
<!-- R17&#45;&gt;R243 -->
<g id="edge12" class="edge">
<title>R17&#45;&gt;R243</title>
<path fill="none" stroke="black" d="M624.7,-438.85C630.41,-411.38 644.25,-367.01 676,-346.33 753.25,-296.04 1032.53,-315.41 1153.49,-326.58"/>
<polygon fill="black" stroke="black" points="1153.07,-330.15 1163.35,-327.6 1153.72,-323.18 1153.07,-330.15"/>
<text text-anchor="middle" x="915.5" y="-355.33" font-family="Times New Roman,serif" font-size="30.00"> &#160;&#160;327 &#160;&#160;7% &#160;&#160;2.18e&#45;15 mol/s &#160;&#160;&#160;1.00E+00</text>
</g>
<!-- R232 -->
<g id="node14" class="node">
<title>R232</title>
<g id="a_node14"><a xlink:href="232.svg" xlink:title="R232">
<polygon fill="cornsilk" stroke="none" points="1258,-290.83 1164,-290.83 1164,-243.83 1258,-243.83 1258,-290.83"/>
<text text-anchor="middle" x="1211" y="-258.83" font-family="Times New Roman,serif" font-size="35.00">R232</text>
</a>
</g>
</g>
<!-- R17&#45;&gt;R232 -->
<g id="edge13" class="edge">
<title>R17&#45;&gt;R232</title>
<path fill="none" stroke="black" d="M624.51,-438.85C631.79,-393.6 650.06,-297.06 676,-277.33 713.24,-249 1023.79,-259.13 1153.46,-264.69"/>
<polygon fill="black" stroke="black" points="1153.18,-268.22 1163.33,-265.16 1153.49,-261.23 1153.18,-268.22"/>
<text text-anchor="middle" x="915.5" y="-286.33" font-family="Times New Roman,serif" font-size="30.00"> &#160;&#160;375 &#160;&#160;7% &#160;&#160;2.18e&#45;15 mol/s &#160;&#160;&#160;1.00E+00</text>
</g>
<!-- R278 -->
<g id="node15" class="node">
<title>R278</title>
<g id="a_node15"><a xlink:href="278.svg" xlink:title="R278">
<polygon fill="cornsilk" stroke="none" points="1258,-225.83 1164,-225.83 1164,-178.83 1258,-178.83 1258,-225.83"/>
<text text-anchor="middle" x="1211" y="-193.83" font-family="Times New Roman,serif" font-size="35.00">R278</text>
</a>
</g>
</g>
<!-- R17&#45;&gt;R278 -->
<g id="edge14" class="edge">
<title>R17&#45;&gt;R278</title>
<path fill="none" stroke="black" d="M622.78,-439.19C627.52,-384.37 642.43,-249.09 676,-221.33 712.08,-191.5 1023.3,-196.9 1153.3,-200.52"/>
<polygon fill="black" stroke="black" points="1153.1,-204.04 1163.2,-200.83 1153.3,-197.05 1153.1,-204.04"/>
<text text-anchor="middle" x="915.5" y="-230.33" font-family="Times New Roman,serif" font-size="30.00"> &#160;&#160;376 &#160;&#160;7% &#160;&#160;2.18e&#45;15 mol/s &#160;&#160;&#160;1.00E+00</text>
</g>
<!-- R279 -->
<g id="node16" class="node">
<title>R279</title>
<g id="a_node16"><a xlink:href="279.svg" xlink:title="R279">
<polygon fill="cornsilk" stroke="none" points="1258,-160.83 1164,-160.83 1164,-113.83 1258,-113.83 1258,-160.83"/>
<text text-anchor="middle" x="1211" y="-128.83" font-family="Times New Roman,serif" font-size="35.00">R279</text>
</a>
</g>
</g>
<!-- R17&#45;&gt;R279 -->
<g id="edge15" class="edge">
<title>R17&#45;&gt;R279</title>
<path fill="none" stroke="black" d="M621.67,-438.85C624.03,-374.51 634.27,-197.75 676,-161.33 711.29,-130.54 1022.96,-133.39 1153.2,-135.97"/>
<polygon fill="black" stroke="black" points="1153.04,-139.49 1163.11,-136.19 1153.19,-132.49 1153.04,-139.49"/>
<text text-anchor="middle" x="915.5" y="-170.33" font-family="Times New Roman,serif" font-size="30.00"> &#160;&#160;377 &#160;&#160;7% &#160;&#160;2.18e&#45;15 mol/s &#160;&#160;&#160;1.00E+00</text>
</g>
<!-- R86 -->
<g id="node17" class="node">
<title>R86</title>
<g id="a_node17"><a xlink:href="86.svg" xlink:title="R86">
<polygon fill="cornsilk" stroke="none" points="1249,-81.83 1173,-81.83 1173,-34.83 1249,-34.83 1249,-81.83"/>
<text text-anchor="middle" x="1211" y="-49.83" font-family="Times New Roman,serif" font-size="35.00">R86</text>
</a>
</g>
</g>
<!-- R17&#45;&gt;R86 -->
<g id="edge16" class="edge">
<title>R17&#45;&gt;R86</title>
<path fill="none" stroke="black" d="M620.87,-438.84C620.99,-365.68 625.57,-144.05 676,-98.33 715.48,-62.54 1102.38,-81.78 1155,-73.33 1157.51,-72.93 1160.08,-72.46 1162.66,-71.93"/>
<polygon fill="black" stroke="black" points="1163.28,-75.15 1172.26,-69.52 1161.73,-68.32 1163.28,-75.15"/>
<text text-anchor="middle" x="915.5" y="-107.33" font-family="Times New Roman,serif" font-size="30.00"> &#160;&#160;421 &#160;&#160;0% &#160;&#160;2.19e&#45;26 mol/s &#160;&#160;&#160;9.97E&#45;01</text>
</g>
<!-- R17&#45;&gt;R86 -->
<g id="edge17" class="edge">
<title>R17&#45;&gt;R86</title>
<path fill="none" stroke="black" d="M622.24,-439.03C627.01,-353.88 645.44,-63.2 676,-36.33 755.94,33.95 1050.48,-16.2 1155,-36.33 1157.51,-36.82 1160.06,-37.42 1162.6,-38.1"/>
<polygon fill="black" stroke="black" points="1161.41,-41.71 1172,-41.34 1163.5,-35.02 1161.41,-41.71"/>
<text text-anchor="middle" x="915.5" y="-45.33" font-family="Times New Roman,serif" font-size="30.00"> &#160;&#160;472 &#160;&#160;0% &#160;&#160;6.64e&#45;24 mol/s &#160;&#160;&#160;3.29E&#45;03</text>
</g>
<!-- R4 -->
<g id="node2" class="node">
<title>R4</title>
<g id="a_node2"><a xlink:href="4.svg" xlink:title="R4">
<polygon fill="cornsilk" stroke="none" points="58,-518.83 0,-518.83 0,-471.83 58,-471.83 58,-518.83"/>
<text text-anchor="middle" x="29" y="-486.83" font-family="Times New Roman,serif" font-size="35.00">R4</text>
</a>
</g>
</g>
<!-- R4&#45;&gt;R17 -->
<g id="edge1" class="edge">
<title>R4&#45;&gt;R17</title>
<path fill="none" stroke="black" stroke-width="6" d="M57.77,-496.03C135.23,-497.59 360.51,-499.55 561.43,-474.29"/>
<polygon fill="black" stroke="black" stroke-width="6" points="557.58,-484.6 576.04,-471.6 554.85,-463.78 557.58,-484.6"/>
<text text-anchor="middle" x="324.5" y="-505.33" font-family="Times New Roman,serif" font-size="30.00"> &#160;&#160;20 &#160;&#160;100% &#160;&#160;2.18e&#45;15 mol/s &#160;&#160;&#160;1.00E+00</text>
</g>
<!-- R1 -->
<g id="node3" class="node">
<title>R1</title>
<g id="a_node3"><a xlink:href="1.svg" xlink:title="R1">
<polygon fill="cornsilk" stroke="none" points="58,-453.83 0,-453.83 0,-406.83 58,-406.83 58,-453.83"/>
<text text-anchor="middle" x="29" y="-421.83" font-family="Times New Roman,serif" font-size="35.00">R1</text>
</a>
</g>
</g>
<!-- R1&#45;&gt;R17 -->
<g id="edge2" class="edge">
<title>R1&#45;&gt;R17</title>
<path fill="none" stroke="black" stroke-width="6" d="M57.82,-426.87C135.86,-417.95 363.49,-397.54 561.86,-439.02"/>
<polygon fill="black" stroke="black" stroke-width="6" points="554.39,-448.45 576.18,-442.52 558.92,-427.95 554.39,-448.45"/>
<text text-anchor="middle" x="324.5" y="-449.33" font-family="Times New Roman,serif" font-size="30.00"> &#160;&#160;20 &#160;&#160;100% &#160;&#160;2.18e&#45;15 mol/s &#160;&#160;&#160;1.00E+00</text>
</g>
</g>
</svg>
