<?xml version="1.0" encoding="UTF-8" standalone="no"?>
<!DOCTYPE svg PUBLIC "-//W3C//DTD SVG 1.1//EN"
 "http://www.w3.org/Graphics/SVG/1.1/DTD/svg11.dtd">
<!-- Generated by graphviz version 8.0.3 (20230416.2022)
 -->
<!-- Title: G Pages: 1 -->
<svg width="640pt" height="268pt"
 viewBox="0.00 0.00 720.00 301.21" xmlns="http://www.w3.org/2000/svg" xmlns:xlink="http://www.w3.org/1999/xlink">
<g id="graph0" class="graph" transform="scale(0.487062 0.487062) rotate(0) translate(4 545.72)">
<title>G</title>
<polygon fill="white" stroke="none" points="-4,4 -4,-545.72 1310,-545.72 1310,4 -4,4"/>
<text text-anchor="middle" x="653" y="-508.92" font-family="Arial" font-size="36.00" fill="blue">Reaction Path Analysis</text>
<!-- R170 -->
<g id="node1" class="node">
<title>R170</title>
<g id="a_node1"><a xlink:href="170.svg" xlink:title="R170">
<polygon fill="cornsilk" stroke="none" points="700,-252.22 606,-252.22 606,-205.22 700,-205.22 700,-252.22"/>
<text text-anchor="middle" x="653" y="-220.22" font-family="Times New Roman,serif" font-size="35.00">R170</text>
</a>
</g>
</g>
<!-- R173 -->
<g id="node7" class="node">
<title>R173</title>
<g id="a_node7"><a xlink:href="173.svg" xlink:title="R173">
<polygon fill="cornsilk" stroke="none" points="1306,-285.22 1212,-285.22 1212,-238.22 1306,-238.22 1306,-285.22"/>
<text text-anchor="middle" x="1259" y="-253.22" font-family="Times New Roman,serif" font-size="35.00">R173</text>
</a>
</g>
</g>
<!-- R170&#45;&gt;R173 -->
<g id="edge6" class="edge">
<title>R170&#45;&gt;R173</title>
<path fill="none" stroke="black" stroke-width="3" d="M699.83,-238.44C702.92,-238.93 706,-239.36 709,-239.72 887.94,-261.06 1101.76,-262.88 1201.53,-262.37"/>
<polygon fill="black" stroke="black" stroke-width="3" points="1198.28,-265.87 1208.26,-262.31 1198.24,-258.87 1198.28,-265.87"/>
<text text-anchor="middle" x="956" y="-270.72" font-family="Times New Roman,serif" font-size="30.00"> &#160;&#160;511 &#160;&#160;50% &#160;&#160;4.67e&#45;08 mol/s &#160;&#160;&#160;1.00E+00</text>
</g>
<!-- R284 -->
<g id="node8" class="node">
<title>R284</title>
<g id="a_node8"><a xlink:href="284.svg" xlink:title="R284">
<polygon fill="cornsilk" stroke="none" points="1306,-220.22 1212,-220.22 1212,-173.22 1306,-173.22 1306,-220.22"/>
<text text-anchor="middle" x="1259" y="-188.22" font-family="Times New Roman,serif" font-size="35.00">R284</text>
</a>
</g>
</g>
<!-- R170&#45;&gt;R284 -->
<g id="edge7" class="edge">
<title>R170&#45;&gt;R284</title>
<path fill="none" stroke="black" stroke-width="3" d="M699.84,-208.98C702.91,-208.1 705.98,-207.33 709,-206.72 885.75,-171.01 1101.04,-182.61 1201.41,-191.1"/>
<polygon fill="black" stroke="black" stroke-width="3" points="1197.94,-194.66 1208.21,-192.04 1198.55,-187.69 1197.94,-194.66"/>
<text text-anchor="middle" x="956" y="-215.72" font-family="Times New Roman,serif" font-size="30.00"> &#160;&#160;512 &#160;&#160;50% &#160;&#160;4.67e&#45;08 mol/s &#160;&#160;&#160;1.00E+00</text>
</g>
<!-- R1 -->
<g id="node2" class="node">
<title>R1</title>
<g id="a_node2"><a xlink:href="1.svg" xlink:title="R1">
<polygon fill="cornsilk" stroke="none" points="76,-438.22 18,-438.22 18,-391.22 76,-391.22 76,-438.22"/>
<text text-anchor="middle" x="47" y="-406.22" font-family="Times New Roman,serif" font-size="35.00">R1</text>
</a>
</g>
</g>
<!-- R1&#45;&gt;R170 -->
<g id="edge1" class="edge">
<title>R1&#45;&gt;R170</title>
<path fill="none" stroke="black" d="M75.84,-423.23C161.86,-447.7 427.39,-509.34 589.5,-392.72 631.15,-362.75 645.05,-301.26 649.68,-262.67"/>
<polygon fill="black" stroke="black" points="653.24,-263.28 650.8,-252.97 646.28,-262.55 653.24,-263.28"/>
<text text-anchor="middle" x="350" y="-469.72" font-family="Times New Roman,serif" font-size="30.00"> &#160;&#160;222 &#160;&#160;0% &#160;&#160;4.67e&#45;08 mol/s &#160;&#160;&#160;1.00E+00</text>
</g>
<!-- R89 -->
<g id="node3" class="node">
<title>R89</title>
<g id="a_node3"><a xlink:href="89.svg" xlink:title="R89">
<polygon fill="cornsilk" stroke="none" points="85,-373.22 9,-373.22 9,-326.22 85,-326.22 85,-373.22"/>
<text text-anchor="middle" x="47" y="-341.22" font-family="Times New Roman,serif" font-size="35.00">R89</text>
</a>
</g>
</g>
<!-- R89&#45;&gt;R170 -->
<g id="edge2" class="edge">
<title>R89&#45;&gt;R170</title>
<path fill="none" stroke="black" d="M84.69,-352.08C192.03,-358.34 503.27,-371.74 589.5,-322.72 612.93,-309.4 629.22,-283.27 639.28,-261.93"/>
<polygon fill="black" stroke="black" points="642.87,-263.48 643.72,-252.92 636.47,-260.64 642.87,-263.48"/>
<text text-anchor="middle" x="350" y="-366.72" font-family="Times New Roman,serif" font-size="30.00"> &#160;&#160;222 &#160;&#160;0% &#160;&#160;4.67e&#45;08 mol/s &#160;&#160;&#160;1.00E+00</text>
</g>
<!-- R14 -->
<g id="node4" class="node">
<title>R14</title>
<g id="a_node4"><a xlink:href="14.svg" xlink:title="R14">
<polygon fill="cornsilk" stroke="none" points="85,-308.22 9,-308.22 9,-261.22 85,-261.22 85,-308.22"/>
<text text-anchor="middle" x="47" y="-276.22" font-family="Times New Roman,serif" font-size="35.00">R14</text>
</a>
</g>
</g>
<!-- R14&#45;&gt;R170 -->
<g id="edge3" class="edge">
<title>R14&#45;&gt;R170</title>
<path fill="none" stroke="black" d="M84.94,-285.39C190.9,-286.97 494.27,-289.01 589.5,-262.72 595.01,-261.2 600.56,-259.12 605.97,-256.73"/>
<polygon fill="black" stroke="black" points="607.01,-259.63 614.51,-252.15 603.98,-253.32 607.01,-259.63"/>
<text text-anchor="middle" x="350" y="-294.72" font-family="Times New Roman,serif" font-size="30.00"> &#160;&#160;378 &#160;&#160;0% &#160;&#160;4.67e&#45;08 mol/s &#160;&#160;&#160;1.00E+00</text>
</g>
<!-- R26 -->
<g id="node5" class="node">
<title>R26</title>
<g id="a_node5"><a xlink:href="26.svg" xlink:title="R26">
<polygon fill="cornsilk" stroke="none" points="85,-243.22 9,-243.22 9,-196.22 85,-196.22 85,-243.22"/>
<text text-anchor="middle" x="47" y="-211.22" font-family="Times New Roman,serif" font-size="35.00">R26</text>
</a>
</g>
</g>
<!-- R26&#45;&gt;R170 -->
<g id="edge4" class="edge">
<title>R26&#45;&gt;R170</title>
<path fill="none" stroke="black" d="M84.87,-220.27C186.83,-221.79 473.07,-226.05 595.4,-227.87"/>
<polygon fill="black" stroke="black" points="595.32,-231.39 605.37,-228.04 595.42,-224.39 595.32,-231.39"/>
<text text-anchor="middle" x="350" y="-236.72" font-family="Times New Roman,serif" font-size="30.00"> &#160;&#160;378 &#160;&#160;0% &#160;&#160;4.67e&#45;08 mol/s &#160;&#160;&#160;1.00E+00</text>
</g>
<!-- R65 -->
<g id="node6" class="node">
<title>R65</title>
<g id="a_node6"><a xlink:href="65.svg" xlink:title="R65">
<polygon fill="cornsilk" stroke="none" points="85,-164.22 9,-164.22 9,-117.22 85,-117.22 85,-164.22"/>
<text text-anchor="middle" x="47" y="-132.22" font-family="Times New Roman,serif" font-size="35.00">R65</text>
</a>
</g>
</g>
<!-- R65&#45;&gt;R170 -->
<g id="edge5" class="edge">
<title>R65&#45;&gt;R170</title>
<path fill="none" stroke="black" d="M84.94,-147.2C93.32,-148.51 102.2,-149.78 110.5,-150.72 216.51,-162.71 489.31,-146.08 589.5,-182.72 599.75,-186.46 609.77,-192.45 618.68,-198.87"/>
<polygon fill="black" stroke="black" points="616.12,-202.08 626.19,-205.38 620.37,-196.52 616.12,-202.08"/>
<text text-anchor="middle" x="350" y="-191.72" font-family="Times New Roman,serif" font-size="30.00"> &#160;&#160;451 &#160;&#160;0% &#160;&#160;1.01e&#45;11 mol/s &#160;&#160;&#160;1.00E+00</text>
</g>
<!-- R65&#45;&gt;R170 -->
<g id="edge8" class="edge">
<title>R65&#45;&gt;R170</title>
<path fill="none" stroke="black" stroke-width="5" d="M84.86,-121.87C93.1,-118.49 101.93,-115.49 110.5,-113.72 162.62,-102.94 543.75,-86.51 589.5,-113.72 615.59,-129.23 631.47,-159.87 640.69,-185.63"/>
<polygon fill="black" stroke="black" stroke-width="5" points="631.64,-184.19 645.95,-200.67 648.34,-178.97 631.64,-184.19"/>
<text text-anchor="middle" x="350" y="-122.72" font-family="Times New Roman,serif" font-size="30.00"> &#160;&#160;690 &#160;&#160;99% &#160;&#160;0.00035 mol/s &#160;&#160;&#160;2.88E&#45;08</text>
</g>
<!-- R134 -->
<g id="node9" class="node">
<title>R134</title>
<g id="a_node9"><a xlink:href="134.svg" xlink:title="R134">
<polygon fill="cornsilk" stroke="none" points="94,-84.22 0,-84.22 0,-37.22 94,-37.22 94,-84.22"/>
<text text-anchor="middle" x="47" y="-52.22" font-family="Times New Roman,serif" font-size="35.00">R134</text>
</a>
</g>
</g>
<!-- R134&#45;&gt;R170 -->
<g id="edge9" class="edge">
<title>R134&#45;&gt;R170</title>
<path fill="none" stroke="black" d="M93.73,-44.97C193.88,-13.57 435.87,45.04 589.5,-61.72 632.54,-91.62 645.99,-155 650.16,-194.51"/>
<polygon fill="black" stroke="black" points="646.76,-194.81 651.14,-204.46 653.73,-194.18 646.76,-194.81"/>
<text text-anchor="middle" x="350" y="-70.72" font-family="Times New Roman,serif" font-size="30.00"> &#160;&#160;691 &#160;&#160;0% &#160;&#160;5.32e&#45;07 mol/s &#160;&#160;&#160;1.90E&#45;05</text>
</g>
</g>
</svg>
