<?xml version="1.0" encoding="UTF-8" standalone="no"?>
<!DOCTYPE svg PUBLIC "-//W3C//DTD SVG 1.1//EN"
 "http://www.w3.org/Graphics/SVG/1.1/DTD/svg11.dtd">
<!-- Generated by graphviz version 8.0.3 (20230416.2022)
 -->
<!-- Title: G Pages: 1 -->
<svg width="640pt" height="269pt"
 viewBox="0.00 0.00 720.00 302.98" xmlns="http://www.w3.org/2000/svg" xmlns:xlink="http://www.w3.org/1999/xlink">
<g id="graph0" class="graph" transform="scale(0.487062 0.487062) rotate(0) translate(4 548.94)">
<title>G</title>
<polygon fill="white" stroke="none" points="-4,4 -4,-548.94 1310,-548.94 1310,4 -4,4"/>
<text text-anchor="middle" x="653" y="-512.14" font-family="Arial" font-size="36.00" fill="blue">Reaction Path Analysis</text>
<!-- R170 -->
<g id="node1" class="node">
<title>R170</title>
<g id="a_node1"><a xlink:href="170.svg" xlink:title="R170">
<polygon fill="cornsilk" stroke="none" points="700,-256.44 606,-256.44 606,-209.44 700,-209.44 700,-256.44"/>
<text text-anchor="middle" x="653" y="-224.44" font-family="Times New Roman,serif" font-size="35.00">R170</text>
</a>
</g>
</g>
<!-- R173 -->
<g id="node7" class="node">
<title>R173</title>
<g id="a_node7"><a xlink:href="173.svg" xlink:title="R173">
<polygon fill="cornsilk" stroke="none" points="1306,-289.44 1212,-289.44 1212,-242.44 1306,-242.44 1306,-289.44"/>
<text text-anchor="middle" x="1259" y="-257.44" font-family="Times New Roman,serif" font-size="35.00">R173</text>
</a>
</g>
</g>
<!-- R170&#45;&gt;R173 -->
<g id="edge6" class="edge">
<title>R170&#45;&gt;R173</title>
<path fill="none" stroke="black" stroke-width="3" d="M699.83,-242.66C702.92,-243.15 706,-243.58 709,-243.94 887.94,-265.28 1101.76,-267.1 1201.53,-266.59"/>
<polygon fill="black" stroke="black" stroke-width="3" points="1198.28,-270.09 1208.26,-266.53 1198.24,-263.09 1198.28,-270.09"/>
<text text-anchor="middle" x="956" y="-274.94" font-family="Times New Roman,serif" font-size="30.00"> &#160;&#160;511 &#160;&#160;50% &#160;&#160;2.18e&#45;15 mol/s &#160;&#160;&#160;1.00E+00</text>
</g>
<!-- R284 -->
<g id="node8" class="node">
<title>R284</title>
<g id="a_node8"><a xlink:href="284.svg" xlink:title="R284">
<polygon fill="cornsilk" stroke="none" points="1306,-224.44 1212,-224.44 1212,-177.44 1306,-177.44 1306,-224.44"/>
<text text-anchor="middle" x="1259" y="-192.44" font-family="Times New Roman,serif" font-size="35.00">R284</text>
</a>
</g>
</g>
<!-- R170&#45;&gt;R284 -->
<g id="edge7" class="edge">
<title>R170&#45;&gt;R284</title>
<path fill="none" stroke="black" stroke-width="3" d="M699.84,-213.2C702.91,-212.32 705.98,-211.55 709,-210.94 885.75,-175.23 1101.04,-186.83 1201.41,-195.32"/>
<polygon fill="black" stroke="black" stroke-width="3" points="1197.94,-198.88 1208.21,-196.26 1198.55,-191.91 1197.94,-198.88"/>
<text text-anchor="middle" x="956" y="-219.94" font-family="Times New Roman,serif" font-size="30.00"> &#160;&#160;512 &#160;&#160;50% &#160;&#160;2.18e&#45;15 mol/s &#160;&#160;&#160;1.00E+00</text>
</g>
<!-- R1 -->
<g id="node2" class="node">
<title>R1</title>
<g id="a_node2"><a xlink:href="1.svg" xlink:title="R1">
<polygon fill="cornsilk" stroke="none" points="76,-442.44 18,-442.44 18,-395.44 76,-395.44 76,-442.44"/>
<text text-anchor="middle" x="47" y="-410.44" font-family="Times New Roman,serif" font-size="35.00">R1</text>
</a>
</g>
</g>
<!-- R1&#45;&gt;R170 -->
<g id="edge1" class="edge">
<title>R1&#45;&gt;R170</title>
<path fill="none" stroke="black" stroke-width="3" d="M75.8,-427.24C162.94,-451.43 434.55,-512.74 597,-390.94 635.54,-362.04 647.23,-304.27 650.68,-267.17"/>
<polygon fill="black" stroke="black" stroke-width="3" points="654.23,-270.61 651.51,-260.37 647.25,-270.08 654.23,-270.61"/>
<text text-anchor="middle" x="350" y="-472.94" font-family="Times New Roman,serif" font-size="30.00"> &#160;&#160;222 &#160;&#160;49% &#160;&#160;2.18e&#45;15 mol/s &#160;&#160;&#160;1.00E+00</text>
</g>
<!-- R89 -->
<g id="node3" class="node">
<title>R89</title>
<g id="a_node3"><a xlink:href="89.svg" xlink:title="R89">
<polygon fill="cornsilk" stroke="none" points="85,-377.44 9,-377.44 9,-330.44 85,-330.44 85,-377.44"/>
<text text-anchor="middle" x="47" y="-345.44" font-family="Times New Roman,serif" font-size="35.00">R89</text>
</a>
</g>
</g>
<!-- R89&#45;&gt;R170 -->
<g id="edge2" class="edge">
<title>R89&#45;&gt;R170</title>
<path fill="none" stroke="black" stroke-width="3" d="M84.77,-354.21C200.71,-354.81 553.49,-354.41 597,-327.94 619.39,-314.32 633.59,-287.92 641.95,-266.4"/>
<polygon fill="black" stroke="black" stroke-width="3" points="644.49,-270.9 644.59,-260.31 637.9,-268.53 644.49,-270.9"/>
<text text-anchor="middle" x="350" y="-362.94" font-family="Times New Roman,serif" font-size="30.00"> &#160;&#160;222 &#160;&#160;49% &#160;&#160;2.18e&#45;15 mol/s &#160;&#160;&#160;1.00E+00</text>
</g>
<!-- R14 -->
<g id="node4" class="node">
<title>R14</title>
<g id="a_node4"><a xlink:href="14.svg" xlink:title="R14">
<polygon fill="cornsilk" stroke="none" points="85,-312.44 9,-312.44 9,-265.44 85,-265.44 85,-312.44"/>
<text text-anchor="middle" x="47" y="-280.44" font-family="Times New Roman,serif" font-size="35.00">R14</text>
</a>
</g>
</g>
<!-- R14&#45;&gt;R170 -->
<g id="edge3" class="edge">
<title>R14&#45;&gt;R170</title>
<path fill="none" stroke="black" stroke-width="3" d="M84.76,-289.88C191.68,-292.25 500.99,-296.31 597,-266.94 601.59,-265.53 606.19,-263.65 610.65,-261.48"/>
<polygon fill="black" stroke="black" stroke-width="3" points="609.02,-266.18 616.18,-258.37 605.71,-260.02 609.02,-266.18"/>
<text text-anchor="middle" x="350" y="-299.94" font-family="Times New Roman,serif" font-size="30.00"> &#160;&#160;378 &#160;&#160;49% &#160;&#160;2.18e&#45;15 mol/s &#160;&#160;&#160;1.00E+00</text>
</g>
<!-- R26 -->
<g id="node5" class="node">
<title>R26</title>
<g id="a_node5"><a xlink:href="26.svg" xlink:title="R26">
<polygon fill="cornsilk" stroke="none" points="85,-247.44 9,-247.44 9,-200.44 85,-200.44 85,-247.44"/>
<text text-anchor="middle" x="47" y="-215.44" font-family="Times New Roman,serif" font-size="35.00">R26</text>
</a>
</g>
</g>
<!-- R26&#45;&gt;R170 -->
<g id="edge4" class="edge">
<title>R26&#45;&gt;R170</title>
<path fill="none" stroke="black" stroke-width="3" d="M84.87,-224.49C186.83,-226.01 473.07,-230.27 595.4,-232.09"/>
<polygon fill="black" stroke="black" stroke-width="3" points="592.32,-235.61 602.37,-232.26 592.42,-228.61 592.32,-235.61"/>
<text text-anchor="middle" x="350" y="-240.94" font-family="Times New Roman,serif" font-size="30.00"> &#160;&#160;378 &#160;&#160;49% &#160;&#160;2.18e&#45;15 mol/s &#160;&#160;&#160;1.00E+00</text>
</g>
<!-- R65 -->
<g id="node6" class="node">
<title>R65</title>
<g id="a_node6"><a xlink:href="65.svg" xlink:title="R65">
<polygon fill="cornsilk" stroke="none" points="85,-168.44 9,-168.44 9,-121.44 85,-121.44 85,-168.44"/>
<text text-anchor="middle" x="47" y="-136.44" font-family="Times New Roman,serif" font-size="35.00">R65</text>
</a>
</g>
</g>
<!-- R65&#45;&gt;R170 -->
<g id="edge5" class="edge">
<title>R65&#45;&gt;R170</title>
<path fill="none" stroke="black" d="M84.89,-152.25C90.93,-153.27 97.12,-154.22 103,-154.94 212.19,-168.35 494.86,-146.07 597,-186.94 606.17,-190.6 614.93,-196.42 622.67,-202.69"/>
<polygon fill="black" stroke="black" points="619.78,-205.68 629.62,-209.6 624.37,-200.4 619.78,-205.68"/>
<text text-anchor="middle" x="350" y="-195.94" font-family="Times New Roman,serif" font-size="30.00"> &#160;&#160;451 &#160;&#160;0% &#160;&#160;2.2e&#45;26 mol/s &#160;&#160;&#160;1.00E+00</text>
</g>
<!-- R65&#45;&gt;R170 -->
<g id="edge8" class="edge">
<title>R65&#45;&gt;R170</title>
<path fill="none" stroke="black" d="M84.72,-124.1C90.67,-121.56 96.89,-119.36 103,-117.94 156.47,-105.52 550.56,-88.67 597,-117.94 624.97,-135.57 639.03,-171.79 645.88,-198.9"/>
<polygon fill="black" stroke="black" points="642.67,-199.55 648.33,-208.51 649.5,-197.98 642.67,-199.55"/>
<text text-anchor="middle" x="350" y="-126.94" font-family="Times New Roman,serif" font-size="30.00"> &#160;&#160;690 &#160;&#160;0% &#160;&#160;7.64e&#45;19 mol/s &#160;&#160;&#160;2.88E&#45;08</text>
</g>
<!-- R134 -->
<g id="node9" class="node">
<title>R134</title>
<g id="a_node9"><a xlink:href="134.svg" xlink:title="R134">
<polygon fill="cornsilk" stroke="none" points="94,-88.44 0,-88.44 0,-41.44 94,-41.44 94,-88.44"/>
<text text-anchor="middle" x="47" y="-56.44" font-family="Times New Roman,serif" font-size="35.00">R134</text>
</a>
</g>
</g>
<!-- R134&#45;&gt;R170 -->
<g id="edge9" class="edge">
<title>R134&#45;&gt;R170</title>
<path fill="none" stroke="black" d="M93.94,-48.49C195.68,-15.23 443.14,47.79 597,-63.94 639.36,-94.7 649.73,-158.91 651.91,-198.72"/>
<polygon fill="black" stroke="black" points="648.44,-198.65 652.33,-208.5 655.43,-198.37 648.44,-198.65"/>
<text text-anchor="middle" x="350" y="-72.94" font-family="Times New Roman,serif" font-size="30.00"> &#160;&#160;691 &#160;&#160;0% &#160;&#160;1.16e&#45;21 mol/s &#160;&#160;&#160;1.90E&#45;05</text>
</g>
</g>
</svg>
