<?xml version="1.0" encoding="UTF-8" standalone="no"?>
<!DOCTYPE svg PUBLIC "-//W3C//DTD SVG 1.1//EN"
 "http://www.w3.org/Graphics/SVG/1.1/DTD/svg11.dtd">
<!-- Generated by graphviz version 8.0.3 (20230416.2022)
 -->
<!-- Title: G Pages: 1 -->
<svg width="640pt" height="273pt"
 viewBox="0.00 0.00 720.00 307.48" xmlns="http://www.w3.org/2000/svg" xmlns:xlink="http://www.w3.org/1999/xlink">
<g id="graph0" class="graph" transform="scale(0.498442 0.498442) rotate(0) translate(4 544.34)">
<title>G</title>
<polygon fill="white" stroke="none" points="-4,4 -4,-544.34 1280,-544.34 1280,4 -4,4"/>
<text text-anchor="middle" x="638" y="-507.54" font-family="Arial" font-size="36.00" fill="blue">Reaction Path Analysis</text>
<!-- R170 -->
<g id="node1" class="node">
<title>R170</title>
<g id="a_node1"><a xlink:href="170.svg" xlink:title="R170">
<polygon fill="cornsilk" stroke="none" points="685,-253.84 591,-253.84 591,-206.84 685,-206.84 685,-253.84"/>
<text text-anchor="middle" x="638" y="-221.84" font-family="Times New Roman,serif" font-size="35.00">R170</text>
</a>
</g>
</g>
<!-- R173 -->
<g id="node7" class="node">
<title>R173</title>
<g id="a_node7"><a xlink:href="173.svg" xlink:title="R173">
<polygon fill="cornsilk" stroke="none" points="1276,-286.84 1182,-286.84 1182,-239.84 1276,-239.84 1276,-286.84"/>
<text text-anchor="middle" x="1229" y="-254.84" font-family="Times New Roman,serif" font-size="35.00">R173</text>
</a>
</g>
</g>
<!-- R170&#45;&gt;R173 -->
<g id="edge6" class="edge">
<title>R170&#45;&gt;R173</title>
<path fill="none" stroke="black" stroke-width="3" d="M684.89,-239.62C689.14,-240.28 693.39,-240.87 697.5,-241.34 869.24,-260.95 1074.03,-263.64 1171.3,-263.67"/>
<polygon fill="black" stroke="black" stroke-width="3" points="1168.06,-267.17 1178.06,-263.66 1168.06,-260.17 1168.06,-267.17"/>
<text text-anchor="middle" x="933.5" y="-272.34" font-family="Times New Roman,serif" font-size="30.00"> &#160;&#160;511 &#160;&#160;50% &#160;&#160;0.0342 mol/s &#160;&#160;&#160;1.00E+00</text>
</g>
<!-- R284 -->
<g id="node8" class="node">
<title>R284</title>
<g id="a_node8"><a xlink:href="284.svg" xlink:title="R284">
<polygon fill="cornsilk" stroke="none" points="1276,-221.84 1182,-221.84 1182,-174.84 1276,-174.84 1276,-221.84"/>
<text text-anchor="middle" x="1229" y="-189.84" font-family="Times New Roman,serif" font-size="35.00">R284</text>
</a>
</g>
</g>
<!-- R170&#45;&gt;R284 -->
<g id="edge7" class="edge">
<title>R170&#45;&gt;R284</title>
<path fill="none" stroke="black" stroke-width="3" d="M684.88,-211.44C689.1,-210.2 693.34,-209.14 697.5,-208.34 867.37,-175.8 1073.44,-185.62 1171.23,-193.16"/>
<polygon fill="black" stroke="black" stroke-width="3" points="1167.8,-196.72 1178.04,-194.02 1168.35,-189.74 1167.8,-196.72"/>
<text text-anchor="middle" x="933.5" y="-217.34" font-family="Times New Roman,serif" font-size="30.00"> &#160;&#160;512 &#160;&#160;50% &#160;&#160;0.0342 mol/s &#160;&#160;&#160;1.00E+00</text>
</g>
<!-- R1 -->
<g id="node2" class="node">
<title>R1</title>
<g id="a_node2"><a xlink:href="1.svg" xlink:title="R1">
<polygon fill="cornsilk" stroke="none" points="76,-439.84 18,-439.84 18,-392.84 76,-392.84 76,-439.84"/>
<text text-anchor="middle" x="47" y="-407.84" font-family="Times New Roman,serif" font-size="35.00">R1</text>
</a>
</g>
</g>
<!-- R1&#45;&gt;R170 -->
<g id="edge1" class="edge">
<title>R1&#45;&gt;R170</title>
<path fill="none" stroke="black" d="M75.95,-424.62C161.69,-448.17 424.62,-506.52 582,-388.34 620.52,-359.42 632.21,-301.66 635.67,-264.57"/>
<polygon fill="black" stroke="black" points="639.23,-265.01 636.5,-254.77 632.25,-264.48 639.23,-265.01"/>
<text text-anchor="middle" x="342.5" y="-468.34" font-family="Times New Roman,serif" font-size="30.00"> &#160;&#160;222 &#160;&#160;0% &#160;&#160;0.0342 mol/s &#160;&#160;&#160;1.00E+00</text>
</g>
<!-- R89 -->
<g id="node3" class="node">
<title>R89</title>
<g id="a_node3"><a xlink:href="89.svg" xlink:title="R89">
<polygon fill="cornsilk" stroke="none" points="85,-374.84 9,-374.84 9,-327.84 85,-327.84 85,-374.84"/>
<text text-anchor="middle" x="47" y="-342.84" font-family="Times New Roman,serif" font-size="35.00">R89</text>
</a>
</g>
</g>
<!-- R89&#45;&gt;R170 -->
<g id="edge2" class="edge">
<title>R89&#45;&gt;R170</title>
<path fill="none" stroke="black" d="M84.97,-351.57C198.95,-351.98 539.84,-351.03 582,-325.34 604.38,-311.71 618.58,-285.31 626.94,-263.8"/>
<polygon fill="black" stroke="black" points="630.48,-265.3 630.58,-254.71 623.89,-262.92 630.48,-265.3"/>
<text text-anchor="middle" x="342.5" y="-360.34" font-family="Times New Roman,serif" font-size="30.00"> &#160;&#160;222 &#160;&#160;0% &#160;&#160;0.0342 mol/s &#160;&#160;&#160;1.00E+00</text>
</g>
<!-- R14 -->
<g id="node4" class="node">
<title>R14</title>
<g id="a_node4"><a xlink:href="14.svg" xlink:title="R14">
<polygon fill="cornsilk" stroke="none" points="85,-309.84 9,-309.84 9,-262.84 85,-262.84 85,-309.84"/>
<text text-anchor="middle" x="47" y="-277.84" font-family="Times New Roman,serif" font-size="35.00">R14</text>
</a>
</g>
</g>
<!-- R14&#45;&gt;R170 -->
<g id="edge3" class="edge">
<title>R14&#45;&gt;R170</title>
<path fill="none" stroke="black" d="M84.88,-287.24C189.9,-289.42 488.96,-292.86 582,-264.34 586.59,-262.94 591.18,-261.05 595.65,-258.88"/>
<polygon fill="black" stroke="black" points="597.02,-261.58 604.17,-253.77 593.71,-255.42 597.02,-261.58"/>
<text text-anchor="middle" x="342.5" y="-297.34" font-family="Times New Roman,serif" font-size="30.00"> &#160;&#160;378 &#160;&#160;0% &#160;&#160;0.0342 mol/s &#160;&#160;&#160;1.00E+00</text>
</g>
<!-- R26 -->
<g id="node5" class="node">
<title>R26</title>
<g id="a_node5"><a xlink:href="26.svg" xlink:title="R26">
<polygon fill="cornsilk" stroke="none" points="85,-244.84 9,-244.84 9,-197.84 85,-197.84 85,-244.84"/>
<text text-anchor="middle" x="47" y="-212.84" font-family="Times New Roman,serif" font-size="35.00">R26</text>
</a>
</g>
</g>
<!-- R26&#45;&gt;R170 -->
<g id="edge4" class="edge">
<title>R26&#45;&gt;R170</title>
<path fill="none" stroke="black" d="M84.84,-221.91C184.61,-223.43 460.52,-227.65 580.29,-229.48"/>
<polygon fill="black" stroke="black" points="579.99,-232.99 590.04,-229.64 580.1,-225.99 579.99,-232.99"/>
<text text-anchor="middle" x="342.5" y="-238.34" font-family="Times New Roman,serif" font-size="30.00"> &#160;&#160;378 &#160;&#160;0% &#160;&#160;0.0342 mol/s &#160;&#160;&#160;1.00E+00</text>
</g>
<!-- R65 -->
<g id="node6" class="node">
<title>R65</title>
<g id="a_node6"><a xlink:href="65.svg" xlink:title="R65">
<polygon fill="cornsilk" stroke="none" points="85,-165.84 9,-165.84 9,-118.84 85,-118.84 85,-165.84"/>
<text text-anchor="middle" x="47" y="-133.84" font-family="Times New Roman,serif" font-size="35.00">R65</text>
</a>
</g>
</g>
<!-- R65&#45;&gt;R170 -->
<g id="edge5" class="edge">
<title>R65&#45;&gt;R170</title>
<path fill="none" stroke="black" d="M84.89,-149.64C90.93,-150.67 97.12,-151.62 103,-152.34 208.87,-165.46 482.99,-144.61 582,-184.34 591.16,-188.02 599.93,-193.83 607.66,-200.11"/>
<polygon fill="black" stroke="black" points="604.77,-203.1 614.62,-207.02 609.36,-197.82 604.77,-203.1"/>
<text text-anchor="middle" x="342.5" y="-193.34" font-family="Times New Roman,serif" font-size="30.00"> &#160;&#160;451 &#160;&#160;0% &#160;&#160;0.00272 mol/s &#160;&#160;&#160;1.00E+00</text>
</g>
<!-- R65&#45;&gt;R170 -->
<g id="edge8" class="edge">
<title>R65&#45;&gt;R170</title>
<path fill="none" stroke="black" stroke-width="5" d="M84.72,-121.51C90.67,-118.96 96.89,-116.76 103,-115.34 154.84,-103.3 536.97,-86.97 582,-115.34 606.74,-130.94 620.6,-161.07 628.21,-186.59"/>
<polygon fill="black" stroke="black" stroke-width="5" points="618.96,-183.66 632.33,-200.92 635.93,-179.39 618.96,-183.66"/>
<text text-anchor="middle" x="342.5" y="-124.34" font-family="Times New Roman,serif" font-size="30.00"> &#160;&#160;690 &#160;&#160;99% &#160;&#160;26200.0 mol/s &#160;&#160;&#160;1.04E&#45;07</text>
</g>
<!-- R134 -->
<g id="node9" class="node">
<title>R134</title>
<g id="a_node9"><a xlink:href="134.svg" xlink:title="R134">
<polygon fill="cornsilk" stroke="none" points="94,-85.84 0,-85.84 0,-38.84 94,-38.84 94,-85.84"/>
<text text-anchor="middle" x="47" y="-53.84" font-family="Times New Roman,serif" font-size="35.00">R134</text>
</a>
</g>
</g>
<!-- R134&#45;&gt;R170 -->
<g id="edge9" class="edge">
<title>R134&#45;&gt;R170</title>
<path fill="none" stroke="black" d="M93.79,-46.12C193.41,-13.98 432.81,45.8 582,-62.34 624.07,-92.83 634.55,-156.46 636.82,-196.07"/>
<polygon fill="black" stroke="black" points="633.37,-196.2 637.28,-206.04 640.36,-195.91 633.37,-196.2"/>
<text text-anchor="middle" x="342.5" y="-71.34" font-family="Times New Roman,serif" font-size="30.00"> &#160;&#160;691 &#160;&#160;0% &#160;&#160;14.1 mol/s &#160;&#160;&#160;1.93E&#45;04</text>
</g>
</g>
</svg>
