<?xml version="1.0" encoding="UTF-8" standalone="no"?>
<!DOCTYPE svg PUBLIC "-//W3C//DTD SVG 1.1//EN"
 "http://www.w3.org/Graphics/SVG/1.1/DTD/svg11.dtd">
<!-- Generated by graphviz version 8.0.3 (20230416.2022)
 -->
<!-- Title: G Pages: 1 -->
<svg width="621pt" height="318pt"
 viewBox="0.00 0.00 699.00 357.61" xmlns="http://www.w3.org/2000/svg" xmlns:xlink="http://www.w3.org/1999/xlink">
<g id="graph0" class="graph" transform="scale(0.888889 0.888889) rotate(0) translate(4 353.61)">
<title>G</title>
<polygon fill="white" stroke="none" points="-4,4 -4,-353.61 695,-353.61 695,4 -4,4"/>
<text text-anchor="middle" x="345.5" y="-316.81" font-family="Arial" font-size="36.00" fill="blue">Reaction Path Analysis</text>
<!-- R171 -->
<g id="node1" class="node">
<title>R171</title>
<g id="a_node1"><a xlink:href="171.svg" xlink:title="R171">
<polygon fill="cornsilk" stroke="none" points="691,-164.11 597,-164.11 597,-117.11 691,-117.11 691,-164.11"/>
<text text-anchor="middle" x="644" y="-132.11" font-family="Times New Roman,serif" font-size="35.00">R171</text>
</a>
</g>
</g>
<!-- R1 -->
<g id="node2" class="node">
<title>R1</title>
<g id="a_node2"><a xlink:href="1.svg" xlink:title="R1">
<polygon fill="cornsilk" stroke="none" points="67,-262.11 9,-262.11 9,-215.11 67,-215.11 67,-262.11"/>
<text text-anchor="middle" x="38" y="-230.11" font-family="Times New Roman,serif" font-size="35.00">R1</text>
</a>
</g>
</g>
<!-- R1&#45;&gt;R171 -->
<g id="edge1" class="edge">
<title>R1&#45;&gt;R171</title>
<path fill="none" stroke="black" stroke-width="3" d="M66.75,-244.78C150.96,-261.99 408.77,-303.44 588,-210.61 603.99,-202.33 616.81,-187.09 626.04,-172.94"/>
<polygon fill="black" stroke="black" stroke-width="3" points="627.35,-177.24 629.59,-166.88 621.38,-173.58 627.35,-177.24"/>
<text text-anchor="middle" x="341" y="-277.61" font-family="Times New Roman,serif" font-size="30.00"> &#160;&#160;223 &#160;&#160;50% &#160;&#160;4.67e&#45;08 mol/s &#160;&#160;&#160;1.00E+00</text>
</g>
<!-- R89 -->
<g id="node3" class="node">
<title>R89</title>
<g id="a_node3"><a xlink:href="89.svg" xlink:title="R89">
<polygon fill="cornsilk" stroke="none" points="76,-197.11 0,-197.11 0,-150.11 76,-150.11 76,-197.11"/>
<text text-anchor="middle" x="38" y="-165.11" font-family="Times New Roman,serif" font-size="35.00">R89</text>
</a>
</g>
</g>
<!-- R89&#45;&gt;R171 -->
<g id="edge2" class="edge">
<title>R89&#45;&gt;R171</title>
<path fill="none" stroke="black" stroke-width="3" d="M75.78,-174.12C162.72,-174.92 387.87,-174.5 586.25,-151.62"/>
<polygon fill="black" stroke="black" stroke-width="3" points="583.65,-154.98 593.17,-150.33 582.83,-148.03 583.65,-154.98"/>
<text text-anchor="middle" x="341" y="-182.61" font-family="Times New Roman,serif" font-size="30.00"> &#160;&#160;223 &#160;&#160;50% &#160;&#160;4.67e&#45;08 mol/s &#160;&#160;&#160;1.00E+00</text>
</g>
<!-- R14 -->
<g id="node4" class="node">
<title>R14</title>
<g id="a_node4"><a xlink:href="14.svg" xlink:title="R14">
<polygon fill="cornsilk" stroke="none" points="76,-132.11 0,-132.11 0,-85.11 76,-85.11 76,-132.11"/>
<text text-anchor="middle" x="38" y="-100.11" font-family="Times New Roman,serif" font-size="35.00">R14</text>
</a>
</g>
</g>
<!-- R14&#45;&gt;R171 -->
<g id="edge3" class="edge">
<title>R14&#45;&gt;R171</title>
<path fill="none" stroke="black" stroke-width="3" d="M75.79,-104.76C163.26,-96.56 390.38,-80.89 586.65,-118.78"/>
<polygon fill="black" stroke="black" stroke-width="3" points="582.67,-122.36 593.16,-120.87 584.03,-115.49 582.67,-122.36"/>
<text text-anchor="middle" x="341" y="-127.61" font-family="Times New Roman,serif" font-size="30.00"> &#160;&#160;379 &#160;&#160;50% &#160;&#160;4.67e&#45;08 mol/s &#160;&#160;&#160;1.00E+00</text>
</g>
<!-- R26 -->
<g id="node5" class="node">
<title>R26</title>
<g id="a_node5"><a xlink:href="26.svg" xlink:title="R26">
<polygon fill="cornsilk" stroke="none" points="76,-67.11 0,-67.11 0,-20.11 76,-20.11 76,-67.11"/>
<text text-anchor="middle" x="38" y="-35.11" font-family="Times New Roman,serif" font-size="35.00">R26</text>
</a>
</g>
</g>
<!-- R26&#45;&gt;R171 -->
<g id="edge4" class="edge">
<title>R26&#45;&gt;R171</title>
<path fill="none" stroke="black" stroke-width="3" d="M75.69,-33.56C168.5,-10.31 417.38,38.24 588,-56.61 607.8,-67.61 621.67,-89.09 630.53,-107.57"/>
<polygon fill="black" stroke="black" stroke-width="3" points="626.66,-105.74 633.94,-113.44 633.05,-102.88 626.66,-105.74"/>
<text text-anchor="middle" x="341" y="-65.61" font-family="Times New Roman,serif" font-size="30.00"> &#160;&#160;379 &#160;&#160;50% &#160;&#160;4.67e&#45;08 mol/s &#160;&#160;&#160;1.00E+00</text>
</g>
</g>
</svg>
