<?xml version="1.0" encoding="UTF-8" standalone="no"?>
<!DOCTYPE svg PUBLIC "-//W3C//DTD SVG 1.1//EN"
 "http://www.w3.org/Graphics/SVG/1.1/DTD/svg11.dtd">
<!-- Generated by graphviz version 8.0.3 (20230416.2022)
 -->
<!-- Title: G Pages: 1 -->
<svg width="640pt" height="124pt"
 viewBox="0.00 0.00 720.00 139.85" xmlns="http://www.w3.org/2000/svg" xmlns:xlink="http://www.w3.org/1999/xlink">
<g id="graph0" class="graph" transform="scale(0.492308 0.492308) rotate(0) translate(4 248.5)">
<title>G</title>
<polygon fill="white" stroke="none" points="-4,4 -4,-248.5 1296,-248.5 1296,4 -4,4"/>
<text text-anchor="middle" x="646" y="-211.7" font-family="Arial" font-size="36.00" fill="blue">Reaction Path Analysis</text>
<!-- R177 -->
<g id="node1" class="node">
<title>R177</title>
<g id="a_node1"><a xlink:href="177.svg" xlink:title="R177">
<polygon fill="cornsilk" stroke="none" points="693,-112 599,-112 599,-65 693,-65 693,-112"/>
<text text-anchor="middle" x="646" y="-80" font-family="Times New Roman,serif" font-size="35.00">R177</text>
</a>
</g>
</g>
<!-- R15 -->
<g id="node2" class="node">
<title>R15</title>
<g id="a_node2"><a xlink:href="15.svg" xlink:title="R15">
<polygon fill="cornsilk" stroke="none" points="1283,-177 1207,-177 1207,-130 1283,-130 1283,-177"/>
<text text-anchor="middle" x="1245" y="-145" font-family="Times New Roman,serif" font-size="35.00">R15</text>
</a>
</g>
</g>
<!-- R177&#45;&gt;R15 -->
<g id="edge1" class="edge">
<title>R177&#45;&gt;R15</title>
<path fill="none" stroke="black" stroke-width="4" d="M681.93,-111.81C691.75,-117.27 702.71,-122.39 713.5,-125.5 879.77,-173.35 1087.24,-166.11 1186.23,-158.82"/>
<polygon fill="black" stroke="black" stroke-width="4" points="1181.66,-165.73 1201.04,-157.17 1180.55,-151.77 1181.66,-165.73"/>
<text text-anchor="middle" x="945.5" y="-172.5" font-family="Times New Roman,serif" font-size="30.00"> &#160;&#160;230 &#160;&#160;69% &#160;&#160;0.0759 mol/s &#160;&#160;&#160;2.37E&#45;01</text>
</g>
<!-- R2 -->
<g id="node3" class="node">
<title>R2</title>
<g id="a_node3"><a xlink:href="2.svg" xlink:title="R2">
<polygon fill="cornsilk" stroke="none" points="1274,-112 1216,-112 1216,-65 1274,-65 1274,-112"/>
<text text-anchor="middle" x="1245" y="-80" font-family="Times New Roman,serif" font-size="35.00">R2</text>
</a>
</g>
</g>
<!-- R177&#45;&gt;R2 -->
<g id="edge2" class="edge">
<title>R177&#45;&gt;R2</title>
<path fill="none" stroke="black" stroke-width="4" d="M692.85,-88.5C803.08,-88.5 1082.11,-88.5 1195.24,-88.5"/>
<polygon fill="black" stroke="black" stroke-width="4" points="1190.15,-95.5 1210.15,-88.5 1190.15,-81.5 1190.15,-95.5"/>
<text text-anchor="middle" x="945.5" y="-97.5" font-family="Times New Roman,serif" font-size="30.00"> &#160;&#160;230 &#160;&#160;69% &#160;&#160;0.0759 mol/s &#160;&#160;&#160;2.37E&#45;01</text>
</g>
<!-- R353 -->
<g id="node6" class="node">
<title>R353</title>
<g id="a_node6"><a xlink:href="353.svg" xlink:title="R353">
<polygon fill="cornsilk" stroke="none" points="1292,-47 1198,-47 1198,0 1292,0 1292,-47"/>
<text text-anchor="middle" x="1245" y="-15" font-family="Times New Roman,serif" font-size="35.00">R353</text>
</a>
</g>
</g>
<!-- R177&#45;&gt;R353 -->
<g id="edge5" class="edge">
<title>R177&#45;&gt;R353</title>
<path fill="none" stroke="black" stroke-width="2" d="M681.93,-65.19C691.75,-59.73 702.71,-54.61 713.5,-51.5 880.34,-3.48 1088.66,-10.94 1187.25,-18.25"/>
<polygon fill="black" stroke="black" stroke-width="2" points="1184.91,-21.82 1195.15,-19.1 1185.45,-14.84 1184.91,-21.82"/>
<text text-anchor="middle" x="945.5" y="-60.5" font-family="Times New Roman,serif" font-size="30.00"> &#160;&#160;592 &#160;&#160;30% &#160;&#160;0.0333 mol/s &#160;&#160;&#160;9.76E&#45;01</text>
</g>
<!-- R0 -->
<g id="node4" class="node">
<title>R0</title>
<g id="a_node4"><a xlink:href="0.svg" xlink:title="R0">
<polygon fill="cornsilk" stroke="none" points="76,-145 18,-145 18,-98 76,-98 76,-145"/>
<text text-anchor="middle" x="47" y="-113" font-family="Times New Roman,serif" font-size="35.00">R0</text>
</a>
</g>
</g>
<!-- R0&#45;&gt;R177 -->
<g id="edge3" class="edge">
<title>R0&#45;&gt;R177</title>
<path fill="none" stroke="black" stroke-width="6" d="M75.76,-121.9C153.15,-122.71 378.22,-122.91 578.34,-100.64"/>
<polygon fill="black" stroke="black" stroke-width="6" points="574.51,-110.96 593.17,-98.22 572.1,-90.09 574.51,-110.96"/>
<text text-anchor="middle" x="346.5" y="-130.5" font-family="Times New Roman,serif" font-size="30.00"> &#160;&#160;480 &#160;&#160;100% &#160;&#160;0.0342 mol/s &#160;&#160;&#160;1.00E+00</text>
</g>
<!-- R109 -->
<g id="node5" class="node">
<title>R109</title>
<g id="a_node5"><a xlink:href="109.svg" xlink:title="R109">
<polygon fill="cornsilk" stroke="none" points="94,-80 0,-80 0,-33 94,-33 94,-80"/>
<text text-anchor="middle" x="47" y="-48" font-family="Times New Roman,serif" font-size="35.00">R109</text>
</a>
</g>
</g>
<!-- R109&#45;&gt;R177 -->
<g id="edge4" class="edge">
<title>R109&#45;&gt;R177</title>
<path fill="none" stroke="black" stroke-width="6" d="M93.93,-51.83C184.75,-43.77 393.81,-30.95 578.76,-64.82"/>
<polygon fill="black" stroke="black" stroke-width="6" points="571.53,-74.27 593.16,-67.76 575.52,-53.66 571.53,-74.27"/>
<text text-anchor="middle" x="346.5" y="-75.5" font-family="Times New Roman,serif" font-size="30.00"> &#160;&#160;480 &#160;&#160;100% &#160;&#160;0.0342 mol/s &#160;&#160;&#160;1.00E+00</text>
</g>
</g>
</svg>
