<?xml version="1.0" encoding="UTF-8" standalone="no"?>
<!DOCTYPE svg PUBLIC "-//W3C//DTD SVG 1.1//EN"
 "http://www.w3.org/Graphics/SVG/1.1/DTD/svg11.dtd">
<!-- Generated by graphviz version 8.0.3 (20230416.2022)
 -->
<!-- Title: G Pages: 1 -->
<svg width="640pt" height="167pt"
 viewBox="0.00 0.00 720.00 188.35" xmlns="http://www.w3.org/2000/svg" xmlns:xlink="http://www.w3.org/1999/xlink">
<g id="graph0" class="graph" transform="scale(0.47619 0.47619) rotate(0) translate(4 347.59)">
<title>G</title>
<polygon fill="white" stroke="none" points="-4,4 -4,-347.59 1340,-347.59 1340,4 -4,4"/>
<text text-anchor="middle" x="668" y="-310.79" font-family="Arial" font-size="36.00" fill="blue">Reaction Path Analysis</text>
<!-- R177 -->
<g id="node1" class="node">
<title>R177</title>
<g id="a_node1"><a xlink:href="177.svg" xlink:title="R177">
<polygon fill="cornsilk" stroke="none" points="715,-160.09 621,-160.09 621,-113.09 715,-113.09 715,-160.09"/>
<text text-anchor="middle" x="668" y="-128.09" font-family="Times New Roman,serif" font-size="35.00">R177</text>
</a>
</g>
</g>
<!-- R353 -->
<g id="node6" class="node">
<title>R353</title>
<g id="a_node6"><a xlink:href="353.svg" xlink:title="R353">
<polygon fill="cornsilk" stroke="none" points="1336,-160.09 1242,-160.09 1242,-113.09 1336,-113.09 1336,-160.09"/>
<text text-anchor="middle" x="1289" y="-128.09" font-family="Times New Roman,serif" font-size="35.00">R353</text>
</a>
</g>
</g>
<!-- R177&#45;&gt;R353 -->
<g id="edge5" class="edge">
<title>R177&#45;&gt;R353</title>
<path fill="none" stroke="black" stroke-width="6" d="M714.77,-136.59C822.93,-136.59 1094.71,-136.59 1221.25,-136.59"/>
<polygon fill="black" stroke="black" stroke-width="6" points="1216.05,-147.09 1236.05,-136.59 1216.05,-126.09 1216.05,-147.09"/>
<text text-anchor="middle" x="978.5" y="-145.59" font-family="Times New Roman,serif" font-size="30.00"> &#160;&#160;592 &#160;&#160;100% &#160;&#160;4.67e&#45;08 mol/s &#160;&#160;&#160;1.00E+00</text>
</g>
<!-- R15 -->
<g id="node2" class="node">
<title>R15</title>
<g id="a_node2"><a xlink:href="15.svg" xlink:title="R15">
<polygon fill="cornsilk" stroke="none" points="85,-258.09 9,-258.09 9,-211.09 85,-211.09 85,-258.09"/>
<text text-anchor="middle" x="47" y="-226.09" font-family="Times New Roman,serif" font-size="35.00">R15</text>
</a>
</g>
</g>
<!-- R15&#45;&gt;R177 -->
<g id="edge1" class="edge">
<title>R15&#45;&gt;R177</title>
<path fill="none" stroke="black" stroke-width="3" d="M84.84,-242.01C177.58,-258.8 426.03,-291.94 604.5,-206.59 621.78,-198.33 636.38,-182.88 647.1,-168.6"/>
<polygon fill="black" stroke="black" stroke-width="3" points="648.33,-173.11 651.27,-162.93 642.62,-169.05 648.33,-173.11"/>
<text text-anchor="middle" x="357.5" y="-271.59" font-family="Times New Roman,serif" font-size="30.00"> &#160;&#160;230 &#160;&#160;50% &#160;&#160;4.67e&#45;08 mol/s &#160;&#160;&#160;1.00E+00</text>
</g>
<!-- R2 -->
<g id="node3" class="node">
<title>R2</title>
<g id="a_node3"><a xlink:href="2.svg" xlink:title="R2">
<polygon fill="cornsilk" stroke="none" points="76,-193.09 18,-193.09 18,-146.09 76,-146.09 76,-193.09"/>
<text text-anchor="middle" x="47" y="-161.09" font-family="Times New Roman,serif" font-size="35.00">R2</text>
</a>
</g>
</g>
<!-- R2&#45;&gt;R177 -->
<g id="edge2" class="edge">
<title>R2&#45;&gt;R177</title>
<path fill="none" stroke="black" stroke-width="3" d="M75.89,-169.81C157.47,-170.18 402.61,-169.25 604.5,-147.59 606.43,-147.38 608.39,-147.15 610.36,-146.9"/>
<polygon fill="black" stroke="black" stroke-width="3" points="607.61,-150.26 617.02,-145.41 606.63,-143.33 607.61,-150.26"/>
<text text-anchor="middle" x="357.5" y="-178.59" font-family="Times New Roman,serif" font-size="30.00"> &#160;&#160;230 &#160;&#160;50% &#160;&#160;4.67e&#45;08 mol/s &#160;&#160;&#160;1.00E+00</text>
</g>
<!-- R0 -->
<g id="node4" class="node">
<title>R0</title>
<g id="a_node4"><a xlink:href="0.svg" xlink:title="R0">
<polygon fill="cornsilk" stroke="none" points="76,-128.09 18,-128.09 18,-81.09 76,-81.09 76,-128.09"/>
<text text-anchor="middle" x="47" y="-96.09" font-family="Times New Roman,serif" font-size="35.00">R0</text>
</a>
</g>
</g>
<!-- R0&#45;&gt;R177 -->
<g id="edge3" class="edge">
<title>R0&#45;&gt;R177</title>
<path fill="none" stroke="black" stroke-width="3" d="M75.81,-101.98C157.67,-94.97 404.55,-78.58 604.5,-114.59 606.45,-114.94 608.43,-115.35 610.41,-115.8"/>
<polygon fill="black" stroke="black" stroke-width="3" points="606.47,-118.43 617.03,-117.56 608.23,-111.65 606.47,-118.43"/>
<text text-anchor="middle" x="357.5" y="-123.59" font-family="Times New Roman,serif" font-size="30.00"> &#160;&#160;480 &#160;&#160;50% &#160;&#160;4.67e&#45;08 mol/s &#160;&#160;&#160;1.00E+00</text>
</g>
<!-- R109 -->
<g id="node5" class="node">
<title>R109</title>
<g id="a_node5"><a xlink:href="109.svg" xlink:title="R109">
<polygon fill="cornsilk" stroke="none" points="94,-63.09 0,-63.09 0,-16.09 94,-16.09 94,-63.09"/>
<text text-anchor="middle" x="47" y="-31.09" font-family="Times New Roman,serif" font-size="35.00">R109</text>
</a>
</g>
</g>
<!-- R109&#45;&gt;R177 -->
<g id="edge4" class="edge">
<title>R109&#45;&gt;R177</title>
<path fill="none" stroke="black" stroke-width="3" d="M93.77,-28.29C193.2,-6.29 433.74,32.85 604.5,-54.59 624.93,-65.05 640.58,-85.61 651.11,-103.53"/>
<polygon fill="black" stroke="black" stroke-width="3" points="646.52,-103.08 654.43,-110.13 652.64,-99.68 646.52,-103.08"/>
<text text-anchor="middle" x="357.5" y="-63.59" font-family="Times New Roman,serif" font-size="30.00"> &#160;&#160;480 &#160;&#160;50% &#160;&#160;4.67e&#45;08 mol/s &#160;&#160;&#160;1.00E+00</text>
</g>
</g>
</svg>
