<?xml version="1.0" encoding="UTF-8" standalone="no"?>
<!DOCTYPE svg PUBLIC "-//W3C//DTD SVG 1.1//EN"
 "http://www.w3.org/Graphics/SVG/1.1/DTD/svg11.dtd">
<!-- Generated by graphviz version 8.0.3 (20230416.2022)
 -->
<!-- Title: G Pages: 1 -->
<svg width="640pt" height="283pt"
 viewBox="0.00 0.00 720.00 318.70" xmlns="http://www.w3.org/2000/svg" xmlns:xlink="http://www.w3.org/1999/xlink">
<g id="graph0" class="graph" transform="scale(0.503937 0.503937) rotate(0) translate(4 558.15)">
<title>G</title>
<polygon fill="white" stroke="none" points="-4,4 -4,-558.15 1266,-558.15 1266,4 -4,4"/>
<text text-anchor="middle" x="631" y="-521.35" font-family="Arial" font-size="36.00" fill="blue">Reaction Path Analysis</text>
<!-- R18 -->
<g id="node1" class="node">
<title>R18</title>
<g id="a_node1"><a xlink:href="18.svg" xlink:title="R18">
<polygon fill="cornsilk" stroke="none" points="669,-255.65 593,-255.65 593,-208.65 669,-208.65 669,-255.65"/>
<text text-anchor="middle" x="631" y="-223.65" font-family="Times New Roman,serif" font-size="35.00">R18</text>
</a>
</g>
</g>
<!-- R32 -->
<g id="node4" class="node">
<title>R32</title>
<g id="a_node4"><a xlink:href="32.svg" xlink:title="R32">
<polygon fill="cornsilk" stroke="none" points="1253,-482.65 1177,-482.65 1177,-435.65 1253,-435.65 1253,-482.65"/>
<text text-anchor="middle" x="1215" y="-450.65" font-family="Times New Roman,serif" font-size="35.00">R32</text>
</a>
</g>
</g>
<!-- R18&#45;&gt;R32 -->
<g id="edge3" class="edge">
<title>R18&#45;&gt;R32</title>
<path fill="none" stroke="black" d="M635.01,-255.58C641.68,-303.47 659.35,-409.93 687,-432.15 759.82,-490.65 1051.02,-473.08 1166.49,-463.51"/>
<polygon fill="black" stroke="black" points="1166.43,-466.95 1176.1,-462.61 1165.84,-459.97 1166.43,-466.95"/>
<text text-anchor="middle" x="923" y="-482.15" font-family="Times New Roman,serif" font-size="30.00"> &#160;&#160;105 &#160;&#160;0% &#160;&#160;0.0342 mol/s &#160;&#160;&#160;1.00E+00</text>
</g>
<!-- R47 -->
<g id="node5" class="node">
<title>R47</title>
<g id="a_node5"><a xlink:href="47.svg" xlink:title="R47">
<polygon fill="cornsilk" stroke="none" points="1253,-417.65 1177,-417.65 1177,-370.65 1253,-370.65 1253,-417.65"/>
<text text-anchor="middle" x="1215" y="-385.65" font-family="Times New Roman,serif" font-size="35.00">R47</text>
</a>
</g>
</g>
<!-- R18&#45;&gt;R47 -->
<g id="edge4" class="edge">
<title>R18&#45;&gt;R47</title>
<path fill="none" stroke="black" d="M633.73,-255.53C637.48,-287.62 649.37,-344.35 687,-371.15 725.48,-398.55 1044.21,-396.72 1166.49,-394.98"/>
<polygon fill="black" stroke="black" points="1166.41,-398.47 1176.35,-394.82 1166.3,-391.47 1166.41,-398.47"/>
<text text-anchor="middle" x="923" y="-404.15" font-family="Times New Roman,serif" font-size="30.00"> &#160;&#160;157 &#160;&#160;0% &#160;&#160;0.0342 mol/s &#160;&#160;&#160;9.99E&#45;01</text>
</g>
<!-- R112 -->
<g id="node6" class="node">
<title>R112</title>
<g id="a_node6"><a xlink:href="112.svg" xlink:title="R112">
<polygon fill="cornsilk" stroke="none" points="1262,-352.65 1168,-352.65 1168,-305.65 1262,-305.65 1262,-352.65"/>
<text text-anchor="middle" x="1215" y="-320.65" font-family="Times New Roman,serif" font-size="35.00">R112</text>
</a>
</g>
</g>
<!-- R18&#45;&gt;R112 -->
<g id="edge5" class="edge">
<title>R18&#45;&gt;R112</title>
<path fill="none" stroke="black" d="M643.99,-255.42C653.4,-271.04 668.08,-290.47 687,-300.15 767.79,-341.47 1039.03,-336.21 1157.66,-331.71"/>
<polygon fill="black" stroke="black" points="1157.46,-335.18 1167.31,-331.3 1157.18,-328.19 1157.46,-335.18"/>
<text text-anchor="middle" x="923" y="-343.15" font-family="Times New Roman,serif" font-size="30.00"> &#160;&#160;158 &#160;&#160;0% &#160;&#160;0.0342 mol/s &#160;&#160;&#160;1.00E+00</text>
</g>
<!-- R63 -->
<g id="node7" class="node">
<title>R63</title>
<g id="a_node7"><a xlink:href="63.svg" xlink:title="R63">
<polygon fill="cornsilk" stroke="none" points="1253,-287.65 1177,-287.65 1177,-240.65 1253,-240.65 1253,-287.65"/>
<text text-anchor="middle" x="1215" y="-255.65" font-family="Times New Roman,serif" font-size="35.00">R63</text>
</a>
</g>
</g>
<!-- R18&#45;&gt;R63 -->
<g id="edge6" class="edge">
<title>R18&#45;&gt;R63</title>
<path fill="none" stroke="black" d="M668.9,-238.8C674.93,-239.71 681.13,-240.54 687,-241.15 862.99,-259.32 1073.49,-263.16 1166.18,-263.96"/>
<polygon fill="black" stroke="black" points="1166.13,-267.46 1176.15,-264.04 1166.18,-260.46 1166.13,-267.46"/>
<text text-anchor="middle" x="923" y="-272.15" font-family="Times New Roman,serif" font-size="30.00"> &#160;&#160;234 &#160;&#160;0% &#160;&#160;0.0342 mol/s &#160;&#160;&#160;1.00E+00</text>
</g>
<!-- R180 -->
<g id="node8" class="node">
<title>R180</title>
<g id="a_node8"><a xlink:href="180.svg" xlink:title="R180">
<polygon fill="cornsilk" stroke="none" points="1262,-222.65 1168,-222.65 1168,-175.65 1262,-175.65 1262,-222.65"/>
<text text-anchor="middle" x="1215" y="-190.65" font-family="Times New Roman,serif" font-size="35.00">R180</text>
</a>
</g>
</g>
<!-- R18&#45;&gt;R180 -->
<g id="edge7" class="edge">
<title>R18&#45;&gt;R180</title>
<path fill="none" stroke="black" d="M668.98,-210.46C674.84,-207.87 680.96,-205.63 687,-204.15 774.6,-182.69 1039.81,-191.32 1157.13,-196.42"/>
<polygon fill="black" stroke="black" points="1156.86,-199.95 1167.01,-196.9 1157.17,-192.96 1156.86,-199.95"/>
<text text-anchor="middle" x="923" y="-213.15" font-family="Times New Roman,serif" font-size="30.00"> &#160;&#160;235 &#160;&#160;0% &#160;&#160;0.0342 mol/s &#160;&#160;&#160;9.99E&#45;01</text>
</g>
<!-- R244 -->
<g id="node10" class="node">
<title>R244</title>
<g id="a_node10"><a xlink:href="244.svg" xlink:title="R244">
<polygon fill="cornsilk" stroke="none" points="1262,-157.65 1168,-157.65 1168,-110.65 1262,-110.65 1262,-157.65"/>
<text text-anchor="middle" x="1215" y="-125.65" font-family="Times New Roman,serif" font-size="35.00">R244</text>
</a>
</g>
</g>
<!-- R18&#45;&gt;R244 -->
<g id="edge9" class="edge">
<title>R18&#45;&gt;R244</title>
<path fill="none" stroke="black" d="M641.16,-208.9C649.89,-190.21 664.99,-165.15 687,-153.15 727.42,-131.1 1029.65,-131.97 1157.33,-133.35"/>
<polygon fill="black" stroke="black" points="1157,-136.86 1167.04,-133.48 1157.08,-129.86 1157,-136.86"/>
<text text-anchor="middle" x="923" y="-162.15" font-family="Times New Roman,serif" font-size="30.00"> &#160;&#160;329 &#160;&#160;0% &#160;&#160;0.0342 mol/s &#160;&#160;&#160;1.00E+00</text>
</g>
<!-- R89 -->
<g id="node11" class="node">
<title>R89</title>
<g id="a_node11"><a xlink:href="89.svg" xlink:title="R89">
<polygon fill="cornsilk" stroke="none" points="1253,-78.65 1177,-78.65 1177,-31.65 1253,-31.65 1253,-78.65"/>
<text text-anchor="middle" x="1215" y="-46.65" font-family="Times New Roman,serif" font-size="35.00">R89</text>
</a>
</g>
</g>
<!-- R18&#45;&gt;R89 -->
<g id="edge10" class="edge">
<title>R18&#45;&gt;R89</title>
<path fill="none" stroke="black" d="M634,-208.78C638.08,-177.34 650.33,-122.37 687,-96.15 729.72,-65.6 1107.15,-78.55 1159,-70.15 1161.51,-69.74 1164.08,-69.26 1166.66,-68.73"/>
<polygon fill="black" stroke="black" points="1167.28,-71.95 1176.25,-66.32 1165.73,-65.13 1167.28,-71.95"/>
<text text-anchor="middle" x="923" y="-105.15" font-family="Times New Roman,serif" font-size="30.00"> &#160;&#160;422 &#160;&#160;0% &#160;&#160;0.00272 mol/s &#160;&#160;&#160;1.00E+00</text>
</g>
<!-- R18&#45;&gt;R89 -->
<g id="edge11" class="edge">
<title>R18&#45;&gt;R89</title>
<path fill="none" stroke="black" stroke-width="5" d="M634.94,-208.72C641.48,-160.85 658.91,-54.53 687,-33.15 766.06,27.03 1026.45,-9 1156.54,-34.08"/>
<polygon fill="black" stroke="black" stroke-width="5" points="1149.68,-41.83 1171,-37.15 1153.09,-24.67 1149.68,-41.83"/>
<text text-anchor="middle" x="923" y="-42.15" font-family="Times New Roman,serif" font-size="30.00"> &#160;&#160;476 &#160;&#160;96% &#160;&#160;6.54 mol/s &#160;&#160;&#160;4.15E&#45;04</text>
</g>
<!-- R5 -->
<g id="node2" class="node">
<title>R5</title>
<g id="a_node2"><a xlink:href="5.svg" xlink:title="R5">
<polygon fill="cornsilk" stroke="none" points="76,-320.65 18,-320.65 18,-273.65 76,-273.65 76,-320.65"/>
<text text-anchor="middle" x="47" y="-288.65" font-family="Times New Roman,serif" font-size="35.00">R5</text>
</a>
</g>
</g>
<!-- R5&#45;&gt;R18 -->
<g id="edge1" class="edge">
<title>R5&#45;&gt;R18</title>
<path fill="none" stroke="black" d="M75.87,-299.73C154,-306.12 381.14,-318.73 560,-269.15 567.83,-266.98 575.77,-263.84 583.36,-260.29"/>
<polygon fill="black" stroke="black" points="584.71,-263.03 592.1,-255.44 581.59,-256.77 584.71,-263.03"/>
<text text-anchor="middle" x="339" y="-314.15" font-family="Times New Roman,serif" font-size="30.00"> &#160;&#160;21 &#160;&#160;0% &#160;&#160;0.0342 mol/s &#160;&#160;&#160;1.00E+00</text>
</g>
<!-- R1 -->
<g id="node3" class="node">
<title>R1</title>
<g id="a_node3"><a xlink:href="1.svg" xlink:title="R1">
<polygon fill="cornsilk" stroke="none" points="76,-255.65 18,-255.65 18,-208.65 76,-208.65 76,-255.65"/>
<text text-anchor="middle" x="47" y="-223.65" font-family="Times New Roman,serif" font-size="35.00">R1</text>
</a>
</g>
</g>
<!-- R1&#45;&gt;R18 -->
<g id="edge2" class="edge">
<title>R1&#45;&gt;R18</title>
<path fill="none" stroke="black" d="M75.68,-232.15C167.92,-232.15 465.6,-232.15 582.37,-232.15"/>
<polygon fill="black" stroke="black" points="582.09,-235.65 592.09,-232.15 582.09,-228.65 582.09,-235.65"/>
<text text-anchor="middle" x="339" y="-241.15" font-family="Times New Roman,serif" font-size="30.00"> &#160;&#160;21 &#160;&#160;0% &#160;&#160;0.0342 mol/s &#160;&#160;&#160;1.00E+00</text>
</g>
<!-- R235 -->
<g id="node9" class="node">
<title>R235</title>
<g id="a_node9"><a xlink:href="235.svg" xlink:title="R235">
<polygon fill="cornsilk" stroke="none" points="94,-190.65 0,-190.65 0,-143.65 94,-143.65 94,-190.65"/>
<text text-anchor="middle" x="47" y="-158.65" font-family="Times New Roman,serif" font-size="35.00">R235</text>
</a>
</g>
</g>
<!-- R235&#45;&gt;R18 -->
<g id="edge8" class="edge">
<title>R235&#45;&gt;R18</title>
<path fill="none" stroke="black" stroke-width="5" d="M93.91,-163.19C184.82,-156.74 393.36,-148.95 560,-195.15 564.75,-196.46 569.54,-198.14 574.27,-200.04"/>
<polygon fill="black" stroke="black" stroke-width="5" points="566.27,-206.3 588.1,-206.85 573.69,-190.45 566.27,-206.3"/>
<text text-anchor="middle" x="339" y="-204.15" font-family="Times New Roman,serif" font-size="30.00"> &#160;&#160;328 &#160;&#160;99% &#160;&#160;4.58 mol/s &#160;&#160;&#160;7.36E&#45;03</text>
</g>
</g>
</svg>
