<?xml version="1.0" encoding="UTF-8" standalone="no"?>
<!DOCTYPE svg PUBLIC "-//W3C//DTD SVG 1.1//EN"
 "http://www.w3.org/Graphics/SVG/1.1/DTD/svg11.dtd">
<!-- Generated by graphviz version 8.0.3 (20230416.2022)
 -->
<!-- Title: G Pages: 1 -->
<svg width="640pt" height="43pt"
 viewBox="0.00 0.00 720.00 47.84" xmlns="http://www.w3.org/2000/svg" xmlns:xlink="http://www.w3.org/1999/xlink">
<g id="graph0" class="graph" transform="scale(0.378027 0.378027) rotate(0) translate(4 108.5)">
<title>G</title>
<polygon fill="white" stroke="none" points="-4,4 -4,-108.5 1689,-108.5 1689,4 -4,4"/>
<text text-anchor="middle" x="842.5" y="-71.7" font-family="Arial" font-size="36.00" fill="blue">Reaction Path Analysis</text>
<!-- CH2CHOH(S) -->
<g id="node1" class="node">
<title>CH2CHOH(S)</title>
<g id="a_node1"><a xlink:href="18.svg" xlink:title="CH2CHOH(S)">
<polygon fill="dodgerblue" stroke="none" points="965,-47 741,-47 741,0 965,0 965,-47"/>
<text text-anchor="middle" x="853" y="-15" font-family="Times New Roman,serif" font-size="35.00">CH2CHOH(S)</text>
</a>
</g>
</g>
<!-- CH2COH(S) -->
<g id="node3" class="node">
<title>CH2COH(S)</title>
<g id="a_node3"><a xlink:href="19.svg" xlink:title="CH2COH(S)">
<polygon fill="springgreen" stroke="none" points="1685,-47 1485,-47 1485,0 1685,0 1685,-47"/>
<text text-anchor="middle" x="1585" y="-15" font-family="Times New Roman,serif" font-size="35.00">CH2COH(S)</text>
</a>
</g>
</g>
<!-- CH2CHOH(S)&#45;&gt;CH2COH(S) -->
<g id="edge2" class="edge">
<title>CH2CHOH(S)&#45;&gt;CH2COH(S)</title>
<path fill="none" stroke="green" stroke-width="4" d="M964.87,-23.5C1099.65,-23.5 1326.19,-23.5 1464.68,-23.5"/>
<polygon fill="green" stroke="green" stroke-width="4" points="1459.28,-30.5 1479.28,-23.5 1459.28,-16.5 1459.28,-30.5"/>
<text text-anchor="middle" x="1219" y="-32.5" font-family="Times New Roman,serif" font-size="30.00"> &#160;&#160;18 &#160;&#160;77% &#160;&#160;2.1e&#45;09 mol/s &#160;&#160;&#160;5.20E&#45;01</text>
</g>
<!-- CH2CH2OH(S) -->
<g id="node2" class="node">
<title>CH2CH2OH(S)</title>
<g id="a_node2"><a xlink:href="17.svg" xlink:title="CH2CH2OH(S)">
<polygon fill="purple" stroke="none" points="242,-47 0,-47 0,0 242,0 242,-47"/>
<text text-anchor="middle" x="121" y="-15" font-family="Times New Roman,serif" font-size="35.00">CH2CH2OH(S)</text>
</a>
</g>
</g>
<!-- CH2CH2OH(S)&#45;&gt;CH2CHOH(S) -->
<g id="edge1" class="edge">
<title>CH2CH2OH(S)&#45;&gt;CH2CHOH(S)</title>
<path fill="none" stroke="black" stroke-width="5" d="M241.73,-23.5C373.37,-23.5 584.22,-23.5 720.41,-23.5"/>
<polygon fill="black" stroke="black" stroke-width="5" points="715.18,-32.25 735.18,-23.5 715.18,-14.75 715.18,-32.25"/>
<text text-anchor="middle" x="487" y="-32.5" font-family="Times New Roman,serif" font-size="30.00"> &#160;&#160;17 &#160;&#160;98% &#160;&#160;2.55e&#45;09 mol/s &#160;&#160;&#160;7.68E&#45;01</text>
</g>
</g>
</svg>
