<?xml version="1.0" encoding="UTF-8" standalone="no"?>
<!DOCTYPE svg PUBLIC "-//W3C//DTD SVG 1.1//EN"
 "http://www.w3.org/Graphics/SVG/1.1/DTD/svg11.dtd">
<!-- Generated by graphviz version 8.0.3 (20230416.2022)
 -->
<!-- Title: G Pages: 1 -->
<svg width="640pt" height="124pt"
 viewBox="0.00 0.00 720.00 139.29" xmlns="http://www.w3.org/2000/svg" xmlns:xlink="http://www.w3.org/1999/xlink">
<g id="graph0" class="graph" transform="scale(0.492308 0.492308) rotate(0) translate(4 247.5)">
<title>G</title>
<polygon fill="white" stroke="none" points="-4,4 -4,-247.5 1296,-247.5 1296,4 -4,4"/>
<text text-anchor="middle" x="646" y="-210.7" font-family="Arial" font-size="36.00" fill="blue">Reaction Path Analysis</text>
<!-- R182 -->
<g id="node1" class="node">
<title>R182</title>
<g id="a_node1"><a xlink:href="182.svg" xlink:title="R182">
<polygon fill="cornsilk" stroke="none" points="693,-112 599,-112 599,-65 693,-65 693,-112"/>
<text text-anchor="middle" x="646" y="-80" font-family="Times New Roman,serif" font-size="35.00">R182</text>
</a>
</g>
</g>
<!-- R26 -->
<g id="node2" class="node">
<title>R26</title>
<g id="a_node2"><a xlink:href="26.svg" xlink:title="R26">
<polygon fill="cornsilk" stroke="none" points="1283,-177 1207,-177 1207,-130 1283,-130 1283,-177"/>
<text text-anchor="middle" x="1245" y="-145" font-family="Times New Roman,serif" font-size="35.00">R26</text>
</a>
</g>
</g>
<!-- R182&#45;&gt;R26 -->
<g id="edge1" class="edge">
<title>R182&#45;&gt;R26</title>
<path fill="none" stroke="black" stroke-width="5" d="M684.26,-112C694.51,-117.38 705.87,-122.42 717,-125.5 882.47,-171.23 1088.03,-165.02 1186.35,-158.4"/>
<polygon fill="black" stroke="black" stroke-width="5" points="1181.72,-167.08 1201.03,-156.9 1180.45,-149.62 1181.72,-167.08"/>
<text text-anchor="middle" x="945.5" y="-171.5" font-family="Times New Roman,serif" font-size="30.00"> &#160;&#160;240 &#160;&#160;99% &#160;&#160;11.1 mol/s &#160;&#160;&#160;3.06E&#45;03</text>
</g>
<!-- R2 -->
<g id="node3" class="node">
<title>R2</title>
<g id="a_node3"><a xlink:href="2.svg" xlink:title="R2">
<polygon fill="cornsilk" stroke="none" points="1274,-112 1216,-112 1216,-65 1274,-65 1274,-112"/>
<text text-anchor="middle" x="1245" y="-80" font-family="Times New Roman,serif" font-size="35.00">R2</text>
</a>
</g>
</g>
<!-- R182&#45;&gt;R2 -->
<g id="edge2" class="edge">
<title>R182&#45;&gt;R2</title>
<path fill="none" stroke="black" stroke-width="5" d="M692.85,-88.5C803.08,-88.5 1082.11,-88.5 1195.24,-88.5"/>
<polygon fill="black" stroke="black" stroke-width="5" points="1190.15,-97.25 1210.15,-88.5 1190.15,-79.75 1190.15,-97.25"/>
<text text-anchor="middle" x="945.5" y="-97.5" font-family="Times New Roman,serif" font-size="30.00"> &#160;&#160;240 &#160;&#160;99% &#160;&#160;11.1 mol/s &#160;&#160;&#160;3.06E&#45;03</text>
</g>
<!-- R355 -->
<g id="node6" class="node">
<title>R355</title>
<g id="a_node6"><a xlink:href="355.svg" xlink:title="R355">
<polygon fill="cornsilk" stroke="none" points="1292,-47 1198,-47 1198,0 1292,0 1292,-47"/>
<text text-anchor="middle" x="1245" y="-15" font-family="Times New Roman,serif" font-size="35.00">R355</text>
</a>
</g>
</g>
<!-- R182&#45;&gt;R355 -->
<g id="edge5" class="edge">
<title>R182&#45;&gt;R355</title>
<path fill="none" stroke="black" d="M684.26,-65C694.51,-59.62 705.87,-54.58 717,-51.5 883.03,-5.61 1089.42,-12.02 1187.35,-18.66"/>
<polygon fill="black" stroke="black" points="1186.96,-22.22 1197.18,-19.43 1187.46,-15.23 1186.96,-22.22"/>
<text text-anchor="middle" x="945.5" y="-60.5" font-family="Times New Roman,serif" font-size="30.00"> &#160;&#160;594 &#160;&#160;0% &#160;&#160;0.0342 mol/s &#160;&#160;&#160;1.00E+00</text>
</g>
<!-- R0 -->
<g id="node4" class="node">
<title>R0</title>
<g id="a_node4"><a xlink:href="0.svg" xlink:title="R0">
<polygon fill="cornsilk" stroke="none" points="76,-145 18,-145 18,-98 76,-98 76,-145"/>
<text text-anchor="middle" x="47" y="-113" font-family="Times New Roman,serif" font-size="35.00">R0</text>
</a>
</g>
</g>
<!-- R0&#45;&gt;R182 -->
<g id="edge3" class="edge">
<title>R0&#45;&gt;R182</title>
<path fill="none" stroke="black" stroke-width="6" d="M75.76,-121.9C153.15,-122.71 378.22,-122.91 578.34,-100.64"/>
<polygon fill="black" stroke="black" stroke-width="6" points="574.51,-110.96 593.17,-98.22 572.1,-90.09 574.51,-110.96"/>
<text text-anchor="middle" x="346.5" y="-130.5" font-family="Times New Roman,serif" font-size="30.00"> &#160;&#160;486 &#160;&#160;100% &#160;&#160;0.0342 mol/s &#160;&#160;&#160;1.00E+00</text>
</g>
<!-- R119 -->
<g id="node5" class="node">
<title>R119</title>
<g id="a_node5"><a xlink:href="119.svg" xlink:title="R119">
<polygon fill="cornsilk" stroke="none" points="94,-80 0,-80 0,-33 94,-33 94,-80"/>
<text text-anchor="middle" x="47" y="-48" font-family="Times New Roman,serif" font-size="35.00">R119</text>
</a>
</g>
</g>
<!-- R119&#45;&gt;R182 -->
<g id="edge4" class="edge">
<title>R119&#45;&gt;R182</title>
<path fill="none" stroke="black" stroke-width="6" d="M93.93,-51.83C184.75,-43.77 393.81,-30.95 578.76,-64.82"/>
<polygon fill="black" stroke="black" stroke-width="6" points="571.53,-74.27 593.16,-67.76 575.52,-53.66 571.53,-74.27"/>
<text text-anchor="middle" x="346.5" y="-75.5" font-family="Times New Roman,serif" font-size="30.00"> &#160;&#160;486 &#160;&#160;100% &#160;&#160;0.0342 mol/s &#160;&#160;&#160;1.00E+00</text>
</g>
</g>
</svg>
