<?xml version="1.0" encoding="UTF-8" standalone="no"?>
<!DOCTYPE svg PUBLIC "-//W3C//DTD SVG 1.1//EN"
 "http://www.w3.org/Graphics/SVG/1.1/DTD/svg11.dtd">
<!-- Generated by graphviz version 8.0.3 (20230416.2022)
 -->
<!-- Title: G Pages: 1 -->
<svg width="640pt" height="171pt"
 viewBox="0.00 0.00 720.00 192.04" xmlns="http://www.w3.org/2000/svg" xmlns:xlink="http://www.w3.org/1999/xlink">
<g id="graph0" class="graph" transform="scale(0.492308 0.492308) rotate(0) translate(4 342.74)">
<title>G</title>
<polygon fill="white" stroke="none" points="-4,4 -4,-342.74 1296,-342.74 1296,4 -4,4"/>
<text text-anchor="middle" x="646" y="-305.94" font-family="Arial" font-size="36.00" fill="blue">Reaction Path Analysis</text>
<!-- R183 -->
<g id="node1" class="node">
<title>R183</title>
<g id="a_node1"><a xlink:href="183.svg" xlink:title="R183">
<polygon fill="cornsilk" stroke="none" points="693,-157.24 599,-157.24 599,-110.24 693,-110.24 693,-157.24"/>
<text text-anchor="middle" x="646" y="-125.24" font-family="Times New Roman,serif" font-size="35.00">R183</text>
</a>
</g>
</g>
<!-- R356 -->
<g id="node6" class="node">
<title>R356</title>
<g id="a_node6"><a xlink:href="356.svg" xlink:title="R356">
<polygon fill="cornsilk" stroke="none" points="1292,-157.24 1198,-157.24 1198,-110.24 1292,-110.24 1292,-157.24"/>
<text text-anchor="middle" x="1245" y="-125.24" font-family="Times New Roman,serif" font-size="35.00">R356</text>
</a>
</g>
</g>
<!-- R183&#45;&gt;R356 -->
<g id="edge5" class="edge">
<title>R183&#45;&gt;R356</title>
<path fill="none" stroke="black" stroke-width="6" d="M692.85,-133.74C797.71,-133.74 1055.33,-133.74 1177.56,-133.74"/>
<polygon fill="black" stroke="black" stroke-width="6" points="1172.4,-144.24 1192.4,-133.74 1172.4,-123.24 1172.4,-144.24"/>
<text text-anchor="middle" x="945.5" y="-142.74" font-family="Times New Roman,serif" font-size="30.00"> &#160;&#160;595 &#160;&#160;100% &#160;&#160;0.0342 mol/s &#160;&#160;&#160;1.00E+00</text>
</g>
<!-- R27 -->
<g id="node2" class="node">
<title>R27</title>
<g id="a_node2"><a xlink:href="27.svg" xlink:title="R27">
<polygon fill="cornsilk" stroke="none" points="85,-255.24 9,-255.24 9,-208.24 85,-208.24 85,-255.24"/>
<text text-anchor="middle" x="47" y="-223.24" font-family="Times New Roman,serif" font-size="35.00">R27</text>
</a>
</g>
</g>
<!-- R27&#45;&gt;R183 -->
<g id="edge1" class="edge">
<title>R27&#45;&gt;R183</title>
<path fill="none" stroke="black" stroke-width="3" d="M84.71,-239C174.81,-254.97 411.99,-285.5 582.5,-203.74 599.77,-195.45 614.37,-180.01 625.1,-165.73"/>
<polygon fill="black" stroke="black" stroke-width="3" points="626.32,-170.24 629.27,-160.07 620.61,-166.18 626.32,-170.24"/>
<text text-anchor="middle" x="346.5" y="-266.74" font-family="Times New Roman,serif" font-size="30.00"> &#160;&#160;242 &#160;&#160;49% &#160;&#160;0.0334 mol/s &#160;&#160;&#160;9.78E&#45;01</text>
</g>
<!-- R2 -->
<g id="node3" class="node">
<title>R2</title>
<g id="a_node3"><a xlink:href="2.svg" xlink:title="R2">
<polygon fill="cornsilk" stroke="none" points="76,-190.24 18,-190.24 18,-143.24 76,-143.24 76,-190.24"/>
<text text-anchor="middle" x="47" y="-158.24" font-family="Times New Roman,serif" font-size="35.00">R2</text>
</a>
</g>
</g>
<!-- R2&#45;&gt;R183 -->
<g id="edge2" class="edge">
<title>R2&#45;&gt;R183</title>
<path fill="none" stroke="black" stroke-width="3" d="M75.92,-166.89C155.38,-167.06 389.52,-165.6 582.5,-144.74 584.43,-144.53 586.39,-144.3 588.36,-144.04"/>
<polygon fill="black" stroke="black" stroke-width="3" points="585.61,-147.4 595.02,-142.54 584.63,-140.47 585.61,-147.4"/>
<text text-anchor="middle" x="346.5" y="-175.74" font-family="Times New Roman,serif" font-size="30.00"> &#160;&#160;242 &#160;&#160;49% &#160;&#160;0.0334 mol/s &#160;&#160;&#160;9.78E&#45;01</text>
</g>
<!-- R0 -->
<g id="node4" class="node">
<title>R0</title>
<g id="a_node4"><a xlink:href="0.svg" xlink:title="R0">
<polygon fill="cornsilk" stroke="none" points="76,-125.24 18,-125.24 18,-78.24 76,-78.24 76,-125.24"/>
<text text-anchor="middle" x="47" y="-93.24" font-family="Times New Roman,serif" font-size="35.00">R0</text>
</a>
</g>
</g>
<!-- R0&#45;&gt;R183 -->
<g id="edge3" class="edge">
<title>R0&#45;&gt;R183</title>
<path fill="none" stroke="black" stroke-width="3" d="M75.84,-99.16C155.59,-92.46 391.38,-77.24 582.5,-111.74 584.45,-112.09 586.43,-112.49 588.41,-112.94"/>
<polygon fill="black" stroke="black" stroke-width="3" points="584.47,-115.57 595.03,-114.71 586.23,-108.8 584.47,-115.57"/>
<text text-anchor="middle" x="346.5" y="-120.74" font-family="Times New Roman,serif" font-size="30.00"> &#160;&#160;487 &#160;&#160;50% &#160;&#160;0.0342 mol/s &#160;&#160;&#160;1.00E+00</text>
</g>
<!-- R120 -->
<g id="node5" class="node">
<title>R120</title>
<g id="a_node5"><a xlink:href="120.svg" xlink:title="R120">
<polygon fill="cornsilk" stroke="none" points="94,-60.24 0,-60.24 0,-13.24 94,-13.24 94,-60.24"/>
<text text-anchor="middle" x="47" y="-28.24" font-family="Times New Roman,serif" font-size="35.00">R120</text>
</a>
</g>
</g>
<!-- R120&#45;&gt;R183 -->
<g id="edge4" class="edge">
<title>R120&#45;&gt;R183</title>
<path fill="none" stroke="black" stroke-width="3" d="M93.76,-25.73C190.31,-5.04 419.38,30.49 582.5,-52.74 602.79,-63.09 618.44,-83.4 629,-101.09"/>
<polygon fill="black" stroke="black" stroke-width="3" points="624.38,-100.58 632.34,-107.57 630.48,-97.14 624.38,-100.58"/>
<text text-anchor="middle" x="346.5" y="-61.74" font-family="Times New Roman,serif" font-size="30.00"> &#160;&#160;487 &#160;&#160;50% &#160;&#160;0.0342 mol/s &#160;&#160;&#160;1.00E+00</text>
</g>
</g>
</svg>
