<?xml version="1.0" encoding="UTF-8" standalone="no"?>
<!DOCTYPE svg PUBLIC "-//W3C//DTD SVG 1.1//EN"
 "http://www.w3.org/Graphics/SVG/1.1/DTD/svg11.dtd">
<!-- Generated by graphviz version 8.0.3 (20230416.2022)
 -->
<!-- Title: G Pages: 1 -->
<svg width="640pt" height="88pt"
 viewBox="0.00 0.00 720.00 98.99" xmlns="http://www.w3.org/2000/svg" xmlns:xlink="http://www.w3.org/1999/xlink">
<g id="graph0" class="graph" transform="scale(0.49574 0.49574) rotate(0) translate(4 173.5)">
<title>G</title>
<polygon fill="white" stroke="none" points="-4,4 -4,-173.5 1287,-173.5 1287,4 -4,4"/>
<text text-anchor="middle" x="641.5" y="-136.7" font-family="Arial" font-size="36.00" fill="blue">Reaction Path Analysis</text>
<!-- R186 -->
<g id="node1" class="node">
<title>R186</title>
<g id="a_node1"><a xlink:href="186.svg" xlink:title="R186">
<polygon fill="cornsilk" stroke="none" points="693,-79 599,-79 599,-32 693,-32 693,-79"/>
<text text-anchor="middle" x="646" y="-47" font-family="Times New Roman,serif" font-size="35.00">R186</text>
</a>
</g>
</g>
<!-- R29 -->
<g id="node2" class="node">
<title>R29</title>
<g id="a_node2"><a xlink:href="29.svg" xlink:title="R29">
<polygon fill="cornsilk" stroke="none" points="1283,-112 1207,-112 1207,-65 1283,-65 1283,-112"/>
<text text-anchor="middle" x="1245" y="-80" font-family="Times New Roman,serif" font-size="35.00">R29</text>
</a>
</g>
</g>
<!-- R186&#45;&gt;R29 -->
<g id="edge1" class="edge">
<title>R186&#45;&gt;R29</title>
<path fill="none" stroke="black" stroke-width="6" d="M692.96,-64.73C697.36,-65.41 701.76,-66.02 706,-66.5 880.04,-86.18 1087.52,-88.84 1186.26,-88.85"/>
<polygon fill="black" stroke="black" stroke-width="6" points="1181.03,-99.35 1201.01,-88.81 1180.99,-78.35 1181.03,-99.35"/>
<text text-anchor="middle" x="945.5" y="-97.5" font-family="Times New Roman,serif" font-size="30.00"> &#160;&#160;246 &#160;&#160;100% &#160;&#160;0.0596 mol/s &#160;&#160;&#160;2.67E&#45;01</text>
</g>
<!-- R2 -->
<g id="node3" class="node">
<title>R2</title>
<g id="a_node3"><a xlink:href="2.svg" xlink:title="R2">
<polygon fill="cornsilk" stroke="none" points="1274,-47 1216,-47 1216,0 1274,0 1274,-47"/>
<text text-anchor="middle" x="1245" y="-15" font-family="Times New Roman,serif" font-size="35.00">R2</text>
</a>
</g>
</g>
<!-- R186&#45;&gt;R2 -->
<g id="edge2" class="edge">
<title>R186&#45;&gt;R2</title>
<path fill="none" stroke="black" stroke-width="6" d="M692.95,-36.69C697.31,-35.41 701.7,-34.32 706,-33.5 883.82,0.28 1100.64,-11.34 1195.57,-18.99"/>
<polygon fill="black" stroke="black" stroke-width="6" points="1189.41,-29.52 1210.23,-20.75 1191.19,-8.59 1189.41,-29.52"/>
<text text-anchor="middle" x="945.5" y="-42.5" font-family="Times New Roman,serif" font-size="30.00"> &#160;&#160;246 &#160;&#160;100% &#160;&#160;0.0596 mol/s &#160;&#160;&#160;2.67E&#45;01</text>
</g>
<!-- R0 -->
<g id="node4" class="node">
<title>R0</title>
<g id="a_node4"><a xlink:href="0.svg" xlink:title="R0">
<polygon fill="cornsilk" stroke="none" points="76,-112 18,-112 18,-65 76,-65 76,-112"/>
<text text-anchor="middle" x="47" y="-80" font-family="Times New Roman,serif" font-size="35.00">R0</text>
</a>
</g>
</g>
<!-- R0&#45;&gt;R186 -->
<g id="edge3" class="edge">
<title>R0&#45;&gt;R186</title>
<path fill="none" stroke="black" stroke-width="6" d="M75.76,-88.9C153.15,-89.71 378.22,-89.91 578.34,-67.64"/>
<polygon fill="black" stroke="black" stroke-width="6" points="574.51,-77.96 593.17,-65.22 572.1,-57.09 574.51,-77.96"/>
<text text-anchor="middle" x="346.5" y="-97.5" font-family="Times New Roman,serif" font-size="30.00"> &#160;&#160;489 &#160;&#160;100% &#160;&#160;0.0342 mol/s &#160;&#160;&#160;1.00E+00</text>
</g>
<!-- R124 -->
<g id="node5" class="node">
<title>R124</title>
<g id="a_node5"><a xlink:href="124.svg" xlink:title="R124">
<polygon fill="cornsilk" stroke="none" points="94,-47 0,-47 0,0 94,0 94,-47"/>
<text text-anchor="middle" x="47" y="-15" font-family="Times New Roman,serif" font-size="35.00">R124</text>
</a>
</g>
</g>
<!-- R124&#45;&gt;R186 -->
<g id="edge4" class="edge">
<title>R124&#45;&gt;R186</title>
<path fill="none" stroke="black" stroke-width="6" d="M93.93,-18.83C184.75,-10.77 393.81,2.05 578.76,-31.82"/>
<polygon fill="black" stroke="black" stroke-width="6" points="571.53,-41.27 593.16,-34.76 575.52,-20.66 571.53,-41.27"/>
<text text-anchor="middle" x="346.5" y="-42.5" font-family="Times New Roman,serif" font-size="30.00"> &#160;&#160;489 &#160;&#160;100% &#160;&#160;0.0342 mol/s &#160;&#160;&#160;1.00E+00</text>
</g>
</g>
</svg>
