<?xml version="1.0" encoding="UTF-8" standalone="no"?>
<!DOCTYPE svg PUBLIC "-//W3C//DTD SVG 1.1//EN"
 "http://www.w3.org/Graphics/SVG/1.1/DTD/svg11.dtd">
<!-- Generated by graphviz version 8.0.3 (20230416.2022)
 -->
<!-- Title: G Pages: 1 -->
<svg width="640pt" height="128pt"
 viewBox="0.00 0.00 720.00 143.67" xmlns="http://www.w3.org/2000/svg" xmlns:xlink="http://www.w3.org/1999/xlink">
<g id="graph0" class="graph" transform="scale(0.479401 0.479401) rotate(0) translate(4 262.39)">
<title>G</title>
<polygon fill="white" stroke="none" points="-4,4 -4,-262.39 1331,-262.39 1331,4 -4,4"/>
<text text-anchor="middle" x="663.5" y="-225.59" font-family="Arial" font-size="36.00" fill="blue">Reaction Path Analysis</text>
<!-- R189 -->
<g id="node1" class="node">
<title>R189</title>
<g id="a_node1"><a xlink:href="189.svg" xlink:title="R189">
<polygon fill="cornsilk" stroke="none" points="706,-130.89 612,-130.89 612,-83.89 706,-83.89 706,-130.89"/>
<text text-anchor="middle" x="659" y="-98.89" font-family="Times New Roman,serif" font-size="35.00">R189</text>
</a>
</g>
</g>
<!-- R193 -->
<g id="node4" class="node">
<title>R193</title>
<g id="a_node4"><a xlink:href="193.svg" xlink:title="R193">
<polygon fill="cornsilk" stroke="none" points="1327,-186.89 1233,-186.89 1233,-139.89 1327,-139.89 1327,-186.89"/>
<text text-anchor="middle" x="1280" y="-154.89" font-family="Times New Roman,serif" font-size="35.00">R193</text>
</a>
</g>
</g>
<!-- R189&#45;&gt;R193 -->
<g id="edge3" class="edge">
<title>R189&#45;&gt;R193</title>
<path fill="none" stroke="black" stroke-width="4" d="M696.49,-130.83C704.75,-135.1 713.69,-138.96 722.5,-141.39 894.12,-188.68 1106.72,-179.33 1212.59,-170.35"/>
<polygon fill="black" stroke="black" stroke-width="4" points="1207.92,-177.25 1227.21,-168.48 1206.66,-163.31 1207.92,-177.25"/>
<text text-anchor="middle" x="969.5" y="-186.39" font-family="Times New Roman,serif" font-size="30.00"> &#160;&#160;514 &#160;&#160;78% &#160;&#160;4.67e&#45;08 mol/s &#160;&#160;&#160;1.00E+00</text>
</g>
<!-- R140 -->
<g id="node5" class="node">
<title>R140</title>
<g id="a_node5"><a xlink:href="140.svg" xlink:title="R140">
<polygon fill="cornsilk" stroke="none" points="1327,-98.89 1233,-98.89 1233,-51.89 1327,-51.89 1327,-98.89"/>
<text text-anchor="middle" x="1280" y="-66.89" font-family="Times New Roman,serif" font-size="35.00">R140</text>
</a>
</g>
</g>
<!-- R189&#45;&gt;R140 -->
<g id="edge4" class="edge">
<title>R189&#45;&gt;R140</title>
<path fill="none" stroke="black" stroke-width="2" d="M705.94,-107.42C801.31,-107.08 1027.68,-104.16 1216.5,-85.39 1218.34,-85.21 1220.21,-85 1222.1,-84.79"/>
<polygon fill="black" stroke="black" stroke-width="2" points="1220.53,-88.13 1230,-83.39 1219.64,-81.19 1220.53,-88.13"/>
<text text-anchor="middle" x="969.5" y="-115.39" font-family="Times New Roman,serif" font-size="30.00"> &#160;&#160;667 &#160;&#160;21% &#160;&#160;1.31e&#45;08 mol/s &#160;&#160;&#160;7.71E&#45;04</text>
</g>
<!-- R189&#45;&gt;R140 -->
<g id="edge5" class="edge">
<title>R189&#45;&gt;R140</title>
<path fill="none" stroke="black" d="M677.16,-84.09C688.39,-70.89 704.33,-55.61 722.5,-48.39 926.53,32.7 1001.49,-3.93 1216.5,-48.39 1218.58,-48.82 1220.68,-49.32 1222.79,-49.89"/>
<polygon fill="black" stroke="black" points="1221.68,-53.52 1232.27,-53.16 1223.77,-46.84 1221.68,-53.52"/>
<text text-anchor="middle" x="969.5" y="-57.39" font-family="Times New Roman,serif" font-size="30.00"> &#160;&#160;695 &#160;&#160;0% &#160;&#160;1.01e&#45;11 mol/s &#160;&#160;&#160;9.99E&#45;01</text>
</g>
<!-- R2 -->
<g id="node2" class="node">
<title>R2</title>
<g id="a_node2"><a xlink:href="2.svg" xlink:title="R2">
<polygon fill="cornsilk" stroke="none" points="67,-163.89 9,-163.89 9,-116.89 67,-116.89 67,-163.89"/>
<text text-anchor="middle" x="38" y="-131.89" font-family="Times New Roman,serif" font-size="35.00">R2</text>
</a>
</g>
</g>
<!-- R2&#45;&gt;R189 -->
<g id="edge1" class="edge">
<title>R2&#45;&gt;R189</title>
<path fill="none" stroke="black" stroke-width="6" d="M67,-140.86C146.79,-141.88 382.54,-142.63 591.4,-119.51"/>
<polygon fill="black" stroke="black" stroke-width="6" points="587.5,-129.84 606.17,-117.12 585.1,-108.97 587.5,-129.84"/>
<text text-anchor="middle" x="348.5" y="-149.39" font-family="Times New Roman,serif" font-size="30.00"> &#160;&#160;250 &#160;&#160;100% &#160;&#160;4.67e&#45;08 mol/s &#160;&#160;&#160;1.00E+00</text>
</g>
<!-- R41 -->
<g id="node3" class="node">
<title>R41</title>
<g id="a_node3"><a xlink:href="41.svg" xlink:title="R41">
<polygon fill="cornsilk" stroke="none" points="76,-98.89 0,-98.89 0,-51.89 76,-51.89 76,-98.89"/>
<text text-anchor="middle" x="38" y="-66.89" font-family="Times New Roman,serif" font-size="35.00">R41</text>
</a>
</g>
</g>
<!-- R41&#45;&gt;R189 -->
<g id="edge2" class="edge">
<title>R41&#45;&gt;R189</title>
<path fill="none" stroke="black" stroke-width="6" d="M75.78,-71.5C163.47,-63.19 391.8,-47.08 591.67,-83.69"/>
<polygon fill="black" stroke="black" stroke-width="6" points="584.53,-93.16 606.16,-86.65 588.52,-72.55 584.53,-93.16"/>
<text text-anchor="middle" x="348.5" y="-94.39" font-family="Times New Roman,serif" font-size="30.00"> &#160;&#160;250 &#160;&#160;100% &#160;&#160;4.67e&#45;08 mol/s &#160;&#160;&#160;1.00E+00</text>
</g>
</g>
</svg>
