<?xml version="1.0" encoding="UTF-8" standalone="no"?>
<!DOCTYPE svg PUBLIC "-//W3C//DTD SVG 1.1//EN"
 "http://www.w3.org/Graphics/SVG/1.1/DTD/svg11.dtd">
<!-- Generated by graphviz version 8.0.3 (20230416.2022)
 -->
<!-- Title: G Pages: 1 -->
<svg width="640pt" height="130pt"
 viewBox="0.00 0.00 720.00 146.81" xmlns="http://www.w3.org/2000/svg" xmlns:xlink="http://www.w3.org/1999/xlink">
<g id="graph0" class="graph" transform="scale(0.49574 0.49574) rotate(0) translate(4 259.23)">
<title>G</title>
<polygon fill="white" stroke="none" points="-4,4 -4,-259.23 1287,-259.23 1287,4 -4,4"/>
<text text-anchor="middle" x="641.5" y="-222.43" font-family="Arial" font-size="36.00" fill="blue">Reaction Path Analysis</text>
<!-- R189 -->
<g id="node1" class="node">
<title>R189</title>
<g id="a_node1"><a xlink:href="189.svg" xlink:title="R189">
<polygon fill="cornsilk" stroke="none" points="684,-128.73 590,-128.73 590,-81.73 684,-81.73 684,-128.73"/>
<text text-anchor="middle" x="637" y="-96.73" font-family="Times New Roman,serif" font-size="35.00">R189</text>
</a>
</g>
</g>
<!-- R193 -->
<g id="node4" class="node">
<title>R193</title>
<g id="a_node4"><a xlink:href="193.svg" xlink:title="R193">
<polygon fill="cornsilk" stroke="none" points="1283,-184.73 1189,-184.73 1189,-137.73 1283,-137.73 1283,-184.73"/>
<text text-anchor="middle" x="1236" y="-152.73" font-family="Times New Roman,serif" font-size="35.00">R193</text>
</a>
</g>
</g>
<!-- R189&#45;&gt;R193 -->
<g id="edge3" class="edge">
<title>R189&#45;&gt;R193</title>
<path fill="none" stroke="black" d="M674.49,-128.66C682.75,-132.93 691.69,-136.8 700.5,-139.23 869.23,-185.87 1079.25,-175.76 1178.29,-167.18"/>
<polygon fill="black" stroke="black" points="1178.59,-170.58 1188.24,-166.2 1177.96,-163.61 1178.59,-170.58"/>
<text text-anchor="middle" x="936.5" y="-183.23" font-family="Times New Roman,serif" font-size="30.00"> &#160;&#160;514 &#160;&#160;11% &#160;&#160;0.0342 mol/s &#160;&#160;&#160;1.00E+00</text>
</g>
<!-- R140 -->
<g id="node5" class="node">
<title>R140</title>
<g id="a_node5"><a xlink:href="140.svg" xlink:title="R140">
<polygon fill="cornsilk" stroke="none" points="1283,-96.73 1189,-96.73 1189,-49.73 1283,-49.73 1283,-96.73"/>
<text text-anchor="middle" x="1236" y="-64.73" font-family="Times New Roman,serif" font-size="35.00">R140</text>
</a>
</g>
</g>
<!-- R189&#45;&gt;R140 -->
<g id="edge4" class="edge">
<title>R189&#45;&gt;R140</title>
<path fill="none" stroke="black" stroke-width="5" d="M683.89,-105.16C773.24,-104.63 977.28,-101.52 1168.19,-83.28"/>
<polygon fill="black" stroke="black" stroke-width="5" points="1163.96,-91.9 1183,-81.22 1162.24,-74.48 1163.96,-91.9"/>
<text text-anchor="middle" x="936.5" y="-113.23" font-family="Times New Roman,serif" font-size="30.00"> &#160;&#160;667 &#160;&#160;87% &#160;&#160;0.252 mol/s &#160;&#160;&#160;1.06E&#45;02</text>
</g>
<!-- R189&#45;&gt;R140 -->
<g id="edge5" class="edge">
<title>R189&#45;&gt;R140</title>
<path fill="none" stroke="black" d="M655.16,-81.93C666.39,-68.73 682.33,-53.45 700.5,-46.23 895.45,31.25 967.07,-3.76 1172.5,-46.23 1174.58,-46.66 1176.68,-47.17 1178.79,-47.73"/>
<polygon fill="black" stroke="black" points="1177.68,-51.37 1188.27,-51 1179.77,-44.68 1177.68,-51.37"/>
<text text-anchor="middle" x="936.5" y="-55.23" font-family="Times New Roman,serif" font-size="30.00"> &#160;&#160;695 &#160;&#160;0% &#160;&#160;0.00269 mol/s &#160;&#160;&#160;9.89E&#45;01</text>
</g>
<!-- R2 -->
<g id="node2" class="node">
<title>R2</title>
<g id="a_node2"><a xlink:href="2.svg" xlink:title="R2">
<polygon fill="cornsilk" stroke="none" points="67,-161.73 9,-161.73 9,-114.73 67,-114.73 67,-161.73"/>
<text text-anchor="middle" x="38" y="-129.73" font-family="Times New Roman,serif" font-size="35.00">R2</text>
</a>
</g>
</g>
<!-- R2&#45;&gt;R189 -->
<g id="edge1" class="edge">
<title>R2&#45;&gt;R189</title>
<path fill="none" stroke="black" stroke-width="6" d="M66.76,-138.64C144.15,-139.45 369.22,-139.64 569.34,-117.37"/>
<polygon fill="black" stroke="black" stroke-width="6" points="565.51,-127.69 584.17,-114.96 563.1,-106.83 565.51,-127.69"/>
<text text-anchor="middle" x="337.5" y="-147.23" font-family="Times New Roman,serif" font-size="30.00"> &#160;&#160;250 &#160;&#160;100% &#160;&#160;0.0342 mol/s &#160;&#160;&#160;1.00E+00</text>
</g>
<!-- R41 -->
<g id="node3" class="node">
<title>R41</title>
<g id="a_node3"><a xlink:href="41.svg" xlink:title="R41">
<polygon fill="cornsilk" stroke="none" points="76,-96.73 0,-96.73 0,-49.73 76,-49.73 76,-96.73"/>
<text text-anchor="middle" x="38" y="-64.73" font-family="Times New Roman,serif" font-size="35.00">R41</text>
</a>
</g>
</g>
<!-- R41&#45;&gt;R189 -->
<g id="edge2" class="edge">
<title>R41&#45;&gt;R189</title>
<path fill="none" stroke="black" stroke-width="6" d="M75.97,-69.38C161.3,-61.44 378.65,-46.59 569.69,-81.54"/>
<polygon fill="black" stroke="black" stroke-width="6" points="562.53,-91.01 584.16,-84.5 566.52,-70.39 562.53,-91.01"/>
<text text-anchor="middle" x="337.5" y="-92.23" font-family="Times New Roman,serif" font-size="30.00"> &#160;&#160;250 &#160;&#160;100% &#160;&#160;0.0342 mol/s &#160;&#160;&#160;1.00E+00</text>
</g>
</g>
</svg>
