<?xml version="1.0" encoding="UTF-8" standalone="no"?>
<!DOCTYPE svg PUBLIC "-//W3C//DTD SVG 1.1//EN"
 "http://www.w3.org/Graphics/SVG/1.1/DTD/svg11.dtd">
<!-- Generated by graphviz version 8.0.3 (20230416.2022)
 -->
<!-- Title: G Pages: 1 -->
<svg width="640pt" height="311pt"
 viewBox="0.00 0.00 720.00 350.31" xmlns="http://www.w3.org/2000/svg" xmlns:xlink="http://www.w3.org/1999/xlink">
<g id="graph0" class="graph" transform="scale(0.493827 0.493827) rotate(0) translate(4 626.56)">
<title>G</title>
<polygon fill="white" stroke="none" points="-4,4 -4,-626.56 1292,-626.56 1292,4 -4,4"/>
<text text-anchor="middle" x="644" y="-589.76" font-family="Arial" font-size="36.00" fill="blue">Reaction Path Analysis</text>
<!-- R19 -->
<g id="node1" class="node">
<title>R19</title>
<g id="a_node1"><a xlink:href="19.svg" xlink:title="R19">
<polygon fill="cornsilk" stroke="none" points="673,-290.06 597,-290.06 597,-243.06 673,-243.06 673,-290.06"/>
<text text-anchor="middle" x="635" y="-258.06" font-family="Times New Roman,serif" font-size="35.00">R19</text>
</a>
</g>
</g>
<!-- R34 -->
<g id="node4" class="node">
<title>R34</title>
<g id="a_node4"><a xlink:href="34.svg" xlink:title="R34">
<polygon fill="cornsilk" stroke="none" points="1279,-550.06 1203,-550.06 1203,-503.06 1279,-503.06 1279,-550.06"/>
<text text-anchor="middle" x="1241" y="-518.06" font-family="Times New Roman,serif" font-size="35.00">R34</text>
</a>
</g>
</g>
<!-- R19&#45;&gt;R34 -->
<g id="edge3" class="edge">
<title>R19&#45;&gt;R34</title>
<path fill="none" stroke="black" d="M638.06,-290C643.28,-343.46 658.96,-471.87 691,-498.56 766.12,-561.14 1072.67,-541.48 1192.07,-531.14"/>
<polygon fill="black" stroke="black" points="1192.38,-534.54 1202.03,-530.17 1191.76,-527.57 1192.38,-534.54"/>
<text text-anchor="middle" x="938" y="-550.56" font-family="Times New Roman,serif" font-size="30.00"> &#160;&#160;106 &#160;&#160;14% &#160;&#160;2.18e&#45;15 mol/s &#160;&#160;&#160;1.00E+00</text>
</g>
<!-- R48 -->
<g id="node5" class="node">
<title>R48</title>
<g id="a_node5"><a xlink:href="48.svg" xlink:title="R48">
<polygon fill="cornsilk" stroke="none" points="1279,-485.06 1203,-485.06 1203,-438.06 1279,-438.06 1279,-485.06"/>
<text text-anchor="middle" x="1241" y="-453.06" font-family="Times New Roman,serif" font-size="35.00">R48</text>
</a>
</g>
</g>
<!-- R19&#45;&gt;R48 -->
<g id="edge4" class="edge">
<title>R19&#45;&gt;R48</title>
<path fill="none" stroke="black" d="M635.97,-289.77C637.33,-326.96 645.98,-399.21 691,-433.56 730.36,-463.59 1066.56,-463.34 1192.57,-462.16"/>
<polygon fill="black" stroke="black" points="1192.42,-465.65 1202.39,-462.05 1192.35,-458.65 1192.42,-465.65"/>
<text text-anchor="middle" x="938" y="-470.56" font-family="Times New Roman,serif" font-size="30.00"> &#160;&#160;159 &#160;&#160;14% &#160;&#160;2.18e&#45;15 mol/s &#160;&#160;&#160;1.00E+00</text>
</g>
<!-- R113 -->
<g id="node6" class="node">
<title>R113</title>
<g id="a_node6"><a xlink:href="113.svg" xlink:title="R113">
<polygon fill="cornsilk" stroke="none" points="1288,-420.06 1194,-420.06 1194,-373.06 1288,-373.06 1288,-420.06"/>
<text text-anchor="middle" x="1241" y="-388.06" font-family="Times New Roman,serif" font-size="35.00">R113</text>
</a>
</g>
</g>
<!-- R19&#45;&gt;R113 -->
<g id="edge5" class="edge">
<title>R19&#45;&gt;R113</title>
<path fill="none" stroke="black" d="M641.32,-290.02C648.24,-314.5 662.92,-351.77 691,-369.56 731.82,-395.43 1051.75,-397.26 1183.55,-396.91"/>
<polygon fill="black" stroke="black" points="1183.22,-400.4 1193.2,-396.87 1183.19,-393.4 1183.22,-400.4"/>
<text text-anchor="middle" x="938" y="-405.56" font-family="Times New Roman,serif" font-size="30.00"> &#160;&#160;160 &#160;&#160;14% &#160;&#160;2.18e&#45;15 mol/s &#160;&#160;&#160;1.00E+00</text>
</g>
<!-- R67 -->
<g id="node7" class="node">
<title>R67</title>
<g id="a_node7"><a xlink:href="67.svg" xlink:title="R67">
<polygon fill="cornsilk" stroke="none" points="1279,-355.06 1203,-355.06 1203,-308.06 1279,-308.06 1279,-355.06"/>
<text text-anchor="middle" x="1241" y="-323.06" font-family="Times New Roman,serif" font-size="35.00">R67</text>
</a>
</g>
</g>
<!-- R19&#45;&gt;R67 -->
<g id="edge6" class="edge">
<title>R19&#45;&gt;R67</title>
<path fill="none" stroke="black" d="M664.41,-289.9C672.54,-295.35 681.72,-300.47 691,-303.56 783.23,-334.29 1076.32,-333.84 1192.2,-332.38"/>
<polygon fill="black" stroke="black" points="1192.22,-335.87 1202.17,-332.23 1192.12,-328.87 1192.22,-335.87"/>
<text text-anchor="middle" x="938" y="-341.56" font-family="Times New Roman,serif" font-size="30.00"> &#160;&#160;236 &#160;&#160;14% &#160;&#160;2.18e&#45;15 mol/s &#160;&#160;&#160;1.00E+00</text>
</g>
<!-- R181 -->
<g id="node8" class="node">
<title>R181</title>
<g id="a_node8"><a xlink:href="181.svg" xlink:title="R181">
<polygon fill="cornsilk" stroke="none" points="1288,-290.06 1194,-290.06 1194,-243.06 1288,-243.06 1288,-290.06"/>
<text text-anchor="middle" x="1241" y="-258.06" font-family="Times New Roman,serif" font-size="35.00">R181</text>
</a>
</g>
</g>
<!-- R19&#45;&gt;R181 -->
<g id="edge7" class="edge">
<title>R19&#45;&gt;R181</title>
<path fill="none" stroke="black" d="M672.87,-266.56C774.83,-266.56 1061.07,-266.56 1183.4,-266.56"/>
<polygon fill="black" stroke="black" points="1183.37,-270.06 1193.37,-266.56 1183.37,-263.06 1183.37,-270.06"/>
<text text-anchor="middle" x="938" y="-275.56" font-family="Times New Roman,serif" font-size="30.00"> &#160;&#160;237 &#160;&#160;14% &#160;&#160;2.18e&#45;15 mol/s &#160;&#160;&#160;1.00E+00</text>
</g>
<!-- R239 -->
<g id="node9" class="node">
<title>R239</title>
<g id="a_node9"><a xlink:href="239.svg" xlink:title="R239">
<polygon fill="cornsilk" stroke="none" points="1288,-225.06 1194,-225.06 1194,-178.06 1288,-178.06 1288,-225.06"/>
<text text-anchor="middle" x="1241" y="-193.06" font-family="Times New Roman,serif" font-size="35.00">R239</text>
</a>
</g>
</g>
<!-- R19&#45;&gt;R239 -->
<g id="edge8" class="edge">
<title>R19&#45;&gt;R239</title>
<path fill="none" stroke="black" d="M664.41,-243.23C672.54,-237.77 681.72,-232.65 691,-229.56 862.88,-172.3 1081.73,-184.57 1183.38,-194.73"/>
<polygon fill="black" stroke="black" points="1182.71,-198.28 1193.02,-195.83 1183.43,-191.32 1182.71,-198.28"/>
<text text-anchor="middle" x="938" y="-238.56" font-family="Times New Roman,serif" font-size="30.00"> &#160;&#160;330 &#160;&#160;14% &#160;&#160;2.18e&#45;15 mol/s &#160;&#160;&#160;1.00E+00</text>
</g>
<!-- R245 -->
<g id="node10" class="node">
<title>R245</title>
<g id="a_node10"><a xlink:href="245.svg" xlink:title="R245">
<polygon fill="cornsilk" stroke="none" points="1288,-160.06 1194,-160.06 1194,-113.06 1288,-113.06 1288,-160.06"/>
<text text-anchor="middle" x="1241" y="-128.06" font-family="Times New Roman,serif" font-size="35.00">R245</text>
</a>
</g>
</g>
<!-- R19&#45;&gt;R245 -->
<g id="edge9" class="edge">
<title>R19&#45;&gt;R245</title>
<path fill="none" stroke="black" d="M639.53,-243.36C645.11,-215.68 658.84,-170.52 691,-149.56 731.45,-123.21 1051.59,-130.42 1183.5,-134.58"/>
<polygon fill="black" stroke="black" points="1183.06,-138.1 1193.16,-134.92 1183.28,-131.1 1183.06,-138.1"/>
<text text-anchor="middle" x="938" y="-158.56" font-family="Times New Roman,serif" font-size="30.00"> &#160;&#160;331 &#160;&#160;14% &#160;&#160;2.18e&#45;15 mol/s &#160;&#160;&#160;1.00E+00</text>
</g>
<!-- R53 -->
<g id="node11" class="node">
<title>R53</title>
<g id="a_node11"><a xlink:href="53.svg" xlink:title="R53">
<polygon fill="cornsilk" stroke="none" points="1279,-81.06 1203,-81.06 1203,-34.06 1279,-34.06 1279,-81.06"/>
<text text-anchor="middle" x="1241" y="-49.06" font-family="Times New Roman,serif" font-size="35.00">R53</text>
</a>
</g>
</g>
<!-- R19&#45;&gt;R53 -->
<g id="edge10" class="edge">
<title>R19&#45;&gt;R53</title>
<path fill="none" stroke="black" d="M635.64,-243.13C636.46,-204.76 644.31,-129.26 691,-93.56 734.64,-60.2 1130.71,-81.01 1185,-72.56 1187.52,-72.17 1190.08,-71.71 1192.66,-71.19"/>
<polygon fill="black" stroke="black" points="1193.28,-74.41 1202.26,-68.8 1191.74,-67.58 1193.28,-74.41"/>
<text text-anchor="middle" x="938" y="-102.56" font-family="Times New Roman,serif" font-size="30.00"> &#160;&#160;423 &#160;&#160;0% &#160;&#160;2.2e&#45;26 mol/s &#160;&#160;&#160;1.00E+00</text>
</g>
<!-- R19&#45;&gt;R53 -->
<g id="edge11" class="edge">
<title>R19&#45;&gt;R53</title>
<path fill="none" stroke="black" d="M637.99,-243.11C643.05,-189.64 658.41,-61.31 691,-35.56 777.15,32.48 1077.2,-14.8 1185,-35.56 1187.51,-36.05 1190.06,-36.64 1192.6,-37.33"/>
<polygon fill="black" stroke="black" points="1191.41,-40.94 1202,-40.57 1193.5,-34.25 1191.41,-40.94"/>
<text text-anchor="middle" x="938" y="-44.56" font-family="Times New Roman,serif" font-size="30.00"> &#160;&#160;440 &#160;&#160;1% &#160;&#160;1.85e&#45;16 mol/s &#160;&#160;&#160;1.19E&#45;10</text>
</g>
<!-- R6 -->
<g id="node2" class="node">
<title>R6</title>
<g id="a_node2"><a xlink:href="6.svg" xlink:title="R6">
<polygon fill="cornsilk" stroke="none" points="58,-323.06 0,-323.06 0,-276.06 58,-276.06 58,-323.06"/>
<text text-anchor="middle" x="29" y="-291.06" font-family="Times New Roman,serif" font-size="35.00">R6</text>
</a>
</g>
</g>
<!-- R6&#45;&gt;R19 -->
<g id="edge1" class="edge">
<title>R6&#45;&gt;R19</title>
<path fill="none" stroke="black" stroke-width="6" d="M57.83,-299.99C136.1,-300.87 365.15,-301.24 576.43,-277.2"/>
<polygon fill="black" stroke="black" stroke-width="6" points="572.51,-287.53 591.15,-274.76 570.05,-266.68 572.51,-287.53"/>
<text text-anchor="middle" x="332" y="-308.56" font-family="Times New Roman,serif" font-size="30.00"> &#160;&#160;23 &#160;&#160;100% &#160;&#160;2.18e&#45;15 mol/s &#160;&#160;&#160;1.00E+00</text>
</g>
<!-- R1 -->
<g id="node3" class="node">
<title>R1</title>
<g id="a_node3"><a xlink:href="1.svg" xlink:title="R1">
<polygon fill="cornsilk" stroke="none" points="58,-258.06 0,-258.06 0,-211.06 58,-211.06 58,-258.06"/>
<text text-anchor="middle" x="29" y="-226.06" font-family="Times New Roman,serif" font-size="35.00">R1</text>
</a>
</g>
</g>
<!-- R1&#45;&gt;R19 -->
<g id="edge2" class="edge">
<title>R1&#45;&gt;R19</title>
<path fill="none" stroke="black" stroke-width="6" d="M57.8,-231.58C136.47,-223.84 367.47,-206.09 576.78,-245.69"/>
<polygon fill="black" stroke="black" stroke-width="6" points="569.62,-255.16 591.28,-248.77 573.72,-234.57 569.62,-255.16"/>
<text text-anchor="middle" x="332" y="-253.56" font-family="Times New Roman,serif" font-size="30.00"> &#160;&#160;23 &#160;&#160;100% &#160;&#160;2.18e&#45;15 mol/s &#160;&#160;&#160;1.00E+00</text>
</g>
</g>
</svg>
