<?xml version="1.0" encoding="UTF-8" standalone="no"?>
<!DOCTYPE svg PUBLIC "-//W3C//DTD SVG 1.1//EN"
 "http://www.w3.org/Graphics/SVG/1.1/DTD/svg11.dtd">
<!-- Generated by graphviz version 8.0.3 (20230416.2022)
 -->
<!-- Title: G Pages: 1 -->
<svg width="640pt" height="318pt"
 viewBox="0.00 0.00 720.00 357.90" xmlns="http://www.w3.org/2000/svg" xmlns:xlink="http://www.w3.org/1999/xlink">
<g id="graph0" class="graph" transform="scale(0.505529 0.505529) rotate(0) translate(4 625.3)">
<title>G</title>
<polygon fill="white" stroke="none" points="-4,4 -4,-625.3 1262,-625.3 1262,4 -4,4"/>
<text text-anchor="middle" x="629" y="-588.5" font-family="Arial" font-size="36.00" fill="blue">Reaction Path Analysis</text>
<!-- R19 -->
<g id="node1" class="node">
<title>R19</title>
<g id="a_node1"><a xlink:href="19.svg" xlink:title="R19">
<polygon fill="cornsilk" stroke="none" points="658,-288.8 582,-288.8 582,-241.8 658,-241.8 658,-288.8"/>
<text text-anchor="middle" x="620" y="-256.8" font-family="Times New Roman,serif" font-size="35.00">R19</text>
</a>
</g>
</g>
<!-- R34 -->
<g id="node4" class="node">
<title>R34</title>
<g id="a_node4"><a xlink:href="34.svg" xlink:title="R34">
<polygon fill="cornsilk" stroke="none" points="1249,-548.8 1173,-548.8 1173,-501.8 1249,-501.8 1249,-548.8"/>
<text text-anchor="middle" x="1211" y="-516.8" font-family="Times New Roman,serif" font-size="35.00">R34</text>
</a>
</g>
</g>
<!-- R19&#45;&gt;R34 -->
<g id="edge3" class="edge">
<title>R19&#45;&gt;R34</title>
<path fill="none" stroke="black" d="M623.06,-288.74C628.29,-342.2 643.97,-470.59 676,-497.3 748.86,-558.08 1045.82,-539.65 1162.55,-529.76"/>
<polygon fill="black" stroke="black" points="1162.61,-533.18 1172.27,-528.83 1162.01,-526.2 1162.61,-533.18"/>
<text text-anchor="middle" x="915.5" y="-549.3" font-family="Times New Roman,serif" font-size="30.00"> &#160;&#160;106 &#160;&#160;0% &#160;&#160;4.67e&#45;08 mol/s &#160;&#160;&#160;1.00E+00</text>
</g>
<!-- R48 -->
<g id="node5" class="node">
<title>R48</title>
<g id="a_node5"><a xlink:href="48.svg" xlink:title="R48">
<polygon fill="cornsilk" stroke="none" points="1249,-483.8 1173,-483.8 1173,-436.8 1249,-436.8 1249,-483.8"/>
<text text-anchor="middle" x="1211" y="-451.8" font-family="Times New Roman,serif" font-size="35.00">R48</text>
</a>
</g>
</g>
<!-- R19&#45;&gt;R48 -->
<g id="edge4" class="edge">
<title>R19&#45;&gt;R48</title>
<path fill="none" stroke="black" d="M620.99,-288.8C622.39,-326.07 631.13,-398.01 676,-432.3 714.09,-461.41 1038.35,-461.78 1162.19,-460.83"/>
<polygon fill="black" stroke="black" points="1162.22,-464.32 1172.19,-460.74 1162.16,-457.32 1162.22,-464.32"/>
<text text-anchor="middle" x="915.5" y="-469.3" font-family="Times New Roman,serif" font-size="30.00"> &#160;&#160;159 &#160;&#160;0% &#160;&#160;4.67e&#45;08 mol/s &#160;&#160;&#160;1.00E+00</text>
</g>
<!-- R113 -->
<g id="node6" class="node">
<title>R113</title>
<g id="a_node6"><a xlink:href="113.svg" xlink:title="R113">
<polygon fill="cornsilk" stroke="none" points="1258,-418.8 1164,-418.8 1164,-371.8 1258,-371.8 1258,-418.8"/>
<text text-anchor="middle" x="1211" y="-386.8" font-family="Times New Roman,serif" font-size="35.00">R113</text>
</a>
</g>
</g>
<!-- R19&#45;&gt;R113 -->
<g id="edge5" class="edge">
<title>R19&#45;&gt;R113</title>
<path fill="none" stroke="black" d="M626.33,-288.75C633.25,-313.23 647.93,-350.49 676,-368.3 715.51,-393.37 1024.02,-395.7 1153.3,-395.56"/>
<polygon fill="black" stroke="black" points="1153.15,-399.06 1163.14,-395.54 1153.13,-392.06 1153.15,-399.06"/>
<text text-anchor="middle" x="915.5" y="-404.3" font-family="Times New Roman,serif" font-size="30.00"> &#160;&#160;160 &#160;&#160;0% &#160;&#160;4.67e&#45;08 mol/s &#160;&#160;&#160;1.00E+00</text>
</g>
<!-- R67 -->
<g id="node7" class="node">
<title>R67</title>
<g id="a_node7"><a xlink:href="67.svg" xlink:title="R67">
<polygon fill="cornsilk" stroke="none" points="1249,-353.8 1173,-353.8 1173,-306.8 1249,-306.8 1249,-353.8"/>
<text text-anchor="middle" x="1211" y="-321.8" font-family="Times New Roman,serif" font-size="35.00">R67</text>
</a>
</g>
</g>
<!-- R19&#45;&gt;R67 -->
<g id="edge6" class="edge">
<title>R19&#45;&gt;R67</title>
<path fill="none" stroke="black" d="M649.42,-288.63C657.54,-294.09 666.72,-299.2 676,-302.3 765.37,-332.15 1048.76,-332.27 1162.29,-331.04"/>
<polygon fill="black" stroke="black" points="1162.09,-334.53 1172.05,-330.91 1162.01,-327.53 1162.09,-334.53"/>
<text text-anchor="middle" x="915.5" y="-340.3" font-family="Times New Roman,serif" font-size="30.00"> &#160;&#160;236 &#160;&#160;0% &#160;&#160;4.67e&#45;08 mol/s &#160;&#160;&#160;1.00E+00</text>
</g>
<!-- R181 -->
<g id="node8" class="node">
<title>R181</title>
<g id="a_node8"><a xlink:href="181.svg" xlink:title="R181">
<polygon fill="cornsilk" stroke="none" points="1258,-288.8 1164,-288.8 1164,-241.8 1258,-241.8 1258,-288.8"/>
<text text-anchor="middle" x="1211" y="-256.8" font-family="Times New Roman,serif" font-size="35.00">R181</text>
</a>
</g>
</g>
<!-- R19&#45;&gt;R181 -->
<g id="edge7" class="edge">
<title>R19&#45;&gt;R181</title>
<path fill="none" stroke="black" d="M657.84,-265.3C757.61,-265.3 1033.52,-265.3 1153.29,-265.3"/>
<polygon fill="black" stroke="black" points="1153.04,-268.8 1163.04,-265.3 1153.04,-261.8 1153.04,-268.8"/>
<text text-anchor="middle" x="915.5" y="-274.3" font-family="Times New Roman,serif" font-size="30.00"> &#160;&#160;237 &#160;&#160;0% &#160;&#160;4.67e&#45;08 mol/s &#160;&#160;&#160;1.00E+00</text>
</g>
<!-- R239 -->
<g id="node9" class="node">
<title>R239</title>
<g id="a_node9"><a xlink:href="239.svg" xlink:title="R239">
<polygon fill="cornsilk" stroke="none" points="1258,-223.8 1164,-223.8 1164,-176.8 1258,-176.8 1258,-223.8"/>
<text text-anchor="middle" x="1211" y="-191.8" font-family="Times New Roman,serif" font-size="35.00">R239</text>
</a>
</g>
</g>
<!-- R19&#45;&gt;R239 -->
<g id="edge8" class="edge">
<title>R19&#45;&gt;R239</title>
<path fill="none" stroke="black" d="M649.42,-241.98C657.54,-236.52 666.72,-231.4 676,-228.3 842.35,-172.75 1053.99,-183.94 1153.48,-193.62"/>
<polygon fill="black" stroke="black" points="1152.89,-197.18 1163.19,-194.7 1153.59,-190.21 1152.89,-197.18"/>
<text text-anchor="middle" x="915.5" y="-237.3" font-family="Times New Roman,serif" font-size="30.00"> &#160;&#160;330 &#160;&#160;0% &#160;&#160;4.67e&#45;08 mol/s &#160;&#160;&#160;1.00E+00</text>
</g>
<!-- R245 -->
<g id="node10" class="node">
<title>R245</title>
<g id="a_node10"><a xlink:href="245.svg" xlink:title="R245">
<polygon fill="cornsilk" stroke="none" points="1258,-158.8 1164,-158.8 1164,-111.8 1258,-111.8 1258,-158.8"/>
<text text-anchor="middle" x="1211" y="-126.8" font-family="Times New Roman,serif" font-size="35.00">R245</text>
</a>
</g>
</g>
<!-- R19&#45;&gt;R245 -->
<g id="edge9" class="edge">
<title>R19&#45;&gt;R245</title>
<path fill="none" stroke="black" d="M624.7,-241.82C630.41,-214.35 644.25,-169.98 676,-149.3 715.18,-123.8 1023.88,-129.78 1153.26,-133.48"/>
<polygon fill="black" stroke="black" points="1153.01,-137 1163.1,-133.79 1153.21,-130 1153.01,-137"/>
<text text-anchor="middle" x="915.5" y="-158.3" font-family="Times New Roman,serif" font-size="30.00"> &#160;&#160;331 &#160;&#160;0% &#160;&#160;4.67e&#45;08 mol/s &#160;&#160;&#160;1.00E+00</text>
</g>
<!-- R53 -->
<g id="node11" class="node">
<title>R53</title>
<g id="a_node11"><a xlink:href="53.svg" xlink:title="R53">
<polygon fill="cornsilk" stroke="none" points="1249,-79.8 1173,-79.8 1173,-32.8 1249,-32.8 1249,-79.8"/>
<text text-anchor="middle" x="1211" y="-47.8" font-family="Times New Roman,serif" font-size="35.00">R53</text>
</a>
</g>
</g>
<!-- R19&#45;&gt;R53 -->
<g id="edge10" class="edge">
<title>R19&#45;&gt;R53</title>
<path fill="none" stroke="black" d="M620.7,-242.02C621.61,-203.89 629.58,-128.86 676,-93.3 718.3,-60.91 1102.37,-79.58 1155,-71.3 1157.52,-70.91 1160.08,-70.44 1162.66,-69.92"/>
<polygon fill="black" stroke="black" points="1163.28,-73.14 1172.26,-67.52 1161.74,-66.31 1163.28,-73.14"/>
<text text-anchor="middle" x="915.5" y="-102.3" font-family="Times New Roman,serif" font-size="30.00"> &#160;&#160;423 &#160;&#160;0% &#160;&#160;1.01e&#45;11 mol/s &#160;&#160;&#160;1.00E+00</text>
</g>
<!-- R19&#45;&gt;R53 -->
<g id="edge11" class="edge">
<title>R19&#45;&gt;R53</title>
<path fill="none" stroke="black" stroke-width="5" d="M622.99,-241.85C628.05,-188.38 643.41,-60.05 676,-34.3 755.21,28.26 1020.91,-9.73 1152.68,-35.26"/>
<polygon fill="black" stroke="black" stroke-width="5" points="1145.68,-42.98 1167,-38.31 1149.1,-25.82 1145.68,-42.98"/>
<text text-anchor="middle" x="915.5" y="-43.3" font-family="Times New Roman,serif" font-size="30.00"> &#160;&#160;440 &#160;&#160;99% &#160;&#160;0.085 mol/s &#160;&#160;&#160;1.19E&#45;10</text>
</g>
<!-- R6 -->
<g id="node2" class="node">
<title>R6</title>
<g id="a_node2"><a xlink:href="6.svg" xlink:title="R6">
<polygon fill="cornsilk" stroke="none" points="58,-321.8 0,-321.8 0,-274.8 58,-274.8 58,-321.8"/>
<text text-anchor="middle" x="29" y="-289.8" font-family="Times New Roman,serif" font-size="35.00">R6</text>
</a>
</g>
</g>
<!-- R6&#45;&gt;R19 -->
<g id="edge1" class="edge">
<title>R6&#45;&gt;R19</title>
<path fill="none" stroke="black" stroke-width="6" d="M57.77,-299C135.23,-300.56 360.51,-302.52 561.43,-277.26"/>
<polygon fill="black" stroke="black" stroke-width="6" points="557.58,-287.57 576.04,-274.57 554.85,-266.75 557.58,-287.57"/>
<text text-anchor="middle" x="324.5" y="-308.3" font-family="Times New Roman,serif" font-size="30.00"> &#160;&#160;23 &#160;&#160;100% &#160;&#160;4.67e&#45;08 mol/s &#160;&#160;&#160;1.00E+00</text>
</g>
<!-- R1 -->
<g id="node3" class="node">
<title>R1</title>
<g id="a_node3"><a xlink:href="1.svg" xlink:title="R1">
<polygon fill="cornsilk" stroke="none" points="58,-256.8 0,-256.8 0,-209.8 58,-209.8 58,-256.8"/>
<text text-anchor="middle" x="29" y="-224.8" font-family="Times New Roman,serif" font-size="35.00">R1</text>
</a>
</g>
</g>
<!-- R1&#45;&gt;R19 -->
<g id="edge2" class="edge">
<title>R1&#45;&gt;R19</title>
<path fill="none" stroke="black" stroke-width="6" d="M57.82,-229.84C135.86,-220.92 363.49,-200.51 561.86,-241.99"/>
<polygon fill="black" stroke="black" stroke-width="6" points="554.39,-251.42 576.18,-245.49 558.92,-230.92 554.39,-251.42"/>
<text text-anchor="middle" x="324.5" y="-252.3" font-family="Times New Roman,serif" font-size="30.00"> &#160;&#160;23 &#160;&#160;100% &#160;&#160;4.67e&#45;08 mol/s &#160;&#160;&#160;1.00E+00</text>
</g>
</g>
</svg>
