<?xml version="1.0" encoding="UTF-8" standalone="no"?>
<!DOCTYPE svg PUBLIC "-//W3C//DTD SVG 1.1//EN"
 "http://www.w3.org/Graphics/SVG/1.1/DTD/svg11.dtd">
<!-- Generated by graphviz version 8.0.3 (20230416.2022)
 -->
<!-- Title: G Pages: 1 -->
<svg width="608pt" height="158pt"
 viewBox="0.00 0.00 684.00 177.50" xmlns="http://www.w3.org/2000/svg" xmlns:xlink="http://www.w3.org/1999/xlink">
<g id="graph0" class="graph" transform="scale(0.888889 0.888889) rotate(0) translate(4 173.5)">
<title>G</title>
<polygon fill="white" stroke="none" points="-4,4 -4,-173.5 680,-173.5 680,4 -4,4"/>
<text text-anchor="middle" x="338" y="-136.7" font-family="Arial" font-size="36.00" fill="blue">Reaction Path Analysis</text>
<!-- R194 -->
<g id="node1" class="node">
<title>R194</title>
<g id="a_node1"><a xlink:href="194.svg" xlink:title="R194">
<polygon fill="cornsilk" stroke="none" points="676,-79 582,-79 582,-32 676,-32 676,-79"/>
<text text-anchor="middle" x="629" y="-47" font-family="Times New Roman,serif" font-size="35.00">R194</text>
</a>
</g>
</g>
<!-- R2 -->
<g id="node2" class="node">
<title>R2</title>
<g id="a_node2"><a xlink:href="2.svg" xlink:title="R2">
<polygon fill="cornsilk" stroke="none" points="67,-112 9,-112 9,-65 67,-65 67,-112"/>
<text text-anchor="middle" x="38" y="-80" font-family="Times New Roman,serif" font-size="35.00">R2</text>
</a>
</g>
</g>
<!-- R2&#45;&gt;R194 -->
<g id="edge1" class="edge">
<title>R2&#45;&gt;R194</title>
<path fill="none" stroke="black" stroke-width="6" d="M66.92,-88.88C143.66,-89.61 364.63,-89.58 561.38,-67.64"/>
<polygon fill="black" stroke="black" stroke-width="6" points="557.51,-77.96 576.17,-65.22 555.09,-57.1 557.51,-77.96"/>
<text text-anchor="middle" x="333.5" y="-97.5" font-family="Times New Roman,serif" font-size="30.00"> &#160;&#160;255 &#160;&#160;100% &#160;&#160;0.0342 mol/s &#160;&#160;&#160;9.99E&#45;01</text>
</g>
<!-- R43 -->
<g id="node3" class="node">
<title>R43</title>
<g id="a_node3"><a xlink:href="43.svg" xlink:title="R43">
<polygon fill="cornsilk" stroke="none" points="76,-47 0,-47 0,0 76,0 76,-47"/>
<text text-anchor="middle" x="38" y="-15" font-family="Times New Roman,serif" font-size="35.00">R43</text>
</a>
</g>
</g>
<!-- R43&#45;&gt;R194 -->
<g id="edge2" class="edge">
<title>R43&#45;&gt;R194</title>
<path fill="none" stroke="black" stroke-width="6" d="M75.75,-19.69C160,-11.89 373.67,2.58 561.71,-31.81"/>
<polygon fill="black" stroke="black" stroke-width="6" points="554.53,-41.28 576.16,-34.77 558.52,-20.66 554.53,-41.28"/>
<text text-anchor="middle" x="333.5" y="-42.5" font-family="Times New Roman,serif" font-size="30.00"> &#160;&#160;255 &#160;&#160;100% &#160;&#160;0.0342 mol/s &#160;&#160;&#160;9.99E&#45;01</text>
</g>
</g>
</svg>
