<?xml version="1.0" encoding="UTF-8" standalone="no"?>
<!DOCTYPE svg PUBLIC "-//W3C//DTD SVG 1.1//EN"
 "http://www.w3.org/Graphics/SVG/1.1/DTD/svg11.dtd">
<!-- Generated by graphviz version 8.0.3 (20230416.2022)
 -->
<!-- Title: G Pages: 1 -->
<svg width="640pt" height="179pt"
 viewBox="0.00 0.00 720.00 201.38" xmlns="http://www.w3.org/2000/svg" xmlns:xlink="http://www.w3.org/1999/xlink">
<g id="graph0" class="graph" transform="scale(0.507534 0.507534) rotate(0) translate(4 348.69)">
<title>G</title>
<polygon fill="white" stroke="none" points="-4,4 -4,-348.69 1257,-348.69 1257,4 -4,4"/>
<text text-anchor="middle" x="626.5" y="-311.89" font-family="Arial" font-size="36.00" fill="blue">Reaction Path Analysis</text>
<!-- R198 -->
<g id="node1" class="node">
<title>R198</title>
<g id="a_node1"><a xlink:href="198.svg" xlink:title="R198">
<polygon fill="cornsilk" stroke="none" points="669,-161.19 575,-161.19 575,-114.19 669,-114.19 669,-161.19"/>
<text text-anchor="middle" x="622" y="-129.19" font-family="Times New Roman,serif" font-size="35.00">R198</text>
</a>
</g>
</g>
<!-- R159 -->
<g id="node6" class="node">
<title>R159</title>
<g id="a_node6"><a xlink:href="159.svg" xlink:title="R159">
<polygon fill="cornsilk" stroke="none" points="1253,-161.19 1159,-161.19 1159,-114.19 1253,-114.19 1253,-161.19"/>
<text text-anchor="middle" x="1206" y="-129.19" font-family="Times New Roman,serif" font-size="35.00">R159</text>
</a>
</g>
</g>
<!-- R198&#45;&gt;R159 -->
<g id="edge5" class="edge">
<title>R198&#45;&gt;R159</title>
<path fill="none" stroke="black" stroke-width="5" d="M668.89,-143.07C671.97,-143.31 675.03,-143.52 678,-143.69 880.62,-154.71 936.89,-155.07 1138.18,-144.21"/>
<polygon fill="black" stroke="black" stroke-width="5" points="1133.62,-152.89 1153.11,-143.07 1132.67,-135.42 1133.62,-152.89"/>
<text text-anchor="middle" x="914" y="-160.69" font-family="Times New Roman,serif" font-size="30.00"> &#160;&#160;682 &#160;&#160;99% &#160;&#160;135.0 mol/s &#160;&#160;&#160;2.01E&#45;05</text>
</g>
<!-- R198&#45;&gt;R159 -->
<g id="edge6" class="edge">
<title>R198&#45;&gt;R159</title>
<path fill="none" stroke="black" d="M658.56,-114.23C664.81,-111.12 671.43,-108.41 678,-106.69 880.91,-53.44 947.09,-53.44 1150,-106.69 1153.18,-107.52 1156.38,-108.59 1159.54,-109.82"/>
<polygon fill="black" stroke="black" points="1157.88,-113.36 1168.44,-114.23 1160.73,-106.97 1157.88,-113.36"/>
<text text-anchor="middle" x="914" y="-115.69" font-family="Times New Roman,serif" font-size="30.00"> &#160;&#160;696 &#160;&#160;0% &#160;&#160;0.00272 mol/s &#160;&#160;&#160;1.00E+00</text>
</g>
<!-- R2 -->
<g id="node2" class="node">
<title>R2</title>
<g id="a_node2"><a xlink:href="2.svg" xlink:title="R2">
<polygon fill="cornsilk" stroke="none" points="67,-259.19 9,-259.19 9,-212.19 67,-212.19 67,-259.19"/>
<text text-anchor="middle" x="38" y="-227.19" font-family="Times New Roman,serif" font-size="35.00">R2</text>
</a>
</g>
</g>
<!-- R2&#45;&gt;R198 -->
<g id="edge1" class="edge">
<title>R2&#45;&gt;R198</title>
<path fill="none" stroke="black" stroke-width="3" d="M66.8,-241.77C148.84,-258.21 394.84,-296.57 566,-207.69 581.98,-199.39 594.8,-184.15 604.03,-170"/>
<polygon fill="black" stroke="black" stroke-width="3" points="605.34,-174.31 607.58,-163.95 599.37,-170.65 605.34,-174.31"/>
<text text-anchor="middle" x="330" y="-272.69" font-family="Times New Roman,serif" font-size="30.00"> &#160;&#160;259 &#160;&#160;50% &#160;&#160;0.0342 mol/s &#160;&#160;&#160;1.00E+00</text>
</g>
<!-- R53 -->
<g id="node3" class="node">
<title>R53</title>
<g id="a_node3"><a xlink:href="53.svg" xlink:title="R53">
<polygon fill="cornsilk" stroke="none" points="76,-194.19 0,-194.19 0,-147.19 76,-147.19 76,-194.19"/>
<text text-anchor="middle" x="38" y="-162.19" font-family="Times New Roman,serif" font-size="35.00">R53</text>
</a>
</g>
</g>
<!-- R53&#45;&gt;R198 -->
<g id="edge2" class="edge">
<title>R53&#45;&gt;R198</title>
<path fill="none" stroke="black" stroke-width="3" d="M75.9,-171.11C160.45,-171.67 374.87,-170.7 564.45,-148.68"/>
<polygon fill="black" stroke="black" stroke-width="3" points="561.65,-152.06 571.17,-147.41 560.83,-145.11 561.65,-152.06"/>
<text text-anchor="middle" x="330" y="-179.69" font-family="Times New Roman,serif" font-size="30.00"> &#160;&#160;259 &#160;&#160;50% &#160;&#160;0.0342 mol/s &#160;&#160;&#160;1.00E+00</text>
</g>
<!-- R3 -->
<g id="node4" class="node">
<title>R3</title>
<g id="a_node4"><a xlink:href="3.svg" xlink:title="R3">
<polygon fill="cornsilk" stroke="none" points="67,-129.19 9,-129.19 9,-82.19 67,-82.19 67,-129.19"/>
<text text-anchor="middle" x="38" y="-97.19" font-family="Times New Roman,serif" font-size="35.00">R3</text>
</a>
</g>
</g>
<!-- R3&#45;&gt;R198 -->
<g id="edge3" class="edge">
<title>R3&#45;&gt;R198</title>
<path fill="none" stroke="black" stroke-width="3" d="M66.81,-102.74C144.49,-95.23 370.19,-78.36 564.47,-115.83"/>
<polygon fill="black" stroke="black" stroke-width="3" points="560.67,-119.44 571.16,-117.95 562.03,-112.57 560.67,-119.44"/>
<text text-anchor="middle" x="330" y="-124.69" font-family="Times New Roman,serif" font-size="30.00"> &#160;&#160;292 &#160;&#160;50% &#160;&#160;0.0342 mol/s &#160;&#160;&#160;1.00E+00</text>
</g>
<!-- R41 -->
<g id="node5" class="node">
<title>R41</title>
<g id="a_node5"><a xlink:href="41.svg" xlink:title="R41">
<polygon fill="cornsilk" stroke="none" points="76,-64.19 0,-64.19 0,-17.19 76,-17.19 76,-64.19"/>
<text text-anchor="middle" x="38" y="-32.19" font-family="Times New Roman,serif" font-size="35.00">R41</text>
</a>
</g>
</g>
<!-- R41&#45;&gt;R198 -->
<g id="edge4" class="edge">
<title>R41&#45;&gt;R198</title>
<path fill="none" stroke="black" stroke-width="3" d="M75.85,-30.82C166.17,-8.81 403.09,35.6 566,-54.69 585.43,-65.45 599.21,-86.32 608.12,-104.44"/>
<polygon fill="black" stroke="black" stroke-width="3" points="604.34,-102.78 611.69,-110.42 610.71,-99.87 604.34,-102.78"/>
<text text-anchor="middle" x="330" y="-63.69" font-family="Times New Roman,serif" font-size="30.00"> &#160;&#160;292 &#160;&#160;50% &#160;&#160;0.0342 mol/s &#160;&#160;&#160;1.00E+00</text>
</g>
</g>
</svg>
