<?xml version="1.0" encoding="UTF-8" standalone="no"?>
<!DOCTYPE svg PUBLIC "-//W3C//DTD SVG 1.1//EN"
 "http://www.w3.org/Graphics/SVG/1.1/DTD/svg11.dtd">
<!-- Generated by graphviz version 8.0.3 (20230416.2022)
 -->
<!-- Title: G Pages: 1 -->
<svg width="640pt" height="175pt"
 viewBox="0.00 0.00 720.00 197.30" xmlns="http://www.w3.org/2000/svg" xmlns:xlink="http://www.w3.org/1999/xlink">
<g id="graph0" class="graph" transform="scale(0.490421 0.490421) rotate(0) translate(4 353.61)">
<title>G</title>
<polygon fill="white" stroke="none" points="-4,4 -4,-353.61 1301,-353.61 1301,4 -4,4"/>
<text text-anchor="middle" x="648.5" y="-316.81" font-family="Arial" font-size="36.00" fill="blue">Reaction Path Analysis</text>
<!-- R198 -->
<g id="node1" class="node">
<title>R198</title>
<g id="a_node1"><a xlink:href="198.svg" xlink:title="R198">
<polygon fill="cornsilk" stroke="none" points="691,-164.11 597,-164.11 597,-117.11 691,-117.11 691,-164.11"/>
<text text-anchor="middle" x="644" y="-132.11" font-family="Times New Roman,serif" font-size="35.00">R198</text>
</a>
</g>
</g>
<!-- R159 -->
<g id="node6" class="node">
<title>R159</title>
<g id="a_node6"><a xlink:href="159.svg" xlink:title="R159">
<polygon fill="cornsilk" stroke="none" points="1297,-164.11 1203,-164.11 1203,-117.11 1297,-117.11 1297,-164.11"/>
<text text-anchor="middle" x="1250" y="-132.11" font-family="Times New Roman,serif" font-size="35.00">R159</text>
</a>
</g>
</g>
<!-- R198&#45;&gt;R159 -->
<g id="edge5" class="edge">
<title>R198&#45;&gt;R159</title>
<path fill="none" stroke="black" stroke-width="5" d="M690.76,-145.31C697.54,-145.85 704.45,-146.31 711,-146.61 914.12,-155.82 970.04,-156.1 1182.52,-146.27"/>
<polygon fill="black" stroke="black" stroke-width="5" points="1177.66,-154.98 1197.24,-145.31 1176.85,-137.5 1177.66,-154.98"/>
<text text-anchor="middle" x="947" y="-162.61" font-family="Times New Roman,serif" font-size="30.00"> &#160;&#160;682 &#160;&#160;99% &#160;&#160;1.1e&#45;20 mol/s &#160;&#160;&#160;2.01E&#45;06</text>
</g>
<!-- R198&#45;&gt;R159 -->
<g id="edge6" class="edge">
<title>R198&#45;&gt;R159</title>
<path fill="none" stroke="black" d="M688.06,-117.13C695.52,-114.02 703.34,-111.32 711,-109.61 915.74,-63.92 978.26,-63.92 1183,-109.61 1187.31,-110.57 1191.67,-111.84 1195.99,-113.33"/>
<polygon fill="black" stroke="black" points="1194.35,-116.83 1204.94,-117.13 1196.84,-110.29 1194.35,-116.83"/>
<text text-anchor="middle" x="947" y="-118.61" font-family="Times New Roman,serif" font-size="30.00"> &#160;&#160;696 &#160;&#160;0% &#160;&#160;2.2e&#45;26 mol/s &#160;&#160;&#160;1.00E+00</text>
</g>
<!-- R2 -->
<g id="node2" class="node">
<title>R2</title>
<g id="a_node2"><a xlink:href="2.svg" xlink:title="R2">
<polygon fill="cornsilk" stroke="none" points="67,-262.11 9,-262.11 9,-215.11 67,-215.11 67,-262.11"/>
<text text-anchor="middle" x="38" y="-230.11" font-family="Times New Roman,serif" font-size="35.00">R2</text>
</a>
</g>
</g>
<!-- R2&#45;&gt;R198 -->
<g id="edge1" class="edge">
<title>R2&#45;&gt;R198</title>
<path fill="none" stroke="black" stroke-width="3" d="M66.75,-244.78C150.96,-261.99 408.77,-303.44 588,-210.61 603.99,-202.33 616.81,-187.09 626.04,-172.94"/>
<polygon fill="black" stroke="black" stroke-width="3" points="627.35,-177.24 629.59,-166.88 621.38,-173.58 627.35,-177.24"/>
<text text-anchor="middle" x="341" y="-277.61" font-family="Times New Roman,serif" font-size="30.00"> &#160;&#160;259 &#160;&#160;50% &#160;&#160;2.18e&#45;15 mol/s &#160;&#160;&#160;1.00E+00</text>
</g>
<!-- R53 -->
<g id="node3" class="node">
<title>R53</title>
<g id="a_node3"><a xlink:href="53.svg" xlink:title="R53">
<polygon fill="cornsilk" stroke="none" points="76,-197.11 0,-197.11 0,-150.11 76,-150.11 76,-197.11"/>
<text text-anchor="middle" x="38" y="-165.11" font-family="Times New Roman,serif" font-size="35.00">R53</text>
</a>
</g>
</g>
<!-- R53&#45;&gt;R198 -->
<g id="edge2" class="edge">
<title>R53&#45;&gt;R198</title>
<path fill="none" stroke="black" stroke-width="3" d="M75.78,-174.12C162.72,-174.92 387.87,-174.5 586.25,-151.62"/>
<polygon fill="black" stroke="black" stroke-width="3" points="583.65,-154.98 593.17,-150.33 582.83,-148.03 583.65,-154.98"/>
<text text-anchor="middle" x="341" y="-182.61" font-family="Times New Roman,serif" font-size="30.00"> &#160;&#160;259 &#160;&#160;50% &#160;&#160;2.18e&#45;15 mol/s &#160;&#160;&#160;1.00E+00</text>
</g>
<!-- R3 -->
<g id="node4" class="node">
<title>R3</title>
<g id="a_node4"><a xlink:href="3.svg" xlink:title="R3">
<polygon fill="cornsilk" stroke="none" points="67,-132.11 9,-132.11 9,-85.11 67,-85.11 67,-132.11"/>
<text text-anchor="middle" x="38" y="-100.11" font-family="Times New Roman,serif" font-size="35.00">R3</text>
</a>
</g>
</g>
<!-- R3&#45;&gt;R198 -->
<g id="edge3" class="edge">
<title>R3&#45;&gt;R198</title>
<path fill="none" stroke="black" stroke-width="3" d="M66.8,-105.62C146.66,-97.77 383.49,-79.6 586.6,-118.77"/>
<polygon fill="black" stroke="black" stroke-width="3" points="582.67,-122.36 593.16,-120.87 584.03,-115.49 582.67,-122.36"/>
<text text-anchor="middle" x="341" y="-127.61" font-family="Times New Roman,serif" font-size="30.00"> &#160;&#160;292 &#160;&#160;50% &#160;&#160;2.18e&#45;15 mol/s &#160;&#160;&#160;1.00E+00</text>
</g>
<!-- R41 -->
<g id="node5" class="node">
<title>R41</title>
<g id="a_node5"><a xlink:href="41.svg" xlink:title="R41">
<polygon fill="cornsilk" stroke="none" points="76,-67.11 0,-67.11 0,-20.11 76,-20.11 76,-67.11"/>
<text text-anchor="middle" x="38" y="-35.11" font-family="Times New Roman,serif" font-size="35.00">R41</text>
</a>
</g>
</g>
<!-- R41&#45;&gt;R198 -->
<g id="edge4" class="edge">
<title>R41&#45;&gt;R198</title>
<path fill="none" stroke="black" stroke-width="3" d="M75.69,-33.56C168.5,-10.31 417.38,38.24 588,-56.61 607.8,-67.61 621.67,-89.09 630.53,-107.57"/>
<polygon fill="black" stroke="black" stroke-width="3" points="626.66,-105.74 633.94,-113.44 633.05,-102.88 626.66,-105.74"/>
<text text-anchor="middle" x="341" y="-65.61" font-family="Times New Roman,serif" font-size="30.00"> &#160;&#160;292 &#160;&#160;50% &#160;&#160;2.18e&#45;15 mol/s &#160;&#160;&#160;1.00E+00</text>
</g>
</g>
</svg>
