<?xml version="1.0" encoding="UTF-8" standalone="no"?>
<!DOCTYPE svg PUBLIC "-//W3C//DTD SVG 1.1//EN"
 "http://www.w3.org/Graphics/SVG/1.1/DTD/svg11.dtd">
<!-- Generated by graphviz version 8.0.3 (20230416.2022)
 -->
<!-- Title: G Pages: 1 -->
<svg width="640pt" height="84pt"
 viewBox="0.00 0.00 720.00 94.13" xmlns="http://www.w3.org/2000/svg" xmlns:xlink="http://www.w3.org/1999/xlink">
<g id="graph0" class="graph" transform="scale(0.743754 0.743754) rotate(0) translate(4 108.5)">
<title>G</title>
<polygon fill="white" stroke="none" points="-4,4 -4,-108.5 856.5,-108.5 856.5,4 -4,4"/>
<text text-anchor="middle" x="426.25" y="-71.7" font-family="Arial" font-size="36.00" fill="blue">Reaction Path Analysis</text>
<!-- CH3CH3 -->
<g id="node1" class="node">
<title>CH3CH3</title>
<g id="a_node1"><a xlink:href="2.svg" xlink:title="CH3CH3">
<polygon fill="none" stroke="none" points="852.5,-47 703.5,-47 703.5,0 852.5,0 852.5,-47"/>
<text text-anchor="middle" x="778" y="-15" font-family="Times New Roman,serif" font-size="35.00">CH3CH3</text>
</a>
</g>
</g>
<!-- CH3CH2(S) -->
<g id="node2" class="node">
<title>CH3CH2(S)</title>
<g id="a_node2"><a xlink:href="38.svg" xlink:title="CH3CH2(S)">
<polygon fill="dodgerblue" stroke="none" points="192,-47 0,-47 0,0 192,0 192,-47"/>
<text text-anchor="middle" x="96" y="-15" font-family="Times New Roman,serif" font-size="35.00">CH3CH2(S)</text>
</a>
</g>
</g>
<!-- CH3CH2(S)&#45;&gt;CH3CH3 -->
<g id="edge1" class="edge">
<title>CH3CH2(S)&#45;&gt;CH3CH3</title>
<path fill="none" stroke="green" stroke-width="6" d="M191.91,-23.5C321.82,-23.5 553.61,-23.5 683.03,-23.5"/>
<polygon fill="green" stroke="green" stroke-width="6" points="677.66,-34 697.66,-23.5 677.66,-13 677.66,-34"/>
<text text-anchor="middle" x="437" y="-32.5" font-family="Times New Roman,serif" font-size="30.00"> &#160;&#160;4 &#160;&#160;100% &#160;&#160;1.79e&#45;08 mol/s &#160;&#160;&#160;4.55E&#45;01</text>
</g>
</g>
</svg>
