<?xml version="1.0" encoding="UTF-8" standalone="no"?>
<!DOCTYPE svg PUBLIC "-//W3C//DTD SVG 1.1//EN"
 "http://www.w3.org/Graphics/SVG/1.1/DTD/svg11.dtd">
<!-- Generated by graphviz version 8.0.3 (20230416.2022)
 -->
<!-- Title: G Pages: 1 -->
<svg width="640pt" height="187pt"
 viewBox="0.00 0.00 720.00 210.60" xmlns="http://www.w3.org/2000/svg" xmlns:xlink="http://www.w3.org/1999/xlink">
<g id="graph0" class="graph" transform="scale(0.505529 0.505529) rotate(0) translate(4 366.31)">
<title>G</title>
<polygon fill="white" stroke="none" points="-4,4 -4,-366.31 1262,-366.31 1262,4 -4,4"/>
<text text-anchor="middle" x="629" y="-329.51" font-family="Arial" font-size="36.00" fill="blue">Reaction Path Analysis</text>
<!-- R20 -->
<g id="node1" class="node">
<title>R20</title>
<g id="a_node1"><a xlink:href="20.svg" xlink:title="R20">
<polygon fill="cornsilk" stroke="none" points="658,-169.81 582,-169.81 582,-122.81 658,-122.81 658,-169.81"/>
<text text-anchor="middle" x="620" y="-137.81" font-family="Times New Roman,serif" font-size="35.00">R20</text>
</a>
</g>
</g>
<!-- R35 -->
<g id="node4" class="node">
<title>R35</title>
<g id="a_node4"><a xlink:href="35.svg" xlink:title="R35">
<polygon fill="cornsilk" stroke="none" points="1249,-294.81 1173,-294.81 1173,-247.81 1249,-247.81 1249,-294.81"/>
<text text-anchor="middle" x="1211" y="-262.81" font-family="Times New Roman,serif" font-size="35.00">R35</text>
</a>
</g>
</g>
<!-- R20&#45;&gt;R35 -->
<g id="edge3" class="edge">
<title>R20&#45;&gt;R35</title>
<path fill="none" stroke="black" d="M626.86,-169.75C634.11,-193.32 648.95,-228.5 676,-245.31 756.29,-295.22 1046.95,-282.16 1162.32,-274.75"/>
<polygon fill="black" stroke="black" points="1162.5,-278.18 1172.25,-274.03 1162.04,-271.19 1162.5,-278.18"/>
<text text-anchor="middle" x="915.5" y="-290.31" font-family="Times New Roman,serif" font-size="30.00"> &#160;&#160;107 &#160;&#160;0% &#160;&#160;4.67e&#45;08 mol/s &#160;&#160;&#160;1.00E+00</text>
</g>
<!-- R49 -->
<g id="node5" class="node">
<title>R49</title>
<g id="a_node5"><a xlink:href="49.svg" xlink:title="R49">
<polygon fill="cornsilk" stroke="none" points="1249,-229.81 1173,-229.81 1173,-182.81 1249,-182.81 1249,-229.81"/>
<text text-anchor="middle" x="1211" y="-197.81" font-family="Times New Roman,serif" font-size="35.00">R49</text>
</a>
</g>
</g>
<!-- R20&#45;&gt;R49 -->
<g id="edge4" class="edge">
<title>R20&#45;&gt;R49</title>
<path fill="none" stroke="black" d="M650.63,-169.8C658.47,-174.83 667.2,-179.47 676,-182.31 765.64,-211.25 1048.87,-209.38 1162.32,-207.37"/>
<polygon fill="black" stroke="black" points="1162.15,-210.86 1172.08,-207.17 1162.02,-203.86 1162.15,-210.86"/>
<text text-anchor="middle" x="915.5" y="-217.31" font-family="Times New Roman,serif" font-size="30.00"> &#160;&#160;161 &#160;&#160;0% &#160;&#160;4.67e&#45;08 mol/s &#160;&#160;&#160;1.00E+00</text>
</g>
<!-- R114 -->
<g id="node6" class="node">
<title>R114</title>
<g id="a_node6"><a xlink:href="114.svg" xlink:title="R114">
<polygon fill="cornsilk" stroke="none" points="1258,-164.81 1164,-164.81 1164,-117.81 1258,-117.81 1258,-164.81"/>
<text text-anchor="middle" x="1211" y="-132.81" font-family="Times New Roman,serif" font-size="35.00">R114</text>
</a>
</g>
</g>
<!-- R20&#45;&gt;R114 -->
<g id="edge5" class="edge">
<title>R20&#45;&gt;R114</title>
<path fill="none" stroke="black" d="M657.84,-146C757.61,-145.15 1033.52,-142.81 1153.29,-141.79"/>
<polygon fill="black" stroke="black" points="1153.07,-145.29 1163.04,-141.7 1153.02,-138.29 1153.07,-145.29"/>
<text text-anchor="middle" x="915.5" y="-154.31" font-family="Times New Roman,serif" font-size="30.00"> &#160;&#160;162 &#160;&#160;0% &#160;&#160;4.67e&#45;08 mol/s &#160;&#160;&#160;1.00E+00</text>
</g>
<!-- R241 -->
<g id="node7" class="node">
<title>R241</title>
<g id="a_node7"><a xlink:href="241.svg" xlink:title="R241">
<polygon fill="cornsilk" stroke="none" points="1258,-80.81 1164,-80.81 1164,-33.81 1258,-33.81 1258,-80.81"/>
<text text-anchor="middle" x="1211" y="-48.81" font-family="Times New Roman,serif" font-size="35.00">R241</text>
</a>
</g>
</g>
<!-- R20&#45;&gt;R241 -->
<g id="edge6" class="edge">
<title>R20&#45;&gt;R241</title>
<path fill="none" stroke="black" d="M645.42,-122.85C654.36,-115.63 665,-108.5 676,-104.31 772.75,-67.5 1032.84,-81.86 1153.29,-68.27"/>
<polygon fill="black" stroke="black" points="1153.67,-71.63 1163.15,-66.92 1152.8,-64.68 1153.67,-71.63"/>
<text text-anchor="middle" x="915.5" y="-113.31" font-family="Times New Roman,serif" font-size="30.00"> &#160;&#160;424 &#160;&#160;0% &#160;&#160;1.01e&#45;11 mol/s &#160;&#160;&#160;1.00E+00</text>
</g>
<!-- R20&#45;&gt;R241 -->
<g id="edge7" class="edge">
<title>R20&#45;&gt;R241</title>
<path fill="none" stroke="black" stroke-width="5" d="M624.67,-122.89C630.36,-95.5 644.17,-51.37 676,-31.31 761.04,22.28 1020.01,-4.56 1143.62,-29.45"/>
<polygon fill="black" stroke="black" stroke-width="5" points="1136.62,-37.19 1158.01,-32.82 1140.28,-20.07 1136.62,-37.19"/>
<text text-anchor="middle" x="915.5" y="-40.31" font-family="Times New Roman,serif" font-size="30.00"> &#160;&#160;708 &#160;&#160;99% &#160;&#160;0.00402 mol/s &#160;&#160;&#160;2.51E&#45;09</text>
</g>
<!-- R7 -->
<g id="node2" class="node">
<title>R7</title>
<g id="a_node2"><a xlink:href="7.svg" xlink:title="R7">
<polygon fill="cornsilk" stroke="none" points="58,-202.81 0,-202.81 0,-155.81 58,-155.81 58,-202.81"/>
<text text-anchor="middle" x="29" y="-170.81" font-family="Times New Roman,serif" font-size="35.00">R7</text>
</a>
</g>
</g>
<!-- R7&#45;&gt;R20 -->
<g id="edge1" class="edge">
<title>R7&#45;&gt;R20</title>
<path fill="none" stroke="black" stroke-width="6" d="M57.77,-180.01C135.23,-181.56 360.51,-183.53 561.43,-158.27"/>
<polygon fill="black" stroke="black" stroke-width="6" points="557.58,-168.58 576.04,-155.57 554.85,-147.76 557.58,-168.58"/>
<text text-anchor="middle" x="324.5" y="-189.31" font-family="Times New Roman,serif" font-size="30.00"> &#160;&#160;24 &#160;&#160;100% &#160;&#160;4.67e&#45;08 mol/s &#160;&#160;&#160;1.00E+00</text>
</g>
<!-- R1 -->
<g id="node3" class="node">
<title>R1</title>
<g id="a_node3"><a xlink:href="1.svg" xlink:title="R1">
<polygon fill="cornsilk" stroke="none" points="58,-137.81 0,-137.81 0,-90.81 58,-90.81 58,-137.81"/>
<text text-anchor="middle" x="29" y="-105.81" font-family="Times New Roman,serif" font-size="35.00">R1</text>
</a>
</g>
</g>
<!-- R1&#45;&gt;R20 -->
<g id="edge2" class="edge">
<title>R1&#45;&gt;R20</title>
<path fill="none" stroke="black" stroke-width="6" d="M57.82,-110.84C135.86,-101.93 363.49,-81.51 561.86,-123"/>
<polygon fill="black" stroke="black" stroke-width="6" points="554.39,-132.43 576.18,-126.5 558.92,-111.92 554.39,-132.43"/>
<text text-anchor="middle" x="324.5" y="-133.31" font-family="Times New Roman,serif" font-size="30.00"> &#160;&#160;24 &#160;&#160;100% &#160;&#160;4.67e&#45;08 mol/s &#160;&#160;&#160;1.00E+00</text>
</g>
</g>
</svg>
