<?xml version="1.0" encoding="UTF-8" standalone="no"?>
<!DOCTYPE svg PUBLIC "-//W3C//DTD SVG 1.1//EN"
 "http://www.w3.org/Graphics/SVG/1.1/DTD/svg11.dtd">
<!-- Generated by graphviz version 8.0.3 (20230416.2022)
 -->
<!-- Title: G Pages: 1 -->
<svg width="610pt" height="490pt"
 viewBox="0.00 0.00 686.00 551.41" xmlns="http://www.w3.org/2000/svg" xmlns:xlink="http://www.w3.org/1999/xlink">
<g id="graph0" class="graph" transform="scale(0.888889 0.888889) rotate(0) translate(4 547.41)">
<title>G</title>
<polygon fill="white" stroke="none" points="-4,4 -4,-547.41 682,-547.41 682,4 -4,4"/>
<text text-anchor="middle" x="339" y="-510.61" font-family="Arial" font-size="36.00" fill="blue">Reaction Path Analysis</text>
<!-- R202 -->
<g id="node1" class="node">
<title>R202</title>
<g id="a_node1"><a xlink:href="202.svg" xlink:title="R202">
<polygon fill="cornsilk" stroke="none" points="678,-257.91 584,-257.91 584,-210.91 678,-210.91 678,-257.91"/>
<text text-anchor="middle" x="631" y="-225.91" font-family="Times New Roman,serif" font-size="35.00">R202</text>
</a>
</g>
</g>
<!-- R2 -->
<g id="node2" class="node">
<title>R2</title>
<g id="a_node2"><a xlink:href="2.svg" xlink:title="R2">
<polygon fill="cornsilk" stroke="none" points="76,-471.91 18,-471.91 18,-424.91 76,-424.91 76,-471.91"/>
<text text-anchor="middle" x="47" y="-439.91" font-family="Times New Roman,serif" font-size="35.00">R2</text>
</a>
</g>
</g>
<!-- R2&#45;&gt;R202 -->
<g id="edge1" class="edge">
<title>R2&#45;&gt;R202</title>
<path fill="none" stroke="black" d="M75.87,-451.03C173.31,-459.62 497.05,-482.9 575,-421.41 621.22,-384.95 630.02,-311.69 630.91,-268.48"/>
<polygon fill="black" stroke="black" points="634.42,-268.69 630.99,-258.67 627.42,-268.64 634.42,-268.69"/>
<text text-anchor="middle" x="339" y="-471.41" font-family="Times New Roman,serif" font-size="30.00"> &#160;&#160;263 &#160;&#160;0% &#160;&#160;0.0342 mol/s &#160;&#160;&#160;1.00E+00</text>
</g>
<!-- R60 -->
<g id="node3" class="node">
<title>R60</title>
<g id="a_node3"><a xlink:href="60.svg" xlink:title="R60">
<polygon fill="cornsilk" stroke="none" points="85,-406.91 9,-406.91 9,-359.91 85,-359.91 85,-406.91"/>
<text text-anchor="middle" x="47" y="-374.91" font-family="Times New Roman,serif" font-size="35.00">R60</text>
</a>
</g>
</g>
<!-- R60&#45;&gt;R202 -->
<g id="edge2" class="edge">
<title>R60&#45;&gt;R202</title>
<path fill="none" stroke="black" d="M84.6,-383.94C197.45,-385.29 534.82,-386.95 575,-359.41 605.09,-338.78 618.87,-297.8 625.09,-268.38"/>
<polygon fill="black" stroke="black" points="628.68,-269.22 627.12,-258.74 621.81,-267.91 628.68,-269.22"/>
<text text-anchor="middle" x="339" y="-393.41" font-family="Times New Roman,serif" font-size="30.00"> &#160;&#160;263 &#160;&#160;0% &#160;&#160;0.0342 mol/s &#160;&#160;&#160;1.00E+00</text>
</g>
<!-- R4 -->
<g id="node4" class="node">
<title>R4</title>
<g id="a_node4"><a xlink:href="4.svg" xlink:title="R4">
<polygon fill="cornsilk" stroke="none" points="76,-341.91 18,-341.91 18,-294.91 76,-294.91 76,-341.91"/>
<text text-anchor="middle" x="47" y="-309.91" font-family="Times New Roman,serif" font-size="35.00">R4</text>
</a>
</g>
</g>
<!-- R4&#45;&gt;R202 -->
<g id="edge3" class="edge">
<title>R4&#45;&gt;R202</title>
<path fill="none" stroke="black" d="M75.97,-319.55C171.63,-323.06 484.8,-331.09 575,-290.41 587.01,-284.99 597.79,-275.68 606.56,-266.19"/>
<polygon fill="black" stroke="black" points="609.84,-268.74 613.73,-258.89 604.54,-264.17 609.84,-268.74"/>
<text text-anchor="middle" x="339" y="-331.41" font-family="Times New Roman,serif" font-size="30.00"> &#160;&#160;307 &#160;&#160;0% &#160;&#160;0.0342 mol/s &#160;&#160;&#160;1.00E+00</text>
</g>
<!-- R41 -->
<g id="node5" class="node">
<title>R41</title>
<g id="a_node5"><a xlink:href="41.svg" xlink:title="R41">
<polygon fill="cornsilk" stroke="none" points="85,-276.91 9,-276.91 9,-229.91 85,-229.91 85,-276.91"/>
<text text-anchor="middle" x="47" y="-244.91" font-family="Times New Roman,serif" font-size="35.00">R41</text>
</a>
</g>
</g>
<!-- R41&#45;&gt;R202 -->
<g id="edge4" class="edge">
<title>R41&#45;&gt;R202</title>
<path fill="none" stroke="black" d="M84.79,-253.56C169.11,-253.69 383.09,-252.71 573.34,-240.42"/>
<polygon fill="black" stroke="black" points="573.36,-243.86 583.11,-239.71 572.9,-236.87 573.36,-243.86"/>
<text text-anchor="middle" x="339" y="-262.41" font-family="Times New Roman,serif" font-size="30.00"> &#160;&#160;307 &#160;&#160;0% &#160;&#160;0.0342 mol/s &#160;&#160;&#160;1.00E+00</text>
</g>
<!-- R311 -->
<g id="node6" class="node">
<title>R311</title>
<g id="a_node6"><a xlink:href="311.svg" xlink:title="R311">
<polygon fill="cornsilk" stroke="none" points="94,-192.91 0,-192.91 0,-145.91 94,-145.91 94,-192.91"/>
<text text-anchor="middle" x="47" y="-160.91" font-family="Times New Roman,serif" font-size="35.00">R311</text>
</a>
</g>
</g>
<!-- R311&#45;&gt;R202 -->
<g id="edge5" class="edge">
<title>R311&#45;&gt;R202</title>
<path fill="none" stroke="black" d="M93.75,-182.72C96.86,-183.36 99.97,-183.94 103,-184.41 206.74,-200.43 474.02,-174.73 575,-203.41 578.12,-204.29 581.24,-205.39 584.34,-206.63"/>
<polygon fill="black" stroke="black" points="582.52,-210.1 593.08,-211.03 585.41,-203.72 582.52,-210.1"/>
<text text-anchor="middle" x="339" y="-212.41" font-family="Times New Roman,serif" font-size="30.00"> &#160;&#160;698 &#160;&#160;2% &#160;&#160;22.1 mol/s &#160;&#160;&#160;1.23E&#45;04</text>
</g>
<!-- R311&#45;&gt;R202 -->
<g id="edge8" class="edge">
<title>R311&#45;&gt;R202</title>
<path fill="none" stroke="black" d="M93.83,-149.61C96.9,-148.74 99.97,-147.99 103,-147.41 154.5,-137.49 529.06,-122.1 575,-147.41 595.7,-158.81 609.69,-181.64 618.38,-201.06"/>
<polygon fill="black" stroke="black" points="615.48,-202.22 622.56,-210.11 621.95,-199.53 615.48,-202.22"/>
<text text-anchor="middle" x="339" y="-156.41" font-family="Times New Roman,serif" font-size="30.00"> &#160;&#160;786 &#160;&#160;0% &#160;&#160;0.00272 mol/s &#160;&#160;&#160;1.00E+00</text>
</g>
<!-- R226 -->
<g id="node7" class="node">
<title>R226</title>
<g id="a_node7"><a xlink:href="226.svg" xlink:title="R226">
<polygon fill="cornsilk" stroke="none" points="94,-89.91 0,-89.91 0,-42.91 94,-42.91 94,-89.91"/>
<text text-anchor="middle" x="47" y="-57.91" font-family="Times New Roman,serif" font-size="35.00">R226</text>
</a>
</g>
</g>
<!-- R226&#45;&gt;R202 -->
<g id="edge6" class="edge">
<title>R226&#45;&gt;R202</title>
<path fill="none" stroke="black" stroke-width="5" d="M93.9,-71.62C96.98,-71.9 100.03,-72.17 103,-72.41 155.35,-76.59 532.3,-65.85 575,-96.41 605.1,-117.95 618.74,-158.71 624.91,-190.38"/>
<polygon fill="black" stroke="black" stroke-width="5" points="616.4,-186.56 628.16,-204.95 633.68,-183.83 616.4,-186.56"/>
<text text-anchor="middle" x="339" y="-105.41" font-family="Times New Roman,serif" font-size="30.00"> &#160;&#160;699 &#160;&#160;97% &#160;&#160;793.0 mol/s &#160;&#160;&#160;3.43E&#45;06</text>
</g>
<!-- R226&#45;&gt;R202 -->
<g id="edge7" class="edge">
<title>R226&#45;&gt;R202</title>
<path fill="none" stroke="black" d="M83.56,-42.95C89.81,-39.84 96.43,-37.13 103,-35.41 204.45,-8.78 491.54,28.12 575,-35.41 601.17,-55.33 618.09,-148.97 625.57,-200.39"/>
<polygon fill="black" stroke="black" points="622.2,-200.56 627.06,-209.98 629.13,-199.59 622.2,-200.56"/>
<text text-anchor="middle" x="339" y="-44.41" font-family="Times New Roman,serif" font-size="30.00"> &#160;&#160;704 &#160;&#160;0% &#160;&#160;0.00272 mol/s &#160;&#160;&#160;1.00E+00</text>
</g>
</g>
</svg>
