<?xml version="1.0" encoding="UTF-8" standalone="no"?>
<!DOCTYPE svg PUBLIC "-//W3C//DTD SVG 1.1//EN"
 "http://www.w3.org/Graphics/SVG/1.1/DTD/svg11.dtd">
<!-- Generated by graphviz version 8.0.3 (20230416.2022)
 -->
<!-- Title: G Pages: 1 -->
<svg width="640pt" height="220pt"
 viewBox="0.00 0.00 720.00 247.11" xmlns="http://www.w3.org/2000/svg" xmlns:xlink="http://www.w3.org/1999/xlink">
<g id="graph0" class="graph" transform="scale(0.507534 0.507534) rotate(0) translate(4 428.79)">
<title>G</title>
<polygon fill="white" stroke="none" points="-4,4 -4,-428.79 1257,-428.79 1257,4 -4,4"/>
<text text-anchor="middle" x="626.5" y="-391.99" font-family="Arial" font-size="36.00" fill="blue">Reaction Path Analysis</text>
<!-- R205 -->
<g id="node1" class="node">
<title>R205</title>
<g id="a_node1"><a xlink:href="205.svg" xlink:title="R205">
<polygon fill="cornsilk" stroke="none" points="669,-201.29 575,-201.29 575,-154.29 669,-154.29 669,-201.29"/>
<text text-anchor="middle" x="622" y="-169.29" font-family="Times New Roman,serif" font-size="35.00">R205</text>
</a>
</g>
</g>
<!-- R208 -->
<g id="node6" class="node">
<title>R208</title>
<g id="a_node6"><a xlink:href="208.svg" xlink:title="R208">
<polygon fill="cornsilk" stroke="none" points="1253,-294.29 1159,-294.29 1159,-247.29 1253,-247.29 1253,-294.29"/>
<text text-anchor="middle" x="1206" y="-262.29" font-family="Times New Roman,serif" font-size="35.00">R208</text>
</a>
</g>
</g>
<!-- R205&#45;&gt;R208 -->
<g id="edge5" class="edge">
<title>R205&#45;&gt;R208</title>
<path fill="none" stroke="black" stroke-width="2" d="M636.66,-201.25C646.27,-215.38 660.52,-232.24 678,-240.79 833.91,-317.07 1047.59,-296.9 1148.21,-281.25"/>
<polygon fill="black" stroke="black" stroke-width="2" points="1147.72,-284.55 1157.04,-279.51 1146.61,-277.64 1147.72,-284.55"/>
<text text-anchor="middle" x="914" y="-304.79" font-family="Times New Roman,serif" font-size="30.00"> &#160;&#160;515 &#160;&#160;35% &#160;&#160;0.0342 mol/s &#160;&#160;&#160;1.00E+00</text>
</g>
<!-- R257 -->
<g id="node7" class="node">
<title>R257</title>
<g id="a_node7"><a xlink:href="257.svg" xlink:title="R257">
<polygon fill="cornsilk" stroke="none" points="1253,-229.29 1159,-229.29 1159,-182.29 1253,-182.29 1253,-229.29"/>
<text text-anchor="middle" x="1206" y="-197.29" font-family="Times New Roman,serif" font-size="35.00">R257</text>
</a>
</g>
</g>
<!-- R205&#45;&gt;R257 -->
<g id="edge6" class="edge">
<title>R205&#45;&gt;R257</title>
<path fill="none" stroke="black" stroke-width="2" d="M668.89,-183.03C671.97,-183.31 675.03,-183.57 678,-183.79 848.84,-196.66 1051.45,-202.47 1148.14,-204.67"/>
<polygon fill="black" stroke="black" stroke-width="2" points="1146.04,-208.19 1156.12,-204.91 1146.2,-201.19 1146.04,-208.19"/>
<text text-anchor="middle" x="914" y="-212.79" font-family="Times New Roman,serif" font-size="30.00"> &#160;&#160;516 &#160;&#160;35% &#160;&#160;0.0342 mol/s &#160;&#160;&#160;1.00E+00</text>
</g>
<!-- R149 -->
<g id="node8" class="node">
<title>R149</title>
<g id="a_node8"><a xlink:href="149.svg" xlink:title="R149">
<polygon fill="cornsilk" stroke="none" points="1253,-141.29 1159,-141.29 1159,-94.29 1253,-94.29 1253,-141.29"/>
<text text-anchor="middle" x="1206" y="-109.29" font-family="Times New Roman,serif" font-size="35.00">R149</text>
</a>
</g>
</g>
<!-- R205&#45;&gt;R149 -->
<g id="edge7" class="edge">
<title>R205&#45;&gt;R149</title>
<path fill="none" stroke="black" stroke-width="2" d="M658.92,-154.41C665.08,-151.34 671.57,-148.62 678,-146.79 775.92,-118.98 1029.67,-138.08 1148.43,-127.69"/>
<polygon fill="black" stroke="black" stroke-width="2" points="1146.55,-131.09 1156.15,-126.62 1145.86,-124.13 1146.55,-131.09"/>
<text text-anchor="middle" x="914" y="-155.79" font-family="Times New Roman,serif" font-size="30.00"> &#160;&#160;674 &#160;&#160;27% &#160;&#160;0.0264 mol/s &#160;&#160;&#160;8.53E&#45;02</text>
</g>
<!-- R205&#45;&gt;R149 -->
<g id="edge8" class="edge">
<title>R205&#45;&gt;R149</title>
<path fill="none" stroke="black" d="M630.44,-154.5C638.5,-133.61 653.58,-104.24 678,-90.79 861.74,10.43 945.66,-43.34 1150,-90.79 1150.49,-90.91 1150.99,-91.03 1151.48,-91.15"/>
<polygon fill="black" stroke="black" points="1150.25,-94.75 1160.84,-94.39 1152.34,-88.07 1150.25,-94.75"/>
<text text-anchor="middle" x="914" y="-99.79" font-family="Times New Roman,serif" font-size="30.00"> &#160;&#160;700 &#160;&#160;2% &#160;&#160;0.00246 mol/s &#160;&#160;&#160;9.15E&#45;01</text>
</g>
<!-- R2 -->
<g id="node2" class="node">
<title>R2</title>
<g id="a_node2"><a xlink:href="2.svg" xlink:title="R2">
<polygon fill="cornsilk" stroke="none" points="67,-331.29 9,-331.29 9,-284.29 67,-284.29 67,-331.29"/>
<text text-anchor="middle" x="38" y="-299.29" font-family="Times New Roman,serif" font-size="35.00">R2</text>
</a>
</g>
</g>
<!-- R2&#45;&gt;R205 -->
<g id="edge1" class="edge">
<title>R2&#45;&gt;R205</title>
<path fill="none" stroke="black" stroke-width="3" d="M66.7,-315.12C150.02,-335.45 402.62,-384.54 566,-280.79 590.34,-265.34 604.61,-235.27 612.49,-211.59"/>
<polygon fill="black" stroke="black" stroke-width="3" points="615.08,-215.82 614.67,-205.23 608.39,-213.76 615.08,-215.82"/>
<text text-anchor="middle" x="330" y="-352.79" font-family="Times New Roman,serif" font-size="30.00"> &#160;&#160;266 &#160;&#160;46% &#160;&#160;0.0342 mol/s &#160;&#160;&#160;1.00E+00</text>
</g>
<!-- R86 -->
<g id="node3" class="node">
<title>R86</title>
<g id="a_node3"><a xlink:href="86.svg" xlink:title="R86">
<polygon fill="cornsilk" stroke="none" points="76,-266.29 0,-266.29 0,-219.29 76,-219.29 76,-266.29"/>
<text text-anchor="middle" x="38" y="-234.29" font-family="Times New Roman,serif" font-size="35.00">R86</text>
</a>
</g>
</g>
<!-- R86&#45;&gt;R205 -->
<g id="edge2" class="edge">
<title>R86&#45;&gt;R205</title>
<path fill="none" stroke="black" stroke-width="3" d="M75.84,-243.37C180,-244.6 474.98,-245.22 566,-214.79 571.94,-212.81 577.85,-209.99 583.46,-206.79"/>
<polygon fill="black" stroke="black" stroke-width="3" points="582.94,-211.37 589.58,-203.11 579.24,-205.42 582.94,-211.37"/>
<text text-anchor="middle" x="330" y="-252.79" font-family="Times New Roman,serif" font-size="30.00"> &#160;&#160;266 &#160;&#160;46% &#160;&#160;0.0342 mol/s &#160;&#160;&#160;1.00E+00</text>
</g>
<!-- R13 -->
<g id="node4" class="node">
<title>R13</title>
<g id="a_node4"><a xlink:href="13.svg" xlink:title="R13">
<polygon fill="cornsilk" stroke="none" points="76,-201.29 0,-201.29 0,-154.29 76,-154.29 76,-201.29"/>
<text text-anchor="middle" x="38" y="-169.29" font-family="Times New Roman,serif" font-size="35.00">R13</text>
</a>
</g>
</g>
<!-- R13&#45;&gt;R205 -->
<g id="edge3" class="edge">
<title>R13&#45;&gt;R205</title>
<path fill="none" stroke="black" stroke-width="3" d="M75.85,-177.79C174.61,-177.79 445.77,-177.79 564.3,-177.79"/>
<polygon fill="black" stroke="black" stroke-width="3" points="561.28,-181.29 571.28,-177.79 561.28,-174.29 561.28,-181.29"/>
<text text-anchor="middle" x="330" y="-186.79" font-family="Times New Roman,serif" font-size="30.00"> &#160;&#160;344 &#160;&#160;46% &#160;&#160;0.034 mol/s &#160;&#160;&#160;9.94E&#45;01</text>
</g>
<!-- R41 -->
<g id="node5" class="node">
<title>R41</title>
<g id="a_node5"><a xlink:href="41.svg" xlink:title="R41">
<polygon fill="cornsilk" stroke="none" points="76,-136.29 0,-136.29 0,-89.29 76,-89.29 76,-136.29"/>
<text text-anchor="middle" x="38" y="-104.29" font-family="Times New Roman,serif" font-size="35.00">R41</text>
</a>
</g>
</g>
<!-- R41&#45;&gt;R205 -->
<g id="edge4" class="edge">
<title>R41&#45;&gt;R205</title>
<path fill="none" stroke="black" stroke-width="3" d="M75.7,-108.21C163.27,-98.64 390.26,-82.04 566,-140.79 571.94,-142.78 577.85,-145.6 583.46,-148.8"/>
<polygon fill="black" stroke="black" stroke-width="3" points="579.24,-150.16 589.58,-152.47 582.94,-144.22 579.24,-150.16"/>
<text text-anchor="middle" x="330" y="-149.79" font-family="Times New Roman,serif" font-size="30.00"> &#160;&#160;344 &#160;&#160;46% &#160;&#160;0.034 mol/s &#160;&#160;&#160;9.94E&#45;01</text>
</g>
<!-- R97 -->
<g id="node9" class="node">
<title>R97</title>
<g id="a_node9"><a xlink:href="97.svg" xlink:title="R97">
<polygon fill="cornsilk" stroke="none" points="76,-71.29 0,-71.29 0,-24.29 76,-24.29 76,-71.29"/>
<text text-anchor="middle" x="38" y="-39.29" font-family="Times New Roman,serif" font-size="35.00">R97</text>
</a>
</g>
</g>
<!-- R97&#45;&gt;R205 -->
<g id="edge9" class="edge">
<title>R97&#45;&gt;R205</title>
<path fill="none" stroke="black" d="M75.71,-36.65C167.23,-11.23 409.44,41.34 566,-60.79 594.38,-79.31 608.41,-116.67 615.15,-144.22"/>
<polygon fill="black" stroke="black" points="611.88,-144.6 617.47,-153.6 618.71,-143.08 611.88,-144.6"/>
<text text-anchor="middle" x="330" y="-69.79" font-family="Times New Roman,serif" font-size="30.00"> &#160;&#160;701 &#160;&#160;6% &#160;&#160;0.00467 mol/s &#160;&#160;&#160;2.69E&#45;01</text>
</g>
</g>
</svg>
