<?xml version="1.0" encoding="UTF-8" standalone="no"?>
<!DOCTYPE svg PUBLIC "-//W3C//DTD SVG 1.1//EN"
 "http://www.w3.org/Graphics/SVG/1.1/DTD/svg11.dtd">
<!-- Generated by graphviz version 8.0.3 (20230416.2022)
 -->
<!-- Title: G Pages: 1 -->
<svg width="640pt" height="215pt"
 viewBox="0.00 0.00 720.00 242.13" xmlns="http://www.w3.org/2000/svg" xmlns:xlink="http://www.w3.org/1999/xlink">
<g id="graph0" class="graph" transform="scale(0.490421 0.490421) rotate(0) translate(4 434.87)">
<title>G</title>
<polygon fill="white" stroke="none" points="-4,4 -4,-434.87 1301,-434.87 1301,4 -4,4"/>
<text text-anchor="middle" x="648.5" y="-398.07" font-family="Arial" font-size="36.00" fill="blue">Reaction Path Analysis</text>
<!-- R205 -->
<g id="node1" class="node">
<title>R205</title>
<g id="a_node1"><a xlink:href="205.svg" xlink:title="R205">
<polygon fill="cornsilk" stroke="none" points="691,-204.37 597,-204.37 597,-157.37 691,-157.37 691,-204.37"/>
<text text-anchor="middle" x="644" y="-172.37" font-family="Times New Roman,serif" font-size="35.00">R205</text>
</a>
</g>
</g>
<!-- R208 -->
<g id="node6" class="node">
<title>R208</title>
<g id="a_node6"><a xlink:href="208.svg" xlink:title="R208">
<polygon fill="cornsilk" stroke="none" points="1297,-297.37 1203,-297.37 1203,-250.37 1297,-250.37 1297,-297.37"/>
<text text-anchor="middle" x="1250" y="-265.37" font-family="Times New Roman,serif" font-size="35.00">R208</text>
</a>
</g>
</g>
<!-- R205&#45;&gt;R208 -->
<g id="edge5" class="edge">
<title>R205&#45;&gt;R208</title>
<path fill="none" stroke="black" stroke-width="3" d="M658.14,-204.08C667.71,-218.57 682.12,-236.08 700,-244.87 863.81,-325.38 1089.23,-301.79 1192.81,-284.7"/>
<polygon fill="black" stroke="black" stroke-width="3" points="1190.07,-288.04 1199.35,-282.91 1188.9,-281.13 1190.07,-288.04"/>
<text text-anchor="middle" x="947" y="-309.87" font-family="Times New Roman,serif" font-size="30.00"> &#160;&#160;515 &#160;&#160;49% &#160;&#160;2.18e&#45;15 mol/s &#160;&#160;&#160;1.00E+00</text>
</g>
<!-- R257 -->
<g id="node7" class="node">
<title>R257</title>
<g id="a_node7"><a xlink:href="257.svg" xlink:title="R257">
<polygon fill="cornsilk" stroke="none" points="1297,-232.37 1203,-232.37 1203,-185.37 1297,-185.37 1297,-232.37"/>
<text text-anchor="middle" x="1250" y="-200.37" font-family="Times New Roman,serif" font-size="35.00">R257</text>
</a>
</g>
</g>
<!-- R205&#45;&gt;R257 -->
<g id="edge6" class="edge">
<title>R205&#45;&gt;R257</title>
<path fill="none" stroke="black" stroke-width="3" d="M690.89,-186.11C693.97,-186.39 697.03,-186.65 700,-186.87 879.48,-200.24 1092.61,-205.85 1192.3,-207.88"/>
<polygon fill="black" stroke="black" stroke-width="3" points="1188.96,-211.39 1199.03,-208.09 1189.1,-204.39 1188.96,-211.39"/>
<text text-anchor="middle" x="947" y="-216.87" font-family="Times New Roman,serif" font-size="30.00"> &#160;&#160;516 &#160;&#160;49% &#160;&#160;2.18e&#45;15 mol/s &#160;&#160;&#160;1.00E+00</text>
</g>
<!-- R149 -->
<g id="node8" class="node">
<title>R149</title>
<g id="a_node8"><a xlink:href="149.svg" xlink:title="R149">
<polygon fill="cornsilk" stroke="none" points="1297,-144.37 1203,-144.37 1203,-97.37 1297,-97.37 1297,-144.37"/>
<text text-anchor="middle" x="1250" y="-112.37" font-family="Times New Roman,serif" font-size="35.00">R149</text>
</a>
</g>
</g>
<!-- R205&#45;&gt;R149 -->
<g id="edge7" class="edge">
<title>R205&#45;&gt;R149</title>
<path fill="none" stroke="black" d="M680.92,-157.48C687.08,-154.4 693.57,-151.69 700,-149.87 802.61,-120.82 1068.59,-141.54 1192.35,-130.77"/>
<polygon fill="black" stroke="black" points="1192.55,-134.17 1202.15,-129.7 1191.86,-127.2 1192.55,-134.17"/>
<text text-anchor="middle" x="947" y="-158.87" font-family="Times New Roman,serif" font-size="30.00"> &#160;&#160;674 &#160;&#160;0% &#160;&#160;1.62e&#45;25 mol/s &#160;&#160;&#160;1.07E&#45;01</text>
</g>
<!-- R205&#45;&gt;R149 -->
<g id="edge8" class="edge">
<title>R205&#45;&gt;R149</title>
<path fill="none" stroke="black" d="M652.44,-157.57C660.5,-136.68 675.58,-107.32 700,-93.87 892.31,12.07 980.14,-44.2 1194,-93.87 1194.49,-93.98 1194.99,-94.1 1195.48,-94.23"/>
<polygon fill="black" stroke="black" points="1194.25,-97.82 1204.84,-97.47 1196.34,-91.14 1194.25,-97.82"/>
<text text-anchor="middle" x="947" y="-102.87" font-family="Times New Roman,serif" font-size="30.00"> &#160;&#160;700 &#160;&#160;0% &#160;&#160;1.94e&#45;26 mol/s &#160;&#160;&#160;8.93E&#45;01</text>
</g>
<!-- R2 -->
<g id="node2" class="node">
<title>R2</title>
<g id="a_node2"><a xlink:href="2.svg" xlink:title="R2">
<polygon fill="cornsilk" stroke="none" points="67,-334.37 9,-334.37 9,-287.37 67,-287.37 67,-334.37"/>
<text text-anchor="middle" x="38" y="-302.37" font-family="Times New Roman,serif" font-size="35.00">R2</text>
</a>
</g>
</g>
<!-- R2&#45;&gt;R205 -->
<g id="edge1" class="edge">
<title>R2&#45;&gt;R205</title>
<path fill="none" stroke="black" stroke-width="3" d="M66.93,-318.34C152.76,-339.6 417.11,-392.14 588,-283.87 612.35,-268.44 626.62,-238.36 634.5,-214.68"/>
<polygon fill="black" stroke="black" stroke-width="3" points="637.09,-218.91 636.68,-208.32 630.4,-216.85 637.09,-218.91"/>
<text text-anchor="middle" x="341" y="-358.87" font-family="Times New Roman,serif" font-size="30.00"> &#160;&#160;266 &#160;&#160;49% &#160;&#160;2.18e&#45;15 mol/s &#160;&#160;&#160;1.00E+00</text>
</g>
<!-- R86 -->
<g id="node3" class="node">
<title>R86</title>
<g id="a_node3"><a xlink:href="86.svg" xlink:title="R86">
<polygon fill="cornsilk" stroke="none" points="76,-269.37 0,-269.37 0,-222.37 76,-222.37 76,-269.37"/>
<text text-anchor="middle" x="38" y="-237.37" font-family="Times New Roman,serif" font-size="35.00">R86</text>
</a>
</g>
</g>
<!-- R86&#45;&gt;R205 -->
<g id="edge2" class="edge">
<title>R86&#45;&gt;R205</title>
<path fill="none" stroke="black" stroke-width="3" d="M75.83,-246.54C182.93,-248.08 492.7,-249.61 588,-217.87 593.95,-215.89 599.85,-213.08 605.46,-209.87"/>
<polygon fill="black" stroke="black" stroke-width="3" points="604.94,-214.45 611.59,-206.2 601.25,-208.51 604.94,-214.45"/>
<text text-anchor="middle" x="341" y="-255.87" font-family="Times New Roman,serif" font-size="30.00"> &#160;&#160;266 &#160;&#160;49% &#160;&#160;2.18e&#45;15 mol/s &#160;&#160;&#160;1.00E+00</text>
</g>
<!-- R13 -->
<g id="node4" class="node">
<title>R13</title>
<g id="a_node4"><a xlink:href="13.svg" xlink:title="R13">
<polygon fill="cornsilk" stroke="none" points="76,-204.37 0,-204.37 0,-157.37 76,-157.37 76,-204.37"/>
<text text-anchor="middle" x="38" y="-172.37" font-family="Times New Roman,serif" font-size="35.00">R13</text>
</a>
</g>
</g>
<!-- R13&#45;&gt;R205 -->
<g id="edge3" class="edge">
<title>R13&#45;&gt;R205</title>
<path fill="none" stroke="black" stroke-width="3" d="M75.87,-180.87C177.83,-180.87 464.07,-180.87 586.4,-180.87"/>
<polygon fill="black" stroke="black" stroke-width="3" points="583.37,-184.37 593.37,-180.87 583.37,-177.37 583.37,-184.37"/>
<text text-anchor="middle" x="341" y="-189.87" font-family="Times New Roman,serif" font-size="30.00"> &#160;&#160;344 &#160;&#160;49% &#160;&#160;2.18e&#45;15 mol/s &#160;&#160;&#160;1.00E+00</text>
</g>
<!-- R41 -->
<g id="node5" class="node">
<title>R41</title>
<g id="a_node5"><a xlink:href="41.svg" xlink:title="R41">
<polygon fill="cornsilk" stroke="none" points="76,-139.37 0,-139.37 0,-92.37 76,-92.37 76,-139.37"/>
<text text-anchor="middle" x="38" y="-107.37" font-family="Times New Roman,serif" font-size="35.00">R41</text>
</a>
</g>
</g>
<!-- R41&#45;&gt;R205 -->
<g id="edge4" class="edge">
<title>R41&#45;&gt;R205</title>
<path fill="none" stroke="black" stroke-width="3" d="M75.88,-111.14C166.1,-100.95 403.97,-82.56 588,-143.87 593.95,-145.85 599.85,-148.66 605.46,-151.86"/>
<polygon fill="black" stroke="black" stroke-width="3" points="601.25,-153.23 611.59,-155.53 604.94,-147.28 601.25,-153.23"/>
<text text-anchor="middle" x="341" y="-152.87" font-family="Times New Roman,serif" font-size="30.00"> &#160;&#160;344 &#160;&#160;49% &#160;&#160;2.18e&#45;15 mol/s &#160;&#160;&#160;1.00E+00</text>
</g>
<!-- R97 -->
<g id="node9" class="node">
<title>R97</title>
<g id="a_node9"><a xlink:href="97.svg" xlink:title="R97">
<polygon fill="cornsilk" stroke="none" points="76,-74.37 0,-74.37 0,-27.37 76,-27.37 76,-74.37"/>
<text text-anchor="middle" x="38" y="-42.37" font-family="Times New Roman,serif" font-size="35.00">R97</text>
</a>
</g>
</g>
<!-- R97&#45;&gt;R205 -->
<g id="edge9" class="edge">
<title>R97&#45;&gt;R205</title>
<path fill="none" stroke="black" d="M75.85,-39.49C170.12,-12.75 424.14,44.08 588,-62.87 616.57,-81.52 630.57,-119.2 637.25,-146.99"/>
<polygon fill="black" stroke="black" points="633.99,-147.44 639.54,-156.47 640.82,-145.95 633.99,-147.44"/>
<text text-anchor="middle" x="341" y="-71.87" font-family="Times New Roman,serif" font-size="30.00"> &#160;&#160;701 &#160;&#160;0% &#160;&#160;3.63e&#45;25 mol/s &#160;&#160;&#160;5.41E&#45;02</text>
</g>
</g>
</svg>
