<?xml version="1.0" encoding="UTF-8" standalone="no"?>
<!DOCTYPE svg PUBLIC "-//W3C//DTD SVG 1.1//EN"
 "http://www.w3.org/Graphics/SVG/1.1/DTD/svg11.dtd">
<!-- Generated by graphviz version 8.0.3 (20230416.2022)
 -->
<!-- Title: G Pages: 1 -->
<svg width="640pt" height="84pt"
 viewBox="0.00 0.00 720.00 94.19" xmlns="http://www.w3.org/2000/svg" xmlns:xlink="http://www.w3.org/1999/xlink">
<g id="graph0" class="graph" transform="scale(0.744186 0.744186) rotate(0) translate(4 108.5)">
<title>G</title>
<polygon fill="white" stroke="none" points="-4,4 -4,-108.5 856,-108.5 856,4 -4,4"/>
<text text-anchor="middle" x="426" y="-71.7" font-family="Arial" font-size="36.00" fill="blue">Reaction Path Analysis</text>
<!-- CHCHOH(S) -->
<g id="node1" class="node">
<title>CHCHOH(S)</title>
<g id="a_node1"><a xlink:href="21.svg" xlink:title="CHCHOH(S)">
<polygon fill="dodgerblue" stroke="none" points="206,-47 0,-47 0,0 206,0 206,-47"/>
<text text-anchor="middle" x="103" y="-15" font-family="Times New Roman,serif" font-size="35.00">CHCHOH(S)</text>
</a>
</g>
</g>
<!-- CCHOH(S) -->
<g id="node2" class="node">
<title>CCHOH(S)</title>
<g id="a_node2"><a xlink:href="24.svg" xlink:title="CCHOH(S)">
<polygon fill="dodgerblue" stroke="none" points="852,-47 670,-47 670,0 852,0 852,-47"/>
<text text-anchor="middle" x="761" y="-15" font-family="Times New Roman,serif" font-size="35.00">CCHOH(S)</text>
</a>
</g>
</g>
<!-- CHCHOH(S)&#45;&gt;CCHOH(S) -->
<g id="edge1" class="edge">
<title>CHCHOH(S)&#45;&gt;CCHOH(S)</title>
<path fill="none" stroke="green" stroke-width="5" d="M205.78,-23.5C326.04,-23.5 525.41,-23.5 649.39,-23.5"/>
<polygon fill="green" stroke="green" stroke-width="5" points="644.12,-32.25 664.12,-23.5 644.12,-14.75 644.12,-32.25"/>
<text text-anchor="middle" x="432" y="-32.5" font-family="Times New Roman,serif" font-size="30.00"> &#160;&#160;44 &#160;&#160;83% &#160;&#160;1e&#45;09 mol/s &#160;&#160;&#160;5.01E&#45;01</text>
</g>
</g>
</svg>
