<?xml version="1.0" encoding="UTF-8" standalone="no"?>
<!DOCTYPE svg PUBLIC "-//W3C//DTD SVG 1.1//EN"
 "http://www.w3.org/Graphics/SVG/1.1/DTD/svg11.dtd">
<!-- Generated by graphviz version 8.0.3 (20230416.2022)
 -->
<!-- Title: G Pages: 1 -->
<svg width="640pt" height="184pt"
 viewBox="0.00 0.00 720.00 206.93" xmlns="http://www.w3.org/2000/svg" xmlns:xlink="http://www.w3.org/1999/xlink">
<g id="graph0" class="graph" transform="scale(0.493827 0.493827) rotate(0) translate(4 368.48)">
<title>G</title>
<polygon fill="white" stroke="none" points="-4,4 -4,-368.48 1292,-368.48 1292,4 -4,4"/>
<text text-anchor="middle" x="644" y="-331.68" font-family="Arial" font-size="36.00" fill="blue">Reaction Path Analysis</text>
<!-- R21 -->
<g id="node1" class="node">
<title>R21</title>
<g id="a_node1"><a xlink:href="21.svg" xlink:title="R21">
<polygon fill="cornsilk" stroke="none" points="673,-170.98 597,-170.98 597,-123.98 673,-123.98 673,-170.98"/>
<text text-anchor="middle" x="635" y="-138.98" font-family="Times New Roman,serif" font-size="35.00">R21</text>
</a>
</g>
</g>
<!-- R37 -->
<g id="node4" class="node">
<title>R37</title>
<g id="a_node4"><a xlink:href="37.svg" xlink:title="R37">
<polygon fill="cornsilk" stroke="none" points="1279,-295.98 1203,-295.98 1203,-248.98 1279,-248.98 1279,-295.98"/>
<text text-anchor="middle" x="1241" y="-263.98" font-family="Times New Roman,serif" font-size="35.00">R37</text>
</a>
</g>
</g>
<!-- R21&#45;&gt;R37 -->
<g id="edge3" class="edge">
<title>R21&#45;&gt;R37</title>
<path fill="none" stroke="black" stroke-width="2" d="M641.85,-170.92C649.1,-194.49 663.94,-229.68 691,-246.48 773.86,-297.91 1074.41,-283.78 1192.19,-276"/>
<polygon fill="black" stroke="black" stroke-width="2" points="1190.26,-279.44 1200,-275.27 1189.79,-272.45 1190.26,-279.44"/>
<text text-anchor="middle" x="938" y="-292.48" font-family="Times New Roman,serif" font-size="30.00"> &#160;&#160;108 &#160;&#160;33% &#160;&#160;2.18e&#45;15 mol/s &#160;&#160;&#160;1.00E+00</text>
</g>
<!-- R51 -->
<g id="node5" class="node">
<title>R51</title>
<g id="a_node5"><a xlink:href="51.svg" xlink:title="R51">
<polygon fill="cornsilk" stroke="none" points="1279,-230.98 1203,-230.98 1203,-183.98 1279,-183.98 1279,-230.98"/>
<text text-anchor="middle" x="1241" y="-198.98" font-family="Times New Roman,serif" font-size="35.00">R51</text>
</a>
</g>
</g>
<!-- R21&#45;&gt;R51 -->
<g id="edge4" class="edge">
<title>R21&#45;&gt;R51</title>
<path fill="none" stroke="black" stroke-width="2" d="M665.63,-170.97C673.46,-176 682.2,-180.64 691,-183.48 783.5,-213.27 1076.43,-210.84 1192.23,-208.61"/>
<polygon fill="black" stroke="black" stroke-width="2" points="1190.27,-212.09 1200.19,-208.39 1190.13,-205.09 1190.27,-212.09"/>
<text text-anchor="middle" x="938" y="-218.48" font-family="Times New Roman,serif" font-size="30.00"> &#160;&#160;163 &#160;&#160;33% &#160;&#160;2.18e&#45;15 mol/s &#160;&#160;&#160;1.00E+00</text>
</g>
<!-- R115 -->
<g id="node6" class="node">
<title>R115</title>
<g id="a_node6"><a xlink:href="115.svg" xlink:title="R115">
<polygon fill="cornsilk" stroke="none" points="1288,-165.98 1194,-165.98 1194,-118.98 1288,-118.98 1288,-165.98"/>
<text text-anchor="middle" x="1241" y="-133.98" font-family="Times New Roman,serif" font-size="35.00">R115</text>
</a>
</g>
</g>
<!-- R21&#45;&gt;R115 -->
<g id="edge5" class="edge">
<title>R21&#45;&gt;R115</title>
<path fill="none" stroke="black" stroke-width="2" d="M672.87,-147.17C774.83,-146.33 1061.07,-143.96 1183.4,-142.94"/>
<polygon fill="black" stroke="black" stroke-width="2" points="1181.4,-146.44 1191.37,-142.85 1181.34,-139.44 1181.4,-146.44"/>
<text text-anchor="middle" x="938" y="-155.48" font-family="Times New Roman,serif" font-size="30.00"> &#160;&#160;164 &#160;&#160;33% &#160;&#160;2.18e&#45;15 mol/s &#160;&#160;&#160;1.00E+00</text>
</g>
<!-- R68 -->
<g id="node7" class="node">
<title>R68</title>
<g id="a_node7"><a xlink:href="68.svg" xlink:title="R68">
<polygon fill="cornsilk" stroke="none" points="1279,-81.98 1203,-81.98 1203,-34.98 1279,-34.98 1279,-81.98"/>
<text text-anchor="middle" x="1241" y="-49.98" font-family="Times New Roman,serif" font-size="35.00">R68</text>
</a>
</g>
</g>
<!-- R21&#45;&gt;R68 -->
<g id="edge6" class="edge">
<title>R21&#45;&gt;R68</title>
<path fill="none" stroke="black" d="M660.41,-124C669.35,-116.78 679.99,-109.65 691,-105.48 793.92,-66.45 1075.93,-84.3 1185,-69.48 1187.39,-69.15 1189.83,-68.79 1192.3,-68.39"/>
<polygon fill="black" stroke="black" points="1192.87,-71.67 1202.13,-66.51 1191.67,-64.77 1192.87,-71.67"/>
<text text-anchor="middle" x="938" y="-114.48" font-family="Times New Roman,serif" font-size="30.00"> &#160;&#160;425 &#160;&#160;0% &#160;&#160;2.2e&#45;26 mol/s &#160;&#160;&#160;1.00E+00</text>
</g>
<!-- R21&#45;&gt;R68 -->
<g id="edge7" class="edge">
<title>R21&#45;&gt;R68</title>
<path fill="none" stroke="black" d="M639.67,-124.05C645.36,-96.67 659.17,-52.53 691,-32.48 783.87,26.06 1077.89,-8.43 1185,-32.48 1187.66,-33.07 1190.34,-33.81 1193.02,-34.66"/>
<polygon fill="black" stroke="black" points="1191.63,-38.25 1202.22,-38.41 1194.04,-31.68 1191.63,-38.25"/>
<text text-anchor="middle" x="938" y="-41.48" font-family="Times New Roman,serif" font-size="30.00"> &#160;&#160;452 &#160;&#160;0% &#160;&#160;4.62e&#45;22 mol/s &#160;&#160;&#160;4.76E&#45;05</text>
</g>
<!-- R8 -->
<g id="node2" class="node">
<title>R8</title>
<g id="a_node2"><a xlink:href="8.svg" xlink:title="R8">
<polygon fill="cornsilk" stroke="none" points="58,-203.98 0,-203.98 0,-156.98 58,-156.98 58,-203.98"/>
<text text-anchor="middle" x="29" y="-171.98" font-family="Times New Roman,serif" font-size="35.00">R8</text>
</a>
</g>
</g>
<!-- R8&#45;&gt;R21 -->
<g id="edge1" class="edge">
<title>R8&#45;&gt;R21</title>
<path fill="none" stroke="black" stroke-width="6" d="M57.83,-180.9C136.1,-181.78 365.15,-182.15 576.43,-158.12"/>
<polygon fill="black" stroke="black" stroke-width="6" points="572.51,-168.44 591.15,-155.67 570.05,-147.59 572.51,-168.44"/>
<text text-anchor="middle" x="332" y="-189.48" font-family="Times New Roman,serif" font-size="30.00"> &#160;&#160;26 &#160;&#160;100% &#160;&#160;2.18e&#45;15 mol/s &#160;&#160;&#160;1.00E+00</text>
</g>
<!-- R1 -->
<g id="node3" class="node">
<title>R1</title>
<g id="a_node3"><a xlink:href="1.svg" xlink:title="R1">
<polygon fill="cornsilk" stroke="none" points="58,-138.98 0,-138.98 0,-91.98 58,-91.98 58,-138.98"/>
<text text-anchor="middle" x="29" y="-106.98" font-family="Times New Roman,serif" font-size="35.00">R1</text>
</a>
</g>
</g>
<!-- R1&#45;&gt;R21 -->
<g id="edge2" class="edge">
<title>R1&#45;&gt;R21</title>
<path fill="none" stroke="black" stroke-width="6" d="M57.8,-112.49C136.47,-104.75 367.47,-87 576.78,-126.6"/>
<polygon fill="black" stroke="black" stroke-width="6" points="569.62,-136.08 591.28,-129.68 573.72,-115.48 569.62,-136.08"/>
<text text-anchor="middle" x="332" y="-134.48" font-family="Times New Roman,serif" font-size="30.00"> &#160;&#160;26 &#160;&#160;100% &#160;&#160;2.18e&#45;15 mol/s &#160;&#160;&#160;1.00E+00</text>
</g>
</g>
</svg>
