<?xml version="1.0" encoding="UTF-8" standalone="no"?>
<!DOCTYPE svg PUBLIC "-//W3C//DTD SVG 1.1//EN"
 "http://www.w3.org/Graphics/SVG/1.1/DTD/svg11.dtd">
<!-- Generated by graphviz version 8.0.3 (20230416.2022)
 -->
<!-- Title: G Pages: 1 -->
<svg width="640pt" height="184pt"
 viewBox="0.00 0.00 720.00 206.84" xmlns="http://www.w3.org/2000/svg" xmlns:xlink="http://www.w3.org/1999/xlink">
<g id="graph0" class="graph" transform="scale(0.493827 0.493827) rotate(0) translate(4 368.32)">
<title>G</title>
<polygon fill="white" stroke="none" points="-4,4 -4,-368.32 1292,-368.32 1292,4 -4,4"/>
<text text-anchor="middle" x="644" y="-331.52" font-family="Arial" font-size="36.00" fill="blue">Reaction Path Analysis</text>
<!-- R22 -->
<g id="node1" class="node">
<title>R22</title>
<g id="a_node1"><a xlink:href="22.svg" xlink:title="R22">
<polygon fill="cornsilk" stroke="none" points="673,-170.82 597,-170.82 597,-123.82 673,-123.82 673,-170.82"/>
<text text-anchor="middle" x="635" y="-138.82" font-family="Times New Roman,serif" font-size="35.00">R22</text>
</a>
</g>
</g>
<!-- R38 -->
<g id="node4" class="node">
<title>R38</title>
<g id="a_node4"><a xlink:href="38.svg" xlink:title="R38">
<polygon fill="cornsilk" stroke="none" points="1279,-295.82 1203,-295.82 1203,-248.82 1279,-248.82 1279,-295.82"/>
<text text-anchor="middle" x="1241" y="-263.82" font-family="Times New Roman,serif" font-size="35.00">R38</text>
</a>
</g>
</g>
<!-- R22&#45;&gt;R38 -->
<g id="edge3" class="edge">
<title>R22&#45;&gt;R38</title>
<path fill="none" stroke="black" stroke-width="2" d="M641.85,-170.77C649.1,-194.34 663.94,-229.52 691,-246.32 773.86,-297.75 1074.41,-283.63 1192.19,-275.84"/>
<polygon fill="black" stroke="black" stroke-width="2" points="1190.26,-279.28 1200,-275.11 1189.79,-272.29 1190.26,-279.28"/>
<text text-anchor="middle" x="938" y="-292.32" font-family="Times New Roman,serif" font-size="30.00"> &#160;&#160;109 &#160;&#160;33% &#160;&#160;2.18e&#45;15 mol/s &#160;&#160;&#160;1.00E+00</text>
</g>
<!-- R52 -->
<g id="node5" class="node">
<title>R52</title>
<g id="a_node5"><a xlink:href="52.svg" xlink:title="R52">
<polygon fill="cornsilk" stroke="none" points="1279,-230.82 1203,-230.82 1203,-183.82 1279,-183.82 1279,-230.82"/>
<text text-anchor="middle" x="1241" y="-198.82" font-family="Times New Roman,serif" font-size="35.00">R52</text>
</a>
</g>
</g>
<!-- R22&#45;&gt;R52 -->
<g id="edge4" class="edge">
<title>R22&#45;&gt;R52</title>
<path fill="none" stroke="black" stroke-width="2" d="M665.63,-170.81C673.46,-175.84 682.2,-180.48 691,-183.32 783.5,-213.11 1076.43,-210.69 1192.23,-208.45"/>
<polygon fill="black" stroke="black" stroke-width="2" points="1190.27,-211.93 1200.19,-208.23 1190.13,-204.93 1190.27,-211.93"/>
<text text-anchor="middle" x="938" y="-218.32" font-family="Times New Roman,serif" font-size="30.00"> &#160;&#160;165 &#160;&#160;33% &#160;&#160;2.18e&#45;15 mol/s &#160;&#160;&#160;1.00E+00</text>
</g>
<!-- R116 -->
<g id="node6" class="node">
<title>R116</title>
<g id="a_node6"><a xlink:href="116.svg" xlink:title="R116">
<polygon fill="cornsilk" stroke="none" points="1288,-165.82 1194,-165.82 1194,-118.82 1288,-118.82 1288,-165.82"/>
<text text-anchor="middle" x="1241" y="-133.82" font-family="Times New Roman,serif" font-size="35.00">R116</text>
</a>
</g>
</g>
<!-- R22&#45;&gt;R116 -->
<g id="edge5" class="edge">
<title>R22&#45;&gt;R116</title>
<path fill="none" stroke="black" stroke-width="2" d="M672.87,-147.01C774.83,-146.17 1061.07,-143.8 1183.4,-142.79"/>
<polygon fill="black" stroke="black" stroke-width="2" points="1181.4,-146.28 1191.37,-142.7 1181.34,-139.28 1181.4,-146.28"/>
<text text-anchor="middle" x="938" y="-155.32" font-family="Times New Roman,serif" font-size="30.00"> &#160;&#160;166 &#160;&#160;33% &#160;&#160;2.18e&#45;15 mol/s &#160;&#160;&#160;1.00E+00</text>
</g>
<!-- R246 -->
<g id="node7" class="node">
<title>R246</title>
<g id="a_node7"><a xlink:href="246.svg" xlink:title="R246">
<polygon fill="cornsilk" stroke="none" points="1288,-81.82 1194,-81.82 1194,-34.82 1288,-34.82 1288,-81.82"/>
<text text-anchor="middle" x="1241" y="-49.82" font-family="Times New Roman,serif" font-size="35.00">R246</text>
</a>
</g>
</g>
<!-- R22&#45;&gt;R246 -->
<g id="edge6" class="edge">
<title>R22&#45;&gt;R246</title>
<path fill="none" stroke="black" d="M660.41,-123.84C669.35,-116.63 679.99,-109.49 691,-105.32 790.9,-67.43 1059.56,-83.14 1183.35,-69.27"/>
<polygon fill="black" stroke="black" points="1183.66,-72.64 1193.16,-67.93 1182.8,-65.69 1183.66,-72.64"/>
<text text-anchor="middle" x="938" y="-114.32" font-family="Times New Roman,serif" font-size="30.00"> &#160;&#160;426 &#160;&#160;0% &#160;&#160;2.2e&#45;26 mol/s &#160;&#160;&#160;1.00E+00</text>
</g>
<!-- R22&#45;&gt;R246 -->
<g id="edge7" class="edge">
<title>R22&#45;&gt;R246</title>
<path fill="none" stroke="black" d="M639.67,-123.9C645.36,-96.51 659.17,-52.38 691,-32.32 781.15,24.5 1060.83,-6.34 1183.35,-32.47"/>
<polygon fill="black" stroke="black" points="1182.49,-36.09 1193.01,-34.83 1184,-29.25 1182.49,-36.09"/>
<text text-anchor="middle" x="938" y="-41.32" font-family="Times New Roman,serif" font-size="30.00"> &#160;&#160;718 &#160;&#160;0% &#160;&#160;5.79e&#45;22 mol/s &#160;&#160;&#160;3.80E&#45;05</text>
</g>
<!-- R9 -->
<g id="node2" class="node">
<title>R9</title>
<g id="a_node2"><a xlink:href="9.svg" xlink:title="R9">
<polygon fill="cornsilk" stroke="none" points="58,-203.82 0,-203.82 0,-156.82 58,-156.82 58,-203.82"/>
<text text-anchor="middle" x="29" y="-171.82" font-family="Times New Roman,serif" font-size="35.00">R9</text>
</a>
</g>
</g>
<!-- R9&#45;&gt;R22 -->
<g id="edge1" class="edge">
<title>R9&#45;&gt;R22</title>
<path fill="none" stroke="black" stroke-width="6" d="M57.83,-180.74C136.1,-181.62 365.15,-181.99 576.43,-157.96"/>
<polygon fill="black" stroke="black" stroke-width="6" points="572.51,-168.29 591.15,-155.52 570.05,-147.43 572.51,-168.29"/>
<text text-anchor="middle" x="332" y="-189.32" font-family="Times New Roman,serif" font-size="30.00"> &#160;&#160;27 &#160;&#160;100% &#160;&#160;2.18e&#45;15 mol/s &#160;&#160;&#160;1.00E+00</text>
</g>
<!-- R1 -->
<g id="node3" class="node">
<title>R1</title>
<g id="a_node3"><a xlink:href="1.svg" xlink:title="R1">
<polygon fill="cornsilk" stroke="none" points="58,-138.82 0,-138.82 0,-91.82 58,-91.82 58,-138.82"/>
<text text-anchor="middle" x="29" y="-106.82" font-family="Times New Roman,serif" font-size="35.00">R1</text>
</a>
</g>
</g>
<!-- R1&#45;&gt;R22 -->
<g id="edge2" class="edge">
<title>R1&#45;&gt;R22</title>
<path fill="none" stroke="black" stroke-width="6" d="M57.8,-112.33C136.47,-104.6 367.47,-86.85 576.78,-126.45"/>
<polygon fill="black" stroke="black" stroke-width="6" points="569.62,-135.92 591.28,-129.53 573.72,-115.32 569.62,-135.92"/>
<text text-anchor="middle" x="332" y="-134.32" font-family="Times New Roman,serif" font-size="30.00"> &#160;&#160;27 &#160;&#160;100% &#160;&#160;2.18e&#45;15 mol/s &#160;&#160;&#160;1.00E+00</text>
</g>
</g>
</svg>
