<?xml version="1.0" encoding="UTF-8" standalone="no"?>
<!DOCTYPE svg PUBLIC "-//W3C//DTD SVG 1.1//EN"
 "http://www.w3.org/Graphics/SVG/1.1/DTD/svg11.dtd">
<!-- Generated by graphviz version 8.0.3 (20230416.2022)
 -->
<!-- Title: G Pages: 1 -->
<svg width="640pt" height="184pt"
 viewBox="0.00 0.00 720.00 206.83" xmlns="http://www.w3.org/2000/svg" xmlns:xlink="http://www.w3.org/1999/xlink">
<g id="graph0" class="graph" transform="scale(0.493827 0.493827) rotate(0) translate(4 368.3)">
<title>G</title>
<polygon fill="white" stroke="none" points="-4,4 -4,-368.3 1292,-368.3 1292,4 -4,4"/>
<text text-anchor="middle" x="644" y="-331.5" font-family="Arial" font-size="36.00" fill="blue">Reaction Path Analysis</text>
<!-- R22 -->
<g id="node1" class="node">
<title>R22</title>
<g id="a_node1"><a xlink:href="22.svg" xlink:title="R22">
<polygon fill="cornsilk" stroke="none" points="673,-170.8 597,-170.8 597,-123.8 673,-123.8 673,-170.8"/>
<text text-anchor="middle" x="635" y="-138.8" font-family="Times New Roman,serif" font-size="35.00">R22</text>
</a>
</g>
</g>
<!-- R38 -->
<g id="node4" class="node">
<title>R38</title>
<g id="a_node4"><a xlink:href="38.svg" xlink:title="R38">
<polygon fill="cornsilk" stroke="none" points="1279,-295.8 1203,-295.8 1203,-248.8 1279,-248.8 1279,-295.8"/>
<text text-anchor="middle" x="1241" y="-263.8" font-family="Times New Roman,serif" font-size="35.00">R38</text>
</a>
</g>
</g>
<!-- R22&#45;&gt;R38 -->
<g id="edge3" class="edge">
<title>R22&#45;&gt;R38</title>
<path fill="none" stroke="black" d="M641.85,-170.75C649.1,-194.32 663.94,-229.5 691,-246.3 773.86,-297.73 1074.41,-283.61 1192.19,-275.82"/>
<polygon fill="black" stroke="black" points="1192.26,-279.26 1202,-275.09 1191.79,-272.28 1192.26,-279.26"/>
<text text-anchor="middle" x="938" y="-292.3" font-family="Times New Roman,serif" font-size="30.00"> &#160;&#160;109 &#160;&#160;11% &#160;&#160;4.67e&#45;08 mol/s &#160;&#160;&#160;1.00E+00</text>
</g>
<!-- R52 -->
<g id="node5" class="node">
<title>R52</title>
<g id="a_node5"><a xlink:href="52.svg" xlink:title="R52">
<polygon fill="cornsilk" stroke="none" points="1279,-230.8 1203,-230.8 1203,-183.8 1279,-183.8 1279,-230.8"/>
<text text-anchor="middle" x="1241" y="-198.8" font-family="Times New Roman,serif" font-size="35.00">R52</text>
</a>
</g>
</g>
<!-- R22&#45;&gt;R52 -->
<g id="edge4" class="edge">
<title>R22&#45;&gt;R52</title>
<path fill="none" stroke="black" d="M665.63,-170.79C673.46,-175.82 682.2,-180.47 691,-183.3 783.5,-213.09 1076.43,-210.67 1192.23,-208.43"/>
<polygon fill="black" stroke="black" points="1192.27,-211.91 1202.19,-208.21 1192.13,-204.91 1192.27,-211.91"/>
<text text-anchor="middle" x="938" y="-218.3" font-family="Times New Roman,serif" font-size="30.00"> &#160;&#160;165 &#160;&#160;11% &#160;&#160;4.67e&#45;08 mol/s &#160;&#160;&#160;1.00E+00</text>
</g>
<!-- R116 -->
<g id="node6" class="node">
<title>R116</title>
<g id="a_node6"><a xlink:href="116.svg" xlink:title="R116">
<polygon fill="cornsilk" stroke="none" points="1288,-165.8 1194,-165.8 1194,-118.8 1288,-118.8 1288,-165.8"/>
<text text-anchor="middle" x="1241" y="-133.8" font-family="Times New Roman,serif" font-size="35.00">R116</text>
</a>
</g>
</g>
<!-- R22&#45;&gt;R116 -->
<g id="edge5" class="edge">
<title>R22&#45;&gt;R116</title>
<path fill="none" stroke="black" d="M672.87,-146.99C774.83,-146.15 1061.07,-143.78 1183.4,-142.77"/>
<polygon fill="black" stroke="black" points="1183.4,-146.26 1193.37,-142.68 1183.34,-139.26 1183.4,-146.26"/>
<text text-anchor="middle" x="938" y="-155.3" font-family="Times New Roman,serif" font-size="30.00"> &#160;&#160;166 &#160;&#160;11% &#160;&#160;4.67e&#45;08 mol/s &#160;&#160;&#160;1.00E+00</text>
</g>
<!-- R246 -->
<g id="node7" class="node">
<title>R246</title>
<g id="a_node7"><a xlink:href="246.svg" xlink:title="R246">
<polygon fill="cornsilk" stroke="none" points="1288,-81.8 1194,-81.8 1194,-34.8 1288,-34.8 1288,-81.8"/>
<text text-anchor="middle" x="1241" y="-49.8" font-family="Times New Roman,serif" font-size="35.00">R246</text>
</a>
</g>
</g>
<!-- R22&#45;&gt;R246 -->
<g id="edge6" class="edge">
<title>R22&#45;&gt;R246</title>
<path fill="none" stroke="black" d="M660.41,-123.82C669.35,-116.61 679.99,-109.47 691,-105.3 790.9,-67.42 1059.56,-83.12 1183.35,-69.25"/>
<polygon fill="black" stroke="black" points="1183.66,-72.62 1193.16,-67.91 1182.8,-65.67 1183.66,-72.62"/>
<text text-anchor="middle" x="938" y="-114.3" font-family="Times New Roman,serif" font-size="30.00"> &#160;&#160;426 &#160;&#160;0% &#160;&#160;1.01e&#45;11 mol/s &#160;&#160;&#160;1.00E+00</text>
</g>
<!-- R22&#45;&gt;R246 -->
<g id="edge7" class="edge">
<title>R22&#45;&gt;R246</title>
<path fill="none" stroke="black" stroke-width="4" d="M639.67,-123.88C645.36,-96.49 659.17,-52.36 691,-32.3 778.88,23.09 1046.88,-4.82 1173.82,-30.48"/>
<polygon fill="black" stroke="black" stroke-width="4" points="1167.98,-36.46 1189.01,-33.81 1170.92,-22.77 1167.98,-36.46"/>
<text text-anchor="middle" x="938" y="-41.3" font-family="Times New Roman,serif" font-size="30.00"> &#160;&#160;718 &#160;&#160;65% &#160;&#160;2.65e&#45;07 mol/s &#160;&#160;&#160;3.80E&#45;05</text>
</g>
<!-- R9 -->
<g id="node2" class="node">
<title>R9</title>
<g id="a_node2"><a xlink:href="9.svg" xlink:title="R9">
<polygon fill="cornsilk" stroke="none" points="58,-203.8 0,-203.8 0,-156.8 58,-156.8 58,-203.8"/>
<text text-anchor="middle" x="29" y="-171.8" font-family="Times New Roman,serif" font-size="35.00">R9</text>
</a>
</g>
</g>
<!-- R9&#45;&gt;R22 -->
<g id="edge1" class="edge">
<title>R9&#45;&gt;R22</title>
<path fill="none" stroke="black" stroke-width="6" d="M57.83,-180.73C136.1,-181.6 365.15,-181.97 576.43,-157.94"/>
<polygon fill="black" stroke="black" stroke-width="6" points="572.51,-168.27 591.15,-155.5 570.05,-147.41 572.51,-168.27"/>
<text text-anchor="middle" x="332" y="-189.3" font-family="Times New Roman,serif" font-size="30.00"> &#160;&#160;27 &#160;&#160;100% &#160;&#160;4.67e&#45;08 mol/s &#160;&#160;&#160;1.00E+00</text>
</g>
<!-- R1 -->
<g id="node3" class="node">
<title>R1</title>
<g id="a_node3"><a xlink:href="1.svg" xlink:title="R1">
<polygon fill="cornsilk" stroke="none" points="58,-138.8 0,-138.8 0,-91.8 58,-91.8 58,-138.8"/>
<text text-anchor="middle" x="29" y="-106.8" font-family="Times New Roman,serif" font-size="35.00">R1</text>
</a>
</g>
</g>
<!-- R1&#45;&gt;R22 -->
<g id="edge2" class="edge">
<title>R1&#45;&gt;R22</title>
<path fill="none" stroke="black" stroke-width="6" d="M57.8,-112.31C136.47,-104.58 367.47,-86.83 576.78,-126.43"/>
<polygon fill="black" stroke="black" stroke-width="6" points="569.62,-135.9 591.28,-129.51 573.72,-115.31 569.62,-135.9"/>
<text text-anchor="middle" x="332" y="-134.3" font-family="Times New Roman,serif" font-size="30.00"> &#160;&#160;27 &#160;&#160;100% &#160;&#160;4.67e&#45;08 mol/s &#160;&#160;&#160;1.00E+00</text>
</g>
</g>
</svg>
