<?xml version="1.0" encoding="UTF-8" standalone="no"?>
<!DOCTYPE svg PUBLIC "-//W3C//DTD SVG 1.1//EN"
 "http://www.w3.org/Graphics/SVG/1.1/DTD/svg11.dtd">
<!-- Generated by graphviz version 8.0.3 (20230416.2022)
 -->
<!-- Title: G Pages: 1 -->
<svg width="640pt" height="189pt"
 viewBox="0.00 0.00 720.00 212.12" xmlns="http://www.w3.org/2000/svg" xmlns:xlink="http://www.w3.org/1999/xlink">
<g id="graph0" class="graph" transform="scale(0.511182 0.511182) rotate(0) translate(4 364.85)">
<title>G</title>
<polygon fill="white" stroke="none" points="-4,4 -4,-364.85 1248,-364.85 1248,4 -4,4"/>
<text text-anchor="middle" x="622" y="-328.05" font-family="Arial" font-size="36.00" fill="blue">Reaction Path Analysis</text>
<!-- R22 -->
<g id="node1" class="node">
<title>R22</title>
<g id="a_node1"><a xlink:href="22.svg" xlink:title="R22">
<polygon fill="cornsilk" stroke="none" points="651,-169.35 575,-169.35 575,-122.35 651,-122.35 651,-169.35"/>
<text text-anchor="middle" x="613" y="-137.35" font-family="Times New Roman,serif" font-size="35.00">R22</text>
</a>
</g>
</g>
<!-- R38 -->
<g id="node4" class="node">
<title>R38</title>
<g id="a_node4"><a xlink:href="38.svg" xlink:title="R38">
<polygon fill="cornsilk" stroke="none" points="1235,-294.35 1159,-294.35 1159,-247.35 1235,-247.35 1235,-294.35"/>
<text text-anchor="middle" x="1197" y="-262.35" font-family="Times New Roman,serif" font-size="35.00">R38</text>
</a>
</g>
</g>
<!-- R22&#45;&gt;R38 -->
<g id="edge3" class="edge">
<title>R22&#45;&gt;R38</title>
<path fill="none" stroke="black" d="M619.94,-169.05C627.25,-192.37 642.14,-227.19 669,-243.85 748.2,-292.99 1034.43,-281.07 1148.55,-274.11"/>
<polygon fill="black" stroke="black" points="1148.6,-277.55 1158.36,-273.44 1148.16,-270.57 1148.6,-277.55"/>
<text text-anchor="middle" x="905" y="-288.85" font-family="Times New Roman,serif" font-size="30.00"> &#160;&#160;109 &#160;&#160;0% &#160;&#160;0.0342 mol/s &#160;&#160;&#160;1.00E+00</text>
</g>
<!-- R52 -->
<g id="node5" class="node">
<title>R52</title>
<g id="a_node5"><a xlink:href="52.svg" xlink:title="R52">
<polygon fill="cornsilk" stroke="none" points="1235,-229.35 1159,-229.35 1159,-182.35 1235,-182.35 1235,-229.35"/>
<text text-anchor="middle" x="1197" y="-197.35" font-family="Times New Roman,serif" font-size="35.00">R52</text>
</a>
</g>
</g>
<!-- R22&#45;&gt;R52 -->
<g id="edge4" class="edge">
<title>R22&#45;&gt;R52</title>
<path fill="none" stroke="black" d="M643.63,-169.33C651.47,-174.36 660.2,-179.01 669,-181.85 757.26,-210.37 1035.75,-208.78 1148.21,-206.88"/>
<polygon fill="black" stroke="black" points="1148.25,-210.36 1158.19,-206.68 1148.13,-203.36 1148.25,-210.36"/>
<text text-anchor="middle" x="905" y="-215.85" font-family="Times New Roman,serif" font-size="30.00"> &#160;&#160;165 &#160;&#160;0% &#160;&#160;0.0342 mol/s &#160;&#160;&#160;1.00E+00</text>
</g>
<!-- R116 -->
<g id="node6" class="node">
<title>R116</title>
<g id="a_node6"><a xlink:href="116.svg" xlink:title="R116">
<polygon fill="cornsilk" stroke="none" points="1244,-164.35 1150,-164.35 1150,-117.35 1244,-117.35 1244,-164.35"/>
<text text-anchor="middle" x="1197" y="-132.35" font-family="Times New Roman,serif" font-size="35.00">R116</text>
</a>
</g>
</g>
<!-- R22&#45;&gt;R116 -->
<g id="edge5" class="edge">
<title>R22&#45;&gt;R116</title>
<path fill="none" stroke="black" d="M650.85,-145.53C749.61,-144.69 1020.77,-142.36 1139.3,-141.34"/>
<polygon fill="black" stroke="black" points="1139.31,-144.83 1149.28,-141.24 1139.25,-137.83 1139.31,-144.83"/>
<text text-anchor="middle" x="905" y="-153.85" font-family="Times New Roman,serif" font-size="30.00"> &#160;&#160;166 &#160;&#160;0% &#160;&#160;0.0342 mol/s &#160;&#160;&#160;1.00E+00</text>
</g>
<!-- R246 -->
<g id="node7" class="node">
<title>R246</title>
<g id="a_node7"><a xlink:href="246.svg" xlink:title="R246">
<polygon fill="cornsilk" stroke="none" points="1244,-80.35 1150,-80.35 1150,-33.35 1244,-33.35 1244,-80.35"/>
<text text-anchor="middle" x="1197" y="-48.35" font-family="Times New Roman,serif" font-size="35.00">R246</text>
</a>
</g>
</g>
<!-- R22&#45;&gt;R246 -->
<g id="edge6" class="edge">
<title>R22&#45;&gt;R246</title>
<path fill="none" stroke="black" d="M638.42,-122.39C647.36,-115.18 658,-108.04 669,-103.85 764.32,-67.52 1020.63,-81.28 1139.44,-67.8"/>
<polygon fill="black" stroke="black" points="1139.67,-71.17 1149.15,-66.45 1138.8,-64.22 1139.67,-71.17"/>
<text text-anchor="middle" x="905" y="-112.85" font-family="Times New Roman,serif" font-size="30.00"> &#160;&#160;426 &#160;&#160;0% &#160;&#160;0.00272 mol/s &#160;&#160;&#160;1.00E+00</text>
</g>
<!-- R22&#45;&gt;R246 -->
<g id="edge7" class="edge">
<title>R22&#45;&gt;R246</title>
<path fill="none" stroke="black" stroke-width="5" d="M617.67,-122.43C623.36,-95.04 637.17,-50.91 669,-30.85 752.71,21.91 1007.45,-4.43 1129.52,-28.97"/>
<polygon fill="black" stroke="black" stroke-width="5" points="1122.62,-36.73 1144.01,-32.36 1126.28,-19.62 1122.62,-36.73"/>
<text text-anchor="middle" x="905" y="-39.85" font-family="Times New Roman,serif" font-size="30.00"> &#160;&#160;718 &#160;&#160;99% &#160;&#160;20.3 mol/s &#160;&#160;&#160;1.34E&#45;04</text>
</g>
<!-- R9 -->
<g id="node2" class="node">
<title>R9</title>
<g id="a_node2"><a xlink:href="9.svg" xlink:title="R9">
<polygon fill="cornsilk" stroke="none" points="58,-202.35 0,-202.35 0,-155.35 58,-155.35 58,-202.35"/>
<text text-anchor="middle" x="29" y="-170.35" font-family="Times New Roman,serif" font-size="35.00">R9</text>
</a>
</g>
</g>
<!-- R9&#45;&gt;R22 -->
<g id="edge1" class="edge">
<title>R9&#45;&gt;R22</title>
<path fill="none" stroke="black" stroke-width="6" d="M57.83,-179.21C133.91,-179.87 352.06,-179.67 554.36,-156.51"/>
<polygon fill="black" stroke="black" stroke-width="6" points="550.52,-166.83 569.15,-154.04 548.05,-145.97 550.52,-166.83"/>
<text text-anchor="middle" x="321" y="-187.85" font-family="Times New Roman,serif" font-size="30.00"> &#160;&#160;27 &#160;&#160;100% &#160;&#160;0.0342 mol/s &#160;&#160;&#160;1.00E+00</text>
</g>
<!-- R1 -->
<g id="node3" class="node">
<title>R1</title>
<g id="a_node3"><a xlink:href="1.svg" xlink:title="R1">
<polygon fill="cornsilk" stroke="none" points="58,-137.35 0,-137.35 0,-90.35 58,-90.35 58,-137.35"/>
<text text-anchor="middle" x="29" y="-105.35" font-family="Times New Roman,serif" font-size="35.00">R1</text>
</a>
</g>
</g>
<!-- R1&#45;&gt;R22 -->
<g id="edge2" class="edge">
<title>R1&#45;&gt;R22</title>
<path fill="none" stroke="black" stroke-width="6" d="M57.81,-110.9C134.29,-103.51 354.27,-87.04 554.71,-124.96"/>
<polygon fill="black" stroke="black" stroke-width="6" points="547.62,-134.45 569.28,-128.06 551.72,-113.85 547.62,-134.45"/>
<text text-anchor="middle" x="321" y="-132.85" font-family="Times New Roman,serif" font-size="30.00"> &#160;&#160;27 &#160;&#160;100% &#160;&#160;0.0342 mol/s &#160;&#160;&#160;1.00E+00</text>
</g>
</g>
</svg>
