<?xml version="1.0" encoding="UTF-8" standalone="no"?>
<!DOCTYPE svg PUBLIC "-//W3C//DTD SVG 1.1//EN"
 "http://www.w3.org/Graphics/SVG/1.1/DTD/svg11.dtd">
<!-- Generated by graphviz version 8.0.3 (20230416.2022)
 -->
<!-- Title: G Pages: 1 -->
<svg width="640pt" height="89pt"
 viewBox="0.00 0.00 720.00 100.24" xmlns="http://www.w3.org/2000/svg" xmlns:xlink="http://www.w3.org/1999/xlink">
<g id="graph0" class="graph" transform="scale(0.501961 0.501961) rotate(0) translate(4 173.5)">
<title>G</title>
<polygon fill="white" stroke="none" points="-4,4 -4,-173.5 1271,-173.5 1271,4 -4,4"/>
<text text-anchor="middle" x="633.5" y="-136.7" font-family="Arial" font-size="36.00" fill="blue">Reaction Path Analysis</text>
<!-- R221 -->
<g id="node1" class="node">
<title>R221</title>
<g id="a_node1"><a xlink:href="221.svg" xlink:title="R221">
<polygon fill="cornsilk" stroke="none" points="685,-79 591,-79 591,-32 685,-32 685,-79"/>
<text text-anchor="middle" x="638" y="-47" font-family="Times New Roman,serif" font-size="35.00">R221</text>
</a>
</g>
</g>
<!-- R28 -->
<g id="node2" class="node">
<title>R28</title>
<g id="a_node2"><a xlink:href="28.svg" xlink:title="R28">
<polygon fill="cornsilk" stroke="none" points="1267,-112 1191,-112 1191,-65 1267,-65 1267,-112"/>
<text text-anchor="middle" x="1229" y="-80" font-family="Times New Roman,serif" font-size="35.00">R28</text>
</a>
</g>
</g>
<!-- R221&#45;&gt;R28 -->
<g id="edge1" class="edge">
<title>R221&#45;&gt;R28</title>
<path fill="none" stroke="black" stroke-width="6" d="M684.84,-63.47C692.87,-64.64 701.17,-65.72 709,-66.5 875.96,-83.1 1074.36,-87.19 1170.32,-88.19"/>
<polygon fill="black" stroke="black" stroke-width="6" points="1164.99,-98.7 1185.09,-88.37 1165.18,-77.7 1164.99,-98.7"/>
<text text-anchor="middle" x="933.5" y="-96.5" font-family="Times New Roman,serif" font-size="30.00"> &#160;&#160;288 &#160;&#160;100% &#160;&#160;1.04 mol/s &#160;&#160;&#160;3.09E&#45;02</text>
</g>
<!-- R3 -->
<g id="node3" class="node">
<title>R3</title>
<g id="a_node3"><a xlink:href="3.svg" xlink:title="R3">
<polygon fill="cornsilk" stroke="none" points="1258,-47 1200,-47 1200,0 1258,0 1258,-47"/>
<text text-anchor="middle" x="1229" y="-15" font-family="Times New Roman,serif" font-size="35.00">R3</text>
</a>
</g>
</g>
<!-- R221&#45;&gt;R3 -->
<g id="edge2" class="edge">
<title>R221&#45;&gt;R3</title>
<path fill="none" stroke="black" stroke-width="6" d="M684.86,-39.05C692.82,-36.78 701.08,-34.79 709,-33.5 879.96,-5.58 1086.78,-13.95 1179.23,-19.85"/>
<polygon fill="black" stroke="black" stroke-width="6" points="1173.51,-30.4 1194.18,-21.28 1174.94,-9.44 1173.51,-30.4"/>
<text text-anchor="middle" x="933.5" y="-42.5" font-family="Times New Roman,serif" font-size="30.00"> &#160;&#160;288 &#160;&#160;100% &#160;&#160;1.04 mol/s &#160;&#160;&#160;3.09E&#45;02</text>
</g>
<!-- R1 -->
<g id="node4" class="node">
<title>R1</title>
<g id="a_node4"><a xlink:href="1.svg" xlink:title="R1">
<polygon fill="cornsilk" stroke="none" points="76,-112 18,-112 18,-65 76,-65 76,-112"/>
<text text-anchor="middle" x="47" y="-80" font-family="Times New Roman,serif" font-size="35.00">R1</text>
</a>
</g>
</g>
<!-- R1&#45;&gt;R221 -->
<g id="edge3" class="edge">
<title>R1&#45;&gt;R221</title>
<path fill="none" stroke="black" stroke-width="6" d="M75.92,-88.88C152.66,-89.61 373.63,-89.58 570.38,-67.64"/>
<polygon fill="black" stroke="black" stroke-width="6" points="566.51,-77.96 585.17,-65.22 564.09,-57.1 566.51,-77.96"/>
<text text-anchor="middle" x="342.5" y="-97.5" font-family="Times New Roman,serif" font-size="30.00"> &#160;&#160;572 &#160;&#160;100% &#160;&#160;0.0341 mol/s &#160;&#160;&#160;9.97E&#45;01</text>
</g>
<!-- R123 -->
<g id="node5" class="node">
<title>R123</title>
<g id="a_node5"><a xlink:href="123.svg" xlink:title="R123">
<polygon fill="cornsilk" stroke="none" points="94,-47 0,-47 0,0 94,0 94,-47"/>
<text text-anchor="middle" x="47" y="-15" font-family="Times New Roman,serif" font-size="35.00">R123</text>
</a>
</g>
</g>
<!-- R123&#45;&gt;R221 -->
<g id="edge4" class="edge">
<title>R123&#45;&gt;R221</title>
<path fill="none" stroke="black" stroke-width="6" d="M93.96,-18.86C183.78,-10.94 389,1.46 570.82,-31.83"/>
<polygon fill="black" stroke="black" stroke-width="6" points="563.53,-41.27 585.16,-34.77 567.52,-20.65 563.53,-41.27"/>
<text text-anchor="middle" x="342.5" y="-42.5" font-family="Times New Roman,serif" font-size="30.00"> &#160;&#160;572 &#160;&#160;100% &#160;&#160;0.0341 mol/s &#160;&#160;&#160;9.97E&#45;01</text>
</g>
</g>
</svg>
