<?xml version="1.0" encoding="UTF-8" standalone="no"?>
<!DOCTYPE svg PUBLIC "-//W3C//DTD SVG 1.1//EN"
 "http://www.w3.org/Graphics/SVG/1.1/DTD/svg11.dtd">
<!-- Generated by graphviz version 8.0.3 (20230416.2022)
 -->
<!-- Title: G Pages: 1 -->
<svg width="603pt" height="312pt"
 viewBox="0.00 0.00 678.00 350.89" xmlns="http://www.w3.org/2000/svg" xmlns:xlink="http://www.w3.org/1999/xlink">
<g id="graph0" class="graph" transform="scale(0.888889 0.888889) rotate(0) translate(4 346.89)">
<title>G</title>
<polygon fill="white" stroke="none" points="-4,4 -4,-346.89 674,-346.89 674,4 -4,4"/>
<text text-anchor="middle" x="335" y="-310.09" font-family="Arial" font-size="36.00" fill="blue">Reaction Path Analysis</text>
<!-- R225 -->
<g id="node1" class="node">
<title>R225</title>
<g id="a_node1"><a xlink:href="225.svg" xlink:title="R225">
<polygon fill="cornsilk" stroke="none" points="670,-160.39 576,-160.39 576,-113.39 670,-113.39 670,-160.39"/>
<text text-anchor="middle" x="623" y="-128.39" font-family="Times New Roman,serif" font-size="35.00">R225</text>
</a>
</g>
</g>
<!-- R42 -->
<g id="node2" class="node">
<title>R42</title>
<g id="a_node2"><a xlink:href="42.svg" xlink:title="R42">
<polygon fill="cornsilk" stroke="none" points="85,-258.39 9,-258.39 9,-211.39 85,-211.39 85,-258.39"/>
<text text-anchor="middle" x="47" y="-226.39" font-family="Times New Roman,serif" font-size="35.00">R42</text>
</a>
</g>
</g>
<!-- R42&#45;&gt;R225 -->
<g id="edge1" class="edge">
<title>R42&#45;&gt;R225</title>
<path fill="none" stroke="green" d="M84.95,-242.71C173.92,-259.56 404.67,-291.27 567,-206.89 582.97,-198.59 595.8,-183.35 605.03,-169.2"/>
<polygon fill="green" stroke="green" points="608.34,-171.5 610.58,-161.15 602.37,-167.85 608.34,-171.5"/>
<text text-anchor="middle" x="335" y="-270.89" font-family="Times New Roman,serif" font-size="30.00"> &#160;&#160;295 &#160;&#160;15% &#160;&#160;0.006 mol/s &#160;&#160;&#160;5.48E&#45;01</text>
</g>
<!-- R3 -->
<g id="node3" class="node">
<title>R3</title>
<g id="a_node3"><a xlink:href="3.svg" xlink:title="R3">
<polygon fill="cornsilk" stroke="none" points="76,-193.39 18,-193.39 18,-146.39 76,-146.39 76,-193.39"/>
<text text-anchor="middle" x="47" y="-161.39" font-family="Times New Roman,serif" font-size="35.00">R3</text>
</a>
</g>
</g>
<!-- R3&#45;&gt;R225 -->
<g id="edge2" class="edge">
<title>R3&#45;&gt;R225</title>
<path fill="none" stroke="green" d="M75.97,-170.22C152.55,-170.82 372.18,-170.37 565.25,-147.91"/>
<polygon fill="green" stroke="green" points="565.65,-151.26 575.17,-146.61 564.83,-144.31 565.65,-151.26"/>
<text text-anchor="middle" x="335" y="-178.89" font-family="Times New Roman,serif" font-size="30.00"> &#160;&#160;295 &#160;&#160;15% &#160;&#160;0.006 mol/s &#160;&#160;&#160;5.48E&#45;01</text>
</g>
<!-- R1 -->
<g id="node4" class="node">
<title>R1</title>
<g id="a_node4"><a xlink:href="1.svg" xlink:title="R1">
<polygon fill="cornsilk" stroke="none" points="76,-128.39 18,-128.39 18,-81.39 76,-81.39 76,-128.39"/>
<text text-anchor="middle" x="47" y="-96.39" font-family="Times New Roman,serif" font-size="35.00">R1</text>
</a>
</g>
</g>
<!-- R1&#45;&gt;R225 -->
<g id="edge3" class="edge">
<title>R1&#45;&gt;R225</title>
<path fill="none" stroke="black" stroke-width="5" d="M75.95,-101.94C151.63,-94.68 366.96,-78.75 555.65,-113.19"/>
<polygon fill="black" stroke="black" stroke-width="5" points="548.86,-120.95 570.16,-116.16 552.18,-103.77 548.86,-120.95"/>
<text text-anchor="middle" x="335" y="-123.89" font-family="Times New Roman,serif" font-size="30.00"> &#160;&#160;584 &#160;&#160;84% &#160;&#160;0.0335 mol/s &#160;&#160;&#160;9.80E&#45;01</text>
</g>
<!-- R133 -->
<g id="node5" class="node">
<title>R133</title>
<g id="a_node5"><a xlink:href="133.svg" xlink:title="R133">
<polygon fill="cornsilk" stroke="none" points="94,-63.39 0,-63.39 0,-16.39 94,-16.39 94,-63.39"/>
<text text-anchor="middle" x="47" y="-31.39" font-family="Times New Roman,serif" font-size="35.00">R133</text>
</a>
</g>
</g>
<!-- R133&#45;&gt;R225 -->
<g id="edge4" class="edge">
<title>R133&#45;&gt;R225</title>
<path fill="none" stroke="black" stroke-width="5" d="M93.97,-27.89C189.21,-5.72 412.1,32 567,-53.89 583.35,-62.96 595.71,-79.18 604.52,-94.9"/>
<polygon fill="black" stroke="black" stroke-width="5" points="595.04,-94.51 611.69,-108.62 610.75,-86.81 595.04,-94.51"/>
<text text-anchor="middle" x="335" y="-62.89" font-family="Times New Roman,serif" font-size="30.00"> &#160;&#160;584 &#160;&#160;84% &#160;&#160;0.0335 mol/s &#160;&#160;&#160;9.80E&#45;01</text>
</g>
</g>
</svg>
