<?xml version="1.0" encoding="UTF-8" standalone="no"?>
<!DOCTYPE svg PUBLIC "-//W3C//DTD SVG 1.1//EN"
 "http://www.w3.org/Graphics/SVG/1.1/DTD/svg11.dtd">
<!-- Generated by graphviz version 8.0.3 (20230416.2022)
 -->
<!-- Title: G Pages: 1 -->
<svg width="640pt" height="134pt"
 viewBox="0.00 0.00 720.00 150.31" xmlns="http://www.w3.org/2000/svg" xmlns:xlink="http://www.w3.org/1999/xlink">
<g id="graph0" class="graph" transform="scale(0.490421 0.490421) rotate(0) translate(4 268.43)">
<title>G</title>
<polygon fill="white" stroke="none" points="-4,4 -4,-268.43 1301,-268.43 1301,4 -4,4"/>
<text text-anchor="middle" x="648.5" y="-231.63" font-family="Arial" font-size="36.00" fill="blue">Reaction Path Analysis</text>
<!-- R23 -->
<g id="node1" class="node">
<title>R23</title>
<g id="a_node1"><a xlink:href="23.svg" xlink:title="R23">
<polygon fill="cornsilk" stroke="none" points="682,-134.93 606,-134.93 606,-87.93 682,-87.93 682,-134.93"/>
<text text-anchor="middle" x="644" y="-102.93" font-family="Times New Roman,serif" font-size="35.00">R23</text>
</a>
</g>
</g>
<!-- R39 -->
<g id="node4" class="node">
<title>R39</title>
<g id="a_node4"><a xlink:href="39.svg" xlink:title="R39">
<polygon fill="cornsilk" stroke="none" points="1288,-190.93 1212,-190.93 1212,-143.93 1288,-143.93 1288,-190.93"/>
<text text-anchor="middle" x="1250" y="-158.93" font-family="Times New Roman,serif" font-size="35.00">R39</text>
</a>
</g>
</g>
<!-- R23&#45;&gt;R39 -->
<g id="edge3" class="edge">
<title>R23&#45;&gt;R39</title>
<path fill="none" stroke="black" d="M676.82,-134.87C684.11,-139.13 692.06,-143 700,-145.43 878.34,-199.98 1104.48,-184.04 1201.4,-173.46"/>
<polygon fill="black" stroke="black" points="1201.75,-176.83 1211.29,-172.24 1200.96,-169.88 1201.75,-176.83"/>
<text text-anchor="middle" x="947" y="-192.43" font-family="Times New Roman,serif" font-size="30.00"> &#160;&#160;110 &#160;&#160;0% &#160;&#160;4.67e&#45;08 mol/s &#160;&#160;&#160;1.00E+00</text>
</g>
<!-- R250 -->
<g id="node5" class="node">
<title>R250</title>
<g id="a_node5"><a xlink:href="250.svg" xlink:title="R250">
<polygon fill="cornsilk" stroke="none" points="1297,-102.93 1203,-102.93 1203,-55.93 1297,-55.93 1297,-102.93"/>
<text text-anchor="middle" x="1250" y="-70.93" font-family="Times New Roman,serif" font-size="35.00">R250</text>
</a>
</g>
</g>
<!-- R23&#45;&gt;R250 -->
<g id="edge4" class="edge">
<title>R23&#45;&gt;R250</title>
<path fill="none" stroke="black" d="M681.75,-111.73C768.64,-112.05 993.68,-110.68 1192.22,-89.45"/>
<polygon fill="black" stroke="black" points="1192.59,-92.82 1202.15,-88.26 1191.83,-85.87 1192.59,-92.82"/>
<text text-anchor="middle" x="947" y="-120.43" font-family="Times New Roman,serif" font-size="30.00"> &#160;&#160;427 &#160;&#160;0% &#160;&#160;1.01e&#45;11 mol/s &#160;&#160;&#160;1.00E+00</text>
</g>
<!-- R23&#45;&gt;R250 -->
<g id="edge5" class="edge">
<title>R23&#45;&gt;R250</title>
<path fill="none" stroke="black" stroke-width="5" d="M659.5,-88.2C669.17,-75.02 683.18,-59.75 700,-52.43 895.14,32.44 975.17,-0.55 1185.42,-51.16"/>
<polygon fill="black" stroke="black" stroke-width="5" points="1178.36,-58.9 1199.84,-55.03 1182.42,-41.88 1178.36,-58.9"/>
<text text-anchor="middle" x="947" y="-61.43" font-family="Times New Roman,serif" font-size="30.00"> &#160;&#160;722 &#160;&#160;99% &#160;&#160;0.000268 mol/s &#160;&#160;&#160;3.76E&#45;08</text>
</g>
<!-- R10 -->
<g id="node2" class="node">
<title>R10</title>
<g id="a_node2"><a xlink:href="10.svg" xlink:title="R10">
<polygon fill="cornsilk" stroke="none" points="76,-167.93 0,-167.93 0,-120.93 76,-120.93 76,-167.93"/>
<text text-anchor="middle" x="38" y="-135.93" font-family="Times New Roman,serif" font-size="35.00">R10</text>
</a>
</g>
</g>
<!-- R10&#45;&gt;R23 -->
<g id="edge1" class="edge">
<title>R10&#45;&gt;R23</title>
<path fill="none" stroke="black" stroke-width="6" d="M75.78,-144.95C161.42,-145.73 381.18,-145.34 585.48,-122.07"/>
<polygon fill="black" stroke="black" stroke-width="6" points="581.52,-132.4 600.15,-119.63 579.05,-111.55 581.52,-132.4"/>
<text text-anchor="middle" x="341" y="-153.43" font-family="Times New Roman,serif" font-size="30.00"> &#160;&#160;28 &#160;&#160;100% &#160;&#160;4.67e&#45;08 mol/s &#160;&#160;&#160;1.00E+00</text>
</g>
<!-- R1 -->
<g id="node3" class="node">
<title>R1</title>
<g id="a_node3"><a xlink:href="1.svg" xlink:title="R1">
<polygon fill="cornsilk" stroke="none" points="67,-102.93 9,-102.93 9,-55.93 67,-55.93 67,-102.93"/>
<text text-anchor="middle" x="38" y="-70.93" font-family="Times New Roman,serif" font-size="35.00">R1</text>
</a>
</g>
</g>
<!-- R1&#45;&gt;R23 -->
<g id="edge2" class="edge">
<title>R1&#45;&gt;R23</title>
<path fill="none" stroke="black" stroke-width="6" d="M66.8,-76.44C145.47,-68.71 376.47,-50.96 585.78,-90.56"/>
<polygon fill="black" stroke="black" stroke-width="6" points="578.62,-100.03 600.28,-93.64 582.72,-79.44 578.62,-100.03"/>
<text text-anchor="middle" x="341" y="-98.43" font-family="Times New Roman,serif" font-size="30.00"> &#160;&#160;28 &#160;&#160;100% &#160;&#160;4.67e&#45;08 mol/s &#160;&#160;&#160;1.00E+00</text>
</g>
</g>
</svg>
