<?xml version="1.0" encoding="UTF-8" standalone="no"?>
<!DOCTYPE svg PUBLIC "-//W3C//DTD SVG 1.1//EN"
 "http://www.w3.org/Graphics/SVG/1.1/DTD/svg11.dtd">
<!-- Generated by graphviz version 8.0.3 (20230416.2022)
 -->
<!-- Title: G Pages: 1 -->
<svg width="623pt" height="364pt"
 viewBox="0.00 0.00 701.00 409.17" xmlns="http://www.w3.org/2000/svg" xmlns:xlink="http://www.w3.org/1999/xlink">
<g id="graph0" class="graph" transform="scale(0.888889 0.888889) rotate(0) translate(4 405.17)">
<title>G</title>
<polygon fill="white" stroke="none" points="-4,4 -4,-405.17 697,-405.17 697,4 -4,4"/>
<text text-anchor="middle" x="346.5" y="-368.37" font-family="Arial" font-size="36.00" fill="blue">Reaction Path Analysis</text>
<!-- R233 -->
<g id="node1" class="node">
<title>R233</title>
<g id="a_node1"><a xlink:href="233.svg" xlink:title="R233">
<polygon fill="cornsilk" stroke="none" points="693,-203.67 599,-203.67 599,-156.67 693,-156.67 693,-203.67"/>
<text text-anchor="middle" x="646" y="-171.67" font-family="Times New Roman,serif" font-size="35.00">R233</text>
</a>
</g>
</g>
<!-- R4 -->
<g id="node2" class="node">
<title>R4</title>
<g id="a_node2"><a xlink:href="4.svg" xlink:title="R4">
<polygon fill="cornsilk" stroke="none" points="76,-333.67 18,-333.67 18,-286.67 76,-286.67 76,-333.67"/>
<text text-anchor="middle" x="47" y="-301.67" font-family="Times New Roman,serif" font-size="35.00">R4</text>
</a>
</g>
</g>
<!-- R4&#45;&gt;R233 -->
<g id="edge1" class="edge">
<title>R4&#45;&gt;R233</title>
<path fill="none" stroke="black" d="M75.89,-312.3C174.26,-319.25 503.67,-337.91 590,-283.17 614.35,-267.74 628.62,-237.66 636.49,-213.98"/>
<polygon fill="black" stroke="black" points="640.08,-215.21 639.67,-204.62 633.39,-213.15 640.08,-215.21"/>
<text text-anchor="middle" x="346.5" y="-329.17" font-family="Times New Roman,serif" font-size="30.00"> &#160;&#160;309 &#160;&#160;2% &#160;&#160;4.67e&#45;08 mol/s &#160;&#160;&#160;1.00E+00</text>
</g>
<!-- R86 -->
<g id="node3" class="node">
<title>R86</title>
<g id="a_node3"><a xlink:href="86.svg" xlink:title="R86">
<polygon fill="cornsilk" stroke="none" points="85,-268.67 9,-268.67 9,-221.67 85,-221.67 85,-268.67"/>
<text text-anchor="middle" x="47" y="-236.67" font-family="Times New Roman,serif" font-size="35.00">R86</text>
</a>
</g>
</g>
<!-- R86&#45;&gt;R233 -->
<g id="edge2" class="edge">
<title>R86&#45;&gt;R233</title>
<path fill="none" stroke="black" d="M84.74,-245.81C190.83,-247.26 496.04,-248.51 590,-217.17 595.94,-215.19 601.85,-212.38 607.46,-209.18"/>
<polygon fill="black" stroke="black" points="608.94,-211.76 615.58,-203.5 605.24,-205.81 608.94,-211.76"/>
<text text-anchor="middle" x="346.5" y="-255.17" font-family="Times New Roman,serif" font-size="30.00"> &#160;&#160;309 &#160;&#160;2% &#160;&#160;4.67e&#45;08 mol/s &#160;&#160;&#160;1.00E+00</text>
</g>
<!-- R13 -->
<g id="node4" class="node">
<title>R13</title>
<g id="a_node4"><a xlink:href="13.svg" xlink:title="R13">
<polygon fill="cornsilk" stroke="none" points="85,-203.67 9,-203.67 9,-156.67 85,-156.67 85,-203.67"/>
<text text-anchor="middle" x="47" y="-171.67" font-family="Times New Roman,serif" font-size="35.00">R13</text>
</a>
</g>
</g>
<!-- R13&#45;&gt;R233 -->
<g id="edge3" class="edge">
<title>R13&#45;&gt;R233</title>
<path fill="none" stroke="black" d="M84.89,-180.17C185.85,-180.17 467.13,-180.17 588.29,-180.17"/>
<polygon fill="black" stroke="black" points="588.16,-183.67 598.16,-180.17 588.16,-176.67 588.16,-183.67"/>
<text text-anchor="middle" x="346.5" y="-189.17" font-family="Times New Roman,serif" font-size="30.00"> &#160;&#160;357 &#160;&#160;2% &#160;&#160;4.67e&#45;08 mol/s &#160;&#160;&#160;1.00E+00</text>
</g>
<!-- R60 -->
<g id="node5" class="node">
<title>R60</title>
<g id="a_node5"><a xlink:href="60.svg" xlink:title="R60">
<polygon fill="cornsilk" stroke="none" points="85,-138.67 9,-138.67 9,-91.67 85,-91.67 85,-138.67"/>
<text text-anchor="middle" x="47" y="-106.67" font-family="Times New Roman,serif" font-size="35.00">R60</text>
</a>
</g>
</g>
<!-- R60&#45;&gt;R233 -->
<g id="edge4" class="edge">
<title>R60&#45;&gt;R233</title>
<path fill="none" stroke="black" d="M84.74,-110.5C174.06,-100.51 408.55,-82.66 590,-143.17 595.94,-145.16 601.85,-147.97 607.46,-151.17"/>
<polygon fill="black" stroke="black" points="605.24,-154.53 615.58,-156.84 608.94,-148.59 605.24,-154.53"/>
<text text-anchor="middle" x="346.5" y="-152.17" font-family="Times New Roman,serif" font-size="30.00"> &#160;&#160;357 &#160;&#160;2% &#160;&#160;4.67e&#45;08 mol/s &#160;&#160;&#160;1.00E+00</text>
</g>
<!-- R323 -->
<g id="node6" class="node">
<title>R323</title>
<g id="a_node6"><a xlink:href="323.svg" xlink:title="R323">
<polygon fill="cornsilk" stroke="none" points="94,-73.67 0,-73.67 0,-26.67 94,-26.67 94,-73.67"/>
<text text-anchor="middle" x="47" y="-41.67" font-family="Times New Roman,serif" font-size="35.00">R323</text>
</a>
</g>
</g>
<!-- R323&#45;&gt;R233 -->
<g id="edge5" class="edge">
<title>R323&#45;&gt;R233</title>
<path fill="none" stroke="black" stroke-width="5" d="M93.69,-36.36C193.25,-9.2 433.36,40.09 590,-62.17 615.28,-78.68 629.16,-110.09 636.64,-136.36"/>
<polygon fill="black" stroke="black" stroke-width="5" points="627.37,-133.37 640.54,-150.77 644.38,-129.28 627.37,-133.37"/>
<text text-anchor="middle" x="346.5" y="-71.17" font-family="Times New Roman,serif" font-size="30.00"> &#160;&#160;707 &#160;&#160;94% &#160;&#160;1.53e&#45;06 mol/s &#160;&#160;&#160;6.61E&#45;06</text>
</g>
</g>
</svg>
