<?xml version="1.0" encoding="UTF-8" standalone="no"?>
<!DOCTYPE svg PUBLIC "-//W3C//DTD SVG 1.1//EN"
 "http://www.w3.org/Graphics/SVG/1.1/DTD/svg11.dtd">
<!-- Generated by graphviz version 8.0.3 (20230416.2022)
 -->
<!-- Title: G Pages: 1 -->
<svg width="596pt" height="381pt"
 viewBox="0.00 0.00 671.00 428.43" xmlns="http://www.w3.org/2000/svg" xmlns:xlink="http://www.w3.org/1999/xlink">
<g id="graph0" class="graph" transform="scale(0.888889 0.888889) rotate(0) translate(4 424.43)">
<title>G</title>
<polygon fill="white" stroke="none" points="-4,4 -4,-424.43 667,-424.43 667,4 -4,4"/>
<text text-anchor="middle" x="331.5" y="-387.63" font-family="Arial" font-size="36.00" fill="blue">Reaction Path Analysis</text>
<!-- R233 -->
<g id="node1" class="node">
<title>R233</title>
<g id="a_node1"><a xlink:href="233.svg" xlink:title="R233">
<polygon fill="cornsilk" stroke="none" points="663,-198.93 569,-198.93 569,-151.93 663,-151.93 663,-198.93"/>
<text text-anchor="middle" x="616" y="-166.93" font-family="Times New Roman,serif" font-size="35.00">R233</text>
</a>
</g>
</g>
<!-- R4 -->
<g id="node2" class="node">
<title>R4</title>
<g id="a_node2"><a xlink:href="4.svg" xlink:title="R4">
<polygon fill="cornsilk" stroke="none" points="76,-328.93 18,-328.93 18,-281.93 76,-281.93 76,-328.93"/>
<text text-anchor="middle" x="47" y="-296.93" font-family="Times New Roman,serif" font-size="35.00">R4</text>
</a>
</g>
</g>
<!-- R4&#45;&gt;R233 -->
<g id="edge1" class="edge">
<title>R4&#45;&gt;R233</title>
<path fill="none" stroke="black" d="M75.78,-312.61C157.58,-332.06 401.78,-377.84 560,-277.43 584.16,-262.1 598.45,-232.33 606.38,-208.89"/>
<polygon fill="black" stroke="black" points="609.94,-210.23 609.59,-199.64 603.26,-208.13 609.94,-210.23"/>
<text text-anchor="middle" x="331.5" y="-348.43" font-family="Times New Roman,serif" font-size="30.00"> &#160;&#160;309 &#160;&#160;0% &#160;&#160;0.0342 mol/s &#160;&#160;&#160;1.00E+00</text>
</g>
<!-- R86 -->
<g id="node3" class="node">
<title>R86</title>
<g id="a_node3"><a xlink:href="86.svg" xlink:title="R86">
<polygon fill="cornsilk" stroke="none" points="85,-263.93 9,-263.93 9,-216.93 85,-216.93 85,-263.93"/>
<text text-anchor="middle" x="47" y="-231.93" font-family="Times New Roman,serif" font-size="35.00">R86</text>
</a>
</g>
</g>
<!-- R86&#45;&gt;R233 -->
<g id="edge2" class="edge">
<title>R86&#45;&gt;R233</title>
<path fill="none" stroke="black" d="M84.88,-240.94C187.04,-241.95 471.9,-241.96 560,-212.43 565.94,-210.44 571.84,-207.63 577.46,-204.42"/>
<polygon fill="black" stroke="black" points="578.94,-207 585.58,-198.75 575.24,-201.06 578.94,-207"/>
<text text-anchor="middle" x="331.5" y="-249.43" font-family="Times New Roman,serif" font-size="30.00"> &#160;&#160;309 &#160;&#160;0% &#160;&#160;0.0342 mol/s &#160;&#160;&#160;1.00E+00</text>
</g>
<!-- R13 -->
<g id="node4" class="node">
<title>R13</title>
<g id="a_node4"><a xlink:href="13.svg" xlink:title="R13">
<polygon fill="cornsilk" stroke="none" points="85,-198.93 9,-198.93 9,-151.93 85,-151.93 85,-198.93"/>
<text text-anchor="middle" x="47" y="-166.93" font-family="Times New Roman,serif" font-size="35.00">R13</text>
</a>
</g>
</g>
<!-- R13&#45;&gt;R233 -->
<g id="edge3" class="edge">
<title>R13&#45;&gt;R233</title>
<path fill="none" stroke="black" d="M84.77,-175.43C181.28,-175.43 442.41,-175.43 558.29,-175.43"/>
<polygon fill="black" stroke="black" points="558.04,-178.94 568.04,-175.43 558.04,-171.94 558.04,-178.94"/>
<text text-anchor="middle" x="331.5" y="-184.43" font-family="Times New Roman,serif" font-size="30.00"> &#160;&#160;357 &#160;&#160;0% &#160;&#160;0.0342 mol/s &#160;&#160;&#160;1.00E+00</text>
</g>
<!-- R60 -->
<g id="node5" class="node">
<title>R60</title>
<g id="a_node5"><a xlink:href="60.svg" xlink:title="R60">
<polygon fill="cornsilk" stroke="none" points="85,-133.93 9,-133.93 9,-86.93 85,-86.93 85,-133.93"/>
<text text-anchor="middle" x="47" y="-101.93" font-family="Times New Roman,serif" font-size="35.00">R60</text>
</a>
</g>
</g>
<!-- R60&#45;&gt;R233 -->
<g id="edge4" class="edge">
<title>R60&#45;&gt;R233</title>
<path fill="none" stroke="black" d="M84.93,-105.92C170.92,-96.78 390.13,-81.5 560,-138.43 565.94,-140.43 571.84,-143.24 577.46,-146.45"/>
<polygon fill="black" stroke="black" points="575.24,-149.81 585.58,-152.12 578.94,-143.87 575.24,-149.81"/>
<text text-anchor="middle" x="331.5" y="-147.43" font-family="Times New Roman,serif" font-size="30.00"> &#160;&#160;357 &#160;&#160;0% &#160;&#160;0.0342 mol/s &#160;&#160;&#160;1.00E+00</text>
</g>
<!-- R323 -->
<g id="node6" class="node">
<title>R323</title>
<g id="a_node6"><a xlink:href="323.svg" xlink:title="R323">
<polygon fill="cornsilk" stroke="none" points="94,-68.93 0,-68.93 0,-21.93 94,-21.93 94,-68.93"/>
<text text-anchor="middle" x="47" y="-36.93" font-family="Times New Roman,serif" font-size="35.00">R323</text>
</a>
</g>
</g>
<!-- R323&#45;&gt;R233 -->
<g id="edge5" class="edge">
<title>R323&#45;&gt;R233</title>
<path fill="none" stroke="black" stroke-width="5" d="M93.67,-32.08C189.16,-7.05 413.25,36.23 560,-59.43 584.8,-75.6 598.67,-106.21 606.28,-131.93"/>
<polygon fill="black" stroke="black" stroke-width="5" points="596.95,-128.69 610.3,-145.96 613.92,-124.44 596.95,-128.69"/>
<text text-anchor="middle" x="331.5" y="-68.43" font-family="Times New Roman,serif" font-size="30.00"> &#160;&#160;707 &#160;&#160;99% &#160;&#160;123.0 mol/s &#160;&#160;&#160;2.22E&#45;05</text>
</g>
</g>
</svg>
