<?xml version="1.0" encoding="UTF-8" standalone="no"?>
<!DOCTYPE svg PUBLIC "-//W3C//DTD SVG 1.1//EN"
 "http://www.w3.org/Graphics/SVG/1.1/DTD/svg11.dtd">
<!-- Generated by graphviz version 8.0.3 (20230416.2022)
 -->
<!-- Title: G Pages: 1 -->
<svg width="602pt" height="313pt"
 viewBox="0.00 0.00 677.00 352.69" xmlns="http://www.w3.org/2000/svg" xmlns:xlink="http://www.w3.org/1999/xlink">
<g id="graph0" class="graph" transform="scale(0.888889 0.888889) rotate(0) translate(4 348.69)">
<title>G</title>
<polygon fill="white" stroke="none" points="-4,4 -4,-348.69 673,-348.69 673,4 -4,4"/>
<text text-anchor="middle" x="334.5" y="-311.89" font-family="Arial" font-size="36.00" fill="blue">Reaction Path Analysis</text>
<!-- R234 -->
<g id="node1" class="node">
<title>R234</title>
<g id="a_node1"><a xlink:href="234.svg" xlink:title="R234">
<polygon fill="cornsilk" stroke="none" points="669,-161.19 575,-161.19 575,-114.19 669,-114.19 669,-161.19"/>
<text text-anchor="middle" x="622" y="-129.19" font-family="Times New Roman,serif" font-size="35.00">R234</text>
</a>
</g>
</g>
<!-- R4 -->
<g id="node2" class="node">
<title>R4</title>
<g id="a_node2"><a xlink:href="4.svg" xlink:title="R4">
<polygon fill="cornsilk" stroke="none" points="67,-259.19 9,-259.19 9,-212.19 67,-212.19 67,-259.19"/>
<text text-anchor="middle" x="38" y="-227.19" font-family="Times New Roman,serif" font-size="35.00">R4</text>
</a>
</g>
</g>
<!-- R4&#45;&gt;R234 -->
<g id="edge1" class="edge">
<title>R4&#45;&gt;R234</title>
<path fill="none" stroke="black" stroke-width="3" d="M66.8,-241.77C148.84,-258.21 394.84,-296.57 566,-207.69 581.98,-199.39 594.8,-184.15 604.03,-170"/>
<polygon fill="black" stroke="black" stroke-width="3" points="605.34,-174.31 607.58,-163.95 599.37,-170.65 605.34,-174.31"/>
<text text-anchor="middle" x="330" y="-272.69" font-family="Times New Roman,serif" font-size="30.00"> &#160;&#160;310 &#160;&#160;50% &#160;&#160;0.0342 mol/s &#160;&#160;&#160;1.00E+00</text>
</g>
<!-- R86 -->
<g id="node3" class="node">
<title>R86</title>
<g id="a_node3"><a xlink:href="86.svg" xlink:title="R86">
<polygon fill="cornsilk" stroke="none" points="76,-194.19 0,-194.19 0,-147.19 76,-147.19 76,-194.19"/>
<text text-anchor="middle" x="38" y="-162.19" font-family="Times New Roman,serif" font-size="35.00">R86</text>
</a>
</g>
</g>
<!-- R86&#45;&gt;R234 -->
<g id="edge2" class="edge">
<title>R86&#45;&gt;R234</title>
<path fill="none" stroke="black" stroke-width="3" d="M75.9,-171.11C160.45,-171.67 374.87,-170.7 564.45,-148.68"/>
<polygon fill="black" stroke="black" stroke-width="3" points="561.65,-152.06 571.17,-147.41 560.83,-145.11 561.65,-152.06"/>
<text text-anchor="middle" x="330" y="-179.69" font-family="Times New Roman,serif" font-size="30.00"> &#160;&#160;310 &#160;&#160;50% &#160;&#160;0.0342 mol/s &#160;&#160;&#160;1.00E+00</text>
</g>
<!-- R13 -->
<g id="node4" class="node">
<title>R13</title>
<g id="a_node4"><a xlink:href="13.svg" xlink:title="R13">
<polygon fill="cornsilk" stroke="none" points="76,-129.19 0,-129.19 0,-82.19 76,-82.19 76,-129.19"/>
<text text-anchor="middle" x="38" y="-97.19" font-family="Times New Roman,serif" font-size="35.00">R13</text>
</a>
</g>
</g>
<!-- R13&#45;&gt;R234 -->
<g id="edge3" class="edge">
<title>R13&#45;&gt;R234</title>
<path fill="none" stroke="black" stroke-width="3" d="M75.91,-101.88C160.94,-94.06 377.06,-79.65 564.56,-115.85"/>
<polygon fill="black" stroke="black" stroke-width="3" points="560.67,-119.44 571.16,-117.95 562.03,-112.57 560.67,-119.44"/>
<text text-anchor="middle" x="330" y="-124.69" font-family="Times New Roman,serif" font-size="30.00"> &#160;&#160;358 &#160;&#160;50% &#160;&#160;0.0342 mol/s &#160;&#160;&#160;1.00E+00</text>
</g>
<!-- R60 -->
<g id="node5" class="node">
<title>R60</title>
<g id="a_node5"><a xlink:href="60.svg" xlink:title="R60">
<polygon fill="cornsilk" stroke="none" points="76,-64.19 0,-64.19 0,-17.19 76,-17.19 76,-64.19"/>
<text text-anchor="middle" x="38" y="-32.19" font-family="Times New Roman,serif" font-size="35.00">R60</text>
</a>
</g>
</g>
<!-- R60&#45;&gt;R234 -->
<g id="edge4" class="edge">
<title>R60&#45;&gt;R234</title>
<path fill="none" stroke="black" stroke-width="3" d="M75.85,-30.82C166.17,-8.81 403.09,35.6 566,-54.69 585.43,-65.45 599.21,-86.32 608.12,-104.44"/>
<polygon fill="black" stroke="black" stroke-width="3" points="604.34,-102.78 611.69,-110.42 610.71,-99.87 604.34,-102.78"/>
<text text-anchor="middle" x="330" y="-63.69" font-family="Times New Roman,serif" font-size="30.00"> &#160;&#160;358 &#160;&#160;50% &#160;&#160;0.0342 mol/s &#160;&#160;&#160;1.00E+00</text>
</g>
</g>
</svg>
