<?xml version="1.0" encoding="UTF-8" standalone="no"?>
<!DOCTYPE svg PUBLIC "-//W3C//DTD SVG 1.1//EN"
 "http://www.w3.org/Graphics/SVG/1.1/DTD/svg11.dtd">
<!-- Generated by graphviz version 8.0.3 (20230416.2022)
 -->
<!-- Title: G Pages: 1 -->
<svg width="640pt" height="171pt"
 viewBox="0.00 0.00 720.00 192.68" xmlns="http://www.w3.org/2000/svg" xmlns:xlink="http://www.w3.org/1999/xlink">
<g id="graph0" class="graph" transform="scale(0.492687 0.492687) rotate(0) translate(4 343.63)">
<title>G</title>
<polygon fill="white" stroke="none" points="-4,4 -4,-343.63 1295,-343.63 1295,4 -4,4"/>
<text text-anchor="middle" x="645.5" y="-306.83" font-family="Arial" font-size="36.00" fill="blue">Reaction Path Analysis</text>
<!-- R24 -->
<g id="node1" class="node">
<title>R24</title>
<g id="a_node1"><a xlink:href="24.svg" xlink:title="R24">
<polygon fill="cornsilk" stroke="none" points="688,-166.13 612,-166.13 612,-119.13 688,-119.13 688,-166.13"/>
<text text-anchor="middle" x="650" y="-134.13" font-family="Times New Roman,serif" font-size="35.00">R24</text>
</a>
</g>
</g>
<!-- R40 -->
<g id="node4" class="node">
<title>R40</title>
<g id="a_node4"><a xlink:href="40.svg" xlink:title="R40">
<polygon fill="cornsilk" stroke="none" points="1291,-166.13 1215,-166.13 1215,-119.13 1291,-119.13 1291,-166.13"/>
<text text-anchor="middle" x="1253" y="-134.13" font-family="Times New Roman,serif" font-size="35.00">R40</text>
</a>
</g>
</g>
<!-- R24&#45;&gt;R40 -->
<g id="edge3" class="edge">
<title>R24&#45;&gt;R40</title>
<path fill="none" stroke="black" stroke-width="6" d="M687.69,-142.63C788.7,-142.63 1071.47,-142.63 1194.08,-142.63"/>
<polygon fill="black" stroke="black" stroke-width="6" points="1189.03,-153.13 1209.03,-142.63 1189.03,-132.13 1189.03,-153.13"/>
<text text-anchor="middle" x="951.5" y="-151.63" font-family="Times New Roman,serif" font-size="30.00"> &#160;&#160;111 &#160;&#160;100% &#160;&#160;2.18e&#45;15 mol/s &#160;&#160;&#160;1.00E+00</text>
</g>
<!-- R11 -->
<g id="node2" class="node">
<title>R11</title>
<g id="a_node2"><a xlink:href="11.svg" xlink:title="R11">
<polygon fill="cornsilk" stroke="none" points="85,-259.13 9,-259.13 9,-212.13 85,-212.13 85,-259.13"/>
<text text-anchor="middle" x="47" y="-227.13" font-family="Times New Roman,serif" font-size="35.00">R11</text>
</a>
</g>
</g>
<!-- R11&#45;&gt;R24 -->
<g id="edge1" class="edge">
<title>R11&#45;&gt;R24</title>
<path fill="none" stroke="black" stroke-width="5" d="M84.89,-242.38C175.49,-257.15 414.2,-285.03 588,-205.63 599.98,-200.16 610.82,-191.19 619.94,-181.72"/>
<polygon fill="black" stroke="black" stroke-width="5" points="623.18,-190.71 629.53,-169.83 609.88,-179.34 623.18,-190.71"/>
<text text-anchor="middle" x="348.5" y="-267.63" font-family="Times New Roman,serif" font-size="30.00"> &#160;&#160;29 &#160;&#160;99% &#160;&#160;2.18e&#45;15 mol/s &#160;&#160;&#160;1.00E+00</text>
</g>
<!-- R1 -->
<g id="node3" class="node">
<title>R1</title>
<g id="a_node3"><a xlink:href="1.svg" xlink:title="R1">
<polygon fill="cornsilk" stroke="none" points="76,-194.13 18,-194.13 18,-147.13 76,-147.13 76,-194.13"/>
<text text-anchor="middle" x="47" y="-162.13" font-family="Times New Roman,serif" font-size="35.00">R1</text>
</a>
</g>
</g>
<!-- R1&#45;&gt;R24 -->
<g id="edge2" class="edge">
<title>R1&#45;&gt;R24</title>
<path fill="none" stroke="black" stroke-width="5" d="M75.85,-170.06C155.68,-168.3 392.14,-162.24 588,-148.63 589.1,-148.55 590.22,-148.47 591.34,-148.39"/>
<polygon fill="black" stroke="black" stroke-width="5" points="587.08,-157.02 606.26,-146.59 585.58,-139.59 587.08,-157.02"/>
<text text-anchor="middle" x="348.5" y="-177.63" font-family="Times New Roman,serif" font-size="30.00"> &#160;&#160;29 &#160;&#160;99% &#160;&#160;2.18e&#45;15 mol/s &#160;&#160;&#160;1.00E+00</text>
</g>
<!-- R255 -->
<g id="node5" class="node">
<title>R255</title>
<g id="a_node5"><a xlink:href="255.svg" xlink:title="R255">
<polygon fill="cornsilk" stroke="none" points="94,-106.13 0,-106.13 0,-59.13 94,-59.13 94,-106.13"/>
<text text-anchor="middle" x="47" y="-74.13" font-family="Times New Roman,serif" font-size="35.00">R255</text>
</a>
</g>
</g>
<!-- R255&#45;&gt;R24 -->
<g id="edge4" class="edge">
<title>R255&#45;&gt;R24</title>
<path fill="none" stroke="black" d="M93.88,-90.77C98.97,-91.49 104.09,-92.13 109,-92.63 214.98,-103.38 484.91,-84.77 588,-111.63 592.85,-112.89 597.75,-114.58 602.56,-116.52"/>
<polygon fill="black" stroke="black" points="600.7,-119.96 611.26,-120.79 603.52,-113.56 600.7,-119.96"/>
<text text-anchor="middle" x="348.5" y="-120.63" font-family="Times New Roman,serif" font-size="30.00"> &#160;&#160;428 &#160;&#160;0% &#160;&#160;3.25e&#45;24 mol/s &#160;&#160;&#160;6.68E&#45;03</text>
</g>
<!-- R255&#45;&gt;R24 -->
<g id="edge5" class="edge">
<title>R255&#45;&gt;R24</title>
<path fill="none" stroke="black" d="M93.96,-59.92C98.94,-58.17 104.01,-56.68 109,-55.63 317.28,-11.59 399.13,42.61 588,-55.63 609.74,-66.94 625.34,-89.94 635.32,-109.45"/>
<polygon fill="black" stroke="black" points="632.55,-110.76 640.03,-118.25 638.86,-107.73 632.55,-110.76"/>
<text text-anchor="middle" x="348.5" y="-64.63" font-family="Times New Roman,serif" font-size="30.00"> &#160;&#160;730 &#160;&#160;0% &#160;&#160;2.19e&#45;26 mol/s &#160;&#160;&#160;9.93E&#45;01</text>
</g>
</g>
</svg>
