<?xml version="1.0" encoding="UTF-8" standalone="no"?>
<!DOCTYPE svg PUBLIC "-//W3C//DTD SVG 1.1//EN"
 "http://www.w3.org/Graphics/SVG/1.1/DTD/svg11.dtd">
<!-- Generated by graphviz version 8.0.3 (20230416.2022)
 -->
<!-- Title: G Pages: 1 -->
<svg width="640pt" height="177pt"
 viewBox="0.00 0.00 720.00 199.45" xmlns="http://www.w3.org/2000/svg" xmlns:xlink="http://www.w3.org/1999/xlink">
<g id="graph0" class="graph" transform="scale(0.50996 0.50996) rotate(0) translate(4 343.65)">
<title>G</title>
<polygon fill="white" stroke="none" points="-4,4 -4,-343.65 1251,-343.65 1251,4 -4,4"/>
<text text-anchor="middle" x="623.5" y="-306.85" font-family="Arial" font-size="36.00" fill="blue">Reaction Path Analysis</text>
<!-- R24 -->
<g id="node1" class="node">
<title>R24</title>
<g id="a_node1"><a xlink:href="24.svg" xlink:title="R24">
<polygon fill="cornsilk" stroke="none" points="666,-166.15 590,-166.15 590,-119.15 666,-119.15 666,-166.15"/>
<text text-anchor="middle" x="628" y="-134.15" font-family="Times New Roman,serif" font-size="35.00">R24</text>
</a>
</g>
</g>
<!-- R40 -->
<g id="node4" class="node">
<title>R40</title>
<g id="a_node4"><a xlink:href="40.svg" xlink:title="R40">
<polygon fill="cornsilk" stroke="none" points="1247,-166.15 1171,-166.15 1171,-119.15 1247,-119.15 1247,-166.15"/>
<text text-anchor="middle" x="1209" y="-134.15" font-family="Times New Roman,serif" font-size="35.00">R40</text>
</a>
</g>
</g>
<!-- R24&#45;&gt;R40 -->
<g id="edge3" class="edge">
<title>R24&#45;&gt;R40</title>
<path fill="none" stroke="black" stroke-width="6" d="M665.66,-142.65C763.51,-142.65 1031.46,-142.65 1150.13,-142.65"/>
<polygon fill="black" stroke="black" stroke-width="6" points="1145.13,-153.15 1165.13,-142.65 1145.13,-132.15 1145.13,-153.15"/>
<text text-anchor="middle" x="918.5" y="-151.65" font-family="Times New Roman,serif" font-size="30.00"> &#160;&#160;111 &#160;&#160;100% &#160;&#160;0.0342 mol/s &#160;&#160;&#160;1.00E+00</text>
</g>
<!-- R11 -->
<g id="node2" class="node">
<title>R11</title>
<g id="a_node2"><a xlink:href="11.svg" xlink:title="R11">
<polygon fill="cornsilk" stroke="none" points="85,-259.15 9,-259.15 9,-212.15 85,-212.15 85,-259.15"/>
<text text-anchor="middle" x="47" y="-227.15" font-family="Times New Roman,serif" font-size="35.00">R11</text>
</a>
</g>
</g>
<!-- R11&#45;&gt;R24 -->
<g id="edge1" class="edge">
<title>R11&#45;&gt;R24</title>
<path fill="none" stroke="black" stroke-width="2" d="M84.75,-242.55C173.32,-257.34 403.48,-284.67 569.5,-205.65 583.92,-198.79 596.39,-186.53 606,-174.64"/>
<polygon fill="black" stroke="black" stroke-width="2" points="608.21,-178.2 611.48,-168.13 602.64,-173.96 608.21,-178.2"/>
<text text-anchor="middle" x="337.5" y="-267.65" font-family="Times New Roman,serif" font-size="30.00"> &#160;&#160;29 &#160;&#160;27% &#160;&#160;0.0342 mol/s &#160;&#160;&#160;1.00E+00</text>
</g>
<!-- R1 -->
<g id="node3" class="node">
<title>R1</title>
<g id="a_node3"><a xlink:href="1.svg" xlink:title="R1">
<polygon fill="cornsilk" stroke="none" points="76,-194.15 18,-194.15 18,-147.15 76,-147.15 76,-194.15"/>
<text text-anchor="middle" x="47" y="-162.15" font-family="Times New Roman,serif" font-size="35.00">R1</text>
</a>
</g>
</g>
<!-- R1&#45;&gt;R24 -->
<g id="edge2" class="edge">
<title>R1&#45;&gt;R24</title>
<path fill="none" stroke="black" stroke-width="2" d="M75.74,-170.08C153.64,-168.36 381.06,-162.44 569.5,-148.65 572.75,-148.41 576.1,-148.14 579.47,-147.84"/>
<polygon fill="black" stroke="black" stroke-width="2" points="577.59,-151.25 587.22,-146.83 576.94,-144.28 577.59,-151.25"/>
<text text-anchor="middle" x="337.5" y="-177.65" font-family="Times New Roman,serif" font-size="30.00"> &#160;&#160;29 &#160;&#160;27% &#160;&#160;0.0342 mol/s &#160;&#160;&#160;1.00E+00</text>
</g>
<!-- R255 -->
<g id="node5" class="node">
<title>R255</title>
<g id="a_node5"><a xlink:href="255.svg" xlink:title="R255">
<polygon fill="cornsilk" stroke="none" points="94,-106.15 0,-106.15 0,-59.15 94,-59.15 94,-106.15"/>
<text text-anchor="middle" x="47" y="-74.15" font-family="Times New Roman,serif" font-size="35.00">R255</text>
</a>
</g>
</g>
<!-- R255&#45;&gt;R24 -->
<g id="edge4" class="edge">
<title>R255&#45;&gt;R24</title>
<path fill="none" stroke="black" stroke-width="4" d="M93.75,-91.16C97.71,-91.73 101.67,-92.24 105.5,-92.65 208.11,-103.62 469.98,-84.35 569.5,-111.65 569.94,-111.77 570.38,-111.89 570.81,-112.02"/>
<polygon fill="black" stroke="black" stroke-width="4" points="564.12,-116.88 585.3,-117.73 569.28,-103.86 564.12,-116.88"/>
<text text-anchor="middle" x="337.5" y="-120.65" font-family="Times New Roman,serif" font-size="30.00"> &#160;&#160;428 &#160;&#160;70% &#160;&#160;0.0885 mol/s &#160;&#160;&#160;2.89E&#45;02</text>
</g>
<!-- R255&#45;&gt;R24 -->
<g id="edge5" class="edge">
<title>R255&#45;&gt;R24</title>
<path fill="none" stroke="black" d="M93.18,-59.24C97.27,-57.8 101.41,-56.56 105.5,-55.65 306.77,-10.75 387.87,42.02 569.5,-55.65 590.68,-67.04 605.36,-90.04 614.59,-109.53"/>
<polygon fill="black" stroke="black" points="611.67,-110.59 618.92,-118.32 618.08,-107.76 611.67,-110.59"/>
<text text-anchor="middle" x="337.5" y="-64.65" font-family="Times New Roman,serif" font-size="30.00"> &#160;&#160;730 &#160;&#160;2% &#160;&#160;0.00264 mol/s &#160;&#160;&#160;9.71E&#45;01</text>
</g>
</g>
</svg>
