<?xml version="1.0" encoding="UTF-8" standalone="no"?>
<!DOCTYPE svg PUBLIC "-//W3C//DTD SVG 1.1//EN"
 "http://www.w3.org/Graphics/SVG/1.1/DTD/svg11.dtd">
<!-- Generated by graphviz version 8.0.3 (20230416.2022)
 -->
<!-- Title: G Pages: 1 -->
<svg width="610pt" height="313pt"
 viewBox="0.00 0.00 686.00 352.65" xmlns="http://www.w3.org/2000/svg" xmlns:xlink="http://www.w3.org/1999/xlink">
<g id="graph0" class="graph" transform="scale(0.888889 0.888889) rotate(0) translate(4 348.65)">
<title>G</title>
<polygon fill="white" stroke="none" points="-4,4 -4,-348.65 682,-348.65 682,4 -4,4"/>
<text text-anchor="middle" x="339" y="-311.85" font-family="Arial" font-size="36.00" fill="blue">Reaction Path Analysis</text>
<!-- R240 -->
<g id="node1" class="node">
<title>R240</title>
<g id="a_node1"><a xlink:href="240.svg" xlink:title="R240">
<polygon fill="cornsilk" stroke="none" points="678,-161.15 584,-161.15 584,-114.15 678,-114.15 678,-161.15"/>
<text text-anchor="middle" x="631" y="-129.15" font-family="Times New Roman,serif" font-size="35.00">R240</text>
</a>
</g>
</g>
<!-- R27 -->
<g id="node2" class="node">
<title>R27</title>
<g id="a_node2"><a xlink:href="27.svg" xlink:title="R27">
<polygon fill="cornsilk" stroke="none" points="85,-259.15 9,-259.15 9,-212.15 85,-212.15 85,-259.15"/>
<text text-anchor="middle" x="47" y="-227.15" font-family="Times New Roman,serif" font-size="35.00">R27</text>
</a>
</g>
</g>
<!-- R27&#45;&gt;R240 -->
<g id="edge1" class="edge">
<title>R27&#45;&gt;R240</title>
<path fill="none" stroke="black" stroke-width="3" d="M84.85,-243.5C174.7,-260.66 409.73,-293.47 575,-207.65 590.98,-199.35 603.8,-184.11 613.03,-169.96"/>
<polygon fill="black" stroke="black" stroke-width="3" points="614.34,-174.27 616.58,-163.91 608.37,-170.61 614.34,-174.27"/>
<text text-anchor="middle" x="339" y="-272.65" font-family="Times New Roman,serif" font-size="30.00"> &#160;&#160;322 &#160;&#160;50% &#160;&#160;0.0342 mol/s &#160;&#160;&#160;1.00E+00</text>
</g>
<!-- R6 -->
<g id="node3" class="node">
<title>R6</title>
<g id="a_node3"><a xlink:href="6.svg" xlink:title="R6">
<polygon fill="cornsilk" stroke="none" points="76,-194.15 18,-194.15 18,-147.15 76,-147.15 76,-194.15"/>
<text text-anchor="middle" x="47" y="-162.15" font-family="Times New Roman,serif" font-size="35.00">R6</text>
</a>
</g>
</g>
<!-- R6&#45;&gt;R240 -->
<g id="edge2" class="edge">
<title>R6&#45;&gt;R240</title>
<path fill="none" stroke="black" stroke-width="3" d="M75.83,-171C153.1,-171.68 376.92,-171.46 573.36,-148.65"/>
<polygon fill="black" stroke="black" stroke-width="3" points="570.65,-152.02 580.17,-147.37 569.83,-145.07 570.65,-152.02"/>
<text text-anchor="middle" x="339" y="-179.65" font-family="Times New Roman,serif" font-size="30.00"> &#160;&#160;322 &#160;&#160;50% &#160;&#160;0.0342 mol/s &#160;&#160;&#160;1.00E+00</text>
</g>
<!-- R2 -->
<g id="node4" class="node">
<title>R2</title>
<g id="a_node4"><a xlink:href="2.svg" xlink:title="R2">
<polygon fill="cornsilk" stroke="none" points="76,-129.15 18,-129.15 18,-82.15 76,-82.15 76,-129.15"/>
<text text-anchor="middle" x="47" y="-97.15" font-family="Times New Roman,serif" font-size="35.00">R2</text>
</a>
</g>
</g>
<!-- R2&#45;&gt;R240 -->
<g id="edge3" class="edge">
<title>R2&#45;&gt;R240</title>
<path fill="none" stroke="black" stroke-width="3" d="M75.81,-102.7C153.49,-95.19 379.19,-78.32 573.47,-115.79"/>
<polygon fill="black" stroke="black" stroke-width="3" points="569.67,-119.4 580.16,-117.91 571.03,-112.53 569.67,-119.4"/>
<text text-anchor="middle" x="339" y="-124.65" font-family="Times New Roman,serif" font-size="30.00"> &#160;&#160;621 &#160;&#160;50% &#160;&#160;0.0342 mol/s &#160;&#160;&#160;1.00E+00</text>
</g>
<!-- R120 -->
<g id="node5" class="node">
<title>R120</title>
<g id="a_node5"><a xlink:href="120.svg" xlink:title="R120">
<polygon fill="cornsilk" stroke="none" points="94,-64.15 0,-64.15 0,-17.15 94,-17.15 94,-64.15"/>
<text text-anchor="middle" x="47" y="-32.15" font-family="Times New Roman,serif" font-size="35.00">R120</text>
</a>
</g>
</g>
<!-- R120&#45;&gt;R240 -->
<g id="edge4" class="edge">
<title>R120&#45;&gt;R240</title>
<path fill="none" stroke="black" stroke-width="3" d="M93.94,-28.61C190.23,-6.07 417.3,32.76 575,-54.65 594.43,-65.41 608.21,-86.28 617.12,-104.4"/>
<polygon fill="black" stroke="black" stroke-width="3" points="613.34,-102.74 620.69,-110.38 619.71,-99.83 613.34,-102.74"/>
<text text-anchor="middle" x="339" y="-63.65" font-family="Times New Roman,serif" font-size="30.00"> &#160;&#160;621 &#160;&#160;50% &#160;&#160;0.0342 mol/s &#160;&#160;&#160;1.00E+00</text>
</g>
</g>
</svg>
