<?xml version="1.0" encoding="UTF-8" standalone="no"?>
<!DOCTYPE svg PUBLIC "-//W3C//DTD SVG 1.1//EN"
 "http://www.w3.org/Graphics/SVG/1.1/DTD/svg11.dtd">
<!-- Generated by graphviz version 8.0.3 (20230416.2022)
 -->
<!-- Title: G Pages: 1 -->
<svg width="640pt" height="233pt"
 viewBox="0.00 0.00 720.00 261.87" xmlns="http://www.w3.org/2000/svg" xmlns:xlink="http://www.w3.org/1999/xlink">
<g id="graph0" class="graph" transform="scale(0.490421 0.490421) rotate(0) translate(4 470.64)">
<title>G</title>
<polygon fill="white" stroke="none" points="-4,4 -4,-470.64 1301,-470.64 1301,4 -4,4"/>
<text text-anchor="middle" x="648.5" y="-433.84" font-family="Arial" font-size="36.00" fill="blue">Reaction Path Analysis</text>
<!-- R241 -->
<g id="node1" class="node">
<title>R241</title>
<g id="a_node1"><a xlink:href="241.svg" xlink:title="R241">
<polygon fill="cornsilk" stroke="none" points="691,-233.14 597,-233.14 597,-186.14 691,-186.14 691,-233.14"/>
<text text-anchor="middle" x="644" y="-201.14" font-family="Times New Roman,serif" font-size="35.00">R241</text>
</a>
</g>
</g>
<!-- R274 -->
<g id="node5" class="node">
<title>R274</title>
<g id="a_node5"><a xlink:href="274.svg" xlink:title="R274">
<polygon fill="cornsilk" stroke="none" points="1297,-396.14 1203,-396.14 1203,-349.14 1297,-349.14 1297,-396.14"/>
<text text-anchor="middle" x="1250" y="-364.14" font-family="Times New Roman,serif" font-size="35.00">R274</text>
</a>
</g>
</g>
<!-- R241&#45;&gt;R274 -->
<g id="edge4" class="edge">
<title>R241&#45;&gt;R274</title>
<path fill="none" stroke="black" d="M648.56,-232.89C654.86,-265.09 671.27,-322.27 711,-348.64 788.52,-400.1 1070.71,-386.05 1192.46,-377.25"/>
<polygon fill="black" stroke="black" points="1192.66,-380.67 1202.38,-376.44 1192.15,-373.69 1192.66,-380.67"/>
<text text-anchor="middle" x="947" y="-394.64" font-family="Times New Roman,serif" font-size="30.00"> &#160;&#160;517 &#160;&#160;19% &#160;&#160;0.0342 mol/s &#160;&#160;&#160;1.00E+00</text>
</g>
<!-- R275 -->
<g id="node6" class="node">
<title>R275</title>
<g id="a_node6"><a xlink:href="275.svg" xlink:title="R275">
<polygon fill="cornsilk" stroke="none" points="1297,-331.14 1203,-331.14 1203,-284.14 1297,-284.14 1297,-331.14"/>
<text text-anchor="middle" x="1250" y="-299.14" font-family="Times New Roman,serif" font-size="35.00">R275</text>
</a>
</g>
</g>
<!-- R241&#45;&gt;R275 -->
<g id="edge5" class="edge">
<title>R241&#45;&gt;R275</title>
<path fill="none" stroke="black" d="M660.13,-232.99C671.9,-248.94 689.76,-268.88 711,-278.64 795.38,-317.41 1072.5,-313.49 1192.63,-309.77"/>
<polygon fill="black" stroke="black" points="1192.53,-313.24 1202.41,-309.43 1192.3,-306.25 1192.53,-313.24"/>
<text text-anchor="middle" x="947" y="-320.64" font-family="Times New Roman,serif" font-size="30.00"> &#160;&#160;518 &#160;&#160;19% &#160;&#160;0.0342 mol/s &#160;&#160;&#160;1.00E+00</text>
</g>
<!-- R300 -->
<g id="node7" class="node">
<title>R300</title>
<g id="a_node7"><a xlink:href="300.svg" xlink:title="R300">
<polygon fill="cornsilk" stroke="none" points="1297,-266.14 1203,-266.14 1203,-219.14 1297,-219.14 1297,-266.14"/>
<text text-anchor="middle" x="1250" y="-234.14" font-family="Times New Roman,serif" font-size="35.00">R300</text>
</a>
</g>
</g>
<!-- R241&#45;&gt;R300 -->
<g id="edge6" class="edge">
<title>R241&#45;&gt;R300</title>
<path fill="none" stroke="black" d="M690.7,-218.01C697.49,-219.04 704.41,-219.96 711,-220.64 885.82,-238.71 1094.03,-242.11 1192.3,-242.63"/>
<polygon fill="black" stroke="black" points="1192.15,-246.14 1202.16,-242.68 1192.18,-239.14 1192.15,-246.14"/>
<text text-anchor="middle" x="947" y="-250.64" font-family="Times New Roman,serif" font-size="30.00"> &#160;&#160;596 &#160;&#160;19% &#160;&#160;0.0342 mol/s &#160;&#160;&#160;1.00E+00</text>
</g>
<!-- R301 -->
<g id="node8" class="node">
<title>R301</title>
<g id="a_node8"><a xlink:href="301.svg" xlink:title="R301">
<polygon fill="cornsilk" stroke="none" points="1297,-201.14 1203,-201.14 1203,-154.14 1297,-154.14 1297,-201.14"/>
<text text-anchor="middle" x="1250" y="-169.14" font-family="Times New Roman,serif" font-size="35.00">R301</text>
</a>
</g>
</g>
<!-- R241&#45;&gt;R301 -->
<g id="edge7" class="edge">
<title>R241&#45;&gt;R301</title>
<path fill="none" stroke="black" d="M690.7,-192.43C697.43,-190.48 704.33,-188.79 711,-187.64 884.32,-157.86 1093.65,-166.47 1192.31,-173.11"/>
<polygon fill="black" stroke="black" points="1192,-176.67 1202.22,-173.87 1192.48,-169.68 1192,-176.67"/>
<text text-anchor="middle" x="947" y="-196.64" font-family="Times New Roman,serif" font-size="30.00"> &#160;&#160;597 &#160;&#160;19% &#160;&#160;0.034 mol/s &#160;&#160;&#160;9.94E&#45;01</text>
</g>
<!-- R357 -->
<g id="node9" class="node">
<title>R357</title>
<g id="a_node9"><a xlink:href="357.svg" xlink:title="R357">
<polygon fill="cornsilk" stroke="none" points="1297,-136.14 1203,-136.14 1203,-89.14 1297,-89.14 1297,-136.14"/>
<text text-anchor="middle" x="1250" y="-104.14" font-family="Times New Roman,serif" font-size="35.00">R357</text>
</a>
</g>
</g>
<!-- R241&#45;&gt;R357 -->
<g id="edge8" class="edge">
<title>R241&#45;&gt;R357</title>
<path fill="none" stroke="black" d="M656.59,-186.44C667.64,-167.11 686.27,-140.84 711,-128.64 794.19,-87.59 1071.97,-100.59 1192.45,-108.49"/>
<polygon fill="black" stroke="black" points="1192.05,-112.04 1202.26,-109.22 1192.52,-105.06 1192.05,-112.04"/>
<text text-anchor="middle" x="947" y="-137.64" font-family="Times New Roman,serif" font-size="30.00"> &#160;&#160;598 &#160;&#160;19% &#160;&#160;0.0342 mol/s &#160;&#160;&#160;1.00E+00</text>
</g>
<!-- R122 -->
<g id="node10" class="node">
<title>R122</title>
<g id="a_node10"><a xlink:href="122.svg" xlink:title="R122">
<polygon fill="cornsilk" stroke="none" points="1297,-71.14 1203,-71.14 1203,-24.14 1297,-24.14 1297,-71.14"/>
<text text-anchor="middle" x="1250" y="-39.14" font-family="Times New Roman,serif" font-size="35.00">R122</text>
</a>
</g>
</g>
<!-- R241&#45;&gt;R122 -->
<g id="edge10" class="edge">
<title>R241&#45;&gt;R122</title>
<path fill="none" stroke="black" d="M647.93,-186.3C653.55,-152.65 669.22,-91.49 711,-63.64 860.21,35.83 1088.05,-4.84 1192.78,-31.44"/>
<polygon fill="black" stroke="black" points="1191.57,-35 1202.13,-34.13 1193.33,-28.23 1191.57,-35"/>
<text text-anchor="middle" x="947" y="-72.64" font-family="Times New Roman,serif" font-size="30.00"> &#160;&#160;709 &#160;&#160;0% &#160;&#160;0.00131 mol/s &#160;&#160;&#160;6.59E&#45;01</text>
</g>
<!-- R15 -->
<g id="node2" class="node">
<title>R15</title>
<g id="a_node2"><a xlink:href="15.svg" xlink:title="R15">
<polygon fill="cornsilk" stroke="none" points="76,-326.14 0,-326.14 0,-279.14 76,-279.14 76,-326.14"/>
<text text-anchor="middle" x="38" y="-294.14" font-family="Times New Roman,serif" font-size="35.00">R15</text>
</a>
</g>
</g>
<!-- R15&#45;&gt;R241 -->
<g id="edge1" class="edge">
<title>R15&#45;&gt;R241</title>
<path fill="none" stroke="black" d="M75.78,-310.11C167.79,-326.87 413.04,-359.63 588,-273.64 602.39,-266.57 614.53,-253.85 623.71,-241.6"/>
<polygon fill="black" stroke="black" points="626.97,-244.04 629.86,-233.85 621.25,-240.02 626.97,-244.04"/>
<text text-anchor="middle" x="341" y="-338.64" font-family="Times New Roman,serif" font-size="30.00"> &#160;&#160;324 &#160;&#160;0% &#160;&#160;0.0254 mol/s &#160;&#160;&#160;7.96E&#45;01</text>
</g>
<!-- R13 -->
<g id="node3" class="node">
<title>R13</title>
<g id="a_node3"><a xlink:href="13.svg" xlink:title="R13">
<polygon fill="cornsilk" stroke="none" points="76,-261.14 0,-261.14 0,-214.14 76,-214.14 76,-261.14"/>
<text text-anchor="middle" x="38" y="-229.14" font-family="Times New Roman,serif" font-size="35.00">R13</text>
</a>
</g>
</g>
<!-- R13&#45;&gt;R241 -->
<g id="edge2" class="edge">
<title>R13&#45;&gt;R241</title>
<path fill="none" stroke="black" d="M76,-237.03C162.95,-235.42 387.31,-230.17 586.16,-215.69"/>
<polygon fill="black" stroke="black" points="586.39,-219.11 596.11,-214.88 585.87,-212.13 586.39,-219.11"/>
<text text-anchor="middle" x="341" y="-245.64" font-family="Times New Roman,serif" font-size="30.00"> &#160;&#160;324 &#160;&#160;0% &#160;&#160;0.0254 mol/s &#160;&#160;&#160;7.96E&#45;01</text>
</g>
<!-- R20 -->
<g id="node4" class="node">
<title>R20</title>
<g id="a_node4"><a xlink:href="20.svg" xlink:title="R20">
<polygon fill="cornsilk" stroke="none" points="76,-173.14 0,-173.14 0,-126.14 76,-126.14 76,-173.14"/>
<text text-anchor="middle" x="38" y="-141.14" font-family="Times New Roman,serif" font-size="35.00">R20</text>
</a>
</g>
</g>
<!-- R20&#45;&gt;R241 -->
<g id="edge3" class="edge">
<title>R20&#45;&gt;R241</title>
<path fill="none" stroke="black" d="M75.88,-157.08C81.91,-158.09 88.12,-158.99 94,-159.64 203.21,-171.61 482.29,-148.72 588,-178.64 591.12,-179.52 594.25,-180.61 597.34,-181.85"/>
<polygon fill="black" stroke="black" points="595.52,-185.32 606.08,-186.25 598.41,-178.94 595.52,-185.32"/>
<text text-anchor="middle" x="341" y="-187.64" font-family="Times New Roman,serif" font-size="30.00"> &#160;&#160;424 &#160;&#160;0% &#160;&#160;0.00272 mol/s &#160;&#160;&#160;1.00E+00</text>
</g>
<!-- R20&#45;&gt;R241 -->
<g id="edge9" class="edge">
<title>R20&#45;&gt;R241</title>
<path fill="none" stroke="black" stroke-width="5" d="M75.72,-128.8C81.67,-126.26 87.89,-124.06 94,-122.64 307.86,-72.98 395.69,-16.7 588,-122.64 605.55,-132.31 618.28,-150.2 627.04,-167.25"/>
<polygon fill="black" stroke="black" stroke-width="5" points="617.42,-166.64 633.56,-181.34 633.4,-159.51 617.42,-166.64"/>
<text text-anchor="middle" x="341" y="-131.64" font-family="Times New Roman,serif" font-size="30.00"> &#160;&#160;708 &#160;&#160;99% &#160;&#160;318000.0 mol/s &#160;&#160;&#160;8.55E&#45;09</text>
</g>
</g>
</svg>
