<?xml version="1.0" encoding="UTF-8" standalone="no"?>
<!DOCTYPE svg PUBLIC "-//W3C//DTD SVG 1.1//EN"
 "http://www.w3.org/Graphics/SVG/1.1/DTD/svg11.dtd">
<!-- Generated by graphviz version 8.0.3 (20230416.2022)
 -->
<!-- Title: G Pages: 1 -->
<svg width="640pt" height="221pt"
 viewBox="0.00 0.00 720.00 248.67" xmlns="http://www.w3.org/2000/svg" xmlns:xlink="http://www.w3.org/1999/xlink">
<g id="graph0" class="graph" transform="scale(0.487062 0.487062) rotate(0) translate(4 449.82)">
<title>G</title>
<polygon fill="white" stroke="none" points="-4,4 -4,-449.82 1310,-449.82 1310,4 -4,4"/>
<text text-anchor="middle" x="653" y="-413.02" font-family="Arial" font-size="36.00" fill="blue">Reaction Path Analysis</text>
<!-- R242 -->
<g id="node1" class="node">
<title>R242</title>
<g id="a_node1"><a xlink:href="242.svg" xlink:title="R242">
<polygon fill="cornsilk" stroke="none" points="700,-209.32 606,-209.32 606,-162.32 700,-162.32 700,-209.32"/>
<text text-anchor="middle" x="653" y="-177.32" font-family="Times New Roman,serif" font-size="35.00">R242</text>
</a>
</g>
</g>
<!-- R276 -->
<g id="node4" class="node">
<title>R276</title>
<g id="a_node4"><a xlink:href="276.svg" xlink:title="R276">
<polygon fill="cornsilk" stroke="none" points="1306,-372.32 1212,-372.32 1212,-325.32 1306,-325.32 1306,-372.32"/>
<text text-anchor="middle" x="1259" y="-340.32" font-family="Times New Roman,serif" font-size="35.00">R276</text>
</a>
</g>
</g>
<!-- R242&#45;&gt;R276 -->
<g id="edge3" class="edge">
<title>R242&#45;&gt;R276</title>
<path fill="none" stroke="black" d="M655.57,-209.28C659.14,-241.78 670.81,-299.59 709,-326.82 786.56,-382.13 1077.25,-364.53 1201.31,-354.12"/>
<polygon fill="black" stroke="black" points="1201.42,-357.54 1211.08,-353.2 1200.82,-350.56 1201.42,-357.54"/>
<text text-anchor="middle" x="956" y="-373.82" font-family="Times New Roman,serif" font-size="30.00"> &#160;&#160;519 &#160;&#160;19% &#160;&#160;4.67e&#45;08 mol/s &#160;&#160;&#160;1.00E+00</text>
</g>
<!-- R277 -->
<g id="node5" class="node">
<title>R277</title>
<g id="a_node5"><a xlink:href="277.svg" xlink:title="R277">
<polygon fill="cornsilk" stroke="none" points="1306,-307.32 1212,-307.32 1212,-260.32 1306,-260.32 1306,-307.32"/>
<text text-anchor="middle" x="1259" y="-275.32" font-family="Times New Roman,serif" font-size="35.00">R277</text>
</a>
</g>
</g>
<!-- R242&#45;&gt;R277 -->
<g id="edge4" class="edge">
<title>R242&#45;&gt;R277</title>
<path fill="none" stroke="black" d="M665.41,-209.1C674.72,-225.3 689.51,-245.73 709,-255.82 793.42,-299.55 1078.97,-292.17 1201.45,-286.75"/>
<polygon fill="black" stroke="black" points="1201.25,-290.22 1211.08,-286.27 1200.93,-283.23 1201.25,-290.22"/>
<text text-anchor="middle" x="956" y="-299.82" font-family="Times New Roman,serif" font-size="30.00"> &#160;&#160;520 &#160;&#160;19% &#160;&#160;4.67e&#45;08 mol/s &#160;&#160;&#160;1.00E+00</text>
</g>
<!-- R305 -->
<g id="node6" class="node">
<title>R305</title>
<g id="a_node6"><a xlink:href="305.svg" xlink:title="R305">
<polygon fill="cornsilk" stroke="none" points="1306,-242.32 1212,-242.32 1212,-195.32 1306,-195.32 1306,-242.32"/>
<text text-anchor="middle" x="1259" y="-210.32" font-family="Times New Roman,serif" font-size="35.00">R305</text>
</a>
</g>
</g>
<!-- R242&#45;&gt;R305 -->
<g id="edge5" class="edge">
<title>R242&#45;&gt;R305</title>
<path fill="none" stroke="black" d="M699.83,-195.55C702.92,-196.03 706,-196.46 709,-196.82 887.94,-218.17 1101.76,-219.99 1201.53,-219.48"/>
<polygon fill="black" stroke="black" points="1201.28,-222.97 1211.26,-219.41 1201.24,-215.97 1201.28,-222.97"/>
<text text-anchor="middle" x="956" y="-227.82" font-family="Times New Roman,serif" font-size="30.00"> &#160;&#160;599 &#160;&#160;19% &#160;&#160;4.67e&#45;08 mol/s &#160;&#160;&#160;1.00E+00</text>
</g>
<!-- R306 -->
<g id="node7" class="node">
<title>R306</title>
<g id="a_node7"><a xlink:href="306.svg" xlink:title="R306">
<polygon fill="cornsilk" stroke="none" points="1306,-177.32 1212,-177.32 1212,-130.32 1306,-130.32 1306,-177.32"/>
<text text-anchor="middle" x="1259" y="-145.32" font-family="Times New Roman,serif" font-size="35.00">R306</text>
</a>
</g>
</g>
<!-- R242&#45;&gt;R306 -->
<g id="edge6" class="edge">
<title>R242&#45;&gt;R306</title>
<path fill="none" stroke="black" d="M699.84,-166.09C702.91,-165.2 705.98,-164.43 709,-163.82 885.75,-128.11 1101.04,-139.71 1201.41,-148.21"/>
<polygon fill="black" stroke="black" points="1200.94,-151.77 1211.21,-149.15 1201.55,-144.79 1200.94,-151.77"/>
<text text-anchor="middle" x="956" y="-172.82" font-family="Times New Roman,serif" font-size="30.00"> &#160;&#160;600 &#160;&#160;19% &#160;&#160;4.67e&#45;08 mol/s &#160;&#160;&#160;1.00E+00</text>
</g>
<!-- R358 -->
<g id="node8" class="node">
<title>R358</title>
<g id="a_node8"><a xlink:href="358.svg" xlink:title="R358">
<polygon fill="cornsilk" stroke="none" points="1306,-112.32 1212,-112.32 1212,-65.32 1306,-65.32 1306,-112.32"/>
<text text-anchor="middle" x="1259" y="-80.32" font-family="Times New Roman,serif" font-size="35.00">R358</text>
</a>
</g>
</g>
<!-- R242&#45;&gt;R358 -->
<g id="edge7" class="edge">
<title>R242&#45;&gt;R358</title>
<path fill="none" stroke="black" d="M662.06,-162.65C670.4,-142.61 685.54,-114.87 709,-101.82 792.11,-55.62 1079.04,-73.53 1201.69,-83.69"/>
<polygon fill="black" stroke="black" points="1201.07,-87.23 1211.33,-84.58 1201.66,-80.26 1201.07,-87.23"/>
<text text-anchor="middle" x="956" y="-110.82" font-family="Times New Roman,serif" font-size="30.00"> &#160;&#160;601 &#160;&#160;19% &#160;&#160;4.67e&#45;08 mol/s &#160;&#160;&#160;1.00E+00</text>
</g>
<!-- R106 -->
<g id="node10" class="node">
<title>R106</title>
<g id="a_node10"><a xlink:href="106.svg" xlink:title="R106">
<polygon fill="cornsilk" stroke="none" points="1306,-47.32 1212,-47.32 1212,-0.32 1306,-0.32 1306,-47.32"/>
<text text-anchor="middle" x="1259" y="-15.32" font-family="Times New Roman,serif" font-size="35.00">R106</text>
</a>
</g>
</g>
<!-- R242&#45;&gt;R106 -->
<g id="edge10" class="edge">
<title>R242&#45;&gt;R106</title>
<path fill="none" stroke="black" d="M654.8,-162.38C657.38,-127.87 667.81,-64.28 709,-34.82 786.44,20.55 1077.2,-3.78 1201.3,-17.16"/>
<polygon fill="black" stroke="black" points="1200.75,-20.72 1211.07,-18.33 1201.51,-13.77 1200.75,-20.72"/>
<text text-anchor="middle" x="956" y="-43.82" font-family="Times New Roman,serif" font-size="30.00"> &#160;&#160;711 &#160;&#160;0% &#160;&#160;5.7e&#45;12 mol/s &#160;&#160;&#160;6.97E&#45;01</text>
</g>
<!-- R16 -->
<g id="node2" class="node">
<title>R16</title>
<g id="a_node2"><a xlink:href="16.svg" xlink:title="R16">
<polygon fill="cornsilk" stroke="none" points="85,-302.32 9,-302.32 9,-255.32 85,-255.32 85,-302.32"/>
<text text-anchor="middle" x="47" y="-270.32" font-family="Times New Roman,serif" font-size="35.00">R16</text>
</a>
</g>
</g>
<!-- R16&#45;&gt;R242 -->
<g id="edge1" class="edge">
<title>R16&#45;&gt;R242</title>
<path fill="none" stroke="black" d="M84.7,-285.78C175.94,-301.26 418.33,-331.01 593.5,-248.82 608.07,-241.99 620.75,-229.73 630.54,-217.84"/>
<polygon fill="black" stroke="black" points="633.78,-220.37 637.14,-210.32 628.25,-216.08 633.78,-220.37"/>
<text text-anchor="middle" x="350" y="-312.82" font-family="Times New Roman,serif" font-size="30.00"> &#160;&#160;325 &#160;&#160;0% &#160;&#160;4.67e&#45;08 mol/s &#160;&#160;&#160;1.00E+00</text>
</g>
<!-- R13 -->
<g id="node3" class="node">
<title>R13</title>
<g id="a_node3"><a xlink:href="13.svg" xlink:title="R13">
<polygon fill="cornsilk" stroke="none" points="85,-237.32 9,-237.32 9,-190.32 85,-190.32 85,-237.32"/>
<text text-anchor="middle" x="47" y="-205.32" font-family="Times New Roman,serif" font-size="35.00">R13</text>
</a>
</g>
</g>
<!-- R13&#45;&gt;R242 -->
<g id="edge2" class="edge">
<title>R13&#45;&gt;R242</title>
<path fill="none" stroke="black" d="M84.76,-213.12C172.73,-211.28 402.29,-205.47 593.5,-191.82 594.14,-191.78 594.78,-191.73 595.42,-191.68"/>
<polygon fill="black" stroke="black" points="595.36,-195.12 605.04,-190.81 594.78,-188.14 595.36,-195.12"/>
<text text-anchor="middle" x="350" y="-220.82" font-family="Times New Roman,serif" font-size="30.00"> &#160;&#160;325 &#160;&#160;0% &#160;&#160;4.67e&#45;08 mol/s &#160;&#160;&#160;1.00E+00</text>
</g>
<!-- R133 -->
<g id="node9" class="node">
<title>R133</title>
<g id="a_node9"><a xlink:href="133.svg" xlink:title="R133">
<polygon fill="cornsilk" stroke="none" points="94,-149.32 0,-149.32 0,-102.32 94,-102.32 94,-149.32"/>
<text text-anchor="middle" x="47" y="-117.32" font-family="Times New Roman,serif" font-size="35.00">R133</text>
</a>
</g>
</g>
<!-- R133&#45;&gt;R242 -->
<g id="edge8" class="edge">
<title>R133&#45;&gt;R242</title>
<path fill="none" stroke="black" d="M93.91,-134.25C98.15,-134.85 102.4,-135.39 106.5,-135.82 214.22,-147.08 488.92,-126.65 593.5,-154.82 596.89,-155.73 600.29,-156.87 603.67,-158.16"/>
<polygon fill="black" stroke="black" points="602.1,-161.72 612.67,-162.44 604.85,-155.28 602.1,-161.72"/>
<text text-anchor="middle" x="350" y="-163.82" font-family="Times New Roman,serif" font-size="30.00"> &#160;&#160;661 &#160;&#160;0% &#160;&#160;1.01e&#45;11 mol/s &#160;&#160;&#160;1.00E+00</text>
</g>
<!-- R133&#45;&gt;R242 -->
<g id="edge9" class="edge">
<title>R133&#45;&gt;R242</title>
<path fill="none" stroke="black" stroke-width="5" d="M93.98,-102.41C98.14,-100.97 102.35,-99.73 106.5,-98.82 317.91,-52.39 402.46,2.93 593.5,-98.82 611.61,-108.47 625.11,-126.49 634.56,-143.64"/>
<polygon fill="black" stroke="black" stroke-width="5" points="625.08,-143.28 641.67,-157.48 640.84,-135.66 625.08,-143.28"/>
<text text-anchor="middle" x="350" y="-107.82" font-family="Times New Roman,serif" font-size="30.00"> &#160;&#160;710 &#160;&#160;99% &#160;&#160;3.89e&#45;05 mol/s &#160;&#160;&#160;2.59E&#45;07</text>
</g>
</g>
</svg>
