<?xml version="1.0" encoding="UTF-8" standalone="no"?>
<!DOCTYPE svg PUBLIC "-//W3C//DTD SVG 1.1//EN"
 "http://www.w3.org/Graphics/SVG/1.1/DTD/svg11.dtd">
<!-- Generated by graphviz version 8.0.3 (20230416.2022)
 -->
<!-- Title: G Pages: 1 -->
<svg width="640pt" height="210pt"
 viewBox="0.00 0.00 720.00 236.69" xmlns="http://www.w3.org/2000/svg" xmlns:xlink="http://www.w3.org/1999/xlink">
<g id="graph0" class="graph" transform="scale(0.487062 0.487062) rotate(0) translate(4 427.95)">
<title>G</title>
<polygon fill="white" stroke="none" points="-4,4 -4,-427.95 1310,-427.95 1310,4 -4,4"/>
<text text-anchor="middle" x="653" y="-391.15" font-family="Arial" font-size="36.00" fill="blue">Reaction Path Analysis</text>
<!-- R243 -->
<g id="node1" class="node">
<title>R243</title>
<g id="a_node1"><a xlink:href="243.svg" xlink:title="R243">
<polygon fill="cornsilk" stroke="none" points="700,-203.45 606,-203.45 606,-156.45 700,-156.45 700,-203.45"/>
<text text-anchor="middle" x="653" y="-171.45" font-family="Times New Roman,serif" font-size="35.00">R243</text>
</a>
</g>
</g>
<!-- R278 -->
<g id="node4" class="node">
<title>R278</title>
<g id="a_node4"><a xlink:href="278.svg" xlink:title="R278">
<polygon fill="cornsilk" stroke="none" points="1306,-236.45 1212,-236.45 1212,-189.45 1306,-189.45 1306,-236.45"/>
<text text-anchor="middle" x="1259" y="-204.45" font-family="Times New Roman,serif" font-size="35.00">R278</text>
</a>
</g>
</g>
<!-- R243&#45;&gt;R278 -->
<g id="edge3" class="edge">
<title>R243&#45;&gt;R278</title>
<path fill="none" stroke="black" stroke-width="3" d="M699.83,-189.68C702.92,-190.16 706,-190.59 709,-190.95 887.94,-212.29 1101.76,-214.12 1201.53,-213.61"/>
<polygon fill="black" stroke="black" stroke-width="3" points="1198.28,-217.1 1208.26,-213.54 1198.24,-210.1 1198.28,-217.1"/>
<text text-anchor="middle" x="956" y="-221.95" font-family="Times New Roman,serif" font-size="30.00"> &#160;&#160;521 &#160;&#160;50% &#160;&#160;2.18e&#45;15 mol/s &#160;&#160;&#160;1.00E+00</text>
</g>
<!-- R279 -->
<g id="node5" class="node">
<title>R279</title>
<g id="a_node5"><a xlink:href="279.svg" xlink:title="R279">
<polygon fill="cornsilk" stroke="none" points="1306,-171.45 1212,-171.45 1212,-124.45 1306,-124.45 1306,-171.45"/>
<text text-anchor="middle" x="1259" y="-139.45" font-family="Times New Roman,serif" font-size="35.00">R279</text>
</a>
</g>
</g>
<!-- R243&#45;&gt;R279 -->
<g id="edge4" class="edge">
<title>R243&#45;&gt;R279</title>
<path fill="none" stroke="black" stroke-width="3" d="M699.84,-160.21C702.91,-159.33 705.98,-158.56 709,-157.95 885.75,-122.24 1101.04,-133.84 1201.41,-142.34"/>
<polygon fill="black" stroke="black" stroke-width="3" points="1197.94,-145.9 1208.21,-143.28 1198.55,-138.92 1197.94,-145.9"/>
<text text-anchor="middle" x="956" y="-166.95" font-family="Times New Roman,serif" font-size="30.00"> &#160;&#160;522 &#160;&#160;50% &#160;&#160;2.18e&#45;15 mol/s &#160;&#160;&#160;1.00E+00</text>
</g>
<!-- R17 -->
<g id="node2" class="node">
<title>R17</title>
<g id="a_node2"><a xlink:href="17.svg" xlink:title="R17">
<polygon fill="cornsilk" stroke="none" points="85,-328.45 9,-328.45 9,-281.45 85,-281.45 85,-328.45"/>
<text text-anchor="middle" x="47" y="-296.45" font-family="Times New Roman,serif" font-size="35.00">R17</text>
</a>
</g>
</g>
<!-- R17&#45;&gt;R243 -->
<g id="edge1" class="edge">
<title>R17&#45;&gt;R243</title>
<path fill="none" stroke="black" stroke-width="5" d="M84.9,-314.55C178.73,-336.73 430.8,-382.11 597,-278.95 617.19,-266.42 630.58,-243.65 639.08,-223.11"/>
<polygon fill="black" stroke="black" stroke-width="5" points="645.64,-230.18 644.15,-208.4 629.16,-224.27 645.64,-230.18"/>
<text text-anchor="middle" x="350" y="-351.95" font-family="Times New Roman,serif" font-size="30.00"> &#160;&#160;327 &#160;&#160;99% &#160;&#160;2.18e&#45;15 mol/s &#160;&#160;&#160;1.00E+00</text>
</g>
<!-- R13 -->
<g id="node3" class="node">
<title>R13</title>
<g id="a_node3"><a xlink:href="13.svg" xlink:title="R13">
<polygon fill="cornsilk" stroke="none" points="85,-263.45 9,-263.45 9,-216.45 85,-216.45 85,-263.45"/>
<text text-anchor="middle" x="47" y="-231.45" font-family="Times New Roman,serif" font-size="35.00">R13</text>
</a>
</g>
</g>
<!-- R13&#45;&gt;R243 -->
<g id="edge2" class="edge">
<title>R13&#45;&gt;R243</title>
<path fill="none" stroke="black" stroke-width="5" d="M84.81,-240.86C191.84,-243.12 501.42,-246.74 597,-215.95 599.34,-215.2 601.67,-214.32 603.98,-213.34"/>
<polygon fill="black" stroke="black" stroke-width="5" points="603.9,-222.63 617.37,-205.45 595.61,-207.21 603.9,-222.63"/>
<text text-anchor="middle" x="350" y="-250.95" font-family="Times New Roman,serif" font-size="30.00"> &#160;&#160;327 &#160;&#160;99% &#160;&#160;2.18e&#45;15 mol/s &#160;&#160;&#160;1.00E+00</text>
</g>
<!-- R338 -->
<g id="node6" class="node">
<title>R338</title>
<g id="a_node6"><a xlink:href="338.svg" xlink:title="R338">
<polygon fill="cornsilk" stroke="none" points="94,-198.45 0,-198.45 0,-151.45 94,-151.45 94,-198.45"/>
<text text-anchor="middle" x="47" y="-166.45" font-family="Times New Roman,serif" font-size="35.00">R338</text>
</a>
</g>
</g>
<!-- R338&#45;&gt;R243 -->
<g id="edge5" class="edge">
<title>R338&#45;&gt;R243</title>
<path fill="none" stroke="black" d="M93.89,-175.33C202.81,-176.23 476.67,-178.5 595.51,-179.48"/>
<polygon fill="black" stroke="black" points="595.15,-182.99 605.18,-179.57 595.21,-175.99 595.15,-182.99"/>
<text text-anchor="middle" x="350" y="-187.95" font-family="Times New Roman,serif" font-size="30.00"> &#160;&#160;712 &#160;&#160;0% &#160;&#160;3.17e&#45;20 mol/s &#160;&#160;&#160;6.95E&#45;07</text>
</g>
<!-- R282 -->
<g id="node7" class="node">
<title>R282</title>
<g id="a_node7"><a xlink:href="282.svg" xlink:title="R282">
<polygon fill="cornsilk" stroke="none" points="94,-114.45 0,-114.45 0,-67.45 94,-67.45 94,-114.45"/>
<text text-anchor="middle" x="47" y="-82.45" font-family="Times New Roman,serif" font-size="35.00">R282</text>
</a>
</g>
</g>
<!-- R282&#45;&gt;R243 -->
<g id="edge6" class="edge">
<title>R282&#45;&gt;R243</title>
<path fill="none" stroke="black" d="M93.84,-100.56C96.94,-101.07 100.01,-101.54 103,-101.95 212.07,-116.77 494.08,-98.92 597,-137.95 604.74,-140.89 612.3,-145.28 619.21,-150.14"/>
<polygon fill="black" stroke="black" points="616.5,-153.24 626.59,-156.47 620.72,-147.65 616.5,-153.24"/>
<text text-anchor="middle" x="350" y="-146.95" font-family="Times New Roman,serif" font-size="30.00"> &#160;&#160;713 &#160;&#160;0% &#160;&#160;4.75e&#45;23 mol/s &#160;&#160;&#160;4.63E&#45;04</text>
</g>
<!-- R282&#45;&gt;R243 -->
<g id="edge7" class="edge">
<title>R282&#45;&gt;R243</title>
<path fill="none" stroke="black" d="M93.99,-67.46C96.99,-66.47 100.01,-65.62 103,-64.95 317.23,-16.87 411.25,52.11 597,-64.95 624.97,-82.58 639.03,-118.81 645.88,-145.91"/>
<polygon fill="black" stroke="black" points="642.67,-146.57 648.33,-155.53 649.5,-145 642.67,-146.57"/>
<text text-anchor="middle" x="350" y="-73.95" font-family="Times New Roman,serif" font-size="30.00"> &#160;&#160;765 &#160;&#160;0% &#160;&#160;2.2e&#45;26 mol/s &#160;&#160;&#160;1.00E+00</text>
</g>
</g>
</svg>
