<?xml version="1.0" encoding="UTF-8" standalone="no"?>
<!DOCTYPE svg PUBLIC "-//W3C//DTD SVG 1.1//EN"
 "http://www.w3.org/Graphics/SVG/1.1/DTD/svg11.dtd">
<!-- Generated by graphviz version 8.0.3 (20230416.2022)
 -->
<!-- Title: G Pages: 1 -->
<svg width="629pt" height="331pt"
 viewBox="0.00 0.00 708.00 372.48" xmlns="http://www.w3.org/2000/svg" xmlns:xlink="http://www.w3.org/1999/xlink">
<g id="graph0" class="graph" transform="scale(0.888889 0.888889) rotate(0) translate(4 368.48)">
<title>G</title>
<polygon fill="white" stroke="none" points="-4,4 -4,-368.48 704,-368.48 704,4 -4,4"/>
<text text-anchor="middle" x="350" y="-331.68" font-family="Arial" font-size="36.00" fill="blue">Reaction Path Analysis</text>
<!-- R244 -->
<g id="node1" class="node">
<title>R244</title>
<g id="a_node1"><a xlink:href="244.svg" xlink:title="R244">
<polygon fill="cornsilk" stroke="none" points="700,-170.98 606,-170.98 606,-123.98 700,-123.98 700,-170.98"/>
<text text-anchor="middle" x="653" y="-138.98" font-family="Times New Roman,serif" font-size="35.00">R244</text>
</a>
</g>
</g>
<!-- R18 -->
<g id="node2" class="node">
<title>R18</title>
<g id="a_node2"><a xlink:href="18.svg" xlink:title="R18">
<polygon fill="cornsilk" stroke="none" points="85,-295.98 9,-295.98 9,-248.98 85,-248.98 85,-295.98"/>
<text text-anchor="middle" x="47" y="-263.98" font-family="Times New Roman,serif" font-size="35.00">R18</text>
</a>
</g>
</g>
<!-- R18&#45;&gt;R244 -->
<g id="edge1" class="edge">
<title>R18&#45;&gt;R244</title>
<path fill="none" stroke="black" stroke-width="5" d="M85,-275.27C193.98,-282.8 511.47,-299.56 597,-246.48 617.19,-233.94 630.58,-211.18 639.08,-190.63"/>
<polygon fill="black" stroke="black" stroke-width="5" points="645.64,-197.7 644.15,-175.92 629.16,-191.8 645.64,-197.7"/>
<text text-anchor="middle" x="350" y="-292.48" font-family="Times New Roman,serif" font-size="30.00"> &#160;&#160;329 &#160;&#160;99% &#160;&#160;2.18e&#45;15 mol/s &#160;&#160;&#160;1.00E+00</text>
</g>
<!-- R13 -->
<g id="node3" class="node">
<title>R13</title>
<g id="a_node3"><a xlink:href="13.svg" xlink:title="R13">
<polygon fill="cornsilk" stroke="none" points="85,-230.98 9,-230.98 9,-183.98 85,-183.98 85,-230.98"/>
<text text-anchor="middle" x="47" y="-198.98" font-family="Times New Roman,serif" font-size="35.00">R13</text>
</a>
</g>
</g>
<!-- R13&#45;&gt;R244 -->
<g id="edge2" class="edge">
<title>R13&#45;&gt;R244</title>
<path fill="none" stroke="black" stroke-width="5" d="M84.81,-208.39C191.84,-210.65 501.42,-214.26 597,-183.48 599.34,-182.72 601.67,-181.84 603.98,-180.86"/>
<polygon fill="black" stroke="black" stroke-width="5" points="603.9,-190.15 617.37,-172.97 595.61,-174.74 603.9,-190.15"/>
<text text-anchor="middle" x="350" y="-218.48" font-family="Times New Roman,serif" font-size="30.00"> &#160;&#160;329 &#160;&#160;99% &#160;&#160;2.18e&#45;15 mol/s &#160;&#160;&#160;1.00E+00</text>
</g>
<!-- R342 -->
<g id="node4" class="node">
<title>R342</title>
<g id="a_node4"><a xlink:href="342.svg" xlink:title="R342">
<polygon fill="cornsilk" stroke="none" points="94,-165.98 0,-165.98 0,-118.98 94,-118.98 94,-165.98"/>
<text text-anchor="middle" x="47" y="-133.98" font-family="Times New Roman,serif" font-size="35.00">R342</text>
</a>
</g>
</g>
<!-- R342&#45;&gt;R244 -->
<g id="edge3" class="edge">
<title>R342&#45;&gt;R244</title>
<path fill="none" stroke="black" d="M93.89,-142.86C202.81,-143.76 476.67,-146.02 595.51,-147.01"/>
<polygon fill="black" stroke="black" points="595.15,-150.51 605.18,-147.1 595.21,-143.51 595.15,-150.51"/>
<text text-anchor="middle" x="350" y="-155.48" font-family="Times New Roman,serif" font-size="30.00"> &#160;&#160;714 &#160;&#160;0% &#160;&#160;3.48e&#45;25 mol/s &#160;&#160;&#160;5.61E&#45;02</text>
</g>
<!-- R290 -->
<g id="node5" class="node">
<title>R290</title>
<g id="a_node5"><a xlink:href="290.svg" xlink:title="R290">
<polygon fill="cornsilk" stroke="none" points="94,-81.98 0,-81.98 0,-34.98 94,-34.98 94,-81.98"/>
<text text-anchor="middle" x="47" y="-49.98" font-family="Times New Roman,serif" font-size="35.00">R290</text>
</a>
</g>
</g>
<!-- R290&#45;&gt;R244 -->
<g id="edge4" class="edge">
<title>R290&#45;&gt;R244</title>
<path fill="none" stroke="black" d="M93.84,-68.09C96.94,-68.6 100.01,-69.07 103,-69.48 212.07,-84.3 494.08,-66.45 597,-105.48 604.74,-108.41 612.3,-112.81 619.21,-117.67"/>
<polygon fill="black" stroke="black" points="616.5,-120.76 626.59,-124 620.72,-115.18 616.5,-120.76"/>
<text text-anchor="middle" x="350" y="-114.48" font-family="Times New Roman,serif" font-size="30.00"> &#160;&#160;715 &#160;&#160;0% &#160;&#160;6.69e&#45;24 mol/s &#160;&#160;&#160;3.27E&#45;03</text>
</g>
<!-- R290&#45;&gt;R244 -->
<g id="edge5" class="edge">
<title>R290&#45;&gt;R244</title>
<path fill="none" stroke="black" d="M93.99,-34.98C96.99,-34 100.01,-33.15 103,-32.48 210.11,-8.43 504.13,26.06 597,-32.48 624.97,-50.11 639.03,-86.33 645.88,-113.44"/>
<polygon fill="black" stroke="black" points="642.67,-114.09 648.33,-123.05 649.5,-112.52 642.67,-114.09"/>
<text text-anchor="middle" x="350" y="-41.48" font-family="Times New Roman,serif" font-size="30.00"> &#160;&#160;771 &#160;&#160;0% &#160;&#160;2.19e&#45;26 mol/s &#160;&#160;&#160;9.97E&#45;01</text>
</g>
</g>
</svg>
