<?xml version="1.0" encoding="UTF-8" standalone="no"?>
<!DOCTYPE svg PUBLIC "-//W3C//DTD SVG 1.1//EN"
 "http://www.w3.org/Graphics/SVG/1.1/DTD/svg11.dtd">
<!-- Generated by graphviz version 8.0.3 (20230416.2022)
 -->
<!-- Title: G Pages: 1 -->
<svg width="640pt" height="175pt"
 viewBox="0.00 0.00 720.00 196.77" xmlns="http://www.w3.org/2000/svg" xmlns:xlink="http://www.w3.org/1999/xlink">
<g id="graph0" class="graph" transform="scale(0.490421 0.490421) rotate(0) translate(4 352.65)">
<title>G</title>
<polygon fill="white" stroke="none" points="-4,4 -4,-352.65 1301,-352.65 1301,4 -4,4"/>
<text text-anchor="middle" x="648.5" y="-315.85" font-family="Arial" font-size="36.00" fill="blue">Reaction Path Analysis</text>
<!-- R245 -->
<g id="node1" class="node">
<title>R245</title>
<g id="a_node1"><a xlink:href="245.svg" xlink:title="R245">
<polygon fill="cornsilk" stroke="none" points="700,-171.15 606,-171.15 606,-124.15 700,-124.15 700,-171.15"/>
<text text-anchor="middle" x="653" y="-139.15" font-family="Times New Roman,serif" font-size="35.00">R245</text>
</a>
</g>
</g>
<!-- R78 -->
<g id="node4" class="node">
<title>R78</title>
<g id="a_node4"><a xlink:href="78.svg" xlink:title="R78">
<polygon fill="cornsilk" stroke="none" points="1297,-171.15 1221,-171.15 1221,-124.15 1297,-124.15 1297,-171.15"/>
<text text-anchor="middle" x="1259" y="-139.15" font-family="Times New Roman,serif" font-size="35.00">R78</text>
</a>
</g>
</g>
<!-- R245&#45;&gt;R78 -->
<g id="edge3" class="edge">
<title>R245&#45;&gt;R78</title>
<path fill="none" stroke="black" stroke-width="5" d="M699.9,-152.15C707.93,-152.78 716.2,-153.32 724,-153.65 930.03,-162.47 981.97,-162.47 1188,-153.65 1192.07,-153.48 1196.26,-153.25 1200.49,-152.98"/>
<polygon fill="black" stroke="black" stroke-width="5" points="1196.07,-161.63 1215.35,-151.39 1194.74,-144.18 1196.07,-161.63"/>
<text text-anchor="middle" x="956" y="-168.65" font-family="Times New Roman,serif" font-size="30.00"> &#160;&#160;462 &#160;&#160;99% &#160;&#160;3.42 mol/s &#160;&#160;&#160;7.93E&#45;04</text>
</g>
<!-- R245&#45;&gt;R78 -->
<g id="edge6" class="edge">
<title>R245&#45;&gt;R78</title>
<path fill="none" stroke="black" d="M699.78,-124.16C707.67,-121.06 715.94,-118.36 724,-116.65 925.76,-73.98 986.24,-73.98 1188,-116.65 1195.69,-118.28 1203.56,-120.81 1211.12,-123.73"/>
<polygon fill="black" stroke="black" points="1209.61,-127.31 1220.19,-127.93 1212.3,-120.85 1209.61,-127.31"/>
<text text-anchor="middle" x="956" y="-125.65" font-family="Times New Roman,serif" font-size="30.00"> &#160;&#160;717 &#160;&#160;0% &#160;&#160;0.00272 mol/s &#160;&#160;&#160;9.99E&#45;01</text>
</g>
<!-- R19 -->
<g id="node2" class="node">
<title>R19</title>
<g id="a_node2"><a xlink:href="19.svg" xlink:title="R19">
<polygon fill="cornsilk" stroke="none" points="85,-264.15 9,-264.15 9,-217.15 85,-217.15 85,-264.15"/>
<text text-anchor="middle" x="47" y="-232.15" font-family="Times New Roman,serif" font-size="35.00">R19</text>
</a>
</g>
</g>
<!-- R19&#45;&gt;R245 -->
<g id="edge1" class="edge">
<title>R19&#45;&gt;R245</title>
<path fill="none" stroke="black" d="M84.78,-248.12C176.79,-264.88 422.04,-297.64 597,-211.65 611.39,-204.58 623.53,-191.86 632.71,-179.61"/>
<polygon fill="black" stroke="black" points="635.97,-182.06 638.86,-171.86 630.25,-178.03 635.97,-182.06"/>
<text text-anchor="middle" x="350" y="-276.65" font-family="Times New Roman,serif" font-size="30.00"> &#160;&#160;331 &#160;&#160;0% &#160;&#160;0.0342 mol/s &#160;&#160;&#160;1.00E+00</text>
</g>
<!-- R13 -->
<g id="node3" class="node">
<title>R13</title>
<g id="a_node3"><a xlink:href="13.svg" xlink:title="R13">
<polygon fill="cornsilk" stroke="none" points="85,-199.15 9,-199.15 9,-152.15 85,-152.15 85,-199.15"/>
<text text-anchor="middle" x="47" y="-167.15" font-family="Times New Roman,serif" font-size="35.00">R13</text>
</a>
</g>
</g>
<!-- R13&#45;&gt;R245 -->
<g id="edge2" class="edge">
<title>R13&#45;&gt;R245</title>
<path fill="none" stroke="black" d="M85,-175.05C171.95,-173.43 396.31,-168.18 595.16,-153.71"/>
<polygon fill="black" stroke="black" points="595.39,-157.12 605.11,-152.9 594.87,-150.14 595.39,-157.12"/>
<text text-anchor="middle" x="350" y="-183.65" font-family="Times New Roman,serif" font-size="30.00"> &#160;&#160;331 &#160;&#160;0% &#160;&#160;0.0342 mol/s &#160;&#160;&#160;1.00E+00</text>
</g>
<!-- R115 -->
<g id="node5" class="node">
<title>R115</title>
<g id="a_node5"><a xlink:href="115.svg" xlink:title="R115">
<polygon fill="cornsilk" stroke="none" points="94,-111.15 0,-111.15 0,-64.15 94,-64.15 94,-111.15"/>
<text text-anchor="middle" x="47" y="-79.15" font-family="Times New Roman,serif" font-size="35.00">R115</text>
</a>
</g>
</g>
<!-- R115&#45;&gt;R245 -->
<g id="edge4" class="edge">
<title>R115&#45;&gt;R245</title>
<path fill="none" stroke="black" d="M93.85,-96.49C96.94,-96.93 100.01,-97.32 103,-97.65 212.21,-109.62 491.29,-86.73 597,-116.65 600.12,-117.53 603.25,-118.63 606.34,-119.87"/>
<polygon fill="black" stroke="black" points="604.52,-123.34 615.08,-124.26 607.41,-116.96 604.52,-123.34"/>
<text text-anchor="middle" x="350" y="-125.65" font-family="Times New Roman,serif" font-size="30.00"> &#160;&#160;646 &#160;&#160;0% &#160;&#160;0.00272 mol/s &#160;&#160;&#160;1.00E+00</text>
</g>
<!-- R115&#45;&gt;R245 -->
<g id="edge5" class="edge">
<title>R115&#45;&gt;R245</title>
<path fill="none" stroke="black" stroke-width="5" d="M91.16,-64.25C95.08,-62.8 99.06,-61.57 103,-60.65 316.86,-10.99 404.69,45.29 597,-60.65 614.55,-70.32 627.28,-88.21 636.04,-105.26"/>
<polygon fill="black" stroke="black" stroke-width="5" points="626.42,-104.65 642.56,-119.36 642.4,-97.53 626.42,-104.65"/>
<text text-anchor="middle" x="350" y="-69.65" font-family="Times New Roman,serif" font-size="30.00"> &#160;&#160;716 &#160;&#160;99% &#160;&#160;489000.0 mol/s &#160;&#160;&#160;5.56E&#45;09</text>
</g>
</g>
</svg>
