<?xml version="1.0" encoding="UTF-8" standalone="no"?>
<!DOCTYPE svg PUBLIC "-//W3C//DTD SVG 1.1//EN"
 "http://www.w3.org/Graphics/SVG/1.1/DTD/svg11.dtd">
<!-- Generated by graphviz version 8.0.3 (20230416.2022)
 -->
<!-- Title: G Pages: 1 -->
<svg width="640pt" height="230pt"
 viewBox="0.00 0.00 720.00 258.37" xmlns="http://www.w3.org/2000/svg" xmlns:xlink="http://www.w3.org/1999/xlink">
<g id="graph0" class="graph" transform="scale(0.507534 0.507534) rotate(0) translate(4 448.5)">
<title>G</title>
<polygon fill="white" stroke="none" points="-4,4 -4,-448.5 1257,-448.5 1257,4 -4,4"/>
<text text-anchor="middle" x="626.5" y="-411.7" font-family="Arial" font-size="36.00" fill="blue">Reaction Path Analysis</text>
<!-- R246 -->
<g id="node1" class="node">
<title>R246</title>
<g id="a_node1"><a xlink:href="246.svg" xlink:title="R246">
<polygon fill="cornsilk" stroke="none" points="669,-209 575,-209 575,-162 669,-162 669,-209"/>
<text text-anchor="middle" x="622" y="-177" font-family="Times New Roman,serif" font-size="35.00">R246</text>
</a>
</g>
</g>
<!-- R280 -->
<g id="node5" class="node">
<title>R280</title>
<g id="a_node5"><a xlink:href="280.svg" xlink:title="R280">
<polygon fill="cornsilk" stroke="none" points="1253,-372 1159,-372 1159,-325 1253,-325 1253,-372"/>
<text text-anchor="middle" x="1206" y="-340" font-family="Times New Roman,serif" font-size="35.00">R280</text>
</a>
</g>
</g>
<!-- R246&#45;&gt;R280 -->
<g id="edge4" class="edge">
<title>R246&#45;&gt;R280</title>
<path fill="none" stroke="black" d="M624.58,-208.95C628.15,-241.44 639.84,-299.24 678,-326.5 751.97,-379.34 1028.21,-363.45 1148.47,-353.66"/>
<polygon fill="black" stroke="black" points="1148.59,-357.08 1158.26,-352.76 1148.01,-350.1 1148.59,-357.08"/>
<text text-anchor="middle" x="914" y="-372.5" font-family="Times New Roman,serif" font-size="30.00"> &#160;&#160;523 &#160;&#160;19% &#160;&#160;0.0342 mol/s &#160;&#160;&#160;1.00E+00</text>
</g>
<!-- R281 -->
<g id="node6" class="node">
<title>R281</title>
<g id="a_node6"><a xlink:href="281.svg" xlink:title="R281">
<polygon fill="cornsilk" stroke="none" points="1253,-307 1159,-307 1159,-260 1253,-260 1253,-307"/>
<text text-anchor="middle" x="1206" y="-275" font-family="Times New Roman,serif" font-size="35.00">R281</text>
</a>
</g>
</g>
<!-- R246&#45;&gt;R281 -->
<g id="edge5" class="edge">
<title>R246&#45;&gt;R281</title>
<path fill="none" stroke="black" d="M634.42,-208.76C643.73,-224.95 658.52,-245.39 678,-255.5 758.53,-297.32 1029.91,-291.19 1148.62,-286.27"/>
<polygon fill="black" stroke="black" points="1148.44,-289.74 1158.28,-285.82 1148.14,-282.75 1148.44,-289.74"/>
<text text-anchor="middle" x="914" y="-298.5" font-family="Times New Roman,serif" font-size="30.00"> &#160;&#160;524 &#160;&#160;19% &#160;&#160;0.0342 mol/s &#160;&#160;&#160;1.00E+00</text>
</g>
<!-- R308 -->
<g id="node7" class="node">
<title>R308</title>
<g id="a_node7"><a xlink:href="308.svg" xlink:title="R308">
<polygon fill="cornsilk" stroke="none" points="1253,-242 1159,-242 1159,-195 1253,-195 1253,-242"/>
<text text-anchor="middle" x="1206" y="-210" font-family="Times New Roman,serif" font-size="35.00">R308</text>
</a>
</g>
</g>
<!-- R246&#45;&gt;R308 -->
<g id="edge6" class="edge">
<title>R246&#45;&gt;R308</title>
<path fill="none" stroke="black" d="M668.83,-195.22C671.93,-195.71 675,-196.14 678,-196.5 848.32,-216.96 1051.57,-219.26 1148.35,-219.02"/>
<polygon fill="black" stroke="black" points="1148.35,-222.51 1158.34,-218.98 1148.33,-215.51 1148.35,-222.51"/>
<text text-anchor="middle" x="914" y="-227.5" font-family="Times New Roman,serif" font-size="30.00"> &#160;&#160;602 &#160;&#160;19% &#160;&#160;0.0342 mol/s &#160;&#160;&#160;1.00E+00</text>
</g>
<!-- R309 -->
<g id="node8" class="node">
<title>R309</title>
<g id="a_node8"><a xlink:href="309.svg" xlink:title="R309">
<polygon fill="cornsilk" stroke="none" points="1253,-177 1159,-177 1159,-130 1253,-130 1253,-177"/>
<text text-anchor="middle" x="1206" y="-145" font-family="Times New Roman,serif" font-size="35.00">R309</text>
</a>
</g>
</g>
<!-- R246&#45;&gt;R309 -->
<g id="edge7" class="edge">
<title>R246&#45;&gt;R309</title>
<path fill="none" stroke="black" d="M668.84,-165.77C671.91,-164.88 674.98,-164.11 678,-163.5 846.41,-129.41 1051.28,-139.95 1148.53,-147.99"/>
<polygon fill="black" stroke="black" points="1148.02,-151.54 1158.28,-148.9 1148.62,-144.57 1148.02,-151.54"/>
<text text-anchor="middle" x="914" y="-172.5" font-family="Times New Roman,serif" font-size="30.00"> &#160;&#160;603 &#160;&#160;19% &#160;&#160;0.0342 mol/s &#160;&#160;&#160;1.00E+00</text>
</g>
<!-- R359 -->
<g id="node9" class="node">
<title>R359</title>
<g id="a_node9"><a xlink:href="359.svg" xlink:title="R359">
<polygon fill="cornsilk" stroke="none" points="1253,-112 1159,-112 1159,-65 1253,-65 1253,-112"/>
<text text-anchor="middle" x="1206" y="-80" font-family="Times New Roman,serif" font-size="35.00">R359</text>
</a>
</g>
</g>
<!-- R246&#45;&gt;R359 -->
<g id="edge8" class="edge">
<title>R246&#45;&gt;R359</title>
<path fill="none" stroke="black" d="M631.31,-162.23C639.74,-142.46 654.87,-115.32 678,-102.5 757.28,-58.56 1029.35,-74.23 1148.43,-83.58"/>
<polygon fill="black" stroke="black" points="1147.88,-87.12 1158.12,-84.43 1148.43,-80.15 1147.88,-87.12"/>
<text text-anchor="middle" x="914" y="-111.5" font-family="Times New Roman,serif" font-size="30.00"> &#160;&#160;604 &#160;&#160;19% &#160;&#160;0.0341 mol/s &#160;&#160;&#160;9.98E&#45;01</text>
</g>
<!-- R96 -->
<g id="node10" class="node">
<title>R96</title>
<g id="a_node10"><a xlink:href="96.svg" xlink:title="R96">
<polygon fill="cornsilk" stroke="none" points="1244,-47 1168,-47 1168,0 1244,0 1244,-47"/>
<text text-anchor="middle" x="1206" y="-15" font-family="Times New Roman,serif" font-size="35.00">R96</text>
</a>
</g>
</g>
<!-- R246&#45;&gt;R96 -->
<g id="edge10" class="edge">
<title>R246&#45;&gt;R96</title>
<path fill="none" stroke="black" d="M623.94,-162.1C626.72,-128 637.41,-65.54 678,-36.5 753.73,17.67 1042,-6.06 1157.11,-18.08"/>
<polygon fill="black" stroke="black" points="1156.71,-21.66 1167.02,-19.23 1157.45,-14.7 1156.71,-21.66"/>
<text text-anchor="middle" x="914" y="-45.5" font-family="Times New Roman,serif" font-size="30.00"> &#160;&#160;719 &#160;&#160;1% &#160;&#160;0.00272 mol/s &#160;&#160;&#160;1.00E+00</text>
</g>
<!-- R26 -->
<g id="node2" class="node">
<title>R26</title>
<g id="a_node2"><a xlink:href="26.svg" xlink:title="R26">
<polygon fill="cornsilk" stroke="none" points="76,-302 0,-302 0,-255 76,-255 76,-302"/>
<text text-anchor="middle" x="38" y="-270" font-family="Times New Roman,serif" font-size="35.00">R26</text>
</a>
</g>
</g>
<!-- R26&#45;&gt;R246 -->
<g id="edge1" class="edge">
<title>R26&#45;&gt;R246</title>
<path fill="none" stroke="black" d="M75.92,-285.69C165.43,-301.21 398.89,-330.25 566,-248.5 579.93,-241.69 591.8,-229.6 600.92,-217.82"/>
<polygon fill="black" stroke="black" points="604.3,-220.11 607.34,-209.96 598.64,-216 604.3,-220.11"/>
<text text-anchor="middle" x="330" y="-312.5" font-family="Times New Roman,serif" font-size="30.00"> &#160;&#160;334 &#160;&#160;0% &#160;&#160;0.0326 mol/s &#160;&#160;&#160;9.55E&#45;01</text>
</g>
<!-- R13 -->
<g id="node3" class="node">
<title>R13</title>
<g id="a_node3"><a xlink:href="13.svg" xlink:title="R13">
<polygon fill="cornsilk" stroke="none" points="76,-237 0,-237 0,-190 76,-190 76,-237"/>
<text text-anchor="middle" x="38" y="-205" font-family="Times New Roman,serif" font-size="35.00">R13</text>
</a>
</g>
</g>
<!-- R13&#45;&gt;R246 -->
<g id="edge2" class="edge">
<title>R13&#45;&gt;R246</title>
<path fill="none" stroke="black" d="M75.79,-212.81C160.11,-211.05 374.09,-205.55 564.34,-191.54"/>
<polygon fill="black" stroke="black" points="564.39,-194.97 574.11,-190.74 563.87,-187.99 564.39,-194.97"/>
<text text-anchor="middle" x="330" y="-220.5" font-family="Times New Roman,serif" font-size="30.00"> &#160;&#160;334 &#160;&#160;0% &#160;&#160;0.0326 mol/s &#160;&#160;&#160;9.55E&#45;01</text>
</g>
<!-- R22 -->
<g id="node4" class="node">
<title>R22</title>
<g id="a_node4"><a xlink:href="22.svg" xlink:title="R22">
<polygon fill="cornsilk" stroke="none" points="76,-149 0,-149 0,-102 76,-102 76,-149"/>
<text text-anchor="middle" x="38" y="-117" font-family="Times New Roman,serif" font-size="35.00">R22</text>
</a>
</g>
</g>
<!-- R22&#45;&gt;R246 -->
<g id="edge3" class="edge">
<title>R22&#45;&gt;R246</title>
<path fill="none" stroke="black" d="M75.88,-132.94C81.91,-133.94 88.12,-134.85 94,-135.5 198.34,-147.03 465.02,-125.82 566,-154.5 569.12,-155.38 572.24,-156.48 575.34,-157.72"/>
<polygon fill="black" stroke="black" points="573.52,-161.19 584.08,-162.12 576.41,-154.81 573.52,-161.19"/>
<text text-anchor="middle" x="330" y="-163.5" font-family="Times New Roman,serif" font-size="30.00"> &#160;&#160;426 &#160;&#160;0% &#160;&#160;0.00272 mol/s &#160;&#160;&#160;1.00E+00</text>
</g>
<!-- R22&#45;&gt;R246 -->
<g id="edge9" class="edge">
<title>R22&#45;&gt;R246</title>
<path fill="none" stroke="black" stroke-width="5" d="M75.72,-104.66C81.67,-102.12 87.89,-99.92 94,-98.5 298.34,-51.05 382.26,2.72 566,-98.5 583.55,-108.17 596.28,-126.06 605.04,-143.11"/>
<polygon fill="black" stroke="black" stroke-width="5" points="595.42,-142.5 611.56,-157.2 611.4,-135.37 595.42,-142.5"/>
<text text-anchor="middle" x="330" y="-107.5" font-family="Times New Roman,serif" font-size="30.00"> &#160;&#160;718 &#160;&#160;99% &#160;&#160;20.3 mol/s &#160;&#160;&#160;1.34E&#45;04</text>
</g>
</g>
</svg>
