<?xml version="1.0" encoding="UTF-8" standalone="no"?>
<!DOCTYPE svg PUBLIC "-//W3C//DTD SVG 1.1//EN"
 "http://www.w3.org/Graphics/SVG/1.1/DTD/svg11.dtd">
<!-- Generated by graphviz version 8.0.3 (20230416.2022)
 -->
<!-- Title: G Pages: 1 -->
<svg width="640pt" height="223pt"
 viewBox="0.00 0.00 720.00 250.40" xmlns="http://www.w3.org/2000/svg" xmlns:xlink="http://www.w3.org/1999/xlink">
<g id="graph0" class="graph" transform="scale(0.490421 0.490421) rotate(0) translate(4 449.86)">
<title>G</title>
<polygon fill="white" stroke="none" points="-4,4 -4,-449.86 1301,-449.86 1301,4 -4,4"/>
<text text-anchor="middle" x="648.5" y="-413.06" font-family="Arial" font-size="36.00" fill="blue">Reaction Path Analysis</text>
<!-- R246 -->
<g id="node1" class="node">
<title>R246</title>
<g id="a_node1"><a xlink:href="246.svg" xlink:title="R246">
<polygon fill="cornsilk" stroke="none" points="691,-209.36 597,-209.36 597,-162.36 691,-162.36 691,-209.36"/>
<text text-anchor="middle" x="644" y="-177.36" font-family="Times New Roman,serif" font-size="35.00">R246</text>
</a>
</g>
</g>
<!-- R280 -->
<g id="node5" class="node">
<title>R280</title>
<g id="a_node5"><a xlink:href="280.svg" xlink:title="R280">
<polygon fill="cornsilk" stroke="none" points="1297,-372.36 1203,-372.36 1203,-325.36 1297,-325.36 1297,-372.36"/>
<text text-anchor="middle" x="1250" y="-340.36" font-family="Times New Roman,serif" font-size="35.00">R280</text>
</a>
</g>
</g>
<!-- R246&#45;&gt;R280 -->
<g id="edge4" class="edge">
<title>R246&#45;&gt;R280</title>
<path fill="none" stroke="black" d="M646.57,-209.31C650.14,-241.82 661.81,-299.63 700,-326.86 777.56,-382.16 1068.25,-364.56 1192.31,-354.15"/>
<polygon fill="black" stroke="black" points="1192.42,-357.57 1202.08,-353.23 1191.82,-350.6 1192.42,-357.57"/>
<text text-anchor="middle" x="947" y="-373.86" font-family="Times New Roman,serif" font-size="30.00"> &#160;&#160;523 &#160;&#160;19% &#160;&#160;4.67e&#45;08 mol/s &#160;&#160;&#160;1.00E+00</text>
</g>
<!-- R281 -->
<g id="node6" class="node">
<title>R281</title>
<g id="a_node6"><a xlink:href="281.svg" xlink:title="R281">
<polygon fill="cornsilk" stroke="none" points="1297,-307.36 1203,-307.36 1203,-260.36 1297,-260.36 1297,-307.36"/>
<text text-anchor="middle" x="1250" y="-275.36" font-family="Times New Roman,serif" font-size="35.00">R281</text>
</a>
</g>
</g>
<!-- R246&#45;&gt;R281 -->
<g id="edge5" class="edge">
<title>R246&#45;&gt;R281</title>
<path fill="none" stroke="black" d="M656.41,-209.13C665.72,-225.33 680.51,-245.76 700,-255.86 784.42,-299.58 1069.97,-292.21 1192.45,-286.79"/>
<polygon fill="black" stroke="black" points="1192.25,-290.25 1202.08,-286.3 1191.93,-283.26 1192.25,-290.25"/>
<text text-anchor="middle" x="947" y="-299.86" font-family="Times New Roman,serif" font-size="30.00"> &#160;&#160;524 &#160;&#160;19% &#160;&#160;4.67e&#45;08 mol/s &#160;&#160;&#160;1.00E+00</text>
</g>
<!-- R308 -->
<g id="node7" class="node">
<title>R308</title>
<g id="a_node7"><a xlink:href="308.svg" xlink:title="R308">
<polygon fill="cornsilk" stroke="none" points="1297,-242.36 1203,-242.36 1203,-195.36 1297,-195.36 1297,-242.36"/>
<text text-anchor="middle" x="1250" y="-210.36" font-family="Times New Roman,serif" font-size="35.00">R308</text>
</a>
</g>
</g>
<!-- R246&#45;&gt;R308 -->
<g id="edge6" class="edge">
<title>R246&#45;&gt;R308</title>
<path fill="none" stroke="black" d="M690.83,-195.58C693.92,-196.07 697,-196.5 700,-196.86 878.94,-218.2 1092.76,-220.02 1192.53,-219.51"/>
<polygon fill="black" stroke="black" points="1192.28,-223.01 1202.26,-219.45 1192.24,-216.01 1192.28,-223.01"/>
<text text-anchor="middle" x="947" y="-227.86" font-family="Times New Roman,serif" font-size="30.00"> &#160;&#160;602 &#160;&#160;19% &#160;&#160;4.67e&#45;08 mol/s &#160;&#160;&#160;1.00E+00</text>
</g>
<!-- R309 -->
<g id="node8" class="node">
<title>R309</title>
<g id="a_node8"><a xlink:href="309.svg" xlink:title="R309">
<polygon fill="cornsilk" stroke="none" points="1297,-177.36 1203,-177.36 1203,-130.36 1297,-130.36 1297,-177.36"/>
<text text-anchor="middle" x="1250" y="-145.36" font-family="Times New Roman,serif" font-size="35.00">R309</text>
</a>
</g>
</g>
<!-- R246&#45;&gt;R309 -->
<g id="edge7" class="edge">
<title>R246&#45;&gt;R309</title>
<path fill="none" stroke="black" d="M690.84,-166.12C693.91,-165.24 696.98,-164.47 700,-163.86 876.75,-128.15 1092.04,-139.75 1192.41,-148.24"/>
<polygon fill="black" stroke="black" points="1191.94,-151.8 1202.21,-149.18 1192.55,-144.83 1191.94,-151.8"/>
<text text-anchor="middle" x="947" y="-172.86" font-family="Times New Roman,serif" font-size="30.00"> &#160;&#160;603 &#160;&#160;19% &#160;&#160;4.67e&#45;08 mol/s &#160;&#160;&#160;1.00E+00</text>
</g>
<!-- R359 -->
<g id="node9" class="node">
<title>R359</title>
<g id="a_node9"><a xlink:href="359.svg" xlink:title="R359">
<polygon fill="cornsilk" stroke="none" points="1297,-112.36 1203,-112.36 1203,-65.36 1297,-65.36 1297,-112.36"/>
<text text-anchor="middle" x="1250" y="-80.36" font-family="Times New Roman,serif" font-size="35.00">R359</text>
</a>
</g>
</g>
<!-- R246&#45;&gt;R359 -->
<g id="edge8" class="edge">
<title>R246&#45;&gt;R359</title>
<path fill="none" stroke="black" d="M653.06,-162.69C661.4,-142.65 676.54,-114.9 700,-101.86 783.11,-55.65 1070.04,-73.56 1192.69,-83.72"/>
<polygon fill="black" stroke="black" points="1192.07,-87.27 1202.33,-84.62 1192.66,-80.29 1192.07,-87.27"/>
<text text-anchor="middle" x="947" y="-110.86" font-family="Times New Roman,serif" font-size="30.00"> &#160;&#160;604 &#160;&#160;19% &#160;&#160;4.67e&#45;08 mol/s &#160;&#160;&#160;1.00E+00</text>
</g>
<!-- R96 -->
<g id="node10" class="node">
<title>R96</title>
<g id="a_node10"><a xlink:href="96.svg" xlink:title="R96">
<polygon fill="cornsilk" stroke="none" points="1288,-47.36 1212,-47.36 1212,-0.36 1288,-0.36 1288,-47.36"/>
<text text-anchor="middle" x="1250" y="-15.36" font-family="Times New Roman,serif" font-size="35.00">R96</text>
</a>
</g>
</g>
<!-- R246&#45;&gt;R96 -->
<g id="edge10" class="edge">
<title>R246&#45;&gt;R96</title>
<path fill="none" stroke="black" d="M645.8,-162.42C648.38,-127.9 658.81,-64.31 700,-34.86 779.35,21.88 1082.67,-5.06 1201.17,-18.16"/>
<polygon fill="black" stroke="black" points="1200.72,-21.74 1211.05,-19.38 1201.5,-14.79 1200.72,-21.74"/>
<text text-anchor="middle" x="947" y="-43.86" font-family="Times New Roman,serif" font-size="30.00"> &#160;&#160;719 &#160;&#160;0% &#160;&#160;1.01e&#45;11 mol/s &#160;&#160;&#160;1.00E+00</text>
</g>
<!-- R26 -->
<g id="node2" class="node">
<title>R26</title>
<g id="a_node2"><a xlink:href="26.svg" xlink:title="R26">
<polygon fill="cornsilk" stroke="none" points="76,-302.36 0,-302.36 0,-255.36 76,-255.36 76,-302.36"/>
<text text-anchor="middle" x="38" y="-270.36" font-family="Times New Roman,serif" font-size="35.00">R26</text>
</a>
</g>
</g>
<!-- R26&#45;&gt;R246 -->
<g id="edge1" class="edge">
<title>R26&#45;&gt;R246</title>
<path fill="none" stroke="black" d="M75.78,-286.32C167.79,-303.08 413.04,-335.85 588,-249.86 602.39,-242.78 614.53,-230.06 623.71,-217.81"/>
<polygon fill="black" stroke="black" points="626.97,-220.26 629.86,-210.07 621.25,-216.23 626.97,-220.26"/>
<text text-anchor="middle" x="341" y="-314.86" font-family="Times New Roman,serif" font-size="30.00"> &#160;&#160;334 &#160;&#160;14% &#160;&#160;4.67e&#45;08 mol/s &#160;&#160;&#160;1.00E+00</text>
</g>
<!-- R13 -->
<g id="node3" class="node">
<title>R13</title>
<g id="a_node3"><a xlink:href="13.svg" xlink:title="R13">
<polygon fill="cornsilk" stroke="none" points="76,-237.36 0,-237.36 0,-190.36 76,-190.36 76,-237.36"/>
<text text-anchor="middle" x="38" y="-205.36" font-family="Times New Roman,serif" font-size="35.00">R13</text>
</a>
</g>
</g>
<!-- R13&#45;&gt;R246 -->
<g id="edge2" class="edge">
<title>R13&#45;&gt;R246</title>
<path fill="none" stroke="black" d="M76,-213.25C162.95,-211.64 387.31,-206.38 586.16,-191.91"/>
<polygon fill="black" stroke="black" points="586.39,-195.33 596.11,-191.1 585.87,-188.35 586.39,-195.33"/>
<text text-anchor="middle" x="341" y="-221.86" font-family="Times New Roman,serif" font-size="30.00"> &#160;&#160;334 &#160;&#160;14% &#160;&#160;4.67e&#45;08 mol/s &#160;&#160;&#160;1.00E+00</text>
</g>
<!-- R22 -->
<g id="node4" class="node">
<title>R22</title>
<g id="a_node4"><a xlink:href="22.svg" xlink:title="R22">
<polygon fill="cornsilk" stroke="none" points="76,-149.36 0,-149.36 0,-102.36 76,-102.36 76,-149.36"/>
<text text-anchor="middle" x="38" y="-117.36" font-family="Times New Roman,serif" font-size="35.00">R22</text>
</a>
</g>
</g>
<!-- R22&#45;&gt;R246 -->
<g id="edge3" class="edge">
<title>R22&#45;&gt;R246</title>
<path fill="none" stroke="black" d="M75.88,-133.3C81.91,-134.31 88.12,-135.21 94,-135.86 203.21,-147.82 482.29,-124.94 588,-154.86 591.12,-155.74 594.25,-156.83 597.34,-158.07"/>
<polygon fill="black" stroke="black" points="595.52,-161.54 606.08,-162.47 598.41,-155.16 595.52,-161.54"/>
<text text-anchor="middle" x="341" y="-163.86" font-family="Times New Roman,serif" font-size="30.00"> &#160;&#160;426 &#160;&#160;0% &#160;&#160;1.01e&#45;11 mol/s &#160;&#160;&#160;1.00E+00</text>
</g>
<!-- R22&#45;&gt;R246 -->
<g id="edge9" class="edge">
<title>R22&#45;&gt;R246</title>
<path fill="none" stroke="black" stroke-width="5" d="M75.72,-105.02C81.67,-102.48 87.89,-100.28 94,-98.86 307.86,-49.19 395.69,7.08 588,-98.86 605.55,-108.52 618.28,-126.41 627.04,-143.47"/>
<polygon fill="black" stroke="black" stroke-width="5" points="617.42,-142.86 633.56,-157.56 633.4,-135.73 617.42,-142.86"/>
<text text-anchor="middle" x="341" y="-107.86" font-family="Times New Roman,serif" font-size="30.00"> &#160;&#160;718 &#160;&#160;85% &#160;&#160;2.65e&#45;07 mol/s &#160;&#160;&#160;3.80E&#45;05</text>
</g>
</g>
</svg>
