<?xml version="1.0" encoding="UTF-8" standalone="no"?>
<!DOCTYPE svg PUBLIC "-//W3C//DTD SVG 1.1//EN"
 "http://www.w3.org/Graphics/SVG/1.1/DTD/svg11.dtd">
<!-- Generated by graphviz version 8.0.3 (20230416.2022)
 -->
<!-- Title: G Pages: 1 -->
<svg width="640pt" height="239pt"
 viewBox="0.00 0.00 720.00 268.90" xmlns="http://www.w3.org/2000/svg" xmlns:xlink="http://www.w3.org/1999/xlink">
<g id="graph0" class="graph" transform="scale(0.487062 0.487062) rotate(0) translate(4 486.75)">
<title>G</title>
<polygon fill="white" stroke="none" points="-4,4 -4,-486.75 1310,-486.75 1310,4 -4,4"/>
<text text-anchor="middle" x="653" y="-449.95" font-family="Arial" font-size="36.00" fill="blue">Reaction Path Analysis</text>
<!-- R248 -->
<g id="node1" class="node">
<title>R248</title>
<g id="a_node1"><a xlink:href="248.svg" xlink:title="R248">
<polygon fill="cornsilk" stroke="none" points="700,-234.25 606,-234.25 606,-187.25 700,-187.25 700,-234.25"/>
<text text-anchor="middle" x="653" y="-202.25" font-family="Times New Roman,serif" font-size="35.00">R248</text>
</a>
</g>
</g>
<!-- R282 -->
<g id="node5" class="node">
<title>R282</title>
<g id="a_node5"><a xlink:href="282.svg" xlink:title="R282">
<polygon fill="cornsilk" stroke="none" points="1306,-364.25 1212,-364.25 1212,-317.25 1306,-317.25 1306,-364.25"/>
<text text-anchor="middle" x="1259" y="-332.25" font-family="Times New Roman,serif" font-size="35.00">R282</text>
</a>
</g>
</g>
<!-- R248&#45;&gt;R282 -->
<g id="edge4" class="edge">
<title>R248&#45;&gt;R282</title>
<path fill="none" stroke="black" stroke-width="2" d="M659.32,-234.2C666.24,-258.69 680.92,-295.96 709,-313.75 864.09,-412.01 1096.15,-377.83 1201.89,-354.77"/>
<polygon fill="black" stroke="black" stroke-width="2" points="1201.33,-358.04 1210.33,-352.44 1199.8,-351.21 1201.33,-358.04"/>
<text text-anchor="middle" x="956" y="-388.75" font-family="Times New Roman,serif" font-size="30.00"> &#160;&#160;525 &#160;&#160;20% &#160;&#160;4.67e&#45;08 mol/s &#160;&#160;&#160;1.00E+00</text>
</g>
<!-- R283 -->
<g id="node6" class="node">
<title>R283</title>
<g id="a_node6"><a xlink:href="283.svg" xlink:title="R283">
<polygon fill="cornsilk" stroke="none" points="1306,-299.25 1212,-299.25 1212,-252.25 1306,-252.25 1306,-299.25"/>
<text text-anchor="middle" x="1259" y="-267.25" font-family="Times New Roman,serif" font-size="35.00">R283</text>
</a>
</g>
</g>
<!-- R248&#45;&gt;R283 -->
<g id="edge5" class="edge">
<title>R248&#45;&gt;R283</title>
<path fill="none" stroke="black" stroke-width="2" d="M682.41,-234.08C690.54,-239.54 699.72,-244.66 709,-247.75 799,-277.73 1080.28,-278.03 1201.49,-276.67"/>
<polygon fill="black" stroke="black" stroke-width="2" points="1199.41,-280.16 1209.37,-276.54 1199.32,-273.16 1199.41,-280.16"/>
<text text-anchor="middle" x="956" y="-285.75" font-family="Times New Roman,serif" font-size="30.00"> &#160;&#160;526 &#160;&#160;20% &#160;&#160;4.67e&#45;08 mol/s &#160;&#160;&#160;1.00E+00</text>
</g>
<!-- R311 -->
<g id="node7" class="node">
<title>R311</title>
<g id="a_node7"><a xlink:href="311.svg" xlink:title="R311">
<polygon fill="cornsilk" stroke="none" points="1306,-234.25 1212,-234.25 1212,-187.25 1306,-187.25 1306,-234.25"/>
<text text-anchor="middle" x="1259" y="-202.25" font-family="Times New Roman,serif" font-size="35.00">R311</text>
</a>
</g>
</g>
<!-- R248&#45;&gt;R311 -->
<g id="edge6" class="edge">
<title>R248&#45;&gt;R311</title>
<path fill="none" stroke="black" stroke-width="2" d="M699.89,-210.75C808.81,-210.75 1082.67,-210.75 1201.51,-210.75"/>
<polygon fill="black" stroke="black" stroke-width="2" points="1199.18,-214.25 1209.18,-210.75 1199.18,-207.25 1199.18,-214.25"/>
<text text-anchor="middle" x="956" y="-219.75" font-family="Times New Roman,serif" font-size="30.00"> &#160;&#160;606 &#160;&#160;20% &#160;&#160;4.67e&#45;08 mol/s &#160;&#160;&#160;1.00E+00</text>
</g>
<!-- R312 -->
<g id="node8" class="node">
<title>R312</title>
<g id="a_node8"><a xlink:href="312.svg" xlink:title="R312">
<polygon fill="cornsilk" stroke="none" points="1306,-169.25 1212,-169.25 1212,-122.25 1306,-122.25 1306,-169.25"/>
<text text-anchor="middle" x="1259" y="-137.25" font-family="Times New Roman,serif" font-size="35.00">R312</text>
</a>
</g>
</g>
<!-- R248&#45;&gt;R312 -->
<g id="edge7" class="edge">
<title>R248&#45;&gt;R312</title>
<path fill="none" stroke="black" stroke-width="2" d="M682.41,-187.42C690.54,-181.96 699.72,-176.84 709,-173.75 880.88,-116.49 1099.73,-128.75 1201.38,-138.92"/>
<polygon fill="black" stroke="black" stroke-width="2" points="1198.71,-142.47 1209.02,-140.02 1199.43,-135.51 1198.71,-142.47"/>
<text text-anchor="middle" x="956" y="-182.75" font-family="Times New Roman,serif" font-size="30.00"> &#160;&#160;607 &#160;&#160;20% &#160;&#160;4.67e&#45;08 mol/s &#160;&#160;&#160;1.00E+00</text>
</g>
<!-- R361 -->
<g id="node9" class="node">
<title>R361</title>
<g id="a_node9"><a xlink:href="361.svg" xlink:title="R361">
<polygon fill="cornsilk" stroke="none" points="1306,-104.25 1212,-104.25 1212,-57.25 1306,-57.25 1306,-104.25"/>
<text text-anchor="middle" x="1259" y="-72.25" font-family="Times New Roman,serif" font-size="35.00">R361</text>
</a>
</g>
</g>
<!-- R248&#45;&gt;R361 -->
<g id="edge8" class="edge">
<title>R248&#45;&gt;R361</title>
<path fill="none" stroke="black" stroke-width="2" d="M657.46,-187.35C662.97,-159.43 676.63,-113.87 709,-92.75 862.6,7.5 1095.4,-36.15 1201.61,-64.04"/>
<polygon fill="black" stroke="black" stroke-width="2" points="1199.53,-67.64 1210.1,-66.85 1201.34,-60.88 1199.53,-67.64"/>
<text text-anchor="middle" x="956" y="-101.75" font-family="Times New Roman,serif" font-size="30.00"> &#160;&#160;608 &#160;&#160;20% &#160;&#160;4.67e&#45;08 mol/s &#160;&#160;&#160;1.00E+00</text>
</g>
<!-- R27 -->
<g id="node2" class="node">
<title>R27</title>
<g id="a_node2"><a xlink:href="27.svg" xlink:title="R27">
<polygon fill="cornsilk" stroke="none" points="85,-383.25 9,-383.25 9,-336.25 85,-336.25 85,-383.25"/>
<text text-anchor="middle" x="47" y="-351.25" font-family="Times New Roman,serif" font-size="35.00">R27</text>
</a>
</g>
</g>
<!-- R27&#45;&gt;R248 -->
<g id="edge1" class="edge">
<title>R27&#45;&gt;R248</title>
<path fill="none" stroke="black" d="M84.72,-369.91C178.65,-393.61 431.58,-442.67 593.5,-334.75 623.88,-314.5 638.86,-273.99 645.98,-244.78"/>
<polygon fill="black" stroke="black" points="649.58,-245.72 648.35,-235.2 642.75,-244.2 649.58,-245.72"/>
<text text-anchor="middle" x="350" y="-410.75" font-family="Times New Roman,serif" font-size="30.00"> &#160;&#160;336 &#160;&#160;0% &#160;&#160;4.67e&#45;08 mol/s &#160;&#160;&#160;1.00E+00</text>
</g>
<!-- R13 -->
<g id="node3" class="node">
<title>R13</title>
<g id="a_node3"><a xlink:href="13.svg" xlink:title="R13">
<polygon fill="cornsilk" stroke="none" points="85,-318.25 9,-318.25 9,-271.25 85,-271.25 85,-318.25"/>
<text text-anchor="middle" x="47" y="-286.25" font-family="Times New Roman,serif" font-size="35.00">R13</text>
</a>
</g>
</g>
<!-- R13&#45;&gt;R248 -->
<g id="edge2" class="edge">
<title>R13&#45;&gt;R248</title>
<path fill="none" stroke="black" d="M84.86,-295.93C191.99,-298.86 501.56,-303.64 593.5,-264.75 605.51,-259.67 616.62,-251 625.85,-242.07"/>
<polygon fill="black" stroke="black" points="628,-244.86 632.46,-235.25 622.98,-239.97 628,-244.86"/>
<text text-anchor="middle" x="350" y="-306.75" font-family="Times New Roman,serif" font-size="30.00"> &#160;&#160;336 &#160;&#160;0% &#160;&#160;4.67e&#45;08 mol/s &#160;&#160;&#160;1.00E+00</text>
</g>
<!-- R61 -->
<g id="node4" class="node">
<title>R61</title>
<g id="a_node4"><a xlink:href="61.svg" xlink:title="R61">
<polygon fill="cornsilk" stroke="none" points="85,-230.25 9,-230.25 9,-183.25 85,-183.25 85,-230.25"/>
<text text-anchor="middle" x="47" y="-198.25" font-family="Times New Roman,serif" font-size="35.00">R61</text>
</a>
</g>
</g>
<!-- R61&#45;&gt;R248 -->
<g id="edge3" class="edge">
<title>R61&#45;&gt;R248</title>
<path fill="none" stroke="black" d="M84.7,-214C91.9,-215.14 99.42,-216.15 106.5,-216.75 322.17,-235.05 377.34,-227.8 593.5,-216.75 594.14,-216.72 594.78,-216.68 595.42,-216.65"/>
<polygon fill="black" stroke="black" points="595.31,-220.09 605.05,-215.91 594.83,-213.11 595.31,-220.09"/>
<text text-anchor="middle" x="350" y="-236.75" font-family="Times New Roman,serif" font-size="30.00"> &#160;&#160;446 &#160;&#160;0% &#160;&#160;1.01e&#45;11 mol/s &#160;&#160;&#160;9.98E&#45;01</text>
</g>
<!-- R61&#45;&gt;R248 -->
<g id="edge11" class="edge">
<title>R61&#45;&gt;R248</title>
<path fill="none" stroke="black" d="M84.92,-186.82C91.91,-183.89 99.29,-181.33 106.5,-179.75 212.2,-156.53 488.47,-153.64 593.5,-179.75 597.07,-180.64 600.65,-181.78 604.2,-183.11"/>
<polygon fill="black" stroke="black" points="602.47,-186.61 613.05,-187.28 605.2,-180.16 602.47,-186.61"/>
<text text-anchor="middle" x="350" y="-188.75" font-family="Times New Roman,serif" font-size="30.00"> &#160;&#160;721 &#160;&#160;0% &#160;&#160;6.69e&#45;09 mol/s &#160;&#160;&#160;1.50E&#45;03</text>
</g>
<!-- R111 -->
<g id="node10" class="node">
<title>R111</title>
<g id="a_node10"><a xlink:href="111.svg" xlink:title="R111">
<polygon fill="cornsilk" stroke="none" points="94,-122.25 0,-122.25 0,-75.25 94,-75.25 94,-122.25"/>
<text text-anchor="middle" x="47" y="-90.25" font-family="Times New Roman,serif" font-size="35.00">R111</text>
</a>
</g>
</g>
<!-- R111&#45;&gt;R248 -->
<g id="edge9" class="edge">
<title>R111&#45;&gt;R248</title>
<path fill="none" stroke="black" d="M93.96,-103.74C98.2,-104.12 102.43,-104.46 106.5,-104.75 160.52,-108.57 546.21,-97.36 593.5,-123.75 614.62,-135.53 629.57,-158.51 639.07,-177.9"/>
<polygon fill="black" stroke="black" points="636.19,-179 643.55,-186.63 642.55,-176.08 636.19,-179"/>
<text text-anchor="middle" x="350" y="-132.75" font-family="Times New Roman,serif" font-size="30.00"> &#160;&#160;642 &#160;&#160;0% &#160;&#160;1.01e&#45;11 mol/s &#160;&#160;&#160;1.00E+00</text>
</g>
<!-- R111&#45;&gt;R248 -->
<g id="edge10" class="edge">
<title>R111&#45;&gt;R248</title>
<path fill="none" stroke="black" stroke-width="5" d="M85.95,-75.28C92.59,-72.17 99.58,-69.47 106.5,-67.75 316.55,-15.53 413.8,52.9 593.5,-67.75 626.14,-89.66 640.58,-133.34 646.96,-166.69"/>
<polygon fill="black" stroke="black" stroke-width="5" points="638.44,-162.84 650.16,-181.26 655.73,-160.15 638.44,-162.84"/>
<text text-anchor="middle" x="350" y="-76.75" font-family="Times New Roman,serif" font-size="30.00"> &#160;&#160;720 &#160;&#160;99% &#160;&#160;1.07e&#45;05 mol/s &#160;&#160;&#160;9.43E&#45;07</text>
</g>
</g>
</svg>
