<?xml version="1.0" encoding="UTF-8" standalone="no"?>
<!DOCTYPE svg PUBLIC "-//W3C//DTD SVG 1.1//EN"
 "http://www.w3.org/Graphics/SVG/1.1/DTD/svg11.dtd">
<!-- Generated by graphviz version 8.0.3 (20230416.2022)
 -->
<!-- Title: G Pages: 1 -->
<svg width="640pt" height="241pt"
 viewBox="0.00 0.00 720.00 271.45" xmlns="http://www.w3.org/2000/svg" xmlns:xlink="http://www.w3.org/1999/xlink">
<g id="graph0" class="graph" transform="scale(0.487062 0.487062) rotate(0) translate(4 491.39)">
<title>G</title>
<polygon fill="white" stroke="none" points="-4,4 -4,-491.39 1310,-491.39 1310,4 -4,4"/>
<text text-anchor="middle" x="653" y="-454.59" font-family="Arial" font-size="36.00" fill="blue">Reaction Path Analysis</text>
<!-- R248 -->
<g id="node1" class="node">
<title>R248</title>
<g id="a_node1"><a xlink:href="248.svg" xlink:title="R248">
<polygon fill="cornsilk" stroke="none" points="700,-236.89 606,-236.89 606,-189.89 700,-189.89 700,-236.89"/>
<text text-anchor="middle" x="653" y="-204.89" font-family="Times New Roman,serif" font-size="35.00">R248</text>
</a>
</g>
</g>
<!-- R282 -->
<g id="node5" class="node">
<title>R282</title>
<g id="a_node5"><a xlink:href="282.svg" xlink:title="R282">
<polygon fill="cornsilk" stroke="none" points="1306,-366.89 1212,-366.89 1212,-319.89 1306,-319.89 1306,-366.89"/>
<text text-anchor="middle" x="1259" y="-334.89" font-family="Times New Roman,serif" font-size="35.00">R282</text>
</a>
</g>
</g>
<!-- R248&#45;&gt;R282 -->
<g id="edge4" class="edge">
<title>R248&#45;&gt;R282</title>
<path fill="none" stroke="black" stroke-width="2" d="M659.32,-236.84C666.24,-261.33 680.92,-298.6 709,-316.39 864.09,-414.65 1096.15,-380.47 1201.89,-357.41"/>
<polygon fill="black" stroke="black" stroke-width="2" points="1201.33,-360.68 1210.33,-355.09 1199.8,-353.85 1201.33,-360.68"/>
<text text-anchor="middle" x="956" y="-391.39" font-family="Times New Roman,serif" font-size="30.00"> &#160;&#160;525 &#160;&#160;20% &#160;&#160;2.18e&#45;15 mol/s &#160;&#160;&#160;1.00E+00</text>
</g>
<!-- R283 -->
<g id="node6" class="node">
<title>R283</title>
<g id="a_node6"><a xlink:href="283.svg" xlink:title="R283">
<polygon fill="cornsilk" stroke="none" points="1306,-301.89 1212,-301.89 1212,-254.89 1306,-254.89 1306,-301.89"/>
<text text-anchor="middle" x="1259" y="-269.89" font-family="Times New Roman,serif" font-size="35.00">R283</text>
</a>
</g>
</g>
<!-- R248&#45;&gt;R283 -->
<g id="edge5" class="edge">
<title>R248&#45;&gt;R283</title>
<path fill="none" stroke="black" stroke-width="2" d="M682.41,-236.72C690.54,-242.18 699.72,-247.3 709,-250.39 799,-280.37 1080.28,-280.67 1201.49,-279.31"/>
<polygon fill="black" stroke="black" stroke-width="2" points="1199.41,-282.8 1209.37,-279.18 1199.32,-275.8 1199.41,-282.8"/>
<text text-anchor="middle" x="956" y="-288.39" font-family="Times New Roman,serif" font-size="30.00"> &#160;&#160;526 &#160;&#160;20% &#160;&#160;2.18e&#45;15 mol/s &#160;&#160;&#160;1.00E+00</text>
</g>
<!-- R311 -->
<g id="node7" class="node">
<title>R311</title>
<g id="a_node7"><a xlink:href="311.svg" xlink:title="R311">
<polygon fill="cornsilk" stroke="none" points="1306,-236.89 1212,-236.89 1212,-189.89 1306,-189.89 1306,-236.89"/>
<text text-anchor="middle" x="1259" y="-204.89" font-family="Times New Roman,serif" font-size="35.00">R311</text>
</a>
</g>
</g>
<!-- R248&#45;&gt;R311 -->
<g id="edge6" class="edge">
<title>R248&#45;&gt;R311</title>
<path fill="none" stroke="black" stroke-width="2" d="M699.89,-213.39C808.81,-213.39 1082.67,-213.39 1201.51,-213.39"/>
<polygon fill="black" stroke="black" stroke-width="2" points="1199.18,-216.89 1209.18,-213.39 1199.18,-209.89 1199.18,-216.89"/>
<text text-anchor="middle" x="956" y="-222.39" font-family="Times New Roman,serif" font-size="30.00"> &#160;&#160;606 &#160;&#160;20% &#160;&#160;2.18e&#45;15 mol/s &#160;&#160;&#160;1.00E+00</text>
</g>
<!-- R312 -->
<g id="node8" class="node">
<title>R312</title>
<g id="a_node8"><a xlink:href="312.svg" xlink:title="R312">
<polygon fill="cornsilk" stroke="none" points="1306,-171.89 1212,-171.89 1212,-124.89 1306,-124.89 1306,-171.89"/>
<text text-anchor="middle" x="1259" y="-139.89" font-family="Times New Roman,serif" font-size="35.00">R312</text>
</a>
</g>
</g>
<!-- R248&#45;&gt;R312 -->
<g id="edge7" class="edge">
<title>R248&#45;&gt;R312</title>
<path fill="none" stroke="black" stroke-width="2" d="M682.41,-190.06C690.54,-184.6 699.72,-179.48 709,-176.39 880.88,-119.13 1099.73,-131.39 1201.38,-141.56"/>
<polygon fill="black" stroke="black" stroke-width="2" points="1198.71,-145.11 1209.02,-142.66 1199.43,-138.15 1198.71,-145.11"/>
<text text-anchor="middle" x="956" y="-185.39" font-family="Times New Roman,serif" font-size="30.00"> &#160;&#160;607 &#160;&#160;20% &#160;&#160;2.18e&#45;15 mol/s &#160;&#160;&#160;1.00E+00</text>
</g>
<!-- R361 -->
<g id="node9" class="node">
<title>R361</title>
<g id="a_node9"><a xlink:href="361.svg" xlink:title="R361">
<polygon fill="cornsilk" stroke="none" points="1306,-106.89 1212,-106.89 1212,-59.89 1306,-59.89 1306,-106.89"/>
<text text-anchor="middle" x="1259" y="-74.89" font-family="Times New Roman,serif" font-size="35.00">R361</text>
</a>
</g>
</g>
<!-- R248&#45;&gt;R361 -->
<g id="edge8" class="edge">
<title>R248&#45;&gt;R361</title>
<path fill="none" stroke="black" stroke-width="2" d="M657.46,-189.99C662.97,-162.07 676.63,-116.51 709,-95.39 862.6,4.86 1095.4,-38.79 1201.61,-66.68"/>
<polygon fill="black" stroke="black" stroke-width="2" points="1199.53,-70.28 1210.1,-69.49 1201.34,-63.52 1199.53,-70.28"/>
<text text-anchor="middle" x="956" y="-104.39" font-family="Times New Roman,serif" font-size="30.00"> &#160;&#160;608 &#160;&#160;20% &#160;&#160;2.18e&#45;15 mol/s &#160;&#160;&#160;1.00E+00</text>
</g>
<!-- R27 -->
<g id="node2" class="node">
<title>R27</title>
<g id="a_node2"><a xlink:href="27.svg" xlink:title="R27">
<polygon fill="cornsilk" stroke="none" points="85,-385.89 9,-385.89 9,-338.89 85,-338.89 85,-385.89"/>
<text text-anchor="middle" x="47" y="-353.89" font-family="Times New Roman,serif" font-size="35.00">R27</text>
</a>
</g>
</g>
<!-- R27&#45;&gt;R248 -->
<g id="edge1" class="edge">
<title>R27&#45;&gt;R248</title>
<path fill="none" stroke="black" stroke-width="5" d="M84.77,-372.88C179.39,-397.53 435.19,-449.09 597,-338.39 623.92,-319.97 637.79,-285.25 644.86,-257.06"/>
<polygon fill="black" stroke="black" stroke-width="5" points="652.59,-264.1 648.12,-242.73 635.46,-260.51 652.59,-264.1"/>
<text text-anchor="middle" x="350" y="-415.39" font-family="Times New Roman,serif" font-size="30.00"> &#160;&#160;336 &#160;&#160;99% &#160;&#160;2.18e&#45;15 mol/s &#160;&#160;&#160;1.00E+00</text>
</g>
<!-- R13 -->
<g id="node3" class="node">
<title>R13</title>
<g id="a_node3"><a xlink:href="13.svg" xlink:title="R13">
<polygon fill="cornsilk" stroke="none" points="85,-320.89 9,-320.89 9,-273.89 85,-273.89 85,-320.89"/>
<text text-anchor="middle" x="47" y="-288.89" font-family="Times New Roman,serif" font-size="35.00">R13</text>
</a>
</g>
</g>
<!-- R13&#45;&gt;R248 -->
<g id="edge2" class="edge">
<title>R13&#45;&gt;R248</title>
<path fill="none" stroke="black" stroke-width="5" d="M84.78,-298.83C192.45,-302.51 505.13,-309.32 597,-268.39 605.84,-264.45 614.05,-258.4 621.27,-251.74"/>
<polygon fill="black" stroke="black" stroke-width="5" points="624.06,-261.3 631.41,-240.74 611.33,-249.29 624.06,-261.3"/>
<text text-anchor="middle" x="350" y="-310.39" font-family="Times New Roman,serif" font-size="30.00"> &#160;&#160;336 &#160;&#160;99% &#160;&#160;2.18e&#45;15 mol/s &#160;&#160;&#160;1.00E+00</text>
</g>
<!-- R61 -->
<g id="node4" class="node">
<title>R61</title>
<g id="a_node4"><a xlink:href="61.svg" xlink:title="R61">
<polygon fill="cornsilk" stroke="none" points="85,-232.89 9,-232.89 9,-185.89 85,-185.89 85,-232.89"/>
<text text-anchor="middle" x="47" y="-200.89" font-family="Times New Roman,serif" font-size="35.00">R61</text>
</a>
</g>
</g>
<!-- R61&#45;&gt;R248 -->
<g id="edge3" class="edge">
<title>R61&#45;&gt;R248</title>
<path fill="none" stroke="black" d="M84.86,-217.03C90.89,-218.01 97.1,-218.86 103,-219.39 318.14,-238.79 375.92,-231.56 595.21,-219.37"/>
<polygon fill="black" stroke="black" points="595.32,-222.82 605.11,-218.77 594.94,-215.83 595.32,-222.82"/>
<text text-anchor="middle" x="350" y="-240.39" font-family="Times New Roman,serif" font-size="30.00"> &#160;&#160;446 &#160;&#160;0% &#160;&#160;2.2e&#45;26 mol/s &#160;&#160;&#160;9.98E&#45;01</text>
</g>
<!-- R61&#45;&gt;R248 -->
<g id="edge11" class="edge">
<title>R61&#45;&gt;R248</title>
<path fill="none" stroke="black" d="M84.72,-188.55C90.67,-186.01 96.89,-183.81 103,-182.39 156.47,-169.97 543.91,-168.46 597,-182.39 600.18,-183.22 603.38,-184.29 606.54,-185.52"/>
<polygon fill="black" stroke="black" points="604.88,-189.06 615.44,-189.93 607.73,-182.67 604.88,-189.06"/>
<text text-anchor="middle" x="350" y="-191.39" font-family="Times New Roman,serif" font-size="30.00"> &#160;&#160;721 &#160;&#160;0% &#160;&#160;1.46e&#45;23 mol/s &#160;&#160;&#160;1.50E&#45;03</text>
</g>
<!-- R111 -->
<g id="node10" class="node">
<title>R111</title>
<g id="a_node10"><a xlink:href="111.svg" xlink:title="R111">
<polygon fill="cornsilk" stroke="none" points="94,-124.89 0,-124.89 0,-77.89 94,-77.89 94,-124.89"/>
<text text-anchor="middle" x="47" y="-92.89" font-family="Times New Roman,serif" font-size="35.00">R111</text>
</a>
</g>
</g>
<!-- R111&#45;&gt;R248 -->
<g id="edge9" class="edge">
<title>R111&#45;&gt;R248</title>
<path fill="none" stroke="black" d="M93.9,-106.58C96.98,-106.87 100.03,-107.14 103,-107.39 157.79,-111.93 548.93,-108.71 597,-135.39 615.05,-145.4 628.55,-164.14 637.66,-180.74"/>
<polygon fill="black" stroke="black" points="634.83,-181.89 642.52,-189.18 641.06,-178.69 634.83,-181.89"/>
<text text-anchor="middle" x="350" y="-144.39" font-family="Times New Roman,serif" font-size="30.00"> &#160;&#160;642 &#160;&#160;0% &#160;&#160;2.2e&#45;26 mol/s &#160;&#160;&#160;1.00E+00</text>
</g>
<!-- R111&#45;&gt;R248 -->
<g id="edge10" class="edge">
<title>R111&#45;&gt;R248</title>
<path fill="none" stroke="black" d="M83.56,-77.93C89.81,-74.82 96.43,-72.11 103,-70.39 315.37,-14.66 416.02,53.91 597,-70.39 632.36,-94.67 645,-145.11 649.51,-179.11"/>
<polygon fill="black" stroke="black" points="646.13,-179.42 650.74,-188.95 653.09,-178.62 646.13,-179.42"/>
<text text-anchor="middle" x="350" y="-79.39" font-family="Times New Roman,serif" font-size="30.00"> &#160;&#160;720 &#160;&#160;0% &#160;&#160;2.34e&#45;20 mol/s &#160;&#160;&#160;9.43E&#45;07</text>
</g>
</g>
</svg>
