<?xml version="1.0" encoding="UTF-8" standalone="no"?>
<!DOCTYPE svg PUBLIC "-//W3C//DTD SVG 1.1//EN"
 "http://www.w3.org/Graphics/SVG/1.1/DTD/svg11.dtd">
<!-- Generated by graphviz version 8.0.3 (20230416.2022)
 -->
<!-- Title: G Pages: 1 -->
<svg width="640pt" height="97pt"
 viewBox="0.00 0.00 720.00 109.38" xmlns="http://www.w3.org/2000/svg" xmlns:xlink="http://www.w3.org/1999/xlink">
<g id="graph0" class="graph" transform="scale(0.504334 0.504334) rotate(0) translate(4 188.78)">
<title>G</title>
<polygon fill="white" stroke="none" points="-4,4 -4,-188.78 1265,-188.78 1265,4 -4,4"/>
<text text-anchor="middle" x="630.5" y="-151.98" font-family="Arial" font-size="36.00" fill="blue">Reaction Path Analysis</text>
<!-- R25 -->
<g id="node1" class="node">
<title>R25</title>
<g id="a_node1"><a xlink:href="25.svg" xlink:title="R25">
<polygon fill="cornsilk" stroke="none" points="664,-93.28 588,-93.28 588,-46.28 664,-46.28 664,-93.28"/>
<text text-anchor="middle" x="626" y="-61.28" font-family="Times New Roman,serif" font-size="35.00">R25</text>
</a>
</g>
</g>
<!-- R258 -->
<g id="node4" class="node">
<title>R258</title>
<g id="a_node4"><a xlink:href="258.svg" xlink:title="R258">
<polygon fill="cornsilk" stroke="none" points="1261,-93.28 1167,-93.28 1167,-46.28 1261,-46.28 1261,-93.28"/>
<text text-anchor="middle" x="1214" y="-61.28" font-family="Times New Roman,serif" font-size="35.00">R258</text>
</a>
</g>
</g>
<!-- R25&#45;&gt;R258 -->
<g id="edge3" class="edge">
<title>R25&#45;&gt;R258</title>
<path fill="none" stroke="black" d="M663.75,-74.22C670.48,-74.87 677.44,-75.44 684,-75.78 893.49,-86.78 946.51,-86.78 1156,-75.78 1156.11,-75.78 1156.23,-75.77 1156.35,-75.76"/>
<polygon fill="black" stroke="black" points="1156.56,-79.19 1166.3,-75.02 1156.09,-72.2 1156.56,-79.19"/>
<text text-anchor="middle" x="920" y="-92.78" font-family="Times New Roman,serif" font-size="30.00"> &#160;&#160;429 &#160;&#160;0% &#160;&#160;2.2e&#45;26 mol/s &#160;&#160;&#160;1.00E+00</text>
</g>
<!-- R25&#45;&gt;R258 -->
<g id="edge4" class="edge">
<title>R25&#45;&gt;R258</title>
<path fill="none" stroke="black" stroke-width="5" d="M663.93,-46.32C670.4,-43.21 677.23,-40.5 684,-38.78 887.31,12.93 952.69,12.93 1156,-38.78 1156.21,-38.84 1156.42,-38.89 1156.63,-38.95"/>
<polygon fill="black" stroke="black" stroke-width="5" points="1149.27,-45.41 1171.07,-44.32 1155.48,-29.04 1149.27,-45.41"/>
<text text-anchor="middle" x="920" y="-47.78" font-family="Times New Roman,serif" font-size="30.00"> &#160;&#160;734 &#160;&#160;99% &#160;&#160;7.8e&#45;19 mol/s &#160;&#160;&#160;2.82E&#45;08</text>
</g>
<!-- R12 -->
<g id="node2" class="node">
<title>R12</title>
<g id="a_node2"><a xlink:href="12.svg" xlink:title="R12">
<polygon fill="cornsilk" stroke="none" points="76,-126.28 0,-126.28 0,-79.28 76,-79.28 76,-126.28"/>
<text text-anchor="middle" x="38" y="-94.28" font-family="Times New Roman,serif" font-size="35.00">R12</text>
</a>
</g>
</g>
<!-- R12&#45;&gt;R25 -->
<g id="edge1" class="edge">
<title>R12&#45;&gt;R25</title>
<path fill="none" stroke="black" stroke-width="6" d="M75.88,-103.73C160.54,-105.4 375.64,-106.71 567.62,-82.01"/>
<polygon fill="black" stroke="black" stroke-width="6" points="563.79,-92.31 582.21,-79.24 560.99,-71.5 563.79,-92.31"/>
<text text-anchor="middle" x="332" y="-112.78" font-family="Times New Roman,serif" font-size="30.00"> &#160;&#160;30 &#160;&#160;100% &#160;&#160;2.18e&#45;15 mol/s &#160;&#160;&#160;1.00E+00</text>
</g>
<!-- R1 -->
<g id="node3" class="node">
<title>R1</title>
<g id="a_node3"><a xlink:href="1.svg" xlink:title="R1">
<polygon fill="cornsilk" stroke="none" points="67,-61.28 9,-61.28 9,-14.28 67,-14.28 67,-61.28"/>
<text text-anchor="middle" x="38" y="-29.28" font-family="Times New Roman,serif" font-size="35.00">R1</text>
</a>
</g>
</g>
<!-- R1&#45;&gt;R25 -->
<g id="edge2" class="edge">
<title>R1&#45;&gt;R25</title>
<path fill="none" stroke="black" stroke-width="6" d="M66.77,-34.21C144.62,-25.03 371.6,-3.98 567.69,-45.88"/>
<polygon fill="black" stroke="black" stroke-width="6" points="560.26,-55.32 582.09,-49.5 564.9,-34.84 560.26,-55.32"/>
<text text-anchor="middle" x="332" y="-56.78" font-family="Times New Roman,serif" font-size="30.00"> &#160;&#160;30 &#160;&#160;100% &#160;&#160;2.18e&#45;15 mol/s &#160;&#160;&#160;1.00E+00</text>
</g>
</g>
</svg>
