<?xml version="1.0" encoding="UTF-8" standalone="no"?>
<!DOCTYPE svg PUBLIC "-//W3C//DTD SVG 1.1//EN"
 "http://www.w3.org/Graphics/SVG/1.1/DTD/svg11.dtd">
<!-- Generated by graphviz version 8.0.3 (20230416.2022)
 -->
<!-- Title: G Pages: 1 -->
<svg width="640pt" height="95pt"
 viewBox="0.00 0.00 720.00 106.44" xmlns="http://www.w3.org/2000/svg" xmlns:xlink="http://www.w3.org/1999/xlink">
<g id="graph0" class="graph" transform="scale(0.490421 0.490421) rotate(0) translate(4 188.91)">
<title>G</title>
<polygon fill="white" stroke="none" points="-4,4 -4,-188.91 1301,-188.91 1301,4 -4,4"/>
<text text-anchor="middle" x="648.5" y="-152.11" font-family="Arial" font-size="36.00" fill="blue">Reaction Path Analysis</text>
<!-- R25 -->
<g id="node1" class="node">
<title>R25</title>
<g id="a_node1"><a xlink:href="25.svg" xlink:title="R25">
<polygon fill="cornsilk" stroke="none" points="682,-95.41 606,-95.41 606,-48.41 682,-48.41 682,-95.41"/>
<text text-anchor="middle" x="644" y="-63.41" font-family="Times New Roman,serif" font-size="35.00">R25</text>
</a>
</g>
</g>
<!-- R258 -->
<g id="node4" class="node">
<title>R258</title>
<g id="a_node4"><a xlink:href="258.svg" xlink:title="R258">
<polygon fill="cornsilk" stroke="none" points="1297,-95.41 1203,-95.41 1203,-48.41 1297,-48.41 1297,-95.41"/>
<text text-anchor="middle" x="1250" y="-63.41" font-family="Times New Roman,serif" font-size="35.00">R258</text>
</a>
</g>
</g>
<!-- R25&#45;&gt;R258 -->
<g id="edge3" class="edge">
<title>R25&#45;&gt;R258</title>
<path fill="none" stroke="black" d="M681.94,-76.5C687.96,-77.09 694.15,-77.6 700,-77.91 915.7,-89.65 972.94,-89.83 1192.21,-77.89"/>
<polygon fill="black" stroke="black" points="1192.32,-81.34 1202.11,-77.3 1191.94,-74.35 1192.32,-81.34"/>
<text text-anchor="middle" x="947" y="-94.91" font-family="Times New Roman,serif" font-size="30.00"> &#160;&#160;429 &#160;&#160;0% &#160;&#160;0.00272 mol/s &#160;&#160;&#160;1.00E+00</text>
</g>
<!-- R25&#45;&gt;R258 -->
<g id="edge4" class="edge">
<title>R25&#45;&gt;R258</title>
<path fill="none" stroke="black" stroke-width="5" d="M680.56,-48.46C686.81,-45.35 693.43,-42.64 700,-40.91 906.14,13.18 977.45,14.77 1193.48,-43.06"/>
<polygon fill="black" stroke="black" stroke-width="5" points="1185.85,-50.69 1207.44,-47.46 1190.42,-33.79 1185.85,-50.69"/>
<text text-anchor="middle" x="947" y="-49.91" font-family="Times New Roman,serif" font-size="30.00"> &#160;&#160;734 &#160;&#160;99% &#160;&#160;951000.0 mol/s &#160;&#160;&#160;2.86E&#45;09</text>
</g>
<!-- R12 -->
<g id="node2" class="node">
<title>R12</title>
<g id="a_node2"><a xlink:href="12.svg" xlink:title="R12">
<polygon fill="cornsilk" stroke="none" points="76,-128.41 0,-128.41 0,-81.41 76,-81.41 76,-128.41"/>
<text text-anchor="middle" x="38" y="-96.41" font-family="Times New Roman,serif" font-size="35.00">R12</text>
</a>
</g>
</g>
<!-- R12&#45;&gt;R25 -->
<g id="edge1" class="edge">
<title>R12&#45;&gt;R25</title>
<path fill="none" stroke="black" stroke-width="6" d="M75.68,-104.85C162.39,-104.38 386.71,-101.33 573,-82.91 577.04,-82.52 581.2,-82.04 585.39,-81.5"/>
<polygon fill="black" stroke="black" stroke-width="6" points="581.75,-91.77 600.05,-78.53 578.76,-70.99 581.75,-91.77"/>
<text text-anchor="middle" x="341" y="-112.91" font-family="Times New Roman,serif" font-size="30.00"> &#160;&#160;30 &#160;&#160;100% &#160;&#160;0.0341 mol/s &#160;&#160;&#160;9.98E&#45;01</text>
</g>
<!-- R1 -->
<g id="node3" class="node">
<title>R1</title>
<g id="a_node3"><a xlink:href="1.svg" xlink:title="R1">
<polygon fill="cornsilk" stroke="none" points="67,-63.41 9,-63.41 9,-16.41 67,-16.41 67,-63.41"/>
<text text-anchor="middle" x="38" y="-31.41" font-family="Times New Roman,serif" font-size="35.00">R1</text>
</a>
</g>
</g>
<!-- R1&#45;&gt;R25 -->
<g id="edge2" class="edge">
<title>R1&#45;&gt;R25</title>
<path fill="none" stroke="black" stroke-width="6" d="M66.76,-37.67C146.29,-31.83 381.5,-18.69 573,-49.91 577.27,-50.61 581.64,-51.51 586.01,-52.55"/>
<polygon fill="black" stroke="black" stroke-width="6" points="577.97,-61.88 600.06,-57.14 583.62,-41.65 577.97,-61.88"/>
<text text-anchor="middle" x="341" y="-58.91" font-family="Times New Roman,serif" font-size="30.00"> &#160;&#160;30 &#160;&#160;100% &#160;&#160;0.0341 mol/s &#160;&#160;&#160;9.98E&#45;01</text>
</g>
</g>
</svg>
