<?xml version="1.0" encoding="UTF-8" standalone="no"?>
<!DOCTYPE svg PUBLIC "-//W3C//DTD SVG 1.1//EN"
 "http://www.w3.org/Graphics/SVG/1.1/DTD/svg11.dtd">
<!-- Generated by graphviz version 8.0.3 (20230416.2022)
 -->
<!-- Title: G Pages: 1 -->
<svg width="640pt" height="171pt"
 viewBox="0.00 0.00 720.00 192.80" xmlns="http://www.w3.org/2000/svg" xmlns:xlink="http://www.w3.org/1999/xlink">
<g id="graph0" class="graph" transform="scale(0.487062 0.487062) rotate(0) translate(4 347.87)">
<title>G</title>
<polygon fill="white" stroke="none" points="-4,4 -4,-347.87 1310,-347.87 1310,4 -4,4"/>
<text text-anchor="middle" x="653" y="-311.07" font-family="Arial" font-size="36.00" fill="blue">Reaction Path Analysis</text>
<!-- R251 -->
<g id="node1" class="node">
<title>R251</title>
<g id="a_node1"><a xlink:href="251.svg" xlink:title="R251">
<polygon fill="cornsilk" stroke="none" points="700,-168.37 606,-168.37 606,-121.37 700,-121.37 700,-168.37"/>
<text text-anchor="middle" x="653" y="-136.37" font-family="Times New Roman,serif" font-size="35.00">R251</text>
</a>
</g>
</g>
<!-- R287 -->
<g id="node4" class="node">
<title>R287</title>
<g id="a_node4"><a xlink:href="287.svg" xlink:title="R287">
<polygon fill="cornsilk" stroke="none" points="1306,-233.37 1212,-233.37 1212,-186.37 1306,-186.37 1306,-233.37"/>
<text text-anchor="middle" x="1259" y="-201.37" font-family="Times New Roman,serif" font-size="35.00">R287</text>
</a>
</g>
</g>
<!-- R251&#45;&gt;R287 -->
<g id="edge3" class="edge">
<title>R251&#45;&gt;R287</title>
<path fill="none" stroke="black" stroke-width="3" d="M682.41,-168.2C690.54,-173.66 699.72,-178.78 709,-181.87 880.88,-239.13 1099.73,-226.87 1201.38,-216.7"/>
<polygon fill="black" stroke="black" stroke-width="3" points="1198.43,-220.11 1208.02,-215.6 1197.71,-213.15 1198.43,-220.11"/>
<text text-anchor="middle" x="956" y="-233.87" font-family="Times New Roman,serif" font-size="30.00"> &#160;&#160;529 &#160;&#160;49% &#160;&#160;4.67e&#45;08 mol/s &#160;&#160;&#160;1.00E+00</text>
</g>
<!-- R288 -->
<g id="node5" class="node">
<title>R288</title>
<g id="a_node5"><a xlink:href="288.svg" xlink:title="R288">
<polygon fill="cornsilk" stroke="none" points="1306,-168.37 1212,-168.37 1212,-121.37 1306,-121.37 1306,-168.37"/>
<text text-anchor="middle" x="1259" y="-136.37" font-family="Times New Roman,serif" font-size="35.00">R288</text>
</a>
</g>
</g>
<!-- R251&#45;&gt;R288 -->
<g id="edge4" class="edge">
<title>R251&#45;&gt;R288</title>
<path fill="none" stroke="black" stroke-width="3" d="M699.89,-144.87C808.81,-144.87 1082.67,-144.87 1201.51,-144.87"/>
<polygon fill="black" stroke="black" stroke-width="3" points="1198.18,-148.37 1208.18,-144.87 1198.18,-141.37 1198.18,-148.37"/>
<text text-anchor="middle" x="956" y="-153.87" font-family="Times New Roman,serif" font-size="30.00"> &#160;&#160;530 &#160;&#160;49% &#160;&#160;4.67e&#45;08 mol/s &#160;&#160;&#160;1.00E+00</text>
</g>
<!-- R108 -->
<g id="node7" class="node">
<title>R108</title>
<g id="a_node7"><a xlink:href="108.svg" xlink:title="R108">
<polygon fill="cornsilk" stroke="none" points="1306,-103.37 1212,-103.37 1212,-56.37 1306,-56.37 1306,-103.37"/>
<text text-anchor="middle" x="1259" y="-71.37" font-family="Times New Roman,serif" font-size="35.00">R108</text>
</a>
</g>
</g>
<!-- R251&#45;&gt;R108 -->
<g id="edge7" class="edge">
<title>R251&#45;&gt;R108</title>
<path fill="none" stroke="black" d="M682.41,-121.54C690.54,-116.08 699.72,-110.96 709,-107.87 880.88,-50.61 1099.73,-62.87 1201.38,-73.04"/>
<polygon fill="black" stroke="black" points="1200.71,-76.59 1211.02,-74.14 1201.43,-69.63 1200.71,-76.59"/>
<text text-anchor="middle" x="956" y="-116.87" font-family="Times New Roman,serif" font-size="30.00"> &#160;&#160;725 &#160;&#160;0% &#160;&#160;1.01e&#45;11 mol/s &#160;&#160;&#160;1.00E+00</text>
</g>
<!-- R29 -->
<g id="node2" class="node">
<title>R29</title>
<g id="a_node2"><a xlink:href="29.svg" xlink:title="R29">
<polygon fill="cornsilk" stroke="none" points="85,-261.37 9,-261.37 9,-214.37 85,-214.37 85,-261.37"/>
<text text-anchor="middle" x="47" y="-229.37" font-family="Times New Roman,serif" font-size="35.00">R29</text>
</a>
</g>
</g>
<!-- R29&#45;&gt;R251 -->
<g id="edge1" class="edge">
<title>R29&#45;&gt;R251</title>
<path fill="none" stroke="black" d="M84.7,-244.83C175.94,-260.31 418.33,-290.05 593.5,-207.87 608.07,-201.03 620.75,-188.78 630.54,-176.88"/>
<polygon fill="black" stroke="black" points="633.78,-179.41 637.14,-169.37 628.25,-175.12 633.78,-179.41"/>
<text text-anchor="middle" x="350" y="-271.87" font-family="Times New Roman,serif" font-size="30.00"> &#160;&#160;340 &#160;&#160;0% &#160;&#160;4.67e&#45;08 mol/s &#160;&#160;&#160;1.00E+00</text>
</g>
<!-- R13 -->
<g id="node3" class="node">
<title>R13</title>
<g id="a_node3"><a xlink:href="13.svg" xlink:title="R13">
<polygon fill="cornsilk" stroke="none" points="85,-196.37 9,-196.37 9,-149.37 85,-149.37 85,-196.37"/>
<text text-anchor="middle" x="47" y="-164.37" font-family="Times New Roman,serif" font-size="35.00">R13</text>
</a>
</g>
</g>
<!-- R13&#45;&gt;R251 -->
<g id="edge2" class="edge">
<title>R13&#45;&gt;R251</title>
<path fill="none" stroke="black" d="M84.76,-172.17C172.73,-170.33 402.29,-164.52 593.5,-150.87 594.14,-150.82 594.78,-150.78 595.42,-150.73"/>
<polygon fill="black" stroke="black" points="595.36,-154.16 605.04,-149.85 594.78,-147.19 595.36,-154.16"/>
<text text-anchor="middle" x="350" y="-179.87" font-family="Times New Roman,serif" font-size="30.00"> &#160;&#160;340 &#160;&#160;0% &#160;&#160;4.67e&#45;08 mol/s &#160;&#160;&#160;1.00E+00</text>
</g>
<!-- R138 -->
<g id="node6" class="node">
<title>R138</title>
<g id="a_node6"><a xlink:href="138.svg" xlink:title="R138">
<polygon fill="cornsilk" stroke="none" points="94,-108.37 0,-108.37 0,-61.37 94,-61.37 94,-108.37"/>
<text text-anchor="middle" x="47" y="-76.37" font-family="Times New Roman,serif" font-size="35.00">R138</text>
</a>
</g>
</g>
<!-- R138&#45;&gt;R251 -->
<g id="edge5" class="edge">
<title>R138&#45;&gt;R251</title>
<path fill="none" stroke="black" d="M93.91,-93.3C98.15,-93.9 102.4,-94.44 106.5,-94.87 214.22,-106.13 488.92,-85.7 593.5,-113.87 596.89,-114.78 600.29,-115.92 603.67,-117.21"/>
<polygon fill="black" stroke="black" points="602.1,-120.77 612.67,-121.49 604.85,-114.33 602.1,-120.77"/>
<text text-anchor="middle" x="350" y="-122.87" font-family="Times New Roman,serif" font-size="30.00"> &#160;&#160;664 &#160;&#160;0% &#160;&#160;1.01e&#45;11 mol/s &#160;&#160;&#160;1.00E+00</text>
</g>
<!-- R138&#45;&gt;R251 -->
<g id="edge6" class="edge">
<title>R138&#45;&gt;R251</title>
<path fill="none" stroke="black" stroke-width="5" d="M93.98,-61.46C98.14,-60.02 102.35,-58.78 106.5,-57.87 317.91,-11.44 402.46,43.88 593.5,-57.87 611.61,-67.52 625.11,-85.54 634.56,-102.69"/>
<polygon fill="black" stroke="black" stroke-width="5" points="625.08,-102.33 641.67,-116.53 640.84,-94.71 625.08,-102.33"/>
<text text-anchor="middle" x="350" y="-66.87" font-family="Times New Roman,serif" font-size="30.00"> &#160;&#160;724 &#160;&#160;99% &#160;&#160;1.53e&#45;05 mol/s &#160;&#160;&#160;6.59E&#45;07</text>
</g>
</g>
</svg>
