<?xml version="1.0" encoding="UTF-8" standalone="no"?>
<!DOCTYPE svg PUBLIC "-//W3C//DTD SVG 1.1//EN"
 "http://www.w3.org/Graphics/SVG/1.1/DTD/svg11.dtd">
<!-- Generated by graphviz version 8.0.3 (20230416.2022)
 -->
<!-- Title: G Pages: 1 -->
<svg width="640pt" height="197pt"
 viewBox="0.00 0.00 720.00 221.33" xmlns="http://www.w3.org/2000/svg" xmlns:xlink="http://www.w3.org/1999/xlink">
<g id="graph0" class="graph" transform="scale(0.479401 0.479401) rotate(0) translate(4 406.38)">
<title>G</title>
<polygon fill="white" stroke="none" points="-4,4 -4,-406.38 1331,-406.38 1331,4 -4,4"/>
<text text-anchor="middle" x="663.5" y="-369.58" font-family="Arial" font-size="36.00" fill="blue">Reaction Path Analysis</text>
<!-- R253 -->
<g id="node1" class="node">
<title>R253</title>
<g id="a_node1"><a xlink:href="253.svg" xlink:title="R253">
<polygon fill="cornsilk" stroke="none" points="706,-198.88 612,-198.88 612,-151.88 706,-151.88 706,-198.88"/>
<text text-anchor="middle" x="659" y="-166.88" font-family="Times New Roman,serif" font-size="35.00">R253</text>
</a>
</g>
</g>
<!-- R65 -->
<g id="node4" class="node">
<title>R65</title>
<g id="a_node4"><a xlink:href="65.svg" xlink:title="R65">
<polygon fill="cornsilk" stroke="none" points="1318,-316.88 1242,-316.88 1242,-269.88 1318,-269.88 1318,-316.88"/>
<text text-anchor="middle" x="1280" y="-284.88" font-family="Times New Roman,serif" font-size="35.00">R65</text>
</a>
</g>
</g>
<!-- R253&#45;&gt;R65 -->
<g id="edge3" class="edge">
<title>R253&#45;&gt;R65</title>
<path fill="none" stroke="black" d="M664.74,-198.51C671.87,-226.61 688.34,-272.81 722.5,-293.38 807.3,-344.42 1112.83,-313.76 1231.45,-299.48"/>
<polygon fill="black" stroke="black" points="1231.83,-302.84 1241.33,-298.15 1230.98,-295.89 1231.83,-302.84"/>
<text text-anchor="middle" x="969.5" y="-330.38" font-family="Times New Roman,serif" font-size="30.00"> &#160;&#160;450 &#160;&#160;0% &#160;&#160;6.9e&#45;11 mol/s &#160;&#160;&#160;1.13E&#45;01</text>
</g>
<!-- R253&#45;&gt;R65 -->
<g id="edge8" class="edge">
<title>R253&#45;&gt;R65</title>
<path fill="none" stroke="black" d="M676.26,-198.64C687.47,-212.61 703.72,-229.21 722.5,-237.38 823.26,-281.16 1111.12,-225.33 1216.5,-256.38 1223.41,-258.41 1230.34,-261.38 1236.95,-264.76"/>
<polygon fill="black" stroke="black" points="1234.91,-268.19 1245.36,-269.96 1238.3,-262.06 1234.91,-268.19"/>
<text text-anchor="middle" x="969.5" y="-265.38" font-family="Times New Roman,serif" font-size="30.00"> &#160;&#160;727 &#160;&#160;0% &#160;&#160;8.8e&#45;12 mol/s &#160;&#160;&#160;8.87E&#45;01</text>
</g>
<!-- R290 -->
<g id="node5" class="node">
<title>R290</title>
<g id="a_node5"><a xlink:href="290.svg" xlink:title="R290">
<polygon fill="cornsilk" stroke="none" points="1327,-230.88 1233,-230.88 1233,-183.88 1327,-183.88 1327,-230.88"/>
<text text-anchor="middle" x="1280" y="-198.88" font-family="Times New Roman,serif" font-size="35.00">R290</text>
</a>
</g>
</g>
<!-- R253&#45;&gt;R290 -->
<g id="edge4" class="edge">
<title>R253&#45;&gt;R290</title>
<path fill="none" stroke="black" stroke-width="3" d="M705.72,-180.03C711.37,-180.52 717.06,-180.99 722.5,-181.38 941.74,-196.99 996.95,-194 1216.5,-204.38 1218.45,-204.47 1220.43,-204.56 1222.44,-204.66"/>
<polygon fill="black" stroke="black" stroke-width="3" points="1219.11,-208.19 1229.26,-205.17 1219.44,-201.2 1219.11,-208.19"/>
<text text-anchor="middle" x="969.5" y="-213.38" font-family="Times New Roman,serif" font-size="30.00"> &#160;&#160;531 &#160;&#160;45% &#160;&#160;4.67e&#45;08 mol/s &#160;&#160;&#160;1.00E+00</text>
</g>
<!-- R291 -->
<g id="node6" class="node">
<title>R291</title>
<g id="a_node6"><a xlink:href="291.svg" xlink:title="R291">
<polygon fill="cornsilk" stroke="none" points="1327,-165.88 1233,-165.88 1233,-118.88 1327,-118.88 1327,-165.88"/>
<text text-anchor="middle" x="1280" y="-133.88" font-family="Times New Roman,serif" font-size="35.00">R291</text>
</a>
</g>
</g>
<!-- R253&#45;&gt;R291 -->
<g id="edge5" class="edge">
<title>R253&#45;&gt;R291</title>
<path fill="none" stroke="black" stroke-width="3" d="M700.69,-151.93C707.76,-148.81 715.19,-146.1 722.5,-144.38 815.96,-122.29 1099.85,-133.3 1222.05,-139.32"/>
<polygon fill="black" stroke="black" stroke-width="3" points="1218.85,-142.87 1229.02,-139.87 1219.2,-135.88 1218.85,-142.87"/>
<text text-anchor="middle" x="969.5" y="-153.38" font-family="Times New Roman,serif" font-size="30.00"> &#160;&#160;532 &#160;&#160;45% &#160;&#160;4.67e&#45;08 mol/s &#160;&#160;&#160;1.00E+00</text>
</g>
<!-- R112 -->
<g id="node7" class="node">
<title>R112</title>
<g id="a_node7"><a xlink:href="112.svg" xlink:title="R112">
<polygon fill="cornsilk" stroke="none" points="1327,-81.88 1233,-81.88 1233,-34.88 1327,-34.88 1327,-81.88"/>
<text text-anchor="middle" x="1280" y="-49.88" font-family="Times New Roman,serif" font-size="35.00">R112</text>
</a>
</g>
</g>
<!-- R253&#45;&gt;R112 -->
<g id="edge6" class="edge">
<title>R253&#45;&gt;R112</title>
<path fill="none" stroke="black" d="M670.92,-151.95C681.26,-132.76 698.74,-106.81 722.5,-94.38 771.2,-68.9 1161.89,-75.54 1216.5,-69.38 1218.43,-69.16 1220.39,-68.92 1222.36,-68.66"/>
<polygon fill="black" stroke="black" points="1222.61,-72.02 1232.02,-67.13 1221.62,-65.09 1222.61,-72.02"/>
<text text-anchor="middle" x="969.5" y="-103.38" font-family="Times New Roman,serif" font-size="30.00"> &#160;&#160;643 &#160;&#160;7% &#160;&#160;8.08e&#45;09 mol/s &#160;&#160;&#160;1.25E&#45;03</text>
</g>
<!-- R253&#45;&gt;R112 -->
<g id="edge7" class="edge">
<title>R253&#45;&gt;R112</title>
<path fill="none" stroke="black" d="M662.46,-152.11C667.37,-118.93 681.69,-59.08 722.5,-32.38 814.36,27.73 1108.85,-10.88 1216.5,-32.38 1218.57,-32.79 1220.67,-33.27 1222.76,-33.82"/>
<polygon fill="black" stroke="black" points="1221.64,-37.44 1232.22,-36.96 1223.65,-30.73 1221.64,-37.44"/>
<text text-anchor="middle" x="969.5" y="-41.38" font-family="Times New Roman,serif" font-size="30.00"> &#160;&#160;726 &#160;&#160;0% &#160;&#160;1.01e&#45;11 mol/s &#160;&#160;&#160;9.99E&#45;01</text>
</g>
<!-- R30 -->
<g id="node2" class="node">
<title>R30</title>
<g id="a_node2"><a xlink:href="30.svg" xlink:title="R30">
<polygon fill="cornsilk" stroke="none" points="76,-231.88 0,-231.88 0,-184.88 76,-184.88 76,-231.88"/>
<text text-anchor="middle" x="38" y="-199.88" font-family="Times New Roman,serif" font-size="35.00">R30</text>
</a>
</g>
</g>
<!-- R30&#45;&gt;R253 -->
<g id="edge1" class="edge">
<title>R30&#45;&gt;R253</title>
<path fill="none" stroke="black" stroke-width="6" d="M75.78,-208.95C162.98,-209.89 389.5,-209.86 591.46,-187.49"/>
<polygon fill="black" stroke="black" stroke-width="6" points="587.5,-197.83 606.17,-185.11 585.1,-176.96 587.5,-197.83"/>
<text text-anchor="middle" x="348.5" y="-217.38" font-family="Times New Roman,serif" font-size="30.00"> &#160;&#160;342 &#160;&#160;100% &#160;&#160;4.67e&#45;08 mol/s &#160;&#160;&#160;1.00E+00</text>
</g>
<!-- R13 -->
<g id="node3" class="node">
<title>R13</title>
<g id="a_node3"><a xlink:href="13.svg" xlink:title="R13">
<polygon fill="cornsilk" stroke="none" points="76,-166.88 0,-166.88 0,-119.88 76,-119.88 76,-166.88"/>
<text text-anchor="middle" x="38" y="-134.88" font-family="Times New Roman,serif" font-size="35.00">R13</text>
</a>
</g>
</g>
<!-- R13&#45;&gt;R253 -->
<g id="edge2" class="edge">
<title>R13&#45;&gt;R253</title>
<path fill="none" stroke="black" stroke-width="6" d="M75.78,-139.49C163.47,-131.17 391.8,-115.07 591.67,-151.68"/>
<polygon fill="black" stroke="black" stroke-width="6" points="584.53,-161.15 606.16,-154.64 588.52,-140.53 584.53,-161.15"/>
<text text-anchor="middle" x="348.5" y="-162.38" font-family="Times New Roman,serif" font-size="30.00"> &#160;&#160;342 &#160;&#160;100% &#160;&#160;4.67e&#45;08 mol/s &#160;&#160;&#160;1.00E+00</text>
</g>
</g>
</svg>
