<?xml version="1.0" encoding="UTF-8" standalone="no"?>
<!DOCTYPE svg PUBLIC "-//W3C//DTD SVG 1.1//EN"
 "http://www.w3.org/Graphics/SVG/1.1/DTD/svg11.dtd">
<!-- Generated by graphviz version 8.0.3 (20230416.2022)
 -->
<!-- Title: G Pages: 1 -->
<svg width="640pt" height="202pt"
 viewBox="0.00 0.00 720.00 226.83" xmlns="http://www.w3.org/2000/svg" xmlns:xlink="http://www.w3.org/1999/xlink">
<g id="graph0" class="graph" transform="scale(0.501961 0.501961) rotate(0) translate(4 397.68)">
<title>G</title>
<polygon fill="white" stroke="none" points="-4,4 -4,-397.68 1271,-397.68 1271,4 -4,4"/>
<text text-anchor="middle" x="633.5" y="-360.88" font-family="Arial" font-size="36.00" fill="blue">Reaction Path Analysis</text>
<!-- R255 -->
<g id="node1" class="node">
<title>R255</title>
<g id="a_node1"><a xlink:href="255.svg" xlink:title="R255">
<polygon fill="cornsilk" stroke="none" points="676,-197.18 582,-197.18 582,-150.18 676,-150.18 676,-197.18"/>
<text text-anchor="middle" x="629" y="-165.18" font-family="Times New Roman,serif" font-size="35.00">R255</text>
</a>
</g>
</g>
<!-- R24 -->
<g id="node4" class="node">
<title>R24</title>
<g id="a_node4"><a xlink:href="24.svg" xlink:title="R24">
<polygon fill="cornsilk" stroke="none" points="1258,-286.18 1182,-286.18 1182,-239.18 1258,-239.18 1258,-286.18"/>
<text text-anchor="middle" x="1220" y="-254.18" font-family="Times New Roman,serif" font-size="35.00">R24</text>
</a>
</g>
</g>
<!-- R255&#45;&gt;R24 -->
<g id="edge3" class="edge">
<title>R255&#45;&gt;R24</title>
<path fill="none" stroke="black" stroke-width="3" d="M637.78,-196.97C646.4,-218.64 662.62,-249.63 688.5,-263.68 847.28,-349.85 1074.18,-303.38 1171.6,-276.95"/>
<polygon fill="black" stroke="black" stroke-width="3" points="1169.3,-281.11 1178,-275.07 1167.43,-274.36 1169.3,-281.11"/>
<text text-anchor="middle" x="924.5" y="-321.68" font-family="Times New Roman,serif" font-size="30.00"> &#160;&#160;428 &#160;&#160;55% &#160;&#160;0.0885 mol/s &#160;&#160;&#160;2.89E&#45;02</text>
</g>
<!-- R255&#45;&gt;R24 -->
<g id="edge6" class="edge">
<title>R255&#45;&gt;R24</title>
<path fill="none" stroke="black" d="M664.01,-197.11C671.74,-201.38 680.15,-205.25 688.5,-207.68 789.29,-237.03 1060.09,-196.06 1160.5,-226.68 1166.49,-228.51 1172.49,-231.1 1178.23,-234.07"/>
<polygon fill="black" stroke="black" points="1176.19,-237.5 1186.62,-239.35 1179.62,-231.39 1176.19,-237.5"/>
<text text-anchor="middle" x="924.5" y="-235.68" font-family="Times New Roman,serif" font-size="30.00"> &#160;&#160;730 &#160;&#160;1% &#160;&#160;0.00264 mol/s &#160;&#160;&#160;9.71E&#45;01</text>
</g>
<!-- R292 -->
<g id="node5" class="node">
<title>R292</title>
<g id="a_node5"><a xlink:href="292.svg" xlink:title="R292">
<polygon fill="cornsilk" stroke="none" points="1267,-202.18 1173,-202.18 1173,-155.18 1267,-155.18 1267,-202.18"/>
<text text-anchor="middle" x="1220" y="-170.18" font-family="Times New Roman,serif" font-size="35.00">R292</text>
</a>
</g>
</g>
<!-- R255&#45;&gt;R292 -->
<g id="edge4" class="edge">
<title>R255&#45;&gt;R292</title>
<path fill="none" stroke="black" stroke-width="2" d="M675.79,-172.74C767.71,-171.09 981.24,-168.39 1160.5,-174.68 1161.14,-174.7 1161.78,-174.72 1162.42,-174.75"/>
<polygon fill="black" stroke="black" stroke-width="2" points="1159.88,-178.27 1170.03,-175.25 1160.2,-171.28 1159.88,-178.27"/>
<text text-anchor="middle" x="924.5" y="-183.68" font-family="Times New Roman,serif" font-size="30.00"> &#160;&#160;533 &#160;&#160;21% &#160;&#160;0.0342 mol/s &#160;&#160;&#160;1.00E+00</text>
</g>
<!-- R293 -->
<g id="node6" class="node">
<title>R293</title>
<g id="a_node6"><a xlink:href="293.svg" xlink:title="R293">
<polygon fill="cornsilk" stroke="none" points="1267,-137.18 1173,-137.18 1173,-90.18 1267,-90.18 1267,-137.18"/>
<text text-anchor="middle" x="1220" y="-105.18" font-family="Times New Roman,serif" font-size="35.00">R293</text>
</a>
</g>
</g>
<!-- R255&#45;&gt;R293 -->
<g id="edge5" class="edge">
<title>R255&#45;&gt;R293</title>
<path fill="none" stroke="black" stroke-width="2" d="M657.44,-150.25C666.71,-143.66 677.52,-137.3 688.5,-133.68 853.64,-79.19 1063.52,-94.16 1162.49,-105.8"/>
<polygon fill="black" stroke="black" stroke-width="2" points="1159.8,-109.36 1170.15,-107.09 1160.64,-102.41 1159.8,-109.36"/>
<text text-anchor="middle" x="924.5" y="-142.68" font-family="Times New Roman,serif" font-size="30.00"> &#160;&#160;534 &#160;&#160;21% &#160;&#160;0.0342 mol/s &#160;&#160;&#160;1.00E+00</text>
</g>
<!-- R98 -->
<g id="node7" class="node">
<title>R98</title>
<g id="a_node7"><a xlink:href="98.svg" xlink:title="R98">
<polygon fill="cornsilk" stroke="none" points="1258,-72.18 1182,-72.18 1182,-25.18 1258,-25.18 1258,-72.18"/>
<text text-anchor="middle" x="1220" y="-40.18" font-family="Times New Roman,serif" font-size="35.00">R98</text>
</a>
</g>
</g>
<!-- R255&#45;&gt;R98 -->
<g id="edge7" class="edge">
<title>R255&#45;&gt;R98</title>
<path fill="none" stroke="black" d="M634.44,-150.31C641.02,-122.97 656.23,-78.89 688.5,-58.68 842.2,37.58 1073.24,-8.3 1171.77,-34.63"/>
<polygon fill="black" stroke="black" points="1170.71,-38.24 1181.28,-37.5 1172.55,-31.49 1170.71,-38.24"/>
<text text-anchor="middle" x="924.5" y="-67.68" font-family="Times New Roman,serif" font-size="30.00"> &#160;&#160;731 &#160;&#160;0% &#160;&#160;0.00134 mol/s &#160;&#160;&#160;6.63E&#45;01</text>
</g>
<!-- R41 -->
<g id="node2" class="node">
<title>R41</title>
<g id="a_node2"><a xlink:href="41.svg" xlink:title="R41">
<polygon fill="cornsilk" stroke="none" points="76,-230.18 0,-230.18 0,-183.18 76,-183.18 76,-230.18"/>
<text text-anchor="middle" x="38" y="-198.18" font-family="Times New Roman,serif" font-size="35.00">R41</text>
</a>
</g>
</g>
<!-- R41&#45;&gt;R255 -->
<g id="edge1" class="edge">
<title>R41&#45;&gt;R255</title>
<path fill="none" stroke="black" stroke-width="6" d="M75.74,-207.13C159.52,-207.76 371.51,-207.01 561.5,-185.8"/>
<polygon fill="black" stroke="black" stroke-width="6" points="557.51,-196.14 576.17,-183.4 555.09,-175.28 557.51,-196.14"/>
<text text-anchor="middle" x="333.5" y="-215.68" font-family="Times New Roman,serif" font-size="30.00"> &#160;&#160;346 &#160;&#160;100% &#160;&#160;0.0317 mol/s &#160;&#160;&#160;9.33E&#45;01</text>
</g>
<!-- R13 -->
<g id="node3" class="node">
<title>R13</title>
<g id="a_node3"><a xlink:href="13.svg" xlink:title="R13">
<polygon fill="cornsilk" stroke="none" points="76,-165.18 0,-165.18 0,-118.18 76,-118.18 76,-165.18"/>
<text text-anchor="middle" x="38" y="-133.18" font-family="Times New Roman,serif" font-size="35.00">R13</text>
</a>
</g>
</g>
<!-- R13&#45;&gt;R255 -->
<g id="edge2" class="edge">
<title>R13&#45;&gt;R255</title>
<path fill="none" stroke="black" stroke-width="6" d="M75.75,-137.87C160,-130.07 373.67,-115.6 561.71,-149.99"/>
<polygon fill="black" stroke="black" stroke-width="6" points="554.53,-159.45 576.16,-152.94 558.52,-138.84 554.53,-159.45"/>
<text text-anchor="middle" x="333.5" y="-160.68" font-family="Times New Roman,serif" font-size="30.00"> &#160;&#160;346 &#160;&#160;100% &#160;&#160;0.0317 mol/s &#160;&#160;&#160;9.33E&#45;01</text>
</g>
</g>
</svg>
