<?xml version="1.0" encoding="UTF-8" standalone="no"?>
<!DOCTYPE svg PUBLIC "-//W3C//DTD SVG 1.1//EN"
 "http://www.w3.org/Graphics/SVG/1.1/DTD/svg11.dtd">
<!-- Generated by graphviz version 8.0.3 (20230416.2022)
 -->
<!-- Title: G Pages: 1 -->
<svg width="629pt" height="345pt"
 viewBox="0.00 0.00 708.00 388.08" xmlns="http://www.w3.org/2000/svg" xmlns:xlink="http://www.w3.org/1999/xlink">
<g id="graph0" class="graph" transform="scale(0.888889 0.888889) rotate(0) translate(4 384.08)">
<title>G</title>
<polygon fill="white" stroke="none" points="-4,4 -4,-384.08 704,-384.08 704,4 -4,4"/>
<text text-anchor="middle" x="350" y="-347.28" font-family="Arial" font-size="36.00" fill="blue">Reaction Path Analysis</text>
<!-- R258 -->
<g id="node1" class="node">
<title>R258</title>
<g id="a_node1"><a xlink:href="258.svg" xlink:title="R258">
<polygon fill="cornsilk" stroke="none" points="700,-191.58 606,-191.58 606,-144.58 700,-144.58 700,-191.58"/>
<text text-anchor="middle" x="653" y="-159.58" font-family="Times New Roman,serif" font-size="35.00">R258</text>
</a>
</g>
</g>
<!-- R43 -->
<g id="node2" class="node">
<title>R43</title>
<g id="a_node2"><a xlink:href="43.svg" xlink:title="R43">
<polygon fill="cornsilk" stroke="none" points="85,-312.58 9,-312.58 9,-265.58 85,-265.58 85,-312.58"/>
<text text-anchor="middle" x="47" y="-280.58" font-family="Times New Roman,serif" font-size="35.00">R43</text>
</a>
</g>
</g>
<!-- R43&#45;&gt;R258 -->
<g id="edge1" class="edge">
<title>R43&#45;&gt;R258</title>
<path fill="none" stroke="black" d="M84.96,-291.8C193.81,-299.14 511,-315.41 597,-263.08 619.39,-249.45 633.59,-223.06 641.95,-201.54"/>
<polygon fill="black" stroke="black" points="645.49,-203.04 645.59,-192.45 638.9,-200.67 645.49,-203.04"/>
<text text-anchor="middle" x="350" y="-308.08" font-family="Times New Roman,serif" font-size="30.00"> &#160;&#160;350 &#160;&#160;0% &#160;&#160;4.67e&#45;08 mol/s &#160;&#160;&#160;1.00E+00</text>
</g>
<!-- R13 -->
<g id="node3" class="node">
<title>R13</title>
<g id="a_node3"><a xlink:href="13.svg" xlink:title="R13">
<polygon fill="cornsilk" stroke="none" points="85,-247.58 9,-247.58 9,-200.58 85,-200.58 85,-247.58"/>
<text text-anchor="middle" x="47" y="-215.58" font-family="Times New Roman,serif" font-size="35.00">R13</text>
</a>
</g>
</g>
<!-- R13&#45;&gt;R258 -->
<g id="edge2" class="edge">
<title>R13&#45;&gt;R258</title>
<path fill="none" stroke="black" d="M84.76,-225.02C191.68,-227.39 500.99,-231.44 597,-202.08 601.59,-200.67 606.19,-198.79 610.65,-196.62"/>
<polygon fill="black" stroke="black" points="612.02,-199.32 619.18,-191.51 608.71,-193.15 612.02,-199.32"/>
<text text-anchor="middle" x="350" y="-235.08" font-family="Times New Roman,serif" font-size="30.00"> &#160;&#160;350 &#160;&#160;0% &#160;&#160;4.67e&#45;08 mol/s &#160;&#160;&#160;1.00E+00</text>
</g>
<!-- R25 -->
<g id="node4" class="node">
<title>R25</title>
<g id="a_node4"><a xlink:href="25.svg" xlink:title="R25">
<polygon fill="cornsilk" stroke="none" points="85,-163.58 9,-163.58 9,-116.58 85,-116.58 85,-163.58"/>
<text text-anchor="middle" x="47" y="-131.58" font-family="Times New Roman,serif" font-size="35.00">R25</text>
</a>
</g>
</g>
<!-- R25&#45;&gt;R258 -->
<g id="edge3" class="edge">
<title>R25&#45;&gt;R258</title>
<path fill="none" stroke="black" d="M84.95,-144.46C90.98,-145.07 97.16,-145.64 103,-146.08 282.48,-159.45 495.61,-165.06 595.3,-167.08"/>
<polygon fill="black" stroke="black" points="594.96,-170.6 605.03,-167.3 595.1,-163.6 594.96,-170.6"/>
<text text-anchor="middle" x="350" y="-176.08" font-family="Times New Roman,serif" font-size="30.00"> &#160;&#160;429 &#160;&#160;0% &#160;&#160;1.01e&#45;11 mol/s &#160;&#160;&#160;1.00E+00</text>
</g>
<!-- R25&#45;&gt;R258 -->
<g id="edge4" class="edge">
<title>R25&#45;&gt;R258</title>
<path fill="none" stroke="black" stroke-width="5" d="M83.56,-116.62C89.81,-113.51 96.43,-110.8 103,-109.08 156.09,-95.14 546.67,-87.18 597,-109.08 607.25,-113.53 616.46,-120.95 624.27,-129.04"/>
<polygon fill="black" stroke="black" stroke-width="5" points="613.95,-131.12 633.5,-140.84 627.37,-119.89 613.95,-131.12"/>
<text text-anchor="middle" x="350" y="-118.08" font-family="Times New Roman,serif" font-size="30.00"> &#160;&#160;734 &#160;&#160;99% &#160;&#160;0.000358 mol/s &#160;&#160;&#160;2.82E&#45;08</text>
</g>
<!-- R145 -->
<g id="node5" class="node">
<title>R145</title>
<g id="a_node5"><a xlink:href="145.svg" xlink:title="R145">
<polygon fill="cornsilk" stroke="none" points="94,-79.58 0,-79.58 0,-32.58 94,-32.58 94,-79.58"/>
<text text-anchor="middle" x="47" y="-47.58" font-family="Times New Roman,serif" font-size="35.00">R145</text>
</a>
</g>
</g>
<!-- R145&#45;&gt;R258 -->
<g id="edge5" class="edge">
<title>R145&#45;&gt;R258</title>
<path fill="none" stroke="black" d="M93.94,-41.34C194.1,-12.19 436.04,41.81 597,-58.08 623.67,-74.62 637.85,-108.44 645.08,-134.23"/>
<polygon fill="black" stroke="black" points="641.9,-134.91 647.78,-143.72 648.68,-133.17 641.9,-134.91"/>
<text text-anchor="middle" x="350" y="-67.08" font-family="Times New Roman,serif" font-size="30.00"> &#160;&#160;735 &#160;&#160;0% &#160;&#160;7.39e&#45;09 mol/s &#160;&#160;&#160;1.36E&#45;03</text>
</g>
</g>
</svg>
