<?xml version="1.0" encoding="UTF-8" standalone="no"?>
<!DOCTYPE svg PUBLIC "-//W3C//DTD SVG 1.1//EN"
 "http://www.w3.org/Graphics/SVG/1.1/DTD/svg11.dtd">
<!-- Generated by graphviz version 8.0.3 (20230416.2022)
 -->
<!-- Title: G Pages: 1 -->
<svg width="640pt" height="122pt"
 viewBox="0.00 0.00 720.00 136.71" xmlns="http://www.w3.org/2000/svg" xmlns:xlink="http://www.w3.org/1999/xlink">
<g id="graph0" class="graph" transform="scale(0.487062 0.487062) rotate(0) translate(4 245.5)">
<title>G</title>
<polygon fill="white" stroke="none" points="-4,4 -4,-245.5 1310,-245.5 1310,4 -4,4"/>
<text text-anchor="middle" x="653" y="-208.7" font-family="Arial" font-size="36.00" fill="blue">Reaction Path Analysis</text>
<!-- R259 -->
<g id="node1" class="node">
<title>R259</title>
<g id="a_node1"><a xlink:href="259.svg" xlink:title="R259">
<polygon fill="cornsilk" stroke="none" points="700,-112 606,-112 606,-65 700,-65 700,-112"/>
<text text-anchor="middle" x="653" y="-80" font-family="Times New Roman,serif" font-size="35.00">R259</text>
</a>
</g>
</g>
<!-- R302 -->
<g id="node5" class="node">
<title>R302</title>
<g id="a_node5"><a xlink:href="302.svg" xlink:title="R302">
<polygon fill="cornsilk" stroke="none" points="1306,-112 1212,-112 1212,-65 1306,-65 1306,-112"/>
<text text-anchor="middle" x="1259" y="-80" font-family="Times New Roman,serif" font-size="35.00">R302</text>
</a>
</g>
</g>
<!-- R259&#45;&gt;R302 -->
<g id="edge4" class="edge">
<title>R259&#45;&gt;R302</title>
<path fill="none" stroke="black" stroke-width="6" d="M699.89,-88.5C805.85,-88.5 1067.9,-88.5 1191.48,-88.5"/>
<polygon fill="black" stroke="black" stroke-width="6" points="1186.18,-99 1206.18,-88.5 1186.18,-78 1186.18,-99"/>
<text text-anchor="middle" x="956" y="-97.5" font-family="Times New Roman,serif" font-size="30.00"> &#160;&#160;737 &#160;&#160;100% &#160;&#160;0.00256 mol/s &#160;&#160;&#160;9.45E&#45;01</text>
</g>
<!-- R44 -->
<g id="node2" class="node">
<title>R44</title>
<g id="a_node2"><a xlink:href="44.svg" xlink:title="R44">
<polygon fill="cornsilk" stroke="none" points="85,-177 9,-177 9,-130 85,-130 85,-177"/>
<text text-anchor="middle" x="47" y="-145" font-family="Times New Roman,serif" font-size="35.00">R44</text>
</a>
</g>
</g>
<!-- R44&#45;&gt;R259 -->
<g id="edge1" class="edge">
<title>R44&#45;&gt;R259</title>
<path fill="none" stroke="black" d="M84.8,-156.4C171.65,-162.2 395.54,-171.06 574.5,-125.5 583.22,-123.28 592.14,-120.05 600.68,-116.41"/>
<polygon fill="black" stroke="black" points="601.82,-119.28 609.49,-111.98 598.94,-112.9 601.82,-119.28"/>
<text text-anchor="middle" x="350" y="-169.5" font-family="Times New Roman,serif" font-size="30.00"> &#160;&#160;351 &#160;&#160;1% &#160;&#160;0.0247 mol/s &#160;&#160;&#160;7.83E&#45;01</text>
</g>
<!-- R13 -->
<g id="node3" class="node">
<title>R13</title>
<g id="a_node3"><a xlink:href="13.svg" xlink:title="R13">
<polygon fill="cornsilk" stroke="none" points="85,-112 9,-112 9,-65 85,-65 85,-112"/>
<text text-anchor="middle" x="47" y="-80" font-family="Times New Roman,serif" font-size="35.00">R13</text>
</a>
</g>
</g>
<!-- R13&#45;&gt;R259 -->
<g id="edge2" class="edge">
<title>R13&#45;&gt;R259</title>
<path fill="none" stroke="black" d="M84.87,-88.5C186.83,-88.5 473.07,-88.5 595.4,-88.5"/>
<polygon fill="black" stroke="black" points="595.37,-92 605.37,-88.5 595.37,-85 595.37,-92"/>
<text text-anchor="middle" x="350" y="-97.5" font-family="Times New Roman,serif" font-size="30.00"> &#160;&#160;351 &#160;&#160;1% &#160;&#160;0.0247 mol/s &#160;&#160;&#160;7.83E&#45;01</text>
</g>
<!-- R355 -->
<g id="node4" class="node">
<title>R355</title>
<g id="a_node4"><a xlink:href="355.svg" xlink:title="R355">
<polygon fill="cornsilk" stroke="none" points="94,-47 0,-47 0,0 94,0 94,-47"/>
<text text-anchor="middle" x="47" y="-15" font-family="Times New Roman,serif" font-size="35.00">R355</text>
</a>
</g>
</g>
<!-- R355&#45;&gt;R259 -->
<g id="edge3" class="edge">
<title>R355&#45;&gt;R259</title>
<path fill="none" stroke="black" stroke-width="5" d="M93.97,-20.01C186.58,-14.27 401.52,-7.47 574.5,-51.5 580.09,-52.92 585.77,-54.76 591.37,-56.86"/>
<polygon fill="black" stroke="black" stroke-width="5" points="583.66,-63.22 605.49,-63.02 590.53,-47.12 583.66,-63.22"/>
<text text-anchor="middle" x="350" y="-60.5" font-family="Times New Roman,serif" font-size="30.00"> &#160;&#160;736 &#160;&#160;98% &#160;&#160;1.42 mol/s &#160;&#160;&#160;1.91E&#45;03</text>
</g>
</g>
</svg>
