<?xml version="1.0" encoding="UTF-8" standalone="no"?>
<!DOCTYPE svg PUBLIC "-//W3C//DTD SVG 1.1//EN"
 "http://www.w3.org/Graphics/SVG/1.1/DTD/svg11.dtd">
<!-- Generated by graphviz version 8.0.3 (20230416.2022)
 -->
<!-- Title: G Pages: 1 -->
<svg width="640pt" height="123pt"
 viewBox="0.00 0.00 720.00 138.86" xmlns="http://www.w3.org/2000/svg" xmlns:xlink="http://www.w3.org/1999/xlink">
<g id="graph0" class="graph" transform="scale(0.481203 0.481203) rotate(0) translate(4 252.5)">
<title>G</title>
<polygon fill="white" stroke="none" points="-4,4 -4,-252.5 1326,-252.5 1326,4 -4,4"/>
<text text-anchor="middle" x="661" y="-215.7" font-family="Arial" font-size="36.00" fill="blue">Reaction Path Analysis</text>
<!-- R259 -->
<g id="node1" class="node">
<title>R259</title>
<g id="a_node1"><a xlink:href="259.svg" xlink:title="R259">
<polygon fill="cornsilk" stroke="none" points="708,-112 614,-112 614,-65 708,-65 708,-112"/>
<text text-anchor="middle" x="661" y="-80" font-family="Times New Roman,serif" font-size="35.00">R259</text>
</a>
</g>
</g>
<!-- R302 -->
<g id="node5" class="node">
<title>R302</title>
<g id="a_node5"><a xlink:href="302.svg" xlink:title="R302">
<polygon fill="cornsilk" stroke="none" points="1322,-112 1228,-112 1228,-65 1322,-65 1322,-112"/>
<text text-anchor="middle" x="1275" y="-80" font-family="Times New Roman,serif" font-size="35.00">R302</text>
</a>
</g>
</g>
<!-- R259&#45;&gt;R302 -->
<g id="edge4" class="edge">
<title>R259&#45;&gt;R302</title>
<path fill="none" stroke="black" stroke-width="6" d="M708,-88.5C815.26,-88.5 1082.28,-88.5 1207.37,-88.5"/>
<polygon fill="black" stroke="black" stroke-width="6" points="1202.3,-99 1222.3,-88.5 1202.3,-78 1202.3,-99"/>
<text text-anchor="middle" x="968" y="-97.5" font-family="Times New Roman,serif" font-size="30.00"> &#160;&#160;737 &#160;&#160;100% &#160;&#160;9.86e&#45;12 mol/s &#160;&#160;&#160;9.77E&#45;01</text>
</g>
<!-- R44 -->
<g id="node2" class="node">
<title>R44</title>
<g id="a_node2"><a xlink:href="44.svg" xlink:title="R44">
<polygon fill="cornsilk" stroke="none" points="85,-177 9,-177 9,-130 85,-130 85,-177"/>
<text text-anchor="middle" x="47" y="-145" font-family="Times New Roman,serif" font-size="35.00">R44</text>
</a>
</g>
</g>
<!-- R44&#45;&gt;R259 -->
<g id="edge1" class="edge">
<title>R44&#45;&gt;R259</title>
<path fill="none" stroke="black" stroke-width="5" d="M84.69,-157.87C175.03,-167.31 414.43,-184.31 601,-125.5 604.37,-124.44 607.74,-123.14 611.06,-121.66"/>
<polygon fill="black" stroke="black" stroke-width="5" points="610.85,-131.02 624.31,-113.84 602.56,-115.61 610.85,-131.02"/>
<text text-anchor="middle" x="354" y="-176.5" font-family="Times New Roman,serif" font-size="30.00"> &#160;&#160;351 &#160;&#160;95% &#160;&#160;4.67e&#45;08 mol/s &#160;&#160;&#160;1.00E+00</text>
</g>
<!-- R13 -->
<g id="node3" class="node">
<title>R13</title>
<g id="a_node3"><a xlink:href="13.svg" xlink:title="R13">
<polygon fill="cornsilk" stroke="none" points="85,-112 9,-112 9,-65 85,-65 85,-112"/>
<text text-anchor="middle" x="47" y="-80" font-family="Times New Roman,serif" font-size="35.00">R13</text>
</a>
</g>
</g>
<!-- R13&#45;&gt;R259 -->
<g id="edge2" class="edge">
<title>R13&#45;&gt;R259</title>
<path fill="none" stroke="black" stroke-width="5" d="M84.91,-88.5C185.31,-88.5 464.49,-88.5 593.31,-88.5"/>
<polygon fill="black" stroke="black" stroke-width="5" points="588.09,-97.25 608.09,-88.5 588.09,-79.75 588.09,-97.25"/>
<text text-anchor="middle" x="354" y="-97.5" font-family="Times New Roman,serif" font-size="30.00"> &#160;&#160;351 &#160;&#160;95% &#160;&#160;4.67e&#45;08 mol/s &#160;&#160;&#160;1.00E+00</text>
</g>
<!-- R355 -->
<g id="node4" class="node">
<title>R355</title>
<g id="a_node4"><a xlink:href="355.svg" xlink:title="R355">
<polygon fill="cornsilk" stroke="none" points="94,-47 0,-47 0,0 94,0 94,-47"/>
<text text-anchor="middle" x="47" y="-15" font-family="Times New Roman,serif" font-size="35.00">R355</text>
</a>
</g>
</g>
<!-- R355&#45;&gt;R259 -->
<g id="edge3" class="edge">
<title>R355&#45;&gt;R259</title>
<path fill="none" stroke="black" d="M93.8,-18.2C190.27,-8.68 420.38,5.43 601,-51.5 607.43,-53.53 613.86,-56.43 619.99,-59.73"/>
<polygon fill="black" stroke="black" points="617.91,-63.15 628.31,-65.16 621.44,-57.1 617.91,-63.15"/>
<text text-anchor="middle" x="354" y="-60.5" font-family="Times New Roman,serif" font-size="30.00"> &#160;&#160;736 &#160;&#160;4% &#160;&#160;1.97e&#45;09 mol/s &#160;&#160;&#160;5.07E&#45;03</text>
</g>
</g>
</svg>
