<?xml version="1.0" encoding="UTF-8" standalone="no"?>
<!DOCTYPE svg PUBLIC "-//W3C//DTD SVG 1.1//EN"
 "http://www.w3.org/Graphics/SVG/1.1/DTD/svg11.dtd">
<!-- Generated by graphviz version 8.0.3 (20230416.2022)
 -->
<!-- Title: G Pages: 1 -->
<svg width="347pt" height="640pt"
 viewBox="0.00 0.00 389.99 720.00" xmlns="http://www.w3.org/2000/svg" xmlns:xlink="http://www.w3.org/1999/xlink">
<g id="graph0" class="graph" transform="scale(0.271889 0.271889) rotate(0) translate(4 2349.9)">
<title>G</title>
<polygon fill="white" stroke="none" points="-4,4 -4,-2349.9 1271,-2349.9 1271,4 -4,4"/>
<text text-anchor="middle" x="633.5" y="-2313.1" font-family="Arial" font-size="36.00" fill="blue">Reaction Path Analysis</text>
<!-- R26 -->
<g id="node1" class="node">
<title>R26</title>
<g id="a_node1"><a xlink:href="26.svg" xlink:title="R26">
<polygon fill="cornsilk" stroke="none" points="667,-1164.4 591,-1164.4 591,-1117.4 667,-1117.4 667,-1164.4"/>
<text text-anchor="middle" x="629" y="-1132.4" font-family="Times New Roman,serif" font-size="35.00">R26</text>
</a>
</g>
</g>
<!-- R28 -->
<g id="node5" class="node">
<title>R28</title>
<g id="a_node5"><a xlink:href="28.svg" xlink:title="R28">
<polygon fill="cornsilk" stroke="none" points="1258,-2269.4 1182,-2269.4 1182,-2222.4 1258,-2222.4 1258,-2269.4"/>
<text text-anchor="middle" x="1220" y="-2237.4" font-family="Times New Roman,serif" font-size="35.00">R28</text>
</a>
</g>
</g>
<!-- R26&#45;&gt;R28 -->
<g id="edge4" class="edge">
<title>R26&#45;&gt;R28</title>
<path fill="none" stroke="black" d="M630.31,-1164.04C632.46,-1317.29 646.29,-2181.28 685,-2219.9 752.23,-2286.98 1053.23,-2263.43 1171.28,-2251.28"/>
<polygon fill="black" stroke="black" points="1171.53,-2254.67 1181.12,-2250.14 1170.8,-2247.71 1171.53,-2254.67"/>
<text text-anchor="middle" x="924.5" y="-2273.9" font-family="Times New Roman,serif" font-size="30.00"> &#160;&#160;112 &#160;&#160;2% &#160;&#160;2.18e&#45;15 mol/s &#160;&#160;&#160;1.00E+00</text>
</g>
<!-- R29 -->
<g id="node6" class="node">
<title>R29</title>
<g id="a_node6"><a xlink:href="29.svg" xlink:title="R29">
<polygon fill="cornsilk" stroke="none" points="1258,-2204.4 1182,-2204.4 1182,-2157.4 1258,-2157.4 1258,-2204.4"/>
<text text-anchor="middle" x="1220" y="-2172.4" font-family="Times New Roman,serif" font-size="35.00">R29</text>
</a>
</g>
</g>
<!-- R26&#45;&gt;R29 -->
<g id="edge5" class="edge">
<title>R26&#45;&gt;R29</title>
<path fill="none" stroke="black" d="M630.39,-1164.05C632.96,-1311.89 648.67,-2118.77 685,-2154.9 719.06,-2188.77 1047.19,-2184.87 1171.55,-2182.13"/>
<polygon fill="black" stroke="black" points="1171.32,-2185.62 1181.23,-2181.89 1171.16,-2178.62 1171.32,-2185.62"/>
<text text-anchor="middle" x="924.5" y="-2191.9" font-family="Times New Roman,serif" font-size="30.00"> &#160;&#160;113 &#160;&#160;2% &#160;&#160;2.18e&#45;15 mol/s &#160;&#160;&#160;1.00E+00</text>
</g>
<!-- R117 -->
<g id="node7" class="node">
<title>R117</title>
<g id="a_node7"><a xlink:href="117.svg" xlink:title="R117">
<polygon fill="cornsilk" stroke="none" points="1267,-2139.4 1173,-2139.4 1173,-2092.4 1267,-2092.4 1267,-2139.4"/>
<text text-anchor="middle" x="1220" y="-2107.4" font-family="Times New Roman,serif" font-size="35.00">R117</text>
</a>
</g>
</g>
<!-- R26&#45;&gt;R117 -->
<g id="edge6" class="edge">
<title>R26&#45;&gt;R117</title>
<path fill="none" stroke="black" d="M630.48,-1164.39C633.53,-1307.42 651.08,-2056.29 685,-2089.9 718.32,-2122.91 1031.87,-2120.01 1162.4,-2117.32"/>
<polygon fill="black" stroke="black" points="1162.41,-2120.8 1172.34,-2117.09 1162.26,-2113.8 1162.41,-2120.8"/>
<text text-anchor="middle" x="924.5" y="-2126.9" font-family="Times New Roman,serif" font-size="30.00"> &#160;&#160;167 &#160;&#160;2% &#160;&#160;2.18e&#45;15 mol/s &#160;&#160;&#160;1.00E+00</text>
</g>
<!-- R118 -->
<g id="node8" class="node">
<title>R118</title>
<g id="a_node8"><a xlink:href="118.svg" xlink:title="R118">
<polygon fill="cornsilk" stroke="none" points="1267,-2074.4 1173,-2074.4 1173,-2027.4 1267,-2027.4 1267,-2074.4"/>
<text text-anchor="middle" x="1220" y="-2042.4" font-family="Times New Roman,serif" font-size="35.00">R118</text>
</a>
</g>
</g>
<!-- R26&#45;&gt;R118 -->
<g id="edge7" class="edge">
<title>R26&#45;&gt;R118</title>
<path fill="none" stroke="black" d="M630.58,-1164.1C634.09,-1300.54 653.43,-1993.75 685,-2024.9 718.39,-2057.84 1031.89,-2054.98 1162.41,-2052.31"/>
<polygon fill="black" stroke="black" points="1162.42,-2055.79 1172.34,-2052.08 1162.27,-2048.79 1162.42,-2055.79"/>
<text text-anchor="middle" x="924.5" y="-2061.9" font-family="Times New Roman,serif" font-size="30.00"> &#160;&#160;168 &#160;&#160;2% &#160;&#160;2.18e&#45;15 mol/s &#160;&#160;&#160;1.00E+00</text>
</g>
<!-- R119 -->
<g id="node9" class="node">
<title>R119</title>
<g id="a_node9"><a xlink:href="119.svg" xlink:title="R119">
<polygon fill="cornsilk" stroke="none" points="1267,-2009.4 1173,-2009.4 1173,-1962.4 1267,-1962.4 1267,-2009.4"/>
<text text-anchor="middle" x="1220" y="-1977.4" font-family="Times New Roman,serif" font-size="35.00">R119</text>
</a>
</g>
</g>
<!-- R26&#45;&gt;R119 -->
<g id="edge8" class="edge">
<title>R26&#45;&gt;R119</title>
<path fill="none" stroke="black" d="M629.77,-1163.99C628.71,-1291.16 626.72,-1902.68 685,-1959.9 718.47,-1992.76 1031.93,-1989.94 1162.42,-1987.3"/>
<polygon fill="black" stroke="black" points="1162.43,-1990.78 1172.35,-1987.07 1162.28,-1983.78 1162.43,-1990.78"/>
<text text-anchor="middle" x="924.5" y="-1996.9" font-family="Times New Roman,serif" font-size="30.00"> &#160;&#160;169 &#160;&#160;2% &#160;&#160;2.18e&#45;15 mol/s &#160;&#160;&#160;1.00E+00</text>
</g>
<!-- R130 -->
<g id="node10" class="node">
<title>R130</title>
<g id="a_node10"><a xlink:href="130.svg" xlink:title="R130">
<polygon fill="cornsilk" stroke="none" points="1267,-1944.4 1173,-1944.4 1173,-1897.4 1267,-1897.4 1267,-1944.4"/>
<text text-anchor="middle" x="1220" y="-1912.4" font-family="Times New Roman,serif" font-size="35.00">R130</text>
</a>
</g>
</g>
<!-- R26&#45;&gt;R130 -->
<g id="edge9" class="edge">
<title>R26&#45;&gt;R130</title>
<path fill="none" stroke="black" d="M629.91,-1164.11C629.66,-1285.39 631.46,-1842.64 685,-1894.9 718.56,-1927.66 1031.97,-1924.9 1162.43,-1922.29"/>
<polygon fill="black" stroke="black" points="1162.44,-1925.77 1172.36,-1922.06 1162.29,-1918.77 1162.44,-1925.77"/>
<text text-anchor="middle" x="924.5" y="-1931.9" font-family="Times New Roman,serif" font-size="30.00"> &#160;&#160;238 &#160;&#160;2% &#160;&#160;2.18e&#45;15 mol/s &#160;&#160;&#160;1.00E+00</text>
</g>
<!-- R131 -->
<g id="node11" class="node">
<title>R131</title>
<g id="a_node11"><a xlink:href="131.svg" xlink:title="R131">
<polygon fill="cornsilk" stroke="none" points="1267,-1879.4 1173,-1879.4 1173,-1832.4 1267,-1832.4 1267,-1879.4"/>
<text text-anchor="middle" x="1220" y="-1847.4" font-family="Times New Roman,serif" font-size="35.00">R131</text>
</a>
</g>
</g>
<!-- R26&#45;&gt;R131 -->
<g id="edge10" class="edge">
<title>R26&#45;&gt;R131</title>
<path fill="none" stroke="black" d="M630.08,-1164.36C630.7,-1279.65 636.21,-1782.61 685,-1829.9 718.67,-1862.55 1032.02,-1859.85 1162.45,-1857.27"/>
<polygon fill="black" stroke="black" points="1162.45,-1860.75 1172.37,-1857.05 1162.3,-1853.75 1162.45,-1860.75"/>
<text text-anchor="middle" x="924.5" y="-1866.9" font-family="Times New Roman,serif" font-size="30.00"> &#160;&#160;239 &#160;&#160;2% &#160;&#160;2.18e&#45;15 mol/s &#160;&#160;&#160;1.00E+00</text>
</g>
<!-- R182 -->
<g id="node12" class="node">
<title>R182</title>
<g id="a_node12"><a xlink:href="182.svg" xlink:title="R182">
<polygon fill="cornsilk" stroke="none" points="1267,-1814.4 1173,-1814.4 1173,-1767.4 1267,-1767.4 1267,-1814.4"/>
<text text-anchor="middle" x="1220" y="-1782.4" font-family="Times New Roman,serif" font-size="35.00">R182</text>
</a>
</g>
</g>
<!-- R26&#45;&gt;R182 -->
<g id="edge11" class="edge">
<title>R26&#45;&gt;R182</title>
<path fill="none" stroke="black" d="M630.28,-1164.27C631.83,-1272.61 640.9,-1722.5 685,-1764.9 718.81,-1797.41 1032.07,-1794.79 1162.47,-1792.25"/>
<polygon fill="black" stroke="black" points="1162.46,-1795.73 1172.39,-1792.03 1162.32,-1788.73 1162.46,-1795.73"/>
<text text-anchor="middle" x="924.5" y="-1801.9" font-family="Times New Roman,serif" font-size="30.00"> &#160;&#160;240 &#160;&#160;2% &#160;&#160;2.18e&#45;15 mol/s &#160;&#160;&#160;1.00E+00</text>
</g>
<!-- R140 -->
<g id="node13" class="node">
<title>R140</title>
<g id="a_node13"><a xlink:href="140.svg" xlink:title="R140">
<polygon fill="cornsilk" stroke="none" points="1267,-1749.4 1173,-1749.4 1173,-1702.4 1267,-1702.4 1267,-1749.4"/>
<text text-anchor="middle" x="1220" y="-1717.4" font-family="Times New Roman,serif" font-size="35.00">R140</text>
</a>
</g>
</g>
<!-- R26&#45;&gt;R140 -->
<g id="edge12" class="edge">
<title>R26&#45;&gt;R140</title>
<path fill="none" stroke="black" d="M630.53,-1164.17C633.08,-1265.18 645.58,-1662.38 685,-1699.9 718.97,-1732.24 1032.14,-1729.72 1162.49,-1727.23"/>
<polygon fill="black" stroke="black" points="1162.48,-1730.71 1172.41,-1727.01 1162.34,-1723.71 1162.48,-1730.71"/>
<text text-anchor="middle" x="924.5" y="-1736.9" font-family="Times New Roman,serif" font-size="30.00"> &#160;&#160;281 &#160;&#160;2% &#160;&#160;2.18e&#45;15 mol/s &#160;&#160;&#160;1.00E+00</text>
</g>
<!-- R141 -->
<g id="node14" class="node">
<title>R141</title>
<g id="a_node14"><a xlink:href="141.svg" xlink:title="R141">
<polygon fill="cornsilk" stroke="none" points="1267,-1684.4 1173,-1684.4 1173,-1637.4 1267,-1637.4 1267,-1684.4"/>
<text text-anchor="middle" x="1220" y="-1652.4" font-family="Times New Roman,serif" font-size="35.00">R141</text>
</a>
</g>
</g>
<!-- R26&#45;&gt;R141 -->
<g id="edge13" class="edge">
<title>R26&#45;&gt;R141</title>
<path fill="none" stroke="black" d="M630.85,-1164.25C634.51,-1257.82 650.25,-1602.25 685,-1634.9 719.18,-1667.02 1032.23,-1664.63 1162.51,-1662.2"/>
<polygon fill="black" stroke="black" points="1162.5,-1665.68 1172.43,-1661.99 1162.36,-1658.68 1162.5,-1665.68"/>
<text text-anchor="middle" x="924.5" y="-1671.9" font-family="Times New Roman,serif" font-size="30.00"> &#160;&#160;282 &#160;&#160;2% &#160;&#160;2.18e&#45;15 mol/s &#160;&#160;&#160;1.00E+00</text>
</g>
<!-- R218 -->
<g id="node15" class="node">
<title>R218</title>
<g id="a_node15"><a xlink:href="218.svg" xlink:title="R218">
<polygon fill="cornsilk" stroke="none" points="1267,-1619.4 1173,-1619.4 1173,-1572.4 1267,-1572.4 1267,-1619.4"/>
<text text-anchor="middle" x="1220" y="-1587.4" font-family="Times New Roman,serif" font-size="35.00">R218</text>
</a>
</g>
</g>
<!-- R26&#45;&gt;R218 -->
<g id="edge14" class="edge">
<title>R26&#45;&gt;R218</title>
<path fill="none" stroke="black" d="M631.28,-1164.27C636.18,-1249.63 655,-1541.14 685,-1568.9 719.38,-1600.72 1031.58,-1599.15 1162.08,-1597.06"/>
<polygon fill="black" stroke="black" points="1162.07,-1600.54 1172.01,-1596.88 1161.96,-1593.54 1162.07,-1600.54"/>
<text text-anchor="middle" x="924.5" y="-1606.9" font-family="Times New Roman,serif" font-size="30.00"> &#160;&#160;283 &#160;&#160;2% &#160;&#160;2.18e&#45;15 mol/s &#160;&#160;&#160;1.00E+00</text>
</g>
<!-- R149 -->
<g id="node16" class="node">
<title>R149</title>
<g id="a_node16"><a xlink:href="149.svg" xlink:title="R149">
<polygon fill="cornsilk" stroke="none" points="1267,-1554.4 1173,-1554.4 1173,-1507.4 1267,-1507.4 1267,-1554.4"/>
<text text-anchor="middle" x="1220" y="-1522.4" font-family="Times New Roman,serif" font-size="35.00">R149</text>
</a>
</g>
</g>
<!-- R26&#45;&gt;R149 -->
<g id="edge15" class="edge">
<title>R26&#45;&gt;R149</title>
<path fill="none" stroke="black" d="M629.87,-1164.33C630.01,-1237.31 634.66,-1458.36 685,-1503.9 719.74,-1535.33 1031.73,-1533.98 1162.12,-1532.01"/>
<polygon fill="black" stroke="black" points="1162.11,-1535.49 1172.05,-1531.83 1162,-1528.49 1162.11,-1535.49"/>
<text text-anchor="middle" x="924.5" y="-1540.9" font-family="Times New Roman,serif" font-size="30.00"> &#160;&#160;301 &#160;&#160;2% &#160;&#160;2.18e&#45;15 mol/s &#160;&#160;&#160;1.00E+00</text>
</g>
<!-- R150 -->
<g id="node17" class="node">
<title>R150</title>
<g id="a_node17"><a xlink:href="150.svg" xlink:title="R150">
<polygon fill="cornsilk" stroke="none" points="1267,-1489.4 1173,-1489.4 1173,-1442.4 1267,-1442.4 1267,-1489.4"/>
<text text-anchor="middle" x="1220" y="-1457.4" font-family="Times New Roman,serif" font-size="35.00">R150</text>
</a>
</g>
</g>
<!-- R26&#45;&gt;R150 -->
<g id="edge16" class="edge">
<title>R26&#45;&gt;R150</title>
<path fill="none" stroke="black" d="M630.72,-1164.14C633.21,-1227.82 643.75,-1402.76 685,-1438.9 720.24,-1469.77 1031.94,-1468.75 1162.19,-1466.93"/>
<polygon fill="black" stroke="black" points="1162.16,-1470.42 1172.11,-1466.77 1162.06,-1463.42 1162.16,-1470.42"/>
<text text-anchor="middle" x="924.5" y="-1475.9" font-family="Times New Roman,serif" font-size="30.00"> &#160;&#160;302 &#160;&#160;2% &#160;&#160;2.18e&#45;15 mol/s &#160;&#160;&#160;1.00E+00</text>
</g>
<!-- R156 -->
<g id="node18" class="node">
<title>R156</title>
<g id="a_node18"><a xlink:href="156.svg" xlink:title="R156">
<polygon fill="cornsilk" stroke="none" points="1267,-1424.4 1173,-1424.4 1173,-1377.4 1267,-1377.4 1267,-1424.4"/>
<text text-anchor="middle" x="1220" y="-1392.4" font-family="Times New Roman,serif" font-size="35.00">R156</text>
</a>
</g>
</g>
<!-- R26&#45;&gt;R156 -->
<g id="edge17" class="edge">
<title>R26&#45;&gt;R156</title>
<path fill="none" stroke="black" d="M632.06,-1164.34C637.29,-1217.79 652.97,-1346.19 685,-1372.9 720.98,-1402.91 1032.26,-1403 1162.29,-1401.7"/>
<polygon fill="black" stroke="black" points="1162.23,-1405.19 1172.19,-1401.58 1162.15,-1398.19 1162.23,-1405.19"/>
<text text-anchor="middle" x="924.5" y="-1410.9" font-family="Times New Roman,serif" font-size="30.00"> &#160;&#160;312 &#160;&#160;2% &#160;&#160;2.18e&#45;15 mol/s &#160;&#160;&#160;1.00E+00</text>
</g>
<!-- R157 -->
<g id="node19" class="node">
<title>R157</title>
<g id="a_node19"><a xlink:href="157.svg" xlink:title="R157">
<polygon fill="cornsilk" stroke="none" points="1267,-1359.4 1173,-1359.4 1173,-1312.4 1267,-1312.4 1267,-1359.4"/>
<text text-anchor="middle" x="1220" y="-1327.4" font-family="Times New Roman,serif" font-size="35.00">R157</text>
</a>
</g>
</g>
<!-- R26&#45;&gt;R157 -->
<g id="edge18" class="edge">
<title>R26&#45;&gt;R157</title>
<path fill="none" stroke="black" d="M629.99,-1164.4C631.39,-1201.67 640.13,-1273.61 685,-1307.9 722.23,-1336.35 1032.78,-1337.34 1162.46,-1336.49"/>
<polygon fill="black" stroke="black" points="1162.35,-1339.99 1172.32,-1336.41 1162.3,-1332.99 1162.35,-1339.99"/>
<text text-anchor="middle" x="924.5" y="-1344.9" font-family="Times New Roman,serif" font-size="30.00"> &#160;&#160;313 &#160;&#160;2% &#160;&#160;2.18e&#45;15 mol/s &#160;&#160;&#160;1.00E+00</text>
</g>
<!-- R159 -->
<g id="node20" class="node">
<title>R159</title>
<g id="a_node20"><a xlink:href="159.svg" xlink:title="R159">
<polygon fill="cornsilk" stroke="none" points="1267,-1294.4 1173,-1294.4 1173,-1247.4 1267,-1247.4 1267,-1294.4"/>
<text text-anchor="middle" x="1220" y="-1262.4" font-family="Times New Roman,serif" font-size="35.00">R159</text>
</a>
</g>
</g>
<!-- R26&#45;&gt;R159 -->
<g id="edge19" class="edge">
<title>R26&#45;&gt;R159</title>
<path fill="none" stroke="black" d="M635.33,-1164.35C642.25,-1188.83 656.93,-1226.09 685,-1243.9 724.51,-1268.97 1033.02,-1271.3 1162.3,-1271.16"/>
<polygon fill="black" stroke="black" points="1162.15,-1274.66 1172.14,-1271.14 1162.13,-1267.66 1162.15,-1274.66"/>
<text text-anchor="middle" x="924.5" y="-1279.9" font-family="Times New Roman,serif" font-size="30.00"> &#160;&#160;318 &#160;&#160;2% &#160;&#160;2.18e&#45;15 mol/s &#160;&#160;&#160;1.00E+00</text>
</g>
<!-- R160 -->
<g id="node21" class="node">
<title>R160</title>
<g id="a_node21"><a xlink:href="160.svg" xlink:title="R160">
<polygon fill="cornsilk" stroke="none" points="1267,-1229.4 1173,-1229.4 1173,-1182.4 1267,-1182.4 1267,-1229.4"/>
<text text-anchor="middle" x="1220" y="-1197.4" font-family="Times New Roman,serif" font-size="35.00">R160</text>
</a>
</g>
</g>
<!-- R26&#45;&gt;R160 -->
<g id="edge20" class="edge">
<title>R26&#45;&gt;R160</title>
<path fill="none" stroke="black" d="M658.42,-1164.23C666.54,-1169.68 675.72,-1174.8 685,-1177.9 772.2,-1207.02 1044.13,-1207.84 1162.73,-1206.72"/>
<polygon fill="black" stroke="black" points="1162.42,-1210.22 1172.38,-1206.61 1162.35,-1203.22 1162.42,-1210.22"/>
<text text-anchor="middle" x="924.5" y="-1215.9" font-family="Times New Roman,serif" font-size="30.00"> &#160;&#160;319 &#160;&#160;2% &#160;&#160;2.18e&#45;15 mol/s &#160;&#160;&#160;1.00E+00</text>
</g>
<!-- R238 -->
<g id="node22" class="node">
<title>R238</title>
<g id="a_node22"><a xlink:href="238.svg" xlink:title="R238">
<polygon fill="cornsilk" stroke="none" points="1267,-1164.4 1173,-1164.4 1173,-1117.4 1267,-1117.4 1267,-1164.4"/>
<text text-anchor="middle" x="1220" y="-1132.4" font-family="Times New Roman,serif" font-size="35.00">R238</text>
</a>
</g>
</g>
<!-- R26&#45;&gt;R238 -->
<g id="edge21" class="edge">
<title>R26&#45;&gt;R238</title>
<path fill="none" stroke="black" d="M666.84,-1140.9C766.61,-1140.9 1042.52,-1140.9 1162.29,-1140.9"/>
<polygon fill="black" stroke="black" points="1162.04,-1144.4 1172.04,-1140.9 1162.04,-1137.4 1162.04,-1144.4"/>
<text text-anchor="middle" x="924.5" y="-1149.9" font-family="Times New Roman,serif" font-size="30.00"> &#160;&#160;320 &#160;&#160;2% &#160;&#160;2.18e&#45;15 mol/s &#160;&#160;&#160;1.00E+00</text>
</g>
<!-- R163 -->
<g id="node23" class="node">
<title>R163</title>
<g id="a_node23"><a xlink:href="163.svg" xlink:title="R163">
<polygon fill="cornsilk" stroke="none" points="1267,-1099.4 1173,-1099.4 1173,-1052.4 1267,-1052.4 1267,-1099.4"/>
<text text-anchor="middle" x="1220" y="-1067.4" font-family="Times New Roman,serif" font-size="35.00">R163</text>
</a>
</g>
</g>
<!-- R26&#45;&gt;R163 -->
<g id="edge22" class="edge">
<title>R26&#45;&gt;R163</title>
<path fill="none" stroke="black" d="M658.42,-1117.58C666.54,-1112.12 675.72,-1107 685,-1103.9 851.35,-1048.35 1062.99,-1059.54 1162.48,-1069.22"/>
<polygon fill="black" stroke="black" points="1161.89,-1072.78 1172.19,-1070.3 1162.59,-1065.81 1161.89,-1072.78"/>
<text text-anchor="middle" x="924.5" y="-1112.9" font-family="Times New Roman,serif" font-size="30.00"> &#160;&#160;332 &#160;&#160;2% &#160;&#160;2.18e&#45;15 mol/s &#160;&#160;&#160;1.00E+00</text>
</g>
<!-- R164 -->
<g id="node24" class="node">
<title>R164</title>
<g id="a_node24"><a xlink:href="164.svg" xlink:title="R164">
<polygon fill="cornsilk" stroke="none" points="1267,-1034.4 1173,-1034.4 1173,-987.4 1267,-987.4 1267,-1034.4"/>
<text text-anchor="middle" x="1220" y="-1002.4" font-family="Times New Roman,serif" font-size="35.00">R164</text>
</a>
</g>
</g>
<!-- R26&#45;&gt;R164 -->
<g id="edge23" class="edge">
<title>R26&#45;&gt;R164</title>
<path fill="none" stroke="black" d="M633.53,-1117.71C639.11,-1090.03 652.85,-1044.87 685,-1023.9 762.21,-973.55 1041.52,-993.56 1162.49,-1005.02"/>
<polygon fill="black" stroke="black" points="1162.05,-1008.59 1172.34,-1006.06 1162.73,-1001.62 1162.05,-1008.59"/>
<text text-anchor="middle" x="924.5" y="-1032.9" font-family="Times New Roman,serif" font-size="30.00"> &#160;&#160;333 &#160;&#160;2% &#160;&#160;2.18e&#45;15 mol/s &#160;&#160;&#160;1.00E+00</text>
</g>
<!-- R246 -->
<g id="node25" class="node">
<title>R246</title>
<g id="a_node25"><a xlink:href="246.svg" xlink:title="R246">
<polygon fill="cornsilk" stroke="none" points="1267,-969.4 1173,-969.4 1173,-922.4 1267,-922.4 1267,-969.4"/>
<text text-anchor="middle" x="1220" y="-937.4" font-family="Times New Roman,serif" font-size="35.00">R246</text>
</a>
</g>
</g>
<!-- R26&#45;&gt;R246 -->
<g id="edge24" class="edge">
<title>R26&#45;&gt;R246</title>
<path fill="none" stroke="black" d="M633.43,-1117.64C640.63,-1072.29 658.86,-974.77 685,-954.9 758.53,-899 1041.05,-924.66 1162.73,-938.79"/>
<polygon fill="black" stroke="black" points="1161.95,-942.34 1172.29,-940.03 1162.77,-935.39 1161.95,-942.34"/>
<text text-anchor="middle" x="924.5" y="-963.9" font-family="Times New Roman,serif" font-size="30.00"> &#160;&#160;334 &#160;&#160;2% &#160;&#160;2.18e&#45;15 mol/s &#160;&#160;&#160;1.00E+00</text>
</g>
<!-- R170 -->
<g id="node26" class="node">
<title>R170</title>
<g id="a_node26"><a xlink:href="170.svg" xlink:title="R170">
<polygon fill="cornsilk" stroke="none" points="1267,-904.4 1173,-904.4 1173,-857.4 1267,-857.4 1267,-904.4"/>
<text text-anchor="middle" x="1220" y="-872.4" font-family="Times New Roman,serif" font-size="35.00">R170</text>
</a>
</g>
</g>
<!-- R26&#45;&gt;R170 -->
<g id="edge25" class="edge">
<title>R26&#45;&gt;R170</title>
<path fill="none" stroke="black" d="M631.39,-1117.46C635.34,-1059.75 648.8,-913.34 685,-883.9 721.3,-854.38 1032.39,-869.55 1162.33,-877.29"/>
<polygon fill="black" stroke="black" points="1162.03,-880.84 1172.22,-877.94 1162.45,-873.85 1162.03,-880.84"/>
<text text-anchor="middle" x="924.5" y="-892.9" font-family="Times New Roman,serif" font-size="30.00"> &#160;&#160;378 &#160;&#160;2% &#160;&#160;2.18e&#45;15 mol/s &#160;&#160;&#160;1.00E+00</text>
</g>
<!-- R171 -->
<g id="node27" class="node">
<title>R171</title>
<g id="a_node27"><a xlink:href="171.svg" xlink:title="R171">
<polygon fill="cornsilk" stroke="none" points="1267,-839.4 1173,-839.4 1173,-792.4 1267,-792.4 1267,-839.4"/>
<text text-anchor="middle" x="1220" y="-807.4" font-family="Times New Roman,serif" font-size="35.00">R171</text>
</a>
</g>
</g>
<!-- R26&#45;&gt;R171 -->
<g id="edge26" class="edge">
<title>R26&#45;&gt;R171</title>
<path fill="none" stroke="black" d="M630.48,-1117.56C632.36,-1051.8 641.48,-867.38 685,-829.9 755.09,-769.54 1040.18,-794.75 1162.65,-808.82"/>
<polygon fill="black" stroke="black" points="1161.95,-812.38 1172.29,-810.06 1162.76,-805.43 1161.95,-812.38"/>
<text text-anchor="middle" x="924.5" y="-838.9" font-family="Times New Roman,serif" font-size="30.00"> &#160;&#160;379 &#160;&#160;2% &#160;&#160;2.18e&#45;15 mol/s &#160;&#160;&#160;1.00E+00</text>
</g>
<!-- R280 -->
<g id="node28" class="node">
<title>R280</title>
<g id="a_node28"><a xlink:href="280.svg" xlink:title="R280">
<polygon fill="cornsilk" stroke="none" points="1267,-774.4 1173,-774.4 1173,-727.4 1267,-727.4 1267,-774.4"/>
<text text-anchor="middle" x="1220" y="-742.4" font-family="Times New Roman,serif" font-size="35.00">R280</text>
</a>
</g>
</g>
<!-- R26&#45;&gt;R280 -->
<g id="edge27" class="edge">
<title>R26&#45;&gt;R280</title>
<path fill="none" stroke="black" d="M629.56,-1117.53C628.67,-1041.39 630.34,-802.68 685,-754.9 720.23,-724.11 1031.94,-739.39 1162.19,-747.23"/>
<polygon fill="black" stroke="black" points="1161.91,-750.78 1172.11,-747.9 1162.34,-743.8 1161.91,-750.78"/>
<text text-anchor="middle" x="924.5" y="-763.9" font-family="Times New Roman,serif" font-size="30.00"> &#160;&#160;380 &#160;&#160;2% &#160;&#160;2.18e&#45;15 mol/s &#160;&#160;&#160;1.00E+00</text>
</g>
<!-- R281 -->
<g id="node29" class="node">
<title>R281</title>
<g id="a_node29"><a xlink:href="281.svg" xlink:title="R281">
<polygon fill="cornsilk" stroke="none" points="1267,-709.4 1173,-709.4 1173,-662.4 1267,-662.4 1267,-709.4"/>
<text text-anchor="middle" x="1220" y="-677.4" font-family="Times New Roman,serif" font-size="35.00">R281</text>
</a>
</g>
</g>
<!-- R26&#45;&gt;R281 -->
<g id="edge28" class="edge">
<title>R26&#45;&gt;R281</title>
<path fill="none" stroke="black" d="M631.17,-1117.41C635.74,-1030.15 653.74,-728.24 685,-699.9 753.53,-637.77 1039.49,-663.97 1162.43,-678.56"/>
<polygon fill="black" stroke="black" points="1161.75,-682.13 1172.1,-679.85 1162.59,-675.18 1161.75,-682.13"/>
<text text-anchor="middle" x="924.5" y="-708.9" font-family="Times New Roman,serif" font-size="30.00"> &#160;&#160;381 &#160;&#160;2% &#160;&#160;2.18e&#45;15 mol/s &#160;&#160;&#160;1.00E+00</text>
</g>
<!-- R300 -->
<g id="node30" class="node">
<title>R300</title>
<g id="a_node30"><a xlink:href="300.svg" xlink:title="R300">
<polygon fill="cornsilk" stroke="none" points="1267,-644.4 1173,-644.4 1173,-597.4 1267,-597.4 1267,-644.4"/>
<text text-anchor="middle" x="1220" y="-612.4" font-family="Times New Roman,serif" font-size="35.00">R300</text>
</a>
</g>
</g>
<!-- R26&#45;&gt;R300 -->
<g id="edge29" class="edge">
<title>R26&#45;&gt;R300</title>
<path fill="none" stroke="black" d="M630.7,-1117.42C633.8,-1020.8 647.89,-657.47 685,-623.9 719.7,-592.52 1031.72,-608.76 1162.12,-617.04"/>
<polygon fill="black" stroke="black" points="1161.84,-620.59 1172.05,-617.74 1162.29,-613.61 1161.84,-620.59"/>
<text text-anchor="middle" x="924.5" y="-632.9" font-family="Times New Roman,serif" font-size="30.00"> &#160;&#160;406 &#160;&#160;2% &#160;&#160;2.18e&#45;15 mol/s &#160;&#160;&#160;1.00E+00</text>
</g>
<!-- R301 -->
<g id="node31" class="node">
<title>R301</title>
<g id="a_node31"><a xlink:href="301.svg" xlink:title="R301">
<polygon fill="cornsilk" stroke="none" points="1267,-579.4 1173,-579.4 1173,-532.4 1267,-532.4 1267,-579.4"/>
<text text-anchor="middle" x="1220" y="-547.4" font-family="Times New Roman,serif" font-size="35.00">R301</text>
</a>
</g>
</g>
<!-- R26&#45;&gt;R301 -->
<g id="edge30" class="edge">
<title>R26&#45;&gt;R301</title>
<path fill="none" stroke="black" d="M630.46,-1117.42C632.72,-1014.53 644.2,-606.88 685,-568.9 752.7,-505.88 1039.13,-533.18 1162.3,-548.31"/>
<polygon fill="black" stroke="black" points="1161.64,-551.88 1172,-549.64 1162.51,-544.93 1161.64,-551.88"/>
<text text-anchor="middle" x="924.5" y="-577.9" font-family="Times New Roman,serif" font-size="30.00"> &#160;&#160;407 &#160;&#160;2% &#160;&#160;2.18e&#45;15 mol/s &#160;&#160;&#160;1.00E+00</text>
</g>
<!-- R302 -->
<g id="node32" class="node">
<title>R302</title>
<g id="a_node32"><a xlink:href="302.svg" xlink:title="R302">
<polygon fill="cornsilk" stroke="none" points="1267,-514.4 1173,-514.4 1173,-467.4 1267,-467.4 1267,-514.4"/>
<text text-anchor="middle" x="1220" y="-482.4" font-family="Times New Roman,serif" font-size="35.00">R302</text>
</a>
</g>
</g>
<!-- R26&#45;&gt;R302 -->
<g id="edge31" class="edge">
<title>R26&#45;&gt;R302</title>
<path fill="none" stroke="black" d="M630.16,-1117.71C631.16,-1007.02 638.16,-536.1 685,-492.9 719.39,-461.18 1031.59,-478.24 1162.08,-486.88"/>
<polygon fill="black" stroke="black" points="1161.8,-490.43 1172.01,-487.61 1162.27,-483.45 1161.8,-490.43"/>
<text text-anchor="middle" x="924.5" y="-501.9" font-family="Times New Roman,serif" font-size="30.00"> &#160;&#160;408 &#160;&#160;2% &#160;&#160;2.18e&#45;15 mol/s &#160;&#160;&#160;1.00E+00</text>
</g>
<!-- R305 -->
<g id="node33" class="node">
<title>R305</title>
<g id="a_node33"><a xlink:href="305.svg" xlink:title="R305">
<polygon fill="cornsilk" stroke="none" points="1267,-449.4 1173,-449.4 1173,-402.4 1267,-402.4 1267,-449.4"/>
<text text-anchor="middle" x="1220" y="-417.4" font-family="Times New Roman,serif" font-size="35.00">R305</text>
</a>
</g>
</g>
<!-- R26&#45;&gt;R305 -->
<g id="edge32" class="edge">
<title>R26&#45;&gt;R305</title>
<path fill="none" stroke="black" d="M630.01,-1117.72C630.32,-1001.47 634.53,-485.64 685,-437.9 752.28,-374.27 1039.6,-402.62 1162.68,-418.16"/>
<polygon fill="black" stroke="black" points="1162,-421.73 1172.36,-419.53 1162.89,-414.79 1162,-421.73"/>
<text text-anchor="middle" x="924.5" y="-446.9" font-family="Times New Roman,serif" font-size="30.00"> &#160;&#160;411 &#160;&#160;2% &#160;&#160;2.18e&#45;15 mol/s &#160;&#160;&#160;1.00E+00</text>
</g>
<!-- R306 -->
<g id="node34" class="node">
<title>R306</title>
<g id="a_node34"><a xlink:href="306.svg" xlink:title="R306">
<polygon fill="cornsilk" stroke="none" points="1267,-384.4 1173,-384.4 1173,-337.4 1267,-337.4 1267,-384.4"/>
<text text-anchor="middle" x="1220" y="-352.4" font-family="Times New Roman,serif" font-size="35.00">R306</text>
</a>
</g>
</g>
<!-- R26&#45;&gt;R306 -->
<g id="edge33" class="edge">
<title>R26&#45;&gt;R306</title>
<path fill="none" stroke="black" d="M629.81,-1117.7C629.02,-993.88 628.39,-414.76 685,-361.9 719.24,-329.94 1032.25,-347.82 1162.52,-356.77"/>
<polygon fill="black" stroke="black" points="1162.22,-360.32 1172.44,-357.52 1162.7,-353.34 1162.22,-360.32"/>
<text text-anchor="middle" x="924.5" y="-370.9" font-family="Times New Roman,serif" font-size="30.00"> &#160;&#160;412 &#160;&#160;2% &#160;&#160;2.18e&#45;15 mol/s &#160;&#160;&#160;1.00E+00</text>
</g>
<!-- R308 -->
<g id="node35" class="node">
<title>R308</title>
<g id="a_node35"><a xlink:href="308.svg" xlink:title="R308">
<polygon fill="cornsilk" stroke="none" points="1267,-319.4 1173,-319.4 1173,-272.4 1267,-272.4 1267,-319.4"/>
<text text-anchor="middle" x="1220" y="-287.4" font-family="Times New Roman,serif" font-size="35.00">R308</text>
</a>
</g>
</g>
<!-- R26&#45;&gt;R308 -->
<g id="edge34" class="edge">
<title>R26&#45;&gt;R308</title>
<path fill="none" stroke="black" d="M629.71,-1117.79C628.34,-989.08 624.81,-364.43 685,-306.9 718.87,-274.53 1032.1,-286.42 1162.47,-292.86"/>
<polygon fill="black" stroke="black" points="1162.23,-296.4 1172.4,-293.4 1162.58,-289.41 1162.23,-296.4"/>
<text text-anchor="middle" x="924.5" y="-315.9" font-family="Times New Roman,serif" font-size="30.00"> &#160;&#160;414 &#160;&#160;2% &#160;&#160;2.18e&#45;15 mol/s &#160;&#160;&#160;1.00E+00</text>
</g>
<!-- R309 -->
<g id="node36" class="node">
<title>R309</title>
<g id="a_node36"><a xlink:href="309.svg" xlink:title="R309">
<polygon fill="cornsilk" stroke="none" points="1267,-254.4 1173,-254.4 1173,-207.4 1267,-207.4 1267,-254.4"/>
<text text-anchor="middle" x="1220" y="-222.4" font-family="Times New Roman,serif" font-size="35.00">R309</text>
</a>
</g>
</g>
<!-- R26&#45;&gt;R309 -->
<g id="edge35" class="edge">
<title>R26&#45;&gt;R309</title>
<path fill="none" stroke="black" d="M630.56,-1117.49C633.99,-979.77 652.92,-280.1 685,-248.9 751.41,-184.32 1039.22,-209.55 1162.55,-223.77"/>
<polygon fill="black" stroke="black" points="1161.92,-227.33 1172.26,-225.02 1162.74,-220.38 1161.92,-227.33"/>
<text text-anchor="middle" x="924.5" y="-257.9" font-family="Times New Roman,serif" font-size="30.00"> &#160;&#160;415 &#160;&#160;2% &#160;&#160;2.18e&#45;15 mol/s &#160;&#160;&#160;1.00E+00</text>
</g>
<!-- R310 -->
<g id="node37" class="node">
<title>R310</title>
<g id="a_node37"><a xlink:href="310.svg" xlink:title="R310">
<polygon fill="cornsilk" stroke="none" points="1267,-189.4 1173,-189.4 1173,-142.4 1267,-142.4 1267,-189.4"/>
<text text-anchor="middle" x="1220" y="-157.4" font-family="Times New Roman,serif" font-size="35.00">R310</text>
</a>
</g>
</g>
<!-- R26&#45;&gt;R310 -->
<g id="edge36" class="edge">
<title>R26&#45;&gt;R310</title>
<path fill="none" stroke="black" d="M630.42,-1117.79C633.18,-973.7 649.54,-203.67 685,-169.9 718.93,-137.6 1032.12,-153.81 1162.48,-162.07"/>
<polygon fill="black" stroke="black" points="1162.2,-165.62 1172.4,-162.77 1162.65,-158.63 1162.2,-165.62"/>
<text text-anchor="middle" x="924.5" y="-178.9" font-family="Times New Roman,serif" font-size="30.00"> &#160;&#160;416 &#160;&#160;2% &#160;&#160;2.18e&#45;15 mol/s &#160;&#160;&#160;1.00E+00</text>
</g>
<!-- R311 -->
<g id="node38" class="node">
<title>R311</title>
<g id="a_node38"><a xlink:href="311.svg" xlink:title="R311">
<polygon fill="cornsilk" stroke="none" points="1267,-124.4 1173,-124.4 1173,-77.4 1267,-77.4 1267,-124.4"/>
<text text-anchor="middle" x="1220" y="-92.4" font-family="Times New Roman,serif" font-size="35.00">R311</text>
</a>
</g>
</g>
<!-- R26&#45;&gt;R311 -->
<g id="edge37" class="edge">
<title>R26&#45;&gt;R311</title>
<path fill="none" stroke="black" d="M630.36,-1117.44C632.8,-967.64 647.78,-150.06 685,-113.9 751.43,-49.38 1039.23,-77.62 1162.56,-93.16"/>
<polygon fill="black" stroke="black" points="1161.9,-96.73 1172.26,-94.53 1162.79,-89.79 1161.9,-96.73"/>
<text text-anchor="middle" x="924.5" y="-122.9" font-family="Times New Roman,serif" font-size="30.00"> &#160;&#160;417 &#160;&#160;2% &#160;&#160;2.18e&#45;15 mol/s &#160;&#160;&#160;1.00E+00</text>
</g>
<!-- R312 -->
<g id="node39" class="node">
<title>R312</title>
<g id="a_node39"><a xlink:href="312.svg" xlink:title="R312">
<polygon fill="cornsilk" stroke="none" points="1267,-59.4 1173,-59.4 1173,-12.4 1267,-12.4 1267,-59.4"/>
<text text-anchor="middle" x="1220" y="-27.4" font-family="Times New Roman,serif" font-size="35.00">R312</text>
</a>
</g>
</g>
<!-- R26&#45;&gt;R312 -->
<g id="edge38" class="edge">
<title>R26&#45;&gt;R312</title>
<path fill="none" stroke="black" d="M630.26,-1117.46C632.13,-961.21 644.48,-75.53 685,-36.9 752.01,26.97 1039.49,-8.21 1162.64,-26.77"/>
<polygon fill="black" stroke="black" points="1161.92,-30.35 1172.33,-28.4 1162.98,-23.43 1161.92,-30.35"/>
<text text-anchor="middle" x="924.5" y="-45.9" font-family="Times New Roman,serif" font-size="30.00"> &#160;&#160;418 &#160;&#160;2% &#160;&#160;2.18e&#45;15 mol/s &#160;&#160;&#160;1.00E+00</text>
</g>
<!-- R1 -->
<g id="node2" class="node">
<title>R1</title>
<g id="a_node2"><a xlink:href="1.svg" xlink:title="R1">
<polygon fill="cornsilk" stroke="none" points="67,-1313.4 9,-1313.4 9,-1266.4 67,-1266.4 67,-1313.4"/>
<text text-anchor="middle" x="38" y="-1281.4" font-family="Times New Roman,serif" font-size="35.00">R1</text>
</a>
</g>
</g>
<!-- R1&#45;&gt;R26 -->
<g id="edge1" class="edge">
<title>R1&#45;&gt;R26</title>
<path fill="none" stroke="black" stroke-width="5" d="M66.81,-1297.87C151.58,-1320.37 410.81,-1375.88 573,-1264.9 599.66,-1246.66 613.54,-1212.36 620.69,-1184.45"/>
<polygon fill="black" stroke="black" stroke-width="5" points="628.37,-1191.69 624.01,-1170.3 611.26,-1188.02 628.37,-1191.69"/>
<text text-anchor="middle" x="333.5" y="-1339.9" font-family="Times New Roman,serif" font-size="30.00"> &#160;&#160;31 &#160;&#160;99% &#160;&#160;2.18e&#45;15 mol/s &#160;&#160;&#160;1.00E+00</text>
</g>
<!-- R13 -->
<g id="node3" class="node">
<title>R13</title>
<g id="a_node3"><a xlink:href="13.svg" xlink:title="R13">
<polygon fill="cornsilk" stroke="none" points="76,-1248.4 0,-1248.4 0,-1201.4 76,-1201.4 76,-1248.4"/>
<text text-anchor="middle" x="38" y="-1216.4" font-family="Times New Roman,serif" font-size="35.00">R13</text>
</a>
</g>
</g>
<!-- R13&#45;&gt;R26 -->
<g id="edge2" class="edge">
<title>R13&#45;&gt;R26</title>
<path fill="none" stroke="black" stroke-width="5" d="M75.89,-1226.16C181.62,-1229.25 483.82,-1234.32 573,-1194.9 581.4,-1191.19 589.25,-1185.59 596.24,-1179.38"/>
<polygon fill="black" stroke="black" stroke-width="5" points="599.16,-1188.81 606.84,-1168.37 586.62,-1176.6 599.16,-1188.81"/>
<text text-anchor="middle" x="333.5" y="-1236.9" font-family="Times New Roman,serif" font-size="30.00"> &#160;&#160;31 &#160;&#160;99% &#160;&#160;2.18e&#45;15 mol/s &#160;&#160;&#160;1.00E+00</text>
</g>
<!-- R6 -->
<g id="node4" class="node">
<title>R6</title>
<g id="a_node4"><a xlink:href="6.svg" xlink:title="R6">
<polygon fill="cornsilk" stroke="none" points="67,-1160.4 9,-1160.4 9,-1113.4 67,-1113.4 67,-1160.4"/>
<text text-anchor="middle" x="38" y="-1128.4" font-family="Times New Roman,serif" font-size="35.00">R6</text>
</a>
</g>
</g>
<!-- R6&#45;&gt;R26 -->
<g id="edge3" class="edge">
<title>R6&#45;&gt;R26</title>
<path fill="none" stroke="black" d="M66.85,-1142.97C75.5,-1144.58 85.11,-1146.1 94,-1146.9 306.03,-1166.02 360.43,-1158.46 573,-1146.9 575.38,-1146.77 577.81,-1146.61 580.26,-1146.43"/>
<polygon fill="black" stroke="black" points="580.4,-1149.84 590.06,-1145.49 579.8,-1142.87 580.4,-1149.84"/>
<text text-anchor="middle" x="333.5" y="-1166.9" font-family="Times New Roman,serif" font-size="30.00"> &#160;&#160;98 &#160;&#160;0% &#160;&#160;2.2e&#45;26 mol/s &#160;&#160;&#160;1.00E+00</text>
</g>
<!-- R6&#45;&gt;R26 -->
<g id="edge40" class="edge">
<title>R6&#45;&gt;R26</title>
<path fill="none" stroke="black" d="M66.91,-1120.16C75.32,-1115.96 84.78,-1112.04 94,-1109.9 145.84,-1097.86 521.52,-1096.39 573,-1109.9 576.18,-1110.74 579.38,-1111.8 582.54,-1113.04"/>
<polygon fill="black" stroke="black" points="580.88,-1116.58 591.44,-1117.45 583.73,-1110.18 580.88,-1116.58"/>
<text text-anchor="middle" x="333.5" y="-1118.9" font-family="Times New Roman,serif" font-size="30.00"> &#160;&#160;430 &#160;&#160;0% &#160;&#160;3.01e&#45;22 mol/s &#160;&#160;&#160;7.31E&#45;05</text>
</g>
<!-- R15 -->
<g id="node40" class="node">
<title>R15</title>
<g id="a_node40"><a xlink:href="15.svg" xlink:title="R15">
<polygon fill="cornsilk" stroke="none" points="76,-1052.4 0,-1052.4 0,-1005.4 76,-1005.4 76,-1052.4"/>
<text text-anchor="middle" x="38" y="-1020.4" font-family="Times New Roman,serif" font-size="35.00">R15</text>
</a>
</g>
</g>
<!-- R15&#45;&gt;R26 -->
<g id="edge39" class="edge">
<title>R15&#45;&gt;R26</title>
<path fill="none" stroke="black" d="M75.96,-1033.19C81.98,-1033.82 88.16,-1034.41 94,-1034.9 147.13,-1039.35 526.41,-1036.99 573,-1062.9 591.04,-1072.93 604.54,-1091.67 613.66,-1108.26"/>
<polygon fill="black" stroke="black" points="610.83,-1109.41 618.52,-1116.7 617.05,-1106.21 610.83,-1109.41"/>
<text text-anchor="middle" x="333.5" y="-1071.9" font-family="Times New Roman,serif" font-size="30.00"> &#160;&#160;420 &#160;&#160;0% &#160;&#160;1.39e&#45;26 mol/s &#160;&#160;&#160;7.31E&#45;01</text>
</g>
<!-- R15&#45;&gt;R26 -->
<g id="edge41" class="edge">
<title>R15&#45;&gt;R26</title>
<path fill="none" stroke="black" d="M74.56,-1005.45C80.81,-1002.34 87.43,-999.63 94,-997.9 299.92,-943.87 397.51,-877.38 573,-997.9 608.36,-1022.19 621,-1072.63 625.51,-1106.63"/>
<polygon fill="black" stroke="black" points="622.13,-1106.93 626.74,-1116.47 629.09,-1106.13 622.13,-1106.93"/>
<text text-anchor="middle" x="333.5" y="-1006.9" font-family="Times New Roman,serif" font-size="30.00"> &#160;&#160;431 &#160;&#160;0% &#160;&#160;3.8e&#45;26 mol/s &#160;&#160;&#160;2.69E&#45;01</text>
</g>
</g>
</svg>
