<?xml version="1.0" encoding="UTF-8" standalone="no"?>
<!DOCTYPE svg PUBLIC "-//W3C//DTD SVG 1.1//EN"
 "http://www.w3.org/Graphics/SVG/1.1/DTD/svg11.dtd">
<!-- Generated by graphviz version 8.0.3 (20230416.2022)
 -->
<!-- Title: G Pages: 1 -->
<svg width="455pt" height="640pt"
 viewBox="0.00 0.00 511.90 720.00" xmlns="http://www.w3.org/2000/svg" xmlns:xlink="http://www.w3.org/1999/xlink">
<g id="graph0" class="graph" transform="scale(0.36286 0.36286) rotate(0) translate(4 1759.77)">
<title>G</title>
<polygon fill="white" stroke="none" points="-4,4 -4,-1759.77 1250,-1759.77 1250,4 -4,4"/>
<text text-anchor="middle" x="623" y="-1722.97" font-family="Arial" font-size="36.00" fill="blue">Reaction Path Analysis</text>
<!-- R26 -->
<g id="node1" class="node">
<title>R26</title>
<g id="a_node1"><a xlink:href="26.svg" xlink:title="R26">
<polygon fill="cornsilk" stroke="none" points="661,-868.27 585,-868.27 585,-821.27 661,-821.27 661,-868.27"/>
<text text-anchor="middle" x="623" y="-836.27" font-family="Times New Roman,serif" font-size="35.00">R26</text>
</a>
</g>
</g>
<!-- R28 -->
<g id="node5" class="node">
<title>R28</title>
<g id="a_node5"><a xlink:href="28.svg" xlink:title="R28">
<polygon fill="cornsilk" stroke="none" points="1237,-1681.27 1161,-1681.27 1161,-1634.27 1237,-1634.27 1237,-1681.27"/>
<text text-anchor="middle" x="1199" y="-1649.27" font-family="Times New Roman,serif" font-size="35.00">R28</text>
</a>
</g>
</g>
<!-- R26&#45;&gt;R28 -->
<g id="edge4" class="edge">
<title>R26&#45;&gt;R28</title>
<path fill="none" stroke="black" d="M623.94,-868.17C623.86,-993.02 626.5,-1577.09 682.5,-1631.77 747.8,-1695.53 1035.61,-1674.28 1150.45,-1662.93"/>
<polygon fill="black" stroke="black" points="1150.73,-1666.32 1160.33,-1661.84 1150.03,-1659.36 1150.73,-1666.32"/>
<text text-anchor="middle" x="911" y="-1683.77" font-family="Times New Roman,serif" font-size="30.00"> &#160;&#160;112 &#160;&#160;4% &#160;&#160;0.0342 mol/s &#160;&#160;&#160;1.00E+00</text>
</g>
<!-- R29 -->
<g id="node6" class="node">
<title>R29</title>
<g id="a_node6"><a xlink:href="29.svg" xlink:title="R29">
<polygon fill="cornsilk" stroke="none" points="1237,-1616.27 1161,-1616.27 1161,-1569.27 1237,-1569.27 1237,-1616.27"/>
<text text-anchor="middle" x="1199" y="-1584.27" font-family="Times New Roman,serif" font-size="35.00">R29</text>
</a>
</g>
</g>
<!-- R26&#45;&gt;R29 -->
<g id="edge5" class="edge">
<title>R26&#45;&gt;R29</title>
<path fill="none" stroke="black" d="M624.11,-868.12C624.91,-986.45 631.33,-1516.04 682.5,-1565.77 715.61,-1597.94 1029.43,-1595.81 1150.59,-1593.76"/>
<polygon fill="black" stroke="black" points="1150.43,-1597.24 1160.36,-1593.57 1150.3,-1590.24 1150.43,-1597.24"/>
<text text-anchor="middle" x="911" y="-1603.77" font-family="Times New Roman,serif" font-size="30.00"> &#160;&#160;113 &#160;&#160;4% &#160;&#160;0.0342 mol/s &#160;&#160;&#160;1.00E+00</text>
</g>
<!-- R117 -->
<g id="node7" class="node">
<title>R117</title>
<g id="a_node7"><a xlink:href="117.svg" xlink:title="R117">
<polygon fill="cornsilk" stroke="none" points="1246,-1551.27 1152,-1551.27 1152,-1504.27 1246,-1504.27 1246,-1551.27"/>
<text text-anchor="middle" x="1199" y="-1519.27" font-family="Times New Roman,serif" font-size="35.00">R117</text>
</a>
</g>
</g>
<!-- R26&#45;&gt;R117 -->
<g id="edge6" class="edge">
<title>R26&#45;&gt;R117</title>
<path fill="none" stroke="black" d="M624.31,-868.2C626.03,-980.05 636.04,-1455.98 682.5,-1500.77 714.94,-1532.04 1014.63,-1530.84 1141.59,-1528.89"/>
<polygon fill="black" stroke="black" points="1141.3,-1532.38 1151.24,-1528.71 1141.19,-1525.38 1141.3,-1532.38"/>
<text text-anchor="middle" x="911" y="-1537.77" font-family="Times New Roman,serif" font-size="30.00"> &#160;&#160;167 &#160;&#160;4% &#160;&#160;0.0342 mol/s &#160;&#160;&#160;1.00E+00</text>
</g>
<!-- R118 -->
<g id="node8" class="node">
<title>R118</title>
<g id="a_node8"><a xlink:href="118.svg" xlink:title="R118">
<polygon fill="cornsilk" stroke="none" points="1246,-1486.27 1152,-1486.27 1152,-1439.27 1246,-1439.27 1246,-1486.27"/>
<text text-anchor="middle" x="1199" y="-1454.27" font-family="Times New Roman,serif" font-size="35.00">R118</text>
</a>
</g>
</g>
<!-- R26&#45;&gt;R118 -->
<g id="edge7" class="edge">
<title>R26&#45;&gt;R118</title>
<path fill="none" stroke="black" d="M624.55,-867.94C627.24,-972.37 640.69,-1395.85 682.5,-1435.77 715.1,-1466.88 1014.7,-1465.77 1141.61,-1463.86"/>
<polygon fill="black" stroke="black" points="1141.32,-1467.35 1151.26,-1463.7 1141.2,-1460.35 1141.32,-1467.35"/>
<text text-anchor="middle" x="911" y="-1472.77" font-family="Times New Roman,serif" font-size="30.00"> &#160;&#160;168 &#160;&#160;4% &#160;&#160;0.0342 mol/s &#160;&#160;&#160;1.00E+00</text>
</g>
<!-- R119 -->
<g id="node9" class="node">
<title>R119</title>
<g id="a_node9"><a xlink:href="119.svg" xlink:title="R119">
<polygon fill="cornsilk" stroke="none" points="1246,-1421.27 1152,-1421.27 1152,-1374.27 1246,-1374.27 1246,-1421.27"/>
<text text-anchor="middle" x="1199" y="-1389.27" font-family="Times New Roman,serif" font-size="35.00">R119</text>
</a>
</g>
</g>
<!-- R26&#45;&gt;R119 -->
<g id="edge8" class="edge">
<title>R26&#45;&gt;R119</title>
<path fill="none" stroke="black" d="M624.85,-867.96C628.62,-965.08 645.36,-1335.74 682.5,-1370.77 715.28,-1401.69 1014.78,-1400.69 1141.64,-1398.84"/>
<polygon fill="black" stroke="black" points="1141.33,-1402.33 1151.28,-1398.67 1141.23,-1395.33 1141.33,-1402.33"/>
<text text-anchor="middle" x="911" y="-1407.77" font-family="Times New Roman,serif" font-size="30.00"> &#160;&#160;169 &#160;&#160;3% &#160;&#160;0.0341 mol/s &#160;&#160;&#160;9.96E&#45;01</text>
</g>
<!-- R130 -->
<g id="node10" class="node">
<title>R130</title>
<g id="a_node10"><a xlink:href="130.svg" xlink:title="R130">
<polygon fill="cornsilk" stroke="none" points="1246,-1356.27 1152,-1356.27 1152,-1309.27 1246,-1309.27 1246,-1356.27"/>
<text text-anchor="middle" x="1199" y="-1324.27" font-family="Times New Roman,serif" font-size="35.00">R130</text>
</a>
</g>
</g>
<!-- R26&#45;&gt;R130 -->
<g id="edge9" class="edge">
<title>R26&#45;&gt;R130</title>
<path fill="none" stroke="black" d="M625.23,-868.06C630.2,-957.54 650.02,-1275.6 682.5,-1305.77 715.52,-1336.43 1014.88,-1335.58 1141.67,-1333.8"/>
<polygon fill="black" stroke="black" points="1141.36,-1337.29 1151.31,-1333.65 1141.26,-1330.29 1141.36,-1337.29"/>
<text text-anchor="middle" x="911" y="-1342.77" font-family="Times New Roman,serif" font-size="30.00"> &#160;&#160;238 &#160;&#160;4% &#160;&#160;0.0342 mol/s &#160;&#160;&#160;1.00E+00</text>
</g>
<!-- R131 -->
<g id="node11" class="node">
<title>R131</title>
<g id="a_node11"><a xlink:href="131.svg" xlink:title="R131">
<polygon fill="cornsilk" stroke="none" points="1246,-1291.27 1152,-1291.27 1152,-1244.27 1246,-1244.27 1246,-1291.27"/>
<text text-anchor="middle" x="1199" y="-1259.27" font-family="Times New Roman,serif" font-size="35.00">R131</text>
</a>
</g>
</g>
<!-- R26&#45;&gt;R131 -->
<g id="edge10" class="edge">
<title>R26&#45;&gt;R131</title>
<path fill="none" stroke="black" d="M623.77,-868.12C623.54,-945.35 627.24,-1190.49 682.5,-1240.77 715.83,-1271.09 1015.01,-1270.43 1141.71,-1268.76"/>
<polygon fill="black" stroke="black" points="1141.39,-1272.25 1151.34,-1268.61 1141.29,-1265.25 1141.39,-1272.25"/>
<text text-anchor="middle" x="911" y="-1277.77" font-family="Times New Roman,serif" font-size="30.00"> &#160;&#160;239 &#160;&#160;4% &#160;&#160;0.0342 mol/s &#160;&#160;&#160;1.00E+00</text>
</g>
<!-- R140 -->
<g id="node13" class="node">
<title>R140</title>
<g id="a_node13"><a xlink:href="140.svg" xlink:title="R140">
<polygon fill="cornsilk" stroke="none" points="1246,-1226.27 1152,-1226.27 1152,-1179.27 1246,-1179.27 1246,-1226.27"/>
<text text-anchor="middle" x="1199" y="-1194.27" font-family="Times New Roman,serif" font-size="35.00">R140</text>
</a>
</g>
</g>
<!-- R26&#45;&gt;R140 -->
<g id="edge12" class="edge">
<title>R26&#45;&gt;R140</title>
<path fill="none" stroke="black" d="M624.53,-868C626.6,-936.28 636.55,-1134.07 682.5,-1174.77 716.24,-1204.65 1015.19,-1204.86 1141.77,-1203.58"/>
<polygon fill="black" stroke="black" points="1141.43,-1207.07 1151.39,-1203.46 1141.35,-1200.07 1141.43,-1207.07"/>
<text text-anchor="middle" x="911" y="-1212.77" font-family="Times New Roman,serif" font-size="30.00"> &#160;&#160;281 &#160;&#160;4% &#160;&#160;0.0342 mol/s &#160;&#160;&#160;1.00E+00</text>
</g>
<!-- R141 -->
<g id="node14" class="node">
<title>R141</title>
<g id="a_node14"><a xlink:href="141.svg" xlink:title="R141">
<polygon fill="cornsilk" stroke="none" points="1246,-1161.27 1152,-1161.27 1152,-1114.27 1246,-1114.27 1246,-1161.27"/>
<text text-anchor="middle" x="1199" y="-1129.27" font-family="Times New Roman,serif" font-size="35.00">R141</text>
</a>
</g>
</g>
<!-- R26&#45;&gt;R141 -->
<g id="edge13" class="edge">
<title>R26&#45;&gt;R141</title>
<path fill="none" stroke="black" d="M625.62,-867.98C630.24,-926.64 645.6,-1078.43 682.5,-1109.77 716.82,-1138.9 1014.73,-1139.55 1141.4,-1138.48"/>
<polygon fill="black" stroke="black" points="1141.06,-1141.98 1151.02,-1138.38 1140.99,-1134.98 1141.06,-1141.98"/>
<text text-anchor="middle" x="911" y="-1146.77" font-family="Times New Roman,serif" font-size="30.00"> &#160;&#160;282 &#160;&#160;4% &#160;&#160;0.0342 mol/s &#160;&#160;&#160;1.00E+00</text>
</g>
<!-- R218 -->
<g id="node15" class="node">
<title>R218</title>
<g id="a_node15"><a xlink:href="218.svg" xlink:title="R218">
<polygon fill="cornsilk" stroke="none" points="1246,-1096.27 1152,-1096.27 1152,-1049.27 1246,-1049.27 1246,-1096.27"/>
<text text-anchor="middle" x="1199" y="-1064.27" font-family="Times New Roman,serif" font-size="35.00">R218</text>
</a>
</g>
</g>
<!-- R26&#45;&gt;R218 -->
<g id="edge14" class="edge">
<title>R26&#45;&gt;R218</title>
<path fill="none" stroke="black" d="M627.36,-867.97C634.82,-915.95 654.37,-1023.48 682.5,-1045.77 717.75,-1073.69 1014.55,-1074.42 1141.15,-1073.44"/>
<polygon fill="black" stroke="black" points="1141.16,-1076.93 1151.13,-1073.35 1141.11,-1069.93 1141.16,-1076.93"/>
<text text-anchor="middle" x="911" y="-1081.77" font-family="Times New Roman,serif" font-size="30.00"> &#160;&#160;283 &#160;&#160;4% &#160;&#160;0.0342 mol/s &#160;&#160;&#160;9.99E&#45;01</text>
</g>
<!-- R149 -->
<g id="node16" class="node">
<title>R149</title>
<g id="a_node16"><a xlink:href="149.svg" xlink:title="R149">
<polygon fill="cornsilk" stroke="none" points="1246,-1031.27 1152,-1031.27 1152,-984.27 1246,-984.27 1246,-1031.27"/>
<text text-anchor="middle" x="1199" y="-999.27" font-family="Times New Roman,serif" font-size="35.00">R149</text>
</a>
</g>
</g>
<!-- R26&#45;&gt;R149 -->
<g id="edge15" class="edge">
<title>R26&#45;&gt;R149</title>
<path fill="none" stroke="black" d="M626.24,-868.09C630.72,-900.4 643.95,-957.84 682.5,-984.77 719.35,-1010.51 1015.24,-1010.02 1141.37,-1008.61"/>
<polygon fill="black" stroke="black" points="1141.36,-1012.1 1151.32,-1008.48 1141.28,-1005.1 1141.36,-1012.1"/>
<text text-anchor="middle" x="911" y="-1017.77" font-family="Times New Roman,serif" font-size="30.00"> &#160;&#160;301 &#160;&#160;4% &#160;&#160;0.0342 mol/s &#160;&#160;&#160;1.00E+00</text>
</g>
<!-- R150 -->
<g id="node17" class="node">
<title>R150</title>
<g id="a_node17"><a xlink:href="150.svg" xlink:title="R150">
<polygon fill="cornsilk" stroke="none" points="1246,-966.27 1152,-966.27 1152,-919.27 1246,-919.27 1246,-966.27"/>
<text text-anchor="middle" x="1199" y="-934.27" font-family="Times New Roman,serif" font-size="35.00">R150</text>
</a>
</g>
</g>
<!-- R26&#45;&gt;R150 -->
<g id="edge16" class="edge">
<title>R26&#45;&gt;R150</title>
<path fill="none" stroke="black" d="M636.51,-868.05C646.59,-884.26 662.39,-904.69 682.5,-914.77 761.49,-954.34 1024.53,-949.57 1141.31,-945.28"/>
<polygon fill="black" stroke="black" points="1141.28,-948.75 1151.14,-944.87 1141.01,-941.75 1141.28,-948.75"/>
<text text-anchor="middle" x="911" y="-956.77" font-family="Times New Roman,serif" font-size="30.00"> &#160;&#160;302 &#160;&#160;3% &#160;&#160;0.0309 mol/s &#160;&#160;&#160;9.12E&#45;01</text>
</g>
<!-- R156 -->
<g id="node18" class="node">
<title>R156</title>
<g id="a_node18"><a xlink:href="156.svg" xlink:title="R156">
<polygon fill="cornsilk" stroke="none" points="1246,-901.27 1152,-901.27 1152,-854.27 1246,-854.27 1246,-901.27"/>
<text text-anchor="middle" x="1199" y="-869.27" font-family="Times New Roman,serif" font-size="35.00">R156</text>
</a>
</g>
</g>
<!-- R26&#45;&gt;R156 -->
<g id="edge17" class="edge">
<title>R26&#45;&gt;R156</title>
<path fill="none" stroke="black" d="M660.7,-852.5C667.9,-853.78 675.42,-854.95 682.5,-855.77 848.57,-874.82 1046.45,-877.79 1141.52,-877.99"/>
<polygon fill="black" stroke="black" points="1141.31,-881.49 1151.32,-878.01 1141.32,-874.49 1141.31,-881.49"/>
<text text-anchor="middle" x="911" y="-886.77" font-family="Times New Roman,serif" font-size="30.00"> &#160;&#160;312 &#160;&#160;4% &#160;&#160;0.0342 mol/s &#160;&#160;&#160;1.00E+00</text>
</g>
<!-- R157 -->
<g id="node19" class="node">
<title>R157</title>
<g id="a_node19"><a xlink:href="157.svg" xlink:title="R157">
<polygon fill="cornsilk" stroke="none" points="1246,-836.27 1152,-836.27 1152,-789.27 1246,-789.27 1246,-836.27"/>
<text text-anchor="middle" x="1199" y="-804.27" font-family="Times New Roman,serif" font-size="35.00">R157</text>
</a>
</g>
</g>
<!-- R26&#45;&gt;R157 -->
<g id="edge18" class="edge">
<title>R26&#45;&gt;R157</title>
<path fill="none" stroke="black" d="M660.9,-828.74C667.95,-826.29 675.36,-824.14 682.5,-822.77 846.76,-791.25 1045.86,-800.41 1141.44,-807.66"/>
<polygon fill="black" stroke="black" points="1141.05,-811.22 1151.3,-808.51 1141.6,-804.24 1141.05,-811.22"/>
<text text-anchor="middle" x="911" y="-831.77" font-family="Times New Roman,serif" font-size="30.00"> &#160;&#160;313 &#160;&#160;4% &#160;&#160;0.0342 mol/s &#160;&#160;&#160;1.00E+00</text>
</g>
<!-- R159 -->
<g id="node20" class="node">
<title>R159</title>
<g id="a_node20"><a xlink:href="159.svg" xlink:title="R159">
<polygon fill="cornsilk" stroke="none" points="1246,-771.27 1152,-771.27 1152,-724.27 1246,-724.27 1246,-771.27"/>
<text text-anchor="middle" x="1199" y="-739.27" font-family="Times New Roman,serif" font-size="35.00">R159</text>
</a>
</g>
</g>
<!-- R26&#45;&gt;R159 -->
<g id="edge19" class="edge">
<title>R26&#45;&gt;R159</title>
<path fill="none" stroke="black" d="M633.51,-821.36C642.82,-801.84 659.05,-775.28 682.5,-762.77 760.46,-721.17 1024.66,-734.8 1141.56,-743.22"/>
<polygon fill="black" stroke="black" points="1141.17,-746.78 1151.4,-744.02 1141.68,-739.8 1141.17,-746.78"/>
<text text-anchor="middle" x="911" y="-771.77" font-family="Times New Roman,serif" font-size="30.00"> &#160;&#160;318 &#160;&#160;4% &#160;&#160;0.0342 mol/s &#160;&#160;&#160;1.00E+00</text>
</g>
<!-- R160 -->
<g id="node21" class="node">
<title>R160</title>
<g id="a_node21"><a xlink:href="160.svg" xlink:title="R160">
<polygon fill="cornsilk" stroke="none" points="1246,-706.27 1152,-706.27 1152,-659.27 1246,-659.27 1246,-706.27"/>
<text text-anchor="middle" x="1199" y="-674.27" font-family="Times New Roman,serif" font-size="35.00">R160</text>
</a>
</g>
</g>
<!-- R26&#45;&gt;R160 -->
<g id="edge20" class="edge">
<title>R26&#45;&gt;R160</title>
<path fill="none" stroke="black" d="M625.57,-821.48C629.25,-787.55 641.53,-725.44 682.5,-696.77 755.05,-645.98 1023.3,-665.32 1141.47,-676.74"/>
<polygon fill="black" stroke="black" points="1140.8,-680.29 1151.09,-677.78 1141.48,-673.32 1140.8,-680.29"/>
<text text-anchor="middle" x="911" y="-705.77" font-family="Times New Roman,serif" font-size="30.00"> &#160;&#160;319 &#160;&#160;2% &#160;&#160;0.0224 mol/s &#160;&#160;&#160;7.44E&#45;01</text>
</g>
<!-- R164 -->
<g id="node24" class="node">
<title>R164</title>
<g id="a_node24"><a xlink:href="164.svg" xlink:title="R164">
<polygon fill="cornsilk" stroke="none" points="1246,-641.27 1152,-641.27 1152,-594.27 1246,-594.27 1246,-641.27"/>
<text text-anchor="middle" x="1199" y="-609.27" font-family="Times New Roman,serif" font-size="35.00">R164</text>
</a>
</g>
</g>
<!-- R26&#45;&gt;R164 -->
<g id="edge23" class="edge">
<title>R26&#45;&gt;R164</title>
<path fill="none" stroke="black" d="M626.72,-821.39C633.22,-770.02 651.47,-649.98 682.5,-625.77 752.38,-571.23 1022.71,-596.29 1141.49,-610.43"/>
<polygon fill="black" stroke="black" points="1140.81,-614 1151.16,-611.72 1141.65,-607.05 1140.81,-614"/>
<text text-anchor="middle" x="911" y="-634.77" font-family="Times New Roman,serif" font-size="30.00"> &#160;&#160;333 &#160;&#160;3% &#160;&#160;0.0341 mol/s &#160;&#160;&#160;9.96E&#45;01</text>
</g>
<!-- R246 -->
<g id="node25" class="node">
<title>R246</title>
<g id="a_node25"><a xlink:href="246.svg" xlink:title="R246">
<polygon fill="cornsilk" stroke="none" points="1246,-576.27 1152,-576.27 1152,-529.27 1246,-529.27 1246,-576.27"/>
<text text-anchor="middle" x="1199" y="-544.27" font-family="Times New Roman,serif" font-size="35.00">R246</text>
</a>
</g>
</g>
<!-- R26&#45;&gt;R246 -->
<g id="edge24" class="edge">
<title>R26&#45;&gt;R246</title>
<path fill="none" stroke="black" d="M625.05,-821.58C628.4,-758.93 641.23,-588.68 682.5,-554.77 717.23,-526.23 1014.91,-541.25 1141.45,-549.04"/>
<polygon fill="black" stroke="black" points="1140.87,-552.57 1151.07,-549.7 1141.31,-545.58 1140.87,-552.57"/>
<text text-anchor="middle" x="911" y="-563.77" font-family="Times New Roman,serif" font-size="30.00"> &#160;&#160;334 &#160;&#160;3% &#160;&#160;0.0326 mol/s &#160;&#160;&#160;9.55E&#45;01</text>
</g>
<!-- R170 -->
<g id="node26" class="node">
<title>R170</title>
<g id="a_node26"><a xlink:href="170.svg" xlink:title="R170">
<polygon fill="cornsilk" stroke="none" points="1246,-511.27 1152,-511.27 1152,-464.27 1246,-464.27 1246,-511.27"/>
<text text-anchor="middle" x="1199" y="-479.27" font-family="Times New Roman,serif" font-size="35.00">R170</text>
</a>
</g>
</g>
<!-- R26&#45;&gt;R170 -->
<g id="edge25" class="edge">
<title>R26&#45;&gt;R170</title>
<path fill="none" stroke="black" d="M624.29,-821.5C625.7,-751.13 633.96,-542.81 682.5,-500.77 749.6,-442.65 1022.08,-466.77 1141.48,-480.59"/>
<polygon fill="black" stroke="black" points="1140.87,-484.16 1151.21,-481.86 1141.69,-477.21 1140.87,-484.16"/>
<text text-anchor="middle" x="911" y="-509.77" font-family="Times New Roman,serif" font-size="30.00"> &#160;&#160;378 &#160;&#160;4% &#160;&#160;0.0342 mol/s &#160;&#160;&#160;1.00E+00</text>
</g>
<!-- R280 -->
<g id="node28" class="node">
<title>R280</title>
<g id="a_node28"><a xlink:href="280.svg" xlink:title="R280">
<polygon fill="cornsilk" stroke="none" points="1246,-446.27 1152,-446.27 1152,-399.27 1246,-399.27 1246,-446.27"/>
<text text-anchor="middle" x="1199" y="-414.27" font-family="Times New Roman,serif" font-size="35.00">R280</text>
</a>
</g>
</g>
<!-- R26&#45;&gt;R280 -->
<g id="edge27" class="edge">
<title>R26&#45;&gt;R280</title>
<path fill="none" stroke="black" d="M623.47,-821.38C622.2,-740.99 622.74,-478.07 682.5,-425.77 716.37,-396.13 1015.24,-411.21 1141.79,-419.04"/>
<polygon fill="black" stroke="black" points="1141.2,-422.57 1151.4,-419.7 1141.64,-415.58 1141.2,-422.57"/>
<text text-anchor="middle" x="911" y="-434.77" font-family="Times New Roman,serif" font-size="30.00"> &#160;&#160;380 &#160;&#160;3% &#160;&#160;0.0326 mol/s &#160;&#160;&#160;9.55E&#45;01</text>
</g>
<!-- R302 -->
<g id="node32" class="node">
<title>R302</title>
<g id="a_node32"><a xlink:href="302.svg" xlink:title="R302">
<polygon fill="cornsilk" stroke="none" points="1246,-381.27 1152,-381.27 1152,-334.27 1246,-334.27 1246,-381.27"/>
<text text-anchor="middle" x="1199" y="-349.27" font-family="Times New Roman,serif" font-size="35.00">R302</text>
</a>
</g>
</g>
<!-- R26&#45;&gt;R302 -->
<g id="edge31" class="edge">
<title>R26&#45;&gt;R302</title>
<path fill="none" stroke="black" d="M625.13,-821.46C629.78,-730.44 648.78,-402.4 682.5,-371.77 748.21,-312.07 1021.45,-336.46 1141.27,-350.48"/>
<polygon fill="black" stroke="black" points="1140.69,-354.06 1151.03,-351.76 1141.52,-347.11 1140.69,-354.06"/>
<text text-anchor="middle" x="911" y="-380.77" font-family="Times New Roman,serif" font-size="30.00"> &#160;&#160;408 &#160;&#160;3% &#160;&#160;0.0314 mol/s &#160;&#160;&#160;9.24E&#45;01</text>
</g>
<!-- R305 -->
<g id="node33" class="node">
<title>R305</title>
<g id="a_node33"><a xlink:href="305.svg" xlink:title="R305">
<polygon fill="cornsilk" stroke="none" points="1246,-316.27 1152,-316.27 1152,-269.27 1246,-269.27 1246,-316.27"/>
<text text-anchor="middle" x="1199" y="-284.27" font-family="Times New Roman,serif" font-size="35.00">R305</text>
</a>
</g>
</g>
<!-- R26&#45;&gt;R305 -->
<g id="edge32" class="edge">
<title>R26&#45;&gt;R305</title>
<path fill="none" stroke="black" d="M624.7,-821.58C627.92,-721.82 642.97,-332.58 682.5,-296.77 715.85,-266.55 1015.02,-281.35 1141.72,-289.07"/>
<polygon fill="black" stroke="black" points="1141.15,-292.61 1151.34,-289.73 1141.58,-285.62 1141.15,-292.61"/>
<text text-anchor="middle" x="911" y="-305.77" font-family="Times New Roman,serif" font-size="30.00"> &#160;&#160;411 &#160;&#160;3% &#160;&#160;0.0341 mol/s &#160;&#160;&#160;9.97E&#45;01</text>
</g>
<!-- R306 -->
<g id="node34" class="node">
<title>R306</title>
<g id="a_node34"><a xlink:href="306.svg" xlink:title="R306">
<polygon fill="cornsilk" stroke="none" points="1246,-251.27 1152,-251.27 1152,-204.27 1246,-204.27 1246,-251.27"/>
<text text-anchor="middle" x="1199" y="-219.27" font-family="Times New Roman,serif" font-size="35.00">R306</text>
</a>
</g>
</g>
<!-- R26&#45;&gt;R306 -->
<g id="edge33" class="edge">
<title>R26&#45;&gt;R306</title>
<path fill="none" stroke="black" d="M624.48,-821.45C626.89,-715.41 639.33,-282.03 682.5,-241.77 747.5,-181.14 1021.77,-206.13 1141.59,-220.41"/>
<polygon fill="black" stroke="black" points="1141,-223.98 1151.35,-221.71 1141.84,-217.03 1141,-223.98"/>
<text text-anchor="middle" x="911" y="-250.77" font-family="Times New Roman,serif" font-size="30.00"> &#160;&#160;412 &#160;&#160;3% &#160;&#160;0.0337 mol/s &#160;&#160;&#160;9.87E&#45;01</text>
</g>
<!-- R308 -->
<g id="node35" class="node">
<title>R308</title>
<g id="a_node35"><a xlink:href="308.svg" xlink:title="R308">
<polygon fill="cornsilk" stroke="none" points="1246,-186.27 1152,-186.27 1152,-139.27 1246,-139.27 1246,-186.27"/>
<text text-anchor="middle" x="1199" y="-154.27" font-family="Times New Roman,serif" font-size="35.00">R308</text>
</a>
</g>
</g>
<!-- R26&#45;&gt;R308 -->
<g id="edge34" class="edge">
<title>R26&#45;&gt;R308</title>
<path fill="none" stroke="black" d="M624.19,-821.64C625.38,-707.98 633.38,-212.18 682.5,-166.77 715.54,-136.21 1014.89,-151.2 1141.67,-159.03"/>
<polygon fill="black" stroke="black" points="1141.11,-162.56 1151.31,-159.69 1141.55,-155.58 1141.11,-162.56"/>
<text text-anchor="middle" x="911" y="-175.77" font-family="Times New Roman,serif" font-size="30.00"> &#160;&#160;414 &#160;&#160;2% &#160;&#160;0.0209 mol/s &#160;&#160;&#160;7.20E&#45;01</text>
</g>
<!-- R311 -->
<g id="node38" class="node">
<title>R311</title>
<g id="a_node38"><a xlink:href="311.svg" xlink:title="R311">
<polygon fill="cornsilk" stroke="none" points="1246,-121.27 1152,-121.27 1152,-74.27 1246,-74.27 1246,-121.27"/>
<text text-anchor="middle" x="1199" y="-89.27" font-family="Times New Roman,serif" font-size="35.00">R311</text>
</a>
</g>
</g>
<!-- R26&#45;&gt;R311 -->
<g id="edge37" class="edge">
<title>R26&#45;&gt;R311</title>
<path fill="none" stroke="black" d="M624.06,-821.39C624.57,-701.77 629.83,-161.74 682.5,-111.77 746.98,-50.59 1021.53,-75.89 1141.51,-90.32"/>
<polygon fill="black" stroke="black" points="1140.93,-93.9 1151.29,-91.64 1141.78,-86.95 1140.93,-93.9"/>
<text text-anchor="middle" x="911" y="-120.77" font-family="Times New Roman,serif" font-size="30.00"> &#160;&#160;417 &#160;&#160;4% &#160;&#160;0.0342 mol/s &#160;&#160;&#160;1.00E+00</text>
</g>
<!-- R312 -->
<g id="node39" class="node">
<title>R312</title>
<g id="a_node39"><a xlink:href="312.svg" xlink:title="R312">
<polygon fill="cornsilk" stroke="none" points="1246,-56.27 1152,-56.27 1152,-9.27 1246,-9.27 1246,-56.27"/>
<text text-anchor="middle" x="1199" y="-24.27" font-family="Times New Roman,serif" font-size="35.00">R312</text>
</a>
</g>
</g>
<!-- R26&#45;&gt;R312 -->
<g id="edge38" class="edge">
<title>R26&#45;&gt;R312</title>
<path fill="none" stroke="black" d="M623.85,-821.5C623.27,-694.74 623.63,-90.85 682.5,-35.77 747.38,24.94 1021.71,-6.71 1141.57,-23.98"/>
<polygon fill="black" stroke="black" points="1140.93,-27.57 1151.34,-25.55 1141.95,-20.64 1140.93,-27.57"/>
<text text-anchor="middle" x="911" y="-44.77" font-family="Times New Roman,serif" font-size="30.00"> &#160;&#160;418 &#160;&#160;3% &#160;&#160;0.0341 mol/s &#160;&#160;&#160;9.99E&#45;01</text>
</g>
<!-- R1 -->
<g id="node2" class="node">
<title>R1</title>
<g id="a_node2"><a xlink:href="1.svg" xlink:title="R1">
<polygon fill="cornsilk" stroke="none" points="76,-1269.27 18,-1269.27 18,-1222.27 76,-1222.27 76,-1269.27"/>
<text text-anchor="middle" x="47" y="-1237.27" font-family="Times New Roman,serif" font-size="35.00">R1</text>
</a>
</g>
</g>
<!-- R1&#45;&gt;R26 -->
<g id="edge1" class="edge">
<title>R1&#45;&gt;R26</title>
<path fill="none" stroke="black" d="M75.88,-1255.03C161.8,-1281.65 425.29,-1348.54 567,-1219.77 616.71,-1174.6 622.11,-962.99 622.26,-879.13"/>
<polygon fill="black" stroke="black" points="625.76,-879.17 622.25,-869.17 618.76,-879.18 625.76,-879.17"/>
<text text-anchor="middle" x="335" y="-1304.77" font-family="Times New Roman,serif" font-size="30.00"> &#160;&#160;31 &#160;&#160;0% &#160;&#160;0.0342 mol/s &#160;&#160;&#160;1.00E+00</text>
</g>
<!-- R13 -->
<g id="node3" class="node">
<title>R13</title>
<g id="a_node3"><a xlink:href="13.svg" xlink:title="R13">
<polygon fill="cornsilk" stroke="none" points="85,-1204.27 9,-1204.27 9,-1157.27 85,-1157.27 85,-1204.27"/>
<text text-anchor="middle" x="47" y="-1172.27" font-family="Times New Roman,serif" font-size="35.00">R13</text>
</a>
</g>
</g>
<!-- R13&#45;&gt;R26 -->
<g id="edge2" class="edge">
<title>R13&#45;&gt;R26</title>
<path fill="none" stroke="black" d="M84.74,-1181.74C197.16,-1184.36 531,-1189.38 567,-1157.77 608.22,-1121.57 618.59,-952.74 621.16,-879.17"/>
<polygon fill="black" stroke="black" points="624.69,-879.33 621.51,-869.22 617.7,-879.1 624.69,-879.33"/>
<text text-anchor="middle" x="335" y="-1191.77" font-family="Times New Roman,serif" font-size="30.00"> &#160;&#160;31 &#160;&#160;0% &#160;&#160;0.0342 mol/s &#160;&#160;&#160;1.00E+00</text>
</g>
<!-- R6 -->
<g id="node4" class="node">
<title>R6</title>
<g id="a_node4"><a xlink:href="6.svg" xlink:title="R6">
<polygon fill="cornsilk" stroke="none" points="76,-1134.27 18,-1134.27 18,-1087.27 76,-1087.27 76,-1134.27"/>
<text text-anchor="middle" x="47" y="-1102.27" font-family="Times New Roman,serif" font-size="35.00">R6</text>
</a>
</g>
</g>
<!-- R6&#45;&gt;R26 -->
<g id="edge3" class="edge">
<title>R6&#45;&gt;R26</title>
<path fill="none" stroke="black" d="M75.7,-1112.31C177.77,-1117.75 528.98,-1134.03 567,-1102.77 601.21,-1074.64 615.12,-941.78 619.88,-878.47"/>
<polygon fill="black" stroke="black" points="623.41,-879.08 620.64,-868.85 616.43,-878.58 623.41,-879.08"/>
<text text-anchor="middle" x="335" y="-1129.77" font-family="Times New Roman,serif" font-size="30.00"> &#160;&#160;98 &#160;&#160;0% &#160;&#160;0.00272 mol/s &#160;&#160;&#160;1.00E+00</text>
</g>
<!-- R6&#45;&gt;R26 -->
<g id="edge40" class="edge">
<title>R6&#45;&gt;R26</title>
<path fill="none" stroke="black" d="M75.76,-1087.74C88.96,-1076.84 102.1,-1066.11 103,-1065.77 151.23,-1047.43 526.65,-1078.93 567,-1046.77 593.15,-1025.92 610.12,-930.69 617.6,-878.77"/>
<polygon fill="black" stroke="black" points="621.18,-879.47 619.09,-869.08 614.24,-878.5 621.18,-879.47"/>
<text text-anchor="middle" x="335" y="-1074.77" font-family="Times New Roman,serif" font-size="30.00"> &#160;&#160;430 &#160;&#160;2% &#160;&#160;127.0 mol/s &#160;&#160;&#160;2.14E&#45;05</text>
</g>
<!-- R182 -->
<g id="node12" class="node">
<title>R182</title>
<g id="a_node12"><a xlink:href="182.svg" xlink:title="R182">
<polygon fill="cornsilk" stroke="none" points="94,-1063.27 0,-1063.27 0,-1016.27 94,-1016.27 94,-1063.27"/>
<text text-anchor="middle" x="47" y="-1031.27" font-family="Times New Roman,serif" font-size="35.00">R182</text>
</a>
</g>
</g>
<!-- R182&#45;&gt;R26 -->
<g id="edge11" class="edge">
<title>R182&#45;&gt;R26</title>
<path fill="none" stroke="black" d="M93.73,-1016.55C96.82,-1015.48 99.93,-1014.54 103,-1013.77 153.07,-1001.22 525.29,-1021.18 567,-990.77 602.55,-964.85 615.13,-913.05 619.58,-878.64"/>
<polygon fill="black" stroke="black" points="623.12,-879.46 620.75,-869.13 616.16,-878.68 623.12,-879.46"/>
<text text-anchor="middle" x="335" y="-1022.77" font-family="Times New Roman,serif" font-size="30.00"> &#160;&#160;240 &#160;&#160;0% &#160;&#160;11.1 mol/s &#160;&#160;&#160;3.06E&#45;03</text>
</g>
<!-- R238 -->
<g id="node22" class="node">
<title>R238</title>
<g id="a_node22"><a xlink:href="238.svg" xlink:title="R238">
<polygon fill="cornsilk" stroke="none" points="94,-998.27 0,-998.27 0,-951.27 94,-951.27 94,-998.27"/>
<text text-anchor="middle" x="47" y="-966.27" font-family="Times New Roman,serif" font-size="35.00">R238</text>
</a>
</g>
</g>
<!-- R238&#45;&gt;R26 -->
<g id="edge21" class="edge">
<title>R238&#45;&gt;R26</title>
<path fill="none" stroke="black" d="M93.71,-959.7C96.83,-958.96 99.95,-958.3 103,-957.77 153.83,-948.8 522.62,-961.12 567,-934.77 588.05,-922.26 602.11,-898.27 610.75,-878.2"/>
<polygon fill="black" stroke="black" points="614.31,-879.73 614.78,-869.15 607.81,-877.13 614.31,-879.73"/>
<text text-anchor="middle" x="335" y="-966.77" font-family="Times New Roman,serif" font-size="30.00"> &#160;&#160;320 &#160;&#160;0% &#160;&#160;1.99 mol/s &#160;&#160;&#160;1.66E&#45;02</text>
</g>
<!-- R163 -->
<g id="node23" class="node">
<title>R163</title>
<g id="a_node23"><a xlink:href="163.svg" xlink:title="R163">
<polygon fill="cornsilk" stroke="none" points="94,-933.27 0,-933.27 0,-886.27 94,-886.27 94,-933.27"/>
<text text-anchor="middle" x="47" y="-901.27" font-family="Times New Roman,serif" font-size="35.00">R163</text>
</a>
</g>
</g>
<!-- R163&#45;&gt;R26 -->
<g id="edge22" class="edge">
<title>R163&#45;&gt;R26</title>
<path fill="none" stroke="black" d="M93.88,-902.76C96.96,-902.39 100.02,-902.06 103,-901.77 205.75,-891.77 468.42,-909.43 567,-878.77 571.59,-877.34 576.17,-875.44 580.64,-873.27"/>
<polygon fill="black" stroke="black" points="582.01,-875.96 589.16,-868.14 578.69,-869.8 582.01,-875.96"/>
<text text-anchor="middle" x="335" y="-910.77" font-family="Times New Roman,serif" font-size="30.00"> &#160;&#160;332 &#160;&#160;0% &#160;&#160;0.0598 mol/s &#160;&#160;&#160;2.67E&#45;01</text>
</g>
<!-- R171 -->
<g id="node27" class="node">
<title>R171</title>
<g id="a_node27"><a xlink:href="171.svg" xlink:title="R171">
<polygon fill="cornsilk" stroke="none" points="94,-868.27 0,-868.27 0,-821.27 94,-821.27 94,-868.27"/>
<text text-anchor="middle" x="47" y="-836.27" font-family="Times New Roman,serif" font-size="35.00">R171</text>
</a>
</g>
</g>
<!-- R171&#45;&gt;R26 -->
<g id="edge26" class="edge">
<title>R171&#45;&gt;R26</title>
<path fill="none" stroke="black" d="M93.52,-844.77C200.19,-844.77 465.46,-844.77 574.28,-844.77"/>
<polygon fill="black" stroke="black" points="574.23,-848.27 584.23,-844.77 574.23,-841.27 574.23,-848.27"/>
<text text-anchor="middle" x="335" y="-853.77" font-family="Times New Roman,serif" font-size="30.00"> &#160;&#160;379 &#160;&#160;0% &#160;&#160;0.304 mol/s &#160;&#160;&#160;9.18E&#45;02</text>
</g>
<!-- R281 -->
<g id="node29" class="node">
<title>R281</title>
<g id="a_node29"><a xlink:href="281.svg" xlink:title="R281">
<polygon fill="cornsilk" stroke="none" points="94,-803.27 0,-803.27 0,-756.27 94,-756.27 94,-803.27"/>
<text text-anchor="middle" x="47" y="-771.27" font-family="Times New Roman,serif" font-size="35.00">R281</text>
</a>
</g>
</g>
<!-- R281&#45;&gt;R26 -->
<g id="edge28" class="edge">
<title>R281&#45;&gt;R26</title>
<path fill="none" stroke="black" d="M93.94,-774.26C186.35,-764.9 400.14,-751.91 567,-807.77 572.94,-809.75 578.85,-812.57 584.46,-815.77"/>
<polygon fill="black" stroke="black" points="582.24,-819.14 592.58,-821.45 585.94,-813.2 582.24,-819.14"/>
<text text-anchor="middle" x="335" y="-816.77" font-family="Times New Roman,serif" font-size="30.00"> &#160;&#160;381 &#160;&#160;0% &#160;&#160;0.194 mol/s &#160;&#160;&#160;1.30E&#45;01</text>
</g>
<!-- R300 -->
<g id="node30" class="node">
<title>R300</title>
<g id="a_node30"><a xlink:href="300.svg" xlink:title="R300">
<polygon fill="cornsilk" stroke="none" points="94,-738.27 0,-738.27 0,-691.27 94,-691.27 94,-738.27"/>
<text text-anchor="middle" x="47" y="-706.27" font-family="Times New Roman,serif" font-size="35.00">R300</text>
</a>
</g>
</g>
<!-- R300&#45;&gt;R26 -->
<g id="edge29" class="edge">
<title>R300&#45;&gt;R26</title>
<path fill="none" stroke="black" d="M93.6,-710.09C205.44,-699.54 489.88,-678.51 567,-728.77 594.9,-746.95 608.97,-783.42 615.85,-810.64"/>
<polygon fill="black" stroke="black" points="612.64,-811.33 618.3,-820.29 619.47,-809.76 612.64,-811.33"/>
<text text-anchor="middle" x="335" y="-737.77" font-family="Times New Roman,serif" font-size="30.00"> &#160;&#160;406 &#160;&#160;0% &#160;&#160;4.31 mol/s &#160;&#160;&#160;7.80E&#45;03</text>
</g>
<!-- R301 -->
<g id="node31" class="node">
<title>R301</title>
<g id="a_node31"><a xlink:href="301.svg" xlink:title="R301">
<polygon fill="cornsilk" stroke="none" points="94,-673.27 0,-673.27 0,-626.27 94,-626.27 94,-673.27"/>
<text text-anchor="middle" x="47" y="-641.27" font-family="Times New Roman,serif" font-size="35.00">R301</text>
</a>
</g>
</g>
<!-- R301&#45;&gt;R26 -->
<g id="edge30" class="edge">
<title>R301&#45;&gt;R26</title>
<path fill="none" stroke="black" stroke-width="5" d="M93.68,-647.53C213.46,-642.07 529.88,-630.53 567,-658.77 589.66,-676 606.38,-751.63 615.12,-800.98"/>
<polygon fill="black" stroke="black" stroke-width="5" points="605.63,-797.23 617.57,-815.5 622.89,-794.33 605.63,-797.23"/>
<text text-anchor="middle" x="335" y="-667.77" font-family="Times New Roman,serif" font-size="30.00"> &#160;&#160;407 &#160;&#160;97% &#160;&#160;5950.0 mol/s &#160;&#160;&#160;5.74E&#45;06</text>
</g>
<!-- R309 -->
<g id="node36" class="node">
<title>R309</title>
<g id="a_node36"><a xlink:href="309.svg" xlink:title="R309">
<polygon fill="cornsilk" stroke="none" points="94,-608.27 0,-608.27 0,-561.27 94,-561.27 94,-608.27"/>
<text text-anchor="middle" x="47" y="-576.27" font-family="Times New Roman,serif" font-size="35.00">R309</text>
</a>
</g>
</g>
<!-- R309&#45;&gt;R26 -->
<g id="edge35" class="edge">
<title>R309&#45;&gt;R26</title>
<path fill="none" stroke="black" d="M93.81,-583.22C213.9,-579.61 531.05,-573.03 567,-602.77 598.66,-628.95 613.67,-750.42 619.27,-810.68"/>
<polygon fill="black" stroke="black" points="615.86,-810.88 620.24,-820.53 622.84,-810.25 615.86,-810.88"/>
<text text-anchor="middle" x="335" y="-611.77" font-family="Times New Roman,serif" font-size="30.00"> &#160;&#160;415 &#160;&#160;0% &#160;&#160;0.0236 mol/s &#160;&#160;&#160;3.72E&#45;01</text>
</g>
<!-- R310 -->
<g id="node37" class="node">
<title>R310</title>
<g id="a_node37"><a xlink:href="310.svg" xlink:title="R310">
<polygon fill="cornsilk" stroke="none" points="94,-543.27 0,-543.27 0,-496.27 94,-496.27 94,-543.27"/>
<text text-anchor="middle" x="47" y="-511.27" font-family="Times New Roman,serif" font-size="35.00">R310</text>
</a>
</g>
</g>
<!-- R310&#45;&gt;R26 -->
<g id="edge36" class="edge">
<title>R310&#45;&gt;R26</title>
<path fill="none" stroke="black" d="M93.9,-518.6C214.2,-515.98 531.83,-512.08 567,-542.77 606.83,-577.52 617.96,-739.77 620.95,-811.04"/>
<polygon fill="black" stroke="black" points="617.48,-810.81 621.36,-820.67 624.47,-810.54 617.48,-810.81"/>
<text text-anchor="middle" x="335" y="-551.77" font-family="Times New Roman,serif" font-size="30.00"> &#160;&#160;416 &#160;&#160;0% &#160;&#160;6.28 mol/s &#160;&#160;&#160;5.39E&#45;03</text>
</g>
<!-- R15 -->
<g id="node40" class="node">
<title>R15</title>
<g id="a_node40"><a xlink:href="15.svg" xlink:title="R15">
<polygon fill="cornsilk" stroke="none" points="85,-464.27 9,-464.27 9,-417.27 85,-417.27 85,-464.27"/>
<text text-anchor="middle" x="47" y="-432.27" font-family="Times New Roman,serif" font-size="35.00">R15</text>
</a>
</g>
</g>
<!-- R15&#45;&gt;R26 -->
<g id="edge39" class="edge">
<title>R15&#45;&gt;R26</title>
<path fill="none" stroke="black" d="M84.74,-451.95C90.8,-453.46 97.04,-454.81 103,-455.77 153.97,-463.94 528.75,-445.09 567,-479.77 615.3,-523.55 621.57,-728.3 622.1,-810.49"/>
<polygon fill="black" stroke="black" points="618.61,-810.48 622.15,-820.47 625.61,-810.46 618.61,-810.48"/>
<text text-anchor="middle" x="335" y="-488.77" font-family="Times New Roman,serif" font-size="30.00"> &#160;&#160;420 &#160;&#160;0% &#160;&#160;0.00236 mol/s &#160;&#160;&#160;8.84E&#45;01</text>
</g>
<!-- R15&#45;&gt;R26 -->
<g id="edge41" class="edge">
<title>R15&#45;&gt;R26</title>
<path fill="none" stroke="black" d="M84.71,-424.1C178.26,-384.45 427.98,-296.54 567,-418.77 596.36,-444.58 614.53,-714.01 620.14,-810.57"/>
<polygon fill="black" stroke="black" points="616.69,-810.68 620.76,-820.46 623.68,-810.28 616.69,-810.68"/>
<text text-anchor="middle" x="335" y="-427.77" font-family="Times New Roman,serif" font-size="30.00"> &#160;&#160;431 &#160;&#160;0% &#160;&#160;0.0181 mol/s &#160;&#160;&#160;1.16E&#45;01</text>
</g>
</g>
</svg>
