<?xml version="1.0" encoding="UTF-8" standalone="no"?>
<!DOCTYPE svg PUBLIC "-//W3C//DTD SVG 1.1//EN"
 "http://www.w3.org/Graphics/SVG/1.1/DTD/svg11.dtd">
<!-- Generated by graphviz version 8.0.3 (20230416.2022)
 -->
<!-- Title: G Pages: 1 -->
<svg width="640pt" height="125pt"
 viewBox="0.00 0.00 720.00 140.99" xmlns="http://www.w3.org/2000/svg" xmlns:xlink="http://www.w3.org/1999/xlink">
<g id="graph0" class="graph" transform="scale(0.479401 0.479401) rotate(0) translate(4 257.42)">
<title>G</title>
<polygon fill="white" stroke="none" points="-4,4 -4,-257.42 1331,-257.42 1331,4 -4,4"/>
<text text-anchor="middle" x="663.5" y="-220.62" font-family="Arial" font-size="36.00" fill="blue">Reaction Path Analysis</text>
<!-- R260 -->
<g id="node1" class="node">
<title>R260</title>
<g id="a_node1"><a xlink:href="260.svg" xlink:title="R260">
<polygon fill="cornsilk" stroke="none" points="706,-127.92 612,-127.92 612,-80.92 706,-80.92 706,-127.92"/>
<text text-anchor="middle" x="659" y="-95.92" font-family="Times New Roman,serif" font-size="35.00">R260</text>
</a>
</g>
</g>
<!-- R341 -->
<g id="node4" class="node">
<title>R341</title>
<g id="a_node4"><a xlink:href="341.svg" xlink:title="R341">
<polygon fill="cornsilk" stroke="none" points="1327,-183.92 1233,-183.92 1233,-136.92 1327,-136.92 1327,-183.92"/>
<text text-anchor="middle" x="1280" y="-151.92" font-family="Times New Roman,serif" font-size="35.00">R341</text>
</a>
</g>
</g>
<!-- R260&#45;&gt;R341 -->
<g id="edge3" class="edge">
<title>R260&#45;&gt;R341</title>
<path fill="none" stroke="black" d="M698.66,-127.86C707.37,-132.12 716.78,-135.99 726,-138.42 902.19,-184.87 1120.81,-174.57 1222.31,-166.12"/>
<polygon fill="black" stroke="black" points="1222.56,-169.52 1232.22,-165.18 1221.96,-162.55 1222.56,-169.52"/>
<text text-anchor="middle" x="969.5" y="-181.42" font-family="Times New Roman,serif" font-size="30.00"> &#160;&#160;738 &#160;&#160;0% &#160;&#160;2.19e&#45;26 mol/s &#160;&#160;&#160;9.95E&#45;01</text>
</g>
<!-- R287 -->
<g id="node5" class="node">
<title>R287</title>
<g id="a_node5"><a xlink:href="287.svg" xlink:title="R287">
<polygon fill="cornsilk" stroke="none" points="1327,-95.92 1233,-95.92 1233,-48.92 1327,-48.92 1327,-95.92"/>
<text text-anchor="middle" x="1280" y="-63.92" font-family="Times New Roman,serif" font-size="35.00">R287</text>
</a>
</g>
</g>
<!-- R260&#45;&gt;R287 -->
<g id="edge4" class="edge">
<title>R260&#45;&gt;R287</title>
<path fill="none" stroke="black" d="M706,-104.31C800.96,-103.7 1025.53,-100.3 1213,-82.42 1216.08,-82.13 1219.24,-81.79 1222.42,-81.41"/>
<polygon fill="black" stroke="black" points="1222.81,-84.76 1232.28,-80.02 1221.92,-77.82 1222.81,-84.76"/>
<text text-anchor="middle" x="969.5" y="-112.42" font-family="Times New Roman,serif" font-size="30.00"> &#160;&#160;739 &#160;&#160;0% &#160;&#160;2.2e&#45;26 mol/s &#160;&#160;&#160;1.00E+00</text>
</g>
<!-- R260&#45;&gt;R287 -->
<g id="edge5" class="edge">
<title>R260&#45;&gt;R287</title>
<path fill="none" stroke="black" stroke-width="5" d="M678.39,-81.1C690.35,-67.88 707.19,-52.6 726,-45.42 922.18,29.48 996.19,-1.65 1212.82,-46.85"/>
<polygon fill="black" stroke="black" stroke-width="5" points="1205.83,-54.58 1227.19,-50.06 1209.37,-37.44 1205.83,-54.58"/>
<text text-anchor="middle" x="969.5" y="-54.42" font-family="Times New Roman,serif" font-size="30.00"> &#160;&#160;769 &#160;&#160;99% &#160;&#160;2.42e&#45;16 mol/s &#160;&#160;&#160;9.09E&#45;11</text>
</g>
<!-- R45 -->
<g id="node2" class="node">
<title>R45</title>
<g id="a_node2"><a xlink:href="45.svg" xlink:title="R45">
<polygon fill="cornsilk" stroke="none" points="76,-160.92 0,-160.92 0,-113.92 76,-113.92 76,-160.92"/>
<text text-anchor="middle" x="38" y="-128.92" font-family="Times New Roman,serif" font-size="35.00">R45</text>
</a>
</g>
</g>
<!-- R45&#45;&gt;R260 -->
<g id="edge1" class="edge">
<title>R45&#45;&gt;R260</title>
<path fill="none" stroke="black" stroke-width="6" d="M75.78,-138C162.98,-138.94 389.5,-138.91 591.46,-116.54"/>
<polygon fill="black" stroke="black" stroke-width="6" points="587.5,-126.87 606.17,-114.15 585.1,-106.01 587.5,-126.87"/>
<text text-anchor="middle" x="348.5" y="-146.42" font-family="Times New Roman,serif" font-size="30.00"> &#160;&#160;352 &#160;&#160;100% &#160;&#160;2.18e&#45;15 mol/s &#160;&#160;&#160;1.00E+00</text>
</g>
<!-- R13 -->
<g id="node3" class="node">
<title>R13</title>
<g id="a_node3"><a xlink:href="13.svg" xlink:title="R13">
<polygon fill="cornsilk" stroke="none" points="76,-95.92 0,-95.92 0,-48.92 76,-48.92 76,-95.92"/>
<text text-anchor="middle" x="38" y="-63.92" font-family="Times New Roman,serif" font-size="35.00">R13</text>
</a>
</g>
</g>
<!-- R13&#45;&gt;R260 -->
<g id="edge2" class="edge">
<title>R13&#45;&gt;R260</title>
<path fill="none" stroke="black" stroke-width="6" d="M75.78,-68.54C163.47,-60.22 391.8,-44.12 591.67,-80.72"/>
<polygon fill="black" stroke="black" stroke-width="6" points="584.53,-90.2 606.16,-83.68 588.52,-69.58 584.53,-90.2"/>
<text text-anchor="middle" x="348.5" y="-91.42" font-family="Times New Roman,serif" font-size="30.00"> &#160;&#160;352 &#160;&#160;100% &#160;&#160;2.18e&#45;15 mol/s &#160;&#160;&#160;1.00E+00</text>
</g>
</g>
</svg>
