<?xml version="1.0" encoding="UTF-8" standalone="no"?>
<!DOCTYPE svg PUBLIC "-//W3C//DTD SVG 1.1//EN"
 "http://www.w3.org/Graphics/SVG/1.1/DTD/svg11.dtd">
<!-- Generated by graphviz version 8.0.3 (20230416.2022)
 -->
<!-- Title: G Pages: 1 -->
<svg width="640pt" height="331pt"
 viewBox="0.00 0.00 720.00 372.27" xmlns="http://www.w3.org/2000/svg" xmlns:xlink="http://www.w3.org/1999/xlink">
<g id="graph0" class="graph" transform="scale(0.885201 0.885201) rotate(0) translate(4 369.82)">
<title>G</title>
<polygon fill="white" stroke="none" points="-4,4 -4,-369.82 719,-369.82 719,4 -4,4"/>
<text text-anchor="middle" x="357.5" y="-333.02" font-family="Arial" font-size="36.00" fill="blue">Reaction Path Analysis</text>
<!-- R260 -->
<g id="node1" class="node">
<title>R260</title>
<g id="a_node1"><a xlink:href="260.svg" xlink:title="R260">
<polygon fill="cornsilk" stroke="none" points="94,-171.32 0,-171.32 0,-124.32 94,-124.32 94,-171.32"/>
<text text-anchor="middle" x="47" y="-139.32" font-family="Times New Roman,serif" font-size="35.00">R260</text>
</a>
</g>
</g>
<!-- R45 -->
<g id="node2" class="node">
<title>R45</title>
<g id="a_node2"><a xlink:href="45.svg" xlink:title="R45">
<polygon fill="cornsilk" stroke="none" points="706,-296.32 630,-296.32 630,-249.32 706,-249.32 706,-296.32"/>
<text text-anchor="middle" x="668" y="-264.32" font-family="Times New Roman,serif" font-size="35.00">R45</text>
</a>
</g>
</g>
<!-- R260&#45;&gt;R45 -->
<g id="edge1" class="edge">
<title>R260&#45;&gt;R45</title>
<path fill="none" stroke="black" d="M53.85,-171.27C61.09,-194.85 75.93,-230.04 103,-246.82 188.54,-299.84 499.72,-284.53 619.53,-276.4"/>
<polygon fill="black" stroke="black" points="619.45,-279.84 629.18,-275.66 618.96,-272.86 619.45,-279.84"/>
<text text-anchor="middle" x="357.5" y="-293.82" font-family="Times New Roman,serif" font-size="30.00"> &#160;&#160;352 &#160;&#160;0% &#160;&#160;1.57 mol/s &#160;&#160;&#160;2.09E&#45;02</text>
</g>
<!-- R13 -->
<g id="node3" class="node">
<title>R13</title>
<g id="a_node3"><a xlink:href="13.svg" xlink:title="R13">
<polygon fill="cornsilk" stroke="none" points="706,-231.32 630,-231.32 630,-184.32 706,-184.32 706,-231.32"/>
<text text-anchor="middle" x="668" y="-199.32" font-family="Times New Roman,serif" font-size="35.00">R13</text>
</a>
</g>
</g>
<!-- R260&#45;&gt;R13 -->
<g id="edge2" class="edge">
<title>R260&#45;&gt;R13</title>
<path fill="none" stroke="black" d="M77.34,-171.14C85.25,-176.23 94.09,-180.96 103,-183.82 198.47,-214.51 501.73,-211.47 619.55,-209.02"/>
<polygon fill="black" stroke="black" points="619.44,-212.5 629.36,-208.78 619.28,-205.5 619.44,-212.5"/>
<text text-anchor="middle" x="357.5" y="-218.82" font-family="Times New Roman,serif" font-size="30.00"> &#160;&#160;352 &#160;&#160;0% &#160;&#160;1.57 mol/s &#160;&#160;&#160;2.09E&#45;02</text>
</g>
<!-- R341 -->
<g id="node4" class="node">
<title>R341</title>
<g id="a_node4"><a xlink:href="341.svg" xlink:title="R341">
<polygon fill="cornsilk" stroke="none" points="715,-166.32 621,-166.32 621,-119.32 715,-119.32 715,-166.32"/>
<text text-anchor="middle" x="668" y="-134.32" font-family="Times New Roman,serif" font-size="35.00">R341</text>
</a>
</g>
</g>
<!-- R260&#45;&gt;R341 -->
<g id="edge3" class="edge">
<title>R260&#45;&gt;R341</title>
<path fill="none" stroke="black" d="M93.77,-147.45C204.84,-146.55 488.44,-144.26 610.13,-143.28"/>
<polygon fill="black" stroke="black" points="610.08,-146.77 620.05,-143.19 610.02,-139.77 610.08,-146.77"/>
<text text-anchor="middle" x="357.5" y="-155.82" font-family="Times New Roman,serif" font-size="30.00"> &#160;&#160;738 &#160;&#160;0% &#160;&#160;0.00261 mol/s &#160;&#160;&#160;9.61E&#45;01</text>
</g>
<!-- R287 -->
<g id="node5" class="node">
<title>R287</title>
<g id="a_node5"><a xlink:href="287.svg" xlink:title="R287">
<polygon fill="cornsilk" stroke="none" points="715,-80.32 621,-80.32 621,-33.32 715,-33.32 715,-80.32"/>
<text text-anchor="middle" x="668" y="-48.32" font-family="Times New Roman,serif" font-size="35.00">R287</text>
</a>
</g>
</g>
<!-- R260&#45;&gt;R287 -->
<g id="edge4" class="edge">
<title>R260&#45;&gt;R287</title>
<path fill="none" stroke="black" d="M72.41,-124.33C81.35,-117.11 91.99,-109.98 103,-105.82 206.07,-66.86 483.58,-85.77 610.49,-69.73"/>
<polygon fill="black" stroke="black" points="610.77,-73.08 620.19,-68.23 609.8,-66.15 610.77,-73.08"/>
<text text-anchor="middle" x="357.5" y="-114.82" font-family="Times New Roman,serif" font-size="30.00"> &#160;&#160;739 &#160;&#160;0% &#160;&#160;0.00272 mol/s &#160;&#160;&#160;1.00E+00</text>
</g>
<!-- R260&#45;&gt;R287 -->
<g id="edge5" class="edge">
<title>R260&#45;&gt;R287</title>
<path fill="none" stroke="black" stroke-width="5" d="M51.67,-124.4C57.36,-97.01 71.17,-52.88 103,-32.82 193.65,24.31 469.94,-6.06 600.8,-31.11"/>
<polygon fill="black" stroke="black" stroke-width="5" points="593.91,-38.85 615.24,-34.22 597.36,-21.7 593.91,-38.85"/>
<text text-anchor="middle" x="357.5" y="-41.82" font-family="Times New Roman,serif" font-size="30.00"> &#160;&#160;769 &#160;&#160;99% &#160;&#160;1200000.0 mol/s &#160;&#160;&#160;2.27E&#45;09</text>
</g>
</g>
</svg>
