<?xml version="1.0" encoding="UTF-8" standalone="no"?>
<!DOCTYPE svg PUBLIC "-//W3C//DTD SVG 1.1//EN"
 "http://www.w3.org/Graphics/SVG/1.1/DTD/svg11.dtd">
<!-- Generated by graphviz version 8.0.3 (20230416.2022)
 -->
<!-- Title: G Pages: 1 -->
<svg width="640pt" height="124pt"
 viewBox="0.00 0.00 720.00 139.28" xmlns="http://www.w3.org/2000/svg" xmlns:xlink="http://www.w3.org/1999/xlink">
<g id="graph0" class="graph" transform="scale(0.479401 0.479401) rotate(0) translate(4 254.25)">
<title>G</title>
<polygon fill="white" stroke="none" points="-4,4 -4,-254.25 1331,-254.25 1331,4 -4,4"/>
<text text-anchor="middle" x="663.5" y="-217.45" font-family="Arial" font-size="36.00" fill="blue">Reaction Path Analysis</text>
<!-- R260 -->
<g id="node1" class="node">
<title>R260</title>
<g id="a_node1"><a xlink:href="260.svg" xlink:title="R260">
<polygon fill="cornsilk" stroke="none" points="706,-125.75 612,-125.75 612,-78.75 706,-78.75 706,-125.75"/>
<text text-anchor="middle" x="659" y="-93.75" font-family="Times New Roman,serif" font-size="35.00">R260</text>
</a>
</g>
</g>
<!-- R341 -->
<g id="node4" class="node">
<title>R341</title>
<g id="a_node4"><a xlink:href="341.svg" xlink:title="R341">
<polygon fill="cornsilk" stroke="none" points="1327,-181.75 1233,-181.75 1233,-134.75 1327,-134.75 1327,-181.75"/>
<text text-anchor="middle" x="1280" y="-149.75" font-family="Times New Roman,serif" font-size="35.00">R341</text>
</a>
</g>
</g>
<!-- R260&#45;&gt;R341 -->
<g id="edge3" class="edge">
<title>R260&#45;&gt;R341</title>
<path fill="none" stroke="black" d="M701.13,-125.68C710.36,-129.95 720.3,-133.82 730,-136.25 905.22,-180.27 1121.68,-171.2 1222.44,-163.5"/>
<polygon fill="black" stroke="black" points="1222.58,-166.92 1232.28,-162.64 1222.03,-159.94 1222.58,-166.92"/>
<text text-anchor="middle" x="969.5" y="-178.25" font-family="Times New Roman,serif" font-size="30.00"> &#160;&#160;738 &#160;&#160;0% &#160;&#160;1e&#45;11 mol/s &#160;&#160;&#160;9.95E&#45;01</text>
</g>
<!-- R287 -->
<g id="node5" class="node">
<title>R287</title>
<g id="a_node5"><a xlink:href="287.svg" xlink:title="R287">
<polygon fill="cornsilk" stroke="none" points="1327,-93.75 1233,-93.75 1233,-46.75 1327,-46.75 1327,-93.75"/>
<text text-anchor="middle" x="1280" y="-61.75" font-family="Times New Roman,serif" font-size="35.00">R287</text>
</a>
</g>
</g>
<!-- R260&#45;&gt;R287 -->
<g id="edge4" class="edge">
<title>R260&#45;&gt;R287</title>
<path fill="none" stroke="black" d="M705.65,-101.99C799.91,-101.11 1022.81,-97.24 1209,-80.25 1213.4,-79.85 1217.95,-79.37 1222.51,-78.83"/>
<polygon fill="black" stroke="black" points="1222.66,-82.21 1232.14,-77.49 1221.78,-75.26 1222.66,-82.21"/>
<text text-anchor="middle" x="969.5" y="-110.25" font-family="Times New Roman,serif" font-size="30.00"> &#160;&#160;739 &#160;&#160;0% &#160;&#160;1.01e&#45;11 mol/s &#160;&#160;&#160;1.00E+00</text>
</g>
<!-- R260&#45;&gt;R287 -->
<g id="edge5" class="edge">
<title>R260&#45;&gt;R287</title>
<path fill="none" stroke="black" stroke-width="5" d="M679.78,-78.9C692.57,-65.68 710.44,-50.4 730,-43.25 929.97,29.78 999.71,-4.29 1209,-43.25 1210.36,-43.51 1211.74,-43.79 1213.11,-44.09"/>
<polygon fill="black" stroke="black" stroke-width="5" points="1206.37,-51.69 1228.01,-48.78 1211.19,-34.87 1206.37,-51.69"/>
<text text-anchor="middle" x="969.5" y="-52.25" font-family="Times New Roman,serif" font-size="30.00"> &#160;&#160;769 &#160;&#160;99% &#160;&#160;0.111 mol/s &#160;&#160;&#160;9.09E&#45;11</text>
</g>
<!-- R45 -->
<g id="node2" class="node">
<title>R45</title>
<g id="a_node2"><a xlink:href="45.svg" xlink:title="R45">
<polygon fill="cornsilk" stroke="none" points="76,-158.75 0,-158.75 0,-111.75 76,-111.75 76,-158.75"/>
<text text-anchor="middle" x="38" y="-126.75" font-family="Times New Roman,serif" font-size="35.00">R45</text>
</a>
</g>
</g>
<!-- R45&#45;&gt;R260 -->
<g id="edge1" class="edge">
<title>R45&#45;&gt;R260</title>
<path fill="none" stroke="black" stroke-width="6" d="M75.78,-135.83C162.98,-136.77 389.5,-136.74 591.46,-114.37"/>
<polygon fill="black" stroke="black" stroke-width="6" points="587.5,-124.7 606.17,-111.98 585.1,-103.84 587.5,-124.7"/>
<text text-anchor="middle" x="348.5" y="-144.25" font-family="Times New Roman,serif" font-size="30.00"> &#160;&#160;352 &#160;&#160;100% &#160;&#160;4.67e&#45;08 mol/s &#160;&#160;&#160;1.00E+00</text>
</g>
<!-- R13 -->
<g id="node3" class="node">
<title>R13</title>
<g id="a_node3"><a xlink:href="13.svg" xlink:title="R13">
<polygon fill="cornsilk" stroke="none" points="76,-93.75 0,-93.75 0,-46.75 76,-46.75 76,-93.75"/>
<text text-anchor="middle" x="38" y="-61.75" font-family="Times New Roman,serif" font-size="35.00">R13</text>
</a>
</g>
</g>
<!-- R13&#45;&gt;R260 -->
<g id="edge2" class="edge">
<title>R13&#45;&gt;R260</title>
<path fill="none" stroke="black" stroke-width="6" d="M75.78,-66.37C163.47,-58.05 391.8,-41.95 591.67,-78.55"/>
<polygon fill="black" stroke="black" stroke-width="6" points="584.53,-88.03 606.16,-81.52 588.52,-67.41 584.53,-88.03"/>
<text text-anchor="middle" x="348.5" y="-89.25" font-family="Times New Roman,serif" font-size="30.00"> &#160;&#160;352 &#160;&#160;100% &#160;&#160;4.67e&#45;08 mol/s &#160;&#160;&#160;1.00E+00</text>
</g>
</g>
</svg>
