<?xml version="1.0" encoding="UTF-8" standalone="no"?>
<!DOCTYPE svg PUBLIC "-//W3C//DTD SVG 1.1//EN"
 "http://www.w3.org/Graphics/SVG/1.1/DTD/svg11.dtd">
<!-- Generated by graphviz version 8.0.3 (20230416.2022)
 -->
<!-- Title: G Pages: 1 -->
<svg width="623pt" height="316pt"
 viewBox="0.00 0.00 701.00 355.95" xmlns="http://www.w3.org/2000/svg" xmlns:xlink="http://www.w3.org/1999/xlink">
<g id="graph0" class="graph" transform="scale(0.888889 0.888889) rotate(0) translate(4 351.95)">
<title>G</title>
<polygon fill="white" stroke="none" points="-4,4 -4,-351.95 697,-351.95 697,4 -4,4"/>
<text text-anchor="middle" x="346.5" y="-315.15" font-family="Arial" font-size="36.00" fill="blue">Reaction Path Analysis</text>
<!-- R262 -->
<g id="node1" class="node">
<title>R262</title>
<g id="a_node1"><a xlink:href="262.svg" xlink:title="R262">
<polygon fill="cornsilk" stroke="none" points="693,-163.45 599,-163.45 599,-116.45 693,-116.45 693,-163.45"/>
<text text-anchor="middle" x="646" y="-131.45" font-family="Times New Roman,serif" font-size="35.00">R262</text>
</a>
</g>
</g>
<!-- R54 -->
<g id="node2" class="node">
<title>R54</title>
<g id="a_node2"><a xlink:href="54.svg" xlink:title="R54">
<polygon fill="cornsilk" stroke="none" points="85,-261.45 9,-261.45 9,-214.45 85,-214.45 85,-261.45"/>
<text text-anchor="middle" x="47" y="-229.45" font-family="Times New Roman,serif" font-size="35.00">R54</text>
</a>
</g>
</g>
<!-- R54&#45;&gt;R262 -->
<g id="edge1" class="edge">
<title>R54&#45;&gt;R262</title>
<path fill="none" stroke="black" d="M84.88,-245.9C176.5,-263.66 419.35,-298.4 590,-209.95 605.98,-201.66 618.81,-186.42 628.04,-172.27"/>
<polygon fill="black" stroke="black" points="631.35,-174.57 633.59,-164.22 625.38,-170.92 631.35,-174.57"/>
<text text-anchor="middle" x="346.5" y="-275.95" font-family="Times New Roman,serif" font-size="30.00"> &#160;&#160;356 &#160;&#160;0% &#160;&#160;4.67e&#45;08 mol/s &#160;&#160;&#160;1.00E+00</text>
</g>
<!-- R13 -->
<g id="node3" class="node">
<title>R13</title>
<g id="a_node3"><a xlink:href="13.svg" xlink:title="R13">
<polygon fill="cornsilk" stroke="none" points="85,-196.45 9,-196.45 9,-149.45 85,-149.45 85,-196.45"/>
<text text-anchor="middle" x="47" y="-164.45" font-family="Times New Roman,serif" font-size="35.00">R13</text>
</a>
</g>
</g>
<!-- R13&#45;&gt;R262 -->
<g id="edge2" class="edge">
<title>R13&#45;&gt;R262</title>
<path fill="none" stroke="black" d="M84.96,-173.44C171.27,-174.16 392.91,-173.55 588.41,-150.94"/>
<polygon fill="black" stroke="black" points="588.65,-154.32 598.17,-149.67 587.83,-147.37 588.65,-154.32"/>
<text text-anchor="middle" x="346.5" y="-181.95" font-family="Times New Roman,serif" font-size="30.00"> &#160;&#160;356 &#160;&#160;0% &#160;&#160;4.67e&#45;08 mol/s &#160;&#160;&#160;1.00E+00</text>
</g>
<!-- R379 -->
<g id="node4" class="node">
<title>R379</title>
<g id="a_node4"><a xlink:href="379.svg" xlink:title="R379">
<polygon fill="cornsilk" stroke="none" points="94,-131.45 0,-131.45 0,-84.45 94,-84.45 94,-131.45"/>
<text text-anchor="middle" x="47" y="-99.45" font-family="Times New Roman,serif" font-size="35.00">R379</text>
</a>
</g>
</g>
<!-- R379&#45;&gt;R262 -->
<g id="edge3" class="edge">
<title>R379&#45;&gt;R262</title>
<path fill="none" stroke="black" stroke-width="5" d="M93.93,-103.28C184.75,-95.21 393.81,-82.39 578.76,-116.26"/>
<polygon fill="black" stroke="black" stroke-width="5" points="571.86,-124 593.16,-119.21 575.19,-106.82 571.86,-124"/>
<text text-anchor="middle" x="346.5" y="-126.95" font-family="Times New Roman,serif" font-size="30.00"> &#160;&#160;742 &#160;&#160;93% &#160;&#160;5.98e&#45;06 mol/s &#160;&#160;&#160;1.69E&#45;06</text>
</g>
<!-- R377 -->
<g id="node5" class="node">
<title>R377</title>
<g id="a_node5"><a xlink:href="377.svg" xlink:title="R377">
<polygon fill="cornsilk" stroke="none" points="94,-66.45 0,-66.45 0,-19.45 94,-19.45 94,-66.45"/>
<text text-anchor="middle" x="47" y="-34.45" font-family="Times New Roman,serif" font-size="35.00">R377</text>
</a>
</g>
</g>
<!-- R377&#45;&gt;R262 -->
<g id="edge4" class="edge">
<title>R377&#45;&gt;R262</title>
<path fill="none" stroke="black" d="M93.78,-30.7C191.97,-7.13 427.13,34.63 590,-55.95 609.79,-66.95 623.66,-88.43 632.52,-106.91"/>
<polygon fill="black" stroke="black" points="629.66,-108.08 636.94,-115.78 636.05,-105.22 629.66,-108.08"/>
<text text-anchor="middle" x="346.5" y="-64.95" font-family="Times New Roman,serif" font-size="30.00"> &#160;&#160;743 &#160;&#160;6% &#160;&#160;3.94e&#45;07 mol/s &#160;&#160;&#160;2.56E&#45;05</text>
</g>
</g>
</svg>
