<?xml version="1.0" encoding="UTF-8" standalone="no"?>
<!DOCTYPE svg PUBLIC "-//W3C//DTD SVG 1.1//EN"
 "http://www.w3.org/Graphics/SVG/1.1/DTD/svg11.dtd">
<!-- Generated by graphviz version 8.0.3 (20230416.2022)
 -->
<!-- Title: G Pages: 1 -->
<svg width="603pt" height="312pt"
 viewBox="0.00 0.00 678.00 350.89" xmlns="http://www.w3.org/2000/svg" xmlns:xlink="http://www.w3.org/1999/xlink">
<g id="graph0" class="graph" transform="scale(0.888889 0.888889) rotate(0) translate(4 346.89)">
<title>G</title>
<polygon fill="white" stroke="none" points="-4,4 -4,-346.89 674,-346.89 674,4 -4,4"/>
<text text-anchor="middle" x="335" y="-310.09" font-family="Arial" font-size="36.00" fill="blue">Reaction Path Analysis</text>
<!-- R263 -->
<g id="node1" class="node">
<title>R263</title>
<g id="a_node1"><a xlink:href="263.svg" xlink:title="R263">
<polygon fill="cornsilk" stroke="none" points="670,-160.39 576,-160.39 576,-113.39 670,-113.39 670,-160.39"/>
<text text-anchor="middle" x="623" y="-128.39" font-family="Times New Roman,serif" font-size="35.00">R263</text>
</a>
</g>
</g>
<!-- R60 -->
<g id="node2" class="node">
<title>R60</title>
<g id="a_node2"><a xlink:href="60.svg" xlink:title="R60">
<polygon fill="cornsilk" stroke="none" points="85,-258.39 9,-258.39 9,-211.39 85,-211.39 85,-258.39"/>
<text text-anchor="middle" x="47" y="-226.39" font-family="Times New Roman,serif" font-size="35.00">R60</text>
</a>
</g>
</g>
<!-- R60&#45;&gt;R263 -->
<g id="edge1" class="edge">
<title>R60&#45;&gt;R263</title>
<path fill="none" stroke="black" d="M84.95,-242.71C173.92,-259.56 404.67,-291.27 567,-206.89 582.97,-198.59 595.8,-183.35 605.03,-169.2"/>
<polygon fill="black" stroke="black" points="608.34,-171.5 610.58,-161.15 602.37,-167.85 608.34,-171.5"/>
<text text-anchor="middle" x="335" y="-270.89" font-family="Times New Roman,serif" font-size="30.00"> &#160;&#160;359 &#160;&#160;0% &#160;&#160;0.0342 mol/s &#160;&#160;&#160;1.00E+00</text>
</g>
<!-- R13 -->
<g id="node3" class="node">
<title>R13</title>
<g id="a_node3"><a xlink:href="13.svg" xlink:title="R13">
<polygon fill="cornsilk" stroke="none" points="85,-193.39 9,-193.39 9,-146.39 85,-146.39 85,-193.39"/>
<text text-anchor="middle" x="47" y="-161.39" font-family="Times New Roman,serif" font-size="35.00">R13</text>
</a>
</g>
</g>
<!-- R13&#45;&gt;R263 -->
<g id="edge2" class="edge">
<title>R13&#45;&gt;R263</title>
<path fill="none" stroke="black" d="M84.97,-170.28C168.64,-170.75 379.04,-169.59 565.35,-147.89"/>
<polygon fill="black" stroke="black" points="565.65,-151.26 575.17,-146.61 564.83,-144.31 565.65,-151.26"/>
<text text-anchor="middle" x="335" y="-178.89" font-family="Times New Roman,serif" font-size="30.00"> &#160;&#160;359 &#160;&#160;0% &#160;&#160;0.0342 mol/s &#160;&#160;&#160;1.00E+00</text>
</g>
<!-- R356 -->
<g id="node4" class="node">
<title>R356</title>
<g id="a_node4"><a xlink:href="356.svg" xlink:title="R356">
<polygon fill="cornsilk" stroke="none" points="94,-128.39 0,-128.39 0,-81.39 94,-81.39 94,-128.39"/>
<text text-anchor="middle" x="47" y="-96.39" font-family="Times New Roman,serif" font-size="35.00">R356</text>
</a>
</g>
</g>
<!-- R356&#45;&gt;R263 -->
<g id="edge3" class="edge">
<title>R356&#45;&gt;R263</title>
<path fill="none" stroke="black" stroke-width="5" d="M93.72,-100.32C181.44,-92.69 379.56,-81 555.63,-113.18"/>
<polygon fill="black" stroke="black" stroke-width="5" points="548.86,-120.95 570.16,-116.16 552.19,-103.76 548.86,-120.95"/>
<text text-anchor="middle" x="335" y="-123.89" font-family="Times New Roman,serif" font-size="30.00"> &#160;&#160;744 &#160;&#160;88% &#160;&#160;1950.0 mol/s &#160;&#160;&#160;1.39E&#45;06</text>
</g>
<!-- R304 -->
<g id="node5" class="node">
<title>R304</title>
<g id="a_node5"><a xlink:href="304.svg" xlink:title="R304">
<polygon fill="cornsilk" stroke="none" points="94,-63.39 0,-63.39 0,-16.39 94,-16.39 94,-63.39"/>
<text text-anchor="middle" x="47" y="-31.39" font-family="Times New Roman,serif" font-size="35.00">R304</text>
</a>
</g>
</g>
<!-- R304&#45;&gt;R263 -->
<g id="edge4" class="edge">
<title>R304&#45;&gt;R263</title>
<path fill="none" stroke="black" d="M93.97,-27.89C189.21,-5.72 412.1,32 567,-53.89 586.43,-64.66 600.21,-85.53 609.12,-103.65"/>
<polygon fill="black" stroke="black" points="606.34,-104.99 613.69,-112.62 612.7,-102.07 606.34,-104.99"/>
<text text-anchor="middle" x="335" y="-62.89" font-family="Times New Roman,serif" font-size="30.00"> &#160;&#160;745 &#160;&#160;11% &#160;&#160;257.0 mol/s &#160;&#160;&#160;1.06E&#45;05</text>
</g>
</g>
</svg>
