<?xml version="1.0" encoding="UTF-8" standalone="no"?>
<!DOCTYPE svg PUBLIC "-//W3C//DTD SVG 1.1//EN"
 "http://www.w3.org/Graphics/SVG/1.1/DTD/svg11.dtd">
<!-- Generated by graphviz version 8.0.3 (20230416.2022)
 -->
<!-- Title: G Pages: 1 -->
<svg width="629pt" height="318pt"
 viewBox="0.00 0.00 708.00 357.61" xmlns="http://www.w3.org/2000/svg" xmlns:xlink="http://www.w3.org/1999/xlink">
<g id="graph0" class="graph" transform="scale(0.888889 0.888889) rotate(0) translate(4 353.61)">
<title>G</title>
<polygon fill="white" stroke="none" points="-4,4 -4,-353.61 704,-353.61 704,4 -4,4"/>
<text text-anchor="middle" x="350" y="-316.81" font-family="Arial" font-size="36.00" fill="blue">Reaction Path Analysis</text>
<!-- R263 -->
<g id="node1" class="node">
<title>R263</title>
<g id="a_node1"><a xlink:href="263.svg" xlink:title="R263">
<polygon fill="cornsilk" stroke="none" points="700,-164.11 606,-164.11 606,-117.11 700,-117.11 700,-164.11"/>
<text text-anchor="middle" x="653" y="-132.11" font-family="Times New Roman,serif" font-size="35.00">R263</text>
</a>
</g>
</g>
<!-- R60 -->
<g id="node2" class="node">
<title>R60</title>
<g id="a_node2"><a xlink:href="60.svg" xlink:title="R60">
<polygon fill="cornsilk" stroke="none" points="85,-262.11 9,-262.11 9,-215.11 85,-215.11 85,-262.11"/>
<text text-anchor="middle" x="47" y="-230.11" font-family="Times New Roman,serif" font-size="35.00">R60</text>
</a>
</g>
</g>
<!-- R60&#45;&gt;R263 -->
<g id="edge1" class="edge">
<title>R60&#45;&gt;R263</title>
<path fill="none" stroke="black" stroke-width="5" d="M84.67,-246.56C176.94,-264.59 423.7,-300.37 597,-210.61 609.94,-203.9 620.81,-192.64 629.38,-181.09"/>
<polygon fill="black" stroke="black" stroke-width="5" points="634,-190.42 637.59,-168.88 619.34,-180.87 634,-190.42"/>
<text text-anchor="middle" x="350" y="-277.61" font-family="Times New Roman,serif" font-size="30.00"> &#160;&#160;359 &#160;&#160;99% &#160;&#160;2.18e&#45;15 mol/s &#160;&#160;&#160;1.00E+00</text>
</g>
<!-- R13 -->
<g id="node3" class="node">
<title>R13</title>
<g id="a_node3"><a xlink:href="13.svg" xlink:title="R13">
<polygon fill="cornsilk" stroke="none" points="85,-197.11 9,-197.11 9,-150.11 85,-150.11 85,-197.11"/>
<text text-anchor="middle" x="47" y="-165.11" font-family="Times New Roman,serif" font-size="35.00">R13</text>
</a>
</g>
</g>
<!-- R13&#45;&gt;R263 -->
<g id="edge2" class="edge">
<title>R13&#45;&gt;R263</title>
<path fill="none" stroke="black" stroke-width="5" d="M84.78,-174.12C170.29,-174.91 389.51,-174.52 585.46,-152.73"/>
<polygon fill="black" stroke="black" stroke-width="5" points="581.31,-161.32 600.17,-150.33 579.3,-143.94 581.31,-161.32"/>
<text text-anchor="middle" x="350" y="-182.61" font-family="Times New Roman,serif" font-size="30.00"> &#160;&#160;359 &#160;&#160;99% &#160;&#160;2.18e&#45;15 mol/s &#160;&#160;&#160;1.00E+00</text>
</g>
<!-- R356 -->
<g id="node4" class="node">
<title>R356</title>
<g id="a_node4"><a xlink:href="356.svg" xlink:title="R356">
<polygon fill="cornsilk" stroke="none" points="94,-132.11 0,-132.11 0,-85.11 94,-85.11 94,-132.11"/>
<text text-anchor="middle" x="47" y="-100.11" font-family="Times New Roman,serif" font-size="35.00">R356</text>
</a>
</g>
</g>
<!-- R356&#45;&gt;R263 -->
<g id="edge3" class="edge">
<title>R356&#45;&gt;R263</title>
<path fill="none" stroke="black" d="M93.79,-103.93C187,-95.59 405.32,-82.07 595.41,-118.74"/>
<polygon fill="black" stroke="black" points="594.67,-122.36 605.16,-120.87 596.03,-115.49 594.67,-122.36"/>
<text text-anchor="middle" x="350" y="-127.61" font-family="Times New Roman,serif" font-size="30.00"> &#160;&#160;744 &#160;&#160;0% &#160;&#160;1.58e&#45;19 mol/s &#160;&#160;&#160;1.39E&#45;07</text>
</g>
<!-- R304 -->
<g id="node5" class="node">
<title>R304</title>
<g id="a_node5"><a xlink:href="304.svg" xlink:title="R304">
<polygon fill="cornsilk" stroke="none" points="94,-67.11 0,-67.11 0,-20.11 94,-20.11 94,-67.11"/>
<text text-anchor="middle" x="47" y="-35.11" font-family="Times New Roman,serif" font-size="35.00">R304</text>
</a>
</g>
</g>
<!-- R304&#45;&gt;R263 -->
<g id="edge4" class="edge">
<title>R304&#45;&gt;R263</title>
<path fill="none" stroke="black" d="M93.99,-31.27C193.22,-7.38 431.8,35.23 597,-56.61 616.8,-67.61 630.67,-89.09 639.53,-107.57"/>
<polygon fill="black" stroke="black" points="636.66,-108.74 643.94,-116.44 643.05,-105.88 636.66,-108.74"/>
<text text-anchor="middle" x="350" y="-65.61" font-family="Times New Roman,serif" font-size="30.00"> &#160;&#160;745 &#160;&#160;0% &#160;&#160;6.28e&#45;21 mol/s &#160;&#160;&#160;3.51E&#45;06</text>
</g>
</g>
</svg>
