<?xml version="1.0" encoding="UTF-8" standalone="no"?>
<!DOCTYPE svg PUBLIC "-//W3C//DTD SVG 1.1//EN"
 "http://www.w3.org/Graphics/SVG/1.1/DTD/svg11.dtd">
<!-- Generated by graphviz version 8.0.3 (20230416.2022)
 -->
<!-- Title: G Pages: 1 -->
<svg width="640pt" height="88pt"
 viewBox="0.00 0.00 720.00 98.99" xmlns="http://www.w3.org/2000/svg" xmlns:xlink="http://www.w3.org/1999/xlink">
<g id="graph0" class="graph" transform="scale(0.49574 0.49574) rotate(0) translate(4 173.5)">
<title>G</title>
<polygon fill="white" stroke="none" points="-4,4 -4,-173.5 1287,-173.5 1287,4 -4,4"/>
<text text-anchor="middle" x="641.5" y="-136.7" font-family="Arial" font-size="36.00" fill="blue">Reaction Path Analysis</text>
<!-- R264 -->
<g id="node1" class="node">
<title>R264</title>
<g id="a_node1"><a xlink:href="264.svg" xlink:title="R264">
<polygon fill="cornsilk" stroke="none" points="684,-79 590,-79 590,-32 684,-32 684,-79"/>
<text text-anchor="middle" x="637" y="-47" font-family="Times New Roman,serif" font-size="35.00">R264</text>
</a>
</g>
</g>
<!-- R267 -->
<g id="node4" class="node">
<title>R267</title>
<g id="a_node4"><a xlink:href="267.svg" xlink:title="R267">
<polygon fill="cornsilk" stroke="none" points="1283,-112 1189,-112 1189,-65 1283,-65 1283,-112"/>
<text text-anchor="middle" x="1236" y="-80" font-family="Times New Roman,serif" font-size="35.00">R267</text>
</a>
</g>
</g>
<!-- R264&#45;&gt;R267 -->
<g id="edge3" class="edge">
<title>R264&#45;&gt;R267</title>
<path fill="none" stroke="black" stroke-width="5" d="M683.98,-64.31C689.53,-65.16 695.13,-65.92 700.5,-66.5 868.07,-84.61 1066.67,-88.1 1168.09,-88.6"/>
<polygon fill="black" stroke="black" stroke-width="5" points="1163.06,-97.35 1183.09,-88.66 1163.12,-79.85 1163.06,-97.35"/>
<text text-anchor="middle" x="936.5" y="-97.5" font-family="Times New Roman,serif" font-size="30.00"> &#160;&#160;537 &#160;&#160;96% &#160;&#160;0.0342 mol/s &#160;&#160;&#160;1.00E+00</text>
</g>
<!-- R99 -->
<g id="node5" class="node">
<title>R99</title>
<g id="a_node5"><a xlink:href="99.svg" xlink:title="R99">
<polygon fill="cornsilk" stroke="none" points="1274,-47 1198,-47 1198,0 1274,0 1274,-47"/>
<text text-anchor="middle" x="1236" y="-15" font-family="Times New Roman,serif" font-size="35.00">R99</text>
</a>
</g>
</g>
<!-- R264&#45;&gt;R99 -->
<g id="edge4" class="edge">
<title>R264&#45;&gt;R99</title>
<path fill="none" stroke="black" d="M683.97,-37.47C689.47,-35.87 695.07,-34.48 700.5,-33.5 877.79,-1.5 1093.52,-12.28 1187.47,-19.36"/>
<polygon fill="black" stroke="black" points="1187.07,-22.92 1197.31,-20.2 1187.61,-15.94 1187.07,-22.92"/>
<text text-anchor="middle" x="936.5" y="-42.5" font-family="Times New Roman,serif" font-size="30.00"> &#160;&#160;746 &#160;&#160;3% &#160;&#160;0.00126 mol/s &#160;&#160;&#160;6.51E&#45;01</text>
</g>
<!-- R13 -->
<g id="node2" class="node">
<title>R13</title>
<g id="a_node2"><a xlink:href="13.svg" xlink:title="R13">
<polygon fill="cornsilk" stroke="none" points="76,-112 0,-112 0,-65 76,-65 76,-112"/>
<text text-anchor="middle" x="38" y="-80" font-family="Times New Roman,serif" font-size="35.00">R13</text>
</a>
</g>
</g>
<!-- R13&#45;&gt;R264 -->
<g id="edge1" class="edge">
<title>R13&#45;&gt;R264</title>
<path fill="none" stroke="black" stroke-width="6" d="M75.96,-88.99C160.81,-89.7 376.45,-89.12 569.47,-67.62"/>
<polygon fill="black" stroke="black" stroke-width="6" points="565.51,-77.96 584.17,-65.22 563.09,-57.1 565.51,-77.96"/>
<text text-anchor="middle" x="337.5" y="-97.5" font-family="Times New Roman,serif" font-size="30.00"> &#160;&#160;360 &#160;&#160;100% &#160;&#160;0.0342 mol/s &#160;&#160;&#160;1.00E+00</text>
</g>
<!-- R86 -->
<g id="node3" class="node">
<title>R86</title>
<g id="a_node3"><a xlink:href="86.svg" xlink:title="R86">
<polygon fill="cornsilk" stroke="none" points="76,-47 0,-47 0,0 76,0 76,-47"/>
<text text-anchor="middle" x="38" y="-15" font-family="Times New Roman,serif" font-size="35.00">R86</text>
</a>
</g>
</g>
<!-- R86&#45;&gt;R264 -->
<g id="edge2" class="edge">
<title>R86&#45;&gt;R264</title>
<path fill="none" stroke="black" stroke-width="6" d="M75.97,-19.65C161.3,-11.71 378.65,3.14 569.69,-31.8"/>
<polygon fill="black" stroke="black" stroke-width="6" points="562.53,-41.28 584.16,-34.76 566.52,-20.66 562.53,-41.28"/>
<text text-anchor="middle" x="337.5" y="-42.5" font-family="Times New Roman,serif" font-size="30.00"> &#160;&#160;360 &#160;&#160;100% &#160;&#160;0.0342 mol/s &#160;&#160;&#160;1.00E+00</text>
</g>
</g>
</svg>
