<?xml version="1.0" encoding="UTF-8" standalone="no"?>
<!DOCTYPE svg PUBLIC "-//W3C//DTD SVG 1.1//EN"
 "http://www.w3.org/Graphics/SVG/1.1/DTD/svg11.dtd">
<!-- Generated by graphviz version 8.0.3 (20230416.2022)
 -->
<!-- Title: G Pages: 1 -->
<svg width="640pt" height="203pt"
 viewBox="0.00 0.00 720.00 227.99" xmlns="http://www.w3.org/2000/svg" xmlns:xlink="http://www.w3.org/1999/xlink">
<g id="graph0" class="graph" transform="scale(0.487062 0.487062) rotate(0) translate(4 412.08)">
<title>G</title>
<polygon fill="white" stroke="none" points="-4,4 -4,-412.08 1310,-412.08 1310,4 -4,4"/>
<text text-anchor="middle" x="653" y="-375.28" font-family="Arial" font-size="36.00" fill="blue">Reaction Path Analysis</text>
<!-- R266 -->
<g id="node1" class="node">
<title>R266</title>
<g id="a_node1"><a xlink:href="266.svg" xlink:title="R266">
<polygon fill="cornsilk" stroke="none" points="700,-191.58 606,-191.58 606,-144.58 700,-144.58 700,-191.58"/>
<text text-anchor="middle" x="653" y="-159.58" font-family="Times New Roman,serif" font-size="35.00">R266</text>
</a>
</g>
</g>
<!-- R296 -->
<g id="node4" class="node">
<title>R296</title>
<g id="a_node4"><a xlink:href="296.svg" xlink:title="R296">
<polygon fill="cornsilk" stroke="none" points="1306,-224.58 1212,-224.58 1212,-177.58 1306,-177.58 1306,-224.58"/>
<text text-anchor="middle" x="1259" y="-192.58" font-family="Times New Roman,serif" font-size="35.00">R296</text>
</a>
</g>
</g>
<!-- R266&#45;&gt;R296 -->
<g id="edge3" class="edge">
<title>R266&#45;&gt;R296</title>
<path fill="none" stroke="black" stroke-width="3" d="M699.83,-177.8C702.92,-178.29 706,-178.72 709,-179.08 887.94,-200.42 1101.76,-202.24 1201.53,-201.73"/>
<polygon fill="black" stroke="black" stroke-width="3" points="1198.28,-205.23 1208.26,-201.67 1198.24,-198.23 1198.28,-205.23"/>
<text text-anchor="middle" x="956" y="-210.08" font-family="Times New Roman,serif" font-size="30.00"> &#160;&#160;538 &#160;&#160;50% &#160;&#160;4.67e&#45;08 mol/s &#160;&#160;&#160;1.00E+00</text>
</g>
<!-- R297 -->
<g id="node5" class="node">
<title>R297</title>
<g id="a_node5"><a xlink:href="297.svg" xlink:title="R297">
<polygon fill="cornsilk" stroke="none" points="1306,-159.58 1212,-159.58 1212,-112.58 1306,-112.58 1306,-159.58"/>
<text text-anchor="middle" x="1259" y="-127.58" font-family="Times New Roman,serif" font-size="35.00">R297</text>
</a>
</g>
</g>
<!-- R266&#45;&gt;R297 -->
<g id="edge4" class="edge">
<title>R266&#45;&gt;R297</title>
<path fill="none" stroke="black" stroke-width="3" d="M699.84,-148.34C702.91,-147.46 705.98,-146.69 709,-146.08 885.75,-110.36 1101.04,-121.97 1201.41,-130.46"/>
<polygon fill="black" stroke="black" stroke-width="3" points="1197.94,-134.02 1208.21,-131.4 1198.55,-127.05 1197.94,-134.02"/>
<text text-anchor="middle" x="956" y="-155.08" font-family="Times New Roman,serif" font-size="30.00"> &#160;&#160;539 &#160;&#160;50% &#160;&#160;4.67e&#45;08 mol/s &#160;&#160;&#160;1.00E+00</text>
</g>
<!-- R86 -->
<g id="node2" class="node">
<title>R86</title>
<g id="a_node2"><a xlink:href="86.svg" xlink:title="R86">
<polygon fill="cornsilk" stroke="none" points="85,-312.58 9,-312.58 9,-265.58 85,-265.58 85,-312.58"/>
<text text-anchor="middle" x="47" y="-280.58" font-family="Times New Roman,serif" font-size="35.00">R86</text>
</a>
</g>
</g>
<!-- R86&#45;&gt;R266 -->
<g id="edge1" class="edge">
<title>R86&#45;&gt;R266</title>
<path fill="none" stroke="black" stroke-width="2" d="M84.79,-298.5C178.37,-320.26 429.9,-364.76 597,-263.08 619.39,-249.45 633.59,-223.06 641.95,-201.54"/>
<polygon fill="black" stroke="black" stroke-width="2" points="644.49,-204.04 644.59,-193.45 637.9,-201.67 644.49,-204.04"/>
<text text-anchor="middle" x="350" y="-336.08" font-family="Times New Roman,serif" font-size="30.00"> &#160;&#160;362 &#160;&#160;25% &#160;&#160;4.67e&#45;08 mol/s &#160;&#160;&#160;1.00E+00</text>
</g>
<!-- R13 -->
<g id="node3" class="node">
<title>R13</title>
<g id="a_node3"><a xlink:href="13.svg" xlink:title="R13">
<polygon fill="cornsilk" stroke="none" points="85,-247.58 9,-247.58 9,-200.58 85,-200.58 85,-247.58"/>
<text text-anchor="middle" x="47" y="-215.58" font-family="Times New Roman,serif" font-size="35.00">R13</text>
</a>
</g>
</g>
<!-- R13&#45;&gt;R266 -->
<g id="edge2" class="edge">
<title>R13&#45;&gt;R266</title>
<path fill="none" stroke="black" stroke-width="2" d="M84.76,-225.02C191.68,-227.39 500.99,-231.44 597,-202.08 601.59,-200.67 606.19,-198.79 610.65,-196.62"/>
<polygon fill="black" stroke="black" stroke-width="2" points="611.02,-200.32 618.18,-192.51 607.71,-194.15 611.02,-200.32"/>
<text text-anchor="middle" x="350" y="-235.08" font-family="Times New Roman,serif" font-size="30.00"> &#160;&#160;362 &#160;&#160;25% &#160;&#160;4.67e&#45;08 mol/s &#160;&#160;&#160;1.00E+00</text>
</g>
<!-- R126 -->
<g id="node6" class="node">
<title>R126</title>
<g id="a_node6"><a xlink:href="126.svg" xlink:title="R126">
<polygon fill="cornsilk" stroke="none" points="94,-163.58 0,-163.58 0,-116.58 94,-116.58 94,-163.58"/>
<text text-anchor="middle" x="47" y="-131.58" font-family="Times New Roman,serif" font-size="35.00">R126</text>
</a>
</g>
</g>
<!-- R126&#45;&gt;R266 -->
<g id="edge5" class="edge">
<title>R126&#45;&gt;R266</title>
<path fill="none" stroke="black" d="M93.89,-145.32C96.97,-145.6 100.03,-145.85 103,-146.08 282.48,-159.45 495.61,-165.06 595.3,-167.08"/>
<polygon fill="black" stroke="black" points="594.96,-170.6 605.03,-167.3 595.1,-163.6 594.96,-170.6"/>
<text text-anchor="middle" x="350" y="-176.08" font-family="Times New Roman,serif" font-size="30.00"> &#160;&#160;654 &#160;&#160;0% &#160;&#160;1.01e&#45;11 mol/s &#160;&#160;&#160;1.00E+00</text>
</g>
<!-- R126&#45;&gt;R266 -->
<g id="edge6" class="edge">
<title>R126&#45;&gt;R266</title>
<path fill="none" stroke="black" stroke-width="4" d="M83.56,-116.62C89.81,-113.51 96.43,-110.8 103,-109.08 156.09,-95.14 546.67,-87.18 597,-109.08 607.25,-113.53 616.46,-120.95 624.27,-129.04"/>
<polygon fill="black" stroke="black" stroke-width="4" points="616.29,-130 634.5,-140.84 627.03,-121.02 616.29,-130"/>
<text text-anchor="middle" x="350" y="-118.08" font-family="Times New Roman,serif" font-size="30.00"> &#160;&#160;747 &#160;&#160;73% &#160;&#160;1.34e&#45;07 mol/s &#160;&#160;&#160;7.55E&#45;05</text>
</g>
<!-- R100 -->
<g id="node7" class="node">
<title>R100</title>
<g id="a_node7"><a xlink:href="100.svg" xlink:title="R100">
<polygon fill="cornsilk" stroke="none" points="94,-79.58 0,-79.58 0,-32.58 94,-32.58 94,-79.58"/>
<text text-anchor="middle" x="47" y="-47.58" font-family="Times New Roman,serif" font-size="35.00">R100</text>
</a>
</g>
</g>
<!-- R100&#45;&gt;R266 -->
<g id="edge7" class="edge">
<title>R100&#45;&gt;R266</title>
<path fill="none" stroke="black" d="M93.94,-41.34C194.1,-12.19 436.04,41.81 597,-58.08 623.67,-74.62 637.85,-108.44 645.08,-134.23"/>
<polygon fill="black" stroke="black" points="641.9,-134.91 647.78,-143.72 648.68,-133.17 641.9,-134.91"/>
<text text-anchor="middle" x="350" y="-67.08" font-family="Times New Roman,serif" font-size="30.00"> &#160;&#160;748 &#160;&#160;0% &#160;&#160;5.26e&#45;10 mol/s &#160;&#160;&#160;1.85E&#45;02</text>
</g>
</g>
</svg>
