<?xml version="1.0" encoding="UTF-8" standalone="no"?>
<!DOCTYPE svg PUBLIC "-//W3C//DTD SVG 1.1//EN"
 "http://www.w3.org/Graphics/SVG/1.1/DTD/svg11.dtd">
<!-- Generated by graphviz version 8.0.3 (20230416.2022)
 -->
<!-- Title: G Pages: 1 -->
<svg width="610pt" height="364pt"
 viewBox="0.00 0.00 686.00 409.91" xmlns="http://www.w3.org/2000/svg" xmlns:xlink="http://www.w3.org/1999/xlink">
<g id="graph0" class="graph" transform="scale(0.888889 0.888889) rotate(0) translate(4 405.91)">
<title>G</title>
<polygon fill="white" stroke="none" points="-4,4 -4,-405.91 682,-405.91 682,4 -4,4"/>
<text text-anchor="middle" x="339" y="-369.11" font-family="Arial" font-size="36.00" fill="blue">Reaction Path Analysis</text>
<!-- R269 -->
<g id="node1" class="node">
<title>R269</title>
<g id="a_node1"><a xlink:href="269.svg" xlink:title="R269">
<polygon fill="cornsilk" stroke="none" points="678,-188.41 584,-188.41 584,-141.41 678,-141.41 678,-188.41"/>
<text text-anchor="middle" x="631" y="-156.41" font-family="Times New Roman,serif" font-size="35.00">R269</text>
</a>
</g>
</g>
<!-- R87 -->
<g id="node2" class="node">
<title>R87</title>
<g id="a_node2"><a xlink:href="87.svg" xlink:title="R87">
<polygon fill="cornsilk" stroke="none" points="85,-309.41 9,-309.41 9,-262.41 85,-262.41 85,-309.41"/>
<text text-anchor="middle" x="47" y="-277.41" font-family="Times New Roman,serif" font-size="35.00">R87</text>
</a>
</g>
</g>
<!-- R87&#45;&gt;R269 -->
<g id="edge1" class="edge">
<title>R87&#45;&gt;R269</title>
<path fill="none" stroke="black" d="M84.98,-295.25C176.12,-316.05 415.65,-357.1 575,-259.91 597.37,-246.27 611.58,-219.88 619.94,-198.36"/>
<polygon fill="black" stroke="black" points="623.48,-199.87 623.58,-189.27 616.89,-197.49 623.48,-199.87"/>
<text text-anchor="middle" x="339" y="-329.91" font-family="Times New Roman,serif" font-size="30.00"> &#160;&#160;365 &#160;&#160;0% &#160;&#160;0.0342 mol/s &#160;&#160;&#160;9.99E&#45;01</text>
</g>
<!-- R13 -->
<g id="node3" class="node">
<title>R13</title>
<g id="a_node3"><a xlink:href="13.svg" xlink:title="R13">
<polygon fill="cornsilk" stroke="none" points="85,-244.41 9,-244.41 9,-197.41 85,-197.41 85,-244.41"/>
<text text-anchor="middle" x="47" y="-212.41" font-family="Times New Roman,serif" font-size="35.00">R13</text>
</a>
</g>
</g>
<!-- R13&#45;&gt;R269 -->
<g id="edge2" class="edge">
<title>R13&#45;&gt;R269</title>
<path fill="none" stroke="black" d="M84.77,-221.78C188.75,-223.87 483.3,-227.05 575,-198.91 579.59,-197.5 584.18,-195.62 588.65,-193.45"/>
<polygon fill="black" stroke="black" points="590.02,-196.15 597.17,-188.34 586.71,-189.98 590.02,-196.15"/>
<text text-anchor="middle" x="339" y="-231.91" font-family="Times New Roman,serif" font-size="30.00"> &#160;&#160;365 &#160;&#160;0% &#160;&#160;0.0342 mol/s &#160;&#160;&#160;9.99E&#45;01</text>
</g>
<!-- R139 -->
<g id="node4" class="node">
<title>R139</title>
<g id="a_node4"><a xlink:href="139.svg" xlink:title="R139">
<polygon fill="cornsilk" stroke="none" points="94,-160.41 0,-160.41 0,-113.41 94,-113.41 94,-160.41"/>
<text text-anchor="middle" x="47" y="-128.41" font-family="Times New Roman,serif" font-size="35.00">R139</text>
</a>
</g>
</g>
<!-- R139&#45;&gt;R269 -->
<g id="edge3" class="edge">
<title>R139&#45;&gt;R269</title>
<path fill="none" stroke="black" d="M93.89,-142.15C96.97,-142.43 100.03,-142.69 103,-142.91 273.84,-155.78 476.45,-161.59 573.14,-163.79"/>
<polygon fill="black" stroke="black" points="573.04,-167.31 583.12,-164.03 573.2,-160.31 573.04,-167.31"/>
<text text-anchor="middle" x="339" y="-171.91" font-family="Times New Roman,serif" font-size="30.00"> &#160;&#160;665 &#160;&#160;0% &#160;&#160;0.00272 mol/s &#160;&#160;&#160;1.00E+00</text>
</g>
<!-- R139&#45;&gt;R269 -->
<g id="edge4" class="edge">
<title>R139&#45;&gt;R269</title>
<path fill="none" stroke="black" stroke-width="5" d="M83.56,-113.46C89.81,-110.35 96.43,-107.64 103,-105.91 153.73,-92.6 526.91,-85 575,-105.91 585.25,-110.37 594.46,-117.79 602.27,-125.88"/>
<polygon fill="black" stroke="black" stroke-width="5" points="591.95,-127.96 611.5,-137.68 605.37,-116.73 591.95,-127.96"/>
<text text-anchor="middle" x="339" y="-114.91" font-family="Times New Roman,serif" font-size="30.00"> &#160;&#160;749 &#160;&#160;99% &#160;&#160;424.0 mol/s &#160;&#160;&#160;6.40E&#45;06</text>
</g>
<!-- R153 -->
<g id="node5" class="node">
<title>R153</title>
<g id="a_node5"><a xlink:href="153.svg" xlink:title="R153">
<polygon fill="cornsilk" stroke="none" points="94,-76.41 0,-76.41 0,-29.41 94,-29.41 94,-76.41"/>
<text text-anchor="middle" x="47" y="-44.41" font-family="Times New Roman,serif" font-size="35.00">R153</text>
</a>
</g>
</g>
<!-- R153&#45;&gt;R269 -->
<g id="edge5" class="edge">
<title>R153&#45;&gt;R269</title>
<path fill="none" stroke="black" d="M93.92,-38.4C191.13,-10.64 421.38,39.24 575,-55.91 601.49,-72.32 615.69,-105.83 622.98,-131.38"/>
<polygon fill="black" stroke="black" points="619.79,-131.99 625.7,-140.78 626.56,-130.22 619.79,-131.99"/>
<text text-anchor="middle" x="339" y="-64.91" font-family="Times New Roman,serif" font-size="30.00"> &#160;&#160;750 &#160;&#160;0% &#160;&#160;0.00464 mol/s &#160;&#160;&#160;2.70E&#45;01</text>
</g>
</g>
</svg>
