<?xml version="1.0" encoding="UTF-8" standalone="no"?>
<!DOCTYPE svg PUBLIC "-//W3C//DTD SVG 1.1//EN"
 "http://www.w3.org/Graphics/SVG/1.1/DTD/svg11.dtd">
<!-- Generated by graphviz version 8.0.3 (20230416.2022)
 -->
<!-- Title: G Pages: 1 -->
<svg width="640pt" height="610pt"
 viewBox="0.00 0.00 720.00 686.43" xmlns="http://www.w3.org/2000/svg" xmlns:xlink="http://www.w3.org/1999/xlink">
<g id="graph0" class="graph" transform="scale(0.465793 0.465793) rotate(0) translate(4 1305.93)">
<title>G</title>
<polygon fill="white" stroke="none" points="-4,4 -4,-1305.93 1370,-1305.93 1370,4 -4,4"/>
<text text-anchor="middle" x="683" y="-1269.13" font-family="Arial" font-size="36.00" fill="blue">Reaction Path Analysis</text>
<!-- R27 -->
<g id="node1" class="node">
<title>R27</title>
<g id="a_node1"><a xlink:href="27.svg" xlink:title="R27">
<polygon fill="cornsilk" stroke="none" points="721,-641.43 645,-641.43 645,-594.43 721,-594.43 721,-641.43"/>
<text text-anchor="middle" x="683" y="-609.43" font-family="Times New Roman,serif" font-size="35.00">R27</text>
</a>
</g>
</g>
<!-- R42 -->
<g id="node4" class="node">
<title>R42</title>
<g id="a_node4"><a xlink:href="42.svg" xlink:title="R42">
<polygon fill="cornsilk" stroke="none" points="1357,-1226.43 1281,-1226.43 1281,-1179.43 1357,-1179.43 1357,-1226.43"/>
<text text-anchor="middle" x="1319" y="-1194.43" font-family="Times New Roman,serif" font-size="35.00">R42</text>
</a>
</g>
</g>
<!-- R27&#45;&gt;R42 -->
<g id="edge3" class="edge">
<title>R27&#45;&gt;R42</title>
<path fill="none" stroke="black" d="M683.82,-641.36C683.59,-738 688.16,-1104.06 769,-1176.93 841.77,-1242.52 1151.01,-1219.62 1270.56,-1207.98"/>
<polygon fill="black" stroke="black" points="1270.58,-1211.4 1280.19,-1206.93 1269.89,-1204.43 1270.58,-1211.4"/>
<text text-anchor="middle" x="1001" y="-1229.93" font-family="Times New Roman,serif" font-size="30.00"> &#160;&#160;114 &#160;&#160;5% &#160;&#160;0.0342 mol/s &#160;&#160;&#160;1.00E+00</text>
</g>
<!-- R54 -->
<g id="node5" class="node">
<title>R54</title>
<g id="a_node5"><a xlink:href="54.svg" xlink:title="R54">
<polygon fill="cornsilk" stroke="none" points="1357,-1161.43 1281,-1161.43 1281,-1114.43 1357,-1114.43 1357,-1161.43"/>
<text text-anchor="middle" x="1319" y="-1129.43" font-family="Times New Roman,serif" font-size="35.00">R54</text>
</a>
</g>
</g>
<!-- R27&#45;&gt;R54 -->
<g id="edge4" class="edge">
<title>R27&#45;&gt;R54</title>
<path fill="none" stroke="black" d="M684.34,-641.28C686.16,-730.47 697.63,-1047.75 769,-1110.93 806.06,-1143.74 1143.69,-1141.1 1270.32,-1138.92"/>
<polygon fill="black" stroke="black" points="1270.26,-1142.41 1280.2,-1138.73 1270.13,-1135.41 1270.26,-1142.41"/>
<text text-anchor="middle" x="1001" y="-1148.93" font-family="Times New Roman,serif" font-size="30.00"> &#160;&#160;170 &#160;&#160;5% &#160;&#160;0.0342 mol/s &#160;&#160;&#160;1.00E+00</text>
</g>
<!-- R120 -->
<g id="node6" class="node">
<title>R120</title>
<g id="a_node6"><a xlink:href="120.svg" xlink:title="R120">
<polygon fill="cornsilk" stroke="none" points="1366,-1096.43 1272,-1096.43 1272,-1049.43 1366,-1049.43 1366,-1096.43"/>
<text text-anchor="middle" x="1319" y="-1064.43" font-family="Times New Roman,serif" font-size="35.00">R120</text>
</a>
</g>
</g>
<!-- R27&#45;&gt;R120 -->
<g id="edge5" class="edge">
<title>R27&#45;&gt;R120</title>
<path fill="none" stroke="black" d="M685,-641.25C689.01,-722.66 706.84,-992.29 769,-1045.93 805.63,-1077.54 1128.75,-1076.01 1261.47,-1074.01"/>
<polygon fill="black" stroke="black" points="1261.26,-1077.5 1271.2,-1073.84 1261.15,-1070.5 1261.26,-1077.5"/>
<text text-anchor="middle" x="1001" y="-1082.93" font-family="Times New Roman,serif" font-size="30.00"> &#160;&#160;171 &#160;&#160;5% &#160;&#160;0.034 mol/s &#160;&#160;&#160;9.95E&#45;01</text>
</g>
<!-- R69 -->
<g id="node7" class="node">
<title>R69</title>
<g id="a_node7"><a xlink:href="69.svg" xlink:title="R69">
<polygon fill="cornsilk" stroke="none" points="1357,-1031.43 1281,-1031.43 1281,-984.43 1357,-984.43 1357,-1031.43"/>
<text text-anchor="middle" x="1319" y="-999.43" font-family="Times New Roman,serif" font-size="35.00">R69</text>
</a>
</g>
</g>
<!-- R27&#45;&gt;R69 -->
<g id="edge6" class="edge">
<title>R27&#45;&gt;R69</title>
<path fill="none" stroke="black" d="M685.88,-641.22C692.31,-714.28 715.99,-936.74 769,-980.93 807.02,-1012.63 1144.05,-1010.68 1270.42,-1008.8"/>
<polygon fill="black" stroke="black" points="1270.33,-1012.29 1280.28,-1008.63 1270.22,-1005.29 1270.33,-1012.29"/>
<text text-anchor="middle" x="1001" y="-1017.93" font-family="Times New Roman,serif" font-size="30.00"> &#160;&#160;241 &#160;&#160;5% &#160;&#160;0.033 mol/s &#160;&#160;&#160;9.68E&#45;01</text>
</g>
<!-- R183 -->
<g id="node8" class="node">
<title>R183</title>
<g id="a_node8"><a xlink:href="183.svg" xlink:title="R183">
<polygon fill="cornsilk" stroke="none" points="1366,-966.43 1272,-966.43 1272,-919.43 1366,-919.43 1366,-966.43"/>
<text text-anchor="middle" x="1319" y="-934.43" font-family="Times New Roman,serif" font-size="35.00">R183</text>
</a>
</g>
</g>
<!-- R27&#45;&gt;R183 -->
<g id="edge7" class="edge">
<title>R27&#45;&gt;R183</title>
<path fill="none" stroke="black" d="M687.17,-641.22C696.37,-705.01 725.23,-880.14 769,-914.93 806.88,-945.03 1129.27,-945.01 1261.63,-943.7"/>
<polygon fill="black" stroke="black" points="1261.37,-947.2 1271.33,-943.59 1261.3,-940.2 1261.37,-947.2"/>
<text text-anchor="middle" x="1001" y="-952.93" font-family="Times New Roman,serif" font-size="30.00"> &#160;&#160;242 &#160;&#160;5% &#160;&#160;0.0334 mol/s &#160;&#160;&#160;9.78E&#45;01</text>
</g>
<!-- R77 -->
<g id="node9" class="node">
<title>R77</title>
<g id="a_node9"><a xlink:href="77.svg" xlink:title="R77">
<polygon fill="cornsilk" stroke="none" points="1357,-901.43 1281,-901.43 1281,-854.43 1357,-854.43 1357,-901.43"/>
<text text-anchor="middle" x="1319" y="-869.43" font-family="Times New Roman,serif" font-size="35.00">R77</text>
</a>
</g>
</g>
<!-- R27&#45;&gt;R77 -->
<g id="edge8" class="edge">
<title>R27&#45;&gt;R77</title>
<path fill="none" stroke="black" d="M684.62,-641.23C687.31,-689.43 700.98,-799.78 769,-849.93 808.8,-879.27 1143.96,-879.46 1270.18,-878.46"/>
<polygon fill="black" stroke="black" points="1270.05,-881.96 1280.02,-878.37 1269.99,-874.96 1270.05,-881.96"/>
<text text-anchor="middle" x="1001" y="-886.93" font-family="Times New Roman,serif" font-size="30.00"> &#160;&#160;284 &#160;&#160;5% &#160;&#160;0.0342 mol/s &#160;&#160;&#160;1.00E+00</text>
</g>
<!-- R219 -->
<g id="node10" class="node">
<title>R219</title>
<g id="a_node10"><a xlink:href="219.svg" xlink:title="R219">
<polygon fill="cornsilk" stroke="none" points="1366,-836.43 1272,-836.43 1272,-789.43 1366,-789.43 1366,-836.43"/>
<text text-anchor="middle" x="1319" y="-804.43" font-family="Times New Roman,serif" font-size="35.00">R219</text>
</a>
</g>
</g>
<!-- R27&#45;&gt;R219 -->
<g id="edge9" class="edge">
<title>R27&#45;&gt;R219</title>
<path fill="none" stroke="black" d="M688.2,-641.17C696.37,-678.76 718.24,-752 769,-784.93 809.54,-811.23 1129.63,-813.44 1261.51,-813.22"/>
<polygon fill="black" stroke="black" points="1261.18,-816.72 1271.18,-813.19 1261.17,-809.72 1261.18,-816.72"/>
<text text-anchor="middle" x="1001" y="-821.93" font-family="Times New Roman,serif" font-size="30.00"> &#160;&#160;285 &#160;&#160;5% &#160;&#160;0.0342 mol/s &#160;&#160;&#160;1.00E+00</text>
</g>
<!-- R230 -->
<g id="node11" class="node">
<title>R230</title>
<g id="a_node11"><a xlink:href="230.svg" xlink:title="R230">
<polygon fill="cornsilk" stroke="none" points="1366,-771.43 1272,-771.43 1272,-724.43 1366,-724.43 1366,-771.43"/>
<text text-anchor="middle" x="1319" y="-739.43" font-family="Times New Roman,serif" font-size="35.00">R230</text>
</a>
</g>
</g>
<!-- R27&#45;&gt;R230 -->
<g id="edge10" class="edge">
<title>R27&#45;&gt;R230</title>
<path fill="none" stroke="black" d="M694.57,-640.98C707.85,-666.89 733.3,-707.7 769,-725.93 812.02,-747.89 1130.66,-748.87 1261.83,-748.33"/>
<polygon fill="black" stroke="black" points="1261.46,-751.82 1271.44,-748.28 1261.42,-744.82 1261.46,-751.82"/>
<text text-anchor="middle" x="1001" y="-756.93" font-family="Times New Roman,serif" font-size="30.00"> &#160;&#160;303 &#160;&#160;5% &#160;&#160;0.0342 mol/s &#160;&#160;&#160;1.00E+00</text>
</g>
<!-- R235 -->
<g id="node12" class="node">
<title>R235</title>
<g id="a_node12"><a xlink:href="235.svg" xlink:title="R235">
<polygon fill="cornsilk" stroke="none" points="1366,-706.43 1272,-706.43 1272,-659.43 1366,-659.43 1366,-706.43"/>
<text text-anchor="middle" x="1319" y="-674.43" font-family="Times New Roman,serif" font-size="35.00">R235</text>
</a>
</g>
</g>
<!-- R27&#45;&gt;R235 -->
<g id="edge11" class="edge">
<title>R27&#45;&gt;R235</title>
<path fill="none" stroke="black" d="M720.66,-637.33C735.29,-644.15 752.55,-651.06 769,-654.93 944.74,-696.22 1160.51,-691.78 1261.21,-686.64"/>
<polygon fill="black" stroke="black" points="1261.24,-690.09 1271.04,-686.07 1260.87,-683.1 1261.24,-690.09"/>
<text text-anchor="middle" x="1001" y="-697.93" font-family="Times New Roman,serif" font-size="30.00"> &#160;&#160;314 &#160;&#160;5% &#160;&#160;0.034 mol/s &#160;&#160;&#160;9.95E&#45;01</text>
</g>
<!-- R239 -->
<g id="node13" class="node">
<title>R239</title>
<g id="a_node13"><a xlink:href="239.svg" xlink:title="R239">
<polygon fill="cornsilk" stroke="none" points="1366,-641.43 1272,-641.43 1272,-594.43 1366,-594.43 1366,-641.43"/>
<text text-anchor="middle" x="1319" y="-609.43" font-family="Times New Roman,serif" font-size="35.00">R239</text>
</a>
</g>
</g>
<!-- R27&#45;&gt;R239 -->
<g id="edge12" class="edge">
<title>R27&#45;&gt;R239</title>
<path fill="none" stroke="black" d="M720.83,-617.93C827.01,-617.93 1134.29,-617.93 1261.66,-617.93"/>
<polygon fill="black" stroke="black" points="1261.33,-621.43 1271.33,-617.93 1261.33,-614.43 1261.33,-621.43"/>
<text text-anchor="middle" x="1001" y="-626.93" font-family="Times New Roman,serif" font-size="30.00"> &#160;&#160;321 &#160;&#160;5% &#160;&#160;0.0342 mol/s &#160;&#160;&#160;1.00E+00</text>
</g>
<!-- R240 -->
<g id="node14" class="node">
<title>R240</title>
<g id="a_node14"><a xlink:href="240.svg" xlink:title="R240">
<polygon fill="cornsilk" stroke="none" points="1366,-576.43 1272,-576.43 1272,-529.43 1366,-529.43 1366,-576.43"/>
<text text-anchor="middle" x="1319" y="-544.43" font-family="Times New Roman,serif" font-size="35.00">R240</text>
</a>
</g>
</g>
<!-- R27&#45;&gt;R240 -->
<g id="edge13" class="edge">
<title>R27&#45;&gt;R240</title>
<path fill="none" stroke="black" d="M720.66,-598.53C735.29,-591.71 752.55,-584.79 769,-580.93 944.74,-539.64 1160.51,-544.08 1261.21,-549.22"/>
<polygon fill="black" stroke="black" points="1260.87,-552.76 1271.04,-549.79 1261.24,-545.77 1260.87,-552.76"/>
<text text-anchor="middle" x="1001" y="-589.93" font-family="Times New Roman,serif" font-size="30.00"> &#160;&#160;322 &#160;&#160;5% &#160;&#160;0.0342 mol/s &#160;&#160;&#160;1.00E+00</text>
</g>
<!-- R248 -->
<g id="node16" class="node">
<title>R248</title>
<g id="a_node16"><a xlink:href="248.svg" xlink:title="R248">
<polygon fill="cornsilk" stroke="none" points="1366,-511.43 1272,-511.43 1272,-464.43 1366,-464.43 1366,-511.43"/>
<text text-anchor="middle" x="1319" y="-479.43" font-family="Times New Roman,serif" font-size="35.00">R248</text>
</a>
</g>
</g>
<!-- R27&#45;&gt;R248 -->
<g id="edge15" class="edge">
<title>R27&#45;&gt;R248</title>
<path fill="none" stroke="black" d="M694.51,-594.66C707.72,-568.51 733.12,-527.31 769,-508.93 853.57,-465.61 1139.03,-477 1261.47,-484.18"/>
<polygon fill="black" stroke="black" points="1260.91,-487.71 1271.1,-484.82 1261.33,-480.73 1260.91,-487.71"/>
<text text-anchor="middle" x="1001" y="-517.93" font-family="Times New Roman,serif" font-size="30.00"> &#160;&#160;336 &#160;&#160;5% &#160;&#160;0.0342 mol/s &#160;&#160;&#160;1.00E+00</text>
</g>
<!-- R282 -->
<g id="node18" class="node">
<title>R282</title>
<g id="a_node18"><a xlink:href="282.svg" xlink:title="R282">
<polygon fill="cornsilk" stroke="none" points="1366,-446.43 1272,-446.43 1272,-399.43 1366,-399.43 1366,-446.43"/>
<text text-anchor="middle" x="1319" y="-414.43" font-family="Times New Roman,serif" font-size="35.00">R282</text>
</a>
</g>
</g>
<!-- R27&#45;&gt;R282 -->
<g id="edge17" class="edge">
<title>R27&#45;&gt;R282</title>
<path fill="none" stroke="black" d="M687.34,-594.69C694.41,-555.04 714.94,-475.2 769,-439.93 848.75,-387.89 1138.22,-406.7 1261.63,-417.49"/>
<polygon fill="black" stroke="black" points="1261.07,-421.04 1271.34,-418.44 1261.69,-414.07 1261.07,-421.04"/>
<text text-anchor="middle" x="1001" y="-448.93" font-family="Times New Roman,serif" font-size="30.00"> &#160;&#160;383 &#160;&#160;5% &#160;&#160;0.0342 mol/s &#160;&#160;&#160;1.00E+00</text>
</g>
<!-- R283 -->
<g id="node19" class="node">
<title>R283</title>
<g id="a_node19"><a xlink:href="283.svg" xlink:title="R283">
<polygon fill="cornsilk" stroke="none" points="1366,-381.43 1272,-381.43 1272,-334.43 1366,-334.43 1366,-381.43"/>
<text text-anchor="middle" x="1319" y="-349.43" font-family="Times New Roman,serif" font-size="35.00">R283</text>
</a>
</g>
</g>
<!-- R27&#45;&gt;R283 -->
<g id="edge18" class="edge">
<title>R27&#45;&gt;R283</title>
<path fill="none" stroke="black" d="M683.84,-594.75C684.9,-543.88 695.42,-422.69 769,-368.93 845.96,-312.7 1137.66,-337.6 1261.67,-351.2"/>
<polygon fill="black" stroke="black" points="1261.1,-354.77 1271.43,-352.4 1261.87,-347.81 1261.1,-354.77"/>
<text text-anchor="middle" x="1001" y="-377.93" font-family="Times New Roman,serif" font-size="30.00"> &#160;&#160;384 &#160;&#160;5% &#160;&#160;0.0342 mol/s &#160;&#160;&#160;1.00E+00</text>
</g>
<!-- R304 -->
<g id="node21" class="node">
<title>R304</title>
<g id="a_node21"><a xlink:href="304.svg" xlink:title="R304">
<polygon fill="cornsilk" stroke="none" points="1366,-316.43 1272,-316.43 1272,-269.43 1366,-269.43 1366,-316.43"/>
<text text-anchor="middle" x="1319" y="-284.43" font-family="Times New Roman,serif" font-size="35.00">R304</text>
</a>
</g>
</g>
<!-- R27&#45;&gt;R304 -->
<g id="edge20" class="edge">
<title>R27&#45;&gt;R304</title>
<path fill="none" stroke="black" d="M686.56,-594.64C694.49,-527.18 721.05,-334.11 769,-296.93 807.19,-267.32 1129.4,-282.11 1261.67,-289.54"/>
<polygon fill="black" stroke="black" points="1261.18,-293.07 1271.37,-290.15 1261.58,-286.09 1261.18,-293.07"/>
<text text-anchor="middle" x="1001" y="-305.93" font-family="Times New Roman,serif" font-size="30.00"> &#160;&#160;410 &#160;&#160;5% &#160;&#160;0.0342 mol/s &#160;&#160;&#160;1.00E+00</text>
</g>
<!-- R311 -->
<g id="node24" class="node">
<title>R311</title>
<g id="a_node24"><a xlink:href="311.svg" xlink:title="R311">
<polygon fill="cornsilk" stroke="none" points="1366,-251.43 1272,-251.43 1272,-204.43 1366,-204.43 1366,-251.43"/>
<text text-anchor="middle" x="1319" y="-219.43" font-family="Times New Roman,serif" font-size="35.00">R311</text>
</a>
</g>
</g>
<!-- R27&#45;&gt;R311 -->
<g id="edge23" class="edge">
<title>R27&#45;&gt;R311</title>
<path fill="none" stroke="black" d="M685.66,-594.62C691.49,-519.85 713.8,-288.26 769,-242.93 842.67,-182.42 1136.22,-207.29 1261.19,-221.07"/>
<polygon fill="black" stroke="black" points="1260.71,-224.65 1271.04,-222.29 1261.49,-217.7 1260.71,-224.65"/>
<text text-anchor="middle" x="1001" y="-251.93" font-family="Times New Roman,serif" font-size="30.00"> &#160;&#160;417 &#160;&#160;5% &#160;&#160;0.0342 mol/s &#160;&#160;&#160;1.00E+00</text>
</g>
<!-- R312 -->
<g id="node25" class="node">
<title>R312</title>
<g id="a_node25"><a xlink:href="312.svg" xlink:title="R312">
<polygon fill="cornsilk" stroke="none" points="1366,-186.43 1272,-186.43 1272,-139.43 1366,-139.43 1366,-186.43"/>
<text text-anchor="middle" x="1319" y="-154.43" font-family="Times New Roman,serif" font-size="35.00">R312</text>
</a>
</g>
</g>
<!-- R27&#45;&gt;R312 -->
<g id="edge24" class="edge">
<title>R27&#45;&gt;R312</title>
<path fill="none" stroke="black" d="M684.68,-594.51C687.66,-510.1 702.6,-223.47 769,-167.93 806.07,-136.92 1128.93,-151.9 1261.53,-159.47"/>
<polygon fill="black" stroke="black" points="1261.06,-163.01 1271.25,-160.09 1261.47,-156.02 1261.06,-163.01"/>
<text text-anchor="middle" x="1001" y="-176.93" font-family="Times New Roman,serif" font-size="30.00"> &#160;&#160;418 &#160;&#160;5% &#160;&#160;0.0341 mol/s &#160;&#160;&#160;9.99E&#45;01</text>
</g>
<!-- R313 -->
<g id="node26" class="node">
<title>R313</title>
<g id="a_node26"><a xlink:href="313.svg" xlink:title="R313">
<polygon fill="cornsilk" stroke="none" points="1366,-121.43 1272,-121.43 1272,-74.43 1366,-74.43 1366,-121.43"/>
<text text-anchor="middle" x="1319" y="-89.43" font-family="Times New Roman,serif" font-size="35.00">R313</text>
</a>
</g>
</g>
<!-- R27&#45;&gt;R313 -->
<g id="edge25" class="edge">
<title>R27&#45;&gt;R313</title>
<path fill="none" stroke="black" d="M684.19,-594.59C685.47,-503.93 695.2,-177.1 769,-112.93 841.03,-50.3 1136.17,-76.46 1261.4,-90.83"/>
<polygon fill="black" stroke="black" points="1260.93,-94.42 1271.26,-92.1 1261.74,-87.46 1260.93,-94.42"/>
<text text-anchor="middle" x="1001" y="-121.93" font-family="Times New Roman,serif" font-size="30.00"> &#160;&#160;419 &#160;&#160;5% &#160;&#160;0.0342 mol/s &#160;&#160;&#160;1.00E+00</text>
</g>
<!-- R16 -->
<g id="node27" class="node">
<title>R16</title>
<g id="a_node27"><a xlink:href="16.svg" xlink:title="R16">
<polygon fill="cornsilk" stroke="none" points="1357,-56.43 1281,-56.43 1281,-9.43 1357,-9.43 1357,-56.43"/>
<text text-anchor="middle" x="1319" y="-24.43" font-family="Times New Roman,serif" font-size="35.00">R16</text>
</a>
</g>
</g>
<!-- R27&#45;&gt;R16 -->
<g id="edge26" class="edge">
<title>R27&#45;&gt;R16</title>
<path fill="none" stroke="black" d="M683.59,-594.51C682.41,-495.31 683.47,-111.4 769,-36.93 842.8,27.33 1151.42,-8.92 1270.68,-25.79"/>
<polygon fill="black" stroke="black" points="1269.89,-29.35 1280.28,-27.31 1270.88,-22.42 1269.89,-29.35"/>
<text text-anchor="middle" x="1001" y="-45.93" font-family="Times New Roman,serif" font-size="30.00"> &#160;&#160;432 &#160;&#160;0% &#160;&#160;0.00223 mol/s &#160;&#160;&#160;8.48E&#45;01</text>
</g>
<!-- R13 -->
<g id="node2" class="node">
<title>R13</title>
<g id="a_node2"><a xlink:href="13.svg" xlink:title="R13">
<polygon fill="cornsilk" stroke="none" points="85,-836.43 9,-836.43 9,-789.43 85,-789.43 85,-836.43"/>
<text text-anchor="middle" x="47" y="-804.43" font-family="Times New Roman,serif" font-size="35.00">R13</text>
</a>
</g>
</g>
<!-- R13&#45;&gt;R27 -->
<g id="edge1" class="edge">
<title>R13&#45;&gt;R27</title>
<path fill="none" stroke="black" d="M84.94,-824.01C184.31,-851.39 461.02,-911.24 627,-784.93 668.01,-753.72 678.85,-691.04 681.48,-651.97"/>
<polygon fill="black" stroke="black" points="685.02,-652.32 682.04,-642.15 678.03,-651.95 685.02,-652.32"/>
<text text-anchor="middle" x="365" y="-870.93" font-family="Times New Roman,serif" font-size="30.00"> &#160;&#160;32 &#160;&#160;0% &#160;&#160;0.0342 mol/s &#160;&#160;&#160;1.00E+00</text>
</g>
<!-- R1 -->
<g id="node3" class="node">
<title>R1</title>
<g id="a_node3"><a xlink:href="1.svg" xlink:title="R1">
<polygon fill="cornsilk" stroke="none" points="76,-771.43 18,-771.43 18,-724.43 76,-724.43 76,-771.43"/>
<text text-anchor="middle" x="47" y="-739.43" font-family="Times New Roman,serif" font-size="35.00">R1</text>
</a>
</g>
</g>
<!-- R1&#45;&gt;R27 -->
<g id="edge2" class="edge">
<title>R1&#45;&gt;R27</title>
<path fill="none" stroke="black" d="M75.98,-748.23C185.34,-749.18 580.16,-750.53 627,-720.93 651.37,-705.53 665.64,-675.45 673.51,-651.76"/>
<polygon fill="black" stroke="black" points="677.1,-652.98 676.69,-642.4 670.41,-650.93 677.1,-652.98"/>
<text text-anchor="middle" x="365" y="-756.93" font-family="Times New Roman,serif" font-size="30.00"> &#160;&#160;32 &#160;&#160;0% &#160;&#160;0.0342 mol/s &#160;&#160;&#160;1.00E+00</text>
</g>
<!-- R247 -->
<g id="node15" class="node">
<title>R247</title>
<g id="a_node15"><a xlink:href="247.svg" xlink:title="R247">
<polygon fill="cornsilk" stroke="none" points="94,-706.43 0,-706.43 0,-659.43 94,-659.43 94,-706.43"/>
<text text-anchor="middle" x="47" y="-674.43" font-family="Times New Roman,serif" font-size="35.00">R247</text>
</a>
</g>
</g>
<!-- R247&#45;&gt;R27 -->
<g id="edge14" class="edge">
<title>R247&#45;&gt;R27</title>
<path fill="none" stroke="black" d="M93.94,-683.87C212.89,-685.8 528.49,-687.6 627,-654.93 632.95,-652.96 638.85,-650.15 644.47,-646.95"/>
<polygon fill="black" stroke="black" points="645.95,-649.53 652.59,-641.28 642.25,-643.59 645.95,-649.53"/>
<text text-anchor="middle" x="365" y="-692.93" font-family="Times New Roman,serif" font-size="30.00"> &#160;&#160;335 &#160;&#160;0% &#160;&#160;3.18 mol/s &#160;&#160;&#160;1.05E&#45;02</text>
</g>
<!-- R252 -->
<g id="node17" class="node">
<title>R252</title>
<g id="a_node17"><a xlink:href="252.svg" xlink:title="R252">
<polygon fill="cornsilk" stroke="none" points="94,-641.43 0,-641.43 0,-594.43 94,-594.43 94,-641.43"/>
<text text-anchor="middle" x="47" y="-609.43" font-family="Times New Roman,serif" font-size="35.00">R252</text>
</a>
</g>
</g>
<!-- R252&#45;&gt;R27 -->
<g id="edge16" class="edge">
<title>R252&#45;&gt;R27</title>
<path fill="none" stroke="black" d="M93.85,-617.93C210.27,-617.93 516.42,-617.93 634.55,-617.93"/>
<polygon fill="black" stroke="black" points="634.38,-621.43 644.38,-617.93 634.38,-614.43 634.38,-621.43"/>
<text text-anchor="middle" x="365" y="-626.93" font-family="Times New Roman,serif" font-size="30.00"> &#160;&#160;382 &#160;&#160;0% &#160;&#160;239.0 mol/s &#160;&#160;&#160;1.43E&#45;04</text>
</g>
<!-- R303 -->
<g id="node20" class="node">
<title>R303</title>
<g id="a_node20"><a xlink:href="303.svg" xlink:title="R303">
<polygon fill="cornsilk" stroke="none" points="94,-576.43 0,-576.43 0,-529.43 94,-529.43 94,-576.43"/>
<text text-anchor="middle" x="47" y="-544.43" font-family="Times New Roman,serif" font-size="35.00">R303</text>
</a>
</g>
</g>
<!-- R303&#45;&gt;R27 -->
<g id="edge19" class="edge">
<title>R303&#45;&gt;R27</title>
<path fill="none" stroke="black" stroke-width="5" d="M93.81,-547.01C193.71,-535.84 437.39,-518.04 627,-580.93 629.9,-581.89 632.79,-583.05 635.65,-584.36"/>
<polygon fill="black" stroke="black" stroke-width="5" points="626.88,-589.29 648.59,-591.58 635.54,-574.08 626.88,-589.29"/>
<text text-anchor="middle" x="365" y="-589.93" font-family="Times New Roman,serif" font-size="30.00"> &#160;&#160;409 &#160;&#160;96% &#160;&#160;11800000.0 mol/s &#160;&#160;&#160;2.89E&#45;09</text>
</g>
<!-- R307 -->
<g id="node22" class="node">
<title>R307</title>
<g id="a_node22"><a xlink:href="307.svg" xlink:title="R307">
<polygon fill="cornsilk" stroke="none" points="94,-511.43 0,-511.43 0,-464.43 94,-464.43 94,-511.43"/>
<text text-anchor="middle" x="47" y="-479.43" font-family="Times New Roman,serif" font-size="35.00">R307</text>
</a>
</g>
</g>
<!-- R307&#45;&gt;R27 -->
<g id="edge21" class="edge">
<title>R307&#45;&gt;R27</title>
<path fill="none" stroke="black" d="M93.95,-482.63C215.1,-469.59 539.91,-440.98 627,-497.93 656.12,-516.98 670.05,-555.65 676.56,-583.96"/>
<polygon fill="black" stroke="black" points="673.31,-584.54 678.78,-593.62 680.17,-583.11 673.31,-584.54"/>
<text text-anchor="middle" x="365" y="-506.93" font-family="Times New Roman,serif" font-size="30.00"> &#160;&#160;413 &#160;&#160;3% &#160;&#160;456000.0 mol/s &#160;&#160;&#160;7.50E&#45;08</text>
</g>
<!-- R310 -->
<g id="node23" class="node">
<title>R310</title>
<g id="a_node23"><a xlink:href="310.svg" xlink:title="R310">
<polygon fill="cornsilk" stroke="none" points="94,-446.43 0,-446.43 0,-399.43 94,-399.43 94,-446.43"/>
<text text-anchor="middle" x="47" y="-414.43" font-family="Times New Roman,serif" font-size="35.00">R310</text>
</a>
</g>
</g>
<!-- R310&#45;&gt;R27 -->
<g id="edge22" class="edge">
<title>R310&#45;&gt;R27</title>
<path fill="none" stroke="black" d="M94,-406.52C200.21,-371.81 465.77,-303.74 627,-425.93 652.18,-445.01 669.38,-534.2 677.2,-584.03"/>
<polygon fill="black" stroke="black" points="673.85,-584.26 678.82,-593.62 680.77,-583.2 673.85,-584.26"/>
<text text-anchor="middle" x="365" y="-434.93" font-family="Times New Roman,serif" font-size="30.00"> &#160;&#160;416 &#160;&#160;0% &#160;&#160;6.28 mol/s &#160;&#160;&#160;5.39E&#45;03</text>
</g>
</g>
</svg>
