<?xml version="1.0" encoding="UTF-8" standalone="no"?>
<!DOCTYPE svg PUBLIC "-//W3C//DTD SVG 1.1//EN"
 "http://www.w3.org/Graphics/SVG/1.1/DTD/svg11.dtd">
<!-- Generated by graphviz version 8.0.3 (20230416.2022)
 -->
<!-- Title: G Pages: 1 -->
<svg width="640pt" height="68pt"
 viewBox="0.00 0.00 720.00 76.82" xmlns="http://www.w3.org/2000/svg" xmlns:xlink="http://www.w3.org/1999/xlink">
<g id="graph0" class="graph" transform="scale(0.391318 0.391318) rotate(0) translate(4 170.5)">
<title>G</title>
<polygon fill="white" stroke="none" points="-4,4 -4,-170.5 1631.5,-170.5 1631.5,4 -4,4"/>
<text text-anchor="middle" x="813.75" y="-133.7" font-family="Arial" font-size="36.00" fill="blue">Reaction Path Analysis</text>
<!-- CH3CHO(S) -->
<g id="node1" class="node">
<title>CH3CHO(S)</title>
<g id="a_node1"><a xlink:href="27.svg" xlink:title="CH3CHO(S)">
<polygon fill="dodgerblue" stroke="none" points="926,-79 726,-79 726,-32 926,-32 926,-79"/>
<text text-anchor="middle" x="826" y="-47" font-family="Times New Roman,serif" font-size="35.00">CH3CHO(S)</text>
</a>
</g>
</g>
<!-- CH3CO(S) -->
<g id="node3" class="node">
<title>CH3CO(S)</title>
<g id="a_node3"><a xlink:href="28.svg" xlink:title="CH3CO(S)">
<polygon fill="springgreen" stroke="none" points="1627.5,-79 1452.5,-79 1452.5,-32 1627.5,-32 1627.5,-79"/>
<text text-anchor="middle" x="1540" y="-47" font-family="Times New Roman,serif" font-size="35.00">CH3CO(S)</text>
</a>
</g>
</g>
<!-- CH3CHO(S)&#45;&gt;CH3CO(S) -->
<g id="edge2" class="edge">
<title>CH3CHO(S)&#45;&gt;CH3CO(S)</title>
<path fill="none" stroke="green" stroke-width="5" d="M925.63,-55.5C1058.68,-55.5 1294.76,-55.5 1431.99,-55.5"/>
<polygon fill="green" stroke="green" stroke-width="5" points="1426.72,-64.25 1446.72,-55.5 1426.72,-46.75 1426.72,-64.25"/>
<text text-anchor="middle" x="1183" y="-64.5" font-family="Times New Roman,serif" font-size="30.00"> &#160;&#160;24 &#160;&#160;99% &#160;&#160;8e&#45;07 mol/s &#160;&#160;&#160;5.02E&#45;01</text>
</g>
<!-- CH3CH2O(S) -->
<g id="node2" class="node">
<title>CH3CH2O(S)</title>
<g id="a_node2"><a xlink:href="26.svg" xlink:title="CH3CH2O(S)">
<polygon fill="purple" stroke="none" points="221,-112 3,-112 3,-65 221,-65 221,-112"/>
<text text-anchor="middle" x="112" y="-80" font-family="Times New Roman,serif" font-size="35.00">CH3CH2O(S)</text>
</a>
</g>
</g>
<!-- CH3CH2O(S)&#45;&gt;CH3CHO(S) -->
<g id="edge1" class="edge">
<title>CH3CH2O(S)&#45;&gt;CH3CHO(S)</title>
<path fill="none" stroke="black" stroke-width="5" d="M220.84,-86.25C339.57,-83.36 536.03,-77.38 705,-66.5 705.11,-66.49 705.22,-66.49 705.32,-66.48"/>
<polygon fill="black" stroke="black" stroke-width="5" points="700.83,-75.14 720.15,-64.99 699.58,-57.69 700.83,-75.14"/>
<text text-anchor="middle" x="469" y="-94.5" font-family="Times New Roman,serif" font-size="30.00"> &#160;&#160;23 &#160;&#160;82% &#160;&#160;7.05e&#45;07 mol/s &#160;&#160;&#160;9.91E&#45;01</text>
</g>
<!-- CH3CHOH(S) -->
<g id="node4" class="node">
<title>CH3CHOH(S)</title>
<g id="a_node4"><a xlink:href="15.svg" xlink:title="CH3CHOH(S)">
<polygon fill="dodgerblue" stroke="none" points="224,-47 0,-47 0,0 224,0 224,-47"/>
<text text-anchor="middle" x="112" y="-15" font-family="Times New Roman,serif" font-size="35.00">CH3CHOH(S)</text>
</a>
</g>
</g>
<!-- CH3CHOH(S)&#45;&gt;CH3CHO(S) -->
<g id="edge3" class="edge">
<title>CH3CHOH(S)&#45;&gt;CH3CHO(S)</title>
<path fill="none" stroke="black" d="M223.79,-19.95C342.96,-17.4 537.89,-16.88 705,-33.5 708.48,-33.85 712.01,-34.24 715.56,-34.67"/>
<polygon fill="black" stroke="black" points="714.93,-38.25 725.3,-36.08 715.84,-31.31 714.93,-38.25"/>
<text text-anchor="middle" x="469" y="-42.5" font-family="Times New Roman,serif" font-size="30.00"> &#160;&#160;70 &#160;&#160;17% &#160;&#160;1.52e&#45;07 mol/s &#160;&#160;&#160;5.54E&#45;01</text>
</g>
</g>
</svg>
