<?xml version="1.0" encoding="UTF-8" standalone="no"?>
<!DOCTYPE svg PUBLIC "-//W3C//DTD SVG 1.1//EN"
 "http://www.w3.org/Graphics/SVG/1.1/DTD/svg11.dtd">
<!-- Generated by graphviz version 8.0.3 (20230416.2022)
 -->
<!-- Title: G Pages: 1 -->
<svg width="640pt" height="121pt"
 viewBox="0.00 0.00 720.00 135.80" xmlns="http://www.w3.org/2000/svg" xmlns:xlink="http://www.w3.org/1999/xlink">
<g id="graph0" class="graph" transform="scale(0.47619 0.47619) rotate(0) translate(4 249.5)">
<title>G</title>
<polygon fill="white" stroke="none" points="-4,4 -4,-249.5 1340,-249.5 1340,4 -4,4"/>
<text text-anchor="middle" x="668" y="-212.7" font-family="Arial" font-size="36.00" fill="blue">Reaction Path Analysis</text>
<!-- R270 -->
<g id="node1" class="node">
<title>R270</title>
<g id="a_node1"><a xlink:href="270.svg" xlink:title="R270">
<polygon fill="cornsilk" stroke="none" points="715,-112 621,-112 621,-65 715,-65 715,-112"/>
<text text-anchor="middle" x="668" y="-80" font-family="Times New Roman,serif" font-size="35.00">R270</text>
</a>
</g>
</g>
<!-- R299 -->
<g id="node5" class="node">
<title>R299</title>
<g id="a_node5"><a xlink:href="299.svg" xlink:title="R299">
<polygon fill="cornsilk" stroke="none" points="1336,-112 1242,-112 1242,-65 1336,-65 1336,-112"/>
<text text-anchor="middle" x="1289" y="-80" font-family="Times New Roman,serif" font-size="35.00">R299</text>
</a>
</g>
</g>
<!-- R270&#45;&gt;R299 -->
<g id="edge4" class="edge">
<title>R270&#45;&gt;R299</title>
<path fill="none" stroke="black" stroke-width="6" d="M714.77,-88.5C822.93,-88.5 1094.71,-88.5 1221.25,-88.5"/>
<polygon fill="black" stroke="black" stroke-width="6" points="1216.05,-99 1236.05,-88.5 1216.05,-78 1216.05,-99"/>
<text text-anchor="middle" x="978.5" y="-97.5" font-family="Times New Roman,serif" font-size="30.00"> &#160;&#160;752 &#160;&#160;100% &#160;&#160;1.01e&#45;11 mol/s &#160;&#160;&#160;1.00E+00</text>
</g>
<!-- R88 -->
<g id="node2" class="node">
<title>R88</title>
<g id="a_node2"><a xlink:href="88.svg" xlink:title="R88">
<polygon fill="cornsilk" stroke="none" points="85,-177 9,-177 9,-130 85,-130 85,-177"/>
<text text-anchor="middle" x="47" y="-145" font-family="Times New Roman,serif" font-size="35.00">R88</text>
</a>
</g>
</g>
<!-- R88&#45;&gt;R270 -->
<g id="edge1" class="edge">
<title>R88&#45;&gt;R270</title>
<path fill="none" stroke="black" d="M84.85,-157.32C175.05,-165.46 413.27,-179.64 601,-125.5 608.38,-123.37 615.82,-120.29 622.93,-116.8"/>
<polygon fill="black" stroke="black" points="624.14,-119.59 631.36,-111.83 620.88,-113.39 624.14,-119.59"/>
<text text-anchor="middle" x="357.5" y="-173.5" font-family="Times New Roman,serif" font-size="30.00"> &#160;&#160;366 &#160;&#160;5% &#160;&#160;4.67e&#45;08 mol/s &#160;&#160;&#160;1.00E+00</text>
</g>
<!-- R13 -->
<g id="node3" class="node">
<title>R13</title>
<g id="a_node3"><a xlink:href="13.svg" xlink:title="R13">
<polygon fill="cornsilk" stroke="none" points="85,-112 9,-112 9,-65 85,-65 85,-112"/>
<text text-anchor="middle" x="47" y="-80" font-family="Times New Roman,serif" font-size="35.00">R13</text>
</a>
</g>
</g>
<!-- R13&#45;&gt;R270 -->
<g id="edge2" class="edge">
<title>R13&#45;&gt;R270</title>
<path fill="none" stroke="black" d="M84.87,-88.5C188.96,-88.5 485.62,-88.5 610.5,-88.5"/>
<polygon fill="black" stroke="black" points="610.33,-92 620.33,-88.5 610.33,-85 610.33,-92"/>
<text text-anchor="middle" x="357.5" y="-97.5" font-family="Times New Roman,serif" font-size="30.00"> &#160;&#160;366 &#160;&#160;5% &#160;&#160;4.67e&#45;08 mol/s &#160;&#160;&#160;1.00E+00</text>
</g>
<!-- R354 -->
<g id="node4" class="node">
<title>R354</title>
<g id="a_node4"><a xlink:href="354.svg" xlink:title="R354">
<polygon fill="cornsilk" stroke="none" points="94,-47 0,-47 0,0 94,0 94,-47"/>
<text text-anchor="middle" x="47" y="-15" font-family="Times New Roman,serif" font-size="35.00">R354</text>
</a>
</g>
</g>
<!-- R354&#45;&gt;R270 -->
<g id="edge3" class="edge">
<title>R354&#45;&gt;R270</title>
<path fill="none" stroke="black" stroke-width="5" d="M93.95,-18.88C190.24,-10.7 419.27,0.91 601,-51.5 605.19,-52.71 609.4,-54.23 613.57,-55.95"/>
<polygon fill="black" stroke="black" stroke-width="5" points="605.55,-62.22 627.36,-63.17 613.25,-46.51 605.55,-62.22"/>
<text text-anchor="middle" x="357.5" y="-60.5" font-family="Times New Roman,serif" font-size="30.00"> &#160;&#160;751 &#160;&#160;94% &#160;&#160;7.61e&#45;07 mol/s &#160;&#160;&#160;1.33E&#45;05</text>
</g>
</g>
</svg>
