<?xml version="1.0" encoding="UTF-8" standalone="no"?>
<!DOCTYPE svg PUBLIC "-//W3C//DTD SVG 1.1//EN"
 "http://www.w3.org/Graphics/SVG/1.1/DTD/svg11.dtd">
<!-- Generated by graphviz version 8.0.3 (20230416.2022)
 -->
<!-- Title: G Pages: 1 -->
<svg width="640pt" height="125pt"
 viewBox="0.00 0.00 720.00 141.10" xmlns="http://www.w3.org/2000/svg" xmlns:xlink="http://www.w3.org/1999/xlink">
<g id="graph0" class="graph" transform="scale(0.487062 0.487062) rotate(0) translate(4 253.5)">
<title>G</title>
<polygon fill="white" stroke="none" points="-4,4 -4,-253.5 1310,-253.5 1310,4 -4,4"/>
<text text-anchor="middle" x="653" y="-216.7" font-family="Arial" font-size="36.00" fill="blue">Reaction Path Analysis</text>
<!-- R270 -->
<g id="node1" class="node">
<title>R270</title>
<g id="a_node1"><a xlink:href="270.svg" xlink:title="R270">
<polygon fill="cornsilk" stroke="none" points="700,-112 606,-112 606,-65 700,-65 700,-112"/>
<text text-anchor="middle" x="653" y="-80" font-family="Times New Roman,serif" font-size="35.00">R270</text>
</a>
</g>
</g>
<!-- R299 -->
<g id="node5" class="node">
<title>R299</title>
<g id="a_node5"><a xlink:href="299.svg" xlink:title="R299">
<polygon fill="cornsilk" stroke="none" points="1306,-112 1212,-112 1212,-65 1306,-65 1306,-112"/>
<text text-anchor="middle" x="1259" y="-80" font-family="Times New Roman,serif" font-size="35.00">R299</text>
</a>
</g>
</g>
<!-- R270&#45;&gt;R299 -->
<g id="edge4" class="edge">
<title>R270&#45;&gt;R299</title>
<path fill="none" stroke="black" stroke-width="6" d="M699.89,-88.5C805.85,-88.5 1067.9,-88.5 1191.48,-88.5"/>
<polygon fill="black" stroke="black" stroke-width="6" points="1186.18,-99 1206.18,-88.5 1186.18,-78 1186.18,-99"/>
<text text-anchor="middle" x="956" y="-97.5" font-family="Times New Roman,serif" font-size="30.00"> &#160;&#160;752 &#160;&#160;100% &#160;&#160;2.2e&#45;26 mol/s &#160;&#160;&#160;1.00E+00</text>
</g>
<!-- R88 -->
<g id="node2" class="node">
<title>R88</title>
<g id="a_node2"><a xlink:href="88.svg" xlink:title="R88">
<polygon fill="cornsilk" stroke="none" points="85,-177 9,-177 9,-130 85,-130 85,-177"/>
<text text-anchor="middle" x="47" y="-145" font-family="Times New Roman,serif" font-size="35.00">R88</text>
</a>
</g>
</g>
<!-- R88&#45;&gt;R270 -->
<g id="edge1" class="edge">
<title>R88&#45;&gt;R270</title>
<path fill="none" stroke="black" stroke-width="5" d="M84.88,-158.23C175.1,-168.42 412.97,-186.81 597,-125.5 599.9,-124.53 602.79,-123.37 605.64,-122.06"/>
<polygon fill="black" stroke="black" stroke-width="5" points="605.54,-132.34 618.59,-114.83 596.88,-117.13 605.54,-132.34"/>
<text text-anchor="middle" x="350" y="-177.5" font-family="Times New Roman,serif" font-size="30.00"> &#160;&#160;366 &#160;&#160;99% &#160;&#160;2.18e&#45;15 mol/s &#160;&#160;&#160;1.00E+00</text>
</g>
<!-- R13 -->
<g id="node3" class="node">
<title>R13</title>
<g id="a_node3"><a xlink:href="13.svg" xlink:title="R13">
<polygon fill="cornsilk" stroke="none" points="85,-112 9,-112 9,-65 85,-65 85,-112"/>
<text text-anchor="middle" x="47" y="-80" font-family="Times New Roman,serif" font-size="35.00">R13</text>
</a>
</g>
</g>
<!-- R13&#45;&gt;R270 -->
<g id="edge2" class="edge">
<title>R13&#45;&gt;R270</title>
<path fill="none" stroke="black" stroke-width="5" d="M84.87,-88.5C184.16,-88.5 458.2,-88.5 585.46,-88.5"/>
<polygon fill="black" stroke="black" stroke-width="5" points="580.37,-97.25 600.37,-88.5 580.37,-79.75 580.37,-97.25"/>
<text text-anchor="middle" x="350" y="-97.5" font-family="Times New Roman,serif" font-size="30.00"> &#160;&#160;366 &#160;&#160;99% &#160;&#160;2.18e&#45;15 mol/s &#160;&#160;&#160;1.00E+00</text>
</g>
<!-- R354 -->
<g id="node4" class="node">
<title>R354</title>
<g id="a_node4"><a xlink:href="354.svg" xlink:title="R354">
<polygon fill="cornsilk" stroke="none" points="94,-47 0,-47 0,0 94,0 94,-47"/>
<text text-anchor="middle" x="47" y="-15" font-family="Times New Roman,serif" font-size="35.00">R354</text>
</a>
</g>
</g>
<!-- R354&#45;&gt;R270 -->
<g id="edge3" class="edge">
<title>R354&#45;&gt;R270</title>
<path fill="none" stroke="black" d="M93.98,-17.77C190.26,-7.49 418.85,7.85 597,-51.5 602.95,-53.48 608.85,-56.29 614.46,-59.49"/>
<polygon fill="black" stroke="black" points="612.25,-62.86 622.59,-65.17 615.94,-56.91 612.25,-62.86"/>
<text text-anchor="middle" x="350" y="-60.5" font-family="Times New Roman,serif" font-size="30.00"> &#160;&#160;751 &#160;&#160;0% &#160;&#160;1.66e&#45;21 mol/s &#160;&#160;&#160;1.33E&#45;05</text>
</g>
</g>
</svg>
