<?xml version="1.0" encoding="UTF-8" standalone="no"?>
<!DOCTYPE svg PUBLIC "-//W3C//DTD SVG 1.1//EN"
 "http://www.w3.org/Graphics/SVG/1.1/DTD/svg11.dtd">
<!-- Generated by graphviz version 8.0.3 (20230416.2022)
 -->
<!-- Title: G Pages: 1 -->
<svg width="640pt" height="127pt"
 viewBox="0.00 0.00 720.00 142.62" xmlns="http://www.w3.org/2000/svg" xmlns:xlink="http://www.w3.org/1999/xlink">
<g id="graph0" class="graph" transform="scale(0.492308 0.492308) rotate(0) translate(4 253.5)">
<title>G</title>
<polygon fill="white" stroke="none" points="-4,4 -4,-253.5 1296,-253.5 1296,4 -4,4"/>
<text text-anchor="middle" x="646" y="-216.7" font-family="Arial" font-size="36.00" fill="blue">Reaction Path Analysis</text>
<!-- R270 -->
<g id="node1" class="node">
<title>R270</title>
<g id="a_node1"><a xlink:href="270.svg" xlink:title="R270">
<polygon fill="cornsilk" stroke="none" points="693,-112 599,-112 599,-65 693,-65 693,-112"/>
<text text-anchor="middle" x="646" y="-80" font-family="Times New Roman,serif" font-size="35.00">R270</text>
</a>
</g>
</g>
<!-- R88 -->
<g id="node2" class="node">
<title>R88</title>
<g id="a_node2"><a xlink:href="88.svg" xlink:title="R88">
<polygon fill="cornsilk" stroke="none" points="1283,-177 1207,-177 1207,-130 1283,-130 1283,-177"/>
<text text-anchor="middle" x="1245" y="-145" font-family="Times New Roman,serif" font-size="35.00">R88</text>
</a>
</g>
</g>
<!-- R270&#45;&gt;R88 -->
<g id="edge1" class="edge">
<title>R270&#45;&gt;R88</title>
<path fill="none" stroke="black" stroke-width="5" d="M675.42,-111.83C683.54,-117.29 692.72,-122.41 702,-125.5 870.87,-181.82 1085.68,-170.26 1186.65,-160.34"/>
<polygon fill="black" stroke="black" stroke-width="5" points="1182.28,-168.97 1201.26,-158.18 1180.45,-151.56 1182.28,-168.97"/>
<text text-anchor="middle" x="945.5" y="-177.5" font-family="Times New Roman,serif" font-size="30.00"> &#160;&#160;366 &#160;&#160;88% &#160;&#160;0.0218 mol/s &#160;&#160;&#160;3.79E&#45;01</text>
</g>
<!-- R13 -->
<g id="node3" class="node">
<title>R13</title>
<g id="a_node3"><a xlink:href="13.svg" xlink:title="R13">
<polygon fill="cornsilk" stroke="none" points="1283,-112 1207,-112 1207,-65 1283,-65 1283,-112"/>
<text text-anchor="middle" x="1245" y="-80" font-family="Times New Roman,serif" font-size="35.00">R13</text>
</a>
</g>
</g>
<!-- R270&#45;&gt;R13 -->
<g id="edge2" class="edge">
<title>R270&#45;&gt;R13</title>
<path fill="none" stroke="black" stroke-width="5" d="M692.85,-88.5C800.2,-88.5 1067.67,-88.5 1186.06,-88.5"/>
<polygon fill="black" stroke="black" stroke-width="5" points="1181,-97.25 1201,-88.5 1181,-79.75 1181,-97.25"/>
<text text-anchor="middle" x="945.5" y="-97.5" font-family="Times New Roman,serif" font-size="30.00"> &#160;&#160;366 &#160;&#160;88% &#160;&#160;0.0218 mol/s &#160;&#160;&#160;3.79E&#45;01</text>
</g>
<!-- R299 -->
<g id="node5" class="node">
<title>R299</title>
<g id="a_node5"><a xlink:href="299.svg" xlink:title="R299">
<polygon fill="cornsilk" stroke="none" points="1292,-47 1198,-47 1198,0 1292,0 1292,-47"/>
<text text-anchor="middle" x="1245" y="-15" font-family="Times New Roman,serif" font-size="35.00">R299</text>
</a>
</g>
</g>
<!-- R270&#45;&gt;R299 -->
<g id="edge4" class="edge">
<title>R270&#45;&gt;R299</title>
<path fill="none" stroke="black" d="M675.42,-65.17C683.54,-59.71 692.72,-54.59 702,-51.5 871.29,4.96 1086.76,-6.8 1187.41,-16.74"/>
<polygon fill="black" stroke="black" points="1186.93,-20.31 1197.24,-17.84 1187.65,-13.34 1186.93,-20.31"/>
<text text-anchor="middle" x="945.5" y="-60.5" font-family="Times New Roman,serif" font-size="30.00"> &#160;&#160;752 &#160;&#160;11% &#160;&#160;0.00272 mol/s &#160;&#160;&#160;1.00E+00</text>
</g>
<!-- R354 -->
<g id="node4" class="node">
<title>R354</title>
<g id="a_node4"><a xlink:href="354.svg" xlink:title="R354">
<polygon fill="cornsilk" stroke="none" points="94,-112 0,-112 0,-65 94,-65 94,-112"/>
<text text-anchor="middle" x="47" y="-80" font-family="Times New Roman,serif" font-size="35.00">R354</text>
</a>
</g>
</g>
<!-- R354&#45;&gt;R270 -->
<g id="edge3" class="edge">
<title>R354&#45;&gt;R270</title>
<path fill="none" stroke="black" stroke-width="6" d="M93.85,-88.5C198.71,-88.5 456.33,-88.5 578.56,-88.5"/>
<polygon fill="black" stroke="black" stroke-width="6" points="573.4,-99 593.4,-88.5 573.4,-78 573.4,-99"/>
<text text-anchor="middle" x="346.5" y="-97.5" font-family="Times New Roman,serif" font-size="30.00"> &#160;&#160;751 &#160;&#160;100% &#160;&#160;1350.0 mol/s &#160;&#160;&#160;2.02E&#45;06</text>
</g>
</g>
</svg>
