<?xml version="1.0" encoding="UTF-8" standalone="no"?>
<!DOCTYPE svg PUBLIC "-//W3C//DTD SVG 1.1//EN"
 "http://www.w3.org/Graphics/SVG/1.1/DTD/svg11.dtd">
<!-- Generated by graphviz version 8.0.3 (20230416.2022)
 -->
<!-- Title: G Pages: 1 -->
<svg width="640pt" height="206pt"
 viewBox="0.00 0.00 720.00 231.84" xmlns="http://www.w3.org/2000/svg" xmlns:xlink="http://www.w3.org/1999/xlink">
<g id="graph0" class="graph" transform="scale(0.47619 0.47619) rotate(0) translate(4 428.77)">
<title>G</title>
<polygon fill="white" stroke="none" points="-4,4 -4,-428.77 1340,-428.77 1340,4 -4,4"/>
<text text-anchor="middle" x="668" y="-391.97" font-family="Arial" font-size="36.00" fill="blue">Reaction Path Analysis</text>
<!-- R271 -->
<g id="node1" class="node">
<title>R271</title>
<g id="a_node1"><a xlink:href="271.svg" xlink:title="R271">
<polygon fill="cornsilk" stroke="none" points="715,-201.27 621,-201.27 621,-154.27 715,-154.27 715,-201.27"/>
<text text-anchor="middle" x="668" y="-169.27" font-family="Times New Roman,serif" font-size="35.00">R271</text>
</a>
</g>
</g>
<!-- R152 -->
<g id="node7" class="node">
<title>R152</title>
<g id="a_node7"><a xlink:href="152.svg" xlink:title="R152">
<polygon fill="cornsilk" stroke="none" points="1336,-201.27 1242,-201.27 1242,-154.27 1336,-154.27 1336,-201.27"/>
<text text-anchor="middle" x="1289" y="-169.27" font-family="Times New Roman,serif" font-size="35.00">R152</text>
</a>
</g>
</g>
<!-- R271&#45;&gt;R152 -->
<g id="edge6" class="edge">
<title>R271&#45;&gt;R152</title>
<path fill="none" stroke="black" stroke-width="6" d="M714.77,-177.77C822.93,-177.77 1094.71,-177.77 1221.25,-177.77"/>
<polygon fill="black" stroke="black" stroke-width="6" points="1216.05,-188.27 1236.05,-177.77 1216.05,-167.27 1216.05,-188.27"/>
<text text-anchor="middle" x="978.5" y="-186.77" font-family="Times New Roman,serif" font-size="30.00"> &#160;&#160;754 &#160;&#160;100% &#160;&#160;1.01e&#45;11 mol/s &#160;&#160;&#160;1.00E+00</text>
</g>
<!-- R13 -->
<g id="node2" class="node">
<title>R13</title>
<g id="a_node2"><a xlink:href="13.svg" xlink:title="R13">
<polygon fill="cornsilk" stroke="none" points="85,-331.27 9,-331.27 9,-284.27 85,-284.27 85,-331.27"/>
<text text-anchor="middle" x="47" y="-299.27" font-family="Times New Roman,serif" font-size="35.00">R13</text>
</a>
</g>
</g>
<!-- R13&#45;&gt;R271 -->
<g id="edge1" class="edge">
<title>R13&#45;&gt;R271</title>
<path fill="none" stroke="black" stroke-width="3" d="M84.81,-316.85C179.08,-337.95 433.76,-381.11 604.5,-279.77 630.01,-264.62 646.52,-234.62 656.12,-211.05"/>
<polygon fill="black" stroke="black" stroke-width="3" points="658.63,-215.67 658.93,-205.08 652.09,-213.17 658.63,-215.67"/>
<text text-anchor="middle" x="357.5" y="-352.77" font-family="Times New Roman,serif" font-size="30.00"> &#160;&#160;367 &#160;&#160;49% &#160;&#160;4.67e&#45;08 mol/s &#160;&#160;&#160;1.00E+00</text>
</g>
<!-- R89 -->
<g id="node3" class="node">
<title>R89</title>
<g id="a_node3"><a xlink:href="89.svg" xlink:title="R89">
<polygon fill="cornsilk" stroke="none" points="85,-266.27 9,-266.27 9,-219.27 85,-219.27 85,-266.27"/>
<text text-anchor="middle" x="47" y="-234.27" font-family="Times New Roman,serif" font-size="35.00">R89</text>
</a>
</g>
</g>
<!-- R89&#45;&gt;R271 -->
<g id="edge2" class="edge">
<title>R89&#45;&gt;R271</title>
<path fill="none" stroke="black" stroke-width="3" d="M84.87,-243.2C192.84,-244.13 506.89,-244.15 604.5,-214.77 611.4,-212.69 618.32,-209.7 624.93,-206.3"/>
<polygon fill="black" stroke="black" stroke-width="3" points="624.28,-211.01 631.33,-203.1 620.89,-204.88 624.28,-211.01"/>
<text text-anchor="middle" x="357.5" y="-251.77" font-family="Times New Roman,serif" font-size="30.00"> &#160;&#160;367 &#160;&#160;49% &#160;&#160;4.67e&#45;08 mol/s &#160;&#160;&#160;1.00E+00</text>
</g>
<!-- R14 -->
<g id="node4" class="node">
<title>R14</title>
<g id="a_node4"><a xlink:href="14.svg" xlink:title="R14">
<polygon fill="cornsilk" stroke="none" points="85,-201.27 9,-201.27 9,-154.27 85,-154.27 85,-201.27"/>
<text text-anchor="middle" x="47" y="-169.27" font-family="Times New Roman,serif" font-size="35.00">R14</text>
</a>
</g>
</g>
<!-- R14&#45;&gt;R271 -->
<g id="edge3" class="edge">
<title>R14&#45;&gt;R271</title>
<path fill="none" stroke="black" stroke-width="3" d="M84.87,-177.77C188.96,-177.77 485.62,-177.77 610.5,-177.77"/>
<polygon fill="black" stroke="black" stroke-width="3" points="607.33,-181.27 617.33,-177.77 607.33,-174.27 607.33,-181.27"/>
<text text-anchor="middle" x="357.5" y="-186.77" font-family="Times New Roman,serif" font-size="30.00"> &#160;&#160;400 &#160;&#160;49% &#160;&#160;4.67e&#45;08 mol/s &#160;&#160;&#160;1.00E+00</text>
</g>
<!-- R86 -->
<g id="node5" class="node">
<title>R86</title>
<g id="a_node5"><a xlink:href="86.svg" xlink:title="R86">
<polygon fill="cornsilk" stroke="none" points="85,-136.27 9,-136.27 9,-89.27 85,-89.27 85,-136.27"/>
<text text-anchor="middle" x="47" y="-104.27" font-family="Times New Roman,serif" font-size="35.00">R86</text>
</a>
</g>
</g>
<!-- R86&#45;&gt;R271 -->
<g id="edge4" class="edge">
<title>R86&#45;&gt;R271</title>
<path fill="none" stroke="black" stroke-width="3" d="M84.83,-108.66C175.53,-99.8 416,-84.02 604.5,-140.77 611.4,-142.84 618.32,-145.83 624.93,-149.23"/>
<polygon fill="black" stroke="black" stroke-width="3" points="620.89,-150.65 631.33,-152.43 624.28,-144.53 620.89,-150.65"/>
<text text-anchor="middle" x="357.5" y="-149.77" font-family="Times New Roman,serif" font-size="30.00"> &#160;&#160;400 &#160;&#160;49% &#160;&#160;4.67e&#45;08 mol/s &#160;&#160;&#160;1.00E+00</text>
</g>
<!-- R101 -->
<g id="node6" class="node">
<title>R101</title>
<g id="a_node6"><a xlink:href="101.svg" xlink:title="R101">
<polygon fill="cornsilk" stroke="none" points="94,-71.27 0,-71.27 0,-24.27 94,-24.27 94,-71.27"/>
<text text-anchor="middle" x="47" y="-39.27" font-family="Times New Roman,serif" font-size="35.00">R101</text>
</a>
</g>
</g>
<!-- R101&#45;&gt;R271 -->
<g id="edge5" class="edge">
<title>R101&#45;&gt;R271</title>
<path fill="none" stroke="black" d="M93.73,-34.66C194.64,-8.6 440.42,39.03 604.5,-61.77 633.93,-79.84 650.38,-116.94 658.93,-144.33"/>
<polygon fill="black" stroke="black" points="655.78,-145.04 661.93,-153.66 662.5,-143.09 655.78,-145.04"/>
<text text-anchor="middle" x="357.5" y="-70.77" font-family="Times New Roman,serif" font-size="30.00"> &#160;&#160;753 &#160;&#160;0% &#160;&#160;5.1e&#45;10 mol/s &#160;&#160;&#160;1.90E&#45;02</text>
</g>
</g>
</svg>
