<?xml version="1.0" encoding="UTF-8" standalone="no"?>
<!DOCTYPE svg PUBLIC "-//W3C//DTD SVG 1.1//EN"
 "http://www.w3.org/Graphics/SVG/1.1/DTD/svg11.dtd">
<!-- Generated by graphviz version 8.0.3 (20230416.2022)
 -->
<!-- Title: G Pages: 1 -->
<svg width="640pt" height="201pt"
 viewBox="0.00 0.00 720.00 226.22" xmlns="http://www.w3.org/2000/svg" xmlns:xlink="http://www.w3.org/1999/xlink">
<g id="graph0" class="graph" transform="scale(0.498442 0.498442) rotate(0) translate(4 399.42)">
<title>G</title>
<polygon fill="white" stroke="none" points="-4,4 -4,-399.42 1280,-399.42 1280,4 -4,4"/>
<text text-anchor="middle" x="638" y="-362.62" font-family="Arial" font-size="36.00" fill="blue">Reaction Path Analysis</text>
<!-- R271 -->
<g id="node1" class="node">
<title>R271</title>
<g id="a_node1"><a xlink:href="271.svg" xlink:title="R271">
<polygon fill="cornsilk" stroke="none" points="685,-198.92 591,-198.92 591,-151.92 685,-151.92 685,-198.92"/>
<text text-anchor="middle" x="638" y="-166.92" font-family="Times New Roman,serif" font-size="35.00">R271</text>
</a>
</g>
</g>
<!-- R13 -->
<g id="node2" class="node">
<title>R13</title>
<g id="a_node2"><a xlink:href="13.svg" xlink:title="R13">
<polygon fill="cornsilk" stroke="none" points="1267,-328.92 1191,-328.92 1191,-281.92 1267,-281.92 1267,-328.92"/>
<text text-anchor="middle" x="1229" y="-296.92" font-family="Times New Roman,serif" font-size="35.00">R13</text>
</a>
</g>
</g>
<!-- R271&#45;&gt;R13 -->
<g id="edge1" class="edge">
<title>R271&#45;&gt;R13</title>
<path fill="none" stroke="black" stroke-width="5" d="M645.19,-198.67C652.99,-222.95 668.98,-259.88 697.5,-277.42 775.25,-325.23 1049.9,-315.85 1170.5,-309.13"/>
<polygon fill="black" stroke="black" stroke-width="5" points="1165.69,-317.83 1185.14,-307.92 1164.66,-300.36 1165.69,-317.83"/>
<text text-anchor="middle" x="933.5" y="-323.42" font-family="Times New Roman,serif" font-size="30.00"> &#160;&#160;367 &#160;&#160;95% &#160;&#160;4.21 mol/s &#160;&#160;&#160;7.99E&#45;03</text>
</g>
<!-- R89 -->
<g id="node3" class="node">
<title>R89</title>
<g id="a_node3"><a xlink:href="89.svg" xlink:title="R89">
<polygon fill="cornsilk" stroke="none" points="1267,-263.92 1191,-263.92 1191,-216.92 1267,-216.92 1267,-263.92"/>
<text text-anchor="middle" x="1229" y="-231.92" font-family="Times New Roman,serif" font-size="35.00">R89</text>
</a>
</g>
</g>
<!-- R271&#45;&gt;R89 -->
<g id="edge2" class="edge">
<title>R271&#45;&gt;R89</title>
<path fill="none" stroke="black" stroke-width="5" d="M669.41,-198.74C678.05,-204.2 687.77,-209.32 697.5,-212.42 784.08,-239.99 1051.69,-241.71 1170.34,-241.03"/>
<polygon fill="black" stroke="black" stroke-width="5" points="1165.4,-249.78 1185.34,-240.88 1165.27,-232.28 1165.4,-249.78"/>
<text text-anchor="middle" x="933.5" y="-249.42" font-family="Times New Roman,serif" font-size="30.00"> &#160;&#160;367 &#160;&#160;95% &#160;&#160;4.21 mol/s &#160;&#160;&#160;7.99E&#45;03</text>
</g>
<!-- R14 -->
<g id="node4" class="node">
<title>R14</title>
<g id="a_node4"><a xlink:href="14.svg" xlink:title="R14">
<polygon fill="cornsilk" stroke="none" points="1267,-198.92 1191,-198.92 1191,-151.92 1267,-151.92 1267,-198.92"/>
<text text-anchor="middle" x="1229" y="-166.92" font-family="Times New Roman,serif" font-size="35.00">R14</text>
</a>
</g>
</g>
<!-- R271&#45;&gt;R14 -->
<g id="edge3" class="edge">
<title>R271&#45;&gt;R14</title>
<path fill="none" stroke="black" d="M684.73,-175.42C793.96,-175.42 1069.21,-175.42 1180.36,-175.42"/>
<polygon fill="black" stroke="black" points="1180.21,-178.92 1190.21,-175.42 1180.21,-171.92 1180.21,-178.92"/>
<text text-anchor="middle" x="933.5" y="-184.42" font-family="Times New Roman,serif" font-size="30.00"> &#160;&#160;400 &#160;&#160;4% &#160;&#160;0.191 mol/s &#160;&#160;&#160;1.32E&#45;01</text>
</g>
<!-- R86 -->
<g id="node5" class="node">
<title>R86</title>
<g id="a_node5"><a xlink:href="86.svg" xlink:title="R86">
<polygon fill="cornsilk" stroke="none" points="1267,-133.92 1191,-133.92 1191,-86.92 1267,-86.92 1267,-133.92"/>
<text text-anchor="middle" x="1229" y="-101.92" font-family="Times New Roman,serif" font-size="35.00">R86</text>
</a>
</g>
</g>
<!-- R271&#45;&gt;R86 -->
<g id="edge4" class="edge">
<title>R271&#45;&gt;R86</title>
<path fill="none" stroke="black" d="M669.41,-152.1C678.05,-146.64 687.77,-141.52 697.5,-138.42 868.29,-84.02 1085.52,-96.08 1180.23,-105.04"/>
<polygon fill="black" stroke="black" points="1179.87,-108.62 1190.17,-106.12 1180.56,-101.66 1179.87,-108.62"/>
<text text-anchor="middle" x="933.5" y="-147.42" font-family="Times New Roman,serif" font-size="30.00"> &#160;&#160;400 &#160;&#160;4% &#160;&#160;0.191 mol/s &#160;&#160;&#160;1.32E&#45;01</text>
</g>
<!-- R152 -->
<g id="node7" class="node">
<title>R152</title>
<g id="a_node7"><a xlink:href="152.svg" xlink:title="R152">
<polygon fill="cornsilk" stroke="none" points="1276,-68.92 1182,-68.92 1182,-21.92 1276,-21.92 1276,-68.92"/>
<text text-anchor="middle" x="1229" y="-36.92" font-family="Times New Roman,serif" font-size="35.00">R152</text>
</a>
</g>
</g>
<!-- R271&#45;&gt;R152 -->
<g id="edge6" class="edge">
<title>R271&#45;&gt;R152</title>
<path fill="none" stroke="black" d="M643.48,-152.1C650.08,-124.81 665.32,-80.78 697.5,-60.42 846.2,33.69 1068.3,-4.27 1171.51,-29.62"/>
<polygon fill="black" stroke="black" points="1170.46,-33.22 1181.01,-32.26 1172.17,-26.43 1170.46,-33.22"/>
<text text-anchor="middle" x="933.5" y="-69.42" font-family="Times New Roman,serif" font-size="30.00"> &#160;&#160;754 &#160;&#160;0% &#160;&#160;0.00272 mol/s &#160;&#160;&#160;1.00E+00</text>
</g>
<!-- R101 -->
<g id="node6" class="node">
<title>R101</title>
<g id="a_node6"><a xlink:href="101.svg" xlink:title="R101">
<polygon fill="cornsilk" stroke="none" points="94,-198.92 0,-198.92 0,-151.92 94,-151.92 94,-198.92"/>
<text text-anchor="middle" x="47" y="-166.92" font-family="Times New Roman,serif" font-size="35.00">R101</text>
</a>
</g>
</g>
<!-- R101&#45;&gt;R271 -->
<g id="edge5" class="edge">
<title>R101&#45;&gt;R271</title>
<path fill="none" stroke="black" stroke-width="6" d="M93.73,-175.42C197.16,-175.42 449.47,-175.42 570.33,-175.42"/>
<polygon fill="black" stroke="black" stroke-width="6" points="565.3,-185.92 585.3,-175.42 565.3,-164.92 565.3,-185.92"/>
<text text-anchor="middle" x="342.5" y="-184.42" font-family="Times New Roman,serif" font-size="30.00"> &#160;&#160;753 &#160;&#160;100% &#160;&#160;0.0551 mol/s &#160;&#160;&#160;4.49E&#45;02</text>
</g>
</g>
</svg>
