<?xml version="1.0" encoding="UTF-8" standalone="no"?>
<!DOCTYPE svg PUBLIC "-//W3C//DTD SVG 1.1//EN"
 "http://www.w3.org/Graphics/SVG/1.1/DTD/svg11.dtd">
<!-- Generated by graphviz version 8.0.3 (20230416.2022)
 -->
<!-- Title: G Pages: 1 -->
<svg width="640pt" height="237pt"
 viewBox="0.00 0.00 720.00 266.74" xmlns="http://www.w3.org/2000/svg" xmlns:xlink="http://www.w3.org/1999/xlink">
<g id="graph0" class="graph" transform="scale(0.487062 0.487062) rotate(0) translate(4 482.81)">
<title>G</title>
<polygon fill="white" stroke="none" points="-4,4 -4,-482.81 1310,-482.81 1310,4 -4,4"/>
<text text-anchor="middle" x="653" y="-446.01" font-family="Arial" font-size="36.00" fill="blue">Reaction Path Analysis</text>
<!-- R274 -->
<g id="node1" class="node">
<title>R274</title>
<g id="a_node1"><a xlink:href="274.svg" xlink:title="R274">
<polygon fill="cornsilk" stroke="none" points="700,-230.31 606,-230.31 606,-183.31 700,-183.31 700,-230.31"/>
<text text-anchor="middle" x="653" y="-198.31" font-family="Times New Roman,serif" font-size="35.00">R274</text>
</a>
</g>
</g>
<!-- R320 -->
<g id="node7" class="node">
<title>R320</title>
<g id="a_node7"><a xlink:href="320.svg" xlink:title="R320">
<polygon fill="cornsilk" stroke="none" points="1306,-295.31 1212,-295.31 1212,-248.31 1306,-248.31 1306,-295.31"/>
<text text-anchor="middle" x="1259" y="-263.31" font-family="Times New Roman,serif" font-size="35.00">R320</text>
</a>
</g>
</g>
<!-- R274&#45;&gt;R320 -->
<g id="edge6" class="edge">
<title>R274&#45;&gt;R320</title>
<path fill="none" stroke="black" stroke-width="3" d="M682.41,-230.14C690.54,-235.6 699.72,-240.72 709,-243.81 880.88,-301.07 1099.73,-288.8 1201.38,-278.64"/>
<polygon fill="black" stroke="black" stroke-width="3" points="1198.43,-282.05 1208.02,-277.54 1197.71,-275.09 1198.43,-282.05"/>
<text text-anchor="middle" x="956" y="-295.81" font-family="Times New Roman,serif" font-size="30.00"> &#160;&#160;540 &#160;&#160;49% &#160;&#160;4.67e&#45;08 mol/s &#160;&#160;&#160;1.00E+00</text>
</g>
<!-- R298 -->
<g id="node8" class="node">
<title>R298</title>
<g id="a_node8"><a xlink:href="298.svg" xlink:title="R298">
<polygon fill="cornsilk" stroke="none" points="1306,-230.31 1212,-230.31 1212,-183.31 1306,-183.31 1306,-230.31"/>
<text text-anchor="middle" x="1259" y="-198.31" font-family="Times New Roman,serif" font-size="35.00">R298</text>
</a>
</g>
</g>
<!-- R274&#45;&gt;R298 -->
<g id="edge7" class="edge">
<title>R274&#45;&gt;R298</title>
<path fill="none" stroke="black" stroke-width="3" d="M699.89,-206.81C808.81,-206.81 1082.67,-206.81 1201.51,-206.81"/>
<polygon fill="black" stroke="black" stroke-width="3" points="1198.18,-210.31 1208.18,-206.81 1198.18,-203.31 1198.18,-210.31"/>
<text text-anchor="middle" x="956" y="-215.81" font-family="Times New Roman,serif" font-size="30.00"> &#160;&#160;541 &#160;&#160;49% &#160;&#160;4.67e&#45;08 mol/s &#160;&#160;&#160;1.00E+00</text>
</g>
<!-- R335 -->
<g id="node9" class="node">
<title>R335</title>
<g id="a_node9"><a xlink:href="335.svg" xlink:title="R335">
<polygon fill="cornsilk" stroke="none" points="1306,-165.31 1212,-165.31 1212,-118.31 1306,-118.31 1306,-165.31"/>
<text text-anchor="middle" x="1259" y="-133.31" font-family="Times New Roman,serif" font-size="35.00">R335</text>
</a>
</g>
</g>
<!-- R274&#45;&gt;R335 -->
<g id="edge9" class="edge">
<title>R274&#45;&gt;R335</title>
<path fill="none" stroke="black" d="M682.41,-183.47C690.54,-178.02 699.72,-172.9 709,-169.81 880.88,-112.55 1099.73,-124.81 1201.38,-134.98"/>
<polygon fill="black" stroke="black" points="1200.71,-138.53 1211.02,-136.08 1201.43,-131.57 1200.71,-138.53"/>
<text text-anchor="middle" x="956" y="-178.81" font-family="Times New Roman,serif" font-size="30.00"> &#160;&#160;758 &#160;&#160;0% &#160;&#160;9.98e&#45;12 mol/s &#160;&#160;&#160;9.89E&#45;01</text>
</g>
<!-- R15 -->
<g id="node2" class="node">
<title>R15</title>
<g id="a_node2"><a xlink:href="15.svg" xlink:title="R15">
<polygon fill="cornsilk" stroke="none" points="85,-379.31 9,-379.31 9,-332.31 85,-332.31 85,-379.31"/>
<text text-anchor="middle" x="47" y="-347.31" font-family="Times New Roman,serif" font-size="35.00">R15</text>
</a>
</g>
</g>
<!-- R15&#45;&gt;R274 -->
<g id="edge1" class="edge">
<title>R15&#45;&gt;R274</title>
<path fill="none" stroke="black" stroke-width="2" d="M84.75,-366.07C179.33,-390.17 435.03,-440.33 597,-329.81 626.64,-309.58 640.51,-269.43 646.86,-240.49"/>
<polygon fill="black" stroke="black" stroke-width="2" points="650.43,-242.51 648.95,-232.02 643.56,-241.14 650.43,-242.51"/>
<text text-anchor="middle" x="350" y="-406.81" font-family="Times New Roman,serif" font-size="30.00"> &#160;&#160;371 &#160;&#160;24% &#160;&#160;4.67e&#45;08 mol/s &#160;&#160;&#160;1.00E+00</text>
</g>
<!-- R14 -->
<g id="node3" class="node">
<title>R14</title>
<g id="a_node3"><a xlink:href="14.svg" xlink:title="R14">
<polygon fill="cornsilk" stroke="none" points="85,-314.31 9,-314.31 9,-267.31 85,-267.31 85,-314.31"/>
<text text-anchor="middle" x="47" y="-282.31" font-family="Times New Roman,serif" font-size="35.00">R14</text>
</a>
</g>
</g>
<!-- R14&#45;&gt;R274 -->
<g id="edge2" class="edge">
<title>R14&#45;&gt;R274</title>
<path fill="none" stroke="black" stroke-width="2" d="M84.72,-291.78C192.22,-294.15 504.48,-297.35 597,-257.81 607.62,-253.27 617.48,-245.76 625.83,-237.88"/>
<polygon fill="black" stroke="black" stroke-width="2" points="626.8,-241.86 631.35,-232.29 621.83,-236.93 626.8,-241.86"/>
<text text-anchor="middle" x="350" y="-301.81" font-family="Times New Roman,serif" font-size="30.00"> &#160;&#160;371 &#160;&#160;24% &#160;&#160;4.67e&#45;08 mol/s &#160;&#160;&#160;1.00E+00</text>
</g>
<!-- R73 -->
<g id="node4" class="node">
<title>R73</title>
<g id="a_node4"><a xlink:href="73.svg" xlink:title="R73">
<polygon fill="cornsilk" stroke="none" points="85,-230.31 9,-230.31 9,-183.31 85,-183.31 85,-230.31"/>
<text text-anchor="middle" x="47" y="-198.31" font-family="Times New Roman,serif" font-size="35.00">R73</text>
</a>
</g>
</g>
<!-- R73&#45;&gt;R274 -->
<g id="edge3" class="edge">
<title>R73&#45;&gt;R274</title>
<path fill="none" stroke="black" d="M84.94,-211.39C90.96,-211.98 97.15,-212.49 103,-212.81 318.7,-224.54 375.94,-224.73 595.21,-212.79"/>
<polygon fill="black" stroke="black" points="595.32,-216.23 605.11,-212.19 594.94,-209.24 595.32,-216.23"/>
<text text-anchor="middle" x="350" y="-229.81" font-family="Times New Roman,serif" font-size="30.00"> &#160;&#160;457 &#160;&#160;0% &#160;&#160;1.01e&#45;11 mol/s &#160;&#160;&#160;1.00E+00</text>
</g>
<!-- R73&#45;&gt;R274 -->
<g id="edge8" class="edge">
<title>R73&#45;&gt;R274</title>
<path fill="none" stroke="black" stroke-width="3" d="M83.56,-183.35C89.81,-180.24 96.43,-177.53 103,-175.81 156.09,-161.88 543.91,-161.88 597,-175.81 600.18,-176.64 603.38,-177.71 606.54,-178.94"/>
<polygon fill="black" stroke="black" stroke-width="3" points="601.88,-181.48 612.44,-182.35 604.73,-175.09 601.88,-181.48"/>
<text text-anchor="middle" x="350" y="-184.81" font-family="Times New Roman,serif" font-size="30.00"> &#160;&#160;757 &#160;&#160;50% &#160;&#160;9.62e&#45;08 mol/s &#160;&#160;&#160;1.05E&#45;04</text>
</g>
<!-- R0 -->
<g id="node5" class="node">
<title>R0</title>
<g id="a_node5"><a xlink:href="0.svg" xlink:title="R0">
<polygon fill="cornsilk" stroke="none" points="76,-146.31 18,-146.31 18,-99.31 76,-99.31 76,-146.31"/>
<text text-anchor="middle" x="47" y="-114.31" font-family="Times New Roman,serif" font-size="35.00">R0</text>
</a>
</g>
</g>
<!-- R0&#45;&gt;R274 -->
<g id="edge4" class="edge">
<title>R0&#45;&gt;R274</title>
<path fill="none" stroke="black" stroke-width="2" d="M75.98,-119.76C174.67,-109.5 505.55,-79.51 597,-127.81 615.53,-137.59 629.1,-156.75 638.13,-173.74"/>
<polygon fill="black" stroke="black" stroke-width="2" points="634.34,-174.01 641.92,-181.41 640.62,-170.9 634.34,-174.01"/>
<text text-anchor="middle" x="350" y="-136.81" font-family="Times New Roman,serif" font-size="30.00"> &#160;&#160;517 &#160;&#160;24% &#160;&#160;4.67e&#45;08 mol/s &#160;&#160;&#160;1.00E+00</text>
</g>
<!-- R241 -->
<g id="node6" class="node">
<title>R241</title>
<g id="a_node6"><a xlink:href="241.svg" xlink:title="R241">
<polygon fill="cornsilk" stroke="none" points="94,-81.31 0,-81.31 0,-34.31 94,-34.31 94,-81.31"/>
<text text-anchor="middle" x="47" y="-49.31" font-family="Times New Roman,serif" font-size="35.00">R241</text>
</a>
</g>
</g>
<!-- R241&#45;&gt;R274 -->
<g id="edge5" class="edge">
<title>R241&#45;&gt;R274</title>
<path fill="none" stroke="black" stroke-width="2" d="M93.98,-42.58C195.28,-12.12 441.04,44.57 597,-63.81 632.23,-88.29 644.9,-138.67 649.45,-172.61"/>
<polygon fill="black" stroke="black" stroke-width="2" points="646.08,-170.9 650.71,-180.43 653.03,-170.09 646.08,-170.9"/>
<text text-anchor="middle" x="350" y="-72.81" font-family="Times New Roman,serif" font-size="30.00"> &#160;&#160;517 &#160;&#160;24% &#160;&#160;4.67e&#45;08 mol/s &#160;&#160;&#160;1.00E+00</text>
</g>
</g>
</svg>
