<?xml version="1.0" encoding="UTF-8" standalone="no"?>
<!DOCTYPE svg PUBLIC "-//W3C//DTD SVG 1.1//EN"
 "http://www.w3.org/Graphics/SVG/1.1/DTD/svg11.dtd">
<!-- Generated by graphviz version 8.0.3 (20230416.2022)
 -->
<!-- Title: G Pages: 1 -->
<svg width="640pt" height="203pt"
 viewBox="0.00 0.00 720.00 227.96" xmlns="http://www.w3.org/2000/svg" xmlns:xlink="http://www.w3.org/1999/xlink">
<g id="graph0" class="graph" transform="scale(0.487062 0.487062) rotate(0) translate(4 412.02)">
<title>G</title>
<polygon fill="white" stroke="none" points="-4,4 -4,-412.02 1310,-412.02 1310,4 -4,4"/>
<text text-anchor="middle" x="653" y="-375.22" font-family="Arial" font-size="36.00" fill="blue">Reaction Path Analysis</text>
<!-- R276 -->
<g id="node1" class="node">
<title>R276</title>
<g id="a_node1"><a xlink:href="276.svg" xlink:title="R276">
<polygon fill="cornsilk" stroke="none" points="700,-191.52 606,-191.52 606,-144.52 700,-144.52 700,-191.52"/>
<text text-anchor="middle" x="653" y="-159.52" font-family="Times New Roman,serif" font-size="35.00">R276</text>
</a>
</g>
</g>
<!-- R321 -->
<g id="node6" class="node">
<title>R321</title>
<g id="a_node6"><a xlink:href="321.svg" xlink:title="R321">
<polygon fill="cornsilk" stroke="none" points="1306,-312.52 1212,-312.52 1212,-265.52 1306,-265.52 1306,-312.52"/>
<text text-anchor="middle" x="1259" y="-280.52" font-family="Times New Roman,serif" font-size="35.00">R321</text>
</a>
</g>
</g>
<!-- R276&#45;&gt;R321 -->
<g id="edge5" class="edge">
<title>R276&#45;&gt;R321</title>
<path fill="none" stroke="black" stroke-width="3" d="M660.41,-191.4C667.98,-214.03 682.95,-247.17 709,-263.02 865.47,-358.24 1095.96,-325.28 1201.49,-302.83"/>
<polygon fill="black" stroke="black" stroke-width="3" points="1199.19,-306.05 1208.22,-300.5 1197.7,-299.21 1199.19,-306.05"/>
<text text-anchor="middle" x="956" y="-336.02" font-family="Times New Roman,serif" font-size="30.00"> &#160;&#160;542 &#160;&#160;49% &#160;&#160;2.18e&#45;15 mol/s &#160;&#160;&#160;1.00E+00</text>
</g>
<!-- R299 -->
<g id="node7" class="node">
<title>R299</title>
<g id="a_node7"><a xlink:href="299.svg" xlink:title="R299">
<polygon fill="cornsilk" stroke="none" points="1306,-247.52 1212,-247.52 1212,-200.52 1306,-200.52 1306,-247.52"/>
<text text-anchor="middle" x="1259" y="-215.52" font-family="Times New Roman,serif" font-size="35.00">R299</text>
</a>
</g>
</g>
<!-- R276&#45;&gt;R299 -->
<g id="edge6" class="edge">
<title>R276&#45;&gt;R299</title>
<path fill="none" stroke="black" stroke-width="3" d="M685.82,-191.46C693.11,-195.73 701.06,-199.59 709,-202.02 799.56,-229.73 1079.89,-227.69 1201.15,-225.38"/>
<polygon fill="black" stroke="black" stroke-width="3" points="1198.1,-228.87 1208.03,-225.17 1197.96,-221.87 1198.1,-228.87"/>
<text text-anchor="middle" x="956" y="-235.02" font-family="Times New Roman,serif" font-size="30.00"> &#160;&#160;543 &#160;&#160;49% &#160;&#160;2.18e&#45;15 mol/s &#160;&#160;&#160;1.00E+00</text>
</g>
<!-- R256 -->
<g id="node8" class="node">
<title>R256</title>
<g id="a_node8"><a xlink:href="256.svg" xlink:title="R256">
<polygon fill="cornsilk" stroke="none" points="1306,-163.52 1212,-163.52 1212,-116.52 1306,-116.52 1306,-163.52"/>
<text text-anchor="middle" x="1259" y="-131.52" font-family="Times New Roman,serif" font-size="35.00">R256</text>
</a>
</g>
</g>
<!-- R276&#45;&gt;R256 -->
<g id="edge7" class="edge">
<title>R276&#45;&gt;R256</title>
<path fill="none" stroke="green" d="M699.97,-167.25C792.61,-165.45 1008.58,-160.1 1201.21,-146.07"/>
<polygon fill="green" stroke="green" points="1201.39,-149.5 1211.11,-145.27 1200.87,-142.52 1201.39,-149.5"/>
<text text-anchor="middle" x="956" y="-176.02" font-family="Times New Roman,serif" font-size="30.00"> &#160;&#160;733 &#160;&#160;0% &#160;&#160;1.94e&#45;27 mol/s &#160;&#160;&#160;4.79E&#45;01</text>
</g>
<!-- R276&#45;&gt;R256 -->
<g id="edge8" class="edge">
<title>R276&#45;&gt;R256</title>
<path fill="none" stroke="green" d="M668.5,-144.79C678.17,-131.62 692.18,-116.34 709,-109.02 759.33,-87.13 1149.91,-95.09 1203,-109.02 1206.18,-109.86 1209.38,-110.93 1212.54,-112.16"/>
<polygon fill="green" stroke="green" points="1210.88,-115.7 1221.44,-116.57 1213.73,-109.3 1210.88,-115.7"/>
<text text-anchor="middle" x="956" y="-118.02" font-family="Times New Roman,serif" font-size="30.00"> &#160;&#160;759 &#160;&#160;0% &#160;&#160;1.78e&#45;27 mol/s &#160;&#160;&#160;5.21E&#45;01</text>
</g>
<!-- R249 -->
<g id="node9" class="node">
<title>R249</title>
<g id="a_node9"><a xlink:href="249.svg" xlink:title="R249">
<polygon fill="cornsilk" stroke="none" points="1306,-79.52 1212,-79.52 1212,-32.52 1306,-32.52 1306,-79.52"/>
<text text-anchor="middle" x="1259" y="-47.52" font-family="Times New Roman,serif" font-size="35.00">R249</text>
</a>
</g>
</g>
<!-- R276&#45;&gt;R249 -->
<g id="edge9" class="edge">
<title>R276&#45;&gt;R249</title>
<path fill="none" stroke="black" d="M658.22,-144.67C664.36,-118.4 678.52,-76.94 709,-58.02 864.62,38.54 1095.92,-8.73 1201.62,-38.31"/>
<polygon fill="black" stroke="black" points="1200.48,-41.91 1211.06,-41.29 1202.41,-35.18 1200.48,-41.91"/>
<text text-anchor="middle" x="956" y="-67.02" font-family="Times New Roman,serif" font-size="30.00"> &#160;&#160;760 &#160;&#160;0% &#160;&#160;2.2e&#45;26 mol/s &#160;&#160;&#160;1.00E+00</text>
</g>
<!-- R16 -->
<g id="node2" class="node">
<title>R16</title>
<g id="a_node2"><a xlink:href="16.svg" xlink:title="R16">
<polygon fill="cornsilk" stroke="none" points="85,-289.52 9,-289.52 9,-242.52 85,-242.52 85,-289.52"/>
<text text-anchor="middle" x="47" y="-257.52" font-family="Times New Roman,serif" font-size="35.00">R16</text>
</a>
</g>
</g>
<!-- R16&#45;&gt;R276 -->
<g id="edge1" class="edge">
<title>R16&#45;&gt;R276</title>
<path fill="none" stroke="black" stroke-width="3" d="M84.67,-273.98C176.94,-292.01 423.7,-327.78 597,-238.02 612.99,-229.75 625.81,-214.51 635.04,-200.36"/>
<polygon fill="black" stroke="black" stroke-width="3" points="636.35,-204.66 638.59,-194.3 630.38,-201 636.35,-204.66"/>
<text text-anchor="middle" x="350" y="-305.02" font-family="Times New Roman,serif" font-size="30.00"> &#160;&#160;373 &#160;&#160;50% &#160;&#160;2.18e&#45;15 mol/s &#160;&#160;&#160;1.00E+00</text>
</g>
<!-- R14 -->
<g id="node3" class="node">
<title>R14</title>
<g id="a_node3"><a xlink:href="14.svg" xlink:title="R14">
<polygon fill="cornsilk" stroke="none" points="85,-224.52 9,-224.52 9,-177.52 85,-177.52 85,-224.52"/>
<text text-anchor="middle" x="47" y="-192.52" font-family="Times New Roman,serif" font-size="35.00">R14</text>
</a>
</g>
</g>
<!-- R14&#45;&gt;R276 -->
<g id="edge2" class="edge">
<title>R14&#45;&gt;R276</title>
<path fill="none" stroke="black" stroke-width="3" d="M84.78,-201.54C171.72,-202.34 396.87,-201.92 595.25,-179.04"/>
<polygon fill="black" stroke="black" stroke-width="3" points="592.65,-182.4 602.17,-177.75 591.83,-175.44 592.65,-182.4"/>
<text text-anchor="middle" x="350" y="-210.02" font-family="Times New Roman,serif" font-size="30.00"> &#160;&#160;373 &#160;&#160;50% &#160;&#160;2.18e&#45;15 mol/s &#160;&#160;&#160;1.00E+00</text>
</g>
<!-- R0 -->
<g id="node4" class="node">
<title>R0</title>
<g id="a_node4"><a xlink:href="0.svg" xlink:title="R0">
<polygon fill="cornsilk" stroke="none" points="76,-159.52 18,-159.52 18,-112.52 76,-112.52 76,-159.52"/>
<text text-anchor="middle" x="47" y="-127.52" font-family="Times New Roman,serif" font-size="35.00">R0</text>
</a>
</g>
</g>
<!-- R0&#45;&gt;R276 -->
<g id="edge3" class="edge">
<title>R0&#45;&gt;R276</title>
<path fill="none" stroke="black" stroke-width="3" d="M75.8,-133.04C155.66,-125.18 392.49,-107.01 595.6,-146.19"/>
<polygon fill="black" stroke="black" stroke-width="3" points="591.67,-149.78 602.16,-148.29 593.03,-142.91 591.67,-149.78"/>
<text text-anchor="middle" x="350" y="-155.02" font-family="Times New Roman,serif" font-size="30.00"> &#160;&#160;519 &#160;&#160;50% &#160;&#160;2.18e&#45;15 mol/s &#160;&#160;&#160;1.00E+00</text>
</g>
<!-- R242 -->
<g id="node5" class="node">
<title>R242</title>
<g id="a_node5"><a xlink:href="242.svg" xlink:title="R242">
<polygon fill="cornsilk" stroke="none" points="94,-94.52 0,-94.52 0,-47.52 94,-47.52 94,-94.52"/>
<text text-anchor="middle" x="47" y="-62.52" font-family="Times New Roman,serif" font-size="35.00">R242</text>
</a>
</g>
</g>
<!-- R242&#45;&gt;R276 -->
<g id="edge4" class="edge">
<title>R242&#45;&gt;R276</title>
<path fill="none" stroke="black" stroke-width="3" d="M93.99,-58.69C193.22,-34.79 431.8,7.81 597,-84.02 616.8,-95.03 630.67,-116.5 639.53,-134.98"/>
<polygon fill="black" stroke="black" stroke-width="3" points="635.66,-133.16 642.94,-140.86 642.05,-130.3 635.66,-133.16"/>
<text text-anchor="middle" x="350" y="-93.02" font-family="Times New Roman,serif" font-size="30.00"> &#160;&#160;519 &#160;&#160;50% &#160;&#160;2.18e&#45;15 mol/s &#160;&#160;&#160;1.00E+00</text>
</g>
</g>
</svg>
