<?xml version="1.0" encoding="UTF-8" standalone="no"?>
<!DOCTYPE svg PUBLIC "-//W3C//DTD SVG 1.1//EN"
 "http://www.w3.org/Graphics/SVG/1.1/DTD/svg11.dtd">
<!-- Generated by graphviz version 8.0.3 (20230416.2022)
 -->
<!-- Title: G Pages: 1 -->
<svg width="640pt" height="214pt"
 viewBox="0.00 0.00 720.00 240.50" xmlns="http://www.w3.org/2000/svg" xmlns:xlink="http://www.w3.org/1999/xlink">
<g id="graph0" class="graph" transform="scale(0.487062 0.487062) rotate(0) translate(4 434.92)">
<title>G</title>
<polygon fill="white" stroke="none" points="-4,4 -4,-434.92 1310,-434.92 1310,4 -4,4"/>
<text text-anchor="middle" x="653" y="-398.12" font-family="Arial" font-size="36.00" fill="blue">Reaction Path Analysis</text>
<!-- R278 -->
<g id="node1" class="node">
<title>R278</title>
<g id="a_node1"><a xlink:href="278.svg" xlink:title="R278">
<polygon fill="cornsilk" stroke="none" points="700,-204.42 606,-204.42 606,-157.42 700,-157.42 700,-204.42"/>
<text text-anchor="middle" x="653" y="-172.42" font-family="Times New Roman,serif" font-size="35.00">R278</text>
</a>
</g>
</g>
<!-- R311 -->
<g id="node7" class="node">
<title>R311</title>
<g id="a_node7"><a xlink:href="311.svg" xlink:title="R311">
<polygon fill="cornsilk" stroke="none" points="1306,-204.42 1212,-204.42 1212,-157.42 1306,-157.42 1306,-204.42"/>
<text text-anchor="middle" x="1259" y="-172.42" font-family="Times New Roman,serif" font-size="35.00">R311</text>
</a>
</g>
</g>
<!-- R278&#45;&gt;R311 -->
<g id="edge6" class="edge">
<title>R278&#45;&gt;R311</title>
<path fill="none" stroke="black" d="M699.95,-186.08C704.19,-186.42 708.42,-186.71 712.5,-186.92 928.66,-197.97 983.34,-197.97 1199.5,-186.92 1200.14,-186.89 1200.78,-186.85 1201.42,-186.81"/>
<polygon fill="black" stroke="black" points="1201.31,-190.26 1211.05,-186.08 1200.83,-183.28 1201.31,-190.26"/>
<text text-anchor="middle" x="956" y="-203.92" font-family="Times New Roman,serif" font-size="30.00"> &#160;&#160;762 &#160;&#160;0% &#160;&#160;2.19e&#45;26 mol/s &#160;&#160;&#160;9.95E&#45;01</text>
</g>
<!-- R278&#45;&gt;R311 -->
<g id="edge7" class="edge">
<title>R278&#45;&gt;R311</title>
<path fill="none" stroke="black" stroke-width="5" d="M691.95,-157.45C698.59,-154.34 705.58,-151.64 712.5,-149.92 922.55,-97.7 989.45,-97.7 1199.5,-149.92 1199.82,-150 1200.15,-150.08 1200.47,-150.17"/>
<polygon fill="black" stroke="black" stroke-width="5" points="1193.25,-156.68 1215.05,-155.45 1199.36,-140.28 1193.25,-156.68"/>
<text text-anchor="middle" x="956" y="-158.92" font-family="Times New Roman,serif" font-size="30.00"> &#160;&#160;785 &#160;&#160;99% &#160;&#160;4.36e&#45;24 mol/s &#160;&#160;&#160;4.99E&#45;03</text>
</g>
<!-- R17 -->
<g id="node2" class="node">
<title>R17</title>
<g id="a_node2"><a xlink:href="17.svg" xlink:title="R17">
<polygon fill="cornsilk" stroke="none" points="85,-334.42 9,-334.42 9,-287.42 85,-287.42 85,-334.42"/>
<text text-anchor="middle" x="47" y="-302.42" font-family="Times New Roman,serif" font-size="35.00">R17</text>
</a>
</g>
</g>
<!-- R17&#45;&gt;R278 -->
<g id="edge1" class="edge">
<title>R17&#45;&gt;R278</title>
<path fill="none" stroke="black" stroke-width="3" d="M84.67,-320.51C178.49,-342.84 431.55,-388.74 597,-283.92 621.35,-268.49 635.62,-238.41 643.5,-214.73"/>
<polygon fill="black" stroke="black" stroke-width="3" points="646.09,-218.96 645.68,-208.37 639.4,-216.9 646.09,-218.96"/>
<text text-anchor="middle" x="350" y="-358.92" font-family="Times New Roman,serif" font-size="30.00"> &#160;&#160;376 &#160;&#160;49% &#160;&#160;2.18e&#45;15 mol/s &#160;&#160;&#160;1.00E+00</text>
</g>
<!-- R14 -->
<g id="node3" class="node">
<title>R14</title>
<g id="a_node3"><a xlink:href="14.svg" xlink:title="R14">
<polygon fill="cornsilk" stroke="none" points="85,-269.42 9,-269.42 9,-222.42 85,-222.42 85,-269.42"/>
<text text-anchor="middle" x="47" y="-237.42" font-family="Times New Roman,serif" font-size="35.00">R14</text>
</a>
</g>
</g>
<!-- R14&#45;&gt;R278 -->
<g id="edge2" class="edge">
<title>R14&#45;&gt;R278</title>
<path fill="none" stroke="black" stroke-width="3" d="M84.83,-246.59C191.93,-248.13 501.7,-249.66 597,-217.92 602.95,-215.94 608.85,-213.13 614.46,-209.92"/>
<polygon fill="black" stroke="black" stroke-width="3" points="613.94,-214.5 620.59,-206.25 610.25,-208.56 613.94,-214.5"/>
<text text-anchor="middle" x="350" y="-255.92" font-family="Times New Roman,serif" font-size="30.00"> &#160;&#160;376 &#160;&#160;49% &#160;&#160;2.18e&#45;15 mol/s &#160;&#160;&#160;1.00E+00</text>
</g>
<!-- R0 -->
<g id="node4" class="node">
<title>R0</title>
<g id="a_node4"><a xlink:href="0.svg" xlink:title="R0">
<polygon fill="cornsilk" stroke="none" points="76,-204.42 18,-204.42 18,-157.42 76,-157.42 76,-204.42"/>
<text text-anchor="middle" x="47" y="-172.42" font-family="Times New Roman,serif" font-size="35.00">R0</text>
</a>
</g>
</g>
<!-- R0&#45;&gt;R278 -->
<g id="edge3" class="edge">
<title>R0&#45;&gt;R278</title>
<path fill="none" stroke="black" stroke-width="3" d="M75.92,-180.92C168.82,-180.92 468.75,-180.92 595.08,-180.92"/>
<polygon fill="black" stroke="black" stroke-width="3" points="592.03,-184.42 602.03,-180.92 592.03,-177.42 592.03,-184.42"/>
<text text-anchor="middle" x="350" y="-189.92" font-family="Times New Roman,serif" font-size="30.00"> &#160;&#160;521 &#160;&#160;49% &#160;&#160;2.18e&#45;15 mol/s &#160;&#160;&#160;1.00E+00</text>
</g>
<!-- R243 -->
<g id="node5" class="node">
<title>R243</title>
<g id="a_node5"><a xlink:href="243.svg" xlink:title="R243">
<polygon fill="cornsilk" stroke="none" points="94,-139.42 0,-139.42 0,-92.42 94,-92.42 94,-139.42"/>
<text text-anchor="middle" x="47" y="-107.42" font-family="Times New Roman,serif" font-size="35.00">R243</text>
</a>
</g>
</g>
<!-- R243&#45;&gt;R278 -->
<g id="edge4" class="edge">
<title>R243&#45;&gt;R278</title>
<path fill="none" stroke="black" stroke-width="3" d="M93.98,-110.19C190.26,-99.91 418.85,-84.57 597,-143.92 602.95,-145.9 608.85,-148.71 614.46,-151.91"/>
<polygon fill="black" stroke="black" stroke-width="3" points="610.25,-153.28 620.59,-155.58 613.94,-147.33 610.25,-153.28"/>
<text text-anchor="middle" x="350" y="-152.92" font-family="Times New Roman,serif" font-size="30.00"> &#160;&#160;521 &#160;&#160;49% &#160;&#160;2.18e&#45;15 mol/s &#160;&#160;&#160;1.00E+00</text>
</g>
<!-- R376 -->
<g id="node6" class="node">
<title>R376</title>
<g id="a_node6"><a xlink:href="376.svg" xlink:title="R376">
<polygon fill="cornsilk" stroke="none" points="94,-74.42 0,-74.42 0,-27.42 94,-27.42 94,-74.42"/>
<text text-anchor="middle" x="47" y="-42.42" font-family="Times New Roman,serif" font-size="35.00">R376</text>
</a>
</g>
</g>
<!-- R376&#45;&gt;R278 -->
<g id="edge5" class="edge">
<title>R376&#45;&gt;R278</title>
<path fill="none" stroke="black" d="M93.9,-37.02C194.51,-9.49 438.13,40.77 597,-62.92 625.57,-81.57 639.57,-119.25 646.25,-147.04"/>
<polygon fill="black" stroke="black" points="642.99,-147.49 648.54,-156.52 649.82,-146 642.99,-147.49"/>
<text text-anchor="middle" x="350" y="-71.92" font-family="Times New Roman,serif" font-size="30.00"> &#160;&#160;761 &#160;&#160;0% &#160;&#160;9.2e&#45;26 mol/s &#160;&#160;&#160;1.62E&#45;01</text>
</g>
</g>
</svg>
