<?xml version="1.0" encoding="UTF-8" standalone="no"?>
<!DOCTYPE svg PUBLIC "-//W3C//DTD SVG 1.1//EN"
 "http://www.w3.org/Graphics/SVG/1.1/DTD/svg11.dtd">
<!-- Generated by graphviz version 8.0.3 (20230416.2022)
 -->
<!-- Title: G Pages: 1 -->
<svg width="551pt" height="640pt"
 viewBox="0.00 0.00 620.23 720.00" xmlns="http://www.w3.org/2000/svg" xmlns:xlink="http://www.w3.org/1999/xlink">
<g id="graph0" class="graph" transform="scale(0.432407 0.432407) rotate(0) translate(4 1476.09)">
<title>G</title>
<polygon fill="white" stroke="none" points="-4,4 -4,-1476.09 1271,-1476.09 1271,4 -4,4"/>
<text text-anchor="middle" x="633.5" y="-1439.29" font-family="Arial" font-size="36.00" fill="blue">Reaction Path Analysis</text>
<!-- R28 -->
<g id="node1" class="node">
<title>R28</title>
<g id="a_node1"><a xlink:href="28.svg" xlink:title="R28">
<polygon fill="cornsilk" stroke="none" points="667,-713.59 591,-713.59 591,-666.59 667,-666.59 667,-713.59"/>
<text text-anchor="middle" x="629" y="-681.59" font-family="Times New Roman,serif" font-size="35.00">R28</text>
</a>
</g>
</g>
<!-- R93 -->
<g id="node6" class="node">
<title>R93</title>
<g id="a_node6"><a xlink:href="93.svg" xlink:title="R93">
<polygon fill="cornsilk" stroke="none" points="1258,-1396.59 1182,-1396.59 1182,-1349.59 1258,-1349.59 1258,-1396.59"/>
<text text-anchor="middle" x="1220" y="-1364.59" font-family="Times New Roman,serif" font-size="35.00">R93</text>
</a>
</g>
</g>
<!-- R28&#45;&gt;R93 -->
<g id="edge5" class="edge">
<title>R28&#45;&gt;R93</title>
<path fill="none" stroke="black" d="M630.18,-713.56C631.25,-825.58 638.53,-1302.21 685,-1347.09 753.32,-1413.06 1053.66,-1390.17 1171.41,-1378.33"/>
<polygon fill="black" stroke="black" points="1171.63,-1381.73 1181.22,-1377.23 1170.91,-1374.76 1171.63,-1381.73"/>
<text text-anchor="middle" x="924.5" y="-1400.09" font-family="Times New Roman,serif" font-size="30.00"> &#160;&#160;115 &#160;&#160;4% &#160;&#160;2.18e&#45;15 mol/s &#160;&#160;&#160;1.00E+00</text>
</g>
<!-- R94 -->
<g id="node7" class="node">
<title>R94</title>
<g id="a_node7"><a xlink:href="94.svg" xlink:title="R94">
<polygon fill="cornsilk" stroke="none" points="1258,-1331.59 1182,-1331.59 1182,-1284.59 1258,-1284.59 1258,-1331.59"/>
<text text-anchor="middle" x="1220" y="-1299.59" font-family="Times New Roman,serif" font-size="35.00">R94</text>
</a>
</g>
</g>
<!-- R28&#45;&gt;R94 -->
<g id="edge6" class="edge">
<title>R28&#45;&gt;R94</title>
<path fill="none" stroke="black" d="M630.4,-713.3C632.43,-817.9 643.19,-1242.08 685,-1282.09 719.7,-1315.3 1047.43,-1311.8 1171.62,-1309.24"/>
<polygon fill="black" stroke="black" points="1171.37,-1312.73 1181.29,-1309.02 1171.22,-1305.73 1171.37,-1312.73"/>
<text text-anchor="middle" x="924.5" y="-1319.09" font-family="Times New Roman,serif" font-size="30.00"> &#160;&#160;116 &#160;&#160;4% &#160;&#160;2.18e&#45;15 mol/s &#160;&#160;&#160;1.00E+00</text>
</g>
<!-- R121 -->
<g id="node8" class="node">
<title>R121</title>
<g id="a_node8"><a xlink:href="121.svg" xlink:title="R121">
<polygon fill="cornsilk" stroke="none" points="1267,-1266.59 1173,-1266.59 1173,-1219.59 1267,-1219.59 1267,-1266.59"/>
<text text-anchor="middle" x="1220" y="-1234.59" font-family="Times New Roman,serif" font-size="35.00">R121</text>
</a>
</g>
</g>
<!-- R28&#45;&gt;R121 -->
<g id="edge7" class="edge">
<title>R28&#45;&gt;R121</title>
<path fill="none" stroke="black" d="M630.68,-713.32C633.76,-810.62 647.87,-1181.96 685,-1217.09 719.07,-1249.32 1032.18,-1246.86 1162.5,-1244.4"/>
<polygon fill="black" stroke="black" points="1162.49,-1247.88 1172.42,-1244.19 1162.35,-1240.88 1162.49,-1247.88"/>
<text text-anchor="middle" x="924.5" y="-1254.09" font-family="Times New Roman,serif" font-size="30.00"> &#160;&#160;172 &#160;&#160;4% &#160;&#160;2.18e&#45;15 mol/s &#160;&#160;&#160;1.00E+00</text>
</g>
<!-- R122 -->
<g id="node9" class="node">
<title>R122</title>
<g id="a_node9"><a xlink:href="122.svg" xlink:title="R122">
<polygon fill="cornsilk" stroke="none" points="1267,-1201.59 1173,-1201.59 1173,-1154.59 1267,-1154.59 1267,-1201.59"/>
<text text-anchor="middle" x="1220" y="-1169.59" font-family="Times New Roman,serif" font-size="35.00">R122</text>
</a>
</g>
</g>
<!-- R28&#45;&gt;R122 -->
<g id="edge8" class="edge">
<title>R28&#45;&gt;R122</title>
<path fill="none" stroke="black" d="M631.04,-713.43C635.28,-803.09 652.55,-1121.82 685,-1152.09 719.3,-1184.07 1032.28,-1181.76 1162.53,-1179.37"/>
<polygon fill="black" stroke="black" points="1162.51,-1182.85 1172.44,-1179.16 1162.38,-1175.85 1162.51,-1182.85"/>
<text text-anchor="middle" x="924.5" y="-1189.09" font-family="Times New Roman,serif" font-size="30.00"> &#160;&#160;173 &#160;&#160;4% &#160;&#160;2.18e&#45;15 mol/s &#160;&#160;&#160;1.00E+00</text>
</g>
<!-- R123 -->
<g id="node10" class="node">
<title>R123</title>
<g id="a_node10"><a xlink:href="123.svg" xlink:title="R123">
<polygon fill="cornsilk" stroke="none" points="1267,-1136.59 1173,-1136.59 1173,-1089.59 1267,-1089.59 1267,-1136.59"/>
<text text-anchor="middle" x="1220" y="-1104.59" font-family="Times New Roman,serif" font-size="35.00">R123</text>
</a>
</g>
</g>
<!-- R28&#45;&gt;R123 -->
<g id="edge9" class="edge">
<title>R28&#45;&gt;R123</title>
<path fill="none" stroke="black" d="M629.55,-713.43C628.58,-790.63 629.98,-1035.68 685,-1086.09 719.54,-1117.73 1031.65,-1116.26 1162.1,-1114.22"/>
<polygon fill="black" stroke="black" points="1162.09,-1117.71 1172.03,-1114.04 1161.97,-1110.71 1162.09,-1117.71"/>
<text text-anchor="middle" x="924.5" y="-1124.09" font-family="Times New Roman,serif" font-size="30.00"> &#160;&#160;174 &#160;&#160;4% &#160;&#160;2.18e&#45;15 mol/s &#160;&#160;&#160;1.00E+00</text>
</g>
<!-- R184 -->
<g id="node11" class="node">
<title>R184</title>
<g id="a_node11"><a xlink:href="184.svg" xlink:title="R184">
<polygon fill="cornsilk" stroke="none" points="1267,-1071.59 1173,-1071.59 1173,-1024.59 1267,-1024.59 1267,-1071.59"/>
<text text-anchor="middle" x="1220" y="-1039.59" font-family="Times New Roman,serif" font-size="35.00">R184</text>
</a>
</g>
</g>
<!-- R28&#45;&gt;R184 -->
<g id="edge10" class="edge">
<title>R28&#45;&gt;R184</title>
<path fill="none" stroke="black" d="M630.25,-713.38C631.51,-781.85 639.14,-980.18 685,-1021.09 719.96,-1052.27 1031.83,-1051.06 1162.15,-1049.16"/>
<polygon fill="black" stroke="black" points="1162.13,-1052.64 1172.08,-1048.99 1162.02,-1045.65 1162.13,-1052.64"/>
<text text-anchor="middle" x="924.5" y="-1058.09" font-family="Times New Roman,serif" font-size="30.00"> &#160;&#160;243 &#160;&#160;4% &#160;&#160;2.18e&#45;15 mol/s &#160;&#160;&#160;1.00E+00</text>
</g>
<!-- R135 -->
<g id="node12" class="node">
<title>R135</title>
<g id="a_node12"><a xlink:href="135.svg" xlink:title="R135">
<polygon fill="cornsilk" stroke="none" points="1267,-1006.59 1173,-1006.59 1173,-959.59 1267,-959.59 1267,-1006.59"/>
<text text-anchor="middle" x="1220" y="-974.59" font-family="Times New Roman,serif" font-size="35.00">R135</text>
</a>
</g>
</g>
<!-- R28&#45;&gt;R135 -->
<g id="edge11" class="edge">
<title>R28&#45;&gt;R135</title>
<path fill="none" stroke="black" d="M631.28,-713.38C635.05,-772.24 648.21,-924.55 685,-956.09 720.57,-986.58 1032.08,-985.77 1162.24,-984.07"/>
<polygon fill="black" stroke="black" points="1162.19,-987.55 1172.14,-983.92 1162.1,-980.55 1162.19,-987.55"/>
<text text-anchor="middle" x="924.5" y="-993.09" font-family="Times New Roman,serif" font-size="30.00"> &#160;&#160;244 &#160;&#160;4% &#160;&#160;2.18e&#45;15 mol/s &#160;&#160;&#160;1.00E+00</text>
</g>
<!-- R185 -->
<g id="node13" class="node">
<title>R185</title>
<g id="a_node13"><a xlink:href="185.svg" xlink:title="R185">
<polygon fill="cornsilk" stroke="none" points="1267,-941.59 1173,-941.59 1173,-894.59 1267,-894.59 1267,-941.59"/>
<text text-anchor="middle" x="1220" y="-909.59" font-family="Times New Roman,serif" font-size="35.00">R185</text>
</a>
</g>
</g>
<!-- R28&#45;&gt;R185 -->
<g id="edge12" class="edge">
<title>R28&#45;&gt;R185</title>
<path fill="none" stroke="black" d="M632.92,-713.39C639.48,-761.59 657.02,-869.61 685,-892.09 721.52,-921.43 1032.48,-920.66 1162.36,-919.03"/>
<polygon fill="black" stroke="black" points="1162.29,-922.52 1172.25,-918.88 1162.2,-915.52 1162.29,-922.52"/>
<text text-anchor="middle" x="924.5" y="-928.09" font-family="Times New Roman,serif" font-size="30.00"> &#160;&#160;245 &#160;&#160;4% &#160;&#160;2.18e&#45;15 mol/s &#160;&#160;&#160;1.00E+00</text>
</g>
<!-- R220 -->
<g id="node14" class="node">
<title>R220</title>
<g id="a_node14"><a xlink:href="220.svg" xlink:title="R220">
<polygon fill="cornsilk" stroke="none" points="1267,-876.59 1173,-876.59 1173,-829.59 1267,-829.59 1267,-876.59"/>
<text text-anchor="middle" x="1220" y="-844.59" font-family="Times New Roman,serif" font-size="35.00">R220</text>
</a>
</g>
</g>
<!-- R28&#45;&gt;R220 -->
<g id="edge13" class="edge">
<title>R28&#45;&gt;R220</title>
<path fill="none" stroke="black" d="M631.57,-713.54C635.15,-746.04 646.83,-803.84 685,-831.09 723.11,-858.3 1033.16,-856.27 1162.58,-854.2"/>
<polygon fill="black" stroke="black" points="1162.48,-857.69 1172.42,-854.02 1162.36,-850.69 1162.48,-857.69"/>
<text text-anchor="middle" x="924.5" y="-864.09" font-family="Times New Roman,serif" font-size="30.00"> &#160;&#160;286 &#160;&#160;4% &#160;&#160;2.18e&#45;15 mol/s &#160;&#160;&#160;1.00E+00</text>
</g>
<!-- R145 -->
<g id="node15" class="node">
<title>R145</title>
<g id="a_node15"><a xlink:href="145.svg" xlink:title="R145">
<polygon fill="cornsilk" stroke="none" points="1267,-811.59 1173,-811.59 1173,-764.59 1267,-764.59 1267,-811.59"/>
<text text-anchor="middle" x="1220" y="-779.59" font-family="Times New Roman,serif" font-size="35.00">R145</text>
</a>
</g>
</g>
<!-- R28&#45;&gt;R145 -->
<g id="edge14" class="edge">
<title>R28&#45;&gt;R145</title>
<path fill="none" stroke="black" d="M641.42,-713.36C650.73,-729.55 665.52,-749.98 685,-760.09 766.71,-802.48 1042.27,-796 1162.31,-790.92"/>
<polygon fill="black" stroke="black" points="1162.25,-794.38 1172.09,-790.45 1161.95,-787.39 1162.25,-794.38"/>
<text text-anchor="middle" x="924.5" y="-803.09" font-family="Times New Roman,serif" font-size="30.00"> &#160;&#160;287 &#160;&#160;4% &#160;&#160;2.18e&#45;15 mol/s &#160;&#160;&#160;1.00E+00</text>
</g>
<!-- R221 -->
<g id="node16" class="node">
<title>R221</title>
<g id="a_node16"><a xlink:href="221.svg" xlink:title="R221">
<polygon fill="cornsilk" stroke="none" points="1267,-746.59 1173,-746.59 1173,-699.59 1267,-699.59 1267,-746.59"/>
<text text-anchor="middle" x="1220" y="-714.59" font-family="Times New Roman,serif" font-size="35.00">R221</text>
</a>
</g>
</g>
<!-- R28&#45;&gt;R221 -->
<g id="edge15" class="edge">
<title>R28&#45;&gt;R221</title>
<path fill="none" stroke="black" d="M666.85,-698.28C672.89,-699.39 679.1,-700.38 685,-701.09 857.98,-721.82 1064.48,-723.98 1162.28,-723.65"/>
<polygon fill="black" stroke="black" points="1162.11,-727.15 1172.09,-723.6 1162.08,-720.15 1162.11,-727.15"/>
<text text-anchor="middle" x="924.5" y="-732.09" font-family="Times New Roman,serif" font-size="30.00"> &#160;&#160;288 &#160;&#160;4% &#160;&#160;2.18e&#45;15 mol/s &#160;&#160;&#160;1.00E+00</text>
</g>
<!-- R231 -->
<g id="node17" class="node">
<title>R231</title>
<g id="a_node17"><a xlink:href="231.svg" xlink:title="R231">
<polygon fill="cornsilk" stroke="none" points="1267,-681.59 1173,-681.59 1173,-634.59 1267,-634.59 1267,-681.59"/>
<text text-anchor="middle" x="1220" y="-649.59" font-family="Times New Roman,serif" font-size="35.00">R231</text>
</a>
</g>
</g>
<!-- R28&#45;&gt;R231 -->
<g id="edge16" class="edge">
<title>R28&#45;&gt;R231</title>
<path fill="none" stroke="black" d="M666.72,-673.3C672.72,-671.17 678.95,-669.31 685,-668.09 855.86,-633.52 1063.77,-644.33 1162.16,-652.51"/>
<polygon fill="black" stroke="black" points="1161.77,-656.08 1172.04,-653.44 1162.37,-649.1 1161.77,-656.08"/>
<text text-anchor="middle" x="924.5" y="-677.09" font-family="Times New Roman,serif" font-size="30.00"> &#160;&#160;304 &#160;&#160;4% &#160;&#160;2.18e&#45;15 mol/s &#160;&#160;&#160;1.00E+00</text>
</g>
<!-- R153 -->
<g id="node18" class="node">
<title>R153</title>
<g id="a_node18"><a xlink:href="153.svg" xlink:title="R153">
<polygon fill="cornsilk" stroke="none" points="1267,-616.59 1173,-616.59 1173,-569.59 1267,-569.59 1267,-616.59"/>
<text text-anchor="middle" x="1220" y="-584.59" font-family="Times New Roman,serif" font-size="35.00">R153</text>
</a>
</g>
</g>
<!-- R28&#45;&gt;R153 -->
<g id="edge17" class="edge">
<title>R28&#45;&gt;R153</title>
<path fill="none" stroke="black" d="M638.31,-666.82C646.74,-647.05 661.86,-619.9 685,-607.09 765.54,-562.47 1042.37,-578.64 1162.56,-588.15"/>
<polygon fill="black" stroke="black" points="1162.1,-591.7 1172.35,-589.01 1162.66,-584.72 1162.1,-591.7"/>
<text text-anchor="middle" x="924.5" y="-616.09" font-family="Times New Roman,serif" font-size="30.00"> &#160;&#160;305 &#160;&#160;4% &#160;&#160;2.18e&#45;15 mol/s &#160;&#160;&#160;1.00E+00</text>
</g>
<!-- R249 -->
<g id="node19" class="node">
<title>R249</title>
<g id="a_node19"><a xlink:href="249.svg" xlink:title="R249">
<polygon fill="cornsilk" stroke="none" points="1267,-551.59 1173,-551.59 1173,-504.59 1267,-504.59 1267,-551.59"/>
<text text-anchor="middle" x="1220" y="-519.59" font-family="Times New Roman,serif" font-size="35.00">R249</text>
</a>
</g>
</g>
<!-- R28&#45;&gt;R249 -->
<g id="edge18" class="edge">
<title>R28&#45;&gt;R249</title>
<path fill="none" stroke="black" d="M630.94,-666.69C633.72,-632.58 644.4,-570.12 685,-541.09 759.98,-487.47 1040.52,-509.29 1162.15,-521.71"/>
<polygon fill="black" stroke="black" points="1161.76,-525.3 1172.07,-522.85 1162.49,-518.33 1161.76,-525.3"/>
<text text-anchor="middle" x="924.5" y="-550.09" font-family="Times New Roman,serif" font-size="30.00"> &#160;&#160;337 &#160;&#160;4% &#160;&#160;2.18e&#45;15 mol/s &#160;&#160;&#160;1.00E+00</text>
</g>
<!-- R167 -->
<g id="node20" class="node">
<title>R167</title>
<g id="a_node20"><a xlink:href="167.svg" xlink:title="R167">
<polygon fill="cornsilk" stroke="none" points="1267,-486.59 1173,-486.59 1173,-439.59 1267,-439.59 1267,-486.59"/>
<text text-anchor="middle" x="1220" y="-454.59" font-family="Times New Roman,serif" font-size="35.00">R167</text>
</a>
</g>
</g>
<!-- R28&#45;&gt;R167 -->
<g id="edge19" class="edge">
<title>R28&#45;&gt;R167</title>
<path fill="none" stroke="black" d="M632.31,-666.62C637.92,-615.05 654.13,-494.52 685,-470.09 757.43,-412.77 1040.56,-440.43 1162.56,-455.51"/>
<polygon fill="black" stroke="black" points="1161.8,-459.07 1172.16,-456.84 1162.67,-452.13 1161.8,-459.07"/>
<text text-anchor="middle" x="924.5" y="-479.09" font-family="Times New Roman,serif" font-size="30.00"> &#160;&#160;338 &#160;&#160;4% &#160;&#160;2.18e&#45;15 mol/s &#160;&#160;&#160;1.00E+00</text>
</g>
<!-- R250 -->
<g id="node21" class="node">
<title>R250</title>
<g id="a_node21"><a xlink:href="250.svg" xlink:title="R250">
<polygon fill="cornsilk" stroke="none" points="1267,-421.59 1173,-421.59 1173,-374.59 1267,-374.59 1267,-421.59"/>
<text text-anchor="middle" x="1220" y="-389.59" font-family="Times New Roman,serif" font-size="35.00">R250</text>
</a>
</g>
</g>
<!-- R28&#45;&gt;R250 -->
<g id="edge20" class="edge">
<title>R28&#45;&gt;R250</title>
<path fill="none" stroke="black" d="M630.74,-666.84C633.26,-604 643.86,-433.25 685,-399.09 721,-369.2 1032.26,-385.83 1162.29,-394.19"/>
<polygon fill="black" stroke="black" points="1161.98,-397.75 1172.19,-394.9 1162.44,-390.76 1161.98,-397.75"/>
<text text-anchor="middle" x="924.5" y="-408.09" font-family="Times New Roman,serif" font-size="30.00"> &#160;&#160;339 &#160;&#160;4% &#160;&#160;2.18e&#45;15 mol/s &#160;&#160;&#160;1.00E+00</text>
</g>
<!-- R284 -->
<g id="node22" class="node">
<title>R284</title>
<g id="a_node22"><a xlink:href="284.svg" xlink:title="R284">
<polygon fill="cornsilk" stroke="none" points="1267,-356.59 1173,-356.59 1173,-309.59 1267,-309.59 1267,-356.59"/>
<text text-anchor="middle" x="1220" y="-324.59" font-family="Times New Roman,serif" font-size="35.00">R284</text>
</a>
</g>
</g>
<!-- R28&#45;&gt;R284 -->
<g id="edge21" class="edge">
<title>R28&#45;&gt;R284</title>
<path fill="none" stroke="black" d="M630.02,-666.76C630.63,-596.22 636.56,-387.36 685,-345.09 754.68,-284.27 1040,-310.95 1162.59,-325.69"/>
<polygon fill="black" stroke="black" points="1161.89,-329.25 1172.24,-326.99 1162.74,-322.3 1161.89,-329.25"/>
<text text-anchor="middle" x="924.5" y="-354.09" font-family="Times New Roman,serif" font-size="30.00"> &#160;&#160;385 &#160;&#160;4% &#160;&#160;2.18e&#45;15 mol/s &#160;&#160;&#160;1.00E+00</text>
</g>
<!-- R174 -->
<g id="node23" class="node">
<title>R174</title>
<g id="a_node23"><a xlink:href="174.svg" xlink:title="R174">
<polygon fill="cornsilk" stroke="none" points="1267,-291.59 1173,-291.59 1173,-244.59 1267,-244.59 1267,-291.59"/>
<text text-anchor="middle" x="1220" y="-259.59" font-family="Times New Roman,serif" font-size="35.00">R174</text>
</a>
</g>
</g>
<!-- R28&#45;&gt;R174 -->
<g id="edge22" class="edge">
<title>R28&#45;&gt;R174</title>
<path fill="none" stroke="black" d="M631.29,-666.82C636.19,-582.52 654.93,-296.58 685,-270.09 720.11,-239.16 1031.89,-255.76 1162.17,-264.17"/>
<polygon fill="black" stroke="black" points="1161.89,-267.72 1172.09,-264.88 1162.34,-260.74 1161.89,-267.72"/>
<text text-anchor="middle" x="924.5" y="-279.09" font-family="Times New Roman,serif" font-size="30.00"> &#160;&#160;386 &#160;&#160;4% &#160;&#160;2.18e&#45;15 mol/s &#160;&#160;&#160;1.00E+00</text>
</g>
<!-- R285 -->
<g id="node24" class="node">
<title>R285</title>
<g id="a_node24"><a xlink:href="285.svg" xlink:title="R285">
<polygon fill="cornsilk" stroke="none" points="1267,-226.59 1173,-226.59 1173,-179.59 1267,-179.59 1267,-226.59"/>
<text text-anchor="middle" x="1220" y="-194.59" font-family="Times New Roman,serif" font-size="35.00">R285</text>
</a>
</g>
</g>
<!-- R28&#45;&gt;R285 -->
<g id="edge23" class="edge">
<title>R28&#45;&gt;R285</title>
<path fill="none" stroke="black" d="M630.95,-666.74C634.88,-575.53 651.31,-246.84 685,-216.09 719.57,-184.54 1031.66,-194.66 1162.1,-200.35"/>
<polygon fill="black" stroke="black" points="1161.89,-203.89 1172.03,-200.84 1162.2,-196.9 1161.89,-203.89"/>
<text text-anchor="middle" x="924.5" y="-225.09" font-family="Times New Roman,serif" font-size="30.00"> &#160;&#160;387 &#160;&#160;4% &#160;&#160;2.18e&#45;15 mol/s &#160;&#160;&#160;1.00E+00</text>
</g>
<!-- R286 -->
<g id="node25" class="node">
<title>R286</title>
<g id="a_node25"><a xlink:href="286.svg" xlink:title="R286">
<polygon fill="cornsilk" stroke="none" points="1267,-161.59 1173,-161.59 1173,-114.59 1267,-114.59 1267,-161.59"/>
<text text-anchor="middle" x="1220" y="-129.59" font-family="Times New Roman,serif" font-size="35.00">R286</text>
</a>
</g>
</g>
<!-- R28&#45;&gt;R286 -->
<g id="edge24" class="edge">
<title>R28&#45;&gt;R286</title>
<path fill="none" stroke="black" d="M630.65,-666.63C633.62,-568.36 647.34,-193.35 685,-158.09 719.22,-126.05 1032.24,-132.13 1162.52,-136.11"/>
<polygon fill="black" stroke="black" points="1162.33,-139.64 1172.43,-136.46 1162.55,-132.64 1162.33,-139.64"/>
<text text-anchor="middle" x="924.5" y="-167.09" font-family="Times New Roman,serif" font-size="30.00"> &#160;&#160;388 &#160;&#160;4% &#160;&#160;2.18e&#45;15 mol/s &#160;&#160;&#160;1.00E+00</text>
</g>
<!-- R41 -->
<g id="node26" class="node">
<title>R41</title>
<g id="a_node26"><a xlink:href="41.svg" xlink:title="R41">
<polygon fill="cornsilk" stroke="none" points="1258,-82.59 1182,-82.59 1182,-35.59 1258,-35.59 1258,-82.59"/>
<text text-anchor="middle" x="1220" y="-50.59" font-family="Times New Roman,serif" font-size="35.00">R41</text>
</a>
</g>
</g>
<!-- R28&#45;&gt;R41 -->
<g id="edge25" class="edge">
<title>R28&#45;&gt;R41</title>
<path fill="none" stroke="black" d="M630.39,-666.79C632.38,-561.83 643,-136.18 685,-96.09 723.54,-59.3 1111.37,-82.37 1164,-74.09 1166.52,-73.69 1169.08,-73.22 1171.66,-72.7"/>
<polygon fill="black" stroke="black" points="1172.28,-75.93 1181.26,-70.31 1170.74,-69.1 1172.28,-75.93"/>
<text text-anchor="middle" x="924.5" y="-105.09" font-family="Times New Roman,serif" font-size="30.00"> &#160;&#160;433 &#160;&#160;0% &#160;&#160;2.13e&#45;26 mol/s &#160;&#160;&#160;9.69E&#45;01</text>
</g>
<!-- R28&#45;&gt;R41 -->
<g id="edge26" class="edge">
<title>R28&#45;&gt;R41</title>
<path fill="none" stroke="black" d="M630.14,-666.71C631.06,-555.15 637.73,-80.54 685,-37.09 763.36,34.95 1059.48,-16.96 1164,-37.09 1166.51,-37.57 1169.06,-38.17 1171.6,-38.85"/>
<polygon fill="black" stroke="black" points="1170.41,-42.46 1181,-42.09 1172.5,-35.78 1170.41,-42.46"/>
<text text-anchor="middle" x="924.5" y="-46.09" font-family="Times New Roman,serif" font-size="30.00"> &#160;&#160;437 &#160;&#160;0% &#160;&#160;6.76e&#45;25 mol/s &#160;&#160;&#160;3.06E&#45;02</text>
</g>
<!-- R1 -->
<g id="node2" class="node">
<title>R1</title>
<g id="a_node2"><a xlink:href="1.svg" xlink:title="R1">
<polygon fill="cornsilk" stroke="none" points="67,-811.59 9,-811.59 9,-764.59 67,-764.59 67,-811.59"/>
<text text-anchor="middle" x="38" y="-779.59" font-family="Times New Roman,serif" font-size="35.00">R1</text>
</a>
</g>
</g>
<!-- R1&#45;&gt;R28 -->
<g id="edge1" class="edge">
<title>R1&#45;&gt;R28</title>
<path fill="none" stroke="black" stroke-width="3" d="M67,-794.89C151.28,-813.74 407.5,-859.11 580.5,-761.09 595.49,-752.59 606.66,-737.18 614.39,-722.89"/>
<polygon fill="black" stroke="black" stroke-width="3" points="615.86,-727.78 617.19,-717.27 609.59,-724.65 615.86,-727.78"/>
<text text-anchor="middle" x="333.5" y="-830.09" font-family="Times New Roman,serif" font-size="30.00"> &#160;&#160;33 &#160;&#160;50% &#160;&#160;2.18e&#45;15 mol/s &#160;&#160;&#160;1.00E+00</text>
</g>
<!-- R14 -->
<g id="node3" class="node">
<title>R14</title>
<g id="a_node3"><a xlink:href="14.svg" xlink:title="R14">
<polygon fill="cornsilk" stroke="none" points="76,-746.59 0,-746.59 0,-699.59 76,-699.59 76,-746.59"/>
<text text-anchor="middle" x="38" y="-714.59" font-family="Times New Roman,serif" font-size="35.00">R14</text>
</a>
</g>
</g>
<!-- R14&#45;&gt;R28 -->
<g id="edge2" class="edge">
<title>R14&#45;&gt;R28</title>
<path fill="none" stroke="black" stroke-width="3" d="M75.98,-723.96C162.3,-725.48 383.95,-726.46 580.24,-700.79"/>
<polygon fill="black" stroke="black" stroke-width="3" points="577.59,-704.14 587.04,-699.35 576.67,-697.21 577.59,-704.14"/>
<text text-anchor="middle" x="333.5" y="-733.09" font-family="Times New Roman,serif" font-size="30.00"> &#160;&#160;33 &#160;&#160;50% &#160;&#160;2.18e&#45;15 mol/s &#160;&#160;&#160;1.00E+00</text>
</g>
<!-- R0 -->
<g id="node4" class="node">
<title>R0</title>
<g id="a_node4"><a xlink:href="0.svg" xlink:title="R0">
<polygon fill="cornsilk" stroke="none" points="67,-681.59 9,-681.59 9,-634.59 67,-634.59 67,-681.59"/>
<text text-anchor="middle" x="38" y="-649.59" font-family="Times New Roman,serif" font-size="35.00">R0</text>
</a>
</g>
</g>
<!-- R0&#45;&gt;R28 -->
<g id="edge3" class="edge">
<title>R0&#45;&gt;R28</title>
<path fill="none" stroke="black" stroke-width="3" d="M66.82,-654.62C147.54,-645.4 388.3,-623.87 580.5,-668.09 580.61,-668.11 580.72,-668.14 580.83,-668.17"/>
<polygon fill="black" stroke="black" stroke-width="3" points="576.6,-670.75 587.18,-670.27 578.61,-664.04 576.6,-670.75"/>
<text text-anchor="middle" x="333.5" y="-677.09" font-family="Times New Roman,serif" font-size="30.00"> &#160;&#160;112 &#160;&#160;50% &#160;&#160;2.18e&#45;15 mol/s &#160;&#160;&#160;1.00E+00</text>
</g>
<!-- R26 -->
<g id="node5" class="node">
<title>R26</title>
<g id="a_node5"><a xlink:href="26.svg" xlink:title="R26">
<polygon fill="cornsilk" stroke="none" points="76,-616.59 0,-616.59 0,-569.59 76,-569.59 76,-616.59"/>
<text text-anchor="middle" x="38" y="-584.59" font-family="Times New Roman,serif" font-size="35.00">R26</text>
</a>
</g>
</g>
<!-- R26&#45;&gt;R28 -->
<g id="edge4" class="edge">
<title>R26&#45;&gt;R28</title>
<path fill="none" stroke="black" stroke-width="3" d="M75.94,-582.18C168.73,-557.08 415.89,-504.69 580.5,-604.09 599.51,-615.57 611.47,-637.61 618.63,-656.5"/>
<polygon fill="black" stroke="black" stroke-width="3" points="614.64,-654.57 621.22,-662.87 621.26,-652.28 614.64,-654.57"/>
<text text-anchor="middle" x="333.5" y="-613.09" font-family="Times New Roman,serif" font-size="30.00"> &#160;&#160;112 &#160;&#160;50% &#160;&#160;2.18e&#45;15 mol/s &#160;&#160;&#160;1.00E+00</text>
</g>
</g>
</svg>
