<?xml version="1.0" encoding="UTF-8" standalone="no"?>
<!DOCTYPE svg PUBLIC "-//W3C//DTD SVG 1.1//EN"
 "http://www.w3.org/Graphics/SVG/1.1/DTD/svg11.dtd">
<!-- Generated by graphviz version 8.0.3 (20230416.2022)
 -->
<!-- Title: G Pages: 1 -->
<svg width="640pt" height="205pt"
 viewBox="0.00 0.00 720.00 230.46" xmlns="http://www.w3.org/2000/svg" xmlns:xlink="http://www.w3.org/1999/xlink">
<g id="graph0" class="graph" transform="scale(0.503937 0.503937) rotate(0) translate(4 402.51)">
<title>G</title>
<polygon fill="white" stroke="none" points="-4,4 -4,-402.51 1266,-402.51 1266,4 -4,4"/>
<text text-anchor="middle" x="631" y="-365.71" font-family="Arial" font-size="36.00" fill="blue">Reaction Path Analysis</text>
<!-- R280 -->
<g id="node1" class="node">
<title>R280</title>
<g id="a_node1"><a xlink:href="280.svg" xlink:title="R280">
<polygon fill="cornsilk" stroke="none" points="678,-201.01 584,-201.01 584,-154.01 678,-154.01 678,-201.01"/>
<text text-anchor="middle" x="631" y="-169.01" font-family="Times New Roman,serif" font-size="35.00">R280</text>
</a>
</g>
</g>
<!-- R81 -->
<g id="node4" class="node">
<title>R81</title>
<g id="a_node4"><a xlink:href="81.svg" xlink:title="R81">
<polygon fill="cornsilk" stroke="none" points="1253,-290.01 1177,-290.01 1177,-243.01 1253,-243.01 1253,-290.01"/>
<text text-anchor="middle" x="1215" y="-258.01" font-family="Times New Roman,serif" font-size="35.00">R81</text>
</a>
</g>
</g>
<!-- R280&#45;&gt;R81 -->
<g id="edge3" class="edge">
<title>R280&#45;&gt;R81</title>
<path fill="none" stroke="black" stroke-width="4" d="M638.91,-200.76C646.73,-222.39 661.77,-253.36 687,-267.51 838.45,-352.45 1054.99,-310.9 1156.87,-283.72"/>
<polygon fill="black" stroke="black" stroke-width="4" points="1154.69,-291.21 1172.09,-279.11 1150.94,-277.72 1154.69,-291.21"/>
<text text-anchor="middle" x="923" y="-326.51" font-family="Times New Roman,serif" font-size="30.00"> &#160;&#160;465 &#160;&#160;76% &#160;&#160;0.238 mol/s &#160;&#160;&#160;1.11E&#45;02</text>
</g>
<!-- R280&#45;&gt;R81 -->
<g id="edge8" class="edge">
<title>R280&#45;&gt;R81</title>
<path fill="none" stroke="black" d="M663.83,-200.95C671.11,-205.21 679.06,-209.08 687,-211.51 787.38,-242.23 1059.03,-198.5 1159,-230.51 1164.57,-232.3 1170.11,-234.81 1175.42,-237.69"/>
<polygon fill="black" stroke="black" points="1173.28,-241.08 1183.67,-243.18 1176.86,-235.06 1173.28,-241.08"/>
<text text-anchor="middle" x="923" y="-239.51" font-family="Times New Roman,serif" font-size="30.00"> &#160;&#160;763 &#160;&#160;0% &#160;&#160;0.00269 mol/s &#160;&#160;&#160;9.89E&#45;01</text>
</g>
<!-- R322 -->
<g id="node7" class="node">
<title>R322</title>
<g id="a_node7"><a xlink:href="322.svg" xlink:title="R322">
<polygon fill="cornsilk" stroke="none" points="1262,-206.01 1168,-206.01 1168,-159.01 1262,-159.01 1262,-206.01"/>
<text text-anchor="middle" x="1215" y="-174.01" font-family="Times New Roman,serif" font-size="35.00">R322</text>
</a>
</g>
</g>
<!-- R280&#45;&gt;R322 -->
<g id="edge6" class="edge">
<title>R280&#45;&gt;R322</title>
<path fill="none" stroke="black" d="M677.84,-176.51C767.56,-174.78 972.94,-172 1157.12,-178.53"/>
<polygon fill="black" stroke="black" points="1156.98,-182.06 1167.1,-178.93 1157.23,-175.07 1156.98,-182.06"/>
<text text-anchor="middle" x="923" y="-187.51" font-family="Times New Roman,serif" font-size="30.00"> &#160;&#160;544 &#160;&#160;10% &#160;&#160;0.0342 mol/s &#160;&#160;&#160;1.00E+00</text>
</g>
<!-- R302 -->
<g id="node8" class="node">
<title>R302</title>
<g id="a_node8"><a xlink:href="302.svg" xlink:title="R302">
<polygon fill="cornsilk" stroke="none" points="1262,-141.01 1168,-141.01 1168,-94.01 1262,-94.01 1262,-141.01"/>
<text text-anchor="middle" x="1215" y="-109.01" font-family="Times New Roman,serif" font-size="35.00">R302</text>
</a>
</g>
</g>
<!-- R280&#45;&gt;R302 -->
<g id="edge7" class="edge">
<title>R280&#45;&gt;R302</title>
<path fill="none" stroke="black" d="M656.68,-154.15C665.57,-147.16 676.1,-140.35 687,-136.51 849.95,-79.18 1058.97,-96.04 1157.64,-108.87"/>
<polygon fill="black" stroke="black" points="1156.88,-112.43 1167.26,-110.29 1157.81,-105.49 1156.88,-112.43"/>
<text text-anchor="middle" x="923" y="-145.51" font-family="Times New Roman,serif" font-size="30.00"> &#160;&#160;545 &#160;&#160;10% &#160;&#160;0.0342 mol/s &#160;&#160;&#160;1.00E+00</text>
</g>
<!-- R184 -->
<g id="node9" class="node">
<title>R184</title>
<g id="a_node9"><a xlink:href="184.svg" xlink:title="R184">
<polygon fill="cornsilk" stroke="none" points="1262,-76.01 1168,-76.01 1168,-29.01 1262,-29.01 1262,-76.01"/>
<text text-anchor="middle" x="1215" y="-44.01" font-family="Times New Roman,serif" font-size="35.00">R184</text>
</a>
</g>
</g>
<!-- R280&#45;&gt;R184 -->
<g id="edge9" class="edge">
<title>R280&#45;&gt;R184</title>
<path fill="none" stroke="black" d="M635.27,-154.36C640.61,-126.19 654.14,-79.79 687,-58.51 833.69,36.47 1054.83,-6.93 1157.69,-35.1"/>
<polygon fill="black" stroke="black" points="1156.58,-38.71 1167.15,-38.03 1158.46,-31.96 1156.58,-38.71"/>
<text text-anchor="middle" x="923" y="-67.51" font-family="Times New Roman,serif" font-size="30.00"> &#160;&#160;764 &#160;&#160;0% &#160;&#160;0.00268 mol/s &#160;&#160;&#160;9.87E&#45;01</text>
</g>
<!-- R26 -->
<g id="node2" class="node">
<title>R26</title>
<g id="a_node2"><a xlink:href="26.svg" xlink:title="R26">
<polygon fill="cornsilk" stroke="none" points="85,-299.01 9,-299.01 9,-252.01 85,-252.01 85,-299.01"/>
<text text-anchor="middle" x="47" y="-267.01" font-family="Times New Roman,serif" font-size="35.00">R26</text>
</a>
</g>
</g>
<!-- R26&#45;&gt;R280 -->
<g id="edge1" class="edge">
<title>R26&#45;&gt;R280</title>
<path fill="none" stroke="black" stroke-width="3" d="M84.85,-283.37C174.7,-300.53 409.73,-333.33 575,-247.51 590.98,-239.21 603.8,-223.98 613.03,-209.83"/>
<polygon fill="black" stroke="black" stroke-width="3" points="614.34,-214.13 616.58,-203.78 608.37,-210.47 614.34,-214.13"/>
<text text-anchor="middle" x="339" y="-312.51" font-family="Times New Roman,serif" font-size="30.00"> &#160;&#160;380 &#160;&#160;48% &#160;&#160;0.0326 mol/s &#160;&#160;&#160;9.55E&#45;01</text>
</g>
<!-- R14 -->
<g id="node3" class="node">
<title>R14</title>
<g id="a_node3"><a xlink:href="14.svg" xlink:title="R14">
<polygon fill="cornsilk" stroke="none" points="85,-234.01 9,-234.01 9,-187.01 85,-187.01 85,-234.01"/>
<text text-anchor="middle" x="47" y="-202.01" font-family="Times New Roman,serif" font-size="35.00">R14</text>
</a>
</g>
</g>
<!-- R14&#45;&gt;R280 -->
<g id="edge2" class="edge">
<title>R14&#45;&gt;R280</title>
<path fill="none" stroke="black" stroke-width="3" d="M84.9,-210.94C169.45,-211.5 383.87,-210.53 573.45,-188.5"/>
<polygon fill="black" stroke="black" stroke-width="3" points="570.65,-191.89 580.17,-187.23 569.83,-184.93 570.65,-191.89"/>
<text text-anchor="middle" x="339" y="-219.51" font-family="Times New Roman,serif" font-size="30.00"> &#160;&#160;380 &#160;&#160;48% &#160;&#160;0.0326 mol/s &#160;&#160;&#160;9.55E&#45;01</text>
</g>
<!-- R0 -->
<g id="node5" class="node">
<title>R0</title>
<g id="a_node5"><a xlink:href="0.svg" xlink:title="R0">
<polygon fill="cornsilk" stroke="none" points="76,-169.01 18,-169.01 18,-122.01 76,-122.01 76,-169.01"/>
<text text-anchor="middle" x="47" y="-137.01" font-family="Times New Roman,serif" font-size="35.00">R0</text>
</a>
</g>
</g>
<!-- R0&#45;&gt;R280 -->
<g id="edge4" class="edge">
<title>R0&#45;&gt;R280</title>
<path fill="none" stroke="black" stroke-width="3" d="M75.81,-142.56C153.49,-135.05 379.19,-118.19 573.47,-155.65"/>
<polygon fill="black" stroke="black" stroke-width="3" points="569.67,-159.26 580.16,-157.78 571.03,-152.4 569.67,-159.26"/>
<text text-anchor="middle" x="339" y="-164.51" font-family="Times New Roman,serif" font-size="30.00"> &#160;&#160;523 &#160;&#160;51% &#160;&#160;0.0342 mol/s &#160;&#160;&#160;1.00E+00</text>
</g>
<!-- R246 -->
<g id="node6" class="node">
<title>R246</title>
<g id="a_node6"><a xlink:href="246.svg" xlink:title="R246">
<polygon fill="cornsilk" stroke="none" points="94,-104.01 0,-104.01 0,-57.01 94,-57.01 94,-104.01"/>
<text text-anchor="middle" x="47" y="-72.01" font-family="Times New Roman,serif" font-size="35.00">R246</text>
</a>
</g>
</g>
<!-- R246&#45;&gt;R280 -->
<g id="edge5" class="edge">
<title>R246&#45;&gt;R280</title>
<path fill="none" stroke="black" stroke-width="3" d="M93.94,-68.47C190.23,-45.93 417.3,-7.11 575,-94.51 594.43,-105.28 608.21,-126.15 617.12,-144.27"/>
<polygon fill="black" stroke="black" stroke-width="3" points="613.34,-142.61 620.69,-150.24 619.71,-139.69 613.34,-142.61"/>
<text text-anchor="middle" x="339" y="-103.51" font-family="Times New Roman,serif" font-size="30.00"> &#160;&#160;523 &#160;&#160;51% &#160;&#160;0.0342 mol/s &#160;&#160;&#160;1.00E+00</text>
</g>
</g>
</svg>
