<?xml version="1.0" encoding="UTF-8" standalone="no"?>
<!DOCTYPE svg PUBLIC "-//W3C//DTD SVG 1.1//EN"
 "http://www.w3.org/Graphics/SVG/1.1/DTD/svg11.dtd">
<!-- Generated by graphviz version 8.0.3 (20230416.2022)
 -->
<!-- Title: G Pages: 1 -->
<svg width="640pt" height="214pt"
 viewBox="0.00 0.00 720.00 240.47" xmlns="http://www.w3.org/2000/svg" xmlns:xlink="http://www.w3.org/1999/xlink">
<g id="graph0" class="graph" transform="scale(0.503937 0.503937) rotate(0) translate(4 420.17)">
<title>G</title>
<polygon fill="white" stroke="none" points="-4,4 -4,-420.17 1266,-420.17 1266,4 -4,4"/>
<text text-anchor="middle" x="631" y="-383.37" font-family="Arial" font-size="36.00" fill="blue">Reaction Path Analysis</text>
<!-- R282 -->
<g id="node1" class="node">
<title>R282</title>
<g id="a_node1"><a xlink:href="282.svg" xlink:title="R282">
<polygon fill="cornsilk" stroke="none" points="678,-198.67 584,-198.67 584,-151.67 678,-151.67 678,-198.67"/>
<text text-anchor="middle" x="631" y="-166.67" font-family="Times New Roman,serif" font-size="35.00">R282</text>
</a>
</g>
</g>
<!-- R323 -->
<g id="node6" class="node">
<title>R323</title>
<g id="a_node6"><a xlink:href="323.svg" xlink:title="R323">
<polygon fill="cornsilk" stroke="none" points="1262,-347.67 1168,-347.67 1168,-300.67 1262,-300.67 1262,-347.67"/>
<text text-anchor="middle" x="1215" y="-315.67" font-family="Times New Roman,serif" font-size="35.00">R323</text>
</a>
</g>
</g>
<!-- R282&#45;&gt;R323 -->
<g id="edge5" class="edge">
<title>R282&#45;&gt;R323</title>
<path fill="none" stroke="black" d="M635.82,-198.42C641.93,-227.29 656.88,-275.49 691,-298.17 765.98,-348 1038.01,-336.29 1157.29,-328.43"/>
<polygon fill="black" stroke="black" points="1157.26,-331.87 1167,-327.71 1156.79,-324.89 1157.26,-331.87"/>
<text text-anchor="middle" x="923" y="-344.17" font-family="Times New Roman,serif" font-size="30.00"> &#160;&#160;546 &#160;&#160;2% &#160;&#160;0.0342 mol/s &#160;&#160;&#160;1.00E+00</text>
</g>
<!-- R304 -->
<g id="node7" class="node">
<title>R304</title>
<g id="a_node7"><a xlink:href="304.svg" xlink:title="R304">
<polygon fill="cornsilk" stroke="none" points="1262,-282.67 1168,-282.67 1168,-235.67 1262,-235.67 1262,-282.67"/>
<text text-anchor="middle" x="1215" y="-250.67" font-family="Times New Roman,serif" font-size="35.00">R304</text>
</a>
</g>
</g>
<!-- R282&#45;&gt;R304 -->
<g id="edge6" class="edge">
<title>R282&#45;&gt;R304</title>
<path fill="none" stroke="black" d="M651.09,-198.48C661.6,-209.56 675.63,-221.75 691,-228.17 773.84,-262.75 1039.85,-262.43 1157.33,-260.47"/>
<polygon fill="black" stroke="black" points="1157.28,-263.96 1167.22,-260.28 1157.16,-256.96 1157.28,-263.96"/>
<text text-anchor="middle" x="923" y="-270.17" font-family="Times New Roman,serif" font-size="30.00"> &#160;&#160;547 &#160;&#160;2% &#160;&#160;0.0342 mol/s &#160;&#160;&#160;1.00E+00</text>
</g>
<!-- R149 -->
<g id="node8" class="node">
<title>R149</title>
<g id="a_node8"><a xlink:href="149.svg" xlink:title="R149">
<polygon fill="cornsilk" stroke="none" points="1262,-194.67 1168,-194.67 1168,-147.67 1262,-147.67 1262,-194.67"/>
<text text-anchor="middle" x="1215" y="-162.67" font-family="Times New Roman,serif" font-size="35.00">R149</text>
</a>
</g>
</g>
<!-- R282&#45;&gt;R149 -->
<g id="edge7" class="edge">
<title>R282&#45;&gt;R149</title>
<path fill="none" stroke="black" d="M677.7,-180.28C682.19,-180.64 686.68,-180.95 691,-181.17 896.96,-191.61 949.5,-198.46 1155,-181.17 1155.8,-181.1 1156.6,-181.03 1157.4,-180.95"/>
<polygon fill="black" stroke="black" points="1157.5,-184.35 1167.04,-179.72 1156.7,-177.39 1157.5,-184.35"/>
<text text-anchor="middle" x="923" y="-200.17" font-family="Times New Roman,serif" font-size="30.00"> &#160;&#160;673 &#160;&#160;0% &#160;&#160;0.00498 mol/s &#160;&#160;&#160;2.61E&#45;01</text>
</g>
<!-- R282&#45;&gt;R149 -->
<g id="edge10" class="edge">
<title>R282&#45;&gt;R149</title>
<path fill="none" stroke="black" d="M670.29,-151.7C676.98,-148.59 684.03,-145.88 691,-144.17 791.11,-119.47 1054.25,-122.21 1155,-144.17 1155.96,-144.38 1156.93,-144.6 1157.9,-144.85"/>
<polygon fill="black" stroke="black" points="1156.69,-148.44 1167.27,-147.99 1158.72,-141.74 1156.69,-148.44"/>
<text text-anchor="middle" x="923" y="-153.17" font-family="Times New Roman,serif" font-size="30.00"> &#160;&#160;766 &#160;&#160;0% &#160;&#160;0.00176 mol/s &#160;&#160;&#160;7.39E&#45;01</text>
</g>
<!-- R243 -->
<g id="node9" class="node">
<title>R243</title>
<g id="a_node9"><a xlink:href="243.svg" xlink:title="R243">
<polygon fill="cornsilk" stroke="none" points="1262,-86.67 1168,-86.67 1168,-39.67 1262,-39.67 1262,-86.67"/>
<text text-anchor="middle" x="1215" y="-54.67" font-family="Times New Roman,serif" font-size="35.00">R243</text>
</a>
</g>
</g>
<!-- R282&#45;&gt;R243 -->
<g id="edge8" class="edge">
<title>R282&#45;&gt;R243</title>
<path fill="none" stroke="black" stroke-width="5" d="M640.84,-151.92C650,-131.43 666.46,-102.78 691,-89.17 732.56,-66.12 1047.42,-71.72 1147.55,-68.99"/>
<polygon fill="black" stroke="black" stroke-width="5" points="1142.69,-77.7 1162.28,-68.08 1141.92,-60.22 1142.69,-77.7"/>
<text text-anchor="middle" x="923" y="-98.17" font-family="Times New Roman,serif" font-size="30.00"> &#160;&#160;713 &#160;&#160;94% &#160;&#160;1.28 mol/s &#160;&#160;&#160;2.11E&#45;03</text>
</g>
<!-- R282&#45;&gt;R243 -->
<g id="edge9" class="edge">
<title>R282&#45;&gt;R243</title>
<path fill="none" stroke="black" d="M633.92,-151.67C638.05,-118.49 650.94,-58.98 691,-32.17 776.69,25.18 1054.89,-7.47 1155,-32.17 1158.59,-33.05 1162.21,-34.2 1165.78,-35.53"/>
<polygon fill="black" stroke="black" points="1164.13,-39.05 1174.71,-39.7 1166.84,-32.6 1164.13,-39.05"/>
<text text-anchor="middle" x="923" y="-41.17" font-family="Times New Roman,serif" font-size="30.00"> &#160;&#160;765 &#160;&#160;0% &#160;&#160;0.00271 mol/s &#160;&#160;&#160;9.98E&#45;01</text>
</g>
<!-- R27 -->
<g id="node2" class="node">
<title>R27</title>
<g id="a_node2"><a xlink:href="27.svg" xlink:title="R27">
<polygon fill="cornsilk" stroke="none" points="85,-296.67 9,-296.67 9,-249.67 85,-249.67 85,-296.67"/>
<text text-anchor="middle" x="47" y="-264.67" font-family="Times New Roman,serif" font-size="35.00">R27</text>
</a>
</g>
</g>
<!-- R27&#45;&gt;R282 -->
<g id="edge1" class="edge">
<title>R27&#45;&gt;R282</title>
<path fill="none" stroke="black" stroke-width="3" d="M84.85,-281.02C174.7,-298.18 409.73,-330.99 575,-245.17 590.98,-236.87 603.8,-221.63 613.03,-207.48"/>
<polygon fill="black" stroke="black" stroke-width="3" points="614.34,-211.79 616.58,-201.43 608.37,-208.13 614.34,-211.79"/>
<text text-anchor="middle" x="339" y="-310.17" font-family="Times New Roman,serif" font-size="30.00"> &#160;&#160;383 &#160;&#160;50% &#160;&#160;0.0342 mol/s &#160;&#160;&#160;1.00E+00</text>
</g>
<!-- R14 -->
<g id="node3" class="node">
<title>R14</title>
<g id="a_node3"><a xlink:href="14.svg" xlink:title="R14">
<polygon fill="cornsilk" stroke="none" points="85,-231.67 9,-231.67 9,-184.67 85,-184.67 85,-231.67"/>
<text text-anchor="middle" x="47" y="-199.67" font-family="Times New Roman,serif" font-size="35.00">R14</text>
</a>
</g>
</g>
<!-- R14&#45;&gt;R282 -->
<g id="edge2" class="edge">
<title>R14&#45;&gt;R282</title>
<path fill="none" stroke="black" stroke-width="3" d="M84.9,-208.59C169.45,-209.15 383.87,-208.18 573.45,-186.16"/>
<polygon fill="black" stroke="black" stroke-width="3" points="570.65,-189.54 580.17,-184.89 569.83,-182.59 570.65,-189.54"/>
<text text-anchor="middle" x="339" y="-217.17" font-family="Times New Roman,serif" font-size="30.00"> &#160;&#160;383 &#160;&#160;50% &#160;&#160;0.0342 mol/s &#160;&#160;&#160;1.00E+00</text>
</g>
<!-- R0 -->
<g id="node4" class="node">
<title>R0</title>
<g id="a_node4"><a xlink:href="0.svg" xlink:title="R0">
<polygon fill="cornsilk" stroke="none" points="76,-166.67 18,-166.67 18,-119.67 76,-119.67 76,-166.67"/>
<text text-anchor="middle" x="47" y="-134.67" font-family="Times New Roman,serif" font-size="35.00">R0</text>
</a>
</g>
</g>
<!-- R0&#45;&gt;R282 -->
<g id="edge3" class="edge">
<title>R0&#45;&gt;R282</title>
<path fill="none" stroke="black" stroke-width="3" d="M75.81,-140.22C153.49,-132.7 379.19,-115.84 573.47,-153.31"/>
<polygon fill="black" stroke="black" stroke-width="3" points="569.67,-156.92 580.16,-155.43 571.03,-150.05 569.67,-156.92"/>
<text text-anchor="middle" x="339" y="-162.17" font-family="Times New Roman,serif" font-size="30.00"> &#160;&#160;525 &#160;&#160;50% &#160;&#160;0.0342 mol/s &#160;&#160;&#160;1.00E+00</text>
</g>
<!-- R248 -->
<g id="node5" class="node">
<title>R248</title>
<g id="a_node5"><a xlink:href="248.svg" xlink:title="R248">
<polygon fill="cornsilk" stroke="none" points="94,-101.67 0,-101.67 0,-54.67 94,-54.67 94,-101.67"/>
<text text-anchor="middle" x="47" y="-69.67" font-family="Times New Roman,serif" font-size="35.00">R248</text>
</a>
</g>
</g>
<!-- R248&#45;&gt;R282 -->
<g id="edge4" class="edge">
<title>R248&#45;&gt;R282</title>
<path fill="none" stroke="black" stroke-width="3" d="M93.94,-66.13C190.23,-43.59 417.3,-4.76 575,-92.17 594.43,-102.93 608.21,-123.8 617.12,-141.92"/>
<polygon fill="black" stroke="black" stroke-width="3" points="613.34,-140.26 620.69,-147.9 619.71,-137.35 613.34,-140.26"/>
<text text-anchor="middle" x="339" y="-101.17" font-family="Times New Roman,serif" font-size="30.00"> &#160;&#160;525 &#160;&#160;50% &#160;&#160;0.0342 mol/s &#160;&#160;&#160;1.00E+00</text>
</g>
</g>
</svg>
