<?xml version="1.0" encoding="UTF-8" standalone="no"?>
<!DOCTYPE svg PUBLIC "-//W3C//DTD SVG 1.1//EN"
 "http://www.w3.org/Graphics/SVG/1.1/DTD/svg11.dtd">
<!-- Generated by graphviz version 8.0.3 (20230416.2022)
 -->
<!-- Title: G Pages: 1 -->
<svg width="640pt" height="210pt"
 viewBox="0.00 0.00 720.00 235.72" xmlns="http://www.w3.org/2000/svg" xmlns:xlink="http://www.w3.org/1999/xlink">
<g id="graph0" class="graph" transform="scale(0.487062 0.487062) rotate(0) translate(4 426.19)">
<title>G</title>
<polygon fill="white" stroke="none" points="-4,4 -4,-426.19 1310,-426.19 1310,4 -4,4"/>
<text text-anchor="middle" x="653" y="-389.39" font-family="Arial" font-size="36.00" fill="blue">Reaction Path Analysis</text>
<!-- R282 -->
<g id="node1" class="node">
<title>R282</title>
<g id="a_node1"><a xlink:href="282.svg" xlink:title="R282">
<polygon fill="cornsilk" stroke="none" points="700,-201.69 606,-201.69 606,-154.69 700,-154.69 700,-201.69"/>
<text text-anchor="middle" x="653" y="-169.69" font-family="Times New Roman,serif" font-size="35.00">R282</text>
</a>
</g>
</g>
<!-- R323 -->
<g id="node6" class="node">
<title>R323</title>
<g id="a_node6"><a xlink:href="323.svg" xlink:title="R323">
<polygon fill="cornsilk" stroke="none" points="1306,-350.69 1212,-350.69 1212,-303.69 1306,-303.69 1306,-350.69"/>
<text text-anchor="middle" x="1259" y="-318.69" font-family="Times New Roman,serif" font-size="35.00">R323</text>
</a>
</g>
</g>
<!-- R282&#45;&gt;R323 -->
<g id="edge5" class="edge">
<title>R282&#45;&gt;R323</title>
<path fill="none" stroke="black" stroke-width="3" d="M656.88,-201.54C661.85,-230.81 675.05,-279.97 709,-303.19 787.63,-356.99 1077.72,-341.45 1201.47,-332.02"/>
<polygon fill="black" stroke="black" stroke-width="3" points="1198.51,-335.45 1208.21,-331.19 1197.97,-328.47 1198.51,-335.45"/>
<text text-anchor="middle" x="956" y="-350.19" font-family="Times New Roman,serif" font-size="30.00"> &#160;&#160;546 &#160;&#160;49% &#160;&#160;2.18e&#45;15 mol/s &#160;&#160;&#160;1.00E+00</text>
</g>
<!-- R304 -->
<g id="node7" class="node">
<title>R304</title>
<g id="a_node7"><a xlink:href="304.svg" xlink:title="R304">
<polygon fill="cornsilk" stroke="none" points="1306,-285.69 1212,-285.69 1212,-238.69 1306,-238.69 1306,-285.69"/>
<text text-anchor="middle" x="1259" y="-253.69" font-family="Times New Roman,serif" font-size="35.00">R304</text>
</a>
</g>
</g>
<!-- R282&#45;&gt;R304 -->
<g id="edge6" class="edge">
<title>R282&#45;&gt;R304</title>
<path fill="none" stroke="black" stroke-width="3" d="M670.59,-201.55C680.32,-213.26 693.7,-226.38 709,-233.19 795.77,-271.85 1079.47,-267.93 1201.44,-264.27"/>
<polygon fill="black" stroke="black" stroke-width="3" points="1198.49,-267.74 1208.38,-263.93 1198.27,-260.74 1198.49,-267.74"/>
<text text-anchor="middle" x="956" y="-275.19" font-family="Times New Roman,serif" font-size="30.00"> &#160;&#160;547 &#160;&#160;49% &#160;&#160;2.18e&#45;15 mol/s &#160;&#160;&#160;1.00E+00</text>
</g>
<!-- R149 -->
<g id="node8" class="node">
<title>R149</title>
<g id="a_node8"><a xlink:href="149.svg" xlink:title="R149">
<polygon fill="cornsilk" stroke="none" points="1306,-197.69 1212,-197.69 1212,-150.69 1306,-150.69 1306,-197.69"/>
<text text-anchor="middle" x="1259" y="-165.69" font-family="Times New Roman,serif" font-size="35.00">R149</text>
</a>
</g>
</g>
<!-- R282&#45;&gt;R149 -->
<g id="edge7" class="edge">
<title>R282&#45;&gt;R149</title>
<path fill="none" stroke="black" d="M699.89,-183.58C702.97,-183.82 706.03,-184.03 709,-184.19 924.7,-195.93 982.48,-203.66 1201.29,-184.14"/>
<polygon fill="black" stroke="black" points="1201.52,-187.55 1211.17,-183.16 1200.89,-180.58 1201.52,-187.55"/>
<text text-anchor="middle" x="956" y="-205.19" font-family="Times New Roman,serif" font-size="30.00"> &#160;&#160;673 &#160;&#160;0% &#160;&#160;3.76e&#45;25 mol/s &#160;&#160;&#160;5.25E&#45;02</text>
</g>
<!-- R282&#45;&gt;R149 -->
<g id="edge10" class="edge">
<title>R282&#45;&gt;R149</title>
<path fill="none" stroke="black" d="M689.56,-154.74C695.81,-151.63 702.43,-148.92 709,-147.19 762.09,-133.26 1149.53,-134.78 1203,-147.19 1203.49,-147.31 1203.99,-147.43 1204.48,-147.55"/>
<polygon fill="black" stroke="black" points="1203.25,-151.15 1213.84,-150.79 1205.34,-144.47 1203.25,-151.15"/>
<text text-anchor="middle" x="956" y="-156.19" font-family="Times New Roman,serif" font-size="30.00"> &#160;&#160;766 &#160;&#160;0% &#160;&#160;2.08e&#45;26 mol/s &#160;&#160;&#160;9.48E&#45;01</text>
</g>
<!-- R243 -->
<g id="node9" class="node">
<title>R243</title>
<g id="a_node9"><a xlink:href="243.svg" xlink:title="R243">
<polygon fill="cornsilk" stroke="none" points="1306,-89.69 1212,-89.69 1212,-42.69 1306,-42.69 1306,-89.69"/>
<text text-anchor="middle" x="1259" y="-57.69" font-family="Times New Roman,serif" font-size="35.00">R243</text>
</a>
</g>
</g>
<!-- R282&#45;&gt;R243 -->
<g id="edge8" class="edge">
<title>R282&#45;&gt;R243</title>
<path fill="none" stroke="black" d="M663.48,-154.98C672.32,-136.63 687.41,-112.17 709,-100.19 754.86,-74.74 1113.03,-76.5 1201.3,-72.07"/>
<polygon fill="black" stroke="black" points="1201.34,-75.51 1211.1,-71.38 1200.9,-68.52 1201.34,-75.51"/>
<text text-anchor="middle" x="956" y="-109.19" font-family="Times New Roman,serif" font-size="30.00"> &#160;&#160;713 &#160;&#160;0% &#160;&#160;4.75e&#45;23 mol/s &#160;&#160;&#160;4.63E&#45;04</text>
</g>
<!-- R282&#45;&gt;R243 -->
<g id="edge9" class="edge">
<title>R282&#45;&gt;R243</title>
<path fill="none" stroke="black" d="M655.26,-154.76C658.44,-121.65 669.64,-62.23 709,-35.19 799.49,26.95 1096.82,-7.33 1203,-35.19 1206.18,-36.03 1209.38,-37.1 1212.54,-38.33"/>
<polygon fill="black" stroke="black" points="1210.88,-41.87 1221.44,-42.74 1213.73,-35.47 1210.88,-41.87"/>
<text text-anchor="middle" x="956" y="-44.19" font-family="Times New Roman,serif" font-size="30.00"> &#160;&#160;765 &#160;&#160;0% &#160;&#160;2.2e&#45;26 mol/s &#160;&#160;&#160;1.00E+00</text>
</g>
<!-- R27 -->
<g id="node2" class="node">
<title>R27</title>
<g id="a_node2"><a xlink:href="27.svg" xlink:title="R27">
<polygon fill="cornsilk" stroke="none" points="85,-299.69 9,-299.69 9,-252.69 85,-252.69 85,-299.69"/>
<text text-anchor="middle" x="47" y="-267.69" font-family="Times New Roman,serif" font-size="35.00">R27</text>
</a>
</g>
</g>
<!-- R27&#45;&gt;R282 -->
<g id="edge1" class="edge">
<title>R27&#45;&gt;R282</title>
<path fill="none" stroke="black" stroke-width="3" d="M84.67,-284.15C176.94,-302.18 423.7,-337.95 597,-248.19 612.99,-239.91 625.81,-224.68 635.04,-210.53"/>
<polygon fill="black" stroke="black" stroke-width="3" points="636.35,-214.83 638.59,-204.47 630.38,-211.17 636.35,-214.83"/>
<text text-anchor="middle" x="350" y="-315.19" font-family="Times New Roman,serif" font-size="30.00"> &#160;&#160;383 &#160;&#160;50% &#160;&#160;2.18e&#45;15 mol/s &#160;&#160;&#160;1.00E+00</text>
</g>
<!-- R14 -->
<g id="node3" class="node">
<title>R14</title>
<g id="a_node3"><a xlink:href="14.svg" xlink:title="R14">
<polygon fill="cornsilk" stroke="none" points="85,-234.69 9,-234.69 9,-187.69 85,-187.69 85,-234.69"/>
<text text-anchor="middle" x="47" y="-202.69" font-family="Times New Roman,serif" font-size="35.00">R14</text>
</a>
</g>
</g>
<!-- R14&#45;&gt;R282 -->
<g id="edge2" class="edge">
<title>R14&#45;&gt;R282</title>
<path fill="none" stroke="black" stroke-width="3" d="M84.78,-211.71C171.72,-212.51 396.87,-212.09 595.25,-189.21"/>
<polygon fill="black" stroke="black" stroke-width="3" points="592.65,-192.57 602.17,-187.92 591.83,-185.61 592.65,-192.57"/>
<text text-anchor="middle" x="350" y="-220.19" font-family="Times New Roman,serif" font-size="30.00"> &#160;&#160;383 &#160;&#160;50% &#160;&#160;2.18e&#45;15 mol/s &#160;&#160;&#160;1.00E+00</text>
</g>
<!-- R0 -->
<g id="node4" class="node">
<title>R0</title>
<g id="a_node4"><a xlink:href="0.svg" xlink:title="R0">
<polygon fill="cornsilk" stroke="none" points="76,-169.69 18,-169.69 18,-122.69 76,-122.69 76,-169.69"/>
<text text-anchor="middle" x="47" y="-137.69" font-family="Times New Roman,serif" font-size="35.00">R0</text>
</a>
</g>
</g>
<!-- R0&#45;&gt;R282 -->
<g id="edge3" class="edge">
<title>R0&#45;&gt;R282</title>
<path fill="none" stroke="black" stroke-width="3" d="M75.8,-143.21C155.66,-135.35 392.49,-117.18 595.6,-156.36"/>
<polygon fill="black" stroke="black" stroke-width="3" points="591.67,-159.95 602.16,-158.46 593.03,-153.08 591.67,-159.95"/>
<text text-anchor="middle" x="350" y="-165.19" font-family="Times New Roman,serif" font-size="30.00"> &#160;&#160;525 &#160;&#160;50% &#160;&#160;2.18e&#45;15 mol/s &#160;&#160;&#160;1.00E+00</text>
</g>
<!-- R248 -->
<g id="node5" class="node">
<title>R248</title>
<g id="a_node5"><a xlink:href="248.svg" xlink:title="R248">
<polygon fill="cornsilk" stroke="none" points="94,-104.69 0,-104.69 0,-57.69 94,-57.69 94,-104.69"/>
<text text-anchor="middle" x="47" y="-72.69" font-family="Times New Roman,serif" font-size="35.00">R248</text>
</a>
</g>
</g>
<!-- R248&#45;&gt;R282 -->
<g id="edge4" class="edge">
<title>R248&#45;&gt;R282</title>
<path fill="none" stroke="black" stroke-width="3" d="M93.99,-68.86C193.22,-44.96 431.8,-2.36 597,-94.19 616.8,-105.2 630.67,-126.67 639.53,-145.15"/>
<polygon fill="black" stroke="black" stroke-width="3" points="635.66,-143.33 642.94,-151.03 642.05,-140.47 635.66,-143.33"/>
<text text-anchor="middle" x="350" y="-103.19" font-family="Times New Roman,serif" font-size="30.00"> &#160;&#160;525 &#160;&#160;50% &#160;&#160;2.18e&#45;15 mol/s &#160;&#160;&#160;1.00E+00</text>
</g>
</g>
</svg>
