<?xml version="1.0" encoding="UTF-8" standalone="no"?>
<!DOCTYPE svg PUBLIC "-//W3C//DTD SVG 1.1//EN"
 "http://www.w3.org/Graphics/SVG/1.1/DTD/svg11.dtd">
<!-- Generated by graphviz version 8.0.3 (20230416.2022)
 -->
<!-- Title: G Pages: 1 -->
<svg width="610pt" height="385pt"
 viewBox="0.00 0.00 686.00 432.80" xmlns="http://www.w3.org/2000/svg" xmlns:xlink="http://www.w3.org/1999/xlink">
<g id="graph0" class="graph" transform="scale(0.888889 0.888889) rotate(0) translate(4 428.8)">
<title>G</title>
<polygon fill="white" stroke="none" points="-4,4 -4,-428.8 682,-428.8 682,4 -4,4"/>
<text text-anchor="middle" x="339" y="-392" font-family="Arial" font-size="36.00" fill="blue">Reaction Path Analysis</text>
<!-- R284 -->
<g id="node1" class="node">
<title>R284</title>
<g id="a_node1"><a xlink:href="284.svg" xlink:title="R284">
<polygon fill="cornsilk" stroke="none" points="678,-201.3 584,-201.3 584,-154.3 678,-154.3 678,-201.3"/>
<text text-anchor="middle" x="631" y="-169.3" font-family="Times New Roman,serif" font-size="35.00">R284</text>
</a>
</g>
</g>
<!-- R14 -->
<g id="node2" class="node">
<title>R14</title>
<g id="a_node2"><a xlink:href="14.svg" xlink:title="R14">
<polygon fill="cornsilk" stroke="none" points="85,-331.3 9,-331.3 9,-284.3 85,-284.3 85,-331.3"/>
<text text-anchor="middle" x="47" y="-299.3" font-family="Times New Roman,serif" font-size="35.00">R14</text>
</a>
</g>
</g>
<!-- R14&#45;&gt;R284 -->
<g id="edge1" class="edge">
<title>R14&#45;&gt;R284</title>
<path fill="none" stroke="black" stroke-width="3" d="M84.87,-317.32C176.26,-338.65 417.23,-380.99 575,-280.8 599.34,-265.35 613.61,-235.28 621.49,-211.6"/>
<polygon fill="black" stroke="black" stroke-width="3" points="624.08,-215.83 623.67,-205.25 617.39,-213.78 624.08,-215.83"/>
<text text-anchor="middle" x="339" y="-352.8" font-family="Times New Roman,serif" font-size="30.00"> &#160;&#160;385 &#160;&#160;48% &#160;&#160;0.0342 mol/s &#160;&#160;&#160;1.00E+00</text>
</g>
<!-- R28 -->
<g id="node3" class="node">
<title>R28</title>
<g id="a_node3"><a xlink:href="28.svg" xlink:title="R28">
<polygon fill="cornsilk" stroke="none" points="85,-266.3 9,-266.3 9,-219.3 85,-219.3 85,-266.3"/>
<text text-anchor="middle" x="47" y="-234.3" font-family="Times New Roman,serif" font-size="35.00">R28</text>
</a>
</g>
</g>
<!-- R28&#45;&gt;R284 -->
<g id="edge2" class="edge">
<title>R28&#45;&gt;R284</title>
<path fill="none" stroke="black" stroke-width="3" d="M84.84,-243.38C189,-244.61 483.98,-245.23 575,-214.8 580.94,-212.82 586.85,-210 592.46,-206.8"/>
<polygon fill="black" stroke="black" stroke-width="3" points="591.94,-211.38 598.58,-203.12 588.24,-205.43 591.94,-211.38"/>
<text text-anchor="middle" x="339" y="-252.8" font-family="Times New Roman,serif" font-size="30.00"> &#160;&#160;385 &#160;&#160;48% &#160;&#160;0.0342 mol/s &#160;&#160;&#160;1.00E+00</text>
</g>
<!-- R0 -->
<g id="node4" class="node">
<title>R0</title>
<g id="a_node4"><a xlink:href="0.svg" xlink:title="R0">
<polygon fill="cornsilk" stroke="none" points="76,-201.3 18,-201.3 18,-154.3 76,-154.3 76,-201.3"/>
<text text-anchor="middle" x="47" y="-169.3" font-family="Times New Roman,serif" font-size="35.00">R0</text>
</a>
</g>
</g>
<!-- R0&#45;&gt;R284 -->
<g id="edge3" class="edge">
<title>R0&#45;&gt;R284</title>
<path fill="none" stroke="black" stroke-width="3" d="M75.68,-177.8C165.61,-177.8 450.78,-177.8 573.23,-177.8"/>
<polygon fill="black" stroke="black" stroke-width="3" points="570.22,-181.3 580.22,-177.8 570.22,-174.3 570.22,-181.3"/>
<text text-anchor="middle" x="339" y="-186.8" font-family="Times New Roman,serif" font-size="30.00"> &#160;&#160;512 &#160;&#160;48% &#160;&#160;0.0342 mol/s &#160;&#160;&#160;1.00E+00</text>
</g>
<!-- R170 -->
<g id="node5" class="node">
<title>R170</title>
<g id="a_node5"><a xlink:href="170.svg" xlink:title="R170">
<polygon fill="cornsilk" stroke="none" points="94,-136.3 0,-136.3 0,-89.3 94,-89.3 94,-136.3"/>
<text text-anchor="middle" x="47" y="-104.3" font-family="Times New Roman,serif" font-size="35.00">R170</text>
</a>
</g>
</g>
<!-- R170&#45;&gt;R284 -->
<g id="edge4" class="edge">
<title>R170&#45;&gt;R284</title>
<path fill="none" stroke="black" stroke-width="3" d="M93.92,-107.24C187.36,-97.63 405.12,-84.01 575,-140.8 580.94,-142.79 586.85,-145.61 592.46,-148.81"/>
<polygon fill="black" stroke="black" stroke-width="3" points="588.24,-150.17 598.58,-152.48 591.94,-144.23 588.24,-150.17"/>
<text text-anchor="middle" x="339" y="-149.8" font-family="Times New Roman,serif" font-size="30.00"> &#160;&#160;512 &#160;&#160;48% &#160;&#160;0.0342 mol/s &#160;&#160;&#160;1.00E+00</text>
</g>
<!-- R287 -->
<g id="node6" class="node">
<title>R287</title>
<g id="a_node6"><a xlink:href="287.svg" xlink:title="R287">
<polygon fill="cornsilk" stroke="none" points="94,-71.3 0,-71.3 0,-24.3 94,-24.3 94,-71.3"/>
<text text-anchor="middle" x="47" y="-39.3" font-family="Times New Roman,serif" font-size="35.00">R287</text>
</a>
</g>
</g>
<!-- R287&#45;&gt;R284 -->
<g id="edge5" class="edge">
<title>R287&#45;&gt;R284</title>
<path fill="none" stroke="black" d="M93.89,-34.16C191.56,-8.05 423.42,38.08 575,-60.8 603.38,-79.32 617.41,-116.68 624.15,-144.23"/>
<polygon fill="black" stroke="black" points="620.88,-144.61 626.47,-153.61 627.71,-143.09 620.88,-144.61"/>
<text text-anchor="middle" x="339" y="-69.8" font-family="Times New Roman,serif" font-size="30.00"> &#160;&#160;770 &#160;&#160;3% &#160;&#160;0.00272 mol/s &#160;&#160;&#160;1.00E+00</text>
</g>
</g>
</svg>
