<?xml version="1.0" encoding="UTF-8" standalone="no"?>
<!DOCTYPE svg PUBLIC "-//W3C//DTD SVG 1.1//EN"
 "http://www.w3.org/Graphics/SVG/1.1/DTD/svg11.dtd">
<!-- Generated by graphviz version 8.0.3 (20230416.2022)
 -->
<!-- Title: G Pages: 1 -->
<svg width="640pt" height="241pt"
 viewBox="0.00 0.00 720.00 271.11" xmlns="http://www.w3.org/2000/svg" xmlns:xlink="http://www.w3.org/1999/xlink">
<g id="graph0" class="graph" transform="scale(0.47619 0.47619) rotate(0) translate(4 502.07)">
<title>G</title>
<polygon fill="white" stroke="none" points="-4,4 -4,-502.07 1340,-502.07 1340,4 -4,4"/>
<text text-anchor="middle" x="668" y="-465.27" font-family="Arial" font-size="36.00" fill="blue">Reaction Path Analysis</text>
<!-- R287 -->
<g id="node1" class="node">
<title>R287</title>
<g id="a_node1"><a xlink:href="287.svg" xlink:title="R287">
<polygon fill="cornsilk" stroke="none" points="715,-234.57 621,-234.57 621,-187.57 715,-187.57 715,-234.57"/>
<text text-anchor="middle" x="668" y="-202.57" font-family="Times New Roman,serif" font-size="35.00">R287</text>
</a>
</g>
</g>
<!-- R284 -->
<g id="node7" class="node">
<title>R284</title>
<g id="a_node7"><a xlink:href="284.svg" xlink:title="R284">
<polygon fill="cornsilk" stroke="none" points="1336,-234.57 1242,-234.57 1242,-187.57 1336,-187.57 1336,-234.57"/>
<text text-anchor="middle" x="1289" y="-202.57" font-family="Times New Roman,serif" font-size="35.00">R284</text>
</a>
</g>
</g>
<!-- R287&#45;&gt;R284 -->
<g id="edge7" class="edge">
<title>R287&#45;&gt;R284</title>
<path fill="none" stroke="black" stroke-width="6" d="M714.77,-211.07C822.93,-211.07 1094.71,-211.07 1221.25,-211.07"/>
<polygon fill="black" stroke="black" stroke-width="6" points="1216.05,-221.57 1236.05,-211.07 1216.05,-200.57 1216.05,-221.57"/>
<text text-anchor="middle" x="978.5" y="-220.07" font-family="Times New Roman,serif" font-size="30.00"> &#160;&#160;770 &#160;&#160;100% &#160;&#160;0.00272 mol/s &#160;&#160;&#160;1.00E+00</text>
</g>
<!-- R29 -->
<g id="node2" class="node">
<title>R29</title>
<g id="a_node2"><a xlink:href="29.svg" xlink:title="R29">
<polygon fill="cornsilk" stroke="none" points="85,-392.57 9,-392.57 9,-345.57 85,-345.57 85,-392.57"/>
<text text-anchor="middle" x="47" y="-360.57" font-family="Times New Roman,serif" font-size="35.00">R29</text>
</a>
</g>
</g>
<!-- R29&#45;&gt;R287 -->
<g id="edge1" class="edge">
<title>R29&#45;&gt;R287</title>
<path fill="none" stroke="black" d="M84.89,-380.07C181.65,-406.52 446.66,-463.3 612,-347.07 644.99,-323.87 658.21,-277.35 663.5,-245.22"/>
<polygon fill="black" stroke="black" points="667.08,-245.92 665.06,-235.52 660.15,-244.91 667.08,-245.92"/>
<text text-anchor="middle" x="357.5" y="-426.07" font-family="Times New Roman,serif" font-size="30.00"> &#160;&#160;389 &#160;&#160;0% &#160;&#160;0.0342 mol/s &#160;&#160;&#160;9.99E&#45;01</text>
</g>
<!-- R14 -->
<g id="node3" class="node">
<title>R14</title>
<g id="a_node3"><a xlink:href="14.svg" xlink:title="R14">
<polygon fill="cornsilk" stroke="none" points="85,-327.57 9,-327.57 9,-280.57 85,-280.57 85,-327.57"/>
<text text-anchor="middle" x="47" y="-295.57" font-family="Times New Roman,serif" font-size="35.00">R14</text>
</a>
</g>
</g>
<!-- R14&#45;&gt;R287 -->
<g id="edge2" class="edge">
<title>R14&#45;&gt;R287</title>
<path fill="none" stroke="black" d="M84.76,-305.88C194.68,-310.74 518.92,-320.74 612,-275.07 626.39,-268 638.53,-255.28 647.71,-243.03"/>
<polygon fill="black" stroke="black" points="650.98,-245.48 653.87,-235.28 645.25,-241.45 650.98,-245.48"/>
<text text-anchor="middle" x="357.5" y="-319.07" font-family="Times New Roman,serif" font-size="30.00"> &#160;&#160;389 &#160;&#160;0% &#160;&#160;0.0342 mol/s &#160;&#160;&#160;9.99E&#45;01</text>
</g>
<!-- R0 -->
<g id="node4" class="node">
<title>R0</title>
<g id="a_node4"><a xlink:href="0.svg" xlink:title="R0">
<polygon fill="cornsilk" stroke="none" points="76,-262.57 18,-262.57 18,-215.57 76,-215.57 76,-262.57"/>
<text text-anchor="middle" x="47" y="-230.57" font-family="Times New Roman,serif" font-size="35.00">R0</text>
</a>
</g>
</g>
<!-- R0&#45;&gt;R287 -->
<g id="edge3" class="edge">
<title>R0&#45;&gt;R287</title>
<path fill="none" stroke="black" d="M75.91,-238.67C156.77,-237.36 398.33,-232.43 610.39,-217.1"/>
<polygon fill="black" stroke="black" points="610.39,-220.54 620.11,-216.31 609.88,-213.55 610.39,-220.54"/>
<text text-anchor="middle" x="357.5" y="-247.07" font-family="Times New Roman,serif" font-size="30.00"> &#160;&#160;529 &#160;&#160;0% &#160;&#160;0.0342 mol/s &#160;&#160;&#160;1.00E+00</text>
</g>
<!-- R251 -->
<g id="node5" class="node">
<title>R251</title>
<g id="a_node5"><a xlink:href="251.svg" xlink:title="R251">
<polygon fill="cornsilk" stroke="none" points="94,-197.57 0,-197.57 0,-150.57 94,-150.57 94,-197.57"/>
<text text-anchor="middle" x="47" y="-165.57" font-family="Times New Roman,serif" font-size="35.00">R251</text>
</a>
</g>
</g>
<!-- R251&#45;&gt;R287 -->
<g id="edge4" class="edge">
<title>R251&#45;&gt;R287</title>
<path fill="none" stroke="black" d="M93.84,-171.63C210.23,-165.92 514.82,-154.01 612,-180.07 615.18,-180.92 618.37,-182 621.52,-183.24"/>
<polygon fill="black" stroke="black" points="619.87,-186.78 630.42,-187.67 622.73,-180.39 619.87,-186.78"/>
<text text-anchor="middle" x="357.5" y="-189.07" font-family="Times New Roman,serif" font-size="30.00"> &#160;&#160;529 &#160;&#160;0% &#160;&#160;0.0342 mol/s &#160;&#160;&#160;1.00E+00</text>
</g>
<!-- R260 -->
<g id="node6" class="node">
<title>R260</title>
<g id="a_node6"><a xlink:href="260.svg" xlink:title="R260">
<polygon fill="cornsilk" stroke="none" points="94,-113.57 0,-113.57 0,-66.57 94,-66.57 94,-113.57"/>
<text text-anchor="middle" x="47" y="-81.57" font-family="Times New Roman,serif" font-size="35.00">R260</text>
</a>
</g>
</g>
<!-- R260&#45;&gt;R287 -->
<g id="edge5" class="edge">
<title>R260&#45;&gt;R287</title>
<path fill="none" stroke="black" d="M93.75,-103.37C96.86,-104.02 99.97,-104.6 103,-105.07 158.94,-113.73 562.85,-98 612,-126.07 631.83,-137.39 645.7,-159.12 654.55,-177.77"/>
<polygon fill="black" stroke="black" points="651.71,-179 658.96,-186.73 658.11,-176.17 651.71,-179"/>
<text text-anchor="middle" x="357.5" y="-135.07" font-family="Times New Roman,serif" font-size="30.00"> &#160;&#160;739 &#160;&#160;0% &#160;&#160;0.00272 mol/s &#160;&#160;&#160;1.00E+00</text>
</g>
<!-- R260&#45;&gt;R287 -->
<g id="edge6" class="edge">
<title>R260&#45;&gt;R287</title>
<path fill="none" stroke="black" stroke-width="5" d="M93.83,-70.27C96.9,-69.4 99.97,-68.65 103,-68.07 325.14,-25.29 425.52,60.01 612,-68.07 644.13,-90.13 657.5,-133.8 663.06,-167.1"/>
<polygon fill="black" stroke="black" stroke-width="5" points="654.47,-162.94 665.74,-181.63 671.82,-160.66 654.47,-162.94"/>
<text text-anchor="middle" x="357.5" y="-77.07" font-family="Times New Roman,serif" font-size="30.00"> &#160;&#160;769 &#160;&#160;99% &#160;&#160;1200000.0 mol/s &#160;&#160;&#160;2.27E&#45;09</text>
</g>
</g>
</svg>
