<?xml version="1.0" encoding="UTF-8" standalone="no"?>
<!DOCTYPE svg PUBLIC "-//W3C//DTD SVG 1.1//EN"
 "http://www.w3.org/Graphics/SVG/1.1/DTD/svg11.dtd">
<!-- Generated by graphviz version 8.0.3 (20230416.2022)
 -->
<!-- Title: G Pages: 1 -->
<svg width="628pt" height="158pt"
 viewBox="0.00 0.00 707.00 177.50" xmlns="http://www.w3.org/2000/svg" xmlns:xlink="http://www.w3.org/1999/xlink">
<g id="graph0" class="graph" transform="scale(0.888889 0.888889) rotate(0) translate(4 173.5)">
<title>G</title>
<polygon fill="white" stroke="none" points="-4,4 -4,-173.5 703,-173.5 703,4 -4,4"/>
<text text-anchor="middle" x="349.5" y="-136.7" font-family="Arial" font-size="36.00" fill="blue">Reaction Path Analysis</text>
<!-- R289 -->
<g id="node1" class="node">
<title>R289</title>
<g id="a_node1"><a xlink:href="289.svg" xlink:title="R289">
<polygon fill="cornsilk" stroke="none" points="699,-79 605,-79 605,-32 699,-32 699,-79"/>
<text text-anchor="middle" x="652" y="-47" font-family="Times New Roman,serif" font-size="35.00">R289</text>
</a>
</g>
</g>
<!-- R14 -->
<g id="node2" class="node">
<title>R14</title>
<g id="a_node2"><a xlink:href="14.svg" xlink:title="R14">
<polygon fill="cornsilk" stroke="none" points="76,-112 0,-112 0,-65 76,-65 76,-112"/>
<text text-anchor="middle" x="38" y="-80" font-family="Times New Roman,serif" font-size="35.00">R14</text>
</a>
</g>
</g>
<!-- R14&#45;&gt;R289 -->
<g id="edge1" class="edge">
<title>R14&#45;&gt;R289</title>
<path fill="none" stroke="black" stroke-width="6" d="M75.98,-89.05C162.55,-89.91 385.45,-89.7 584.45,-67.62"/>
<polygon fill="black" stroke="black" stroke-width="6" points="580.51,-77.95 599.17,-65.23 578.1,-57.09 580.51,-77.95"/>
<text text-anchor="middle" x="345" y="-97.5" font-family="Times New Roman,serif" font-size="30.00"> &#160;&#160;391 &#160;&#160;100% &#160;&#160;4.66e&#45;08 mol/s &#160;&#160;&#160;9.99E&#45;01</text>
</g>
<!-- R30 -->
<g id="node3" class="node">
<title>R30</title>
<g id="a_node3"><a xlink:href="30.svg" xlink:title="R30">
<polygon fill="cornsilk" stroke="none" points="76,-47 0,-47 0,0 76,0 76,-47"/>
<text text-anchor="middle" x="38" y="-15" font-family="Times New Roman,serif" font-size="35.00">R30</text>
</a>
</g>
</g>
<!-- R30&#45;&gt;R289 -->
<g id="edge2" class="edge">
<title>R30&#45;&gt;R289</title>
<path fill="none" stroke="black" stroke-width="6" d="M75.99,-19.61C163.04,-11.41 387.71,4.26 584.67,-31.8"/>
<polygon fill="black" stroke="black" stroke-width="6" points="577.53,-41.28 599.16,-34.76 581.52,-20.66 577.53,-41.28"/>
<text text-anchor="middle" x="345" y="-42.5" font-family="Times New Roman,serif" font-size="30.00"> &#160;&#160;391 &#160;&#160;100% &#160;&#160;4.66e&#45;08 mol/s &#160;&#160;&#160;9.99E&#45;01</text>
</g>
</g>
</svg>
