<?xml version="1.0" encoding="UTF-8" standalone="no"?>
<!DOCTYPE svg PUBLIC "-//W3C//DTD SVG 1.1//EN"
 "http://www.w3.org/Graphics/SVG/1.1/DTD/svg11.dtd">
<!-- Generated by graphviz version 8.0.3 (20230416.2022)
 -->
<!-- Title: G Pages: 1 -->
<svg width="640pt" height="253pt"
 viewBox="0.00 0.00 720.00 284.23" xmlns="http://www.w3.org/2000/svg" xmlns:xlink="http://www.w3.org/1999/xlink">
<g id="graph0" class="graph" transform="scale(0.503937 0.503937) rotate(0) translate(4 497.35)">
<title>G</title>
<polygon fill="white" stroke="none" points="-4,4 -4,-497.35 1266,-497.35 1266,4 -4,4"/>
<text text-anchor="middle" x="631" y="-460.55" font-family="Arial" font-size="36.00" fill="blue">Reaction Path Analysis</text>
<!-- R29 -->
<g id="node1" class="node">
<title>R29</title>
<g id="a_node1"><a xlink:href="29.svg" xlink:title="R29">
<polygon fill="cornsilk" stroke="none" points="669,-232.85 593,-232.85 593,-185.85 669,-185.85 669,-232.85"/>
<text text-anchor="middle" x="631" y="-200.85" font-family="Times New Roman,serif" font-size="35.00">R29</text>
</a>
</g>
</g>
<!-- R124 -->
<g id="node6" class="node">
<title>R124</title>
<g id="a_node6"><a xlink:href="124.svg" xlink:title="R124">
<polygon fill="cornsilk" stroke="none" points="1262,-362.85 1168,-362.85 1168,-315.85 1262,-315.85 1262,-362.85"/>
<text text-anchor="middle" x="1215" y="-330.85" font-family="Times New Roman,serif" font-size="35.00">R124</text>
</a>
</g>
</g>
<!-- R29&#45;&gt;R124 -->
<g id="edge5" class="edge">
<title>R29&#45;&gt;R124</title>
<path fill="none" stroke="black" stroke-width="2" d="M637.33,-232.79C644.26,-257.27 658.93,-294.53 687,-312.35 834.56,-406.05 1054.9,-375.08 1157.57,-353.22"/>
<polygon fill="black" stroke="black" stroke-width="2" points="1157.29,-356.43 1166.32,-350.88 1155.8,-349.59 1157.29,-356.43"/>
<text text-anchor="middle" x="923" y="-384.35" font-family="Times New Roman,serif" font-size="30.00"> &#160;&#160;175 &#160;&#160;25% &#160;&#160;0.0339 mol/s &#160;&#160;&#160;9.93E&#45;01</text>
</g>
<!-- R222 -->
<g id="node8" class="node">
<title>R222</title>
<g id="a_node8"><a xlink:href="222.svg" xlink:title="R222">
<polygon fill="cornsilk" stroke="none" points="1262,-297.85 1168,-297.85 1168,-250.85 1262,-250.85 1262,-297.85"/>
<text text-anchor="middle" x="1215" y="-265.85" font-family="Times New Roman,serif" font-size="35.00">R222</text>
</a>
</g>
</g>
<!-- R29&#45;&gt;R222 -->
<g id="edge7" class="edge">
<title>R29&#45;&gt;R222</title>
<path fill="none" stroke="black" stroke-width="2" d="M660.42,-232.67C668.54,-238.13 677.72,-243.25 687,-246.35 772.76,-275.02 1039.56,-276.13 1157.25,-275.13"/>
<polygon fill="black" stroke="black" stroke-width="2" points="1155.2,-278.62 1165.16,-275.03 1155.13,-271.62 1155.2,-278.62"/>
<text text-anchor="middle" x="923" y="-284.35" font-family="Times New Roman,serif" font-size="30.00"> &#160;&#160;289 &#160;&#160;25% &#160;&#160;0.0342 mol/s &#160;&#160;&#160;1.00E+00</text>
</g>
<!-- R287 -->
<g id="node10" class="node">
<title>R287</title>
<g id="a_node10"><a xlink:href="287.svg" xlink:title="R287">
<polygon fill="cornsilk" stroke="none" points="1262,-232.85 1168,-232.85 1168,-185.85 1262,-185.85 1262,-232.85"/>
<text text-anchor="middle" x="1215" y="-200.85" font-family="Times New Roman,serif" font-size="35.00">R287</text>
</a>
</g>
</g>
<!-- R29&#45;&gt;R287 -->
<g id="edge9" class="edge">
<title>R29&#45;&gt;R287</title>
<path fill="none" stroke="black" stroke-width="2" d="M668.85,-209.35C767.61,-209.35 1038.77,-209.35 1157.3,-209.35"/>
<polygon fill="black" stroke="black" stroke-width="2" points="1155.28,-212.85 1165.28,-209.35 1155.28,-205.85 1155.28,-212.85"/>
<text text-anchor="middle" x="923" y="-218.35" font-family="Times New Roman,serif" font-size="30.00"> &#160;&#160;389 &#160;&#160;25% &#160;&#160;0.0342 mol/s &#160;&#160;&#160;9.99E&#45;01</text>
</g>
<!-- R288 -->
<g id="node11" class="node">
<title>R288</title>
<g id="a_node11"><a xlink:href="288.svg" xlink:title="R288">
<polygon fill="cornsilk" stroke="none" points="1262,-167.85 1168,-167.85 1168,-120.85 1262,-120.85 1262,-167.85"/>
<text text-anchor="middle" x="1215" y="-135.85" font-family="Times New Roman,serif" font-size="35.00">R288</text>
</a>
</g>
</g>
<!-- R29&#45;&gt;R288 -->
<g id="edge10" class="edge">
<title>R29&#45;&gt;R288</title>
<path fill="none" stroke="black" stroke-width="2" d="M660.42,-186.03C668.54,-180.57 677.72,-175.45 687,-172.35 850.58,-117.67 1058.54,-128.26 1157.17,-137.7"/>
<polygon fill="black" stroke="black" stroke-width="2" points="1154.78,-141.28 1165.08,-138.79 1155.47,-134.32 1154.78,-141.28"/>
<text text-anchor="middle" x="923" y="-181.35" font-family="Times New Roman,serif" font-size="30.00"> &#160;&#160;390 &#160;&#160;23% &#160;&#160;0.0311 mol/s &#160;&#160;&#160;9.16E&#45;01</text>
</g>
<!-- R30 -->
<g id="node12" class="node">
<title>R30</title>
<g id="a_node12"><a xlink:href="30.svg" xlink:title="R30">
<polygon fill="cornsilk" stroke="none" points="1253,-102.85 1177,-102.85 1177,-55.85 1253,-55.85 1253,-102.85"/>
<text text-anchor="middle" x="1215" y="-70.85" font-family="Times New Roman,serif" font-size="35.00">R30</text>
</a>
</g>
</g>
<!-- R29&#45;&gt;R30 -->
<g id="edge11" class="edge">
<title>R29&#45;&gt;R30</title>
<path fill="none" stroke="black" d="M635.53,-186.16C641.11,-158.48 654.85,-113.32 687,-92.35 837.91,6.09 1068.38,-39.19 1166.79,-65.36"/>
<polygon fill="black" stroke="black" points="1165.73,-68.96 1176.29,-68.21 1167.56,-62.21 1165.73,-68.96"/>
<text text-anchor="middle" x="923" y="-101.35" font-family="Times New Roman,serif" font-size="30.00"> &#160;&#160;435 &#160;&#160;0% &#160;&#160;0.00121 mol/s &#160;&#160;&#160;4.09E&#45;01</text>
</g>
<!-- R1 -->
<g id="node2" class="node">
<title>R1</title>
<g id="a_node2"><a xlink:href="1.svg" xlink:title="R1">
<polygon fill="cornsilk" stroke="none" points="76,-395.85 18,-395.85 18,-348.85 76,-348.85 76,-395.85"/>
<text text-anchor="middle" x="47" y="-363.85" font-family="Times New Roman,serif" font-size="35.00">R1</text>
</a>
</g>
</g>
<!-- R1&#45;&gt;R29 -->
<g id="edge1" class="edge">
<title>R1&#45;&gt;R29</title>
<path fill="none" stroke="black" d="M75.91,-380.32C159.2,-402.32 409.97,-455.48 567.5,-348.35 602.49,-324.56 618.15,-276.25 624.98,-243.34"/>
<polygon fill="black" stroke="black" points="628.55,-244.3 626.98,-233.82 621.67,-243 628.55,-244.3"/>
<text text-anchor="middle" x="339" y="-421.35" font-family="Times New Roman,serif" font-size="30.00"> &#160;&#160;34 &#160;&#160;1% &#160;&#160;0.0342 mol/s &#160;&#160;&#160;1.00E+00</text>
</g>
<!-- R14 -->
<g id="node3" class="node">
<title>R14</title>
<g id="a_node3"><a xlink:href="14.svg" xlink:title="R14">
<polygon fill="cornsilk" stroke="none" points="85,-330.85 9,-330.85 9,-283.85 85,-283.85 85,-330.85"/>
<text text-anchor="middle" x="47" y="-298.85" font-family="Times New Roman,serif" font-size="35.00">R14</text>
</a>
</g>
</g>
<!-- R14&#45;&gt;R29 -->
<g id="edge2" class="edge">
<title>R14&#45;&gt;R29</title>
<path fill="none" stroke="black" d="M84.74,-308.86C188.56,-312.58 482.1,-319.11 567.5,-278.35 584.53,-270.22 599.03,-255.15 609.76,-241.17"/>
<polygon fill="black" stroke="black" points="612.89,-243.82 615.95,-233.67 607.23,-239.7 612.89,-243.82"/>
<text text-anchor="middle" x="339" y="-320.35" font-family="Times New Roman,serif" font-size="30.00"> &#160;&#160;34 &#160;&#160;1% &#160;&#160;0.0342 mol/s &#160;&#160;&#160;1.00E+00</text>
</g>
<!-- R0 -->
<g id="node4" class="node">
<title>R0</title>
<g id="a_node4"><a xlink:href="0.svg" xlink:title="R0">
<polygon fill="cornsilk" stroke="none" points="76,-265.85 18,-265.85 18,-218.85 76,-218.85 76,-265.85"/>
<text text-anchor="middle" x="47" y="-233.85" font-family="Times New Roman,serif" font-size="35.00">R0</text>
</a>
</g>
</g>
<!-- R0&#45;&gt;R29 -->
<g id="edge3" class="edge">
<title>R0&#45;&gt;R29</title>
<path fill="none" stroke="black" d="M75.97,-242.46C154.01,-242.49 380.61,-240.66 567.5,-220.35 572.31,-219.83 577.31,-219.16 582.3,-218.41"/>
<polygon fill="black" stroke="black" points="582.78,-221.72 592.1,-216.68 581.67,-214.81 582.78,-221.72"/>
<text text-anchor="middle" x="339" y="-250.35" font-family="Times New Roman,serif" font-size="30.00"> &#160;&#160;113 &#160;&#160;1% &#160;&#160;0.0342 mol/s &#160;&#160;&#160;1.00E+00</text>
</g>
<!-- R26 -->
<g id="node5" class="node">
<title>R26</title>
<g id="a_node5"><a xlink:href="26.svg" xlink:title="R26">
<polygon fill="cornsilk" stroke="none" points="85,-200.85 9,-200.85 9,-153.85 85,-153.85 85,-200.85"/>
<text text-anchor="middle" x="47" y="-168.85" font-family="Times New Roman,serif" font-size="35.00">R26</text>
</a>
</g>
</g>
<!-- R26&#45;&gt;R29 -->
<g id="edge4" class="edge">
<title>R26&#45;&gt;R29</title>
<path fill="none" stroke="black" d="M84.93,-174.07C170.58,-167.33 389.07,-155.09 567.5,-187.35 572.54,-188.26 577.72,-189.52 582.83,-190.98"/>
<polygon fill="black" stroke="black" points="581.59,-194.57 592.18,-194.21 583.68,-187.89 581.59,-194.57"/>
<text text-anchor="middle" x="339" y="-196.35" font-family="Times New Roman,serif" font-size="30.00"> &#160;&#160;113 &#160;&#160;1% &#160;&#160;0.0342 mol/s &#160;&#160;&#160;1.00E+00</text>
</g>
<!-- R186 -->
<g id="node7" class="node">
<title>R186</title>
<g id="a_node7"><a xlink:href="186.svg" xlink:title="R186">
<polygon fill="cornsilk" stroke="none" points="94,-135.85 0,-135.85 0,-88.85 94,-88.85 94,-135.85"/>
<text text-anchor="middle" x="47" y="-103.85" font-family="Times New Roman,serif" font-size="35.00">R186</text>
</a>
</g>
</g>
<!-- R186&#45;&gt;R29 -->
<g id="edge6" class="edge">
<title>R186&#45;&gt;R29</title>
<path fill="none" stroke="black" d="M93.86,-108.85C205,-101.15 485.63,-86.54 567.5,-128.35 587.79,-138.71 603.43,-159.02 614,-176.71"/>
<polygon fill="black" stroke="black" points="611.38,-178.2 619.34,-185.19 617.48,-174.76 611.38,-178.2"/>
<text text-anchor="middle" x="339" y="-137.35" font-family="Times New Roman,serif" font-size="30.00"> &#160;&#160;246 &#160;&#160;1% &#160;&#160;0.0596 mol/s &#160;&#160;&#160;2.67E&#45;01</text>
</g>
<!-- R251 -->
<g id="node9" class="node">
<title>R251</title>
<g id="a_node9"><a xlink:href="251.svg" xlink:title="R251">
<polygon fill="cornsilk" stroke="none" points="94,-70.85 0,-70.85 0,-23.85 94,-23.85 94,-70.85"/>
<text text-anchor="middle" x="47" y="-38.85" font-family="Times New Roman,serif" font-size="35.00">R251</text>
</a>
</g>
</g>
<!-- R251&#45;&gt;R29 -->
<g id="edge8" class="edge">
<title>R251&#45;&gt;R29</title>
<path fill="none" stroke="black" stroke-width="5" d="M93.93,-33.61C191.03,-7.52 420.31,38.1 567.5,-62.35 601.42,-85.5 617.01,-131.04 624.13,-165.34"/>
<polygon fill="black" stroke="black" stroke-width="5" points="614.65,-161.68 626.69,-179.9 631.9,-158.7 614.65,-161.68"/>
<text text-anchor="middle" x="339" y="-71.35" font-family="Times New Roman,serif" font-size="30.00"> &#160;&#160;340 &#160;&#160;95% &#160;&#160;2.99 mol/s &#160;&#160;&#160;1.12E&#45;02</text>
</g>
</g>
</svg>
