<?xml version="1.0" encoding="UTF-8" standalone="no"?>
<!DOCTYPE svg PUBLIC "-//W3C//DTD SVG 1.1//EN"
 "http://www.w3.org/Graphics/SVG/1.1/DTD/svg11.dtd">
<!-- Generated by graphviz version 8.0.3 (20230416.2022)
 -->
<!-- Title: G Pages: 1 -->
<svg width="640pt" height="255pt"
 viewBox="0.00 0.00 720.00 287.39" xmlns="http://www.w3.org/2000/svg" xmlns:xlink="http://www.w3.org/1999/xlink">
<g id="graph0" class="graph" transform="scale(0.490421 0.490421) rotate(0) translate(4 516.89)">
<title>G</title>
<polygon fill="white" stroke="none" points="-4,4 -4,-516.89 1301,-516.89 1301,4 -4,4"/>
<text text-anchor="middle" x="648.5" y="-480.09" font-family="Arial" font-size="36.00" fill="blue">Reaction Path Analysis</text>
<!-- R29 -->
<g id="node1" class="node">
<title>R29</title>
<g id="a_node1"><a xlink:href="29.svg" xlink:title="R29">
<polygon fill="cornsilk" stroke="none" points="682,-246.39 606,-246.39 606,-199.39 682,-199.39 682,-246.39"/>
<text text-anchor="middle" x="644" y="-214.39" font-family="Times New Roman,serif" font-size="35.00">R29</text>
</a>
</g>
</g>
<!-- R124 -->
<g id="node6" class="node">
<title>R124</title>
<g id="a_node6"><a xlink:href="124.svg" xlink:title="R124">
<polygon fill="cornsilk" stroke="none" points="1297,-441.39 1203,-441.39 1203,-394.39 1297,-394.39 1297,-441.39"/>
<text text-anchor="middle" x="1250" y="-409.39" font-family="Times New Roman,serif" font-size="35.00">R124</text>
</a>
</g>
</g>
<!-- R29&#45;&gt;R124 -->
<g id="edge5" class="edge">
<title>R29&#45;&gt;R124</title>
<path fill="none" stroke="black" d="M644.97,-246.09C646.33,-283.29 654.98,-355.54 700,-389.89 775.86,-447.77 1068.17,-432.31 1192.51,-422.77"/>
<polygon fill="black" stroke="black" points="1192.6,-426.2 1202.3,-421.93 1192.05,-419.22 1192.6,-426.2"/>
<text text-anchor="middle" x="947" y="-440.89" font-family="Times New Roman,serif" font-size="30.00"> &#160;&#160;175 &#160;&#160;16% &#160;&#160;4.67e&#45;08 mol/s &#160;&#160;&#160;1.00E+00</text>
</g>
<!-- R186 -->
<g id="node7" class="node">
<title>R186</title>
<g id="a_node7"><a xlink:href="186.svg" xlink:title="R186">
<polygon fill="cornsilk" stroke="none" points="1297,-376.39 1203,-376.39 1203,-329.39 1297,-329.39 1297,-376.39"/>
<text text-anchor="middle" x="1250" y="-344.39" font-family="Times New Roman,serif" font-size="35.00">R186</text>
</a>
</g>
</g>
<!-- R29&#45;&gt;R186 -->
<g id="edge6" class="edge">
<title>R29&#45;&gt;R186</title>
<path fill="none" stroke="black" d="M650.32,-246.34C657.24,-270.83 671.92,-308.1 700,-325.89 740.82,-351.75 1060.75,-353.59 1192.55,-353.23"/>
<polygon fill="black" stroke="black" points="1192.22,-356.73 1202.2,-353.2 1192.19,-349.73 1192.22,-356.73"/>
<text text-anchor="middle" x="947" y="-361.89" font-family="Times New Roman,serif" font-size="30.00"> &#160;&#160;246 &#160;&#160;16% &#160;&#160;4.67e&#45;08 mol/s &#160;&#160;&#160;1.00E+00</text>
</g>
<!-- R222 -->
<g id="node8" class="node">
<title>R222</title>
<g id="a_node8"><a xlink:href="222.svg" xlink:title="R222">
<polygon fill="cornsilk" stroke="none" points="1297,-311.39 1203,-311.39 1203,-264.39 1297,-264.39 1297,-311.39"/>
<text text-anchor="middle" x="1250" y="-279.39" font-family="Times New Roman,serif" font-size="35.00">R222</text>
</a>
</g>
</g>
<!-- R29&#45;&gt;R222 -->
<g id="edge7" class="edge">
<title>R29&#45;&gt;R222</title>
<path fill="none" stroke="black" d="M673.41,-246.22C681.54,-251.68 690.72,-256.8 700,-259.89 790,-289.87 1071.28,-290.17 1192.49,-288.81"/>
<polygon fill="black" stroke="black" points="1192.41,-292.3 1202.37,-288.68 1192.32,-285.3 1192.41,-292.3"/>
<text text-anchor="middle" x="947" y="-297.89" font-family="Times New Roman,serif" font-size="30.00"> &#160;&#160;289 &#160;&#160;16% &#160;&#160;4.67e&#45;08 mol/s &#160;&#160;&#160;1.00E+00</text>
</g>
<!-- R251 -->
<g id="node9" class="node">
<title>R251</title>
<g id="a_node9"><a xlink:href="251.svg" xlink:title="R251">
<polygon fill="cornsilk" stroke="none" points="1297,-246.39 1203,-246.39 1203,-199.39 1297,-199.39 1297,-246.39"/>
<text text-anchor="middle" x="1250" y="-214.39" font-family="Times New Roman,serif" font-size="35.00">R251</text>
</a>
</g>
</g>
<!-- R29&#45;&gt;R251 -->
<g id="edge8" class="edge">
<title>R29&#45;&gt;R251</title>
<path fill="none" stroke="black" d="M681.87,-222.89C783.83,-222.89 1070.07,-222.89 1192.4,-222.89"/>
<polygon fill="black" stroke="black" points="1192.37,-226.39 1202.37,-222.89 1192.37,-219.39 1192.37,-226.39"/>
<text text-anchor="middle" x="947" y="-231.89" font-family="Times New Roman,serif" font-size="30.00"> &#160;&#160;340 &#160;&#160;16% &#160;&#160;4.67e&#45;08 mol/s &#160;&#160;&#160;1.00E+00</text>
</g>
<!-- R287 -->
<g id="node10" class="node">
<title>R287</title>
<g id="a_node10"><a xlink:href="287.svg" xlink:title="R287">
<polygon fill="cornsilk" stroke="none" points="1297,-181.39 1203,-181.39 1203,-134.39 1297,-134.39 1297,-181.39"/>
<text text-anchor="middle" x="1250" y="-149.39" font-family="Times New Roman,serif" font-size="35.00">R287</text>
</a>
</g>
</g>
<!-- R29&#45;&gt;R287 -->
<g id="edge9" class="edge">
<title>R29&#45;&gt;R287</title>
<path fill="none" stroke="black" d="M673.41,-199.56C681.54,-194.1 690.72,-188.98 700,-185.89 871.88,-128.63 1090.73,-140.89 1192.38,-151.06"/>
<polygon fill="black" stroke="black" points="1191.71,-154.61 1202.02,-152.16 1192.43,-147.65 1191.71,-154.61"/>
<text text-anchor="middle" x="947" y="-194.89" font-family="Times New Roman,serif" font-size="30.00"> &#160;&#160;389 &#160;&#160;16% &#160;&#160;4.67e&#45;08 mol/s &#160;&#160;&#160;1.00E+00</text>
</g>
<!-- R288 -->
<g id="node11" class="node">
<title>R288</title>
<g id="a_node11"><a xlink:href="288.svg" xlink:title="R288">
<polygon fill="cornsilk" stroke="none" points="1297,-116.39 1203,-116.39 1203,-69.39 1297,-69.39 1297,-116.39"/>
<text text-anchor="middle" x="1250" y="-84.39" font-family="Times New Roman,serif" font-size="35.00">R288</text>
</a>
</g>
</g>
<!-- R29&#45;&gt;R288 -->
<g id="edge10" class="edge">
<title>R29&#45;&gt;R288</title>
<path fill="none" stroke="black" d="M648.46,-199.49C653.97,-171.57 667.63,-126.01 700,-104.89 779.73,-52.86 1069.21,-74.71 1192.63,-86.83"/>
<polygon fill="black" stroke="black" points="1192.04,-90.39 1202.34,-87.9 1192.74,-83.42 1192.04,-90.39"/>
<text text-anchor="middle" x="947" y="-113.89" font-family="Times New Roman,serif" font-size="30.00"> &#160;&#160;390 &#160;&#160;16% &#160;&#160;4.67e&#45;08 mol/s &#160;&#160;&#160;1.00E+00</text>
</g>
<!-- R30 -->
<g id="node12" class="node">
<title>R30</title>
<g id="a_node12"><a xlink:href="30.svg" xlink:title="R30">
<polygon fill="cornsilk" stroke="none" points="1288,-51.39 1212,-51.39 1212,-4.39 1288,-4.39 1288,-51.39"/>
<text text-anchor="middle" x="1250" y="-19.39" font-family="Times New Roman,serif" font-size="35.00">R30</text>
</a>
</g>
</g>
<!-- R29&#45;&gt;R30 -->
<g id="edge11" class="edge">
<title>R29&#45;&gt;R30</title>
<path fill="none" stroke="black" d="M648.33,-199.72C655.41,-154.03 673.53,-54.99 700,-34.89 777.77,24.17 1082.72,-6.82 1201.39,-21.55"/>
<polygon fill="black" stroke="black" points="1200.92,-25.15 1211.28,-22.92 1201.79,-18.2 1200.92,-25.15"/>
<text text-anchor="middle" x="947" y="-43.89" font-family="Times New Roman,serif" font-size="30.00"> &#160;&#160;435 &#160;&#160;0% &#160;&#160;6.1e&#45;11 mol/s &#160;&#160;&#160;1.24E&#45;01</text>
</g>
<!-- R1 -->
<g id="node2" class="node">
<title>R1</title>
<g id="a_node2"><a xlink:href="1.svg" xlink:title="R1">
<polygon fill="cornsilk" stroke="none" points="67,-344.39 9,-344.39 9,-297.39 67,-297.39 67,-344.39"/>
<text text-anchor="middle" x="38" y="-312.39" font-family="Times New Roman,serif" font-size="35.00">R1</text>
</a>
</g>
</g>
<!-- R1&#45;&gt;R29 -->
<g id="edge1" class="edge">
<title>R1&#45;&gt;R29</title>
<path fill="none" stroke="black" stroke-width="3" d="M66.75,-327.06C150.96,-344.27 408.77,-385.72 588,-292.89 603.99,-284.61 616.81,-269.37 626.04,-255.22"/>
<polygon fill="black" stroke="black" stroke-width="3" points="627.35,-259.52 629.59,-249.16 621.38,-255.87 627.35,-259.52"/>
<text text-anchor="middle" x="341" y="-359.89" font-family="Times New Roman,serif" font-size="30.00"> &#160;&#160;34 &#160;&#160;50% &#160;&#160;4.67e&#45;08 mol/s &#160;&#160;&#160;1.00E+00</text>
</g>
<!-- R14 -->
<g id="node3" class="node">
<title>R14</title>
<g id="a_node3"><a xlink:href="14.svg" xlink:title="R14">
<polygon fill="cornsilk" stroke="none" points="76,-279.39 0,-279.39 0,-232.39 76,-232.39 76,-279.39"/>
<text text-anchor="middle" x="38" y="-247.39" font-family="Times New Roman,serif" font-size="35.00">R14</text>
</a>
</g>
</g>
<!-- R14&#45;&gt;R29 -->
<g id="edge2" class="edge">
<title>R14&#45;&gt;R29</title>
<path fill="none" stroke="black" stroke-width="3" d="M75.78,-256.41C164.32,-257.22 396.2,-256.77 588,-233.89 590.4,-233.6 592.84,-233.27 595.31,-232.9"/>
<polygon fill="black" stroke="black" stroke-width="3" points="592.86,-236.19 602.15,-231.09 591.71,-229.29 592.86,-236.19"/>
<text text-anchor="middle" x="341" y="-264.89" font-family="Times New Roman,serif" font-size="30.00"> &#160;&#160;34 &#160;&#160;50% &#160;&#160;4.67e&#45;08 mol/s &#160;&#160;&#160;1.00E+00</text>
</g>
<!-- R0 -->
<g id="node4" class="node">
<title>R0</title>
<g id="a_node4"><a xlink:href="0.svg" xlink:title="R0">
<polygon fill="cornsilk" stroke="none" points="67,-214.39 9,-214.39 9,-167.39 67,-167.39 67,-214.39"/>
<text text-anchor="middle" x="38" y="-182.39" font-family="Times New Roman,serif" font-size="35.00">R0</text>
</a>
</g>
</g>
<!-- R0&#45;&gt;R29 -->
<g id="edge3" class="edge">
<title>R0&#45;&gt;R29</title>
<path fill="none" stroke="black" stroke-width="3" d="M66.8,-187.9C148.05,-179.91 391.78,-161.24 588,-200.89 590.65,-201.42 593.33,-202.08 596.01,-202.83"/>
<polygon fill="black" stroke="black" stroke-width="3" points="591.69,-205.4 602.28,-205.1 593.82,-198.73 591.69,-205.4"/>
<text text-anchor="middle" x="341" y="-209.89" font-family="Times New Roman,serif" font-size="30.00"> &#160;&#160;113 &#160;&#160;50% &#160;&#160;4.67e&#45;08 mol/s &#160;&#160;&#160;1.00E+00</text>
</g>
<!-- R26 -->
<g id="node5" class="node">
<title>R26</title>
<g id="a_node5"><a xlink:href="26.svg" xlink:title="R26">
<polygon fill="cornsilk" stroke="none" points="76,-149.39 0,-149.39 0,-102.39 76,-102.39 76,-149.39"/>
<text text-anchor="middle" x="38" y="-117.39" font-family="Times New Roman,serif" font-size="35.00">R26</text>
</a>
</g>
</g>
<!-- R26&#45;&gt;R29 -->
<g id="edge4" class="edge">
<title>R26&#45;&gt;R29</title>
<path fill="none" stroke="black" stroke-width="3" d="M75.69,-115.84C168.5,-92.6 417.38,-44.04 588,-138.89 607.8,-149.89 621.67,-171.37 630.53,-189.85"/>
<polygon fill="black" stroke="black" stroke-width="3" points="626.66,-188.02 633.94,-195.72 633.05,-185.16 626.66,-188.02"/>
<text text-anchor="middle" x="341" y="-147.89" font-family="Times New Roman,serif" font-size="30.00"> &#160;&#160;113 &#160;&#160;50% &#160;&#160;4.67e&#45;08 mol/s &#160;&#160;&#160;1.00E+00</text>
</g>
</g>
</svg>
