<?xml version="1.0" encoding="UTF-8" standalone="no"?>
<!DOCTYPE svg PUBLIC "-//W3C//DTD SVG 1.1//EN"
 "http://www.w3.org/Graphics/SVG/1.1/DTD/svg11.dtd">
<!-- Generated by graphviz version 8.0.3 (20230416.2022)
 -->
<!-- Title: G Pages: 1 -->
<svg width="640pt" height="182pt"
 viewBox="0.00 0.00 720.00 205.13" xmlns="http://www.w3.org/2000/svg" xmlns:xlink="http://www.w3.org/1999/xlink">
<g id="graph0" class="graph" transform="scale(0.503937 0.503937) rotate(0) translate(4 357.82)">
<title>G</title>
<polygon fill="white" stroke="none" points="-4,4 -4,-357.82 1266,-357.82 1266,4 -4,4"/>
<text text-anchor="middle" x="631" y="-321.02" font-family="Arial" font-size="36.00" fill="blue">Reaction Path Analysis</text>
<!-- R290 -->
<g id="node1" class="node">
<title>R290</title>
<g id="a_node1"><a xlink:href="290.svg" xlink:title="R290">
<polygon fill="cornsilk" stroke="none" points="678,-170.32 584,-170.32 584,-123.32 678,-123.32 678,-170.32"/>
<text text-anchor="middle" x="631" y="-138.32" font-family="Times New Roman,serif" font-size="35.00">R290</text>
</a>
</g>
</g>
<!-- R156 -->
<g id="node6" class="node">
<title>R156</title>
<g id="a_node6"><a xlink:href="156.svg" xlink:title="R156">
<polygon fill="cornsilk" stroke="none" points="1262,-214.32 1168,-214.32 1168,-167.32 1262,-167.32 1262,-214.32"/>
<text text-anchor="middle" x="1215" y="-182.32" font-family="Times New Roman,serif" font-size="35.00">R156</text>
</a>
</g>
</g>
<!-- R290&#45;&gt;R156 -->
<g id="edge5" class="edge">
<title>R290&#45;&gt;R156</title>
<path fill="none" stroke="black" stroke-width="5" d="M645.59,-170.26C655.17,-184.3 669.42,-200.92 687,-208.82 872.16,-292.08 946.98,-245.13 1147.58,-210.45"/>
<polygon fill="black" stroke="black" stroke-width="5" points="1143.76,-219.96 1162.05,-208.03 1140.88,-202.69 1143.76,-219.96"/>
<text text-anchor="middle" x="923" y="-263.82" font-family="Times New Roman,serif" font-size="30.00"> &#160;&#160;678 &#160;&#160;98% &#160;&#160;17.4 mol/s &#160;&#160;&#160;1.56E&#45;04</text>
</g>
<!-- R290&#45;&gt;R156 -->
<g id="edge8" class="edge">
<title>R290&#45;&gt;R156</title>
<path fill="none" stroke="black" d="M677.89,-152.07C680.97,-152.35 684.03,-152.6 687,-152.82 788.51,-160.4 1040,-152.85 1157.45,-171.99"/>
<polygon fill="black" stroke="black" points="1156.6,-175.57 1167.05,-173.86 1157.81,-168.67 1156.6,-175.57"/>
<text text-anchor="middle" x="923" y="-180.82" font-family="Times New Roman,serif" font-size="30.00"> &#160;&#160;772 &#160;&#160;0% &#160;&#160;0.00272 mol/s &#160;&#160;&#160;1.00E+00</text>
</g>
<!-- R244 -->
<g id="node7" class="node">
<title>R244</title>
<g id="a_node7"><a xlink:href="244.svg" xlink:title="R244">
<polygon fill="cornsilk" stroke="none" points="1262,-126.32 1168,-126.32 1168,-79.32 1262,-79.32 1262,-126.32"/>
<text text-anchor="middle" x="1215" y="-94.32" font-family="Times New Roman,serif" font-size="35.00">R244</text>
</a>
</g>
</g>
<!-- R290&#45;&gt;R244 -->
<g id="edge6" class="edge">
<title>R290&#45;&gt;R244</title>
<path fill="none" stroke="black" d="M675.81,-123.33C679.53,-121.95 683.28,-120.75 687,-119.82 774.55,-98 1039.78,-99.71 1157.12,-101.65"/>
<polygon fill="black" stroke="black" points="1156.94,-105.16 1167,-101.83 1157.06,-98.16 1156.94,-105.16"/>
<text text-anchor="middle" x="923" y="-128.82" font-family="Times New Roman,serif" font-size="30.00"> &#160;&#160;715 &#160;&#160;1% &#160;&#160;0.288 mol/s &#160;&#160;&#160;9.28E&#45;03</text>
</g>
<!-- R290&#45;&gt;R244 -->
<g id="edge7" class="edge">
<title>R290&#45;&gt;R244</title>
<path fill="none" stroke="black" d="M639.99,-123.52C648.28,-103.39 663.38,-75.59 687,-62.82 871.54,36.93 959.5,2.05 1159,-62.82 1166.33,-65.21 1173.5,-68.98 1180.12,-73.28"/>
<polygon fill="black" stroke="black" points="1177.57,-76.47 1187.76,-79.38 1181.61,-70.75 1177.57,-76.47"/>
<text text-anchor="middle" x="923" y="-71.82" font-family="Times New Roman,serif" font-size="30.00"> &#160;&#160;771 &#160;&#160;0% &#160;&#160;0.00269 mol/s &#160;&#160;&#160;9.91E&#45;01</text>
</g>
<!-- R30 -->
<g id="node2" class="node">
<title>R30</title>
<g id="a_node2"><a xlink:href="30.svg" xlink:title="R30">
<polygon fill="cornsilk" stroke="none" points="85,-268.32 9,-268.32 9,-221.32 85,-221.32 85,-268.32"/>
<text text-anchor="middle" x="47" y="-236.32" font-family="Times New Roman,serif" font-size="35.00">R30</text>
</a>
</g>
</g>
<!-- R30&#45;&gt;R290 -->
<g id="edge1" class="edge">
<title>R30&#45;&gt;R290</title>
<path fill="none" stroke="black" stroke-width="3" d="M84.85,-252.68C174.7,-269.84 409.73,-302.64 575,-216.82 590.98,-208.53 603.8,-193.29 613.03,-179.14"/>
<polygon fill="black" stroke="black" stroke-width="3" points="614.34,-183.44 616.58,-173.09 608.37,-179.79 614.34,-183.44"/>
<text text-anchor="middle" x="339" y="-281.82" font-family="Times New Roman,serif" font-size="30.00"> &#160;&#160;392 &#160;&#160;50% &#160;&#160;0.0342 mol/s &#160;&#160;&#160;1.00E+00</text>
</g>
<!-- R14 -->
<g id="node3" class="node">
<title>R14</title>
<g id="a_node3"><a xlink:href="14.svg" xlink:title="R14">
<polygon fill="cornsilk" stroke="none" points="85,-203.32 9,-203.32 9,-156.32 85,-156.32 85,-203.32"/>
<text text-anchor="middle" x="47" y="-171.32" font-family="Times New Roman,serif" font-size="35.00">R14</text>
</a>
</g>
</g>
<!-- R14&#45;&gt;R290 -->
<g id="edge2" class="edge">
<title>R14&#45;&gt;R290</title>
<path fill="none" stroke="black" stroke-width="3" d="M84.9,-180.25C169.45,-180.81 383.87,-179.84 573.45,-157.82"/>
<polygon fill="black" stroke="black" stroke-width="3" points="570.65,-161.2 580.17,-156.54 569.83,-154.25 570.65,-161.2"/>
<text text-anchor="middle" x="339" y="-188.82" font-family="Times New Roman,serif" font-size="30.00"> &#160;&#160;392 &#160;&#160;50% &#160;&#160;0.0342 mol/s &#160;&#160;&#160;1.00E+00</text>
</g>
<!-- R0 -->
<g id="node4" class="node">
<title>R0</title>
<g id="a_node4"><a xlink:href="0.svg" xlink:title="R0">
<polygon fill="cornsilk" stroke="none" points="76,-138.32 18,-138.32 18,-91.32 76,-91.32 76,-138.32"/>
<text text-anchor="middle" x="47" y="-106.32" font-family="Times New Roman,serif" font-size="35.00">R0</text>
</a>
</g>
</g>
<!-- R0&#45;&gt;R290 -->
<g id="edge3" class="edge">
<title>R0&#45;&gt;R290</title>
<path fill="none" stroke="black" stroke-width="3" d="M75.81,-111.87C153.49,-104.36 379.19,-87.5 573.47,-124.97"/>
<polygon fill="black" stroke="black" stroke-width="3" points="569.67,-128.57 580.16,-127.09 571.03,-121.71 569.67,-128.57"/>
<text text-anchor="middle" x="339" y="-133.82" font-family="Times New Roman,serif" font-size="30.00"> &#160;&#160;531 &#160;&#160;50% &#160;&#160;0.0342 mol/s &#160;&#160;&#160;1.00E+00</text>
</g>
<!-- R253 -->
<g id="node5" class="node">
<title>R253</title>
<g id="a_node5"><a xlink:href="253.svg" xlink:title="R253">
<polygon fill="cornsilk" stroke="none" points="94,-73.32 0,-73.32 0,-26.32 94,-26.32 94,-73.32"/>
<text text-anchor="middle" x="47" y="-41.32" font-family="Times New Roman,serif" font-size="35.00">R253</text>
</a>
</g>
</g>
<!-- R253&#45;&gt;R290 -->
<g id="edge4" class="edge">
<title>R253&#45;&gt;R290</title>
<path fill="none" stroke="black" stroke-width="3" d="M93.94,-37.78C190.23,-15.25 417.3,23.58 575,-63.82 594.43,-74.59 608.21,-95.46 617.12,-113.58"/>
<polygon fill="black" stroke="black" stroke-width="3" points="613.34,-111.92 620.69,-119.55 619.71,-109 613.34,-111.92"/>
<text text-anchor="middle" x="339" y="-72.82" font-family="Times New Roman,serif" font-size="30.00"> &#160;&#160;531 &#160;&#160;50% &#160;&#160;0.0342 mol/s &#160;&#160;&#160;1.00E+00</text>
</g>
</g>
</svg>
