<?xml version="1.0" encoding="UTF-8" standalone="no"?>
<!DOCTYPE svg PUBLIC "-//W3C//DTD SVG 1.1//EN"
 "http://www.w3.org/Graphics/SVG/1.1/DTD/svg11.dtd">
<!-- Generated by graphviz version 8.0.3 (20230416.2022)
 -->
<!-- Title: G Pages: 1 -->
<svg width="603pt" height="447pt"
 viewBox="0.00 0.00 678.00 503.04" xmlns="http://www.w3.org/2000/svg" xmlns:xlink="http://www.w3.org/1999/xlink">
<g id="graph0" class="graph" transform="scale(0.888889 0.888889) rotate(0) translate(4 499.04)">
<title>G</title>
<polygon fill="white" stroke="none" points="-4,4 -4,-499.04 674,-499.04 674,4 -4,4"/>
<text text-anchor="middle" x="335" y="-462.24" font-family="Arial" font-size="36.00" fill="blue">Reaction Path Analysis</text>
<!-- R294 -->
<g id="node1" class="node">
<title>R294</title>
<g id="a_node1"><a xlink:href="294.svg" xlink:title="R294">
<polygon fill="cornsilk" stroke="none" points="670,-226.54 576,-226.54 576,-179.54 670,-179.54 670,-226.54"/>
<text text-anchor="middle" x="623" y="-194.54" font-family="Times New Roman,serif" font-size="35.00">R294</text>
</a>
</g>
</g>
<!-- R42 -->
<g id="node2" class="node">
<title>R42</title>
<g id="a_node2"><a xlink:href="42.svg" xlink:title="R42">
<polygon fill="cornsilk" stroke="none" points="85,-421.54 9,-421.54 9,-374.54 85,-374.54 85,-421.54"/>
<text text-anchor="middle" x="47" y="-389.54" font-family="Times New Roman,serif" font-size="35.00">R42</text>
</a>
</g>
</g>
<!-- R42&#45;&gt;R294 -->
<g id="edge1" class="edge">
<title>R42&#45;&gt;R294</title>
<path fill="none" stroke="black" d="M84.96,-401.73C190.72,-411.51 491.77,-433.55 567,-376.04 609.59,-343.48 619.87,-277.8 621.96,-237.4"/>
<polygon fill="black" stroke="black" points="625.5,-237.59 622.37,-227.47 618.5,-237.34 625.5,-237.59"/>
<text text-anchor="middle" x="335" y="-423.04" font-family="Times New Roman,serif" font-size="30.00"> &#160;&#160;398 &#160;&#160;5% &#160;&#160;0.0342 mol/s &#160;&#160;&#160;1.00E+00</text>
</g>
<!-- R14 -->
<g id="node3" class="node">
<title>R14</title>
<g id="a_node3"><a xlink:href="14.svg" xlink:title="R14">
<polygon fill="cornsilk" stroke="none" points="85,-356.54 9,-356.54 9,-309.54 85,-309.54 85,-356.54"/>
<text text-anchor="middle" x="47" y="-324.54" font-family="Times New Roman,serif" font-size="35.00">R14</text>
</a>
</g>
</g>
<!-- R14&#45;&gt;R294 -->
<g id="edge2" class="edge">
<title>R14&#45;&gt;R294</title>
<path fill="none" stroke="black" d="M84.87,-335.59C189.71,-342.14 487.08,-355.71 567,-305.04 591.16,-289.71 605.45,-259.94 613.38,-236.49"/>
<polygon fill="black" stroke="black" points="616.95,-237.83 616.59,-227.24 610.27,-235.74 616.95,-237.83"/>
<text text-anchor="middle" x="335" y="-351.04" font-family="Times New Roman,serif" font-size="30.00"> &#160;&#160;398 &#160;&#160;5% &#160;&#160;0.0342 mol/s &#160;&#160;&#160;1.00E+00</text>
</g>
<!-- R0 -->
<g id="node4" class="node">
<title>R0</title>
<g id="a_node4"><a xlink:href="0.svg" xlink:title="R0">
<polygon fill="cornsilk" stroke="none" points="76,-291.54 18,-291.54 18,-244.54 76,-244.54 76,-291.54"/>
<text text-anchor="middle" x="47" y="-259.54" font-family="Times New Roman,serif" font-size="35.00">R0</text>
</a>
</g>
</g>
<!-- R0&#45;&gt;R294 -->
<g id="edge3" class="edge">
<title>R0&#45;&gt;R294</title>
<path fill="none" stroke="black" d="M75.94,-268.47C170.05,-269.64 474.8,-270.9 567,-240.04 572.94,-238.05 578.85,-235.23 584.46,-232.03"/>
<polygon fill="black" stroke="black" points="585.94,-234.61 592.58,-226.35 582.24,-228.66 585.94,-234.61"/>
<text text-anchor="middle" x="335" y="-277.04" font-family="Times New Roman,serif" font-size="30.00"> &#160;&#160;535 &#160;&#160;5% &#160;&#160;0.0342 mol/s &#160;&#160;&#160;1.00E+00</text>
</g>
<!-- R256 -->
<g id="node5" class="node">
<title>R256</title>
<g id="a_node5"><a xlink:href="256.svg" xlink:title="R256">
<polygon fill="cornsilk" stroke="none" points="94,-226.54 0,-226.54 0,-179.54 94,-179.54 94,-226.54"/>
<text text-anchor="middle" x="47" y="-194.54" font-family="Times New Roman,serif" font-size="35.00">R256</text>
</a>
</g>
</g>
<!-- R256&#45;&gt;R294 -->
<g id="edge4" class="edge">
<title>R256&#45;&gt;R294</title>
<path fill="none" stroke="black" d="M93.52,-203.04C197.32,-203.04 451.33,-203.04 565.18,-203.04"/>
<polygon fill="black" stroke="black" points="565.08,-206.54 575.08,-203.04 565.08,-199.54 565.08,-206.54"/>
<text text-anchor="middle" x="335" y="-212.04" font-family="Times New Roman,serif" font-size="30.00"> &#160;&#160;535 &#160;&#160;5% &#160;&#160;0.0342 mol/s &#160;&#160;&#160;1.00E+00</text>
</g>
<!-- R373 -->
<g id="node6" class="node">
<title>R373</title>
<g id="a_node6"><a xlink:href="373.svg" xlink:title="R373">
<polygon fill="cornsilk" stroke="none" points="94,-161.54 0,-161.54 0,-114.54 94,-114.54 94,-161.54"/>
<text text-anchor="middle" x="47" y="-129.54" font-family="Times New Roman,serif" font-size="35.00">R373</text>
</a>
</g>
</g>
<!-- R373&#45;&gt;R294 -->
<g id="edge5" class="edge">
<title>R373&#45;&gt;R294</title>
<path fill="none" stroke="black" stroke-width="5" d="M93.95,-137.41C204.01,-136.39 480.04,-136.93 567,-166.04 569.9,-167.01 572.79,-168.17 575.64,-169.49"/>
<polygon fill="black" stroke="black" stroke-width="5" points="566.87,-174.41 588.58,-176.72 575.54,-159.21 566.87,-174.41"/>
<text text-anchor="middle" x="335" y="-175.04" font-family="Times New Roman,serif" font-size="30.00"> &#160;&#160;775 &#160;&#160;88% &#160;&#160;0.603 mol/s &#160;&#160;&#160;4.47E&#45;03</text>
</g>
<!-- R305 -->
<g id="node7" class="node">
<title>R305</title>
<g id="a_node7"><a xlink:href="305.svg" xlink:title="R305">
<polygon fill="cornsilk" stroke="none" points="94,-77.54 0,-77.54 0,-30.54 94,-30.54 94,-77.54"/>
<text text-anchor="middle" x="47" y="-45.54" font-family="Times New Roman,serif" font-size="35.00">R305</text>
</a>
</g>
</g>
<!-- R305&#45;&gt;R294 -->
<g id="edge6" class="edge">
<title>R305&#45;&gt;R294</title>
<path fill="none" stroke="black" d="M93.76,-67.25C96.87,-67.92 99.97,-68.53 103,-69.04 204.91,-86.16 480.19,-43.96 567,-100.04 591.22,-115.68 605.5,-145.73 613.42,-169.35"/>
<polygon fill="black" stroke="black" points="610.31,-170.16 616.62,-178.68 617,-168.09 610.31,-170.16"/>
<text text-anchor="middle" x="335" y="-109.04" font-family="Times New Roman,serif" font-size="30.00"> &#160;&#160;776 &#160;&#160;0% &#160;&#160;0.00577 mol/s &#160;&#160;&#160;2.43E&#45;01</text>
</g>
<!-- R305&#45;&gt;R294 -->
<g id="edge7" class="edge">
<title>R305&#45;&gt;R294</title>
<path fill="none" stroke="black" d="M93.83,-34.24C96.9,-33.37 99.97,-32.62 103,-32.04 204.25,-12.54 483.67,28.69 567,-32.04 609.87,-63.28 620.05,-128.51 622.06,-168.76"/>
<polygon fill="black" stroke="black" points="618.59,-168.77 622.43,-178.64 625.59,-168.53 618.59,-168.77"/>
<text text-anchor="middle" x="335" y="-41.04" font-family="Times New Roman,serif" font-size="30.00"> &#160;&#160;781 &#160;&#160;0% &#160;&#160;0.00185 mol/s &#160;&#160;&#160;7.57E&#45;01</text>
</g>
</g>
</svg>
