<?xml version="1.0" encoding="UTF-8" standalone="no"?>
<!DOCTYPE svg PUBLIC "-//W3C//DTD SVG 1.1//EN"
 "http://www.w3.org/Graphics/SVG/1.1/DTD/svg11.dtd">
<!-- Generated by graphviz version 8.0.3 (20230416.2022)
 -->
<!-- Title: G Pages: 1 -->
<svg width="640pt" height="242pt"
 viewBox="0.00 0.00 720.00 272.24" xmlns="http://www.w3.org/2000/svg" xmlns:xlink="http://www.w3.org/1999/xlink">
<g id="graph0" class="graph" transform="scale(0.498442 0.498442) rotate(0) translate(4 481.5)">
<title>G</title>
<polygon fill="white" stroke="none" points="-4,4 -4,-481.5 1280,-481.5 1280,4 -4,4"/>
<text text-anchor="middle" x="638" y="-444.7" font-family="Arial" font-size="36.00" fill="blue">Reaction Path Analysis</text>
<!-- R296 -->
<g id="node1" class="node">
<title>R296</title>
<g id="a_node1"><a xlink:href="296.svg" xlink:title="R296">
<polygon fill="cornsilk" stroke="none" points="685,-220 591,-220 591,-173 685,-173 685,-220"/>
<text text-anchor="middle" x="638" y="-188" font-family="Times New Roman,serif" font-size="35.00">R296</text>
</a>
</g>
</g>
<!-- R231 -->
<g id="node7" class="node">
<title>R231</title>
<g id="a_node7"><a xlink:href="231.svg" xlink:title="R231">
<polygon fill="cornsilk" stroke="none" points="1276,-220 1182,-220 1182,-173 1276,-173 1276,-220"/>
<text text-anchor="middle" x="1229" y="-188" font-family="Times New Roman,serif" font-size="35.00">R231</text>
</a>
</g>
</g>
<!-- R296&#45;&gt;R231 -->
<g id="edge7" class="edge">
<title>R296&#45;&gt;R231</title>
<path fill="none" stroke="black" stroke-width="6" d="M684.73,-196.5C788.16,-196.5 1040.47,-196.5 1161.33,-196.5"/>
<polygon fill="black" stroke="black" stroke-width="6" points="1156.3,-207 1176.3,-196.5 1156.3,-186 1156.3,-207"/>
<text text-anchor="middle" x="933.5" y="-205.5" font-family="Times New Roman,serif" font-size="30.00"> &#160;&#160;778 &#160;&#160;100% &#160;&#160;0.0027 mol/s &#160;&#160;&#160;9.93E&#45;01</text>
</g>
<!-- R86 -->
<g id="node2" class="node">
<title>R86</title>
<g id="a_node2"><a xlink:href="86.svg" xlink:title="R86">
<polygon fill="cornsilk" stroke="none" points="85,-378 9,-378 9,-331 85,-331 85,-378"/>
<text text-anchor="middle" x="47" y="-346" font-family="Times New Roman,serif" font-size="35.00">R86</text>
</a>
</g>
</g>
<!-- R86&#45;&gt;R296 -->
<g id="edge1" class="edge">
<title>R86&#45;&gt;R296</title>
<path fill="none" stroke="black" d="M84.91,-364.94C177.46,-388.78 423.13,-437.3 578.5,-330.5 611.53,-307.8 626.07,-262.13 632.36,-230.46"/>
<polygon fill="black" stroke="black" points="635.94,-231.36 634.26,-220.9 629.05,-230.12 635.94,-231.36"/>
<text text-anchor="middle" x="342.5" y="-405.5" font-family="Times New Roman,serif" font-size="30.00"> &#160;&#160;402 &#160;&#160;0% &#160;&#160;0.0342 mol/s &#160;&#160;&#160;9.99E&#45;01</text>
</g>
<!-- R14 -->
<g id="node3" class="node">
<title>R14</title>
<g id="a_node3"><a xlink:href="14.svg" xlink:title="R14">
<polygon fill="cornsilk" stroke="none" points="85,-313 9,-313 9,-266 85,-266 85,-313"/>
<text text-anchor="middle" x="47" y="-281" font-family="Times New Roman,serif" font-size="35.00">R14</text>
</a>
</g>
</g>
<!-- R14&#45;&gt;R296 -->
<g id="edge2" class="edge">
<title>R14&#45;&gt;R296</title>
<path fill="none" stroke="black" d="M84.74,-290.93C190.02,-294.49 490.84,-300.71 578.5,-259.5 593.06,-252.65 605.74,-240.39 615.53,-228.5"/>
<polygon fill="black" stroke="black" points="618.77,-231.03 622.14,-220.99 613.24,-226.74 618.77,-231.03"/>
<text text-anchor="middle" x="342.5" y="-302.5" font-family="Times New Roman,serif" font-size="30.00"> &#160;&#160;402 &#160;&#160;0% &#160;&#160;0.0342 mol/s &#160;&#160;&#160;9.99E&#45;01</text>
</g>
<!-- R0 -->
<g id="node4" class="node">
<title>R0</title>
<g id="a_node4"><a xlink:href="0.svg" xlink:title="R0">
<polygon fill="cornsilk" stroke="none" points="76,-248 18,-248 18,-201 76,-201 76,-248"/>
<text text-anchor="middle" x="47" y="-216" font-family="Times New Roman,serif" font-size="35.00">R0</text>
</a>
</g>
</g>
<!-- R0&#45;&gt;R296 -->
<g id="edge3" class="edge">
<title>R0&#45;&gt;R296</title>
<path fill="none" stroke="black" d="M75.93,-223.94C154.91,-222.22 386.57,-216.31 578.5,-202.5 579.14,-202.45 579.78,-202.41 580.42,-202.36"/>
<polygon fill="black" stroke="black" points="580.36,-205.79 590.04,-201.48 579.78,-198.81 580.36,-205.79"/>
<text text-anchor="middle" x="342.5" y="-231.5" font-family="Times New Roman,serif" font-size="30.00"> &#160;&#160;538 &#160;&#160;0% &#160;&#160;0.0342 mol/s &#160;&#160;&#160;1.00E+00</text>
</g>
<!-- R266 -->
<g id="node5" class="node">
<title>R266</title>
<g id="a_node5"><a xlink:href="266.svg" xlink:title="R266">
<polygon fill="cornsilk" stroke="none" points="94,-183 0,-183 0,-136 94,-136 94,-183"/>
<text text-anchor="middle" x="47" y="-151" font-family="Times New Roman,serif" font-size="35.00">R266</text>
</a>
</g>
</g>
<!-- R266&#45;&gt;R296 -->
<g id="edge4" class="edge">
<title>R266&#45;&gt;R296</title>
<path fill="none" stroke="black" d="M93.91,-157.25C205.33,-152.25 487.57,-142.35 578.5,-165.5 582.06,-166.4 585.64,-167.57 589.19,-168.91"/>
<polygon fill="black" stroke="black" points="587.46,-172.4 598.03,-173.1 590.2,-165.96 587.46,-172.4"/>
<text text-anchor="middle" x="342.5" y="-174.5" font-family="Times New Roman,serif" font-size="30.00"> &#160;&#160;538 &#160;&#160;0% &#160;&#160;0.0342 mol/s &#160;&#160;&#160;1.00E+00</text>
</g>
<!-- R254 -->
<g id="node6" class="node">
<title>R254</title>
<g id="a_node6"><a xlink:href="254.svg" xlink:title="R254">
<polygon fill="cornsilk" stroke="none" points="94,-99 0,-99 0,-52 94,-52 94,-99"/>
<text text-anchor="middle" x="47" y="-67" font-family="Times New Roman,serif" font-size="35.00">R254</text>
</a>
</g>
</g>
<!-- R254&#45;&gt;R296 -->
<g id="edge5" class="edge">
<title>R254&#45;&gt;R296</title>
<path fill="none" stroke="black" d="M93.8,-88.18C98.07,-89.08 102.35,-89.87 106.5,-90.5 158.42,-98.34 532.49,-88.2 578.5,-113.5 598.44,-124.46 613.15,-145.48 622.83,-163.61"/>
<polygon fill="black" stroke="black" points="620.08,-164.94 627.69,-172.31 626.34,-161.81 620.08,-164.94"/>
<text text-anchor="middle" x="342.5" y="-122.5" font-family="Times New Roman,serif" font-size="30.00"> &#160;&#160;729 &#160;&#160;0% &#160;&#160;0.00272 mol/s &#160;&#160;&#160;1.00E+00</text>
</g>
<!-- R254&#45;&gt;R296 -->
<g id="edge6" class="edge">
<title>R254&#45;&gt;R296</title>
<path fill="none" stroke="black" stroke-width="5" d="M93.65,-57.09C191.9,-20.74 426.77,48.36 578.5,-53.5 611.14,-75.41 625.58,-119.09 631.96,-152.44"/>
<polygon fill="black" stroke="black" stroke-width="5" points="623.44,-148.59 635.16,-167.01 640.73,-145.9 623.44,-148.59"/>
<text text-anchor="middle" x="342.5" y="-62.5" font-family="Times New Roman,serif" font-size="30.00"> &#160;&#160;777 &#160;&#160;99% &#160;&#160;9.44 mol/s &#160;&#160;&#160;2.88E&#45;04</text>
</g>
</g>
</svg>
