<?xml version="1.0" encoding="UTF-8" standalone="no"?>
<!DOCTYPE svg PUBLIC "-//W3C//DTD SVG 1.1//EN"
 "http://www.w3.org/Graphics/SVG/1.1/DTD/svg11.dtd">
<!-- Generated by graphviz version 8.0.3 (20230416.2022)
 -->
<!-- Title: G Pages: 1 -->
<svg width="640pt" height="245pt"
 viewBox="0.00 0.00 720.00 275.10" xmlns="http://www.w3.org/2000/svg" xmlns:xlink="http://www.w3.org/1999/xlink">
<g id="graph0" class="graph" transform="scale(0.487062 0.487062) rotate(0) translate(4 498.06)">
<title>G</title>
<polygon fill="white" stroke="none" points="-4,4 -4,-498.06 1310,-498.06 1310,4 -4,4"/>
<text text-anchor="middle" x="653" y="-461.26" font-family="Arial" font-size="36.00" fill="blue">Reaction Path Analysis</text>
<!-- R296 -->
<g id="node1" class="node">
<title>R296</title>
<g id="a_node1"><a xlink:href="296.svg" xlink:title="R296">
<polygon fill="cornsilk" stroke="none" points="700,-232.56 606,-232.56 606,-185.56 700,-185.56 700,-232.56"/>
<text text-anchor="middle" x="653" y="-200.56" font-family="Times New Roman,serif" font-size="35.00">R296</text>
</a>
</g>
</g>
<!-- R231 -->
<g id="node7" class="node">
<title>R231</title>
<g id="a_node7"><a xlink:href="231.svg" xlink:title="R231">
<polygon fill="cornsilk" stroke="none" points="1306,-232.56 1212,-232.56 1212,-185.56 1306,-185.56 1306,-232.56"/>
<text text-anchor="middle" x="1259" y="-200.56" font-family="Times New Roman,serif" font-size="35.00">R231</text>
</a>
</g>
</g>
<!-- R296&#45;&gt;R231 -->
<g id="edge7" class="edge">
<title>R296&#45;&gt;R231</title>
<path fill="none" stroke="black" stroke-width="5" d="M699.89,-209.06C805.85,-209.06 1067.9,-209.06 1191.48,-209.06"/>
<polygon fill="black" stroke="black" stroke-width="5" points="1186.18,-217.81 1206.18,-209.06 1186.18,-200.31 1186.18,-217.81"/>
<text text-anchor="middle" x="956" y="-218.06" font-family="Times New Roman,serif" font-size="30.00"> &#160;&#160;778 &#160;&#160;99% &#160;&#160;9.92e&#45;12 mol/s &#160;&#160;&#160;9.83E&#45;01</text>
</g>
<!-- R86 -->
<g id="node2" class="node">
<title>R86</title>
<g id="a_node2"><a xlink:href="86.svg" xlink:title="R86">
<polygon fill="cornsilk" stroke="none" points="85,-390.56 9,-390.56 9,-343.56 85,-343.56 85,-390.56"/>
<text text-anchor="middle" x="47" y="-358.56" font-family="Times New Roman,serif" font-size="35.00">R86</text>
</a>
</g>
</g>
<!-- R86&#45;&gt;R296 -->
<g id="edge1" class="edge">
<title>R86&#45;&gt;R296</title>
<path fill="none" stroke="black" stroke-width="2" d="M84.94,-377.89C179.97,-403.37 436.64,-456.83 597,-344.06 629.78,-321.01 643.05,-274.83 648.4,-242.95"/>
<polygon fill="black" stroke="black" stroke-width="2" points="651.97,-244.74 649.99,-234.33 645.05,-243.71 651.97,-244.74"/>
<text text-anchor="middle" x="350" y="-422.06" font-family="Times New Roman,serif" font-size="30.00"> &#160;&#160;402 &#160;&#160;20% &#160;&#160;4.67e&#45;08 mol/s &#160;&#160;&#160;1.00E+00</text>
</g>
<!-- R14 -->
<g id="node3" class="node">
<title>R14</title>
<g id="a_node3"><a xlink:href="14.svg" xlink:title="R14">
<polygon fill="cornsilk" stroke="none" points="85,-325.56 9,-325.56 9,-278.56 85,-278.56 85,-325.56"/>
<text text-anchor="middle" x="47" y="-293.56" font-family="Times New Roman,serif" font-size="35.00">R14</text>
</a>
</g>
</g>
<!-- R14&#45;&gt;R296 -->
<g id="edge2" class="edge">
<title>R14&#45;&gt;R296</title>
<path fill="none" stroke="black" stroke-width="2" d="M84.93,-303.82C193.02,-308.4 506.74,-317.42 597,-273.06 611.39,-265.99 623.53,-253.27 632.71,-241.02"/>
<polygon fill="black" stroke="black" stroke-width="2" points="634.97,-244.46 637.86,-234.27 629.25,-240.44 634.97,-244.46"/>
<text text-anchor="middle" x="350" y="-316.06" font-family="Times New Roman,serif" font-size="30.00"> &#160;&#160;402 &#160;&#160;20% &#160;&#160;4.67e&#45;08 mol/s &#160;&#160;&#160;1.00E+00</text>
</g>
<!-- R0 -->
<g id="node4" class="node">
<title>R0</title>
<g id="a_node4"><a xlink:href="0.svg" xlink:title="R0">
<polygon fill="cornsilk" stroke="none" points="76,-260.56 18,-260.56 18,-213.56 76,-213.56 76,-260.56"/>
<text text-anchor="middle" x="47" y="-228.56" font-family="Times New Roman,serif" font-size="35.00">R0</text>
</a>
</g>
</g>
<!-- R0&#45;&gt;R296 -->
<g id="edge3" class="edge">
<title>R0&#45;&gt;R296</title>
<path fill="none" stroke="black" stroke-width="2" d="M75.75,-236.62C154.98,-235.22 389.28,-230.1 595.38,-215.1"/>
<polygon fill="black" stroke="black" stroke-width="2" points="593.39,-218.53 603.11,-214.3 592.87,-211.55 593.39,-218.53"/>
<text text-anchor="middle" x="350" y="-245.06" font-family="Times New Roman,serif" font-size="30.00"> &#160;&#160;538 &#160;&#160;20% &#160;&#160;4.67e&#45;08 mol/s &#160;&#160;&#160;1.00E+00</text>
</g>
<!-- R266 -->
<g id="node5" class="node">
<title>R266</title>
<g id="a_node5"><a xlink:href="266.svg" xlink:title="R266">
<polygon fill="cornsilk" stroke="none" points="94,-195.56 0,-195.56 0,-148.56 94,-148.56 94,-195.56"/>
<text text-anchor="middle" x="47" y="-163.56" font-family="Times New Roman,serif" font-size="35.00">R266</text>
</a>
</g>
</g>
<!-- R266&#45;&gt;R296 -->
<g id="edge4" class="edge">
<title>R266&#45;&gt;R296</title>
<path fill="none" stroke="black" stroke-width="2" d="M93.87,-169.65C208.07,-164.1 502.75,-152.78 597,-178.06 600.18,-178.91 603.37,-179.99 606.52,-181.23"/>
<polygon fill="black" stroke="black" stroke-width="2" points="603.87,-183.77 614.42,-184.67 606.73,-177.39 603.87,-183.77"/>
<text text-anchor="middle" x="350" y="-187.06" font-family="Times New Roman,serif" font-size="30.00"> &#160;&#160;538 &#160;&#160;20% &#160;&#160;4.67e&#45;08 mol/s &#160;&#160;&#160;1.00E+00</text>
</g>
<!-- R254 -->
<g id="node6" class="node">
<title>R254</title>
<g id="a_node6"><a xlink:href="254.svg" xlink:title="R254">
<polygon fill="cornsilk" stroke="none" points="94,-111.56 0,-111.56 0,-64.56 94,-64.56 94,-111.56"/>
<text text-anchor="middle" x="47" y="-79.56" font-family="Times New Roman,serif" font-size="35.00">R254</text>
</a>
</g>
</g>
<!-- R254&#45;&gt;R296 -->
<g id="edge5" class="edge">
<title>R254&#45;&gt;R296</title>
<path fill="none" stroke="black" d="M93.75,-101.35C96.87,-102.01 99.97,-102.59 103,-103.06 157.28,-111.56 549.26,-97.87 597,-125.06 616.55,-136.2 630.37,-157.46 639.27,-175.81"/>
<polygon fill="black" stroke="black" points="636.4,-176.95 643.71,-184.62 642.77,-174.07 636.4,-176.95"/>
<text text-anchor="middle" x="350" y="-134.06" font-family="Times New Roman,serif" font-size="30.00"> &#160;&#160;729 &#160;&#160;0% &#160;&#160;1.01e&#45;11 mol/s &#160;&#160;&#160;1.00E+00</text>
</g>
<!-- R254&#45;&gt;R296 -->
<g id="edge6" class="edge">
<title>R254&#45;&gt;R296</title>
<path fill="none" stroke="black" stroke-width="3" d="M93.83,-68.26C96.9,-67.39 99.97,-66.64 103,-66.06 318.59,-24.54 416.02,58.24 597,-66.06 632.36,-90.35 645,-140.78 649.51,-174.78"/>
<polygon fill="black" stroke="black" stroke-width="3" points="646.13,-172.09 650.74,-181.62 653.09,-171.29 646.13,-172.09"/>
<text text-anchor="middle" x="350" y="-75.06" font-family="Times New Roman,serif" font-size="30.00"> &#160;&#160;777 &#160;&#160;58% &#160;&#160;1.3e&#45;07 mol/s &#160;&#160;&#160;7.76E&#45;05</text>
</g>
</g>
</svg>
