<?xml version="1.0" encoding="UTF-8" standalone="no"?>
<!DOCTYPE svg PUBLIC "-//W3C//DTD SVG 1.1//EN"
 "http://www.w3.org/Graphics/SVG/1.1/DTD/svg11.dtd">
<!-- Generated by graphviz version 8.0.3 (20230416.2022)
 -->
<!-- Title: G Pages: 1 -->
<svg width="640pt" height="130pt"
 viewBox="0.00 0.00 720.00 146.46" xmlns="http://www.w3.org/2000/svg" xmlns:xlink="http://www.w3.org/1999/xlink">
<g id="graph0" class="graph" transform="scale(0.507534 0.507534) rotate(0) translate(4 252.5)">
<title>G</title>
<polygon fill="white" stroke="none" points="-4,4 -4,-252.5 1257,-252.5 1257,4 -4,4"/>
<text text-anchor="middle" x="626.5" y="-215.7" font-family="Arial" font-size="36.00" fill="blue">Reaction Path Analysis</text>
<!-- R297 -->
<g id="node1" class="node">
<title>R297</title>
<g id="a_node1"><a xlink:href="297.svg" xlink:title="R297">
<polygon fill="cornsilk" stroke="none" points="678,-112 584,-112 584,-65 678,-65 678,-112"/>
<text text-anchor="middle" x="631" y="-80" font-family="Times New Roman,serif" font-size="35.00">R297</text>
</a>
</g>
</g>
<!-- R86 -->
<g id="node2" class="node">
<title>R86</title>
<g id="a_node2"><a xlink:href="86.svg" xlink:title="R86">
<polygon fill="cornsilk" stroke="none" points="1253,-145 1177,-145 1177,-98 1253,-98 1253,-145"/>
<text text-anchor="middle" x="1215" y="-113" font-family="Times New Roman,serif" font-size="35.00">R86</text>
</a>
</g>
</g>
<!-- R297&#45;&gt;R86 -->
<g id="edge1" class="edge">
<title>R297&#45;&gt;R86</title>
<path fill="none" stroke="black" stroke-width="5" d="M677.69,-96.81C684.64,-97.85 691.75,-98.8 698.5,-99.5 863.89,-116.64 1060.45,-120.49 1156.04,-121.31"/>
<polygon fill="black" stroke="black" stroke-width="5" points="1150.95,-130.07 1171.01,-121.46 1151.07,-112.57 1150.95,-130.07"/>
<text text-anchor="middle" x="923" y="-129.5" font-family="Times New Roman,serif" font-size="30.00"> &#160;&#160;403 &#160;&#160;99% &#160;&#160;0.173 mol/s &#160;&#160;&#160;1.42E&#45;01</text>
</g>
<!-- R14 -->
<g id="node3" class="node">
<title>R14</title>
<g id="a_node3"><a xlink:href="14.svg" xlink:title="R14">
<polygon fill="cornsilk" stroke="none" points="1253,-80 1177,-80 1177,-33 1253,-33 1253,-80"/>
<text text-anchor="middle" x="1215" y="-48" font-family="Times New Roman,serif" font-size="35.00">R14</text>
</a>
</g>
</g>
<!-- R297&#45;&gt;R14 -->
<g id="edge2" class="edge">
<title>R297&#45;&gt;R14</title>
<path fill="none" stroke="black" stroke-width="5" d="M677.69,-71.41C684.58,-69.41 691.67,-67.67 698.5,-66.5 862.65,-38.42 1060.48,-45.87 1156.33,-52.04"/>
<polygon fill="black" stroke="black" stroke-width="5" points="1150.53,-60.82 1171.08,-53.46 1151.73,-43.37 1150.53,-60.82"/>
<text text-anchor="middle" x="923" y="-75.5" font-family="Times New Roman,serif" font-size="30.00"> &#160;&#160;403 &#160;&#160;99% &#160;&#160;0.173 mol/s &#160;&#160;&#160;1.42E&#45;01</text>
</g>
<!-- R0 -->
<g id="node4" class="node">
<title>R0</title>
<g id="a_node4"><a xlink:href="0.svg" xlink:title="R0">
<polygon fill="cornsilk" stroke="none" points="76,-177 18,-177 18,-130 76,-130 76,-177"/>
<text text-anchor="middle" x="47" y="-145" font-family="Times New Roman,serif" font-size="35.00">R0</text>
</a>
</g>
</g>
<!-- R0&#45;&gt;R297 -->
<g id="edge3" class="edge">
<title>R0&#45;&gt;R297</title>
<path fill="none" stroke="black" stroke-width="5" d="M75.83,-157.09C155.93,-166.36 392.96,-186.36 575,-125.5 577.9,-124.53 580.79,-123.36 583.64,-122.05"/>
<polygon fill="black" stroke="black" stroke-width="5" points="583.54,-132.33 596.58,-114.82 574.87,-117.13 583.54,-132.33"/>
<text text-anchor="middle" x="339" y="-176.5" font-family="Times New Roman,serif" font-size="30.00"> &#160;&#160;539 &#160;&#160;92% &#160;&#160;0.0342 mol/s &#160;&#160;&#160;1.00E+00</text>
</g>
<!-- R266 -->
<g id="node5" class="node">
<title>R266</title>
<g id="a_node5"><a xlink:href="266.svg" xlink:title="R266">
<polygon fill="cornsilk" stroke="none" points="94,-112 0,-112 0,-65 94,-65 94,-112"/>
<text text-anchor="middle" x="47" y="-80" font-family="Times New Roman,serif" font-size="35.00">R266</text>
</a>
</g>
</g>
<!-- R266&#45;&gt;R297 -->
<g id="edge4" class="edge">
<title>R266&#45;&gt;R297</title>
<path fill="none" stroke="black" stroke-width="5" d="M93.67,-88.5C195.96,-88.5 443.87,-88.5 563.38,-88.5"/>
<polygon fill="black" stroke="black" stroke-width="5" points="558.14,-97.25 578.14,-88.5 558.14,-79.75 558.14,-97.25"/>
<text text-anchor="middle" x="339" y="-97.5" font-family="Times New Roman,serif" font-size="30.00"> &#160;&#160;539 &#160;&#160;92% &#160;&#160;0.0342 mol/s &#160;&#160;&#160;1.00E+00</text>
</g>
<!-- R155 -->
<g id="node6" class="node">
<title>R155</title>
<g id="a_node6"><a xlink:href="155.svg" xlink:title="R155">
<polygon fill="cornsilk" stroke="none" points="94,-47 0,-47 0,0 94,0 94,-47"/>
<text text-anchor="middle" x="47" y="-15" font-family="Times New Roman,serif" font-size="35.00">R155</text>
</a>
</g>
</g>
<!-- R155&#45;&gt;R297 -->
<g id="edge5" class="edge">
<title>R155&#45;&gt;R297</title>
<path fill="none" stroke="black" d="M93.92,-17.94C187.36,-8.33 405.12,5.29 575,-51.5 580.94,-53.49 586.85,-56.3 592.46,-59.5"/>
<polygon fill="black" stroke="black" points="590.24,-62.87 600.58,-65.18 593.94,-56.93 590.24,-62.87"/>
<text text-anchor="middle" x="339" y="-60.5" font-family="Times New Roman,serif" font-size="30.00"> &#160;&#160;677 &#160;&#160;7% &#160;&#160;0.00272 mol/s &#160;&#160;&#160;1.00E+00</text>
</g>
</g>
</svg>
