<?xml version="1.0" encoding="UTF-8" standalone="no"?>
<!DOCTYPE svg PUBLIC "-//W3C//DTD SVG 1.1//EN"
 "http://www.w3.org/Graphics/SVG/1.1/DTD/svg11.dtd">
<!-- Generated by graphviz version 8.0.3 (20230416.2022)
 -->
<!-- Title: G Pages: 1 -->
<svg width="629pt" height="339pt"
 viewBox="0.00 0.00 708.00 381.29" xmlns="http://www.w3.org/2000/svg" xmlns:xlink="http://www.w3.org/1999/xlink">
<g id="graph0" class="graph" transform="scale(0.888889 0.888889) rotate(0) translate(4 377.29)">
<title>G</title>
<polygon fill="white" stroke="none" points="-4,4 -4,-377.29 704,-377.29 704,4 -4,4"/>
<text text-anchor="middle" x="350" y="-340.49" font-family="Arial" font-size="36.00" fill="blue">Reaction Path Analysis</text>
<!-- R298 -->
<g id="node1" class="node">
<title>R298</title>
<g id="a_node1"><a xlink:href="298.svg" xlink:title="R298">
<polygon fill="cornsilk" stroke="none" points="700,-194.79 606,-194.79 606,-147.79 700,-147.79 700,-194.79"/>
<text text-anchor="middle" x="653" y="-162.79" font-family="Times New Roman,serif" font-size="35.00">R298</text>
</a>
</g>
</g>
<!-- R15 -->
<g id="node2" class="node">
<title>R15</title>
<g id="a_node2"><a xlink:href="15.svg" xlink:title="R15">
<polygon fill="cornsilk" stroke="none" points="85,-250.79 9,-250.79 9,-203.79 85,-203.79 85,-250.79"/>
<text text-anchor="middle" x="47" y="-218.79" font-family="Times New Roman,serif" font-size="35.00">R15</text>
</a>
</g>
</g>
<!-- R15&#45;&gt;R298 -->
<g id="edge1" class="edge">
<title>R15&#45;&gt;R298</title>
<path fill="none" stroke="black" stroke-width="3" d="M79.16,-250.62C86.61,-255.01 94.79,-258.95 103,-261.29 208.6,-291.29 501.25,-314.98 597,-261.29 618.49,-249.23 632.58,-224.99 641.12,-204.7"/>
<polygon fill="black" stroke="black" stroke-width="3" points="643.71,-209.12 644.09,-198.53 637.19,-206.58 643.71,-209.12"/>
<text text-anchor="middle" x="350" y="-301.29" font-family="Times New Roman,serif" font-size="30.00"> &#160;&#160;404 &#160;&#160;50% &#160;&#160;4.67e&#45;08 mol/s &#160;&#160;&#160;1.00E+00</text>
</g>
<!-- R15&#45;&gt;R298 -->
<g id="edge2" class="edge">
<title>R15&#45;&gt;R298</title>
<path fill="none" stroke="black" stroke-width="3" d="M84.98,-225.19C91,-224.87 97.17,-224.56 103,-224.29 157.87,-221.73 544.46,-221.31 597,-205.29 601.59,-203.88 606.19,-202 610.65,-199.84"/>
<polygon fill="black" stroke="black" stroke-width="3" points="609.02,-204.54 616.18,-196.73 605.71,-198.37 609.02,-204.54"/>
<text text-anchor="middle" x="350" y="-233.29" font-family="Times New Roman,serif" font-size="30.00"> &#160;&#160;404 &#160;&#160;50% &#160;&#160;4.67e&#45;08 mol/s &#160;&#160;&#160;1.00E+00</text>
</g>
<!-- R15&#45;&gt;R298 -->
<g id="edge3" class="edge">
<title>R15&#45;&gt;R298</title>
<path fill="none" stroke="black" stroke-width="3" d="M62.5,-204.06C72.17,-190.88 86.18,-175.6 103,-168.29 151.02,-147.4 507.15,-165.01 595.3,-168.23"/>
<polygon fill="black" stroke="black" stroke-width="3" points="591.98,-171.76 602.09,-168.59 592.21,-164.76 591.98,-171.76"/>
<text text-anchor="middle" x="350" y="-177.29" font-family="Times New Roman,serif" font-size="30.00"> &#160;&#160;404 &#160;&#160;50% &#160;&#160;4.67e&#45;08 mol/s &#160;&#160;&#160;1.00E+00</text>
</g>
<!-- R0 -->
<g id="node3" class="node">
<title>R0</title>
<g id="a_node3"><a xlink:href="0.svg" xlink:title="R0">
<polygon fill="cornsilk" stroke="none" points="76,-138.79 18,-138.79 18,-91.79 76,-91.79 76,-138.79"/>
<text text-anchor="middle" x="47" y="-106.79" font-family="Times New Roman,serif" font-size="35.00">R0</text>
</a>
</g>
</g>
<!-- R0&#45;&gt;R298 -->
<g id="edge4" class="edge">
<title>R0&#45;&gt;R298</title>
<path fill="none" stroke="black" stroke-width="3" d="M75.99,-112.91C174.01,-105 501.01,-82.12 597,-120.29 607.91,-124.62 617.96,-132.23 626.4,-140.27"/>
<polygon fill="black" stroke="black" stroke-width="3" points="621.48,-140.32 630.98,-145.02 626.49,-135.42 621.48,-140.32"/>
<text text-anchor="middle" x="350" y="-129.29" font-family="Times New Roman,serif" font-size="30.00"> &#160;&#160;541 &#160;&#160;50% &#160;&#160;4.67e&#45;08 mol/s &#160;&#160;&#160;1.00E+00</text>
</g>
<!-- R274 -->
<g id="node4" class="node">
<title>R274</title>
<g id="a_node4"><a xlink:href="274.svg" xlink:title="R274">
<polygon fill="cornsilk" stroke="none" points="94,-73.79 0,-73.79 0,-26.79 94,-26.79 94,-73.79"/>
<text text-anchor="middle" x="47" y="-41.79" font-family="Times New Roman,serif" font-size="35.00">R274</text>
</a>
</g>
</g>
<!-- R274&#45;&gt;R298 -->
<g id="edge5" class="edge">
<title>R274&#45;&gt;R298</title>
<path fill="none" stroke="black" stroke-width="3" d="M93.68,-36.61C193.84,-9.51 436.63,40.06 597,-61.29 623.53,-78.05 637.73,-111.83 645.01,-137.56"/>
<polygon fill="black" stroke="black" stroke-width="3" points="640.82,-135.22 646.72,-144.02 647.6,-133.46 640.82,-135.22"/>
<text text-anchor="middle" x="350" y="-70.29" font-family="Times New Roman,serif" font-size="30.00"> &#160;&#160;541 &#160;&#160;50% &#160;&#160;4.67e&#45;08 mol/s &#160;&#160;&#160;1.00E+00</text>
</g>
</g>
</svg>
