<?xml version="1.0" encoding="UTF-8" standalone="no"?>
<!DOCTYPE svg PUBLIC "-//W3C//DTD SVG 1.1//EN"
 "http://www.w3.org/Graphics/SVG/1.1/DTD/svg11.dtd">
<!-- Generated by graphviz version 8.0.3 (20230416.2022)
 -->
<!-- Title: G Pages: 1 -->
<svg width="290pt" height="640pt"
 viewBox="0.00 0.00 325.74 720.00" xmlns="http://www.w3.org/2000/svg" xmlns:xlink="http://www.w3.org/1999/xlink">
<g id="graph0" class="graph" transform="scale(0.233507 0.233507) rotate(0) translate(4 2736.81)">
<title>G</title>
<polygon fill="white" stroke="none" points="-4,4 -4,-2736.81 1236,-2736.81 1236,4 -4,4"/>
<text text-anchor="middle" x="616" y="-2700.01" font-family="Arial" font-size="36.00" fill="blue">Reaction Path Analysis</text>
<!-- R3 -->
<g id="node1" class="node">
<title>R3</title>
<g id="a_node1"><a xlink:href="3.svg" xlink:title="R3">
<polygon fill="cornsilk" stroke="none" points="645,-1389.31 587,-1389.31 587,-1342.31 645,-1342.31 645,-1389.31"/>
<text text-anchor="middle" x="616" y="-1357.31" font-family="Times New Roman,serif" font-size="35.00">R3</text>
</a>
</g>
</g>
<!-- R5 -->
<g id="node3" class="node">
<title>R5</title>
<g id="a_node3"><a xlink:href="5.svg" xlink:title="R5">
<polygon fill="cornsilk" stroke="none" points="1214,-2657.31 1156,-2657.31 1156,-2610.31 1214,-2610.31 1214,-2657.31"/>
<text text-anchor="middle" x="1185" y="-2625.31" font-family="Times New Roman,serif" font-size="35.00">R5</text>
</a>
</g>
</g>
<!-- R3&#45;&gt;R5 -->
<g id="edge4" class="edge">
<title>R3&#45;&gt;R5</title>
<path fill="none" stroke="black" d="M617.15,-1389.14C618.34,-1555.99 627.36,-2562.88 672,-2607.81 737.58,-2673.83 1037.62,-2649.35 1145.35,-2638.16"/>
<polygon fill="black" stroke="black" points="1145.47,-2641.56 1155.04,-2637.03 1144.73,-2634.6 1145.47,-2641.56"/>
<text text-anchor="middle" x="900.5" y="-2660.81" font-family="Times New Roman,serif" font-size="30.00"> &#160;&#160;4 &#160;&#160;0% &#160;&#160;0.0342 mol/s &#160;&#160;&#160;1.00E+00</text>
</g>
<!-- R7 -->
<g id="node4" class="node">
<title>R7</title>
<g id="a_node4"><a xlink:href="7.svg" xlink:title="R7">
<polygon fill="cornsilk" stroke="none" points="1214,-2592.31 1156,-2592.31 1156,-2545.31 1214,-2545.31 1214,-2592.31"/>
<text text-anchor="middle" x="1185" y="-2560.31" font-family="Times New Roman,serif" font-size="35.00">R7</text>
</a>
</g>
</g>
<!-- R3&#45;&gt;R7 -->
<g id="edge5" class="edge">
<title>R3&#45;&gt;R7</title>
<path fill="none" stroke="black" d="M617.21,-1389.2C618.78,-1551.12 629.75,-2500.4 672,-2542.81 705.13,-2576.08 1031.48,-2572.17 1145.18,-2569.77"/>
<polygon fill="black" stroke="black" points="1145.2,-2573.25 1155.12,-2569.53 1145.04,-2566.25 1145.2,-2573.25"/>
<text text-anchor="middle" x="900.5" y="-2579.81" font-family="Times New Roman,serif" font-size="30.00"> &#160;&#160;7 &#160;&#160;0% &#160;&#160;0.0342 mol/s &#160;&#160;&#160;1.00E+00</text>
</g>
<!-- R8 -->
<g id="node5" class="node">
<title>R8</title>
<g id="a_node5"><a xlink:href="8.svg" xlink:title="R8">
<polygon fill="cornsilk" stroke="none" points="1214,-2527.31 1156,-2527.31 1156,-2480.31 1214,-2480.31 1214,-2527.31"/>
<text text-anchor="middle" x="1185" y="-2495.31" font-family="Times New Roman,serif" font-size="35.00">R8</text>
</a>
</g>
</g>
<!-- R3&#45;&gt;R8 -->
<g id="edge6" class="edge">
<title>R3&#45;&gt;R8</title>
<path fill="none" stroke="black" d="M617.28,-1389.15C619.24,-1545.68 632.13,-2437.89 672,-2477.81 705.18,-2511.03 1031.49,-2507.16 1145.18,-2504.77"/>
<polygon fill="black" stroke="black" points="1145.2,-2508.24 1155.12,-2504.53 1145.05,-2501.25 1145.2,-2508.24"/>
<text text-anchor="middle" x="900.5" y="-2514.81" font-family="Times New Roman,serif" font-size="30.00"> &#160;&#160;8 &#160;&#160;0% &#160;&#160;0.0342 mol/s &#160;&#160;&#160;1.00E+00</text>
</g>
<!-- R10 -->
<g id="node6" class="node">
<title>R10</title>
<g id="a_node6"><a xlink:href="10.svg" xlink:title="R10">
<polygon fill="cornsilk" stroke="none" points="1223,-2462.31 1147,-2462.31 1147,-2415.31 1223,-2415.31 1223,-2462.31"/>
<text text-anchor="middle" x="1185" y="-2430.31" font-family="Times New Roman,serif" font-size="35.00">R10</text>
</a>
</g>
</g>
<!-- R3&#45;&gt;R10 -->
<g id="edge7" class="edge">
<title>R3&#45;&gt;R10</title>
<path fill="none" stroke="black" d="M617.35,-1389.25C619.72,-1540.73 634.45,-2376.4 672,-2413.81 704.44,-2446.14 1015.68,-2442.64 1136.44,-2440.03"/>
<polygon fill="black" stroke="black" points="1136.26,-2443.52 1146.18,-2439.79 1136.11,-2436.52 1136.26,-2443.52"/>
<text text-anchor="middle" x="900.5" y="-2449.81" font-family="Times New Roman,serif" font-size="30.00"> &#160;&#160;10 &#160;&#160;0% &#160;&#160;0.0342 mol/s &#160;&#160;&#160;1.00E+00</text>
</g>
<!-- R11 -->
<g id="node7" class="node">
<title>R11</title>
<g id="a_node7"><a xlink:href="11.svg" xlink:title="R11">
<polygon fill="cornsilk" stroke="none" points="1223,-2397.31 1147,-2397.31 1147,-2350.31 1223,-2350.31 1223,-2397.31"/>
<text text-anchor="middle" x="1185" y="-2365.31" font-family="Times New Roman,serif" font-size="35.00">R11</text>
</a>
</g>
</g>
<!-- R3&#45;&gt;R11 -->
<g id="edge8" class="edge">
<title>R3&#45;&gt;R11</title>
<path fill="none" stroke="black" d="M617.43,-1389.22C620.22,-1535.12 636.76,-2314.89 672,-2349.81 704.52,-2382.05 1015.72,-2377.96 1136.45,-2375.12"/>
<polygon fill="black" stroke="black" points="1136.28,-2378.6 1146.19,-2374.86 1136.11,-2371.61 1136.28,-2378.6"/>
<text text-anchor="middle" x="900.5" y="-2385.81" font-family="Times New Roman,serif" font-size="30.00"> &#160;&#160;11 &#160;&#160;0% &#160;&#160;0.0342 mol/s &#160;&#160;&#160;1.00E+00</text>
</g>
<!-- R12 -->
<g id="node8" class="node">
<title>R12</title>
<g id="a_node8"><a xlink:href="12.svg" xlink:title="R12">
<polygon fill="cornsilk" stroke="none" points="1223,-2332.31 1147,-2332.31 1147,-2285.31 1223,-2285.31 1223,-2332.31"/>
<text text-anchor="middle" x="1185" y="-2300.31" font-family="Times New Roman,serif" font-size="35.00">R12</text>
</a>
</g>
</g>
<!-- R3&#45;&gt;R12 -->
<g id="edge9" class="edge">
<title>R3&#45;&gt;R12</title>
<path fill="none" stroke="black" d="M617.52,-1389.09C620.72,-1529.19 638.92,-2255.34 672,-2287.81 704.67,-2319.88 1015.77,-2313.96 1136.47,-2310.41"/>
<polygon fill="black" stroke="black" points="1136.31,-2313.88 1146.2,-2310.08 1136.1,-2306.88 1136.31,-2313.88"/>
<text text-anchor="middle" x="900.5" y="-2321.81" font-family="Times New Roman,serif" font-size="30.00"> &#160;&#160;12 &#160;&#160;0% &#160;&#160;0.0342 mol/s &#160;&#160;&#160;1.00E+00</text>
</g>
<!-- R14 -->
<g id="node9" class="node">
<title>R14</title>
<g id="a_node9"><a xlink:href="14.svg" xlink:title="R14">
<polygon fill="cornsilk" stroke="none" points="1223,-2267.31 1147,-2267.31 1147,-2220.31 1223,-2220.31 1223,-2267.31"/>
<text text-anchor="middle" x="1185" y="-2235.31" font-family="Times New Roman,serif" font-size="35.00">R14</text>
</a>
</g>
</g>
<!-- R3&#45;&gt;R14 -->
<g id="edge10" class="edge">
<title>R3&#45;&gt;R14</title>
<path fill="none" stroke="black" d="M617.6,-1388.98C621.18,-1523.75 640.7,-2201.74 672,-2231.81 704.99,-2263.51 1015.9,-2252 1136.51,-2246.26"/>
<polygon fill="black" stroke="black" points="1136.41,-2249.72 1146.23,-2245.75 1136.07,-2242.73 1136.41,-2249.72"/>
<text text-anchor="middle" x="900.5" y="-2261.81" font-family="Times New Roman,serif" font-size="30.00"> &#160;&#160;14 &#160;&#160;0% &#160;&#160;0.00272 mol/s &#160;&#160;&#160;1.00E+00</text>
</g>
<!-- R3&#45;&gt;R14 -->
<g id="edge24" class="edge">
<title>R3&#45;&gt;R14</title>
<path fill="none" stroke="black" stroke-width="5" d="M616.78,-1389.06C615.8,-1515.79 614.2,-2119.51 672,-2175.81 708.4,-2211.28 1086.01,-2167.7 1129,-2194.81 1132.73,-2197.17 1133.5,-2199.91 1135.44,-2204.14"/>
<polygon fill="black" stroke="black" stroke-width="5" points="1125.69,-2204.75 1144.45,-2215.92 1139.92,-2194.56 1125.69,-2204.75"/>
<text text-anchor="middle" x="900.5" y="-2203.81" font-family="Times New Roman,serif" font-size="30.00"> &#160;&#160;101 &#160;&#160;99% &#160;&#160;974.0 mol/s &#160;&#160;&#160;2.79E&#45;06</text>
</g>
<!-- R46 -->
<g id="node10" class="node">
<title>R46</title>
<g id="a_node10"><a xlink:href="46.svg" xlink:title="R46">
<polygon fill="cornsilk" stroke="none" points="1223,-2202.31 1147,-2202.31 1147,-2155.31 1223,-2155.31 1223,-2202.31"/>
<text text-anchor="middle" x="1185" y="-2170.31" font-family="Times New Roman,serif" font-size="35.00">R46</text>
</a>
</g>
</g>
<!-- R3&#45;&gt;R46 -->
<g id="edge11" class="edge">
<title>R3&#45;&gt;R46</title>
<path fill="none" stroke="black" d="M616.91,-1389.02C616.67,-1510.29 618.51,-2067.51 672,-2119.81 708.35,-2155.36 1080.66,-2127.07 1129,-2142.81 1132.2,-2143.86 1136.84,-2146.33 1142.09,-2149.51"/>
<polygon fill="black" stroke="black" points="1140.04,-2152.99 1150.35,-2155.42 1143.8,-2147.09 1140.04,-2152.99"/>
<text text-anchor="middle" x="900.5" y="-2151.81" font-family="Times New Roman,serif" font-size="30.00"> &#160;&#160;51 &#160;&#160;0% &#160;&#160;0.0342 mol/s &#160;&#160;&#160;1.00E+00</text>
</g>
<!-- R47 -->
<g id="node11" class="node">
<title>R47</title>
<g id="a_node11"><a xlink:href="47.svg" xlink:title="R47">
<polygon fill="cornsilk" stroke="none" points="1223,-2137.31 1147,-2137.31 1147,-2090.31 1223,-2090.31 1223,-2137.31"/>
<text text-anchor="middle" x="1185" y="-2105.31" font-family="Times New Roman,serif" font-size="35.00">R47</text>
</a>
</g>
</g>
<!-- R3&#45;&gt;R47 -->
<g id="edge12" class="edge">
<title>R3&#45;&gt;R47</title>
<path fill="none" stroke="black" d="M617.05,-1389.19C617.56,-1505.23 622.59,-2015.78 672,-2063.81 708.46,-2099.25 1079.78,-2074.07 1129,-2086.81 1131.66,-2087.5 1134.34,-2088.33 1137.01,-2089.25"/>
<polygon fill="black" stroke="black" points="1135.62,-2092.86 1146.21,-2093.25 1138.18,-2086.34 1135.62,-2092.86"/>
<text text-anchor="middle" x="900.5" y="-2095.81" font-family="Times New Roman,serif" font-size="30.00"> &#160;&#160;52 &#160;&#160;0% &#160;&#160;0.0342 mol/s &#160;&#160;&#160;1.00E+00</text>
</g>
<!-- R36 -->
<g id="node12" class="node">
<title>R36</title>
<g id="a_node12"><a xlink:href="36.svg" xlink:title="R36">
<polygon fill="cornsilk" stroke="none" points="1223,-2072.31 1147,-2072.31 1147,-2025.31 1223,-2025.31 1223,-2072.31"/>
<text text-anchor="middle" x="1185" y="-2040.31" font-family="Times New Roman,serif" font-size="35.00">R36</text>
</a>
</g>
</g>
<!-- R3&#45;&gt;R36 -->
<g id="edge13" class="edge">
<title>R3&#45;&gt;R36</title>
<path fill="none" stroke="black" d="M617.22,-1389.12C618.51,-1499.24 626.63,-1964.01 672,-2007.81 708.58,-2043.13 1079.01,-2021.55 1129,-2030.81 1131.5,-2031.28 1134.04,-2031.83 1136.6,-2032.44"/>
<polygon fill="black" stroke="black" points="1135.51,-2036.03 1146.07,-2035.25 1137.32,-2029.27 1135.51,-2036.03"/>
<text text-anchor="middle" x="900.5" y="-2039.81" font-family="Times New Roman,serif" font-size="30.00"> &#160;&#160;53 &#160;&#160;0% &#160;&#160;0.0342 mol/s &#160;&#160;&#160;1.00E+00</text>
</g>
<!-- R48 -->
<g id="node13" class="node">
<title>R48</title>
<g id="a_node13"><a xlink:href="48.svg" xlink:title="R48">
<polygon fill="cornsilk" stroke="none" points="1223,-2007.31 1147,-2007.31 1147,-1960.31 1223,-1960.31 1223,-2007.31"/>
<text text-anchor="middle" x="1185" y="-1975.31" font-family="Times New Roman,serif" font-size="35.00">R48</text>
</a>
</g>
</g>
<!-- R3&#45;&gt;R48 -->
<g id="edge14" class="edge">
<title>R3&#45;&gt;R48</title>
<path fill="none" stroke="black" d="M617.43,-1389.14C619.56,-1493.26 630.67,-1912.24 672,-1951.81 708.72,-1986.98 1078.44,-1969.42 1129,-1974.81 1131.38,-1975.07 1133.82,-1975.36 1136.28,-1975.67"/>
<polygon fill="black" stroke="black" points="1135.71,-1979.27 1146.1,-1977.19 1136.68,-1972.33 1135.71,-1979.27"/>
<text text-anchor="middle" x="900.5" y="-1983.81" font-family="Times New Roman,serif" font-size="30.00"> &#160;&#160;54 &#160;&#160;0% &#160;&#160;0.0342 mol/s &#160;&#160;&#160;1.00E+00</text>
</g>
<!-- R49 -->
<g id="node14" class="node">
<title>R49</title>
<g id="a_node14"><a xlink:href="49.svg" xlink:title="R49">
<polygon fill="cornsilk" stroke="none" points="1223,-1942.31 1147,-1942.31 1147,-1895.31 1223,-1895.31 1223,-1942.31"/>
<text text-anchor="middle" x="1185" y="-1910.31" font-family="Times New Roman,serif" font-size="35.00">R49</text>
</a>
</g>
</g>
<!-- R3&#45;&gt;R49 -->
<g id="edge15" class="edge">
<title>R3&#45;&gt;R49</title>
<path fill="none" stroke="black" d="M617.69,-1389C620.79,-1486.1 635.01,-1856.68 672,-1891.81 688.7,-1907.68 1013.16,-1915.54 1136.75,-1917.97"/>
<polygon fill="black" stroke="black" points="1136.31,-1921.48 1146.37,-1918.17 1136.44,-1914.48 1136.31,-1921.48"/>
<text text-anchor="middle" x="900.5" y="-1925.81" font-family="Times New Roman,serif" font-size="30.00"> &#160;&#160;55 &#160;&#160;0% &#160;&#160;0.0342 mol/s &#160;&#160;&#160;1.00E+00</text>
</g>
<!-- R50 -->
<g id="node15" class="node">
<title>R50</title>
<g id="a_node15"><a xlink:href="50.svg" xlink:title="R50">
<polygon fill="cornsilk" stroke="none" points="1223,-1877.31 1147,-1877.31 1147,-1830.31 1223,-1830.31 1223,-1877.31"/>
<text text-anchor="middle" x="1185" y="-1845.31" font-family="Times New Roman,serif" font-size="35.00">R50</text>
</a>
</g>
</g>
<!-- R3&#45;&gt;R50 -->
<g id="edge16" class="edge">
<title>R3&#45;&gt;R50</title>
<path fill="none" stroke="black" d="M618.05,-1389.11C622.32,-1478.56 639.67,-1796.55 672,-1826.81 705.44,-1858.11 1016.07,-1856.54 1136.56,-1854.72"/>
<polygon fill="black" stroke="black" points="1136.33,-1858.2 1146.27,-1854.55 1136.22,-1851.21 1136.33,-1858.2"/>
<text text-anchor="middle" x="900.5" y="-1863.81" font-family="Times New Roman,serif" font-size="30.00"> &#160;&#160;56 &#160;&#160;0% &#160;&#160;0.0342 mol/s &#160;&#160;&#160;1.00E+00</text>
</g>
<!-- R51 -->
<g id="node16" class="node">
<title>R51</title>
<g id="a_node16"><a xlink:href="51.svg" xlink:title="R51">
<polygon fill="cornsilk" stroke="none" points="1223,-1812.31 1147,-1812.31 1147,-1765.31 1223,-1765.31 1223,-1812.31"/>
<text text-anchor="middle" x="1185" y="-1780.31" font-family="Times New Roman,serif" font-size="35.00">R51</text>
</a>
</g>
</g>
<!-- R3&#45;&gt;R51 -->
<g id="edge17" class="edge">
<title>R3&#45;&gt;R51</title>
<path fill="none" stroke="black" d="M616.55,-1389.15C615.6,-1466.34 617.04,-1711.35 672,-1761.81 705.74,-1792.79 1016.19,-1791.41 1136.59,-1789.68"/>
<polygon fill="black" stroke="black" points="1136.35,-1793.17 1146.3,-1789.52 1136.25,-1786.17 1136.35,-1793.17"/>
<text text-anchor="middle" x="900.5" y="-1798.81" font-family="Times New Roman,serif" font-size="30.00"> &#160;&#160;57 &#160;&#160;0% &#160;&#160;0.0342 mol/s &#160;&#160;&#160;1.00E+00</text>
</g>
<!-- R52 -->
<g id="node17" class="node">
<title>R52</title>
<g id="a_node17"><a xlink:href="52.svg" xlink:title="R52">
<polygon fill="cornsilk" stroke="none" points="1223,-1747.31 1147,-1747.31 1147,-1700.31 1223,-1700.31 1223,-1747.31"/>
<text text-anchor="middle" x="1185" y="-1715.31" font-family="Times New Roman,serif" font-size="35.00">R52</text>
</a>
</g>
</g>
<!-- R3&#45;&gt;R52 -->
<g id="edge18" class="edge">
<title>R3&#45;&gt;R52</title>
<path fill="none" stroke="black" d="M617.27,-1389.03C618.59,-1457.26 626.34,-1654.94 672,-1695.81 706.13,-1726.37 1016.35,-1725.89 1136.64,-1724.53"/>
<polygon fill="black" stroke="black" points="1136.38,-1728.02 1146.33,-1724.4 1136.29,-1721.02 1136.38,-1728.02"/>
<text text-anchor="middle" x="900.5" y="-1733.81" font-family="Times New Roman,serif" font-size="30.00"> &#160;&#160;58 &#160;&#160;0% &#160;&#160;0.0342 mol/s &#160;&#160;&#160;1.00E+00</text>
</g>
<!-- R53 -->
<g id="node18" class="node">
<title>R53</title>
<g id="a_node18"><a xlink:href="53.svg" xlink:title="R53">
<polygon fill="cornsilk" stroke="none" points="1223,-1682.31 1147,-1682.31 1147,-1635.31 1223,-1635.31 1223,-1682.31"/>
<text text-anchor="middle" x="1185" y="-1650.31" font-family="Times New Roman,serif" font-size="35.00">R53</text>
</a>
</g>
</g>
<!-- R3&#45;&gt;R53 -->
<g id="edge19" class="edge">
<title>R3&#45;&gt;R53</title>
<path fill="none" stroke="black" d="M618.3,-1389.01C622.12,-1447.63 635.4,-1599.33 672,-1630.81 706.73,-1660.69 1016.58,-1660.62 1136.71,-1659.45"/>
<polygon fill="black" stroke="black" points="1136.43,-1662.94 1146.39,-1659.34 1136.35,-1655.94 1136.43,-1662.94"/>
<text text-anchor="middle" x="900.5" y="-1667.81" font-family="Times New Roman,serif" font-size="30.00"> &#160;&#160;59 &#160;&#160;0% &#160;&#160;0.0342 mol/s &#160;&#160;&#160;1.00E+00</text>
</g>
<!-- R54 -->
<g id="node19" class="node">
<title>R54</title>
<g id="a_node19"><a xlink:href="54.svg" xlink:title="R54">
<polygon fill="cornsilk" stroke="none" points="1223,-1617.31 1147,-1617.31 1147,-1570.31 1223,-1570.31 1223,-1617.31"/>
<text text-anchor="middle" x="1185" y="-1585.31" font-family="Times New Roman,serif" font-size="35.00">R54</text>
</a>
</g>
</g>
<!-- R3&#45;&gt;R54 -->
<g id="edge20" class="edge">
<title>R3&#45;&gt;R54</title>
<path fill="none" stroke="black" d="M619.95,-1388.99C626.55,-1436.94 644.18,-1544.4 672,-1566.81 707.62,-1595.52 1016.22,-1595.53 1136.39,-1594.42"/>
<polygon fill="black" stroke="black" points="1136.12,-1597.92 1146.08,-1594.32 1136.05,-1590.92 1136.12,-1597.92"/>
<text text-anchor="middle" x="900.5" y="-1602.81" font-family="Times New Roman,serif" font-size="30.00"> &#160;&#160;60 &#160;&#160;0% &#160;&#160;0.0342 mol/s &#160;&#160;&#160;1.00E+00</text>
</g>
<!-- R55 -->
<g id="node20" class="node">
<title>R55</title>
<g id="a_node20"><a xlink:href="55.svg" xlink:title="R55">
<polygon fill="cornsilk" stroke="none" points="1223,-1552.31 1147,-1552.31 1147,-1505.31 1223,-1505.31 1223,-1552.31"/>
<text text-anchor="middle" x="1185" y="-1520.31" font-family="Times New Roman,serif" font-size="35.00">R55</text>
</a>
</g>
</g>
<!-- R3&#45;&gt;R55 -->
<g id="edge21" class="edge">
<title>R3&#45;&gt;R55</title>
<path fill="none" stroke="black" d="M618.64,-1389.08C622.3,-1421.33 634.08,-1478.7 672,-1505.81 709.2,-1532.41 1016.84,-1531.12 1136.57,-1529.58"/>
<polygon fill="black" stroke="black" points="1136.27,-1533.07 1146.22,-1529.44 1136.18,-1526.08 1136.27,-1533.07"/>
<text text-anchor="middle" x="900.5" y="-1538.81" font-family="Times New Roman,serif" font-size="30.00"> &#160;&#160;61 &#160;&#160;0% &#160;&#160;0.0342 mol/s &#160;&#160;&#160;1.00E+00</text>
</g>
<!-- R56 -->
<g id="node21" class="node">
<title>R56</title>
<g id="a_node21"><a xlink:href="56.svg" xlink:title="R56">
<polygon fill="cornsilk" stroke="none" points="1223,-1487.31 1147,-1487.31 1147,-1440.31 1223,-1440.31 1223,-1487.31"/>
<text text-anchor="middle" x="1185" y="-1455.31" font-family="Times New Roman,serif" font-size="35.00">R56</text>
</a>
</g>
</g>
<!-- R3&#45;&gt;R56 -->
<g id="edge22" class="edge">
<title>R3&#45;&gt;R56</title>
<path fill="none" stroke="black" d="M628.42,-1389.07C637.74,-1405.25 652.53,-1425.68 672,-1435.81 751.88,-1477.37 1025.25,-1470.73 1136.41,-1466.12"/>
<polygon fill="black" stroke="black" points="1136.44,-1469.58 1146.28,-1465.65 1136.14,-1462.59 1136.44,-1469.58"/>
<text text-anchor="middle" x="900.5" y="-1477.81" font-family="Times New Roman,serif" font-size="30.00"> &#160;&#160;62 &#160;&#160;0% &#160;&#160;0.0342 mol/s &#160;&#160;&#160;1.00E+00</text>
</g>
<!-- R98 -->
<g id="node23" class="node">
<title>R98</title>
<g id="a_node23"><a xlink:href="98.svg" xlink:title="R98">
<polygon fill="cornsilk" stroke="none" points="1223,-1422.31 1147,-1422.31 1147,-1375.31 1223,-1375.31 1223,-1422.31"/>
<text text-anchor="middle" x="1185" y="-1390.31" font-family="Times New Roman,serif" font-size="35.00">R98</text>
</a>
</g>
</g>
<!-- R3&#45;&gt;R98 -->
<g id="edge25" class="edge">
<title>R3&#45;&gt;R98</title>
<path fill="none" stroke="black" d="M644.85,-1372.25C653.5,-1374.02 663.11,-1375.74 672,-1376.81 842.01,-1397.34 1045.8,-1399.44 1136.47,-1399.21"/>
<polygon fill="black" stroke="black" points="1136.23,-1402.71 1146.21,-1399.18 1136.2,-1395.71 1136.23,-1402.71"/>
<text text-anchor="middle" x="900.5" y="-1407.81" font-family="Times New Roman,serif" font-size="30.00"> &#160;&#160;276 &#160;&#160;0% &#160;&#160;0.0342 mol/s &#160;&#160;&#160;1.00E+00</text>
</g>
<!-- R215 -->
<g id="node24" class="node">
<title>R215</title>
<g id="a_node24"><a xlink:href="215.svg" xlink:title="R215">
<polygon fill="cornsilk" stroke="none" points="1232,-1357.31 1138,-1357.31 1138,-1310.31 1232,-1310.31 1232,-1357.31"/>
<text text-anchor="middle" x="1185" y="-1325.31" font-family="Times New Roman,serif" font-size="35.00">R215</text>
</a>
</g>
</g>
<!-- R3&#45;&gt;R215 -->
<g id="edge26" class="edge">
<title>R3&#45;&gt;R215</title>
<path fill="none" stroke="black" d="M644.94,-1352.38C653.44,-1348.92 662.93,-1345.65 672,-1343.81 834.6,-1310.85 1032.21,-1320.63 1127.38,-1328.35"/>
<polygon fill="black" stroke="black" points="1126.94,-1331.91 1137.2,-1329.26 1127.52,-1324.94 1126.94,-1331.91"/>
<text text-anchor="middle" x="900.5" y="-1352.81" font-family="Times New Roman,serif" font-size="30.00"> &#160;&#160;277 &#160;&#160;0% &#160;&#160;0.0342 mol/s &#160;&#160;&#160;1.00E+00</text>
</g>
<!-- R216 -->
<g id="node25" class="node">
<title>R216</title>
<g id="a_node25"><a xlink:href="216.svg" xlink:title="R216">
<polygon fill="cornsilk" stroke="none" points="1232,-1292.31 1138,-1292.31 1138,-1245.31 1232,-1245.31 1232,-1292.31"/>
<text text-anchor="middle" x="1185" y="-1260.31" font-family="Times New Roman,serif" font-size="35.00">R216</text>
</a>
</g>
</g>
<!-- R3&#45;&gt;R216 -->
<g id="edge27" class="edge">
<title>R3&#45;&gt;R216</title>
<path fill="none" stroke="black" d="M625.31,-1342.55C633.74,-1322.78 648.87,-1295.64 672,-1282.81 748.65,-1240.3 1010.87,-1254.96 1127.4,-1263.95"/>
<polygon fill="black" stroke="black" points="1126.97,-1267.51 1137.22,-1264.8 1127.52,-1260.53 1126.97,-1267.51"/>
<text text-anchor="middle" x="900.5" y="-1291.81" font-family="Times New Roman,serif" font-size="30.00"> &#160;&#160;278 &#160;&#160;0% &#160;&#160;0.0336 mol/s &#160;&#160;&#160;9.83E&#45;01</text>
</g>
<!-- R59 -->
<g id="node26" class="node">
<title>R59</title>
<g id="a_node26"><a xlink:href="59.svg" xlink:title="R59">
<polygon fill="cornsilk" stroke="none" points="1223,-1227.31 1147,-1227.31 1147,-1180.31 1223,-1180.31 1223,-1227.31"/>
<text text-anchor="middle" x="1185" y="-1195.31" font-family="Times New Roman,serif" font-size="35.00">R59</text>
</a>
</g>
</g>
<!-- R3&#45;&gt;R59 -->
<g id="edge28" class="edge">
<title>R3&#45;&gt;R59</title>
<path fill="none" stroke="black" d="M617.95,-1342.42C620.73,-1308.32 631.42,-1245.86 672,-1216.81 745.38,-1164.28 1024.31,-1186.89 1136.67,-1198.5"/>
<polygon fill="black" stroke="black" points="1136.02,-1202.05 1146.33,-1199.62 1136.75,-1195.09 1136.02,-1202.05"/>
<text text-anchor="middle" x="900.5" y="-1225.81" font-family="Times New Roman,serif" font-size="30.00"> &#160;&#160;279 &#160;&#160;0% &#160;&#160;0.0342 mol/s &#160;&#160;&#160;1.00E+00</text>
</g>
<!-- R217 -->
<g id="node27" class="node">
<title>R217</title>
<g id="a_node27"><a xlink:href="217.svg" xlink:title="R217">
<polygon fill="cornsilk" stroke="none" points="1232,-1162.31 1138,-1162.31 1138,-1115.31 1232,-1115.31 1232,-1162.31"/>
<text text-anchor="middle" x="1185" y="-1130.31" font-family="Times New Roman,serif" font-size="35.00">R217</text>
</a>
</g>
</g>
<!-- R3&#45;&gt;R217 -->
<g id="edge29" class="edge">
<title>R3&#45;&gt;R217</title>
<path fill="none" stroke="black" d="M619.33,-1342.46C624.99,-1291.13 641.28,-1171.16 672,-1146.81 740.91,-1092.2 1009.06,-1117.21 1127.37,-1131.4"/>
<polygon fill="black" stroke="black" points="1126.65,-1134.96 1137,-1132.7 1127.5,-1128.02 1126.65,-1134.96"/>
<text text-anchor="middle" x="900.5" y="-1155.81" font-family="Times New Roman,serif" font-size="30.00"> &#160;&#160;280 &#160;&#160;0% &#160;&#160;0.0342 mol/s &#160;&#160;&#160;1.00E+00</text>
</g>
<!-- R140 -->
<g id="node28" class="node">
<title>R140</title>
<g id="a_node28"><a xlink:href="140.svg" xlink:title="R140">
<polygon fill="cornsilk" stroke="none" points="1232,-1097.31 1138,-1097.31 1138,-1050.31 1232,-1050.31 1232,-1097.31"/>
<text text-anchor="middle" x="1185" y="-1065.31" font-family="Times New Roman,serif" font-size="35.00">R140</text>
</a>
</g>
</g>
<!-- R3&#45;&gt;R140 -->
<g id="edge30" class="edge">
<title>R3&#45;&gt;R140</title>
<path fill="none" stroke="black" d="M617.77,-1342.73C620.38,-1280.34 631.18,-1110.8 672,-1076.81 706.27,-1048.28 1001.48,-1062.64 1127.43,-1070.18"/>
<polygon fill="black" stroke="black" points="1127.17,-1073.73 1137.36,-1070.84 1127.59,-1066.74 1127.17,-1073.73"/>
<text text-anchor="middle" x="900.5" y="-1085.81" font-family="Times New Roman,serif" font-size="30.00"> &#160;&#160;281 &#160;&#160;0% &#160;&#160;0.0342 mol/s &#160;&#160;&#160;1.00E+00</text>
</g>
<!-- R141 -->
<g id="node29" class="node">
<title>R141</title>
<g id="a_node29"><a xlink:href="141.svg" xlink:title="R141">
<polygon fill="cornsilk" stroke="none" points="1232,-1032.31 1138,-1032.31 1138,-985.31 1232,-985.31 1232,-1032.31"/>
<text text-anchor="middle" x="1185" y="-1000.31" font-family="Times New Roman,serif" font-size="35.00">R141</text>
</a>
</g>
</g>
<!-- R3&#45;&gt;R141 -->
<g id="edge31" class="edge">
<title>R3&#45;&gt;R141</title>
<path fill="none" stroke="black" d="M617.07,-1342.46C617.83,-1272.32 624.15,-1065.81 672,-1023.81 738.19,-965.72 1008.45,-988.54 1127.37,-1001.85"/>
<polygon fill="black" stroke="black" points="1126.73,-1005.41 1137.06,-1003.06 1127.52,-998.45 1126.73,-1005.41"/>
<text text-anchor="middle" x="900.5" y="-1032.81" font-family="Times New Roman,serif" font-size="30.00"> &#160;&#160;282 &#160;&#160;0% &#160;&#160;0.0342 mol/s &#160;&#160;&#160;1.00E+00</text>
</g>
<!-- R218 -->
<g id="node30" class="node">
<title>R218</title>
<g id="a_node30"><a xlink:href="218.svg" xlink:title="R218">
<polygon fill="cornsilk" stroke="none" points="1232,-967.31 1138,-967.31 1138,-920.31 1232,-920.31 1232,-967.31"/>
<text text-anchor="middle" x="1185" y="-935.31" font-family="Times New Roman,serif" font-size="35.00">R218</text>
</a>
</g>
</g>
<!-- R3&#45;&gt;R218 -->
<g id="edge32" class="edge">
<title>R3&#45;&gt;R218</title>
<path fill="none" stroke="black" d="M618.33,-1342.49C623.34,-1258.65 642.33,-976.13 672,-949.81 705.37,-920.22 1001.09,-933.34 1127.31,-940.39"/>
<polygon fill="black" stroke="black" points="1127.08,-943.94 1137.26,-941.01 1127.47,-936.95 1127.08,-943.94"/>
<text text-anchor="middle" x="900.5" y="-958.81" font-family="Times New Roman,serif" font-size="30.00"> &#160;&#160;283 &#160;&#160;0% &#160;&#160;0.0342 mol/s &#160;&#160;&#160;9.99E&#45;01</text>
</g>
<!-- R77 -->
<g id="node31" class="node">
<title>R77</title>
<g id="a_node31"><a xlink:href="77.svg" xlink:title="R77">
<polygon fill="cornsilk" stroke="none" points="1223,-902.31 1147,-902.31 1147,-855.31 1223,-855.31 1223,-902.31"/>
<text text-anchor="middle" x="1185" y="-870.31" font-family="Times New Roman,serif" font-size="35.00">R77</text>
</a>
</g>
</g>
<!-- R3&#45;&gt;R77 -->
<g id="edge33" class="edge">
<title>R3&#45;&gt;R77</title>
<path fill="none" stroke="black" d="M617.96,-1342.62C621.96,-1252.01 638.61,-925.48 672,-894.81 738.56,-833.69 1022.12,-859.53 1136.19,-872.78"/>
<polygon fill="black" stroke="black" points="1135.67,-876.36 1146.01,-874.06 1136.49,-869.41 1135.67,-876.36"/>
<text text-anchor="middle" x="900.5" y="-903.81" font-family="Times New Roman,serif" font-size="30.00"> &#160;&#160;284 &#160;&#160;0% &#160;&#160;0.0342 mol/s &#160;&#160;&#160;1.00E+00</text>
</g>
<!-- R219 -->
<g id="node32" class="node">
<title>R219</title>
<g id="a_node32"><a xlink:href="219.svg" xlink:title="R219">
<polygon fill="cornsilk" stroke="none" points="1232,-837.31 1138,-837.31 1138,-790.31 1232,-790.31 1232,-837.31"/>
<text text-anchor="middle" x="1185" y="-805.31" font-family="Times New Roman,serif" font-size="35.00">R219</text>
</a>
</g>
</g>
<!-- R3&#45;&gt;R219 -->
<g id="edge34" class="edge">
<title>R3&#45;&gt;R219</title>
<path fill="none" stroke="black" d="M617.56,-1342.39C620.19,-1242.5 632.86,-855.63 672,-819.81 704.9,-789.7 1000.89,-803.12 1127.24,-810.32"/>
<polygon fill="black" stroke="black" points="1127.02,-813.87 1137.21,-810.95 1127.42,-806.88 1127.02,-813.87"/>
<text text-anchor="middle" x="900.5" y="-828.81" font-family="Times New Roman,serif" font-size="30.00"> &#160;&#160;285 &#160;&#160;0% &#160;&#160;0.0342 mol/s &#160;&#160;&#160;1.00E+00</text>
</g>
<!-- R220 -->
<g id="node33" class="node">
<title>R220</title>
<g id="a_node33"><a xlink:href="220.svg" xlink:title="R220">
<polygon fill="cornsilk" stroke="none" points="1232,-772.31 1138,-772.31 1138,-725.31 1232,-725.31 1232,-772.31"/>
<text text-anchor="middle" x="1185" y="-740.31" font-family="Times New Roman,serif" font-size="35.00">R220</text>
</a>
</g>
</g>
<!-- R3&#45;&gt;R220 -->
<g id="edge35" class="edge">
<title>R3&#45;&gt;R220</title>
<path fill="none" stroke="black" d="M617.35,-1342.59C619.17,-1236.93 629.19,-805.13 672,-764.81 736.2,-704.36 1008.17,-727.97 1127.49,-741.67"/>
<polygon fill="black" stroke="black" points="1126.87,-745.24 1137.21,-742.93 1127.69,-738.29 1126.87,-745.24"/>
<text text-anchor="middle" x="900.5" y="-773.81" font-family="Times New Roman,serif" font-size="30.00"> &#160;&#160;286 &#160;&#160;0% &#160;&#160;0.0342 mol/s &#160;&#160;&#160;1.00E+00</text>
</g>
<!-- R145 -->
<g id="node34" class="node">
<title>R145</title>
<g id="a_node34"><a xlink:href="145.svg" xlink:title="R145">
<polygon fill="cornsilk" stroke="none" points="1232,-707.31 1138,-707.31 1138,-660.31 1232,-660.31 1232,-707.31"/>
<text text-anchor="middle" x="1185" y="-675.31" font-family="Times New Roman,serif" font-size="35.00">R145</text>
</a>
</g>
</g>
<!-- R3&#45;&gt;R145 -->
<g id="edge36" class="edge">
<title>R3&#45;&gt;R145</title>
<path fill="none" stroke="black" d="M617.08,-1342.35C617.69,-1228.17 623.19,-734.27 672,-688.81 704.64,-658.42 1000.77,-672.61 1127.2,-680.16"/>
<polygon fill="black" stroke="black" points="1126.98,-683.71 1137.18,-680.82 1127.41,-676.72 1126.98,-683.71"/>
<text text-anchor="middle" x="900.5" y="-697.81" font-family="Times New Roman,serif" font-size="30.00"> &#160;&#160;287 &#160;&#160;0% &#160;&#160;0.0342 mol/s &#160;&#160;&#160;1.00E+00</text>
</g>
<!-- R222 -->
<g id="node36" class="node">
<title>R222</title>
<g id="a_node36"><a xlink:href="222.svg" xlink:title="R222">
<polygon fill="cornsilk" stroke="none" points="1232,-642.31 1138,-642.31 1138,-595.31 1232,-595.31 1232,-642.31"/>
<text text-anchor="middle" x="1185" y="-610.31" font-family="Times New Roman,serif" font-size="35.00">R222</text>
</a>
</g>
</g>
<!-- R3&#45;&gt;R222 -->
<g id="edge38" class="edge">
<title>R3&#45;&gt;R222</title>
<path fill="none" stroke="black" d="M616.94,-1342.48C616.89,-1223.05 619.59,-683.88 672,-633.81 735.76,-572.91 1007.97,-597.36 1127.43,-611.48"/>
<polygon fill="black" stroke="black" points="1126.81,-615.05 1137.16,-612.76 1127.65,-608.1 1126.81,-615.05"/>
<text text-anchor="middle" x="900.5" y="-642.81" font-family="Times New Roman,serif" font-size="30.00"> &#160;&#160;289 &#160;&#160;0% &#160;&#160;0.0342 mol/s &#160;&#160;&#160;1.00E+00</text>
</g>
<!-- R80 -->
<g id="node37" class="node">
<title>R80</title>
<g id="a_node37"><a xlink:href="80.svg" xlink:title="R80">
<polygon fill="cornsilk" stroke="none" points="1223,-577.31 1147,-577.31 1147,-530.31 1223,-530.31 1223,-577.31"/>
<text text-anchor="middle" x="1185" y="-545.31" font-family="Times New Roman,serif" font-size="35.00">R80</text>
</a>
</g>
</g>
<!-- R3&#45;&gt;R80 -->
<g id="edge39" class="edge">
<title>R3&#45;&gt;R80</title>
<path fill="none" stroke="black" d="M616.75,-1342.59C615.63,-1216 613.4,-612.99 672,-557.81 705.3,-526.46 1016.02,-542.94 1136.54,-550.6"/>
<polygon fill="black" stroke="black" points="1136.05,-554.14 1146.26,-551.29 1136.5,-547.16 1136.05,-554.14"/>
<text text-anchor="middle" x="900.5" y="-566.81" font-family="Times New Roman,serif" font-size="30.00"> &#160;&#160;290 &#160;&#160;0% &#160;&#160;0.0342 mol/s &#160;&#160;&#160;1.00E+00</text>
</g>
<!-- R223 -->
<g id="node38" class="node">
<title>R223</title>
<g id="a_node38"><a xlink:href="223.svg" xlink:title="R223">
<polygon fill="cornsilk" stroke="none" points="1232,-512.31 1138,-512.31 1138,-465.31 1232,-465.31 1232,-512.31"/>
<text text-anchor="middle" x="1185" y="-480.31" font-family="Times New Roman,serif" font-size="35.00">R223</text>
</a>
</g>
</g>
<!-- R3&#45;&gt;R223 -->
<g id="edge40" class="edge">
<title>R3&#45;&gt;R223</title>
<path fill="none" stroke="black" d="M617.6,-1342.73C621.21,-1208.43 640.86,-532.84 672,-502.81 735.47,-441.61 1007.84,-466.83 1127.38,-481.3"/>
<polygon fill="black" stroke="black" points="1126.77,-484.88 1137.12,-482.62 1127.62,-477.93 1126.77,-484.88"/>
<text text-anchor="middle" x="900.5" y="-511.81" font-family="Times New Roman,serif" font-size="30.00"> &#160;&#160;291 &#160;&#160;0% &#160;&#160;0.0342 mol/s &#160;&#160;&#160;1.00E+00</text>
</g>
<!-- R198 -->
<g id="node39" class="node">
<title>R198</title>
<g id="a_node39"><a xlink:href="198.svg" xlink:title="R198">
<polygon fill="cornsilk" stroke="none" points="1232,-447.31 1138,-447.31 1138,-400.31 1232,-400.31 1232,-447.31"/>
<text text-anchor="middle" x="1185" y="-415.31" font-family="Times New Roman,serif" font-size="35.00">R198</text>
</a>
</g>
</g>
<!-- R3&#45;&gt;R198 -->
<g id="edge41" class="edge">
<title>R3&#45;&gt;R198</title>
<path fill="none" stroke="black" d="M617.47,-1342.55C620.46,-1200.91 637.72,-459.34 672,-426.81 704.39,-396.09 1001.25,-411.74 1127.55,-419.9"/>
<polygon fill="black" stroke="black" points="1126.94,-423.43 1137.14,-420.59 1127.39,-416.45 1126.94,-423.43"/>
<text text-anchor="middle" x="900.5" y="-435.81" font-family="Times New Roman,serif" font-size="30.00"> &#160;&#160;292 &#160;&#160;0% &#160;&#160;0.0342 mol/s &#160;&#160;&#160;1.00E+00</text>
</g>
<!-- R199 -->
<g id="node40" class="node">
<title>R199</title>
<g id="a_node40"><a xlink:href="199.svg" xlink:title="R199">
<polygon fill="cornsilk" stroke="none" points="1232,-382.31 1138,-382.31 1138,-335.31 1232,-335.31 1232,-382.31"/>
<text text-anchor="middle" x="1185" y="-350.31" font-family="Times New Roman,serif" font-size="35.00">R199</text>
</a>
</g>
</g>
<!-- R3&#45;&gt;R199 -->
<g id="edge42" class="edge">
<title>R3&#45;&gt;R199</title>
<path fill="none" stroke="black" d="M617.4,-1342.64C620.05,-1196.42 635.99,-406.76 672,-371.81 735.27,-310.41 1007.75,-336.34 1127.35,-351.14"/>
<polygon fill="black" stroke="black" points="1126.74,-354.72 1137.1,-352.49 1127.61,-347.77 1126.74,-354.72"/>
<text text-anchor="middle" x="900.5" y="-380.81" font-family="Times New Roman,serif" font-size="30.00"> &#160;&#160;293 &#160;&#160;0% &#160;&#160;0.0342 mol/s &#160;&#160;&#160;1.00E+00</text>
</g>
<!-- R225 -->
<g id="node42" class="node">
<title>R225</title>
<g id="a_node42"><a xlink:href="225.svg" xlink:title="R225">
<polygon fill="cornsilk" stroke="none" points="1232,-317.31 1138,-317.31 1138,-270.31 1232,-270.31 1232,-317.31"/>
<text text-anchor="middle" x="1185" y="-285.31" font-family="Times New Roman,serif" font-size="35.00">R225</text>
</a>
</g>
</g>
<!-- R3&#45;&gt;R225 -->
<g id="edge44" class="edge">
<title>R3&#45;&gt;R225</title>
<path fill="none" stroke="green" d="M617.3,-1342.38C619.41,-1189.08 632.87,-334.2 672,-296.81 704.28,-265.97 1001.2,-281.69 1127.53,-289.88"/>
<polygon fill="green" stroke="green" points="1126.92,-293.42 1137.13,-290.58 1127.38,-286.43 1126.92,-293.42"/>
<text text-anchor="middle" x="900.5" y="-305.81" font-family="Times New Roman,serif" font-size="30.00"> &#160;&#160;295 &#160;&#160;0% &#160;&#160;0.006 mol/s &#160;&#160;&#160;5.48E&#45;01</text>
</g>
<!-- R226 -->
<g id="node43" class="node">
<title>R226</title>
<g id="a_node43"><a xlink:href="226.svg" xlink:title="R226">
<polygon fill="cornsilk" stroke="none" points="1232,-252.31 1138,-252.31 1138,-205.31 1232,-205.31 1232,-252.31"/>
<text text-anchor="middle" x="1185" y="-220.31" font-family="Times New Roman,serif" font-size="35.00">R226</text>
</a>
</g>
</g>
<!-- R3&#45;&gt;R226 -->
<g id="edge45" class="edge">
<title>R3&#45;&gt;R226</title>
<path fill="none" stroke="black" d="M617.25,-1342.47C619.06,-1184.89 631.18,-281.68 672,-241.81 735.07,-180.21 1007.67,-206.25 1127.32,-221.11"/>
<polygon fill="black" stroke="black" points="1126.71,-224.69 1137.07,-222.47 1127.59,-217.74 1126.71,-224.69"/>
<text text-anchor="middle" x="900.5" y="-250.81" font-family="Times New Roman,serif" font-size="30.00"> &#160;&#160;296 &#160;&#160;0% &#160;&#160;0.0342 mol/s &#160;&#160;&#160;1.00E+00</text>
</g>
<!-- R227 -->
<g id="node44" class="node">
<title>R227</title>
<g id="a_node44"><a xlink:href="227.svg" xlink:title="R227">
<polygon fill="cornsilk" stroke="none" points="1232,-187.31 1138,-187.31 1138,-140.31 1232,-140.31 1232,-187.31"/>
<text text-anchor="middle" x="1185" y="-155.31" font-family="Times New Roman,serif" font-size="35.00">R227</text>
</a>
</g>
</g>
<!-- R3&#45;&gt;R227 -->
<g id="edge46" class="edge">
<title>R3&#45;&gt;R227</title>
<path fill="none" stroke="black" d="M617.17,-1342.48C618.45,-1178.79 627.9,-208.1 672,-165.81 704.22,-134.91 1001.17,-151.28 1127.52,-159.76"/>
<polygon fill="black" stroke="black" points="1126.91,-163.29 1137.12,-160.48 1127.38,-156.31 1126.91,-163.29"/>
<text text-anchor="middle" x="900.5" y="-174.81" font-family="Times New Roman,serif" font-size="30.00"> &#160;&#160;297 &#160;&#160;0% &#160;&#160;0.0342 mol/s &#160;&#160;&#160;1.00E+00</text>
</g>
<!-- R228 -->
<g id="node45" class="node">
<title>R228</title>
<g id="a_node45"><a xlink:href="228.svg" xlink:title="R228">
<polygon fill="cornsilk" stroke="none" points="1232,-122.31 1138,-122.31 1138,-75.31 1232,-75.31 1232,-122.31"/>
<text text-anchor="middle" x="1185" y="-90.31" font-family="Times New Roman,serif" font-size="35.00">R228</text>
</a>
</g>
</g>
<!-- R3&#45;&gt;R228 -->
<g id="edge47" class="edge">
<title>R3&#45;&gt;R228</title>
<path fill="none" stroke="black" d="M617.13,-1342.5C618.15,-1174.63 626.27,-155.63 672,-110.81 734.97,-49.11 1007.62,-75.8 1127.31,-90.97"/>
<polygon fill="black" stroke="black" points="1126.69,-94.55 1137.06,-92.35 1127.59,-87.6 1126.69,-94.55"/>
<text text-anchor="middle" x="900.5" y="-119.81" font-family="Times New Roman,serif" font-size="30.00"> &#160;&#160;298 &#160;&#160;0% &#160;&#160;0.0326 mol/s &#160;&#160;&#160;9.56E&#45;01</text>
</g>
<!-- R369 -->
<g id="node46" class="node">
<title>R369</title>
<g id="a_node46"><a xlink:href="369.svg" xlink:title="R369">
<polygon fill="cornsilk" stroke="none" points="1232,-57.31 1138,-57.31 1138,-10.31 1232,-10.31 1232,-57.31"/>
<text text-anchor="middle" x="1185" y="-25.31" font-family="Times New Roman,serif" font-size="35.00">R369</text>
</a>
</g>
</g>
<!-- R3&#45;&gt;R369 -->
<g id="edge48" class="edge">
<title>R3&#45;&gt;R369</title>
<path fill="none" stroke="black" d="M617.06,-1342.5C617.61,-1168.89 623,-83.01 672,-35.81 735.48,25.33 1007.85,-7.05 1127.38,-24.76"/>
<polygon fill="black" stroke="black" points="1126.71,-28.35 1137.12,-26.37 1127.75,-21.42 1126.71,-28.35"/>
<text text-anchor="middle" x="900.5" y="-44.81" font-family="Times New Roman,serif" font-size="30.00"> &#160;&#160;623 &#160;&#160;0% &#160;&#160;0.0342 mol/s &#160;&#160;&#160;1.00E+00</text>
</g>
<!-- R1 -->
<g id="node2" class="node">
<title>R1</title>
<g id="a_node2"><a xlink:href="1.svg" xlink:title="R1">
<polygon fill="cornsilk" stroke="none" points="76,-1473.31 18,-1473.31 18,-1426.31 76,-1426.31 76,-1473.31"/>
<text text-anchor="middle" x="47" y="-1441.31" font-family="Times New Roman,serif" font-size="35.00">R1</text>
</a>
</g>
</g>
<!-- R1&#45;&gt;R3 -->
<g id="edge1" class="edge">
<title>R1&#45;&gt;R3</title>
<path fill="none" stroke="black" d="M75.97,-1467.84C87.44,-1474.21 101.14,-1480.6 114.5,-1483.81 302.03,-1528.97 381.96,-1581.13 548.5,-1483.81 579.47,-1465.72 597.14,-1427.3 606.37,-1399.2"/>
<polygon fill="black" stroke="black" points="609.91,-1400.59 609.5,-1390 603.22,-1398.53 609.91,-1400.59"/>
<text text-anchor="middle" x="331.5" y="-1547.81" font-family="Times New Roman,serif" font-size="30.00"> &#160;&#160;1 &#160;&#160;1% &#160;&#160;0.0342 mol/s &#160;&#160;&#160;1.00E+00</text>
</g>
<!-- R1&#45;&gt;R3 -->
<g id="edge2" class="edge">
<title>R1&#45;&gt;R3</title>
<path fill="none" stroke="black" d="M75.83,-1448.55C87.74,-1448.01 101.8,-1447.38 114.5,-1446.81 162.72,-1444.67 503.99,-1446.48 548.5,-1427.81 564.35,-1421.17 578.74,-1408.96 590.06,-1397.12"/>
<polygon fill="black" stroke="black" points="592.25,-1399.82 596.38,-1390.06 587.06,-1395.11 592.25,-1399.82"/>
<text text-anchor="middle" x="331.5" y="-1455.81" font-family="Times New Roman,serif" font-size="30.00"> &#160;&#160;1 &#160;&#160;1% &#160;&#160;0.0342 mol/s &#160;&#160;&#160;1.00E+00</text>
</g>
<!-- R1&#45;&gt;R3 -->
<g id="edge3" class="edge">
<title>R1&#45;&gt;R3</title>
<path fill="none" stroke="black" d="M66.96,-1426.48C79.04,-1413.44 95.9,-1398.34 114.5,-1390.81 159.24,-1372.7 500.34,-1375.04 548.5,-1371.81 557.55,-1371.21 567.27,-1370.41 576.41,-1369.6"/>
<polygon fill="black" stroke="black" points="576.56,-1373.01 586.2,-1368.61 575.92,-1366.04 576.56,-1373.01"/>
<text text-anchor="middle" x="331.5" y="-1399.81" font-family="Times New Roman,serif" font-size="30.00"> &#160;&#160;1 &#160;&#160;1% &#160;&#160;0.0342 mol/s &#160;&#160;&#160;1.00E+00</text>
</g>
<!-- R57 -->
<g id="node22" class="node">
<title>R57</title>
<g id="a_node22"><a xlink:href="57.svg" xlink:title="R57">
<polygon fill="cornsilk" stroke="none" points="85,-1366.31 9,-1366.31 9,-1319.31 85,-1319.31 85,-1366.31"/>
<text text-anchor="middle" x="47" y="-1334.31" font-family="Times New Roman,serif" font-size="35.00">R57</text>
</a>
</g>
</g>
<!-- R57&#45;&gt;R3 -->
<g id="edge23" class="edge">
<title>R57&#45;&gt;R3</title>
<path fill="none" stroke="black" stroke-width="3" d="M84.89,-1337.54C168.4,-1326.68 377.93,-1305.51 548.5,-1338.81 558.1,-1340.69 568.06,-1343.95 577.26,-1347.57"/>
<polygon fill="black" stroke="black" stroke-width="3" points="572.69,-1350.13 583.26,-1350.76 575.39,-1343.67 572.69,-1350.13"/>
<text text-anchor="middle" x="331.5" y="-1347.81" font-family="Times New Roman,serif" font-size="30.00"> &#160;&#160;63 &#160;&#160;48% &#160;&#160;1.03 mol/s &#160;&#160;&#160;3.12E&#45;02</text>
</g>
<!-- R221 -->
<g id="node35" class="node">
<title>R221</title>
<g id="a_node35"><a xlink:href="221.svg" xlink:title="R221">
<polygon fill="cornsilk" stroke="none" points="94,-1301.31 0,-1301.31 0,-1254.31 94,-1254.31 94,-1301.31"/>
<text text-anchor="middle" x="47" y="-1269.31" font-family="Times New Roman,serif" font-size="35.00">R221</text>
</a>
</g>
</g>
<!-- R221&#45;&gt;R3 -->
<g id="edge37" class="edge">
<title>R221&#45;&gt;R3</title>
<path fill="none" stroke="black" stroke-width="3" d="M93.66,-1273.5C201.57,-1264.09 469.2,-1245.44 548.5,-1283.81 570,-1294.22 586.84,-1315.27 598.19,-1333.44"/>
<polygon fill="black" stroke="black" stroke-width="3" points="593.52,-1332.79 601.63,-1339.61 599.54,-1329.22 593.52,-1332.79"/>
<text text-anchor="middle" x="331.5" y="-1292.81" font-family="Times New Roman,serif" font-size="30.00"> &#160;&#160;288 &#160;&#160;49% &#160;&#160;1.04 mol/s &#160;&#160;&#160;3.09E&#45;02</text>
</g>
<!-- R224 -->
<g id="node41" class="node">
<title>R224</title>
<g id="a_node41"><a xlink:href="224.svg" xlink:title="R224">
<polygon fill="cornsilk" stroke="none" points="94,-1236.31 0,-1236.31 0,-1189.31 94,-1189.31 94,-1236.31"/>
<text text-anchor="middle" x="47" y="-1204.31" font-family="Times New Roman,serif" font-size="35.00">R224</text>
</a>
</g>
</g>
<!-- R224&#45;&gt;R3 -->
<g id="edge43" class="edge">
<title>R224&#45;&gt;R3</title>
<path fill="none" stroke="black" d="M93.72,-1198.97C187.67,-1173.46 405.62,-1129.66 548.5,-1222.81 585.65,-1247.03 602.41,-1297.85 609.71,-1331.91"/>
<polygon fill="black" stroke="black" points="606.4,-1332.19 611.76,-1341.33 613.26,-1330.84 606.4,-1332.19"/>
<text text-anchor="middle" x="331.5" y="-1231.81" font-family="Times New Roman,serif" font-size="30.00"> &#160;&#160;294 &#160;&#160;0% &#160;&#160;0.014 mol/s &#160;&#160;&#160;4.15E&#45;01</text>
</g>
</g>
</svg>
