<?xml version="1.0" encoding="UTF-8" standalone="no"?>
<!DOCTYPE svg PUBLIC "-//W3C//DTD SVG 1.1//EN"
 "http://www.w3.org/Graphics/SVG/1.1/DTD/svg11.dtd">
<!-- Generated by graphviz version 8.0.3 (20230416.2022)
 -->
<!-- Title: G Pages: 1 -->
<svg width="276pt" height="640pt"
 viewBox="0.00 0.00 310.03 720.00" xmlns="http://www.w3.org/2000/svg" xmlns:xlink="http://www.w3.org/1999/xlink">
<g id="graph0" class="graph" transform="scale(0.217678 0.217678) rotate(0) translate(4 2936.12)">
<title>G</title>
<polygon fill="white" stroke="none" points="-4,4 -4,-2936.12 1262,-2936.12 1262,4 -4,4"/>
<text text-anchor="middle" x="629" y="-2899.32" font-family="Arial" font-size="36.00" fill="blue">Reaction Path Analysis</text>
<!-- R3 -->
<g id="node1" class="node">
<title>R3</title>
<g id="a_node1"><a xlink:href="3.svg" xlink:title="R3">
<polygon fill="cornsilk" stroke="none" points="649,-1489.62 591,-1489.62 591,-1442.62 649,-1442.62 649,-1489.62"/>
<text text-anchor="middle" x="620" y="-1457.62" font-family="Times New Roman,serif" font-size="35.00">R3</text>
</a>
</g>
</g>
<!-- R5 -->
<g id="node3" class="node">
<title>R5</title>
<g id="a_node3"><a xlink:href="5.svg" xlink:title="R5">
<polygon fill="cornsilk" stroke="none" points="1240,-2854.62 1182,-2854.62 1182,-2807.62 1240,-2807.62 1240,-2854.62"/>
<text text-anchor="middle" x="1211" y="-2822.62" font-family="Times New Roman,serif" font-size="35.00">R5</text>
</a>
</g>
</g>
<!-- R3&#45;&gt;R5 -->
<g id="edge4" class="edge">
<title>R3&#45;&gt;R5</title>
<path fill="none" stroke="black" d="M621.07,-1489.59C621.72,-1664.35 627.67,-2757.51 676,-2806.12 744.8,-2875.32 1060.86,-2847.7 1171.57,-2835.63"/>
<polygon fill="black" stroke="black" points="1171.68,-2839.03 1181.23,-2834.45 1170.9,-2832.07 1171.68,-2839.03"/>
<text text-anchor="middle" x="915.5" y="-2860.12" font-family="Times New Roman,serif" font-size="30.00"> &#160;&#160;4 &#160;&#160;2% &#160;&#160;2.18e&#45;15 mol/s &#160;&#160;&#160;1.00E+00</text>
</g>
<!-- R7 -->
<g id="node4" class="node">
<title>R7</title>
<g id="a_node4"><a xlink:href="7.svg" xlink:title="R7">
<polygon fill="cornsilk" stroke="none" points="1240,-2789.62 1182,-2789.62 1182,-2742.62 1240,-2742.62 1240,-2789.62"/>
<text text-anchor="middle" x="1211" y="-2757.62" font-family="Times New Roman,serif" font-size="35.00">R7</text>
</a>
</g>
</g>
<!-- R3&#45;&gt;R7 -->
<g id="edge5" class="edge">
<title>R3&#45;&gt;R7</title>
<path fill="none" stroke="black" d="M621.12,-1489.52C622.12,-1659.16 630.06,-2695.01 676,-2741.12 710.71,-2775.96 1053.96,-2770.25 1171.08,-2767.25"/>
<polygon fill="black" stroke="black" points="1171.1,-2770.72 1181.01,-2766.96 1170.92,-2763.72 1171.1,-2770.72"/>
<text text-anchor="middle" x="915.5" y="-2778.12" font-family="Times New Roman,serif" font-size="30.00"> &#160;&#160;7 &#160;&#160;2% &#160;&#160;2.18e&#45;15 mol/s &#160;&#160;&#160;1.00E+00</text>
</g>
<!-- R8 -->
<g id="node5" class="node">
<title>R8</title>
<g id="a_node5"><a xlink:href="8.svg" xlink:title="R8">
<polygon fill="cornsilk" stroke="none" points="1240,-2724.62 1182,-2724.62 1182,-2677.62 1240,-2677.62 1240,-2724.62"/>
<text text-anchor="middle" x="1211" y="-2692.62" font-family="Times New Roman,serif" font-size="35.00">R8</text>
</a>
</g>
</g>
<!-- R3&#45;&gt;R8 -->
<g id="edge6" class="edge">
<title>R3&#45;&gt;R8</title>
<path fill="none" stroke="black" d="M621.18,-1489.37C622.53,-1653.5 632.44,-2632.5 676,-2676.12 710.75,-2710.92 1053.97,-2705.23 1171.08,-2702.24"/>
<polygon fill="black" stroke="black" points="1171.11,-2705.72 1181.01,-2701.96 1170.92,-2698.72 1171.11,-2705.72"/>
<text text-anchor="middle" x="915.5" y="-2713.12" font-family="Times New Roman,serif" font-size="30.00"> &#160;&#160;8 &#160;&#160;2% &#160;&#160;2.18e&#45;15 mol/s &#160;&#160;&#160;1.00E+00</text>
</g>
<!-- R10 -->
<g id="node6" class="node">
<title>R10</title>
<g id="a_node6"><a xlink:href="10.svg" xlink:title="R10">
<polygon fill="cornsilk" stroke="none" points="1249,-2659.62 1173,-2659.62 1173,-2612.62 1249,-2612.62 1249,-2659.62"/>
<text text-anchor="middle" x="1211" y="-2627.62" font-family="Times New Roman,serif" font-size="35.00">R10</text>
</a>
</g>
</g>
<!-- R3&#45;&gt;R10 -->
<g id="edge7" class="edge">
<title>R3&#45;&gt;R10</title>
<path fill="none" stroke="black" d="M621.24,-1489.4C622.97,-1648.54 634.76,-2571.01 676,-2612.12 710.01,-2646.03 1038.17,-2640.79 1162.54,-2637.54"/>
<polygon fill="black" stroke="black" points="1162.33,-2641.02 1172.23,-2637.26 1162.14,-2634.03 1162.33,-2641.02"/>
<text text-anchor="middle" x="915.5" y="-2648.12" font-family="Times New Roman,serif" font-size="30.00"> &#160;&#160;10 &#160;&#160;2% &#160;&#160;2.18e&#45;15 mol/s &#160;&#160;&#160;1.00E+00</text>
</g>
<!-- R11 -->
<g id="node7" class="node">
<title>R11</title>
<g id="a_node7"><a xlink:href="11.svg" xlink:title="R11">
<polygon fill="cornsilk" stroke="none" points="1249,-2594.62 1173,-2594.62 1173,-2547.62 1249,-2547.62 1249,-2594.62"/>
<text text-anchor="middle" x="1211" y="-2562.62" font-family="Times New Roman,serif" font-size="35.00">R11</text>
</a>
</g>
</g>
<!-- R3&#45;&gt;R11 -->
<g id="edge8" class="edge">
<title>R3&#45;&gt;R11</title>
<path fill="none" stroke="black" d="M621.3,-1489.32C623.42,-1643.02 637.07,-2509.49 676,-2548.12 710.09,-2581.94 1038.2,-2576.11 1162.55,-2572.63"/>
<polygon fill="black" stroke="black" points="1162.34,-2576.11 1172.24,-2572.32 1162.14,-2569.11 1162.34,-2576.11"/>
<text text-anchor="middle" x="915.5" y="-2584.12" font-family="Times New Roman,serif" font-size="30.00"> &#160;&#160;11 &#160;&#160;2% &#160;&#160;2.18e&#45;15 mol/s &#160;&#160;&#160;1.00E+00</text>
</g>
<!-- R12 -->
<g id="node8" class="node">
<title>R12</title>
<g id="a_node8"><a xlink:href="12.svg" xlink:title="R12">
<polygon fill="cornsilk" stroke="none" points="1249,-2529.62 1173,-2529.62 1173,-2482.62 1249,-2482.62 1249,-2529.62"/>
<text text-anchor="middle" x="1211" y="-2497.62" font-family="Times New Roman,serif" font-size="35.00">R12</text>
</a>
</g>
</g>
<!-- R3&#45;&gt;R12 -->
<g id="edge9" class="edge">
<title>R3&#45;&gt;R12</title>
<path fill="none" stroke="black" d="M621.38,-1489.39C623.9,-1637.98 639.33,-2448.98 676,-2485.12 710.2,-2518.82 1038.24,-2511.75 1162.56,-2507.81"/>
<polygon fill="black" stroke="black" points="1162.37,-2511.29 1172.25,-2507.46 1162.14,-2504.29 1162.37,-2511.29"/>
<text text-anchor="middle" x="915.5" y="-2520.12" font-family="Times New Roman,serif" font-size="30.00"> &#160;&#160;12 &#160;&#160;2% &#160;&#160;2.18e&#45;15 mol/s &#160;&#160;&#160;1.00E+00</text>
</g>
<!-- R14 -->
<g id="node9" class="node">
<title>R14</title>
<g id="a_node9"><a xlink:href="14.svg" xlink:title="R14">
<polygon fill="cornsilk" stroke="none" points="1249,-2464.62 1173,-2464.62 1173,-2417.62 1249,-2417.62 1249,-2464.62"/>
<text text-anchor="middle" x="1211" y="-2432.62" font-family="Times New Roman,serif" font-size="35.00">R14</text>
</a>
</g>
</g>
<!-- R3&#45;&gt;R14 -->
<g id="edge10" class="edge">
<title>R3&#45;&gt;R14</title>
<path fill="none" stroke="black" d="M621.45,-1489.5C624.32,-1633.54 641.11,-2395.42 676,-2429.12 710.52,-2462.46 1038.36,-2449.73 1162.6,-2443.63"/>
<polygon fill="black" stroke="black" points="1162.46,-2447.09 1172.27,-2443.1 1162.11,-2440.1 1162.46,-2447.09"/>
<text text-anchor="middle" x="915.5" y="-2460.12" font-family="Times New Roman,serif" font-size="30.00"> &#160;&#160;14 &#160;&#160;0% &#160;&#160;2.2e&#45;26 mol/s &#160;&#160;&#160;1.00E+00</text>
</g>
<!-- R3&#45;&gt;R14 -->
<g id="edge24" class="edge">
<title>R3&#45;&gt;R14</title>
<path fill="none" stroke="black" d="M621.54,-1489.47C624.86,-1628.39 643.45,-2341.25 676,-2373.12 714.06,-2410.39 1109.92,-2363.75 1155,-2392.12 1162.24,-2396.67 1158.33,-2402.72 1164,-2409.12 1164.53,-2409.72 1165.08,-2410.32 1165.64,-2410.9"/>
<polygon fill="black" stroke="black" points="1162.76,-2412.94 1172.45,-2417.22 1167.54,-2407.83 1162.76,-2412.94"/>
<text text-anchor="middle" x="915.5" y="-2401.12" font-family="Times New Roman,serif" font-size="30.00"> &#160;&#160;101 &#160;&#160;0% &#160;&#160;5.05e&#45;21 mol/s &#160;&#160;&#160;4.36E&#45;06</text>
</g>
<!-- R46 -->
<g id="node10" class="node">
<title>R46</title>
<g id="a_node10"><a xlink:href="46.svg" xlink:title="R46">
<polygon fill="cornsilk" stroke="none" points="1249,-2399.62 1173,-2399.62 1173,-2352.62 1249,-2352.62 1249,-2399.62"/>
<text text-anchor="middle" x="1211" y="-2367.62" font-family="Times New Roman,serif" font-size="35.00">R46</text>
</a>
</g>
</g>
<!-- R3&#45;&gt;R46 -->
<g id="edge11" class="edge">
<title>R3&#45;&gt;R46</title>
<path fill="none" stroke="black" d="M620.7,-1489.25C619.27,-1619.46 615.37,-2257.49 676,-2317.12 713.99,-2354.48 1104.32,-2323.67 1155,-2340.12 1158.2,-2341.16 1162.84,-2343.63 1168.09,-2346.81"/>
<polygon fill="black" stroke="black" points="1166.04,-2350.29 1176.35,-2352.72 1169.8,-2344.39 1166.04,-2350.29"/>
<text text-anchor="middle" x="915.5" y="-2349.12" font-family="Times New Roman,serif" font-size="30.00"> &#160;&#160;51 &#160;&#160;2% &#160;&#160;2.18e&#45;15 mol/s &#160;&#160;&#160;1.00E+00</text>
</g>
<!-- R47 -->
<g id="node11" class="node">
<title>R47</title>
<g id="a_node11"><a xlink:href="47.svg" xlink:title="R47">
<polygon fill="cornsilk" stroke="none" points="1249,-2334.62 1173,-2334.62 1173,-2287.62 1249,-2287.62 1249,-2334.62"/>
<text text-anchor="middle" x="1211" y="-2302.62" font-family="Times New Roman,serif" font-size="35.00">R47</text>
</a>
</g>
</g>
<!-- R3&#45;&gt;R47 -->
<g id="edge12" class="edge">
<title>R3&#45;&gt;R47</title>
<path fill="none" stroke="black" d="M620.82,-1489.34C620.05,-1614.58 619.47,-2205.77 676,-2261.12 714.07,-2298.4 1103.4,-2270.83 1155,-2284.12 1157.66,-2284.8 1160.34,-2285.63 1163.01,-2286.55"/>
<polygon fill="black" stroke="black" points="1161.63,-2290.16 1172.21,-2290.54 1164.18,-2283.64 1161.63,-2290.16"/>
<text text-anchor="middle" x="915.5" y="-2293.12" font-family="Times New Roman,serif" font-size="30.00"> &#160;&#160;52 &#160;&#160;2% &#160;&#160;2.18e&#45;15 mol/s &#160;&#160;&#160;1.00E+00</text>
</g>
<!-- R36 -->
<g id="node12" class="node">
<title>R36</title>
<g id="a_node12"><a xlink:href="36.svg" xlink:title="R36">
<polygon fill="cornsilk" stroke="none" points="1249,-2269.62 1173,-2269.62 1173,-2222.62 1249,-2222.62 1249,-2269.62"/>
<text text-anchor="middle" x="1211" y="-2237.62" font-family="Times New Roman,serif" font-size="35.00">R36</text>
</a>
</g>
</g>
<!-- R3&#45;&gt;R36 -->
<g id="edge13" class="edge">
<title>R3&#45;&gt;R36</title>
<path fill="none" stroke="black" d="M620.94,-1489.26C620.89,-1608.94 623.53,-2154.01 676,-2205.12 714.17,-2242.3 1102.6,-2218.47 1155,-2228.12 1157.5,-2228.58 1160.05,-2229.13 1162.6,-2229.73"/>
<polygon fill="black" stroke="black" points="1161.51,-2233.33 1172.07,-2232.54 1163.32,-2226.57 1161.51,-2233.33"/>
<text text-anchor="middle" x="915.5" y="-2237.12" font-family="Times New Roman,serif" font-size="30.00"> &#160;&#160;53 &#160;&#160;2% &#160;&#160;2.18e&#45;15 mol/s &#160;&#160;&#160;1.00E+00</text>
</g>
<!-- R48 -->
<g id="node13" class="node">
<title>R48</title>
<g id="a_node13"><a xlink:href="48.svg" xlink:title="R48">
<polygon fill="cornsilk" stroke="none" points="1249,-2204.62 1173,-2204.62 1173,-2157.62 1249,-2157.62 1249,-2204.62"/>
<text text-anchor="middle" x="1211" y="-2172.62" font-family="Times New Roman,serif" font-size="35.00">R48</text>
</a>
</g>
</g>
<!-- R3&#45;&gt;R48 -->
<g id="edge14" class="edge">
<title>R3&#45;&gt;R48</title>
<path fill="none" stroke="black" d="M621.09,-1489.37C621.79,-1603.66 627.6,-2102.27 676,-2149.12 695.14,-2167.65 1128.51,-2169.32 1155,-2172.12 1157.38,-2172.37 1159.82,-2172.66 1162.28,-2172.97"/>
<polygon fill="black" stroke="black" points="1161.71,-2176.57 1172.1,-2174.49 1162.68,-2169.63 1161.71,-2176.57"/>
<text text-anchor="middle" x="915.5" y="-2181.12" font-family="Times New Roman,serif" font-size="30.00"> &#160;&#160;54 &#160;&#160;2% &#160;&#160;2.18e&#45;15 mol/s &#160;&#160;&#160;1.00E+00</text>
</g>
<!-- R49 -->
<g id="node14" class="node">
<title>R49</title>
<g id="a_node14"><a xlink:href="49.svg" xlink:title="R49">
<polygon fill="cornsilk" stroke="none" points="1249,-2139.62 1173,-2139.62 1173,-2092.62 1249,-2092.62 1249,-2139.62"/>
<text text-anchor="middle" x="1211" y="-2107.62" font-family="Times New Roman,serif" font-size="35.00">R49</text>
</a>
</g>
</g>
<!-- R3&#45;&gt;R49 -->
<g id="edge15" class="edge">
<title>R3&#45;&gt;R49</title>
<path fill="none" stroke="black" d="M621.28,-1489.49C622.83,-1597.83 631.9,-2047.72 676,-2090.12 693.37,-2106.82 1034.16,-2113.54 1162.06,-2115.48"/>
<polygon fill="black" stroke="black" points="1161.99,-2118.99 1172.04,-2115.64 1162.09,-2111.99 1161.99,-2118.99"/>
<text text-anchor="middle" x="915.5" y="-2124.12" font-family="Times New Roman,serif" font-size="30.00"> &#160;&#160;55 &#160;&#160;2% &#160;&#160;2.18e&#45;15 mol/s &#160;&#160;&#160;1.00E+00</text>
</g>
<!-- R50 -->
<g id="node15" class="node">
<title>R50</title>
<g id="a_node15"><a xlink:href="50.svg" xlink:title="R50">
<polygon fill="cornsilk" stroke="none" points="1249,-2074.62 1173,-2074.62 1173,-2027.62 1249,-2027.62 1249,-2074.62"/>
<text text-anchor="middle" x="1211" y="-2042.62" font-family="Times New Roman,serif" font-size="35.00">R50</text>
</a>
</g>
</g>
<!-- R3&#45;&gt;R50 -->
<g id="edge16" class="edge">
<title>R3&#45;&gt;R50</title>
<path fill="none" stroke="black" d="M621.53,-1489.38C624.08,-1590.4 636.58,-1987.6 676,-2025.12 710.79,-2058.23 1038.47,-2054.8 1162.63,-2052.27"/>
<polygon fill="black" stroke="black" points="1162.37,-2055.75 1172.3,-2052.04 1162.23,-2048.75 1162.37,-2055.75"/>
<text text-anchor="middle" x="915.5" y="-2062.12" font-family="Times New Roman,serif" font-size="30.00"> &#160;&#160;56 &#160;&#160;2% &#160;&#160;2.18e&#45;15 mol/s &#160;&#160;&#160;1.00E+00</text>
</g>
<!-- R51 -->
<g id="node16" class="node">
<title>R51</title>
<g id="a_node16"><a xlink:href="51.svg" xlink:title="R51">
<polygon fill="cornsilk" stroke="none" points="1249,-2009.62 1173,-2009.62 1173,-1962.62 1249,-1962.62 1249,-2009.62"/>
<text text-anchor="middle" x="1211" y="-1977.62" font-family="Times New Roman,serif" font-size="35.00">R51</text>
</a>
</g>
</g>
<!-- R3&#45;&gt;R51 -->
<g id="edge17" class="edge">
<title>R3&#45;&gt;R51</title>
<path fill="none" stroke="black" d="M621.85,-1489.47C625.51,-1583.04 641.25,-1927.47 676,-1960.12 711.01,-1993.01 1038.55,-1989.71 1162.65,-1987.24"/>
<polygon fill="black" stroke="black" points="1162.39,-1990.73 1172.32,-1987.02 1162.25,-1983.73 1162.39,-1990.73"/>
<text text-anchor="middle" x="915.5" y="-1997.12" font-family="Times New Roman,serif" font-size="30.00"> &#160;&#160;57 &#160;&#160;2% &#160;&#160;2.18e&#45;15 mol/s &#160;&#160;&#160;1.00E+00</text>
</g>
<!-- R52 -->
<g id="node17" class="node">
<title>R52</title>
<g id="a_node17"><a xlink:href="52.svg" xlink:title="R52">
<polygon fill="cornsilk" stroke="none" points="1249,-1944.62 1173,-1944.62 1173,-1897.62 1249,-1897.62 1249,-1944.62"/>
<text text-anchor="middle" x="1211" y="-1912.62" font-family="Times New Roman,serif" font-size="35.00">R52</text>
</a>
</g>
</g>
<!-- R3&#45;&gt;R52 -->
<g id="edge18" class="edge">
<title>R3&#45;&gt;R52</title>
<path fill="none" stroke="black" d="M622.28,-1489.48C627.18,-1574.85 646,-1866.35 676,-1894.12 711.26,-1926.75 1038.65,-1924.26 1162.68,-1922.12"/>
<polygon fill="black" stroke="black" points="1162.4,-1925.6 1172.34,-1921.92 1162.28,-1918.61 1162.4,-1925.6"/>
<text text-anchor="middle" x="915.5" y="-1932.12" font-family="Times New Roman,serif" font-size="30.00"> &#160;&#160;58 &#160;&#160;2% &#160;&#160;2.18e&#45;15 mol/s &#160;&#160;&#160;1.00E+00</text>
</g>
<!-- R53 -->
<g id="node18" class="node">
<title>R53</title>
<g id="a_node18"><a xlink:href="53.svg" xlink:title="R53">
<polygon fill="cornsilk" stroke="none" points="1249,-1879.62 1173,-1879.62 1173,-1832.62 1249,-1832.62 1249,-1879.62"/>
<text text-anchor="middle" x="1211" y="-1847.62" font-family="Times New Roman,serif" font-size="35.00">R53</text>
</a>
</g>
</g>
<!-- R3&#45;&gt;R53 -->
<g id="edge19" class="edge">
<title>R3&#45;&gt;R53</title>
<path fill="none" stroke="black" d="M620.87,-1489.55C621.01,-1562.52 625.66,-1783.57 676,-1829.12 711.62,-1861.35 1038.79,-1859.11 1162.72,-1857.07"/>
<polygon fill="black" stroke="black" points="1162.43,-1860.56 1172.37,-1856.89 1162.31,-1853.56 1162.43,-1860.56"/>
<text text-anchor="middle" x="915.5" y="-1866.12" font-family="Times New Roman,serif" font-size="30.00"> &#160;&#160;59 &#160;&#160;2% &#160;&#160;2.18e&#45;15 mol/s &#160;&#160;&#160;1.00E+00</text>
</g>
<!-- R54 -->
<g id="node19" class="node">
<title>R54</title>
<g id="a_node19"><a xlink:href="54.svg" xlink:title="R54">
<polygon fill="cornsilk" stroke="none" points="1249,-1814.62 1173,-1814.62 1173,-1767.62 1249,-1767.62 1249,-1814.62"/>
<text text-anchor="middle" x="1211" y="-1782.62" font-family="Times New Roman,serif" font-size="35.00">R54</text>
</a>
</g>
</g>
<!-- R3&#45;&gt;R54 -->
<g id="edge20" class="edge">
<title>R3&#45;&gt;R54</title>
<path fill="none" stroke="black" d="M621.72,-1489.36C624.21,-1553.03 634.75,-1727.98 676,-1764.12 712.09,-1795.74 1038.22,-1793.89 1162.34,-1792.02"/>
<polygon fill="black" stroke="black" points="1162.07,-1795.51 1172.01,-1791.85 1161.96,-1788.51 1162.07,-1795.51"/>
<text text-anchor="middle" x="915.5" y="-1801.12" font-family="Times New Roman,serif" font-size="30.00"> &#160;&#160;60 &#160;&#160;2% &#160;&#160;2.18e&#45;15 mol/s &#160;&#160;&#160;1.00E+00</text>
</g>
<!-- R55 -->
<g id="node20" class="node">
<title>R55</title>
<g id="a_node20"><a xlink:href="55.svg" xlink:title="R55">
<polygon fill="cornsilk" stroke="none" points="1249,-1749.62 1173,-1749.62 1173,-1702.62 1249,-1702.62 1249,-1749.62"/>
<text text-anchor="middle" x="1211" y="-1717.62" font-family="Times New Roman,serif" font-size="35.00">R55</text>
</a>
</g>
</g>
<!-- R3&#45;&gt;R55 -->
<g id="edge21" class="edge">
<title>R3&#45;&gt;R55</title>
<path fill="none" stroke="black" d="M623.06,-1489.55C628.29,-1543.01 643.97,-1671.41 676,-1698.12 712.85,-1728.86 1038.51,-1728.21 1162.42,-1726.82"/>
<polygon fill="black" stroke="black" points="1162.12,-1730.31 1172.08,-1726.69 1162.04,-1723.31 1162.12,-1730.31"/>
<text text-anchor="middle" x="915.5" y="-1736.12" font-family="Times New Roman,serif" font-size="30.00"> &#160;&#160;61 &#160;&#160;2% &#160;&#160;2.18e&#45;15 mol/s &#160;&#160;&#160;1.00E+00</text>
</g>
<!-- R56 -->
<g id="node21" class="node">
<title>R56</title>
<g id="a_node21"><a xlink:href="56.svg" xlink:title="R56">
<polygon fill="cornsilk" stroke="none" points="1249,-1684.62 1173,-1684.62 1173,-1637.62 1249,-1637.62 1249,-1684.62"/>
<text text-anchor="middle" x="1211" y="-1652.62" font-family="Times New Roman,serif" font-size="35.00">R56</text>
</a>
</g>
</g>
<!-- R3&#45;&gt;R56 -->
<g id="edge22" class="edge">
<title>R3&#45;&gt;R56</title>
<path fill="none" stroke="black" d="M620.99,-1489.62C622.39,-1526.89 631.13,-1598.83 676,-1633.12 714.09,-1662.23 1038.35,-1662.59 1162.19,-1661.65"/>
<polygon fill="black" stroke="black" points="1162.22,-1665.14 1172.19,-1661.56 1162.16,-1658.14 1162.22,-1665.14"/>
<text text-anchor="middle" x="915.5" y="-1670.12" font-family="Times New Roman,serif" font-size="30.00"> &#160;&#160;62 &#160;&#160;2% &#160;&#160;2.18e&#45;15 mol/s &#160;&#160;&#160;1.00E+00</text>
</g>
<!-- R57 -->
<g id="node22" class="node">
<title>R57</title>
<g id="a_node22"><a xlink:href="57.svg" xlink:title="R57">
<polygon fill="cornsilk" stroke="none" points="1249,-1619.62 1173,-1619.62 1173,-1572.62 1249,-1572.62 1249,-1619.62"/>
<text text-anchor="middle" x="1211" y="-1587.62" font-family="Times New Roman,serif" font-size="35.00">R57</text>
</a>
</g>
</g>
<!-- R3&#45;&gt;R57 -->
<g id="edge23" class="edge">
<title>R3&#45;&gt;R57</title>
<path fill="none" stroke="black" d="M626.33,-1489.56C633.25,-1514.05 647.93,-1551.31 676,-1569.12 716.47,-1594.8 1039.27,-1596.62 1162.46,-1596.36"/>
<polygon fill="black" stroke="black" points="1162.41,-1599.86 1172.4,-1596.33 1162.39,-1592.86 1162.41,-1599.86"/>
<text text-anchor="middle" x="915.5" y="-1605.12" font-family="Times New Roman,serif" font-size="30.00"> &#160;&#160;63 &#160;&#160;2% &#160;&#160;2.18e&#45;15 mol/s &#160;&#160;&#160;1.00E+00</text>
</g>
<!-- R98 -->
<g id="node23" class="node">
<title>R98</title>
<g id="a_node23"><a xlink:href="98.svg" xlink:title="R98">
<polygon fill="cornsilk" stroke="none" points="1249,-1554.62 1173,-1554.62 1173,-1507.62 1249,-1507.62 1249,-1554.62"/>
<text text-anchor="middle" x="1211" y="-1522.62" font-family="Times New Roman,serif" font-size="35.00">R98</text>
</a>
</g>
</g>
<!-- R3&#45;&gt;R98 -->
<g id="edge25" class="edge">
<title>R3&#45;&gt;R98</title>
<path fill="none" stroke="black" d="M648.84,-1489.06C657.11,-1494.66 666.5,-1499.95 676,-1503.12 765.37,-1532.96 1048.76,-1533.08 1162.29,-1531.85"/>
<polygon fill="black" stroke="black" points="1162.09,-1535.34 1172.05,-1531.73 1162.01,-1528.35 1162.09,-1535.34"/>
<text text-anchor="middle" x="915.5" y="-1541.12" font-family="Times New Roman,serif" font-size="30.00"> &#160;&#160;276 &#160;&#160;2% &#160;&#160;2.18e&#45;15 mol/s &#160;&#160;&#160;1.00E+00</text>
</g>
<!-- R215 -->
<g id="node24" class="node">
<title>R215</title>
<g id="a_node24"><a xlink:href="215.svg" xlink:title="R215">
<polygon fill="cornsilk" stroke="none" points="1258,-1489.62 1164,-1489.62 1164,-1442.62 1258,-1442.62 1258,-1489.62"/>
<text text-anchor="middle" x="1211" y="-1457.62" font-family="Times New Roman,serif" font-size="35.00">R215</text>
</a>
</g>
</g>
<!-- R3&#45;&gt;R215 -->
<g id="edge26" class="edge">
<title>R3&#45;&gt;R215</title>
<path fill="none" stroke="black" d="M648.62,-1466.12C739.47,-1466.12 1030.25,-1466.12 1153.71,-1466.12"/>
<polygon fill="black" stroke="black" points="1153.42,-1469.62 1163.42,-1466.12 1153.42,-1462.62 1153.42,-1469.62"/>
<text text-anchor="middle" x="915.5" y="-1475.12" font-family="Times New Roman,serif" font-size="30.00"> &#160;&#160;277 &#160;&#160;2% &#160;&#160;2.18e&#45;15 mol/s &#160;&#160;&#160;1.00E+00</text>
</g>
<!-- R216 -->
<g id="node25" class="node">
<title>R216</title>
<g id="a_node25"><a xlink:href="216.svg" xlink:title="R216">
<polygon fill="cornsilk" stroke="none" points="1258,-1424.62 1164,-1424.62 1164,-1377.62 1258,-1377.62 1258,-1424.62"/>
<text text-anchor="middle" x="1211" y="-1392.62" font-family="Times New Roman,serif" font-size="35.00">R216</text>
</a>
</g>
</g>
<!-- R3&#45;&gt;R216 -->
<g id="edge27" class="edge">
<title>R3&#45;&gt;R216</title>
<path fill="none" stroke="black" d="M648.84,-1443.18C657.11,-1437.58 666.5,-1432.29 676,-1429.12 842.35,-1373.57 1053.99,-1384.76 1153.48,-1394.44"/>
<polygon fill="black" stroke="black" points="1152.89,-1398 1163.19,-1395.52 1153.59,-1391.03 1152.89,-1398"/>
<text text-anchor="middle" x="915.5" y="-1438.12" font-family="Times New Roman,serif" font-size="30.00"> &#160;&#160;278 &#160;&#160;2% &#160;&#160;2.18e&#45;15 mol/s &#160;&#160;&#160;1.00E+00</text>
</g>
<!-- R59 -->
<g id="node26" class="node">
<title>R59</title>
<g id="a_node26"><a xlink:href="59.svg" xlink:title="R59">
<polygon fill="cornsilk" stroke="none" points="1249,-1359.62 1173,-1359.62 1173,-1312.62 1249,-1312.62 1249,-1359.62"/>
<text text-anchor="middle" x="1211" y="-1327.62" font-family="Times New Roman,serif" font-size="35.00">R59</text>
</a>
</g>
</g>
<!-- R3&#45;&gt;R59 -->
<g id="edge28" class="edge">
<title>R3&#45;&gt;R59</title>
<path fill="none" stroke="black" d="M624.7,-1442.64C630.41,-1415.16 644.25,-1370.79 676,-1350.12 755.24,-1298.53 1047.08,-1320.24 1162.53,-1331.22"/>
<polygon fill="black" stroke="black" points="1161.85,-1334.76 1172.14,-1332.24 1162.53,-1327.8 1161.85,-1334.76"/>
<text text-anchor="middle" x="915.5" y="-1359.12" font-family="Times New Roman,serif" font-size="30.00"> &#160;&#160;279 &#160;&#160;2% &#160;&#160;2.18e&#45;15 mol/s &#160;&#160;&#160;1.00E+00</text>
</g>
<!-- R217 -->
<g id="node27" class="node">
<title>R217</title>
<g id="a_node27"><a xlink:href="217.svg" xlink:title="R217">
<polygon fill="cornsilk" stroke="none" points="1258,-1294.62 1164,-1294.62 1164,-1247.62 1258,-1247.62 1258,-1294.62"/>
<text text-anchor="middle" x="1211" y="-1262.62" font-family="Times New Roman,serif" font-size="35.00">R217</text>
</a>
</g>
</g>
<!-- R3&#45;&gt;R217 -->
<g id="edge29" class="edge">
<title>R3&#45;&gt;R217</title>
<path fill="none" stroke="black" d="M624.51,-1442.63C631.79,-1397.39 650.06,-1300.85 676,-1281.12 749.52,-1225.2 1032.05,-1250.26 1153.72,-1264.13"/>
<polygon fill="black" stroke="black" points="1152.96,-1267.68 1163.29,-1265.35 1153.76,-1260.72 1152.96,-1267.68"/>
<text text-anchor="middle" x="915.5" y="-1290.12" font-family="Times New Roman,serif" font-size="30.00"> &#160;&#160;280 &#160;&#160;2% &#160;&#160;2.18e&#45;15 mol/s &#160;&#160;&#160;1.00E+00</text>
</g>
<!-- R140 -->
<g id="node28" class="node">
<title>R140</title>
<g id="a_node28"><a xlink:href="140.svg" xlink:title="R140">
<polygon fill="cornsilk" stroke="none" points="1258,-1229.62 1164,-1229.62 1164,-1182.62 1258,-1182.62 1258,-1229.62"/>
<text text-anchor="middle" x="1211" y="-1197.62" font-family="Times New Roman,serif" font-size="35.00">R140</text>
</a>
</g>
</g>
<!-- R3&#45;&gt;R140 -->
<g id="edge30" class="edge">
<title>R3&#45;&gt;R140</title>
<path fill="none" stroke="black" d="M622.41,-1442.77C626.4,-1385.29 639.95,-1239.47 676,-1210.12 712.28,-1180.58 1023.38,-1195.14 1153.33,-1202.62"/>
<polygon fill="black" stroke="black" points="1153.03,-1206.16 1163.22,-1203.25 1153.44,-1199.18 1153.03,-1206.16"/>
<text text-anchor="middle" x="915.5" y="-1219.12" font-family="Times New Roman,serif" font-size="30.00"> &#160;&#160;281 &#160;&#160;2% &#160;&#160;2.18e&#45;15 mol/s &#160;&#160;&#160;1.00E+00</text>
</g>
<!-- R141 -->
<g id="node29" class="node">
<title>R141</title>
<g id="a_node29"><a xlink:href="141.svg" xlink:title="R141">
<polygon fill="cornsilk" stroke="none" points="1258,-1164.62 1164,-1164.62 1164,-1117.62 1258,-1117.62 1258,-1164.62"/>
<text text-anchor="middle" x="1211" y="-1132.62" font-family="Times New Roman,serif" font-size="35.00">R141</text>
</a>
</g>
</g>
<!-- R3&#45;&gt;R141 -->
<g id="edge31" class="edge">
<title>R3&#45;&gt;R141</title>
<path fill="none" stroke="black" d="M621.49,-1442.85C623.41,-1377.31 632.64,-1193.51 676,-1156.12 746.05,-1095.71 1031.17,-1120.34 1153.65,-1134.16"/>
<polygon fill="black" stroke="black" points="1152.95,-1137.71 1163.28,-1135.37 1153.75,-1130.76 1152.95,-1137.71"/>
<text text-anchor="middle" x="915.5" y="-1165.12" font-family="Times New Roman,serif" font-size="30.00"> &#160;&#160;282 &#160;&#160;2% &#160;&#160;2.18e&#45;15 mol/s &#160;&#160;&#160;1.00E+00</text>
</g>
<!-- R218 -->
<g id="node30" class="node">
<title>R218</title>
<g id="a_node30"><a xlink:href="218.svg" xlink:title="R218">
<polygon fill="cornsilk" stroke="none" points="1258,-1099.62 1164,-1099.62 1164,-1052.62 1258,-1052.62 1258,-1099.62"/>
<text text-anchor="middle" x="1211" y="-1067.62" font-family="Times New Roman,serif" font-size="35.00">R218</text>
</a>
</g>
</g>
<!-- R3&#45;&gt;R218 -->
<g id="edge32" class="edge">
<title>R3&#45;&gt;R218</title>
<path fill="none" stroke="black" d="M620.57,-1442.81C619.72,-1366.88 621.52,-1128.82 676,-1081.12 711.2,-1050.3 1022.93,-1064.98 1153.19,-1072.56"/>
<polygon fill="black" stroke="black" points="1152.91,-1076.11 1163.1,-1073.2 1153.33,-1069.12 1152.91,-1076.11"/>
<text text-anchor="middle" x="915.5" y="-1090.12" font-family="Times New Roman,serif" font-size="30.00"> &#160;&#160;283 &#160;&#160;2% &#160;&#160;2.18e&#45;15 mol/s &#160;&#160;&#160;1.00E+00</text>
</g>
<!-- R77 -->
<g id="node31" class="node">
<title>R77</title>
<g id="a_node31"><a xlink:href="77.svg" xlink:title="R77">
<polygon fill="cornsilk" stroke="none" points="1249,-1034.62 1173,-1034.62 1173,-987.62 1249,-987.62 1249,-1034.62"/>
<text text-anchor="middle" x="1211" y="-1002.62" font-family="Times New Roman,serif" font-size="35.00">R77</text>
</a>
</g>
</g>
<!-- R3&#45;&gt;R77 -->
<g id="edge33" class="edge">
<title>R3&#45;&gt;R77</title>
<path fill="none" stroke="black" d="M622.17,-1442.68C626.77,-1355.62 644.83,-1054.42 676,-1026.12 746.17,-962.4 1044.73,-990.87 1162.22,-1004.94"/>
<polygon fill="black" stroke="black" points="1161.67,-1008.52 1172.02,-1006.25 1162.51,-1001.57 1161.67,-1008.52"/>
<text text-anchor="middle" x="915.5" y="-1035.12" font-family="Times New Roman,serif" font-size="30.00"> &#160;&#160;284 &#160;&#160;2% &#160;&#160;2.18e&#45;15 mol/s &#160;&#160;&#160;1.00E+00</text>
</g>
<!-- R219 -->
<g id="node32" class="node">
<title>R219</title>
<g id="a_node32"><a xlink:href="219.svg" xlink:title="R219">
<polygon fill="cornsilk" stroke="none" points="1258,-969.62 1164,-969.62 1164,-922.62 1258,-922.62 1258,-969.62"/>
<text text-anchor="middle" x="1211" y="-937.62" font-family="Times New Roman,serif" font-size="35.00">R219</text>
</a>
</g>
</g>
<!-- R3&#45;&gt;R219 -->
<g id="edge34" class="edge">
<title>R3&#45;&gt;R219</title>
<path fill="none" stroke="black" d="M621.7,-1442.68C624.83,-1346.26 638.99,-983.65 676,-950.12 710.68,-918.71 1022.7,-934.35 1153.12,-942.37"/>
<polygon fill="black" stroke="black" points="1152.85,-945.92 1163.05,-943.05 1153.28,-938.93 1152.85,-945.92"/>
<text text-anchor="middle" x="915.5" y="-959.12" font-family="Times New Roman,serif" font-size="30.00"> &#160;&#160;285 &#160;&#160;2% &#160;&#160;2.18e&#45;15 mol/s &#160;&#160;&#160;1.00E+00</text>
</g>
<!-- R220 -->
<g id="node33" class="node">
<title>R220</title>
<g id="a_node33"><a xlink:href="220.svg" xlink:title="R220">
<polygon fill="cornsilk" stroke="none" points="1258,-904.62 1164,-904.62 1164,-857.62 1258,-857.62 1258,-904.62"/>
<text text-anchor="middle" x="1211" y="-872.62" font-family="Times New Roman,serif" font-size="35.00">R220</text>
</a>
</g>
</g>
<!-- R3&#45;&gt;R220 -->
<g id="edge35" class="edge">
<title>R3&#45;&gt;R220</title>
<path fill="none" stroke="black" d="M621.47,-1442.68C623.75,-1339.98 635.3,-933.07 676,-895.12 743.73,-831.96 1030.8,-858.83 1153.75,-873.69"/>
<polygon fill="black" stroke="black" points="1153.07,-877.26 1163.42,-875 1153.92,-870.31 1153.07,-877.26"/>
<text text-anchor="middle" x="915.5" y="-904.12" font-family="Times New Roman,serif" font-size="30.00"> &#160;&#160;286 &#160;&#160;2% &#160;&#160;2.18e&#45;15 mol/s &#160;&#160;&#160;1.00E+00</text>
</g>
<!-- R145 -->
<g id="node34" class="node">
<title>R145</title>
<g id="a_node34"><a xlink:href="145.svg" xlink:title="R145">
<polygon fill="cornsilk" stroke="none" points="1258,-839.62 1164,-839.62 1164,-792.62 1258,-792.62 1258,-839.62"/>
<text text-anchor="middle" x="1211" y="-807.62" font-family="Times New Roman,serif" font-size="35.00">R145</text>
</a>
</g>
</g>
<!-- R3&#45;&gt;R145 -->
<g id="edge36" class="edge">
<title>R3&#45;&gt;R145</title>
<path fill="none" stroke="black" d="M621.16,-1442.92C622.16,-1332.24 629.16,-861.32 676,-818.12 710.39,-786.4 1022.59,-803.46 1153.08,-812.1"/>
<polygon fill="black" stroke="black" points="1152.8,-815.65 1163.01,-812.83 1153.27,-808.67 1152.8,-815.65"/>
<text text-anchor="middle" x="915.5" y="-827.12" font-family="Times New Roman,serif" font-size="30.00"> &#160;&#160;287 &#160;&#160;2% &#160;&#160;2.18e&#45;15 mol/s &#160;&#160;&#160;1.00E+00</text>
</g>
<!-- R221 -->
<g id="node35" class="node">
<title>R221</title>
<g id="a_node35"><a xlink:href="221.svg" xlink:title="R221">
<polygon fill="cornsilk" stroke="none" points="1258,-774.62 1164,-774.62 1164,-727.62 1258,-727.62 1258,-774.62"/>
<text text-anchor="middle" x="1211" y="-742.62" font-family="Times New Roman,serif" font-size="35.00">R221</text>
</a>
</g>
</g>
<!-- R3&#45;&gt;R221 -->
<g id="edge37" class="edge">
<title>R3&#45;&gt;R221</title>
<path fill="none" stroke="black" d="M621.01,-1442.94C621.32,-1326.68 625.53,-810.86 676,-763.12 743.28,-699.48 1030.6,-727.84 1153.68,-743.38"/>
<polygon fill="black" stroke="black" points="1153,-746.95 1163.36,-744.75 1153.89,-740 1153,-746.95"/>
<text text-anchor="middle" x="915.5" y="-772.12" font-family="Times New Roman,serif" font-size="30.00"> &#160;&#160;288 &#160;&#160;2% &#160;&#160;2.18e&#45;15 mol/s &#160;&#160;&#160;1.00E+00</text>
</g>
<!-- R222 -->
<g id="node36" class="node">
<title>R222</title>
<g id="a_node36"><a xlink:href="222.svg" xlink:title="R222">
<polygon fill="cornsilk" stroke="none" points="1258,-709.62 1164,-709.62 1164,-662.62 1258,-662.62 1258,-709.62"/>
<text text-anchor="middle" x="1211" y="-677.62" font-family="Times New Roman,serif" font-size="35.00">R222</text>
</a>
</g>
</g>
<!-- R3&#45;&gt;R222 -->
<g id="edge38" class="edge">
<title>R3&#45;&gt;R222</title>
<path fill="none" stroke="black" d="M620.81,-1442.91C620.02,-1319.1 619.39,-739.97 676,-687.12 710.24,-655.15 1023.25,-673.04 1153.52,-681.98"/>
<polygon fill="black" stroke="black" points="1153.22,-685.54 1163.44,-682.74 1153.7,-678.56 1153.22,-685.54"/>
<text text-anchor="middle" x="915.5" y="-696.12" font-family="Times New Roman,serif" font-size="30.00"> &#160;&#160;289 &#160;&#160;2% &#160;&#160;2.18e&#45;15 mol/s &#160;&#160;&#160;1.00E+00</text>
</g>
<!-- R80 -->
<g id="node37" class="node">
<title>R80</title>
<g id="a_node37"><a xlink:href="80.svg" xlink:title="R80">
<polygon fill="cornsilk" stroke="none" points="1249,-644.62 1173,-644.62 1173,-597.62 1249,-597.62 1249,-644.62"/>
<text text-anchor="middle" x="1211" y="-612.62" font-family="Times New Roman,serif" font-size="35.00">R80</text>
</a>
</g>
</g>
<!-- R3&#45;&gt;R80 -->
<g id="edge39" class="edge">
<title>R3&#45;&gt;R80</title>
<path fill="none" stroke="black" d="M620.71,-1443.01C619.34,-1314.3 615.81,-689.64 676,-632.12 710.69,-598.96 1038.43,-612.24 1162.62,-618.53"/>
<polygon fill="black" stroke="black" points="1162.12,-622.06 1172.29,-619.08 1162.48,-615.07 1162.12,-622.06"/>
<text text-anchor="middle" x="915.5" y="-641.12" font-family="Times New Roman,serif" font-size="30.00"> &#160;&#160;290 &#160;&#160;2% &#160;&#160;2.18e&#45;15 mol/s &#160;&#160;&#160;1.00E+00</text>
</g>
<!-- R223 -->
<g id="node38" class="node">
<title>R223</title>
<g id="a_node38"><a xlink:href="223.svg" xlink:title="R223">
<polygon fill="cornsilk" stroke="none" points="1258,-579.62 1164,-579.62 1164,-532.62 1258,-532.62 1258,-579.62"/>
<text text-anchor="middle" x="1211" y="-547.62" font-family="Times New Roman,serif" font-size="35.00">R223</text>
</a>
</g>
</g>
<!-- R3&#45;&gt;R223 -->
<g id="edge40" class="edge">
<title>R3&#45;&gt;R223</title>
<path fill="none" stroke="black" d="M621.56,-1442.71C624.99,-1304.99 643.92,-605.32 676,-574.12 742.41,-509.54 1030.22,-534.77 1153.55,-548.98"/>
<polygon fill="black" stroke="black" points="1152.92,-552.55 1163.26,-550.24 1153.74,-545.6 1152.92,-552.55"/>
<text text-anchor="middle" x="915.5" y="-583.12" font-family="Times New Roman,serif" font-size="30.00"> &#160;&#160;291 &#160;&#160;2% &#160;&#160;2.18e&#45;15 mol/s &#160;&#160;&#160;1.00E+00</text>
</g>
<!-- R198 -->
<g id="node39" class="node">
<title>R198</title>
<g id="a_node39"><a xlink:href="198.svg" xlink:title="R198">
<polygon fill="cornsilk" stroke="none" points="1258,-514.62 1164,-514.62 1164,-467.62 1258,-467.62 1258,-514.62"/>
<text text-anchor="middle" x="1211" y="-482.62" font-family="Times New Roman,serif" font-size="35.00">R198</text>
</a>
</g>
</g>
<!-- R3&#45;&gt;R198 -->
<g id="edge41" class="edge">
<title>R3&#45;&gt;R198</title>
<path fill="none" stroke="black" d="M621.42,-1443.01C624.18,-1298.92 640.54,-528.88 676,-495.12 709.93,-462.82 1023.12,-479.03 1153.48,-487.28"/>
<polygon fill="black" stroke="black" points="1153.2,-490.84 1163.4,-487.98 1153.65,-483.85 1153.2,-490.84"/>
<text text-anchor="middle" x="915.5" y="-504.12" font-family="Times New Roman,serif" font-size="30.00"> &#160;&#160;292 &#160;&#160;2% &#160;&#160;2.18e&#45;15 mol/s &#160;&#160;&#160;1.00E+00</text>
</g>
<!-- R199 -->
<g id="node40" class="node">
<title>R199</title>
<g id="a_node40"><a xlink:href="199.svg" xlink:title="R199">
<polygon fill="cornsilk" stroke="none" points="1258,-449.62 1164,-449.62 1164,-402.62 1258,-402.62 1258,-449.62"/>
<text text-anchor="middle" x="1211" y="-417.62" font-family="Times New Roman,serif" font-size="35.00">R199</text>
</a>
</g>
</g>
<!-- R3&#45;&gt;R199 -->
<g id="edge42" class="edge">
<title>R3&#45;&gt;R199</title>
<path fill="none" stroke="black" d="M621.36,-1442.66C623.8,-1292.86 638.78,-475.27 676,-439.12 742.43,-374.6 1030.23,-402.84 1153.56,-418.37"/>
<polygon fill="black" stroke="black" points="1152.9,-421.95 1163.26,-419.74 1153.79,-415 1152.9,-421.95"/>
<text text-anchor="middle" x="915.5" y="-448.12" font-family="Times New Roman,serif" font-size="30.00"> &#160;&#160;293 &#160;&#160;2% &#160;&#160;2.18e&#45;15 mol/s &#160;&#160;&#160;1.00E+00</text>
</g>
<!-- R224 -->
<g id="node41" class="node">
<title>R224</title>
<g id="a_node41"><a xlink:href="224.svg" xlink:title="R224">
<polygon fill="cornsilk" stroke="none" points="1258,-384.62 1164,-384.62 1164,-337.62 1258,-337.62 1258,-384.62"/>
<text text-anchor="middle" x="1211" y="-352.62" font-family="Times New Roman,serif" font-size="35.00">R224</text>
</a>
</g>
</g>
<!-- R3&#45;&gt;R224 -->
<g id="edge43" class="edge">
<title>R3&#45;&gt;R224</title>
<path fill="none" stroke="black" d="M621.26,-1442.68C623.13,-1286.43 635.48,-400.75 676,-362.12 709.91,-329.8 1023.11,-347.89 1153.48,-356.94"/>
<polygon fill="black" stroke="black" points="1153.18,-360.49 1163.4,-357.7 1153.67,-353.51 1153.18,-360.49"/>
<text text-anchor="middle" x="915.5" y="-371.12" font-family="Times New Roman,serif" font-size="30.00"> &#160;&#160;294 &#160;&#160;2% &#160;&#160;2.18e&#45;15 mol/s &#160;&#160;&#160;1.00E+00</text>
</g>
<!-- R225 -->
<g id="node42" class="node">
<title>R225</title>
<g id="a_node42"><a xlink:href="225.svg" xlink:title="R225">
<polygon fill="cornsilk" stroke="none" points="1258,-319.62 1164,-319.62 1164,-272.62 1258,-272.62 1258,-319.62"/>
<text text-anchor="middle" x="1211" y="-287.62" font-family="Times New Roman,serif" font-size="35.00">R225</text>
</a>
</g>
</g>
<!-- R3&#45;&gt;R225 -->
<g id="edge44" class="edge">
<title>R3&#45;&gt;R225</title>
<path fill="none" stroke="black" d="M621.21,-1442.82C622.79,-1282.54 633.78,-348.22 676,-307.12 709.57,-274.44 1022.97,-286.5 1153.43,-293.03"/>
<polygon fill="black" stroke="black" points="1153.2,-296.57 1163.36,-293.59 1153.55,-289.58 1153.2,-296.57"/>
<text text-anchor="middle" x="915.5" y="-316.12" font-family="Times New Roman,serif" font-size="30.00"> &#160;&#160;295 &#160;&#160;2% &#160;&#160;2.18e&#45;15 mol/s &#160;&#160;&#160;1.00E+00</text>
</g>
<!-- R226 -->
<g id="node43" class="node">
<title>R226</title>
<g id="a_node43"><a xlink:href="226.svg" xlink:title="R226">
<polygon fill="cornsilk" stroke="none" points="1258,-254.62 1164,-254.62 1164,-207.62 1258,-207.62 1258,-254.62"/>
<text text-anchor="middle" x="1211" y="-222.62" font-family="Times New Roman,serif" font-size="35.00">R226</text>
</a>
</g>
</g>
<!-- R3&#45;&gt;R226 -->
<g id="edge45" class="edge">
<title>R3&#45;&gt;R226</title>
<path fill="none" stroke="black" d="M621.17,-1442.73C622.44,-1277.61 631.91,-292.71 676,-249.12 741.88,-184 1029.99,-209.53 1153.48,-223.9"/>
<polygon fill="black" stroke="black" points="1152.86,-227.47 1163.2,-225.17 1153.68,-220.52 1152.86,-227.47"/>
<text text-anchor="middle" x="915.5" y="-258.12" font-family="Times New Roman,serif" font-size="30.00"> &#160;&#160;296 &#160;&#160;2% &#160;&#160;2.18e&#45;15 mol/s &#160;&#160;&#160;1.00E+00</text>
</g>
<!-- R227 -->
<g id="node44" class="node">
<title>R227</title>
<g id="a_node44"><a xlink:href="227.svg" xlink:title="R227">
<polygon fill="cornsilk" stroke="none" points="1258,-189.62 1164,-189.62 1164,-142.62 1258,-142.62 1258,-189.62"/>
<text text-anchor="middle" x="1211" y="-157.62" font-family="Times New Roman,serif" font-size="35.00">R227</text>
</a>
</g>
</g>
<!-- R3&#45;&gt;R227 -->
<g id="edge46" class="edge">
<title>R3&#45;&gt;R227</title>
<path fill="none" stroke="black" d="M621.09,-1442.86C621.83,-1272 628.36,-216.12 676,-170.12 709.7,-137.58 1023.03,-153.93 1153.45,-162.25"/>
<polygon fill="black" stroke="black" points="1153.17,-165.8 1163.38,-162.96 1153.62,-158.82 1153.17,-165.8"/>
<text text-anchor="middle" x="915.5" y="-179.12" font-family="Times New Roman,serif" font-size="30.00"> &#160;&#160;297 &#160;&#160;2% &#160;&#160;2.18e&#45;15 mol/s &#160;&#160;&#160;1.00E+00</text>
</g>
<!-- R228 -->
<g id="node45" class="node">
<title>R228</title>
<g id="a_node45"><a xlink:href="228.svg" xlink:title="R228">
<polygon fill="cornsilk" stroke="none" points="1258,-124.62 1164,-124.62 1164,-77.62 1258,-77.62 1258,-124.62"/>
<text text-anchor="middle" x="1211" y="-92.62" font-family="Times New Roman,serif" font-size="35.00">R228</text>
</a>
</g>
</g>
<!-- R3&#45;&gt;R228 -->
<g id="edge47" class="edge">
<title>R3&#45;&gt;R228</title>
<path fill="none" stroke="black" d="M621.05,-1442.71C621.56,-1267.2 626.68,-162.64 676,-114.12 742.02,-49.17 1030.05,-77.65 1153.5,-93.31"/>
<polygon fill="black" stroke="black" points="1152.85,-96.89 1163.21,-94.69 1153.74,-89.94 1152.85,-96.89"/>
<text text-anchor="middle" x="915.5" y="-123.12" font-family="Times New Roman,serif" font-size="30.00"> &#160;&#160;298 &#160;&#160;2% &#160;&#160;2.18e&#45;15 mol/s &#160;&#160;&#160;1.00E+00</text>
</g>
<!-- R369 -->
<g id="node46" class="node">
<title>R369</title>
<g id="a_node46"><a xlink:href="369.svg" xlink:title="R369">
<polygon fill="cornsilk" stroke="none" points="1258,-59.62 1164,-59.62 1164,-12.62 1258,-12.62 1258,-59.62"/>
<text text-anchor="middle" x="1211" y="-27.62" font-family="Times New Roman,serif" font-size="35.00">R369</text>
</a>
</g>
</g>
<!-- R3&#45;&gt;R369 -->
<g id="edge48" class="edge">
<title>R3&#45;&gt;R369</title>
<path fill="none" stroke="black" d="M620.99,-1442.82C621.01,-1261.99 623.22,-88.01 676,-37.12 742.65,27.14 1030.33,-8.26 1153.59,-26.93"/>
<polygon fill="black" stroke="black" points="1152.87,-30.51 1163.29,-28.57 1153.94,-23.59 1152.87,-30.51"/>
<text text-anchor="middle" x="915.5" y="-46.12" font-family="Times New Roman,serif" font-size="30.00"> &#160;&#160;623 &#160;&#160;2% &#160;&#160;2.18e&#45;15 mol/s &#160;&#160;&#160;1.00E+00</text>
</g>
<!-- R1 -->
<g id="node2" class="node">
<title>R1</title>
<g id="a_node2"><a xlink:href="1.svg" xlink:title="R1">
<polygon fill="cornsilk" stroke="none" points="58,-1489.62 0,-1489.62 0,-1442.62 58,-1442.62 58,-1489.62"/>
<text text-anchor="middle" x="29" y="-1457.62" font-family="Times New Roman,serif" font-size="35.00">R1</text>
</a>
</g>
</g>
<!-- R1&#45;&gt;R3 -->
<g id="edge1" class="edge">
<title>R1&#45;&gt;R3</title>
<path fill="none" stroke="black" stroke-width="6" d="M57.98,-1487.52C66.24,-1492.67 75.61,-1497.45 85,-1500.12 289.78,-1558.31 359.22,-1558.31 564,-1500.12 566.94,-1499.29 569.87,-1498.24 572.77,-1497.05"/>
<polygon fill="black" stroke="black" stroke-width="6" points="573.15,-1508.08 586.02,-1489.52 563.43,-1489.47 573.15,-1508.08"/>
<text text-anchor="middle" x="324.5" y="-1552.12" font-family="Times New Roman,serif" font-size="30.00"> &#160;&#160;1 &#160;&#160;100% &#160;&#160;2.18e&#45;15 mol/s &#160;&#160;&#160;1.00E+00</text>
</g>
<!-- R1&#45;&gt;R3 -->
<g id="edge2" class="edge">
<title>R1&#45;&gt;R3</title>
<path fill="none" stroke="black" stroke-width="6" d="M57.97,-1464.3C66.63,-1463.81 76.21,-1463.36 85,-1463.12 297.81,-1457.32 351.19,-1457.32 564,-1463.12 566.06,-1463.18 568.17,-1463.24 570.29,-1463.32"/>
<polygon fill="black" stroke="black" stroke-width="6" points="564.56,-1473.85 585.03,-1464.3 565.55,-1452.87 564.56,-1473.85"/>
<text text-anchor="middle" x="324.5" y="-1472.12" font-family="Times New Roman,serif" font-size="30.00"> &#160;&#160;1 &#160;&#160;100% &#160;&#160;2.18e&#45;15 mol/s &#160;&#160;&#160;1.00E+00</text>
</g>
<!-- R1&#45;&gt;R3 -->
<g id="edge3" class="edge">
<title>R1&#45;&gt;R3</title>
<path fill="none" stroke="black" stroke-width="6" d="M51.57,-1442.64C60.92,-1434.15 72.57,-1425.56 85,-1421.12 285.5,-1349.55 363.5,-1349.55 564,-1421.12 569.92,-1423.23 575.67,-1426.29 581.08,-1429.83"/>
<polygon fill="black" stroke="black" stroke-width="6" points="570.21,-1435.58 592.43,-1439.64 583.16,-1419.04 570.21,-1435.58"/>
<text text-anchor="middle" x="324.5" y="-1430.12" font-family="Times New Roman,serif" font-size="30.00"> &#160;&#160;1 &#160;&#160;100% &#160;&#160;2.18e&#45;15 mol/s &#160;&#160;&#160;1.00E+00</text>
</g>
</g>
</svg>
