<?xml version="1.0" encoding="UTF-8" standalone="no"?>
<!DOCTYPE svg PUBLIC "-//W3C//DTD SVG 1.1//EN"
 "http://www.w3.org/Graphics/SVG/1.1/DTD/svg11.dtd">
<!-- Generated by graphviz version 8.0.3 (20230416.2022)
 -->
<!-- Title: G Pages: 1 -->
<svg width="280pt" height="640pt"
 viewBox="0.00 0.00 314.66 720.00" xmlns="http://www.w3.org/2000/svg" xmlns:xlink="http://www.w3.org/1999/xlink">
<g id="graph0" class="graph" transform="scale(0.218172 0.218172) rotate(0) translate(4 2929.46)">
<title>G</title>
<polygon fill="white" stroke="none" points="-4,4 -4,-2929.46 1278,-2929.46 1278,4 -4,4"/>
<text text-anchor="middle" x="637" y="-2892.66" font-family="Arial" font-size="36.00" fill="blue">Reaction Path Analysis</text>
<!-- R3 -->
<g id="node1" class="node">
<title>R3</title>
<g id="a_node1"><a xlink:href="3.svg" xlink:title="R3">
<polygon fill="cornsilk" stroke="none" points="657,-1481.96 599,-1481.96 599,-1434.96 657,-1434.96 657,-1481.96"/>
<text text-anchor="middle" x="628" y="-1449.96" font-family="Times New Roman,serif" font-size="35.00">R3</text>
</a>
</g>
</g>
<!-- R5 -->
<g id="node3" class="node">
<title>R5</title>
<g id="a_node3"><a xlink:href="5.svg" xlink:title="R5">
<polygon fill="cornsilk" stroke="none" points="1256,-2846.96 1198,-2846.96 1198,-2799.96 1256,-2799.96 1256,-2846.96"/>
<text text-anchor="middle" x="1227" y="-2814.96" font-family="Times New Roman,serif" font-size="35.00">R5</text>
</a>
</g>
</g>
<!-- R3&#45;&gt;R5 -->
<g id="edge4" class="edge">
<title>R3&#45;&gt;R5</title>
<path fill="none" stroke="black" d="M629.07,-1481.95C629.7,-1656.85 635.58,-2750.88 684,-2799.46 753.99,-2869.68 1075.4,-2840.64 1187.39,-2828.11"/>
<polygon fill="black" stroke="black" points="1187.63,-2831.49 1197.16,-2826.88 1186.83,-2824.53 1187.63,-2831.49"/>
<text text-anchor="middle" x="927.5" y="-2853.46" font-family="Times New Roman,serif" font-size="30.00"> &#160;&#160;4 &#160;&#160;1% &#160;&#160;4.67e&#45;08 mol/s &#160;&#160;&#160;1.00E+00</text>
</g>
<!-- R7 -->
<g id="node4" class="node">
<title>R7</title>
<g id="a_node4"><a xlink:href="7.svg" xlink:title="R7">
<polygon fill="cornsilk" stroke="none" points="1256,-2781.96 1198,-2781.96 1198,-2734.96 1256,-2734.96 1256,-2781.96"/>
<text text-anchor="middle" x="1227" y="-2749.96" font-family="Times New Roman,serif" font-size="35.00">R7</text>
</a>
</g>
</g>
<!-- R3&#45;&gt;R7 -->
<g id="edge5" class="edge">
<title>R3&#45;&gt;R7</title>
<path fill="none" stroke="black" d="M629.12,-1481.88C630.1,-1651.66 637.97,-2688.38 684,-2734.46 719.38,-2769.89 1069.94,-2763.02 1187.67,-2759.68"/>
<polygon fill="black" stroke="black" points="1187.42,-2763.16 1197.32,-2759.37 1187.22,-2756.16 1187.42,-2763.16"/>
<text text-anchor="middle" x="927.5" y="-2771.46" font-family="Times New Roman,serif" font-size="30.00"> &#160;&#160;7 &#160;&#160;1% &#160;&#160;4.67e&#45;08 mol/s &#160;&#160;&#160;1.00E+00</text>
</g>
<!-- R8 -->
<g id="node5" class="node">
<title>R8</title>
<g id="a_node5"><a xlink:href="8.svg" xlink:title="R8">
<polygon fill="cornsilk" stroke="none" points="1256,-2716.96 1198,-2716.96 1198,-2669.96 1256,-2669.96 1256,-2716.96"/>
<text text-anchor="middle" x="1227" y="-2684.96" font-family="Times New Roman,serif" font-size="35.00">R8</text>
</a>
</g>
</g>
<!-- R3&#45;&gt;R8 -->
<g id="edge6" class="edge">
<title>R3&#45;&gt;R8</title>
<path fill="none" stroke="black" d="M629.18,-1481.73C630.52,-1646.01 640.35,-2625.86 684,-2669.46 719.43,-2704.85 1069.95,-2698.01 1187.67,-2694.67"/>
<polygon fill="black" stroke="black" points="1187.42,-2698.15 1197.32,-2694.36 1187.22,-2691.16 1187.42,-2698.15"/>
<text text-anchor="middle" x="927.5" y="-2706.46" font-family="Times New Roman,serif" font-size="30.00"> &#160;&#160;8 &#160;&#160;1% &#160;&#160;4.67e&#45;08 mol/s &#160;&#160;&#160;1.00E+00</text>
</g>
<!-- R10 -->
<g id="node6" class="node">
<title>R10</title>
<g id="a_node6"><a xlink:href="10.svg" xlink:title="R10">
<polygon fill="cornsilk" stroke="none" points="1265,-2651.96 1189,-2651.96 1189,-2604.96 1265,-2604.96 1265,-2651.96"/>
<text text-anchor="middle" x="1227" y="-2619.96" font-family="Times New Roman,serif" font-size="35.00">R10</text>
</a>
</g>
</g>
<!-- R3&#45;&gt;R10 -->
<g id="edge7" class="edge">
<title>R3&#45;&gt;R10</title>
<path fill="none" stroke="black" d="M629.24,-1481.74C630.97,-1640.88 642.75,-2563.36 684,-2604.46 718.57,-2638.9 1052.38,-2633.31 1178.27,-2629.93"/>
<polygon fill="black" stroke="black" points="1178.19,-2633.4 1188.09,-2629.63 1178,-2626.41 1178.19,-2633.4"/>
<text text-anchor="middle" x="927.5" y="-2641.46" font-family="Times New Roman,serif" font-size="30.00"> &#160;&#160;10 &#160;&#160;1% &#160;&#160;4.67e&#45;08 mol/s &#160;&#160;&#160;1.00E+00</text>
</g>
<!-- R11 -->
<g id="node7" class="node">
<title>R11</title>
<g id="a_node7"><a xlink:href="11.svg" xlink:title="R11">
<polygon fill="cornsilk" stroke="none" points="1265,-2586.96 1189,-2586.96 1189,-2539.96 1265,-2539.96 1265,-2586.96"/>
<text text-anchor="middle" x="1227" y="-2554.96" font-family="Times New Roman,serif" font-size="35.00">R11</text>
</a>
</g>
</g>
<!-- R3&#45;&gt;R11 -->
<g id="edge8" class="edge">
<title>R3&#45;&gt;R11</title>
<path fill="none" stroke="black" d="M629.3,-1481.66C631.42,-1635.36 645.06,-2501.85 684,-2540.46 718.65,-2574.82 1052.41,-2568.62 1178.28,-2565.01"/>
<polygon fill="black" stroke="black" points="1178.2,-2568.49 1188.1,-2564.7 1178,-2561.49 1178.2,-2568.49"/>
<text text-anchor="middle" x="927.5" y="-2576.46" font-family="Times New Roman,serif" font-size="30.00"> &#160;&#160;11 &#160;&#160;1% &#160;&#160;4.67e&#45;08 mol/s &#160;&#160;&#160;1.00E+00</text>
</g>
<!-- R12 -->
<g id="node8" class="node">
<title>R12</title>
<g id="a_node8"><a xlink:href="12.svg" xlink:title="R12">
<polygon fill="cornsilk" stroke="none" points="1265,-2521.96 1189,-2521.96 1189,-2474.96 1265,-2474.96 1265,-2521.96"/>
<text text-anchor="middle" x="1227" y="-2489.96" font-family="Times New Roman,serif" font-size="35.00">R12</text>
</a>
</g>
</g>
<!-- R3&#45;&gt;R12 -->
<g id="edge9" class="edge">
<title>R3&#45;&gt;R12</title>
<path fill="none" stroke="black" d="M629.38,-1481.73C631.9,-1630.32 647.32,-2441.33 684,-2477.46 718.76,-2511.7 1052.45,-2504.26 1178.29,-2500.19"/>
<polygon fill="black" stroke="black" points="1178.23,-2503.66 1188.11,-2499.83 1178,-2496.67 1178.23,-2503.66"/>
<text text-anchor="middle" x="927.5" y="-2512.46" font-family="Times New Roman,serif" font-size="30.00"> &#160;&#160;12 &#160;&#160;1% &#160;&#160;4.67e&#45;08 mol/s &#160;&#160;&#160;1.00E+00</text>
</g>
<!-- R14 -->
<g id="node9" class="node">
<title>R14</title>
<g id="a_node9"><a xlink:href="14.svg" xlink:title="R14">
<polygon fill="cornsilk" stroke="none" points="1265,-2456.96 1189,-2456.96 1189,-2409.96 1265,-2409.96 1265,-2456.96"/>
<text text-anchor="middle" x="1227" y="-2424.96" font-family="Times New Roman,serif" font-size="35.00">R14</text>
</a>
</g>
</g>
<!-- R3&#45;&gt;R14 -->
<g id="edge10" class="edge">
<title>R3&#45;&gt;R14</title>
<path fill="none" stroke="black" d="M629.45,-1481.84C632.32,-1625.88 649.1,-2387.76 684,-2421.46 719.08,-2455.34 1052.57,-2442.23 1178.33,-2436.01"/>
<polygon fill="black" stroke="black" points="1178.32,-2439.46 1188.13,-2435.46 1177.97,-2432.47 1178.32,-2439.46"/>
<text text-anchor="middle" x="927.5" y="-2452.46" font-family="Times New Roman,serif" font-size="30.00"> &#160;&#160;14 &#160;&#160;0% &#160;&#160;1.01e&#45;11 mol/s &#160;&#160;&#160;1.00E+00</text>
</g>
<!-- R3&#45;&gt;R14 -->
<g id="edge24" class="edge">
<title>R3&#45;&gt;R14</title>
<path fill="none" stroke="black" stroke-width="3" d="M629.54,-1481.81C632.86,-1620.74 651.44,-2333.6 684,-2365.46 722.7,-2403.34 1125.16,-2355.63 1171,-2384.46 1178.24,-2389.01 1174.33,-2395.06 1180,-2401.46 1180.53,-2402.06 1181.08,-2402.66 1181.64,-2403.25"/>
<polygon fill="black" stroke="black" stroke-width="3" points="1176.76,-2403.28 1186.45,-2407.56 1181.54,-2398.17 1176.76,-2403.28"/>
<text text-anchor="middle" x="927.5" y="-2393.46" font-family="Times New Roman,serif" font-size="30.00"> &#160;&#160;101 &#160;&#160;53% &#160;&#160;2.31e&#45;06 mol/s &#160;&#160;&#160;4.36E&#45;06</text>
</g>
<!-- R46 -->
<g id="node10" class="node">
<title>R46</title>
<g id="a_node10"><a xlink:href="46.svg" xlink:title="R46">
<polygon fill="cornsilk" stroke="none" points="1265,-2391.96 1189,-2391.96 1189,-2344.96 1265,-2344.96 1265,-2391.96"/>
<text text-anchor="middle" x="1227" y="-2359.96" font-family="Times New Roman,serif" font-size="35.00">R46</text>
</a>
</g>
</g>
<!-- R3&#45;&gt;R46 -->
<g id="edge11" class="edge">
<title>R3&#45;&gt;R46</title>
<path fill="none" stroke="black" d="M628.7,-1481.59C627.26,-1611.81 623.35,-2249.85 684,-2309.46 722.64,-2347.43 1119.47,-2315.76 1171,-2332.46 1174.2,-2333.5 1178.84,-2335.96 1184.09,-2339.15"/>
<polygon fill="black" stroke="black" points="1182.04,-2342.63 1192.35,-2345.06 1185.81,-2336.73 1182.04,-2342.63"/>
<text text-anchor="middle" x="927.5" y="-2341.46" font-family="Times New Roman,serif" font-size="30.00"> &#160;&#160;51 &#160;&#160;1% &#160;&#160;4.67e&#45;08 mol/s &#160;&#160;&#160;1.00E+00</text>
</g>
<!-- R47 -->
<g id="node11" class="node">
<title>R47</title>
<g id="a_node11"><a xlink:href="47.svg" xlink:title="R47">
<polygon fill="cornsilk" stroke="none" points="1265,-2326.96 1189,-2326.96 1189,-2279.96 1265,-2279.96 1265,-2326.96"/>
<text text-anchor="middle" x="1227" y="-2294.96" font-family="Times New Roman,serif" font-size="35.00">R47</text>
</a>
</g>
</g>
<!-- R3&#45;&gt;R47 -->
<g id="edge12" class="edge">
<title>R3&#45;&gt;R47</title>
<path fill="none" stroke="black" d="M628.81,-1481.69C628.05,-1606.92 627.45,-2198.13 684,-2253.46 722.72,-2291.34 1118.54,-2262.97 1171,-2276.46 1173.66,-2277.14 1176.34,-2277.97 1179.01,-2278.89"/>
<polygon fill="black" stroke="black" points="1177.63,-2282.49 1188.22,-2282.88 1180.18,-2275.98 1177.63,-2282.49"/>
<text text-anchor="middle" x="927.5" y="-2285.46" font-family="Times New Roman,serif" font-size="30.00"> &#160;&#160;52 &#160;&#160;1% &#160;&#160;4.67e&#45;08 mol/s &#160;&#160;&#160;1.00E+00</text>
</g>
<!-- R36 -->
<g id="node12" class="node">
<title>R36</title>
<g id="a_node12"><a xlink:href="36.svg" xlink:title="R36">
<polygon fill="cornsilk" stroke="none" points="1265,-2261.96 1189,-2261.96 1189,-2214.96 1265,-2214.96 1265,-2261.96"/>
<text text-anchor="middle" x="1227" y="-2229.96" font-family="Times New Roman,serif" font-size="35.00">R36</text>
</a>
</g>
</g>
<!-- R3&#45;&gt;R36 -->
<g id="edge13" class="edge">
<title>R3&#45;&gt;R36</title>
<path fill="none" stroke="black" d="M628.94,-1481.61C628.88,-1601.29 631.51,-2146.37 684,-2197.46 722.82,-2235.24 1117.72,-2210.67 1171,-2220.46 1173.5,-2220.92 1176.05,-2221.46 1178.6,-2222.07"/>
<polygon fill="black" stroke="black" points="1177.51,-2225.67 1188.07,-2224.88 1179.32,-2218.91 1177.51,-2225.67"/>
<text text-anchor="middle" x="927.5" y="-2229.46" font-family="Times New Roman,serif" font-size="30.00"> &#160;&#160;53 &#160;&#160;1% &#160;&#160;4.67e&#45;08 mol/s &#160;&#160;&#160;1.00E+00</text>
</g>
<!-- R48 -->
<g id="node13" class="node">
<title>R48</title>
<g id="a_node13"><a xlink:href="48.svg" xlink:title="R48">
<polygon fill="cornsilk" stroke="none" points="1265,-2196.96 1189,-2196.96 1189,-2149.96 1265,-2149.96 1265,-2196.96"/>
<text text-anchor="middle" x="1227" y="-2164.96" font-family="Times New Roman,serif" font-size="35.00">R48</text>
</a>
</g>
</g>
<!-- R3&#45;&gt;R48 -->
<g id="edge14" class="edge">
<title>R3&#45;&gt;R48</title>
<path fill="none" stroke="black" d="M629.09,-1481.71C629.79,-1596.01 635.59,-2094.63 684,-2141.46 703.47,-2160.29 1144.06,-2161.63 1171,-2164.46 1173.38,-2164.71 1175.82,-2165 1178.28,-2165.31"/>
<polygon fill="black" stroke="black" points="1177.71,-2168.9 1188.1,-2166.82 1178.68,-2161.97 1177.71,-2168.9"/>
<text text-anchor="middle" x="927.5" y="-2173.46" font-family="Times New Roman,serif" font-size="30.00"> &#160;&#160;54 &#160;&#160;1% &#160;&#160;4.67e&#45;08 mol/s &#160;&#160;&#160;1.00E+00</text>
</g>
<!-- R49 -->
<g id="node14" class="node">
<title>R49</title>
<g id="a_node14"><a xlink:href="49.svg" xlink:title="R49">
<polygon fill="cornsilk" stroke="none" points="1265,-2131.96 1189,-2131.96 1189,-2084.96 1265,-2084.96 1265,-2131.96"/>
<text text-anchor="middle" x="1227" y="-2099.96" font-family="Times New Roman,serif" font-size="35.00">R49</text>
</a>
</g>
</g>
<!-- R3&#45;&gt;R49 -->
<g id="edge15" class="edge">
<title>R3&#45;&gt;R49</title>
<path fill="none" stroke="black" d="M629.28,-1481.83C630.83,-1590.17 639.89,-2040.08 684,-2082.46 701.7,-2099.46 1049.85,-2106.02 1178.64,-2107.86"/>
<polygon fill="black" stroke="black" points="1178.28,-2111.37 1188.32,-2108.01 1178.37,-2104.37 1178.28,-2111.37"/>
<text text-anchor="middle" x="927.5" y="-2116.46" font-family="Times New Roman,serif" font-size="30.00"> &#160;&#160;55 &#160;&#160;1% &#160;&#160;4.67e&#45;08 mol/s &#160;&#160;&#160;1.00E+00</text>
</g>
<!-- R50 -->
<g id="node15" class="node">
<title>R50</title>
<g id="a_node15"><a xlink:href="50.svg" xlink:title="R50">
<polygon fill="cornsilk" stroke="none" points="1265,-2066.96 1189,-2066.96 1189,-2019.96 1265,-2019.96 1265,-2066.96"/>
<text text-anchor="middle" x="1227" y="-2034.96" font-family="Times New Roman,serif" font-size="35.00">R50</text>
</a>
</g>
</g>
<!-- R3&#45;&gt;R50 -->
<g id="edge16" class="edge">
<title>R3&#45;&gt;R50</title>
<path fill="none" stroke="black" d="M629.53,-1481.72C632.08,-1582.74 644.56,-1979.95 684,-2017.46 719.37,-2051.1 1052.68,-2047.31 1178.36,-2044.65"/>
<polygon fill="black" stroke="black" points="1178.24,-2048.13 1188.16,-2044.41 1178.08,-2041.13 1178.24,-2048.13"/>
<text text-anchor="middle" x="927.5" y="-2054.46" font-family="Times New Roman,serif" font-size="30.00"> &#160;&#160;56 &#160;&#160;1% &#160;&#160;4.67e&#45;08 mol/s &#160;&#160;&#160;1.00E+00</text>
</g>
<!-- R51 -->
<g id="node16" class="node">
<title>R51</title>
<g id="a_node16"><a xlink:href="51.svg" xlink:title="R51">
<polygon fill="cornsilk" stroke="none" points="1265,-2001.96 1189,-2001.96 1189,-1954.96 1265,-1954.96 1265,-2001.96"/>
<text text-anchor="middle" x="1227" y="-1969.96" font-family="Times New Roman,serif" font-size="35.00">R51</text>
</a>
</g>
</g>
<!-- R3&#45;&gt;R51 -->
<g id="edge17" class="edge">
<title>R3&#45;&gt;R51</title>
<path fill="none" stroke="black" d="M629.85,-1481.81C633.51,-1575.38 649.24,-1919.83 684,-1952.46 719.58,-1985.87 1052.77,-1982.23 1178.38,-1979.63"/>
<polygon fill="black" stroke="black" points="1178.25,-1983.11 1188.18,-1979.39 1178.1,-1976.11 1178.25,-1983.11"/>
<text text-anchor="middle" x="927.5" y="-1989.46" font-family="Times New Roman,serif" font-size="30.00"> &#160;&#160;57 &#160;&#160;1% &#160;&#160;4.67e&#45;08 mol/s &#160;&#160;&#160;1.00E+00</text>
</g>
<!-- R52 -->
<g id="node17" class="node">
<title>R52</title>
<g id="a_node17"><a xlink:href="52.svg" xlink:title="R52">
<polygon fill="cornsilk" stroke="none" points="1265,-1936.96 1189,-1936.96 1189,-1889.96 1265,-1889.96 1265,-1936.96"/>
<text text-anchor="middle" x="1227" y="-1904.96" font-family="Times New Roman,serif" font-size="35.00">R52</text>
</a>
</g>
</g>
<!-- R3&#45;&gt;R52 -->
<g id="edge18" class="edge">
<title>R3&#45;&gt;R52</title>
<path fill="none" stroke="black" d="M630.27,-1481.88C635.15,-1567.46 653.9,-1859.67 684,-1887.46 719.86,-1920.57 1052.87,-1917.11 1178.41,-1914.59"/>
<polygon fill="black" stroke="black" points="1178.27,-1918.08 1188.2,-1914.37 1178.13,-1911.08 1178.27,-1918.08"/>
<text text-anchor="middle" x="927.5" y="-1924.46" font-family="Times New Roman,serif" font-size="30.00"> &#160;&#160;58 &#160;&#160;1% &#160;&#160;4.67e&#45;08 mol/s &#160;&#160;&#160;1.00E+00</text>
</g>
<!-- R53 -->
<g id="node18" class="node">
<title>R53</title>
<g id="a_node18"><a xlink:href="53.svg" xlink:title="R53">
<polygon fill="cornsilk" stroke="none" points="1265,-1871.96 1189,-1871.96 1189,-1824.96 1265,-1824.96 1265,-1871.96"/>
<text text-anchor="middle" x="1227" y="-1839.96" font-family="Times New Roman,serif" font-size="35.00">R53</text>
</a>
</g>
</g>
<!-- R3&#45;&gt;R53 -->
<g id="edge19" class="edge">
<title>R3&#45;&gt;R53</title>
<path fill="none" stroke="black" d="M628.87,-1481.89C629.01,-1554.87 633.65,-1775.93 684,-1821.46 720.21,-1854.2 1053,-1851.63 1178.45,-1849.46"/>
<polygon fill="black" stroke="black" points="1178.29,-1852.94 1188.23,-1849.26 1178.17,-1845.94 1178.29,-1852.94"/>
<text text-anchor="middle" x="927.5" y="-1859.46" font-family="Times New Roman,serif" font-size="30.00"> &#160;&#160;59 &#160;&#160;1% &#160;&#160;4.67e&#45;08 mol/s &#160;&#160;&#160;1.00E+00</text>
</g>
<!-- R54 -->
<g id="node19" class="node">
<title>R54</title>
<g id="a_node19"><a xlink:href="54.svg" xlink:title="R54">
<polygon fill="cornsilk" stroke="none" points="1265,-1806.96 1189,-1806.96 1189,-1759.96 1265,-1759.96 1265,-1806.96"/>
<text text-anchor="middle" x="1227" y="-1774.96" font-family="Times New Roman,serif" font-size="35.00">R54</text>
</a>
</g>
</g>
<!-- R3&#45;&gt;R54 -->
<g id="edge20" class="edge">
<title>R3&#45;&gt;R54</title>
<path fill="none" stroke="black" d="M629.72,-1481.7C632.2,-1545.38 642.73,-1720.34 684,-1756.46 720.73,-1788.61 1053.2,-1786.4 1178.51,-1784.39"/>
<polygon fill="black" stroke="black" points="1178.33,-1787.88 1188.27,-1784.21 1178.22,-1780.88 1178.33,-1787.88"/>
<text text-anchor="middle" x="927.5" y="-1793.46" font-family="Times New Roman,serif" font-size="30.00"> &#160;&#160;60 &#160;&#160;1% &#160;&#160;4.67e&#45;08 mol/s &#160;&#160;&#160;1.00E+00</text>
</g>
<!-- R55 -->
<g id="node20" class="node">
<title>R55</title>
<g id="a_node20"><a xlink:href="55.svg" xlink:title="R55">
<polygon fill="cornsilk" stroke="none" points="1265,-1741.96 1189,-1741.96 1189,-1694.96 1265,-1694.96 1265,-1741.96"/>
<text text-anchor="middle" x="1227" y="-1709.96" font-family="Times New Roman,serif" font-size="35.00">R55</text>
</a>
</g>
</g>
<!-- R3&#45;&gt;R55 -->
<g id="edge21" class="edge">
<title>R3&#45;&gt;R55</title>
<path fill="none" stroke="black" d="M631.06,-1481.9C636.28,-1535.36 651.96,-1663.76 684,-1690.46 721.5,-1721.72 1053.5,-1720.72 1178.59,-1719.2"/>
<polygon fill="black" stroke="black" points="1178.39,-1722.69 1188.34,-1719.06 1178.3,-1715.69 1178.39,-1722.69"/>
<text text-anchor="middle" x="927.5" y="-1728.46" font-family="Times New Roman,serif" font-size="30.00"> &#160;&#160;61 &#160;&#160;1% &#160;&#160;4.67e&#45;08 mol/s &#160;&#160;&#160;1.00E+00</text>
</g>
<!-- R56 -->
<g id="node21" class="node">
<title>R56</title>
<g id="a_node21"><a xlink:href="56.svg" xlink:title="R56">
<polygon fill="cornsilk" stroke="none" points="1265,-1676.96 1189,-1676.96 1189,-1629.96 1265,-1629.96 1265,-1676.96"/>
<text text-anchor="middle" x="1227" y="-1644.96" font-family="Times New Roman,serif" font-size="35.00">R56</text>
</a>
</g>
</g>
<!-- R3&#45;&gt;R56 -->
<g id="edge22" class="edge">
<title>R3&#45;&gt;R56</title>
<path fill="none" stroke="black" d="M628.98,-1481.66C630.33,-1518.85 639,-1591.1 684,-1625.46 722.75,-1655.05 1053.22,-1655.1 1178.29,-1654.03"/>
<polygon fill="black" stroke="black" points="1178.08,-1657.52 1188.04,-1653.93 1178.01,-1650.52 1178.08,-1657.52"/>
<text text-anchor="middle" x="927.5" y="-1662.46" font-family="Times New Roman,serif" font-size="30.00"> &#160;&#160;62 &#160;&#160;1% &#160;&#160;4.67e&#45;08 mol/s &#160;&#160;&#160;1.00E+00</text>
</g>
<!-- R57 -->
<g id="node22" class="node">
<title>R57</title>
<g id="a_node22"><a xlink:href="57.svg" xlink:title="R57">
<polygon fill="cornsilk" stroke="none" points="1265,-1611.96 1189,-1611.96 1189,-1564.96 1265,-1564.96 1265,-1611.96"/>
<text text-anchor="middle" x="1227" y="-1579.96" font-family="Times New Roman,serif" font-size="35.00">R57</text>
</a>
</g>
</g>
<!-- R3&#45;&gt;R57 -->
<g id="edge23" class="edge">
<title>R3&#45;&gt;R57</title>
<path fill="none" stroke="black" d="M634.33,-1481.91C641.25,-1506.39 655.92,-1543.66 684,-1561.46 725.18,-1587.57 1054.14,-1589.11 1178.56,-1588.74"/>
<polygon fill="black" stroke="black" points="1178.27,-1592.24 1188.25,-1588.7 1178.24,-1585.24 1178.27,-1592.24"/>
<text text-anchor="middle" x="927.5" y="-1597.46" font-family="Times New Roman,serif" font-size="30.00"> &#160;&#160;63 &#160;&#160;1% &#160;&#160;4.67e&#45;08 mol/s &#160;&#160;&#160;1.00E+00</text>
</g>
<!-- R98 -->
<g id="node23" class="node">
<title>R98</title>
<g id="a_node23"><a xlink:href="98.svg" xlink:title="R98">
<polygon fill="cornsilk" stroke="none" points="1265,-1546.96 1189,-1546.96 1189,-1499.96 1265,-1499.96 1265,-1546.96"/>
<text text-anchor="middle" x="1227" y="-1514.96" font-family="Times New Roman,serif" font-size="35.00">R98</text>
</a>
</g>
</g>
<!-- R3&#45;&gt;R98 -->
<g id="edge25" class="edge">
<title>R3&#45;&gt;R98</title>
<path fill="none" stroke="black" d="M656.84,-1481.4C665.11,-1487.01 674.5,-1492.29 684,-1495.46 774.94,-1525.79 1063.72,-1525.59 1178.4,-1524.24"/>
<polygon fill="black" stroke="black" points="1178.3,-1527.73 1188.26,-1524.1 1178.22,-1520.73 1178.3,-1527.73"/>
<text text-anchor="middle" x="927.5" y="-1533.46" font-family="Times New Roman,serif" font-size="30.00"> &#160;&#160;276 &#160;&#160;1% &#160;&#160;4.67e&#45;08 mol/s &#160;&#160;&#160;1.00E+00</text>
</g>
<!-- R215 -->
<g id="node24" class="node">
<title>R215</title>
<g id="a_node24"><a xlink:href="215.svg" xlink:title="R215">
<polygon fill="cornsilk" stroke="none" points="1274,-1481.96 1180,-1481.96 1180,-1434.96 1274,-1434.96 1274,-1481.96"/>
<text text-anchor="middle" x="1227" y="-1449.96" font-family="Times New Roman,serif" font-size="35.00">R215</text>
</a>
</g>
</g>
<!-- R3&#45;&gt;R215 -->
<g id="edge26" class="edge">
<title>R3&#45;&gt;R215</title>
<path fill="none" stroke="black" d="M656.99,-1458.46C749.19,-1458.46 1044.53,-1458.46 1169.4,-1458.46"/>
<polygon fill="black" stroke="black" points="1169.23,-1461.96 1179.23,-1458.46 1169.23,-1454.96 1169.23,-1461.96"/>
<text text-anchor="middle" x="927.5" y="-1467.46" font-family="Times New Roman,serif" font-size="30.00"> &#160;&#160;277 &#160;&#160;1% &#160;&#160;4.67e&#45;08 mol/s &#160;&#160;&#160;1.00E+00</text>
</g>
<!-- R216 -->
<g id="node25" class="node">
<title>R216</title>
<g id="a_node25"><a xlink:href="216.svg" xlink:title="R216">
<polygon fill="cornsilk" stroke="none" points="1274,-1416.96 1180,-1416.96 1180,-1369.96 1274,-1369.96 1274,-1416.96"/>
<text text-anchor="middle" x="1227" y="-1384.96" font-family="Times New Roman,serif" font-size="35.00">R216</text>
</a>
</g>
</g>
<!-- R3&#45;&gt;R216 -->
<g id="edge27" class="edge">
<title>R3&#45;&gt;R216</title>
<path fill="none" stroke="black" d="M656.84,-1435.52C665.11,-1429.92 674.5,-1424.63 684,-1421.46 853.29,-1365 1068.76,-1376.76 1169.41,-1386.7"/>
<polygon fill="black" stroke="black" points="1168.93,-1390.27 1179.24,-1387.8 1169.65,-1383.3 1168.93,-1390.27"/>
<text text-anchor="middle" x="927.5" y="-1430.46" font-family="Times New Roman,serif" font-size="30.00"> &#160;&#160;278 &#160;&#160;1% &#160;&#160;4.67e&#45;08 mol/s &#160;&#160;&#160;1.00E+00</text>
</g>
<!-- R59 -->
<g id="node26" class="node">
<title>R59</title>
<g id="a_node26"><a xlink:href="59.svg" xlink:title="R59">
<polygon fill="cornsilk" stroke="none" points="1265,-1351.96 1189,-1351.96 1189,-1304.96 1265,-1304.96 1265,-1351.96"/>
<text text-anchor="middle" x="1227" y="-1319.96" font-family="Times New Roman,serif" font-size="35.00">R59</text>
</a>
</g>
</g>
<!-- R3&#45;&gt;R59 -->
<g id="edge28" class="edge">
<title>R3&#45;&gt;R59</title>
<path fill="none" stroke="black" d="M632.53,-1435.26C638.11,-1407.58 651.85,-1362.42 684,-1341.46 764.59,-1288.93 1062.03,-1312 1178.65,-1323.43"/>
<polygon fill="black" stroke="black" points="1178.06,-1326.99 1188.36,-1324.5 1178.75,-1320.02 1178.06,-1326.99"/>
<text text-anchor="middle" x="927.5" y="-1350.46" font-family="Times New Roman,serif" font-size="30.00"> &#160;&#160;279 &#160;&#160;1% &#160;&#160;4.67e&#45;08 mol/s &#160;&#160;&#160;1.00E+00</text>
</g>
<!-- R217 -->
<g id="node27" class="node">
<title>R217</title>
<g id="a_node27"><a xlink:href="217.svg" xlink:title="R217">
<polygon fill="cornsilk" stroke="none" points="1274,-1286.96 1180,-1286.96 1180,-1239.96 1274,-1239.96 1274,-1286.96"/>
<text text-anchor="middle" x="1227" y="-1254.96" font-family="Times New Roman,serif" font-size="35.00">R217</text>
</a>
</g>
</g>
<!-- R3&#45;&gt;R217 -->
<g id="edge29" class="edge">
<title>R3&#45;&gt;R217</title>
<path fill="none" stroke="black" d="M632.41,-1435.07C639.57,-1389.47 657.73,-1291.42 684,-1271.46 758.74,-1214.67 1046.09,-1241.53 1169.34,-1256.15"/>
<polygon fill="black" stroke="black" points="1168.69,-1259.72 1179.04,-1257.44 1169.53,-1252.77 1168.69,-1259.72"/>
<text text-anchor="middle" x="927.5" y="-1280.46" font-family="Times New Roman,serif" font-size="30.00"> &#160;&#160;280 &#160;&#160;1% &#160;&#160;4.67e&#45;08 mol/s &#160;&#160;&#160;1.00E+00</text>
</g>
<!-- R140 -->
<g id="node28" class="node">
<title>R140</title>
<g id="a_node28"><a xlink:href="140.svg" xlink:title="R140">
<polygon fill="cornsilk" stroke="none" points="1274,-1221.96 1180,-1221.96 1180,-1174.96 1274,-1174.96 1274,-1221.96"/>
<text text-anchor="middle" x="1227" y="-1189.96" font-family="Times New Roman,serif" font-size="35.00">R140</text>
</a>
</g>
</g>
<!-- R3&#45;&gt;R140 -->
<g id="edge30" class="edge">
<title>R3&#45;&gt;R140</title>
<path fill="none" stroke="black" d="M630.34,-1435.35C634.21,-1377.7 647.56,-1230.06 684,-1200.46 720.98,-1170.42 1038.76,-1186.66 1169.83,-1194.76"/>
<polygon fill="black" stroke="black" points="1169.23,-1198.29 1179.43,-1195.42 1169.67,-1191.3 1169.23,-1198.29"/>
<text text-anchor="middle" x="927.5" y="-1209.46" font-family="Times New Roman,serif" font-size="30.00"> &#160;&#160;281 &#160;&#160;1% &#160;&#160;4.67e&#45;08 mol/s &#160;&#160;&#160;1.00E+00</text>
</g>
<!-- R141 -->
<g id="node29" class="node">
<title>R141</title>
<g id="a_node29"><a xlink:href="141.svg" xlink:title="R141">
<polygon fill="cornsilk" stroke="none" points="1274,-1156.96 1180,-1156.96 1180,-1109.96 1274,-1109.96 1274,-1156.96"/>
<text text-anchor="middle" x="1227" y="-1124.96" font-family="Times New Roman,serif" font-size="35.00">R141</text>
</a>
</g>
</g>
<!-- R3&#45;&gt;R141 -->
<g id="edge31" class="edge">
<title>R3&#45;&gt;R141</title>
<path fill="none" stroke="black" d="M629.46,-1435.04C631.3,-1369.06 640.31,-1184.02 684,-1146.46 755.27,-1085.18 1045.23,-1111.61 1169.27,-1126.18"/>
<polygon fill="black" stroke="black" points="1168.69,-1129.76 1179.04,-1127.47 1169.52,-1122.81 1168.69,-1129.76"/>
<text text-anchor="middle" x="927.5" y="-1155.46" font-family="Times New Roman,serif" font-size="30.00"> &#160;&#160;282 &#160;&#160;1% &#160;&#160;4.67e&#45;08 mol/s &#160;&#160;&#160;1.00E+00</text>
</g>
<!-- R218 -->
<g id="node30" class="node">
<title>R218</title>
<g id="a_node30"><a xlink:href="218.svg" xlink:title="R218">
<polygon fill="cornsilk" stroke="none" points="1274,-1091.96 1180,-1091.96 1180,-1044.96 1274,-1044.96 1274,-1091.96"/>
<text text-anchor="middle" x="1227" y="-1059.96" font-family="Times New Roman,serif" font-size="35.00">R218</text>
</a>
</g>
</g>
<!-- R3&#45;&gt;R218 -->
<g id="edge32" class="edge">
<title>R3&#45;&gt;R218</title>
<path fill="none" stroke="black" d="M628.54,-1435.02C627.61,-1358.67 629.17,-1119.32 684,-1071.46 719.9,-1040.13 1038.31,-1056.5 1169.69,-1064.7"/>
<polygon fill="black" stroke="black" points="1169.12,-1068.24 1179.32,-1065.37 1169.56,-1061.25 1169.12,-1068.24"/>
<text text-anchor="middle" x="927.5" y="-1080.46" font-family="Times New Roman,serif" font-size="30.00"> &#160;&#160;283 &#160;&#160;1% &#160;&#160;4.67e&#45;08 mol/s &#160;&#160;&#160;1.00E+00</text>
</g>
<!-- R77 -->
<g id="node31" class="node">
<title>R77</title>
<g id="a_node31"><a xlink:href="77.svg" xlink:title="R77">
<polygon fill="cornsilk" stroke="none" points="1265,-1026.96 1189,-1026.96 1189,-979.96 1265,-979.96 1265,-1026.96"/>
<text text-anchor="middle" x="1227" y="-994.96" font-family="Times New Roman,serif" font-size="35.00">R77</text>
</a>
</g>
</g>
<!-- R3&#45;&gt;R77 -->
<g id="edge33" class="edge">
<title>R3&#45;&gt;R77</title>
<path fill="none" stroke="black" d="M630.15,-1435.21C634.67,-1348.14 652.61,-1044.87 684,-1016.46 755.5,-951.76 1059.74,-982.3 1178.37,-997.07"/>
<polygon fill="black" stroke="black" points="1177.89,-1000.67 1188.25,-998.45 1178.77,-993.72 1177.89,-1000.67"/>
<text text-anchor="middle" x="927.5" y="-1025.46" font-family="Times New Roman,serif" font-size="30.00"> &#160;&#160;284 &#160;&#160;1% &#160;&#160;4.67e&#45;08 mol/s &#160;&#160;&#160;1.00E+00</text>
</g>
<!-- R219 -->
<g id="node32" class="node">
<title>R219</title>
<g id="a_node32"><a xlink:href="219.svg" xlink:title="R219">
<polygon fill="cornsilk" stroke="none" points="1274,-961.96 1180,-961.96 1180,-914.96 1274,-914.96 1274,-961.96"/>
<text text-anchor="middle" x="1227" y="-929.96" font-family="Times New Roman,serif" font-size="35.00">R219</text>
</a>
</g>
</g>
<!-- R3&#45;&gt;R219 -->
<g id="edge34" class="edge">
<title>R3&#45;&gt;R219</title>
<path fill="none" stroke="black" d="M629.68,-1435.26C632.74,-1338.94 646.74,-974.09 684,-940.46 719.37,-908.53 1038.09,-925.88 1169.62,-934.51"/>
<polygon fill="black" stroke="black" points="1169.05,-938.05 1179.26,-935.22 1169.51,-931.06 1169.05,-938.05"/>
<text text-anchor="middle" x="927.5" y="-949.46" font-family="Times New Roman,serif" font-size="30.00"> &#160;&#160;285 &#160;&#160;1% &#160;&#160;4.67e&#45;08 mol/s &#160;&#160;&#160;1.00E+00</text>
</g>
<!-- R220 -->
<g id="node33" class="node">
<title>R220</title>
<g id="a_node33"><a xlink:href="220.svg" xlink:title="R220">
<polygon fill="cornsilk" stroke="none" points="1274,-896.96 1180,-896.96 1180,-849.96 1274,-849.96 1274,-896.96"/>
<text text-anchor="middle" x="1227" y="-864.96" font-family="Times New Roman,serif" font-size="35.00">R220</text>
</a>
</g>
</g>
<!-- R3&#45;&gt;R220 -->
<g id="edge35" class="edge">
<title>R3&#45;&gt;R220</title>
<path fill="none" stroke="black" d="M629.45,-1435.28C631.67,-1332.77 643.04,-923.51 684,-885.46 752.94,-821.41 1044.88,-850.1 1169.37,-865.73"/>
<polygon fill="black" stroke="black" points="1168.82,-869.31 1179.18,-867.1 1169.7,-862.37 1168.82,-869.31"/>
<text text-anchor="middle" x="927.5" y="-894.46" font-family="Times New Roman,serif" font-size="30.00"> &#160;&#160;286 &#160;&#160;1% &#160;&#160;4.67e&#45;08 mol/s &#160;&#160;&#160;1.00E+00</text>
</g>
<!-- R145 -->
<g id="node34" class="node">
<title>R145</title>
<g id="a_node34"><a xlink:href="145.svg" xlink:title="R145">
<polygon fill="cornsilk" stroke="none" points="1274,-831.96 1180,-831.96 1180,-784.96 1274,-784.96 1274,-831.96"/>
<text text-anchor="middle" x="1227" y="-799.96" font-family="Times New Roman,serif" font-size="35.00">R145</text>
</a>
</g>
</g>
<!-- R3&#45;&gt;R145 -->
<g id="edge36" class="edge">
<title>R3&#45;&gt;R145</title>
<path fill="none" stroke="black" d="M629.16,-1435.23C630.13,-1324.36 637.05,-852.68 684,-809.46 719.06,-777.19 1037.96,-795.36 1169.58,-804.35"/>
<polygon fill="black" stroke="black" points="1169.01,-807.89 1179.23,-805.09 1169.49,-800.91 1169.01,-807.89"/>
<text text-anchor="middle" x="927.5" y="-818.46" font-family="Times New Roman,serif" font-size="30.00"> &#160;&#160;287 &#160;&#160;1% &#160;&#160;4.67e&#45;08 mol/s &#160;&#160;&#160;1.00E+00</text>
</g>
<!-- R221 -->
<g id="node35" class="node">
<title>R221</title>
<g id="a_node35"><a xlink:href="221.svg" xlink:title="R221">
<polygon fill="cornsilk" stroke="none" points="1274,-766.96 1180,-766.96 1180,-719.96 1274,-719.96 1274,-766.96"/>
<text text-anchor="middle" x="1227" y="-734.96" font-family="Times New Roman,serif" font-size="35.00">R221</text>
</a>
</g>
</g>
<!-- R3&#45;&gt;R221 -->
<g id="edge37" class="edge">
<title>R3&#45;&gt;R221</title>
<path fill="none" stroke="black" d="M629.01,-1435.24C629.29,-1318.81 633.41,-802.22 684,-754.46 718.66,-721.75 1037.79,-733.91 1169.53,-740.42"/>
<polygon fill="black" stroke="black" points="1169.02,-743.95 1179.18,-740.96 1169.37,-736.96 1169.02,-743.95"/>
<text text-anchor="middle" x="927.5" y="-763.46" font-family="Times New Roman,serif" font-size="30.00"> &#160;&#160;288 &#160;&#160;1% &#160;&#160;4.67e&#45;08 mol/s &#160;&#160;&#160;1.00E+00</text>
</g>
<!-- R222 -->
<g id="node36" class="node">
<title>R222</title>
<g id="a_node36"><a xlink:href="222.svg" xlink:title="R222">
<polygon fill="cornsilk" stroke="none" points="1274,-701.96 1180,-701.96 1180,-654.96 1274,-654.96 1274,-701.96"/>
<text text-anchor="middle" x="1227" y="-669.96" font-family="Times New Roman,serif" font-size="35.00">R222</text>
</a>
</g>
</g>
<!-- R3&#45;&gt;R222 -->
<g id="edge38" class="edge">
<title>R3&#45;&gt;R222</title>
<path fill="none" stroke="black" d="M628.87,-1434.99C628.45,-1312.35 629.51,-748.87 684,-696.46 751.84,-631.2 1044.39,-656.91 1169.22,-671.29"/>
<polygon fill="black" stroke="black" points="1168.71,-674.87 1179.05,-672.56 1169.52,-667.92 1168.71,-674.87"/>
<text text-anchor="middle" x="927.5" y="-705.46" font-family="Times New Roman,serif" font-size="30.00"> &#160;&#160;289 &#160;&#160;1% &#160;&#160;4.67e&#45;08 mol/s &#160;&#160;&#160;1.00E+00</text>
</g>
<!-- R80 -->
<g id="node37" class="node">
<title>R80</title>
<g id="a_node37"><a xlink:href="80.svg" xlink:title="R80">
<polygon fill="cornsilk" stroke="none" points="1265,-636.96 1189,-636.96 1189,-589.96 1265,-589.96 1265,-636.96"/>
<text text-anchor="middle" x="1227" y="-604.96" font-family="Times New Roman,serif" font-size="35.00">R80</text>
</a>
</g>
</g>
<!-- R3&#45;&gt;R80 -->
<g id="edge39" class="edge">
<title>R3&#45;&gt;R80</title>
<path fill="none" stroke="black" d="M629.64,-1435.09C633.39,-1302.17 653.41,-646.33 684,-617.46 719.46,-584 1052.72,-602.09 1178.37,-610.2"/>
<polygon fill="black" stroke="black" points="1177.96,-613.75 1188.17,-610.9 1178.42,-606.76 1177.96,-613.75"/>
<text text-anchor="middle" x="927.5" y="-626.46" font-family="Times New Roman,serif" font-size="30.00"> &#160;&#160;290 &#160;&#160;1% &#160;&#160;4.67e&#45;08 mol/s &#160;&#160;&#160;1.00E+00</text>
</g>
<!-- R223 -->
<g id="node38" class="node">
<title>R223</title>
<g id="a_node38"><a xlink:href="223.svg" xlink:title="R223">
<polygon fill="cornsilk" stroke="none" points="1274,-571.96 1180,-571.96 1180,-524.96 1274,-524.96 1274,-571.96"/>
<text text-anchor="middle" x="1227" y="-539.96" font-family="Times New Roman,serif" font-size="35.00">R223</text>
</a>
</g>
</g>
<!-- R3&#45;&gt;R223 -->
<g id="edge40" class="edge">
<title>R3&#45;&gt;R223</title>
<path fill="none" stroke="black" d="M629.54,-1435.36C632.88,-1297.92 651.56,-592.72 684,-561.46 751.77,-496.17 1044.36,-524.95 1169.21,-540.67"/>
<polygon fill="black" stroke="black" points="1168.68,-544.26 1179.04,-542.06 1169.56,-537.32 1168.68,-544.26"/>
<text text-anchor="middle" x="927.5" y="-570.46" font-family="Times New Roman,serif" font-size="30.00"> &#160;&#160;291 &#160;&#160;1% &#160;&#160;4.67e&#45;08 mol/s &#160;&#160;&#160;1.00E+00</text>
</g>
<!-- R198 -->
<g id="node39" class="node">
<title>R198</title>
<g id="a_node39"><a xlink:href="198.svg" xlink:title="R198">
<polygon fill="cornsilk" stroke="none" points="1274,-506.96 1180,-506.96 1180,-459.96 1274,-459.96 1274,-506.96"/>
<text text-anchor="middle" x="1227" y="-474.96" font-family="Times New Roman,serif" font-size="35.00">R198</text>
</a>
</g>
</g>
<!-- R3&#45;&gt;R198 -->
<g id="edge41" class="edge">
<title>R3&#45;&gt;R198</title>
<path fill="none" stroke="black" d="M629.42,-1435.27C632.14,-1290.73 648.34,-518.23 684,-484.46 718.6,-451.7 1037.77,-470.16 1169.52,-479.29"/>
<polygon fill="black" stroke="black" points="1168.96,-482.83 1179.18,-480.04 1169.45,-475.85 1168.96,-482.83"/>
<text text-anchor="middle" x="927.5" y="-493.46" font-family="Times New Roman,serif" font-size="30.00"> &#160;&#160;292 &#160;&#160;1% &#160;&#160;4.67e&#45;08 mol/s &#160;&#160;&#160;1.00E+00</text>
</g>
<!-- R199 -->
<g id="node40" class="node">
<title>R199</title>
<g id="a_node40"><a xlink:href="199.svg" xlink:title="R199">
<polygon fill="cornsilk" stroke="none" points="1274,-441.96 1180,-441.96 1180,-394.96 1274,-394.96 1274,-441.96"/>
<text text-anchor="middle" x="1227" y="-409.96" font-family="Times New Roman,serif" font-size="35.00">R199</text>
</a>
</g>
</g>
<!-- R3&#45;&gt;R199 -->
<g id="edge42" class="edge">
<title>R3&#45;&gt;R199</title>
<path fill="none" stroke="black" d="M629.35,-1435.44C631.74,-1286.61 646.59,-465.65 684,-429.46 718.25,-396.32 1037.62,-408.74 1169.47,-415.37"/>
<polygon fill="black" stroke="black" points="1168.97,-418.9 1179.14,-415.91 1169.33,-411.9 1168.97,-418.9"/>
<text text-anchor="middle" x="927.5" y="-438.46" font-family="Times New Roman,serif" font-size="30.00"> &#160;&#160;293 &#160;&#160;1% &#160;&#160;4.67e&#45;08 mol/s &#160;&#160;&#160;1.00E+00</text>
</g>
<!-- R224 -->
<g id="node41" class="node">
<title>R224</title>
<g id="a_node41"><a xlink:href="224.svg" xlink:title="R224">
<polygon fill="cornsilk" stroke="none" points="1274,-376.96 1180,-376.96 1180,-329.96 1274,-329.96 1274,-376.96"/>
<text text-anchor="middle" x="1227" y="-344.96" font-family="Times New Roman,serif" font-size="35.00">R224</text>
</a>
</g>
</g>
<!-- R3&#45;&gt;R224 -->
<g id="edge43" class="edge">
<title>R3&#45;&gt;R224</title>
<path fill="none" stroke="black" d="M629.29,-1435.15C631.36,-1280.71 644.71,-410.08 684,-371.46 751.22,-305.4 1044.8,-331.66 1169.57,-346.24"/>
<polygon fill="black" stroke="black" points="1169.05,-349.82 1179.39,-347.53 1169.88,-342.87 1169.05,-349.82"/>
<text text-anchor="middle" x="927.5" y="-380.46" font-family="Times New Roman,serif" font-size="30.00"> &#160;&#160;294 &#160;&#160;1% &#160;&#160;4.67e&#45;08 mol/s &#160;&#160;&#160;1.00E+00</text>
</g>
<!-- R225 -->
<g id="node42" class="node">
<title>R225</title>
<g id="a_node42"><a xlink:href="225.svg" xlink:title="R225">
<polygon fill="cornsilk" stroke="none" points="1274,-311.96 1180,-311.96 1180,-264.96 1274,-264.96 1274,-311.96"/>
<text text-anchor="middle" x="1227" y="-279.96" font-family="Times New Roman,serif" font-size="35.00">R225</text>
</a>
</g>
</g>
<!-- R3&#45;&gt;R225 -->
<g id="edge44" class="edge">
<title>R3&#45;&gt;R225</title>
<path fill="none" stroke="black" d="M629.2,-1435.02C630.7,-1273.72 641.26,-333.53 684,-292.46 718.36,-259.44 1037.66,-276.17 1169.49,-284.59"/>
<polygon fill="black" stroke="black" points="1168.95,-288.13 1179.15,-285.28 1169.4,-281.14 1168.95,-288.13"/>
<text text-anchor="middle" x="927.5" y="-301.46" font-family="Times New Roman,serif" font-size="30.00"> &#160;&#160;295 &#160;&#160;1% &#160;&#160;4.67e&#45;08 mol/s &#160;&#160;&#160;1.00E+00</text>
</g>
<!-- R226 -->
<g id="node43" class="node">
<title>R226</title>
<g id="a_node43"><a xlink:href="226.svg" xlink:title="R226">
<polygon fill="cornsilk" stroke="none" points="1274,-246.96 1180,-246.96 1180,-199.96 1274,-199.96 1274,-246.96"/>
<text text-anchor="middle" x="1227" y="-214.96" font-family="Times New Roman,serif" font-size="35.00">R226</text>
</a>
</g>
</g>
<!-- R3&#45;&gt;R226 -->
<g id="edge45" class="edge">
<title>R3&#45;&gt;R226</title>
<path fill="none" stroke="black" d="M629.16,-1434.97C630.38,-1269.14 639.52,-280.01 684,-236.46 718.06,-203.11 1037.54,-214.4 1169.45,-220.56"/>
<polygon fill="black" stroke="black" points="1168.96,-224.09 1179.12,-221.07 1169.3,-217.1 1168.96,-224.09"/>
<text text-anchor="middle" x="927.5" y="-245.46" font-family="Times New Roman,serif" font-size="30.00"> &#160;&#160;296 &#160;&#160;1% &#160;&#160;4.67e&#45;08 mol/s &#160;&#160;&#160;1.00E+00</text>
</g>
<!-- R227 -->
<g id="node44" class="node">
<title>R227</title>
<g id="a_node44"><a xlink:href="227.svg" xlink:title="R227">
<polygon fill="cornsilk" stroke="none" points="1274,-181.96 1180,-181.96 1180,-134.96 1274,-134.96 1274,-181.96"/>
<text text-anchor="middle" x="1227" y="-149.96" font-family="Times New Roman,serif" font-size="35.00">R227</text>
</a>
</g>
</g>
<!-- R3&#45;&gt;R227 -->
<g id="edge46" class="edge">
<title>R3&#45;&gt;R227</title>
<path fill="none" stroke="black" d="M629.11,-1435.22C630.03,-1265.58 637.56,-223.54 684,-177.46 750.91,-111.08 1044.66,-136.9 1169.52,-151.32"/>
<polygon fill="black" stroke="black" points="1169.02,-154.9 1179.36,-152.59 1169.83,-147.94 1169.02,-154.9"/>
<text text-anchor="middle" x="927.5" y="-186.46" font-family="Times New Roman,serif" font-size="30.00"> &#160;&#160;297 &#160;&#160;1% &#160;&#160;4.67e&#45;08 mol/s &#160;&#160;&#160;1.00E+00</text>
</g>
<!-- R228 -->
<g id="node45" class="node">
<title>R228</title>
<g id="a_node45"><a xlink:href="228.svg" xlink:title="R228">
<polygon fill="cornsilk" stroke="none" points="1274,-116.96 1180,-116.96 1180,-69.96 1274,-69.96 1274,-116.96"/>
<text text-anchor="middle" x="1227" y="-84.96" font-family="Times New Roman,serif" font-size="35.00">R228</text>
</a>
</g>
</g>
<!-- R3&#45;&gt;R228 -->
<g id="edge47" class="edge">
<title>R3&#45;&gt;R228</title>
<path fill="none" stroke="black" d="M629.04,-1435.17C629.43,-1259.33 633.92,-145.92 684,-97.46 718.25,-64.33 1037.62,-81.12 1169.47,-89.58"/>
<polygon fill="black" stroke="black" points="1168.93,-93.12 1179.14,-90.27 1169.39,-86.13 1168.93,-93.12"/>
<text text-anchor="middle" x="927.5" y="-106.46" font-family="Times New Roman,serif" font-size="30.00"> &#160;&#160;298 &#160;&#160;1% &#160;&#160;4.67e&#45;08 mol/s &#160;&#160;&#160;1.00E+00</text>
</g>
<!-- R369 -->
<g id="node46" class="node">
<title>R369</title>
<g id="a_node46"><a xlink:href="369.svg" xlink:title="R369">
<polygon fill="cornsilk" stroke="none" points="1274,-51.96 1180,-51.96 1180,-4.96 1274,-4.96 1274,-51.96"/>
<text text-anchor="middle" x="1227" y="-19.96" font-family="Times New Roman,serif" font-size="35.00">R369</text>
</a>
</g>
</g>
<!-- R3&#45;&gt;R369 -->
<g id="edge48" class="edge">
<title>R3&#45;&gt;R369</title>
<path fill="none" stroke="black" d="M629.01,-1435.09C629.17,-1254.9 632.24,-92.46 684,-41.46 751.12,24.67 1044.75,-4.68 1169.55,-20.62"/>
<polygon fill="black" stroke="black" points="1169.01,-24.21 1179.38,-22.02 1169.91,-17.27 1169.01,-24.21"/>
<text text-anchor="middle" x="927.5" y="-50.46" font-family="Times New Roman,serif" font-size="30.00"> &#160;&#160;623 &#160;&#160;1% &#160;&#160;4.67e&#45;08 mol/s &#160;&#160;&#160;1.00E+00</text>
</g>
<!-- R1 -->
<g id="node2" class="node">
<title>R1</title>
<g id="a_node2"><a xlink:href="1.svg" xlink:title="R1">
<polygon fill="cornsilk" stroke="none" points="58,-1481.96 0,-1481.96 0,-1434.96 58,-1434.96 58,-1481.96"/>
<text text-anchor="middle" x="29" y="-1449.96" font-family="Times New Roman,serif" font-size="35.00">R1</text>
</a>
</g>
</g>
<!-- R1&#45;&gt;R3 -->
<g id="edge1" class="edge">
<title>R1&#45;&gt;R3</title>
<path fill="none" stroke="black" stroke-width="6" d="M57.78,-1478.45C67.23,-1484.13 78.15,-1489.56 89,-1492.46 294.66,-1547.48 362.34,-1547.48 568,-1492.46 572.24,-1491.33 576.49,-1489.81 580.66,-1488.04"/>
<polygon fill="black" stroke="black" stroke-width="6" points="581.27,-1498.95 594.22,-1480.45 571.63,-1480.3 581.27,-1498.95"/>
<text text-anchor="middle" x="328.5" y="-1542.46" font-family="Times New Roman,serif" font-size="30.00"> &#160;&#160;1 &#160;&#160;100% &#160;&#160;4.67e&#45;08 mol/s &#160;&#160;&#160;1.00E+00</text>
</g>
<!-- R1&#45;&gt;R3 -->
<g id="edge2" class="edge">
<title>R1&#45;&gt;R3</title>
<path fill="none" stroke="black" stroke-width="6" d="M57.9,-1456.75C67.73,-1456.23 78.85,-1455.72 89,-1455.46 301.82,-1450.05 355.18,-1450.05 568,-1455.46 571.33,-1455.55 574.77,-1455.66 578.23,-1455.79"/>
<polygon fill="black" stroke="black" stroke-width="6" points="572.64,-1466.32 593.1,-1456.75 573.6,-1445.34 572.64,-1466.32"/>
<text text-anchor="middle" x="328.5" y="-1464.46" font-family="Times New Roman,serif" font-size="30.00"> &#160;&#160;1 &#160;&#160;100% &#160;&#160;4.67e&#45;08 mol/s &#160;&#160;&#160;1.00E+00</text>
</g>
<!-- R1&#45;&gt;R3 -->
<g id="edge3" class="edge">
<title>R1&#45;&gt;R3</title>
<path fill="none" stroke="black" stroke-width="6" d="M53.14,-1435.19C63.26,-1426.62 75.82,-1417.91 89,-1413.46 290.69,-1345.32 366.31,-1345.32 568,-1413.46 574.59,-1415.69 581.03,-1418.98 587.08,-1422.78"/>
<polygon fill="black" stroke="black" stroke-width="6" points="576.54,-1428.74 598.86,-1432.19 589.02,-1411.86 576.54,-1428.74"/>
<text text-anchor="middle" x="328.5" y="-1422.46" font-family="Times New Roman,serif" font-size="30.00"> &#160;&#160;1 &#160;&#160;100% &#160;&#160;4.67e&#45;08 mol/s &#160;&#160;&#160;1.00E+00</text>
</g>
</g>
</svg>
