<?xml version="1.0" encoding="UTF-8" standalone="no"?>
<!DOCTYPE svg PUBLIC "-//W3C//DTD SVG 1.1//EN"
 "http://www.w3.org/Graphics/SVG/1.1/DTD/svg11.dtd">
<!-- Generated by graphviz version 8.0.3 (20230416.2022)
 -->
<!-- Title: G Pages: 1 -->
<svg width="640pt" height="460pt"
 viewBox="0.00 0.00 720.00 517.99" xmlns="http://www.w3.org/2000/svg" xmlns:xlink="http://www.w3.org/1999/xlink">
<g id="graph0" class="graph" transform="scale(0.501961 0.501961) rotate(0) translate(4 913.28)">
<title>G</title>
<polygon fill="white" stroke="none" points="-4,4 -4,-913.28 1271,-913.28 1271,4 -4,4"/>
<text text-anchor="middle" x="633.5" y="-876.48" font-family="Arial" font-size="36.00" fill="blue">Reaction Path Analysis</text>
<!-- R30 -->
<g id="node1" class="node">
<title>R30</title>
<g id="a_node1"><a xlink:href="30.svg" xlink:title="R30">
<polygon fill="cornsilk" stroke="none" points="667,-444.78 591,-444.78 591,-397.78 667,-397.78 667,-444.78"/>
<text text-anchor="middle" x="629" y="-412.78" font-family="Times New Roman,serif" font-size="35.00">R30</text>
</a>
</g>
</g>
<!-- R45 -->
<g id="node4" class="node">
<title>R45</title>
<g id="a_node4"><a xlink:href="45.svg" xlink:title="R45">
<polygon fill="cornsilk" stroke="none" points="1258,-834.78 1182,-834.78 1182,-787.78 1258,-787.78 1258,-834.78"/>
<text text-anchor="middle" x="1220" y="-802.78" font-family="Times New Roman,serif" font-size="35.00">R45</text>
</a>
</g>
</g>
<!-- R30&#45;&gt;R45 -->
<g id="edge3" class="edge">
<title>R30&#45;&gt;R45</title>
<path fill="none" stroke="black" d="M629.87,-444.71C630.01,-517.68 634.66,-738.74 685,-784.28 755.35,-847.93 1053.8,-827.15 1171.25,-816.19"/>
<polygon fill="black" stroke="black" points="1171.41,-819.59 1181.03,-815.16 1170.75,-812.63 1171.41,-819.59"/>
<text text-anchor="middle" x="924.5" y="-837.28" font-family="Times New Roman,serif" font-size="30.00"> &#160;&#160;117 &#160;&#160;7% &#160;&#160;4.67e&#45;08 mol/s &#160;&#160;&#160;1.00E+00</text>
</g>
<!-- R57 -->
<g id="node5" class="node">
<title>R57</title>
<g id="a_node5"><a xlink:href="57.svg" xlink:title="R57">
<polygon fill="cornsilk" stroke="none" points="1258,-769.78 1182,-769.78 1182,-722.78 1258,-722.78 1258,-769.78"/>
<text text-anchor="middle" x="1220" y="-737.78" font-family="Times New Roman,serif" font-size="35.00">R57</text>
</a>
</g>
</g>
<!-- R30&#45;&gt;R57 -->
<g id="edge4" class="edge">
<title>R30&#45;&gt;R57</title>
<path fill="none" stroke="black" d="M630.72,-444.52C633.21,-508.2 643.75,-683.14 685,-719.28 721.09,-750.9 1047.22,-749.06 1171.34,-747.18"/>
<polygon fill="black" stroke="black" points="1171.07,-750.67 1181.01,-747.01 1170.96,-743.67 1171.07,-750.67"/>
<text text-anchor="middle" x="924.5" y="-756.28" font-family="Times New Roman,serif" font-size="30.00"> &#160;&#160;176 &#160;&#160;7% &#160;&#160;4.67e&#45;08 mol/s &#160;&#160;&#160;1.00E+00</text>
</g>
<!-- R125 -->
<g id="node6" class="node">
<title>R125</title>
<g id="a_node6"><a xlink:href="125.svg" xlink:title="R125">
<polygon fill="cornsilk" stroke="none" points="1267,-704.78 1173,-704.78 1173,-657.78 1267,-657.78 1267,-704.78"/>
<text text-anchor="middle" x="1220" y="-672.78" font-family="Times New Roman,serif" font-size="35.00">R125</text>
</a>
</g>
</g>
<!-- R30&#45;&gt;R125 -->
<g id="edge5" class="edge">
<title>R30&#45;&gt;R125</title>
<path fill="none" stroke="black" d="M632.06,-444.72C637.29,-498.17 652.97,-626.57 685,-653.28 720.98,-683.29 1032.26,-683.38 1162.29,-682.08"/>
<polygon fill="black" stroke="black" points="1162.23,-685.57 1172.19,-681.96 1162.15,-678.57 1162.23,-685.57"/>
<text text-anchor="middle" x="924.5" y="-691.28" font-family="Times New Roman,serif" font-size="30.00"> &#160;&#160;177 &#160;&#160;7% &#160;&#160;4.67e&#45;08 mol/s &#160;&#160;&#160;1.00E+00</text>
</g>
<!-- R72 -->
<g id="node7" class="node">
<title>R72</title>
<g id="a_node7"><a xlink:href="72.svg" xlink:title="R72">
<polygon fill="cornsilk" stroke="none" points="1258,-639.78 1182,-639.78 1182,-592.78 1258,-592.78 1258,-639.78"/>
<text text-anchor="middle" x="1220" y="-607.78" font-family="Times New Roman,serif" font-size="35.00">R72</text>
</a>
</g>
</g>
<!-- R30&#45;&gt;R72 -->
<g id="edge6" class="edge">
<title>R30&#45;&gt;R72</title>
<path fill="none" stroke="black" d="M629.99,-444.78C631.39,-482.05 640.13,-553.99 685,-588.28 723.09,-617.39 1047.35,-617.75 1171.19,-616.81"/>
<polygon fill="black" stroke="black" points="1171.22,-620.3 1181.19,-616.72 1171.16,-613.3 1171.22,-620.3"/>
<text text-anchor="middle" x="924.5" y="-625.28" font-family="Times New Roman,serif" font-size="30.00"> &#160;&#160;247 &#160;&#160;7% &#160;&#160;4.67e&#45;08 mol/s &#160;&#160;&#160;1.00E+00</text>
</g>
<!-- R187 -->
<g id="node8" class="node">
<title>R187</title>
<g id="a_node8"><a xlink:href="187.svg" xlink:title="R187">
<polygon fill="cornsilk" stroke="none" points="1267,-574.78 1173,-574.78 1173,-527.78 1267,-527.78 1267,-574.78"/>
<text text-anchor="middle" x="1220" y="-542.78" font-family="Times New Roman,serif" font-size="35.00">R187</text>
</a>
</g>
</g>
<!-- R30&#45;&gt;R187 -->
<g id="edge7" class="edge">
<title>R30&#45;&gt;R187</title>
<path fill="none" stroke="black" d="M635.33,-444.73C642.25,-469.21 656.93,-506.47 685,-524.28 724.51,-549.35 1033.02,-551.68 1162.3,-551.54"/>
<polygon fill="black" stroke="black" points="1162.15,-555.04 1172.14,-551.52 1162.13,-548.04 1162.15,-555.04"/>
<text text-anchor="middle" x="924.5" y="-560.28" font-family="Times New Roman,serif" font-size="30.00"> &#160;&#160;248 &#160;&#160;7% &#160;&#160;4.67e&#45;08 mol/s &#160;&#160;&#160;1.00E+00</text>
</g>
<!-- R80 -->
<g id="node9" class="node">
<title>R80</title>
<g id="a_node9"><a xlink:href="80.svg" xlink:title="R80">
<polygon fill="cornsilk" stroke="none" points="1258,-509.78 1182,-509.78 1182,-462.78 1258,-462.78 1258,-509.78"/>
<text text-anchor="middle" x="1220" y="-477.78" font-family="Times New Roman,serif" font-size="35.00">R80</text>
</a>
</g>
</g>
<!-- R30&#45;&gt;R80 -->
<g id="edge8" class="edge">
<title>R30&#45;&gt;R80</title>
<path fill="none" stroke="black" d="M658.42,-444.61C666.54,-450.06 675.72,-455.18 685,-458.28 774.37,-488.13 1057.76,-488.25 1171.29,-487.02"/>
<polygon fill="black" stroke="black" points="1171.09,-490.51 1181.05,-486.89 1171.01,-483.51 1171.09,-490.51"/>
<text text-anchor="middle" x="924.5" y="-496.28" font-family="Times New Roman,serif" font-size="30.00"> &#160;&#160;290 &#160;&#160;7% &#160;&#160;4.67e&#45;08 mol/s &#160;&#160;&#160;1.00E+00</text>
</g>
<!-- R223 -->
<g id="node10" class="node">
<title>R223</title>
<g id="a_node10"><a xlink:href="223.svg" xlink:title="R223">
<polygon fill="cornsilk" stroke="none" points="1267,-444.78 1173,-444.78 1173,-397.78 1267,-397.78 1267,-444.78"/>
<text text-anchor="middle" x="1220" y="-412.78" font-family="Times New Roman,serif" font-size="35.00">R223</text>
</a>
</g>
</g>
<!-- R30&#45;&gt;R223 -->
<g id="edge9" class="edge">
<title>R30&#45;&gt;R223</title>
<path fill="none" stroke="black" d="M666.84,-421.28C766.61,-421.28 1042.52,-421.28 1162.29,-421.28"/>
<polygon fill="black" stroke="black" points="1162.04,-424.78 1172.04,-421.28 1162.04,-417.78 1162.04,-424.78"/>
<text text-anchor="middle" x="924.5" y="-430.28" font-family="Times New Roman,serif" font-size="30.00"> &#160;&#160;291 &#160;&#160;7% &#160;&#160;4.67e&#45;08 mol/s &#160;&#160;&#160;1.00E+00</text>
</g>
<!-- R232 -->
<g id="node11" class="node">
<title>R232</title>
<g id="a_node11"><a xlink:href="232.svg" xlink:title="R232">
<polygon fill="cornsilk" stroke="none" points="1267,-379.78 1173,-379.78 1173,-332.78 1267,-332.78 1267,-379.78"/>
<text text-anchor="middle" x="1220" y="-347.78" font-family="Times New Roman,serif" font-size="35.00">R232</text>
</a>
</g>
</g>
<!-- R30&#45;&gt;R232 -->
<g id="edge10" class="edge">
<title>R30&#45;&gt;R232</title>
<path fill="none" stroke="black" d="M658.42,-397.96C666.54,-392.5 675.72,-387.38 685,-384.28 851.35,-328.73 1062.99,-339.92 1162.48,-349.6"/>
<polygon fill="black" stroke="black" points="1161.89,-353.16 1172.19,-350.68 1162.59,-346.19 1161.89,-353.16"/>
<text text-anchor="middle" x="924.5" y="-393.28" font-family="Times New Roman,serif" font-size="30.00"> &#160;&#160;306 &#160;&#160;7% &#160;&#160;4.67e&#45;08 mol/s &#160;&#160;&#160;1.00E+00</text>
</g>
<!-- R252 -->
<g id="node12" class="node">
<title>R252</title>
<g id="a_node12"><a xlink:href="252.svg" xlink:title="R252">
<polygon fill="cornsilk" stroke="none" points="1267,-314.78 1173,-314.78 1173,-267.78 1267,-267.78 1267,-314.78"/>
<text text-anchor="middle" x="1220" y="-282.78" font-family="Times New Roman,serif" font-size="35.00">R252</text>
</a>
</g>
</g>
<!-- R30&#45;&gt;R252 -->
<g id="edge11" class="edge">
<title>R30&#45;&gt;R252</title>
<path fill="none" stroke="black" d="M633.7,-397.8C639.41,-370.32 653.25,-325.95 685,-305.28 762.25,-254.99 1041.53,-274.36 1162.49,-285.53"/>
<polygon fill="black" stroke="black" points="1162.07,-289.1 1172.35,-286.55 1162.72,-282.13 1162.07,-289.1"/>
<text text-anchor="middle" x="924.5" y="-314.28" font-family="Times New Roman,serif" font-size="30.00"> &#160;&#160;341 &#160;&#160;7% &#160;&#160;4.67e&#45;08 mol/s &#160;&#160;&#160;1.00E+00</text>
</g>
<!-- R253 -->
<g id="node13" class="node">
<title>R253</title>
<g id="a_node13"><a xlink:href="253.svg" xlink:title="R253">
<polygon fill="cornsilk" stroke="none" points="1267,-249.78 1173,-249.78 1173,-202.78 1267,-202.78 1267,-249.78"/>
<text text-anchor="middle" x="1220" y="-217.78" font-family="Times New Roman,serif" font-size="35.00">R253</text>
</a>
</g>
</g>
<!-- R30&#45;&gt;R253 -->
<g id="edge12" class="edge">
<title>R30&#45;&gt;R253</title>
<path fill="none" stroke="black" d="M633.51,-397.8C640.79,-352.55 659.06,-256.01 685,-236.28 758.52,-180.36 1041.05,-205.42 1162.72,-219.29"/>
<polygon fill="black" stroke="black" points="1161.96,-222.84 1172.29,-220.51 1162.76,-215.89 1161.96,-222.84"/>
<text text-anchor="middle" x="924.5" y="-245.28" font-family="Times New Roman,serif" font-size="30.00"> &#160;&#160;342 &#160;&#160;7% &#160;&#160;4.67e&#45;08 mol/s &#160;&#160;&#160;1.00E+00</text>
</g>
<!-- R289 -->
<g id="node14" class="node">
<title>R289</title>
<g id="a_node14"><a xlink:href="289.svg" xlink:title="R289">
<polygon fill="cornsilk" stroke="none" points="1267,-184.78 1173,-184.78 1173,-137.78 1267,-137.78 1267,-184.78"/>
<text text-anchor="middle" x="1220" y="-152.78" font-family="Times New Roman,serif" font-size="35.00">R289</text>
</a>
</g>
</g>
<!-- R30&#45;&gt;R289 -->
<g id="edge13" class="edge">
<title>R30&#45;&gt;R289</title>
<path fill="none" stroke="black" d="M631.41,-397.93C635.4,-340.45 648.95,-194.63 685,-165.28 721.28,-135.74 1032.38,-150.3 1162.33,-157.78"/>
<polygon fill="black" stroke="black" points="1162.03,-161.33 1172.22,-158.41 1162.44,-154.34 1162.03,-161.33"/>
<text text-anchor="middle" x="924.5" y="-174.28" font-family="Times New Roman,serif" font-size="30.00"> &#160;&#160;391 &#160;&#160;7% &#160;&#160;4.66e&#45;08 mol/s &#160;&#160;&#160;9.99E&#45;01</text>
</g>
<!-- R290 -->
<g id="node15" class="node">
<title>R290</title>
<g id="a_node15"><a xlink:href="290.svg" xlink:title="R290">
<polygon fill="cornsilk" stroke="none" points="1267,-119.78 1173,-119.78 1173,-72.78 1267,-72.78 1267,-119.78"/>
<text text-anchor="middle" x="1220" y="-87.78" font-family="Times New Roman,serif" font-size="35.00">R290</text>
</a>
</g>
</g>
<!-- R30&#45;&gt;R290 -->
<g id="edge14" class="edge">
<title>R30&#45;&gt;R290</title>
<path fill="none" stroke="black" d="M630.49,-398.01C632.41,-332.48 641.64,-148.67 685,-111.28 755.05,-50.87 1040.17,-75.5 1162.65,-89.32"/>
<polygon fill="black" stroke="black" points="1161.95,-92.87 1172.28,-90.54 1162.75,-85.92 1161.95,-92.87"/>
<text text-anchor="middle" x="924.5" y="-120.28" font-family="Times New Roman,serif" font-size="30.00"> &#160;&#160;392 &#160;&#160;7% &#160;&#160;4.67e&#45;08 mol/s &#160;&#160;&#160;1.00E+00</text>
</g>
<!-- R291 -->
<g id="node16" class="node">
<title>R291</title>
<g id="a_node16"><a xlink:href="291.svg" xlink:title="R291">
<polygon fill="cornsilk" stroke="none" points="1267,-54.78 1173,-54.78 1173,-7.78 1267,-7.78 1267,-54.78"/>
<text text-anchor="middle" x="1220" y="-22.78" font-family="Times New Roman,serif" font-size="35.00">R291</text>
</a>
</g>
</g>
<!-- R30&#45;&gt;R291 -->
<g id="edge15" class="edge">
<title>R30&#45;&gt;R291</title>
<path fill="none" stroke="black" d="M629.57,-397.97C628.72,-322.04 630.52,-83.98 685,-36.28 754.57,24.63 1039.95,-6.35 1162.58,-23"/>
<polygon fill="black" stroke="black" points="1161.84,-26.57 1172.23,-24.46 1162.8,-19.63 1161.84,-26.57"/>
<text text-anchor="middle" x="924.5" y="-45.28" font-family="Times New Roman,serif" font-size="30.00"> &#160;&#160;393 &#160;&#160;7% &#160;&#160;4.67e&#45;08 mol/s &#160;&#160;&#160;1.00E+00</text>
</g>
<!-- R14 -->
<g id="node2" class="node">
<title>R14</title>
<g id="a_node2"><a xlink:href="14.svg" xlink:title="R14">
<polygon fill="cornsilk" stroke="none" points="76,-509.78 0,-509.78 0,-462.78 76,-462.78 76,-509.78"/>
<text text-anchor="middle" x="38" y="-477.78" font-family="Times New Roman,serif" font-size="35.00">R14</text>
</a>
</g>
</g>
<!-- R14&#45;&gt;R30 -->
<g id="edge1" class="edge">
<title>R14&#45;&gt;R30</title>
<path fill="none" stroke="black" stroke-width="5" d="M75.86,-490.93C164.34,-500.69 394.69,-517.83 573,-458.28 575.9,-457.31 578.79,-456.15 581.64,-454.84"/>
<polygon fill="black" stroke="black" stroke-width="5" points="581.54,-465.11 594.58,-447.61 572.88,-449.91 581.54,-465.11"/>
<text text-anchor="middle" x="333.5" y="-509.28" font-family="Times New Roman,serif" font-size="30.00"> &#160;&#160;35 &#160;&#160;99% &#160;&#160;4.67e&#45;08 mol/s &#160;&#160;&#160;1.00E+00</text>
</g>
<!-- R1 -->
<g id="node3" class="node">
<title>R1</title>
<g id="a_node3"><a xlink:href="1.svg" xlink:title="R1">
<polygon fill="cornsilk" stroke="none" points="67,-444.78 9,-444.78 9,-397.78 67,-397.78 67,-444.78"/>
<text text-anchor="middle" x="38" y="-412.78" font-family="Times New Roman,serif" font-size="35.00">R1</text>
</a>
</g>
</g>
<!-- R1&#45;&gt;R30 -->
<g id="edge2" class="edge">
<title>R1&#45;&gt;R30</title>
<path fill="none" stroke="black" stroke-width="5" d="M66.62,-421.28C157.17,-421.28 446.38,-421.28 570.51,-421.28"/>
<polygon fill="black" stroke="black" stroke-width="5" points="565.34,-430.03 585.34,-421.28 565.34,-412.53 565.34,-430.03"/>
<text text-anchor="middle" x="333.5" y="-430.28" font-family="Times New Roman,serif" font-size="30.00"> &#160;&#160;35 &#160;&#160;99% &#160;&#160;4.67e&#45;08 mol/s &#160;&#160;&#160;1.00E+00</text>
</g>
<!-- R29 -->
<g id="node17" class="node">
<title>R29</title>
<g id="a_node17"><a xlink:href="29.svg" xlink:title="R29">
<polygon fill="cornsilk" stroke="none" points="76,-379.78 0,-379.78 0,-332.78 76,-332.78 76,-379.78"/>
<text text-anchor="middle" x="38" y="-347.78" font-family="Times New Roman,serif" font-size="35.00">R29</text>
</a>
</g>
</g>
<!-- R29&#45;&gt;R30 -->
<g id="edge16" class="edge">
<title>R29&#45;&gt;R30</title>
<path fill="none" stroke="black" d="M75.86,-351.64C164.34,-341.87 394.69,-324.74 573,-384.28 578.94,-386.27 584.85,-389.08 590.46,-392.28"/>
<polygon fill="black" stroke="black" points="588.24,-395.65 598.58,-397.96 591.94,-389.7 588.24,-395.65"/>
<text text-anchor="middle" x="333.5" y="-393.28" font-family="Times New Roman,serif" font-size="30.00"> &#160;&#160;435 &#160;&#160;0% &#160;&#160;6.1e&#45;11 mol/s &#160;&#160;&#160;1.24E&#45;01</text>
</g>
</g>
</svg>
