<?xml version="1.0" encoding="UTF-8" standalone="no"?>
<!DOCTYPE svg PUBLIC "-//W3C//DTD SVG 1.1//EN"
 "http://www.w3.org/Graphics/SVG/1.1/DTD/svg11.dtd">
<!-- Generated by graphviz version 8.0.3 (20230416.2022)
 -->
<!-- Title: G Pages: 1 -->
<svg width="640pt" height="316pt"
 viewBox="0.00 0.00 720.00 355.19" xmlns="http://www.w3.org/2000/svg" xmlns:xlink="http://www.w3.org/1999/xlink">
<g id="graph0" class="graph" transform="scale(0.47619 0.47619) rotate(0) translate(4 659.02)">
<title>G</title>
<polygon fill="white" stroke="none" points="-4,4 -4,-659.02 1340,-659.02 1340,4 -4,4"/>
<text text-anchor="middle" x="668" y="-622.22" font-family="Arial" font-size="36.00" fill="blue">Reaction Path Analysis</text>
<!-- R30 -->
<g id="node1" class="node">
<title>R30</title>
<g id="a_node1"><a xlink:href="30.svg" xlink:title="R30">
<polygon fill="cornsilk" stroke="none" points="706,-318.52 630,-318.52 630,-271.52 706,-271.52 706,-318.52"/>
<text text-anchor="middle" x="668" y="-286.52" font-family="Times New Roman,serif" font-size="35.00">R30</text>
</a>
</g>
</g>
<!-- R45 -->
<g id="node4" class="node">
<title>R45</title>
<g id="a_node4"><a xlink:href="45.svg" xlink:title="R45">
<polygon fill="cornsilk" stroke="none" points="1327,-546.52 1251,-546.52 1251,-499.52 1327,-499.52 1327,-546.52"/>
<text text-anchor="middle" x="1289" y="-514.52" font-family="Times New Roman,serif" font-size="35.00">R45</text>
</a>
</g>
</g>
<!-- R30&#45;&gt;R45 -->
<g id="edge3" class="edge">
<title>R30&#45;&gt;R45</title>
<path fill="none" stroke="black" d="M669.76,-318.38C672.56,-361.46 685.32,-452.9 742.5,-495.02 893.88,-606.55 1138,-562.11 1240.39,-536.41"/>
<polygon fill="black" stroke="black" points="1241.19,-539.56 1250.01,-533.68 1239.45,-532.78 1241.19,-539.56"/>
<text text-anchor="middle" x="978.5" y="-576.02" font-family="Times New Roman,serif" font-size="30.00"> &#160;&#160;117 &#160;&#160;12% &#160;&#160;0.0342 mol/s &#160;&#160;&#160;1.00E+00</text>
</g>
<!-- R125 -->
<g id="node6" class="node">
<title>R125</title>
<g id="a_node6"><a xlink:href="125.svg" xlink:title="R125">
<polygon fill="cornsilk" stroke="none" points="1336,-481.52 1242,-481.52 1242,-434.52 1336,-434.52 1336,-481.52"/>
<text text-anchor="middle" x="1289" y="-449.52" font-family="Times New Roman,serif" font-size="35.00">R125</text>
</a>
</g>
</g>
<!-- R30&#45;&gt;R125 -->
<g id="edge5" class="edge">
<title>R30&#45;&gt;R125</title>
<path fill="none" stroke="black" d="M673.94,-318.46C682.08,-350.58 701.66,-407.21 742.5,-433.02 783.03,-458.64 1100.19,-459.38 1231.44,-458.57"/>
<polygon fill="black" stroke="black" points="1231.08,-462.06 1241.05,-458.49 1231.03,-455.06 1231.08,-462.06"/>
<text text-anchor="middle" x="978.5" y="-467.02" font-family="Times New Roman,serif" font-size="30.00"> &#160;&#160;177 &#160;&#160;12% &#160;&#160;0.0342 mol/s &#160;&#160;&#160;1.00E+00</text>
</g>
<!-- R187 -->
<g id="node8" class="node">
<title>R187</title>
<g id="a_node8"><a xlink:href="187.svg" xlink:title="R187">
<polygon fill="cornsilk" stroke="none" points="1336,-416.52 1242,-416.52 1242,-369.52 1336,-369.52 1336,-416.52"/>
<text text-anchor="middle" x="1289" y="-384.52" font-family="Times New Roman,serif" font-size="35.00">R187</text>
</a>
</g>
</g>
<!-- R30&#45;&gt;R187 -->
<g id="edge7" class="edge">
<title>R30&#45;&gt;R187</title>
<path fill="none" stroke="black" d="M686.43,-318.42C699.81,-334.39 719.8,-354.34 742.5,-364.02 829.2,-401.03 1110.19,-398.05 1231.44,-394.87"/>
<polygon fill="black" stroke="black" points="1231.42,-398.35 1241.32,-394.57 1231.23,-391.35 1231.42,-398.35"/>
<text text-anchor="middle" x="978.5" y="-405.02" font-family="Times New Roman,serif" font-size="30.00"> &#160;&#160;248 &#160;&#160;12% &#160;&#160;0.0342 mol/s &#160;&#160;&#160;1.00E+00</text>
</g>
<!-- R80 -->
<g id="node9" class="node">
<title>R80</title>
<g id="a_node9"><a xlink:href="80.svg" xlink:title="R80">
<polygon fill="cornsilk" stroke="none" points="1327,-351.52 1251,-351.52 1251,-304.52 1327,-304.52 1327,-351.52"/>
<text text-anchor="middle" x="1289" y="-319.52" font-family="Times New Roman,serif" font-size="35.00">R80</text>
</a>
</g>
</g>
<!-- R30&#45;&gt;R80 -->
<g id="edge8" class="edge">
<title>R30&#45;&gt;R80</title>
<path fill="none" stroke="black" d="M705.92,-301.35C717.59,-303.13 730.55,-304.89 742.5,-306.02 925.89,-323.39 1145.23,-327.07 1240.24,-327.83"/>
<polygon fill="black" stroke="black" points="1240.17,-331.34 1250.19,-327.91 1240.22,-324.34 1240.17,-331.34"/>
<text text-anchor="middle" x="978.5" y="-336.02" font-family="Times New Roman,serif" font-size="30.00"> &#160;&#160;290 &#160;&#160;12% &#160;&#160;0.0342 mol/s &#160;&#160;&#160;1.00E+00</text>
</g>
<!-- R223 -->
<g id="node10" class="node">
<title>R223</title>
<g id="a_node10"><a xlink:href="223.svg" xlink:title="R223">
<polygon fill="cornsilk" stroke="none" points="1336,-286.52 1242,-286.52 1242,-239.52 1336,-239.52 1336,-286.52"/>
<text text-anchor="middle" x="1289" y="-254.52" font-family="Times New Roman,serif" font-size="35.00">R223</text>
</a>
</g>
</g>
<!-- R30&#45;&gt;R223 -->
<g id="edge9" class="edge">
<title>R30&#45;&gt;R223</title>
<path fill="none" stroke="black" d="M705.94,-281.83C717.49,-278.28 730.39,-274.91 742.5,-273.02 919.09,-245.51 1131.69,-253.12 1231.3,-259.03"/>
<polygon fill="black" stroke="black" points="1230.82,-262.56 1241.02,-259.68 1231.25,-255.58 1230.82,-262.56"/>
<text text-anchor="middle" x="978.5" y="-282.02" font-family="Times New Roman,serif" font-size="30.00"> &#160;&#160;291 &#160;&#160;12% &#160;&#160;0.0342 mol/s &#160;&#160;&#160;1.00E+00</text>
</g>
<!-- R232 -->
<g id="node11" class="node">
<title>R232</title>
<g id="a_node11"><a xlink:href="232.svg" xlink:title="R232">
<polygon fill="cornsilk" stroke="none" points="1336,-221.52 1242,-221.52 1242,-174.52 1336,-174.52 1336,-221.52"/>
<text text-anchor="middle" x="1289" y="-189.52" font-family="Times New Roman,serif" font-size="35.00">R232</text>
</a>
</g>
</g>
<!-- R30&#45;&gt;R232 -->
<g id="edge10" class="edge">
<title>R30&#45;&gt;R232</title>
<path fill="none" stroke="black" d="M683.21,-271.6C696.09,-252.79 716.93,-227.67 742.5,-216.02 828.22,-177 1109.75,-187.73 1231.3,-194.47"/>
<polygon fill="black" stroke="black" points="1231.02,-198.02 1241.2,-195.09 1231.42,-191.03 1231.02,-198.02"/>
<text text-anchor="middle" x="978.5" y="-225.02" font-family="Times New Roman,serif" font-size="30.00"> &#160;&#160;306 &#160;&#160;12% &#160;&#160;0.0342 mol/s &#160;&#160;&#160;1.00E+00</text>
</g>
<!-- R290 -->
<g id="node15" class="node">
<title>R290</title>
<g id="a_node15"><a xlink:href="290.svg" xlink:title="R290">
<polygon fill="cornsilk" stroke="none" points="1336,-156.52 1242,-156.52 1242,-109.52 1336,-109.52 1336,-156.52"/>
<text text-anchor="middle" x="1289" y="-124.52" font-family="Times New Roman,serif" font-size="35.00">R290</text>
</a>
</g>
</g>
<!-- R30&#45;&gt;R290 -->
<g id="edge14" class="edge">
<title>R30&#45;&gt;R290</title>
<path fill="none" stroke="black" d="M673.19,-271.76C680.6,-238.23 699.51,-177.36 742.5,-150.02 822.25,-99.31 1108.93,-117.31 1231.63,-127.73"/>
<polygon fill="black" stroke="black" points="1231.02,-131.27 1241.28,-128.65 1231.62,-124.3 1231.02,-131.27"/>
<text text-anchor="middle" x="978.5" y="-159.02" font-family="Times New Roman,serif" font-size="30.00"> &#160;&#160;392 &#160;&#160;12% &#160;&#160;0.0342 mol/s &#160;&#160;&#160;1.00E+00</text>
</g>
<!-- R291 -->
<g id="node16" class="node">
<title>R291</title>
<g id="a_node16"><a xlink:href="291.svg" xlink:title="R291">
<polygon fill="cornsilk" stroke="none" points="1336,-91.52 1242,-91.52 1242,-44.52 1336,-44.52 1336,-91.52"/>
<text text-anchor="middle" x="1289" y="-59.52" font-family="Times New Roman,serif" font-size="35.00">R291</text>
</a>
</g>
</g>
<!-- R30&#45;&gt;R291 -->
<g id="edge15" class="edge">
<title>R30&#45;&gt;R291</title>
<path fill="none" stroke="black" d="M668.87,-271.73C670.01,-225.75 679.89,-123.8 742.5,-78.02 889.98,29.8 1124.88,-19.18 1231.76,-49.88"/>
<polygon fill="black" stroke="black" points="1230.73,-53.52 1241.31,-52.97 1232.7,-46.8 1230.73,-53.52"/>
<text text-anchor="middle" x="978.5" y="-87.02" font-family="Times New Roman,serif" font-size="30.00"> &#160;&#160;393 &#160;&#160;12% &#160;&#160;0.0342 mol/s &#160;&#160;&#160;1.00E+00</text>
</g>
<!-- R14 -->
<g id="node2" class="node">
<title>R14</title>
<g id="a_node2"><a xlink:href="14.svg" xlink:title="R14">
<polygon fill="cornsilk" stroke="none" points="85,-546.52 9,-546.52 9,-499.52 85,-499.52 85,-546.52"/>
<text text-anchor="middle" x="47" y="-514.52" font-family="Times New Roman,serif" font-size="35.00">R14</text>
</a>
</g>
</g>
<!-- R14&#45;&gt;R30 -->
<g id="edge1" class="edge">
<title>R14&#45;&gt;R30</title>
<path fill="none" stroke="black" d="M84.68,-534.48C182.63,-562.59 453.66,-623.9 612,-497.02 638.09,-476.12 655.09,-380.91 662.59,-329.01"/>
<polygon fill="black" stroke="black" points="666.16,-329.72 664.08,-319.33 659.23,-328.75 666.16,-329.72"/>
<text text-anchor="middle" x="357.5" y="-583.02" font-family="Times New Roman,serif" font-size="30.00"> &#160;&#160;35 &#160;&#160;0% &#160;&#160;0.0342 mol/s &#160;&#160;&#160;1.00E+00</text>
</g>
<!-- R1 -->
<g id="node3" class="node">
<title>R1</title>
<g id="a_node3"><a xlink:href="1.svg" xlink:title="R1">
<polygon fill="cornsilk" stroke="none" points="76,-481.52 18,-481.52 18,-434.52 76,-434.52 76,-481.52"/>
<text text-anchor="middle" x="47" y="-449.52" font-family="Times New Roman,serif" font-size="35.00">R1</text>
</a>
</g>
</g>
<!-- R1&#45;&gt;R30 -->
<g id="edge2" class="edge">
<title>R1&#45;&gt;R30</title>
<path fill="none" stroke="black" d="M75.72,-458.7C183.13,-461.07 568.1,-467.29 612,-436.02 646.32,-411.58 659.23,-362.43 664.08,-329.12"/>
<polygon fill="black" stroke="black" points="667.64,-329.85 665.43,-319.49 660.7,-328.96 667.64,-329.85"/>
<text text-anchor="middle" x="357.5" y="-469.02" font-family="Times New Roman,serif" font-size="30.00"> &#160;&#160;35 &#160;&#160;0% &#160;&#160;0.0342 mol/s &#160;&#160;&#160;1.00E+00</text>
</g>
<!-- R57 -->
<g id="node5" class="node">
<title>R57</title>
<g id="a_node5"><a xlink:href="57.svg" xlink:title="R57">
<polygon fill="cornsilk" stroke="none" points="85,-416.52 9,-416.52 9,-369.52 85,-369.52 85,-416.52"/>
<text text-anchor="middle" x="47" y="-384.52" font-family="Times New Roman,serif" font-size="35.00">R57</text>
</a>
</g>
</g>
<!-- R57&#45;&gt;R30 -->
<g id="edge4" class="edge">
<title>R57&#45;&gt;R30</title>
<path fill="none" stroke="black" d="M84.85,-395.1C195.02,-400.69 519.91,-412.64 612,-365.02 627.99,-356.76 640.82,-341.52 650.05,-327.37"/>
<polygon fill="black" stroke="black" points="653.36,-329.66 655.59,-319.31 647.39,-326.01 653.36,-329.66"/>
<text text-anchor="middle" x="357.5" y="-409.02" font-family="Times New Roman,serif" font-size="30.00"> &#160;&#160;176 &#160;&#160;0% &#160;&#160;2.36 mol/s &#160;&#160;&#160;1.41E&#45;02</text>
</g>
<!-- R72 -->
<g id="node7" class="node">
<title>R72</title>
<g id="a_node7"><a xlink:href="72.svg" xlink:title="R72">
<polygon fill="cornsilk" stroke="none" points="85,-351.52 9,-351.52 9,-304.52 85,-304.52 85,-351.52"/>
<text text-anchor="middle" x="47" y="-319.52" font-family="Times New Roman,serif" font-size="35.00">R72</text>
</a>
</g>
</g>
<!-- R72&#45;&gt;R30 -->
<g id="edge6" class="edge">
<title>R72&#45;&gt;R30</title>
<path fill="none" stroke="black" d="M84.78,-328.6C174.98,-329.57 414.22,-329.51 612,-306.02 614.4,-305.74 616.84,-305.41 619.31,-305.04"/>
<polygon fill="black" stroke="black" points="619.86,-308.33 629.15,-303.23 618.71,-301.42 619.86,-308.33"/>
<text text-anchor="middle" x="357.5" y="-337.02" font-family="Times New Roman,serif" font-size="30.00"> &#160;&#160;247 &#160;&#160;0% &#160;&#160;4.04 mol/s &#160;&#160;&#160;8.33E&#45;03</text>
</g>
<!-- R252 -->
<g id="node12" class="node">
<title>R252</title>
<g id="a_node12"><a xlink:href="252.svg" xlink:title="R252">
<polygon fill="cornsilk" stroke="none" points="94,-286.52 0,-286.52 0,-239.52 94,-239.52 94,-286.52"/>
<text text-anchor="middle" x="47" y="-254.52" font-family="Times New Roman,serif" font-size="35.00">R252</text>
</a>
</g>
</g>
<!-- R252&#45;&gt;R30 -->
<g id="edge11" class="edge">
<title>R252&#45;&gt;R30</title>
<path fill="none" stroke="black" d="M93.93,-258.29C190.84,-249.51 422.89,-234.86 612,-273.02 614.65,-273.56 617.33,-274.21 620.01,-274.96"/>
<polygon fill="black" stroke="black" points="618.69,-278.53 629.28,-278.23 620.82,-271.86 618.69,-278.53"/>
<text text-anchor="middle" x="357.5" y="-282.02" font-family="Times New Roman,serif" font-size="30.00"> &#160;&#160;341 &#160;&#160;0% &#160;&#160;270.0 mol/s &#160;&#160;&#160;1.27E&#45;04</text>
</g>
<!-- R253 -->
<g id="node13" class="node">
<title>R253</title>
<g id="a_node13"><a xlink:href="253.svg" xlink:title="R253">
<polygon fill="cornsilk" stroke="none" points="94,-221.52 0,-221.52 0,-174.52 94,-174.52 94,-221.52"/>
<text text-anchor="middle" x="47" y="-189.52" font-family="Times New Roman,serif" font-size="35.00">R253</text>
</a>
</g>
</g>
<!-- R253&#45;&gt;R30 -->
<g id="edge12" class="edge">
<title>R253&#45;&gt;R30</title>
<path fill="none" stroke="black" d="M93.62,-193.75C211.59,-183.52 523.71,-161.98 612,-211.02 631.8,-222.02 645.67,-243.5 654.53,-261.98"/>
<polygon fill="black" stroke="black" points="651.66,-263.15 658.94,-270.85 658.06,-260.3 651.66,-263.15"/>
<text text-anchor="middle" x="357.5" y="-220.02" font-family="Times New Roman,serif" font-size="30.00"> &#160;&#160;342 &#160;&#160;0% &#160;&#160;0.694 mol/s &#160;&#160;&#160;4.49E&#45;02</text>
</g>
<!-- R289 -->
<g id="node14" class="node">
<title>R289</title>
<g id="a_node14"><a xlink:href="289.svg" xlink:title="R289">
<polygon fill="cornsilk" stroke="none" points="94,-156.52 0,-156.52 0,-109.52 94,-109.52 94,-156.52"/>
<text text-anchor="middle" x="47" y="-124.52" font-family="Times New Roman,serif" font-size="35.00">R289</text>
</a>
</g>
</g>
<!-- R289&#45;&gt;R30 -->
<g id="edge13" class="edge">
<title>R289&#45;&gt;R30</title>
<path fill="none" stroke="black" stroke-width="5" d="M93.88,-127.41C213.21,-113.78 529.74,-84.22 612,-143.02 646.25,-167.51 659.24,-215.49 664.13,-251.02"/>
<polygon fill="black" stroke="black" stroke-width="5" points="655.51,-246.72 666.29,-265.71 672.92,-244.91 655.51,-246.72"/>
<text text-anchor="middle" x="357.5" y="-152.02" font-family="Times New Roman,serif" font-size="30.00"> &#160;&#160;391 &#160;&#160;99% &#160;&#160;3120000.0 mol/s &#160;&#160;&#160;1.10E&#45;08</text>
</g>
<!-- R29 -->
<g id="node17" class="node">
<title>R29</title>
<g id="a_node17"><a xlink:href="29.svg" xlink:title="R29">
<polygon fill="cornsilk" stroke="none" points="85,-91.52 9,-91.52 9,-44.52 85,-44.52 85,-91.52"/>
<text text-anchor="middle" x="47" y="-59.52" font-family="Times New Roman,serif" font-size="35.00">R29</text>
</a>
</g>
</g>
<!-- R29&#45;&gt;R30 -->
<g id="edge16" class="edge">
<title>R29&#45;&gt;R30</title>
<path fill="none" stroke="black" d="M84.93,-54.31C182.95,-20.51 452.98,55.26 612,-70.02 641.76,-93.47 657.51,-204.31 663.75,-261.18"/>
<polygon fill="black" stroke="black" points="660.34,-261.22 664.87,-270.79 667.3,-260.48 660.34,-261.22"/>
<text text-anchor="middle" x="357.5" y="-79.02" font-family="Times New Roman,serif" font-size="30.00"> &#160;&#160;435 &#160;&#160;0% &#160;&#160;0.00121 mol/s &#160;&#160;&#160;4.09E&#45;01</text>
</g>
</g>
</svg>
