<?xml version="1.0" encoding="UTF-8" standalone="no"?>
<!DOCTYPE svg PUBLIC "-//W3C//DTD SVG 1.1//EN"
 "http://www.w3.org/Graphics/SVG/1.1/DTD/svg11.dtd">
<!-- Generated by graphviz version 8.0.3 (20230416.2022)
 -->
<!-- Title: G Pages: 1 -->
<svg width="640pt" height="174pt"
 viewBox="0.00 0.00 720.00 195.95" xmlns="http://www.w3.org/2000/svg" xmlns:xlink="http://www.w3.org/1999/xlink">
<g id="graph0" class="graph" transform="scale(0.487062 0.487062) rotate(0) translate(4 353.61)">
<title>G</title>
<polygon fill="white" stroke="none" points="-4,4 -4,-353.61 1310,-353.61 1310,4 -4,4"/>
<text text-anchor="middle" x="653" y="-316.81" font-family="Arial" font-size="36.00" fill="blue">Reaction Path Analysis</text>
<!-- R300 -->
<g id="node1" class="node">
<title>R300</title>
<g id="a_node1"><a xlink:href="300.svg" xlink:title="R300">
<polygon fill="cornsilk" stroke="none" points="700,-164.11 606,-164.11 606,-117.11 700,-117.11 700,-164.11"/>
<text text-anchor="middle" x="653" y="-132.11" font-family="Times New Roman,serif" font-size="35.00">R300</text>
</a>
</g>
</g>
<!-- R74 -->
<g id="node4" class="node">
<title>R74</title>
<g id="a_node4"><a xlink:href="74.svg" xlink:title="R74">
<polygon fill="cornsilk" stroke="none" points="1297,-196.11 1221,-196.11 1221,-149.11 1297,-149.11 1297,-196.11"/>
<text text-anchor="middle" x="1259" y="-164.11" font-family="Times New Roman,serif" font-size="35.00">R74</text>
</a>
</g>
</g>
<!-- R300&#45;&gt;R74 -->
<g id="edge3" class="edge">
<title>R300&#45;&gt;R74</title>
<path fill="none" stroke="black" stroke-width="5" d="M687.31,-163.95C695.22,-168.34 703.88,-172.28 712.5,-174.61 885.05,-221.11 1099.59,-197.97 1200.48,-182.59"/>
<polygon fill="black" stroke="black" stroke-width="5" points="1196.7,-191.1 1215.08,-179.32 1193.95,-173.82 1196.7,-191.1"/>
<text text-anchor="middle" x="956" y="-210.61" font-family="Times New Roman,serif" font-size="30.00"> &#160;&#160;459 &#160;&#160;91% &#160;&#160;1.66e&#45;10 mol/s &#160;&#160;&#160;5.42E&#45;02</text>
</g>
<!-- R300&#45;&gt;R74 -->
<g id="edge6" class="edge">
<title>R300&#45;&gt;R74</title>
<path fill="none" stroke="black" d="M699.6,-137.19C813.13,-129.19 1106.05,-111.79 1199.5,-137.61 1205.13,-139.16 1210.77,-141.42 1216.2,-144.05"/>
<polygon fill="black" stroke="black" points="1214.23,-147.5 1224.7,-149.12 1217.52,-141.33 1214.23,-147.5"/>
<text text-anchor="middle" x="956" y="-146.61" font-family="Times New Roman,serif" font-size="30.00"> &#160;&#160;779 &#160;&#160;5% &#160;&#160;9.51e&#45;12 mol/s &#160;&#160;&#160;9.46E&#45;01</text>
</g>
<!-- R343 -->
<g id="node7" class="node">
<title>R343</title>
<g id="a_node7"><a xlink:href="343.svg" xlink:title="R343">
<polygon fill="cornsilk" stroke="none" points="1306,-108.11 1212,-108.11 1212,-61.11 1306,-61.11 1306,-108.11"/>
<text text-anchor="middle" x="1259" y="-76.11" font-family="Times New Roman,serif" font-size="35.00">R343</text>
</a>
</g>
</g>
<!-- R300&#45;&gt;R343 -->
<g id="edge7" class="edge">
<title>R300&#45;&gt;R343</title>
<path fill="none" stroke="black" d="M671.9,-117.34C682.33,-105.74 696.55,-92.88 712.5,-86.61 880.03,-20.75 1099.51,-51.59 1201.43,-71.83"/>
<polygon fill="black" stroke="black" points="1200.6,-75.44 1211.1,-74 1202,-68.58 1200.6,-75.44"/>
<text text-anchor="middle" x="956" y="-95.61" font-family="Times New Roman,serif" font-size="30.00"> &#160;&#160;780 &#160;&#160;3% &#160;&#160;5.88e&#45;12 mol/s &#160;&#160;&#160;7.05E&#45;01</text>
</g>
<!-- R15 -->
<g id="node2" class="node">
<title>R15</title>
<g id="a_node2"><a xlink:href="15.svg" xlink:title="R15">
<polygon fill="cornsilk" stroke="none" points="85,-262.11 9,-262.11 9,-215.11 85,-215.11 85,-262.11"/>
<text text-anchor="middle" x="47" y="-230.11" font-family="Times New Roman,serif" font-size="35.00">R15</text>
</a>
</g>
</g>
<!-- R15&#45;&gt;R300 -->
<g id="edge1" class="edge">
<title>R15&#45;&gt;R300</title>
<path fill="none" stroke="black" stroke-width="3" d="M84.67,-246.56C176.94,-264.59 423.7,-300.37 597,-210.61 612.99,-202.33 625.81,-187.09 635.04,-172.94"/>
<polygon fill="black" stroke="black" stroke-width="3" points="636.35,-177.24 638.59,-166.88 630.38,-173.58 636.35,-177.24"/>
<text text-anchor="middle" x="350" y="-277.61" font-family="Times New Roman,serif" font-size="30.00"> &#160;&#160;406 &#160;&#160;50% &#160;&#160;4.67e&#45;08 mol/s &#160;&#160;&#160;1.00E+00</text>
</g>
<!-- R26 -->
<g id="node3" class="node">
<title>R26</title>
<g id="a_node3"><a xlink:href="26.svg" xlink:title="R26">
<polygon fill="cornsilk" stroke="none" points="85,-197.11 9,-197.11 9,-150.11 85,-150.11 85,-197.11"/>
<text text-anchor="middle" x="47" y="-165.11" font-family="Times New Roman,serif" font-size="35.00">R26</text>
</a>
</g>
</g>
<!-- R26&#45;&gt;R300 -->
<g id="edge2" class="edge">
<title>R26&#45;&gt;R300</title>
<path fill="none" stroke="black" stroke-width="3" d="M84.78,-174.12C171.72,-174.92 396.87,-174.5 595.25,-151.62"/>
<polygon fill="black" stroke="black" stroke-width="3" points="592.65,-154.98 602.17,-150.33 591.83,-148.03 592.65,-154.98"/>
<text text-anchor="middle" x="350" y="-182.61" font-family="Times New Roman,serif" font-size="30.00"> &#160;&#160;406 &#160;&#160;50% &#160;&#160;4.67e&#45;08 mol/s &#160;&#160;&#160;1.00E+00</text>
</g>
<!-- R1 -->
<g id="node5" class="node">
<title>R1</title>
<g id="a_node5"><a xlink:href="1.svg" xlink:title="R1">
<polygon fill="cornsilk" stroke="none" points="76,-132.11 18,-132.11 18,-85.11 76,-85.11 76,-132.11"/>
<text text-anchor="middle" x="47" y="-100.11" font-family="Times New Roman,serif" font-size="35.00">R1</text>
</a>
</g>
</g>
<!-- R1&#45;&gt;R300 -->
<g id="edge4" class="edge">
<title>R1&#45;&gt;R300</title>
<path fill="none" stroke="black" stroke-width="3" d="M75.8,-105.62C155.66,-97.77 392.49,-79.6 595.6,-118.78"/>
<polygon fill="black" stroke="black" stroke-width="3" points="591.67,-122.36 602.16,-120.87 593.03,-115.49 591.67,-122.36"/>
<text text-anchor="middle" x="350" y="-127.61" font-family="Times New Roman,serif" font-size="30.00"> &#160;&#160;596 &#160;&#160;50% &#160;&#160;4.67e&#45;08 mol/s &#160;&#160;&#160;1.00E+00</text>
</g>
<!-- R241 -->
<g id="node6" class="node">
<title>R241</title>
<g id="a_node6"><a xlink:href="241.svg" xlink:title="R241">
<polygon fill="cornsilk" stroke="none" points="94,-67.11 0,-67.11 0,-20.11 94,-20.11 94,-67.11"/>
<text text-anchor="middle" x="47" y="-35.11" font-family="Times New Roman,serif" font-size="35.00">R241</text>
</a>
</g>
</g>
<!-- R241&#45;&gt;R300 -->
<g id="edge5" class="edge">
<title>R241&#45;&gt;R300</title>
<path fill="none" stroke="black" stroke-width="3" d="M93.99,-31.27C193.22,-7.38 431.8,35.23 597,-56.61 616.8,-67.61 630.67,-89.09 639.53,-107.57"/>
<polygon fill="black" stroke="black" stroke-width="3" points="635.66,-105.74 642.94,-113.44 642.05,-102.88 635.66,-105.74"/>
<text text-anchor="middle" x="350" y="-65.61" font-family="Times New Roman,serif" font-size="30.00"> &#160;&#160;596 &#160;&#160;50% &#160;&#160;4.67e&#45;08 mol/s &#160;&#160;&#160;1.00E+00</text>
</g>
</g>
</svg>
