<?xml version="1.0" encoding="UTF-8" standalone="no"?>
<!DOCTYPE svg PUBLIC "-//W3C//DTD SVG 1.1//EN"
 "http://www.w3.org/Graphics/SVG/1.1/DTD/svg11.dtd">
<!-- Generated by graphviz version 8.0.3 (20230416.2022)
 -->
<!-- Title: G Pages: 1 -->
<svg width="640pt" height="197pt"
 viewBox="0.00 0.00 720.00 221.53" xmlns="http://www.w3.org/2000/svg" xmlns:xlink="http://www.w3.org/1999/xlink">
<g id="graph0" class="graph" transform="scale(0.492308 0.492308) rotate(0) translate(4 395.98)">
<title>G</title>
<polygon fill="white" stroke="none" points="-4,4 -4,-395.98 1296,-395.98 1296,4 -4,4"/>
<text text-anchor="middle" x="646" y="-359.18" font-family="Arial" font-size="36.00" fill="blue">Reaction Path Analysis</text>
<!-- R300 -->
<g id="node1" class="node">
<title>R300</title>
<g id="a_node1"><a xlink:href="300.svg" xlink:title="R300">
<polygon fill="cornsilk" stroke="none" points="693,-183.48 599,-183.48 599,-136.48 693,-136.48 693,-183.48"/>
<text text-anchor="middle" x="646" y="-151.48" font-family="Times New Roman,serif" font-size="35.00">R300</text>
</a>
</g>
</g>
<!-- R15 -->
<g id="node2" class="node">
<title>R15</title>
<g id="a_node2"><a xlink:href="15.svg" xlink:title="R15">
<polygon fill="cornsilk" stroke="none" points="1283,-304.48 1207,-304.48 1207,-257.48 1283,-257.48 1283,-304.48"/>
<text text-anchor="middle" x="1245" y="-272.48" font-family="Times New Roman,serif" font-size="35.00">R15</text>
</a>
</g>
</g>
<!-- R300&#45;&gt;R15 -->
<g id="edge1" class="edge">
<title>R300&#45;&gt;R15</title>
<path fill="none" stroke="black" stroke-width="5" d="M656.49,-183.38C666.87,-205.61 685.82,-237.81 713.5,-252.98 867.02,-337.12 1084.55,-311.88 1186.75,-293.2"/>
<polygon fill="black" stroke="black" stroke-width="5" points="1183.33,-302.61 1201.32,-290.24 1180.02,-285.43 1183.33,-302.61"/>
<text text-anchor="middle" x="945.5" y="-319.98" font-family="Times New Roman,serif" font-size="30.00"> &#160;&#160;406 &#160;&#160;98% &#160;&#160;4.31 mol/s &#160;&#160;&#160;7.80E&#45;03</text>
</g>
<!-- R26 -->
<g id="node3" class="node">
<title>R26</title>
<g id="a_node3"><a xlink:href="26.svg" xlink:title="R26">
<polygon fill="cornsilk" stroke="none" points="1283,-239.48 1207,-239.48 1207,-192.48 1283,-192.48 1283,-239.48"/>
<text text-anchor="middle" x="1245" y="-207.48" font-family="Times New Roman,serif" font-size="35.00">R26</text>
</a>
</g>
</g>
<!-- R300&#45;&gt;R26 -->
<g id="edge2" class="edge">
<title>R300&#45;&gt;R26</title>
<path fill="none" stroke="black" stroke-width="5" d="M685.97,-183.4C694.75,-187.67 704.22,-191.54 713.5,-193.98 801.23,-217.04 1067.63,-217.64 1186.11,-216.69"/>
<polygon fill="black" stroke="black" stroke-width="5" points="1181.18,-225.43 1201.09,-216.49 1181.01,-207.93 1181.18,-225.43"/>
<text text-anchor="middle" x="945.5" y="-224.98" font-family="Times New Roman,serif" font-size="30.00"> &#160;&#160;406 &#160;&#160;98% &#160;&#160;4.31 mol/s &#160;&#160;&#160;7.80E&#45;03</text>
</g>
<!-- R74 -->
<g id="node4" class="node">
<title>R74</title>
<g id="a_node4"><a xlink:href="74.svg" xlink:title="R74">
<polygon fill="cornsilk" stroke="none" points="1283,-155.48 1207,-155.48 1207,-108.48 1283,-108.48 1283,-155.48"/>
<text text-anchor="middle" x="1245" y="-123.48" font-family="Times New Roman,serif" font-size="35.00">R74</text>
</a>
</g>
</g>
<!-- R300&#45;&gt;R74 -->
<g id="edge3" class="edge">
<title>R300&#45;&gt;R74</title>
<path fill="none" stroke="black" d="M692.81,-158.83C784.77,-156.35 998.37,-149.76 1177.5,-137.98 1183.65,-137.57 1190.11,-137.08 1196.5,-136.55"/>
<polygon fill="black" stroke="black" points="1196.43,-139.98 1206.09,-135.63 1195.83,-133 1196.43,-139.98"/>
<text text-anchor="middle" x="945.5" y="-166.98" font-family="Times New Roman,serif" font-size="30.00"> &#160;&#160;459 &#160;&#160;1% &#160;&#160;0.0445 mol/s &#160;&#160;&#160;5.44E&#45;02</text>
</g>
<!-- R300&#45;&gt;R74 -->
<g id="edge6" class="edge">
<title>R300&#45;&gt;R74</title>
<path fill="none" stroke="black" d="M665.56,-136.65C677.63,-123.43 694.6,-108.15 713.5,-100.98 761.7,-82.68 1127.17,-89.82 1177.5,-100.98 1184.03,-102.42 1190.68,-104.58 1197.12,-107.1"/>
<polygon fill="black" stroke="black" points="1195.46,-110.62 1206.03,-111.29 1198.19,-104.17 1195.46,-110.62"/>
<text text-anchor="middle" x="945.5" y="-109.98" font-family="Times New Roman,serif" font-size="30.00"> &#160;&#160;779 &#160;&#160;0% &#160;&#160;0.00256 mol/s &#160;&#160;&#160;9.46E&#45;01</text>
</g>
<!-- R343 -->
<g id="node7" class="node">
<title>R343</title>
<g id="a_node7"><a xlink:href="343.svg" xlink:title="R343">
<polygon fill="cornsilk" stroke="none" points="1292,-71.48 1198,-71.48 1198,-24.48 1292,-24.48 1292,-71.48"/>
<text text-anchor="middle" x="1245" y="-39.48" font-family="Times New Roman,serif" font-size="35.00">R343</text>
</a>
</g>
</g>
<!-- R300&#45;&gt;R343 -->
<g id="edge7" class="edge">
<title>R300&#45;&gt;R343</title>
<path fill="none" stroke="black" d="M653.98,-136.66C663.06,-110.95 681.66,-70.87 713.5,-52.98 866.46,33 1085.55,-6.22 1187.64,-31.91"/>
<polygon fill="black" stroke="black" points="1186.47,-35.48 1197.03,-34.58 1188.21,-28.7 1186.47,-35.48"/>
<text text-anchor="middle" x="945.5" y="-61.98" font-family="Times New Roman,serif" font-size="30.00"> &#160;&#160;780 &#160;&#160;0% &#160;&#160;0.00261 mol/s &#160;&#160;&#160;9.62E&#45;01</text>
</g>
<!-- R1 -->
<g id="node5" class="node">
<title>R1</title>
<g id="a_node5"><a xlink:href="1.svg" xlink:title="R1">
<polygon fill="cornsilk" stroke="none" points="76,-216.48 18,-216.48 18,-169.48 76,-169.48 76,-216.48"/>
<text text-anchor="middle" x="47" y="-184.48" font-family="Times New Roman,serif" font-size="35.00">R1</text>
</a>
</g>
</g>
<!-- R1&#45;&gt;R300 -->
<g id="edge4" class="edge">
<title>R1&#45;&gt;R300</title>
<path fill="none" stroke="black" stroke-width="6" d="M75.76,-193.38C153.15,-194.19 378.22,-194.38 578.34,-172.11"/>
<polygon fill="black" stroke="black" stroke-width="6" points="574.51,-182.43 593.17,-169.7 572.1,-161.57 574.51,-182.43"/>
<text text-anchor="middle" x="346.5" y="-201.98" font-family="Times New Roman,serif" font-size="30.00"> &#160;&#160;596 &#160;&#160;100% &#160;&#160;0.0342 mol/s &#160;&#160;&#160;1.00E+00</text>
</g>
<!-- R241 -->
<g id="node6" class="node">
<title>R241</title>
<g id="a_node6"><a xlink:href="241.svg" xlink:title="R241">
<polygon fill="cornsilk" stroke="none" points="94,-151.48 0,-151.48 0,-104.48 94,-104.48 94,-151.48"/>
<text text-anchor="middle" x="47" y="-119.48" font-family="Times New Roman,serif" font-size="35.00">R241</text>
</a>
</g>
</g>
<!-- R241&#45;&gt;R300 -->
<g id="edge5" class="edge">
<title>R241&#45;&gt;R300</title>
<path fill="none" stroke="black" stroke-width="6" d="M93.93,-123.31C184.75,-115.24 393.81,-102.42 578.76,-136.29"/>
<polygon fill="black" stroke="black" stroke-width="6" points="571.53,-145.75 593.16,-139.24 575.52,-125.13 571.53,-145.75"/>
<text text-anchor="middle" x="346.5" y="-146.98" font-family="Times New Roman,serif" font-size="30.00"> &#160;&#160;596 &#160;&#160;100% &#160;&#160;0.0342 mol/s &#160;&#160;&#160;1.00E+00</text>
</g>
</g>
</svg>
