<?xml version="1.0" encoding="UTF-8" standalone="no"?>
<!DOCTYPE svg PUBLIC "-//W3C//DTD SVG 1.1//EN"
 "http://www.w3.org/Graphics/SVG/1.1/DTD/svg11.dtd">
<!-- Generated by graphviz version 8.0.3 (20230416.2022)
 -->
<!-- Title: G Pages: 1 -->
<svg width="629pt" height="365pt"
 viewBox="0.00 0.00 708.00 410.92" xmlns="http://www.w3.org/2000/svg" xmlns:xlink="http://www.w3.org/1999/xlink">
<g id="graph0" class="graph" transform="scale(0.888889 0.888889) rotate(0) translate(4 406.92)">
<title>G</title>
<polygon fill="white" stroke="none" points="-4,4 -4,-406.92 704,-406.92 704,4 -4,4"/>
<text text-anchor="middle" x="350" y="-370.12" font-family="Arial" font-size="36.00" fill="blue">Reaction Path Analysis</text>
<!-- R302 -->
<g id="node1" class="node">
<title>R302</title>
<g id="a_node1"><a xlink:href="302.svg" xlink:title="R302">
<polygon fill="cornsilk" stroke="none" points="700,-204.42 606,-204.42 606,-157.42 700,-157.42 700,-204.42"/>
<text text-anchor="middle" x="653" y="-172.42" font-family="Times New Roman,serif" font-size="35.00">R302</text>
</a>
</g>
</g>
<!-- R26 -->
<g id="node2" class="node">
<title>R26</title>
<g id="a_node2"><a xlink:href="26.svg" xlink:title="R26">
<polygon fill="cornsilk" stroke="none" points="85,-334.42 9,-334.42 9,-287.42 85,-287.42 85,-334.42"/>
<text text-anchor="middle" x="47" y="-302.42" font-family="Times New Roman,serif" font-size="35.00">R26</text>
</a>
</g>
</g>
<!-- R26&#45;&gt;R302 -->
<g id="edge1" class="edge">
<title>R26&#45;&gt;R302</title>
<path fill="none" stroke="black" stroke-width="3" d="M84.66,-313.68C193.39,-321.16 511.86,-337.86 597,-283.92 621.35,-268.49 635.62,-238.41 643.5,-214.73"/>
<polygon fill="black" stroke="black" stroke-width="3" points="646.09,-218.96 645.68,-208.37 639.4,-216.9 646.09,-218.96"/>
<text text-anchor="middle" x="350" y="-330.92" font-family="Times New Roman,serif" font-size="30.00"> &#160;&#160;408 &#160;&#160;49% &#160;&#160;2.18e&#45;15 mol/s &#160;&#160;&#160;1.00E+00</text>
</g>
<!-- R15 -->
<g id="node3" class="node">
<title>R15</title>
<g id="a_node3"><a xlink:href="15.svg" xlink:title="R15">
<polygon fill="cornsilk" stroke="none" points="85,-269.42 9,-269.42 9,-222.42 85,-222.42 85,-269.42"/>
<text text-anchor="middle" x="47" y="-237.42" font-family="Times New Roman,serif" font-size="35.00">R15</text>
</a>
</g>
</g>
<!-- R15&#45;&gt;R302 -->
<g id="edge2" class="edge">
<title>R15&#45;&gt;R302</title>
<path fill="none" stroke="black" stroke-width="3" d="M84.83,-246.59C191.93,-248.13 501.7,-249.66 597,-217.92 602.95,-215.94 608.85,-213.13 614.46,-209.92"/>
<polygon fill="black" stroke="black" stroke-width="3" points="613.94,-214.5 620.59,-206.25 610.25,-208.56 613.94,-214.5"/>
<text text-anchor="middle" x="350" y="-255.92" font-family="Times New Roman,serif" font-size="30.00"> &#160;&#160;408 &#160;&#160;49% &#160;&#160;2.18e&#45;15 mol/s &#160;&#160;&#160;1.00E+00</text>
</g>
<!-- R0 -->
<g id="node4" class="node">
<title>R0</title>
<g id="a_node4"><a xlink:href="0.svg" xlink:title="R0">
<polygon fill="cornsilk" stroke="none" points="76,-204.42 18,-204.42 18,-157.42 76,-157.42 76,-204.42"/>
<text text-anchor="middle" x="47" y="-172.42" font-family="Times New Roman,serif" font-size="35.00">R0</text>
</a>
</g>
</g>
<!-- R0&#45;&gt;R302 -->
<g id="edge3" class="edge">
<title>R0&#45;&gt;R302</title>
<path fill="none" stroke="black" stroke-width="3" d="M75.92,-180.92C168.82,-180.92 468.75,-180.92 595.08,-180.92"/>
<polygon fill="black" stroke="black" stroke-width="3" points="592.03,-184.42 602.03,-180.92 592.03,-177.42 592.03,-184.42"/>
<text text-anchor="middle" x="350" y="-189.92" font-family="Times New Roman,serif" font-size="30.00"> &#160;&#160;545 &#160;&#160;49% &#160;&#160;2.18e&#45;15 mol/s &#160;&#160;&#160;1.00E+00</text>
</g>
<!-- R280 -->
<g id="node5" class="node">
<title>R280</title>
<g id="a_node5"><a xlink:href="280.svg" xlink:title="R280">
<polygon fill="cornsilk" stroke="none" points="94,-139.42 0,-139.42 0,-92.42 94,-92.42 94,-139.42"/>
<text text-anchor="middle" x="47" y="-107.42" font-family="Times New Roman,serif" font-size="35.00">R280</text>
</a>
</g>
</g>
<!-- R280&#45;&gt;R302 -->
<g id="edge4" class="edge">
<title>R280&#45;&gt;R302</title>
<path fill="none" stroke="black" stroke-width="3" d="M93.98,-110.19C190.26,-99.91 418.85,-84.57 597,-143.92 602.95,-145.9 608.85,-148.71 614.46,-151.91"/>
<polygon fill="black" stroke="black" stroke-width="3" points="610.25,-153.28 620.59,-155.58 613.94,-147.33 610.25,-153.28"/>
<text text-anchor="middle" x="350" y="-152.92" font-family="Times New Roman,serif" font-size="30.00"> &#160;&#160;545 &#160;&#160;49% &#160;&#160;2.18e&#45;15 mol/s &#160;&#160;&#160;1.00E+00</text>
</g>
<!-- R259 -->
<g id="node6" class="node">
<title>R259</title>
<g id="a_node6"><a xlink:href="259.svg" xlink:title="R259">
<polygon fill="cornsilk" stroke="none" points="94,-74.42 0,-74.42 0,-27.42 94,-27.42 94,-74.42"/>
<text text-anchor="middle" x="47" y="-42.42" font-family="Times New Roman,serif" font-size="35.00">R259</text>
</a>
</g>
</g>
<!-- R259&#45;&gt;R302 -->
<g id="edge5" class="edge">
<title>R259&#45;&gt;R302</title>
<path fill="none" stroke="black" d="M93.9,-37.02C194.51,-9.49 438.13,40.77 597,-62.92 625.57,-81.57 639.57,-119.25 646.25,-147.04"/>
<polygon fill="black" stroke="black" points="642.99,-147.49 648.54,-156.52 649.82,-146 642.99,-147.49"/>
<text text-anchor="middle" x="350" y="-71.92" font-family="Times New Roman,serif" font-size="30.00"> &#160;&#160;737 &#160;&#160;0% &#160;&#160;2.15e&#45;26 mol/s &#160;&#160;&#160;9.77E&#45;01</text>
</g>
</g>
</svg>
