<?xml version="1.0" encoding="UTF-8" standalone="no"?>
<!DOCTYPE svg PUBLIC "-//W3C//DTD SVG 1.1//EN"
 "http://www.w3.org/Graphics/SVG/1.1/DTD/svg11.dtd">
<!-- Generated by graphviz version 8.0.3 (20230416.2022)
 -->
<!-- Title: G Pages: 1 -->
<svg width="640pt" height="294pt"
 viewBox="0.00 0.00 720.00 331.02" xmlns="http://www.w3.org/2000/svg" xmlns:xlink="http://www.w3.org/1999/xlink">
<g id="graph0" class="graph" transform="scale(0.867209 0.867209) rotate(0) translate(4 335.29)">
<title>G</title>
<polygon fill="white" stroke="none" points="-4,4 -4,-335.29 734,-335.29 734,4 -4,4"/>
<text text-anchor="middle" x="365" y="-298.49" font-family="Arial" font-size="36.00" fill="blue">Reaction Path Analysis</text>
<!-- R303 -->
<g id="node1" class="node">
<title>R303</title>
<g id="a_node1"><a xlink:href="303.svg" xlink:title="R303">
<polygon fill="cornsilk" stroke="none" points="94,-167.79 0,-167.79 0,-120.79 94,-120.79 94,-167.79"/>
<text text-anchor="middle" x="47" y="-135.79" font-family="Times New Roman,serif" font-size="35.00">R303</text>
</a>
</g>
</g>
<!-- R15 -->
<g id="node2" class="node">
<title>R15</title>
<g id="a_node2"><a xlink:href="15.svg" xlink:title="R15">
<polygon fill="cornsilk" stroke="none" points="721,-265.79 645,-265.79 645,-218.79 721,-218.79 721,-265.79"/>
<text text-anchor="middle" x="683" y="-233.79" font-family="Times New Roman,serif" font-size="35.00">R15</text>
</a>
</g>
</g>
<!-- R303&#45;&gt;R15 -->
<g id="edge1" class="edge">
<title>R303&#45;&gt;R15</title>
<path fill="none" stroke="black" stroke-width="5" d="M59.12,-167.57C68.37,-184.06 83.21,-205.01 103,-215.29 192.49,-261.79 496.78,-252.03 624.66,-245.6"/>
<polygon fill="black" stroke="black" stroke-width="5" points="619.84,-254.3 639.35,-244.51 618.92,-236.82 619.84,-254.3"/>
<text text-anchor="middle" x="365" y="-259.29" font-family="Times New Roman,serif" font-size="30.00"> &#160;&#160;409 &#160;&#160;99% &#160;&#160;11800000.0 mol/s &#160;&#160;&#160;2.89E&#45;09</text>
</g>
<!-- R27 -->
<g id="node3" class="node">
<title>R27</title>
<g id="a_node3"><a xlink:href="27.svg" xlink:title="R27">
<polygon fill="cornsilk" stroke="none" points="721,-200.79 645,-200.79 645,-153.79 721,-153.79 721,-200.79"/>
<text text-anchor="middle" x="683" y="-168.79" font-family="Times New Roman,serif" font-size="35.00">R27</text>
</a>
</g>
</g>
<!-- R303&#45;&gt;R27 -->
<g id="edge2" class="edge">
<title>R303&#45;&gt;R27</title>
<path fill="none" stroke="black" stroke-width="5" d="M93.83,-154.02C96.92,-154.51 100,-154.94 103,-155.29 292.86,-177.74 519.94,-178.98 624.33,-178.13"/>
<polygon fill="black" stroke="black" stroke-width="5" points="619.35,-186.87 639.26,-177.92 619.17,-169.37 619.35,-186.87"/>
<text text-anchor="middle" x="365" y="-187.29" font-family="Times New Roman,serif" font-size="30.00"> &#160;&#160;409 &#160;&#160;99% &#160;&#160;11800000.0 mol/s &#160;&#160;&#160;2.89E&#45;09</text>
</g>
<!-- R13 -->
<g id="node4" class="node">
<title>R13</title>
<g id="a_node4"><a xlink:href="13.svg" xlink:title="R13">
<polygon fill="cornsilk" stroke="none" points="721,-135.79 645,-135.79 645,-88.79 721,-88.79 721,-135.79"/>
<text text-anchor="middle" x="683" y="-103.79" font-family="Times New Roman,serif" font-size="35.00">R13</text>
</a>
</g>
</g>
<!-- R303&#45;&gt;R13 -->
<g id="edge3" class="edge">
<title>R303&#45;&gt;R13</title>
<path fill="none" stroke="black" d="M93.84,-124.55C96.9,-123.67 99.98,-122.9 103,-122.29 296.83,-83.22 534.57,-98.28 634.35,-107.36"/>
<polygon fill="black" stroke="black" points="633.98,-110.93 644.26,-108.38 634.63,-103.96 633.98,-110.93"/>
<text text-anchor="middle" x="365" y="-131.29" font-family="Times New Roman,serif" font-size="30.00"> &#160;&#160;627 &#160;&#160;0% &#160;&#160;0.537 mol/s &#160;&#160;&#160;5.64E&#45;02</text>
</g>
<!-- R109 -->
<g id="node5" class="node">
<title>R109</title>
<g id="a_node5"><a xlink:href="109.svg" xlink:title="R109">
<polygon fill="cornsilk" stroke="none" points="730,-70.79 636,-70.79 636,-23.79 730,-23.79 730,-70.79"/>
<text text-anchor="middle" x="683" y="-38.79" font-family="Times New Roman,serif" font-size="35.00">R109</text>
</a>
</g>
</g>
<!-- R303&#45;&gt;R109 -->
<g id="edge4" class="edge">
<title>R303&#45;&gt;R109</title>
<path fill="none" stroke="black" d="M55.98,-120.84C64.26,-100.55 79.36,-72.47 103,-59.29 272.97,35.47 516.9,-6.2 625.79,-32.17"/>
<polygon fill="black" stroke="black" points="624.67,-35.74 635.22,-34.71 626.33,-28.94 624.67,-35.74"/>
<text text-anchor="middle" x="365" y="-68.29" font-family="Times New Roman,serif" font-size="30.00"> &#160;&#160;627 &#160;&#160;0% &#160;&#160;0.537 mol/s &#160;&#160;&#160;5.64E&#45;02</text>
</g>
</g>
</svg>
