<?xml version="1.0" encoding="UTF-8" standalone="no"?>
<!DOCTYPE svg PUBLIC "-//W3C//DTD SVG 1.1//EN"
 "http://www.w3.org/Graphics/SVG/1.1/DTD/svg11.dtd">
<!-- Generated by graphviz version 8.0.3 (20230416.2022)
 -->
<!-- Title: G Pages: 1 -->
<svg width="640pt" height="214pt"
 viewBox="0.00 0.00 720.00 241.30" xmlns="http://www.w3.org/2000/svg" xmlns:xlink="http://www.w3.org/1999/xlink">
<g id="graph0" class="graph" transform="scale(0.498442 0.498442) rotate(0) translate(4 426.32)">
<title>G</title>
<polygon fill="white" stroke="none" points="-4,4 -4,-426.32 1280,-426.32 1280,4 -4,4"/>
<text text-anchor="middle" x="638" y="-389.52" font-family="Arial" font-size="36.00" fill="blue">Reaction Path Analysis</text>
<!-- R305 -->
<g id="node1" class="node">
<title>R305</title>
<g id="a_node1"><a xlink:href="305.svg" xlink:title="R305">
<polygon fill="cornsilk" stroke="none" points="685,-199.82 591,-199.82 591,-152.82 685,-152.82 685,-199.82"/>
<text text-anchor="middle" x="638" y="-167.82" font-family="Times New Roman,serif" font-size="35.00">R305</text>
</a>
</g>
</g>
<!-- R294 -->
<g id="node6" class="node">
<title>R294</title>
<g id="a_node6"><a xlink:href="294.svg" xlink:title="R294">
<polygon fill="cornsilk" stroke="none" points="1276,-199.82 1182,-199.82 1182,-152.82 1276,-152.82 1276,-199.82"/>
<text text-anchor="middle" x="1229" y="-167.82" font-family="Times New Roman,serif" font-size="35.00">R294</text>
</a>
</g>
</g>
<!-- R305&#45;&gt;R294 -->
<g id="edge5" class="edge">
<title>R305&#45;&gt;R294</title>
<path fill="none" stroke="black" stroke-width="4" d="M684.89,-181.71C687.97,-181.95 691.03,-182.16 694,-182.32 899.72,-193.51 956.79,-193.87 1161.19,-182.85"/>
<polygon fill="black" stroke="black" stroke-width="4" points="1156.52,-189.78 1176.11,-181.71 1155.76,-175.81 1156.52,-189.78"/>
<text text-anchor="middle" x="933.5" y="-199.32" font-family="Times New Roman,serif" font-size="30.00"> &#160;&#160;776 &#160;&#160;75% &#160;&#160;0.00577 mol/s &#160;&#160;&#160;2.43E&#45;01</text>
</g>
<!-- R305&#45;&gt;R294 -->
<g id="edge6" class="edge">
<title>R305&#45;&gt;R294</title>
<path fill="none" stroke="black" stroke-width="2" d="M674.56,-152.87C680.81,-149.76 687.43,-147.05 694,-145.32 899.92,-91.29 967.08,-91.29 1173,-145.32 1176.18,-146.16 1179.38,-147.23 1182.54,-148.46"/>
<polygon fill="black" stroke="black" stroke-width="2" points="1179.88,-151 1190.44,-151.87 1182.73,-144.6 1179.88,-151"/>
<text text-anchor="middle" x="933.5" y="-154.32" font-family="Times New Roman,serif" font-size="30.00"> &#160;&#160;781 &#160;&#160;24% &#160;&#160;0.00185 mol/s &#160;&#160;&#160;7.57E&#45;01</text>
</g>
<!-- R16 -->
<g id="node2" class="node">
<title>R16</title>
<g id="a_node2"><a xlink:href="16.svg" xlink:title="R16">
<polygon fill="cornsilk" stroke="none" points="85,-329.82 9,-329.82 9,-282.82 85,-282.82 85,-329.82"/>
<text text-anchor="middle" x="47" y="-297.82" font-family="Times New Roman,serif" font-size="35.00">R16</text>
</a>
</g>
</g>
<!-- R16&#45;&gt;R305 -->
<g id="edge1" class="edge">
<title>R16&#45;&gt;R305</title>
<path fill="none" stroke="black" stroke-width="2" d="M84.94,-315.53C176.52,-336.15 418.24,-376.89 578.5,-278.32 603.23,-263.12 618.54,-233.32 627.26,-209.85"/>
<polygon fill="black" stroke="black" stroke-width="2" points="630.85,-212.18 630.81,-201.58 624.23,-209.89 630.85,-212.18"/>
<text text-anchor="middle" x="342.5" y="-350.32" font-family="Times New Roman,serif" font-size="30.00"> &#160;&#160;411 &#160;&#160;37% &#160;&#160;0.0341 mol/s &#160;&#160;&#160;9.97E&#45;01</text>
</g>
<!-- R26 -->
<g id="node3" class="node">
<title>R26</title>
<g id="a_node3"><a xlink:href="26.svg" xlink:title="R26">
<polygon fill="cornsilk" stroke="none" points="85,-264.82 9,-264.82 9,-217.82 85,-217.82 85,-264.82"/>
<text text-anchor="middle" x="47" y="-232.82" font-family="Times New Roman,serif" font-size="35.00">R26</text>
</a>
</g>
</g>
<!-- R26&#45;&gt;R305 -->
<g id="edge2" class="edge">
<title>R26&#45;&gt;R305</title>
<path fill="none" stroke="black" stroke-width="2" d="M84.66,-241.79C189.07,-242.73 486.34,-242.68 578.5,-213.32 584.89,-211.29 591.27,-208.39 597.34,-205.09"/>
<polygon fill="black" stroke="black" stroke-width="2" points="597.75,-208.73 604.59,-200.65 594.2,-202.7 597.75,-208.73"/>
<text text-anchor="middle" x="342.5" y="-250.32" font-family="Times New Roman,serif" font-size="30.00"> &#160;&#160;411 &#160;&#160;37% &#160;&#160;0.0341 mol/s &#160;&#160;&#160;9.97E&#45;01</text>
</g>
<!-- R1 -->
<g id="node4" class="node">
<title>R1</title>
<g id="a_node4"><a xlink:href="1.svg" xlink:title="R1">
<polygon fill="cornsilk" stroke="none" points="76,-199.82 18,-199.82 18,-152.82 76,-152.82 76,-199.82"/>
<text text-anchor="middle" x="47" y="-167.82" font-family="Times New Roman,serif" font-size="35.00">R1</text>
</a>
</g>
</g>
<!-- R1&#45;&gt;R305 -->
<g id="edge3" class="edge">
<title>R1&#45;&gt;R305</title>
<path fill="none" stroke="black" stroke-width="2" d="M75.62,-176.32C166.47,-176.32 457.25,-176.32 580.71,-176.32"/>
<polygon fill="black" stroke="black" stroke-width="2" points="578.42,-179.82 588.42,-176.32 578.42,-172.82 578.42,-179.82"/>
<text text-anchor="middle" x="342.5" y="-185.32" font-family="Times New Roman,serif" font-size="30.00"> &#160;&#160;599 &#160;&#160;37% &#160;&#160;0.0342 mol/s &#160;&#160;&#160;1.00E+00</text>
</g>
<!-- R242 -->
<g id="node5" class="node">
<title>R242</title>
<g id="a_node5"><a xlink:href="242.svg" xlink:title="R242">
<polygon fill="cornsilk" stroke="none" points="94,-134.82 0,-134.82 0,-87.82 94,-87.82 94,-134.82"/>
<text text-anchor="middle" x="47" y="-102.82" font-family="Times New Roman,serif" font-size="35.00">R242</text>
</a>
</g>
</g>
<!-- R242&#45;&gt;R305 -->
<g id="edge4" class="edge">
<title>R242&#45;&gt;R305</title>
<path fill="none" stroke="black" stroke-width="2" d="M93.74,-106.14C187.35,-97.16 406.48,-84.53 578.5,-139.32 584.89,-141.36 591.27,-144.26 597.34,-147.56"/>
<polygon fill="black" stroke="black" stroke-width="2" points="594.2,-149.95 604.59,-152 597.75,-143.92 594.2,-149.95"/>
<text text-anchor="middle" x="342.5" y="-148.32" font-family="Times New Roman,serif" font-size="30.00"> &#160;&#160;599 &#160;&#160;37% &#160;&#160;0.0342 mol/s &#160;&#160;&#160;1.00E+00</text>
</g>
<!-- R257 -->
<g id="node7" class="node">
<title>R257</title>
<g id="a_node7"><a xlink:href="257.svg" xlink:title="R257">
<polygon fill="cornsilk" stroke="none" points="94,-69.82 0,-69.82 0,-22.82 94,-22.82 94,-69.82"/>
<text text-anchor="middle" x="47" y="-37.82" font-family="Times New Roman,serif" font-size="35.00">R257</text>
</a>
</g>
</g>
<!-- R257&#45;&gt;R305 -->
<g id="edge7" class="edge">
<title>R257&#45;&gt;R305</title>
<path fill="none" stroke="black" stroke-width="2" d="M94,-33.02C191.93,-7.58 424.63,37.23 578.5,-60.32 607.26,-78.56 622.44,-115.62 630.06,-142.97"/>
<polygon fill="black" stroke="black" stroke-width="2" points="626.83,-142.47 632.71,-151.28 633.61,-140.73 626.83,-142.47"/>
<text text-anchor="middle" x="342.5" y="-69.32" font-family="Times New Roman,serif" font-size="30.00"> &#160;&#160;782 &#160;&#160;24% &#160;&#160;0.0218 mol/s &#160;&#160;&#160;9.97E&#45;02</text>
</g>
</g>
</svg>
