<?xml version="1.0" encoding="UTF-8" standalone="no"?>
<!DOCTYPE svg PUBLIC "-//W3C//DTD SVG 1.1//EN"
 "http://www.w3.org/Graphics/SVG/1.1/DTD/svg11.dtd">
<!-- Generated by graphviz version 8.0.3 (20230416.2022)
 -->
<!-- Title: G Pages: 1 -->
<svg width="640pt" height="174pt"
 viewBox="0.00 0.00 720.00 195.95" xmlns="http://www.w3.org/2000/svg" xmlns:xlink="http://www.w3.org/1999/xlink">
<g id="graph0" class="graph" transform="scale(0.487062 0.487062) rotate(0) translate(4 353.61)">
<title>G</title>
<polygon fill="white" stroke="none" points="-4,4 -4,-353.61 1310,-353.61 1310,4 -4,4"/>
<text text-anchor="middle" x="653" y="-316.81" font-family="Arial" font-size="36.00" fill="blue">Reaction Path Analysis</text>
<!-- R305 -->
<g id="node1" class="node">
<title>R305</title>
<g id="a_node1"><a xlink:href="305.svg" xlink:title="R305">
<polygon fill="cornsilk" stroke="none" points="700,-164.11 606,-164.11 606,-117.11 700,-117.11 700,-164.11"/>
<text text-anchor="middle" x="653" y="-132.11" font-family="Times New Roman,serif" font-size="35.00">R305</text>
</a>
</g>
</g>
<!-- R294 -->
<g id="node6" class="node">
<title>R294</title>
<g id="a_node6"><a xlink:href="294.svg" xlink:title="R294">
<polygon fill="cornsilk" stroke="none" points="1306,-196.11 1212,-196.11 1212,-149.11 1306,-149.11 1306,-196.11"/>
<text text-anchor="middle" x="1259" y="-164.11" font-family="Times New Roman,serif" font-size="35.00">R294</text>
</a>
</g>
</g>
<!-- R305&#45;&gt;R294 -->
<g id="edge5" class="edge">
<title>R305&#45;&gt;R294</title>
<path fill="none" stroke="black" stroke-width="5" d="M687.31,-163.95C695.22,-168.34 703.88,-172.28 712.5,-174.61 880.04,-219.76 1087.18,-199.26 1191.42,-183.95"/>
<polygon fill="black" stroke="black" stroke-width="5" points="1187.61,-192.47 1206.05,-180.79 1184.96,-175.17 1187.61,-192.47"/>
<text text-anchor="middle" x="956" y="-210.61" font-family="Times New Roman,serif" font-size="30.00"> &#160;&#160;776 &#160;&#160;96% &#160;&#160;4.04e&#45;10 mol/s &#160;&#160;&#160;2.38E&#45;02</text>
</g>
<!-- R305&#45;&gt;R294 -->
<g id="edge6" class="edge">
<title>R305&#45;&gt;R294</title>
<path fill="none" stroke="black" d="M699.6,-137.19C813.13,-129.19 1106.05,-111.79 1199.5,-137.61 1205.13,-139.16 1210.77,-141.42 1216.2,-144.05"/>
<polygon fill="black" stroke="black" points="1214.23,-147.5 1224.7,-149.12 1217.52,-141.33 1214.23,-147.5"/>
<text text-anchor="middle" x="956" y="-146.61" font-family="Times New Roman,serif" font-size="30.00"> &#160;&#160;781 &#160;&#160;2% &#160;&#160;9.85e&#45;12 mol/s &#160;&#160;&#160;9.76E&#45;01</text>
</g>
<!-- R257 -->
<g id="node7" class="node">
<title>R257</title>
<g id="a_node7"><a xlink:href="257.svg" xlink:title="R257">
<polygon fill="cornsilk" stroke="none" points="1306,-108.11 1212,-108.11 1212,-61.11 1306,-61.11 1306,-108.11"/>
<text text-anchor="middle" x="1259" y="-76.11" font-family="Times New Roman,serif" font-size="35.00">R257</text>
</a>
</g>
</g>
<!-- R305&#45;&gt;R257 -->
<g id="edge7" class="edge">
<title>R305&#45;&gt;R257</title>
<path fill="none" stroke="black" d="M671.9,-117.34C682.33,-105.74 696.55,-92.88 712.5,-86.61 880.03,-20.75 1099.51,-51.59 1201.43,-71.83"/>
<polygon fill="black" stroke="black" points="1200.6,-75.44 1211.1,-74 1202,-68.58 1200.6,-75.44"/>
<text text-anchor="middle" x="956" y="-95.61" font-family="Times New Roman,serif" font-size="30.00"> &#160;&#160;782 &#160;&#160;1% &#160;&#160;5.4e&#45;12 mol/s &#160;&#160;&#160;6.83E&#45;01</text>
</g>
<!-- R16 -->
<g id="node2" class="node">
<title>R16</title>
<g id="a_node2"><a xlink:href="16.svg" xlink:title="R16">
<polygon fill="cornsilk" stroke="none" points="85,-262.11 9,-262.11 9,-215.11 85,-215.11 85,-262.11"/>
<text text-anchor="middle" x="47" y="-230.11" font-family="Times New Roman,serif" font-size="35.00">R16</text>
</a>
</g>
</g>
<!-- R16&#45;&gt;R305 -->
<g id="edge1" class="edge">
<title>R16&#45;&gt;R305</title>
<path fill="none" stroke="black" stroke-width="3" d="M84.67,-246.56C176.94,-264.59 423.7,-300.37 597,-210.61 612.99,-202.33 625.81,-187.09 635.04,-172.94"/>
<polygon fill="black" stroke="black" stroke-width="3" points="636.35,-177.24 638.59,-166.88 630.38,-173.58 636.35,-177.24"/>
<text text-anchor="middle" x="350" y="-277.61" font-family="Times New Roman,serif" font-size="30.00"> &#160;&#160;411 &#160;&#160;50% &#160;&#160;4.67e&#45;08 mol/s &#160;&#160;&#160;1.00E+00</text>
</g>
<!-- R26 -->
<g id="node3" class="node">
<title>R26</title>
<g id="a_node3"><a xlink:href="26.svg" xlink:title="R26">
<polygon fill="cornsilk" stroke="none" points="85,-197.11 9,-197.11 9,-150.11 85,-150.11 85,-197.11"/>
<text text-anchor="middle" x="47" y="-165.11" font-family="Times New Roman,serif" font-size="35.00">R26</text>
</a>
</g>
</g>
<!-- R26&#45;&gt;R305 -->
<g id="edge2" class="edge">
<title>R26&#45;&gt;R305</title>
<path fill="none" stroke="black" stroke-width="3" d="M84.78,-174.12C171.72,-174.92 396.87,-174.5 595.25,-151.62"/>
<polygon fill="black" stroke="black" stroke-width="3" points="592.65,-154.98 602.17,-150.33 591.83,-148.03 592.65,-154.98"/>
<text text-anchor="middle" x="350" y="-182.61" font-family="Times New Roman,serif" font-size="30.00"> &#160;&#160;411 &#160;&#160;50% &#160;&#160;4.67e&#45;08 mol/s &#160;&#160;&#160;1.00E+00</text>
</g>
<!-- R1 -->
<g id="node4" class="node">
<title>R1</title>
<g id="a_node4"><a xlink:href="1.svg" xlink:title="R1">
<polygon fill="cornsilk" stroke="none" points="76,-132.11 18,-132.11 18,-85.11 76,-85.11 76,-132.11"/>
<text text-anchor="middle" x="47" y="-100.11" font-family="Times New Roman,serif" font-size="35.00">R1</text>
</a>
</g>
</g>
<!-- R1&#45;&gt;R305 -->
<g id="edge3" class="edge">
<title>R1&#45;&gt;R305</title>
<path fill="none" stroke="black" stroke-width="3" d="M75.8,-105.62C155.66,-97.77 392.49,-79.6 595.6,-118.78"/>
<polygon fill="black" stroke="black" stroke-width="3" points="591.67,-122.36 602.16,-120.87 593.03,-115.49 591.67,-122.36"/>
<text text-anchor="middle" x="350" y="-127.61" font-family="Times New Roman,serif" font-size="30.00"> &#160;&#160;599 &#160;&#160;50% &#160;&#160;4.67e&#45;08 mol/s &#160;&#160;&#160;1.00E+00</text>
</g>
<!-- R242 -->
<g id="node5" class="node">
<title>R242</title>
<g id="a_node5"><a xlink:href="242.svg" xlink:title="R242">
<polygon fill="cornsilk" stroke="none" points="94,-67.11 0,-67.11 0,-20.11 94,-20.11 94,-67.11"/>
<text text-anchor="middle" x="47" y="-35.11" font-family="Times New Roman,serif" font-size="35.00">R242</text>
</a>
</g>
</g>
<!-- R242&#45;&gt;R305 -->
<g id="edge4" class="edge">
<title>R242&#45;&gt;R305</title>
<path fill="none" stroke="black" stroke-width="3" d="M93.99,-31.27C193.22,-7.38 431.8,35.23 597,-56.61 616.8,-67.61 630.67,-89.09 639.53,-107.57"/>
<polygon fill="black" stroke="black" stroke-width="3" points="635.66,-105.74 642.94,-113.44 642.05,-102.88 635.66,-105.74"/>
<text text-anchor="middle" x="350" y="-65.61" font-family="Times New Roman,serif" font-size="30.00"> &#160;&#160;599 &#160;&#160;50% &#160;&#160;4.67e&#45;08 mol/s &#160;&#160;&#160;1.00E+00</text>
</g>
</g>
</svg>
