<?xml version="1.0" encoding="UTF-8" standalone="no"?>
<!DOCTYPE svg PUBLIC "-//W3C//DTD SVG 1.1//EN"
 "http://www.w3.org/Graphics/SVG/1.1/DTD/svg11.dtd">
<!-- Generated by graphviz version 8.0.3 (20230416.2022)
 -->
<!-- Title: G Pages: 1 -->
<svg width="629pt" height="318pt"
 viewBox="0.00 0.00 708.00 357.51" xmlns="http://www.w3.org/2000/svg" xmlns:xlink="http://www.w3.org/1999/xlink">
<g id="graph0" class="graph" transform="scale(0.888889 0.888889) rotate(0) translate(4 353.51)">
<title>G</title>
<polygon fill="white" stroke="none" points="-4,4 -4,-353.51 704,-353.51 704,4 -4,4"/>
<text text-anchor="middle" x="350" y="-316.71" font-family="Arial" font-size="36.00" fill="blue">Reaction Path Analysis</text>
<!-- R307 -->
<g id="node1" class="node">
<title>R307</title>
<g id="a_node1"><a xlink:href="307.svg" xlink:title="R307">
<polygon fill="cornsilk" stroke="none" points="94,-164.01 0,-164.01 0,-117.01 94,-117.01 94,-164.01"/>
<text text-anchor="middle" x="47" y="-132.01" font-family="Times New Roman,serif" font-size="35.00">R307</text>
</a>
</g>
</g>
<!-- R16 -->
<g id="node2" class="node">
<title>R16</title>
<g id="a_node2"><a xlink:href="16.svg" xlink:title="R16">
<polygon fill="cornsilk" stroke="none" points="691,-262.01 615,-262.01 615,-215.01 691,-215.01 691,-262.01"/>
<text text-anchor="middle" x="653" y="-230.01" font-family="Times New Roman,serif" font-size="35.00">R16</text>
</a>
</g>
</g>
<!-- R307&#45;&gt;R16 -->
<g id="edge1" class="edge">
<title>R307&#45;&gt;R16</title>
<path fill="none" stroke="black" stroke-width="5" d="M59.41,-163.79C68.72,-179.99 83.51,-200.42 103,-210.51 264.79,-294.31 490.61,-268.69 594.97,-250.25"/>
<polygon fill="black" stroke="black" stroke-width="5" points="591.26,-259.73 609.33,-247.47 588.06,-242.52 591.26,-259.73"/>
<text text-anchor="middle" x="350" y="-277.51" font-family="Times New Roman,serif" font-size="30.00"> &#160;&#160;413 &#160;&#160;89% &#160;&#160;456000.0 mol/s &#160;&#160;&#160;7.50E&#45;08</text>
</g>
<!-- R27 -->
<g id="node3" class="node">
<title>R27</title>
<g id="a_node3"><a xlink:href="27.svg" xlink:title="R27">
<polygon fill="cornsilk" stroke="none" points="691,-197.01 615,-197.01 615,-150.01 691,-150.01 691,-197.01"/>
<text text-anchor="middle" x="653" y="-165.01" font-family="Times New Roman,serif" font-size="35.00">R27</text>
</a>
</g>
</g>
<!-- R307&#45;&gt;R27 -->
<g id="edge2" class="edge">
<title>R307&#45;&gt;R27</title>
<path fill="none" stroke="black" stroke-width="5" d="M93.83,-150.24C96.92,-150.72 100,-151.16 103,-151.51 281.32,-172.78 494.27,-174.67 594.48,-174.18"/>
<polygon fill="black" stroke="black" stroke-width="5" points="589.28,-182.92 609.22,-174.03 589.16,-165.42 589.28,-182.92"/>
<text text-anchor="middle" x="350" y="-182.51" font-family="Times New Roman,serif" font-size="30.00"> &#160;&#160;413 &#160;&#160;89% &#160;&#160;456000.0 mol/s &#160;&#160;&#160;7.50E&#45;08</text>
</g>
<!-- R13 -->
<g id="node4" class="node">
<title>R13</title>
<g id="a_node4"><a xlink:href="13.svg" xlink:title="R13">
<polygon fill="cornsilk" stroke="none" points="691,-132.01 615,-132.01 615,-85.01 691,-85.01 691,-132.01"/>
<text text-anchor="middle" x="653" y="-100.01" font-family="Times New Roman,serif" font-size="35.00">R13</text>
</a>
</g>
</g>
<!-- R307&#45;&gt;R13 -->
<g id="edge3" class="edge">
<title>R307&#45;&gt;R13</title>
<path fill="none" stroke="black" d="M93.84,-120.78C96.91,-119.9 99.98,-119.13 103,-118.51 285.23,-81.7 508.44,-95.17 604.42,-103.68"/>
<polygon fill="black" stroke="black" points="603.94,-107.24 614.21,-104.66 604.57,-100.27 603.94,-107.24"/>
<text text-anchor="middle" x="350" y="-127.51" font-family="Times New Roman,serif" font-size="30.00"> &#160;&#160;629 &#160;&#160;10% &#160;&#160;54700.0 mol/s &#160;&#160;&#160;6.25E&#45;07</text>
</g>
<!-- R110 -->
<g id="node5" class="node">
<title>R110</title>
<g id="a_node5"><a xlink:href="110.svg" xlink:title="R110">
<polygon fill="cornsilk" stroke="none" points="700,-67.01 606,-67.01 606,-20.01 700,-20.01 700,-67.01"/>
<text text-anchor="middle" x="653" y="-35.01" font-family="Times New Roman,serif" font-size="35.00">R110</text>
</a>
</g>
</g>
<!-- R307&#45;&gt;R110 -->
<g id="edge4" class="edge">
<title>R307&#45;&gt;R110</title>
<path fill="none" stroke="black" d="M56.06,-117.35C64.4,-97.31 79.54,-69.56 103,-56.51 262.55,32.18 490.55,-4.53 595.36,-28.67"/>
<polygon fill="black" stroke="black" points="594.47,-32.29 605.01,-31.18 596.08,-25.48 594.47,-32.29"/>
<text text-anchor="middle" x="350" y="-65.51" font-family="Times New Roman,serif" font-size="30.00"> &#160;&#160;629 &#160;&#160;10% &#160;&#160;54700.0 mol/s &#160;&#160;&#160;6.25E&#45;07</text>
</g>
</g>
</svg>
