<?xml version="1.0" encoding="UTF-8" standalone="no"?>
<!DOCTYPE svg PUBLIC "-//W3C//DTD SVG 1.1//EN"
 "http://www.w3.org/Graphics/SVG/1.1/DTD/svg11.dtd">
<!-- Generated by graphviz version 8.0.3 (20230416.2022)
 -->
<!-- Title: G Pages: 1 -->
<svg width="640pt" height="257pt"
 viewBox="0.00 0.00 720.00 289.66" xmlns="http://www.w3.org/2000/svg" xmlns:xlink="http://www.w3.org/1999/xlink">
<g id="graph0" class="graph" transform="scale(0.47619 0.47619) rotate(0) translate(4 536.69)">
<title>G</title>
<polygon fill="white" stroke="none" points="-4,4 -4,-536.69 1340,-536.69 1340,4 -4,4"/>
<text text-anchor="middle" x="668" y="-499.89" font-family="Arial" font-size="36.00" fill="blue">Reaction Path Analysis</text>
<!-- R308 -->
<g id="node1" class="node">
<title>R308</title>
<g id="a_node1"><a xlink:href="308.svg" xlink:title="R308">
<polygon fill="cornsilk" stroke="none" points="715,-262.19 621,-262.19 621,-215.19 715,-215.19 715,-262.19"/>
<text text-anchor="middle" x="668" y="-230.19" font-family="Times New Roman,serif" font-size="35.00">R308</text>
</a>
</g>
</g>
<!-- R193 -->
<g id="node6" class="node">
<title>R193</title>
<g id="a_node6"><a xlink:href="193.svg" xlink:title="R193">
<polygon fill="cornsilk" stroke="none" points="1336,-262.19 1242,-262.19 1242,-215.19 1336,-215.19 1336,-262.19"/>
<text text-anchor="middle" x="1289" y="-230.19" font-family="Times New Roman,serif" font-size="35.00">R193</text>
</a>
</g>
</g>
<!-- R308&#45;&gt;R193 -->
<g id="edge8" class="edge">
<title>R308&#45;&gt;R193</title>
<path fill="none" stroke="black" stroke-width="6" d="M714.77,-238.69C822.93,-238.69 1094.71,-238.69 1221.25,-238.69"/>
<polygon fill="black" stroke="black" stroke-width="6" points="1216.05,-249.19 1236.05,-238.69 1216.05,-228.19 1216.05,-249.19"/>
<text text-anchor="middle" x="978.5" y="-247.69" font-family="Times New Roman,serif" font-size="30.00"> &#160;&#160;784 &#160;&#160;100% &#160;&#160;1.01e&#45;11 mol/s &#160;&#160;&#160;1.00E+00</text>
</g>
<!-- R26 -->
<g id="node2" class="node">
<title>R26</title>
<g id="a_node2"><a xlink:href="26.svg" xlink:title="R26">
<polygon fill="cornsilk" stroke="none" points="85,-374.19 9,-374.19 9,-327.19 85,-327.19 85,-374.19"/>
<text text-anchor="middle" x="47" y="-342.19" font-family="Times New Roman,serif" font-size="35.00">R26</text>
</a>
</g>
</g>
<!-- R26&#45;&gt;R308 -->
<g id="edge1" class="edge">
<title>R26&#45;&gt;R308</title>
<path fill="none" stroke="black" stroke-width="3" d="M83.75,-374.05C92.2,-378.44 101.4,-382.38 110.5,-384.69 323.28,-438.82 421.23,-505.59 604.5,-384.69 641.99,-359.96 657.07,-307.6 663.09,-272.78"/>
<polygon fill="black" stroke="black" stroke-width="3" points="666.66,-276.56 664.74,-266.15 659.74,-275.49 666.66,-276.56"/>
<text text-anchor="middle" x="357.5" y="-460.69" font-family="Times New Roman,serif" font-size="30.00"> &#160;&#160;414 &#160;&#160;49% &#160;&#160;4.67e&#45;08 mol/s &#160;&#160;&#160;1.00E+00</text>
</g>
<!-- R26&#45;&gt;R308 -->
<g id="edge2" class="edge">
<title>R26&#45;&gt;R308</title>
<path fill="none" stroke="black" stroke-width="3" d="M84.68,-348.87C93.16,-348.47 102.14,-348.05 110.5,-347.69 165.38,-345.32 556.32,-355.08 604.5,-328.69 627.05,-316.34 643.21,-291.94 653.44,-271.66"/>
<polygon fill="black" stroke="black" stroke-width="3" points="655.99,-276.35 657.12,-265.81 649.67,-273.34 655.99,-276.35"/>
<text text-anchor="middle" x="357.5" y="-356.69" font-family="Times New Roman,serif" font-size="30.00"> &#160;&#160;414 &#160;&#160;49% &#160;&#160;4.67e&#45;08 mol/s &#160;&#160;&#160;1.00E+00</text>
</g>
<!-- R26&#45;&gt;R308 -->
<g id="edge3" class="edge">
<title>R26&#45;&gt;R308</title>
<path fill="none" stroke="black" stroke-width="3" d="M65.52,-327.34C76.78,-314.3 92.61,-299.2 110.5,-291.69 211.79,-249.16 498.57,-301.82 604.5,-272.69 610.01,-271.18 615.57,-269.1 620.98,-266.71"/>
<polygon fill="black" stroke="black" stroke-width="3" points="619.01,-270.62 626.51,-263.13 615.98,-264.31 619.01,-270.62"/>
<text text-anchor="middle" x="357.5" y="-300.69" font-family="Times New Roman,serif" font-size="30.00"> &#160;&#160;414 &#160;&#160;49% &#160;&#160;4.67e&#45;08 mol/s &#160;&#160;&#160;1.00E+00</text>
</g>
<!-- R82 -->
<g id="node3" class="node">
<title>R82</title>
<g id="a_node3"><a xlink:href="82.svg" xlink:title="R82">
<polygon fill="cornsilk" stroke="none" points="85,-239.19 9,-239.19 9,-192.19 85,-192.19 85,-239.19"/>
<text text-anchor="middle" x="47" y="-207.19" font-family="Times New Roman,serif" font-size="35.00">R82</text>
</a>
</g>
</g>
<!-- R82&#45;&gt;R308 -->
<g id="edge4" class="edge">
<title>R82&#45;&gt;R308</title>
<path fill="none" stroke="black" d="M84.87,-217.06C188.96,-220.93 485.62,-231.95 610.5,-236.59"/>
<polygon fill="black" stroke="black" points="610.2,-240.12 620.33,-236.99 610.46,-233.12 610.2,-240.12"/>
<text text-anchor="middle" x="357.5" y="-244.69" font-family="Times New Roman,serif" font-size="30.00"> &#160;&#160;467 &#160;&#160;0% &#160;&#160;1e&#45;11 mol/s &#160;&#160;&#160;9.94E&#45;01</text>
</g>
<!-- R82&#45;&gt;R308 -->
<g id="edge7" class="edge">
<title>R82&#45;&gt;R308</title>
<path fill="none" stroke="black" d="M82.35,-192.37C91.16,-187.56 100.87,-183.2 110.5,-180.69 163.61,-166.83 553.41,-160.63 604.5,-180.69 618.77,-186.29 631.73,-196.86 642.1,-207.45"/>
<polygon fill="black" stroke="black" points="639.15,-209.5 648.5,-214.48 644.29,-204.76 639.15,-209.5"/>
<text text-anchor="middle" x="357.5" y="-189.69" font-family="Times New Roman,serif" font-size="30.00"> &#160;&#160;783 &#160;&#160;1% &#160;&#160;1.58e&#45;09 mol/s &#160;&#160;&#160;6.29E&#45;03</text>
</g>
<!-- R1 -->
<g id="node4" class="node">
<title>R1</title>
<g id="a_node4"><a xlink:href="1.svg" xlink:title="R1">
<polygon fill="cornsilk" stroke="none" points="76,-150.19 18,-150.19 18,-103.19 76,-103.19 76,-150.19"/>
<text text-anchor="middle" x="47" y="-118.19" font-family="Times New Roman,serif" font-size="35.00">R1</text>
</a>
</g>
</g>
<!-- R1&#45;&gt;R308 -->
<g id="edge5" class="edge">
<title>R1&#45;&gt;R308</title>
<path fill="none" stroke="black" stroke-width="3" d="M75.81,-123.35C175.48,-111.92 513.67,-77.87 604.5,-130.69 631.87,-146.6 648.35,-179.54 657.47,-204.88"/>
<polygon fill="black" stroke="black" stroke-width="3" points="653.43,-202.83 659.93,-211.2 660.07,-200.61 653.43,-202.83"/>
<text text-anchor="middle" x="357.5" y="-139.69" font-family="Times New Roman,serif" font-size="30.00"> &#160;&#160;602 &#160;&#160;49% &#160;&#160;4.67e&#45;08 mol/s &#160;&#160;&#160;1.00E+00</text>
</g>
<!-- R246 -->
<g id="node5" class="node">
<title>R246</title>
<g id="a_node5"><a xlink:href="246.svg" xlink:title="R246">
<polygon fill="cornsilk" stroke="none" points="94,-85.19 0,-85.19 0,-38.19 94,-38.19 94,-85.19"/>
<text text-anchor="middle" x="47" y="-53.19" font-family="Times New Roman,serif" font-size="35.00">R246</text>
</a>
</g>
</g>
<!-- R246&#45;&gt;R308 -->
<g id="edge6" class="edge">
<title>R246&#45;&gt;R308</title>
<path fill="none" stroke="black" stroke-width="3" d="M93.98,-45.92C196.45,-13.88 446.95,46.76 604.5,-64.69 649.41,-96.46 662.2,-163.68 665.75,-204.64"/>
<polygon fill="black" stroke="black" stroke-width="3" points="662.32,-201.72 666.52,-211.45 669.3,-201.22 662.32,-201.72"/>
<text text-anchor="middle" x="357.5" y="-73.69" font-family="Times New Roman,serif" font-size="30.00"> &#160;&#160;602 &#160;&#160;49% &#160;&#160;4.67e&#45;08 mol/s &#160;&#160;&#160;1.00E+00</text>
</g>
</g>
</svg>
