<?xml version="1.0" encoding="UTF-8" standalone="no"?>
<!DOCTYPE svg PUBLIC "-//W3C//DTD SVG 1.1//EN"
 "http://www.w3.org/Graphics/SVG/1.1/DTD/svg11.dtd">
<!-- Generated by graphviz version 8.0.3 (20230416.2022)
 -->
<!-- Title: G Pages: 1 -->
<svg width="640pt" height="129pt"
 viewBox="0.00 0.00 720.00 145.06" xmlns="http://www.w3.org/2000/svg" xmlns:xlink="http://www.w3.org/1999/xlink">
<g id="graph0" class="graph" transform="scale(0.49574 0.49574) rotate(0) translate(4 256.1)">
<title>G</title>
<polygon fill="white" stroke="none" points="-4,4 -4,-256.1 1287,-256.1 1287,4 -4,4"/>
<text text-anchor="middle" x="641.5" y="-219.3" font-family="Arial" font-size="36.00" fill="blue">Reaction Path Analysis</text>
<!-- R309 -->
<g id="node1" class="node">
<title>R309</title>
<g id="a_node1"><a xlink:href="309.svg" xlink:title="R309">
<polygon fill="cornsilk" stroke="none" points="693,-119.6 599,-119.6 599,-72.6 693,-72.6 693,-119.6"/>
<text text-anchor="middle" x="646" y="-87.6" font-family="Times New Roman,serif" font-size="35.00">R309</text>
</a>
</g>
</g>
<!-- R26 -->
<g id="node2" class="node">
<title>R26</title>
<g id="a_node2"><a xlink:href="26.svg" xlink:title="R26">
<polygon fill="cornsilk" stroke="none" points="1283,-119.6 1207,-119.6 1207,-72.6 1283,-72.6 1283,-119.6"/>
<text text-anchor="middle" x="1245" y="-87.6" font-family="Times New Roman,serif" font-size="35.00">R26</text>
</a>
</g>
</g>
<!-- R309&#45;&gt;R26 -->
<g id="edge1" class="edge">
<title>R309&#45;&gt;R26</title>
<path fill="none" stroke="black" stroke-width="6" d="M680.61,-119.45C688.59,-123.84 697.32,-127.78 706,-130.1 911.66,-185.12 979.34,-185.12 1185,-130.1 1187.17,-129.52 1189.34,-128.84 1191.51,-128.08"/>
<polygon fill="black" stroke="black" stroke-width="6" points="1191.56,-139.31 1205.39,-121.45 1182.83,-120.21 1191.56,-139.31"/>
<text text-anchor="middle" x="945.5" y="-180.1" font-family="Times New Roman,serif" font-size="30.00"> &#160;&#160;415 &#160;&#160;100% &#160;&#160;0.0236 mol/s &#160;&#160;&#160;3.72E&#45;01</text>
</g>
<!-- R309&#45;&gt;R26 -->
<g id="edge2" class="edge">
<title>R309&#45;&gt;R26</title>
<path fill="none" stroke="black" stroke-width="6" d="M692.73,-93.55C697.21,-93.37 701.69,-93.21 706,-93.1 918.82,-87.7 972.18,-87.7 1185,-93.1 1185.45,-93.11 1185.9,-93.13 1186.35,-93.14"/>
<polygon fill="black" stroke="black" stroke-width="6" points="1180.8,-103.66 1201.19,-93.94 1181.61,-82.68 1180.8,-103.66"/>
<text text-anchor="middle" x="945.5" y="-102.1" font-family="Times New Roman,serif" font-size="30.00"> &#160;&#160;415 &#160;&#160;100% &#160;&#160;0.0236 mol/s &#160;&#160;&#160;3.72E&#45;01</text>
</g>
<!-- R309&#45;&gt;R26 -->
<g id="edge3" class="edge">
<title>R309&#45;&gt;R26</title>
<path fill="none" stroke="black" stroke-width="6" d="M670.14,-72.84C680.26,-64.26 692.82,-55.56 706,-51.1 907.69,17.03 983.31,17.03 1185,-51.1 1191.59,-53.33 1198.03,-56.62 1204.08,-60.42"/>
<polygon fill="black" stroke="black" stroke-width="6" points="1193.54,-66.38 1215.86,-69.84 1206.02,-49.5 1193.54,-66.38"/>
<text text-anchor="middle" x="945.5" y="-60.1" font-family="Times New Roman,serif" font-size="30.00"> &#160;&#160;415 &#160;&#160;100% &#160;&#160;0.0236 mol/s &#160;&#160;&#160;3.72E&#45;01</text>
</g>
<!-- R1 -->
<g id="node3" class="node">
<title>R1</title>
<g id="a_node3"><a xlink:href="1.svg" xlink:title="R1">
<polygon fill="cornsilk" stroke="none" points="76,-152.6 18,-152.6 18,-105.6 76,-105.6 76,-152.6"/>
<text text-anchor="middle" x="47" y="-120.6" font-family="Times New Roman,serif" font-size="35.00">R1</text>
</a>
</g>
</g>
<!-- R1&#45;&gt;R309 -->
<g id="edge4" class="edge">
<title>R1&#45;&gt;R309</title>
<path fill="none" stroke="black" stroke-width="6" d="M75.76,-129.51C153.15,-130.32 378.22,-130.51 578.34,-108.24"/>
<polygon fill="black" stroke="black" stroke-width="6" points="574.51,-118.56 593.17,-105.83 572.1,-97.7 574.51,-118.56"/>
<text text-anchor="middle" x="346.5" y="-138.1" font-family="Times New Roman,serif" font-size="30.00"> &#160;&#160;603 &#160;&#160;100% &#160;&#160;0.0342 mol/s &#160;&#160;&#160;1.00E+00</text>
</g>
<!-- R246 -->
<g id="node4" class="node">
<title>R246</title>
<g id="a_node4"><a xlink:href="246.svg" xlink:title="R246">
<polygon fill="cornsilk" stroke="none" points="94,-87.6 0,-87.6 0,-40.6 94,-40.6 94,-87.6"/>
<text text-anchor="middle" x="47" y="-55.6" font-family="Times New Roman,serif" font-size="35.00">R246</text>
</a>
</g>
</g>
<!-- R246&#45;&gt;R309 -->
<g id="edge5" class="edge">
<title>R246&#45;&gt;R309</title>
<path fill="none" stroke="black" stroke-width="6" d="M93.93,-59.44C184.75,-51.37 393.81,-38.55 578.76,-72.42"/>
<polygon fill="black" stroke="black" stroke-width="6" points="571.53,-81.88 593.16,-75.37 575.52,-61.26 571.53,-81.88"/>
<text text-anchor="middle" x="346.5" y="-83.1" font-family="Times New Roman,serif" font-size="30.00"> &#160;&#160;603 &#160;&#160;100% &#160;&#160;0.0342 mol/s &#160;&#160;&#160;1.00E+00</text>
</g>
</g>
</svg>
