<?xml version="1.0" encoding="UTF-8" standalone="no"?>
<!DOCTYPE svg PUBLIC "-//W3C//DTD SVG 1.1//EN"
 "http://www.w3.org/Graphics/SVG/1.1/DTD/svg11.dtd">
<!-- Generated by graphviz version 8.0.3 (20230416.2022)
 -->
<!-- Title: G Pages: 1 -->
<svg width="640pt" height="89pt"
 viewBox="0.00 0.00 720.00 100.24" xmlns="http://www.w3.org/2000/svg" xmlns:xlink="http://www.w3.org/1999/xlink">
<g id="graph0" class="graph" transform="scale(0.501961 0.501961) rotate(0) translate(4 173.5)">
<title>G</title>
<polygon fill="white" stroke="none" points="-4,4 -4,-173.5 1271,-173.5 1271,4 -4,4"/>
<text text-anchor="middle" x="633.5" y="-136.7" font-family="Arial" font-size="36.00" fill="blue">Reaction Path Analysis</text>
<!-- R310 -->
<g id="node1" class="node">
<title>R310</title>
<g id="a_node1"><a xlink:href="310.svg" xlink:title="R310">
<polygon fill="cornsilk" stroke="none" points="685,-79 591,-79 591,-32 685,-32 685,-79"/>
<text text-anchor="middle" x="638" y="-47" font-family="Times New Roman,serif" font-size="35.00">R310</text>
</a>
</g>
</g>
<!-- R26 -->
<g id="node2" class="node">
<title>R26</title>
<g id="a_node2"><a xlink:href="26.svg" xlink:title="R26">
<polygon fill="cornsilk" stroke="none" points="1267,-112 1191,-112 1191,-65 1267,-65 1267,-112"/>
<text text-anchor="middle" x="1229" y="-80" font-family="Times New Roman,serif" font-size="35.00">R26</text>
</a>
</g>
</g>
<!-- R310&#45;&gt;R26 -->
<g id="edge1" class="edge">
<title>R310&#45;&gt;R26</title>
<path fill="none" stroke="black" stroke-width="6" d="M684.84,-63.47C692.87,-64.64 701.17,-65.72 709,-66.5 875.96,-83.1 1074.36,-87.19 1170.32,-88.19"/>
<polygon fill="black" stroke="black" stroke-width="6" points="1164.99,-98.7 1185.09,-88.37 1165.18,-77.7 1164.99,-98.7"/>
<text text-anchor="middle" x="933.5" y="-96.5" font-family="Times New Roman,serif" font-size="30.00"> &#160;&#160;416 &#160;&#160;100% &#160;&#160;6.28 mol/s &#160;&#160;&#160;5.39E&#45;03</text>
</g>
<!-- R27 -->
<g id="node3" class="node">
<title>R27</title>
<g id="a_node3"><a xlink:href="27.svg" xlink:title="R27">
<polygon fill="cornsilk" stroke="none" points="1267,-47 1191,-47 1191,0 1267,0 1267,-47"/>
<text text-anchor="middle" x="1229" y="-15" font-family="Times New Roman,serif" font-size="35.00">R27</text>
</a>
</g>
</g>
<!-- R310&#45;&gt;R27 -->
<g id="edge2" class="edge">
<title>R310&#45;&gt;R27</title>
<path fill="none" stroke="black" stroke-width="6" d="M684.86,-39.05C692.82,-36.78 701.08,-34.79 709,-33.5 874.68,-6.44 1074.04,-13.47 1170.35,-19.3"/>
<polygon fill="black" stroke="black" stroke-width="6" points="1164.55,-29.83 1185.18,-20.64 1165.9,-8.88 1164.55,-29.83"/>
<text text-anchor="middle" x="933.5" y="-42.5" font-family="Times New Roman,serif" font-size="30.00"> &#160;&#160;416 &#160;&#160;100% &#160;&#160;6.28 mol/s &#160;&#160;&#160;5.39E&#45;03</text>
</g>
<!-- R13 -->
<g id="node4" class="node">
<title>R13</title>
<g id="a_node4"><a xlink:href="13.svg" xlink:title="R13">
<polygon fill="cornsilk" stroke="none" points="85,-112 9,-112 9,-65 85,-65 85,-112"/>
<text text-anchor="middle" x="47" y="-80" font-family="Times New Roman,serif" font-size="35.00">R13</text>
</a>
</g>
</g>
<!-- R13&#45;&gt;R310 -->
<g id="edge3" class="edge">
<title>R13&#45;&gt;R310</title>
<path fill="none" stroke="black" stroke-width="6" d="M84.74,-88.96C168.52,-89.58 380.51,-88.83 570.5,-67.62"/>
<polygon fill="black" stroke="black" stroke-width="6" points="566.51,-77.96 585.17,-65.22 564.09,-57.1 566.51,-77.96"/>
<text text-anchor="middle" x="342.5" y="-97.5" font-family="Times New Roman,serif" font-size="30.00"> &#160;&#160;634 &#160;&#160;100% &#160;&#160;0.0197 mol/s &#160;&#160;&#160;7.02E&#45;01</text>
</g>
<!-- R119 -->
<g id="node5" class="node">
<title>R119</title>
<g id="a_node5"><a xlink:href="119.svg" xlink:title="R119">
<polygon fill="cornsilk" stroke="none" points="94,-47 0,-47 0,0 94,0 94,-47"/>
<text text-anchor="middle" x="47" y="-15" font-family="Times New Roman,serif" font-size="35.00">R119</text>
</a>
</g>
</g>
<!-- R119&#45;&gt;R310 -->
<g id="edge4" class="edge">
<title>R119&#45;&gt;R310</title>
<path fill="none" stroke="black" stroke-width="6" d="M93.96,-18.86C183.78,-10.94 389,1.46 570.82,-31.83"/>
<polygon fill="black" stroke="black" stroke-width="6" points="563.53,-41.27 585.16,-34.77 567.52,-20.65 563.53,-41.27"/>
<text text-anchor="middle" x="342.5" y="-42.5" font-family="Times New Roman,serif" font-size="30.00"> &#160;&#160;634 &#160;&#160;100% &#160;&#160;0.0197 mol/s &#160;&#160;&#160;7.02E&#45;01</text>
</g>
</g>
</svg>
