<?xml version="1.0" encoding="UTF-8" standalone="no"?>
<!DOCTYPE svg PUBLIC "-//W3C//DTD SVG 1.1//EN"
 "http://www.w3.org/Graphics/SVG/1.1/DTD/svg11.dtd">
<!-- Generated by graphviz version 8.0.3 (20230416.2022)
 -->
<!-- Title: G Pages: 1 -->
<svg width="640pt" height="245pt"
 viewBox="0.00 0.00 720.00 275.10" xmlns="http://www.w3.org/2000/svg" xmlns:xlink="http://www.w3.org/1999/xlink">
<g id="graph0" class="graph" transform="scale(0.487062 0.487062) rotate(0) translate(4 498.06)">
<title>G</title>
<polygon fill="white" stroke="none" points="-4,4 -4,-498.06 1310,-498.06 1310,4 -4,4"/>
<text text-anchor="middle" x="653" y="-461.26" font-family="Arial" font-size="36.00" fill="blue">Reaction Path Analysis</text>
<!-- R311 -->
<g id="node1" class="node">
<title>R311</title>
<g id="a_node1"><a xlink:href="311.svg" xlink:title="R311">
<polygon fill="cornsilk" stroke="none" points="700,-232.56 606,-232.56 606,-185.56 700,-185.56 700,-232.56"/>
<text text-anchor="middle" x="653" y="-200.56" font-family="Times New Roman,serif" font-size="35.00">R311</text>
</a>
</g>
</g>
<!-- R202 -->
<g id="node6" class="node">
<title>R202</title>
<g id="a_node6"><a xlink:href="202.svg" xlink:title="R202">
<polygon fill="cornsilk" stroke="none" points="1306,-232.56 1212,-232.56 1212,-185.56 1306,-185.56 1306,-232.56"/>
<text text-anchor="middle" x="1259" y="-200.56" font-family="Times New Roman,serif" font-size="35.00">R202</text>
</a>
</g>
</g>
<!-- R311&#45;&gt;R202 -->
<g id="edge5" class="edge">
<title>R311&#45;&gt;R202</title>
<path fill="none" stroke="black" stroke-width="5" d="M699.7,-213.96C705.35,-214.41 711.06,-214.8 716.5,-215.06 922.6,-224.93 979.4,-225.23 1191.61,-214.97"/>
<polygon fill="black" stroke="black" stroke-width="5" points="1186.75,-223.67 1206.3,-213.96 1185.89,-206.19 1186.75,-223.67"/>
<text text-anchor="middle" x="956" y="-231.06" font-family="Times New Roman,serif" font-size="30.00"> &#160;&#160;698 &#160;&#160;99% &#160;&#160;3.6e&#45;07 mol/s &#160;&#160;&#160;2.81E&#45;05</text>
</g>
<!-- R311&#45;&gt;R202 -->
<g id="edge8" class="edge">
<title>R311&#45;&gt;R202</title>
<path fill="none" stroke="black" d="M694.68,-185.59C701.75,-182.48 709.19,-179.77 716.5,-178.06 923.77,-129.48 988.23,-129.48 1195.5,-178.06 1199.38,-178.97 1203.3,-180.16 1207.18,-181.54"/>
<polygon fill="black" stroke="black" points="1205.73,-185.13 1216.32,-185.59 1208.33,-178.63 1205.73,-185.13"/>
<text text-anchor="middle" x="956" y="-187.06" font-family="Times New Roman,serif" font-size="30.00"> &#160;&#160;786 &#160;&#160;0% &#160;&#160;1.01e&#45;11 mol/s &#160;&#160;&#160;1.00E+00</text>
</g>
<!-- R27 -->
<g id="node2" class="node">
<title>R27</title>
<g id="a_node2"><a xlink:href="27.svg" xlink:title="R27">
<polygon fill="cornsilk" stroke="none" points="85,-390.56 9,-390.56 9,-343.56 85,-343.56 85,-390.56"/>
<text text-anchor="middle" x="47" y="-358.56" font-family="Times New Roman,serif" font-size="35.00">R27</text>
</a>
</g>
</g>
<!-- R27&#45;&gt;R311 -->
<g id="edge1" class="edge">
<title>R27&#45;&gt;R311</title>
<path fill="none" stroke="black" stroke-width="3" d="M84.94,-377.89C179.97,-403.37 436.64,-456.83 597,-344.06 629.78,-321.01 643.05,-274.83 648.4,-242.95"/>
<polygon fill="black" stroke="black" stroke-width="3" points="651.97,-246.74 649.99,-236.33 645.05,-245.71 651.97,-246.74"/>
<text text-anchor="middle" x="350" y="-422.06" font-family="Times New Roman,serif" font-size="30.00"> &#160;&#160;417 &#160;&#160;48% &#160;&#160;4.67e&#45;08 mol/s &#160;&#160;&#160;1.00E+00</text>
</g>
<!-- R26 -->
<g id="node3" class="node">
<title>R26</title>
<g id="a_node3"><a xlink:href="26.svg" xlink:title="R26">
<polygon fill="cornsilk" stroke="none" points="85,-325.56 9,-325.56 9,-278.56 85,-278.56 85,-325.56"/>
<text text-anchor="middle" x="47" y="-293.56" font-family="Times New Roman,serif" font-size="35.00">R26</text>
</a>
</g>
</g>
<!-- R26&#45;&gt;R311 -->
<g id="edge2" class="edge">
<title>R26&#45;&gt;R311</title>
<path fill="none" stroke="black" stroke-width="3" d="M84.93,-303.82C193.02,-308.4 506.74,-317.42 597,-273.06 611.39,-265.99 623.53,-253.27 632.71,-241.02"/>
<polygon fill="black" stroke="black" stroke-width="3" points="633.97,-245.46 636.86,-235.27 628.25,-241.44 633.97,-245.46"/>
<text text-anchor="middle" x="350" y="-316.06" font-family="Times New Roman,serif" font-size="30.00"> &#160;&#160;417 &#160;&#160;48% &#160;&#160;4.67e&#45;08 mol/s &#160;&#160;&#160;1.00E+00</text>
</g>
<!-- R1 -->
<g id="node4" class="node">
<title>R1</title>
<g id="a_node4"><a xlink:href="1.svg" xlink:title="R1">
<polygon fill="cornsilk" stroke="none" points="76,-260.56 18,-260.56 18,-213.56 76,-213.56 76,-260.56"/>
<text text-anchor="middle" x="47" y="-228.56" font-family="Times New Roman,serif" font-size="35.00">R1</text>
</a>
</g>
</g>
<!-- R1&#45;&gt;R311 -->
<g id="edge3" class="edge">
<title>R1&#45;&gt;R311</title>
<path fill="none" stroke="black" stroke-width="3" d="M75.75,-236.62C154.98,-235.22 389.28,-230.1 595.38,-215.1"/>
<polygon fill="black" stroke="black" stroke-width="3" points="592.39,-218.53 602.11,-214.3 591.87,-211.55 592.39,-218.53"/>
<text text-anchor="middle" x="350" y="-245.06" font-family="Times New Roman,serif" font-size="30.00"> &#160;&#160;606 &#160;&#160;48% &#160;&#160;4.67e&#45;08 mol/s &#160;&#160;&#160;1.00E+00</text>
</g>
<!-- R248 -->
<g id="node5" class="node">
<title>R248</title>
<g id="a_node5"><a xlink:href="248.svg" xlink:title="R248">
<polygon fill="cornsilk" stroke="none" points="94,-195.56 0,-195.56 0,-148.56 94,-148.56 94,-195.56"/>
<text text-anchor="middle" x="47" y="-163.56" font-family="Times New Roman,serif" font-size="35.00">R248</text>
</a>
</g>
</g>
<!-- R248&#45;&gt;R311 -->
<g id="edge4" class="edge">
<title>R248&#45;&gt;R311</title>
<path fill="none" stroke="black" stroke-width="3" d="M93.87,-169.65C208.07,-164.1 502.75,-152.78 597,-178.06 600.18,-178.91 603.37,-179.99 606.52,-181.23"/>
<polygon fill="black" stroke="black" stroke-width="3" points="601.87,-183.77 612.42,-184.67 604.73,-177.39 601.87,-183.77"/>
<text text-anchor="middle" x="350" y="-187.06" font-family="Times New Roman,serif" font-size="30.00"> &#160;&#160;606 &#160;&#160;48% &#160;&#160;4.67e&#45;08 mol/s &#160;&#160;&#160;1.00E+00</text>
</g>
<!-- R278 -->
<g id="node7" class="node">
<title>R278</title>
<g id="a_node7"><a xlink:href="278.svg" xlink:title="R278">
<polygon fill="cornsilk" stroke="none" points="94,-111.56 0,-111.56 0,-64.56 94,-64.56 94,-111.56"/>
<text text-anchor="middle" x="47" y="-79.56" font-family="Times New Roman,serif" font-size="35.00">R278</text>
</a>
</g>
</g>
<!-- R278&#45;&gt;R311 -->
<g id="edge6" class="edge">
<title>R278&#45;&gt;R311</title>
<path fill="none" stroke="black" d="M93.75,-101.35C96.87,-102.01 99.97,-102.59 103,-103.06 157.28,-111.56 549.26,-97.87 597,-125.06 616.55,-136.2 630.37,-157.46 639.27,-175.81"/>
<polygon fill="black" stroke="black" points="636.4,-176.95 643.71,-184.62 642.77,-174.07 636.4,-176.95"/>
<text text-anchor="middle" x="350" y="-134.06" font-family="Times New Roman,serif" font-size="30.00"> &#160;&#160;762 &#160;&#160;0% &#160;&#160;1e&#45;11 mol/s &#160;&#160;&#160;9.95E&#45;01</text>
</g>
<!-- R278&#45;&gt;R311 -->
<g id="edge7" class="edge">
<title>R278&#45;&gt;R311</title>
<path fill="none" stroke="black" d="M93.83,-68.26C96.9,-67.39 99.97,-66.64 103,-66.06 318.59,-24.54 416.02,58.24 597,-66.06 632.36,-90.35 645,-140.78 649.51,-174.78"/>
<polygon fill="black" stroke="black" points="646.13,-175.09 650.74,-184.62 653.09,-174.29 646.13,-175.09"/>
<text text-anchor="middle" x="350" y="-75.06" font-family="Times New Roman,serif" font-size="30.00"> &#160;&#160;785 &#160;&#160;2% &#160;&#160;2e&#45;09 mol/s &#160;&#160;&#160;4.99E&#45;03</text>
</g>
</g>
</svg>
