<?xml version="1.0" encoding="UTF-8" standalone="no"?>
<!DOCTYPE svg PUBLIC "-//W3C//DTD SVG 1.1//EN"
 "http://www.w3.org/Graphics/SVG/1.1/DTD/svg11.dtd">
<!-- Generated by graphviz version 8.0.3 (20230416.2022)
 -->
<!-- Title: G Pages: 1 -->
<svg width="640pt" height="115pt"
 viewBox="0.00 0.00 720.00 129.78" xmlns="http://www.w3.org/2000/svg" xmlns:xlink="http://www.w3.org/1999/xlink">
<g id="graph0" class="graph" transform="scale(0.47619 0.47619) rotate(0) translate(4 238.26)">
<title>G</title>
<polygon fill="white" stroke="none" points="-4,4 -4,-238.26 1340,-238.26 1340,4 -4,4"/>
<text text-anchor="middle" x="668" y="-201.46" font-family="Arial" font-size="36.00" fill="blue">Reaction Path Analysis</text>
<!-- R314 -->
<g id="node1" class="node">
<title>R314</title>
<g id="a_node1"><a xlink:href="314.svg" xlink:title="R314">
<polygon fill="cornsilk" stroke="none" points="715,-116.76 621,-116.76 621,-69.76 715,-69.76 715,-116.76"/>
<text text-anchor="middle" x="668" y="-84.76" font-family="Times New Roman,serif" font-size="35.00">R314</text>
</a>
</g>
</g>
<!-- R73 -->
<g id="node2" class="node">
<title>R73</title>
<g id="a_node2"><a xlink:href="73.svg" xlink:title="R73">
<polygon fill="cornsilk" stroke="none" points="1327,-148.76 1251,-148.76 1251,-101.76 1327,-101.76 1327,-148.76"/>
<text text-anchor="middle" x="1289" y="-116.76" font-family="Times New Roman,serif" font-size="35.00">R73</text>
</a>
</g>
</g>
<!-- R314&#45;&gt;R73 -->
<g id="edge1" class="edge">
<title>R314&#45;&gt;R73</title>
<path fill="none" stroke="black" d="M704.75,-116.61C713.2,-121.01 722.4,-124.94 731.5,-127.26 914.75,-173.88 1143.05,-148.05 1240.43,-133.3"/>
<polygon fill="black" stroke="black" points="1240.75,-136.63 1250.09,-131.64 1239.68,-129.72 1240.75,-136.63"/>
<text text-anchor="middle" x="978.5" y="-162.26" font-family="Times New Roman,serif" font-size="30.00"> &#160;&#160;456 &#160;&#160;0% &#160;&#160;2.36e&#45;19 mol/s &#160;&#160;&#160;9.31E&#45;08</text>
</g>
<!-- R314&#45;&gt;R73 -->
<g id="edge5" class="edge">
<title>R314&#45;&gt;R73</title>
<path fill="none" stroke="black" d="M714.63,-90C829.73,-82.26 1129.56,-65.22 1225.5,-90.26 1231.67,-91.87 1237.87,-94.23 1243.85,-96.99"/>
<polygon fill="black" stroke="black" points="1242.14,-100.56 1252.65,-101.94 1245.3,-94.31 1242.14,-100.56"/>
<text text-anchor="middle" x="978.5" y="-99.26" font-family="Times New Roman,serif" font-size="30.00"> &#160;&#160;787 &#160;&#160;0% &#160;&#160;2.2e&#45;26 mol/s &#160;&#160;&#160;1.00E+00</text>
</g>
<!-- R324 -->
<g id="node3" class="node">
<title>R324</title>
<g id="a_node3"><a xlink:href="324.svg" xlink:title="R324">
<polygon fill="cornsilk" stroke="none" points="1336,-60.76 1242,-60.76 1242,-13.76 1336,-13.76 1336,-60.76"/>
<text text-anchor="middle" x="1289" y="-28.76" font-family="Times New Roman,serif" font-size="35.00">R324</text>
</a>
</g>
</g>
<!-- R314&#45;&gt;R324 -->
<g id="edge2" class="edge">
<title>R314&#45;&gt;R324</title>
<path fill="none" stroke="black" stroke-width="5" d="M688.43,-69.96C699.66,-58.35 714.85,-45.49 731.5,-39.26 898.69,23.31 1114.44,-3.4 1221.56,-23.11"/>
<polygon fill="black" stroke="black" stroke-width="5" points="1214.81,-30.87 1236.1,-26.05 1218.11,-13.68 1214.81,-30.87"/>
<text text-anchor="middle" x="978.5" y="-48.26" font-family="Times New Roman,serif" font-size="30.00"> &#160;&#160;548 &#160;&#160;99% &#160;&#160;2.18e&#45;15 mol/s &#160;&#160;&#160;1.00E+00</text>
</g>
<!-- R109 -->
<g id="node4" class="node">
<title>R109</title>
<g id="a_node4"><a xlink:href="109.svg" xlink:title="R109">
<polygon fill="cornsilk" stroke="none" points="94,-149.76 0,-149.76 0,-102.76 94,-102.76 94,-149.76"/>
<text text-anchor="middle" x="47" y="-117.76" font-family="Times New Roman,serif" font-size="35.00">R109</text>
</a>
</g>
</g>
<!-- R109&#45;&gt;R314 -->
<g id="edge3" class="edge">
<title>R109&#45;&gt;R314</title>
<path fill="none" stroke="black" stroke-width="6" d="M93.88,-126.92C186.94,-127.75 404.96,-127.04 600.5,-105.37"/>
<polygon fill="black" stroke="black" stroke-width="6" points="596.5,-115.71 615.17,-102.99 594.1,-94.85 596.5,-115.71"/>
<text text-anchor="middle" x="357.5" y="-135.26" font-family="Times New Roman,serif" font-size="30.00"> &#160;&#160;558 &#160;&#160;100% &#160;&#160;2.18e&#45;15 mol/s &#160;&#160;&#160;1.00E+00</text>
</g>
<!-- R1 -->
<g id="node5" class="node">
<title>R1</title>
<g id="a_node5"><a xlink:href="1.svg" xlink:title="R1">
<polygon fill="cornsilk" stroke="none" points="76,-84.76 18,-84.76 18,-37.76 76,-37.76 76,-84.76"/>
<text text-anchor="middle" x="47" y="-52.76" font-family="Times New Roman,serif" font-size="35.00">R1</text>
</a>
</g>
</g>
<!-- R1&#45;&gt;R314 -->
<g id="edge4" class="edge">
<title>R1&#45;&gt;R314</title>
<path fill="none" stroke="black" stroke-width="6" d="M75.97,-58.23C156.17,-50.27 393.92,-31.73 600.62,-69.55"/>
<polygon fill="black" stroke="black" stroke-width="6" points="593.53,-79.04 615.16,-72.52 597.52,-58.42 593.53,-79.04"/>
<text text-anchor="middle" x="357.5" y="-80.26" font-family="Times New Roman,serif" font-size="30.00"> &#160;&#160;558 &#160;&#160;100% &#160;&#160;2.18e&#45;15 mol/s &#160;&#160;&#160;1.00E+00</text>
</g>
</g>
</svg>
