<?xml version="1.0" encoding="UTF-8" standalone="no"?>
<!DOCTYPE svg PUBLIC "-//W3C//DTD SVG 1.1//EN"
 "http://www.w3.org/Graphics/SVG/1.1/DTD/svg11.dtd">
<!-- Generated by graphviz version 8.0.3 (20230416.2022)
 -->
<!-- Title: G Pages: 1 -->
<svg width="640pt" height="119pt"
 viewBox="0.00 0.00 720.00 134.27" xmlns="http://www.w3.org/2000/svg" xmlns:xlink="http://www.w3.org/1999/xlink">
<g id="graph0" class="graph" transform="scale(0.492308 0.492308) rotate(0) translate(4 238.42)">
<title>G</title>
<polygon fill="white" stroke="none" points="-4,4 -4,-238.42 1296,-238.42 1296,4 -4,4"/>
<text text-anchor="middle" x="646" y="-201.62" font-family="Arial" font-size="36.00" fill="blue">Reaction Path Analysis</text>
<!-- R314 -->
<g id="node1" class="node">
<title>R314</title>
<g id="a_node1"><a xlink:href="314.svg" xlink:title="R314">
<polygon fill="cornsilk" stroke="none" points="693,-116.92 599,-116.92 599,-69.92 693,-69.92 693,-116.92"/>
<text text-anchor="middle" x="646" y="-84.92" font-family="Times New Roman,serif" font-size="35.00">R314</text>
</a>
</g>
</g>
<!-- R73 -->
<g id="node2" class="node">
<title>R73</title>
<g id="a_node2"><a xlink:href="73.svg" xlink:title="R73">
<polygon fill="cornsilk" stroke="none" points="1283,-148.92 1207,-148.92 1207,-101.92 1283,-101.92 1283,-148.92"/>
<text text-anchor="middle" x="1245" y="-116.92" font-family="Times New Roman,serif" font-size="35.00">R73</text>
</a>
</g>
</g>
<!-- R314&#45;&gt;R73 -->
<g id="edge1" class="edge">
<title>R314&#45;&gt;R73</title>
<path fill="none" stroke="black" stroke-width="5" d="M680.61,-116.77C688.59,-121.16 697.32,-125.1 706,-127.42 875.87,-172.87 1086.85,-150.39 1186.61,-135.32"/>
<polygon fill="black" stroke="black" stroke-width="5" points="1182.88,-143.82 1201.27,-132.05 1180.15,-126.53 1182.88,-143.82"/>
<text text-anchor="middle" x="945.5" y="-162.42" font-family="Times New Roman,serif" font-size="30.00"> &#160;&#160;456 &#160;&#160;99% &#160;&#160;27500.0 mol/s &#160;&#160;&#160;9.88E&#45;08</text>
</g>
<!-- R314&#45;&gt;R73 -->
<g id="edge5" class="edge">
<title>R314&#45;&gt;R73</title>
<path fill="none" stroke="black" d="M692.79,-90.01C805.34,-82.13 1093.01,-65.19 1185,-90.42 1190.67,-91.98 1196.35,-94.24 1201.82,-96.87"/>
<polygon fill="black" stroke="black" points="1199.92,-100.35 1210.4,-101.94 1203.2,-94.17 1199.92,-100.35"/>
<text text-anchor="middle" x="945.5" y="-99.42" font-family="Times New Roman,serif" font-size="30.00"> &#160;&#160;787 &#160;&#160;0% &#160;&#160;0.00272 mol/s &#160;&#160;&#160;1.00E+00</text>
</g>
<!-- R324 -->
<g id="node3" class="node">
<title>R324</title>
<g id="a_node3"><a xlink:href="324.svg" xlink:title="R324">
<polygon fill="cornsilk" stroke="none" points="1292,-60.92 1198,-60.92 1198,-13.92 1292,-13.92 1292,-60.92"/>
<text text-anchor="middle" x="1245" y="-28.92" font-family="Times New Roman,serif" font-size="35.00">R324</text>
</a>
</g>
</g>
<!-- R314&#45;&gt;R324 -->
<g id="edge2" class="edge">
<title>R314&#45;&gt;R324</title>
<path fill="none" stroke="black" d="M665.09,-70.16C675.62,-58.56 689.96,-45.69 706,-39.42 870.94,25.02 1086.66,-4.89 1187.47,-24.75"/>
<polygon fill="black" stroke="black" points="1186.53,-28.33 1197.03,-26.87 1187.91,-21.47 1186.53,-28.33"/>
<text text-anchor="middle" x="945.5" y="-48.42" font-family="Times New Roman,serif" font-size="30.00"> &#160;&#160;548 &#160;&#160;0% &#160;&#160;0.0342 mol/s &#160;&#160;&#160;1.00E+00</text>
</g>
<!-- R109 -->
<g id="node4" class="node">
<title>R109</title>
<g id="a_node4"><a xlink:href="109.svg" xlink:title="R109">
<polygon fill="cornsilk" stroke="none" points="94,-149.92 0,-149.92 0,-102.92 94,-102.92 94,-149.92"/>
<text text-anchor="middle" x="47" y="-117.92" font-family="Times New Roman,serif" font-size="35.00">R109</text>
</a>
</g>
</g>
<!-- R109&#45;&gt;R314 -->
<g id="edge3" class="edge">
<title>R109&#45;&gt;R314</title>
<path fill="none" stroke="black" stroke-width="6" d="M93.88,-126.98C184.16,-127.56 391.69,-126.37 578.54,-105.54"/>
<polygon fill="black" stroke="black" stroke-width="6" points="574.51,-115.88 593.17,-103.15 572.09,-95.02 574.51,-115.88"/>
<text text-anchor="middle" x="346.5" y="-135.42" font-family="Times New Roman,serif" font-size="30.00"> &#160;&#160;558 &#160;&#160;100% &#160;&#160;0.0342 mol/s &#160;&#160;&#160;1.00E+00</text>
</g>
<!-- R1 -->
<g id="node5" class="node">
<title>R1</title>
<g id="a_node5"><a xlink:href="1.svg" xlink:title="R1">
<polygon fill="cornsilk" stroke="none" points="76,-84.92 18,-84.92 18,-37.92 76,-37.92 76,-84.92"/>
<text text-anchor="middle" x="47" y="-52.92" font-family="Times New Roman,serif" font-size="35.00">R1</text>
</a>
</g>
</g>
<!-- R1&#45;&gt;R314 -->
<g id="edge4" class="edge">
<title>R1&#45;&gt;R314</title>
<path fill="none" stroke="black" stroke-width="6" d="M75.73,-58.46C153.52,-50.84 380.5,-33.53 578.56,-69.71"/>
<polygon fill="black" stroke="black" stroke-width="6" points="571.53,-79.2 593.16,-72.69 575.52,-58.58 571.53,-79.2"/>
<text text-anchor="middle" x="346.5" y="-80.42" font-family="Times New Roman,serif" font-size="30.00"> &#160;&#160;558 &#160;&#160;100% &#160;&#160;0.0342 mol/s &#160;&#160;&#160;1.00E+00</text>
</g>
</g>
</svg>
