<?xml version="1.0" encoding="UTF-8" standalone="no"?>
<!DOCTYPE svg PUBLIC "-//W3C//DTD SVG 1.1//EN"
 "http://www.w3.org/Graphics/SVG/1.1/DTD/svg11.dtd">
<!-- Generated by graphviz version 8.0.3 (20230416.2022)
 -->
<!-- Title: G Pages: 1 -->
<svg width="629pt" height="367pt"
 viewBox="0.00 0.00 708.00 413.03" xmlns="http://www.w3.org/2000/svg" xmlns:xlink="http://www.w3.org/1999/xlink">
<g id="graph0" class="graph" transform="scale(0.888889 0.888889) rotate(0) translate(4 409.03)">
<title>G</title>
<polygon fill="white" stroke="none" points="-4,4 -4,-409.03 704,-409.03 704,4 -4,4"/>
<text text-anchor="middle" x="350" y="-372.23" font-family="Arial" font-size="36.00" fill="blue">Reaction Path Analysis</text>
<!-- R315 -->
<g id="node1" class="node">
<title>R315</title>
<g id="a_node1"><a xlink:href="315.svg" xlink:title="R315">
<polygon fill="cornsilk" stroke="none" points="700,-200.53 606,-200.53 606,-153.53 700,-153.53 700,-200.53"/>
<text text-anchor="middle" x="653" y="-168.53" font-family="Times New Roman,serif" font-size="35.00">R315</text>
</a>
</g>
</g>
<!-- R74 -->
<g id="node2" class="node">
<title>R74</title>
<g id="a_node2"><a xlink:href="74.svg" xlink:title="R74">
<polygon fill="cornsilk" stroke="none" points="85,-318.53 9,-318.53 9,-271.53 85,-271.53 85,-318.53"/>
<text text-anchor="middle" x="47" y="-286.53" font-family="Times New Roman,serif" font-size="35.00">R74</text>
</a>
</g>
</g>
<!-- R74&#45;&gt;R315 -->
<g id="edge1" class="edge">
<title>R74&#45;&gt;R315</title>
<path fill="none" stroke="black" d="M84.68,-299.99C193.48,-313.94 512.1,-349.13 597,-295.03 625.94,-276.59 639.9,-238.51 646.47,-210.58"/>
<polygon fill="black" stroke="black" points="650.05,-211.57 648.71,-201.06 643.2,-210.11 650.05,-211.57"/>
<text text-anchor="middle" x="350" y="-333.03" font-family="Times New Roman,serif" font-size="30.00"> &#160;&#160;458 &#160;&#160;0% &#160;&#160;2.13e&#45;26 mol/s &#160;&#160;&#160;9.70E&#45;01</text>
</g>
<!-- R74&#45;&gt;R315 -->
<g id="edge6" class="edge">
<title>R74&#45;&gt;R315</title>
<path fill="none" stroke="black" d="M76.39,-271.62C84.51,-266.16 93.7,-261.06 103,-258.03 207.44,-223.96 497.69,-286 597,-239.03 610.89,-232.46 622.76,-220.58 631.88,-208.97"/>
<polygon fill="black" stroke="black" points="635.2,-211.36 638.31,-201.24 629.56,-207.22 635.2,-211.36"/>
<text text-anchor="middle" x="350" y="-267.03" font-family="Times New Roman,serif" font-size="30.00"> &#160;&#160;789 &#160;&#160;0% &#160;&#160;6.87e&#45;25 mol/s &#160;&#160;&#160;3.01E&#45;02</text>
</g>
<!-- R109 -->
<g id="node3" class="node">
<title>R109</title>
<g id="a_node3"><a xlink:href="109.svg" xlink:title="R109">
<polygon fill="cornsilk" stroke="none" points="94,-232.53 0,-232.53 0,-185.53 94,-185.53 94,-232.53"/>
<text text-anchor="middle" x="47" y="-200.53" font-family="Times New Roman,serif" font-size="35.00">R109</text>
</a>
</g>
</g>
<!-- R109&#45;&gt;R315 -->
<g id="edge2" class="edge">
<title>R109&#45;&gt;R315</title>
<path fill="none" stroke="black" stroke-width="5" d="M93.91,-206.5C96.99,-206.34 100.04,-206.18 103,-206.03 315.65,-195.28 374.25,-199.76 585.2,-183.86"/>
<polygon fill="black" stroke="black" stroke-width="5" points="580.83,-192.51 600.1,-182.25 579.49,-175.06 580.83,-192.51"/>
<text text-anchor="middle" x="350" y="-215.03" font-family="Times New Roman,serif" font-size="30.00"> &#160;&#160;628 &#160;&#160;99% &#160;&#160;2.18e&#45;15 mol/s &#160;&#160;&#160;1.00E+00</text>
</g>
<!-- R13 -->
<g id="node4" class="node">
<title>R13</title>
<g id="a_node4"><a xlink:href="13.svg" xlink:title="R13">
<polygon fill="cornsilk" stroke="none" points="85,-167.53 9,-167.53 9,-120.53 85,-120.53 85,-167.53"/>
<text text-anchor="middle" x="47" y="-135.53" font-family="Times New Roman,serif" font-size="35.00">R13</text>
</a>
</g>
</g>
<!-- R13&#45;&gt;R315 -->
<g id="edge3" class="edge">
<title>R13&#45;&gt;R315</title>
<path fill="none" stroke="black" stroke-width="5" d="M84.67,-141.77C185.61,-135.9 467.44,-122 596.07,-148.66"/>
<polygon fill="black" stroke="black" stroke-width="5" points="588.94,-156.38 610.43,-152.6 593.06,-139.38 588.94,-156.38"/>
<text text-anchor="middle" x="350" y="-155.03" font-family="Times New Roman,serif" font-size="30.00"> &#160;&#160;628 &#160;&#160;99% &#160;&#160;2.18e&#45;15 mol/s &#160;&#160;&#160;1.00E+00</text>
</g>
<!-- R114 -->
<g id="node5" class="node">
<title>R114</title>
<g id="a_node5"><a xlink:href="114.svg" xlink:title="R114">
<polygon fill="cornsilk" stroke="none" points="94,-83.53 0,-83.53 0,-36.53 94,-36.53 94,-83.53"/>
<text text-anchor="middle" x="47" y="-51.53" font-family="Times New Roman,serif" font-size="35.00">R114</text>
</a>
</g>
</g>
<!-- R114&#45;&gt;R315 -->
<g id="edge4" class="edge">
<title>R114&#45;&gt;R315</title>
<path fill="none" stroke="black" d="M93.83,-69.73C96.93,-70.22 100,-70.66 103,-71.03 157.54,-77.71 549.21,-66.92 597,-94.03 616.32,-104.99 630.1,-125.86 639.04,-143.93"/>
<polygon fill="black" stroke="black" points="636.26,-145.26 643.63,-152.87 642.61,-142.33 636.26,-145.26"/>
<text text-anchor="middle" x="350" y="-103.03" font-family="Times New Roman,serif" font-size="30.00"> &#160;&#160;645 &#160;&#160;0% &#160;&#160;2.2e&#45;26 mol/s &#160;&#160;&#160;9.99E&#45;01</text>
</g>
<!-- R114&#45;&gt;R315 -->
<g id="edge5" class="edge">
<title>R114&#45;&gt;R315</title>
<path fill="none" stroke="black" d="M93.99,-36.54C96.99,-35.55 100.01,-34.7 103,-34.03 210.11,-9.99 506.51,28.12 597,-34.03 632.36,-58.32 645,-108.75 649.51,-142.75"/>
<polygon fill="black" stroke="black" points="646.13,-143.06 650.74,-152.59 653.09,-142.26 646.13,-143.06"/>
<text text-anchor="middle" x="350" y="-43.03" font-family="Times New Roman,serif" font-size="30.00"> &#160;&#160;788 &#160;&#160;0% &#160;&#160;1.52e&#45;23 mol/s &#160;&#160;&#160;1.44E&#45;03</text>
</g>
</g>
</svg>
