<?xml version="1.0" encoding="UTF-8" standalone="no"?>
<!DOCTYPE svg PUBLIC "-//W3C//DTD SVG 1.1//EN"
 "http://www.w3.org/Graphics/SVG/1.1/DTD/svg11.dtd">
<!-- Generated by graphviz version 8.0.3 (20230416.2022)
 -->
<!-- Title: G Pages: 1 -->
<svg width="603pt" height="364pt"
 viewBox="0.00 0.00 678.00 408.96" xmlns="http://www.w3.org/2000/svg" xmlns:xlink="http://www.w3.org/1999/xlink">
<g id="graph0" class="graph" transform="scale(0.888889 0.888889) rotate(0) translate(4 404.96)">
<title>G</title>
<polygon fill="white" stroke="none" points="-4,4 -4,-404.96 674,-404.96 674,4 -4,4"/>
<text text-anchor="middle" x="335" y="-368.16" font-family="Arial" font-size="36.00" fill="blue">Reaction Path Analysis</text>
<!-- R315 -->
<g id="node1" class="node">
<title>R315</title>
<g id="a_node1"><a xlink:href="315.svg" xlink:title="R315">
<polygon fill="cornsilk" stroke="none" points="670,-198.46 576,-198.46 576,-151.46 670,-151.46 670,-198.46"/>
<text text-anchor="middle" x="623" y="-166.46" font-family="Times New Roman,serif" font-size="35.00">R315</text>
</a>
</g>
</g>
<!-- R74 -->
<g id="node2" class="node">
<title>R74</title>
<g id="a_node2"><a xlink:href="74.svg" xlink:title="R74">
<polygon fill="cornsilk" stroke="none" points="85,-316.46 9,-316.46 9,-269.46 85,-269.46 85,-316.46"/>
<text text-anchor="middle" x="47" y="-284.46" font-family="Times New Roman,serif" font-size="35.00">R74</text>
</a>
</g>
</g>
<!-- R74&#45;&gt;R315 -->
<g id="edge1" class="edge">
<title>R74&#45;&gt;R315</title>
<path fill="none" stroke="black" d="M84.9,-297.94C189.79,-311.31 487.31,-343.74 567,-292.96 595.94,-274.52 609.9,-236.44 616.47,-208.51"/>
<polygon fill="black" stroke="black" points="620.05,-209.5 618.71,-198.99 613.2,-208.04 620.05,-209.5"/>
<text text-anchor="middle" x="335" y="-328.96" font-family="Times New Roman,serif" font-size="30.00"> &#160;&#160;458 &#160;&#160;0% &#160;&#160;0.00262 mol/s &#160;&#160;&#160;9.64E&#45;01</text>
</g>
<!-- R74&#45;&gt;R315 -->
<g id="edge6" class="edge">
<title>R74&#45;&gt;R315</title>
<path fill="none" stroke="black" d="M76.39,-269.57C84.52,-264.11 93.7,-259.01 103,-255.96 201.07,-223.84 473.77,-281.2 567,-236.96 580.88,-230.38 592.75,-218.5 601.87,-206.89"/>
<polygon fill="black" stroke="black" points="605.19,-209.28 608.3,-199.15 599.55,-205.13 605.19,-209.28"/>
<text text-anchor="middle" x="335" y="-264.96" font-family="Times New Roman,serif" font-size="30.00"> &#160;&#160;789 &#160;&#160;3% &#160;&#160;0.0706 mol/s &#160;&#160;&#160;3.58E&#45;02</text>
</g>
<!-- R109 -->
<g id="node3" class="node">
<title>R109</title>
<g id="a_node3"><a xlink:href="109.svg" xlink:title="R109">
<polygon fill="cornsilk" stroke="none" points="94,-230.46 0,-230.46 0,-183.46 94,-183.46 94,-230.46"/>
<text text-anchor="middle" x="47" y="-198.46" font-family="Times New Roman,serif" font-size="35.00">R109</text>
</a>
</g>
</g>
<!-- R109&#45;&gt;R315 -->
<g id="edge2" class="edge">
<title>R109&#45;&gt;R315</title>
<path fill="none" stroke="black" d="M93.92,-204.44C96.99,-204.28 100.04,-204.12 103,-203.96 305.67,-193.41 359.35,-197.14 565.22,-181.03"/>
<polygon fill="black" stroke="black" points="565.41,-184.45 575.1,-180.18 564.86,-177.47 565.41,-184.45"/>
<text text-anchor="middle" x="335" y="-212.96" font-family="Times New Roman,serif" font-size="30.00"> &#160;&#160;628 &#160;&#160;1% &#160;&#160;0.0342 mol/s &#160;&#160;&#160;1.00E+00</text>
</g>
<!-- R13 -->
<g id="node4" class="node">
<title>R13</title>
<g id="a_node4"><a xlink:href="13.svg" xlink:title="R13">
<polygon fill="cornsilk" stroke="none" points="85,-165.46 9,-165.46 9,-118.46 85,-118.46 85,-165.46"/>
<text text-anchor="middle" x="47" y="-133.46" font-family="Times New Roman,serif" font-size="35.00">R13</text>
</a>
</g>
</g>
<!-- R13&#45;&gt;R315 -->
<g id="edge3" class="edge">
<title>R13&#45;&gt;R315</title>
<path fill="none" stroke="black" d="M84.85,-139.71C187.65,-133.79 475.97,-119.89 567,-143.96 570.18,-144.81 573.37,-145.88 576.53,-147.11"/>
<polygon fill="black" stroke="black" points="574.88,-150.65 585.43,-151.53 577.73,-144.26 574.88,-150.65"/>
<text text-anchor="middle" x="335" y="-152.96" font-family="Times New Roman,serif" font-size="30.00"> &#160;&#160;628 &#160;&#160;1% &#160;&#160;0.0342 mol/s &#160;&#160;&#160;1.00E+00</text>
</g>
<!-- R114 -->
<g id="node5" class="node">
<title>R114</title>
<g id="a_node5"><a xlink:href="114.svg" xlink:title="R114">
<polygon fill="cornsilk" stroke="none" points="94,-81.46 0,-81.46 0,-34.46 94,-34.46 94,-81.46"/>
<text text-anchor="middle" x="47" y="-49.46" font-family="Times New Roman,serif" font-size="35.00">R114</text>
</a>
</g>
</g>
<!-- R114&#45;&gt;R315 -->
<g id="edge4" class="edge">
<title>R114&#45;&gt;R315</title>
<path fill="none" stroke="black" d="M93.83,-67.65C96.93,-68.14 100,-68.59 103,-68.96 154.22,-75.38 522.09,-67.5 567,-92.96 586.12,-103.81 599.89,-124.37 608.87,-142.18"/>
<polygon fill="black" stroke="black" points="605.93,-143.17 613.37,-150.72 612.27,-140.19 605.93,-143.17"/>
<text text-anchor="middle" x="335" y="-101.96" font-family="Times New Roman,serif" font-size="30.00"> &#160;&#160;645 &#160;&#160;0% &#160;&#160;0.00271 mol/s &#160;&#160;&#160;9.98E&#45;01</text>
</g>
<!-- R114&#45;&gt;R315 -->
<g id="edge5" class="edge">
<title>R114&#45;&gt;R315</title>
<path fill="none" stroke="black" stroke-width="5" d="M93.99,-34.47C96.99,-33.49 100.01,-32.63 103,-31.96 203.61,-9.38 482,26.41 567,-31.96 599.13,-54.03 612.5,-97.69 618.06,-131"/>
<polygon fill="black" stroke="black" stroke-width="5" points="609.47,-126.83 620.74,-145.53 626.82,-124.56 609.47,-126.83"/>
<text text-anchor="middle" x="335" y="-40.96" font-family="Times New Roman,serif" font-size="30.00"> &#160;&#160;788 &#160;&#160;94% &#160;&#160;1.78 mol/s &#160;&#160;&#160;1.53E&#45;03</text>
</g>
</g>
</svg>
