<?xml version="1.0" encoding="UTF-8" standalone="no"?>
<!DOCTYPE svg PUBLIC "-//W3C//DTD SVG 1.1//EN"
 "http://www.w3.org/Graphics/SVG/1.1/DTD/svg11.dtd">
<!-- Generated by graphviz version 8.0.3 (20230416.2022)
 -->
<!-- Title: G Pages: 1 -->
<svg width="640pt" height="114pt"
 viewBox="0.00 0.00 720.00 127.79" xmlns="http://www.w3.org/2000/svg" xmlns:xlink="http://www.w3.org/1999/xlink">
<g id="graph0" class="graph" transform="scale(0.47619 0.47619) rotate(0) translate(4 234.54)">
<title>G</title>
<polygon fill="white" stroke="none" points="-4,4 -4,-234.54 1340,-234.54 1340,4 -4,4"/>
<text text-anchor="middle" x="668" y="-197.74" font-family="Arial" font-size="36.00" fill="blue">Reaction Path Analysis</text>
<!-- R316 -->
<g id="node1" class="node">
<title>R316</title>
<g id="a_node1"><a xlink:href="316.svg" xlink:title="R316">
<polygon fill="cornsilk" stroke="none" points="715,-114.04 621,-114.04 621,-67.04 715,-67.04 715,-114.04"/>
<text text-anchor="middle" x="668" y="-82.04" font-family="Times New Roman,serif" font-size="35.00">R316</text>
</a>
</g>
</g>
<!-- R81 -->
<g id="node2" class="node">
<title>R81</title>
<g id="a_node2"><a xlink:href="81.svg" xlink:title="R81">
<polygon fill="cornsilk" stroke="none" points="1327,-146.04 1251,-146.04 1251,-99.04 1327,-99.04 1327,-146.04"/>
<text text-anchor="middle" x="1289" y="-114.04" font-family="Times New Roman,serif" font-size="35.00">R81</text>
</a>
</g>
</g>
<!-- R316&#45;&gt;R81 -->
<g id="edge1" class="edge">
<title>R316&#45;&gt;R81</title>
<path fill="none" stroke="black" stroke-width="5" d="M706.88,-113.91C715.8,-118.3 725.48,-122.23 735,-124.54 911.28,-167.28 1128.55,-145.85 1230.31,-131.68"/>
<polygon fill="black" stroke="black" stroke-width="5" points="1226.53,-140.2 1245.06,-128.67 1224.01,-122.88 1226.53,-140.2"/>
<text text-anchor="middle" x="978.5" y="-158.54" font-family="Times New Roman,serif" font-size="30.00"> &#160;&#160;464 &#160;&#160;92% &#160;&#160;6.06e&#45;07 mol/s &#160;&#160;&#160;1.67E&#45;05</text>
</g>
<!-- R316&#45;&gt;R81 -->
<g id="edge5" class="edge">
<title>R316&#45;&gt;R81</title>
<path fill="none" stroke="black" d="M714.73,-87.4C829.34,-80 1126.5,-63.79 1222,-87.54 1228.61,-89.18 1235.28,-91.63 1241.72,-94.47"/>
<polygon fill="black" stroke="black" points="1240.06,-98.03 1250.59,-99.21 1243.09,-91.73 1240.06,-98.03"/>
<text text-anchor="middle" x="978.5" y="-96.54" font-family="Times New Roman,serif" font-size="30.00"> &#160;&#160;790 &#160;&#160;0% &#160;&#160;1.01e&#45;11 mol/s &#160;&#160;&#160;1.00E+00</text>
</g>
<!-- R325 -->
<g id="node3" class="node">
<title>R325</title>
<g id="a_node3"><a xlink:href="325.svg" xlink:title="R325">
<polygon fill="cornsilk" stroke="none" points="1336,-58.04 1242,-58.04 1242,-11.04 1336,-11.04 1336,-58.04"/>
<text text-anchor="middle" x="1289" y="-26.04" font-family="Times New Roman,serif" font-size="35.00">R325</text>
</a>
</g>
</g>
<!-- R316&#45;&gt;R325 -->
<g id="edge2" class="edge">
<title>R316&#45;&gt;R325</title>
<path fill="none" stroke="black" d="M690.43,-67.11C702.32,-55.85 718.1,-43.54 735,-37.54 907.2,23.57 1128.99,-4.52 1231.47,-22.96"/>
<polygon fill="black" stroke="black" points="1230.72,-26.57 1241.19,-24.94 1231.99,-19.68 1230.72,-26.57"/>
<text text-anchor="middle" x="978.5" y="-46.54" font-family="Times New Roman,serif" font-size="30.00"> &#160;&#160;549 &#160;&#160;7% &#160;&#160;4.67e&#45;08 mol/s &#160;&#160;&#160;1.00E+00</text>
</g>
<!-- R119 -->
<g id="node4" class="node">
<title>R119</title>
<g id="a_node4"><a xlink:href="119.svg" xlink:title="R119">
<polygon fill="cornsilk" stroke="none" points="94,-147.04 0,-147.04 0,-100.04 94,-100.04 94,-147.04"/>
<text text-anchor="middle" x="47" y="-115.04" font-family="Times New Roman,serif" font-size="35.00">R119</text>
</a>
</g>
</g>
<!-- R119&#45;&gt;R316 -->
<g id="edge3" class="edge">
<title>R119&#45;&gt;R316</title>
<path fill="none" stroke="black" stroke-width="6" d="M93.88,-124.2C186.94,-125.03 404.96,-124.33 600.5,-102.65"/>
<polygon fill="black" stroke="black" stroke-width="6" points="596.5,-112.99 615.17,-100.27 594.1,-92.13 596.5,-112.99"/>
<text text-anchor="middle" x="357.5" y="-132.54" font-family="Times New Roman,serif" font-size="30.00"> &#160;&#160;567 &#160;&#160;100% &#160;&#160;4.67e&#45;08 mol/s &#160;&#160;&#160;1.00E+00</text>
</g>
<!-- R1 -->
<g id="node5" class="node">
<title>R1</title>
<g id="a_node5"><a xlink:href="1.svg" xlink:title="R1">
<polygon fill="cornsilk" stroke="none" points="76,-82.04 18,-82.04 18,-35.04 76,-35.04 76,-82.04"/>
<text text-anchor="middle" x="47" y="-50.04" font-family="Times New Roman,serif" font-size="35.00">R1</text>
</a>
</g>
</g>
<!-- R1&#45;&gt;R316 -->
<g id="edge4" class="edge">
<title>R1&#45;&gt;R316</title>
<path fill="none" stroke="black" stroke-width="6" d="M75.97,-55.51C156.17,-47.55 393.92,-29.01 600.62,-66.83"/>
<polygon fill="black" stroke="black" stroke-width="6" points="593.53,-76.32 615.16,-69.8 597.52,-55.7 593.53,-76.32"/>
<text text-anchor="middle" x="357.5" y="-77.54" font-family="Times New Roman,serif" font-size="30.00"> &#160;&#160;567 &#160;&#160;100% &#160;&#160;4.67e&#45;08 mol/s &#160;&#160;&#160;1.00E+00</text>
</g>
</g>
</svg>
