<?xml version="1.0" encoding="UTF-8" standalone="no"?>
<!DOCTYPE svg PUBLIC "-//W3C//DTD SVG 1.1//EN"
 "http://www.w3.org/Graphics/SVG/1.1/DTD/svg11.dtd">
<!-- Generated by graphviz version 8.0.3 (20230416.2022)
 -->
<!-- Title: G Pages: 1 -->
<svg width="640pt" height="117pt"
 viewBox="0.00 0.00 720.00 132.18" xmlns="http://www.w3.org/2000/svg" xmlns:xlink="http://www.w3.org/1999/xlink">
<g id="graph0" class="graph" transform="scale(0.492308 0.492308) rotate(0) translate(4 234.65)">
<title>G</title>
<polygon fill="white" stroke="none" points="-4,4 -4,-234.65 1296,-234.65 1296,4 -4,4"/>
<text text-anchor="middle" x="646" y="-197.85" font-family="Arial" font-size="36.00" fill="blue">Reaction Path Analysis</text>
<!-- R316 -->
<g id="node1" class="node">
<title>R316</title>
<g id="a_node1"><a xlink:href="316.svg" xlink:title="R316">
<polygon fill="cornsilk" stroke="none" points="693,-114.15 599,-114.15 599,-67.15 693,-67.15 693,-114.15"/>
<text text-anchor="middle" x="646" y="-82.15" font-family="Times New Roman,serif" font-size="35.00">R316</text>
</a>
</g>
</g>
<!-- R81 -->
<g id="node2" class="node">
<title>R81</title>
<g id="a_node2"><a xlink:href="81.svg" xlink:title="R81">
<polygon fill="cornsilk" stroke="none" points="1283,-146.15 1207,-146.15 1207,-99.15 1283,-99.15 1283,-146.15"/>
<text text-anchor="middle" x="1245" y="-114.15" font-family="Times New Roman,serif" font-size="35.00">R81</text>
</a>
</g>
</g>
<!-- R316&#45;&gt;R81 -->
<g id="edge1" class="edge">
<title>R316&#45;&gt;R81</title>
<path fill="none" stroke="black" stroke-width="5" d="M682.75,-114.01C691.2,-118.4 700.4,-122.34 709.5,-124.65 878.6,-167.67 1087.64,-146.42 1186.73,-132.1"/>
<polygon fill="black" stroke="black" stroke-width="5" points="1182.79,-140.64 1201.26,-129 1180.18,-123.33 1182.79,-140.64"/>
<text text-anchor="middle" x="945.5" y="-158.65" font-family="Times New Roman,serif" font-size="30.00"> &#160;&#160;464 &#160;&#160;99% &#160;&#160;209.0 mol/s &#160;&#160;&#160;1.30E&#45;05</text>
</g>
<!-- R316&#45;&gt;R81 -->
<g id="edge5" class="edge">
<title>R316&#45;&gt;R81</title>
<path fill="none" stroke="black" d="M692.86,-87.37C804.88,-79.85 1089.91,-63.76 1181.5,-87.65 1187.67,-89.26 1193.87,-91.63 1199.85,-94.39"/>
<polygon fill="black" stroke="black" points="1198.14,-97.95 1208.65,-99.33 1201.3,-91.7 1198.14,-97.95"/>
<text text-anchor="middle" x="945.5" y="-96.65" font-family="Times New Roman,serif" font-size="30.00"> &#160;&#160;790 &#160;&#160;0% &#160;&#160;0.00272 mol/s &#160;&#160;&#160;1.00E+00</text>
</g>
<!-- R325 -->
<g id="node3" class="node">
<title>R325</title>
<g id="a_node3"><a xlink:href="325.svg" xlink:title="R325">
<polygon fill="cornsilk" stroke="none" points="1292,-58.15 1198,-58.15 1198,-11.15 1292,-11.15 1292,-58.15"/>
<text text-anchor="middle" x="1245" y="-26.15" font-family="Times New Roman,serif" font-size="35.00">R325</text>
</a>
</g>
</g>
<!-- R316&#45;&gt;R325 -->
<g id="edge2" class="edge">
<title>R316&#45;&gt;R325</title>
<path fill="none" stroke="black" d="M667.07,-67.24C678.26,-56 693.22,-43.68 709.5,-37.65 874.12,23.27 1087.29,-4.2 1187.38,-22.7"/>
<polygon fill="black" stroke="black" points="1186.68,-26.32 1197.15,-24.74 1187.98,-19.44 1186.68,-26.32"/>
<text text-anchor="middle" x="945.5" y="-46.65" font-family="Times New Roman,serif" font-size="30.00"> &#160;&#160;549 &#160;&#160;0% &#160;&#160;0.0342 mol/s &#160;&#160;&#160;1.00E+00</text>
</g>
<!-- R119 -->
<g id="node4" class="node">
<title>R119</title>
<g id="a_node4"><a xlink:href="119.svg" xlink:title="R119">
<polygon fill="cornsilk" stroke="none" points="94,-147.15 0,-147.15 0,-100.15 94,-100.15 94,-147.15"/>
<text text-anchor="middle" x="47" y="-115.15" font-family="Times New Roman,serif" font-size="35.00">R119</text>
</a>
</g>
</g>
<!-- R119&#45;&gt;R316 -->
<g id="edge3" class="edge">
<title>R119&#45;&gt;R316</title>
<path fill="none" stroke="black" stroke-width="6" d="M93.88,-124.21C184.16,-124.79 391.69,-123.6 578.54,-102.77"/>
<polygon fill="black" stroke="black" stroke-width="6" points="574.51,-113.11 593.17,-100.38 572.09,-92.25 574.51,-113.11"/>
<text text-anchor="middle" x="346.5" y="-132.65" font-family="Times New Roman,serif" font-size="30.00"> &#160;&#160;567 &#160;&#160;100% &#160;&#160;0.0342 mol/s &#160;&#160;&#160;1.00E+00</text>
</g>
<!-- R1 -->
<g id="node5" class="node">
<title>R1</title>
<g id="a_node5"><a xlink:href="1.svg" xlink:title="R1">
<polygon fill="cornsilk" stroke="none" points="76,-82.15 18,-82.15 18,-35.15 76,-35.15 76,-82.15"/>
<text text-anchor="middle" x="47" y="-50.15" font-family="Times New Roman,serif" font-size="35.00">R1</text>
</a>
</g>
</g>
<!-- R1&#45;&gt;R316 -->
<g id="edge4" class="edge">
<title>R1&#45;&gt;R316</title>
<path fill="none" stroke="black" stroke-width="6" d="M75.73,-55.68C153.52,-48.07 380.5,-30.76 578.56,-66.94"/>
<polygon fill="black" stroke="black" stroke-width="6" points="571.53,-76.43 593.16,-69.92 575.52,-55.81 571.53,-76.43"/>
<text text-anchor="middle" x="346.5" y="-77.65" font-family="Times New Roman,serif" font-size="30.00"> &#160;&#160;567 &#160;&#160;100% &#160;&#160;0.0342 mol/s &#160;&#160;&#160;1.00E+00</text>
</g>
</g>
</svg>
