<?xml version="1.0" encoding="UTF-8" standalone="no"?>
<!DOCTYPE svg PUBLIC "-//W3C//DTD SVG 1.1//EN"
 "http://www.w3.org/Graphics/SVG/1.1/DTD/svg11.dtd">
<!-- Generated by graphviz version 8.0.3 (20230416.2022)
 -->
<!-- Title: G Pages: 1 -->
<svg width="640pt" height="91pt"
 viewBox="0.00 0.00 720.00 102.78" xmlns="http://www.w3.org/2000/svg" xmlns:xlink="http://www.w3.org/1999/xlink">
<g id="graph0" class="graph" transform="scale(0.479401 0.479401) rotate(0) translate(4 186.58)">
<title>G</title>
<polygon fill="white" stroke="none" points="-4,4 -4,-186.58 1331,-186.58 1331,4 -4,4"/>
<text text-anchor="middle" x="663.5" y="-149.78" font-family="Arial" font-size="36.00" fill="blue">Reaction Path Analysis</text>
<!-- R319 -->
<g id="node1" class="node">
<title>R319</title>
<g id="a_node1"><a xlink:href="319.svg" xlink:title="R319">
<polygon fill="cornsilk" stroke="none" points="715,-92.08 621,-92.08 621,-45.08 715,-45.08 715,-92.08"/>
<text text-anchor="middle" x="668" y="-60.08" font-family="Times New Roman,serif" font-size="35.00">R319</text>
</a>
</g>
</g>
<!-- R85 -->
<g id="node2" class="node">
<title>R85</title>
<g id="a_node2"><a xlink:href="85.svg" xlink:title="R85">
<polygon fill="cornsilk" stroke="none" points="1327,-92.08 1251,-92.08 1251,-45.08 1327,-45.08 1327,-92.08"/>
<text text-anchor="middle" x="1289" y="-60.08" font-family="Times New Roman,serif" font-size="35.00">R85</text>
</a>
</g>
</g>
<!-- R319&#45;&gt;R85 -->
<g id="edge1" class="edge">
<title>R319&#45;&gt;R85</title>
<path fill="none" stroke="black" stroke-width="5" d="M714.7,-73.47C720.35,-73.93 726.06,-74.32 731.5,-74.58 950.8,-85.08 1006.2,-85.08 1225.5,-74.58 1227.05,-74.5 1228.62,-74.42 1230.21,-74.32"/>
<polygon fill="black" stroke="black" stroke-width="5" points="1225.76,-82.98 1245.03,-72.72 1224.41,-65.53 1225.76,-82.98"/>
<text text-anchor="middle" x="978.5" y="-90.58" font-family="Times New Roman,serif" font-size="30.00"> &#160;&#160;470 &#160;&#160;99% &#160;&#160;0.000168 mol/s &#160;&#160;&#160;6.01E&#45;08</text>
</g>
<!-- R319&#45;&gt;R85 -->
<g id="edge4" class="edge">
<title>R319&#45;&gt;R85</title>
<path fill="none" stroke="black" d="M709.68,-45.1C716.75,-41.99 724.19,-39.29 731.5,-37.58 945.26,12.53 1011.74,12.53 1225.5,-37.58 1230.75,-38.81 1236.06,-40.54 1241.25,-42.58"/>
<polygon fill="black" stroke="black" points="1239.48,-46.05 1250.04,-46.79 1242.24,-39.62 1239.48,-46.05"/>
<text text-anchor="middle" x="978.5" y="-46.58" font-family="Times New Roman,serif" font-size="30.00"> &#160;&#160;794 &#160;&#160;0% &#160;&#160;1.01e&#45;11 mol/s &#160;&#160;&#160;1.00E+00</text>
</g>
<!-- R132 -->
<g id="node3" class="node">
<title>R132</title>
<g id="a_node3"><a xlink:href="132.svg" xlink:title="R132">
<polygon fill="cornsilk" stroke="none" points="94,-125.08 0,-125.08 0,-78.08 94,-78.08 94,-125.08"/>
<text text-anchor="middle" x="47" y="-93.08" font-family="Times New Roman,serif" font-size="35.00">R132</text>
</a>
</g>
</g>
<!-- R132&#45;&gt;R319 -->
<g id="edge2" class="edge">
<title>R132&#45;&gt;R319</title>
<path fill="none" stroke="black" stroke-width="6" d="M93.88,-102.24C186.94,-103.06 404.96,-102.36 600.5,-80.69"/>
<polygon fill="black" stroke="black" stroke-width="6" points="596.5,-91.03 615.17,-78.31 594.1,-70.16 596.5,-91.03"/>
<text text-anchor="middle" x="357.5" y="-110.58" font-family="Times New Roman,serif" font-size="30.00"> &#160;&#160;583 &#160;&#160;100% &#160;&#160;4.67e&#45;08 mol/s &#160;&#160;&#160;1.00E+00</text>
</g>
<!-- R1 -->
<g id="node4" class="node">
<title>R1</title>
<g id="a_node4"><a xlink:href="1.svg" xlink:title="R1">
<polygon fill="cornsilk" stroke="none" points="76,-60.08 18,-60.08 18,-13.08 76,-13.08 76,-60.08"/>
<text text-anchor="middle" x="47" y="-28.08" font-family="Times New Roman,serif" font-size="35.00">R1</text>
</a>
</g>
</g>
<!-- R1&#45;&gt;R319 -->
<g id="edge3" class="edge">
<title>R1&#45;&gt;R319</title>
<path fill="none" stroke="black" stroke-width="6" d="M75.97,-33.55C156.17,-25.58 393.92,-7.05 600.62,-44.87"/>
<polygon fill="black" stroke="black" stroke-width="6" points="593.53,-54.35 615.16,-47.84 597.52,-33.73 593.53,-54.35"/>
<text text-anchor="middle" x="357.5" y="-55.58" font-family="Times New Roman,serif" font-size="30.00"> &#160;&#160;583 &#160;&#160;100% &#160;&#160;4.67e&#45;08 mol/s &#160;&#160;&#160;1.00E+00</text>
</g>
</g>
</svg>
