<?xml version="1.0" encoding="UTF-8" standalone="no"?>
<!DOCTYPE svg PUBLIC "-//W3C//DTD SVG 1.1//EN"
 "http://www.w3.org/Graphics/SVG/1.1/DTD/svg11.dtd">
<!-- Generated by graphviz version 8.0.3 (20230416.2022)
 -->
<!-- Title: G Pages: 1 -->
<svg width="623pt" height="158pt"
 viewBox="0.00 0.00 701.00 177.50" xmlns="http://www.w3.org/2000/svg" xmlns:xlink="http://www.w3.org/1999/xlink">
<g id="graph0" class="graph" transform="scale(0.888889 0.888889) rotate(0) translate(4 173.5)">
<title>G</title>
<polygon fill="white" stroke="none" points="-4,4 -4,-173.5 697,-173.5 697,4 -4,4"/>
<text text-anchor="middle" x="346.5" y="-136.7" font-family="Arial" font-size="36.00" fill="blue">Reaction Path Analysis</text>
<!-- R321 -->
<g id="node1" class="node">
<title>R321</title>
<g id="a_node1"><a xlink:href="321.svg" xlink:title="R321">
<polygon fill="cornsilk" stroke="none" points="693,-79 599,-79 599,-32 693,-32 693,-79"/>
<text text-anchor="middle" x="646" y="-47" font-family="Times New Roman,serif" font-size="35.00">R321</text>
</a>
</g>
</g>
<!-- R0 -->
<g id="node2" class="node">
<title>R0</title>
<g id="a_node2"><a xlink:href="0.svg" xlink:title="R0">
<polygon fill="cornsilk" stroke="none" points="76,-112 18,-112 18,-65 76,-65 76,-112"/>
<text text-anchor="middle" x="47" y="-80" font-family="Times New Roman,serif" font-size="35.00">R0</text>
</a>
</g>
</g>
<!-- R0&#45;&gt;R321 -->
<g id="edge1" class="edge">
<title>R0&#45;&gt;R321</title>
<path fill="none" stroke="black" stroke-width="6" d="M75.76,-88.9C153.15,-89.71 378.22,-89.91 578.34,-67.64"/>
<polygon fill="black" stroke="black" stroke-width="6" points="574.51,-77.96 593.17,-65.22 572.1,-57.09 574.51,-77.96"/>
<text text-anchor="middle" x="346.5" y="-97.5" font-family="Times New Roman,serif" font-size="30.00"> &#160;&#160;542 &#160;&#160;100% &#160;&#160;0.0342 mol/s &#160;&#160;&#160;1.00E+00</text>
</g>
<!-- R276 -->
<g id="node3" class="node">
<title>R276</title>
<g id="a_node3"><a xlink:href="276.svg" xlink:title="R276">
<polygon fill="cornsilk" stroke="none" points="94,-47 0,-47 0,0 94,0 94,-47"/>
<text text-anchor="middle" x="47" y="-15" font-family="Times New Roman,serif" font-size="35.00">R276</text>
</a>
</g>
</g>
<!-- R276&#45;&gt;R321 -->
<g id="edge2" class="edge">
<title>R276&#45;&gt;R321</title>
<path fill="none" stroke="black" stroke-width="6" d="M93.93,-18.83C184.75,-10.77 393.81,2.05 578.76,-31.82"/>
<polygon fill="black" stroke="black" stroke-width="6" points="571.53,-41.27 593.16,-34.76 575.52,-20.66 571.53,-41.27"/>
<text text-anchor="middle" x="346.5" y="-42.5" font-family="Times New Roman,serif" font-size="30.00"> &#160;&#160;542 &#160;&#160;100% &#160;&#160;0.0342 mol/s &#160;&#160;&#160;1.00E+00</text>
</g>
</g>
</svg>
