<?xml version="1.0" encoding="UTF-8" standalone="no"?>
<!DOCTYPE svg PUBLIC "-//W3C//DTD SVG 1.1//EN"
 "http://www.w3.org/Graphics/SVG/1.1/DTD/svg11.dtd">
<!-- Generated by graphviz version 8.0.3 (20230416.2022)
 -->
<!-- Title: G Pages: 1 -->
<svg width="640pt" height="157pt"
 viewBox="0.00 0.00 720.00 176.76" xmlns="http://www.w3.org/2000/svg" xmlns:xlink="http://www.w3.org/1999/xlink">
<g id="graph0" class="graph" transform="scale(0.885201 0.885201) rotate(0) translate(4 173.5)">
<title>G</title>
<polygon fill="white" stroke="none" points="-4,4 -4,-173.5 719,-173.5 719,4 -4,4"/>
<text text-anchor="middle" x="357.5" y="-136.7" font-family="Arial" font-size="36.00" fill="blue">Reaction Path Analysis</text>
<!-- R322 -->
<g id="node1" class="node">
<title>R322</title>
<g id="a_node1"><a xlink:href="322.svg" xlink:title="R322">
<polygon fill="cornsilk" stroke="none" points="715,-79 621,-79 621,-32 715,-32 715,-79"/>
<text text-anchor="middle" x="668" y="-47" font-family="Times New Roman,serif" font-size="35.00">R322</text>
</a>
</g>
</g>
<!-- R0 -->
<g id="node2" class="node">
<title>R0</title>
<g id="a_node2"><a xlink:href="0.svg" xlink:title="R0">
<polygon fill="cornsilk" stroke="none" points="76,-112 18,-112 18,-65 76,-65 76,-112"/>
<text text-anchor="middle" x="47" y="-80" font-family="Times New Roman,serif" font-size="35.00">R0</text>
</a>
</g>
</g>
<!-- R0&#45;&gt;R322 -->
<g id="edge1" class="edge">
<title>R0&#45;&gt;R322</title>
<path fill="none" stroke="black" stroke-width="6" d="M76,-88.97C155.79,-89.99 391.54,-90.74 600.4,-67.62"/>
<polygon fill="black" stroke="black" stroke-width="6" points="596.5,-77.95 615.17,-65.23 594.1,-57.09 596.5,-77.95"/>
<text text-anchor="middle" x="357.5" y="-97.5" font-family="Times New Roman,serif" font-size="30.00"> &#160;&#160;544 &#160;&#160;100% &#160;&#160;4.67e&#45;08 mol/s &#160;&#160;&#160;1.00E+00</text>
</g>
<!-- R280 -->
<g id="node3" class="node">
<title>R280</title>
<g id="a_node3"><a xlink:href="280.svg" xlink:title="R280">
<polygon fill="cornsilk" stroke="none" points="94,-47 0,-47 0,0 94,0 94,-47"/>
<text text-anchor="middle" x="47" y="-15" font-family="Times New Roman,serif" font-size="35.00">R280</text>
</a>
</g>
</g>
<!-- R280&#45;&gt;R322 -->
<g id="edge2" class="edge">
<title>R280&#45;&gt;R322</title>
<path fill="none" stroke="black" stroke-width="6" d="M93.93,-18.77C187.53,-10.29 407.18,3.67 600.72,-31.81"/>
<polygon fill="black" stroke="black" stroke-width="6" points="593.53,-41.27 615.16,-34.76 597.52,-20.66 593.53,-41.27"/>
<text text-anchor="middle" x="357.5" y="-42.5" font-family="Times New Roman,serif" font-size="30.00"> &#160;&#160;544 &#160;&#160;100% &#160;&#160;4.67e&#45;08 mol/s &#160;&#160;&#160;1.00E+00</text>
</g>
</g>
</svg>
