<?xml version="1.0" encoding="UTF-8" standalone="no"?>
<!DOCTYPE svg PUBLIC "-//W3C//DTD SVG 1.1//EN"
 "http://www.w3.org/Graphics/SVG/1.1/DTD/svg11.dtd">
<!-- Generated by graphviz version 8.0.3 (20230416.2022)
 -->
<!-- Title: G Pages: 1 -->
<svg width="629pt" height="318pt"
 viewBox="0.00 0.00 708.00 357.65" xmlns="http://www.w3.org/2000/svg" xmlns:xlink="http://www.w3.org/1999/xlink">
<g id="graph0" class="graph" transform="scale(0.888889 0.888889) rotate(0) translate(4 353.65)">
<title>G</title>
<polygon fill="white" stroke="none" points="-4,4 -4,-353.65 704,-353.65 704,4 -4,4"/>
<text text-anchor="middle" x="350" y="-316.85" font-family="Arial" font-size="36.00" fill="blue">Reaction Path Analysis</text>
<!-- R324 -->
<g id="node1" class="node">
<title>R324</title>
<g id="a_node1"><a xlink:href="324.svg" xlink:title="R324">
<polygon fill="cornsilk" stroke="none" points="700,-164.15 606,-164.15 606,-117.15 700,-117.15 700,-164.15"/>
<text text-anchor="middle" x="653" y="-132.15" font-family="Times New Roman,serif" font-size="35.00">R324</text>
</a>
</g>
</g>
<!-- R0 -->
<g id="node2" class="node">
<title>R0</title>
<g id="a_node2"><a xlink:href="0.svg" xlink:title="R0">
<polygon fill="cornsilk" stroke="none" points="76,-262.15 18,-262.15 18,-215.15 76,-215.15 76,-262.15"/>
<text text-anchor="middle" x="47" y="-230.15" font-family="Times New Roman,serif" font-size="35.00">R0</text>
</a>
</g>
</g>
<!-- R0&#45;&gt;R324 -->
<g id="edge1" class="edge">
<title>R0&#45;&gt;R324</title>
<path fill="none" stroke="black" stroke-width="3" d="M75.75,-244.82C159.96,-262.04 417.77,-303.48 597,-210.65 612.99,-202.37 625.81,-187.13 635.04,-172.98"/>
<polygon fill="black" stroke="black" stroke-width="3" points="636.35,-177.28 638.59,-166.93 630.38,-173.63 636.35,-177.28"/>
<text text-anchor="middle" x="350" y="-277.65" font-family="Times New Roman,serif" font-size="30.00"> &#160;&#160;548 &#160;&#160;50% &#160;&#160;4.67e&#45;08 mol/s &#160;&#160;&#160;1.00E+00</text>
</g>
<!-- R314 -->
<g id="node3" class="node">
<title>R314</title>
<g id="a_node3"><a xlink:href="314.svg" xlink:title="R314">
<polygon fill="cornsilk" stroke="none" points="94,-197.15 0,-197.15 0,-150.15 94,-150.15 94,-197.15"/>
<text text-anchor="middle" x="47" y="-165.15" font-family="Times New Roman,serif" font-size="35.00">R314</text>
</a>
</g>
</g>
<!-- R314&#45;&gt;R324 -->
<g id="edge2" class="edge">
<title>R314&#45;&gt;R324</title>
<path fill="none" stroke="black" stroke-width="3" d="M93.74,-174.24C186.41,-174.91 403.12,-173.84 595.3,-151.66"/>
<polygon fill="black" stroke="black" stroke-width="3" points="592.65,-155.02 602.17,-150.38 591.83,-148.07 592.65,-155.02"/>
<text text-anchor="middle" x="350" y="-182.65" font-family="Times New Roman,serif" font-size="30.00"> &#160;&#160;548 &#160;&#160;50% &#160;&#160;4.67e&#45;08 mol/s &#160;&#160;&#160;1.00E+00</text>
</g>
<!-- R109 -->
<g id="node4" class="node">
<title>R109</title>
<g id="a_node4"><a xlink:href="109.svg" xlink:title="R109">
<polygon fill="cornsilk" stroke="none" points="94,-132.15 0,-132.15 0,-85.15 94,-85.15 94,-132.15"/>
<text text-anchor="middle" x="47" y="-100.15" font-family="Times New Roman,serif" font-size="35.00">R109</text>
</a>
</g>
</g>
<!-- R109&#45;&gt;R324 -->
<g id="edge3" class="edge">
<title>R109&#45;&gt;R324</title>
<path fill="none" stroke="black" stroke-width="3" d="M93.79,-103.98C187,-95.64 405.32,-82.11 595.41,-118.78"/>
<polygon fill="black" stroke="black" stroke-width="3" points="591.67,-122.4 602.16,-120.91 593.03,-115.53 591.67,-122.4"/>
<text text-anchor="middle" x="350" y="-127.65" font-family="Times New Roman,serif" font-size="30.00"> &#160;&#160;613 &#160;&#160;50% &#160;&#160;4.67e&#45;08 mol/s &#160;&#160;&#160;1.00E+00</text>
</g>
<!-- R2 -->
<g id="node5" class="node">
<title>R2</title>
<g id="a_node5"><a xlink:href="2.svg" xlink:title="R2">
<polygon fill="cornsilk" stroke="none" points="76,-67.15 18,-67.15 18,-20.15 76,-20.15 76,-67.15"/>
<text text-anchor="middle" x="47" y="-35.15" font-family="Times New Roman,serif" font-size="35.00">R2</text>
</a>
</g>
</g>
<!-- R2&#45;&gt;R324 -->
<g id="edge4" class="edge">
<title>R2&#45;&gt;R324</title>
<path fill="none" stroke="black" stroke-width="3" d="M75.72,-35.89C160.39,-13.85 420.55,41.44 597,-56.65 616.8,-67.66 630.67,-89.13 639.53,-107.61"/>
<polygon fill="black" stroke="black" stroke-width="3" points="635.66,-105.78 642.94,-113.48 642.05,-102.93 635.66,-105.78"/>
<text text-anchor="middle" x="350" y="-65.65" font-family="Times New Roman,serif" font-size="30.00"> &#160;&#160;613 &#160;&#160;50% &#160;&#160;4.67e&#45;08 mol/s &#160;&#160;&#160;1.00E+00</text>
</g>
</g>
</svg>
