<?xml version="1.0" encoding="UTF-8" standalone="no"?>
<!DOCTYPE svg PUBLIC "-//W3C//DTD SVG 1.1//EN"
 "http://www.w3.org/Graphics/SVG/1.1/DTD/svg11.dtd">
<!-- Generated by graphviz version 8.0.3 (20230416.2022)
 -->
<!-- Title: G Pages: 1 -->
<svg width="595pt" height="158pt"
 viewBox="0.00 0.00 669.00 177.50" xmlns="http://www.w3.org/2000/svg" xmlns:xlink="http://www.w3.org/1999/xlink">
<g id="graph0" class="graph" transform="scale(0.888889 0.888889) rotate(0) translate(4 173.5)">
<title>G</title>
<polygon fill="white" stroke="none" points="-4,4 -4,-173.5 665,-173.5 665,4 -4,4"/>
<text text-anchor="middle" x="330.5" y="-136.7" font-family="Arial" font-size="36.00" fill="blue">Reaction Path Analysis</text>
<!-- R327 -->
<g id="node1" class="node">
<title>R327</title>
<g id="a_node1"><a xlink:href="327.svg" xlink:title="R327">
<polygon fill="cornsilk" stroke="none" points="94,-79 0,-79 0,-32 94,-32 94,-79"/>
<text text-anchor="middle" x="47" y="-47" font-family="Times New Roman,serif" font-size="35.00">R327</text>
</a>
</g>
</g>
<!-- R93 -->
<g id="node2" class="node">
<title>R93</title>
<g id="a_node2"><a xlink:href="93.svg" xlink:title="R93">
<polygon fill="cornsilk" stroke="none" points="661,-112 585,-112 585,-65 661,-65 661,-112"/>
<text text-anchor="middle" x="623" y="-80" font-family="Times New Roman,serif" font-size="35.00">R93</text>
</a>
</g>
</g>
<!-- R327&#45;&gt;R93 -->
<g id="edge1" class="edge">
<title>R327&#45;&gt;R93</title>
<path fill="none" stroke="black" stroke-width="6" d="M93.83,-65.22C96.93,-65.7 100,-66.14 103,-66.5 269.58,-86.57 468.15,-89.09 564.24,-88.96"/>
<polygon fill="black" stroke="black" stroke-width="6" points="559.06,-99.46 579.03,-88.89 558.99,-78.46 559.06,-99.46"/>
<text text-anchor="middle" x="335" y="-97.5" font-family="Times New Roman,serif" font-size="30.00"> &#160;&#160;551 &#160;&#160;100% &#160;&#160;0.679 mol/s &#160;&#160;&#160;4.57E&#45;02</text>
</g>
<!-- R1 -->
<g id="node3" class="node">
<title>R1</title>
<g id="a_node3"><a xlink:href="1.svg" xlink:title="R1">
<polygon fill="cornsilk" stroke="none" points="652,-47 594,-47 594,0 652,0 652,-47"/>
<text text-anchor="middle" x="623" y="-15" font-family="Times New Roman,serif" font-size="35.00">R1</text>
</a>
</g>
</g>
<!-- R327&#45;&gt;R1 -->
<g id="edge2" class="edge">
<title>R327&#45;&gt;R1</title>
<path fill="none" stroke="black" stroke-width="6" d="M93.84,-35.77C96.91,-34.88 99.98,-34.11 103,-33.5 272.95,0.93 480.63,-10.75 573.3,-18.67"/>
<polygon fill="black" stroke="black" stroke-width="6" points="567.18,-29.2 588.05,-20.55 569.08,-8.29 567.18,-29.2"/>
<text text-anchor="middle" x="335" y="-42.5" font-family="Times New Roman,serif" font-size="30.00"> &#160;&#160;551 &#160;&#160;100% &#160;&#160;0.679 mol/s &#160;&#160;&#160;4.57E&#45;02</text>
</g>
</g>
</svg>
