<?xml version="1.0" encoding="UTF-8" standalone="no"?>
<!DOCTYPE svg PUBLIC "-//W3C//DTD SVG 1.1//EN"
 "http://www.w3.org/Graphics/SVG/1.1/DTD/svg11.dtd">
<!-- Generated by graphviz version 8.0.3 (20230416.2022)
 -->
<!-- Title: G Pages: 1 -->
<svg width="616pt" height="158pt"
 viewBox="0.00 0.00 693.00 177.50" xmlns="http://www.w3.org/2000/svg" xmlns:xlink="http://www.w3.org/1999/xlink">
<g id="graph0" class="graph" transform="scale(0.888889 0.888889) rotate(0) translate(4 173.5)">
<title>G</title>
<polygon fill="white" stroke="none" points="-4,4 -4,-173.5 689,-173.5 689,4 -4,4"/>
<text text-anchor="middle" x="342.5" y="-136.7" font-family="Arial" font-size="36.00" fill="blue">Reaction Path Analysis</text>
<!-- R331 -->
<g id="node1" class="node">
<title>R331</title>
<g id="a_node1"><a xlink:href="331.svg" xlink:title="R331">
<polygon fill="cornsilk" stroke="none" points="94,-79 0,-79 0,-32 94,-32 94,-79"/>
<text text-anchor="middle" x="47" y="-47" font-family="Times New Roman,serif" font-size="35.00">R331</text>
</a>
</g>
</g>
<!-- R105 -->
<g id="node2" class="node">
<title>R105</title>
<g id="a_node2"><a xlink:href="105.svg" xlink:title="R105">
<polygon fill="cornsilk" stroke="none" points="685,-112 591,-112 591,-65 685,-65 685,-112"/>
<text text-anchor="middle" x="638" y="-80" font-family="Times New Roman,serif" font-size="35.00">R105</text>
</a>
</g>
</g>
<!-- R331&#45;&gt;R105 -->
<g id="edge1" class="edge">
<title>R331&#45;&gt;R105</title>
<path fill="none" stroke="black" stroke-width="6" d="M93.83,-65.22C96.92,-65.71 100,-66.14 103,-66.5 270.19,-86.54 468.7,-89.22 570.1,-89.09"/>
<polygon fill="black" stroke="black" stroke-width="6" points="565.13,-99.58 585.09,-89.02 565.06,-78.58 565.13,-99.58"/>
<text text-anchor="middle" x="342.5" y="-97.5" font-family="Times New Roman,serif" font-size="30.00"> &#160;&#160;555 &#160;&#160;100% &#160;&#160;0.0564 mol/s &#160;&#160;&#160;2.74E&#45;01</text>
</g>
<!-- R1 -->
<g id="node3" class="node">
<title>R1</title>
<g id="a_node3"><a xlink:href="1.svg" xlink:title="R1">
<polygon fill="cornsilk" stroke="none" points="667,-47 609,-47 609,0 667,0 667,-47"/>
<text text-anchor="middle" x="638" y="-15" font-family="Times New Roman,serif" font-size="35.00">R1</text>
</a>
</g>
</g>
<!-- R331&#45;&gt;R1 -->
<g id="edge2" class="edge">
<title>R331&#45;&gt;R1</title>
<path fill="none" stroke="black" stroke-width="6" d="M93.84,-35.77C96.91,-34.88 99.98,-34.11 103,-33.5 278.69,2.04 493.54,-10.39 588.22,-18.61"/>
<polygon fill="black" stroke="black" stroke-width="6" points="582.23,-29.16 603.11,-20.53 584.15,-8.24 582.23,-29.16"/>
<text text-anchor="middle" x="342.5" y="-42.5" font-family="Times New Roman,serif" font-size="30.00"> &#160;&#160;555 &#160;&#160;100% &#160;&#160;0.0564 mol/s &#160;&#160;&#160;2.74E&#45;01</text>
</g>
</g>
</svg>
