<?xml version="1.0" encoding="UTF-8" standalone="no"?>
<!DOCTYPE svg PUBLIC "-//W3C//DTD SVG 1.1//EN"
 "http://www.w3.org/Graphics/SVG/1.1/DTD/svg11.dtd">
<!-- Generated by graphviz version 8.0.3 (20230416.2022)
 -->
<!-- Title: G Pages: 1 -->
<svg width="616pt" height="158pt"
 viewBox="0.00 0.00 693.00 177.50" xmlns="http://www.w3.org/2000/svg" xmlns:xlink="http://www.w3.org/1999/xlink">
<g id="graph0" class="graph" transform="scale(0.888889 0.888889) rotate(0) translate(4 173.5)">
<title>G</title>
<polygon fill="white" stroke="none" points="-4,4 -4,-173.5 689,-173.5 689,4 -4,4"/>
<text text-anchor="middle" x="342.5" y="-136.7" font-family="Arial" font-size="36.00" fill="blue">Reaction Path Analysis</text>
<!-- R339 -->
<g id="node1" class="node">
<title>R339</title>
<g id="a_node1"><a xlink:href="339.svg" xlink:title="R339">
<polygon fill="cornsilk" stroke="none" points="685,-79 591,-79 591,-32 685,-32 685,-79"/>
<text text-anchor="middle" x="638" y="-47" font-family="Times New Roman,serif" font-size="35.00">R339</text>
</a>
</g>
</g>
<!-- R121 -->
<g id="node2" class="node">
<title>R121</title>
<g id="a_node2"><a xlink:href="121.svg" xlink:title="R121">
<polygon fill="cornsilk" stroke="none" points="94,-112 0,-112 0,-65 94,-65 94,-112"/>
<text text-anchor="middle" x="47" y="-80" font-family="Times New Roman,serif" font-size="35.00">R121</text>
</a>
</g>
</g>
<!-- R121&#45;&gt;R339 -->
<g id="edge1" class="edge">
<title>R121&#45;&gt;R339</title>
<path fill="none" stroke="black" stroke-width="6" d="M93.91,-89.02C183.16,-89.51 386.71,-88.14 570.32,-67.64"/>
<polygon fill="black" stroke="black" stroke-width="6" points="566.52,-77.96 585.17,-65.22 564.09,-57.1 566.52,-77.96"/>
<text text-anchor="middle" x="342.5" y="-97.5" font-family="Times New Roman,serif" font-size="30.00"> &#160;&#160;570 &#160;&#160;100% &#160;&#160;0.0194 mol/s &#160;&#160;&#160;6.98E&#45;01</text>
</g>
<!-- R1 -->
<g id="node3" class="node">
<title>R1</title>
<g id="a_node3"><a xlink:href="1.svg" xlink:title="R1">
<polygon fill="cornsilk" stroke="none" points="76,-47 18,-47 18,0 76,0 76,-47"/>
<text text-anchor="middle" x="47" y="-15" font-family="Times New Roman,serif" font-size="35.00">R1</text>
</a>
</g>
</g>
<!-- R1&#45;&gt;R339 -->
<g id="edge2" class="edge">
<title>R1&#45;&gt;R339</title>
<path fill="none" stroke="black" stroke-width="6" d="M75.89,-20.53C153.04,-13.03 375.87,3.77 570.6,-31.79"/>
<polygon fill="black" stroke="black" stroke-width="6" points="563.53,-41.28 585.16,-34.77 567.52,-20.66 563.53,-41.28"/>
<text text-anchor="middle" x="342.5" y="-42.5" font-family="Times New Roman,serif" font-size="30.00"> &#160;&#160;570 &#160;&#160;100% &#160;&#160;0.0194 mol/s &#160;&#160;&#160;6.98E&#45;01</text>
</g>
</g>
</svg>
