<?xml version="1.0" encoding="UTF-8" standalone="no"?>
<!DOCTYPE svg PUBLIC "-//W3C//DTD SVG 1.1//EN"
 "http://www.w3.org/Graphics/SVG/1.1/DTD/svg11.dtd">
<!-- Generated by graphviz version 8.0.3 (20230416.2022)
 -->
<!-- Title: G Pages: 1 -->
<svg width="640pt" height="169pt"
 viewBox="0.00 0.00 720.00 189.64" xmlns="http://www.w3.org/2000/svg" xmlns:xlink="http://www.w3.org/1999/xlink">
<g id="graph0" class="graph" transform="scale(0.479401 0.479401) rotate(0) translate(4 347.63)">
<title>G</title>
<polygon fill="white" stroke="none" points="-4,4 -4,-347.63 1331,-347.63 1331,4 -4,4"/>
<text text-anchor="middle" x="663.5" y="-310.83" font-family="Arial" font-size="36.00" fill="blue">Reaction Path Analysis</text>
<!-- R34 -->
<g id="node1" class="node">
<title>R34</title>
<g id="a_node1"><a xlink:href="34.svg" xlink:title="R34">
<polygon fill="cornsilk" stroke="none" points="697,-160.13 621,-160.13 621,-113.13 697,-113.13 697,-160.13"/>
<text text-anchor="middle" x="659" y="-128.13" font-family="Times New Roman,serif" font-size="35.00">R34</text>
</a>
</g>
</g>
<!-- R129 -->
<g id="node6" class="node">
<title>R129</title>
<g id="a_node6"><a xlink:href="129.svg" xlink:title="R129">
<polygon fill="cornsilk" stroke="none" points="1327,-160.13 1233,-160.13 1233,-113.13 1327,-113.13 1327,-160.13"/>
<text text-anchor="middle" x="1280" y="-128.13" font-family="Times New Roman,serif" font-size="35.00">R129</text>
</a>
</g>
</g>
<!-- R34&#45;&gt;R129 -->
<g id="edge5" class="edge">
<title>R34&#45;&gt;R129</title>
<path fill="none" stroke="black" stroke-width="6" d="M696.87,-136.63C798.24,-136.63 1082.23,-136.63 1212.35,-136.63"/>
<polygon fill="black" stroke="black" stroke-width="6" points="1207.33,-147.13 1227.33,-136.63 1207.33,-126.13 1207.33,-147.13"/>
<text text-anchor="middle" x="969.5" y="-145.63" font-family="Times New Roman,serif" font-size="30.00"> &#160;&#160;181 &#160;&#160;100% &#160;&#160;4.67e&#45;08 mol/s &#160;&#160;&#160;1.00E+00</text>
</g>
<!-- R6 -->
<g id="node2" class="node">
<title>R6</title>
<g id="a_node2"><a xlink:href="6.svg" xlink:title="R6">
<polygon fill="cornsilk" stroke="none" points="67,-258.13 9,-258.13 9,-211.13 67,-211.13 67,-258.13"/>
<text text-anchor="middle" x="38" y="-226.13" font-family="Times New Roman,serif" font-size="35.00">R6</text>
</a>
</g>
</g>
<!-- R6&#45;&gt;R34 -->
<g id="edge1" class="edge">
<title>R6&#45;&gt;R34</title>
<path fill="none" stroke="black" stroke-width="3" d="M66.87,-240.39C151.49,-256.43 410.92,-294.9 595.5,-206.63 612.78,-198.36 627.38,-182.92 638.1,-168.64"/>
<polygon fill="black" stroke="black" stroke-width="3" points="639.33,-173.15 642.27,-162.97 633.62,-169.09 639.33,-173.15"/>
<text text-anchor="middle" x="348.5" y="-271.63" font-family="Times New Roman,serif" font-size="30.00"> &#160;&#160;39 &#160;&#160;50% &#160;&#160;4.67e&#45;08 mol/s &#160;&#160;&#160;1.00E+00</text>
</g>
<!-- R2 -->
<g id="node3" class="node">
<title>R2</title>
<g id="a_node3"><a xlink:href="2.svg" xlink:title="R2">
<polygon fill="cornsilk" stroke="none" points="67,-193.13 9,-193.13 9,-146.13 67,-146.13 67,-193.13"/>
<text text-anchor="middle" x="38" y="-161.13" font-family="Times New Roman,serif" font-size="35.00">R2</text>
</a>
</g>
</g>
<!-- R2&#45;&gt;R34 -->
<g id="edge2" class="edge">
<title>R2&#45;&gt;R34</title>
<path fill="none" stroke="black" stroke-width="3" d="M66.89,-169.85C148.47,-170.22 393.61,-169.29 595.5,-147.63 600.31,-147.11 605.32,-146.45 610.3,-145.71"/>
<polygon fill="black" stroke="black" stroke-width="3" points="607.78,-149.01 617.1,-143.97 606.67,-142.1 607.78,-149.01"/>
<text text-anchor="middle" x="348.5" y="-178.63" font-family="Times New Roman,serif" font-size="30.00"> &#160;&#160;39 &#160;&#160;50% &#160;&#160;4.67e&#45;08 mol/s &#160;&#160;&#160;1.00E+00</text>
</g>
<!-- R0 -->
<g id="node4" class="node">
<title>R0</title>
<g id="a_node4"><a xlink:href="0.svg" xlink:title="R0">
<polygon fill="cornsilk" stroke="none" points="67,-128.13 9,-128.13 9,-81.13 67,-81.13 67,-128.13"/>
<text text-anchor="middle" x="38" y="-96.13" font-family="Times New Roman,serif" font-size="35.00">R0</text>
</a>
</g>
</g>
<!-- R0&#45;&gt;R34 -->
<g id="edge3" class="edge">
<title>R0&#45;&gt;R34</title>
<path fill="none" stroke="black" stroke-width="3" d="M66.81,-102.02C148.67,-95.01 395.55,-78.61 595.5,-114.63 600.54,-115.54 605.72,-116.8 610.84,-118.25"/>
<polygon fill="black" stroke="black" stroke-width="3" points="606.59,-120.84 617.18,-120.48 608.68,-114.16 606.59,-120.84"/>
<text text-anchor="middle" x="348.5" y="-123.63" font-family="Times New Roman,serif" font-size="30.00"> &#160;&#160;106 &#160;&#160;50% &#160;&#160;4.67e&#45;08 mol/s &#160;&#160;&#160;1.00E+00</text>
</g>
<!-- R19 -->
<g id="node5" class="node">
<title>R19</title>
<g id="a_node5"><a xlink:href="19.svg" xlink:title="R19">
<polygon fill="cornsilk" stroke="none" points="76,-63.13 0,-63.13 0,-16.13 76,-16.13 76,-63.13"/>
<text text-anchor="middle" x="38" y="-31.13" font-family="Times New Roman,serif" font-size="35.00">R19</text>
</a>
</g>
</g>
<!-- R19&#45;&gt;R34 -->
<g id="edge4" class="edge">
<title>R19&#45;&gt;R34</title>
<path fill="none" stroke="black" stroke-width="3" d="M75.8,-30.35C168.99,-8.92 419.36,35.56 595.5,-54.63 615.93,-65.09 631.58,-85.65 642.11,-103.57"/>
<polygon fill="black" stroke="black" stroke-width="3" points="637.52,-103.12 645.43,-110.17 643.64,-99.72 637.52,-103.12"/>
<text text-anchor="middle" x="348.5" y="-63.63" font-family="Times New Roman,serif" font-size="30.00"> &#160;&#160;106 &#160;&#160;50% &#160;&#160;4.67e&#45;08 mol/s &#160;&#160;&#160;1.00E+00</text>
</g>
</g>
</svg>
