<?xml version="1.0" encoding="UTF-8" standalone="no"?>
<!DOCTYPE svg PUBLIC "-//W3C//DTD SVG 1.1//EN"
 "http://www.w3.org/Graphics/SVG/1.1/DTD/svg11.dtd">
<!-- Generated by graphviz version 8.0.3 (20230416.2022)
 -->
<!-- Title: G Pages: 1 -->
<svg width="640pt" height="106pt"
 viewBox="0.00 0.00 720.00 119.80" xmlns="http://www.w3.org/2000/svg" xmlns:xlink="http://www.w3.org/1999/xlink">
<g id="graph0" class="graph" transform="scale(0.426809 0.426809) rotate(0) translate(4 245.5)">
<title>G</title>
<polygon fill="white" stroke="none" points="-4,4 -4,-245.5 1495.5,-245.5 1495.5,4 -4,4"/>
<text text-anchor="middle" x="745.75" y="-208.7" font-family="Arial" font-size="36.00" fill="blue">Reaction Path Analysis</text>
<!-- CHCO(S) -->
<g id="node1" class="node">
<title>CHCO(S)</title>
<g id="a_node1"><a xlink:href="34.svg" xlink:title="CHCO(S)">
<polygon fill="springgreen" stroke="none" points="835,-112 678,-112 678,-65 835,-65 835,-112"/>
<text text-anchor="middle" x="756.5" y="-80" font-family="Times New Roman,serif" font-size="35.00">CHCO(S)</text>
</a>
</g>
</g>
<!-- CCO(S) -->
<g id="node3" class="node">
<title>CCO(S)</title>
<g id="a_node3"><a xlink:href="37.svg" xlink:title="CCO(S)">
<polygon fill="dodgerblue" stroke="none" points="1491.5,-177 1359.5,-177 1359.5,-130 1491.5,-130 1491.5,-177"/>
<text text-anchor="middle" x="1425.5" y="-145" font-family="Times New Roman,serif" font-size="35.00">CCO(S)</text>
</a>
</g>
</g>
<!-- CHCO(S)&#45;&gt;CCO(S) -->
<g id="edge2" class="edge">
<title>CHCO(S)&#45;&gt;CCO(S)</title>
<path fill="none" stroke="black" d="M804.07,-112C816.72,-117.38 830.63,-122.42 844,-125.5 1021.47,-166.34 1237.25,-163.51 1349.1,-158.29"/>
<polygon fill="black" stroke="black" points="1349.11,-161.74 1358.92,-157.76 1348.76,-154.75 1349.11,-161.74"/>
<text text-anchor="middle" x="1091" y="-169.5" font-family="Times New Roman,serif" font-size="30.00"> &#160;&#160;54 &#160;&#160;0% &#160;&#160;2.07e&#45;09 mol/s &#160;&#160;&#160;9.99E&#45;01</text>
</g>
<!-- CH(S) -->
<g id="node4" class="node">
<title>CH(S)</title>
<g id="a_node4"><a xlink:href="57.svg" xlink:title="CH(S)">
<polygon fill="springgreen" stroke="none" points="1479.5,-112 1371.5,-112 1371.5,-65 1479.5,-65 1479.5,-112"/>
<text text-anchor="middle" x="1425.5" y="-80" font-family="Times New Roman,serif" font-size="35.00">CH(S)</text>
</a>
</g>
</g>
<!-- CHCO(S)&#45;&gt;CH(S) -->
<g id="edge3" class="edge">
<title>CHCO(S)&#45;&gt;CH(S)</title>
<path fill="none" stroke="black" stroke-width="5" d="M834.99,-88.5C964.8,-88.5 1224.4,-88.5 1351.29,-88.5"/>
<polygon fill="black" stroke="black" stroke-width="5" points="1345.93,-97.25 1365.93,-88.5 1345.93,-79.75 1345.93,-97.25"/>
<text text-anchor="middle" x="1091" y="-97.5" font-family="Times New Roman,serif" font-size="30.00"> &#160;&#160;105 &#160;&#160;99% &#160;&#160;5.42e&#45;06 mol/s &#160;&#160;&#160;1.00E+00</text>
</g>
<!-- CO(S) -->
<g id="node5" class="node">
<title>CO(S)</title>
<g id="a_node5"><a xlink:href="54.svg" xlink:title="CO(S)">
<polygon fill="orange" stroke="none" points="1480,-47 1371,-47 1371,0 1480,0 1480,-47"/>
<text text-anchor="middle" x="1425.5" y="-15" font-family="Times New Roman,serif" font-size="35.00">CO(S)</text>
</a>
</g>
</g>
<!-- CHCO(S)&#45;&gt;CO(S) -->
<g id="edge4" class="edge">
<title>CHCO(S)&#45;&gt;CO(S)</title>
<path fill="none" stroke="black" stroke-width="5" d="M804.07,-65C816.72,-59.62 830.63,-54.58 844,-51.5 1022.14,-10.5 1238.88,-13.51 1350.36,-18.77"/>
<polygon fill="black" stroke="black" stroke-width="5" points="1344.79,-27.55 1365.22,-19.84 1345.69,-10.08 1344.79,-27.55"/>
<text text-anchor="middle" x="1091" y="-60.5" font-family="Times New Roman,serif" font-size="30.00"> &#160;&#160;105 &#160;&#160;99% &#160;&#160;5.42e&#45;06 mol/s &#160;&#160;&#160;1.00E+00</text>
</g>
<!-- CH2CO(S) -->
<g id="node2" class="node">
<title>CH2CO(S)</title>
<g id="a_node2"><a xlink:href="31.svg" xlink:title="CH2CO(S)">
<polygon fill="springgreen" stroke="none" points="175,-112 0,-112 0,-65 175,-65 175,-112"/>
<text text-anchor="middle" x="87.5" y="-80" font-family="Times New Roman,serif" font-size="35.00">CH2CO(S)</text>
</a>
</g>
</g>
<!-- CH2CO(S)&#45;&gt;CHCO(S) -->
<g id="edge1" class="edge">
<title>CH2CO(S)&#45;&gt;CHCO(S)</title>
<path fill="none" stroke="green" stroke-width="6" d="M174.67,-88.5C298.69,-88.5 526.87,-88.5 657.27,-88.5"/>
<polygon fill="green" stroke="green" stroke-width="6" points="652.1,-99 672.1,-88.5 652.1,-78 652.1,-99"/>
<text text-anchor="middle" x="422" y="-97.5" font-family="Times New Roman,serif" font-size="30.00"> &#160;&#160;51 &#160;&#160;100% &#160;&#160;5.4e&#45;06 mol/s &#160;&#160;&#160;5.18E&#45;01</text>
</g>
</g>
</svg>
