<?xml version="1.0" encoding="UTF-8" standalone="no"?>
<!DOCTYPE svg PUBLIC "-//W3C//DTD SVG 1.1//EN"
 "http://www.w3.org/Graphics/SVG/1.1/DTD/svg11.dtd">
<!-- Generated by graphviz version 8.0.3 (20230416.2022)
 -->
<!-- Title: G Pages: 1 -->
<svg width="610pt" height="385pt"
 viewBox="0.00 0.00 686.00 432.80" xmlns="http://www.w3.org/2000/svg" xmlns:xlink="http://www.w3.org/1999/xlink">
<g id="graph0" class="graph" transform="scale(0.888889 0.888889) rotate(0) translate(4 428.8)">
<title>G</title>
<polygon fill="white" stroke="none" points="-4,4 -4,-428.8 682,-428.8 682,4 -4,4"/>
<text text-anchor="middle" x="339" y="-392" font-family="Arial" font-size="36.00" fill="blue">Reaction Path Analysis</text>
<!-- R344 -->
<g id="node1" class="node">
<title>R344</title>
<g id="a_node1"><a xlink:href="344.svg" xlink:title="R344">
<polygon fill="cornsilk" stroke="none" points="678,-201.3 584,-201.3 584,-154.3 678,-154.3 678,-201.3"/>
<text text-anchor="middle" x="631" y="-169.3" font-family="Times New Roman,serif" font-size="35.00">R344</text>
</a>
</g>
</g>
<!-- R1 -->
<g id="node2" class="node">
<title>R1</title>
<g id="a_node2"><a xlink:href="1.svg" xlink:title="R1">
<polygon fill="cornsilk" stroke="none" points="76,-331.3 18,-331.3 18,-284.3 76,-284.3 76,-331.3"/>
<text text-anchor="middle" x="47" y="-299.3" font-family="Times New Roman,serif" font-size="35.00">R1</text>
</a>
</g>
</g>
<!-- R1&#45;&gt;R344 -->
<g id="edge1" class="edge">
<title>R1&#45;&gt;R344</title>
<path fill="none" stroke="black" stroke-width="3" d="M75.7,-315.13C159.02,-335.46 411.62,-384.55 575,-280.8 599.34,-265.35 613.61,-235.28 621.49,-211.6"/>
<polygon fill="black" stroke="black" stroke-width="3" points="624.08,-215.83 623.67,-205.25 617.39,-213.78 624.08,-215.83"/>
<text text-anchor="middle" x="339" y="-352.8" font-family="Times New Roman,serif" font-size="30.00"> &#160;&#160;579 &#160;&#160;48% &#160;&#160;0.0342 mol/s &#160;&#160;&#160;1.00E+00</text>
</g>
<!-- R130 -->
<g id="node3" class="node">
<title>R130</title>
<g id="a_node3"><a xlink:href="130.svg" xlink:title="R130">
<polygon fill="cornsilk" stroke="none" points="94,-266.3 0,-266.3 0,-219.3 94,-219.3 94,-266.3"/>
<text text-anchor="middle" x="47" y="-234.3" font-family="Times New Roman,serif" font-size="35.00">R130</text>
</a>
</g>
</g>
<!-- R130&#45;&gt;R344 -->
<g id="edge2" class="edge">
<title>R130&#45;&gt;R344</title>
<path fill="none" stroke="black" stroke-width="3" d="M93.84,-243.48C205.03,-244.62 486.48,-244.4 575,-214.8 580.94,-212.82 586.85,-210 592.46,-206.8"/>
<polygon fill="black" stroke="black" stroke-width="3" points="591.94,-211.38 598.58,-203.12 588.24,-205.43 591.94,-211.38"/>
<text text-anchor="middle" x="339" y="-252.8" font-family="Times New Roman,serif" font-size="30.00"> &#160;&#160;579 &#160;&#160;48% &#160;&#160;0.0342 mol/s &#160;&#160;&#160;1.00E+00</text>
</g>
<!-- R2 -->
<g id="node4" class="node">
<title>R2</title>
<g id="a_node4"><a xlink:href="2.svg" xlink:title="R2">
<polygon fill="cornsilk" stroke="none" points="76,-201.3 18,-201.3 18,-154.3 76,-154.3 76,-201.3"/>
<text text-anchor="middle" x="47" y="-169.3" font-family="Times New Roman,serif" font-size="35.00">R2</text>
</a>
</g>
</g>
<!-- R2&#45;&gt;R344 -->
<g id="edge3" class="edge">
<title>R2&#45;&gt;R344</title>
<path fill="none" stroke="black" stroke-width="3" d="M75.68,-177.8C165.61,-177.8 450.78,-177.8 573.23,-177.8"/>
<polygon fill="black" stroke="black" stroke-width="3" points="570.22,-181.3 580.22,-177.8 570.22,-174.3 570.22,-181.3"/>
<text text-anchor="middle" x="339" y="-186.8" font-family="Times New Roman,serif" font-size="30.00"> &#160;&#160;616 &#160;&#160;48% &#160;&#160;0.0342 mol/s &#160;&#160;&#160;1.00E+00</text>
</g>
<!-- R117 -->
<g id="node5" class="node">
<title>R117</title>
<g id="a_node5"><a xlink:href="117.svg" xlink:title="R117">
<polygon fill="cornsilk" stroke="none" points="94,-136.3 0,-136.3 0,-89.3 94,-89.3 94,-136.3"/>
<text text-anchor="middle" x="47" y="-104.3" font-family="Times New Roman,serif" font-size="35.00">R117</text>
</a>
</g>
</g>
<!-- R117&#45;&gt;R344 -->
<g id="edge4" class="edge">
<title>R117&#45;&gt;R344</title>
<path fill="none" stroke="black" stroke-width="3" d="M93.92,-107.24C187.36,-97.63 405.12,-84.01 575,-140.8 580.94,-142.79 586.85,-145.61 592.46,-148.81"/>
<polygon fill="black" stroke="black" stroke-width="3" points="588.24,-150.17 598.58,-152.48 591.94,-144.23 588.24,-150.17"/>
<text text-anchor="middle" x="339" y="-149.8" font-family="Times New Roman,serif" font-size="30.00"> &#160;&#160;616 &#160;&#160;48% &#160;&#160;0.0342 mol/s &#160;&#160;&#160;1.00E+00</text>
</g>
<!-- R285 -->
<g id="node6" class="node">
<title>R285</title>
<g id="a_node6"><a xlink:href="285.svg" xlink:title="R285">
<polygon fill="cornsilk" stroke="none" points="94,-71.3 0,-71.3 0,-24.3 94,-24.3 94,-71.3"/>
<text text-anchor="middle" x="47" y="-39.3" font-family="Times New Roman,serif" font-size="35.00">R285</text>
</a>
</g>
</g>
<!-- R285&#45;&gt;R344 -->
<g id="edge5" class="edge">
<title>R285&#45;&gt;R344</title>
<path fill="none" stroke="black" d="M93.89,-34.16C191.56,-8.05 423.42,38.08 575,-60.8 603.38,-79.32 617.41,-116.68 624.15,-144.23"/>
<polygon fill="black" stroke="black" points="620.88,-144.61 626.47,-153.61 627.71,-143.09 620.88,-144.61"/>
<text text-anchor="middle" x="339" y="-69.8" font-family="Times New Roman,serif" font-size="30.00"> &#160;&#160;768 &#160;&#160;3% &#160;&#160;0.00272 mol/s &#160;&#160;&#160;1.00E+00</text>
</g>
</g>
</svg>
