<?xml version="1.0" encoding="UTF-8" standalone="no"?>
<!DOCTYPE svg PUBLIC "-//W3C//DTD SVG 1.1//EN"
 "http://www.w3.org/Graphics/SVG/1.1/DTD/svg11.dtd">
<!-- Generated by graphviz version 8.0.3 (20230416.2022)
 -->
<!-- Title: G Pages: 1 -->
<svg width="636pt" height="158pt"
 viewBox="0.00 0.00 716.00 177.50" xmlns="http://www.w3.org/2000/svg" xmlns:xlink="http://www.w3.org/1999/xlink">
<g id="graph0" class="graph" transform="scale(0.888889 0.888889) rotate(0) translate(4 173.5)">
<title>G</title>
<polygon fill="white" stroke="none" points="-4,4 -4,-173.5 712,-173.5 712,4 -4,4"/>
<text text-anchor="middle" x="354" y="-136.7" font-family="Arial" font-size="36.00" fill="blue">Reaction Path Analysis</text>
<!-- R345 -->
<g id="node1" class="node">
<title>R345</title>
<g id="a_node1"><a xlink:href="345.svg" xlink:title="R345">
<polygon fill="cornsilk" stroke="none" points="708,-79 614,-79 614,-32 708,-32 708,-79"/>
<text text-anchor="middle" x="661" y="-47" font-family="Times New Roman,serif" font-size="35.00">R345</text>
</a>
</g>
</g>
<!-- R130 -->
<g id="node2" class="node">
<title>R130</title>
<g id="a_node2"><a xlink:href="130.svg" xlink:title="R130">
<polygon fill="cornsilk" stroke="none" points="94,-112 0,-112 0,-65 94,-65 94,-112"/>
<text text-anchor="middle" x="47" y="-80" font-family="Times New Roman,serif" font-size="35.00">R130</text>
</a>
</g>
</g>
<!-- R130&#45;&gt;R345 -->
<g id="edge1" class="edge">
<title>R130&#45;&gt;R345</title>
<path fill="none" stroke="black" stroke-width="6" d="M93.68,-89.13C185.74,-89.88 400.58,-89.03 593.48,-67.62"/>
<polygon fill="black" stroke="black" stroke-width="6" points="589.51,-77.95 608.17,-65.23 587.1,-57.09 589.51,-77.95"/>
<text text-anchor="middle" x="354" y="-97.5" font-family="Times New Roman,serif" font-size="30.00"> &#160;&#160;580 &#160;&#160;100% &#160;&#160;3.52e&#45;08 mol/s &#160;&#160;&#160;8.02E&#45;01</text>
</g>
<!-- R1 -->
<g id="node3" class="node">
<title>R1</title>
<g id="a_node3"><a xlink:href="1.svg" xlink:title="R1">
<polygon fill="cornsilk" stroke="none" points="76,-47 18,-47 18,0 76,0 76,-47"/>
<text text-anchor="middle" x="47" y="-15" font-family="Times New Roman,serif" font-size="35.00">R1</text>
</a>
</g>
</g>
<!-- R1&#45;&gt;R345 -->
<g id="edge2" class="edge">
<title>R1&#45;&gt;R345</title>
<path fill="none" stroke="black" stroke-width="6" d="M75.91,-20.49C155.36,-12.64 389.65,5.51 593.58,-31.79"/>
<polygon fill="black" stroke="black" stroke-width="6" points="586.53,-41.28 608.16,-34.76 590.52,-20.66 586.53,-41.28"/>
<text text-anchor="middle" x="354" y="-42.5" font-family="Times New Roman,serif" font-size="30.00"> &#160;&#160;580 &#160;&#160;100% &#160;&#160;3.52e&#45;08 mol/s &#160;&#160;&#160;8.02E&#45;01</text>
</g>
</g>
</svg>
