<?xml version="1.0" encoding="UTF-8" standalone="no"?>
<!DOCTYPE svg PUBLIC "-//W3C//DTD SVG 1.1//EN"
 "http://www.w3.org/Graphics/SVG/1.1/DTD/svg11.dtd">
<!-- Generated by graphviz version 8.0.3 (20230416.2022)
 -->
<!-- Title: G Pages: 1 -->
<svg width="640pt" height="152pt"
 viewBox="0.00 0.00 720.00 170.68" xmlns="http://www.w3.org/2000/svg" xmlns:xlink="http://www.w3.org/1999/xlink">
<g id="graph0" class="graph" transform="scale(0.849934 0.849934) rotate(0) translate(4 174.5)">
<title>G</title>
<polygon fill="white" stroke="none" points="-4,4 -4,-174.5 749,-174.5 749,4 -4,4"/>
<text text-anchor="middle" x="372.5" y="-137.7" font-family="Arial" font-size="36.00" fill="blue">Reaction Path Analysis</text>
<!-- R345 -->
<g id="node1" class="node">
<title>R345</title>
<g id="a_node1"><a xlink:href="345.svg" xlink:title="R345">
<polygon fill="cornsilk" stroke="none" points="94,-79 0,-79 0,-32 94,-32 94,-79"/>
<text text-anchor="middle" x="47" y="-47" font-family="Times New Roman,serif" font-size="35.00">R345</text>
</a>
</g>
</g>
<!-- R130 -->
<g id="node2" class="node">
<title>R130</title>
<g id="a_node2"><a xlink:href="130.svg" xlink:title="R130">
<polygon fill="cornsilk" stroke="none" points="745,-112 651,-112 651,-65 745,-65 745,-112"/>
<text text-anchor="middle" x="698" y="-80" font-family="Times New Roman,serif" font-size="35.00">R130</text>
</a>
</g>
</g>
<!-- R345&#45;&gt;R130 -->
<g id="edge1" class="edge">
<title>R345&#45;&gt;R130</title>
<path fill="none" stroke="black" stroke-width="6" d="M93.83,-65.24C96.92,-65.72 100,-66.15 103,-66.5 293.52,-88.93 520.57,-90.39 630.63,-89.5"/>
<polygon fill="black" stroke="black" stroke-width="6" points="625.46,-99.99 645.35,-89.29 625.25,-78.99 625.46,-99.99"/>
<text text-anchor="middle" x="372.5" y="-98.5" font-family="Times New Roman,serif" font-size="30.00"> &#160;&#160;580 &#160;&#160;100% &#160;&#160;72600000.0 mol/s &#160;&#160;&#160;4.71E&#45;10</text>
</g>
<!-- R1 -->
<g id="node3" class="node">
<title>R1</title>
<g id="a_node3"><a xlink:href="1.svg" xlink:title="R1">
<polygon fill="cornsilk" stroke="none" points="727,-47 669,-47 669,0 727,0 727,-47"/>
<text text-anchor="middle" x="698" y="-15" font-family="Times New Roman,serif" font-size="35.00">R1</text>
</a>
</g>
</g>
<!-- R345&#45;&gt;R1 -->
<g id="edge2" class="edge">
<title>R345&#45;&gt;R1</title>
<path fill="none" stroke="black" stroke-width="6" d="M93.84,-35.76C96.9,-34.88 99.98,-34.11 103,-33.5 302.05,6.57 546.22,-9.07 648.41,-18.44"/>
<polygon fill="black" stroke="black" stroke-width="6" points="642.17,-28.96 663.08,-20.43 644.18,-8.06 642.17,-28.96"/>
<text text-anchor="middle" x="372.5" y="-42.5" font-family="Times New Roman,serif" font-size="30.00"> &#160;&#160;580 &#160;&#160;100% &#160;&#160;72600000.0 mol/s &#160;&#160;&#160;4.71E&#45;10</text>
</g>
</g>
</svg>
