<?xml version="1.0" encoding="UTF-8" standalone="no"?>
<!DOCTYPE svg PUBLIC "-//W3C//DTD SVG 1.1//EN"
 "http://www.w3.org/Graphics/SVG/1.1/DTD/svg11.dtd">
<!-- Generated by graphviz version 8.0.3 (20230416.2022)
 -->
<!-- Title: G Pages: 1 -->
<svg width="576pt" height="322pt"
 viewBox="0.00 0.00 648.00 362.64" xmlns="http://www.w3.org/2000/svg" xmlns:xlink="http://www.w3.org/1999/xlink">
<g id="graph0" class="graph" transform="scale(0.888889 0.888889) rotate(0) translate(4 358.64)">
<title>G</title>
<polygon fill="white" stroke="none" points="-4,4 -4,-358.64 644,-358.64 644,4 -4,4"/>
<text text-anchor="middle" x="320" y="-321.84" font-family="Arial" font-size="36.00" fill="blue">Reaction Path Analysis</text>
<!-- R36 -->
<g id="node1" class="node">
<title>R36</title>
<g id="a_node1"><a xlink:href="36.svg" xlink:title="R36">
<polygon fill="cornsilk" stroke="none" points="640,-167.14 564,-167.14 564,-120.14 640,-120.14 640,-167.14"/>
<text text-anchor="middle" x="602" y="-135.14" font-family="Times New Roman,serif" font-size="35.00">R36</text>
</a>
</g>
</g>
<!-- R2 -->
<g id="node2" class="node">
<title>R2</title>
<g id="a_node2"><a xlink:href="2.svg" xlink:title="R2">
<polygon fill="cornsilk" stroke="none" points="58,-265.14 0,-265.14 0,-218.14 58,-218.14 58,-265.14"/>
<text text-anchor="middle" x="29" y="-233.14" font-family="Times New Roman,serif" font-size="35.00">R2</text>
</a>
</g>
</g>
<!-- R2&#45;&gt;R36 -->
<g id="edge1" class="edge">
<title>R2&#45;&gt;R36</title>
<path fill="none" stroke="black" stroke-width="3" d="M57.8,-248.42C140.31,-266.94 388.43,-310.82 555,-214.64 569.67,-206.17 580.47,-190.91 587.89,-176.71"/>
<polygon fill="black" stroke="black" stroke-width="3" points="590.32,-181.66 591.5,-171.14 584.01,-178.63 590.32,-181.66"/>
<text text-anchor="middle" x="315.5" y="-282.64" font-family="Times New Roman,serif" font-size="30.00"> &#160;&#160;41 &#160;&#160;50% &#160;&#160;2.18e&#45;15 mol/s &#160;&#160;&#160;1.00E+00</text>
</g>
<!-- R8 -->
<g id="node3" class="node">
<title>R8</title>
<g id="a_node3"><a xlink:href="8.svg" xlink:title="R8">
<polygon fill="cornsilk" stroke="none" points="58,-200.14 0,-200.14 0,-153.14 58,-153.14 58,-200.14"/>
<text text-anchor="middle" x="29" y="-168.14" font-family="Times New Roman,serif" font-size="35.00">R8</text>
</a>
</g>
</g>
<!-- R8&#45;&gt;R36 -->
<g id="edge2" class="edge">
<title>R8&#45;&gt;R36</title>
<path fill="none" stroke="black" stroke-width="3" d="M57.78,-177.35C134.87,-178.93 358.12,-180.82 553.46,-154.58"/>
<polygon fill="black" stroke="black" stroke-width="3" points="550.78,-157.93 560.21,-153.1 549.83,-150.99 550.78,-157.93"/>
<text text-anchor="middle" x="315.5" y="-186.64" font-family="Times New Roman,serif" font-size="30.00"> &#160;&#160;41 &#160;&#160;50% &#160;&#160;2.18e&#45;15 mol/s &#160;&#160;&#160;1.00E+00</text>
</g>
<!-- R3 -->
<g id="node4" class="node">
<title>R3</title>
<g id="a_node4"><a xlink:href="3.svg" xlink:title="R3">
<polygon fill="cornsilk" stroke="none" points="58,-135.14 0,-135.14 0,-88.14 58,-88.14 58,-135.14"/>
<text text-anchor="middle" x="29" y="-103.14" font-family="Times New Roman,serif" font-size="35.00">R3</text>
</a>
</g>
</g>
<!-- R3&#45;&gt;R36 -->
<g id="edge3" class="edge">
<title>R3&#45;&gt;R36</title>
<path fill="none" stroke="black" stroke-width="3" d="M57.84,-108.09C135.57,-99.02 361.25,-78.49 553.51,-121.9"/>
<polygon fill="black" stroke="black" stroke-width="3" points="549.55,-124.5 560.09,-123.36 551.14,-117.68 549.55,-124.5"/>
<text text-anchor="middle" x="315.5" y="-130.64" font-family="Times New Roman,serif" font-size="30.00"> &#160;&#160;53 &#160;&#160;50% &#160;&#160;2.18e&#45;15 mol/s &#160;&#160;&#160;1.00E+00</text>
</g>
<!-- R6 -->
<g id="node5" class="node">
<title>R6</title>
<g id="a_node5"><a xlink:href="6.svg" xlink:title="R6">
<polygon fill="cornsilk" stroke="none" points="58,-70.14 0,-70.14 0,-23.14 58,-23.14 58,-70.14"/>
<text text-anchor="middle" x="29" y="-38.14" font-family="Times New Roman,serif" font-size="35.00">R6</text>
</a>
</g>
</g>
<!-- R6&#45;&gt;R36 -->
<g id="edge4" class="edge">
<title>R6&#45;&gt;R36</title>
<path fill="none" stroke="black" stroke-width="3" d="M57.76,-38.22C140.71,-14.8 391.04,42.95 555,-57.64 573.79,-69.17 585.36,-91.21 592.2,-110.09"/>
<polygon fill="black" stroke="black" stroke-width="3" points="588.16,-108.05 594.62,-116.45 594.81,-105.86 588.16,-108.05"/>
<text text-anchor="middle" x="315.5" y="-66.64" font-family="Times New Roman,serif" font-size="30.00"> &#160;&#160;53 &#160;&#160;50% &#160;&#160;2.18e&#45;15 mol/s &#160;&#160;&#160;1.00E+00</text>
</g>
</g>
</svg>
