<?xml version="1.0" encoding="UTF-8" standalone="no"?>
<!DOCTYPE svg PUBLIC "-//W3C//DTD SVG 1.1//EN"
 "http://www.w3.org/Graphics/SVG/1.1/DTD/svg11.dtd">
<!-- Generated by graphviz version 8.0.3 (20230416.2022)
 -->
<!-- Title: G Pages: 1 -->
<svg width="608pt" height="158pt"
 viewBox="0.00 0.00 684.00 177.50" xmlns="http://www.w3.org/2000/svg" xmlns:xlink="http://www.w3.org/1999/xlink">
<g id="graph0" class="graph" transform="scale(0.888889 0.888889) rotate(0) translate(4 173.5)">
<title>G</title>
<polygon fill="white" stroke="none" points="-4,4 -4,-173.5 680,-173.5 680,4 -4,4"/>
<text text-anchor="middle" x="338" y="-136.7" font-family="Arial" font-size="36.00" fill="blue">Reaction Path Analysis</text>
<!-- R362 -->
<g id="node1" class="node">
<title>R362</title>
<g id="a_node1"><a xlink:href="362.svg" xlink:title="R362">
<polygon fill="cornsilk" stroke="none" points="94,-79 0,-79 0,-32 94,-32 94,-79"/>
<text text-anchor="middle" x="47" y="-47" font-family="Times New Roman,serif" font-size="35.00">R362</text>
</a>
</g>
</g>
<!-- R92 -->
<g id="node2" class="node">
<title>R92</title>
<g id="a_node2"><a xlink:href="92.svg" xlink:title="R92">
<polygon fill="cornsilk" stroke="none" points="676,-112 600,-112 600,-65 676,-65 676,-112"/>
<text text-anchor="middle" x="638" y="-80" font-family="Times New Roman,serif" font-size="35.00">R92</text>
</a>
</g>
</g>
<!-- R362&#45;&gt;R92 -->
<g id="edge1" class="edge">
<title>R362&#45;&gt;R92</title>
<path fill="none" stroke="black" stroke-width="6" d="M93.83,-65.22C96.92,-65.71 100,-66.14 103,-66.5 275.44,-87.17 481.18,-89.37 579.35,-89.07"/>
<polygon fill="black" stroke="black" stroke-width="6" points="574.32,-99.56 594.26,-88.96 574.21,-78.56 574.32,-99.56"/>
<text text-anchor="middle" x="342.5" y="-97.5" font-family="Times New Roman,serif" font-size="30.00"> &#160;&#160;609 &#160;&#160;100% &#160;&#160;0.0727 mol/s &#160;&#160;&#160;2.42E&#45;01</text>
</g>
<!-- R2 -->
<g id="node3" class="node">
<title>R2</title>
<g id="a_node3"><a xlink:href="2.svg" xlink:title="R2">
<polygon fill="cornsilk" stroke="none" points="667,-47 609,-47 609,0 667,0 667,-47"/>
<text text-anchor="middle" x="638" y="-15" font-family="Times New Roman,serif" font-size="35.00">R2</text>
</a>
</g>
</g>
<!-- R362&#45;&gt;R2 -->
<g id="edge2" class="edge">
<title>R362&#45;&gt;R2</title>
<path fill="none" stroke="black" stroke-width="6" d="M93.84,-35.77C96.91,-34.88 99.98,-34.11 103,-33.5 278.69,2.04 493.54,-10.39 588.22,-18.61"/>
<polygon fill="black" stroke="black" stroke-width="6" points="582.23,-29.16 603.11,-20.53 584.15,-8.24 582.23,-29.16"/>
<text text-anchor="middle" x="342.5" y="-42.5" font-family="Times New Roman,serif" font-size="30.00"> &#160;&#160;609 &#160;&#160;100% &#160;&#160;0.0727 mol/s &#160;&#160;&#160;2.42E&#45;01</text>
</g>
</g>
</svg>
