<?xml version="1.0" encoding="UTF-8" standalone="no"?>
<!DOCTYPE svg PUBLIC "-//W3C//DTD SVG 1.1//EN"
 "http://www.w3.org/Graphics/SVG/1.1/DTD/svg11.dtd">
<!-- Generated by graphviz version 8.0.3 (20230416.2022)
 -->
<!-- Title: G Pages: 1 -->
<svg width="640pt" height="79pt"
 viewBox="0.00 0.00 720.00 88.56" xmlns="http://www.w3.org/2000/svg" xmlns:xlink="http://www.w3.org/1999/xlink">
<g id="graph0" class="graph" transform="scale(0.445993 0.445993) rotate(0) translate(4 172.5)">
<title>G</title>
<polygon fill="white" stroke="none" points="-4,4 -4,-172.5 1431,-172.5 1431,4 -4,4"/>
<text text-anchor="middle" x="713.5" y="-135.7" font-family="Arial" font-size="36.00" fill="blue">Reaction Path Analysis</text>
<!-- CCO(S) -->
<g id="node1" class="node">
<title>CCO(S)</title>
<g id="a_node1"><a xlink:href="37.svg" xlink:title="CCO(S)">
<polygon fill="dodgerblue" stroke="none" points="791.5,-79 659.5,-79 659.5,-32 791.5,-32 791.5,-79"/>
<text text-anchor="middle" x="725.5" y="-47" font-family="Times New Roman,serif" font-size="35.00">CCO(S)</text>
</a>
</g>
</g>
<!-- C(S) -->
<g id="node3" class="node">
<title>C(S)</title>
<g id="a_node3"><a xlink:href="58.svg" xlink:title="C(S)">
<polygon fill="dodgerblue" stroke="none" points="1414,-112 1331,-112 1331,-65 1414,-65 1414,-112"/>
<text text-anchor="middle" x="1372.5" y="-80" font-family="Times New Roman,serif" font-size="35.00">C(S)</text>
</a>
</g>
</g>
<!-- CCO(S)&#45;&gt;C(S) -->
<g id="edge2" class="edge">
<title>CCO(S)&#45;&gt;C(S)</title>
<path fill="none" stroke="black" stroke-width="5" d="M791.11,-65.03C795.97,-65.58 800.81,-66.08 805.5,-66.5 988.7,-82.77 1206.31,-87.01 1310.28,-88.11"/>
<polygon fill="black" stroke="black" stroke-width="5" points="1305.19,-96.87 1325.27,-88.31 1305.35,-79.37 1305.19,-96.87"/>
<text text-anchor="middle" x="1049" y="-96.5" font-family="Times New Roman,serif" font-size="30.00"> &#160;&#160;108 &#160;&#160;99% &#160;&#160;2.08e&#45;09 mol/s &#160;&#160;&#160;9.80E&#45;01</text>
</g>
<!-- CO(S) -->
<g id="node4" class="node">
<title>CO(S)</title>
<g id="a_node4"><a xlink:href="54.svg" xlink:title="CO(S)">
<polygon fill="orange" stroke="none" points="1427,-47 1318,-47 1318,0 1427,0 1427,-47"/>
<text text-anchor="middle" x="1372.5" y="-15" font-family="Times New Roman,serif" font-size="35.00">CO(S)</text>
</a>
</g>
</g>
<!-- CCO(S)&#45;&gt;CO(S) -->
<g id="edge3" class="edge">
<title>CCO(S)&#45;&gt;CO(S)</title>
<path fill="none" stroke="black" stroke-width="5" d="M791.32,-36.04C796.09,-35.05 800.85,-34.18 805.5,-33.5 980.37,-8.03 1188.83,-13.41 1297.41,-18.86"/>
<polygon fill="black" stroke="black" stroke-width="5" points="1291.64,-27.64 1312.07,-19.96 1292.57,-10.16 1291.64,-27.64"/>
<text text-anchor="middle" x="1049" y="-42.5" font-family="Times New Roman,serif" font-size="30.00"> &#160;&#160;108 &#160;&#160;99% &#160;&#160;2.08e&#45;09 mol/s &#160;&#160;&#160;9.80E&#45;01</text>
</g>
<!-- CHCO(S) -->
<g id="node2" class="node">
<title>CHCO(S)</title>
<g id="a_node2"><a xlink:href="34.svg" xlink:title="CHCO(S)">
<polygon fill="springgreen" stroke="none" points="157,-79 0,-79 0,-32 157,-32 157,-79"/>
<text text-anchor="middle" x="78.5" y="-47" font-family="Times New Roman,serif" font-size="35.00">CHCO(S)</text>
</a>
</g>
</g>
<!-- CHCO(S)&#45;&gt;CCO(S) -->
<g id="edge1" class="edge">
<title>CHCO(S)&#45;&gt;CCO(S)</title>
<path fill="none" stroke="black" stroke-width="5" d="M156.98,-55.5C278.49,-55.5 512.97,-55.5 639.16,-55.5"/>
<polygon fill="black" stroke="black" stroke-width="5" points="633.93,-64.25 653.93,-55.5 633.93,-46.75 633.93,-64.25"/>
<text text-anchor="middle" x="402" y="-64.5" font-family="Times New Roman,serif" font-size="30.00"> &#160;&#160;54 &#160;&#160;99% &#160;&#160;2.07e&#45;09 mol/s &#160;&#160;&#160;9.99E&#45;01</text>
</g>
</g>
</svg>
