<?xml version="1.0" encoding="UTF-8" standalone="no"?>
<!DOCTYPE svg PUBLIC "-//W3C//DTD SVG 1.1//EN"
 "http://www.w3.org/Graphics/SVG/1.1/DTD/svg11.dtd">
<!-- Generated by graphviz version 8.0.3 (20230416.2022)
 -->
<!-- Title: G Pages: 1 -->
<svg width="640pt" height="85pt"
 viewBox="0.00 0.00 720.00 95.73" xmlns="http://www.w3.org/2000/svg" xmlns:xlink="http://www.w3.org/1999/xlink">
<g id="graph0" class="graph" transform="scale(0.479401 0.479401) rotate(0) translate(4 173.5)">
<title>G</title>
<polygon fill="white" stroke="none" points="-4,4 -4,-173.5 1331,-173.5 1331,4 -4,4"/>
<text text-anchor="middle" x="663.5" y="-136.7" font-family="Arial" font-size="36.00" fill="blue">Reaction Path Analysis</text>
<!-- R372 -->
<g id="node1" class="node">
<title>R372</title>
<g id="a_node1"><a xlink:href="372.svg" xlink:title="R372">
<polygon fill="cornsilk" stroke="none" points="706,-79 612,-79 612,-32 706,-32 706,-79"/>
<text text-anchor="middle" x="659" y="-47" font-family="Times New Roman,serif" font-size="35.00">R372</text>
</a>
</g>
</g>
<!-- R148 -->
<g id="node4" class="node">
<title>R148</title>
<g id="a_node4"><a xlink:href="148.svg" xlink:title="R148">
<polygon fill="cornsilk" stroke="none" points="1327,-79 1233,-79 1233,-32 1327,-32 1327,-79"/>
<text text-anchor="middle" x="1280" y="-47" font-family="Times New Roman,serif" font-size="35.00">R148</text>
</a>
</g>
</g>
<!-- R372&#45;&gt;R148 -->
<g id="edge3" class="edge">
<title>R372&#45;&gt;R148</title>
<path fill="none" stroke="black" stroke-width="6" d="M705.77,-55.5C813.93,-55.5 1085.71,-55.5 1212.25,-55.5"/>
<polygon fill="black" stroke="black" stroke-width="6" points="1207.05,-66 1227.05,-55.5 1207.05,-45 1207.05,-66"/>
<text text-anchor="middle" x="969.5" y="-64.5" font-family="Times New Roman,serif" font-size="30.00"> &#160;&#160;672 &#160;&#160;100% &#160;&#160;6.84e&#45;09 mol/s &#160;&#160;&#160;1.47E&#45;03</text>
</g>
<!-- R94 -->
<g id="node2" class="node">
<title>R94</title>
<g id="a_node2"><a xlink:href="94.svg" xlink:title="R94">
<polygon fill="cornsilk" stroke="none" points="76,-112 0,-112 0,-65 76,-65 76,-112"/>
<text text-anchor="middle" x="38" y="-80" font-family="Times New Roman,serif" font-size="35.00">R94</text>
</a>
</g>
</g>
<!-- R94&#45;&gt;R372 -->
<g id="edge1" class="edge">
<title>R94&#45;&gt;R372</title>
<path fill="none" stroke="black" stroke-width="6" d="M75.78,-89.07C162.98,-90.01 389.5,-89.99 591.46,-67.62"/>
<polygon fill="black" stroke="black" stroke-width="6" points="587.5,-77.95 606.17,-65.23 585.1,-57.09 587.5,-77.95"/>
<text text-anchor="middle" x="348.5" y="-97.5" font-family="Times New Roman,serif" font-size="30.00"> &#160;&#160;626 &#160;&#160;100% &#160;&#160;4.67e&#45;08 mol/s &#160;&#160;&#160;1.00E+00</text>
</g>
<!-- R13 -->
<g id="node3" class="node">
<title>R13</title>
<g id="a_node3"><a xlink:href="13.svg" xlink:title="R13">
<polygon fill="cornsilk" stroke="none" points="76,-47 0,-47 0,0 76,0 76,-47"/>
<text text-anchor="middle" x="38" y="-15" font-family="Times New Roman,serif" font-size="35.00">R13</text>
</a>
</g>
</g>
<!-- R13&#45;&gt;R372 -->
<g id="edge2" class="edge">
<title>R13&#45;&gt;R372</title>
<path fill="none" stroke="black" stroke-width="6" d="M75.78,-19.62C163.47,-11.3 391.8,4.81 591.67,-31.8"/>
<polygon fill="black" stroke="black" stroke-width="6" points="584.53,-41.28 606.16,-34.76 588.52,-20.66 584.53,-41.28"/>
<text text-anchor="middle" x="348.5" y="-42.5" font-family="Times New Roman,serif" font-size="30.00"> &#160;&#160;626 &#160;&#160;100% &#160;&#160;4.67e&#45;08 mol/s &#160;&#160;&#160;1.00E+00</text>
</g>
</g>
</svg>
