<?xml version="1.0" encoding="UTF-8" standalone="no"?>
<!DOCTYPE svg PUBLIC "-//W3C//DTD SVG 1.1//EN"
 "http://www.w3.org/Graphics/SVG/1.1/DTD/svg11.dtd">
<!-- Generated by graphviz version 8.0.3 (20230416.2022)
 -->
<!-- Title: G Pages: 1 -->
<svg width="589pt" height="227pt"
 viewBox="0.00 0.00 663.00 255.50" xmlns="http://www.w3.org/2000/svg" xmlns:xlink="http://www.w3.org/1999/xlink">
<g id="graph0" class="graph" transform="scale(0.888889 0.888889) rotate(0) translate(4 251.5)">
<title>G</title>
<polygon fill="white" stroke="none" points="-4,4 -4,-251.5 659,-251.5 659,4 -4,4"/>
<text text-anchor="middle" x="327.5" y="-214.7" font-family="Arial" font-size="36.00" fill="blue">Reaction Path Analysis</text>
<!-- R372 -->
<g id="node1" class="node">
<title>R372</title>
<g id="a_node1"><a xlink:href="372.svg" xlink:title="R372">
<polygon fill="cornsilk" stroke="none" points="94,-112 0,-112 0,-65 94,-65 94,-112"/>
<text text-anchor="middle" x="47" y="-80" font-family="Times New Roman,serif" font-size="35.00">R372</text>
</a>
</g>
</g>
<!-- R94 -->
<g id="node2" class="node">
<title>R94</title>
<g id="a_node2"><a xlink:href="94.svg" xlink:title="R94">
<polygon fill="cornsilk" stroke="none" points="646,-177 570,-177 570,-130 646,-130 646,-177"/>
<text text-anchor="middle" x="608" y="-145" font-family="Times New Roman,serif" font-size="35.00">R94</text>
</a>
</g>
</g>
<!-- R372&#45;&gt;R94 -->
<g id="edge1" class="edge">
<title>R372&#45;&gt;R94</title>
<path fill="none" stroke="black" stroke-width="5" d="M76.71,-112C84.76,-117.38 93.84,-122.42 103,-125.5 257.57,-177.38 453.66,-168.64 549.29,-159.99"/>
<polygon fill="black" stroke="black" stroke-width="5" points="544.95,-168.62 564.01,-157.97 543.26,-151.2 544.95,-168.62"/>
<text text-anchor="middle" x="327.5" y="-175.5" font-family="Times New Roman,serif" font-size="30.00"> &#160;&#160;626 &#160;&#160;99% &#160;&#160;113.0 mol/s &#160;&#160;&#160;3.02E&#45;04</text>
</g>
<!-- R13 -->
<g id="node3" class="node">
<title>R13</title>
<g id="a_node3"><a xlink:href="13.svg" xlink:title="R13">
<polygon fill="cornsilk" stroke="none" points="646,-112 570,-112 570,-65 646,-65 646,-112"/>
<text text-anchor="middle" x="608" y="-80" font-family="Times New Roman,serif" font-size="35.00">R13</text>
</a>
</g>
</g>
<!-- R372&#45;&gt;R13 -->
<g id="edge2" class="edge">
<title>R372&#45;&gt;R13</title>
<path fill="none" stroke="black" stroke-width="5" d="M93.75,-88.5C194.97,-88.5 437.74,-88.5 549.23,-88.5"/>
<polygon fill="black" stroke="black" stroke-width="5" points="544.01,-97.25 564.01,-88.5 544.01,-79.75 544.01,-97.25"/>
<text text-anchor="middle" x="327.5" y="-97.5" font-family="Times New Roman,serif" font-size="30.00"> &#160;&#160;626 &#160;&#160;99% &#160;&#160;113.0 mol/s &#160;&#160;&#160;3.02E&#45;04</text>
</g>
<!-- R148 -->
<g id="node4" class="node">
<title>R148</title>
<g id="a_node4"><a xlink:href="148.svg" xlink:title="R148">
<polygon fill="cornsilk" stroke="none" points="655,-47 561,-47 561,0 655,0 655,-47"/>
<text text-anchor="middle" x="608" y="-15" font-family="Times New Roman,serif" font-size="35.00">R148</text>
</a>
</g>
</g>
<!-- R372&#45;&gt;R148 -->
<g id="edge3" class="edge">
<title>R372&#45;&gt;R148</title>
<path fill="none" stroke="black" d="M76.71,-65C84.76,-59.62 93.84,-54.58 103,-51.5 258.24,0.61 455.36,-8.43 550.53,-17.12"/>
<polygon fill="black" stroke="black" points="550.06,-20.69 560.34,-18.15 550.72,-13.72 550.06,-20.69"/>
<text text-anchor="middle" x="327.5" y="-60.5" font-family="Times New Roman,serif" font-size="30.00"> &#160;&#160;672 &#160;&#160;0% &#160;&#160;0.0381 mol/s &#160;&#160;&#160;6.24E&#45;02</text>
</g>
</g>
</svg>
