<?xml version="1.0" encoding="UTF-8" standalone="no"?>
<!DOCTYPE svg PUBLIC "-//W3C//DTD SVG 1.1//EN"
 "http://www.w3.org/Graphics/SVG/1.1/DTD/svg11.dtd">
<!-- Generated by graphviz version 8.0.3 (20230416.2022)
 -->
<!-- Title: G Pages: 1 -->
<svg width="640pt" height="85pt"
 viewBox="0.00 0.00 720.00 95.09" xmlns="http://www.w3.org/2000/svg" xmlns:xlink="http://www.w3.org/1999/xlink">
<g id="graph0" class="graph" transform="scale(0.47619 0.47619) rotate(0) translate(4 173.5)">
<title>G</title>
<polygon fill="white" stroke="none" points="-4,4 -4,-173.5 1340,-173.5 1340,4 -4,4"/>
<text text-anchor="middle" x="668" y="-136.7" font-family="Arial" font-size="36.00" fill="blue">Reaction Path Analysis</text>
<!-- R373 -->
<g id="node1" class="node">
<title>R373</title>
<g id="a_node1"><a xlink:href="373.svg" xlink:title="R373">
<polygon fill="cornsilk" stroke="none" points="715,-79 621,-79 621,-32 715,-32 715,-79"/>
<text text-anchor="middle" x="668" y="-47" font-family="Times New Roman,serif" font-size="35.00">R373</text>
</a>
</g>
</g>
<!-- R294 -->
<g id="node4" class="node">
<title>R294</title>
<g id="a_node4"><a xlink:href="294.svg" xlink:title="R294">
<polygon fill="cornsilk" stroke="none" points="1336,-79 1242,-79 1242,-32 1336,-32 1336,-79"/>
<text text-anchor="middle" x="1289" y="-47" font-family="Times New Roman,serif" font-size="35.00">R294</text>
</a>
</g>
</g>
<!-- R373&#45;&gt;R294 -->
<g id="edge3" class="edge">
<title>R373&#45;&gt;R294</title>
<path fill="none" stroke="black" stroke-width="6" d="M714.77,-55.5C822.93,-55.5 1094.71,-55.5 1221.25,-55.5"/>
<polygon fill="black" stroke="black" stroke-width="6" points="1216.05,-66 1236.05,-55.5 1216.05,-45 1216.05,-66"/>
<text text-anchor="middle" x="978.5" y="-64.5" font-family="Times New Roman,serif" font-size="30.00"> &#160;&#160;775 &#160;&#160;100% &#160;&#160;5.68e&#45;09 mol/s &#160;&#160;&#160;1.77E&#45;03</text>
</g>
<!-- R110 -->
<g id="node2" class="node">
<title>R110</title>
<g id="a_node2"><a xlink:href="110.svg" xlink:title="R110">
<polygon fill="cornsilk" stroke="none" points="94,-112 0,-112 0,-65 94,-65 94,-112"/>
<text text-anchor="middle" x="47" y="-80" font-family="Times New Roman,serif" font-size="35.00">R110</text>
</a>
</g>
</g>
<!-- R110&#45;&gt;R373 -->
<g id="edge1" class="edge">
<title>R110&#45;&gt;R373</title>
<path fill="none" stroke="black" stroke-width="6" d="M93.88,-89.16C186.94,-89.99 404.96,-89.29 600.5,-67.61"/>
<polygon fill="black" stroke="black" stroke-width="6" points="596.5,-77.95 615.17,-65.23 594.1,-57.09 596.5,-77.95"/>
<text text-anchor="middle" x="357.5" y="-97.5" font-family="Times New Roman,serif" font-size="30.00"> &#160;&#160;630 &#160;&#160;100% &#160;&#160;4.67e&#45;08 mol/s &#160;&#160;&#160;1.00E+00</text>
</g>
<!-- R13 -->
<g id="node3" class="node">
<title>R13</title>
<g id="a_node3"><a xlink:href="13.svg" xlink:title="R13">
<polygon fill="cornsilk" stroke="none" points="85,-47 9,-47 9,0 85,0 85,-47"/>
<text text-anchor="middle" x="47" y="-15" font-family="Times New Roman,serif" font-size="35.00">R13</text>
</a>
</g>
</g>
<!-- R13&#45;&gt;R373 -->
<g id="edge2" class="edge">
<title>R13&#45;&gt;R373</title>
<path fill="none" stroke="black" stroke-width="6" d="M84.78,-19.62C172.47,-11.3 400.8,4.81 600.67,-31.8"/>
<polygon fill="black" stroke="black" stroke-width="6" points="593.53,-41.28 615.16,-34.76 597.52,-20.66 593.53,-41.28"/>
<text text-anchor="middle" x="357.5" y="-42.5" font-family="Times New Roman,serif" font-size="30.00"> &#160;&#160;630 &#160;&#160;100% &#160;&#160;4.67e&#45;08 mol/s &#160;&#160;&#160;1.00E+00</text>
</g>
</g>
</svg>
