<?xml version="1.0" encoding="UTF-8" standalone="no"?>
<!DOCTYPE svg PUBLIC "-//W3C//DTD SVG 1.1//EN"
 "http://www.w3.org/Graphics/SVG/1.1/DTD/svg11.dtd">
<!-- Generated by graphviz version 8.0.3 (20230416.2022)
 -->
<!-- Title: G Pages: 1 -->
<svg width="640pt" height="87pt"
 viewBox="0.00 0.00 720.00 98.31" xmlns="http://www.w3.org/2000/svg" xmlns:xlink="http://www.w3.org/1999/xlink">
<g id="graph0" class="graph" transform="scale(0.492308 0.492308) rotate(0) translate(4 173.5)">
<title>G</title>
<polygon fill="white" stroke="none" points="-4,4 -4,-173.5 1296,-173.5 1296,4 -4,4"/>
<text text-anchor="middle" x="646" y="-136.7" font-family="Arial" font-size="36.00" fill="blue">Reaction Path Analysis</text>
<!-- R373 -->
<g id="node1" class="node">
<title>R373</title>
<g id="a_node1"><a xlink:href="373.svg" xlink:title="R373">
<polygon fill="cornsilk" stroke="none" points="693,-79 599,-79 599,-32 693,-32 693,-79"/>
<text text-anchor="middle" x="646" y="-47" font-family="Times New Roman,serif" font-size="35.00">R373</text>
</a>
</g>
</g>
<!-- R294 -->
<g id="node4" class="node">
<title>R294</title>
<g id="a_node4"><a xlink:href="294.svg" xlink:title="R294">
<polygon fill="cornsilk" stroke="none" points="1292,-79 1198,-79 1198,-32 1292,-32 1292,-79"/>
<text text-anchor="middle" x="1245" y="-47" font-family="Times New Roman,serif" font-size="35.00">R294</text>
</a>
</g>
</g>
<!-- R373&#45;&gt;R294 -->
<g id="edge3" class="edge">
<title>R373&#45;&gt;R294</title>
<path fill="none" stroke="black" stroke-width="6" d="M692.85,-55.5C797.71,-55.5 1055.33,-55.5 1177.56,-55.5"/>
<polygon fill="black" stroke="black" stroke-width="6" points="1172.4,-66 1192.4,-55.5 1172.4,-45 1172.4,-66"/>
<text text-anchor="middle" x="945.5" y="-64.5" font-family="Times New Roman,serif" font-size="30.00"> &#160;&#160;775 &#160;&#160;100% &#160;&#160;0.603 mol/s &#160;&#160;&#160;4.47E&#45;03</text>
</g>
<!-- R110 -->
<g id="node2" class="node">
<title>R110</title>
<g id="a_node2"><a xlink:href="110.svg" xlink:title="R110">
<polygon fill="cornsilk" stroke="none" points="94,-112 0,-112 0,-65 94,-65 94,-112"/>
<text text-anchor="middle" x="47" y="-80" font-family="Times New Roman,serif" font-size="35.00">R110</text>
</a>
</g>
</g>
<!-- R110&#45;&gt;R373 -->
<g id="edge1" class="edge">
<title>R110&#45;&gt;R373</title>
<path fill="none" stroke="black" stroke-width="6" d="M93.88,-89.06C184.16,-89.64 391.69,-88.44 578.54,-67.62"/>
<polygon fill="black" stroke="black" stroke-width="6" points="574.51,-77.96 593.17,-65.22 572.09,-57.1 574.51,-77.96"/>
<text text-anchor="middle" x="346.5" y="-97.5" font-family="Times New Roman,serif" font-size="30.00"> &#160;&#160;630 &#160;&#160;100% &#160;&#160;0.0342 mol/s &#160;&#160;&#160;1.00E+00</text>
</g>
<!-- R13 -->
<g id="node3" class="node">
<title>R13</title>
<g id="a_node3"><a xlink:href="13.svg" xlink:title="R13">
<polygon fill="cornsilk" stroke="none" points="85,-47 9,-47 9,0 85,0 85,-47"/>
<text text-anchor="middle" x="47" y="-15" font-family="Times New Roman,serif" font-size="35.00">R13</text>
</a>
</g>
</g>
<!-- R13&#45;&gt;R373 -->
<g id="edge2" class="edge">
<title>R13&#45;&gt;R373</title>
<path fill="none" stroke="black" stroke-width="6" d="M84.97,-19.65C170.3,-11.71 387.65,3.14 578.69,-31.8"/>
<polygon fill="black" stroke="black" stroke-width="6" points="571.53,-41.28 593.16,-34.76 575.52,-20.66 571.53,-41.28"/>
<text text-anchor="middle" x="346.5" y="-42.5" font-family="Times New Roman,serif" font-size="30.00"> &#160;&#160;630 &#160;&#160;100% &#160;&#160;0.0342 mol/s &#160;&#160;&#160;1.00E+00</text>
</g>
</g>
</svg>
