<?xml version="1.0" encoding="UTF-8" standalone="no"?>
<!DOCTYPE svg PUBLIC "-//W3C//DTD SVG 1.1//EN"
 "http://www.w3.org/Graphics/SVG/1.1/DTD/svg11.dtd">
<!-- Generated by graphviz version 8.0.3 (20230416.2022)
 -->
<!-- Title: G Pages: 1 -->
<svg width="629pt" height="229pt"
 viewBox="0.00 0.00 708.00 257.50" xmlns="http://www.w3.org/2000/svg" xmlns:xlink="http://www.w3.org/1999/xlink">
<g id="graph0" class="graph" transform="scale(0.888889 0.888889) rotate(0) translate(4 253.5)">
<title>G</title>
<polygon fill="white" stroke="none" points="-4,4 -4,-253.5 704,-253.5 704,4 -4,4"/>
<text text-anchor="middle" x="350" y="-216.7" font-family="Arial" font-size="36.00" fill="blue">Reaction Path Analysis</text>
<!-- R374 -->
<g id="node1" class="node">
<title>R374</title>
<g id="a_node1"><a xlink:href="374.svg" xlink:title="R374">
<polygon fill="cornsilk" stroke="none" points="700,-112 606,-112 606,-65 700,-65 700,-112"/>
<text text-anchor="middle" x="653" y="-80" font-family="Times New Roman,serif" font-size="35.00">R374</text>
</a>
</g>
</g>
<!-- R117 -->
<g id="node2" class="node">
<title>R117</title>
<g id="a_node2"><a xlink:href="117.svg" xlink:title="R117">
<polygon fill="cornsilk" stroke="none" points="94,-177 0,-177 0,-130 94,-130 94,-177"/>
<text text-anchor="middle" x="47" y="-145" font-family="Times New Roman,serif" font-size="35.00">R117</text>
</a>
</g>
</g>
<!-- R117&#45;&gt;R374 -->
<g id="edge1" class="edge">
<title>R117&#45;&gt;R374</title>
<path fill="none" stroke="black" stroke-width="5" d="M93.98,-159.23C190.26,-169.51 418.85,-184.85 597,-125.5 599.9,-124.53 602.79,-123.37 605.64,-122.06"/>
<polygon fill="black" stroke="black" stroke-width="5" points="605.54,-132.34 618.59,-114.83 596.88,-117.13 605.54,-132.34"/>
<text text-anchor="middle" x="350" y="-177.5" font-family="Times New Roman,serif" font-size="30.00"> &#160;&#160;632 &#160;&#160;99% &#160;&#160;2.18e&#45;15 mol/s &#160;&#160;&#160;1.00E+00</text>
</g>
<!-- R13 -->
<g id="node3" class="node">
<title>R13</title>
<g id="a_node3"><a xlink:href="13.svg" xlink:title="R13">
<polygon fill="cornsilk" stroke="none" points="85,-112 9,-112 9,-65 85,-65 85,-112"/>
<text text-anchor="middle" x="47" y="-80" font-family="Times New Roman,serif" font-size="35.00">R13</text>
</a>
</g>
</g>
<!-- R13&#45;&gt;R374 -->
<g id="edge2" class="edge">
<title>R13&#45;&gt;R374</title>
<path fill="none" stroke="black" stroke-width="5" d="M84.87,-88.5C184.16,-88.5 458.2,-88.5 585.46,-88.5"/>
<polygon fill="black" stroke="black" stroke-width="5" points="580.37,-97.25 600.37,-88.5 580.37,-79.75 580.37,-97.25"/>
<text text-anchor="middle" x="350" y="-97.5" font-family="Times New Roman,serif" font-size="30.00"> &#160;&#160;632 &#160;&#160;99% &#160;&#160;2.18e&#45;15 mol/s &#160;&#160;&#160;1.00E+00</text>
</g>
<!-- R128 -->
<g id="node4" class="node">
<title>R128</title>
<g id="a_node4"><a xlink:href="128.svg" xlink:title="R128">
<polygon fill="cornsilk" stroke="none" points="94,-47 0,-47 0,0 94,0 94,-47"/>
<text text-anchor="middle" x="47" y="-15" font-family="Times New Roman,serif" font-size="35.00">R128</text>
</a>
</g>
</g>
<!-- R128&#45;&gt;R374 -->
<g id="edge3" class="edge">
<title>R128&#45;&gt;R374</title>
<path fill="none" stroke="black" d="M93.98,-17.77C190.26,-7.49 418.85,7.85 597,-51.5 602.95,-53.48 608.85,-56.29 614.46,-59.49"/>
<polygon fill="black" stroke="black" points="612.25,-62.86 622.59,-65.17 615.94,-56.91 612.25,-62.86"/>
<text text-anchor="middle" x="350" y="-60.5" font-family="Times New Roman,serif" font-size="30.00"> &#160;&#160;656 &#160;&#160;0% &#160;&#160;2.2e&#45;26 mol/s &#160;&#160;&#160;1.00E+00</text>
</g>
</g>
</svg>
