<?xml version="1.0" encoding="UTF-8" standalone="no"?>
<!DOCTYPE svg PUBLIC "-//W3C//DTD SVG 1.1//EN"
 "http://www.w3.org/Graphics/SVG/1.1/DTD/svg11.dtd">
<!-- Generated by graphviz version 8.0.3 (20230416.2022)
 -->
<!-- Title: G Pages: 1 -->
<svg width="623pt" height="100pt"
 viewBox="0.00 0.00 701.00 112.50" xmlns="http://www.w3.org/2000/svg" xmlns:xlink="http://www.w3.org/1999/xlink">
<g id="graph0" class="graph" transform="scale(0.888889 0.888889) rotate(0) translate(4 108.5)">
<title>G</title>
<polygon fill="white" stroke="none" points="-4,4 -4,-108.5 697,-108.5 697,4 -4,4"/>
<text text-anchor="middle" x="346.5" y="-71.7" font-family="Arial" font-size="36.00" fill="blue">Reaction Path Analysis</text>
<!-- R379 -->
<g id="node1" class="node">
<title>R379</title>
<g id="a_node1"><a xlink:href="379.svg" xlink:title="R379">
<polygon fill="cornsilk" stroke="none" points="94,-47 0,-47 0,0 94,0 94,-47"/>
<text text-anchor="middle" x="47" y="-15" font-family="Times New Roman,serif" font-size="35.00">R379</text>
</a>
</g>
</g>
<!-- R262 -->
<g id="node2" class="node">
<title>R262</title>
<g id="a_node2"><a xlink:href="262.svg" xlink:title="R262">
<polygon fill="cornsilk" stroke="none" points="693,-47 599,-47 599,0 693,0 693,-47"/>
<text text-anchor="middle" x="646" y="-15" font-family="Times New Roman,serif" font-size="35.00">R262</text>
</a>
</g>
</g>
<!-- R379&#45;&gt;R262 -->
<g id="edge1" class="edge">
<title>R379&#45;&gt;R262</title>
<path fill="none" stroke="black" stroke-width="6" d="M93.85,-23.5C198.71,-23.5 456.33,-23.5 578.56,-23.5"/>
<polygon fill="black" stroke="black" stroke-width="6" points="573.4,-34 593.4,-23.5 573.4,-13 573.4,-34"/>
<text text-anchor="middle" x="346.5" y="-32.5" font-family="Times New Roman,serif" font-size="30.00"> &#160;&#160;742 &#160;&#160;100% &#160;&#160;1.3e&#45;20 mol/s &#160;&#160;&#160;1.69E&#45;06</text>
</g>
</g>
</svg>
