<?xml version="1.0" encoding="UTF-8" standalone="no"?>
<!DOCTYPE svg PUBLIC "-//W3C//DTD SVG 1.1//EN"
 "http://www.w3.org/Graphics/SVG/1.1/DTD/svg11.dtd">
<!-- Generated by graphviz version 8.0.3 (20230416.2022)
 -->
<!-- Title: G Pages: 1 -->
<svg width="640pt" height="73pt"
 viewBox="0.00 0.00 720.00 81.92" xmlns="http://www.w3.org/2000/svg" xmlns:xlink="http://www.w3.org/1999/xlink">
<g id="graph0" class="graph" transform="scale(0.414911 0.414911) rotate(0) translate(4 171.5)">
<title>G</title>
<polygon fill="white" stroke="none" points="-4,4 -4,-171.5 1538.5,-171.5 1538.5,4 -4,4"/>
<text text-anchor="middle" x="767.25" y="-134.7" font-family="Arial" font-size="36.00" fill="blue">Reaction Path Analysis</text>
<!-- CH3CH2(S) -->
<g id="node1" class="node">
<title>CH3CH2(S)</title>
<g id="a_node1"><a xlink:href="38.svg" xlink:title="CH3CH2(S)">
<polygon fill="dodgerblue" stroke="none" points="874,-79 682,-79 682,-32 874,-32 874,-79"/>
<text text-anchor="middle" x="778" y="-47" font-family="Times New Roman,serif" font-size="35.00">CH3CH2(S)</text>
</a>
</g>
</g>
<!-- CH3CH3 -->
<g id="node2" class="node">
<title>CH3CH3</title>
<g id="a_node2"><a xlink:href="2.svg" xlink:title="CH3CH3">
<polygon fill="none" stroke="none" points="1534.5,-79 1385.5,-79 1385.5,-32 1534.5,-32 1534.5,-79"/>
<text text-anchor="middle" x="1460" y="-47" font-family="Times New Roman,serif" font-size="35.00">CH3CH3</text>
</a>
</g>
</g>
<!-- CH3CH2(S)&#45;&gt;CH3CH3 -->
<g id="edge1" class="edge">
<title>CH3CH2(S)&#45;&gt;CH3CH3</title>
<path fill="none" stroke="green" stroke-width="5" d="M873.91,-55.5C1003.82,-55.5 1235.61,-55.5 1365.03,-55.5"/>
<polygon fill="green" stroke="green" stroke-width="5" points="1359.66,-64.25 1379.66,-55.5 1359.66,-46.75 1359.66,-64.25"/>
<text text-anchor="middle" x="1119" y="-64.5" font-family="Times New Roman,serif" font-size="30.00"> &#160;&#160;4 &#160;&#160;99% &#160;&#160;1.79e&#45;08 mol/s &#160;&#160;&#160;4.55E&#45;01</text>
</g>
<!-- CH3CH(S) -->
<g id="node3" class="node">
<title>CH3CH(S)</title>
<g id="a_node3"><a xlink:href="39.svg" xlink:title="CH3CH(S)">
<polygon fill="dodgerblue" stroke="none" points="183,-112 9,-112 9,-65 183,-65 183,-112"/>
<text text-anchor="middle" x="96" y="-80" font-family="Times New Roman,serif" font-size="35.00">CH3CH(S)</text>
</a>
</g>
</g>
<!-- CH3CH(S)&#45;&gt;CH3CH2(S) -->
<g id="edge2" class="edge">
<title>CH3CH(S)&#45;&gt;CH3CH2(S)</title>
<path fill="none" stroke="black" stroke-width="5" d="M182.98,-87.02C291.4,-84.75 484.13,-79.41 661.39,-67.26"/>
<polygon fill="black" stroke="black" stroke-width="5" points="656.75,-75.94 676.09,-65.8 655.52,-58.48 656.75,-75.94"/>
<text text-anchor="middle" x="437" y="-95.5" font-family="Times New Roman,serif" font-size="30.00"> &#160;&#160;55 &#160;&#160;92% &#160;&#160;1.69e&#45;08 mol/s &#160;&#160;&#160;2.33E&#45;01</text>
</g>
<!-- CH2CH2(S) -->
<g id="node4" class="node">
<title>CH2CH2(S)</title>
<g id="a_node4"><a xlink:href="41.svg" xlink:title="CH2CH2(S)">
<polygon fill="dodgerblue" stroke="none" points="192,-47 0,-47 0,0 192,0 192,-47"/>
<text text-anchor="middle" x="96" y="-15" font-family="Times New Roman,serif" font-size="35.00">CH2CH2(S)</text>
</a>
</g>
</g>
<!-- CH2CH2(S)&#45;&gt;CH3CH2(S) -->
<g id="edge3" class="edge">
<title>CH2CH2(S)&#45;&gt;CH3CH2(S)</title>
<path fill="none" stroke="green" d="M191.9,-19.62C304.07,-16.28 496.53,-14.46 671.49,-33.47"/>
<polygon fill="green" stroke="green" points="670.86,-37.03 681.19,-34.66 671.63,-30.08 670.86,-37.03"/>
<text text-anchor="middle" x="437" y="-42.5" font-family="Times New Roman,serif" font-size="30.00"> &#160;&#160;60 &#160;&#160;7% &#160;&#160;1.4e&#45;09 mol/s &#160;&#160;&#160;4.75E&#45;01</text>
</g>
</g>
</svg>
