<?xml version="1.0" encoding="UTF-8" standalone="no"?>
<!DOCTYPE svg PUBLIC "-//W3C//DTD SVG 1.1//EN"
 "http://www.w3.org/Graphics/SVG/1.1/DTD/svg11.dtd">
<!-- Generated by graphviz version 8.0.3 (20230416.2022)
 -->
<!-- Title: G Pages: 1 -->
<svg width="592pt" height="640pt"
 viewBox="0.00 0.00 665.54 720.00" xmlns="http://www.w3.org/2000/svg" xmlns:xlink="http://www.w3.org/1999/xlink">
<g id="graph0" class="graph" transform="scale(0.467294 0.467294) rotate(0) translate(4 1365.59)">
<title>G</title>
<polygon fill="white" stroke="none" points="-4,4 -4,-1365.59 1262,-1365.59 1262,4 -4,4"/>
<text text-anchor="middle" x="629" y="-1328.79" font-family="Arial" font-size="36.00" fill="blue">Reaction Path Analysis</text>
<!-- R4 -->
<g id="node1" class="node">
<title>R4</title>
<g id="a_node1"><a xlink:href="4.svg" xlink:title="R4">
<polygon fill="cornsilk" stroke="none" points="649,-668.09 591,-668.09 591,-621.09 649,-621.09 649,-668.09"/>
<text text-anchor="middle" x="620" y="-636.09" font-family="Times New Roman,serif" font-size="35.00">R4</text>
</a>
</g>
</g>
<!-- R17 -->
<g id="node4" class="node">
<title>R17</title>
<g id="a_node4"><a xlink:href="17.svg" xlink:title="R17">
<polygon fill="cornsilk" stroke="none" points="1249,-1286.09 1173,-1286.09 1173,-1239.09 1249,-1239.09 1249,-1286.09"/>
<text text-anchor="middle" x="1211" y="-1254.09" font-family="Times New Roman,serif" font-size="35.00">R17</text>
</a>
</g>
</g>
<!-- R4&#45;&gt;R17 -->
<g id="edge3" class="edge">
<title>R4&#45;&gt;R17</title>
<path fill="none" stroke="black" d="M621.4,-667.8C623.43,-772.4 634.19,-1196.58 676,-1236.59 744.62,-1302.25 1044.78,-1279.55 1162.44,-1267.8"/>
<polygon fill="black" stroke="black" points="1162.65,-1271.19 1172.25,-1266.7 1161.94,-1264.23 1162.65,-1271.19"/>
<text text-anchor="middle" x="915.5" y="-1289.59" font-family="Times New Roman,serif" font-size="30.00"> &#160;&#160;20 &#160;&#160;4% &#160;&#160;4.67e&#45;08 mol/s &#160;&#160;&#160;1.00E+00</text>
</g>
<!-- R31 -->
<g id="node5" class="node">
<title>R31</title>
<g id="a_node5"><a xlink:href="31.svg" xlink:title="R31">
<polygon fill="cornsilk" stroke="none" points="1249,-1221.09 1173,-1221.09 1173,-1174.09 1249,-1174.09 1249,-1221.09"/>
<text text-anchor="middle" x="1211" y="-1189.09" font-family="Times New Roman,serif" font-size="35.00">R31</text>
</a>
</g>
</g>
<!-- R4&#45;&gt;R31 -->
<g id="edge4" class="edge">
<title>R4&#45;&gt;R31</title>
<path fill="none" stroke="black" d="M621.68,-667.82C624.76,-765.12 638.87,-1136.46 676,-1171.59 710.89,-1204.6 1038.51,-1201.22 1162.64,-1198.72"/>
<polygon fill="black" stroke="black" points="1162.38,-1202.21 1172.31,-1198.5 1162.24,-1195.21 1162.38,-1202.21"/>
<text text-anchor="middle" x="915.5" y="-1208.59" font-family="Times New Roman,serif" font-size="30.00"> &#160;&#160;36 &#160;&#160;4% &#160;&#160;4.67e&#45;08 mol/s &#160;&#160;&#160;1.00E+00</text>
</g>
<!-- R46 -->
<g id="node6" class="node">
<title>R46</title>
<g id="a_node6"><a xlink:href="46.svg" xlink:title="R46">
<polygon fill="cornsilk" stroke="none" points="1249,-1156.09 1173,-1156.09 1173,-1109.09 1249,-1109.09 1249,-1156.09"/>
<text text-anchor="middle" x="1211" y="-1124.09" font-family="Times New Roman,serif" font-size="35.00">R46</text>
</a>
</g>
</g>
<!-- R4&#45;&gt;R46 -->
<g id="edge5" class="edge">
<title>R4&#45;&gt;R46</title>
<path fill="none" stroke="black" d="M622.04,-667.93C626.28,-757.59 643.55,-1076.32 676,-1106.59 711.13,-1139.35 1038.6,-1136.13 1162.66,-1133.7"/>
<polygon fill="black" stroke="black" points="1162.4,-1137.18 1172.33,-1133.48 1162.26,-1130.18 1162.4,-1137.18"/>
<text text-anchor="middle" x="915.5" y="-1143.59" font-family="Times New Roman,serif" font-size="30.00"> &#160;&#160;51 &#160;&#160;4% &#160;&#160;4.67e&#45;08 mol/s &#160;&#160;&#160;1.00E+00</text>
</g>
<!-- R58 -->
<g id="node7" class="node">
<title>R58</title>
<g id="a_node7"><a xlink:href="58.svg" xlink:title="R58">
<polygon fill="cornsilk" stroke="none" points="1249,-1091.09 1173,-1091.09 1173,-1044.09 1249,-1044.09 1249,-1091.09"/>
<text text-anchor="middle" x="1211" y="-1059.09" font-family="Times New Roman,serif" font-size="35.00">R58</text>
</a>
</g>
</g>
<!-- R4&#45;&gt;R58 -->
<g id="edge6" class="edge">
<title>R4&#45;&gt;R58</title>
<path fill="none" stroke="black" d="M620.55,-667.93C619.58,-745.13 620.98,-990.18 676,-1040.59 711.42,-1073.04 1038.71,-1070.66 1162.7,-1068.57"/>
<polygon fill="black" stroke="black" points="1162.42,-1072.05 1172.35,-1068.38 1162.29,-1065.05 1162.42,-1072.05"/>
<text text-anchor="middle" x="915.5" y="-1078.59" font-family="Times New Roman,serif" font-size="30.00"> &#160;&#160;64 &#160;&#160;4% &#160;&#160;4.67e&#45;08 mol/s &#160;&#160;&#160;1.00E+00</text>
</g>
<!-- R59 -->
<g id="node8" class="node">
<title>R59</title>
<g id="a_node8"><a xlink:href="59.svg" xlink:title="R59">
<polygon fill="cornsilk" stroke="none" points="1249,-1026.09 1173,-1026.09 1173,-979.09 1249,-979.09 1249,-1026.09"/>
<text text-anchor="middle" x="1211" y="-994.09" font-family="Times New Roman,serif" font-size="35.00">R59</text>
</a>
</g>
</g>
<!-- R4&#45;&gt;R59 -->
<g id="edge7" class="edge">
<title>R4&#45;&gt;R59</title>
<path fill="none" stroke="black" d="M621.25,-667.88C622.51,-736.35 630.14,-934.68 676,-975.59 711.85,-1007.56 1038.87,-1005.48 1162.74,-1003.51"/>
<polygon fill="black" stroke="black" points="1162.45,-1007 1172.39,-1003.34 1162.33,-1000 1162.45,-1007"/>
<text text-anchor="middle" x="915.5" y="-1012.59" font-family="Times New Roman,serif" font-size="30.00"> &#160;&#160;65 &#160;&#160;4% &#160;&#160;4.67e&#45;08 mol/s &#160;&#160;&#160;1.00E+00</text>
</g>
<!-- R60 -->
<g id="node9" class="node">
<title>R60</title>
<g id="a_node9"><a xlink:href="60.svg" xlink:title="R60">
<polygon fill="cornsilk" stroke="none" points="1249,-961.09 1173,-961.09 1173,-914.09 1249,-914.09 1249,-961.09"/>
<text text-anchor="middle" x="1211" y="-929.09" font-family="Times New Roman,serif" font-size="35.00">R60</text>
</a>
</g>
</g>
<!-- R4&#45;&gt;R60 -->
<g id="edge8" class="edge">
<title>R4&#45;&gt;R60</title>
<path fill="none" stroke="black" d="M622.28,-667.88C626.05,-726.74 639.21,-879.05 676,-910.59 712.43,-941.82 1038.35,-940.21 1162.37,-938.44"/>
<polygon fill="black" stroke="black" points="1162.09,-941.93 1172.04,-938.28 1161.99,-934.93 1162.09,-941.93"/>
<text text-anchor="middle" x="915.5" y="-947.59" font-family="Times New Roman,serif" font-size="30.00"> &#160;&#160;66 &#160;&#160;4% &#160;&#160;4.67e&#45;08 mol/s &#160;&#160;&#160;1.00E+00</text>
</g>
<!-- R61 -->
<g id="node10" class="node">
<title>R61</title>
<g id="a_node10"><a xlink:href="61.svg" xlink:title="R61">
<polygon fill="cornsilk" stroke="none" points="1249,-896.09 1173,-896.09 1173,-849.09 1249,-849.09 1249,-896.09"/>
<text text-anchor="middle" x="1211" y="-864.09" font-family="Times New Roman,serif" font-size="35.00">R61</text>
</a>
</g>
</g>
<!-- R4&#45;&gt;R61 -->
<g id="edge9" class="edge">
<title>R4&#45;&gt;R61</title>
<path fill="none" stroke="black" d="M623.92,-667.89C630.48,-716.09 648.02,-824.11 676,-846.59 713.4,-876.64 1038.72,-875.11 1162.48,-873.41"/>
<polygon fill="black" stroke="black" points="1162.18,-876.9 1172.12,-873.25 1162.08,-869.9 1162.18,-876.9"/>
<text text-anchor="middle" x="915.5" y="-882.59" font-family="Times New Roman,serif" font-size="30.00"> &#160;&#160;67 &#160;&#160;4% &#160;&#160;4.67e&#45;08 mol/s &#160;&#160;&#160;1.00E+00</text>
</g>
<!-- R62 -->
<g id="node11" class="node">
<title>R62</title>
<g id="a_node11"><a xlink:href="62.svg" xlink:title="R62">
<polygon fill="cornsilk" stroke="none" points="1249,-831.09 1173,-831.09 1173,-784.09 1249,-784.09 1249,-831.09"/>
<text text-anchor="middle" x="1211" y="-799.09" font-family="Times New Roman,serif" font-size="35.00">R62</text>
</a>
</g>
</g>
<!-- R4&#45;&gt;R62 -->
<g id="edge10" class="edge">
<title>R4&#45;&gt;R62</title>
<path fill="none" stroke="black" d="M622.57,-668.04C626.15,-700.54 637.83,-758.34 676,-785.59 714.99,-813.43 1038.7,-810.67 1162.29,-808.56"/>
<polygon fill="black" stroke="black" points="1162.33,-812.04 1172.27,-808.36 1162.21,-805.04 1162.33,-812.04"/>
<text text-anchor="middle" x="915.5" y="-818.59" font-family="Times New Roman,serif" font-size="30.00"> &#160;&#160;68 &#160;&#160;4% &#160;&#160;4.67e&#45;08 mol/s &#160;&#160;&#160;1.00E+00</text>
</g>
<!-- R100 -->
<g id="node12" class="node">
<title>R100</title>
<g id="a_node12"><a xlink:href="100.svg" xlink:title="R100">
<polygon fill="cornsilk" stroke="none" points="1258,-766.09 1164,-766.09 1164,-719.09 1258,-719.09 1258,-766.09"/>
<text text-anchor="middle" x="1211" y="-734.09" font-family="Times New Roman,serif" font-size="35.00">R100</text>
</a>
</g>
</g>
<!-- R4&#45;&gt;R100 -->
<g id="edge11" class="edge">
<title>R4&#45;&gt;R100</title>
<path fill="none" stroke="black" d="M632.42,-667.86C641.73,-684.05 656.52,-704.48 676,-714.59 757.71,-756.98 1033.27,-750.5 1153.31,-745.42"/>
<polygon fill="black" stroke="black" points="1153.25,-748.88 1163.09,-744.95 1152.95,-741.89 1153.25,-748.88"/>
<text text-anchor="middle" x="915.5" y="-757.59" font-family="Times New Roman,serif" font-size="30.00"> &#160;&#160;299 &#160;&#160;4% &#160;&#160;4.67e&#45;08 mol/s &#160;&#160;&#160;1.00E+00</text>
</g>
<!-- R229 -->
<g id="node13" class="node">
<title>R229</title>
<g id="a_node13"><a xlink:href="229.svg" xlink:title="R229">
<polygon fill="cornsilk" stroke="none" points="1258,-701.09 1164,-701.09 1164,-654.09 1258,-654.09 1258,-701.09"/>
<text text-anchor="middle" x="1211" y="-669.09" font-family="Times New Roman,serif" font-size="35.00">R229</text>
</a>
</g>
</g>
<!-- R4&#45;&gt;R229 -->
<g id="edge12" class="edge">
<title>R4&#45;&gt;R229</title>
<path fill="none" stroke="black" d="M648.84,-651.03C657.5,-652.8 667.1,-654.52 676,-655.59 848.98,-676.32 1055.48,-678.48 1153.28,-678.15"/>
<polygon fill="black" stroke="black" points="1153.11,-681.65 1163.09,-678.1 1153.08,-674.65 1153.11,-681.65"/>
<text text-anchor="middle" x="915.5" y="-686.59" font-family="Times New Roman,serif" font-size="30.00"> &#160;&#160;300 &#160;&#160;4% &#160;&#160;4.67e&#45;08 mol/s &#160;&#160;&#160;1.00E+00</text>
</g>
<!-- R149 -->
<g id="node14" class="node">
<title>R149</title>
<g id="a_node14"><a xlink:href="149.svg" xlink:title="R149">
<polygon fill="cornsilk" stroke="none" points="1258,-636.09 1164,-636.09 1164,-589.09 1258,-589.09 1258,-636.09"/>
<text text-anchor="middle" x="1211" y="-604.09" font-family="Times New Roman,serif" font-size="35.00">R149</text>
</a>
</g>
</g>
<!-- R4&#45;&gt;R149 -->
<g id="edge13" class="edge">
<title>R4&#45;&gt;R149</title>
<path fill="none" stroke="black" d="M648.94,-631.15C657.44,-627.69 666.93,-624.42 676,-622.59 846.86,-588.02 1054.77,-598.83 1153.16,-607.01"/>
<polygon fill="black" stroke="black" points="1152.77,-610.58 1163.04,-607.95 1153.37,-603.6 1152.77,-610.58"/>
<text text-anchor="middle" x="915.5" y="-631.59" font-family="Times New Roman,serif" font-size="30.00"> &#160;&#160;301 &#160;&#160;4% &#160;&#160;4.67e&#45;08 mol/s &#160;&#160;&#160;1.00E+00</text>
</g>
<!-- R150 -->
<g id="node15" class="node">
<title>R150</title>
<g id="a_node15"><a xlink:href="150.svg" xlink:title="R150">
<polygon fill="cornsilk" stroke="none" points="1258,-571.09 1164,-571.09 1164,-524.09 1258,-524.09 1258,-571.09"/>
<text text-anchor="middle" x="1211" y="-539.09" font-family="Times New Roman,serif" font-size="35.00">R150</text>
</a>
</g>
</g>
<!-- R4&#45;&gt;R150 -->
<g id="edge14" class="edge">
<title>R4&#45;&gt;R150</title>
<path fill="none" stroke="black" d="M629.56,-621.21C638.07,-601.72 653.18,-575.17 676,-562.59 756.62,-518.12 1033.41,-533.61 1153.57,-542.8"/>
<polygon fill="black" stroke="black" points="1153.12,-546.35 1163.36,-543.64 1153.66,-539.37 1153.12,-546.35"/>
<text text-anchor="middle" x="915.5" y="-571.59" font-family="Times New Roman,serif" font-size="30.00"> &#160;&#160;302 &#160;&#160;4% &#160;&#160;4.67e&#45;08 mol/s &#160;&#160;&#160;1.00E+00</text>
</g>
<!-- R230 -->
<g id="node16" class="node">
<title>R230</title>
<g id="a_node16"><a xlink:href="230.svg" xlink:title="R230">
<polygon fill="cornsilk" stroke="none" points="1258,-506.09 1164,-506.09 1164,-459.09 1258,-459.09 1258,-506.09"/>
<text text-anchor="middle" x="1211" y="-474.09" font-family="Times New Roman,serif" font-size="35.00">R230</text>
</a>
</g>
</g>
<!-- R4&#45;&gt;R230 -->
<g id="edge15" class="edge">
<title>R4&#45;&gt;R230</title>
<path fill="none" stroke="black" d="M621.94,-621.19C624.72,-587.08 635.4,-524.62 676,-495.59 750.98,-441.97 1031.52,-463.79 1153.15,-476.21"/>
<polygon fill="black" stroke="black" points="1152.76,-479.8 1163.07,-477.35 1153.49,-472.83 1152.76,-479.8"/>
<text text-anchor="middle" x="915.5" y="-504.59" font-family="Times New Roman,serif" font-size="30.00"> &#160;&#160;303 &#160;&#160;4% &#160;&#160;4.67e&#45;08 mol/s &#160;&#160;&#160;1.00E+00</text>
</g>
<!-- R231 -->
<g id="node17" class="node">
<title>R231</title>
<g id="a_node17"><a xlink:href="231.svg" xlink:title="R231">
<polygon fill="cornsilk" stroke="none" points="1258,-441.09 1164,-441.09 1164,-394.09 1258,-394.09 1258,-441.09"/>
<text text-anchor="middle" x="1211" y="-409.09" font-family="Times New Roman,serif" font-size="35.00">R231</text>
</a>
</g>
</g>
<!-- R4&#45;&gt;R231 -->
<g id="edge16" class="edge">
<title>R4&#45;&gt;R231</title>
<path fill="none" stroke="black" d="M623.31,-621.12C628.92,-569.55 645.13,-449.02 676,-424.59 748.43,-367.27 1031.56,-394.93 1153.56,-410.01"/>
<polygon fill="black" stroke="black" points="1152.8,-413.57 1163.16,-411.34 1153.67,-406.63 1152.8,-413.57"/>
<text text-anchor="middle" x="915.5" y="-433.59" font-family="Times New Roman,serif" font-size="30.00"> &#160;&#160;304 &#160;&#160;4% &#160;&#160;4.67e&#45;08 mol/s &#160;&#160;&#160;1.00E+00</text>
</g>
<!-- R153 -->
<g id="node18" class="node">
<title>R153</title>
<g id="a_node18"><a xlink:href="153.svg" xlink:title="R153">
<polygon fill="cornsilk" stroke="none" points="1258,-376.09 1164,-376.09 1164,-329.09 1258,-329.09 1258,-376.09"/>
<text text-anchor="middle" x="1211" y="-344.09" font-family="Times New Roman,serif" font-size="35.00">R153</text>
</a>
</g>
</g>
<!-- R4&#45;&gt;R153 -->
<g id="edge17" class="edge">
<title>R4&#45;&gt;R153</title>
<path fill="none" stroke="black" d="M621.74,-621.34C624.26,-558.5 634.86,-387.75 676,-353.59 712,-323.7 1023.26,-340.33 1153.29,-348.69"/>
<polygon fill="black" stroke="black" points="1152.98,-352.25 1163.19,-349.4 1153.44,-345.26 1152.98,-352.25"/>
<text text-anchor="middle" x="915.5" y="-362.59" font-family="Times New Roman,serif" font-size="30.00"> &#160;&#160;305 &#160;&#160;4% &#160;&#160;4.67e&#45;08 mol/s &#160;&#160;&#160;1.00E+00</text>
</g>
<!-- R232 -->
<g id="node19" class="node">
<title>R232</title>
<g id="a_node19"><a xlink:href="232.svg" xlink:title="R232">
<polygon fill="cornsilk" stroke="none" points="1258,-311.09 1164,-311.09 1164,-264.09 1258,-264.09 1258,-311.09"/>
<text text-anchor="middle" x="1211" y="-279.09" font-family="Times New Roman,serif" font-size="35.00">R232</text>
</a>
</g>
</g>
<!-- R4&#45;&gt;R232 -->
<g id="edge18" class="edge">
<title>R4&#45;&gt;R232</title>
<path fill="none" stroke="black" d="M621.02,-621.26C621.63,-550.72 627.56,-341.86 676,-299.59 745.68,-238.77 1031,-265.45 1153.59,-280.19"/>
<polygon fill="black" stroke="black" points="1152.89,-283.75 1163.24,-281.49 1153.74,-276.8 1152.89,-283.75"/>
<text text-anchor="middle" x="915.5" y="-308.59" font-family="Times New Roman,serif" font-size="30.00"> &#160;&#160;306 &#160;&#160;4% &#160;&#160;4.67e&#45;08 mol/s &#160;&#160;&#160;1.00E+00</text>
</g>
<!-- R202 -->
<g id="node20" class="node">
<title>R202</title>
<g id="a_node20"><a xlink:href="202.svg" xlink:title="R202">
<polygon fill="cornsilk" stroke="none" points="1258,-246.09 1164,-246.09 1164,-199.09 1258,-199.09 1258,-246.09"/>
<text text-anchor="middle" x="1211" y="-214.09" font-family="Times New Roman,serif" font-size="35.00">R202</text>
</a>
</g>
</g>
<!-- R4&#45;&gt;R202 -->
<g id="edge19" class="edge">
<title>R4&#45;&gt;R202</title>
<path fill="none" stroke="black" d="M622.29,-621.32C627.19,-537.02 645.93,-251.08 676,-224.59 711.11,-193.66 1022.89,-210.26 1153.17,-218.67"/>
<polygon fill="black" stroke="black" points="1152.89,-222.22 1163.09,-219.38 1153.34,-215.24 1152.89,-222.22"/>
<text text-anchor="middle" x="915.5" y="-233.59" font-family="Times New Roman,serif" font-size="30.00"> &#160;&#160;307 &#160;&#160;4% &#160;&#160;4.67e&#45;08 mol/s &#160;&#160;&#160;1.00E+00</text>
</g>
<!-- R203 -->
<g id="node21" class="node">
<title>R203</title>
<g id="a_node21"><a xlink:href="203.svg" xlink:title="R203">
<polygon fill="cornsilk" stroke="none" points="1258,-181.09 1164,-181.09 1164,-134.09 1258,-134.09 1258,-181.09"/>
<text text-anchor="middle" x="1211" y="-149.09" font-family="Times New Roman,serif" font-size="35.00">R203</text>
</a>
</g>
</g>
<!-- R4&#45;&gt;R203 -->
<g id="edge20" class="edge">
<title>R4&#45;&gt;R203</title>
<path fill="none" stroke="black" d="M621.95,-621.24C625.88,-530.03 642.31,-201.34 676,-170.59 744.32,-108.23 1030.4,-135.16 1153.39,-150.09"/>
<polygon fill="black" stroke="black" points="1152.72,-153.66 1163.07,-151.41 1153.58,-146.71 1152.72,-153.66"/>
<text text-anchor="middle" x="915.5" y="-179.59" font-family="Times New Roman,serif" font-size="30.00"> &#160;&#160;308 &#160;&#160;4% &#160;&#160;4.67e&#45;08 mol/s &#160;&#160;&#160;1.00E+00</text>
</g>
<!-- R233 -->
<g id="node22" class="node">
<title>R233</title>
<g id="a_node22"><a xlink:href="233.svg" xlink:title="R233">
<polygon fill="cornsilk" stroke="none" points="1258,-116.09 1164,-116.09 1164,-69.09 1258,-69.09 1258,-116.09"/>
<text text-anchor="middle" x="1211" y="-84.09" font-family="Times New Roman,serif" font-size="35.00">R233</text>
</a>
</g>
</g>
<!-- R4&#45;&gt;R233 -->
<g id="edge21" class="edge">
<title>R4&#45;&gt;R233</title>
<path fill="none" stroke="black" d="M621.53,-621.32C624.06,-521.2 636.4,-130.56 676,-94.59 710.63,-63.13 1022.69,-80.04 1153.11,-88.6"/>
<polygon fill="black" stroke="black" points="1152.83,-92.15 1163.04,-89.32 1153.29,-85.17 1152.83,-92.15"/>
<text text-anchor="middle" x="915.5" y="-103.59" font-family="Times New Roman,serif" font-size="30.00"> &#160;&#160;309 &#160;&#160;4% &#160;&#160;4.67e&#45;08 mol/s &#160;&#160;&#160;1.00E+00</text>
</g>
<!-- R234 -->
<g id="node23" class="node">
<title>R234</title>
<g id="a_node23"><a xlink:href="234.svg" xlink:title="R234">
<polygon fill="cornsilk" stroke="none" points="1258,-51.09 1164,-51.09 1164,-4.09 1258,-4.09 1258,-51.09"/>
<text text-anchor="middle" x="1211" y="-19.09" font-family="Times New Roman,serif" font-size="35.00">R234</text>
</a>
</g>
</g>
<!-- R4&#45;&gt;R234 -->
<g id="edge22" class="edge">
<title>R4&#45;&gt;R234</title>
<path fill="none" stroke="black" d="M621.33,-621.2C623.06,-514.8 632.74,-79.99 676,-39.59 743.67,23.62 1030.78,-4.49 1153.74,-19.91"/>
<polygon fill="black" stroke="black" points="1153.05,-23.48 1163.41,-21.27 1153.93,-16.53 1153.05,-23.48"/>
<text text-anchor="middle" x="915.5" y="-48.59" font-family="Times New Roman,serif" font-size="30.00"> &#160;&#160;310 &#160;&#160;4% &#160;&#160;4.67e&#45;08 mol/s &#160;&#160;&#160;1.00E+00</text>
</g>
<!-- R0 -->
<g id="node2" class="node">
<title>R0</title>
<g id="a_node2"><a xlink:href="0.svg" xlink:title="R0">
<polygon fill="cornsilk" stroke="none" points="58,-701.09 0,-701.09 0,-654.09 58,-654.09 58,-701.09"/>
<text text-anchor="middle" x="29" y="-669.09" font-family="Times New Roman,serif" font-size="35.00">R0</text>
</a>
</g>
</g>
<!-- R0&#45;&gt;R4 -->
<g id="edge1" class="edge">
<title>R0&#45;&gt;R4</title>
<path fill="none" stroke="black" stroke-width="6" d="M57.92,-677.97C137.38,-678.73 371.45,-678.67 564,-655.59 566.22,-655.32 568.49,-655.01 570.78,-654.68"/>
<polygon fill="black" stroke="black" stroke-width="6" points="567.31,-665.89 585.16,-652.03 563.62,-645.22 567.31,-665.89"/>
<text text-anchor="middle" x="324.5" y="-686.59" font-family="Times New Roman,serif" font-size="30.00"> &#160;&#160;3 &#160;&#160;100% &#160;&#160;4.67e&#45;08 mol/s &#160;&#160;&#160;1.00E+00</text>
</g>
<!-- R2 -->
<g id="node3" class="node">
<title>R2</title>
<g id="a_node3"><a xlink:href="2.svg" xlink:title="R2">
<polygon fill="cornsilk" stroke="none" points="58,-636.09 0,-636.09 0,-589.09 58,-589.09 58,-636.09"/>
<text text-anchor="middle" x="29" y="-604.09" font-family="Times New Roman,serif" font-size="35.00">R2</text>
</a>
</g>
</g>
<!-- R2&#45;&gt;R4 -->
<g id="edge2" class="edge">
<title>R2&#45;&gt;R4</title>
<path fill="none" stroke="black" stroke-width="6" d="M57.89,-609.62C137.77,-601.85 373.83,-584.11 564,-622.59 566.41,-623.08 568.85,-623.66 571.29,-624.33"/>
<polygon fill="black" stroke="black" stroke-width="6" points="562.73,-632.55 585.06,-629.15 569.57,-612.7 562.73,-632.55"/>
<text text-anchor="middle" x="324.5" y="-631.59" font-family="Times New Roman,serif" font-size="30.00"> &#160;&#160;3 &#160;&#160;100% &#160;&#160;4.67e&#45;08 mol/s &#160;&#160;&#160;1.00E+00</text>
</g>
</g>
</svg>
