<?xml version="1.0" encoding="UTF-8" standalone="no"?>
<!DOCTYPE svg PUBLIC "-//W3C//DTD SVG 1.1//EN"
 "http://www.w3.org/Graphics/SVG/1.1/DTD/svg11.dtd">
<!-- Generated by graphviz version 8.0.3 (20230416.2022)
 -->
<!-- Title: G Pages: 1 -->
<svg width="640pt" height="80pt"
 viewBox="0.00 0.00 720.00 90.55" xmlns="http://www.w3.org/2000/svg" xmlns:xlink="http://www.w3.org/1999/xlink">
<g id="graph0" class="graph" transform="scale(0.715484 0.715484) rotate(0) translate(4 108.5)">
<title>G</title>
<polygon fill="white" stroke="none" points="-4,4 -4,-108.5 890.5,-108.5 890.5,4 -4,4"/>
<text text-anchor="middle" x="443.25" y="-71.7" font-family="Arial" font-size="36.00" fill="blue">Reaction Path Analysis</text>
<!-- CH3C(S) -->
<g id="node1" class="node">
<title>CH3C(S)</title>
<g id="a_node1"><a xlink:href="40.svg" xlink:title="CH3C(S)">
<polygon fill="springgreen" stroke="none" points="886.5,-47 737.5,-47 737.5,0 886.5,0 886.5,-47"/>
<text text-anchor="middle" x="812" y="-15" font-family="Times New Roman,serif" font-size="35.00">CH3C(S)</text>
</a>
</g>
</g>
<!-- CH3COH(S) -->
<g id="node2" class="node">
<title>CH3COH(S)</title>
<g id="a_node2"><a xlink:href="16.svg" xlink:title="CH3COH(S)">
<polygon fill="springgreen" stroke="none" points="200,-47 0,-47 0,0 200,0 200,-47"/>
<text text-anchor="middle" x="100" y="-15" font-family="Times New Roman,serif" font-size="35.00">CH3COH(S)</text>
</a>
</g>
</g>
<!-- CH3COH(S)&#45;&gt;CH3C(S) -->
<g id="edge1" class="edge">
<title>CH3COH(S)&#45;&gt;CH3C(S)</title>
<path fill="none" stroke="black" stroke-width="5" d="M199.72,-23.5C336.57,-23.5 582.21,-23.5 716.68,-23.5"/>
<polygon fill="black" stroke="black" stroke-width="5" points="711.67,-32.25 731.67,-23.5 711.67,-14.75 711.67,-32.25"/>
<text text-anchor="middle" x="456" y="-32.5" font-family="Times New Roman,serif" font-size="30.00"> &#160;&#160;120 &#160;&#160;99% &#160;&#160;1.82e&#45;08 mol/s &#160;&#160;&#160;1.00E+00</text>
</g>
</g>
</svg>
