<?xml version="1.0" encoding="UTF-8" standalone="no"?>
<!DOCTYPE svg PUBLIC "-//W3C//DTD SVG 1.1//EN"
 "http://www.w3.org/Graphics/SVG/1.1/DTD/svg11.dtd">
<!-- Generated by graphviz version 8.0.3 (20230416.2022)
 -->
<!-- Title: G Pages: 1 -->
<svg width="640pt" height="563pt"
 viewBox="0.00 0.00 720.00 633.70" xmlns="http://www.w3.org/2000/svg" xmlns:xlink="http://www.w3.org/1999/xlink">
<g id="graph0" class="graph" transform="scale(0.510367 0.510367) rotate(0) translate(4 1099.7)">
<title>G</title>
<polygon fill="white" stroke="none" points="-4,4 -4,-1099.7 1250,-1099.7 1250,4 -4,4"/>
<text text-anchor="middle" x="623" y="-1062.9" font-family="Arial" font-size="36.00" fill="blue">Reaction Path Analysis</text>
<!-- R41 -->
<g id="node1" class="node">
<title>R41</title>
<g id="a_node1"><a xlink:href="41.svg" xlink:title="R41">
<polygon fill="cornsilk" stroke="none" points="661,-534.2 585,-534.2 585,-487.2 661,-487.2 661,-534.2"/>
<text text-anchor="middle" x="623" y="-502.2" font-family="Times New Roman,serif" font-size="35.00">R41</text>
</a>
</g>
</g>
<!-- R43 -->
<g id="node5" class="node">
<title>R43</title>
<g id="a_node5"><a xlink:href="43.svg" xlink:title="R43">
<polygon fill="cornsilk" stroke="none" points="1237,-1022.2 1161,-1022.2 1161,-975.2 1237,-975.2 1237,-1022.2"/>
<text text-anchor="middle" x="1199" y="-990.2" font-family="Times New Roman,serif" font-size="35.00">R43</text>
</a>
</g>
</g>
<!-- R41&#45;&gt;R43 -->
<g id="edge4" class="edge">
<title>R41&#45;&gt;R43</title>
<path fill="none" stroke="black" d="M625.23,-534C630.2,-623.47 650.02,-941.54 682.5,-971.7 749.31,-1033.75 1035.58,-1014.22 1150.24,-1003.59"/>
<polygon fill="black" stroke="black" points="1150.48,-1006.99 1160.11,-1002.57 1149.82,-1000.02 1150.48,-1006.99"/>
<text text-anchor="middle" x="911" y="-1023.7" font-family="Times New Roman,serif" font-size="30.00"> &#160;&#160;118 &#160;&#160;6% &#160;&#160;0.0342 mol/s &#160;&#160;&#160;1.00E+00</text>
</g>
<!-- R44 -->
<g id="node6" class="node">
<title>R44</title>
<g id="a_node6"><a xlink:href="44.svg" xlink:title="R44">
<polygon fill="cornsilk" stroke="none" points="1237,-957.2 1161,-957.2 1161,-910.2 1237,-910.2 1237,-957.2"/>
<text text-anchor="middle" x="1199" y="-925.2" font-family="Times New Roman,serif" font-size="35.00">R44</text>
</a>
</g>
</g>
<!-- R41&#45;&gt;R44 -->
<g id="edge5" class="edge">
<title>R41&#45;&gt;R44</title>
<path fill="none" stroke="black" d="M623.77,-534.05C623.54,-611.28 627.24,-856.42 682.5,-906.7 716.61,-937.74 1029.1,-936.32 1150.28,-934.57"/>
<polygon fill="black" stroke="black" points="1150.11,-938.06 1160.06,-934.41 1150.01,-931.06 1150.11,-938.06"/>
<text text-anchor="middle" x="911" y="-943.7" font-family="Times New Roman,serif" font-size="30.00"> &#160;&#160;119 &#160;&#160;6% &#160;&#160;0.0342 mol/s &#160;&#160;&#160;1.00E+00</text>
</g>
<!-- R130 -->
<g id="node7" class="node">
<title>R130</title>
<g id="a_node7"><a xlink:href="130.svg" xlink:title="R130">
<polygon fill="cornsilk" stroke="none" points="1246,-892.2 1152,-892.2 1152,-845.2 1246,-845.2 1246,-892.2"/>
<text text-anchor="middle" x="1199" y="-860.2" font-family="Times New Roman,serif" font-size="35.00">R130</text>
</a>
</g>
</g>
<!-- R41&#45;&gt;R130 -->
<g id="edge6" class="edge">
<title>R41&#45;&gt;R130</title>
<path fill="none" stroke="black" d="M624.53,-533.93C626.6,-602.21 636.55,-800 682.5,-840.7 716.24,-870.58 1015.19,-870.79 1141.77,-869.51"/>
<polygon fill="black" stroke="black" points="1141.43,-873.01 1151.39,-869.4 1141.35,-866.01 1141.43,-873.01"/>
<text text-anchor="middle" x="911" y="-878.7" font-family="Times New Roman,serif" font-size="30.00"> &#160;&#160;182 &#160;&#160;6% &#160;&#160;0.0342 mol/s &#160;&#160;&#160;1.00E+00</text>
</g>
<!-- R131 -->
<g id="node8" class="node">
<title>R131</title>
<g id="a_node8"><a xlink:href="131.svg" xlink:title="R131">
<polygon fill="cornsilk" stroke="none" points="1246,-827.2 1152,-827.2 1152,-780.2 1246,-780.2 1246,-827.2"/>
<text text-anchor="middle" x="1199" y="-795.2" font-family="Times New Roman,serif" font-size="35.00">R131</text>
</a>
</g>
</g>
<!-- R41&#45;&gt;R131 -->
<g id="edge7" class="edge">
<title>R41&#45;&gt;R131</title>
<path fill="none" stroke="black" d="M625.62,-533.91C630.24,-592.58 645.6,-744.37 682.5,-775.7 716.82,-804.84 1014.73,-805.49 1141.4,-804.42"/>
<polygon fill="black" stroke="black" points="1141.06,-807.91 1151.02,-804.32 1140.99,-800.91 1141.06,-807.91"/>
<text text-anchor="middle" x="911" y="-812.7" font-family="Times New Roman,serif" font-size="30.00"> &#160;&#160;183 &#160;&#160;6% &#160;&#160;0.0342 mol/s &#160;&#160;&#160;1.00E+00</text>
</g>
<!-- R189 -->
<g id="node10" class="node">
<title>R189</title>
<g id="a_node10"><a xlink:href="189.svg" xlink:title="R189">
<polygon fill="cornsilk" stroke="none" points="1246,-762.2 1152,-762.2 1152,-715.2 1246,-715.2 1246,-762.2"/>
<text text-anchor="middle" x="1199" y="-730.2" font-family="Times New Roman,serif" font-size="35.00">R189</text>
</a>
</g>
</g>
<!-- R41&#45;&gt;R189 -->
<g id="edge9" class="edge">
<title>R41&#45;&gt;R189</title>
<path fill="none" stroke="black" d="M627.36,-533.9C634.82,-581.88 654.37,-689.42 682.5,-711.7 717.75,-739.62 1014.55,-740.36 1141.15,-739.38"/>
<polygon fill="black" stroke="black" points="1141.16,-742.87 1151.13,-739.28 1141.11,-735.87 1141.16,-742.87"/>
<text text-anchor="middle" x="911" y="-747.7" font-family="Times New Roman,serif" font-size="30.00"> &#160;&#160;250 &#160;&#160;6% &#160;&#160;0.0342 mol/s &#160;&#160;&#160;1.00E+00</text>
</g>
<!-- R190 -->
<g id="node11" class="node">
<title>R190</title>
<g id="a_node11"><a xlink:href="190.svg" xlink:title="R190">
<polygon fill="cornsilk" stroke="none" points="1246,-697.2 1152,-697.2 1152,-650.2 1246,-650.2 1246,-697.2"/>
<text text-anchor="middle" x="1199" y="-665.2" font-family="Times New Roman,serif" font-size="35.00">R190</text>
</a>
</g>
</g>
<!-- R41&#45;&gt;R190 -->
<g id="edge10" class="edge">
<title>R41&#45;&gt;R190</title>
<path fill="none" stroke="black" d="M626.24,-534.02C630.72,-566.33 643.95,-623.77 682.5,-650.7 719.35,-676.44 1015.24,-675.96 1141.37,-674.55"/>
<polygon fill="black" stroke="black" points="1141.36,-678.04 1151.32,-674.42 1141.28,-671.04 1141.36,-678.04"/>
<text text-anchor="middle" x="911" y="-683.7" font-family="Times New Roman,serif" font-size="30.00"> &#160;&#160;251 &#160;&#160;6% &#160;&#160;0.0342 mol/s &#160;&#160;&#160;1.00E+00</text>
</g>
<!-- R191 -->
<g id="node12" class="node">
<title>R191</title>
<g id="a_node12"><a xlink:href="191.svg" xlink:title="R191">
<polygon fill="cornsilk" stroke="none" points="1246,-632.2 1152,-632.2 1152,-585.2 1246,-585.2 1246,-632.2"/>
<text text-anchor="middle" x="1199" y="-600.2" font-family="Times New Roman,serif" font-size="35.00">R191</text>
</a>
</g>
</g>
<!-- R41&#45;&gt;R191 -->
<g id="edge11" class="edge">
<title>R41&#45;&gt;R191</title>
<path fill="none" stroke="black" d="M636.51,-533.99C646.59,-550.19 662.39,-570.63 682.5,-580.7 761.49,-620.28 1024.53,-615.5 1141.31,-611.22"/>
<polygon fill="black" stroke="black" points="1141.28,-614.68 1151.14,-610.81 1141.01,-607.69 1141.28,-614.68"/>
<text text-anchor="middle" x="911" y="-622.7" font-family="Times New Roman,serif" font-size="30.00"> &#160;&#160;252 &#160;&#160;6% &#160;&#160;0.0342 mol/s &#160;&#160;&#160;1.00E+00</text>
</g>
<!-- R198 -->
<g id="node13" class="node">
<title>R198</title>
<g id="a_node13"><a xlink:href="198.svg" xlink:title="R198">
<polygon fill="cornsilk" stroke="none" points="1246,-567.2 1152,-567.2 1152,-520.2 1246,-520.2 1246,-567.2"/>
<text text-anchor="middle" x="1199" y="-535.2" font-family="Times New Roman,serif" font-size="35.00">R198</text>
</a>
</g>
</g>
<!-- R41&#45;&gt;R198 -->
<g id="edge12" class="edge">
<title>R41&#45;&gt;R198</title>
<path fill="none" stroke="black" d="M660.7,-518.43C667.9,-519.72 675.42,-520.89 682.5,-521.7 848.57,-540.76 1046.45,-543.72 1141.52,-543.93"/>
<polygon fill="black" stroke="black" points="1141.31,-547.43 1151.32,-543.94 1141.32,-540.43 1141.31,-547.43"/>
<text text-anchor="middle" x="911" y="-552.7" font-family="Times New Roman,serif" font-size="30.00"> &#160;&#160;292 &#160;&#160;6% &#160;&#160;0.0342 mol/s &#160;&#160;&#160;1.00E+00</text>
</g>
<!-- R199 -->
<g id="node14" class="node">
<title>R199</title>
<g id="a_node14"><a xlink:href="199.svg" xlink:title="R199">
<polygon fill="cornsilk" stroke="none" points="1246,-502.2 1152,-502.2 1152,-455.2 1246,-455.2 1246,-502.2"/>
<text text-anchor="middle" x="1199" y="-470.2" font-family="Times New Roman,serif" font-size="35.00">R199</text>
</a>
</g>
</g>
<!-- R41&#45;&gt;R199 -->
<g id="edge13" class="edge">
<title>R41&#45;&gt;R199</title>
<path fill="none" stroke="black" d="M660.9,-494.67C667.95,-492.23 675.36,-490.07 682.5,-488.7 846.76,-457.19 1045.86,-466.35 1141.44,-473.6"/>
<polygon fill="black" stroke="black" points="1141.05,-477.16 1151.3,-474.45 1141.6,-470.18 1141.05,-477.16"/>
<text text-anchor="middle" x="911" y="-497.7" font-family="Times New Roman,serif" font-size="30.00"> &#160;&#160;293 &#160;&#160;6% &#160;&#160;0.0342 mol/s &#160;&#160;&#160;1.00E+00</text>
</g>
<!-- R202 -->
<g id="node16" class="node">
<title>R202</title>
<g id="a_node16"><a xlink:href="202.svg" xlink:title="R202">
<polygon fill="cornsilk" stroke="none" points="1246,-437.2 1152,-437.2 1152,-390.2 1246,-390.2 1246,-437.2"/>
<text text-anchor="middle" x="1199" y="-405.2" font-family="Times New Roman,serif" font-size="35.00">R202</text>
</a>
</g>
</g>
<!-- R41&#45;&gt;R202 -->
<g id="edge15" class="edge">
<title>R41&#45;&gt;R202</title>
<path fill="none" stroke="black" d="M633.51,-487.29C642.82,-467.78 659.05,-441.21 682.5,-428.7 760.46,-387.11 1024.66,-400.74 1141.56,-409.16"/>
<polygon fill="black" stroke="black" points="1141.17,-412.71 1151.4,-409.96 1141.68,-405.73 1141.17,-412.71"/>
<text text-anchor="middle" x="911" y="-437.7" font-family="Times New Roman,serif" font-size="30.00"> &#160;&#160;307 &#160;&#160;6% &#160;&#160;0.0342 mol/s &#160;&#160;&#160;1.00E+00</text>
</g>
<!-- R203 -->
<g id="node17" class="node">
<title>R203</title>
<g id="a_node17"><a xlink:href="203.svg" xlink:title="R203">
<polygon fill="cornsilk" stroke="none" points="1246,-372.2 1152,-372.2 1152,-325.2 1246,-325.2 1246,-372.2"/>
<text text-anchor="middle" x="1199" y="-340.2" font-family="Times New Roman,serif" font-size="35.00">R203</text>
</a>
</g>
</g>
<!-- R41&#45;&gt;R203 -->
<g id="edge16" class="edge">
<title>R41&#45;&gt;R203</title>
<path fill="none" stroke="black" d="M625.57,-487.42C629.25,-453.49 641.53,-391.38 682.5,-362.7 755.05,-311.92 1023.3,-331.26 1141.47,-342.67"/>
<polygon fill="black" stroke="black" points="1140.8,-346.22 1151.09,-343.72 1141.48,-339.26 1140.8,-346.22"/>
<text text-anchor="middle" x="911" y="-371.7" font-family="Times New Roman,serif" font-size="30.00"> &#160;&#160;308 &#160;&#160;6% &#160;&#160;0.0342 mol/s &#160;&#160;&#160;1.00E+00</text>
</g>
<!-- R205 -->
<g id="node18" class="node">
<title>R205</title>
<g id="a_node18"><a xlink:href="205.svg" xlink:title="R205">
<polygon fill="cornsilk" stroke="none" points="1246,-307.2 1152,-307.2 1152,-260.2 1246,-260.2 1246,-307.2"/>
<text text-anchor="middle" x="1199" y="-275.2" font-family="Times New Roman,serif" font-size="35.00">R205</text>
</a>
</g>
</g>
<!-- R41&#45;&gt;R205 -->
<g id="edge17" class="edge">
<title>R41&#45;&gt;R205</title>
<path fill="none" stroke="black" d="M626.72,-487.32C633.22,-435.96 651.47,-315.91 682.5,-291.7 752.38,-237.17 1022.71,-262.23 1141.49,-276.37"/>
<polygon fill="black" stroke="black" points="1140.81,-279.93 1151.16,-277.66 1141.65,-272.98 1140.81,-279.93"/>
<text text-anchor="middle" x="911" y="-300.7" font-family="Times New Roman,serif" font-size="30.00"> &#160;&#160;344 &#160;&#160;6% &#160;&#160;0.034 mol/s &#160;&#160;&#160;9.94E&#45;01</text>
</g>
<!-- R206 -->
<g id="node19" class="node">
<title>R206</title>
<g id="a_node19"><a xlink:href="206.svg" xlink:title="R206">
<polygon fill="cornsilk" stroke="none" points="1246,-242.2 1152,-242.2 1152,-195.2 1246,-195.2 1246,-242.2"/>
<text text-anchor="middle" x="1199" y="-210.2" font-family="Times New Roman,serif" font-size="35.00">R206</text>
</a>
</g>
</g>
<!-- R41&#45;&gt;R206 -->
<g id="edge18" class="edge">
<title>R41&#45;&gt;R206</title>
<path fill="none" stroke="black" d="M625.05,-487.52C628.4,-424.86 641.23,-254.61 682.5,-220.7 717.23,-192.17 1014.91,-207.19 1141.45,-214.97"/>
<polygon fill="black" stroke="black" points="1140.87,-218.51 1151.07,-215.63 1141.31,-211.52 1140.87,-218.51"/>
<text text-anchor="middle" x="911" y="-229.7" font-family="Times New Roman,serif" font-size="30.00"> &#160;&#160;345 &#160;&#160;6% &#160;&#160;0.0342 mol/s &#160;&#160;&#160;1.00E+00</text>
</g>
<!-- R255 -->
<g id="node20" class="node">
<title>R255</title>
<g id="a_node20"><a xlink:href="255.svg" xlink:title="R255">
<polygon fill="cornsilk" stroke="none" points="1246,-177.2 1152,-177.2 1152,-130.2 1246,-130.2 1246,-177.2"/>
<text text-anchor="middle" x="1199" y="-145.2" font-family="Times New Roman,serif" font-size="35.00">R255</text>
</a>
</g>
</g>
<!-- R41&#45;&gt;R255 -->
<g id="edge19" class="edge">
<title>R41&#45;&gt;R255</title>
<path fill="none" stroke="black" d="M624.31,-487.26C625.77,-416.86 634.19,-209.61 682.5,-167.7 749.56,-109.53 1022.06,-133.08 1141.48,-146.65"/>
<polygon fill="black" stroke="black" points="1140.87,-150.22 1151.2,-147.89 1141.67,-143.27 1140.87,-150.22"/>
<text text-anchor="middle" x="911" y="-176.7" font-family="Times New Roman,serif" font-size="30.00"> &#160;&#160;346 &#160;&#160;5% &#160;&#160;0.0317 mol/s &#160;&#160;&#160;9.33E&#45;01</text>
</g>
<!-- R212 -->
<g id="node21" class="node">
<title>R212</title>
<g id="a_node21"><a xlink:href="212.svg" xlink:title="R212">
<polygon fill="cornsilk" stroke="none" points="1246,-112.2 1152,-112.2 1152,-65.2 1246,-65.2 1246,-112.2"/>
<text text-anchor="middle" x="1199" y="-80.2" font-family="Times New Roman,serif" font-size="35.00">R212</text>
</a>
</g>
</g>
<!-- R41&#45;&gt;R212 -->
<g id="edge20" class="edge">
<title>R41&#45;&gt;R212</title>
<path fill="none" stroke="black" d="M623.5,-487.43C622.31,-407.45 623.1,-145.86 682.5,-93.7 716.32,-64.01 1015.22,-77.89 1141.78,-85.2"/>
<polygon fill="black" stroke="black" points="1141.21,-88.73 1151.4,-85.82 1141.62,-81.74 1141.21,-88.73"/>
<text text-anchor="middle" x="911" y="-102.7" font-family="Times New Roman,serif" font-size="30.00"> &#160;&#160;394 &#160;&#160;6% &#160;&#160;0.0341 mol/s &#160;&#160;&#160;9.99E&#45;01</text>
</g>
<!-- R213 -->
<g id="node22" class="node">
<title>R213</title>
<g id="a_node22"><a xlink:href="213.svg" xlink:title="R213">
<polygon fill="cornsilk" stroke="none" points="1246,-47.2 1152,-47.2 1152,-0.2 1246,-0.2 1246,-47.2"/>
<text text-anchor="middle" x="1199" y="-15.2" font-family="Times New Roman,serif" font-size="35.00">R213</text>
</a>
</g>
</g>
<!-- R41&#45;&gt;R213 -->
<g id="edge21" class="edge">
<title>R41&#45;&gt;R213</title>
<path fill="none" stroke="black" d="M625.14,-487.45C629.81,-396.62 648.87,-69.3 682.5,-38.7 748.16,21.05 1021.43,-2.77 1141.26,-16.54"/>
<polygon fill="black" stroke="black" points="1140.69,-20.11 1151.03,-17.8 1141.5,-13.16 1140.69,-20.11"/>
<text text-anchor="middle" x="911" y="-47.7" font-family="Times New Roman,serif" font-size="30.00"> &#160;&#160;395 &#160;&#160;6% &#160;&#160;0.0333 mol/s &#160;&#160;&#160;9.75E&#45;01</text>
</g>
<!-- R2 -->
<g id="node2" class="node">
<title>R2</title>
<g id="a_node2"><a xlink:href="2.svg" xlink:title="R2">
<polygon fill="cornsilk" stroke="none" points="76,-795.2 18,-795.2 18,-748.2 76,-748.2 76,-795.2"/>
<text text-anchor="middle" x="47" y="-763.2" font-family="Times New Roman,serif" font-size="35.00">R2</text>
</a>
</g>
</g>
<!-- R2&#45;&gt;R41 -->
<g id="edge1" class="edge">
<title>R2&#45;&gt;R41</title>
<path fill="none" stroke="black" d="M75.72,-780.38C160.63,-805.09 420.25,-866.42 567,-743.7 597.19,-718.46 612.81,-603.06 618.9,-544.7"/>
<polygon fill="black" stroke="black" points="622.47,-545.14 619.99,-534.84 615.51,-544.44 622.47,-545.14"/>
<text text-anchor="middle" x="335" y="-825.7" font-family="Times New Roman,serif" font-size="30.00"> &#160;&#160;46 &#160;&#160;0% &#160;&#160;0.0342 mol/s &#160;&#160;&#160;1.00E+00</text>
</g>
<!-- R13 -->
<g id="node3" class="node">
<title>R13</title>
<g id="a_node3"><a xlink:href="13.svg" xlink:title="R13">
<polygon fill="cornsilk" stroke="none" points="85,-730.2 9,-730.2 9,-683.2 85,-683.2 85,-730.2"/>
<text text-anchor="middle" x="47" y="-698.2" font-family="Times New Roman,serif" font-size="35.00">R13</text>
</a>
</g>
</g>
<!-- R13&#45;&gt;R41 -->
<g id="edge2" class="edge">
<title>R13&#45;&gt;R41</title>
<path fill="none" stroke="black" d="M84.96,-707.16C197.25,-708.22 529,-708.83 567,-679.7 608.34,-648.01 619.08,-584.61 621.59,-545.11"/>
<polygon fill="black" stroke="black" points="625.13,-545.33 622.12,-535.17 618.14,-544.99 625.13,-545.33"/>
<text text-anchor="middle" x="335" y="-715.7" font-family="Times New Roman,serif" font-size="30.00"> &#160;&#160;46 &#160;&#160;0% &#160;&#160;0.0342 mol/s &#160;&#160;&#160;1.00E+00</text>
</g>
<!-- R8 -->
<g id="node4" class="node">
<title>R8</title>
<g id="a_node4"><a xlink:href="8.svg" xlink:title="R8">
<polygon fill="cornsilk" stroke="none" points="76,-653.2 18,-653.2 18,-606.2 76,-606.2 76,-653.2"/>
<text text-anchor="middle" x="47" y="-621.2" font-family="Times New Roman,serif" font-size="35.00">R8</text>
</a>
</g>
</g>
<!-- R8&#45;&gt;R41 -->
<g id="edge3" class="edge">
<title>R8&#45;&gt;R41</title>
<path fill="none" stroke="black" d="M75.83,-631.37C177.56,-637.23 525.56,-655.16 567,-628.7 595.93,-610.23 609.89,-572.16 616.46,-544.23"/>
<polygon fill="black" stroke="black" points="620.04,-545.23 618.7,-534.72 613.19,-543.77 620.04,-545.23"/>
<text text-anchor="middle" x="335" y="-651.7" font-family="Times New Roman,serif" font-size="30.00"> &#160;&#160;99 &#160;&#160;0% &#160;&#160;0.00272 mol/s &#160;&#160;&#160;1.00E+00</text>
</g>
<!-- R8&#45;&gt;R41 -->
<g id="edge25" class="edge">
<title>R8&#45;&gt;R41</title>
<path fill="none" stroke="black" stroke-width="5" d="M75.46,-606.27C83.79,-600.44 93.31,-594.94 103,-591.7 200.87,-558.97 473.77,-616.94 567,-572.7 577.89,-567.54 587.54,-559.11 595.59,-550.12"/>
<polygon fill="black" stroke="black" stroke-width="5" points="599.86,-559.03 605.3,-537.89 586.08,-548.25 599.86,-559.03"/>
<text text-anchor="middle" x="335" y="-600.7" font-family="Times New Roman,serif" font-size="30.00"> &#160;&#160;436 &#160;&#160;99% &#160;&#160;1590.0 mol/s &#160;&#160;&#160;1.71E&#45;06</text>
</g>
<!-- R132 -->
<g id="node9" class="node">
<title>R132</title>
<g id="a_node9"><a xlink:href="132.svg" xlink:title="R132">
<polygon fill="cornsilk" stroke="none" points="94,-574.2 0,-574.2 0,-527.2 94,-527.2 94,-574.2"/>
<text text-anchor="middle" x="47" y="-542.2" font-family="Times New Roman,serif" font-size="35.00">R132</text>
</a>
</g>
</g>
<!-- R132&#45;&gt;R41 -->
<g id="edge8" class="edge">
<title>R132&#45;&gt;R41</title>
<path fill="none" stroke="black" d="M93.83,-541.01C96.93,-540.52 100,-540.07 103,-539.7 307.9,-514.27 361.17,-533.02 567,-516.7 569.37,-516.51 571.8,-516.31 574.25,-516.08"/>
<polygon fill="black" stroke="black" points="574.43,-519.49 584.05,-515.04 573.76,-512.52 574.43,-519.49"/>
<text text-anchor="middle" x="335" y="-548.7" font-family="Times New Roman,serif" font-size="30.00"> &#160;&#160;184 &#160;&#160;0% &#160;&#160;0.166 mol/s &#160;&#160;&#160;1.46E&#45;01</text>
</g>
<!-- R224 -->
<g id="node15" class="node">
<title>R224</title>
<g id="a_node15"><a xlink:href="224.svg" xlink:title="R224">
<polygon fill="cornsilk" stroke="none" points="94,-509.2 0,-509.2 0,-462.2 94,-462.2 94,-509.2"/>
<text text-anchor="middle" x="47" y="-477.2" font-family="Times New Roman,serif" font-size="35.00">R224</text>
</a>
</g>
</g>
<!-- R224&#45;&gt;R41 -->
<g id="edge14" class="edge">
<title>R224&#45;&gt;R41</title>
<path fill="none" stroke="black" d="M93.91,-478.55C185.39,-465.81 396.29,-444.06 567,-483.7 569.67,-484.32 572.37,-485.09 575.05,-485.98"/>
<polygon fill="black" stroke="black" points="573.69,-489.58 584.28,-489.87 576.18,-483.04 573.69,-489.58"/>
<text text-anchor="middle" x="335" y="-492.7" font-family="Times New Roman,serif" font-size="30.00"> &#160;&#160;294 &#160;&#160;0% &#160;&#160;0.014 mol/s &#160;&#160;&#160;4.15E&#45;01</text>
</g>
<!-- R292 -->
<g id="node23" class="node">
<title>R292</title>
<g id="a_node23"><a xlink:href="292.svg" xlink:title="R292">
<polygon fill="cornsilk" stroke="none" points="94,-444.2 0,-444.2 0,-397.2 94,-397.2 94,-444.2"/>
<text text-anchor="middle" x="47" y="-412.2" font-family="Times New Roman,serif" font-size="35.00">R292</text>
</a>
</g>
</g>
<!-- R292&#45;&gt;R41 -->
<g id="edge22" class="edge">
<title>R292&#45;&gt;R41</title>
<path fill="none" stroke="black" d="M93.71,-418.48C212.81,-413.05 526.27,-401.11 567,-423.7 587.66,-435.16 601.65,-458 610.35,-477.4"/>
<polygon fill="black" stroke="black" points="607.46,-478.55 614.54,-486.44 613.92,-475.86 607.46,-478.55"/>
<text text-anchor="middle" x="335" y="-432.7" font-family="Times New Roman,serif" font-size="30.00"> &#160;&#160;396 &#160;&#160;0% &#160;&#160;0.0284 mol/s &#160;&#160;&#160;3.53E&#45;01</text>
</g>
<!-- R293 -->
<g id="node24" class="node">
<title>R293</title>
<g id="a_node24"><a xlink:href="293.svg" xlink:title="R293">
<polygon fill="cornsilk" stroke="none" points="94,-379.2 0,-379.2 0,-332.2 94,-332.2 94,-379.2"/>
<text text-anchor="middle" x="47" y="-347.2" font-family="Times New Roman,serif" font-size="35.00">R293</text>
</a>
</g>
</g>
<!-- R293&#45;&gt;R41 -->
<g id="edge23" class="edge">
<title>R293&#45;&gt;R41</title>
<path fill="none" stroke="black" d="M93.57,-354.39C213.05,-351.32 528.82,-345.89 567,-372.7 600.61,-396.3 613.69,-443.93 618.77,-476.57"/>
<polygon fill="black" stroke="black" points="615.43,-476.99 620.26,-486.42 622.37,-476.04 615.43,-476.99"/>
<text text-anchor="middle" x="335" y="-381.7" font-family="Times New Roman,serif" font-size="30.00"> &#160;&#160;397 &#160;&#160;0% &#160;&#160;0.047 mol/s &#160;&#160;&#160;2.96E&#45;01</text>
</g>
<!-- R28 -->
<g id="node25" class="node">
<title>R28</title>
<g id="a_node25"><a xlink:href="28.svg" xlink:title="R28">
<polygon fill="cornsilk" stroke="none" points="85,-295.2 9,-295.2 9,-248.2 85,-248.2 85,-295.2"/>
<text text-anchor="middle" x="47" y="-263.2" font-family="Times New Roman,serif" font-size="35.00">R28</text>
</a>
</g>
</g>
<!-- R28&#45;&gt;R41 -->
<g id="edge24" class="edge">
<title>R28&#45;&gt;R41</title>
<path fill="none" stroke="black" d="M84.89,-286.02C90.87,-287.89 97.05,-289.54 103,-290.7 153.67,-300.56 526.68,-282.46 567,-314.7 592.21,-334.86 609.45,-426.06 617.25,-476.64"/>
<polygon fill="black" stroke="black" points="613.92,-477 618.86,-486.37 620.84,-475.97 613.92,-477"/>
<text text-anchor="middle" x="335" y="-323.7" font-family="Times New Roman,serif" font-size="30.00"> &#160;&#160;433 &#160;&#160;0% &#160;&#160;0.00269 mol/s &#160;&#160;&#160;9.88E&#45;01</text>
</g>
<!-- R28&#45;&gt;R41 -->
<g id="edge26" class="edge">
<title>R28&#45;&gt;R41</title>
<path fill="none" stroke="black" d="M84.81,-255.87C177.53,-218.74 423.46,-137.63 567,-253.7 601.22,-281.38 615.1,-413.29 619.86,-476.62"/>
<polygon fill="black" stroke="black" points="616.42,-476.52 620.62,-486.25 623.4,-476.02 616.42,-476.52"/>
<text text-anchor="middle" x="335" y="-262.7" font-family="Times New Roman,serif" font-size="30.00"> &#160;&#160;437 &#160;&#160;0% &#160;&#160;0.221 mol/s &#160;&#160;&#160;1.20E&#45;02</text>
</g>
</g>
</svg>
