<?xml version="1.0" encoding="UTF-8" standalone="no"?>
<!DOCTYPE svg PUBLIC "-//W3C//DTD SVG 1.1//EN"
 "http://www.w3.org/Graphics/SVG/1.1/DTD/svg11.dtd">
<!-- Generated by graphviz version 8.0.3 (20230416.2022)
 -->
<!-- Title: G Pages: 1 -->
<svg width="640pt" height="218pt"
 viewBox="0.00 0.00 720.00 245.32" xmlns="http://www.w3.org/2000/svg" xmlns:xlink="http://www.w3.org/1999/xlink">
<g id="graph0" class="graph" transform="scale(0.503937 0.503937) rotate(0) translate(4 428.71)">
<title>G</title>
<polygon fill="white" stroke="none" points="-4,4 -4,-428.71 1266,-428.71 1266,4 -4,4"/>
<text text-anchor="middle" x="631" y="-391.91" font-family="Arial" font-size="36.00" fill="blue">Reaction Path Analysis</text>
<!-- R42 -->
<g id="node1" class="node">
<title>R42</title>
<g id="a_node1"><a xlink:href="42.svg" xlink:title="R42">
<polygon fill="cornsilk" stroke="none" points="669,-201.21 593,-201.21 593,-154.21 669,-154.21 669,-201.21"/>
<text text-anchor="middle" x="631" y="-169.21" font-family="Times New Roman,serif" font-size="35.00">R42</text>
</a>
</g>
</g>
<!-- R133 -->
<g id="node6" class="node">
<title>R133</title>
<g id="a_node6"><a xlink:href="133.svg" xlink:title="R133">
<polygon fill="cornsilk" stroke="none" points="1262,-331.21 1168,-331.21 1168,-284.21 1262,-284.21 1262,-331.21"/>
<text text-anchor="middle" x="1215" y="-299.21" font-family="Times New Roman,serif" font-size="35.00">R133</text>
</a>
</g>
</g>
<!-- R42&#45;&gt;R133 -->
<g id="edge5" class="edge">
<title>R42&#45;&gt;R133</title>
<path fill="none" stroke="black" stroke-width="2" d="M637.33,-201.15C644.26,-225.63 658.93,-262.89 687,-280.71 834.56,-374.41 1054.9,-343.44 1157.57,-321.59"/>
<polygon fill="black" stroke="black" stroke-width="2" points="1157.29,-324.79 1166.32,-319.24 1155.8,-317.95 1157.29,-324.79"/>
<text text-anchor="middle" x="923" y="-352.71" font-family="Times New Roman,serif" font-size="30.00"> &#160;&#160;185 &#160;&#160;23% &#160;&#160;0.0342 mol/s &#160;&#160;&#160;9.99E&#45;01</text>
</g>
<!-- R225 -->
<g id="node8" class="node">
<title>R225</title>
<g id="a_node8"><a xlink:href="225.svg" xlink:title="R225">
<polygon fill="cornsilk" stroke="none" points="1262,-266.21 1168,-266.21 1168,-219.21 1262,-219.21 1262,-266.21"/>
<text text-anchor="middle" x="1215" y="-234.21" font-family="Times New Roman,serif" font-size="35.00">R225</text>
</a>
</g>
</g>
<!-- R42&#45;&gt;R225 -->
<g id="edge7" class="edge">
<title>R42&#45;&gt;R225</title>
<path fill="none" stroke="green" d="M660.42,-201.03C668.54,-206.49 677.72,-211.61 687,-214.71 772.76,-243.38 1039.56,-244.49 1157.25,-243.49"/>
<polygon fill="green" stroke="green" points="1157.2,-246.98 1167.16,-243.39 1157.13,-239.98 1157.2,-246.98"/>
<text text-anchor="middle" x="923" y="-252.71" font-family="Times New Roman,serif" font-size="30.00"> &#160;&#160;295 &#160;&#160;4% &#160;&#160;0.006 mol/s &#160;&#160;&#160;5.48E&#45;01</text>
</g>
<!-- R256 -->
<g id="node9" class="node">
<title>R256</title>
<g id="a_node9"><a xlink:href="256.svg" xlink:title="R256">
<polygon fill="cornsilk" stroke="none" points="1262,-201.21 1168,-201.21 1168,-154.21 1262,-154.21 1262,-201.21"/>
<text text-anchor="middle" x="1215" y="-169.21" font-family="Times New Roman,serif" font-size="35.00">R256</text>
</a>
</g>
</g>
<!-- R42&#45;&gt;R256 -->
<g id="edge8" class="edge">
<title>R42&#45;&gt;R256</title>
<path fill="none" stroke="black" stroke-width="2" d="M668.85,-177.71C767.61,-177.71 1038.77,-177.71 1157.3,-177.71"/>
<polygon fill="black" stroke="black" stroke-width="2" points="1155.28,-181.21 1165.28,-177.71 1155.28,-174.21 1155.28,-181.21"/>
<text text-anchor="middle" x="923" y="-186.71" font-family="Times New Roman,serif" font-size="30.00"> &#160;&#160;347 &#160;&#160;23% &#160;&#160;0.0341 mol/s &#160;&#160;&#160;9.97E&#45;01</text>
</g>
<!-- R294 -->
<g id="node10" class="node">
<title>R294</title>
<g id="a_node10"><a xlink:href="294.svg" xlink:title="R294">
<polygon fill="cornsilk" stroke="none" points="1262,-136.21 1168,-136.21 1168,-89.21 1262,-89.21 1262,-136.21"/>
<text text-anchor="middle" x="1215" y="-104.21" font-family="Times New Roman,serif" font-size="35.00">R294</text>
</a>
</g>
</g>
<!-- R42&#45;&gt;R294 -->
<g id="edge9" class="edge">
<title>R42&#45;&gt;R294</title>
<path fill="none" stroke="black" stroke-width="2" d="M660.42,-154.39C668.54,-148.94 677.72,-143.81 687,-140.71 850.58,-86.03 1058.54,-96.63 1157.17,-106.07"/>
<polygon fill="black" stroke="black" stroke-width="2" points="1154.78,-109.64 1165.08,-107.15 1155.47,-102.68 1154.78,-109.64"/>
<text text-anchor="middle" x="923" y="-149.71" font-family="Times New Roman,serif" font-size="30.00"> &#160;&#160;398 &#160;&#160;23% &#160;&#160;0.0342 mol/s &#160;&#160;&#160;1.00E+00</text>
</g>
<!-- R295 -->
<g id="node11" class="node">
<title>R295</title>
<g id="a_node11"><a xlink:href="295.svg" xlink:title="R295">
<polygon fill="cornsilk" stroke="none" points="1262,-71.21 1168,-71.21 1168,-24.21 1262,-24.21 1262,-71.21"/>
<text text-anchor="middle" x="1215" y="-39.21" font-family="Times New Roman,serif" font-size="35.00">R295</text>
</a>
</g>
</g>
<!-- R42&#45;&gt;R295 -->
<g id="edge10" class="edge">
<title>R42&#45;&gt;R295</title>
<path fill="none" stroke="black" stroke-width="2" d="M635.53,-154.52C641.11,-126.84 654.85,-81.68 687,-60.71 833.4,34.79 1054.68,-4.97 1157.63,-31.33"/>
<polygon fill="black" stroke="black" stroke-width="2" points="1155.55,-34.92 1166.11,-34.07 1157.32,-28.15 1155.55,-34.92"/>
<text text-anchor="middle" x="923" y="-69.71" font-family="Times New Roman,serif" font-size="30.00"> &#160;&#160;399 &#160;&#160;23% &#160;&#160;0.0342 mol/s &#160;&#160;&#160;1.00E+00</text>
</g>
<!-- R13 -->
<g id="node2" class="node">
<title>R13</title>
<g id="a_node2"><a xlink:href="13.svg" xlink:title="R13">
<polygon fill="cornsilk" stroke="none" points="85,-331.21 9,-331.21 9,-284.21 85,-284.21 85,-331.21"/>
<text text-anchor="middle" x="47" y="-299.21" font-family="Times New Roman,serif" font-size="35.00">R13</text>
</a>
</g>
</g>
<!-- R13&#45;&gt;R42 -->
<g id="edge1" class="edge">
<title>R13&#45;&gt;R42</title>
<path fill="none" stroke="black" d="M84.99,-316.61C175.05,-336.09 409.8,-373.7 567.5,-279.71 592.99,-264.52 609.49,-234.52 619.1,-210.97"/>
<polygon fill="black" stroke="black" points="622.61,-212.6 622.92,-202.01 616.07,-210.09 622.61,-212.6"/>
<text text-anchor="middle" x="339" y="-348.71" font-family="Times New Roman,serif" font-size="30.00"> &#160;&#160;47 &#160;&#160;0% &#160;&#160;0.0342 mol/s &#160;&#160;&#160;1.00E+00</text>
</g>
<!-- R2 -->
<g id="node3" class="node">
<title>R2</title>
<g id="a_node3"><a xlink:href="2.svg" xlink:title="R2">
<polygon fill="cornsilk" stroke="none" points="76,-266.21 18,-266.21 18,-219.21 76,-219.21 76,-266.21"/>
<text text-anchor="middle" x="47" y="-234.21" font-family="Times New Roman,serif" font-size="35.00">R2</text>
</a>
</g>
</g>
<!-- R2&#45;&gt;R42 -->
<g id="edge2" class="edge">
<title>R2&#45;&gt;R42</title>
<path fill="none" stroke="black" d="M75.9,-242.95C169.9,-243.48 474.36,-242.93 567.5,-214.71 574.39,-212.63 581.32,-209.63 587.92,-206.23"/>
<polygon fill="black" stroke="black" points="589.27,-208.93 596.33,-201.02 585.88,-202.81 589.27,-208.93"/>
<text text-anchor="middle" x="339" y="-251.71" font-family="Times New Roman,serif" font-size="30.00"> &#160;&#160;47 &#160;&#160;0% &#160;&#160;0.0342 mol/s &#160;&#160;&#160;1.00E+00</text>
</g>
<!-- R0 -->
<g id="node4" class="node">
<title>R0</title>
<g id="a_node4"><a xlink:href="0.svg" xlink:title="R0">
<polygon fill="cornsilk" stroke="none" points="76,-201.21 18,-201.21 18,-154.21 76,-154.21 76,-201.21"/>
<text text-anchor="middle" x="47" y="-169.21" font-family="Times New Roman,serif" font-size="35.00">R0</text>
</a>
</g>
</g>
<!-- R0&#45;&gt;R42 -->
<g id="edge3" class="edge">
<title>R0&#45;&gt;R42</title>
<path fill="none" stroke="black" d="M75.68,-177.71C167.92,-177.71 465.6,-177.71 582.37,-177.71"/>
<polygon fill="black" stroke="black" points="582.09,-181.21 592.09,-177.71 582.09,-174.21 582.09,-181.21"/>
<text text-anchor="middle" x="339" y="-186.71" font-family="Times New Roman,serif" font-size="30.00"> &#160;&#160;114 &#160;&#160;0% &#160;&#160;0.0342 mol/s &#160;&#160;&#160;1.00E+00</text>
</g>
<!-- R27 -->
<g id="node5" class="node">
<title>R27</title>
<g id="a_node5"><a xlink:href="27.svg" xlink:title="R27">
<polygon fill="cornsilk" stroke="none" points="85,-136.21 9,-136.21 9,-89.21 85,-89.21 85,-136.21"/>
<text text-anchor="middle" x="47" y="-104.21" font-family="Times New Roman,serif" font-size="35.00">R27</text>
</a>
</g>
</g>
<!-- R27&#45;&gt;R42 -->
<g id="edge4" class="edge">
<title>R27&#45;&gt;R42</title>
<path fill="none" stroke="black" d="M84.93,-108.8C171.49,-100.9 393.32,-87.94 567.5,-140.71 574.39,-142.8 581.32,-145.8 587.92,-149.2"/>
<polygon fill="black" stroke="black" points="585.88,-152.62 596.33,-154.4 589.27,-146.5 585.88,-152.62"/>
<text text-anchor="middle" x="339" y="-149.71" font-family="Times New Roman,serif" font-size="30.00"> &#160;&#160;114 &#160;&#160;0% &#160;&#160;0.0342 mol/s &#160;&#160;&#160;1.00E+00</text>
</g>
<!-- R192 -->
<g id="node7" class="node">
<title>R192</title>
<g id="a_node7"><a xlink:href="192.svg" xlink:title="R192">
<polygon fill="cornsilk" stroke="none" points="94,-71.21 0,-71.21 0,-24.21 94,-24.21 94,-71.21"/>
<text text-anchor="middle" x="47" y="-39.21" font-family="Times New Roman,serif" font-size="35.00">R192</text>
</a>
</g>
</g>
<!-- R192&#45;&gt;R42 -->
<g id="edge6" class="edge">
<title>R192&#45;&gt;R42</title>
<path fill="none" stroke="black" stroke-width="5" d="M93.91,-35.06C190.01,-11.41 415.96,29.21 567.5,-63.71 593.06,-79.38 608.92,-109.48 618.26,-134.81"/>
<polygon fill="black" stroke="black" stroke-width="5" points="609.17,-133.22 623.65,-149.55 625.82,-127.83 609.17,-133.22"/>
<text text-anchor="middle" x="339" y="-72.71" font-family="Times New Roman,serif" font-size="30.00"> &#160;&#160;253 &#160;&#160;98% &#160;&#160;5.4 mol/s &#160;&#160;&#160;6.25E&#45;03</text>
</g>
</g>
</svg>
