<?xml version="1.0" encoding="UTF-8" standalone="no"?>
<!DOCTYPE svg PUBLIC "-//W3C//DTD SVG 1.1//EN"
 "http://www.w3.org/Graphics/SVG/1.1/DTD/svg11.dtd">
<!-- Generated by graphviz version 8.0.3 (20230416.2022)
 -->
<!-- Title: G Pages: 1 -->
<svg width="640pt" height="223pt"
 viewBox="0.00 0.00 720.00 250.38" xmlns="http://www.w3.org/2000/svg" xmlns:xlink="http://www.w3.org/1999/xlink">
<g id="graph0" class="graph" transform="scale(0.490421 0.490421) rotate(0) translate(4 449.82)">
<title>G</title>
<polygon fill="white" stroke="none" points="-4,4 -4,-449.82 1301,-449.82 1301,4 -4,4"/>
<text text-anchor="middle" x="648.5" y="-413.02" font-family="Arial" font-size="36.00" fill="blue">Reaction Path Analysis</text>
<!-- R42 -->
<g id="node1" class="node">
<title>R42</title>
<g id="a_node1"><a xlink:href="42.svg" xlink:title="R42">
<polygon fill="cornsilk" stroke="none" points="682,-209.32 606,-209.32 606,-162.32 682,-162.32 682,-209.32"/>
<text text-anchor="middle" x="644" y="-177.32" font-family="Times New Roman,serif" font-size="35.00">R42</text>
</a>
</g>
</g>
<!-- R133 -->
<g id="node6" class="node">
<title>R133</title>
<g id="a_node6"><a xlink:href="133.svg" xlink:title="R133">
<polygon fill="cornsilk" stroke="none" points="1297,-372.32 1203,-372.32 1203,-325.32 1297,-325.32 1297,-372.32"/>
<text text-anchor="middle" x="1250" y="-340.32" font-family="Times New Roman,serif" font-size="35.00">R133</text>
</a>
</g>
</g>
<!-- R42&#45;&gt;R133 -->
<g id="edge5" class="edge">
<title>R42&#45;&gt;R133</title>
<path fill="none" stroke="black" d="M646.57,-209.28C650.14,-241.78 661.81,-299.59 700,-326.82 777.56,-382.13 1068.25,-364.53 1192.31,-354.12"/>
<polygon fill="black" stroke="black" points="1192.42,-357.54 1202.08,-353.2 1191.82,-350.56 1192.42,-357.54"/>
<text text-anchor="middle" x="947" y="-373.82" font-family="Times New Roman,serif" font-size="30.00"> &#160;&#160;185 &#160;&#160;16% &#160;&#160;2.18e&#45;15 mol/s &#160;&#160;&#160;1.00E+00</text>
</g>
<!-- R192 -->
<g id="node7" class="node">
<title>R192</title>
<g id="a_node7"><a xlink:href="192.svg" xlink:title="R192">
<polygon fill="cornsilk" stroke="none" points="1297,-307.32 1203,-307.32 1203,-260.32 1297,-260.32 1297,-307.32"/>
<text text-anchor="middle" x="1250" y="-275.32" font-family="Times New Roman,serif" font-size="35.00">R192</text>
</a>
</g>
</g>
<!-- R42&#45;&gt;R192 -->
<g id="edge6" class="edge">
<title>R42&#45;&gt;R192</title>
<path fill="none" stroke="black" d="M656.41,-209.1C665.72,-225.3 680.51,-245.73 700,-255.82 784.42,-299.55 1069.97,-292.17 1192.45,-286.75"/>
<polygon fill="black" stroke="black" points="1192.25,-290.22 1202.08,-286.27 1191.93,-283.23 1192.25,-290.22"/>
<text text-anchor="middle" x="947" y="-299.82" font-family="Times New Roman,serif" font-size="30.00"> &#160;&#160;253 &#160;&#160;16% &#160;&#160;2.18e&#45;15 mol/s &#160;&#160;&#160;1.00E+00</text>
</g>
<!-- R225 -->
<g id="node8" class="node">
<title>R225</title>
<g id="a_node8"><a xlink:href="225.svg" xlink:title="R225">
<polygon fill="cornsilk" stroke="none" points="1297,-242.32 1203,-242.32 1203,-195.32 1297,-195.32 1297,-242.32"/>
<text text-anchor="middle" x="1250" y="-210.32" font-family="Times New Roman,serif" font-size="35.00">R225</text>
</a>
</g>
</g>
<!-- R42&#45;&gt;R225 -->
<g id="edge7" class="edge">
<title>R42&#45;&gt;R225</title>
<path fill="none" stroke="black" d="M681.85,-194.02C687.89,-195.13 694.1,-196.12 700,-196.82 878.94,-218.17 1092.76,-219.99 1192.53,-219.48"/>
<polygon fill="black" stroke="black" points="1192.28,-222.97 1202.26,-219.41 1192.24,-215.97 1192.28,-222.97"/>
<text text-anchor="middle" x="947" y="-227.82" font-family="Times New Roman,serif" font-size="30.00"> &#160;&#160;295 &#160;&#160;16% &#160;&#160;2.18e&#45;15 mol/s &#160;&#160;&#160;1.00E+00</text>
</g>
<!-- R256 -->
<g id="node9" class="node">
<title>R256</title>
<g id="a_node9"><a xlink:href="256.svg" xlink:title="R256">
<polygon fill="cornsilk" stroke="none" points="1297,-177.32 1203,-177.32 1203,-130.32 1297,-130.32 1297,-177.32"/>
<text text-anchor="middle" x="1250" y="-145.32" font-family="Times New Roman,serif" font-size="35.00">R256</text>
</a>
</g>
</g>
<!-- R42&#45;&gt;R256 -->
<g id="edge8" class="edge">
<title>R42&#45;&gt;R256</title>
<path fill="none" stroke="black" d="M681.72,-169.03C687.72,-166.9 693.95,-165.04 700,-163.82 876.75,-128.11 1092.04,-139.71 1192.41,-148.21"/>
<polygon fill="black" stroke="black" points="1191.94,-151.77 1202.21,-149.15 1192.55,-144.79 1191.94,-151.77"/>
<text text-anchor="middle" x="947" y="-172.82" font-family="Times New Roman,serif" font-size="30.00"> &#160;&#160;347 &#160;&#160;16% &#160;&#160;2.18e&#45;15 mol/s &#160;&#160;&#160;1.00E+00</text>
</g>
<!-- R294 -->
<g id="node10" class="node">
<title>R294</title>
<g id="a_node10"><a xlink:href="294.svg" xlink:title="R294">
<polygon fill="cornsilk" stroke="none" points="1297,-112.32 1203,-112.32 1203,-65.32 1297,-65.32 1297,-112.32"/>
<text text-anchor="middle" x="1250" y="-80.32" font-family="Times New Roman,serif" font-size="35.00">R294</text>
</a>
</g>
</g>
<!-- R42&#45;&gt;R294 -->
<g id="edge9" class="edge">
<title>R42&#45;&gt;R294</title>
<path fill="none" stroke="black" d="M653.06,-162.65C661.4,-142.61 676.54,-114.87 700,-101.82 783.11,-55.62 1070.04,-73.53 1192.69,-83.69"/>
<polygon fill="black" stroke="black" points="1192.07,-87.23 1202.33,-84.58 1192.66,-80.26 1192.07,-87.23"/>
<text text-anchor="middle" x="947" y="-110.82" font-family="Times New Roman,serif" font-size="30.00"> &#160;&#160;398 &#160;&#160;16% &#160;&#160;2.18e&#45;15 mol/s &#160;&#160;&#160;1.00E+00</text>
</g>
<!-- R295 -->
<g id="node11" class="node">
<title>R295</title>
<g id="a_node11"><a xlink:href="295.svg" xlink:title="R295">
<polygon fill="cornsilk" stroke="none" points="1297,-47.32 1203,-47.32 1203,-0.32 1297,-0.32 1297,-47.32"/>
<text text-anchor="middle" x="1250" y="-15.32" font-family="Times New Roman,serif" font-size="35.00">R295</text>
</a>
</g>
</g>
<!-- R42&#45;&gt;R295 -->
<g id="edge10" class="edge">
<title>R42&#45;&gt;R295</title>
<path fill="none" stroke="black" d="M645.8,-162.38C648.38,-127.87 658.81,-64.28 700,-34.82 777.44,20.55 1068.2,-3.78 1192.3,-17.16"/>
<polygon fill="black" stroke="black" points="1191.75,-20.72 1202.07,-18.33 1192.51,-13.77 1191.75,-20.72"/>
<text text-anchor="middle" x="947" y="-43.82" font-family="Times New Roman,serif" font-size="30.00"> &#160;&#160;399 &#160;&#160;16% &#160;&#160;2.18e&#45;15 mol/s &#160;&#160;&#160;1.00E+00</text>
</g>
<!-- R13 -->
<g id="node2" class="node">
<title>R13</title>
<g id="a_node2"><a xlink:href="13.svg" xlink:title="R13">
<polygon fill="cornsilk" stroke="none" points="76,-307.32 0,-307.32 0,-260.32 76,-260.32 76,-307.32"/>
<text text-anchor="middle" x="38" y="-275.32" font-family="Times New Roman,serif" font-size="35.00">R13</text>
</a>
</g>
</g>
<!-- R13&#45;&gt;R42 -->
<g id="edge1" class="edge">
<title>R13&#45;&gt;R42</title>
<path fill="none" stroke="black" stroke-width="3" d="M75.67,-291.78C167.94,-309.8 414.7,-345.58 588,-255.82 603.99,-247.54 616.81,-232.3 626.04,-218.16"/>
<polygon fill="black" stroke="black" stroke-width="3" points="627.35,-222.45 629.59,-212.1 621.38,-218.8 627.35,-222.45"/>
<text text-anchor="middle" x="341" y="-322.82" font-family="Times New Roman,serif" font-size="30.00"> &#160;&#160;47 &#160;&#160;50% &#160;&#160;2.18e&#45;15 mol/s &#160;&#160;&#160;1.00E+00</text>
</g>
<!-- R2 -->
<g id="node3" class="node">
<title>R2</title>
<g id="a_node3"><a xlink:href="2.svg" xlink:title="R2">
<polygon fill="cornsilk" stroke="none" points="67,-242.32 9,-242.32 9,-195.32 67,-195.32 67,-242.32"/>
<text text-anchor="middle" x="38" y="-210.32" font-family="Times New Roman,serif" font-size="35.00">R2</text>
</a>
</g>
</g>
<!-- R2&#45;&gt;R42 -->
<g id="edge2" class="edge">
<title>R2&#45;&gt;R42</title>
<path fill="none" stroke="black" stroke-width="3" d="M66.83,-219.25C147.66,-220.15 389.33,-220.52 588,-196.82 590.4,-196.54 592.84,-196.2 595.31,-195.83"/>
<polygon fill="black" stroke="black" stroke-width="3" points="592.86,-199.12 602.15,-194.02 591.71,-192.22 592.86,-199.12"/>
<text text-anchor="middle" x="341" y="-227.82" font-family="Times New Roman,serif" font-size="30.00"> &#160;&#160;47 &#160;&#160;50% &#160;&#160;2.18e&#45;15 mol/s &#160;&#160;&#160;1.00E+00</text>
</g>
<!-- R0 -->
<g id="node4" class="node">
<title>R0</title>
<g id="a_node4"><a xlink:href="0.svg" xlink:title="R0">
<polygon fill="cornsilk" stroke="none" points="67,-177.32 9,-177.32 9,-130.32 67,-130.32 67,-177.32"/>
<text text-anchor="middle" x="38" y="-145.32" font-family="Times New Roman,serif" font-size="35.00">R0</text>
</a>
</g>
</g>
<!-- R0&#45;&gt;R42 -->
<g id="edge3" class="edge">
<title>R0&#45;&gt;R42</title>
<path fill="none" stroke="black" stroke-width="3" d="M66.8,-150.83C148.05,-142.85 391.78,-124.18 588,-163.82 590.65,-164.36 593.33,-165.01 596.01,-165.76"/>
<polygon fill="black" stroke="black" stroke-width="3" points="591.69,-168.33 602.28,-168.03 593.82,-161.66 591.69,-168.33"/>
<text text-anchor="middle" x="341" y="-172.82" font-family="Times New Roman,serif" font-size="30.00"> &#160;&#160;114 &#160;&#160;50% &#160;&#160;2.18e&#45;15 mol/s &#160;&#160;&#160;1.00E+00</text>
</g>
<!-- R27 -->
<g id="node5" class="node">
<title>R27</title>
<g id="a_node5"><a xlink:href="27.svg" xlink:title="R27">
<polygon fill="cornsilk" stroke="none" points="76,-112.32 0,-112.32 0,-65.32 76,-65.32 76,-112.32"/>
<text text-anchor="middle" x="38" y="-80.32" font-family="Times New Roman,serif" font-size="35.00">R27</text>
</a>
</g>
</g>
<!-- R27&#45;&gt;R42 -->
<g id="edge4" class="edge">
<title>R27&#45;&gt;R42</title>
<path fill="none" stroke="black" stroke-width="3" d="M75.69,-78.77C168.5,-55.53 417.38,-6.97 588,-101.82 607.8,-112.83 621.67,-134.3 630.53,-152.78"/>
<polygon fill="black" stroke="black" stroke-width="3" points="626.66,-150.95 633.94,-158.65 633.05,-148.1 626.66,-150.95"/>
<text text-anchor="middle" x="341" y="-110.82" font-family="Times New Roman,serif" font-size="30.00"> &#160;&#160;114 &#160;&#160;50% &#160;&#160;2.18e&#45;15 mol/s &#160;&#160;&#160;1.00E+00</text>
</g>
</g>
</svg>
