<?xml version="1.0" encoding="UTF-8" standalone="no"?>
<!DOCTYPE svg PUBLIC "-//W3C//DTD SVG 1.1//EN"
 "http://www.w3.org/Graphics/SVG/1.1/DTD/svg11.dtd">
<!-- Generated by graphviz version 8.0.3 (20230416.2022)
 -->
<!-- Title: G Pages: 1 -->
<svg width="640pt" height="84pt"
 viewBox="0.00 0.00 720.00 94.41" xmlns="http://www.w3.org/2000/svg" xmlns:xlink="http://www.w3.org/1999/xlink">
<g id="graph0" class="graph" transform="scale(0.745921 0.745921) rotate(0) translate(4 108.5)">
<title>G</title>
<polygon fill="white" stroke="none" points="-4,4 -4,-108.5 854,-108.5 854,4 -4,4"/>
<text text-anchor="middle" x="425" y="-71.7" font-family="Arial" font-size="36.00" fill="blue">Reaction Path Analysis</text>
<!-- CH2CH(S) -->
<g id="node1" class="node">
<title>CH2CH(S)</title>
<g id="a_node1"><a xlink:href="42.svg" xlink:title="CH2CH(S)">
<polygon fill="dodgerblue" stroke="none" points="174,-47 0,-47 0,0 174,0 174,-47"/>
<text text-anchor="middle" x="87" y="-15" font-family="Times New Roman,serif" font-size="35.00">CH2CH(S)</text>
</a>
</g>
</g>
<!-- CH2CH2(S) -->
<g id="node2" class="node">
<title>CH2CH2(S)</title>
<g id="a_node2"><a xlink:href="41.svg" xlink:title="CH2CH2(S)">
<polygon fill="dodgerblue" stroke="none" points="850,-47 658,-47 658,0 850,0 850,-47"/>
<text text-anchor="middle" x="754" y="-15" font-family="Times New Roman,serif" font-size="35.00">CH2CH2(S)</text>
</a>
</g>
</g>
<!-- CH2CH(S)&#45;&gt;CH2CH2(S) -->
<g id="edge1" class="edge">
<title>CH2CH(S)&#45;&gt;CH2CH2(S)</title>
<path fill="none" stroke="green" stroke-width="5" d="M173.92,-23.5C292.11,-23.5 505.21,-23.5 637.32,-23.5"/>
<polygon fill="green" stroke="green" stroke-width="5" points="632.2,-32.25 652.2,-23.5 632.2,-14.75 632.2,-32.25"/>
<text text-anchor="middle" x="420.5" y="-32.5" font-family="Times New Roman,serif" font-size="30.00"> &#160;&#160;57 &#160;&#160;99% &#160;&#160;1.4e&#45;09 mol/s &#160;&#160;&#160;4.60E&#45;01</text>
</g>
</g>
</svg>
