<?xml version="1.0" encoding="UTF-8" standalone="no"?>
<!DOCTYPE svg PUBLIC "-//W3C//DTD SVG 1.1//EN"
 "http://www.w3.org/Graphics/SVG/1.1/DTD/svg11.dtd">
<!-- Generated by graphviz version 8.0.3 (20230416.2022)
 -->
<!-- Title: G Pages: 1 -->
<svg width="640pt" height="292pt"
 viewBox="0.00 0.00 720.00 328.53" xmlns="http://www.w3.org/2000/svg" xmlns:xlink="http://www.w3.org/1999/xlink">
<g id="graph0" class="graph" transform="scale(0.503937 0.503937) rotate(0) translate(4 575.49)">
<title>G</title>
<polygon fill="white" stroke="none" points="-4,4 -4,-575.49 1266,-575.49 1266,4 -4,4"/>
<text text-anchor="middle" x="631" y="-538.69" font-family="Arial" font-size="36.00" fill="blue">Reaction Path Analysis</text>
<!-- R44 -->
<g id="node1" class="node">
<title>R44</title>
<g id="a_node1"><a xlink:href="44.svg" xlink:title="R44">
<polygon fill="cornsilk" stroke="none" points="669,-275.99 593,-275.99 593,-228.99 669,-228.99 669,-275.99"/>
<text text-anchor="middle" x="631" y="-243.99" font-family="Times New Roman,serif" font-size="35.00">R44</text>
</a>
</g>
</g>
<!-- R259 -->
<g id="node8" class="node">
<title>R259</title>
<g id="a_node8"><a xlink:href="259.svg" xlink:title="R259">
<polygon fill="cornsilk" stroke="none" points="1262,-275.99 1168,-275.99 1168,-228.99 1262,-228.99 1262,-275.99"/>
<text text-anchor="middle" x="1215" y="-243.99" font-family="Times New Roman,serif" font-size="35.00">R259</text>
</a>
</g>
</g>
<!-- R44&#45;&gt;R259 -->
<g id="edge7" class="edge">
<title>R44&#45;&gt;R259</title>
<path fill="none" stroke="black" stroke-width="5" d="M668.85,-252.49C764.92,-252.49 1024.14,-252.49 1147.28,-252.49"/>
<polygon fill="black" stroke="black" stroke-width="5" points="1142.28,-261.24 1162.28,-252.49 1142.28,-243.74 1142.28,-261.24"/>
<text text-anchor="middle" x="923" y="-261.49" font-family="Times New Roman,serif" font-size="30.00"> &#160;&#160;351 &#160;&#160;99% &#160;&#160;0.0247 mol/s &#160;&#160;&#160;7.83E&#45;01</text>
</g>
<!-- R2 -->
<g id="node2" class="node">
<title>R2</title>
<g id="a_node2"><a xlink:href="2.svg" xlink:title="R2">
<polygon fill="cornsilk" stroke="none" points="76,-470.99 18,-470.99 18,-423.99 76,-423.99 76,-470.99"/>
<text text-anchor="middle" x="47" y="-438.99" font-family="Times New Roman,serif" font-size="35.00">R2</text>
</a>
</g>
</g>
<!-- R2&#45;&gt;R44 -->
<g id="edge1" class="edge">
<title>R2&#45;&gt;R44</title>
<path fill="none" stroke="black" d="M75.98,-455.84C161.16,-479.39 420.89,-537.35 575,-419.49 615.83,-388.27 626.74,-325.88 629.43,-286.82"/>
<polygon fill="black" stroke="black" points="632.97,-287.16 630.01,-276.99 625.98,-286.79 632.97,-287.16"/>
<text text-anchor="middle" x="339" y="-499.49" font-family="Times New Roman,serif" font-size="30.00"> &#160;&#160;49 &#160;&#160;0% &#160;&#160;0.0342 mol/s &#160;&#160;&#160;1.00E+00</text>
</g>
<!-- R14 -->
<g id="node3" class="node">
<title>R14</title>
<g id="a_node3"><a xlink:href="14.svg" xlink:title="R14">
<polygon fill="cornsilk" stroke="none" points="85,-405.99 9,-405.99 9,-358.99 85,-358.99 85,-405.99"/>
<text text-anchor="middle" x="47" y="-373.99" font-family="Times New Roman,serif" font-size="35.00">R14</text>
</a>
</g>
</g>
<!-- R14&#45;&gt;R44 -->
<g id="edge2" class="edge">
<title>R14&#45;&gt;R44</title>
<path fill="none" stroke="black" d="M84.92,-382.68C197.92,-382.96 533.91,-381.58 575,-355.49 599.34,-340.04 613.61,-309.97 621.49,-286.29"/>
<polygon fill="black" stroke="black" points="625.08,-287.52 624.67,-276.94 618.39,-285.47 625.08,-287.52"/>
<text text-anchor="middle" x="339" y="-391.49" font-family="Times New Roman,serif" font-size="30.00"> &#160;&#160;49 &#160;&#160;0% &#160;&#160;0.0342 mol/s &#160;&#160;&#160;1.00E+00</text>
</g>
<!-- R0 -->
<g id="node4" class="node">
<title>R0</title>
<g id="a_node4"><a xlink:href="0.svg" xlink:title="R0">
<polygon fill="cornsilk" stroke="none" points="76,-340.99 18,-340.99 18,-293.99 76,-293.99 76,-340.99"/>
<text text-anchor="middle" x="47" y="-308.99" font-family="Times New Roman,serif" font-size="35.00">R0</text>
</a>
</g>
</g>
<!-- R0&#45;&gt;R44 -->
<g id="edge3" class="edge">
<title>R0&#45;&gt;R44</title>
<path fill="none" stroke="black" d="M75.7,-317.95C170.49,-319.23 481.15,-320.87 575,-289.49 580.94,-287.51 586.85,-284.69 592.46,-281.49"/>
<polygon fill="black" stroke="black" points="593.94,-284.07 600.58,-275.81 590.24,-278.12 593.94,-284.07"/>
<text text-anchor="middle" x="339" y="-327.49" font-family="Times New Roman,serif" font-size="30.00"> &#160;&#160;119 &#160;&#160;0% &#160;&#160;0.0342 mol/s &#160;&#160;&#160;1.00E+00</text>
</g>
<!-- R41 -->
<g id="node5" class="node">
<title>R41</title>
<g id="a_node5"><a xlink:href="41.svg" xlink:title="R41">
<polygon fill="cornsilk" stroke="none" points="85,-275.99 9,-275.99 9,-228.99 85,-228.99 85,-275.99"/>
<text text-anchor="middle" x="47" y="-243.99" font-family="Times New Roman,serif" font-size="35.00">R41</text>
</a>
</g>
</g>
<!-- R41&#45;&gt;R44 -->
<g id="edge4" class="edge">
<title>R41&#45;&gt;R44</title>
<path fill="none" stroke="black" d="M84.85,-252.49C186.29,-252.49 469.62,-252.49 582.61,-252.49"/>
<polygon fill="black" stroke="black" points="582.31,-255.99 592.31,-252.49 582.31,-248.99 582.31,-255.99"/>
<text text-anchor="middle" x="339" y="-261.49" font-family="Times New Roman,serif" font-size="30.00"> &#160;&#160;119 &#160;&#160;0% &#160;&#160;0.0342 mol/s &#160;&#160;&#160;1.00E+00</text>
</g>
<!-- R137 -->
<g id="node6" class="node">
<title>R137</title>
<g id="a_node6"><a xlink:href="137.svg" xlink:title="R137">
<polygon fill="cornsilk" stroke="none" points="94,-210.99 0,-210.99 0,-163.99 94,-163.99 94,-210.99"/>
<text text-anchor="middle" x="47" y="-178.99" font-family="Times New Roman,serif" font-size="35.00">R137</text>
</a>
</g>
</g>
<!-- R137&#45;&gt;R44 -->
<g id="edge5" class="edge">
<title>R137&#45;&gt;R44</title>
<path fill="none" stroke="black" stroke-width="5" d="M93.92,-181.93C187.36,-172.32 405.12,-158.7 575,-215.49 577.9,-216.46 580.79,-217.63 583.64,-218.94"/>
<polygon fill="black" stroke="black" stroke-width="5" points="574.87,-223.87 596.58,-226.17 583.54,-208.67 574.87,-223.87"/>
<text text-anchor="middle" x="339" y="-224.49" font-family="Times New Roman,serif" font-size="30.00"> &#160;&#160;189 &#160;&#160;99% &#160;&#160;8930.0 mol/s &#160;&#160;&#160;3.83E&#45;06</text>
</g>
<!-- R196 -->
<g id="node7" class="node">
<title>R196</title>
<g id="a_node7"><a xlink:href="196.svg" xlink:title="R196">
<polygon fill="cornsilk" stroke="none" points="94,-145.99 0,-145.99 0,-98.99 94,-98.99 94,-145.99"/>
<text text-anchor="middle" x="47" y="-113.99" font-family="Times New Roman,serif" font-size="35.00">R196</text>
</a>
</g>
</g>
<!-- R196&#45;&gt;R44 -->
<g id="edge6" class="edge">
<title>R196&#45;&gt;R44</title>
<path fill="none" stroke="black" d="M93.89,-117.65C207.17,-106.63 496.62,-84.37 575,-135.49 603.38,-154.01 617.41,-191.37 624.15,-218.92"/>
<polygon fill="black" stroke="black" points="620.88,-219.3 626.47,-228.3 627.71,-217.78 620.88,-219.3"/>
<text text-anchor="middle" x="339" y="-144.49" font-family="Times New Roman,serif" font-size="30.00"> &#160;&#160;257 &#160;&#160;0% &#160;&#160;0.166 mol/s &#160;&#160;&#160;1.46E&#45;01</text>
</g>
<!-- R119 -->
<g id="node9" class="node">
<title>R119</title>
<g id="a_node9"><a xlink:href="119.svg" xlink:title="R119">
<polygon fill="cornsilk" stroke="none" points="94,-80.99 0,-80.99 0,-33.99 94,-33.99 94,-80.99"/>
<text text-anchor="middle" x="47" y="-48.99" font-family="Times New Roman,serif" font-size="35.00">R119</text>
</a>
</g>
</g>
<!-- R119&#45;&gt;R44 -->
<g id="edge8" class="edge">
<title>R119&#45;&gt;R44</title>
<path fill="none" stroke="black" d="M93.93,-41.89C193.19,-11.31 430.4,44.42 575,-65.49 599.37,-84.02 616.76,-169.75 624.87,-218.45"/>
<polygon fill="black" stroke="black" points="621.54,-218.79 626.59,-228.1 628.45,-217.67 621.54,-218.79"/>
<text text-anchor="middle" x="339" y="-74.49" font-family="Times New Roman,serif" font-size="30.00"> &#160;&#160;649 &#160;&#160;0% &#160;&#160;0.00272 mol/s &#160;&#160;&#160;1.00E+00</text>
</g>
</g>
</svg>
