<?xml version="1.0" encoding="UTF-8" standalone="no"?>
<!DOCTYPE svg PUBLIC "-//W3C//DTD SVG 1.1//EN"
 "http://www.w3.org/Graphics/SVG/1.1/DTD/svg11.dtd">
<!-- Generated by graphviz version 8.0.3 (20230416.2022)
 -->
<!-- Title: G Pages: 1 -->
<svg width="640pt" height="245pt"
 viewBox="0.00 0.00 720.00 275.17" xmlns="http://www.w3.org/2000/svg" xmlns:xlink="http://www.w3.org/1999/xlink">
<g id="graph0" class="graph" transform="scale(0.492308 0.492308) rotate(0) translate(4 492.84)">
<title>G</title>
<polygon fill="white" stroke="none" points="-4,4 -4,-492.84 1296,-492.84 1296,4 -4,4"/>
<text text-anchor="middle" x="646" y="-456.04" font-family="Arial" font-size="36.00" fill="blue">Reaction Path Analysis</text>
<!-- R45 -->
<g id="node1" class="node">
<title>R45</title>
<g id="a_node1"><a xlink:href="45.svg" xlink:title="R45">
<polygon fill="cornsilk" stroke="none" points="684,-230.34 608,-230.34 608,-183.34 684,-183.34 684,-230.34"/>
<text text-anchor="middle" x="646" y="-198.34" font-family="Times New Roman,serif" font-size="35.00">R45</text>
</a>
</g>
</g>
<!-- R197 -->
<g id="node7" class="node">
<title>R197</title>
<g id="a_node7"><a xlink:href="197.svg" xlink:title="R197">
<polygon fill="cornsilk" stroke="none" points="1292,-230.34 1198,-230.34 1198,-183.34 1292,-183.34 1292,-230.34"/>
<text text-anchor="middle" x="1245" y="-198.34" font-family="Times New Roman,serif" font-size="35.00">R197</text>
</a>
</g>
</g>
<!-- R45&#45;&gt;R197 -->
<g id="edge6" class="edge">
<title>R45&#45;&gt;R197</title>
<path fill="none" stroke="black" stroke-width="6" d="M683.89,-206.84C782.2,-206.84 1051.52,-206.84 1177.45,-206.84"/>
<polygon fill="black" stroke="black" stroke-width="6" points="1172.16,-217.34 1192.16,-206.84 1172.16,-196.34 1172.16,-217.34"/>
<text text-anchor="middle" x="945.5" y="-215.84" font-family="Times New Roman,serif" font-size="30.00"> &#160;&#160;258 &#160;&#160;100% &#160;&#160;0.0342 mol/s &#160;&#160;&#160;1.00E+00</text>
</g>
<!-- R14 -->
<g id="node2" class="node">
<title>R14</title>
<g id="a_node2"><a xlink:href="14.svg" xlink:title="R14">
<polygon fill="cornsilk" stroke="none" points="85,-393.34 9,-393.34 9,-346.34 85,-346.34 85,-393.34"/>
<text text-anchor="middle" x="47" y="-361.34" font-family="Times New Roman,serif" font-size="35.00">R14</text>
</a>
</g>
</g>
<!-- R14&#45;&gt;R45 -->
<g id="edge1" class="edge">
<title>R14&#45;&gt;R45</title>
<path fill="none" stroke="black" d="M84.98,-379.73C176.62,-401.96 418.13,-446.36 575,-344.84 611.07,-321.5 629.39,-273.47 638.06,-240.7"/>
<polygon fill="black" stroke="black" points="641.65,-241.78 640.65,-231.23 634.85,-240.1 641.65,-241.78"/>
<text text-anchor="middle" x="346.5" y="-416.84" font-family="Times New Roman,serif" font-size="30.00"> &#160;&#160;50 &#160;&#160;1% &#160;&#160;0.0335 mol/s &#160;&#160;&#160;9.81E&#45;01</text>
</g>
<!-- R2 -->
<g id="node3" class="node">
<title>R2</title>
<g id="a_node3"><a xlink:href="2.svg" xlink:title="R2">
<polygon fill="cornsilk" stroke="none" points="76,-328.34 18,-328.34 18,-281.34 76,-281.34 76,-328.34"/>
<text text-anchor="middle" x="47" y="-296.34" font-family="Times New Roman,serif" font-size="35.00">R2</text>
</a>
</g>
</g>
<!-- R2&#45;&gt;R45 -->
<g id="edge2" class="edge">
<title>R2&#45;&gt;R45</title>
<path fill="none" stroke="black" d="M75.95,-305.87C171.54,-309 484.5,-315.89 575,-275.84 593.39,-267.7 609.69,-252.43 621.92,-238.32"/>
<polygon fill="black" stroke="black" points="624.95,-241.14 628.63,-231.21 619.56,-236.68 624.95,-241.14"/>
<text text-anchor="middle" x="346.5" y="-316.84" font-family="Times New Roman,serif" font-size="30.00"> &#160;&#160;50 &#160;&#160;1% &#160;&#160;0.0335 mol/s &#160;&#160;&#160;9.81E&#45;01</text>
</g>
<!-- R0 -->
<g id="node4" class="node">
<title>R0</title>
<g id="a_node4"><a xlink:href="0.svg" xlink:title="R0">
<polygon fill="cornsilk" stroke="none" points="76,-263.34 18,-263.34 18,-216.34 76,-216.34 76,-263.34"/>
<text text-anchor="middle" x="47" y="-231.34" font-family="Times New Roman,serif" font-size="35.00">R0</text>
</a>
</g>
</g>
<!-- R0&#45;&gt;R45 -->
<g id="edge3" class="edge">
<title>R0&#45;&gt;R45</title>
<path fill="none" stroke="black" d="M75.79,-239.8C154.36,-239.43 384.77,-236.7 575,-217.84 582.24,-217.12 589.87,-216.15 597.32,-215.08"/>
<polygon fill="black" stroke="black" points="597.68,-218.41 607.05,-213.46 596.64,-211.49 597.68,-218.41"/>
<text text-anchor="middle" x="346.5" y="-247.84" font-family="Times New Roman,serif" font-size="30.00"> &#160;&#160;117 &#160;&#160;1% &#160;&#160;0.0342 mol/s &#160;&#160;&#160;1.00E+00</text>
</g>
<!-- R30 -->
<g id="node5" class="node">
<title>R30</title>
<g id="a_node5"><a xlink:href="30.svg" xlink:title="R30">
<polygon fill="cornsilk" stroke="none" points="85,-198.34 9,-198.34 9,-151.34 85,-151.34 85,-198.34"/>
<text text-anchor="middle" x="47" y="-166.34" font-family="Times New Roman,serif" font-size="35.00">R30</text>
</a>
</g>
</g>
<!-- R30&#45;&gt;R45 -->
<g id="edge4" class="edge">
<title>R30&#45;&gt;R45</title>
<path fill="none" stroke="black" d="M84.74,-171.97C171.02,-166 393.01,-155.15 575,-184.84 582.43,-186.05 590.17,-187.88 597.67,-189.97"/>
<polygon fill="black" stroke="black" points="596.48,-193.57 607.06,-193.07 598.48,-186.86 596.48,-193.57"/>
<text text-anchor="middle" x="346.5" y="-193.84" font-family="Times New Roman,serif" font-size="30.00"> &#160;&#160;117 &#160;&#160;1% &#160;&#160;0.0342 mol/s &#160;&#160;&#160;1.00E+00</text>
</g>
<!-- R138 -->
<g id="node6" class="node">
<title>R138</title>
<g id="a_node6"><a xlink:href="138.svg" xlink:title="R138">
<polygon fill="cornsilk" stroke="none" points="94,-133.34 0,-133.34 0,-86.34 94,-86.34 94,-133.34"/>
<text text-anchor="middle" x="47" y="-101.34" font-family="Times New Roman,serif" font-size="35.00">R138</text>
</a>
</g>
</g>
<!-- R138&#45;&gt;R45 -->
<g id="edge5" class="edge">
<title>R138&#45;&gt;R45</title>
<path fill="none" stroke="black" stroke-width="2" d="M93.94,-106.85C206.03,-100.26 490.51,-88.07 575,-127.84 596.18,-137.81 613.65,-157.5 625.84,-174.73"/>
<polygon fill="black" stroke="black" stroke-width="2" points="622.23,-175.12 630.73,-181.45 628.03,-171.2 622.23,-175.12"/>
<text text-anchor="middle" x="346.5" y="-136.84" font-family="Times New Roman,serif" font-size="30.00"> &#160;&#160;190 &#160;&#160;25% &#160;&#160;0.565 mol/s &#160;&#160;&#160;5.40E&#45;02</text>
</g>
<!-- R260 -->
<g id="node8" class="node">
<title>R260</title>
<g id="a_node8"><a xlink:href="260.svg" xlink:title="R260">
<polygon fill="cornsilk" stroke="none" points="94,-68.34 0,-68.34 0,-21.34 94,-21.34 94,-68.34"/>
<text text-anchor="middle" x="47" y="-36.34" font-family="Times New Roman,serif" font-size="35.00">R260</text>
</a>
</g>
</g>
<!-- R260&#45;&gt;R45 -->
<g id="edge7" class="edge">
<title>R260&#45;&gt;R45</title>
<path fill="none" stroke="black" stroke-width="4" d="M93.87,-31.75C191.48,-6.78 423.25,36.85 575,-61.84 609.6,-84.35 627.57,-129.13 636.59,-163"/>
<polygon fill="black" stroke="black" stroke-width="4" points="628.97,-160.44 640.31,-178.34 642.61,-157.28 628.97,-160.44"/>
<text text-anchor="middle" x="346.5" y="-70.84" font-family="Times New Roman,serif" font-size="30.00"> &#160;&#160;352 &#160;&#160;71% &#160;&#160;1.57 mol/s &#160;&#160;&#160;2.09E&#45;02</text>
</g>
</g>
</svg>
