<?xml version="1.0" encoding="UTF-8" standalone="no"?>
<!DOCTYPE svg PUBLIC "-//W3C//DTD SVG 1.1//EN"
 "http://www.w3.org/Graphics/SVG/1.1/DTD/svg11.dtd">
<!-- Generated by graphviz version 8.0.3 (20230416.2022)
 -->
<!-- Title: G Pages: 1 -->
<svg width="571pt" height="320pt"
 viewBox="0.00 0.00 642.00 360.03" xmlns="http://www.w3.org/2000/svg" xmlns:xlink="http://www.w3.org/1999/xlink">
<g id="graph0" class="graph" transform="scale(0.888889 0.888889) rotate(0) translate(4 356.03)">
<title>G</title>
<polygon fill="white" stroke="none" points="-4,4 -4,-356.03 638,-356.03 638,4 -4,4"/>
<text text-anchor="middle" x="317" y="-319.23" font-family="Arial" font-size="36.00" fill="blue">Reaction Path Analysis</text>
<!-- R47 -->
<g id="node1" class="node">
<title>R47</title>
<g id="a_node1"><a xlink:href="47.svg" xlink:title="R47">
<polygon fill="cornsilk" stroke="none" points="634,-165.53 558,-165.53 558,-118.53 634,-118.53 634,-165.53"/>
<text text-anchor="middle" x="596" y="-133.53" font-family="Times New Roman,serif" font-size="35.00">R47</text>
</a>
</g>
</g>
<!-- R5 -->
<g id="node2" class="node">
<title>R5</title>
<g id="a_node2"><a xlink:href="5.svg" xlink:title="R5">
<polygon fill="cornsilk" stroke="none" points="67,-263.53 9,-263.53 9,-216.53 67,-216.53 67,-263.53"/>
<text text-anchor="middle" x="38" y="-231.53" font-family="Times New Roman,serif" font-size="35.00">R5</text>
</a>
</g>
</g>
<!-- R5&#45;&gt;R47 -->
<g id="edge1" class="edge">
<title>R5&#45;&gt;R47</title>
<path fill="none" stroke="black" stroke-width="3" d="M66.87,-246.76C147.89,-264.7 387.82,-306.26 549,-213.03 563.67,-204.54 574.46,-189.29 581.89,-175.08"/>
<polygon fill="black" stroke="black" stroke-width="3" points="584.31,-180.04 585.5,-169.52 578,-177 584.31,-180.04"/>
<text text-anchor="middle" x="317" y="-280.03" font-family="Times New Roman,serif" font-size="30.00"> &#160;&#160;52 &#160;&#160;50% &#160;&#160;0.0342 mol/s &#160;&#160;&#160;1.00E+00</text>
</g>
<!-- R3 -->
<g id="node3" class="node">
<title>R3</title>
<g id="a_node3"><a xlink:href="3.svg" xlink:title="R3">
<polygon fill="cornsilk" stroke="none" points="67,-198.53 9,-198.53 9,-151.53 67,-151.53 67,-198.53"/>
<text text-anchor="middle" x="38" y="-166.53" font-family="Times New Roman,serif" font-size="35.00">R3</text>
</a>
</g>
</g>
<!-- R3&#45;&gt;R47 -->
<g id="edge2" class="edge">
<title>R3&#45;&gt;R47</title>
<path fill="none" stroke="black" stroke-width="3" d="M66.81,-175.69C142.43,-177.1 358.23,-178.5 547.51,-152.96"/>
<polygon fill="black" stroke="black" stroke-width="3" points="544.78,-156.32 554.21,-151.48 543.83,-149.38 544.78,-156.32"/>
<text text-anchor="middle" x="317" y="-185.03" font-family="Times New Roman,serif" font-size="30.00"> &#160;&#160;52 &#160;&#160;50% &#160;&#160;0.0342 mol/s &#160;&#160;&#160;1.00E+00</text>
</g>
<!-- R1 -->
<g id="node4" class="node">
<title>R1</title>
<g id="a_node4"><a xlink:href="1.svg" xlink:title="R1">
<polygon fill="cornsilk" stroke="none" points="67,-133.53 9,-133.53 9,-86.53 67,-86.53 67,-133.53"/>
<text text-anchor="middle" x="38" y="-101.53" font-family="Times New Roman,serif" font-size="35.00">R1</text>
</a>
</g>
</g>
<!-- R1&#45;&gt;R47 -->
<g id="edge3" class="edge">
<title>R1&#45;&gt;R47</title>
<path fill="none" stroke="black" stroke-width="3" d="M66.88,-106.5C143.13,-97.7 361.26,-78.21 547.55,-120.3"/>
<polygon fill="black" stroke="black" stroke-width="3" points="543.55,-122.89 554.08,-121.75 545.14,-116.07 543.55,-122.89"/>
<text text-anchor="middle" x="317" y="-129.03" font-family="Times New Roman,serif" font-size="30.00"> &#160;&#160;157 &#160;&#160;50% &#160;&#160;0.0342 mol/s &#160;&#160;&#160;9.99E&#45;01</text>
</g>
<!-- R18 -->
<g id="node5" class="node">
<title>R18</title>
<g id="a_node5"><a xlink:href="18.svg" xlink:title="R18">
<polygon fill="cornsilk" stroke="none" points="76,-68.53 0,-68.53 0,-21.53 76,-21.53 76,-68.53"/>
<text text-anchor="middle" x="38" y="-36.53" font-family="Times New Roman,serif" font-size="35.00">R18</text>
</a>
</g>
</g>
<!-- R18&#45;&gt;R47 -->
<g id="edge4" class="edge">
<title>R18&#45;&gt;R47</title>
<path fill="none" stroke="black" stroke-width="3" d="M75.83,-34.15C164.87,-10.16 395.79,38.03 549,-56.03 567.78,-67.56 579.36,-89.6 586.2,-108.48"/>
<polygon fill="black" stroke="black" stroke-width="3" points="582.16,-106.44 588.61,-114.84 588.81,-104.25 582.16,-106.44"/>
<text text-anchor="middle" x="317" y="-65.03" font-family="Times New Roman,serif" font-size="30.00"> &#160;&#160;157 &#160;&#160;50% &#160;&#160;0.0342 mol/s &#160;&#160;&#160;9.99E&#45;01</text>
</g>
</g>
</svg>
