<?xml version="1.0" encoding="UTF-8" standalone="no"?>
<!DOCTYPE svg PUBLIC "-//W3C//DTD SVG 1.1//EN"
 "http://www.w3.org/Graphics/SVG/1.1/DTD/svg11.dtd">
<!-- Generated by graphviz version 8.0.3 (20230416.2022)
 -->
<!-- Title: G Pages: 1 -->
<svg width="640pt" height="394pt"
 viewBox="0.00 0.00 720.00 443.36" xmlns="http://www.w3.org/2000/svg" xmlns:xlink="http://www.w3.org/1999/xlink">
<g id="graph0" class="graph" transform="scale(0.505529 0.505529) rotate(0) translate(4 775.58)">
<title>G</title>
<polygon fill="white" stroke="none" points="-4,4 -4,-775.58 1262,-775.58 1262,4 -4,4"/>
<text text-anchor="middle" x="629" y="-738.78" font-family="Arial" font-size="36.00" fill="blue">Reaction Path Analysis</text>
<!-- R5 -->
<g id="node1" class="node">
<title>R5</title>
<g id="a_node1"><a xlink:href="5.svg" xlink:title="R5">
<polygon fill="cornsilk" stroke="none" points="649,-373.08 591,-373.08 591,-326.08 649,-326.08 649,-373.08"/>
<text text-anchor="middle" x="620" y="-341.08" font-family="Times New Roman,serif" font-size="35.00">R5</text>
</a>
</g>
</g>
<!-- R18 -->
<g id="node6" class="node">
<title>R18</title>
<g id="a_node6"><a xlink:href="18.svg" xlink:title="R18">
<polygon fill="cornsilk" stroke="none" points="1249,-698.08 1173,-698.08 1173,-651.08 1249,-651.08 1249,-698.08"/>
<text text-anchor="middle" x="1211" y="-666.08" font-family="Times New Roman,serif" font-size="35.00">R18</text>
</a>
</g>
</g>
<!-- R5&#45;&gt;R18 -->
<g id="edge5" class="edge">
<title>R5&#45;&gt;R18</title>
<path fill="none" stroke="black" d="M621.72,-372.82C624.21,-436.5 634.75,-611.44 676,-647.58 747.36,-710.1 1045.21,-689.99 1162.37,-679.35"/>
<polygon fill="black" stroke="black" points="1162.49,-682.76 1172.13,-678.36 1161.85,-675.79 1162.49,-682.76"/>
<text text-anchor="middle" x="915.5" y="-699.58" font-family="Times New Roman,serif" font-size="30.00"> &#160;&#160;21 &#160;&#160;9% &#160;&#160;4.67e&#45;08 mol/s &#160;&#160;&#160;1.00E+00</text>
</g>
<!-- R32 -->
<g id="node7" class="node">
<title>R32</title>
<g id="a_node7"><a xlink:href="32.svg" xlink:title="R32">
<polygon fill="cornsilk" stroke="none" points="1249,-633.08 1173,-633.08 1173,-586.08 1249,-586.08 1249,-633.08"/>
<text text-anchor="middle" x="1211" y="-601.08" font-family="Times New Roman,serif" font-size="35.00">R32</text>
</a>
</g>
</g>
<!-- R5&#45;&gt;R32 -->
<g id="edge6" class="edge">
<title>R5&#45;&gt;R32</title>
<path fill="none" stroke="black" d="M623.06,-373.02C628.29,-426.48 643.97,-554.87 676,-581.58 712.85,-612.32 1038.51,-611.67 1162.42,-610.29"/>
<polygon fill="black" stroke="black" points="1162.12,-613.78 1172.08,-610.16 1162.04,-606.78 1162.12,-613.78"/>
<text text-anchor="middle" x="915.5" y="-619.58" font-family="Times New Roman,serif" font-size="30.00"> &#160;&#160;37 &#160;&#160;9% &#160;&#160;4.67e&#45;08 mol/s &#160;&#160;&#160;1.00E+00</text>
</g>
<!-- R47 -->
<g id="node8" class="node">
<title>R47</title>
<g id="a_node8"><a xlink:href="47.svg" xlink:title="R47">
<polygon fill="cornsilk" stroke="none" points="1249,-568.08 1173,-568.08 1173,-521.08 1249,-521.08 1249,-568.08"/>
<text text-anchor="middle" x="1211" y="-536.08" font-family="Times New Roman,serif" font-size="35.00">R47</text>
</a>
</g>
</g>
<!-- R5&#45;&gt;R47 -->
<g id="edge7" class="edge">
<title>R5&#45;&gt;R47</title>
<path fill="none" stroke="black" d="M620.99,-373.08C622.39,-410.35 631.13,-482.29 676,-516.58 714.09,-545.69 1038.35,-546.06 1162.19,-545.11"/>
<polygon fill="black" stroke="black" points="1162.22,-548.6 1172.19,-545.02 1162.16,-541.6 1162.22,-548.6"/>
<text text-anchor="middle" x="915.5" y="-553.58" font-family="Times New Roman,serif" font-size="30.00"> &#160;&#160;52 &#160;&#160;9% &#160;&#160;4.67e&#45;08 mol/s &#160;&#160;&#160;1.00E+00</text>
</g>
<!-- R63 -->
<g id="node9" class="node">
<title>R63</title>
<g id="a_node9"><a xlink:href="63.svg" xlink:title="R63">
<polygon fill="cornsilk" stroke="none" points="1249,-503.08 1173,-503.08 1173,-456.08 1249,-456.08 1249,-503.08"/>
<text text-anchor="middle" x="1211" y="-471.08" font-family="Times New Roman,serif" font-size="35.00">R63</text>
</a>
</g>
</g>
<!-- R5&#45;&gt;R63 -->
<g id="edge8" class="edge">
<title>R5&#45;&gt;R63</title>
<path fill="none" stroke="black" d="M626.33,-373.03C633.25,-397.51 647.93,-434.77 676,-452.58 716.47,-478.27 1039.27,-480.08 1162.46,-479.82"/>
<polygon fill="black" stroke="black" points="1162.41,-483.32 1172.4,-479.8 1162.39,-476.32 1162.41,-483.32"/>
<text text-anchor="middle" x="915.5" y="-488.58" font-family="Times New Roman,serif" font-size="30.00"> &#160;&#160;69 &#160;&#160;9% &#160;&#160;4.67e&#45;08 mol/s &#160;&#160;&#160;1.00E+00</text>
</g>
<!-- R64 -->
<g id="node10" class="node">
<title>R64</title>
<g id="a_node10"><a xlink:href="64.svg" xlink:title="R64">
<polygon fill="cornsilk" stroke="none" points="1249,-438.08 1173,-438.08 1173,-391.08 1249,-391.08 1249,-438.08"/>
<text text-anchor="middle" x="1211" y="-406.08" font-family="Times New Roman,serif" font-size="35.00">R64</text>
</a>
</g>
</g>
<!-- R5&#45;&gt;R64 -->
<g id="edge9" class="edge">
<title>R5&#45;&gt;R64</title>
<path fill="none" stroke="black" d="M648.84,-372.52C657.11,-378.12 666.5,-383.41 676,-386.58 765.37,-416.43 1048.76,-416.55 1162.29,-415.32"/>
<polygon fill="black" stroke="black" points="1162.09,-418.81 1172.05,-415.19 1162.01,-411.81 1162.09,-418.81"/>
<text text-anchor="middle" x="915.5" y="-424.58" font-family="Times New Roman,serif" font-size="30.00"> &#160;&#160;70 &#160;&#160;9% &#160;&#160;4.67e&#45;08 mol/s &#160;&#160;&#160;1.00E+00</text>
</g>
<!-- R65 -->
<g id="node11" class="node">
<title>R65</title>
<g id="a_node11"><a xlink:href="65.svg" xlink:title="R65">
<polygon fill="cornsilk" stroke="none" points="1249,-373.08 1173,-373.08 1173,-326.08 1249,-326.08 1249,-373.08"/>
<text text-anchor="middle" x="1211" y="-341.08" font-family="Times New Roman,serif" font-size="35.00">R65</text>
</a>
</g>
</g>
<!-- R5&#45;&gt;R65 -->
<g id="edge10" class="edge">
<title>R5&#45;&gt;R65</title>
<path fill="none" stroke="black" d="M648.62,-349.58C741.71,-349.58 1044.72,-349.58 1162.53,-349.58"/>
<polygon fill="black" stroke="black" points="1162.34,-353.08 1172.34,-349.58 1162.34,-346.08 1162.34,-353.08"/>
<text text-anchor="middle" x="915.5" y="-358.58" font-family="Times New Roman,serif" font-size="30.00"> &#160;&#160;71 &#160;&#160;9% &#160;&#160;4.67e&#45;08 mol/s &#160;&#160;&#160;1.00E+00</text>
</g>
<!-- R66 -->
<g id="node12" class="node">
<title>R66</title>
<g id="a_node12"><a xlink:href="66.svg" xlink:title="R66">
<polygon fill="cornsilk" stroke="none" points="1249,-308.08 1173,-308.08 1173,-261.08 1249,-261.08 1249,-308.08"/>
<text text-anchor="middle" x="1211" y="-276.08" font-family="Times New Roman,serif" font-size="35.00">R66</text>
</a>
</g>
</g>
<!-- R5&#45;&gt;R66 -->
<g id="edge11" class="edge">
<title>R5&#45;&gt;R66</title>
<path fill="none" stroke="black" d="M648.84,-326.64C657.11,-321.04 666.5,-315.75 676,-312.58 847.52,-255.31 1067.19,-268.98 1162.43,-278.8"/>
<polygon fill="black" stroke="black" points="1161.83,-282.36 1172.14,-279.94 1162.57,-275.4 1161.83,-282.36"/>
<text text-anchor="middle" x="915.5" y="-321.58" font-family="Times New Roman,serif" font-size="30.00"> &#160;&#160;72 &#160;&#160;9% &#160;&#160;4.67e&#45;08 mol/s &#160;&#160;&#160;1.00E+00</text>
</g>
<!-- R102 -->
<g id="node13" class="node">
<title>R102</title>
<g id="a_node13"><a xlink:href="102.svg" xlink:title="R102">
<polygon fill="cornsilk" stroke="none" points="1258,-243.08 1164,-243.08 1164,-196.08 1258,-196.08 1258,-243.08"/>
<text text-anchor="middle" x="1211" y="-211.08" font-family="Times New Roman,serif" font-size="35.00">R102</text>
</a>
</g>
</g>
<!-- R5&#45;&gt;R102 -->
<g id="edge12" class="edge">
<title>R5&#45;&gt;R102</title>
<path fill="none" stroke="black" d="M624.53,-326.39C630.11,-298.71 643.85,-253.55 676,-232.58 753.21,-182.23 1032.52,-202.24 1153.49,-213.7"/>
<polygon fill="black" stroke="black" points="1153.05,-217.27 1163.34,-214.74 1153.73,-210.3 1153.05,-217.27"/>
<text text-anchor="middle" x="915.5" y="-241.58" font-family="Times New Roman,serif" font-size="30.00"> &#160;&#160;311 &#160;&#160;9% &#160;&#160;4.67e&#45;08 mol/s &#160;&#160;&#160;1.00E+00</text>
</g>
<!-- R156 -->
<g id="node14" class="node">
<title>R156</title>
<g id="a_node14"><a xlink:href="156.svg" xlink:title="R156">
<polygon fill="cornsilk" stroke="none" points="1258,-178.08 1164,-178.08 1164,-131.08 1258,-131.08 1258,-178.08"/>
<text text-anchor="middle" x="1211" y="-146.08" font-family="Times New Roman,serif" font-size="35.00">R156</text>
</a>
</g>
</g>
<!-- R5&#45;&gt;R156 -->
<g id="edge13" class="edge">
<title>R5&#45;&gt;R156</title>
<path fill="none" stroke="black" d="M624.43,-326.32C631.63,-280.97 649.86,-183.45 676,-163.58 749.53,-107.68 1032.05,-133.34 1153.73,-147.47"/>
<polygon fill="black" stroke="black" points="1152.95,-151.02 1163.29,-148.71 1153.77,-144.07 1152.95,-151.02"/>
<text text-anchor="middle" x="915.5" y="-172.58" font-family="Times New Roman,serif" font-size="30.00"> &#160;&#160;312 &#160;&#160;9% &#160;&#160;4.67e&#45;08 mol/s &#160;&#160;&#160;1.00E+00</text>
</g>
<!-- R157 -->
<g id="node15" class="node">
<title>R157</title>
<g id="a_node15"><a xlink:href="157.svg" xlink:title="R157">
<polygon fill="cornsilk" stroke="none" points="1258,-113.08 1164,-113.08 1164,-66.08 1258,-66.08 1258,-113.08"/>
<text text-anchor="middle" x="1211" y="-81.08" font-family="Times New Roman,serif" font-size="35.00">R157</text>
</a>
</g>
</g>
<!-- R5&#45;&gt;R157 -->
<g id="edge14" class="edge">
<title>R5&#45;&gt;R157</title>
<path fill="none" stroke="black" d="M622.39,-326.14C626.34,-268.43 639.8,-122.02 676,-92.58 712.3,-63.06 1023.39,-78.23 1153.33,-85.97"/>
<polygon fill="black" stroke="black" points="1153.03,-89.52 1163.22,-86.62 1153.45,-82.53 1153.03,-89.52"/>
<text text-anchor="middle" x="915.5" y="-101.58" font-family="Times New Roman,serif" font-size="30.00"> &#160;&#160;313 &#160;&#160;9% &#160;&#160;4.67e&#45;08 mol/s &#160;&#160;&#160;1.00E+00</text>
</g>
<!-- R235 -->
<g id="node16" class="node">
<title>R235</title>
<g id="a_node16"><a xlink:href="235.svg" xlink:title="R235">
<polygon fill="cornsilk" stroke="none" points="1258,-48.08 1164,-48.08 1164,-1.08 1258,-1.08 1258,-48.08"/>
<text text-anchor="middle" x="1211" y="-16.08" font-family="Times New Roman,serif" font-size="35.00">R235</text>
</a>
</g>
</g>
<!-- R5&#45;&gt;R235 -->
<g id="edge15" class="edge">
<title>R5&#45;&gt;R235</title>
<path fill="none" stroke="black" d="M621.48,-326.24C623.36,-260.48 632.48,-76.06 676,-38.58 746.09,21.78 1031.18,-3.43 1153.65,-17.5"/>
<polygon fill="black" stroke="black" points="1152.95,-21.06 1163.29,-18.74 1153.76,-14.11 1152.95,-21.06"/>
<text text-anchor="middle" x="915.5" y="-47.58" font-family="Times New Roman,serif" font-size="30.00"> &#160;&#160;314 &#160;&#160;9% &#160;&#160;4.67e&#45;08 mol/s &#160;&#160;&#160;1.00E+00</text>
</g>
<!-- R0 -->
<g id="node2" class="node">
<title>R0</title>
<g id="a_node2"><a xlink:href="0.svg" xlink:title="R0">
<polygon fill="cornsilk" stroke="none" points="58,-471.08 0,-471.08 0,-424.08 58,-424.08 58,-471.08"/>
<text text-anchor="middle" x="29" y="-439.08" font-family="Times New Roman,serif" font-size="35.00">R0</text>
</a>
</g>
</g>
<!-- R0&#45;&gt;R5 -->
<g id="edge1" class="edge">
<title>R0&#45;&gt;R5</title>
<path fill="none" stroke="black" stroke-width="3" d="M57.81,-453.2C139.35,-468.24 383,-502.87 556.5,-419.58 573.77,-411.29 588.36,-395.85 599.09,-381.57"/>
<polygon fill="black" stroke="black" stroke-width="3" points="600.31,-386.08 603.26,-375.91 594.61,-382.02 600.31,-386.08"/>
<text text-anchor="middle" x="324.5" y="-481.58" font-family="Times New Roman,serif" font-size="30.00"> &#160;&#160;4 &#160;&#160;50% &#160;&#160;4.67e&#45;08 mol/s &#160;&#160;&#160;1.00E+00</text>
</g>
<!-- R3 -->
<g id="node3" class="node">
<title>R3</title>
<g id="a_node3"><a xlink:href="3.svg" xlink:title="R3">
<polygon fill="cornsilk" stroke="none" points="58,-406.08 0,-406.08 0,-359.08 58,-359.08 58,-406.08"/>
<text text-anchor="middle" x="29" y="-374.08" font-family="Times New Roman,serif" font-size="35.00">R3</text>
</a>
</g>
</g>
<!-- R3&#45;&gt;R5 -->
<g id="edge2" class="edge">
<title>R3&#45;&gt;R5</title>
<path fill="none" stroke="black" stroke-width="3" d="M57.78,-382.72C136.33,-382.81 366.64,-381.17 556.5,-360.58 564.24,-359.74 572.47,-358.53 580.34,-357.21"/>
<polygon fill="black" stroke="black" stroke-width="3" points="577.87,-360.49 587.11,-355.31 576.66,-353.6 577.87,-360.49"/>
<text text-anchor="middle" x="324.5" y="-391.58" font-family="Times New Roman,serif" font-size="30.00"> &#160;&#160;4 &#160;&#160;50% &#160;&#160;4.67e&#45;08 mol/s &#160;&#160;&#160;1.00E+00</text>
</g>
<!-- R1 -->
<g id="node4" class="node">
<title>R1</title>
<g id="a_node4"><a xlink:href="1.svg" xlink:title="R1">
<polygon fill="cornsilk" stroke="none" points="58,-341.08 0,-341.08 0,-294.08 58,-294.08 58,-341.08"/>
<text text-anchor="middle" x="29" y="-309.08" font-family="Times New Roman,serif" font-size="35.00">R1</text>
</a>
</g>
</g>
<!-- R1&#45;&gt;R5 -->
<g id="edge3" class="edge">
<title>R1&#45;&gt;R5</title>
<path fill="none" stroke="black" stroke-width="3" d="M57.99,-315.01C137.09,-308.41 368.69,-293.66 556.5,-327.58 564.61,-329.05 573.07,-331.41 581.05,-334.06"/>
<polygon fill="black" stroke="black" stroke-width="3" points="576.61,-336.62 587.21,-336.66 578.95,-330.02 576.61,-336.62"/>
<text text-anchor="middle" x="324.5" y="-336.58" font-family="Times New Roman,serif" font-size="30.00"> &#160;&#160;5 &#160;&#160;50% &#160;&#160;4.67e&#45;08 mol/s &#160;&#160;&#160;1.00E+00</text>
</g>
<!-- R2 -->
<g id="node5" class="node">
<title>R2</title>
<g id="a_node5"><a xlink:href="2.svg" xlink:title="R2">
<polygon fill="cornsilk" stroke="none" points="58,-276.08 0,-276.08 0,-229.08 58,-229.08 58,-276.08"/>
<text text-anchor="middle" x="29" y="-244.08" font-family="Times New Roman,serif" font-size="35.00">R2</text>
</a>
</g>
</g>
<!-- R2&#45;&gt;R5 -->
<g id="edge4" class="edge">
<title>R2&#45;&gt;R5</title>
<path fill="none" stroke="black" stroke-width="3" d="M57.74,-245.63C139.58,-226.65 385.05,-181.06 556.5,-268.58 576.79,-278.94 592.44,-299.25 603,-316.94"/>
<polygon fill="black" stroke="black" stroke-width="3" points="598.38,-316.43 606.34,-323.42 604.48,-312.99 598.38,-316.43"/>
<text text-anchor="middle" x="324.5" y="-277.58" font-family="Times New Roman,serif" font-size="30.00"> &#160;&#160;5 &#160;&#160;50% &#160;&#160;4.67e&#45;08 mol/s &#160;&#160;&#160;1.00E+00</text>
</g>
</g>
</svg>
