<?xml version="1.0" encoding="UTF-8" standalone="no"?>
<!DOCTYPE svg PUBLIC "-//W3C//DTD SVG 1.1//EN"
 "http://www.w3.org/Graphics/SVG/1.1/DTD/svg11.dtd">
<!-- Generated by graphviz version 8.0.3 (20230416.2022)
 -->
<!-- Title: G Pages: 1 -->
<svg width="589pt" height="159pt"
 viewBox="0.00 0.00 663.00 178.50" xmlns="http://www.w3.org/2000/svg" xmlns:xlink="http://www.w3.org/1999/xlink">
<g id="graph0" class="graph" transform="scale(0.888889 0.888889) rotate(0) translate(4 174.5)">
<title>G</title>
<polygon fill="white" stroke="none" points="-4,4 -4,-174.5 659,-174.5 659,4 -4,4"/>
<text text-anchor="middle" x="327.5" y="-137.7" font-family="Arial" font-size="36.00" fill="blue">Reaction Path Analysis</text>
<!-- R50 -->
<g id="node1" class="node">
<title>R50</title>
<g id="a_node1"><a xlink:href="50.svg" xlink:title="R50">
<polygon fill="cornsilk" stroke="none" points="655,-79 579,-79 579,-32 655,-32 655,-79"/>
<text text-anchor="middle" x="617" y="-47" font-family="Times New Roman,serif" font-size="35.00">R50</text>
</a>
</g>
</g>
<!-- R3 -->
<g id="node2" class="node">
<title>R3</title>
<g id="a_node2"><a xlink:href="3.svg" xlink:title="R3">
<polygon fill="cornsilk" stroke="none" points="58,-112 0,-112 0,-65 58,-65 58,-112"/>
<text text-anchor="middle" x="29" y="-80" font-family="Times New Roman,serif" font-size="35.00">R3</text>
</a>
</g>
</g>
<!-- R3&#45;&gt;R50 -->
<g id="edge1" class="edge">
<title>R3&#45;&gt;R50</title>
<path fill="none" stroke="black" stroke-width="6" d="M57.99,-89.26C135.49,-90.98 359.71,-93.29 558.52,-67.74"/>
<polygon fill="black" stroke="black" stroke-width="6" points="554.79,-78.03 573.21,-64.96 551.99,-57.21 554.79,-78.03"/>
<text text-anchor="middle" x="323" y="-98.5" font-family="Times New Roman,serif" font-size="30.00"> &#160;&#160;56 &#160;&#160;100% &#160;&#160;2.18e&#45;15 mol/s &#160;&#160;&#160;1.00E+00</text>
</g>
<!-- R8 -->
<g id="node3" class="node">
<title>R8</title>
<g id="a_node3"><a xlink:href="8.svg" xlink:title="R8">
<polygon fill="cornsilk" stroke="none" points="58,-47 0,-47 0,0 58,0 58,-47"/>
<text text-anchor="middle" x="29" y="-15" font-family="Times New Roman,serif" font-size="35.00">R8</text>
</a>
</g>
</g>
<!-- R8&#45;&gt;R50 -->
<g id="edge2" class="edge">
<title>R8&#45;&gt;R50</title>
<path fill="none" stroke="black" stroke-width="6" d="M57.77,-19.93C135.62,-10.75 362.6,10.3 558.69,-31.6"/>
<polygon fill="black" stroke="black" stroke-width="6" points="551.26,-41.04 573.09,-35.22 555.9,-20.56 551.26,-41.04"/>
<text text-anchor="middle" x="323" y="-42.5" font-family="Times New Roman,serif" font-size="30.00"> &#160;&#160;56 &#160;&#160;100% &#160;&#160;2.18e&#45;15 mol/s &#160;&#160;&#160;1.00E+00</text>
</g>
</g>
</svg>
