<?xml version="1.0" encoding="UTF-8" standalone="no"?>
<!DOCTYPE svg PUBLIC "-//W3C//DTD SVG 1.1//EN"
 "http://www.w3.org/Graphics/SVG/1.1/DTD/svg11.dtd">
<!-- Generated by graphviz version 8.0.3 (20230416.2022)
 -->
<!-- Title: G Pages: 1 -->
<svg width="640pt" height="391pt"
 viewBox="0.00 0.00 720.00 440.24" xmlns="http://www.w3.org/2000/svg" xmlns:xlink="http://www.w3.org/1999/xlink">
<g id="graph0" class="graph" transform="scale(0.501961 0.501961) rotate(0) translate(4 775.58)">
<title>G</title>
<polygon fill="white" stroke="none" points="-4,4 -4,-775.58 1271,-775.58 1271,4 -4,4"/>
<text text-anchor="middle" x="633.5" y="-738.78" font-family="Arial" font-size="36.00" fill="blue">Reaction Path Analysis</text>
<!-- R53 -->
<g id="node1" class="node">
<title>R53</title>
<g id="a_node1"><a xlink:href="53.svg" xlink:title="R53">
<polygon fill="cornsilk" stroke="none" points="667,-373.08 591,-373.08 591,-326.08 667,-326.08 667,-373.08"/>
<text text-anchor="middle" x="629" y="-341.08" font-family="Times New Roman,serif" font-size="35.00">R53</text>
</a>
</g>
</g>
<!-- R55 -->
<g id="node4" class="node">
<title>R55</title>
<g id="a_node4"><a xlink:href="55.svg" xlink:title="R55">
<polygon fill="cornsilk" stroke="none" points="1258,-698.08 1182,-698.08 1182,-651.08 1258,-651.08 1258,-698.08"/>
<text text-anchor="middle" x="1220" y="-666.08" font-family="Times New Roman,serif" font-size="35.00">R55</text>
</a>
</g>
</g>
<!-- R53&#45;&gt;R55 -->
<g id="edge3" class="edge">
<title>R53&#45;&gt;R55</title>
<path fill="none" stroke="black" d="M630.72,-372.82C633.21,-436.5 643.75,-611.44 685,-647.58 756.36,-710.1 1054.21,-689.99 1171.37,-679.35"/>
<polygon fill="black" stroke="black" points="1171.49,-682.76 1181.13,-678.36 1170.85,-675.79 1171.49,-682.76"/>
<text text-anchor="middle" x="924.5" y="-699.58" font-family="Times New Roman,serif" font-size="30.00"> &#160;&#160;122 &#160;&#160;9% &#160;&#160;2.18e&#45;15 mol/s &#160;&#160;&#160;1.00E+00</text>
</g>
<!-- R56 -->
<g id="node5" class="node">
<title>R56</title>
<g id="a_node5"><a xlink:href="56.svg" xlink:title="R56">
<polygon fill="cornsilk" stroke="none" points="1258,-633.08 1182,-633.08 1182,-586.08 1258,-586.08 1258,-633.08"/>
<text text-anchor="middle" x="1220" y="-601.08" font-family="Times New Roman,serif" font-size="35.00">R56</text>
</a>
</g>
</g>
<!-- R53&#45;&gt;R56 -->
<g id="edge4" class="edge">
<title>R53&#45;&gt;R56</title>
<path fill="none" stroke="black" d="M632.06,-373.02C637.29,-426.48 652.97,-554.87 685,-581.58 721.85,-612.32 1047.51,-611.67 1171.42,-610.29"/>
<polygon fill="black" stroke="black" points="1171.12,-613.78 1181.08,-610.16 1171.04,-606.78 1171.12,-613.78"/>
<text text-anchor="middle" x="924.5" y="-619.58" font-family="Times New Roman,serif" font-size="30.00"> &#160;&#160;123 &#160;&#160;9% &#160;&#160;2.18e&#45;15 mol/s &#160;&#160;&#160;1.00E+00</text>
</g>
<!-- R140 -->
<g id="node6" class="node">
<title>R140</title>
<g id="a_node6"><a xlink:href="140.svg" xlink:title="R140">
<polygon fill="cornsilk" stroke="none" points="1267,-568.08 1173,-568.08 1173,-521.08 1267,-521.08 1267,-568.08"/>
<text text-anchor="middle" x="1220" y="-536.08" font-family="Times New Roman,serif" font-size="35.00">R140</text>
</a>
</g>
</g>
<!-- R53&#45;&gt;R140 -->
<g id="edge5" class="edge">
<title>R53&#45;&gt;R140</title>
<path fill="none" stroke="black" d="M629.99,-373.08C631.39,-410.35 640.13,-482.29 685,-516.58 722.23,-545.03 1032.78,-546.02 1162.46,-545.17"/>
<polygon fill="black" stroke="black" points="1162.35,-548.67 1172.32,-545.09 1162.3,-541.67 1162.35,-548.67"/>
<text text-anchor="middle" x="924.5" y="-553.58" font-family="Times New Roman,serif" font-size="30.00"> &#160;&#160;192 &#160;&#160;9% &#160;&#160;2.18e&#45;15 mol/s &#160;&#160;&#160;1.00E+00</text>
</g>
<!-- R141 -->
<g id="node7" class="node">
<title>R141</title>
<g id="a_node7"><a xlink:href="141.svg" xlink:title="R141">
<polygon fill="cornsilk" stroke="none" points="1267,-503.08 1173,-503.08 1173,-456.08 1267,-456.08 1267,-503.08"/>
<text text-anchor="middle" x="1220" y="-471.08" font-family="Times New Roman,serif" font-size="35.00">R141</text>
</a>
</g>
</g>
<!-- R53&#45;&gt;R141 -->
<g id="edge6" class="edge">
<title>R53&#45;&gt;R141</title>
<path fill="none" stroke="black" d="M635.33,-373.03C642.25,-397.51 656.93,-434.77 685,-452.58 724.51,-477.65 1033.02,-479.98 1162.3,-479.84"/>
<polygon fill="black" stroke="black" points="1162.15,-483.34 1172.14,-479.82 1162.13,-476.34 1162.15,-483.34"/>
<text text-anchor="middle" x="924.5" y="-488.58" font-family="Times New Roman,serif" font-size="30.00"> &#160;&#160;193 &#160;&#160;9% &#160;&#160;2.18e&#45;15 mol/s &#160;&#160;&#160;1.00E+00</text>
</g>
<!-- R142 -->
<g id="node8" class="node">
<title>R142</title>
<g id="a_node8"><a xlink:href="142.svg" xlink:title="R142">
<polygon fill="cornsilk" stroke="none" points="1267,-438.08 1173,-438.08 1173,-391.08 1267,-391.08 1267,-438.08"/>
<text text-anchor="middle" x="1220" y="-406.08" font-family="Times New Roman,serif" font-size="35.00">R142</text>
</a>
</g>
</g>
<!-- R53&#45;&gt;R142 -->
<g id="edge7" class="edge">
<title>R53&#45;&gt;R142</title>
<path fill="none" stroke="black" d="M658.42,-372.91C666.54,-378.37 675.72,-383.48 685,-386.58 772.2,-415.7 1044.13,-416.52 1162.73,-415.4"/>
<polygon fill="black" stroke="black" points="1162.42,-418.9 1172.38,-415.29 1162.35,-411.9 1162.42,-418.9"/>
<text text-anchor="middle" x="924.5" y="-424.58" font-family="Times New Roman,serif" font-size="30.00"> &#160;&#160;194 &#160;&#160;9% &#160;&#160;2.18e&#45;15 mol/s &#160;&#160;&#160;1.00E+00</text>
</g>
<!-- R198 -->
<g id="node9" class="node">
<title>R198</title>
<g id="a_node9"><a xlink:href="198.svg" xlink:title="R198">
<polygon fill="cornsilk" stroke="none" points="1267,-373.08 1173,-373.08 1173,-326.08 1267,-326.08 1267,-373.08"/>
<text text-anchor="middle" x="1220" y="-341.08" font-family="Times New Roman,serif" font-size="35.00">R198</text>
</a>
</g>
</g>
<!-- R53&#45;&gt;R198 -->
<g id="edge8" class="edge">
<title>R53&#45;&gt;R198</title>
<path fill="none" stroke="black" d="M666.84,-349.58C766.61,-349.58 1042.52,-349.58 1162.29,-349.58"/>
<polygon fill="black" stroke="black" points="1162.04,-353.08 1172.04,-349.58 1162.04,-346.08 1162.04,-353.08"/>
<text text-anchor="middle" x="924.5" y="-358.58" font-family="Times New Roman,serif" font-size="30.00"> &#160;&#160;259 &#160;&#160;9% &#160;&#160;2.18e&#45;15 mol/s &#160;&#160;&#160;1.00E+00</text>
</g>
<!-- R199 -->
<g id="node10" class="node">
<title>R199</title>
<g id="a_node10"><a xlink:href="199.svg" xlink:title="R199">
<polygon fill="cornsilk" stroke="none" points="1267,-308.08 1173,-308.08 1173,-261.08 1267,-261.08 1267,-308.08"/>
<text text-anchor="middle" x="1220" y="-276.08" font-family="Times New Roman,serif" font-size="35.00">R199</text>
</a>
</g>
</g>
<!-- R53&#45;&gt;R199 -->
<g id="edge9" class="edge">
<title>R53&#45;&gt;R199</title>
<path fill="none" stroke="black" d="M658.42,-326.26C666.54,-320.8 675.72,-315.68 685,-312.58 851.35,-257.03 1062.99,-268.22 1162.48,-277.9"/>
<polygon fill="black" stroke="black" points="1161.89,-281.46 1172.19,-278.98 1162.59,-274.49 1161.89,-281.46"/>
<text text-anchor="middle" x="924.5" y="-321.58" font-family="Times New Roman,serif" font-size="30.00"> &#160;&#160;260 &#160;&#160;9% &#160;&#160;2.18e&#45;15 mol/s &#160;&#160;&#160;1.00E+00</text>
</g>
<!-- R200 -->
<g id="node11" class="node">
<title>R200</title>
<g id="a_node11"><a xlink:href="200.svg" xlink:title="R200">
<polygon fill="cornsilk" stroke="none" points="1267,-243.08 1173,-243.08 1173,-196.08 1267,-196.08 1267,-243.08"/>
<text text-anchor="middle" x="1220" y="-211.08" font-family="Times New Roman,serif" font-size="35.00">R200</text>
</a>
</g>
</g>
<!-- R53&#45;&gt;R200 -->
<g id="edge10" class="edge">
<title>R53&#45;&gt;R200</title>
<path fill="none" stroke="black" d="M633.53,-326.39C639.11,-298.71 652.85,-253.55 685,-232.58 762.21,-182.23 1041.52,-202.24 1162.49,-213.7"/>
<polygon fill="black" stroke="black" points="1162.05,-217.27 1172.34,-214.74 1162.73,-210.3 1162.05,-217.27"/>
<text text-anchor="middle" x="924.5" y="-241.58" font-family="Times New Roman,serif" font-size="30.00"> &#160;&#160;261 &#160;&#160;9% &#160;&#160;2.18e&#45;15 mol/s &#160;&#160;&#160;1.00E+00</text>
</g>
<!-- R226 -->
<g id="node12" class="node">
<title>R226</title>
<g id="a_node12"><a xlink:href="226.svg" xlink:title="R226">
<polygon fill="cornsilk" stroke="none" points="1267,-178.08 1173,-178.08 1173,-131.08 1267,-131.08 1267,-178.08"/>
<text text-anchor="middle" x="1220" y="-146.08" font-family="Times New Roman,serif" font-size="35.00">R226</text>
</a>
</g>
</g>
<!-- R53&#45;&gt;R226 -->
<g id="edge11" class="edge">
<title>R53&#45;&gt;R226</title>
<path fill="none" stroke="black" d="M633.43,-326.32C640.63,-280.97 658.86,-183.45 685,-163.58 758.53,-107.68 1041.05,-133.34 1162.73,-147.47"/>
<polygon fill="black" stroke="black" points="1161.95,-151.02 1172.29,-148.71 1162.77,-144.07 1161.95,-151.02"/>
<text text-anchor="middle" x="924.5" y="-172.58" font-family="Times New Roman,serif" font-size="30.00"> &#160;&#160;353 &#160;&#160;9% &#160;&#160;2.18e&#45;15 mol/s &#160;&#160;&#160;1.00E+00</text>
</g>
<!-- R227 -->
<g id="node13" class="node">
<title>R227</title>
<g id="a_node13"><a xlink:href="227.svg" xlink:title="R227">
<polygon fill="cornsilk" stroke="none" points="1267,-113.08 1173,-113.08 1173,-66.08 1267,-66.08 1267,-113.08"/>
<text text-anchor="middle" x="1220" y="-81.08" font-family="Times New Roman,serif" font-size="35.00">R227</text>
</a>
</g>
</g>
<!-- R53&#45;&gt;R227 -->
<g id="edge12" class="edge">
<title>R53&#45;&gt;R227</title>
<path fill="none" stroke="black" d="M631.39,-326.14C635.34,-268.43 648.8,-122.02 685,-92.58 721.3,-63.06 1032.39,-78.23 1162.33,-85.97"/>
<polygon fill="black" stroke="black" points="1162.03,-89.52 1172.22,-86.62 1162.45,-82.53 1162.03,-89.52"/>
<text text-anchor="middle" x="924.5" y="-101.58" font-family="Times New Roman,serif" font-size="30.00"> &#160;&#160;354 &#160;&#160;9% &#160;&#160;2.18e&#45;15 mol/s &#160;&#160;&#160;1.00E+00</text>
</g>
<!-- R261 -->
<g id="node14" class="node">
<title>R261</title>
<g id="a_node14"><a xlink:href="261.svg" xlink:title="R261">
<polygon fill="cornsilk" stroke="none" points="1267,-48.08 1173,-48.08 1173,-1.08 1267,-1.08 1267,-48.08"/>
<text text-anchor="middle" x="1220" y="-16.08" font-family="Times New Roman,serif" font-size="35.00">R261</text>
</a>
</g>
</g>
<!-- R53&#45;&gt;R261 -->
<g id="edge13" class="edge">
<title>R53&#45;&gt;R261</title>
<path fill="none" stroke="black" d="M630.48,-326.24C632.36,-260.48 641.48,-76.06 685,-38.58 755.09,21.78 1040.18,-3.43 1162.65,-17.5"/>
<polygon fill="black" stroke="black" points="1161.95,-21.06 1172.29,-18.74 1162.76,-14.11 1161.95,-21.06"/>
<text text-anchor="middle" x="924.5" y="-47.58" font-family="Times New Roman,serif" font-size="30.00"> &#160;&#160;355 &#160;&#160;9% &#160;&#160;2.18e&#45;15 mol/s &#160;&#160;&#160;1.00E+00</text>
</g>
<!-- R3 -->
<g id="node2" class="node">
<title>R3</title>
<g id="a_node2"><a xlink:href="3.svg" xlink:title="R3">
<polygon fill="cornsilk" stroke="none" points="67,-522.08 9,-522.08 9,-475.08 67,-475.08 67,-522.08"/>
<text text-anchor="middle" x="38" y="-490.08" font-family="Times New Roman,serif" font-size="35.00">R3</text>
</a>
</g>
</g>
<!-- R3&#45;&gt;R53 -->
<g id="edge1" class="edge">
<title>R3&#45;&gt;R53</title>
<path fill="none" stroke="black" stroke-width="5" d="M66.81,-506.55C151.58,-529.05 410.81,-584.56 573,-473.58 599.66,-455.34 613.54,-421.04 620.69,-393.13"/>
<polygon fill="black" stroke="black" stroke-width="5" points="628.37,-400.37 624.01,-378.98 611.26,-396.7 628.37,-400.37"/>
<text text-anchor="middle" x="333.5" y="-548.58" font-family="Times New Roman,serif" font-size="30.00"> &#160;&#160;59 &#160;&#160;92% &#160;&#160;2.18e&#45;15 mol/s &#160;&#160;&#160;1.00E+00</text>
</g>
<!-- R13 -->
<g id="node3" class="node">
<title>R13</title>
<g id="a_node3"><a xlink:href="13.svg" xlink:title="R13">
<polygon fill="cornsilk" stroke="none" points="76,-457.08 0,-457.08 0,-410.08 76,-410.08 76,-457.08"/>
<text text-anchor="middle" x="38" y="-425.08" font-family="Times New Roman,serif" font-size="35.00">R13</text>
</a>
</g>
</g>
<!-- R13&#45;&gt;R53 -->
<g id="edge2" class="edge">
<title>R13&#45;&gt;R53</title>
<path fill="none" stroke="black" stroke-width="5" d="M75.89,-434.84C181.62,-437.94 483.82,-443 573,-403.58 581.4,-399.87 589.25,-394.27 596.24,-388.06"/>
<polygon fill="black" stroke="black" stroke-width="5" points="599.16,-397.49 606.84,-377.06 586.62,-385.28 599.16,-397.49"/>
<text text-anchor="middle" x="333.5" y="-445.58" font-family="Times New Roman,serif" font-size="30.00"> &#160;&#160;59 &#160;&#160;92% &#160;&#160;2.18e&#45;15 mol/s &#160;&#160;&#160;1.00E+00</text>
</g>
<!-- R19 -->
<g id="node15" class="node">
<title>R19</title>
<g id="a_node15"><a xlink:href="19.svg" xlink:title="R19">
<polygon fill="cornsilk" stroke="none" points="76,-369.08 0,-369.08 0,-322.08 76,-322.08 76,-369.08"/>
<text text-anchor="middle" x="38" y="-337.08" font-family="Times New Roman,serif" font-size="35.00">R19</text>
</a>
</g>
</g>
<!-- R19&#45;&gt;R53 -->
<g id="edge14" class="edge">
<title>R19&#45;&gt;R53</title>
<path fill="none" stroke="black" d="M75.86,-353.23C81.89,-354.21 88.1,-355.05 94,-355.58 306.03,-374.7 360.43,-367.14 573,-355.58 575.38,-355.45 577.81,-355.29 580.26,-355.11"/>
<polygon fill="black" stroke="black" points="580.4,-358.52 590.06,-354.17 579.8,-351.55 580.4,-358.52"/>
<text text-anchor="middle" x="333.5" y="-375.58" font-family="Times New Roman,serif" font-size="30.00"> &#160;&#160;423 &#160;&#160;0% &#160;&#160;2.2e&#45;26 mol/s &#160;&#160;&#160;1.00E+00</text>
</g>
<!-- R19&#45;&gt;R53 -->
<g id="edge16" class="edge">
<title>R19&#45;&gt;R53</title>
<path fill="none" stroke="black" d="M75.72,-324.75C81.67,-322.2 87.89,-320 94,-318.58 145.84,-306.54 521.52,-305.07 573,-318.58 576.18,-319.42 579.38,-320.48 582.54,-321.72"/>
<polygon fill="black" stroke="black" points="580.88,-325.26 591.44,-326.13 583.73,-318.86 580.88,-325.26"/>
<text text-anchor="middle" x="333.5" y="-327.58" font-family="Times New Roman,serif" font-size="30.00"> &#160;&#160;440 &#160;&#160;7% &#160;&#160;1.85e&#45;16 mol/s &#160;&#160;&#160;1.19E&#45;10</text>
</g>
<!-- R43 -->
<g id="node16" class="node">
<title>R43</title>
<g id="a_node16"><a xlink:href="43.svg" xlink:title="R43">
<polygon fill="cornsilk" stroke="none" points="76,-261.08 0,-261.08 0,-214.08 76,-214.08 76,-261.08"/>
<text text-anchor="middle" x="38" y="-229.08" font-family="Times New Roman,serif" font-size="35.00">R43</text>
</a>
</g>
</g>
<!-- R43&#45;&gt;R53 -->
<g id="edge15" class="edge">
<title>R43&#45;&gt;R53</title>
<path fill="none" stroke="black" d="M75.96,-241.87C81.98,-242.5 88.16,-243.09 94,-243.58 147.13,-248.03 526.41,-245.67 573,-271.58 591.04,-281.61 604.54,-300.35 613.66,-316.94"/>
<polygon fill="black" stroke="black" points="610.83,-318.09 618.52,-325.38 617.05,-314.89 610.83,-318.09"/>
<text text-anchor="middle" x="333.5" y="-280.58" font-family="Times New Roman,serif" font-size="30.00"> &#160;&#160;438 &#160;&#160;0% &#160;&#160;2.2e&#45;26 mol/s &#160;&#160;&#160;1.00E+00</text>
</g>
<!-- R43&#45;&gt;R53 -->
<g id="edge17" class="edge">
<title>R43&#45;&gt;R53</title>
<path fill="none" stroke="black" d="M74.56,-214.13C80.81,-211.02 87.43,-208.31 94,-206.58 299.92,-152.55 397.51,-86.06 573,-206.58 608.36,-230.87 621,-281.31 625.51,-315.31"/>
<polygon fill="black" stroke="black" points="622.13,-315.61 626.74,-325.15 629.09,-314.81 622.13,-315.61"/>
<text text-anchor="middle" x="333.5" y="-215.58" font-family="Times New Roman,serif" font-size="30.00"> &#160;&#160;441 &#160;&#160;0% &#160;&#160;5.55e&#45;23 mol/s &#160;&#160;&#160;3.96E&#45;04</text>
</g>
</g>
</svg>
