<?xml version="1.0" encoding="UTF-8" standalone="no"?>
<!DOCTYPE svg PUBLIC "-//W3C//DTD SVG 1.1//EN"
 "http://www.w3.org/Graphics/SVG/1.1/DTD/svg11.dtd">
<!-- Generated by graphviz version 8.0.3 (20230416.2022)
 -->
<!-- Title: G Pages: 1 -->
<svg width="640pt" height="135pt"
 viewBox="0.00 0.00 720.00 152.35" xmlns="http://www.w3.org/2000/svg" xmlns:xlink="http://www.w3.org/1999/xlink">
<g id="graph0" class="graph" transform="scale(0.41317 0.41317) rotate(0) translate(4 323.75)">
<title>G</title>
<polygon fill="white" stroke="none" points="-4,4 -4,-323.75 1545,-323.75 1545,4 -4,4"/>
<text text-anchor="middle" x="770.5" y="-286.95" font-family="Arial" font-size="36.00" fill="blue">Reaction Path Analysis</text>
<!-- CO(S) -->
<g id="node1" class="node">
<title>CO(S)</title>
<g id="a_node1"><a xlink:href="54.svg" xlink:title="CO(S)">
<polygon fill="orange" stroke="none" points="829,-147.25 720,-147.25 720,-100.25 829,-100.25 829,-147.25"/>
<text text-anchor="middle" x="774.5" y="-115.25" font-family="Times New Roman,serif" font-size="35.00">CO(S)</text>
</a>
</g>
</g>
<!-- COOH(S) -->
<g id="node6" class="node">
<title>COOH(S)</title>
<g id="a_node6"><a xlink:href="64.svg" xlink:title="COOH(S)">
<polygon fill="dodgerblue" stroke="none" points="1541,-147.25 1382,-147.25 1382,-100.25 1541,-100.25 1541,-147.25"/>
<text text-anchor="middle" x="1461.5" y="-115.25" font-family="Times New Roman,serif" font-size="35.00">COOH(S)</text>
</a>
</g>
</g>
<!-- CO(S)&#45;&gt;COOH(S) -->
<g id="edge5" class="edge">
<title>CO(S)&#45;&gt;COOH(S)</title>
<path fill="none" stroke="black" stroke-width="5" d="M828.97,-123.75C943.53,-123.75 1214.21,-123.75 1361.25,-123.75"/>
<polygon fill="black" stroke="black" stroke-width="5" points="1356.02,-132.5 1376.02,-123.75 1356.02,-115 1356.02,-132.5"/>
<text text-anchor="middle" x="1118" y="-132.75" font-family="Times New Roman,serif" font-size="30.00"> &#160;&#160;154 &#160;&#160;99% &#160;&#160;2.5e&#45;06 mol/s &#160;&#160;&#160;7.21E&#45;01</text>
</g>
<!-- CH3CO(S) -->
<g id="node2" class="node">
<title>CH3CO(S)</title>
<g id="a_node2"><a xlink:href="28.svg" xlink:title="CH3CO(S)">
<polygon fill="springgreen" stroke="none" points="175,-245.25 0,-245.25 0,-198.25 175,-198.25 175,-245.25"/>
<text text-anchor="middle" x="87.5" y="-213.25" font-family="Times New Roman,serif" font-size="35.00">CH3CO(S)</text>
</a>
</g>
</g>
<!-- CH3CO(S)&#45;&gt;CO(S) -->
<g id="edge1" class="edge">
<title>CH3CO(S)&#45;&gt;CO(S)</title>
<path fill="none" stroke="black" d="M174.82,-232.11C292.29,-242.95 507.41,-251.1 678,-191.75 701.13,-183.71 723.61,-168.21 740.95,-154.03"/>
<polygon fill="black" stroke="black" points="742.64,-156.34 748.02,-147.22 738.12,-150.99 742.64,-156.34"/>
<text text-anchor="middle" x="431" y="-247.75" font-family="Times New Roman,serif" font-size="30.00"> &#160;&#160;99 &#160;&#160;0% &#160;&#160;1.58e&#45;08 mol/s &#160;&#160;&#160;1.00E+00</text>
</g>
<!-- CH2CO(S) -->
<g id="node3" class="node">
<title>CH2CO(S)</title>
<g id="a_node3"><a xlink:href="31.svg" xlink:title="CH2CO(S)">
<polygon fill="springgreen" stroke="none" points="175,-180.25 0,-180.25 0,-133.25 175,-133.25 175,-180.25"/>
<text text-anchor="middle" x="87.5" y="-148.25" font-family="Times New Roman,serif" font-size="35.00">CH2CO(S)</text>
</a>
</g>
</g>
<!-- CH2CO(S)&#45;&gt;CO(S) -->
<g id="edge2" class="edge">
<title>CH2CO(S)&#45;&gt;CO(S)</title>
<path fill="none" stroke="black" d="M174.53,-155.63C289.44,-153.65 499.29,-148.36 678,-134.75 688.13,-133.98 698.84,-132.96 709.28,-131.84"/>
<polygon fill="black" stroke="black" points="709.48,-135.23 719.03,-130.65 708.71,-128.27 709.48,-135.23"/>
<text text-anchor="middle" x="431" y="-163.75" font-family="Times New Roman,serif" font-size="30.00"> &#160;&#160;102 &#160;&#160;0% &#160;&#160;1.34e&#45;09 mol/s &#160;&#160;&#160;1.00E+00</text>
</g>
<!-- CHCO(S) -->
<g id="node4" class="node">
<title>CHCO(S)</title>
<g id="a_node4"><a xlink:href="34.svg" xlink:title="CHCO(S)">
<polygon fill="springgreen" stroke="none" points="166,-115.25 9,-115.25 9,-68.25 166,-68.25 166,-115.25"/>
<text text-anchor="middle" x="87.5" y="-83.25" font-family="Times New Roman,serif" font-size="35.00">CHCO(S)</text>
</a>
</g>
</g>
<!-- CHCO(S)&#45;&gt;CO(S) -->
<g id="edge3" class="edge">
<title>CHCO(S)&#45;&gt;CO(S)</title>
<path fill="none" stroke="black" stroke-width="5" d="M165.63,-87.94C278.58,-83.52 495.37,-79.42 678,-101.75 685.1,-102.62 692.44,-103.8 699.75,-105.16"/>
<polygon fill="black" stroke="black" stroke-width="5" points="692.7,-112.88 714.06,-108.37 696.25,-95.74 692.7,-112.88"/>
<text text-anchor="middle" x="431" y="-110.75" font-family="Times New Roman,serif" font-size="30.00"> &#160;&#160;105 &#160;&#160;99% &#160;&#160;5.42e&#45;06 mol/s &#160;&#160;&#160;1.00E+00</text>
</g>
<!-- CCO(S) -->
<g id="node5" class="node">
<title>CCO(S)</title>
<g id="a_node5"><a xlink:href="37.svg" xlink:title="CCO(S)">
<polygon fill="dodgerblue" stroke="none" points="153.5,-50.25 21.5,-50.25 21.5,-3.25 153.5,-3.25 153.5,-50.25"/>
<text text-anchor="middle" x="87.5" y="-18.25" font-family="Times New Roman,serif" font-size="35.00">CCO(S)</text>
</a>
</g>
</g>
<!-- CCO(S)&#45;&gt;CO(S) -->
<g id="edge4" class="edge">
<title>CCO(S)&#45;&gt;CO(S)</title>
<path fill="none" stroke="black" d="M153.44,-15.96C264.85,-0.24 497.81,20.3 678,-46.75 703.79,-56.35 727.88,-75.88 745.41,-92.86"/>
<polygon fill="black" stroke="black" points="742.44,-94.84 751.98,-99.44 747.39,-89.9 742.44,-94.84"/>
<text text-anchor="middle" x="431" y="-55.75" font-family="Times New Roman,serif" font-size="30.00"> &#160;&#160;108 &#160;&#160;0% &#160;&#160;2.08e&#45;09 mol/s &#160;&#160;&#160;9.80E&#45;01</text>
</g>
</g>
</svg>
