<?xml version="1.0" encoding="UTF-8" standalone="no"?>
<!DOCTYPE svg PUBLIC "-//W3C//DTD SVG 1.1//EN"
 "http://www.w3.org/Graphics/SVG/1.1/DTD/svg11.dtd">
<!-- Generated by graphviz version 8.0.3 (20230416.2022)
 -->
<!-- Title: G Pages: 1 -->
<svg width="640pt" height="304pt"
 viewBox="0.00 0.00 720.00 341.88" xmlns="http://www.w3.org/2000/svg" xmlns:xlink="http://www.w3.org/1999/xlink">
<g id="graph0" class="graph" transform="scale(0.490421 0.490421) rotate(0) translate(4 615.65)">
<title>G</title>
<polygon fill="white" stroke="none" points="-4,4 -4,-615.65 1301,-615.65 1301,4 -4,4"/>
<text text-anchor="middle" x="648.5" y="-578.85" font-family="Arial" font-size="36.00" fill="blue">Reaction Path Analysis</text>
<!-- R55 -->
<g id="node1" class="node">
<title>R55</title>
<g id="a_node1"><a xlink:href="55.svg" xlink:title="R55">
<polygon fill="cornsilk" stroke="none" points="682,-288.15 606,-288.15 606,-241.15 682,-241.15 682,-288.15"/>
<text text-anchor="middle" x="644" y="-256.15" font-family="Times New Roman,serif" font-size="35.00">R55</text>
</a>
</g>
</g>
<!-- R97 -->
<g id="node6" class="node">
<title>R97</title>
<g id="a_node6"><a xlink:href="97.svg" xlink:title="R97">
<polygon fill="cornsilk" stroke="none" points="1288,-539.15 1212,-539.15 1212,-492.15 1288,-492.15 1288,-539.15"/>
<text text-anchor="middle" x="1250" y="-507.15" font-family="Times New Roman,serif" font-size="35.00">R97</text>
</a>
</g>
</g>
<!-- R55&#45;&gt;R97 -->
<g id="edge5" class="edge">
<title>R55&#45;&gt;R97</title>
<path fill="none" stroke="black" d="M647.29,-287.96C652.89,-339.83 669.17,-462.21 700,-487.65 775.41,-549.89 1081.78,-530.44 1201.11,-520.19"/>
<polygon fill="black" stroke="black" points="1201.4,-523.59 1211.06,-519.23 1200.79,-516.62 1201.4,-523.59"/>
<text text-anchor="middle" x="947" y="-539.65" font-family="Times New Roman,serif" font-size="30.00"> &#160;&#160;124 &#160;&#160;19% &#160;&#160;2.18e&#45;15 mol/s &#160;&#160;&#160;1.00E+00</text>
</g>
<!-- R98 -->
<g id="node7" class="node">
<title>R98</title>
<g id="a_node7"><a xlink:href="98.svg" xlink:title="R98">
<polygon fill="cornsilk" stroke="none" points="1288,-474.15 1212,-474.15 1212,-427.15 1288,-427.15 1288,-474.15"/>
<text text-anchor="middle" x="1250" y="-442.15" font-family="Times New Roman,serif" font-size="35.00">R98</text>
</a>
</g>
</g>
<!-- R55&#45;&gt;R98 -->
<g id="edge6" class="edge">
<title>R55&#45;&gt;R98</title>
<path fill="none" stroke="black" d="M645.49,-288.09C647.64,-323.73 657.47,-390.77 700,-422.65 739.56,-452.32 1074.87,-452.3 1201.15,-451.22"/>
<polygon fill="black" stroke="black" points="1201.03,-454.71 1211,-451.12 1200.97,-447.71 1201.03,-454.71"/>
<text text-anchor="middle" x="947" y="-459.65" font-family="Times New Roman,serif" font-size="30.00"> &#160;&#160;125 &#160;&#160;19% &#160;&#160;2.18e&#45;15 mol/s &#160;&#160;&#160;1.00E+00</text>
</g>
<!-- R144 -->
<g id="node8" class="node">
<title>R144</title>
<g id="a_node8"><a xlink:href="144.svg" xlink:title="R144">
<polygon fill="cornsilk" stroke="none" points="1297,-409.15 1203,-409.15 1203,-362.15 1297,-362.15 1297,-409.15"/>
<text text-anchor="middle" x="1250" y="-377.15" font-family="Times New Roman,serif" font-size="35.00">R144</text>
</a>
</g>
</g>
<!-- R55&#45;&gt;R144 -->
<g id="edge7" class="edge">
<title>R55&#45;&gt;R144</title>
<path fill="none" stroke="black" d="M651.41,-288.03C658.98,-310.66 673.95,-343.8 700,-359.65 741.28,-384.77 1060.94,-386.42 1192.61,-386.01"/>
<polygon fill="black" stroke="black" points="1192.27,-389.51 1202.25,-385.97 1192.24,-382.51 1192.27,-389.51"/>
<text text-anchor="middle" x="947" y="-394.65" font-family="Times New Roman,serif" font-size="30.00"> &#160;&#160;196 &#160;&#160;19% &#160;&#160;2.18e&#45;15 mol/s &#160;&#160;&#160;1.00E+00</text>
</g>
<!-- R145 -->
<g id="node9" class="node">
<title>R145</title>
<g id="a_node9"><a xlink:href="145.svg" xlink:title="R145">
<polygon fill="cornsilk" stroke="none" points="1297,-344.15 1203,-344.15 1203,-297.15 1297,-297.15 1297,-344.15"/>
<text text-anchor="middle" x="1250" y="-312.15" font-family="Times New Roman,serif" font-size="35.00">R145</text>
</a>
</g>
</g>
<!-- R55&#45;&gt;R145 -->
<g id="edge8" class="edge">
<title>R55&#45;&gt;R145</title>
<path fill="none" stroke="black" d="M676.82,-288.09C684.11,-292.36 692.06,-296.22 700,-298.65 790.56,-326.36 1070.89,-324.32 1192.15,-322.01"/>
<polygon fill="black" stroke="black" points="1192.1,-325.49 1202.03,-321.8 1191.96,-318.5 1192.1,-325.49"/>
<text text-anchor="middle" x="947" y="-331.65" font-family="Times New Roman,serif" font-size="30.00"> &#160;&#160;197 &#160;&#160;19% &#160;&#160;2.18e&#45;15 mol/s &#160;&#160;&#160;1.00E+00</text>
</g>
<!-- R146 -->
<g id="node10" class="node">
<title>R146</title>
<g id="a_node10"><a xlink:href="146.svg" xlink:title="R146">
<polygon fill="cornsilk" stroke="none" points="1297,-279.15 1203,-279.15 1203,-232.15 1297,-232.15 1297,-279.15"/>
<text text-anchor="middle" x="1250" y="-247.15" font-family="Times New Roman,serif" font-size="35.00">R146</text>
</a>
</g>
</g>
<!-- R55&#45;&gt;R146 -->
<g id="edge9" class="edge">
<title>R55&#45;&gt;R146</title>
<path fill="none" stroke="black" d="M681.87,-264.1C783.83,-262.59 1070.07,-258.32 1192.4,-256.5"/>
<polygon fill="black" stroke="black" points="1192.42,-259.98 1202.37,-256.33 1192.32,-252.98 1192.42,-259.98"/>
<text text-anchor="middle" x="947" y="-272.65" font-family="Times New Roman,serif" font-size="30.00"> &#160;&#160;198 &#160;&#160;19% &#160;&#160;2.18e&#45;15 mol/s &#160;&#160;&#160;1.00E+00</text>
</g>
<!-- R68 -->
<g id="node11" class="node">
<title>R68</title>
<g id="a_node11"><a xlink:href="68.svg" xlink:title="R68">
<polygon fill="cornsilk" stroke="none" points="1288,-195.15 1212,-195.15 1212,-148.15 1288,-148.15 1288,-195.15"/>
<text text-anchor="middle" x="1250" y="-163.15" font-family="Times New Roman,serif" font-size="35.00">R68</text>
</a>
</g>
</g>
<!-- R55&#45;&gt;R68 -->
<g id="edge10" class="edge">
<title>R55&#45;&gt;R68</title>
<path fill="none" stroke="black" d="M666.38,-241.31C675.78,-232.62 687.52,-223.65 700,-218.65 802.14,-177.79 1085.49,-204.77 1194,-186.65 1196.51,-186.23 1199.08,-185.75 1201.65,-185.21"/>
<polygon fill="black" stroke="black" points="1202.29,-188.43 1211.25,-182.77 1200.72,-181.61 1202.29,-188.43"/>
<text text-anchor="middle" x="947" y="-227.65" font-family="Times New Roman,serif" font-size="30.00"> &#160;&#160;442 &#160;&#160;0% &#160;&#160;2.2e&#45;26 mol/s &#160;&#160;&#160;1.00E+00</text>
</g>
<!-- R55&#45;&gt;R68 -->
<g id="edge12" class="edge">
<title>R55&#45;&gt;R68</title>
<path fill="none" stroke="black" d="M648.67,-241.23C654.36,-213.84 668.17,-169.71 700,-149.65 746.44,-120.39 1140.1,-139.27 1194,-149.65 1196.51,-150.14 1199.06,-150.74 1201.6,-151.42"/>
<polygon fill="black" stroke="black" points="1200.41,-155.03 1211,-154.66 1202.5,-148.34 1200.41,-155.03"/>
<text text-anchor="middle" x="947" y="-158.65" font-family="Times New Roman,serif" font-size="30.00"> &#160;&#160;453 &#160;&#160;0% &#160;&#160;1.69e&#45;19 mol/s &#160;&#160;&#160;1.30E&#45;07</text>
</g>
<!-- R130 -->
<g id="node12" class="node">
<title>R130</title>
<g id="a_node12"><a xlink:href="130.svg" xlink:title="R130">
<polygon fill="cornsilk" stroke="none" points="1297,-92.15 1203,-92.15 1203,-45.15 1297,-45.15 1297,-92.15"/>
<text text-anchor="middle" x="1250" y="-60.15" font-family="Times New Roman,serif" font-size="35.00">R130</text>
</a>
</g>
</g>
<!-- R55&#45;&gt;R130 -->
<g id="edge11" class="edge">
<title>R55&#45;&gt;R130</title>
<path fill="none" stroke="black" d="M644.96,-241.43C646.29,-204.2 654.91,-131.9 700,-97.65 741.75,-65.94 1103.66,-77.68 1192.28,-74.45"/>
<polygon fill="black" stroke="black" points="1192.3,-77.9 1202.1,-73.88 1191.93,-70.91 1192.3,-77.9"/>
<text text-anchor="middle" x="947" y="-106.65" font-family="Times New Roman,serif" font-size="30.00"> &#160;&#160;443 &#160;&#160;0% &#160;&#160;2.2e&#45;26 mol/s &#160;&#160;&#160;1.00E+00</text>
</g>
<!-- R55&#45;&gt;R130 -->
<g id="edge13" class="edge">
<title>R55&#45;&gt;R130</title>
<path fill="none" stroke="black" d="M647.09,-241.21C652.33,-188.42 667.97,-62.85 700,-37.65 786.28,30.22 1087.82,-9.79 1194,-37.65 1197.18,-38.49 1200.38,-39.56 1203.54,-40.79"/>
<polygon fill="black" stroke="black" points="1201.88,-44.33 1212.44,-45.2 1204.73,-37.93 1201.88,-44.33"/>
<text text-anchor="middle" x="947" y="-46.65" font-family="Times New Roman,serif" font-size="30.00"> &#160;&#160;658 &#160;&#160;0% &#160;&#160;5.4e&#45;23 mol/s &#160;&#160;&#160;4.07E&#45;04</text>
</g>
<!-- R3 -->
<g id="node2" class="node">
<title>R3</title>
<g id="a_node2"><a xlink:href="3.svg" xlink:title="R3">
<polygon fill="cornsilk" stroke="none" points="67,-386.15 9,-386.15 9,-339.15 67,-339.15 67,-386.15"/>
<text text-anchor="middle" x="38" y="-354.15" font-family="Times New Roman,serif" font-size="35.00">R3</text>
</a>
</g>
</g>
<!-- R3&#45;&gt;R55 -->
<g id="edge1" class="edge">
<title>R3&#45;&gt;R55</title>
<path fill="none" stroke="black" stroke-width="3" d="M66.75,-368.82C150.96,-386.04 408.77,-427.49 588,-334.65 603.99,-326.37 616.81,-311.14 626.04,-296.99"/>
<polygon fill="black" stroke="black" stroke-width="3" points="627.35,-301.29 629.59,-290.93 621.38,-297.63 627.35,-301.29"/>
<text text-anchor="middle" x="341" y="-401.65" font-family="Times New Roman,serif" font-size="30.00"> &#160;&#160;61 &#160;&#160;50% &#160;&#160;2.18e&#45;15 mol/s &#160;&#160;&#160;1.00E+00</text>
</g>
<!-- R14 -->
<g id="node3" class="node">
<title>R14</title>
<g id="a_node3"><a xlink:href="14.svg" xlink:title="R14">
<polygon fill="cornsilk" stroke="none" points="76,-321.15 0,-321.15 0,-274.15 76,-274.15 76,-321.15"/>
<text text-anchor="middle" x="38" y="-289.15" font-family="Times New Roman,serif" font-size="35.00">R14</text>
</a>
</g>
</g>
<!-- R14&#45;&gt;R55 -->
<g id="edge2" class="edge">
<title>R14&#45;&gt;R55</title>
<path fill="none" stroke="black" stroke-width="3" d="M75.78,-298.17C164.32,-298.98 396.2,-298.53 588,-275.65 590.4,-275.37 592.84,-275.03 595.31,-274.66"/>
<polygon fill="black" stroke="black" stroke-width="3" points="592.86,-277.95 602.15,-272.85 591.71,-271.05 592.86,-277.95"/>
<text text-anchor="middle" x="341" y="-306.65" font-family="Times New Roman,serif" font-size="30.00"> &#160;&#160;61 &#160;&#160;50% &#160;&#160;2.18e&#45;15 mol/s &#160;&#160;&#160;1.00E+00</text>
</g>
<!-- R0 -->
<g id="node4" class="node">
<title>R0</title>
<g id="a_node4"><a xlink:href="0.svg" xlink:title="R0">
<polygon fill="cornsilk" stroke="none" points="67,-256.15 9,-256.15 9,-209.15 67,-209.15 67,-256.15"/>
<text text-anchor="middle" x="38" y="-224.15" font-family="Times New Roman,serif" font-size="35.00">R0</text>
</a>
</g>
</g>
<!-- R0&#45;&gt;R55 -->
<g id="edge3" class="edge">
<title>R0&#45;&gt;R55</title>
<path fill="none" stroke="black" stroke-width="3" d="M66.8,-229.67C148.05,-221.68 391.78,-203.01 588,-242.65 590.65,-243.19 593.33,-243.84 596.01,-244.59"/>
<polygon fill="black" stroke="black" stroke-width="3" points="591.69,-247.16 602.28,-246.86 593.82,-240.49 591.69,-247.16"/>
<text text-anchor="middle" x="341" y="-251.65" font-family="Times New Roman,serif" font-size="30.00"> &#160;&#160;122 &#160;&#160;50% &#160;&#160;2.18e&#45;15 mol/s &#160;&#160;&#160;1.00E+00</text>
</g>
<!-- R53 -->
<g id="node5" class="node">
<title>R53</title>
<g id="a_node5"><a xlink:href="53.svg" xlink:title="R53">
<polygon fill="cornsilk" stroke="none" points="76,-191.15 0,-191.15 0,-144.15 76,-144.15 76,-191.15"/>
<text text-anchor="middle" x="38" y="-159.15" font-family="Times New Roman,serif" font-size="35.00">R53</text>
</a>
</g>
</g>
<!-- R53&#45;&gt;R55 -->
<g id="edge4" class="edge">
<title>R53&#45;&gt;R55</title>
<path fill="none" stroke="black" stroke-width="3" d="M75.69,-157.6C168.5,-134.36 417.38,-85.81 588,-180.65 607.8,-191.66 621.67,-213.13 630.53,-231.61"/>
<polygon fill="black" stroke="black" stroke-width="3" points="626.66,-229.78 633.94,-237.49 633.05,-226.93 626.66,-229.78"/>
<text text-anchor="middle" x="341" y="-189.65" font-family="Times New Roman,serif" font-size="30.00"> &#160;&#160;122 &#160;&#160;50% &#160;&#160;2.18e&#45;15 mol/s &#160;&#160;&#160;1.00E+00</text>
</g>
</g>
</svg>
