<?xml version="1.0" encoding="UTF-8" standalone="no"?>
<!DOCTYPE svg PUBLIC "-//W3C//DTD SVG 1.1//EN"
 "http://www.w3.org/Graphics/SVG/1.1/DTD/svg11.dtd">
<!-- Generated by graphviz version 8.0.3 (20230416.2022)
 -->
<!-- Title: G Pages: 1 -->
<svg width="504pt" height="640pt"
 viewBox="0.00 0.00 567.20 720.00" xmlns="http://www.w3.org/2000/svg" xmlns:xlink="http://www.w3.org/1999/xlink">
<g id="graph0" class="graph" transform="scale(0.393275 0.393275) rotate(0) translate(4 1623.36)">
<title>G</title>
<polygon fill="white" stroke="none" points="-4,4 -4,-1623.36 1278,-1623.36 1278,4 -4,4"/>
<text text-anchor="middle" x="637" y="-1586.56" font-family="Arial" font-size="36.00" fill="blue">Reaction Path Analysis</text>
<!-- R6 -->
<g id="node1" class="node">
<title>R6</title>
<g id="a_node1"><a xlink:href="6.svg" xlink:title="R6">
<polygon fill="cornsilk" stroke="none" points="657,-773.86 599,-773.86 599,-726.86 657,-726.86 657,-773.86"/>
<text text-anchor="middle" x="628" y="-741.86" font-family="Times New Roman,serif" font-size="35.00">R6</text>
</a>
</g>
</g>
<!-- R9 -->
<g id="node4" class="node">
<title>R9</title>
<g id="a_node4"><a xlink:href="9.svg" xlink:title="R9">
<polygon fill="cornsilk" stroke="none" points="1256,-1542.86 1198,-1542.86 1198,-1495.86 1256,-1495.86 1256,-1542.86"/>
<text text-anchor="middle" x="1227" y="-1510.86" font-family="Times New Roman,serif" font-size="35.00">R9</text>
</a>
</g>
</g>
<!-- R6&#45;&gt;R9 -->
<g id="edge3" class="edge">
<title>R6&#45;&gt;R9</title>
<path fill="none" stroke="black" d="M628.93,-773.63C628.83,-893.95 631.25,-1441.96 684,-1493.36 755.02,-1562.56 1075.76,-1535.53 1187.48,-1523.74"/>
<polygon fill="black" stroke="black" points="1187.67,-1527.13 1197.24,-1522.59 1186.92,-1520.17 1187.67,-1527.13"/>
<text text-anchor="middle" x="927.5" y="-1547.36" font-family="Times New Roman,serif" font-size="30.00"> &#160;&#160;15 &#160;&#160;3% &#160;&#160;4.67e&#45;08 mol/s &#160;&#160;&#160;1.00E+00</text>
</g>
<!-- R10 -->
<g id="node5" class="node">
<title>R10</title>
<g id="a_node5"><a xlink:href="10.svg" xlink:title="R10">
<polygon fill="cornsilk" stroke="none" points="1265,-1477.86 1189,-1477.86 1189,-1430.86 1265,-1430.86 1265,-1477.86"/>
<text text-anchor="middle" x="1227" y="-1445.86" font-family="Times New Roman,serif" font-size="35.00">R10</text>
</a>
</g>
</g>
<!-- R6&#45;&gt;R10 -->
<g id="edge4" class="edge">
<title>R6&#45;&gt;R10</title>
<path fill="none" stroke="black" d="M629.11,-773.82C629.88,-887.99 635.99,-1381.91 684,-1428.36 719.08,-1462.3 1052.57,-1458.33 1178.33,-1455.58"/>
<polygon fill="black" stroke="black" points="1178.21,-1459.06 1188.13,-1455.34 1178.06,-1452.07 1178.21,-1459.06"/>
<text text-anchor="middle" x="927.5" y="-1465.36" font-family="Times New Roman,serif" font-size="30.00"> &#160;&#160;22 &#160;&#160;3% &#160;&#160;4.67e&#45;08 mol/s &#160;&#160;&#160;1.00E+00</text>
</g>
<!-- R19 -->
<g id="node6" class="node">
<title>R19</title>
<g id="a_node6"><a xlink:href="19.svg" xlink:title="R19">
<polygon fill="cornsilk" stroke="none" points="1265,-1412.86 1189,-1412.86 1189,-1365.86 1265,-1365.86 1265,-1412.86"/>
<text text-anchor="middle" x="1227" y="-1380.86" font-family="Times New Roman,serif" font-size="35.00">R19</text>
</a>
</g>
</g>
<!-- R6&#45;&gt;R19 -->
<g id="edge5" class="edge">
<title>R6&#45;&gt;R19</title>
<path fill="none" stroke="black" d="M629.32,-773.67C631.03,-880.74 640.67,-1321.8 684,-1363.36 719.22,-1397.15 1052.63,-1393.27 1178.34,-1390.57"/>
<polygon fill="black" stroke="black" points="1178.23,-1394.05 1188.15,-1390.33 1178.07,-1387.05 1178.23,-1394.05"/>
<text text-anchor="middle" x="927.5" y="-1400.36" font-family="Times New Roman,serif" font-size="30.00"> &#160;&#160;23 &#160;&#160;3% &#160;&#160;4.67e&#45;08 mol/s &#160;&#160;&#160;1.00E+00</text>
</g>
<!-- R33 -->
<g id="node7" class="node">
<title>R33</title>
<g id="a_node7"><a xlink:href="33.svg" xlink:title="R33">
<polygon fill="cornsilk" stroke="none" points="1265,-1347.86 1189,-1347.86 1189,-1300.86 1265,-1300.86 1265,-1347.86"/>
<text text-anchor="middle" x="1227" y="-1315.86" font-family="Times New Roman,serif" font-size="35.00">R33</text>
</a>
</g>
</g>
<!-- R6&#45;&gt;R33 -->
<g id="edge6" class="edge">
<title>R6&#45;&gt;R33</title>
<path fill="none" stroke="black" d="M629.59,-773.84C632.33,-873.94 645.38,-1261.7 684,-1298.36 719.4,-1331.96 1052.7,-1328.2 1178.36,-1325.55"/>
<polygon fill="black" stroke="black" points="1178.24,-1329.03 1188.16,-1325.31 1178.09,-1322.03 1178.24,-1329.03"/>
<text text-anchor="middle" x="927.5" y="-1335.36" font-family="Times New Roman,serif" font-size="30.00"> &#160;&#160;38 &#160;&#160;3% &#160;&#160;4.67e&#45;08 mol/s &#160;&#160;&#160;1.00E+00</text>
</g>
<!-- R34 -->
<g id="node8" class="node">
<title>R34</title>
<g id="a_node8"><a xlink:href="34.svg" xlink:title="R34">
<polygon fill="cornsilk" stroke="none" points="1265,-1282.86 1189,-1282.86 1189,-1235.86 1265,-1235.86 1265,-1282.86"/>
<text text-anchor="middle" x="1227" y="-1250.86" font-family="Times New Roman,serif" font-size="35.00">R34</text>
</a>
</g>
</g>
<!-- R6&#45;&gt;R34 -->
<g id="edge7" class="edge">
<title>R6&#45;&gt;R34</title>
<path fill="none" stroke="black" d="M629.92,-773.81C633.78,-866.21 650.04,-1201.56 684,-1233.36 719.62,-1266.72 1052.78,-1263.11 1178.39,-1260.52"/>
<polygon fill="black" stroke="black" points="1178.26,-1264 1188.18,-1260.29 1178.11,-1257 1178.26,-1264"/>
<text text-anchor="middle" x="927.5" y="-1270.36" font-family="Times New Roman,serif" font-size="30.00"> &#160;&#160;39 &#160;&#160;3% &#160;&#160;4.67e&#45;08 mol/s &#160;&#160;&#160;1.00E+00</text>
</g>
<!-- R36 -->
<g id="node9" class="node">
<title>R36</title>
<g id="a_node9"><a xlink:href="36.svg" xlink:title="R36">
<polygon fill="cornsilk" stroke="none" points="1265,-1217.86 1189,-1217.86 1189,-1170.86 1265,-1170.86 1265,-1217.86"/>
<text text-anchor="middle" x="1227" y="-1185.86" font-family="Times New Roman,serif" font-size="35.00">R36</text>
</a>
</g>
</g>
<!-- R6&#45;&gt;R36 -->
<g id="edge8" class="edge">
<title>R6&#45;&gt;R36</title>
<path fill="none" stroke="black" d="M630.35,-773.76C635.45,-857.87 654.68,-1141.38 684,-1168.36 719.91,-1201.41 1052.89,-1197.99 1178.42,-1195.49"/>
<polygon fill="black" stroke="black" points="1178.28,-1198.97 1188.2,-1195.26 1178.13,-1191.97 1178.28,-1198.97"/>
<text text-anchor="middle" x="927.5" y="-1205.36" font-family="Times New Roman,serif" font-size="30.00"> &#160;&#160;53 &#160;&#160;3% &#160;&#160;4.67e&#45;08 mol/s &#160;&#160;&#160;1.00E+00</text>
</g>
<!-- R48 -->
<g id="node10" class="node">
<title>R48</title>
<g id="a_node10"><a xlink:href="48.svg" xlink:title="R48">
<polygon fill="cornsilk" stroke="none" points="1265,-1152.86 1189,-1152.86 1189,-1105.86 1265,-1105.86 1265,-1152.86"/>
<text text-anchor="middle" x="1227" y="-1120.86" font-family="Times New Roman,serif" font-size="35.00">R48</text>
</a>
</g>
</g>
<!-- R6&#45;&gt;R48 -->
<g id="edge9" class="edge">
<title>R6&#45;&gt;R48</title>
<path fill="none" stroke="black" d="M628.99,-773.84C629.52,-845.38 635.21,-1058.45 684,-1102.36 720.28,-1135.01 1053.03,-1132.49 1178.46,-1130.35"/>
<polygon fill="black" stroke="black" points="1178.3,-1133.83 1188.24,-1130.16 1178.18,-1126.83 1178.3,-1133.83"/>
<text text-anchor="middle" x="927.5" y="-1140.36" font-family="Times New Roman,serif" font-size="30.00"> &#160;&#160;54 &#160;&#160;3% &#160;&#160;4.67e&#45;08 mol/s &#160;&#160;&#160;1.00E+00</text>
</g>
<!-- R58 -->
<g id="node11" class="node">
<title>R58</title>
<g id="a_node11"><a xlink:href="58.svg" xlink:title="R58">
<polygon fill="cornsilk" stroke="none" points="1265,-1087.86 1189,-1087.86 1189,-1040.86 1265,-1040.86 1265,-1087.86"/>
<text text-anchor="middle" x="1227" y="-1055.86" font-family="Times New Roman,serif" font-size="35.00">R58</text>
</a>
</g>
</g>
<!-- R6&#45;&gt;R58 -->
<g id="edge10" class="edge">
<title>R6&#45;&gt;R58</title>
<path fill="none" stroke="black" d="M629.9,-773.64C632.81,-835.72 644.28,-1002.83 684,-1037.36 720.84,-1069.38 1053.24,-1067.25 1178.52,-1065.28"/>
<polygon fill="black" stroke="black" points="1178.34,-1068.77 1188.28,-1065.1 1178.23,-1061.77 1178.34,-1068.77"/>
<text text-anchor="middle" x="927.5" y="-1074.36" font-family="Times New Roman,serif" font-size="30.00"> &#160;&#160;64 &#160;&#160;3% &#160;&#160;4.67e&#45;08 mol/s &#160;&#160;&#160;1.00E+00</text>
</g>
<!-- R63 -->
<g id="node12" class="node">
<title>R63</title>
<g id="a_node12"><a xlink:href="63.svg" xlink:title="R63">
<polygon fill="cornsilk" stroke="none" points="1265,-1022.86 1189,-1022.86 1189,-975.86 1265,-975.86 1265,-1022.86"/>
<text text-anchor="middle" x="1227" y="-990.86" font-family="Times New Roman,serif" font-size="35.00">R63</text>
</a>
</g>
</g>
<!-- R6&#45;&gt;R63 -->
<g id="edge11" class="edge">
<title>R6&#45;&gt;R63</title>
<path fill="none" stroke="black" d="M631.36,-773.85C637.08,-825.47 653.49,-946.21 684,-971.36 721.67,-1002.41 1053.56,-1001.54 1178.61,-1000.08"/>
<polygon fill="black" stroke="black" points="1178.4,-1003.57 1188.35,-999.94 1178.31,-996.57 1178.4,-1003.57"/>
<text text-anchor="middle" x="927.5" y="-1009.36" font-family="Times New Roman,serif" font-size="30.00"> &#160;&#160;69 &#160;&#160;3% &#160;&#160;4.67e&#45;08 mol/s &#160;&#160;&#160;1.00E+00</text>
</g>
<!-- R67 -->
<g id="node13" class="node">
<title>R67</title>
<g id="a_node13"><a xlink:href="67.svg" xlink:title="R67">
<polygon fill="cornsilk" stroke="none" points="1265,-957.86 1189,-957.86 1189,-910.86 1265,-910.86 1265,-957.86"/>
<text text-anchor="middle" x="1227" y="-925.86" font-family="Times New Roman,serif" font-size="35.00">R67</text>
</a>
</g>
</g>
<!-- R6&#45;&gt;R67 -->
<g id="edge12" class="edge">
<title>R6&#45;&gt;R67</title>
<path fill="none" stroke="black" d="M629.62,-773.8C631.94,-809.06 642.02,-874.99 684,-906.36 723.06,-935.55 1053.33,-935.84 1178.33,-934.88"/>
<polygon fill="black" stroke="black" points="1178.1,-938.38 1188.07,-934.79 1178.04,-931.38 1178.1,-938.38"/>
<text text-anchor="middle" x="927.5" y="-943.36" font-family="Times New Roman,serif" font-size="30.00"> &#160;&#160;73 &#160;&#160;3% &#160;&#160;4.67e&#45;08 mol/s &#160;&#160;&#160;1.00E+00</text>
</g>
<!-- R68 -->
<g id="node14" class="node">
<title>R68</title>
<g id="a_node14"><a xlink:href="68.svg" xlink:title="R68">
<polygon fill="cornsilk" stroke="none" points="1265,-892.86 1189,-892.86 1189,-845.86 1265,-845.86 1265,-892.86"/>
<text text-anchor="middle" x="1227" y="-860.86" font-family="Times New Roman,serif" font-size="35.00">R68</text>
</a>
</g>
</g>
<!-- R6&#45;&gt;R68 -->
<g id="edge13" class="edge">
<title>R6&#45;&gt;R68</title>
<path fill="none" stroke="black" d="M635.48,-773.5C643.1,-795.9 658.11,-828.71 684,-844.36 725.72,-869.58 1054.35,-870.36 1178.62,-869.73"/>
<polygon fill="black" stroke="black" points="1178.32,-873.23 1188.3,-869.67 1178.28,-866.23 1178.32,-873.23"/>
<text text-anchor="middle" x="927.5" y="-878.36" font-family="Times New Roman,serif" font-size="30.00"> &#160;&#160;74 &#160;&#160;3% &#160;&#160;4.67e&#45;08 mol/s &#160;&#160;&#160;1.00E+00</text>
</g>
<!-- R69 -->
<g id="node15" class="node">
<title>R69</title>
<g id="a_node15"><a xlink:href="69.svg" xlink:title="R69">
<polygon fill="cornsilk" stroke="none" points="1265,-827.86 1189,-827.86 1189,-780.86 1265,-780.86 1265,-827.86"/>
<text text-anchor="middle" x="1227" y="-795.86" font-family="Times New Roman,serif" font-size="35.00">R69</text>
</a>
</g>
</g>
<!-- R6&#45;&gt;R69 -->
<g id="edge14" class="edge">
<title>R6&#45;&gt;R69</title>
<path fill="none" stroke="black" d="M656.76,-771.35C665.1,-776.57 674.55,-781.48 684,-784.36 775.65,-812.24 1064.01,-808.43 1178.49,-805.7"/>
<polygon fill="black" stroke="black" points="1178.42,-809.18 1188.33,-805.43 1178.25,-802.18 1178.42,-809.18"/>
<text text-anchor="middle" x="927.5" y="-816.36" font-family="Times New Roman,serif" font-size="30.00"> &#160;&#160;75 &#160;&#160;3% &#160;&#160;4.67e&#45;08 mol/s &#160;&#160;&#160;1.00E+00</text>
</g>
<!-- R70 -->
<g id="node16" class="node">
<title>R70</title>
<g id="a_node16"><a xlink:href="70.svg" xlink:title="R70">
<polygon fill="cornsilk" stroke="none" points="1265,-762.86 1189,-762.86 1189,-715.86 1265,-715.86 1265,-762.86"/>
<text text-anchor="middle" x="1227" y="-730.86" font-family="Times New Roman,serif" font-size="35.00">R70</text>
</a>
</g>
</g>
<!-- R6&#45;&gt;R70 -->
<g id="edge15" class="edge">
<title>R6&#45;&gt;R70</title>
<path fill="none" stroke="black" d="M656.99,-749.84C751.46,-748.1 1059.2,-742.43 1178.31,-740.24"/>
<polygon fill="black" stroke="black" points="1178.3,-743.72 1188.24,-740.04 1178.17,-736.72 1178.3,-743.72"/>
<text text-anchor="middle" x="927.5" y="-757.36" font-family="Times New Roman,serif" font-size="30.00"> &#160;&#160;76 &#160;&#160;3% &#160;&#160;4.67e&#45;08 mol/s &#160;&#160;&#160;1.00E+00</text>
</g>
<!-- R71 -->
<g id="node17" class="node">
<title>R71</title>
<g id="a_node17"><a xlink:href="71.svg" xlink:title="R71">
<polygon fill="cornsilk" stroke="none" points="1265,-697.86 1189,-697.86 1189,-650.86 1265,-650.86 1265,-697.86"/>
<text text-anchor="middle" x="1227" y="-665.86" font-family="Times New Roman,serif" font-size="35.00">R71</text>
</a>
</g>
</g>
<!-- R6&#45;&gt;R71 -->
<g id="edge16" class="edge">
<title>R6&#45;&gt;R71</title>
<path fill="none" stroke="black" d="M649.74,-726.94C659.21,-717.89 671.17,-708.49 684,-703.36 729.23,-685.28 1054.95,-677.49 1178.58,-675.16"/>
<polygon fill="black" stroke="black" points="1178.27,-678.65 1188.21,-674.96 1178.14,-671.65 1178.27,-678.65"/>
<text text-anchor="middle" x="927.5" y="-712.36" font-family="Times New Roman,serif" font-size="30.00"> &#160;&#160;77 &#160;&#160;3% &#160;&#160;4.67e&#45;08 mol/s &#160;&#160;&#160;1.00E+00</text>
</g>
<!-- R72 -->
<g id="node18" class="node">
<title>R72</title>
<g id="a_node18"><a xlink:href="72.svg" xlink:title="R72">
<polygon fill="cornsilk" stroke="none" points="1265,-632.86 1189,-632.86 1189,-585.86 1265,-585.86 1265,-632.86"/>
<text text-anchor="middle" x="1227" y="-600.86" font-family="Times New Roman,serif" font-size="35.00">R72</text>
</a>
</g>
</g>
<!-- R6&#45;&gt;R72 -->
<g id="edge17" class="edge">
<title>R6&#45;&gt;R72</title>
<path fill="none" stroke="black" d="M633.31,-727.04C639.52,-700.75 653.76,-659.13 684,-639.36 729.34,-609.72 1117.03,-621.06 1171,-616.36 1173.38,-616.15 1175.81,-615.92 1178.26,-615.67"/>
<polygon fill="black" stroke="black" points="1178.51,-619.05 1188.06,-614.47 1177.74,-612.09 1178.51,-619.05"/>
<text text-anchor="middle" x="927.5" y="-648.36" font-family="Times New Roman,serif" font-size="30.00"> &#160;&#160;78 &#160;&#160;3% &#160;&#160;4.67e&#45;08 mol/s &#160;&#160;&#160;1.00E+00</text>
</g>
<!-- R26 -->
<g id="node19" class="node">
<title>R26</title>
<g id="a_node19"><a xlink:href="26.svg" xlink:title="R26">
<polygon fill="cornsilk" stroke="none" points="1265,-567.86 1189,-567.86 1189,-520.86 1265,-520.86 1265,-567.86"/>
<text text-anchor="middle" x="1227" y="-535.86" font-family="Times New Roman,serif" font-size="35.00">R26</text>
</a>
</g>
</g>
<!-- R6&#45;&gt;R26 -->
<g id="edge18" class="edge">
<title>R6&#45;&gt;R26</title>
<path fill="none" stroke="black" d="M628.72,-726.86C629.7,-688.81 637.8,-614.43 684,-579.36 727.13,-546.62 1117.55,-569.04 1171,-560.36 1173.48,-559.96 1176.02,-559.48 1178.56,-558.94"/>
<polygon fill="black" stroke="black" points="1179.09,-562.17 1188,-556.45 1177.47,-555.36 1179.09,-562.17"/>
<text text-anchor="middle" x="927.5" y="-588.36" font-family="Times New Roman,serif" font-size="30.00"> &#160;&#160;98 &#160;&#160;0% &#160;&#160;1.01e&#45;11 mol/s &#160;&#160;&#160;1.00E+00</text>
</g>
<!-- R6&#45;&gt;R26 -->
<g id="edge27" class="edge">
<title>R6&#45;&gt;R26</title>
<path fill="none" stroke="black" d="M631.09,-726.92C636.33,-674.12 651.97,-548.56 684,-523.36 726.53,-489.9 1117.79,-513.55 1171,-523.36 1173.64,-523.85 1176.31,-524.45 1178.99,-525.15"/>
<polygon fill="black" stroke="black" points="1177.67,-528.71 1188.25,-528.24 1179.68,-522.01 1177.67,-528.71"/>
<text text-anchor="middle" x="927.5" y="-532.36" font-family="Times New Roman,serif" font-size="30.00"> &#160;&#160;430 &#160;&#160;11% &#160;&#160;1.38e&#45;07 mol/s &#160;&#160;&#160;7.31E&#45;05</text>
</g>
<!-- R104 -->
<g id="node20" class="node">
<title>R104</title>
<g id="a_node20"><a xlink:href="104.svg" xlink:title="R104">
<polygon fill="cornsilk" stroke="none" points="1274,-502.86 1180,-502.86 1180,-455.86 1274,-455.86 1274,-502.86"/>
<text text-anchor="middle" x="1227" y="-470.86" font-family="Times New Roman,serif" font-size="35.00">R104</text>
</a>
</g>
</g>
<!-- R6&#45;&gt;R104 -->
<g id="edge19" class="edge">
<title>R6&#45;&gt;R104</title>
<path fill="none" stroke="black" d="M629.91,-727.01C632.83,-665.6 644.28,-502.06 684,-469.36 723.86,-436.55 1081.92,-461.92 1169.48,-469.44"/>
<polygon fill="black" stroke="black" points="1168.9,-472.99 1179.17,-470.39 1169.52,-466.02 1168.9,-472.99"/>
<text text-anchor="middle" x="927.5" y="-478.36" font-family="Times New Roman,serif" font-size="30.00"> &#160;&#160;315 &#160;&#160;3% &#160;&#160;4.67e&#45;08 mol/s &#160;&#160;&#160;1.00E+00</text>
</g>
<!-- R236 -->
<g id="node21" class="node">
<title>R236</title>
<g id="a_node21"><a xlink:href="236.svg" xlink:title="R236">
<polygon fill="cornsilk" stroke="none" points="1274,-437.86 1180,-437.86 1180,-390.86 1274,-390.86 1274,-437.86"/>
<text text-anchor="middle" x="1227" y="-405.86" font-family="Times New Roman,serif" font-size="35.00">R236</text>
</a>
</g>
</g>
<!-- R6&#45;&gt;R236 -->
<g id="edge20" class="edge">
<title>R6&#45;&gt;R236</title>
<path fill="none" stroke="black" d="M629.12,-727.24C630.01,-658.35 636.69,-456.66 684,-416.36 720.27,-385.46 1038.46,-402.2 1169.74,-410.54"/>
<polygon fill="black" stroke="black" points="1169.15,-414.08 1179.36,-411.23 1169.6,-407.09 1169.15,-414.08"/>
<text text-anchor="middle" x="927.5" y="-425.36" font-family="Times New Roman,serif" font-size="30.00"> &#160;&#160;316 &#160;&#160;3% &#160;&#160;4.67e&#45;08 mol/s &#160;&#160;&#160;1.00E+00</text>
</g>
<!-- R237 -->
<g id="node22" class="node">
<title>R237</title>
<g id="a_node22"><a xlink:href="237.svg" xlink:title="R237">
<polygon fill="cornsilk" stroke="none" points="1274,-372.86 1180,-372.86 1180,-325.86 1274,-325.86 1274,-372.86"/>
<text text-anchor="middle" x="1227" y="-340.86" font-family="Times New Roman,serif" font-size="35.00">R237</text>
</a>
</g>
</g>
<!-- R6&#45;&gt;R237 -->
<g id="edge21" class="edge">
<title>R6&#45;&gt;R237</title>
<path fill="none" stroke="black" d="M628.57,-726.9C627.71,-650.48 629.48,-410.85 684,-362.36 754.32,-299.81 1045.48,-327.05 1169.57,-341.97"/>
<polygon fill="black" stroke="black" points="1168.99,-345.54 1179.34,-343.28 1169.84,-338.59 1168.99,-345.54"/>
<text text-anchor="middle" x="927.5" y="-371.36" font-family="Times New Roman,serif" font-size="30.00"> &#160;&#160;317 &#160;&#160;3% &#160;&#160;4.67e&#45;08 mol/s &#160;&#160;&#160;1.00E+00</text>
</g>
<!-- R159 -->
<g id="node23" class="node">
<title>R159</title>
<g id="a_node23"><a xlink:href="159.svg" xlink:title="R159">
<polygon fill="cornsilk" stroke="none" points="1274,-307.86 1180,-307.86 1180,-260.86 1274,-260.86 1274,-307.86"/>
<text text-anchor="middle" x="1227" y="-275.86" font-family="Times New Roman,serif" font-size="35.00">R159</text>
</a>
</g>
</g>
<!-- R6&#45;&gt;R159 -->
<g id="edge22" class="edge">
<title>R6&#45;&gt;R159</title>
<path fill="none" stroke="black" d="M630,-726.87C634.05,-636.66 650.74,-316.02 684,-286.36 719.56,-254.64 1038.17,-271.87 1169.65,-280.44"/>
<polygon fill="black" stroke="black" points="1169.07,-283.97 1179.28,-281.14 1169.53,-276.99 1169.07,-283.97"/>
<text text-anchor="middle" x="927.5" y="-295.36" font-family="Times New Roman,serif" font-size="30.00"> &#160;&#160;318 &#160;&#160;3% &#160;&#160;4.67e&#45;08 mol/s &#160;&#160;&#160;1.00E+00</text>
</g>
<!-- R160 -->
<g id="node24" class="node">
<title>R160</title>
<g id="a_node24"><a xlink:href="160.svg" xlink:title="R160">
<polygon fill="cornsilk" stroke="none" points="1274,-242.86 1180,-242.86 1180,-195.86 1274,-195.86 1274,-242.86"/>
<text text-anchor="middle" x="1227" y="-210.86" font-family="Times New Roman,serif" font-size="35.00">R160</text>
</a>
</g>
</g>
<!-- R6&#45;&gt;R160 -->
<g id="edge23" class="edge">
<title>R6&#45;&gt;R160</title>
<path fill="none" stroke="black" d="M629.69,-727.13C632.81,-630.7 646.99,-265.4 684,-231.36 753.26,-167.65 1045.01,-196.15 1169.42,-211.68"/>
<polygon fill="black" stroke="black" points="1168.85,-215.26 1179.21,-213.04 1169.73,-208.31 1168.85,-215.26"/>
<text text-anchor="middle" x="927.5" y="-240.36" font-family="Times New Roman,serif" font-size="30.00"> &#160;&#160;319 &#160;&#160;3% &#160;&#160;4.67e&#45;08 mol/s &#160;&#160;&#160;1.00E+00</text>
</g>
<!-- R238 -->
<g id="node25" class="node">
<title>R238</title>
<g id="a_node25"><a xlink:href="238.svg" xlink:title="R238">
<polygon fill="cornsilk" stroke="none" points="1274,-177.86 1180,-177.86 1180,-130.86 1274,-130.86 1274,-177.86"/>
<text text-anchor="middle" x="1227" y="-145.86" font-family="Times New Roman,serif" font-size="35.00">R238</text>
</a>
</g>
</g>
<!-- R6&#45;&gt;R238 -->
<g id="edge24" class="edge">
<title>R6&#45;&gt;R238</title>
<path fill="none" stroke="black" d="M629.35,-726.98C631.15,-621.65 641.06,-194.58 684,-155.36 719.18,-123.22 1038.01,-141.31 1169.6,-150.27"/>
<polygon fill="black" stroke="black" points="1169.02,-153.81 1179.24,-151 1169.5,-146.82 1169.02,-153.81"/>
<text text-anchor="middle" x="927.5" y="-164.36" font-family="Times New Roman,serif" font-size="30.00"> &#160;&#160;320 &#160;&#160;3% &#160;&#160;4.67e&#45;08 mol/s &#160;&#160;&#160;1.00E+00</text>
</g>
<!-- R239 -->
<g id="node26" class="node">
<title>R239</title>
<g id="a_node26"><a xlink:href="239.svg" xlink:title="R239">
<polygon fill="cornsilk" stroke="none" points="1274,-112.86 1180,-112.86 1180,-65.86 1274,-65.86 1274,-112.86"/>
<text text-anchor="middle" x="1227" y="-80.86" font-family="Times New Roman,serif" font-size="35.00">R239</text>
</a>
</g>
</g>
<!-- R6&#45;&gt;R239 -->
<g id="edge25" class="edge">
<title>R6&#45;&gt;R239</title>
<path fill="none" stroke="black" d="M629.17,-727.11C630.21,-616.15 637.38,-144.08 684,-100.36 718.76,-67.76 1037.83,-79.86 1169.54,-86.33"/>
<polygon fill="black" stroke="black" points="1169.03,-89.86 1179.19,-86.87 1169.38,-82.87 1169.03,-89.86"/>
<text text-anchor="middle" x="927.5" y="-109.36" font-family="Times New Roman,serif" font-size="30.00"> &#160;&#160;321 &#160;&#160;3% &#160;&#160;4.67e&#45;08 mol/s &#160;&#160;&#160;1.00E+00</text>
</g>
<!-- R240 -->
<g id="node27" class="node">
<title>R240</title>
<g id="a_node27"><a xlink:href="240.svg" xlink:title="R240">
<polygon fill="cornsilk" stroke="none" points="1274,-47.86 1180,-47.86 1180,-0.86 1274,-0.86 1274,-47.86"/>
<text text-anchor="middle" x="1227" y="-15.86" font-family="Times New Roman,serif" font-size="35.00">R240</text>
</a>
</g>
</g>
<!-- R6&#45;&gt;R240 -->
<g id="edge26" class="edge">
<title>R6&#45;&gt;R240</title>
<path fill="none" stroke="black" d="M629.01,-727.02C629.3,-610 633.44,-90.72 684,-42.36 752.02,22.71 1044.47,-2.89 1169.24,-17.22"/>
<polygon fill="black" stroke="black" points="1168.73,-20.8 1179.07,-18.48 1169.54,-13.84 1168.73,-20.8"/>
<text text-anchor="middle" x="927.5" y="-51.36" font-family="Times New Roman,serif" font-size="30.00"> &#160;&#160;322 &#160;&#160;3% &#160;&#160;4.67e&#45;08 mol/s &#160;&#160;&#160;1.00E+00</text>
</g>
<!-- R2 -->
<g id="node2" class="node">
<title>R2</title>
<g id="a_node2"><a xlink:href="2.svg" xlink:title="R2">
<polygon fill="cornsilk" stroke="none" points="58,-806.86 0,-806.86 0,-759.86 58,-759.86 58,-806.86"/>
<text text-anchor="middle" x="29" y="-774.86" font-family="Times New Roman,serif" font-size="35.00">R2</text>
</a>
</g>
</g>
<!-- R2&#45;&gt;R6 -->
<g id="edge1" class="edge">
<title>R2&#45;&gt;R6</title>
<path fill="none" stroke="black" stroke-width="6" d="M57.83,-783.63C137.56,-784.09 373.63,-783.34 568,-761.36 571.52,-760.96 575.15,-760.47 578.8,-759.93"/>
<polygon fill="black" stroke="black" stroke-width="6" points="575.3,-771.15 593.21,-757.39 571.71,-750.46 575.3,-771.15"/>
<text text-anchor="middle" x="328.5" y="-792.36" font-family="Times New Roman,serif" font-size="30.00"> &#160;&#160;6 &#160;&#160;100% &#160;&#160;4.67e&#45;08 mol/s &#160;&#160;&#160;1.00E+00</text>
</g>
<!-- R1 -->
<g id="node3" class="node">
<title>R1</title>
<g id="a_node3"><a xlink:href="1.svg" xlink:title="R1">
<polygon fill="cornsilk" stroke="none" points="58,-741.86 0,-741.86 0,-694.86 58,-694.86 58,-741.86"/>
<text text-anchor="middle" x="29" y="-709.86" font-family="Times New Roman,serif" font-size="35.00">R1</text>
</a>
</g>
</g>
<!-- R1&#45;&gt;R6 -->
<g id="edge2" class="edge">
<title>R1&#45;&gt;R6</title>
<path fill="none" stroke="black" stroke-width="6" d="M57.77,-715.61C137.85,-708.39 375.73,-691.83 568,-728.36 571.74,-729.07 575.56,-730 579.37,-731.06"/>
<polygon fill="black" stroke="black" stroke-width="6" points="570.74,-739.26 593.05,-735.73 577.47,-719.37 570.74,-739.26"/>
<text text-anchor="middle" x="328.5" y="-737.36" font-family="Times New Roman,serif" font-size="30.00"> &#160;&#160;6 &#160;&#160;100% &#160;&#160;4.67e&#45;08 mol/s &#160;&#160;&#160;1.00E+00</text>
</g>
</g>
</svg>
