<?xml version="1.0" encoding="UTF-8" standalone="no"?>
<!DOCTYPE svg PUBLIC "-//W3C//DTD SVG 1.1//EN"
 "http://www.w3.org/Graphics/SVG/1.1/DTD/svg11.dtd">
<!-- Generated by graphviz version 8.0.3 (20230416.2022)
 -->
<!-- Title: G Pages: 1 -->
<svg width="640pt" height="449pt"
 viewBox="0.00 0.00 720.00 504.72" xmlns="http://www.w3.org/2000/svg" xmlns:xlink="http://www.w3.org/1999/xlink">
<g id="graph0" class="graph" transform="scale(0.503937 0.503937) rotate(0) translate(4 886.27)">
<title>G</title>
<polygon fill="white" stroke="none" points="-4,4 -4,-886.27 1266,-886.27 1266,4 -4,4"/>
<text text-anchor="middle" x="631" y="-849.47" font-family="Arial" font-size="36.00" fill="blue">Reaction Path Analysis</text>
<!-- R60 -->
<g id="node1" class="node">
<title>R60</title>
<g id="a_node1"><a xlink:href="60.svg" xlink:title="R60">
<polygon fill="cornsilk" stroke="none" points="669,-418.77 593,-418.77 593,-371.77 669,-371.77 669,-418.77"/>
<text text-anchor="middle" x="631" y="-386.77" font-family="Times New Roman,serif" font-size="35.00">R60</text>
</a>
</g>
</g>
<!-- R61 -->
<g id="node4" class="node">
<title>R61</title>
<g id="a_node4"><a xlink:href="61.svg" xlink:title="R61">
<polygon fill="cornsilk" stroke="none" points="1253,-808.77 1177,-808.77 1177,-761.77 1253,-761.77 1253,-808.77"/>
<text text-anchor="middle" x="1215" y="-776.77" font-family="Times New Roman,serif" font-size="35.00">R61</text>
</a>
</g>
</g>
<!-- R60&#45;&gt;R61 -->
<g id="edge3" class="edge">
<title>R60&#45;&gt;R61</title>
<path fill="none" stroke="black" d="M632.15,-418.71C633.14,-491.73 640.36,-712.89 691,-758.27 760.04,-820.13 1050.95,-800.57 1166.45,-790.05"/>
<polygon fill="black" stroke="black" points="1166.43,-793.47 1176.06,-789.06 1165.78,-786.5 1166.43,-793.47"/>
<text text-anchor="middle" x="923" y="-810.27" font-family="Times New Roman,serif" font-size="30.00"> &#160;&#160;126 &#160;&#160;5% &#160;&#160;0.0342 mol/s &#160;&#160;&#160;1.00E+00</text>
</g>
<!-- R62 -->
<g id="node5" class="node">
<title>R62</title>
<g id="a_node5"><a xlink:href="62.svg" xlink:title="R62">
<polygon fill="cornsilk" stroke="none" points="1253,-743.77 1177,-743.77 1177,-696.77 1253,-696.77 1253,-743.77"/>
<text text-anchor="middle" x="1215" y="-711.77" font-family="Times New Roman,serif" font-size="35.00">R62</text>
</a>
</g>
</g>
<!-- R60&#45;&gt;R62 -->
<g id="edge4" class="edge">
<title>R60&#45;&gt;R62</title>
<path fill="none" stroke="black" d="M633.05,-418.52C636.44,-482.24 649.43,-657.28 691,-693.27 726.46,-723.96 1044.44,-722.72 1166.54,-721.08"/>
<polygon fill="black" stroke="black" points="1166.44,-724.57 1176.39,-720.93 1166.34,-717.57 1166.44,-724.57"/>
<text text-anchor="middle" x="923" y="-730.27" font-family="Times New Roman,serif" font-size="30.00"> &#160;&#160;127 &#160;&#160;5% &#160;&#160;0.0342 mol/s &#160;&#160;&#160;1.00E+00</text>
</g>
<!-- R149 -->
<g id="node6" class="node">
<title>R149</title>
<g id="a_node6"><a xlink:href="149.svg" xlink:title="R149">
<polygon fill="cornsilk" stroke="none" points="1262,-678.77 1168,-678.77 1168,-631.77 1262,-631.77 1262,-678.77"/>
<text text-anchor="middle" x="1215" y="-646.77" font-family="Times New Roman,serif" font-size="35.00">R149</text>
</a>
</g>
</g>
<!-- R60&#45;&gt;R149 -->
<g id="edge5" class="edge">
<title>R60&#45;&gt;R149</title>
<path fill="none" stroke="black" d="M634.4,-418.53C640.46,-472.26 658.28,-602.44 691,-629.27 726.39,-658.29 1029.74,-657.74 1157.57,-656.19"/>
<polygon fill="black" stroke="black" points="1157.33,-659.68 1167.29,-656.05 1157.24,-652.68 1157.33,-659.68"/>
<text text-anchor="middle" x="923" y="-665.27" font-family="Times New Roman,serif" font-size="30.00"> &#160;&#160;201 &#160;&#160;5% &#160;&#160;0.0342 mol/s &#160;&#160;&#160;1.00E+00</text>
</g>
<!-- R150 -->
<g id="node7" class="node">
<title>R150</title>
<g id="a_node7"><a xlink:href="150.svg" xlink:title="R150">
<polygon fill="cornsilk" stroke="none" points="1262,-613.77 1168,-613.77 1168,-566.77 1262,-566.77 1262,-613.77"/>
<text text-anchor="middle" x="1215" y="-581.77" font-family="Times New Roman,serif" font-size="35.00">R150</text>
</a>
</g>
</g>
<!-- R60&#45;&gt;R150 -->
<g id="edge6" class="edge">
<title>R60&#45;&gt;R150</title>
<path fill="none" stroke="black" d="M632.2,-418.76C633.95,-457.21 643.6,-532.83 691,-568.27 727.64,-595.67 1030.27,-593.57 1157.74,-591.43"/>
<polygon fill="black" stroke="black" points="1157.49,-594.92 1167.43,-591.25 1157.37,-587.92 1157.49,-594.92"/>
<text text-anchor="middle" x="923" y="-601.27" font-family="Times New Roman,serif" font-size="30.00"> &#160;&#160;202 &#160;&#160;5% &#160;&#160;0.0342 mol/s &#160;&#160;&#160;1.00E+00</text>
</g>
<!-- R151 -->
<g id="node8" class="node">
<title>R151</title>
<g id="a_node8"><a xlink:href="151.svg" xlink:title="R151">
<polygon fill="cornsilk" stroke="none" points="1262,-548.77 1168,-548.77 1168,-501.77 1262,-501.77 1262,-548.77"/>
<text text-anchor="middle" x="1215" y="-516.77" font-family="Times New Roman,serif" font-size="35.00">R151</text>
</a>
</g>
</g>
<!-- R60&#45;&gt;R151 -->
<g id="edge7" class="edge">
<title>R60&#45;&gt;R151</title>
<path fill="none" stroke="black" d="M638.3,-418.53C646.23,-442.8 662.4,-479.73 691,-497.27 767.77,-544.33 1038.82,-535.33 1157.57,-528.85"/>
<polygon fill="black" stroke="black" points="1157.44,-532.3 1167.23,-528.25 1157.05,-525.31 1157.44,-532.3"/>
<text text-anchor="middle" x="923" y="-542.27" font-family="Times New Roman,serif" font-size="30.00"> &#160;&#160;203 &#160;&#160;5% &#160;&#160;0.0342 mol/s &#160;&#160;&#160;1.00E+00</text>
</g>
<!-- R202 -->
<g id="node9" class="node">
<title>R202</title>
<g id="a_node9"><a xlink:href="202.svg" xlink:title="R202">
<polygon fill="cornsilk" stroke="none" points="1262,-483.77 1168,-483.77 1168,-436.77 1262,-436.77 1262,-483.77"/>
<text text-anchor="middle" x="1215" y="-451.77" font-family="Times New Roman,serif" font-size="35.00">R202</text>
</a>
</g>
</g>
<!-- R60&#45;&gt;R202 -->
<g id="edge8" class="edge">
<title>R60&#45;&gt;R202</title>
<path fill="none" stroke="black" d="M662.69,-418.58C671.41,-424.04 681.2,-429.16 691,-432.27 776.44,-459.34 1040.44,-461.32 1157.32,-460.8"/>
<polygon fill="black" stroke="black" points="1157.18,-464.3 1167.16,-460.74 1157.14,-457.3 1157.18,-464.3"/>
<text text-anchor="middle" x="923" y="-469.27" font-family="Times New Roman,serif" font-size="30.00"> &#160;&#160;263 &#160;&#160;5% &#160;&#160;0.0342 mol/s &#160;&#160;&#160;1.00E+00</text>
</g>
<!-- R203 -->
<g id="node10" class="node">
<title>R203</title>
<g id="a_node10"><a xlink:href="203.svg" xlink:title="R203">
<polygon fill="cornsilk" stroke="none" points="1262,-418.77 1168,-418.77 1168,-371.77 1262,-371.77 1262,-418.77"/>
<text text-anchor="middle" x="1215" y="-386.77" font-family="Times New Roman,serif" font-size="35.00">R203</text>
</a>
</g>
</g>
<!-- R60&#45;&gt;R203 -->
<g id="edge9" class="edge">
<title>R60&#45;&gt;R203</title>
<path fill="none" stroke="black" d="M668.85,-395.27C767.61,-395.27 1038.77,-395.27 1157.3,-395.27"/>
<polygon fill="black" stroke="black" points="1157.28,-398.77 1167.28,-395.27 1157.28,-391.77 1157.28,-398.77"/>
<text text-anchor="middle" x="923" y="-404.27" font-family="Times New Roman,serif" font-size="30.00"> &#160;&#160;264 &#160;&#160;5% &#160;&#160;0.0342 mol/s &#160;&#160;&#160;1.00E+00</text>
</g>
<!-- R204 -->
<g id="node11" class="node">
<title>R204</title>
<g id="a_node11"><a xlink:href="204.svg" xlink:title="R204">
<polygon fill="cornsilk" stroke="none" points="1262,-353.77 1168,-353.77 1168,-306.77 1262,-306.77 1262,-353.77"/>
<text text-anchor="middle" x="1215" y="-321.77" font-family="Times New Roman,serif" font-size="35.00">R204</text>
</a>
</g>
</g>
<!-- R60&#45;&gt;R204 -->
<g id="edge10" class="edge">
<title>R60&#45;&gt;R204</title>
<path fill="none" stroke="black" d="M662.69,-371.95C671.41,-366.49 681.2,-361.37 691,-358.27 853.97,-306.64 1059.64,-315.74 1157.4,-324.22"/>
<polygon fill="black" stroke="black" points="1156.94,-327.78 1167.22,-325.19 1157.57,-320.81 1156.94,-327.78"/>
<text text-anchor="middle" x="923" y="-367.27" font-family="Times New Roman,serif" font-size="30.00"> &#160;&#160;265 &#160;&#160;5% &#160;&#160;0.0342 mol/s &#160;&#160;&#160;1.00E+00</text>
</g>
<!-- R233 -->
<g id="node12" class="node">
<title>R233</title>
<g id="a_node12"><a xlink:href="233.svg" xlink:title="R233">
<polygon fill="cornsilk" stroke="none" points="1262,-288.77 1168,-288.77 1168,-241.77 1262,-241.77 1262,-288.77"/>
<text text-anchor="middle" x="1215" y="-256.77" font-family="Times New Roman,serif" font-size="35.00">R233</text>
</a>
</g>
</g>
<!-- R60&#45;&gt;R233 -->
<g id="edge11" class="edge">
<title>R60&#45;&gt;R233</title>
<path fill="none" stroke="black" d="M636.58,-371.94C643.3,-344.65 658.73,-300.62 691,-280.27 767.09,-232.28 1038.51,-249.57 1157.46,-259.85"/>
<polygon fill="black" stroke="black" points="1156.88,-263.4 1167.14,-260.79 1157.49,-256.43 1156.88,-263.4"/>
<text text-anchor="middle" x="923" y="-289.27" font-family="Times New Roman,serif" font-size="30.00"> &#160;&#160;357 &#160;&#160;5% &#160;&#160;0.0342 mol/s &#160;&#160;&#160;1.00E+00</text>
</g>
<!-- R234 -->
<g id="node13" class="node">
<title>R234</title>
<g id="a_node13"><a xlink:href="234.svg" xlink:title="R234">
<polygon fill="cornsilk" stroke="none" points="1262,-223.77 1168,-223.77 1168,-176.77 1262,-176.77 1262,-223.77"/>
<text text-anchor="middle" x="1215" y="-191.77" font-family="Times New Roman,serif" font-size="35.00">R234</text>
</a>
</g>
</g>
<!-- R60&#45;&gt;R234 -->
<g id="edge12" class="edge">
<title>R60&#45;&gt;R234</title>
<path fill="none" stroke="black" d="M631.56,-371.84C632.24,-331.4 640.17,-249.17 691,-211.27 727.65,-183.93 1030.28,-192.8 1157.74,-197.82"/>
<polygon fill="black" stroke="black" points="1157.3,-201.35 1167.43,-198.25 1157.58,-194.35 1157.3,-201.35"/>
<text text-anchor="middle" x="923" y="-220.27" font-family="Times New Roman,serif" font-size="30.00"> &#160;&#160;358 &#160;&#160;5% &#160;&#160;0.0342 mol/s &#160;&#160;&#160;1.00E+00</text>
</g>
<!-- R263 -->
<g id="node14" class="node">
<title>R263</title>
<g id="a_node14"><a xlink:href="263.svg" xlink:title="R263">
<polygon fill="cornsilk" stroke="none" points="1262,-158.77 1168,-158.77 1168,-111.77 1262,-111.77 1262,-158.77"/>
<text text-anchor="middle" x="1215" y="-126.77" font-family="Times New Roman,serif" font-size="35.00">R263</text>
</a>
</g>
</g>
<!-- R60&#45;&gt;R263 -->
<g id="edge13" class="edge">
<title>R60&#45;&gt;R263</title>
<path fill="none" stroke="black" d="M634.26,-371.9C640.07,-317.25 657.47,-183.63 691,-156.27 726.45,-127.34 1029.76,-130.93 1157.58,-133.78"/>
<polygon fill="black" stroke="black" points="1157.22,-137.29 1167.29,-134.02 1157.38,-130.3 1157.22,-137.29"/>
<text text-anchor="middle" x="923" y="-165.27" font-family="Times New Roman,serif" font-size="30.00"> &#160;&#160;359 &#160;&#160;5% &#160;&#160;0.0342 mol/s &#160;&#160;&#160;1.00E+00</text>
</g>
<!-- R87 -->
<g id="node16" class="node">
<title>R87</title>
<g id="a_node16"><a xlink:href="87.svg" xlink:title="R87">
<polygon fill="cornsilk" stroke="none" points="1253,-79.77 1177,-79.77 1177,-32.77 1253,-32.77 1253,-79.77"/>
<text text-anchor="middle" x="1215" y="-47.77" font-family="Times New Roman,serif" font-size="35.00">R87</text>
</a>
</g>
</g>
<!-- R60&#45;&gt;R87 -->
<g id="edge15" class="edge">
<title>R60&#45;&gt;R87</title>
<path fill="none" stroke="black" d="M633.02,-371.86C636.35,-307.72 649.18,-131.51 691,-95.27 730.01,-61.46 1103.96,-79 1155,-71.27 1158.72,-70.7 1162.54,-70.01 1166.37,-69.23"/>
<polygon fill="black" stroke="black" points="1167.09,-72.43 1176.09,-66.84 1165.57,-65.6 1167.09,-72.43"/>
<text text-anchor="middle" x="923" y="-104.27" font-family="Times New Roman,serif" font-size="30.00"> &#160;&#160;445 &#160;&#160;0% &#160;&#160;0.00269 mol/s &#160;&#160;&#160;9.89E&#45;01</text>
</g>
<!-- R60&#45;&gt;R87 -->
<g id="edge16" class="edge">
<title>R60&#45;&gt;R87</title>
<path fill="none" stroke="black" stroke-width="2" d="M632.07,-371.84C632.84,-298.89 639.46,-78.07 691,-34.27 769.57,32.5 1053.53,-15.96 1155,-34.27 1158.89,-34.97 1162.85,-35.91 1166.79,-37.01"/>
<polygon fill="black" stroke="black" stroke-width="2" points="1164.52,-40.59 1175.11,-40.23 1166.61,-33.91 1164.52,-40.59"/>
<text text-anchor="middle" x="923" y="-43.27" font-family="Times New Roman,serif" font-size="30.00"> &#160;&#160;474 &#160;&#160;39% &#160;&#160;0.249 mol/s &#160;&#160;&#160;1.07E&#45;02</text>
</g>
<!-- R4 -->
<g id="node2" class="node">
<title>R4</title>
<g id="a_node2"><a xlink:href="4.svg" xlink:title="R4">
<polygon fill="cornsilk" stroke="none" points="76,-511.77 18,-511.77 18,-464.77 76,-464.77 76,-511.77"/>
<text text-anchor="middle" x="47" y="-479.77" font-family="Times New Roman,serif" font-size="35.00">R4</text>
</a>
</g>
</g>
<!-- R4&#45;&gt;R60 -->
<g id="edge1" class="edge">
<title>R4&#45;&gt;R60</title>
<path fill="none" stroke="black" d="M75.89,-493.85C157.67,-508.77 401.93,-542.94 575,-458.27 588.93,-451.45 600.8,-439.36 609.92,-427.58"/>
<polygon fill="black" stroke="black" points="613.3,-429.88 616.34,-419.73 607.64,-425.77 613.3,-429.88"/>
<text text-anchor="middle" x="339" y="-522.27" font-family="Times New Roman,serif" font-size="30.00"> &#160;&#160;66 &#160;&#160;0% &#160;&#160;0.0342 mol/s &#160;&#160;&#160;1.00E+00</text>
</g>
<!-- R13 -->
<g id="node3" class="node">
<title>R13</title>
<g id="a_node3"><a xlink:href="13.svg" xlink:title="R13">
<polygon fill="cornsilk" stroke="none" points="85,-446.77 9,-446.77 9,-399.77 85,-399.77 85,-446.77"/>
<text text-anchor="middle" x="47" y="-414.77" font-family="Times New Roman,serif" font-size="35.00">R13</text>
</a>
</g>
</g>
<!-- R13&#45;&gt;R60 -->
<g id="edge2" class="edge">
<title>R13&#45;&gt;R60</title>
<path fill="none" stroke="black" d="M84.79,-422.58C170.71,-420.79 391.23,-415.11 575,-401.27 577.37,-401.09 579.8,-400.89 582.26,-400.67"/>
<polygon fill="black" stroke="black" points="582.43,-404.08 592.05,-399.64 581.76,-397.11 582.43,-404.08"/>
<text text-anchor="middle" x="339" y="-430.27" font-family="Times New Roman,serif" font-size="30.00"> &#160;&#160;66 &#160;&#160;0% &#160;&#160;0.0342 mol/s &#160;&#160;&#160;1.00E+00</text>
</g>
<!-- R120 -->
<g id="node15" class="node">
<title>R120</title>
<g id="a_node15"><a xlink:href="120.svg" xlink:title="R120">
<polygon fill="cornsilk" stroke="none" points="94,-358.77 0,-358.77 0,-311.77 94,-311.77 94,-358.77"/>
<text text-anchor="middle" x="47" y="-326.77" font-family="Times New Roman,serif" font-size="35.00">R120</text>
</a>
</g>
</g>
<!-- R120&#45;&gt;R60 -->
<g id="edge14" class="edge">
<title>R120&#45;&gt;R60</title>
<path fill="none" stroke="black" stroke-width="5" d="M93.85,-344.1C96.94,-344.54 100.01,-344.94 103,-345.27 201.84,-356.19 446.35,-337.73 573.9,-366.61"/>
<polygon fill="black" stroke="black" stroke-width="5" points="566.51,-374.29 588.08,-370.89 570.94,-357.36 566.51,-374.29"/>
<text text-anchor="middle" x="339" y="-373.27" font-family="Times New Roman,serif" font-size="30.00"> &#160;&#160;444 &#160;&#160;99% &#160;&#160;10.0 mol/s &#160;&#160;&#160;2.71E&#45;04</text>
</g>
<!-- R120&#45;&gt;R60 -->
<g id="edge17" class="edge">
<title>R120&#45;&gt;R60</title>
<path fill="none" stroke="black" d="M91.16,-311.87C95.08,-310.42 99.06,-309.18 103,-308.27 307.34,-260.82 391.26,-207.05 575,-308.27 595.7,-319.67 609.69,-342.51 618.38,-361.92"/>
<polygon fill="black" stroke="black" points="615.48,-363.08 622.56,-370.97 621.95,-360.39 615.48,-363.08"/>
<text text-anchor="middle" x="339" y="-317.27" font-family="Times New Roman,serif" font-size="30.00"> &#160;&#160;650 &#160;&#160;0% &#160;&#160;0.00272 mol/s &#160;&#160;&#160;1.00E+00</text>
</g>
</g>
</svg>
