<?xml version="1.0" encoding="UTF-8" standalone="no"?>
<!DOCTYPE svg PUBLIC "-//W3C//DTD SVG 1.1//EN"
 "http://www.w3.org/Graphics/SVG/1.1/DTD/svg11.dtd">
<!-- Generated by graphviz version 8.0.3 (20230416.2022)
 -->
<!-- Title: G Pages: 1 -->
<svg width="608pt" height="428pt"
 viewBox="0.00 0.00 684.00 482.02" xmlns="http://www.w3.org/2000/svg" xmlns:xlink="http://www.w3.org/1999/xlink">
<g id="graph0" class="graph" transform="scale(0.888889 0.888889) rotate(0) translate(4 478.02)">
<title>G</title>
<polygon fill="white" stroke="none" points="-4,4 -4,-478.02 680,-478.02 680,4 -4,4"/>
<text text-anchor="middle" x="338" y="-441.22" font-family="Arial" font-size="36.00" fill="blue">Reaction Path Analysis</text>
<!-- R62 -->
<g id="node1" class="node">
<title>R62</title>
<g id="a_node1"><a xlink:href="62.svg" xlink:title="R62">
<polygon fill="cornsilk" stroke="none" points="676,-238.52 600,-238.52 600,-191.52 676,-191.52 676,-238.52"/>
<text text-anchor="middle" x="638" y="-206.52" font-family="Times New Roman,serif" font-size="35.00">R62</text>
</a>
</g>
</g>
<!-- R4 -->
<g id="node2" class="node">
<title>R4</title>
<g id="a_node2"><a xlink:href="4.svg" xlink:title="R4">
<polygon fill="cornsilk" stroke="none" points="76,-401.52 18,-401.52 18,-354.52 76,-354.52 76,-401.52"/>
<text text-anchor="middle" x="47" y="-369.52" font-family="Times New Roman,serif" font-size="35.00">R4</text>
</a>
</g>
</g>
<!-- R4&#45;&gt;R62 -->
<g id="edge1" class="edge">
<title>R4&#45;&gt;R62</title>
<path fill="none" stroke="black" d="M75.7,-380.72C173.35,-389.65 500.07,-414.52 582,-356.02 616.29,-331.54 629.21,-282.39 634.07,-249.1"/>
<polygon fill="black" stroke="black" points="637.63,-249.83 635.43,-239.47 630.68,-248.95 637.63,-249.83"/>
<text text-anchor="middle" x="342.5" y="-402.02" font-family="Times New Roman,serif" font-size="30.00"> &#160;&#160;68 &#160;&#160;0% &#160;&#160;0.0342 mol/s &#160;&#160;&#160;1.00E+00</text>
</g>
<!-- R14 -->
<g id="node3" class="node">
<title>R14</title>
<g id="a_node3"><a xlink:href="14.svg" xlink:title="R14">
<polygon fill="cornsilk" stroke="none" points="85,-336.52 9,-336.52 9,-289.52 85,-289.52 85,-336.52"/>
<text text-anchor="middle" x="47" y="-304.52" font-family="Times New Roman,serif" font-size="35.00">R14</text>
</a>
</g>
</g>
<!-- R14&#45;&gt;R62 -->
<g id="edge2" class="edge">
<title>R14&#45;&gt;R62</title>
<path fill="none" stroke="black" d="M84.77,-314.96C190.85,-319.97 495.37,-329.97 582,-285.02 597.98,-276.73 610.81,-261.49 620.04,-247.34"/>
<polygon fill="black" stroke="black" points="623.35,-249.64 625.58,-239.29 617.38,-245.99 623.35,-249.64"/>
<text text-anchor="middle" x="342.5" y="-328.02" font-family="Times New Roman,serif" font-size="30.00"> &#160;&#160;68 &#160;&#160;0% &#160;&#160;0.0342 mol/s &#160;&#160;&#160;1.00E+00</text>
</g>
<!-- R0 -->
<g id="node4" class="node">
<title>R0</title>
<g id="a_node4"><a xlink:href="0.svg" xlink:title="R0">
<polygon fill="cornsilk" stroke="none" points="76,-271.52 18,-271.52 18,-224.52 76,-224.52 76,-271.52"/>
<text text-anchor="middle" x="47" y="-239.52" font-family="Times New Roman,serif" font-size="35.00">R0</text>
</a>
</g>
</g>
<!-- R0&#45;&gt;R62 -->
<g id="edge3" class="edge">
<title>R0&#45;&gt;R62</title>
<path fill="none" stroke="black" d="M75.92,-248.4C155.38,-249.16 389.45,-249.1 582,-226.02 584.4,-225.73 586.84,-225.4 589.31,-225.03"/>
<polygon fill="black" stroke="black" points="589.86,-228.32 599.15,-223.21 588.71,-221.41 589.86,-228.32"/>
<text text-anchor="middle" x="342.5" y="-257.02" font-family="Times New Roman,serif" font-size="30.00"> &#160;&#160;127 &#160;&#160;0% &#160;&#160;0.0342 mol/s &#160;&#160;&#160;1.00E+00</text>
</g>
<!-- R60 -->
<g id="node5" class="node">
<title>R60</title>
<g id="a_node5"><a xlink:href="60.svg" xlink:title="R60">
<polygon fill="cornsilk" stroke="none" points="85,-206.52 9,-206.52 9,-159.52 85,-159.52 85,-206.52"/>
<text text-anchor="middle" x="47" y="-174.52" font-family="Times New Roman,serif" font-size="35.00">R60</text>
</a>
</g>
</g>
<!-- R60&#45;&gt;R62 -->
<g id="edge4" class="edge">
<title>R60&#45;&gt;R62</title>
<path fill="none" stroke="black" d="M84.75,-179.21C172.07,-171.13 398.42,-155.88 582,-193.02 584.65,-193.56 587.33,-194.21 590.01,-194.96"/>
<polygon fill="black" stroke="black" points="588.69,-198.53 599.28,-198.23 590.82,-191.86 588.69,-198.53"/>
<text text-anchor="middle" x="342.5" y="-202.02" font-family="Times New Roman,serif" font-size="30.00"> &#160;&#160;127 &#160;&#160;0% &#160;&#160;0.0342 mol/s &#160;&#160;&#160;1.00E+00</text>
</g>
<!-- R155 -->
<g id="node6" class="node">
<title>R155</title>
<g id="a_node6"><a xlink:href="155.svg" xlink:title="R155">
<polygon fill="cornsilk" stroke="none" points="94,-141.52 0,-141.52 0,-94.52 94,-94.52 94,-141.52"/>
<text text-anchor="middle" x="47" y="-109.52" font-family="Times New Roman,serif" font-size="35.00">R155</text>
</a>
</g>
</g>
<!-- R155&#45;&gt;R62 -->
<g id="edge5" class="edge">
<title>R155&#45;&gt;R62</title>
<path fill="none" stroke="black" stroke-width="5" d="M93.65,-113.95C207.15,-104.64 498.95,-86.01 582,-132.02 598.36,-141.08 610.71,-157.31 619.52,-173.02"/>
<polygon fill="black" stroke="black" stroke-width="5" points="610.04,-172.63 626.69,-186.75 625.76,-164.94 610.04,-172.63"/>
<text text-anchor="middle" x="342.5" y="-141.02" font-family="Times New Roman,serif" font-size="30.00"> &#160;&#160;207 &#160;&#160;99% &#160;&#160;37700.0 mol/s &#160;&#160;&#160;9.07E&#45;07</text>
</g>
<!-- R165 -->
<g id="node7" class="node">
<title>R165</title>
<g id="a_node7"><a xlink:href="165.svg" xlink:title="R165">
<polygon fill="cornsilk" stroke="none" points="94,-76.52 0,-76.52 0,-29.52 94,-29.52 94,-76.52"/>
<text text-anchor="middle" x="47" y="-44.52" font-family="Times New Roman,serif" font-size="35.00">R165</text>
</a>
</g>
</g>
<!-- R165&#45;&gt;R62 -->
<g id="edge6" class="edge">
<title>R165&#45;&gt;R62</title>
<path fill="none" stroke="black" d="M93.68,-38.47C193.09,-9.83 432.1,42.2 582,-65.02 618.95,-91.45 631.13,-145.45 635.11,-180.93"/>
<polygon fill="black" stroke="black" points="631.71,-181.12 636.14,-190.75 638.68,-180.46 631.71,-181.12"/>
<text text-anchor="middle" x="342.5" y="-74.02" font-family="Times New Roman,serif" font-size="30.00"> &#160;&#160;687 &#160;&#160;0% &#160;&#160;0.00272 mol/s &#160;&#160;&#160;1.00E+00</text>
</g>
</g>
</svg>
