<?xml version="1.0" encoding="UTF-8" standalone="no"?>
<!DOCTYPE svg PUBLIC "-//W3C//DTD SVG 1.1//EN"
 "http://www.w3.org/Graphics/SVG/1.1/DTD/svg11.dtd">
<!-- Generated by graphviz version 8.0.3 (20230416.2022)
 -->
<!-- Title: G Pages: 1 -->
<svg width="640pt" height="416pt"
 viewBox="0.00 0.00 720.00 467.44" xmlns="http://www.w3.org/2000/svg" xmlns:xlink="http://www.w3.org/1999/xlink">
<g id="graph0" class="graph" transform="scale(0.378922 0.378922) rotate(0) translate(4 1092.54)">
<title>G</title>
<polygon fill="white" stroke="none" points="-4,4 -4,-1092.54 1685,-1092.54 1685,4 -4,4"/>
<text text-anchor="middle" x="840.5" y="-1055.74" font-family="Arial" font-size="36.00" fill="blue">Reaction Path Analysis</text>
<!-- H(S) -->
<g id="node1" class="node">
<title>H(S)</title>
<g id="a_node1"><a xlink:href="62.svg" xlink:title="H(S)">
<polygon fill="orange" stroke="none" points="895.5,-571.04 810.5,-571.04 810.5,-524.04 895.5,-524.04 895.5,-571.04"/>
<text text-anchor="middle" x="853" y="-539.04" font-family="Times New Roman,serif" font-size="35.00">H(S)</text>
</a>
</g>
</g>
<!-- CH3CH3 -->
<g id="node2" class="node">
<title>CH3CH3</title>
<g id="a_node2"><a xlink:href="2.svg" xlink:title="CH3CH3">
<polygon fill="none" stroke="none" points="1659.5,-748.04 1510.5,-748.04 1510.5,-701.04 1659.5,-701.04 1659.5,-748.04"/>
<text text-anchor="middle" x="1585" y="-716.04" font-family="Times New Roman,serif" font-size="35.00">CH3CH3</text>
</a>
</g>
</g>
<!-- H(S)&#45;&gt;CH3CH3 -->
<g id="edge1" class="edge">
<title>H(S)&#45;&gt;CH3CH3</title>
<path fill="none" stroke="green" d="M865.81,-570.92C884.96,-605.97 926.44,-670.97 983,-698.54 1151.36,-780.6 1378.78,-760.45 1499.89,-741.02"/>
<polygon fill="green" stroke="green" points="1500.26,-744.34 1509.56,-739.26 1499.12,-737.43 1500.26,-744.34"/>
<text text-anchor="middle" x="1219" y="-766.54" font-family="Times New Roman,serif" font-size="30.00"> &#160;&#160;4 &#160;&#160;0% &#160;&#160;1.79e&#45;08 mol/s &#160;&#160;&#160;4.55E&#45;01</text>
</g>
<!-- CH4 -->
<g id="node3" class="node">
<title>CH4</title>
<g id="a_node3"><a xlink:href="7.svg" xlink:title="CH4">
<polygon fill="none" stroke="none" points="1626.5,-683.04 1543.5,-683.04 1543.5,-636.04 1626.5,-636.04 1626.5,-683.04"/>
<text text-anchor="middle" x="1585" y="-651.04" font-family="Times New Roman,serif" font-size="35.00">CH4</text>
</a>
</g>
</g>
<!-- H(S)&#45;&gt;CH4 -->
<g id="edge2" class="edge">
<title>H(S)&#45;&gt;CH4</title>
<path fill="none" stroke="black" stroke-width="3" d="M879.93,-570.8C904.51,-591.25 943.46,-619.71 983,-632.54 1084.5,-665.47 1406.86,-663.03 1532.84,-660.71"/>
<polygon fill="black" stroke="black" stroke-width="3" points="1529.77,-664.19 1539.7,-660.5 1529.64,-657.19 1529.77,-664.19"/>
<text text-anchor="middle" x="1219" y="-670.54" font-family="Times New Roman,serif" font-size="30.00"> &#160;&#160;9 &#160;&#160;49% &#160;&#160;5.45e&#45;06 mol/s &#160;&#160;&#160;3.20E&#45;01</text>
</g>
<!-- CH3CH2(S) -->
<g id="node15" class="node">
<title>CH3CH2(S)</title>
<g id="a_node15"><a xlink:href="38.svg" xlink:title="CH3CH2(S)">
<polygon fill="dodgerblue" stroke="none" points="1681,-604.04 1489,-604.04 1489,-557.04 1681,-557.04 1681,-604.04"/>
<text text-anchor="middle" x="1585" y="-572.04" font-family="Times New Roman,serif" font-size="35.00">CH3CH2(S)</text>
</a>
</g>
</g>
<!-- H(S)&#45;&gt;CH3CH2(S) -->
<g id="edge15" class="edge">
<title>H(S)&#45;&gt;CH3CH2(S)</title>
<path fill="none" stroke="black" d="M895.29,-561.33C920.34,-568.96 953.14,-577.67 983,-581.54 1155.39,-603.88 1357.93,-596.72 1478.37,-588.99"/>
<polygon fill="black" stroke="black" points="1478.3,-592.44 1488.05,-588.29 1477.84,-585.45 1478.3,-592.44"/>
<text text-anchor="middle" x="1219" y="-604.54" font-family="Times New Roman,serif" font-size="30.00"> &#160;&#160;55 &#160;&#160;0% &#160;&#160;1.69e&#45;08 mol/s &#160;&#160;&#160;2.33E&#45;01</text>
</g>
<!-- H(S)&#45;&gt;CH3CH2(S) -->
<g id="edge17" class="edge">
<title>H(S)&#45;&gt;CH3CH2(S)</title>
<path fill="none" stroke="green" d="M895.43,-543.34C993.34,-534.3 1246.44,-515.98 1455,-544.54 1470.78,-546.7 1487.35,-550.28 1503.16,-554.37"/>
<polygon fill="green" stroke="green" points="1501.86,-557.91 1512.42,-557.12 1503.67,-551.15 1501.86,-557.91"/>
<text text-anchor="middle" x="1219" y="-553.54" font-family="Times New Roman,serif" font-size="30.00"> &#160;&#160;60 &#160;&#160;0% &#160;&#160;1.4e&#45;09 mol/s &#160;&#160;&#160;4.75E&#45;01</text>
</g>
<!-- CH2CH2(S) -->
<g id="node16" class="node">
<title>CH2CH2(S)</title>
<g id="a_node16"><a xlink:href="41.svg" xlink:title="CH2CH2(S)">
<polygon fill="dodgerblue" stroke="none" points="1681,-520.04 1489,-520.04 1489,-473.04 1681,-473.04 1681,-520.04"/>
<text text-anchor="middle" x="1585" y="-488.04" font-family="Times New Roman,serif" font-size="35.00">CH2CH2(S)</text>
</a>
</g>
</g>
<!-- H(S)&#45;&gt;CH2CH2(S) -->
<g id="edge16" class="edge">
<title>H(S)&#45;&gt;CH2CH2(S)</title>
<path fill="none" stroke="green" d="M895.26,-524.45C919.9,-512 952.28,-497.92 983,-491.54 1153.57,-456.11 1357.29,-469.02 1478.37,-482.29"/>
<polygon fill="green" stroke="green" points="1477.77,-485.86 1488.1,-483.49 1478.55,-478.9 1477.77,-485.86"/>
<text text-anchor="middle" x="1219" y="-500.54" font-family="Times New Roman,serif" font-size="30.00"> &#160;&#160;57 &#160;&#160;0% &#160;&#160;1.4e&#45;09 mol/s &#160;&#160;&#160;4.60E&#45;01</text>
</g>
<!-- CH3(S) -->
<g id="node17" class="node">
<title>CH3(S)</title>
<g id="a_node17"><a xlink:href="55.svg" xlink:title="CH3(S)">
<polygon fill="dodgerblue" stroke="none" points="1648,-455.04 1522,-455.04 1522,-408.04 1648,-408.04 1648,-455.04"/>
<text text-anchor="middle" x="1585" y="-423.04" font-family="Times New Roman,serif" font-size="35.00">CH3(S)</text>
</a>
</g>
</g>
<!-- H(S)&#45;&gt;CH3(S) -->
<g id="edge18" class="edge">
<title>H(S)&#45;&gt;CH3(S)</title>
<path fill="none" stroke="black" stroke-width="3" d="M870.93,-524.26C893.02,-496.08 934.63,-450.09 983,-431.54 1077.32,-395.37 1372.79,-413.91 1511.16,-425.1"/>
<polygon fill="black" stroke="black" stroke-width="3" points="1507.8,-428.66 1518.05,-425.99 1508.37,-421.69 1507.8,-428.66"/>
<text text-anchor="middle" x="1219" y="-440.54" font-family="Times New Roman,serif" font-size="30.00"> &#160;&#160;66 &#160;&#160;49% &#160;&#160;5.43e&#45;06 mol/s &#160;&#160;&#160;1.93E&#45;02</text>
</g>
<!-- CH(S) -->
<g id="node18" class="node">
<title>CH(S)</title>
<g id="a_node18"><a xlink:href="57.svg" xlink:title="CH(S)">
<polygon fill="springgreen" stroke="none" points="1639,-390.04 1531,-390.04 1531,-343.04 1639,-343.04 1639,-390.04"/>
<text text-anchor="middle" x="1585" y="-358.04" font-family="Times New Roman,serif" font-size="35.00">CH(S)</text>
</a>
</g>
</g>
<!-- H(S)&#45;&gt;CH(S) -->
<g id="edge19" class="edge">
<title>H(S)&#45;&gt;CH(S)</title>
<path fill="none" stroke="green" d="M862.96,-524.21C879.66,-484.51 919.66,-404.94 983,-372.54 1159.84,-282.09 1406,-322.84 1520.6,-349.68"/>
<polygon fill="green" stroke="green" points="1519.74,-353.31 1530.28,-352.23 1521.36,-346.5 1519.74,-353.31"/>
<text text-anchor="middle" x="1219" y="-381.54" font-family="Times New Roman,serif" font-size="30.00"> &#160;&#160;68 &#160;&#160;0% &#160;&#160;2.5e&#45;09 mol/s &#160;&#160;&#160;4.84E&#45;01</text>
</g>
<!-- CH3CH2OH(S) -->
<g id="node4" class="node">
<title>CH3CH2OH(S)</title>
<g id="a_node4"><a xlink:href="14.svg" xlink:title="CH3CH2OH(S)">
<polygon fill="dodgerblue" stroke="none" points="242,-935.04 0,-935.04 0,-888.04 242,-888.04 242,-935.04"/>
<text text-anchor="middle" x="121" y="-903.04" font-family="Times New Roman,serif" font-size="35.00">CH3CH2OH(S)</text>
</a>
</g>
</g>
<!-- CH3CH2OH(S)&#45;&gt;H(S) -->
<g id="edge3" class="edge">
<title>CH3CH2OH(S)&#45;&gt;H(S)</title>
<path fill="none" stroke="black" d="M175.23,-934.9C288.32,-980.56 555.85,-1067.07 723,-945.54 783.64,-901.45 830.37,-669.63 846.19,-581.54"/>
<polygon fill="black" stroke="black" points="849.79,-582.27 848.09,-571.82 842.9,-581.05 849.79,-582.27"/>
<text text-anchor="middle" x="487" y="-1016.54" font-family="Times New Roman,serif" font-size="30.00"> &#160;&#160;15 &#160;&#160;16% &#160;&#160;4.77e&#45;06 mol/s &#160;&#160;&#160;9.99E&#45;01</text>
</g>
<!-- CH3CH2OH(S)&#45;&gt;H(S) -->
<g id="edge9" class="edge">
<title>CH3CH2OH(S)&#45;&gt;H(S)</title>
<path fill="none" stroke="black" d="M241.7,-907.98C415.62,-902.69 718.17,-893.01 723,-889.54 824.73,-816.4 846.27,-652.65 850.81,-581.56"/>
<polygon fill="black" stroke="black" points="854.33,-582.15 851.4,-571.97 847.35,-581.76 854.33,-582.15"/>
<text text-anchor="middle" x="487" y="-915.54" font-family="Times New Roman,serif" font-size="30.00"> &#160;&#160;37 &#160;&#160;0% &#160;&#160;2.55e&#45;09 mol/s &#160;&#160;&#160;9.99E&#45;01</text>
</g>
<!-- CH3CH2OH(S)&#45;&gt;H(S) -->
<g id="edge20" class="edge">
<title>CH3CH2OH(S)&#45;&gt;H(S)</title>
<path fill="none" stroke="black" d="M162.36,-888.14C187.08,-875.08 219.86,-859.98 251,-852.54 302.05,-840.34 679.49,-862.9 723,-833.54 809.5,-775.17 838.78,-643.99 848.04,-581.67"/>
<polygon fill="black" stroke="black" points="851.63,-582.25 849.54,-571.87 844.7,-581.29 851.63,-582.25"/>
<text text-anchor="middle" x="487" y="-861.54" font-family="Times New Roman,serif" font-size="30.00"> &#160;&#160;69 &#160;&#160;2% &#160;&#160;7.05e&#45;07 mol/s &#160;&#160;&#160;9.45E&#45;01</text>
</g>
<!-- CH3CHOH(S) -->
<g id="node5" class="node">
<title>CH3CHOH(S)</title>
<g id="a_node5"><a xlink:href="15.svg" xlink:title="CH3CHOH(S)">
<polygon fill="dodgerblue" stroke="none" points="233,-813.04 9,-813.04 9,-766.04 233,-766.04 233,-813.04"/>
<text text-anchor="middle" x="121" y="-781.04" font-family="Times New Roman,serif" font-size="35.00">CH3CHOH(S)</text>
</a>
</g>
</g>
<!-- CH3CHOH(S)&#45;&gt;H(S) -->
<g id="edge4" class="edge">
<title>CH3CHOH(S)&#45;&gt;H(S)</title>
<path fill="none" stroke="black" d="M232.74,-793.21C394.9,-797.7 682.21,-801.98 723,-777.54 795.41,-734.15 830.43,-633.95 844.36,-581.28"/>
<polygon fill="black" stroke="black" points="847.95,-582.35 847.02,-571.8 841.17,-580.63 847.95,-582.35"/>
<text text-anchor="middle" x="487" y="-805.54" font-family="Times New Roman,serif" font-size="30.00"> &#160;&#160;16 &#160;&#160;16% &#160;&#160;4.6e&#45;06 mol/s &#160;&#160;&#160;5.57E&#45;01</text>
</g>
<!-- CH3CHOH(S)&#45;&gt;H(S) -->
<g id="edge21" class="edge">
<title>CH3CHOH(S)&#45;&gt;H(S)</title>
<path fill="none" stroke="black" d="M200.73,-766.11C214.82,-760.77 229.11,-754.56 242,-747.54 246.45,-745.11 246.24,-742.28 251,-740.54 349.59,-704.48 630.21,-770.62 723,-721.54 780.61,-691.07 819.34,-622.1 838.35,-580.73"/>
<polygon fill="black" stroke="black" points="841.88,-582.41 842.76,-571.85 835.49,-579.56 841.88,-582.41"/>
<text text-anchor="middle" x="487" y="-749.54" font-family="Times New Roman,serif" font-size="30.00"> &#160;&#160;70 &#160;&#160;0% &#160;&#160;1.52e&#45;07 mol/s &#160;&#160;&#160;5.54E&#45;01</text>
</g>
<!-- CH2CH2OH(S) -->
<g id="node6" class="node">
<title>CH2CH2OH(S)</title>
<g id="a_node6"><a xlink:href="17.svg" xlink:title="CH2CH2OH(S)">
<polygon fill="purple" stroke="none" points="242,-738.04 0,-738.04 0,-691.04 242,-691.04 242,-738.04"/>
<text text-anchor="middle" x="121" y="-706.04" font-family="Times New Roman,serif" font-size="35.00">CH2CH2OH(S)</text>
</a>
</g>
</g>
<!-- CH2CH2OH(S)&#45;&gt;H(S) -->
<g id="edge5" class="edge">
<title>CH2CH2OH(S)&#45;&gt;H(S)</title>
<path fill="none" stroke="black" d="M233,-691.07C239.08,-690.13 245.11,-689.27 251,-688.54 355.21,-675.57 626.06,-705.93 723,-665.54 766.67,-647.34 804.99,-607.56 828.28,-579.22"/>
<polygon fill="black" stroke="black" points="831.48,-581.82 835.01,-571.83 826.02,-577.44 831.48,-581.82"/>
<text text-anchor="middle" x="487" y="-697.54" font-family="Times New Roman,serif" font-size="30.00"> &#160;&#160;17 &#160;&#160;0% &#160;&#160;2.55e&#45;09 mol/s &#160;&#160;&#160;7.68E&#45;01</text>
</g>
<!-- CH2CHOH(S) -->
<g id="node7" class="node">
<title>CH2CHOH(S)</title>
<g id="a_node7"><a xlink:href="18.svg" xlink:title="CH2CHOH(S)">
<polygon fill="dodgerblue" stroke="none" points="233,-673.04 9,-673.04 9,-626.04 233,-626.04 233,-673.04"/>
<text text-anchor="middle" x="121" y="-641.04" font-family="Times New Roman,serif" font-size="35.00">CH2CHOH(S)</text>
</a>
</g>
</g>
<!-- CH2CHOH(S)&#45;&gt;H(S) -->
<g id="edge6" class="edge">
<title>CH2CHOH(S)&#45;&gt;H(S)</title>
<path fill="none" stroke="green" d="M232.76,-634.34C238.93,-633.68 245.04,-633.08 251,-632.54 355.59,-623.12 621.21,-635.35 723,-609.54 751.26,-602.37 780.72,-588.75 804.33,-576.1"/>
<polygon fill="green" stroke="green" points="805.65,-578.82 812.74,-570.94 802.29,-572.68 805.65,-578.82"/>
<text text-anchor="middle" x="487" y="-641.54" font-family="Times New Roman,serif" font-size="30.00"> &#160;&#160;18 &#160;&#160;0% &#160;&#160;2.1e&#45;09 mol/s &#160;&#160;&#160;5.20E&#45;01</text>
</g>
<!-- CH3CH2O(S) -->
<g id="node8" class="node">
<title>CH3CH2O(S)</title>
<g id="a_node8"><a xlink:href="26.svg" xlink:title="CH3CH2O(S)">
<polygon fill="purple" stroke="none" points="230,-608.04 12,-608.04 12,-561.04 230,-561.04 230,-608.04"/>
<text text-anchor="middle" x="121" y="-576.04" font-family="Times New Roman,serif" font-size="35.00">CH3CH2O(S)</text>
</a>
</g>
</g>
<!-- CH3CH2O(S)&#45;&gt;H(S) -->
<g id="edge7" class="edge">
<title>CH3CH2O(S)&#45;&gt;H(S)</title>
<path fill="none" stroke="black" d="M229.69,-577.75C236.9,-577.33 244.05,-576.92 251,-576.54 357.06,-570.69 673.87,-555.83 799.67,-549.97"/>
<polygon fill="black" stroke="black" points="799.7,-553.43 809.53,-549.47 799.38,-546.43 799.7,-553.43"/>
<text text-anchor="middle" x="487" y="-585.54" font-family="Times New Roman,serif" font-size="30.00"> &#160;&#160;23 &#160;&#160;2% &#160;&#160;7.05e&#45;07 mol/s &#160;&#160;&#160;9.91E&#45;01</text>
</g>
<!-- CH3CHO(S) -->
<g id="node9" class="node">
<title>CH3CHO(S)</title>
<g id="a_node9"><a xlink:href="27.svg" xlink:title="CH3CHO(S)">
<polygon fill="dodgerblue" stroke="none" points="221,-543.04 21,-543.04 21,-496.04 221,-496.04 221,-543.04"/>
<text text-anchor="middle" x="121" y="-511.04" font-family="Times New Roman,serif" font-size="35.00">CH3CHO(S)</text>
</a>
</g>
</g>
<!-- CH3CHO(S)&#45;&gt;H(S) -->
<g id="edge8" class="edge">
<title>CH3CHO(S)&#45;&gt;H(S)</title>
<path fill="none" stroke="green" d="M220.97,-513.53C340.35,-507.7 546.97,-502.17 723,-520.54 748.66,-523.22 776.73,-528.77 800.12,-534.15"/>
<polygon fill="green" stroke="green" points="798.98,-537.71 809.51,-536.6 800.58,-530.9 798.98,-537.71"/>
<text text-anchor="middle" x="487" y="-529.54" font-family="Times New Roman,serif" font-size="30.00"> &#160;&#160;24 &#160;&#160;2% &#160;&#160;8e&#45;07 mol/s &#160;&#160;&#160;5.02E&#45;01</text>
</g>
<!-- CH3COH(S) -->
<g id="node10" class="node">
<title>CH3COH(S)</title>
<g id="a_node10"><a xlink:href="16.svg" xlink:title="CH3COH(S)">
<polygon fill="springgreen" stroke="none" points="221,-478.04 21,-478.04 21,-431.04 221,-431.04 221,-478.04"/>
<text text-anchor="middle" x="121" y="-446.04" font-family="Times New Roman,serif" font-size="35.00">CH3COH(S)</text>
</a>
</g>
</g>
<!-- CH3COH(S)&#45;&gt;H(S) -->
<g id="edge10" class="edge">
<title>CH3COH(S)&#45;&gt;H(S)</title>
<path fill="none" stroke="green" d="M220.88,-442.13C341.94,-430.33 551.96,-420.92 723,-470.54 756.24,-480.18 789.68,-500.52 814.19,-517.87"/>
<polygon fill="green" stroke="green" points="811.64,-521.07 821.79,-524.1 815.75,-515.4 811.64,-521.07"/>
<text text-anchor="middle" x="487" y="-479.54" font-family="Times New Roman,serif" font-size="30.00"> &#160;&#160;39 &#160;&#160;14% &#160;&#160;4e&#45;06 mol/s &#160;&#160;&#160;5.43E&#45;01</text>
</g>
<!-- CHCHOH(S) -->
<g id="node11" class="node">
<title>CHCHOH(S)</title>
<g id="a_node11"><a xlink:href="21.svg" xlink:title="CHCHOH(S)">
<polygon fill="dodgerblue" stroke="none" points="224,-413.04 18,-413.04 18,-366.04 224,-366.04 224,-413.04"/>
<text text-anchor="middle" x="121" y="-381.04" font-family="Times New Roman,serif" font-size="35.00">CHCHOH(S)</text>
</a>
</g>
</g>
<!-- CHCHOH(S)&#45;&gt;H(S) -->
<g id="edge11" class="edge">
<title>CHCHOH(S)&#45;&gt;H(S)</title>
<path fill="none" stroke="green" d="M223.9,-380.5C371.74,-369.08 637.38,-355.39 723,-395.54 775.64,-420.23 814.74,-477.97 835.41,-514.75"/>
<polygon fill="green" stroke="green" points="832.64,-515.97 840.5,-523.07 838.78,-512.62 832.64,-515.97"/>
<text text-anchor="middle" x="487" y="-404.54" font-family="Times New Roman,serif" font-size="30.00"> &#160;&#160;44 &#160;&#160;0% &#160;&#160;1e&#45;09 mol/s &#160;&#160;&#160;5.01E&#45;01</text>
</g>
<!-- CH3CO(S) -->
<g id="node12" class="node">
<title>CH3CO(S)</title>
<g id="a_node12"><a xlink:href="28.svg" xlink:title="CH3CO(S)">
<polygon fill="springgreen" stroke="none" points="208.5,-348.04 33.5,-348.04 33.5,-301.04 208.5,-301.04 208.5,-348.04"/>
<text text-anchor="middle" x="121" y="-316.04" font-family="Times New Roman,serif" font-size="35.00">CH3CO(S)</text>
</a>
</g>
</g>
<!-- CH3CO(S)&#45;&gt;H(S) -->
<g id="edge12" class="edge">
<title>CH3CO(S)&#45;&gt;H(S)</title>
<path fill="none" stroke="green" d="M208.4,-315.43C353.33,-301.81 637.92,-282.6 723,-331.54 791.96,-371.21 828.09,-463.77 843.2,-513.88"/>
<polygon fill="green" stroke="green" points="840.04,-514.56 846.19,-523.18 846.77,-512.6 840.04,-514.56"/>
<text text-anchor="middle" x="487" y="-340.54" font-family="Times New Roman,serif" font-size="30.00"> &#160;&#160;48 &#160;&#160;5% &#160;&#160;1.47e&#45;06 mol/s &#160;&#160;&#160;5.43E&#45;01</text>
</g>
<!-- CH2CO(S) -->
<g id="node13" class="node">
<title>CH2CO(S)</title>
<g id="a_node13"><a xlink:href="31.svg" xlink:title="CH2CO(S)">
<polygon fill="springgreen" stroke="none" points="208.5,-283.04 33.5,-283.04 33.5,-236.04 208.5,-236.04 208.5,-283.04"/>
<text text-anchor="middle" x="121" y="-251.04" font-family="Times New Roman,serif" font-size="35.00">CH2CO(S)</text>
</a>
</g>
</g>
<!-- CH2CO(S)&#45;&gt;H(S) -->
<g id="edge13" class="edge">
<title>CH2CO(S)&#45;&gt;H(S)</title>
<path fill="none" stroke="green" d="M208.33,-254.88C364.34,-247.21 681.01,-235.3 723,-262.54 810.3,-319.16 839.18,-450.64 848.19,-513.23"/>
<polygon fill="green" stroke="green" points="844.85,-513.64 849.65,-523.08 851.78,-512.71 844.85,-513.64"/>
<text text-anchor="middle" x="487" y="-271.54" font-family="Times New Roman,serif" font-size="30.00"> &#160;&#160;51 &#160;&#160;19% &#160;&#160;5.4e&#45;06 mol/s &#160;&#160;&#160;5.18E&#45;01</text>
</g>
<!-- CHCO(S) -->
<g id="node14" class="node">
<title>CHCO(S)</title>
<g id="a_node14"><a xlink:href="34.svg" xlink:title="CHCO(S)">
<polygon fill="springgreen" stroke="none" points="199.5,-218.04 42.5,-218.04 42.5,-171.04 199.5,-171.04 199.5,-218.04"/>
<text text-anchor="middle" x="121" y="-186.04" font-family="Times New Roman,serif" font-size="35.00">CHCO(S)</text>
</a>
</g>
</g>
<!-- CHCO(S)&#45;&gt;H(S) -->
<g id="edge14" class="edge">
<title>CHCO(S)&#45;&gt;H(S)</title>
<path fill="none" stroke="black" d="M199.45,-185.99C342.48,-171.86 640.97,-150.56 723,-208.54 824.32,-280.15 846.09,-442.34 850.75,-513.26"/>
<polygon fill="black" stroke="black" points="847.31,-513.44 851.38,-523.23 854.3,-513.04 847.31,-513.44"/>
<text text-anchor="middle" x="487" y="-217.54" font-family="Times New Roman,serif" font-size="30.00"> &#160;&#160;54 &#160;&#160;0% &#160;&#160;2.07e&#45;09 mol/s &#160;&#160;&#160;9.99E&#45;01</text>
</g>
<!-- H2O(S) -->
<g id="node19" class="node">
<title>H2O(S)</title>
<g id="a_node19"><a xlink:href="59.svg" xlink:title="H2O(S)">
<polygon fill="springgreen" stroke="none" points="185,-153.04 57,-153.04 57,-106.04 185,-106.04 185,-153.04"/>
<text text-anchor="middle" x="121" y="-121.04" font-family="Times New Roman,serif" font-size="35.00">H2O(S)</text>
</a>
</g>
</g>
<!-- H2O(S)&#45;&gt;H(S) -->
<g id="edge22" class="edge">
<title>H2O(S)&#45;&gt;H(S)</title>
<path fill="none" stroke="green" d="M184.75,-125.73C330.07,-117.49 680.6,-101.15 723,-132.54 785.88,-179.08 831.54,-422.55 846.61,-513.35"/>
<polygon fill="green" stroke="green" points="843.31,-513.84 848.38,-523.14 850.22,-512.71 843.31,-513.84"/>
<text text-anchor="middle" x="487" y="-141.54" font-family="Times New Roman,serif" font-size="30.00"> &#160;&#160;150 &#160;&#160;10% &#160;&#160;3e&#45;06 mol/s &#160;&#160;&#160;5.02E&#45;01</text>
</g>
<!-- COOH(S) -->
<g id="node20" class="node">
<title>COOH(S)</title>
<g id="a_node20"><a xlink:href="64.svg" xlink:title="COOH(S)">
<polygon fill="dodgerblue" stroke="none" points="200.5,-88.04 41.5,-88.04 41.5,-41.04 200.5,-41.04 200.5,-88.04"/>
<text text-anchor="middle" x="121" y="-56.04" font-family="Times New Roman,serif" font-size="35.00">COOH(S)</text>
</a>
</g>
</g>
<!-- COOH(S)&#45;&gt;H(S) -->
<g id="edge23" class="edge">
<title>COOH(S)&#45;&gt;H(S)</title>
<path fill="none" stroke="black" d="M193.92,-41.11C316.65,-6.02 568.21,44.02 723,-76.54 793.37,-131.35 835.21,-414.26 847.88,-513.27"/>
<polygon fill="black" stroke="black" points="844.53,-513.66 849.25,-523.14 851.47,-512.78 844.53,-513.66"/>
<text text-anchor="middle" x="487" y="-85.54" font-family="Times New Roman,serif" font-size="30.00"> &#160;&#160;156 &#160;&#160;8% &#160;&#160;2.5e&#45;06 mol/s &#160;&#160;&#160;9.85E&#45;01</text>
</g>
</g>
</svg>
