<?xml version="1.0" encoding="UTF-8" standalone="no"?>
<!DOCTYPE svg PUBLIC "-//W3C//DTD SVG 1.1//EN"
 "http://www.w3.org/Graphics/SVG/1.1/DTD/svg11.dtd">
<!-- Generated by graphviz version 8.0.3 (20230416.2022)
 -->
<!-- Title: G Pages: 1 -->
<svg width="640pt" height="239pt"
 viewBox="0.00 0.00 720.00 268.90" xmlns="http://www.w3.org/2000/svg" xmlns:xlink="http://www.w3.org/1999/xlink">
<g id="graph0" class="graph" transform="scale(0.487062 0.487062) rotate(0) translate(4 486.75)">
<title>G</title>
<polygon fill="white" stroke="none" points="-4,4 -4,-486.75 1310,-486.75 1310,4 -4,4"/>
<text text-anchor="middle" x="653" y="-449.95" font-family="Arial" font-size="36.00" fill="blue">Reaction Path Analysis</text>
<!-- R64 -->
<g id="node1" class="node">
<title>R64</title>
<g id="a_node1"><a xlink:href="64.svg" xlink:title="R64">
<polygon fill="cornsilk" stroke="none" points="691,-234.25 615,-234.25 615,-187.25 691,-187.25 691,-234.25"/>
<text text-anchor="middle" x="653" y="-202.25" font-family="Times New Roman,serif" font-size="35.00">R64</text>
</a>
</g>
</g>
<!-- R65 -->
<g id="node4" class="node">
<title>R65</title>
<g id="a_node4"><a xlink:href="65.svg" xlink:title="R65">
<polygon fill="cornsilk" stroke="none" points="1297,-364.25 1221,-364.25 1221,-317.25 1297,-317.25 1297,-364.25"/>
<text text-anchor="middle" x="1259" y="-332.25" font-family="Times New Roman,serif" font-size="35.00">R65</text>
</a>
</g>
</g>
<!-- R64&#45;&gt;R65 -->
<g id="edge3" class="edge">
<title>R64&#45;&gt;R65</title>
<path fill="none" stroke="black" stroke-width="2" d="M659.32,-234.2C666.24,-258.69 680.92,-295.96 709,-313.75 868.64,-414.89 1109.82,-375.71 1210.86,-352.78"/>
<polygon fill="black" stroke="black" stroke-width="2" points="1210.39,-356.02 1219.33,-350.35 1208.8,-349.2 1210.39,-356.02"/>
<text text-anchor="middle" x="956" y="-388.75" font-family="Times New Roman,serif" font-size="30.00"> &#160;&#160;130 &#160;&#160;20% &#160;&#160;4.67e&#45;08 mol/s &#160;&#160;&#160;1.00E+00</text>
</g>
<!-- R66 -->
<g id="node5" class="node">
<title>R66</title>
<g id="a_node5"><a xlink:href="66.svg" xlink:title="R66">
<polygon fill="cornsilk" stroke="none" points="1297,-299.25 1221,-299.25 1221,-252.25 1297,-252.25 1297,-299.25"/>
<text text-anchor="middle" x="1259" y="-267.25" font-family="Times New Roman,serif" font-size="35.00">R66</text>
</a>
</g>
</g>
<!-- R64&#45;&gt;R66 -->
<g id="edge4" class="edge">
<title>R64&#45;&gt;R66</title>
<path fill="none" stroke="black" stroke-width="2" d="M682.41,-234.08C690.54,-239.54 699.72,-244.66 709,-247.75 801.23,-278.47 1094.32,-278.03 1210.2,-276.57"/>
<polygon fill="black" stroke="black" stroke-width="2" points="1208.22,-280.05 1218.17,-276.42 1208.12,-273.05 1208.22,-280.05"/>
<text text-anchor="middle" x="956" y="-285.75" font-family="Times New Roman,serif" font-size="30.00"> &#160;&#160;131 &#160;&#160;20% &#160;&#160;4.67e&#45;08 mol/s &#160;&#160;&#160;1.00E+00</text>
</g>
<!-- R156 -->
<g id="node6" class="node">
<title>R156</title>
<g id="a_node6"><a xlink:href="156.svg" xlink:title="R156">
<polygon fill="cornsilk" stroke="none" points="1306,-234.25 1212,-234.25 1212,-187.25 1306,-187.25 1306,-234.25"/>
<text text-anchor="middle" x="1259" y="-202.25" font-family="Times New Roman,serif" font-size="35.00">R156</text>
</a>
</g>
</g>
<!-- R64&#45;&gt;R156 -->
<g id="edge5" class="edge">
<title>R64&#45;&gt;R156</title>
<path fill="none" stroke="black" stroke-width="2" d="M690.87,-210.75C792.83,-210.75 1079.07,-210.75 1201.4,-210.75"/>
<polygon fill="black" stroke="black" stroke-width="2" points="1199.37,-214.25 1209.37,-210.75 1199.37,-207.25 1199.37,-214.25"/>
<text text-anchor="middle" x="956" y="-219.75" font-family="Times New Roman,serif" font-size="30.00"> &#160;&#160;208 &#160;&#160;20% &#160;&#160;4.67e&#45;08 mol/s &#160;&#160;&#160;1.00E+00</text>
</g>
<!-- R157 -->
<g id="node7" class="node">
<title>R157</title>
<g id="a_node7"><a xlink:href="157.svg" xlink:title="R157">
<polygon fill="cornsilk" stroke="none" points="1306,-169.25 1212,-169.25 1212,-122.25 1306,-122.25 1306,-169.25"/>
<text text-anchor="middle" x="1259" y="-137.25" font-family="Times New Roman,serif" font-size="35.00">R157</text>
</a>
</g>
</g>
<!-- R64&#45;&gt;R157 -->
<g id="edge6" class="edge">
<title>R64&#45;&gt;R157</title>
<path fill="none" stroke="black" stroke-width="2" d="M682.41,-187.42C690.54,-181.96 699.72,-176.84 709,-173.75 880.88,-116.49 1099.73,-128.75 1201.38,-138.92"/>
<polygon fill="black" stroke="black" stroke-width="2" points="1198.71,-142.47 1209.02,-140.02 1199.43,-135.51 1198.71,-142.47"/>
<text text-anchor="middle" x="956" y="-182.75" font-family="Times New Roman,serif" font-size="30.00"> &#160;&#160;209 &#160;&#160;20% &#160;&#160;4.67e&#45;08 mol/s &#160;&#160;&#160;1.00E+00</text>
</g>
<!-- R158 -->
<g id="node8" class="node">
<title>R158</title>
<g id="a_node8"><a xlink:href="158.svg" xlink:title="R158">
<polygon fill="cornsilk" stroke="none" points="1306,-104.25 1212,-104.25 1212,-57.25 1306,-57.25 1306,-104.25"/>
<text text-anchor="middle" x="1259" y="-72.25" font-family="Times New Roman,serif" font-size="35.00">R158</text>
</a>
</g>
</g>
<!-- R64&#45;&gt;R158 -->
<g id="edge7" class="edge">
<title>R64&#45;&gt;R158</title>
<path fill="none" stroke="black" stroke-width="2" d="M657.46,-187.35C662.97,-159.43 676.63,-113.87 709,-92.75 862.6,7.5 1095.4,-36.15 1201.61,-64.04"/>
<polygon fill="black" stroke="black" stroke-width="2" points="1199.53,-67.64 1210.1,-66.85 1201.34,-60.88 1199.53,-67.64"/>
<text text-anchor="middle" x="956" y="-101.75" font-family="Times New Roman,serif" font-size="30.00"> &#160;&#160;210 &#160;&#160;20% &#160;&#160;4.67e&#45;08 mol/s &#160;&#160;&#160;1.00E+00</text>
</g>
<!-- R5 -->
<g id="node2" class="node">
<title>R5</title>
<g id="a_node2"><a xlink:href="5.svg" xlink:title="R5">
<polygon fill="cornsilk" stroke="none" points="76,-383.25 18,-383.25 18,-336.25 76,-336.25 76,-383.25"/>
<text text-anchor="middle" x="47" y="-351.25" font-family="Times New Roman,serif" font-size="35.00">R5</text>
</a>
</g>
</g>
<!-- R5&#45;&gt;R64 -->
<g id="edge1" class="edge">
<title>R5&#45;&gt;R64</title>
<path fill="none" stroke="black" d="M75.98,-367.67C161.91,-390.21 426.26,-446.22 593.5,-334.75 623.88,-314.5 638.86,-273.99 645.98,-244.78"/>
<polygon fill="black" stroke="black" points="649.58,-245.72 648.35,-235.2 642.75,-244.2 649.58,-245.72"/>
<text text-anchor="middle" x="350" y="-410.75" font-family="Times New Roman,serif" font-size="30.00"> &#160;&#160;70 &#160;&#160;3% &#160;&#160;4.67e&#45;08 mol/s &#160;&#160;&#160;1.00E+00</text>
</g>
<!-- R13 -->
<g id="node3" class="node">
<title>R13</title>
<g id="a_node3"><a xlink:href="13.svg" xlink:title="R13">
<polygon fill="cornsilk" stroke="none" points="85,-318.25 9,-318.25 9,-271.25 85,-271.25 85,-318.25"/>
<text text-anchor="middle" x="47" y="-286.25" font-family="Times New Roman,serif" font-size="35.00">R13</text>
</a>
</g>
</g>
<!-- R13&#45;&gt;R64 -->
<g id="edge2" class="edge">
<title>R13&#45;&gt;R64</title>
<path fill="none" stroke="black" d="M84.86,-295.93C191.99,-298.86 501.56,-303.64 593.5,-264.75 605.51,-259.67 616.62,-251 625.85,-242.07"/>
<polygon fill="black" stroke="black" points="628,-244.86 632.46,-235.25 622.98,-239.97 628,-244.86"/>
<text text-anchor="middle" x="350" y="-306.75" font-family="Times New Roman,serif" font-size="30.00"> &#160;&#160;70 &#160;&#160;3% &#160;&#160;4.67e&#45;08 mol/s &#160;&#160;&#160;1.00E+00</text>
</g>
<!-- R125 -->
<g id="node9" class="node">
<title>R125</title>
<g id="a_node9"><a xlink:href="125.svg" xlink:title="R125">
<polygon fill="cornsilk" stroke="none" points="94,-230.25 0,-230.25 0,-183.25 94,-183.25 94,-230.25"/>
<text text-anchor="middle" x="47" y="-198.25" font-family="Times New Roman,serif" font-size="35.00">R125</text>
</a>
</g>
</g>
<!-- R125&#45;&gt;R64 -->
<g id="edge8" class="edge">
<title>R125&#45;&gt;R64</title>
<path fill="none" stroke="black" stroke-width="5" d="M93.89,-215.35C98.14,-215.92 102.39,-216.4 106.5,-216.75 322.17,-235.05 377.34,-227.8 593.5,-216.75 593.83,-216.73 594.16,-216.71 594.49,-216.7"/>
<polygon fill="black" stroke="black" stroke-width="5" points="589.95,-225.36 609.22,-215.1 588.61,-207.91 589.95,-225.36"/>
<text text-anchor="middle" x="350" y="-236.75" font-family="Times New Roman,serif" font-size="30.00"> &#160;&#160;448 &#160;&#160;88% &#160;&#160;1.35e&#45;06 mol/s &#160;&#160;&#160;7.46E&#45;06</text>
</g>
<!-- R125&#45;&gt;R64 -->
<g id="edge11" class="edge">
<title>R125&#45;&gt;R64</title>
<path fill="none" stroke="black" d="M93.98,-183.34C98.14,-181.9 102.35,-180.66 106.5,-179.75 212.2,-156.53 488.47,-153.64 593.5,-179.75 597.35,-180.71 601.23,-181.97 605.05,-183.44"/>
<polygon fill="black" stroke="black" points="603.44,-186.99 614.01,-187.74 606.22,-180.56 603.44,-186.99"/>
<text text-anchor="middle" x="350" y="-188.75" font-family="Times New Roman,serif" font-size="30.00"> &#160;&#160;653 &#160;&#160;0% &#160;&#160;1.01e&#45;11 mol/s &#160;&#160;&#160;1.00E+00</text>
</g>
<!-- R90 -->
<g id="node10" class="node">
<title>R90</title>
<g id="a_node10"><a xlink:href="90.svg" xlink:title="R90">
<polygon fill="cornsilk" stroke="none" points="85,-122.25 9,-122.25 9,-75.25 85,-75.25 85,-122.25"/>
<text text-anchor="middle" x="47" y="-90.25" font-family="Times New Roman,serif" font-size="35.00">R90</text>
</a>
</g>
</g>
<!-- R90&#45;&gt;R64 -->
<g id="edge9" class="edge">
<title>R90&#45;&gt;R64</title>
<path fill="none" stroke="black" d="M84.79,-102.88C91.98,-103.59 99.47,-104.25 106.5,-104.75 160.52,-108.57 546.21,-97.36 593.5,-123.75 614.62,-135.53 629.57,-158.51 639.07,-177.9"/>
<polygon fill="black" stroke="black" points="636.19,-179 643.55,-186.63 642.55,-176.08 636.19,-179"/>
<text text-anchor="middle" x="350" y="-132.75" font-family="Times New Roman,serif" font-size="30.00"> &#160;&#160;449 &#160;&#160;8% &#160;&#160;1.33e&#45;07 mol/s &#160;&#160;&#160;7.60E&#45;05</text>
</g>
<!-- R90&#45;&gt;R64 -->
<g id="edge10" class="edge">
<title>R90&#45;&gt;R64</title>
<path fill="none" stroke="black" d="M84.99,-75.74C91.91,-72.44 99.25,-69.55 106.5,-67.75 316.55,-15.53 413.8,52.9 593.5,-67.75 629.42,-91.86 643.3,-142.34 648.65,-176.4"/>
<polygon fill="black" stroke="black" points="645.32,-176.84 650.16,-186.26 652.25,-175.87 645.32,-176.84"/>
<text text-anchor="middle" x="350" y="-76.75" font-family="Times New Roman,serif" font-size="30.00"> &#160;&#160;478 &#160;&#160;0% &#160;&#160;1.01e&#45;11 mol/s &#160;&#160;&#160;1.00E+00</text>
</g>
</g>
</svg>
