<?xml version="1.0" encoding="UTF-8" standalone="no"?>
<!DOCTYPE svg PUBLIC "-//W3C//DTD SVG 1.1//EN"
 "http://www.w3.org/Graphics/SVG/1.1/DTD/svg11.dtd">
<!-- Generated by graphviz version 8.0.3 (20230416.2022)
 -->
<!-- Title: G Pages: 1 -->
<svg width="640pt" height="236pt"
 viewBox="0.00 0.00 720.00 265.69" xmlns="http://www.w3.org/2000/svg" xmlns:xlink="http://www.w3.org/1999/xlink">
<g id="graph0" class="graph" transform="scale(0.487062 0.487062) rotate(0) translate(4 480.88)">
<title>G</title>
<polygon fill="white" stroke="none" points="-4,4 -4,-480.88 1310,-480.88 1310,4 -4,4"/>
<text text-anchor="middle" x="653" y="-444.08" font-family="Arial" font-size="36.00" fill="blue">Reaction Path Analysis</text>
<!-- R64 -->
<g id="node1" class="node">
<title>R64</title>
<g id="a_node1"><a xlink:href="64.svg" xlink:title="R64">
<polygon fill="cornsilk" stroke="none" points="691,-231.38 615,-231.38 615,-184.38 691,-184.38 691,-231.38"/>
<text text-anchor="middle" x="653" y="-199.38" font-family="Times New Roman,serif" font-size="35.00">R64</text>
</a>
</g>
</g>
<!-- R65 -->
<g id="node4" class="node">
<title>R65</title>
<g id="a_node4"><a xlink:href="65.svg" xlink:title="R65">
<polygon fill="cornsilk" stroke="none" points="1297,-361.38 1221,-361.38 1221,-314.38 1297,-314.38 1297,-361.38"/>
<text text-anchor="middle" x="1259" y="-329.38" font-family="Times New Roman,serif" font-size="35.00">R65</text>
</a>
</g>
</g>
<!-- R64&#45;&gt;R65 -->
<g id="edge3" class="edge">
<title>R64&#45;&gt;R65</title>
<path fill="none" stroke="black" stroke-width="2" d="M659.32,-231.34C666.24,-255.82 680.92,-293.09 709,-310.88 868.64,-412.03 1109.82,-372.84 1210.86,-349.92"/>
<polygon fill="black" stroke="black" stroke-width="2" points="1210.39,-353.15 1219.33,-347.48 1208.8,-346.34 1210.39,-353.15"/>
<text text-anchor="middle" x="956" y="-385.88" font-family="Times New Roman,serif" font-size="30.00"> &#160;&#160;130 &#160;&#160;20% &#160;&#160;2.18e&#45;15 mol/s &#160;&#160;&#160;1.00E+00</text>
</g>
<!-- R66 -->
<g id="node5" class="node">
<title>R66</title>
<g id="a_node5"><a xlink:href="66.svg" xlink:title="R66">
<polygon fill="cornsilk" stroke="none" points="1297,-296.38 1221,-296.38 1221,-249.38 1297,-249.38 1297,-296.38"/>
<text text-anchor="middle" x="1259" y="-264.38" font-family="Times New Roman,serif" font-size="35.00">R66</text>
</a>
</g>
</g>
<!-- R64&#45;&gt;R66 -->
<g id="edge4" class="edge">
<title>R64&#45;&gt;R66</title>
<path fill="none" stroke="black" stroke-width="2" d="M682.41,-231.22C690.54,-236.68 699.72,-241.79 709,-244.88 801.23,-275.61 1094.32,-275.17 1210.2,-273.7"/>
<polygon fill="black" stroke="black" stroke-width="2" points="1208.22,-277.19 1218.17,-273.55 1208.12,-270.19 1208.22,-277.19"/>
<text text-anchor="middle" x="956" y="-282.88" font-family="Times New Roman,serif" font-size="30.00"> &#160;&#160;131 &#160;&#160;20% &#160;&#160;2.18e&#45;15 mol/s &#160;&#160;&#160;1.00E+00</text>
</g>
<!-- R156 -->
<g id="node6" class="node">
<title>R156</title>
<g id="a_node6"><a xlink:href="156.svg" xlink:title="R156">
<polygon fill="cornsilk" stroke="none" points="1306,-231.38 1212,-231.38 1212,-184.38 1306,-184.38 1306,-231.38"/>
<text text-anchor="middle" x="1259" y="-199.38" font-family="Times New Roman,serif" font-size="35.00">R156</text>
</a>
</g>
</g>
<!-- R64&#45;&gt;R156 -->
<g id="edge5" class="edge">
<title>R64&#45;&gt;R156</title>
<path fill="none" stroke="black" stroke-width="2" d="M690.87,-207.88C792.83,-207.88 1079.07,-207.88 1201.4,-207.88"/>
<polygon fill="black" stroke="black" stroke-width="2" points="1199.37,-211.38 1209.37,-207.88 1199.37,-204.38 1199.37,-211.38"/>
<text text-anchor="middle" x="956" y="-216.88" font-family="Times New Roman,serif" font-size="30.00"> &#160;&#160;208 &#160;&#160;20% &#160;&#160;2.18e&#45;15 mol/s &#160;&#160;&#160;1.00E+00</text>
</g>
<!-- R157 -->
<g id="node7" class="node">
<title>R157</title>
<g id="a_node7"><a xlink:href="157.svg" xlink:title="R157">
<polygon fill="cornsilk" stroke="none" points="1306,-166.38 1212,-166.38 1212,-119.38 1306,-119.38 1306,-166.38"/>
<text text-anchor="middle" x="1259" y="-134.38" font-family="Times New Roman,serif" font-size="35.00">R157</text>
</a>
</g>
</g>
<!-- R64&#45;&gt;R157 -->
<g id="edge6" class="edge">
<title>R64&#45;&gt;R157</title>
<path fill="none" stroke="black" stroke-width="2" d="M682.41,-184.55C690.54,-179.09 699.72,-173.98 709,-170.88 880.88,-113.62 1099.73,-125.89 1201.38,-136.05"/>
<polygon fill="black" stroke="black" stroke-width="2" points="1198.71,-139.61 1209.02,-137.15 1199.43,-132.64 1198.71,-139.61"/>
<text text-anchor="middle" x="956" y="-179.88" font-family="Times New Roman,serif" font-size="30.00"> &#160;&#160;209 &#160;&#160;20% &#160;&#160;2.18e&#45;15 mol/s &#160;&#160;&#160;1.00E+00</text>
</g>
<!-- R158 -->
<g id="node8" class="node">
<title>R158</title>
<g id="a_node8"><a xlink:href="158.svg" xlink:title="R158">
<polygon fill="cornsilk" stroke="none" points="1306,-101.38 1212,-101.38 1212,-54.38 1306,-54.38 1306,-101.38"/>
<text text-anchor="middle" x="1259" y="-69.38" font-family="Times New Roman,serif" font-size="35.00">R158</text>
</a>
</g>
</g>
<!-- R64&#45;&gt;R158 -->
<g id="edge7" class="edge">
<title>R64&#45;&gt;R158</title>
<path fill="none" stroke="black" stroke-width="2" d="M657.46,-184.48C662.97,-156.56 676.63,-111.01 709,-89.88 862.6,10.36 1095.4,-33.29 1201.61,-61.17"/>
<polygon fill="black" stroke="black" stroke-width="2" points="1199.53,-64.77 1210.1,-63.98 1201.34,-58.01 1199.53,-64.77"/>
<text text-anchor="middle" x="956" y="-98.88" font-family="Times New Roman,serif" font-size="30.00"> &#160;&#160;210 &#160;&#160;20% &#160;&#160;2.18e&#45;15 mol/s &#160;&#160;&#160;1.00E+00</text>
</g>
<!-- R5 -->
<g id="node2" class="node">
<title>R5</title>
<g id="a_node2"><a xlink:href="5.svg" xlink:title="R5">
<polygon fill="cornsilk" stroke="none" points="76,-380.38 18,-380.38 18,-333.38 76,-333.38 76,-380.38"/>
<text text-anchor="middle" x="47" y="-348.38" font-family="Times New Roman,serif" font-size="35.00">R5</text>
</a>
</g>
</g>
<!-- R5&#45;&gt;R64 -->
<g id="edge1" class="edge">
<title>R5&#45;&gt;R64</title>
<path fill="none" stroke="black" stroke-width="5" d="M75.94,-364.44C161.14,-385.75 422.08,-438.04 589.5,-329.88 616.92,-312.17 632.9,-278.41 641.83,-250.88"/>
<polygon fill="black" stroke="black" stroke-width="5" points="649.43,-258.62 646.46,-237 632.59,-253.86 649.43,-258.62"/>
<text text-anchor="middle" x="350" y="-404.88" font-family="Times New Roman,serif" font-size="30.00"> &#160;&#160;70 &#160;&#160;99% &#160;&#160;2.18e&#45;15 mol/s &#160;&#160;&#160;1.00E+00</text>
</g>
<!-- R13 -->
<g id="node3" class="node">
<title>R13</title>
<g id="a_node3"><a xlink:href="13.svg" xlink:title="R13">
<polygon fill="cornsilk" stroke="none" points="85,-315.38 9,-315.38 9,-268.38 85,-268.38 85,-315.38"/>
<text text-anchor="middle" x="47" y="-283.38" font-family="Times New Roman,serif" font-size="35.00">R13</text>
</a>
</g>
</g>
<!-- R13&#45;&gt;R64 -->
<g id="edge2" class="edge">
<title>R13&#45;&gt;R64</title>
<path fill="none" stroke="black" stroke-width="5" d="M84.89,-292.79C191.4,-294.93 497.58,-297.63 589.5,-260.88 598.87,-257.14 607.84,-251.41 615.92,-245.07"/>
<polygon fill="black" stroke="black" stroke-width="5" points="618.37,-255.04 627.52,-235.23 606.76,-241.95 618.37,-255.04"/>
<text text-anchor="middle" x="350" y="-301.88" font-family="Times New Roman,serif" font-size="30.00"> &#160;&#160;70 &#160;&#160;99% &#160;&#160;2.18e&#45;15 mol/s &#160;&#160;&#160;1.00E+00</text>
</g>
<!-- R125 -->
<g id="node9" class="node">
<title>R125</title>
<g id="a_node9"><a xlink:href="125.svg" xlink:title="R125">
<polygon fill="cornsilk" stroke="none" points="94,-227.38 0,-227.38 0,-180.38 94,-180.38 94,-227.38"/>
<text text-anchor="middle" x="47" y="-195.38" font-family="Times New Roman,serif" font-size="35.00">R125</text>
</a>
</g>
</g>
<!-- R125&#45;&gt;R64 -->
<g id="edge8" class="edge">
<title>R125&#45;&gt;R64</title>
<path fill="none" stroke="black" d="M93.98,-212.09C99.53,-212.83 105.13,-213.46 110.5,-213.88 322.72,-230.76 376.85,-224.07 589.5,-213.88 594.28,-213.66 599.27,-213.33 604.24,-212.94"/>
<polygon fill="black" stroke="black" points="604.36,-216.36 614.03,-212.02 603.77,-209.39 604.36,-216.36"/>
<text text-anchor="middle" x="350" y="-232.88" font-family="Times New Roman,serif" font-size="30.00"> &#160;&#160;448 &#160;&#160;0% &#160;&#160;2.95e&#45;21 mol/s &#160;&#160;&#160;7.46E&#45;06</text>
</g>
<!-- R125&#45;&gt;R64 -->
<g id="edge11" class="edge">
<title>R125&#45;&gt;R64</title>
<path fill="none" stroke="black" d="M93.73,-181.65C99.27,-179.7 104.94,-178.03 110.5,-176.88 214.74,-155.33 485.86,-152.59 589.5,-176.88 594.75,-178.11 600.06,-179.85 605.25,-181.89"/>
<polygon fill="black" stroke="black" points="603.48,-185.36 614.04,-186.1 606.24,-178.93 603.48,-185.36"/>
<text text-anchor="middle" x="350" y="-185.88" font-family="Times New Roman,serif" font-size="30.00"> &#160;&#160;653 &#160;&#160;0% &#160;&#160;2.2e&#45;26 mol/s &#160;&#160;&#160;1.00E+00</text>
</g>
<!-- R90 -->
<g id="node10" class="node">
<title>R90</title>
<g id="a_node10"><a xlink:href="90.svg" xlink:title="R90">
<polygon fill="cornsilk" stroke="none" points="85,-119.38 9,-119.38 9,-72.38 85,-72.38 85,-119.38"/>
<text text-anchor="middle" x="47" y="-87.38" font-family="Times New Roman,serif" font-size="35.00">R90</text>
</a>
</g>
</g>
<!-- R90&#45;&gt;R64 -->
<g id="edge9" class="edge">
<title>R90&#45;&gt;R64</title>
<path fill="none" stroke="black" d="M84.99,-99.77C93.37,-100.56 102.24,-101.32 110.5,-101.88 163.64,-105.54 542.55,-96.72 589.5,-121.88 610.97,-133.39 626.92,-155.9 637.33,-175"/>
<polygon fill="black" stroke="black" points="634.58,-176.31 642.27,-183.6 640.8,-173.11 634.58,-176.31"/>
<text text-anchor="middle" x="350" y="-130.88" font-family="Times New Roman,serif" font-size="30.00"> &#160;&#160;449 &#160;&#160;0% &#160;&#160;2.9e&#45;22 mol/s &#160;&#160;&#160;7.60E&#45;05</text>
</g>
<!-- R90&#45;&gt;R64 -->
<g id="edge10" class="edge">
<title>R90&#45;&gt;R64</title>
<path fill="none" stroke="black" d="M84.96,-74.1C93.11,-70.29 101.89,-66.9 110.5,-64.88 317.77,-16.31 411.35,51.67 589.5,-64.88 626.32,-88.98 641.58,-140.06 647.81,-174.19"/>
<polygon fill="black" stroke="black" points="644.45,-174.32 649.54,-183.62 651.36,-173.18 644.45,-174.32"/>
<text text-anchor="middle" x="350" y="-73.88" font-family="Times New Roman,serif" font-size="30.00"> &#160;&#160;478 &#160;&#160;0% &#160;&#160;2.2e&#45;26 mol/s &#160;&#160;&#160;1.00E+00</text>
</g>
</g>
</svg>
