<?xml version="1.0" encoding="UTF-8" standalone="no"?>
<!DOCTYPE svg PUBLIC "-//W3C//DTD SVG 1.1//EN"
 "http://www.w3.org/Graphics/SVG/1.1/DTD/svg11.dtd">
<!-- Generated by graphviz version 8.0.3 (20230416.2022)
 -->
<!-- Title: G Pages: 1 -->
<svg width="640pt" height="245pt"
 viewBox="0.00 0.00 720.00 275.10" xmlns="http://www.w3.org/2000/svg" xmlns:xlink="http://www.w3.org/1999/xlink">
<g id="graph0" class="graph" transform="scale(0.487062 0.487062) rotate(0) translate(4 498.06)">
<title>G</title>
<polygon fill="white" stroke="none" points="-4,4 -4,-498.06 1310,-498.06 1310,4 -4,4"/>
<text text-anchor="middle" x="653" y="-461.26" font-family="Arial" font-size="36.00" fill="blue">Reaction Path Analysis</text>
<!-- R65 -->
<g id="node1" class="node">
<title>R65</title>
<g id="a_node1"><a xlink:href="65.svg" xlink:title="R65">
<polygon fill="cornsilk" stroke="none" points="691,-232.56 615,-232.56 615,-185.56 691,-185.56 691,-232.56"/>
<text text-anchor="middle" x="653" y="-200.56" font-family="Times New Roman,serif" font-size="35.00">R65</text>
</a>
</g>
</g>
<!-- R101 -->
<g id="node6" class="node">
<title>R101</title>
<g id="a_node6"><a xlink:href="101.svg" xlink:title="R101">
<polygon fill="cornsilk" stroke="none" points="1306,-325.56 1212,-325.56 1212,-278.56 1306,-278.56 1306,-325.56"/>
<text text-anchor="middle" x="1259" y="-293.56" font-family="Times New Roman,serif" font-size="35.00">R101</text>
</a>
</g>
</g>
<!-- R65&#45;&gt;R101 -->
<g id="edge5" class="edge">
<title>R65&#45;&gt;R101</title>
<path fill="none" stroke="black" d="M669.97,-232.26C681.19,-246.48 697.53,-263.53 716.5,-272.06 879.94,-345.51 1099.65,-326.33 1201.63,-311.66"/>
<polygon fill="black" stroke="black" points="1201.92,-315 1211.3,-310.07 1200.89,-308.08 1201.92,-315"/>
<text text-anchor="middle" x="956" y="-334.06" font-family="Times New Roman,serif" font-size="30.00"> &#160;&#160;132 &#160;&#160;0% &#160;&#160;4.67e&#45;08 mol/s &#160;&#160;&#160;1.00E+00</text>
</g>
<!-- R102 -->
<g id="node7" class="node">
<title>R102</title>
<g id="a_node7"><a xlink:href="102.svg" xlink:title="R102">
<polygon fill="cornsilk" stroke="none" points="1306,-260.56 1212,-260.56 1212,-213.56 1306,-213.56 1306,-260.56"/>
<text text-anchor="middle" x="1259" y="-228.56" font-family="Times New Roman,serif" font-size="35.00">R102</text>
</a>
</g>
</g>
<!-- R65&#45;&gt;R102 -->
<g id="edge6" class="edge">
<title>R65&#45;&gt;R102</title>
<path fill="none" stroke="black" d="M690.99,-212.95C699.37,-213.74 708.23,-214.5 716.5,-215.06 893.2,-227.12 1102.83,-233.34 1201.42,-235.79"/>
<polygon fill="black" stroke="black" points="1201.23,-239.31 1211.31,-236.05 1201.4,-232.31 1201.23,-239.31"/>
<text text-anchor="middle" x="956" y="-244.06" font-family="Times New Roman,serif" font-size="30.00"> &#160;&#160;133 &#160;&#160;0% &#160;&#160;4.67e&#45;08 mol/s &#160;&#160;&#160;1.00E+00</text>
</g>
<!-- R170 -->
<g id="node9" class="node">
<title>R170</title>
<g id="a_node9"><a xlink:href="170.svg" xlink:title="R170">
<polygon fill="cornsilk" stroke="none" points="1306,-172.56 1212,-172.56 1212,-125.56 1306,-125.56 1306,-172.56"/>
<text text-anchor="middle" x="1259" y="-140.56" font-family="Times New Roman,serif" font-size="35.00">R170</text>
</a>
</g>
</g>
<!-- R65&#45;&gt;R170 -->
<g id="edge8" class="edge">
<title>R65&#45;&gt;R170</title>
<path fill="none" stroke="black" d="M690.68,-187.7C698.93,-183.8 707.82,-180.28 716.5,-178.06 819.72,-151.7 1089.5,-169.6 1195.5,-159.06 1197.34,-158.88 1199.21,-158.67 1201.1,-158.46"/>
<polygon fill="black" stroke="black" points="1201.53,-161.8 1211,-157.06 1200.64,-154.86 1201.53,-161.8"/>
<text text-anchor="middle" x="956" y="-187.06" font-family="Times New Roman,serif" font-size="30.00"> &#160;&#160;451 &#160;&#160;0% &#160;&#160;1.01e&#45;11 mol/s &#160;&#160;&#160;1.00E+00</text>
</g>
<!-- R65&#45;&gt;R170 -->
<g id="edge9" class="edge">
<title>R65&#45;&gt;R170</title>
<path fill="none" stroke="black" stroke-width="5" d="M663.34,-185.67C673.12,-164.71 690.69,-135.3 716.5,-122.06 900.1,-27.89 981.93,-75.77 1191.89,-122.4"/>
<polygon fill="black" stroke="black" stroke-width="5" points="1184.87,-130.13 1206.27,-125.83 1188.59,-113.03 1184.87,-130.13"/>
<text text-anchor="middle" x="956" y="-131.06" font-family="Times New Roman,serif" font-size="30.00"> &#160;&#160;690 &#160;&#160;99% &#160;&#160;0.00035 mol/s &#160;&#160;&#160;2.88E&#45;08</text>
</g>
<!-- R5 -->
<g id="node2" class="node">
<title>R5</title>
<g id="a_node2"><a xlink:href="5.svg" xlink:title="R5">
<polygon fill="cornsilk" stroke="none" points="76,-390.56 18,-390.56 18,-343.56 76,-343.56 76,-390.56"/>
<text text-anchor="middle" x="47" y="-358.56" font-family="Times New Roman,serif" font-size="35.00">R5</text>
</a>
</g>
</g>
<!-- R5&#45;&gt;R65 -->
<g id="edge1" class="edge">
<title>R5&#45;&gt;R65</title>
<path fill="none" stroke="black" stroke-width="3" d="M75.8,-375.39C162.37,-399.54 431.18,-460.67 597,-344.06 629.78,-321.01 643.05,-274.83 648.4,-242.95"/>
<polygon fill="black" stroke="black" stroke-width="3" points="651.97,-246.74 649.99,-236.33 645.05,-245.71 651.97,-246.74"/>
<text text-anchor="middle" x="350" y="-422.06" font-family="Times New Roman,serif" font-size="30.00"> &#160;&#160;71 &#160;&#160;49% &#160;&#160;4.67e&#45;08 mol/s &#160;&#160;&#160;1.00E+00</text>
</g>
<!-- R14 -->
<g id="node3" class="node">
<title>R14</title>
<g id="a_node3"><a xlink:href="14.svg" xlink:title="R14">
<polygon fill="cornsilk" stroke="none" points="85,-325.56 9,-325.56 9,-278.56 85,-278.56 85,-325.56"/>
<text text-anchor="middle" x="47" y="-293.56" font-family="Times New Roman,serif" font-size="35.00">R14</text>
</a>
</g>
</g>
<!-- R14&#45;&gt;R65 -->
<g id="edge2" class="edge">
<title>R14&#45;&gt;R65</title>
<path fill="none" stroke="black" stroke-width="3" d="M84.93,-303.82C193.02,-308.4 506.74,-317.42 597,-273.06 611.39,-265.99 623.53,-253.27 632.71,-241.02"/>
<polygon fill="black" stroke="black" stroke-width="3" points="633.97,-245.46 636.86,-235.27 628.25,-241.44 633.97,-245.46"/>
<text text-anchor="middle" x="350" y="-316.06" font-family="Times New Roman,serif" font-size="30.00"> &#160;&#160;71 &#160;&#160;49% &#160;&#160;4.67e&#45;08 mol/s &#160;&#160;&#160;1.00E+00</text>
</g>
<!-- R0 -->
<g id="node4" class="node">
<title>R0</title>
<g id="a_node4"><a xlink:href="0.svg" xlink:title="R0">
<polygon fill="cornsilk" stroke="none" points="76,-260.56 18,-260.56 18,-213.56 76,-213.56 76,-260.56"/>
<text text-anchor="middle" x="47" y="-228.56" font-family="Times New Roman,serif" font-size="35.00">R0</text>
</a>
</g>
</g>
<!-- R0&#45;&gt;R65 -->
<g id="edge3" class="edge">
<title>R0&#45;&gt;R65</title>
<path fill="none" stroke="black" stroke-width="3" d="M75.75,-236.62C156.36,-235.2 397.47,-229.92 597,-215.06 599.37,-214.88 601.8,-214.68 604.26,-214.47"/>
<polygon fill="black" stroke="black" stroke-width="3" points="601.43,-217.87 611.05,-213.44 600.76,-210.91 601.43,-217.87"/>
<text text-anchor="middle" x="350" y="-245.06" font-family="Times New Roman,serif" font-size="30.00"> &#160;&#160;130 &#160;&#160;49% &#160;&#160;4.67e&#45;08 mol/s &#160;&#160;&#160;1.00E+00</text>
</g>
<!-- R64 -->
<g id="node5" class="node">
<title>R64</title>
<g id="a_node5"><a xlink:href="64.svg" xlink:title="R64">
<polygon fill="cornsilk" stroke="none" points="85,-195.56 9,-195.56 9,-148.56 85,-148.56 85,-195.56"/>
<text text-anchor="middle" x="47" y="-163.56" font-family="Times New Roman,serif" font-size="35.00">R64</text>
</a>
</g>
</g>
<!-- R64&#45;&gt;R65 -->
<g id="edge4" class="edge">
<title>R64&#45;&gt;R65</title>
<path fill="none" stroke="black" stroke-width="3" d="M84.68,-170.1C191.37,-164.76 500.1,-152.07 597,-178.06 600.18,-178.91 603.37,-179.99 606.52,-181.23"/>
<polygon fill="black" stroke="black" stroke-width="3" points="601.87,-183.77 612.42,-184.67 604.73,-177.39 601.87,-183.77"/>
<text text-anchor="middle" x="350" y="-187.06" font-family="Times New Roman,serif" font-size="30.00"> &#160;&#160;130 &#160;&#160;49% &#160;&#160;4.67e&#45;08 mol/s &#160;&#160;&#160;1.00E+00</text>
</g>
<!-- R253 -->
<g id="node8" class="node">
<title>R253</title>
<g id="a_node8"><a xlink:href="253.svg" xlink:title="R253">
<polygon fill="cornsilk" stroke="none" points="94,-111.56 0,-111.56 0,-64.56 94,-64.56 94,-111.56"/>
<text text-anchor="middle" x="47" y="-79.56" font-family="Times New Roman,serif" font-size="35.00">R253</text>
</a>
</g>
</g>
<!-- R253&#45;&gt;R65 -->
<g id="edge7" class="edge">
<title>R253&#45;&gt;R65</title>
<path fill="none" stroke="black" d="M93.75,-101.35C96.87,-102.01 99.97,-102.59 103,-103.06 157.28,-111.56 549.26,-97.87 597,-125.06 616.55,-136.2 630.37,-157.46 639.27,-175.81"/>
<polygon fill="black" stroke="black" points="636.4,-176.95 643.71,-184.62 642.77,-174.07 636.4,-176.95"/>
<text text-anchor="middle" x="350" y="-134.06" font-family="Times New Roman,serif" font-size="30.00"> &#160;&#160;450 &#160;&#160;0% &#160;&#160;6.9e&#45;11 mol/s &#160;&#160;&#160;1.13E&#45;01</text>
</g>
<!-- R253&#45;&gt;R65 -->
<g id="edge10" class="edge">
<title>R253&#45;&gt;R65</title>
<path fill="none" stroke="black" d="M93.83,-68.26C96.9,-67.39 99.97,-66.64 103,-66.06 318.59,-24.54 416.02,58.24 597,-66.06 632.36,-90.35 645,-140.78 649.51,-174.78"/>
<polygon fill="black" stroke="black" points="646.13,-175.09 650.74,-184.62 653.09,-174.29 646.13,-175.09"/>
<text text-anchor="middle" x="350" y="-75.06" font-family="Times New Roman,serif" font-size="30.00"> &#160;&#160;727 &#160;&#160;0% &#160;&#160;8.8e&#45;12 mol/s &#160;&#160;&#160;8.87E&#45;01</text>
</g>
</g>
</svg>
