<?xml version="1.0" encoding="UTF-8" standalone="no"?>
<!DOCTYPE svg PUBLIC "-//W3C//DTD SVG 1.1//EN"
 "http://www.w3.org/Graphics/SVG/1.1/DTD/svg11.dtd">
<!-- Generated by graphviz version 8.0.3 (20230416.2022)
 -->
<!-- Title: G Pages: 1 -->
<svg width="640pt" height="242pt"
 viewBox="0.00 0.00 720.00 272.24" xmlns="http://www.w3.org/2000/svg" xmlns:xlink="http://www.w3.org/1999/xlink">
<g id="graph0" class="graph" transform="scale(0.498442 0.498442) rotate(0) translate(4 481.5)">
<title>G</title>
<polygon fill="white" stroke="none" points="-4,4 -4,-481.5 1280,-481.5 1280,4 -4,4"/>
<text text-anchor="middle" x="638" y="-444.7" font-family="Arial" font-size="36.00" fill="blue">Reaction Path Analysis</text>
<!-- R65 -->
<g id="node1" class="node">
<title>R65</title>
<g id="a_node1"><a xlink:href="65.svg" xlink:title="R65">
<polygon fill="cornsilk" stroke="none" points="676,-220 600,-220 600,-173 676,-173 676,-220"/>
<text text-anchor="middle" x="638" y="-188" font-family="Times New Roman,serif" font-size="35.00">R65</text>
</a>
</g>
</g>
<!-- R101 -->
<g id="node6" class="node">
<title>R101</title>
<g id="a_node6"><a xlink:href="101.svg" xlink:title="R101">
<polygon fill="cornsilk" stroke="none" points="1276,-313 1182,-313 1182,-266 1276,-266 1276,-313"/>
<text text-anchor="middle" x="1229" y="-281" font-family="Times New Roman,serif" font-size="35.00">R101</text>
</a>
</g>
</g>
<!-- R65&#45;&gt;R101 -->
<g id="edge5" class="edge">
<title>R65&#45;&gt;R101</title>
<path fill="none" stroke="black" d="M652.66,-219.96C662.27,-234.09 676.52,-250.96 694,-259.5 852.57,-337 1070.05,-315.95 1171.55,-299.97"/>
<polygon fill="black" stroke="black" points="1171.86,-303.31 1181.17,-298.25 1170.74,-296.4 1171.86,-303.31"/>
<text text-anchor="middle" x="933.5" y="-323.5" font-family="Times New Roman,serif" font-size="30.00"> &#160;&#160;132 &#160;&#160;0% &#160;&#160;0.0342 mol/s &#160;&#160;&#160;1.00E+00</text>
</g>
<!-- R102 -->
<g id="node7" class="node">
<title>R102</title>
<g id="a_node7"><a xlink:href="102.svg" xlink:title="R102">
<polygon fill="cornsilk" stroke="none" points="1276,-248 1182,-248 1182,-201 1276,-201 1276,-248"/>
<text text-anchor="middle" x="1229" y="-216" font-family="Times New Roman,serif" font-size="35.00">R102</text>
</a>
</g>
</g>
<!-- R65&#45;&gt;R102 -->
<g id="edge6" class="edge">
<title>R65&#45;&gt;R102</title>
<path fill="none" stroke="black" d="M675.95,-200.88C681.98,-201.49 688.16,-202.06 694,-202.5 867.73,-215.54 1073.88,-221.28 1171.44,-223.42"/>
<polygon fill="black" stroke="black" points="1171.15,-226.94 1181.22,-223.65 1171.3,-219.94 1171.15,-226.94"/>
<text text-anchor="middle" x="933.5" y="-231.5" font-family="Times New Roman,serif" font-size="30.00"> &#160;&#160;133 &#160;&#160;0% &#160;&#160;0.0342 mol/s &#160;&#160;&#160;1.00E+00</text>
</g>
<!-- R170 -->
<g id="node9" class="node">
<title>R170</title>
<g id="a_node9"><a xlink:href="170.svg" xlink:title="R170">
<polygon fill="cornsilk" stroke="none" points="1276,-160 1182,-160 1182,-113 1276,-113 1276,-160"/>
<text text-anchor="middle" x="1229" y="-128" font-family="Times New Roman,serif" font-size="35.00">R170</text>
</a>
</g>
</g>
<!-- R65&#45;&gt;R170 -->
<g id="edge8" class="edge">
<title>R65&#45;&gt;R170</title>
<path fill="none" stroke="black" d="M674.92,-173.12C681.08,-170.04 687.57,-167.32 694,-165.5 793.38,-137.3 1050.88,-156.9 1171.29,-146.4"/>
<polygon fill="black" stroke="black" points="1171.55,-149.8 1181.15,-145.33 1170.86,-142.83 1171.55,-149.8"/>
<text text-anchor="middle" x="933.5" y="-174.5" font-family="Times New Roman,serif" font-size="30.00"> &#160;&#160;451 &#160;&#160;0% &#160;&#160;0.00272 mol/s &#160;&#160;&#160;1.00E+00</text>
</g>
<!-- R65&#45;&gt;R170 -->
<g id="edge9" class="edge">
<title>R65&#45;&gt;R170</title>
<path fill="none" stroke="black" stroke-width="5" d="M646.44,-173.2C654.5,-152.31 669.58,-122.95 694,-109.5 874.64,-9.99 960.21,-58.09 1164.68,-108.24"/>
<polygon fill="black" stroke="black" stroke-width="5" points="1157.35,-115.92 1178.84,-112.1 1161.45,-98.91 1157.35,-115.92"/>
<text text-anchor="middle" x="933.5" y="-118.5" font-family="Times New Roman,serif" font-size="30.00"> &#160;&#160;690 &#160;&#160;99% &#160;&#160;26200.0 mol/s &#160;&#160;&#160;1.04E&#45;07</text>
</g>
<!-- R5 -->
<g id="node2" class="node">
<title>R5</title>
<g id="a_node2"><a xlink:href="5.svg" xlink:title="R5">
<polygon fill="cornsilk" stroke="none" points="76,-378 18,-378 18,-331 76,-331 76,-378"/>
<text text-anchor="middle" x="47" y="-346" font-family="Times New Roman,serif" font-size="35.00">R5</text>
</a>
</g>
</g>
<!-- R5&#45;&gt;R65 -->
<g id="edge1" class="edge">
<title>R5&#45;&gt;R65</title>
<path fill="none" stroke="black" stroke-width="2" d="M75.95,-362.59C160.54,-385.28 417.81,-440.95 578.5,-330.5 611.53,-307.8 626.07,-262.13 632.36,-230.46"/>
<polygon fill="black" stroke="black" stroke-width="2" points="635.94,-232.36 634.26,-221.9 629.05,-231.12 635.94,-232.36"/>
<text text-anchor="middle" x="342.5" y="-405.5" font-family="Times New Roman,serif" font-size="30.00"> &#160;&#160;71 &#160;&#160;24% &#160;&#160;0.0341 mol/s &#160;&#160;&#160;9.98E&#45;01</text>
</g>
<!-- R14 -->
<g id="node3" class="node">
<title>R14</title>
<g id="a_node3"><a xlink:href="14.svg" xlink:title="R14">
<polygon fill="cornsilk" stroke="none" points="85,-313 9,-313 9,-266 85,-266 85,-313"/>
<text text-anchor="middle" x="47" y="-281" font-family="Times New Roman,serif" font-size="35.00">R14</text>
</a>
</g>
</g>
<!-- R14&#45;&gt;R65 -->
<g id="edge2" class="edge">
<title>R14&#45;&gt;R65</title>
<path fill="none" stroke="black" stroke-width="2" d="M84.74,-290.93C190.02,-294.49 490.84,-300.71 578.5,-259.5 593.06,-252.65 605.74,-240.39 615.53,-228.5"/>
<polygon fill="black" stroke="black" stroke-width="2" points="617.77,-232.03 621.14,-221.99 612.24,-227.74 617.77,-232.03"/>
<text text-anchor="middle" x="342.5" y="-302.5" font-family="Times New Roman,serif" font-size="30.00"> &#160;&#160;71 &#160;&#160;24% &#160;&#160;0.0341 mol/s &#160;&#160;&#160;9.98E&#45;01</text>
</g>
<!-- R0 -->
<g id="node4" class="node">
<title>R0</title>
<g id="a_node4"><a xlink:href="0.svg" xlink:title="R0">
<polygon fill="cornsilk" stroke="none" points="76,-248 18,-248 18,-201 76,-201 76,-248"/>
<text text-anchor="middle" x="47" y="-216" font-family="Times New Roman,serif" font-size="35.00">R0</text>
</a>
</g>
</g>
<!-- R0&#45;&gt;R65 -->
<g id="edge3" class="edge">
<title>R0&#45;&gt;R65</title>
<path fill="none" stroke="black" stroke-width="2" d="M75.93,-223.94C154.91,-222.22 386.57,-216.31 578.5,-202.5 582.01,-202.25 585.64,-201.95 589.29,-201.63"/>
<polygon fill="black" stroke="black" stroke-width="2" points="587.57,-205.03 597.21,-200.62 586.92,-198.06 587.57,-205.03"/>
<text text-anchor="middle" x="342.5" y="-231.5" font-family="Times New Roman,serif" font-size="30.00"> &#160;&#160;130 &#160;&#160;24% &#160;&#160;0.0342 mol/s &#160;&#160;&#160;1.00E+00</text>
</g>
<!-- R64 -->
<g id="node5" class="node">
<title>R64</title>
<g id="a_node5"><a xlink:href="64.svg" xlink:title="R64">
<polygon fill="cornsilk" stroke="none" points="85,-183 9,-183 9,-136 85,-136 85,-183"/>
<text text-anchor="middle" x="47" y="-151" font-family="Times New Roman,serif" font-size="35.00">R64</text>
</a>
</g>
</g>
<!-- R64&#45;&gt;R65 -->
<g id="edge4" class="edge">
<title>R64&#45;&gt;R65</title>
<path fill="none" stroke="black" stroke-width="2" d="M84.9,-157.66C189.25,-152.83 485,-141.69 578.5,-165.5 582.52,-166.52 586.57,-167.87 590.56,-169.44"/>
<polygon fill="black" stroke="black" stroke-width="2" points="587.74,-171.9 598.31,-172.71 590.55,-165.49 587.74,-171.9"/>
<text text-anchor="middle" x="342.5" y="-174.5" font-family="Times New Roman,serif" font-size="30.00"> &#160;&#160;130 &#160;&#160;24% &#160;&#160;0.0342 mol/s &#160;&#160;&#160;1.00E+00</text>
</g>
<!-- R253 -->
<g id="node8" class="node">
<title>R253</title>
<g id="a_node8"><a xlink:href="253.svg" xlink:title="R253">
<polygon fill="cornsilk" stroke="none" points="94,-99 0,-99 0,-52 94,-52 94,-99"/>
<text text-anchor="middle" x="47" y="-67" font-family="Times New Roman,serif" font-size="35.00">R253</text>
</a>
</g>
</g>
<!-- R253&#45;&gt;R65 -->
<g id="edge7" class="edge">
<title>R253&#45;&gt;R65</title>
<path fill="none" stroke="black" stroke-width="3" d="M93.8,-88.18C98.07,-89.08 102.35,-89.87 106.5,-90.5 158.42,-98.34 532.49,-88.2 578.5,-113.5 598.44,-124.46 613.15,-145.48 622.83,-163.61"/>
<polygon fill="black" stroke="black" stroke-width="3" points="618.08,-161.94 625.69,-169.31 624.34,-158.81 618.08,-161.94"/>
<text text-anchor="middle" x="342.5" y="-122.5" font-family="Times New Roman,serif" font-size="30.00"> &#160;&#160;450 &#160;&#160;48% &#160;&#160;0.0664 mol/s &#160;&#160;&#160;3.79E&#45;02</text>
</g>
<!-- R253&#45;&gt;R65 -->
<g id="edge10" class="edge">
<title>R253&#45;&gt;R65</title>
<path fill="none" stroke="black" d="M93.65,-57.09C191.9,-20.74 426.77,48.36 578.5,-53.5 614.42,-77.61 628.3,-128.09 633.65,-162.15"/>
<polygon fill="black" stroke="black" points="630.32,-162.59 635.16,-172.01 637.25,-161.62 630.32,-162.59"/>
<text text-anchor="middle" x="342.5" y="-62.5" font-family="Times New Roman,serif" font-size="30.00"> &#160;&#160;727 &#160;&#160;1% &#160;&#160;0.00261 mol/s &#160;&#160;&#160;9.62E&#45;01</text>
</g>
</g>
</svg>
