<?xml version="1.0" encoding="UTF-8" standalone="no"?>
<!DOCTYPE svg PUBLIC "-//W3C//DTD SVG 1.1//EN"
 "http://www.w3.org/Graphics/SVG/1.1/DTD/svg11.dtd">
<!-- Generated by graphviz version 8.0.3 (20230416.2022)
 -->
<!-- Title: G Pages: 1 -->
<svg width="640pt" height="130pt"
 viewBox="0.00 0.00 720.00 146.46" xmlns="http://www.w3.org/2000/svg" xmlns:xlink="http://www.w3.org/1999/xlink">
<g id="graph0" class="graph" transform="scale(0.507534 0.507534) rotate(0) translate(4 252.5)">
<title>G</title>
<polygon fill="white" stroke="none" points="-4,4 -4,-252.5 1257,-252.5 1257,4 -4,4"/>
<text text-anchor="middle" x="626.5" y="-215.7" font-family="Arial" font-size="36.00" fill="blue">Reaction Path Analysis</text>
<!-- R69 -->
<g id="node1" class="node">
<title>R69</title>
<g id="a_node1"><a xlink:href="69.svg" xlink:title="R69">
<polygon fill="cornsilk" stroke="none" points="660,-112 584,-112 584,-65 660,-65 660,-112"/>
<text text-anchor="middle" x="622" y="-80" font-family="Times New Roman,serif" font-size="35.00">R69</text>
</a>
</g>
</g>
<!-- R13 -->
<g id="node2" class="node">
<title>R13</title>
<g id="a_node2"><a xlink:href="13.svg" xlink:title="R13">
<polygon fill="cornsilk" stroke="none" points="1244,-177 1168,-177 1168,-130 1244,-130 1244,-177"/>
<text text-anchor="middle" x="1206" y="-145" font-family="Times New Roman,serif" font-size="35.00">R13</text>
</a>
</g>
</g>
<!-- R69&#45;&gt;R13 -->
<g id="edge1" class="edge">
<title>R69&#45;&gt;R13</title>
<path fill="none" stroke="black" d="M651.42,-111.82C659.54,-117.28 668.72,-122.4 678,-125.5 846.88,-181.96 1063.08,-168.83 1157.41,-159.23"/>
<polygon fill="black" stroke="black" points="1157.72,-162.61 1167.3,-158.09 1156.99,-155.65 1157.72,-162.61"/>
<text text-anchor="middle" x="914" y="-176.5" font-family="Times New Roman,serif" font-size="30.00"> &#160;&#160;75 &#160;&#160;19% &#160;&#160;0.00839 mol/s &#160;&#160;&#160;4.45E&#45;01</text>
</g>
<!-- R6 -->
<g id="node3" class="node">
<title>R6</title>
<g id="a_node3"><a xlink:href="6.svg" xlink:title="R6">
<polygon fill="cornsilk" stroke="none" points="1235,-112 1177,-112 1177,-65 1235,-65 1235,-112"/>
<text text-anchor="middle" x="1206" y="-80" font-family="Times New Roman,serif" font-size="35.00">R6</text>
</a>
</g>
</g>
<!-- R69&#45;&gt;R6 -->
<g id="edge2" class="edge">
<title>R69&#45;&gt;R6</title>
<path fill="none" stroke="black" d="M659.85,-88.5C764,-88.5 1059.87,-88.5 1166.28,-88.5"/>
<polygon fill="black" stroke="black" points="1166.14,-92 1176.14,-88.5 1166.14,-85 1166.14,-92"/>
<text text-anchor="middle" x="914" y="-97.5" font-family="Times New Roman,serif" font-size="30.00"> &#160;&#160;75 &#160;&#160;19% &#160;&#160;0.00839 mol/s &#160;&#160;&#160;4.45E&#45;01</text>
</g>
<!-- R162 -->
<g id="node4" class="node">
<title>R162</title>
<g id="a_node4"><a xlink:href="162.svg" xlink:title="R162">
<polygon fill="cornsilk" stroke="none" points="1253,-47 1159,-47 1159,0 1253,0 1253,-47"/>
<text text-anchor="middle" x="1206" y="-15" font-family="Times New Roman,serif" font-size="35.00">R162</text>
</a>
</g>
</g>
<!-- R69&#45;&gt;R162 -->
<g id="edge3" class="edge">
<title>R69&#45;&gt;R162</title>
<path fill="none" stroke="black" stroke-width="5" d="M651.42,-65.18C659.54,-59.72 668.72,-54.6 678,-51.5 836.27,1.41 1036.09,-6.79 1138.23,-15.93"/>
<polygon fill="black" stroke="black" stroke-width="5" points="1132.33,-24.73 1153.08,-17.94 1134,-7.31 1132.33,-24.73"/>
<text text-anchor="middle" x="914" y="-60.5" font-family="Times New Roman,serif" font-size="30.00"> &#160;&#160;214 &#160;&#160;80% &#160;&#160;0.0342 mol/s &#160;&#160;&#160;1.00E+00</text>
</g>
<!-- R2 -->
<g id="node5" class="node">
<title>R2</title>
<g id="a_node5"><a xlink:href="2.svg" xlink:title="R2">
<polygon fill="cornsilk" stroke="none" points="67,-145 9,-145 9,-98 67,-98 67,-145"/>
<text text-anchor="middle" x="38" y="-113" font-family="Times New Roman,serif" font-size="35.00">R2</text>
</a>
</g>
</g>
<!-- R2&#45;&gt;R69 -->
<g id="edge4" class="edge">
<title>R2&#45;&gt;R69</title>
<path fill="none" stroke="black" stroke-width="6" d="M66.89,-121.72C145.21,-122.03 373.73,-120.9 562,-99.5 562.57,-99.44 563.14,-99.37 563.71,-99.3"/>
<polygon fill="black" stroke="black" stroke-width="6" points="560.1,-109.56 578.3,-96.18 556.95,-88.79 560.1,-109.56"/>
<text text-anchor="middle" x="330" y="-130.5" font-family="Times New Roman,serif" font-size="30.00"> &#160;&#160;241 &#160;&#160;100% &#160;&#160;0.033 mol/s &#160;&#160;&#160;9.68E&#45;01</text>
</g>
<!-- R27 -->
<g id="node6" class="node">
<title>R27</title>
<g id="a_node6"><a xlink:href="27.svg" xlink:title="R27">
<polygon fill="cornsilk" stroke="none" points="76,-80 0,-80 0,-33 76,-33 76,-80"/>
<text text-anchor="middle" x="38" y="-48" font-family="Times New Roman,serif" font-size="35.00">R27</text>
</a>
</g>
</g>
<!-- R27&#45;&gt;R69 -->
<g id="edge5" class="edge">
<title>R27&#45;&gt;R69</title>
<path fill="none" stroke="black" stroke-width="6" d="M75.9,-52.99C161.99,-45.71 382.46,-32.34 562,-66.5 562.68,-66.63 563.37,-66.77 564.06,-66.91"/>
<polygon fill="black" stroke="black" stroke-width="6" points="555.99,-76.24 578.09,-71.58 561.71,-56.03 555.99,-76.24"/>
<text text-anchor="middle" x="330" y="-75.5" font-family="Times New Roman,serif" font-size="30.00"> &#160;&#160;241 &#160;&#160;100% &#160;&#160;0.033 mol/s &#160;&#160;&#160;9.68E&#45;01</text>
</g>
</g>
</svg>
