<?xml version="1.0" encoding="UTF-8" standalone="no"?>
<!DOCTYPE svg PUBLIC "-//W3C//DTD SVG 1.1//EN"
 "http://www.w3.org/Graphics/SVG/1.1/DTD/svg11.dtd">
<!-- Generated by graphviz version 8.0.3 (20230416.2022)
 -->
<!-- Title: G Pages: 1 -->
<svg width="640pt" height="246pt"
 viewBox="0.00 0.00 720.00 276.81" xmlns="http://www.w3.org/2000/svg" xmlns:xlink="http://www.w3.org/1999/xlink">
<g id="graph0" class="graph" transform="scale(0.543755 0.543755) rotate(0) translate(4 448.5)">
<title>G</title>
<polygon fill="white" stroke="none" points="-4,4 -4,-448.5 1173,-448.5 1173,4 -4,4"/>
<text text-anchor="middle" x="584.5" y="-411.7" font-family="Arial" font-size="36.00" fill="blue">Reaction Path Analysis</text>
<!-- R7 -->
<g id="node1" class="node">
<title>R7</title>
<g id="a_node1"><a xlink:href="7.svg" xlink:title="R7">
<polygon fill="cornsilk" stroke="none" points="609,-209 551,-209 551,-162 609,-162 609,-209"/>
<text text-anchor="middle" x="580" y="-177" font-family="Times New Roman,serif" font-size="35.00">R7</text>
</a>
</g>
</g>
<!-- R20 -->
<g id="node4" class="node">
<title>R20</title>
<g id="a_node4"><a xlink:href="20.svg" xlink:title="R20">
<polygon fill="cornsilk" stroke="none" points="1169,-372 1093,-372 1093,-325 1169,-325 1169,-372"/>
<text text-anchor="middle" x="1131" y="-340" font-family="Times New Roman,serif" font-size="35.00">R20</text>
</a>
</g>
</g>
<!-- R7&#45;&gt;R20 -->
<g id="edge3" class="edge">
<title>R7&#45;&gt;R20</title>
<path fill="none" stroke="black" d="M581.03,-208.8C582.47,-241.12 590.4,-298.7 627,-326.5 697.41,-379.98 970.65,-362.67 1082.18,-353.06"/>
<polygon fill="black" stroke="black" points="1082.43,-356.46 1092.09,-352.1 1081.82,-349.49 1082.43,-356.46"/>
<text text-anchor="middle" x="855.5" y="-372.5" font-family="Times New Roman,serif" font-size="30.00"> &#160;&#160;24 &#160;&#160;16% &#160;&#160;0.033 mol/s &#160;&#160;&#160;9.67E&#45;01</text>
</g>
<!-- R35 -->
<g id="node5" class="node">
<title>R35</title>
<g id="a_node5"><a xlink:href="35.svg" xlink:title="R35">
<polygon fill="cornsilk" stroke="none" points="1169,-307 1093,-307 1093,-260 1169,-260 1169,-307"/>
<text text-anchor="middle" x="1131" y="-275" font-family="Times New Roman,serif" font-size="35.00">R35</text>
</a>
</g>
</g>
<!-- R7&#45;&gt;R35 -->
<g id="edge4" class="edge">
<title>R7&#45;&gt;R35</title>
<path fill="none" stroke="black" d="M589.5,-208.98C596.77,-225.35 608.95,-246.05 627,-256.5 703.46,-300.77 972.59,-291.97 1082.6,-286.3"/>
<polygon fill="black" stroke="black" points="1082.56,-289.76 1092.36,-285.73 1082.19,-282.77 1082.56,-289.76"/>
<text text-anchor="middle" x="855.5" y="-299.5" font-family="Times New Roman,serif" font-size="30.00"> &#160;&#160;40 &#160;&#160;16% &#160;&#160;0.0342 mol/s &#160;&#160;&#160;1.00E+00</text>
</g>
<!-- R49 -->
<g id="node6" class="node">
<title>R49</title>
<g id="a_node6"><a xlink:href="49.svg" xlink:title="R49">
<polygon fill="cornsilk" stroke="none" points="1169,-242 1093,-242 1093,-195 1169,-195 1169,-242"/>
<text text-anchor="middle" x="1131" y="-210" font-family="Times New Roman,serif" font-size="35.00">R49</text>
</a>
</g>
</g>
<!-- R7&#45;&gt;R49 -->
<g id="edge5" class="edge">
<title>R7&#45;&gt;R49</title>
<path fill="none" stroke="black" d="M608.57,-193C614.6,-194.38 620.98,-195.66 627,-196.5 793.03,-219.76 992.62,-220.52 1082.28,-219.43"/>
<polygon fill="black" stroke="black" points="1082.22,-222.92 1092.18,-219.28 1082.13,-215.92 1082.22,-222.92"/>
<text text-anchor="middle" x="855.5" y="-228.5" font-family="Times New Roman,serif" font-size="30.00"> &#160;&#160;55 &#160;&#160;16% &#160;&#160;0.0342 mol/s &#160;&#160;&#160;1.00E+00</text>
</g>
<!-- R73 -->
<g id="node7" class="node">
<title>R73</title>
<g id="a_node7"><a xlink:href="73.svg" xlink:title="R73">
<polygon fill="cornsilk" stroke="none" points="1169,-177 1093,-177 1093,-130 1169,-130 1169,-177"/>
<text text-anchor="middle" x="1131" y="-145" font-family="Times New Roman,serif" font-size="35.00">R73</text>
</a>
</g>
</g>
<!-- R7&#45;&gt;R73 -->
<g id="edge6" class="edge">
<title>R7&#45;&gt;R73</title>
<path fill="none" stroke="black" d="M608.52,-170.02C614.45,-167.36 620.8,-164.97 627,-163.5 790.37,-124.73 992.01,-138.55 1082.33,-147.84"/>
<polygon fill="black" stroke="black" points="1081.72,-151.4 1092.04,-148.97 1082.46,-144.44 1081.72,-151.4"/>
<text text-anchor="middle" x="855.5" y="-172.5" font-family="Times New Roman,serif" font-size="30.00"> &#160;&#160;79 &#160;&#160;16% &#160;&#160;0.0342 mol/s &#160;&#160;&#160;1.00E+00</text>
</g>
<!-- R74 -->
<g id="node8" class="node">
<title>R74</title>
<g id="a_node8"><a xlink:href="74.svg" xlink:title="R74">
<polygon fill="cornsilk" stroke="none" points="1169,-112 1093,-112 1093,-65 1169,-65 1169,-112"/>
<text text-anchor="middle" x="1131" y="-80" font-family="Times New Roman,serif" font-size="35.00">R74</text>
</a>
</g>
</g>
<!-- R7&#45;&gt;R74 -->
<g id="edge7" class="edge">
<title>R7&#45;&gt;R74</title>
<path fill="none" stroke="black" d="M586.8,-162.08C593.09,-142.17 605.28,-114.75 627,-101.5 702.34,-55.53 972.11,-74.03 1082.45,-83.87"/>
<polygon fill="black" stroke="black" points="1081.97,-87.43 1092.24,-84.85 1082.6,-80.46 1081.97,-87.43"/>
<text text-anchor="middle" x="855.5" y="-110.5" font-family="Times New Roman,serif" font-size="30.00"> &#160;&#160;80 &#160;&#160;16% &#160;&#160;0.0342 mol/s &#160;&#160;&#160;1.00E+00</text>
</g>
<!-- R75 -->
<g id="node9" class="node">
<title>R75</title>
<g id="a_node9"><a xlink:href="75.svg" xlink:title="R75">
<polygon fill="cornsilk" stroke="none" points="1169,-47 1093,-47 1093,0 1169,0 1169,-47"/>
<text text-anchor="middle" x="1131" y="-15" font-family="Times New Roman,serif" font-size="35.00">R75</text>
</a>
</g>
</g>
<!-- R7&#45;&gt;R75 -->
<g id="edge8" class="edge">
<title>R7&#45;&gt;R75</title>
<path fill="none" stroke="black" d="M580.41,-162.09C580.98,-127.93 587.71,-65.28 627,-35.5 697.42,17.87 970.66,-5.62 1082.19,-17.82"/>
<polygon fill="black" stroke="black" points="1081.76,-21.4 1092.09,-19.03 1082.54,-14.45 1081.76,-21.4"/>
<text text-anchor="middle" x="855.5" y="-44.5" font-family="Times New Roman,serif" font-size="30.00"> &#160;&#160;81 &#160;&#160;16% &#160;&#160;0.0338 mol/s &#160;&#160;&#160;9.90E&#45;01</text>
</g>
<!-- R1 -->
<g id="node2" class="node">
<title>R1</title>
<g id="a_node2"><a xlink:href="1.svg" xlink:title="R1">
<polygon fill="cornsilk" stroke="none" points="58,-242 0,-242 0,-195 58,-195 58,-242"/>
<text text-anchor="middle" x="29" y="-210" font-family="Times New Roman,serif" font-size="35.00">R1</text>
</a>
</g>
</g>
<!-- R1&#45;&gt;R7 -->
<g id="edge1" class="edge">
<title>R1&#45;&gt;R7</title>
<path fill="none" stroke="black" stroke-width="6" d="M57.98,-219.14C131.82,-220.44 338.37,-221.59 530.77,-195.87"/>
<polygon fill="black" stroke="black" stroke-width="6" points="527.07,-206.15 545.43,-193 524.18,-185.35 527.07,-206.15"/>
<text text-anchor="middle" x="304.5" y="-228.5" font-family="Times New Roman,serif" font-size="30.00"> &#160;&#160;7 &#160;&#160;100% &#160;&#160;0.0342 mol/s &#160;&#160;&#160;1.00E+00</text>
</g>
<!-- R3 -->
<g id="node3" class="node">
<title>R3</title>
<g id="a_node3"><a xlink:href="3.svg" xlink:title="R3">
<polygon fill="cornsilk" stroke="none" points="58,-177 0,-177 0,-130 58,-130 58,-177"/>
<text text-anchor="middle" x="29" y="-145" font-family="Times New Roman,serif" font-size="35.00">R3</text>
</a>
</g>
</g>
<!-- R3&#45;&gt;R7 -->
<g id="edge2" class="edge">
<title>R3&#45;&gt;R7</title>
<path fill="none" stroke="black" stroke-width="6" d="M57.78,-150C131.99,-141.47 341.04,-122.9 531.09,-165.22"/>
<polygon fill="black" stroke="black" stroke-width="6" points="523.61,-174.66 545.48,-169.02 528.42,-154.22 523.61,-174.66"/>
<text text-anchor="middle" x="304.5" y="-172.5" font-family="Times New Roman,serif" font-size="30.00"> &#160;&#160;7 &#160;&#160;100% &#160;&#160;0.0342 mol/s &#160;&#160;&#160;1.00E+00</text>
</g>
</g>
</svg>
