<?xml version="1.0" encoding="UTF-8" standalone="no"?>
<!DOCTYPE svg PUBLIC "-//W3C//DTD SVG 1.1//EN"
 "http://www.w3.org/Graphics/SVG/1.1/DTD/svg11.dtd">
<!-- Generated by graphviz version 8.0.3 (20230416.2022)
 -->
<!-- Title: G Pages: 1 -->
<svg width="640pt" height="99pt"
 viewBox="0.00 0.00 720.00 111.19" xmlns="http://www.w3.org/2000/svg" xmlns:xlink="http://www.w3.org/1999/xlink">
<g id="graph0" class="graph" transform="scale(0.878518 0.878518) rotate(0) translate(4 108.5)">
<title>G</title>
<polygon fill="white" stroke="none" points="-4,4 -4,-108.5 724.5,-108.5 724.5,4 -4,4"/>
<text text-anchor="middle" x="360.25" y="-71.7" font-family="Arial" font-size="36.00" fill="blue">Reaction Path Analysis</text>
<!-- CH4 -->
<g id="node1" class="node">
<title>CH4</title>
<g id="a_node1"><a xlink:href="7.svg" xlink:title="CH4">
<polygon fill="none" stroke="none" points="720.5,-47 637.5,-47 637.5,0 720.5,0 720.5,-47"/>
<text text-anchor="middle" x="679" y="-15" font-family="Times New Roman,serif" font-size="35.00">CH4</text>
</a>
</g>
</g>
<!-- CH3(S) -->
<g id="node2" class="node">
<title>CH3(S)</title>
<g id="a_node2"><a xlink:href="55.svg" xlink:title="CH3(S)">
<polygon fill="dodgerblue" stroke="none" points="126,-47 0,-47 0,0 126,0 126,-47"/>
<text text-anchor="middle" x="63" y="-15" font-family="Times New Roman,serif" font-size="35.00">CH3(S)</text>
</a>
</g>
</g>
<!-- CH3(S)&#45;&gt;CH4 -->
<g id="edge1" class="edge">
<title>CH3(S)&#45;&gt;CH4</title>
<path fill="none" stroke="black" stroke-width="6" d="M125.97,-23.5C243.97,-23.5 499.59,-23.5 616.9,-23.5"/>
<polygon fill="black" stroke="black" stroke-width="6" points="611.79,-34 631.79,-23.5 611.79,-13 611.79,-34"/>
<text text-anchor="middle" x="371" y="-32.5" font-family="Times New Roman,serif" font-size="30.00"> &#160;&#160;9 &#160;&#160;100% &#160;&#160;5.45e&#45;06 mol/s &#160;&#160;&#160;3.20E&#45;01</text>
</g>
</g>
</svg>
