<?xml version="1.0" encoding="UTF-8" standalone="no"?>
<!DOCTYPE svg PUBLIC "-//W3C//DTD SVG 1.1//EN"
 "http://www.w3.org/Graphics/SVG/1.1/DTD/svg11.dtd">
<!-- Generated by graphviz version 8.0.3 (20230416.2022)
 -->
<!-- Title: G Pages: 1 -->
<svg width="640pt" height="238pt"
 viewBox="0.00 0.00 720.00 267.90" xmlns="http://www.w3.org/2000/svg" xmlns:xlink="http://www.w3.org/1999/xlink">
<g id="graph0" class="graph" transform="scale(0.524161 0.524161) rotate(0) translate(4 450.31)">
<title>G</title>
<polygon fill="white" stroke="none" points="-4,4 -4,-450.31 1217,-450.31 1217,4 -4,4"/>
<text text-anchor="middle" x="606.5" y="-413.51" font-family="Arial" font-size="36.00" fill="blue">Reaction Path Analysis</text>
<!-- R7 -->
<g id="node1" class="node">
<title>R7</title>
<g id="a_node1"><a xlink:href="7.svg" xlink:title="R7">
<polygon fill="cornsilk" stroke="none" points="631,-209.81 573,-209.81 573,-162.81 631,-162.81 631,-209.81"/>
<text text-anchor="middle" x="602" y="-177.81" font-family="Times New Roman,serif" font-size="35.00">R7</text>
</a>
</g>
</g>
<!-- R20 -->
<g id="node4" class="node">
<title>R20</title>
<g id="a_node4"><a xlink:href="20.svg" xlink:title="R20">
<polygon fill="cornsilk" stroke="none" points="1213,-372.81 1137,-372.81 1137,-325.81 1213,-325.81 1213,-372.81"/>
<text text-anchor="middle" x="1175" y="-340.81" font-family="Times New Roman,serif" font-size="35.00">R20</text>
</a>
</g>
</g>
<!-- R7&#45;&gt;R20 -->
<g id="edge3" class="edge">
<title>R7&#45;&gt;R20</title>
<path fill="none" stroke="black" d="M603.02,-209.62C604.46,-241.95 612.37,-299.54 649,-327.31 722.96,-383.38 1011.01,-364.21 1126.11,-353.99"/>
<polygon fill="black" stroke="black" points="1126.37,-357.39 1136.01,-353 1125.74,-350.42 1126.37,-357.39"/>
<text text-anchor="middle" x="888.5" y="-374.31" font-family="Times New Roman,serif" font-size="30.00"> &#160;&#160;24 &#160;&#160;16% &#160;&#160;2.18e&#45;15 mol/s &#160;&#160;&#160;1.00E+00</text>
</g>
<!-- R35 -->
<g id="node5" class="node">
<title>R35</title>
<g id="a_node5"><a xlink:href="35.svg" xlink:title="R35">
<polygon fill="cornsilk" stroke="none" points="1213,-307.81 1137,-307.81 1137,-260.81 1213,-260.81 1213,-307.81"/>
<text text-anchor="middle" x="1175" y="-275.81" font-family="Times New Roman,serif" font-size="35.00">R35</text>
</a>
</g>
</g>
<!-- R7&#45;&gt;R35 -->
<g id="edge4" class="edge">
<title>R7&#45;&gt;R35</title>
<path fill="none" stroke="black" d="M611.5,-209.8C618.76,-226.17 630.94,-246.88 649,-257.31 729.31,-303.68 1012.99,-293.44 1126.52,-287.25"/>
<polygon fill="black" stroke="black" points="1126.49,-290.7 1136.28,-286.65 1126.1,-283.71 1126.49,-290.7"/>
<text text-anchor="middle" x="888.5" y="-301.31" font-family="Times New Roman,serif" font-size="30.00"> &#160;&#160;40 &#160;&#160;16% &#160;&#160;2.18e&#45;15 mol/s &#160;&#160;&#160;1.00E+00</text>
</g>
<!-- R49 -->
<g id="node6" class="node">
<title>R49</title>
<g id="a_node6"><a xlink:href="49.svg" xlink:title="R49">
<polygon fill="cornsilk" stroke="none" points="1213,-242.81 1137,-242.81 1137,-195.81 1213,-195.81 1213,-242.81"/>
<text text-anchor="middle" x="1175" y="-210.81" font-family="Times New Roman,serif" font-size="35.00">R49</text>
</a>
</g>
</g>
<!-- R7&#45;&gt;R49 -->
<g id="edge5" class="edge">
<title>R7&#45;&gt;R49</title>
<path fill="none" stroke="black" d="M630.57,-193.81C636.6,-195.2 642.98,-196.47 649,-197.31 823.56,-221.6 1033.64,-221.76 1126.22,-220.37"/>
<polygon fill="black" stroke="black" points="1126.24,-223.86 1136.18,-220.19 1126.13,-216.86 1126.24,-223.86"/>
<text text-anchor="middle" x="888.5" y="-229.31" font-family="Times New Roman,serif" font-size="30.00"> &#160;&#160;55 &#160;&#160;16% &#160;&#160;2.18e&#45;15 mol/s &#160;&#160;&#160;1.00E+00</text>
</g>
<!-- R73 -->
<g id="node7" class="node">
<title>R73</title>
<g id="a_node7"><a xlink:href="73.svg" xlink:title="R73">
<polygon fill="cornsilk" stroke="none" points="1213,-177.81 1137,-177.81 1137,-130.81 1213,-130.81 1213,-177.81"/>
<text text-anchor="middle" x="1175" y="-145.81" font-family="Times New Roman,serif" font-size="35.00">R73</text>
</a>
</g>
</g>
<!-- R7&#45;&gt;R73 -->
<g id="edge6" class="edge">
<title>R7&#45;&gt;R73</title>
<path fill="none" stroke="black" d="M630.52,-170.83C636.45,-168.16 642.8,-165.78 649,-164.31 820.76,-123.62 1033.04,-138.76 1126.28,-148.55"/>
<polygon fill="black" stroke="black" points="1125.73,-152.12 1136.05,-149.72 1126.49,-145.16 1125.73,-152.12"/>
<text text-anchor="middle" x="888.5" y="-173.31" font-family="Times New Roman,serif" font-size="30.00"> &#160;&#160;79 &#160;&#160;16% &#160;&#160;2.18e&#45;15 mol/s &#160;&#160;&#160;1.00E+00</text>
</g>
<!-- R74 -->
<g id="node8" class="node">
<title>R74</title>
<g id="a_node8"><a xlink:href="74.svg" xlink:title="R74">
<polygon fill="cornsilk" stroke="none" points="1213,-112.81 1137,-112.81 1137,-65.81 1213,-65.81 1213,-112.81"/>
<text text-anchor="middle" x="1175" y="-80.81" font-family="Times New Roman,serif" font-size="35.00">R74</text>
</a>
</g>
</g>
<!-- R7&#45;&gt;R74 -->
<g id="edge7" class="edge">
<title>R7&#45;&gt;R74</title>
<path fill="none" stroke="black" d="M608.59,-163C614.79,-142.81 626.95,-114.79 649,-101.31 728.04,-52.98 1012.46,-73.82 1126.35,-84.47"/>
<polygon fill="black" stroke="black" points="1125.86,-88.03 1136.15,-85.49 1126.53,-81.06 1125.86,-88.03"/>
<text text-anchor="middle" x="888.5" y="-110.31" font-family="Times New Roman,serif" font-size="30.00"> &#160;&#160;80 &#160;&#160;16% &#160;&#160;2.18e&#45;15 mol/s &#160;&#160;&#160;1.00E+00</text>
</g>
<!-- R75 -->
<g id="node9" class="node">
<title>R75</title>
<g id="a_node9"><a xlink:href="75.svg" xlink:title="R75">
<polygon fill="cornsilk" stroke="none" points="1213,-47.81 1137,-47.81 1137,-0.81 1213,-0.81 1213,-47.81"/>
<text text-anchor="middle" x="1175" y="-15.81" font-family="Times New Roman,serif" font-size="35.00">R75</text>
</a>
</g>
</g>
<!-- R7&#45;&gt;R75 -->
<g id="edge8" class="edge">
<title>R7&#45;&gt;R75</title>
<path fill="none" stroke="black" d="M602.28,-162.86C602.66,-128.29 609.1,-64.51 649,-34.31 722.95,21.67 1011.01,-5.02 1126.1,-18.33"/>
<polygon fill="black" stroke="black" points="1125.67,-21.92 1136.01,-19.61 1126.49,-14.97 1125.67,-21.92"/>
<text text-anchor="middle" x="888.5" y="-43.31" font-family="Times New Roman,serif" font-size="30.00"> &#160;&#160;81 &#160;&#160;16% &#160;&#160;2.18e&#45;15 mol/s &#160;&#160;&#160;1.00E+00</text>
</g>
<!-- R1 -->
<g id="node2" class="node">
<title>R1</title>
<g id="a_node2"><a xlink:href="1.svg" xlink:title="R1">
<polygon fill="cornsilk" stroke="none" points="58,-242.81 0,-242.81 0,-195.81 58,-195.81 58,-242.81"/>
<text text-anchor="middle" x="29" y="-210.81" font-family="Times New Roman,serif" font-size="35.00">R1</text>
</a>
</g>
</g>
<!-- R1&#45;&gt;R7 -->
<g id="edge1" class="edge">
<title>R1&#45;&gt;R7</title>
<path fill="none" stroke="black" stroke-width="6" d="M57.78,-220.02C133.68,-221.57 351.27,-223.43 552.74,-196.67"/>
<polygon fill="black" stroke="black" stroke-width="6" points="549.06,-206.95 567.43,-193.81 546.19,-186.15 549.06,-206.95"/>
<text text-anchor="middle" x="315.5" y="-229.31" font-family="Times New Roman,serif" font-size="30.00"> &#160;&#160;7 &#160;&#160;100% &#160;&#160;2.18e&#45;15 mol/s &#160;&#160;&#160;1.00E+00</text>
</g>
<!-- R3 -->
<g id="node3" class="node">
<title>R3</title>
<g id="a_node3"><a xlink:href="3.svg" xlink:title="R3">
<polygon fill="cornsilk" stroke="none" points="58,-177.81 0,-177.81 0,-130.81 58,-130.81 58,-177.81"/>
<text text-anchor="middle" x="29" y="-145.81" font-family="Times New Roman,serif" font-size="35.00">R3</text>
</a>
</g>
</g>
<!-- R3&#45;&gt;R7 -->
<g id="edge2" class="edge">
<title>R3&#45;&gt;R7</title>
<path fill="none" stroke="black" stroke-width="6" d="M57.84,-150.75C134.37,-141.82 354.32,-121.78 553.08,-166.04"/>
<polygon fill="black" stroke="black" stroke-width="6" points="545.61,-175.48 567.48,-169.83 550.41,-155.03 545.61,-175.48"/>
<text text-anchor="middle" x="315.5" y="-173.31" font-family="Times New Roman,serif" font-size="30.00"> &#160;&#160;7 &#160;&#160;100% &#160;&#160;2.18e&#45;15 mol/s &#160;&#160;&#160;1.00E+00</text>
</g>
</g>
</svg>
