<?xml version="1.0" encoding="UTF-8" standalone="no"?>
<!DOCTYPE svg PUBLIC "-//W3C//DTD SVG 1.1//EN"
 "http://www.w3.org/Graphics/SVG/1.1/DTD/svg11.dtd">
<!-- Generated by graphviz version 8.0.3 (20230416.2022)
 -->
<!-- Title: G Pages: 1 -->
<svg width="640pt" height="211pt"
 viewBox="0.00 0.00 720.00 237.35" xmlns="http://www.w3.org/2000/svg" xmlns:xlink="http://www.w3.org/1999/xlink">
<g id="graph0" class="graph" transform="scale(0.490421 0.490421) rotate(0) translate(4 426.19)">
<title>G</title>
<polygon fill="white" stroke="none" points="-4,4 -4,-426.19 1301,-426.19 1301,4 -4,4"/>
<text text-anchor="middle" x="648.5" y="-389.39" font-family="Arial" font-size="36.00" fill="blue">Reaction Path Analysis</text>
<!-- R70 -->
<g id="node1" class="node">
<title>R70</title>
<g id="a_node1"><a xlink:href="70.svg" xlink:title="R70">
<polygon fill="cornsilk" stroke="none" points="682,-201.69 606,-201.69 606,-154.69 682,-154.69 682,-201.69"/>
<text text-anchor="middle" x="644" y="-169.69" font-family="Times New Roman,serif" font-size="35.00">R70</text>
</a>
</g>
</g>
<!-- R103 -->
<g id="node6" class="node">
<title>R103</title>
<g id="a_node6"><a xlink:href="103.svg" xlink:title="R103">
<polygon fill="cornsilk" stroke="none" points="1297,-350.69 1203,-350.69 1203,-303.69 1297,-303.69 1297,-350.69"/>
<text text-anchor="middle" x="1250" y="-318.69" font-family="Times New Roman,serif" font-size="35.00">R103</text>
</a>
</g>
</g>
<!-- R70&#45;&gt;R103 -->
<g id="edge5" class="edge">
<title>R70&#45;&gt;R103</title>
<path fill="none" stroke="black" stroke-width="3" d="M647.88,-201.54C652.85,-230.81 666.05,-279.97 700,-303.19 778.63,-356.99 1068.72,-341.45 1192.47,-332.02"/>
<polygon fill="black" stroke="black" stroke-width="3" points="1189.51,-335.45 1199.21,-331.19 1188.97,-328.47 1189.51,-335.45"/>
<text text-anchor="middle" x="947" y="-350.19" font-family="Times New Roman,serif" font-size="30.00"> &#160;&#160;136 &#160;&#160;49% &#160;&#160;2.18e&#45;15 mol/s &#160;&#160;&#160;1.00E+00</text>
</g>
<!-- R104 -->
<g id="node7" class="node">
<title>R104</title>
<g id="a_node7"><a xlink:href="104.svg" xlink:title="R104">
<polygon fill="cornsilk" stroke="none" points="1297,-285.69 1203,-285.69 1203,-238.69 1297,-238.69 1297,-285.69"/>
<text text-anchor="middle" x="1250" y="-253.69" font-family="Times New Roman,serif" font-size="35.00">R104</text>
</a>
</g>
</g>
<!-- R70&#45;&gt;R104 -->
<g id="edge6" class="edge">
<title>R70&#45;&gt;R104</title>
<path fill="none" stroke="black" stroke-width="3" d="M661.59,-201.55C671.32,-213.26 684.7,-226.38 700,-233.19 786.77,-271.85 1070.47,-267.93 1192.44,-264.27"/>
<polygon fill="black" stroke="black" stroke-width="3" points="1189.49,-267.74 1199.38,-263.93 1189.27,-260.74 1189.49,-267.74"/>
<text text-anchor="middle" x="947" y="-275.19" font-family="Times New Roman,serif" font-size="30.00"> &#160;&#160;137 &#160;&#160;49% &#160;&#160;2.18e&#45;15 mol/s &#160;&#160;&#160;1.00E+00</text>
</g>
<!-- R76 -->
<g id="node8" class="node">
<title>R76</title>
<g id="a_node8"><a xlink:href="76.svg" xlink:title="R76">
<polygon fill="cornsilk" stroke="none" points="1288,-197.69 1212,-197.69 1212,-150.69 1288,-150.69 1288,-197.69"/>
<text text-anchor="middle" x="1250" y="-165.69" font-family="Times New Roman,serif" font-size="35.00">R76</text>
</a>
</g>
</g>
<!-- R70&#45;&gt;R76 -->
<g id="edge7" class="edge">
<title>R70&#45;&gt;R76</title>
<path fill="none" stroke="black" d="M681.94,-182.78C687.96,-183.37 694.15,-183.88 700,-184.19 919.23,-196.12 975.33,-203.91 1194,-184.19 1196.4,-183.98 1198.84,-183.71 1201.31,-183.4"/>
<polygon fill="black" stroke="black" points="1201.75,-186.73 1211.14,-181.84 1200.75,-179.8 1201.75,-186.73"/>
<text text-anchor="middle" x="947" y="-205.19" font-family="Times New Roman,serif" font-size="30.00"> &#160;&#160;454 &#160;&#160;0% &#160;&#160;2.2e&#45;26 mol/s &#160;&#160;&#160;9.99E&#45;01</text>
</g>
<!-- R70&#45;&gt;R76 -->
<g id="edge9" class="edge">
<title>R70&#45;&gt;R76</title>
<path fill="none" stroke="black" d="M680.56,-154.74C686.81,-151.63 693.43,-148.92 700,-147.19 753.09,-133.26 1140.53,-134.78 1194,-147.19 1196.67,-147.82 1199.37,-148.59 1202.05,-149.47"/>
<polygon fill="black" stroke="black" points="1200.69,-153.07 1211.28,-153.36 1203.18,-146.53 1200.69,-153.07"/>
<text text-anchor="middle" x="947" y="-156.19" font-family="Times New Roman,serif" font-size="30.00"> &#160;&#160;461 &#160;&#160;0% &#160;&#160;4.27e&#45;23 mol/s &#160;&#160;&#160;5.15E&#45;04</text>
</g>
<!-- R140 -->
<g id="node9" class="node">
<title>R140</title>
<g id="a_node9"><a xlink:href="140.svg" xlink:title="R140">
<polygon fill="cornsilk" stroke="none" points="1297,-89.69 1203,-89.69 1203,-42.69 1297,-42.69 1297,-89.69"/>
<text text-anchor="middle" x="1250" y="-57.69" font-family="Times New Roman,serif" font-size="35.00">R140</text>
</a>
</g>
</g>
<!-- R70&#45;&gt;R140 -->
<g id="edge8" class="edge">
<title>R70&#45;&gt;R140</title>
<path fill="none" stroke="black" d="M654.48,-154.98C663.32,-136.63 678.41,-112.17 700,-100.19 745.86,-74.74 1104.03,-76.5 1192.3,-72.07"/>
<polygon fill="black" stroke="black" points="1192.34,-75.51 1202.1,-71.38 1191.9,-68.52 1192.34,-75.51"/>
<text text-anchor="middle" x="947" y="-109.19" font-family="Times New Roman,serif" font-size="30.00"> &#160;&#160;455 &#160;&#160;0% &#160;&#160;2.2e&#45;26 mol/s &#160;&#160;&#160;9.98E&#45;01</text>
</g>
<!-- R70&#45;&gt;R140 -->
<g id="edge10" class="edge">
<title>R70&#45;&gt;R140</title>
<path fill="none" stroke="black" d="M646.26,-154.76C649.44,-121.65 660.64,-62.23 700,-35.19 790.49,26.95 1087.82,-7.33 1194,-35.19 1197.18,-36.03 1200.38,-37.1 1203.54,-38.33"/>
<polygon fill="black" stroke="black" points="1201.88,-41.87 1212.44,-42.74 1204.73,-35.47 1201.88,-41.87"/>
<text text-anchor="middle" x="947" y="-44.19" font-family="Times New Roman,serif" font-size="30.00"> &#160;&#160;666 &#160;&#160;0% &#160;&#160;1.16e&#45;23 mol/s &#160;&#160;&#160;1.89E&#45;03</text>
</g>
<!-- R6 -->
<g id="node2" class="node">
<title>R6</title>
<g id="a_node2"><a xlink:href="6.svg" xlink:title="R6">
<polygon fill="cornsilk" stroke="none" points="67,-299.69 9,-299.69 9,-252.69 67,-252.69 67,-299.69"/>
<text text-anchor="middle" x="38" y="-267.69" font-family="Times New Roman,serif" font-size="35.00">R6</text>
</a>
</g>
</g>
<!-- R6&#45;&gt;R70 -->
<g id="edge1" class="edge">
<title>R6&#45;&gt;R70</title>
<path fill="none" stroke="black" stroke-width="3" d="M66.75,-282.37C150.96,-299.58 408.77,-341.03 588,-248.19 603.99,-239.91 616.81,-224.68 626.04,-210.53"/>
<polygon fill="black" stroke="black" stroke-width="3" points="627.35,-214.83 629.59,-204.47 621.38,-211.17 627.35,-214.83"/>
<text text-anchor="middle" x="341" y="-315.19" font-family="Times New Roman,serif" font-size="30.00"> &#160;&#160;76 &#160;&#160;50% &#160;&#160;2.18e&#45;15 mol/s &#160;&#160;&#160;1.00E+00</text>
</g>
<!-- R14 -->
<g id="node3" class="node">
<title>R14</title>
<g id="a_node3"><a xlink:href="14.svg" xlink:title="R14">
<polygon fill="cornsilk" stroke="none" points="76,-234.69 0,-234.69 0,-187.69 76,-187.69 76,-234.69"/>
<text text-anchor="middle" x="38" y="-202.69" font-family="Times New Roman,serif" font-size="35.00">R14</text>
</a>
</g>
</g>
<!-- R14&#45;&gt;R70 -->
<g id="edge2" class="edge">
<title>R14&#45;&gt;R70</title>
<path fill="none" stroke="black" stroke-width="3" d="M75.78,-211.71C164.32,-212.52 396.2,-212.07 588,-189.19 590.4,-188.91 592.84,-188.58 595.31,-188.21"/>
<polygon fill="black" stroke="black" stroke-width="3" points="592.86,-191.5 602.15,-186.39 591.71,-184.59 592.86,-191.5"/>
<text text-anchor="middle" x="341" y="-220.19" font-family="Times New Roman,serif" font-size="30.00"> &#160;&#160;76 &#160;&#160;50% &#160;&#160;2.18e&#45;15 mol/s &#160;&#160;&#160;1.00E+00</text>
</g>
<!-- R0 -->
<g id="node4" class="node">
<title>R0</title>
<g id="a_node4"><a xlink:href="0.svg" xlink:title="R0">
<polygon fill="cornsilk" stroke="none" points="67,-169.69 9,-169.69 9,-122.69 67,-122.69 67,-169.69"/>
<text text-anchor="middle" x="38" y="-137.69" font-family="Times New Roman,serif" font-size="35.00">R0</text>
</a>
</g>
</g>
<!-- R0&#45;&gt;R70 -->
<g id="edge3" class="edge">
<title>R0&#45;&gt;R70</title>
<path fill="none" stroke="black" stroke-width="3" d="M66.8,-143.21C148.05,-135.22 391.78,-116.55 588,-156.19 590.65,-156.73 593.33,-157.39 596.01,-158.13"/>
<polygon fill="black" stroke="black" stroke-width="3" points="591.69,-160.7 602.28,-160.4 593.82,-154.03 591.69,-160.7"/>
<text text-anchor="middle" x="341" y="-165.19" font-family="Times New Roman,serif" font-size="30.00"> &#160;&#160;134 &#160;&#160;50% &#160;&#160;2.18e&#45;15 mol/s &#160;&#160;&#160;1.00E+00</text>
</g>
<!-- R68 -->
<g id="node5" class="node">
<title>R68</title>
<g id="a_node5"><a xlink:href="68.svg" xlink:title="R68">
<polygon fill="cornsilk" stroke="none" points="76,-104.69 0,-104.69 0,-57.69 76,-57.69 76,-104.69"/>
<text text-anchor="middle" x="38" y="-72.69" font-family="Times New Roman,serif" font-size="35.00">R68</text>
</a>
</g>
</g>
<!-- R68&#45;&gt;R70 -->
<g id="edge4" class="edge">
<title>R68&#45;&gt;R70</title>
<path fill="none" stroke="black" stroke-width="3" d="M75.69,-71.14C168.5,-47.9 417.38,0.65 588,-94.19 607.8,-105.2 621.67,-126.67 630.53,-145.15"/>
<polygon fill="black" stroke="black" stroke-width="3" points="626.66,-143.33 633.94,-151.03 633.05,-140.47 626.66,-143.33"/>
<text text-anchor="middle" x="341" y="-103.19" font-family="Times New Roman,serif" font-size="30.00"> &#160;&#160;134 &#160;&#160;50% &#160;&#160;2.18e&#45;15 mol/s &#160;&#160;&#160;1.00E+00</text>
</g>
</g>
</svg>
