<?xml version="1.0" encoding="UTF-8" standalone="no"?>
<!DOCTYPE svg PUBLIC "-//W3C//DTD SVG 1.1//EN"
 "http://www.w3.org/Graphics/SVG/1.1/DTD/svg11.dtd">
<!-- Generated by graphviz version 8.0.3 (20230416.2022)
 -->
<!-- Title: G Pages: 1 -->
<svg width="640pt" height="217pt"
 viewBox="0.00 0.00 720.00 243.59" xmlns="http://www.w3.org/2000/svg" xmlns:xlink="http://www.w3.org/1999/xlink">
<g id="graph0" class="graph" transform="scale(0.507534 0.507534) rotate(0) translate(4 422.63)">
<title>G</title>
<polygon fill="white" stroke="none" points="-4,4 -4,-422.63 1257,-422.63 1257,4 -4,4"/>
<text text-anchor="middle" x="626.5" y="-385.83" font-family="Arial" font-size="36.00" fill="blue">Reaction Path Analysis</text>
<!-- R70 -->
<g id="node1" class="node">
<title>R70</title>
<g id="a_node1"><a xlink:href="70.svg" xlink:title="R70">
<polygon fill="cornsilk" stroke="none" points="660,-200.13 584,-200.13 584,-153.13 660,-153.13 660,-200.13"/>
<text text-anchor="middle" x="622" y="-168.13" font-family="Times New Roman,serif" font-size="35.00">R70</text>
</a>
</g>
</g>
<!-- R103 -->
<g id="node6" class="node">
<title>R103</title>
<g id="a_node6"><a xlink:href="103.svg" xlink:title="R103">
<polygon fill="cornsilk" stroke="none" points="1253,-349.13 1159,-349.13 1159,-302.13 1253,-302.13 1253,-349.13"/>
<text text-anchor="middle" x="1206" y="-317.13" font-family="Times New Roman,serif" font-size="35.00">R103</text>
</a>
</g>
</g>
<!-- R70&#45;&gt;R103 -->
<g id="edge5" class="edge">
<title>R70&#45;&gt;R103</title>
<path fill="none" stroke="black" d="M625.99,-200.02C631.08,-229.07 644.38,-277.61 678,-300.63 753.03,-352 1028.69,-338.72 1148.63,-330.18"/>
<polygon fill="black" stroke="black" points="1148.68,-333.61 1158.4,-329.39 1148.17,-326.63 1148.68,-333.61"/>
<text text-anchor="middle" x="914" y="-346.63" font-family="Times New Roman,serif" font-size="30.00"> &#160;&#160;136 &#160;&#160;10% &#160;&#160;0.0342 mol/s &#160;&#160;&#160;1.00E+00</text>
</g>
<!-- R104 -->
<g id="node7" class="node">
<title>R104</title>
<g id="a_node7"><a xlink:href="104.svg" xlink:title="R104">
<polygon fill="cornsilk" stroke="none" points="1253,-284.13 1159,-284.13 1159,-237.13 1253,-237.13 1253,-284.13"/>
<text text-anchor="middle" x="1206" y="-252.13" font-family="Times New Roman,serif" font-size="35.00">R104</text>
</a>
</g>
</g>
<!-- R70&#45;&gt;R104 -->
<g id="edge6" class="edge">
<title>R70&#45;&gt;R104</title>
<path fill="none" stroke="black" d="M640.16,-200.09C649.88,-211.45 663.07,-224.02 678,-230.63 760.81,-267.27 1029.83,-265.21 1148.21,-262.37"/>
<polygon fill="black" stroke="black" points="1148.27,-265.85 1158.18,-262.1 1148.1,-258.85 1148.27,-265.85"/>
<text text-anchor="middle" x="914" y="-272.63" font-family="Times New Roman,serif" font-size="30.00"> &#160;&#160;137 &#160;&#160;10% &#160;&#160;0.0342 mol/s &#160;&#160;&#160;1.00E+00</text>
</g>
<!-- R76 -->
<g id="node8" class="node">
<title>R76</title>
<g id="a_node8"><a xlink:href="76.svg" xlink:title="R76">
<polygon fill="cornsilk" stroke="none" points="1244,-196.13 1168,-196.13 1168,-149.13 1244,-149.13 1244,-196.13"/>
<text text-anchor="middle" x="1206" y="-164.13" font-family="Times New Roman,serif" font-size="35.00">R76</text>
</a>
</g>
</g>
<!-- R70&#45;&gt;R76 -->
<g id="edge7" class="edge">
<title>R70&#45;&gt;R76</title>
<path fill="none" stroke="black" d="M659.94,-181.21C665.96,-181.8 672.15,-182.31 678,-182.63 887.47,-194.02 941.07,-201.47 1150,-182.63 1152.4,-182.41 1154.84,-182.14 1157.31,-181.84"/>
<polygon fill="black" stroke="black" points="1157.75,-185.16 1167.14,-180.27 1156.75,-178.24 1157.75,-185.16"/>
<text text-anchor="middle" x="914" y="-202.63" font-family="Times New Roman,serif" font-size="30.00"> &#160;&#160;454 &#160;&#160;0% &#160;&#160;0.00267 mol/s &#160;&#160;&#160;9.83E&#45;01</text>
</g>
<!-- R70&#45;&gt;R76 -->
<g id="edge9" class="edge">
<title>R70&#45;&gt;R76</title>
<path fill="none" stroke="black" stroke-width="3" d="M658.56,-153.17C664.81,-150.06 671.43,-147.35 678,-145.63 779.45,-119 1047.83,-121.9 1150,-145.63 1152.67,-146.25 1155.37,-147.02 1158.05,-147.9"/>
<polygon fill="black" stroke="black" stroke-width="3" points="1153.69,-150.51 1164.28,-150.79 1156.18,-143.96 1153.69,-150.51"/>
<text text-anchor="middle" x="914" y="-154.63" font-family="Times New Roman,serif" font-size="30.00"> &#160;&#160;461 &#160;&#160;44% &#160;&#160;0.15 mol/s &#160;&#160;&#160;1.74E&#45;02</text>
</g>
<!-- R140 -->
<g id="node9" class="node">
<title>R140</title>
<g id="a_node9"><a xlink:href="140.svg" xlink:title="R140">
<polygon fill="cornsilk" stroke="none" points="1253,-88.13 1159,-88.13 1159,-41.13 1253,-41.13 1253,-88.13"/>
<text text-anchor="middle" x="1206" y="-56.13" font-family="Times New Roman,serif" font-size="35.00">R140</text>
</a>
</g>
</g>
<!-- R70&#45;&gt;R140 -->
<g id="edge8" class="edge">
<title>R70&#45;&gt;R140</title>
<path fill="none" stroke="black" d="M630.73,-153.15C638.91,-132.45 654.01,-103.48 678,-89.63 721.28,-64.64 1062.6,-73.55 1148.21,-70.44"/>
<polygon fill="black" stroke="black" points="1148.3,-73.89 1158.11,-69.87 1147.94,-66.89 1148.3,-73.89"/>
<text text-anchor="middle" x="914" y="-98.63" font-family="Times New Roman,serif" font-size="30.00"> &#160;&#160;455 &#160;&#160;0% &#160;&#160;0.00265 mol/s &#160;&#160;&#160;9.77E&#45;01</text>
</g>
<!-- R70&#45;&gt;R140 -->
<g id="edge10" class="edge">
<title>R70&#45;&gt;R140</title>
<path fill="none" stroke="black" stroke-width="2" d="M624.26,-153.19C627.44,-120.09 638.64,-60.66 678,-33.63 764.46,25.75 1048.55,-7 1150,-33.63 1153.18,-34.46 1156.38,-35.53 1159.54,-36.76"/>
<polygon fill="black" stroke="black" stroke-width="2" points="1156.88,-39.3 1167.44,-40.17 1159.73,-32.91 1156.88,-39.3"/>
<text text-anchor="middle" x="914" y="-42.63" font-family="Times New Roman,serif" font-size="30.00"> &#160;&#160;666 &#160;&#160;33% &#160;&#160;0.112 mol/s &#160;&#160;&#160;2.32E&#45;02</text>
</g>
<!-- R6 -->
<g id="node2" class="node">
<title>R6</title>
<g id="a_node2"><a xlink:href="6.svg" xlink:title="R6">
<polygon fill="cornsilk" stroke="none" points="67,-298.13 9,-298.13 9,-251.13 67,-251.13 67,-298.13"/>
<text text-anchor="middle" x="38" y="-266.13" font-family="Times New Roman,serif" font-size="35.00">R6</text>
</a>
</g>
</g>
<!-- R6&#45;&gt;R70 -->
<g id="edge1" class="edge">
<title>R6&#45;&gt;R70</title>
<path fill="none" stroke="black" stroke-width="3" d="M66.8,-280.71C148.84,-297.15 394.84,-335.51 566,-246.63 581.98,-238.33 594.8,-223.09 604.03,-208.95"/>
<polygon fill="black" stroke="black" stroke-width="3" points="605.34,-213.25 607.58,-202.89 599.37,-209.59 605.34,-213.25"/>
<text text-anchor="middle" x="330" y="-311.63" font-family="Times New Roman,serif" font-size="30.00"> &#160;&#160;76 &#160;&#160;50% &#160;&#160;0.0342 mol/s &#160;&#160;&#160;1.00E+00</text>
</g>
<!-- R14 -->
<g id="node3" class="node">
<title>R14</title>
<g id="a_node3"><a xlink:href="14.svg" xlink:title="R14">
<polygon fill="cornsilk" stroke="none" points="76,-233.13 0,-233.13 0,-186.13 76,-186.13 76,-233.13"/>
<text text-anchor="middle" x="38" y="-201.13" font-family="Times New Roman,serif" font-size="35.00">R14</text>
</a>
</g>
</g>
<!-- R14&#45;&gt;R70 -->
<g id="edge2" class="edge">
<title>R14&#45;&gt;R70</title>
<path fill="none" stroke="black" stroke-width="3" d="M75.9,-210.05C162.05,-210.63 383.03,-209.61 566,-187.63 568.4,-187.34 570.84,-187 573.31,-186.63"/>
<polygon fill="black" stroke="black" stroke-width="3" points="570.86,-189.92 580.15,-184.82 569.7,-183.02 570.86,-189.92"/>
<text text-anchor="middle" x="330" y="-218.63" font-family="Times New Roman,serif" font-size="30.00"> &#160;&#160;76 &#160;&#160;50% &#160;&#160;0.0342 mol/s &#160;&#160;&#160;1.00E+00</text>
</g>
<!-- R0 -->
<g id="node4" class="node">
<title>R0</title>
<g id="a_node4"><a xlink:href="0.svg" xlink:title="R0">
<polygon fill="cornsilk" stroke="none" points="67,-168.13 9,-168.13 9,-121.13 67,-121.13 67,-168.13"/>
<text text-anchor="middle" x="38" y="-136.13" font-family="Times New Roman,serif" font-size="35.00">R0</text>
</a>
</g>
</g>
<!-- R0&#45;&gt;R70 -->
<g id="edge3" class="edge">
<title>R0&#45;&gt;R70</title>
<path fill="none" stroke="black" stroke-width="3" d="M66.81,-141.68C145.91,-134.03 378.55,-116.68 566,-154.63 568.65,-155.16 571.33,-155.82 574.01,-156.57"/>
<polygon fill="black" stroke="black" stroke-width="3" points="569.69,-159.14 580.28,-158.84 571.82,-152.47 569.69,-159.14"/>
<text text-anchor="middle" x="330" y="-163.63" font-family="Times New Roman,serif" font-size="30.00"> &#160;&#160;134 &#160;&#160;50% &#160;&#160;0.0342 mol/s &#160;&#160;&#160;1.00E+00</text>
</g>
<!-- R68 -->
<g id="node5" class="node">
<title>R68</title>
<g id="a_node5"><a xlink:href="68.svg" xlink:title="R68">
<polygon fill="cornsilk" stroke="none" points="76,-103.13 0,-103.13 0,-56.13 76,-56.13 76,-103.13"/>
<text text-anchor="middle" x="38" y="-71.13" font-family="Times New Roman,serif" font-size="35.00">R68</text>
</a>
</g>
</g>
<!-- R68&#45;&gt;R70 -->
<g id="edge4" class="edge">
<title>R68&#45;&gt;R70</title>
<path fill="none" stroke="black" stroke-width="3" d="M75.85,-69.76C166.17,-47.75 403.09,-3.34 566,-93.63 585.43,-104.39 599.21,-125.26 608.12,-143.38"/>
<polygon fill="black" stroke="black" stroke-width="3" points="604.34,-141.72 611.69,-149.36 610.71,-138.81 604.34,-141.72"/>
<text text-anchor="middle" x="330" y="-102.63" font-family="Times New Roman,serif" font-size="30.00"> &#160;&#160;134 &#160;&#160;50% &#160;&#160;0.0342 mol/s &#160;&#160;&#160;1.00E+00</text>
</g>
</g>
</svg>
