<?xml version="1.0" encoding="UTF-8" standalone="no"?>
<!DOCTYPE svg PUBLIC "-//W3C//DTD SVG 1.1//EN"
 "http://www.w3.org/Graphics/SVG/1.1/DTD/svg11.dtd">
<!-- Generated by graphviz version 8.0.3 (20230416.2022)
 -->
<!-- Title: G Pages: 1 -->
<svg width="544pt" height="313pt"
 viewBox="0.00 0.00 612.00 352.28" xmlns="http://www.w3.org/2000/svg" xmlns:xlink="http://www.w3.org/1999/xlink">
<g id="graph0" class="graph" transform="scale(0.888889 0.888889) rotate(0) translate(4 348.28)">
<title>G</title>
<polygon fill="white" stroke="none" points="-4,4 -4,-348.28 608,-348.28 608,4 -4,4"/>
<text text-anchor="middle" x="302" y="-311.48" font-family="Arial" font-size="36.00" fill="blue">Reaction Path Analysis</text>
<!-- R72 -->
<g id="node1" class="node">
<title>R72</title>
<g id="a_node1"><a xlink:href="72.svg" xlink:title="R72">
<polygon fill="cornsilk" stroke="none" points="76,-160.78 0,-160.78 0,-113.78 76,-113.78 76,-160.78"/>
<text text-anchor="middle" x="38" y="-128.78" font-family="Times New Roman,serif" font-size="35.00">R72</text>
</a>
</g>
</g>
<!-- R14 -->
<g id="node2" class="node">
<title>R14</title>
<g id="a_node2"><a xlink:href="14.svg" xlink:title="R14">
<polygon fill="cornsilk" stroke="none" points="604,-258.78 528,-258.78 528,-211.78 604,-211.78 604,-258.78"/>
<text text-anchor="middle" x="566" y="-226.78" font-family="Times New Roman,serif" font-size="35.00">R14</text>
</a>
</g>
</g>
<!-- R72&#45;&gt;R14 -->
<g id="edge1" class="edge">
<title>R72&#45;&gt;R14</title>
<path fill="none" stroke="black" stroke-width="5" d="M47.76,-160.75C55.09,-176.83 67.25,-197.02 85,-207.28 219.64,-285.06 412.49,-264.47 507.54,-247.49"/>
<polygon fill="black" stroke="black" stroke-width="5" points="504.15,-256.9 522.17,-244.58 500.89,-239.7 504.15,-256.9"/>
<text text-anchor="middle" x="302" y="-272.28" font-family="Times New Roman,serif" font-size="30.00"> &#160;&#160;78 &#160;&#160;97% &#160;&#160;134.0 mol/s &#160;&#160;&#160;2.55E&#45;04</text>
</g>
<!-- R6 -->
<g id="node3" class="node">
<title>R6</title>
<g id="a_node3"><a xlink:href="6.svg" xlink:title="R6">
<polygon fill="cornsilk" stroke="none" points="595,-193.78 537,-193.78 537,-146.78 595,-146.78 595,-193.78"/>
<text text-anchor="middle" x="566" y="-161.78" font-family="Times New Roman,serif" font-size="35.00">R6</text>
</a>
</g>
</g>
<!-- R72&#45;&gt;R6 -->
<g id="edge2" class="edge">
<title>R72&#45;&gt;R6</title>
<path fill="none" stroke="black" stroke-width="5" d="M75.79,-146.72C78.89,-147.32 81.99,-147.85 85,-148.28 241.58,-170.39 429.46,-171.82 516.43,-171.07"/>
<polygon fill="black" stroke="black" stroke-width="5" points="511.34,-179.81 531.23,-170.83 511.13,-162.31 511.34,-179.81"/>
<text text-anchor="middle" x="302" y="-179.28" font-family="Times New Roman,serif" font-size="30.00"> &#160;&#160;78 &#160;&#160;97% &#160;&#160;134.0 mol/s &#160;&#160;&#160;2.55E&#45;04</text>
</g>
<!-- R2 -->
<g id="node4" class="node">
<title>R2</title>
<g id="a_node4"><a xlink:href="2.svg" xlink:title="R2">
<polygon fill="cornsilk" stroke="none" points="595,-128.78 537,-128.78 537,-81.78 595,-81.78 595,-128.78"/>
<text text-anchor="middle" x="566" y="-96.78" font-family="Times New Roman,serif" font-size="35.00">R2</text>
</a>
</g>
</g>
<!-- R72&#45;&gt;R2 -->
<g id="edge3" class="edge">
<title>R72&#45;&gt;R2</title>
<path fill="none" stroke="black" d="M75.92,-118C78.94,-116.93 81.99,-115.99 85,-115.28 245.12,-77.2 443.81,-91.91 526.3,-100.63"/>
<polygon fill="black" stroke="black" points="525.83,-104.21 536.15,-101.82 526.59,-97.25 525.83,-104.21"/>
<text text-anchor="middle" x="302" y="-124.28" font-family="Times New Roman,serif" font-size="30.00"> &#160;&#160;247 &#160;&#160;2% &#160;&#160;4.04 mol/s &#160;&#160;&#160;8.33E&#45;03</text>
</g>
<!-- R30 -->
<g id="node5" class="node">
<title>R30</title>
<g id="a_node5"><a xlink:href="30.svg" xlink:title="R30">
<polygon fill="cornsilk" stroke="none" points="604,-63.78 528,-63.78 528,-16.78 604,-16.78 604,-63.78"/>
<text text-anchor="middle" x="566" y="-31.78" font-family="Times New Roman,serif" font-size="35.00">R30</text>
</a>
</g>
</g>
<!-- R72&#45;&gt;R30 -->
<g id="edge4" class="edge">
<title>R72&#45;&gt;R30</title>
<path fill="none" stroke="black" d="M44.8,-113.87C51.1,-93.95 63.29,-66.54 85,-53.28 222.57,30.77 426.21,-4.75 517.6,-27.15"/>
<polygon fill="black" stroke="black" points="516.62,-30.76 527.17,-29.81 518.33,-23.97 516.62,-30.76"/>
<text text-anchor="middle" x="302" y="-62.28" font-family="Times New Roman,serif" font-size="30.00"> &#160;&#160;247 &#160;&#160;2% &#160;&#160;4.04 mol/s &#160;&#160;&#160;8.33E&#45;03</text>
</g>
</g>
</svg>
