<?xml version="1.0" encoding="UTF-8" standalone="no"?>
<!DOCTYPE svg PUBLIC "-//W3C//DTD SVG 1.1//EN"
 "http://www.w3.org/Graphics/SVG/1.1/DTD/svg11.dtd">
<!-- Generated by graphviz version 8.0.3 (20230416.2022)
 -->
<!-- Title: G Pages: 1 -->
<svg width="640pt" height="243pt"
 viewBox="0.00 0.00 720.00 273.32" xmlns="http://www.w3.org/2000/svg" xmlns:xlink="http://www.w3.org/1999/xlink">
<g id="graph0" class="graph" transform="scale(0.490421 0.490421) rotate(0) translate(4 491.39)">
<title>G</title>
<polygon fill="white" stroke="none" points="-4,4 -4,-491.39 1301,-491.39 1301,4 -4,4"/>
<text text-anchor="middle" x="648.5" y="-454.59" font-family="Arial" font-size="36.00" fill="blue">Reaction Path Analysis</text>
<!-- R76 -->
<g id="node1" class="node">
<title>R76</title>
<g id="a_node1"><a xlink:href="76.svg" xlink:title="R76">
<polygon fill="cornsilk" stroke="none" points="691,-236.89 615,-236.89 615,-189.89 691,-189.89 691,-236.89"/>
<text text-anchor="middle" x="653" y="-204.89" font-family="Times New Roman,serif" font-size="35.00">R76</text>
</a>
</g>
</g>
<!-- R78 -->
<g id="node4" class="node">
<title>R78</title>
<g id="a_node4"><a xlink:href="78.svg" xlink:title="R78">
<polygon fill="cornsilk" stroke="none" points="1297,-269.89 1221,-269.89 1221,-222.89 1297,-222.89 1297,-269.89"/>
<text text-anchor="middle" x="1259" y="-237.89" font-family="Times New Roman,serif" font-size="35.00">R78</text>
</a>
</g>
</g>
<!-- R76&#45;&gt;R78 -->
<g id="edge3" class="edge">
<title>R76&#45;&gt;R78</title>
<path fill="none" stroke="black" stroke-width="3" d="M690.85,-221.59C696.89,-222.69 703.1,-223.69 709,-224.39 893.5,-246.4 1115.08,-247.65 1210.49,-246.99"/>
<polygon fill="black" stroke="black" stroke-width="3" points="1207.25,-250.49 1217.22,-246.91 1207.19,-243.49 1207.25,-250.49"/>
<text text-anchor="middle" x="956" y="-255.39" font-family="Times New Roman,serif" font-size="30.00"> &#160;&#160;140 &#160;&#160;50% &#160;&#160;4.67e&#45;08 mol/s &#160;&#160;&#160;1.00E+00</text>
</g>
<!-- R79 -->
<g id="node5" class="node">
<title>R79</title>
<g id="a_node5"><a xlink:href="79.svg" xlink:title="R79">
<polygon fill="cornsilk" stroke="none" points="1297,-204.89 1221,-204.89 1221,-157.89 1297,-157.89 1297,-204.89"/>
<text text-anchor="middle" x="1259" y="-172.89" font-family="Times New Roman,serif" font-size="35.00">R79</text>
</a>
</g>
</g>
<!-- R76&#45;&gt;R79 -->
<g id="edge4" class="edge">
<title>R76&#45;&gt;R79</title>
<path fill="none" stroke="black" stroke-width="3" d="M690.72,-196.6C696.72,-194.47 702.95,-192.61 709,-191.39 891.23,-154.57 1114.44,-168.05 1210.42,-176.55"/>
<polygon fill="black" stroke="black" stroke-width="3" points="1206.94,-180.12 1217.21,-177.54 1207.57,-173.14 1206.94,-180.12"/>
<text text-anchor="middle" x="956" y="-200.39" font-family="Times New Roman,serif" font-size="30.00"> &#160;&#160;141 &#160;&#160;50% &#160;&#160;4.67e&#45;08 mol/s &#160;&#160;&#160;1.00E+00</text>
</g>
<!-- R8 -->
<g id="node2" class="node">
<title>R8</title>
<g id="a_node2"><a xlink:href="8.svg" xlink:title="R8">
<polygon fill="cornsilk" stroke="none" points="76,-385.89 18,-385.89 18,-338.89 76,-338.89 76,-385.89"/>
<text text-anchor="middle" x="47" y="-353.89" font-family="Times New Roman,serif" font-size="35.00">R8</text>
</a>
</g>
</g>
<!-- R8&#45;&gt;R76 -->
<g id="edge1" class="edge">
<title>R8&#45;&gt;R76</title>
<path fill="none" stroke="black" d="M75.98,-370.54C162.49,-393.97 429.87,-452.72 597,-338.39 627.1,-317.79 640.89,-276.81 647.1,-247.38"/>
<polygon fill="black" stroke="black" points="650.69,-248.21 649.12,-237.73 643.82,-246.9 650.69,-248.21"/>
<text text-anchor="middle" x="350" y="-415.39" font-family="Times New Roman,serif" font-size="30.00"> &#160;&#160;82 &#160;&#160;0% &#160;&#160;4.67e&#45;08 mol/s &#160;&#160;&#160;1.00E+00</text>
</g>
<!-- R13 -->
<g id="node3" class="node">
<title>R13</title>
<g id="a_node3"><a xlink:href="13.svg" xlink:title="R13">
<polygon fill="cornsilk" stroke="none" points="85,-320.89 9,-320.89 9,-273.89 85,-273.89 85,-320.89"/>
<text text-anchor="middle" x="47" y="-288.89" font-family="Times New Roman,serif" font-size="35.00">R13</text>
</a>
</g>
</g>
<!-- R13&#45;&gt;R76 -->
<g id="edge2" class="edge">
<title>R13&#45;&gt;R76</title>
<path fill="none" stroke="black" d="M84.78,-298.83C192.45,-302.51 505.13,-309.32 597,-268.39 608.83,-263.12 619.52,-254.08 628.25,-244.83"/>
<polygon fill="black" stroke="black" points="630.41,-247.55 634.41,-237.74 625.16,-242.91 630.41,-247.55"/>
<text text-anchor="middle" x="350" y="-310.39" font-family="Times New Roman,serif" font-size="30.00"> &#160;&#160;82 &#160;&#160;0% &#160;&#160;4.67e&#45;08 mol/s &#160;&#160;&#160;1.00E+00</text>
</g>
<!-- R70 -->
<g id="node6" class="node">
<title>R70</title>
<g id="a_node6"><a xlink:href="70.svg" xlink:title="R70">
<polygon fill="cornsilk" stroke="none" points="85,-232.89 9,-232.89 9,-185.89 85,-185.89 85,-232.89"/>
<text text-anchor="middle" x="47" y="-200.89" font-family="Times New Roman,serif" font-size="35.00">R70</text>
</a>
</g>
</g>
<!-- R70&#45;&gt;R76 -->
<g id="edge5" class="edge">
<title>R70&#45;&gt;R76</title>
<path fill="none" stroke="black" d="M84.86,-217.03C90.89,-218.01 97.1,-218.86 103,-219.39 321.67,-239.11 377.77,-231.31 597,-219.39 599.38,-219.26 601.81,-219.1 604.26,-218.91"/>
<polygon fill="black" stroke="black" points="604.4,-222.33 614.06,-217.98 603.8,-215.36 604.4,-222.33"/>
<text text-anchor="middle" x="350" y="-240.39" font-family="Times New Roman,serif" font-size="30.00"> &#160;&#160;454 &#160;&#160;0% &#160;&#160;1.01e&#45;11 mol/s &#160;&#160;&#160;9.99E&#45;01</text>
</g>
<!-- R70&#45;&gt;R76 -->
<g id="edge7" class="edge">
<title>R70&#45;&gt;R76</title>
<path fill="none" stroke="black" d="M84.72,-188.55C90.67,-186.01 96.89,-183.81 103,-182.39 156.47,-169.97 543.91,-168.46 597,-182.39 600.18,-183.22 603.38,-184.29 606.54,-185.52"/>
<polygon fill="black" stroke="black" points="604.88,-189.06 615.44,-189.93 607.73,-182.67 604.88,-189.06"/>
<text text-anchor="middle" x="350" y="-191.39" font-family="Times New Roman,serif" font-size="30.00"> &#160;&#160;461 &#160;&#160;0% &#160;&#160;1.96e&#45;08 mol/s &#160;&#160;&#160;5.15E&#45;04</text>
</g>
<!-- R113 -->
<g id="node7" class="node">
<title>R113</title>
<g id="a_node7"><a xlink:href="113.svg" xlink:title="R113">
<polygon fill="cornsilk" stroke="none" points="94,-124.89 0,-124.89 0,-77.89 94,-77.89 94,-124.89"/>
<text text-anchor="middle" x="47" y="-92.89" font-family="Times New Roman,serif" font-size="35.00">R113</text>
</a>
</g>
</g>
<!-- R113&#45;&gt;R76 -->
<g id="edge6" class="edge">
<title>R113&#45;&gt;R76</title>
<path fill="none" stroke="black" stroke-width="5" d="M93.9,-106.58C96.98,-106.87 100.03,-107.14 103,-107.39 157.79,-111.93 548.93,-108.71 597,-135.39 612.01,-143.72 623.88,-158.08 632.69,-172.23"/>
<polygon fill="black" stroke="black" stroke-width="5" points="623.24,-171.84 640.52,-185.18 638.59,-163.43 623.24,-171.84"/>
<text text-anchor="middle" x="350" y="-144.39" font-family="Times New Roman,serif" font-size="30.00"> &#160;&#160;460 &#160;&#160;99% &#160;&#160;0.000162 mol/s &#160;&#160;&#160;6.22E&#45;08</text>
</g>
<!-- R113&#45;&gt;R76 -->
<g id="edge8" class="edge">
<title>R113&#45;&gt;R76</title>
<path fill="none" stroke="black" d="M83.56,-77.93C89.81,-74.82 96.43,-72.11 103,-70.39 315.37,-14.66 416.02,53.91 597,-70.39 632.36,-94.67 645,-145.11 649.51,-179.11"/>
<polygon fill="black" stroke="black" points="646.13,-179.42 650.74,-188.95 653.09,-178.62 646.13,-179.42"/>
<text text-anchor="middle" x="350" y="-79.39" font-family="Times New Roman,serif" font-size="30.00"> &#160;&#160;644 &#160;&#160;0% &#160;&#160;1.01e&#45;11 mol/s &#160;&#160;&#160;1.00E+00</text>
</g>
</g>
</svg>
