<?xml version="1.0" encoding="UTF-8" standalone="no"?>
<!DOCTYPE svg PUBLIC "-//W3C//DTD SVG 1.1//EN"
 "http://www.w3.org/Graphics/SVG/1.1/DTD/svg11.dtd">
<!-- Generated by graphviz version 8.0.3 (20230416.2022)
 -->
<!-- Title: G Pages: 1 -->
<svg width="640pt" height="246pt"
 viewBox="0.00 0.00 720.00 276.85" xmlns="http://www.w3.org/2000/svg" xmlns:xlink="http://www.w3.org/1999/xlink">
<g id="graph0" class="graph" transform="scale(0.501961 0.501961) rotate(0) translate(4 486.25)">
<title>G</title>
<polygon fill="white" stroke="none" points="-4,4 -4,-486.25 1271,-486.25 1271,4 -4,4"/>
<text text-anchor="middle" x="633.5" y="-449.45" font-family="Arial" font-size="36.00" fill="blue">Reaction Path Analysis</text>
<!-- R76 -->
<g id="node1" class="node">
<title>R76</title>
<g id="a_node1"><a xlink:href="76.svg" xlink:title="R76">
<polygon fill="cornsilk" stroke="none" points="676,-234.75 600,-234.75 600,-187.75 676,-187.75 676,-234.75"/>
<text text-anchor="middle" x="638" y="-202.75" font-family="Times New Roman,serif" font-size="35.00">R76</text>
</a>
</g>
</g>
<!-- R78 -->
<g id="node4" class="node">
<title>R78</title>
<g id="a_node4"><a xlink:href="78.svg" xlink:title="R78">
<polygon fill="cornsilk" stroke="none" points="1267,-267.75 1191,-267.75 1191,-220.75 1267,-220.75 1267,-267.75"/>
<text text-anchor="middle" x="1229" y="-235.75" font-family="Times New Roman,serif" font-size="35.00">R78</text>
</a>
</g>
</g>
<!-- R76&#45;&gt;R78 -->
<g id="edge3" class="edge">
<title>R76&#45;&gt;R78</title>
<path fill="none" stroke="black" stroke-width="3" d="M675.96,-220.51C679.5,-221.19 683.06,-221.79 686.5,-222.25 867.49,-246.67 1085.34,-246.71 1180.09,-245.3"/>
<polygon fill="black" stroke="black" stroke-width="3" points="1177.08,-248.78 1187.02,-245.12 1176.97,-241.78 1177.08,-248.78"/>
<text text-anchor="middle" x="933.5" y="-254.25" font-family="Times New Roman,serif" font-size="30.00"> &#160;&#160;140 &#160;&#160;50% &#160;&#160;2.18e&#45;15 mol/s &#160;&#160;&#160;1.00E+00</text>
</g>
<!-- R79 -->
<g id="node5" class="node">
<title>R79</title>
<g id="a_node5"><a xlink:href="79.svg" xlink:title="R79">
<polygon fill="cornsilk" stroke="none" points="1267,-202.75 1191,-202.75 1191,-155.75 1267,-155.75 1267,-202.75"/>
<text text-anchor="middle" x="1229" y="-170.75" font-family="Times New Roman,serif" font-size="35.00">R79</text>
</a>
</g>
</g>
<!-- R76&#45;&gt;R79 -->
<g id="edge4" class="edge">
<title>R76&#45;&gt;R79</title>
<path fill="none" stroke="black" stroke-width="3" d="M675.82,-192.44C679.36,-191.16 682.96,-190.07 686.5,-189.25 864.99,-148.19 1085.36,-163.83 1180.54,-173.65"/>
<polygon fill="black" stroke="black" stroke-width="3" points="1176.93,-177.21 1187.25,-174.79 1177.67,-170.25 1176.93,-177.21"/>
<text text-anchor="middle" x="933.5" y="-198.25" font-family="Times New Roman,serif" font-size="30.00"> &#160;&#160;141 &#160;&#160;50% &#160;&#160;2.18e&#45;15 mol/s &#160;&#160;&#160;1.00E+00</text>
</g>
<!-- R8 -->
<g id="node2" class="node">
<title>R8</title>
<g id="a_node2"><a xlink:href="8.svg" xlink:title="R8">
<polygon fill="cornsilk" stroke="none" points="76,-383.75 18,-383.75 18,-336.75 76,-336.75 76,-383.75"/>
<text text-anchor="middle" x="47" y="-351.75" font-family="Times New Roman,serif" font-size="35.00">R8</text>
</a>
</g>
</g>
<!-- R8&#45;&gt;R76 -->
<g id="edge1" class="edge">
<title>R8&#45;&gt;R76</title>
<path fill="none" stroke="black" stroke-width="5" d="M75.81,-368.22C160.58,-390.72 419.81,-446.23 582,-335.25 608.66,-317.01 622.54,-282.71 629.69,-254.8"/>
<polygon fill="black" stroke="black" stroke-width="5" points="637.37,-262.04 633.01,-240.65 620.26,-258.37 637.37,-262.04"/>
<text text-anchor="middle" x="342.5" y="-410.25" font-family="Times New Roman,serif" font-size="30.00"> &#160;&#160;82 &#160;&#160;99% &#160;&#160;2.18e&#45;15 mol/s &#160;&#160;&#160;1.00E+00</text>
</g>
<!-- R13 -->
<g id="node3" class="node">
<title>R13</title>
<g id="a_node3"><a xlink:href="13.svg" xlink:title="R13">
<polygon fill="cornsilk" stroke="none" points="85,-318.75 9,-318.75 9,-271.75 85,-271.75 85,-318.75"/>
<text text-anchor="middle" x="47" y="-286.75" font-family="Times New Roman,serif" font-size="35.00">R13</text>
</a>
</g>
</g>
<!-- R13&#45;&gt;R76 -->
<g id="edge2" class="edge">
<title>R13&#45;&gt;R76</title>
<path fill="none" stroke="black" stroke-width="5" d="M84.89,-296.51C190.62,-299.6 492.82,-304.67 582,-265.25 590.4,-261.54 598.25,-255.94 605.24,-249.72"/>
<polygon fill="black" stroke="black" stroke-width="5" points="608.16,-259.16 615.84,-238.72 595.62,-246.95 608.16,-259.16"/>
<text text-anchor="middle" x="342.5" y="-307.25" font-family="Times New Roman,serif" font-size="30.00"> &#160;&#160;82 &#160;&#160;99% &#160;&#160;2.18e&#45;15 mol/s &#160;&#160;&#160;1.00E+00</text>
</g>
<!-- R70 -->
<g id="node6" class="node">
<title>R70</title>
<g id="a_node6"><a xlink:href="70.svg" xlink:title="R70">
<polygon fill="cornsilk" stroke="none" points="85,-230.75 9,-230.75 9,-183.75 85,-183.75 85,-230.75"/>
<text text-anchor="middle" x="47" y="-198.75" font-family="Times New Roman,serif" font-size="35.00">R70</text>
</a>
</g>
</g>
<!-- R70&#45;&gt;R76 -->
<g id="edge5" class="edge">
<title>R70&#45;&gt;R76</title>
<path fill="none" stroke="black" d="M84.86,-214.89C90.89,-215.87 97.1,-216.72 103,-217.25 315.03,-236.37 369.43,-228.81 582,-217.25 584.38,-217.12 586.81,-216.96 589.26,-216.78"/>
<polygon fill="black" stroke="black" points="589.4,-220.19 599.06,-215.84 588.8,-213.22 589.4,-220.19"/>
<text text-anchor="middle" x="342.5" y="-237.25" font-family="Times New Roman,serif" font-size="30.00"> &#160;&#160;454 &#160;&#160;0% &#160;&#160;2.2e&#45;26 mol/s &#160;&#160;&#160;9.99E&#45;01</text>
</g>
<!-- R70&#45;&gt;R76 -->
<g id="edge7" class="edge">
<title>R70&#45;&gt;R76</title>
<path fill="none" stroke="black" d="M84.72,-186.41C90.67,-183.87 96.89,-181.67 103,-180.25 154.84,-168.21 530.52,-166.74 582,-180.25 585.18,-181.09 588.38,-182.15 591.54,-183.38"/>
<polygon fill="black" stroke="black" points="589.88,-186.92 600.44,-187.8 592.73,-180.53 589.88,-186.92"/>
<text text-anchor="middle" x="342.5" y="-189.25" font-family="Times New Roman,serif" font-size="30.00"> &#160;&#160;461 &#160;&#160;0% &#160;&#160;4.27e&#45;23 mol/s &#160;&#160;&#160;5.15E&#45;04</text>
</g>
<!-- R113 -->
<g id="node7" class="node">
<title>R113</title>
<g id="a_node7"><a xlink:href="113.svg" xlink:title="R113">
<polygon fill="cornsilk" stroke="none" points="94,-122.75 0,-122.75 0,-75.75 94,-75.75 94,-122.75"/>
<text text-anchor="middle" x="47" y="-90.75" font-family="Times New Roman,serif" font-size="35.00">R113</text>
</a>
</g>
</g>
<!-- R113&#45;&gt;R76 -->
<g id="edge6" class="edge">
<title>R113&#45;&gt;R76</title>
<path fill="none" stroke="black" d="M93.9,-104.43C96.98,-104.73 100.03,-105 103,-105.25 156.13,-109.7 535.41,-107.34 582,-133.25 600.04,-143.28 613.54,-162.02 622.66,-178.61"/>
<polygon fill="black" stroke="black" points="619.83,-179.76 627.52,-187.05 626.05,-176.56 619.83,-179.76"/>
<text text-anchor="middle" x="342.5" y="-142.25" font-family="Times New Roman,serif" font-size="30.00"> &#160;&#160;460 &#160;&#160;0% &#160;&#160;3.54e&#45;19 mol/s &#160;&#160;&#160;6.22E&#45;08</text>
</g>
<!-- R113&#45;&gt;R76 -->
<g id="edge8" class="edge">
<title>R113&#45;&gt;R76</title>
<path fill="none" stroke="black" d="M83.56,-75.8C89.81,-72.68 96.43,-69.98 103,-68.25 308.92,-14.22 406.51,52.27 582,-68.25 617.36,-92.54 630,-142.97 634.51,-176.98"/>
<polygon fill="black" stroke="black" points="631.13,-177.28 635.74,-186.82 638.09,-176.48 631.13,-177.28"/>
<text text-anchor="middle" x="342.5" y="-77.25" font-family="Times New Roman,serif" font-size="30.00"> &#160;&#160;644 &#160;&#160;0% &#160;&#160;2.2e&#45;26 mol/s &#160;&#160;&#160;1.00E+00</text>
</g>
</g>
</svg>
