<?xml version="1.0" encoding="UTF-8" standalone="no"?>
<!DOCTYPE svg PUBLIC "-//W3C//DTD SVG 1.1//EN"
 "http://www.w3.org/Graphics/SVG/1.1/DTD/svg11.dtd">
<!-- Generated by graphviz version 8.0.3 (20230416.2022)
 -->
<!-- Title: G Pages: 1 -->
<svg width="595pt" height="489pt"
 viewBox="0.00 0.00 669.00 549.81" xmlns="http://www.w3.org/2000/svg" xmlns:xlink="http://www.w3.org/1999/xlink">
<g id="graph0" class="graph" transform="scale(0.888889 0.888889) rotate(0) translate(4 545.81)">
<title>G</title>
<polygon fill="white" stroke="none" points="-4,4 -4,-545.81 665,-545.81 665,4 -4,4"/>
<text text-anchor="middle" x="330.5" y="-509.01" font-family="Arial" font-size="36.00" fill="blue">Reaction Path Analysis</text>
<!-- R78 -->
<g id="node1" class="node">
<title>R78</title>
<g id="a_node1"><a xlink:href="78.svg" xlink:title="R78">
<polygon fill="cornsilk" stroke="none" points="661,-257.31 585,-257.31 585,-210.31 661,-210.31 661,-257.31"/>
<text text-anchor="middle" x="623" y="-225.31" font-family="Times New Roman,serif" font-size="35.00">R78</text>
</a>
</g>
</g>
<!-- R8 -->
<g id="node2" class="node">
<title>R8</title>
<g id="a_node2"><a xlink:href="8.svg" xlink:title="R8">
<polygon fill="cornsilk" stroke="none" points="76,-471.31 18,-471.31 18,-424.31 76,-424.31 76,-471.31"/>
<text text-anchor="middle" x="47" y="-439.31" font-family="Times New Roman,serif" font-size="35.00">R8</text>
</a>
</g>
</g>
<!-- R8&#45;&gt;R78 -->
<g id="edge1" class="edge">
<title>R8&#45;&gt;R78</title>
<path fill="none" stroke="black" d="M75.78,-450.34C172.15,-458.52 490.35,-480.36 567,-419.81 612.84,-383.59 621.81,-311.03 622.83,-268.03"/>
<polygon fill="black" stroke="black" points="626.34,-268.29 622.93,-258.25 619.34,-268.22 626.34,-268.29"/>
<text text-anchor="middle" x="335" y="-469.81" font-family="Times New Roman,serif" font-size="30.00"> &#160;&#160;84 &#160;&#160;0% &#160;&#160;0.0342 mol/s &#160;&#160;&#160;1.00E+00</text>
</g>
<!-- R14 -->
<g id="node3" class="node">
<title>R14</title>
<g id="a_node3"><a xlink:href="14.svg" xlink:title="R14">
<polygon fill="cornsilk" stroke="none" points="85,-406.31 9,-406.31 9,-359.31 85,-359.31 85,-406.31"/>
<text text-anchor="middle" x="47" y="-374.31" font-family="Times New Roman,serif" font-size="35.00">R14</text>
</a>
</g>
</g>
<!-- R14&#45;&gt;R78 -->
<g id="edge2" class="edge">
<title>R14&#45;&gt;R78</title>
<path fill="none" stroke="black" d="M84.83,-383.24C196.74,-384.24 527.51,-384.86 567,-357.81 596.8,-337.39 610.64,-296.91 616.94,-267.75"/>
<polygon fill="black" stroke="black" points="620.52,-268.68 619,-258.2 613.65,-267.34 620.52,-268.68"/>
<text text-anchor="middle" x="335" y="-391.81" font-family="Times New Roman,serif" font-size="30.00"> &#160;&#160;84 &#160;&#160;0% &#160;&#160;0.0342 mol/s &#160;&#160;&#160;1.00E+00</text>
</g>
<!-- R0 -->
<g id="node4" class="node">
<title>R0</title>
<g id="a_node4"><a xlink:href="0.svg" xlink:title="R0">
<polygon fill="cornsilk" stroke="none" points="76,-341.31 18,-341.31 18,-294.31 76,-294.31 76,-341.31"/>
<text text-anchor="middle" x="47" y="-309.31" font-family="Times New Roman,serif" font-size="35.00">R0</text>
</a>
</g>
</g>
<!-- R0&#45;&gt;R78 -->
<g id="edge3" class="edge">
<title>R0&#45;&gt;R78</title>
<path fill="none" stroke="black" d="M75.88,-318.92C170.47,-322.29 478.28,-329.87 567,-289.81 579.01,-284.39 589.79,-275.07 598.56,-265.58"/>
<polygon fill="black" stroke="black" points="601.84,-268.14 605.73,-258.28 596.54,-263.56 601.84,-268.14"/>
<text text-anchor="middle" x="335" y="-329.81" font-family="Times New Roman,serif" font-size="30.00"> &#160;&#160;140 &#160;&#160;0% &#160;&#160;0.0342 mol/s &#160;&#160;&#160;1.00E+00</text>
</g>
<!-- R76 -->
<g id="node5" class="node">
<title>R76</title>
<g id="a_node5"><a xlink:href="76.svg" xlink:title="R76">
<polygon fill="cornsilk" stroke="none" points="85,-276.31 9,-276.31 9,-229.31 85,-229.31 85,-276.31"/>
<text text-anchor="middle" x="47" y="-244.31" font-family="Times New Roman,serif" font-size="35.00">R76</text>
</a>
</g>
</g>
<!-- R76&#45;&gt;R78 -->
<g id="edge4" class="edge">
<title>R76&#45;&gt;R78</title>
<path fill="none" stroke="black" d="M84.86,-252.94C169.92,-253.02 386.46,-251.89 567,-239.81 569.37,-239.65 571.81,-239.46 574.26,-239.26"/>
<polygon fill="black" stroke="black" points="574.42,-242.67 584.06,-238.27 573.78,-235.7 574.42,-242.67"/>
<text text-anchor="middle" x="335" y="-261.81" font-family="Times New Roman,serif" font-size="30.00"> &#160;&#160;140 &#160;&#160;0% &#160;&#160;0.0342 mol/s &#160;&#160;&#160;1.00E+00</text>
</g>
<!-- R245 -->
<g id="node6" class="node">
<title>R245</title>
<g id="a_node6"><a xlink:href="245.svg" xlink:title="R245">
<polygon fill="cornsilk" stroke="none" points="94,-192.31 0,-192.31 0,-145.31 94,-145.31 94,-192.31"/>
<text text-anchor="middle" x="47" y="-160.31" font-family="Times New Roman,serif" font-size="35.00">R245</text>
</a>
</g>
</g>
<!-- R245&#45;&gt;R78 -->
<g id="edge5" class="edge">
<title>R245&#45;&gt;R78</title>
<path fill="none" stroke="black" stroke-width="5" d="M93.75,-182.11C96.86,-182.76 99.97,-183.34 103,-183.81 199.51,-198.75 439.98,-177.15 565.8,-205.17"/>
<polygon fill="black" stroke="black" stroke-width="5" points="558.52,-212.87 580.07,-209.43 562.92,-195.93 558.52,-212.87"/>
<text text-anchor="middle" x="335" y="-211.81" font-family="Times New Roman,serif" font-size="30.00"> &#160;&#160;462 &#160;&#160;97% &#160;&#160;3.42 mol/s &#160;&#160;&#160;7.93E&#45;04</text>
</g>
<!-- R245&#45;&gt;R78 -->
<g id="edge8" class="edge">
<title>R245&#45;&gt;R78</title>
<path fill="none" stroke="black" d="M93.83,-149.01C96.9,-148.14 99.97,-147.39 103,-146.81 153.63,-137.06 521.84,-121.93 567,-146.81 587.7,-158.21 601.69,-181.04 610.38,-200.46"/>
<polygon fill="black" stroke="black" points="607.48,-201.62 614.56,-209.51 613.95,-198.93 607.48,-201.62"/>
<text text-anchor="middle" x="335" y="-155.81" font-family="Times New Roman,serif" font-size="30.00"> &#160;&#160;717 &#160;&#160;0% &#160;&#160;0.00272 mol/s &#160;&#160;&#160;9.99E&#45;01</text>
</g>
<!-- R159 -->
<g id="node7" class="node">
<title>R159</title>
<g id="a_node7"><a xlink:href="159.svg" xlink:title="R159">
<polygon fill="cornsilk" stroke="none" points="94,-89.31 0,-89.31 0,-42.31 94,-42.31 94,-89.31"/>
<text text-anchor="middle" x="47" y="-57.31" font-family="Times New Roman,serif" font-size="35.00">R159</text>
</a>
</g>
</g>
<!-- R159&#45;&gt;R78 -->
<g id="edge6" class="edge">
<title>R159&#45;&gt;R78</title>
<path fill="none" stroke="black" d="M93.9,-71.01C96.98,-71.3 100.03,-71.57 103,-71.81 154.46,-75.94 525.03,-65.74 567,-95.81 600.29,-119.65 613.44,-167.01 618.63,-199.53"/>
<polygon fill="black" stroke="black" points="615.3,-199.94 620.15,-209.36 622.23,-198.97 615.3,-199.94"/>
<text text-anchor="middle" x="335" y="-104.81" font-family="Times New Roman,serif" font-size="30.00"> &#160;&#160;463 &#160;&#160;0% &#160;&#160;0.00294 mol/s &#160;&#160;&#160;3.25E&#45;01</text>
</g>
<!-- R159&#45;&gt;R78 -->
<g id="edge7" class="edge">
<title>R159&#45;&gt;R78</title>
<path fill="none" stroke="black" d="M83.56,-42.35C89.81,-39.24 96.43,-36.53 103,-34.81 202.73,-8.64 484.95,27.64 567,-34.81 593.17,-54.73 610.09,-148.37 617.57,-199.79"/>
<polygon fill="black" stroke="black" points="614.2,-199.96 619.06,-209.38 621.13,-198.99 614.2,-199.96"/>
<text text-anchor="middle" x="335" y="-43.81" font-family="Times New Roman,serif" font-size="30.00"> &#160;&#160;681 &#160;&#160;0% &#160;&#160;0.00141 mol/s &#160;&#160;&#160;6.75E&#45;01</text>
</g>
</g>
</svg>
