<?xml version="1.0" encoding="UTF-8" standalone="no"?>
<!DOCTYPE svg PUBLIC "-//W3C//DTD SVG 1.1//EN"
 "http://www.w3.org/Graphics/SVG/1.1/DTD/svg11.dtd">
<!-- Generated by graphviz version 8.0.3 (20230416.2022)
 -->
<!-- Title: G Pages: 1 -->
<svg width="640pt" height="245pt"
 viewBox="0.00 0.00 720.00 275.10" xmlns="http://www.w3.org/2000/svg" xmlns:xlink="http://www.w3.org/1999/xlink">
<g id="graph0" class="graph" transform="scale(0.487062 0.487062) rotate(0) translate(4 498.06)">
<title>G</title>
<polygon fill="white" stroke="none" points="-4,4 -4,-498.06 1310,-498.06 1310,4 -4,4"/>
<text text-anchor="middle" x="653" y="-461.26" font-family="Arial" font-size="36.00" fill="blue">Reaction Path Analysis</text>
<!-- R78 -->
<g id="node1" class="node">
<title>R78</title>
<g id="a_node1"><a xlink:href="78.svg" xlink:title="R78">
<polygon fill="cornsilk" stroke="none" points="691,-232.56 615,-232.56 615,-185.56 691,-185.56 691,-232.56"/>
<text text-anchor="middle" x="653" y="-200.56" font-family="Times New Roman,serif" font-size="35.00">R78</text>
</a>
</g>
</g>
<!-- R159 -->
<g id="node7" class="node">
<title>R159</title>
<g id="a_node7"><a xlink:href="159.svg" xlink:title="R159">
<polygon fill="cornsilk" stroke="none" points="1306,-232.56 1212,-232.56 1212,-185.56 1306,-185.56 1306,-232.56"/>
<text text-anchor="middle" x="1259" y="-200.56" font-family="Times New Roman,serif" font-size="35.00">R159</text>
</a>
</g>
</g>
<!-- R78&#45;&gt;R159 -->
<g id="edge6" class="edge">
<title>R78&#45;&gt;R159</title>
<path fill="none" stroke="black" stroke-width="2" d="M690.78,-213.41C697.97,-214.1 705.46,-214.7 712.5,-215.06 928.66,-226.12 983.34,-226.12 1199.5,-215.06 1200.14,-215.03 1200.78,-214.99 1201.42,-214.96"/>
<polygon fill="black" stroke="black" stroke-width="2" points="1199.31,-218.4 1209.05,-214.22 1198.83,-211.42 1199.31,-218.4"/>
<text text-anchor="middle" x="956" y="-232.06" font-family="Times New Roman,serif" font-size="30.00"> &#160;&#160;463 &#160;&#160;32% &#160;&#160;5.3e&#45;12 mol/s &#160;&#160;&#160;6.78E&#45;01</text>
</g>
<!-- R78&#45;&gt;R159 -->
<g id="edge7" class="edge">
<title>R78&#45;&gt;R159</title>
<path fill="none" stroke="black" stroke-width="4" d="M690.99,-186.05C697.91,-182.75 705.25,-179.86 712.5,-178.06 922.55,-125.84 989.45,-125.84 1199.5,-178.06 1199.82,-178.14 1200.15,-178.22 1200.47,-178.31"/>
<polygon fill="black" stroke="black" stroke-width="4" points="1193.86,-183.18 1215.05,-183.6 1198.75,-170.06 1193.86,-183.18"/>
<text text-anchor="middle" x="956" y="-187.06" font-family="Times New Roman,serif" font-size="30.00"> &#160;&#160;681 &#160;&#160;67% &#160;&#160;1.11e&#45;11 mol/s &#160;&#160;&#160;3.22E&#45;01</text>
</g>
<!-- R8 -->
<g id="node2" class="node">
<title>R8</title>
<g id="a_node2"><a xlink:href="8.svg" xlink:title="R8">
<polygon fill="cornsilk" stroke="none" points="76,-390.56 18,-390.56 18,-343.56 76,-343.56 76,-390.56"/>
<text text-anchor="middle" x="47" y="-358.56" font-family="Times New Roman,serif" font-size="35.00">R8</text>
</a>
</g>
</g>
<!-- R8&#45;&gt;R78 -->
<g id="edge1" class="edge">
<title>R8&#45;&gt;R78</title>
<path fill="none" stroke="black" stroke-width="3" d="M75.8,-375.39C162.37,-399.54 431.18,-460.67 597,-344.06 629.78,-321.01 643.05,-274.83 648.4,-242.95"/>
<polygon fill="black" stroke="black" stroke-width="3" points="651.97,-246.74 649.99,-236.33 645.05,-245.71 651.97,-246.74"/>
<text text-anchor="middle" x="350" y="-422.06" font-family="Times New Roman,serif" font-size="30.00"> &#160;&#160;84 &#160;&#160;45% &#160;&#160;4.67e&#45;08 mol/s &#160;&#160;&#160;1.00E+00</text>
</g>
<!-- R14 -->
<g id="node3" class="node">
<title>R14</title>
<g id="a_node3"><a xlink:href="14.svg" xlink:title="R14">
<polygon fill="cornsilk" stroke="none" points="85,-325.56 9,-325.56 9,-278.56 85,-278.56 85,-325.56"/>
<text text-anchor="middle" x="47" y="-293.56" font-family="Times New Roman,serif" font-size="35.00">R14</text>
</a>
</g>
</g>
<!-- R14&#45;&gt;R78 -->
<g id="edge2" class="edge">
<title>R14&#45;&gt;R78</title>
<path fill="none" stroke="black" stroke-width="3" d="M84.93,-303.82C193.02,-308.4 506.74,-317.42 597,-273.06 611.39,-265.99 623.53,-253.27 632.71,-241.02"/>
<polygon fill="black" stroke="black" stroke-width="3" points="633.97,-245.46 636.86,-235.27 628.25,-241.44 633.97,-245.46"/>
<text text-anchor="middle" x="350" y="-316.06" font-family="Times New Roman,serif" font-size="30.00"> &#160;&#160;84 &#160;&#160;45% &#160;&#160;4.67e&#45;08 mol/s &#160;&#160;&#160;1.00E+00</text>
</g>
<!-- R0 -->
<g id="node4" class="node">
<title>R0</title>
<g id="a_node4"><a xlink:href="0.svg" xlink:title="R0">
<polygon fill="cornsilk" stroke="none" points="76,-260.56 18,-260.56 18,-213.56 76,-213.56 76,-260.56"/>
<text text-anchor="middle" x="47" y="-228.56" font-family="Times New Roman,serif" font-size="35.00">R0</text>
</a>
</g>
</g>
<!-- R0&#45;&gt;R78 -->
<g id="edge3" class="edge">
<title>R0&#45;&gt;R78</title>
<path fill="none" stroke="black" stroke-width="3" d="M75.75,-236.62C156.36,-235.2 397.47,-229.92 597,-215.06 599.37,-214.88 601.8,-214.68 604.26,-214.47"/>
<polygon fill="black" stroke="black" stroke-width="3" points="601.43,-217.87 611.05,-213.44 600.76,-210.91 601.43,-217.87"/>
<text text-anchor="middle" x="350" y="-245.06" font-family="Times New Roman,serif" font-size="30.00"> &#160;&#160;140 &#160;&#160;45% &#160;&#160;4.67e&#45;08 mol/s &#160;&#160;&#160;1.00E+00</text>
</g>
<!-- R76 -->
<g id="node5" class="node">
<title>R76</title>
<g id="a_node5"><a xlink:href="76.svg" xlink:title="R76">
<polygon fill="cornsilk" stroke="none" points="85,-195.56 9,-195.56 9,-148.56 85,-148.56 85,-195.56"/>
<text text-anchor="middle" x="47" y="-163.56" font-family="Times New Roman,serif" font-size="35.00">R76</text>
</a>
</g>
</g>
<!-- R76&#45;&gt;R78 -->
<g id="edge4" class="edge">
<title>R76&#45;&gt;R78</title>
<path fill="none" stroke="black" stroke-width="3" d="M84.68,-170.1C191.37,-164.76 500.1,-152.07 597,-178.06 600.18,-178.91 603.37,-179.99 606.52,-181.23"/>
<polygon fill="black" stroke="black" stroke-width="3" points="601.87,-183.77 612.42,-184.67 604.73,-177.39 601.87,-183.77"/>
<text text-anchor="middle" x="350" y="-187.06" font-family="Times New Roman,serif" font-size="30.00"> &#160;&#160;140 &#160;&#160;45% &#160;&#160;4.67e&#45;08 mol/s &#160;&#160;&#160;1.00E+00</text>
</g>
<!-- R245 -->
<g id="node6" class="node">
<title>R245</title>
<g id="a_node6"><a xlink:href="245.svg" xlink:title="R245">
<polygon fill="cornsilk" stroke="none" points="94,-111.56 0,-111.56 0,-64.56 94,-64.56 94,-111.56"/>
<text text-anchor="middle" x="47" y="-79.56" font-family="Times New Roman,serif" font-size="35.00">R245</text>
</a>
</g>
</g>
<!-- R245&#45;&gt;R78 -->
<g id="edge5" class="edge">
<title>R245&#45;&gt;R78</title>
<path fill="none" stroke="black" d="M93.75,-101.35C96.87,-102.01 99.97,-102.59 103,-103.06 157.28,-111.56 549.26,-97.87 597,-125.06 616.55,-136.2 630.37,-157.46 639.27,-175.81"/>
<polygon fill="black" stroke="black" points="636.4,-176.95 643.71,-184.62 642.77,-174.07 636.4,-176.95"/>
<text text-anchor="middle" x="350" y="-134.06" font-family="Times New Roman,serif" font-size="30.00"> &#160;&#160;462 &#160;&#160;8% &#160;&#160;8.55e&#45;09 mol/s &#160;&#160;&#160;1.18E&#45;03</text>
</g>
<!-- R245&#45;&gt;R78 -->
<g id="edge8" class="edge">
<title>R245&#45;&gt;R78</title>
<path fill="none" stroke="black" d="M93.83,-68.26C96.9,-67.39 99.97,-66.64 103,-66.06 318.59,-24.54 416.02,58.24 597,-66.06 632.36,-90.35 645,-140.78 649.51,-174.78"/>
<polygon fill="black" stroke="black" points="646.13,-175.09 650.74,-184.62 653.09,-174.29 646.13,-175.09"/>
<text text-anchor="middle" x="350" y="-75.06" font-family="Times New Roman,serif" font-size="30.00"> &#160;&#160;717 &#160;&#160;0% &#160;&#160;1.01e&#45;11 mol/s &#160;&#160;&#160;9.99E&#45;01</text>
</g>
</g>
</svg>
