<?xml version="1.0" encoding="UTF-8" standalone="no"?>
<!DOCTYPE svg PUBLIC "-//W3C//DTD SVG 1.1//EN"
 "http://www.w3.org/Graphics/SVG/1.1/DTD/svg11.dtd">
<!-- Generated by graphviz version 8.0.3 (20230416.2022)
 -->
<!-- Title: G Pages: 1 -->
<svg width="621pt" height="365pt"
 viewBox="0.00 0.00 699.00 410.92" xmlns="http://www.w3.org/2000/svg" xmlns:xlink="http://www.w3.org/1999/xlink">
<g id="graph0" class="graph" transform="scale(0.888889 0.888889) rotate(0) translate(4 406.92)">
<title>G</title>
<polygon fill="white" stroke="none" points="-4,4 -4,-406.92 695,-406.92 695,4 -4,4"/>
<text text-anchor="middle" x="345.5" y="-370.12" font-family="Arial" font-size="36.00" fill="blue">Reaction Path Analysis</text>
<!-- R79 -->
<g id="node1" class="node">
<title>R79</title>
<g id="a_node1"><a xlink:href="79.svg" xlink:title="R79">
<polygon fill="cornsilk" stroke="none" points="691,-204.42 615,-204.42 615,-157.42 691,-157.42 691,-204.42"/>
<text text-anchor="middle" x="653" y="-172.42" font-family="Times New Roman,serif" font-size="35.00">R79</text>
</a>
</g>
</g>
<!-- R8 -->
<g id="node2" class="node">
<title>R8</title>
<g id="a_node2"><a xlink:href="8.svg" xlink:title="R8">
<polygon fill="cornsilk" stroke="none" points="76,-334.42 18,-334.42 18,-287.42 76,-287.42 76,-334.42"/>
<text text-anchor="middle" x="47" y="-302.42" font-family="Times New Roman,serif" font-size="35.00">R8</text>
</a>
</g>
</g>
<!-- R8&#45;&gt;R79 -->
<g id="edge1" class="edge">
<title>R8&#45;&gt;R79</title>
<path fill="none" stroke="black" stroke-width="3" d="M75.91,-313.06C175.11,-320.16 509.44,-339.4 597,-283.92 621.35,-268.49 635.62,-238.41 643.5,-214.73"/>
<polygon fill="black" stroke="black" stroke-width="3" points="646.09,-218.96 645.68,-208.37 639.4,-216.9 646.09,-218.96"/>
<text text-anchor="middle" x="350" y="-330.92" font-family="Times New Roman,serif" font-size="30.00"> &#160;&#160;85 &#160;&#160;49% &#160;&#160;2.18e&#45;15 mol/s &#160;&#160;&#160;1.00E+00</text>
</g>
<!-- R14 -->
<g id="node3" class="node">
<title>R14</title>
<g id="a_node3"><a xlink:href="14.svg" xlink:title="R14">
<polygon fill="cornsilk" stroke="none" points="85,-269.42 9,-269.42 9,-222.42 85,-222.42 85,-269.42"/>
<text text-anchor="middle" x="47" y="-237.42" font-family="Times New Roman,serif" font-size="35.00">R14</text>
</a>
</g>
</g>
<!-- R14&#45;&gt;R79 -->
<g id="edge2" class="edge">
<title>R14&#45;&gt;R79</title>
<path fill="none" stroke="black" stroke-width="3" d="M84.83,-246.59C191.93,-248.13 501.7,-249.66 597,-217.92 602.95,-215.94 608.85,-213.13 614.46,-209.92"/>
<polygon fill="black" stroke="black" stroke-width="3" points="613.94,-214.5 620.59,-206.25 610.25,-208.56 613.94,-214.5"/>
<text text-anchor="middle" x="350" y="-255.92" font-family="Times New Roman,serif" font-size="30.00"> &#160;&#160;85 &#160;&#160;49% &#160;&#160;2.18e&#45;15 mol/s &#160;&#160;&#160;1.00E+00</text>
</g>
<!-- R0 -->
<g id="node4" class="node">
<title>R0</title>
<g id="a_node4"><a xlink:href="0.svg" xlink:title="R0">
<polygon fill="cornsilk" stroke="none" points="76,-204.42 18,-204.42 18,-157.42 76,-157.42 76,-204.42"/>
<text text-anchor="middle" x="47" y="-172.42" font-family="Times New Roman,serif" font-size="35.00">R0</text>
</a>
</g>
</g>
<!-- R0&#45;&gt;R79 -->
<g id="edge3" class="edge">
<title>R0&#45;&gt;R79</title>
<path fill="none" stroke="black" stroke-width="3" d="M75.92,-180.92C171.2,-180.92 484.27,-180.92 604.44,-180.92"/>
<polygon fill="black" stroke="black" stroke-width="3" points="601.12,-184.42 611.12,-180.92 601.12,-177.42 601.12,-184.42"/>
<text text-anchor="middle" x="350" y="-189.92" font-family="Times New Roman,serif" font-size="30.00"> &#160;&#160;141 &#160;&#160;49% &#160;&#160;2.18e&#45;15 mol/s &#160;&#160;&#160;1.00E+00</text>
</g>
<!-- R76 -->
<g id="node5" class="node">
<title>R76</title>
<g id="a_node5"><a xlink:href="76.svg" xlink:title="R76">
<polygon fill="cornsilk" stroke="none" points="85,-139.42 9,-139.42 9,-92.42 85,-92.42 85,-139.42"/>
<text text-anchor="middle" x="47" y="-107.42" font-family="Times New Roman,serif" font-size="35.00">R76</text>
</a>
</g>
</g>
<!-- R76&#45;&gt;R79 -->
<g id="edge4" class="edge">
<title>R76&#45;&gt;R79</title>
<path fill="none" stroke="black" stroke-width="3" d="M84.88,-111.19C175.1,-101 412.97,-82.61 597,-143.92 602.95,-145.9 608.85,-148.71 614.46,-151.91"/>
<polygon fill="black" stroke="black" stroke-width="3" points="610.25,-153.28 620.59,-155.58 613.94,-147.33 610.25,-153.28"/>
<text text-anchor="middle" x="350" y="-152.92" font-family="Times New Roman,serif" font-size="30.00"> &#160;&#160;141 &#160;&#160;49% &#160;&#160;2.18e&#45;15 mol/s &#160;&#160;&#160;1.00E+00</text>
</g>
<!-- R161 -->
<g id="node6" class="node">
<title>R161</title>
<g id="a_node6"><a xlink:href="161.svg" xlink:title="R161">
<polygon fill="cornsilk" stroke="none" points="94,-74.42 0,-74.42 0,-27.42 94,-27.42 94,-74.42"/>
<text text-anchor="middle" x="47" y="-42.42" font-family="Times New Roman,serif" font-size="35.00">R161</text>
</a>
</g>
</g>
<!-- R161&#45;&gt;R79 -->
<g id="edge5" class="edge">
<title>R161&#45;&gt;R79</title>
<path fill="none" stroke="black" d="M93.9,-37.02C194.51,-9.49 438.13,40.77 597,-62.92 625.57,-81.57 639.57,-119.25 646.25,-147.04"/>
<polygon fill="black" stroke="black" points="642.99,-147.49 648.54,-156.52 649.82,-146 642.99,-147.49"/>
<text text-anchor="middle" x="350" y="-71.92" font-family="Times New Roman,serif" font-size="30.00"> &#160;&#160;683 &#160;&#160;0% &#160;&#160;2.2e&#45;26 mol/s &#160;&#160;&#160;1.00E+00</text>
</g>
</g>
</svg>
