<?xml version="1.0" encoding="UTF-8" standalone="no"?>
<!DOCTYPE svg PUBLIC "-//W3C//DTD SVG 1.1//EN"
 "http://www.w3.org/Graphics/SVG/1.1/DTD/svg11.dtd">
<!-- Generated by graphviz version 8.0.3 (20230416.2022)
 -->
<!-- Title: G Pages: 1 -->
<svg width="640pt" height="531pt"
 viewBox="0.00 0.00 720.00 597.36" xmlns="http://www.w3.org/2000/svg" xmlns:xlink="http://www.w3.org/1999/xlink">
<g id="graph0" class="graph" transform="scale(0.517381 0.517381) rotate(0) translate(4 1022.3)">
<title>G</title>
<polygon fill="white" stroke="none" points="-4,4 -4,-1022.3 1233,-1022.3 1233,4 -4,4"/>
<text text-anchor="middle" x="614.5" y="-985.5" font-family="Arial" font-size="36.00" fill="blue">Reaction Path Analysis</text>
<!-- R8 -->
<g id="node1" class="node">
<title>R8</title>
<g id="a_node1"><a xlink:href="8.svg" xlink:title="R8">
<polygon fill="cornsilk" stroke="none" points="639,-487.8 581,-487.8 581,-440.8 639,-440.8 639,-487.8"/>
<text text-anchor="middle" x="610" y="-455.8" font-family="Times New Roman,serif" font-size="35.00">R8</text>
</a>
</g>
</g>
<!-- R11 -->
<g id="node4" class="node">
<title>R11</title>
<g id="a_node4"><a xlink:href="11.svg" xlink:title="R11">
<polygon fill="cornsilk" stroke="none" points="1229,-942.8 1153,-942.8 1153,-895.8 1229,-895.8 1229,-942.8"/>
<text text-anchor="middle" x="1191" y="-910.8" font-family="Times New Roman,serif" font-size="35.00">R11</text>
</a>
</g>
</g>
<!-- R8&#45;&gt;R11 -->
<g id="edge3" class="edge">
<title>R8&#45;&gt;R11</title>
<path fill="none" stroke="black" d="M611.77,-487.7C614.8,-573.22 627.27,-865.25 657,-893.3 725.95,-958.35 1025.28,-936.01 1142.59,-924.43"/>
<polygon fill="black" stroke="black" points="1142.76,-927.83 1152.36,-923.35 1142.06,-920.87 1142.76,-927.83"/>
<text text-anchor="middle" x="900.5" y="-946.3" font-family="Times New Roman,serif" font-size="30.00"> &#160;&#160;16 &#160;&#160;0% &#160;&#160;4.67e&#45;08 mol/s &#160;&#160;&#160;1.00E+00</text>
</g>
<!-- R12 -->
<g id="node5" class="node">
<title>R12</title>
<g id="a_node5"><a xlink:href="12.svg" xlink:title="R12">
<polygon fill="cornsilk" stroke="none" points="1229,-877.8 1153,-877.8 1153,-830.8 1229,-830.8 1229,-877.8"/>
<text text-anchor="middle" x="1191" y="-845.8" font-family="Times New Roman,serif" font-size="35.00">R12</text>
</a>
</g>
</g>
<!-- R8&#45;&gt;R12 -->
<g id="edge4" class="edge">
<title>R8&#45;&gt;R12</title>
<path fill="none" stroke="black" d="M612.25,-487.73C616.57,-564.38 631.99,-804.11 657,-827.3 692.12,-859.86 1018.19,-857.43 1142.33,-855.3"/>
<polygon fill="black" stroke="black" points="1142.07,-858.78 1152,-855.11 1141.94,-851.79 1142.07,-858.78"/>
<text text-anchor="middle" x="900.5" y="-865.3" font-family="Times New Roman,serif" font-size="30.00"> &#160;&#160;25 &#160;&#160;0% &#160;&#160;4.67e&#45;08 mol/s &#160;&#160;&#160;1.00E+00</text>
</g>
<!-- R21 -->
<g id="node6" class="node">
<title>R21</title>
<g id="a_node6"><a xlink:href="21.svg" xlink:title="R21">
<polygon fill="cornsilk" stroke="none" points="1229,-812.8 1153,-812.8 1153,-765.8 1229,-765.8 1229,-812.8"/>
<text text-anchor="middle" x="1191" y="-780.8" font-family="Times New Roman,serif" font-size="35.00">R21</text>
</a>
</g>
</g>
<!-- R8&#45;&gt;R21 -->
<g id="edge5" class="edge">
<title>R8&#45;&gt;R21</title>
<path fill="none" stroke="black" d="M610.98,-487.49C611.45,-551.05 616.48,-725.73 657,-762.3 692.56,-794.38 1018.36,-792.25 1142.37,-790.24"/>
<polygon fill="black" stroke="black" points="1142.1,-793.73 1152.04,-790.06 1141.98,-786.73 1142.1,-793.73"/>
<text text-anchor="middle" x="900.5" y="-799.3" font-family="Times New Roman,serif" font-size="30.00"> &#160;&#160;26 &#160;&#160;0% &#160;&#160;4.67e&#45;08 mol/s &#160;&#160;&#160;1.00E+00</text>
</g>
<!-- R36 -->
<g id="node7" class="node">
<title>R36</title>
<g id="a_node7"><a xlink:href="36.svg" xlink:title="R36">
<polygon fill="cornsilk" stroke="none" points="1229,-747.8 1153,-747.8 1153,-700.8 1229,-700.8 1229,-747.8"/>
<text text-anchor="middle" x="1191" y="-715.8" font-family="Times New Roman,serif" font-size="35.00">R36</text>
</a>
</g>
</g>
<!-- R8&#45;&gt;R36 -->
<g id="edge6" class="edge">
<title>R8&#45;&gt;R36</title>
<path fill="none" stroke="black" d="M612.11,-487.68C615.19,-541.03 625.73,-669.21 657,-696.3 693.21,-727.65 1018.61,-726.62 1142.45,-725.07"/>
<polygon fill="black" stroke="black" points="1142.14,-728.56 1152.1,-724.93 1142.05,-721.56 1142.14,-728.56"/>
<text text-anchor="middle" x="900.5" y="-734.3" font-family="Times New Roman,serif" font-size="30.00"> &#160;&#160;41 &#160;&#160;0% &#160;&#160;4.67e&#45;08 mol/s &#160;&#160;&#160;1.00E+00</text>
</g>
<!-- R37 -->
<g id="node8" class="node">
<title>R37</title>
<g id="a_node8"><a xlink:href="37.svg" xlink:title="R37">
<polygon fill="cornsilk" stroke="none" points="1229,-682.8 1153,-682.8 1153,-635.8 1229,-635.8 1229,-682.8"/>
<text text-anchor="middle" x="1191" y="-650.8" font-family="Times New Roman,serif" font-size="35.00">R37</text>
</a>
</g>
</g>
<!-- R8&#45;&gt;R37 -->
<g id="edge7" class="edge">
<title>R8&#45;&gt;R37</title>
<path fill="none" stroke="black" d="M614.06,-487.65C620.03,-529.19 634.62,-613.3 657,-631.3 694.29,-661.28 1018.39,-661.11 1142.2,-659.92"/>
<polygon fill="black" stroke="black" points="1142.23,-663.41 1152.19,-659.81 1142.16,-656.41 1142.23,-663.41"/>
<text text-anchor="middle" x="900.5" y="-668.3" font-family="Times New Roman,serif" font-size="30.00"> &#160;&#160;42 &#160;&#160;0% &#160;&#160;4.67e&#45;08 mol/s &#160;&#160;&#160;1.00E+00</text>
</g>
<!-- R50 -->
<g id="node9" class="node">
<title>R50</title>
<g id="a_node9"><a xlink:href="50.svg" xlink:title="R50">
<polygon fill="cornsilk" stroke="none" points="1229,-617.8 1153,-617.8 1153,-570.8 1229,-570.8 1229,-617.8"/>
<text text-anchor="middle" x="1191" y="-585.8" font-family="Times New Roman,serif" font-size="35.00">R50</text>
</a>
</g>
</g>
<!-- R8&#45;&gt;R50 -->
<g id="edge8" class="edge">
<title>R8&#45;&gt;R50</title>
<path fill="none" stroke="black" d="M614.12,-487.39C618.8,-511.99 630.14,-549.86 657,-568.3 696.44,-595.37 1019.22,-595.68 1142.44,-594.79"/>
<polygon fill="black" stroke="black" points="1142.41,-598.28 1152.38,-594.7 1142.35,-591.28 1142.41,-598.28"/>
<text text-anchor="middle" x="900.5" y="-603.3" font-family="Times New Roman,serif" font-size="30.00"> &#160;&#160;56 &#160;&#160;0% &#160;&#160;4.67e&#45;08 mol/s &#160;&#160;&#160;1.00E+00</text>
</g>
<!-- R51 -->
<g id="node10" class="node">
<title>R51</title>
<g id="a_node10"><a xlink:href="51.svg" xlink:title="R51">
<polygon fill="cornsilk" stroke="none" points="1229,-552.8 1153,-552.8 1153,-505.8 1229,-505.8 1229,-552.8"/>
<text text-anchor="middle" x="1191" y="-520.8" font-family="Times New Roman,serif" font-size="35.00">R51</text>
</a>
</g>
</g>
<!-- R8&#45;&gt;R51 -->
<g id="edge9" class="edge">
<title>R8&#45;&gt;R51</title>
<path fill="none" stroke="black" d="M634.02,-487.41C640.87,-492.94 648.77,-498.15 657,-501.3 744.96,-534.9 1029.18,-532.8 1142.61,-530.5"/>
<polygon fill="black" stroke="black" points="1142.44,-533.98 1152.36,-530.27 1142.29,-526.99 1142.44,-533.98"/>
<text text-anchor="middle" x="900.5" y="-540.3" font-family="Times New Roman,serif" font-size="30.00"> &#160;&#160;57 &#160;&#160;0% &#160;&#160;4.67e&#45;08 mol/s &#160;&#160;&#160;1.00E+00</text>
</g>
<!-- R59 -->
<g id="node11" class="node">
<title>R59</title>
<g id="a_node11"><a xlink:href="59.svg" xlink:title="R59">
<polygon fill="cornsilk" stroke="none" points="1229,-487.8 1153,-487.8 1153,-440.8 1229,-440.8 1229,-487.8"/>
<text text-anchor="middle" x="1191" y="-455.8" font-family="Times New Roman,serif" font-size="35.00">R59</text>
</a>
</g>
</g>
<!-- R8&#45;&gt;R59 -->
<g id="edge10" class="edge">
<title>R8&#45;&gt;R59</title>
<path fill="none" stroke="black" d="M638.93,-464.3C731.07,-464.3 1026.18,-464.3 1142.36,-464.3"/>
<polygon fill="black" stroke="black" points="1142.36,-467.8 1152.36,-464.3 1142.36,-460.8 1142.36,-467.8"/>
<text text-anchor="middle" x="900.5" y="-473.3" font-family="Times New Roman,serif" font-size="30.00"> &#160;&#160;65 &#160;&#160;0% &#160;&#160;4.67e&#45;08 mol/s &#160;&#160;&#160;1.00E+00</text>
</g>
<!-- R76 -->
<g id="node12" class="node">
<title>R76</title>
<g id="a_node12"><a xlink:href="76.svg" xlink:title="R76">
<polygon fill="cornsilk" stroke="none" points="1229,-422.8 1153,-422.8 1153,-375.8 1229,-375.8 1229,-422.8"/>
<text text-anchor="middle" x="1191" y="-390.8" font-family="Times New Roman,serif" font-size="35.00">R76</text>
</a>
</g>
</g>
<!-- R8&#45;&gt;R76 -->
<g id="edge11" class="edge">
<title>R8&#45;&gt;R76</title>
<path fill="none" stroke="black" d="M634.02,-441.18C640.87,-435.65 648.77,-430.44 657,-427.3 825.82,-362.8 1046.76,-380.32 1142.43,-392.33"/>
<polygon fill="black" stroke="black" points="1141.82,-395.91 1152.19,-393.72 1142.72,-388.97 1141.82,-395.91"/>
<text text-anchor="middle" x="900.5" y="-436.3" font-family="Times New Roman,serif" font-size="30.00"> &#160;&#160;82 &#160;&#160;0% &#160;&#160;4.67e&#45;08 mol/s &#160;&#160;&#160;1.00E+00</text>
</g>
<!-- R77 -->
<g id="node13" class="node">
<title>R77</title>
<g id="a_node13"><a xlink:href="77.svg" xlink:title="R77">
<polygon fill="cornsilk" stroke="none" points="1229,-357.8 1153,-357.8 1153,-310.8 1229,-310.8 1229,-357.8"/>
<text text-anchor="middle" x="1191" y="-325.8" font-family="Times New Roman,serif" font-size="35.00">R77</text>
</a>
</g>
</g>
<!-- R8&#45;&gt;R77 -->
<g id="edge12" class="edge">
<title>R8&#45;&gt;R77</title>
<path fill="none" stroke="black" d="M612.46,-441.13C615.62,-412.93 625.58,-366.33 657,-344.3 734.25,-290.1 1026.63,-315.9 1142.39,-328.64"/>
<polygon fill="black" stroke="black" points="1141.7,-332.2 1152.03,-329.83 1142.48,-325.24 1141.7,-332.2"/>
<text text-anchor="middle" x="900.5" y="-353.3" font-family="Times New Roman,serif" font-size="30.00"> &#160;&#160;83 &#160;&#160;0% &#160;&#160;4.67e&#45;08 mol/s &#160;&#160;&#160;1.00E+00</text>
</g>
<!-- R78 -->
<g id="node14" class="node">
<title>R78</title>
<g id="a_node14"><a xlink:href="78.svg" xlink:title="R78">
<polygon fill="cornsilk" stroke="none" points="1229,-292.8 1153,-292.8 1153,-245.8 1229,-245.8 1229,-292.8"/>
<text text-anchor="middle" x="1191" y="-260.8" font-family="Times New Roman,serif" font-size="35.00">R78</text>
</a>
</g>
</g>
<!-- R8&#45;&gt;R78 -->
<g id="edge13" class="edge">
<title>R8&#45;&gt;R78</title>
<path fill="none" stroke="black" d="M613.14,-440.93C617.9,-394.86 631.02,-294.93 657,-274.3 694.45,-244.54 1019.09,-259.59 1142.59,-266.48"/>
<polygon fill="black" stroke="black" points="1142.02,-270.01 1152.2,-267.08 1142.42,-263.02 1142.02,-270.01"/>
<text text-anchor="middle" x="900.5" y="-283.3" font-family="Times New Roman,serif" font-size="30.00"> &#160;&#160;84 &#160;&#160;0% &#160;&#160;4.67e&#45;08 mol/s &#160;&#160;&#160;1.00E+00</text>
</g>
<!-- R79 -->
<g id="node15" class="node">
<title>R79</title>
<g id="a_node15"><a xlink:href="79.svg" xlink:title="R79">
<polygon fill="cornsilk" stroke="none" points="1229,-227.8 1153,-227.8 1153,-180.8 1229,-180.8 1229,-227.8"/>
<text text-anchor="middle" x="1191" y="-195.8" font-family="Times New Roman,serif" font-size="35.00">R79</text>
</a>
</g>
</g>
<!-- R8&#45;&gt;R79 -->
<g id="edge14" class="edge">
<title>R8&#45;&gt;R79</title>
<path fill="none" stroke="black" d="M611.82,-440.91C614.3,-385.49 623.74,-248.72 657,-220.3 693.38,-189.2 1018.67,-197.9 1142.47,-202.39"/>
<polygon fill="black" stroke="black" points="1141.99,-205.91 1152.11,-202.79 1142.25,-198.92 1141.99,-205.91"/>
<text text-anchor="middle" x="900.5" y="-229.3" font-family="Times New Roman,serif" font-size="30.00"> &#160;&#160;85 &#160;&#160;0% &#160;&#160;4.67e&#45;08 mol/s &#160;&#160;&#160;1.00E+00</text>
</g>
<!-- R80 -->
<g id="node16" class="node">
<title>R80</title>
<g id="a_node16"><a xlink:href="80.svg" xlink:title="R80">
<polygon fill="cornsilk" stroke="none" points="1229,-162.8 1153,-162.8 1153,-115.8 1229,-115.8 1229,-162.8"/>
<text text-anchor="middle" x="1191" y="-130.8" font-family="Times New Roman,serif" font-size="35.00">R80</text>
</a>
</g>
</g>
<!-- R8&#45;&gt;R80 -->
<g id="edge15" class="edge">
<title>R8&#45;&gt;R80</title>
<path fill="none" stroke="black" d="M610.9,-441.16C611.14,-376.88 615.59,-198.4 657,-161.3 692.65,-129.35 1018.39,-134.65 1142.39,-137.88"/>
<polygon fill="black" stroke="black" points="1141.96,-141.39 1152.05,-138.16 1142.14,-134.4 1141.96,-141.39"/>
<text text-anchor="middle" x="900.5" y="-170.3" font-family="Times New Roman,serif" font-size="30.00"> &#160;&#160;86 &#160;&#160;0% &#160;&#160;4.67e&#45;08 mol/s &#160;&#160;&#160;1.00E+00</text>
</g>
<!-- R41 -->
<g id="node17" class="node">
<title>R41</title>
<g id="a_node17"><a xlink:href="41.svg" xlink:title="R41">
<polygon fill="cornsilk" stroke="none" points="1229,-83.8 1153,-83.8 1153,-36.8 1229,-36.8 1229,-83.8"/>
<text text-anchor="middle" x="1191" y="-51.8" font-family="Times New Roman,serif" font-size="35.00">R41</text>
</a>
</g>
</g>
<!-- R8&#45;&gt;R41 -->
<g id="edge16" class="edge">
<title>R8&#45;&gt;R41</title>
<path fill="none" stroke="black" d="M612.22,-441C616.49,-364.22 631.82,-122.63 657,-99.3 694.88,-64.2 1054.56,-83.12 1142.18,-74.72"/>
<polygon fill="black" stroke="black" points="1142.61,-78.06 1152.06,-73.28 1141.69,-71.12 1142.61,-78.06"/>
<text text-anchor="middle" x="900.5" y="-108.3" font-family="Times New Roman,serif" font-size="30.00"> &#160;&#160;99 &#160;&#160;0% &#160;&#160;1.01e&#45;11 mol/s &#160;&#160;&#160;1.00E+00</text>
</g>
<!-- R8&#45;&gt;R41 -->
<g id="edge17" class="edge">
<title>R8&#45;&gt;R41</title>
<path fill="none" stroke="black" stroke-width="5" d="M611.74,-441.01C614.66,-355.92 626.8,-65.41 657,-38.3 733.12,30.05 1006.2,-9.43 1132.69,-36.41"/>
<polygon fill="black" stroke="black" stroke-width="5" points="1125.68,-44.15 1147.1,-39.95 1129.47,-27.07 1125.68,-44.15"/>
<text text-anchor="middle" x="900.5" y="-47.3" font-family="Times New Roman,serif" font-size="30.00"> &#160;&#160;436 &#160;&#160;94% &#160;&#160;1.15e&#45;05 mol/s &#160;&#160;&#160;8.80E&#45;07</text>
</g>
<!-- R3 -->
<g id="node2" class="node">
<title>R3</title>
<g id="a_node2"><a xlink:href="3.svg" xlink:title="R3">
<polygon fill="cornsilk" stroke="none" points="58,-520.8 0,-520.8 0,-473.8 58,-473.8 58,-520.8"/>
<text text-anchor="middle" x="29" y="-488.8" font-family="Times New Roman,serif" font-size="35.00">R3</text>
</a>
</g>
</g>
<!-- R3&#45;&gt;R8 -->
<g id="edge1" class="edge">
<title>R3&#45;&gt;R8</title>
<path fill="none" stroke="black" stroke-width="6" d="M57.96,-497.85C137.01,-499.04 368.71,-499.99 559,-475.3 559.56,-475.22 560.13,-475.15 560.7,-475.07"/>
<polygon fill="black" stroke="black" stroke-width="6" points="557.34,-486.26 575.12,-472.33 553.56,-465.6 557.34,-486.26"/>
<text text-anchor="middle" x="319.5" y="-507.3" font-family="Times New Roman,serif" font-size="30.00"> &#160;&#160;8 &#160;&#160;100% &#160;&#160;4.67e&#45;08 mol/s &#160;&#160;&#160;1.00E+00</text>
</g>
<!-- R1 -->
<g id="node3" class="node">
<title>R1</title>
<g id="a_node3"><a xlink:href="1.svg" xlink:title="R1">
<polygon fill="cornsilk" stroke="none" points="58,-455.8 0,-455.8 0,-408.8 58,-408.8 58,-455.8"/>
<text text-anchor="middle" x="29" y="-423.8" font-family="Times New Roman,serif" font-size="35.00">R1</text>
</a>
</g>
</g>
<!-- R1&#45;&gt;R8 -->
<g id="edge2" class="edge">
<title>R1&#45;&gt;R8</title>
<path fill="none" stroke="black" stroke-width="6" d="M57.99,-429.01C137.57,-420.47 371.51,-401.02 559,-442.3 559.81,-442.47 560.62,-442.67 561.44,-442.87"/>
<polygon fill="black" stroke="black" stroke-width="6" points="552.76,-451.06 575.1,-447.71 559.66,-431.22 552.76,-451.06"/>
<text text-anchor="middle" x="319.5" y="-451.3" font-family="Times New Roman,serif" font-size="30.00"> &#160;&#160;8 &#160;&#160;100% &#160;&#160;4.67e&#45;08 mol/s &#160;&#160;&#160;1.00E+00</text>
</g>
</g>
</svg>
