<?xml version="1.0" encoding="UTF-8" standalone="no"?>
<!DOCTYPE svg PUBLIC "-//W3C//DTD SVG 1.1//EN"
 "http://www.w3.org/Graphics/SVG/1.1/DTD/svg11.dtd">
<!-- Generated by graphviz version 8.0.3 (20230416.2022)
 -->
<!-- Title: G Pages: 1 -->
<svg width="640pt" height="549pt"
 viewBox="0.00 0.00 720.00 618.11" xmlns="http://www.w3.org/2000/svg" xmlns:xlink="http://www.w3.org/1999/xlink">
<g id="graph0" class="graph" transform="scale(0.537364 0.537364) rotate(0) translate(4 1018.45)">
<title>G</title>
<polygon fill="white" stroke="none" points="-4,4 -4,-1018.45 1187,-1018.45 1187,4 -4,4"/>
<text text-anchor="middle" x="591.5" y="-981.65" font-family="Arial" font-size="36.00" fill="blue">Reaction Path Analysis</text>
<!-- R8 -->
<g id="node1" class="node">
<title>R8</title>
<g id="a_node1"><a xlink:href="8.svg" xlink:title="R8">
<polygon fill="cornsilk" stroke="none" points="616,-485.95 558,-485.95 558,-438.95 616,-438.95 616,-485.95"/>
<text text-anchor="middle" x="587" y="-453.95" font-family="Times New Roman,serif" font-size="35.00">R8</text>
</a>
</g>
</g>
<!-- R11 -->
<g id="node4" class="node">
<title>R11</title>
<g id="a_node4"><a xlink:href="11.svg" xlink:title="R11">
<polygon fill="cornsilk" stroke="none" points="1183,-940.95 1107,-940.95 1107,-893.95 1183,-893.95 1183,-940.95"/>
<text text-anchor="middle" x="1145" y="-908.95" font-family="Times New Roman,serif" font-size="35.00">R11</text>
</a>
</g>
</g>
<!-- R8&#45;&gt;R11 -->
<g id="edge3" class="edge">
<title>R8&#45;&gt;R11</title>
<path fill="none" stroke="black" d="M588.77,-485.8C591.84,-571.1 604.4,-862.41 634,-890.45 699.41,-952.41 982.39,-933.01 1096.27,-922.38"/>
<polygon fill="black" stroke="black" points="1096.44,-925.78 1106.06,-921.35 1095.78,-918.81 1096.44,-925.78"/>
<text text-anchor="middle" x="866" y="-942.45" font-family="Times New Roman,serif" font-size="30.00"> &#160;&#160;16 &#160;&#160;7% &#160;&#160;2.18e&#45;15 mol/s &#160;&#160;&#160;1.00E+00</text>
</g>
<!-- R12 -->
<g id="node5" class="node">
<title>R12</title>
<g id="a_node5"><a xlink:href="12.svg" xlink:title="R12">
<polygon fill="cornsilk" stroke="none" points="1183,-875.95 1107,-875.95 1107,-828.95 1183,-828.95 1183,-875.95"/>
<text text-anchor="middle" x="1145" y="-843.95" font-family="Times New Roman,serif" font-size="35.00">R12</text>
</a>
</g>
</g>
<!-- R8&#45;&gt;R12 -->
<g id="edge4" class="edge">
<title>R8&#45;&gt;R12</title>
<path fill="none" stroke="black" d="M589.25,-485.88C593.58,-562.53 609.02,-802.23 634,-825.45 667.38,-856.47 976.05,-855.08 1096.33,-853.33"/>
<polygon fill="black" stroke="black" points="1096.09,-856.82 1106.03,-853.17 1095.98,-849.82 1096.09,-856.82"/>
<text text-anchor="middle" x="866" y="-862.45" font-family="Times New Roman,serif" font-size="30.00"> &#160;&#160;25 &#160;&#160;7% &#160;&#160;2.18e&#45;15 mol/s &#160;&#160;&#160;1.00E+00</text>
</g>
<!-- R21 -->
<g id="node6" class="node">
<title>R21</title>
<g id="a_node6"><a xlink:href="21.svg" xlink:title="R21">
<polygon fill="cornsilk" stroke="none" points="1183,-810.95 1107,-810.95 1107,-763.95 1183,-763.95 1183,-810.95"/>
<text text-anchor="middle" x="1145" y="-778.95" font-family="Times New Roman,serif" font-size="35.00">R21</text>
</a>
</g>
</g>
<!-- R8&#45;&gt;R21 -->
<g id="edge5" class="edge">
<title>R8&#45;&gt;R21</title>
<path fill="none" stroke="black" d="M587.98,-485.64C588.47,-549.19 593.53,-723.84 634,-760.45 667.8,-791.02 976.21,-789.9 1096.38,-788.28"/>
<polygon fill="black" stroke="black" points="1096.12,-791.77 1106.07,-788.13 1096.02,-784.77 1096.12,-791.77"/>
<text text-anchor="middle" x="866" y="-797.45" font-family="Times New Roman,serif" font-size="30.00"> &#160;&#160;26 &#160;&#160;7% &#160;&#160;2.18e&#45;15 mol/s &#160;&#160;&#160;1.00E+00</text>
</g>
<!-- R36 -->
<g id="node7" class="node">
<title>R36</title>
<g id="a_node7"><a xlink:href="36.svg" xlink:title="R36">
<polygon fill="cornsilk" stroke="none" points="1183,-745.95 1107,-745.95 1107,-698.95 1183,-698.95 1183,-745.95"/>
<text text-anchor="middle" x="1145" y="-713.95" font-family="Times New Roman,serif" font-size="35.00">R36</text>
</a>
</g>
</g>
<!-- R8&#45;&gt;R36 -->
<g id="edge6" class="edge">
<title>R8&#45;&gt;R36</title>
<path fill="none" stroke="black" d="M589.12,-485.83C592.2,-539.17 602.76,-667.33 634,-694.45 668.41,-724.33 976.45,-724.28 1096.45,-723.1"/>
<polygon fill="black" stroke="black" points="1096.16,-726.59 1106.13,-722.98 1096.09,-719.59 1096.16,-726.59"/>
<text text-anchor="middle" x="866" y="-732.45" font-family="Times New Roman,serif" font-size="30.00"> &#160;&#160;41 &#160;&#160;7% &#160;&#160;2.18e&#45;15 mol/s &#160;&#160;&#160;1.00E+00</text>
</g>
<!-- R37 -->
<g id="node8" class="node">
<title>R37</title>
<g id="a_node8"><a xlink:href="37.svg" xlink:title="R37">
<polygon fill="cornsilk" stroke="none" points="1183,-680.95 1107,-680.95 1107,-633.95 1183,-633.95 1183,-680.95"/>
<text text-anchor="middle" x="1145" y="-648.95" font-family="Times New Roman,serif" font-size="35.00">R37</text>
</a>
</g>
</g>
<!-- R8&#45;&gt;R37 -->
<g id="edge7" class="edge">
<title>R8&#45;&gt;R37</title>
<path fill="none" stroke="black" d="M591.07,-485.8C597.04,-527.34 611.64,-611.43 634,-629.45 669.48,-658.05 976.87,-658.77 1096.58,-657.95"/>
<polygon fill="black" stroke="black" points="1096.25,-661.44 1106.22,-657.87 1096.2,-654.44 1096.25,-661.44"/>
<text text-anchor="middle" x="866" y="-666.45" font-family="Times New Roman,serif" font-size="30.00"> &#160;&#160;42 &#160;&#160;7% &#160;&#160;2.18e&#45;15 mol/s &#160;&#160;&#160;1.00E+00</text>
</g>
<!-- R50 -->
<g id="node9" class="node">
<title>R50</title>
<g id="a_node9"><a xlink:href="50.svg" xlink:title="R50">
<polygon fill="cornsilk" stroke="none" points="1183,-615.95 1107,-615.95 1107,-568.95 1183,-568.95 1183,-615.95"/>
<text text-anchor="middle" x="1145" y="-583.95" font-family="Times New Roman,serif" font-size="35.00">R50</text>
</a>
</g>
</g>
<!-- R8&#45;&gt;R50 -->
<g id="edge8" class="edge">
<title>R8&#45;&gt;R50</title>
<path fill="none" stroke="black" d="M591.29,-485.75C596.09,-510.11 607.53,-547.27 634,-565.45 671.48,-591.19 976.36,-593.02 1096.03,-592.73"/>
<polygon fill="black" stroke="black" points="1096.03,-596.22 1106.02,-592.69 1096.01,-589.22 1096.03,-596.22"/>
<text text-anchor="middle" x="866" y="-601.45" font-family="Times New Roman,serif" font-size="30.00"> &#160;&#160;56 &#160;&#160;7% &#160;&#160;2.18e&#45;15 mol/s &#160;&#160;&#160;1.00E+00</text>
</g>
<!-- R51 -->
<g id="node10" class="node">
<title>R51</title>
<g id="a_node10"><a xlink:href="51.svg" xlink:title="R51">
<polygon fill="cornsilk" stroke="none" points="1183,-550.95 1107,-550.95 1107,-503.95 1183,-503.95 1183,-550.95"/>
<text text-anchor="middle" x="1145" y="-518.95" font-family="Times New Roman,serif" font-size="35.00">R51</text>
</a>
</g>
</g>
<!-- R8&#45;&gt;R51 -->
<g id="edge9" class="edge">
<title>R8&#45;&gt;R51</title>
<path fill="none" stroke="black" d="M611.51,-485.94C618.25,-491.33 625.96,-496.37 634,-499.45 717.55,-531.48 986.33,-530.41 1096.36,-528.52"/>
<polygon fill="black" stroke="black" points="1096.19,-532.01 1106.12,-528.33 1096.06,-525.01 1096.19,-532.01"/>
<text text-anchor="middle" x="866" y="-537.45" font-family="Times New Roman,serif" font-size="30.00"> &#160;&#160;57 &#160;&#160;7% &#160;&#160;2.18e&#45;15 mol/s &#160;&#160;&#160;1.00E+00</text>
</g>
<!-- R59 -->
<g id="node11" class="node">
<title>R59</title>
<g id="a_node11"><a xlink:href="59.svg" xlink:title="R59">
<polygon fill="cornsilk" stroke="none" points="1183,-485.95 1107,-485.95 1107,-438.95 1183,-438.95 1183,-485.95"/>
<text text-anchor="middle" x="1145" y="-453.95" font-family="Times New Roman,serif" font-size="35.00">R59</text>
</a>
</g>
</g>
<!-- R8&#45;&gt;R59 -->
<g id="edge10" class="edge">
<title>R8&#45;&gt;R59</title>
<path fill="none" stroke="black" d="M615.95,-462.45C705.16,-462.45 983.75,-462.45 1096.21,-462.45"/>
<polygon fill="black" stroke="black" points="1096.2,-465.95 1106.2,-462.45 1096.2,-458.95 1096.2,-465.95"/>
<text text-anchor="middle" x="866" y="-471.45" font-family="Times New Roman,serif" font-size="30.00"> &#160;&#160;65 &#160;&#160;7% &#160;&#160;2.18e&#45;15 mol/s &#160;&#160;&#160;1.00E+00</text>
</g>
<!-- R76 -->
<g id="node12" class="node">
<title>R76</title>
<g id="a_node12"><a xlink:href="76.svg" xlink:title="R76">
<polygon fill="cornsilk" stroke="none" points="1183,-420.95 1107,-420.95 1107,-373.95 1183,-373.95 1183,-420.95"/>
<text text-anchor="middle" x="1145" y="-388.95" font-family="Times New Roman,serif" font-size="35.00">R76</text>
</a>
</g>
</g>
<!-- R8&#45;&gt;R76 -->
<g id="edge11" class="edge">
<title>R8&#45;&gt;R76</title>
<path fill="none" stroke="black" d="M611.51,-438.96C618.25,-433.58 625.96,-428.53 634,-425.45 794.32,-363.98 1003.88,-379.48 1096.48,-390.68"/>
<polygon fill="black" stroke="black" points="1095.83,-394.25 1106.18,-392.02 1096.69,-387.31 1095.83,-394.25"/>
<text text-anchor="middle" x="866" y="-434.45" font-family="Times New Roman,serif" font-size="30.00"> &#160;&#160;82 &#160;&#160;7% &#160;&#160;2.18e&#45;15 mol/s &#160;&#160;&#160;1.00E+00</text>
</g>
<!-- R77 -->
<g id="node13" class="node">
<title>R77</title>
<g id="a_node13"><a xlink:href="77.svg" xlink:title="R77">
<polygon fill="cornsilk" stroke="none" points="1183,-355.95 1107,-355.95 1107,-308.95 1183,-308.95 1183,-355.95"/>
<text text-anchor="middle" x="1145" y="-323.95" font-family="Times New Roman,serif" font-size="35.00">R77</text>
</a>
</g>
</g>
<!-- R8&#45;&gt;R77 -->
<g id="edge12" class="edge">
<title>R8&#45;&gt;R77</title>
<path fill="none" stroke="black" d="M589.59,-439C592.89,-410.99 602.99,-365.2 634,-343.45 707.5,-291.89 984.47,-315.1 1096.52,-326.99"/>
<polygon fill="black" stroke="black" points="1095.83,-330.54 1106.15,-328.13 1096.58,-323.58 1095.83,-330.54"/>
<text text-anchor="middle" x="866" y="-352.45" font-family="Times New Roman,serif" font-size="30.00"> &#160;&#160;83 &#160;&#160;7% &#160;&#160;2.18e&#45;15 mol/s &#160;&#160;&#160;1.00E+00</text>
</g>
<!-- R78 -->
<g id="node14" class="node">
<title>R78</title>
<g id="a_node14"><a xlink:href="78.svg" xlink:title="R78">
<polygon fill="cornsilk" stroke="none" points="1183,-290.95 1107,-290.95 1107,-243.95 1183,-243.95 1183,-290.95"/>
<text text-anchor="middle" x="1145" y="-258.95" font-family="Times New Roman,serif" font-size="35.00">R78</text>
</a>
</g>
</g>
<!-- R8&#45;&gt;R78 -->
<g id="edge13" class="edge">
<title>R8&#45;&gt;R78</title>
<path fill="none" stroke="black" d="M590.22,-438.99C595.09,-393.25 608.37,-294.85 634,-274.45 669.61,-246.11 976.92,-258.77 1096.59,-264.86"/>
<polygon fill="black" stroke="black" points="1096.07,-268.39 1106.24,-265.41 1096.43,-261.4 1096.07,-268.39"/>
<text text-anchor="middle" x="866" y="-283.45" font-family="Times New Roman,serif" font-size="30.00"> &#160;&#160;84 &#160;&#160;7% &#160;&#160;2.18e&#45;15 mol/s &#160;&#160;&#160;1.00E+00</text>
</g>
<!-- R79 -->
<g id="node15" class="node">
<title>R79</title>
<g id="a_node15"><a xlink:href="79.svg" xlink:title="R79">
<polygon fill="cornsilk" stroke="none" points="1183,-225.95 1107,-225.95 1107,-178.95 1183,-178.95 1183,-225.95"/>
<text text-anchor="middle" x="1145" y="-193.95" font-family="Times New Roman,serif" font-size="35.00">R79</text>
</a>
</g>
</g>
<!-- R8&#45;&gt;R79 -->
<g id="edge14" class="edge">
<title>R8&#45;&gt;R79</title>
<path fill="none" stroke="black" d="M588.86,-439.26C591.43,-384.32 601.06,-248.72 634,-220.45 668.56,-190.8 976.51,-197.16 1096.47,-200.82"/>
<polygon fill="black" stroke="black" points="1096.03,-204.34 1106.14,-201.15 1096.25,-197.34 1096.03,-204.34"/>
<text text-anchor="middle" x="866" y="-229.45" font-family="Times New Roman,serif" font-size="30.00"> &#160;&#160;85 &#160;&#160;7% &#160;&#160;2.18e&#45;15 mol/s &#160;&#160;&#160;1.00E+00</text>
</g>
<!-- R80 -->
<g id="node16" class="node">
<title>R80</title>
<g id="a_node16"><a xlink:href="80.svg" xlink:title="R80">
<polygon fill="cornsilk" stroke="none" points="1183,-160.95 1107,-160.95 1107,-113.95 1183,-113.95 1183,-160.95"/>
<text text-anchor="middle" x="1145" y="-128.95" font-family="Times New Roman,serif" font-size="35.00">R80</text>
</a>
</g>
</g>
<!-- R8&#45;&gt;R80 -->
<g id="edge15" class="edge">
<title>R8&#45;&gt;R80</title>
<path fill="none" stroke="black" d="M587.93,-439.02C588.29,-374.8 593.05,-198.33 634,-161.45 667.85,-130.97 976.23,-133.97 1096.39,-136.33"/>
<polygon fill="black" stroke="black" points="1096.01,-139.84 1106.08,-136.55 1096.15,-132.84 1096.01,-139.84"/>
<text text-anchor="middle" x="866" y="-170.45" font-family="Times New Roman,serif" font-size="30.00"> &#160;&#160;86 &#160;&#160;7% &#160;&#160;2.18e&#45;15 mol/s &#160;&#160;&#160;1.00E+00</text>
</g>
<!-- R41 -->
<g id="node17" class="node">
<title>R41</title>
<g id="a_node17"><a xlink:href="41.svg" xlink:title="R41">
<polygon fill="cornsilk" stroke="none" points="1183,-81.95 1107,-81.95 1107,-34.95 1183,-34.95 1183,-81.95"/>
<text text-anchor="middle" x="1145" y="-49.95" font-family="Times New Roman,serif" font-size="35.00">R41</text>
</a>
</g>
</g>
<!-- R8&#45;&gt;R41 -->
<g id="edge16" class="edge">
<title>R8&#45;&gt;R41</title>
<path fill="none" stroke="black" d="M589.25,-438.96C593.56,-362.1 608.97,-121.75 634,-98.45 669.99,-64.96 1012.09,-81.17 1096.38,-72.86"/>
<polygon fill="black" stroke="black" points="1096.62,-76.23 1106.06,-71.41 1095.68,-69.29 1096.62,-76.23"/>
<text text-anchor="middle" x="866" y="-107.45" font-family="Times New Roman,serif" font-size="30.00"> &#160;&#160;99 &#160;&#160;0% &#160;&#160;2.2e&#45;26 mol/s &#160;&#160;&#160;1.00E+00</text>
</g>
<!-- R8&#45;&gt;R41 -->
<g id="edge17" class="edge">
<title>R8&#45;&gt;R41</title>
<path fill="none" stroke="black" d="M588.74,-439.16C591.66,-354.07 603.8,-63.57 634,-36.45 708.4,30.35 980.28,-10.96 1096.66,-36.74"/>
<polygon fill="black" stroke="black" points="1095.57,-40.31 1106.1,-39.1 1097.12,-33.48 1095.57,-40.31"/>
<text text-anchor="middle" x="866" y="-45.45" font-family="Times New Roman,serif" font-size="30.00"> &#160;&#160;436 &#160;&#160;0% &#160;&#160;2.5e&#45;20 mol/s &#160;&#160;&#160;8.80E&#45;07</text>
</g>
<!-- R3 -->
<g id="node2" class="node">
<title>R3</title>
<g id="a_node2"><a xlink:href="3.svg" xlink:title="R3">
<polygon fill="cornsilk" stroke="none" points="58,-518.95 0,-518.95 0,-471.95 58,-471.95 58,-518.95"/>
<text text-anchor="middle" x="29" y="-486.95" font-family="Times New Roman,serif" font-size="35.00">R3</text>
</a>
</g>
</g>
<!-- R3&#45;&gt;R8 -->
<g id="edge1" class="edge">
<title>R3&#45;&gt;R8</title>
<path fill="none" stroke="black" stroke-width="6" d="M57.72,-496.55C132.84,-499.07 346.86,-503.1 537.93,-474.39"/>
<polygon fill="black" stroke="black" stroke-width="6" points="534.29,-485.65 552.42,-472.17 531.03,-464.91 534.29,-485.65"/>
<text text-anchor="middle" x="308" y="-506.45" font-family="Times New Roman,serif" font-size="30.00"> &#160;&#160;8 &#160;&#160;100% &#160;&#160;2.18e&#45;15 mol/s &#160;&#160;&#160;1.00E+00</text>
</g>
<!-- R1 -->
<g id="node3" class="node">
<title>R1</title>
<g id="a_node3"><a xlink:href="1.svg" xlink:title="R1">
<polygon fill="cornsilk" stroke="none" points="58,-453.95 0,-453.95 0,-406.95 58,-406.95 58,-453.95"/>
<text text-anchor="middle" x="29" y="-421.95" font-family="Times New Roman,serif" font-size="35.00">R1</text>
</a>
</g>
</g>
<!-- R1&#45;&gt;R8 -->
<g id="edge2" class="edge">
<title>R1&#45;&gt;R8</title>
<path fill="none" stroke="black" stroke-width="6" d="M57.9,-426.25C133.92,-415.76 350.91,-392.26 538.07,-439.1"/>
<polygon fill="black" stroke="black" stroke-width="6" points="530.08,-448.44 552.11,-443.43 535.47,-428.15 530.08,-448.44"/>
<text text-anchor="middle" x="308" y="-449.45" font-family="Times New Roman,serif" font-size="30.00"> &#160;&#160;8 &#160;&#160;100% &#160;&#160;2.18e&#45;15 mol/s &#160;&#160;&#160;1.00E+00</text>
</g>
</g>
</svg>
