<?xml version="1.0" encoding="UTF-8" standalone="no"?>
<!DOCTYPE svg PUBLIC "-//W3C//DTD SVG 1.1//EN"
 "http://www.w3.org/Graphics/SVG/1.1/DTD/svg11.dtd">
<!-- Generated by graphviz version 8.0.3 (20230416.2022)
 -->
<!-- Title: G Pages: 1 -->
<svg width="640pt" height="248pt"
 viewBox="0.00 0.00 720.00 279.35" xmlns="http://www.w3.org/2000/svg" xmlns:xlink="http://www.w3.org/1999/xlink">
<g id="graph0" class="graph" transform="scale(0.507534 0.507534) rotate(0) translate(4 485.25)">
<title>G</title>
<polygon fill="white" stroke="none" points="-4,4 -4,-485.25 1257,-485.25 1257,4 -4,4"/>
<text text-anchor="middle" x="626.5" y="-448.45" font-family="Arial" font-size="36.00" fill="blue">Reaction Path Analysis</text>
<!-- R81 -->
<g id="node1" class="node">
<title>R81</title>
<g id="a_node1"><a xlink:href="81.svg" xlink:title="R81">
<polygon fill="cornsilk" stroke="none" points="669,-233.75 593,-233.75 593,-186.75 669,-186.75 669,-233.75"/>
<text text-anchor="middle" x="631" y="-201.75" font-family="Times New Roman,serif" font-size="35.00">R81</text>
</a>
</g>
</g>
<!-- R82 -->
<g id="node4" class="node">
<title>R82</title>
<g id="a_node4"><a xlink:href="82.svg" xlink:title="R82">
<polygon fill="cornsilk" stroke="none" points="1253,-266.75 1177,-266.75 1177,-219.75 1253,-219.75 1253,-266.75"/>
<text text-anchor="middle" x="1215" y="-234.75" font-family="Times New Roman,serif" font-size="35.00">R82</text>
</a>
</g>
</g>
<!-- R81&#45;&gt;R82 -->
<g id="edge3" class="edge">
<title>R81&#45;&gt;R82</title>
<path fill="none" stroke="black" stroke-width="3" d="M668.85,-218.44C674.89,-219.55 681.1,-220.55 687,-221.25 862.65,-242.36 1073.32,-244.14 1166.12,-243.74"/>
<polygon fill="black" stroke="black" stroke-width="3" points="1163.12,-247.24 1173.1,-243.68 1163.09,-240.24 1163.12,-247.24"/>
<text text-anchor="middle" x="923" y="-252.25" font-family="Times New Roman,serif" font-size="30.00"> &#160;&#160;142 &#160;&#160;50% &#160;&#160;0.0342 mol/s &#160;&#160;&#160;1.00E+00</text>
</g>
<!-- R83 -->
<g id="node5" class="node">
<title>R83</title>
<g id="a_node5"><a xlink:href="83.svg" xlink:title="R83">
<polygon fill="cornsilk" stroke="none" points="1253,-201.75 1177,-201.75 1177,-154.75 1253,-154.75 1253,-201.75"/>
<text text-anchor="middle" x="1215" y="-169.75" font-family="Times New Roman,serif" font-size="35.00">R83</text>
</a>
</g>
</g>
<!-- R81&#45;&gt;R83 -->
<g id="edge4" class="edge">
<title>R81&#45;&gt;R83</title>
<path fill="none" stroke="black" stroke-width="3" d="M668.72,-193.47C674.72,-191.34 680.95,-189.48 687,-188.25 860.67,-153.1 1073.11,-165.4 1166.32,-173.49"/>
<polygon fill="black" stroke="black" stroke-width="3" points="1162.82,-177.04 1173.09,-174.45 1163.44,-170.07 1162.82,-177.04"/>
<text text-anchor="middle" x="923" y="-197.25" font-family="Times New Roman,serif" font-size="30.00"> &#160;&#160;143 &#160;&#160;50% &#160;&#160;0.0342 mol/s &#160;&#160;&#160;1.00E+00</text>
</g>
<!-- R9 -->
<g id="node2" class="node">
<title>R9</title>
<g id="a_node2"><a xlink:href="9.svg" xlink:title="R9">
<polygon fill="cornsilk" stroke="none" points="76,-382.75 18,-382.75 18,-335.75 76,-335.75 76,-382.75"/>
<text text-anchor="middle" x="47" y="-350.75" font-family="Times New Roman,serif" font-size="35.00">R9</text>
</a>
</g>
</g>
<!-- R9&#45;&gt;R81 -->
<g id="edge1" class="edge">
<title>R9&#45;&gt;R81</title>
<path fill="none" stroke="black" d="M75.75,-367.17C159.72,-389.37 415.15,-443.7 575,-334.25 604.81,-313.84 618.64,-273.37 624.94,-244.21"/>
<polygon fill="black" stroke="black" points="628.52,-245.13 627.01,-234.65 621.65,-243.79 628.52,-245.13"/>
<text text-anchor="middle" x="339" y="-409.25" font-family="Times New Roman,serif" font-size="30.00"> &#160;&#160;87 &#160;&#160;0% &#160;&#160;0.0342 mol/s &#160;&#160;&#160;1.00E+00</text>
</g>
<!-- R13 -->
<g id="node3" class="node">
<title>R13</title>
<g id="a_node3"><a xlink:href="13.svg" xlink:title="R13">
<polygon fill="cornsilk" stroke="none" points="85,-317.75 9,-317.75 9,-270.75 85,-270.75 85,-317.75"/>
<text text-anchor="middle" x="47" y="-285.75" font-family="Times New Roman,serif" font-size="35.00">R13</text>
</a>
</g>
</g>
<!-- R13&#45;&gt;R81 -->
<g id="edge2" class="edge">
<title>R13&#45;&gt;R81</title>
<path fill="none" stroke="black" d="M84.78,-295.48C189.46,-298.44 487.11,-303.14 575,-264.25 586.43,-259.2 596.84,-250.64 605.46,-241.81"/>
<polygon fill="black" stroke="black" points="607.68,-244.47 611.84,-234.72 602.51,-239.75 607.68,-244.47"/>
<text text-anchor="middle" x="339" y="-306.25" font-family="Times New Roman,serif" font-size="30.00"> &#160;&#160;87 &#160;&#160;0% &#160;&#160;0.0342 mol/s &#160;&#160;&#160;1.00E+00</text>
</g>
<!-- R316 -->
<g id="node6" class="node">
<title>R316</title>
<g id="a_node6"><a xlink:href="316.svg" xlink:title="R316">
<polygon fill="cornsilk" stroke="none" points="94,-229.75 0,-229.75 0,-182.75 94,-182.75 94,-229.75"/>
<text text-anchor="middle" x="47" y="-197.75" font-family="Times New Roman,serif" font-size="35.00">R316</text>
</a>
</g>
</g>
<!-- R316&#45;&gt;R81 -->
<g id="edge5" class="edge">
<title>R316&#45;&gt;R81</title>
<path fill="none" stroke="black" stroke-width="5" d="M93.83,-215.22C96.93,-215.63 100,-215.98 103,-216.25 305.4,-234.5 362.03,-228.09 572.23,-216.02"/>
<polygon fill="black" stroke="black" stroke-width="5" points="567.59,-224.71 587.06,-214.84 566.6,-207.24 567.59,-224.71"/>
<text text-anchor="middle" x="339" y="-236.25" font-family="Times New Roman,serif" font-size="30.00"> &#160;&#160;464 &#160;&#160;99% &#160;&#160;209.0 mol/s &#160;&#160;&#160;1.30E&#45;05</text>
</g>
<!-- R316&#45;&gt;R81 -->
<g id="edge8" class="edge">
<title>R316&#45;&gt;R81</title>
<path fill="none" stroke="black" d="M91.16,-182.85C95.08,-181.41 99.06,-180.17 103,-179.25 205.17,-155.53 473.55,-152.63 575,-179.25 578.18,-180.09 581.38,-181.16 584.54,-182.39"/>
<polygon fill="black" stroke="black" points="582.88,-185.93 593.44,-186.8 585.73,-179.53 582.88,-185.93"/>
<text text-anchor="middle" x="339" y="-188.25" font-family="Times New Roman,serif" font-size="30.00"> &#160;&#160;790 &#160;&#160;0% &#160;&#160;0.00272 mol/s &#160;&#160;&#160;1.00E+00</text>
</g>
<!-- R280 -->
<g id="node7" class="node">
<title>R280</title>
<g id="a_node7"><a xlink:href="280.svg" xlink:title="R280">
<polygon fill="cornsilk" stroke="none" points="94,-121.75 0,-121.75 0,-74.75 94,-74.75 94,-121.75"/>
<text text-anchor="middle" x="47" y="-89.75" font-family="Times New Roman,serif" font-size="35.00">R280</text>
</a>
</g>
</g>
<!-- R280&#45;&gt;R81 -->
<g id="edge6" class="edge">
<title>R280&#45;&gt;R81</title>
<path fill="none" stroke="black" d="M93.89,-103.5C96.97,-103.78 100.03,-104.03 103,-104.25 155.34,-108.16 529.55,-97.01 575,-123.25 595.33,-134.99 609.28,-157.6 618.04,-176.83"/>
<polygon fill="black" stroke="black" points="615.14,-177.95 622.27,-185.78 621.58,-175.21 615.14,-177.95"/>
<text text-anchor="middle" x="339" y="-132.25" font-family="Times New Roman,serif" font-size="30.00"> &#160;&#160;465 &#160;&#160;0% &#160;&#160;0.238 mol/s &#160;&#160;&#160;1.11E&#45;02</text>
</g>
<!-- R280&#45;&gt;R81 -->
<g id="edge7" class="edge">
<title>R280&#45;&gt;R81</title>
<path fill="none" stroke="black" d="M83.56,-74.8C89.81,-71.69 96.43,-68.98 103,-67.25 305.91,-14.01 402.08,51.51 575,-67.25 610.36,-91.54 623,-141.98 627.51,-175.98"/>
<polygon fill="black" stroke="black" points="624.13,-176.28 628.74,-185.82 631.09,-175.49 624.13,-176.28"/>
<text text-anchor="middle" x="339" y="-76.25" font-family="Times New Roman,serif" font-size="30.00"> &#160;&#160;763 &#160;&#160;0% &#160;&#160;0.00269 mol/s &#160;&#160;&#160;9.89E&#45;01</text>
</g>
</g>
</svg>
