<?xml version="1.0" encoding="UTF-8" standalone="no"?>
<!DOCTYPE svg PUBLIC "-//W3C//DTD SVG 1.1//EN"
 "http://www.w3.org/Graphics/SVG/1.1/DTD/svg11.dtd">
<!-- Generated by graphviz version 8.0.3 (20230416.2022)
 -->
<!-- Title: G Pages: 1 -->
<svg width="640pt" height="182pt"
 viewBox="0.00 0.00 720.00 205.14" xmlns="http://www.w3.org/2000/svg" xmlns:xlink="http://www.w3.org/1999/xlink">
<g id="graph0" class="graph" transform="scale(0.49574 0.49574) rotate(0) translate(4 363.82)">
<title>G</title>
<polygon fill="white" stroke="none" points="-4,4 -4,-363.82 1287,-363.82 1287,4 -4,4"/>
<text text-anchor="middle" x="641.5" y="-327.02" font-family="Arial" font-size="36.00" fill="blue">Reaction Path Analysis</text>
<!-- R82 -->
<g id="node1" class="node">
<title>R82</title>
<g id="a_node1"><a xlink:href="82.svg" xlink:title="R82">
<polygon fill="cornsilk" stroke="none" points="675,-172.32 599,-172.32 599,-125.32 675,-125.32 675,-172.32"/>
<text text-anchor="middle" x="637" y="-140.32" font-family="Times New Roman,serif" font-size="35.00">R82</text>
</a>
</g>
</g>
<!-- R317 -->
<g id="node6" class="node">
<title>R317</title>
<g id="a_node6"><a xlink:href="317.svg" xlink:title="R317">
<polygon fill="cornsilk" stroke="none" points="1283,-216.32 1189,-216.32 1189,-169.32 1283,-169.32 1283,-216.32"/>
<text text-anchor="middle" x="1236" y="-184.32" font-family="Times New Roman,serif" font-size="35.00">R317</text>
</a>
</g>
</g>
<!-- R82&#45;&gt;R317 -->
<g id="edge5" class="edge">
<title>R82&#45;&gt;R317</title>
<path fill="none" stroke="black" d="M651.59,-172.25C661.17,-186.3 675.42,-202.91 693,-210.82 887.22,-298.16 963.78,-246.63 1178.39,-210.78"/>
<polygon fill="black" stroke="black" points="1178.75,-214.1 1188.05,-209.03 1177.61,-207.19 1178.75,-214.1"/>
<text text-anchor="middle" x="936.5" y="-267.82" font-family="Times New Roman,serif" font-size="30.00"> &#160;&#160;466 &#160;&#160;0% &#160;&#160;2.15e&#45;26 mol/s &#160;&#160;&#160;9.76E&#45;01</text>
</g>
<!-- R82&#45;&gt;R317 -->
<g id="edge8" class="edge">
<title>R82&#45;&gt;R317</title>
<path fill="none" stroke="black" stroke-width="2" d="M674.95,-153.21C680.98,-153.82 687.16,-154.39 693,-154.82 797.85,-162.57 1057.73,-154.32 1178.51,-173.99"/>
<polygon fill="black" stroke="black" stroke-width="2" points="1176.6,-177.56 1187.05,-175.85 1177.81,-170.67 1176.6,-177.56"/>
<text text-anchor="middle" x="936.5" y="-182.82" font-family="Times New Roman,serif" font-size="30.00"> &#160;&#160;792 &#160;&#160;20% &#160;&#160;8.86e&#45;25 mol/s &#160;&#160;&#160;2.37E&#45;02</text>
</g>
<!-- R308 -->
<g id="node7" class="node">
<title>R308</title>
<g id="a_node7"><a xlink:href="308.svg" xlink:title="R308">
<polygon fill="cornsilk" stroke="none" points="1283,-128.32 1189,-128.32 1189,-81.32 1283,-81.32 1283,-128.32"/>
<text text-anchor="middle" x="1236" y="-96.32" font-family="Times New Roman,serif" font-size="35.00">R308</text>
</a>
</g>
</g>
<!-- R82&#45;&gt;R308 -->
<g id="edge6" class="edge">
<title>R82&#45;&gt;R308</title>
<path fill="none" stroke="black" d="M674.76,-128.15C680.71,-125.59 686.91,-123.34 693,-121.82 783.59,-99.28 1059.07,-101.46 1178.63,-103.59"/>
<polygon fill="black" stroke="black" points="1178.3,-107.1 1188.36,-103.79 1178.43,-100.1 1178.3,-107.1"/>
<text text-anchor="middle" x="936.5" y="-130.82" font-family="Times New Roman,serif" font-size="30.00"> &#160;&#160;467 &#160;&#160;0% &#160;&#160;2.19e&#45;26 mol/s &#160;&#160;&#160;9.94E&#45;01</text>
</g>
<!-- R82&#45;&gt;R308 -->
<g id="edge7" class="edge">
<title>R82&#45;&gt;R308</title>
<path fill="none" stroke="black" stroke-width="4" d="M645.99,-125.52C654.28,-105.39 669.38,-77.58 693,-64.82 883.41,38.1 974.17,2.11 1180,-64.82 1184.17,-66.18 1188.28,-67.98 1192.27,-70.07"/>
<polygon fill="black" stroke="black" stroke-width="4" points="1184.16,-73.39 1204.76,-78.37 1191.76,-61.64 1184.16,-73.39"/>
<text text-anchor="middle" x="936.5" y="-73.82" font-family="Times New Roman,serif" font-size="30.00"> &#160;&#160;783 &#160;&#160;78% &#160;&#160;3.45e&#45;24 mol/s &#160;&#160;&#160;6.29E&#45;03</text>
</g>
<!-- R9 -->
<g id="node2" class="node">
<title>R9</title>
<g id="a_node2"><a xlink:href="9.svg" xlink:title="R9">
<polygon fill="cornsilk" stroke="none" points="67,-270.32 9,-270.32 9,-223.32 67,-223.32 67,-270.32"/>
<text text-anchor="middle" x="38" y="-238.32" font-family="Times New Roman,serif" font-size="35.00">R9</text>
</a>
</g>
</g>
<!-- R9&#45;&gt;R82 -->
<g id="edge1" class="edge">
<title>R9&#45;&gt;R82</title>
<path fill="none" stroke="black" stroke-width="3" d="M66.73,-253.31C150.86,-271.45 408.16,-315.33 584.5,-219.82 600.21,-211.31 612.33,-195.7 620.86,-181.27"/>
<polygon fill="black" stroke="black" stroke-width="3" points="622.18,-185.49 623.95,-175.05 616.05,-182.11 622.18,-185.49"/>
<text text-anchor="middle" x="337.5" y="-287.82" font-family="Times New Roman,serif" font-size="30.00"> &#160;&#160;88 &#160;&#160;50% &#160;&#160;2.18e&#45;15 mol/s &#160;&#160;&#160;1.00E+00</text>
</g>
<!-- R14 -->
<g id="node3" class="node">
<title>R14</title>
<g id="a_node3"><a xlink:href="14.svg" xlink:title="R14">
<polygon fill="cornsilk" stroke="none" points="76,-205.32 0,-205.32 0,-158.32 76,-158.32 76,-205.32"/>
<text text-anchor="middle" x="38" y="-173.32" font-family="Times New Roman,serif" font-size="35.00">R14</text>
</a>
</g>
</g>
<!-- R14&#45;&gt;R82 -->
<g id="edge2" class="edge">
<title>R14&#45;&gt;R82</title>
<path fill="none" stroke="black" stroke-width="3" d="M75.89,-182.49C164.15,-183.62 394.31,-183.79 584.5,-159.82 585.85,-159.65 587.22,-159.46 588.6,-159.26"/>
<polygon fill="black" stroke="black" stroke-width="3" points="586,-162.57 595.28,-157.46 584.83,-155.67 586,-162.57"/>
<text text-anchor="middle" x="337.5" y="-191.82" font-family="Times New Roman,serif" font-size="30.00"> &#160;&#160;88 &#160;&#160;50% &#160;&#160;2.18e&#45;15 mol/s &#160;&#160;&#160;1.00E+00</text>
</g>
<!-- R0 -->
<g id="node4" class="node">
<title>R0</title>
<g id="a_node4"><a xlink:href="0.svg" xlink:title="R0">
<polygon fill="cornsilk" stroke="none" points="67,-140.32 9,-140.32 9,-93.32 67,-93.32 67,-140.32"/>
<text text-anchor="middle" x="38" y="-108.32" font-family="Times New Roman,serif" font-size="35.00">R0</text>
</a>
</g>
</g>
<!-- R0&#45;&gt;R82 -->
<g id="edge3" class="edge">
<title>R0&#45;&gt;R82</title>
<path fill="none" stroke="black" stroke-width="3" d="M66.96,-113.61C148.1,-105.07 390.23,-85.21 584.5,-126.82 586.02,-127.14 587.54,-127.51 589.07,-127.92"/>
<polygon fill="black" stroke="black" stroke-width="3" points="584.56,-130.43 595.14,-130.09 586.66,-123.75 584.56,-130.43"/>
<text text-anchor="middle" x="337.5" y="-135.82" font-family="Times New Roman,serif" font-size="30.00"> &#160;&#160;142 &#160;&#160;50% &#160;&#160;2.18e&#45;15 mol/s &#160;&#160;&#160;1.00E+00</text>
</g>
<!-- R81 -->
<g id="node5" class="node">
<title>R81</title>
<g id="a_node5"><a xlink:href="81.svg" xlink:title="R81">
<polygon fill="cornsilk" stroke="none" points="76,-75.32 0,-75.32 0,-28.32 76,-28.32 76,-75.32"/>
<text text-anchor="middle" x="38" y="-43.32" font-family="Times New Roman,serif" font-size="35.00">R81</text>
</a>
</g>
</g>
<!-- R81&#45;&gt;R82 -->
<g id="edge4" class="edge">
<title>R81&#45;&gt;R82</title>
<path fill="none" stroke="black" stroke-width="3" d="M75.98,-41.31C168.92,-17.16 416.78,33.11 584.5,-63.82 603.91,-75.04 616.89,-96.77 624.96,-115.45"/>
<polygon fill="black" stroke="black" stroke-width="3" points="620.98,-113.44 627.94,-121.42 627.48,-110.84 620.98,-113.44"/>
<text text-anchor="middle" x="337.5" y="-72.82" font-family="Times New Roman,serif" font-size="30.00"> &#160;&#160;142 &#160;&#160;50% &#160;&#160;2.18e&#45;15 mol/s &#160;&#160;&#160;1.00E+00</text>
</g>
</g>
</svg>
