<?xml version="1.0" encoding="UTF-8" standalone="no"?>
<!DOCTYPE svg PUBLIC "-//W3C//DTD SVG 1.1//EN"
 "http://www.w3.org/Graphics/SVG/1.1/DTD/svg11.dtd">
<!-- Generated by graphviz version 8.0.3 (20230416.2022)
 -->
<!-- Title: G Pages: 1 -->
<svg width="640pt" height="186pt"
 viewBox="0.00 0.00 720.00 209.21" xmlns="http://www.w3.org/2000/svg" xmlns:xlink="http://www.w3.org/1999/xlink">
<g id="graph0" class="graph" transform="scale(0.514056 0.514056) rotate(0) translate(4 357.76)">
<title>G</title>
<polygon fill="white" stroke="none" points="-4,4 -4,-357.76 1241,-357.76 1241,4 -4,4"/>
<text text-anchor="middle" x="618.5" y="-320.96" font-family="Arial" font-size="36.00" fill="blue">Reaction Path Analysis</text>
<!-- R82 -->
<g id="node1" class="node">
<title>R82</title>
<g id="a_node1"><a xlink:href="82.svg" xlink:title="R82">
<polygon fill="cornsilk" stroke="none" points="652,-169.26 576,-169.26 576,-122.26 652,-122.26 652,-169.26"/>
<text text-anchor="middle" x="614" y="-137.26" font-family="Times New Roman,serif" font-size="35.00">R82</text>
</a>
</g>
</g>
<!-- R317 -->
<g id="node6" class="node">
<title>R317</title>
<g id="a_node6"><a xlink:href="317.svg" xlink:title="R317">
<polygon fill="cornsilk" stroke="none" points="1237,-213.26 1143,-213.26 1143,-166.26 1237,-166.26 1237,-213.26"/>
<text text-anchor="middle" x="1190" y="-181.26" font-family="Times New Roman,serif" font-size="35.00">R317</text>
</a>
</g>
</g>
<!-- R82&#45;&gt;R317 -->
<g id="edge5" class="edge">
<title>R82&#45;&gt;R317</title>
<path fill="none" stroke="black" d="M628.59,-169.19C638.17,-183.24 652.42,-199.85 670,-207.76 854.87,-290.89 927.85,-241.98 1132.27,-207.74"/>
<polygon fill="black" stroke="black" points="1132.75,-211.04 1142.05,-205.97 1131.61,-204.13 1132.75,-211.04"/>
<text text-anchor="middle" x="902" y="-261.76" font-family="Times New Roman,serif" font-size="30.00"> &#160;&#160;466 &#160;&#160;0% &#160;&#160;0.00271 mol/s &#160;&#160;&#160;9.96E&#45;01</text>
</g>
<!-- R82&#45;&gt;R317 -->
<g id="edge8" class="edge">
<title>R82&#45;&gt;R317</title>
<path fill="none" stroke="black" stroke-width="3" d="M651.95,-150.14C657.98,-150.75 664.16,-151.32 670,-151.76 872.3,-166.92 929.26,-133.61 1132.33,-170.79"/>
<polygon fill="black" stroke="black" stroke-width="3" points="1128.58,-174.4 1139.05,-172.8 1129.86,-167.52 1128.58,-174.4"/>
<text text-anchor="middle" x="902" y="-179.76" font-family="Times New Roman,serif" font-size="30.00"> &#160;&#160;792 &#160;&#160;44% &#160;&#160;0.652 mol/s &#160;&#160;&#160;4.13E&#45;03</text>
</g>
<!-- R308 -->
<g id="node7" class="node">
<title>R308</title>
<g id="a_node7"><a xlink:href="308.svg" xlink:title="R308">
<polygon fill="cornsilk" stroke="none" points="1237,-125.26 1143,-125.26 1143,-78.26 1237,-78.26 1237,-125.26"/>
<text text-anchor="middle" x="1190" y="-93.26" font-family="Times New Roman,serif" font-size="35.00">R308</text>
</a>
</g>
</g>
<!-- R82&#45;&gt;R308 -->
<g id="edge6" class="edge">
<title>R82&#45;&gt;R308</title>
<path fill="none" stroke="black" d="M651.76,-125.1C657.71,-122.53 663.91,-120.28 670,-118.76 756.11,-97.27 1016.79,-98.78 1132.56,-100.62"/>
<polygon fill="black" stroke="black" points="1132.24,-104.13 1142.3,-100.8 1132.36,-97.14 1132.24,-104.13"/>
<text text-anchor="middle" x="902" y="-127.76" font-family="Times New Roman,serif" font-size="30.00"> &#160;&#160;467 &#160;&#160;0% &#160;&#160;0.00271 mol/s &#160;&#160;&#160;9.97E&#45;01</text>
</g>
<!-- R82&#45;&gt;R308 -->
<g id="edge7" class="edge">
<title>R82&#45;&gt;R308</title>
<path fill="none" stroke="black" stroke-width="3" d="M622.99,-122.46C631.28,-102.33 646.38,-74.52 670,-61.76 851.42,36.3 937.89,2.01 1134,-61.76 1141.33,-64.14 1148.5,-67.92 1155.12,-72.21"/>
<polygon fill="black" stroke="black" stroke-width="3" points="1150.57,-73.4 1160.76,-76.31 1154.61,-67.68 1150.57,-73.4"/>
<text text-anchor="middle" x="902" y="-70.76" font-family="Times New Roman,serif" font-size="30.00"> &#160;&#160;783 &#160;&#160;54% &#160;&#160;0.803 mol/s &#160;&#160;&#160;3.36E&#45;03</text>
</g>
<!-- R9 -->
<g id="node2" class="node">
<title>R9</title>
<g id="a_node2"><a xlink:href="9.svg" xlink:title="R9">
<polygon fill="cornsilk" stroke="none" points="67,-267.26 9,-267.26 9,-220.26 67,-220.26 67,-267.26"/>
<text text-anchor="middle" x="38" y="-235.26" font-family="Times New Roman,serif" font-size="35.00">R9</text>
</a>
</g>
</g>
<!-- R9&#45;&gt;R82 -->
<g id="edge1" class="edge">
<title>R9&#45;&gt;R82</title>
<path fill="none" stroke="black" stroke-width="3" d="M66.75,-250.07C148.59,-267.15 393.78,-307.07 562,-215.76 577.25,-207.48 589.11,-192.45 597.54,-178.43"/>
<polygon fill="black" stroke="black" stroke-width="3" points="599,-182.42 600.83,-171.98 592.89,-179 599,-182.42"/>
<text text-anchor="middle" x="326" y="-281.76" font-family="Times New Roman,serif" font-size="30.00"> &#160;&#160;88 &#160;&#160;50% &#160;&#160;0.0342 mol/s &#160;&#160;&#160;1.00E+00</text>
</g>
<!-- R14 -->
<g id="node3" class="node">
<title>R14</title>
<g id="a_node3"><a xlink:href="14.svg" xlink:title="R14">
<polygon fill="cornsilk" stroke="none" points="76,-202.26 0,-202.26 0,-155.26 76,-155.26 76,-202.26"/>
<text text-anchor="middle" x="38" y="-170.26" font-family="Times New Roman,serif" font-size="35.00">R14</text>
</a>
</g>
</g>
<!-- R14&#45;&gt;R82 -->
<g id="edge2" class="edge">
<title>R14&#45;&gt;R82</title>
<path fill="none" stroke="black" stroke-width="3" d="M75.96,-179.36C161.73,-180.28 380.81,-179.94 562,-156.76 563.15,-156.61 564.3,-156.45 565.47,-156.28"/>
<polygon fill="black" stroke="black" stroke-width="3" points="562.8,-159.61 572.08,-154.5 561.64,-152.71 562.8,-159.61"/>
<text text-anchor="middle" x="326" y="-187.76" font-family="Times New Roman,serif" font-size="30.00"> &#160;&#160;88 &#160;&#160;50% &#160;&#160;0.0342 mol/s &#160;&#160;&#160;1.00E+00</text>
</g>
<!-- R0 -->
<g id="node4" class="node">
<title>R0</title>
<g id="a_node4"><a xlink:href="0.svg" xlink:title="R0">
<polygon fill="cornsilk" stroke="none" points="67,-137.26 9,-137.26 9,-90.26 67,-90.26 67,-137.26"/>
<text text-anchor="middle" x="38" y="-105.26" font-family="Times New Roman,serif" font-size="35.00">R0</text>
</a>
</g>
</g>
<!-- R0&#45;&gt;R82 -->
<g id="edge3" class="edge">
<title>R0&#45;&gt;R82</title>
<path fill="none" stroke="black" stroke-width="3" d="M66.94,-110.56C145.85,-102.3 376.71,-83.65 562,-123.76 563.33,-124.05 564.66,-124.37 566,-124.72"/>
<polygon fill="black" stroke="black" stroke-width="3" points="561.64,-127.28 572.23,-126.93 563.74,-120.6 561.64,-127.28"/>
<text text-anchor="middle" x="326" y="-132.76" font-family="Times New Roman,serif" font-size="30.00"> &#160;&#160;142 &#160;&#160;50% &#160;&#160;0.0342 mol/s &#160;&#160;&#160;1.00E+00</text>
</g>
<!-- R81 -->
<g id="node5" class="node">
<title>R81</title>
<g id="a_node5"><a xlink:href="81.svg" xlink:title="R81">
<polygon fill="cornsilk" stroke="none" points="76,-72.26 0,-72.26 0,-25.26 76,-25.26 76,-72.26"/>
<text text-anchor="middle" x="38" y="-40.26" font-family="Times New Roman,serif" font-size="35.00">R81</text>
</a>
</g>
</g>
<!-- R81&#45;&gt;R82 -->
<g id="edge4" class="edge">
<title>R81&#45;&gt;R82</title>
<path fill="none" stroke="black" stroke-width="3" d="M75.79,-38.49C165.92,-15.55 402.06,30.88 562,-61.76 580.97,-72.75 593.75,-93.87 601.77,-112.18"/>
<polygon fill="black" stroke="black" stroke-width="3" points="597.85,-110.3 604.85,-118.26 604.34,-107.68 597.85,-110.3"/>
<text text-anchor="middle" x="326" y="-70.76" font-family="Times New Roman,serif" font-size="30.00"> &#160;&#160;142 &#160;&#160;50% &#160;&#160;0.0342 mol/s &#160;&#160;&#160;1.00E+00</text>
</g>
</g>
</svg>
