<?xml version="1.0" encoding="UTF-8" standalone="no"?>
<!DOCTYPE svg PUBLIC "-//W3C//DTD SVG 1.1//EN"
 "http://www.w3.org/Graphics/SVG/1.1/DTD/svg11.dtd">
<!-- Generated by graphviz version 8.0.3 (20230416.2022)
 -->
<!-- Title: G Pages: 1 -->
<svg width="640pt" height="92pt"
 viewBox="0.00 0.00 720.00 103.15" xmlns="http://www.w3.org/2000/svg" xmlns:xlink="http://www.w3.org/1999/xlink">
<g id="graph0" class="graph" transform="scale(0.513644 0.513644) rotate(0) translate(4 174.5)">
<title>G</title>
<polygon fill="white" stroke="none" points="-4,4 -4,-174.5 1242,-174.5 1242,4 -4,4"/>
<text text-anchor="middle" x="619" y="-137.7" font-family="Arial" font-size="36.00" fill="blue">Reaction Path Analysis</text>
<!-- R83 -->
<g id="node1" class="node">
<title>R83</title>
<g id="a_node1"><a xlink:href="83.svg" xlink:title="R83">
<polygon fill="cornsilk" stroke="none" points="657,-79 581,-79 581,-32 657,-32 657,-79"/>
<text text-anchor="middle" x="619" y="-47" font-family="Times New Roman,serif" font-size="35.00">R83</text>
</a>
</g>
</g>
<!-- R9 -->
<g id="node2" class="node">
<title>R9</title>
<g id="a_node2"><a xlink:href="9.svg" xlink:title="R9">
<polygon fill="cornsilk" stroke="none" points="1229,-112 1171,-112 1171,-65 1229,-65 1229,-112"/>
<text text-anchor="middle" x="1200" y="-80" font-family="Times New Roman,serif" font-size="35.00">R9</text>
</a>
</g>
</g>
<!-- R83&#45;&gt;R9 -->
<g id="edge1" class="edge">
<title>R83&#45;&gt;R9</title>
<path fill="none" stroke="black" stroke-width="6" d="M656.99,-63.41C663.79,-64.62 670.84,-65.73 677.5,-66.5 850.52,-86.59 1057.71,-88.91 1150.23,-88.82"/>
<polygon fill="black" stroke="black" stroke-width="6" points="1145.22,-99.32 1165.18,-88.76 1145.15,-78.32 1145.22,-99.32"/>
<text text-anchor="middle" x="909.5" y="-97.5" font-family="Times New Roman,serif" font-size="30.00"> &#160;&#160;89 &#160;&#160;100% &#160;&#160;0.0101 mol/s &#160;&#160;&#160;4.36E&#45;01</text>
</g>
<!-- R14 -->
<g id="node3" class="node">
<title>R14</title>
<g id="a_node3"><a xlink:href="14.svg" xlink:title="R14">
<polygon fill="cornsilk" stroke="none" points="1238,-47 1162,-47 1162,0 1238,0 1238,-47"/>
<text text-anchor="middle" x="1200" y="-15" font-family="Times New Roman,serif" font-size="35.00">R14</text>
</a>
</g>
</g>
<!-- R83&#45;&gt;R14 -->
<g id="edge2" class="edge">
<title>R83&#45;&gt;R14</title>
<path fill="none" stroke="black" stroke-width="6" d="M656.87,-39.25C663.62,-36.9 670.68,-34.83 677.5,-33.5 843.46,-1.19 1044.73,-10.69 1141.54,-18.2"/>
<polygon fill="black" stroke="black" stroke-width="6" points="1135.4,-28.72 1156.19,-19.9 1137.12,-7.79 1135.4,-28.72"/>
<text text-anchor="middle" x="909.5" y="-42.5" font-family="Times New Roman,serif" font-size="30.00"> &#160;&#160;89 &#160;&#160;100% &#160;&#160;0.0101 mol/s &#160;&#160;&#160;4.36E&#45;01</text>
</g>
<!-- R0 -->
<g id="node4" class="node">
<title>R0</title>
<g id="a_node4"><a xlink:href="0.svg" xlink:title="R0">
<polygon fill="cornsilk" stroke="none" points="67,-112 9,-112 9,-65 67,-65 67,-112"/>
<text text-anchor="middle" x="38" y="-80" font-family="Times New Roman,serif" font-size="35.00">R0</text>
</a>
</g>
</g>
<!-- R0&#45;&gt;R83 -->
<g id="edge3" class="edge">
<title>R0&#45;&gt;R83</title>
<path fill="none" stroke="black" stroke-width="6" d="M66.91,-89.24C143.63,-90.88 364.47,-92.98 560.5,-67.74"/>
<polygon fill="black" stroke="black" stroke-width="6" points="556.79,-78.03 575.21,-64.96 553.99,-57.22 556.79,-78.03"/>
<text text-anchor="middle" x="328.5" y="-98.5" font-family="Times New Roman,serif" font-size="30.00"> &#160;&#160;143 &#160;&#160;100% &#160;&#160;0.0342 mol/s &#160;&#160;&#160;1.00E+00</text>
</g>
<!-- R81 -->
<g id="node5" class="node">
<title>R81</title>
<g id="a_node5"><a xlink:href="81.svg" xlink:title="R81">
<polygon fill="cornsilk" stroke="none" points="76,-47 0,-47 0,0 76,0 76,-47"/>
<text text-anchor="middle" x="38" y="-15" font-family="Times New Roman,serif" font-size="35.00">R81</text>
</a>
</g>
</g>
<!-- R81&#45;&gt;R83 -->
<g id="edge4" class="edge">
<title>R81&#45;&gt;R83</title>
<path fill="none" stroke="black" stroke-width="6" d="M75.86,-18.9C160.32,-9.45 374.31,8.26 560.81,-31.62"/>
<polygon fill="black" stroke="black" stroke-width="6" points="553.26,-41.04 575.09,-35.22 557.9,-20.56 553.26,-41.04"/>
<text text-anchor="middle" x="328.5" y="-42.5" font-family="Times New Roman,serif" font-size="30.00"> &#160;&#160;143 &#160;&#160;100% &#160;&#160;0.0342 mol/s &#160;&#160;&#160;1.00E+00</text>
</g>
</g>
</svg>
