<?xml version="1.0" encoding="UTF-8" standalone="no"?>
<!DOCTYPE svg PUBLIC "-//W3C//DTD SVG 1.1//EN"
 "http://www.w3.org/Graphics/SVG/1.1/DTD/svg11.dtd">
<!-- Generated by graphviz version 8.0.3 (20230416.2022)
 -->
<!-- Title: G Pages: 1 -->
<svg width="621pt" height="382pt"
 viewBox="0.00 0.00 699.00 430.19" xmlns="http://www.w3.org/2000/svg" xmlns:xlink="http://www.w3.org/1999/xlink">
<g id="graph0" class="graph" transform="scale(0.888889 0.888889) rotate(0) translate(4 426.19)">
<title>G</title>
<polygon fill="white" stroke="none" points="-4,4 -4,-426.19 695,-426.19 695,4 -4,4"/>
<text text-anchor="middle" x="345.5" y="-389.39" font-family="Arial" font-size="36.00" fill="blue">Reaction Path Analysis</text>
<!-- R84 -->
<g id="node1" class="node">
<title>R84</title>
<g id="a_node1"><a xlink:href="84.svg" xlink:title="R84">
<polygon fill="cornsilk" stroke="none" points="691,-201.69 615,-201.69 615,-154.69 691,-154.69 691,-201.69"/>
<text text-anchor="middle" x="653" y="-169.69" font-family="Times New Roman,serif" font-size="35.00">R84</text>
</a>
</g>
</g>
<!-- R10 -->
<g id="node2" class="node">
<title>R10</title>
<g id="a_node2"><a xlink:href="10.svg" xlink:title="R10">
<polygon fill="cornsilk" stroke="none" points="85,-350.69 9,-350.69 9,-303.69 85,-303.69 85,-350.69"/>
<text text-anchor="middle" x="47" y="-318.69" font-family="Times New Roman,serif" font-size="35.00">R10</text>
</a>
</g>
</g>
<!-- R10&#45;&gt;R84 -->
<g id="edge1" class="edge">
<title>R10&#45;&gt;R84</title>
<path fill="none" stroke="black" d="M84.84,-330.47C194.08,-339.43 513.83,-360.09 597,-303.19 627.1,-282.6 640.89,-241.61 647.1,-212.18"/>
<polygon fill="black" stroke="black" points="650.69,-213.01 649.12,-202.54 643.82,-211.71 650.69,-213.01"/>
<text text-anchor="middle" x="350" y="-350.19" font-family="Times New Roman,serif" font-size="30.00"> &#160;&#160;90 &#160;&#160;0% &#160;&#160;0.0342 mol/s &#160;&#160;&#160;1.00E+00</text>
</g>
<!-- R13 -->
<g id="node3" class="node">
<title>R13</title>
<g id="a_node3"><a xlink:href="13.svg" xlink:title="R13">
<polygon fill="cornsilk" stroke="none" points="85,-285.69 9,-285.69 9,-238.69 85,-238.69 85,-285.69"/>
<text text-anchor="middle" x="47" y="-253.69" font-family="Times New Roman,serif" font-size="35.00">R13</text>
</a>
</g>
</g>
<!-- R13&#45;&gt;R84 -->
<g id="edge2" class="edge">
<title>R13&#45;&gt;R84</title>
<path fill="none" stroke="black" d="M84.78,-263.63C192.45,-267.32 505.13,-274.12 597,-233.19 608.83,-227.92 619.52,-218.88 628.25,-209.64"/>
<polygon fill="black" stroke="black" points="630.41,-212.36 634.41,-202.55 625.16,-207.72 630.41,-212.36"/>
<text text-anchor="middle" x="350" y="-275.19" font-family="Times New Roman,serif" font-size="30.00"> &#160;&#160;90 &#160;&#160;0% &#160;&#160;0.0342 mol/s &#160;&#160;&#160;1.00E+00</text>
</g>
<!-- R318 -->
<g id="node4" class="node">
<title>R318</title>
<g id="a_node4"><a xlink:href="318.svg" xlink:title="R318">
<polygon fill="cornsilk" stroke="none" points="94,-197.69 0,-197.69 0,-150.69 94,-150.69 94,-197.69"/>
<text text-anchor="middle" x="47" y="-165.69" font-family="Times New Roman,serif" font-size="35.00">R318</text>
</a>
</g>
</g>
<!-- R318&#45;&gt;R84 -->
<g id="edge3" class="edge">
<title>R318&#45;&gt;R84</title>
<path fill="none" stroke="black" stroke-width="5" d="M93.83,-183.16C96.93,-183.57 100,-183.92 103,-184.19 315.16,-203.32 374.28,-196.56 594.33,-183.96"/>
<polygon fill="black" stroke="black" stroke-width="5" points="589.59,-192.65 609.06,-182.78 588.6,-175.18 589.59,-192.65"/>
<text text-anchor="middle" x="350" y="-205.19" font-family="Times New Roman,serif" font-size="30.00"> &#160;&#160;468 &#160;&#160;99% &#160;&#160;214000.0 mol/s &#160;&#160;&#160;1.27E&#45;08</text>
</g>
<!-- R318&#45;&gt;R84 -->
<g id="edge6" class="edge">
<title>R318&#45;&gt;R84</title>
<path fill="none" stroke="black" d="M91.16,-150.79C95.08,-149.35 99.06,-148.11 103,-147.19 156.47,-134.78 543.91,-133.26 597,-147.19 600.18,-148.03 603.38,-149.1 606.54,-150.33"/>
<polygon fill="black" stroke="black" points="604.88,-153.87 615.44,-154.74 607.73,-147.47 604.88,-153.87"/>
<text text-anchor="middle" x="350" y="-156.19" font-family="Times New Roman,serif" font-size="30.00"> &#160;&#160;793 &#160;&#160;0% &#160;&#160;0.00272 mol/s &#160;&#160;&#160;1.00E+00</text>
</g>
<!-- R285 -->
<g id="node5" class="node">
<title>R285</title>
<g id="a_node5"><a xlink:href="285.svg" xlink:title="R285">
<polygon fill="cornsilk" stroke="none" points="94,-89.69 0,-89.69 0,-42.69 94,-42.69 94,-89.69"/>
<text text-anchor="middle" x="47" y="-57.69" font-family="Times New Roman,serif" font-size="35.00">R285</text>
</a>
</g>
</g>
<!-- R285&#45;&gt;R84 -->
<g id="edge4" class="edge">
<title>R285&#45;&gt;R84</title>
<path fill="none" stroke="black" d="M93.9,-71.38C96.98,-71.67 100.03,-71.95 103,-72.19 157.79,-76.73 548.93,-73.52 597,-100.19 615.05,-110.21 628.55,-128.94 637.66,-145.54"/>
<polygon fill="black" stroke="black" points="634.83,-146.69 642.52,-153.98 641.06,-143.49 634.83,-146.69"/>
<text text-anchor="middle" x="350" y="-109.19" font-family="Times New Roman,serif" font-size="30.00"> &#160;&#160;469 &#160;&#160;0% &#160;&#160;18.6 mol/s &#160;&#160;&#160;1.46E&#45;04</text>
</g>
<!-- R285&#45;&gt;R84 -->
<g id="edge5" class="edge">
<title>R285&#45;&gt;R84</title>
<path fill="none" stroke="black" d="M83.56,-42.74C89.81,-39.63 96.43,-36.92 103,-35.19 209.18,-7.33 506.51,26.95 597,-35.19 632.36,-59.48 645,-109.92 649.51,-143.92"/>
<polygon fill="black" stroke="black" points="646.13,-144.22 650.74,-153.76 653.09,-143.43 646.13,-144.22"/>
<text text-anchor="middle" x="350" y="-44.19" font-family="Times New Roman,serif" font-size="30.00"> &#160;&#160;767 &#160;&#160;0% &#160;&#160;0.00272 mol/s &#160;&#160;&#160;1.00E+00</text>
</g>
</g>
</svg>
