<?xml version="1.0" encoding="UTF-8" standalone="no"?>
<!DOCTYPE svg PUBLIC "-//W3C//DTD SVG 1.1//EN"
 "http://www.w3.org/Graphics/SVG/1.1/DTD/svg11.dtd">
<!-- Generated by graphviz version 8.0.3 (20230416.2022)
 -->
<!-- Title: G Pages: 1 -->
<svg width="640pt" height="427pt"
 viewBox="0.00 0.00 720.00 480.19" xmlns="http://www.w3.org/2000/svg" xmlns:xlink="http://www.w3.org/1999/xlink">
<g id="graph0" class="graph" transform="scale(0.501961 0.501961) rotate(0) translate(4 846.33)">
<title>G</title>
<polygon fill="white" stroke="none" points="-4,4 -4,-846.33 1271,-846.33 1271,4 -4,4"/>
<text text-anchor="middle" x="633.5" y="-809.53" font-family="Arial" font-size="36.00" fill="blue">Reaction Path Analysis</text>
<!-- R87 -->
<g id="node1" class="node">
<title>R87</title>
<g id="a_node1"><a xlink:href="87.svg" xlink:title="R87">
<polygon fill="cornsilk" stroke="none" points="667,-410.83 591,-410.83 591,-363.83 667,-363.83 667,-410.83"/>
<text text-anchor="middle" x="629" y="-378.83" font-family="Times New Roman,serif" font-size="35.00">R87</text>
</a>
</g>
</g>
<!-- R105 -->
<g id="node6" class="node">
<title>R105</title>
<g id="a_node6"><a xlink:href="105.svg" xlink:title="R105">
<polygon fill="cornsilk" stroke="none" points="1267,-768.83 1173,-768.83 1173,-721.83 1267,-721.83 1267,-768.83"/>
<text text-anchor="middle" x="1220" y="-736.83" font-family="Times New Roman,serif" font-size="35.00">R105</text>
</a>
</g>
</g>
<!-- R87&#45;&gt;R105 -->
<g id="edge5" class="edge">
<title>R87&#45;&gt;R105</title>
<path fill="none" stroke="black" d="M630.25,-410.63C631.51,-479.09 639.14,-677.42 685,-718.33 754.1,-779.96 1039.74,-761.94 1162.51,-750.98"/>
<polygon fill="black" stroke="black" points="1162.53,-754.4 1172.17,-750 1161.89,-747.43 1162.53,-754.4"/>
<text text-anchor="middle" x="924.5" y="-770.33" font-family="Times New Roman,serif" font-size="30.00"> &#160;&#160;146 &#160;&#160;9% &#160;&#160;2.18e&#45;15 mol/s &#160;&#160;&#160;1.00E+00</text>
</g>
<!-- R106 -->
<g id="node7" class="node">
<title>R106</title>
<g id="a_node7"><a xlink:href="106.svg" xlink:title="R106">
<polygon fill="cornsilk" stroke="none" points="1267,-703.83 1173,-703.83 1173,-656.83 1267,-656.83 1267,-703.83"/>
<text text-anchor="middle" x="1220" y="-671.83" font-family="Times New Roman,serif" font-size="35.00">R106</text>
</a>
</g>
</g>
<!-- R87&#45;&gt;R106 -->
<g id="edge6" class="edge">
<title>R87&#45;&gt;R106</title>
<path fill="none" stroke="black" d="M631.28,-410.62C635.05,-469.48 648.21,-621.79 685,-653.33 720.57,-683.82 1032.08,-683.01 1162.24,-681.31"/>
<polygon fill="black" stroke="black" points="1162.19,-684.8 1172.14,-681.16 1162.1,-677.8 1162.19,-684.8"/>
<text text-anchor="middle" x="924.5" y="-690.33" font-family="Times New Roman,serif" font-size="30.00"> &#160;&#160;147 &#160;&#160;9% &#160;&#160;2.18e&#45;15 mol/s &#160;&#160;&#160;1.00E+00</text>
</g>
<!-- R166 -->
<g id="node8" class="node">
<title>R166</title>
<g id="a_node8"><a xlink:href="166.svg" xlink:title="R166">
<polygon fill="cornsilk" stroke="none" points="1267,-638.83 1173,-638.83 1173,-591.83 1267,-591.83 1267,-638.83"/>
<text text-anchor="middle" x="1220" y="-606.83" font-family="Times New Roman,serif" font-size="35.00">R166</text>
</a>
</g>
</g>
<!-- R87&#45;&gt;R166 -->
<g id="edge7" class="edge">
<title>R87&#45;&gt;R166</title>
<path fill="none" stroke="black" d="M632.92,-410.63C639.48,-458.83 657.02,-566.85 685,-589.33 721.52,-618.67 1032.48,-617.9 1162.36,-616.27"/>
<polygon fill="black" stroke="black" points="1162.29,-619.76 1172.25,-616.13 1162.2,-612.76 1162.29,-619.76"/>
<text text-anchor="middle" x="924.5" y="-625.33" font-family="Times New Roman,serif" font-size="30.00"> &#160;&#160;218 &#160;&#160;9% &#160;&#160;2.18e&#45;15 mol/s &#160;&#160;&#160;1.00E+00</text>
</g>
<!-- R167 -->
<g id="node9" class="node">
<title>R167</title>
<g id="a_node9"><a xlink:href="167.svg" xlink:title="R167">
<polygon fill="cornsilk" stroke="none" points="1267,-573.83 1173,-573.83 1173,-526.83 1267,-526.83 1267,-573.83"/>
<text text-anchor="middle" x="1220" y="-541.83" font-family="Times New Roman,serif" font-size="35.00">R167</text>
</a>
</g>
</g>
<!-- R87&#45;&gt;R167 -->
<g id="edge8" class="edge">
<title>R87&#45;&gt;R167</title>
<path fill="none" stroke="black" d="M631.57,-410.78C635.15,-443.28 646.83,-501.08 685,-528.33 723.11,-555.54 1033.16,-553.52 1162.58,-551.45"/>
<polygon fill="black" stroke="black" points="1162.48,-554.93 1172.42,-551.26 1162.36,-547.93 1162.48,-554.93"/>
<text text-anchor="middle" x="924.5" y="-561.33" font-family="Times New Roman,serif" font-size="30.00"> &#160;&#160;219 &#160;&#160;9% &#160;&#160;2.18e&#45;15 mol/s &#160;&#160;&#160;1.00E+00</text>
</g>
<!-- R168 -->
<g id="node10" class="node">
<title>R168</title>
<g id="a_node10"><a xlink:href="168.svg" xlink:title="R168">
<polygon fill="cornsilk" stroke="none" points="1267,-508.83 1173,-508.83 1173,-461.83 1267,-461.83 1267,-508.83"/>
<text text-anchor="middle" x="1220" y="-476.83" font-family="Times New Roman,serif" font-size="35.00">R168</text>
</a>
</g>
</g>
<!-- R87&#45;&gt;R168 -->
<g id="edge9" class="edge">
<title>R87&#45;&gt;R168</title>
<path fill="none" stroke="black" d="M641.42,-410.6C650.73,-426.79 665.52,-447.22 685,-457.33 766.71,-499.72 1042.27,-493.24 1162.31,-488.16"/>
<polygon fill="black" stroke="black" points="1162.25,-491.63 1172.09,-487.69 1161.95,-484.63 1162.25,-491.63"/>
<text text-anchor="middle" x="924.5" y="-500.33" font-family="Times New Roman,serif" font-size="30.00"> &#160;&#160;220 &#160;&#160;9% &#160;&#160;2.18e&#45;15 mol/s &#160;&#160;&#160;1.00E+00</text>
</g>
<!-- R208 -->
<g id="node11" class="node">
<title>R208</title>
<g id="a_node11"><a xlink:href="208.svg" xlink:title="R208">
<polygon fill="cornsilk" stroke="none" points="1267,-443.83 1173,-443.83 1173,-396.83 1267,-396.83 1267,-443.83"/>
<text text-anchor="middle" x="1220" y="-411.83" font-family="Times New Roman,serif" font-size="35.00">R208</text>
</a>
</g>
</g>
<!-- R87&#45;&gt;R208 -->
<g id="edge10" class="edge">
<title>R87&#45;&gt;R208</title>
<path fill="none" stroke="black" d="M666.85,-395.52C672.89,-396.63 679.1,-397.62 685,-398.33 857.98,-419.06 1064.48,-421.22 1162.28,-420.89"/>
<polygon fill="black" stroke="black" points="1162.11,-424.39 1172.09,-420.85 1162.08,-417.39 1162.11,-424.39"/>
<text text-anchor="middle" x="924.5" y="-429.33" font-family="Times New Roman,serif" font-size="30.00"> &#160;&#160;269 &#160;&#160;9% &#160;&#160;2.18e&#45;15 mol/s &#160;&#160;&#160;1.00E+00</text>
</g>
<!-- R209 -->
<g id="node12" class="node">
<title>R209</title>
<g id="a_node12"><a xlink:href="209.svg" xlink:title="R209">
<polygon fill="cornsilk" stroke="none" points="1267,-378.83 1173,-378.83 1173,-331.83 1267,-331.83 1267,-378.83"/>
<text text-anchor="middle" x="1220" y="-346.83" font-family="Times New Roman,serif" font-size="35.00">R209</text>
</a>
</g>
</g>
<!-- R87&#45;&gt;R209 -->
<g id="edge11" class="edge">
<title>R87&#45;&gt;R209</title>
<path fill="none" stroke="black" d="M666.72,-370.54C672.72,-368.41 678.95,-366.55 685,-365.33 855.86,-330.76 1063.77,-341.57 1162.16,-349.76"/>
<polygon fill="black" stroke="black" points="1161.77,-353.32 1172.04,-350.69 1162.37,-346.35 1161.77,-353.32"/>
<text text-anchor="middle" x="924.5" y="-374.33" font-family="Times New Roman,serif" font-size="30.00"> &#160;&#160;270 &#160;&#160;9% &#160;&#160;2.18e&#45;15 mol/s &#160;&#160;&#160;1.00E+00</text>
</g>
<!-- R210 -->
<g id="node13" class="node">
<title>R210</title>
<g id="a_node13"><a xlink:href="210.svg" xlink:title="R210">
<polygon fill="cornsilk" stroke="none" points="1267,-313.83 1173,-313.83 1173,-266.83 1267,-266.83 1267,-313.83"/>
<text text-anchor="middle" x="1220" y="-281.83" font-family="Times New Roman,serif" font-size="35.00">R210</text>
</a>
</g>
</g>
<!-- R87&#45;&gt;R210 -->
<g id="edge12" class="edge">
<title>R87&#45;&gt;R210</title>
<path fill="none" stroke="black" d="M638.31,-364.06C646.74,-344.29 661.86,-317.15 685,-304.33 765.54,-259.71 1042.37,-275.88 1162.56,-285.39"/>
<polygon fill="black" stroke="black" points="1162.1,-288.94 1172.35,-286.26 1162.66,-281.97 1162.1,-288.94"/>
<text text-anchor="middle" x="924.5" y="-313.33" font-family="Times New Roman,serif" font-size="30.00"> &#160;&#160;271 &#160;&#160;9% &#160;&#160;2.18e&#45;15 mol/s &#160;&#160;&#160;1.00E+00</text>
</g>
<!-- R267 -->
<g id="node14" class="node">
<title>R267</title>
<g id="a_node14"><a xlink:href="267.svg" xlink:title="R267">
<polygon fill="cornsilk" stroke="none" points="1267,-248.83 1173,-248.83 1173,-201.83 1267,-201.83 1267,-248.83"/>
<text text-anchor="middle" x="1220" y="-216.83" font-family="Times New Roman,serif" font-size="35.00">R267</text>
</a>
</g>
</g>
<!-- R87&#45;&gt;R267 -->
<g id="edge13" class="edge">
<title>R87&#45;&gt;R267</title>
<path fill="none" stroke="black" d="M630.86,-364.06C633.52,-329.78 644.05,-266.62 685,-237.33 759.97,-183.71 1040.51,-206.13 1162.15,-218.83"/>
<polygon fill="black" stroke="black" points="1161.76,-222.41 1172.07,-219.99 1162.49,-215.45 1161.76,-222.41"/>
<text text-anchor="middle" x="924.5" y="-246.33" font-family="Times New Roman,serif" font-size="30.00"> &#160;&#160;363 &#160;&#160;9% &#160;&#160;2.18e&#45;15 mol/s &#160;&#160;&#160;1.00E+00</text>
</g>
<!-- R268 -->
<g id="node15" class="node">
<title>R268</title>
<g id="a_node15"><a xlink:href="268.svg" xlink:title="R268">
<polygon fill="cornsilk" stroke="none" points="1267,-183.83 1173,-183.83 1173,-136.83 1267,-136.83 1267,-183.83"/>
<text text-anchor="middle" x="1220" y="-151.83" font-family="Times New Roman,serif" font-size="35.00">R268</text>
</a>
</g>
</g>
<!-- R87&#45;&gt;R268 -->
<g id="edge14" class="edge">
<title>R87&#45;&gt;R268</title>
<path fill="none" stroke="black" d="M632.25,-364.14C637.78,-312.55 653.91,-190.92 685,-166.33 721.7,-137.31 1032.56,-150.33 1162.39,-157.13"/>
<polygon fill="black" stroke="black" points="1162.1,-160.67 1172.27,-157.71 1162.47,-153.68 1162.1,-160.67"/>
<text text-anchor="middle" x="924.5" y="-175.33" font-family="Times New Roman,serif" font-size="30.00"> &#160;&#160;364 &#160;&#160;9% &#160;&#160;2.18e&#45;15 mol/s &#160;&#160;&#160;1.00E+00</text>
</g>
<!-- R269 -->
<g id="node16" class="node">
<title>R269</title>
<g id="a_node16"><a xlink:href="269.svg" xlink:title="R269">
<polygon fill="cornsilk" stroke="none" points="1267,-118.83 1173,-118.83 1173,-71.83 1267,-71.83 1267,-118.83"/>
<text text-anchor="middle" x="1220" y="-86.83" font-family="Times New Roman,serif" font-size="35.00">R269</text>
</a>
</g>
</g>
<!-- R87&#45;&gt;R269 -->
<g id="edge15" class="edge">
<title>R87&#45;&gt;R269</title>
<path fill="none" stroke="black" d="M631.05,-364.02C634.32,-303.51 646.48,-143.91 685,-111.33 755.63,-51.59 1040.42,-75.24 1162.73,-88.59"/>
<polygon fill="black" stroke="black" points="1162.03,-92.14 1172.35,-89.77 1162.8,-85.19 1162.03,-92.14"/>
<text text-anchor="middle" x="924.5" y="-120.33" font-family="Times New Roman,serif" font-size="30.00"> &#160;&#160;365 &#160;&#160;9% &#160;&#160;2.18e&#45;15 mol/s &#160;&#160;&#160;1.00E+00</text>
</g>
<!-- R93 -->
<g id="node18" class="node">
<title>R93</title>
<g id="a_node18"><a xlink:href="93.svg" xlink:title="R93">
<polygon fill="cornsilk" stroke="none" points="1258,-53.83 1182,-53.83 1182,-6.83 1258,-6.83 1258,-53.83"/>
<text text-anchor="middle" x="1220" y="-21.83" font-family="Times New Roman,serif" font-size="35.00">R93</text>
</a>
</g>
</g>
<!-- R87&#45;&gt;R93 -->
<g id="edge18" class="edge">
<title>R87&#45;&gt;R93</title>
<path fill="none" stroke="black" d="M629.93,-363.83C630.27,-292.25 635.5,-79.16 685,-36.33 756.66,25.67 1054.33,-7.51 1171.4,-23.41"/>
<polygon fill="black" stroke="black" points="1170.77,-26.99 1181.16,-24.89 1171.73,-20.06 1170.77,-26.99"/>
<text text-anchor="middle" x="924.5" y="-45.33" font-family="Times New Roman,serif" font-size="30.00"> &#160;&#160;475 &#160;&#160;0% &#160;&#160;2.2e&#45;26 mol/s &#160;&#160;&#160;9.98E&#45;01</text>
</g>
<!-- R13 -->
<g id="node2" class="node">
<title>R13</title>
<g id="a_node2"><a xlink:href="13.svg" xlink:title="R13">
<polygon fill="cornsilk" stroke="none" points="76,-568.83 0,-568.83 0,-521.83 76,-521.83 76,-568.83"/>
<text text-anchor="middle" x="38" y="-536.83" font-family="Times New Roman,serif" font-size="35.00">R13</text>
</a>
</g>
</g>
<!-- R13&#45;&gt;R87 -->
<g id="edge1" class="edge">
<title>R13&#45;&gt;R87</title>
<path fill="none" stroke="black" stroke-width="3" d="M75.77,-556.54C170.28,-582.92 425.15,-638.44 580.5,-523.33 612.32,-499.76 622.95,-453.32 626.43,-421.32"/>
<polygon fill="black" stroke="black" stroke-width="3" points="629.98,-424.93 627.38,-414.66 623,-424.31 629.98,-424.93"/>
<text text-anchor="middle" x="333.5" y="-601.33" font-family="Times New Roman,serif" font-size="30.00"> &#160;&#160;93 &#160;&#160;49% &#160;&#160;2.18e&#45;15 mol/s &#160;&#160;&#160;1.00E+00</text>
</g>
<!-- R14 -->
<g id="node3" class="node">
<title>R14</title>
<g id="a_node3"><a xlink:href="14.svg" xlink:title="R14">
<polygon fill="cornsilk" stroke="none" points="76,-503.83 0,-503.83 0,-456.83 76,-456.83 76,-503.83"/>
<text text-anchor="middle" x="38" y="-471.83" font-family="Times New Roman,serif" font-size="35.00">R14</text>
</a>
</g>
</g>
<!-- R14&#45;&gt;R87 -->
<g id="edge2" class="edge">
<title>R14&#45;&gt;R87</title>
<path fill="none" stroke="black" stroke-width="3" d="M75.96,-482.35C183.35,-487.6 493.21,-498.22 580.5,-451.33 593.49,-444.36 603.89,-432.1 611.61,-420.17"/>
<polygon fill="black" stroke="black" stroke-width="3" points="613.1,-424.16 615.23,-413.78 607.09,-420.57 613.1,-424.16"/>
<text text-anchor="middle" x="333.5" y="-495.33" font-family="Times New Roman,serif" font-size="30.00"> &#160;&#160;93 &#160;&#160;49% &#160;&#160;2.18e&#45;15 mol/s &#160;&#160;&#160;1.00E+00</text>
</g>
<!-- R0 -->
<g id="node4" class="node">
<title>R0</title>
<g id="a_node4"><a xlink:href="0.svg" xlink:title="R0">
<polygon fill="cornsilk" stroke="none" points="67,-438.83 9,-438.83 9,-391.83 67,-391.83 67,-438.83"/>
<text text-anchor="middle" x="38" y="-406.83" font-family="Times New Roman,serif" font-size="35.00">R0</text>
</a>
</g>
</g>
<!-- R0&#45;&gt;R87 -->
<g id="edge3" class="edge">
<title>R0&#45;&gt;R87</title>
<path fill="none" stroke="black" stroke-width="3" d="M66.95,-415.03C145.65,-414.02 376.01,-409.83 580.27,-393.2"/>
<polygon fill="black" stroke="black" stroke-width="3" points="577.53,-396.6 587.21,-392.29 576.95,-389.63 577.53,-396.6"/>
<text text-anchor="middle" x="333.5" y="-423.33" font-family="Times New Roman,serif" font-size="30.00"> &#160;&#160;144 &#160;&#160;49% &#160;&#160;2.18e&#45;15 mol/s &#160;&#160;&#160;1.00E+00</text>
</g>
<!-- R86 -->
<g id="node5" class="node">
<title>R86</title>
<g id="a_node5"><a xlink:href="86.svg" xlink:title="R86">
<polygon fill="cornsilk" stroke="none" points="76,-373.83 0,-373.83 0,-326.83 76,-326.83 76,-373.83"/>
<text text-anchor="middle" x="38" y="-341.83" font-family="Times New Roman,serif" font-size="35.00">R86</text>
</a>
</g>
</g>
<!-- R86&#45;&gt;R87 -->
<g id="edge4" class="edge">
<title>R86&#45;&gt;R87</title>
<path fill="none" stroke="black" stroke-width="3" d="M75.64,-348.09C181.45,-342.02 485.92,-327.63 580.5,-356.33 582.96,-357.08 585.42,-358 587.85,-359.04"/>
<polygon fill="black" stroke="black" stroke-width="3" points="583.07,-360.57 593.57,-361.96 586.23,-354.33 583.07,-360.57"/>
<text text-anchor="middle" x="333.5" y="-365.33" font-family="Times New Roman,serif" font-size="30.00"> &#160;&#160;144 &#160;&#160;49% &#160;&#160;2.18e&#45;15 mol/s &#160;&#160;&#160;1.00E+00</text>
</g>
<!-- R60 -->
<g id="node17" class="node">
<title>R60</title>
<g id="a_node17"><a xlink:href="60.svg" xlink:title="R60">
<polygon fill="cornsilk" stroke="none" points="76,-289.83 0,-289.83 0,-242.83 76,-242.83 76,-289.83"/>
<text text-anchor="middle" x="38" y="-257.83" font-family="Times New Roman,serif" font-size="35.00">R60</text>
</a>
</g>
</g>
<!-- R60&#45;&gt;R87 -->
<g id="edge16" class="edge">
<title>R60&#45;&gt;R87</title>
<path fill="none" stroke="black" d="M75.84,-279.01C79.42,-279.92 83.01,-280.72 86.5,-281.33 140.61,-290.8 533.76,-272.46 580.5,-301.33 599.39,-313 611.35,-335.04 618.55,-353.88"/>
<polygon fill="black" stroke="black" points="615.56,-354.94 622.16,-363.22 622.16,-352.63 615.56,-354.94"/>
<text text-anchor="middle" x="333.5" y="-310.33" font-family="Times New Roman,serif" font-size="30.00"> &#160;&#160;445 &#160;&#160;0% &#160;&#160;2.19e&#45;26 mol/s &#160;&#160;&#160;9.97E&#45;01</text>
</g>
<!-- R60&#45;&gt;R87 -->
<g id="edge17" class="edge">
<title>R60&#45;&gt;R87</title>
<path fill="none" stroke="black" d="M75.8,-247.44C79.35,-246.19 82.95,-245.11 86.5,-244.33 300.91,-197.09 402.45,-115.86 580.5,-244.33 614.71,-269.02 624.67,-319.35 627.36,-353.22"/>
<polygon fill="black" stroke="black" points="623.91,-353.25 628.01,-363.01 630.9,-352.82 623.91,-353.25"/>
<text text-anchor="middle" x="333.5" y="-253.33" font-family="Times New Roman,serif" font-size="30.00"> &#160;&#160;474 &#160;&#160;0% &#160;&#160;7.2e&#45;24 mol/s &#160;&#160;&#160;3.04E&#45;03</text>
</g>
</g>
</svg>
