<?xml version="1.0" encoding="UTF-8" standalone="no"?>
<!DOCTYPE svg PUBLIC "-//W3C//DTD SVG 1.1//EN"
 "http://www.w3.org/Graphics/SVG/1.1/DTD/svg11.dtd">
<!-- Generated by graphviz version 8.0.3 (20230416.2022)
 -->
<!-- Title: G Pages: 1 -->
<svg width="640pt" height="364pt"
 viewBox="0.00 0.00 720.00 409.19" xmlns="http://www.w3.org/2000/svg" xmlns:xlink="http://www.w3.org/1999/xlink">
<g id="graph0" class="graph" transform="scale(0.503937 0.503937) rotate(0) translate(4 717.77)">
<title>G</title>
<polygon fill="white" stroke="none" points="-4,4 -4,-717.77 1266,-717.77 1266,4 -4,4"/>
<text text-anchor="middle" x="631" y="-680.97" font-family="Arial" font-size="36.00" fill="blue">Reaction Path Analysis</text>
<!-- R87 -->
<g id="node1" class="node">
<title>R87</title>
<g id="a_node1"><a xlink:href="87.svg" xlink:title="R87">
<polygon fill="cornsilk" stroke="none" points="669,-348.27 593,-348.27 593,-301.27 669,-301.27 669,-348.27"/>
<text text-anchor="middle" x="631" y="-316.27" font-family="Times New Roman,serif" font-size="35.00">R87</text>
</a>
</g>
</g>
<!-- R105 -->
<g id="node6" class="node">
<title>R105</title>
<g id="a_node6"><a xlink:href="105.svg" xlink:title="R105">
<polygon fill="cornsilk" stroke="none" points="1262,-641.27 1168,-641.27 1168,-594.27 1262,-594.27 1262,-641.27"/>
<text text-anchor="middle" x="1215" y="-609.27" font-family="Times New Roman,serif" font-size="35.00">R105</text>
</a>
</g>
</g>
<!-- R87&#45;&gt;R105 -->
<g id="edge5" class="edge">
<title>R87&#45;&gt;R105</title>
<path fill="none" stroke="black" d="M633.28,-348.06C637.05,-406.92 650.22,-559.22 687,-590.77 756.11,-650.06 1035.68,-633.55 1157.17,-623.21"/>
<polygon fill="black" stroke="black" points="1157.41,-626.62 1167.07,-622.26 1156.81,-619.64 1157.41,-626.62"/>
<text text-anchor="middle" x="923" y="-641.77" font-family="Times New Roman,serif" font-size="30.00"> &#160;&#160;146 &#160;&#160;11% &#160;&#160;0.0342 mol/s &#160;&#160;&#160;1.00E+00</text>
</g>
<!-- R106 -->
<g id="node7" class="node">
<title>R106</title>
<g id="a_node7"><a xlink:href="106.svg" xlink:title="R106">
<polygon fill="cornsilk" stroke="none" points="1262,-576.27 1168,-576.27 1168,-529.27 1262,-529.27 1262,-576.27"/>
<text text-anchor="middle" x="1215" y="-544.27" font-family="Times New Roman,serif" font-size="35.00">R106</text>
</a>
</g>
</g>
<!-- R87&#45;&gt;R106 -->
<g id="edge6" class="edge">
<title>R87&#45;&gt;R106</title>
<path fill="none" stroke="black" d="M634.92,-348.07C641.48,-396.27 659.03,-504.28 687,-526.77 722.99,-555.7 1029.19,-555.19 1157.64,-553.67"/>
<polygon fill="black" stroke="black" points="1157.45,-557.16 1167.41,-553.53 1157.37,-550.16 1157.45,-557.16"/>
<text text-anchor="middle" x="923" y="-562.77" font-family="Times New Roman,serif" font-size="30.00"> &#160;&#160;147 &#160;&#160;11% &#160;&#160;0.0342 mol/s &#160;&#160;&#160;1.00E+00</text>
</g>
<!-- R166 -->
<g id="node8" class="node">
<title>R166</title>
<g id="a_node8"><a xlink:href="166.svg" xlink:title="R166">
<polygon fill="cornsilk" stroke="none" points="1262,-511.27 1168,-511.27 1168,-464.27 1262,-464.27 1262,-511.27"/>
<text text-anchor="middle" x="1215" y="-479.27" font-family="Times New Roman,serif" font-size="35.00">R166</text>
</a>
</g>
</g>
<!-- R87&#45;&gt;R166 -->
<g id="edge7" class="edge">
<title>R87&#45;&gt;R166</title>
<path fill="none" stroke="black" d="M633.58,-348.22C637.15,-380.71 648.84,-438.51 687,-465.77 724.51,-492.57 1029.12,-490.82 1157.39,-488.85"/>
<polygon fill="black" stroke="black" points="1157.2,-492.34 1167.15,-488.68 1157.09,-485.34 1157.2,-492.34"/>
<text text-anchor="middle" x="923" y="-498.77" font-family="Times New Roman,serif" font-size="30.00"> &#160;&#160;218 &#160;&#160;11% &#160;&#160;0.0342 mol/s &#160;&#160;&#160;1.00E+00</text>
</g>
<!-- R167 -->
<g id="node9" class="node">
<title>R167</title>
<g id="a_node9"><a xlink:href="167.svg" xlink:title="R167">
<polygon fill="cornsilk" stroke="none" points="1262,-446.27 1168,-446.27 1168,-399.27 1262,-399.27 1262,-446.27"/>
<text text-anchor="middle" x="1215" y="-414.27" font-family="Times New Roman,serif" font-size="35.00">R167</text>
</a>
</g>
</g>
<!-- R87&#45;&gt;R167 -->
<g id="edge8" class="edge">
<title>R87&#45;&gt;R167</title>
<path fill="none" stroke="black" d="M643.42,-348.03C652.73,-364.23 667.52,-384.66 687,-394.77 767.53,-436.59 1038.91,-430.46 1157.62,-425.54"/>
<polygon fill="black" stroke="black" points="1157.44,-429.01 1167.28,-425.09 1157.14,-422.02 1157.44,-429.01"/>
<text text-anchor="middle" x="923" y="-437.77" font-family="Times New Roman,serif" font-size="30.00"> &#160;&#160;219 &#160;&#160;11% &#160;&#160;0.0342 mol/s &#160;&#160;&#160;1.00E+00</text>
</g>
<!-- R208 -->
<g id="node11" class="node">
<title>R208</title>
<g id="a_node11"><a xlink:href="208.svg" xlink:title="R208">
<polygon fill="cornsilk" stroke="none" points="1262,-381.27 1168,-381.27 1168,-334.27 1262,-334.27 1262,-381.27"/>
<text text-anchor="middle" x="1215" y="-349.27" font-family="Times New Roman,serif" font-size="35.00">R208</text>
</a>
</g>
</g>
<!-- R87&#45;&gt;R208 -->
<g id="edge10" class="edge">
<title>R87&#45;&gt;R208</title>
<path fill="none" stroke="black" d="M668.85,-332.96C674.89,-334.07 681.1,-335.06 687,-335.77 857.32,-356.23 1060.57,-358.53 1157.35,-358.29"/>
<polygon fill="black" stroke="black" points="1157.35,-361.78 1167.34,-358.25 1157.33,-354.78 1157.35,-361.78"/>
<text text-anchor="middle" x="923" y="-366.77" font-family="Times New Roman,serif" font-size="30.00"> &#160;&#160;269 &#160;&#160;11% &#160;&#160;0.0342 mol/s &#160;&#160;&#160;1.00E+00</text>
</g>
<!-- R209 -->
<g id="node12" class="node">
<title>R209</title>
<g id="a_node12"><a xlink:href="209.svg" xlink:title="R209">
<polygon fill="cornsilk" stroke="none" points="1262,-316.27 1168,-316.27 1168,-269.27 1262,-269.27 1262,-316.27"/>
<text text-anchor="middle" x="1215" y="-284.27" font-family="Times New Roman,serif" font-size="35.00">R209</text>
</a>
</g>
</g>
<!-- R87&#45;&gt;R209 -->
<g id="edge11" class="edge">
<title>R87&#45;&gt;R209</title>
<path fill="none" stroke="black" d="M668.72,-307.98C674.72,-305.85 680.95,-304 687,-302.77 855.41,-268.68 1060.28,-279.22 1157.53,-287.26"/>
<polygon fill="black" stroke="black" points="1157.02,-290.81 1167.28,-288.17 1157.62,-283.84 1157.02,-290.81"/>
<text text-anchor="middle" x="923" y="-311.77" font-family="Times New Roman,serif" font-size="30.00"> &#160;&#160;270 &#160;&#160;11% &#160;&#160;0.0342 mol/s &#160;&#160;&#160;1.00E+00</text>
</g>
<!-- R267 -->
<g id="node14" class="node">
<title>R267</title>
<g id="a_node14"><a xlink:href="267.svg" xlink:title="R267">
<polygon fill="cornsilk" stroke="none" points="1262,-251.27 1168,-251.27 1168,-204.27 1262,-204.27 1262,-251.27"/>
<text text-anchor="middle" x="1215" y="-219.27" font-family="Times New Roman,serif" font-size="35.00">R267</text>
</a>
</g>
</g>
<!-- R87&#45;&gt;R267 -->
<g id="edge13" class="edge">
<title>R87&#45;&gt;R267</title>
<path fill="none" stroke="black" d="M640.31,-301.5C648.74,-281.73 663.87,-254.59 687,-241.77 766.28,-197.83 1038.35,-213.5 1157.43,-222.85"/>
<polygon fill="black" stroke="black" points="1156.88,-226.39 1167.12,-223.7 1157.43,-219.42 1156.88,-226.39"/>
<text text-anchor="middle" x="923" y="-250.77" font-family="Times New Roman,serif" font-size="30.00"> &#160;&#160;363 &#160;&#160;11% &#160;&#160;0.0342 mol/s &#160;&#160;&#160;1.00E+00</text>
</g>
<!-- R268 -->
<g id="node15" class="node">
<title>R268</title>
<g id="a_node15"><a xlink:href="268.svg" xlink:title="R268">
<polygon fill="cornsilk" stroke="none" points="1262,-186.27 1168,-186.27 1168,-139.27 1262,-139.27 1262,-186.27"/>
<text text-anchor="middle" x="1215" y="-154.27" font-family="Times New Roman,serif" font-size="35.00">R268</text>
</a>
</g>
</g>
<!-- R87&#45;&gt;R268 -->
<g id="edge14" class="edge">
<title>R87&#45;&gt;R268</title>
<path fill="none" stroke="black" d="M632.86,-301.5C635.52,-267.22 646.06,-204.07 687,-174.77 760.89,-121.9 1037.18,-143.82 1157.46,-156.33"/>
<polygon fill="black" stroke="black" points="1156.94,-159.9 1167.25,-157.47 1157.68,-152.94 1156.94,-159.9"/>
<text text-anchor="middle" x="923" y="-183.77" font-family="Times New Roman,serif" font-size="30.00"> &#160;&#160;364 &#160;&#160;10% &#160;&#160;0.0339 mol/s &#160;&#160;&#160;9.91E&#45;01</text>
</g>
<!-- R269 -->
<g id="node16" class="node">
<title>R269</title>
<g id="a_node16"><a xlink:href="269.svg" xlink:title="R269">
<polygon fill="cornsilk" stroke="none" points="1262,-121.27 1168,-121.27 1168,-74.27 1262,-74.27 1262,-121.27"/>
<text text-anchor="middle" x="1215" y="-89.27" font-family="Times New Roman,serif" font-size="35.00">R269</text>
</a>
</g>
</g>
<!-- R87&#45;&gt;R269 -->
<g id="edge15" class="edge">
<title>R87&#45;&gt;R269</title>
<path fill="none" stroke="black" d="M634.25,-301.58C639.78,-249.99 655.91,-128.36 687,-103.77 758.34,-47.36 1036.67,-74.94 1157.5,-90.08"/>
<polygon fill="black" stroke="black" points="1156.98,-93.67 1167.35,-91.46 1157.87,-86.73 1156.98,-93.67"/>
<text text-anchor="middle" x="923" y="-112.77" font-family="Times New Roman,serif" font-size="30.00"> &#160;&#160;365 &#160;&#160;11% &#160;&#160;0.0342 mol/s &#160;&#160;&#160;9.99E&#45;01</text>
</g>
<!-- R93 -->
<g id="node18" class="node">
<title>R93</title>
<g id="a_node18"><a xlink:href="93.svg" xlink:title="R93">
<polygon fill="cornsilk" stroke="none" points="1253,-56.27 1177,-56.27 1177,-9.27 1253,-9.27 1253,-56.27"/>
<text text-anchor="middle" x="1215" y="-24.27" font-family="Times New Roman,serif" font-size="35.00">R93</text>
</a>
</g>
</g>
<!-- R87&#45;&gt;R93 -->
<g id="edge18" class="edge">
<title>R87&#45;&gt;R93</title>
<path fill="none" stroke="black" d="M632.74,-301.52C635.26,-238.69 645.86,-67.93 687,-33.77 758.86,25.89 1051.29,-8.97 1166.77,-25.54"/>
<polygon fill="black" stroke="black" points="1165.98,-29.11 1176.38,-27.08 1166.98,-22.18 1165.98,-29.11"/>
<text text-anchor="middle" x="923" y="-42.77" font-family="Times New Roman,serif" font-size="30.00"> &#160;&#160;475 &#160;&#160;0% &#160;&#160;0.0027 mol/s &#160;&#160;&#160;9.94E&#45;01</text>
</g>
<!-- R13 -->
<g id="node2" class="node">
<title>R13</title>
<g id="a_node2"><a xlink:href="13.svg" xlink:title="R13">
<polygon fill="cornsilk" stroke="none" points="85,-573.27 9,-573.27 9,-526.27 85,-526.27 85,-573.27"/>
<text text-anchor="middle" x="47" y="-541.27" font-family="Times New Roman,serif" font-size="35.00">R13</text>
</a>
</g>
</g>
<!-- R13&#45;&gt;R87 -->
<g id="edge1" class="edge">
<title>R13&#45;&gt;R87</title>
<path fill="none" stroke="black" d="M84.9,-560.79C177.85,-586.12 424.67,-637.84 571,-522.77 620.78,-483.63 629.96,-404.31 630.86,-358.84"/>
<polygon fill="black" stroke="black" points="634.37,-359.08 630.93,-349.06 627.37,-359.04 634.37,-359.08"/>
<text text-anchor="middle" x="339" y="-602.77" font-family="Times New Roman,serif" font-size="30.00"> &#160;&#160;93 &#160;&#160;1% &#160;&#160;0.0341 mol/s &#160;&#160;&#160;9.97E&#45;01</text>
</g>
<!-- R14 -->
<g id="node3" class="node">
<title>R14</title>
<g id="a_node3"><a xlink:href="14.svg" xlink:title="R14">
<polygon fill="cornsilk" stroke="none" points="85,-508.27 9,-508.27 9,-461.27 85,-461.27 85,-508.27"/>
<text text-anchor="middle" x="47" y="-476.27" font-family="Times New Roman,serif" font-size="35.00">R14</text>
</a>
</g>
</g>
<!-- R14&#45;&gt;R87 -->
<g id="edge2" class="edge">
<title>R14&#45;&gt;R87</title>
<path fill="none" stroke="black" d="M84.73,-485.3C197.13,-486.62 531.25,-488.18 571,-460.77 604.55,-437.64 619.17,-391.1 625.44,-358.95"/>
<polygon fill="black" stroke="black" points="629.04,-359.7 627.33,-349.24 622.14,-358.48 629.04,-359.7"/>
<text text-anchor="middle" x="339" y="-494.77" font-family="Times New Roman,serif" font-size="30.00"> &#160;&#160;93 &#160;&#160;1% &#160;&#160;0.0341 mol/s &#160;&#160;&#160;9.97E&#45;01</text>
</g>
<!-- R0 -->
<g id="node4" class="node">
<title>R0</title>
<g id="a_node4"><a xlink:href="0.svg" xlink:title="R0">
<polygon fill="cornsilk" stroke="none" points="76,-443.27 18,-443.27 18,-396.27 76,-396.27 76,-443.27"/>
<text text-anchor="middle" x="47" y="-411.27" font-family="Times New Roman,serif" font-size="35.00">R0</text>
</a>
</g>
</g>
<!-- R0&#45;&gt;R87 -->
<g id="edge3" class="edge">
<title>R0&#45;&gt;R87</title>
<path fill="none" stroke="black" d="M75.82,-420.9C170.97,-424.36 482.36,-432.1 571,-389.77 586.31,-382.46 599.46,-369.22 609.43,-356.59"/>
<polygon fill="black" stroke="black" points="612.65,-359.13 615.82,-349.02 607.04,-354.94 612.65,-359.13"/>
<text text-anchor="middle" x="339" y="-432.77" font-family="Times New Roman,serif" font-size="30.00"> &#160;&#160;144 &#160;&#160;1% &#160;&#160;0.0342 mol/s &#160;&#160;&#160;1.00E+00</text>
</g>
<!-- R86 -->
<g id="node5" class="node">
<title>R86</title>
<g id="a_node5"><a xlink:href="86.svg" xlink:title="R86">
<polygon fill="cornsilk" stroke="none" points="85,-378.27 9,-378.27 9,-331.27 85,-331.27 85,-378.27"/>
<text text-anchor="middle" x="47" y="-346.27" font-family="Times New Roman,serif" font-size="35.00">R86</text>
</a>
</g>
</g>
<!-- R86&#45;&gt;R87 -->
<g id="edge4" class="edge">
<title>R86&#45;&gt;R87</title>
<path fill="none" stroke="black" d="M84.84,-354.09C170.35,-352.3 388.92,-346.56 571,-331.77 574.71,-331.47 578.55,-331.11 582.4,-330.73"/>
<polygon fill="black" stroke="black" points="582.65,-334.11 592.22,-329.56 581.9,-327.15 582.65,-334.11"/>
<text text-anchor="middle" x="339" y="-361.77" font-family="Times New Roman,serif" font-size="30.00"> &#160;&#160;144 &#160;&#160;1% &#160;&#160;0.0342 mol/s &#160;&#160;&#160;1.00E+00</text>
</g>
<!-- R168 -->
<g id="node10" class="node">
<title>R168</title>
<g id="a_node10"><a xlink:href="168.svg" xlink:title="R168">
<polygon fill="cornsilk" stroke="none" points="94,-313.27 0,-313.27 0,-266.27 94,-266.27 94,-313.27"/>
<text text-anchor="middle" x="47" y="-281.27" font-family="Times New Roman,serif" font-size="35.00">R168</text>
</a>
</g>
</g>
<!-- R168&#45;&gt;R87 -->
<g id="edge9" class="edge">
<title>R168&#45;&gt;R87</title>
<path fill="none" stroke="black" d="M93.64,-287.54C203.71,-282.6 481.26,-272.81 571,-294.77 575.09,-295.77 579.22,-297.1 583.29,-298.64"/>
<polygon fill="black" stroke="black" points="581.66,-302.18 592.24,-302.85 584.39,-295.73 581.66,-302.18"/>
<text text-anchor="middle" x="339" y="-303.77" font-family="Times New Roman,serif" font-size="30.00"> &#160;&#160;220 &#160;&#160;6% &#160;&#160;0.139 mol/s &#160;&#160;&#160;1.65E&#45;01</text>
</g>
<!-- R210 -->
<g id="node13" class="node">
<title>R210</title>
<g id="a_node13"><a xlink:href="210.svg" xlink:title="R210">
<polygon fill="cornsilk" stroke="none" points="94,-248.27 0,-248.27 0,-201.27 94,-201.27 94,-248.27"/>
<text text-anchor="middle" x="47" y="-216.27" font-family="Times New Roman,serif" font-size="35.00">R210</text>
</a>
</g>
</g>
<!-- R210&#45;&gt;R87 -->
<g id="edge12" class="edge">
<title>R210&#45;&gt;R87</title>
<path fill="none" stroke="black" stroke-width="4" d="M93.58,-224.17C213.16,-222.9 529.49,-221.69 571,-243.77 587.4,-252.49 600.38,-268.03 609.94,-283.18"/>
<polygon fill="black" stroke="black" stroke-width="4" points="602.2,-282.25 618.07,-296.3 614.42,-275.42 602.2,-282.25"/>
<text text-anchor="middle" x="339" y="-252.77" font-family="Times New Roman,serif" font-size="30.00"> &#160;&#160;271 &#160;&#160;79% &#160;&#160;1.76 mol/s &#160;&#160;&#160;1.87E&#45;02</text>
</g>
<!-- R60 -->
<g id="node17" class="node">
<title>R60</title>
<g id="a_node17"><a xlink:href="60.svg" xlink:title="R60">
<polygon fill="cornsilk" stroke="none" points="85,-169.27 9,-169.27 9,-122.27 85,-122.27 85,-169.27"/>
<text text-anchor="middle" x="47" y="-137.27" font-family="Times New Roman,serif" font-size="35.00">R60</text>
</a>
</g>
</g>
<!-- R60&#45;&gt;R87 -->
<g id="edge16" class="edge">
<title>R60&#45;&gt;R87</title>
<path fill="none" stroke="black" d="M84.91,-156.33C92.18,-158.07 99.79,-159.67 107,-160.77 158.04,-168.56 528.73,-156.13 571,-185.77 605.33,-209.84 619.79,-258.08 625.81,-290.9"/>
<polygon fill="black" stroke="black" points="622.46,-291.09 627.55,-300.38 629.37,-289.95 622.46,-291.09"/>
<text text-anchor="middle" x="339" y="-194.77" font-family="Times New Roman,serif" font-size="30.00"> &#160;&#160;445 &#160;&#160;0% &#160;&#160;0.00269 mol/s &#160;&#160;&#160;9.89E&#45;01</text>
</g>
<!-- R60&#45;&gt;R87 -->
<g id="edge17" class="edge">
<title>R60&#45;&gt;R87</title>
<path fill="none" stroke="black" d="M84.92,-129.94C177.4,-93 422.23,-12.39 571,-123.77 597.78,-143.82 616.55,-238.89 624.98,-290.77"/>
<polygon fill="black" stroke="black" points="621.65,-291.12 626.67,-300.45 628.56,-290.03 621.65,-291.12"/>
<text text-anchor="middle" x="339" y="-132.77" font-family="Times New Roman,serif" font-size="30.00"> &#160;&#160;474 &#160;&#160;11% &#160;&#160;0.249 mol/s &#160;&#160;&#160;1.07E&#45;02</text>
</g>
</g>
</svg>
