<?xml version="1.0" encoding="UTF-8" standalone="no"?>
<!DOCTYPE svg PUBLIC "-//W3C//DTD SVG 1.1//EN"
 "http://www.w3.org/Graphics/SVG/1.1/DTD/svg11.dtd">
<!-- Generated by graphviz version 8.0.3 (20230416.2022)
 -->
<!-- Title: G Pages: 1 -->
<svg width="595pt" height="549pt"
 viewBox="0.00 0.00 669.00 617.52" xmlns="http://www.w3.org/2000/svg" xmlns:xlink="http://www.w3.org/1999/xlink">
<g id="graph0" class="graph" transform="scale(0.888889 0.888889) rotate(0) translate(4 613.52)">
<title>G</title>
<polygon fill="white" stroke="none" points="-4,4 -4,-613.52 665,-613.52 665,4 -4,4"/>
<text text-anchor="middle" x="330.5" y="-576.72" font-family="Arial" font-size="36.00" fill="blue">Reaction Path Analysis</text>
<!-- R88 -->
<g id="node1" class="node">
<title>R88</title>
<g id="a_node1"><a xlink:href="88.svg" xlink:title="R88">
<polygon fill="cornsilk" stroke="none" points="661,-310.02 585,-310.02 585,-263.02 661,-263.02 661,-310.02"/>
<text text-anchor="middle" x="623" y="-278.02" font-family="Times New Roman,serif" font-size="35.00">R88</text>
</a>
</g>
</g>
<!-- R13 -->
<g id="node2" class="node">
<title>R13</title>
<g id="a_node2"><a xlink:href="13.svg" xlink:title="R13">
<polygon fill="cornsilk" stroke="none" points="85,-538.02 9,-538.02 9,-491.02 85,-491.02 85,-538.02"/>
<text text-anchor="middle" x="47" y="-506.02" font-family="Times New Roman,serif" font-size="35.00">R13</text>
</a>
</g>
</g>
<!-- R13&#45;&gt;R88 -->
<g id="edge1" class="edge">
<title>R13&#45;&gt;R88</title>
<path fill="none" stroke="green" d="M84.72,-517.94C190.52,-527 493.12,-547.01 567,-487.52 592.93,-466.65 610,-371.95 617.55,-320.33"/>
<polygon fill="green" stroke="green" points="621.12,-321.1 619.06,-310.71 614.18,-320.11 621.12,-321.1"/>
<text text-anchor="middle" x="335" y="-537.52" font-family="Times New Roman,serif" font-size="30.00"> &#160;&#160;94 &#160;&#160;0% &#160;&#160;0.0017 mol/s &#160;&#160;&#160;5.13E&#45;01</text>
</g>
<!-- R14 -->
<g id="node3" class="node">
<title>R14</title>
<g id="a_node3"><a xlink:href="14.svg" xlink:title="R14">
<polygon fill="cornsilk" stroke="none" points="85,-473.02 9,-473.02 9,-426.02 85,-426.02 85,-473.02"/>
<text text-anchor="middle" x="47" y="-441.02" font-family="Times New Roman,serif" font-size="35.00">R14</text>
</a>
</g>
</g>
<!-- R14&#45;&gt;R88 -->
<g id="edge2" class="edge">
<title>R14&#45;&gt;R88</title>
<path fill="none" stroke="green" d="M84.88,-450.18C196.92,-451.84 528.06,-454.35 567,-426.52 601.08,-402.18 614.04,-353.39 618.97,-320.34"/>
<polygon fill="green" stroke="green" points="622.53,-321.17 620.36,-310.8 615.59,-320.26 622.53,-321.17"/>
<text text-anchor="middle" x="335" y="-459.52" font-family="Times New Roman,serif" font-size="30.00"> &#160;&#160;94 &#160;&#160;0% &#160;&#160;0.0017 mol/s &#160;&#160;&#160;5.13E&#45;01</text>
</g>
<!-- R0 -->
<g id="node4" class="node">
<title>R0</title>
<g id="a_node4"><a xlink:href="0.svg" xlink:title="R0">
<polygon fill="cornsilk" stroke="none" points="76,-408.02 18,-408.02 18,-361.02 76,-361.02 76,-408.02"/>
<text text-anchor="middle" x="47" y="-376.02" font-family="Times New Roman,serif" font-size="35.00">R0</text>
</a>
</g>
</g>
<!-- R0&#45;&gt;R88 -->
<g id="edge3" class="edge">
<title>R0&#45;&gt;R88</title>
<path fill="none" stroke="black" d="M75.72,-385.98C170.49,-390.5 480.53,-401.47 567,-356.52 582.97,-348.22 595.8,-332.98 605.03,-318.84"/>
<polygon fill="black" stroke="black" points="608.34,-321.14 610.58,-310.78 602.37,-317.48 608.34,-321.14"/>
<text text-anchor="middle" x="335" y="-398.52" font-family="Times New Roman,serif" font-size="30.00"> &#160;&#160;145 &#160;&#160;0% &#160;&#160;0.0342 mol/s &#160;&#160;&#160;1.00E+00</text>
</g>
<!-- R86 -->
<g id="node5" class="node">
<title>R86</title>
<g id="a_node5"><a xlink:href="86.svg" xlink:title="R86">
<polygon fill="cornsilk" stroke="none" points="85,-343.02 9,-343.02 9,-296.02 85,-296.02 85,-343.02"/>
<text text-anchor="middle" x="47" y="-311.02" font-family="Times New Roman,serif" font-size="35.00">R86</text>
</a>
</g>
</g>
<!-- R86&#45;&gt;R88 -->
<g id="edge4" class="edge">
<title>R86&#45;&gt;R88</title>
<path fill="none" stroke="black" d="M84.97,-319.92C170.26,-320.4 387.25,-319.18 567,-297.52 569.4,-297.24 571.84,-296.9 574.31,-296.53"/>
<polygon fill="black" stroke="black" points="574.86,-299.82 584.15,-294.71 573.7,-292.91 574.86,-299.82"/>
<text text-anchor="middle" x="335" y="-328.52" font-family="Times New Roman,serif" font-size="30.00"> &#160;&#160;145 &#160;&#160;0% &#160;&#160;0.0342 mol/s &#160;&#160;&#160;1.00E+00</text>
</g>
<!-- R169 -->
<g id="node6" class="node">
<title>R169</title>
<g id="a_node6"><a xlink:href="169.svg" xlink:title="R169">
<polygon fill="cornsilk" stroke="none" points="94,-278.02 0,-278.02 0,-231.02 94,-231.02 94,-278.02"/>
<text text-anchor="middle" x="47" y="-246.02" font-family="Times New Roman,serif" font-size="35.00">R169</text>
</a>
</g>
</g>
<!-- R169&#45;&gt;R88 -->
<g id="edge5" class="edge">
<title>R169&#45;&gt;R88</title>
<path fill="none" stroke="black" stroke-width="5" d="M93.72,-249.95C181.62,-242.31 380.36,-230.59 564.89,-265.65"/>
<polygon fill="black" stroke="black" stroke-width="5" points="557.95,-273.39 579.28,-268.74 561.39,-256.23 557.95,-273.39"/>
<text text-anchor="middle" x="335" y="-273.52" font-family="Times New Roman,serif" font-size="30.00"> &#160;&#160;221 &#160;&#160;99% &#160;&#160;51.4 mol/s &#160;&#160;&#160;6.64E&#45;04</text>
</g>
<!-- R211 -->
<g id="node7" class="node">
<title>R211</title>
<g id="a_node7"><a xlink:href="211.svg" xlink:title="R211">
<polygon fill="cornsilk" stroke="none" points="94,-213.02 0,-213.02 0,-166.02 94,-166.02 94,-213.02"/>
<text text-anchor="middle" x="47" y="-181.02" font-family="Times New Roman,serif" font-size="35.00">R211</text>
</a>
</g>
</g>
<!-- R211&#45;&gt;R88 -->
<g id="edge6" class="edge">
<title>R211&#45;&gt;R88</title>
<path fill="none" stroke="black" d="M94,-185.47C205.46,-176.48 486.69,-158.99 567,-203.52 586.43,-214.29 600.21,-235.16 609.12,-253.28"/>
<polygon fill="black" stroke="black" points="606.34,-254.62 613.69,-262.26 612.7,-251.71 606.34,-254.62"/>
<text text-anchor="middle" x="335" y="-212.52" font-family="Times New Roman,serif" font-size="30.00"> &#160;&#160;272 &#160;&#160;0% &#160;&#160;0.406 mol/s &#160;&#160;&#160;7.21E&#45;02</text>
</g>
<!-- R270 -->
<g id="node8" class="node">
<title>R270</title>
<g id="a_node8"><a xlink:href="270.svg" xlink:title="R270">
<polygon fill="cornsilk" stroke="none" points="94,-148.02 0,-148.02 0,-101.02 94,-101.02 94,-148.02"/>
<text text-anchor="middle" x="47" y="-116.02" font-family="Times New Roman,serif" font-size="35.00">R270</text>
</a>
</g>
</g>
<!-- R270&#45;&gt;R88 -->
<g id="edge7" class="edge">
<title>R270&#45;&gt;R88</title>
<path fill="none" stroke="black" d="M93.88,-119.23C206.36,-107.23 492.15,-82.95 567,-136.52 603.94,-162.96 616.12,-216.97 620.11,-252.44"/>
<polygon fill="black" stroke="black" points="616.71,-252.63 621.14,-262.25 623.68,-251.97 616.71,-252.63"/>
<text text-anchor="middle" x="335" y="-145.52" font-family="Times New Roman,serif" font-size="30.00"> &#160;&#160;366 &#160;&#160;0% &#160;&#160;0.0218 mol/s &#160;&#160;&#160;3.79E&#45;01</text>
</g>
<!-- R110 -->
<g id="node9" class="node">
<title>R110</title>
<g id="a_node9"><a xlink:href="110.svg" xlink:title="R110">
<polygon fill="cornsilk" stroke="none" points="94,-83.02 0,-83.02 0,-36.02 94,-36.02 94,-83.02"/>
<text text-anchor="middle" x="47" y="-51.02" font-family="Times New Roman,serif" font-size="35.00">R110</text>
</a>
</g>
</g>
<!-- R110&#45;&gt;R88 -->
<g id="edge8" class="edge">
<title>R110&#45;&gt;R88</title>
<path fill="none" stroke="black" d="M93.93,-43.38C192.53,-11.92 426.89,45.3 567,-65.52 596.08,-88.53 612.08,-196.47 618.55,-252.53"/>
<polygon fill="black" stroke="black" points="615.16,-252.78 619.75,-262.33 622.12,-252.01 615.16,-252.78"/>
<text text-anchor="middle" x="335" y="-74.52" font-family="Times New Roman,serif" font-size="30.00"> &#160;&#160;641 &#160;&#160;0% &#160;&#160;0.00167 mol/s &#160;&#160;&#160;7.21E&#45;01</text>
</g>
</g>
</svg>
