<?xml version="1.0" encoding="UTF-8" standalone="no"?>
<!DOCTYPE svg PUBLIC "-//W3C//DTD SVG 1.1//EN"
 "http://www.w3.org/Graphics/SVG/1.1/DTD/svg11.dtd">
<!-- Generated by graphviz version 8.0.3 (20230416.2022)
 -->
<!-- Title: G Pages: 1 -->
<svg width="640pt" height="175pt"
 viewBox="0.00 0.00 720.00 197.30" xmlns="http://www.w3.org/2000/svg" xmlns:xlink="http://www.w3.org/1999/xlink">
<g id="graph0" class="graph" transform="scale(0.490421 0.490421) rotate(0) translate(4 353.61)">
<title>G</title>
<polygon fill="white" stroke="none" points="-4,4 -4,-353.61 1301,-353.61 1301,4 -4,4"/>
<text text-anchor="middle" x="648.5" y="-316.81" font-family="Arial" font-size="36.00" fill="blue">Reaction Path Analysis</text>
<!-- R88 -->
<g id="node1" class="node">
<title>R88</title>
<g id="a_node1"><a xlink:href="88.svg" xlink:title="R88">
<polygon fill="cornsilk" stroke="none" points="682,-164.11 606,-164.11 606,-117.11 682,-117.11 682,-164.11"/>
<text text-anchor="middle" x="644" y="-132.11" font-family="Times New Roman,serif" font-size="35.00">R88</text>
</a>
</g>
</g>
<!-- R169 -->
<g id="node6" class="node">
<title>R169</title>
<g id="a_node6"><a xlink:href="169.svg" xlink:title="R169">
<polygon fill="cornsilk" stroke="none" points="1297,-262.11 1203,-262.11 1203,-215.11 1297,-215.11 1297,-262.11"/>
<text text-anchor="middle" x="1250" y="-230.11" font-family="Times New Roman,serif" font-size="35.00">R169</text>
</a>
</g>
</g>
<!-- R88&#45;&gt;R169 -->
<g id="edge5" class="edge">
<title>R88&#45;&gt;R169</title>
<path fill="none" stroke="black" stroke-width="2" d="M656.41,-163.88C665.72,-180.08 680.51,-200.51 700,-210.61 862.06,-294.54 1088.35,-268.7 1192.48,-250.25"/>
<polygon fill="black" stroke="black" stroke-width="2" points="1191.85,-253.56 1201.07,-248.33 1190.6,-246.67 1191.85,-253.56"/>
<text text-anchor="middle" x="947" y="-277.61" font-family="Times New Roman,serif" font-size="30.00"> &#160;&#160;221 &#160;&#160;33% &#160;&#160;4.67e&#45;08 mol/s &#160;&#160;&#160;1.00E+00</text>
</g>
<!-- R211 -->
<g id="node7" class="node">
<title>R211</title>
<g id="a_node7"><a xlink:href="211.svg" xlink:title="R211">
<polygon fill="cornsilk" stroke="none" points="1297,-197.11 1203,-197.11 1203,-150.11 1297,-150.11 1297,-197.11"/>
<text text-anchor="middle" x="1250" y="-165.11" font-family="Times New Roman,serif" font-size="35.00">R211</text>
</a>
</g>
</g>
<!-- R88&#45;&gt;R211 -->
<g id="edge6" class="edge">
<title>R88&#45;&gt;R211</title>
<path fill="none" stroke="black" stroke-width="2" d="M681.85,-148.81C687.89,-149.91 694.1,-150.9 700,-151.61 878.94,-172.95 1092.76,-174.77 1192.53,-174.26"/>
<polygon fill="black" stroke="black" stroke-width="2" points="1190.28,-177.76 1200.26,-174.2 1190.24,-170.76 1190.28,-177.76"/>
<text text-anchor="middle" x="947" y="-182.61" font-family="Times New Roman,serif" font-size="30.00"> &#160;&#160;272 &#160;&#160;33% &#160;&#160;4.67e&#45;08 mol/s &#160;&#160;&#160;1.00E+00</text>
</g>
<!-- R270 -->
<g id="node8" class="node">
<title>R270</title>
<g id="a_node8"><a xlink:href="270.svg" xlink:title="R270">
<polygon fill="cornsilk" stroke="none" points="1297,-132.11 1203,-132.11 1203,-85.11 1297,-85.11 1297,-132.11"/>
<text text-anchor="middle" x="1250" y="-100.11" font-family="Times New Roman,serif" font-size="35.00">R270</text>
</a>
</g>
</g>
<!-- R88&#45;&gt;R270 -->
<g id="edge7" class="edge">
<title>R88&#45;&gt;R270</title>
<path fill="none" stroke="black" stroke-width="2" d="M681.72,-123.81C687.72,-121.69 693.95,-119.83 700,-118.61 876.75,-82.89 1092.04,-94.5 1192.41,-102.99"/>
<polygon fill="black" stroke="black" stroke-width="2" points="1189.94,-106.55 1200.21,-103.93 1190.55,-99.58 1189.94,-106.55"/>
<text text-anchor="middle" x="947" y="-127.61" font-family="Times New Roman,serif" font-size="30.00"> &#160;&#160;366 &#160;&#160;33% &#160;&#160;4.67e&#45;08 mol/s &#160;&#160;&#160;1.00E+00</text>
</g>
<!-- R110 -->
<g id="node9" class="node">
<title>R110</title>
<g id="a_node9"><a xlink:href="110.svg" xlink:title="R110">
<polygon fill="cornsilk" stroke="none" points="1297,-67.11 1203,-67.11 1203,-20.11 1297,-20.11 1297,-67.11"/>
<text text-anchor="middle" x="1250" y="-35.11" font-family="Times New Roman,serif" font-size="35.00">R110</text>
</a>
</g>
</g>
<!-- R88&#45;&gt;R110 -->
<g id="edge8" class="edge">
<title>R88&#45;&gt;R110</title>
<path fill="none" stroke="black" d="M653.06,-117.44C661.4,-97.4 676.54,-69.65 700,-56.61 859.55,32.09 1087.55,-4.62 1192.36,-28.76"/>
<polygon fill="black" stroke="black" points="1191.47,-32.39 1202.01,-31.27 1193.08,-25.57 1191.47,-32.39"/>
<text text-anchor="middle" x="947" y="-65.61" font-family="Times New Roman,serif" font-size="30.00"> &#160;&#160;641 &#160;&#160;0% &#160;&#160;1.35e&#45;11 mol/s &#160;&#160;&#160;3.00E&#45;01</text>
</g>
<!-- R13 -->
<g id="node2" class="node">
<title>R13</title>
<g id="a_node2"><a xlink:href="13.svg" xlink:title="R13">
<polygon fill="cornsilk" stroke="none" points="76,-262.11 0,-262.11 0,-215.11 76,-215.11 76,-262.11"/>
<text text-anchor="middle" x="38" y="-230.11" font-family="Times New Roman,serif" font-size="35.00">R13</text>
</a>
</g>
</g>
<!-- R13&#45;&gt;R88 -->
<g id="edge1" class="edge">
<title>R13&#45;&gt;R88</title>
<path fill="none" stroke="black" stroke-width="3" d="M75.67,-246.56C167.94,-264.59 414.7,-300.37 588,-210.61 603.99,-202.33 616.81,-187.09 626.04,-172.94"/>
<polygon fill="black" stroke="black" stroke-width="3" points="627.35,-177.24 629.59,-166.88 621.38,-173.58 627.35,-177.24"/>
<text text-anchor="middle" x="341" y="-277.61" font-family="Times New Roman,serif" font-size="30.00"> &#160;&#160;94 &#160;&#160;50% &#160;&#160;4.67e&#45;08 mol/s &#160;&#160;&#160;1.00E+00</text>
</g>
<!-- R14 -->
<g id="node3" class="node">
<title>R14</title>
<g id="a_node3"><a xlink:href="14.svg" xlink:title="R14">
<polygon fill="cornsilk" stroke="none" points="76,-197.11 0,-197.11 0,-150.11 76,-150.11 76,-197.11"/>
<text text-anchor="middle" x="38" y="-165.11" font-family="Times New Roman,serif" font-size="35.00">R14</text>
</a>
</g>
</g>
<!-- R14&#45;&gt;R88 -->
<g id="edge2" class="edge">
<title>R14&#45;&gt;R88</title>
<path fill="none" stroke="black" stroke-width="3" d="M75.78,-174.12C164.32,-174.93 396.2,-174.49 588,-151.61 590.4,-151.32 592.84,-150.99 595.31,-150.62"/>
<polygon fill="black" stroke="black" stroke-width="3" points="592.86,-153.91 602.15,-148.81 591.71,-147 592.86,-153.91"/>
<text text-anchor="middle" x="341" y="-182.61" font-family="Times New Roman,serif" font-size="30.00"> &#160;&#160;94 &#160;&#160;50% &#160;&#160;4.67e&#45;08 mol/s &#160;&#160;&#160;1.00E+00</text>
</g>
<!-- R0 -->
<g id="node4" class="node">
<title>R0</title>
<g id="a_node4"><a xlink:href="0.svg" xlink:title="R0">
<polygon fill="cornsilk" stroke="none" points="67,-132.11 9,-132.11 9,-85.11 67,-85.11 67,-132.11"/>
<text text-anchor="middle" x="38" y="-100.11" font-family="Times New Roman,serif" font-size="35.00">R0</text>
</a>
</g>
</g>
<!-- R0&#45;&gt;R88 -->
<g id="edge3" class="edge">
<title>R0&#45;&gt;R88</title>
<path fill="none" stroke="black" stroke-width="3" d="M66.8,-105.62C148.05,-97.63 391.78,-78.96 588,-118.61 590.65,-119.14 593.33,-119.8 596.01,-120.54"/>
<polygon fill="black" stroke="black" stroke-width="3" points="591.69,-123.12 602.28,-122.81 593.82,-116.45 591.69,-123.12"/>
<text text-anchor="middle" x="341" y="-127.61" font-family="Times New Roman,serif" font-size="30.00"> &#160;&#160;145 &#160;&#160;50% &#160;&#160;4.67e&#45;08 mol/s &#160;&#160;&#160;1.00E+00</text>
</g>
<!-- R86 -->
<g id="node5" class="node">
<title>R86</title>
<g id="a_node5"><a xlink:href="86.svg" xlink:title="R86">
<polygon fill="cornsilk" stroke="none" points="76,-67.11 0,-67.11 0,-20.11 76,-20.11 76,-67.11"/>
<text text-anchor="middle" x="38" y="-35.11" font-family="Times New Roman,serif" font-size="35.00">R86</text>
</a>
</g>
</g>
<!-- R86&#45;&gt;R88 -->
<g id="edge4" class="edge">
<title>R86&#45;&gt;R88</title>
<path fill="none" stroke="black" stroke-width="3" d="M75.69,-33.56C168.5,-10.31 417.38,38.24 588,-56.61 607.8,-67.61 621.67,-89.09 630.53,-107.57"/>
<polygon fill="black" stroke="black" stroke-width="3" points="626.66,-105.74 633.94,-113.44 633.05,-102.88 626.66,-105.74"/>
<text text-anchor="middle" x="341" y="-65.61" font-family="Times New Roman,serif" font-size="30.00"> &#160;&#160;145 &#160;&#160;50% &#160;&#160;4.67e&#45;08 mol/s &#160;&#160;&#160;1.00E+00</text>
</g>
</g>
</svg>
