<?xml version="1.0" encoding="UTF-8" standalone="no"?>
<!DOCTYPE svg PUBLIC "-//W3C//DTD SVG 1.1//EN"
 "http://www.w3.org/Graphics/SVG/1.1/DTD/svg11.dtd">
<!-- Generated by graphviz version 8.0.3 (20230416.2022)
 -->
<!-- Title: G Pages: 1 -->
<svg width="640pt" height="391pt"
 viewBox="0.00 0.00 720.00 440.24" xmlns="http://www.w3.org/2000/svg" xmlns:xlink="http://www.w3.org/1999/xlink">
<g id="graph0" class="graph" transform="scale(0.501961 0.501961) rotate(0) translate(4 775.58)">
<title>G</title>
<polygon fill="white" stroke="none" points="-4,4 -4,-775.58 1271,-775.58 1271,4 -4,4"/>
<text text-anchor="middle" x="633.5" y="-738.78" font-family="Arial" font-size="36.00" fill="blue">Reaction Path Analysis</text>
<!-- R89 -->
<g id="node1" class="node">
<title>R89</title>
<g id="a_node1"><a xlink:href="89.svg" xlink:title="R89">
<polygon fill="cornsilk" stroke="none" points="667,-373.08 591,-373.08 591,-326.08 667,-326.08 667,-373.08"/>
<text text-anchor="middle" x="629" y="-341.08" font-family="Times New Roman,serif" font-size="35.00">R89</text>
</a>
</g>
</g>
<!-- R90 -->
<g id="node4" class="node">
<title>R90</title>
<g id="a_node4"><a xlink:href="90.svg" xlink:title="R90">
<polygon fill="cornsilk" stroke="none" points="1258,-698.08 1182,-698.08 1182,-651.08 1258,-651.08 1258,-698.08"/>
<text text-anchor="middle" x="1220" y="-666.08" font-family="Times New Roman,serif" font-size="35.00">R90</text>
</a>
</g>
</g>
<!-- R89&#45;&gt;R90 -->
<g id="edge3" class="edge">
<title>R89&#45;&gt;R90</title>
<path fill="none" stroke="black" d="M630.72,-372.82C633.21,-436.5 643.75,-611.44 685,-647.58 756.36,-710.1 1054.21,-689.99 1171.37,-679.35"/>
<polygon fill="black" stroke="black" points="1171.49,-682.76 1181.13,-678.36 1170.85,-675.79 1171.49,-682.76"/>
<text text-anchor="middle" x="924.5" y="-699.58" font-family="Times New Roman,serif" font-size="30.00"> &#160;&#160;148 &#160;&#160;9% &#160;&#160;2.18e&#45;15 mol/s &#160;&#160;&#160;1.00E+00</text>
</g>
<!-- R91 -->
<g id="node5" class="node">
<title>R91</title>
<g id="a_node5"><a xlink:href="91.svg" xlink:title="R91">
<polygon fill="cornsilk" stroke="none" points="1258,-633.08 1182,-633.08 1182,-586.08 1258,-586.08 1258,-633.08"/>
<text text-anchor="middle" x="1220" y="-601.08" font-family="Times New Roman,serif" font-size="35.00">R91</text>
</a>
</g>
</g>
<!-- R89&#45;&gt;R91 -->
<g id="edge4" class="edge">
<title>R89&#45;&gt;R91</title>
<path fill="none" stroke="black" d="M632.06,-373.02C637.29,-426.48 652.97,-554.87 685,-581.58 721.85,-612.32 1047.51,-611.67 1171.42,-610.29"/>
<polygon fill="black" stroke="black" points="1171.12,-613.78 1181.08,-610.16 1171.04,-606.78 1171.12,-613.78"/>
<text text-anchor="middle" x="924.5" y="-619.58" font-family="Times New Roman,serif" font-size="30.00"> &#160;&#160;149 &#160;&#160;9% &#160;&#160;2.18e&#45;15 mol/s &#160;&#160;&#160;1.00E+00</text>
</g>
<!-- R170 -->
<g id="node6" class="node">
<title>R170</title>
<g id="a_node6"><a xlink:href="170.svg" xlink:title="R170">
<polygon fill="cornsilk" stroke="none" points="1267,-568.08 1173,-568.08 1173,-521.08 1267,-521.08 1267,-568.08"/>
<text text-anchor="middle" x="1220" y="-536.08" font-family="Times New Roman,serif" font-size="35.00">R170</text>
</a>
</g>
</g>
<!-- R89&#45;&gt;R170 -->
<g id="edge5" class="edge">
<title>R89&#45;&gt;R170</title>
<path fill="none" stroke="black" d="M629.99,-373.08C631.39,-410.35 640.13,-482.29 685,-516.58 722.23,-545.03 1032.78,-546.02 1162.46,-545.17"/>
<polygon fill="black" stroke="black" points="1162.35,-548.67 1172.32,-545.09 1162.3,-541.67 1162.35,-548.67"/>
<text text-anchor="middle" x="924.5" y="-553.58" font-family="Times New Roman,serif" font-size="30.00"> &#160;&#160;222 &#160;&#160;9% &#160;&#160;2.18e&#45;15 mol/s &#160;&#160;&#160;1.00E+00</text>
</g>
<!-- R171 -->
<g id="node7" class="node">
<title>R171</title>
<g id="a_node7"><a xlink:href="171.svg" xlink:title="R171">
<polygon fill="cornsilk" stroke="none" points="1267,-503.08 1173,-503.08 1173,-456.08 1267,-456.08 1267,-503.08"/>
<text text-anchor="middle" x="1220" y="-471.08" font-family="Times New Roman,serif" font-size="35.00">R171</text>
</a>
</g>
</g>
<!-- R89&#45;&gt;R171 -->
<g id="edge6" class="edge">
<title>R89&#45;&gt;R171</title>
<path fill="none" stroke="black" d="M635.33,-373.03C642.25,-397.51 656.93,-434.77 685,-452.58 724.51,-477.65 1033.02,-479.98 1162.3,-479.84"/>
<polygon fill="black" stroke="black" points="1162.15,-483.34 1172.14,-479.82 1162.13,-476.34 1162.15,-483.34"/>
<text text-anchor="middle" x="924.5" y="-488.58" font-family="Times New Roman,serif" font-size="30.00"> &#160;&#160;223 &#160;&#160;9% &#160;&#160;2.18e&#45;15 mol/s &#160;&#160;&#160;1.00E+00</text>
</g>
<!-- R172 -->
<g id="node8" class="node">
<title>R172</title>
<g id="a_node8"><a xlink:href="172.svg" xlink:title="R172">
<polygon fill="cornsilk" stroke="none" points="1267,-438.08 1173,-438.08 1173,-391.08 1267,-391.08 1267,-438.08"/>
<text text-anchor="middle" x="1220" y="-406.08" font-family="Times New Roman,serif" font-size="35.00">R172</text>
</a>
</g>
</g>
<!-- R89&#45;&gt;R172 -->
<g id="edge7" class="edge">
<title>R89&#45;&gt;R172</title>
<path fill="none" stroke="black" d="M658.42,-372.91C666.54,-378.37 675.72,-383.48 685,-386.58 772.2,-415.7 1044.13,-416.52 1162.73,-415.4"/>
<polygon fill="black" stroke="black" points="1162.42,-418.9 1172.38,-415.29 1162.35,-411.9 1162.42,-418.9"/>
<text text-anchor="middle" x="924.5" y="-424.58" font-family="Times New Roman,serif" font-size="30.00"> &#160;&#160;224 &#160;&#160;9% &#160;&#160;2.18e&#45;15 mol/s &#160;&#160;&#160;1.00E+00</text>
</g>
<!-- R212 -->
<g id="node9" class="node">
<title>R212</title>
<g id="a_node9"><a xlink:href="212.svg" xlink:title="R212">
<polygon fill="cornsilk" stroke="none" points="1267,-373.08 1173,-373.08 1173,-326.08 1267,-326.08 1267,-373.08"/>
<text text-anchor="middle" x="1220" y="-341.08" font-family="Times New Roman,serif" font-size="35.00">R212</text>
</a>
</g>
</g>
<!-- R89&#45;&gt;R212 -->
<g id="edge8" class="edge">
<title>R89&#45;&gt;R212</title>
<path fill="none" stroke="black" d="M666.84,-349.58C766.61,-349.58 1042.52,-349.58 1162.29,-349.58"/>
<polygon fill="black" stroke="black" points="1162.04,-353.08 1172.04,-349.58 1162.04,-346.08 1162.04,-353.08"/>
<text text-anchor="middle" x="924.5" y="-358.58" font-family="Times New Roman,serif" font-size="30.00"> &#160;&#160;273 &#160;&#160;9% &#160;&#160;2.18e&#45;15 mol/s &#160;&#160;&#160;1.00E+00</text>
</g>
<!-- R213 -->
<g id="node10" class="node">
<title>R213</title>
<g id="a_node10"><a xlink:href="213.svg" xlink:title="R213">
<polygon fill="cornsilk" stroke="none" points="1267,-308.08 1173,-308.08 1173,-261.08 1267,-261.08 1267,-308.08"/>
<text text-anchor="middle" x="1220" y="-276.08" font-family="Times New Roman,serif" font-size="35.00">R213</text>
</a>
</g>
</g>
<!-- R89&#45;&gt;R213 -->
<g id="edge9" class="edge">
<title>R89&#45;&gt;R213</title>
<path fill="none" stroke="black" d="M658.42,-326.26C666.54,-320.8 675.72,-315.68 685,-312.58 851.35,-257.03 1062.99,-268.22 1162.48,-277.9"/>
<polygon fill="black" stroke="black" points="1161.89,-281.46 1172.19,-278.98 1162.59,-274.49 1161.89,-281.46"/>
<text text-anchor="middle" x="924.5" y="-321.58" font-family="Times New Roman,serif" font-size="30.00"> &#160;&#160;274 &#160;&#160;9% &#160;&#160;2.18e&#45;15 mol/s &#160;&#160;&#160;1.00E+00</text>
</g>
<!-- R214 -->
<g id="node11" class="node">
<title>R214</title>
<g id="a_node11"><a xlink:href="214.svg" xlink:title="R214">
<polygon fill="cornsilk" stroke="none" points="1267,-243.08 1173,-243.08 1173,-196.08 1267,-196.08 1267,-243.08"/>
<text text-anchor="middle" x="1220" y="-211.08" font-family="Times New Roman,serif" font-size="35.00">R214</text>
</a>
</g>
</g>
<!-- R89&#45;&gt;R214 -->
<g id="edge10" class="edge">
<title>R89&#45;&gt;R214</title>
<path fill="none" stroke="black" d="M633.53,-326.39C639.11,-298.71 652.85,-253.55 685,-232.58 762.21,-182.23 1041.52,-202.24 1162.49,-213.7"/>
<polygon fill="black" stroke="black" points="1162.05,-217.27 1172.34,-214.74 1162.73,-210.3 1162.05,-217.27"/>
<text text-anchor="middle" x="924.5" y="-241.58" font-family="Times New Roman,serif" font-size="30.00"> &#160;&#160;275 &#160;&#160;9% &#160;&#160;2.18e&#45;15 mol/s &#160;&#160;&#160;1.00E+00</text>
</g>
<!-- R271 -->
<g id="node12" class="node">
<title>R271</title>
<g id="a_node12"><a xlink:href="271.svg" xlink:title="R271">
<polygon fill="cornsilk" stroke="none" points="1267,-178.08 1173,-178.08 1173,-131.08 1267,-131.08 1267,-178.08"/>
<text text-anchor="middle" x="1220" y="-146.08" font-family="Times New Roman,serif" font-size="35.00">R271</text>
</a>
</g>
</g>
<!-- R89&#45;&gt;R271 -->
<g id="edge11" class="edge">
<title>R89&#45;&gt;R271</title>
<path fill="none" stroke="black" d="M633.43,-326.32C640.63,-280.97 658.86,-183.45 685,-163.58 758.53,-107.68 1041.05,-133.34 1162.73,-147.47"/>
<polygon fill="black" stroke="black" points="1161.95,-151.02 1172.29,-148.71 1162.77,-144.07 1161.95,-151.02"/>
<text text-anchor="middle" x="924.5" y="-172.58" font-family="Times New Roman,serif" font-size="30.00"> &#160;&#160;367 &#160;&#160;9% &#160;&#160;2.18e&#45;15 mol/s &#160;&#160;&#160;1.00E+00</text>
</g>
<!-- R272 -->
<g id="node13" class="node">
<title>R272</title>
<g id="a_node13"><a xlink:href="272.svg" xlink:title="R272">
<polygon fill="cornsilk" stroke="none" points="1267,-113.08 1173,-113.08 1173,-66.08 1267,-66.08 1267,-113.08"/>
<text text-anchor="middle" x="1220" y="-81.08" font-family="Times New Roman,serif" font-size="35.00">R272</text>
</a>
</g>
</g>
<!-- R89&#45;&gt;R272 -->
<g id="edge12" class="edge">
<title>R89&#45;&gt;R272</title>
<path fill="none" stroke="black" d="M631.39,-326.14C635.34,-268.43 648.8,-122.02 685,-92.58 721.3,-63.06 1032.39,-78.23 1162.33,-85.97"/>
<polygon fill="black" stroke="black" points="1162.03,-89.52 1172.22,-86.62 1162.45,-82.53 1162.03,-89.52"/>
<text text-anchor="middle" x="924.5" y="-101.58" font-family="Times New Roman,serif" font-size="30.00"> &#160;&#160;368 &#160;&#160;9% &#160;&#160;2.18e&#45;15 mol/s &#160;&#160;&#160;1.00E+00</text>
</g>
<!-- R273 -->
<g id="node14" class="node">
<title>R273</title>
<g id="a_node14"><a xlink:href="273.svg" xlink:title="R273">
<polygon fill="cornsilk" stroke="none" points="1267,-48.08 1173,-48.08 1173,-1.08 1267,-1.08 1267,-48.08"/>
<text text-anchor="middle" x="1220" y="-16.08" font-family="Times New Roman,serif" font-size="35.00">R273</text>
</a>
</g>
</g>
<!-- R89&#45;&gt;R273 -->
<g id="edge13" class="edge">
<title>R89&#45;&gt;R273</title>
<path fill="none" stroke="black" d="M630.48,-326.24C632.36,-260.48 641.48,-76.06 685,-38.58 755.09,21.78 1040.18,-3.43 1162.65,-17.5"/>
<polygon fill="black" stroke="black" points="1161.95,-21.06 1172.29,-18.74 1162.76,-14.11 1161.95,-21.06"/>
<text text-anchor="middle" x="924.5" y="-47.58" font-family="Times New Roman,serif" font-size="30.00"> &#160;&#160;369 &#160;&#160;9% &#160;&#160;2.18e&#45;15 mol/s &#160;&#160;&#160;1.00E+00</text>
</g>
<!-- R14 -->
<g id="node2" class="node">
<title>R14</title>
<g id="a_node2"><a xlink:href="14.svg" xlink:title="R14">
<polygon fill="cornsilk" stroke="none" points="76,-494.08 0,-494.08 0,-447.08 76,-447.08 76,-494.08"/>
<text text-anchor="middle" x="38" y="-462.08" font-family="Times New Roman,serif" font-size="35.00">R14</text>
</a>
</g>
</g>
<!-- R14&#45;&gt;R89 -->
<g id="edge1" class="edge">
<title>R14&#45;&gt;R89</title>
<path fill="none" stroke="black" stroke-width="5" d="M75.8,-479.92C167.62,-501.02 411.11,-543.24 573,-444.58 592.22,-432.87 605.42,-411.74 614.05,-392.37"/>
<polygon fill="black" stroke="black" stroke-width="5" points="620.51,-399.76 619.58,-377.95 604.2,-393.43 620.51,-399.76"/>
<text text-anchor="middle" x="333.5" y="-515.58" font-family="Times New Roman,serif" font-size="30.00"> &#160;&#160;95 &#160;&#160;99% &#160;&#160;2.18e&#45;15 mol/s &#160;&#160;&#160;1.00E+00</text>
</g>
<!-- R13 -->
<g id="node3" class="node">
<title>R13</title>
<g id="a_node3"><a xlink:href="13.svg" xlink:title="R13">
<polygon fill="cornsilk" stroke="none" points="76,-429.08 0,-429.08 0,-382.08 76,-382.08 76,-429.08"/>
<text text-anchor="middle" x="38" y="-397.08" font-family="Times New Roman,serif" font-size="35.00">R13</text>
</a>
</g>
</g>
<!-- R13&#45;&gt;R89 -->
<g id="edge2" class="edge">
<title>R13&#45;&gt;R89</title>
<path fill="none" stroke="black" stroke-width="5" d="M75.88,-406.48C180.9,-408.66 479.96,-412.1 573,-383.58 574.49,-383.13 575.98,-382.62 577.46,-382.07"/>
<polygon fill="black" stroke="black" stroke-width="5" points="576.98,-391.6 591.17,-375.01 569.36,-375.85 576.98,-391.6"/>
<text text-anchor="middle" x="333.5" y="-416.58" font-family="Times New Roman,serif" font-size="30.00"> &#160;&#160;95 &#160;&#160;99% &#160;&#160;2.18e&#45;15 mol/s &#160;&#160;&#160;1.00E+00</text>
</g>
<!-- R18 -->
<g id="node15" class="node">
<title>R18</title>
<g id="a_node15"><a xlink:href="18.svg" xlink:title="R18">
<polygon fill="cornsilk" stroke="none" points="76,-345.08 0,-345.08 0,-298.08 76,-298.08 76,-345.08"/>
<text text-anchor="middle" x="38" y="-313.08" font-family="Times New Roman,serif" font-size="35.00">R18</text>
</a>
</g>
</g>
<!-- R18&#45;&gt;R89 -->
<g id="edge14" class="edge">
<title>R18&#45;&gt;R89</title>
<path fill="none" stroke="black" d="M75.95,-325.96C81.98,-326.57 88.16,-327.14 94,-327.58 273.16,-341.03 486.79,-346.72 580.26,-348.7"/>
<polygon fill="black" stroke="black" points="579.98,-352.21 590.05,-348.92 580.12,-345.21 579.98,-352.21"/>
<text text-anchor="middle" x="333.5" y="-356.58" font-family="Times New Roman,serif" font-size="30.00"> &#160;&#160;422 &#160;&#160;0% &#160;&#160;2.2e&#45;26 mol/s &#160;&#160;&#160;1.00E+00</text>
</g>
<!-- R18&#45;&gt;R89 -->
<g id="edge15" class="edge">
<title>R18&#45;&gt;R89</title>
<path fill="none" stroke="black" d="M74.56,-298.13C80.81,-295.02 87.43,-292.31 94,-290.58 145.48,-277.07 524.19,-269.36 573,-290.58 586.27,-296.36 597.8,-307.09 606.82,-317.83"/>
<polygon fill="black" stroke="black" points="604.57,-319.64 613.5,-325.35 610.08,-315.32 604.57,-319.64"/>
<text text-anchor="middle" x="333.5" y="-299.58" font-family="Times New Roman,serif" font-size="30.00"> &#160;&#160;476 &#160;&#160;0% &#160;&#160;7.04e&#45;23 mol/s &#160;&#160;&#160;3.13E&#45;04</text>
</g>
<!-- R94 -->
<g id="node16" class="node">
<title>R94</title>
<g id="a_node16"><a xlink:href="94.svg" xlink:title="R94">
<polygon fill="cornsilk" stroke="none" points="76,-261.08 0,-261.08 0,-214.08 76,-214.08 76,-261.08"/>
<text text-anchor="middle" x="38" y="-229.08" font-family="Times New Roman,serif" font-size="35.00">R94</text>
</a>
</g>
</g>
<!-- R94&#45;&gt;R89 -->
<g id="edge16" class="edge">
<title>R94&#45;&gt;R89</title>
<path fill="none" stroke="black" d="M75.92,-225.55C168.03,-197.94 412.11,-139.73 573,-239.58 599.67,-256.13 613.84,-289.95 621.08,-315.74"/>
<polygon fill="black" stroke="black" points="617.9,-316.42 623.78,-325.23 624.68,-314.67 617.9,-316.42"/>
<text text-anchor="middle" x="333.5" y="-248.58" font-family="Times New Roman,serif" font-size="30.00"> &#160;&#160;477 &#160;&#160;0% &#160;&#160;2.43e&#45;22 mol/s &#160;&#160;&#160;9.06E&#45;05</text>
</g>
</g>
</svg>
