<?xml version="1.0" encoding="UTF-8" standalone="no"?>
<!DOCTYPE svg PUBLIC "-//W3C//DTD SVG 1.1//EN"
 "http://www.w3.org/Graphics/SVG/1.1/DTD/svg11.dtd">
<!-- Generated by graphviz version 8.0.3 (20230416.2022)
 -->
<!-- Title: G Pages: 1 -->
<svg width="640pt" height="328pt"
 viewBox="0.00 0.00 720.00 368.82" xmlns="http://www.w3.org/2000/svg" xmlns:xlink="http://www.w3.org/1999/xlink">
<g id="graph0" class="graph" transform="scale(0.503937 0.503937) rotate(0) translate(4 646.55)">
<title>G</title>
<polygon fill="white" stroke="none" points="-4,4 -4,-646.55 1266,-646.55 1266,4 -4,4"/>
<text text-anchor="middle" x="631" y="-609.75" font-family="Arial" font-size="36.00" fill="blue">Reaction Path Analysis</text>
<!-- R89 -->
<g id="node1" class="node">
<title>R89</title>
<g id="a_node1"><a xlink:href="89.svg" xlink:title="R89">
<polygon fill="cornsilk" stroke="none" points="669,-311.05 593,-311.05 593,-264.05 669,-264.05 669,-311.05"/>
<text text-anchor="middle" x="631" y="-279.05" font-family="Times New Roman,serif" font-size="35.00">R89</text>
</a>
</g>
</g>
<!-- R90 -->
<g id="node4" class="node">
<title>R90</title>
<g id="a_node4"><a xlink:href="90.svg" xlink:title="R90">
<polygon fill="cornsilk" stroke="none" points="1253,-539.05 1177,-539.05 1177,-492.05 1253,-492.05 1253,-539.05"/>
<text text-anchor="middle" x="1215" y="-507.05" font-family="Times New Roman,serif" font-size="35.00">R90</text>
</a>
</g>
</g>
<!-- R89&#45;&gt;R90 -->
<g id="edge3" class="edge">
<title>R89&#45;&gt;R90</title>
<path fill="none" stroke="black" d="M634.92,-310.85C641.48,-359.05 659.03,-467.06 687,-489.55 828.21,-603.08 1065.81,-556.7 1166.56,-529.74"/>
<polygon fill="black" stroke="black" points="1167.29,-532.89 1176.01,-526.88 1165.44,-526.14 1167.29,-532.89"/>
<text text-anchor="middle" x="923" y="-570.55" font-family="Times New Roman,serif" font-size="30.00"> &#160;&#160;148 &#160;&#160;12% &#160;&#160;0.0342 mol/s &#160;&#160;&#160;1.00E+00</text>
</g>
<!-- R91 -->
<g id="node5" class="node">
<title>R91</title>
<g id="a_node5"><a xlink:href="91.svg" xlink:title="R91">
<polygon fill="cornsilk" stroke="none" points="1253,-474.05 1177,-474.05 1177,-427.05 1253,-427.05 1253,-474.05"/>
<text text-anchor="middle" x="1215" y="-442.05" font-family="Times New Roman,serif" font-size="35.00">R91</text>
</a>
</g>
</g>
<!-- R89&#45;&gt;R91 -->
<g id="edge4" class="edge">
<title>R89&#45;&gt;R91</title>
<path fill="none" stroke="black" d="M633.58,-311C637.15,-343.49 648.84,-401.29 687,-428.55 725.43,-456.01 1044.19,-453.5 1166.49,-451.49"/>
<polygon fill="black" stroke="black" points="1166.41,-454.97 1176.35,-451.3 1166.29,-447.98 1166.41,-454.97"/>
<text text-anchor="middle" x="923" y="-461.55" font-family="Times New Roman,serif" font-size="30.00"> &#160;&#160;149 &#160;&#160;12% &#160;&#160;0.0342 mol/s &#160;&#160;&#160;1.00E+00</text>
</g>
<!-- R170 -->
<g id="node6" class="node">
<title>R170</title>
<g id="a_node6"><a xlink:href="170.svg" xlink:title="R170">
<polygon fill="cornsilk" stroke="none" points="1262,-409.05 1168,-409.05 1168,-362.05 1262,-362.05 1262,-409.05"/>
<text text-anchor="middle" x="1215" y="-377.05" font-family="Times New Roman,serif" font-size="35.00">R170</text>
</a>
</g>
</g>
<!-- R89&#45;&gt;R170 -->
<g id="edge5" class="edge">
<title>R89&#45;&gt;R170</title>
<path fill="none" stroke="black" d="M643.42,-310.81C652.73,-327.01 667.52,-347.44 687,-357.55 767.53,-399.37 1038.91,-393.24 1157.62,-388.32"/>
<polygon fill="black" stroke="black" points="1157.44,-391.79 1167.28,-387.87 1157.14,-384.8 1157.44,-391.79"/>
<text text-anchor="middle" x="923" y="-400.55" font-family="Times New Roman,serif" font-size="30.00"> &#160;&#160;222 &#160;&#160;12% &#160;&#160;0.0342 mol/s &#160;&#160;&#160;1.00E+00</text>
</g>
<!-- R171 -->
<g id="node7" class="node">
<title>R171</title>
<g id="a_node7"><a xlink:href="171.svg" xlink:title="R171">
<polygon fill="cornsilk" stroke="none" points="1262,-344.05 1168,-344.05 1168,-297.05 1262,-297.05 1262,-344.05"/>
<text text-anchor="middle" x="1215" y="-312.05" font-family="Times New Roman,serif" font-size="35.00">R171</text>
</a>
</g>
</g>
<!-- R89&#45;&gt;R171 -->
<g id="edge6" class="edge">
<title>R89&#45;&gt;R171</title>
<path fill="none" stroke="black" d="M668.85,-295.74C674.89,-296.85 681.1,-297.84 687,-298.55 857.32,-319.01 1060.57,-321.31 1157.35,-321.07"/>
<polygon fill="black" stroke="black" points="1157.35,-324.56 1167.34,-321.03 1157.33,-317.56 1157.35,-324.56"/>
<text text-anchor="middle" x="923" y="-329.55" font-family="Times New Roman,serif" font-size="30.00"> &#160;&#160;223 &#160;&#160;12% &#160;&#160;0.0339 mol/s &#160;&#160;&#160;9.91E&#45;01</text>
</g>
<!-- R172 -->
<g id="node8" class="node">
<title>R172</title>
<g id="a_node8"><a xlink:href="172.svg" xlink:title="R172">
<polygon fill="cornsilk" stroke="none" points="1262,-279.05 1168,-279.05 1168,-232.05 1262,-232.05 1262,-279.05"/>
<text text-anchor="middle" x="1215" y="-247.05" font-family="Times New Roman,serif" font-size="35.00">R172</text>
</a>
</g>
</g>
<!-- R89&#45;&gt;R172 -->
<g id="edge7" class="edge">
<title>R89&#45;&gt;R172</title>
<path fill="none" stroke="black" d="M668.72,-270.76C674.72,-268.63 680.95,-266.78 687,-265.55 855.41,-231.46 1060.28,-242 1157.53,-250.04"/>
<polygon fill="black" stroke="black" points="1157.02,-253.59 1167.28,-250.95 1157.62,-246.62 1157.02,-253.59"/>
<text text-anchor="middle" x="923" y="-274.55" font-family="Times New Roman,serif" font-size="30.00"> &#160;&#160;224 &#160;&#160;12% &#160;&#160;0.0341 mol/s &#160;&#160;&#160;9.96E&#45;01</text>
</g>
<!-- R212 -->
<g id="node9" class="node">
<title>R212</title>
<g id="a_node9"><a xlink:href="212.svg" xlink:title="R212">
<polygon fill="cornsilk" stroke="none" points="1262,-214.05 1168,-214.05 1168,-167.05 1262,-167.05 1262,-214.05"/>
<text text-anchor="middle" x="1215" y="-182.05" font-family="Times New Roman,serif" font-size="35.00">R212</text>
</a>
</g>
</g>
<!-- R89&#45;&gt;R212 -->
<g id="edge8" class="edge">
<title>R89&#45;&gt;R212</title>
<path fill="none" stroke="black" d="M640.31,-264.28C648.74,-244.51 663.87,-217.37 687,-204.55 766.28,-160.61 1038.35,-176.28 1157.43,-185.63"/>
<polygon fill="black" stroke="black" points="1156.88,-189.17 1167.12,-186.48 1157.43,-182.2 1156.88,-189.17"/>
<text text-anchor="middle" x="923" y="-213.55" font-family="Times New Roman,serif" font-size="30.00"> &#160;&#160;273 &#160;&#160;12% &#160;&#160;0.0342 mol/s &#160;&#160;&#160;1.00E+00</text>
</g>
<!-- R213 -->
<g id="node10" class="node">
<title>R213</title>
<g id="a_node10"><a xlink:href="213.svg" xlink:title="R213">
<polygon fill="cornsilk" stroke="none" points="1262,-149.05 1168,-149.05 1168,-102.05 1262,-102.05 1262,-149.05"/>
<text text-anchor="middle" x="1215" y="-117.05" font-family="Times New Roman,serif" font-size="35.00">R213</text>
</a>
</g>
</g>
<!-- R89&#45;&gt;R213 -->
<g id="edge9" class="edge">
<title>R89&#45;&gt;R213</title>
<path fill="none" stroke="black" d="M632.86,-264.28C635.52,-230 646.06,-166.85 687,-137.55 760.89,-84.68 1037.18,-106.6 1157.46,-119.11"/>
<polygon fill="black" stroke="black" points="1156.94,-122.68 1167.25,-120.25 1157.68,-115.72 1156.94,-122.68"/>
<text text-anchor="middle" x="923" y="-146.55" font-family="Times New Roman,serif" font-size="30.00"> &#160;&#160;274 &#160;&#160;12% &#160;&#160;0.0342 mol/s &#160;&#160;&#160;1.00E+00</text>
</g>
<!-- R273 -->
<g id="node14" class="node">
<title>R273</title>
<g id="a_node14"><a xlink:href="273.svg" xlink:title="R273">
<polygon fill="cornsilk" stroke="none" points="1262,-84.05 1168,-84.05 1168,-37.05 1262,-37.05 1262,-84.05"/>
<text text-anchor="middle" x="1215" y="-52.05" font-family="Times New Roman,serif" font-size="35.00">R273</text>
</a>
</g>
</g>
<!-- R89&#45;&gt;R273 -->
<g id="edge13" class="edge">
<title>R89&#45;&gt;R273</title>
<path fill="none" stroke="black" d="M634.25,-264.36C639.78,-212.77 655.91,-91.14 687,-66.55 824.9,42.51 1052.69,-8.77 1157.74,-41.13"/>
<polygon fill="black" stroke="black" points="1156.53,-44.74 1167.12,-44.39 1158.63,-38.06 1156.53,-44.74"/>
<text text-anchor="middle" x="923" y="-75.55" font-family="Times New Roman,serif" font-size="30.00"> &#160;&#160;369 &#160;&#160;12% &#160;&#160;0.0342 mol/s &#160;&#160;&#160;1.00E+00</text>
</g>
<!-- R14 -->
<g id="node2" class="node">
<title>R14</title>
<g id="a_node2"><a xlink:href="14.svg" xlink:title="R14">
<polygon fill="cornsilk" stroke="none" points="85,-534.05 9,-534.05 9,-487.05 85,-487.05 85,-534.05"/>
<text text-anchor="middle" x="47" y="-502.05" font-family="Times New Roman,serif" font-size="35.00">R14</text>
</a>
</g>
</g>
<!-- R14&#45;&gt;R89 -->
<g id="edge1" class="edge">
<title>R14&#45;&gt;R89</title>
<path fill="none" stroke="black" d="M84.94,-521.72C178.6,-547.58 428.28,-600.79 575,-483.55 600.22,-463.4 617.45,-372.2 625.26,-321.61"/>
<polygon fill="black" stroke="black" points="628.84,-322.29 626.86,-311.88 621.92,-321.25 628.84,-322.29"/>
<text text-anchor="middle" x="339" y="-564.55" font-family="Times New Roman,serif" font-size="30.00"> &#160;&#160;95 &#160;&#160;0% &#160;&#160;0.0342 mol/s &#160;&#160;&#160;1.00E+00</text>
</g>
<!-- R13 -->
<g id="node3" class="node">
<title>R13</title>
<g id="a_node3"><a xlink:href="13.svg" xlink:title="R13">
<polygon fill="cornsilk" stroke="none" points="85,-469.05 9,-469.05 9,-422.05 85,-422.05 85,-469.05"/>
<text text-anchor="middle" x="47" y="-437.05" font-family="Times New Roman,serif" font-size="35.00">R13</text>
</a>
</g>
</g>
<!-- R13&#45;&gt;R89 -->
<g id="edge2" class="edge">
<title>R13&#45;&gt;R89</title>
<path fill="none" stroke="black" d="M84.63,-446.13C197.57,-447.6 535.17,-449.59 575,-421.55 607.47,-398.7 620.81,-353.06 626.26,-321.44"/>
<polygon fill="black" stroke="black" points="629.82,-322.32 627.88,-311.9 622.9,-321.25 629.82,-322.32"/>
<text text-anchor="middle" x="339" y="-455.55" font-family="Times New Roman,serif" font-size="30.00"> &#160;&#160;95 &#160;&#160;0% &#160;&#160;0.0342 mol/s &#160;&#160;&#160;1.00E+00</text>
</g>
<!-- R214 -->
<g id="node11" class="node">
<title>R214</title>
<g id="a_node11"><a xlink:href="214.svg" xlink:title="R214">
<polygon fill="cornsilk" stroke="none" points="94,-404.05 0,-404.05 0,-357.05 94,-357.05 94,-404.05"/>
<text text-anchor="middle" x="47" y="-372.05" font-family="Times New Roman,serif" font-size="35.00">R214</text>
</a>
</g>
</g>
<!-- R214&#45;&gt;R89 -->
<g id="edge10" class="edge">
<title>R214&#45;&gt;R89</title>
<path fill="none" stroke="black" d="M93.59,-382.41C205.54,-386.28 490.93,-391.68 575,-350.55 588.93,-343.74 600.8,-331.65 609.92,-319.87"/>
<polygon fill="black" stroke="black" points="613.3,-322.16 616.34,-312.01 607.64,-318.05 613.3,-322.16"/>
<text text-anchor="middle" x="339" y="-393.55" font-family="Times New Roman,serif" font-size="30.00"> &#160;&#160;275 &#160;&#160;0% &#160;&#160;65.2 mol/s &#160;&#160;&#160;5.24E&#45;04</text>
</g>
<!-- R271 -->
<g id="node12" class="node">
<title>R271</title>
<g id="a_node12"><a xlink:href="271.svg" xlink:title="R271">
<polygon fill="cornsilk" stroke="none" points="94,-339.05 0,-339.05 0,-292.05 94,-292.05 94,-339.05"/>
<text text-anchor="middle" x="47" y="-307.05" font-family="Times New Roman,serif" font-size="35.00">R271</text>
</a>
</g>
</g>
<!-- R271&#45;&gt;R89 -->
<g id="edge11" class="edge">
<title>R271&#45;&gt;R89</title>
<path fill="none" stroke="black" d="M93.88,-314.67C185.46,-312.68 397.39,-306.93 575,-293.55 577.37,-293.37 579.8,-293.17 582.26,-292.96"/>
<polygon fill="black" stroke="black" points="582.43,-296.36 592.05,-291.93 581.76,-289.39 582.43,-296.36"/>
<text text-anchor="middle" x="339" y="-322.55" font-family="Times New Roman,serif" font-size="30.00"> &#160;&#160;367 &#160;&#160;0% &#160;&#160;4.21 mol/s &#160;&#160;&#160;7.99E&#45;03</text>
</g>
<!-- R272 -->
<g id="node13" class="node">
<title>R272</title>
<g id="a_node13"><a xlink:href="272.svg" xlink:title="R272">
<polygon fill="cornsilk" stroke="none" points="94,-274.05 0,-274.05 0,-227.05 94,-227.05 94,-274.05"/>
<text text-anchor="middle" x="47" y="-242.05" font-family="Times New Roman,serif" font-size="35.00">R272</text>
</a>
</g>
</g>
<!-- R272&#45;&gt;R89 -->
<g id="edge12" class="edge">
<title>R272&#45;&gt;R89</title>
<path fill="none" stroke="black" stroke-width="5" d="M93.65,-248.18C198.15,-243.18 453.74,-233.55 574.24,-259.16"/>
<polygon fill="black" stroke="black" stroke-width="5" points="566.91,-266.84 588.42,-263.16 571.12,-249.86 566.91,-266.84"/>
<text text-anchor="middle" x="339" y="-265.55" font-family="Times New Roman,serif" font-size="30.00"> &#160;&#160;368 &#160;&#160;98% &#160;&#160;6890.0 mol/s &#160;&#160;&#160;4.96E&#45;06</text>
</g>
<!-- R18 -->
<g id="node15" class="node">
<title>R18</title>
<g id="a_node15"><a xlink:href="18.svg" xlink:title="R18">
<polygon fill="cornsilk" stroke="none" points="85,-195.05 9,-195.05 9,-148.05 85,-148.05 85,-195.05"/>
<text text-anchor="middle" x="47" y="-163.05" font-family="Times New Roman,serif" font-size="35.00">R18</text>
</a>
</g>
</g>
<!-- R18&#45;&gt;R89 -->
<g id="edge14" class="edge">
<title>R18&#45;&gt;R89</title>
<path fill="none" stroke="black" d="M84.88,-178.95C90.92,-179.96 97.12,-180.88 103,-181.55 155.17,-187.48 529.41,-177.52 575,-203.55 594.54,-214.71 608.36,-235.97 617.26,-254.32"/>
<polygon fill="black" stroke="black" points="614.39,-255.46 621.7,-263.12 620.76,-252.57 614.39,-255.46"/>
<text text-anchor="middle" x="339" y="-212.55" font-family="Times New Roman,serif" font-size="30.00"> &#160;&#160;422 &#160;&#160;0% &#160;&#160;0.00272 mol/s &#160;&#160;&#160;1.00E+00</text>
</g>
<!-- R18&#45;&gt;R89 -->
<g id="edge15" class="edge">
<title>R18&#45;&gt;R89</title>
<path fill="none" stroke="black" d="M84.72,-150.71C90.67,-148.17 96.89,-145.97 103,-144.55 154.09,-132.69 531.77,-114.86 575,-144.55 610.36,-168.84 623,-219.27 627.51,-253.28"/>
<polygon fill="black" stroke="black" points="624.13,-253.58 628.74,-263.12 631.09,-252.78 624.13,-253.58"/>
<text text-anchor="middle" x="339" y="-153.55" font-family="Times New Roman,serif" font-size="30.00"> &#160;&#160;476 &#160;&#160;0% &#160;&#160;6.54 mol/s &#160;&#160;&#160;4.15E&#45;04</text>
</g>
<!-- R94 -->
<g id="node16" class="node">
<title>R94</title>
<g id="a_node16"><a xlink:href="94.svg" xlink:title="R94">
<polygon fill="cornsilk" stroke="none" points="85,-115.05 9,-115.05 9,-68.05 85,-68.05 85,-115.05"/>
<text text-anchor="middle" x="47" y="-83.05" font-family="Times New Roman,serif" font-size="35.00">R94</text>
</a>
</g>
</g>
<!-- R94&#45;&gt;R89 -->
<g id="edge16" class="edge">
<title>R94&#45;&gt;R89</title>
<path fill="none" stroke="black" d="M84.97,-77.83C178.14,-45.84 425.79,22.71 575,-90.55 600.9,-110.21 617.89,-202.57 625.47,-253.55"/>
<polygon fill="black" stroke="black" points="622.13,-253.95 627.02,-263.35 629.06,-252.96 622.13,-253.95"/>
<text text-anchor="middle" x="339" y="-99.55" font-family="Times New Roman,serif" font-size="30.00"> &#160;&#160;477 &#160;&#160;0% &#160;&#160;5.65 mol/s &#160;&#160;&#160;4.81E&#45;04</text>
</g>
</g>
</svg>
