<?xml version="1.0" encoding="UTF-8" standalone="no"?>
<!DOCTYPE svg PUBLIC "-//W3C//DTD SVG 1.1//EN"
 "http://www.w3.org/Graphics/SVG/1.1/DTD/svg11.dtd">
<!-- Generated by graphviz version 8.0.3 (20230416.2022)
 -->
<!-- Title: G Pages: 1 -->
<svg width="640pt" height="255pt"
 viewBox="0.00 0.00 720.00 287.23" xmlns="http://www.w3.org/2000/svg" xmlns:xlink="http://www.w3.org/1999/xlink">
<g id="graph0" class="graph" transform="scale(0.524161 0.524161) rotate(0) translate(4 483.09)">
<title>G</title>
<polygon fill="white" stroke="none" points="-4,4 -4,-483.09 1217,-483.09 1217,4 -4,4"/>
<text text-anchor="middle" x="606.5" y="-446.29" font-family="Arial" font-size="36.00" fill="blue">Reaction Path Analysis</text>
<!-- R9 -->
<g id="node1" class="node">
<title>R9</title>
<g id="a_node1"><a xlink:href="9.svg" xlink:title="R9">
<polygon fill="cornsilk" stroke="none" points="631,-242.59 573,-242.59 573,-195.59 631,-195.59 631,-242.59"/>
<text text-anchor="middle" x="602" y="-210.59" font-family="Times New Roman,serif" font-size="35.00">R9</text>
</a>
</g>
</g>
<!-- R22 -->
<g id="node5" class="node">
<title>R22</title>
<g id="a_node5"><a xlink:href="22.svg" xlink:title="R22">
<polygon fill="cornsilk" stroke="none" points="1213,-405.59 1137,-405.59 1137,-358.59 1213,-358.59 1213,-405.59"/>
<text text-anchor="middle" x="1175" y="-373.59" font-family="Times New Roman,serif" font-size="35.00">R22</text>
</a>
</g>
</g>
<!-- R9&#45;&gt;R22 -->
<g id="edge6" class="edge">
<title>R9&#45;&gt;R22</title>
<path fill="none" stroke="black" d="M603.02,-242.4C604.46,-274.73 612.37,-332.32 649,-360.09 722.96,-416.16 1011.01,-397 1126.11,-386.77"/>
<polygon fill="black" stroke="black" points="1126.37,-390.17 1136.01,-385.79 1125.74,-383.2 1126.37,-390.17"/>
<text text-anchor="middle" x="888.5" y="-407.09" font-family="Times New Roman,serif" font-size="30.00"> &#160;&#160;27 &#160;&#160;16% &#160;&#160;4.67e&#45;08 mol/s &#160;&#160;&#160;1.00E+00</text>
</g>
<!-- R38 -->
<g id="node6" class="node">
<title>R38</title>
<g id="a_node6"><a xlink:href="38.svg" xlink:title="R38">
<polygon fill="cornsilk" stroke="none" points="1213,-340.59 1137,-340.59 1137,-293.59 1213,-293.59 1213,-340.59"/>
<text text-anchor="middle" x="1175" y="-308.59" font-family="Times New Roman,serif" font-size="35.00">R38</text>
</a>
</g>
</g>
<!-- R9&#45;&gt;R38 -->
<g id="edge7" class="edge">
<title>R9&#45;&gt;R38</title>
<path fill="none" stroke="black" d="M611.5,-242.59C618.76,-258.96 630.94,-279.66 649,-290.09 729.31,-336.47 1012.99,-326.23 1126.52,-320.03"/>
<polygon fill="black" stroke="black" points="1126.49,-323.48 1136.28,-319.43 1126.1,-316.5 1126.49,-323.48"/>
<text text-anchor="middle" x="888.5" y="-334.09" font-family="Times New Roman,serif" font-size="30.00"> &#160;&#160;43 &#160;&#160;16% &#160;&#160;4.67e&#45;08 mol/s &#160;&#160;&#160;1.00E+00</text>
</g>
<!-- R52 -->
<g id="node7" class="node">
<title>R52</title>
<g id="a_node7"><a xlink:href="52.svg" xlink:title="R52">
<polygon fill="cornsilk" stroke="none" points="1213,-275.59 1137,-275.59 1137,-228.59 1213,-228.59 1213,-275.59"/>
<text text-anchor="middle" x="1175" y="-243.59" font-family="Times New Roman,serif" font-size="35.00">R52</text>
</a>
</g>
</g>
<!-- R9&#45;&gt;R52 -->
<g id="edge8" class="edge">
<title>R9&#45;&gt;R52</title>
<path fill="none" stroke="black" d="M630.57,-226.6C636.6,-227.98 642.98,-229.25 649,-230.09 823.56,-254.39 1033.64,-254.54 1126.22,-253.16"/>
<polygon fill="black" stroke="black" points="1126.24,-256.64 1136.18,-252.98 1126.13,-249.64 1126.24,-256.64"/>
<text text-anchor="middle" x="888.5" y="-262.09" font-family="Times New Roman,serif" font-size="30.00"> &#160;&#160;58 &#160;&#160;16% &#160;&#160;4.67e&#45;08 mol/s &#160;&#160;&#160;1.00E+00</text>
</g>
<!-- R81 -->
<g id="node8" class="node">
<title>R81</title>
<g id="a_node8"><a xlink:href="81.svg" xlink:title="R81">
<polygon fill="cornsilk" stroke="none" points="1213,-210.59 1137,-210.59 1137,-163.59 1213,-163.59 1213,-210.59"/>
<text text-anchor="middle" x="1175" y="-178.59" font-family="Times New Roman,serif" font-size="35.00">R81</text>
</a>
</g>
</g>
<!-- R9&#45;&gt;R81 -->
<g id="edge9" class="edge">
<title>R9&#45;&gt;R81</title>
<path fill="none" stroke="black" d="M630.52,-203.61C636.45,-200.94 642.8,-198.56 649,-197.09 820.76,-156.41 1033.04,-171.55 1126.28,-181.34"/>
<polygon fill="black" stroke="black" points="1125.73,-184.91 1136.05,-182.5 1126.49,-177.95 1125.73,-184.91"/>
<text text-anchor="middle" x="888.5" y="-206.09" font-family="Times New Roman,serif" font-size="30.00"> &#160;&#160;87 &#160;&#160;16% &#160;&#160;4.67e&#45;08 mol/s &#160;&#160;&#160;1.00E+00</text>
</g>
<!-- R82 -->
<g id="node9" class="node">
<title>R82</title>
<g id="a_node9"><a xlink:href="82.svg" xlink:title="R82">
<polygon fill="cornsilk" stroke="none" points="1213,-145.59 1137,-145.59 1137,-98.59 1213,-98.59 1213,-145.59"/>
<text text-anchor="middle" x="1175" y="-113.59" font-family="Times New Roman,serif" font-size="35.00">R82</text>
</a>
</g>
</g>
<!-- R9&#45;&gt;R82 -->
<g id="edge10" class="edge">
<title>R9&#45;&gt;R82</title>
<path fill="none" stroke="black" d="M608.38,-195.9C614.49,-175.45 626.63,-146.82 649,-133.09 727.96,-84.65 1012.43,-106.19 1126.34,-117.13"/>
<polygon fill="black" stroke="black" points="1125.85,-120.69 1136.14,-118.18 1126.53,-113.73 1125.85,-120.69"/>
<text text-anchor="middle" x="888.5" y="-142.09" font-family="Times New Roman,serif" font-size="30.00"> &#160;&#160;88 &#160;&#160;16% &#160;&#160;4.67e&#45;08 mol/s &#160;&#160;&#160;1.00E+00</text>
</g>
<!-- R83 -->
<g id="node10" class="node">
<title>R83</title>
<g id="a_node10"><a xlink:href="83.svg" xlink:title="R83">
<polygon fill="cornsilk" stroke="none" points="1213,-80.59 1137,-80.59 1137,-33.59 1213,-33.59 1213,-80.59"/>
<text text-anchor="middle" x="1175" y="-48.59" font-family="Times New Roman,serif" font-size="35.00">R83</text>
</a>
</g>
</g>
<!-- R9&#45;&gt;R83 -->
<g id="edge11" class="edge">
<title>R9&#45;&gt;R83</title>
<path fill="none" stroke="black" d="M602.16,-195.61C602.34,-160.65 608.51,-95.74 649,-65.09 792.59,43.59 1027.2,-10.7 1126.85,-41.16"/>
<polygon fill="black" stroke="black" points="1125.61,-44.75 1136.2,-44.38 1127.69,-38.06 1125.61,-44.75"/>
<text text-anchor="middle" x="888.5" y="-74.09" font-family="Times New Roman,serif" font-size="30.00"> &#160;&#160;89 &#160;&#160;16% &#160;&#160;4.67e&#45;08 mol/s &#160;&#160;&#160;1.00E+00</text>
</g>
<!-- R2 -->
<g id="node2" class="node">
<title>R2</title>
<g id="a_node2"><a xlink:href="2.svg" xlink:title="R2">
<polygon fill="cornsilk" stroke="none" points="58,-298.59 0,-298.59 0,-251.59 58,-251.59 58,-298.59"/>
<text text-anchor="middle" x="29" y="-266.59" font-family="Times New Roman,serif" font-size="35.00">R2</text>
</a>
</g>
</g>
<!-- R2&#45;&gt;R9 -->
<g id="edge1" class="edge">
<title>R2&#45;&gt;R9</title>
<path fill="none" stroke="black" stroke-width="3" d="M55.61,-298.38C61.87,-302.77 68.83,-306.73 76,-309.09 278.2,-375.71 373.41,-420.21 555,-309.09 575.05,-296.82 586.71,-272.76 593.27,-252.6"/>
<polygon fill="black" stroke="black" stroke-width="3" points="595.87,-256.78 595.33,-246.2 589.15,-254.8 595.87,-256.78"/>
<text text-anchor="middle" x="315.5" y="-385.09" font-family="Times New Roman,serif" font-size="30.00"> &#160;&#160;9 &#160;&#160;50% &#160;&#160;4.67e&#45;08 mol/s &#160;&#160;&#160;1.00E+00</text>
</g>
<!-- R2&#45;&gt;R9 -->
<g id="edge2" class="edge">
<title>R2&#45;&gt;R9</title>
<path fill="none" stroke="black" stroke-width="3" d="M57.72,-273.17C63.75,-272.78 70.09,-272.4 76,-272.09 129.19,-269.3 504.75,-270.76 555,-253.09 558.57,-251.83 562.11,-250.2 565.53,-248.32"/>
<polygon fill="black" stroke="black" stroke-width="3" points="565.19,-252.78 571.82,-244.52 561.49,-246.84 565.19,-252.78"/>
<text text-anchor="middle" x="315.5" y="-281.09" font-family="Times New Roman,serif" font-size="30.00"> &#160;&#160;9 &#160;&#160;50% &#160;&#160;4.67e&#45;08 mol/s &#160;&#160;&#160;1.00E+00</text>
</g>
<!-- R2&#45;&gt;R9 -->
<g id="edge3" class="edge">
<title>R2&#45;&gt;R9</title>
<path fill="none" stroke="black" stroke-width="3" d="M41.43,-251.67C49.2,-238.6 60.83,-223.5 76,-216.09 123.82,-192.74 501.81,-214.36 555,-216.09 557.4,-216.17 559.88,-216.27 562.37,-216.39"/>
<polygon fill="black" stroke="black" stroke-width="3" points="559.11,-219.93 569.28,-216.99 559.49,-212.94 559.11,-219.93"/>
<text text-anchor="middle" x="315.5" y="-225.09" font-family="Times New Roman,serif" font-size="30.00"> &#160;&#160;9 &#160;&#160;50% &#160;&#160;4.67e&#45;08 mol/s &#160;&#160;&#160;1.00E+00</text>
</g>
<!-- R0 -->
<g id="node3" class="node">
<title>R0</title>
<g id="a_node3"><a xlink:href="0.svg" xlink:title="R0">
<polygon fill="cornsilk" stroke="none" points="58,-186.59 0,-186.59 0,-139.59 58,-139.59 58,-186.59"/>
<text text-anchor="middle" x="29" y="-154.59" font-family="Times New Roman,serif" font-size="35.00">R0</text>
</a>
</g>
</g>
<!-- R0&#45;&gt;R9 -->
<g id="edge4" class="edge">
<title>R0&#45;&gt;R9</title>
<path fill="none" stroke="black" stroke-width="3" d="M57.87,-160.46C153.2,-151.9 465.24,-127.66 555,-168.09 564.42,-172.33 572.73,-179.55 579.61,-187.24"/>
<polygon fill="black" stroke="black" stroke-width="3" points="575.45,-187.12 584.49,-192.65 580.87,-182.69 575.45,-187.12"/>
<text text-anchor="middle" x="315.5" y="-177.09" font-family="Times New Roman,serif" font-size="30.00"> &#160;&#160;15 &#160;&#160;50% &#160;&#160;4.67e&#45;08 mol/s &#160;&#160;&#160;1.00E+00</text>
</g>
<!-- R6 -->
<g id="node4" class="node">
<title>R6</title>
<g id="a_node4"><a xlink:href="6.svg" xlink:title="R6">
<polygon fill="cornsilk" stroke="none" points="58,-121.59 0,-121.59 0,-74.59 58,-74.59 58,-121.59"/>
<text text-anchor="middle" x="29" y="-89.59" font-family="Times New Roman,serif" font-size="35.00">R6</text>
</a>
</g>
</g>
<!-- R6&#45;&gt;R9 -->
<g id="edge5" class="edge">
<title>R6&#45;&gt;R9</title>
<path fill="none" stroke="black" stroke-width="3" d="M57.93,-88.96C141.88,-63.35 395.89,0.41 555,-108.09 580.33,-125.37 591.74,-159.4 596.86,-185.25"/>
<polygon fill="black" stroke="black" stroke-width="3" points="593.53,-182.51 598.69,-191.76 600.42,-181.31 593.53,-182.51"/>
<text text-anchor="middle" x="315.5" y="-117.09" font-family="Times New Roman,serif" font-size="30.00"> &#160;&#160;15 &#160;&#160;50% &#160;&#160;4.67e&#45;08 mol/s &#160;&#160;&#160;1.00E+00</text>
</g>
</g>
</svg>
