<?xml version="1.0" encoding="UTF-8" standalone="no"?>
<!DOCTYPE svg PUBLIC "-//W3C//DTD SVG 1.1//EN"
 "http://www.w3.org/Graphics/SVG/1.1/DTD/svg11.dtd">
<!-- Generated by graphviz version 8.0.3 (20230416.2022)
 -->
<!-- Title: G Pages: 1 -->
<svg width="640pt" height="203pt"
 viewBox="0.00 0.00 720.00 228.00" xmlns="http://www.w3.org/2000/svg" xmlns:xlink="http://www.w3.org/1999/xlink">
<g id="graph0" class="graph" transform="scale(0.490421 0.490421) rotate(0) translate(4 409.26)">
<title>G</title>
<polygon fill="white" stroke="none" points="-4,4 -4,-409.26 1301,-409.26 1301,4 -4,4"/>
<text text-anchor="middle" x="648.5" y="-372.46" font-family="Arial" font-size="36.00" fill="blue">Reaction Path Analysis</text>
<!-- R91 -->
<g id="node1" class="node">
<title>R91</title>
<g id="a_node1"><a xlink:href="91.svg" xlink:title="R91">
<polygon fill="cornsilk" stroke="none" points="682,-194.76 606,-194.76 606,-147.76 682,-147.76 682,-194.76"/>
<text text-anchor="middle" x="644" y="-162.76" font-family="Times New Roman,serif" font-size="35.00">R91</text>
</a>
</g>
</g>
<!-- R176 -->
<g id="node5" class="node">
<title>R176</title>
<g id="a_node5"><a xlink:href="176.svg" xlink:title="R176">
<polygon fill="cornsilk" stroke="none" points="1297,-227.76 1203,-227.76 1203,-180.76 1297,-180.76 1297,-227.76"/>
<text text-anchor="middle" x="1250" y="-195.76" font-family="Times New Roman,serif" font-size="35.00">R176</text>
</a>
</g>
</g>
<!-- R91&#45;&gt;R176 -->
<g id="edge6" class="edge">
<title>R91&#45;&gt;R176</title>
<path fill="none" stroke="black" stroke-width="5" d="M681.85,-179.46C687.89,-180.56 694.1,-181.56 700,-182.26 873.14,-202.91 1078.93,-205.29 1182.47,-204.96"/>
<polygon fill="black" stroke="black" stroke-width="5" points="1177.3,-213.7 1197.26,-204.85 1177.21,-196.2 1177.3,-213.7"/>
<text text-anchor="middle" x="947" y="-213.26" font-family="Times New Roman,serif" font-size="30.00"> &#160;&#160;228 &#160;&#160;99% &#160;&#160;4.67e&#45;08 mol/s &#160;&#160;&#160;1.00E+00</text>
</g>
<!-- R124 -->
<g id="node6" class="node">
<title>R124</title>
<g id="a_node6"><a xlink:href="124.svg" xlink:title="R124">
<polygon fill="cornsilk" stroke="none" points="1297,-162.76 1203,-162.76 1203,-115.76 1297,-115.76 1297,-162.76"/>
<text text-anchor="middle" x="1250" y="-130.76" font-family="Times New Roman,serif" font-size="35.00">R124</text>
</a>
</g>
</g>
<!-- R91&#45;&gt;R124 -->
<g id="edge7" class="edge">
<title>R91&#45;&gt;R124</title>
<path fill="none" stroke="black" d="M681.72,-154.47C687.72,-152.34 693.95,-150.48 700,-149.26 876.75,-113.55 1092.04,-125.15 1192.41,-133.64"/>
<polygon fill="black" stroke="black" points="1191.94,-137.2 1202.21,-134.58 1192.55,-130.23 1191.94,-137.2"/>
<text text-anchor="middle" x="947" y="-158.26" font-family="Times New Roman,serif" font-size="30.00"> &#160;&#160;652 &#160;&#160;0% &#160;&#160;5.69e&#45;11 mol/s &#160;&#160;&#160;1.31E&#45;01</text>
</g>
<!-- R14 -->
<g id="node2" class="node">
<title>R14</title>
<g id="a_node2"><a xlink:href="14.svg" xlink:title="R14">
<polygon fill="cornsilk" stroke="none" points="76,-250.76 0,-250.76 0,-203.76 76,-203.76 76,-250.76"/>
<text text-anchor="middle" x="38" y="-218.76" font-family="Times New Roman,serif" font-size="35.00">R14</text>
</a>
</g>
</g>
<!-- R14&#45;&gt;R91 -->
<g id="edge1" class="edge">
<title>R14&#45;&gt;R91</title>
<path fill="none" stroke="black" stroke-width="3" d="M70.16,-250.59C77.61,-254.98 85.79,-258.93 94,-261.26 305.2,-321.27 396.5,-368.66 588,-261.26 609.49,-249.21 623.58,-224.96 632.12,-204.67"/>
<polygon fill="black" stroke="black" stroke-width="3" points="634.71,-209.09 635.09,-198.51 628.19,-206.55 634.71,-209.09"/>
<text text-anchor="middle" x="341" y="-333.26" font-family="Times New Roman,serif" font-size="30.00"> &#160;&#160;97 &#160;&#160;50% &#160;&#160;4.67e&#45;08 mol/s &#160;&#160;&#160;1.00E+00</text>
</g>
<!-- R14&#45;&gt;R91 -->
<g id="edge2" class="edge">
<title>R14&#45;&gt;R91</title>
<path fill="none" stroke="black" stroke-width="3" d="M75.98,-225.16C82,-224.84 88.17,-224.53 94,-224.26 148.87,-221.71 535.46,-221.28 588,-205.26 592.59,-203.86 597.19,-201.98 601.65,-199.81"/>
<polygon fill="black" stroke="black" stroke-width="3" points="600.02,-204.51 607.18,-196.7 596.71,-198.35 600.02,-204.51"/>
<text text-anchor="middle" x="341" y="-233.26" font-family="Times New Roman,serif" font-size="30.00"> &#160;&#160;97 &#160;&#160;50% &#160;&#160;4.67e&#45;08 mol/s &#160;&#160;&#160;1.00E+00</text>
</g>
<!-- R14&#45;&gt;R91 -->
<g id="edge3" class="edge">
<title>R14&#45;&gt;R91</title>
<path fill="none" stroke="black" stroke-width="3" d="M53.5,-204.03C63.17,-190.85 77.18,-175.57 94,-168.26 144.33,-146.37 533.13,-166.76 588,-168.26 590.37,-168.32 592.79,-168.4 595.24,-168.5"/>
<polygon fill="black" stroke="black" stroke-width="3" points="591.89,-172.03 602.03,-168.97 592.19,-165.03 591.89,-172.03"/>
<text text-anchor="middle" x="341" y="-177.26" font-family="Times New Roman,serif" font-size="30.00"> &#160;&#160;97 &#160;&#160;50% &#160;&#160;4.67e&#45;08 mol/s &#160;&#160;&#160;1.00E+00</text>
</g>
<!-- R0 -->
<g id="node3" class="node">
<title>R0</title>
<g id="a_node3"><a xlink:href="0.svg" xlink:title="R0">
<polygon fill="cornsilk" stroke="none" points="67,-138.76 9,-138.76 9,-91.76 67,-91.76 67,-138.76"/>
<text text-anchor="middle" x="38" y="-106.76" font-family="Times New Roman,serif" font-size="35.00">R0</text>
</a>
</g>
</g>
<!-- R0&#45;&gt;R91 -->
<g id="edge4" class="edge">
<title>R0&#45;&gt;R91</title>
<path fill="none" stroke="black" stroke-width="3" d="M66.99,-112.88C165.01,-104.97 492.01,-82.1 588,-120.26 598.91,-124.6 608.96,-132.21 617.4,-140.25"/>
<polygon fill="black" stroke="black" stroke-width="3" points="612.48,-140.29 621.98,-144.99 617.49,-135.4 612.48,-140.29"/>
<text text-anchor="middle" x="341" y="-129.26" font-family="Times New Roman,serif" font-size="30.00"> &#160;&#160;149 &#160;&#160;50% &#160;&#160;4.67e&#45;08 mol/s &#160;&#160;&#160;1.00E+00</text>
</g>
<!-- R89 -->
<g id="node4" class="node">
<title>R89</title>
<g id="a_node4"><a xlink:href="89.svg" xlink:title="R89">
<polygon fill="cornsilk" stroke="none" points="76,-73.76 0,-73.76 0,-26.76 76,-26.76 76,-73.76"/>
<text text-anchor="middle" x="38" y="-41.76" font-family="Times New Roman,serif" font-size="35.00">R89</text>
</a>
</g>
</g>
<!-- R89&#45;&gt;R91 -->
<g id="edge5" class="edge">
<title>R89&#45;&gt;R91</title>
<path fill="none" stroke="black" stroke-width="3" d="M75.67,-39.06C169.51,-12.74 422.59,43.27 588,-61.26 614.53,-78.03 628.73,-111.81 636.01,-137.53"/>
<polygon fill="black" stroke="black" stroke-width="3" points="631.82,-135.19 637.72,-143.99 638.6,-133.44 631.82,-135.19"/>
<text text-anchor="middle" x="341" y="-70.26" font-family="Times New Roman,serif" font-size="30.00"> &#160;&#160;149 &#160;&#160;50% &#160;&#160;4.67e&#45;08 mol/s &#160;&#160;&#160;1.00E+00</text>
</g>
</g>
</svg>
