<?xml version="1.0" encoding="UTF-8" standalone="no"?>
<!DOCTYPE svg PUBLIC "-//W3C//DTD SVG 1.1//EN"
 "http://www.w3.org/Graphics/SVG/1.1/DTD/svg11.dtd">
<!-- Generated by graphviz version 8.0.3 (20230416.2022)
 -->
<!-- Title: G Pages: 1 -->
<svg width="640pt" height="180pt"
 viewBox="0.00 0.00 720.00 202.23" xmlns="http://www.w3.org/2000/svg" xmlns:xlink="http://www.w3.org/1999/xlink">
<g id="graph0" class="graph" transform="scale(0.50996 0.50996) rotate(0) translate(4 348.5)">
<title>G</title>
<polygon fill="white" stroke="none" points="-4,4 -4,-348.5 1251,-348.5 1251,4 -4,4"/>
<text text-anchor="middle" x="623.5" y="-311.7" font-family="Arial" font-size="36.00" fill="blue">Reaction Path Analysis</text>
<!-- R91 -->
<g id="node1" class="node">
<title>R91</title>
<g id="a_node1"><a xlink:href="91.svg" xlink:title="R91">
<polygon fill="cornsilk" stroke="none" points="657,-168 581,-168 581,-121 657,-121 657,-168"/>
<text text-anchor="middle" x="619" y="-136" font-family="Times New Roman,serif" font-size="35.00">R91</text>
</a>
</g>
</g>
<!-- R14 -->
<g id="node2" class="node">
<title>R14</title>
<g id="a_node2"><a xlink:href="14.svg" xlink:title="R14">
<polygon fill="cornsilk" stroke="none" points="1238,-224 1162,-224 1162,-177 1238,-177 1238,-224"/>
<text text-anchor="middle" x="1200" y="-192" font-family="Times New Roman,serif" font-size="35.00">R14</text>
</a>
</g>
</g>
<!-- R91&#45;&gt;R14 -->
<g id="edge1" class="edge">
<title>R91&#45;&gt;R14</title>
<path fill="none" stroke="black" stroke-width="5" d="M627.53,-167.78C635.93,-189.44 651.81,-220.43 677.5,-234.5 767.93,-284.04 1042.04,-261.7 1141.5,-234.5 1143.49,-233.95 1145.49,-233.32 1147.47,-232.61"/>
<polygon fill="black" stroke="black" stroke-width="5" points="1146.87,-242.22 1161.3,-225.84 1139.48,-226.35 1146.87,-242.22"/>
<text text-anchor="middle" x="909.5" y="-272.5" font-family="Times New Roman,serif" font-size="30.00"> &#160;&#160;97 &#160;&#160;99% &#160;&#160;96.1 mol/s &#160;&#160;&#160;3.56E&#45;04</text>
</g>
<!-- R91&#45;&gt;R14 -->
<g id="edge2" class="edge">
<title>R91&#45;&gt;R14</title>
<path fill="none" stroke="black" stroke-width="5" d="M653.39,-167.93C660.99,-172.2 669.27,-176.07 677.5,-178.5 771.24,-206.22 1011.24,-194.17 1141.5,-197.76"/>
<polygon fill="black" stroke="black" stroke-width="5" points="1135.89,-206.53 1156.19,-198.52 1136.53,-189.04 1135.89,-206.53"/>
<text text-anchor="middle" x="909.5" y="-206.5" font-family="Times New Roman,serif" font-size="30.00"> &#160;&#160;97 &#160;&#160;99% &#160;&#160;96.1 mol/s &#160;&#160;&#160;3.56E&#45;04</text>
</g>
<!-- R91&#45;&gt;R14 -->
<g id="edge3" class="edge">
<title>R91&#45;&gt;R14</title>
<path fill="none" stroke="black" stroke-width="5" d="M656.8,-142.29C663.68,-141.96 670.8,-141.67 677.5,-141.5 780.58,-138.81 1046.49,-101.43 1141.5,-141.5 1152.16,-145.99 1161.82,-153.53 1170.05,-161.75"/>
<polygon fill="black" stroke="black" stroke-width="5" points="1159.85,-163.96 1179.61,-173.25 1173.02,-152.43 1159.85,-163.96"/>
<text text-anchor="middle" x="909.5" y="-150.5" font-family="Times New Roman,serif" font-size="30.00"> &#160;&#160;97 &#160;&#160;99% &#160;&#160;96.1 mol/s &#160;&#160;&#160;3.56E&#45;04</text>
</g>
<!-- R176 -->
<g id="node5" class="node">
<title>R176</title>
<g id="a_node5"><a xlink:href="176.svg" xlink:title="R176">
<polygon fill="cornsilk" stroke="none" points="1247,-112 1153,-112 1153,-65 1247,-65 1247,-112"/>
<text text-anchor="middle" x="1200" y="-80" font-family="Times New Roman,serif" font-size="35.00">R176</text>
</a>
</g>
</g>
<!-- R91&#45;&gt;R176 -->
<g id="edge6" class="edge">
<title>R91&#45;&gt;R176</title>
<path fill="none" stroke="black" d="M635.39,-121.25C645.58,-108.06 660.24,-92.78 677.5,-85.5 759.83,-50.77 1025.23,-71.38 1142.45,-82.64"/>
<polygon fill="black" stroke="black" points="1142.02,-86.21 1152.32,-83.7 1142.7,-79.24 1142.02,-86.21"/>
<text text-anchor="middle" x="909.5" y="-94.5" font-family="Times New Roman,serif" font-size="30.00"> &#160;&#160;228 &#160;&#160;0% &#160;&#160;0.0327 mol/s &#160;&#160;&#160;9.57E&#45;01</text>
</g>
<!-- R124 -->
<g id="node6" class="node">
<title>R124</title>
<g id="a_node6"><a xlink:href="124.svg" xlink:title="R124">
<polygon fill="cornsilk" stroke="none" points="1247,-47 1153,-47 1153,0 1247,0 1247,-47"/>
<text text-anchor="middle" x="1200" y="-15" font-family="Times New Roman,serif" font-size="35.00">R124</text>
</a>
</g>
</g>
<!-- R91&#45;&gt;R124 -->
<g id="edge7" class="edge">
<title>R91&#45;&gt;R124</title>
<path fill="none" stroke="black" d="M624.22,-121.1C630.53,-93.74 645.34,-49.64 677.5,-29.5 753.5,18.08 1024.07,-4.37 1142.64,-16.97"/>
<polygon fill="black" stroke="black" points="1141.97,-20.53 1152.29,-18.12 1142.73,-13.57 1141.97,-20.53"/>
<text text-anchor="middle" x="909.5" y="-38.5" font-family="Times New Roman,serif" font-size="30.00"> &#160;&#160;652 &#160;&#160;0% &#160;&#160;0.00186 mol/s &#160;&#160;&#160;3.72E&#45;01</text>
</g>
<!-- R0 -->
<g id="node3" class="node">
<title>R0</title>
<g id="a_node3"><a xlink:href="0.svg" xlink:title="R0">
<polygon fill="cornsilk" stroke="none" points="67,-201 9,-201 9,-154 67,-154 67,-201"/>
<text text-anchor="middle" x="38" y="-169" font-family="Times New Roman,serif" font-size="35.00">R0</text>
</a>
</g>
</g>
<!-- R0&#45;&gt;R91 -->
<g id="edge4" class="edge">
<title>R0&#45;&gt;R91</title>
<path fill="none" stroke="black" stroke-width="6" d="M66.91,-178.24C143.63,-179.88 364.47,-181.98 560.5,-156.74"/>
<polygon fill="black" stroke="black" stroke-width="6" points="556.79,-167.03 575.21,-153.96 553.99,-146.22 556.79,-167.03"/>
<text text-anchor="middle" x="328.5" y="-187.5" font-family="Times New Roman,serif" font-size="30.00"> &#160;&#160;149 &#160;&#160;100% &#160;&#160;0.0342 mol/s &#160;&#160;&#160;1.00E+00</text>
</g>
<!-- R89 -->
<g id="node4" class="node">
<title>R89</title>
<g id="a_node4"><a xlink:href="89.svg" xlink:title="R89">
<polygon fill="cornsilk" stroke="none" points="76,-136 0,-136 0,-89 76,-89 76,-136"/>
<text text-anchor="middle" x="38" y="-104" font-family="Times New Roman,serif" font-size="35.00">R89</text>
</a>
</g>
</g>
<!-- R89&#45;&gt;R91 -->
<g id="edge5" class="edge">
<title>R89&#45;&gt;R91</title>
<path fill="none" stroke="black" stroke-width="6" d="M75.86,-107.9C160.32,-98.45 374.31,-80.74 560.81,-120.62"/>
<polygon fill="black" stroke="black" stroke-width="6" points="553.26,-130.04 575.09,-124.22 557.9,-109.56 553.26,-130.04"/>
<text text-anchor="middle" x="328.5" y="-131.5" font-family="Times New Roman,serif" font-size="30.00"> &#160;&#160;149 &#160;&#160;100% &#160;&#160;0.0342 mol/s &#160;&#160;&#160;1.00E+00</text>
</g>
</g>
</svg>
