<?xml version="1.0" encoding="UTF-8" standalone="no"?>
<!DOCTYPE svg PUBLIC "-//W3C//DTD SVG 1.1//EN"
 "http://www.w3.org/Graphics/SVG/1.1/DTD/svg11.dtd">
<!-- Generated by graphviz version 8.0.3 (20230416.2022)
 -->
<!-- Title: G Pages: 1 -->
<svg width="640pt" height="255pt"
 viewBox="0.00 0.00 720.00 287.01" xmlns="http://www.w3.org/2000/svg" xmlns:xlink="http://www.w3.org/1999/xlink">
<g id="graph0" class="graph" transform="scale(0.490421 0.490421) rotate(0) translate(4 516.21)">
<title>G</title>
<polygon fill="white" stroke="none" points="-4,4 -4,-516.21 1301,-516.21 1301,4 -4,4"/>
<text text-anchor="middle" x="648.5" y="-479.41" font-family="Arial" font-size="36.00" fill="blue">Reaction Path Analysis</text>
<!-- R92 -->
<g id="node1" class="node">
<title>R92</title>
<g id="a_node1"><a xlink:href="92.svg" xlink:title="R92">
<polygon fill="cornsilk" stroke="none" points="682,-245.71 606,-245.71 606,-198.71 682,-198.71 682,-245.71"/>
<text text-anchor="middle" x="644" y="-213.71" font-family="Times New Roman,serif" font-size="35.00">R92</text>
</a>
</g>
</g>
<!-- R86 -->
<g id="node4" class="node">
<title>R86</title>
<g id="a_node4"><a xlink:href="86.svg" xlink:title="R86">
<polygon fill="cornsilk" stroke="none" points="1288,-440.71 1212,-440.71 1212,-393.71 1288,-393.71 1288,-440.71"/>
<text text-anchor="middle" x="1250" y="-408.71" font-family="Times New Roman,serif" font-size="35.00">R86</text>
</a>
</g>
</g>
<!-- R92&#45;&gt;R86 -->
<g id="edge3" class="edge">
<title>R92&#45;&gt;R86</title>
<path fill="none" stroke="black" d="M644.97,-245.41C646.33,-282.61 654.98,-354.86 700,-389.21 777.73,-448.52 1082.71,-430.83 1201.38,-421.4"/>
<polygon fill="black" stroke="black" points="1201.59,-424.81 1211.27,-420.52 1201.02,-417.84 1201.59,-424.81"/>
<text text-anchor="middle" x="947" y="-440.21" font-family="Times New Roman,serif" font-size="30.00"> &#160;&#160;473 &#160;&#160;0% &#160;&#160;9.78e&#45;10 mol/s &#160;&#160;&#160;1.01E&#45;02</text>
</g>
<!-- R326 -->
<g id="node5" class="node">
<title>R326</title>
<g id="a_node5"><a xlink:href="326.svg" xlink:title="R326">
<polygon fill="cornsilk" stroke="none" points="1297,-375.71 1203,-375.71 1203,-328.71 1297,-328.71 1297,-375.71"/>
<text text-anchor="middle" x="1250" y="-343.71" font-family="Times New Roman,serif" font-size="35.00">R326</text>
</a>
</g>
</g>
<!-- R92&#45;&gt;R326 -->
<g id="edge4" class="edge">
<title>R92&#45;&gt;R326</title>
<path fill="none" stroke="black" d="M650.32,-245.66C657.24,-270.15 671.92,-307.42 700,-325.21 740.82,-351.07 1060.75,-352.91 1192.55,-352.55"/>
<polygon fill="black" stroke="black" points="1192.22,-356.05 1202.2,-352.52 1192.19,-349.05 1192.22,-356.05"/>
<text text-anchor="middle" x="947" y="-361.21" font-family="Times New Roman,serif" font-size="30.00"> &#160;&#160;550 &#160;&#160;16% &#160;&#160;4.67e&#45;08 mol/s &#160;&#160;&#160;1.00E+00</text>
</g>
<!-- R362 -->
<g id="node6" class="node">
<title>R362</title>
<g id="a_node6"><a xlink:href="362.svg" xlink:title="R362">
<polygon fill="cornsilk" stroke="none" points="1297,-310.71 1203,-310.71 1203,-263.71 1297,-263.71 1297,-310.71"/>
<text text-anchor="middle" x="1250" y="-278.71" font-family="Times New Roman,serif" font-size="35.00">R362</text>
</a>
</g>
</g>
<!-- R92&#45;&gt;R362 -->
<g id="edge5" class="edge">
<title>R92&#45;&gt;R362</title>
<path fill="none" stroke="black" d="M673.41,-245.54C681.54,-251 690.72,-256.12 700,-259.21 790,-289.19 1071.28,-289.49 1192.49,-288.13"/>
<polygon fill="black" stroke="black" points="1192.41,-291.62 1202.37,-288 1192.32,-284.62 1192.41,-291.62"/>
<text text-anchor="middle" x="947" y="-297.21" font-family="Times New Roman,serif" font-size="30.00"> &#160;&#160;609 &#160;&#160;16% &#160;&#160;4.67e&#45;08 mol/s &#160;&#160;&#160;1.00E+00</text>
</g>
<!-- R369 -->
<g id="node7" class="node">
<title>R369</title>
<g id="a_node7"><a xlink:href="369.svg" xlink:title="R369">
<polygon fill="cornsilk" stroke="none" points="1297,-245.71 1203,-245.71 1203,-198.71 1297,-198.71 1297,-245.71"/>
<text text-anchor="middle" x="1250" y="-213.71" font-family="Times New Roman,serif" font-size="35.00">R369</text>
</a>
</g>
</g>
<!-- R92&#45;&gt;R369 -->
<g id="edge6" class="edge">
<title>R92&#45;&gt;R369</title>
<path fill="none" stroke="black" d="M681.87,-222.21C783.83,-222.21 1070.07,-222.21 1192.4,-222.21"/>
<polygon fill="black" stroke="black" points="1192.37,-225.71 1202.37,-222.21 1192.37,-218.71 1192.37,-225.71"/>
<text text-anchor="middle" x="947" y="-231.21" font-family="Times New Roman,serif" font-size="30.00"> &#160;&#160;623 &#160;&#160;16% &#160;&#160;4.67e&#45;08 mol/s &#160;&#160;&#160;1.00E+00</text>
</g>
<!-- R370 -->
<g id="node8" class="node">
<title>R370</title>
<g id="a_node8"><a xlink:href="370.svg" xlink:title="R370">
<polygon fill="cornsilk" stroke="none" points="1297,-180.71 1203,-180.71 1203,-133.71 1297,-133.71 1297,-180.71"/>
<text text-anchor="middle" x="1250" y="-148.71" font-family="Times New Roman,serif" font-size="35.00">R370</text>
</a>
</g>
</g>
<!-- R92&#45;&gt;R370 -->
<g id="edge7" class="edge">
<title>R92&#45;&gt;R370</title>
<path fill="none" stroke="black" d="M673.41,-198.88C681.54,-193.42 690.72,-188.3 700,-185.21 871.88,-127.95 1090.73,-140.21 1192.38,-150.38"/>
<polygon fill="black" stroke="black" points="1191.71,-153.93 1202.02,-151.48 1192.43,-146.97 1191.71,-153.93"/>
<text text-anchor="middle" x="947" y="-194.21" font-family="Times New Roman,serif" font-size="30.00"> &#160;&#160;624 &#160;&#160;16% &#160;&#160;4.67e&#45;08 mol/s &#160;&#160;&#160;1.00E+00</text>
</g>
<!-- R377 -->
<g id="node9" class="node">
<title>R377</title>
<g id="a_node9"><a xlink:href="377.svg" xlink:title="R377">
<polygon fill="cornsilk" stroke="none" points="1297,-115.71 1203,-115.71 1203,-68.71 1297,-68.71 1297,-115.71"/>
<text text-anchor="middle" x="1250" y="-83.71" font-family="Times New Roman,serif" font-size="35.00">R377</text>
</a>
</g>
</g>
<!-- R92&#45;&gt;R377 -->
<g id="edge8" class="edge">
<title>R92&#45;&gt;R377</title>
<path fill="none" stroke="black" d="M648.53,-199.01C654.11,-171.33 667.84,-126.16 700,-105.21 779.77,-53.23 1069.22,-74.44 1192.63,-86.28"/>
<polygon fill="black" stroke="black" points="1192.05,-89.84 1202.34,-87.33 1192.73,-82.87 1192.05,-89.84"/>
<text text-anchor="middle" x="947" y="-114.21" font-family="Times New Roman,serif" font-size="30.00"> &#160;&#160;638 &#160;&#160;16% &#160;&#160;4.67e&#45;08 mol/s &#160;&#160;&#160;1.00E+00</text>
</g>
<!-- R378 -->
<g id="node10" class="node">
<title>R378</title>
<g id="a_node10"><a xlink:href="378.svg" xlink:title="R378">
<polygon fill="cornsilk" stroke="none" points="1297,-50.71 1203,-50.71 1203,-3.71 1297,-3.71 1297,-50.71"/>
<text text-anchor="middle" x="1250" y="-18.71" font-family="Times New Roman,serif" font-size="35.00">R378</text>
</a>
</g>
</g>
<!-- R92&#45;&gt;R378 -->
<g id="edge9" class="edge">
<title>R92&#45;&gt;R378</title>
<path fill="none" stroke="black" d="M648.4,-198.82C655.57,-153.22 673.73,-55.17 700,-35.21 775.89,22.44 1068.19,-5.09 1192.51,-19.9"/>
<polygon fill="black" stroke="black" points="1191.95,-23.48 1202.3,-21.21 1192.79,-16.53 1191.95,-23.48"/>
<text text-anchor="middle" x="947" y="-44.21" font-family="Times New Roman,serif" font-size="30.00"> &#160;&#160;639 &#160;&#160;16% &#160;&#160;4.67e&#45;08 mol/s &#160;&#160;&#160;1.00E+00</text>
</g>
<!-- R0 -->
<g id="node2" class="node">
<title>R0</title>
<g id="a_node2"><a xlink:href="0.svg" xlink:title="R0">
<polygon fill="cornsilk" stroke="none" points="67,-278.71 9,-278.71 9,-231.71 67,-231.71 67,-278.71"/>
<text text-anchor="middle" x="38" y="-246.71" font-family="Times New Roman,serif" font-size="35.00">R0</text>
</a>
</g>
</g>
<!-- R0&#45;&gt;R92 -->
<g id="edge1" class="edge">
<title>R0&#45;&gt;R92</title>
<path fill="none" stroke="black" stroke-width="6" d="M66.95,-255.95C146.07,-257.67 378.6,-260.08 585.47,-234.16"/>
<polygon fill="black" stroke="black" stroke-width="6" points="581.57,-244.48 600.04,-231.48 578.85,-223.65 581.57,-244.48"/>
<text text-anchor="middle" x="341" y="-265.21" font-family="Times New Roman,serif" font-size="30.00"> &#160;&#160;103 &#160;&#160;100% &#160;&#160;4.67e&#45;08 mol/s &#160;&#160;&#160;1.00E+00</text>
</g>
<!-- R15 -->
<g id="node3" class="node">
<title>R15</title>
<g id="a_node3"><a xlink:href="15.svg" xlink:title="R15">
<polygon fill="cornsilk" stroke="none" points="76,-213.71 0,-213.71 0,-166.71 76,-166.71 76,-213.71"/>
<text text-anchor="middle" x="38" y="-181.71" font-family="Times New Roman,serif" font-size="35.00">R15</text>
</a>
</g>
</g>
<!-- R15&#45;&gt;R92 -->
<g id="edge2" class="edge">
<title>R15&#45;&gt;R92</title>
<path fill="none" stroke="black" stroke-width="6" d="M75.77,-185.71C162.84,-176.11 388.43,-157.52 585.94,-198.91"/>
<polygon fill="black" stroke="black" stroke-width="6" points="578.39,-208.32 600.18,-202.39 582.92,-187.82 578.39,-208.32"/>
<text text-anchor="middle" x="341" y="-209.21" font-family="Times New Roman,serif" font-size="30.00"> &#160;&#160;103 &#160;&#160;100% &#160;&#160;4.67e&#45;08 mol/s &#160;&#160;&#160;1.00E+00</text>
</g>
</g>
</svg>
