<?xml version="1.0" encoding="UTF-8" standalone="no"?>
<!DOCTYPE svg PUBLIC "-//W3C//DTD SVG 1.1//EN"
 "http://www.w3.org/Graphics/SVG/1.1/DTD/svg11.dtd">
<!-- Generated by graphviz version 8.0.3 (20230416.2022)
 -->
<!-- Title: G Pages: 1 -->
<svg width="640pt" height="215pt"
 viewBox="0.00 0.00 720.00 242.35" xmlns="http://www.w3.org/2000/svg" xmlns:xlink="http://www.w3.org/1999/xlink">
<g id="graph0" class="graph" transform="scale(0.503937 0.503937) rotate(0) translate(4 423.48)">
<title>G</title>
<polygon fill="white" stroke="none" points="-4,4 -4,-423.48 1266,-423.48 1266,4 -4,4"/>
<text text-anchor="middle" x="631" y="-386.68" font-family="Arial" font-size="36.00" fill="blue">Reaction Path Analysis</text>
<!-- R92 -->
<g id="node1" class="node">
<title>R92</title>
<g id="a_node1"><a xlink:href="92.svg" xlink:title="R92">
<polygon fill="cornsilk" stroke="none" points="669,-197.98 593,-197.98 593,-150.98 669,-150.98 669,-197.98"/>
<text text-anchor="middle" x="631" y="-165.98" font-family="Times New Roman,serif" font-size="35.00">R92</text>
</a>
</g>
</g>
<!-- R86 -->
<g id="node4" class="node">
<title>R86</title>
<g id="a_node4"><a xlink:href="86.svg" xlink:title="R86">
<polygon fill="cornsilk" stroke="none" points="1253,-327.98 1177,-327.98 1177,-280.98 1253,-280.98 1253,-327.98"/>
<text text-anchor="middle" x="1215" y="-295.98" font-family="Times New Roman,serif" font-size="35.00">R86</text>
</a>
</g>
</g>
<!-- R92&#45;&gt;R86 -->
<g id="edge3" class="edge">
<title>R92&#45;&gt;R86</title>
<path fill="none" stroke="black" stroke-width="4" d="M638.3,-197.74C646.23,-222.02 662.4,-258.95 691,-276.48 838.31,-366.78 1055.09,-338.46 1157.04,-317.86"/>
<polygon fill="black" stroke="black" stroke-width="4" points="1154.16,-325.56 1172.27,-314.56 1151.25,-311.87 1154.16,-325.56"/>
<text text-anchor="middle" x="923" y="-347.48" font-family="Times New Roman,serif" font-size="30.00"> &#160;&#160;473 &#160;&#160;71% &#160;&#160;0.268 mol/s &#160;&#160;&#160;9.93E&#45;03</text>
</g>
<!-- R326 -->
<g id="node5" class="node">
<title>R326</title>
<g id="a_node5"><a xlink:href="326.svg" xlink:title="R326">
<polygon fill="cornsilk" stroke="none" points="1262,-262.98 1168,-262.98 1168,-215.98 1262,-215.98 1262,-262.98"/>
<text text-anchor="middle" x="1215" y="-230.98" font-family="Times New Roman,serif" font-size="35.00">R326</text>
</a>
</g>
</g>
<!-- R92&#45;&gt;R326 -->
<g id="edge4" class="edge">
<title>R92&#45;&gt;R326</title>
<path fill="none" stroke="black" d="M662.69,-197.8C671.41,-203.26 681.2,-208.38 691,-211.48 776.44,-238.55 1040.44,-240.53 1157.32,-240.01"/>
<polygon fill="black" stroke="black" points="1157.18,-243.51 1167.16,-239.96 1157.14,-236.51 1157.18,-243.51"/>
<text text-anchor="middle" x="923" y="-248.48" font-family="Times New Roman,serif" font-size="30.00"> &#160;&#160;550 &#160;&#160;9% &#160;&#160;0.0341 mol/s &#160;&#160;&#160;9.99E&#45;01</text>
</g>
<!-- R369 -->
<g id="node7" class="node">
<title>R369</title>
<g id="a_node7"><a xlink:href="369.svg" xlink:title="R369">
<polygon fill="cornsilk" stroke="none" points="1262,-197.98 1168,-197.98 1168,-150.98 1262,-150.98 1262,-197.98"/>
<text text-anchor="middle" x="1215" y="-165.98" font-family="Times New Roman,serif" font-size="35.00">R369</text>
</a>
</g>
</g>
<!-- R92&#45;&gt;R369 -->
<g id="edge6" class="edge">
<title>R92&#45;&gt;R369</title>
<path fill="none" stroke="black" d="M668.85,-174.48C767.61,-174.48 1038.77,-174.48 1157.3,-174.48"/>
<polygon fill="black" stroke="black" points="1157.28,-177.98 1167.28,-174.48 1157.28,-170.98 1157.28,-177.98"/>
<text text-anchor="middle" x="923" y="-183.48" font-family="Times New Roman,serif" font-size="30.00"> &#160;&#160;623 &#160;&#160;9% &#160;&#160;0.0342 mol/s &#160;&#160;&#160;1.00E+00</text>
</g>
<!-- R370 -->
<g id="node8" class="node">
<title>R370</title>
<g id="a_node8"><a xlink:href="370.svg" xlink:title="R370">
<polygon fill="cornsilk" stroke="none" points="1262,-132.98 1168,-132.98 1168,-85.98 1262,-85.98 1262,-132.98"/>
<text text-anchor="middle" x="1215" y="-100.98" font-family="Times New Roman,serif" font-size="35.00">R370</text>
</a>
</g>
</g>
<!-- R92&#45;&gt;R370 -->
<g id="edge7" class="edge">
<title>R92&#45;&gt;R370</title>
<path fill="none" stroke="black" d="M662.69,-151.16C671.41,-145.71 681.2,-140.58 691,-137.48 853.97,-85.85 1059.64,-94.95 1157.4,-103.43"/>
<polygon fill="black" stroke="black" points="1156.94,-106.99 1167.22,-104.4 1157.57,-100.02 1156.94,-106.99"/>
<text text-anchor="middle" x="923" y="-146.48" font-family="Times New Roman,serif" font-size="30.00"> &#160;&#160;624 &#160;&#160;9% &#160;&#160;0.0341 mol/s &#160;&#160;&#160;9.99E&#45;01</text>
</g>
<!-- R377 -->
<g id="node9" class="node">
<title>R377</title>
<g id="a_node9"><a xlink:href="377.svg" xlink:title="R377">
<polygon fill="cornsilk" stroke="none" points="1262,-67.98 1168,-67.98 1168,-20.98 1262,-20.98 1262,-67.98"/>
<text text-anchor="middle" x="1215" y="-35.98" font-family="Times New Roman,serif" font-size="35.00">R377</text>
</a>
</g>
</g>
<!-- R92&#45;&gt;R377 -->
<g id="edge8" class="edge">
<title>R92&#45;&gt;R377</title>
<path fill="none" stroke="green" d="M636.58,-151.16C643.3,-123.87 658.73,-79.83 691,-59.48 837.55,32.96 1056.08,-4.03 1157.95,-28.89"/>
<polygon fill="green" stroke="green" points="1156.77,-32.45 1167.32,-31.48 1158.47,-25.66 1156.77,-32.45"/>
<text text-anchor="middle" x="923" y="-68.48" font-family="Times New Roman,serif" font-size="30.00"> &#160;&#160;638 &#160;&#160;0% &#160;&#160;0.00264 mol/s &#160;&#160;&#160;5.20E&#45;01</text>
</g>
<!-- R0 -->
<g id="node2" class="node">
<title>R0</title>
<g id="a_node2"><a xlink:href="0.svg" xlink:title="R0">
<polygon fill="cornsilk" stroke="none" points="76,-295.98 18,-295.98 18,-248.98 76,-248.98 76,-295.98"/>
<text text-anchor="middle" x="47" y="-263.98" font-family="Times New Roman,serif" font-size="35.00">R0</text>
</a>
</g>
</g>
<!-- R0&#45;&gt;R92 -->
<g id="edge1" class="edge">
<title>R0&#45;&gt;R92</title>
<path fill="none" stroke="black" stroke-width="2" d="M75.8,-278.57C157.84,-295.01 403.84,-333.36 575,-244.48 590.98,-236.18 603.8,-220.95 613.03,-206.8"/>
<polygon fill="black" stroke="black" stroke-width="2" points="615.34,-210.1 617.58,-199.74 609.37,-206.44 615.34,-210.1"/>
<text text-anchor="middle" x="339" y="-309.48" font-family="Times New Roman,serif" font-size="30.00"> &#160;&#160;103 &#160;&#160;26% &#160;&#160;0.0342 mol/s &#160;&#160;&#160;1.00E+00</text>
</g>
<!-- R15 -->
<g id="node3" class="node">
<title>R15</title>
<g id="a_node3"><a xlink:href="15.svg" xlink:title="R15">
<polygon fill="cornsilk" stroke="none" points="85,-230.98 9,-230.98 9,-183.98 85,-183.98 85,-230.98"/>
<text text-anchor="middle" x="47" y="-198.98" font-family="Times New Roman,serif" font-size="35.00">R15</text>
</a>
</g>
</g>
<!-- R15&#45;&gt;R92 -->
<g id="edge2" class="edge">
<title>R15&#45;&gt;R92</title>
<path fill="none" stroke="black" stroke-width="2" d="M84.9,-207.91C171.05,-208.48 392.03,-207.46 575,-185.48 577.4,-185.19 579.84,-184.86 582.31,-184.49"/>
<polygon fill="black" stroke="black" stroke-width="2" points="581.86,-187.78 591.15,-182.67 580.7,-180.87 581.86,-187.78"/>
<text text-anchor="middle" x="339" y="-216.48" font-family="Times New Roman,serif" font-size="30.00"> &#160;&#160;103 &#160;&#160;26% &#160;&#160;0.0342 mol/s &#160;&#160;&#160;1.00E+00</text>
</g>
<!-- R362 -->
<g id="node6" class="node">
<title>R362</title>
<g id="a_node6"><a xlink:href="362.svg" xlink:title="R362">
<polygon fill="cornsilk" stroke="none" points="94,-165.98 0,-165.98 0,-118.98 94,-118.98 94,-165.98"/>
<text text-anchor="middle" x="47" y="-133.98" font-family="Times New Roman,serif" font-size="35.00">R362</text>
</a>
</g>
</g>
<!-- R362&#45;&gt;R92 -->
<g id="edge5" class="edge">
<title>R362&#45;&gt;R92</title>
<path fill="none" stroke="black" stroke-width="3" d="M93.72,-137.88C185.88,-129.81 400.1,-117.08 575,-152.48 577.65,-153.02 580.33,-153.67 583.01,-154.42"/>
<polygon fill="black" stroke="black" stroke-width="3" points="578.69,-156.99 589.28,-156.69 580.82,-150.32 578.69,-156.99"/>
<text text-anchor="middle" x="339" y="-161.48" font-family="Times New Roman,serif" font-size="30.00"> &#160;&#160;609 &#160;&#160;56% &#160;&#160;0.0727 mol/s &#160;&#160;&#160;2.42E&#45;01</text>
</g>
<!-- R378 -->
<g id="node10" class="node">
<title>R378</title>
<g id="a_node10"><a xlink:href="378.svg" xlink:title="R378">
<polygon fill="cornsilk" stroke="none" points="94,-100.98 0,-100.98 0,-53.98 94,-53.98 94,-100.98"/>
<text text-anchor="middle" x="47" y="-68.98" font-family="Times New Roman,serif" font-size="35.00">R378</text>
</a>
</g>
</g>
<!-- R378&#45;&gt;R92 -->
<g id="edge9" class="edge">
<title>R378&#45;&gt;R92</title>
<path fill="none" stroke="black" d="M93.94,-65.44C190.23,-42.9 417.3,-4.08 575,-91.48 594.43,-102.25 608.21,-123.12 617.12,-141.24"/>
<polygon fill="black" stroke="black" points="614.34,-142.58 621.69,-150.21 620.71,-139.66 614.34,-142.58"/>
<text text-anchor="middle" x="339" y="-100.48" font-family="Times New Roman,serif" font-size="30.00"> &#160;&#160;639 &#160;&#160;16% &#160;&#160;0.0215 mol/s &#160;&#160;&#160;3.80E&#45;01</text>
</g>
</g>
</svg>
