<?xml version="1.0" encoding="UTF-8" standalone="no"?>
<!DOCTYPE svg PUBLIC "-//W3C//DTD SVG 1.1//EN"
 "http://www.w3.org/Graphics/SVG/1.1/DTD/svg11.dtd">
<!-- Generated by graphviz version 8.0.3 (20230416.2022)
 -->
<!-- Title: G Pages: 1 -->
<svg width="640pt" height="210pt"
 viewBox="0.00 0.00 720.00 236.60" xmlns="http://www.w3.org/2000/svg" xmlns:xlink="http://www.w3.org/1999/xlink">
<g id="graph0" class="graph" transform="scale(0.498442 0.498442) rotate(0) translate(4 417.94)">
<title>G</title>
<polygon fill="white" stroke="none" points="-4,4 -4,-417.94 1280,-417.94 1280,4 -4,4"/>
<text text-anchor="middle" x="638" y="-381.14" font-family="Arial" font-size="36.00" fill="blue">Reaction Path Analysis</text>
<!-- R93 -->
<g id="node1" class="node">
<title>R93</title>
<g id="a_node1"><a xlink:href="93.svg" xlink:title="R93">
<polygon fill="cornsilk" stroke="none" points="676,-194.44 600,-194.44 600,-147.44 676,-147.44 676,-194.44"/>
<text text-anchor="middle" x="638" y="-162.44" font-family="Times New Roman,serif" font-size="35.00">R93</text>
</a>
</g>
</g>
<!-- R371 -->
<g id="node7" class="node">
<title>R371</title>
<g id="a_node7"><a xlink:href="371.svg" xlink:title="R371">
<polygon fill="cornsilk" stroke="none" points="1276,-194.44 1182,-194.44 1182,-147.44 1276,-147.44 1276,-194.44"/>
<text text-anchor="middle" x="1229" y="-162.44" font-family="Times New Roman,serif" font-size="35.00">R371</text>
</a>
</g>
</g>
<!-- R93&#45;&gt;R371 -->
<g id="edge6" class="edge">
<title>R93&#45;&gt;R371</title>
<path fill="none" stroke="black" stroke-width="6" d="M675.84,-170.94C772.9,-170.94 1036.65,-170.94 1161.18,-170.94"/>
<polygon fill="black" stroke="black" stroke-width="6" points="1156.04,-181.44 1176.04,-170.94 1156.04,-160.44 1156.04,-181.44"/>
<text text-anchor="middle" x="933.5" y="-179.94" font-family="Times New Roman,serif" font-size="30.00"> &#160;&#160;625 &#160;&#160;100% &#160;&#160;0.0202 mol/s &#160;&#160;&#160;7.09E&#45;01</text>
</g>
<!-- R0 -->
<g id="node2" class="node">
<title>R0</title>
<g id="a_node2"><a xlink:href="0.svg" xlink:title="R0">
<polygon fill="cornsilk" stroke="none" points="76,-324.44 18,-324.44 18,-277.44 76,-277.44 76,-324.44"/>
<text text-anchor="middle" x="47" y="-292.44" font-family="Times New Roman,serif" font-size="35.00">R0</text>
</a>
</g>
</g>
<!-- R0&#45;&gt;R93 -->
<g id="edge1" class="edge">
<title>R0&#45;&gt;R93</title>
<path fill="none" stroke="black" d="M75.99,-307.69C158.51,-325.97 405.37,-368.87 571,-272.94 597.07,-257.84 614.6,-227.83 625,-204.25"/>
<polygon fill="black" stroke="black" points="628.54,-205.85 629.15,-195.28 622.08,-203.16 628.54,-205.85"/>
<text text-anchor="middle" x="342.5" y="-341.94" font-family="Times New Roman,serif" font-size="30.00"> &#160;&#160;115 &#160;&#160;0% &#160;&#160;0.0342 mol/s &#160;&#160;&#160;1.00E+00</text>
</g>
<!-- R28 -->
<g id="node3" class="node">
<title>R28</title>
<g id="a_node3"><a xlink:href="28.svg" xlink:title="R28">
<polygon fill="cornsilk" stroke="none" points="85,-259.44 9,-259.44 9,-212.44 85,-212.44 85,-259.44"/>
<text text-anchor="middle" x="47" y="-227.44" font-family="Times New Roman,serif" font-size="35.00">R28</text>
</a>
</g>
</g>
<!-- R28&#45;&gt;R93 -->
<g id="edge2" class="edge">
<title>R28&#45;&gt;R93</title>
<path fill="none" stroke="black" d="M84.81,-236.13C188.2,-236.32 479.63,-234.43 571,-207.94 578.37,-205.8 585.82,-202.71 592.92,-199.22"/>
<polygon fill="black" stroke="black" points="594.13,-202.01 601.35,-194.25 590.87,-195.81 594.13,-202.01"/>
<text text-anchor="middle" x="342.5" y="-244.94" font-family="Times New Roman,serif" font-size="30.00"> &#160;&#160;115 &#160;&#160;0% &#160;&#160;0.0342 mol/s &#160;&#160;&#160;1.00E+00</text>
</g>
<!-- R87 -->
<g id="node4" class="node">
<title>R87</title>
<g id="a_node4"><a xlink:href="87.svg" xlink:title="R87">
<polygon fill="cornsilk" stroke="none" points="85,-194.44 9,-194.44 9,-147.44 85,-147.44 85,-194.44"/>
<text text-anchor="middle" x="47" y="-162.44" font-family="Times New Roman,serif" font-size="35.00">R87</text>
</a>
</g>
</g>
<!-- R87&#45;&gt;R93 -->
<g id="edge3" class="edge">
<title>R87&#45;&gt;R93</title>
<path fill="none" stroke="black" d="M84.84,-170.94C187.21,-170.94 475.04,-170.94 589.34,-170.94"/>
<polygon fill="black" stroke="black" points="589.17,-174.44 599.17,-170.94 589.17,-167.44 589.17,-174.44"/>
<text text-anchor="middle" x="342.5" y="-179.94" font-family="Times New Roman,serif" font-size="30.00"> &#160;&#160;475 &#160;&#160;0% &#160;&#160;0.0027 mol/s &#160;&#160;&#160;9.94E&#45;01</text>
</g>
<!-- R327 -->
<g id="node5" class="node">
<title>R327</title>
<g id="a_node5"><a xlink:href="327.svg" xlink:title="R327">
<polygon fill="cornsilk" stroke="none" points="94,-129.44 0,-129.44 0,-82.44 94,-82.44 94,-129.44"/>
<text text-anchor="middle" x="47" y="-97.44" font-family="Times New Roman,serif" font-size="35.00">R327</text>
</a>
</g>
</g>
<!-- R327&#45;&gt;R93 -->
<g id="edge4" class="edge">
<title>R327&#45;&gt;R93</title>
<path fill="none" stroke="black" d="M93.93,-101.54C186.39,-94.16 400.7,-84.56 571,-133.94 578.37,-136.08 585.82,-139.17 592.92,-142.66"/>
<polygon fill="black" stroke="black" points="590.87,-146.07 601.35,-147.63 594.13,-139.87 590.87,-146.07"/>
<text text-anchor="middle" x="342.5" y="-142.94" font-family="Times New Roman,serif" font-size="30.00"> &#160;&#160;551 &#160;&#160;0% &#160;&#160;0.679 mol/s &#160;&#160;&#160;4.57E&#45;02</text>
</g>
<!-- R363 -->
<g id="node6" class="node">
<title>R363</title>
<g id="a_node6"><a xlink:href="363.svg" xlink:title="R363">
<polygon fill="cornsilk" stroke="none" points="94,-64.44 0,-64.44 0,-17.44 94,-17.44 94,-64.44"/>
<text text-anchor="middle" x="47" y="-32.44" font-family="Times New Roman,serif" font-size="35.00">R363</text>
</a>
</g>
</g>
<!-- R363&#45;&gt;R93 -->
<g id="edge5" class="edge">
<title>R363&#45;&gt;R93</title>
<path fill="none" stroke="black" stroke-width="5" d="M93.67,-28.72C189.85,-5.75 417.06,33.78 571,-57.94 596.77,-73.29 613.51,-102.87 623.69,-127.91"/>
<polygon fill="black" stroke="black" stroke-width="5" points="613.72,-126.62 628.74,-142.47 630.19,-120.69 613.72,-126.62"/>
<text text-anchor="middle" x="342.5" y="-66.94" font-family="Times New Roman,serif" font-size="30.00"> &#160;&#160;610 &#160;&#160;99% &#160;&#160;122.0 mol/s &#160;&#160;&#160;2.81E&#45;04</text>
</g>
</g>
</svg>
