<?xml version="1.0" encoding="UTF-8" standalone="no"?>
<!DOCTYPE svg PUBLIC "-//W3C//DTD SVG 1.1//EN"
 "http://www.w3.org/Graphics/SVG/1.1/DTD/svg11.dtd">
<!-- Generated by graphviz version 8.0.3 (20230416.2022)
 -->
<!-- Title: G Pages: 1 -->
<svg width="640pt" height="288pt"
 viewBox="0.00 0.00 720.00 323.60" xmlns="http://www.w3.org/2000/svg" xmlns:xlink="http://www.w3.org/1999/xlink">
<g id="graph0" class="graph" transform="scale(0.490421 0.490421) rotate(0) translate(4 582.53)">
<title>G</title>
<polygon fill="white" stroke="none" points="-4,4 -4,-582.53 1301,-582.53 1301,4 -4,4"/>
<text text-anchor="middle" x="648.5" y="-545.73" font-family="Arial" font-size="36.00" fill="blue">Reaction Path Analysis</text>
<!-- R94 -->
<g id="node1" class="node">
<title>R94</title>
<g id="a_node1"><a xlink:href="94.svg" xlink:title="R94">
<polygon fill="cornsilk" stroke="none" points="691,-280.03 615,-280.03 615,-233.03 691,-233.03 691,-280.03"/>
<text text-anchor="middle" x="653" y="-248.03" font-family="Times New Roman,serif" font-size="35.00">R94</text>
</a>
</g>
</g>
<!-- R89 -->
<g id="node6" class="node">
<title>R89</title>
<g id="a_node6"><a xlink:href="89.svg" xlink:title="R89">
<polygon fill="cornsilk" stroke="none" points="1297,-280.03 1221,-280.03 1221,-233.03 1297,-233.03 1297,-280.03"/>
<text text-anchor="middle" x="1259" y="-248.03" font-family="Times New Roman,serif" font-size="35.00">R89</text>
</a>
</g>
</g>
<!-- R94&#45;&gt;R89 -->
<g id="edge5" class="edge">
<title>R94&#45;&gt;R89</title>
<path fill="none" stroke="black" stroke-width="6" d="M690.87,-256.53C792.61,-256.53 1077.83,-256.53 1200.61,-256.53"/>
<polygon fill="black" stroke="black" stroke-width="6" points="1195.23,-267.03 1215.23,-256.53 1195.23,-246.03 1195.23,-267.03"/>
<text text-anchor="middle" x="956" y="-265.53" font-family="Times New Roman,serif" font-size="30.00"> &#160;&#160;477 &#160;&#160;100% &#160;&#160;5.65 mol/s &#160;&#160;&#160;4.81E&#45;04</text>
</g>
<!-- R0 -->
<g id="node2" class="node">
<title>R0</title>
<g id="a_node2"><a xlink:href="0.svg" xlink:title="R0">
<polygon fill="cornsilk" stroke="none" points="76,-475.03 18,-475.03 18,-428.03 76,-428.03 76,-475.03"/>
<text text-anchor="middle" x="47" y="-443.03" font-family="Times New Roman,serif" font-size="35.00">R0</text>
</a>
</g>
</g>
<!-- R0&#45;&gt;R94 -->
<g id="edge1" class="edge">
<title>R0&#45;&gt;R94</title>
<path fill="none" stroke="black" d="M75.89,-459.95C163.29,-484.49 435.58,-546.7 597,-423.53 637.97,-392.27 648.82,-329.61 651.46,-290.56"/>
<polygon fill="black" stroke="black" points="655,-290.91 652.03,-280.74 648.01,-290.54 655,-290.91"/>
<text text-anchor="middle" x="350" y="-506.53" font-family="Times New Roman,serif" font-size="30.00"> &#160;&#160;116 &#160;&#160;0% &#160;&#160;0.0342 mol/s &#160;&#160;&#160;1.00E+00</text>
</g>
<!-- R28 -->
<g id="node3" class="node">
<title>R28</title>
<g id="a_node3"><a xlink:href="28.svg" xlink:title="R28">
<polygon fill="cornsilk" stroke="none" points="85,-410.03 9,-410.03 9,-363.03 85,-363.03 85,-410.03"/>
<text text-anchor="middle" x="47" y="-378.03" font-family="Times New Roman,serif" font-size="35.00">R28</text>
</a>
</g>
</g>
<!-- R28&#45;&gt;R94 -->
<g id="edge2" class="edge">
<title>R28&#45;&gt;R94</title>
<path fill="none" stroke="black" d="M84.81,-386.8C200.87,-387.36 553.97,-386.79 597,-359.53 621.35,-344.1 635.62,-314.03 643.5,-290.34"/>
<polygon fill="black" stroke="black" points="647.09,-291.57 646.68,-280.98 640.4,-289.52 647.09,-291.57"/>
<text text-anchor="middle" x="350" y="-395.53" font-family="Times New Roman,serif" font-size="30.00"> &#160;&#160;116 &#160;&#160;0% &#160;&#160;0.0342 mol/s &#160;&#160;&#160;1.00E+00</text>
</g>
<!-- R1 -->
<g id="node4" class="node">
<title>R1</title>
<g id="a_node4"><a xlink:href="1.svg" xlink:title="R1">
<polygon fill="cornsilk" stroke="none" points="76,-345.03 18,-345.03 18,-298.03 76,-298.03 76,-345.03"/>
<text text-anchor="middle" x="47" y="-313.03" font-family="Times New Roman,serif" font-size="35.00">R1</text>
</a>
</g>
</g>
<!-- R1&#45;&gt;R94 -->
<g id="edge3" class="edge">
<title>R1&#45;&gt;R94</title>
<path fill="none" stroke="black" d="M75.84,-322.06C173.35,-323.63 498.87,-326.22 597,-293.53 602.95,-291.55 608.85,-288.74 614.46,-285.54"/>
<polygon fill="black" stroke="black" points="615.94,-288.12 622.59,-279.87 612.25,-282.17 615.94,-288.12"/>
<text text-anchor="middle" x="350" y="-331.53" font-family="Times New Roman,serif" font-size="30.00"> &#160;&#160;152 &#160;&#160;0% &#160;&#160;0.0342 mol/s &#160;&#160;&#160;1.00E+00</text>
</g>
<!-- R15 -->
<g id="node5" class="node">
<title>R15</title>
<g id="a_node5"><a xlink:href="15.svg" xlink:title="R15">
<polygon fill="cornsilk" stroke="none" points="85,-280.03 9,-280.03 9,-233.03 85,-233.03 85,-280.03"/>
<text text-anchor="middle" x="47" y="-248.03" font-family="Times New Roman,serif" font-size="35.00">R15</text>
</a>
</g>
</g>
<!-- R15&#45;&gt;R94 -->
<g id="edge4" class="edge">
<title>R15&#45;&gt;R94</title>
<path fill="none" stroke="black" d="M84.87,-256.53C189.46,-256.53 487.94,-256.53 604.52,-256.53"/>
<polygon fill="black" stroke="black" points="604.23,-260.03 614.23,-256.53 604.23,-253.03 604.23,-260.03"/>
<text text-anchor="middle" x="350" y="-265.53" font-family="Times New Roman,serif" font-size="30.00"> &#160;&#160;152 &#160;&#160;0% &#160;&#160;0.0342 mol/s &#160;&#160;&#160;1.00E+00</text>
</g>
<!-- R328 -->
<g id="node7" class="node">
<title>R328</title>
<g id="a_node7"><a xlink:href="328.svg" xlink:title="R328">
<polygon fill="cornsilk" stroke="none" points="94,-215.03 0,-215.03 0,-168.03 94,-168.03 94,-215.03"/>
<text text-anchor="middle" x="47" y="-183.03" font-family="Times New Roman,serif" font-size="35.00">R328</text>
</a>
</g>
</g>
<!-- R328&#45;&gt;R94 -->
<g id="edge6" class="edge">
<title>R328&#45;&gt;R94</title>
<path fill="none" stroke="black" d="M93.98,-185.8C190.26,-175.52 418.85,-160.19 597,-219.53 602.95,-221.51 608.85,-224.33 614.46,-227.53"/>
<polygon fill="black" stroke="black" points="612.25,-230.89 622.59,-233.2 615.94,-224.95 612.25,-230.89"/>
<text text-anchor="middle" x="350" y="-228.53" font-family="Times New Roman,serif" font-size="30.00"> &#160;&#160;552 &#160;&#160;0% &#160;&#160;6.07 mol/s &#160;&#160;&#160;5.57E&#45;03</text>
</g>
<!-- R364 -->
<g id="node8" class="node">
<title>R364</title>
<g id="a_node8"><a xlink:href="364.svg" xlink:title="R364">
<polygon fill="cornsilk" stroke="none" points="94,-150.03 0,-150.03 0,-103.03 94,-103.03 94,-150.03"/>
<text text-anchor="middle" x="47" y="-118.03" font-family="Times New Roman,serif" font-size="35.00">R364</text>
</a>
</g>
</g>
<!-- R364&#45;&gt;R94 -->
<g id="edge7" class="edge">
<title>R364&#45;&gt;R94</title>
<path fill="none" stroke="black" stroke-width="5" d="M93.66,-121.54C210.13,-109.74 514.87,-84.93 597,-138.53 622.29,-155.04 636.16,-186.45 643.64,-212.72"/>
<polygon fill="black" stroke="black" stroke-width="5" points="634.37,-209.72 647.54,-227.13 651.38,-205.64 634.37,-209.72"/>
<text text-anchor="middle" x="350" y="-147.53" font-family="Times New Roman,serif" font-size="30.00"> &#160;&#160;611 &#160;&#160;99% &#160;&#160;243000.0 mol/s &#160;&#160;&#160;1.41E&#45;07</text>
</g>
<!-- R372 -->
<g id="node9" class="node">
<title>R372</title>
<g id="a_node9"><a xlink:href="372.svg" xlink:title="R372">
<polygon fill="cornsilk" stroke="none" points="94,-85.03 0,-85.03 0,-38.03 94,-38.03 94,-85.03"/>
<text text-anchor="middle" x="47" y="-53.03" font-family="Times New Roman,serif" font-size="35.00">R372</text>
</a>
</g>
</g>
<!-- R372&#45;&gt;R94 -->
<g id="edge8" class="edge">
<title>R372&#45;&gt;R94</title>
<path fill="none" stroke="black" d="M93.9,-45.6C196.11,-13.29 445.34,47.58 597,-67.53 621.68,-86.27 639,-173.33 647,-222.49"/>
<polygon fill="black" stroke="black" points="643.68,-222.91 648.69,-232.24 650.59,-221.81 643.68,-222.91"/>
<text text-anchor="middle" x="350" y="-76.53" font-family="Times New Roman,serif" font-size="30.00"> &#160;&#160;626 &#160;&#160;0% &#160;&#160;113.0 mol/s &#160;&#160;&#160;3.02E&#45;04</text>
</g>
</g>
</svg>
