<?xml version="1.0" encoding="UTF-8" standalone="no"?>
<!DOCTYPE svg PUBLIC "-//W3C//DTD SVG 1.1//EN"
 "http://www.w3.org/Graphics/SVG/1.1/DTD/svg11.dtd">
<!-- Generated by graphviz version 8.0.3 (20230416.2022)
 -->
<!-- Title: G Pages: 1 -->
<svg width="640pt" height="122pt"
 viewBox="0.00 0.00 720.00 136.88" xmlns="http://www.w3.org/2000/svg" xmlns:xlink="http://www.w3.org/1999/xlink">
<g id="graph0" class="graph" transform="scale(0.47619 0.47619) rotate(0) translate(4 251.5)">
<title>G</title>
<polygon fill="white" stroke="none" points="-4,4 -4,-251.5 1340,-251.5 1340,4 -4,4"/>
<text text-anchor="middle" x="668" y="-214.7" font-family="Arial" font-size="36.00" fill="blue">Reaction Path Analysis</text>
<!-- R95 -->
<g id="node1" class="node">
<title>R95</title>
<g id="a_node1"><a xlink:href="95.svg" xlink:title="R95">
<polygon fill="cornsilk" stroke="none" points="706,-112 630,-112 630,-65 706,-65 706,-112"/>
<text text-anchor="middle" x="668" y="-80" font-family="Times New Roman,serif" font-size="35.00">R95</text>
</a>
</g>
</g>
<!-- R329 -->
<g id="node4" class="node">
<title>R329</title>
<g id="a_node4"><a xlink:href="329.svg" xlink:title="R329">
<polygon fill="cornsilk" stroke="none" points="1336,-112 1242,-112 1242,-65 1336,-65 1336,-112"/>
<text text-anchor="middle" x="1289" y="-80" font-family="Times New Roman,serif" font-size="35.00">R329</text>
</a>
</g>
</g>
<!-- R95&#45;&gt;R329 -->
<g id="edge3" class="edge">
<title>R95&#45;&gt;R329</title>
<path fill="none" stroke="black" stroke-width="6" d="M705.87,-88.5C807.24,-88.5 1091.23,-88.5 1221.35,-88.5"/>
<polygon fill="black" stroke="black" stroke-width="6" points="1216.33,-99 1236.33,-88.5 1216.33,-78 1216.33,-99"/>
<text text-anchor="middle" x="978.5" y="-97.5" font-family="Times New Roman,serif" font-size="30.00"> &#160;&#160;553 &#160;&#160;100% &#160;&#160;4.67e&#45;08 mol/s &#160;&#160;&#160;1.00E+00</text>
</g>
<!-- R0 -->
<g id="node2" class="node">
<title>R0</title>
<g id="a_node2"><a xlink:href="0.svg" xlink:title="R0">
<polygon fill="cornsilk" stroke="none" points="76,-177 18,-177 18,-130 76,-130 76,-177"/>
<text text-anchor="middle" x="47" y="-145" font-family="Times New Roman,serif" font-size="35.00">R0</text>
</a>
</g>
</g>
<!-- R0&#45;&gt;R95 -->
<g id="edge1" class="edge">
<title>R0&#45;&gt;R95</title>
<path fill="none" stroke="black" stroke-width="5" d="M75.72,-156.69C158.33,-165.25 409.28,-184.27 604.5,-125.5 608.35,-124.34 612.21,-122.9 616.02,-121.26"/>
<polygon fill="black" stroke="black" stroke-width="5" points="615.55,-130.77 629.33,-113.84 607.55,-115.2 615.55,-130.77"/>
<text text-anchor="middle" x="357.5" y="-175.5" font-family="Times New Roman,serif" font-size="30.00"> &#160;&#160;120 &#160;&#160;99% &#160;&#160;4.67e&#45;08 mol/s &#160;&#160;&#160;1.00E+00</text>
</g>
<!-- R43 -->
<g id="node3" class="node">
<title>R43</title>
<g id="a_node3"><a xlink:href="43.svg" xlink:title="R43">
<polygon fill="cornsilk" stroke="none" points="85,-112 9,-112 9,-65 85,-65 85,-112"/>
<text text-anchor="middle" x="47" y="-80" font-family="Times New Roman,serif" font-size="35.00">R43</text>
</a>
</g>
</g>
<!-- R43&#45;&gt;R95 -->
<g id="edge2" class="edge">
<title>R43&#45;&gt;R95</title>
<path fill="none" stroke="black" stroke-width="5" d="M84.87,-88.5C188.73,-88.5 484.3,-88.5 609.66,-88.5"/>
<polygon fill="black" stroke="black" stroke-width="5" points="604.33,-97.25 624.33,-88.5 604.33,-79.75 604.33,-97.25"/>
<text text-anchor="middle" x="357.5" y="-97.5" font-family="Times New Roman,serif" font-size="30.00"> &#160;&#160;120 &#160;&#160;99% &#160;&#160;4.67e&#45;08 mol/s &#160;&#160;&#160;1.00E+00</text>
</g>
<!-- R163 -->
<g id="node5" class="node">
<title>R163</title>
<g id="a_node5"><a xlink:href="163.svg" xlink:title="R163">
<polygon fill="cornsilk" stroke="none" points="94,-47 0,-47 0,0 94,0 94,-47"/>
<text text-anchor="middle" x="47" y="-15" font-family="Times New Roman,serif" font-size="35.00">R163</text>
</a>
</g>
</g>
<!-- R163&#45;&gt;R95 -->
<g id="edge4" class="edge">
<title>R163&#45;&gt;R95</title>
<path fill="none" stroke="black" d="M93.97,-18.52C190.84,-9.6 422.02,3.43 604.5,-51.5 611.4,-53.58 618.32,-56.57 624.93,-59.96"/>
<polygon fill="black" stroke="black" points="622.89,-63.39 633.33,-65.16 626.28,-57.26 622.89,-63.39"/>
<text text-anchor="middle" x="357.5" y="-60.5" font-family="Times New Roman,serif" font-size="30.00"> &#160;&#160;686 &#160;&#160;0% &#160;&#160;1.01e&#45;11 mol/s &#160;&#160;&#160;1.00E+00</text>
</g>
</g>
</svg>
