<?xml version="1.0" encoding="UTF-8" standalone="no"?>
<!DOCTYPE svg PUBLIC "-//W3C//DTD SVG 1.1//EN"
 "http://www.w3.org/Graphics/SVG/1.1/DTD/svg11.dtd">
<!-- Generated by graphviz version 8.0.3 (20230416.2022)
 -->
<!-- Title: G Pages: 1 -->
<svg width="621pt" height="432pt"
 viewBox="0.00 0.00 699.00 486.16" xmlns="http://www.w3.org/2000/svg" xmlns:xlink="http://www.w3.org/1999/xlink">
<g id="graph0" class="graph" transform="scale(0.888889 0.888889) rotate(0) translate(4 482.16)">
<title>G</title>
<polygon fill="white" stroke="none" points="-4,4 -4,-482.16 695,-482.16 695,4 -4,4"/>
<text text-anchor="middle" x="345.5" y="-445.36" font-family="Arial" font-size="36.00" fill="blue">Reaction Path Analysis</text>
<!-- R96 -->
<g id="node1" class="node">
<title>R96</title>
<g id="a_node1"><a xlink:href="96.svg" xlink:title="R96">
<polygon fill="cornsilk" stroke="none" points="691,-241.66 615,-241.66 615,-194.66 691,-194.66 691,-241.66"/>
<text text-anchor="middle" x="653" y="-209.66" font-family="Times New Roman,serif" font-size="35.00">R96</text>
</a>
</g>
</g>
<!-- R0 -->
<g id="node2" class="node">
<title>R0</title>
<g id="a_node2"><a xlink:href="0.svg" xlink:title="R0">
<polygon fill="cornsilk" stroke="none" points="76,-404.66 18,-404.66 18,-357.66 76,-357.66 76,-404.66"/>
<text text-anchor="middle" x="47" y="-372.66" font-family="Times New Roman,serif" font-size="35.00">R0</text>
</a>
</g>
</g>
<!-- R0&#45;&gt;R96 -->
<g id="edge1" class="edge">
<title>R0&#45;&gt;R96</title>
<path fill="none" stroke="black" d="M75.79,-383.9C175.31,-393.16 512.54,-419.39 597,-359.16 631.31,-334.7 644.22,-285.55 649.07,-252.24"/>
<polygon fill="black" stroke="black" points="652.63,-252.98 650.43,-242.62 645.69,-252.09 652.63,-252.98"/>
<text text-anchor="middle" x="350" y="-406.16" font-family="Times New Roman,serif" font-size="30.00"> &#160;&#160;121 &#160;&#160;0% &#160;&#160;0.0342 mol/s &#160;&#160;&#160;1.00E+00</text>
</g>
<!-- R43 -->
<g id="node3" class="node">
<title>R43</title>
<g id="a_node3"><a xlink:href="43.svg" xlink:title="R43">
<polygon fill="cornsilk" stroke="none" points="85,-339.66 9,-339.66 9,-292.66 85,-292.66 85,-339.66"/>
<text text-anchor="middle" x="47" y="-307.66" font-family="Times New Roman,serif" font-size="35.00">R43</text>
</a>
</g>
</g>
<!-- R43&#45;&gt;R96 -->
<g id="edge2" class="edge">
<title>R43&#45;&gt;R96</title>
<path fill="none" stroke="black" d="M84.64,-318.16C192.61,-323.46 507.59,-334.47 597,-288.16 612.99,-279.88 625.81,-264.64 635.04,-250.49"/>
<polygon fill="black" stroke="black" points="638.35,-252.79 640.59,-242.44 632.38,-249.14 638.35,-252.79"/>
<text text-anchor="middle" x="350" y="-332.16" font-family="Times New Roman,serif" font-size="30.00"> &#160;&#160;121 &#160;&#160;0% &#160;&#160;0.0342 mol/s &#160;&#160;&#160;1.00E+00</text>
</g>
<!-- R2 -->
<g id="node4" class="node">
<title>R2</title>
<g id="a_node4"><a xlink:href="2.svg" xlink:title="R2">
<polygon fill="cornsilk" stroke="none" points="76,-274.66 18,-274.66 18,-227.66 76,-227.66 76,-274.66"/>
<text text-anchor="middle" x="47" y="-242.66" font-family="Times New Roman,serif" font-size="35.00">R2</text>
</a>
</g>
</g>
<!-- R2&#45;&gt;R96 -->
<g id="edge3" class="edge">
<title>R2&#45;&gt;R96</title>
<path fill="none" stroke="black" d="M75.83,-251.59C156.66,-252.49 398.33,-252.86 597,-229.16 599.4,-228.87 601.84,-228.54 604.31,-228.17"/>
<polygon fill="black" stroke="black" points="604.86,-231.46 614.15,-226.36 603.71,-224.56 604.86,-231.46"/>
<text text-anchor="middle" x="350" y="-260.16" font-family="Times New Roman,serif" font-size="30.00"> &#160;&#160;229 &#160;&#160;0% &#160;&#160;0.0342 mol/s &#160;&#160;&#160;1.00E+00</text>
</g>
<!-- R15 -->
<g id="node5" class="node">
<title>R15</title>
<g id="a_node5"><a xlink:href="15.svg" xlink:title="R15">
<polygon fill="cornsilk" stroke="none" points="85,-209.66 9,-209.66 9,-162.66 85,-162.66 85,-209.66"/>
<text text-anchor="middle" x="47" y="-177.66" font-family="Times New Roman,serif" font-size="35.00">R15</text>
</a>
</g>
</g>
<!-- R15&#45;&gt;R96 -->
<g id="edge4" class="edge">
<title>R15&#45;&gt;R96</title>
<path fill="none" stroke="black" d="M84.79,-182.31C173.82,-173.96 407.55,-157.88 597,-196.16 599.65,-196.7 602.33,-197.35 605.01,-198.1"/>
<polygon fill="black" stroke="black" points="603.69,-201.67 614.28,-201.37 605.82,-195 603.69,-201.67"/>
<text text-anchor="middle" x="350" y="-205.16" font-family="Times New Roman,serif" font-size="30.00"> &#160;&#160;229 &#160;&#160;0% &#160;&#160;0.0342 mol/s &#160;&#160;&#160;1.00E+00</text>
</g>
<!-- R330 -->
<g id="node6" class="node">
<title>R330</title>
<g id="a_node6"><a xlink:href="330.svg" xlink:title="R330">
<polygon fill="cornsilk" stroke="none" points="94,-144.66 0,-144.66 0,-97.66 94,-97.66 94,-144.66"/>
<text text-anchor="middle" x="47" y="-112.66" font-family="Times New Roman,serif" font-size="35.00">R330</text>
</a>
</g>
</g>
<!-- R330&#45;&gt;R96 -->
<g id="edge5" class="edge">
<title>R330&#45;&gt;R96</title>
<path fill="none" stroke="black" stroke-width="5" d="M93.67,-116.92C209.45,-107 511.38,-86.56 597,-134.16 613.68,-143.43 626.15,-160.14 634.97,-176.22"/>
<polygon fill="black" stroke="black" stroke-width="5" points="625.42,-175.72 641.94,-189.99 641.21,-168.18 625.42,-175.72"/>
<text text-anchor="middle" x="350" y="-143.16" font-family="Times New Roman,serif" font-size="30.00"> &#160;&#160;554 &#160;&#160;99% &#160;&#160;191000.0 mol/s &#160;&#160;&#160;1.79E&#45;07</text>
</g>
<!-- R246 -->
<g id="node7" class="node">
<title>R246</title>
<g id="a_node7"><a xlink:href="246.svg" xlink:title="R246">
<polygon fill="cornsilk" stroke="none" points="94,-79.66 0,-79.66 0,-32.66 94,-32.66 94,-79.66"/>
<text text-anchor="middle" x="47" y="-47.66" font-family="Times New Roman,serif" font-size="35.00">R246</text>
</a>
</g>
</g>
<!-- R246&#45;&gt;R96 -->
<g id="edge6" class="edge">
<title>R246&#45;&gt;R96</title>
<path fill="none" stroke="black" d="M93.82,-41.24C195.31,-11.25 442.32,44.48 597,-66.16 634.49,-92.97 646.51,-147.94 650.32,-183.9"/>
<polygon fill="black" stroke="black" points="646.92,-184.2 651.28,-193.85 653.89,-183.58 646.92,-184.2"/>
<text text-anchor="middle" x="350" y="-75.16" font-family="Times New Roman,serif" font-size="30.00"> &#160;&#160;719 &#160;&#160;0% &#160;&#160;0.00272 mol/s &#160;&#160;&#160;1.00E+00</text>
</g>
</g>
</svg>
