<?xml version="1.0" encoding="UTF-8" standalone="no"?>
<!DOCTYPE svg PUBLIC "-//W3C//DTD SVG 1.1//EN"
 "http://www.w3.org/Graphics/SVG/1.1/DTD/svg11.dtd">
<!-- Generated by graphviz version 8.0.3 (20230416.2022)
 -->
<!-- Title: G Pages: 1 -->
<svg width="640pt" height="86pt"
 viewBox="0.00 0.00 720.00 97.29" xmlns="http://www.w3.org/2000/svg" xmlns:xlink="http://www.w3.org/1999/xlink">
<g id="graph0" class="graph" transform="scale(0.484481 0.484481) rotate(0) translate(4 174.5)">
<title>G</title>
<polygon fill="white" stroke="none" points="-4,4 -4,-174.5 1317,-174.5 1317,4 -4,4"/>
<text text-anchor="middle" x="656.5" y="-137.7" font-family="Arial" font-size="36.00" fill="blue">Reaction Path Analysis</text>
<!-- R97 -->
<g id="node1" class="node">
<title>R97</title>
<g id="a_node1"><a xlink:href="97.svg" xlink:title="R97">
<polygon fill="cornsilk" stroke="none" points="690,-79 614,-79 614,-32 690,-32 690,-79"/>
<text text-anchor="middle" x="652" y="-47" font-family="Times New Roman,serif" font-size="35.00">R97</text>
</a>
</g>
</g>
<!-- R205 -->
<g id="node4" class="node">
<title>R205</title>
<g id="a_node4"><a xlink:href="205.svg" xlink:title="R205">
<polygon fill="cornsilk" stroke="none" points="1313,-79 1219,-79 1219,-32 1313,-32 1313,-79"/>
<text text-anchor="middle" x="1266" y="-47" font-family="Times New Roman,serif" font-size="35.00">R205</text>
</a>
</g>
</g>
<!-- R97&#45;&gt;R205 -->
<g id="edge3" class="edge">
<title>R97&#45;&gt;R205</title>
<path fill="none" stroke="black" stroke-width="6" d="M689.91,-55.5C790.31,-55.5 1069.49,-55.5 1198.31,-55.5"/>
<polygon fill="black" stroke="black" stroke-width="6" points="1193.09,-66 1213.09,-55.5 1193.09,-45 1193.09,-66"/>
<text text-anchor="middle" x="959" y="-64.5" font-family="Times New Roman,serif" font-size="30.00"> &#160;&#160;701 &#160;&#160;100% &#160;&#160;1.66e&#45;10 mol/s &#160;&#160;&#160;5.41E&#45;02</text>
</g>
<!-- R0 -->
<g id="node2" class="node">
<title>R0</title>
<g id="a_node2"><a xlink:href="0.svg" xlink:title="R0">
<polygon fill="cornsilk" stroke="none" points="67,-112 9,-112 9,-65 67,-65 67,-112"/>
<text text-anchor="middle" x="38" y="-80" font-family="Times New Roman,serif" font-size="35.00">R0</text>
</a>
</g>
</g>
<!-- R0&#45;&gt;R97 -->
<g id="edge1" class="edge">
<title>R0&#45;&gt;R97</title>
<path fill="none" stroke="black" stroke-width="6" d="M66.84,-89.09C146.22,-90.41 380.8,-91.89 593.44,-66.71"/>
<polygon fill="black" stroke="black" stroke-width="6" points="589.71,-77.01 608.28,-64.14 587.15,-56.16 589.71,-77.01"/>
<text text-anchor="middle" x="345" y="-98.5" font-family="Times New Roman,serif" font-size="30.00"> &#160;&#160;124 &#160;&#160;100% &#160;&#160;4.67e&#45;08 mol/s &#160;&#160;&#160;1.00E+00</text>
</g>
<!-- R55 -->
<g id="node3" class="node">
<title>R55</title>
<g id="a_node3"><a xlink:href="55.svg" xlink:title="R55">
<polygon fill="cornsilk" stroke="none" points="76,-47 0,-47 0,0 76,0 76,-47"/>
<text text-anchor="middle" x="38" y="-15" font-family="Times New Roman,serif" font-size="35.00">R55</text>
</a>
</g>
</g>
<!-- R55&#45;&gt;R97 -->
<g id="edge2" class="edge">
<title>R55&#45;&gt;R97</title>
<path fill="none" stroke="black" stroke-width="6" d="M75.95,-19.33C163.51,-10.44 390.55,6.72 593.63,-33.49"/>
<polygon fill="black" stroke="black" stroke-width="6" points="586.42,-42.96 608.15,-36.77 590.71,-22.41 586.42,-42.96"/>
<text text-anchor="middle" x="345" y="-42.5" font-family="Times New Roman,serif" font-size="30.00"> &#160;&#160;124 &#160;&#160;100% &#160;&#160;4.67e&#45;08 mol/s &#160;&#160;&#160;1.00E+00</text>
</g>
</g>
</svg>
