<?xml version="1.0" encoding="UTF-8" standalone="no"?>
<!DOCTYPE svg PUBLIC "-//W3C//DTD SVG 1.1//EN"
 "http://www.w3.org/Graphics/SVG/1.1/DTD/svg11.dtd">
<!-- Generated by graphviz version 8.0.3 (20230416.2022)
 -->
<!-- Title: G Pages: 1 -->
<svg width="602pt" height="385pt"
 viewBox="0.00 0.00 677.00 432.80" xmlns="http://www.w3.org/2000/svg" xmlns:xlink="http://www.w3.org/1999/xlink">
<g id="graph0" class="graph" transform="scale(0.888889 0.888889) rotate(0) translate(4 428.8)">
<title>G</title>
<polygon fill="white" stroke="none" points="-4,4 -4,-428.8 673,-428.8 673,4 -4,4"/>
<text text-anchor="middle" x="334.5" y="-392" font-family="Arial" font-size="36.00" fill="blue">Reaction Path Analysis</text>
<!-- R98 -->
<g id="node1" class="node">
<title>R98</title>
<g id="a_node1"><a xlink:href="98.svg" xlink:title="R98">
<polygon fill="cornsilk" stroke="none" points="669,-201.3 593,-201.3 593,-154.3 669,-154.3 669,-201.3"/>
<text text-anchor="middle" x="631" y="-169.3" font-family="Times New Roman,serif" font-size="35.00">R98</text>
</a>
</g>
</g>
<!-- R0 -->
<g id="node2" class="node">
<title>R0</title>
<g id="a_node2"><a xlink:href="0.svg" xlink:title="R0">
<polygon fill="cornsilk" stroke="none" points="76,-331.3 18,-331.3 18,-284.3 76,-284.3 76,-331.3"/>
<text text-anchor="middle" x="47" y="-299.3" font-family="Times New Roman,serif" font-size="35.00">R0</text>
</a>
</g>
</g>
<!-- R0&#45;&gt;R98 -->
<g id="edge1" class="edge">
<title>R0&#45;&gt;R98</title>
<path fill="none" stroke="black" stroke-width="3" d="M75.7,-315.13C159.02,-335.46 411.62,-384.55 575,-280.8 599.34,-265.35 613.61,-235.28 621.49,-211.6"/>
<polygon fill="black" stroke="black" stroke-width="3" points="624.08,-215.83 623.67,-205.25 617.39,-213.78 624.08,-215.83"/>
<text text-anchor="middle" x="339" y="-352.8" font-family="Times New Roman,serif" font-size="30.00"> &#160;&#160;125 &#160;&#160;49% &#160;&#160;0.0342 mol/s &#160;&#160;&#160;1.00E+00</text>
</g>
<!-- R55 -->
<g id="node3" class="node">
<title>R55</title>
<g id="a_node3"><a xlink:href="55.svg" xlink:title="R55">
<polygon fill="cornsilk" stroke="none" points="85,-266.3 9,-266.3 9,-219.3 85,-219.3 85,-266.3"/>
<text text-anchor="middle" x="47" y="-234.3" font-family="Times New Roman,serif" font-size="35.00">R55</text>
</a>
</g>
</g>
<!-- R55&#45;&gt;R98 -->
<g id="edge2" class="edge">
<title>R55&#45;&gt;R98</title>
<path fill="none" stroke="black" stroke-width="3" d="M84.84,-243.38C189,-244.61 483.98,-245.23 575,-214.8 580.94,-212.82 586.85,-210 592.46,-206.8"/>
<polygon fill="black" stroke="black" stroke-width="3" points="591.94,-211.38 598.58,-203.12 588.24,-205.43 591.94,-211.38"/>
<text text-anchor="middle" x="339" y="-252.8" font-family="Times New Roman,serif" font-size="30.00"> &#160;&#160;125 &#160;&#160;49% &#160;&#160;0.0342 mol/s &#160;&#160;&#160;1.00E+00</text>
</g>
<!-- R3 -->
<g id="node4" class="node">
<title>R3</title>
<g id="a_node4"><a xlink:href="3.svg" xlink:title="R3">
<polygon fill="cornsilk" stroke="none" points="76,-201.3 18,-201.3 18,-154.3 76,-154.3 76,-201.3"/>
<text text-anchor="middle" x="47" y="-169.3" font-family="Times New Roman,serif" font-size="35.00">R3</text>
</a>
</g>
</g>
<!-- R3&#45;&gt;R98 -->
<g id="edge3" class="edge">
<title>R3&#45;&gt;R98</title>
<path fill="none" stroke="black" stroke-width="3" d="M75.68,-177.8C167.92,-177.8 465.6,-177.8 582.37,-177.8"/>
<polygon fill="black" stroke="black" stroke-width="3" points="579.09,-181.3 589.09,-177.8 579.09,-174.3 579.09,-181.3"/>
<text text-anchor="middle" x="339" y="-186.8" font-family="Times New Roman,serif" font-size="30.00"> &#160;&#160;276 &#160;&#160;49% &#160;&#160;0.0342 mol/s &#160;&#160;&#160;1.00E+00</text>
</g>
<!-- R15 -->
<g id="node5" class="node">
<title>R15</title>
<g id="a_node5"><a xlink:href="15.svg" xlink:title="R15">
<polygon fill="cornsilk" stroke="none" points="85,-136.3 9,-136.3 9,-89.3 85,-89.3 85,-136.3"/>
<text text-anchor="middle" x="47" y="-104.3" font-family="Times New Roman,serif" font-size="35.00">R15</text>
</a>
</g>
</g>
<!-- R15&#45;&gt;R98 -->
<g id="edge4" class="edge">
<title>R15&#45;&gt;R98</title>
<path fill="none" stroke="black" stroke-width="3" d="M84.7,-108.22C172.27,-98.66 399.26,-82.05 575,-140.8 580.94,-142.79 586.85,-145.61 592.46,-148.81"/>
<polygon fill="black" stroke="black" stroke-width="3" points="588.24,-150.17 598.58,-152.48 591.94,-144.23 588.24,-150.17"/>
<text text-anchor="middle" x="339" y="-149.8" font-family="Times New Roman,serif" font-size="30.00"> &#160;&#160;276 &#160;&#160;49% &#160;&#160;0.0342 mol/s &#160;&#160;&#160;1.00E+00</text>
</g>
<!-- R255 -->
<g id="node6" class="node">
<title>R255</title>
<g id="a_node6"><a xlink:href="255.svg" xlink:title="R255">
<polygon fill="cornsilk" stroke="none" points="94,-71.3 0,-71.3 0,-24.3 94,-24.3 94,-71.3"/>
<text text-anchor="middle" x="47" y="-39.3" font-family="Times New Roman,serif" font-size="35.00">R255</text>
</a>
</g>
</g>
<!-- R255&#45;&gt;R98 -->
<g id="edge5" class="edge">
<title>R255&#45;&gt;R98</title>
<path fill="none" stroke="black" d="M93.89,-34.16C191.56,-8.05 423.42,38.08 575,-60.8 603.38,-79.32 617.41,-116.68 624.15,-144.23"/>
<polygon fill="black" stroke="black" points="620.88,-144.61 626.47,-153.61 627.71,-143.09 620.88,-144.61"/>
<text text-anchor="middle" x="339" y="-69.8" font-family="Times New Roman,serif" font-size="30.00"> &#160;&#160;731 &#160;&#160;1% &#160;&#160;0.00134 mol/s &#160;&#160;&#160;6.63E&#45;01</text>
</g>
</g>
</svg>
