<?xml version="1.0" encoding="UTF-8" standalone="no"?>
<!DOCTYPE svg PUBLIC "-//W3C//DTD SVG 1.1//EN"
 "http://www.w3.org/Graphics/SVG/1.1/DTD/svg11.dtd">
<!-- Generated by graphviz version 8.0.3 (20230416.2022)
 -->
<!-- Title: G Pages: 1 -->
<svg width="640pt" height="46pt"
 viewBox="0.00 0.00 720.00 51.77" xmlns="http://www.w3.org/2000/svg" xmlns:xlink="http://www.w3.org/1999/xlink">
<g id="graph0" class="graph" transform="scale(0.355358 0.355358) rotate(0) translate(4 125.5)">
<title>G</title>
<polygon fill="white" stroke="none" points="-4,4 -4,-125.5 1797,-125.5 1797,4 -4,4"/>
<text text-anchor="middle" x="896.5" y="-88.7" font-family="Arial" font-size="36.00" fill="blue">Reaction Path Analysis</text>
<!-- R2 -->
<g id="node1" class="node">
<title>R2</title>
<g id="a_node1"><a xlink:href="2.svg" xlink:title="R2">
<polygon fill="cornsilk" stroke="none" points="930,-47 872,-47 872,0 930,0 930,-47"/>
<text text-anchor="middle" x="901" y="-15" font-family="Times New Roman,serif" font-size="35.00">R2</text>
</a>
</g>
</g>
<!-- R13 -->
<g id="node2" class="node">
<title>R13</title>
<g id="a_node2"><a xlink:href="13.svg" xlink:title="R13">
<polygon fill="cornsilk" stroke="none" points="1793,-47 1717,-47 1717,0 1793,0 1793,-47"/>
<text text-anchor="middle" x="1755" y="-15" font-family="Times New Roman,serif" font-size="35.00">R13</text>
</a>
</g>
</g>
<!-- R2&#45;&gt;R13 -->
<g id="edge1" class="edge">
<title>R2&#45;&gt;R13</title>
<path fill="none" stroke="black" stroke-width="4" d="M929.86,-23.5C1050.51,-23.5 1529.23,-23.5 1696.19,-23.5"/>
<polygon fill="black" stroke="black" stroke-width="4" points="1691.18,-30.5 1711.18,-23.5 1691.18,-16.5 1691.18,-30.5"/>
<text text-anchor="middle" x="1328" y="-37.5" font-family="Times New Roman,serif" font-size="45.00"> &#160;&#160;100 &#160;&#160;67% &#160;&#160;4.68 mol/s &#160;&#160;&#160;5.80E&#45;04</text>
</g>
<!-- R364 -->
<g id="node3" class="node">
<title>R364</title>
<g id="a_node3"><a xlink:href="364.svg" xlink:title="R364">
<polygon fill="cornsilk" stroke="none" points="94,-47 0,-47 0,0 94,0 94,-47"/>
<text text-anchor="middle" x="47" y="-15" font-family="Times New Roman,serif" font-size="35.00">R364</text>
</a>
</g>
</g>
<!-- R364&#45;&gt;R2 -->
<g id="edge2" class="edge">
<title>R364&#45;&gt;R2</title>
<path fill="none" stroke="black" stroke-width="5" d="M93.81,-23.5C240.93,-23.5 700.62,-23.5 851.5,-23.5"/>
<polygon fill="black" stroke="black" stroke-width="5" points="846.2,-32.25 866.2,-23.5 846.2,-14.75 846.2,-32.25"/>
<text text-anchor="middle" x="474" y="-37.5" font-family="Times New Roman,serif" font-size="45.00"> &#160;&#160;611 &#160;&#160;99% &#160;&#160;243000.0 mol/s &#160;&#160;&#160;1.41E&#45;07</text>
</g>
</g>
</svg>
