<?xml version="1.0" encoding="UTF-8" standalone="no"?>
<!DOCTYPE svg PUBLIC "-//W3C//DTD SVG 1.1//EN"
 "http://www.w3.org/Graphics/SVG/1.1/DTD/svg11.dtd">
<!-- Generated by graphviz version 8.0.3 (20230416.2022)
 -->
<!-- Title: G Pages: 1 -->
<svg width="337pt" height="640pt"
 viewBox="0.00 0.00 378.82 720.00" xmlns="http://www.w3.org/2000/svg" xmlns:xlink="http://www.w3.org/1999/xlink">
<g id="graph0" class="graph" transform="scale(0.190674 0.190674) rotate(0) translate(4 3352.52)">
<title>G</title>
<polygon fill="white" stroke="none" points="-4,4 -4,-3352.52 1762,-3352.52 1762,4 -4,4"/>
<text text-anchor="middle" x="879" y="-3315.72" font-family="Arial" font-size="36.00" fill="blue">Reaction Path Analysis</text>
<!-- R13 -->
<g id="node1" class="node">
<title>R13</title>
<g id="a_node1"><a xlink:href="13.svg" xlink:title="R13">
<polygon fill="cornsilk" stroke="none" points="917,-1657.02 841,-1657.02 841,-1610.02 917,-1610.02 917,-1657.02"/>
<text text-anchor="middle" x="879" y="-1625.02" font-family="Times New Roman,serif" font-size="35.00">R13</text>
</a>
</g>
</g>
<!-- R14 -->
<g id="node2" class="node">
<title>R14</title>
<g id="a_node2"><a xlink:href="14.svg" xlink:title="R14">
<polygon fill="cornsilk" stroke="none" points="1749,-3263.02 1673,-3263.02 1673,-3216.02 1749,-3216.02 1749,-3263.02"/>
<text text-anchor="middle" x="1711" y="-3231.02" font-family="Times New Roman,serif" font-size="35.00">R14</text>
</a>
</g>
</g>
<!-- R13&#45;&gt;R14 -->
<g id="edge1" class="edge">
<title>R13&#45;&gt;R14</title>
<path fill="none" stroke="black" d="M880.17,-1656.85C881.64,-1848.67 893.8,-3160.27 952,-3217.52 1002.52,-3267.22 1504.35,-3248.88 1662.52,-3241.79"/>
<polygon fill="black" stroke="black" points="1662.47,-3245.25 1672.3,-3241.3 1662.15,-3238.26 1662.47,-3245.25"/>
<text text-anchor="middle" x="1295" y="-3264.52" font-family="Times New Roman,serif" font-size="45.00"> &#160;&#160;17 &#160;&#160;1% &#160;&#160;0.0342 mol/s &#160;&#160;&#160;1.00E+00</text>
</g>
<!-- R26 -->
<g id="node3" class="node">
<title>R26</title>
<g id="a_node3"><a xlink:href="26.svg" xlink:title="R26">
<polygon fill="cornsilk" stroke="none" points="1749,-3190.02 1673,-3190.02 1673,-3143.02 1749,-3143.02 1749,-3190.02"/>
<text text-anchor="middle" x="1711" y="-3158.02" font-family="Times New Roman,serif" font-size="35.00">R26</text>
</a>
</g>
</g>
<!-- R13&#45;&gt;R26 -->
<g id="edge2" class="edge">
<title>R13&#45;&gt;R26</title>
<path fill="none" stroke="black" d="M880.22,-1656.94C882.08,-1844.03 896.53,-3090.08 952,-3144.52 977.39,-3169.44 1500.32,-3167.96 1662.48,-3166.9"/>
<polygon fill="black" stroke="black" points="1662.1,-3170.39 1672.08,-3166.83 1662.05,-3163.39 1662.1,-3170.39"/>
<text text-anchor="middle" x="1295" y="-3180.52" font-family="Times New Roman,serif" font-size="45.00"> &#160;&#160;31 &#160;&#160;1% &#160;&#160;0.0342 mol/s &#160;&#160;&#160;1.00E+00</text>
</g>
<!-- R27 -->
<g id="node4" class="node">
<title>R27</title>
<g id="a_node4"><a xlink:href="27.svg" xlink:title="R27">
<polygon fill="cornsilk" stroke="none" points="1749,-3117.02 1673,-3117.02 1673,-3070.02 1749,-3070.02 1749,-3117.02"/>
<text text-anchor="middle" x="1711" y="-3085.02" font-family="Times New Roman,serif" font-size="35.00">R27</text>
</a>
</g>
</g>
<!-- R13&#45;&gt;R27 -->
<g id="edge3" class="edge">
<title>R13&#45;&gt;R27</title>
<path fill="none" stroke="black" d="M880.28,-1656.95C882.54,-1838.87 899.26,-3019.87 952,-3071.52 977.42,-3096.41 1500.33,-3094.95 1662.48,-3093.9"/>
<polygon fill="black" stroke="black" points="1662.1,-3097.39 1672.08,-3093.82 1662.05,-3090.39 1662.1,-3097.39"/>
<text text-anchor="middle" x="1295" y="-3107.52" font-family="Times New Roman,serif" font-size="45.00"> &#160;&#160;32 &#160;&#160;1% &#160;&#160;0.0342 mol/s &#160;&#160;&#160;1.00E+00</text>
</g>
<!-- R41 -->
<g id="node5" class="node">
<title>R41</title>
<g id="a_node5"><a xlink:href="41.svg" xlink:title="R41">
<polygon fill="cornsilk" stroke="none" points="1749,-3044.02 1673,-3044.02 1673,-2997.02 1749,-2997.02 1749,-3044.02"/>
<text text-anchor="middle" x="1711" y="-3012.02" font-family="Times New Roman,serif" font-size="35.00">R41</text>
</a>
</g>
</g>
<!-- R13&#45;&gt;R41 -->
<g id="edge4" class="edge">
<title>R13&#45;&gt;R41</title>
<path fill="none" stroke="black" d="M880.34,-1656.87C883.02,-1833.2 901.97,-2949.66 952,-2998.52 977.45,-3023.37 1500.34,-3021.94 1662.48,-3020.89"/>
<polygon fill="black" stroke="black" points="1662.1,-3024.39 1672.08,-3020.82 1662.06,-3017.39 1662.1,-3024.39"/>
<text text-anchor="middle" x="1295" y="-3034.52" font-family="Times New Roman,serif" font-size="45.00"> &#160;&#160;46 &#160;&#160;1% &#160;&#160;0.0342 mol/s &#160;&#160;&#160;1.00E+00</text>
</g>
<!-- R42 -->
<g id="node6" class="node">
<title>R42</title>
<g id="a_node6"><a xlink:href="42.svg" xlink:title="R42">
<polygon fill="cornsilk" stroke="none" points="1749,-2971.02 1673,-2971.02 1673,-2924.02 1749,-2924.02 1749,-2971.02"/>
<text text-anchor="middle" x="1711" y="-2939.02" font-family="Times New Roman,serif" font-size="35.00">R42</text>
</a>
</g>
</g>
<!-- R13&#45;&gt;R42 -->
<g id="edge5" class="edge">
<title>R13&#45;&gt;R42</title>
<path fill="none" stroke="black" d="M880.41,-1656.97C883.55,-1828.12 904.69,-2879.46 952,-2925.52 977.49,-2950.34 1500.36,-2948.93 1662.49,-2947.89"/>
<polygon fill="black" stroke="black" points="1662.11,-2951.39 1672.08,-2947.82 1662.06,-2944.39 1662.11,-2951.39"/>
<text text-anchor="middle" x="1295" y="-2961.52" font-family="Times New Roman,serif" font-size="45.00"> &#160;&#160;47 &#160;&#160;1% &#160;&#160;0.0342 mol/s &#160;&#160;&#160;1.00E+00</text>
</g>
<!-- R53 -->
<g id="node7" class="node">
<title>R53</title>
<g id="a_node7"><a xlink:href="53.svg" xlink:title="R53">
<polygon fill="cornsilk" stroke="none" points="1749,-2898.02 1673,-2898.02 1673,-2851.02 1749,-2851.02 1749,-2898.02"/>
<text text-anchor="middle" x="1711" y="-2866.02" font-family="Times New Roman,serif" font-size="35.00">R53</text>
</a>
</g>
</g>
<!-- R13&#45;&gt;R53 -->
<g id="edge6" class="edge">
<title>R13&#45;&gt;R53</title>
<path fill="none" stroke="black" d="M880.49,-1656.95C884.1,-1822.41 907.4,-2809.24 952,-2852.52 977.53,-2877.29 1500.37,-2875.92 1662.49,-2874.89"/>
<polygon fill="black" stroke="black" points="1662.11,-2878.38 1672.08,-2874.82 1662.06,-2871.38 1662.11,-2878.38"/>
<text text-anchor="middle" x="1295" y="-2888.52" font-family="Times New Roman,serif" font-size="45.00"> &#160;&#160;59 &#160;&#160;1% &#160;&#160;0.0342 mol/s &#160;&#160;&#160;1.00E+00</text>
</g>
<!-- R54 -->
<g id="node8" class="node">
<title>R54</title>
<g id="a_node8"><a xlink:href="54.svg" xlink:title="R54">
<polygon fill="cornsilk" stroke="none" points="1749,-2825.02 1673,-2825.02 1673,-2778.02 1749,-2778.02 1749,-2825.02"/>
<text text-anchor="middle" x="1711" y="-2793.02" font-family="Times New Roman,serif" font-size="35.00">R54</text>
</a>
</g>
</g>
<!-- R13&#45;&gt;R54 -->
<g id="edge7" class="edge">
<title>R13&#45;&gt;R54</title>
<path fill="none" stroke="black" d="M880.58,-1656.81C884.67,-1816.05 910.1,-2739.01 952,-2779.52 977.57,-2804.25 1500.38,-2802.9 1662.49,-2801.88"/>
<polygon fill="black" stroke="black" points="1662.11,-2805.38 1672.09,-2801.82 1662.06,-2798.38 1662.11,-2805.38"/>
<text text-anchor="middle" x="1295" y="-2815.52" font-family="Times New Roman,serif" font-size="45.00"> &#160;&#160;60 &#160;&#160;1% &#160;&#160;0.0342 mol/s &#160;&#160;&#160;1.00E+00</text>
</g>
<!-- R60 -->
<g id="node9" class="node">
<title>R60</title>
<g id="a_node9"><a xlink:href="60.svg" xlink:title="R60">
<polygon fill="cornsilk" stroke="none" points="1749,-2752.02 1673,-2752.02 1673,-2705.02 1749,-2705.02 1749,-2752.02"/>
<text text-anchor="middle" x="1711" y="-2720.02" font-family="Times New Roman,serif" font-size="35.00">R60</text>
</a>
</g>
</g>
<!-- R13&#45;&gt;R60 -->
<g id="edge8" class="edge">
<title>R13&#45;&gt;R60</title>
<path fill="none" stroke="black" d="M879.74,-1656.6C878.27,-1805.88 873.74,-2631.17 952,-2706.52 977.63,-2731.19 1500.4,-2729.88 1662.5,-2728.88"/>
<polygon fill="black" stroke="black" points="1662.11,-2732.38 1672.09,-2728.81 1662.07,-2725.38 1662.11,-2732.38"/>
<text text-anchor="middle" x="1295" y="-2742.52" font-family="Times New Roman,serif" font-size="45.00"> &#160;&#160;66 &#160;&#160;1% &#160;&#160;0.0342 mol/s &#160;&#160;&#160;1.00E+00</text>
</g>
<!-- R64 -->
<g id="node10" class="node">
<title>R64</title>
<g id="a_node10"><a xlink:href="64.svg" xlink:title="R64">
<polygon fill="cornsilk" stroke="none" points="1749,-2679.02 1673,-2679.02 1673,-2632.02 1749,-2632.02 1749,-2679.02"/>
<text text-anchor="middle" x="1711" y="-2647.02" font-family="Times New Roman,serif" font-size="35.00">R64</text>
</a>
</g>
</g>
<!-- R13&#45;&gt;R64 -->
<g id="edge9" class="edge">
<title>R13&#45;&gt;R64</title>
<path fill="none" stroke="black" d="M879.86,-1656.86C879.2,-1800.78 879.18,-2563.76 952,-2633.52 977.69,-2658.13 1500.42,-2656.87 1662.5,-2655.88"/>
<polygon fill="black" stroke="black" points="1662.12,-2659.37 1672.09,-2655.81 1662.07,-2652.37 1662.12,-2659.37"/>
<text text-anchor="middle" x="1295" y="-2669.52" font-family="Times New Roman,serif" font-size="45.00"> &#160;&#160;70 &#160;&#160;1% &#160;&#160;0.0342 mol/s &#160;&#160;&#160;1.00E+00</text>
</g>
<!-- R68 -->
<g id="node11" class="node">
<title>R68</title>
<g id="a_node11"><a xlink:href="68.svg" xlink:title="R68">
<polygon fill="cornsilk" stroke="none" points="1749,-2606.02 1673,-2606.02 1673,-2559.02 1749,-2559.02 1749,-2606.02"/>
<text text-anchor="middle" x="1711" y="-2574.02" font-family="Times New Roman,serif" font-size="35.00">R68</text>
</a>
</g>
</g>
<!-- R13&#45;&gt;R68 -->
<g id="edge10" class="edge">
<title>R13&#45;&gt;R68</title>
<path fill="none" stroke="black" d="M880,-1656.92C880.2,-1794.7 884.58,-2496.29 952,-2560.52 977.76,-2585.06 1500.44,-2583.84 1662.51,-2582.87"/>
<polygon fill="black" stroke="black" points="1662.12,-2586.37 1672.1,-2582.8 1662.08,-2579.37 1662.12,-2586.37"/>
<text text-anchor="middle" x="1295" y="-2596.52" font-family="Times New Roman,serif" font-size="45.00"> &#160;&#160;74 &#160;&#160;1% &#160;&#160;0.0342 mol/s &#160;&#160;&#160;1.00E+00</text>
</g>
<!-- R73 -->
<g id="node12" class="node">
<title>R73</title>
<g id="a_node12"><a xlink:href="73.svg" xlink:title="R73">
<polygon fill="cornsilk" stroke="none" points="1749,-2533.02 1673,-2533.02 1673,-2486.02 1749,-2486.02 1749,-2533.02"/>
<text text-anchor="middle" x="1711" y="-2501.02" font-family="Times New Roman,serif" font-size="35.00">R73</text>
</a>
</g>
</g>
<!-- R13&#45;&gt;R73 -->
<g id="edge11" class="edge">
<title>R13&#45;&gt;R73</title>
<path fill="none" stroke="black" d="M880.16,-1656.76C881.28,-1787.63 889.93,-2428.78 952,-2487.52 977.84,-2511.97 1500.46,-2510.82 1662.51,-2509.86"/>
<polygon fill="black" stroke="black" points="1662.12,-2513.36 1672.1,-2509.8 1662.08,-2506.36 1662.12,-2513.36"/>
<text text-anchor="middle" x="1295" y="-2523.52" font-family="Times New Roman,serif" font-size="45.00"> &#160;&#160;79 &#160;&#160;1% &#160;&#160;0.0342 mol/s &#160;&#160;&#160;1.00E+00</text>
</g>
<!-- R76 -->
<g id="node13" class="node">
<title>R76</title>
<g id="a_node13"><a xlink:href="76.svg" xlink:title="R76">
<polygon fill="cornsilk" stroke="none" points="1749,-2460.02 1673,-2460.02 1673,-2413.02 1749,-2413.02 1749,-2460.02"/>
<text text-anchor="middle" x="1711" y="-2428.02" font-family="Times New Roman,serif" font-size="35.00">R76</text>
</a>
</g>
</g>
<!-- R13&#45;&gt;R76 -->
<g id="edge12" class="edge">
<title>R13&#45;&gt;R76</title>
<path fill="none" stroke="black" d="M880.35,-1656.78C882.46,-1780.86 895.3,-2361.28 952,-2414.52 977.93,-2438.87 1500.49,-2437.78 1662.52,-2436.86"/>
<polygon fill="black" stroke="black" points="1662.13,-2440.35 1672.11,-2436.79 1662.09,-2433.35 1662.13,-2440.35"/>
<text text-anchor="middle" x="1295" y="-2450.52" font-family="Times New Roman,serif" font-size="45.00"> &#160;&#160;82 &#160;&#160;1% &#160;&#160;0.0342 mol/s &#160;&#160;&#160;1.00E+00</text>
</g>
<!-- R77 -->
<g id="node14" class="node">
<title>R77</title>
<g id="a_node14"><a xlink:href="77.svg" xlink:title="R77">
<polygon fill="cornsilk" stroke="none" points="1749,-2387.02 1673,-2387.02 1673,-2340.02 1749,-2340.02 1749,-2387.02"/>
<text text-anchor="middle" x="1711" y="-2355.02" font-family="Times New Roman,serif" font-size="35.00">R77</text>
</a>
</g>
</g>
<!-- R13&#45;&gt;R77 -->
<g id="edge13" class="edge">
<title>R13&#45;&gt;R77</title>
<path fill="none" stroke="black" d="M880.59,-1656.88C883.76,-1774.02 900.66,-2293.77 952,-2341.52 978.06,-2365.76 1501.12,-2364.75 1662.8,-2363.85"/>
<polygon fill="black" stroke="black" points="1662.39,-2367.34 1672.36,-2363.79 1662.34,-2360.34 1662.39,-2367.34"/>
<text text-anchor="middle" x="1295" y="-2377.52" font-family="Times New Roman,serif" font-size="45.00"> &#160;&#160;83 &#160;&#160;1% &#160;&#160;0.0342 mol/s &#160;&#160;&#160;1.00E+00</text>
</g>
<!-- R81 -->
<g id="node15" class="node">
<title>R81</title>
<g id="a_node15"><a xlink:href="81.svg" xlink:title="R81">
<polygon fill="cornsilk" stroke="none" points="1749,-2314.02 1673,-2314.02 1673,-2267.02 1749,-2267.02 1749,-2314.02"/>
<text text-anchor="middle" x="1711" y="-2282.02" font-family="Times New Roman,serif" font-size="35.00">R81</text>
</a>
</g>
</g>
<!-- R13&#45;&gt;R81 -->
<g id="edge14" class="edge">
<title>R13&#45;&gt;R81</title>
<path fill="none" stroke="black" d="M880.88,-1656.97C885.21,-1766.75 906.01,-2226.23 952,-2268.52 978.2,-2292.61 1501.16,-2291.7 1662.81,-2290.84"/>
<polygon fill="black" stroke="black" points="1662.39,-2294.33 1672.37,-2290.78 1662.35,-2287.33 1662.39,-2294.33"/>
<text text-anchor="middle" x="1295" y="-2304.52" font-family="Times New Roman,serif" font-size="45.00"> &#160;&#160;87 &#160;&#160;1% &#160;&#160;0.0342 mol/s &#160;&#160;&#160;1.00E+00</text>
</g>
<!-- R84 -->
<g id="node16" class="node">
<title>R84</title>
<g id="a_node16"><a xlink:href="84.svg" xlink:title="R84">
<polygon fill="cornsilk" stroke="none" points="1749,-2241.02 1673,-2241.02 1673,-2194.02 1749,-2194.02 1749,-2241.02"/>
<text text-anchor="middle" x="1711" y="-2209.02" font-family="Times New Roman,serif" font-size="35.00">R84</text>
</a>
</g>
</g>
<!-- R13&#45;&gt;R84 -->
<g id="edge15" class="edge">
<title>R13&#45;&gt;R84</title>
<path fill="none" stroke="black" d="M881.24,-1656.95C886.83,-1758.68 911.32,-2158.66 952,-2195.52 978.37,-2219.42 1501.22,-2218.64 1662.83,-2217.82"/>
<polygon fill="black" stroke="black" points="1662.4,-2221.32 1672.38,-2217.77 1662.36,-2214.32 1662.4,-2221.32"/>
<text text-anchor="middle" x="1295" y="-2231.52" font-family="Times New Roman,serif" font-size="45.00"> &#160;&#160;90 &#160;&#160;1% &#160;&#160;0.0342 mol/s &#160;&#160;&#160;1.00E+00</text>
</g>
<!-- R85 -->
<g id="node17" class="node">
<title>R85</title>
<g id="a_node17"><a xlink:href="85.svg" xlink:title="R85">
<polygon fill="cornsilk" stroke="none" points="1749,-2168.02 1673,-2168.02 1673,-2121.02 1749,-2121.02 1749,-2168.02"/>
<text text-anchor="middle" x="1711" y="-2136.02" font-family="Times New Roman,serif" font-size="35.00">R85</text>
</a>
</g>
</g>
<!-- R13&#45;&gt;R85 -->
<g id="edge16" class="edge">
<title>R13&#45;&gt;R85</title>
<path fill="none" stroke="black" d="M879.68,-1656.99C879,-1745.89 881.7,-2060.01 952,-2122.52 978.6,-2146.17 1501.29,-2145.56 1662.84,-2144.8"/>
<polygon fill="black" stroke="black" points="1662.41,-2148.3 1672.4,-2144.75 1662.38,-2141.3 1662.41,-2148.3"/>
<text text-anchor="middle" x="1295" y="-2158.52" font-family="Times New Roman,serif" font-size="45.00"> &#160;&#160;91 &#160;&#160;1% &#160;&#160;0.0342 mol/s &#160;&#160;&#160;1.00E+00</text>
</g>
<!-- R86 -->
<g id="node18" class="node">
<title>R86</title>
<g id="a_node18"><a xlink:href="86.svg" xlink:title="R86">
<polygon fill="cornsilk" stroke="none" points="1749,-2095.02 1673,-2095.02 1673,-2048.02 1749,-2048.02 1749,-2095.02"/>
<text text-anchor="middle" x="1711" y="-2063.02" font-family="Times New Roman,serif" font-size="35.00">R86</text>
</a>
</g>
</g>
<!-- R13&#45;&gt;R86 -->
<g id="edge17" class="edge">
<title>R13&#45;&gt;R86</title>
<path fill="none" stroke="black" d="M880.34,-1657.02C882.05,-1737.16 892.19,-1997.67 952,-2049.52 978.89,-2072.83 1501.38,-2072.46 1662.86,-2071.78"/>
<polygon fill="black" stroke="black" points="1662.43,-2075.28 1672.41,-2071.73 1662.4,-2068.28 1662.43,-2075.28"/>
<text text-anchor="middle" x="1295" y="-2085.52" font-family="Times New Roman,serif" font-size="45.00"> &#160;&#160;92 &#160;&#160;1% &#160;&#160;0.0342 mol/s &#160;&#160;&#160;1.00E+00</text>
</g>
<!-- R89 -->
<g id="node19" class="node">
<title>R89</title>
<g id="a_node19"><a xlink:href="89.svg" xlink:title="R89">
<polygon fill="cornsilk" stroke="none" points="1749,-2022.02 1673,-2022.02 1673,-1975.02 1749,-1975.02 1749,-2022.02"/>
<text text-anchor="middle" x="1711" y="-1990.02" font-family="Times New Roman,serif" font-size="35.00">R89</text>
</a>
</g>
</g>
<!-- R13&#45;&gt;R89 -->
<g id="edge18" class="edge">
<title>R13&#45;&gt;R89</title>
<path fill="none" stroke="black" d="M881.28,-1657.02C885.66,-1727.56 902.58,-1935.19 952,-1976.52 979.3,-1999.35 1501.51,-1999.31 1662.89,-1998.75"/>
<polygon fill="black" stroke="black" points="1662.45,-2002.24 1672.44,-1998.71 1662.42,-1995.24 1662.45,-2002.24"/>
<text text-anchor="middle" x="1295" y="-2012.52" font-family="Times New Roman,serif" font-size="45.00"> &#160;&#160;95 &#160;&#160;1% &#160;&#160;0.0342 mol/s &#160;&#160;&#160;1.00E+00</text>
</g>
<!-- R106 -->
<g id="node20" class="node">
<title>R106</title>
<g id="a_node20"><a xlink:href="106.svg" xlink:title="R106">
<polygon fill="cornsilk" stroke="none" points="1758,-1949.02 1664,-1949.02 1664,-1902.02 1758,-1902.02 1758,-1949.02"/>
<text text-anchor="middle" x="1711" y="-1917.02" font-family="Times New Roman,serif" font-size="35.00">R106</text>
</a>
</g>
</g>
<!-- R13&#45;&gt;R106 -->
<g id="edge19" class="edge">
<title>R13&#45;&gt;R106</title>
<path fill="none" stroke="black" d="M882.68,-1656.85C890.07,-1716.57 912.82,-1872.51 952,-1903.52 979.38,-1925.2 1482.25,-1926.05 1653.47,-1925.71"/>
<polygon fill="black" stroke="black" points="1653.27,-1929.21 1663.26,-1925.69 1653.25,-1922.21 1653.27,-1929.21"/>
<text text-anchor="middle" x="1295" y="-1939.52" font-family="Times New Roman,serif" font-size="45.00"> &#160;&#160;323 &#160;&#160;1% &#160;&#160;0.0342 mol/s &#160;&#160;&#160;1.00E+00</text>
</g>
<!-- R242 -->
<g id="node21" class="node">
<title>R242</title>
<g id="a_node21"><a xlink:href="242.svg" xlink:title="R242">
<polygon fill="cornsilk" stroke="none" points="1758,-1876.02 1664,-1876.02 1664,-1829.02 1758,-1829.02 1758,-1876.02"/>
<text text-anchor="middle" x="1711" y="-1844.02" font-family="Times New Roman,serif" font-size="35.00">R242</text>
</a>
</g>
</g>
<!-- R13&#45;&gt;R242 -->
<g id="edge20" class="edge">
<title>R13&#45;&gt;R242</title>
<path fill="none" stroke="black" d="M880.64,-1656.97C883.21,-1699.73 895.44,-1789.74 952,-1830.52 980.31,-1850.93 1482,-1852.62 1653.26,-1852.6"/>
<polygon fill="black" stroke="black" points="1653.05,-1856.1 1663.05,-1852.6 1653.05,-1849.1 1653.05,-1856.1"/>
<text text-anchor="middle" x="1295" y="-1866.52" font-family="Times New Roman,serif" font-size="45.00"> &#160;&#160;325 &#160;&#160;1% &#160;&#160;0.0342 mol/s &#160;&#160;&#160;1.00E+00</text>
</g>
<!-- R243 -->
<g id="node22" class="node">
<title>R243</title>
<g id="a_node22"><a xlink:href="243.svg" xlink:title="R243">
<polygon fill="cornsilk" stroke="none" points="1758,-1803.02 1664,-1803.02 1664,-1756.02 1758,-1756.02 1758,-1803.02"/>
<text text-anchor="middle" x="1711" y="-1771.02" font-family="Times New Roman,serif" font-size="35.00">R243</text>
</a>
</g>
</g>
<!-- R13&#45;&gt;R243 -->
<g id="edge21" class="edge">
<title>R13&#45;&gt;R243</title>
<path fill="none" stroke="black" d="M886.05,-1656.97C895.01,-1686.33 914.89,-1735.43 952,-1757.52 981.99,-1775.37 1482.58,-1778.74 1653.4,-1779.38"/>
<polygon fill="black" stroke="black" points="1653.16,-1782.88 1663.17,-1779.41 1653.18,-1775.88 1653.16,-1782.88"/>
<text text-anchor="middle" x="1295" y="-1792.52" font-family="Times New Roman,serif" font-size="45.00"> &#160;&#160;327 &#160;&#160;1% &#160;&#160;0.0342 mol/s &#160;&#160;&#160;1.00E+00</text>
</g>
<!-- R244 -->
<g id="node23" class="node">
<title>R244</title>
<g id="a_node23"><a xlink:href="244.svg" xlink:title="R244">
<polygon fill="cornsilk" stroke="none" points="1758,-1730.02 1664,-1730.02 1664,-1683.02 1758,-1683.02 1758,-1730.02"/>
<text text-anchor="middle" x="1711" y="-1698.02" font-family="Times New Roman,serif" font-size="35.00">R244</text>
</a>
</g>
</g>
<!-- R13&#45;&gt;R244 -->
<g id="edge22" class="edge">
<title>R13&#45;&gt;R244</title>
<path fill="none" stroke="black" d="M905.27,-1657.01C918.22,-1667.51 934.86,-1678.79 952,-1684.52 1017.76,-1706.51 1488.57,-1707.21 1653.28,-1706.76"/>
<polygon fill="black" stroke="black" points="1653.15,-1710.26 1663.14,-1706.73 1653.13,-1703.26 1653.15,-1710.26"/>
<text text-anchor="middle" x="1295" y="-1720.52" font-family="Times New Roman,serif" font-size="45.00"> &#160;&#160;329 &#160;&#160;1% &#160;&#160;0.0342 mol/s &#160;&#160;&#160;1.00E+00</text>
</g>
<!-- R239 -->
<g id="node24" class="node">
<title>R239</title>
<g id="a_node24"><a xlink:href="239.svg" xlink:title="R239">
<polygon fill="cornsilk" stroke="none" points="1758,-1657.02 1664,-1657.02 1664,-1610.02 1758,-1610.02 1758,-1657.02"/>
<text text-anchor="middle" x="1711" y="-1625.02" font-family="Times New Roman,serif" font-size="35.00">R239</text>
</a>
</g>
</g>
<!-- R13&#45;&gt;R239 -->
<g id="edge23" class="edge">
<title>R13&#45;&gt;R239</title>
<path fill="none" stroke="black" d="M916.74,-1633.52C1047.94,-1633.52 1494.07,-1633.52 1653.11,-1633.52"/>
<polygon fill="black" stroke="black" points="1653.05,-1637.02 1663.05,-1633.52 1653.05,-1630.02 1653.05,-1637.02"/>
<text text-anchor="middle" x="1295" y="-1647.52" font-family="Times New Roman,serif" font-size="45.00"> &#160;&#160;330 &#160;&#160;1% &#160;&#160;0.0342 mol/s &#160;&#160;&#160;1.00E+00</text>
</g>
<!-- R245 -->
<g id="node25" class="node">
<title>R245</title>
<g id="a_node25"><a xlink:href="245.svg" xlink:title="R245">
<polygon fill="cornsilk" stroke="none" points="1758,-1584.02 1664,-1584.02 1664,-1537.02 1758,-1537.02 1758,-1584.02"/>
<text text-anchor="middle" x="1711" y="-1552.02" font-family="Times New Roman,serif" font-size="35.00">R245</text>
</a>
</g>
</g>
<!-- R13&#45;&gt;R245 -->
<g id="edge24" class="edge">
<title>R13&#45;&gt;R245</title>
<path fill="none" stroke="black" d="M903.41,-1610.05C916.51,-1598.54 933.85,-1585.83 952,-1579.52 1081.33,-1534.6 1500.93,-1550.14 1653.7,-1557.54"/>
<polygon fill="black" stroke="black" points="1653.08,-1561.06 1663.24,-1558.06 1653.42,-1554.07 1653.08,-1561.06"/>
<text text-anchor="middle" x="1295" y="-1593.52" font-family="Times New Roman,serif" font-size="45.00"> &#160;&#160;331 &#160;&#160;1% &#160;&#160;0.0342 mol/s &#160;&#160;&#160;1.00E+00</text>
</g>
<!-- R248 -->
<g id="node26" class="node">
<title>R248</title>
<g id="a_node26"><a xlink:href="248.svg" xlink:title="R248">
<polygon fill="cornsilk" stroke="none" points="1758,-1511.02 1664,-1511.02 1664,-1464.02 1758,-1464.02 1758,-1511.02"/>
<text text-anchor="middle" x="1711" y="-1479.02" font-family="Times New Roman,serif" font-size="35.00">R248</text>
</a>
</g>
</g>
<!-- R13&#45;&gt;R248 -->
<g id="edge25" class="edge">
<title>R13&#45;&gt;R248</title>
<path fill="none" stroke="black" d="M884.5,-1610.17C892.1,-1577.88 910.88,-1520.74 952,-1495.52 1011.15,-1459.24 1487.31,-1477.31 1653.23,-1484.8"/>
<polygon fill="black" stroke="black" points="1653.02,-1488.34 1663.17,-1485.3 1653.34,-1481.35 1653.02,-1488.34"/>
<text text-anchor="middle" x="1295" y="-1509.52" font-family="Times New Roman,serif" font-size="45.00"> &#160;&#160;336 &#160;&#160;1% &#160;&#160;0.0342 mol/s &#160;&#160;&#160;1.00E+00</text>
</g>
<!-- R249 -->
<g id="node27" class="node">
<title>R249</title>
<g id="a_node27"><a xlink:href="249.svg" xlink:title="R249">
<polygon fill="cornsilk" stroke="none" points="1758,-1438.02 1664,-1438.02 1664,-1391.02 1758,-1391.02 1758,-1438.02"/>
<text text-anchor="middle" x="1711" y="-1406.02" font-family="Times New Roman,serif" font-size="35.00">R249</text>
</a>
</g>
</g>
<!-- R13&#45;&gt;R249 -->
<g id="edge26" class="edge">
<title>R13&#45;&gt;R249</title>
<path fill="none" stroke="black" d="M879.82,-1610.25C880.89,-1564.86 890.49,-1465.03 952,-1420.52 1008.25,-1379.82 1486.83,-1402.14 1653.25,-1411.24"/>
<polygon fill="black" stroke="black" points="1653.04,-1414.79 1663.21,-1411.85 1653.42,-1407.8 1653.04,-1414.79"/>
<text text-anchor="middle" x="1295" y="-1434.52" font-family="Times New Roman,serif" font-size="45.00"> &#160;&#160;337 &#160;&#160;1% &#160;&#160;0.0342 mol/s &#160;&#160;&#160;1.00E+00</text>
</g>
<!-- R250 -->
<g id="node28" class="node">
<title>R250</title>
<g id="a_node28"><a xlink:href="250.svg" xlink:title="R250">
<polygon fill="cornsilk" stroke="none" points="1758,-1365.02 1664,-1365.02 1664,-1318.02 1758,-1318.02 1758,-1365.02"/>
<text text-anchor="middle" x="1711" y="-1333.02" font-family="Times New Roman,serif" font-size="35.00">R250</text>
</a>
</g>
</g>
<!-- R13&#45;&gt;R250 -->
<g id="edge27" class="edge">
<title>R13&#45;&gt;R250</title>
<path fill="none" stroke="black" d="M882.17,-1610.27C888.55,-1547.45 909.55,-1376.81 952,-1343.52 1006.69,-1300.64 1487.22,-1327.16 1653.59,-1337.75"/>
<polygon fill="black" stroke="black" points="1652.89,-1341.28 1663.09,-1338.42 1653.34,-1334.29 1652.89,-1341.28"/>
<text text-anchor="middle" x="1295" y="-1357.52" font-family="Times New Roman,serif" font-size="45.00"> &#160;&#160;339 &#160;&#160;1% &#160;&#160;0.0342 mol/s &#160;&#160;&#160;1.00E+00</text>
</g>
<!-- R254 -->
<g id="node29" class="node">
<title>R254</title>
<g id="a_node29"><a xlink:href="254.svg" xlink:title="R254">
<polygon fill="cornsilk" stroke="none" points="1758,-1292.02 1664,-1292.02 1664,-1245.02 1758,-1245.02 1758,-1292.02"/>
<text text-anchor="middle" x="1711" y="-1260.02" font-family="Times New Roman,serif" font-size="35.00">R254</text>
</a>
</g>
</g>
<!-- R13&#45;&gt;R254 -->
<g id="edge28" class="edge">
<title>R13&#45;&gt;R254</title>
<path fill="none" stroke="black" d="M880.87,-1610.18C884.15,-1536.4 898.48,-1310.56 952,-1266.52 978.96,-1244.34 1482.11,-1260.31 1653.43,-1266.42"/>
<polygon fill="black" stroke="black" points="1653.11,-1269.95 1663.23,-1266.81 1653.36,-1262.95 1653.11,-1269.95"/>
<text text-anchor="middle" x="1295" y="-1280.52" font-family="Times New Roman,serif" font-size="45.00"> &#160;&#160;343 &#160;&#160;1% &#160;&#160;0.0342 mol/s &#160;&#160;&#160;1.00E+00</text>
</g>
<!-- R206 -->
<g id="node30" class="node">
<title>R206</title>
<g id="a_node30"><a xlink:href="206.svg" xlink:title="R206">
<polygon fill="cornsilk" stroke="none" points="1758,-1219.02 1664,-1219.02 1664,-1172.02 1758,-1172.02 1758,-1219.02"/>
<text text-anchor="middle" x="1711" y="-1187.02" font-family="Times New Roman,serif" font-size="35.00">R206</text>
</a>
</g>
</g>
<!-- R13&#45;&gt;R206 -->
<g id="edge29" class="edge">
<title>R13&#45;&gt;R206</title>
<path fill="none" stroke="black" d="M880.14,-1610.23C881.15,-1528.24 889.26,-1255.09 952,-1201.52 1004.88,-1156.36 1487.14,-1181.68 1653.72,-1191.89"/>
<polygon fill="black" stroke="black" points="1653.03,-1195.41 1663.22,-1192.53 1653.46,-1188.42 1653.03,-1195.41"/>
<text text-anchor="middle" x="1295" y="-1215.52" font-family="Times New Roman,serif" font-size="45.00"> &#160;&#160;345 &#160;&#160;1% &#160;&#160;0.0342 mol/s &#160;&#160;&#160;1.00E+00</text>
</g>
<!-- R209 -->
<g id="node31" class="node">
<title>R209</title>
<g id="a_node31"><a xlink:href="209.svg" xlink:title="R209">
<polygon fill="cornsilk" stroke="none" points="1758,-1146.02 1664,-1146.02 1664,-1099.02 1758,-1099.02 1758,-1146.02"/>
<text text-anchor="middle" x="1711" y="-1114.02" font-family="Times New Roman,serif" font-size="35.00">R209</text>
</a>
</g>
</g>
<!-- R13&#45;&gt;R209 -->
<g id="edge30" class="edge">
<title>R13&#45;&gt;R209</title>
<path fill="none" stroke="black" d="M879.46,-1610.19C877.91,-1518.84 877.53,-1187.24 952,-1122.52 978.35,-1099.62 1481.9,-1114.69 1653.38,-1120.51"/>
<polygon fill="black" stroke="black" points="1653.07,-1124.04 1663.18,-1120.88 1653.31,-1117.04 1653.07,-1124.04"/>
<text text-anchor="middle" x="1295" y="-1136.52" font-family="Times New Roman,serif" font-size="45.00"> &#160;&#160;349 &#160;&#160;1% &#160;&#160;0.0342 mol/s &#160;&#160;&#160;9.99E&#45;01</text>
</g>
<!-- R258 -->
<g id="node32" class="node">
<title>R258</title>
<g id="a_node32"><a xlink:href="258.svg" xlink:title="R258">
<polygon fill="cornsilk" stroke="none" points="1758,-1073.02 1664,-1073.02 1664,-1026.02 1758,-1026.02 1758,-1073.02"/>
<text text-anchor="middle" x="1711" y="-1041.02" font-family="Times New Roman,serif" font-size="35.00">R258</text>
</a>
</g>
</g>
<!-- R13&#45;&gt;R258 -->
<g id="edge31" class="edge">
<title>R13&#45;&gt;R258</title>
<path fill="none" stroke="black" d="M881.13,-1610.15C886.38,-1506.77 909.84,-1094.09 952,-1056.52 1003.89,-1010.28 1486.32,-1035.59 1653.38,-1045.85"/>
<polygon fill="black" stroke="black" points="1652.95,-1049.39 1663.15,-1046.52 1653.39,-1042.4 1652.95,-1049.39"/>
<text text-anchor="middle" x="1295" y="-1070.52" font-family="Times New Roman,serif" font-size="45.00"> &#160;&#160;350 &#160;&#160;1% &#160;&#160;0.0342 mol/s &#160;&#160;&#160;1.00E+00</text>
</g>
<!-- R262 -->
<g id="node33" class="node">
<title>R262</title>
<g id="a_node33"><a xlink:href="262.svg" xlink:title="R262">
<polygon fill="cornsilk" stroke="none" points="1758,-1000.02 1664,-1000.02 1664,-953.02 1758,-953.02 1758,-1000.02"/>
<text text-anchor="middle" x="1711" y="-968.02" font-family="Times New Roman,serif" font-size="35.00">R262</text>
</a>
</g>
</g>
<!-- R13&#45;&gt;R262 -->
<g id="edge32" class="edge">
<title>R13&#45;&gt;R262</title>
<path fill="none" stroke="black" d="M880.75,-1610.35C884.57,-1498.7 903.73,-1019.79 952,-976.52 977.99,-953.22 1481.78,-968.55 1653.35,-974.48"/>
<polygon fill="black" stroke="black" points="1653.04,-978 1663.16,-974.85 1653.29,-971.01 1653.04,-978"/>
<text text-anchor="middle" x="1295" y="-990.52" font-family="Times New Roman,serif" font-size="45.00"> &#160;&#160;356 &#160;&#160;1% &#160;&#160;0.0342 mol/s &#160;&#160;&#160;1.00E+00</text>
</g>
<!-- R233 -->
<g id="node34" class="node">
<title>R233</title>
<g id="a_node34"><a xlink:href="233.svg" xlink:title="R233">
<polygon fill="cornsilk" stroke="none" points="1758,-927.02 1664,-927.02 1664,-880.02 1758,-880.02 1758,-927.02"/>
<text text-anchor="middle" x="1711" y="-895.02" font-family="Times New Roman,serif" font-size="35.00">R233</text>
</a>
</g>
</g>
<!-- R13&#45;&gt;R233 -->
<g id="edge33" class="edge">
<title>R13&#45;&gt;R233</title>
<path fill="none" stroke="black" d="M880.52,-1610.04C883.38,-1491.11 899.1,-958.86 952,-910.52 1003.31,-863.64 1486.11,-889.36 1653.32,-899.79"/>
<polygon fill="black" stroke="black" points="1652.91,-903.33 1663.11,-900.47 1653.35,-896.35 1652.91,-903.33"/>
<text text-anchor="middle" x="1295" y="-924.52" font-family="Times New Roman,serif" font-size="45.00"> &#160;&#160;357 &#160;&#160;1% &#160;&#160;0.0342 mol/s &#160;&#160;&#160;1.00E+00</text>
</g>
<!-- R234 -->
<g id="node35" class="node">
<title>R234</title>
<g id="a_node35"><a xlink:href="234.svg" xlink:title="R234">
<polygon fill="cornsilk" stroke="none" points="1758,-854.02 1664,-854.02 1664,-807.02 1758,-807.02 1758,-854.02"/>
<text text-anchor="middle" x="1711" y="-822.02" font-family="Times New Roman,serif" font-size="35.00">R234</text>
</a>
</g>
</g>
<!-- R13&#45;&gt;R234 -->
<g id="edge34" class="edge">
<title>R13&#45;&gt;R234</title>
<path fill="none" stroke="black" d="M880.26,-1610.38C881.9,-1484.29 892.79,-883.66 952,-829.52 977.76,-805.96 1481.7,-822.15 1653.33,-828.38"/>
<polygon fill="black" stroke="black" points="1653.02,-831.9 1663.14,-828.77 1653.28,-824.91 1653.02,-831.9"/>
<text text-anchor="middle" x="1295" y="-843.52" font-family="Times New Roman,serif" font-size="45.00"> &#160;&#160;358 &#160;&#160;1% &#160;&#160;0.0342 mol/s &#160;&#160;&#160;1.00E+00</text>
</g>
<!-- R263 -->
<g id="node36" class="node">
<title>R263</title>
<g id="a_node36"><a xlink:href="263.svg" xlink:title="R263">
<polygon fill="cornsilk" stroke="none" points="1758,-781.02 1664,-781.02 1664,-734.02 1758,-734.02 1758,-781.02"/>
<text text-anchor="middle" x="1711" y="-749.02" font-family="Times New Roman,serif" font-size="35.00">R263</text>
</a>
</g>
</g>
<!-- R13&#45;&gt;R263 -->
<g id="edge35" class="edge">
<title>R13&#45;&gt;R263</title>
<path fill="none" stroke="black" d="M880.1,-1610.26C880.91,-1477.82 888.12,-822.8 952,-763.52 1002.95,-716.24 1485.99,-742.91 1653.29,-753.67"/>
<polygon fill="black" stroke="black" points="1652.87,-757.22 1663.08,-754.37 1653.33,-750.23 1652.87,-757.22"/>
<text text-anchor="middle" x="1295" y="-777.52" font-family="Times New Roman,serif" font-size="45.00"> &#160;&#160;359 &#160;&#160;1% &#160;&#160;0.0342 mol/s &#160;&#160;&#160;1.00E+00</text>
</g>
<!-- R264 -->
<g id="node37" class="node">
<title>R264</title>
<g id="a_node37"><a xlink:href="264.svg" xlink:title="R264">
<polygon fill="cornsilk" stroke="none" points="1758,-708.02 1664,-708.02 1664,-661.02 1758,-661.02 1758,-708.02"/>
<text text-anchor="middle" x="1711" y="-676.02" font-family="Times New Roman,serif" font-size="35.00">R264</text>
</a>
</g>
</g>
<!-- R13&#45;&gt;R264 -->
<g id="edge36" class="edge">
<title>R13&#45;&gt;R264</title>
<path fill="none" stroke="black" d="M879.92,-1610.4C879.68,-1471.11 881.8,-747.6 952,-682.52 977.6,-658.79 1481.64,-675.78 1653.31,-682.28"/>
<polygon fill="black" stroke="black" points="1653,-685.81 1663.13,-682.7 1653.27,-678.82 1653,-685.81"/>
<text text-anchor="middle" x="1295" y="-696.52" font-family="Times New Roman,serif" font-size="45.00"> &#160;&#160;360 &#160;&#160;1% &#160;&#160;0.0342 mol/s &#160;&#160;&#160;1.00E+00</text>
</g>
<!-- R267 -->
<g id="node39" class="node">
<title>R267</title>
<g id="a_node39"><a xlink:href="267.svg" xlink:title="R267">
<polygon fill="cornsilk" stroke="none" points="1758,-635.02 1664,-635.02 1664,-588.02 1758,-588.02 1758,-635.02"/>
<text text-anchor="middle" x="1711" y="-603.02" font-family="Times New Roman,serif" font-size="35.00">R267</text>
</a>
</g>
</g>
<!-- R13&#45;&gt;R267 -->
<g id="edge37" class="edge">
<title>R13&#45;&gt;R267</title>
<path fill="none" stroke="black" d="M879.81,-1610.23C878.83,-1464.94 877.12,-686.75 952,-616.52 1002.69,-568.97 1485.9,-596.49 1653.27,-607.57"/>
<polygon fill="black" stroke="black" points="1652.85,-611.11 1663.06,-608.29 1653.32,-604.13 1652.85,-611.11"/>
<text text-anchor="middle" x="1295" y="-630.52" font-family="Times New Roman,serif" font-size="45.00"> &#160;&#160;363 &#160;&#160;1% &#160;&#160;0.0342 mol/s &#160;&#160;&#160;1.00E+00</text>
</g>
<!-- R269 -->
<g id="node40" class="node">
<title>R269</title>
<g id="a_node40"><a xlink:href="269.svg" xlink:title="R269">
<polygon fill="cornsilk" stroke="none" points="1758,-562.02 1664,-562.02 1664,-515.02 1758,-515.02 1758,-562.02"/>
<text text-anchor="middle" x="1711" y="-530.02" font-family="Times New Roman,serif" font-size="35.00">R269</text>
</a>
</g>
</g>
<!-- R13&#45;&gt;R269 -->
<g id="edge38" class="edge">
<title>R13&#45;&gt;R269</title>
<path fill="none" stroke="black" d="M880.63,-1610.47C884.95,-1455.86 911.34,-574.6 952,-536.52 977.48,-512.66 1481.6,-529.73 1653.3,-536.27"/>
<polygon fill="black" stroke="black" points="1652.99,-539.8 1663.12,-536.69 1653.26,-532.81 1652.99,-539.8"/>
<text text-anchor="middle" x="1295" y="-550.52" font-family="Times New Roman,serif" font-size="45.00"> &#160;&#160;365 &#160;&#160;1% &#160;&#160;0.0342 mol/s &#160;&#160;&#160;9.99E&#45;01</text>
</g>
<!-- R273 -->
<g id="node41" class="node">
<title>R273</title>
<g id="a_node41"><a xlink:href="273.svg" xlink:title="R273">
<polygon fill="cornsilk" stroke="none" points="1758,-489.02 1664,-489.02 1664,-442.02 1758,-442.02 1758,-489.02"/>
<text text-anchor="middle" x="1711" y="-457.02" font-family="Times New Roman,serif" font-size="35.00">R273</text>
</a>
</g>
</g>
<!-- R13&#45;&gt;R273 -->
<g id="edge39" class="edge">
<title>R13&#45;&gt;R273</title>
<path fill="none" stroke="black" d="M880.55,-1610.13C884.46,-1449.21 909.02,-511.19 952,-470.52 977.36,-446.53 1481.56,-458.88 1653.29,-463.8"/>
<polygon fill="black" stroke="black" points="1653.02,-467.33 1663.11,-464.12 1653.22,-460.33 1653.02,-467.33"/>
<text text-anchor="middle" x="1295" y="-484.52" font-family="Times New Roman,serif" font-size="45.00"> &#160;&#160;369 &#160;&#160;1% &#160;&#160;0.0342 mol/s &#160;&#160;&#160;1.00E+00</text>
</g>
<!-- R315 -->
<g id="node42" class="node">
<title>R315</title>
<g id="a_node42"><a xlink:href="315.svg" xlink:title="R315">
<polygon fill="cornsilk" stroke="none" points="1758,-416.02 1664,-416.02 1664,-369.02 1758,-369.02 1758,-416.02"/>
<text text-anchor="middle" x="1711" y="-384.02" font-family="Times New Roman,serif" font-size="35.00">R315</text>
</a>
</g>
</g>
<!-- R13&#45;&gt;R315 -->
<g id="edge40" class="edge">
<title>R13&#45;&gt;R315</title>
<path fill="none" stroke="black" d="M880.47,-1610.12C883.94,-1443.78 906.61,-445.9 952,-402.52 1002.25,-354.5 1485.74,-378.92 1653.23,-388.93"/>
<polygon fill="black" stroke="black" points="1652.84,-392.47 1663.03,-389.58 1653.26,-385.48 1652.84,-392.47"/>
<text text-anchor="middle" x="1295" y="-416.52" font-family="Times New Roman,serif" font-size="45.00"> &#160;&#160;628 &#160;&#160;1% &#160;&#160;0.0342 mol/s &#160;&#160;&#160;1.00E+00</text>
</g>
<!-- R373 -->
<g id="node43" class="node">
<title>R373</title>
<g id="a_node43"><a xlink:href="373.svg" xlink:title="R373">
<polygon fill="cornsilk" stroke="none" points="1758,-343.02 1664,-343.02 1664,-296.02 1758,-296.02 1758,-343.02"/>
<text text-anchor="middle" x="1711" y="-311.02" font-family="Times New Roman,serif" font-size="35.00">R373</text>
</a>
</g>
</g>
<!-- R13&#45;&gt;R373 -->
<g id="edge41" class="edge">
<title>R13&#45;&gt;R373</title>
<path fill="none" stroke="black" d="M880.38,-1610.23C883.28,-1437.92 903.25,-366.73 952,-320.52 977.34,-296.51 1481.55,-311.62 1653.29,-317.49"/>
<polygon fill="black" stroke="black" points="1653,-321.02 1663.11,-317.86 1653.24,-314.02 1653,-321.02"/>
<text text-anchor="middle" x="1295" y="-334.52" font-family="Times New Roman,serif" font-size="45.00"> &#160;&#160;630 &#160;&#160;1% &#160;&#160;0.0342 mol/s &#160;&#160;&#160;1.00E+00</text>
</g>
<!-- R374 -->
<g id="node44" class="node">
<title>R374</title>
<g id="a_node44"><a xlink:href="374.svg" xlink:title="R374">
<polygon fill="cornsilk" stroke="none" points="1758,-270.02 1664,-270.02 1664,-223.02 1758,-223.02 1758,-270.02"/>
<text text-anchor="middle" x="1711" y="-238.02" font-family="Times New Roman,serif" font-size="35.00">R374</text>
</a>
</g>
</g>
<!-- R13&#45;&gt;R374 -->
<g id="edge42" class="edge">
<title>R13&#45;&gt;R374</title>
<path fill="none" stroke="black" d="M880.32,-1610.18C882.84,-1432.77 900.92,-302.45 952,-253.52 1002.19,-205.44 1485.72,-231.95 1653.22,-242.68"/>
<polygon fill="black" stroke="black" points="1652.82,-246.23 1663.02,-243.38 1653.27,-239.24 1652.82,-246.23"/>
<text text-anchor="middle" x="1295" y="-267.52" font-family="Times New Roman,serif" font-size="45.00"> &#160;&#160;632 &#160;&#160;1% &#160;&#160;0.0342 mol/s &#160;&#160;&#160;1.00E+00</text>
</g>
<!-- R317 -->
<g id="node45" class="node">
<title>R317</title>
<g id="a_node45"><a xlink:href="317.svg" xlink:title="R317">
<polygon fill="cornsilk" stroke="none" points="1758,-197.02 1664,-197.02 1664,-150.02 1758,-150.02 1758,-197.02"/>
<text text-anchor="middle" x="1711" y="-165.02" font-family="Times New Roman,serif" font-size="35.00">R317</text>
</a>
</g>
</g>
<!-- R13&#45;&gt;R317 -->
<g id="edge43" class="edge">
<title>R13&#45;&gt;R317</title>
<path fill="none" stroke="black" d="M880.24,-1610.28C882.27,-1427.31 897.62,-224.28 952,-172.52 977.28,-148.45 1481.54,-164.97 1653.28,-171.33"/>
<polygon fill="black" stroke="black" points="1652.98,-174.86 1663.11,-171.73 1653.24,-167.86 1652.98,-174.86"/>
<text text-anchor="middle" x="1295" y="-186.52" font-family="Times New Roman,serif" font-size="45.00"> &#160;&#160;635 &#160;&#160;1% &#160;&#160;0.0342 mol/s &#160;&#160;&#160;1.00E+00</text>
</g>
<!-- R313 -->
<g id="node46" class="node">
<title>R313</title>
<g id="a_node46"><a xlink:href="313.svg" xlink:title="R313">
<polygon fill="cornsilk" stroke="none" points="1758,-124.02 1664,-124.02 1664,-77.02 1758,-77.02 1758,-124.02"/>
<text text-anchor="middle" x="1711" y="-92.02" font-family="Times New Roman,serif" font-size="35.00">R313</text>
</a>
</g>
</g>
<!-- R13&#45;&gt;R313 -->
<g id="edge44" class="edge">
<title>R13&#45;&gt;R313</title>
<path fill="none" stroke="black" d="M880.2,-1610.14C881.89,-1422.03 895.36,-160.99 952,-106.52 1002.1,-58.35 1485.69,-85.59 1653.21,-96.59"/>
<polygon fill="black" stroke="black" points="1652.81,-100.14 1663.02,-97.31 1653.27,-93.15 1652.81,-100.14"/>
<text text-anchor="middle" x="1295" y="-120.52" font-family="Times New Roman,serif" font-size="45.00"> &#160;&#160;636 &#160;&#160;1% &#160;&#160;0.0342 mol/s &#160;&#160;&#160;1.00E+00</text>
</g>
<!-- R376 -->
<g id="node47" class="node">
<title>R376</title>
<g id="a_node47"><a xlink:href="376.svg" xlink:title="R376">
<polygon fill="cornsilk" stroke="none" points="1758,-51.02 1664,-51.02 1664,-4.02 1758,-4.02 1758,-51.02"/>
<text text-anchor="middle" x="1711" y="-19.02" font-family="Times New Roman,serif" font-size="35.00">R376</text>
</a>
</g>
</g>
<!-- R13&#45;&gt;R376 -->
<g id="edge45" class="edge">
<title>R13&#45;&gt;R376</title>
<path fill="none" stroke="black" d="M880.14,-1610.14C881.38,-1416.39 892.07,-82.83 952,-25.52 1002.23,22.51 1485.74,-10.09 1653.23,-22.96"/>
<polygon fill="black" stroke="black" points="1652.79,-26.51 1663.03,-23.79 1653.33,-19.53 1652.79,-26.51"/>
<text text-anchor="middle" x="1295" y="-39.52" font-family="Times New Roman,serif" font-size="45.00"> &#160;&#160;637 &#160;&#160;1% &#160;&#160;0.0342 mol/s &#160;&#160;&#160;1.00E+00</text>
</g>
<!-- R265 -->
<g id="node38" class="node">
<title>R265</title>
<g id="a_node38"><a xlink:href="265.svg" xlink:title="R265">
<polygon fill="cornsilk" stroke="none" points="94,-1657.02 0,-1657.02 0,-1610.02 94,-1610.02 94,-1657.02"/>
<text text-anchor="middle" x="47" y="-1625.02" font-family="Times New Roman,serif" font-size="35.00">R265</text>
</a>
</g>
</g>
<!-- R265&#45;&gt;R13 -->
<g id="edge46" class="edge">
<title>R265&#45;&gt;R13</title>
<path fill="none" stroke="black" stroke-width="3" d="M93.81,-1633.52C238.22,-1633.52 683.08,-1633.52 830.21,-1633.52"/>
<polygon fill="black" stroke="black" stroke-width="3" points="827.09,-1637.02 837.09,-1633.52 827.09,-1630.02 827.09,-1637.02"/>
<text text-anchor="middle" x="463" y="-1647.52" font-family="Times New Roman,serif" font-size="45.00"> &#160;&#160;361 &#160;&#160;47% &#160;&#160;55700.0 mol/s &#160;&#160;&#160;6.14E&#45;07</text>
</g>
</g>
</svg>
