<?xml version="1.0" encoding="UTF-8" standalone="no"?>
<!DOCTYPE svg PUBLIC "-//W3C//DTD SVG 1.1//EN"
 "http://www.w3.org/Graphics/SVG/1.1/DTD/svg11.dtd">
<!-- Generated by graphviz version 8.0.3 (20230416.2022)
 -->
<!-- Title: G Pages: 1 -->
<svg width="640pt" height="92pt"
 viewBox="0.00 0.00 720.00 104.01" xmlns="http://www.w3.org/2000/svg" xmlns:xlink="http://www.w3.org/1999/xlink">
<g id="graph0" class="graph" transform="scale(0.378139 0.378139) rotate(0) translate(4 240.5)">
<title>G</title>
<polygon fill="white" stroke="none" points="-4,4 -4,-240.5 1688.5,-240.5 1688.5,4 -4,4"/>
<text text-anchor="middle" x="842.25" y="-203.7" font-family="Arial" font-size="36.00" fill="blue">Reaction Path Analysis</text>
<!-- CH3CH2OH(S) -->
<g id="node1" class="node">
<title>CH3CH2OH(S)</title>
<g id="a_node1"><a xlink:href="14.svg" xlink:title="CH3CH2OH(S)">
<polygon fill="dodgerblue" stroke="none" points="952.5,-112 710.5,-112 710.5,-65 952.5,-65 952.5,-112"/>
<text text-anchor="middle" x="831.5" y="-80" font-family="Times New Roman,serif" font-size="35.00">CH3CH2OH(S)</text>
</a>
</g>
</g>
<!-- CH3CHOH(S) -->
<g id="node3" class="node">
<title>CH3CHOH(S)</title>
<g id="a_node3"><a xlink:href="15.svg" xlink:title="CH3CHOH(S)">
<polygon fill="dodgerblue" stroke="none" points="1675.5,-177 1451.5,-177 1451.5,-130 1675.5,-130 1675.5,-177"/>
<text text-anchor="middle" x="1563.5" y="-145" font-family="Times New Roman,serif" font-size="35.00">CH3CHOH(S)</text>
</a>
</g>
</g>
<!-- CH3CH2OH(S)&#45;&gt;CH3CHOH(S) -->
<g id="edge2" class="edge">
<title>CH3CH2OH(S)&#45;&gt;CH3CHOH(S)</title>
<path fill="none" stroke="black" stroke-width="5" d="M903.13,-111.96C921.91,-117.31 942.3,-122.34 961.5,-125.5 1121.49,-151.8 1308.42,-156.5 1430.8,-156.13"/>
<polygon fill="black" stroke="black" stroke-width="5" points="1425.8,-164.87 1445.75,-156.01 1425.71,-147.37 1425.8,-164.87"/>
<text text-anchor="middle" x="1197.5" y="-164.5" font-family="Times New Roman,serif" font-size="30.00"> &#160;&#160;15 &#160;&#160;87% &#160;&#160;4.77e&#45;06 mol/s &#160;&#160;&#160;9.99E&#45;01</text>
</g>
<!-- CH2CH2OH(S) -->
<g id="node4" class="node">
<title>CH2CH2OH(S)</title>
<g id="a_node4"><a xlink:href="17.svg" xlink:title="CH2CH2OH(S)">
<polygon fill="purple" stroke="none" points="1684.5,-112 1442.5,-112 1442.5,-65 1684.5,-65 1684.5,-112"/>
<text text-anchor="middle" x="1563.5" y="-80" font-family="Times New Roman,serif" font-size="35.00">CH2CH2OH(S)</text>
</a>
</g>
</g>
<!-- CH3CH2OH(S)&#45;&gt;CH2CH2OH(S) -->
<g id="edge3" class="edge">
<title>CH3CH2OH(S)&#45;&gt;CH2CH2OH(S)</title>
<path fill="none" stroke="black" d="M952.23,-88.5C1084.16,-88.5 1295.66,-88.5 1431.81,-88.5"/>
<polygon fill="black" stroke="black" points="1431.71,-92 1441.71,-88.5 1431.71,-85 1431.71,-92"/>
<text text-anchor="middle" x="1197.5" y="-97.5" font-family="Times New Roman,serif" font-size="30.00"> &#160;&#160;37 &#160;&#160;0% &#160;&#160;2.54e&#45;09 mol/s &#160;&#160;&#160;9.99E&#45;01</text>
</g>
<!-- CH3CH2O(S) -->
<g id="node5" class="node">
<title>CH3CH2O(S)</title>
<g id="a_node5"><a xlink:href="26.svg" xlink:title="CH3CH2O(S)">
<polygon fill="purple" stroke="none" points="1672.5,-47 1454.5,-47 1454.5,0 1672.5,0 1672.5,-47"/>
<text text-anchor="middle" x="1563.5" y="-15" font-family="Times New Roman,serif" font-size="35.00">CH3CH2O(S)</text>
</a>
</g>
</g>
<!-- CH3CH2OH(S)&#45;&gt;CH3CH2O(S) -->
<g id="edge4" class="edge">
<title>CH3CH2OH(S)&#45;&gt;CH3CH2O(S)</title>
<path fill="none" stroke="black" d="M903.13,-65.04C921.91,-59.69 942.3,-54.66 961.5,-51.5 1127.21,-24.26 1321.82,-20.19 1443.67,-20.93"/>
<polygon fill="black" stroke="black" points="1443.48,-24.44 1453.51,-21.01 1443.53,-17.44 1443.48,-24.44"/>
<text text-anchor="middle" x="1197.5" y="-60.5" font-family="Times New Roman,serif" font-size="30.00"> &#160;&#160;69 &#160;&#160;12% &#160;&#160;7.05e&#45;07 mol/s &#160;&#160;&#160;9.45E&#45;01</text>
</g>
<!-- CH3CH2OH -->
<g id="node2" class="node">
<title>CH3CH2OH</title>
<g id="a_node2"><a xlink:href="0.svg" xlink:title="CH3CH2OH">
<polygon fill="none" stroke="none" points="199,-112 0,-112 0,-65 199,-65 199,-112"/>
<text text-anchor="middle" x="99.5" y="-80" font-family="Times New Roman,serif" font-size="35.00">CH3CH2OH</text>
</a>
</g>
</g>
<!-- CH3CH2OH&#45;&gt;CH3CH2OH(S) -->
<g id="edge1" class="edge">
<title>CH3CH2OH&#45;&gt;CH3CH2OH(S)</title>
<path fill="none" stroke="green" stroke-width="6" d="M198.95,-88.5C325.44,-88.5 545.83,-88.5 689.94,-88.5"/>
<polygon fill="green" stroke="green" stroke-width="6" points="684.63,-99 704.63,-88.5 684.63,-78 684.63,-99"/>
<text text-anchor="middle" x="465.5" y="-97.5" font-family="Times New Roman,serif" font-size="30.00"> &#160;&#160;2 &#160;&#160;100% &#160;&#160;5.48e&#45;06 mol/s &#160;&#160;&#160;5.00E&#45;01</text>
</g>
</g>
</svg>
