<?xml version="1.0" encoding="UTF-8" standalone="no"?>
<!DOCTYPE svg PUBLIC "-//W3C//DTD SVG 1.1//EN"
 "http://www.w3.org/Graphics/SVG/1.1/DTD/svg11.dtd">
<!-- Generated by graphviz version 8.0.3 (20230416.2022)
 -->
<!-- Title: G Pages: 1 -->
<svg width="640pt" height="64pt"
 viewBox="0.00 0.00 720.00 72.50" xmlns="http://www.w3.org/2000/svg" xmlns:xlink="http://www.w3.org/1999/xlink">
<g id="graph0" class="graph" transform="scale(0.371445 0.371445) rotate(0) translate(4 169.5)">
<title>G</title>
<polygon fill="white" stroke="none" points="-4,4 -4,-169.5 1719,-169.5 1719,4 -4,4"/>
<text text-anchor="middle" x="857.5" y="-132.7" font-family="Arial" font-size="36.00" fill="blue">Reaction Path Analysis</text>
<!-- CH3CHOH(S) -->
<g id="node1" class="node">
<title>CH3CHOH(S)</title>
<g id="a_node1"><a xlink:href="15.svg" xlink:title="CH3CHOH(S)">
<polygon fill="dodgerblue" stroke="none" points="980,-79 756,-79 756,-32 980,-32 980,-79"/>
<text text-anchor="middle" x="868" y="-47" font-family="Times New Roman,serif" font-size="35.00">CH3CHOH(S)</text>
</a>
</g>
</g>
<!-- CH3COH(S) -->
<g id="node3" class="node">
<title>CH3COH(S)</title>
<g id="a_node3"><a xlink:href="16.svg" xlink:title="CH3COH(S)">
<polygon fill="springgreen" stroke="none" points="1715,-112 1515,-112 1515,-65 1715,-65 1715,-112"/>
<text text-anchor="middle" x="1615" y="-80" font-family="Times New Roman,serif" font-size="35.00">CH3COH(S)</text>
</a>
</g>
</g>
<!-- CH3CHOH(S)&#45;&gt;CH3COH(S) -->
<g id="edge2" class="edge">
<title>CH3CHOH(S)&#45;&gt;CH3COH(S)</title>
<path fill="none" stroke="black" stroke-width="5" d="M979.97,-64.86C988.61,-65.46 997.19,-66.02 1005.5,-66.5 1175.04,-76.39 1371.43,-82.53 1494.21,-85.73"/>
<polygon fill="black" stroke="black" stroke-width="5" points="1488.91,-94.51 1509.13,-86.27 1489.36,-77.01 1488.91,-94.51"/>
<text text-anchor="middle" x="1241.5" y="-93.5" font-family="Times New Roman,serif" font-size="30.00"> &#160;&#160;16 &#160;&#160;96% &#160;&#160;4.62e&#45;06 mol/s &#160;&#160;&#160;5.57E&#45;01</text>
</g>
<!-- CH3CHO(S) -->
<g id="node4" class="node">
<title>CH3CHO(S)</title>
<g id="a_node4"><a xlink:href="27.svg" xlink:title="CH3CHO(S)">
<polygon fill="dodgerblue" stroke="none" points="1715,-47 1515,-47 1515,0 1715,0 1715,-47"/>
<text text-anchor="middle" x="1615" y="-15" font-family="Times New Roman,serif" font-size="35.00">CH3CHO(S)</text>
</a>
</g>
</g>
<!-- CH3CHOH(S)&#45;&gt;CH3CHO(S) -->
<g id="edge3" class="edge">
<title>CH3CHOH(S)&#45;&gt;CH3CHO(S)</title>
<path fill="none" stroke="black" d="M979.83,-36.27C988.5,-35.19 997.13,-34.24 1005.5,-33.5 1179.43,-18.13 1382.39,-18.44 1504.41,-20.59"/>
<polygon fill="black" stroke="black" points="1504.17,-24.1 1514.23,-20.79 1504.3,-17.1 1504.17,-24.1"/>
<text text-anchor="middle" x="1241.5" y="-42.5" font-family="Times New Roman,serif" font-size="30.00"> &#160;&#160;70 &#160;&#160;3% &#160;&#160;1.53e&#45;07 mol/s &#160;&#160;&#160;5.55E&#45;01</text>
</g>
<!-- CH3CH2OH(S) -->
<g id="node2" class="node">
<title>CH3CH2OH(S)</title>
<g id="a_node2"><a xlink:href="14.svg" xlink:title="CH3CH2OH(S)">
<polygon fill="dodgerblue" stroke="none" points="242,-79 0,-79 0,-32 242,-32 242,-79"/>
<text text-anchor="middle" x="121" y="-47" font-family="Times New Roman,serif" font-size="35.00">CH3CH2OH(S)</text>
</a>
</g>
</g>
<!-- CH3CH2OH(S)&#45;&gt;CH3CHOH(S) -->
<g id="edge1" class="edge">
<title>CH3CH2OH(S)&#45;&gt;CH3CHOH(S)</title>
<path fill="none" stroke="black" stroke-width="6" d="M241.7,-55.5C376.67,-55.5 595.5,-55.5 735.24,-55.5"/>
<polygon fill="black" stroke="black" stroke-width="6" points="730.11,-66 750.11,-55.5 730.11,-45 730.11,-66"/>
<text text-anchor="middle" x="494.5" y="-64.5" font-family="Times New Roman,serif" font-size="30.00"> &#160;&#160;15 &#160;&#160;100% &#160;&#160;4.77e&#45;06 mol/s &#160;&#160;&#160;9.99E&#45;01</text>
</g>
</g>
</svg>
