<?xml version="1.0" encoding="UTF-8" standalone="no"?>
<!DOCTYPE svg PUBLIC "-//W3C//DTD SVG 1.1//EN"
 "http://www.w3.org/Graphics/SVG/1.1/DTD/svg11.dtd">
<!-- Generated by graphviz version 8.0.3 (20230416.2022)
 -->
<!-- Title: G Pages: 1 -->
<svg width="640pt" height="42pt"
 viewBox="0.00 0.00 720.00 47.51" xmlns="http://www.w3.org/2000/svg" xmlns:xlink="http://www.w3.org/1999/xlink">
<g id="graph0" class="graph" transform="scale(0.375367 0.375367) rotate(0) translate(4 108.5)">
<title>G</title>
<polygon fill="white" stroke="none" points="-4,4 -4,-108.5 1701,-108.5 1701,4 -4,4"/>
<text text-anchor="middle" x="848.5" y="-71.7" font-family="Arial" font-size="36.00" fill="blue">Reaction Path Analysis</text>
<!-- CH2CH2OH(S) -->
<g id="node1" class="node">
<title>CH2CH2OH(S)</title>
<g id="a_node1"><a xlink:href="17.svg" xlink:title="CH2CH2OH(S)">
<polygon fill="purple" stroke="none" points="974,-47 732,-47 732,0 974,0 974,-47"/>
<text text-anchor="middle" x="853" y="-15" font-family="Times New Roman,serif" font-size="35.00">CH2CH2OH(S)</text>
</a>
</g>
</g>
<!-- CH2CHOH(S) -->
<g id="node2" class="node">
<title>CH2CHOH(S)</title>
<g id="a_node2"><a xlink:href="18.svg" xlink:title="CH2CHOH(S)">
<polygon fill="dodgerblue" stroke="none" points="1697,-47 1473,-47 1473,0 1697,0 1697,-47"/>
<text text-anchor="middle" x="1585" y="-15" font-family="Times New Roman,serif" font-size="35.00">CH2CHOH(S)</text>
</a>
</g>
</g>
<!-- CH2CH2OH(S)&#45;&gt;CH2CHOH(S) -->
<g id="edge1" class="edge">
<title>CH2CH2OH(S)&#45;&gt;CH2CHOH(S)</title>
<path fill="none" stroke="black" stroke-width="5" d="M973.73,-23.5C1105.37,-23.5 1316.22,-23.5 1452.41,-23.5"/>
<polygon fill="black" stroke="black" stroke-width="5" points="1447.18,-32.25 1467.18,-23.5 1447.18,-14.75 1447.18,-32.25"/>
<text text-anchor="middle" x="1219" y="-32.5" font-family="Times New Roman,serif" font-size="30.00"> &#160;&#160;17 &#160;&#160;99% &#160;&#160;2.54e&#45;09 mol/s &#160;&#160;&#160;7.68E&#45;01</text>
</g>
<!-- CH3CH2OH(S) -->
<g id="node3" class="node">
<title>CH3CH2OH(S)</title>
<g id="a_node3"><a xlink:href="14.svg" xlink:title="CH3CH2OH(S)">
<polygon fill="dodgerblue" stroke="none" points="242,-47 0,-47 0,0 242,0 242,-47"/>
<text text-anchor="middle" x="121" y="-15" font-family="Times New Roman,serif" font-size="35.00">CH3CH2OH(S)</text>
</a>
</g>
</g>
<!-- CH3CH2OH(S)&#45;&gt;CH2CH2OH(S) -->
<g id="edge2" class="edge">
<title>CH3CH2OH(S)&#45;&gt;CH2CH2OH(S)</title>
<path fill="none" stroke="black" stroke-width="5" d="M241.73,-23.5C370.48,-23.5 575.03,-23.5 711.35,-23.5"/>
<polygon fill="black" stroke="black" stroke-width="5" points="706.21,-32.25 726.21,-23.5 706.21,-14.75 706.21,-32.25"/>
<text text-anchor="middle" x="487" y="-32.5" font-family="Times New Roman,serif" font-size="30.00"> &#160;&#160;37 &#160;&#160;99% &#160;&#160;2.54e&#45;09 mol/s &#160;&#160;&#160;9.99E&#45;01</text>
</g>
</g>
</svg>
