<?xml version="1.0" encoding="UTF-8" standalone="no"?>
<!DOCTYPE svg PUBLIC "-//W3C//DTD SVG 1.1//EN"
 "http://www.w3.org/Graphics/SVG/1.1/DTD/svg11.dtd">
<!-- Generated by graphviz version 8.0.3 (20230416.2022)
 -->
<!-- Title: G Pages: 1 -->
<svg width="640pt" height="100pt"
 viewBox="0.00 0.00 720.00 112.65" xmlns="http://www.w3.org/2000/svg" xmlns:xlink="http://www.w3.org/1999/xlink">
<g id="graph0" class="graph" transform="scale(0.40622 0.40622) rotate(0) translate(4 242.5)">
<title>G</title>
<polygon fill="white" stroke="none" points="-4,4 -4,-242.5 1571.5,-242.5 1571.5,4 -4,4"/>
<text text-anchor="middle" x="783.75" y="-205.7" font-family="Arial" font-size="36.00" fill="blue">Reaction Path Analysis</text>
<!-- CH3CO(S) -->
<g id="node1" class="node">
<title>CH3CO(S)</title>
<g id="a_node1"><a xlink:href="28.svg" xlink:title="CH3CO(S)">
<polygon fill="springgreen" stroke="none" points="877.5,-112 702.5,-112 702.5,-65 877.5,-65 877.5,-112"/>
<text text-anchor="middle" x="790" y="-80" font-family="Times New Roman,serif" font-size="35.00">CH3CO(S)</text>
</a>
</g>
</g>
<!-- CH2CO(S) -->
<g id="node3" class="node">
<title>CH2CO(S)</title>
<g id="a_node3"><a xlink:href="31.svg" xlink:title="CH2CO(S)">
<polygon fill="springgreen" stroke="none" points="1567.5,-177 1392.5,-177 1392.5,-130 1567.5,-130 1567.5,-177"/>
<text text-anchor="middle" x="1480" y="-145" font-family="Times New Roman,serif" font-size="35.00">CH2CO(S)</text>
</a>
</g>
</g>
<!-- CH3CO(S)&#45;&gt;CH2CO(S) -->
<g id="edge2" class="edge">
<title>CH3CO(S)&#45;&gt;CH2CO(S)</title>
<path fill="none" stroke="green" stroke-width="5" d="M849.6,-111.92C865.4,-117.31 882.65,-122.37 899,-125.5 1061.66,-156.64 1254.39,-159.34 1371.62,-157.28"/>
<polygon fill="green" stroke="green" stroke-width="5" points="1366.8,-166.01 1386.61,-156.85 1366.43,-148.52 1366.8,-166.01"/>
<text text-anchor="middle" x="1135" y="-166.5" font-family="Times New Roman,serif" font-size="30.00"> &#160;&#160;48 &#160;&#160;98% &#160;&#160;1.47e&#45;06 mol/s &#160;&#160;&#160;5.43E&#45;01</text>
</g>
<!-- CH3(S) -->
<g id="node5" class="node">
<title>CH3(S)</title>
<g id="a_node5"><a xlink:href="55.svg" xlink:title="CH3(S)">
<polygon fill="dodgerblue" stroke="none" points="1543,-112 1417,-112 1417,-65 1543,-65 1543,-112"/>
<text text-anchor="middle" x="1480" y="-80" font-family="Times New Roman,serif" font-size="35.00">CH3(S)</text>
</a>
</g>
</g>
<!-- CH3CO(S)&#45;&gt;CH3(S) -->
<g id="edge4" class="edge">
<title>CH3CO(S)&#45;&gt;CH3(S)</title>
<path fill="none" stroke="black" d="M877.44,-88.5C1014.38,-88.5 1278.74,-88.5 1406.45,-88.5"/>
<polygon fill="black" stroke="black" points="1406.26,-92 1416.26,-88.5 1406.26,-85 1406.26,-92"/>
<text text-anchor="middle" x="1135" y="-97.5" font-family="Times New Roman,serif" font-size="30.00"> &#160;&#160;99 &#160;&#160;1% &#160;&#160;1.58e&#45;08 mol/s &#160;&#160;&#160;1.00E+00</text>
</g>
<!-- CO(S) -->
<g id="node6" class="node">
<title>CO(S)</title>
<g id="a_node6"><a xlink:href="54.svg" xlink:title="CO(S)">
<polygon fill="orange" stroke="none" points="1534.5,-47 1425.5,-47 1425.5,0 1534.5,0 1534.5,-47"/>
<text text-anchor="middle" x="1480" y="-15" font-family="Times New Roman,serif" font-size="35.00">CO(S)</text>
</a>
</g>
</g>
<!-- CH3CO(S)&#45;&gt;CO(S) -->
<g id="edge5" class="edge">
<title>CH3CO(S)&#45;&gt;CO(S)</title>
<path fill="none" stroke="black" d="M849.6,-65.08C865.4,-59.69 882.65,-54.63 899,-51.5 1083.75,-16.13 1307.31,-17.45 1414.96,-20.76"/>
<polygon fill="black" stroke="black" points="1414.52,-24.28 1424.63,-21.11 1414.75,-17.28 1414.52,-24.28"/>
<text text-anchor="middle" x="1135" y="-60.5" font-family="Times New Roman,serif" font-size="30.00"> &#160;&#160;99 &#160;&#160;1% &#160;&#160;1.58e&#45;08 mol/s &#160;&#160;&#160;1.00E+00</text>
</g>
<!-- CH3CHO(S) -->
<g id="node2" class="node">
<title>CH3CHO(S)</title>
<g id="a_node2"><a xlink:href="27.svg" xlink:title="CH3CHO(S)">
<polygon fill="dodgerblue" stroke="none" points="200,-145 0,-145 0,-98 200,-98 200,-145"/>
<text text-anchor="middle" x="100" y="-113" font-family="Times New Roman,serif" font-size="35.00">CH3CHO(S)</text>
</a>
</g>
</g>
<!-- CH3CHO(S)&#45;&gt;CH3CO(S) -->
<g id="edge1" class="edge">
<title>CH3CHO(S)&#45;&gt;CH3CO(S)</title>
<path fill="none" stroke="green" stroke-width="3" d="M199.88,-119.66C315.4,-117.07 512.25,-111.28 681,-99.5 684.53,-99.25 688.11,-98.98 691.74,-98.7"/>
<polygon fill="green" stroke="green" stroke-width="3" points="689.01,-102.1 698.68,-97.79 688.43,-95.13 689.01,-102.1"/>
<text text-anchor="middle" x="445" y="-127.5" font-family="Times New Roman,serif" font-size="30.00"> &#160;&#160;24 &#160;&#160;56% &#160;&#160;8.41e&#45;07 mol/s &#160;&#160;&#160;5.02E&#45;01</text>
</g>
<!-- CH3COH(S) -->
<g id="node4" class="node">
<title>CH3COH(S)</title>
<g id="a_node4"><a xlink:href="16.svg" xlink:title="CH3COH(S)">
<polygon fill="springgreen" stroke="none" points="200,-80 0,-80 0,-33 200,-33 200,-80"/>
<text text-anchor="middle" x="100" y="-48" font-family="Times New Roman,serif" font-size="35.00">CH3COH(S)</text>
</a>
</g>
</g>
<!-- CH3COH(S)&#45;&gt;CH3CO(S) -->
<g id="edge3" class="edge">
<title>CH3COH(S)&#45;&gt;CH3CO(S)</title>
<path fill="none" stroke="green" stroke-width="3" d="M199.87,-52.7C315.59,-49.53 512.81,-48.08 681,-66.5 684.52,-66.89 688.09,-67.33 691.7,-67.82"/>
<polygon fill="green" stroke="green" stroke-width="3" points="688.16,-71.43 698.57,-69.44 689.19,-64.51 688.16,-71.43"/>
<text text-anchor="middle" x="445" y="-75.5" font-family="Times New Roman,serif" font-size="30.00"> &#160;&#160;71 &#160;&#160;43% &#160;&#160;6.48e&#45;07 mol/s &#160;&#160;&#160;5.00E&#45;01</text>
</g>
</g>
</svg>
