<?xml version="1.0" encoding="UTF-8" standalone="no"?>
<!DOCTYPE svg PUBLIC "-//W3C//DTD SVG 1.1//EN"
 "http://www.w3.org/Graphics/SVG/1.1/DTD/svg11.dtd">
<!-- Generated by graphviz version 8.0.3 (20230416.2022)
 -->
<!-- Title: G Pages: 1 -->
<svg width="640pt" height="105pt"
 viewBox="0.00 0.00 720.00 117.59" xmlns="http://www.w3.org/2000/svg" xmlns:xlink="http://www.w3.org/1999/xlink">
<g id="graph0" class="graph" transform="scale(0.420638 0.420638) rotate(0) translate(4 244.5)">
<title>G</title>
<polygon fill="white" stroke="none" points="-4,4 -4,-244.5 1517.5,-244.5 1517.5,4 -4,4"/>
<text text-anchor="middle" x="756.75" y="-207.7" font-family="Arial" font-size="36.00" fill="blue">Reaction Path Analysis</text>
<!-- CHCO(S) -->
<g id="node1" class="node">
<title>CHCO(S)</title>
<g id="a_node1"><a xlink:href="34.svg" xlink:title="CHCO(S)">
<polygon fill="springgreen" stroke="none" points="846,-112 689,-112 689,-65 846,-65 846,-112"/>
<text text-anchor="middle" x="767.5" y="-80" font-family="Times New Roman,serif" font-size="35.00">CHCO(S)</text>
</a>
</g>
</g>
<!-- CCO(S) -->
<g id="node3" class="node">
<title>CCO(S)</title>
<g id="a_node3"><a xlink:href="37.svg" xlink:title="CCO(S)">
<polygon fill="dodgerblue" stroke="none" points="1513.5,-177 1381.5,-177 1381.5,-130 1513.5,-130 1513.5,-177"/>
<text text-anchor="middle" x="1447.5" y="-145" font-family="Times New Roman,serif" font-size="35.00">CCO(S)</text>
</a>
</g>
</g>
<!-- CHCO(S)&#45;&gt;CCO(S) -->
<g id="edge2" class="edge">
<title>CHCO(S)&#45;&gt;CCO(S)</title>
<path fill="none" stroke="black" d="M818.15,-111.98C831.61,-117.37 846.37,-122.41 860.5,-125.5 1040.34,-164.78 1258.32,-162.56 1370.96,-157.85"/>
<polygon fill="black" stroke="black" points="1371.01,-161.31 1380.85,-157.37 1370.71,-154.31 1371.01,-161.31"/>
<text text-anchor="middle" x="1107.5" y="-168.5" font-family="Times New Roman,serif" font-size="30.00"> &#160;&#160;54 &#160;&#160;0% &#160;&#160;2.07e&#45;09 mol/s &#160;&#160;&#160;9.99E&#45;01</text>
</g>
<!-- CH(S) -->
<g id="node4" class="node">
<title>CH(S)</title>
<g id="a_node4"><a xlink:href="57.svg" xlink:title="CH(S)">
<polygon fill="springgreen" stroke="none" points="1501.5,-112 1393.5,-112 1393.5,-65 1501.5,-65 1501.5,-112"/>
<text text-anchor="middle" x="1447.5" y="-80" font-family="Times New Roman,serif" font-size="35.00">CH(S)</text>
</a>
</g>
</g>
<!-- CHCO(S)&#45;&gt;CH(S) -->
<g id="edge3" class="edge">
<title>CHCO(S)&#45;&gt;CH(S)</title>
<path fill="none" stroke="black" stroke-width="5" d="M845.94,-88.5C977.65,-88.5 1243.53,-88.5 1372.71,-88.5"/>
<polygon fill="black" stroke="black" stroke-width="5" points="1367.7,-97.25 1387.7,-88.5 1367.7,-79.75 1367.7,-97.25"/>
<text text-anchor="middle" x="1107.5" y="-97.5" font-family="Times New Roman,serif" font-size="30.00"> &#160;&#160;105 &#160;&#160;99% &#160;&#160;5.42e&#45;06 mol/s &#160;&#160;&#160;1.00E+00</text>
</g>
<!-- CO(S) -->
<g id="node5" class="node">
<title>CO(S)</title>
<g id="a_node5"><a xlink:href="54.svg" xlink:title="CO(S)">
<polygon fill="orange" stroke="none" points="1502,-47 1393,-47 1393,0 1502,0 1502,-47"/>
<text text-anchor="middle" x="1447.5" y="-15" font-family="Times New Roman,serif" font-size="35.00">CO(S)</text>
</a>
</g>
</g>
<!-- CHCO(S)&#45;&gt;CO(S) -->
<g id="edge4" class="edge">
<title>CHCO(S)&#45;&gt;CO(S)</title>
<path fill="none" stroke="black" stroke-width="5" d="M818.15,-65.02C831.61,-59.63 846.37,-54.59 860.5,-51.5 1041.2,-12.03 1260.4,-14.47 1372.56,-19.22"/>
<polygon fill="black" stroke="black" stroke-width="5" points="1366.82,-27.99 1387.2,-20.17 1367.62,-10.51 1366.82,-27.99"/>
<text text-anchor="middle" x="1107.5" y="-60.5" font-family="Times New Roman,serif" font-size="30.00"> &#160;&#160;105 &#160;&#160;99% &#160;&#160;5.42e&#45;06 mol/s &#160;&#160;&#160;1.00E+00</text>
</g>
<!-- CH2CO(S) -->
<g id="node2" class="node">
<title>CH2CO(S)</title>
<g id="a_node2"><a xlink:href="31.svg" xlink:title="CH2CO(S)">
<polygon fill="springgreen" stroke="none" points="175,-112 0,-112 0,-65 175,-65 175,-112"/>
<text text-anchor="middle" x="87.5" y="-80" font-family="Times New Roman,serif" font-size="35.00">CH2CO(S)</text>
</a>
</g>
</g>
<!-- CH2CO(S)&#45;&gt;CHCO(S) -->
<g id="edge1" class="edge">
<title>CH2CO(S)&#45;&gt;CHCO(S)</title>
<path fill="none" stroke="green" stroke-width="6" d="M174.71,-88.5C300.95,-88.5 535.45,-88.5 668.21,-88.5"/>
<polygon fill="green" stroke="green" stroke-width="6" points="663,-99 683,-88.5 663,-78 663,-99"/>
<text text-anchor="middle" x="427.5" y="-97.5" font-family="Times New Roman,serif" font-size="30.00"> &#160;&#160;51 &#160;&#160;100% &#160;&#160;5.42e&#45;06 mol/s &#160;&#160;&#160;5.18E&#45;01</text>
</g>
</g>
</svg>
