<?xml version="1.0" encoding="UTF-8" standalone="no"?>
<!DOCTYPE svg PUBLIC "-//W3C//DTD SVG 1.1//EN"
 "http://www.w3.org/Graphics/SVG/1.1/DTD/svg11.dtd">
<!-- Generated by graphviz version 8.0.3 (20230416.2022)
 -->
<!-- Title: G Pages: 1 -->
<svg width="640pt" height="48pt"
 viewBox="0.00 0.00 720.00 53.55" xmlns="http://www.w3.org/2000/svg" xmlns:xlink="http://www.w3.org/1999/xlink">
<g id="graph0" class="graph" transform="scale(0.42314 0.42314) rotate(0) translate(4 108.5)">
<title>G</title>
<polygon fill="white" stroke="none" points="-4,4 -4,-108.5 1508.5,-108.5 1508.5,4 -4,4"/>
<text text-anchor="middle" x="752.25" y="-71.7" font-family="Arial" font-size="36.00" fill="blue">Reaction Path Analysis</text>
<!-- CH3CH(S) -->
<g id="node1" class="node">
<title>CH3CH(S)</title>
<g id="a_node1"><a xlink:href="39.svg" xlink:title="CH3CH(S)">
<polygon fill="dodgerblue" stroke="none" points="828.5,-47 654.5,-47 654.5,0 828.5,0 828.5,-47"/>
<text text-anchor="middle" x="741.5" y="-15" font-family="Times New Roman,serif" font-size="35.00">CH3CH(S)</text>
</a>
</g>
</g>
<!-- CH3CH2(S) -->
<g id="node2" class="node">
<title>CH3CH2(S)</title>
<g id="a_node2"><a xlink:href="38.svg" xlink:title="CH3CH2(S)">
<polygon fill="dodgerblue" stroke="none" points="1504.5,-47 1312.5,-47 1312.5,0 1504.5,0 1504.5,-47"/>
<text text-anchor="middle" x="1408.5" y="-15" font-family="Times New Roman,serif" font-size="35.00">CH3CH2(S)</text>
</a>
</g>
</g>
<!-- CH3CH(S)&#45;&gt;CH3CH2(S) -->
<g id="edge1" class="edge">
<title>CH3CH(S)&#45;&gt;CH3CH2(S)</title>
<path fill="none" stroke="black" stroke-width="5" d="M828.42,-23.5C946.61,-23.5 1159.71,-23.5 1291.82,-23.5"/>
<polygon fill="black" stroke="black" stroke-width="5" points="1286.7,-32.25 1306.7,-23.5 1286.7,-14.75 1286.7,-32.25"/>
<text text-anchor="middle" x="1075" y="-32.5" font-family="Times New Roman,serif" font-size="30.00"> &#160;&#160;55 &#160;&#160;95% &#160;&#160;1.7e&#45;08 mol/s &#160;&#160;&#160;2.33E&#45;01</text>
</g>
<!-- CH3C(S) -->
<g id="node3" class="node">
<title>CH3C(S)</title>
<g id="a_node3"><a xlink:href="40.svg" xlink:title="CH3C(S)">
<polygon fill="springgreen" stroke="none" points="149,-47 0,-47 0,0 149,0 149,-47"/>
<text text-anchor="middle" x="74.5" y="-15" font-family="Times New Roman,serif" font-size="35.00">CH3C(S)</text>
</a>
</g>
</g>
<!-- CH3C(S)&#45;&gt;CH3CH(S) -->
<g id="edge2" class="edge">
<title>CH3C(S)&#45;&gt;CH3CH(S)</title>
<path fill="none" stroke="green" stroke-width="5" d="M148.89,-23.5C266.48,-23.5 497.67,-23.5 633.62,-23.5"/>
<polygon fill="green" stroke="green" stroke-width="5" points="628.59,-32.25 648.59,-23.5 628.59,-14.75 628.59,-32.25"/>
<text text-anchor="middle" x="408" y="-32.5" font-family="Times New Roman,serif" font-size="30.00"> &#160;&#160;56 &#160;&#160;99% &#160;&#160;1.78e&#45;08 mol/s &#160;&#160;&#160;5.00E&#45;01</text>
</g>
</g>
</svg>
