<?xml version="1.0" encoding="UTF-8" standalone="no"?>
<!DOCTYPE svg PUBLIC "-//W3C//DTD SVG 1.1//EN"
 "http://www.w3.org/Graphics/SVG/1.1/DTD/svg11.dtd">
<!-- Generated by graphviz version 8.0.3 (20230416.2022)
 -->
<!-- Title: G Pages: 1 -->
<svg width="640pt" height="46pt"
 viewBox="0.00 0.00 720.00 52.09" xmlns="http://www.w3.org/2000/svg" xmlns:xlink="http://www.w3.org/1999/xlink">
<g id="graph0" class="graph" transform="scale(0.411576 0.411576) rotate(0) translate(4 108.5)">
<title>G</title>
<polygon fill="white" stroke="none" points="-4,4 -4,-108.5 1551,-108.5 1551,4 -4,4"/>
<text text-anchor="middle" x="773.5" y="-71.7" font-family="Arial" font-size="36.00" fill="blue">Reaction Path Analysis</text>
<!-- CH2CH2(S) -->
<g id="node1" class="node">
<title>CH2CH2(S)</title>
<g id="a_node1"><a xlink:href="41.svg" xlink:title="CH2CH2(S)">
<polygon fill="dodgerblue" stroke="none" points="865,-47 673,-47 673,0 865,0 865,-47"/>
<text text-anchor="middle" x="769" y="-15" font-family="Times New Roman,serif" font-size="35.00">CH2CH2(S)</text>
</a>
</g>
</g>
<!-- CH3CH2(S) -->
<g id="node3" class="node">
<title>CH3CH2(S)</title>
<g id="a_node3"><a xlink:href="38.svg" xlink:title="CH3CH2(S)">
<polygon fill="dodgerblue" stroke="none" points="1547,-47 1355,-47 1355,0 1547,0 1547,-47"/>
<text text-anchor="middle" x="1451" y="-15" font-family="Times New Roman,serif" font-size="35.00">CH3CH2(S)</text>
</a>
</g>
</g>
<!-- CH2CH2(S)&#45;&gt;CH3CH2(S) -->
<g id="edge2" class="edge">
<title>CH2CH2(S)&#45;&gt;CH3CH2(S)</title>
<path fill="none" stroke="green" stroke-width="5" d="M864.91,-23.5C987.85,-23.5 1202.05,-23.5 1334.36,-23.5"/>
<polygon fill="green" stroke="green" stroke-width="5" points="1329.27,-32.25 1349.27,-23.5 1329.27,-14.75 1329.27,-32.25"/>
<text text-anchor="middle" x="1110" y="-32.5" font-family="Times New Roman,serif" font-size="30.00"> &#160;&#160;60 &#160;&#160;99% &#160;&#160;1.39e&#45;09 mol/s &#160;&#160;&#160;4.75E&#45;01</text>
</g>
<!-- CH2CH(S) -->
<g id="node2" class="node">
<title>CH2CH(S)</title>
<g id="a_node2"><a xlink:href="42.svg" xlink:title="CH2CH(S)">
<polygon fill="dodgerblue" stroke="none" points="174,-47 0,-47 0,0 174,0 174,-47"/>
<text text-anchor="middle" x="87" y="-15" font-family="Times New Roman,serif" font-size="35.00">CH2CH(S)</text>
</a>
</g>
</g>
<!-- CH2CH(S)&#45;&gt;CH2CH2(S) -->
<g id="edge1" class="edge">
<title>CH2CH(S)&#45;&gt;CH2CH2(S)</title>
<path fill="none" stroke="green" stroke-width="5" d="M173.78,-23.5C295.06,-23.5 516.98,-23.5 652.61,-23.5"/>
<polygon fill="green" stroke="green" stroke-width="5" points="647.2,-32.25 667.2,-23.5 647.2,-14.75 647.2,-32.25"/>
<text text-anchor="middle" x="428" y="-32.5" font-family="Times New Roman,serif" font-size="30.00"> &#160;&#160;57 &#160;&#160;99% &#160;&#160;1.39e&#45;09 mol/s &#160;&#160;&#160;4.61E&#45;01</text>
</g>
</g>
</svg>
