<?xml version="1.0" encoding="UTF-8" standalone="no"?>
<!DOCTYPE svg PUBLIC "-//W3C//DTD SVG 1.1//EN"
 "http://www.w3.org/Graphics/SVG/1.1/DTD/svg11.dtd">
<!-- Generated by graphviz version 8.0.3 (20230416.2022)
 -->
<!-- Title: G Pages: 1 -->
<svg width="640pt" height="75pt"
 viewBox="0.00 0.00 720.00 84.10" xmlns="http://www.w3.org/2000/svg" xmlns:xlink="http://www.w3.org/1999/xlink">
<g id="graph0" class="graph" transform="scale(0.425957 0.425957) rotate(0) translate(4 171.5)">
<title>G</title>
<polygon fill="white" stroke="none" points="-4,4 -4,-171.5 1498.5,-171.5 1498.5,4 -4,4"/>
<text text-anchor="middle" x="747.25" y="-134.7" font-family="Arial" font-size="36.00" fill="blue">Reaction Path Analysis</text>
<!-- CH2(S) -->
<g id="node1" class="node">
<title>CH2(S)</title>
<g id="a_node1"><a xlink:href="56.svg" xlink:title="CH2(S)">
<polygon fill="dodgerblue" stroke="none" points="822.5,-79 696.5,-79 696.5,-32 822.5,-32 822.5,-79"/>
<text text-anchor="middle" x="759.5" y="-47" font-family="Times New Roman,serif" font-size="35.00">CH2(S)</text>
</a>
</g>
</g>
<!-- CH3(S) -->
<g id="node2" class="node">
<title>CH3(S)</title>
<g id="a_node2"><a xlink:href="55.svg" xlink:title="CH3(S)">
<polygon fill="dodgerblue" stroke="none" points="1494.5,-79 1368.5,-79 1368.5,-32 1494.5,-32 1494.5,-79"/>
<text text-anchor="middle" x="1431.5" y="-47" font-family="Times New Roman,serif" font-size="35.00">CH3(S)</text>
</a>
</g>
</g>
<!-- CH2(S)&#45;&gt;CH3(S) -->
<g id="edge1" class="edge">
<title>CH2(S)&#45;&gt;CH3(S)</title>
<path fill="none" stroke="black" stroke-width="6" d="M822.33,-55.5C943.49,-55.5 1212.14,-55.5 1348.17,-55.5"/>
<polygon fill="black" stroke="black" stroke-width="6" points="1342.82,-66 1362.82,-55.5 1342.82,-45 1342.82,-66"/>
<text text-anchor="middle" x="1095.5" y="-64.5" font-family="Times New Roman,serif" font-size="30.00"> &#160;&#160;66 &#160;&#160;100% &#160;&#160;5.43e&#45;06 mol/s &#160;&#160;&#160;1.93E&#45;02</text>
</g>
<!-- CH(S) -->
<g id="node3" class="node">
<title>CH(S)</title>
<g id="a_node3"><a xlink:href="57.svg" xlink:title="CH(S)">
<polygon fill="springgreen" stroke="none" points="141.5,-112 33.5,-112 33.5,-65 141.5,-65 141.5,-112"/>
<text text-anchor="middle" x="87.5" y="-80" font-family="Times New Roman,serif" font-size="35.00">CH(S)</text>
</a>
</g>
</g>
<!-- CH(S)&#45;&gt;CH2(S) -->
<g id="edge2" class="edge">
<title>CH(S)&#45;&gt;CH2(S)</title>
<path fill="none" stroke="green" stroke-width="5" d="M141.25,-87.83C242.52,-86.24 471.17,-81.2 663,-66.5 667.26,-66.17 671.62,-65.8 676.02,-65.4"/>
<polygon fill="green" stroke="green" stroke-width="5" points="671.64,-74.03 690.66,-63.32 669.89,-56.62 671.64,-74.03"/>
<text text-anchor="middle" x="423.5" y="-95.5" font-family="Times New Roman,serif" font-size="30.00"> &#160;&#160;67 &#160;&#160;99% &#160;&#160;5.43e&#45;06 mol/s &#160;&#160;&#160;5.00E&#45;01</text>
</g>
<!-- CH2CO(S) -->
<g id="node4" class="node">
<title>CH2CO(S)</title>
<g id="a_node4"><a xlink:href="31.svg" xlink:title="CH2CO(S)">
<polygon fill="springgreen" stroke="none" points="175,-47 0,-47 0,0 175,0 175,-47"/>
<text text-anchor="middle" x="87.5" y="-15" font-family="Times New Roman,serif" font-size="35.00">CH2CO(S)</text>
</a>
</g>
</g>
<!-- CH2CO(S)&#45;&gt;CH2(S) -->
<g id="edge3" class="edge">
<title>CH2CO(S)&#45;&gt;CH2(S)</title>
<path fill="none" stroke="black" d="M174.54,-19.42C287.23,-15.36 490.72,-12.39 663,-33.5 670.55,-34.42 678.37,-35.7 686.14,-37.17"/>
<polygon fill="black" stroke="black" points="685.18,-40.75 695.68,-39.28 686.56,-33.88 685.18,-40.75"/>
<text text-anchor="middle" x="423.5" y="-42.5" font-family="Times New Roman,serif" font-size="30.00"> &#160;&#160;102 &#160;&#160;0% &#160;&#160;1.34e&#45;09 mol/s &#160;&#160;&#160;1.00E+00</text>
</g>
</g>
</svg>
