<?xml version="1.0" encoding="UTF-8" standalone="no"?>
<!DOCTYPE svg PUBLIC "-//W3C//DTD SVG 1.1//EN"
 "http://www.w3.org/Graphics/SVG/1.1/DTD/svg11.dtd">
<!-- Generated by graphviz version 8.0.3 (20230416.2022)
 -->
<!-- Title: G Pages: 1 -->
<svg width="640pt" height="52pt"
 viewBox="0.00 0.00 720.00 59.06" xmlns="http://www.w3.org/2000/svg" xmlns:xlink="http://www.w3.org/1999/xlink">
<g id="graph0" class="graph" transform="scale(0.466642 0.466642) rotate(0) translate(4 108.5)">
<title>G</title>
<polygon fill="white" stroke="none" points="-4,4 -4,-108.5 1367.5,-108.5 1367.5,4 -4,4"/>
<text text-anchor="middle" x="681.75" y="-71.7" font-family="Arial" font-size="36.00" fill="blue">Reaction Path Analysis</text>
<!-- H2O(S) -->
<g id="node1" class="node">
<title>H2O(S)</title>
<g id="a_node1"><a xlink:href="59.svg" xlink:title="H2O(S)">
<polygon fill="springgreen" stroke="none" points="739.5,-47 611.5,-47 611.5,0 739.5,0 739.5,-47"/>
<text text-anchor="middle" x="675.5" y="-15" font-family="Times New Roman,serif" font-size="35.00">H2O(S)</text>
</a>
</g>
</g>
<!-- OH(S) -->
<g id="node3" class="node">
<title>OH(S)</title>
<g id="a_node3"><a xlink:href="60.svg" xlink:title="OH(S)">
<polygon fill="purple" stroke="none" points="1363.5,-47 1253.5,-47 1253.5,0 1363.5,0 1363.5,-47"/>
<text text-anchor="middle" x="1308.5" y="-15" font-family="Times New Roman,serif" font-size="35.00">OH(S)</text>
</a>
</g>
</g>
<!-- H2O(S)&#45;&gt;OH(S) -->
<g id="edge2" class="edge">
<title>H2O(S)&#45;&gt;OH(S)</title>
<path fill="none" stroke="green" stroke-width="5" d="M739.31,-23.5C856.32,-23.5 1107.17,-23.5 1232.71,-23.5"/>
<polygon fill="green" stroke="green" stroke-width="5" points="1227.55,-32.25 1247.55,-23.5 1227.55,-14.75 1227.55,-32.25"/>
<text text-anchor="middle" x="992" y="-32.5" font-family="Times New Roman,serif" font-size="30.00"> &#160;&#160;150 &#160;&#160;99% &#160;&#160;2.48e&#45;06 mol/s &#160;&#160;&#160;5.02E&#45;01</text>
</g>
<!-- H2O -->
<g id="node2" class="node">
<title>H2O</title>
<g id="a_node2"><a xlink:href="12.svg" xlink:title="H2O">
<polygon fill="none" stroke="none" points="85,-47 0,-47 0,0 85,0 85,-47"/>
<text text-anchor="middle" x="42.5" y="-15" font-family="Times New Roman,serif" font-size="35.00">H2O</text>
</a>
</g>
</g>
<!-- H2O&#45;&gt;H2O(S) -->
<g id="edge1" class="edge">
<title>H2O&#45;&gt;H2O(S)</title>
<path fill="none" stroke="green" stroke-width="5" d="M84.9,-23.5C187.31,-23.5 454.09,-23.5 590.91,-23.5"/>
<polygon fill="green" stroke="green" stroke-width="5" points="585.71,-32.25 605.71,-23.5 585.71,-14.75 585.71,-32.25"/>
<text text-anchor="middle" x="359" y="-32.5" font-family="Times New Roman,serif" font-size="30.00"> &#160;&#160;14 &#160;&#160;99% &#160;&#160;2.48e&#45;06 mol/s &#160;&#160;&#160;5.00E&#45;01</text>
</g>
</g>
</svg>
