<?xml version="1.0" encoding="UTF-8" standalone="no"?>
<!DOCTYPE svg PUBLIC "-//W3C//DTD SVG 1.1//EN"
 "http://www.w3.org/Graphics/SVG/1.1/DTD/svg11.dtd">
<!-- Generated by graphviz version 8.0.3 (20230416.2022)
 -->
<!-- Title: G Pages: 1 -->
<svg width="640pt" height="427pt"
 viewBox="0.00 0.00 720.00 480.82" xmlns="http://www.w3.org/2000/svg" xmlns:xlink="http://www.w3.org/1999/xlink">
<g id="graph0" class="graph" transform="scale(0.378922 0.378922) rotate(0) translate(4 1123.93)">
<title>G</title>
<polygon fill="white" stroke="none" points="-4,4 -4,-1123.93 1685,-1123.93 1685,4 -4,4"/>
<text text-anchor="middle" x="840.5" y="-1087.13" font-family="Arial" font-size="36.00" fill="blue">Reaction Path Analysis</text>
<!-- H(S) -->
<g id="node1" class="node">
<title>H(S)</title>
<g id="a_node1"><a xlink:href="62.svg" xlink:title="H(S)">
<polygon fill="orange" stroke="none" points="895.5,-574.43 810.5,-574.43 810.5,-527.43 895.5,-527.43 895.5,-574.43"/>
<text text-anchor="middle" x="853" y="-542.43" font-family="Times New Roman,serif" font-size="35.00">H(S)</text>
</a>
</g>
</g>
<!-- CH3CH3 -->
<g id="node2" class="node">
<title>CH3CH3</title>
<g id="a_node2"><a xlink:href="2.svg" xlink:title="CH3CH3">
<polygon fill="none" stroke="none" points="1659.5,-807.43 1510.5,-807.43 1510.5,-760.43 1659.5,-760.43 1659.5,-807.43"/>
<text text-anchor="middle" x="1585" y="-775.43" font-family="Times New Roman,serif" font-size="35.00">CH3CH3</text>
</a>
</g>
</g>
<!-- H(S)&#45;&gt;CH3CH3 -->
<g id="edge1" class="edge">
<title>H(S)&#45;&gt;CH3CH3</title>
<path fill="none" stroke="green" d="M860.28,-574.31C873.9,-619.87 910.92,-719.76 983,-761.93 1145.66,-857.09 1377.7,-829 1500.44,-804.15"/>
<polygon fill="green" stroke="green" points="1500.8,-807.45 1509.88,-801.99 1499.38,-800.59 1500.8,-807.45"/>
<text text-anchor="middle" x="1219" y="-836.93" font-family="Times New Roman,serif" font-size="30.00"> &#160;&#160;4 &#160;&#160;0% &#160;&#160;1.84e&#45;08 mol/s &#160;&#160;&#160;4.54E&#45;01</text>
</g>
<!-- CH4 -->
<g id="node3" class="node">
<title>CH4</title>
<g id="a_node3"><a xlink:href="7.svg" xlink:title="CH4">
<polygon fill="none" stroke="none" points="1626.5,-742.43 1543.5,-742.43 1543.5,-695.43 1626.5,-695.43 1626.5,-742.43"/>
<text text-anchor="middle" x="1585" y="-710.43" font-family="Times New Roman,serif" font-size="35.00">CH4</text>
</a>
</g>
</g>
<!-- H(S)&#45;&gt;CH4 -->
<g id="edge2" class="edge">
<title>H(S)&#45;&gt;CH4</title>
<path fill="none" stroke="black" d="M866.74,-574.38C886.54,-608.12 928.19,-669.12 983,-694.93 1079.63,-740.44 1405.62,-728.54 1532.69,-721.92"/>
<polygon fill="black" stroke="black" points="1532.84,-725.37 1542.64,-721.34 1532.47,-718.38 1532.84,-725.37"/>
<text text-anchor="middle" x="1219" y="-736.93" font-family="Times New Roman,serif" font-size="30.00"> &#160;&#160;9 &#160;&#160;16% &#160;&#160;5.44e&#45;06 mol/s &#160;&#160;&#160;3.20E&#45;01</text>
</g>
<!-- CH3CH2(S) -->
<g id="node14" class="node">
<title>CH3CH2(S)</title>
<g id="a_node14"><a xlink:href="38.svg" xlink:title="CH3CH2(S)">
<polygon fill="dodgerblue" stroke="none" points="1681,-663.43 1489,-663.43 1489,-616.43 1681,-616.43 1681,-663.43"/>
<text text-anchor="middle" x="1585" y="-631.43" font-family="Times New Roman,serif" font-size="35.00">CH3CH2(S)</text>
</a>
</g>
</g>
<!-- H(S)&#45;&gt;CH3CH2(S) -->
<g id="edge14" class="edge">
<title>H(S)&#45;&gt;CH3CH2(S)</title>
<path fill="none" stroke="black" d="M877.69,-574.29C901.85,-596.34 941.58,-627.91 983,-640.93 1072.22,-668.98 1331.19,-657.25 1478.42,-647.71"/>
<polygon fill="black" stroke="black" points="1478.51,-651.14 1488.26,-646.99 1478.05,-644.16 1478.51,-651.14"/>
<text text-anchor="middle" x="1219" y="-666.93" font-family="Times New Roman,serif" font-size="30.00"> &#160;&#160;55 &#160;&#160;0% &#160;&#160;1.7e&#45;08 mol/s &#160;&#160;&#160;2.33E&#45;01</text>
</g>
<!-- H(S)&#45;&gt;CH3CH2(S) -->
<g id="edge17" class="edge">
<title>H(S)&#45;&gt;CH3CH2(S)</title>
<path fill="none" stroke="green" d="M895.35,-564.28C920.42,-571.76 953.22,-580.46 983,-584.93 1190.62,-616.09 1247.61,-571.27 1455,-603.93 1470.02,-606.3 1485.79,-609.8 1500.94,-613.71"/>
<polygon fill="green" stroke="green" points="1499.75,-617.28 1510.31,-616.48 1501.55,-610.52 1499.75,-617.28"/>
<text text-anchor="middle" x="1219" y="-612.93" font-family="Times New Roman,serif" font-size="30.00"> &#160;&#160;60 &#160;&#160;0% &#160;&#160;1.39e&#45;09 mol/s &#160;&#160;&#160;4.75E&#45;01</text>
</g>
<!-- CH3CH(S) -->
<g id="node15" class="node">
<title>CH3CH(S)</title>
<g id="a_node15"><a xlink:href="39.svg" xlink:title="CH3CH(S)">
<polygon fill="dodgerblue" stroke="none" points="1672,-583.43 1498,-583.43 1498,-536.43 1672,-536.43 1672,-583.43"/>
<text text-anchor="middle" x="1585" y="-551.43" font-family="Times New Roman,serif" font-size="35.00">CH3CH(S)</text>
</a>
</g>
</g>
<!-- H(S)&#45;&gt;CH3CH(S) -->
<g id="edge15" class="edge">
<title>H(S)&#45;&gt;CH3CH(S)</title>
<path fill="none" stroke="green" d="M895.18,-550.14C992.56,-548.47 1244.6,-545.24 1455,-551.93 1465.51,-552.26 1476.5,-552.74 1487.44,-553.31"/>
<polygon fill="green" stroke="green" points="1487.16,-556.85 1497.34,-553.89 1487.54,-549.86 1487.16,-556.85"/>
<text text-anchor="middle" x="1219" y="-560.93" font-family="Times New Roman,serif" font-size="30.00"> &#160;&#160;56 &#160;&#160;0% &#160;&#160;1.78e&#45;08 mol/s &#160;&#160;&#160;5.00E&#45;01</text>
</g>
<!-- CH2CH2(S) -->
<g id="node16" class="node">
<title>CH2CH2(S)</title>
<g id="a_node16"><a xlink:href="41.svg" xlink:title="CH2CH2(S)">
<polygon fill="dodgerblue" stroke="none" points="1681,-518.43 1489,-518.43 1489,-471.43 1681,-471.43 1681,-518.43"/>
<text text-anchor="middle" x="1585" y="-486.43" font-family="Times New Roman,serif" font-size="35.00">CH2CH2(S)</text>
</a>
</g>
</g>
<!-- H(S)&#45;&gt;CH2CH2(S) -->
<g id="edge16" class="edge">
<title>H(S)&#45;&gt;CH2CH2(S)</title>
<path fill="none" stroke="green" d="M895.38,-534.48C920.33,-525.4 952.99,-514.97 983,-509.93 1154.61,-481.12 1357.59,-483.47 1478.31,-488.62"/>
<polygon fill="green" stroke="green" points="1477.86,-492.15 1488.01,-489.09 1478.17,-485.15 1477.86,-492.15"/>
<text text-anchor="middle" x="1219" y="-518.93" font-family="Times New Roman,serif" font-size="30.00"> &#160;&#160;57 &#160;&#160;0% &#160;&#160;1.39e&#45;09 mol/s &#160;&#160;&#160;4.61E&#45;01</text>
</g>
<!-- CH3(S) -->
<g id="node17" class="node">
<title>CH3(S)</title>
<g id="a_node17"><a xlink:href="55.svg" xlink:title="CH3(S)">
<polygon fill="dodgerblue" stroke="none" points="1648,-453.43 1522,-453.43 1522,-406.43 1648,-406.43 1648,-453.43"/>
<text text-anchor="middle" x="1585" y="-421.43" font-family="Times New Roman,serif" font-size="35.00">CH3(S)</text>
</a>
</g>
</g>
<!-- H(S)&#45;&gt;CH3(S) -->
<g id="edge18" class="edge">
<title>H(S)&#45;&gt;CH3(S)</title>
<path fill="none" stroke="black" d="M874.06,-527.77C897.36,-502.77 938.34,-464.33 983,-447.93 1077.87,-413.1 1373.06,-420.66 1511.26,-426.41"/>
<polygon fill="black" stroke="black" points="1510.99,-429.95 1521.13,-426.87 1511.29,-422.95 1510.99,-429.95"/>
<text text-anchor="middle" x="1219" y="-456.93" font-family="Times New Roman,serif" font-size="30.00"> &#160;&#160;66 &#160;&#160;16% &#160;&#160;5.43e&#45;06 mol/s &#160;&#160;&#160;1.93E&#45;02</text>
</g>
<!-- CH2(S) -->
<g id="node18" class="node">
<title>CH2(S)</title>
<g id="a_node18"><a xlink:href="56.svg" xlink:title="CH2(S)">
<polygon fill="dodgerblue" stroke="none" points="1648,-388.43 1522,-388.43 1522,-341.43 1648,-341.43 1648,-388.43"/>
<text text-anchor="middle" x="1585" y="-356.43" font-family="Times New Roman,serif" font-size="35.00">CH2(S)</text>
</a>
</g>
</g>
<!-- H(S)&#45;&gt;CH2(S) -->
<g id="edge19" class="edge">
<title>H(S)&#45;&gt;CH2(S)</title>
<path fill="none" stroke="green" d="M863.91,-527.56C881.5,-489.44 922.16,-415.02 983,-383.93 1073.17,-337.86 1371.81,-350.7 1511.18,-359.63"/>
<polygon fill="green" stroke="green" points="1510.94,-363.18 1521.15,-360.34 1511.39,-356.2 1510.94,-363.18"/>
<text text-anchor="middle" x="1219" y="-392.93" font-family="Times New Roman,serif" font-size="30.00"> &#160;&#160;67 &#160;&#160;16% &#160;&#160;5.43e&#45;06 mol/s &#160;&#160;&#160;5.00E&#45;01</text>
</g>
<!-- CH(S) -->
<g id="node19" class="node">
<title>CH(S)</title>
<g id="a_node19"><a xlink:href="57.svg" xlink:title="CH(S)">
<polygon fill="springgreen" stroke="none" points="1639,-323.43 1531,-323.43 1531,-276.43 1639,-276.43 1639,-323.43"/>
<text text-anchor="middle" x="1585" y="-291.43" font-family="Times New Roman,serif" font-size="35.00">CH(S)</text>
</a>
</g>
</g>
<!-- H(S)&#45;&gt;CH(S) -->
<g id="edge20" class="edge">
<title>H(S)&#45;&gt;CH(S)</title>
<path fill="none" stroke="green" d="M858.55,-527.66C869.67,-477.85 903.36,-361.52 983,-312.93 1153.41,-208.95 1404.69,-253.1 1520.86,-282.06"/>
<polygon fill="green" stroke="green" points="1519.78,-285.66 1530.34,-284.73 1521.51,-278.87 1519.78,-285.66"/>
<text text-anchor="middle" x="1219" y="-321.93" font-family="Times New Roman,serif" font-size="30.00"> &#160;&#160;68 &#160;&#160;0% &#160;&#160;2.46e&#45;09 mol/s &#160;&#160;&#160;4.84E&#45;01</text>
</g>
<!-- CH3CH2OH(S) -->
<g id="node4" class="node">
<title>CH3CH2OH(S)</title>
<g id="a_node4"><a xlink:href="14.svg" xlink:title="CH3CH2OH(S)">
<polygon fill="dodgerblue" stroke="none" points="242,-966.43 0,-966.43 0,-919.43 242,-919.43 242,-966.43"/>
<text text-anchor="middle" x="121" y="-934.43" font-family="Times New Roman,serif" font-size="35.00">CH3CH2OH(S)</text>
</a>
</g>
</g>
<!-- CH3CH2OH(S)&#45;&gt;H(S) -->
<g id="edge3" class="edge">
<title>CH3CH2OH(S)&#45;&gt;H(S)</title>
<path fill="none" stroke="black" d="M174.98,-966.36C288.18,-1012.46 556.83,-1100.24 723,-976.93 787.56,-929.02 832.39,-677.57 846.92,-585.1"/>
<polygon fill="black" stroke="black" points="850.5,-585.8 848.58,-575.38 843.59,-584.73 850.5,-585.8"/>
<text text-anchor="middle" x="487" y="-1047.93" font-family="Times New Roman,serif" font-size="30.00"> &#160;&#160;15 &#160;&#160;14% &#160;&#160;4.77e&#45;06 mol/s &#160;&#160;&#160;9.99E&#45;01</text>
</g>
<!-- CH3CH2OH(S)&#45;&gt;H(S) -->
<g id="edge9" class="edge">
<title>CH3CH2OH(S)&#45;&gt;H(S)</title>
<path fill="none" stroke="black" d="M241.71,-939.38C415.64,-934.12 718.22,-924.46 723,-920.93 832.32,-840.22 849.58,-660.2 851.89,-584.99"/>
<polygon fill="black" stroke="black" points="855.4,-585.34 852.13,-575.26 848.4,-585.17 855.4,-585.34"/>
<text text-anchor="middle" x="487" y="-946.93" font-family="Times New Roman,serif" font-size="30.00"> &#160;&#160;37 &#160;&#160;0% &#160;&#160;2.54e&#45;09 mol/s &#160;&#160;&#160;9.99E&#45;01</text>
</g>
<!-- CH3CH2OH(S)&#45;&gt;H(S) -->
<g id="edge21" class="edge">
<title>CH3CH2OH(S)&#45;&gt;H(S)</title>
<path fill="none" stroke="black" d="M162.36,-919.55C187.09,-906.5 219.87,-891.41 251,-883.93 302.04,-871.67 680.01,-894.05 723,-863.93 816.74,-798.26 842.51,-651.38 849.48,-584.85"/>
<polygon fill="black" stroke="black" points="853.03,-585.42 850.51,-575.14 846.07,-584.75 853.03,-585.42"/>
<text text-anchor="middle" x="487" y="-892.93" font-family="Times New Roman,serif" font-size="30.00"> &#160;&#160;69 &#160;&#160;2% &#160;&#160;7.05e&#45;07 mol/s &#160;&#160;&#160;9.45E&#45;01</text>
</g>
<!-- CH3CHOH(S) -->
<g id="node5" class="node">
<title>CH3CHOH(S)</title>
<g id="a_node5"><a xlink:href="15.svg" xlink:title="CH3CHOH(S)">
<polygon fill="dodgerblue" stroke="none" points="233,-840.43 9,-840.43 9,-793.43 233,-793.43 233,-840.43"/>
<text text-anchor="middle" x="121" y="-808.43" font-family="Times New Roman,serif" font-size="35.00">CH3CHOH(S)</text>
</a>
</g>
</g>
<!-- CH3CHOH(S)&#45;&gt;H(S) -->
<g id="edge4" class="edge">
<title>CH3CHOH(S)&#45;&gt;H(S)</title>
<path fill="none" stroke="black" d="M232.87,-821.61C395.19,-827.54 682.72,-834.19 723,-808.93 802.94,-758.79 835.09,-642.67 846.49,-584.88"/>
<polygon fill="black" stroke="black" points="850.1,-585.61 848.5,-575.13 843.22,-584.32 850.1,-585.61"/>
<text text-anchor="middle" x="487" y="-835.93" font-family="Times New Roman,serif" font-size="30.00"> &#160;&#160;16 &#160;&#160;14% &#160;&#160;4.62e&#45;06 mol/s &#160;&#160;&#160;5.57E&#45;01</text>
</g>
<!-- CH3CHOH(S)&#45;&gt;H(S) -->
<g id="edge22" class="edge">
<title>CH3CHOH(S)&#45;&gt;H(S)</title>
<path fill="none" stroke="black" d="M177.53,-793.52C199.94,-785.15 226.3,-776.63 251,-771.93 302.56,-762.12 677.49,-779.07 723,-752.93 787.61,-715.82 824.94,-631.81 841.55,-584.65"/>
<polygon fill="black" stroke="black" points="845.15,-585.94 845.06,-575.34 838.53,-583.68 845.15,-585.94"/>
<text text-anchor="middle" x="487" y="-780.93" font-family="Times New Roman,serif" font-size="30.00"> &#160;&#160;70 &#160;&#160;0% &#160;&#160;1.53e&#45;07 mol/s &#160;&#160;&#160;5.55E&#45;01</text>
</g>
<!-- CH2CH2OH(S) -->
<g id="node6" class="node">
<title>CH2CH2OH(S)</title>
<g id="a_node6"><a xlink:href="17.svg" xlink:title="CH2CH2OH(S)">
<polygon fill="purple" stroke="none" points="242,-756.43 0,-756.43 0,-709.43 242,-709.43 242,-756.43"/>
<text text-anchor="middle" x="121" y="-724.43" font-family="Times New Roman,serif" font-size="35.00">CH2CH2OH(S)</text>
</a>
</g>
</g>
<!-- CH2CH2OH(S)&#45;&gt;H(S) -->
<g id="edge5" class="edge">
<title>CH2CH2OH(S)&#45;&gt;H(S)</title>
<path fill="none" stroke="black" d="M241.8,-720.64C244.9,-720.4 247.97,-720.16 251,-719.93 303.36,-716.02 675.67,-719.67 723,-696.93 773.44,-672.69 812.56,-618.81 833.93,-583.71"/>
<polygon fill="black" stroke="black" points="837.39,-585.74 839.48,-575.35 831.37,-582.17 837.39,-585.74"/>
<text text-anchor="middle" x="487" y="-728.93" font-family="Times New Roman,serif" font-size="30.00"> &#160;&#160;17 &#160;&#160;0% &#160;&#160;2.54e&#45;09 mol/s &#160;&#160;&#160;7.68E&#45;01</text>
</g>
<!-- CH2CHOH(S) -->
<g id="node7" class="node">
<title>CH2CHOH(S)</title>
<g id="a_node7"><a xlink:href="18.svg" xlink:title="CH2CHOH(S)">
<polygon fill="dodgerblue" stroke="none" points="233,-691.43 9,-691.43 9,-644.43 233,-644.43 233,-691.43"/>
<text text-anchor="middle" x="121" y="-659.43" font-family="Times New Roman,serif" font-size="35.00">CH2CHOH(S)</text>
</a>
</g>
</g>
<!-- CH2CHOH(S)&#45;&gt;H(S) -->
<g id="edge6" class="edge">
<title>CH2CHOH(S)&#45;&gt;H(S)</title>
<path fill="none" stroke="green" d="M232.81,-664.14C400.12,-658.19 700.24,-646.56 723,-638.93 759.1,-626.83 794.42,-601.52 818.94,-581.14"/>
<polygon fill="green" stroke="green" points="820.8,-583.31 826.15,-574.16 816.26,-577.97 820.8,-583.31"/>
<text text-anchor="middle" x="487" y="-671.93" font-family="Times New Roman,serif" font-size="30.00"> &#160;&#160;18 &#160;&#160;0% &#160;&#160;2.03e&#45;09 mol/s &#160;&#160;&#160;5.19E&#45;01</text>
</g>
<!-- CH3CH2O(S) -->
<g id="node8" class="node">
<title>CH3CH2O(S)</title>
<g id="a_node8"><a xlink:href="26.svg" xlink:title="CH3CH2O(S)">
<polygon fill="purple" stroke="none" points="230,-626.43 12,-626.43 12,-579.43 230,-579.43 230,-626.43"/>
<text text-anchor="middle" x="121" y="-594.43" font-family="Times New Roman,serif" font-size="35.00">CH3CH2O(S)</text>
</a>
</g>
</g>
<!-- CH3CH2O(S)&#45;&gt;H(S) -->
<g id="edge7" class="edge">
<title>CH3CH2O(S)&#45;&gt;H(S)</title>
<path fill="none" stroke="black" d="M229.77,-602.64C376.41,-601.75 631.05,-598.25 723,-584.93 748.84,-581.19 776.94,-574.15 800.29,-567.44"/>
<polygon fill="black" stroke="black" points="801.06,-570.57 809.67,-564.4 799.09,-563.85 801.06,-570.57"/>
<text text-anchor="middle" x="487" y="-610.93" font-family="Times New Roman,serif" font-size="30.00"> &#160;&#160;23 &#160;&#160;2% &#160;&#160;7.05e&#45;07 mol/s &#160;&#160;&#160;9.91E&#45;01</text>
</g>
<!-- CH3CHO(S) -->
<g id="node9" class="node">
<title>CH3CHO(S)</title>
<g id="a_node9"><a xlink:href="27.svg" xlink:title="CH3CHO(S)">
<polygon fill="dodgerblue" stroke="none" points="221,-561.43 21,-561.43 21,-514.43 221,-514.43 221,-561.43"/>
<text text-anchor="middle" x="121" y="-529.43" font-family="Times New Roman,serif" font-size="35.00">CH3CHO(S)</text>
</a>
</g>
</g>
<!-- CH3CHO(S)&#45;&gt;H(S) -->
<g id="edge8" class="edge">
<title>CH3CHO(S)&#45;&gt;H(S)</title>
<path fill="none" stroke="green" d="M220.83,-539.69C377.96,-542.49 679.31,-547.85 800.07,-550.01"/>
<polygon fill="green" stroke="green" points="799.78,-553.52 809.84,-550.2 799.91,-546.52 799.78,-553.52"/>
<text text-anchor="middle" x="487" y="-556.93" font-family="Times New Roman,serif" font-size="30.00"> &#160;&#160;24 &#160;&#160;2% &#160;&#160;8.41e&#45;07 mol/s &#160;&#160;&#160;5.02E&#45;01</text>
</g>
<!-- CH3COH(S) -->
<g id="node10" class="node">
<title>CH3COH(S)</title>
<g id="a_node10"><a xlink:href="16.svg" xlink:title="CH3COH(S)">
<polygon fill="springgreen" stroke="none" points="221,-491.43 21,-491.43 21,-444.43 221,-444.43 221,-491.43"/>
<text text-anchor="middle" x="121" y="-459.43" font-family="Times New Roman,serif" font-size="35.00">CH3COH(S)</text>
</a>
</g>
</g>
<!-- CH3COH(S)&#45;&gt;H(S) -->
<g id="edge10" class="edge">
<title>CH3COH(S)&#45;&gt;H(S)</title>
<path fill="none" stroke="green" d="M220.93,-472.08C378.93,-478.95 675.38,-492.92 723,-502.93 749.28,-508.45 777.34,-518.38 800.56,-527.77"/>
<polygon fill="green" stroke="green" points="798.95,-531.31 809.53,-531.89 801.62,-524.84 798.95,-531.31"/>
<text text-anchor="middle" x="487" y="-511.93" font-family="Times New Roman,serif" font-size="30.00"> &#160;&#160;39 &#160;&#160;12% &#160;&#160;3.95e&#45;06 mol/s &#160;&#160;&#160;5.43E&#45;01</text>
</g>
<!-- CH3COH(S)&#45;&gt;H(S) -->
<g id="edge23" class="edge">
<title>CH3COH(S)&#45;&gt;H(S)</title>
<path fill="none" stroke="green" d="M203.68,-444.5C219.26,-440.94 235.54,-437.82 251,-435.93 303.06,-429.57 673.99,-417.26 723,-435.93 766.7,-452.58 805.01,-491.59 828.29,-519.56"/>
<polygon fill="green" stroke="green" points="826,-521.29 835.02,-526.85 831.44,-516.88 826,-521.29"/>
<text text-anchor="middle" x="487" y="-444.93" font-family="Times New Roman,serif" font-size="30.00"> &#160;&#160;71 &#160;&#160;2% &#160;&#160;6.48e&#45;07 mol/s &#160;&#160;&#160;5.00E&#45;01</text>
</g>
<!-- CH3CO(S) -->
<g id="node11" class="node">
<title>CH3CO(S)</title>
<g id="a_node11"><a xlink:href="28.svg" xlink:title="CH3CO(S)">
<polygon fill="springgreen" stroke="none" points="208.5,-420.43 33.5,-420.43 33.5,-373.43 208.5,-373.43 208.5,-420.43"/>
<text text-anchor="middle" x="121" y="-388.43" font-family="Times New Roman,serif" font-size="35.00">CH3CO(S)</text>
</a>
</g>
</g>
<!-- CH3CO(S)&#45;&gt;H(S) -->
<g id="edge11" class="edge">
<title>CH3CO(S)&#45;&gt;H(S)</title>
<path fill="none" stroke="green" d="M208.27,-386.49C352.31,-370.59 634.7,-346.37 723,-388.93 778.3,-415.58 817.22,-478.75 837.01,-517.86"/>
<polygon fill="green" stroke="green" points="834.3,-519.3 841.85,-526.73 840.59,-516.21 834.3,-519.3"/>
<text text-anchor="middle" x="487" y="-397.93" font-family="Times New Roman,serif" font-size="30.00"> &#160;&#160;48 &#160;&#160;4% &#160;&#160;1.47e&#45;06 mol/s &#160;&#160;&#160;5.43E&#45;01</text>
</g>
<!-- CH2CO(S) -->
<g id="node12" class="node">
<title>CH2CO(S)</title>
<g id="a_node12"><a xlink:href="31.svg" xlink:title="CH2CO(S)">
<polygon fill="springgreen" stroke="none" points="208.5,-355.43 33.5,-355.43 33.5,-308.43 208.5,-308.43 208.5,-355.43"/>
<text text-anchor="middle" x="121" y="-323.43" font-family="Times New Roman,serif" font-size="35.00">CH2CO(S)</text>
</a>
</g>
</g>
<!-- CH2CO(S)&#45;&gt;H(S) -->
<g id="edge12" class="edge">
<title>CH2CO(S)&#45;&gt;H(S)</title>
<path fill="none" stroke="green" d="M208.38,-326.58C364.07,-317.63 679.67,-302.94 723,-327.93 793.93,-368.84 829.38,-465.28 843.83,-516.91"/>
<polygon fill="green" stroke="green" points="840.7,-517.76 846.67,-526.51 847.46,-515.94 840.7,-517.76"/>
<text text-anchor="middle" x="487" y="-336.93" font-family="Times New Roman,serif" font-size="30.00"> &#160;&#160;51 &#160;&#160;16% &#160;&#160;5.42e&#45;06 mol/s &#160;&#160;&#160;5.18E&#45;01</text>
</g>
<!-- CHCO(S) -->
<g id="node13" class="node">
<title>CHCO(S)</title>
<g id="a_node13"><a xlink:href="34.svg" xlink:title="CHCO(S)">
<polygon fill="springgreen" stroke="none" points="199.5,-290.43 42.5,-290.43 42.5,-243.43 199.5,-243.43 199.5,-290.43"/>
<text text-anchor="middle" x="121" y="-258.43" font-family="Times New Roman,serif" font-size="35.00">CHCO(S)</text>
</a>
</g>
</g>
<!-- CHCO(S)&#45;&gt;H(S) -->
<g id="edge13" class="edge">
<title>CHCO(S)&#45;&gt;H(S)</title>
<path fill="none" stroke="black" d="M199.3,-258.38C341.71,-244.2 638.69,-222.45 723,-276.93 807.18,-331.33 837.52,-456.65 847.53,-517.1"/>
<polygon fill="black" stroke="black" points="844.17,-517.26 849.17,-526.6 851.08,-516.18 844.17,-517.26"/>
<text text-anchor="middle" x="487" y="-285.93" font-family="Times New Roman,serif" font-size="30.00"> &#160;&#160;54 &#160;&#160;0% &#160;&#160;2.07e&#45;09 mol/s &#160;&#160;&#160;9.99E&#45;01</text>
</g>
<!-- CH2COH(S) -->
<g id="node20" class="node">
<title>CH2COH(S)</title>
<g id="a_node20"><a xlink:href="19.svg" xlink:title="CH2COH(S)">
<polygon fill="springgreen" stroke="none" points="221,-225.43 21,-225.43 21,-178.43 221,-178.43 221,-225.43"/>
<text text-anchor="middle" x="121" y="-193.43" font-family="Times New Roman,serif" font-size="35.00">CH2COH(S)</text>
</a>
</g>
</g>
<!-- CH2COH(S)&#45;&gt;H(S) -->
<g id="edge24" class="edge">
<title>CH2COH(S)&#45;&gt;H(S)</title>
<path fill="none" stroke="green" d="M220.73,-196.21C380.75,-187.82 682.99,-176.02 723,-203.93 827.33,-276.71 847.44,-444.35 851.2,-516.68"/>
<polygon fill="green" stroke="green" points="847.74,-516.61 851.68,-526.44 854.73,-516.3 847.74,-516.61"/>
<text text-anchor="middle" x="487" y="-212.93" font-family="Times New Roman,serif" font-size="30.00"> &#160;&#160;74 &#160;&#160;12% &#160;&#160;3.95e&#45;06 mol/s &#160;&#160;&#160;5.00E&#45;01</text>
</g>
<!-- H2O(S) -->
<g id="node21" class="node">
<title>H2O(S)</title>
<g id="a_node21"><a xlink:href="59.svg" xlink:title="H2O(S)">
<polygon fill="springgreen" stroke="none" points="185,-160.43 57,-160.43 57,-113.43 185,-113.43 185,-160.43"/>
<text text-anchor="middle" x="121" y="-128.43" font-family="Times New Roman,serif" font-size="35.00">H2O(S)</text>
</a>
</g>
</g>
<!-- H2O(S)&#45;&gt;H(S) -->
<g id="edge25" class="edge">
<title>H2O(S)&#45;&gt;H(S)</title>
<path fill="none" stroke="green" d="M184.96,-129.31C321.56,-114.16 639.56,-86.79 723,-148.93 783.68,-194.12 830.39,-427.87 846.19,-516.66"/>
<polygon fill="green" stroke="green" points="842.91,-517.23 848.09,-526.47 849.81,-516.02 842.91,-517.23"/>
<text text-anchor="middle" x="487" y="-157.93" font-family="Times New Roman,serif" font-size="30.00"> &#160;&#160;150 &#160;&#160;7% &#160;&#160;2.48e&#45;06 mol/s &#160;&#160;&#160;5.02E&#45;01</text>
</g>
<!-- COOH(S) -->
<g id="node22" class="node">
<title>COOH(S)</title>
<g id="a_node22"><a xlink:href="64.svg" xlink:title="COOH(S)">
<polygon fill="dodgerblue" stroke="none" points="200.5,-95.43 41.5,-95.43 41.5,-48.43 200.5,-48.43 200.5,-95.43"/>
<text text-anchor="middle" x="121" y="-63.43" font-family="Times New Roman,serif" font-size="35.00">COOH(S)</text>
</a>
</g>
</g>
<!-- COOH(S)&#45;&gt;H(S) -->
<g id="edge26" class="edge">
<title>COOH(S)&#45;&gt;H(S)</title>
<path fill="none" stroke="black" d="M188.45,-48.48C308.83,-10.62 565.09,48.22 723,-72.93 794.9,-128.1 835.88,-416.71 848.09,-516.75"/>
<polygon fill="black" stroke="black" points="844.71,-516.94 849.37,-526.45 851.66,-516.11 844.71,-516.94"/>
<text text-anchor="middle" x="487" y="-81.93" font-family="Times New Roman,serif" font-size="30.00"> &#160;&#160;156 &#160;&#160;7% &#160;&#160;2.5e&#45;06 mol/s &#160;&#160;&#160;9.85E&#45;01</text>
</g>
</g>
</svg>
