<?xml version="1.0" encoding="UTF-8" standalone="no"?>
<!DOCTYPE svg PUBLIC "-//W3C//DTD SVG 1.1//EN"
 "http://www.w3.org/Graphics/SVG/1.1/DTD/svg11.dtd">
<!-- Generated by graphviz version 8.0.3 (20230416.2022)
 -->
<!-- Title: G Pages: 1 -->
<svg width="640pt" height="77pt"
 viewBox="0.00 0.00 720.00 86.88" xmlns="http://www.w3.org/2000/svg" xmlns:xlink="http://www.w3.org/1999/xlink">
<g id="graph0" class="graph" transform="scale(0.440014 0.440014) rotate(0) translate(4 171.5)">
<title>G</title>
<polygon fill="white" stroke="none" points="-4,4 -4,-171.5 1450.5,-171.5 1450.5,4 -4,4"/>
<text text-anchor="middle" x="723.25" y="-134.7" font-family="Arial" font-size="36.00" fill="blue">Reaction Path Analysis</text>
<!-- COOH(S) -->
<g id="node1" class="node">
<title>COOH(S)</title>
<g id="a_node1"><a xlink:href="64.svg" xlink:title="COOH(S)">
<polygon fill="dodgerblue" stroke="none" points="798.5,-79 639.5,-79 639.5,-32 798.5,-32 798.5,-79"/>
<text text-anchor="middle" x="719" y="-47" font-family="Times New Roman,serif" font-size="35.00">COOH(S)</text>
</a>
</g>
</g>
<!-- CO2(S) -->
<g id="node4" class="node">
<title>CO2(S)</title>
<g id="a_node4"><a xlink:href="63.svg" xlink:title="CO2(S)">
<polygon fill="dodgerblue" stroke="none" points="1446.5,-79 1319.5,-79 1319.5,-32 1446.5,-32 1446.5,-79"/>
<text text-anchor="middle" x="1383" y="-47" font-family="Times New Roman,serif" font-size="35.00">CO2(S)</text>
</a>
</g>
</g>
<!-- COOH(S)&#45;&gt;CO2(S) -->
<g id="edge3" class="edge">
<title>COOH(S)&#45;&gt;CO2(S)</title>
<path fill="none" stroke="black" stroke-width="5" d="M798.21,-55.5C924,-55.5 1170.13,-55.5 1298.93,-55.5"/>
<polygon fill="black" stroke="black" stroke-width="5" points="1293.69,-64.25 1313.69,-55.5 1293.69,-46.75 1293.69,-64.25"/>
<text text-anchor="middle" x="1051" y="-64.5" font-family="Times New Roman,serif" font-size="30.00"> &#160;&#160;156 &#160;&#160;99% &#160;&#160;2.5e&#45;06 mol/s &#160;&#160;&#160;9.85E&#45;01</text>
</g>
<!-- CO(S) -->
<g id="node2" class="node">
<title>CO(S)</title>
<g id="a_node2"><a xlink:href="54.svg" xlink:title="CO(S)">
<polygon fill="orange" stroke="none" points="109.5,-112 0.5,-112 0.5,-65 109.5,-65 109.5,-112"/>
<text text-anchor="middle" x="55" y="-80" font-family="Times New Roman,serif" font-size="35.00">CO(S)</text>
</a>
</g>
</g>
<!-- CO(S)&#45;&gt;COOH(S) -->
<g id="edge1" class="edge">
<title>CO(S)&#45;&gt;COOH(S)</title>
<path fill="none" stroke="black" stroke-width="6" d="M109.16,-88C207.19,-86.76 423.54,-82.48 619.12,-67.32"/>
<polygon fill="black" stroke="black" stroke-width="6" points="614.7,-77.73 633.8,-65.67 613.03,-56.8 614.7,-77.73"/>
<text text-anchor="middle" x="387" y="-95.5" font-family="Times New Roman,serif" font-size="30.00"> &#160;&#160;154 &#160;&#160;100% &#160;&#160;2.5e&#45;06 mol/s &#160;&#160;&#160;7.20E&#45;01</text>
</g>
<!-- OH(S) -->
<g id="node3" class="node">
<title>OH(S)</title>
<g id="a_node3"><a xlink:href="60.svg" xlink:title="OH(S)">
<polygon fill="purple" stroke="none" points="110,-47 0,-47 0,0 110,0 110,-47"/>
<text text-anchor="middle" x="55" y="-15" font-family="Times New Roman,serif" font-size="35.00">OH(S)</text>
</a>
</g>
</g>
<!-- OH(S)&#45;&gt;COOH(S) -->
<g id="edge2" class="edge">
<title>OH(S)&#45;&gt;COOH(S)</title>
<path fill="none" stroke="black" stroke-width="6" d="M109.77,-20.36C208.33,-15.47 424.91,-8.76 619.38,-32.32"/>
<polygon fill="black" stroke="black" stroke-width="6" points="612.77,-42.82 633.94,-34.93 615.42,-21.99 612.77,-42.82"/>
<text text-anchor="middle" x="387" y="-42.5" font-family="Times New Roman,serif" font-size="30.00"> &#160;&#160;154 &#160;&#160;100% &#160;&#160;2.5e&#45;06 mol/s &#160;&#160;&#160;7.20E&#45;01</text>
</g>
</g>
</svg>
