<?xml version="1.0" encoding="UTF-8" standalone="no"?>
<!DOCTYPE svg PUBLIC "-//W3C//DTD SVG 1.1//EN"
 "http://www.w3.org/Graphics/SVG/1.1/DTD/svg11.dtd">
<!-- Generated by graphviz version 8.0.3 (20230416.2022)
 -->
<!-- Title: G Pages: 1 -->
<svg width="596pt" height="640pt"
 viewBox="0.00 0.00 670.18 720.00" xmlns="http://www.w3.org/2000/svg" xmlns:xlink="http://www.w3.org/1999/xlink">
<g id="graph0" class="graph" transform="scale(0.349805 0.349805) rotate(0) translate(4 1825.59)">
<title>G</title>
<polygon fill="white" stroke="none" points="-4,4 -4,-1825.59 1699,-1825.59 1699,4 -4,4"/>
<text text-anchor="middle" x="847.5" y="-1788.79" font-family="Arial" font-size="36.00" fill="blue">Reaction Path Analysis</text>
<!-- PT(S) -->
<g id="node1" class="node">
<title>PT(S)</title>
<g id="a_node1"><a xlink:href="66.svg" xlink:title="PT(S)">
<polygon fill="darkorange" stroke="none" points="885.5,-902.09 784.5,-902.09 784.5,-855.09 885.5,-855.09 885.5,-902.09"/>
<text text-anchor="middle" x="835" y="-870.09" font-family="Times New Roman,serif" font-size="35.00">PT(S)</text>
</a>
</g>
</g>
<!-- CH3CH2OH(S) -->
<g id="node2" class="node">
<title>CH3CH2OH(S)</title>
<g id="a_node2"><a xlink:href="14.svg" xlink:title="CH3CH2OH(S)">
<polygon fill="dodgerblue" stroke="none" points="1695,-1742.09 1453,-1742.09 1453,-1695.09 1695,-1695.09 1695,-1742.09"/>
<text text-anchor="middle" x="1574" y="-1710.09" font-family="Times New Roman,serif" font-size="35.00">CH3CH2OH(S)</text>
</a>
</g>
</g>
<!-- PT(S)&#45;&gt;CH3CH2OH(S) -->
<g id="edge1" class="edge">
<title>PT(S)&#45;&gt;CH3CH2OH(S)</title>
<path fill="none" stroke="green" d="M835.91,-901.81C835.99,-1023.37 843.03,-1585 965,-1693.59 1033.02,-1754.15 1285.2,-1744.48 1442.63,-1731.71"/>
<polygon fill="green" stroke="green" points="1442.65,-1735.13 1452.33,-1730.82 1442.07,-1728.16 1442.65,-1735.13"/>
<text text-anchor="middle" x="1204.5" y="-1749.59" font-family="Times New Roman,serif" font-size="30.00"> &#160;&#160;2 &#160;&#160;12% &#160;&#160;5.48e&#45;06 mol/s &#160;&#160;&#160;5.00E&#45;01</text>
</g>
<!-- CH3CHO(S) -->
<g id="node3" class="node">
<title>CH3CHO(S)</title>
<g id="a_node3"><a xlink:href="27.svg" xlink:title="CH3CHO(S)">
<polygon fill="dodgerblue" stroke="none" points="1674,-1630.09 1474,-1630.09 1474,-1583.09 1674,-1583.09 1674,-1630.09"/>
<text text-anchor="middle" x="1574" y="-1598.09" font-family="Times New Roman,serif" font-size="35.00">CH3CHO(S)</text>
</a>
</g>
</g>
<!-- PT(S)&#45;&gt;CH3CHO(S) -->
<g id="edge12" class="edge">
<title>PT(S)&#45;&gt;CH3CHO(S)</title>
<path fill="none" stroke="black" d="M836.11,-901.93C837.22,-1019.19 848.68,-1542.31 965,-1640.59 1005.65,-1674.94 1391.22,-1647.43 1444,-1640.59 1457.91,-1638.79 1472.46,-1635.94 1486.56,-1632.63"/>
<polygon fill="black" stroke="black" points="1487.36,-1635.8 1496.25,-1630.03 1485.7,-1629 1487.36,-1635.8"/>
<text text-anchor="middle" x="1204.5" y="-1665.59" font-family="Times New Roman,serif" font-size="30.00"> &#160;&#160;23 &#160;&#160;3% &#160;&#160;7.05e&#45;07 mol/s &#160;&#160;&#160;9.91E&#45;01</text>
</g>
<!-- PT(S)&#45;&gt;CH3CHO(S) -->
<g id="edge25" class="edge">
<title>PT(S)&#45;&gt;CH3CHO(S)</title>
<path fill="none" stroke="black" d="M836.52,-901.98C839.55,-1013.84 858.63,-1492.59 965,-1584.59 969.65,-1588.62 1289.37,-1598.43 1463.24,-1603.48"/>
<polygon fill="black" stroke="black" points="1463.12,-1607.01 1473.22,-1603.8 1463.33,-1600.01 1463.12,-1607.01"/>
<text text-anchor="middle" x="1204.5" y="-1611.59" font-family="Times New Roman,serif" font-size="30.00"> &#160;&#160;70 &#160;&#160;0% &#160;&#160;1.53e&#45;07 mol/s &#160;&#160;&#160;5.55E&#45;01</text>
</g>
<!-- CH3(S) -->
<g id="node5" class="node">
<title>CH3(S)</title>
<g id="a_node5"><a xlink:href="55.svg" xlink:title="CH3(S)">
<polygon fill="dodgerblue" stroke="none" points="1637,-1490.09 1511,-1490.09 1511,-1443.09 1637,-1443.09 1637,-1490.09"/>
<text text-anchor="middle" x="1574" y="-1458.09" font-family="Times New Roman,serif" font-size="35.00">CH3(S)</text>
</a>
</g>
</g>
<!-- PT(S)&#45;&gt;CH3(S) -->
<g id="edge28" class="edge">
<title>PT(S)&#45;&gt;CH3(S)</title>
<path fill="none" stroke="black" d="M837.31,-901.98C843.5,-1002.82 873.39,-1398.75 965,-1472.59 1005.76,-1505.45 1348.4,-1483.78 1500.62,-1472.36"/>
<polygon fill="black" stroke="black" points="1500.54,-1475.81 1510.24,-1471.56 1500.01,-1468.83 1500.54,-1475.81"/>
<text text-anchor="middle" x="1204.5" y="-1498.59" font-family="Times New Roman,serif" font-size="30.00"> &#160;&#160;99 &#160;&#160;0% &#160;&#160;1.58e&#45;08 mol/s &#160;&#160;&#160;1.00E+00</text>
</g>
<!-- CO(S) -->
<g id="node6" class="node">
<title>CO(S)</title>
<g id="a_node6"><a xlink:href="54.svg" xlink:title="CO(S)">
<polygon fill="orange" stroke="none" points="1628.5,-1322.09 1519.5,-1322.09 1519.5,-1275.09 1628.5,-1275.09 1628.5,-1322.09"/>
<text text-anchor="middle" x="1574" y="-1290.09" font-family="Times New Roman,serif" font-size="35.00">CO(S)</text>
</a>
</g>
</g>
<!-- PT(S)&#45;&gt;CO(S) -->
<g id="edge29" class="edge">
<title>PT(S)&#45;&gt;CO(S)</title>
<path fill="none" stroke="black" d="M838.55,-901.97C848.75,-990.45 889.67,-1302.77 965,-1360.59 1007.22,-1393 1392.11,-1372.42 1444,-1360.59 1472.75,-1354.04 1502.56,-1340.25 1526.27,-1327.33"/>
<polygon fill="black" stroke="black" points="1527.68,-1329.99 1534.71,-1322.06 1524.27,-1323.88 1527.68,-1329.99"/>
<text text-anchor="middle" x="1204.5" y="-1386.59" font-family="Times New Roman,serif" font-size="30.00"> &#160;&#160;99 &#160;&#160;0% &#160;&#160;1.58e&#45;08 mol/s &#160;&#160;&#160;1.00E+00</text>
</g>
<!-- PT(S)&#45;&gt;CO(S) -->
<g id="edge31" class="edge">
<title>PT(S)&#45;&gt;CO(S)</title>
<path fill="none" stroke="black" d="M839.42,-902.05C851.9,-983.91 897.75,-1254.69 965,-1304.59 1007.8,-1336.35 1361.42,-1314.27 1508.85,-1303.53"/>
<polygon fill="black" stroke="black" points="1508.81,-1306.97 1518.52,-1302.75 1508.29,-1299.99 1508.81,-1306.97"/>
<text text-anchor="middle" x="1204.5" y="-1329.59" font-family="Times New Roman,serif" font-size="30.00"> &#160;&#160;108 &#160;&#160;0% &#160;&#160;2.07e&#45;09 mol/s &#160;&#160;&#160;9.80E&#45;01</text>
</g>
<!-- CO2(S) -->
<g id="node7" class="node">
<title>CO2(S)</title>
<g id="a_node7"><a xlink:href="63.svg" xlink:title="CO2(S)">
<polygon fill="dodgerblue" stroke="none" points="1637.5,-1166.09 1510.5,-1166.09 1510.5,-1119.09 1637.5,-1119.09 1637.5,-1166.09"/>
<text text-anchor="middle" x="1574" y="-1134.09" font-family="Times New Roman,serif" font-size="35.00">CO2(S)</text>
</a>
</g>
</g>
<!-- PT(S)&#45;&gt;CO2(S) -->
<g id="edge37" class="edge">
<title>PT(S)&#45;&gt;CO2(S)</title>
<path fill="none" stroke="black" d="M839.48,-901.82C848.8,-954.62 879.64,-1083.25 965,-1136.59 1009.28,-1164.27 1348.36,-1152.74 1500.05,-1146.09"/>
<polygon fill="black" stroke="black" points="1499.81,-1149.56 1509.64,-1145.61 1499.5,-1142.56 1499.81,-1149.56"/>
<text text-anchor="middle" x="1204.5" y="-1162.59" font-family="Times New Roman,serif" font-size="30.00"> &#160;&#160;156 &#160;&#160;5% &#160;&#160;2.5e&#45;06 mol/s &#160;&#160;&#160;9.85E&#45;01</text>
</g>
<!-- H2O(S) -->
<g id="node8" class="node">
<title>H2O(S)</title>
<g id="a_node8"><a xlink:href="59.svg" xlink:title="H2O(S)">
<polygon fill="springgreen" stroke="none" points="1638,-1084.09 1510,-1084.09 1510,-1037.09 1638,-1037.09 1638,-1084.09"/>
<text text-anchor="middle" x="1574" y="-1052.09" font-family="Times New Roman,serif" font-size="35.00">H2O(S)</text>
</a>
</g>
</g>
<!-- PT(S)&#45;&gt;H2O(S) -->
<g id="edge7" class="edge">
<title>PT(S)&#45;&gt;H2O(S)</title>
<path fill="none" stroke="green" d="M848.52,-902.02C868.18,-936.08 909.81,-998.1 965,-1024.59 1013.04,-1047.65 1390.86,-1043.64 1444,-1047.59 1461.93,-1048.93 1481.23,-1050.69 1499.3,-1052.49"/>
<polygon fill="green" stroke="green" points="1498.77,-1056.06 1509.07,-1053.58 1499.47,-1049.09 1498.77,-1056.06"/>
<text text-anchor="middle" x="1204.5" y="-1056.59" font-family="Times New Roman,serif" font-size="30.00"> &#160;&#160;14 &#160;&#160;5% &#160;&#160;2.48e&#45;06 mol/s &#160;&#160;&#160;5.00E&#45;01</text>
</g>
<!-- CH3CHOH(S) -->
<g id="node9" class="node">
<title>CH3CHOH(S)</title>
<g id="a_node9"><a xlink:href="15.svg" xlink:title="CH3CHOH(S)">
<polygon fill="dodgerblue" stroke="none" points="1686,-1019.09 1462,-1019.09 1462,-972.09 1686,-972.09 1686,-1019.09"/>
<text text-anchor="middle" x="1574" y="-987.09" font-family="Times New Roman,serif" font-size="35.00">CH3CHOH(S)</text>
</a>
</g>
</g>
<!-- PT(S)&#45;&gt;CH3CHOH(S) -->
<g id="edge8" class="edge">
<title>PT(S)&#45;&gt;CH3CHOH(S)</title>
<path fill="none" stroke="black" d="M860.85,-901.83C885.27,-923.04 924.64,-953.08 965,-966.59 987.61,-974.17 1280.61,-985.48 1451.45,-991.49"/>
<polygon fill="black" stroke="black" points="1451.16,-995.02 1461.27,-991.87 1451.4,-988.02 1451.16,-995.02"/>
<text text-anchor="middle" x="1204.5" y="-999.59" font-family="Times New Roman,serif" font-size="30.00"> &#160;&#160;15 &#160;&#160;10% &#160;&#160;4.77e&#45;06 mol/s &#160;&#160;&#160;9.99E&#45;01</text>
</g>
<!-- CH3COH(S) -->
<g id="node10" class="node">
<title>CH3COH(S)</title>
<g id="a_node10"><a xlink:href="16.svg" xlink:title="CH3COH(S)">
<polygon fill="springgreen" stroke="none" points="1674,-954.09 1474,-954.09 1474,-907.09 1674,-907.09 1674,-954.09"/>
<text text-anchor="middle" x="1574" y="-922.09" font-family="Times New Roman,serif" font-size="35.00">CH3COH(S)</text>
</a>
</g>
</g>
<!-- PT(S)&#45;&gt;CH3COH(S) -->
<g id="edge9" class="edge">
<title>PT(S)&#45;&gt;CH3COH(S)</title>
<path fill="none" stroke="black" d="M885.38,-894.44C909.18,-901.34 938.3,-908.73 965,-912.59 1057.85,-926.02 1314.7,-929.48 1463.17,-930.34"/>
<polygon fill="black" stroke="black" points="1463.09,-933.85 1473.1,-930.4 1463.12,-926.85 1463.09,-933.85"/>
<text text-anchor="middle" x="1204.5" y="-938.59" font-family="Times New Roman,serif" font-size="30.00"> &#160;&#160;16 &#160;&#160;10% &#160;&#160;4.62e&#45;06 mol/s &#160;&#160;&#160;5.57E&#45;01</text>
</g>
<!-- CH2CHOH(S) -->
<g id="node11" class="node">
<title>CH2CHOH(S)</title>
<g id="a_node11"><a xlink:href="18.svg" xlink:title="CH2CHOH(S)">
<polygon fill="dodgerblue" stroke="none" points="1686,-889.09 1462,-889.09 1462,-842.09 1686,-842.09 1686,-889.09"/>
<text text-anchor="middle" x="1574" y="-857.09" font-family="Times New Roman,serif" font-size="35.00">CH2CHOH(S)</text>
</a>
</g>
</g>
<!-- PT(S)&#45;&gt;CH2CHOH(S) -->
<g id="edge10" class="edge">
<title>PT(S)&#45;&gt;CH2CHOH(S)</title>
<path fill="none" stroke="black" d="M885.21,-877.73C999.71,-875.71 1286.72,-870.64 1451.53,-867.74"/>
<polygon fill="black" stroke="black" points="1451.26,-871.22 1461.2,-867.55 1451.14,-864.22 1451.26,-871.22"/>
<text text-anchor="middle" x="1204.5" y="-884.59" font-family="Times New Roman,serif" font-size="30.00"> &#160;&#160;17 &#160;&#160;0% &#160;&#160;2.54e&#45;09 mol/s &#160;&#160;&#160;7.68E&#45;01</text>
</g>
<!-- CH2COH(S) -->
<g id="node12" class="node">
<title>CH2COH(S)</title>
<g id="a_node12"><a xlink:href="19.svg" xlink:title="CH2COH(S)">
<polygon fill="springgreen" stroke="none" points="1674,-810.09 1474,-810.09 1474,-763.09 1674,-763.09 1674,-810.09"/>
<text text-anchor="middle" x="1574" y="-778.09" font-family="Times New Roman,serif" font-size="35.00">CH2COH(S)</text>
</a>
</g>
</g>
<!-- PT(S)&#45;&gt;CH2COH(S) -->
<g id="edge11" class="edge">
<title>PT(S)&#45;&gt;CH2COH(S)</title>
<path fill="none" stroke="green" d="M885.22,-856.4C908.86,-846.75 937.89,-836.35 965,-830.59 1173.65,-786.26 1231.47,-818.77 1444,-800.59 1450.25,-800.06 1456.68,-799.47 1463.15,-798.86"/>
<polygon fill="green" stroke="green" points="1463.48,-802.24 1473.09,-797.79 1462.8,-795.28 1463.48,-802.24"/>
<text text-anchor="middle" x="1204.5" y="-839.59" font-family="Times New Roman,serif" font-size="30.00"> &#160;&#160;18 &#160;&#160;0% &#160;&#160;2.03e&#45;09 mol/s &#160;&#160;&#160;5.19E&#45;01</text>
</g>
<!-- PT(S)&#45;&gt;CH2COH(S) -->
<g id="edge14" class="edge">
<title>PT(S)&#45;&gt;CH2COH(S)</title>
<path fill="none" stroke="green" d="M852.98,-855.51C875.12,-827.56 916.78,-781.97 965,-763.59 1014.73,-744.64 1390.98,-758.9 1444,-763.59 1450.47,-764.17 1457.1,-764.9 1463.77,-765.74"/>
<polygon fill="green" stroke="green" points="1462.91,-769.29 1473.28,-767.16 1463.84,-762.35 1462.91,-769.29"/>
<text text-anchor="middle" x="1204.5" y="-772.59" font-family="Times New Roman,serif" font-size="30.00"> &#160;&#160;39 &#160;&#160;17% &#160;&#160;3.95e&#45;06 mol/s &#160;&#160;&#160;5.43E&#45;01</text>
</g>
<!-- CH2CH2OH(S) -->
<g id="node13" class="node">
<title>CH2CH2OH(S)</title>
<g id="a_node13"><a xlink:href="17.svg" xlink:title="CH2CH2OH(S)">
<polygon fill="purple" stroke="none" points="1695,-734.09 1453,-734.09 1453,-687.09 1695,-687.09 1695,-734.09"/>
<text text-anchor="middle" x="1574" y="-702.09" font-family="Times New Roman,serif" font-size="35.00">CH2CH2OH(S)</text>
</a>
</g>
</g>
<!-- PT(S)&#45;&gt;CH2CH2OH(S) -->
<g id="edge13" class="edge">
<title>PT(S)&#45;&gt;CH2CH2OH(S)</title>
<path fill="none" stroke="black" d="M846.33,-855.16C864.26,-817.77 905.07,-745.85 965,-716.59 1045.94,-677.08 1289.15,-687.58 1442.32,-698.98"/>
<polygon fill="black" stroke="black" points="1441.95,-702.53 1452.19,-699.8 1442.48,-695.55 1441.95,-702.53"/>
<text text-anchor="middle" x="1204.5" y="-725.59" font-family="Times New Roman,serif" font-size="30.00"> &#160;&#160;37 &#160;&#160;0% &#160;&#160;2.54e&#45;09 mol/s &#160;&#160;&#160;9.99E&#45;01</text>
</g>
<!-- CH2CO(S) -->
<g id="node14" class="node">
<title>CH2CO(S)</title>
<g id="a_node14"><a xlink:href="31.svg" xlink:title="CH2CO(S)">
<polygon fill="springgreen" stroke="none" points="1661.5,-650.09 1486.5,-650.09 1486.5,-603.09 1661.5,-603.09 1661.5,-650.09"/>
<text text-anchor="middle" x="1574" y="-618.09" font-family="Times New Roman,serif" font-size="35.00">CH2CO(S)</text>
</a>
</g>
</g>
<!-- PT(S)&#45;&gt;CH2CO(S) -->
<g id="edge15" class="edge">
<title>PT(S)&#45;&gt;CH2CO(S)</title>
<path fill="none" stroke="green" d="M841.38,-855.12C853.75,-807.21 889.18,-698.76 965,-652.59 1010.5,-624.89 1390.78,-634.94 1444,-632.59 1454.33,-632.14 1465.13,-631.65 1475.89,-631.16"/>
<polygon fill="green" stroke="green" points="1475.78,-634.62 1485.61,-630.67 1475.46,-627.63 1475.78,-634.62"/>
<text text-anchor="middle" x="1204.5" y="-661.59" font-family="Times New Roman,serif" font-size="30.00"> &#160;&#160;48 &#160;&#160;6% &#160;&#160;1.47e&#45;06 mol/s &#160;&#160;&#160;5.43E&#45;01</text>
</g>
<!-- PT(S)&#45;&gt;CH2CO(S) -->
<g id="edge27" class="edge">
<title>PT(S)&#45;&gt;CH2CO(S)</title>
<path fill="none" stroke="green" d="M838.39,-855.27C845.58,-798.8 872.58,-655.03 965,-595.59 1009.76,-566.8 1391.15,-589.33 1444,-595.59 1454.83,-596.88 1466.07,-598.75 1477.2,-600.94"/>
<polygon fill="green" stroke="green" points="1476.31,-604.54 1486.82,-603.14 1477.73,-597.68 1476.31,-604.54"/>
<text text-anchor="middle" x="1204.5" y="-604.59" font-family="Times New Roman,serif" font-size="30.00"> &#160;&#160;74 &#160;&#160;8% &#160;&#160;3.95e&#45;06 mol/s &#160;&#160;&#160;5.00E&#45;01</text>
</g>
<!-- CHCO(S) -->
<g id="node15" class="node">
<title>CHCO(S)</title>
<g id="a_node15"><a xlink:href="34.svg" xlink:title="CHCO(S)">
<polygon fill="springgreen" stroke="none" points="1652.5,-566.09 1495.5,-566.09 1495.5,-519.09 1652.5,-519.09 1652.5,-566.09"/>
<text text-anchor="middle" x="1574" y="-534.09" font-family="Times New Roman,serif" font-size="35.00">CHCO(S)</text>
</a>
</g>
</g>
<!-- PT(S)&#45;&gt;CHCO(S) -->
<g id="edge16" class="edge">
<title>PT(S)&#45;&gt;CHCO(S)</title>
<path fill="none" stroke="green" d="M836.67,-855.5C839.9,-792.57 858.49,-617.89 965,-544.59 1006.68,-515.91 1326.93,-529.07 1485.13,-537.48"/>
<polygon fill="green" stroke="green" points="1484.6,-541.01 1494.78,-538.06 1484.98,-534.02 1484.6,-541.01"/>
<text text-anchor="middle" x="1204.5" y="-553.59" font-family="Times New Roman,serif" font-size="30.00"> &#160;&#160;51 &#160;&#160;11% &#160;&#160;5.42e&#45;06 mol/s &#160;&#160;&#160;5.18E&#45;01</text>
</g>
<!-- CH3C(S) -->
<g id="node17" class="node">
<title>CH3C(S)</title>
<g id="a_node17"><a xlink:href="40.svg" xlink:title="CH3C(S)">
<polygon fill="springgreen" stroke="none" points="1648.5,-478.09 1499.5,-478.09 1499.5,-431.09 1648.5,-431.09 1648.5,-478.09"/>
<text text-anchor="middle" x="1574" y="-446.09" font-family="Times New Roman,serif" font-size="35.00">CH3C(S)</text>
</a>
</g>
</g>
<!-- PT(S)&#45;&gt;CH3C(S) -->
<g id="edge32" class="edge">
<title>PT(S)&#45;&gt;CH3C(S)</title>
<path fill="none" stroke="black" d="M835.52,-855.27C835.51,-786.13 845.94,-581.48 965,-490.59 1007.37,-458.25 1390.81,-468.1 1444,-464.59 1458.52,-463.64 1473.95,-462.52 1488.9,-461.39"/>
<polygon fill="black" stroke="black" points="1488.98,-464.82 1498.68,-460.57 1488.45,-457.84 1488.98,-464.82"/>
<text text-anchor="middle" x="1204.5" y="-499.59" font-family="Times New Roman,serif" font-size="30.00"> &#160;&#160;120 &#160;&#160;0% &#160;&#160;1.82e&#45;08 mol/s &#160;&#160;&#160;1.00E+00</text>
</g>
<!-- C(S) -->
<g id="node22" class="node">
<title>C(S)</title>
<g id="a_node22"><a xlink:href="58.svg" xlink:title="C(S)">
<polygon fill="dodgerblue" stroke="none" points="1615.5,-377.09 1532.5,-377.09 1532.5,-330.09 1615.5,-330.09 1615.5,-377.09"/>
<text text-anchor="middle" x="1574" y="-345.09" font-family="Times New Roman,serif" font-size="35.00">C(S)</text>
</a>
</g>
</g>
<!-- PT(S)&#45;&gt;C(S) -->
<g id="edge30" class="edge">
<title>PT(S)&#45;&gt;C(S)</title>
<path fill="none" stroke="black" d="M838.43,-855.13C848.3,-764.79 888.57,-441.43 965,-379.59 986.51,-362.19 1380.15,-355.86 1522.32,-354.13"/>
<polygon fill="black" stroke="black" points="1521.95,-357.62 1531.91,-354.01 1521.87,-350.62 1521.95,-357.62"/>
<text text-anchor="middle" x="1204.5" y="-388.59" font-family="Times New Roman,serif" font-size="30.00"> &#160;&#160;108 &#160;&#160;0% &#160;&#160;2.07e&#45;09 mol/s &#160;&#160;&#160;9.80E&#45;01</text>
</g>
<!-- CH3CH2O(S) -->
<g id="node23" class="node">
<title>CH3CH2O(S)</title>
<g id="a_node23"><a xlink:href="26.svg" xlink:title="CH3CH2O(S)">
<polygon fill="purple" stroke="none" points="1683,-291.09 1465,-291.09 1465,-244.09 1683,-244.09 1683,-291.09"/>
<text text-anchor="middle" x="1574" y="-259.09" font-family="Times New Roman,serif" font-size="35.00">CH3CH2O(S)</text>
</a>
</g>
</g>
<!-- PT(S)&#45;&gt;CH3CH2O(S) -->
<g id="edge24" class="edge">
<title>PT(S)&#45;&gt;CH3CH2O(S)</title>
<path fill="none" stroke="black" d="M837.15,-855.2C842.75,-752.48 870.76,-343.04 965,-266.59 1001.92,-236.64 1288.03,-249.34 1454.28,-259.5"/>
<polygon fill="black" stroke="black" points="1453.86,-263.04 1464.05,-260.16 1454.29,-256.05 1453.86,-263.04"/>
<text text-anchor="middle" x="1204.5" y="-275.59" font-family="Times New Roman,serif" font-size="30.00"> &#160;&#160;69 &#160;&#160;1% &#160;&#160;7.05e&#45;07 mol/s &#160;&#160;&#160;9.45E&#45;01</text>
</g>
<!-- CH3CO(S) -->
<g id="node24" class="node">
<title>CH3CO(S)</title>
<g id="a_node24"><a xlink:href="28.svg" xlink:title="CH3CO(S)">
<polygon fill="springgreen" stroke="none" points="1661.5,-226.09 1486.5,-226.09 1486.5,-179.09 1661.5,-179.09 1661.5,-226.09"/>
<text text-anchor="middle" x="1574" y="-194.09" font-family="Times New Roman,serif" font-size="35.00">CH3CO(S)</text>
</a>
</g>
</g>
<!-- PT(S)&#45;&gt;CH3CO(S) -->
<g id="edge26" class="edge">
<title>PT(S)&#45;&gt;CH3CO(S)</title>
<path fill="none" stroke="green" d="M836.74,-855.37C840.72,-747.47 863.28,-296.8 965,-211.59 1003.07,-179.7 1313.69,-189.83 1475.6,-197.44"/>
<polygon fill="green" stroke="green" points="1475.37,-200.98 1485.52,-197.96 1475.7,-193.99 1475.37,-200.98"/>
<text text-anchor="middle" x="1204.5" y="-220.59" font-family="Times New Roman,serif" font-size="30.00"> &#160;&#160;71 &#160;&#160;1% &#160;&#160;6.48e&#45;07 mol/s &#160;&#160;&#160;5.00E&#45;01</text>
</g>
<!-- OH(S) -->
<g id="node25" class="node">
<title>OH(S)</title>
<g id="a_node25"><a xlink:href="60.svg" xlink:title="OH(S)">
<polygon fill="purple" stroke="none" points="1629,-118.09 1519,-118.09 1519,-71.09 1629,-71.09 1629,-118.09"/>
<text text-anchor="middle" x="1574" y="-86.09" font-family="Times New Roman,serif" font-size="35.00">OH(S)</text>
</a>
</g>
</g>
<!-- PT(S)&#45;&gt;OH(S) -->
<g id="edge33" class="edge">
<title>PT(S)&#45;&gt;OH(S)</title>
<path fill="none" stroke="black" d="M836.43,-855.37C839.05,-742.13 856.6,-249.33 965,-153.59 1004.95,-118.31 1391.34,-136.82 1444,-128.59 1465.34,-125.26 1488.25,-119.85 1508.75,-114.31"/>
<polygon fill="black" stroke="black" points="1509.53,-117.45 1518.23,-111.41 1507.66,-110.7 1509.53,-117.45"/>
<text text-anchor="middle" x="1204.5" y="-162.59" font-family="Times New Roman,serif" font-size="30.00"> &#160;&#160;120 &#160;&#160;0% &#160;&#160;1.82e&#45;08 mol/s &#160;&#160;&#160;1.00E+00</text>
</g>
<!-- PT(S)&#45;&gt;OH(S) -->
<g id="edge34" class="edge">
<title>PT(S)&#45;&gt;OH(S)</title>
<path fill="none" stroke="green" d="M835.98,-855.29C836.4,-735.82 844.97,-193.55 965,-91.59 1005.59,-57.11 1360.08,-78.86 1508.29,-89.61"/>
<polygon fill="green" stroke="green" points="1507.79,-93.16 1518.02,-90.4 1508.31,-86.18 1507.79,-93.16"/>
<text text-anchor="middle" x="1204.5" y="-100.59" font-family="Times New Roman,serif" font-size="30.00"> &#160;&#160;150 &#160;&#160;5% &#160;&#160;2.48e&#45;06 mol/s &#160;&#160;&#160;5.02E&#45;01</text>
</g>
<!-- CH3CHO(S)&#45;&gt;PT(S) -->
<g id="edge2" class="edge">
<title>CH3CHO(S)&#45;&gt;PT(S)</title>
<path fill="none" stroke="green" d="M1528.64,-1583.1C1504.34,-1571.42 1473.29,-1558.38 1444,-1551.59 1392.08,-1539.57 1005.3,-1561.46 965,-1526.59 870.67,-1444.98 843.51,-1034.35 837.48,-912.64"/>
<polygon fill="green" stroke="green" points="840.93,-912.61 836.96,-902.79 833.94,-912.94 840.93,-912.61"/>
<text text-anchor="middle" x="1204.5" y="-1560.59" font-family="Times New Roman,serif" font-size="30.00"> &#160;&#160;3 &#160;&#160;0% &#160;&#160;1.67e&#45;08 mol/s &#160;&#160;&#160;5.00E&#45;01</text>
</g>
<!-- CH3CH2(S) -->
<g id="node4" class="node">
<title>CH3CH2(S)</title>
<g id="a_node4"><a xlink:href="38.svg" xlink:title="CH3CH2(S)">
<polygon fill="dodgerblue" stroke="none" points="192,-1065.09 0,-1065.09 0,-1018.09 192,-1018.09 192,-1065.09"/>
<text text-anchor="middle" x="96" y="-1033.09" font-family="Times New Roman,serif" font-size="35.00">CH3CH2(S)</text>
</a>
</g>
</g>
<!-- CH3CH2(S)&#45;&gt;PT(S) -->
<g id="edge3" class="edge">
<title>CH3CH2(S)&#45;&gt;PT(S)</title>
<path fill="none" stroke="green" d="M191.86,-1059.49C315.34,-1078.15 535.01,-1095.23 701.5,-1019.59 751.82,-996.73 792.19,-945.02 814.61,-910.98"/>
<polygon fill="green" stroke="green" points="817.99,-913.19 820.46,-902.88 812.11,-909.4 817.99,-913.19"/>
<text text-anchor="middle" x="465.5" y="-1083.59" font-family="Times New Roman,serif" font-size="30.00"> &#160;&#160;4 &#160;&#160;0% &#160;&#160;1.84e&#45;08 mol/s &#160;&#160;&#160;4.54E&#45;01</text>
</g>
<!-- CH3(S)&#45;&gt;PT(S) -->
<g id="edge4" class="edge">
<title>CH3(S)&#45;&gt;PT(S)</title>
<path fill="none" stroke="black" stroke-width="2" d="M1511.32,-1451.67C1490.11,-1447.07 1466.12,-1442.47 1444,-1439.59 1391.15,-1432.72 1005.99,-1448.66 965,-1414.59 886.43,-1349.3 849.2,-1020.19 838.99,-912.65"/>
<polygon fill="black" stroke="black" stroke-width="2" points="842.39,-914.43 837.98,-904.8 835.42,-915.08 842.39,-914.43"/>
<text text-anchor="middle" x="1204.5" y="-1448.59" font-family="Times New Roman,serif" font-size="30.00"> &#160;&#160;9 &#160;&#160;23% &#160;&#160;5.44e&#45;06 mol/s &#160;&#160;&#160;3.20E&#45;01</text>
</g>
<!-- CO(S)&#45;&gt;PT(S) -->
<g id="edge5" class="edge">
<title>CO(S)&#45;&gt;PT(S)</title>
<path fill="none" stroke="green" d="M1519.66,-1285.45C1496.54,-1280.27 1469.08,-1274.8 1444,-1271.59 1391.15,-1264.84 1007.69,-1280.48 965,-1248.59 856.14,-1167.26 838.62,-987.59 836.18,-912.56"/>
<polygon fill="green" stroke="green" points="839.66,-912.77 835.91,-902.86 832.66,-912.94 839.66,-912.77"/>
<text text-anchor="middle" x="1204.5" y="-1280.59" font-family="Times New Roman,serif" font-size="30.00"> &#160;&#160;12 &#160;&#160;6% &#160;&#160;2.95e&#45;06 mol/s &#160;&#160;&#160;5.00E&#45;01</text>
</g>
<!-- CO(S)&#45;&gt;PT(S) -->
<g id="edge35" class="edge">
<title>CO(S)&#45;&gt;PT(S)</title>
<path fill="none" stroke="black" d="M1547.65,-1275.18C1523.17,-1254.21 1484.02,-1224.79 1444,-1211.59 1393.41,-1194.91 1008.63,-1221.17 965,-1190.59 871.53,-1125.09 845.62,-978.7 838.57,-912.39"/>
<polygon fill="black" stroke="black" points="841.98,-912.33 837.52,-902.72 835.01,-913.01 841.98,-912.33"/>
<text text-anchor="middle" x="1204.5" y="-1220.59" font-family="Times New Roman,serif" font-size="30.00"> &#160;&#160;154 &#160;&#160;5% &#160;&#160;2.5e&#45;06 mol/s &#160;&#160;&#160;7.20E&#45;01</text>
</g>
<!-- CO2(S)&#45;&gt;PT(S) -->
<g id="edge6" class="edge">
<title>CO2(S)&#45;&gt;PT(S)</title>
<path fill="none" stroke="green" d="M1510.76,-1120.41C1489.81,-1113.85 1466.13,-1107.41 1444,-1103.59 1391.49,-1094.54 1011.1,-1107.31 965,-1080.59 900.54,-1043.24 863.14,-959.32 846.49,-912.25"/>
<polygon fill="green" stroke="green" points="849.51,-911.29 842.97,-902.96 842.89,-913.55 849.51,-911.29"/>
<text text-anchor="middle" x="1204.5" y="-1112.59" font-family="Times New Roman,serif" font-size="30.00"> &#160;&#160;13 &#160;&#160;5% &#160;&#160;2.5e&#45;06 mol/s &#160;&#160;&#160;5.00E&#45;01</text>
</g>
<!-- CH3CH(S) -->
<g id="node16" class="node">
<title>CH3CH(S)</title>
<g id="a_node16"><a xlink:href="39.svg" xlink:title="CH3CH(S)">
<polygon fill="dodgerblue" stroke="none" points="183,-1000.09 9,-1000.09 9,-953.09 183,-953.09 183,-1000.09"/>
<text text-anchor="middle" x="96" y="-968.09" font-family="Times New Roman,serif" font-size="35.00">CH3CH(S)</text>
</a>
</g>
</g>
<!-- CH3CH(S)&#45;&gt;PT(S) -->
<g id="edge17" class="edge">
<title>CH3CH(S)&#45;&gt;PT(S)</title>
<path fill="none" stroke="black" d="M182.78,-982.87C301.5,-989.13 521.62,-991.97 701.5,-944.59 731.78,-936.62 763.24,-921.29 787.91,-907.41"/>
<polygon fill="black" stroke="black" points="789.43,-910 796.36,-901.98 785.94,-903.93 789.43,-910"/>
<text text-anchor="middle" x="465.5" y="-994.59" font-family="Times New Roman,serif" font-size="30.00"> &#160;&#160;55 &#160;&#160;0% &#160;&#160;1.7e&#45;08 mol/s &#160;&#160;&#160;2.33E&#45;01</text>
</g>
<!-- CH3C(S)&#45;&gt;PT(S) -->
<g id="edge18" class="edge">
<title>CH3C(S)&#45;&gt;PT(S)</title>
<path fill="none" stroke="green" d="M1499.62,-439.2C1481.52,-436.04 1462.13,-433.2 1444,-431.59 1390.98,-426.9 1007.53,-399.6 965,-431.59 897.47,-482.39 854.15,-748.78 840.58,-844.39"/>
<polygon fill="green" stroke="green" points="836.99,-843.79 839.07,-854.18 843.92,-844.76 836.99,-843.79"/>
<text text-anchor="middle" x="1204.5" y="-440.59" font-family="Times New Roman,serif" font-size="30.00"> &#160;&#160;56 &#160;&#160;0% &#160;&#160;1.78e&#45;08 mol/s &#160;&#160;&#160;5.00E&#45;01</text>
</g>
<!-- CH2CH(S) -->
<g id="node18" class="node">
<title>CH2CH(S)</title>
<g id="a_node18"><a xlink:href="42.svg" xlink:title="CH2CH(S)">
<polygon fill="dodgerblue" stroke="none" points="183,-935.09 9,-935.09 9,-888.09 183,-888.09 183,-935.09"/>
<text text-anchor="middle" x="96" y="-903.09" font-family="Times New Roman,serif" font-size="35.00">CH2CH(S)</text>
</a>
</g>
</g>
<!-- CH2CH(S)&#45;&gt;PT(S) -->
<g id="edge19" class="edge">
<title>CH2CH(S)&#45;&gt;PT(S)</title>
<path fill="none" stroke="green" d="M182.65,-909.73C299.85,-906.89 516.74,-900.62 701.5,-889.59 725.16,-888.18 751.16,-886.13 773.82,-884.18"/>
<polygon fill="green" stroke="green" points="773.99,-887.6 783.65,-883.24 773.38,-880.62 773.99,-887.6"/>
<text text-anchor="middle" x="465.5" y="-916.59" font-family="Times New Roman,serif" font-size="30.00"> &#160;&#160;57 &#160;&#160;0% &#160;&#160;1.39e&#45;09 mol/s &#160;&#160;&#160;4.61E&#45;01</text>
</g>
<!-- CH2CH2(S) -->
<g id="node19" class="node">
<title>CH2CH2(S)</title>
<g id="a_node19"><a xlink:href="41.svg" xlink:title="CH2CH2(S)">
<polygon fill="dodgerblue" stroke="none" points="192,-870.09 0,-870.09 0,-823.09 192,-823.09 192,-870.09"/>
<text text-anchor="middle" x="96" y="-838.09" font-family="Times New Roman,serif" font-size="35.00">CH2CH2(S)</text>
</a>
</g>
</g>
<!-- CH2CH2(S)&#45;&gt;PT(S) -->
<g id="edge20" class="edge">
<title>CH2CH2(S)&#45;&gt;PT(S)</title>
<path fill="none" stroke="green" d="M191.99,-843.83C311.24,-841.36 521.97,-840.29 701.5,-856.59 725.25,-858.75 751.17,-862.69 773.73,-866.65"/>
<polygon fill="green" stroke="green" points="773.06,-870.27 783.52,-868.59 774.29,-863.38 773.06,-870.27"/>
<text text-anchor="middle" x="465.5" y="-865.59" font-family="Times New Roman,serif" font-size="30.00"> &#160;&#160;60 &#160;&#160;0% &#160;&#160;1.39e&#45;09 mol/s &#160;&#160;&#160;4.75E&#45;01</text>
</g>
<!-- CH2(S) -->
<g id="node20" class="node">
<title>CH2(S)</title>
<g id="a_node20"><a xlink:href="56.svg" xlink:title="CH2(S)">
<polygon fill="dodgerblue" stroke="none" points="159,-805.09 33,-805.09 33,-758.09 159,-758.09 159,-805.09"/>
<text text-anchor="middle" x="96" y="-773.09" font-family="Times New Roman,serif" font-size="35.00">CH2(S)</text>
</a>
</g>
</g>
<!-- CH2(S)&#45;&gt;PT(S) -->
<g id="edge21" class="edge">
<title>CH2(S)&#45;&gt;PT(S)</title>
<path fill="none" stroke="black" d="M158.95,-774.6C270.09,-764.08 509.63,-750.73 701.5,-804.59 734.49,-813.85 768.15,-832.8 793.29,-849.2"/>
<polygon fill="black" stroke="black" points="790.88,-852.47 801.15,-855.11 794.77,-846.65 790.88,-852.47"/>
<text text-anchor="middle" x="465.5" y="-813.59" font-family="Times New Roman,serif" font-size="30.00"> &#160;&#160;66 &#160;&#160;11% &#160;&#160;5.43e&#45;06 mol/s &#160;&#160;&#160;1.93E&#45;02</text>
</g>
<!-- CH(S) -->
<g id="node21" class="node">
<title>CH(S)</title>
<g id="a_node21"><a xlink:href="57.svg" xlink:title="CH(S)">
<polygon fill="springgreen" stroke="none" points="150,-740.09 42,-740.09 42,-693.09 150,-693.09 150,-740.09"/>
<text text-anchor="middle" x="96" y="-708.09" font-family="Times New Roman,serif" font-size="35.00">CH(S)</text>
</a>
</g>
</g>
<!-- CH(S)&#45;&gt;PT(S) -->
<g id="edge22" class="edge">
<title>CH(S)&#45;&gt;PT(S)</title>
<path fill="none" stroke="green" d="M149.88,-703.94C259.02,-680.66 514.64,-640.9 701.5,-727.59 754.65,-752.25 795.1,-809.57 816.63,-846.07"/>
<polygon fill="green" stroke="green" points="813.93,-847.39 821.95,-854.31 820,-843.9 813.93,-847.39"/>
<text text-anchor="middle" x="465.5" y="-736.59" font-family="Times New Roman,serif" font-size="30.00"> &#160;&#160;67 &#160;&#160;11% &#160;&#160;5.43e&#45;06 mol/s &#160;&#160;&#160;5.00E&#45;01</text>
</g>
<!-- C(S)&#45;&gt;PT(S) -->
<g id="edge23" class="edge">
<title>C(S)&#45;&gt;PT(S)</title>
<path fill="none" stroke="green" d="M1532.58,-340.07C1507.42,-332.37 1474.2,-323.51 1444,-319.59 1391.22,-312.75 1006.65,-286.46 965,-319.59 881.44,-386.07 847.36,-733.32 838.49,-844.39"/>
<polygon fill="green" stroke="green" points="834.93,-844.03 837.64,-854.27 841.91,-844.58 834.93,-844.03"/>
<text text-anchor="middle" x="1204.5" y="-328.59" font-family="Times New Roman,serif" font-size="30.00"> &#160;&#160;68 &#160;&#160;0% &#160;&#160;2.46e&#45;09 mol/s &#160;&#160;&#160;4.84E&#45;01</text>
</g>
<!-- OH(S)&#45;&gt;PT(S) -->
<g id="edge36" class="edge">
<title>OH(S)&#45;&gt;PT(S)</title>
<path fill="none" stroke="black" d="M1532.69,-71.14C1507.99,-58.14 1475.21,-43.29 1444,-36.59 1339.92,-14.27 1045.77,32.74 965,-36.59 840.18,-143.75 834.88,-700.57 835.64,-844.57"/>
<polygon fill="black" stroke="black" points="832.14,-844.37 835.71,-854.34 839.14,-844.32 832.14,-844.37"/>
<text text-anchor="middle" x="1204.5" y="-45.59" font-family="Times New Roman,serif" font-size="30.00"> &#160;&#160;154 &#160;&#160;5% &#160;&#160;2.5e&#45;06 mol/s &#160;&#160;&#160;7.20E&#45;01</text>
</g>
</g>
</svg>
