<?xml version="1.0" encoding="UTF-8" standalone="no"?>
<!DOCTYPE svg PUBLIC "-//W3C//DTD SVG 1.1//EN"
 "http://www.w3.org/Graphics/SVG/1.1/DTD/svg11.dtd">
<!-- Generated by graphviz version 8.0.3 (20230416.2022)
 -->
<!-- Title: G Pages: 1 -->
<svg width="640pt" height="471pt"
 viewBox="0.00 0.00 720.00 529.78" xmlns="http://www.w3.org/2000/svg" xmlns:xlink="http://www.w3.org/1999/xlink">
<g id="graph0" class="graph" transform="scale(0.375807 0.375807) rotate(0) translate(4 1249.07)">
<title>G</title>
<polygon fill="white" stroke="none" points="-4,4 -4,-1249.07 1699,-1249.07 1699,4 -4,4"/>
<text text-anchor="middle" x="847.5" y="-1212.27" font-family="Arial" font-size="36.00" fill="blue">Reaction Path Analysis</text>
<!-- PT(B) -->
<g id="node1" class="node">
<title>PT(B)</title>
<g id="a_node1"><a xlink:href="67.svg" xlink:title="PT(B)">
<polygon fill="purple" stroke="none" points="912.5,-618.57 807.5,-618.57 807.5,-571.57 912.5,-571.57 912.5,-618.57"/>
<text text-anchor="middle" x="860" y="-586.57" font-family="Times New Roman,serif" font-size="35.00">PT(B)</text>
</a>
</g>
</g>
<!-- CH3CHO -->
<g id="node3" class="node">
<title>CH3CHO</title>
<g id="a_node3"><a xlink:href="1.svg" xlink:title="CH3CHO">
<polygon fill="none" stroke="none" points="1677,-1009.57 1521,-1009.57 1521,-962.57 1677,-962.57 1677,-1009.57"/>
<text text-anchor="middle" x="1599" y="-977.57" font-family="Times New Roman,serif" font-size="35.00">CH3CHO</text>
</a>
</g>
</g>
<!-- PT(B)&#45;&gt;CH3CHO -->
<g id="edge2" class="edge">
<title>PT(B)&#45;&gt;CH3CHO</title>
<path fill="none" stroke="green" d="M861.28,-618.48C863.5,-685.01 879.92,-875.7 993.5,-959.07 1146.2,-1071.15 1383.67,-1038.74 1510.76,-1009.78"/>
<polygon fill="green" stroke="green" points="1511.26,-1013.02 1520.21,-1007.35 1509.67,-1006.2 1511.26,-1013.02"/>
<text text-anchor="middle" x="1229.5" y="-1046.07" font-family="Times New Roman,serif" font-size="30.00"> &#160;&#160;3 &#160;&#160;0% &#160;&#160;1.67e&#45;08 mol/s &#160;&#160;&#160;5.00E&#45;01</text>
</g>
<!-- CH3CH3 -->
<g id="node4" class="node">
<title>CH3CH3</title>
<g id="a_node4"><a xlink:href="2.svg" xlink:title="CH3CH3">
<polygon fill="none" stroke="none" points="1673.5,-944.57 1524.5,-944.57 1524.5,-897.57 1673.5,-897.57 1673.5,-944.57"/>
<text text-anchor="middle" x="1599" y="-912.57" font-family="Times New Roman,serif" font-size="35.00">CH3CH3</text>
</a>
</g>
</g>
<!-- PT(B)&#45;&gt;CH3CH3 -->
<g id="edge3" class="edge">
<title>PT(B)&#45;&gt;CH3CH3</title>
<path fill="none" stroke="green" d="M863.32,-618.47C870.48,-676.63 897.89,-827.75 993.5,-893.07 1035.35,-921.66 1357.66,-923.06 1513.78,-922.01"/>
<polygon fill="green" stroke="green" points="1513.75,-925.5 1523.72,-921.93 1513.7,-918.51 1513.75,-925.5"/>
<text text-anchor="middle" x="1229.5" y="-931.07" font-family="Times New Roman,serif" font-size="30.00"> &#160;&#160;4 &#160;&#160;0% &#160;&#160;1.84e&#45;08 mol/s &#160;&#160;&#160;4.54E&#45;01</text>
</g>
<!-- CH4 -->
<g id="node5" class="node">
<title>CH4</title>
<g id="a_node5"><a xlink:href="7.svg" xlink:title="CH4">
<polygon fill="none" stroke="none" points="1640.5,-879.57 1557.5,-879.57 1557.5,-832.57 1640.5,-832.57 1640.5,-879.57"/>
<text text-anchor="middle" x="1599" y="-847.57" font-family="Times New Roman,serif" font-size="35.00">CH4</text>
</a>
</g>
</g>
<!-- PT(B)&#45;&gt;CH4 -->
<g id="edge4" class="edge">
<title>PT(B)&#45;&gt;CH4</title>
<path fill="none" stroke="black" stroke-width="2" d="M866.19,-618.22C878.53,-667.19 914.7,-780.74 993.5,-829.07 1040.04,-857.61 1409.57,-857.6 1546.87,-856.59"/>
<polygon fill="black" stroke="black" stroke-width="2" points="1544.53,-860.09 1554.5,-856.51 1544.47,-853.09 1544.53,-860.09"/>
<text text-anchor="middle" x="1229.5" y="-865.07" font-family="Times New Roman,serif" font-size="30.00"> &#160;&#160;9 &#160;&#160;23% &#160;&#160;5.44e&#45;06 mol/s &#160;&#160;&#160;3.20E&#45;01</text>
</g>
<!-- CO -->
<g id="node6" class="node">
<title>CO</title>
<g id="a_node6"><a xlink:href="10.svg" xlink:title="CO">
<polygon fill="none" stroke="none" points="1631.5,-814.57 1566.5,-814.57 1566.5,-767.57 1631.5,-767.57 1631.5,-814.57"/>
<text text-anchor="middle" x="1599" y="-782.57" font-family="Times New Roman,serif" font-size="35.00">CO</text>
</a>
</g>
</g>
<!-- PT(B)&#45;&gt;CO -->
<g id="edge5" class="edge">
<title>PT(B)&#45;&gt;CO</title>
<path fill="none" stroke="green" d="M870.66,-618.42C888.37,-657.78 930.12,-736.22 993.5,-769.07 1043,-794.72 1426.28,-792.95 1555.57,-791.61"/>
<polygon fill="green" stroke="green" points="1555.61,-795.09 1565.57,-791.49 1555.53,-788.1 1555.61,-795.09"/>
<text text-anchor="middle" x="1229.5" y="-801.07" font-family="Times New Roman,serif" font-size="30.00"> &#160;&#160;12 &#160;&#160;6% &#160;&#160;2.95e&#45;06 mol/s &#160;&#160;&#160;5.00E&#45;01</text>
</g>
<!-- CO2 -->
<g id="node7" class="node">
<title>CO2</title>
<g id="a_node7"><a xlink:href="11.svg" xlink:title="CO2">
<polygon fill="none" stroke="none" points="1640.5,-749.57 1557.5,-749.57 1557.5,-702.57 1640.5,-702.57 1640.5,-749.57"/>
<text text-anchor="middle" x="1599" y="-717.57" font-family="Times New Roman,serif" font-size="35.00">CO2</text>
</a>
</g>
</g>
<!-- PT(B)&#45;&gt;CO2 -->
<g id="edge6" class="edge">
<title>PT(B)&#45;&gt;CO2</title>
<path fill="none" stroke="green" d="M880.09,-618.54C903.56,-645.38 946.13,-687.96 993.5,-706.07 1093.82,-744.43 1419.84,-734.25 1546.77,-728.62"/>
<polygon fill="green" stroke="green" points="1546.87,-732.07 1556.7,-728.12 1546.56,-725.08 1546.87,-732.07"/>
<text text-anchor="middle" x="1229.5" y="-743.07" font-family="Times New Roman,serif" font-size="30.00"> &#160;&#160;13 &#160;&#160;5% &#160;&#160;2.5e&#45;06 mol/s &#160;&#160;&#160;5.00E&#45;01</text>
</g>
<!-- CH3CH2(S) -->
<g id="node17" class="node">
<title>CH3CH2(S)</title>
<g id="a_node17"><a xlink:href="38.svg" xlink:title="CH3CH2(S)">
<polygon fill="dodgerblue" stroke="none" points="1695,-679.57 1503,-679.57 1503,-632.57 1695,-632.57 1695,-679.57"/>
<text text-anchor="middle" x="1599" y="-647.57" font-family="Times New Roman,serif" font-size="35.00">CH3CH2(S)</text>
</a>
</g>
</g>
<!-- PT(B)&#45;&gt;CH3CH2(S) -->
<g id="edge17" class="edge">
<title>PT(B)&#45;&gt;CH3CH2(S)</title>
<path fill="none" stroke="black" d="M899.39,-618.54C925.01,-632.79 960.03,-649.63 993.5,-657.07 1085.32,-677.49 1344.96,-668.82 1492.37,-661.79"/>
<polygon fill="black" stroke="black" points="1492.4,-665.24 1502.22,-661.26 1492.06,-658.25 1492.4,-665.24"/>
<text text-anchor="middle" x="1229.5" y="-678.07" font-family="Times New Roman,serif" font-size="30.00"> &#160;&#160;55 &#160;&#160;0% &#160;&#160;1.7e&#45;08 mol/s &#160;&#160;&#160;2.33E&#45;01</text>
</g>
<!-- PT(B)&#45;&gt;CH3CH2(S) -->
<g id="edge20" class="edge">
<title>PT(B)&#45;&gt;CH3CH2(S)</title>
<path fill="none" stroke="green" d="M912.28,-597.45C936.85,-598.58 966.7,-599.92 993.5,-601.07 1203.26,-610.04 1258,-588.12 1465.5,-620.07 1481.06,-622.46 1497.41,-626.02 1513.1,-629.98"/>
<polygon fill="green" stroke="green" points="1511.75,-633.5 1522.31,-632.63 1513.51,-626.72 1511.75,-633.5"/>
<text text-anchor="middle" x="1229.5" y="-629.07" font-family="Times New Roman,serif" font-size="30.00"> &#160;&#160;60 &#160;&#160;0% &#160;&#160;1.39e&#45;09 mol/s &#160;&#160;&#160;4.75E&#45;01</text>
</g>
<!-- CH3CH(S) -->
<g id="node18" class="node">
<title>CH3CH(S)</title>
<g id="a_node18"><a xlink:href="39.svg" xlink:title="CH3CH(S)">
<polygon fill="dodgerblue" stroke="none" points="1686,-608.57 1512,-608.57 1512,-561.57 1686,-561.57 1686,-608.57"/>
<text text-anchor="middle" x="1599" y="-576.57" font-family="Times New Roman,serif" font-size="35.00">CH3CH(S)</text>
</a>
</g>
</g>
<!-- PT(B)&#45;&gt;CH3CH(S) -->
<g id="edge18" class="edge">
<title>PT(B)&#45;&gt;CH3CH(S)</title>
<path fill="none" stroke="green" d="M912.23,-582.13C936.66,-576.6 966.41,-570.8 993.5,-568.07 1202.22,-547.02 1256.15,-554.69 1465.5,-568.07 1477.23,-568.82 1489.5,-569.94 1501.64,-571.25"/>
<polygon fill="green" stroke="green" points="1500.94,-574.8 1511.27,-572.45 1501.72,-567.85 1500.94,-574.8"/>
<text text-anchor="middle" x="1229.5" y="-577.07" font-family="Times New Roman,serif" font-size="30.00"> &#160;&#160;56 &#160;&#160;0% &#160;&#160;1.78e&#45;08 mol/s &#160;&#160;&#160;5.00E&#45;01</text>
</g>
<!-- CH2CH2(S) -->
<g id="node19" class="node">
<title>CH2CH2(S)</title>
<g id="a_node19"><a xlink:href="41.svg" xlink:title="CH2CH2(S)">
<polygon fill="dodgerblue" stroke="none" points="1695,-543.57 1503,-543.57 1503,-496.57 1695,-496.57 1695,-543.57"/>
<text text-anchor="middle" x="1599" y="-511.57" font-family="Times New Roman,serif" font-size="35.00">CH2CH2(S)</text>
</a>
</g>
</g>
<!-- PT(B)&#45;&gt;CH2CH2(S) -->
<g id="edge19" class="edge">
<title>PT(B)&#45;&gt;CH2CH2(S)</title>
<path fill="none" stroke="green" d="M890.21,-571.63C915.76,-552.73 954.74,-527.63 993.5,-517.07 1084.32,-492.32 1344.68,-503.73 1492.38,-512.77"/>
<polygon fill="green" stroke="green" points="1492.06,-516.32 1502.26,-513.45 1492.49,-509.34 1492.06,-516.32"/>
<text text-anchor="middle" x="1229.5" y="-526.07" font-family="Times New Roman,serif" font-size="30.00"> &#160;&#160;57 &#160;&#160;0% &#160;&#160;1.39e&#45;09 mol/s &#160;&#160;&#160;4.61E&#45;01</text>
</g>
<!-- CH3(S) -->
<g id="node20" class="node">
<title>CH3(S)</title>
<g id="a_node20"><a xlink:href="55.svg" xlink:title="CH3(S)">
<polygon fill="dodgerblue" stroke="none" points="1662,-478.57 1536,-478.57 1536,-431.57 1662,-431.57 1662,-478.57"/>
<text text-anchor="middle" x="1599" y="-446.57" font-family="Times New Roman,serif" font-size="35.00">CH3(S)</text>
</a>
</g>
</g>
<!-- PT(B)&#45;&gt;CH3(S) -->
<g id="edge21" class="edge">
<title>PT(B)&#45;&gt;CH3(S)</title>
<path fill="none" stroke="black" d="M876.22,-571.6C897.93,-540.5 941.03,-487.02 993.5,-465.07 1087.37,-425.8 1385.76,-440.28 1525.06,-449.61"/>
<polygon fill="black" stroke="black" points="1524.81,-453.17 1535.02,-450.36 1525.28,-446.19 1524.81,-453.17"/>
<text text-anchor="middle" x="1229.5" y="-474.07" font-family="Times New Roman,serif" font-size="30.00"> &#160;&#160;66 &#160;&#160;11% &#160;&#160;5.43e&#45;06 mol/s &#160;&#160;&#160;1.93E&#45;02</text>
</g>
<!-- CH2(S) -->
<g id="node21" class="node">
<title>CH2(S)</title>
<g id="a_node21"><a xlink:href="56.svg" xlink:title="CH2(S)">
<polygon fill="dodgerblue" stroke="none" points="1662,-413.57 1536,-413.57 1536,-366.57 1662,-366.57 1662,-413.57"/>
<text text-anchor="middle" x="1599" y="-381.57" font-family="Times New Roman,serif" font-size="35.00">CH2(S)</text>
</a>
</g>
</g>
<!-- PT(B)&#45;&gt;CH2(S) -->
<g id="edge22" class="edge">
<title>PT(B)&#45;&gt;CH2(S)</title>
<path fill="none" stroke="green" d="M868.82,-571.86C884.63,-529.15 924.81,-439.1 993.5,-402.07 1039.16,-377.45 1374.75,-383.7 1525.28,-387.82"/>
<polygon fill="green" stroke="green" points="1525.13,-391.35 1535.23,-388.13 1525.33,-384.35 1525.13,-391.35"/>
<text text-anchor="middle" x="1229.5" y="-411.07" font-family="Times New Roman,serif" font-size="30.00"> &#160;&#160;67 &#160;&#160;11% &#160;&#160;5.43e&#45;06 mol/s &#160;&#160;&#160;5.00E&#45;01</text>
</g>
<!-- CH(S) -->
<g id="node22" class="node">
<title>CH(S)</title>
<g id="a_node22"><a xlink:href="57.svg" xlink:title="CH(S)">
<polygon fill="springgreen" stroke="none" points="1653,-348.57 1545,-348.57 1545,-301.57 1653,-301.57 1653,-348.57"/>
<text text-anchor="middle" x="1599" y="-316.57" font-family="Times New Roman,serif" font-size="35.00">CH(S)</text>
</a>
</g>
</g>
<!-- PT(B)&#45;&gt;CH(S) -->
<g id="edge23" class="edge">
<title>PT(B)&#45;&gt;CH(S)</title>
<path fill="none" stroke="green" d="M865.4,-571.6C876.46,-520.13 910.64,-397.82 993.5,-346.07 1038.47,-317.99 1388.66,-321.14 1534.54,-323.73"/>
<polygon fill="green" stroke="green" points="1534.04,-327.24 1544.1,-323.92 1534.17,-320.24 1534.04,-327.24"/>
<text text-anchor="middle" x="1229.5" y="-355.07" font-family="Times New Roman,serif" font-size="30.00"> &#160;&#160;68 &#160;&#160;0% &#160;&#160;2.46e&#45;09 mol/s &#160;&#160;&#160;4.84E&#45;01</text>
</g>
<!-- COOH(S) -->
<g id="node26" class="node">
<title>COOH(S)</title>
<g id="a_node26"><a xlink:href="64.svg" xlink:title="COOH(S)">
<polygon fill="dodgerblue" stroke="none" points="1678.5,-269.57 1519.5,-269.57 1519.5,-222.57 1678.5,-222.57 1678.5,-269.57"/>
<text text-anchor="middle" x="1599" y="-237.57" font-family="Times New Roman,serif" font-size="35.00">COOH(S)</text>
</a>
</g>
</g>
<!-- PT(B)&#45;&gt;COOH(S) -->
<g id="edge32" class="edge">
<title>PT(B)&#45;&gt;COOH(S)</title>
<path fill="none" stroke="black" d="M862.92,-571.67C869.19,-511.97 894.83,-353.86 993.5,-285.07 1036.58,-255.04 1413.16,-265.36 1465.5,-261.07 1479.61,-259.91 1494.54,-258.45 1509.09,-256.9"/>
<polygon fill="black" stroke="black" points="1509.04,-260.32 1518.61,-255.76 1508.29,-253.36 1509.04,-260.32"/>
<text text-anchor="middle" x="1229.5" y="-294.07" font-family="Times New Roman,serif" font-size="30.00"> &#160;&#160;154 &#160;&#160;5% &#160;&#160;2.5e&#45;06 mol/s &#160;&#160;&#160;7.20E&#45;01</text>
</g>
<!-- CH3CH2OH -->
<g id="node2" class="node">
<title>CH3CH2OH</title>
<g id="a_node2"><a xlink:href="0.svg" xlink:title="CH3CH2OH">
<polygon fill="none" stroke="none" points="220.5,-1131.57 21.5,-1131.57 21.5,-1084.57 220.5,-1084.57 220.5,-1131.57"/>
<text text-anchor="middle" x="121" y="-1099.57" font-family="Times New Roman,serif" font-size="35.00">CH3CH2OH</text>
</a>
</g>
</g>
<!-- CH3CH2OH&#45;&gt;PT(B) -->
<g id="edge1" class="edge">
<title>CH3CH2OH&#45;&gt;PT(B)</title>
<path fill="none" stroke="green" d="M201.47,-1131.51C328.33,-1163.65 577.79,-1204.48 730,-1082.07 802.03,-1024.14 843.05,-729.92 855.17,-629.05"/>
<polygon fill="green" stroke="green" points="858.75,-629.62 856.44,-619.28 851.79,-628.8 858.75,-629.62"/>
<text text-anchor="middle" x="490.5" y="-1173.07" font-family="Times New Roman,serif" font-size="30.00"> &#160;&#160;2 &#160;&#160;12% &#160;&#160;5.48e&#45;06 mol/s &#160;&#160;&#160;5.00E&#45;01</text>
</g>
<!-- H2O -->
<g id="node8" class="node">
<title>H2O</title>
<g id="a_node8"><a xlink:href="12.svg" xlink:title="H2O">
<polygon fill="none" stroke="none" points="163.5,-1066.57 78.5,-1066.57 78.5,-1019.57 163.5,-1019.57 163.5,-1066.57"/>
<text text-anchor="middle" x="121" y="-1034.57" font-family="Times New Roman,serif" font-size="35.00">H2O</text>
</a>
</g>
</g>
<!-- H2O&#45;&gt;PT(B) -->
<g id="edge7" class="edge">
<title>H2O&#45;&gt;PT(B)</title>
<path fill="none" stroke="green" d="M163.48,-1044.02C293.23,-1046.62 685.45,-1051.53 730,-1017.07 792.97,-968.36 838.72,-720.6 853.71,-629.09"/>
<polygon fill="green" stroke="green" points="857.28,-629.91 855.42,-619.48 850.37,-628.8 857.28,-629.91"/>
<text text-anchor="middle" x="490.5" y="-1054.07" font-family="Times New Roman,serif" font-size="30.00"> &#160;&#160;14 &#160;&#160;5% &#160;&#160;2.48e&#45;06 mol/s &#160;&#160;&#160;5.00E&#45;01</text>
</g>
<!-- CH3CH2OH(S) -->
<g id="node9" class="node">
<title>CH3CH2OH(S)</title>
<g id="a_node9"><a xlink:href="14.svg" xlink:title="CH3CH2OH(S)">
<polygon fill="dodgerblue" stroke="none" points="242,-954.57 0,-954.57 0,-907.57 242,-907.57 242,-954.57"/>
<text text-anchor="middle" x="121" y="-922.57" font-family="Times New Roman,serif" font-size="35.00">CH3CH2OH(S)</text>
</a>
</g>
</g>
<!-- CH3CH2OH(S)&#45;&gt;PT(B) -->
<g id="edge8" class="edge">
<title>CH3CH2OH(S)&#45;&gt;PT(B)</title>
<path fill="none" stroke="black" d="M197.75,-954.5C215.08,-958.89 233.54,-962.81 251,-965.07 303.78,-971.91 686.61,-995.89 730,-965.07 841.04,-886.19 857.3,-704.36 859.11,-628.88"/>
<polygon fill="black" stroke="black" points="862.62,-629.18 859.29,-619.12 855.62,-629.06 862.62,-629.18"/>
<text text-anchor="middle" x="490.5" y="-989.07" font-family="Times New Roman,serif" font-size="30.00"> &#160;&#160;15 &#160;&#160;10% &#160;&#160;4.77e&#45;06 mol/s &#160;&#160;&#160;9.99E&#45;01</text>
</g>
<!-- CH3CH2OH(S)&#45;&gt;PT(B) -->
<g id="edge13" class="edge">
<title>CH3CH2OH(S)&#45;&gt;PT(B)</title>
<path fill="none" stroke="black" d="M241.99,-927.53C417.75,-922.24 725.05,-912.52 730,-909.07 824.16,-843.46 849.71,-695.97 856.55,-629.14"/>
<polygon fill="black" stroke="black" points="860.11,-629.66 857.56,-619.38 853.14,-629.01 860.11,-629.66"/>
<text text-anchor="middle" x="490.5" y="-936.07" font-family="Times New Roman,serif" font-size="30.00"> &#160;&#160;37 &#160;&#160;0% &#160;&#160;2.54e&#45;09 mol/s &#160;&#160;&#160;9.99E&#45;01</text>
</g>
<!-- CH3CH2OH(S)&#45;&gt;PT(B) -->
<g id="edge24" class="edge">
<title>CH3CH2OH(S)&#45;&gt;PT(B)</title>
<path fill="none" stroke="black" d="M162.67,-907.61C187.36,-894.61 220.01,-879.6 251,-872.07 302.78,-859.48 685.27,-878.02 730,-849.07 807.85,-798.68 840.86,-685.85 852.96,-629.07"/>
<polygon fill="black" stroke="black" points="856.54,-630 855.1,-619.5 849.68,-628.6 856.54,-630"/>
<text text-anchor="middle" x="490.5" y="-881.07" font-family="Times New Roman,serif" font-size="30.00"> &#160;&#160;69 &#160;&#160;1% &#160;&#160;7.05e&#45;07 mol/s &#160;&#160;&#160;9.45E&#45;01</text>
</g>
<!-- CH3CHOH(S) -->
<g id="node10" class="node">
<title>CH3CHOH(S)</title>
<g id="a_node10"><a xlink:href="15.svg" xlink:title="CH3CHOH(S)">
<polygon fill="dodgerblue" stroke="none" points="233,-823.57 9,-823.57 9,-776.57 233,-776.57 233,-823.57"/>
<text text-anchor="middle" x="121" y="-791.57" font-family="Times New Roman,serif" font-size="35.00">CH3CHOH(S)</text>
</a>
</g>
</g>
<!-- CH3CHOH(S)&#45;&gt;PT(B) -->
<g id="edge9" class="edge">
<title>CH3CHOH(S)&#45;&gt;PT(B)</title>
<path fill="none" stroke="black" d="M232.81,-805.2C396.39,-811.93 687.79,-820.33 730,-797.07 795.42,-761.01 832.52,-676.2 848.86,-628.73"/>
<polygon fill="black" stroke="black" points="852.47,-629.95 852.3,-619.36 845.83,-627.75 852.47,-629.95"/>
<text text-anchor="middle" x="490.5" y="-821.07" font-family="Times New Roman,serif" font-size="30.00"> &#160;&#160;16 &#160;&#160;10% &#160;&#160;4.62e&#45;06 mol/s &#160;&#160;&#160;5.57E&#45;01</text>
</g>
<!-- CH3CHOH(S)&#45;&gt;PT(B) -->
<g id="edge25" class="edge">
<title>CH3CHOH(S)&#45;&gt;PT(B)</title>
<path fill="none" stroke="black" d="M185.83,-776.67C206.36,-770.12 229.39,-763.78 251,-760.07 303.49,-751.05 681.89,-763.92 730,-741.07 780.55,-717.06 819.64,-663.11 840.97,-627.94"/>
<polygon fill="black" stroke="black" points="844.44,-629.95 846.51,-619.56 838.41,-626.39 844.44,-629.95"/>
<text text-anchor="middle" x="490.5" y="-769.07" font-family="Times New Roman,serif" font-size="30.00"> &#160;&#160;70 &#160;&#160;0% &#160;&#160;1.53e&#45;07 mol/s &#160;&#160;&#160;5.55E&#45;01</text>
</g>
<!-- CH2CH2OH(S) -->
<g id="node11" class="node">
<title>CH2CH2OH(S)</title>
<g id="a_node11"><a xlink:href="17.svg" xlink:title="CH2CH2OH(S)">
<polygon fill="purple" stroke="none" points="242,-739.57 0,-739.57 0,-692.57 242,-692.57 242,-739.57"/>
<text text-anchor="middle" x="121" y="-707.57" font-family="Times New Roman,serif" font-size="35.00">CH2CH2OH(S)</text>
</a>
</g>
</g>
<!-- CH2CH2OH(S)&#45;&gt;PT(B) -->
<g id="edge10" class="edge">
<title>CH2CH2OH(S)&#45;&gt;PT(B)</title>
<path fill="none" stroke="black" d="M241.82,-708.58C244.91,-708.41 247.98,-708.24 251,-708.07 357.41,-702.22 629.13,-719.46 730,-685.07 766.53,-672.61 802.05,-646.48 826.53,-625.57"/>
<polygon fill="black" stroke="black" points="828.49,-627.63 833.71,-618.42 823.88,-622.36 828.49,-627.63"/>
<text text-anchor="middle" x="490.5" y="-717.07" font-family="Times New Roman,serif" font-size="30.00"> &#160;&#160;17 &#160;&#160;0% &#160;&#160;2.54e&#45;09 mol/s &#160;&#160;&#160;7.68E&#45;01</text>
</g>
<!-- CH2CHOH(S) -->
<g id="node12" class="node">
<title>CH2CHOH(S)</title>
<g id="a_node12"><a xlink:href="18.svg" xlink:title="CH2CHOH(S)">
<polygon fill="dodgerblue" stroke="none" points="233,-674.57 9,-674.57 9,-627.57 233,-627.57 233,-674.57"/>
<text text-anchor="middle" x="121" y="-642.57" font-family="Times New Roman,serif" font-size="35.00">CH2CHOH(S)</text>
</a>
</g>
</g>
<!-- CH2CHOH(S)&#45;&gt;PT(B) -->
<g id="edge11" class="edge">
<title>CH2CHOH(S)&#45;&gt;PT(B)</title>
<path fill="none" stroke="green" d="M232.92,-649.99C381.56,-648.05 637.4,-642.77 730,-629.07 752.25,-625.78 776.17,-620.09 797.31,-614.3"/>
<polygon fill="green" stroke="green" points="798.08,-617.44 806.76,-611.37 796.19,-610.7 798.08,-617.44"/>
<text text-anchor="middle" x="490.5" y="-658.07" font-family="Times New Roman,serif" font-size="30.00"> &#160;&#160;18 &#160;&#160;0% &#160;&#160;2.03e&#45;09 mol/s &#160;&#160;&#160;5.19E&#45;01</text>
</g>
<!-- CH3CH2O(S) -->
<g id="node13" class="node">
<title>CH3CH2O(S)</title>
<g id="a_node13"><a xlink:href="26.svg" xlink:title="CH3CH2O(S)">
<polygon fill="purple" stroke="none" points="230,-609.57 12,-609.57 12,-562.57 230,-562.57 230,-609.57"/>
<text text-anchor="middle" x="121" y="-577.57" font-family="Times New Roman,serif" font-size="35.00">CH3CH2O(S)</text>
</a>
</g>
</g>
<!-- CH3CH2O(S)&#45;&gt;PT(B) -->
<g id="edge12" class="edge">
<title>CH3CH2O(S)&#45;&gt;PT(B)</title>
<path fill="none" stroke="black" d="M229.96,-587.39C386.36,-589.3 670.98,-592.77 796.59,-594.31"/>
<polygon fill="black" stroke="black" points="796.48,-597.82 806.52,-594.44 796.56,-590.82 796.48,-597.82"/>
<text text-anchor="middle" x="490.5" y="-602.07" font-family="Times New Roman,serif" font-size="30.00"> &#160;&#160;23 &#160;&#160;3% &#160;&#160;7.05e&#45;07 mol/s &#160;&#160;&#160;9.91E&#45;01</text>
</g>
<!-- CH3COH(S) -->
<g id="node14" class="node">
<title>CH3COH(S)</title>
<g id="a_node14"><a xlink:href="16.svg" xlink:title="CH3COH(S)">
<polygon fill="springgreen" stroke="none" points="221,-506.57 21,-506.57 21,-459.57 221,-459.57 221,-506.57"/>
<text text-anchor="middle" x="121" y="-474.57" font-family="Times New Roman,serif" font-size="35.00">CH3COH(S)</text>
</a>
</g>
</g>
<!-- CH3COH(S)&#45;&gt;PT(B) -->
<g id="edge14" class="edge">
<title>CH3COH(S)&#45;&gt;PT(B)</title>
<path fill="none" stroke="green" d="M201.32,-506.49C217.63,-510.59 234.77,-514.4 251,-517.07 461.56,-551.75 520.95,-507.21 730,-550.07 752.56,-554.69 776.57,-562.29 797.68,-569.93"/>
<polygon fill="green" stroke="green" points="796.2,-573.48 806.79,-573.67 798.63,-566.92 796.2,-573.48"/>
<text text-anchor="middle" x="490.5" y="-559.07" font-family="Times New Roman,serif" font-size="30.00"> &#160;&#160;39 &#160;&#160;17% &#160;&#160;3.95e&#45;06 mol/s &#160;&#160;&#160;5.43E&#45;01</text>
</g>
<!-- CH3COH(S)&#45;&gt;PT(B) -->
<g id="edge26" class="edge">
<title>CH3COH(S)&#45;&gt;PT(B)</title>
<path fill="none" stroke="green" d="M220.97,-478.69C381.13,-472.19 683.92,-462.51 730,-480.07 773.7,-496.72 812.01,-535.73 835.29,-563.7"/>
<polygon fill="green" stroke="green" points="833,-565.43 842.02,-570.98 838.44,-561.02 833,-565.43"/>
<text text-anchor="middle" x="490.5" y="-489.07" font-family="Times New Roman,serif" font-size="30.00"> &#160;&#160;71 &#160;&#160;1% &#160;&#160;6.48e&#45;07 mol/s &#160;&#160;&#160;5.00E&#45;01</text>
</g>
<!-- CH3COH(S)&#45;&gt;PT(B) -->
<g id="edge30" class="edge">
<title>CH3COH(S)&#45;&gt;PT(B)</title>
<path fill="none" stroke="black" d="M169.76,-459.69C193.56,-449.31 223.14,-438.28 251,-433.07 355.63,-413.5 634.11,-386.85 730,-433.07 785.3,-459.72 824.22,-522.89 844.01,-562"/>
<polygon fill="black" stroke="black" points="841.3,-563.44 848.85,-570.87 847.59,-560.35 841.3,-563.44"/>
<text text-anchor="middle" x="490.5" y="-442.07" font-family="Times New Roman,serif" font-size="30.00"> &#160;&#160;120 &#160;&#160;0% &#160;&#160;1.82e&#45;08 mol/s &#160;&#160;&#160;1.00E+00</text>
</g>
<!-- CH3CO(S) -->
<g id="node15" class="node">
<title>CH3CO(S)</title>
<g id="a_node15"><a xlink:href="28.svg" xlink:title="CH3CO(S)">
<polygon fill="springgreen" stroke="none" points="208.5,-375.57 33.5,-375.57 33.5,-328.57 208.5,-328.57 208.5,-375.57"/>
<text text-anchor="middle" x="121" y="-343.57" font-family="Times New Roman,serif" font-size="35.00">CH3CO(S)</text>
</a>
</g>
</g>
<!-- CH3CO(S)&#45;&gt;PT(B) -->
<g id="edge15" class="edge">
<title>CH3CO(S)&#45;&gt;PT(B)</title>
<path fill="none" stroke="green" d="M208.48,-352.41C371.07,-353.36 708.06,-356.92 730,-370.07 800.71,-412.44 836.25,-509.27 850.77,-561.01"/>
<polygon fill="green" stroke="green" points="847.65,-561.88 853.63,-570.63 854.41,-560.06 847.65,-561.88"/>
<text text-anchor="middle" x="490.5" y="-379.07" font-family="Times New Roman,serif" font-size="30.00"> &#160;&#160;48 &#160;&#160;6% &#160;&#160;1.47e&#45;06 mol/s &#160;&#160;&#160;5.43E&#45;01</text>
</g>
<!-- CH3CO(S)&#45;&gt;PT(B) -->
<g id="edge28" class="edge">
<title>CH3CO(S)&#45;&gt;PT(B)</title>
<path fill="none" stroke="black" d="M190.52,-328.58C209.84,-323.01 231.04,-317.87 251,-315.07 303.7,-307.66 685.18,-286.37 730,-315.07 816.35,-370.36 845.7,-499.7 855.01,-561.3"/>
<polygon fill="black" stroke="black" points="851.65,-561.57 856.52,-570.98 858.58,-560.59 851.65,-561.57"/>
<text text-anchor="middle" x="490.5" y="-324.07" font-family="Times New Roman,serif" font-size="30.00"> &#160;&#160;99 &#160;&#160;0% &#160;&#160;1.58e&#45;08 mol/s &#160;&#160;&#160;1.00E+00</text>
</g>
<!-- CH2CO(S) -->
<g id="node16" class="node">
<title>CH2CO(S)</title>
<g id="a_node16"><a xlink:href="31.svg" xlink:title="CH2CO(S)">
<polygon fill="springgreen" stroke="none" points="208.5,-291.57 33.5,-291.57 33.5,-244.57 208.5,-244.57 208.5,-291.57"/>
<text text-anchor="middle" x="121" y="-259.57" font-family="Times New Roman,serif" font-size="35.00">CH2CO(S)</text>
</a>
</g>
</g>
<!-- CH2CO(S)&#45;&gt;PT(B) -->
<g id="edge16" class="edge">
<title>CH2CO(S)&#45;&gt;PT(B)</title>
<path fill="none" stroke="green" d="M208.24,-261.98C365.84,-251.64 688.1,-234.4 730,-263.07 830.31,-331.71 852.63,-490.67 857.59,-560.78"/>
<polygon fill="green" stroke="green" points="854.15,-560.87 858.27,-570.64 861.14,-560.44 854.15,-560.87"/>
<text text-anchor="middle" x="490.5" y="-272.07" font-family="Times New Roman,serif" font-size="30.00"> &#160;&#160;51 &#160;&#160;11% &#160;&#160;5.42e&#45;06 mol/s &#160;&#160;&#160;5.18E&#45;01</text>
</g>
<!-- CH2COH(S) -->
<g id="node23" class="node">
<title>CH2COH(S)</title>
<g id="a_node23"><a xlink:href="19.svg" xlink:title="CH2COH(S)">
<polygon fill="springgreen" stroke="none" points="221,-226.57 21,-226.57 21,-179.57 221,-179.57 221,-226.57"/>
<text text-anchor="middle" x="121" y="-194.57" font-family="Times New Roman,serif" font-size="35.00">CH2COH(S)</text>
</a>
</g>
</g>
<!-- CH2COH(S)&#45;&gt;PT(B) -->
<g id="edge27" class="edge">
<title>CH2COH(S)&#45;&gt;PT(B)</title>
<path fill="none" stroke="green" d="M220.71,-198.05C382.44,-190.72 690,-180.94 730,-210.07 844.59,-293.53 858.75,-483.46 859.56,-561.07"/>
<polygon fill="green" stroke="green" points="856.06,-560.69 859.59,-570.68 863.06,-560.67 856.06,-560.69"/>
<text text-anchor="middle" x="490.5" y="-219.07" font-family="Times New Roman,serif" font-size="30.00"> &#160;&#160;74 &#160;&#160;8% &#160;&#160;3.95e&#45;06 mol/s &#160;&#160;&#160;5.00E&#45;01</text>
</g>
<!-- CCO(S) -->
<g id="node24" class="node">
<title>CCO(S)</title>
<g id="a_node24"><a xlink:href="37.svg" xlink:title="CCO(S)">
<polygon fill="dodgerblue" stroke="none" points="187,-161.57 55,-161.57 55,-114.57 187,-114.57 187,-161.57"/>
<text text-anchor="middle" x="121" y="-129.57" font-family="Times New Roman,serif" font-size="35.00">CCO(S)</text>
</a>
</g>
</g>
<!-- CCO(S)&#45;&gt;PT(B) -->
<g id="edge29" class="edge">
<title>CCO(S)&#45;&gt;PT(B)</title>
<path fill="none" stroke="black" d="M186.88,-130.41C325.93,-115.44 646.78,-89.05 730,-153.07 796.21,-204.01 840.29,-466.38 854.25,-561"/>
<polygon fill="black" stroke="black" points="850.9,-561.29 855.8,-570.68 857.83,-560.28 850.9,-561.29"/>
<text text-anchor="middle" x="490.5" y="-162.07" font-family="Times New Roman,serif" font-size="30.00"> &#160;&#160;108 &#160;&#160;0% &#160;&#160;2.07e&#45;09 mol/s &#160;&#160;&#160;9.80E&#45;01</text>
</g>
<!-- H2O(S) -->
<g id="node25" class="node">
<title>H2O(S)</title>
<g id="a_node25"><a xlink:href="59.svg" xlink:title="H2O(S)">
<polygon fill="springgreen" stroke="none" points="185,-96.57 57,-96.57 57,-49.57 185,-49.57 185,-96.57"/>
<text text-anchor="middle" x="121" y="-64.57" font-family="Times New Roman,serif" font-size="35.00">H2O(S)</text>
</a>
</g>
</g>
<!-- H2O(S)&#45;&gt;PT(B) -->
<g id="edge31" class="edge">
<title>H2O(S)&#45;&gt;PT(B)</title>
<path fill="none" stroke="green" d="M184.76,-50.67C304.87,-12.19 569.54,50.88 730,-75.07 807.92,-136.23 845.48,-455.57 855.9,-561.15"/>
<polygon fill="green" stroke="green" points="852.48,-561.2 856.93,-570.81 859.45,-560.52 852.48,-561.2"/>
<text text-anchor="middle" x="490.5" y="-84.07" font-family="Times New Roman,serif" font-size="30.00"> &#160;&#160;150 &#160;&#160;5% &#160;&#160;2.48e&#45;06 mol/s &#160;&#160;&#160;5.02E&#45;01</text>
</g>
<!-- COOH(S)&#45;&gt;PT(B) -->
<g id="edge33" class="edge">
<title>COOH(S)&#45;&gt;PT(B)</title>
<path fill="none" stroke="black" d="M1539.46,-222.66C1423.34,-180.42 1160.68,-106.25 993.5,-224.07 881.56,-302.95 863.67,-485.39 861.19,-561.14"/>
<polygon fill="black" stroke="black" points="857.67,-560.85 860.92,-570.94 864.67,-561.03 857.67,-560.85"/>
<text text-anchor="middle" x="1229.5" y="-233.07" font-family="Times New Roman,serif" font-size="30.00"> &#160;&#160;156 &#160;&#160;5% &#160;&#160;2.5e&#45;06 mol/s &#160;&#160;&#160;9.85E&#45;01</text>
</g>
</g>
</svg>
