<?xml version="1.0" encoding="UTF-8" standalone="no"?>
<!DOCTYPE svg PUBLIC "-//W3C//DTD SVG 1.1//EN"
 "http://www.w3.org/Graphics/SVG/1.1/DTD/svg11.dtd">
<!-- Generated by graphviz version 8.0.3 (20230416.2022)
 -->
<!-- Title: G Pages: 1 -->
<svg width="640pt" height="190pt"
 viewBox="0.00 0.00 720.00 213.79" xmlns="http://www.w3.org/2000/svg" xmlns:xlink="http://www.w3.org/1999/xlink">
<g id="graph0" class="graph" transform="scale(0.524161 0.524161) rotate(0) translate(4 358.55)">
<title>G</title>
<polygon fill="white" stroke="none" points="-4,4 -4,-358.55 1217,-358.55 1217,4 -4,4"/>
<text text-anchor="middle" x="606.5" y="-321.75" font-family="Arial" font-size="36.00" fill="blue">Reaction Path Analysis</text>
<!-- R10 -->
<g id="node1" class="node">
<title>R10</title>
<g id="a_node1"><a xlink:href="10.svg" xlink:title="R10">
<polygon fill="azure" stroke="none" points="649,-167.05 573,-167.05 573,-120.05 649,-120.05 649,-167.05"/>
<text text-anchor="middle" x="611" y="-135.05" font-family="Times New Roman,serif" font-size="35.00">R10</text>
</a>
</g>
</g>
<!-- R2 -->
<g id="node2" class="node">
<title>R2</title>
<g id="a_node2"><a xlink:href="2.svg" xlink:title="R2">
<polygon fill="azure" stroke="none" points="1213,-265.05 1155,-265.05 1155,-218.05 1213,-218.05 1213,-265.05"/>
<text text-anchor="middle" x="1184" y="-233.05" font-family="Times New Roman,serif" font-size="35.00">R2</text>
</a>
</g>
</g>
<!-- R10&#45;&gt;R2 -->
<g id="edge1" class="edge">
<title>R10&#45;&gt;R2</title>
<path fill="none" stroke="black" stroke-width="5" d="M620.5,-167.05C627.76,-183.42 639.94,-204.13 658,-214.55 812.53,-303.78 1037.26,-272.46 1134.81,-252.69"/>
<polygon fill="black" stroke="black" stroke-width="5" points="1131.47,-262.07 1149.2,-249.34 1127.82,-244.95 1131.47,-262.07"/>
<text text-anchor="middle" x="897.5" y="-282.55" font-family="Times New Roman,serif" font-size="30.00"> &#160;&#160;10 &#160;&#160;89% &#160;&#160;0.000306 mol/s &#160;&#160;&#160;1.39E&#45;03</text>
</g>
<!-- R3 -->
<g id="node3" class="node">
<title>R3</title>
<g id="a_node3"><a xlink:href="3.svg" xlink:title="R3">
<polygon fill="azure" stroke="none" points="1213,-200.05 1155,-200.05 1155,-153.05 1213,-153.05 1213,-200.05"/>
<text text-anchor="middle" x="1184" y="-168.05" font-family="Times New Roman,serif" font-size="35.00">R3</text>
</a>
</g>
</g>
<!-- R10&#45;&gt;R3 -->
<g id="edge2" class="edge">
<title>R10&#45;&gt;R3</title>
<path fill="none" stroke="black" stroke-width="5" d="M648.79,-153.01C651.89,-153.61 654.99,-154.14 658,-154.55 832.06,-178.78 1041.46,-179 1134.43,-177.63"/>
<polygon fill="black" stroke="black" stroke-width="5" points="1129.38,-186.37 1149.22,-177.27 1129.07,-168.87 1129.38,-186.37"/>
<text text-anchor="middle" x="897.5" y="-186.55" font-family="Times New Roman,serif" font-size="30.00"> &#160;&#160;10 &#160;&#160;89% &#160;&#160;0.000306 mol/s &#160;&#160;&#160;1.39E&#45;03</text>
</g>
<!-- R1 -->
<g id="node4" class="node">
<title>R1</title>
<g id="a_node4"><a xlink:href="1.svg" xlink:title="R1">
<polygon fill="azure" stroke="none" points="1213,-135.05 1155,-135.05 1155,-88.05 1213,-88.05 1213,-135.05"/>
<text text-anchor="middle" x="1184" y="-103.05" font-family="Times New Roman,serif" font-size="35.00">R1</text>
</a>
</g>
</g>
<!-- R10&#45;&gt;R1 -->
<g id="edge3" class="edge">
<title>R10&#45;&gt;R1</title>
<path fill="none" stroke="black" d="M648.91,-124.27C651.93,-123.2 654.99,-122.27 658,-121.55 835.61,-79.48 1056.55,-97.1 1144.39,-106.78"/>
<polygon fill="black" stroke="black" points="1143.83,-110.35 1154.16,-108 1144.62,-103.4 1143.83,-110.35"/>
<text text-anchor="middle" x="897.5" y="-130.55" font-family="Times New Roman,serif" font-size="30.00"> &#160;&#160;22 &#160;&#160;10% &#160;&#160;3.75e&#45;05 mol/s &#160;&#160;&#160;1.12E&#45;02</text>
</g>
<!-- R6 -->
<g id="node5" class="node">
<title>R6</title>
<g id="a_node5"><a xlink:href="6.svg" xlink:title="R6">
<polygon fill="azure" stroke="none" points="1213,-70.05 1155,-70.05 1155,-23.05 1213,-23.05 1213,-70.05"/>
<text text-anchor="middle" x="1184" y="-38.05" font-family="Times New Roman,serif" font-size="35.00">R6</text>
</a>
</g>
</g>
<!-- R10&#45;&gt;R6 -->
<g id="edge4" class="edge">
<title>R10&#45;&gt;R6</title>
<path fill="none" stroke="black" d="M617.38,-120.37C623.49,-99.91 635.63,-71.28 658,-57.55 815.56,39.11 1052.87,-10.45 1144.77,-35.24"/>
<polygon fill="black" stroke="black" points="1143.67,-38.84 1154.24,-38.13 1145.53,-32.1 1143.67,-38.84"/>
<text text-anchor="middle" x="897.5" y="-66.55" font-family="Times New Roman,serif" font-size="30.00"> &#160;&#160;22 &#160;&#160;10% &#160;&#160;3.75e&#45;05 mol/s &#160;&#160;&#160;1.12E&#45;02</text>
</g>
<!-- R23 -->
<g id="node6" class="node">
<title>R23</title>
<g id="a_node6"><a xlink:href="23.svg" xlink:title="R23">
<polygon fill="azure" stroke="none" points="76,-232.05 0,-232.05 0,-185.05 76,-185.05 76,-232.05"/>
<text text-anchor="middle" x="38" y="-200.05" font-family="Times New Roman,serif" font-size="35.00">R23</text>
</a>
</g>
</g>
<!-- R23&#45;&gt;R10 -->
<g id="edge5" class="edge">
<title>R23&#45;&gt;R10</title>
<path fill="none" stroke="black" stroke-width="4" d="M75.69,-212.88C161.66,-221.66 381.79,-236.36 553,-180.55 556.13,-179.53 559.25,-178.3 562.33,-176.9"/>
<polygon fill="black" stroke="black" stroke-width="4" points="561.34,-184.68 575.44,-168.87 554.56,-172.44 561.34,-184.68"/>
<text text-anchor="middle" x="324.5" y="-229.55" font-family="Times New Roman,serif" font-size="30.00"> &#160;&#160;28 &#160;&#160;62% &#160;&#160;0.0222 mol/s &#160;&#160;&#160;1.93E&#45;05</text>
</g>
<!-- R39 -->
<g id="node7" class="node">
<title>R39</title>
<g id="a_node7"><a xlink:href="39.svg" xlink:title="R39">
<polygon fill="azure" stroke="none" points="76,-167.05 0,-167.05 0,-120.05 76,-120.05 76,-167.05"/>
<text text-anchor="middle" x="38" y="-135.05" font-family="Times New Roman,serif" font-size="35.00">R39</text>
</a>
</g>
</g>
<!-- R39&#45;&gt;R10 -->
<g id="edge6" class="edge">
<title>R39&#45;&gt;R10</title>
<path fill="none" stroke="black" d="M75.59,-143.55C175.18,-143.55 451.1,-143.55 562.47,-143.55"/>
<polygon fill="black" stroke="black" points="562.35,-147.05 572.35,-143.55 562.35,-140.05 562.35,-147.05"/>
<text text-anchor="middle" x="324.5" y="-152.55" font-family="Times New Roman,serif" font-size="30.00"> &#160;&#160;44 &#160;&#160;0% &#160;&#160;9.75e&#45;05 mol/s &#160;&#160;&#160;4.35E&#45;03</text>
</g>
<!-- R84 -->
<g id="node8" class="node">
<title>R84</title>
<g id="a_node8"><a xlink:href="84.svg" xlink:title="R84">
<polygon fill="azure" stroke="none" points="76,-102.05 0,-102.05 0,-55.05 76,-55.05 76,-102.05"/>
<text text-anchor="middle" x="38" y="-70.05" font-family="Times New Roman,serif" font-size="35.00">R84</text>
</a>
</g>
</g>
<!-- R84&#45;&gt;R10 -->
<g id="edge7" class="edge">
<title>R84&#45;&gt;R10</title>
<path fill="none" stroke="black" stroke-width="2" d="M75.69,-74.23C161.66,-65.45 381.79,-50.75 553,-106.55 559.26,-108.59 565.49,-111.5 571.42,-114.8"/>
<polygon fill="black" stroke="black" stroke-width="2" points="568.07,-117.07 578.44,-119.24 571.69,-111.08 568.07,-117.07"/>
<text text-anchor="middle" x="324.5" y="-115.55" font-family="Times New Roman,serif" font-size="30.00"> &#160;&#160;90 &#160;&#160;37% &#160;&#160;0.0134 mol/s &#160;&#160;&#160;3.19E&#45;05</text>
</g>
</g>
</svg>
