<?xml version="1.0" encoding="UTF-8" standalone="no"?>
<!DOCTYPE svg PUBLIC "-//W3C//DTD SVG 1.1//EN"
 "http://www.w3.org/Graphics/SVG/1.1/DTD/svg11.dtd">
<!-- Generated by graphviz version 8.0.3 (20230416.2022)
 -->
<!-- Title: G Pages: 1 -->
<svg width="640pt" height="254pt"
 viewBox="0.00 0.00 720.00 285.50" xmlns="http://www.w3.org/2000/svg" xmlns:xlink="http://www.w3.org/1999/xlink">
<g id="graph0" class="graph" transform="scale(0.484481 0.484481) rotate(0) translate(4 519.81)">
<title>G</title>
<polygon fill="white" stroke="none" points="-4,4 -4,-519.81 1317,-519.81 1317,4 -4,4"/>
<text text-anchor="middle" x="656.5" y="-483.01" font-family="Arial" font-size="36.00" fill="blue">Reaction Path Analysis</text>
<!-- R100 -->
<g id="node1" class="node">
<title>R100</title>
<g id="a_node1"><a xlink:href="100.svg" xlink:title="R100">
<polygon fill="azure" stroke="none" points="699,-252.31 605,-252.31 605,-205.31 699,-205.31 699,-252.31"/>
<text text-anchor="middle" x="652" y="-220.31" font-family="Times New Roman,serif" font-size="35.00">R100</text>
</a>
</g>
</g>
<!-- R0 -->
<g id="node2" class="node">
<title>R0</title>
<g id="a_node2"><a xlink:href="0.svg" xlink:title="R0">
<polygon fill="azure" stroke="none" points="1295,-426.31 1237,-426.31 1237,-379.31 1295,-379.31 1295,-426.31"/>
<text text-anchor="middle" x="1266" y="-394.31" font-family="Times New Roman,serif" font-size="35.00">R0</text>
</a>
</g>
</g>
<!-- R100&#45;&gt;R0 -->
<g id="edge6" class="edge">
<title>R100&#45;&gt;R0</title>
<path fill="none" stroke="black" d="M652.42,-252.28C652.89,-291.09 660.21,-367.79 708,-402.81 790.11,-462.97 1113.84,-424.18 1226.28,-408.5"/>
<polygon fill="black" stroke="black" points="1226.69,-411.84 1236.1,-406.97 1225.71,-404.91 1226.69,-411.84"/>
<text text-anchor="middle" x="959" y="-443.81" font-family="Times New Roman,serif" font-size="30.00"> &#160;&#160;799 &#160;&#160;0% &#160;&#160;3.13e&#45;06 mol/s &#160;&#160;&#160;1.07E&#45;01</text>
</g>
<!-- R4 -->
<g id="node4" class="node">
<title>R4</title>
<g id="a_node4"><a xlink:href="4.svg" xlink:title="R4">
<polygon fill="azure" stroke="none" points="1295,-340.31 1237,-340.31 1237,-293.31 1295,-293.31 1295,-340.31"/>
<text text-anchor="middle" x="1266" y="-308.31" font-family="Times New Roman,serif" font-size="35.00">R4</text>
</a>
</g>
</g>
<!-- R100&#45;&gt;R4 -->
<g id="edge3" class="edge">
<title>R100&#45;&gt;R4</title>
<path fill="none" stroke="black" d="M667.86,-252.03C677.57,-265.02 691.5,-280.12 708,-287.81 758.62,-311.4 1154.23,-310.84 1210,-313.81 1215.22,-314.08 1220.71,-314.38 1226.13,-314.67"/>
<polygon fill="black" stroke="black" points="1225.85,-318.22 1236.02,-315.27 1226.23,-311.23 1225.85,-318.22"/>
<text text-anchor="middle" x="959" y="-322.81" font-family="Times New Roman,serif" font-size="30.00"> &#160;&#160;299 &#160;&#160;0% &#160;&#160;0.000745 mol/s &#160;&#160;&#160;5.73E&#45;04</text>
</g>
<!-- R15 -->
<g id="node5" class="node">
<title>R15</title>
<g id="a_node5"><a xlink:href="15.svg" xlink:title="R15">
<polygon fill="azure" stroke="none" points="1304,-275.31 1228,-275.31 1228,-228.31 1304,-228.31 1304,-275.31"/>
<text text-anchor="middle" x="1266" y="-243.31" font-family="Times New Roman,serif" font-size="35.00">R15</text>
</a>
</g>
</g>
<!-- R100&#45;&gt;R15 -->
<g id="edge4" class="edge">
<title>R100&#45;&gt;R15</title>
<path fill="none" stroke="black" d="M698.89,-234.08C701.97,-234.35 705.03,-234.6 708,-234.81 896.23,-247.93 1120.93,-250.92 1217.29,-251.61"/>
<polygon fill="black" stroke="black" points="1217.1,-255.11 1227.13,-251.68 1217.15,-248.11 1217.1,-255.11"/>
<text text-anchor="middle" x="959" y="-259.81" font-family="Times New Roman,serif" font-size="30.00"> &#160;&#160;299 &#160;&#160;0% &#160;&#160;0.000745 mol/s &#160;&#160;&#160;5.73E&#45;04</text>
</g>
<!-- R266 -->
<g id="node6" class="node">
<title>R266</title>
<g id="a_node6"><a xlink:href="266.svg" xlink:title="R266">
<polygon fill="azure" stroke="none" points="1313,-196.31 1219,-196.31 1219,-149.31 1313,-149.31 1313,-196.31"/>
<text text-anchor="middle" x="1266" y="-164.31" font-family="Times New Roman,serif" font-size="35.00">R266</text>
</a>
</g>
</g>
<!-- R100&#45;&gt;R266 -->
<g id="edge5" class="edge">
<title>R100&#45;&gt;R266</title>
<path fill="none" stroke="black" stroke-width="5" d="M688.92,-205.41C695.08,-202.34 701.57,-199.63 708,-197.81 809.65,-169.07 1068.74,-185.02 1198.34,-179.26"/>
<polygon fill="black" stroke="black" stroke-width="5" points="1193.65,-187.95 1213.11,-178.06 1192.63,-170.48 1193.65,-187.95"/>
<text text-anchor="middle" x="959" y="-206.81" font-family="Times New Roman,serif" font-size="30.00"> &#160;&#160;748 &#160;&#160;99% &#160;&#160;0.449 mol/s &#160;&#160;&#160;1.45E&#45;03</text>
</g>
<!-- R100&#45;&gt;R266 -->
<g id="edge9" class="edge">
<title>R100&#45;&gt;R266</title>
<path fill="none" stroke="black" d="M660.44,-205.51C668.5,-184.62 683.58,-155.26 708,-141.81 756.86,-114.89 1156.05,-127.65 1210,-141.81 1213.18,-142.64 1216.38,-143.71 1219.54,-144.94"/>
<polygon fill="black" stroke="black" points="1217.88,-148.48 1228.44,-149.35 1220.73,-142.09 1217.88,-148.48"/>
<text text-anchor="middle" x="959" y="-150.81" font-family="Times New Roman,serif" font-size="30.00"> &#160;&#160;920 &#160;&#160;0% &#160;&#160;0.000653 mol/s &#160;&#160;&#160;9.99E&#45;01</text>
</g>
<!-- R62 -->
<g id="node7" class="node">
<title>R62</title>
<g id="a_node7"><a xlink:href="62.svg" xlink:title="R62">
<polygon fill="azure" stroke="none" points="1304,-112.31 1228,-112.31 1228,-65.31 1304,-65.31 1304,-112.31"/>
<text text-anchor="middle" x="1266" y="-80.31" font-family="Times New Roman,serif" font-size="35.00">R62</text>
</a>
</g>
</g>
<!-- R100&#45;&gt;R62 -->
<g id="edge7" class="edge">
<title>R100&#45;&gt;R62</title>
<path fill="none" stroke="black" d="M654.54,-205.47C658.08,-173.17 669.71,-115.88 708,-89.81 749.51,-61.54 1090.41,-78.49 1217.49,-85.88"/>
<polygon fill="black" stroke="black" points="1217.21,-89.43 1227.39,-86.53 1217.62,-82.45 1217.21,-89.43"/>
<text text-anchor="middle" x="959" y="-98.81" font-family="Times New Roman,serif" font-size="30.00"> &#160;&#160;799 &#160;&#160;0% &#160;&#160;3.13e&#45;06 mol/s &#160;&#160;&#160;1.07E&#45;01</text>
</g>
<!-- R384 -->
<g id="node8" class="node">
<title>R384</title>
<g id="a_node8"><a xlink:href="384.svg" xlink:title="R384">
<polygon fill="azure" stroke="none" points="1313,-47.31 1219,-47.31 1219,-0.31 1313,-0.31 1313,-47.31"/>
<text text-anchor="middle" x="1266" y="-15.31" font-family="Times New Roman,serif" font-size="35.00">R384</text>
</a>
</g>
</g>
<!-- R100&#45;&gt;R384 -->
<g id="edge8" class="edge">
<title>R100&#45;&gt;R384</title>
<path fill="none" stroke="black" d="M656.24,-205.66C663.22,-159.46 681.24,-58.48 708,-37.81 784.63,21.39 1082.07,-3.44 1208.08,-17.08"/>
<polygon fill="black" stroke="black" points="1207.69,-20.66 1218.01,-18.28 1208.45,-13.71 1207.69,-20.66"/>
<text text-anchor="middle" x="959" y="-46.81" font-family="Times New Roman,serif" font-size="30.00"> &#160;&#160;812 &#160;&#160;0% &#160;&#160;4.28e&#45;07 mol/s &#160;&#160;&#160;1.00E+00</text>
</g>
<!-- R0&#45;&gt;R100 -->
<g id="edge1" class="edge">
<title>R0&#45;&gt;R100</title>
<path fill="none" stroke="black" stroke-width="6" d="M1237.15,-382.48C1228.81,-377.42 1219.38,-372.64 1210,-369.81 1156.55,-353.67 754.39,-377.88 708,-346.81 682.91,-330 669.03,-298.6 661.49,-272.42"/>
<polygon fill="black" stroke="black" stroke-width="6" points="672.47,-275.03 657.54,-258.08 652.07,-280 672.47,-275.03"/>
<text text-anchor="middle" x="959" y="-378.81" font-family="Times New Roman,serif" font-size="30.00"> &#160;&#160;129 &#160;&#160;100% &#160;&#160;3.88e&#45;07 mol/s &#160;&#160;&#160;9.15E&#45;01</text>
</g>
<!-- R61 -->
<g id="node3" class="node">
<title>R61</title>
<g id="a_node3"><a xlink:href="61.svg" xlink:title="R61">
<polygon fill="azure" stroke="none" points="76,-252.31 0,-252.31 0,-205.31 76,-205.31 76,-252.31"/>
<text text-anchor="middle" x="38" y="-220.31" font-family="Times New Roman,serif" font-size="35.00">R61</text>
</a>
</g>
</g>
<!-- R61&#45;&gt;R100 -->
<g id="edge2" class="edge">
<title>R61&#45;&gt;R100</title>
<path fill="none" stroke="black" stroke-width="6" d="M75.91,-228.81C176.31,-228.81 455.49,-228.81 584.31,-228.81"/>
<polygon fill="black" stroke="black" stroke-width="6" points="579.09,-239.31 599.09,-228.81 579.09,-218.31 579.09,-239.31"/>
<text text-anchor="middle" x="345" y="-237.81" font-family="Times New Roman,serif" font-size="30.00"> &#160;&#160;129 &#160;&#160;100% &#160;&#160;3.88e&#45;07 mol/s &#160;&#160;&#160;9.15E&#45;01</text>
</g>
</g>
</svg>
