<?xml version="1.0" encoding="UTF-8" standalone="no"?>
<!DOCTYPE svg PUBLIC "-//W3C//DTD SVG 1.1//EN"
 "http://www.w3.org/Graphics/SVG/1.1/DTD/svg11.dtd">
<!-- Generated by graphviz version 8.0.3 (20230416.2022)
 -->
<!-- Title: G Pages: 1 -->
<svg width="640pt" height="176pt"
 viewBox="0.00 0.00 720.00 198.01" xmlns="http://www.w3.org/2000/svg" xmlns:xlink="http://www.w3.org/1999/xlink">
<g id="graph0" class="graph" transform="scale(0.49574 0.49574) rotate(0) translate(4 351.05)">
<title>G</title>
<polygon fill="white" stroke="none" points="-4,4 -4,-351.05 1287,-351.05 1287,4 -4,4"/>
<text text-anchor="middle" x="641.5" y="-314.25" font-family="Arial" font-size="36.00" fill="blue">Reaction Path Analysis</text>
<!-- R103 -->
<g id="node1" class="node">
<title>R103</title>
<g id="a_node1"><a xlink:href="103.svg" xlink:title="R103">
<polygon fill="azure" stroke="none" points="693,-162.55 599,-162.55 599,-115.55 693,-115.55 693,-162.55"/>
<text text-anchor="middle" x="646" y="-130.55" font-family="Times New Roman,serif" font-size="35.00">R103</text>
</a>
</g>
</g>
<!-- R0 -->
<g id="node2" class="node">
<title>R0</title>
<g id="a_node2"><a xlink:href="0.svg" xlink:title="R0">
<polygon fill="azure" stroke="none" points="1274,-260.55 1216,-260.55 1216,-213.55 1274,-213.55 1274,-260.55"/>
<text text-anchor="middle" x="1245" y="-228.55" font-family="Times New Roman,serif" font-size="35.00">R0</text>
</a>
</g>
</g>
<!-- R103&#45;&gt;R0 -->
<g id="edge1" class="edge">
<title>R103&#45;&gt;R0</title>
<path fill="none" stroke="black" stroke-width="5" d="M658.41,-162.32C667.72,-178.52 682.52,-198.95 702,-209.05 865.92,-294.02 1096.47,-265.31 1195.59,-247.18"/>
<polygon fill="black" stroke="black" stroke-width="5" points="1192.02,-256.62 1210.01,-244.24 1188.71,-239.43 1192.02,-256.62"/>
<text text-anchor="middle" x="945.5" y="-275.05" font-family="Times New Roman,serif" font-size="30.00"> &#160;&#160;136 &#160;&#160;83% &#160;&#160;1.76e&#45;06 mol/s &#160;&#160;&#160;1.63E&#45;01</text>
</g>
<!-- R70 -->
<g id="node3" class="node">
<title>R70</title>
<g id="a_node3"><a xlink:href="70.svg" xlink:title="R70">
<polygon fill="azure" stroke="none" points="1283,-195.55 1207,-195.55 1207,-148.55 1283,-148.55 1283,-195.55"/>
<text text-anchor="middle" x="1245" y="-163.55" font-family="Times New Roman,serif" font-size="35.00">R70</text>
</a>
</g>
</g>
<!-- R103&#45;&gt;R70 -->
<g id="edge2" class="edge">
<title>R103&#45;&gt;R70</title>
<path fill="none" stroke="black" stroke-width="5" d="M692.83,-148.78C695.92,-149.26 699,-149.69 702,-150.05 877.42,-171.02 1086.8,-173.07 1186.17,-172.67"/>
<polygon fill="black" stroke="black" stroke-width="5" points="1181.09,-181.41 1201.04,-172.54 1180.99,-163.92 1181.09,-181.41"/>
<text text-anchor="middle" x="945.5" y="-181.05" font-family="Times New Roman,serif" font-size="30.00"> &#160;&#160;136 &#160;&#160;83% &#160;&#160;1.76e&#45;06 mol/s &#160;&#160;&#160;1.63E&#45;01</text>
</g>
<!-- R6 -->
<g id="node5" class="node">
<title>R6</title>
<g id="a_node5"><a xlink:href="6.svg" xlink:title="R6">
<polygon fill="azure" stroke="none" points="1274,-130.55 1216,-130.55 1216,-83.55 1274,-83.55 1274,-130.55"/>
<text text-anchor="middle" x="1245" y="-98.55" font-family="Times New Roman,serif" font-size="35.00">R6</text>
</a>
</g>
</g>
<!-- R103&#45;&gt;R6 -->
<g id="edge4" class="edge">
<title>R103&#45;&gt;R6</title>
<path fill="none" stroke="black" d="M692.84,-119.32C695.91,-118.43 698.98,-117.66 702,-117.05 887.55,-79.54 1116.13,-94.8 1205.57,-103.07"/>
<polygon fill="black" stroke="black" points="1204.98,-106.62 1215.27,-104.08 1205.64,-99.65 1204.98,-106.62"/>
<text text-anchor="middle" x="945.5" y="-126.05" font-family="Times New Roman,serif" font-size="30.00"> &#160;&#160;884 &#160;&#160;16% &#160;&#160;3.58e&#45;07 mol/s &#160;&#160;&#160;3.52E&#45;01</text>
</g>
<!-- R16 -->
<g id="node6" class="node">
<title>R16</title>
<g id="a_node6"><a xlink:href="16.svg" xlink:title="R16">
<polygon fill="azure" stroke="none" points="1283,-65.55 1207,-65.55 1207,-18.55 1283,-18.55 1283,-65.55"/>
<text text-anchor="middle" x="1245" y="-33.55" font-family="Times New Roman,serif" font-size="35.00">R16</text>
</a>
</g>
</g>
<!-- R103&#45;&gt;R16 -->
<g id="edge5" class="edge">
<title>R103&#45;&gt;R16</title>
<path fill="none" stroke="black" d="M655.31,-115.78C663.74,-96.01 678.86,-68.86 702,-56.05 864.12,33.72 1097.43,-6.3 1196.56,-29.58"/>
<polygon fill="black" stroke="black" points="1195.59,-33.19 1206.13,-32.12 1197.22,-26.38 1195.59,-33.19"/>
<text text-anchor="middle" x="945.5" y="-65.05" font-family="Times New Roman,serif" font-size="30.00"> &#160;&#160;884 &#160;&#160;16% &#160;&#160;3.58e&#45;07 mol/s &#160;&#160;&#160;3.52E&#45;01</text>
</g>
<!-- R226 -->
<g id="node4" class="node">
<title>R226</title>
<g id="a_node4"><a xlink:href="226.svg" xlink:title="R226">
<polygon fill="azure" stroke="none" points="94,-162.55 0,-162.55 0,-115.55 94,-115.55 94,-162.55"/>
<text text-anchor="middle" x="47" y="-130.55" font-family="Times New Roman,serif" font-size="35.00">R226</text>
</a>
</g>
</g>
<!-- R226&#45;&gt;R103 -->
<g id="edge3" class="edge">
<title>R226&#45;&gt;R103</title>
<path fill="none" stroke="green" stroke-width="3" d="M93.89,-144.43C96.97,-144.68 100.03,-144.89 103,-145.05 315.64,-156.62 372.07,-156.8 588.36,-145.02"/>
<polygon fill="green" stroke="green" stroke-width="3" points="585.32,-148.47 595.11,-144.43 584.94,-141.49 585.32,-148.47"/>
<text text-anchor="middle" x="346.5" y="-162.05" font-family="Times New Roman,serif" font-size="30.00"> &#160;&#160;705 &#160;&#160;49% &#160;&#160;2.01e&#45;05 mol/s &#160;&#160;&#160;5.08E&#45;01</text>
</g>
<!-- R226&#45;&gt;R103 -->
<g id="edge6" class="edge">
<title>R226&#45;&gt;R103</title>
<path fill="none" stroke="green" stroke-width="3" d="M83.56,-115.6C89.81,-112.48 96.43,-109.78 103,-108.05 312.36,-53.11 380.64,-53.11 590,-108.05 593.18,-108.89 596.38,-109.95 599.54,-111.18"/>
<polygon fill="green" stroke="green" stroke-width="3" points="594.88,-113.72 605.44,-114.6 597.73,-107.33 594.88,-113.72"/>
<text text-anchor="middle" x="346.5" y="-117.05" font-family="Times New Roman,serif" font-size="30.00"> &#160;&#160;923 &#160;&#160;50% &#160;&#160;2.08e&#45;05 mol/s &#160;&#160;&#160;4.92E&#45;01</text>
</g>
</g>
</svg>
