<?xml version="1.0" encoding="UTF-8" standalone="no"?>
<!DOCTYPE svg PUBLIC "-//W3C//DTD SVG 1.1//EN"
 "http://www.w3.org/Graphics/SVG/1.1/DTD/svg11.dtd">
<!-- Generated by graphviz version 8.0.3 (20230416.2022)
 -->
<!-- Title: G Pages: 1 -->
<svg width="640pt" height="207pt"
 viewBox="0.00 0.00 720.00 233.08" xmlns="http://www.w3.org/2000/svg" xmlns:xlink="http://www.w3.org/1999/xlink">
<g id="graph0" class="graph" transform="scale(0.490421 0.490421) rotate(0) translate(4 418.46)">
<title>G</title>
<polygon fill="white" stroke="none" points="-4,4 -4,-418.46 1301,-418.46 1301,4 -4,4"/>
<text text-anchor="middle" x="648.5" y="-381.66" font-family="Arial" font-size="36.00" fill="blue">Reaction Path Analysis</text>
<!-- R107 -->
<g id="node1" class="node">
<title>R107</title>
<g id="a_node1"><a xlink:href="107.svg" xlink:title="R107">
<polygon fill="azure" stroke="none" points="700,-197.96 606,-197.96 606,-150.96 700,-150.96 700,-197.96"/>
<text text-anchor="middle" x="653" y="-165.96" font-family="Times New Roman,serif" font-size="35.00">R107</text>
</a>
</g>
</g>
<!-- R14 -->
<g id="node5" class="node">
<title>R14</title>
<g id="a_node5"><a xlink:href="14.svg" xlink:title="R14">
<polygon fill="azure" stroke="none" points="1297,-230.96 1221,-230.96 1221,-183.96 1297,-183.96 1297,-230.96"/>
<text text-anchor="middle" x="1259" y="-198.96" font-family="Times New Roman,serif" font-size="35.00">R14</text>
</a>
</g>
</g>
<!-- R107&#45;&gt;R14 -->
<g id="edge4" class="edge">
<title>R107&#45;&gt;R14</title>
<path fill="none" stroke="black" stroke-width="6" d="M699.83,-184.18C702.92,-184.67 706,-185.1 709,-185.46 887.32,-206.73 1100.27,-208.61 1200.48,-208.12"/>
<polygon fill="black" stroke="black" stroke-width="6" points="1195.29,-218.61 1215.22,-207.97 1195.15,-197.62 1195.29,-218.61"/>
<text text-anchor="middle" x="956" y="-216.46" font-family="Times New Roman,serif" font-size="30.00"> &#160;&#160;893 &#160;&#160;100% &#160;&#160;0.00229 mol/s &#160;&#160;&#160;1.86E&#45;04</text>
</g>
<!-- R16 -->
<g id="node6" class="node">
<title>R16</title>
<g id="a_node6"><a xlink:href="16.svg" xlink:title="R16">
<polygon fill="azure" stroke="none" points="1297,-165.96 1221,-165.96 1221,-118.96 1297,-118.96 1297,-165.96"/>
<text text-anchor="middle" x="1259" y="-133.96" font-family="Times New Roman,serif" font-size="35.00">R16</text>
</a>
</g>
</g>
<!-- R107&#45;&gt;R16 -->
<g id="edge5" class="edge">
<title>R107&#45;&gt;R16</title>
<path fill="none" stroke="black" stroke-width="6" d="M699.84,-154.72C702.91,-153.84 705.98,-153.07 709,-152.46 885.13,-116.87 1099.53,-128.27 1200.35,-136.75"/>
<polygon fill="black" stroke="black" stroke-width="6" points="1194.36,-147.3 1215.21,-138.61 1196.22,-126.38 1194.36,-147.3"/>
<text text-anchor="middle" x="956" y="-161.46" font-family="Times New Roman,serif" font-size="30.00"> &#160;&#160;893 &#160;&#160;100% &#160;&#160;0.00229 mol/s &#160;&#160;&#160;1.86E&#45;04</text>
</g>
<!-- R0 -->
<g id="node2" class="node">
<title>R0</title>
<g id="a_node2"><a xlink:href="0.svg" xlink:title="R0">
<polygon fill="azure" stroke="none" points="76,-322.96 18,-322.96 18,-275.96 76,-275.96 76,-322.96"/>
<text text-anchor="middle" x="47" y="-290.96" font-family="Times New Roman,serif" font-size="35.00">R0</text>
</a>
</g>
</g>
<!-- R0&#45;&gt;R107 -->
<g id="edge1" class="edge">
<title>R0&#45;&gt;R107</title>
<path fill="none" stroke="black" d="M75.8,-306.36C160.05,-325.66 417.38,-372.49 589.5,-272.46 613.9,-258.28 630.29,-230.34 640.15,-207.92"/>
<polygon fill="black" stroke="black" points="643.76,-209.33 644.34,-198.75 637.29,-206.66 643.76,-209.33"/>
<text text-anchor="middle" x="350" y="-342.46" font-family="Times New Roman,serif" font-size="30.00"> &#160;&#160;150 &#160;&#160;0% &#160;&#160;4.27e&#45;07 mol/s &#160;&#160;&#160;9.99E&#45;01</text>
</g>
<!-- R90 -->
<g id="node3" class="node">
<title>R90</title>
<g id="a_node3"><a xlink:href="90.svg" xlink:title="R90">
<polygon fill="azure" stroke="none" points="85,-257.96 9,-257.96 9,-210.96 85,-210.96 85,-257.96"/>
<text text-anchor="middle" x="47" y="-225.96" font-family="Times New Roman,serif" font-size="35.00">R90</text>
</a>
</g>
</g>
<!-- R90&#45;&gt;R107 -->
<g id="edge2" class="edge">
<title>R90&#45;&gt;R107</title>
<path fill="none" stroke="black" d="M84.98,-235.09C191.03,-236.54 494.63,-238.09 589.5,-210.46 595.89,-208.6 602.32,-205.96 608.5,-202.94"/>
<polygon fill="black" stroke="black" points="609.75,-205.71 616.96,-197.95 606.49,-199.52 609.75,-205.71"/>
<text text-anchor="middle" x="350" y="-244.46" font-family="Times New Roman,serif" font-size="30.00"> &#160;&#160;150 &#160;&#160;0% &#160;&#160;4.27e&#45;07 mol/s &#160;&#160;&#160;9.99E&#45;01</text>
</g>
<!-- R386 -->
<g id="node4" class="node">
<title>R386</title>
<g id="a_node4"><a xlink:href="386.svg" xlink:title="R386">
<polygon fill="azure" stroke="none" points="94,-192.96 0,-192.96 0,-145.96 94,-145.96 94,-192.96"/>
<text text-anchor="middle" x="47" y="-160.96" font-family="Times New Roman,serif" font-size="35.00">R386</text>
</a>
</g>
</g>
<!-- R386&#45;&gt;R107 -->
<g id="edge3" class="edge">
<title>R386&#45;&gt;R107</title>
<path fill="none" stroke="black" d="M93.89,-169.84C202.81,-170.74 476.67,-173.01 595.51,-173.99"/>
<polygon fill="black" stroke="black" points="595.15,-177.5 605.18,-174.08 595.21,-170.5 595.15,-177.5"/>
<text text-anchor="middle" x="350" y="-182.46" font-family="Times New Roman,serif" font-size="30.00"> &#160;&#160;815 &#160;&#160;0% &#160;&#160;0.000449 mol/s &#160;&#160;&#160;9.51E&#45;04</text>
</g>
<!-- R166 -->
<g id="node7" class="node">
<title>R166</title>
<g id="a_node7"><a xlink:href="166.svg" xlink:title="R166">
<polygon fill="azure" stroke="none" points="94,-108.96 0,-108.96 0,-61.96 94,-61.96 94,-108.96"/>
<text text-anchor="middle" x="47" y="-76.96" font-family="Times New Roman,serif" font-size="35.00">R166</text>
</a>
</g>
</g>
<!-- R166&#45;&gt;R107 -->
<g id="edge6" class="edge">
<title>R166&#45;&gt;R107</title>
<path fill="none" stroke="black" stroke-width="5" d="M93.66,-94.03C99.32,-94.94 105.03,-95.77 110.5,-96.46 322.33,-122.99 387.76,-62.6 589.5,-132.46 595.08,-134.39 600.64,-136.95 606.01,-139.85"/>
<polygon fill="black" stroke="black" stroke-width="5" points="597.21,-144.8 618.8,-148 606.5,-129.97 597.21,-144.8"/>
<text text-anchor="middle" x="350" y="-141.46" font-family="Times New Roman,serif" font-size="30.00"> &#160;&#160;927 &#160;&#160;99% &#160;&#160;0.273 mol/s &#160;&#160;&#160;2.39E&#45;03</text>
</g>
<!-- R166&#45;&gt;R107 -->
<g id="edge7" class="edge">
<title>R166&#45;&gt;R107</title>
<path fill="none" stroke="black" d="M93.78,-64.05C99.31,-62.17 104.97,-60.56 110.5,-59.46 319.27,-17.77 406.52,49.35 589.5,-59.46 618.98,-76.99 635.43,-113.84 643.96,-141.12"/>
<polygon fill="black" stroke="black" points="640.8,-141.79 646.95,-150.41 647.52,-139.83 640.8,-141.79"/>
<text text-anchor="middle" x="350" y="-68.46" font-family="Times New Roman,serif" font-size="30.00"> &#160;&#160;944 &#160;&#160;0% &#160;&#160;0.000652 mol/s &#160;&#160;&#160;9.98E&#45;01</text>
</g>
</g>
</svg>
