<?xml version="1.0" encoding="UTF-8" standalone="no"?>
<!DOCTYPE svg PUBLIC "-//W3C//DTD SVG 1.1//EN"
 "http://www.w3.org/Graphics/SVG/1.1/DTD/svg11.dtd">
<!-- Generated by graphviz version 8.0.3 (20230416.2022)
 -->
<!-- Title: G Pages: 1 -->
<svg width="640pt" height="264pt"
 viewBox="0.00 0.00 720.00 296.70" xmlns="http://www.w3.org/2000/svg" xmlns:xlink="http://www.w3.org/1999/xlink">
<g id="graph0" class="graph" transform="scale(0.490421 0.490421) rotate(0) translate(4 533.78)">
<title>G</title>
<polygon fill="white" stroke="none" points="-4,4 -4,-533.78 1301,-533.78 1301,4 -4,4"/>
<text text-anchor="middle" x="648.5" y="-496.98" font-family="Arial" font-size="36.00" fill="blue">Reaction Path Analysis</text>
<!-- R108 -->
<g id="node1" class="node">
<title>R108</title>
<g id="a_node1"><a xlink:href="108.svg" xlink:title="R108">
<polygon fill="azure" stroke="none" points="700,-265.28 606,-265.28 606,-218.28 700,-218.28 700,-265.28"/>
<text text-anchor="middle" x="653" y="-233.28" font-family="Times New Roman,serif" font-size="35.00">R108</text>
</a>
</g>
</g>
<!-- R14 -->
<g id="node4" class="node">
<title>R14</title>
<g id="a_node4"><a xlink:href="14.svg" xlink:title="R14">
<polygon fill="azure" stroke="none" points="1297,-298.28 1221,-298.28 1221,-251.28 1297,-251.28 1297,-298.28"/>
<text text-anchor="middle" x="1259" y="-266.28" font-family="Times New Roman,serif" font-size="35.00">R14</text>
</a>
</g>
</g>
<!-- R108&#45;&gt;R14 -->
<g id="edge3" class="edge">
<title>R108&#45;&gt;R14</title>
<path fill="none" stroke="black" stroke-width="6" d="M699.83,-251.5C702.92,-251.99 706,-252.42 709,-252.78 887.32,-274.05 1100.27,-275.93 1200.48,-275.44"/>
<polygon fill="black" stroke="black" stroke-width="6" points="1195.29,-285.93 1215.22,-275.29 1195.15,-264.93 1195.29,-285.93"/>
<text text-anchor="middle" x="956" y="-283.78" font-family="Times New Roman,serif" font-size="30.00"> &#160;&#160;370 &#160;&#160;100% &#160;&#160;0.00391 mol/s &#160;&#160;&#160;1.09E&#45;04</text>
</g>
<!-- R15 -->
<g id="node5" class="node">
<title>R15</title>
<g id="a_node5"><a xlink:href="15.svg" xlink:title="R15">
<polygon fill="azure" stroke="none" points="1297,-233.28 1221,-233.28 1221,-186.28 1297,-186.28 1297,-233.28"/>
<text text-anchor="middle" x="1259" y="-201.28" font-family="Times New Roman,serif" font-size="35.00">R15</text>
</a>
</g>
</g>
<!-- R108&#45;&gt;R15 -->
<g id="edge4" class="edge">
<title>R108&#45;&gt;R15</title>
<path fill="none" stroke="black" stroke-width="6" d="M699.84,-222.04C702.91,-221.16 705.98,-220.39 709,-219.78 885.13,-184.19 1099.53,-195.59 1200.35,-204.07"/>
<polygon fill="black" stroke="black" stroke-width="6" points="1194.36,-214.61 1215.21,-205.93 1196.22,-193.7 1194.36,-214.61"/>
<text text-anchor="middle" x="956" y="-228.78" font-family="Times New Roman,serif" font-size="30.00"> &#160;&#160;370 &#160;&#160;100% &#160;&#160;0.00391 mol/s &#160;&#160;&#160;1.09E&#45;04</text>
</g>
<!-- R0 -->
<g id="node2" class="node">
<title>R0</title>
<g id="a_node2"><a xlink:href="0.svg" xlink:title="R0">
<polygon fill="azure" stroke="none" points="76,-409.28 18,-409.28 18,-362.28 76,-362.28 76,-409.28"/>
<text text-anchor="middle" x="47" y="-377.28" font-family="Times New Roman,serif" font-size="35.00">R0</text>
</a>
</g>
</g>
<!-- R0&#45;&gt;R108 -->
<g id="edge1" class="edge">
<title>R0&#45;&gt;R108</title>
<path fill="none" stroke="black" d="M75.74,-395.91C162.12,-425.56 430.44,-503.02 597,-387.78 633.28,-362.68 645.66,-310.42 649.86,-275.72"/>
<polygon fill="black" stroke="black" points="653.41,-276.43 650.96,-266.12 646.45,-275.71 653.41,-276.43"/>
<text text-anchor="middle" x="350" y="-457.78" font-family="Times New Roman,serif" font-size="30.00"> &#160;&#160;151 &#160;&#160;0% &#160;&#160;4.23e&#45;07 mol/s &#160;&#160;&#160;9.89E&#45;01</text>
</g>
<!-- R0&#45;&gt;R108 -->
<g id="edge6" class="edge">
<title>R0&#45;&gt;R108</title>
<path fill="none" stroke="black" d="M75.97,-363.99C84.24,-358.69 93.6,-353.71 103,-350.78 155.43,-334.41 549.62,-359.56 597,-331.78 618.12,-319.39 632.18,-295.4 640.8,-275.3"/>
<polygon fill="black" stroke="black" points="644.36,-276.81 644.81,-266.22 637.86,-274.21 644.36,-276.81"/>
<text text-anchor="middle" x="350" y="-359.78" font-family="Times New Roman,serif" font-size="30.00"> &#160;&#160;803 &#160;&#160;0% &#160;&#160;4.24e&#45;07 mol/s &#160;&#160;&#160;9.92E&#45;01</text>
</g>
<!-- R90 -->
<g id="node3" class="node">
<title>R90</title>
<g id="a_node3"><a xlink:href="90.svg" xlink:title="R90">
<polygon fill="azure" stroke="none" points="85,-321.28 9,-321.28 9,-274.28 85,-274.28 85,-321.28"/>
<text text-anchor="middle" x="47" y="-289.28" font-family="Times New Roman,serif" font-size="35.00">R90</text>
</a>
</g>
</g>
<!-- R90&#45;&gt;R108 -->
<g id="edge2" class="edge">
<title>R90&#45;&gt;R108</title>
<path fill="none" stroke="black" d="M84.75,-297.39C199.81,-296.01 548.37,-290.65 597,-275.78 601.59,-274.37 606.19,-272.49 610.65,-270.32"/>
<polygon fill="black" stroke="black" points="612.02,-273.02 619.18,-265.21 608.71,-266.86 612.02,-273.02"/>
<text text-anchor="middle" x="350" y="-305.78" font-family="Times New Roman,serif" font-size="30.00"> &#160;&#160;151 &#160;&#160;0% &#160;&#160;4.23e&#45;07 mol/s &#160;&#160;&#160;9.89E&#45;01</text>
</g>
<!-- R251 -->
<g id="node6" class="node">
<title>R251</title>
<g id="a_node6"><a xlink:href="251.svg" xlink:title="R251">
<polygon fill="azure" stroke="none" points="94,-237.28 0,-237.28 0,-190.28 94,-190.28 94,-237.28"/>
<text text-anchor="middle" x="47" y="-205.28" font-family="Times New Roman,serif" font-size="35.00">R251</text>
</a>
</g>
</g>
<!-- R251&#45;&gt;R108 -->
<g id="edge5" class="edge">
<title>R251&#45;&gt;R108</title>
<path fill="none" stroke="black" stroke-width="2" d="M93.89,-219.02C96.97,-219.3 100.03,-219.56 103,-219.78 282.48,-233.15 495.61,-238.76 595.3,-240.79"/>
<polygon fill="black" stroke="black" stroke-width="2" points="592.96,-244.3 603.03,-241 593.1,-237.3 592.96,-244.3"/>
<text text-anchor="middle" x="350" y="-249.78" font-family="Times New Roman,serif" font-size="30.00"> &#160;&#160;725 &#160;&#160;29% &#160;&#160;0.000373 mol/s &#160;&#160;&#160;7.00E&#45;01</text>
</g>
<!-- R251&#45;&gt;R108 -->
<g id="edge9" class="edge">
<title>R251&#45;&gt;R108</title>
<path fill="none" stroke="black" stroke-width="4" d="M83.56,-190.32C89.81,-187.21 96.43,-184.5 103,-182.78 156.09,-168.84 546.67,-160.89 597,-182.78 607.25,-187.23 616.46,-194.65 624.27,-202.74"/>
<polygon fill="black" stroke="black" stroke-width="4" points="616.29,-203.7 634.5,-214.55 627.03,-194.72 616.29,-203.7"/>
<text text-anchor="middle" x="350" y="-191.78" font-family="Times New Roman,serif" font-size="30.00"> &#160;&#160;928 &#160;&#160;68% &#160;&#160;0.000871 mol/s &#160;&#160;&#160;3.00E&#45;01</text>
</g>
<!-- R91 -->
<g id="node7" class="node">
<title>R91</title>
<g id="a_node7"><a xlink:href="91.svg" xlink:title="R91">
<polygon fill="azure" stroke="none" points="85,-153.28 9,-153.28 9,-106.28 85,-106.28 85,-153.28"/>
<text text-anchor="middle" x="47" y="-121.28" font-family="Times New Roman,serif" font-size="35.00">R91</text>
</a>
</g>
</g>
<!-- R91&#45;&gt;R108 -->
<g id="edge7" class="edge">
<title>R91&#45;&gt;R108</title>
<path fill="none" stroke="black" d="M84.62,-125.07C193.25,-111.86 511.46,-78.69 597,-131.78 623.67,-148.33 637.85,-182.14 645.08,-207.93"/>
<polygon fill="black" stroke="black" points="641.9,-208.61 647.78,-217.42 648.68,-206.87 641.9,-208.61"/>
<text text-anchor="middle" x="350" y="-140.78" font-family="Times New Roman,serif" font-size="30.00"> &#160;&#160;803 &#160;&#160;0% &#160;&#160;4.24e&#45;07 mol/s &#160;&#160;&#160;9.92E&#45;01</text>
</g>
<!-- R386 -->
<g id="node8" class="node">
<title>R386</title>
<g id="a_node8"><a xlink:href="386.svg" xlink:title="R386">
<polygon fill="azure" stroke="none" points="94,-88.28 0,-88.28 0,-41.28 94,-41.28 94,-88.28"/>
<text text-anchor="middle" x="47" y="-56.28" font-family="Times New Roman,serif" font-size="35.00">R386</text>
</a>
</g>
</g>
<!-- R386&#45;&gt;R108 -->
<g id="edge8" class="edge">
<title>R386&#45;&gt;R108</title>
<path fill="none" stroke="black" d="M93.66,-48.42C195.39,-15.16 443.7,48.12 597,-64.78 641.53,-97.57 651.06,-166.09 652.51,-207.6"/>
<polygon fill="black" stroke="black" points="649.03,-207.61 652.73,-217.54 656.03,-207.47 649.03,-207.61"/>
<text text-anchor="middle" x="350" y="-73.78" font-family="Times New Roman,serif" font-size="30.00"> &#160;&#160;816 &#160;&#160;1% &#160;&#160;2.22e&#45;05 mol/s &#160;&#160;&#160;1.85E&#45;02</text>
</g>
</g>
</svg>
