<?xml version="1.0" encoding="UTF-8" standalone="no"?>
<!DOCTYPE svg PUBLIC "-//W3C//DTD SVG 1.1//EN"
 "http://www.w3.org/Graphics/SVG/1.1/DTD/svg11.dtd">
<!-- Generated by graphviz version 8.0.3 (20230416.2022)
 -->
<!-- Title: G Pages: 1 -->
<svg width="640pt" height="283pt"
 viewBox="0.00 0.00 720.00 318.24" xmlns="http://www.w3.org/2000/svg" xmlns:xlink="http://www.w3.org/1999/xlink">
<g id="graph0" class="graph" transform="scale(0.479401 0.479401) rotate(0) translate(4 586.08)">
<title>G</title>
<polygon fill="white" stroke="none" points="-4,4 -4,-586.08 1331,-586.08 1331,4 -4,4"/>
<text text-anchor="middle" x="663.5" y="-549.28" font-family="Arial" font-size="36.00" fill="blue">Reaction Path Analysis</text>
<!-- R110 -->
<g id="node1" class="node">
<title>R110</title>
<g id="a_node1"><a xlink:href="110.svg" xlink:title="R110">
<polygon fill="azure" stroke="none" points="715,-282.58 621,-282.58 621,-235.58 715,-235.58 715,-282.58"/>
<text text-anchor="middle" x="668" y="-250.58" font-family="Times New Roman,serif" font-size="35.00">R110</text>
</a>
</g>
</g>
<!-- R16 -->
<g id="node2" class="node">
<title>R16</title>
<g id="a_node2"><a xlink:href="16.svg" xlink:title="R16">
<polygon fill="azure" stroke="none" points="1327,-375.58 1251,-375.58 1251,-328.58 1327,-328.58 1327,-375.58"/>
<text text-anchor="middle" x="1289" y="-343.58" font-family="Times New Roman,serif" font-size="35.00">R16</text>
</a>
</g>
</g>
<!-- R110&#45;&gt;R16 -->
<g id="edge1" class="edge">
<title>R110&#45;&gt;R16</title>
<path fill="none" stroke="black" d="M686.14,-282.31C698.09,-296.53 715.37,-313.59 735,-322.08 908.35,-397.04 1141.26,-374.63 1240.26,-360.14"/>
<polygon fill="black" stroke="black" points="1240.74,-363.46 1250.1,-358.5 1239.69,-356.53 1240.74,-363.46"/>
<text text-anchor="middle" x="978.5" y="-383.08" font-family="Times New Roman,serif" font-size="30.00"> &#160;&#160;154 &#160;&#160;7% &#160;&#160;0.201 mol/s &#160;&#160;&#160;2.13E&#45;06</text>
</g>
<!-- R1 -->
<g id="node3" class="node">
<title>R1</title>
<g id="a_node3"><a xlink:href="1.svg" xlink:title="R1">
<polygon fill="azure" stroke="none" points="1318,-310.58 1260,-310.58 1260,-263.58 1318,-263.58 1318,-310.58"/>
<text text-anchor="middle" x="1289" y="-278.58" font-family="Times New Roman,serif" font-size="35.00">R1</text>
</a>
</g>
</g>
<!-- R110&#45;&gt;R1 -->
<g id="edge2" class="edge">
<title>R110&#45;&gt;R1</title>
<path fill="none" stroke="black" d="M714.78,-263.54C721.55,-264.12 728.46,-264.65 735,-265.08 927.86,-277.67 1159.05,-284.06 1249.28,-286.22"/>
<polygon fill="black" stroke="black" points="1248.99,-289.73 1259.06,-286.47 1249.15,-282.74 1248.99,-289.73"/>
<text text-anchor="middle" x="978.5" y="-294.08" font-family="Times New Roman,serif" font-size="30.00"> &#160;&#160;154 &#160;&#160;7% &#160;&#160;0.201 mol/s &#160;&#160;&#160;2.13E&#45;06</text>
</g>
<!-- R88 -->
<g id="node11" class="node">
<title>R88</title>
<g id="a_node11"><a xlink:href="88.svg" xlink:title="R88">
<polygon fill="azure" stroke="none" points="1327,-222.58 1251,-222.58 1251,-175.58 1327,-175.58 1327,-222.58"/>
<text text-anchor="middle" x="1289" y="-190.58" font-family="Times New Roman,serif" font-size="35.00">R88</text>
</a>
</g>
</g>
<!-- R110&#45;&gt;R88 -->
<g id="edge10" class="edge">
<title>R110&#45;&gt;R88</title>
<path fill="none" stroke="black" d="M712.48,-235.7C719.82,-232.62 727.5,-229.91 735,-228.08 840.22,-202.43 1114.18,-219.32 1222,-209.08 1227.91,-208.52 1234.1,-207.78 1240.22,-206.96"/>
<polygon fill="black" stroke="black" points="1240.68,-210.29 1250.09,-205.41 1239.69,-203.36 1240.68,-210.29"/>
<text text-anchor="middle" x="978.5" y="-237.08" font-family="Times New Roman,serif" font-size="30.00"> &#160;&#160;641 &#160;&#160;0% &#160;&#160;0.000654 mol/s &#160;&#160;&#160;1.00E+00</text>
</g>
<!-- R110&#45;&gt;R88 -->
<g id="edge11" class="edge">
<title>R110&#45;&gt;R88</title>
<path fill="none" stroke="black" stroke-width="5" d="M679.22,-235.65C689.8,-214.66 708.51,-185.23 735,-172.08 928.86,-75.81 1009.62,-130.32 1222,-172.08 1225.19,-172.71 1228.42,-173.49 1231.64,-174.39"/>
<polygon fill="black" stroke="black" stroke-width="5" points="1224.33,-180.84 1246.09,-179.05 1230,-164.29 1224.33,-180.84"/>
<text text-anchor="middle" x="978.5" y="-181.08" font-family="Times New Roman,serif" font-size="30.00"> &#160;&#160;910 &#160;&#160;92% &#160;&#160;2.34 mol/s &#160;&#160;&#160;2.79E&#45;04</text>
</g>
<!-- R178 -->
<g id="node4" class="node">
<title>R178</title>
<g id="a_node4"><a xlink:href="178.svg" xlink:title="R178">
<polygon fill="azure" stroke="none" points="94,-477.58 0,-477.58 0,-430.58 94,-430.58 94,-477.58"/>
<text text-anchor="middle" x="47" y="-445.58" font-family="Times New Roman,serif" font-size="35.00">R178</text>
</a>
</g>
</g>
<!-- R178&#45;&gt;R110 -->
<g id="edge3" class="edge">
<title>R178&#45;&gt;R110</title>
<path fill="none" stroke="black" d="M93.99,-467.5C198.25,-494.91 455.65,-545.21 612,-426.08 652.99,-394.84 663.84,-332.17 666.47,-293.11"/>
<polygon fill="black" stroke="black" points="670.01,-293.46 667.03,-283.29 663.02,-293.1 670.01,-293.46"/>
<text text-anchor="middle" x="357.5" y="-510.08" font-family="Times New Roman,serif" font-size="30.00"> &#160;&#160;481 &#160;&#160;0% &#160;&#160;6.67e&#45;07 mol/s &#160;&#160;&#160;2.81E&#45;01</text>
</g>
<!-- R216 -->
<g id="node5" class="node">
<title>R216</title>
<g id="a_node5"><a xlink:href="216.svg" xlink:title="R216">
<polygon fill="azure" stroke="none" points="94,-412.58 0,-412.58 0,-365.58 94,-365.58 94,-412.58"/>
<text text-anchor="middle" x="47" y="-380.58" font-family="Times New Roman,serif" font-size="35.00">R216</text>
</a>
</g>
</g>
<!-- R216&#45;&gt;R110 -->
<g id="edge4" class="edge">
<title>R216&#45;&gt;R110</title>
<path fill="none" stroke="black" d="M93.67,-389.45C220.19,-390.13 568.72,-389.46 612,-362.08 636.36,-346.66 650.63,-316.59 658.5,-292.9"/>
<polygon fill="black" stroke="black" points="662.09,-294.12 661.68,-283.54 655.4,-292.07 662.09,-294.12"/>
<text text-anchor="middle" x="357.5" y="-398.08" font-family="Times New Roman,serif" font-size="30.00"> &#160;&#160;559 &#160;&#160;0% &#160;&#160;3.14 mol/s &#160;&#160;&#160;1.36E&#45;07</text>
</g>
<!-- R333 -->
<g id="node6" class="node">
<title>R333</title>
<g id="a_node6"><a xlink:href="333.svg" xlink:title="R333">
<polygon fill="azure" stroke="none" points="94,-347.58 0,-347.58 0,-300.58 94,-300.58 94,-347.58"/>
<text text-anchor="middle" x="47" y="-315.58" font-family="Times New Roman,serif" font-size="35.00">R333</text>
</a>
</g>
</g>
<!-- R333&#45;&gt;R110 -->
<g id="edge5" class="edge">
<title>R333&#45;&gt;R110</title>
<path fill="none" stroke="black" d="M93.6,-324.94C210.11,-326.65 516.29,-327.89 612,-296.08 617.95,-294.1 623.85,-291.29 629.46,-288.09"/>
<polygon fill="black" stroke="black" points="630.94,-290.67 637.59,-282.42 627.25,-284.73 630.94,-290.67"/>
<text text-anchor="middle" x="357.5" y="-334.08" font-family="Times New Roman,serif" font-size="30.00"> &#160;&#160;560 &#160;&#160;0% &#160;&#160;2.99e&#45;05 mol/s &#160;&#160;&#160;1.39E&#45;02</text>
</g>
<!-- R237 -->
<g id="node7" class="node">
<title>R237</title>
<g id="a_node7"><a xlink:href="237.svg" xlink:title="R237">
<polygon fill="azure" stroke="none" points="94,-282.58 0,-282.58 0,-235.58 94,-235.58 94,-282.58"/>
<text text-anchor="middle" x="47" y="-250.58" font-family="Times New Roman,serif" font-size="35.00">R237</text>
</a>
</g>
</g>
<!-- R237&#45;&gt;R110 -->
<g id="edge6" class="edge">
<title>R237&#45;&gt;R110</title>
<path fill="none" stroke="black" d="M93.77,-259.08C204.84,-259.08 488.44,-259.08 610.13,-259.08"/>
<polygon fill="black" stroke="black" points="610.05,-262.58 620.05,-259.08 610.05,-255.58 610.05,-262.58"/>
<text text-anchor="middle" x="357.5" y="-268.08" font-family="Times New Roman,serif" font-size="30.00"> &#160;&#160;614 &#160;&#160;0% &#160;&#160;103.0 mol/s &#160;&#160;&#160;4.15E&#45;09</text>
</g>
<!-- R365 -->
<g id="node8" class="node">
<title>R365</title>
<g id="a_node8"><a xlink:href="365.svg" xlink:title="R365">
<polygon fill="azure" stroke="none" points="94,-217.58 0,-217.58 0,-170.58 94,-170.58 94,-217.58"/>
<text text-anchor="middle" x="47" y="-185.58" font-family="Times New Roman,serif" font-size="35.00">R365</text>
</a>
</g>
</g>
<!-- R365&#45;&gt;R110 -->
<g id="edge7" class="edge">
<title>R365&#45;&gt;R110</title>
<path fill="none" stroke="black" d="M93.74,-188.27C191.74,-177.54 428.03,-160.93 612,-222.08 617.95,-224.05 623.85,-226.86 629.46,-230.06"/>
<polygon fill="black" stroke="black" points="627.25,-233.43 637.59,-235.74 630.94,-227.48 627.25,-233.43"/>
<text text-anchor="middle" x="357.5" y="-231.08" font-family="Times New Roman,serif" font-size="30.00"> &#160;&#160;615 &#160;&#160;0% &#160;&#160;4.18e&#45;05 mol/s &#160;&#160;&#160;1.00E&#45;02</text>
</g>
<!-- R307 -->
<g id="node9" class="node">
<title>R307</title>
<g id="a_node9"><a xlink:href="307.svg" xlink:title="R307">
<polygon fill="azure" stroke="none" points="94,-152.58 0,-152.58 0,-105.58 94,-105.58 94,-152.58"/>
<text text-anchor="middle" x="47" y="-120.58" font-family="Times New Roman,serif" font-size="35.00">R307</text>
</a>
</g>
</g>
<!-- R307&#45;&gt;R110 -->
<g id="edge8" class="edge">
<title>R307&#45;&gt;R110</title>
<path fill="none" stroke="black" stroke-width="5" d="M93.61,-123.95C212.29,-111.53 527.35,-84.77 612,-140.08 637.73,-156.89 651.62,-189.08 659,-215.74"/>
<polygon fill="black" stroke="black" stroke-width="5" points="649.65,-212.47 662.71,-229.96 666.7,-208.5 649.65,-212.47"/>
<text text-anchor="middle" x="357.5" y="-149.08" font-family="Times New Roman,serif" font-size="30.00"> &#160;&#160;629 &#160;&#160;99% &#160;&#160;3780000.0 mol/s &#160;&#160;&#160;1.13E&#45;13</text>
</g>
<!-- R373 -->
<g id="node10" class="node">
<title>R373</title>
<g id="a_node10"><a xlink:href="373.svg" xlink:title="R373">
<polygon fill="azure" stroke="none" points="94,-87.58 0,-87.58 0,-40.58 94,-40.58 94,-87.58"/>
<text text-anchor="middle" x="47" y="-55.58" font-family="Times New Roman,serif" font-size="35.00">R373</text>
</a>
</g>
</g>
<!-- R373&#45;&gt;R110 -->
<g id="edge9" class="edge">
<title>R373&#45;&gt;R110</title>
<path fill="none" stroke="black" d="M93.98,-47.95C198.22,-14.56 455.58,49.57 612,-69.08 636.81,-87.9 654.07,-175.42 662.03,-224.85"/>
<polygon fill="black" stroke="black" points="658.72,-225.32 663.72,-234.66 665.63,-224.24 658.72,-225.32"/>
<text text-anchor="middle" x="357.5" y="-78.08" font-family="Times New Roman,serif" font-size="30.00"> &#160;&#160;630 &#160;&#160;0% &#160;&#160;0.00577 mol/s &#160;&#160;&#160;7.41E&#45;05</text>
</g>
</g>
</svg>
