<?xml version="1.0" encoding="UTF-8" standalone="no"?>
<!DOCTYPE svg PUBLIC "-//W3C//DTD SVG 1.1//EN"
 "http://www.w3.org/Graphics/SVG/1.1/DTD/svg11.dtd">
<!-- Generated by graphviz version 8.0.3 (20230416.2022)
 -->
<!-- Title: G Pages: 1 -->
<svg width="640pt" height="174pt"
 viewBox="0.00 0.00 720.00 195.95" xmlns="http://www.w3.org/2000/svg" xmlns:xlink="http://www.w3.org/1999/xlink">
<g id="graph0" class="graph" transform="scale(0.487062 0.487062) rotate(0) translate(4 353.61)">
<title>G</title>
<polygon fill="white" stroke="none" points="-4,4 -4,-353.61 1310,-353.61 1310,4 -4,4"/>
<text text-anchor="middle" x="653" y="-316.81" font-family="Arial" font-size="36.00" fill="blue">Reaction Path Analysis</text>
<!-- R111 -->
<g id="node1" class="node">
<title>R111</title>
<g id="a_node1"><a xlink:href="111.svg" xlink:title="R111">
<polygon fill="azure" stroke="none" points="700,-164.11 606,-164.11 606,-117.11 700,-117.11 700,-164.11"/>
<text text-anchor="middle" x="653" y="-132.11" font-family="Times New Roman,serif" font-size="35.00">R111</text>
</a>
</g>
</g>
<!-- R179 -->
<g id="node4" class="node">
<title>R179</title>
<g id="a_node4"><a xlink:href="179.svg" xlink:title="R179">
<polygon fill="azure" stroke="none" points="1306,-220.11 1212,-220.11 1212,-173.11 1306,-173.11 1306,-220.11"/>
<text text-anchor="middle" x="1259" y="-188.11" font-family="Times New Roman,serif" font-size="35.00">R179</text>
</a>
</g>
</g>
<!-- R111&#45;&gt;R179 -->
<g id="edge3" class="edge">
<title>R111&#45;&gt;R179</title>
<path fill="none" stroke="black" d="M690.49,-164.04C698.75,-168.31 707.69,-172.17 716.5,-174.61 887.84,-221.92 1101.19,-211.38 1201.24,-202.61"/>
<polygon fill="black" stroke="black" points="1201.36,-206.03 1211,-201.64 1200.73,-199.05 1201.36,-206.03"/>
<text text-anchor="middle" x="956" y="-218.61" font-family="Times New Roman,serif" font-size="30.00"> &#160;&#160;482 &#160;&#160;0% &#160;&#160;3.02e&#45;07 mol/s &#160;&#160;&#160;7.73E&#45;01</text>
</g>
<!-- R248 -->
<g id="node7" class="node">
<title>R248</title>
<g id="a_node7"><a xlink:href="248.svg" xlink:title="R248">
<polygon fill="azure" stroke="none" points="1306,-132.11 1212,-132.11 1212,-85.11 1306,-85.11 1306,-132.11"/>
<text text-anchor="middle" x="1259" y="-100.11" font-family="Times New Roman,serif" font-size="35.00">R248</text>
</a>
</g>
</g>
<!-- R111&#45;&gt;R248 -->
<g id="edge6" class="edge">
<title>R111&#45;&gt;R248</title>
<path fill="none" stroke="black" d="M699.77,-140.57C793.19,-140.09 1012.47,-136.9 1195.5,-118.61 1197.34,-118.42 1199.21,-118.22 1201.1,-118"/>
<polygon fill="black" stroke="black" points="1201.53,-121.35 1211,-116.6 1200.64,-114.4 1201.53,-121.35"/>
<text text-anchor="middle" x="956" y="-148.61" font-family="Times New Roman,serif" font-size="30.00"> &#160;&#160;642 &#160;&#160;4% &#160;&#160;0.000622 mol/s &#160;&#160;&#160;9.54E&#45;01</text>
</g>
<!-- R111&#45;&gt;R248 -->
<g id="edge7" class="edge">
<title>R111&#45;&gt;R248</title>
<path fill="none" stroke="black" stroke-width="5" d="M671.16,-117.31C682.39,-104.11 698.33,-88.83 716.5,-81.61 908.25,-5.4 982.43,-36.42 1191.91,-81.99"/>
<polygon fill="black" stroke="black" stroke-width="5" points="1184.88,-89.72 1206.27,-85.37 1188.56,-72.61 1184.88,-89.72"/>
<text text-anchor="middle" x="956" y="-90.61" font-family="Times New Roman,serif" font-size="30.00"> &#160;&#160;720 &#160;&#160;95% &#160;&#160;0.0128 mol/s &#160;&#160;&#160;4.64E&#45;02</text>
</g>
<!-- R17 -->
<g id="node2" class="node">
<title>R17</title>
<g id="a_node2"><a xlink:href="17.svg" xlink:title="R17">
<polygon fill="azure" stroke="none" points="85,-262.11 9,-262.11 9,-215.11 85,-215.11 85,-262.11"/>
<text text-anchor="middle" x="47" y="-230.11" font-family="Times New Roman,serif" font-size="35.00">R17</text>
</a>
</g>
</g>
<!-- R17&#45;&gt;R111 -->
<g id="edge1" class="edge">
<title>R17&#45;&gt;R111</title>
<path fill="none" stroke="black" d="M84.67,-246.56C176.94,-264.59 423.7,-300.37 597,-210.61 612.99,-202.33 625.81,-187.09 635.04,-172.94"/>
<polygon fill="black" stroke="black" points="638.35,-175.24 640.59,-164.88 632.38,-171.58 638.35,-175.24"/>
<text text-anchor="middle" x="350" y="-277.61" font-family="Times New Roman,serif" font-size="30.00"> &#160;&#160;156 &#160;&#160;0% &#160;&#160;8.16e&#45;08 mol/s &#160;&#160;&#160;5.53E&#45;01</text>
</g>
<!-- R1 -->
<g id="node3" class="node">
<title>R1</title>
<g id="a_node3"><a xlink:href="1.svg" xlink:title="R1">
<polygon fill="azure" stroke="none" points="76,-197.11 18,-197.11 18,-150.11 76,-150.11 76,-197.11"/>
<text text-anchor="middle" x="47" y="-165.11" font-family="Times New Roman,serif" font-size="35.00">R1</text>
</a>
</g>
</g>
<!-- R1&#45;&gt;R111 -->
<g id="edge2" class="edge">
<title>R1&#45;&gt;R111</title>
<path fill="none" stroke="black" d="M75.83,-174.03C155.28,-174.92 390.12,-175.29 595.49,-151.59"/>
<polygon fill="black" stroke="black" points="595.65,-154.98 605.17,-150.33 594.83,-148.03 595.65,-154.98"/>
<text text-anchor="middle" x="350" y="-182.61" font-family="Times New Roman,serif" font-size="30.00"> &#160;&#160;156 &#160;&#160;0% &#160;&#160;8.16e&#45;08 mol/s &#160;&#160;&#160;5.53E&#45;01</text>
</g>
<!-- R217 -->
<g id="node5" class="node">
<title>R217</title>
<g id="a_node5"><a xlink:href="217.svg" xlink:title="R217">
<polygon fill="azure" stroke="none" points="94,-132.11 0,-132.11 0,-85.11 94,-85.11 94,-132.11"/>
<text text-anchor="middle" x="47" y="-100.11" font-family="Times New Roman,serif" font-size="35.00">R217</text>
</a>
</g>
</g>
<!-- R217&#45;&gt;R111 -->
<g id="edge4" class="edge">
<title>R217&#45;&gt;R111</title>
<path fill="none" stroke="black" stroke-width="4" d="M93.79,-103.93C185.43,-95.73 397.97,-82.53 585.74,-116.92"/>
<polygon fill="black" stroke="black" stroke-width="4" points="580.19,-122.94 601.16,-119.87 582.85,-109.2 580.19,-122.94"/>
<text text-anchor="middle" x="350" y="-127.61" font-family="Times New Roman,serif" font-size="30.00"> &#160;&#160;561 &#160;&#160;60% &#160;&#160;0.000166 mol/s &#160;&#160;&#160;2.57E&#45;03</text>
</g>
<!-- R334 -->
<g id="node6" class="node">
<title>R334</title>
<g id="a_node6"><a xlink:href="334.svg" xlink:title="R334">
<polygon fill="azure" stroke="none" points="94,-67.11 0,-67.11 0,-20.11 94,-20.11 94,-67.11"/>
<text text-anchor="middle" x="47" y="-35.11" font-family="Times New Roman,serif" font-size="35.00">R334</text>
</a>
</g>
</g>
<!-- R334&#45;&gt;R111 -->
<g id="edge5" class="edge">
<title>R334&#45;&gt;R111</title>
<path fill="none" stroke="black" stroke-width="2" d="M93.99,-31.27C193.22,-7.38 431.8,35.23 597,-56.61 616.8,-67.61 630.67,-89.09 639.53,-107.57"/>
<polygon fill="black" stroke="black" stroke-width="2" points="635.66,-107.74 642.94,-115.44 642.05,-104.88 635.66,-107.74"/>
<text text-anchor="middle" x="350" y="-65.61" font-family="Times New Roman,serif" font-size="30.00"> &#160;&#160;562 &#160;&#160;39% &#160;&#160;0.00011 mol/s &#160;&#160;&#160;3.85E&#45;03</text>
</g>
</g>
</svg>
