<?xml version="1.0" encoding="UTF-8" standalone="no"?>
<!DOCTYPE svg PUBLIC "-//W3C//DTD SVG 1.1//EN"
 "http://www.w3.org/Graphics/SVG/1.1/DTD/svg11.dtd">
<!-- Generated by graphviz version 8.0.3 (20230416.2022)
 -->
<!-- Title: G Pages: 1 -->
<svg width="623pt" height="330pt"
 viewBox="0.00 0.00 701.00 371.39" xmlns="http://www.w3.org/2000/svg" xmlns:xlink="http://www.w3.org/1999/xlink">
<g id="graph0" class="graph" transform="scale(0.888889 0.888889) rotate(0) translate(4 367.39)">
<title>G</title>
<polygon fill="white" stroke="none" points="-4,4 -4,-367.39 697,-367.39 697,4 -4,4"/>
<text text-anchor="middle" x="346.5" y="-330.59" font-family="Arial" font-size="36.00" fill="blue">Reaction Path Analysis</text>
<!-- R112 -->
<g id="node1" class="node">
<title>R112</title>
<g id="a_node1"><a xlink:href="112.svg" xlink:title="R112">
<polygon fill="azure" stroke="none" points="94,-169.89 0,-169.89 0,-122.89 94,-122.89 94,-169.89"/>
<text text-anchor="middle" x="47" y="-137.89" font-family="Times New Roman,serif" font-size="35.00">R112</text>
</a>
</g>
</g>
<!-- R18 -->
<g id="node2" class="node">
<title>R18</title>
<g id="a_node2"><a xlink:href="18.svg" xlink:title="R18">
<polygon fill="azure" stroke="none" points="684,-294.89 608,-294.89 608,-247.89 684,-247.89 684,-294.89"/>
<text text-anchor="middle" x="646" y="-262.89" font-family="Times New Roman,serif" font-size="35.00">R18</text>
</a>
</g>
</g>
<!-- R112&#45;&gt;R18 -->
<g id="edge1" class="edge">
<title>R112&#45;&gt;R18</title>
<path fill="none" stroke="black" d="M53.86,-169.84C61.1,-193.41 75.94,-228.59 103,-245.39 184.69,-296.14 480.81,-282.48 597.38,-274.87"/>
<polygon fill="black" stroke="black" points="597.34,-278.31 607.09,-274.15 596.88,-271.33 597.34,-278.31"/>
<text text-anchor="middle" x="346.5" y="-291.39" font-family="Times New Roman,serif" font-size="30.00"> &#160;&#160;158 &#160;&#160;0% &#160;&#160;0.0037 mol/s &#160;&#160;&#160;1.16E&#45;04</text>
</g>
<!-- R1 -->
<g id="node3" class="node">
<title>R1</title>
<g id="a_node3"><a xlink:href="1.svg" xlink:title="R1">
<polygon fill="azure" stroke="none" points="675,-229.89 617,-229.89 617,-182.89 675,-182.89 675,-229.89"/>
<text text-anchor="middle" x="646" y="-197.89" font-family="Times New Roman,serif" font-size="35.00">R1</text>
</a>
</g>
</g>
<!-- R112&#45;&gt;R1 -->
<g id="edge2" class="edge">
<title>R112&#45;&gt;R1</title>
<path fill="none" stroke="black" d="M77.63,-169.89C85.47,-174.91 94.2,-179.56 103,-182.39 196.72,-212.61 498.94,-209.48 606.53,-207.32"/>
<polygon fill="black" stroke="black" points="606.28,-210.8 616.2,-207.09 606.13,-203.8 606.28,-210.8"/>
<text text-anchor="middle" x="346.5" y="-217.39" font-family="Times New Roman,serif" font-size="30.00"> &#160;&#160;158 &#160;&#160;0% &#160;&#160;0.0037 mol/s &#160;&#160;&#160;1.16E&#45;04</text>
</g>
<!-- R180 -->
<g id="node4" class="node">
<title>R180</title>
<g id="a_node4"><a xlink:href="180.svg" xlink:title="R180">
<polygon fill="azure" stroke="none" points="693,-164.89 599,-164.89 599,-117.89 693,-117.89 693,-164.89"/>
<text text-anchor="middle" x="646" y="-132.89" font-family="Times New Roman,serif" font-size="35.00">R180</text>
</a>
</g>
</g>
<!-- R112&#45;&gt;R180 -->
<g id="edge3" class="edge">
<title>R112&#45;&gt;R180</title>
<path fill="none" stroke="black" d="M93.85,-146.01C201.64,-145.11 470.86,-142.85 588.5,-141.87"/>
<polygon fill="black" stroke="black" points="588.43,-145.36 598.4,-141.78 588.37,-138.36 588.43,-145.36"/>
<text text-anchor="middle" x="346.5" y="-154.39" font-family="Times New Roman,serif" font-size="30.00"> &#160;&#160;483 &#160;&#160;0% &#160;&#160;4.14e&#45;07 mol/s &#160;&#160;&#160;9.70E&#45;01</text>
</g>
<!-- R253 -->
<g id="node5" class="node">
<title>R253</title>
<g id="a_node5"><a xlink:href="253.svg" xlink:title="R253">
<polygon fill="azure" stroke="none" points="693,-78.89 599,-78.89 599,-31.89 693,-31.89 693,-78.89"/>
<text text-anchor="middle" x="646" y="-46.89" font-family="Times New Roman,serif" font-size="35.00">R253</text>
</a>
</g>
</g>
<!-- R112&#45;&gt;R253 -->
<g id="edge4" class="edge">
<title>R112&#45;&gt;R253</title>
<path fill="none" stroke="black" d="M72.41,-122.92C81.35,-115.71 91.99,-108.57 103,-104.39 201.47,-66.99 466.59,-83.86 588.55,-68.29"/>
<polygon fill="black" stroke="black" points="588.78,-71.66 598.19,-66.79 587.8,-64.72 588.78,-71.66"/>
<text text-anchor="middle" x="346.5" y="-113.39" font-family="Times New Roman,serif" font-size="30.00"> &#160;&#160;643 &#160;&#160;0% &#160;&#160;0.000654 mol/s &#160;&#160;&#160;1.00E+00</text>
</g>
<!-- R112&#45;&gt;R253 -->
<g id="edge5" class="edge">
<title>R112&#45;&gt;R253</title>
<path fill="none" stroke="black" stroke-width="5" d="M51.67,-122.97C57.36,-95.58 71.17,-51.45 103,-31.39 189.55,23.15 452.99,-5.67 578.84,-29.69"/>
<polygon fill="black" stroke="black" stroke-width="5" points="571.91,-37.43 593.24,-32.8 575.36,-20.28 571.91,-37.43"/>
<text text-anchor="middle" x="346.5" y="-40.39" font-family="Times New Roman,serif" font-size="30.00"> &#160;&#160;726 &#160;&#160;99% &#160;&#160;1.9 mol/s &#160;&#160;&#160;3.45E&#45;04</text>
</g>
</g>
</svg>
