<?xml version="1.0" encoding="UTF-8" standalone="no"?>
<!DOCTYPE svg PUBLIC "-//W3C//DTD SVG 1.1//EN"
 "http://www.w3.org/Graphics/SVG/1.1/DTD/svg11.dtd">
<!-- Generated by graphviz version 8.0.3 (20230416.2022)
 -->
<!-- Title: G Pages: 1 -->
<svg width="623pt" height="319pt"
 viewBox="0.00 0.00 701.00 358.92" xmlns="http://www.w3.org/2000/svg" xmlns:xlink="http://www.w3.org/1999/xlink">
<g id="graph0" class="graph" transform="scale(0.888889 0.888889) rotate(0) translate(4 354.92)">
<title>G</title>
<polygon fill="white" stroke="none" points="-4,4 -4,-354.92 697,-354.92 697,4 -4,4"/>
<text text-anchor="middle" x="346.5" y="-318.12" font-family="Arial" font-size="36.00" fill="blue">Reaction Path Analysis</text>
<!-- R113 -->
<g id="node1" class="node">
<title>R113</title>
<g id="a_node1"><a xlink:href="113.svg" xlink:title="R113">
<polygon fill="azure" stroke="none" points="94,-162.42 0,-162.42 0,-115.42 94,-115.42 94,-162.42"/>
<text text-anchor="middle" x="47" y="-130.42" font-family="Times New Roman,serif" font-size="35.00">R113</text>
</a>
</g>
</g>
<!-- R19 -->
<g id="node2" class="node">
<title>R19</title>
<g id="a_node2"><a xlink:href="19.svg" xlink:title="R19">
<polygon fill="azure" stroke="none" points="684,-283.42 608,-283.42 608,-236.42 684,-236.42 684,-283.42"/>
<text text-anchor="middle" x="646" y="-251.42" font-family="Times New Roman,serif" font-size="35.00">R19</text>
</a>
</g>
</g>
<!-- R113&#45;&gt;R19 -->
<g id="edge1" class="edge">
<title>R113&#45;&gt;R19</title>
<path fill="none" stroke="black" d="M54.42,-162.29C61.98,-184.92 76.96,-218.06 103,-233.92 185.14,-283.94 480.99,-270.71 597.44,-263.31"/>
<polygon fill="black" stroke="black" points="597.38,-266.75 607.13,-262.61 596.93,-259.77 597.38,-266.75"/>
<text text-anchor="middle" x="346.5" y="-278.92" font-family="Times New Roman,serif" font-size="30.00"> &#160;&#160;160 &#160;&#160;0% &#160;&#160;0.232 mol/s &#160;&#160;&#160;1.85E&#45;06</text>
</g>
<!-- R1 -->
<g id="node3" class="node">
<title>R1</title>
<g id="a_node3"><a xlink:href="1.svg" xlink:title="R1">
<polygon fill="azure" stroke="none" points="675,-218.42 617,-218.42 617,-171.42 675,-171.42 675,-218.42"/>
<text text-anchor="middle" x="646" y="-186.42" font-family="Times New Roman,serif" font-size="35.00">R1</text>
</a>
</g>
</g>
<!-- R113&#45;&gt;R1 -->
<g id="edge2" class="edge">
<title>R113&#45;&gt;R1</title>
<path fill="none" stroke="black" d="M79.83,-162.35C87.11,-166.62 95.06,-170.49 103,-172.92 197.05,-201.72 498.48,-198.17 606.24,-195.89"/>
<polygon fill="black" stroke="black" points="606.31,-199.36 616.23,-195.64 606.16,-192.37 606.31,-199.36"/>
<text text-anchor="middle" x="346.5" y="-205.92" font-family="Times New Roman,serif" font-size="30.00"> &#160;&#160;160 &#160;&#160;0% &#160;&#160;0.232 mol/s &#160;&#160;&#160;1.85E&#45;06</text>
</g>
<!-- R76 -->
<g id="node4" class="node">
<title>R76</title>
<g id="a_node4"><a xlink:href="76.svg" xlink:title="R76">
<polygon fill="azure" stroke="none" points="684,-134.42 608,-134.42 608,-87.42 684,-87.42 684,-134.42"/>
<text text-anchor="middle" x="646" y="-102.42" font-family="Times New Roman,serif" font-size="35.00">R76</text>
</a>
</g>
</g>
<!-- R113&#45;&gt;R76 -->
<g id="edge3" class="edge">
<title>R113&#45;&gt;R76</title>
<path fill="none" stroke="black" stroke-width="5" d="M93.74,-138.12C183.94,-136.3 391.56,-131.02 587.32,-116.84"/>
<polygon fill="black" stroke="black" stroke-width="5" points="582.75,-125.51 602.05,-115.3 581.46,-108.06 582.75,-125.51"/>
<text text-anchor="middle" x="346.5" y="-145.92" font-family="Times New Roman,serif" font-size="30.00"> &#160;&#160;460 &#160;&#160;99% &#160;&#160;18100.0 mol/s &#160;&#160;&#160;3.61E&#45;08</text>
</g>
<!-- R113&#45;&gt;R76 -->
<g id="edge5" class="edge">
<title>R113&#45;&gt;R76</title>
<path fill="none" stroke="black" d="M62.5,-115.69C72.17,-102.52 86.18,-87.24 103,-79.92 152.62,-58.34 537.66,-66.19 590,-79.92 593.18,-80.76 596.38,-81.82 599.54,-83.05"/>
<polygon fill="black" stroke="black" points="597.88,-86.59 608.44,-87.47 600.73,-80.2 597.88,-86.59"/>
<text text-anchor="middle" x="346.5" y="-88.92" font-family="Times New Roman,serif" font-size="30.00"> &#160;&#160;644 &#160;&#160;0% &#160;&#160;0.000654 mol/s &#160;&#160;&#160;1.00E+00</text>
</g>
<!-- R181 -->
<g id="node5" class="node">
<title>R181</title>
<g id="a_node5"><a xlink:href="181.svg" xlink:title="R181">
<polygon fill="azure" stroke="none" points="693,-50.42 599,-50.42 599,-3.42 693,-3.42 693,-50.42"/>
<text text-anchor="middle" x="646" y="-18.42" font-family="Times New Roman,serif" font-size="35.00">R181</text>
</a>
</g>
</g>
<!-- R113&#45;&gt;R181 -->
<g id="edge4" class="edge">
<title>R113&#45;&gt;R181</title>
<path fill="none" stroke="black" d="M52.22,-115.57C58.36,-89.3 72.52,-47.84 103,-28.92 182.65,20.51 466.61,-5.79 588.62,-19.88"/>
<polygon fill="black" stroke="black" points="587.88,-23.44 598.22,-21.12 588.69,-16.48 587.88,-23.44"/>
<text text-anchor="middle" x="346.5" y="-37.92" font-family="Times New Roman,serif" font-size="30.00"> &#160;&#160;484 &#160;&#160;0% &#160;&#160;4.27e&#45;07 mol/s &#160;&#160;&#160;9.99E&#45;01</text>
</g>
</g>
</svg>
