<?xml version="1.0" encoding="UTF-8" standalone="no"?>
<!DOCTYPE svg PUBLIC "-//W3C//DTD SVG 1.1//EN"
 "http://www.w3.org/Graphics/SVG/1.1/DTD/svg11.dtd">
<!-- Generated by graphviz version 8.0.3 (20230416.2022)
 -->
<!-- Title: G Pages: 1 -->
<svg width="640pt" height="303pt"
 viewBox="0.00 0.00 720.00 340.44" xmlns="http://www.w3.org/2000/svg" xmlns:xlink="http://www.w3.org/1999/xlink">
<g id="graph0" class="graph" transform="scale(0.492308 0.492308) rotate(0) translate(4 610.68)">
<title>G</title>
<polygon fill="white" stroke="none" points="-4,4 -4,-610.68 1296,-610.68 1296,4 -4,4"/>
<text text-anchor="middle" x="646" y="-573.88" font-family="Arial" font-size="36.00" fill="blue">Reaction Path Analysis</text>
<!-- R117 -->
<g id="node1" class="node">
<title>R117</title>
<g id="a_node1"><a xlink:href="117.svg" xlink:title="R117">
<polygon fill="azure" stroke="none" points="693,-308.18 599,-308.18 599,-261.18 693,-261.18 693,-308.18"/>
<text text-anchor="middle" x="646" y="-276.18" font-family="Times New Roman,serif" font-size="35.00">R117</text>
</a>
</g>
</g>
<!-- R1 -->
<g id="node2" class="node">
<title>R1</title>
<g id="a_node2"><a xlink:href="1.svg" xlink:title="R1">
<polygon fill="azure" stroke="none" points="1274,-373.18 1216,-373.18 1216,-326.18 1274,-326.18 1274,-373.18"/>
<text text-anchor="middle" x="1245" y="-341.18" font-family="Times New Roman,serif" font-size="35.00">R1</text>
</a>
</g>
</g>
<!-- R117&#45;&gt;R1 -->
<g id="edge1" class="edge">
<title>R117&#45;&gt;R1</title>
<path fill="none" stroke="black" stroke-width="5" d="M675.42,-308.01C683.54,-313.47 692.72,-318.59 702,-321.68 875.98,-379.7 1098.73,-365.68 1195.51,-355.62"/>
<polygon fill="black" stroke="black" stroke-width="5" points="1191.35,-364.22 1210.26,-353.32 1189.42,-346.83 1191.35,-364.22"/>
<text text-anchor="middle" x="945.5" y="-373.68" font-family="Times New Roman,serif" font-size="30.00"> &#160;&#160;167 &#160;&#160;97% &#160;&#160;1.63e&#45;05 mol/s &#160;&#160;&#160;2.49E&#45;02</text>
</g>
<!-- R26 -->
<g id="node3" class="node">
<title>R26</title>
<g id="a_node3"><a xlink:href="26.svg" xlink:title="R26">
<polygon fill="azure" stroke="none" points="1283,-308.18 1207,-308.18 1207,-261.18 1283,-261.18 1283,-308.18"/>
<text text-anchor="middle" x="1245" y="-276.18" font-family="Times New Roman,serif" font-size="35.00">R26</text>
</a>
</g>
</g>
<!-- R117&#45;&gt;R26 -->
<g id="edge2" class="edge">
<title>R117&#45;&gt;R26</title>
<path fill="none" stroke="black" stroke-width="5" d="M692.85,-284.68C800.2,-284.68 1067.67,-284.68 1186.06,-284.68"/>
<polygon fill="black" stroke="black" stroke-width="5" points="1181,-293.43 1201,-284.68 1181,-275.93 1181,-293.43"/>
<text text-anchor="middle" x="945.5" y="-293.68" font-family="Times New Roman,serif" font-size="30.00"> &#160;&#160;167 &#160;&#160;97% &#160;&#160;1.63e&#45;05 mol/s &#160;&#160;&#160;2.49E&#45;02</text>
</g>
<!-- R121 -->
<g id="node5" class="node">
<title>R121</title>
<g id="a_node5"><a xlink:href="121.svg" xlink:title="R121">
<polygon fill="azure" stroke="none" points="1292,-243.18 1198,-243.18 1198,-196.18 1292,-196.18 1292,-243.18"/>
<text text-anchor="middle" x="1245" y="-211.18" font-family="Times New Roman,serif" font-size="35.00">R121</text>
</a>
</g>
</g>
<!-- R117&#45;&gt;R121 -->
<g id="edge4" class="edge">
<title>R117&#45;&gt;R121</title>
<path fill="none" stroke="black" d="M675.42,-261.35C683.54,-255.89 692.72,-250.78 702,-247.68 871.29,-191.22 1086.76,-202.98 1187.41,-212.92"/>
<polygon fill="black" stroke="black" points="1186.93,-216.49 1197.24,-214.02 1187.65,-209.52 1186.93,-216.49"/>
<text text-anchor="middle" x="945.5" y="-256.68" font-family="Times New Roman,serif" font-size="30.00"> &#160;&#160;485 &#160;&#160;2% &#160;&#160;4.27e&#45;07 mol/s &#160;&#160;&#160;9.98E&#45;01</text>
</g>
<!-- R43 -->
<g id="node4" class="node">
<title>R43</title>
<g id="a_node4"><a xlink:href="43.svg" xlink:title="R43">
<polygon fill="azure" stroke="none" points="85,-489.18 9,-489.18 9,-442.18 85,-442.18 85,-489.18"/>
<text text-anchor="middle" x="47" y="-457.18" font-family="Times New Roman,serif" font-size="35.00">R43</text>
</a>
</g>
</g>
<!-- R43&#45;&gt;R117 -->
<g id="edge3" class="edge">
<title>R43&#45;&gt;R117</title>
<path fill="none" stroke="black" d="M84.76,-478.66C178.66,-509.28 430.88,-575.34 586,-462.68 631.36,-429.73 642.39,-360.56 644.75,-318.81"/>
<polygon fill="black" stroke="black" points="648.28,-319.21 645.21,-309.07 641.29,-318.92 648.28,-319.21"/>
<text text-anchor="middle" x="346.5" y="-534.68" font-family="Times New Roman,serif" font-size="30.00"> &#160;&#160;439 &#160;&#160;0% &#160;&#160;0.000423 mol/s &#160;&#160;&#160;7.39E&#45;01</text>
</g>
<!-- R43&#45;&gt;R117 -->
<g id="edge11" class="edge">
<title>R43&#45;&gt;R117</title>
<path fill="none" stroke="black" d="M75.7,-442.26C85.06,-435.67 95.95,-429.31 107,-425.68 157.6,-409.04 541.45,-435.87 586,-406.68 616.19,-386.9 631.38,-347.02 638.71,-318.23"/>
<polygon fill="black" stroke="black" points="642.28,-319.34 641.15,-308.8 635.47,-317.74 642.28,-319.34"/>
<text text-anchor="middle" x="346.5" y="-434.68" font-family="Times New Roman,serif" font-size="30.00"> &#160;&#160;648 &#160;&#160;0% &#160;&#160;0.0012 mol/s &#160;&#160;&#160;2.61E&#45;01</text>
</g>
<!-- R335 -->
<g id="node6" class="node">
<title>R335</title>
<g id="a_node6"><a xlink:href="335.svg" xlink:title="R335">
<polygon fill="azure" stroke="none" points="94,-410.18 0,-410.18 0,-363.18 94,-363.18 94,-410.18"/>
<text text-anchor="middle" x="47" y="-378.18" font-family="Times New Roman,serif" font-size="35.00">R335</text>
</a>
</g>
</g>
<!-- R335&#45;&gt;R117 -->
<g id="edge5" class="edge">
<title>R335&#45;&gt;R117</title>
<path fill="none" stroke="black" d="M93.92,-375.78C98.33,-374.97 102.74,-374.25 107,-373.68 159.82,-366.64 537.9,-373.6 586,-350.68 601.56,-343.27 614.8,-329.69 624.78,-316.76"/>
<polygon fill="black" stroke="black" points="628.1,-319.15 631.15,-309.01 622.44,-315.03 628.1,-319.15"/>
<text text-anchor="middle" x="346.5" y="-382.68" font-family="Times New Roman,serif" font-size="30.00"> &#160;&#160;563 &#160;&#160;0% &#160;&#160;0.00288 mol/s &#160;&#160;&#160;1.48E&#45;04</text>
</g>
<!-- R336 -->
<g id="node7" class="node">
<title>R336</title>
<g id="a_node7"><a xlink:href="336.svg" xlink:title="R336">
<polygon fill="azure" stroke="none" points="94,-345.18 0,-345.18 0,-298.18 94,-298.18 94,-345.18"/>
<text text-anchor="middle" x="47" y="-313.18" font-family="Times New Roman,serif" font-size="35.00">R336</text>
</a>
</g>
</g>
<!-- R336&#45;&gt;R117 -->
<g id="edge6" class="edge">
<title>R336&#45;&gt;R117</title>
<path fill="none" stroke="black" d="M93.73,-318.49C98.21,-318.2 102.7,-317.93 107,-317.68 319.78,-305.36 374.11,-317.64 586,-294.68 586.79,-294.59 587.59,-294.5 588.4,-294.41"/>
<polygon fill="black" stroke="black" points="588.55,-297.79 598.02,-293.02 587.65,-290.85 588.55,-297.79"/>
<text text-anchor="middle" x="346.5" y="-326.68" font-family="Times New Roman,serif" font-size="30.00"> &#160;&#160;564 &#160;&#160;4% &#160;&#160;581.0 mol/s &#160;&#160;&#160;7.36E&#45;10</text>
</g>
<!-- R344 -->
<g id="node8" class="node">
<title>R344</title>
<g id="a_node8"><a xlink:href="344.svg" xlink:title="R344">
<polygon fill="azure" stroke="none" points="94,-280.18 0,-280.18 0,-233.18 94,-233.18 94,-280.18"/>
<text text-anchor="middle" x="47" y="-248.18" font-family="Times New Roman,serif" font-size="35.00">R344</text>
</a>
</g>
</g>
<!-- R344&#45;&gt;R117 -->
<g id="edge7" class="edge">
<title>R344&#45;&gt;R117</title>
<path fill="none" stroke="black" d="M93.9,-251.59C187.49,-242.42 406.69,-227.1 586,-261.68 586.94,-261.86 587.89,-262.06 588.85,-262.27"/>
<polygon fill="black" stroke="black" points="587.53,-265.81 598.09,-264.97 589.31,-259.04 587.53,-265.81"/>
<text text-anchor="middle" x="346.5" y="-270.68" font-family="Times New Roman,serif" font-size="30.00"> &#160;&#160;616 &#160;&#160;0% &#160;&#160;0.00133 mol/s &#160;&#160;&#160;3.22E&#45;04</text>
</g>
<!-- R366 -->
<g id="node9" class="node">
<title>R366</title>
<g id="a_node9"><a xlink:href="366.svg" xlink:title="R366">
<polygon fill="azure" stroke="none" points="94,-215.18 0,-215.18 0,-168.18 94,-168.18 94,-215.18"/>
<text text-anchor="middle" x="47" y="-183.18" font-family="Times New Roman,serif" font-size="35.00">R366</text>
</a>
</g>
</g>
<!-- R366&#45;&gt;R117 -->
<g id="edge8" class="edge">
<title>R366&#45;&gt;R117</title>
<path fill="none" stroke="black" d="M93.87,-187.48C207.95,-177.83 501.33,-158.2 586,-202.68 605.91,-213.14 620.68,-233.7 630.46,-251.62"/>
<polygon fill="black" stroke="black" points="627.71,-252.91 635.38,-260.22 633.94,-249.72 627.71,-252.91"/>
<text text-anchor="middle" x="346.5" y="-211.68" font-family="Times New Roman,serif" font-size="30.00"> &#160;&#160;617 &#160;&#160;0% &#160;&#160;3.3 mol/s &#160;&#160;&#160;1.30E&#45;07</text>
</g>
<!-- R349 -->
<g id="node10" class="node">
<title>R349</title>
<g id="a_node10"><a xlink:href="349.svg" xlink:title="R349">
<polygon fill="azure" stroke="none" points="94,-150.18 0,-150.18 0,-103.18 94,-103.18 94,-150.18"/>
<text text-anchor="middle" x="47" y="-118.18" font-family="Times New Roman,serif" font-size="35.00">R349</text>
</a>
</g>
</g>
<!-- R349&#45;&gt;R117 -->
<g id="edge9" class="edge">
<title>R349&#45;&gt;R117</title>
<path fill="none" stroke="black" stroke-width="5" d="M93.75,-121.38C208.89,-109 507.13,-83.17 586,-137.68 619.5,-160.83 633.98,-206.38 640.24,-240.67"/>
<polygon fill="black" stroke="black" stroke-width="5" points="631.7,-236.73 643.29,-255.23 649.01,-234.16 631.7,-236.73"/>
<text text-anchor="middle" x="346.5" y="-146.68" font-family="Times New Roman,serif" font-size="30.00"> &#160;&#160;631 &#160;&#160;95% &#160;&#160;13200.0 mol/s &#160;&#160;&#160;3.25E&#45;11</text>
</g>
<!-- R374 -->
<g id="node11" class="node">
<title>R374</title>
<g id="a_node11"><a xlink:href="374.svg" xlink:title="R374">
<polygon fill="azure" stroke="none" points="94,-85.18 0,-85.18 0,-38.18 94,-38.18 94,-85.18"/>
<text text-anchor="middle" x="47" y="-53.18" font-family="Times New Roman,serif" font-size="35.00">R374</text>
</a>
</g>
</g>
<!-- R374&#45;&gt;R117 -->
<g id="edge10" class="edge">
<title>R374&#45;&gt;R117</title>
<path fill="none" stroke="black" d="M93.88,-45.53C194.8,-13.2 438.73,47.12 586,-66.68 615.03,-89.11 633.14,-195.21 640.79,-250.69"/>
<polygon fill="black" stroke="black" points="637.42,-250.94 642.22,-260.39 644.36,-250.01 637.42,-250.94"/>
<text text-anchor="middle" x="346.5" y="-75.68" font-family="Times New Roman,serif" font-size="30.00"> &#160;&#160;632 &#160;&#160;0% &#160;&#160;5.38 mol/s &#160;&#160;&#160;7.95E&#45;08</text>
</g>
</g>
</svg>
