<?xml version="1.0" encoding="UTF-8" standalone="no"?>
<!DOCTYPE svg PUBLIC "-//W3C//DTD SVG 1.1//EN"
 "http://www.w3.org/Graphics/SVG/1.1/DTD/svg11.dtd">
<!-- Generated by graphviz version 8.0.3 (20230416.2022)
 -->
<!-- Title: G Pages: 1 -->
<svg width="640pt" height="297pt"
 viewBox="0.00 0.00 720.00 334.14" xmlns="http://www.w3.org/2000/svg" xmlns:xlink="http://www.w3.org/1999/xlink">
<g id="graph0" class="graph" transform="scale(0.487062 0.487062) rotate(0) translate(4 605.8)">
<title>G</title>
<polygon fill="white" stroke="none" points="-4,4 -4,-605.8 1310,-605.8 1310,4 -4,4"/>
<text text-anchor="middle" x="653" y="-569" font-family="Arial" font-size="36.00" fill="blue">Reaction Path Analysis</text>
<!-- R118 -->
<g id="node1" class="node">
<title>R118</title>
<g id="a_node1"><a xlink:href="118.svg" xlink:title="R118">
<polygon fill="azure" stroke="none" points="700,-289.3 606,-289.3 606,-242.3 700,-242.3 700,-289.3"/>
<text text-anchor="middle" x="653" y="-257.3" font-family="Times New Roman,serif" font-size="35.00">R118</text>
</a>
</g>
</g>
<!-- R1 -->
<g id="node2" class="node">
<title>R1</title>
<g id="a_node2"><a xlink:href="1.svg" xlink:title="R1">
<polygon fill="azure" stroke="none" points="1288,-354.3 1230,-354.3 1230,-307.3 1288,-307.3 1288,-354.3"/>
<text text-anchor="middle" x="1259" y="-322.3" font-family="Times New Roman,serif" font-size="35.00">R1</text>
</a>
</g>
</g>
<!-- R118&#45;&gt;R1 -->
<g id="edge1" class="edge">
<title>R118&#45;&gt;R1</title>
<path fill="none" stroke="black" stroke-width="5" d="M688.65,-289.12C698.39,-294.58 709.27,-299.7 720,-302.8 894.29,-353.2 1113.34,-343.3 1209.25,-335.54"/>
<polygon fill="black" stroke="black" stroke-width="5" points="1204.95,-344.18 1224.12,-333.72 1203.43,-326.74 1204.95,-344.18"/>
<text text-anchor="middle" x="956" y="-350.8" font-family="Times New Roman,serif" font-size="30.00"> &#160;&#160;168 &#160;&#160;99% &#160;&#160;4.3e&#45;05 mol/s &#160;&#160;&#160;9.74E&#45;03</text>
</g>
<!-- R26 -->
<g id="node3" class="node">
<title>R26</title>
<g id="a_node3"><a xlink:href="26.svg" xlink:title="R26">
<polygon fill="azure" stroke="none" points="1297,-289.3 1221,-289.3 1221,-242.3 1297,-242.3 1297,-289.3"/>
<text text-anchor="middle" x="1259" y="-257.3" font-family="Times New Roman,serif" font-size="35.00">R26</text>
</a>
</g>
</g>
<!-- R118&#45;&gt;R26 -->
<g id="edge2" class="edge">
<title>R118&#45;&gt;R26</title>
<path fill="none" stroke="black" stroke-width="5" d="M699.89,-265.8C808.5,-265.8 1081.09,-265.8 1200.48,-265.8"/>
<polygon fill="black" stroke="black" stroke-width="5" points="1195.24,-274.55 1215.24,-265.8 1195.24,-257.05 1195.24,-274.55"/>
<text text-anchor="middle" x="956" y="-274.8" font-family="Times New Roman,serif" font-size="30.00"> &#160;&#160;168 &#160;&#160;99% &#160;&#160;4.3e&#45;05 mol/s &#160;&#160;&#160;9.74E&#45;03</text>
</g>
<!-- R122 -->
<g id="node8" class="node">
<title>R122</title>
<g id="a_node8"><a xlink:href="122.svg" xlink:title="R122">
<polygon fill="azure" stroke="none" points="1306,-224.3 1212,-224.3 1212,-177.3 1306,-177.3 1306,-224.3"/>
<text text-anchor="middle" x="1259" y="-192.3" font-family="Times New Roman,serif" font-size="35.00">R122</text>
</a>
</g>
</g>
<!-- R118&#45;&gt;R122 -->
<g id="edge7" class="edge">
<title>R118&#45;&gt;R122</title>
<path fill="none" stroke="green" d="M688.65,-242.48C698.39,-237.02 709.27,-231.9 720,-228.8 889.74,-179.72 1101.94,-187.83 1201.5,-195.45"/>
<polygon fill="green" stroke="green" points="1200.97,-199 1211.21,-196.3 1201.52,-192.02 1200.97,-199"/>
<text text-anchor="middle" x="956" y="-237.8" font-family="Times New Roman,serif" font-size="30.00"> &#160;&#160;817 &#160;&#160;0% &#160;&#160;6.23e&#45;08 mol/s &#160;&#160;&#160;5.39E&#45;01</text>
</g>
<!-- R337 -->
<g id="node4" class="node">
<title>R337</title>
<g id="a_node4"><a xlink:href="337.svg" xlink:title="R337">
<polygon fill="azure" stroke="none" points="94,-498.3 0,-498.3 0,-451.3 94,-451.3 94,-498.3"/>
<text text-anchor="middle" x="47" y="-466.3" font-family="Times New Roman,serif" font-size="35.00">R337</text>
</a>
</g>
</g>
<!-- R337&#45;&gt;R118 -->
<g id="edge3" class="edge">
<title>R337&#45;&gt;R118</title>
<path fill="none" stroke="black" d="M93.73,-488.24C196.12,-515.31 446.61,-564.34 597,-446.8 641.56,-411.97 651.06,-342.1 652.5,-300.08"/>
<polygon fill="black" stroke="black" points="656.02,-300.35 652.72,-290.28 649.02,-300.21 656.02,-300.35"/>
<text text-anchor="middle" x="350" y="-529.8" font-family="Times New Roman,serif" font-size="30.00"> &#160;&#160;565 &#160;&#160;2% &#160;&#160;12100.0 mol/s &#160;&#160;&#160;3.54E&#45;11</text>
</g>
<!-- R367 -->
<g id="node5" class="node">
<title>R367</title>
<g id="a_node5"><a xlink:href="367.svg" xlink:title="R367">
<polygon fill="azure" stroke="none" points="94,-433.3 0,-433.3 0,-386.3 94,-386.3 94,-433.3"/>
<text text-anchor="middle" x="47" y="-401.3" font-family="Times New Roman,serif" font-size="35.00">R367</text>
</a>
</g>
</g>
<!-- R367&#45;&gt;R118 -->
<g id="edge4" class="edge">
<title>R367&#45;&gt;R118</title>
<path fill="none" stroke="black" d="M93.87,-410.31C218.31,-411.33 555.75,-411.48 597,-383.8 625.33,-364.79 639.38,-327.17 646.13,-299.49"/>
<polygon fill="black" stroke="black" points="649.69,-300.59 648.45,-290.07 642.86,-299.07 649.69,-300.59"/>
<text text-anchor="middle" x="350" y="-418.8" font-family="Times New Roman,serif" font-size="30.00"> &#160;&#160;618 &#160;&#160;7% &#160;&#160;32000.0 mol/s &#160;&#160;&#160;1.34E&#45;11</text>
</g>
<!-- R375 -->
<g id="node6" class="node">
<title>R375</title>
<g id="a_node6"><a xlink:href="375.svg" xlink:title="R375">
<polygon fill="azure" stroke="none" points="94,-368.3 0,-368.3 0,-321.3 94,-321.3 94,-368.3"/>
<text text-anchor="middle" x="47" y="-336.3" font-family="Times New Roman,serif" font-size="35.00">R375</text>
</a>
</g>
</g>
<!-- R375&#45;&gt;R118 -->
<g id="edge5" class="edge">
<title>R375&#45;&gt;R118</title>
<path fill="none" stroke="black" stroke-width="5" d="M93.9,-346C208.85,-348.39 506.38,-350.73 597,-313.8 603.68,-311.08 610.1,-307.2 616.05,-302.81"/>
<polygon fill="black" stroke="black" stroke-width="5" points="618.41,-312.88 627.85,-293.19 606.99,-299.62 618.41,-312.88"/>
<text text-anchor="middle" x="350" y="-355.8" font-family="Times New Roman,serif" font-size="30.00"> &#160;&#160;633 &#160;&#160;89% &#160;&#160;365000.0 mol/s &#160;&#160;&#160;1.17E&#45;12</text>
</g>
<!-- R109 -->
<g id="node7" class="node">
<title>R109</title>
<g id="a_node7"><a xlink:href="109.svg" xlink:title="R109">
<polygon fill="azure" stroke="none" points="94,-293.3 0,-293.3 0,-246.3 94,-246.3 94,-293.3"/>
<text text-anchor="middle" x="47" y="-261.3" font-family="Times New Roman,serif" font-size="35.00">R109</text>
</a>
</g>
</g>
<!-- R109&#45;&gt;R118 -->
<g id="edge6" class="edge">
<title>R109&#45;&gt;R118</title>
<path fill="none" stroke="black" d="M93.96,-271.76C186.56,-275.33 402.49,-281.69 595.21,-271.76"/>
<polygon fill="black" stroke="black" points="595.31,-275.21 605.11,-271.18 594.94,-268.22 595.31,-275.21"/>
<text text-anchor="middle" x="350" y="-285.8" font-family="Times New Roman,serif" font-size="30.00"> &#160;&#160;640 &#160;&#160;0% &#160;&#160;0.000654 mol/s &#160;&#160;&#160;1.00E+00</text>
</g>
<!-- R109&#45;&gt;R118 -->
<g id="edge11" class="edge">
<title>R109&#45;&gt;R118</title>
<path fill="none" stroke="black" d="M78.21,-246.33C85.89,-241.59 94.42,-237.3 103,-234.8 155.7,-219.45 543.91,-220.87 597,-234.8 600.18,-235.64 603.38,-236.7 606.54,-237.93"/>
<polygon fill="black" stroke="black" points="604.88,-241.47 615.44,-242.35 607.73,-235.08 604.88,-241.47"/>
<text text-anchor="middle" x="350" y="-243.8" font-family="Times New Roman,serif" font-size="30.00"> &#160;&#160;929 &#160;&#160;0% &#160;&#160;140.0 mol/s &#160;&#160;&#160;4.68E&#45;06</text>
</g>
<!-- R335 -->
<g id="node9" class="node">
<title>R335</title>
<g id="a_node9"><a xlink:href="335.svg" xlink:title="R335">
<polygon fill="azure" stroke="none" points="94,-210.3 0,-210.3 0,-163.3 94,-163.3 94,-210.3"/>
<text text-anchor="middle" x="47" y="-178.3" font-family="Times New Roman,serif" font-size="35.00">R335</text>
</a>
</g>
</g>
<!-- R335&#45;&gt;R118 -->
<g id="edge8" class="edge">
<title>R335&#45;&gt;R118</title>
<path fill="none" stroke="black" d="M93.95,-181.46C209.72,-168.85 510.3,-141.52 597,-186.8 615.57,-196.5 629.15,-215.65 638.16,-232.67"/>
<polygon fill="black" stroke="black" points="635.38,-233.94 642.95,-241.35 641.66,-230.84 635.38,-233.94"/>
<text text-anchor="middle" x="350" y="-195.8" font-family="Times New Roman,serif" font-size="30.00"> &#160;&#160;862 &#160;&#160;0% &#160;&#160;0.00111 mol/s &#160;&#160;&#160;3.85E&#45;04</text>
</g>
<!-- R343 -->
<g id="node10" class="node">
<title>R343</title>
<g id="a_node10"><a xlink:href="343.svg" xlink:title="R343">
<polygon fill="azure" stroke="none" points="94,-145.3 0,-145.3 0,-98.3 94,-98.3 94,-145.3"/>
<text text-anchor="middle" x="47" y="-113.3" font-family="Times New Roman,serif" font-size="35.00">R343</text>
</a>
</g>
</g>
<!-- R343&#45;&gt;R118 -->
<g id="edge9" class="edge">
<title>R343&#45;&gt;R118</title>
<path fill="none" stroke="black" d="M93.91,-119.05C218.45,-111.99 556.11,-95.68 597,-123.8 632.13,-147.96 644.83,-198.03 649.41,-231.78"/>
<polygon fill="black" stroke="black" points="646.03,-232.02 650.68,-241.54 652.98,-231.2 646.03,-232.02"/>
<text text-anchor="middle" x="350" y="-132.8" font-family="Times New Roman,serif" font-size="30.00"> &#160;&#160;876 &#160;&#160;0% &#160;&#160;0.000413 mol/s &#160;&#160;&#160;1.03E&#45;03</text>
</g>
<!-- R348 -->
<g id="node11" class="node">
<title>R348</title>
<g id="a_node11"><a xlink:href="348.svg" xlink:title="R348">
<polygon fill="azure" stroke="none" points="94,-80.3 0,-80.3 0,-33.3 94,-33.3 94,-80.3"/>
<text text-anchor="middle" x="47" y="-48.3" font-family="Times New Roman,serif" font-size="35.00">R348</text>
</a>
</g>
</g>
<!-- R348&#45;&gt;R118 -->
<g id="edge10" class="edge">
<title>R348&#45;&gt;R118</title>
<path fill="none" stroke="black" d="M93.7,-41.72C196.05,-11.06 446.44,46.22 597,-70.8 622.37,-90.52 639.54,-181.39 647.29,-231.83"/>
<polygon fill="black" stroke="black" points="643.95,-232.16 648.89,-241.53 650.88,-231.13 643.95,-232.16"/>
<text text-anchor="middle" x="350" y="-79.8" font-family="Times New Roman,serif" font-size="30.00"> &#160;&#160;892 &#160;&#160;0% &#160;&#160;16.4 mol/s &#160;&#160;&#160;2.60E&#45;08</text>
</g>
</g>
</svg>
