<?xml version="1.0" encoding="UTF-8" standalone="no"?>
<!DOCTYPE svg PUBLIC "-//W3C//DTD SVG 1.1//EN"
 "http://www.w3.org/Graphics/SVG/1.1/DTD/svg11.dtd">
<!-- Generated by graphviz version 8.0.3 (20230416.2022)
 -->
<!-- Title: G Pages: 1 -->
<svg width="640pt" height="199pt"
 viewBox="0.00 0.00 720.00 223.87" xmlns="http://www.w3.org/2000/svg" xmlns:xlink="http://www.w3.org/1999/xlink">
<g id="graph0" class="graph" transform="scale(0.524161 0.524161) rotate(0) translate(4 375.64)">
<title>G</title>
<polygon fill="white" stroke="none" points="-4,4 -4,-375.64 1217,-375.64 1217,4 -4,4"/>
<text text-anchor="middle" x="606.5" y="-338.84" font-family="Arial" font-size="36.00" fill="blue">Reaction Path Analysis</text>
<!-- R12 -->
<g id="node1" class="node">
<title>R12</title>
<g id="a_node1"><a xlink:href="12.svg" xlink:title="R12">
<polygon fill="azure" stroke="none" points="649,-192.14 573,-192.14 573,-145.14 649,-145.14 649,-192.14"/>
<text text-anchor="middle" x="611" y="-160.14" font-family="Times New Roman,serif" font-size="35.00">R12</text>
</a>
</g>
</g>
<!-- R3 -->
<g id="node2" class="node">
<title>R3</title>
<g id="a_node2"><a xlink:href="3.svg" xlink:title="R3">
<polygon fill="azure" stroke="none" points="1213,-248.14 1155,-248.14 1155,-201.14 1213,-201.14 1213,-248.14"/>
<text text-anchor="middle" x="1184" y="-216.14" font-family="Times New Roman,serif" font-size="35.00">R3</text>
</a>
</g>
</g>
<!-- R12&#45;&gt;R3 -->
<g id="edge1" class="edge">
<title>R12&#45;&gt;R3</title>
<path fill="none" stroke="black" stroke-width="3" d="M617.55,-191.8C624.08,-213.38 637.25,-244.3 661.5,-258.64 751.79,-312.02 1033.32,-289.73 1133.5,-258.64 1137.76,-257.32 1141.97,-255.49 1146.04,-253.36"/>
<polygon fill="black" stroke="black" stroke-width="3" points="1145.39,-258.04 1152.22,-249.94 1141.83,-252.01 1145.39,-258.04"/>
<text text-anchor="middle" x="897.5" y="-299.64" font-family="Times New Roman,serif" font-size="30.00"> &#160;&#160;12 &#160;&#160;42% &#160;&#160;6.43e&#45;06 mol/s &#160;&#160;&#160;5.87E&#45;02</text>
</g>
<!-- R12&#45;&gt;R3 -->
<g id="edge2" class="edge">
<title>R12&#45;&gt;R3</title>
<path fill="none" stroke="black" stroke-width="3" d="M640.38,-192.07C646.95,-196.34 654.18,-200.2 661.5,-202.64 711.31,-219.2 1081.08,-218.99 1133.5,-221.64 1137.03,-221.82 1140.69,-222.01 1144.36,-222.22"/>
<polygon fill="black" stroke="black" stroke-width="3" points="1141.07,-225.77 1151.25,-222.86 1141.48,-218.78 1141.07,-225.77"/>
<text text-anchor="middle" x="897.5" y="-230.64" font-family="Times New Roman,serif" font-size="30.00"> &#160;&#160;12 &#160;&#160;42% &#160;&#160;6.43e&#45;06 mol/s &#160;&#160;&#160;5.87E&#45;02</text>
</g>
<!-- R12&#45;&gt;R3 -->
<g id="edge3" class="edge">
<title>R12&#45;&gt;R3</title>
<path fill="none" stroke="black" stroke-width="3" d="M648.75,-166.16C653.05,-165.95 657.37,-165.76 661.5,-165.64 713.92,-164.05 1085.97,-143.47 1133.5,-165.64 1145.81,-171.38 1156.14,-181.85 1164.13,-192.39"/>
<polygon fill="black" stroke="black" stroke-width="3" points="1159.67,-191.99 1168.28,-198.17 1165.4,-187.97 1159.67,-191.99"/>
<text text-anchor="middle" x="897.5" y="-174.64" font-family="Times New Roman,serif" font-size="30.00"> &#160;&#160;12 &#160;&#160;42% &#160;&#160;6.43e&#45;06 mol/s &#160;&#160;&#160;5.87E&#45;02</text>
</g>
<!-- R1 -->
<g id="node3" class="node">
<title>R1</title>
<g id="a_node3"><a xlink:href="1.svg" xlink:title="R1">
<polygon fill="azure" stroke="none" points="1213,-136.14 1155,-136.14 1155,-89.14 1213,-89.14 1213,-136.14"/>
<text text-anchor="middle" x="1184" y="-104.14" font-family="Times New Roman,serif" font-size="35.00">R1</text>
</a>
</g>
</g>
<!-- R12&#45;&gt;R1 -->
<g id="edge4" class="edge">
<title>R12&#45;&gt;R1</title>
<path fill="none" stroke="black" stroke-width="3" d="M628.3,-145.36C636.87,-135.14 648.34,-124.22 661.5,-118.64 748.27,-81.86 1038.74,-100.92 1144.27,-109.34"/>
<polygon fill="black" stroke="black" stroke-width="3" points="1140.8,-112.89 1151.05,-110.21 1141.36,-105.91 1140.8,-112.89"/>
<text text-anchor="middle" x="897.5" y="-127.64" font-family="Times New Roman,serif" font-size="30.00"> &#160;&#160;25 &#160;&#160;57% &#160;&#160;8.82e&#45;06 mol/s &#160;&#160;&#160;4.42E&#45;02</text>
</g>
<!-- R8 -->
<g id="node4" class="node">
<title>R8</title>
<g id="a_node4"><a xlink:href="8.svg" xlink:title="R8">
<polygon fill="azure" stroke="none" points="1213,-71.14 1155,-71.14 1155,-24.14 1213,-24.14 1213,-71.14"/>
<text text-anchor="middle" x="1184" y="-39.14" font-family="Times New Roman,serif" font-size="35.00">R8</text>
</a>
</g>
</g>
<!-- R12&#45;&gt;R8 -->
<g id="edge5" class="edge">
<title>R12&#45;&gt;R8</title>
<path fill="none" stroke="black" stroke-width="3" d="M615.36,-145.43C620.44,-119.78 632.74,-79.6 661.5,-60.64 814.8,40.45 1052.4,-10.43 1144.6,-35.97"/>
<polygon fill="black" stroke="black" stroke-width="3" points="1140.54,-38.59 1151.11,-37.95 1142.44,-31.86 1140.54,-38.59"/>
<text text-anchor="middle" x="897.5" y="-69.64" font-family="Times New Roman,serif" font-size="30.00"> &#160;&#160;25 &#160;&#160;57% &#160;&#160;8.82e&#45;06 mol/s &#160;&#160;&#160;4.42E&#45;02</text>
</g>
<!-- R25 -->
<g id="node5" class="node">
<title>R25</title>
<g id="a_node5"><a xlink:href="25.svg" xlink:title="R25">
<polygon fill="azure" stroke="none" points="76,-192.14 0,-192.14 0,-145.14 76,-145.14 76,-192.14"/>
<text text-anchor="middle" x="38" y="-160.14" font-family="Times New Roman,serif" font-size="35.00">R25</text>
</a>
</g>
</g>
<!-- R25&#45;&gt;R12 -->
<g id="edge6" class="edge">
<title>R25&#45;&gt;R12</title>
<path fill="none" stroke="black" stroke-width="6" d="M75.59,-168.64C172.36,-168.64 435.63,-168.64 552.63,-168.64"/>
<polygon fill="black" stroke="black" stroke-width="6" points="547.35,-179.14 567.35,-168.64 547.35,-158.14 547.35,-179.14"/>
<text text-anchor="middle" x="324.5" y="-177.64" font-family="Times New Roman,serif" font-size="30.00"> &#160;&#160;30 &#160;&#160;100% &#160;&#160;0.00777 mol/s &#160;&#160;&#160;5.51E&#45;05</text>
</g>
</g>
</svg>
