<?xml version="1.0" encoding="UTF-8" standalone="no"?>
<!DOCTYPE svg PUBLIC "-//W3C//DTD SVG 1.1//EN"
 "http://www.w3.org/Graphics/SVG/1.1/DTD/svg11.dtd">
<!-- Generated by graphviz version 8.0.3 (20230416.2022)
 -->
<!-- Title: G Pages: 1 -->
<svg width="640pt" height="292pt"
 viewBox="0.00 0.00 720.00 328.27" xmlns="http://www.w3.org/2000/svg" xmlns:xlink="http://www.w3.org/1999/xlink">
<g id="graph0" class="graph" transform="scale(0.501961 0.501961) rotate(0) translate(4 577.32)">
<title>G</title>
<polygon fill="white" stroke="none" points="-4,4 -4,-577.32 1271,-577.32 1271,4 -4,4"/>
<text text-anchor="middle" x="633.5" y="-540.52" font-family="Arial" font-size="36.00" fill="blue">Reaction Path Analysis</text>
<!-- R120 -->
<g id="node1" class="node">
<title>R120</title>
<g id="a_node1"><a xlink:href="120.svg" xlink:title="R120">
<polygon fill="azure" stroke="none" points="685,-276.82 591,-276.82 591,-229.82 685,-229.82 685,-276.82"/>
<text text-anchor="middle" x="638" y="-244.82" font-family="Times New Roman,serif" font-size="35.00">R120</text>
</a>
</g>
</g>
<!-- R27 -->
<g id="node2" class="node">
<title>R27</title>
<g id="a_node2"><a xlink:href="27.svg" xlink:title="R27">
<polygon fill="azure" stroke="none" points="1267,-369.82 1191,-369.82 1191,-322.82 1267,-322.82 1267,-369.82"/>
<text text-anchor="middle" x="1229" y="-337.82" font-family="Times New Roman,serif" font-size="35.00">R27</text>
</a>
</g>
</g>
<!-- R120&#45;&gt;R27 -->
<g id="edge1" class="edge">
<title>R120&#45;&gt;R27</title>
<path fill="none" stroke="black" d="M652.66,-276.78C662.27,-290.91 676.52,-307.78 694,-316.32 857.47,-396.21 1083.55,-371.38 1180.62,-355.33"/>
<polygon fill="black" stroke="black" points="1180.98,-358.65 1190.26,-353.52 1179.81,-351.75 1180.98,-358.65"/>
<text text-anchor="middle" x="933.5" y="-380.32" font-family="Times New Roman,serif" font-size="30.00"> &#160;&#160;171 &#160;&#160;0% &#160;&#160;2.8e&#45;06 mol/s &#160;&#160;&#160;1.17E&#45;01</text>
</g>
<!-- R1 -->
<g id="node3" class="node">
<title>R1</title>
<g id="a_node3"><a xlink:href="1.svg" xlink:title="R1">
<polygon fill="azure" stroke="none" points="1258,-304.82 1200,-304.82 1200,-257.82 1258,-257.82 1258,-304.82"/>
<text text-anchor="middle" x="1229" y="-272.82" font-family="Times New Roman,serif" font-size="35.00">R1</text>
</a>
</g>
</g>
<!-- R120&#45;&gt;R1 -->
<g id="edge2" class="edge">
<title>R120&#45;&gt;R1</title>
<path fill="none" stroke="black" d="M684.89,-258.56C687.97,-258.84 691.03,-259.1 694,-259.32 879.26,-273.22 1101.38,-278.84 1189.38,-280.62"/>
<polygon fill="black" stroke="black" points="1189.1,-284.14 1199.17,-280.83 1189.24,-277.14 1189.1,-284.14"/>
<text text-anchor="middle" x="933.5" y="-288.32" font-family="Times New Roman,serif" font-size="30.00"> &#160;&#160;171 &#160;&#160;0% &#160;&#160;2.8e&#45;06 mol/s &#160;&#160;&#160;1.17E&#45;01</text>
</g>
<!-- R60 -->
<g id="node4" class="node">
<title>R60</title>
<g id="a_node4"><a xlink:href="60.svg" xlink:title="R60">
<polygon fill="azure" stroke="none" points="1267,-216.82 1191,-216.82 1191,-169.82 1267,-169.82 1267,-216.82"/>
<text text-anchor="middle" x="1229" y="-184.82" font-family="Times New Roman,serif" font-size="35.00">R60</text>
</a>
</g>
</g>
<!-- R120&#45;&gt;R60 -->
<g id="edge3" class="edge">
<title>R120&#45;&gt;R60</title>
<path fill="none" stroke="black" stroke-width="5" d="M674.92,-229.94C681.08,-226.86 687.57,-224.14 694,-222.32 791.08,-194.78 1039.04,-212.83 1170.33,-202.72"/>
<polygon fill="black" stroke="black" stroke-width="5" points="1166.03,-211.35 1185.12,-200.76 1164.39,-193.93 1166.03,-211.35"/>
<text text-anchor="middle" x="933.5" y="-231.32" font-family="Times New Roman,serif" font-size="30.00"> &#160;&#160;444 &#160;&#160;99% &#160;&#160;0.274 mol/s &#160;&#160;&#160;2.37E&#45;03</text>
</g>
<!-- R120&#45;&gt;R60 -->
<g id="edge11" class="edge">
<title>R120&#45;&gt;R60</title>
<path fill="none" stroke="black" d="M646.44,-230.02C654.5,-209.13 669.58,-179.77 694,-166.32 880.47,-63.6 965.63,-118.16 1173,-166.32 1175.67,-166.94 1178.37,-167.71 1181.05,-168.59"/>
<polygon fill="black" stroke="black" points="1179.69,-172.2 1190.28,-172.48 1182.18,-165.66 1179.69,-172.2"/>
<text text-anchor="middle" x="933.5" y="-175.32" font-family="Times New Roman,serif" font-size="30.00"> &#160;&#160;650 &#160;&#160;0% &#160;&#160;0.000652 mol/s &#160;&#160;&#160;9.98E&#45;01</text>
</g>
<!-- R183 -->
<g id="node5" class="node">
<title>R183</title>
<g id="a_node5"><a xlink:href="183.svg" xlink:title="R183">
<polygon fill="azure" stroke="none" points="94,-471.82 0,-471.82 0,-424.82 94,-424.82 94,-471.82"/>
<text text-anchor="middle" x="47" y="-439.82" font-family="Times New Roman,serif" font-size="35.00">R183</text>
</a>
</g>
</g>
<!-- R183&#45;&gt;R120 -->
<g id="edge4" class="edge">
<title>R183&#45;&gt;R120</title>
<path fill="none" stroke="black" d="M93.8,-461.46C193.96,-487.19 435.21,-532.49 582,-420.32 622.84,-389.11 633.75,-326.71 636.43,-287.65"/>
<polygon fill="black" stroke="black" points="639.97,-287.99 637.01,-277.82 632.98,-287.62 639.97,-287.99"/>
<text text-anchor="middle" x="342.5" y="-501.32" font-family="Times New Roman,serif" font-size="30.00"> &#160;&#160;487 &#160;&#160;0% &#160;&#160;3.93e&#45;06 mol/s &#160;&#160;&#160;8.94E&#45;02</text>
</g>
<!-- R219 -->
<g id="node6" class="node">
<title>R219</title>
<g id="a_node6"><a xlink:href="219.svg" xlink:title="R219">
<polygon fill="azure" stroke="none" points="94,-406.82 0,-406.82 0,-359.82 94,-359.82 94,-406.82"/>
<text text-anchor="middle" x="47" y="-374.82" font-family="Times New Roman,serif" font-size="35.00">R219</text>
</a>
</g>
</g>
<!-- R219&#45;&gt;R120 -->
<g id="edge5" class="edge">
<title>R219&#45;&gt;R120</title>
<path fill="none" stroke="black" d="M93.86,-383.56C215.76,-383.83 541.34,-382.12 582,-356.32 606.34,-340.87 620.61,-310.8 628.49,-287.12"/>
<polygon fill="black" stroke="black" points="632.08,-288.35 631.67,-277.76 625.39,-286.29 632.08,-288.35"/>
<text text-anchor="middle" x="342.5" y="-392.32" font-family="Times New Roman,serif" font-size="30.00"> &#160;&#160;568 &#160;&#160;0% &#160;&#160;0.000758 mol/s &#160;&#160;&#160;5.64E&#45;04</text>
</g>
<!-- R338 -->
<g id="node7" class="node">
<title>R338</title>
<g id="a_node7"><a xlink:href="338.svg" xlink:title="R338">
<polygon fill="azure" stroke="none" points="94,-341.82 0,-341.82 0,-294.82 94,-294.82 94,-341.82"/>
<text text-anchor="middle" x="47" y="-309.82" font-family="Times New Roman,serif" font-size="35.00">R338</text>
</a>
</g>
</g>
<!-- R338&#45;&gt;R120 -->
<g id="edge6" class="edge">
<title>R338&#45;&gt;R120</title>
<path fill="none" stroke="black" d="M93.62,-319.03C205.72,-320.28 492.07,-320.35 582,-290.32 587.94,-288.33 593.85,-285.52 599.46,-282.32"/>
<polygon fill="black" stroke="black" points="600.94,-284.9 607.58,-276.64 597.24,-278.95 600.94,-284.9"/>
<text text-anchor="middle" x="342.5" y="-328.32" font-family="Times New Roman,serif" font-size="30.00"> &#160;&#160;569 &#160;&#160;0% &#160;&#160;2.14e&#45;05 mol/s &#160;&#160;&#160;1.92E&#45;02</text>
</g>
<!-- R240 -->
<g id="node8" class="node">
<title>R240</title>
<g id="a_node8"><a xlink:href="240.svg" xlink:title="R240">
<polygon fill="azure" stroke="none" points="94,-276.82 0,-276.82 0,-229.82 94,-229.82 94,-276.82"/>
<text text-anchor="middle" x="47" y="-244.82" font-family="Times New Roman,serif" font-size="35.00">R240</text>
</a>
</g>
</g>
<!-- R240&#45;&gt;R120 -->
<g id="edge7" class="edge">
<title>R240&#45;&gt;R120</title>
<path fill="none" stroke="black" d="M93.73,-253.32C200.17,-253.32 464.26,-253.32 580.52,-253.32"/>
<polygon fill="black" stroke="black" points="580.3,-256.82 590.3,-253.32 580.3,-249.82 580.3,-256.82"/>
<text text-anchor="middle" x="342.5" y="-262.32" font-family="Times New Roman,serif" font-size="30.00"> &#160;&#160;621 &#160;&#160;0% &#160;&#160;0.000947 mol/s &#160;&#160;&#160;4.51E&#45;04</text>
</g>
<!-- R368 -->
<g id="node9" class="node">
<title>R368</title>
<g id="a_node9"><a xlink:href="368.svg" xlink:title="R368">
<polygon fill="azure" stroke="none" points="94,-211.82 0,-211.82 0,-164.82 94,-164.82 94,-211.82"/>
<text text-anchor="middle" x="47" y="-179.82" font-family="Times New Roman,serif" font-size="35.00">R368</text>
</a>
</g>
</g>
<!-- R368&#45;&gt;R120 -->
<g id="edge8" class="edge">
<title>R368&#45;&gt;R120</title>
<path fill="none" stroke="black" d="M93.81,-182.71C188.08,-172.89 409.41,-158.69 582,-216.32 587.94,-218.3 593.85,-221.12 599.46,-224.32"/>
<polygon fill="black" stroke="black" points="597.24,-227.68 607.58,-229.99 600.94,-221.74 597.24,-227.68"/>
<text text-anchor="middle" x="342.5" y="-225.32" font-family="Times New Roman,serif" font-size="30.00"> &#160;&#160;622 &#160;&#160;0% &#160;&#160;0.00225 mol/s &#160;&#160;&#160;1.90E&#45;04</text>
</g>
<!-- R313 -->
<g id="node10" class="node">
<title>R313</title>
<g id="a_node10"><a xlink:href="313.svg" xlink:title="R313">
<polygon fill="azure" stroke="none" points="94,-146.82 0,-146.82 0,-99.82 94,-99.82 94,-146.82"/>
<text text-anchor="middle" x="47" y="-114.82" font-family="Times New Roman,serif" font-size="35.00">R313</text>
</a>
</g>
</g>
<!-- R313&#45;&gt;R120 -->
<g id="edge9" class="edge">
<title>R313&#45;&gt;R120</title>
<path fill="none" stroke="black" stroke-width="5" d="M93.66,-118.48C207.85,-107.29 502.38,-84.4 582,-136.32 607.12,-152.7 621,-183.84 628.53,-209.88"/>
<polygon fill="black" stroke="black" stroke-width="5" points="619.23,-206.77 632.47,-224.12 636.23,-202.62 619.23,-206.77"/>
<text text-anchor="middle" x="342.5" y="-145.32" font-family="Times New Roman,serif" font-size="30.00"> &#160;&#160;636 &#160;&#160;99% &#160;&#160;20800.0 mol/s &#160;&#160;&#160;2.05E&#45;11</text>
</g>
<!-- R376 -->
<g id="node11" class="node">
<title>R376</title>
<g id="a_node11"><a xlink:href="376.svg" xlink:title="R376">
<polygon fill="azure" stroke="none" points="94,-81.82 0,-81.82 0,-34.82 94,-34.82 94,-81.82"/>
<text text-anchor="middle" x="47" y="-49.82" font-family="Times New Roman,serif" font-size="35.00">R376</text>
</a>
</g>
</g>
<!-- R376&#45;&gt;R120 -->
<g id="edge10" class="edge">
<title>R376&#45;&gt;R120</title>
<path fill="none" stroke="black" d="M93.78,-42.73C193.91,-11.77 435.1,45.32 582,-66.32 606.37,-84.84 623.76,-170.57 631.87,-219.27"/>
<polygon fill="black" stroke="black" points="628.54,-219.61 633.59,-228.93 635.45,-218.5 628.54,-219.61"/>
<text text-anchor="middle" x="342.5" y="-75.32" font-family="Times New Roman,serif" font-size="30.00"> &#160;&#160;637 &#160;&#160;0% &#160;&#160;3e&#45;05 mol/s &#160;&#160;&#160;1.39E&#45;02</text>
</g>
</g>
</svg>
