<?xml version="1.0" encoding="UTF-8" standalone="no"?>
<!DOCTYPE svg PUBLIC "-//W3C//DTD SVG 1.1//EN"
 "http://www.w3.org/Graphics/SVG/1.1/DTD/svg11.dtd">
<!-- Generated by graphviz version 8.0.3 (20230416.2022)
 -->
<!-- Title: G Pages: 1 -->
<svg width="629pt" height="290pt"
 viewBox="0.00 0.00 708.00 326.02" xmlns="http://www.w3.org/2000/svg" xmlns:xlink="http://www.w3.org/1999/xlink">
<g id="graph0" class="graph" transform="scale(0.888889 0.888889) rotate(0) translate(4 322.02)">
<title>G</title>
<polygon fill="white" stroke="none" points="-4,4 -4,-322.02 704,-322.02 704,4 -4,4"/>
<text text-anchor="middle" x="350" y="-285.22" font-family="Arial" font-size="36.00" fill="blue">Reaction Path Analysis</text>
<!-- R128 -->
<g id="node1" class="node">
<title>R128</title>
<g id="a_node1"><a xlink:href="128.svg" xlink:title="R128">
<polygon fill="azure" stroke="none" points="94,-140.52 0,-140.52 0,-93.52 94,-93.52 94,-140.52"/>
<text text-anchor="middle" x="47" y="-108.52" font-family="Times New Roman,serif" font-size="35.00">R128</text>
</a>
</g>
</g>
<!-- R33 -->
<g id="node2" class="node">
<title>R33</title>
<g id="a_node2"><a xlink:href="33.svg" xlink:title="R33">
<polygon fill="azure" stroke="none" points="691,-233.52 615,-233.52 615,-186.52 691,-186.52 691,-233.52"/>
<text text-anchor="middle" x="653" y="-201.52" font-family="Times New Roman,serif" font-size="35.00">R33</text>
</a>
</g>
</g>
<!-- R128&#45;&gt;R33 -->
<g id="edge1" class="edge">
<title>R128&#45;&gt;R33</title>
<path fill="none" stroke="black" d="M61.14,-140.23C70.71,-154.72 85.12,-172.23 103,-181.02 271.63,-263.91 505.58,-236.46 604.65,-219.36"/>
<polygon fill="black" stroke="black" points="604.98,-222.68 614.22,-217.49 603.76,-215.79 604.98,-222.68"/>
<text text-anchor="middle" x="350" y="-246.02" font-family="Times New Roman,serif" font-size="30.00"> &#160;&#160;180 &#160;&#160;0% &#160;&#160;13.2 mol/s &#160;&#160;&#160;3.24E&#45;08</text>
</g>
<!-- R1 -->
<g id="node3" class="node">
<title>R1</title>
<g id="a_node3"><a xlink:href="1.svg" xlink:title="R1">
<polygon fill="azure" stroke="none" points="682,-168.52 624,-168.52 624,-121.52 682,-121.52 682,-168.52"/>
<text text-anchor="middle" x="653" y="-136.52" font-family="Times New Roman,serif" font-size="35.00">R1</text>
</a>
</g>
</g>
<!-- R128&#45;&gt;R1 -->
<g id="edge2" class="edge">
<title>R128&#45;&gt;R1</title>
<path fill="none" stroke="black" d="M93.89,-122.27C96.97,-122.55 100.03,-122.8 103,-123.02 294.15,-137.26 523.47,-142.7 613.27,-144.38"/>
<polygon fill="black" stroke="black" points="613.19,-147.9 623.25,-144.58 613.32,-140.9 613.19,-147.9"/>
<text text-anchor="middle" x="350" y="-153.02" font-family="Times New Roman,serif" font-size="30.00"> &#160;&#160;180 &#160;&#160;0% &#160;&#160;13.2 mol/s &#160;&#160;&#160;3.24E&#45;08</text>
</g>
<!-- R374 -->
<g id="node4" class="node">
<title>R374</title>
<g id="a_node4"><a xlink:href="374.svg" xlink:title="R374">
<polygon fill="azure" stroke="none" points="700,-80.52 606,-80.52 606,-33.52 700,-33.52 700,-80.52"/>
<text text-anchor="middle" x="653" y="-48.52" font-family="Times New Roman,serif" font-size="35.00">R374</text>
</a>
</g>
</g>
<!-- R128&#45;&gt;R374 -->
<g id="edge3" class="edge">
<title>R128&#45;&gt;R374</title>
<path fill="none" stroke="black" d="M83.92,-93.64C90.08,-90.56 96.57,-87.84 103,-86.02 205.61,-56.98 471.59,-77.7 595.35,-66.92"/>
<polygon fill="black" stroke="black" points="595.55,-70.32 605.15,-65.86 594.86,-63.36 595.55,-70.32"/>
<text text-anchor="middle" x="350" y="-95.02" font-family="Times New Roman,serif" font-size="30.00"> &#160;&#160;656 &#160;&#160;0% &#160;&#160;0.000654 mol/s &#160;&#160;&#160;1.00E+00</text>
</g>
<!-- R128&#45;&gt;R374 -->
<g id="edge4" class="edge">
<title>R128&#45;&gt;R374</title>
<path fill="none" stroke="black" stroke-width="5" d="M55.44,-93.73C63.5,-72.84 78.58,-43.47 103,-30.02 194.08,20.15 459.93,-2.45 588.67,-29.14"/>
<polygon fill="black" stroke="black" stroke-width="5" points="581.42,-36.82 602.84,-32.62 585.22,-19.74 581.42,-36.82"/>
<text text-anchor="middle" x="350" y="-39.02" font-family="Times New Roman,serif" font-size="30.00"> &#160;&#160;1037 &#160;&#160;99% &#160;&#160;22900.0 mol/s &#160;&#160;&#160;2.86E&#45;08</text>
</g>
</g>
</svg>
