<?xml version="1.0" encoding="UTF-8" standalone="no"?>
<!DOCTYPE svg PUBLIC "-//W3C//DTD SVG 1.1//EN"
 "http://www.w3.org/Graphics/SVG/1.1/DTD/svg11.dtd">
<!-- Generated by graphviz version 8.0.3 (20230416.2022)
 -->
<!-- Title: G Pages: 1 -->
<svg width="640pt" height="177pt"
 viewBox="0.00 0.00 720.00 198.97" xmlns="http://www.w3.org/2000/svg" xmlns:xlink="http://www.w3.org/1999/xlink">
<g id="graph0" class="graph" transform="scale(0.501961 0.501961) rotate(0) translate(4 348.35)">
<title>G</title>
<polygon fill="white" stroke="none" points="-4,4 -4,-348.35 1271,-348.35 1271,4 -4,4"/>
<text text-anchor="middle" x="633.5" y="-311.55" font-family="Arial" font-size="36.00" fill="blue">Reaction Path Analysis</text>
<!-- R132 -->
<g id="node1" class="node">
<title>R132</title>
<g id="a_node1"><a xlink:href="132.svg" xlink:title="R132">
<polygon fill="azure" stroke="none" points="685,-168.85 591,-168.85 591,-121.85 685,-121.85 685,-168.85"/>
<text text-anchor="middle" x="638" y="-136.85" font-family="Times New Roman,serif" font-size="35.00">R132</text>
</a>
</g>
</g>
<!-- R41 -->
<g id="node2" class="node">
<title>R41</title>
<g id="a_node2"><a xlink:href="41.svg" xlink:title="R41">
<polygon fill="azure" stroke="none" points="1267,-261.85 1191,-261.85 1191,-214.85 1267,-214.85 1267,-261.85"/>
<text text-anchor="middle" x="1229" y="-229.85" font-family="Times New Roman,serif" font-size="35.00">R41</text>
</a>
</g>
</g>
<!-- R132&#45;&gt;R41 -->
<g id="edge1" class="edge">
<title>R132&#45;&gt;R41</title>
<path fill="none" stroke="black" stroke-width="2" d="M652.66,-168.82C662.27,-182.95 676.52,-199.81 694,-208.35 857.47,-288.24 1083.55,-263.41 1180.62,-247.36"/>
<polygon fill="black" stroke="black" stroke-width="2" points="1179.98,-250.68 1189.26,-245.55 1178.81,-243.78 1179.98,-250.68"/>
<text text-anchor="middle" x="933.5" y="-272.35" font-family="Times New Roman,serif" font-size="30.00"> &#160;&#160;184 &#160;&#160;31% &#160;&#160;0.0123 mol/s &#160;&#160;&#160;3.47E&#45;05</text>
</g>
<!-- R1 -->
<g id="node3" class="node">
<title>R1</title>
<g id="a_node3"><a xlink:href="1.svg" xlink:title="R1">
<polygon fill="azure" stroke="none" points="1258,-196.85 1200,-196.85 1200,-149.85 1258,-149.85 1258,-196.85"/>
<text text-anchor="middle" x="1229" y="-164.85" font-family="Times New Roman,serif" font-size="35.00">R1</text>
</a>
</g>
</g>
<!-- R132&#45;&gt;R1 -->
<g id="edge2" class="edge">
<title>R132&#45;&gt;R1</title>
<path fill="none" stroke="black" stroke-width="2" d="M684.89,-150.59C687.97,-150.87 691.03,-151.13 694,-151.35 879.26,-165.26 1101.38,-170.87 1189.38,-172.65"/>
<polygon fill="black" stroke="black" stroke-width="2" points="1187.1,-176.17 1197.17,-172.87 1187.24,-169.17 1187.1,-176.17"/>
<text text-anchor="middle" x="933.5" y="-180.35" font-family="Times New Roman,serif" font-size="30.00"> &#160;&#160;184 &#160;&#160;31% &#160;&#160;0.0123 mol/s &#160;&#160;&#160;3.47E&#45;05</text>
</g>
<!-- R56 -->
<g id="node7" class="node">
<title>R56</title>
<g id="a_node7"><a xlink:href="56.svg" xlink:title="R56">
<polygon fill="azure" stroke="none" points="1267,-108.85 1191,-108.85 1191,-61.85 1267,-61.85 1267,-108.85"/>
<text text-anchor="middle" x="1229" y="-76.85" font-family="Times New Roman,serif" font-size="35.00">R56</text>
</a>
</g>
</g>
<!-- R132&#45;&gt;R56 -->
<g id="edge6" class="edge">
<title>R132&#45;&gt;R56</title>
<path fill="none" stroke="black" d="M674.92,-121.97C681.08,-118.89 687.57,-116.18 694,-114.35 796.48,-85.27 1067.11,-107.02 1173,-95.35 1175.39,-95.09 1177.83,-94.78 1180.3,-94.44"/>
<polygon fill="black" stroke="black" points="1180.77,-97.76 1190.12,-92.79 1179.71,-90.84 1180.77,-97.76"/>
<text text-anchor="middle" x="933.5" y="-123.35" font-family="Times New Roman,serif" font-size="30.00"> &#160;&#160;660 &#160;&#160;1% &#160;&#160;0.000638 mol/s &#160;&#160;&#160;9.76E&#45;01</text>
</g>
<!-- R132&#45;&gt;R56 -->
<g id="edge7" class="edge">
<title>R132&#45;&gt;R56</title>
<path fill="none" stroke="black" stroke-width="4" d="M646.44,-122.05C654.5,-101.17 669.58,-71.8 694,-58.35 874.82,41.26 960.38,-7.04 1171.16,-59.58"/>
<polygon fill="black" stroke="black" stroke-width="4" points="1165.19,-65.55 1186.28,-63.51 1168.52,-51.95 1165.19,-65.55"/>
<text text-anchor="middle" x="933.5" y="-67.35" font-family="Times New Roman,serif" font-size="30.00"> &#160;&#160;903 &#160;&#160;66% &#160;&#160;0.0261 mol/s &#160;&#160;&#160;2.38E&#45;02</text>
</g>
<!-- R191 -->
<g id="node4" class="node">
<title>R191</title>
<g id="a_node4"><a xlink:href="191.svg" xlink:title="R191">
<polygon fill="azure" stroke="none" points="94,-233.85 0,-233.85 0,-186.85 94,-186.85 94,-233.85"/>
<text text-anchor="middle" x="47" y="-201.85" font-family="Times New Roman,serif" font-size="35.00">R191</text>
</a>
</g>
</g>
<!-- R191&#45;&gt;R132 -->
<g id="edge3" class="edge">
<title>R191&#45;&gt;R132</title>
<path fill="none" stroke="green" d="M93.74,-215.53C187.35,-224.51 406.48,-237.14 578.5,-182.35 584.89,-180.32 591.27,-177.41 597.34,-174.11"/>
<polygon fill="green" stroke="green" points="598.75,-176.76 605.59,-168.67 595.2,-170.73 598.75,-176.76"/>
<text text-anchor="middle" x="342.5" y="-232.35" font-family="Times New Roman,serif" font-size="30.00"> &#160;&#160;494 &#160;&#160;0% &#160;&#160;4.08e&#45;08 mol/s &#160;&#160;&#160;4.77E&#45;01</text>
</g>
<!-- R224 -->
<g id="node5" class="node">
<title>R224</title>
<g id="a_node5"><a xlink:href="224.svg" xlink:title="R224">
<polygon fill="azure" stroke="none" points="94,-168.85 0,-168.85 0,-121.85 94,-121.85 94,-168.85"/>
<text text-anchor="middle" x="47" y="-136.85" font-family="Times New Roman,serif" font-size="35.00">R224</text>
</a>
</g>
</g>
<!-- R224&#45;&gt;R132 -->
<g id="edge4" class="edge">
<title>R224&#45;&gt;R132</title>
<path fill="none" stroke="black" stroke-width="5" d="M93.73,-145.35C197.16,-145.35 449.47,-145.35 570.33,-145.35"/>
<polygon fill="black" stroke="black" stroke-width="5" points="565.3,-154.1 585.3,-145.35 565.3,-136.6 565.3,-154.1"/>
<text text-anchor="middle" x="342.5" y="-154.35" font-family="Times New Roman,serif" font-size="30.00"> &#160;&#160;582 &#160;&#160;94% &#160;&#160;1.96 mol/s &#160;&#160;&#160;2.18E&#45;07</text>
</g>
<!-- R319 -->
<g id="node6" class="node">
<title>R319</title>
<g id="a_node6"><a xlink:href="319.svg" xlink:title="R319">
<polygon fill="azure" stroke="none" points="94,-103.85 0,-103.85 0,-56.85 94,-56.85 94,-103.85"/>
<text text-anchor="middle" x="47" y="-71.85" font-family="Times New Roman,serif" font-size="35.00">R319</text>
</a>
</g>
</g>
<!-- R319&#45;&gt;R132 -->
<g id="edge5" class="edge">
<title>R319&#45;&gt;R132</title>
<path fill="none" stroke="black" d="M93.74,-75.17C187.35,-66.19 406.48,-53.56 578.5,-108.35 584.89,-110.38 591.27,-113.29 597.34,-116.59"/>
<polygon fill="black" stroke="black" points="595.2,-119.98 605.59,-122.03 598.75,-113.94 595.2,-119.98"/>
<text text-anchor="middle" x="342.5" y="-117.35" font-family="Times New Roman,serif" font-size="30.00"> &#160;&#160;583 &#160;&#160;5% &#160;&#160;0.119 mol/s &#160;&#160;&#160;3.60E&#45;06</text>
</g>
</g>
</svg>
