<?xml version="1.0" encoding="UTF-8" standalone="no"?>
<!DOCTYPE svg PUBLIC "-//W3C//DTD SVG 1.1//EN"
 "http://www.w3.org/Graphics/SVG/1.1/DTD/svg11.dtd">
<!-- Generated by graphviz version 8.0.3 (20230416.2022)
 -->
<!-- Title: G Pages: 1 -->
<svg width="640pt" height="203pt"
 viewBox="0.00 0.00 720.00 228.04" xmlns="http://www.w3.org/2000/svg" xmlns:xlink="http://www.w3.org/1999/xlink">
<g id="graph0" class="graph" transform="scale(0.498442 0.498442) rotate(0) translate(4 402.68)">
<title>G</title>
<polygon fill="white" stroke="none" points="-4,4 -4,-402.68 1280,-402.68 1280,4 -4,4"/>
<text text-anchor="middle" x="638" y="-365.88" font-family="Arial" font-size="36.00" fill="blue">Reaction Path Analysis</text>
<!-- R141 -->
<g id="node1" class="node">
<title>R141</title>
<g id="a_node1"><a xlink:href="141.svg" xlink:title="R141">
<polygon fill="azure" stroke="none" points="685,-201.18 591,-201.18 591,-154.18 685,-154.18 685,-201.18"/>
<text text-anchor="middle" x="638" y="-169.18" font-family="Times New Roman,serif" font-size="35.00">R141</text>
</a>
</g>
</g>
<!-- R1 -->
<g id="node2" class="node">
<title>R1</title>
<g id="a_node2"><a xlink:href="1.svg" xlink:title="R1">
<polygon fill="azure" stroke="none" points="1258,-331.18 1200,-331.18 1200,-284.18 1258,-284.18 1258,-331.18"/>
<text text-anchor="middle" x="1229" y="-299.18" font-family="Times New Roman,serif" font-size="35.00">R1</text>
</a>
</g>
</g>
<!-- R141&#45;&gt;R1 -->
<g id="edge1" class="edge">
<title>R141&#45;&gt;R1</title>
<path fill="none" stroke="black" stroke-width="5" d="M644.33,-201.12C651.25,-225.6 665.93,-262.87 694,-280.68 773.63,-331.21 1063.3,-318.53 1179.39,-311.15"/>
<polygon fill="black" stroke="black" stroke-width="5" points="1174.81,-319.83 1194.18,-309.77 1173.64,-302.37 1174.81,-319.83"/>
<text text-anchor="middle" x="933.5" y="-326.68" font-family="Times New Roman,serif" font-size="30.00"> &#160;&#160;193 &#160;&#160;95% &#160;&#160;0.00706 mol/s &#160;&#160;&#160;6.05E&#45;05</text>
</g>
<!-- R53 -->
<g id="node3" class="node">
<title>R53</title>
<g id="a_node3"><a xlink:href="53.svg" xlink:title="R53">
<polygon fill="azure" stroke="none" points="1267,-266.18 1191,-266.18 1191,-219.18 1267,-219.18 1267,-266.18"/>
<text text-anchor="middle" x="1229" y="-234.18" font-family="Times New Roman,serif" font-size="35.00">R53</text>
</a>
</g>
</g>
<!-- R141&#45;&gt;R53 -->
<g id="edge2" class="edge">
<title>R141&#45;&gt;R53</title>
<path fill="none" stroke="black" stroke-width="5" d="M667.42,-201C675.54,-206.46 684.72,-211.58 694,-214.68 780.85,-243.68 1050.9,-244.61 1170.27,-243.51"/>
<polygon fill="black" stroke="black" stroke-width="5" points="1165.15,-252.25 1185.05,-243.29 1164.96,-234.75 1165.15,-252.25"/>
<text text-anchor="middle" x="933.5" y="-252.68" font-family="Times New Roman,serif" font-size="30.00"> &#160;&#160;193 &#160;&#160;95% &#160;&#160;0.00706 mol/s &#160;&#160;&#160;6.05E&#45;05</text>
</g>
<!-- R3 -->
<g id="node4" class="node">
<title>R3</title>
<g id="a_node4"><a xlink:href="3.svg" xlink:title="R3">
<polygon fill="azure" stroke="none" points="1258,-201.18 1200,-201.18 1200,-154.18 1258,-154.18 1258,-201.18"/>
<text text-anchor="middle" x="1229" y="-169.18" font-family="Times New Roman,serif" font-size="35.00">R3</text>
</a>
</g>
</g>
<!-- R141&#45;&gt;R3 -->
<g id="edge3" class="edge">
<title>R141&#45;&gt;R3</title>
<path fill="none" stroke="black" d="M684.73,-177.68C797.01,-177.68 1084.74,-177.68 1189.29,-177.68"/>
<polygon fill="black" stroke="black" points="1189.26,-181.18 1199.26,-177.68 1189.26,-174.18 1189.26,-181.18"/>
<text text-anchor="middle" x="933.5" y="-186.68" font-family="Times New Roman,serif" font-size="30.00"> &#160;&#160;282 &#160;&#160;4% &#160;&#160;0.000304 mol/s &#160;&#160;&#160;1.40E&#45;03</text>
</g>
<!-- R26 -->
<g id="node5" class="node">
<title>R26</title>
<g id="a_node5"><a xlink:href="26.svg" xlink:title="R26">
<polygon fill="azure" stroke="none" points="1267,-136.18 1191,-136.18 1191,-89.18 1267,-89.18 1267,-136.18"/>
<text text-anchor="middle" x="1229" y="-104.18" font-family="Times New Roman,serif" font-size="35.00">R26</text>
</a>
</g>
</g>
<!-- R141&#45;&gt;R26 -->
<g id="edge4" class="edge">
<title>R141&#45;&gt;R26</title>
<path fill="none" stroke="black" d="M667.42,-154.35C675.54,-148.9 684.72,-143.78 694,-140.68 865.52,-83.4 1085.19,-97.08 1180.43,-106.89"/>
<polygon fill="black" stroke="black" points="1179.83,-110.45 1190.14,-108.03 1180.57,-103.49 1179.83,-110.45"/>
<text text-anchor="middle" x="933.5" y="-149.68" font-family="Times New Roman,serif" font-size="30.00"> &#160;&#160;282 &#160;&#160;4% &#160;&#160;0.000304 mol/s &#160;&#160;&#160;1.40E&#45;03</text>
</g>
<!-- R145 -->
<g id="node7" class="node">
<title>R145</title>
<g id="a_node7"><a xlink:href="145.svg" xlink:title="R145">
<polygon fill="azure" stroke="none" points="1276,-71.18 1182,-71.18 1182,-24.18 1276,-24.18 1276,-71.18"/>
<text text-anchor="middle" x="1229" y="-39.18" font-family="Times New Roman,serif" font-size="35.00">R145</text>
</a>
</g>
</g>
<!-- R141&#45;&gt;R145 -->
<g id="edge6" class="edge">
<title>R141&#45;&gt;R145</title>
<path fill="none" stroke="black" d="M642.7,-154.2C648.41,-126.72 662.25,-82.35 694,-61.68 842.81,35.21 1067.75,-5 1171.69,-31.43"/>
<polygon fill="black" stroke="black" points="1170.7,-35.05 1181.26,-34.18 1172.46,-28.28 1170.7,-35.05"/>
<text text-anchor="middle" x="933.5" y="-70.68" font-family="Times New Roman,serif" font-size="30.00"> &#160;&#160;823 &#160;&#160;0% &#160;&#160;4.28e&#45;07 mol/s &#160;&#160;&#160;1.00E+00</text>
</g>
<!-- R136 -->
<g id="node6" class="node">
<title>R136</title>
<g id="a_node6"><a xlink:href="136.svg" xlink:title="R136">
<polygon fill="azure" stroke="none" points="94,-201.18 0,-201.18 0,-154.18 94,-154.18 94,-201.18"/>
<text text-anchor="middle" x="47" y="-169.18" font-family="Times New Roman,serif" font-size="35.00">R136</text>
</a>
</g>
</g>
<!-- R136&#45;&gt;R141 -->
<g id="edge5" class="edge">
<title>R136&#45;&gt;R141</title>
<path fill="none" stroke="black" d="M93.89,-183.06C96.97,-183.31 100.03,-183.52 103,-183.68 312.05,-195.05 367.59,-195.24 580.21,-183.66"/>
<polygon fill="black" stroke="black" points="580.32,-187.1 590.11,-183.06 579.94,-180.11 580.32,-187.1"/>
<text text-anchor="middle" x="342.5" y="-200.68" font-family="Times New Roman,serif" font-size="30.00"> &#160;&#160;662 &#160;&#160;7% &#160;&#160;0.000603 mol/s &#160;&#160;&#160;9.27E&#45;01</text>
</g>
<!-- R136&#45;&gt;R141 -->
<g id="edge7" class="edge">
<title>R136&#45;&gt;R141</title>
<path fill="none" stroke="black" stroke-width="5" d="M83.56,-154.22C89.81,-151.11 96.43,-148.4 103,-146.68 302.68,-94.28 371.89,-92.69 581.4,-148.8"/>
<polygon fill="black" stroke="black" stroke-width="5" points="573.85,-156.45 595.44,-153.22 578.42,-139.55 573.85,-156.45"/>
<text text-anchor="middle" x="342.5" y="-155.68" font-family="Times New Roman,serif" font-size="30.00"> &#160;&#160;935 &#160;&#160;92% &#160;&#160;0.00768 mol/s &#160;&#160;&#160;7.27E&#45;02</text>
</g>
</g>
</svg>
