<?xml version="1.0" encoding="UTF-8" standalone="no"?>
<!DOCTYPE svg PUBLIC "-//W3C//DTD SVG 1.1//EN"
 "http://www.w3.org/Graphics/SVG/1.1/DTD/svg11.dtd">
<!-- Generated by graphviz version 8.0.3 (20230416.2022)
 -->
<!-- Title: G Pages: 1 -->
<svg width="640pt" height="176pt"
 viewBox="0.00 0.00 720.00 198.51" xmlns="http://www.w3.org/2000/svg" xmlns:xlink="http://www.w3.org/1999/xlink">
<g id="graph0" class="graph" transform="scale(0.49574 0.49574) rotate(0) translate(4 351.94)">
<title>G</title>
<polygon fill="white" stroke="none" points="-4,4 -4,-351.94 1287,-351.94 1287,4 -4,4"/>
<text text-anchor="middle" x="641.5" y="-315.14" font-family="Arial" font-size="36.00" fill="blue">Reaction Path Analysis</text>
<!-- R145 -->
<g id="node1" class="node">
<title>R145</title>
<g id="a_node1"><a xlink:href="145.svg" xlink:title="R145">
<polygon fill="azure" stroke="none" points="693,-163.44 599,-163.44 599,-116.44 693,-116.44 693,-163.44"/>
<text text-anchor="middle" x="646" y="-131.44" font-family="Times New Roman,serif" font-size="35.00">R145</text>
</a>
</g>
</g>
<!-- R1 -->
<g id="node2" class="node">
<title>R1</title>
<g id="a_node2"><a xlink:href="1.svg" xlink:title="R1">
<polygon fill="azure" stroke="none" points="1274,-261.44 1216,-261.44 1216,-214.44 1274,-214.44 1274,-261.44"/>
<text text-anchor="middle" x="1245" y="-229.44" font-family="Times New Roman,serif" font-size="35.00">R1</text>
</a>
</g>
</g>
<!-- R145&#45;&gt;R1 -->
<g id="edge1" class="edge">
<title>R145&#45;&gt;R1</title>
<path fill="none" stroke="black" stroke-width="5" d="M658.41,-163.21C667.72,-179.4 682.52,-199.84 702,-209.94 865.92,-294.91 1096.47,-266.2 1195.59,-248.06"/>
<polygon fill="black" stroke="black" stroke-width="5" points="1192.02,-257.5 1210.01,-245.13 1188.71,-240.32 1192.02,-257.5"/>
<text text-anchor="middle" x="945.5" y="-275.94" font-family="Times New Roman,serif" font-size="30.00"> &#160;&#160;197 &#160;&#160;93% &#160;&#160;7.17e&#45;06 mol/s &#160;&#160;&#160;5.33E&#45;02</text>
</g>
<!-- R55 -->
<g id="node3" class="node">
<title>R55</title>
<g id="a_node3"><a xlink:href="55.svg" xlink:title="R55">
<polygon fill="azure" stroke="none" points="1283,-196.44 1207,-196.44 1207,-149.44 1283,-149.44 1283,-196.44"/>
<text text-anchor="middle" x="1245" y="-164.44" font-family="Times New Roman,serif" font-size="35.00">R55</text>
</a>
</g>
</g>
<!-- R145&#45;&gt;R55 -->
<g id="edge2" class="edge">
<title>R145&#45;&gt;R55</title>
<path fill="none" stroke="black" stroke-width="5" d="M692.83,-149.66C695.92,-150.15 699,-150.58 702,-150.94 877.42,-171.91 1086.8,-173.96 1186.17,-173.56"/>
<polygon fill="black" stroke="black" stroke-width="5" points="1181.09,-182.3 1201.04,-173.43 1180.99,-164.8 1181.09,-182.3"/>
<text text-anchor="middle" x="945.5" y="-181.94" font-family="Times New Roman,serif" font-size="30.00"> &#160;&#160;197 &#160;&#160;93% &#160;&#160;7.17e&#45;06 mol/s &#160;&#160;&#160;5.33E&#45;02</text>
</g>
<!-- R3 -->
<g id="node4" class="node">
<title>R3</title>
<g id="a_node4"><a xlink:href="3.svg" xlink:title="R3">
<polygon fill="azure" stroke="none" points="1274,-131.44 1216,-131.44 1216,-84.44 1274,-84.44 1274,-131.44"/>
<text text-anchor="middle" x="1245" y="-99.44" font-family="Times New Roman,serif" font-size="35.00">R3</text>
</a>
</g>
</g>
<!-- R145&#45;&gt;R3 -->
<g id="edge3" class="edge">
<title>R145&#45;&gt;R3</title>
<path fill="none" stroke="black" d="M692.84,-120.2C695.91,-119.32 698.98,-118.55 702,-117.94 887.55,-80.42 1116.13,-95.69 1205.57,-103.95"/>
<polygon fill="black" stroke="black" points="1204.98,-107.51 1215.27,-104.97 1205.64,-100.54 1204.98,-107.51"/>
<text text-anchor="middle" x="945.5" y="-126.94" font-family="Times New Roman,serif" font-size="30.00"> &#160;&#160;287 &#160;&#160;6% &#160;&#160;5.36e&#45;07 mol/s &#160;&#160;&#160;3.07E&#45;01</text>
</g>
<!-- R28 -->
<g id="node5" class="node">
<title>R28</title>
<g id="a_node5"><a xlink:href="28.svg" xlink:title="R28">
<polygon fill="azure" stroke="none" points="1283,-66.44 1207,-66.44 1207,-19.44 1283,-19.44 1283,-66.44"/>
<text text-anchor="middle" x="1245" y="-34.44" font-family="Times New Roman,serif" font-size="35.00">R28</text>
</a>
</g>
</g>
<!-- R145&#45;&gt;R28 -->
<g id="edge4" class="edge">
<title>R145&#45;&gt;R28</title>
<path fill="none" stroke="black" d="M655.06,-116.77C663.4,-96.73 678.54,-68.98 702,-55.94 863.94,34.12 1097.35,-6.64 1196.53,-30.28"/>
<polygon fill="black" stroke="black" points="1195.56,-33.89 1206.11,-32.86 1197.22,-27.09 1195.56,-33.89"/>
<text text-anchor="middle" x="945.5" y="-64.94" font-family="Times New Roman,serif" font-size="30.00"> &#160;&#160;287 &#160;&#160;6% &#160;&#160;5.36e&#45;07 mol/s &#160;&#160;&#160;3.07E&#45;01</text>
</g>
<!-- R258 -->
<g id="node6" class="node">
<title>R258</title>
<g id="a_node6"><a xlink:href="258.svg" xlink:title="R258">
<polygon fill="azure" stroke="none" points="94,-223.44 0,-223.44 0,-176.44 94,-176.44 94,-223.44"/>
<text text-anchor="middle" x="47" y="-191.44" font-family="Times New Roman,serif" font-size="35.00">R258</text>
</a>
</g>
</g>
<!-- R258&#45;&gt;R145 -->
<g id="edge5" class="edge">
<title>R258&#45;&gt;R145</title>
<path fill="none" stroke="black" d="M93.97,-211.85C190.03,-234.28 417.1,-274.36 586,-201.94 600.73,-195.62 613.51,-183.63 623.38,-171.86"/>
<polygon fill="black" stroke="black" points="626.6,-174.43 630.04,-164.41 621.1,-170.1 626.6,-174.43"/>
<text text-anchor="middle" x="346.5" y="-251.94" font-family="Times New Roman,serif" font-size="30.00"> &#160;&#160;735 &#160;&#160;0% &#160;&#160;0.000651 mol/s &#160;&#160;&#160;9.96E&#45;01</text>
</g>
<!-- R258&#45;&gt;R145 -->
<g id="edge8" class="edge">
<title>R258&#45;&gt;R145</title>
<path fill="none" stroke="black" stroke-width="5" d="M80.99,-176.52C89.13,-171.85 98.09,-167.57 107,-164.94 203.57,-136.38 450.65,-151.54 578.37,-146.04"/>
<polygon fill="black" stroke="black" stroke-width="5" points="573.81,-154.72 593.29,-144.87 572.83,-137.25 573.81,-154.72"/>
<text text-anchor="middle" x="346.5" y="-173.94" font-family="Times New Roman,serif" font-size="30.00"> &#160;&#160;937 &#160;&#160;99% &#160;&#160;0.146 mol/s &#160;&#160;&#160;4.44E&#45;03</text>
</g>
<!-- R0 -->
<g id="node7" class="node">
<title>R0</title>
<g id="a_node7"><a xlink:href="0.svg" xlink:title="R0">
<polygon fill="azure" stroke="none" points="76,-135.44 18,-135.44 18,-88.44 76,-88.44 76,-135.44"/>
<text text-anchor="middle" x="47" y="-103.44" font-family="Times New Roman,serif" font-size="35.00">R0</text>
</a>
</g>
</g>
<!-- R0&#45;&gt;R145 -->
<g id="edge6" class="edge">
<title>R0&#45;&gt;R145</title>
<path fill="none" stroke="black" d="M75.88,-107.88C156.25,-97.06 394.85,-71.09 586,-112.94 586.96,-113.15 587.93,-113.38 588.9,-113.62"/>
<polygon fill="black" stroke="black" points="587.69,-117.21 598.27,-116.77 589.72,-110.51 587.69,-117.21"/>
<text text-anchor="middle" x="346.5" y="-121.94" font-family="Times New Roman,serif" font-size="30.00"> &#160;&#160;823 &#160;&#160;0% &#160;&#160;4.28e&#45;07 mol/s &#160;&#160;&#160;1.00E+00</text>
</g>
<!-- R141 -->
<g id="node8" class="node">
<title>R141</title>
<g id="a_node8"><a xlink:href="141.svg" xlink:title="R141">
<polygon fill="azure" stroke="none" points="94,-70.44 0,-70.44 0,-23.44 94,-23.44 94,-70.44"/>
<text text-anchor="middle" x="47" y="-38.44" font-family="Times New Roman,serif" font-size="35.00">R141</text>
</a>
</g>
</g>
<!-- R141&#45;&gt;R145 -->
<g id="edge7" class="edge">
<title>R141&#45;&gt;R145</title>
<path fill="none" stroke="black" d="M93.98,-34.05C191.52,-9.46 423.49,34.38 586,-52.94 607.36,-64.41 622.44,-87.4 632,-106.87"/>
<polygon fill="black" stroke="black" points="629.14,-108.03 636.51,-115.65 635.5,-105.1 629.14,-108.03"/>
<text text-anchor="middle" x="346.5" y="-61.94" font-family="Times New Roman,serif" font-size="30.00"> &#160;&#160;823 &#160;&#160;0% &#160;&#160;4.28e&#45;07 mol/s &#160;&#160;&#160;1.00E+00</text>
</g>
</g>
</svg>
