<?xml version="1.0" encoding="UTF-8" standalone="no"?>
<!DOCTYPE svg PUBLIC "-//W3C//DTD SVG 1.1//EN"
 "http://www.w3.org/Graphics/SVG/1.1/DTD/svg11.dtd">
<!-- Generated by graphviz version 8.0.3 (20230416.2022)
 -->
<!-- Title: G Pages: 1 -->
<svg width="502pt" height="640pt"
 viewBox="0.00 0.00 564.25 720.00" xmlns="http://www.w3.org/2000/svg" xmlns:xlink="http://www.w3.org/1999/xlink">
<g id="graph0" class="graph" transform="scale(0.390617 0.390617) rotate(0) translate(4 1634.43)">
<title>G</title>
<polygon fill="white" stroke="none" points="-4,4 -4,-1634.43 1280,-1634.43 1280,4 -4,4"/>
<text text-anchor="middle" x="638" y="-1597.63" font-family="Arial" font-size="36.00" fill="blue">Reaction Path Analysis</text>
<!-- R15 -->
<g id="node1" class="node">
<title>R15</title>
<g id="a_node1"><a xlink:href="15.svg" xlink:title="R15">
<polygon fill="azure" stroke="none" points="676,-803.93 600,-803.93 600,-756.93 676,-756.93 676,-803.93"/>
<text text-anchor="middle" x="638" y="-771.93" font-family="Times New Roman,serif" font-size="35.00">R15</text>
</a>
</g>
</g>
<!-- R92 -->
<g id="node4" class="node">
<title>R92</title>
<g id="a_node4"><a xlink:href="92.svg" xlink:title="R92">
<polygon fill="azure" stroke="none" points="1267,-928.93 1191,-928.93 1191,-881.93 1267,-881.93 1267,-928.93"/>
<text text-anchor="middle" x="1229" y="-896.93" font-family="Times New Roman,serif" font-size="35.00">R92</text>
</a>
</g>
</g>
<!-- R15&#45;&gt;R92 -->
<g id="edge3" class="edge">
<title>R15&#45;&gt;R92</title>
<path fill="none" stroke="black" d="M644.86,-803.87C652.11,-827.44 666.95,-862.62 694,-879.43 849.19,-975.9 1081.5,-939.37 1180.53,-917.35"/>
<polygon fill="black" stroke="black" points="1181.12,-920.58 1190.1,-914.94 1179.57,-913.75 1181.12,-920.58"/>
<text text-anchor="middle" x="933.5" y="-951.43" font-family="Times New Roman,serif" font-size="30.00"> &#160;&#160;103 &#160;&#160;0% &#160;&#160;4.22e&#45;07 mol/s &#160;&#160;&#160;9.87E&#45;01</text>
</g>
<!-- R96 -->
<g id="node7" class="node">
<title>R96</title>
<g id="a_node7"><a xlink:href="96.svg" xlink:title="R96">
<polygon fill="azure" stroke="none" points="1267,-863.93 1191,-863.93 1191,-816.93 1267,-816.93 1267,-863.93"/>
<text text-anchor="middle" x="1229" y="-831.93" font-family="Times New Roman,serif" font-size="35.00">R96</text>
</a>
</g>
</g>
<!-- R15&#45;&gt;R96 -->
<g id="edge6" class="edge">
<title>R15&#45;&gt;R96</title>
<path fill="none" stroke="black" d="M668.63,-803.92C676.47,-808.95 685.2,-813.59 694,-816.43 783.64,-845.37 1066.87,-843.5 1180.32,-841.49"/>
<polygon fill="black" stroke="black" points="1180.15,-844.98 1190.08,-841.29 1180.02,-837.98 1180.15,-844.98"/>
<text text-anchor="middle" x="933.5" y="-851.43" font-family="Times New Roman,serif" font-size="30.00"> &#160;&#160;229 &#160;&#160;0% &#160;&#160;2.9e&#45;07 mol/s &#160;&#160;&#160;7.56E&#45;01</text>
</g>
<!-- R104 -->
<g id="node13" class="node">
<title>R104</title>
<g id="a_node13"><a xlink:href="104.svg" xlink:title="R104">
<polygon fill="azure" stroke="none" points="1276,-798.93 1182,-798.93 1182,-751.93 1276,-751.93 1276,-798.93"/>
<text text-anchor="middle" x="1229" y="-766.93" font-family="Times New Roman,serif" font-size="35.00">R104</text>
</a>
</g>
</g>
<!-- R15&#45;&gt;R104 -->
<g id="edge12" class="edge">
<title>R15&#45;&gt;R104</title>
<path fill="none" stroke="black" d="M675.84,-780.12C775.61,-779.27 1051.52,-776.93 1171.29,-775.91"/>
<polygon fill="black" stroke="black" points="1171.07,-779.41 1181.04,-775.82 1171.02,-772.41 1171.07,-779.41"/>
<text text-anchor="middle" x="933.5" y="-788.43" font-family="Times New Roman,serif" font-size="30.00"> &#160;&#160;315 &#160;&#160;0% &#160;&#160;4.22e&#45;07 mol/s &#160;&#160;&#160;9.88E&#45;01</text>
</g>
<!-- R26 -->
<g id="node27" class="node">
<title>R26</title>
<g id="a_node27"><a xlink:href="26.svg" xlink:title="R26">
<polygon fill="azure" stroke="none" points="1267,-714.93 1191,-714.93 1191,-667.93 1267,-667.93 1267,-714.93"/>
<text text-anchor="middle" x="1229" y="-682.93" font-family="Times New Roman,serif" font-size="35.00">R26</text>
</a>
</g>
</g>
<!-- R15&#45;&gt;R26 -->
<g id="edge26" class="edge">
<title>R15&#45;&gt;R26</title>
<path fill="none" stroke="black" d="M663.42,-756.97C672.36,-749.76 683,-742.62 694,-738.43 793.77,-700.47 1067.24,-716.93 1173,-702.43 1175.39,-702.1 1177.83,-701.74 1180.3,-701.34"/>
<polygon fill="black" stroke="black" points="1180.87,-704.62 1190.12,-699.45 1179.67,-697.72 1180.87,-704.62"/>
<text text-anchor="middle" x="933.5" y="-747.43" font-family="Times New Roman,serif" font-size="30.00"> &#160;&#160;420 &#160;&#160;5% &#160;&#160;0.000617 mol/s &#160;&#160;&#160;9.46E&#45;01</text>
</g>
<!-- R15&#45;&gt;R26 -->
<g id="edge27" class="edge">
<title>R15&#45;&gt;R26</title>
<path fill="none" stroke="black" stroke-width="5" d="M642.67,-757.01C648.36,-729.62 662.17,-685.49 694,-665.43 868.65,-555.36 959.68,-614.92 1171.06,-666.56"/>
<polygon fill="black" stroke="black" stroke-width="5" points="1163.73,-674.23 1185.22,-670.36 1167.79,-657.21 1163.73,-674.23"/>
<text text-anchor="middle" x="933.5" y="-674.43" font-family="Times New Roman,serif" font-size="30.00"> &#160;&#160;431 &#160;&#160;94% &#160;&#160;0.0108 mol/s &#160;&#160;&#160;5.41E&#45;02</text>
</g>
<!-- R0 -->
<g id="node2" class="node">
<title>R0</title>
<g id="a_node2"><a xlink:href="0.svg" xlink:title="R0">
<polygon fill="azure" stroke="none" points="76,-1518.93 18,-1518.93 18,-1471.93 76,-1471.93 76,-1518.93"/>
<text text-anchor="middle" x="47" y="-1486.93" font-family="Times New Roman,serif" font-size="35.00">R0</text>
</a>
</g>
</g>
<!-- R0&#45;&gt;R15 -->
<g id="edge1" class="edge">
<title>R0&#45;&gt;R15</title>
<path fill="none" stroke="black" d="M75.81,-1505.03C163.99,-1533.49 439.89,-1607.21 582,-1469.43 629.4,-1423.48 635.95,-947.3 636.86,-814.6"/>
<polygon fill="black" stroke="black" points="640.36,-814.91 636.92,-804.89 633.36,-814.87 640.36,-814.91"/>
<text text-anchor="middle" x="342.5" y="-1558.43" font-family="Times New Roman,serif" font-size="30.00"> &#160;&#160;18 &#160;&#160;0% &#160;&#160;2.67e&#45;07 mol/s &#160;&#160;&#160;7.27E&#45;01</text>
</g>
<!-- R14 -->
<g id="node3" class="node">
<title>R14</title>
<g id="a_node3"><a xlink:href="14.svg" xlink:title="R14">
<polygon fill="azure" stroke="none" points="85,-1453.93 9,-1453.93 9,-1406.93 85,-1406.93 85,-1453.93"/>
<text text-anchor="middle" x="47" y="-1421.93" font-family="Times New Roman,serif" font-size="35.00">R14</text>
</a>
</g>
</g>
<!-- R14&#45;&gt;R15 -->
<g id="edge2" class="edge">
<title>R14&#45;&gt;R15</title>
<path fill="none" stroke="black" d="M84.72,-1431.37C199.54,-1433.93 546.33,-1438.73 582,-1404.43 624.76,-1363.32 634.58,-939.01 636.55,-814.56"/>
<polygon fill="black" stroke="black" points="640.06,-814.85 636.72,-804.8 633.07,-814.75 640.06,-814.85"/>
<text text-anchor="middle" x="342.5" y="-1441.43" font-family="Times New Roman,serif" font-size="30.00"> &#160;&#160;18 &#160;&#160;0% &#160;&#160;2.67e&#45;07 mol/s &#160;&#160;&#160;7.27E&#45;01</text>
</g>
<!-- R94 -->
<g id="node5" class="node">
<title>R94</title>
<g id="a_node5"><a xlink:href="94.svg" xlink:title="R94">
<polygon fill="azure" stroke="none" points="85,-1388.93 9,-1388.93 9,-1341.93 85,-1341.93 85,-1388.93"/>
<text text-anchor="middle" x="47" y="-1356.93" font-family="Times New Roman,serif" font-size="35.00">R94</text>
</a>
</g>
</g>
<!-- R94&#45;&gt;R15 -->
<g id="edge4" class="edge">
<title>R94&#45;&gt;R15</title>
<path fill="none" stroke="black" d="M84.7,-1366.35C199.48,-1368.87 546.16,-1373.55 582,-1339.43 620.15,-1303.12 633.08,-929.94 636.19,-814.36"/>
<polygon fill="black" stroke="black" points="639.7,-814.78 636.47,-804.7 632.71,-814.6 639.7,-814.78"/>
<text text-anchor="middle" x="342.5" y="-1376.43" font-family="Times New Roman,serif" font-size="30.00"> &#160;&#160;152 &#160;&#160;0% &#160;&#160;0.00149 mol/s &#160;&#160;&#160;2.86E&#45;04</text>
</g>
<!-- R109 -->
<g id="node6" class="node">
<title>R109</title>
<g id="a_node6"><a xlink:href="109.svg" xlink:title="R109">
<polygon fill="azure" stroke="none" points="94,-1323.93 0,-1323.93 0,-1276.93 94,-1276.93 94,-1323.93"/>
<text text-anchor="middle" x="47" y="-1291.93" font-family="Times New Roman,serif" font-size="35.00">R109</text>
</a>
</g>
</g>
<!-- R109&#45;&gt;R15 -->
<g id="edge5" class="edge">
<title>R109&#45;&gt;R15</title>
<path fill="none" stroke="black" d="M93.57,-1301.52C216.29,-1303.99 546.83,-1307.48 582,-1274.43 615.52,-1242.93 631.36,-921.18 635.71,-814.55"/>
<polygon fill="black" stroke="black" points="639.24,-814.91 636.15,-804.78 632.25,-814.63 639.24,-814.91"/>
<text text-anchor="middle" x="342.5" y="-1311.43" font-family="Times New Roman,serif" font-size="30.00"> &#160;&#160;153 &#160;&#160;0% &#160;&#160;0.532 mol/s &#160;&#160;&#160;8.04E&#45;07</text>
</g>
<!-- R177 -->
<g id="node8" class="node">
<title>R177</title>
<g id="a_node8"><a xlink:href="177.svg" xlink:title="R177">
<polygon fill="azure" stroke="none" points="94,-1258.93 0,-1258.93 0,-1211.93 94,-1211.93 94,-1258.93"/>
<text text-anchor="middle" x="47" y="-1226.93" font-family="Times New Roman,serif" font-size="35.00">R177</text>
</a>
</g>
</g>
<!-- R177&#45;&gt;R15 -->
<g id="edge7" class="edge">
<title>R177&#45;&gt;R15</title>
<path fill="none" stroke="black" d="M93.99,-1236.41C216.99,-1238.56 546.62,-1241.18 582,-1208.43 610.83,-1181.75 629.33,-911.53 635.08,-814.72"/>
<polygon fill="black" stroke="black" points="638.63,-814.98 635.72,-804.8 631.64,-814.58 638.63,-814.98"/>
<text text-anchor="middle" x="342.5" y="-1246.43" font-family="Times New Roman,serif" font-size="30.00"> &#160;&#160;230 &#160;&#160;0% &#160;&#160;1.7 mol/s &#160;&#160;&#160;2.52E&#45;07</text>
</g>
<!-- R98 -->
<g id="node9" class="node">
<title>R98</title>
<g id="a_node9"><a xlink:href="98.svg" xlink:title="R98">
<polygon fill="azure" stroke="none" points="85,-1193.93 9,-1193.93 9,-1146.93 85,-1146.93 85,-1193.93"/>
<text text-anchor="middle" x="47" y="-1161.93" font-family="Times New Roman,serif" font-size="35.00">R98</text>
</a>
</g>
</g>
<!-- R98&#45;&gt;R15 -->
<g id="edge8" class="edge">
<title>R98&#45;&gt;R15</title>
<path fill="none" stroke="black" d="M84.63,-1171.2C199.2,-1173.26 545.3,-1176.64 582,-1143.43 630.03,-1099.98 636.46,-896.76 637.07,-814.81"/>
<polygon fill="black" stroke="black" points="640.58,-814.88 637.13,-804.86 633.58,-814.84 640.58,-814.88"/>
<text text-anchor="middle" x="342.5" y="-1180.43" font-family="Times New Roman,serif" font-size="30.00"> &#160;&#160;276 &#160;&#160;0% &#160;&#160;1.89e&#45;05 mol/s &#160;&#160;&#160;2.16E&#45;02</text>
</g>
<!-- R215 -->
<g id="node10" class="node">
<title>R215</title>
<g id="a_node10"><a xlink:href="215.svg" xlink:title="R215">
<polygon fill="azure" stroke="none" points="94,-1128.93 0,-1128.93 0,-1081.93 94,-1081.93 94,-1128.93"/>
<text text-anchor="middle" x="47" y="-1096.93" font-family="Times New Roman,serif" font-size="35.00">R215</text>
</a>
</g>
</g>
<!-- R215&#45;&gt;R15 -->
<g id="edge9" class="edge">
<title>R215&#45;&gt;R15</title>
<path fill="none" stroke="black" d="M93.89,-1106.3C216.65,-1108.19 545.74,-1110.2 582,-1078.43 621.08,-1044.2 632.6,-885.41 635.82,-814.64"/>
<polygon fill="black" stroke="black" points="639.36,-814.81 636.28,-804.67 632.36,-814.51 639.36,-814.81"/>
<text text-anchor="middle" x="342.5" y="-1115.43" font-family="Times New Roman,serif" font-size="30.00"> &#160;&#160;277 &#160;&#160;0% &#160;&#160;24.3 mol/s &#160;&#160;&#160;1.76E&#45;08</text>
</g>
<!-- R100 -->
<g id="node11" class="node">
<title>R100</title>
<g id="a_node11"><a xlink:href="100.svg" xlink:title="R100">
<polygon fill="azure" stroke="none" points="94,-1063.93 0,-1063.93 0,-1016.93 94,-1016.93 94,-1063.93"/>
<text text-anchor="middle" x="47" y="-1031.93" font-family="Times New Roman,serif" font-size="35.00">R100</text>
</a>
</g>
</g>
<!-- R100&#45;&gt;R15 -->
<g id="edge10" class="edge">
<title>R100&#45;&gt;R15</title>
<path fill="none" stroke="black" d="M93.81,-1041.11C216.37,-1042.51 544.97,-1043.32 582,-1012.43 612.02,-987.39 627.69,-872.98 633.83,-814.73"/>
<polygon fill="black" stroke="black" points="637.41,-815.17 634.94,-804.87 630.44,-814.46 637.41,-815.17"/>
<text text-anchor="middle" x="342.5" y="-1050.43" font-family="Times New Roman,serif" font-size="30.00"> &#160;&#160;299 &#160;&#160;0% &#160;&#160;0.000745 mol/s &#160;&#160;&#160;5.73E&#45;04</text>
</g>
<!-- R102 -->
<g id="node12" class="node">
<title>R102</title>
<g id="a_node12"><a xlink:href="102.svg" xlink:title="R102">
<polygon fill="azure" stroke="none" points="94,-998.93 0,-998.93 0,-951.93 94,-951.93 94,-998.93"/>
<text text-anchor="middle" x="47" y="-966.93" font-family="Times New Roman,serif" font-size="35.00">R102</text>
</a>
</g>
</g>
<!-- R102&#45;&gt;R15 -->
<g id="edge11" class="edge">
<title>R102&#45;&gt;R15</title>
<path fill="none" stroke="black" d="M93.68,-975.94C215.88,-976.91 543.69,-976.71 582,-947.43 622.84,-916.22 633.75,-853.82 636.43,-814.76"/>
<polygon fill="black" stroke="black" points="639.97,-815.1 637.01,-804.93 632.98,-814.73 639.97,-815.1"/>
<text text-anchor="middle" x="342.5" y="-984.43" font-family="Times New Roman,serif" font-size="30.00"> &#160;&#160;311 &#160;&#160;0% &#160;&#160;7.46e&#45;06 mol/s &#160;&#160;&#160;5.14E&#45;02</text>
</g>
<!-- R236 -->
<g id="node14" class="node">
<title>R236</title>
<g id="a_node14"><a xlink:href="236.svg" xlink:title="R236">
<polygon fill="azure" stroke="none" points="94,-933.93 0,-933.93 0,-886.93 94,-886.93 94,-933.93"/>
<text text-anchor="middle" x="47" y="-901.93" font-family="Times New Roman,serif" font-size="35.00">R236</text>
</a>
</g>
</g>
<!-- R236&#45;&gt;R15 -->
<g id="edge13" class="edge">
<title>R236&#45;&gt;R15</title>
<path fill="none" stroke="black" d="M93.86,-910.67C215.76,-910.95 541.34,-909.23 582,-883.43 606.34,-867.99 620.61,-837.91 628.49,-814.23"/>
<polygon fill="black" stroke="black" points="632.08,-815.46 631.67,-804.88 625.39,-813.41 632.08,-815.46"/>
<text text-anchor="middle" x="342.5" y="-919.43" font-family="Times New Roman,serif" font-size="30.00"> &#160;&#160;316 &#160;&#160;2% &#160;&#160;1320.0 mol/s &#160;&#160;&#160;3.23E&#45;10</text>
</g>
<!-- R106 -->
<g id="node15" class="node">
<title>R106</title>
<g id="a_node15"><a xlink:href="106.svg" xlink:title="R106">
<polygon fill="azure" stroke="none" points="94,-868.93 0,-868.93 0,-821.93 94,-821.93 94,-868.93"/>
<text text-anchor="middle" x="47" y="-836.93" font-family="Times New Roman,serif" font-size="35.00">R106</text>
</a>
</g>
</g>
<!-- R106&#45;&gt;R15 -->
<g id="edge14" class="edge">
<title>R106&#45;&gt;R15</title>
<path fill="none" stroke="black" d="M93.62,-846.14C205.72,-847.4 492.07,-847.46 582,-817.43 587.94,-815.45 593.85,-812.63 599.46,-809.43"/>
<polygon fill="black" stroke="black" points="600.94,-812.01 607.58,-803.76 597.24,-806.07 600.94,-812.01"/>
<text text-anchor="middle" x="342.5" y="-855.43" font-family="Times New Roman,serif" font-size="30.00"> &#160;&#160;323 &#160;&#160;0% &#160;&#160;0.182 mol/s &#160;&#160;&#160;2.35E&#45;06</text>
</g>
<!-- R241 -->
<g id="node16" class="node">
<title>R241</title>
<g id="a_node16"><a xlink:href="241.svg" xlink:title="R241">
<polygon fill="azure" stroke="none" points="94,-803.93 0,-803.93 0,-756.93 94,-756.93 94,-803.93"/>
<text text-anchor="middle" x="47" y="-771.93" font-family="Times New Roman,serif" font-size="35.00">R241</text>
</a>
</g>
</g>
<!-- R241&#45;&gt;R15 -->
<g id="edge15" class="edge">
<title>R241&#45;&gt;R15</title>
<path fill="none" stroke="black" d="M93.73,-780.43C202.96,-780.43 478.21,-780.43 589.36,-780.43"/>
<polygon fill="black" stroke="black" points="589.21,-783.93 599.21,-780.43 589.21,-776.93 589.21,-783.93"/>
<text text-anchor="middle" x="342.5" y="-789.43" font-family="Times New Roman,serif" font-size="30.00"> &#160;&#160;324 &#160;&#160;0% &#160;&#160;0.0393 mol/s &#160;&#160;&#160;1.09E&#45;05</text>
</g>
<!-- R108 -->
<g id="node17" class="node">
<title>R108</title>
<g id="a_node17"><a xlink:href="108.svg" xlink:title="R108">
<polygon fill="azure" stroke="none" points="94,-738.93 0,-738.93 0,-691.93 94,-691.93 94,-738.93"/>
<text text-anchor="middle" x="47" y="-706.93" font-family="Times New Roman,serif" font-size="35.00">R108</text>
</a>
</g>
</g>
<!-- R108&#45;&gt;R15 -->
<g id="edge16" class="edge">
<title>R108&#45;&gt;R15</title>
<path fill="none" stroke="black" d="M93.81,-709.83C188.08,-700 409.41,-685.8 582,-743.43 587.94,-745.42 593.85,-748.23 599.46,-751.43"/>
<polygon fill="black" stroke="black" points="597.24,-754.8 607.58,-757.11 600.94,-748.85 597.24,-754.8"/>
<text text-anchor="middle" x="342.5" y="-752.43" font-family="Times New Roman,serif" font-size="30.00"> &#160;&#160;370 &#160;&#160;0% &#160;&#160;0.00391 mol/s &#160;&#160;&#160;1.09E&#45;04</text>
</g>
<!-- R274 -->
<g id="node18" class="node">
<title>R274</title>
<g id="a_node18"><a xlink:href="274.svg" xlink:title="R274">
<polygon fill="azure" stroke="none" points="94,-673.93 0,-673.93 0,-626.93 94,-626.93 94,-673.93"/>
<text text-anchor="middle" x="47" y="-641.93" font-family="Times New Roman,serif" font-size="35.00">R274</text>
</a>
</g>
</g>
<!-- R274&#45;&gt;R15 -->
<g id="edge17" class="edge">
<title>R274&#45;&gt;R15</title>
<path fill="none" stroke="black" d="M93.66,-645.59C207.85,-634.41 502.38,-611.51 582,-663.43 610.38,-681.94 624.42,-719.31 631.15,-746.85"/>
<polygon fill="black" stroke="black" points="627.88,-747.24 633.47,-756.24 634.71,-745.71 627.88,-747.24"/>
<text text-anchor="middle" x="342.5" y="-672.43" font-family="Times New Roman,serif" font-size="30.00"> &#160;&#160;371 &#160;&#160;0% &#160;&#160;0.000717 mol/s &#160;&#160;&#160;5.96E&#45;04</text>
</g>
<!-- R275 -->
<g id="node19" class="node">
<title>R275</title>
<g id="a_node19"><a xlink:href="275.svg" xlink:title="R275">
<polygon fill="azure" stroke="none" points="94,-608.93 0,-608.93 0,-561.93 94,-561.93 94,-608.93"/>
<text text-anchor="middle" x="47" y="-576.93" font-family="Times New Roman,serif" font-size="35.00">R275</text>
</a>
</g>
</g>
<!-- R275&#45;&gt;R15 -->
<g id="edge18" class="edge">
<title>R275&#45;&gt;R15</title>
<path fill="none" stroke="black" d="M93.71,-579.46C208.7,-565.46 506.24,-535.86 582,-593.43 606.37,-611.95 623.76,-697.68 631.87,-746.38"/>
<polygon fill="black" stroke="black" points="628.54,-746.73 633.59,-756.04 635.45,-745.61 628.54,-746.73"/>
<text text-anchor="middle" x="342.5" y="-602.43" font-family="Times New Roman,serif" font-size="30.00"> &#160;&#160;372 &#160;&#160;0% &#160;&#160;0.0504 mol/s &#160;&#160;&#160;8.48E&#45;06</text>
</g>
<!-- R298 -->
<g id="node20" class="node">
<title>R298</title>
<g id="a_node20"><a xlink:href="298.svg" xlink:title="R298">
<polygon fill="azure" stroke="none" points="94,-543.93 0,-543.93 0,-496.93 94,-496.93 94,-543.93"/>
<text text-anchor="middle" x="47" y="-511.93" font-family="Times New Roman,serif" font-size="35.00">R298</text>
</a>
</g>
</g>
<!-- R298&#45;&gt;R15 -->
<g id="edge19" class="edge">
<title>R298&#45;&gt;R15</title>
<path fill="none" stroke="black" d="M93.77,-517.29C216.23,-509.34 544.61,-491.09 582,-521.43 616.51,-549.44 630.27,-682.94 634.93,-746.56"/>
<polygon fill="black" stroke="black" points="631.49,-746.49 635.68,-756.23 638.47,-746.01 631.49,-746.49"/>
<text text-anchor="middle" x="342.5" y="-530.43" font-family="Times New Roman,serif" font-size="30.00"> &#160;&#160;404 &#160;&#160;0% &#160;&#160;0.115 mol/s &#160;&#160;&#160;3.73E&#45;06</text>
</g>
<!-- R299 -->
<g id="node21" class="node">
<title>R299</title>
<g id="a_node21"><a xlink:href="299.svg" xlink:title="R299">
<polygon fill="azure" stroke="none" points="94,-478.93 0,-478.93 0,-431.93 94,-431.93 94,-478.93"/>
<text text-anchor="middle" x="47" y="-446.93" font-family="Times New Roman,serif" font-size="35.00">R299</text>
</a>
</g>
</g>
<!-- R299&#45;&gt;R15 -->
<g id="edge20" class="edge">
<title>R299&#45;&gt;R15</title>
<path fill="none" stroke="black" d="M93.7,-449.4C209.38,-435.21 509.72,-405.35 582,-467.43 623.71,-503.26 633.81,-673.07 636.24,-746.48"/>
<polygon fill="black" stroke="black" points="632.77,-746.51 636.57,-756.4 639.77,-746.3 632.77,-746.51"/>
<text text-anchor="middle" x="342.5" y="-476.43" font-family="Times New Roman,serif" font-size="30.00"> &#160;&#160;405 &#160;&#160;0% &#160;&#160;4.64 mol/s &#160;&#160;&#160;9.21E&#45;08</text>
</g>
<!-- R300 -->
<g id="node22" class="node">
<title>R300</title>
<g id="a_node22"><a xlink:href="300.svg" xlink:title="R300">
<polygon fill="azure" stroke="none" points="94,-413.93 0,-413.93 0,-366.93 94,-366.93 94,-413.93"/>
<text text-anchor="middle" x="47" y="-381.93" font-family="Times New Roman,serif" font-size="35.00">R300</text>
</a>
</g>
</g>
<!-- R300&#45;&gt;R15 -->
<g id="edge21" class="edge">
<title>R300&#45;&gt;R15</title>
<path fill="none" stroke="black" d="M93.89,-387.25C216.64,-379.19 545.7,-360.8 582,-392.43 634.65,-438.32 638.23,-660.17 637.58,-746.22"/>
<polygon fill="black" stroke="black" points="634.07,-746.16 637.47,-756.2 641.07,-746.23 634.07,-746.16"/>
<text text-anchor="middle" x="342.5" y="-401.43" font-family="Times New Roman,serif" font-size="30.00"> &#160;&#160;406 &#160;&#160;0% &#160;&#160;0.00114 mol/s &#160;&#160;&#160;3.76E&#45;04</text>
</g>
<!-- R301 -->
<g id="node23" class="node">
<title>R301</title>
<g id="a_node23"><a xlink:href="301.svg" xlink:title="R301">
<polygon fill="azure" stroke="none" points="94,-348.93 0,-348.93 0,-301.93 94,-301.93 94,-348.93"/>
<text text-anchor="middle" x="47" y="-316.93" font-family="Times New Roman,serif" font-size="35.00">R301</text>
</a>
</g>
</g>
<!-- R301&#45;&gt;R15 -->
<g id="edge22" class="edge">
<title>R301&#45;&gt;R15</title>
<path fill="none" stroke="black" d="M93.89,-319.19C210.01,-304.49 511.31,-273.55 582,-337.43 612.28,-364.8 629.97,-647.1 635.28,-746.24"/>
<polygon fill="black" stroke="black" points="631.84,-746.33 635.86,-756.13 638.83,-745.96 631.84,-746.33"/>
<text text-anchor="middle" x="342.5" y="-346.43" font-family="Times New Roman,serif" font-size="30.00"> &#160;&#160;407 &#160;&#160;0% &#160;&#160;275.0 mol/s &#160;&#160;&#160;1.55E&#45;09</text>
</g>
<!-- R302 -->
<g id="node24" class="node">
<title>R302</title>
<g id="a_node24"><a xlink:href="302.svg" xlink:title="R302">
<polygon fill="azure" stroke="none" points="94,-283.93 0,-283.93 0,-236.93 94,-236.93 94,-283.93"/>
<text text-anchor="middle" x="47" y="-251.93" font-family="Times New Roman,serif" font-size="35.00">R302</text>
</a>
</g>
</g>
<!-- R302&#45;&gt;R15 -->
<g id="edge23" class="edge">
<title>R302&#45;&gt;R15</title>
<path fill="none" stroke="black" d="M93.95,-257.09C216.84,-248.62 546.23,-229.2 582,-261.43 618.08,-293.95 632.3,-636.07 635.97,-746.37"/>
<polygon fill="black" stroke="black" points="632.5,-746.3 636.32,-756.18 639.5,-746.07 632.5,-746.3"/>
<text text-anchor="middle" x="342.5" y="-270.43" font-family="Times New Roman,serif" font-size="30.00"> &#160;&#160;408 &#160;&#160;0% &#160;&#160;0.0322 mol/s &#160;&#160;&#160;1.33E&#45;05</text>
</g>
<!-- R303 -->
<g id="node25" class="node">
<title>R303</title>
<g id="a_node25"><a xlink:href="303.svg" xlink:title="R303">
<polygon fill="azure" stroke="none" points="94,-218.93 0,-218.93 0,-171.93 94,-171.93 94,-218.93"/>
<text text-anchor="middle" x="47" y="-186.93" font-family="Times New Roman,serif" font-size="35.00">R303</text>
</a>
</g>
</g>
<!-- R303&#45;&gt;R15 -->
<g id="edge24" class="edge">
<title>R303&#45;&gt;R15</title>
<path fill="none" stroke="black" stroke-width="5" d="M93.99,-188.98C210.34,-173.78 512.15,-141.63 582,-206.43 620.69,-242.32 632.96,-608.51 636.08,-736.53"/>
<polygon fill="black" stroke="black" stroke-width="5" points="627.35,-731.42 636.56,-751.21 644.84,-731.02 627.35,-731.42"/>
<text text-anchor="middle" x="342.5" y="-215.43" font-family="Times New Roman,serif" font-size="30.00"> &#160;&#160;409 &#160;&#160;96% &#160;&#160;47200.0 mol/s &#160;&#160;&#160;9.05E&#45;12</text>
</g>
<!-- R304 -->
<g id="node26" class="node">
<title>R304</title>
<g id="a_node26"><a xlink:href="304.svg" xlink:title="R304">
<polygon fill="azure" stroke="none" points="94,-153.93 0,-153.93 0,-106.93 94,-106.93 94,-153.93"/>
<text text-anchor="middle" x="47" y="-121.93" font-family="Times New Roman,serif" font-size="35.00">R304</text>
</a>
</g>
</g>
<!-- R304&#45;&gt;R15 -->
<g id="edge25" class="edge">
<title>R304&#45;&gt;R15</title>
<path fill="none" stroke="black" d="M93.98,-126.96C216.96,-118.15 546.55,-97.85 582,-130.43 627.68,-172.41 635.46,-618.8 636.75,-746.49"/>
<polygon fill="black" stroke="black" points="633.26,-746.19 636.85,-756.16 640.25,-746.13 633.26,-746.19"/>
<text text-anchor="middle" x="342.5" y="-139.43" font-family="Times New Roman,serif" font-size="30.00"> &#160;&#160;410 &#160;&#160;0% &#160;&#160;6.72e&#45;06 mol/s &#160;&#160;&#160;5.64E&#45;02</text>
</g>
<!-- R320 -->
<g id="node28" class="node">
<title>R320</title>
<g id="a_node28"><a xlink:href="320.svg" xlink:title="R320">
<polygon fill="azure" stroke="none" points="94,-88.93 0,-88.93 0,-41.93 94,-41.93 94,-88.93"/>
<text text-anchor="middle" x="47" y="-56.93" font-family="Times New Roman,serif" font-size="35.00">R320</text>
</a>
</g>
</g>
<!-- R320&#45;&gt;R15 -->
<g id="edge28" class="edge">
<title>R320&#45;&gt;R15</title>
<path fill="none" stroke="black" d="M93.72,-48.53C196.41,-13.84 446.88,51.93 582,-75.43 631.26,-121.87 636.47,-611.65 636.96,-746.33"/>
<polygon fill="black" stroke="black" points="633.46,-746.19 636.99,-756.18 640.46,-746.17 633.46,-746.19"/>
<text text-anchor="middle" x="342.5" y="-84.43" font-family="Times New Roman,serif" font-size="30.00"> &#160;&#160;896 &#160;&#160;0% &#160;&#160;0.00998 mol/s &#160;&#160;&#160;4.28E&#45;05</text>
</g>
</g>
</svg>
