<?xml version="1.0" encoding="UTF-8" standalone="no"?>
<!DOCTYPE svg PUBLIC "-//W3C//DTD SVG 1.1//EN"
 "http://www.w3.org/Graphics/SVG/1.1/DTD/svg11.dtd">
<!-- Generated by graphviz version 8.0.3 (20230416.2022)
 -->
<!-- Title: G Pages: 1 -->
<svg width="640pt" height="205pt"
 viewBox="0.00 0.00 720.00 230.13" xmlns="http://www.w3.org/2000/svg" xmlns:xlink="http://www.w3.org/1999/xlink">
<g id="graph0" class="graph" transform="scale(0.503937 0.503937) rotate(0) translate(4 401.92)">
<title>G</title>
<polygon fill="white" stroke="none" points="-4,4 -4,-401.92 1266,-401.92 1266,4 -4,4"/>
<text text-anchor="middle" x="631" y="-365.12" font-family="Arial" font-size="36.00" fill="blue">Reaction Path Analysis</text>
<!-- R150 -->
<g id="node1" class="node">
<title>R150</title>
<g id="a_node1"><a xlink:href="150.svg" xlink:title="R150">
<polygon fill="azure" stroke="none" points="678,-200.42 584,-200.42 584,-153.42 678,-153.42 678,-200.42"/>
<text text-anchor="middle" x="631" y="-168.42" font-family="Times New Roman,serif" font-size="35.00">R150</text>
</a>
</g>
</g>
<!-- R1 -->
<g id="node2" class="node">
<title>R1</title>
<g id="a_node2"><a xlink:href="1.svg" xlink:title="R1">
<polygon fill="azure" stroke="none" points="1244,-330.42 1186,-330.42 1186,-283.42 1244,-283.42 1244,-330.42"/>
<text text-anchor="middle" x="1215" y="-298.42" font-family="Times New Roman,serif" font-size="35.00">R1</text>
</a>
</g>
</g>
<!-- R150&#45;&gt;R1 -->
<g id="edge1" class="edge">
<title>R150&#45;&gt;R1</title>
<path fill="none" stroke="black" stroke-width="5" d="M637.33,-200.37C644.26,-224.84 658.93,-262.1 687,-279.92 765.4,-329.71 1050.2,-317.57 1165.27,-310.37"/>
<polygon fill="black" stroke="black" stroke-width="5" points="1160.83,-319.03 1180.21,-308.99 1159.68,-301.57 1160.83,-319.03"/>
<text text-anchor="middle" x="923" y="-325.92" font-family="Times New Roman,serif" font-size="30.00"> &#160;&#160;202 &#160;&#160;99% &#160;&#160;7.59 mol/s &#160;&#160;&#160;5.64E&#45;08</text>
</g>
<!-- R60 -->
<g id="node3" class="node">
<title>R60</title>
<g id="a_node3"><a xlink:href="60.svg" xlink:title="R60">
<polygon fill="azure" stroke="none" points="1253,-265.42 1177,-265.42 1177,-218.42 1253,-218.42 1253,-265.42"/>
<text text-anchor="middle" x="1215" y="-233.42" font-family="Times New Roman,serif" font-size="35.00">R60</text>
</a>
</g>
</g>
<!-- R150&#45;&gt;R60 -->
<g id="edge2" class="edge">
<title>R150&#45;&gt;R60</title>
<path fill="none" stroke="black" stroke-width="5" d="M660.42,-200.24C668.54,-205.7 677.72,-210.82 687,-213.92 772.51,-242.51 1038.03,-243.69 1156.23,-242.71"/>
<polygon fill="black" stroke="black" stroke-width="5" points="1151.25,-251.45 1171.16,-242.5 1151.08,-233.95 1151.25,-251.45"/>
<text text-anchor="middle" x="923" y="-251.92" font-family="Times New Roman,serif" font-size="30.00"> &#160;&#160;202 &#160;&#160;99% &#160;&#160;7.59 mol/s &#160;&#160;&#160;5.64E&#45;08</text>
</g>
<!-- R4 -->
<g id="node4" class="node">
<title>R4</title>
<g id="a_node4"><a xlink:href="4.svg" xlink:title="R4">
<polygon fill="azure" stroke="none" points="1244,-200.42 1186,-200.42 1186,-153.42 1244,-153.42 1244,-200.42"/>
<text text-anchor="middle" x="1215" y="-168.42" font-family="Times New Roman,serif" font-size="35.00">R4</text>
</a>
</g>
</g>
<!-- R150&#45;&gt;R4 -->
<g id="edge3" class="edge">
<title>R150&#45;&gt;R4</title>
<path fill="none" stroke="black" d="M677.67,-176.92C788.73,-176.92 1071.44,-176.92 1175.12,-176.92"/>
<polygon fill="black" stroke="black" points="1175,-180.42 1185,-176.92 1175,-173.42 1175,-180.42"/>
<text text-anchor="middle" x="923" y="-185.92" font-family="Times New Roman,serif" font-size="30.00"> &#160;&#160;302 &#160;&#160;0% &#160;&#160;0.00474 mol/s &#160;&#160;&#160;9.02E&#45;05</text>
</g>
<!-- R26 -->
<g id="node5" class="node">
<title>R26</title>
<g id="a_node5"><a xlink:href="26.svg" xlink:title="R26">
<polygon fill="azure" stroke="none" points="1253,-135.42 1177,-135.42 1177,-88.42 1253,-88.42 1253,-135.42"/>
<text text-anchor="middle" x="1215" y="-103.42" font-family="Times New Roman,serif" font-size="35.00">R26</text>
</a>
</g>
</g>
<!-- R150&#45;&gt;R26 -->
<g id="edge4" class="edge">
<title>R150&#45;&gt;R26</title>
<path fill="none" stroke="black" d="M660.42,-153.6C668.54,-148.15 677.72,-143.03 687,-139.92 855.88,-83.46 1072.08,-96.59 1166.41,-106.19"/>
<polygon fill="black" stroke="black" points="1165.99,-109.77 1176.3,-107.34 1166.72,-102.81 1165.99,-109.77"/>
<text text-anchor="middle" x="923" y="-148.92" font-family="Times New Roman,serif" font-size="30.00"> &#160;&#160;302 &#160;&#160;0% &#160;&#160;0.00474 mol/s &#160;&#160;&#160;9.02E&#45;05</text>
</g>
<!-- R153 -->
<g id="node7" class="node">
<title>R153</title>
<g id="a_node7"><a xlink:href="153.svg" xlink:title="R153">
<polygon fill="azure" stroke="none" points="1262,-70.42 1168,-70.42 1168,-23.42 1262,-23.42 1262,-70.42"/>
<text text-anchor="middle" x="1215" y="-38.42" font-family="Times New Roman,serif" font-size="35.00">R153</text>
</a>
</g>
</g>
<!-- R150&#45;&gt;R153 -->
<g id="edge6" class="edge">
<title>R150&#45;&gt;R153</title>
<path fill="none" stroke="black" d="M635.7,-153.45C641.41,-125.97 655.25,-81.6 687,-60.92 833.48,34.48 1054.72,-4.68 1157.64,-30.72"/>
<polygon fill="black" stroke="black" points="1156.56,-34.31 1167.12,-33.43 1158.31,-27.53 1156.56,-34.31"/>
<text text-anchor="middle" x="923" y="-69.92" font-family="Times New Roman,serif" font-size="30.00"> &#160;&#160;824 &#160;&#160;0% &#160;&#160;4.26e&#45;07 mol/s &#160;&#160;&#160;9.96E&#45;01</text>
</g>
<!-- R168 -->
<g id="node6" class="node">
<title>R168</title>
<g id="a_node6"><a xlink:href="168.svg" xlink:title="R168">
<polygon fill="azure" stroke="none" points="94,-200.42 0,-200.42 0,-153.42 94,-153.42 94,-200.42"/>
<text text-anchor="middle" x="47" y="-168.42" font-family="Times New Roman,serif" font-size="35.00">R168</text>
</a>
</g>
</g>
<!-- R168&#45;&gt;R150 -->
<g id="edge5" class="edge">
<title>R168&#45;&gt;R150</title>
<path fill="none" stroke="black" d="M93.7,-182.03C98.19,-182.4 102.68,-182.7 107,-182.92 312.96,-193.37 365.04,-193.37 571,-182.92 571.81,-182.88 572.63,-182.84 573.45,-182.79"/>
<polygon fill="black" stroke="black" points="573.57,-186.22 583.3,-182.03 573.08,-179.24 573.57,-186.22"/>
<text text-anchor="middle" x="339" y="-198.92" font-family="Times New Roman,serif" font-size="30.00"> &#160;&#160;688 &#160;&#160;2% &#160;&#160;0.00064 mol/s &#160;&#160;&#160;9.78E&#45;01</text>
</g>
<!-- R168&#45;&gt;R150 -->
<g id="edge7" class="edge">
<title>R168&#45;&gt;R150</title>
<path fill="none" stroke="black" stroke-width="5" d="M86.29,-153.46C92.98,-150.35 100.03,-147.64 107,-145.92 307.22,-96.53 370.78,-96.53 571,-145.92 571.44,-146.03 571.87,-146.14 572.31,-146.26"/>
<polygon fill="black" stroke="black" stroke-width="5" points="564.91,-152.7 586.71,-151.46 571,-136.3 564.91,-152.7"/>
<text text-anchor="middle" x="339" y="-154.92" font-family="Times New Roman,serif" font-size="30.00"> &#160;&#160;938 &#160;&#160;97% &#160;&#160;0.029 mol/s &#160;&#160;&#160;2.16E&#45;02</text>
</g>
</g>
</svg>
