<?xml version="1.0" encoding="UTF-8" standalone="no"?>
<!DOCTYPE svg PUBLIC "-//W3C//DTD SVG 1.1//EN"
 "http://www.w3.org/Graphics/SVG/1.1/DTD/svg11.dtd">
<!-- Generated by graphviz version 8.0.3 (20230416.2022)
 -->
<!-- Title: G Pages: 1 -->
<svg width="640pt" height="177pt"
 viewBox="0.00 0.00 720.00 199.23" xmlns="http://www.w3.org/2000/svg" xmlns:xlink="http://www.w3.org/1999/xlink">
<g id="graph0" class="graph" transform="scale(0.501961 0.501961) rotate(0) translate(4 348.81)">
<title>G</title>
<polygon fill="white" stroke="none" points="-4,4 -4,-348.81 1271,-348.81 1271,4 -4,4"/>
<text text-anchor="middle" x="633.5" y="-312.01" font-family="Arial" font-size="36.00" fill="blue">Reaction Path Analysis</text>
<!-- R159 -->
<g id="node1" class="node">
<title>R159</title>
<g id="a_node1"><a xlink:href="159.svg" xlink:title="R159">
<polygon fill="azure" stroke="none" points="676,-169.31 582,-169.31 582,-122.31 676,-122.31 676,-169.31"/>
<text text-anchor="middle" x="629" y="-137.31" font-family="Times New Roman,serif" font-size="35.00">R159</text>
</a>
</g>
</g>
<!-- R1 -->
<g id="node2" class="node">
<title>R1</title>
<g id="a_node2"><a xlink:href="1.svg" xlink:title="R1">
<polygon fill="azure" stroke="none" points="1249,-262.31 1191,-262.31 1191,-215.31 1249,-215.31 1249,-262.31"/>
<text text-anchor="middle" x="1220" y="-230.31" font-family="Times New Roman,serif" font-size="35.00">R1</text>
</a>
</g>
</g>
<!-- R159&#45;&gt;R1 -->
<g id="edge1" class="edge">
<title>R159&#45;&gt;R1</title>
<path fill="none" stroke="black" d="M643.66,-169.28C653.27,-183.41 667.52,-200.27 685,-208.81 853.58,-291.2 1088.74,-262.22 1180.34,-246.35"/>
<polygon fill="black" stroke="black" points="1180.8,-249.64 1190.03,-244.44 1179.57,-242.75 1180.8,-249.64"/>
<text text-anchor="middle" x="924.5" y="-272.81" font-family="Times New Roman,serif" font-size="30.00"> &#160;&#160;211 &#160;&#160;3% &#160;&#160;0.000674 mol/s &#160;&#160;&#160;6.34E&#45;04</text>
</g>
<!-- R68 -->
<g id="node3" class="node">
<title>R68</title>
<g id="a_node3"><a xlink:href="68.svg" xlink:title="R68">
<polygon fill="azure" stroke="none" points="1258,-197.31 1182,-197.31 1182,-150.31 1258,-150.31 1258,-197.31"/>
<text text-anchor="middle" x="1220" y="-165.31" font-family="Times New Roman,serif" font-size="35.00">R68</text>
</a>
</g>
</g>
<!-- R159&#45;&gt;R68 -->
<g id="edge2" class="edge">
<title>R159&#45;&gt;R68</title>
<path fill="none" stroke="black" d="M675.89,-151.05C678.97,-151.33 682.03,-151.59 685,-151.81 864.16,-165.26 1077.79,-170.95 1171.26,-172.92"/>
<polygon fill="black" stroke="black" points="1170.98,-176.44 1181.05,-173.15 1171.12,-169.44 1170.98,-176.44"/>
<text text-anchor="middle" x="924.5" y="-180.81" font-family="Times New Roman,serif" font-size="30.00"> &#160;&#160;211 &#160;&#160;3% &#160;&#160;0.000674 mol/s &#160;&#160;&#160;6.34E&#45;04</text>
</g>
<!-- R198 -->
<g id="node7" class="node">
<title>R198</title>
<g id="a_node7"><a xlink:href="198.svg" xlink:title="R198">
<polygon fill="azure" stroke="none" points="1267,-109.31 1173,-109.31 1173,-62.31 1267,-62.31 1267,-109.31"/>
<text text-anchor="middle" x="1220" y="-77.31" font-family="Times New Roman,serif" font-size="35.00">R198</text>
</a>
</g>
</g>
<!-- R159&#45;&gt;R198 -->
<g id="edge7" class="edge">
<title>R159&#45;&gt;R198</title>
<path fill="none" stroke="black" d="M665.92,-122.43C672.08,-119.35 678.57,-116.64 685,-114.81 784.38,-86.62 1041.88,-106.21 1162.29,-95.72"/>
<polygon fill="black" stroke="black" points="1162.55,-99.11 1172.15,-94.64 1161.86,-92.14 1162.55,-99.11"/>
<text text-anchor="middle" x="924.5" y="-123.81" font-family="Times New Roman,serif" font-size="30.00"> &#160;&#160;682 &#160;&#160;3% &#160;&#160;0.000632 mol/s &#160;&#160;&#160;9.67E&#45;01</text>
</g>
<!-- R159&#45;&gt;R198 -->
<g id="edge8" class="edge">
<title>R159&#45;&gt;R198</title>
<path fill="none" stroke="black" stroke-width="5" d="M637.44,-122.51C645.5,-101.63 660.58,-72.26 685,-58.81 865.64,40.7 951.21,-7.4 1155.68,-57.55"/>
<polygon fill="black" stroke="black" stroke-width="5" points="1148.35,-65.23 1169.84,-61.41 1152.45,-48.22 1148.35,-65.23"/>
<text text-anchor="middle" x="924.5" y="-67.81" font-family="Times New Roman,serif" font-size="30.00"> &#160;&#160;696 &#160;&#160;93% &#160;&#160;0.0187 mol/s &#160;&#160;&#160;3.27E&#45;02</text>
</g>
<!-- R6 -->
<g id="node4" class="node">
<title>R6</title>
<g id="a_node4"><a xlink:href="6.svg" xlink:title="R6">
<polygon fill="azure" stroke="none" points="67,-262.31 9,-262.31 9,-215.31 67,-215.31 67,-262.31"/>
<text text-anchor="middle" x="38" y="-230.31" font-family="Times New Roman,serif" font-size="35.00">R6</text>
</a>
</g>
</g>
<!-- R6&#45;&gt;R159 -->
<g id="edge3" class="edge">
<title>R6&#45;&gt;R159</title>
<path fill="none" stroke="black" d="M66.97,-244.44C149.53,-259.6 397.39,-294.64 573,-208.81 586.93,-202 598.81,-189.91 607.92,-178.13"/>
<polygon fill="black" stroke="black" points="611.31,-180.43 614.34,-170.28 605.64,-176.32 611.31,-180.43"/>
<text text-anchor="middle" x="333.5" y="-272.81" font-family="Times New Roman,serif" font-size="30.00"> &#160;&#160;318 &#160;&#160;0% &#160;&#160;3.53e&#45;07 mol/s &#160;&#160;&#160;8.51E&#45;01</text>
</g>
<!-- R26 -->
<g id="node5" class="node">
<title>R26</title>
<g id="a_node5"><a xlink:href="26.svg" xlink:title="R26">
<polygon fill="azure" stroke="none" points="76,-197.31 0,-197.31 0,-150.31 76,-150.31 76,-197.31"/>
<text text-anchor="middle" x="38" y="-165.31" font-family="Times New Roman,serif" font-size="35.00">R26</text>
</a>
</g>
</g>
<!-- R26&#45;&gt;R159 -->
<g id="edge4" class="edge">
<title>R26&#45;&gt;R159</title>
<path fill="none" stroke="black" d="M75.95,-173.15C161.17,-171.43 378.3,-166.01 571.19,-151.86"/>
<polygon fill="black" stroke="black" points="571.39,-155.28 581.11,-151.05 570.87,-148.3 571.39,-155.28"/>
<text text-anchor="middle" x="333.5" y="-180.81" font-family="Times New Roman,serif" font-size="30.00"> &#160;&#160;318 &#160;&#160;0% &#160;&#160;3.53e&#45;07 mol/s &#160;&#160;&#160;8.51E&#45;01</text>
</g>
<!-- R78 -->
<g id="node6" class="node">
<title>R78</title>
<g id="a_node6"><a xlink:href="78.svg" xlink:title="R78">
<polygon fill="azure" stroke="none" points="76,-109.31 0,-109.31 0,-62.31 76,-62.31 76,-109.31"/>
<text text-anchor="middle" x="38" y="-77.31" font-family="Times New Roman,serif" font-size="35.00">R78</text>
</a>
</g>
</g>
<!-- R78&#45;&gt;R159 -->
<g id="edge5" class="edge">
<title>R78&#45;&gt;R159</title>
<path fill="none" stroke="black" d="M75.88,-93.25C81.91,-94.26 88.12,-95.16 94,-95.81 199.89,-107.48 470.52,-85.73 573,-114.81 576.12,-115.69 579.24,-116.79 582.34,-118.03"/>
<polygon fill="black" stroke="black" points="580.52,-121.5 591.08,-122.43 583.41,-115.12 580.52,-121.5"/>
<text text-anchor="middle" x="333.5" y="-123.81" font-family="Times New Roman,serif" font-size="30.00"> &#160;&#160;463 &#160;&#160;6% &#160;&#160;0.000608 mol/s &#160;&#160;&#160;9.34E&#45;01</text>
</g>
<!-- R78&#45;&gt;R159 -->
<g id="edge6" class="edge">
<title>R78&#45;&gt;R159</title>
<path fill="none" stroke="black" stroke-width="5" d="M75.72,-64.97C81.67,-62.43 87.89,-60.23 94,-58.81 301.37,-10.66 386.53,43.91 573,-58.81 590.55,-68.48 603.28,-86.37 612.04,-103.42"/>
<polygon fill="black" stroke="black" stroke-width="5" points="602.42,-102.81 618.56,-117.51 618.4,-95.68 602.42,-102.81"/>
<text text-anchor="middle" x="333.5" y="-67.81" font-family="Times New Roman,serif" font-size="30.00"> &#160;&#160;681 &#160;&#160;93% &#160;&#160;0.00858 mol/s &#160;&#160;&#160;6.61E&#45;02</text>
</g>
</g>
</svg>
