<?xml version="1.0" encoding="UTF-8" standalone="no"?>
<!DOCTYPE svg PUBLIC "-//W3C//DTD SVG 1.1//EN"
 "http://www.w3.org/Graphics/SVG/1.1/DTD/svg11.dtd">
<!-- Generated by graphviz version 8.0.3 (20230416.2022)
 -->
<!-- Title: G Pages: 1 -->
<svg width="640pt" height="324pt"
 viewBox="0.00 0.00 720.00 364.31" xmlns="http://www.w3.org/2000/svg" xmlns:xlink="http://www.w3.org/1999/xlink">
<g id="graph0" class="graph" transform="scale(0.49574 0.49574) rotate(0) translate(4 649.23)">
<title>G</title>
<polygon fill="white" stroke="none" points="-4,4 -4,-649.23 1287,-649.23 1287,4 -4,4"/>
<text text-anchor="middle" x="641.5" y="-612.43" font-family="Arial" font-size="36.00" fill="blue">Reaction Path Analysis</text>
<!-- R163 -->
<g id="node1" class="node">
<title>R163</title>
<g id="a_node1"><a xlink:href="163.svg" xlink:title="R163">
<polygon fill="azure" stroke="none" points="693,-315.73 599,-315.73 599,-268.73 693,-268.73 693,-315.73"/>
<text text-anchor="middle" x="646" y="-283.73" font-family="Times New Roman,serif" font-size="35.00">R163</text>
</a>
</g>
</g>
<!-- R1 -->
<g id="node2" class="node">
<title>R1</title>
<g id="a_node2"><a xlink:href="1.svg" xlink:title="R1">
<polygon fill="azure" stroke="none" points="1274,-413.73 1216,-413.73 1216,-366.73 1274,-366.73 1274,-413.73"/>
<text text-anchor="middle" x="1245" y="-381.73" font-family="Times New Roman,serif" font-size="35.00">R1</text>
</a>
</g>
</g>
<!-- R163&#45;&gt;R1 -->
<g id="edge1" class="edge">
<title>R163&#45;&gt;R1</title>
<path fill="none" stroke="black" d="M659.66,-315.53C669.85,-331.74 685.79,-352.18 706,-362.23 875.45,-446.44 1113.08,-415.04 1205.3,-398.16"/>
<polygon fill="black" stroke="black" points="1205.88,-401.42 1215.06,-396.13 1204.59,-394.54 1205.88,-401.42"/>
<text text-anchor="middle" x="945.5" y="-426.23" font-family="Times New Roman,serif" font-size="30.00"> &#160;&#160;215 &#160;&#160;0% &#160;&#160;2.61e&#45;06 mol/s &#160;&#160;&#160;1.23E&#45;01</text>
</g>
<!-- R86 -->
<g id="node3" class="node">
<title>R86</title>
<g id="a_node3"><a xlink:href="86.svg" xlink:title="R86">
<polygon fill="azure" stroke="none" points="1283,-348.73 1207,-348.73 1207,-301.73 1283,-301.73 1283,-348.73"/>
<text text-anchor="middle" x="1245" y="-316.73" font-family="Times New Roman,serif" font-size="35.00">R86</text>
</a>
</g>
</g>
<!-- R163&#45;&gt;R86 -->
<g id="edge2" class="edge">
<title>R163&#45;&gt;R86</title>
<path fill="none" stroke="black" d="M692.96,-301.45C697.36,-302.14 701.76,-302.75 706,-303.23 886.08,-323.59 1101.96,-325.73 1196.14,-325.57"/>
<polygon fill="black" stroke="black" points="1196.02,-329.06 1206.01,-325.54 1196,-322.06 1196.02,-329.06"/>
<text text-anchor="middle" x="945.5" y="-334.23" font-family="Times New Roman,serif" font-size="30.00"> &#160;&#160;215 &#160;&#160;0% &#160;&#160;2.61e&#45;06 mol/s &#160;&#160;&#160;1.23E&#45;01</text>
</g>
<!-- R13 -->
<g id="node4" class="node">
<title>R13</title>
<g id="a_node4"><a xlink:href="13.svg" xlink:title="R13">
<polygon fill="azure" stroke="none" points="1283,-283.73 1207,-283.73 1207,-236.73 1283,-236.73 1283,-283.73"/>
<text text-anchor="middle" x="1245" y="-251.73" font-family="Times New Roman,serif" font-size="35.00">R13</text>
</a>
</g>
</g>
<!-- R163&#45;&gt;R13 -->
<g id="edge3" class="edge">
<title>R163&#45;&gt;R13</title>
<path fill="none" stroke="black" stroke-width="5" d="M692.95,-273.41C697.31,-272.14 701.7,-271.04 706,-270.23 878.17,-237.52 1086.92,-247.38 1186.18,-254.98"/>
<polygon fill="black" stroke="black" stroke-width="5" points="1180.39,-263.78 1201.03,-256.67 1181.8,-246.33 1180.39,-263.78"/>
<text text-anchor="middle" x="945.5" y="-279.23" font-family="Times New Roman,serif" font-size="30.00"> &#160;&#160;332 &#160;&#160;99% &#160;&#160;0.00239 mol/s &#160;&#160;&#160;1.79E&#45;04</text>
</g>
<!-- R26 -->
<g id="node5" class="node">
<title>R26</title>
<g id="a_node5"><a xlink:href="26.svg" xlink:title="R26">
<polygon fill="azure" stroke="none" points="1283,-218.73 1207,-218.73 1207,-171.73 1283,-171.73 1283,-218.73"/>
<text text-anchor="middle" x="1245" y="-186.73" font-family="Times New Roman,serif" font-size="35.00">R26</text>
</a>
</g>
</g>
<!-- R163&#45;&gt;R26 -->
<g id="edge4" class="edge">
<title>R163&#45;&gt;R26</title>
<path fill="none" stroke="black" stroke-width="5" d="M656.64,-268.8C666.06,-249.28 682.45,-222.71 706,-210.23 863.06,-126.96 1083.82,-159.17 1186.85,-181.21"/>
<polygon fill="black" stroke="black" stroke-width="5" points="1179.84,-188.95 1201.27,-184.78 1183.66,-171.87 1179.84,-188.95"/>
<text text-anchor="middle" x="945.5" y="-219.23" font-family="Times New Roman,serif" font-size="30.00"> &#160;&#160;332 &#160;&#160;99% &#160;&#160;0.00239 mol/s &#160;&#160;&#160;1.79E&#45;04</text>
</g>
<!-- R61 -->
<g id="node6" class="node">
<title>R61</title>
<g id="a_node6"><a xlink:href="61.svg" xlink:title="R61">
<polygon fill="azure" stroke="none" points="85,-524.73 9,-524.73 9,-477.73 85,-477.73 85,-524.73"/>
<text text-anchor="middle" x="47" y="-492.73" font-family="Times New Roman,serif" font-size="35.00">R61</text>
</a>
</g>
</g>
<!-- R61&#45;&gt;R163 -->
<g id="edge5" class="edge">
<title>R61&#45;&gt;R163</title>
<path fill="none" stroke="black" d="M84.74,-514.61C179.74,-546.63 436.78,-616.58 590,-498.23 617.02,-477.36 633.66,-379.6 640.85,-326.6"/>
<polygon fill="black" stroke="black" points="644.44,-327.08 642.28,-316.71 637.5,-326.17 644.44,-327.08"/>
<text text-anchor="middle" x="346.5" y="-573.23" font-family="Times New Roman,serif" font-size="30.00"> &#160;&#160;447 &#160;&#160;0% &#160;&#160;0.000654 mol/s &#160;&#160;&#160;1.00E+00</text>
</g>
<!-- R61&#45;&gt;R163 -->
<g id="edge11" class="edge">
<title>R61&#45;&gt;R163</title>
<path fill="none" stroke="black" d="M73.6,-477.81C82.31,-471.22 92.51,-464.86 103,-461.23 154.16,-443.48 546.22,-474.09 590,-442.23 626.63,-415.57 638.91,-361.87 643,-326.49"/>
<polygon fill="black" stroke="black" points="646.56,-326.99 644.06,-316.7 639.59,-326.31 646.56,-326.99"/>
<text text-anchor="middle" x="346.5" y="-470.23" font-family="Times New Roman,serif" font-size="30.00"> &#160;&#160;685 &#160;&#160;7% &#160;&#160;16.4 mol/s &#160;&#160;&#160;3.98E&#45;05</text>
</g>
<!-- R166 -->
<g id="node7" class="node">
<title>R166</title>
<g id="a_node7"><a xlink:href="166.svg" xlink:title="R166">
<polygon fill="azure" stroke="none" points="94,-445.73 0,-445.73 0,-398.73 94,-398.73 94,-445.73"/>
<text text-anchor="middle" x="47" y="-413.73" font-family="Times New Roman,serif" font-size="35.00">R166</text>
</a>
</g>
</g>
<!-- R166&#45;&gt;R163 -->
<g id="edge6" class="edge">
<title>R166&#45;&gt;R163</title>
<path fill="none" stroke="black" d="M93.8,-410.73C96.9,-410.16 99.99,-409.65 103,-409.23 156.64,-401.69 543.66,-414.28 590,-386.23 612.14,-372.83 626.33,-346.88 634.74,-325.64"/>
<polygon fill="black" stroke="black" points="638.35,-326.95 638.52,-316.36 631.78,-324.54 638.35,-326.95"/>
<text text-anchor="middle" x="346.5" y="-418.23" font-family="Times New Roman,serif" font-size="30.00"> &#160;&#160;506 &#160;&#160;0% &#160;&#160;4.75e&#45;05 mol/s &#160;&#160;&#160;8.85E&#45;03</text>
</g>
<!-- R249 -->
<g id="node8" class="node">
<title>R249</title>
<g id="a_node8"><a xlink:href="249.svg" xlink:title="R249">
<polygon fill="azure" stroke="none" points="94,-380.73 0,-380.73 0,-333.73 94,-333.73 94,-380.73"/>
<text text-anchor="middle" x="47" y="-348.73" font-family="Times New Roman,serif" font-size="35.00">R249</text>
</a>
</g>
</g>
<!-- R249&#45;&gt;R163 -->
<g id="edge7" class="edge">
<title>R249&#45;&gt;R163</title>
<path fill="none" stroke="black" d="M93.91,-353.81C96.99,-353.6 100.04,-353.41 103,-353.23 211.15,-346.63 487.17,-363.38 590,-329.23 595.95,-327.25 601.85,-324.44 607.47,-321.24"/>
<polygon fill="black" stroke="black" points="608.95,-323.82 615.59,-315.57 605.25,-317.88 608.95,-323.82"/>
<text text-anchor="middle" x="346.5" y="-362.23" font-family="Times New Roman,serif" font-size="30.00"> &#160;&#160;507 &#160;&#160;0% &#160;&#160;8.51e&#45;06 mol/s &#160;&#160;&#160;4.57E&#45;02</text>
</g>
<!-- R348 -->
<g id="node9" class="node">
<title>R348</title>
<g id="a_node9"><a xlink:href="348.svg" xlink:title="R348">
<polygon fill="azure" stroke="none" points="94,-315.73 0,-315.73 0,-268.73 94,-268.73 94,-315.73"/>
<text text-anchor="middle" x="47" y="-283.73" font-family="Times New Roman,serif" font-size="35.00">R348</text>
</a>
</g>
</g>
<!-- R348&#45;&gt;R163 -->
<g id="edge8" class="edge">
<title>R348&#45;&gt;R163</title>
<path fill="none" stroke="black" d="M93.85,-292.23C201.64,-292.23 470.86,-292.23 588.5,-292.23"/>
<polygon fill="black" stroke="black" points="588.4,-295.73 598.4,-292.23 588.4,-288.73 588.4,-295.73"/>
<text text-anchor="middle" x="346.5" y="-301.23" font-family="Times New Roman,serif" font-size="30.00"> &#160;&#160;586 &#160;&#160;0% &#160;&#160;0.298 mol/s &#160;&#160;&#160;1.43E&#45;06</text>
</g>
<!-- R349 -->
<g id="node10" class="node">
<title>R349</title>
<g id="a_node10"><a xlink:href="349.svg" xlink:title="R349">
<polygon fill="azure" stroke="none" points="94,-250.73 0,-250.73 0,-203.73 94,-203.73 94,-250.73"/>
<text text-anchor="middle" x="47" y="-218.73" font-family="Times New Roman,serif" font-size="35.00">R349</text>
</a>
</g>
</g>
<!-- R349&#45;&gt;R163 -->
<g id="edge9" class="edge">
<title>R349&#45;&gt;R163</title>
<path fill="none" stroke="black" stroke-width="3" d="M93.76,-221.57C189.02,-211.5 414.36,-196.65 590,-255.23 595.94,-257.21 601.85,-260.02 607.46,-263.22"/>
<polygon fill="black" stroke="black" stroke-width="3" points="603.24,-264.59 613.58,-266.9 606.94,-258.64 603.24,-264.59"/>
<text text-anchor="middle" x="346.5" y="-264.23" font-family="Times New Roman,serif" font-size="30.00"> &#160;&#160;587 &#160;&#160;40% &#160;&#160;92.2 mol/s &#160;&#160;&#160;4.64E&#45;09</text>
</g>
<!-- R350 -->
<g id="node11" class="node">
<title>R350</title>
<g id="a_node11"><a xlink:href="350.svg" xlink:title="R350">
<polygon fill="azure" stroke="none" points="94,-185.73 0,-185.73 0,-138.73 94,-138.73 94,-185.73"/>
<text text-anchor="middle" x="47" y="-153.73" font-family="Times New Roman,serif" font-size="35.00">R350</text>
</a>
</g>
</g>
<!-- R350&#45;&gt;R163 -->
<g id="edge10" class="edge">
<title>R350&#45;&gt;R163</title>
<path fill="none" stroke="black" stroke-width="3" d="M93.7,-160.51C216.83,-156.27 549.02,-147.47 590,-174.23 618.57,-192.88 632.57,-230.57 639.25,-258.35"/>
<polygon fill="black" stroke="black" stroke-width="3" points="635.98,-255.8 641.54,-264.83 642.82,-254.31 635.98,-255.8"/>
<text text-anchor="middle" x="346.5" y="-183.23" font-family="Times New Roman,serif" font-size="30.00"> &#160;&#160;588 &#160;&#160;51% &#160;&#160;118.0 mol/s &#160;&#160;&#160;3.63E&#45;09</text>
</g>
<!-- R95 -->
<g id="node12" class="node">
<title>R95</title>
<g id="a_node12"><a xlink:href="95.svg" xlink:title="R95">
<polygon fill="azure" stroke="none" points="85,-106.73 9,-106.73 9,-59.73 85,-59.73 85,-106.73"/>
<text text-anchor="middle" x="47" y="-74.73" font-family="Times New Roman,serif" font-size="35.00">R95</text>
</a>
</g>
</g>
<!-- R95&#45;&gt;R163 -->
<g id="edge12" class="edge">
<title>R95&#45;&gt;R163</title>
<path fill="none" stroke="black" d="M84.73,-94.47C90.79,-95.97 97.03,-97.3 103,-98.23 156.52,-106.51 546.98,-85.33 590,-118.23 632.93,-151.05 643.07,-217.38 645.05,-257.99"/>
<polygon fill="black" stroke="black" points="641.59,-258.09 645.42,-267.96 648.58,-257.85 641.59,-258.09"/>
<text text-anchor="middle" x="346.5" y="-127.23" font-family="Times New Roman,serif" font-size="30.00"> &#160;&#160;686 &#160;&#160;0% &#160;&#160;0.497 mol/s &#160;&#160;&#160;1.31E&#45;03</text>
</g>
<!-- R95&#45;&gt;R163 -->
<g id="edge13" class="edge">
<title>R95&#45;&gt;R163</title>
<path fill="none" stroke="black" d="M84.87,-67.13C180.2,-28.29 437.95,58.87 590,-61.23 620.56,-85.36 635.97,-199.66 641.94,-257.92"/>
<polygon fill="black" stroke="black" points="638.55,-258.17 643.01,-267.78 645.52,-257.48 638.55,-258.17"/>
<text text-anchor="middle" x="346.5" y="-70.23" font-family="Times New Roman,serif" font-size="30.00"> &#160;&#160;915 &#160;&#160;0% &#160;&#160;0.000653 mol/s &#160;&#160;&#160;9.99E&#45;01</text>
</g>
</g>
</svg>
