<?xml version="1.0" encoding="UTF-8" standalone="no"?>
<!DOCTYPE svg PUBLIC "-//W3C//DTD SVG 1.1//EN"
 "http://www.w3.org/Graphics/SVG/1.1/DTD/svg11.dtd">
<!-- Generated by graphviz version 8.0.3 (20230416.2022)
 -->
<!-- Title: G Pages: 1 -->
<svg width="640pt" height="158pt"
 viewBox="0.00 0.00 720.00 178.08" xmlns="http://www.w3.org/2000/svg" xmlns:xlink="http://www.w3.org/1999/xlink">
<g id="graph0" class="graph" transform="scale(0.498442 0.498442) rotate(0) translate(4 313.58)">
<title>G</title>
<polygon fill="white" stroke="none" points="-4,4 -4,-313.58 1280,-313.58 1280,4 -4,4"/>
<text text-anchor="middle" x="638" y="-276.78" font-family="Arial" font-size="36.00" fill="blue">Reaction Path Analysis</text>
<!-- R168 -->
<g id="node1" class="node">
<title>R168</title>
<g id="a_node1"><a xlink:href="168.svg" xlink:title="R168">
<polygon fill="azure" stroke="none" points="685,-137.08 591,-137.08 591,-90.08 685,-90.08 685,-137.08"/>
<text text-anchor="middle" x="638" y="-105.08" font-family="Times New Roman,serif" font-size="35.00">R168</text>
</a>
</g>
</g>
<!-- R87 -->
<g id="node2" class="node">
<title>R87</title>
<g id="a_node2"><a xlink:href="87.svg" xlink:title="R87">
<polygon fill="azure" stroke="none" points="1267,-230.08 1191,-230.08 1191,-183.08 1267,-183.08 1267,-230.08"/>
<text text-anchor="middle" x="1229" y="-198.08" font-family="Times New Roman,serif" font-size="35.00">R87</text>
</a>
</g>
</g>
<!-- R168&#45;&gt;R87 -->
<g id="edge1" class="edge">
<title>R168&#45;&gt;R87</title>
<path fill="none" stroke="black" stroke-width="5" d="M654.98,-136.78C666.19,-150.99 682.54,-168.04 701.5,-176.58 859.02,-247.52 1070.37,-230.18 1170.62,-216.16"/>
<polygon fill="black" stroke="black" stroke-width="5" points="1166.61,-224.71 1185.11,-213.12 1164.04,-207.4 1166.61,-224.71"/>
<text text-anchor="middle" x="933.5" y="-237.58" font-family="Times New Roman,serif" font-size="30.00"> &#160;&#160;220 &#160;&#160;98% &#160;&#160;2.04 mol/s &#160;&#160;&#160;2.09E&#45;07</text>
</g>
<!-- R1 -->
<g id="node3" class="node">
<title>R1</title>
<g id="a_node3"><a xlink:href="1.svg" xlink:title="R1">
<polygon fill="azure" stroke="none" points="1258,-165.08 1200,-165.08 1200,-118.08 1258,-118.08 1258,-165.08"/>
<text text-anchor="middle" x="1229" y="-133.08" font-family="Times New Roman,serif" font-size="35.00">R1</text>
</a>
</g>
</g>
<!-- R168&#45;&gt;R1 -->
<g id="edge2" class="edge">
<title>R168&#45;&gt;R1</title>
<path fill="none" stroke="black" stroke-width="5" d="M684.72,-118.26C690.36,-118.75 696.06,-119.21 701.5,-119.58 877.12,-131.67 1086.18,-138.02 1179.19,-140.42"/>
<polygon fill="black" stroke="black" stroke-width="5" points="1173.79,-149.19 1194,-140.94 1174.23,-131.69 1173.79,-149.19"/>
<text text-anchor="middle" x="933.5" y="-148.58" font-family="Times New Roman,serif" font-size="30.00"> &#160;&#160;220 &#160;&#160;98% &#160;&#160;2.04 mol/s &#160;&#160;&#160;2.09E&#45;07</text>
</g>
<!-- R150 -->
<g id="node5" class="node">
<title>R150</title>
<g id="a_node5"><a xlink:href="150.svg" xlink:title="R150">
<polygon fill="azure" stroke="none" points="1276,-77.08 1182,-77.08 1182,-30.08 1276,-30.08 1276,-77.08"/>
<text text-anchor="middle" x="1229" y="-45.08" font-family="Times New Roman,serif" font-size="35.00">R150</text>
</a>
</g>
</g>
<!-- R168&#45;&gt;R150 -->
<g id="edge4" class="edge">
<title>R168&#45;&gt;R150</title>
<path fill="none" stroke="black" d="M680.09,-90.21C687.05,-87.13 694.34,-84.41 701.5,-82.58 801.47,-56.98 1062.82,-73.86 1165.5,-63.58 1167.34,-63.4 1169.21,-63.19 1171.1,-62.97"/>
<polygon fill="black" stroke="black" points="1171.53,-66.32 1181,-61.57 1170.64,-59.38 1171.53,-66.32"/>
<text text-anchor="middle" x="933.5" y="-91.58" font-family="Times New Roman,serif" font-size="30.00"> &#160;&#160;688 &#160;&#160;0% &#160;&#160;0.00064 mol/s &#160;&#160;&#160;9.78E&#45;01</text>
</g>
<!-- R168&#45;&gt;R150 -->
<g id="edge5" class="edge">
<title>R168&#45;&gt;R150</title>
<path fill="none" stroke="black" d="M648.34,-90.19C658.12,-69.23 675.69,-39.82 701.5,-26.58 793.25,20.48 1064.52,-5.7 1165.5,-26.58 1167.58,-27.01 1169.68,-27.52 1171.79,-28.08"/>
<polygon fill="black" stroke="black" points="1170.68,-31.71 1181.27,-31.35 1172.77,-25.03 1170.68,-31.71"/>
<text text-anchor="middle" x="933.5" y="-35.58" font-family="Times New Roman,serif" font-size="30.00"> &#160;&#160;938 &#160;&#160;1% &#160;&#160;0.029 mol/s &#160;&#160;&#160;2.16E&#45;02</text>
</g>
<!-- R210 -->
<g id="node4" class="node">
<title>R210</title>
<g id="a_node4"><a xlink:href="210.svg" xlink:title="R210">
<polygon fill="azure" stroke="none" points="94,-137.08 0,-137.08 0,-90.08 94,-90.08 94,-137.08"/>
<text text-anchor="middle" x="47" y="-105.08" font-family="Times New Roman,serif" font-size="35.00">R210</text>
</a>
</g>
</g>
<!-- R210&#45;&gt;R168 -->
<g id="edge3" class="edge">
<title>R210&#45;&gt;R168</title>
<path fill="none" stroke="black" stroke-width="6" d="M93.73,-113.58C197.16,-113.58 449.47,-113.58 570.33,-113.58"/>
<polygon fill="black" stroke="black" stroke-width="6" points="565.3,-124.08 585.3,-113.58 565.3,-103.08 565.3,-124.08"/>
<text text-anchor="middle" x="342.5" y="-122.58" font-family="Times New Roman,serif" font-size="30.00"> &#160;&#160;509 &#160;&#160;100% &#160;&#160;0.0281 mol/s &#160;&#160;&#160;1.52E&#45;05</text>
</g>
</g>
</svg>
