<?xml version="1.0" encoding="UTF-8" standalone="no"?>
<!DOCTYPE svg PUBLIC "-//W3C//DTD SVG 1.1//EN"
 "http://www.w3.org/Graphics/SVG/1.1/DTD/svg11.dtd">
<!-- Generated by graphviz version 8.0.3 (20230416.2022)
 -->
<!-- Title: G Pages: 1 -->
<svg width="640pt" height="327pt"
 viewBox="0.00 0.00 720.00 367.65" xmlns="http://www.w3.org/2000/svg" xmlns:xlink="http://www.w3.org/1999/xlink">
<g id="graph0" class="graph" transform="scale(0.498442 0.498442) rotate(0) translate(4 651.64)">
<title>G</title>
<polygon fill="white" stroke="none" points="-4,4 -4,-651.64 1280,-651.64 1280,4 -4,4"/>
<text text-anchor="middle" x="638" y="-614.84" font-family="Arial" font-size="36.00" fill="blue">Reaction Path Analysis</text>
<!-- R17 -->
<g id="node1" class="node">
<title>R17</title>
<g id="a_node1"><a xlink:href="17.svg" xlink:title="R17">
<polygon fill="azure" stroke="none" points="676,-315.14 600,-315.14 600,-268.14 676,-268.14 676,-315.14"/>
<text text-anchor="middle" x="638" y="-283.14" font-family="Times New Roman,serif" font-size="35.00">R17</text>
</a>
</g>
</g>
<!-- R4 -->
<g id="node2" class="node">
<title>R4</title>
<g id="a_node2"><a xlink:href="4.svg" xlink:title="R4">
<polygon fill="azure" stroke="none" points="1258,-575.14 1200,-575.14 1200,-528.14 1258,-528.14 1258,-575.14"/>
<text text-anchor="middle" x="1229" y="-543.14" font-family="Times New Roman,serif" font-size="35.00">R4</text>
</a>
</g>
</g>
<!-- R17&#45;&gt;R4 -->
<g id="edge1" class="edge">
<title>R17&#45;&gt;R4</title>
<path fill="none" stroke="black" d="M641.06,-315.08C646.29,-368.53 661.97,-496.93 694,-523.64 768.79,-586.03 1079.72,-564.96 1189.45,-555.33"/>
<polygon fill="black" stroke="black" points="1189.67,-558.73 1199.32,-554.35 1189.05,-551.76 1189.67,-558.73"/>
<text text-anchor="middle" x="933.5" y="-575.64" font-family="Times New Roman,serif" font-size="30.00"> &#160;&#160;20 &#160;&#160;0% &#160;&#160;8.48e&#45;05 mol/s &#160;&#160;&#160;4.99E&#45;03</text>
</g>
<!-- R1 -->
<g id="node3" class="node">
<title>R1</title>
<g id="a_node3"><a xlink:href="1.svg" xlink:title="R1">
<polygon fill="azure" stroke="none" points="1258,-510.14 1200,-510.14 1200,-463.14 1258,-463.14 1258,-510.14"/>
<text text-anchor="middle" x="1229" y="-478.14" font-family="Times New Roman,serif" font-size="35.00">R1</text>
</a>
</g>
</g>
<!-- R17&#45;&gt;R1 -->
<g id="edge2" class="edge">
<title>R17&#45;&gt;R1</title>
<path fill="none" stroke="black" d="M638.99,-315.14C640.39,-352.41 649.13,-424.35 694,-458.64 733.08,-488.51 1073.47,-488.11 1189.47,-487.09"/>
<polygon fill="black" stroke="black" points="1189.32,-490.58 1199.29,-486.99 1189.26,-483.59 1189.32,-490.58"/>
<text text-anchor="middle" x="933.5" y="-495.64" font-family="Times New Roman,serif" font-size="30.00"> &#160;&#160;20 &#160;&#160;0% &#160;&#160;8.48e&#45;05 mol/s &#160;&#160;&#160;4.99E&#45;03</text>
</g>
<!-- R31 -->
<g id="node4" class="node">
<title>R31</title>
<g id="a_node4"><a xlink:href="31.svg" xlink:title="R31">
<polygon fill="azure" stroke="none" points="1267,-445.14 1191,-445.14 1191,-398.14 1267,-398.14 1267,-445.14"/>
<text text-anchor="middle" x="1229" y="-413.14" font-family="Times New Roman,serif" font-size="35.00">R31</text>
</a>
</g>
</g>
<!-- R17&#45;&gt;R31 -->
<g id="edge3" class="edge">
<title>R17&#45;&gt;R31</title>
<path fill="none" stroke="black" d="M644.33,-315.09C651.25,-339.57 665.93,-376.83 694,-394.64 734.47,-420.32 1057.27,-422.14 1180.46,-421.88"/>
<polygon fill="black" stroke="black" points="1180.41,-425.38 1190.4,-421.85 1180.39,-418.38 1180.41,-425.38"/>
<text text-anchor="middle" x="933.5" y="-430.64" font-family="Times New Roman,serif" font-size="30.00"> &#160;&#160;104 &#160;&#160;0% &#160;&#160;4.21e&#45;07 mol/s &#160;&#160;&#160;9.85E&#45;01</text>
</g>
<!-- R111 -->
<g id="node6" class="node">
<title>R111</title>
<g id="a_node6"><a xlink:href="111.svg" xlink:title="R111">
<polygon fill="azure" stroke="none" points="1276,-380.14 1182,-380.14 1182,-333.14 1276,-333.14 1276,-380.14"/>
<text text-anchor="middle" x="1229" y="-348.14" font-family="Times New Roman,serif" font-size="35.00">R111</text>
</a>
</g>
</g>
<!-- R17&#45;&gt;R111 -->
<g id="edge5" class="edge">
<title>R17&#45;&gt;R111</title>
<path fill="none" stroke="black" d="M667.42,-314.97C675.54,-320.42 684.72,-325.54 694,-328.64 781.2,-357.76 1053.13,-358.58 1171.73,-357.46"/>
<polygon fill="black" stroke="black" points="1171.42,-360.96 1181.38,-357.35 1171.35,-353.96 1171.42,-360.96"/>
<text text-anchor="middle" x="933.5" y="-366.64" font-family="Times New Roman,serif" font-size="30.00"> &#160;&#160;156 &#160;&#160;0% &#160;&#160;8.16e&#45;08 mol/s &#160;&#160;&#160;5.53E&#45;01</text>
</g>
<!-- R217 -->
<g id="node10" class="node">
<title>R217</title>
<g id="a_node10"><a xlink:href="217.svg" xlink:title="R217">
<polygon fill="azure" stroke="none" points="1276,-315.14 1182,-315.14 1182,-268.14 1276,-268.14 1276,-315.14"/>
<text text-anchor="middle" x="1229" y="-283.14" font-family="Times New Roman,serif" font-size="35.00">R217</text>
</a>
</g>
</g>
<!-- R17&#45;&gt;R217 -->
<g id="edge9" class="edge">
<title>R17&#45;&gt;R217</title>
<path fill="none" stroke="black" d="M675.84,-291.64C775.61,-291.64 1051.52,-291.64 1171.29,-291.64"/>
<polygon fill="black" stroke="black" points="1171.04,-295.14 1181.04,-291.64 1171.04,-288.14 1171.04,-295.14"/>
<text text-anchor="middle" x="933.5" y="-300.64" font-family="Times New Roman,serif" font-size="30.00"> &#160;&#160;280 &#160;&#160;0% &#160;&#160;2.96e&#45;07 mol/s &#160;&#160;&#160;7.65E&#45;01</text>
</g>
<!-- R243 -->
<g id="node13" class="node">
<title>R243</title>
<g id="a_node13"><a xlink:href="243.svg" xlink:title="R243">
<polygon fill="azure" stroke="none" points="1276,-250.14 1182,-250.14 1182,-203.14 1276,-203.14 1276,-250.14"/>
<text text-anchor="middle" x="1229" y="-218.14" font-family="Times New Roman,serif" font-size="35.00">R243</text>
</a>
</g>
</g>
<!-- R17&#45;&gt;R243 -->
<g id="edge12" class="edge">
<title>R17&#45;&gt;R243</title>
<path fill="none" stroke="black" d="M667.42,-268.32C675.54,-262.86 684.72,-257.74 694,-254.64 860.35,-199.09 1071.99,-210.28 1171.48,-219.96"/>
<polygon fill="black" stroke="black" points="1170.89,-223.52 1181.19,-221.04 1171.59,-216.55 1170.89,-223.52"/>
<text text-anchor="middle" x="933.5" y="-263.64" font-family="Times New Roman,serif" font-size="30.00"> &#160;&#160;327 &#160;&#160;0% &#160;&#160;3.97e&#45;07 mol/s &#160;&#160;&#160;9.32E&#45;01</text>
</g>
<!-- R279 -->
<g id="node16" class="node">
<title>R279</title>
<g id="a_node16"><a xlink:href="279.svg" xlink:title="R279">
<polygon fill="azure" stroke="none" points="1276,-185.14 1182,-185.14 1182,-138.14 1276,-138.14 1276,-185.14"/>
<text text-anchor="middle" x="1229" y="-153.14" font-family="Times New Roman,serif" font-size="35.00">R279</text>
</a>
</g>
</g>
<!-- R17&#45;&gt;R279 -->
<g id="edge15" class="edge">
<title>R17&#45;&gt;R279</title>
<path fill="none" stroke="black" d="M642.53,-268.44C648.11,-240.77 661.85,-195.61 694,-174.64 733.15,-149.11 1041.87,-155.73 1171.26,-159.7"/>
<polygon fill="black" stroke="black" points="1171,-163.22 1181.1,-160.04 1171.22,-156.22 1171,-163.22"/>
<text text-anchor="middle" x="933.5" y="-183.64" font-family="Times New Roman,serif" font-size="30.00"> &#160;&#160;377 &#160;&#160;0% &#160;&#160;3.23e&#45;07 mol/s &#160;&#160;&#160;8.03E&#45;01</text>
</g>
<!-- R86 -->
<g id="node17" class="node">
<title>R86</title>
<g id="a_node17"><a xlink:href="86.svg" xlink:title="R86">
<polygon fill="azure" stroke="none" points="1267,-106.14 1191,-106.14 1191,-59.14 1267,-59.14 1267,-106.14"/>
<text text-anchor="middle" x="1229" y="-74.14" font-family="Times New Roman,serif" font-size="35.00">R86</text>
</a>
</g>
</g>
<!-- R17&#45;&gt;R86 -->
<g id="edge16" class="edge">
<title>R17&#45;&gt;R86</title>
<path fill="none" stroke="black" d="M638.64,-268.21C639.47,-229.86 647.33,-154.37 694,-118.64 736.3,-86.26 1120.37,-105.87 1173,-97.64 1175.52,-97.25 1178.08,-96.78 1180.66,-96.26"/>
<polygon fill="black" stroke="black" points="1181.28,-99.49 1190.26,-93.87 1179.74,-92.66 1181.28,-99.49"/>
<text text-anchor="middle" x="933.5" y="-127.64" font-family="Times New Roman,serif" font-size="30.00"> &#160;&#160;421 &#160;&#160;0% &#160;&#160;0.000653 mol/s &#160;&#160;&#160;9.99E&#45;01</text>
</g>
<!-- R17&#45;&gt;R86 -->
<g id="edge17" class="edge">
<title>R17&#45;&gt;R86</title>
<path fill="none" stroke="black" stroke-width="5" d="M640.99,-268.19C646.05,-214.72 661.41,-86.39 694,-60.64 834.28,50.16 1065.85,-18.27 1171.86,-58.92"/>
<polygon fill="black" stroke="black" stroke-width="5" points="1164.51,-65.39 1186.33,-64.61 1170.95,-49.12 1164.51,-65.39"/>
<text text-anchor="middle" x="933.5" y="-69.64" font-family="Times New Roman,serif" font-size="30.00"> &#160;&#160;472 &#160;&#160;99% &#160;&#160;0.576 mol/s &#160;&#160;&#160;1.13E&#45;03</text>
</g>
<!-- R46 -->
<g id="node5" class="node">
<title>R46</title>
<g id="a_node5"><a xlink:href="46.svg" xlink:title="R46">
<polygon fill="azure" stroke="none" points="85,-543.14 9,-543.14 9,-496.14 85,-496.14 85,-543.14"/>
<text text-anchor="middle" x="47" y="-511.14" font-family="Times New Roman,serif" font-size="35.00">R46</text>
</a>
</g>
</g>
<!-- R46&#45;&gt;R17 -->
<g id="edge4" class="edge">
<title>R46&#45;&gt;R17</title>
<path fill="none" stroke="black" d="M84.78,-530.95C179.23,-557.53 433.3,-613.1 582,-493.64 608.07,-472.7 625.08,-377.51 632.58,-325.62"/>
<polygon fill="black" stroke="black" points="636.16,-326.33 634.08,-315.94 629.22,-325.36 636.16,-326.33"/>
<text text-anchor="middle" x="342.5" y="-575.64" font-family="Times New Roman,serif" font-size="30.00"> &#160;&#160;155 &#160;&#160;0% &#160;&#160;0.000797 mol/s &#160;&#160;&#160;5.36E&#45;04</text>
</g>
<!-- R58 -->
<g id="node7" class="node">
<title>R58</title>
<g id="a_node7"><a xlink:href="58.svg" xlink:title="R58">
<polygon fill="azure" stroke="none" points="85,-478.14 9,-478.14 9,-431.14 85,-431.14 85,-478.14"/>
<text text-anchor="middle" x="47" y="-446.14" font-family="Times New Roman,serif" font-size="35.00">R58</text>
</a>
</g>
</g>
<!-- R58&#45;&gt;R17 -->
<g id="edge6" class="edge">
<title>R58&#45;&gt;R17</title>
<path fill="none" stroke="black" d="M84.73,-455.42C198.82,-457.52 541.79,-461.35 582,-432.64 616.29,-408.16 629.21,-359.01 634.07,-325.72"/>
<polygon fill="black" stroke="black" points="637.63,-326.45 635.43,-316.09 630.68,-325.57 637.63,-326.45"/>
<text text-anchor="middle" x="342.5" y="-465.64" font-family="Times New Roman,serif" font-size="30.00"> &#160;&#160;232 &#160;&#160;0% &#160;&#160;1.1e&#45;06 mol/s &#160;&#160;&#160;2.19E&#45;01</text>
</g>
<!-- R179 -->
<g id="node8" class="node">
<title>R179</title>
<g id="a_node8"><a xlink:href="179.svg" xlink:title="R179">
<polygon fill="azure" stroke="none" points="94,-413.14 0,-413.14 0,-366.14 94,-366.14 94,-413.14"/>
<text text-anchor="middle" x="47" y="-381.14" font-family="Times New Roman,serif" font-size="35.00">R179</text>
</a>
</g>
</g>
<!-- R179&#45;&gt;R17 -->
<g id="edge7" class="edge">
<title>R179&#45;&gt;R17</title>
<path fill="none" stroke="black" d="M93.91,-392.01C207.34,-397.1 497.74,-405.36 582,-361.64 597.98,-353.35 610.81,-338.11 620.04,-323.96"/>
<polygon fill="black" stroke="black" points="623.35,-326.27 625.58,-315.91 617.38,-322.61 623.35,-326.27"/>
<text text-anchor="middle" x="342.5" y="-404.64" font-family="Times New Roman,serif" font-size="30.00"> &#160;&#160;233 &#160;&#160;0% &#160;&#160;3.97e&#45;07 mol/s &#160;&#160;&#160;3.41E&#45;01</text>
</g>
<!-- R59 -->
<g id="node9" class="node">
<title>R59</title>
<g id="a_node9"><a xlink:href="59.svg" xlink:title="R59">
<polygon fill="azure" stroke="none" points="85,-348.14 9,-348.14 9,-301.14 85,-301.14 85,-348.14"/>
<text text-anchor="middle" x="47" y="-316.14" font-family="Times New Roman,serif" font-size="35.00">R59</text>
</a>
</g>
</g>
<!-- R59&#45;&gt;R17 -->
<g id="edge8" class="edge">
<title>R59&#45;&gt;R17</title>
<path fill="none" stroke="black" d="M84.74,-325.1C171.57,-325.75 396.13,-324.92 582,-302.64 584.4,-302.35 586.84,-302.02 589.31,-301.65"/>
<polygon fill="black" stroke="black" points="589.86,-304.94 599.15,-299.84 588.71,-298.03 589.86,-304.94"/>
<text text-anchor="middle" x="342.5" y="-333.64" font-family="Times New Roman,serif" font-size="30.00"> &#160;&#160;279 &#160;&#160;0% &#160;&#160;0.000511 mol/s &#160;&#160;&#160;8.35E&#45;04</text>
</g>
<!-- R229 -->
<g id="node11" class="node">
<title>R229</title>
<g id="a_node11"><a xlink:href="229.svg" xlink:title="R229">
<polygon fill="azure" stroke="none" points="94,-283.14 0,-283.14 0,-236.14 94,-236.14 94,-283.14"/>
<text text-anchor="middle" x="47" y="-251.14" font-family="Times New Roman,serif" font-size="35.00">R229</text>
</a>
</g>
</g>
<!-- R229&#45;&gt;R17 -->
<g id="edge10" class="edge">
<title>R229&#45;&gt;R17</title>
<path fill="none" stroke="black" d="M93.96,-255C187.15,-246.79 404.55,-233.74 582,-269.64 584.65,-270.18 587.33,-270.83 590.01,-271.58"/>
<polygon fill="black" stroke="black" points="588.69,-275.15 599.28,-274.85 590.82,-268.48 588.69,-275.15"/>
<text text-anchor="middle" x="342.5" y="-278.64" font-family="Times New Roman,serif" font-size="30.00"> &#160;&#160;300 &#160;&#160;0% &#160;&#160;0.00031 mol/s &#160;&#160;&#160;1.37E&#45;03</text>
</g>
<!-- R230 -->
<g id="node12" class="node">
<title>R230</title>
<g id="a_node12"><a xlink:href="230.svg" xlink:title="R230">
<polygon fill="azure" stroke="none" points="94,-218.14 0,-218.14 0,-171.14 94,-171.14 94,-218.14"/>
<text text-anchor="middle" x="47" y="-186.14" font-family="Times New Roman,serif" font-size="35.00">R230</text>
</a>
</g>
</g>
<!-- R230&#45;&gt;R17 -->
<g id="edge11" class="edge">
<title>R230&#45;&gt;R17</title>
<path fill="none" stroke="black" stroke-width="2" d="M93.65,-190.57C207.15,-181.26 498.95,-162.63 582,-208.64 601.43,-219.41 615.21,-240.27 624.12,-258.39"/>
<polygon fill="black" stroke="black" stroke-width="2" points="620.34,-258.74 627.69,-266.37 626.71,-255.82 620.34,-258.74"/>
<text text-anchor="middle" x="342.5" y="-217.64" font-family="Times New Roman,serif" font-size="30.00"> &#160;&#160;326 &#160;&#160;23% &#160;&#160;3.1 mol/s &#160;&#160;&#160;1.38E&#45;07</text>
</g>
<!-- R232 -->
<g id="node14" class="node">
<title>R232</title>
<g id="a_node14"><a xlink:href="232.svg" xlink:title="R232">
<polygon fill="azure" stroke="none" points="94,-153.14 0,-153.14 0,-106.14 94,-106.14 94,-153.14"/>
<text text-anchor="middle" x="47" y="-121.14" font-family="Times New Roman,serif" font-size="35.00">R232</text>
</a>
</g>
</g>
<!-- R232&#45;&gt;R17 -->
<g id="edge13" class="edge">
<title>R232&#45;&gt;R17</title>
<path fill="none" stroke="black" stroke-width="4" d="M93.93,-124.3C208.77,-111.91 504.69,-86.34 582,-141.64 615.75,-165.78 628.84,-212.93 633.88,-247.95"/>
<polygon fill="black" stroke="black" stroke-width="4" points="626.99,-243.26 636.14,-262.37 640.9,-241.72 626.99,-243.26"/>
<text text-anchor="middle" x="342.5" y="-150.64" font-family="Times New Roman,serif" font-size="30.00"> &#160;&#160;375 &#160;&#160;76% &#160;&#160;9.97 mol/s &#160;&#160;&#160;4.29E&#45;08</text>
</g>
<!-- R278 -->
<g id="node15" class="node">
<title>R278</title>
<g id="a_node15"><a xlink:href="278.svg" xlink:title="R278">
<polygon fill="azure" stroke="none" points="94,-88.14 0,-88.14 0,-41.14 94,-41.14 94,-88.14"/>
<text text-anchor="middle" x="47" y="-56.14" font-family="Times New Roman,serif" font-size="35.00">R278</text>
</a>
</g>
</g>
<!-- R278&#45;&gt;R17 -->
<g id="edge14" class="edge">
<title>R278&#45;&gt;R17</title>
<path fill="none" stroke="black" d="M93.72,-48.39C194.25,-15.84 437.05,44.88 582,-69.64 611.22,-92.73 627.15,-201.17 633.58,-257.49"/>
<polygon fill="black" stroke="black" points="630.2,-257.79 634.77,-267.34 637.15,-257.02 630.2,-257.79"/>
<text text-anchor="middle" x="342.5" y="-78.64" font-family="Times New Roman,serif" font-size="30.00"> &#160;&#160;376 &#160;&#160;0% &#160;&#160;4.52e&#45;06 mol/s &#160;&#160;&#160;7.95E&#45;02</text>
</g>
</g>
</svg>
