<?xml version="1.0" encoding="UTF-8" standalone="no"?>
<!DOCTYPE svg PUBLIC "-//W3C//DTD SVG 1.1//EN"
 "http://www.w3.org/Graphics/SVG/1.1/DTD/svg11.dtd">
<!-- Generated by graphviz version 8.0.3 (20230416.2022)
 -->
<!-- Title: G Pages: 1 -->
<svg width="640pt" height="161pt"
 viewBox="0.00 0.00 720.00 180.59" xmlns="http://www.w3.org/2000/svg" xmlns:xlink="http://www.w3.org/1999/xlink">
<g id="graph0" class="graph" transform="scale(0.47619 0.47619) rotate(0) translate(4 333.1)">
<title>G</title>
<polygon fill="white" stroke="none" points="-4,4 -4,-333.1 1340,-333.1 1340,4 -4,4"/>
<text text-anchor="middle" x="668" y="-296.3" font-family="Arial" font-size="36.00" fill="blue">Reaction Path Analysis</text>
<!-- R182 -->
<g id="node1" class="node">
<title>R182</title>
<g id="a_node1"><a xlink:href="182.svg" xlink:title="R182">
<polygon fill="azure" stroke="none" points="715,-151.6 621,-151.6 621,-104.6 715,-104.6 715,-151.6"/>
<text text-anchor="middle" x="668" y="-119.6" font-family="Times New Roman,serif" font-size="35.00">R182</text>
</a>
</g>
</g>
<!-- R26 -->
<g id="node2" class="node">
<title>R26</title>
<g id="a_node2"><a xlink:href="26.svg" xlink:title="R26">
<polygon fill="azure" stroke="none" points="1327,-249.6 1251,-249.6 1251,-202.6 1327,-202.6 1327,-249.6"/>
<text text-anchor="middle" x="1289" y="-217.6" font-family="Times New Roman,serif" font-size="35.00">R26</text>
</a>
</g>
</g>
<!-- R182&#45;&gt;R26 -->
<g id="edge1" class="edge">
<title>R182&#45;&gt;R26</title>
<path fill="none" stroke="black" stroke-width="5" d="M686.43,-151.49C699.81,-167.46 719.8,-187.41 742.5,-197.1 908.07,-267.78 1128.02,-249.59 1230.68,-235.46"/>
<polygon fill="black" stroke="black" stroke-width="5" points="1226.78,-243.99 1245.31,-232.45 1224.26,-226.67 1226.78,-243.99"/>
<text text-anchor="middle" x="978.5" y="-257.1" font-family="Times New Roman,serif" font-size="30.00"> &#160;&#160;240 &#160;&#160;99% &#160;&#160;0.135 mol/s &#160;&#160;&#160;3.18E&#45;06</text>
</g>
<!-- R2 -->
<g id="node3" class="node">
<title>R2</title>
<g id="a_node3"><a xlink:href="2.svg" xlink:title="R2">
<polygon fill="azure" stroke="none" points="1318,-184.6 1260,-184.6 1260,-137.6 1318,-137.6 1318,-184.6"/>
<text text-anchor="middle" x="1289" y="-152.6" font-family="Times New Roman,serif" font-size="35.00">R2</text>
</a>
</g>
</g>
<!-- R182&#45;&gt;R2 -->
<g id="edge2" class="edge">
<title>R182&#45;&gt;R2</title>
<path fill="none" stroke="black" stroke-width="5" d="M714.78,-135.73C723.94,-137.04 733.51,-138.25 742.5,-139.1 925.32,-156.41 1143.87,-160.12 1239.35,-160.9"/>
<polygon fill="black" stroke="black" stroke-width="5" points="1234.05,-169.65 1254.11,-161.04 1234.17,-152.15 1234.05,-169.65"/>
<text text-anchor="middle" x="978.5" y="-169.1" font-family="Times New Roman,serif" font-size="30.00"> &#160;&#160;240 &#160;&#160;99% &#160;&#160;0.135 mol/s &#160;&#160;&#160;3.18E&#45;06</text>
</g>
<!-- R0 -->
<g id="node4" class="node">
<title>R0</title>
<g id="a_node4"><a xlink:href="0.svg" xlink:title="R0">
<polygon fill="azure" stroke="none" points="1318,-119.6 1260,-119.6 1260,-72.6 1318,-72.6 1318,-119.6"/>
<text text-anchor="middle" x="1289" y="-87.6" font-family="Times New Roman,serif" font-size="35.00">R0</text>
</a>
</g>
</g>
<!-- R182&#45;&gt;R0 -->
<g id="edge3" class="edge">
<title>R182&#45;&gt;R0</title>
<path fill="none" stroke="black" d="M714.82,-112.3C723.89,-109.76 733.42,-107.51 742.5,-106.1 930.76,-76.76 1159.95,-87.35 1249.53,-93.24"/>
<polygon fill="black" stroke="black" points="1249.03,-96.78 1259.24,-93.96 1249.5,-89.8 1249.03,-96.78"/>
<text text-anchor="middle" x="978.5" y="-115.1" font-family="Times New Roman,serif" font-size="30.00"> &#160;&#160;486 &#160;&#160;0% &#160;&#160;1.91e&#45;06 mol/s &#160;&#160;&#160;1.55E&#45;01</text>
</g>
<!-- R119 -->
<g id="node5" class="node">
<title>R119</title>
<g id="a_node5"><a xlink:href="119.svg" xlink:title="R119">
<polygon fill="azure" stroke="none" points="1336,-54.6 1242,-54.6 1242,-7.6 1336,-7.6 1336,-54.6"/>
<text text-anchor="middle" x="1289" y="-22.6" font-family="Times New Roman,serif" font-size="35.00">R119</text>
</a>
</g>
</g>
<!-- R182&#45;&gt;R119 -->
<g id="edge4" class="edge">
<title>R182&#45;&gt;R119</title>
<path fill="none" stroke="black" d="M683.55,-104.6C696.49,-86.08 717.24,-61.53 742.5,-50.1 907.01,24.35 1128.86,-1.51 1231.53,-19.59"/>
<polygon fill="black" stroke="black" points="1230.81,-23.2 1241.27,-21.53 1232.06,-16.31 1230.81,-23.2"/>
<text text-anchor="middle" x="978.5" y="-59.1" font-family="Times New Roman,serif" font-size="30.00"> &#160;&#160;486 &#160;&#160;0% &#160;&#160;1.91e&#45;06 mol/s &#160;&#160;&#160;1.55E&#45;01</text>
</g>
<!-- R355 -->
<g id="node6" class="node">
<title>R355</title>
<g id="a_node6"><a xlink:href="355.svg" xlink:title="R355">
<polygon fill="azure" stroke="none" points="94,-151.6 0,-151.6 0,-104.6 94,-104.6 94,-151.6"/>
<text text-anchor="middle" x="47" y="-119.6" font-family="Times New Roman,serif" font-size="35.00">R355</text>
</a>
</g>
</g>
<!-- R355&#45;&gt;R182 -->
<g id="edge5" class="edge">
<title>R355&#45;&gt;R182</title>
<path fill="none" stroke="black" stroke-width="6" d="M93.77,-128.1C201.93,-128.1 473.71,-128.1 600.25,-128.1"/>
<polygon fill="black" stroke="black" stroke-width="6" points="595.05,-138.6 615.05,-128.1 595.05,-117.6 595.05,-138.6"/>
<text text-anchor="middle" x="357.5" y="-137.1" font-family="Times New Roman,serif" font-size="30.00"> &#160;&#160;594 &#160;&#160;100% &#160;&#160;0.000154 mol/s &#160;&#160;&#160;2.77E&#45;03</text>
</g>
</g>
</svg>
