<?xml version="1.0" encoding="UTF-8" standalone="no"?>
<!DOCTYPE svg PUBLIC "-//W3C//DTD SVG 1.1//EN"
 "http://www.w3.org/Graphics/SVG/1.1/DTD/svg11.dtd">
<!-- Generated by graphviz version 8.0.3 (20230416.2022)
 -->
<!-- Title: G Pages: 1 -->
<svg width="640pt" height="86pt"
 viewBox="0.00 0.00 720.00 96.74" xmlns="http://www.w3.org/2000/svg" xmlns:xlink="http://www.w3.org/1999/xlink">
<g id="graph0" class="graph" transform="scale(0.484481 0.484481) rotate(0) translate(4 173.5)">
<title>G</title>
<polygon fill="white" stroke="none" points="-4,4 -4,-173.5 1317,-173.5 1317,4 -4,4"/>
<text text-anchor="middle" x="656.5" y="-136.7" font-family="Arial" font-size="36.00" fill="blue">Reaction Path Analysis</text>
<!-- R187 -->
<g id="node1" class="node">
<title>R187</title>
<g id="a_node1"><a xlink:href="187.svg" xlink:title="R187">
<polygon fill="azure" stroke="none" points="708,-79 614,-79 614,-32 708,-32 708,-79"/>
<text text-anchor="middle" x="661" y="-47" font-family="Times New Roman,serif" font-size="35.00">R187</text>
</a>
</g>
</g>
<!-- R30 -->
<g id="node2" class="node">
<title>R30</title>
<g id="a_node2"><a xlink:href="30.svg" xlink:title="R30">
<polygon fill="azure" stroke="none" points="1313,-112 1237,-112 1237,-65 1313,-65 1313,-112"/>
<text text-anchor="middle" x="1275" y="-80" font-family="Times New Roman,serif" font-size="35.00">R30</text>
</a>
</g>
</g>
<!-- R187&#45;&gt;R30 -->
<g id="edge1" class="edge">
<title>R187&#45;&gt;R30</title>
<path fill="none" stroke="black" stroke-width="6" d="M707.83,-65.23C710.92,-65.71 714,-66.14 717,-66.5 898.14,-88.05 1114.51,-89.79 1216.02,-89.21"/>
<polygon fill="black" stroke="black" stroke-width="6" points="1211.1,-99.71 1231.02,-89.05 1210.94,-78.71 1211.1,-99.71"/>
<text text-anchor="middle" x="968" y="-97.5" font-family="Times New Roman,serif" font-size="30.00"> &#160;&#160;248 &#160;&#160;100% &#160;&#160;7.88e&#45;06 mol/s &#160;&#160;&#160;4.89E&#45;02</text>
</g>
<!-- R2 -->
<g id="node3" class="node">
<title>R2</title>
<g id="a_node3"><a xlink:href="2.svg" xlink:title="R2">
<polygon fill="azure" stroke="none" points="1304,-47 1246,-47 1246,0 1304,0 1304,-47"/>
<text text-anchor="middle" x="1275" y="-15" font-family="Times New Roman,serif" font-size="35.00">R2</text>
</a>
</g>
</g>
<!-- R187&#45;&gt;R2 -->
<g id="edge2" class="edge">
<title>R187&#45;&gt;R2</title>
<path fill="none" stroke="black" stroke-width="6" d="M707.84,-35.76C710.91,-34.88 713.98,-34.11 717,-33.5 901.73,3.8 1127.93,-9.89 1225.46,-18.55"/>
<polygon fill="black" stroke="black" stroke-width="6" points="1219.2,-29.08 1240.09,-20.49 1221.16,-8.17 1219.2,-29.08"/>
<text text-anchor="middle" x="968" y="-42.5" font-family="Times New Roman,serif" font-size="30.00"> &#160;&#160;248 &#160;&#160;100% &#160;&#160;7.88e&#45;06 mol/s &#160;&#160;&#160;4.89E&#45;02</text>
</g>
<!-- R0 -->
<g id="node4" class="node">
<title>R0</title>
<g id="a_node4"><a xlink:href="0.svg" xlink:title="R0">
<polygon fill="azure" stroke="none" points="76,-112 18,-112 18,-65 76,-65 76,-112"/>
<text text-anchor="middle" x="47" y="-80" font-family="Times New Roman,serif" font-size="35.00">R0</text>
</a>
</g>
</g>
<!-- R0&#45;&gt;R187 -->
<g id="edge3" class="edge">
<title>R0&#45;&gt;R187</title>
<path fill="none" stroke="black" stroke-width="6" d="M75.94,-88.95C154.99,-89.9 387.3,-90.48 593.36,-67.63"/>
<polygon fill="black" stroke="black" stroke-width="6" points="589.51,-77.95 608.17,-65.23 587.1,-57.09 589.51,-77.95"/>
<text text-anchor="middle" x="354" y="-97.5" font-family="Times New Roman,serif" font-size="30.00"> &#160;&#160;490 &#160;&#160;100% &#160;&#160;4.21e&#45;07 mol/s &#160;&#160;&#160;9.84E&#45;01</text>
</g>
<!-- R125 -->
<g id="node5" class="node">
<title>R125</title>
<g id="a_node5"><a xlink:href="125.svg" xlink:title="R125">
<polygon fill="azure" stroke="none" points="94,-47 0,-47 0,0 94,0 94,-47"/>
<text text-anchor="middle" x="47" y="-15" font-family="Times New Roman,serif" font-size="35.00">R125</text>
</a>
</g>
</g>
<!-- R125&#45;&gt;R187 -->
<g id="edge4" class="edge">
<title>R125&#45;&gt;R187</title>
<path fill="none" stroke="black" stroke-width="6" d="M93.72,-18.81C186.33,-10.46 402.77,3.17 593.7,-31.8"/>
<polygon fill="black" stroke="black" stroke-width="6" points="586.53,-41.27 608.16,-34.76 590.52,-20.66 586.53,-41.27"/>
<text text-anchor="middle" x="354" y="-42.5" font-family="Times New Roman,serif" font-size="30.00"> &#160;&#160;490 &#160;&#160;100% &#160;&#160;4.21e&#45;07 mol/s &#160;&#160;&#160;9.84E&#45;01</text>
</g>
</g>
</svg>
