<?xml version="1.0" encoding="UTF-8" standalone="no"?>
<!DOCTYPE svg PUBLIC "-//W3C//DTD SVG 1.1//EN"
 "http://www.w3.org/Graphics/SVG/1.1/DTD/svg11.dtd">
<!-- Generated by graphviz version 8.0.3 (20230416.2022)
 -->
<!-- Title: G Pages: 1 -->
<svg width="640pt" height="229pt"
 viewBox="0.00 0.00 720.00 257.36" xmlns="http://www.w3.org/2000/svg" xmlns:xlink="http://www.w3.org/1999/xlink">
<g id="graph0" class="graph" transform="scale(0.498442 0.498442) rotate(0) translate(4 454.96)">
<title>G</title>
<polygon fill="white" stroke="none" points="-4,4 -4,-454.96 1280,-454.96 1280,4 -4,4"/>
<text text-anchor="middle" x="638" y="-418.16" font-family="Arial" font-size="36.00" fill="blue">Reaction Path Analysis</text>
<!-- R19 -->
<g id="node1" class="node">
<title>R19</title>
<g id="a_node1"><a xlink:href="19.svg" xlink:title="R19">
<polygon fill="azure" stroke="none" points="676,-221.46 600,-221.46 600,-174.46 676,-174.46 676,-221.46"/>
<text text-anchor="middle" x="638" y="-189.46" font-family="Times New Roman,serif" font-size="35.00">R19</text>
</a>
</g>
</g>
<!-- R6 -->
<g id="node2" class="node">
<title>R6</title>
<g id="a_node2"><a xlink:href="6.svg" xlink:title="R6">
<polygon fill="azure" stroke="none" points="1258,-379.46 1200,-379.46 1200,-332.46 1258,-332.46 1258,-379.46"/>
<text text-anchor="middle" x="1229" y="-347.46" font-family="Times New Roman,serif" font-size="35.00">R6</text>
</a>
</g>
</g>
<!-- R19&#45;&gt;R6 -->
<g id="edge1" class="edge">
<title>R19&#45;&gt;R6</title>
<path fill="none" stroke="green" d="M641.12,-221.31C645.31,-252.4 657.7,-306.42 694,-331.96 773.54,-387.92 1080.75,-368.34 1189.54,-359.4"/>
<polygon fill="green" stroke="green" points="1189.66,-362.82 1199.33,-358.49 1189.07,-355.84 1189.66,-362.82"/>
<text text-anchor="middle" x="933.5" y="-378.96" font-family="Times New Roman,serif" font-size="30.00"> &#160;&#160;23 &#160;&#160;0% &#160;&#160;6.38e&#45;08 mol/s &#160;&#160;&#160;4.65E&#45;01</text>
</g>
<!-- R1 -->
<g id="node3" class="node">
<title>R1</title>
<g id="a_node3"><a xlink:href="1.svg" xlink:title="R1">
<polygon fill="azure" stroke="none" points="1258,-314.46 1200,-314.46 1200,-267.46 1258,-267.46 1258,-314.46"/>
<text text-anchor="middle" x="1229" y="-282.46" font-family="Times New Roman,serif" font-size="35.00">R1</text>
</a>
</g>
</g>
<!-- R19&#45;&gt;R1 -->
<g id="edge2" class="edge">
<title>R19&#45;&gt;R1</title>
<path fill="none" stroke="green" d="M652.66,-221.43C662.27,-235.56 676.52,-252.42 694,-260.96 781.13,-303.55 1081.61,-296.61 1189.25,-292.61"/>
<polygon fill="green" stroke="green" points="1189.38,-296.07 1199.23,-292.19 1189.11,-289.08 1189.38,-296.07"/>
<text text-anchor="middle" x="933.5" y="-303.96" font-family="Times New Roman,serif" font-size="30.00"> &#160;&#160;23 &#160;&#160;0% &#160;&#160;6.38e&#45;08 mol/s &#160;&#160;&#160;4.65E&#45;01</text>
</g>
<!-- R34 -->
<g id="node4" class="node">
<title>R34</title>
<g id="a_node4"><a xlink:href="34.svg" xlink:title="R34">
<polygon fill="azure" stroke="none" points="1267,-249.46 1191,-249.46 1191,-202.46 1267,-202.46 1267,-249.46"/>
<text text-anchor="middle" x="1229" y="-217.46" font-family="Times New Roman,serif" font-size="35.00">R34</text>
</a>
</g>
</g>
<!-- R19&#45;&gt;R34 -->
<g id="edge3" class="edge">
<title>R19&#45;&gt;R34</title>
<path fill="none" stroke="black" d="M675.95,-202.34C681.98,-202.95 688.16,-203.52 694,-203.96 873.16,-217.41 1086.79,-223.1 1180.26,-225.07"/>
<polygon fill="black" stroke="black" points="1179.98,-228.59 1190.05,-225.3 1180.12,-221.59 1179.98,-228.59"/>
<text text-anchor="middle" x="933.5" y="-232.96" font-family="Times New Roman,serif" font-size="30.00"> &#160;&#160;106 &#160;&#160;0% &#160;&#160;4.28e&#45;07 mol/s &#160;&#160;&#160;1.00E+00</text>
</g>
<!-- R245 -->
<g id="node10" class="node">
<title>R245</title>
<g id="a_node10"><a xlink:href="245.svg" xlink:title="R245">
<polygon fill="azure" stroke="none" points="1276,-184.46 1182,-184.46 1182,-137.46 1276,-137.46 1276,-184.46"/>
<text text-anchor="middle" x="1229" y="-152.46" font-family="Times New Roman,serif" font-size="35.00">R245</text>
</a>
</g>
</g>
<!-- R19&#45;&gt;R245 -->
<g id="edge9" class="edge">
<title>R19&#45;&gt;R245</title>
<path fill="none" stroke="black" d="M674.58,-174.57C680.83,-171.45 687.44,-168.72 694,-166.96 782.57,-143.19 1053.13,-152.57 1171.52,-158.07"/>
<polygon fill="black" stroke="black" points="1171,-161.59 1181.16,-158.57 1171.33,-154.6 1171,-161.59"/>
<text text-anchor="middle" x="933.5" y="-175.96" font-family="Times New Roman,serif" font-size="30.00"> &#160;&#160;331 &#160;&#160;0% &#160;&#160;1.04e&#45;07 mol/s &#160;&#160;&#160;5.69E&#45;01</text>
</g>
<!-- R53 -->
<g id="node11" class="node">
<title>R53</title>
<g id="a_node11"><a xlink:href="53.svg" xlink:title="R53">
<polygon fill="azure" stroke="none" points="1267,-100.46 1191,-100.46 1191,-53.46 1267,-53.46 1267,-100.46"/>
<text text-anchor="middle" x="1229" y="-68.46" font-family="Times New Roman,serif" font-size="35.00">R53</text>
</a>
</g>
</g>
<!-- R19&#45;&gt;R53 -->
<g id="edge10" class="edge">
<title>R19&#45;&gt;R53</title>
<path fill="none" stroke="black" d="M647.3,-174.53C655.71,-154.6 670.84,-127.18 694,-113.96 740.28,-87.56 1120.37,-100.24 1173,-91.96 1175.52,-91.56 1178.08,-91.1 1180.66,-90.57"/>
<polygon fill="black" stroke="black" points="1181.28,-93.8 1190.26,-88.18 1179.74,-86.97 1181.28,-93.8"/>
<text text-anchor="middle" x="933.5" y="-122.96" font-family="Times New Roman,serif" font-size="30.00"> &#160;&#160;423 &#160;&#160;0% &#160;&#160;0.000651 mol/s &#160;&#160;&#160;9.95E&#45;01</text>
</g>
<!-- R19&#45;&gt;R53 -->
<g id="edge11" class="edge">
<title>R19&#45;&gt;R53</title>
<path fill="none" stroke="black" stroke-width="5" d="M640.26,-174.52C643.44,-141.42 654.64,-81.99 694,-54.96 840.66,45.77 1067.22,-16.74 1171.69,-54.47"/>
<polygon fill="black" stroke="black" stroke-width="5" points="1164.4,-60.95 1186.19,-59.74 1170.51,-44.55 1164.4,-60.95"/>
<text text-anchor="middle" x="933.5" y="-63.96" font-family="Times New Roman,serif" font-size="30.00"> &#160;&#160;440 &#160;&#160;99% &#160;&#160;0.141 mol/s &#160;&#160;&#160;4.60E&#45;03</text>
</g>
<!-- R48 -->
<g id="node5" class="node">
<title>R48</title>
<g id="a_node5"><a xlink:href="48.svg" xlink:title="R48">
<polygon fill="azure" stroke="none" points="85,-351.46 9,-351.46 9,-304.46 85,-304.46 85,-351.46"/>
<text text-anchor="middle" x="47" y="-319.46" font-family="Times New Roman,serif" font-size="35.00">R48</text>
</a>
</g>
</g>
<!-- R48&#45;&gt;R19 -->
<g id="edge4" class="edge">
<title>R48&#45;&gt;R19</title>
<path fill="none" stroke="black" d="M84.94,-337.16C176.52,-357.78 418.24,-398.53 578.5,-299.96 603.23,-284.75 618.54,-254.96 627.26,-231.48"/>
<polygon fill="black" stroke="black" points="630.85,-232.81 630.81,-222.22 624.23,-230.52 630.85,-232.81"/>
<text text-anchor="middle" x="342.5" y="-371.96" font-family="Times New Roman,serif" font-size="30.00"> &#160;&#160;159 &#160;&#160;0% &#160;&#160;2.88e&#45;05 mol/s &#160;&#160;&#160;1.44E&#45;02</text>
</g>
<!-- R113 -->
<g id="node6" class="node">
<title>R113</title>
<g id="a_node6"><a xlink:href="113.svg" xlink:title="R113">
<polygon fill="azure" stroke="none" points="94,-286.46 0,-286.46 0,-239.46 94,-239.46 94,-286.46"/>
<text text-anchor="middle" x="47" y="-254.46" font-family="Times New Roman,serif" font-size="35.00">R113</text>
</a>
</g>
</g>
<!-- R113&#45;&gt;R19 -->
<g id="edge5" class="edge">
<title>R113&#45;&gt;R19</title>
<path fill="none" stroke="black" d="M93.68,-263.5C205.21,-264.34 488.86,-263.51 578.5,-234.96 584.89,-232.93 591.27,-230.02 597.34,-226.72"/>
<polygon fill="black" stroke="black" points="598.75,-229.37 605.59,-221.28 595.2,-223.33 598.75,-229.37"/>
<text text-anchor="middle" x="342.5" y="-271.96" font-family="Times New Roman,serif" font-size="30.00"> &#160;&#160;160 &#160;&#160;0% &#160;&#160;0.232 mol/s &#160;&#160;&#160;1.85E&#45;06</text>
</g>
<!-- R67 -->
<g id="node7" class="node">
<title>R67</title>
<g id="a_node7"><a xlink:href="67.svg" xlink:title="R67">
<polygon fill="azure" stroke="none" points="85,-221.46 9,-221.46 9,-174.46 85,-174.46 85,-221.46"/>
<text text-anchor="middle" x="47" y="-189.46" font-family="Times New Roman,serif" font-size="35.00">R67</text>
</a>
</g>
</g>
<!-- R67&#45;&gt;R19 -->
<g id="edge6" class="edge">
<title>R67&#45;&gt;R19</title>
<path fill="none" stroke="black" d="M84.84,-197.96C187.21,-197.96 475.04,-197.96 589.34,-197.96"/>
<polygon fill="black" stroke="black" points="589.17,-201.46 599.17,-197.96 589.17,-194.46 589.17,-201.46"/>
<text text-anchor="middle" x="342.5" y="-206.96" font-family="Times New Roman,serif" font-size="30.00"> &#160;&#160;236 &#160;&#160;0% &#160;&#160;0.124 mol/s &#160;&#160;&#160;3.46E&#45;06</text>
</g>
<!-- R181 -->
<g id="node8" class="node">
<title>R181</title>
<g id="a_node8"><a xlink:href="181.svg" xlink:title="R181">
<polygon fill="azure" stroke="none" points="94,-156.46 0,-156.46 0,-109.46 94,-109.46 94,-156.46"/>
<text text-anchor="middle" x="47" y="-124.46" font-family="Times New Roman,serif" font-size="35.00">R181</text>
</a>
</g>
</g>
<!-- R181&#45;&gt;R19 -->
<g id="edge7" class="edge">
<title>R181&#45;&gt;R19</title>
<path fill="none" stroke="black" d="M93.74,-127.78C187.35,-118.8 406.48,-106.17 578.5,-160.96 584.89,-162.99 591.27,-165.9 597.34,-169.2"/>
<polygon fill="black" stroke="black" points="595.2,-172.59 605.59,-174.64 598.75,-166.55 595.2,-172.59"/>
<text text-anchor="middle" x="342.5" y="-169.96" font-family="Times New Roman,serif" font-size="30.00"> &#160;&#160;237 &#160;&#160;0% &#160;&#160;0.00201 mol/s &#160;&#160;&#160;2.13E&#45;04</text>
</g>
<!-- R239 -->
<g id="node9" class="node">
<title>R239</title>
<g id="a_node9"><a xlink:href="239.svg" xlink:title="R239">
<polygon fill="azure" stroke="none" points="94,-91.46 0,-91.46 0,-44.46 94,-44.46 94,-91.46"/>
<text text-anchor="middle" x="47" y="-59.46" font-family="Times New Roman,serif" font-size="35.00">R239</text>
</a>
</g>
</g>
<!-- R239&#45;&gt;R19 -->
<g id="edge8" class="edge">
<title>R239&#45;&gt;R19</title>
<path fill="none" stroke="black" stroke-width="5" d="M94,-54.65C191.93,-29.21 424.63,15.6 578.5,-81.96 603.95,-98.09 618.77,-128.98 627.12,-154.83"/>
<polygon fill="black" stroke="black" stroke-width="5" points="617.92,-151.99 631.71,-168.92 634.78,-147.3 617.92,-151.99"/>
<text text-anchor="middle" x="342.5" y="-90.96" font-family="Times New Roman,serif" font-size="30.00"> &#160;&#160;330 &#160;&#160;99% &#160;&#160;52.8 mol/s &#160;&#160;&#160;8.10E&#45;09</text>
</g>
</g>
</svg>
