<?xml version="1.0" encoding="UTF-8" standalone="no"?>
<!DOCTYPE svg PUBLIC "-//W3C//DTD SVG 1.1//EN"
 "http://www.w3.org/Graphics/SVG/1.1/DTD/svg11.dtd">
<!-- Generated by graphviz version 8.0.3 (20230416.2022)
 -->
<!-- Title: G Pages: 1 -->
<svg width="616pt" height="315pt"
 viewBox="0.00 0.00 693.00 354.19" xmlns="http://www.w3.org/2000/svg" xmlns:xlink="http://www.w3.org/1999/xlink">
<g id="graph0" class="graph" transform="scale(0.888889 0.888889) rotate(0) translate(4 350.19)">
<title>G</title>
<polygon fill="white" stroke="none" points="-4,4 -4,-350.19 689,-350.19 689,4 -4,4"/>
<text text-anchor="middle" x="342.5" y="-313.39" font-family="Arial" font-size="36.00" fill="blue">Reaction Path Analysis</text>
<!-- R196 -->
<g id="node1" class="node">
<title>R196</title>
<g id="a_node1"><a xlink:href="196.svg" xlink:title="R196">
<polygon fill="azure" stroke="none" points="94,-161.69 0,-161.69 0,-114.69 94,-114.69 94,-161.69"/>
<text text-anchor="middle" x="47" y="-129.69" font-family="Times New Roman,serif" font-size="35.00">R196</text>
</a>
</g>
</g>
<!-- R44 -->
<g id="node2" class="node">
<title>R44</title>
<g id="a_node2"><a xlink:href="44.svg" xlink:title="R44">
<polygon fill="azure" stroke="none" points="676,-259.69 600,-259.69 600,-212.69 676,-212.69 676,-259.69"/>
<text text-anchor="middle" x="638" y="-227.69" font-family="Times New Roman,serif" font-size="35.00">R44</text>
</a>
</g>
</g>
<!-- R196&#45;&gt;R44 -->
<g id="edge1" class="edge">
<title>R196&#45;&gt;R44</title>
<path fill="none" stroke="black" stroke-width="5" d="M59.42,-161.45C68.73,-177.65 83.52,-198.08 103,-208.19 259.42,-289.34 477.47,-265.54 579.75,-247.81"/>
<polygon fill="black" stroke="black" stroke-width="5" points="576.23,-257.25 594.33,-245.05 573.08,-240.04 576.23,-257.25"/>
<text text-anchor="middle" x="342.5" y="-274.19" font-family="Times New Roman,serif" font-size="30.00"> &#160;&#160;257 &#160;&#160;99% &#160;&#160;13000.0 mol/s &#160;&#160;&#160;3.28E&#45;11</text>
</g>
<!-- R2 -->
<g id="node3" class="node">
<title>R2</title>
<g id="a_node3"><a xlink:href="2.svg" xlink:title="R2">
<polygon fill="azure" stroke="none" points="667,-194.69 609,-194.69 609,-147.69 667,-147.69 667,-194.69"/>
<text text-anchor="middle" x="638" y="-162.69" font-family="Times New Roman,serif" font-size="35.00">R2</text>
</a>
</g>
</g>
<!-- R196&#45;&gt;R2 -->
<g id="edge2" class="edge">
<title>R196&#45;&gt;R2</title>
<path fill="none" stroke="black" stroke-width="5" d="M93.83,-147.91C96.92,-148.39 100,-148.83 103,-149.19 280.88,-170.51 494.2,-172.18 588.32,-171.72"/>
<polygon fill="black" stroke="black" stroke-width="5" points="583.14,-180.46 603.08,-171.57 583.02,-162.96 583.14,-180.46"/>
<text text-anchor="middle" x="342.5" y="-180.19" font-family="Times New Roman,serif" font-size="30.00"> &#160;&#160;257 &#160;&#160;99% &#160;&#160;13000.0 mol/s &#160;&#160;&#160;3.28E&#45;11</text>
</g>
<!-- R0 -->
<g id="node4" class="node">
<title>R0</title>
<g id="a_node4"><a xlink:href="0.svg" xlink:title="R0">
<polygon fill="azure" stroke="none" points="667,-129.69 609,-129.69 609,-82.69 667,-82.69 667,-129.69"/>
<text text-anchor="middle" x="638" y="-97.69" font-family="Times New Roman,serif" font-size="35.00">R0</text>
</a>
</g>
</g>
<!-- R196&#45;&gt;R0 -->
<g id="edge3" class="edge">
<title>R196&#45;&gt;R0</title>
<path fill="none" stroke="black" d="M93.84,-118.45C96.91,-117.57 99.98,-116.8 103,-116.19 285.19,-79.33 509.49,-94.06 598.23,-102.19"/>
<polygon fill="black" stroke="black" points="597.82,-105.76 608.11,-103.22 598.48,-98.79 597.82,-105.76"/>
<text text-anchor="middle" x="342.5" y="-125.19" font-family="Times New Roman,serif" font-size="30.00"> &#160;&#160;497 &#160;&#160;0% &#160;&#160;0.000102 mol/s &#160;&#160;&#160;4.15E&#45;03</text>
</g>
<!-- R137 -->
<g id="node5" class="node">
<title>R137</title>
<g id="a_node5"><a xlink:href="137.svg" xlink:title="R137">
<polygon fill="azure" stroke="none" points="685,-64.69 591,-64.69 591,-17.69 685,-17.69 685,-64.69"/>
<text text-anchor="middle" x="638" y="-32.69" font-family="Times New Roman,serif" font-size="35.00">R137</text>
</a>
</g>
</g>
<!-- R196&#45;&gt;R137 -->
<g id="edge4" class="edge">
<title>R196&#45;&gt;R137</title>
<path fill="none" stroke="black" d="M56.31,-114.91C64.74,-95.15 79.86,-68 103,-55.19 257.74,30.54 478.36,-3.71 580.77,-26.74"/>
<polygon fill="black" stroke="black" points="579.66,-30.31 590.19,-29.14 581.23,-23.49 579.66,-30.31"/>
<text text-anchor="middle" x="342.5" y="-64.19" font-family="Times New Roman,serif" font-size="30.00"> &#160;&#160;497 &#160;&#160;0% &#160;&#160;0.000102 mol/s &#160;&#160;&#160;4.15E&#45;03</text>
</g>
</g>
</svg>
