<?xml version="1.0" encoding="UTF-8" standalone="no"?>
<!DOCTYPE svg PUBLIC "-//W3C//DTD SVG 1.1//EN"
 "http://www.w3.org/Graphics/SVG/1.1/DTD/svg11.dtd">
<!-- Generated by graphviz version 8.0.3 (20230416.2022)
 -->
<!-- Title: G Pages: 1 -->
<svg width="640pt" height="167pt"
 viewBox="0.00 0.00 720.00 187.48" xmlns="http://www.w3.org/2000/svg" xmlns:xlink="http://www.w3.org/1999/xlink">
<g id="graph0" class="graph" transform="scale(0.484481 0.484481) rotate(0) translate(4 339.97)">
<title>G</title>
<polygon fill="white" stroke="none" points="-4,4 -4,-339.97 1317,-339.97 1317,4 -4,4"/>
<text text-anchor="middle" x="656.5" y="-303.17" font-family="Arial" font-size="36.00" fill="blue">Reaction Path Analysis</text>
<!-- R198 -->
<g id="node1" class="node">
<title>R198</title>
<g id="a_node1"><a xlink:href="198.svg" xlink:title="R198">
<polygon fill="azure" stroke="none" points="708,-163.47 614,-163.47 614,-116.47 708,-116.47 708,-163.47"/>
<text text-anchor="middle" x="661" y="-131.47" font-family="Times New Roman,serif" font-size="35.00">R198</text>
</a>
</g>
</g>
<!-- R2 -->
<g id="node2" class="node">
<title>R2</title>
<g id="a_node2"><a xlink:href="2.svg" xlink:title="R2">
<polygon fill="azure" stroke="none" points="1304,-196.47 1246,-196.47 1246,-149.47 1304,-149.47 1304,-196.47"/>
<text text-anchor="middle" x="1275" y="-164.47" font-family="Times New Roman,serif" font-size="35.00">R2</text>
</a>
</g>
</g>
<!-- R198&#45;&gt;R2 -->
<g id="edge1" class="edge">
<title>R198&#45;&gt;R2</title>
<path fill="none" stroke="green" stroke-width="6" d="M707.83,-149.69C710.92,-150.18 714,-150.61 717,-150.97 903.83,-173.2 1128.13,-174.35 1225.24,-173.62"/>
<polygon fill="green" stroke="green" stroke-width="6" points="1220.16,-184.11 1240.06,-173.42 1219.96,-163.11 1220.16,-184.11"/>
<text text-anchor="middle" x="968" y="-181.97" font-family="Times New Roman,serif" font-size="30.00"> &#160;&#160;259 &#160;&#160;100% &#160;&#160;4.69e&#45;08 mol/s &#160;&#160;&#160;4.74E&#45;01</text>
</g>
<!-- R53 -->
<g id="node3" class="node">
<title>R53</title>
<g id="a_node3"><a xlink:href="53.svg" xlink:title="R53">
<polygon fill="azure" stroke="none" points="1313,-131.47 1237,-131.47 1237,-84.47 1313,-84.47 1313,-131.47"/>
<text text-anchor="middle" x="1275" y="-99.47" font-family="Times New Roman,serif" font-size="35.00">R53</text>
</a>
</g>
</g>
<!-- R198&#45;&gt;R53 -->
<g id="edge2" class="edge">
<title>R198&#45;&gt;R53</title>
<path fill="none" stroke="green" stroke-width="6" d="M707.84,-120.23C710.91,-119.35 713.98,-118.58 717,-117.97 896.11,-81.8 1114.21,-93.57 1216.21,-102.22"/>
<polygon fill="green" stroke="green" stroke-width="6" points="1210.15,-112.75 1231.01,-104.08 1212.02,-91.84 1210.15,-112.75"/>
<text text-anchor="middle" x="968" y="-126.97" font-family="Times New Roman,serif" font-size="30.00"> &#160;&#160;259 &#160;&#160;100% &#160;&#160;4.69e&#45;08 mol/s &#160;&#160;&#160;4.74E&#45;01</text>
</g>
<!-- R3 -->
<g id="node4" class="node">
<title>R3</title>
<g id="a_node4"><a xlink:href="3.svg" xlink:title="R3">
<polygon fill="azure" stroke="none" points="76,-256.47 18,-256.47 18,-209.47 76,-209.47 76,-256.47"/>
<text text-anchor="middle" x="47" y="-224.47" font-family="Times New Roman,serif" font-size="35.00">R3</text>
</a>
</g>
</g>
<!-- R3&#45;&gt;R198 -->
<g id="edge3" class="edge">
<title>R3&#45;&gt;R198</title>
<path fill="none" stroke="black" d="M75.9,-237.9C158.9,-251.25 409.91,-282.03 593.5,-202.97 609.68,-196 624.3,-183.27 635.69,-171.07"/>
<polygon fill="black" stroke="black" points="637.66,-173.99 641.69,-164.19 632.43,-169.34 637.66,-173.99"/>
<text text-anchor="middle" x="354" y="-263.97" font-family="Times New Roman,serif" font-size="30.00"> &#160;&#160;292 &#160;&#160;0% &#160;&#160;1.58e&#45;07 mol/s &#160;&#160;&#160;6.13E&#45;01</text>
</g>
<!-- R41 -->
<g id="node5" class="node">
<title>R41</title>
<g id="a_node5"><a xlink:href="41.svg" xlink:title="R41">
<polygon fill="azure" stroke="none" points="85,-191.47 9,-191.47 9,-144.47 85,-144.47 85,-191.47"/>
<text text-anchor="middle" x="47" y="-159.47" font-family="Times New Roman,serif" font-size="35.00">R41</text>
</a>
</g>
</g>
<!-- R41&#45;&gt;R198 -->
<g id="edge4" class="edge">
<title>R41&#45;&gt;R198</title>
<path fill="none" stroke="black" d="M84.75,-167.11C172.69,-164.94 402.21,-158.45 593.5,-145.97 596.75,-145.75 600.09,-145.52 603.45,-145.26"/>
<polygon fill="black" stroke="black" points="603.55,-148.69 613.23,-144.4 602.99,-141.71 603.55,-148.69"/>
<text text-anchor="middle" x="354" y="-174.97" font-family="Times New Roman,serif" font-size="30.00"> &#160;&#160;292 &#160;&#160;0% &#160;&#160;1.58e&#45;07 mol/s &#160;&#160;&#160;6.13E&#45;01</text>
</g>
<!-- R159 -->
<g id="node6" class="node">
<title>R159</title>
<g id="a_node6"><a xlink:href="159.svg" xlink:title="R159">
<polygon fill="azure" stroke="none" points="94,-103.47 0,-103.47 0,-56.47 94,-56.47 94,-103.47"/>
<text text-anchor="middle" x="47" y="-71.47" font-family="Times New Roman,serif" font-size="35.00">R159</text>
</a>
</g>
</g>
<!-- R159&#45;&gt;R198 -->
<g id="edge5" class="edge">
<title>R159&#45;&gt;R198</title>
<path fill="none" stroke="black" d="M93.71,-87.51C100.66,-88.47 107.76,-89.33 114.5,-89.97 220.55,-100.01 489.97,-83.86 593.5,-108.97 597.63,-109.97 601.81,-111.23 605.96,-112.68"/>
<polygon fill="black" stroke="black" points="604.58,-116.28 615.17,-116.6 607.09,-109.75 604.58,-116.28"/>
<text text-anchor="middle" x="354" y="-117.97" font-family="Times New Roman,serif" font-size="30.00"> &#160;&#160;682 &#160;&#160;3% &#160;&#160;0.000632 mol/s &#160;&#160;&#160;9.67E&#45;01</text>
</g>
<!-- R159&#45;&gt;R198 -->
<g id="edge6" class="edge">
<title>R159&#45;&gt;R198</title>
<path fill="none" stroke="black" stroke-width="5" d="M93.81,-58.73C100.62,-56.35 107.65,-54.3 114.5,-52.97 323.44,-12.17 402.65,41.37 593.5,-52.97 613.02,-62.62 628.39,-81.05 639.41,-98.48"/>
<polygon fill="black" stroke="black" stroke-width="5" points="629.17,-98.45 646.66,-111.53 644.39,-89.82 629.17,-98.45"/>
<text text-anchor="middle" x="354" y="-61.97" font-family="Times New Roman,serif" font-size="30.00"> &#160;&#160;696 &#160;&#160;96% &#160;&#160;0.0187 mol/s &#160;&#160;&#160;3.27E&#45;02</text>
</g>
</g>
</svg>
