<?xml version="1.0" encoding="UTF-8" standalone="no"?>
<!DOCTYPE svg PUBLIC "-//W3C//DTD SVG 1.1//EN"
 "http://www.w3.org/Graphics/SVG/1.1/DTD/svg11.dtd">
<!-- Generated by graphviz version 8.0.3 (20230416.2022)
 -->
<!-- Title: G Pages: 1 -->
<svg width="640pt" height="181pt"
 viewBox="0.00 0.00 720.00 204.00" xmlns="http://www.w3.org/2000/svg" xmlns:xlink="http://www.w3.org/1999/xlink">
<g id="graph0" class="graph" transform="scale(0.487062 0.487062) rotate(0) translate(4 368.3)">
<title>G</title>
<polygon fill="white" stroke="none" points="-4,4 -4,-368.3 1310,-368.3 1310,4 -4,4"/>
<text text-anchor="middle" x="653" y="-331.5" font-family="Arial" font-size="36.00" fill="blue">Reaction Path Analysis</text>
<!-- R20 -->
<g id="node1" class="node">
<title>R20</title>
<g id="a_node1"><a xlink:href="20.svg" xlink:title="R20">
<polygon fill="azure" stroke="none" points="691,-170.8 615,-170.8 615,-123.8 691,-123.8 691,-170.8"/>
<text text-anchor="middle" x="653" y="-138.8" font-family="Times New Roman,serif" font-size="35.00">R20</text>
</a>
</g>
</g>
<!-- R7 -->
<g id="node2" class="node">
<title>R7</title>
<g id="a_node2"><a xlink:href="7.svg" xlink:title="R7">
<polygon fill="azure" stroke="none" points="1288,-295.8 1230,-295.8 1230,-248.8 1288,-248.8 1288,-295.8"/>
<text text-anchor="middle" x="1259" y="-263.8" font-family="Times New Roman,serif" font-size="35.00">R7</text>
</a>
</g>
</g>
<!-- R20&#45;&gt;R7 -->
<g id="edge1" class="edge">
<title>R20&#45;&gt;R7</title>
<path fill="none" stroke="black" d="M659.85,-170.75C667.1,-194.32 681.94,-229.5 709,-246.3 794.05,-299.09 1108.49,-282.81 1219.16,-275.22"/>
<polygon fill="black" stroke="black" points="1219.39,-278.64 1229.13,-274.45 1218.9,-271.66 1219.39,-278.64"/>
<text text-anchor="middle" x="956" y="-292.3" font-family="Times New Roman,serif" font-size="30.00"> &#160;&#160;24 &#160;&#160;0% &#160;&#160;3.52e&#45;06 mol/s &#160;&#160;&#160;9.78E&#45;02</text>
</g>
<!-- R1 -->
<g id="node3" class="node">
<title>R1</title>
<g id="a_node3"><a xlink:href="1.svg" xlink:title="R1">
<polygon fill="azure" stroke="none" points="1288,-230.8 1230,-230.8 1230,-183.8 1288,-183.8 1288,-230.8"/>
<text text-anchor="middle" x="1259" y="-198.8" font-family="Times New Roman,serif" font-size="35.00">R1</text>
</a>
</g>
</g>
<!-- R20&#45;&gt;R1 -->
<g id="edge2" class="edge">
<title>R20&#45;&gt;R1</title>
<path fill="none" stroke="black" d="M683.63,-170.79C691.46,-175.82 700.2,-180.47 709,-183.3 804.05,-213.92 1110.76,-210.51 1219.41,-208.25"/>
<polygon fill="black" stroke="black" points="1219.26,-211.73 1229.18,-208.02 1219.11,-204.73 1219.26,-211.73"/>
<text text-anchor="middle" x="956" y="-218.3" font-family="Times New Roman,serif" font-size="30.00"> &#160;&#160;24 &#160;&#160;0% &#160;&#160;3.52e&#45;06 mol/s &#160;&#160;&#160;9.78E&#45;02</text>
</g>
<!-- R35 -->
<g id="node4" class="node">
<title>R35</title>
<g id="a_node4"><a xlink:href="35.svg" xlink:title="R35">
<polygon fill="azure" stroke="none" points="1297,-165.8 1221,-165.8 1221,-118.8 1297,-118.8 1297,-165.8"/>
<text text-anchor="middle" x="1259" y="-133.8" font-family="Times New Roman,serif" font-size="35.00">R35</text>
</a>
</g>
</g>
<!-- R20&#45;&gt;R35 -->
<g id="edge3" class="edge">
<title>R20&#45;&gt;R35</title>
<path fill="none" stroke="black" d="M690.87,-146.99C795.46,-146.13 1093.94,-143.66 1210.52,-142.69"/>
<polygon fill="black" stroke="black" points="1210.26,-146.19 1220.23,-142.6 1210.2,-139.19 1210.26,-146.19"/>
<text text-anchor="middle" x="956" y="-155.3" font-family="Times New Roman,serif" font-size="30.00"> &#160;&#160;107 &#160;&#160;0% &#160;&#160;2.66e&#45;07 mol/s &#160;&#160;&#160;7.25E&#45;01</text>
</g>
<!-- R241 -->
<g id="node7" class="node">
<title>R241</title>
<g id="a_node7"><a xlink:href="241.svg" xlink:title="R241">
<polygon fill="azure" stroke="none" points="1306,-81.8 1212,-81.8 1212,-34.8 1306,-34.8 1306,-81.8"/>
<text text-anchor="middle" x="1259" y="-49.8" font-family="Times New Roman,serif" font-size="35.00">R241</text>
</a>
</g>
</g>
<!-- R20&#45;&gt;R241 -->
<g id="edge6" class="edge">
<title>R20&#45;&gt;R241</title>
<path fill="none" stroke="black" d="M678.41,-123.82C687.35,-116.61 697.99,-109.47 709,-105.3 808.9,-67.42 1077.56,-83.12 1201.35,-69.25"/>
<polygon fill="black" stroke="black" points="1201.66,-72.62 1211.16,-67.91 1200.8,-65.67 1201.66,-72.62"/>
<text text-anchor="middle" x="956" y="-114.3" font-family="Times New Roman,serif" font-size="30.00"> &#160;&#160;424 &#160;&#160;19% &#160;&#160;0.000499 mol/s &#160;&#160;&#160;8.08E&#45;01</text>
</g>
<!-- R20&#45;&gt;R241 -->
<g id="edge7" class="edge">
<title>R20&#45;&gt;R241</title>
<path fill="none" stroke="black" stroke-width="5" d="M657.67,-123.88C663.36,-96.49 677.17,-52.36 709,-32.3 796.88,23.09 1064.88,-4.82 1191.82,-30.48"/>
<polygon fill="black" stroke="black" stroke-width="5" points="1184.62,-38.17 1206.01,-33.81 1188.29,-21.06 1184.62,-38.17"/>
<text text-anchor="middle" x="956" y="-41.3" font-family="Times New Roman,serif" font-size="30.00"> &#160;&#160;708 &#160;&#160;80% &#160;&#160;0.0021 mol/s &#160;&#160;&#160;1.92E&#45;01</text>
</g>
<!-- R49 -->
<g id="node5" class="node">
<title>R49</title>
<g id="a_node5"><a xlink:href="49.svg" xlink:title="R49">
<polygon fill="azure" stroke="none" points="85,-203.8 9,-203.8 9,-156.8 85,-156.8 85,-203.8"/>
<text text-anchor="middle" x="47" y="-171.8" font-family="Times New Roman,serif" font-size="35.00">R49</text>
</a>
</g>
</g>
<!-- R49&#45;&gt;R20 -->
<g id="edge4" class="edge">
<title>R49&#45;&gt;R20</title>
<path fill="none" stroke="black" d="M84.88,-179.83C169.99,-178.5 386.62,-173.77 567,-158.3 579.15,-157.26 592.22,-155.76 604.39,-154.2"/>
<polygon fill="black" stroke="black" points="604.8,-157.54 614.26,-152.76 603.88,-150.6 604.8,-157.54"/>
<text text-anchor="middle" x="350" y="-187.3" font-family="Times New Roman,serif" font-size="30.00"> &#160;&#160;161 &#160;&#160;9% &#160;&#160;0.313 mol/s &#160;&#160;&#160;1.37E&#45;06</text>
</g>
<!-- R114 -->
<g id="node6" class="node">
<title>R114</title>
<g id="a_node6"><a xlink:href="114.svg" xlink:title="R114">
<polygon fill="azure" stroke="none" points="94,-138.8 0,-138.8 0,-91.8 94,-91.8 94,-138.8"/>
<text text-anchor="middle" x="47" y="-106.8" font-family="Times New Roman,serif" font-size="35.00">R114</text>
</a>
</g>
</g>
<!-- R114&#45;&gt;R20 -->
<g id="edge5" class="edge">
<title>R114&#45;&gt;R20</title>
<path fill="none" stroke="black" stroke-width="5" d="M93.75,-112.61C184.51,-108.07 393.56,-101.52 567,-125.3 576.13,-126.55 585.69,-128.44 594.96,-130.59"/>
<polygon fill="black" stroke="black" stroke-width="5" points="587.59,-138.27 609.14,-134.75 591.93,-121.32 587.59,-138.27"/>
<text text-anchor="middle" x="350" y="-134.3" font-family="Times New Roman,serif" font-size="30.00"> &#160;&#160;162 &#160;&#160;90% &#160;&#160;3.16 mol/s &#160;&#160;&#160;1.35E&#45;07</text>
</g>
</g>
</svg>
