<?xml version="1.0" encoding="UTF-8" standalone="no"?>
<!DOCTYPE svg PUBLIC "-//W3C//DTD SVG 1.1//EN"
 "http://www.w3.org/Graphics/SVG/1.1/DTD/svg11.dtd">
<!-- Generated by graphviz version 8.0.3 (20230416.2022)
 -->
<!-- Title: G Pages: 1 -->
<svg width="640pt" height="86pt"
 viewBox="0.00 0.00 720.00 96.74" xmlns="http://www.w3.org/2000/svg" xmlns:xlink="http://www.w3.org/1999/xlink">
<g id="graph0" class="graph" transform="scale(0.484481 0.484481) rotate(0) translate(4 173.5)">
<title>G</title>
<polygon fill="white" stroke="none" points="-4,4 -4,-173.5 1317,-173.5 1317,4 -4,4"/>
<text text-anchor="middle" x="656.5" y="-136.7" font-family="Arial" font-size="36.00" fill="blue">Reaction Path Analysis</text>
<!-- R200 -->
<g id="node1" class="node">
<title>R200</title>
<g id="a_node1"><a xlink:href="200.svg" xlink:title="R200">
<polygon fill="azure" stroke="none" points="708,-79 614,-79 614,-32 708,-32 708,-79"/>
<text text-anchor="middle" x="661" y="-47" font-family="Times New Roman,serif" font-size="35.00">R200</text>
</a>
</g>
</g>
<!-- R53 -->
<g id="node2" class="node">
<title>R53</title>
<g id="a_node2"><a xlink:href="53.svg" xlink:title="R53">
<polygon fill="azure" stroke="none" points="1313,-112 1237,-112 1237,-65 1313,-65 1313,-112"/>
<text text-anchor="middle" x="1275" y="-80" font-family="Times New Roman,serif" font-size="35.00">R53</text>
</a>
</g>
</g>
<!-- R200&#45;&gt;R53 -->
<g id="edge1" class="edge">
<title>R200&#45;&gt;R53</title>
<path fill="none" stroke="black" stroke-width="5" d="M707.61,-62.41C719.28,-63.98 731.84,-65.47 743.5,-66.5 915.16,-81.61 1119,-86.38 1216.48,-87.86"/>
<polygon fill="black" stroke="black" stroke-width="5" points="1211.14,-96.62 1231.26,-88.15 1211.39,-79.12 1211.14,-96.62"/>
<text text-anchor="middle" x="968" y="-95.5" font-family="Times New Roman,serif" font-size="30.00"> &#160;&#160;261 &#160;&#160;99% &#160;&#160;0.653 mol/s &#160;&#160;&#160;6.55E&#45;07</text>
</g>
<!-- R2 -->
<g id="node3" class="node">
<title>R2</title>
<g id="a_node3"><a xlink:href="2.svg" xlink:title="R2">
<polygon fill="azure" stroke="none" points="1304,-47 1246,-47 1246,0 1304,0 1304,-47"/>
<text text-anchor="middle" x="1275" y="-15" font-family="Times New Roman,serif" font-size="35.00">R2</text>
</a>
</g>
</g>
<!-- R200&#45;&gt;R2 -->
<g id="edge2" class="edge">
<title>R200&#45;&gt;R2</title>
<path fill="none" stroke="black" stroke-width="5" d="M707.71,-41.06C719.27,-37.99 731.75,-35.17 743.5,-33.5 919.59,-8.46 1131.83,-15.5 1225.52,-20.48"/>
<polygon fill="black" stroke="black" stroke-width="5" points="1219.73,-29.25 1240.2,-21.65 1220.72,-11.78 1219.73,-29.25"/>
<text text-anchor="middle" x="968" y="-42.5" font-family="Times New Roman,serif" font-size="30.00"> &#160;&#160;261 &#160;&#160;99% &#160;&#160;0.653 mol/s &#160;&#160;&#160;6.55E&#45;07</text>
</g>
<!-- R0 -->
<g id="node4" class="node">
<title>R0</title>
<g id="a_node4"><a xlink:href="0.svg" xlink:title="R0">
<polygon fill="azure" stroke="none" points="76,-112 18,-112 18,-65 76,-65 76,-112"/>
<text text-anchor="middle" x="47" y="-80" font-family="Times New Roman,serif" font-size="35.00">R0</text>
</a>
</g>
</g>
<!-- R0&#45;&gt;R200 -->
<g id="edge3" class="edge">
<title>R0&#45;&gt;R200</title>
<path fill="none" stroke="black" stroke-width="6" d="M75.94,-88.95C154.99,-89.9 387.3,-90.48 593.36,-67.63"/>
<polygon fill="black" stroke="black" stroke-width="6" points="589.51,-77.95 608.17,-65.23 587.1,-57.09 589.51,-77.95"/>
<text text-anchor="middle" x="354" y="-97.5" font-family="Times New Roman,serif" font-size="30.00"> &#160;&#160;501 &#160;&#160;100% &#160;&#160;8.57e&#45;08 mol/s &#160;&#160;&#160;5.56E&#45;01</text>
</g>
<!-- R142 -->
<g id="node5" class="node">
<title>R142</title>
<g id="a_node5"><a xlink:href="142.svg" xlink:title="R142">
<polygon fill="azure" stroke="none" points="94,-47 0,-47 0,0 94,0 94,-47"/>
<text text-anchor="middle" x="47" y="-15" font-family="Times New Roman,serif" font-size="35.00">R142</text>
</a>
</g>
</g>
<!-- R142&#45;&gt;R200 -->
<g id="edge4" class="edge">
<title>R142&#45;&gt;R200</title>
<path fill="none" stroke="black" stroke-width="6" d="M93.72,-18.81C186.33,-10.46 402.77,3.17 593.7,-31.8"/>
<polygon fill="black" stroke="black" stroke-width="6" points="586.53,-41.27 608.16,-34.76 590.52,-20.66 586.53,-41.27"/>
<text text-anchor="middle" x="354" y="-42.5" font-family="Times New Roman,serif" font-size="30.00"> &#160;&#160;501 &#160;&#160;100% &#160;&#160;8.57e&#45;08 mol/s &#160;&#160;&#160;5.56E&#45;01</text>
</g>
</g>
</svg>
