<?xml version="1.0" encoding="UTF-8" standalone="no"?>
<!DOCTYPE svg PUBLIC "-//W3C//DTD SVG 1.1//EN"
 "http://www.w3.org/Graphics/SVG/1.1/DTD/svg11.dtd">
<!-- Generated by graphviz version 8.0.3 (20230416.2022)
 -->
<!-- Title: G Pages: 1 -->
<svg width="640pt" height="217pt"
 viewBox="0.00 0.00 720.00 244.47" xmlns="http://www.w3.org/2000/svg" xmlns:xlink="http://www.w3.org/1999/xlink">
<g id="graph0" class="graph" transform="scale(0.498442 0.498442) rotate(0) translate(4 431.97)">
<title>G</title>
<polygon fill="white" stroke="none" points="-4,4 -4,-431.97 1280,-431.97 1280,4 -4,4"/>
<text text-anchor="middle" x="638" y="-395.17" font-family="Arial" font-size="36.00" fill="blue">Reaction Path Analysis</text>
<!-- R212 -->
<g id="node1" class="node">
<title>R212</title>
<g id="a_node1"><a xlink:href="212.svg" xlink:title="R212">
<polygon fill="azure" stroke="none" points="685,-198.47 591,-198.47 591,-151.47 685,-151.47 685,-198.47"/>
<text text-anchor="middle" x="638" y="-166.47" font-family="Times New Roman,serif" font-size="35.00">R212</text>
</a>
</g>
</g>
<!-- R2 -->
<g id="node2" class="node">
<title>R2</title>
<g id="a_node2"><a xlink:href="2.svg" xlink:title="R2">
<polygon fill="azure" stroke="none" points="1258,-356.47 1200,-356.47 1200,-309.47 1258,-309.47 1258,-356.47"/>
<text text-anchor="middle" x="1229" y="-324.47" font-family="Times New Roman,serif" font-size="35.00">R2</text>
</a>
</g>
</g>
<!-- R212&#45;&gt;R2 -->
<g id="edge1" class="edge">
<title>R212&#45;&gt;R2</title>
<path fill="none" stroke="black" d="M641.12,-198.32C645.31,-229.41 657.7,-283.43 694,-308.97 773.54,-364.93 1080.75,-345.35 1189.54,-336.41"/>
<polygon fill="black" stroke="black" points="1189.66,-339.83 1199.33,-335.5 1189.07,-332.85 1189.66,-339.83"/>
<text text-anchor="middle" x="933.5" y="-355.97" font-family="Times New Roman,serif" font-size="30.00"> &#160;&#160;273 &#160;&#160;0% &#160;&#160;2.16e&#45;05 mol/s &#160;&#160;&#160;1.90E&#45;02</text>
</g>
<!-- R89 -->
<g id="node3" class="node">
<title>R89</title>
<g id="a_node3"><a xlink:href="89.svg" xlink:title="R89">
<polygon fill="azure" stroke="none" points="1267,-291.47 1191,-291.47 1191,-244.47 1267,-244.47 1267,-291.47"/>
<text text-anchor="middle" x="1229" y="-259.47" font-family="Times New Roman,serif" font-size="35.00">R89</text>
</a>
</g>
</g>
<!-- R212&#45;&gt;R89 -->
<g id="edge2" class="edge">
<title>R212&#45;&gt;R89</title>
<path fill="none" stroke="black" d="M652.66,-198.44C662.27,-212.57 676.52,-229.43 694,-237.97 778.87,-279.45 1066.18,-273.94 1180.5,-269.94"/>
<polygon fill="black" stroke="black" points="1180.47,-273.41 1190.33,-269.54 1180.21,-266.41 1180.47,-273.41"/>
<text text-anchor="middle" x="933.5" y="-280.97" font-family="Times New Roman,serif" font-size="30.00"> &#160;&#160;273 &#160;&#160;0% &#160;&#160;2.16e&#45;05 mol/s &#160;&#160;&#160;1.90E&#45;02</text>
</g>
<!-- R14 -->
<g id="node4" class="node">
<title>R14</title>
<g id="a_node4"><a xlink:href="14.svg" xlink:title="R14">
<polygon fill="azure" stroke="none" points="1267,-226.47 1191,-226.47 1191,-179.47 1267,-179.47 1267,-226.47"/>
<text text-anchor="middle" x="1229" y="-194.47" font-family="Times New Roman,serif" font-size="35.00">R14</text>
</a>
</g>
</g>
<!-- R212&#45;&gt;R14 -->
<g id="edge3" class="edge">
<title>R212&#45;&gt;R14</title>
<path fill="none" stroke="black" d="M684.89,-180.21C687.97,-180.49 691.03,-180.75 694,-180.97 873.16,-194.42 1086.79,-200.11 1180.26,-202.08"/>
<polygon fill="black" stroke="black" points="1179.98,-205.6 1190.05,-202.31 1180.12,-198.6 1179.98,-205.6"/>
<text text-anchor="middle" x="933.5" y="-209.97" font-family="Times New Roman,serif" font-size="30.00"> &#160;&#160;394 &#160;&#160;4% &#160;&#160;0.00241 mol/s &#160;&#160;&#160;1.77E&#45;04</text>
</g>
<!-- R41 -->
<g id="node5" class="node">
<title>R41</title>
<g id="a_node5"><a xlink:href="41.svg" xlink:title="R41">
<polygon fill="azure" stroke="none" points="1267,-161.47 1191,-161.47 1191,-114.47 1267,-114.47 1267,-161.47"/>
<text text-anchor="middle" x="1229" y="-129.47" font-family="Times New Roman,serif" font-size="35.00">R41</text>
</a>
</g>
</g>
<!-- R212&#45;&gt;R41 -->
<g id="edge4" class="edge">
<title>R212&#45;&gt;R41</title>
<path fill="none" stroke="black" d="M674.58,-151.58C680.83,-148.46 687.44,-145.73 694,-143.97 784.88,-119.57 1067.39,-130.09 1180.48,-135.5"/>
<polygon fill="black" stroke="black" points="1180.05,-139.03 1190.2,-136.02 1180.39,-132.04 1180.05,-139.03"/>
<text text-anchor="middle" x="933.5" y="-152.97" font-family="Times New Roman,serif" font-size="30.00"> &#160;&#160;394 &#160;&#160;4% &#160;&#160;0.00241 mol/s &#160;&#160;&#160;1.77E&#45;04</text>
</g>
<!-- R144 -->
<g id="node7" class="node">
<title>R144</title>
<g id="a_node7"><a xlink:href="144.svg" xlink:title="R144">
<polygon fill="azure" stroke="none" points="1276,-77.47 1182,-77.47 1182,-30.47 1276,-30.47 1276,-77.47"/>
<text text-anchor="middle" x="1229" y="-45.47" font-family="Times New Roman,serif" font-size="35.00">R144</text>
</a>
</g>
</g>
<!-- R212&#45;&gt;R144 -->
<g id="edge7" class="edge">
<title>R212&#45;&gt;R144</title>
<path fill="none" stroke="black" d="M647.38,-151.82C655.85,-132.13 671.01,-105.04 694,-91.97 738.15,-66.88 1085.48,-76.3 1171.52,-68.53"/>
<polygon fill="black" stroke="black" points="1171.73,-71.91 1181.25,-67.25 1170.9,-64.96 1171.73,-71.91"/>
<text text-anchor="middle" x="933.5" y="-100.97" font-family="Times New Roman,serif" font-size="30.00"> &#160;&#160;703 &#160;&#160;1% &#160;&#160;0.000646 mol/s &#160;&#160;&#160;9.88E&#45;01</text>
</g>
<!-- R212&#45;&gt;R144 -->
<g id="edge8" class="edge">
<title>R212&#45;&gt;R144</title>
<path fill="none" stroke="black" stroke-width="5" d="M640.26,-151.53C643.44,-118.43 654.64,-59 694,-31.97 776.86,24.94 1037.17,-7.68 1161.64,-30.3"/>
<polygon fill="black" stroke="black" stroke-width="5" points="1154.9,-38.06 1176.17,-33.17 1158.14,-20.86 1154.9,-38.06"/>
<text text-anchor="middle" x="933.5" y="-40.97" font-family="Times New Roman,serif" font-size="30.00"> &#160;&#160;936 &#160;&#160;94% &#160;&#160;0.0529 mol/s &#160;&#160;&#160;1.21E&#45;02</text>
</g>
<!-- R156 -->
<g id="node6" class="node">
<title>R156</title>
<g id="a_node6"><a xlink:href="156.svg" xlink:title="R156">
<polygon fill="azure" stroke="none" points="94,-198.47 0,-198.47 0,-151.47 94,-151.47 94,-198.47"/>
<text text-anchor="middle" x="47" y="-166.47" font-family="Times New Roman,serif" font-size="35.00">R156</text>
</a>
</g>
</g>
<!-- R156&#45;&gt;R212 -->
<g id="edge5" class="edge">
<title>R156&#45;&gt;R212</title>
<path fill="none" stroke="black" d="M93.89,-180.35C96.97,-180.6 100.03,-180.81 103,-180.97 312.05,-192.34 367.59,-192.53 580.21,-180.95"/>
<polygon fill="black" stroke="black" points="580.32,-184.39 590.11,-180.35 579.94,-177.4 580.32,-184.39"/>
<text text-anchor="middle" x="342.5" y="-197.97" font-family="Times New Roman,serif" font-size="30.00"> &#160;&#160;679 &#160;&#160;1% &#160;&#160;0.000646 mol/s &#160;&#160;&#160;9.87E&#45;01</text>
</g>
<!-- R156&#45;&gt;R212 -->
<g id="edge6" class="edge">
<title>R156&#45;&gt;R212</title>
<path fill="none" stroke="black" stroke-width="5" d="M83.56,-151.52C89.81,-148.4 96.43,-145.69 103,-143.97 302.68,-91.57 371.89,-89.98 581.4,-146.09"/>
<polygon fill="black" stroke="black" stroke-width="5" points="573.85,-153.74 595.44,-150.52 578.42,-136.84 573.85,-153.74"/>
<text text-anchor="middle" x="342.5" y="-152.97" font-family="Times New Roman,serif" font-size="30.00"> &#160;&#160;702 &#160;&#160;98% &#160;&#160;0.0504 mol/s &#160;&#160;&#160;1.26E&#45;02</text>
</g>
</g>
</svg>
