<?xml version="1.0" encoding="UTF-8" standalone="no"?>
<!DOCTYPE svg PUBLIC "-//W3C//DTD SVG 1.1//EN"
 "http://www.w3.org/Graphics/SVG/1.1/DTD/svg11.dtd">
<!-- Generated by graphviz version 8.0.3 (20230416.2022)
 -->
<!-- Title: G Pages: 1 -->
<svg width="640pt" height="166pt"
 viewBox="0.00 0.00 720.00 186.61" xmlns="http://www.w3.org/2000/svg" xmlns:xlink="http://www.w3.org/1999/xlink">
<g id="graph0" class="graph" transform="scale(0.490421 0.490421) rotate(0) translate(4 334.23)">
<title>G</title>
<polygon fill="white" stroke="none" points="-4,4 -4,-334.23 1301,-334.23 1301,4 -4,4"/>
<text text-anchor="middle" x="648.5" y="-297.43" font-family="Arial" font-size="36.00" fill="blue">Reaction Path Analysis</text>
<!-- R213 -->
<g id="node1" class="node">
<title>R213</title>
<g id="a_node1"><a xlink:href="213.svg" xlink:title="R213">
<polygon fill="azure" stroke="none" points="700,-152.73 606,-152.73 606,-105.73 700,-105.73 700,-152.73"/>
<text text-anchor="middle" x="653" y="-120.73" font-family="Times New Roman,serif" font-size="35.00">R213</text>
</a>
</g>
</g>
<!-- R2 -->
<g id="node2" class="node">
<title>R2</title>
<g id="a_node2"><a xlink:href="2.svg" xlink:title="R2">
<polygon fill="azure" stroke="none" points="1288,-250.73 1230,-250.73 1230,-203.73 1288,-203.73 1288,-250.73"/>
<text text-anchor="middle" x="1259" y="-218.73" font-family="Times New Roman,serif" font-size="35.00">R2</text>
</a>
</g>
</g>
<!-- R213&#45;&gt;R2 -->
<g id="edge1" class="edge">
<title>R213&#45;&gt;R2</title>
<path fill="none" stroke="black" d="M670.36,-152.61C682.99,-168.56 701.99,-188.51 724,-198.23 895.39,-274 1128.46,-248.32 1219.41,-234.06"/>
<polygon fill="black" stroke="black" points="1219.72,-237.4 1229.04,-232.35 1218.61,-230.49 1219.72,-237.4"/>
<text text-anchor="middle" x="956" y="-258.23" font-family="Times New Roman,serif" font-size="30.00"> &#160;&#160;274 &#160;&#160;0% &#160;&#160;21.1 mol/s &#160;&#160;&#160;2.03E&#45;08</text>
</g>
<!-- R89 -->
<g id="node3" class="node">
<title>R89</title>
<g id="a_node3"><a xlink:href="89.svg" xlink:title="R89">
<polygon fill="azure" stroke="none" points="1297,-185.73 1221,-185.73 1221,-138.73 1297,-138.73 1297,-185.73"/>
<text text-anchor="middle" x="1259" y="-153.73" font-family="Times New Roman,serif" font-size="35.00">R89</text>
</a>
</g>
</g>
<!-- R213&#45;&gt;R89 -->
<g id="edge2" class="edge">
<title>R213&#45;&gt;R89</title>
<path fill="none" stroke="black" d="M699.84,-137.21C707.87,-138.38 716.16,-139.46 724,-140.23 903.01,-157.93 1117.14,-161.44 1210.54,-162.1"/>
<polygon fill="black" stroke="black" points="1210.3,-165.61 1220.32,-162.17 1210.34,-158.61 1210.3,-165.61"/>
<text text-anchor="middle" x="956" y="-170.23" font-family="Times New Roman,serif" font-size="30.00"> &#160;&#160;274 &#160;&#160;0% &#160;&#160;21.1 mol/s &#160;&#160;&#160;2.03E&#45;08</text>
</g>
<!-- R14 -->
<g id="node4" class="node">
<title>R14</title>
<g id="a_node4"><a xlink:href="14.svg" xlink:title="R14">
<polygon fill="azure" stroke="none" points="1297,-120.73 1221,-120.73 1221,-73.73 1297,-73.73 1297,-120.73"/>
<text text-anchor="middle" x="1259" y="-88.73" font-family="Times New Roman,serif" font-size="35.00">R14</text>
</a>
</g>
</g>
<!-- R213&#45;&gt;R14 -->
<g id="edge3" class="edge">
<title>R213&#45;&gt;R14</title>
<path fill="none" stroke="black" stroke-width="5" d="M699.86,-112.78C707.82,-110.51 716.08,-108.52 724,-107.23 895.47,-79.28 1102,-86.89 1200.41,-92.98"/>
<polygon fill="black" stroke="black" stroke-width="5" points="1194.57,-101.75 1215.1,-94.33 1195.71,-84.29 1194.57,-101.75"/>
<text text-anchor="middle" x="956" y="-116.23" font-family="Times New Roman,serif" font-size="30.00"> &#160;&#160;395 &#160;&#160;99% &#160;&#160;2310.0 mol/s &#160;&#160;&#160;1.86E&#45;10</text>
</g>
<!-- R41 -->
<g id="node5" class="node">
<title>R41</title>
<g id="a_node5"><a xlink:href="41.svg" xlink:title="R41">
<polygon fill="azure" stroke="none" points="1297,-55.73 1221,-55.73 1221,-8.73 1297,-8.73 1297,-55.73"/>
<text text-anchor="middle" x="1259" y="-23.73" font-family="Times New Roman,serif" font-size="35.00">R41</text>
</a>
</g>
</g>
<!-- R213&#45;&gt;R41 -->
<g id="edge4" class="edge">
<title>R213&#45;&gt;R41</title>
<path fill="none" stroke="black" stroke-width="5" d="M667.27,-105.83C679.37,-87.05 699.13,-61.93 724,-50.23 882.94,24.54 1098.91,-1.46 1200.59,-20.06"/>
<polygon fill="black" stroke="black" stroke-width="5" points="1193.76,-27.81 1215.06,-22.99 1197.07,-10.62 1193.76,-27.81"/>
<text text-anchor="middle" x="956" y="-59.23" font-family="Times New Roman,serif" font-size="30.00"> &#160;&#160;395 &#160;&#160;99% &#160;&#160;2310.0 mol/s &#160;&#160;&#160;1.86E&#45;10</text>
</g>
<!-- R339 -->
<g id="node6" class="node">
<title>R339</title>
<g id="a_node6"><a xlink:href="339.svg" xlink:title="R339">
<polygon fill="azure" stroke="none" points="94,-152.73 0,-152.73 0,-105.73 94,-105.73 94,-152.73"/>
<text text-anchor="middle" x="47" y="-120.73" font-family="Times New Roman,serif" font-size="35.00">R339</text>
</a>
</g>
</g>
<!-- R339&#45;&gt;R213 -->
<g id="edge5" class="edge">
<title>R339&#45;&gt;R213</title>
<path fill="none" stroke="black" stroke-width="5" d="M93.89,-134.62C96.97,-134.86 100.03,-135.07 103,-135.23 315.38,-146.78 374.14,-147.14 585.2,-135.75"/>
<polygon fill="black" stroke="black" stroke-width="5" points="580.62,-144.44 600.11,-134.62 579.67,-126.97 580.62,-144.44"/>
<text text-anchor="middle" x="350" y="-152.23" font-family="Times New Roman,serif" font-size="30.00"> &#160;&#160;958 &#160;&#160;90% &#160;&#160;0.00571 mol/s &#160;&#160;&#160;9.32E&#45;02</text>
</g>
<!-- R339&#45;&gt;R213 -->
<g id="edge6" class="edge">
<title>R339&#45;&gt;R213</title>
<path fill="none" stroke="black" d="M83.56,-105.78C89.81,-102.67 96.43,-99.96 103,-98.23 315.37,-42.51 384.63,-42.51 597,-98.23 600.18,-99.07 603.38,-100.13 606.54,-101.37"/>
<polygon fill="black" stroke="black" points="604.88,-104.91 615.44,-105.78 607.73,-98.51 604.88,-104.91"/>
<text text-anchor="middle" x="350" y="-107.23" font-family="Times New Roman,serif" font-size="30.00"> &#160;&#160;1006 &#160;&#160;9% &#160;&#160;0.000587 mol/s &#160;&#160;&#160;9.07E&#45;01</text>
</g>
</g>
</svg>
