<?xml version="1.0" encoding="UTF-8" standalone="no"?>
<!DOCTYPE svg PUBLIC "-//W3C//DTD SVG 1.1//EN"
 "http://www.w3.org/Graphics/SVG/1.1/DTD/svg11.dtd">
<!-- Generated by graphviz version 8.0.3 (20230416.2022)
 -->
<!-- Title: G Pages: 1 -->
<svg width="640pt" height="175pt"
 viewBox="0.00 0.00 720.00 196.34" xmlns="http://www.w3.org/2000/svg" xmlns:xlink="http://www.w3.org/1999/xlink">
<g id="graph0" class="graph" transform="scale(0.492308 0.492308) rotate(0) translate(4 350.49)">
<title>G</title>
<polygon fill="white" stroke="none" points="-4,4 -4,-350.49 1296,-350.49 1296,4 -4,4"/>
<text text-anchor="middle" x="646" y="-313.69" font-family="Arial" font-size="36.00" fill="blue">Reaction Path Analysis</text>
<!-- R22 -->
<g id="node1" class="node">
<title>R22</title>
<g id="a_node1"><a xlink:href="22.svg" xlink:title="R22">
<polygon fill="azure" stroke="none" points="684,-169.99 608,-169.99 608,-122.99 684,-122.99 684,-169.99"/>
<text text-anchor="middle" x="646" y="-137.99" font-family="Times New Roman,serif" font-size="35.00">R22</text>
</a>
</g>
</g>
<!-- R9 -->
<g id="node2" class="node">
<title>R9</title>
<g id="a_node2"><a xlink:href="9.svg" xlink:title="R9">
<polygon fill="azure" stroke="none" points="1274,-262.99 1216,-262.99 1216,-215.99 1274,-215.99 1274,-262.99"/>
<text text-anchor="middle" x="1245" y="-230.99" font-family="Times New Roman,serif" font-size="35.00">R9</text>
</a>
</g>
</g>
<!-- R22&#45;&gt;R9 -->
<g id="edge1" class="edge">
<title>R22&#45;&gt;R9</title>
<path fill="none" stroke="black" d="M660.66,-169.97C670.27,-184.1 684.52,-200.96 702,-209.49 873.53,-293.24 1112.93,-263.25 1205.42,-247.07"/>
<polygon fill="black" stroke="black" points="1205.99,-250.34 1215.21,-245.13 1204.75,-243.45 1205.99,-250.34"/>
<text text-anchor="middle" x="945.5" y="-274.49" font-family="Times New Roman,serif" font-size="30.00"> &#160;&#160;27 &#160;&#160;0% &#160;&#160;0.0375 mol/s &#160;&#160;&#160;1.14E&#45;05</text>
</g>
<!-- R1 -->
<g id="node3" class="node">
<title>R1</title>
<g id="a_node3"><a xlink:href="1.svg" xlink:title="R1">
<polygon fill="azure" stroke="none" points="1274,-197.99 1216,-197.99 1216,-150.99 1274,-150.99 1274,-197.99"/>
<text text-anchor="middle" x="1245" y="-165.99" font-family="Times New Roman,serif" font-size="35.00">R1</text>
</a>
</g>
</g>
<!-- R22&#45;&gt;R1 -->
<g id="edge2" class="edge">
<title>R22&#45;&gt;R1</title>
<path fill="none" stroke="black" d="M683.95,-150.87C689.98,-151.49 696.16,-152.06 702,-152.49 890.26,-166.57 1116.03,-172.09 1205.12,-173.82"/>
<polygon fill="black" stroke="black" points="1204.97,-177.34 1215.04,-174.03 1205.1,-170.34 1204.97,-177.34"/>
<text text-anchor="middle" x="945.5" y="-181.49" font-family="Times New Roman,serif" font-size="30.00"> &#160;&#160;27 &#160;&#160;0% &#160;&#160;0.0375 mol/s &#160;&#160;&#160;1.14E&#45;05</text>
</g>
<!-- R246 -->
<g id="node7" class="node">
<title>R246</title>
<g id="a_node7"><a xlink:href="246.svg" xlink:title="R246">
<polygon fill="azure" stroke="none" points="1292,-109.99 1198,-109.99 1198,-62.99 1292,-62.99 1292,-109.99"/>
<text text-anchor="middle" x="1245" y="-77.99" font-family="Times New Roman,serif" font-size="35.00">R246</text>
</a>
</g>
</g>
<!-- R22&#45;&gt;R246 -->
<g id="edge6" class="edge">
<title>R22&#45;&gt;R246</title>
<path fill="none" stroke="black" d="M682.92,-123.11C689.08,-120.03 695.57,-117.32 702,-115.49 803.15,-86.83 1065.37,-107.06 1187.49,-96.38"/>
<polygon fill="black" stroke="black" points="1187.55,-99.79 1197.15,-95.33 1186.86,-92.83 1187.55,-99.79"/>
<text text-anchor="middle" x="945.5" y="-124.49" font-family="Times New Roman,serif" font-size="30.00"> &#160;&#160;426 &#160;&#160;0% &#160;&#160;0.000654 mol/s &#160;&#160;&#160;1.00E+00</text>
</g>
<!-- R22&#45;&gt;R246 -->
<g id="edge7" class="edge">
<title>R22&#45;&gt;R246</title>
<path fill="none" stroke="black" stroke-width="5" d="M654.44,-123.2C662.5,-102.31 677.58,-72.95 702,-59.49 885.75,41.73 972.74,-7.27 1180.67,-58.24"/>
<polygon fill="black" stroke="black" stroke-width="5" points="1173.35,-65.92 1194.84,-62.09 1177.44,-48.91 1173.35,-65.92"/>
<text text-anchor="middle" x="945.5" y="-68.49" font-family="Times New Roman,serif" font-size="30.00"> &#160;&#160;718 &#160;&#160;99% &#160;&#160;46.9 mol/s &#160;&#160;&#160;1.39E&#45;05</text>
</g>
<!-- R38 -->
<g id="node4" class="node">
<title>R38</title>
<g id="a_node4"><a xlink:href="38.svg" xlink:title="R38">
<polygon fill="azure" stroke="none" points="85,-234.99 9,-234.99 9,-187.99 85,-187.99 85,-234.99"/>
<text text-anchor="middle" x="47" y="-202.99" font-family="Times New Roman,serif" font-size="35.00">R38</text>
</a>
</g>
</g>
<!-- R38&#45;&gt;R22 -->
<g id="edge3" class="edge">
<title>R38&#45;&gt;R22</title>
<path fill="none" stroke="black" d="M84.68,-215.78C173.32,-224.83 405.18,-240.63 586,-183.49 592.43,-181.46 598.86,-178.56 604.98,-175.26"/>
<polygon fill="black" stroke="black" points="606.44,-177.88 613.31,-169.82 602.91,-171.84 606.44,-177.88"/>
<text text-anchor="middle" x="346.5" y="-233.49" font-family="Times New Roman,serif" font-size="30.00"> &#160;&#160;109 &#160;&#160;0% &#160;&#160;4.71e&#45;06 mol/s &#160;&#160;&#160;7.68E&#45;02</text>
</g>
<!-- R52 -->
<g id="node5" class="node">
<title>R52</title>
<g id="a_node5"><a xlink:href="52.svg" xlink:title="R52">
<polygon fill="azure" stroke="none" points="85,-169.99 9,-169.99 9,-122.99 85,-122.99 85,-169.99"/>
<text text-anchor="middle" x="47" y="-137.99" font-family="Times New Roman,serif" font-size="35.00">R52</text>
</a>
</g>
</g>
<!-- R52&#45;&gt;R22 -->
<g id="edge4" class="edge">
<title>R52&#45;&gt;R22</title>
<path fill="none" stroke="black" stroke-width="5" d="M84.89,-146.49C185.65,-146.49 466.04,-146.49 587.58,-146.49"/>
<polygon fill="black" stroke="black" stroke-width="5" points="582.35,-155.24 602.35,-146.49 582.35,-137.74 582.35,-155.24"/>
<text text-anchor="middle" x="346.5" y="-155.49" font-family="Times New Roman,serif" font-size="30.00"> &#160;&#160;165 &#160;&#160;99% &#160;&#160;0.00355 mol/s &#160;&#160;&#160;1.20E&#45;04</text>
</g>
<!-- R116 -->
<g id="node6" class="node">
<title>R116</title>
<g id="a_node6"><a xlink:href="116.svg" xlink:title="R116">
<polygon fill="azure" stroke="none" points="94,-104.99 0,-104.99 0,-57.99 94,-57.99 94,-104.99"/>
<text text-anchor="middle" x="47" y="-72.99" font-family="Times New Roman,serif" font-size="35.00">R116</text>
</a>
</g>
</g>
<!-- R116&#45;&gt;R22 -->
<g id="edge5" class="edge">
<title>R116&#45;&gt;R22</title>
<path fill="none" stroke="black" d="M93.64,-76.32C188.13,-67.22 410.98,-54.19 586,-109.49 592.43,-111.53 598.86,-114.43 604.98,-117.73"/>
<polygon fill="black" stroke="black" points="602.91,-121.15 613.31,-123.17 606.44,-115.11 602.91,-121.15"/>
<text text-anchor="middle" x="346.5" y="-118.49" font-family="Times New Roman,serif" font-size="30.00"> &#160;&#160;166 &#160;&#160;0% &#160;&#160;3.12e&#45;07 mol/s &#160;&#160;&#160;3.66E&#45;01</text>
</g>
</g>
</svg>
