<?xml version="1.0" encoding="UTF-8" standalone="no"?>
<!DOCTYPE svg PUBLIC "-//W3C//DTD SVG 1.1//EN"
 "http://www.w3.org/Graphics/SVG/1.1/DTD/svg11.dtd">
<!-- Generated by graphviz version 8.0.3 (20230416.2022)
 -->
<!-- Title: G Pages: 1 -->
<svg width="640pt" height="210pt"
 viewBox="0.00 0.00 720.00 236.39" xmlns="http://www.w3.org/2000/svg" xmlns:xlink="http://www.w3.org/1999/xlink">
<g id="graph0" class="graph" transform="scale(0.487062 0.487062) rotate(0) translate(4 427.41)">
<title>G</title>
<polygon fill="white" stroke="none" points="-4,4 -4,-427.41 1310,-427.41 1310,4 -4,4"/>
<text text-anchor="middle" x="653" y="-390.61" font-family="Arial" font-size="36.00" fill="blue">Reaction Path Analysis</text>
<!-- R226 -->
<g id="node1" class="node">
<title>R226</title>
<g id="a_node1"><a xlink:href="226.svg" xlink:title="R226">
<polygon fill="azure" stroke="none" points="700,-195.91 606,-195.91 606,-148.91 700,-148.91 700,-195.91"/>
<text text-anchor="middle" x="653" y="-163.91" font-family="Times New Roman,serif" font-size="35.00">R226</text>
</a>
</g>
</g>
<!-- R3 -->
<g id="node2" class="node">
<title>R3</title>
<g id="a_node2"><a xlink:href="3.svg" xlink:title="R3">
<polygon fill="azure" stroke="none" points="1288,-353.91 1230,-353.91 1230,-306.91 1288,-306.91 1288,-353.91"/>
<text text-anchor="middle" x="1259" y="-321.91" font-family="Times New Roman,serif" font-size="35.00">R3</text>
</a>
</g>
</g>
<!-- R226&#45;&gt;R3 -->
<g id="edge1" class="edge">
<title>R226&#45;&gt;R3</title>
<path fill="none" stroke="black" d="M658.12,-195.73C664.96,-226.74 681.9,-280.54 720,-305.41 802.05,-358.97 1110.35,-341.59 1219.45,-333.52"/>
<polygon fill="black" stroke="black" points="1219.55,-336.95 1229.26,-332.71 1219.03,-329.97 1219.55,-336.95"/>
<text text-anchor="middle" x="956" y="-351.41" font-family="Times New Roman,serif" font-size="30.00"> &#160;&#160;296 &#160;&#160;0% &#160;&#160;1.77e&#45;05 mol/s &#160;&#160;&#160;2.30E&#45;02</text>
</g>
<!-- R86 -->
<g id="node3" class="node">
<title>R86</title>
<g id="a_node3"><a xlink:href="86.svg" xlink:title="R86">
<polygon fill="azure" stroke="none" points="1297,-288.91 1221,-288.91 1221,-241.91 1297,-241.91 1297,-288.91"/>
<text text-anchor="middle" x="1259" y="-256.91" font-family="Times New Roman,serif" font-size="35.00">R86</text>
</a>
</g>
</g>
<!-- R226&#45;&gt;R86 -->
<g id="edge2" class="edge">
<title>R226&#45;&gt;R86</title>
<path fill="none" stroke="black" d="M671.15,-195.63C683.1,-209.85 700.38,-226.91 720,-235.41 807.33,-273.25 1095.71,-269.89 1210.38,-266.92"/>
<polygon fill="black" stroke="black" points="1210.34,-270.39 1220.24,-266.62 1210.15,-263.4 1210.34,-270.39"/>
<text text-anchor="middle" x="956" y="-277.41" font-family="Times New Roman,serif" font-size="30.00"> &#160;&#160;296 &#160;&#160;0% &#160;&#160;1.77e&#45;05 mol/s &#160;&#160;&#160;2.30E&#45;02</text>
</g>
<!-- R13 -->
<g id="node4" class="node">
<title>R13</title>
<g id="a_node4"><a xlink:href="13.svg" xlink:title="R13">
<polygon fill="azure" stroke="none" points="1297,-223.91 1221,-223.91 1221,-176.91 1297,-176.91 1297,-223.91"/>
<text text-anchor="middle" x="1259" y="-191.91" font-family="Times New Roman,serif" font-size="35.00">R13</text>
</a>
</g>
</g>
<!-- R226&#45;&gt;R13 -->
<g id="edge3" class="edge">
<title>R226&#45;&gt;R13</title>
<path fill="none" stroke="black" stroke-width="5" d="M699.78,-176.87C706.55,-177.44 713.46,-177.98 720,-178.41 894.77,-189.92 1101.91,-196.37 1200.41,-199"/>
<polygon fill="black" stroke="black" stroke-width="5" points="1194.89,-207.76 1215.11,-199.53 1195.35,-190.27 1194.89,-207.76"/>
<text text-anchor="middle" x="956" y="-207.41" font-family="Times New Roman,serif" font-size="30.00"> &#160;&#160;353 &#160;&#160;99% &#160;&#160;0.332 mol/s &#160;&#160;&#160;1.29E&#45;06</text>
</g>
<!-- R53 -->
<g id="node5" class="node">
<title>R53</title>
<g id="a_node5"><a xlink:href="53.svg" xlink:title="R53">
<polygon fill="azure" stroke="none" points="1297,-158.91 1221,-158.91 1221,-111.91 1297,-111.91 1297,-158.91"/>
<text text-anchor="middle" x="1259" y="-126.91" font-family="Times New Roman,serif" font-size="35.00">R53</text>
</a>
</g>
</g>
<!-- R226&#45;&gt;R53 -->
<g id="edge4" class="edge">
<title>R226&#45;&gt;R53</title>
<path fill="none" stroke="black" stroke-width="5" d="M697.08,-149C704.53,-145.88 712.35,-143.16 720,-141.41 809.8,-120.84 1080.63,-128.41 1200.2,-132.96"/>
<polygon fill="black" stroke="black" stroke-width="5" points="1194.69,-141.74 1215.02,-133.78 1195.38,-124.25 1194.69,-141.74"/>
<text text-anchor="middle" x="956" y="-150.41" font-family="Times New Roman,serif" font-size="30.00"> &#160;&#160;353 &#160;&#160;99% &#160;&#160;0.332 mol/s &#160;&#160;&#160;1.29E&#45;06</text>
</g>
<!-- R103 -->
<g id="node7" class="node">
<title>R103</title>
<g id="a_node7"><a xlink:href="103.svg" xlink:title="R103">
<polygon fill="azure" stroke="none" points="1306,-74.91 1212,-74.91 1212,-27.91 1306,-27.91 1306,-74.91"/>
<text text-anchor="middle" x="1259" y="-42.91" font-family="Times New Roman,serif" font-size="35.00">R103</text>
</a>
</g>
</g>
<!-- R226&#45;&gt;R103 -->
<g id="edge7" class="edge">
<title>R226&#45;&gt;R103</title>
<path fill="none" stroke="green" d="M665.88,-148.97C677,-129.77 695.58,-103.81 720,-91.41 766.82,-67.62 1139.98,-73.64 1192,-66.41 1195.06,-65.98 1198.18,-65.49 1201.32,-64.94"/>
<polygon fill="green" stroke="green" points="1201.85,-68.21 1211.03,-62.91 1200.55,-61.34 1201.85,-68.21"/>
<text text-anchor="middle" x="956" y="-100.41" font-family="Times New Roman,serif" font-size="30.00"> &#160;&#160;705 &#160;&#160;0% &#160;&#160;2.01e&#45;05 mol/s &#160;&#160;&#160;5.08E&#45;01</text>
</g>
<!-- R226&#45;&gt;R103 -->
<g id="edge8" class="edge">
<title>R226&#45;&gt;R103</title>
<path fill="none" stroke="green" d="M657.04,-149.1C662.76,-115.86 678.54,-55.94 720,-29.41 808.35,27.12 1088.47,-12.61 1192,-29.41 1195.23,-29.93 1198.52,-30.59 1201.82,-31.36"/>
<polygon fill="green" stroke="green" points="1200.76,-34.96 1211.32,-34.09 1202.52,-28.18 1200.76,-34.96"/>
<text text-anchor="middle" x="956" y="-38.41" font-family="Times New Roman,serif" font-size="30.00"> &#160;&#160;923 &#160;&#160;0% &#160;&#160;2.08e&#45;05 mol/s &#160;&#160;&#160;4.92E&#45;01</text>
</g>
<!-- R202 -->
<g id="node6" class="node">
<title>R202</title>
<g id="a_node6"><a xlink:href="202.svg" xlink:title="R202">
<polygon fill="azure" stroke="none" points="94,-195.91 0,-195.91 0,-148.91 94,-148.91 94,-195.91"/>
<text text-anchor="middle" x="47" y="-163.91" font-family="Times New Roman,serif" font-size="35.00">R202</text>
</a>
</g>
</g>
<!-- R202&#45;&gt;R226 -->
<g id="edge5" class="edge">
<title>R202&#45;&gt;R226</title>
<path fill="none" stroke="black" d="M93.89,-177.79C96.97,-178.04 100.03,-178.25 103,-178.41 318.7,-190.14 375.94,-190.33 595.21,-178.39"/>
<polygon fill="black" stroke="black" points="595.32,-181.83 605.11,-177.79 594.94,-174.84 595.32,-181.83"/>
<text text-anchor="middle" x="350" y="-195.41" font-family="Times New Roman,serif" font-size="30.00"> &#160;&#160;699 &#160;&#160;13% &#160;&#160;0.000551 mol/s &#160;&#160;&#160;8.65E&#45;01</text>
</g>
<!-- R202&#45;&gt;R226 -->
<g id="edge6" class="edge">
<title>R202&#45;&gt;R226</title>
<path fill="none" stroke="black" stroke-width="5" d="M83.56,-148.96C89.81,-145.84 96.43,-143.13 103,-141.41 309.14,-87.31 380.45,-85.73 596.48,-143.56"/>
<polygon fill="black" stroke="black" stroke-width="5" points="588.85,-151.18 610.44,-147.96 593.42,-134.29 588.85,-151.18"/>
<text text-anchor="middle" x="350" y="-150.41" font-family="Times New Roman,serif" font-size="30.00"> &#160;&#160;704 &#160;&#160;86% &#160;&#160;0.00352 mol/s &#160;&#160;&#160;1.35E&#45;01</text>
</g>
</g>
</svg>
