<?xml version="1.0" encoding="UTF-8" standalone="no"?>
<!DOCTYPE svg PUBLIC "-//W3C//DTD SVG 1.1//EN"
 "http://www.w3.org/Graphics/SVG/1.1/DTD/svg11.dtd">
<!-- Generated by graphviz version 8.0.3 (20230416.2022)
 -->
<!-- Title: G Pages: 1 -->
<svg width="589pt" height="309pt"
 viewBox="0.00 0.00 663.00 347.42" xmlns="http://www.w3.org/2000/svg" xmlns:xlink="http://www.w3.org/1999/xlink">
<g id="graph0" class="graph" transform="scale(0.888889 0.888889) rotate(0) translate(4 343.42)">
<title>G</title>
<polygon fill="white" stroke="none" points="-4,4 -4,-343.42 659,-343.42 659,4 -4,4"/>
<text text-anchor="middle" x="327.5" y="-306.62" font-family="Arial" font-size="36.00" fill="blue">Reaction Path Analysis</text>
<!-- R228 -->
<g id="node1" class="node">
<title>R228</title>
<g id="a_node1"><a xlink:href="228.svg" xlink:title="R228">
<polygon fill="azure" stroke="none" points="94,-157.92 0,-157.92 0,-110.92 94,-110.92 94,-157.92"/>
<text text-anchor="middle" x="47" y="-125.92" font-family="Times New Roman,serif" font-size="35.00">R228</text>
</a>
</g>
</g>
<!-- R86 -->
<g id="node2" class="node">
<title>R86</title>
<g id="a_node2"><a xlink:href="86.svg" xlink:title="R86">
<polygon fill="azure" stroke="none" points="646,-255.92 570,-255.92 570,-208.92 646,-208.92 646,-255.92"/>
<text text-anchor="middle" x="608" y="-223.92" font-family="Times New Roman,serif" font-size="35.00">R86</text>
</a>
</g>
</g>
<!-- R228&#45;&gt;R86 -->
<g id="edge1" class="edge">
<title>R228&#45;&gt;R86</title>
<path fill="none" stroke="black" stroke-width="5" d="M59.43,-157.67C68.74,-173.85 83.54,-194.28 103,-204.42 248.81,-280.36 451.57,-260.04 549.51,-243.76"/>
<polygon fill="black" stroke="black" stroke-width="5" points="545.96,-253.21 564.14,-241.12 542.93,-235.97 545.96,-253.21"/>
<text text-anchor="middle" x="327.5" y="-267.42" font-family="Times New Roman,serif" font-size="30.00"> &#160;&#160;298 &#160;&#160;93% &#160;&#160;288.0 mol/s &#160;&#160;&#160;1.48E&#45;09</text>
</g>
<!-- R3 -->
<g id="node3" class="node">
<title>R3</title>
<g id="a_node3"><a xlink:href="3.svg" xlink:title="R3">
<polygon fill="azure" stroke="none" points="637,-190.92 579,-190.92 579,-143.92 637,-143.92 637,-190.92"/>
<text text-anchor="middle" x="608" y="-158.92" font-family="Times New Roman,serif" font-size="35.00">R3</text>
</a>
</g>
</g>
<!-- R228&#45;&gt;R3 -->
<g id="edge2" class="edge">
<title>R228&#45;&gt;R3</title>
<path fill="none" stroke="black" stroke-width="5" d="M93.83,-144.13C96.93,-144.62 100,-145.06 103,-145.42 269.15,-165.54 468.07,-167.88 558.27,-167.77"/>
<polygon fill="black" stroke="black" stroke-width="5" points="553.04,-176.52 573.01,-167.7 552.98,-159.02 553.04,-176.52"/>
<text text-anchor="middle" x="327.5" y="-176.42" font-family="Times New Roman,serif" font-size="30.00"> &#160;&#160;298 &#160;&#160;93% &#160;&#160;288.0 mol/s &#160;&#160;&#160;1.48E&#45;09</text>
</g>
<!-- R1 -->
<g id="node4" class="node">
<title>R1</title>
<g id="a_node4"><a xlink:href="1.svg" xlink:title="R1">
<polygon fill="azure" stroke="none" points="637,-125.92 579,-125.92 579,-78.92 637,-78.92 637,-125.92"/>
<text text-anchor="middle" x="608" y="-93.92" font-family="Times New Roman,serif" font-size="35.00">R1</text>
</a>
</g>
</g>
<!-- R228&#45;&gt;R1 -->
<g id="edge3" class="edge">
<title>R228&#45;&gt;R1</title>
<path fill="none" stroke="black" d="M93.84,-114.69C96.91,-113.8 99.98,-113.03 103,-112.42 273.53,-77.82 483.18,-90.93 568.33,-98.52"/>
<polygon fill="black" stroke="black" points="567.75,-102.07 578.03,-99.5 568.39,-95.1 567.75,-102.07"/>
<text text-anchor="middle" x="327.5" y="-121.42" font-family="Times New Roman,serif" font-size="30.00"> &#160;&#160;590 &#160;&#160;6% &#160;&#160;19.3 mol/s &#160;&#160;&#160;2.21E&#45;08</text>
</g>
<!-- R165 -->
<g id="node5" class="node">
<title>R165</title>
<g id="a_node5"><a xlink:href="165.svg" xlink:title="R165">
<polygon fill="azure" stroke="none" points="655,-60.92 561,-60.92 561,-13.92 655,-13.92 655,-60.92"/>
<text text-anchor="middle" x="608" y="-28.92" font-family="Times New Roman,serif" font-size="35.00">R165</text>
</a>
</g>
</g>
<!-- R228&#45;&gt;R165 -->
<g id="edge4" class="edge">
<title>R228&#45;&gt;R165</title>
<path fill="none" stroke="black" d="M56.57,-111.06C65.08,-91.57 80.2,-65.02 103,-52.42 247.56,27.47 452.8,-2.25 550.76,-23.41"/>
<polygon fill="black" stroke="black" points="549.79,-27 560.31,-25.75 551.31,-20.17 549.79,-27"/>
<text text-anchor="middle" x="327.5" y="-61.42" font-family="Times New Roman,serif" font-size="30.00"> &#160;&#160;590 &#160;&#160;6% &#160;&#160;19.3 mol/s &#160;&#160;&#160;2.21E&#45;08</text>
</g>
</g>
</svg>
