<?xml version="1.0" encoding="UTF-8" standalone="no"?>
<!DOCTYPE svg PUBLIC "-//W3C//DTD SVG 1.1//EN"
 "http://www.w3.org/Graphics/SVG/1.1/DTD/svg11.dtd">
<!-- Generated by graphviz version 8.0.3 (20230416.2022)
 -->
<!-- Title: G Pages: 1 -->
<svg width="621pt" height="318pt"
 viewBox="0.00 0.00 699.00 357.51" xmlns="http://www.w3.org/2000/svg" xmlns:xlink="http://www.w3.org/1999/xlink">
<g id="graph0" class="graph" transform="scale(0.888889 0.888889) rotate(0) translate(4 353.51)">
<title>G</title>
<polygon fill="white" stroke="none" points="-4,4 -4,-353.51 695,-353.51 695,4 -4,4"/>
<text text-anchor="middle" x="345.5" y="-316.71" font-family="Arial" font-size="36.00" fill="blue">Reaction Path Analysis</text>
<!-- R235 -->
<g id="node1" class="node">
<title>R235</title>
<g id="a_node1"><a xlink:href="235.svg" xlink:title="R235">
<polygon fill="azure" stroke="none" points="94,-164.01 0,-164.01 0,-117.01 94,-117.01 94,-164.01"/>
<text text-anchor="middle" x="47" y="-132.01" font-family="Times New Roman,serif" font-size="35.00">R235</text>
</a>
</g>
</g>
<!-- R5 -->
<g id="node2" class="node">
<title>R5</title>
<g id="a_node2"><a xlink:href="5.svg" xlink:title="R5">
<polygon fill="azure" stroke="none" points="682,-262.01 624,-262.01 624,-215.01 682,-215.01 682,-262.01"/>
<text text-anchor="middle" x="653" y="-230.01" font-family="Times New Roman,serif" font-size="35.00">R5</text>
</a>
</g>
</g>
<!-- R235&#45;&gt;R5 -->
<g id="edge1" class="edge">
<title>R235&#45;&gt;R5</title>
<path fill="none" stroke="black" d="M59.41,-163.79C68.72,-179.99 83.51,-200.42 103,-210.51 275.23,-299.72 520.02,-264.93 613.6,-246.8"/>
<polygon fill="black" stroke="black" points="614.12,-250.07 623.25,-244.68 612.76,-243.2 614.12,-250.07"/>
<text text-anchor="middle" x="350" y="-277.51" font-family="Times New Roman,serif" font-size="30.00"> &#160;&#160;314 &#160;&#160;0% &#160;&#160;10.6 mol/s &#160;&#160;&#160;4.03E&#45;08</text>
</g>
<!-- R27 -->
<g id="node3" class="node">
<title>R27</title>
<g id="a_node3"><a xlink:href="27.svg" xlink:title="R27">
<polygon fill="azure" stroke="none" points="691,-197.01 615,-197.01 615,-150.01 691,-150.01 691,-197.01"/>
<text text-anchor="middle" x="653" y="-165.01" font-family="Times New Roman,serif" font-size="35.00">R27</text>
</a>
</g>
</g>
<!-- R235&#45;&gt;R27 -->
<g id="edge2" class="edge">
<title>R235&#45;&gt;R27</title>
<path fill="none" stroke="black" d="M93.83,-150.24C96.92,-150.72 100,-151.15 103,-151.51 287.5,-173.52 509.08,-174.77 604.49,-174.11"/>
<polygon fill="black" stroke="black" points="604.25,-177.61 614.22,-174.03 604.19,-170.61 604.25,-177.61"/>
<text text-anchor="middle" x="350" y="-182.51" font-family="Times New Roman,serif" font-size="30.00"> &#160;&#160;314 &#160;&#160;0% &#160;&#160;10.6 mol/s &#160;&#160;&#160;4.03E&#45;08</text>
</g>
<!-- R13 -->
<g id="node4" class="node">
<title>R13</title>
<g id="a_node4"><a xlink:href="13.svg" xlink:title="R13">
<polygon fill="azure" stroke="none" points="691,-132.01 615,-132.01 615,-85.01 691,-85.01 691,-132.01"/>
<text text-anchor="middle" x="653" y="-100.01" font-family="Times New Roman,serif" font-size="35.00">R13</text>
</a>
</g>
</g>
<!-- R235&#45;&gt;R13 -->
<g id="edge3" class="edge">
<title>R235&#45;&gt;R13</title>
<path fill="none" stroke="black" stroke-width="5" d="M93.84,-120.78C96.91,-119.89 99.98,-119.12 103,-118.51 279.13,-82.93 493.53,-94.32 594.35,-102.81"/>
<polygon fill="black" stroke="black" stroke-width="5" points="588.52,-111.61 609.21,-104.66 590.06,-94.18 588.52,-111.61"/>
<text text-anchor="middle" x="350" y="-127.51" font-family="Times New Roman,serif" font-size="30.00"> &#160;&#160;328 &#160;&#160;99% &#160;&#160;566000.0 mol/s &#160;&#160;&#160;7.56E&#45;13</text>
</g>
<!-- R18 -->
<g id="node5" class="node">
<title>R18</title>
<g id="a_node5"><a xlink:href="18.svg" xlink:title="R18">
<polygon fill="azure" stroke="none" points="691,-67.01 615,-67.01 615,-20.01 691,-20.01 691,-67.01"/>
<text text-anchor="middle" x="653" y="-35.01" font-family="Times New Roman,serif" font-size="35.00">R18</text>
</a>
</g>
</g>
<!-- R235&#45;&gt;R18 -->
<g id="edge4" class="edge">
<title>R235&#45;&gt;R18</title>
<path fill="none" stroke="black" stroke-width="5" d="M56.06,-117.34C64.4,-97.3 79.54,-69.56 103,-56.51 262.45,32.13 490.27,-4.48 595.16,-28.62"/>
<polygon fill="black" stroke="black" stroke-width="5" points="587.82,-36.3 609.31,-32.46 591.91,-19.28 587.82,-36.3"/>
<text text-anchor="middle" x="350" y="-65.51" font-family="Times New Roman,serif" font-size="30.00"> &#160;&#160;328 &#160;&#160;99% &#160;&#160;566000.0 mol/s &#160;&#160;&#160;7.56E&#45;13</text>
</g>
</g>
</svg>
