<?xml version="1.0" encoding="UTF-8" standalone="no"?>
<!DOCTYPE svg PUBLIC "-//W3C//DTD SVG 1.1//EN"
 "http://www.w3.org/Graphics/SVG/1.1/DTD/svg11.dtd">
<!-- Generated by graphviz version 8.0.3 (20230416.2022)
 -->
<!-- Title: G Pages: 1 -->
<svg width="602pt" height="313pt"
 viewBox="0.00 0.00 677.00 352.50" xmlns="http://www.w3.org/2000/svg" xmlns:xlink="http://www.w3.org/1999/xlink">
<g id="graph0" class="graph" transform="scale(0.888889 0.888889) rotate(0) translate(4 348.5)">
<title>G</title>
<polygon fill="white" stroke="none" points="-4,4 -4,-348.5 673,-348.5 673,4 -4,4"/>
<text text-anchor="middle" x="334.5" y="-311.7" font-family="Arial" font-size="36.00" fill="blue">Reaction Path Analysis</text>
<!-- R239 -->
<g id="node1" class="node">
<title>R239</title>
<g id="a_node1"><a xlink:href="239.svg" xlink:title="R239">
<polygon fill="azure" stroke="none" points="94,-161 0,-161 0,-114 94,-114 94,-161"/>
<text text-anchor="middle" x="47" y="-129" font-family="Times New Roman,serif" font-size="35.00">R239</text>
</a>
</g>
</g>
<!-- R6 -->
<g id="node2" class="node">
<title>R6</title>
<g id="a_node2"><a xlink:href="6.svg" xlink:title="R6">
<polygon fill="azure" stroke="none" points="660,-259 602,-259 602,-212 660,-212 660,-259"/>
<text text-anchor="middle" x="631" y="-227" font-family="Times New Roman,serif" font-size="35.00">R6</text>
</a>
</g>
</g>
<!-- R239&#45;&gt;R6 -->
<g id="edge1" class="edge">
<title>R239&#45;&gt;R6</title>
<path fill="none" stroke="black" d="M59.42,-160.77C68.73,-176.96 83.52,-197.39 103,-207.5 267.31,-292.83 500.58,-260.9 591.57,-243.66"/>
<polygon fill="black" stroke="black" points="592.05,-246.94 601.2,-241.59 590.71,-240.06 592.05,-246.94"/>
<text text-anchor="middle" x="339" y="-272.5" font-family="Times New Roman,serif" font-size="30.00"> &#160;&#160;321 &#160;&#160;0% &#160;&#160;9.08e&#45;05 mol/s &#160;&#160;&#160;4.66E&#45;03</text>
</g>
<!-- R27 -->
<g id="node3" class="node">
<title>R27</title>
<g id="a_node3"><a xlink:href="27.svg" xlink:title="R27">
<polygon fill="azure" stroke="none" points="669,-194 593,-194 593,-147 669,-147 669,-194"/>
<text text-anchor="middle" x="631" y="-162" font-family="Times New Roman,serif" font-size="35.00">R27</text>
</a>
</g>
</g>
<!-- R239&#45;&gt;R27 -->
<g id="edge2" class="edge">
<title>R239&#45;&gt;R27</title>
<path fill="none" stroke="black" d="M93.83,-147.22C96.93,-147.71 100,-148.14 103,-148.5 278.65,-169.6 489.32,-171.39 582.12,-170.99"/>
<polygon fill="black" stroke="black" points="582.12,-174.49 592.1,-170.93 582.09,-167.49 582.12,-174.49"/>
<text text-anchor="middle" x="339" y="-179.5" font-family="Times New Roman,serif" font-size="30.00"> &#160;&#160;321 &#160;&#160;0% &#160;&#160;9.08e&#45;05 mol/s &#160;&#160;&#160;4.66E&#45;03</text>
</g>
<!-- R13 -->
<g id="node4" class="node">
<title>R13</title>
<g id="a_node4"><a xlink:href="13.svg" xlink:title="R13">
<polygon fill="azure" stroke="none" points="669,-129 593,-129 593,-82 669,-82 669,-129"/>
<text text-anchor="middle" x="631" y="-97" font-family="Times New Roman,serif" font-size="35.00">R13</text>
</a>
</g>
</g>
<!-- R239&#45;&gt;R13 -->
<g id="edge3" class="edge">
<title>R239&#45;&gt;R13</title>
<path fill="none" stroke="black" stroke-width="5" d="M93.84,-117.77C96.91,-116.89 99.98,-116.12 103,-115.5 270.67,-81.56 474.48,-91.86 572.24,-99.88"/>
<polygon fill="black" stroke="black" stroke-width="5" points="566.41,-108.68 587.09,-101.7 567.92,-91.25 566.41,-108.68"/>
<text text-anchor="middle" x="339" y="-124.5" font-family="Times New Roman,serif" font-size="30.00"> &#160;&#160;330 &#160;&#160;99% &#160;&#160;52.8 mol/s &#160;&#160;&#160;8.10E&#45;09</text>
</g>
<!-- R19 -->
<g id="node5" class="node">
<title>R19</title>
<g id="a_node5"><a xlink:href="19.svg" xlink:title="R19">
<polygon fill="azure" stroke="none" points="669,-64 593,-64 593,-17 669,-17 669,-64"/>
<text text-anchor="middle" x="631" y="-32" font-family="Times New Roman,serif" font-size="35.00">R19</text>
</a>
</g>
</g>
<!-- R239&#45;&gt;R19 -->
<g id="edge4" class="edge">
<title>R239&#45;&gt;R19</title>
<path fill="none" stroke="black" stroke-width="5" d="M56.31,-114.23C64.74,-94.47 79.87,-67.32 103,-54.5 254.93,29.7 471.24,-3.25 572.96,-25.93"/>
<polygon fill="black" stroke="black" stroke-width="5" points="565.69,-33.62 587.15,-29.64 569.66,-16.57 565.69,-33.62"/>
<text text-anchor="middle" x="339" y="-63.5" font-family="Times New Roman,serif" font-size="30.00"> &#160;&#160;330 &#160;&#160;99% &#160;&#160;52.8 mol/s &#160;&#160;&#160;8.10E&#45;09</text>
</g>
</g>
</svg>
