<?xml version="1.0" encoding="UTF-8" standalone="no"?>
<!DOCTYPE svg PUBLIC "-//W3C//DTD SVG 1.1//EN"
 "http://www.w3.org/Graphics/SVG/1.1/DTD/svg11.dtd">
<!-- Generated by graphviz version 8.0.3 (20230416.2022)
 -->
<!-- Title: G Pages: 1 -->
<svg width="640pt" height="309pt"
 viewBox="0.00 0.00 720.00 347.59" xmlns="http://www.w3.org/2000/svg" xmlns:xlink="http://www.w3.org/1999/xlink">
<g id="graph0" class="graph" transform="scale(0.498442 0.498442) rotate(0) translate(4 615.87)">
<title>G</title>
<polygon fill="white" stroke="none" points="-4,4 -4,-615.87 1280,-615.87 1280,4 -4,4"/>
<text text-anchor="middle" x="638" y="-579.07" font-family="Arial" font-size="36.00" fill="blue">Reaction Path Analysis</text>
<!-- R242 -->
<g id="node1" class="node">
<title>R242</title>
<g id="a_node1"><a xlink:href="242.svg" xlink:title="R242">
<polygon fill="azure" stroke="none" points="685,-294.37 591,-294.37 591,-247.37 685,-247.37 685,-294.37"/>
<text text-anchor="middle" x="638" y="-262.37" font-family="Times New Roman,serif" font-size="35.00">R242</text>
</a>
</g>
</g>
<!-- R16 -->
<g id="node2" class="node">
<title>R16</title>
<g id="a_node2"><a xlink:href="16.svg" xlink:title="R16">
<polygon fill="azure" stroke="none" points="1267,-359.37 1191,-359.37 1191,-312.37 1267,-312.37 1267,-359.37"/>
<text text-anchor="middle" x="1229" y="-327.37" font-family="Times New Roman,serif" font-size="35.00">R16</text>
</a>
</g>
</g>
<!-- R242&#45;&gt;R16 -->
<g id="edge1" class="edge">
<title>R242&#45;&gt;R16</title>
<path fill="none" stroke="black" stroke-width="5" d="M673.65,-294.17C683.4,-299.63 694.28,-304.76 705,-307.87 868.46,-355.26 1072.47,-348.32 1170.36,-341.16"/>
<polygon fill="black" stroke="black" stroke-width="5" points="1165.98,-349.81 1185.23,-339.51 1164.6,-332.36 1165.98,-349.81"/>
<text text-anchor="middle" x="933.5" y="-354.87" font-family="Times New Roman,serif" font-size="30.00"> &#160;&#160;325 &#160;&#160;99% &#160;&#160;0.886 mol/s &#160;&#160;&#160;4.82E&#45;07</text>
</g>
<!-- R13 -->
<g id="node3" class="node">
<title>R13</title>
<g id="a_node3"><a xlink:href="13.svg" xlink:title="R13">
<polygon fill="azure" stroke="none" points="1267,-294.37 1191,-294.37 1191,-247.37 1267,-247.37 1267,-294.37"/>
<text text-anchor="middle" x="1229" y="-262.37" font-family="Times New Roman,serif" font-size="35.00">R13</text>
</a>
</g>
</g>
<!-- R242&#45;&gt;R13 -->
<g id="edge2" class="edge">
<title>R242&#45;&gt;R13</title>
<path fill="none" stroke="black" stroke-width="5" d="M684.73,-270.87C790.87,-270.87 1053.77,-270.87 1170.54,-270.87"/>
<polygon fill="black" stroke="black" stroke-width="5" points="1165.21,-279.62 1185.21,-270.87 1165.21,-262.12 1165.21,-279.62"/>
<text text-anchor="middle" x="933.5" y="-279.87" font-family="Times New Roman,serif" font-size="30.00"> &#160;&#160;325 &#160;&#160;99% &#160;&#160;0.886 mol/s &#160;&#160;&#160;4.82E&#45;07</text>
</g>
<!-- R276 -->
<g id="node4" class="node">
<title>R276</title>
<g id="a_node4"><a xlink:href="276.svg" xlink:title="R276">
<polygon fill="azure" stroke="none" points="1276,-229.37 1182,-229.37 1182,-182.37 1276,-182.37 1276,-229.37"/>
<text text-anchor="middle" x="1229" y="-197.37" font-family="Times New Roman,serif" font-size="35.00">R276</text>
</a>
</g>
</g>
<!-- R242&#45;&gt;R276 -->
<g id="edge3" class="edge">
<title>R242&#45;&gt;R276</title>
<path fill="none" stroke="black" d="M673.65,-247.56C683.4,-242.1 694.28,-236.97 705,-233.87 868.98,-186.32 1073.76,-193.46 1171.29,-200.64"/>
<polygon fill="black" stroke="black" points="1170.84,-204.19 1181.07,-201.47 1171.37,-197.21 1170.84,-204.19"/>
<text text-anchor="middle" x="933.5" y="-242.87" font-family="Times New Roman,serif" font-size="30.00"> &#160;&#160;519 &#160;&#160;0% &#160;&#160;4.1e&#45;07 mol/s &#160;&#160;&#160;9.60E&#45;01</text>
</g>
<!-- R277 -->
<g id="node5" class="node">
<title>R277</title>
<g id="a_node5"><a xlink:href="277.svg" xlink:title="R277">
<polygon fill="azure" stroke="none" points="94,-508.37 0,-508.37 0,-461.37 94,-461.37 94,-508.37"/>
<text text-anchor="middle" x="47" y="-476.37" font-family="Times New Roman,serif" font-size="35.00">R277</text>
</a>
</g>
</g>
<!-- R277&#45;&gt;R242 -->
<g id="edge4" class="edge">
<title>R277&#45;&gt;R242</title>
<path fill="none" stroke="black" d="M93.68,-498.36C194.12,-524.99 436.75,-572.38 582,-457.87 628.23,-421.42 637.03,-348.16 637.92,-304.95"/>
<polygon fill="black" stroke="black" points="641.42,-305.15 637.99,-295.13 634.42,-305.1 641.42,-305.15"/>
<text text-anchor="middle" x="342.5" y="-539.87" font-family="Times New Roman,serif" font-size="30.00"> &#160;&#160;520 &#160;&#160;0% &#160;&#160;1.82e&#45;06 mol/s &#160;&#160;&#160;1.60E&#45;01</text>
</g>
<!-- R305 -->
<g id="node6" class="node">
<title>R305</title>
<g id="a_node6"><a xlink:href="305.svg" xlink:title="R305">
<polygon fill="azure" stroke="none" points="94,-443.37 0,-443.37 0,-396.37 94,-396.37 94,-443.37"/>
<text text-anchor="middle" x="47" y="-411.37" font-family="Times New Roman,serif" font-size="35.00">R305</text>
</a>
</g>
</g>
<!-- R305&#45;&gt;R242 -->
<g id="edge5" class="edge">
<title>R305&#45;&gt;R242</title>
<path fill="none" stroke="black" d="M93.96,-420.54C216.12,-421.94 542.28,-423.07 582,-395.87 612.09,-375.25 625.88,-334.27 632.09,-304.85"/>
<polygon fill="black" stroke="black" points="635.69,-305.68 634.12,-295.2 628.81,-304.37 635.69,-305.68"/>
<text text-anchor="middle" x="342.5" y="-429.87" font-family="Times New Roman,serif" font-size="30.00"> &#160;&#160;599 &#160;&#160;0% &#160;&#160;0.041 mol/s &#160;&#160;&#160;1.04E&#45;05</text>
</g>
<!-- R306 -->
<g id="node7" class="node">
<title>R306</title>
<g id="a_node7"><a xlink:href="306.svg" xlink:title="R306">
<polygon fill="azure" stroke="none" points="94,-378.37 0,-378.37 0,-331.37 94,-331.37 94,-378.37"/>
<text text-anchor="middle" x="47" y="-346.37" font-family="Times New Roman,serif" font-size="35.00">R306</text>
</a>
</g>
</g>
<!-- R306&#45;&gt;R242 -->
<g id="edge6" class="edge">
<title>R306&#45;&gt;R242</title>
<path fill="none" stroke="black" stroke-width="5" d="M93.63,-356.66C206.42,-360.42 495.46,-365.87 582,-326.87 590.98,-322.82 599.27,-316.6 606.55,-309.75"/>
<polygon fill="black" stroke="black" stroke-width="5" points="609.61,-318.99 616.73,-298.35 596.75,-307.13 609.61,-318.99"/>
<text text-anchor="middle" x="342.5" y="-367.87" font-family="Times New Roman,serif" font-size="30.00"> &#160;&#160;600 &#160;&#160;96% &#160;&#160;78.4 mol/s &#160;&#160;&#160;5.45E&#45;09</text>
</g>
<!-- R358 -->
<g id="node8" class="node">
<title>R358</title>
<g id="a_node8"><a xlink:href="358.svg" xlink:title="R358">
<polygon fill="azure" stroke="none" points="94,-313.37 0,-313.37 0,-266.37 94,-266.37 94,-313.37"/>
<text text-anchor="middle" x="47" y="-281.37" font-family="Times New Roman,serif" font-size="35.00">R358</text>
</a>
</g>
</g>
<!-- R358&#45;&gt;R242 -->
<g id="edge7" class="edge">
<title>R358&#45;&gt;R242</title>
<path fill="none" stroke="black" d="M93.77,-290.05C184.42,-290.13 393.41,-288.93 580.25,-276.88"/>
<polygon fill="black" stroke="black" points="580.36,-280.31 590.11,-276.16 579.9,-273.33 580.36,-280.31"/>
<text text-anchor="middle" x="342.5" y="-298.87" font-family="Times New Roman,serif" font-size="30.00"> &#160;&#160;601 &#160;&#160;2% &#160;&#160;2.23 mol/s &#160;&#160;&#160;1.92E&#45;07</text>
</g>
<!-- R133 -->
<g id="node9" class="node">
<title>R133</title>
<g id="a_node9"><a xlink:href="133.svg" xlink:title="R133">
<polygon fill="azure" stroke="none" points="94,-229.37 0,-229.37 0,-182.37 94,-182.37 94,-229.37"/>
<text text-anchor="middle" x="47" y="-197.37" font-family="Times New Roman,serif" font-size="35.00">R133</text>
</a>
</g>
</g>
<!-- R133&#45;&gt;R242 -->
<g id="edge8" class="edge">
<title>R133&#45;&gt;R242</title>
<path fill="none" stroke="black" d="M93.75,-219.18C96.86,-219.82 99.97,-220.4 103,-220.87 208.28,-237.1 479.52,-210.79 582,-239.87 585.12,-240.75 588.24,-241.84 591.34,-243.08"/>
<polygon fill="black" stroke="black" points="589.52,-246.55 600.08,-247.48 592.41,-240.18 589.52,-246.55"/>
<text text-anchor="middle" x="342.5" y="-248.87" font-family="Times New Roman,serif" font-size="30.00"> &#160;&#160;661 &#160;&#160;0% &#160;&#160;0.000653 mol/s &#160;&#160;&#160;9.98E&#45;01</text>
</g>
<!-- R133&#45;&gt;R242 -->
<g id="edge9" class="edge">
<title>R133&#45;&gt;R242</title>
<path fill="none" stroke="black" d="M93.83,-186.07C96.9,-185.2 99.97,-184.45 103,-183.87 155.26,-173.8 535.38,-158.18 582,-183.87 602.7,-195.27 616.69,-218.1 625.38,-237.52"/>
<polygon fill="black" stroke="black" points="622.48,-238.68 629.56,-246.57 628.95,-235.99 622.48,-238.68"/>
<text text-anchor="middle" x="342.5" y="-192.87" font-family="Times New Roman,serif" font-size="30.00"> &#160;&#160;710 &#160;&#160;0% &#160;&#160;0.347 mol/s &#160;&#160;&#160;1.88E&#45;03</text>
</g>
<!-- R106 -->
<g id="node10" class="node">
<title>R106</title>
<g id="a_node10"><a xlink:href="106.svg" xlink:title="R106">
<polygon fill="azure" stroke="none" points="94,-126.37 0,-126.37 0,-79.37 94,-79.37 94,-126.37"/>
<text text-anchor="middle" x="47" y="-94.37" font-family="Times New Roman,serif" font-size="35.00">R106</text>
</a>
</g>
</g>
<!-- R106&#45;&gt;R242 -->
<g id="edge10" class="edge">
<title>R106&#45;&gt;R242</title>
<path fill="none" stroke="black" d="M93.9,-108.08C96.98,-108.36 100.03,-108.63 103,-108.87 156.12,-113.09 538.65,-101.87 582,-132.87 615.31,-156.69 628.46,-204.04 633.64,-236.58"/>
<polygon fill="black" stroke="black" points="630.3,-236.99 635.16,-246.41 637.24,-236.02 630.3,-236.99"/>
<text text-anchor="middle" x="342.5" y="-141.87" font-family="Times New Roman,serif" font-size="30.00"> &#160;&#160;711 &#160;&#160;0% &#160;&#160;0.000908 mol/s &#160;&#160;&#160;2.95E&#45;01</text>
</g>
<!-- R106&#45;&gt;R242 -->
<g id="edge11" class="edge">
<title>R106&#45;&gt;R242</title>
<path fill="none" stroke="black" d="M83.56,-79.41C89.81,-76.3 96.43,-73.59 103,-71.87 308.92,-17.83 412.6,57.07 582,-71.87 608.17,-91.79 625.09,-185.43 632.57,-236.84"/>
<polygon fill="black" stroke="black" points="629.2,-237.02 634.06,-246.43 636.13,-236.04 629.2,-237.02"/>
<text text-anchor="middle" x="342.5" y="-80.87" font-family="Times New Roman,serif" font-size="30.00"> &#160;&#160;926 &#160;&#160;0% &#160;&#160;0.00038 mol/s &#160;&#160;&#160;7.05E&#45;01</text>
</g>
</g>
</svg>
