<?xml version="1.0" encoding="UTF-8" standalone="no"?>
<!DOCTYPE svg PUBLIC "-//W3C//DTD SVG 1.1//EN"
 "http://www.w3.org/Graphics/SVG/1.1/DTD/svg11.dtd">
<!-- Generated by graphviz version 8.0.3 (20230416.2022)
 -->
<!-- Title: G Pages: 1 -->
<svg width="640pt" height="91pt"
 viewBox="0.00 0.00 720.00 102.65" xmlns="http://www.w3.org/2000/svg" xmlns:xlink="http://www.w3.org/1999/xlink">
<g id="graph0" class="graph" transform="scale(0.514056 0.514056) rotate(0) translate(4 173.5)">
<title>G</title>
<polygon fill="white" stroke="none" points="-4,4 -4,-173.5 1241,-173.5 1241,4 -4,4"/>
<text text-anchor="middle" x="618.5" y="-136.7" font-family="Arial" font-size="36.00" fill="blue">Reaction Path Analysis</text>
<!-- R247 -->
<g id="node1" class="node">
<title>R247</title>
<g id="a_node1"><a xlink:href="247.svg" xlink:title="R247">
<polygon fill="azure" stroke="none" points="670,-79 576,-79 576,-32 670,-32 670,-79"/>
<text text-anchor="middle" x="623" y="-47" font-family="Times New Roman,serif" font-size="35.00">R247</text>
</a>
</g>
</g>
<!-- R13 -->
<g id="node2" class="node">
<title>R13</title>
<g id="a_node2"><a xlink:href="13.svg" xlink:title="R13">
<polygon fill="azure" stroke="none" points="1237,-112 1161,-112 1161,-65 1237,-65 1237,-112"/>
<text text-anchor="middle" x="1199" y="-80" font-family="Times New Roman,serif" font-size="35.00">R13</text>
</a>
</g>
</g>
<!-- R247&#45;&gt;R13 -->
<g id="edge1" class="edge">
<title>R247&#45;&gt;R13</title>
<path fill="none" stroke="black" stroke-width="6" d="M669.83,-65.22C672.93,-65.7 676,-66.14 679,-66.5 845.58,-86.57 1044.15,-89.09 1140.24,-88.96"/>
<polygon fill="black" stroke="black" stroke-width="6" points="1135.06,-99.46 1155.03,-88.89 1134.99,-78.46 1135.06,-99.46"/>
<text text-anchor="middle" x="911" y="-97.5" font-family="Times New Roman,serif" font-size="30.00"> &#160;&#160;335 &#160;&#160;100% &#160;&#160;233.0 mol/s &#160;&#160;&#160;1.83E&#45;09</text>
</g>
<!-- R27 -->
<g id="node3" class="node">
<title>R27</title>
<g id="a_node3"><a xlink:href="27.svg" xlink:title="R27">
<polygon fill="azure" stroke="none" points="1237,-47 1161,-47 1161,0 1237,0 1237,-47"/>
<text text-anchor="middle" x="1199" y="-15" font-family="Times New Roman,serif" font-size="35.00">R27</text>
</a>
</g>
</g>
<!-- R247&#45;&gt;R27 -->
<g id="edge2" class="edge">
<title>R247&#45;&gt;R27</title>
<path fill="none" stroke="black" stroke-width="6" d="M669.84,-35.77C672.91,-34.88 675.98,-34.11 679,-33.5 843.53,-0.17 1043.42,-10.05 1140.09,-17.9"/>
<polygon fill="black" stroke="black" stroke-width="6" points="1134.18,-28.45 1155.01,-19.71 1135.98,-7.53 1134.18,-28.45"/>
<text text-anchor="middle" x="911" y="-42.5" font-family="Times New Roman,serif" font-size="30.00"> &#160;&#160;335 &#160;&#160;100% &#160;&#160;233.0 mol/s &#160;&#160;&#160;1.83E&#45;09</text>
</g>
<!-- R360 -->
<g id="node4" class="node">
<title>R360</title>
<g id="a_node4"><a xlink:href="360.svg" xlink:title="R360">
<polygon fill="azure" stroke="none" points="94,-79 0,-79 0,-32 94,-32 94,-79"/>
<text text-anchor="middle" x="47" y="-47" font-family="Times New Roman,serif" font-size="35.00">R360</text>
</a>
</g>
</g>
<!-- R360&#45;&gt;R247 -->
<g id="edge3" class="edge">
<title>R360&#45;&gt;R247</title>
<path fill="none" stroke="black" stroke-width="5" d="M93.52,-55.5C194.39,-55.5 437.1,-55.5 555.2,-55.5"/>
<polygon fill="black" stroke="black" stroke-width="5" points="550.08,-64.25 570.08,-55.5 550.08,-46.75 550.08,-64.25"/>
<text text-anchor="middle" x="335" y="-64.5" font-family="Times New Roman,serif" font-size="30.00"> &#160;&#160;605 &#160;&#160;99% &#160;&#160;2.99 mol/s &#160;&#160;&#160;1.43E&#45;07</text>
</g>
</g>
</svg>
