<?xml version="1.0" encoding="UTF-8" standalone="no"?>
<!DOCTYPE svg PUBLIC "-//W3C//DTD SVG 1.1//EN"
 "http://www.w3.org/Graphics/SVG/1.1/DTD/svg11.dtd">
<!-- Generated by graphviz version 8.0.3 (20230416.2022)
 -->
<!-- Title: G Pages: 1 -->
<svg width="640pt" height="259pt"
 viewBox="0.00 0.00 720.00 290.85" xmlns="http://www.w3.org/2000/svg" xmlns:xlink="http://www.w3.org/1999/xlink">
<g id="graph0" class="graph" transform="scale(0.492308 0.492308) rotate(0) translate(4 521.15)">
<title>G</title>
<polygon fill="white" stroke="none" points="-4,4 -4,-521.15 1296,-521.15 1296,4 -4,4"/>
<text text-anchor="middle" x="646" y="-484.35" font-family="Arial" font-size="36.00" fill="blue">Reaction Path Analysis</text>
<!-- R248 -->
<g id="node1" class="node">
<title>R248</title>
<g id="a_node1"><a xlink:href="248.svg" xlink:title="R248">
<polygon fill="azure" stroke="none" points="693,-252.65 599,-252.65 599,-205.65 693,-205.65 693,-252.65"/>
<text text-anchor="middle" x="646" y="-220.65" font-family="Times New Roman,serif" font-size="35.00">R248</text>
</a>
</g>
</g>
<!-- R27 -->
<g id="node2" class="node">
<title>R27</title>
<g id="a_node2"><a xlink:href="27.svg" xlink:title="R27">
<polygon fill="azure" stroke="none" points="1283,-350.65 1207,-350.65 1207,-303.65 1283,-303.65 1283,-350.65"/>
<text text-anchor="middle" x="1245" y="-318.65" font-family="Times New Roman,serif" font-size="35.00">R27</text>
</a>
</g>
</g>
<!-- R248&#45;&gt;R27 -->
<g id="edge1" class="edge">
<title>R248&#45;&gt;R27</title>
<path fill="none" stroke="black" stroke-width="5" d="M658.41,-252.42C667.72,-268.62 682.52,-289.05 702,-299.15 861.15,-381.65 1083.1,-356.99 1186.61,-338.88"/>
<polygon fill="black" stroke="black" stroke-width="5" points="1183.04,-348.33 1201.12,-336.1 1179.87,-331.12 1183.04,-348.33"/>
<text text-anchor="middle" x="945.5" y="-365.15" font-family="Times New Roman,serif" font-size="30.00"> &#160;&#160;336 &#160;&#160;96% &#160;&#160;2.51e&#45;05 mol/s &#160;&#160;&#160;1.65E&#45;02</text>
</g>
<!-- R13 -->
<g id="node3" class="node">
<title>R13</title>
<g id="a_node3"><a xlink:href="13.svg" xlink:title="R13">
<polygon fill="azure" stroke="none" points="1283,-285.65 1207,-285.65 1207,-238.65 1283,-238.65 1283,-285.65"/>
<text text-anchor="middle" x="1245" y="-253.65" font-family="Times New Roman,serif" font-size="35.00">R13</text>
</a>
</g>
</g>
<!-- R248&#45;&gt;R13 -->
<g id="edge2" class="edge">
<title>R248&#45;&gt;R13</title>
<path fill="none" stroke="black" stroke-width="5" d="M692.83,-238.88C695.92,-239.36 699,-239.79 702,-240.15 877.42,-261.12 1086.8,-263.17 1186.17,-262.77"/>
<polygon fill="black" stroke="black" stroke-width="5" points="1181.09,-271.51 1201.04,-262.64 1180.99,-254.01 1181.09,-271.51"/>
<text text-anchor="middle" x="945.5" y="-271.15" font-family="Times New Roman,serif" font-size="30.00"> &#160;&#160;336 &#160;&#160;96% &#160;&#160;2.51e&#45;05 mol/s &#160;&#160;&#160;1.65E&#45;02</text>
</g>
<!-- R282 -->
<g id="node5" class="node">
<title>R282</title>
<g id="a_node5"><a xlink:href="282.svg" xlink:title="R282">
<polygon fill="azure" stroke="none" points="1292,-220.65 1198,-220.65 1198,-173.65 1292,-173.65 1292,-220.65"/>
<text text-anchor="middle" x="1245" y="-188.65" font-family="Times New Roman,serif" font-size="35.00">R282</text>
</a>
</g>
</g>
<!-- R248&#45;&gt;R282 -->
<g id="edge4" class="edge">
<title>R248&#45;&gt;R282</title>
<path fill="none" stroke="black" d="M692.84,-209.42C695.91,-208.53 698.98,-207.76 702,-207.15 876.05,-171.96 1087.96,-183.21 1187.37,-191.56"/>
<polygon fill="black" stroke="black" points="1186.81,-195.11 1197.07,-192.49 1187.41,-188.14 1186.81,-195.11"/>
<text text-anchor="middle" x="945.5" y="-216.15" font-family="Times New Roman,serif" font-size="30.00"> &#160;&#160;525 &#160;&#160;1% &#160;&#160;4.13e&#45;07 mol/s &#160;&#160;&#160;9.67E&#45;01</text>
</g>
<!-- R283 -->
<g id="node6" class="node">
<title>R283</title>
<g id="a_node6"><a xlink:href="283.svg" xlink:title="R283">
<polygon fill="azure" stroke="none" points="1292,-155.65 1198,-155.65 1198,-108.65 1292,-108.65 1292,-155.65"/>
<text text-anchor="middle" x="1245" y="-123.65" font-family="Times New Roman,serif" font-size="35.00">R283</text>
</a>
</g>
</g>
<!-- R248&#45;&gt;R283 -->
<g id="edge5" class="edge">
<title>R248&#45;&gt;R283</title>
<path fill="none" stroke="black" d="M655.06,-205.99C663.4,-185.95 678.54,-158.2 702,-145.15 859.31,-57.67 1084.04,-93.63 1187.68,-117.43"/>
<polygon fill="black" stroke="black" points="1186.69,-121.02 1197.22,-119.9 1188.29,-114.21 1186.69,-121.02"/>
<text text-anchor="middle" x="945.5" y="-154.15" font-family="Times New Roman,serif" font-size="30.00"> &#160;&#160;526 &#160;&#160;1% &#160;&#160;4.25e&#45;07 mol/s &#160;&#160;&#160;9.94E&#45;01</text>
</g>
<!-- R61 -->
<g id="node4" class="node">
<title>R61</title>
<g id="a_node4"><a xlink:href="61.svg" xlink:title="R61">
<polygon fill="azure" stroke="none" points="85,-401.65 9,-401.65 9,-354.65 85,-354.65 85,-401.65"/>
<text text-anchor="middle" x="47" y="-369.65" font-family="Times New Roman,serif" font-size="35.00">R61</text>
</a>
</g>
</g>
<!-- R61&#45;&gt;R248 -->
<g id="edge3" class="edge">
<title>R61&#45;&gt;R248</title>
<path fill="none" stroke="black" d="M84.77,-390.85C178.74,-420.82 431.48,-485.48 590,-375.15 626.21,-349.95 638.61,-297.72 642.84,-263.05"/>
<polygon fill="black" stroke="black" points="646.38,-263.78 643.94,-253.47 639.42,-263.05 646.38,-263.78"/>
<text text-anchor="middle" x="346.5" y="-445.15" font-family="Times New Roman,serif" font-size="30.00"> &#160;&#160;446 &#160;&#160;0% &#160;&#160;0.000654 mol/s &#160;&#160;&#160;1.00E+00</text>
</g>
<!-- R61&#45;&gt;R248 -->
<g id="edge11" class="edge">
<title>R61&#45;&gt;R248</title>
<path fill="none" stroke="black" stroke-width="5" d="M73.6,-354.74C82.31,-348.15 92.51,-341.79 103,-338.15 154.16,-320.4 543.29,-346.56 590,-319.15 608.02,-308.58 620.9,-289.56 629.64,-271.72"/>
<polygon fill="black" stroke="black" stroke-width="5" points="636,-279.42 635.81,-257.59 619.91,-272.55 636,-279.42"/>
<text text-anchor="middle" x="346.5" y="-347.15" font-family="Times New Roman,serif" font-size="30.00"> &#160;&#160;721 &#160;&#160;88% &#160;&#160;3.36 mol/s &#160;&#160;&#160;1.95E&#45;04</text>
</g>
<!-- R311 -->
<g id="node7" class="node">
<title>R311</title>
<g id="a_node7"><a xlink:href="311.svg" xlink:title="R311">
<polygon fill="azure" stroke="none" points="94,-317.65 0,-317.65 0,-270.65 94,-270.65 94,-317.65"/>
<text text-anchor="middle" x="47" y="-285.65" font-family="Times New Roman,serif" font-size="35.00">R311</text>
</a>
</g>
</g>
<!-- R311&#45;&gt;R248 -->
<g id="edge6" class="edge">
<title>R311&#45;&gt;R248</title>
<path fill="none" stroke="black" d="M93.88,-287.14C96.96,-286.77 100.02,-286.44 103,-286.15 210.85,-275.79 486.51,-295.21 590,-263.15 594.59,-261.73 599.18,-259.83 603.64,-257.66"/>
<polygon fill="black" stroke="black" points="605.01,-260.36 612.16,-252.54 601.7,-254.2 605.01,-260.36"/>
<text text-anchor="middle" x="346.5" y="-295.15" font-family="Times New Roman,serif" font-size="30.00"> &#160;&#160;606 &#160;&#160;0% &#160;&#160;8.51e&#45;05 mol/s &#160;&#160;&#160;4.97E&#45;03</text>
</g>
<!-- R312 -->
<g id="node8" class="node">
<title>R312</title>
<g id="a_node8"><a xlink:href="312.svg" xlink:title="R312">
<polygon fill="azure" stroke="none" points="94,-252.65 0,-252.65 0,-205.65 94,-205.65 94,-252.65"/>
<text text-anchor="middle" x="47" y="-220.65" font-family="Times New Roman,serif" font-size="35.00">R312</text>
</a>
</g>
</g>
<!-- R312&#45;&gt;R248 -->
<g id="edge7" class="edge">
<title>R312&#45;&gt;R248</title>
<path fill="none" stroke="black" d="M93.85,-229.15C201.64,-229.15 470.86,-229.15 588.5,-229.15"/>
<polygon fill="black" stroke="black" points="588.4,-232.65 598.4,-229.15 588.4,-225.65 588.4,-232.65"/>
<text text-anchor="middle" x="346.5" y="-238.15" font-family="Times New Roman,serif" font-size="30.00"> &#160;&#160;607 &#160;&#160;0% &#160;&#160;2.95e&#45;05 mol/s &#160;&#160;&#160;1.41E&#45;02</text>
</g>
<!-- R361 -->
<g id="node9" class="node">
<title>R361</title>
<g id="a_node9"><a xlink:href="361.svg" xlink:title="R361">
<polygon fill="azure" stroke="none" points="94,-187.65 0,-187.65 0,-140.65 94,-140.65 94,-187.65"/>
<text text-anchor="middle" x="47" y="-155.65" font-family="Times New Roman,serif" font-size="35.00">R361</text>
</a>
</g>
</g>
<!-- R361&#45;&gt;R248 -->
<g id="edge8" class="edge">
<title>R361&#45;&gt;R248</title>
<path fill="none" stroke="black" d="M93.88,-163.39C207.36,-162.02 498.61,-161.67 590,-192.15 595.94,-194.13 601.85,-196.95 607.46,-200.15"/>
<polygon fill="black" stroke="black" points="605.24,-203.51 615.58,-205.82 608.94,-197.57 605.24,-203.51"/>
<text text-anchor="middle" x="346.5" y="-201.15" font-family="Times New Roman,serif" font-size="30.00"> &#160;&#160;608 &#160;&#160;11% &#160;&#160;0.424 mol/s &#160;&#160;&#160;1.01E&#45;06</text>
</g>
<!-- R111 -->
<g id="node10" class="node">
<title>R111</title>
<g id="a_node10"><a xlink:href="111.svg" xlink:title="R111">
<polygon fill="azure" stroke="none" points="94,-103.65 0,-103.65 0,-56.65 94,-56.65 94,-103.65"/>
<text text-anchor="middle" x="47" y="-71.65" font-family="Times New Roman,serif" font-size="35.00">R111</text>
</a>
</g>
</g>
<!-- R111&#45;&gt;R248 -->
<g id="edge9" class="edge">
<title>R111&#45;&gt;R248</title>
<path fill="none" stroke="black" d="M93.76,-93.38C96.87,-94.05 99.97,-94.65 103,-95.15 156.49,-104 544.44,-95.76 590,-125.15 614.56,-140.99 628.85,-171.62 636.67,-195.55"/>
<polygon fill="black" stroke="black" points="633.59,-196.43 639.83,-205 640.29,-194.41 633.59,-196.43"/>
<text text-anchor="middle" x="346.5" y="-134.15" font-family="Times New Roman,serif" font-size="30.00"> &#160;&#160;642 &#160;&#160;0% &#160;&#160;0.000622 mol/s &#160;&#160;&#160;9.54E&#45;01</text>
</g>
<!-- R111&#45;&gt;R248 -->
<g id="edge10" class="edge">
<title>R111&#45;&gt;R248</title>
<path fill="none" stroke="black" d="M93.74,-61.09C194.43,-22.48 438.36,52.37 590,-58.15 632.87,-89.4 643.05,-154.62 645.06,-194.87"/>
<polygon fill="black" stroke="black" points="641.59,-194.88 645.43,-204.76 648.59,-194.64 641.59,-194.88"/>
<text text-anchor="middle" x="346.5" y="-67.15" font-family="Times New Roman,serif" font-size="30.00"> &#160;&#160;720 &#160;&#160;0% &#160;&#160;0.0128 mol/s &#160;&#160;&#160;4.64E&#45;02</text>
</g>
</g>
</svg>
