<?xml version="1.0" encoding="UTF-8" standalone="no"?>
<!DOCTYPE svg PUBLIC "-//W3C//DTD SVG 1.1//EN"
 "http://www.w3.org/Graphics/SVG/1.1/DTD/svg11.dtd">
<!-- Generated by graphviz version 8.0.3 (20230416.2022)
 -->
<!-- Title: G Pages: 1 -->
<svg width="640pt" height="171pt"
 viewBox="0.00 0.00 720.00 192.41" xmlns="http://www.w3.org/2000/svg" xmlns:xlink="http://www.w3.org/1999/xlink">
<g id="graph0" class="graph" transform="scale(0.490421 0.490421) rotate(0) translate(4 344.75)">
<title>G</title>
<polygon fill="white" stroke="none" points="-4,4 -4,-344.75 1301,-344.75 1301,4 -4,4"/>
<text text-anchor="middle" x="648.5" y="-307.95" font-family="Arial" font-size="36.00" fill="blue">Reaction Path Analysis</text>
<!-- R254 -->
<g id="node1" class="node">
<title>R254</title>
<g id="a_node1"><a xlink:href="254.svg" xlink:title="R254">
<polygon fill="azure" stroke="none" points="700,-173.25 606,-173.25 606,-126.25 700,-126.25 700,-173.25"/>
<text text-anchor="middle" x="653" y="-141.25" font-family="Times New Roman,serif" font-size="35.00">R254</text>
</a>
</g>
</g>
<!-- R31 -->
<g id="node2" class="node">
<title>R31</title>
<g id="a_node2"><a xlink:href="31.svg" xlink:title="R31">
<polygon fill="azure" stroke="none" points="1297,-206.25 1221,-206.25 1221,-159.25 1297,-159.25 1297,-206.25"/>
<text text-anchor="middle" x="1259" y="-174.25" font-family="Times New Roman,serif" font-size="35.00">R31</text>
</a>
</g>
</g>
<!-- R254&#45;&gt;R31 -->
<g id="edge1" class="edge">
<title>R254&#45;&gt;R31</title>
<path fill="none" stroke="black" stroke-width="6" d="M699.98,-158.56C705.53,-159.41 711.13,-160.17 716.5,-160.75 891.99,-179.67 1101.07,-182.68 1200.27,-182.93"/>
<polygon fill="black" stroke="black" stroke-width="6" points="1195.1,-193.43 1215.11,-182.95 1195.11,-172.43 1195.1,-193.43"/>
<text text-anchor="middle" x="956" y="-191.75" font-family="Times New Roman,serif" font-size="30.00"> &#160;&#160;343 &#160;&#160;100% &#160;&#160;0.0012 mol/s &#160;&#160;&#160;3.56E&#45;04</text>
</g>
<!-- R13 -->
<g id="node3" class="node">
<title>R13</title>
<g id="a_node3"><a xlink:href="13.svg" xlink:title="R13">
<polygon fill="azure" stroke="none" points="1297,-141.25 1221,-141.25 1221,-94.25 1297,-94.25 1297,-141.25"/>
<text text-anchor="middle" x="1259" y="-109.25" font-family="Times New Roman,serif" font-size="35.00">R13</text>
</a>
</g>
</g>
<!-- R254&#45;&gt;R13 -->
<g id="edge2" class="edge">
<title>R254&#45;&gt;R13</title>
<path fill="none" stroke="black" stroke-width="6" d="M699.97,-131.72C705.47,-130.12 711.07,-128.73 716.5,-127.75 890.31,-96.4 1100.58,-105.67 1200.23,-112.83"/>
<polygon fill="black" stroke="black" stroke-width="6" points="1194.42,-123.38 1215.16,-114.42 1196.02,-102.44 1194.42,-123.38"/>
<text text-anchor="middle" x="956" y="-136.75" font-family="Times New Roman,serif" font-size="30.00"> &#160;&#160;343 &#160;&#160;100% &#160;&#160;0.0012 mol/s &#160;&#160;&#160;3.56E&#45;04</text>
</g>
<!-- R352 -->
<g id="node4" class="node">
<title>R352</title>
<g id="a_node4"><a xlink:href="352.svg" xlink:title="R352">
<polygon fill="azure" stroke="none" points="94,-217.25 0,-217.25 0,-170.25 94,-170.25 94,-217.25"/>
<text text-anchor="middle" x="47" y="-185.25" font-family="Times New Roman,serif" font-size="35.00">R352</text>
</a>
</g>
</g>
<!-- R352&#45;&gt;R254 -->
<g id="edge3" class="edge">
<title>R352&#45;&gt;R254</title>
<path fill="none" stroke="black" d="M93.95,-209.96C96.99,-210.67 100.02,-211.28 103,-211.75 319.82,-246.33 396.76,-301.79 597,-211.75 611.01,-205.45 622.91,-193.62 632.01,-181.97"/>
<polygon fill="black" stroke="black" points="635.35,-184.33 638.41,-174.19 629.69,-180.2 635.35,-184.33"/>
<text text-anchor="middle" x="350" y="-268.75" font-family="Times New Roman,serif" font-size="30.00"> &#160;&#160;728 &#160;&#160;8% &#160;&#160;0.0735 mol/s &#160;&#160;&#160;8.74E&#45;03</text>
</g>
<!-- R352&#45;&gt;R254 -->
<g id="edge6" class="edge">
<title>R352&#45;&gt;R254</title>
<path fill="none" stroke="black" d="M93.95,-176.78C96.99,-176 100.02,-175.31 103,-174.75 207.81,-155.08 471.38,-163.3 595.28,-155.73"/>
<polygon fill="black" stroke="black" points="595.36,-159.17 605.11,-155 594.89,-152.18 595.36,-159.17"/>
<text text-anchor="middle" x="350" y="-183.75" font-family="Times New Roman,serif" font-size="30.00"> &#160;&#160;1019 &#160;&#160;0% &#160;&#160;0.000648 mol/s &#160;&#160;&#160;9.91E&#45;01</text>
</g>
<!-- R296 -->
<g id="node5" class="node">
<title>R296</title>
<g id="a_node5"><a xlink:href="296.svg" xlink:title="R296">
<polygon fill="azure" stroke="none" points="94,-129.25 0,-129.25 0,-82.25 94,-82.25 94,-129.25"/>
<text text-anchor="middle" x="47" y="-97.25" font-family="Times New Roman,serif" font-size="35.00">R296</text>
</a>
</g>
</g>
<!-- R296&#45;&gt;R254 -->
<g id="edge4" class="edge">
<title>R296&#45;&gt;R254</title>
<path fill="none" stroke="black" stroke-width="5" d="M93.81,-104.69C201.31,-102.58 468.94,-99.57 588.33,-121.97"/>
<polygon fill="black" stroke="black" stroke-width="5" points="581.09,-129.65 602.5,-125.37 584.82,-112.55 581.09,-129.65"/>
<text text-anchor="middle" x="350" y="-131.75" font-family="Times New Roman,serif" font-size="30.00"> &#160;&#160;729 &#160;&#160;91% &#160;&#160;0.779 mol/s &#160;&#160;&#160;8.38E&#45;04</text>
</g>
<!-- R296&#45;&gt;R254 -->
<g id="edge5" class="edge">
<title>R296&#45;&gt;R254</title>
<path fill="none" stroke="black" d="M73.24,-82.3C82.01,-75.62 92.33,-69.22 103,-65.75 311.79,2.14 403.85,38.65 597,-65.75 616.93,-76.52 630.79,-98 639.62,-116.54"/>
<polygon fill="black" stroke="black" points="636.76,-117.73 644.01,-125.45 643.16,-114.89 636.76,-117.73"/>
<text text-anchor="middle" x="350" y="-74.75" font-family="Times New Roman,serif" font-size="30.00"> &#160;&#160;777 &#160;&#160;0% &#160;&#160;0.000653 mol/s &#160;&#160;&#160;9.99E&#45;01</text>
</g>
</g>
</svg>
