<?xml version="1.0" encoding="UTF-8" standalone="no"?>
<!DOCTYPE svg PUBLIC "-//W3C//DTD SVG 1.1//EN"
 "http://www.w3.org/Graphics/SVG/1.1/DTD/svg11.dtd">
<!-- Generated by graphviz version 8.0.3 (20230416.2022)
 -->
<!-- Title: G Pages: 1 -->
<svg width="640pt" height="226pt"
 viewBox="0.00 0.00 720.00 253.74" xmlns="http://www.w3.org/2000/svg" xmlns:xlink="http://www.w3.org/1999/xlink">
<g id="graph0" class="graph" transform="scale(0.498442 0.498442) rotate(0) translate(4 448.5)">
<title>G</title>
<polygon fill="white" stroke="none" points="-4,4 -4,-448.5 1280,-448.5 1280,4 -4,4"/>
<text text-anchor="middle" x="638" y="-411.7" font-family="Arial" font-size="36.00" fill="blue">Reaction Path Analysis</text>
<!-- R257 -->
<g id="node1" class="node">
<title>R257</title>
<g id="a_node1"><a xlink:href="257.svg" xlink:title="R257">
<polygon fill="azure" stroke="none" points="685,-209 591,-209 591,-162 685,-162 685,-209"/>
<text text-anchor="middle" x="638" y="-177" font-family="Times New Roman,serif" font-size="35.00">R257</text>
</a>
</g>
</g>
<!-- R13 -->
<g id="node2" class="node">
<title>R13</title>
<g id="a_node2"><a xlink:href="13.svg" xlink:title="R13">
<polygon fill="azure" stroke="none" points="1267,-372 1191,-372 1191,-325 1267,-325 1267,-372"/>
<text text-anchor="middle" x="1229" y="-340" font-family="Times New Roman,serif" font-size="35.00">R13</text>
</a>
</g>
</g>
<!-- R257&#45;&gt;R13 -->
<g id="edge1" class="edge">
<title>R257&#45;&gt;R13</title>
<path fill="none" stroke="black" stroke-width="5" d="M640.57,-208.95C644.15,-241.45 655.83,-299.25 694,-326.5 768.91,-379.98 1048.45,-363.78 1170.44,-353.78"/>
<polygon fill="black" stroke="black" stroke-width="5" points="1166.12,-362.42 1185.3,-352.01 1164.63,-344.98 1166.12,-362.42"/>
<text text-anchor="middle" x="933.5" y="-372.5" font-family="Times New Roman,serif" font-size="30.00"> &#160;&#160;348 &#160;&#160;99% &#160;&#160;1.31 mol/s &#160;&#160;&#160;3.26E&#45;07</text>
</g>
<!-- R43 -->
<g id="node3" class="node">
<title>R43</title>
<g id="a_node3"><a xlink:href="43.svg" xlink:title="R43">
<polygon fill="azure" stroke="none" points="1267,-307 1191,-307 1191,-260 1267,-260 1267,-307"/>
<text text-anchor="middle" x="1229" y="-275" font-family="Times New Roman,serif" font-size="35.00">R43</text>
</a>
</g>
</g>
<!-- R257&#45;&gt;R43 -->
<g id="edge2" class="edge">
<title>R257&#45;&gt;R43</title>
<path fill="none" stroke="black" stroke-width="5" d="M650.42,-208.77C659.73,-224.96 674.52,-245.39 694,-255.5 775.55,-297.81 1050.22,-291.43 1170.63,-286.36"/>
<polygon fill="black" stroke="black" stroke-width="5" points="1165.64,-295.08 1185.23,-285.44 1164.86,-277.59 1165.64,-295.08"/>
<text text-anchor="middle" x="933.5" y="-298.5" font-family="Times New Roman,serif" font-size="30.00"> &#160;&#160;348 &#160;&#160;99% &#160;&#160;1.31 mol/s &#160;&#160;&#160;3.26E&#45;07</text>
</g>
<!-- R0 -->
<g id="node4" class="node">
<title>R0</title>
<g id="a_node4"><a xlink:href="0.svg" xlink:title="R0">
<polygon fill="azure" stroke="none" points="1258,-242 1200,-242 1200,-195 1258,-195 1258,-242"/>
<text text-anchor="middle" x="1229" y="-210" font-family="Times New Roman,serif" font-size="35.00">R0</text>
</a>
</g>
</g>
<!-- R257&#45;&gt;R0 -->
<g id="edge3" class="edge">
<title>R257&#45;&gt;R0</title>
<path fill="none" stroke="black" d="M684.83,-195.22C687.92,-195.71 691,-196.14 694,-196.5 878.46,-218.61 1101.04,-219.59 1189.27,-218.97"/>
<polygon fill="black" stroke="black" points="1189.11,-222.46 1199.08,-218.88 1189.05,-215.46 1189.11,-222.46"/>
<text text-anchor="middle" x="933.5" y="-227.5" font-family="Times New Roman,serif" font-size="30.00"> &#160;&#160;516 &#160;&#160;0% &#160;&#160;1.13e&#45;06 mol/s &#160;&#160;&#160;2.15E&#45;01</text>
</g>
<!-- R205 -->
<g id="node5" class="node">
<title>R205</title>
<g id="a_node5"><a xlink:href="205.svg" xlink:title="R205">
<polygon fill="azure" stroke="none" points="1276,-177 1182,-177 1182,-130 1276,-130 1276,-177"/>
<text text-anchor="middle" x="1229" y="-145" font-family="Times New Roman,serif" font-size="35.00">R205</text>
</a>
</g>
</g>
<!-- R257&#45;&gt;R205 -->
<g id="edge4" class="edge">
<title>R257&#45;&gt;R205</title>
<path fill="none" stroke="black" d="M684.84,-165.77C687.91,-164.88 690.98,-164.11 694,-163.5 864.86,-128.93 1072.77,-139.74 1171.16,-147.93"/>
<polygon fill="black" stroke="black" points="1170.77,-151.49 1181.04,-148.86 1171.37,-144.52 1170.77,-151.49"/>
<text text-anchor="middle" x="933.5" y="-172.5" font-family="Times New Roman,serif" font-size="30.00"> &#160;&#160;516 &#160;&#160;0% &#160;&#160;1.13e&#45;06 mol/s &#160;&#160;&#160;2.15E&#45;01</text>
</g>
<!-- R2 -->
<g id="node7" class="node">
<title>R2</title>
<g id="a_node7"><a xlink:href="2.svg" xlink:title="R2">
<polygon fill="azure" stroke="none" points="1258,-112 1200,-112 1200,-65 1258,-65 1258,-112"/>
<text text-anchor="middle" x="1229" y="-80" font-family="Times New Roman,serif" font-size="35.00">R2</text>
</a>
</g>
</g>
<!-- R257&#45;&gt;R2 -->
<g id="edge6" class="edge">
<title>R257&#45;&gt;R2</title>
<path fill="none" stroke="black" d="M647.56,-162.13C656.07,-142.63 671.18,-116.08 694,-103.5 778.91,-56.67 1081.37,-76.33 1189.35,-85.11"/>
<polygon fill="black" stroke="black" points="1188.81,-88.66 1199.06,-86 1189.39,-81.68 1188.81,-88.66"/>
<text text-anchor="middle" x="933.5" y="-112.5" font-family="Times New Roman,serif" font-size="30.00"> &#160;&#160;872 &#160;&#160;0% &#160;&#160;0.000508 mol/s &#160;&#160;&#160;8.41E&#45;04</text>
</g>
<!-- R88 -->
<g id="node8" class="node">
<title>R88</title>
<g id="a_node8"><a xlink:href="88.svg" xlink:title="R88">
<polygon fill="azure" stroke="none" points="1267,-47 1191,-47 1191,0 1267,0 1267,-47"/>
<text text-anchor="middle" x="1229" y="-15" font-family="Times New Roman,serif" font-size="35.00">R88</text>
</a>
</g>
</g>
<!-- R257&#45;&gt;R88 -->
<g id="edge7" class="edge">
<title>R257&#45;&gt;R88</title>
<path fill="none" stroke="black" d="M639.94,-162.1C642.72,-127.99 653.4,-65.53 694,-36.5 771.01,18.56 1064.83,-5.93 1180.66,-18.11"/>
<polygon fill="black" stroke="black" points="1179.98,-21.66 1190.3,-19.25 1180.73,-14.7 1179.98,-21.66"/>
<text text-anchor="middle" x="933.5" y="-45.5" font-family="Times New Roman,serif" font-size="30.00"> &#160;&#160;872 &#160;&#160;0% &#160;&#160;0.000508 mol/s &#160;&#160;&#160;8.41E&#45;04</text>
</g>
<!-- R305 -->
<g id="node6" class="node">
<title>R305</title>
<g id="a_node6"><a xlink:href="305.svg" xlink:title="R305">
<polygon fill="azure" stroke="none" points="94,-209 0,-209 0,-162 94,-162 94,-209"/>
<text text-anchor="middle" x="47" y="-177" font-family="Times New Roman,serif" font-size="35.00">R305</text>
</a>
</g>
</g>
<!-- R305&#45;&gt;R257 -->
<g id="edge5" class="edge">
<title>R305&#45;&gt;R257</title>
<path fill="none" stroke="black" d="M93.89,-190.88C96.97,-191.13 100.03,-191.34 103,-191.5 312.05,-202.87 367.59,-203.06 580.21,-191.48"/>
<polygon fill="black" stroke="black" points="580.32,-194.92 590.11,-190.88 579.94,-187.93 580.32,-194.92"/>
<text text-anchor="middle" x="342.5" y="-208.5" font-family="Times New Roman,serif" font-size="30.00"> &#160;&#160;782 &#160;&#160;0% &#160;&#160;0.000653 mol/s &#160;&#160;&#160;9.99E&#45;01</text>
</g>
<!-- R305&#45;&gt;R257 -->
<g id="edge8" class="edge">
<title>R305&#45;&gt;R257</title>
<path fill="none" stroke="black" stroke-width="5" d="M83.56,-162.05C89.81,-158.93 96.43,-156.22 103,-154.5 302.68,-102.1 371.89,-100.51 581.4,-156.62"/>
<polygon fill="black" stroke="black" stroke-width="5" points="573.85,-164.27 595.44,-161.05 578.42,-147.37 573.85,-164.27"/>
<text text-anchor="middle" x="342.5" y="-163.5" font-family="Times New Roman,serif" font-size="30.00"> &#160;&#160;964 &#160;&#160;99% &#160;&#160;0.572 mol/s &#160;&#160;&#160;1.14E&#45;03</text>
</g>
</g>
</svg>
