<?xml version="1.0" encoding="UTF-8" standalone="no"?>
<!DOCTYPE svg PUBLIC "-//W3C//DTD SVG 1.1//EN"
 "http://www.w3.org/Graphics/SVG/1.1/DTD/svg11.dtd">
<!-- Generated by graphviz version 8.0.3 (20230416.2022)
 -->
<!-- Title: G Pages: 1 -->
<svg width="640pt" height="171pt"
 viewBox="0.00 0.00 720.00 192.41" xmlns="http://www.w3.org/2000/svg" xmlns:xlink="http://www.w3.org/1999/xlink">
<g id="graph0" class="graph" transform="scale(0.490421 0.490421) rotate(0) translate(4 344.75)">
<title>G</title>
<polygon fill="white" stroke="none" points="-4,4 -4,-344.75 1301,-344.75 1301,4 -4,4"/>
<text text-anchor="middle" x="648.5" y="-307.95" font-family="Arial" font-size="36.00" fill="blue">Reaction Path Analysis</text>
<!-- R263 -->
<g id="node1" class="node">
<title>R263</title>
<g id="a_node1"><a xlink:href="263.svg" xlink:title="R263">
<polygon fill="azure" stroke="none" points="700,-173.25 606,-173.25 606,-126.25 700,-126.25 700,-173.25"/>
<text text-anchor="middle" x="653" y="-141.25" font-family="Times New Roman,serif" font-size="35.00">R263</text>
</a>
</g>
</g>
<!-- R60 -->
<g id="node2" class="node">
<title>R60</title>
<g id="a_node2"><a xlink:href="60.svg" xlink:title="R60">
<polygon fill="azure" stroke="none" points="1297,-206.25 1221,-206.25 1221,-159.25 1297,-159.25 1297,-206.25"/>
<text text-anchor="middle" x="1259" y="-174.25" font-family="Times New Roman,serif" font-size="35.00">R60</text>
</a>
</g>
</g>
<!-- R263&#45;&gt;R60 -->
<g id="edge1" class="edge">
<title>R263&#45;&gt;R60</title>
<path fill="none" stroke="black" stroke-width="6" d="M699.84,-157.73C707.87,-158.9 716.16,-159.98 724,-160.75 896.83,-177.83 1102.39,-181.7 1200.43,-182.54"/>
<polygon fill="black" stroke="black" stroke-width="6" points="1195.25,-193.05 1215.32,-182.69 1195.39,-172.05 1195.25,-193.05"/>
<text text-anchor="middle" x="956" y="-190.75" font-family="Times New Roman,serif" font-size="30.00"> &#160;&#160;359 &#160;&#160;100% &#160;&#160;0.828 mol/s &#160;&#160;&#160;5.16E&#45;07</text>
</g>
<!-- R13 -->
<g id="node3" class="node">
<title>R13</title>
<g id="a_node3"><a xlink:href="13.svg" xlink:title="R13">
<polygon fill="azure" stroke="none" points="1297,-141.25 1221,-141.25 1221,-94.25 1297,-94.25 1297,-141.25"/>
<text text-anchor="middle" x="1259" y="-109.25" font-family="Times New Roman,serif" font-size="35.00">R13</text>
</a>
</g>
</g>
<!-- R263&#45;&gt;R13 -->
<g id="edge2" class="edge">
<title>R263&#45;&gt;R13</title>
<path fill="none" stroke="black" stroke-width="6" d="M699.86,-133.3C707.82,-131.03 716.08,-129.04 724,-127.75 895.47,-99.8 1102,-107.4 1200.41,-113.49"/>
<polygon fill="black" stroke="black" stroke-width="6" points="1194.45,-124.02 1215.1,-114.85 1195.83,-103.07 1194.45,-124.02"/>
<text text-anchor="middle" x="956" y="-136.75" font-family="Times New Roman,serif" font-size="30.00"> &#160;&#160;359 &#160;&#160;100% &#160;&#160;0.828 mol/s &#160;&#160;&#160;5.16E&#45;07</text>
</g>
<!-- R356 -->
<g id="node4" class="node">
<title>R356</title>
<g id="a_node4"><a xlink:href="356.svg" xlink:title="R356">
<polygon fill="azure" stroke="none" points="94,-217.25 0,-217.25 0,-170.25 94,-170.25 94,-217.25"/>
<text text-anchor="middle" x="47" y="-185.25" font-family="Times New Roman,serif" font-size="35.00">R356</text>
</a>
</g>
</g>
<!-- R356&#45;&gt;R263 -->
<g id="edge3" class="edge">
<title>R356&#45;&gt;R263</title>
<path fill="none" stroke="black" stroke-width="5" d="M93.95,-209.96C96.99,-210.67 100.02,-211.28 103,-211.75 319.82,-246.33 396.76,-301.79 597,-211.75 607.99,-206.81 617.68,-198.47 625.74,-189.47"/>
<polygon fill="black" stroke="black" stroke-width="5" points="630.03,-198.34 635.41,-177.19 616.22,-187.59 630.03,-198.34"/>
<text text-anchor="middle" x="350" y="-268.75" font-family="Times New Roman,serif" font-size="30.00"> &#160;&#160;744 &#160;&#160;97% &#160;&#160;0.284 mol/s &#160;&#160;&#160;2.29E&#45;03</text>
</g>
<!-- R356&#45;&gt;R263 -->
<g id="edge6" class="edge">
<title>R356&#45;&gt;R263</title>
<path fill="none" stroke="black" d="M93.95,-176.78C96.99,-176 100.02,-175.31 103,-174.75 207.81,-155.08 471.38,-163.3 595.28,-155.73"/>
<polygon fill="black" stroke="black" points="595.36,-159.17 605.11,-155 594.89,-152.18 595.36,-159.17"/>
<text text-anchor="middle" x="350" y="-183.75" font-family="Times New Roman,serif" font-size="30.00"> &#160;&#160;1023 &#160;&#160;0% &#160;&#160;0.000652 mol/s &#160;&#160;&#160;9.98E&#45;01</text>
</g>
<!-- R304 -->
<g id="node5" class="node">
<title>R304</title>
<g id="a_node5"><a xlink:href="304.svg" xlink:title="R304">
<polygon fill="azure" stroke="none" points="94,-129.25 0,-129.25 0,-82.25 94,-82.25 94,-129.25"/>
<text text-anchor="middle" x="47" y="-97.25" font-family="Times New Roman,serif" font-size="35.00">R304</text>
</a>
</g>
</g>
<!-- R304&#45;&gt;R263 -->
<g id="edge4" class="edge">
<title>R304&#45;&gt;R263</title>
<path fill="none" stroke="black" d="M93.81,-104.69C207.88,-102.45 502.26,-99.2 597,-122.75 597.36,-122.84 597.72,-122.93 598.08,-123.03"/>
<polygon fill="black" stroke="black" points="596.91,-126.65 607.5,-126.37 599.04,-119.98 596.91,-126.65"/>
<text text-anchor="middle" x="350" y="-131.75" font-family="Times New Roman,serif" font-size="30.00"> &#160;&#160;745 &#160;&#160;2% &#160;&#160;0.00732 mol/s &#160;&#160;&#160;7.58E&#45;02</text>
</g>
<!-- R304&#45;&gt;R263 -->
<g id="edge5" class="edge">
<title>R304&#45;&gt;R263</title>
<path fill="none" stroke="black" d="M73.24,-82.3C82.01,-75.62 92.33,-69.22 103,-65.75 311.79,2.14 403.85,38.65 597,-65.75 616.93,-76.52 630.79,-98 639.62,-116.54"/>
<polygon fill="black" stroke="black" points="636.76,-117.73 644.01,-125.45 643.16,-114.89 636.76,-117.73"/>
<text text-anchor="middle" x="350" y="-74.75" font-family="Times New Roman,serif" font-size="30.00"> &#160;&#160;985 &#160;&#160;0% &#160;&#160;0.0006 mol/s &#160;&#160;&#160;9.24E&#45;01</text>
</g>
</g>
</svg>
