<?xml version="1.0" encoding="UTF-8" standalone="no"?>
<!DOCTYPE svg PUBLIC "-//W3C//DTD SVG 1.1//EN"
 "http://www.w3.org/Graphics/SVG/1.1/DTD/svg11.dtd">
<!-- Generated by graphviz version 8.0.3 (20230416.2022)
 -->
<!-- Title: G Pages: 1 -->
<svg width="640pt" height="128pt"
 viewBox="0.00 0.00 720.00 144.28" xmlns="http://www.w3.org/2000/svg" xmlns:xlink="http://www.w3.org/1999/xlink">
<g id="graph0" class="graph" transform="scale(0.501961 0.501961) rotate(0) translate(4 251.5)">
<title>G</title>
<polygon fill="white" stroke="none" points="-4,4 -4,-251.5 1271,-251.5 1271,4 -4,4"/>
<text text-anchor="middle" x="633.5" y="-214.7" font-family="Arial" font-size="36.00" fill="blue">Reaction Path Analysis</text>
<!-- R264 -->
<g id="node1" class="node">
<title>R264</title>
<g id="a_node1"><a xlink:href="264.svg" xlink:title="R264">
<polygon fill="azure" stroke="none" points="676,-112 582,-112 582,-65 676,-65 676,-112"/>
<text text-anchor="middle" x="629" y="-80" font-family="Times New Roman,serif" font-size="35.00">R264</text>
</a>
</g>
</g>
<!-- R13 -->
<g id="node2" class="node">
<title>R13</title>
<g id="a_node2"><a xlink:href="13.svg" xlink:title="R13">
<polygon fill="azure" stroke="none" points="1258,-177 1182,-177 1182,-130 1258,-130 1258,-177"/>
<text text-anchor="middle" x="1220" y="-145" font-family="Times New Roman,serif" font-size="35.00">R13</text>
</a>
</g>
</g>
<!-- R264&#45;&gt;R13 -->
<g id="edge1" class="edge">
<title>R264&#45;&gt;R13</title>
<path fill="none" stroke="black" stroke-width="5" d="M660.41,-111.82C669.05,-117.28 678.77,-122.4 688.5,-125.5 853.56,-178.07 1062,-168.57 1161.3,-159.78"/>
<polygon fill="black" stroke="black" stroke-width="5" points="1157.08,-168.4 1176.17,-157.8 1155.43,-150.98 1157.08,-168.4"/>
<text text-anchor="middle" x="924.5" y="-175.5" font-family="Times New Roman,serif" font-size="30.00"> &#160;&#160;360 &#160;&#160;99% &#160;&#160;0.0589 mol/s &#160;&#160;&#160;7.26E&#45;06</text>
</g>
<!-- R86 -->
<g id="node3" class="node">
<title>R86</title>
<g id="a_node3"><a xlink:href="86.svg" xlink:title="R86">
<polygon fill="azure" stroke="none" points="1258,-112 1182,-112 1182,-65 1258,-65 1258,-112"/>
<text text-anchor="middle" x="1220" y="-80" font-family="Times New Roman,serif" font-size="35.00">R86</text>
</a>
</g>
</g>
<!-- R264&#45;&gt;R86 -->
<g id="edge2" class="edge">
<title>R264&#45;&gt;R86</title>
<path fill="none" stroke="black" stroke-width="5" d="M675.73,-88.5C781.87,-88.5 1044.77,-88.5 1161.54,-88.5"/>
<polygon fill="black" stroke="black" stroke-width="5" points="1156.21,-97.25 1176.21,-88.5 1156.21,-79.75 1156.21,-97.25"/>
<text text-anchor="middle" x="924.5" y="-97.5" font-family="Times New Roman,serif" font-size="30.00"> &#160;&#160;360 &#160;&#160;99% &#160;&#160;0.0589 mol/s &#160;&#160;&#160;7.26E&#45;06</text>
</g>
<!-- R267 -->
<g id="node4" class="node">
<title>R267</title>
<g id="a_node4"><a xlink:href="267.svg" xlink:title="R267">
<polygon fill="azure" stroke="none" points="1267,-47 1173,-47 1173,0 1267,0 1267,-47"/>
<text text-anchor="middle" x="1220" y="-15" font-family="Times New Roman,serif" font-size="35.00">R267</text>
</a>
</g>
</g>
<!-- R264&#45;&gt;R267 -->
<g id="edge3" class="edge">
<title>R264&#45;&gt;R267</title>
<path fill="none" stroke="black" d="M660.41,-65.18C669.05,-59.72 678.77,-54.6 688.5,-51.5 854.14,1.26 1063.45,-8.49 1162.33,-17.31"/>
<polygon fill="black" stroke="black" points="1161.98,-20.88 1172.26,-18.32 1162.63,-13.91 1161.98,-20.88"/>
<text text-anchor="middle" x="924.5" y="-60.5" font-family="Times New Roman,serif" font-size="30.00"> &#160;&#160;537 &#160;&#160;0% &#160;&#160;3.64e&#45;07 mol/s &#160;&#160;&#160;8.71E&#45;01</text>
</g>
<!-- R99 -->
<g id="node5" class="node">
<title>R99</title>
<g id="a_node5"><a xlink:href="99.svg" xlink:title="R99">
<polygon fill="azure" stroke="none" points="76,-112 0,-112 0,-65 76,-65 76,-112"/>
<text text-anchor="middle" x="38" y="-80" font-family="Times New Roman,serif" font-size="35.00">R99</text>
</a>
</g>
</g>
<!-- R99&#45;&gt;R264 -->
<g id="edge4" class="edge">
<title>R99&#45;&gt;R264</title>
<path fill="none" stroke="black" stroke-width="5" d="M75.94,-93.09C81.96,-93.67 88.15,-94.18 94,-94.5 299.72,-105.69 356.79,-106.05 561.19,-95.02"/>
<polygon fill="black" stroke="black" stroke-width="5" points="556.62,-103.71 576.11,-93.88 555.67,-86.23 556.62,-103.71"/>
<text text-anchor="middle" x="333.5" y="-111.5" font-family="Times New Roman,serif" font-size="30.00"> &#160;&#160;746 &#160;&#160;99% &#160;&#160;0.0857 mol/s &#160;&#160;&#160;7.52E&#45;03</text>
</g>
<!-- R99&#45;&gt;R264 -->
<g id="edge5" class="edge">
<title>R99&#45;&gt;R264</title>
<path fill="none" stroke="black" d="M74.56,-65.05C80.81,-61.93 87.43,-59.22 94,-57.5 299.92,-3.46 367.08,-3.46 573,-57.5 576.18,-58.34 579.38,-59.4 582.54,-60.63"/>
<polygon fill="black" stroke="black" points="580.88,-64.17 591.44,-65.05 583.73,-57.78 580.88,-64.17"/>
<text text-anchor="middle" x="333.5" y="-66.5" font-family="Times New Roman,serif" font-size="30.00"> &#160;&#160;919 &#160;&#160;0% &#160;&#160;0.000649 mol/s &#160;&#160;&#160;9.92E&#45;01</text>
</g>
</g>
</svg>
