<?xml version="1.0" encoding="UTF-8" standalone="no"?>
<!DOCTYPE svg PUBLIC "-//W3C//DTD SVG 1.1//EN"
 "http://www.w3.org/Graphics/SVG/1.1/DTD/svg11.dtd">
<!-- Generated by graphviz version 8.0.3 (20230416.2022)
 -->
<!-- Title: G Pages: 1 -->
<svg width="640pt" height="171pt"
 viewBox="0.00 0.00 720.00 192.35" xmlns="http://www.w3.org/2000/svg" xmlns:xlink="http://www.w3.org/1999/xlink">
<g id="graph0" class="graph" transform="scale(0.47619 0.47619) rotate(0) translate(4 355.05)">
<title>G</title>
<polygon fill="white" stroke="none" points="-4,4 -4,-355.05 1340,-355.05 1340,4 -4,4"/>
<text text-anchor="middle" x="668" y="-318.25" font-family="Arial" font-size="36.00" fill="blue">Reaction Path Analysis</text>
<!-- R268 -->
<g id="node1" class="node">
<title>R268</title>
<g id="a_node1"><a xlink:href="268.svg" xlink:title="R268">
<polygon fill="azure" stroke="none" points="715,-164.55 621,-164.55 621,-117.55 715,-117.55 715,-164.55"/>
<text text-anchor="middle" x="668" y="-132.55" font-family="Times New Roman,serif" font-size="35.00">R268</text>
</a>
</g>
</g>
<!-- R13 -->
<g id="node2" class="node">
<title>R13</title>
<g id="a_node2"><a xlink:href="13.svg" xlink:title="R13">
<polygon fill="azure" stroke="none" points="1327,-262.55 1251,-262.55 1251,-215.55 1327,-215.55 1327,-262.55"/>
<text text-anchor="middle" x="1289" y="-230.55" font-family="Times New Roman,serif" font-size="35.00">R13</text>
</a>
</g>
</g>
<!-- R268&#45;&gt;R13 -->
<g id="edge1" class="edge">
<title>R268&#45;&gt;R13</title>
<path fill="none" stroke="black" stroke-width="5" d="M680.41,-164.33C689.72,-180.53 704.51,-200.97 724,-211.05 890.84,-297.32 1123.85,-270.14 1230.54,-251.01"/>
<polygon fill="black" stroke="black" stroke-width="5" points="1226.99,-260.45 1245.02,-248.15 1223.75,-243.25 1226.99,-260.45"/>
<text text-anchor="middle" x="978.5" y="-279.05" font-family="Times New Roman,serif" font-size="30.00"> &#160;&#160;364 &#160;&#160;99% &#160;&#160;5580000.0 mol/s &#160;&#160;&#160;7.66E&#45;14</text>
</g>
<!-- R87 -->
<g id="node3" class="node">
<title>R87</title>
<g id="a_node3"><a xlink:href="87.svg" xlink:title="R87">
<polygon fill="azure" stroke="none" points="1327,-197.55 1251,-197.55 1251,-150.55 1327,-150.55 1327,-197.55"/>
<text text-anchor="middle" x="1289" y="-165.55" font-family="Times New Roman,serif" font-size="35.00">R87</text>
</a>
</g>
</g>
<!-- R268&#45;&gt;R87 -->
<g id="edge2" class="edge">
<title>R268&#45;&gt;R87</title>
<path fill="none" stroke="black" stroke-width="5" d="M714.83,-150.78C717.92,-151.26 721,-151.69 724,-152.05 908.06,-173.9 1128.05,-175.47 1230.37,-174.8"/>
<polygon fill="black" stroke="black" stroke-width="5" points="1225.3,-183.54 1245.22,-174.62 1225.15,-166.04 1225.3,-183.54"/>
<text text-anchor="middle" x="978.5" y="-183.05" font-family="Times New Roman,serif" font-size="30.00"> &#160;&#160;364 &#160;&#160;99% &#160;&#160;5580000.0 mol/s &#160;&#160;&#160;7.66E&#45;14</text>
</g>
<!-- R0 -->
<g id="node4" class="node">
<title>R0</title>
<g id="a_node4"><a xlink:href="0.svg" xlink:title="R0">
<polygon fill="azure" stroke="none" points="1318,-132.55 1260,-132.55 1260,-85.55 1318,-85.55 1318,-132.55"/>
<text text-anchor="middle" x="1289" y="-100.55" font-family="Times New Roman,serif" font-size="35.00">R0</text>
</a>
</g>
</g>
<!-- R268&#45;&gt;R0 -->
<g id="edge3" class="edge">
<title>R268&#45;&gt;R0</title>
<path fill="none" stroke="black" d="M714.84,-121.31C717.9,-120.43 720.98,-119.66 724,-119.05 917.98,-79.9 1157.13,-96.32 1249.28,-104.98"/>
<polygon fill="black" stroke="black" points="1248.74,-108.54 1259.03,-106.02 1249.42,-101.57 1248.74,-108.54"/>
<text text-anchor="middle" x="978.5" y="-128.05" font-family="Times New Roman,serif" font-size="30.00"> &#160;&#160;833 &#160;&#160;0% &#160;&#160;1.16e&#45;05 mol/s &#160;&#160;&#160;3.44E&#45;02</text>
</g>
<!-- R265 -->
<g id="node5" class="node">
<title>R265</title>
<g id="a_node5"><a xlink:href="265.svg" xlink:title="R265">
<polygon fill="azure" stroke="none" points="1336,-67.55 1242,-67.55 1242,-20.55 1336,-20.55 1336,-67.55"/>
<text text-anchor="middle" x="1289" y="-35.55" font-family="Times New Roman,serif" font-size="35.00">R265</text>
</a>
</g>
</g>
<!-- R268&#45;&gt;R265 -->
<g id="edge4" class="edge">
<title>R268&#45;&gt;R265</title>
<path fill="none" stroke="black" d="M677.31,-117.77C685.73,-97.99 700.86,-70.85 724,-58.05 889.11,33.27 1125.09,-4.91 1231.79,-29.41"/>
<polygon fill="black" stroke="black" points="1230.78,-33 1241.32,-31.88 1232.38,-26.19 1230.78,-33"/>
<text text-anchor="middle" x="978.5" y="-67.05" font-family="Times New Roman,serif" font-size="30.00"> &#160;&#160;833 &#160;&#160;0% &#160;&#160;1.16e&#45;05 mol/s &#160;&#160;&#160;3.44E&#45;02</text>
</g>
<!-- R395 -->
<g id="node6" class="node">
<title>R395</title>
<g id="a_node6"><a xlink:href="395.svg" xlink:title="R395">
<polygon fill="azure" stroke="none" points="94,-164.55 0,-164.55 0,-117.55 94,-117.55 94,-164.55"/>
<text text-anchor="middle" x="47" y="-132.55" font-family="Times New Roman,serif" font-size="35.00">R395</text>
</a>
</g>
</g>
<!-- R395&#45;&gt;R268 -->
<g id="edge5" class="edge">
<title>R395&#45;&gt;R268</title>
<path fill="none" stroke="black" stroke-width="5" d="M93.7,-145.94C99.35,-146.4 105.06,-146.79 110.5,-147.05 323.17,-157.23 381.69,-157.54 600.34,-146.97"/>
<polygon fill="black" stroke="black" stroke-width="5" points="595.75,-155.66 615.3,-145.94 594.89,-138.18 595.75,-155.66"/>
<text text-anchor="middle" x="357.5" y="-163.05" font-family="Times New Roman,serif" font-size="30.00"> &#160;&#160;967 &#160;&#160;91% &#160;&#160;0.00629 mol/s &#160;&#160;&#160;8.60E&#45;02</text>
</g>
<!-- R395&#45;&gt;R268 -->
<g id="edge6" class="edge">
<title>R395&#45;&gt;R268</title>
<path fill="none" stroke="black" d="M88.68,-117.57C95.75,-114.46 103.19,-111.76 110.5,-110.05 324.26,-59.95 390.74,-59.95 604.5,-110.05 608.38,-110.96 612.3,-112.15 616.18,-113.53"/>
<polygon fill="black" stroke="black" points="614.73,-117.12 625.32,-117.57 617.33,-110.62 614.73,-117.12"/>
<text text-anchor="middle" x="357.5" y="-119.05" font-family="Times New Roman,serif" font-size="30.00"> &#160;&#160;1054 &#160;&#160;8% &#160;&#160;0.000592 mol/s &#160;&#160;&#160;9.14E&#45;01</text>
</g>
</g>
</svg>
