<?xml version="1.0" encoding="UTF-8" standalone="no"?>
<!DOCTYPE svg PUBLIC "-//W3C//DTD SVG 1.1//EN"
 "http://www.w3.org/Graphics/SVG/1.1/DTD/svg11.dtd">
<!-- Generated by graphviz version 8.0.3 (20230416.2022)
 -->
<!-- Title: G Pages: 1 -->
<svg width="640pt" height="161pt"
 viewBox="0.00 0.00 720.00 181.35" xmlns="http://www.w3.org/2000/svg" xmlns:xlink="http://www.w3.org/1999/xlink">
<g id="graph0" class="graph" transform="scale(0.498442 0.498442) rotate(0) translate(4 319.41)">
<title>G</title>
<polygon fill="white" stroke="none" points="-4,4 -4,-319.41 1280,-319.41 1280,4 -4,4"/>
<text text-anchor="middle" x="638" y="-282.61" font-family="Arial" font-size="36.00" fill="blue">Reaction Path Analysis</text>
<!-- R269 -->
<g id="node1" class="node">
<title>R269</title>
<g id="a_node1"><a xlink:href="269.svg" xlink:title="R269">
<polygon fill="azure" stroke="none" points="685,-139.91 591,-139.91 591,-92.91 685,-92.91 685,-139.91"/>
<text text-anchor="middle" x="638" y="-107.91" font-family="Times New Roman,serif" font-size="35.00">R269</text>
</a>
</g>
</g>
<!-- R87 -->
<g id="node2" class="node">
<title>R87</title>
<g id="a_node2"><a xlink:href="87.svg" xlink:title="R87">
<polygon fill="azure" stroke="none" points="1267,-232.91 1191,-232.91 1191,-185.91 1267,-185.91 1267,-232.91"/>
<text text-anchor="middle" x="1229" y="-200.91" font-family="Times New Roman,serif" font-size="35.00">R87</text>
</a>
</g>
</g>
<!-- R269&#45;&gt;R87 -->
<g id="edge1" class="edge">
<title>R269&#45;&gt;R87</title>
<path fill="none" stroke="black" stroke-width="5" d="M652.66,-139.87C662.27,-154 676.52,-170.86 694,-179.41 852.16,-256.71 1068.94,-235.97 1170.77,-220"/>
<polygon fill="black" stroke="black" stroke-width="5" points="1166.96,-229.51 1185.26,-217.61 1164.09,-212.24 1166.96,-229.51"/>
<text text-anchor="middle" x="933.5" y="-243.41" font-family="Times New Roman,serif" font-size="30.00"> &#160;&#160;365 &#160;&#160;99% &#160;&#160;11.6 mol/s &#160;&#160;&#160;3.67E&#45;08</text>
</g>
<!-- R13 -->
<g id="node3" class="node">
<title>R13</title>
<g id="a_node3"><a xlink:href="13.svg" xlink:title="R13">
<polygon fill="azure" stroke="none" points="1267,-167.91 1191,-167.91 1191,-120.91 1267,-120.91 1267,-167.91"/>
<text text-anchor="middle" x="1229" y="-135.91" font-family="Times New Roman,serif" font-size="35.00">R13</text>
</a>
</g>
</g>
<!-- R269&#45;&gt;R13 -->
<g id="edge2" class="edge">
<title>R269&#45;&gt;R13</title>
<path fill="none" stroke="black" stroke-width="5" d="M684.89,-121.65C687.97,-121.93 691.03,-122.18 694,-122.41 866.97,-135.39 1072.07,-141.14 1170.14,-143.3"/>
<polygon fill="black" stroke="black" stroke-width="5" points="1164.87,-152.07 1185.05,-143.74 1165.24,-134.57 1164.87,-152.07"/>
<text text-anchor="middle" x="933.5" y="-151.41" font-family="Times New Roman,serif" font-size="30.00"> &#160;&#160;365 &#160;&#160;99% &#160;&#160;11.6 mol/s &#160;&#160;&#160;3.67E&#45;08</text>
</g>
<!-- R153 -->
<g id="node5" class="node">
<title>R153</title>
<g id="a_node5"><a xlink:href="153.svg" xlink:title="R153">
<polygon fill="azure" stroke="none" points="1276,-79.91 1182,-79.91 1182,-32.91 1276,-32.91 1276,-79.91"/>
<text text-anchor="middle" x="1229" y="-47.91" font-family="Times New Roman,serif" font-size="35.00">R153</text>
</a>
</g>
</g>
<!-- R269&#45;&gt;R153 -->
<g id="edge5" class="edge">
<title>R269&#45;&gt;R153</title>
<path fill="none" stroke="black" d="M674.92,-93.02C681.08,-89.95 687.57,-87.23 694,-85.41 793.38,-57.21 1050.88,-76.8 1171.29,-66.31"/>
<polygon fill="black" stroke="black" points="1171.55,-69.7 1181.15,-65.24 1170.86,-62.74 1171.55,-69.7"/>
<text text-anchor="middle" x="933.5" y="-94.41" font-family="Times New Roman,serif" font-size="30.00"> &#160;&#160;750 &#160;&#160;0% &#160;&#160;0.000544 mol/s &#160;&#160;&#160;8.56E&#45;01</text>
</g>
<!-- R269&#45;&gt;R153 -->
<g id="edge6" class="edge">
<title>R269&#45;&gt;R153</title>
<path fill="none" stroke="black" d="M646.44,-93.11C654.5,-72.22 669.58,-42.86 694,-29.41 787.23,21.96 1069.31,-5.33 1173,-29.41 1173.49,-29.52 1173.99,-29.64 1174.48,-29.76"/>
<polygon fill="black" stroke="black" points="1173.25,-33.36 1183.84,-33 1175.34,-26.68 1173.25,-33.36"/>
<text text-anchor="middle" x="933.5" y="-38.41" font-family="Times New Roman,serif" font-size="30.00"> &#160;&#160;940 &#160;&#160;0% &#160;&#160;0.00323 mol/s &#160;&#160;&#160;1.44E&#45;01</text>
</g>
<!-- R139 -->
<g id="node4" class="node">
<title>R139</title>
<g id="a_node4"><a xlink:href="139.svg" xlink:title="R139">
<polygon fill="azure" stroke="none" points="94,-139.91 0,-139.91 0,-92.91 94,-92.91 94,-139.91"/>
<text text-anchor="middle" x="47" y="-107.91" font-family="Times New Roman,serif" font-size="35.00">R139</text>
</a>
</g>
</g>
<!-- R139&#45;&gt;R269 -->
<g id="edge3" class="edge">
<title>R139&#45;&gt;R269</title>
<path fill="none" stroke="black" d="M93.89,-121.79C96.97,-122.03 100.03,-122.24 103,-122.41 312.05,-133.77 367.59,-133.96 580.21,-122.38"/>
<polygon fill="black" stroke="black" points="580.32,-125.83 590.11,-121.79 579.94,-118.84 580.32,-125.83"/>
<text text-anchor="middle" x="342.5" y="-139.41" font-family="Times New Roman,serif" font-size="30.00"> &#160;&#160;665 &#160;&#160;0% &#160;&#160;0.000652 mol/s &#160;&#160;&#160;9.97E&#45;01</text>
</g>
<!-- R139&#45;&gt;R269 -->
<g id="edge4" class="edge">
<title>R139&#45;&gt;R269</title>
<path fill="none" stroke="black" stroke-width="5" d="M83.56,-92.95C89.81,-89.84 96.43,-87.13 103,-85.41 302.68,-33.01 371.89,-31.42 581.4,-87.53"/>
<polygon fill="black" stroke="black" stroke-width="5" points="573.85,-95.17 595.44,-91.95 578.42,-78.28 573.85,-95.17"/>
<text text-anchor="middle" x="342.5" y="-94.41" font-family="Times New Roman,serif" font-size="30.00"> &#160;&#160;749 &#160;&#160;99% &#160;&#160;0.244 mol/s &#160;&#160;&#160;2.66E&#45;03</text>
</g>
</g>
</svg>
