<?xml version="1.0" encoding="UTF-8" standalone="no"?>
<!DOCTYPE svg PUBLIC "-//W3C//DTD SVG 1.1//EN"
 "http://www.w3.org/Graphics/SVG/1.1/DTD/svg11.dtd">
<!-- Generated by graphviz version 8.0.3 (20230416.2022)
 -->
<!-- Title: G Pages: 1 -->
<svg width="640pt" height="173pt"
 viewBox="0.00 0.00 720.00 194.15" xmlns="http://www.w3.org/2000/svg" xmlns:xlink="http://www.w3.org/1999/xlink">
<g id="graph0" class="graph" transform="scale(0.481203 0.481203) rotate(0) translate(4 354.63)">
<title>G</title>
<polygon fill="white" stroke="none" points="-4,4 -4,-354.63 1326,-354.63 1326,4 -4,4"/>
<text text-anchor="middle" x="661" y="-317.83" font-family="Arial" font-size="36.00" fill="blue">Reaction Path Analysis</text>
<!-- R275 -->
<g id="node1" class="node">
<title>R275</title>
<g id="a_node1"><a xlink:href="275.svg" xlink:title="R275">
<polygon fill="azure" stroke="none" points="708,-172.13 614,-172.13 614,-125.13 708,-125.13 708,-172.13"/>
<text text-anchor="middle" x="661" y="-140.13" font-family="Times New Roman,serif" font-size="35.00">R275</text>
</a>
</g>
</g>
<!-- R15 -->
<g id="node2" class="node">
<title>R15</title>
<g id="a_node2"><a xlink:href="15.svg" xlink:title="R15">
<polygon fill="azure" stroke="none" points="1313,-237.13 1237,-237.13 1237,-190.13 1313,-190.13 1313,-237.13"/>
<text text-anchor="middle" x="1275" y="-205.13" font-family="Times New Roman,serif" font-size="35.00">R15</text>
</a>
</g>
</g>
<!-- R275&#45;&gt;R15 -->
<g id="edge1" class="edge">
<title>R275&#45;&gt;R15</title>
<path fill="none" stroke="black" stroke-width="5" d="M698.9,-171.95C709.23,-177.41 720.74,-182.53 732,-185.63 903.22,-232.82 1116.14,-225.7 1216.53,-218.66"/>
<polygon fill="black" stroke="black" stroke-width="5" points="1212.03,-227.33 1231.31,-217.09 1210.71,-209.88 1212.03,-227.33"/>
<text text-anchor="middle" x="968" y="-232.63" font-family="Times New Roman,serif" font-size="30.00"> &#160;&#160;372 &#160;&#160;99% &#160;&#160;0.0504 mol/s &#160;&#160;&#160;8.48E&#45;06</text>
</g>
<!-- R14 -->
<g id="node3" class="node">
<title>R14</title>
<g id="a_node3"><a xlink:href="14.svg" xlink:title="R14">
<polygon fill="azure" stroke="none" points="1313,-172.13 1237,-172.13 1237,-125.13 1313,-125.13 1313,-172.13"/>
<text text-anchor="middle" x="1275" y="-140.13" font-family="Times New Roman,serif" font-size="35.00">R14</text>
</a>
</g>
</g>
<!-- R275&#45;&gt;R14 -->
<g id="edge2" class="edge">
<title>R275&#45;&gt;R14</title>
<path fill="none" stroke="black" stroke-width="5" d="M708,-148.63C817.91,-148.63 1095.61,-148.63 1216.4,-148.63"/>
<polygon fill="black" stroke="black" stroke-width="5" points="1211.05,-157.38 1231.05,-148.63 1211.05,-139.88 1211.05,-157.38"/>
<text text-anchor="middle" x="968" y="-157.63" font-family="Times New Roman,serif" font-size="30.00"> &#160;&#160;372 &#160;&#160;99% &#160;&#160;0.0504 mol/s &#160;&#160;&#160;8.48E&#45;06</text>
</g>
<!-- R298 -->
<g id="node6" class="node">
<title>R298</title>
<g id="a_node6"><a xlink:href="298.svg" xlink:title="R298">
<polygon fill="azure" stroke="none" points="1322,-107.13 1228,-107.13 1228,-60.13 1322,-60.13 1322,-107.13"/>
<text text-anchor="middle" x="1275" y="-75.13" font-family="Times New Roman,serif" font-size="35.00">R298</text>
</a>
</g>
</g>
<!-- R275&#45;&gt;R298 -->
<g id="edge5" class="edge">
<title>R275&#45;&gt;R298</title>
<path fill="none" stroke="green" d="M698.9,-125.32C709.23,-119.86 720.74,-114.74 732,-111.63 903.82,-64.28 1117.65,-71.62 1217.59,-78.68"/>
<polygon fill="green" stroke="green" points="1217.11,-82.23 1227.34,-79.47 1217.62,-75.25 1217.11,-82.23"/>
<text text-anchor="middle" x="968" y="-120.63" font-family="Times New Roman,serif" font-size="30.00"> &#160;&#160;834 &#160;&#160;0% &#160;&#160;6.33e&#45;08 mol/s &#160;&#160;&#160;5.40E&#45;01</text>
</g>
<!-- R0 -->
<g id="node4" class="node">
<title>R0</title>
<g id="a_node4"><a xlink:href="0.svg" xlink:title="R0">
<polygon fill="azure" stroke="none" points="76,-265.13 18,-265.13 18,-218.13 76,-218.13 76,-265.13"/>
<text text-anchor="middle" x="47" y="-233.13" font-family="Times New Roman,serif" font-size="35.00">R0</text>
</a>
</g>
</g>
<!-- R0&#45;&gt;R275 -->
<g id="edge3" class="edge">
<title>R0&#45;&gt;R275</title>
<path fill="none" stroke="black" d="M75.98,-247.49C160.9,-263.81 421.17,-302.9 605,-212.63 619.39,-205.57 631.53,-192.85 640.71,-180.6"/>
<polygon fill="black" stroke="black" points="643.97,-183.04 646.86,-172.85 638.25,-179.02 643.97,-183.04"/>
<text text-anchor="middle" x="354" y="-278.63" font-family="Times New Roman,serif" font-size="30.00"> &#160;&#160;518 &#160;&#160;0% &#160;&#160;3.26e&#45;07 mol/s &#160;&#160;&#160;8.07E&#45;01</text>
</g>
<!-- R241 -->
<g id="node5" class="node">
<title>R241</title>
<g id="a_node5"><a xlink:href="241.svg" xlink:title="R241">
<polygon fill="azure" stroke="none" points="94,-200.13 0,-200.13 0,-153.13 94,-153.13 94,-200.13"/>
<text text-anchor="middle" x="47" y="-168.13" font-family="Times New Roman,serif" font-size="35.00">R241</text>
</a>
</g>
</g>
<!-- R241&#45;&gt;R275 -->
<g id="edge4" class="edge">
<title>R241&#45;&gt;R275</title>
<path fill="none" stroke="black" d="M93.91,-175.9C187.53,-174.16 407.46,-168.88 603.32,-154.67"/>
<polygon fill="black" stroke="black" points="603.39,-158.11 613.11,-153.88 602.88,-151.12 603.39,-158.11"/>
<text text-anchor="middle" x="354" y="-184.63" font-family="Times New Roman,serif" font-size="30.00"> &#160;&#160;518 &#160;&#160;0% &#160;&#160;3.26e&#45;07 mol/s &#160;&#160;&#160;8.07E&#45;01</text>
</g>
<!-- R337 -->
<g id="node7" class="node">
<title>R337</title>
<g id="a_node7"><a xlink:href="337.svg" xlink:title="R337">
<polygon fill="azure" stroke="none" points="94,-112.13 0,-112.13 0,-65.13 94,-65.13 94,-112.13"/>
<text text-anchor="middle" x="47" y="-80.13" font-family="Times New Roman,serif" font-size="35.00">R337</text>
</a>
</g>
</g>
<!-- R337&#45;&gt;R275 -->
<g id="edge6" class="edge">
<title>R337&#45;&gt;R275</title>
<path fill="none" stroke="black" stroke-width="5" d="M93.84,-97.47C96.94,-97.91 100.01,-98.31 103,-98.63 208.45,-110.16 469.75,-89.51 604.05,-120.01"/>
<polygon fill="black" stroke="black" stroke-width="5" points="596.52,-127.66 618.08,-124.24 600.94,-110.72 596.52,-127.66"/>
<text text-anchor="middle" x="354" y="-126.63" font-family="Times New Roman,serif" font-size="30.00"> &#160;&#160;969 &#160;&#160;99% &#160;&#160;159.0 mol/s &#160;&#160;&#160;4.11E&#45;06</text>
</g>
<!-- R337&#45;&gt;R275 -->
<g id="edge7" class="edge">
<title>R337&#45;&gt;R275</title>
<path fill="none" stroke="black" d="M91.16,-65.23C95.08,-63.79 99.06,-62.55 103,-61.63 320.33,-11.17 409.58,46.02 605,-61.63 625.7,-73.04 639.69,-95.87 648.38,-115.29"/>
<polygon fill="black" stroke="black" points="645.48,-116.45 652.56,-124.34 651.95,-113.76 645.48,-116.45"/>
<text text-anchor="middle" x="354" y="-70.63" font-family="Times New Roman,serif" font-size="30.00"> &#160;&#160;1004 &#160;&#160;0% &#160;&#160;0.000654 mol/s &#160;&#160;&#160;1.00E+00</text>
</g>
</g>
</svg>
