<?xml version="1.0" encoding="UTF-8" standalone="no"?>
<!DOCTYPE svg PUBLIC "-//W3C//DTD SVG 1.1//EN"
 "http://www.w3.org/Graphics/SVG/1.1/DTD/svg11.dtd">
<!-- Generated by graphviz version 8.0.3 (20230416.2022)
 -->
<!-- Title: G Pages: 1 -->
<svg width="640pt" height="245pt"
 viewBox="0.00 0.00 720.00 275.55" xmlns="http://www.w3.org/2000/svg" xmlns:xlink="http://www.w3.org/1999/xlink">
<g id="graph0" class="graph" transform="scale(0.503937 0.503937) rotate(0) translate(4 482.04)">
<title>G</title>
<polygon fill="white" stroke="none" points="-4,4 -4,-482.04 1266,-482.04 1266,4 -4,4"/>
<text text-anchor="middle" x="631" y="-445.24" font-family="Arial" font-size="36.00" fill="blue">Reaction Path Analysis</text>
<!-- R276 -->
<g id="node1" class="node">
<title>R276</title>
<g id="a_node1"><a xlink:href="276.svg" xlink:title="R276">
<polygon fill="azure" stroke="none" points="678,-220.54 584,-220.54 584,-173.54 678,-173.54 678,-220.54"/>
<text text-anchor="middle" x="631" y="-188.54" font-family="Times New Roman,serif" font-size="35.00">R276</text>
</a>
</g>
</g>
<!-- R16 -->
<g id="node2" class="node">
<title>R16</title>
<g id="a_node2"><a xlink:href="16.svg" xlink:title="R16">
<polygon fill="azure" stroke="none" points="1253,-313.54 1177,-313.54 1177,-266.54 1253,-266.54 1253,-313.54"/>
<text text-anchor="middle" x="1215" y="-281.54" font-family="Times New Roman,serif" font-size="35.00">R16</text>
</a>
</g>
</g>
<!-- R276&#45;&gt;R16 -->
<g id="edge1" class="edge">
<title>R276&#45;&gt;R16</title>
<path fill="none" stroke="black" stroke-width="5" d="M647.98,-220.23C659.19,-234.44 675.54,-251.49 694.5,-260.04 849.55,-329.93 1057.5,-313.25 1156.7,-299.53"/>
<polygon fill="black" stroke="black" stroke-width="5" points="1152.75,-308.07 1171.27,-296.5 1150.21,-290.76 1152.75,-308.07"/>
<text text-anchor="middle" x="923" y="-320.04" font-family="Times New Roman,serif" font-size="30.00"> &#160;&#160;373 &#160;&#160;99% &#160;&#160;0.198 mol/s &#160;&#160;&#160;2.16E&#45;06</text>
</g>
<!-- R14 -->
<g id="node3" class="node">
<title>R14</title>
<g id="a_node3"><a xlink:href="14.svg" xlink:title="R14">
<polygon fill="azure" stroke="none" points="1253,-248.54 1177,-248.54 1177,-201.54 1253,-201.54 1253,-248.54"/>
<text text-anchor="middle" x="1215" y="-216.54" font-family="Times New Roman,serif" font-size="35.00">R14</text>
</a>
</g>
</g>
<!-- R276&#45;&gt;R14 -->
<g id="edge2" class="edge">
<title>R276&#45;&gt;R14</title>
<path fill="none" stroke="black" stroke-width="5" d="M677.72,-201.71C683.37,-202.2 689.06,-202.66 694.5,-203.04 862.05,-214.62 1060.44,-220.98 1156.36,-223.6"/>
<polygon fill="black" stroke="black" stroke-width="5" points="1150.89,-232.37 1171.11,-224.15 1151.35,-214.87 1150.89,-232.37"/>
<text text-anchor="middle" x="923" y="-232.04" font-family="Times New Roman,serif" font-size="30.00"> &#160;&#160;373 &#160;&#160;99% &#160;&#160;0.198 mol/s &#160;&#160;&#160;2.16E&#45;06</text>
</g>
<!-- R249 -->
<g id="node9" class="node">
<title>R249</title>
<g id="a_node9"><a xlink:href="249.svg" xlink:title="R249">
<polygon fill="azure" stroke="none" points="1262,-160.54 1168,-160.54 1168,-113.54 1262,-113.54 1262,-160.54"/>
<text text-anchor="middle" x="1215" y="-128.54" font-family="Times New Roman,serif" font-size="35.00">R249</text>
</a>
</g>
</g>
<!-- R276&#45;&gt;R249 -->
<g id="edge9" class="edge">
<title>R276&#45;&gt;R249</title>
<path fill="none" stroke="green" d="M673.09,-173.67C680.05,-170.59 687.34,-167.87 694.5,-166.04 792.96,-140.79 1050.37,-157.19 1151.5,-147.04 1153.34,-146.85 1155.21,-146.65 1157.1,-146.43"/>
<polygon fill="green" stroke="green" points="1157.53,-149.77 1167,-145.02 1156.64,-142.83 1157.53,-149.77"/>
<text text-anchor="middle" x="923" y="-175.04" font-family="Times New Roman,serif" font-size="30.00"> &#160;&#160;760 &#160;&#160;0% &#160;&#160;6.4e&#45;05 mol/s &#160;&#160;&#160;5.26E&#45;01</text>
</g>
<!-- R276&#45;&gt;R249 -->
<g id="edge10" class="edge">
<title>R276&#45;&gt;R249</title>
<path fill="none" stroke="green" d="M641.34,-173.64C651.12,-152.69 668.69,-123.28 694.5,-110.04 875.23,-17.34 952.6,-68.91 1151.5,-110.04 1153.58,-110.47 1155.68,-110.97 1157.79,-111.53"/>
<polygon fill="green" stroke="green" points="1156.68,-115.17 1167.27,-114.8 1158.77,-108.49 1156.68,-115.17"/>
<text text-anchor="middle" x="923" y="-119.04" font-family="Times New Roman,serif" font-size="30.00"> &#160;&#160;963 &#160;&#160;0% &#160;&#160;7.1e&#45;05 mol/s &#160;&#160;&#160;4.74E&#45;01</text>
</g>
<!-- R0 -->
<g id="node4" class="node">
<title>R0</title>
<g id="a_node4"><a xlink:href="0.svg" xlink:title="R0">
<polygon fill="azure" stroke="none" points="76,-378.54 18,-378.54 18,-331.54 76,-331.54 76,-378.54"/>
<text text-anchor="middle" x="47" y="-346.54" font-family="Times New Roman,serif" font-size="35.00">R0</text>
</a>
</g>
</g>
<!-- R0&#45;&gt;R276 -->
<g id="edge3" class="edge">
<title>R0&#45;&gt;R276</title>
<path fill="none" stroke="black" d="M75.88,-363.22C160.22,-386.18 416.61,-442.55 575,-331.04 607.47,-308.18 620.81,-262.55 626.26,-230.93"/>
<polygon fill="black" stroke="black" points="629.82,-231.8 627.88,-221.39 622.9,-230.74 629.82,-231.8"/>
<text text-anchor="middle" x="339" y="-406.04" font-family="Times New Roman,serif" font-size="30.00"> &#160;&#160;519 &#160;&#160;0% &#160;&#160;4.1e&#45;07 mol/s &#160;&#160;&#160;9.60E&#45;01</text>
</g>
<!-- R242 -->
<g id="node5" class="node">
<title>R242</title>
<g id="a_node5"><a xlink:href="242.svg" xlink:title="R242">
<polygon fill="azure" stroke="none" points="94,-313.54 0,-313.54 0,-266.54 94,-266.54 94,-313.54"/>
<text text-anchor="middle" x="47" y="-281.54" font-family="Times New Roman,serif" font-size="35.00">R242</text>
</a>
</g>
</g>
<!-- R242&#45;&gt;R276 -->
<g id="edge4" class="edge">
<title>R242&#45;&gt;R276</title>
<path fill="none" stroke="black" d="M93.59,-291.9C205.54,-295.76 490.93,-301.16 575,-260.04 588.93,-253.22 600.8,-241.13 609.92,-229.35"/>
<polygon fill="black" stroke="black" points="613.3,-231.65 616.34,-221.5 607.64,-227.54 613.3,-231.65"/>
<text text-anchor="middle" x="339" y="-303.04" font-family="Times New Roman,serif" font-size="30.00"> &#160;&#160;519 &#160;&#160;0% &#160;&#160;4.1e&#45;07 mol/s &#160;&#160;&#160;9.60E&#45;01</text>
</g>
<!-- R321 -->
<g id="node6" class="node">
<title>R321</title>
<g id="a_node6"><a xlink:href="321.svg" xlink:title="R321">
<polygon fill="azure" stroke="none" points="94,-248.54 0,-248.54 0,-201.54 94,-201.54 94,-248.54"/>
<text text-anchor="middle" x="47" y="-216.54" font-family="Times New Roman,serif" font-size="35.00">R321</text>
</a>
</g>
</g>
<!-- R321&#45;&gt;R276 -->
<g id="edge5" class="edge">
<title>R321&#45;&gt;R276</title>
<path fill="none" stroke="black" d="M93.88,-224.15C183.67,-222.2 389.16,-216.64 573.14,-203.09"/>
<polygon fill="black" stroke="black" points="573.39,-206.51 583.11,-202.27 572.87,-199.53 573.39,-206.51"/>
<text text-anchor="middle" x="339" y="-232.04" font-family="Times New Roman,serif" font-size="30.00"> &#160;&#160;542 &#160;&#160;0% &#160;&#160;9.02e&#45;06 mol/s &#160;&#160;&#160;4.33E&#45;02</text>
</g>
<!-- R299 -->
<g id="node7" class="node">
<title>R299</title>
<g id="a_node7"><a xlink:href="299.svg" xlink:title="R299">
<polygon fill="azure" stroke="none" points="94,-183.54 0,-183.54 0,-136.54 94,-136.54 94,-183.54"/>
<text text-anchor="middle" x="47" y="-151.54" font-family="Times New Roman,serif" font-size="35.00">R299</text>
</a>
</g>
</g>
<!-- R299&#45;&gt;R276 -->
<g id="edge6" class="edge">
<title>R299&#45;&gt;R276</title>
<path fill="none" stroke="black" d="M93.65,-157.66C204.42,-152.37 484.97,-141.86 575,-166.04 578.18,-166.89 581.37,-167.97 584.52,-169.21"/>
<polygon fill="black" stroke="black" points="582.87,-172.75 593.42,-173.65 585.73,-166.36 582.87,-172.75"/>
<text text-anchor="middle" x="339" y="-175.04" font-family="Times New Roman,serif" font-size="30.00"> &#160;&#160;543 &#160;&#160;0% &#160;&#160;3.33e&#45;06 mol/s &#160;&#160;&#160;1.02E&#45;01</text>
</g>
<!-- R256 -->
<g id="node8" class="node">
<title>R256</title>
<g id="a_node8"><a xlink:href="256.svg" xlink:title="R256">
<polygon fill="azure" stroke="none" points="94,-99.54 0,-99.54 0,-52.54 94,-52.54 94,-99.54"/>
<text text-anchor="middle" x="47" y="-67.54" font-family="Times New Roman,serif" font-size="35.00">R256</text>
</a>
</g>
</g>
<!-- R256&#45;&gt;R276 -->
<g id="edge7" class="edge">
<title>R256&#45;&gt;R276</title>
<path fill="none" stroke="black" d="M93.75,-89.32C96.87,-89.98 99.97,-90.56 103,-91.04 154.86,-99.21 529.41,-87 575,-113.04 594.54,-124.19 608.36,-145.46 617.26,-163.8"/>
<polygon fill="black" stroke="black" points="614.39,-164.94 621.7,-172.61 620.76,-162.05 614.39,-164.94"/>
<text text-anchor="middle" x="339" y="-122.04" font-family="Times New Roman,serif" font-size="30.00"> &#160;&#160;733 &#160;&#160;0% &#160;&#160;0.00065 mol/s &#160;&#160;&#160;9.94E&#45;01</text>
</g>
<!-- R256&#45;&gt;R276 -->
<g id="edge8" class="edge">
<title>R256&#45;&gt;R276</title>
<path fill="none" stroke="black" stroke-width="5" d="M93.88,-57.35C192.02,-20.68 425.54,48.61 575,-54.04 607.13,-76.1 620.5,-119.77 626.06,-153.07"/>
<polygon fill="black" stroke="black" stroke-width="5" points="617.47,-148.91 628.74,-167.6 634.82,-146.63 617.47,-148.91"/>
<text text-anchor="middle" x="339" y="-63.04" font-family="Times New Roman,serif" font-size="30.00"> &#160;&#160;759 &#160;&#160;99% &#160;&#160;0.109 mol/s &#160;&#160;&#160;5.94E&#45;03</text>
</g>
</g>
</svg>
