<?xml version="1.0" encoding="UTF-8" standalone="no"?>
<!DOCTYPE svg PUBLIC "-//W3C//DTD SVG 1.1//EN"
 "http://www.w3.org/Graphics/SVG/1.1/DTD/svg11.dtd">
<!-- Generated by graphviz version 8.0.3 (20230416.2022)
 -->
<!-- Title: G Pages: 1 -->
<svg width="640pt" height="214pt"
 viewBox="0.00 0.00 720.00 240.55" xmlns="http://www.w3.org/2000/svg" xmlns:xlink="http://www.w3.org/1999/xlink">
<g id="graph0" class="graph" transform="scale(0.498442 0.498442) rotate(0) translate(4 424.98)">
<title>G</title>
<polygon fill="white" stroke="none" points="-4,4 -4,-424.98 1280,-424.98 1280,4 -4,4"/>
<text text-anchor="middle" x="638" y="-388.18" font-family="Arial" font-size="36.00" fill="blue">Reaction Path Analysis</text>
<!-- R282 -->
<g id="node1" class="node">
<title>R282</title>
<g id="a_node1"><a xlink:href="282.svg" xlink:title="R282">
<polygon fill="azure" stroke="none" points="685,-201.48 591,-201.48 591,-154.48 685,-154.48 685,-201.48"/>
<text text-anchor="middle" x="638" y="-169.48" font-family="Times New Roman,serif" font-size="35.00">R282</text>
</a>
</g>
</g>
<!-- R27 -->
<g id="node2" class="node">
<title>R27</title>
<g id="a_node2"><a xlink:href="27.svg" xlink:title="R27">
<polygon fill="azure" stroke="none" points="1267,-326.48 1191,-326.48 1191,-279.48 1267,-279.48 1267,-326.48"/>
<text text-anchor="middle" x="1229" y="-294.48" font-family="Times New Roman,serif" font-size="35.00">R27</text>
</a>
</g>
</g>
<!-- R282&#45;&gt;R27 -->
<g id="edge1" class="edge">
<title>R282&#45;&gt;R27</title>
<path fill="none" stroke="black" d="M644.86,-201.42C652.11,-224.98 666.95,-260.16 694,-276.98 849.19,-373.45 1081.5,-336.92 1180.53,-314.9"/>
<polygon fill="black" stroke="black" points="1181.12,-318.12 1190.1,-312.49 1179.57,-311.3 1181.12,-318.12"/>
<text text-anchor="middle" x="933.5" y="-348.98" font-family="Times New Roman,serif" font-size="30.00"> &#160;&#160;383 &#160;&#160;0% &#160;&#160;4.27e&#45;06 mol/s &#160;&#160;&#160;8.35E&#45;02</text>
</g>
<!-- R14 -->
<g id="node3" class="node">
<title>R14</title>
<g id="a_node3"><a xlink:href="14.svg" xlink:title="R14">
<polygon fill="azure" stroke="none" points="1267,-261.48 1191,-261.48 1191,-214.48 1267,-214.48 1267,-261.48"/>
<text text-anchor="middle" x="1229" y="-229.48" font-family="Times New Roman,serif" font-size="35.00">R14</text>
</a>
</g>
</g>
<!-- R282&#45;&gt;R14 -->
<g id="edge2" class="edge">
<title>R282&#45;&gt;R14</title>
<path fill="none" stroke="black" d="M668.63,-201.47C676.47,-206.49 685.2,-211.14 694,-213.98 783.64,-242.91 1066.87,-241.05 1180.32,-239.04"/>
<polygon fill="black" stroke="black" points="1180.15,-242.52 1190.08,-238.84 1180.02,-235.53 1180.15,-242.52"/>
<text text-anchor="middle" x="933.5" y="-248.98" font-family="Times New Roman,serif" font-size="30.00"> &#160;&#160;383 &#160;&#160;0% &#160;&#160;4.27e&#45;06 mol/s &#160;&#160;&#160;8.35E&#45;02</text>
</g>
<!-- R304 -->
<g id="node7" class="node">
<title>R304</title>
<g id="a_node7"><a xlink:href="304.svg" xlink:title="R304">
<polygon fill="azure" stroke="none" points="1276,-196.48 1182,-196.48 1182,-149.48 1276,-149.48 1276,-196.48"/>
<text text-anchor="middle" x="1229" y="-164.48" font-family="Times New Roman,serif" font-size="35.00">R304</text>
</a>
</g>
</g>
<!-- R282&#45;&gt;R304 -->
<g id="edge6" class="edge">
<title>R282&#45;&gt;R304</title>
<path fill="none" stroke="black" d="M684.73,-177.59C791.17,-176.69 1055.26,-174.44 1171.52,-173.46"/>
<polygon fill="black" stroke="black" points="1171.33,-176.95 1181.3,-173.37 1171.27,-169.95 1171.33,-176.95"/>
<text text-anchor="middle" x="933.5" y="-185.98" font-family="Times New Roman,serif" font-size="30.00"> &#160;&#160;547 &#160;&#160;0% &#160;&#160;1.83e&#45;07 mol/s &#160;&#160;&#160;6.36E&#45;01</text>
</g>
<!-- R243 -->
<g id="node9" class="node">
<title>R243</title>
<g id="a_node9"><a xlink:href="243.svg" xlink:title="R243">
<polygon fill="azure" stroke="none" points="1276,-112.48 1182,-112.48 1182,-65.48 1276,-65.48 1276,-112.48"/>
<text text-anchor="middle" x="1229" y="-80.48" font-family="Times New Roman,serif" font-size="35.00">R243</text>
</a>
</g>
</g>
<!-- R282&#45;&gt;R243 -->
<g id="edge8" class="edge">
<title>R282&#45;&gt;R243</title>
<path fill="none" stroke="black" stroke-width="5" d="M663.42,-154.52C672.36,-147.3 683,-140.17 694,-135.98 788.21,-100.13 1037.34,-112.81 1161.55,-100.95"/>
<polygon fill="black" stroke="black" stroke-width="5" points="1157.28,-109.56 1176.15,-98.58 1155.29,-92.17 1157.28,-109.56"/>
<text text-anchor="middle" x="933.5" y="-144.98" font-family="Times New Roman,serif" font-size="30.00"> &#160;&#160;713 &#160;&#160;99% &#160;&#160;0.143 mol/s &#160;&#160;&#160;4.53E&#45;03</text>
</g>
<!-- R282&#45;&gt;R243 -->
<g id="edge9" class="edge">
<title>R282&#45;&gt;R243</title>
<path fill="none" stroke="black" d="M642.67,-154.55C648.36,-127.17 662.17,-83.04 694,-62.98 871.12,48.64 962.23,-14.18 1171.32,-63.02"/>
<polygon fill="black" stroke="black" points="1170.48,-66.65 1181.01,-65.49 1172.05,-59.83 1170.48,-66.65"/>
<text text-anchor="middle" x="933.5" y="-71.98" font-family="Times New Roman,serif" font-size="30.00"> &#160;&#160;765 &#160;&#160;0% &#160;&#160;0.000651 mol/s &#160;&#160;&#160;9.95E&#45;01</text>
</g>
<!-- R0 -->
<g id="node4" class="node">
<title>R0</title>
<g id="a_node4"><a xlink:href="0.svg" xlink:title="R0">
<polygon fill="azure" stroke="none" points="76,-326.48 18,-326.48 18,-279.48 76,-279.48 76,-326.48"/>
<text text-anchor="middle" x="47" y="-294.48" font-family="Times New Roman,serif" font-size="35.00">R0</text>
</a>
</g>
</g>
<!-- R0&#45;&gt;R282 -->
<g id="edge3" class="edge">
<title>R0&#45;&gt;R282</title>
<path fill="none" stroke="black" d="M75.98,-310.36C160.16,-330.87 415.47,-380.5 582,-276.98 605.35,-262.46 619.6,-234.26 627.73,-211.66"/>
<polygon fill="black" stroke="black" points="631.3,-213.01 631.14,-202.42 624.66,-210.8 631.3,-213.01"/>
<text text-anchor="middle" x="342.5" y="-348.98" font-family="Times New Roman,serif" font-size="30.00"> &#160;&#160;525 &#160;&#160;0% &#160;&#160;4.13e&#45;07 mol/s &#160;&#160;&#160;9.67E&#45;01</text>
</g>
<!-- R248 -->
<g id="node5" class="node">
<title>R248</title>
<g id="a_node5"><a xlink:href="248.svg" xlink:title="R248">
<polygon fill="azure" stroke="none" points="94,-261.48 0,-261.48 0,-214.48 94,-214.48 94,-261.48"/>
<text text-anchor="middle" x="47" y="-229.48" font-family="Times New Roman,serif" font-size="35.00">R248</text>
</a>
</g>
</g>
<!-- R248&#45;&gt;R282 -->
<g id="edge4" class="edge">
<title>R248&#45;&gt;R282</title>
<path fill="none" stroke="black" d="M94,-239.01C206.31,-241.03 491.92,-243.06 582,-213.98 587.5,-212.2 592.97,-209.72 598.22,-206.88"/>
<polygon fill="black" stroke="black" points="599.55,-209.57 606.37,-201.47 595.98,-203.55 599.55,-209.57"/>
<text text-anchor="middle" x="342.5" y="-248.98" font-family="Times New Roman,serif" font-size="30.00"> &#160;&#160;525 &#160;&#160;0% &#160;&#160;4.13e&#45;07 mol/s &#160;&#160;&#160;9.67E&#45;01</text>
</g>
<!-- R323 -->
<g id="node6" class="node">
<title>R323</title>
<g id="a_node6"><a xlink:href="323.svg" xlink:title="R323">
<polygon fill="azure" stroke="none" points="94,-196.48 0,-196.48 0,-149.48 94,-149.48 94,-196.48"/>
<text text-anchor="middle" x="47" y="-164.48" font-family="Times New Roman,serif" font-size="35.00">R323</text>
</a>
</g>
</g>
<!-- R323&#45;&gt;R282 -->
<g id="edge5" class="edge">
<title>R323&#45;&gt;R282</title>
<path fill="none" stroke="black" d="M93.73,-173.37C200.17,-174.27 464.26,-176.51 580.52,-177.5"/>
<polygon fill="black" stroke="black" points="580.27,-181 590.3,-177.59 580.33,-174.01 580.27,-181"/>
<text text-anchor="middle" x="342.5" y="-185.98" font-family="Times New Roman,serif" font-size="30.00"> &#160;&#160;546 &#160;&#160;0% &#160;&#160;3.31e&#45;05 mol/s &#160;&#160;&#160;1.26E&#45;02</text>
</g>
<!-- R149 -->
<g id="node8" class="node">
<title>R149</title>
<g id="a_node8"><a xlink:href="149.svg" xlink:title="R149">
<polygon fill="azure" stroke="none" points="94,-112.48 0,-112.48 0,-65.48 94,-65.48 94,-112.48"/>
<text text-anchor="middle" x="47" y="-80.48" font-family="Times New Roman,serif" font-size="35.00">R149</text>
</a>
</g>
</g>
<!-- R149&#45;&gt;R282 -->
<g id="edge7" class="edge">
<title>R149&#45;&gt;R282</title>
<path fill="none" stroke="black" d="M93.85,-98.58C96.94,-99.1 100.01,-99.57 103,-99.98 208.76,-114.47 482.23,-98.02 582,-135.98 589.74,-138.92 597.29,-143.32 604.21,-148.19"/>
<polygon fill="black" stroke="black" points="601.5,-151.28 611.58,-154.52 605.72,-145.69 601.5,-151.28"/>
<text text-anchor="middle" x="342.5" y="-144.98" font-family="Times New Roman,serif" font-size="30.00"> &#160;&#160;673 &#160;&#160;1% &#160;&#160;0.000644 mol/s &#160;&#160;&#160;9.86E&#45;01</text>
</g>
<!-- R149&#45;&gt;R282 -->
<g id="edge10" class="edge">
<title>R149&#45;&gt;R282</title>
<path fill="none" stroke="black" stroke-width="5" d="M93.99,-65.49C96.99,-64.5 100.01,-63.65 103,-62.98 310.72,-16.35 401.89,50.53 582,-62.98 606.74,-78.57 620.6,-108.71 628.21,-134.22"/>
<polygon fill="black" stroke="black" stroke-width="5" points="618.96,-131.29 632.33,-148.55 635.93,-127.02 618.96,-131.29"/>
<text text-anchor="middle" x="342.5" y="-71.98" font-family="Times New Roman,serif" font-size="30.00"> &#160;&#160;766 &#160;&#160;98% &#160;&#160;0.0443 mol/s &#160;&#160;&#160;1.43E&#45;02</text>
</g>
</g>
</svg>
