<?xml version="1.0" encoding="UTF-8" standalone="no"?>
<!DOCTYPE svg PUBLIC "-//W3C//DTD SVG 1.1//EN"
 "http://www.w3.org/Graphics/SVG/1.1/DTD/svg11.dtd">
<!-- Generated by graphviz version 8.0.3 (20230416.2022)
 -->
<!-- Title: G Pages: 1 -->
<svg width="640pt" height="196pt"
 viewBox="0.00 0.00 720.00 221.01" xmlns="http://www.w3.org/2000/svg" xmlns:xlink="http://www.w3.org/1999/xlink">
<g id="graph0" class="graph" transform="scale(0.487062 0.487062) rotate(0) translate(4 399.34)">
<title>G</title>
<polygon fill="white" stroke="none" points="-4,4 -4,-399.34 1310,-399.34 1310,4 -4,4"/>
<text text-anchor="middle" x="653" y="-362.54" font-family="Arial" font-size="36.00" fill="blue">Reaction Path Analysis</text>
<!-- R298 -->
<g id="node1" class="node">
<title>R298</title>
<g id="a_node1"><a xlink:href="298.svg" xlink:title="R298">
<polygon fill="azure" stroke="none" points="700,-189.84 606,-189.84 606,-142.84 700,-142.84 700,-189.84"/>
<text text-anchor="middle" x="653" y="-157.84" font-family="Times New Roman,serif" font-size="35.00">R298</text>
</a>
</g>
</g>
<!-- R15 -->
<g id="node2" class="node">
<title>R15</title>
<g id="a_node2"><a xlink:href="15.svg" xlink:title="R15">
<polygon fill="azure" stroke="none" points="1297,-273.84 1221,-273.84 1221,-226.84 1297,-226.84 1297,-273.84"/>
<text text-anchor="middle" x="1259" y="-241.84" font-family="Times New Roman,serif" font-size="35.00">R15</text>
</a>
</g>
</g>
<!-- R298&#45;&gt;R15 -->
<g id="edge1" class="edge">
<title>R298&#45;&gt;R15</title>
<path fill="none" stroke="black" stroke-width="5" d="M659.41,-189.52C667.35,-217.67 685.17,-263.91 720,-284.34 810.48,-337.4 1090.06,-309.05 1192,-284.34 1195.4,-283.51 1198.82,-282.48 1202.23,-281.29"/>
<polygon fill="black" stroke="black" stroke-width="5" points="1201.23,-291.1 1216.17,-275.18 1194.34,-275.01 1201.23,-291.1"/>
<text text-anchor="middle" x="956" y="-323.34" font-family="Times New Roman,serif" font-size="30.00"> &#160;&#160;404 &#160;&#160;99% &#160;&#160;0.115 mol/s &#160;&#160;&#160;3.73E&#45;06</text>
</g>
<!-- R298&#45;&gt;R15 -->
<g id="edge2" class="edge">
<title>R298&#45;&gt;R15</title>
<path fill="none" stroke="black" stroke-width="5" d="M671.45,-189.61C683.4,-203.58 700.57,-220.19 720,-228.34 768.4,-248.64 1139.56,-245.09 1192,-247.34 1194.64,-247.45 1197.35,-247.57 1200.07,-247.69"/>
<polygon fill="black" stroke="black" stroke-width="5" points="1194.63,-256.47 1215,-248.62 1195.41,-238.99 1194.63,-256.47"/>
<text text-anchor="middle" x="956" y="-256.34" font-family="Times New Roman,serif" font-size="30.00"> &#160;&#160;404 &#160;&#160;99% &#160;&#160;0.115 mol/s &#160;&#160;&#160;3.73E&#45;06</text>
</g>
<!-- R298&#45;&gt;R15 -->
<g id="edge3" class="edge">
<title>R298&#45;&gt;R15</title>
<path fill="none" stroke="black" stroke-width="5" d="M699.78,-170.8C706.55,-171.37 713.46,-171.91 720,-172.34 772.37,-175.77 1143.35,-171.63 1192,-191.34 1203.72,-196.08 1214.72,-203.87 1224.26,-212.26"/>
<polygon fill="black" stroke="black" stroke-width="5" points="1214.84,-215.2 1235.23,-222.98 1227.1,-202.72 1214.84,-215.2"/>
<text text-anchor="middle" x="956" y="-200.34" font-family="Times New Roman,serif" font-size="30.00"> &#160;&#160;404 &#160;&#160;99% &#160;&#160;0.115 mol/s &#160;&#160;&#160;3.73E&#45;06</text>
</g>
<!-- R0 -->
<g id="node3" class="node">
<title>R0</title>
<g id="a_node3"><a xlink:href="0.svg" xlink:title="R0">
<polygon fill="azure" stroke="none" points="1288,-138.84 1230,-138.84 1230,-91.84 1288,-91.84 1288,-138.84"/>
<text text-anchor="middle" x="1259" y="-106.84" font-family="Times New Roman,serif" font-size="35.00">R0</text>
</a>
</g>
</g>
<!-- R298&#45;&gt;R0 -->
<g id="edge4" class="edge">
<title>R298&#45;&gt;R0</title>
<path fill="none" stroke="black" d="M699.87,-145.25C706.51,-142.88 713.35,-140.8 720,-139.34 768.33,-128.71 1104.64,-119.25 1219.59,-116.29"/>
<polygon fill="black" stroke="black" points="1219.41,-119.77 1229.31,-116.02 1219.23,-112.77 1219.41,-119.77"/>
<text text-anchor="middle" x="956" y="-148.34" font-family="Times New Roman,serif" font-size="30.00"> &#160;&#160;541 &#160;&#160;0% &#160;&#160;2.52e&#45;05 mol/s &#160;&#160;&#160;1.64E&#45;02</text>
</g>
<!-- R274 -->
<g id="node4" class="node">
<title>R274</title>
<g id="a_node4"><a xlink:href="274.svg" xlink:title="R274">
<polygon fill="azure" stroke="none" points="1306,-49.84 1212,-49.84 1212,-2.84 1306,-2.84 1306,-49.84"/>
<text text-anchor="middle" x="1259" y="-17.84" font-family="Times New Roman,serif" font-size="35.00">R274</text>
</a>
</g>
</g>
<!-- R298&#45;&gt;R274 -->
<g id="edge5" class="edge">
<title>R298&#45;&gt;R274</title>
<path fill="none" stroke="black" d="M657.58,-142.93C663.89,-110.87 680.28,-54.45 720,-29.34 798.48,20.27 1079.49,-5.36 1201.17,-19.29"/>
<polygon fill="black" stroke="black" points="1200.75,-22.88 1211.09,-20.56 1201.56,-15.93 1200.75,-22.88"/>
<text text-anchor="middle" x="956" y="-38.34" font-family="Times New Roman,serif" font-size="30.00"> &#160;&#160;541 &#160;&#160;0% &#160;&#160;2.52e&#45;05 mol/s &#160;&#160;&#160;1.64E&#45;02</text>
</g>
<!-- R0&#45;&gt;R298 -->
<g id="edge6" class="edge">
<title>R0&#45;&gt;R298</title>
<path fill="none" stroke="green" d="M1230.06,-96.07C1218.77,-89.39 1205.28,-82.72 1192,-79.34 1141.18,-66.38 766.97,-56.01 720,-79.34 697.34,-90.59 680.37,-113.75 669.31,-133.35"/>
<polygon fill="green" stroke="green" points="665.84,-131.43 664.22,-141.91 672.01,-134.73 665.84,-131.43"/>
<text text-anchor="middle" x="956" y="-88.34" font-family="Times New Roman,serif" font-size="30.00"> &#160;&#160;834 &#160;&#160;0% &#160;&#160;6.33e&#45;08 mol/s &#160;&#160;&#160;5.40E&#45;01</text>
</g>
<!-- R275 -->
<g id="node5" class="node">
<title>R275</title>
<g id="a_node5"><a xlink:href="275.svg" xlink:title="R275">
<polygon fill="azure" stroke="none" points="94,-245.84 0,-245.84 0,-198.84 94,-198.84 94,-245.84"/>
<text text-anchor="middle" x="47" y="-213.84" font-family="Times New Roman,serif" font-size="35.00">R275</text>
</a>
</g>
</g>
<!-- R275&#45;&gt;R298 -->
<g id="edge7" class="edge">
<title>R275&#45;&gt;R298</title>
<path fill="none" stroke="green" d="M93.77,-228.17C189.64,-238.75 417.53,-255.24 597,-200.34 601.59,-198.93 606.19,-197.05 610.65,-194.88"/>
<polygon fill="green" stroke="green" points="612.02,-197.59 619.18,-189.77 608.71,-191.42 612.02,-197.59"/>
<text text-anchor="middle" x="350" y="-247.34" font-family="Times New Roman,serif" font-size="30.00"> &#160;&#160;834 &#160;&#160;0% &#160;&#160;6.33e&#45;08 mol/s &#160;&#160;&#160;5.40E&#45;01</text>
</g>
<!-- R375 -->
<g id="node6" class="node">
<title>R375</title>
<g id="a_node6"><a xlink:href="375.svg" xlink:title="R375">
<polygon fill="azure" stroke="none" points="94,-157.84 0,-157.84 0,-110.84 94,-110.84 94,-157.84"/>
<text text-anchor="middle" x="47" y="-125.84" font-family="Times New Roman,serif" font-size="35.00">R375</text>
</a>
</g>
</g>
<!-- R375&#45;&gt;R298 -->
<g id="edge8" class="edge">
<title>R375&#45;&gt;R298</title>
<path fill="none" stroke="black" stroke-width="5" d="M93.85,-143.17C96.94,-143.61 100.01,-144.01 103,-144.34 276.31,-163.47 482.03,-166.5 585.51,-166.66"/>
<polygon fill="black" stroke="black" stroke-width="5" points="580.29,-175.41 600.29,-166.66 580.29,-157.91 580.29,-175.41"/>
<text text-anchor="middle" x="350" y="-175.34" font-family="Times New Roman,serif" font-size="30.00"> &#160;&#160;981 &#160;&#160;99% &#160;&#160;0.477 mol/s &#160;&#160;&#160;1.37E&#45;03</text>
</g>
<!-- R375&#45;&gt;R298 -->
<g id="edge9" class="edge">
<title>R375&#45;&gt;R298</title>
<path fill="none" stroke="black" d="M91.16,-110.94C95.08,-109.49 99.06,-108.25 103,-107.34 316.86,-57.67 395.66,-19.77 597,-107.34 610.27,-113.11 621.8,-123.84 630.82,-134.58"/>
<polygon fill="black" stroke="black" points="628.57,-136.4 637.5,-142.11 634.08,-132.08 628.57,-136.4"/>
<text text-anchor="middle" x="350" y="-116.34" font-family="Times New Roman,serif" font-size="30.00"> &#160;&#160;1040 &#160;&#160;0% &#160;&#160;0.000653 mol/s &#160;&#160;&#160;9.99E&#45;01</text>
</g>
</g>
</svg>
