<?xml version="1.0" encoding="UTF-8" standalone="no"?>
<!DOCTYPE svg PUBLIC "-//W3C//DTD SVG 1.1//EN"
 "http://www.w3.org/Graphics/SVG/1.1/DTD/svg11.dtd">
<!-- Generated by graphviz version 8.0.3 (20230416.2022)
 -->
<!-- Title: G Pages: 1 -->
<svg width="640pt" height="187pt"
 viewBox="0.00 0.00 720.00 210.26" xmlns="http://www.w3.org/2000/svg" xmlns:xlink="http://www.w3.org/1999/xlink">
<g id="graph0" class="graph" transform="scale(0.492308 0.492308) rotate(0) translate(4 375.63)">
<title>G</title>
<polygon fill="white" stroke="none" points="-4,4 -4,-375.63 1296,-375.63 1296,4 -4,4"/>
<text text-anchor="middle" x="646" y="-338.83" font-family="Arial" font-size="36.00" fill="blue">Reaction Path Analysis</text>
<!-- R299 -->
<g id="node1" class="node">
<title>R299</title>
<g id="a_node1"><a xlink:href="299.svg" xlink:title="R299">
<polygon fill="azure" stroke="none" points="693,-185.13 599,-185.13 599,-138.13 693,-138.13 693,-185.13"/>
<text text-anchor="middle" x="646" y="-153.13" font-family="Times New Roman,serif" font-size="35.00">R299</text>
</a>
</g>
</g>
<!-- R16 -->
<g id="node2" class="node">
<title>R16</title>
<g id="a_node2"><a xlink:href="16.svg" xlink:title="R16">
<polygon fill="azure" stroke="none" points="1283,-306.13 1207,-306.13 1207,-259.13 1283,-259.13 1283,-306.13"/>
<text text-anchor="middle" x="1245" y="-274.13" font-family="Times New Roman,serif" font-size="35.00">R16</text>
</a>
</g>
</g>
<!-- R299&#45;&gt;R16 -->
<g id="edge1" class="edge">
<title>R299&#45;&gt;R16</title>
<path fill="none" stroke="black" stroke-width="5" d="M655.28,-184.83C664.65,-207.28 682.25,-240.12 709.5,-255.63 789.42,-301.1 1065.28,-292.4 1186.31,-286.11"/>
<polygon fill="black" stroke="black" stroke-width="5" points="1181.53,-294.81 1201.02,-284.98 1180.58,-277.33 1181.53,-294.81"/>
<text text-anchor="middle" x="945.5" y="-299.63" font-family="Times New Roman,serif" font-size="30.00"> &#160;&#160;405 &#160;&#160;99% &#160;&#160;4.64 mol/s &#160;&#160;&#160;9.21E&#45;08</text>
</g>
<!-- R15 -->
<g id="node3" class="node">
<title>R15</title>
<g id="a_node3"><a xlink:href="15.svg" xlink:title="R15">
<polygon fill="azure" stroke="none" points="1283,-241.13 1207,-241.13 1207,-194.13 1283,-194.13 1283,-241.13"/>
<text text-anchor="middle" x="1245" y="-209.13" font-family="Times New Roman,serif" font-size="35.00">R15</text>
</a>
</g>
</g>
<!-- R299&#45;&gt;R15 -->
<g id="edge2" class="edge">
<title>R299&#45;&gt;R15</title>
<path fill="none" stroke="black" stroke-width="5" d="M683.49,-185.05C691.75,-189.32 700.69,-193.19 709.5,-195.63 797.79,-220.03 1067.36,-219.89 1186.43,-218.54"/>
<polygon fill="black" stroke="black" stroke-width="5" points="1181.27,-227.28 1201.16,-218.27 1181.05,-209.78 1181.27,-227.28"/>
<text text-anchor="middle" x="945.5" y="-227.63" font-family="Times New Roman,serif" font-size="30.00"> &#160;&#160;405 &#160;&#160;99% &#160;&#160;4.64 mol/s &#160;&#160;&#160;9.21E&#45;08</text>
</g>
<!-- R0 -->
<g id="node4" class="node">
<title>R0</title>
<g id="a_node4"><a xlink:href="0.svg" xlink:title="R0">
<polygon fill="azure" stroke="none" points="1274,-157.13 1216,-157.13 1216,-110.13 1274,-110.13 1274,-157.13"/>
<text text-anchor="middle" x="1245" y="-125.13" font-family="Times New Roman,serif" font-size="35.00">R0</text>
</a>
</g>
</g>
<!-- R299&#45;&gt;R0 -->
<g id="edge3" class="edge">
<title>R299&#45;&gt;R0</title>
<path fill="none" stroke="black" d="M692.8,-160.58C785.27,-158.29 1000.82,-152.01 1181.5,-139.63 1189.19,-139.1 1197.39,-138.41 1205.25,-137.68"/>
<polygon fill="black" stroke="black" points="1205.41,-141.08 1215.03,-136.64 1204.74,-134.12 1205.41,-141.08"/>
<text text-anchor="middle" x="945.5" y="-168.63" font-family="Times New Roman,serif" font-size="30.00"> &#160;&#160;543 &#160;&#160;0% &#160;&#160;3.33e&#45;06 mol/s &#160;&#160;&#160;1.02E&#45;01</text>
</g>
<!-- R276 -->
<g id="node5" class="node">
<title>R276</title>
<g id="a_node5"><a xlink:href="276.svg" xlink:title="R276">
<polygon fill="azure" stroke="none" points="1292,-73.13 1198,-73.13 1198,-26.13 1292,-26.13 1292,-73.13"/>
<text text-anchor="middle" x="1245" y="-41.13" font-family="Times New Roman,serif" font-size="35.00">R276</text>
</a>
</g>
</g>
<!-- R299&#45;&gt;R276 -->
<g id="edge4" class="edge">
<title>R299&#45;&gt;R276</title>
<path fill="none" stroke="black" d="M653.14,-138.36C661.3,-112.7 678.42,-72.66 709.5,-54.63 862.8,34.32 1084.86,-6.67 1187.76,-33.22"/>
<polygon fill="black" stroke="black" points="1186.67,-36.82 1197.23,-35.98 1188.45,-30.05 1186.67,-36.82"/>
<text text-anchor="middle" x="945.5" y="-63.63" font-family="Times New Roman,serif" font-size="30.00"> &#160;&#160;543 &#160;&#160;0% &#160;&#160;3.33e&#45;06 mol/s &#160;&#160;&#160;1.02E&#45;01</text>
</g>
<!-- R0&#45;&gt;R299 -->
<g id="edge6" class="edge">
<title>R0&#45;&gt;R299</title>
<path fill="none" stroke="black" d="M1216.11,-116.37C1205.65,-110.83 1193.41,-105.42 1181.5,-102.63 1130.44,-90.66 758.24,-83.26 709.5,-102.63 694.88,-108.44 681.71,-119.47 671.26,-130.43"/>
<polygon fill="black" stroke="black" points="669.24,-127.55 665.16,-137.33 674.45,-132.23 669.24,-127.55"/>
<text text-anchor="middle" x="945.5" y="-111.63" font-family="Times New Roman,serif" font-size="30.00"> &#160;&#160;835 &#160;&#160;0% &#160;&#160;3.98e&#45;07 mol/s &#160;&#160;&#160;9.35E&#45;01</text>
</g>
<!-- R270 -->
<g id="node6" class="node">
<title>R270</title>
<g id="a_node6"><a xlink:href="270.svg" xlink:title="R270">
<polygon fill="azure" stroke="none" points="94,-217.13 0,-217.13 0,-170.13 94,-170.13 94,-217.13"/>
<text text-anchor="middle" x="47" y="-185.13" font-family="Times New Roman,serif" font-size="35.00">R270</text>
</a>
</g>
</g>
<!-- R270&#45;&gt;R299 -->
<g id="edge5" class="edge">
<title>R270&#45;&gt;R299</title>
<path fill="none" stroke="black" d="M93.76,-202.15C188.56,-218.01 412.36,-246.1 590,-195.63 594.87,-194.24 599.74,-192.29 604.44,-190.01"/>
<polygon fill="black" stroke="black" points="605.69,-192.78 612.84,-184.96 602.37,-186.61 605.69,-192.78"/>
<text text-anchor="middle" x="346.5" y="-232.63" font-family="Times New Roman,serif" font-size="30.00"> &#160;&#160;752 &#160;&#160;0% &#160;&#160;0.000654 mol/s &#160;&#160;&#160;1.00E+00</text>
</g>
<!-- R270&#45;&gt;R299 -->
<g id="edge8" class="edge">
<title>R270&#45;&gt;R299</title>
<path fill="none" stroke="black" stroke-width="5" d="M78.21,-170.15C85.89,-165.42 94.42,-161.13 103,-158.63 190.15,-133.25 453.74,-147.82 578.36,-156.55"/>
<polygon fill="black" stroke="black" stroke-width="5" points="572.66,-165.34 593.24,-158.05 573.91,-147.89 572.66,-165.34"/>
<text text-anchor="middle" x="346.5" y="-167.63" font-family="Times New Roman,serif" font-size="30.00"> &#160;&#160;982 &#160;&#160;99% &#160;&#160;1.94 mol/s &#160;&#160;&#160;3.36E&#45;04</text>
</g>
<!-- R277 -->
<g id="node7" class="node">
<title>R277</title>
<g id="a_node7"><a xlink:href="277.svg" xlink:title="R277">
<polygon fill="azure" stroke="none" points="94,-129.13 0,-129.13 0,-82.13 94,-82.13 94,-129.13"/>
<text text-anchor="middle" x="47" y="-97.13" font-family="Times New Roman,serif" font-size="35.00">R277</text>
</a>
</g>
</g>
<!-- R277&#45;&gt;R299 -->
<g id="edge7" class="edge">
<title>R277&#45;&gt;R299</title>
<path fill="none" stroke="black" d="M93.82,-94.43C190.13,-73.26 418.8,-35.53 590,-106.63 602.06,-111.64 612.85,-120.7 621.62,-130.05"/>
<polygon fill="black" stroke="black" points="619.56,-132.02 628.78,-137.25 624.83,-127.41 619.56,-132.02"/>
<text text-anchor="middle" x="346.5" y="-115.63" font-family="Times New Roman,serif" font-size="30.00"> &#160;&#160;835 &#160;&#160;0% &#160;&#160;3.98e&#45;07 mol/s &#160;&#160;&#160;9.35E&#45;01</text>
</g>
</g>
</svg>
