<?xml version="1.0" encoding="UTF-8" standalone="no"?>
<!DOCTYPE svg PUBLIC "-//W3C//DTD SVG 1.1//EN"
 "http://www.w3.org/Graphics/SVG/1.1/DTD/svg11.dtd">
<!-- Generated by graphviz version 8.0.3 (20230416.2022)
 -->
<!-- Title: G Pages: 1 -->
<svg width="640pt" height="483pt"
 viewBox="0.00 0.00 720.00 543.92" xmlns="http://www.w3.org/2000/svg" xmlns:xlink="http://www.w3.org/1999/xlink">
<g id="graph0" class="graph" transform="scale(0.490421 0.490421) rotate(0) translate(4 981.86)">
<title>G</title>
<polygon fill="white" stroke="none" points="-4,4 -4,-981.86 1301,-981.86 1301,4 -4,4"/>
<text text-anchor="middle" x="648.5" y="-945.06" font-family="Arial" font-size="36.00" fill="blue">Reaction Path Analysis</text>
<!-- R30 -->
<g id="node1" class="node">
<title>R30</title>
<g id="a_node1"><a xlink:href="30.svg" xlink:title="R30">
<polygon fill="azure" stroke="none" points="691,-476.36 615,-476.36 615,-429.36 691,-429.36 691,-476.36"/>
<text text-anchor="middle" x="653" y="-444.36" font-family="Times New Roman,serif" font-size="35.00">R30</text>
</a>
</g>
</g>
<!-- R14 -->
<g id="node2" class="node">
<title>R14</title>
<g id="a_node2"><a xlink:href="14.svg" xlink:title="R14">
<polygon fill="azure" stroke="none" points="1297,-569.36 1221,-569.36 1221,-522.36 1297,-522.36 1297,-569.36"/>
<text text-anchor="middle" x="1259" y="-537.36" font-family="Times New Roman,serif" font-size="35.00">R14</text>
</a>
</g>
</g>
<!-- R30&#45;&gt;R14 -->
<g id="edge1" class="edge">
<title>R30&#45;&gt;R14</title>
<path fill="none" stroke="black" d="M669.97,-476.07C681.19,-490.28 697.53,-507.33 716.5,-515.86 884.78,-591.49 1112.7,-568.92 1210.37,-554.17"/>
<polygon fill="black" stroke="black" points="1210.73,-557.5 1220.07,-552.5 1209.65,-550.58 1210.73,-557.5"/>
<text text-anchor="middle" x="956" y="-577.86" font-family="Times New Roman,serif" font-size="30.00"> &#160;&#160;35 &#160;&#160;1% &#160;&#160;0.00588 mol/s &#160;&#160;&#160;7.28E&#45;05</text>
</g>
<!-- R1 -->
<g id="node3" class="node">
<title>R1</title>
<g id="a_node3"><a xlink:href="1.svg" xlink:title="R1">
<polygon fill="azure" stroke="none" points="1288,-504.36 1230,-504.36 1230,-457.36 1288,-457.36 1288,-504.36"/>
<text text-anchor="middle" x="1259" y="-472.36" font-family="Times New Roman,serif" font-size="35.00">R1</text>
</a>
</g>
</g>
<!-- R30&#45;&gt;R1 -->
<g id="edge2" class="edge">
<title>R30&#45;&gt;R1</title>
<path fill="none" stroke="black" d="M690.99,-456.75C699.37,-457.54 708.23,-458.3 716.5,-458.86 904.67,-471.71 1130.18,-477.92 1219.17,-480.02"/>
<polygon fill="black" stroke="black" points="1218.99,-483.54 1229.07,-480.27 1219.16,-476.54 1218.99,-483.54"/>
<text text-anchor="middle" x="956" y="-487.86" font-family="Times New Roman,serif" font-size="30.00"> &#160;&#160;35 &#160;&#160;1% &#160;&#160;0.00588 mol/s &#160;&#160;&#160;7.28E&#45;05</text>
</g>
<!-- R29 -->
<g id="node17" class="node">
<title>R29</title>
<g id="a_node17"><a xlink:href="29.svg" xlink:title="R29">
<polygon fill="azure" stroke="none" points="1297,-416.36 1221,-416.36 1221,-369.36 1297,-369.36 1297,-416.36"/>
<text text-anchor="middle" x="1259" y="-384.36" font-family="Times New Roman,serif" font-size="35.00">R29</text>
</a>
</g>
</g>
<!-- R30&#45;&gt;R29 -->
<g id="edge16" class="edge">
<title>R30&#45;&gt;R29</title>
<path fill="none" stroke="black" d="M690.68,-431.5C698.93,-427.6 707.82,-424.08 716.5,-421.86 819.72,-395.5 1089.5,-413.41 1195.5,-402.86 1200.3,-402.38 1205.3,-401.77 1210.28,-401.09"/>
<polygon fill="black" stroke="black" points="1210.69,-404.43 1220.08,-399.51 1209.68,-397.5 1210.69,-404.43"/>
<text text-anchor="middle" x="956" y="-430.86" font-family="Times New Roman,serif" font-size="30.00"> &#160;&#160;435 &#160;&#160;0% &#160;&#160;0.000653 mol/s &#160;&#160;&#160;9.99E&#45;01</text>
</g>
<!-- R30&#45;&gt;R29 -->
<g id="edge17" class="edge">
<title>R30&#45;&gt;R29</title>
<path fill="none" stroke="black" stroke-width="5" d="M663.34,-429.47C673.12,-408.51 690.69,-379.1 716.5,-365.86 905.93,-268.7 987.02,-322.75 1195.5,-365.86 1197.51,-366.28 1199.53,-366.76 1201.56,-367.3"/>
<polygon fill="black" stroke="black" stroke-width="5" points="1194.38,-373.8 1216.14,-372.01 1200.05,-357.25 1194.38,-373.8"/>
<text text-anchor="middle" x="956" y="-374.86" font-family="Times New Roman,serif" font-size="30.00"> &#160;&#160;901 &#160;&#160;98% &#160;&#160;0.511 mol/s &#160;&#160;&#160;1.28E&#45;03</text>
</g>
<!-- R45 -->
<g id="node4" class="node">
<title>R45</title>
<g id="a_node4"><a xlink:href="45.svg" xlink:title="R45">
<polygon fill="azure" stroke="none" points="85,-866.36 9,-866.36 9,-819.36 85,-819.36 85,-866.36"/>
<text text-anchor="middle" x="47" y="-834.36" font-family="Times New Roman,serif" font-size="35.00">R45</text>
</a>
</g>
</g>
<!-- R45&#45;&gt;R30 -->
<g id="edge3" class="edge">
<title>R45&#45;&gt;R30</title>
<path fill="none" stroke="black" d="M84.88,-855.02C182.56,-884.67 450.53,-949.02 597,-816.86 645.22,-773.36 651.54,-569.54 652.1,-487.35"/>
<polygon fill="black" stroke="black" points="655.6,-487.37 652.14,-477.36 648.6,-487.35 655.6,-487.37"/>
<text text-anchor="middle" x="350" y="-905.86" font-family="Times New Roman,serif" font-size="30.00"> &#160;&#160;117 &#160;&#160;0% &#160;&#160;4.54e&#45;07 mol/s &#160;&#160;&#160;3.27E&#45;01</text>
</g>
<!-- R57 -->
<g id="node5" class="node">
<title>R57</title>
<g id="a_node5"><a xlink:href="57.svg" xlink:title="R57">
<polygon fill="azure" stroke="none" points="85,-801.36 9,-801.36 9,-754.36 85,-754.36 85,-801.36"/>
<text text-anchor="middle" x="47" y="-769.36" font-family="Times New Roman,serif" font-size="35.00">R57</text>
</a>
</g>
</g>
<!-- R57&#45;&gt;R30 -->
<g id="edge4" class="edge">
<title>R57&#45;&gt;R30</title>
<path fill="none" stroke="black" d="M84.79,-778.64C201.59,-780.77 558.62,-784.44 597,-750.86 636.1,-716.65 647.61,-557.85 650.82,-487.07"/>
<polygon fill="black" stroke="black" points="654.36,-487.24 651.29,-477.1 647.37,-486.95 654.36,-487.24"/>
<text text-anchor="middle" x="350" y="-788.86" font-family="Times New Roman,serif" font-size="30.00"> &#160;&#160;176 &#160;&#160;0% &#160;&#160;0.00309 mol/s &#160;&#160;&#160;1.38E&#45;04</text>
</g>
<!-- R125 -->
<g id="node6" class="node">
<title>R125</title>
<g id="a_node6"><a xlink:href="125.svg" xlink:title="R125">
<polygon fill="azure" stroke="none" points="94,-736.36 0,-736.36 0,-689.36 94,-689.36 94,-736.36"/>
<text text-anchor="middle" x="47" y="-704.36" font-family="Times New Roman,serif" font-size="35.00">R125</text>
</a>
</g>
</g>
<!-- R125&#45;&gt;R30 -->
<g id="edge5" class="edge">
<title>R125&#45;&gt;R30</title>
<path fill="none" stroke="black" d="M93.74,-713.61C218.65,-715.25 558.78,-716.7 597,-684.86 627.04,-659.84 642.7,-545.42 648.84,-487.16"/>
<polygon fill="black" stroke="black" points="652.41,-487.6 649.94,-477.3 645.45,-486.89 652.41,-487.6"/>
<text text-anchor="middle" x="350" y="-722.86" font-family="Times New Roman,serif" font-size="30.00"> &#160;&#160;177 &#160;&#160;0% &#160;&#160;6.19e&#45;05 mol/s &#160;&#160;&#160;6.81E&#45;03</text>
</g>
<!-- R72 -->
<g id="node7" class="node">
<title>R72</title>
<g id="a_node7"><a xlink:href="72.svg" xlink:title="R72">
<polygon fill="azure" stroke="none" points="85,-671.36 9,-671.36 9,-624.36 85,-624.36 85,-671.36"/>
<text text-anchor="middle" x="47" y="-639.36" font-family="Times New Roman,serif" font-size="35.00">R72</text>
</a>
</g>
</g>
<!-- R72&#45;&gt;R30 -->
<g id="edge6" class="edge">
<title>R72&#45;&gt;R30</title>
<path fill="none" stroke="black" d="M84.61,-648.35C200.88,-649.59 556.46,-650.8 597,-619.86 637.97,-588.6 648.82,-525.93 651.46,-486.89"/>
<polygon fill="black" stroke="black" points="655,-487.23 652.03,-477.07 648.01,-486.87 655,-487.23"/>
<text text-anchor="middle" x="350" y="-656.86" font-family="Times New Roman,serif" font-size="30.00"> &#160;&#160;247 &#160;&#160;0% &#160;&#160;0.0192 mol/s &#160;&#160;&#160;2.23E&#45;05</text>
</g>
<!-- R187 -->
<g id="node8" class="node">
<title>R187</title>
<g id="a_node8"><a xlink:href="187.svg" xlink:title="R187">
<polygon fill="azure" stroke="none" points="94,-606.36 0,-606.36 0,-559.36 94,-559.36 94,-606.36"/>
<text text-anchor="middle" x="47" y="-574.36" font-family="Times New Roman,serif" font-size="35.00">R187</text>
</a>
</g>
</g>
<!-- R187&#45;&gt;R30 -->
<g id="edge7" class="edge">
<title>R187&#45;&gt;R30</title>
<path fill="none" stroke="black" d="M93.8,-583.17C218.05,-583.65 555.03,-582.45 597,-555.86 621.35,-540.43 635.62,-510.36 643.5,-486.67"/>
<polygon fill="black" stroke="black" points="647.09,-487.9 646.68,-477.31 640.4,-485.85 647.09,-487.9"/>
<text text-anchor="middle" x="350" y="-591.86" font-family="Times New Roman,serif" font-size="30.00"> &#160;&#160;248 &#160;&#160;0% &#160;&#160;7.88e&#45;06 mol/s &#160;&#160;&#160;4.89E&#45;02</text>
</g>
<!-- R80 -->
<g id="node9" class="node">
<title>R80</title>
<g id="a_node9"><a xlink:href="80.svg" xlink:title="R80">
<polygon fill="azure" stroke="none" points="85,-541.36 9,-541.36 9,-494.36 85,-494.36 85,-541.36"/>
<text text-anchor="middle" x="47" y="-509.36" font-family="Times New Roman,serif" font-size="35.00">R80</text>
</a>
</g>
</g>
<!-- R80&#45;&gt;R30 -->
<g id="edge8" class="edge">
<title>R80&#45;&gt;R30</title>
<path fill="none" stroke="black" d="M84.83,-518.53C191.93,-520.08 501.7,-521.61 597,-489.86 602.95,-487.88 608.85,-485.07 614.46,-481.87"/>
<polygon fill="black" stroke="black" points="615.94,-484.45 622.59,-476.19 612.25,-478.5 615.94,-484.45"/>
<text text-anchor="middle" x="350" y="-527.86" font-family="Times New Roman,serif" font-size="30.00"> &#160;&#160;290 &#160;&#160;0% &#160;&#160;0.00298 mol/s &#160;&#160;&#160;1.43E&#45;04</text>
</g>
<!-- R223 -->
<g id="node10" class="node">
<title>R223</title>
<g id="a_node10"><a xlink:href="223.svg" xlink:title="R223">
<polygon fill="azure" stroke="none" points="94,-476.36 0,-476.36 0,-429.36 94,-429.36 94,-476.36"/>
<text text-anchor="middle" x="47" y="-444.36" font-family="Times New Roman,serif" font-size="35.00">R223</text>
</a>
</g>
</g>
<!-- R223&#45;&gt;R30 -->
<g id="edge9" class="edge">
<title>R223&#45;&gt;R30</title>
<path fill="none" stroke="black" d="M93.89,-452.86C205.66,-452.86 491.08,-452.86 604.5,-452.86"/>
<polygon fill="black" stroke="black" points="604.24,-456.36 614.24,-452.86 604.24,-449.36 604.24,-456.36"/>
<text text-anchor="middle" x="350" y="-461.86" font-family="Times New Roman,serif" font-size="30.00"> &#160;&#160;291 &#160;&#160;0% &#160;&#160;2.01e&#45;05 mol/s &#160;&#160;&#160;2.04E&#45;02</text>
</g>
<!-- R232 -->
<g id="node11" class="node">
<title>R232</title>
<g id="a_node11"><a xlink:href="232.svg" xlink:title="R232">
<polygon fill="azure" stroke="none" points="94,-411.36 0,-411.36 0,-364.36 94,-364.36 94,-411.36"/>
<text text-anchor="middle" x="47" y="-379.36" font-family="Times New Roman,serif" font-size="35.00">R232</text>
</a>
</g>
</g>
<!-- R232&#45;&gt;R30 -->
<g id="edge10" class="edge">
<title>R232&#45;&gt;R30</title>
<path fill="none" stroke="black" d="M93.98,-382.13C190.26,-371.85 418.85,-356.51 597,-415.86 602.95,-417.84 608.85,-420.65 614.46,-423.85"/>
<polygon fill="black" stroke="black" points="612.25,-427.22 622.59,-429.53 615.94,-421.27 612.25,-427.22"/>
<text text-anchor="middle" x="350" y="-424.86" font-family="Times New Roman,serif" font-size="30.00"> &#160;&#160;306 &#160;&#160;0% &#160;&#160;0.145 mol/s &#160;&#160;&#160;2.96E&#45;06</text>
</g>
<!-- R252 -->
<g id="node12" class="node">
<title>R252</title>
<g id="a_node12"><a xlink:href="252.svg" xlink:title="R252">
<polygon fill="azure" stroke="none" points="94,-346.36 0,-346.36 0,-299.36 94,-299.36 94,-346.36"/>
<text text-anchor="middle" x="47" y="-314.36" font-family="Times New Roman,serif" font-size="35.00">R252</text>
</a>
</g>
</g>
<!-- R252&#45;&gt;R30 -->
<g id="edge11" class="edge">
<title>R252&#45;&gt;R30</title>
<path fill="none" stroke="black" stroke-width="2" d="M93.66,-317.87C210.13,-306.07 514.87,-281.26 597,-334.86 625.57,-353.51 639.57,-391.2 646.25,-418.98"/>
<polygon fill="black" stroke="black" stroke-width="2" points="642.99,-418.44 648.54,-427.46 649.82,-416.94 642.99,-418.44"/>
<text text-anchor="middle" x="350" y="-343.86" font-family="Times New Roman,serif" font-size="30.00"> &#160;&#160;341 &#160;&#160;36% &#160;&#160;66700.0 mol/s &#160;&#160;&#160;6.42E&#45;12</text>
</g>
<!-- R253 -->
<g id="node13" class="node">
<title>R253</title>
<g id="a_node13"><a xlink:href="253.svg" xlink:title="R253">
<polygon fill="azure" stroke="none" points="94,-281.36 0,-281.36 0,-234.36 94,-234.36 94,-281.36"/>
<text text-anchor="middle" x="47" y="-249.36" font-family="Times New Roman,serif" font-size="35.00">R253</text>
</a>
</g>
</g>
<!-- R253&#45;&gt;R30 -->
<g id="edge12" class="edge">
<title>R253&#45;&gt;R30</title>
<path fill="none" stroke="black" d="M93.6,-255.3C218.14,-248.73 557.42,-233.82 597,-263.86 621.68,-282.6 639,-369.65 647,-418.82"/>
<polygon fill="black" stroke="black" points="643.68,-419.24 648.69,-428.57 650.59,-418.14 643.68,-419.24"/>
<text text-anchor="middle" x="350" y="-272.86" font-family="Times New Roman,serif" font-size="30.00"> &#160;&#160;342 &#160;&#160;0% &#160;&#160;2.49e&#45;05 mol/s &#160;&#160;&#160;1.66E&#45;02</text>
</g>
<!-- R289 -->
<g id="node14" class="node">
<title>R289</title>
<g id="a_node14"><a xlink:href="289.svg" xlink:title="R289">
<polygon fill="azure" stroke="none" points="94,-216.36 0,-216.36 0,-169.36 94,-169.36 94,-216.36"/>
<text text-anchor="middle" x="47" y="-184.36" font-family="Times New Roman,serif" font-size="35.00">R289</text>
</a>
</g>
</g>
<!-- R289&#45;&gt;R30 -->
<g id="edge13" class="edge">
<title>R289&#45;&gt;R30</title>
<path fill="none" stroke="black" stroke-width="4" d="M93.97,-187.21C211.89,-173.77 521.17,-145.45 597,-207.86 627.57,-233.02 642.45,-345.82 648.51,-409.22"/>
<polygon fill="black" stroke="black" stroke-width="4" points="641.59,-404.43 650.33,-423.73 655.54,-403.19 641.59,-404.43"/>
<text text-anchor="middle" x="350" y="-216.86" font-family="Times New Roman,serif" font-size="30.00"> &#160;&#160;391 &#160;&#160;63% &#160;&#160;116000.0 mol/s &#160;&#160;&#160;3.69E&#45;12</text>
</g>
<!-- R290 -->
<g id="node15" class="node">
<title>R290</title>
<g id="a_node15"><a xlink:href="290.svg" xlink:title="R290">
<polygon fill="azure" stroke="none" points="94,-151.36 0,-151.36 0,-104.36 94,-104.36 94,-151.36"/>
<text text-anchor="middle" x="47" y="-119.36" font-family="Times New Roman,serif" font-size="35.00">R290</text>
</a>
</g>
</g>
<!-- R290&#45;&gt;R30 -->
<g id="edge14" class="edge">
<title>R290&#45;&gt;R30</title>
<path fill="none" stroke="black" d="M93.78,-124.9C218.78,-117.27 559.13,-99.69 597,-131.86 640.14,-168.51 649.44,-344.19 651.45,-419"/>
<polygon fill="black" stroke="black" points="647.97,-418.78 651.7,-428.7 654.96,-418.62 647.97,-418.78"/>
<text text-anchor="middle" x="350" y="-140.86" font-family="Times New Roman,serif" font-size="30.00"> &#160;&#160;392 &#160;&#160;0% &#160;&#160;0.000437 mol/s &#160;&#160;&#160;9.76E&#45;04</text>
</g>
<!-- R291 -->
<g id="node16" class="node">
<title>R291</title>
<g id="a_node16"><a xlink:href="291.svg" xlink:title="R291">
<polygon fill="azure" stroke="none" points="94,-86.36 0,-86.36 0,-39.36 94,-39.36 94,-86.36"/>
<text text-anchor="middle" x="47" y="-54.36" font-family="Times New Roman,serif" font-size="35.00">R291</text>
</a>
</g>
</g>
<!-- R291&#45;&gt;R30 -->
<g id="edge15" class="edge">
<title>R291&#45;&gt;R30</title>
<path fill="none" stroke="black" d="M93.66,-46.68C197.55,-13.09 453.72,51.03 597,-75.86 647.66,-120.72 652.47,-334.68 652.37,-418.79"/>
<polygon fill="black" stroke="black" points="648.86,-418.52 652.32,-428.54 655.86,-418.55 648.86,-418.52"/>
<text text-anchor="middle" x="350" y="-84.86" font-family="Times New Roman,serif" font-size="30.00"> &#160;&#160;393 &#160;&#160;0% &#160;&#160;1e&#45;06 mol/s &#160;&#160;&#160;2.30E&#45;01</text>
</g>
</g>
</svg>
