<?xml version="1.0" encoding="UTF-8" standalone="no"?>
<!DOCTYPE svg PUBLIC "-//W3C//DTD SVG 1.1//EN"
 "http://www.w3.org/Graphics/SVG/1.1/DTD/svg11.dtd">
<!-- Generated by graphviz version 8.0.3 (20230416.2022)
 -->
<!-- Title: G Pages: 1 -->
<svg width="640pt" height="177pt"
 viewBox="0.00 0.00 720.00 199.19" xmlns="http://www.w3.org/2000/svg" xmlns:xlink="http://www.w3.org/1999/xlink">
<g id="graph0" class="graph" transform="scale(0.498442 0.498442) rotate(0) translate(4 351.21)">
<title>G</title>
<polygon fill="white" stroke="none" points="-4,4 -4,-351.21 1280,-351.21 1280,4 -4,4"/>
<text text-anchor="middle" x="638" y="-314.41" font-family="Arial" font-size="36.00" fill="blue">Reaction Path Analysis</text>
<!-- R302 -->
<g id="node1" class="node">
<title>R302</title>
<g id="a_node1"><a xlink:href="302.svg" xlink:title="R302">
<polygon fill="azure" stroke="none" points="685,-159.71 591,-159.71 591,-112.71 685,-112.71 685,-159.71"/>
<text text-anchor="middle" x="638" y="-127.71" font-family="Times New Roman,serif" font-size="35.00">R302</text>
</a>
</g>
</g>
<!-- R26 -->
<g id="node2" class="node">
<title>R26</title>
<g id="a_node2"><a xlink:href="26.svg" xlink:title="R26">
<polygon fill="azure" stroke="none" points="1267,-280.71 1191,-280.71 1191,-233.71 1267,-233.71 1267,-280.71"/>
<text text-anchor="middle" x="1229" y="-248.71" font-family="Times New Roman,serif" font-size="35.00">R26</text>
</a>
</g>
</g>
<!-- R302&#45;&gt;R26 -->
<g id="edge1" class="edge">
<title>R302&#45;&gt;R26</title>
<path fill="none" stroke="black" stroke-width="5" d="M646.33,-159.37C654.78,-181.79 671,-214.6 697.5,-230.21 776.13,-276.55 1050.3,-267.37 1170.63,-260.83"/>
<polygon fill="black" stroke="black" stroke-width="5" points="1165.76,-269.53 1185.23,-259.65 1164.76,-252.06 1165.76,-269.53"/>
<text text-anchor="middle" x="933.5" y="-275.21" font-family="Times New Roman,serif" font-size="30.00"> &#160;&#160;408 &#160;&#160;99% &#160;&#160;0.0322 mol/s &#160;&#160;&#160;1.33E&#45;05</text>
</g>
<!-- R15 -->
<g id="node3" class="node">
<title>R15</title>
<g id="a_node3"><a xlink:href="15.svg" xlink:title="R15">
<polygon fill="azure" stroke="none" points="1267,-215.71 1191,-215.71 1191,-168.71 1267,-168.71 1267,-215.71"/>
<text text-anchor="middle" x="1229" y="-183.71" font-family="Times New Roman,serif" font-size="35.00">R15</text>
</a>
</g>
</g>
<!-- R302&#45;&gt;R15 -->
<g id="edge2" class="edge">
<title>R302&#45;&gt;R15</title>
<path fill="none" stroke="black" stroke-width="5" d="M673.01,-159.64C680.75,-163.91 689.16,-167.78 697.5,-170.21 784.67,-195.66 1051.88,-194.97 1170.38,-193.3"/>
<polygon fill="black" stroke="black" stroke-width="5" points="1165.16,-202.04 1185.02,-192.98 1164.89,-184.54 1165.16,-202.04"/>
<text text-anchor="middle" x="933.5" y="-202.21" font-family="Times New Roman,serif" font-size="30.00"> &#160;&#160;408 &#160;&#160;99% &#160;&#160;0.0322 mol/s &#160;&#160;&#160;1.33E&#45;05</text>
</g>
<!-- R0 -->
<g id="node4" class="node">
<title>R0</title>
<g id="a_node4"><a xlink:href="0.svg" xlink:title="R0">
<polygon fill="azure" stroke="none" points="1258,-131.71 1200,-131.71 1200,-84.71 1258,-84.71 1258,-131.71"/>
<text text-anchor="middle" x="1229" y="-99.71" font-family="Times New Roman,serif" font-size="35.00">R0</text>
</a>
</g>
</g>
<!-- R302&#45;&gt;R0 -->
<g id="edge3" class="edge">
<title>R302&#45;&gt;R0</title>
<path fill="none" stroke="black" d="M684.82,-135.25C776.8,-133.11 990.44,-127.1 1169.5,-114.21 1175.89,-113.75 1182.67,-113.16 1189.26,-112.52"/>
<polygon fill="black" stroke="black" points="1189.46,-115.92 1199.06,-111.43 1188.76,-108.95 1189.46,-115.92"/>
<text text-anchor="middle" x="933.5" y="-143.21" font-family="Times New Roman,serif" font-size="30.00"> &#160;&#160;545 &#160;&#160;0% &#160;&#160;9.79e&#45;08 mol/s &#160;&#160;&#160;4.49E&#45;01</text>
</g>
<!-- R280 -->
<g id="node5" class="node">
<title>R280</title>
<g id="a_node5"><a xlink:href="280.svg" xlink:title="R280">
<polygon fill="azure" stroke="none" points="1276,-47.71 1182,-47.71 1182,-0.71 1276,-0.71 1276,-47.71"/>
<text text-anchor="middle" x="1229" y="-15.71" font-family="Times New Roman,serif" font-size="35.00">R280</text>
</a>
</g>
</g>
<!-- R302&#45;&gt;R280 -->
<g id="edge4" class="edge">
<title>R302&#45;&gt;R280</title>
<path fill="none" stroke="black" d="M644.23,-112.78C651.38,-86.93 666.97,-46.55 697.5,-28.21 775.78,18.81 1051.12,-4.62 1171.25,-17.57"/>
<polygon fill="black" stroke="black" points="1170.71,-21.14 1181.03,-18.75 1171.47,-14.18 1170.71,-21.14"/>
<text text-anchor="middle" x="933.5" y="-37.21" font-family="Times New Roman,serif" font-size="30.00"> &#160;&#160;545 &#160;&#160;0% &#160;&#160;9.79e&#45;08 mol/s &#160;&#160;&#160;4.49E&#45;01</text>
</g>
<!-- R0&#45;&gt;R302 -->
<g id="edge6" class="edge">
<title>R0&#45;&gt;R302</title>
<path fill="none" stroke="black" d="M1200.26,-89.98C1190.88,-84.8 1180.1,-79.85 1169.5,-77.21 1118.6,-64.56 745.91,-57.04 697.5,-77.21 683.6,-83.01 671.31,-93.89 661.63,-104.74"/>
<polygon fill="black" stroke="black" points="658.49,-102.04 654.75,-111.95 663.85,-106.53 658.49,-102.04"/>
<text text-anchor="middle" x="933.5" y="-86.21" font-family="Times New Roman,serif" font-size="30.00"> &#160;&#160;836 &#160;&#160;0% &#160;&#160;3.43e&#45;07 mol/s &#160;&#160;&#160;8.35E&#45;01</text>
</g>
<!-- R259 -->
<g id="node6" class="node">
<title>R259</title>
<g id="a_node6"><a xlink:href="259.svg" xlink:title="R259">
<polygon fill="azure" stroke="none" points="94,-191.71 0,-191.71 0,-144.71 94,-144.71 94,-191.71"/>
<text text-anchor="middle" x="47" y="-159.71" font-family="Times New Roman,serif" font-size="35.00">R259</text>
</a>
</g>
</g>
<!-- R259&#45;&gt;R302 -->
<g id="edge5" class="edge">
<title>R259&#45;&gt;R302</title>
<path fill="none" stroke="black" d="M93.8,-176.74C187.61,-192.39 407.43,-219.82 582,-170.21 586.87,-168.83 591.74,-166.88 596.44,-164.6"/>
<polygon fill="black" stroke="black" points="597.69,-167.37 604.84,-159.55 594.37,-161.2 597.69,-167.37"/>
<text text-anchor="middle" x="342.5" y="-207.21" font-family="Times New Roman,serif" font-size="30.00"> &#160;&#160;737 &#160;&#160;2% &#160;&#160;0.000639 mol/s &#160;&#160;&#160;9.77E&#45;01</text>
</g>
<!-- R259&#45;&gt;R302 -->
<g id="edge8" class="edge">
<title>R259&#45;&gt;R302</title>
<path fill="none" stroke="black" stroke-width="5" d="M78.21,-144.74C85.89,-140 94.42,-135.71 103,-133.21 188.65,-108.27 447.3,-122.53 570.44,-131.14"/>
<polygon fill="black" stroke="black" stroke-width="5" points="564.52,-139.92 585.09,-132.62 565.77,-122.46 564.52,-139.92"/>
<text text-anchor="middle" x="342.5" y="-142.21" font-family="Times New Roman,serif" font-size="30.00"> &#160;&#160;984 &#160;&#160;97% &#160;&#160;0.0273 mol/s &#160;&#160;&#160;2.29E&#45;02</text>
</g>
<!-- R281 -->
<g id="node7" class="node">
<title>R281</title>
<g id="a_node7"><a xlink:href="281.svg" xlink:title="R281">
<polygon fill="azure" stroke="none" points="94,-103.71 0,-103.71 0,-56.71 94,-56.71 94,-103.71"/>
<text text-anchor="middle" x="47" y="-71.71" font-family="Times New Roman,serif" font-size="35.00">R281</text>
</a>
</g>
</g>
<!-- R281&#45;&gt;R302 -->
<g id="edge7" class="edge">
<title>R281&#45;&gt;R302</title>
<path fill="none" stroke="black" d="M93.87,-69.03C189.17,-48.15 413.76,-11.34 582,-81.21 594.06,-86.22 604.85,-95.29 613.62,-104.64"/>
<polygon fill="black" stroke="black" points="611.56,-106.61 620.78,-111.83 616.83,-102 611.56,-106.61"/>
<text text-anchor="middle" x="342.5" y="-90.21" font-family="Times New Roman,serif" font-size="30.00"> &#160;&#160;836 &#160;&#160;0% &#160;&#160;3.43e&#45;07 mol/s &#160;&#160;&#160;8.35E&#45;01</text>
</g>
</g>
</svg>
