<?xml version="1.0" encoding="UTF-8" standalone="no"?>
<!DOCTYPE svg PUBLIC "-//W3C//DTD SVG 1.1//EN"
 "http://www.w3.org/Graphics/SVG/1.1/DTD/svg11.dtd">
<!-- Generated by graphviz version 8.0.3 (20230416.2022)
 -->
<!-- Title: G Pages: 1 -->
<svg width="623pt" height="339pt"
 viewBox="0.00 0.00 701.00 381.69" xmlns="http://www.w3.org/2000/svg" xmlns:xlink="http://www.w3.org/1999/xlink">
<g id="graph0" class="graph" transform="scale(0.888889 0.888889) rotate(0) translate(4 377.69)">
<title>G</title>
<polygon fill="white" stroke="none" points="-4,4 -4,-377.69 697,-377.69 697,4 -4,4"/>
<text text-anchor="middle" x="346.5" y="-340.89" font-family="Arial" font-size="36.00" fill="blue">Reaction Path Analysis</text>
<!-- R314 -->
<g id="node1" class="node">
<title>R314</title>
<g id="a_node1"><a xlink:href="314.svg" xlink:title="R314">
<polygon fill="azure" stroke="none" points="94,-174.19 0,-174.19 0,-127.19 94,-127.19 94,-174.19"/>
<text text-anchor="middle" x="47" y="-142.19" font-family="Times New Roman,serif" font-size="35.00">R314</text>
</a>
</g>
</g>
<!-- R73 -->
<g id="node2" class="node">
<title>R73</title>
<g id="a_node2"><a xlink:href="73.svg" xlink:title="R73">
<polygon fill="azure" stroke="none" points="684,-265.19 608,-265.19 608,-218.19 684,-218.19 684,-265.19"/>
<text text-anchor="middle" x="646" y="-233.19" font-family="Times New Roman,serif" font-size="35.00">R73</text>
</a>
</g>
</g>
<!-- R314&#45;&gt;R73 -->
<g id="edge1" class="edge">
<title>R314&#45;&gt;R73</title>
<path fill="none" stroke="black" stroke-width="5" d="M54.92,-173.93C62.74,-195.55 77.78,-226.51 103,-240.69 259.58,-328.69 484,-286.01 588.03,-258.61"/>
<polygon fill="black" stroke="black" stroke-width="5" points="585.07,-267.85 602.05,-254.13 580.45,-250.97 585.07,-267.85"/>
<text text-anchor="middle" x="346.5" y="-301.69" font-family="Times New Roman,serif" font-size="30.00"> &#160;&#160;456 &#160;&#160;99% &#160;&#160;12.2 mol/s &#160;&#160;&#160;5.34E&#45;05</text>
</g>
<!-- R314&#45;&gt;R73 -->
<g id="edge5" class="edge">
<title>R314&#45;&gt;R73</title>
<path fill="none" stroke="black" d="M79.82,-174.13C87.11,-178.4 95.05,-182.26 103,-184.69 206.58,-216.32 487.25,-169.43 590,-203.69 596.36,-205.81 602.65,-208.91 608.57,-212.43"/>
<polygon fill="black" stroke="black" points="606.25,-215.74 616.55,-218.25 610.06,-209.87 606.25,-215.74"/>
<text text-anchor="middle" x="346.5" y="-212.69" font-family="Times New Roman,serif" font-size="30.00"> &#160;&#160;787 &#160;&#160;0% &#160;&#160;0.000654 mol/s &#160;&#160;&#160;1.00E+00</text>
</g>
<!-- R324 -->
<g id="node3" class="node">
<title>R324</title>
<g id="a_node3"><a xlink:href="324.svg" xlink:title="R324">
<polygon fill="azure" stroke="none" points="693,-179.19 599,-179.19 599,-132.19 693,-132.19 693,-179.19"/>
<text text-anchor="middle" x="646" y="-147.19" font-family="Times New Roman,serif" font-size="35.00">R324</text>
</a>
</g>
</g>
<!-- R314&#45;&gt;R324 -->
<g id="edge2" class="edge">
<title>R314&#45;&gt;R324</title>
<path fill="none" stroke="black" d="M93.7,-149.68C185.29,-147.9 398.08,-144.95 588.33,-151.71"/>
<polygon fill="black" stroke="black" points="587.98,-155.24 598.1,-152.11 588.23,-148.24 587.98,-155.24"/>
<text text-anchor="middle" x="346.5" y="-160.69" font-family="Times New Roman,serif" font-size="30.00"> &#160;&#160;548 &#160;&#160;0% &#160;&#160;1.16e&#45;07 mol/s &#160;&#160;&#160;5.78E&#45;01</text>
</g>
<!-- R109 -->
<g id="node4" class="node">
<title>R109</title>
<g id="a_node4"><a xlink:href="109.svg" xlink:title="R109">
<polygon fill="azure" stroke="none" points="693,-114.19 599,-114.19 599,-67.19 693,-67.19 693,-114.19"/>
<text text-anchor="middle" x="646" y="-82.19" font-family="Times New Roman,serif" font-size="35.00">R109</text>
</a>
</g>
</g>
<!-- R314&#45;&gt;R109 -->
<g id="edge3" class="edge">
<title>R314&#45;&gt;R109</title>
<path fill="none" stroke="black" d="M72.68,-127.32C81.56,-120.33 92.1,-113.52 103,-109.69 271.25,-50.59 487.22,-68.54 588.2,-81.88"/>
<polygon fill="black" stroke="black" points="587.68,-85.47 598.06,-83.35 588.62,-78.54 587.68,-85.47"/>
<text text-anchor="middle" x="346.5" y="-118.69" font-family="Times New Roman,serif" font-size="30.00"> &#160;&#160;558 &#160;&#160;0% &#160;&#160;4.39e&#45;05 mol/s &#160;&#160;&#160;9.56E&#45;03</text>
</g>
<!-- R1 -->
<g id="node5" class="node">
<title>R1</title>
<g id="a_node5"><a xlink:href="1.svg" xlink:title="R1">
<polygon fill="azure" stroke="none" points="675,-49.19 617,-49.19 617,-2.19 675,-2.19 675,-49.19"/>
<text text-anchor="middle" x="646" y="-17.19" font-family="Times New Roman,serif" font-size="35.00">R1</text>
</a>
</g>
</g>
<!-- R314&#45;&gt;R1 -->
<g id="edge4" class="edge">
<title>R314&#45;&gt;R1</title>
<path fill="none" stroke="black" d="M51.2,-127.33C56.47,-98.93 69.92,-52.13 103,-30.69 185.75,22.95 496.28,-7.89 606.17,-20.83"/>
<polygon fill="black" stroke="black" points="605.72,-24.42 616.06,-22.13 606.55,-17.47 605.72,-24.42"/>
<text text-anchor="middle" x="346.5" y="-39.69" font-family="Times New Roman,serif" font-size="30.00"> &#160;&#160;558 &#160;&#160;0% &#160;&#160;4.39e&#45;05 mol/s &#160;&#160;&#160;9.56E&#45;03</text>
</g>
</g>
</svg>
