<?xml version="1.0" encoding="UTF-8" standalone="no"?>
<!DOCTYPE svg PUBLIC "-//W3C//DTD SVG 1.1//EN"
 "http://www.w3.org/Graphics/SVG/1.1/DTD/svg11.dtd">
<!-- Generated by graphviz version 8.0.3 (20230416.2022)
 -->
<!-- Title: G Pages: 1 -->
<svg width="640pt" height="175pt"
 viewBox="0.00 0.00 720.00 196.77" xmlns="http://www.w3.org/2000/svg" xmlns:xlink="http://www.w3.org/1999/xlink">
<g id="graph0" class="graph" transform="scale(0.490421 0.490421) rotate(0) translate(4 352.65)">
<title>G</title>
<polygon fill="white" stroke="none" points="-4,4 -4,-352.65 1301,-352.65 1301,4 -4,4"/>
<text text-anchor="middle" x="648.5" y="-315.85" font-family="Arial" font-size="36.00" fill="blue">Reaction Path Analysis</text>
<!-- R322 -->
<g id="node1" class="node">
<title>R322</title>
<g id="a_node1"><a xlink:href="322.svg" xlink:title="R322">
<polygon fill="azure" stroke="none" points="700,-171.15 606,-171.15 606,-124.15 700,-124.15 700,-171.15"/>
<text text-anchor="middle" x="653" y="-139.15" font-family="Times New Roman,serif" font-size="35.00">R322</text>
</a>
</g>
</g>
<!-- R26 -->
<g id="node4" class="node">
<title>R26</title>
<g id="a_node4"><a xlink:href="26.svg" xlink:title="R26">
<polygon fill="azure" stroke="none" points="1297,-204.15 1221,-204.15 1221,-157.15 1297,-157.15 1297,-204.15"/>
<text text-anchor="middle" x="1259" y="-172.15" font-family="Times New Roman,serif" font-size="35.00">R26</text>
</a>
</g>
</g>
<!-- R322&#45;&gt;R26 -->
<g id="edge3" class="edge">
<title>R322&#45;&gt;R26</title>
<path fill="none" stroke="black" stroke-width="6" d="M699.98,-156.46C705.53,-157.31 711.13,-158.07 716.5,-158.65 891.99,-177.57 1101.07,-180.58 1200.27,-180.83"/>
<polygon fill="black" stroke="black" stroke-width="6" points="1195.1,-191.33 1215.11,-180.85 1195.11,-170.33 1195.1,-191.33"/>
<text text-anchor="middle" x="956" y="-189.65" font-family="Times New Roman,serif" font-size="30.00"> &#160;&#160;898 &#160;&#160;100% &#160;&#160;0.0901 mol/s &#160;&#160;&#160;4.75E&#45;06</text>
</g>
<!-- R16 -->
<g id="node5" class="node">
<title>R16</title>
<g id="a_node5"><a xlink:href="16.svg" xlink:title="R16">
<polygon fill="azure" stroke="none" points="1297,-139.15 1221,-139.15 1221,-92.15 1297,-92.15 1297,-139.15"/>
<text text-anchor="middle" x="1259" y="-107.15" font-family="Times New Roman,serif" font-size="35.00">R16</text>
</a>
</g>
</g>
<!-- R322&#45;&gt;R16 -->
<g id="edge4" class="edge">
<title>R322&#45;&gt;R16</title>
<path fill="none" stroke="black" stroke-width="6" d="M699.97,-129.62C705.47,-128.02 711.07,-126.63 716.5,-125.65 890.31,-94.3 1100.58,-103.57 1200.23,-110.73"/>
<polygon fill="black" stroke="black" stroke-width="6" points="1194.42,-121.28 1215.16,-112.33 1196.02,-100.34 1194.42,-121.28"/>
<text text-anchor="middle" x="956" y="-134.65" font-family="Times New Roman,serif" font-size="30.00"> &#160;&#160;898 &#160;&#160;100% &#160;&#160;0.0901 mol/s &#160;&#160;&#160;4.75E&#45;06</text>
</g>
<!-- R0 -->
<g id="node2" class="node">
<title>R0</title>
<g id="a_node2"><a xlink:href="0.svg" xlink:title="R0">
<polygon fill="azure" stroke="none" points="76,-264.15 18,-264.15 18,-217.15 76,-217.15 76,-264.15"/>
<text text-anchor="middle" x="47" y="-232.15" font-family="Times New Roman,serif" font-size="35.00">R0</text>
</a>
</g>
</g>
<!-- R0&#45;&gt;R322 -->
<g id="edge1" class="edge">
<title>R0&#45;&gt;R322</title>
<path fill="none" stroke="black" d="M75.87,-246.46C159.9,-262.49 416.05,-300.59 597,-211.65 611.39,-204.58 623.53,-191.86 632.71,-179.61"/>
<polygon fill="black" stroke="black" points="635.97,-182.06 638.86,-171.86 630.25,-178.03 635.97,-182.06"/>
<text text-anchor="middle" x="350" y="-276.65" font-family="Times New Roman,serif" font-size="30.00"> &#160;&#160;544 &#160;&#160;0% &#160;&#160;3.01e&#45;07 mol/s &#160;&#160;&#160;7.72E&#45;01</text>
</g>
<!-- R280 -->
<g id="node3" class="node">
<title>R280</title>
<g id="a_node3"><a xlink:href="280.svg" xlink:title="R280">
<polygon fill="azure" stroke="none" points="94,-199.15 0,-199.15 0,-152.15 94,-152.15 94,-199.15"/>
<text text-anchor="middle" x="47" y="-167.15" font-family="Times New Roman,serif" font-size="35.00">R280</text>
</a>
</g>
</g>
<!-- R280&#45;&gt;R322 -->
<g id="edge2" class="edge">
<title>R280&#45;&gt;R322</title>
<path fill="none" stroke="black" d="M93.97,-174.88C186.61,-173.08 402.58,-167.73 595.21,-153.7"/>
<polygon fill="black" stroke="black" points="595.39,-157.12 605.11,-152.9 594.87,-150.14 595.39,-157.12"/>
<text text-anchor="middle" x="350" y="-183.65" font-family="Times New Roman,serif" font-size="30.00"> &#160;&#160;544 &#160;&#160;0% &#160;&#160;3.01e&#45;07 mol/s &#160;&#160;&#160;7.72E&#45;01</text>
</g>
<!-- R208 -->
<g id="node6" class="node">
<title>R208</title>
<g id="a_node6"><a xlink:href="208.svg" xlink:title="R208">
<polygon fill="azure" stroke="none" points="94,-111.15 0,-111.15 0,-64.15 94,-64.15 94,-111.15"/>
<text text-anchor="middle" x="47" y="-79.15" font-family="Times New Roman,serif" font-size="35.00">R208</text>
</a>
</g>
</g>
<!-- R208&#45;&gt;R322 -->
<g id="edge5" class="edge">
<title>R208&#45;&gt;R322</title>
<path fill="none" stroke="black" d="M93.85,-96.49C96.94,-96.93 100.01,-97.32 103,-97.65 212.21,-109.62 491.29,-86.73 597,-116.65 600.12,-117.53 603.25,-118.63 606.34,-119.87"/>
<polygon fill="black" stroke="black" points="604.52,-123.34 615.08,-124.26 607.41,-116.96 604.52,-123.34"/>
<text text-anchor="middle" x="350" y="-125.65" font-family="Times New Roman,serif" font-size="30.00"> &#160;&#160;956 &#160;&#160;10% &#160;&#160;0.000581 mol/s &#160;&#160;&#160;8.99E&#45;01</text>
</g>
<!-- R208&#45;&gt;R322 -->
<g id="edge6" class="edge">
<title>R208&#45;&gt;R322</title>
<path fill="none" stroke="black" stroke-width="5" d="M91.16,-64.25C95.08,-62.8 99.06,-61.57 103,-60.65 316.86,-10.99 404.69,45.29 597,-60.65 614.55,-70.32 627.28,-88.21 636.04,-105.26"/>
<polygon fill="black" stroke="black" stroke-width="5" points="626.42,-104.65 642.56,-119.36 642.4,-97.53 626.42,-104.65"/>
<text text-anchor="middle" x="350" y="-69.65" font-family="Times New Roman,serif" font-size="30.00"> &#160;&#160;991 &#160;&#160;89% &#160;&#160;0.00517 mol/s &#160;&#160;&#160;1.01E&#45;01</text>
</g>
</g>
</svg>
