<?xml version="1.0" encoding="UTF-8" standalone="no"?>
<!DOCTYPE svg PUBLIC "-//W3C//DTD SVG 1.1//EN"
 "http://www.w3.org/Graphics/SVG/1.1/DTD/svg11.dtd">
<!-- Generated by graphviz version 8.0.3 (20230416.2022)
 -->
<!-- Title: G Pages: 1 -->
<svg width="616pt" height="376pt"
 viewBox="0.00 0.00 693.00 423.20" xmlns="http://www.w3.org/2000/svg" xmlns:xlink="http://www.w3.org/1999/xlink">
<g id="graph0" class="graph" transform="scale(0.888889 0.888889) rotate(0) translate(4 419.2)">
<title>G</title>
<polygon fill="white" stroke="none" points="-4,4 -4,-419.2 689,-419.2 689,4 -4,4"/>
<text text-anchor="middle" x="342.5" y="-382.4" font-family="Arial" font-size="36.00" fill="blue">Reaction Path Analysis</text>
<!-- R323 -->
<g id="node1" class="node">
<title>R323</title>
<g id="a_node1"><a xlink:href="323.svg" xlink:title="R323">
<polygon fill="azure" stroke="none" points="94,-197.7 0,-197.7 0,-150.7 94,-150.7 94,-197.7"/>
<text text-anchor="middle" x="47" y="-165.7" font-family="Times New Roman,serif" font-size="35.00">R323</text>
</a>
</g>
</g>
<!-- R0 -->
<g id="node2" class="node">
<title>R0</title>
<g id="a_node2"><a xlink:href="0.svg" xlink:title="R0">
<polygon fill="azure" stroke="none" points="667,-346.7 609,-346.7 609,-299.7 667,-299.7 667,-346.7"/>
<text text-anchor="middle" x="638" y="-314.7" font-family="Times New Roman,serif" font-size="35.00">R0</text>
</a>
</g>
</g>
<!-- R323&#45;&gt;R0 -->
<g id="edge1" class="edge">
<title>R323&#45;&gt;R0</title>
<path fill="none" stroke="black" d="M51.13,-197.21C56.36,-225.79 69.8,-273.54 103,-296.2 183.25,-350.97 489.34,-334.22 598.25,-326.29"/>
<polygon fill="black" stroke="black" points="598.34,-329.72 608.05,-325.49 597.82,-322.74 598.34,-329.72"/>
<text text-anchor="middle" x="342.5" y="-343.2" font-family="Times New Roman,serif" font-size="30.00"> &#160;&#160;546 &#160;&#160;0% &#160;&#160;3.31e&#45;05 mol/s &#160;&#160;&#160;1.26E&#45;02</text>
</g>
<!-- R282 -->
<g id="node3" class="node">
<title>R282</title>
<g id="a_node3"><a xlink:href="282.svg" xlink:title="R282">
<polygon fill="azure" stroke="none" points="685,-281.7 591,-281.7 591,-234.7 685,-234.7 685,-281.7"/>
<text text-anchor="middle" x="638" y="-249.7" font-family="Times New Roman,serif" font-size="35.00">R282</text>
</a>
</g>
</g>
<!-- R323&#45;&gt;R282 -->
<g id="edge2" class="edge">
<title>R323&#45;&gt;R282</title>
<path fill="none" stroke="black" d="M66.65,-197.67C76.3,-208.03 89,-219.2 103,-225.2 187.56,-261.41 460.93,-261.34 580.33,-259.45"/>
<polygon fill="black" stroke="black" points="580.11,-262.94 590.05,-259.27 579.99,-255.94 580.11,-262.94"/>
<text text-anchor="middle" x="342.5" y="-268.2" font-family="Times New Roman,serif" font-size="30.00"> &#160;&#160;546 &#160;&#160;0% &#160;&#160;3.31e&#45;05 mol/s &#160;&#160;&#160;1.26E&#45;02</text>
</g>
<!-- R233 -->
<g id="node4" class="node">
<title>R233</title>
<g id="a_node4"><a xlink:href="233.svg" xlink:title="R233">
<polygon fill="azure" stroke="none" points="685,-197.7 591,-197.7 591,-150.7 685,-150.7 685,-197.7"/>
<text text-anchor="middle" x="638" y="-165.7" font-family="Times New Roman,serif" font-size="35.00">R233</text>
</a>
</g>
</g>
<!-- R323&#45;&gt;R233 -->
<g id="edge3" class="edge">
<title>R323&#45;&gt;R233</title>
<path fill="none" stroke="black" stroke-width="5" d="M93.89,-179.58C96.97,-179.82 100.03,-180.03 103,-180.2 308.72,-191.38 365.79,-191.74 570.19,-180.72"/>
<polygon fill="black" stroke="black" stroke-width="5" points="565.62,-189.4 585.11,-179.58 564.67,-171.93 565.62,-189.4"/>
<text text-anchor="middle" x="342.5" y="-197.2" font-family="Times New Roman,serif" font-size="30.00"> &#160;&#160;707 &#160;&#160;97% &#160;&#160;0.479 mol/s &#160;&#160;&#160;1.36E&#45;03</text>
</g>
<!-- R323&#45;&gt;R233 -->
<g id="edge6" class="edge">
<title>R323&#45;&gt;R233</title>
<path fill="none" stroke="black" d="M83.56,-150.74C89.81,-147.63 96.43,-144.92 103,-143.2 154.48,-129.69 530.52,-129.69 582,-143.2 585.18,-144.03 588.38,-145.1 591.54,-146.33"/>
<polygon fill="black" stroke="black" points="589.88,-149.87 600.44,-150.74 592.73,-143.47 589.88,-149.87"/>
<text text-anchor="middle" x="342.5" y="-152.2" font-family="Times New Roman,serif" font-size="30.00"> &#160;&#160;992 &#160;&#160;0% &#160;&#160;0.000653 mol/s &#160;&#160;&#160;9.99E&#45;01</text>
</g>
<!-- R27 -->
<g id="node5" class="node">
<title>R27</title>
<g id="a_node5"><a xlink:href="27.svg" xlink:title="R27">
<polygon fill="azure" stroke="none" points="676,-113.7 600,-113.7 600,-66.7 676,-66.7 676,-113.7"/>
<text text-anchor="middle" x="638" y="-81.7" font-family="Times New Roman,serif" font-size="35.00">R27</text>
</a>
</g>
</g>
<!-- R323&#45;&gt;R27 -->
<g id="edge4" class="edge">
<title>R323&#45;&gt;R27</title>
<path fill="none" stroke="black" d="M57.08,-150.8C65.76,-132.01 80.83,-106.9 103,-95.2 186.4,-51.14 474.57,-73.96 589.32,-85.18"/>
<polygon fill="black" stroke="black" points="588.89,-88.75 599.19,-86.26 589.58,-81.78 588.89,-88.75"/>
<text text-anchor="middle" x="342.5" y="-104.2" font-family="Times New Roman,serif" font-size="30.00"> &#160;&#160;899 &#160;&#160;2% &#160;&#160;0.0114 mol/s &#160;&#160;&#160;3.74E&#45;05</text>
</g>
<!-- R16 -->
<g id="node6" class="node">
<title>R16</title>
<g id="a_node6"><a xlink:href="16.svg" xlink:title="R16">
<polygon fill="azure" stroke="none" points="676,-48.7 600,-48.7 600,-1.7 676,-1.7 676,-48.7"/>
<text text-anchor="middle" x="638" y="-16.7" font-family="Times New Roman,serif" font-size="35.00">R16</text>
</a>
</g>
</g>
<!-- R323&#45;&gt;R16 -->
<g id="edge5" class="edge">
<title>R323&#45;&gt;R16</title>
<path fill="none" stroke="black" d="M49.39,-150.71C52.73,-117.86 64.14,-59.2 103,-32.2 180.73,21.81 474.12,-5.87 589.75,-19.3"/>
<polygon fill="black" stroke="black" points="589.03,-22.85 599.37,-20.55 589.85,-15.9 589.03,-22.85"/>
<text text-anchor="middle" x="342.5" y="-41.2" font-family="Times New Roman,serif" font-size="30.00"> &#160;&#160;899 &#160;&#160;2% &#160;&#160;0.0114 mol/s &#160;&#160;&#160;3.74E&#45;05</text>
</g>
</g>
</svg>
