<?xml version="1.0" encoding="UTF-8" standalone="no"?>
<!DOCTYPE svg PUBLIC "-//W3C//DTD SVG 1.1//EN"
 "http://www.w3.org/Graphics/SVG/1.1/DTD/svg11.dtd">
<!-- Generated by graphviz version 8.0.3 (20230416.2022)
 -->
<!-- Title: G Pages: 1 -->
<svg width="623pt" height="289pt"
 viewBox="0.00 0.00 701.00 324.90" xmlns="http://www.w3.org/2000/svg" xmlns:xlink="http://www.w3.org/1999/xlink">
<g id="graph0" class="graph" transform="scale(0.888889 0.888889) rotate(0) translate(4 320.9)">
<title>G</title>
<polygon fill="white" stroke="none" points="-4,4 -4,-320.9 697,-320.9 697,4 -4,4"/>
<text text-anchor="middle" x="346.5" y="-284.1" font-family="Arial" font-size="36.00" fill="blue">Reaction Path Analysis</text>
<!-- R329 -->
<g id="node1" class="node">
<title>R329</title>
<g id="a_node1"><a xlink:href="329.svg" xlink:title="R329">
<polygon fill="azure" stroke="none" points="94,-140.4 0,-140.4 0,-93.4 94,-93.4 94,-140.4"/>
<text text-anchor="middle" x="47" y="-108.4" font-family="Times New Roman,serif" font-size="35.00">R329</text>
</a>
</g>
</g>
<!-- R95 -->
<g id="node2" class="node">
<title>R95</title>
<g id="a_node2"><a xlink:href="95.svg" xlink:title="R95">
<polygon fill="azure" stroke="none" points="684,-233.4 608,-233.4 608,-186.4 684,-186.4 684,-233.4"/>
<text text-anchor="middle" x="646" y="-201.4" font-family="Times New Roman,serif" font-size="35.00">R95</text>
</a>
</g>
</g>
<!-- R329&#45;&gt;R95 -->
<g id="edge1" class="edge">
<title>R329&#45;&gt;R95</title>
<path fill="none" stroke="black" d="M61.66,-140.37C71.27,-154.5 85.52,-171.36 103,-179.9 269.15,-261.01 498.96,-235.42 597.28,-219.03"/>
<polygon fill="black" stroke="black" points="597.78,-222.33 607.05,-217.19 596.6,-215.43 597.78,-222.33"/>
<text text-anchor="middle" x="346.5" y="-244.9" font-family="Times New Roman,serif" font-size="30.00"> &#160;&#160;553 &#160;&#160;9% &#160;&#160;1.39 mol/s &#160;&#160;&#160;3.07E&#45;07</text>
</g>
<!-- R1 -->
<g id="node3" class="node">
<title>R1</title>
<g id="a_node3"><a xlink:href="1.svg" xlink:title="R1">
<polygon fill="azure" stroke="none" points="675,-168.4 617,-168.4 617,-121.4 675,-121.4 675,-168.4"/>
<text text-anchor="middle" x="646" y="-136.4" font-family="Times New Roman,serif" font-size="35.00">R1</text>
</a>
</g>
</g>
<!-- R329&#45;&gt;R1 -->
<g id="edge2" class="edge">
<title>R329&#45;&gt;R1</title>
<path fill="none" stroke="black" d="M93.89,-122.14C96.97,-122.42 100.03,-122.67 103,-122.9 291.26,-136.97 517.03,-142.49 606.12,-144.23"/>
<polygon fill="black" stroke="black" points="605.97,-147.74 616.04,-144.43 606.1,-140.74 605.97,-147.74"/>
<text text-anchor="middle" x="346.5" y="-151.9" font-family="Times New Roman,serif" font-size="30.00"> &#160;&#160;553 &#160;&#160;9% &#160;&#160;1.39 mol/s &#160;&#160;&#160;3.07E&#45;07</text>
</g>
<!-- R227 -->
<g id="node4" class="node">
<title>R227</title>
<g id="a_node4"><a xlink:href="227.svg" xlink:title="R227">
<polygon fill="azure" stroke="none" points="693,-80.4 599,-80.4 599,-33.4 693,-33.4 693,-80.4"/>
<text text-anchor="middle" x="646" y="-48.4" font-family="Times New Roman,serif" font-size="35.00">R227</text>
</a>
</g>
</g>
<!-- R329&#45;&gt;R227 -->
<g id="edge3" class="edge">
<title>R329&#45;&gt;R227</title>
<path fill="none" stroke="black" stroke-width="5" d="M83.92,-93.51C90.08,-90.43 96.57,-87.72 103,-85.9 201.5,-57.98 452.76,-76.43 578.62,-67.56"/>
<polygon fill="black" stroke="black" stroke-width="5" points="574.01,-76.22 593.15,-65.73 572.46,-58.79 574.01,-76.22"/>
<text text-anchor="middle" x="346.5" y="-94.9" font-family="Times New Roman,serif" font-size="30.00"> &#160;&#160;960 &#160;&#160;90% &#160;&#160;13.0 mol/s &#160;&#160;&#160;5.03E&#45;05</text>
</g>
<!-- R329&#45;&gt;R227 -->
<g id="edge4" class="edge">
<title>R329&#45;&gt;R227</title>
<path fill="none" stroke="black" d="M55.44,-93.6C63.5,-72.71 78.58,-43.35 103,-29.9 197.79,22.32 484.58,-5.42 590,-29.9 590.49,-30.01 590.99,-30.13 591.48,-30.25"/>
<polygon fill="black" stroke="black" points="590.25,-33.85 600.84,-33.49 592.34,-27.17 590.25,-33.85"/>
<text text-anchor="middle" x="346.5" y="-38.9" font-family="Times New Roman,serif" font-size="30.00"> &#160;&#160;996 &#160;&#160;0% &#160;&#160;0.000654 mol/s &#160;&#160;&#160;1.00E+00</text>
</g>
</g>
</svg>
