<?xml version="1.0" encoding="UTF-8" standalone="no"?>
<!DOCTYPE svg PUBLIC "-//W3C//DTD SVG 1.1//EN"
 "http://www.w3.org/Graphics/SVG/1.1/DTD/svg11.dtd">
<!-- Generated by graphviz version 8.0.3 (20230416.2022)
 -->
<!-- Title: G Pages: 1 -->
<svg width="640pt" height="124pt"
 viewBox="0.00 0.00 720.00 140.00" xmlns="http://www.w3.org/2000/svg" xmlns:xlink="http://www.w3.org/1999/xlink">
<g id="graph0" class="graph" transform="scale(0.487062 0.487062) rotate(0) translate(4 251.5)">
<title>G</title>
<polygon fill="white" stroke="none" points="-4,4 -4,-251.5 1310,-251.5 1310,4 -4,4"/>
<text text-anchor="middle" x="653" y="-214.7" font-family="Arial" font-size="36.00" fill="blue">Reaction Path Analysis</text>
<!-- R333 -->
<g id="node1" class="node">
<title>R333</title>
<g id="a_node1"><a xlink:href="333.svg" xlink:title="R333">
<polygon fill="azure" stroke="none" points="700,-112 606,-112 606,-65 700,-65 700,-112"/>
<text text-anchor="middle" x="653" y="-80" font-family="Times New Roman,serif" font-size="35.00">R333</text>
</a>
</g>
</g>
<!-- R110 -->
<g id="node2" class="node">
<title>R110</title>
<g id="a_node2"><a xlink:href="110.svg" xlink:title="R110">
<polygon fill="azure" stroke="none" points="1306,-177 1212,-177 1212,-130 1306,-130 1306,-177"/>
<text text-anchor="middle" x="1259" y="-145" font-family="Times New Roman,serif" font-size="35.00">R110</text>
</a>
</g>
</g>
<!-- R333&#45;&gt;R110 -->
<g id="edge1" class="edge">
<title>R333&#45;&gt;R110</title>
<path fill="none" stroke="black" stroke-width="5" d="M684.4,-111.83C693.05,-117.29 702.76,-122.41 712.5,-125.5 878.3,-178.18 1086.6,-169.73 1191.35,-160.72"/>
<polygon fill="black" stroke="black" stroke-width="5" points="1186.96,-169.36 1206.07,-158.81 1185.36,-151.93 1186.96,-169.36"/>
<text text-anchor="middle" x="956" y="-175.5" font-family="Times New Roman,serif" font-size="30.00"> &#160;&#160;560 &#160;&#160;98% &#160;&#160;2.99e&#45;05 mol/s &#160;&#160;&#160;1.39E&#45;02</text>
</g>
<!-- R1 -->
<g id="node3" class="node">
<title>R1</title>
<g id="a_node3"><a xlink:href="1.svg" xlink:title="R1">
<polygon fill="azure" stroke="none" points="1288,-112 1230,-112 1230,-65 1288,-65 1288,-112"/>
<text text-anchor="middle" x="1259" y="-80" font-family="Times New Roman,serif" font-size="35.00">R1</text>
</a>
</g>
</g>
<!-- R333&#45;&gt;R1 -->
<g id="edge2" class="edge">
<title>R333&#45;&gt;R1</title>
<path fill="none" stroke="black" stroke-width="5" d="M699.89,-88.5C811.27,-88.5 1095.11,-88.5 1209.31,-88.5"/>
<polygon fill="black" stroke="black" stroke-width="5" points="1204.09,-97.25 1224.09,-88.5 1204.09,-79.75 1204.09,-97.25"/>
<text text-anchor="middle" x="956" y="-97.5" font-family="Times New Roman,serif" font-size="30.00"> &#160;&#160;560 &#160;&#160;98% &#160;&#160;2.99e&#45;05 mol/s &#160;&#160;&#160;1.39E&#45;02</text>
</g>
<!-- R365 -->
<g id="node5" class="node">
<title>R365</title>
<g id="a_node5"><a xlink:href="365.svg" xlink:title="R365">
<polygon fill="azure" stroke="none" points="1306,-47 1212,-47 1212,0 1306,0 1306,-47"/>
<text text-anchor="middle" x="1259" y="-15" font-family="Times New Roman,serif" font-size="35.00">R365</text>
</a>
</g>
</g>
<!-- R333&#45;&gt;R365 -->
<g id="edge4" class="edge">
<title>R333&#45;&gt;R365</title>
<path fill="none" stroke="black" d="M684.4,-65.17C693.05,-59.71 702.76,-54.59 712.5,-51.5 883.68,2.88 1100.15,-7.88 1201.21,-17.16"/>
<polygon fill="black" stroke="black" points="1200.79,-20.73 1211.07,-18.19 1201.45,-13.76 1200.79,-20.73"/>
<text text-anchor="middle" x="956" y="-60.5" font-family="Times New Roman,serif" font-size="30.00"> &#160;&#160;841 &#160;&#160;1% &#160;&#160;3.54e&#45;07 mol/s &#160;&#160;&#160;8.54E&#45;01</text>
</g>
<!-- R256 -->
<g id="node4" class="node">
<title>R256</title>
<g id="a_node4"><a xlink:href="256.svg" xlink:title="R256">
<polygon fill="azure" stroke="none" points="94,-112 0,-112 0,-65 94,-65 94,-112"/>
<text text-anchor="middle" x="47" y="-80" font-family="Times New Roman,serif" font-size="35.00">R256</text>
</a>
</g>
</g>
<!-- R256&#45;&gt;R333 -->
<g id="edge3" class="edge">
<title>R256&#45;&gt;R333</title>
<path fill="none" stroke="black" d="M93.89,-93.88C96.97,-94.13 100.03,-94.34 103,-94.5 318.7,-106.23 375.94,-106.42 595.21,-94.48"/>
<polygon fill="black" stroke="black" points="595.32,-97.92 605.11,-93.88 594.94,-90.93 595.32,-97.92"/>
<text text-anchor="middle" x="350" y="-111.5" font-family="Times New Roman,serif" font-size="30.00"> &#160;&#160;732 &#160;&#160;6% &#160;&#160;0.000605 mol/s &#160;&#160;&#160;9.30E&#45;01</text>
</g>
<!-- R256&#45;&gt;R333 -->
<g id="edge5" class="edge">
<title>R256&#45;&gt;R333</title>
<path fill="none" stroke="black" stroke-width="5" d="M83.56,-65.05C89.81,-61.93 96.43,-59.22 103,-57.5 309.14,-3.41 380.45,-1.82 596.48,-59.65"/>
<polygon fill="black" stroke="black" stroke-width="5" points="588.85,-67.27 610.44,-64.05 593.42,-50.38 588.85,-67.27"/>
<text text-anchor="middle" x="350" y="-66.5" font-family="Times New Roman,serif" font-size="30.00"> &#160;&#160;1000 &#160;&#160;93% &#160;&#160;0.00806 mol/s &#160;&#160;&#160;6.98E&#45;02</text>
</g>
</g>
</svg>
