<?xml version="1.0" encoding="UTF-8" standalone="no"?>
<!DOCTYPE svg PUBLIC "-//W3C//DTD SVG 1.1//EN"
 "http://www.w3.org/Graphics/SVG/1.1/DTD/svg11.dtd">
<!-- Generated by graphviz version 8.0.3 (20230416.2022)
 -->
<!-- Title: G Pages: 1 -->
<svg width="629pt" height="475pt"
 viewBox="0.00 0.00 708.00 533.83" xmlns="http://www.w3.org/2000/svg" xmlns:xlink="http://www.w3.org/1999/xlink">
<g id="graph0" class="graph" transform="scale(0.888889 0.888889) rotate(0) translate(4 529.83)">
<title>G</title>
<polygon fill="white" stroke="none" points="-4,4 -4,-529.83 704,-529.83 704,4 -4,4"/>
<text text-anchor="middle" x="350" y="-493.03" font-family="Arial" font-size="36.00" fill="blue">Reaction Path Analysis</text>
<!-- R349 -->
<g id="node1" class="node">
<title>R349</title>
<g id="a_node1"><a xlink:href="349.svg" xlink:title="R349">
<polygon fill="azure" stroke="none" points="94,-257.33 0,-257.33 0,-210.33 94,-210.33 94,-257.33"/>
<text text-anchor="middle" x="47" y="-225.33" font-family="Times New Roman,serif" font-size="35.00">R349</text>
</a>
</g>
</g>
<!-- R1 -->
<g id="node2" class="node">
<title>R1</title>
<g id="a_node2"><a xlink:href="1.svg" xlink:title="R1">
<polygon fill="azure" stroke="none" points="682,-439.33 624,-439.33 624,-392.33 682,-392.33 682,-439.33"/>
<text text-anchor="middle" x="653" y="-407.33" font-family="Times New Roman,serif" font-size="35.00">R1</text>
</a>
</g>
</g>
<!-- R349&#45;&gt;R1 -->
<g id="edge1" class="edge">
<title>R349&#45;&gt;R1</title>
<path fill="none" stroke="black" d="M47.25,-257.16C47.41,-296.57 54.2,-375.56 103,-411.83 183.43,-471.62 502.14,-435.89 613.42,-421.22"/>
<polygon fill="black" stroke="black" points="613.68,-424.58 623.13,-419.79 612.75,-417.64 613.68,-424.58"/>
<text text-anchor="middle" x="350" y="-453.83" font-family="Times New Roman,serif" font-size="30.00"> &#160;&#160;587 &#160;&#160;0% &#160;&#160;92.2 mol/s &#160;&#160;&#160;4.64E&#45;09</text>
</g>
<!-- R349&#45;&gt;R1 -->
<g id="edge5" class="edge">
<title>R349&#45;&gt;R1</title>
<path fill="none" stroke="black" d="M51.08,-256.91C56.27,-285.56 69.67,-333.38 103,-355.83 148.56,-386.53 545.21,-356.54 597,-374.83 604.49,-377.48 611.81,-381.53 618.54,-386.07"/>
<polygon fill="black" stroke="black" points="616.17,-389.41 626.31,-392.49 620.3,-383.76 616.17,-389.41"/>
<text text-anchor="middle" x="350" y="-383.83" font-family="Times New Roman,serif" font-size="30.00"> &#160;&#160;866 &#160;&#160;0% &#160;&#160;0.207 mol/s &#160;&#160;&#160;2.06E&#45;06</text>
</g>
<!-- R163 -->
<g id="node3" class="node">
<title>R163</title>
<g id="a_node3"><a xlink:href="163.svg" xlink:title="R163">
<polygon fill="azure" stroke="none" points="700,-356.33 606,-356.33 606,-309.33 700,-309.33 700,-356.33"/>
<text text-anchor="middle" x="653" y="-324.33" font-family="Times New Roman,serif" font-size="35.00">R163</text>
</a>
</g>
</g>
<!-- R349&#45;&gt;R163 -->
<g id="edge2" class="edge">
<title>R349&#45;&gt;R163</title>
<path fill="none" stroke="black" d="M60.54,-257.14C70.03,-272.21 84.57,-290.67 103,-299.83 149.95,-323.17 507.3,-317.26 595.38,-323.1"/>
<polygon fill="black" stroke="black" points="594.89,-326.66 605.15,-324.03 595.49,-319.68 594.89,-326.66"/>
<text text-anchor="middle" x="350" y="-331.83" font-family="Times New Roman,serif" font-size="30.00"> &#160;&#160;587 &#160;&#160;0% &#160;&#160;92.2 mol/s &#160;&#160;&#160;4.64E&#45;09</text>
</g>
<!-- R13 -->
<g id="node4" class="node">
<title>R13</title>
<g id="a_node4"><a xlink:href="13.svg" xlink:title="R13">
<polygon fill="azure" stroke="none" points="691,-291.33 615,-291.33 615,-244.33 691,-244.33 691,-291.33"/>
<text text-anchor="middle" x="653" y="-259.33" font-family="Times New Roman,serif" font-size="35.00">R13</text>
</a>
</g>
</g>
<!-- R349&#45;&gt;R13 -->
<g id="edge3" class="edge">
<title>R349&#45;&gt;R13</title>
<path fill="none" stroke="black" stroke-width="5" d="M93.85,-242.65C96.94,-243.1 100.01,-243.5 103,-243.83 196.83,-254.37 473.75,-262.96 594.55,-266.32"/>
<polygon fill="black" stroke="black" stroke-width="5" points="588.98,-275.08 609.22,-266.88 589.46,-257.59 588.98,-275.08"/>
<text text-anchor="middle" x="350" y="-274.83" font-family="Times New Roman,serif" font-size="30.00"> &#160;&#160;631 &#160;&#160;99% &#160;&#160;13200.0 mol/s &#160;&#160;&#160;3.25E&#45;11</text>
</g>
<!-- R117 -->
<g id="node5" class="node">
<title>R117</title>
<g id="a_node5"><a xlink:href="117.svg" xlink:title="R117">
<polygon fill="azure" stroke="none" points="700,-226.33 606,-226.33 606,-179.33 700,-179.33 700,-226.33"/>
<text text-anchor="middle" x="653" y="-194.33" font-family="Times New Roman,serif" font-size="35.00">R117</text>
</a>
</g>
</g>
<!-- R349&#45;&gt;R117 -->
<g id="edge4" class="edge">
<title>R349&#45;&gt;R117</title>
<path fill="none" stroke="black" stroke-width="5" d="M93.8,-213.19C96.88,-212.27 99.96,-211.47 103,-210.83 273.98,-175.23 481.43,-186.49 585.57,-195.77"/>
<polygon fill="black" stroke="black" stroke-width="5" points="579.44,-204.55 600.17,-197.71 581.07,-187.13 579.44,-204.55"/>
<text text-anchor="middle" x="350" y="-219.83" font-family="Times New Roman,serif" font-size="30.00"> &#160;&#160;631 &#160;&#160;99% &#160;&#160;13200.0 mol/s &#160;&#160;&#160;3.25E&#45;11</text>
</g>
<!-- R164 -->
<g id="node6" class="node">
<title>R164</title>
<g id="a_node6"><a xlink:href="164.svg" xlink:title="R164">
<polygon fill="azure" stroke="none" points="700,-161.33 606,-161.33 606,-114.33 700,-114.33 700,-161.33"/>
<text text-anchor="middle" x="653" y="-129.33" font-family="Times New Roman,serif" font-size="35.00">R164</text>
</a>
</g>
</g>
<!-- R349&#45;&gt;R164 -->
<g id="edge6" class="edge">
<title>R349&#45;&gt;R164</title>
<path fill="none" stroke="black" d="M55.97,-210.38C64.25,-190.09 79.35,-162.01 103,-148.83 145.17,-125.34 464.31,-132.14 595.72,-136"/>
<polygon fill="black" stroke="black" points="595.25,-139.52 605.35,-136.32 595.46,-132.52 595.25,-139.52"/>
<text text-anchor="middle" x="350" y="-157.83" font-family="Times New Roman,serif" font-size="30.00"> &#160;&#160;866 &#160;&#160;0% &#160;&#160;0.207 mol/s &#160;&#160;&#160;2.06E&#45;06</text>
</g>
<!-- R377 -->
<g id="node7" class="node">
<title>R377</title>
<g id="a_node7"><a xlink:href="377.svg" xlink:title="R377">
<polygon fill="azure" stroke="none" points="700,-80.33 606,-80.33 606,-33.33 700,-33.33 700,-80.33"/>
<text text-anchor="middle" x="653" y="-48.33" font-family="Times New Roman,serif" font-size="35.00">R377</text>
</a>
</g>
</g>
<!-- R349&#45;&gt;R377 -->
<g id="edge7" class="edge">
<title>R349&#45;&gt;R377</title>
<path fill="none" stroke="black" d="M49.74,-210.46C53.5,-178.4 65.41,-121.69 103,-94.83 145.66,-64.36 507.2,-78.89 595.47,-71.37"/>
<polygon fill="black" stroke="black" points="595.72,-74.75 605.25,-70.12 594.91,-67.79 595.72,-74.75"/>
<text text-anchor="middle" x="350" y="-103.83" font-family="Times New Roman,serif" font-size="30.00"> &#160;&#160;1016 &#160;&#160;0% &#160;&#160;0.000627 mol/s &#160;&#160;&#160;9.60E&#45;01</text>
</g>
<!-- R349&#45;&gt;R377 -->
<g id="edge8" class="edge">
<title>R349&#45;&gt;R377</title>
<path fill="none" stroke="black" d="M50.94,-210.4C57.48,-162.53 74.91,-56.22 103,-34.83 187.8,29.7 471.87,-11.49 595.43,-34.96"/>
<polygon fill="black" stroke="black" points="594.69,-38.58 605.17,-37.03 596.02,-31.7 594.69,-38.58"/>
<text text-anchor="middle" x="350" y="-43.83" font-family="Times New Roman,serif" font-size="30.00"> &#160;&#160;1044 &#160;&#160;0% &#160;&#160;0.0151 mol/s &#160;&#160;&#160;3.99E&#45;02</text>
</g>
</g>
</svg>
