<?xml version="1.0" encoding="UTF-8" standalone="no"?>
<!DOCTYPE svg PUBLIC "-//W3C//DTD SVG 1.1//EN"
 "http://www.w3.org/Graphics/SVG/1.1/DTD/svg11.dtd">
<!-- Generated by graphviz version 8.0.3 (20230416.2022)
 -->
<!-- Title: G Pages: 1 -->
<svg width="640pt" height="283pt"
 viewBox="0.00 0.00 720.00 318.49" xmlns="http://www.w3.org/2000/svg" xmlns:xlink="http://www.w3.org/1999/xlink">
<g id="graph0" class="graph" transform="scale(0.849934 0.849934) rotate(0) translate(4 329.09)">
<title>G</title>
<polygon fill="white" stroke="none" points="-4,4 -4,-329.09 749,-329.09 749,4 -4,4"/>
<text text-anchor="middle" x="372.5" y="-292.29" font-family="Arial" font-size="36.00" fill="blue">Reaction Path Analysis</text>
<!-- R351 -->
<g id="node1" class="node">
<title>R351</title>
<g id="a_node1"><a xlink:href="351.svg" xlink:title="R351">
<polygon fill="azure" stroke="none" points="94,-143.59 0,-143.59 0,-96.59 94,-96.59 94,-143.59"/>
<text text-anchor="middle" x="47" y="-111.59" font-family="Times New Roman,serif" font-size="35.00">R351</text>
</a>
</g>
</g>
<!-- R164 -->
<g id="node2" class="node">
<title>R164</title>
<g id="a_node2"><a xlink:href="164.svg" xlink:title="R164">
<polygon fill="azure" stroke="none" points="745,-236.59 651,-236.59 651,-189.59 745,-189.59 745,-236.59"/>
<text text-anchor="middle" x="698" y="-204.59" font-family="Times New Roman,serif" font-size="35.00">R164</text>
</a>
</g>
</g>
<!-- R351&#45;&gt;R164 -->
<g id="edge1" class="edge">
<title>R351&#45;&gt;R164</title>
<path fill="none" stroke="black" stroke-width="5" d="M61.13,-143.32C70.7,-157.82 85.1,-175.34 103,-184.09 277.49,-269.42 516.3,-245 630.67,-226.05"/>
<polygon fill="black" stroke="black" stroke-width="5" points="626.98,-235.53 645.18,-223.48 623.98,-218.29 626.98,-235.53"/>
<text text-anchor="middle" x="372.5" y="-253.09" font-family="Times New Roman,serif" font-size="30.00"> &#160;&#160;589 &#160;&#160;99% &#160;&#160;110000000.0 mol/s &#160;&#160;&#160;3.90E&#45;15</text>
</g>
<!-- R1 -->
<g id="node3" class="node">
<title>R1</title>
<g id="a_node3"><a xlink:href="1.svg" xlink:title="R1">
<polygon fill="azure" stroke="none" points="727,-171.59 669,-171.59 669,-124.59 727,-124.59 727,-171.59"/>
<text text-anchor="middle" x="698" y="-139.59" font-family="Times New Roman,serif" font-size="35.00">R1</text>
</a>
</g>
</g>
<!-- R351&#45;&gt;R1 -->
<g id="edge2" class="edge">
<title>R351&#45;&gt;R1</title>
<path fill="none" stroke="black" stroke-width="5" d="M93.89,-125.34C96.97,-125.62 100.03,-125.87 103,-126.09 305.16,-140.84 546.79,-145.91 648.31,-147.47"/>
<polygon fill="black" stroke="black" stroke-width="5" points="643,-156.23 663.13,-147.77 643.26,-138.73 643,-156.23"/>
<text text-anchor="middle" x="372.5" y="-156.09" font-family="Times New Roman,serif" font-size="30.00"> &#160;&#160;589 &#160;&#160;99% &#160;&#160;110000000.0 mol/s &#160;&#160;&#160;3.90E&#45;15</text>
</g>
<!-- R378 -->
<g id="node4" class="node">
<title>R378</title>
<g id="a_node4"><a xlink:href="378.svg" xlink:title="R378">
<polygon fill="azure" stroke="none" points="745,-83.59 651,-83.59 651,-36.59 745,-36.59 745,-83.59"/>
<text text-anchor="middle" x="698" y="-51.59" font-family="Times New Roman,serif" font-size="35.00">R378</text>
</a>
</g>
</g>
<!-- R351&#45;&gt;R378 -->
<g id="edge3" class="edge">
<title>R351&#45;&gt;R378</title>
<path fill="none" stroke="black" d="M83.92,-96.68C90.07,-93.61 96.56,-90.9 103,-89.09 215.22,-57.52 506.33,-81.56 640.24,-70"/>
<polygon fill="black" stroke="black" points="640.54,-73.39 650.16,-68.94 639.86,-66.42 640.54,-73.39"/>
<text text-anchor="middle" x="372.5" y="-98.09" font-family="Times New Roman,serif" font-size="30.00"> &#160;&#160;1018 &#160;&#160;0% &#160;&#160;0.000647 mol/s &#160;&#160;&#160;9.89E&#45;01</text>
</g>
<!-- R351&#45;&gt;R378 -->
<g id="edge4" class="edge">
<title>R351&#45;&gt;R378</title>
<path fill="none" stroke="black" d="M55.44,-96.79C63.5,-75.9 78.58,-46.54 103,-33.09 207.91,24.71 525.33,-6 642,-33.09 642.49,-33.2 642.99,-33.32 643.48,-33.45"/>
<polygon fill="black" stroke="black" points="642.25,-37.04 652.84,-36.69 644.34,-30.36 642.25,-37.04"/>
<text text-anchor="middle" x="372.5" y="-42.09" font-family="Times New Roman,serif" font-size="30.00"> &#160;&#160;1045 &#160;&#160;0% &#160;&#160;0.0603 mol/s &#160;&#160;&#160;1.06E&#45;02</text>
</g>
</g>
</svg>
