<?xml version="1.0" encoding="UTF-8" standalone="no"?>
<!DOCTYPE svg PUBLIC "-//W3C//DTD SVG 1.1//EN"
 "http://www.w3.org/Graphics/SVG/1.1/DTD/svg11.dtd">
<!-- Generated by graphviz version 8.0.3 (20230416.2022)
 -->
<!-- Title: G Pages: 1 -->
<svg width="629pt" height="290pt"
 viewBox="0.00 0.00 708.00 326.33" xmlns="http://www.w3.org/2000/svg" xmlns:xlink="http://www.w3.org/1999/xlink">
<g id="graph0" class="graph" transform="scale(0.888889 0.888889) rotate(0) translate(4 322.33)">
<title>G</title>
<polygon fill="white" stroke="none" points="-4,4 -4,-322.33 704,-322.33 704,4 -4,4"/>
<text text-anchor="middle" x="350" y="-285.53" font-family="Arial" font-size="36.00" fill="blue">Reaction Path Analysis</text>
<!-- R359 -->
<g id="node1" class="node">
<title>R359</title>
<g id="a_node1"><a xlink:href="359.svg" xlink:title="R359">
<polygon fill="azure" stroke="none" points="94,-140.83 0,-140.83 0,-93.83 94,-93.83 94,-140.83"/>
<text text-anchor="middle" x="47" y="-108.83" font-family="Times New Roman,serif" font-size="35.00">R359</text>
</a>
</g>
</g>
<!-- R246 -->
<g id="node2" class="node">
<title>R246</title>
<g id="a_node2"><a xlink:href="246.svg" xlink:title="R246">
<polygon fill="azure" stroke="none" points="700,-233.83 606,-233.83 606,-186.83 700,-186.83 700,-233.83"/>
<text text-anchor="middle" x="653" y="-201.83" font-family="Times New Roman,serif" font-size="35.00">R246</text>
</a>
</g>
</g>
<!-- R359&#45;&gt;R246 -->
<g id="edge1" class="edge">
<title>R359&#45;&gt;R246</title>
<path fill="none" stroke="black" stroke-width="5" d="M61.14,-140.54C70.71,-155.02 85.12,-172.54 103,-181.33 261.67,-259.31 478.16,-239.62 585.72,-222.78"/>
<polygon fill="black" stroke="black" stroke-width="5" points="582.04,-232.27 600.35,-220.37 579.19,-215 582.04,-232.27"/>
<text text-anchor="middle" x="350" y="-246.33" font-family="Times New Roman,serif" font-size="30.00"> &#160;&#160;604 &#160;&#160;93% &#160;&#160;5.83 mol/s &#160;&#160;&#160;7.33E&#45;08</text>
</g>
<!-- R1 -->
<g id="node3" class="node">
<title>R1</title>
<g id="a_node3"><a xlink:href="1.svg" xlink:title="R1">
<polygon fill="azure" stroke="none" points="682,-168.83 624,-168.83 624,-121.83 682,-121.83 682,-168.83"/>
<text text-anchor="middle" x="653" y="-136.83" font-family="Times New Roman,serif" font-size="35.00">R1</text>
</a>
</g>
</g>
<!-- R359&#45;&gt;R1 -->
<g id="edge2" class="edge">
<title>R359&#45;&gt;R1</title>
<path fill="none" stroke="black" stroke-width="5" d="M93.89,-122.57C96.97,-122.85 100.03,-123.11 103,-123.33 287.52,-137.07 507.62,-142.62 603.43,-144.5"/>
<polygon fill="black" stroke="black" stroke-width="5" points="598.09,-153.26 618.25,-144.89 598.42,-135.77 598.09,-153.26"/>
<text text-anchor="middle" x="350" y="-153.33" font-family="Times New Roman,serif" font-size="30.00"> &#160;&#160;604 &#160;&#160;93% &#160;&#160;5.83 mol/s &#160;&#160;&#160;7.33E&#45;08</text>
</g>
<!-- R83 -->
<g id="node4" class="node">
<title>R83</title>
<g id="a_node4"><a xlink:href="83.svg" xlink:title="R83">
<polygon fill="azure" stroke="none" points="691,-80.83 615,-80.83 615,-33.83 691,-33.83 691,-80.83"/>
<text text-anchor="middle" x="653" y="-48.83" font-family="Times New Roman,serif" font-size="35.00">R83</text>
</a>
</g>
</g>
<!-- R359&#45;&gt;R83 -->
<g id="edge3" class="edge">
<title>R359&#45;&gt;R83</title>
<path fill="none" stroke="black" d="M83.92,-93.94C90.08,-90.86 96.57,-88.15 103,-86.33 208.71,-56.4 487.79,-79.29 597,-67.33 599.39,-67.06 601.83,-66.76 604.3,-66.42"/>
<polygon fill="black" stroke="black" points="604.77,-69.74 614.12,-64.77 603.71,-62.82 604.77,-69.74"/>
<text text-anchor="middle" x="350" y="-95.33" font-family="Times New Roman,serif" font-size="30.00"> &#160;&#160;909 &#160;&#160;6% &#160;&#160;0.427 mol/s &#160;&#160;&#160;1.53E&#45;03</text>
</g>
<!-- R359&#45;&gt;R83 -->
<g id="edge4" class="edge">
<title>R359&#45;&gt;R83</title>
<path fill="none" stroke="black" d="M55.44,-94.03C63.5,-73.14 78.58,-43.78 103,-30.33 199.15,22.64 490.07,-5.49 597,-30.33 599.67,-30.95 602.37,-31.72 605.05,-32.6"/>
<polygon fill="black" stroke="black" points="603.69,-36.21 614.28,-36.49 606.18,-29.66 603.69,-36.21"/>
<text text-anchor="middle" x="350" y="-39.33" font-family="Times New Roman,serif" font-size="30.00"> &#160;&#160;1026 &#160;&#160;0% &#160;&#160;0.000653 mol/s &#160;&#160;&#160;9.98E&#45;01</text>
</g>
</g>
</svg>
