<?xml version="1.0" encoding="UTF-8" standalone="no"?>
<!DOCTYPE svg PUBLIC "-//W3C//DTD SVG 1.1//EN"
 "http://www.w3.org/Graphics/SVG/1.1/DTD/svg11.dtd">
<!-- Generated by graphviz version 8.0.3 (20230416.2022)
 -->
<!-- Title: G Pages: 1 -->
<svg width="640pt" height="170pt"
 viewBox="0.00 0.00 720.00 191.10" xmlns="http://www.w3.org/2000/svg" xmlns:xlink="http://www.w3.org/1999/xlink">
<g id="graph0" class="graph" transform="scale(0.487062 0.487062) rotate(0) translate(4 344.75)">
<title>G</title>
<polygon fill="white" stroke="none" points="-4,4 -4,-344.75 1310,-344.75 1310,4 -4,4"/>
<text text-anchor="middle" x="653" y="-307.95" font-family="Arial" font-size="36.00" fill="blue">Reaction Path Analysis</text>
<!-- R373 -->
<g id="node1" class="node">
<title>R373</title>
<g id="a_node1"><a xlink:href="373.svg" xlink:title="R373">
<polygon fill="azure" stroke="none" points="700,-173.25 606,-173.25 606,-126.25 700,-126.25 700,-173.25"/>
<text text-anchor="middle" x="653" y="-141.25" font-family="Times New Roman,serif" font-size="35.00">R373</text>
</a>
</g>
</g>
<!-- R110 -->
<g id="node2" class="node">
<title>R110</title>
<g id="a_node2"><a xlink:href="110.svg" xlink:title="R110">
<polygon fill="azure" stroke="none" points="1306,-206.25 1212,-206.25 1212,-159.25 1306,-159.25 1306,-206.25"/>
<text text-anchor="middle" x="1259" y="-174.25" font-family="Times New Roman,serif" font-size="35.00">R110</text>
</a>
</g>
</g>
<!-- R373&#45;&gt;R110 -->
<g id="edge1" class="edge">
<title>R373&#45;&gt;R110</title>
<path fill="none" stroke="black" stroke-width="6" d="M699.83,-159.48C702.92,-159.96 706,-160.39 709,-160.75 882.14,-181.4 1087.93,-183.78 1191.47,-183.45"/>
<polygon fill="black" stroke="black" stroke-width="6" points="1186.31,-193.95 1206.26,-183.34 1186.2,-172.95 1186.31,-193.95"/>
<text text-anchor="middle" x="956" y="-191.75" font-family="Times New Roman,serif" font-size="30.00"> &#160;&#160;630 &#160;&#160;100% &#160;&#160;0.00577 mol/s &#160;&#160;&#160;7.41E&#45;05</text>
</g>
<!-- R13 -->
<g id="node3" class="node">
<title>R13</title>
<g id="a_node3"><a xlink:href="13.svg" xlink:title="R13">
<polygon fill="azure" stroke="none" points="1297,-141.25 1221,-141.25 1221,-94.25 1297,-94.25 1297,-141.25"/>
<text text-anchor="middle" x="1259" y="-109.25" font-family="Times New Roman,serif" font-size="35.00">R13</text>
</a>
</g>
</g>
<!-- R373&#45;&gt;R13 -->
<g id="edge2" class="edge">
<title>R373&#45;&gt;R13</title>
<path fill="none" stroke="black" stroke-width="6" d="M699.84,-130.02C702.91,-129.13 705.98,-128.36 709,-127.75 885.13,-92.17 1099.53,-103.56 1200.35,-112.05"/>
<polygon fill="black" stroke="black" stroke-width="6" points="1194.36,-122.59 1215.21,-113.9 1196.22,-101.67 1194.36,-122.59"/>
<text text-anchor="middle" x="956" y="-136.75" font-family="Times New Roman,serif" font-size="30.00"> &#160;&#160;630 &#160;&#160;100% &#160;&#160;0.00577 mol/s &#160;&#160;&#160;7.41E&#45;05</text>
</g>
<!-- R294 -->
<g id="node4" class="node">
<title>R294</title>
<g id="a_node4"><a xlink:href="294.svg" xlink:title="R294">
<polygon fill="azure" stroke="none" points="94,-217.25 0,-217.25 0,-170.25 94,-170.25 94,-217.25"/>
<text text-anchor="middle" x="47" y="-185.25" font-family="Times New Roman,serif" font-size="35.00">R294</text>
</a>
</g>
</g>
<!-- R294&#45;&gt;R373 -->
<g id="edge3" class="edge">
<title>R294&#45;&gt;R373</title>
<path fill="none" stroke="black" d="M93.95,-209.96C96.99,-210.67 100.02,-211.28 103,-211.75 319.82,-246.33 396.76,-301.79 597,-211.75 611.01,-205.45 622.91,-193.62 632.01,-181.97"/>
<polygon fill="black" stroke="black" points="635.35,-184.33 638.41,-174.19 629.69,-180.2 635.35,-184.33"/>
<text text-anchor="middle" x="350" y="-268.75" font-family="Times New Roman,serif" font-size="30.00"> &#160;&#160;775 &#160;&#160;10% &#160;&#160;0.000517 mol/s &#160;&#160;&#160;8.27E&#45;01</text>
</g>
<!-- R294&#45;&gt;R373 -->
<g id="edge6" class="edge">
<title>R294&#45;&gt;R373</title>
<path fill="none" stroke="black" stroke-width="3" d="M93.95,-176.78C96.99,-176 100.02,-175.31 103,-174.75 207.81,-155.08 471.38,-163.3 595.28,-155.73"/>
<polygon fill="black" stroke="black" stroke-width="3" points="592.36,-159.17 602.11,-155 591.89,-152.18 592.36,-159.17"/>
<text text-anchor="middle" x="350" y="-183.75" font-family="Times New Roman,serif" font-size="30.00"> &#160;&#160;1036 &#160;&#160;51% &#160;&#160;0.00246 mol/s &#160;&#160;&#160;1.73E&#45;01</text>
</g>
<!-- R347 -->
<g id="node5" class="node">
<title>R347</title>
<g id="a_node5"><a xlink:href="347.svg" xlink:title="R347">
<polygon fill="azure" stroke="none" points="94,-129.25 0,-129.25 0,-82.25 94,-82.25 94,-129.25"/>
<text text-anchor="middle" x="47" y="-97.25" font-family="Times New Roman,serif" font-size="35.00">R347</text>
</a>
</g>
</g>
<!-- R347&#45;&gt;R373 -->
<g id="edge4" class="edge">
<title>R347&#45;&gt;R373</title>
<path fill="none" stroke="black" d="M93.81,-104.69C207.88,-102.45 502.26,-99.2 597,-122.75 597.36,-122.84 597.72,-122.93 598.08,-123.03"/>
<polygon fill="black" stroke="black" points="596.91,-126.65 607.5,-126.37 599.04,-119.98 596.91,-126.65"/>
<text text-anchor="middle" x="350" y="-131.75" font-family="Times New Roman,serif" font-size="30.00"> &#160;&#160;1014 &#160;&#160;9% &#160;&#160;0.000442 mol/s &#160;&#160;&#160;7.55E&#45;01</text>
</g>
<!-- R347&#45;&gt;R373 -->
<g id="edge5" class="edge">
<title>R347&#45;&gt;R373</title>
<path fill="none" stroke="black" stroke-width="2" d="M73.24,-82.3C82.01,-75.62 92.33,-69.22 103,-65.75 311.79,2.14 403.85,38.65 597,-65.75 616.93,-76.52 630.79,-98 639.62,-116.54"/>
<polygon fill="black" stroke="black" stroke-width="2" points="635.76,-116.73 643.01,-124.45 642.16,-113.89 635.76,-116.73"/>
<text text-anchor="middle" x="350" y="-74.75" font-family="Times New Roman,serif" font-size="30.00"> &#160;&#160;1035 &#160;&#160;28% &#160;&#160;0.00136 mol/s &#160;&#160;&#160;2.45E&#45;01</text>
</g>
</g>
</svg>
