<?xml version="1.0" encoding="UTF-8" standalone="no"?>
<!DOCTYPE svg PUBLIC "-//W3C//DTD SVG 1.1//EN"
 "http://www.w3.org/Graphics/SVG/1.1/DTD/svg11.dtd">
<!-- Generated by graphviz version 8.0.3 (20230416.2022)
 -->
<!-- Title: G Pages: 1 -->
<svg width="640pt" height="186pt"
 viewBox="0.00 0.00 720.00 209.61" xmlns="http://www.w3.org/2000/svg" xmlns:xlink="http://www.w3.org/1999/xlink">
<g id="graph0" class="graph" transform="scale(0.487805 0.487805) rotate(0) translate(4 377.96)">
<title>G</title>
<polygon fill="white" stroke="none" points="-4,4 -4,-377.96 1308,-377.96 1308,4 -4,4"/>
<text text-anchor="middle" x="652" y="-341.16" font-family="Arial" font-size="36.00" fill="blue">Reaction Path Analysis</text>
<!-- R382 -->
<g id="node1" class="node">
<title>R382</title>
<g id="a_node1"><a xlink:href="382.svg" xlink:title="R382">
<polygon fill="azure" stroke="none" points="699,-173.46 605,-173.46 605,-126.46 699,-126.46 699,-173.46"/>
<text text-anchor="middle" x="652" y="-141.46" font-family="Times New Roman,serif" font-size="35.00">R382</text>
</a>
</g>
</g>
<!-- R0 -->
<g id="node2" class="node">
<title>R0</title>
<g id="a_node2"><a xlink:href="0.svg" xlink:title="R0">
<polygon fill="azure" stroke="none" points="1295,-262.46 1237,-262.46 1237,-215.46 1295,-215.46 1295,-262.46"/>
<text text-anchor="middle" x="1266" y="-230.46" font-family="Times New Roman,serif" font-size="35.00">R0</text>
</a>
</g>
</g>
<!-- R382&#45;&gt;R0 -->
<g id="edge3" class="edge">
<title>R382&#45;&gt;R0</title>
<path fill="none" stroke="black" d="M659.91,-173.21C667.73,-194.84 682.77,-225.81 708,-239.96 880.17,-336.52 1131.93,-278.45 1226.87,-250.96"/>
<polygon fill="black" stroke="black" points="1227.54,-254.12 1236.14,-247.93 1225.56,-247.4 1227.54,-254.12"/>
<text text-anchor="middle" x="959" y="-301.96" font-family="Times New Roman,serif" font-size="30.00"> &#160;&#160;808 &#160;&#160;2% &#160;&#160;9.79e&#45;07 mol/s &#160;&#160;&#160;2.33E&#45;01</text>
</g>
<!-- R96 -->
<g id="node4" class="node">
<title>R96</title>
<g id="a_node4"><a xlink:href="96.svg" xlink:title="R96">
<polygon fill="azure" stroke="none" points="1304,-178.46 1228,-178.46 1228,-131.46 1304,-131.46 1304,-178.46"/>
<text text-anchor="middle" x="1266" y="-146.46" font-family="Times New Roman,serif" font-size="35.00">R96</text>
</a>
</g>
</g>
<!-- R382&#45;&gt;R96 -->
<g id="edge4" class="edge">
<title>R382&#45;&gt;R96</title>
<path fill="none" stroke="black" d="M698.87,-148.95C794.14,-147.08 1020.35,-143.91 1210,-150.96 1212.37,-151.05 1214.8,-151.16 1217.25,-151.28"/>
<polygon fill="black" stroke="black" points="1216.85,-154.82 1227.04,-151.91 1217.26,-147.84 1216.85,-154.82"/>
<text text-anchor="middle" x="959" y="-159.96" font-family="Times New Roman,serif" font-size="30.00"> &#160;&#160;808 &#160;&#160;2% &#160;&#160;9.79e&#45;07 mol/s &#160;&#160;&#160;2.33E&#45;01</text>
</g>
<!-- R2 -->
<g id="node5" class="node">
<title>R2</title>
<g id="a_node5"><a xlink:href="2.svg" xlink:title="R2">
<polygon fill="azure" stroke="none" points="1295,-113.46 1237,-113.46 1237,-66.46 1295,-66.46 1295,-113.46"/>
<text text-anchor="middle" x="1266" y="-81.46" font-family="Times New Roman,serif" font-size="35.00">R2</text>
</a>
</g>
</g>
<!-- R382&#45;&gt;R2 -->
<g id="edge5" class="edge">
<title>R382&#45;&gt;R2</title>
<path fill="none" stroke="black" stroke-width="5" d="M678.6,-126.53C687.31,-119.94 697.51,-113.58 708,-109.96 886.84,-48.24 1117.41,-69.13 1216.37,-82.45"/>
<polygon fill="black" stroke="black" stroke-width="5" points="1209.98,-91.23 1231.01,-85.38 1212.44,-73.91 1209.98,-91.23"/>
<text text-anchor="middle" x="959" y="-118.96" font-family="Times New Roman,serif" font-size="30.00"> &#160;&#160;873 &#160;&#160;97% &#160;&#160;3.49e&#45;05 mol/s &#160;&#160;&#160;1.20E&#45;02</text>
</g>
<!-- R92 -->
<g id="node6" class="node">
<title>R92</title>
<g id="a_node6"><a xlink:href="92.svg" xlink:title="R92">
<polygon fill="azure" stroke="none" points="1304,-48.46 1228,-48.46 1228,-1.46 1304,-1.46 1304,-48.46"/>
<text text-anchor="middle" x="1266" y="-16.46" font-family="Times New Roman,serif" font-size="35.00">R92</text>
</a>
</g>
</g>
<!-- R382&#45;&gt;R92 -->
<g id="edge6" class="edge">
<title>R382&#45;&gt;R92</title>
<path fill="none" stroke="black" stroke-width="5" d="M656.43,-126.51C661.9,-98.54 675.54,-52.94 708,-31.96 789.04,20.39 1082.09,-4.61 1207.46,-18.19"/>
<polygon fill="black" stroke="black" stroke-width="5" points="1201.3,-26.98 1222.15,-20.49 1203.24,-9.58 1201.3,-26.98"/>
<text text-anchor="middle" x="959" y="-40.96" font-family="Times New Roman,serif" font-size="30.00"> &#160;&#160;873 &#160;&#160;97% &#160;&#160;3.49e&#45;05 mol/s &#160;&#160;&#160;1.20E&#45;02</text>
</g>
<!-- R0&#45;&gt;R382 -->
<g id="edge1" class="edge">
<title>R0&#45;&gt;R382</title>
<path fill="none" stroke="black" stroke-width="6" d="M1237.08,-219.25C1228.74,-214.35 1219.33,-209.71 1210,-206.96 995.75,-143.88 921.39,-249.91 708,-183.96 706.51,-183.5 705.02,-182.99 703.54,-182.44"/>
<polygon fill="black" stroke="black" stroke-width="6" points="712.41,-174.65 689.84,-175.36 703.24,-193.54 712.41,-174.65"/>
<text text-anchor="middle" x="959" y="-215.96" font-family="Times New Roman,serif" font-size="30.00"> &#160;&#160;807 &#160;&#160;100% &#160;&#160;4.25e&#45;07 mol/s &#160;&#160;&#160;9.94E&#45;01</text>
</g>
<!-- R95 -->
<g id="node3" class="node">
<title>R95</title>
<g id="a_node3"><a xlink:href="95.svg" xlink:title="R95">
<polygon fill="azure" stroke="none" points="76,-173.46 0,-173.46 0,-126.46 76,-126.46 76,-173.46"/>
<text text-anchor="middle" x="38" y="-141.46" font-family="Times New Roman,serif" font-size="35.00">R95</text>
</a>
</g>
</g>
<!-- R95&#45;&gt;R382 -->
<g id="edge2" class="edge">
<title>R95&#45;&gt;R382</title>
<path fill="none" stroke="black" stroke-width="6" d="M75.91,-149.96C176.31,-149.96 455.49,-149.96 584.31,-149.96"/>
<polygon fill="black" stroke="black" stroke-width="6" points="579.09,-160.46 599.09,-149.96 579.09,-139.46 579.09,-160.46"/>
<text text-anchor="middle" x="345" y="-158.96" font-family="Times New Roman,serif" font-size="30.00"> &#160;&#160;807 &#160;&#160;100% &#160;&#160;4.25e&#45;07 mol/s &#160;&#160;&#160;9.94E&#45;01</text>
</g>
</g>
</svg>
