<?xml version="1.0" encoding="UTF-8" standalone="no"?>
<!DOCTYPE svg PUBLIC "-//W3C//DTD SVG 1.1//EN"
 "http://www.w3.org/Graphics/SVG/1.1/DTD/svg11.dtd">
<!-- Generated by graphviz version 8.0.3 (20230416.2022)
 -->
<!-- Title: G Pages: 1 -->
<svg width="640pt" height="190pt"
 viewBox="0.00 0.00 720.00 214.02" xmlns="http://www.w3.org/2000/svg" xmlns:xlink="http://www.w3.org/1999/xlink">
<g id="graph0" class="graph" transform="scale(0.503937 0.503937) rotate(0) translate(4 373.5)">
<title>G</title>
<polygon fill="white" stroke="none" points="-4,4 -4,-373.5 1266,-373.5 1266,4 -4,4"/>
<text text-anchor="middle" x="631" y="-336.7" font-family="Arial" font-size="36.00" fill="blue">Reaction Path Analysis</text>
<!-- R385 -->
<g id="node1" class="node">
<title>R385</title>
<g id="a_node1"><a xlink:href="385.svg" xlink:title="R385">
<polygon fill="azure" stroke="none" points="678,-172 584,-172 584,-125 678,-125 678,-172"/>
<text text-anchor="middle" x="631" y="-140" font-family="Times New Roman,serif" font-size="35.00">R385</text>
</a>
</g>
</g>
<!-- R0 -->
<g id="node2" class="node">
<title>R0</title>
<g id="a_node2"><a xlink:href="0.svg" xlink:title="R0">
<polygon fill="azure" stroke="none" points="1244,-261 1186,-261 1186,-214 1244,-214 1244,-261"/>
<text text-anchor="middle" x="1215" y="-229" font-family="Times New Roman,serif" font-size="35.00">R0</text>
</a>
</g>
</g>
<!-- R385&#45;&gt;R0 -->
<g id="edge1" class="edge">
<title>R385&#45;&gt;R0</title>
<path fill="none" stroke="black" d="M638.91,-171.75C646.73,-193.38 661.77,-224.35 687,-238.5 848.61,-329.14 1084.33,-275.74 1175.77,-249.48"/>
<polygon fill="black" stroke="black" points="1176.58,-252.6 1185.19,-246.42 1174.61,-245.88 1176.58,-252.6"/>
<text text-anchor="middle" x="923" y="-297.5" font-family="Times New Roman,serif" font-size="30.00"> &#160;&#160;813 &#160;&#160;0% &#160;&#160;2.58e&#45;05 mol/s &#160;&#160;&#160;1.61E&#45;02</text>
</g>
<!-- R105 -->
<g id="node3" class="node">
<title>R105</title>
<g id="a_node3"><a xlink:href="105.svg" xlink:title="R105">
<polygon fill="azure" stroke="none" points="1262,-177 1168,-177 1168,-130 1262,-130 1262,-177"/>
<text text-anchor="middle" x="1215" y="-145" font-family="Times New Roman,serif" font-size="35.00">R105</text>
</a>
</g>
</g>
<!-- R385&#45;&gt;R105 -->
<g id="edge2" class="edge">
<title>R385&#45;&gt;R105</title>
<path fill="none" stroke="black" d="M677.84,-147.5C767.56,-145.77 972.94,-142.98 1157.12,-149.52"/>
<polygon fill="black" stroke="black" points="1156.98,-153.05 1167.1,-149.92 1157.23,-146.05 1156.98,-153.05"/>
<text text-anchor="middle" x="923" y="-158.5" font-family="Times New Roman,serif" font-size="30.00"> &#160;&#160;813 &#160;&#160;0% &#160;&#160;2.58e&#45;05 mol/s &#160;&#160;&#160;1.61E&#45;02</text>
</g>
<!-- R13 -->
<g id="node5" class="node">
<title>R13</title>
<g id="a_node5"><a xlink:href="13.svg" xlink:title="R13">
<polygon fill="azure" stroke="none" points="1253,-112 1177,-112 1177,-65 1253,-65 1253,-112"/>
<text text-anchor="middle" x="1215" y="-80" font-family="Times New Roman,serif" font-size="35.00">R13</text>
</a>
</g>
</g>
<!-- R385&#45;&gt;R13 -->
<g id="edge5" class="edge">
<title>R385&#45;&gt;R13</title>
<path fill="none" stroke="black" stroke-width="5" d="M657.6,-125.08C666.31,-118.49 676.51,-112.13 687,-108.5 849.68,-52.17 1057.69,-67.8 1156.68,-80.07"/>
<polygon fill="black" stroke="black" stroke-width="5" points="1150.23,-88.83 1171.2,-82.76 1152.51,-71.48 1150.23,-88.83"/>
<text text-anchor="middle" x="923" y="-117.5" font-family="Times New Roman,serif" font-size="30.00"> &#160;&#160;889 &#160;&#160;99% &#160;&#160;4.22 mol/s &#160;&#160;&#160;1.01E&#45;07</text>
</g>
<!-- R92 -->
<g id="node6" class="node">
<title>R92</title>
<g id="a_node6"><a xlink:href="92.svg" xlink:title="R92">
<polygon fill="azure" stroke="none" points="1253,-47 1177,-47 1177,0 1253,0 1253,-47"/>
<text text-anchor="middle" x="1215" y="-15" font-family="Times New Roman,serif" font-size="35.00">R92</text>
</a>
</g>
</g>
<!-- R385&#45;&gt;R92 -->
<g id="edge6" class="edge">
<title>R385&#45;&gt;R92</title>
<path fill="none" stroke="black" stroke-width="5" d="M635.5,-125.25C641.05,-97.53 654.76,-52.32 687,-31.5 763.08,17.62 1036.55,-4.44 1156.7,-16.97"/>
<polygon fill="black" stroke="black" stroke-width="5" points="1150.45,-25.74 1171.27,-19.18 1152.31,-8.34 1150.45,-25.74"/>
<text text-anchor="middle" x="923" y="-40.5" font-family="Times New Roman,serif" font-size="30.00"> &#160;&#160;889 &#160;&#160;99% &#160;&#160;4.22 mol/s &#160;&#160;&#160;1.01E&#45;07</text>
</g>
<!-- R0&#45;&gt;R385 -->
<g id="edge3" class="edge">
<title>R0&#45;&gt;R385</title>
<path fill="none" stroke="black" stroke-width="6" d="M1186.1,-215.11C1177.84,-209.66 1168.46,-204.53 1159,-201.5 1059.03,-169.49 787.38,-213.22 687,-182.5 685.51,-182.04 684.02,-181.54 682.54,-180.99"/>
<polygon fill="black" stroke="black" stroke-width="6" points="691.4,-173.19 668.83,-173.93 682.25,-192.1 691.4,-173.19"/>
<text text-anchor="middle" x="923" y="-210.5" font-family="Times New Roman,serif" font-size="30.00"> &#160;&#160;814 &#160;&#160;100% &#160;&#160;3e&#45;07 mol/s &#160;&#160;&#160;7.70E&#45;01</text>
</g>
<!-- R106 -->
<g id="node4" class="node">
<title>R106</title>
<g id="a_node4"><a xlink:href="106.svg" xlink:title="R106">
<polygon fill="azure" stroke="none" points="94,-172 0,-172 0,-125 94,-125 94,-172"/>
<text text-anchor="middle" x="47" y="-140" font-family="Times New Roman,serif" font-size="35.00">R106</text>
</a>
</g>
</g>
<!-- R106&#45;&gt;R385 -->
<g id="edge4" class="edge">
<title>R106&#45;&gt;R385</title>
<path fill="none" stroke="black" stroke-width="6" d="M93.67,-148.5C195.96,-148.5 443.87,-148.5 563.38,-148.5"/>
<polygon fill="black" stroke="black" stroke-width="6" points="558.14,-159 578.14,-148.5 558.14,-138 558.14,-159"/>
<text text-anchor="middle" x="339" y="-157.5" font-family="Times New Roman,serif" font-size="30.00"> &#160;&#160;814 &#160;&#160;100% &#160;&#160;3e&#45;07 mol/s &#160;&#160;&#160;7.70E&#45;01</text>
</g>
</g>
</svg>
