<?xml version="1.0" encoding="UTF-8" standalone="no"?>
<!DOCTYPE svg PUBLIC "-//W3C//DTD SVG 1.1//EN"
 "http://www.w3.org/Graphics/SVG/1.1/DTD/svg11.dtd">
<!-- Generated by graphviz version 8.0.3 (20230416.2022)
 -->
<!-- Title: G Pages: 1 -->
<svg width="623pt" height="316pt"
 viewBox="0.00 0.00 701.00 355.94" xmlns="http://www.w3.org/2000/svg" xmlns:xlink="http://www.w3.org/1999/xlink">
<g id="graph0" class="graph" transform="scale(0.888889 0.888889) rotate(0) translate(4 351.94)">
<title>G</title>
<polygon fill="white" stroke="none" points="-4,4 -4,-351.94 697,-351.94 697,4 -4,4"/>
<text text-anchor="middle" x="346.5" y="-315.14" font-family="Arial" font-size="36.00" fill="blue">Reaction Path Analysis</text>
<!-- R387 -->
<g id="node1" class="node">
<title>R387</title>
<g id="a_node1"><a xlink:href="387.svg" xlink:title="R387">
<polygon fill="azure" stroke="none" points="94,-163.44 0,-163.44 0,-116.44 94,-116.44 94,-163.44"/>
<text text-anchor="middle" x="47" y="-131.44" font-family="Times New Roman,serif" font-size="35.00">R387</text>
</a>
</g>
</g>
<!-- R0 -->
<g id="node2" class="node">
<title>R0</title>
<g id="a_node2"><a xlink:href="0.svg" xlink:title="R0">
<polygon fill="azure" stroke="none" points="675,-261.44 617,-261.44 617,-214.44 675,-214.44 675,-261.44"/>
<text text-anchor="middle" x="646" y="-229.44" font-family="Times New Roman,serif" font-size="35.00">R0</text>
</a>
</g>
</g>
<!-- R387&#45;&gt;R0 -->
<g id="edge1" class="edge">
<title>R387&#45;&gt;R0</title>
<path fill="none" stroke="black" stroke-width="4" d="M59.41,-163.21C68.72,-179.4 83.52,-199.84 103,-209.94 266.92,-294.91 497.47,-266.2 596.59,-248.06"/>
<polygon fill="black" stroke="black" stroke-width="4" points="593.69,-255.78 612.01,-245.13 591.04,-242.04 593.69,-255.78"/>
<text text-anchor="middle" x="346.5" y="-275.94" font-family="Times New Roman,serif" font-size="30.00"> &#160;&#160;818 &#160;&#160;65% &#160;&#160;3.03e&#45;06 mol/s &#160;&#160;&#160;1.10E&#45;01</text>
</g>
<!-- R121 -->
<g id="node3" class="node">
<title>R121</title>
<g id="a_node3"><a xlink:href="121.svg" xlink:title="R121">
<polygon fill="azure" stroke="none" points="693,-196.44 599,-196.44 599,-149.44 693,-149.44 693,-196.44"/>
<text text-anchor="middle" x="646" y="-164.44" font-family="Times New Roman,serif" font-size="35.00">R121</text>
</a>
</g>
</g>
<!-- R387&#45;&gt;R121 -->
<g id="edge2" class="edge">
<title>R387&#45;&gt;R121</title>
<path fill="none" stroke="black" stroke-width="4" d="M93.83,-149.66C96.92,-150.15 100,-150.58 103,-150.94 273.31,-171.3 475.63,-173.82 578.21,-173.58"/>
<polygon fill="black" stroke="black" stroke-width="4" points="573.16,-180.58 593.12,-173.49 573.09,-166.58 573.16,-180.58"/>
<text text-anchor="middle" x="346.5" y="-181.94" font-family="Times New Roman,serif" font-size="30.00"> &#160;&#160;818 &#160;&#160;65% &#160;&#160;3.03e&#45;06 mol/s &#160;&#160;&#160;1.10E&#45;01</text>
</g>
<!-- R1 -->
<g id="node4" class="node">
<title>R1</title>
<g id="a_node4"><a xlink:href="1.svg" xlink:title="R1">
<polygon fill="azure" stroke="none" points="675,-131.44 617,-131.44 617,-84.44 675,-84.44 675,-131.44"/>
<text text-anchor="middle" x="646" y="-99.44" font-family="Times New Roman,serif" font-size="35.00">R1</text>
</a>
</g>
</g>
<!-- R387&#45;&gt;R1 -->
<g id="edge3" class="edge">
<title>R387&#45;&gt;R1</title>
<path fill="none" stroke="black" stroke-width="2" d="M93.84,-120.2C96.91,-119.32 99.98,-118.55 103,-117.94 288.55,-80.42 517.13,-95.69 606.57,-103.95"/>
<polygon fill="black" stroke="black" stroke-width="2" points="603.98,-107.51 614.27,-104.97 604.64,-100.54 603.98,-107.51"/>
<text text-anchor="middle" x="346.5" y="-126.94" font-family="Times New Roman,serif" font-size="30.00"> &#160;&#160;857 &#160;&#160;34% &#160;&#160;1.58e&#45;06 mol/s &#160;&#160;&#160;1.76E&#45;01</text>
</g>
<!-- R94 -->
<g id="node5" class="node">
<title>R94</title>
<g id="a_node5"><a xlink:href="94.svg" xlink:title="R94">
<polygon fill="azure" stroke="none" points="684,-66.44 608,-66.44 608,-19.44 684,-19.44 684,-66.44"/>
<text text-anchor="middle" x="646" y="-34.44" font-family="Times New Roman,serif" font-size="35.00">R94</text>
</a>
</g>
</g>
<!-- R387&#45;&gt;R94 -->
<g id="edge4" class="edge">
<title>R387&#45;&gt;R94</title>
<path fill="none" stroke="black" stroke-width="2" d="M56.06,-116.77C64.4,-96.73 79.54,-68.98 103,-55.94 264.94,34.12 498.35,-6.64 597.53,-30.28"/>
<polygon fill="black" stroke="black" stroke-width="2" points="595.56,-33.89 606.11,-32.86 597.22,-27.09 595.56,-33.89"/>
<text text-anchor="middle" x="346.5" y="-64.94" font-family="Times New Roman,serif" font-size="30.00"> &#160;&#160;857 &#160;&#160;34% &#160;&#160;1.58e&#45;06 mol/s &#160;&#160;&#160;1.76E&#45;01</text>
</g>
</g>
</svg>
