<?xml version="1.0" encoding="UTF-8" standalone="no"?>
<!DOCTYPE svg PUBLIC "-//W3C//DTD SVG 1.1//EN"
 "http://www.w3.org/Graphics/SVG/1.1/DTD/svg11.dtd">
<!-- Generated by graphviz version 8.0.3 (20230416.2022)
 -->
<!-- Title: G Pages: 1 -->
<svg width="640pt" height="154pt"
 viewBox="0.00 0.00 720.00 173.22" xmlns="http://www.w3.org/2000/svg" xmlns:xlink="http://www.w3.org/1999/xlink">
<g id="graph0" class="graph" transform="scale(0.481203 0.481203) rotate(0) translate(4 315.97)">
<title>G</title>
<polygon fill="white" stroke="none" points="-4,4 -4,-315.97 1326,-315.97 1326,4 -4,4"/>
<text text-anchor="middle" x="661" y="-279.17" font-family="Arial" font-size="36.00" fill="blue">Reaction Path Analysis</text>
<!-- R393 -->
<g id="node1" class="node">
<title>R393</title>
<g id="a_node1"><a xlink:href="393.svg" xlink:title="R393">
<polygon fill="azure" stroke="none" points="708,-155.47 614,-155.47 614,-108.47 708,-108.47 708,-155.47"/>
<text text-anchor="middle" x="661" y="-123.47" font-family="Times New Roman,serif" font-size="35.00">R393</text>
</a>
</g>
</g>
<!-- R1 -->
<g id="node4" class="node">
<title>R1</title>
<g id="a_node4"><a xlink:href="1.svg" xlink:title="R1">
<polygon fill="azure" stroke="none" points="1304,-215.47 1246,-215.47 1246,-168.47 1304,-168.47 1304,-215.47"/>
<text text-anchor="middle" x="1275" y="-183.47" font-family="Times New Roman,serif" font-size="35.00">R1</text>
</a>
</g>
</g>
<!-- R393&#45;&gt;R1 -->
<g id="edge3" class="edge">
<title>R393&#45;&gt;R1</title>
<path fill="none" stroke="black" stroke-width="5" d="M680.4,-155.22C693.16,-169.38 711.51,-186.2 732,-193.97 903.82,-259.12 1128.9,-223.71 1226,-203.25"/>
<polygon fill="black" stroke="black" stroke-width="5" points="1222.62,-212.63 1240.27,-199.79 1218.86,-195.54 1222.62,-212.63"/>
<text text-anchor="middle" x="968" y="-239.97" font-family="Times New Roman,serif" font-size="30.00"> &#160;&#160;863 &#160;&#160;99% &#160;&#160;0.023 mol/s &#160;&#160;&#160;1.86E&#45;05</text>
</g>
<!-- R393&#45;&gt;R1 -->
<g id="edge5" class="edge">
<title>R393&#45;&gt;R1</title>
<path fill="none" stroke="black" d="M707.92,-136.21C715.94,-136.86 724.21,-137.48 732,-137.97 836.77,-144.57 1102.34,-130.8 1204,-156.97 1215.07,-159.82 1226.42,-164.57 1236.68,-169.68"/>
<polygon fill="black" stroke="black" points="1234.64,-173.09 1245.13,-174.62 1237.89,-166.88 1234.64,-173.09"/>
<text text-anchor="middle" x="968" y="-165.97" font-family="Times New Roman,serif" font-size="30.00"> &#160;&#160;864 &#160;&#160;0% &#160;&#160;2.55e&#45;05 mol/s &#160;&#160;&#160;1.62E&#45;02</text>
</g>
<!-- R121 -->
<g id="node5" class="node">
<title>R121</title>
<g id="a_node5"><a xlink:href="121.svg" xlink:title="R121">
<polygon fill="azure" stroke="none" points="1322,-127.47 1228,-127.47 1228,-80.47 1322,-80.47 1322,-127.47"/>
<text text-anchor="middle" x="1275" y="-95.47" font-family="Times New Roman,serif" font-size="35.00">R121</text>
</a>
</g>
</g>
<!-- R393&#45;&gt;R121 -->
<g id="edge4" class="edge">
<title>R393&#45;&gt;R121</title>
<path fill="none" stroke="black" stroke-width="5" d="M708,-111.51C715.86,-108.81 724.06,-106.46 732,-104.97 900.85,-73.37 1104.51,-86.33 1207.47,-96.37"/>
<polygon fill="black" stroke="black" stroke-width="5" points="1201.37,-105.15 1222.15,-98.48 1203.14,-87.74 1201.37,-105.15"/>
<text text-anchor="middle" x="968" y="-113.97" font-family="Times New Roman,serif" font-size="30.00"> &#160;&#160;863 &#160;&#160;99% &#160;&#160;0.023 mol/s &#160;&#160;&#160;1.86E&#45;05</text>
</g>
<!-- R122 -->
<g id="node6" class="node">
<title>R122</title>
<g id="a_node6"><a xlink:href="122.svg" xlink:title="R122">
<polygon fill="azure" stroke="none" points="1322,-62.47 1228,-62.47 1228,-15.47 1322,-15.47 1322,-62.47"/>
<text text-anchor="middle" x="1275" y="-30.47" font-family="Times New Roman,serif" font-size="35.00">R122</text>
</a>
</g>
</g>
<!-- R393&#45;&gt;R122 -->
<g id="edge6" class="edge">
<title>R393&#45;&gt;R122</title>
<path fill="none" stroke="black" d="M674.23,-108.49C686.04,-88.59 705.96,-61.37 732,-48.97 893.93,28.12 1115.1,-4.02 1217.6,-25.48"/>
<polygon fill="black" stroke="black" points="1216.81,-29.11 1227.32,-27.78 1218.27,-22.26 1216.81,-29.11"/>
<text text-anchor="middle" x="968" y="-57.97" font-family="Times New Roman,serif" font-size="30.00"> &#160;&#160;864 &#160;&#160;0% &#160;&#160;2.55e&#45;05 mol/s &#160;&#160;&#160;1.62E&#45;02</text>
</g>
<!-- R0 -->
<g id="node2" class="node">
<title>R0</title>
<g id="a_node2"><a xlink:href="0.svg" xlink:title="R0">
<polygon fill="azure" stroke="none" points="76,-188.47 18,-188.47 18,-141.47 76,-141.47 76,-188.47"/>
<text text-anchor="middle" x="47" y="-156.47" font-family="Times New Roman,serif" font-size="35.00">R0</text>
</a>
</g>
</g>
<!-- R0&#45;&gt;R393 -->
<g id="edge1" class="edge">
<title>R0&#45;&gt;R393</title>
<path fill="none" stroke="black" stroke-width="6" d="M75.94,-165.42C154.99,-166.37 387.3,-166.95 593.36,-144.1"/>
<polygon fill="black" stroke="black" stroke-width="6" points="589.51,-154.42 608.17,-141.7 587.1,-133.56 589.51,-154.42"/>
<text text-anchor="middle" x="354" y="-173.97" font-family="Times New Roman,serif" font-size="30.00"> &#160;&#160;842 &#160;&#160;100% &#160;&#160;4.19e&#45;07 mol/s &#160;&#160;&#160;9.80E&#45;01</text>
</g>
<!-- R335 -->
<g id="node3" class="node">
<title>R335</title>
<g id="a_node3"><a xlink:href="335.svg" xlink:title="R335">
<polygon fill="azure" stroke="none" points="94,-123.47 0,-123.47 0,-76.47 94,-76.47 94,-123.47"/>
<text text-anchor="middle" x="47" y="-91.47" font-family="Times New Roman,serif" font-size="35.00">R335</text>
</a>
</g>
</g>
<!-- R335&#45;&gt;R393 -->
<g id="edge2" class="edge">
<title>R335&#45;&gt;R393</title>
<path fill="none" stroke="black" stroke-width="6" d="M93.72,-95.28C186.33,-86.93 402.77,-73.3 593.7,-108.27"/>
<polygon fill="black" stroke="black" stroke-width="6" points="586.53,-117.74 608.16,-111.23 590.52,-97.13 586.53,-117.74"/>
<text text-anchor="middle" x="354" y="-118.97" font-family="Times New Roman,serif" font-size="30.00"> &#160;&#160;842 &#160;&#160;100% &#160;&#160;4.19e&#45;07 mol/s &#160;&#160;&#160;9.80E&#45;01</text>
</g>
</g>
</svg>
