<?xml version="1.0" encoding="UTF-8" standalone="no"?>
<!DOCTYPE svg PUBLIC "-//W3C//DTD SVG 1.1//EN"
 "http://www.w3.org/Graphics/SVG/1.1/DTD/svg11.dtd">
<!-- Generated by graphviz version 8.0.3 (20230416.2022)
 -->
<!-- Title: G Pages: 1 -->
<svg width="640pt" height="164pt"
 viewBox="0.00 0.00 720.00 184.45" xmlns="http://www.w3.org/2000/svg" xmlns:xlink="http://www.w3.org/1999/xlink">
<g id="graph0" class="graph" transform="scale(0.487062 0.487062) rotate(0) translate(4 332.62)">
<title>G</title>
<polygon fill="white" stroke="none" points="-4,4 -4,-332.62 1310,-332.62 1310,4 -4,4"/>
<text text-anchor="middle" x="653" y="-295.82" font-family="Arial" font-size="36.00" fill="blue">Reaction Path Analysis</text>
<!-- R394 -->
<g id="node1" class="node">
<title>R394</title>
<g id="a_node1"><a xlink:href="394.svg" xlink:title="R394">
<polygon fill="azure" stroke="none" points="700,-166.12 606,-166.12 606,-119.12 700,-119.12 700,-166.12"/>
<text text-anchor="middle" x="653" y="-134.12" font-family="Times New Roman,serif" font-size="35.00">R394</text>
</a>
</g>
</g>
<!-- R265 -->
<g id="node2" class="node">
<title>R265</title>
<g id="a_node2"><a xlink:href="265.svg" xlink:title="R265">
<polygon fill="azure" stroke="none" points="1306,-226.12 1212,-226.12 1212,-179.12 1306,-179.12 1306,-226.12"/>
<text text-anchor="middle" x="1259" y="-194.12" font-family="Times New Roman,serif" font-size="35.00">R265</text>
</a>
</g>
</g>
<!-- R394&#45;&gt;R265 -->
<g id="edge1" class="edge">
<title>R394&#45;&gt;R265</title>
<path fill="none" stroke="black" d="M667.59,-166.05C677.17,-180.09 691.42,-196.71 709,-204.62 875.03,-279.27 1098.9,-241.42 1201.89,-217.38"/>
<polygon fill="black" stroke="black" points="1202.45,-220.61 1211.36,-214.89 1200.82,-213.8 1202.45,-220.61"/>
<text text-anchor="middle" x="956" y="-256.62" font-family="Times New Roman,serif" font-size="30.00"> &#160;&#160;965 &#160;&#160;0% &#160;&#160;0.51 mol/s &#160;&#160;&#160;1.28E&#45;03</text>
</g>
<!-- R394&#45;&gt;R265 -->
<g id="edge5" class="edge">
<title>R394&#45;&gt;R265</title>
<path fill="none" stroke="black" d="M699.89,-147.87C702.97,-148.15 706.03,-148.4 709,-148.62 818.56,-156.69 1098.13,-134.88 1203,-167.62 1208.14,-169.22 1213.26,-171.44 1218.2,-173.98"/>
<polygon fill="black" stroke="black" points="1216,-177.32 1226.43,-179.2 1219.45,-171.23 1216,-177.32"/>
<text text-anchor="middle" x="956" y="-176.62" font-family="Times New Roman,serif" font-size="30.00"> &#160;&#160;1052 &#160;&#160;0% &#160;&#160;0.000653 mol/s &#160;&#160;&#160;9.99E&#45;01</text>
</g>
<!-- R380 -->
<g id="node4" class="node">
<title>R380</title>
<g id="a_node4"><a xlink:href="380.svg" xlink:title="R380">
<polygon fill="azure" stroke="none" points="1306,-138.12 1212,-138.12 1212,-91.12 1306,-91.12 1306,-138.12"/>
<text text-anchor="middle" x="1259" y="-106.12" font-family="Times New Roman,serif" font-size="35.00">R380</text>
</a>
</g>
</g>
<!-- R394&#45;&gt;R380 -->
<g id="edge3" class="edge">
<title>R394&#45;&gt;R380</title>
<path fill="none" stroke="black" stroke-width="5" d="M697.16,-119.22C701.08,-117.78 705.06,-116.54 709,-115.62 879.07,-75.96 1086.91,-92.56 1191.35,-105.2"/>
<polygon fill="black" stroke="black" stroke-width="5" points="1185.07,-113.98 1206.01,-107.81 1187.27,-96.62 1185.07,-113.98"/>
<text text-anchor="middle" x="956" y="-124.62" font-family="Times New Roman,serif" font-size="30.00"> &#160;&#160;1048 &#160;&#160;99% &#160;&#160;17200.0 mol/s &#160;&#160;&#160;2.49E&#45;11</text>
</g>
<!-- R1 -->
<g id="node5" class="node">
<title>R1</title>
<g id="a_node5"><a xlink:href="1.svg" xlink:title="R1">
<polygon fill="azure" stroke="none" points="1288,-73.12 1230,-73.12 1230,-26.12 1288,-26.12 1288,-73.12"/>
<text text-anchor="middle" x="1259" y="-41.12" font-family="Times New Roman,serif" font-size="35.00">R1</text>
</a>
</g>
</g>
<!-- R394&#45;&gt;R1 -->
<g id="edge4" class="edge">
<title>R394&#45;&gt;R1</title>
<path fill="none" stroke="black" stroke-width="5" d="M661.24,-119.52C669.23,-98.41 684.32,-68.44 709,-54.62 872.88,37.19 1109.78,-9.39 1210.17,-35.7"/>
<polygon fill="black" stroke="black" stroke-width="5" points="1202.65,-43.35 1224.24,-40.17 1207.25,-26.47 1202.65,-43.35"/>
<text text-anchor="middle" x="956" y="-63.62" font-family="Times New Roman,serif" font-size="30.00"> &#160;&#160;1048 &#160;&#160;99% &#160;&#160;17200.0 mol/s &#160;&#160;&#160;2.49E&#45;11</text>
</g>
<!-- R397 -->
<g id="node3" class="node">
<title>R397</title>
<g id="a_node3"><a xlink:href="397.svg" xlink:title="R397">
<polygon fill="azure" stroke="none" points="94,-166.12 0,-166.12 0,-119.12 94,-119.12 94,-166.12"/>
<text text-anchor="middle" x="47" y="-134.12" font-family="Times New Roman,serif" font-size="35.00">R397</text>
</a>
</g>
</g>
<!-- R397&#45;&gt;R394 -->
<g id="edge2" class="edge">
<title>R397&#45;&gt;R394</title>
<path fill="none" stroke="black" stroke-width="5" d="M93.89,-142.62C199.85,-142.62 461.9,-142.62 585.48,-142.62"/>
<polygon fill="black" stroke="black" stroke-width="5" points="580.18,-151.37 600.18,-142.62 580.18,-133.87 580.18,-151.37"/>
<text text-anchor="middle" x="350" y="-151.62" font-family="Times New Roman,serif" font-size="30.00"> &#160;&#160;1047 &#160;&#160;99% &#160;&#160;0.68 mol/s &#160;&#160;&#160;6.29E&#45;07</text>
</g>
</g>
</svg>
