<?xml version="1.0" encoding="UTF-8" standalone="no"?>
<!DOCTYPE svg PUBLIC "-//W3C//DTD SVG 1.1//EN"
 "http://www.w3.org/Graphics/SVG/1.1/DTD/svg11.dtd">
<!-- Generated by graphviz version 8.0.3 (20230416.2022)
 -->
<!-- Title: G Pages: 1 -->
<svg width="640pt" height="145pt"
 viewBox="0.00 0.00 720.00 162.97" xmlns="http://www.w3.org/2000/svg" xmlns:xlink="http://www.w3.org/1999/xlink">
<g id="graph0" class="graph" transform="scale(0.45584 0.45584) rotate(0) translate(4 313.8)">
<title>G</title>
<polygon fill="white" stroke="none" points="-4,4 -4,-313.8 1400,-313.8 1400,4 -4,4"/>
<text text-anchor="middle" x="698" y="-277" font-family="Arial" font-size="36.00" fill="blue">Reaction Path Analysis</text>
<!-- R395 -->
<g id="node1" class="node">
<title>R395</title>
<g id="a_node1"><a xlink:href="395.svg" xlink:title="R395">
<polygon fill="azure" stroke="none" points="745,-143.3 651,-143.3 651,-96.3 745,-96.3 745,-143.3"/>
<text text-anchor="middle" x="698" y="-111.3" font-family="Times New Roman,serif" font-size="35.00">R395</text>
</a>
</g>
</g>
<!-- R268 -->
<g id="node2" class="node">
<title>R268</title>
<g id="a_node2"><a xlink:href="268.svg" xlink:title="R268">
<polygon fill="azure" stroke="none" points="1396,-203.3 1302,-203.3 1302,-156.3 1396,-156.3 1396,-203.3"/>
<text text-anchor="middle" x="1349" y="-171.3" font-family="Times New Roman,serif" font-size="35.00">R268</text>
</a>
</g>
</g>
<!-- R395&#45;&gt;R268 -->
<g id="edge1" class="edge">
<title>R395&#45;&gt;R268</title>
<path fill="none" stroke="black" d="M712.59,-143.23C722.17,-157.27 736.42,-173.89 754,-181.8 936.05,-263.66 1182.37,-220.59 1291.71,-194.71"/>
<polygon fill="black" stroke="black" points="1292.27,-197.93 1301.17,-192.18 1290.63,-191.13 1292.27,-197.93"/>
<text text-anchor="middle" x="1023.5" y="-237.8" font-family="Times New Roman,serif" font-size="30.00"> &#160;&#160;967 &#160;&#160;0% &#160;&#160;0.00629 mol/s &#160;&#160;&#160;8.60E&#45;02</text>
</g>
<!-- R395&#45;&gt;R268 -->
<g id="edge6" class="edge">
<title>R395&#45;&gt;R268</title>
<path fill="none" stroke="black" d="M744.89,-125.06C747.97,-125.33 751.03,-125.58 754,-125.8 813.77,-130.1 1235.77,-127.03 1293,-144.8 1298.14,-146.39 1303.26,-148.6 1308.21,-151.14"/>
<polygon fill="black" stroke="black" points="1306.01,-154.48 1316.43,-156.36 1309.45,-148.39 1306.01,-154.48"/>
<text text-anchor="middle" x="1023.5" y="-153.8" font-family="Times New Roman,serif" font-size="30.00"> &#160;&#160;1054 &#160;&#160;0% &#160;&#160;0.000592 mol/s &#160;&#160;&#160;9.14E&#45;01</text>
</g>
<!-- R380 -->
<g id="node4" class="node">
<title>R380</title>
<g id="a_node4"><a xlink:href="380.svg" xlink:title="R380">
<polygon fill="azure" stroke="none" points="1396,-115.3 1302,-115.3 1302,-68.3 1396,-68.3 1396,-115.3"/>
<text text-anchor="middle" x="1349" y="-83.3" font-family="Times New Roman,serif" font-size="35.00">R380</text>
</a>
</g>
</g>
<!-- R395&#45;&gt;R380 -->
<g id="edge3" class="edge">
<title>R395&#45;&gt;R380</title>
<path fill="none" stroke="black" stroke-width="5" d="M742.16,-96.4C746.08,-94.95 750.06,-93.71 754,-92.8 941.13,-49.17 1170.54,-68.52 1281.54,-82.28"/>
<polygon fill="black" stroke="black" stroke-width="5" points="1275.16,-91.06 1296.11,-84.94 1277.4,-73.7 1275.16,-91.06"/>
<text text-anchor="middle" x="1023.5" y="-101.8" font-family="Times New Roman,serif" font-size="30.00"> &#160;&#160;1051 &#160;&#160;99% &#160;&#160;77300000.0 mol/s &#160;&#160;&#160;5.53E&#45;15</text>
</g>
<!-- R13 -->
<g id="node5" class="node">
<title>R13</title>
<g id="a_node5"><a xlink:href="13.svg" xlink:title="R13">
<polygon fill="azure" stroke="none" points="1387,-50.3 1311,-50.3 1311,-3.3 1387,-3.3 1387,-50.3"/>
<text text-anchor="middle" x="1349" y="-18.3" font-family="Times New Roman,serif" font-size="35.00">R13</text>
</a>
</g>
</g>
<!-- R395&#45;&gt;R13 -->
<g id="edge4" class="edge">
<title>R395&#45;&gt;R13</title>
<path fill="none" stroke="black" stroke-width="5" d="M705.93,-96.58C713.76,-74.96 728.8,-44.01 754,-29.8 844.32,21.16 1159.33,-6.1 1290.25,-20.12"/>
<polygon fill="black" stroke="black" stroke-width="5" points="1284.21,-28.92 1305.05,-22.41 1286.12,-11.53 1284.21,-28.92"/>
<text text-anchor="middle" x="1023.5" y="-38.8" font-family="Times New Roman,serif" font-size="30.00"> &#160;&#160;1051 &#160;&#160;99% &#160;&#160;77300000.0 mol/s &#160;&#160;&#160;5.53E&#45;15</text>
</g>
<!-- R360 -->
<g id="node3" class="node">
<title>R360</title>
<g id="a_node3"><a xlink:href="360.svg" xlink:title="R360">
<polygon fill="azure" stroke="none" points="94,-143.3 0,-143.3 0,-96.3 94,-96.3 94,-143.3"/>
<text text-anchor="middle" x="47" y="-111.3" font-family="Times New Roman,serif" font-size="35.00">R360</text>
</a>
</g>
</g>
<!-- R360&#45;&gt;R395 -->
<g id="edge2" class="edge">
<title>R360&#45;&gt;R395</title>
<path fill="none" stroke="black" d="M93.86,-123.94C104.26,-124.71 115.25,-125.4 125.5,-125.8 344.89,-134.28 400.11,-134.28 619.5,-125.8 626.23,-125.54 633.27,-125.15 640.26,-124.7"/>
<polygon fill="black" stroke="black" points="640.4,-128.12 650.14,-123.94 639.92,-121.14 640.4,-128.12"/>
<text text-anchor="middle" x="372.5" y="-140.8" font-family="Times New Roman,serif" font-size="30.00"> &#160;&#160;1027 &#160;&#160;9% &#160;&#160;0.000582 mol/s &#160;&#160;&#160;9.01E&#45;01</text>
</g>
<!-- R360&#45;&gt;R395 -->
<g id="edge5" class="edge">
<title>R360&#45;&gt;R395</title>
<path fill="none" stroke="black" stroke-width="5" d="M93.85,-98.14C104.05,-94.27 114.97,-90.82 125.5,-88.8 341.09,-47.28 403.91,-47.28 619.5,-88.8 623.45,-89.56 627.45,-90.52 631.45,-91.62"/>
<polygon fill="black" stroke="black" stroke-width="5" points="624.41,-99.17 646.15,-97.14 629.91,-82.55 624.41,-99.17"/>
<text text-anchor="middle" x="372.5" y="-97.8" font-family="Times New Roman,serif" font-size="30.00"> &#160;&#160;1053 &#160;&#160;90% &#160;&#160;0.00529 mol/s &#160;&#160;&#160;9.91E&#45;02</text>
</g>
</g>
</svg>
