<?xml version="1.0" encoding="UTF-8" standalone="no"?>
<!DOCTYPE svg PUBLIC "-//W3C//DTD SVG 1.1//EN"
 "http://www.w3.org/Graphics/SVG/1.1/DTD/svg11.dtd">
<!-- Generated by graphviz version 8.0.3 (20230416.2022)
 -->
<!-- Title: G Pages: 1 -->
<svg width="578pt" height="300pt"
 viewBox="0.00 0.00 650.00 337.85" xmlns="http://www.w3.org/2000/svg" xmlns:xlink="http://www.w3.org/1999/xlink">
<g id="graph0" class="graph" transform="scale(0.888889 0.888889) rotate(0) translate(4 333.85)">
<title>G</title>
<polygon fill="white" stroke="none" points="-4,4 -4,-333.85 646,-333.85 646,4 -4,4"/>
<text text-anchor="middle" x="321" y="-297.05" font-family="Arial" font-size="36.00" fill="blue">Reaction Path Analysis</text>
<!-- R40 -->
<g id="node1" class="node">
<title>R40</title>
<g id="a_node1"><a xlink:href="40.svg" xlink:title="R40">
<polygon fill="azure" stroke="none" points="76,-166.35 0,-166.35 0,-119.35 76,-119.35 76,-166.35"/>
<text text-anchor="middle" x="38" y="-134.35" font-family="Times New Roman,serif" font-size="35.00">R40</text>
</a>
</g>
</g>
<!-- R11 -->
<g id="node2" class="node">
<title>R11</title>
<g id="a_node2"><a xlink:href="11.svg" xlink:title="R11">
<polygon fill="azure" stroke="none" points="642,-264.35 566,-264.35 566,-217.35 642,-217.35 642,-264.35"/>
<text text-anchor="middle" x="604" y="-232.35" font-family="Times New Roman,serif" font-size="35.00">R11</text>
</a>
</g>
</g>
<!-- R40&#45;&gt;R11 -->
<g id="edge1" class="edge">
<title>R40&#45;&gt;R11</title>
<path fill="none" stroke="black" stroke-width="5" d="M47.5,-166.34C54.76,-182.71 66.94,-203.42 85,-213.85 161.81,-258.24 427.2,-250.3 545.41,-244.28"/>
<polygon fill="black" stroke="black" stroke-width="5" points="540.52,-252.98 560.02,-243.17 539.58,-235.51 540.52,-252.98"/>
<text text-anchor="middle" x="321" y="-257.85" font-family="Times New Roman,serif" font-size="30.00"> &#160;&#160;45 &#160;&#160;99% &#160;&#160;0.522 mol/s &#160;&#160;&#160;8.19E&#45;07</text>
</g>
<!-- R2 -->
<g id="node3" class="node">
<title>R2</title>
<g id="a_node3"><a xlink:href="2.svg" xlink:title="R2">
<polygon fill="azure" stroke="none" points="633,-199.35 575,-199.35 575,-152.35 633,-152.35 633,-199.35"/>
<text text-anchor="middle" x="604" y="-167.35" font-family="Times New Roman,serif" font-size="35.00">R2</text>
</a>
</g>
</g>
<!-- R40&#45;&gt;R2 -->
<g id="edge2" class="edge">
<title>R40&#45;&gt;R2</title>
<path fill="none" stroke="black" stroke-width="5" d="M75.79,-152.31C78.89,-152.9 81.99,-153.43 85,-153.85 256.15,-177.72 461.92,-178.16 554.13,-176.89"/>
<polygon fill="black" stroke="black" stroke-width="5" points="549.18,-185.62 569.03,-176.54 548.89,-168.13 549.18,-185.62"/>
<text text-anchor="middle" x="321" y="-185.85" font-family="Times New Roman,serif" font-size="30.00"> &#160;&#160;45 &#160;&#160;99% &#160;&#160;0.522 mol/s &#160;&#160;&#160;8.19E&#45;07</text>
</g>
<!-- R0 -->
<g id="node4" class="node">
<title>R0</title>
<g id="a_node4"><a xlink:href="0.svg" xlink:title="R0">
<polygon fill="azure" stroke="none" points="633,-134.35 575,-134.35 575,-87.35 633,-87.35 633,-134.35"/>
<text text-anchor="middle" x="604" y="-102.35" font-family="Times New Roman,serif" font-size="35.00">R0</text>
</a>
</g>
</g>
<!-- R40&#45;&gt;R0 -->
<g id="edge3" class="edge">
<title>R40&#45;&gt;R0</title>
<path fill="none" stroke="green" d="M75.92,-123.57C78.93,-122.5 81.99,-121.57 85,-120.85 259.85,-79.41 477.27,-96.56 564.32,-106.09"/>
<polygon fill="green" stroke="green" points="563.92,-109.68 574.25,-107.32 564.7,-102.72 563.92,-109.68"/>
<text text-anchor="middle" x="321" y="-129.85" font-family="Times New Roman,serif" font-size="30.00"> &#160;&#160;111 &#160;&#160;0% &#160;&#160;8.34e&#45;09 mol/s &#160;&#160;&#160;4.95E&#45;01</text>
</g>
<!-- R24 -->
<g id="node5" class="node">
<title>R24</title>
<g id="a_node5"><a xlink:href="24.svg" xlink:title="R24">
<polygon fill="azure" stroke="none" points="642,-69.35 566,-69.35 566,-22.35 642,-22.35 642,-69.35"/>
<text text-anchor="middle" x="604" y="-37.35" font-family="Times New Roman,serif" font-size="35.00">R24</text>
</a>
</g>
</g>
<!-- R40&#45;&gt;R24 -->
<g id="edge4" class="edge">
<title>R40&#45;&gt;R24</title>
<path fill="none" stroke="green" d="M44.39,-119.66C50.49,-99.21 62.63,-70.58 85,-56.85 235.22,35.34 458.96,-7.15 555.66,-32.16"/>
<polygon fill="green" stroke="green" points="554.7,-35.79 565.26,-34.97 556.49,-29.03 554.7,-35.79"/>
<text text-anchor="middle" x="321" y="-65.85" font-family="Times New Roman,serif" font-size="30.00"> &#160;&#160;111 &#160;&#160;0% &#160;&#160;8.34e&#45;09 mol/s &#160;&#160;&#160;4.95E&#45;01</text>
</g>
</g>
</svg>
