<?xml version="1.0" encoding="UTF-8" standalone="no"?>
<!DOCTYPE svg PUBLIC "-//W3C//DTD SVG 1.1//EN"
 "http://www.w3.org/Graphics/SVG/1.1/DTD/svg11.dtd">
<!-- Generated by graphviz version 8.0.3 (20230416.2022)
 -->
<!-- Title: G Pages: 1 -->
<svg width="640pt" height="328pt"
 viewBox="0.00 0.00 720.00 368.81" xmlns="http://www.w3.org/2000/svg" xmlns:xlink="http://www.w3.org/1999/xlink">
<g id="graph0" class="graph" transform="scale(0.501961 0.501961) rotate(0) translate(4 649.09)">
<title>G</title>
<polygon fill="white" stroke="none" points="-4,4 -4,-649.09 1271,-649.09 1271,4 -4,4"/>
<text text-anchor="middle" x="633.5" y="-612.29" font-family="Arial" font-size="36.00" fill="blue">Reaction Path Analysis</text>
<!-- R42 -->
<g id="node1" class="node">
<title>R42</title>
<g id="a_node1"><a xlink:href="42.svg" xlink:title="R42">
<polygon fill="azure" stroke="none" points="676,-312.59 600,-312.59 600,-265.59 676,-265.59 676,-312.59"/>
<text text-anchor="middle" x="638" y="-280.59" font-family="Times New Roman,serif" font-size="35.00">R42</text>
</a>
</g>
</g>
<!-- R13 -->
<g id="node2" class="node">
<title>R13</title>
<g id="a_node2"><a xlink:href="13.svg" xlink:title="R13">
<polygon fill="azure" stroke="none" points="1267,-345.59 1191,-345.59 1191,-298.59 1267,-298.59 1267,-345.59"/>
<text text-anchor="middle" x="1229" y="-313.59" font-family="Times New Roman,serif" font-size="35.00">R13</text>
</a>
</g>
</g>
<!-- R42&#45;&gt;R13 -->
<g id="edge1" class="edge">
<title>R42&#45;&gt;R13</title>
<path fill="none" stroke="black" stroke-width="6" d="M675.95,-295.7C686.59,-297.39 698.23,-299.02 709,-300.09 875.96,-316.7 1074.36,-320.79 1170.32,-321.78"/>
<polygon fill="black" stroke="black" stroke-width="6" points="1164.99,-332.29 1185.09,-321.97 1165.18,-311.29 1164.99,-332.29"/>
<text text-anchor="middle" x="933.5" y="-330.09" font-family="Times New Roman,serif" font-size="30.00"> &#160;&#160;47 &#160;&#160;100% &#160;&#160;0.125 mol/s &#160;&#160;&#160;3.41E&#45;06</text>
</g>
<!-- R2 -->
<g id="node3" class="node">
<title>R2</title>
<g id="a_node3"><a xlink:href="2.svg" xlink:title="R2">
<polygon fill="azure" stroke="none" points="1258,-280.59 1200,-280.59 1200,-233.59 1258,-233.59 1258,-280.59"/>
<text text-anchor="middle" x="1229" y="-248.59" font-family="Times New Roman,serif" font-size="35.00">R2</text>
</a>
</g>
</g>
<!-- R42&#45;&gt;R2 -->
<g id="edge2" class="edge">
<title>R42&#45;&gt;R2</title>
<path fill="none" stroke="black" stroke-width="6" d="M675.94,-275.33C686.47,-271.99 698.06,-268.88 709,-267.09 879.96,-239.17 1086.78,-247.54 1179.23,-253.45"/>
<polygon fill="black" stroke="black" stroke-width="6" points="1173.51,-263.99 1194.18,-254.87 1174.94,-243.04 1173.51,-263.99"/>
<text text-anchor="middle" x="933.5" y="-276.09" font-family="Times New Roman,serif" font-size="30.00"> &#160;&#160;47 &#160;&#160;100% &#160;&#160;0.125 mol/s &#160;&#160;&#160;3.41E&#45;06</text>
</g>
<!-- R0 -->
<g id="node4" class="node">
<title>R0</title>
<g id="a_node4"><a xlink:href="0.svg" xlink:title="R0">
<polygon fill="azure" stroke="none" points="76,-540.59 18,-540.59 18,-493.59 76,-493.59 76,-540.59"/>
<text text-anchor="middle" x="47" y="-508.59" font-family="Times New Roman,serif" font-size="35.00">R0</text>
</a>
</g>
</g>
<!-- R0&#45;&gt;R42 -->
<g id="edge3" class="edge">
<title>R0&#45;&gt;R42</title>
<path fill="none" stroke="black" d="M75.7,-525.8C161.8,-550.99 428.24,-614.63 582,-491.09 608.07,-470.15 625.08,-374.96 632.58,-323.07"/>
<polygon fill="black" stroke="black" points="636.16,-323.79 634.08,-313.4 629.22,-322.81 636.16,-323.79"/>
<text text-anchor="middle" x="342.5" y="-573.09" font-family="Times New Roman,serif" font-size="30.00"> &#160;&#160;114 &#160;&#160;0% &#160;&#160;4.04e&#45;07 mol/s &#160;&#160;&#160;9.48E&#45;01</text>
</g>
<!-- R27 -->
<g id="node5" class="node">
<title>R27</title>
<g id="a_node5"><a xlink:href="27.svg" xlink:title="R27">
<polygon fill="azure" stroke="none" points="85,-475.59 9,-475.59 9,-428.59 85,-428.59 85,-475.59"/>
<text text-anchor="middle" x="47" y="-443.59" font-family="Times New Roman,serif" font-size="35.00">R27</text>
</a>
</g>
</g>
<!-- R27&#45;&gt;R42 -->
<g id="edge4" class="edge">
<title>R27&#45;&gt;R42</title>
<path fill="none" stroke="black" d="M84.73,-452.87C198.82,-454.97 541.79,-458.8 582,-430.09 616.29,-405.61 629.21,-356.47 634.07,-323.17"/>
<polygon fill="black" stroke="black" points="637.63,-323.91 635.43,-313.54 630.68,-323.02 637.63,-323.91"/>
<text text-anchor="middle" x="342.5" y="-463.09" font-family="Times New Roman,serif" font-size="30.00"> &#160;&#160;114 &#160;&#160;0% &#160;&#160;4.04e&#45;07 mol/s &#160;&#160;&#160;9.48E&#45;01</text>
</g>
<!-- R133 -->
<g id="node6" class="node">
<title>R133</title>
<g id="a_node6"><a xlink:href="133.svg" xlink:title="R133">
<polygon fill="azure" stroke="none" points="94,-410.59 0,-410.59 0,-363.59 94,-363.59 94,-410.59"/>
<text text-anchor="middle" x="47" y="-378.59" font-family="Times New Roman,serif" font-size="35.00">R133</text>
</a>
</g>
</g>
<!-- R133&#45;&gt;R42 -->
<g id="edge5" class="edge">
<title>R133&#45;&gt;R42</title>
<path fill="none" stroke="black" d="M93.91,-389.46C207.34,-394.55 497.74,-402.81 582,-359.09 597.98,-350.8 610.81,-335.56 620.04,-321.42"/>
<polygon fill="black" stroke="black" points="623.35,-323.72 625.58,-313.36 617.38,-320.06 623.35,-323.72"/>
<text text-anchor="middle" x="342.5" y="-402.09" font-family="Times New Roman,serif" font-size="30.00"> &#160;&#160;185 &#160;&#160;0% &#160;&#160;0.00241 mol/s &#160;&#160;&#160;1.77E&#45;04</text>
</g>
<!-- R192 -->
<g id="node7" class="node">
<title>R192</title>
<g id="a_node7"><a xlink:href="192.svg" xlink:title="R192">
<polygon fill="azure" stroke="none" points="94,-345.59 0,-345.59 0,-298.59 94,-298.59 94,-345.59"/>
<text text-anchor="middle" x="47" y="-313.59" font-family="Times New Roman,serif" font-size="35.00">R192</text>
</a>
</g>
</g>
<!-- R192&#45;&gt;R42 -->
<g id="edge6" class="edge">
<title>R192&#45;&gt;R42</title>
<path fill="none" stroke="black" stroke-width="5" d="M93.91,-322.61C183.34,-323.1 387.54,-321.73 579.52,-299.74"/>
<polygon fill="black" stroke="black" stroke-width="5" points="575.32,-308.34 594.15,-297.29 573.25,-290.96 575.32,-308.34"/>
<text text-anchor="middle" x="342.5" y="-331.09" font-family="Times New Roman,serif" font-size="30.00"> &#160;&#160;253 &#160;&#160;84% &#160;&#160;2.63 mol/s &#160;&#160;&#160;1.63E&#45;07</text>
</g>
<!-- R225 -->
<g id="node8" class="node">
<title>R225</title>
<g id="a_node8"><a xlink:href="225.svg" xlink:title="R225">
<polygon fill="azure" stroke="none" points="94,-280.59 0,-280.59 0,-233.59 94,-233.59 94,-280.59"/>
<text text-anchor="middle" x="47" y="-248.59" font-family="Times New Roman,serif" font-size="35.00">R225</text>
</a>
</g>
</g>
<!-- R225&#45;&gt;R42 -->
<g id="edge7" class="edge">
<title>R225&#45;&gt;R42</title>
<path fill="none" stroke="black" d="M93.96,-252.45C187.15,-244.24 404.55,-231.19 582,-267.09 584.65,-267.63 587.33,-268.29 590.01,-269.03"/>
<polygon fill="black" stroke="black" points="588.69,-272.61 599.28,-272.31 590.82,-265.94 588.69,-272.61"/>
<text text-anchor="middle" x="342.5" y="-276.09" font-family="Times New Roman,serif" font-size="30.00"> &#160;&#160;295 &#160;&#160;0% &#160;&#160;0.000459 mol/s &#160;&#160;&#160;9.30E&#45;04</text>
</g>
<!-- R256 -->
<g id="node9" class="node">
<title>R256</title>
<g id="a_node9"><a xlink:href="256.svg" xlink:title="R256">
<polygon fill="azure" stroke="none" points="94,-215.59 0,-215.59 0,-168.59 94,-168.59 94,-215.59"/>
<text text-anchor="middle" x="47" y="-183.59" font-family="Times New Roman,serif" font-size="35.00">R256</text>
</a>
</g>
</g>
<!-- R256&#45;&gt;R42 -->
<g id="edge8" class="edge">
<title>R256&#45;&gt;R42</title>
<path fill="none" stroke="black" d="M93.65,-188.02C207.15,-178.72 498.95,-160.09 582,-206.09 601.43,-216.86 615.21,-237.73 624.12,-255.85"/>
<polygon fill="black" stroke="black" points="621.34,-257.19 628.69,-264.82 627.71,-254.27 621.34,-257.19"/>
<text text-anchor="middle" x="342.5" y="-215.09" font-family="Times New Roman,serif" font-size="30.00"> &#160;&#160;347 &#160;&#160;12% &#160;&#160;0.373 mol/s &#160;&#160;&#160;1.15E&#45;06</text>
</g>
<!-- R294 -->
<g id="node10" class="node">
<title>R294</title>
<g id="a_node10"><a xlink:href="294.svg" xlink:title="R294">
<polygon fill="azure" stroke="none" points="94,-150.59 0,-150.59 0,-103.59 94,-103.59 94,-150.59"/>
<text text-anchor="middle" x="47" y="-118.59" font-family="Times New Roman,serif" font-size="35.00">R294</text>
</a>
</g>
</g>
<!-- R294&#45;&gt;R42 -->
<g id="edge9" class="edge">
<title>R294&#45;&gt;R42</title>
<path fill="none" stroke="black" d="M93.93,-121.75C208.77,-109.37 504.69,-83.8 582,-139.09 618.95,-165.52 631.13,-219.53 635.11,-255.01"/>
<polygon fill="black" stroke="black" points="631.71,-255.19 636.14,-264.82 638.68,-254.53 631.71,-255.19"/>
<text text-anchor="middle" x="342.5" y="-148.09" font-family="Times New Roman,serif" font-size="30.00"> &#160;&#160;398 &#160;&#160;0% &#160;&#160;0.0115 mol/s &#160;&#160;&#160;3.71E&#45;05</text>
</g>
<!-- R295 -->
<g id="node11" class="node">
<title>R295</title>
<g id="a_node11"><a xlink:href="295.svg" xlink:title="R295">
<polygon fill="azure" stroke="none" points="94,-85.59 0,-85.59 0,-38.59 94,-38.59 94,-85.59"/>
<text text-anchor="middle" x="47" y="-53.59" font-family="Times New Roman,serif" font-size="35.00">R295</text>
</a>
</g>
</g>
<!-- R295&#45;&gt;R42 -->
<g id="edge10" class="edge">
<title>R295&#45;&gt;R42</title>
<path fill="none" stroke="black" d="M93.72,-45.84C194.25,-13.29 437.05,47.42 582,-67.09 611.22,-90.18 627.15,-198.62 633.58,-254.94"/>
<polygon fill="black" stroke="black" points="630.2,-255.24 634.77,-264.8 637.15,-254.47 630.2,-255.24"/>
<text text-anchor="middle" x="342.5" y="-76.09" font-family="Times New Roman,serif" font-size="30.00"> &#160;&#160;399 &#160;&#160;2% &#160;&#160;0.0802 mol/s &#160;&#160;&#160;5.33E&#45;06</text>
</g>
</g>
</svg>
