<?xml version="1.0" encoding="UTF-8" standalone="no"?>
<!DOCTYPE svg PUBLIC "-//W3C//DTD SVG 1.1//EN"
 "http://www.w3.org/Graphics/SVG/1.1/DTD/svg11.dtd">
<!-- Generated by graphviz version 8.0.3 (20230416.2022)
 -->
<!-- Title: G Pages: 1 -->
<svg width="640pt" height="445pt"
 viewBox="0.00 0.00 720.00 500.98" xmlns="http://www.w3.org/2000/svg" xmlns:xlink="http://www.w3.org/1999/xlink">
<g id="graph0" class="graph" transform="scale(0.487062 0.487062) rotate(0) translate(4 910.3)">
<title>G</title>
<polygon fill="white" stroke="none" points="-4,4 -4,-910.3 1310,-910.3 1310,4 -4,4"/>
<text text-anchor="middle" x="653" y="-873.5" font-family="Arial" font-size="36.00" fill="blue">Reaction Path Analysis</text>
<!-- R43 -->
<g id="node1" class="node">
<title>R43</title>
<g id="a_node1"><a xlink:href="43.svg" xlink:title="R43">
<polygon fill="azure" stroke="none" points="691,-440.8 615,-440.8 615,-393.8 691,-393.8 691,-440.8"/>
<text text-anchor="middle" x="653" y="-408.8" font-family="Times New Roman,serif" font-size="35.00">R43</text>
</a>
</g>
</g>
<!-- R2 -->
<g id="node2" class="node">
<title>R2</title>
<g id="a_node2"><a xlink:href="2.svg" xlink:title="R2">
<polygon fill="azure" stroke="none" points="1288,-621.8 1230,-621.8 1230,-574.8 1288,-574.8 1288,-621.8"/>
<text text-anchor="middle" x="1259" y="-589.8" font-family="Times New Roman,serif" font-size="35.00">R2</text>
</a>
</g>
</g>
<!-- R43&#45;&gt;R2 -->
<g id="edge1" class="edge">
<title>R43&#45;&gt;R2</title>
<path fill="none" stroke="black" d="M654.79,-440.59C657.35,-475.27 667.74,-539.69 709,-570.3 866.01,-686.79 1123.28,-634.77 1219.82,-609.34"/>
<polygon fill="black" stroke="black" points="1220.5,-612.51 1229.25,-606.53 1218.68,-605.75 1220.5,-612.51"/>
<text text-anchor="middle" x="956" y="-651.3" font-family="Times New Roman,serif" font-size="30.00"> &#160;&#160;48 &#160;&#160;0% &#160;&#160;7.84e&#45;06 mol/s &#160;&#160;&#160;4.92E&#45;02</text>
</g>
<!-- R14 -->
<g id="node3" class="node">
<title>R14</title>
<g id="a_node3"><a xlink:href="14.svg" xlink:title="R14">
<polygon fill="azure" stroke="none" points="1297,-556.8 1221,-556.8 1221,-509.8 1297,-509.8 1297,-556.8"/>
<text text-anchor="middle" x="1259" y="-524.8" font-family="Times New Roman,serif" font-size="35.00">R14</text>
</a>
</g>
</g>
<!-- R43&#45;&gt;R14 -->
<g id="edge2" class="edge">
<title>R43&#45;&gt;R14</title>
<path fill="none" stroke="black" d="M660.76,-440.38C668.53,-462.32 683.59,-494.14 709,-509.3 751.45,-534.62 1084.97,-534.67 1210.47,-533.77"/>
<polygon fill="black" stroke="black" points="1210.27,-537.27 1220.25,-533.69 1210.22,-530.27 1210.27,-537.27"/>
<text text-anchor="middle" x="956" y="-542.3" font-family="Times New Roman,serif" font-size="30.00"> &#160;&#160;48 &#160;&#160;0% &#160;&#160;7.84e&#45;06 mol/s &#160;&#160;&#160;4.92E&#45;02</text>
</g>
<!-- R96 -->
<g id="node7" class="node">
<title>R96</title>
<g id="a_node7"><a xlink:href="96.svg" xlink:title="R96">
<polygon fill="azure" stroke="none" points="1297,-491.8 1221,-491.8 1221,-444.8 1297,-444.8 1297,-491.8"/>
<text text-anchor="middle" x="1259" y="-459.8" font-family="Times New Roman,serif" font-size="35.00">R96</text>
</a>
</g>
</g>
<!-- R43&#45;&gt;R96 -->
<g id="edge6" class="edge">
<title>R43&#45;&gt;R96</title>
<path fill="none" stroke="black" d="M685.81,-440.79C693.09,-445.05 701.05,-448.9 709,-451.3 802.01,-479.29 1094.64,-473.5 1210.29,-469.96"/>
<polygon fill="black" stroke="black" points="1210.36,-473.43 1220.24,-469.62 1210.14,-466.43 1210.36,-473.43"/>
<text text-anchor="middle" x="956" y="-481.3" font-family="Times New Roman,serif" font-size="30.00"> &#160;&#160;121 &#160;&#160;0% &#160;&#160;4.25e&#45;07 mol/s &#160;&#160;&#160;9.94E&#45;01</text>
</g>
<!-- R53 -->
<g id="node17" class="node">
<title>R53</title>
<g id="a_node17"><a xlink:href="53.svg" xlink:title="R53">
<polygon fill="azure" stroke="none" points="1297,-407.8 1221,-407.8 1221,-360.8 1297,-360.8 1297,-407.8"/>
<text text-anchor="middle" x="1259" y="-375.8" font-family="Times New Roman,serif" font-size="35.00">R53</text>
</a>
</g>
</g>
<!-- R43&#45;&gt;R53 -->
<g id="edge16" class="edge">
<title>R43&#45;&gt;R53</title>
<path fill="none" stroke="black" d="M690.78,-417.81C779.32,-418.63 1011.2,-418.18 1203,-395.3 1205.4,-395.01 1207.84,-394.68 1210.31,-394.31"/>
<polygon fill="black" stroke="black" points="1210.86,-397.6 1220.15,-392.5 1209.71,-390.69 1210.86,-397.6"/>
<text text-anchor="middle" x="956" y="-426.3" font-family="Times New Roman,serif" font-size="30.00"> &#160;&#160;438 &#160;&#160;13% &#160;&#160;0.000393 mol/s &#160;&#160;&#160;7.15E&#45;01</text>
</g>
<!-- R43&#45;&gt;R53 -->
<g id="edge18" class="edge">
<title>R43&#45;&gt;R53</title>
<path fill="none" stroke="black" stroke-width="2" d="M668.5,-394.07C678.17,-380.89 692.18,-365.61 709,-358.3 759.33,-336.41 1149.44,-346.28 1203,-358.3 1205.66,-358.89 1208.34,-359.64 1211.02,-360.49"/>
<polygon fill="black" stroke="black" stroke-width="2" points="1208.63,-363.07 1219.22,-363.23 1211.04,-356.5 1208.63,-363.07"/>
<text text-anchor="middle" x="956" y="-367.3" font-family="Times New Roman,serif" font-size="30.00"> &#160;&#160;441 &#160;&#160;32% &#160;&#160;0.000987 mol/s &#160;&#160;&#160;2.85E&#45;01</text>
</g>
<!-- R117 -->
<g id="node18" class="node">
<title>R117</title>
<g id="a_node18"><a xlink:href="117.svg" xlink:title="R117">
<polygon fill="azure" stroke="none" points="1306,-300.8 1212,-300.8 1212,-253.8 1306,-253.8 1306,-300.8"/>
<text text-anchor="middle" x="1259" y="-268.8" font-family="Times New Roman,serif" font-size="35.00">R117</text>
</a>
</g>
</g>
<!-- R43&#45;&gt;R117 -->
<g id="edge17" class="edge">
<title>R43&#45;&gt;R117</title>
<path fill="none" stroke="black" d="M658.56,-393.94C664.97,-368.11 679.33,-327.61 709,-308.3 752.95,-279.69 1112.86,-286.89 1201.29,-283.13"/>
<polygon fill="black" stroke="black" points="1201.32,-286.58 1211.1,-282.51 1200.92,-279.59 1201.32,-286.58"/>
<text text-anchor="middle" x="956" y="-317.3" font-family="Times New Roman,serif" font-size="30.00"> &#160;&#160;439 &#160;&#160;14% &#160;&#160;0.000423 mol/s &#160;&#160;&#160;7.39E&#45;01</text>
</g>
<!-- R43&#45;&gt;R117 -->
<g id="edge19" class="edge">
<title>R43&#45;&gt;R117</title>
<path fill="none" stroke="black" stroke-width="2" d="M653.57,-393.9C654.29,-355.65 662,-280.55 709,-246.3 886.43,-116.98 990.63,-190.57 1203,-246.3 1206.18,-247.13 1209.38,-248.2 1212.54,-249.43"/>
<polygon fill="black" stroke="black" stroke-width="2" points="1209.88,-251.97 1220.44,-252.84 1212.73,-245.58 1209.88,-251.97"/>
<text text-anchor="middle" x="956" y="-255.3" font-family="Times New Roman,serif" font-size="30.00"> &#160;&#160;648 &#160;&#160;39% &#160;&#160;0.0012 mol/s &#160;&#160;&#160;2.61E&#45;01</text>
</g>
<!-- R0 -->
<g id="node4" class="node">
<title>R0</title>
<g id="a_node4"><a xlink:href="0.svg" xlink:title="R0">
<polygon fill="azure" stroke="none" points="76,-798.8 18,-798.8 18,-751.8 76,-751.8 76,-798.8"/>
<text text-anchor="middle" x="47" y="-766.8" font-family="Times New Roman,serif" font-size="35.00">R0</text>
</a>
</g>
</g>
<!-- R0&#45;&gt;R43 -->
<g id="edge3" class="edge">
<title>R0&#45;&gt;R43</title>
<path fill="none" stroke="black" d="M75.98,-784.38C163.54,-810.87 435.38,-878.3 586,-748.3 630.51,-709.88 645.8,-528.26 650.32,-451.59"/>
<polygon fill="black" stroke="black" points="653.87,-451.82 650.94,-441.64 646.88,-451.43 653.87,-451.82"/>
<text text-anchor="middle" x="350" y="-834.3" font-family="Times New Roman,serif" font-size="30.00"> &#160;&#160;118 &#160;&#160;0% &#160;&#160;4.14e&#45;07 mol/s &#160;&#160;&#160;9.68E&#45;01</text>
</g>
<!-- R41 -->
<g id="node5" class="node">
<title>R41</title>
<g id="a_node5"><a xlink:href="41.svg" xlink:title="R41">
<polygon fill="azure" stroke="none" points="85,-733.8 9,-733.8 9,-686.8 85,-686.8 85,-733.8"/>
<text text-anchor="middle" x="47" y="-701.8" font-family="Times New Roman,serif" font-size="35.00">R41</text>
</a>
</g>
</g>
<!-- R41&#45;&gt;R43 -->
<g id="edge4" class="edge">
<title>R41&#45;&gt;R43</title>
<path fill="none" stroke="black" d="M84.78,-710.94C199.83,-712.62 547.51,-714.99 586,-683.3 621.6,-653.98 641.13,-516.53 648.51,-451.52"/>
<polygon fill="black" stroke="black" points="652.1,-451.96 649.71,-441.64 645.14,-451.2 652.1,-451.96"/>
<text text-anchor="middle" x="350" y="-720.3" font-family="Times New Roman,serif" font-size="30.00"> &#160;&#160;118 &#160;&#160;0% &#160;&#160;4.14e&#45;07 mol/s &#160;&#160;&#160;9.68E&#45;01</text>
</g>
<!-- R95 -->
<g id="node6" class="node">
<title>R95</title>
<g id="a_node6"><a xlink:href="95.svg" xlink:title="R95">
<polygon fill="azure" stroke="none" points="85,-668.8 9,-668.8 9,-621.8 85,-621.8 85,-668.8"/>
<text text-anchor="middle" x="47" y="-636.8" font-family="Times New Roman,serif" font-size="35.00">R95</text>
</a>
</g>
</g>
<!-- R95&#45;&gt;R43 -->
<g id="edge5" class="edge">
<title>R95&#45;&gt;R43</title>
<path fill="none" stroke="black" d="M84.68,-645.82C199.44,-647.13 546.36,-648.54 586,-618.3 637.68,-578.86 649.45,-497.87 651.79,-451.64"/>
<polygon fill="black" stroke="black" points="655.32,-451.81 652.2,-441.68 648.33,-451.54 655.32,-451.81"/>
<text text-anchor="middle" x="350" y="-655.3" font-family="Times New Roman,serif" font-size="30.00"> &#160;&#160;120 &#160;&#160;0% &#160;&#160;9.65e&#45;07 mol/s &#160;&#160;&#160;2.35E&#45;01</text>
</g>
<!-- R134 -->
<g id="node8" class="node">
<title>R134</title>
<g id="a_node8"><a xlink:href="134.svg" xlink:title="R134">
<polygon fill="azure" stroke="none" points="94,-603.8 0,-603.8 0,-556.8 94,-556.8 94,-603.8"/>
<text text-anchor="middle" x="47" y="-571.8" font-family="Times New Roman,serif" font-size="35.00">R134</text>
</a>
</g>
</g>
<!-- R134&#45;&gt;R43 -->
<g id="edge7" class="edge">
<title>R134&#45;&gt;R43</title>
<path fill="none" stroke="black" d="M93.82,-580.92C216.44,-582.23 545.54,-583.15 586,-556.3 621.69,-532.6 638.57,-484.05 646.19,-451.08"/>
<polygon fill="black" stroke="black" points="649.78,-452.06 648.44,-441.55 642.93,-450.6 649.78,-452.06"/>
<text text-anchor="middle" x="350" y="-590.3" font-family="Times New Roman,serif" font-size="30.00"> &#160;&#160;186 &#160;&#160;0% &#160;&#160;3.32e&#45;06 mol/s &#160;&#160;&#160;1.02E&#45;01</text>
</g>
<!-- R135 -->
<g id="node9" class="node">
<title>R135</title>
<g id="a_node9"><a xlink:href="135.svg" xlink:title="R135">
<polygon fill="azure" stroke="none" points="94,-538.8 0,-538.8 0,-491.8 94,-491.8 94,-538.8"/>
<text text-anchor="middle" x="47" y="-506.8" font-family="Times New Roman,serif" font-size="35.00">R135</text>
</a>
</g>
</g>
<!-- R135&#45;&gt;R43 -->
<g id="edge8" class="edge">
<title>R135&#45;&gt;R43</title>
<path fill="none" stroke="black" d="M93.59,-517.08C207.01,-520.86 498.99,-526.28 586,-486.3 603.59,-478.22 618.86,-463.15 630.27,-449.16"/>
<polygon fill="black" stroke="black" points="633.51,-451.7 636.87,-441.65 627.97,-447.41 633.51,-451.7"/>
<text text-anchor="middle" x="350" y="-528.3" font-family="Times New Roman,serif" font-size="30.00"> &#160;&#160;187 &#160;&#160;0% &#160;&#160;0.00729 mol/s &#160;&#160;&#160;5.87E&#45;05</text>
</g>
<!-- R136 -->
<g id="node10" class="node">
<title>R136</title>
<g id="a_node10"><a xlink:href="136.svg" xlink:title="R136">
<polygon fill="azure" stroke="none" points="94,-473.8 0,-473.8 0,-426.8 94,-426.8 94,-473.8"/>
<text text-anchor="middle" x="47" y="-441.8" font-family="Times New Roman,serif" font-size="35.00">R136</text>
</a>
</g>
</g>
<!-- R136&#45;&gt;R43 -->
<g id="edge9" class="edge">
<title>R136&#45;&gt;R43</title>
<path fill="none" stroke="black" d="M93.84,-450.34C186.88,-450 404.45,-447.07 586,-428.3 591.92,-427.69 598.12,-426.88 604.24,-425.98"/>
<polygon fill="black" stroke="black" points="604.77,-429.28 614.11,-424.28 603.69,-422.36 604.77,-429.28"/>
<text text-anchor="middle" x="350" y="-458.3" font-family="Times New Roman,serif" font-size="30.00"> &#160;&#160;188 &#160;&#160;0% &#160;&#160;0.0359 mol/s &#160;&#160;&#160;1.19E&#45;05</text>
</g>
<!-- R193 -->
<g id="node11" class="node">
<title>R193</title>
<g id="a_node11"><a xlink:href="193.svg" xlink:title="R193">
<polygon fill="azure" stroke="none" points="94,-408.8 0,-408.8 0,-361.8 94,-361.8 94,-408.8"/>
<text text-anchor="middle" x="47" y="-376.8" font-family="Times New Roman,serif" font-size="35.00">R193</text>
</a>
</g>
</g>
<!-- R193&#45;&gt;R43 -->
<g id="edge10" class="edge">
<title>R193&#45;&gt;R43</title>
<path fill="none" stroke="black" d="M93.78,-381.53C187.16,-374.85 406,-364.37 586,-395.3 592.18,-396.36 598.56,-397.89 604.82,-399.67"/>
<polygon fill="black" stroke="black" points="603.57,-403.25 614.16,-402.83 605.62,-396.56 603.57,-403.25"/>
<text text-anchor="middle" x="350" y="-404.3" font-family="Times New Roman,serif" font-size="30.00"> &#160;&#160;254 &#160;&#160;0% &#160;&#160;1.83e&#45;05 mol/s &#160;&#160;&#160;2.23E&#45;02</text>
</g>
<!-- R194 -->
<g id="node12" class="node">
<title>R194</title>
<g id="a_node12"><a xlink:href="194.svg" xlink:title="R194">
<polygon fill="azure" stroke="none" points="94,-343.8 0,-343.8 0,-296.8 94,-296.8 94,-343.8"/>
<text text-anchor="middle" x="47" y="-311.8" font-family="Times New Roman,serif" font-size="35.00">R194</text>
</a>
</g>
</g>
<!-- R194&#45;&gt;R43 -->
<g id="edge11" class="edge">
<title>R194&#45;&gt;R43</title>
<path fill="none" stroke="black" d="M93.74,-316.87C207.5,-309.11 500.21,-293.96 586,-336.3 607.06,-346.69 623.69,-367.28 634.99,-385.1"/>
<polygon fill="black" stroke="black" points="632.26,-386.34 640.41,-393.1 638.25,-382.72 632.26,-386.34"/>
<text text-anchor="middle" x="350" y="-345.3" font-family="Times New Roman,serif" font-size="30.00"> &#160;&#160;255 &#160;&#160;0% &#160;&#160;2.07e&#45;05 mol/s &#160;&#160;&#160;1.98E&#45;02</text>
</g>
<!-- R195 -->
<g id="node13" class="node">
<title>R195</title>
<g id="a_node13"><a xlink:href="195.svg" xlink:title="R195">
<polygon fill="azure" stroke="none" points="94,-278.8 0,-278.8 0,-231.8 94,-231.8 94,-278.8"/>
<text text-anchor="middle" x="47" y="-246.8" font-family="Times New Roman,serif" font-size="35.00">R195</text>
</a>
</g>
</g>
<!-- R195&#45;&gt;R43 -->
<g id="edge12" class="edge">
<title>R195&#45;&gt;R43</title>
<path fill="none" stroke="black" d="M93.64,-250.56C208.54,-239.56 506.23,-217.08 586,-270.3 624.01,-295.65 640.38,-348.49 647.26,-383.42"/>
<polygon fill="black" stroke="black" points="643.96,-383.85 649.17,-393.07 650.85,-382.61 643.96,-383.85"/>
<text text-anchor="middle" x="350" y="-279.3" font-family="Times New Roman,serif" font-size="30.00"> &#160;&#160;256 &#160;&#160;0% &#160;&#160;0.422 mol/s &#160;&#160;&#160;1.01E&#45;06</text>
</g>
<!-- R257 -->
<g id="node14" class="node">
<title>R257</title>
<g id="a_node14"><a xlink:href="257.svg" xlink:title="R257">
<polygon fill="azure" stroke="none" points="94,-213.8 0,-213.8 0,-166.8 94,-166.8 94,-213.8"/>
<text text-anchor="middle" x="47" y="-181.8" font-family="Times New Roman,serif" font-size="35.00">R257</text>
</a>
</g>
</g>
<!-- R257&#45;&gt;R43 -->
<g id="edge13" class="edge">
<title>R257&#45;&gt;R43</title>
<path fill="none" stroke="black" d="M93.6,-184.46C209.1,-170.68 509.4,-141.46 586,-199.3 615.52,-221.59 637.15,-327.75 646.65,-383.28"/>
<polygon fill="black" stroke="black" points="643.34,-383.7 648.44,-392.99 650.24,-382.55 643.34,-383.7"/>
<text text-anchor="middle" x="350" y="-208.3" font-family="Times New Roman,serif" font-size="30.00"> &#160;&#160;348 &#160;&#160;0% &#160;&#160;1.31 mol/s &#160;&#160;&#160;3.26E&#45;07</text>
</g>
<!-- R209 -->
<g id="node15" class="node">
<title>R209</title>
<g id="a_node15"><a xlink:href="209.svg" xlink:title="R209">
<polygon fill="azure" stroke="none" points="94,-148.8 0,-148.8 0,-101.8 94,-101.8 94,-148.8"/>
<text text-anchor="middle" x="47" y="-116.8" font-family="Times New Roman,serif" font-size="35.00">R209</text>
</a>
</g>
</g>
<!-- R209&#45;&gt;R43 -->
<g id="edge14" class="edge">
<title>R209&#45;&gt;R43</title>
<path fill="none" stroke="black" stroke-width="5" d="M93.65,-122.28C216.62,-114.59 548.09,-96.93 586,-127.3 623.9,-157.66 641.74,-299.96 648.53,-373.32"/>
<polygon fill="black" stroke="black" stroke-width="5" points="639.89,-368.9 650.33,-388.08 657.32,-367.4 639.89,-368.9"/>
<text text-anchor="middle" x="350" y="-136.3" font-family="Times New Roman,serif" font-size="30.00"> &#160;&#160;349 &#160;&#160;99% &#160;&#160;3090.0 mol/s &#160;&#160;&#160;1.38E&#45;10</text>
</g>
<!-- R258 -->
<g id="node16" class="node">
<title>R258</title>
<g id="a_node16"><a xlink:href="258.svg" xlink:title="R258">
<polygon fill="azure" stroke="none" points="94,-83.8 0,-83.8 0,-36.8 94,-36.8 94,-83.8"/>
<text text-anchor="middle" x="47" y="-51.8" font-family="Times New Roman,serif" font-size="35.00">R258</text>
</a>
</g>
</g>
<!-- R258&#45;&gt;R43 -->
<g id="edge15" class="edge">
<title>R258&#45;&gt;R43</title>
<path fill="none" stroke="black" d="M93.87,-44.33C195.83,-12.03 443.51,48.22 586,-72.3 633.04,-112.08 646.94,-304 650.71,-383.1"/>
<polygon fill="black" stroke="black" points="647.25,-383.09 651.2,-392.93 654.24,-382.78 647.25,-383.09"/>
<text text-anchor="middle" x="350" y="-81.3" font-family="Times New Roman,serif" font-size="30.00"> &#160;&#160;350 &#160;&#160;0% &#160;&#160;0.597 mol/s &#160;&#160;&#160;7.16E&#45;07</text>
</g>
</g>
</svg>
