<?xml version="1.0" encoding="UTF-8" standalone="no"?>
<!DOCTYPE svg PUBLIC "-//W3C//DTD SVG 1.1//EN"
 "http://www.w3.org/Graphics/SVG/1.1/DTD/svg11.dtd">
<!-- Generated by graphviz version 8.0.3 (20230416.2022)
 -->
<!-- Title: G Pages: 1 -->
<svg width="640pt" height="375pt"
 viewBox="0.00 0.00 720.00 422.20" xmlns="http://www.w3.org/2000/svg" xmlns:xlink="http://www.w3.org/1999/xlink">
<g id="graph0" class="graph" transform="scale(0.501961 0.501961) rotate(0) translate(4 743.64)">
<title>G</title>
<polygon fill="white" stroke="none" points="-4,4 -4,-743.64 1271,-743.64 1271,4 -4,4"/>
<text text-anchor="middle" x="633.5" y="-706.84" font-family="Arial" font-size="36.00" fill="blue">Reaction Path Analysis</text>
<!-- R44 -->
<g id="node1" class="node">
<title>R44</title>
<g id="a_node1"><a xlink:href="44.svg" xlink:title="R44">
<polygon fill="azure" stroke="none" points="676,-354.14 600,-354.14 600,-307.14 676,-307.14 676,-354.14"/>
<text text-anchor="middle" x="638" y="-322.14" font-family="Times New Roman,serif" font-size="35.00">R44</text>
</a>
</g>
</g>
<!-- R2 -->
<g id="node2" class="node">
<title>R2</title>
<g id="a_node2"><a xlink:href="2.svg" xlink:title="R2">
<polygon fill="azure" stroke="none" points="1258,-419.14 1200,-419.14 1200,-372.14 1258,-372.14 1258,-419.14"/>
<text text-anchor="middle" x="1229" y="-387.14" font-family="Times New Roman,serif" font-size="35.00">R2</text>
</a>
</g>
</g>
<!-- R44&#45;&gt;R2 -->
<g id="edge1" class="edge">
<title>R44&#45;&gt;R2</title>
<path fill="none" stroke="black" stroke-width="5" d="M669.41,-353.96C678.05,-359.42 687.77,-364.54 697.5,-367.64 867.76,-421.87 1084.17,-410.05 1179.35,-401.1"/>
<polygon fill="black" stroke="black" stroke-width="5" points="1175.05,-409.72 1194.07,-399.01 1173.3,-392.31 1175.05,-409.72"/>
<text text-anchor="middle" x="933.5" y="-417.64" font-family="Times New Roman,serif" font-size="30.00"> &#160;&#160;49 &#160;&#160;97% &#160;&#160;1.9e&#45;05 mol/s &#160;&#160;&#160;2.15E&#45;02</text>
</g>
<!-- R14 -->
<g id="node3" class="node">
<title>R14</title>
<g id="a_node3"><a xlink:href="14.svg" xlink:title="R14">
<polygon fill="azure" stroke="none" points="1267,-354.14 1191,-354.14 1191,-307.14 1267,-307.14 1267,-354.14"/>
<text text-anchor="middle" x="1229" y="-322.14" font-family="Times New Roman,serif" font-size="35.00">R14</text>
</a>
</g>
</g>
<!-- R44&#45;&gt;R14 -->
<g id="edge2" class="edge">
<title>R44&#45;&gt;R14</title>
<path fill="none" stroke="black" stroke-width="5" d="M675.84,-330.64C775.32,-330.64 1049.92,-330.64 1170.24,-330.64"/>
<polygon fill="black" stroke="black" stroke-width="5" points="1165.17,-339.39 1185.17,-330.64 1165.17,-321.89 1165.17,-339.39"/>
<text text-anchor="middle" x="933.5" y="-339.64" font-family="Times New Roman,serif" font-size="30.00"> &#160;&#160;49 &#160;&#160;97% &#160;&#160;1.9e&#45;05 mol/s &#160;&#160;&#160;2.15E&#45;02</text>
</g>
<!-- R96 -->
<g id="node10" class="node">
<title>R96</title>
<g id="a_node10"><a xlink:href="96.svg" xlink:title="R96">
<polygon fill="azure" stroke="none" points="1267,-289.14 1191,-289.14 1191,-242.14 1267,-242.14 1267,-289.14"/>
<text text-anchor="middle" x="1229" y="-257.14" font-family="Times New Roman,serif" font-size="35.00">R96</text>
</a>
</g>
</g>
<!-- R44&#45;&gt;R96 -->
<g id="edge9" class="edge">
<title>R44&#45;&gt;R96</title>
<path fill="none" stroke="black" d="M669.41,-307.32C678.05,-301.86 687.77,-296.74 697.5,-293.64 868.29,-239.24 1085.52,-251.3 1180.23,-260.27"/>
<polygon fill="black" stroke="black" points="1179.87,-263.85 1190.17,-261.34 1180.56,-256.88 1179.87,-263.85"/>
<text text-anchor="middle" x="933.5" y="-302.64" font-family="Times New Roman,serif" font-size="30.00"> &#160;&#160;797 &#160;&#160;2% &#160;&#160;4.27e&#45;07 mol/s &#160;&#160;&#160;9.97E&#45;01</text>
</g>
<!-- R0 -->
<g id="node4" class="node">
<title>R0</title>
<g id="a_node4"><a xlink:href="0.svg" xlink:title="R0">
<polygon fill="azure" stroke="none" points="76,-633.14 18,-633.14 18,-586.14 76,-586.14 76,-633.14"/>
<text text-anchor="middle" x="47" y="-601.14" font-family="Times New Roman,serif" font-size="35.00">R0</text>
</a>
</g>
</g>
<!-- R0&#45;&gt;R44 -->
<g id="edge3" class="edge">
<title>R0&#45;&gt;R44</title>
<path fill="none" stroke="black" d="M75.98,-618.62C162.92,-644.6 431.54,-710.2 582,-582.64 614.8,-554.84 629.34,-426.93 634.56,-364.76"/>
<polygon fill="black" stroke="black" points="638.11,-365.2 635.43,-354.95 631.14,-364.64 638.11,-365.2"/>
<text text-anchor="middle" x="342.5" y="-667.64" font-family="Times New Roman,serif" font-size="30.00"> &#160;&#160;119 &#160;&#160;0% &#160;&#160;3.95e&#45;07 mol/s &#160;&#160;&#160;9.29E&#45;01</text>
</g>
<!-- R41 -->
<g id="node5" class="node">
<title>R41</title>
<g id="a_node5"><a xlink:href="41.svg" xlink:title="R41">
<polygon fill="azure" stroke="none" points="85,-568.14 9,-568.14 9,-521.14 85,-521.14 85,-568.14"/>
<text text-anchor="middle" x="47" y="-536.14" font-family="Times New Roman,serif" font-size="35.00">R41</text>
</a>
</g>
</g>
<!-- R41&#45;&gt;R44 -->
<g id="edge4" class="edge">
<title>R41&#45;&gt;R44</title>
<path fill="none" stroke="black" d="M84.85,-545.2C199.28,-546.61 543.18,-548.25 582,-517.64 628.23,-481.2 637.03,-407.94 637.92,-364.72"/>
<polygon fill="black" stroke="black" points="641.42,-364.93 637.99,-354.9 634.42,-364.88 641.42,-364.93"/>
<text text-anchor="middle" x="342.5" y="-554.64" font-family="Times New Roman,serif" font-size="30.00"> &#160;&#160;119 &#160;&#160;0% &#160;&#160;3.95e&#45;07 mol/s &#160;&#160;&#160;9.29E&#45;01</text>
</g>
<!-- R137 -->
<g id="node6" class="node">
<title>R137</title>
<g id="a_node6"><a xlink:href="137.svg" xlink:title="R137">
<polygon fill="azure" stroke="none" points="94,-503.14 0,-503.14 0,-456.14 94,-456.14 94,-503.14"/>
<text text-anchor="middle" x="47" y="-471.14" font-family="Times New Roman,serif" font-size="35.00">R137</text>
</a>
</g>
</g>
<!-- R137&#45;&gt;R44 -->
<g id="edge5" class="edge">
<title>R137&#45;&gt;R44</title>
<path fill="none" stroke="black" d="M93.96,-480.31C216.12,-481.72 542.28,-482.85 582,-455.64 612.09,-435.03 625.88,-394.05 632.09,-364.62"/>
<polygon fill="black" stroke="black" points="635.69,-365.46 634.12,-354.98 628.81,-364.15 635.69,-365.46"/>
<text text-anchor="middle" x="342.5" y="-489.64" font-family="Times New Roman,serif" font-size="30.00"> &#160;&#160;189 &#160;&#160;0% &#160;&#160;6.69 mol/s &#160;&#160;&#160;6.39E&#45;08</text>
</g>
<!-- R196 -->
<g id="node7" class="node">
<title>R196</title>
<g id="a_node7"><a xlink:href="196.svg" xlink:title="R196">
<polygon fill="azure" stroke="none" points="94,-438.14 0,-438.14 0,-391.14 94,-391.14 94,-438.14"/>
<text text-anchor="middle" x="47" y="-406.14" font-family="Times New Roman,serif" font-size="35.00">R196</text>
</a>
</g>
</g>
<!-- R196&#45;&gt;R44 -->
<g id="edge6" class="edge">
<title>R196&#45;&gt;R44</title>
<path fill="none" stroke="black" stroke-width="5" d="M93.63,-416.43C206.42,-420.2 495.46,-425.64 582,-386.64 590.98,-382.6 599.27,-376.37 606.55,-369.52"/>
<polygon fill="black" stroke="black" stroke-width="5" points="609.61,-378.77 616.73,-358.13 596.75,-366.91 609.61,-378.77"/>
<text text-anchor="middle" x="342.5" y="-427.64" font-family="Times New Roman,serif" font-size="30.00"> &#160;&#160;257 &#160;&#160;98% &#160;&#160;13000.0 mol/s &#160;&#160;&#160;3.28E&#45;11</text>
</g>
<!-- R259 -->
<g id="node8" class="node">
<title>R259</title>
<g id="a_node8"><a xlink:href="259.svg" xlink:title="R259">
<polygon fill="azure" stroke="none" points="94,-373.14 0,-373.14 0,-326.14 94,-326.14 94,-373.14"/>
<text text-anchor="middle" x="47" y="-341.14" font-family="Times New Roman,serif" font-size="35.00">R259</text>
</a>
</g>
</g>
<!-- R259&#45;&gt;R44 -->
<g id="edge7" class="edge">
<title>R259&#45;&gt;R44</title>
<path fill="none" stroke="black" d="M93.77,-349.83C186.18,-349.91 401.56,-348.66 582,-336.64 584.38,-336.48 586.81,-336.3 589.26,-336.1"/>
<polygon fill="black" stroke="black" points="589.42,-339.51 599.06,-335.1 588.78,-332.53 589.42,-339.51"/>
<text text-anchor="middle" x="342.5" y="-358.64" font-family="Times New Roman,serif" font-size="30.00"> &#160;&#160;351 &#160;&#160;1% &#160;&#160;134.0 mol/s &#160;&#160;&#160;3.20E&#45;09</text>
</g>
<!-- R119 -->
<g id="node9" class="node">
<title>R119</title>
<g id="a_node9"><a xlink:href="119.svg" xlink:title="R119">
<polygon fill="azure" stroke="none" points="94,-298.14 0,-298.14 0,-251.14 94,-251.14 94,-298.14"/>
<text text-anchor="middle" x="47" y="-266.14" font-family="Times New Roman,serif" font-size="35.00">R119</text>
</a>
</g>
</g>
<!-- R119&#45;&gt;R44 -->
<g id="edge8" class="edge">
<title>R119&#45;&gt;R44</title>
<path fill="none" stroke="black" d="M93.89,-279.89C96.97,-280.17 100.03,-280.42 103,-280.64 209.24,-288.53 479.52,-270.57 582,-299.64 585.12,-300.53 588.24,-301.62 591.34,-302.86"/>
<polygon fill="black" stroke="black" points="589.52,-306.33 600.08,-307.26 592.41,-299.95 589.52,-306.33"/>
<text text-anchor="middle" x="342.5" y="-308.64" font-family="Times New Roman,serif" font-size="30.00"> &#160;&#160;649 &#160;&#160;0% &#160;&#160;0.00063 mol/s &#160;&#160;&#160;9.65E&#45;01</text>
</g>
<!-- R119&#45;&gt;R44 -->
<g id="edge13" class="edge">
<title>R119&#45;&gt;R44</title>
<path fill="none" stroke="black" d="M83.56,-251.19C89.81,-248.07 96.43,-245.37 103,-243.64 154.48,-230.13 535.38,-217.96 582,-243.64 602.7,-255.04 616.69,-277.88 625.38,-297.29"/>
<polygon fill="black" stroke="black" points="622.48,-298.46 629.56,-306.34 628.95,-295.77 622.48,-298.46"/>
<text text-anchor="middle" x="342.5" y="-252.64" font-family="Times New Roman,serif" font-size="30.00"> &#160;&#160;902 &#160;&#160;0% &#160;&#160;0.0171 mol/s &#160;&#160;&#160;3.54E&#45;02</text>
</g>
<!-- R184 -->
<g id="node11" class="node">
<title>R184</title>
<g id="a_node11"><a xlink:href="184.svg" xlink:title="R184">
<polygon fill="azure" stroke="none" points="94,-219.14 0,-219.14 0,-172.14 94,-172.14 94,-219.14"/>
<text text-anchor="middle" x="47" y="-187.14" font-family="Times New Roman,serif" font-size="35.00">R184</text>
</a>
</g>
</g>
<!-- R184&#45;&gt;R44 -->
<g id="edge10" class="edge">
<title>R184&#45;&gt;R44</title>
<path fill="none" stroke="black" d="M93.89,-191.16C96.97,-190.95 100.03,-190.78 103,-190.64 156.17,-188.23 538.02,-160.67 582,-190.64 616.7,-214.29 629.51,-263.48 634.24,-296.78"/>
<polygon fill="black" stroke="black" points="630.85,-296.91 635.55,-306.41 637.8,-296.05 630.85,-296.91"/>
<text text-anchor="middle" x="342.5" y="-199.64" font-family="Times New Roman,serif" font-size="30.00"> &#160;&#160;850 &#160;&#160;0% &#160;&#160;0.000327 mol/s &#160;&#160;&#160;1.30E&#45;03</text>
</g>
<!-- R193 -->
<g id="node12" class="node">
<title>R193</title>
<g id="a_node12"><a xlink:href="193.svg" xlink:title="R193">
<polygon fill="azure" stroke="none" points="94,-154.14 0,-154.14 0,-107.14 94,-107.14 94,-154.14"/>
<text text-anchor="middle" x="47" y="-122.14" font-family="Times New Roman,serif" font-size="35.00">R193</text>
</a>
</g>
</g>
<!-- R193&#45;&gt;R44 -->
<g id="edge11" class="edge">
<title>R193&#45;&gt;R44</title>
<path fill="none" stroke="black" d="M93.73,-124.74C208.79,-110.92 506.46,-81.78 582,-139.64 606.91,-158.72 624.18,-247.06 632.1,-296.64"/>
<polygon fill="black" stroke="black" points="628.79,-297.13 633.78,-306.47 635.7,-296.05 628.79,-297.13"/>
<text text-anchor="middle" x="342.5" y="-148.64" font-family="Times New Roman,serif" font-size="30.00"> &#160;&#160;871 &#160;&#160;0% &#160;&#160;7.54e&#45;06 mol/s &#160;&#160;&#160;5.09E&#45;02</text>
</g>
<!-- R208 -->
<g id="node13" class="node">
<title>R208</title>
<g id="a_node13"><a xlink:href="208.svg" xlink:title="R208">
<polygon fill="azure" stroke="none" points="94,-89.14 0,-89.14 0,-42.14 94,-42.14 94,-89.14"/>
<text text-anchor="middle" x="47" y="-57.14" font-family="Times New Roman,serif" font-size="35.00">R208</text>
</a>
</g>
</g>
<!-- R208&#45;&gt;R44 -->
<g id="edge12" class="edge">
<title>R208&#45;&gt;R44</title>
<path fill="none" stroke="black" d="M93.99,-48.68C195.05,-14.67 438.85,49.11 582,-67.64 617.04,-96.22 630.55,-232.33 635.04,-296.73"/>
<polygon fill="black" stroke="black" points="631.61,-296.77 635.76,-306.51 638.59,-296.3 631.61,-296.77"/>
<text text-anchor="middle" x="342.5" y="-76.64" font-family="Times New Roman,serif" font-size="30.00"> &#160;&#160;887 &#160;&#160;0% &#160;&#160;6.69 mol/s &#160;&#160;&#160;6.39E&#45;08</text>
</g>
</g>
</svg>
