<?xml version="1.0" encoding="UTF-8" standalone="no"?>
<!DOCTYPE svg PUBLIC "-//W3C//DTD SVG 1.1//EN"
 "http://www.w3.org/Graphics/SVG/1.1/DTD/svg11.dtd">
<!-- Generated by graphviz version 8.0.3 (20230416.2022)
 -->
<!-- Title: G Pages: 1 -->
<svg width="640pt" height="175pt"
 viewBox="0.00 0.00 720.00 196.75" xmlns="http://www.w3.org/2000/svg" xmlns:xlink="http://www.w3.org/1999/xlink">
<g id="graph0" class="graph" transform="scale(0.490421 0.490421) rotate(0) translate(4 352.61)">
<title>G</title>
<polygon fill="white" stroke="none" points="-4,4 -4,-352.61 1301,-352.61 1301,4 -4,4"/>
<text text-anchor="middle" x="648.5" y="-315.81" font-family="Arial" font-size="36.00" fill="blue">Reaction Path Analysis</text>
<!-- R46 -->
<g id="node1" class="node">
<title>R46</title>
<g id="a_node1"><a xlink:href="46.svg" xlink:title="R46">
<polygon fill="azure" stroke="none" points="691,-163.11 615,-163.11 615,-116.11 691,-116.11 691,-163.11"/>
<text text-anchor="middle" x="653" y="-131.11" font-family="Times New Roman,serif" font-size="35.00">R46</text>
</a>
</g>
</g>
<!-- R4 -->
<g id="node2" class="node">
<title>R4</title>
<g id="a_node2"><a xlink:href="4.svg" xlink:title="R4">
<polygon fill="azure" stroke="none" points="1288,-261.11 1230,-261.11 1230,-214.11 1288,-214.11 1288,-261.11"/>
<text text-anchor="middle" x="1259" y="-229.11" font-family="Times New Roman,serif" font-size="35.00">R4</text>
</a>
</g>
</g>
<!-- R46&#45;&gt;R4 -->
<g id="edge1" class="edge">
<title>R46&#45;&gt;R4</title>
<path fill="none" stroke="black" d="M665.41,-162.89C674.72,-179.08 689.51,-199.52 709,-209.61 881.23,-298.82 1126.02,-264.03 1219.6,-245.9"/>
<polygon fill="black" stroke="black" points="1220.12,-249.17 1229.25,-243.78 1218.76,-242.3 1220.12,-249.17"/>
<text text-anchor="middle" x="956" y="-276.61" font-family="Times New Roman,serif" font-size="30.00"> &#160;&#160;51 &#160;&#160;16% &#160;&#160;0.000155 mol/s &#160;&#160;&#160;2.75E&#45;03</text>
</g>
<!-- R3 -->
<g id="node3" class="node">
<title>R3</title>
<g id="a_node3"><a xlink:href="3.svg" xlink:title="R3">
<polygon fill="azure" stroke="none" points="1288,-196.11 1230,-196.11 1230,-149.11 1288,-149.11 1288,-196.11"/>
<text text-anchor="middle" x="1259" y="-164.11" font-family="Times New Roman,serif" font-size="35.00">R3</text>
</a>
</g>
</g>
<!-- R46&#45;&gt;R3 -->
<g id="edge2" class="edge">
<title>R46&#45;&gt;R3</title>
<path fill="none" stroke="black" d="M690.85,-147.81C696.89,-148.91 703.1,-149.91 709,-150.61 899.52,-173.34 1129.58,-173.93 1219.43,-173.14"/>
<polygon fill="black" stroke="black" points="1219.21,-176.64 1229.17,-173.04 1219.14,-169.64 1219.21,-176.64"/>
<text text-anchor="middle" x="956" y="-181.61" font-family="Times New Roman,serif" font-size="30.00"> &#160;&#160;51 &#160;&#160;16% &#160;&#160;0.000155 mol/s &#160;&#160;&#160;2.75E&#45;03</text>
</g>
<!-- R1 -->
<g id="node4" class="node">
<title>R1</title>
<g id="a_node4"><a xlink:href="1.svg" xlink:title="R1">
<polygon fill="azure" stroke="none" points="1288,-131.11 1230,-131.11 1230,-84.11 1288,-84.11 1288,-131.11"/>
<text text-anchor="middle" x="1259" y="-99.11" font-family="Times New Roman,serif" font-size="35.00">R1</text>
</a>
</g>
</g>
<!-- R46&#45;&gt;R1 -->
<g id="edge3" class="edge">
<title>R46&#45;&gt;R1</title>
<path fill="none" stroke="black" stroke-width="5" d="M690.72,-122.82C696.72,-120.69 702.95,-118.83 709,-117.61 890.66,-80.91 1113.03,-94.18 1209.51,-102.69"/>
<polygon fill="black" stroke="black" stroke-width="5" points="1203.47,-111.48 1224.2,-104.62 1205.1,-94.05 1203.47,-111.48"/>
<text text-anchor="middle" x="956" y="-126.61" font-family="Times New Roman,serif" font-size="30.00"> &#160;&#160;155 &#160;&#160;83% &#160;&#160;0.000797 mol/s &#160;&#160;&#160;5.36E&#45;04</text>
</g>
<!-- R17 -->
<g id="node5" class="node">
<title>R17</title>
<g id="a_node5"><a xlink:href="17.svg" xlink:title="R17">
<polygon fill="azure" stroke="none" points="1297,-66.11 1221,-66.11 1221,-19.11 1297,-19.11 1297,-66.11"/>
<text text-anchor="middle" x="1259" y="-34.11" font-family="Times New Roman,serif" font-size="35.00">R17</text>
</a>
</g>
</g>
<!-- R46&#45;&gt;R17 -->
<g id="edge4" class="edge">
<title>R46&#45;&gt;R17</title>
<path fill="none" stroke="black" stroke-width="5" d="M662.31,-116.33C670.73,-96.56 685.86,-69.42 709,-56.61 868.62,31.74 1096.35,-4.16 1201.19,-27.93"/>
<polygon fill="black" stroke="black" stroke-width="5" points="1193.86,-35.61 1215.34,-31.7 1197.89,-18.58 1193.86,-35.61"/>
<text text-anchor="middle" x="956" y="-65.61" font-family="Times New Roman,serif" font-size="30.00"> &#160;&#160;155 &#160;&#160;83% &#160;&#160;0.000797 mol/s &#160;&#160;&#160;5.36E&#45;04</text>
</g>
<!-- R139 -->
<g id="node6" class="node">
<title>R139</title>
<g id="a_node6"><a xlink:href="139.svg" xlink:title="R139">
<polygon fill="azure" stroke="none" points="94,-163.11 0,-163.11 0,-116.11 94,-116.11 94,-163.11"/>
<text text-anchor="middle" x="47" y="-131.11" font-family="Times New Roman,serif" font-size="35.00">R139</text>
</a>
</g>
</g>
<!-- R139&#45;&gt;R46 -->
<g id="edge5" class="edge">
<title>R139&#45;&gt;R46</title>
<path fill="none" stroke="black" stroke-width="6" d="M93.89,-139.61C202.5,-139.61 475.09,-139.61 594.48,-139.61"/>
<polygon fill="black" stroke="black" stroke-width="6" points="589.24,-150.11 609.24,-139.61 589.24,-129.11 589.24,-150.11"/>
<text text-anchor="middle" x="350" y="-148.61" font-family="Times New Roman,serif" font-size="30.00"> &#160;&#160;191 &#160;&#160;100% &#160;&#160;0.00467 mol/s &#160;&#160;&#160;9.15E&#45;05</text>
</g>
</g>
</svg>
