<?xml version="1.0" encoding="UTF-8" standalone="no"?>
<!DOCTYPE svg PUBLIC "-//W3C//DTD SVG 1.1//EN"
 "http://www.w3.org/Graphics/SVG/1.1/DTD/svg11.dtd">
<!-- Generated by graphviz version 8.0.3 (20230416.2022)
 -->
<!-- Title: G Pages: 1 -->
<svg width="640pt" height="529pt"
 viewBox="0.00 0.00 720.00 595.66" xmlns="http://www.w3.org/2000/svg" xmlns:xlink="http://www.w3.org/1999/xlink">
<g id="graph0" class="graph" transform="scale(0.505529 0.505529) rotate(0) translate(4 1043.37)">
<title>G</title>
<polygon fill="white" stroke="none" points="-4,4 -4,-1043.37 1262,-1043.37 1262,4 -4,4"/>
<text text-anchor="middle" x="629" y="-1006.57" font-family="Arial" font-size="36.00" fill="blue">Reaction Path Analysis</text>
<!-- R5 -->
<g id="node1" class="node">
<title>R5</title>
<g id="a_node1"><a xlink:href="5.svg" xlink:title="R5">
<polygon fill="azure" stroke="none" points="667,-506.87 609,-506.87 609,-459.87 667,-459.87 667,-506.87"/>
<text text-anchor="middle" x="638" y="-474.87" font-family="Times New Roman,serif" font-size="35.00">R5</text>
</a>
</g>
</g>
<!-- R1 -->
<g id="node4" class="node">
<title>R1</title>
<g id="a_node4"><a xlink:href="1.svg" xlink:title="R1">
<polygon fill="azure" stroke="none" points="1258,-539.87 1200,-539.87 1200,-492.87 1258,-492.87 1258,-539.87"/>
<text text-anchor="middle" x="1229" y="-507.87" font-family="Times New Roman,serif" font-size="35.00">R1</text>
</a>
</g>
</g>
<!-- R5&#45;&gt;R1 -->
<g id="edge3" class="edge">
<title>R5&#45;&gt;R1</title>
<path fill="none" stroke="black" stroke-width="6" d="M666.85,-489.45C676.51,-491.34 687.44,-493.22 697.5,-494.37 874.15,-514.53 1085.75,-516.8 1179.36,-516.69"/>
<polygon fill="black" stroke="black" stroke-width="6" points="1174.31,-527.19 1194.28,-516.62 1174.24,-506.19 1174.31,-527.19"/>
<text text-anchor="middle" x="933.5" y="-525.37" font-family="Times New Roman,serif" font-size="30.00"> &#160;&#160;5 &#160;&#160;100% &#160;&#160;3.66e&#45;05 mol/s &#160;&#160;&#160;1.14E&#45;02</text>
</g>
<!-- R2 -->
<g id="node5" class="node">
<title>R2</title>
<g id="a_node5"><a xlink:href="2.svg" xlink:title="R2">
<polygon fill="azure" stroke="none" points="1258,-474.87 1200,-474.87 1200,-427.87 1258,-427.87 1258,-474.87"/>
<text text-anchor="middle" x="1229" y="-442.87" font-family="Times New Roman,serif" font-size="35.00">R2</text>
</a>
</g>
</g>
<!-- R5&#45;&gt;R2 -->
<g id="edge4" class="edge">
<title>R5&#45;&gt;R2</title>
<path fill="none" stroke="black" stroke-width="6" d="M666.71,-470.74C676.26,-466.99 687.16,-463.35 697.5,-461.37 872.18,-427.9 1085.14,-439.23 1179.27,-446.82"/>
<polygon fill="black" stroke="black" stroke-width="6" points="1173.22,-457.35 1194.04,-448.59 1175.01,-436.43 1173.22,-457.35"/>
<text text-anchor="middle" x="933.5" y="-470.37" font-family="Times New Roman,serif" font-size="30.00"> &#160;&#160;5 &#160;&#160;100% &#160;&#160;3.66e&#45;05 mol/s &#160;&#160;&#160;1.14E&#45;02</text>
</g>
<!-- R0 -->
<g id="node2" class="node">
<title>R0</title>
<g id="a_node2"><a xlink:href="0.svg" xlink:title="R0">
<polygon fill="azure" stroke="none" points="76,-929.87 18,-929.87 18,-882.87 76,-882.87 76,-929.87"/>
<text text-anchor="middle" x="47" y="-897.87" font-family="Times New Roman,serif" font-size="35.00">R0</text>
</a>
</g>
</g>
<!-- R0&#45;&gt;R5 -->
<g id="edge1" class="edge">
<title>R0&#45;&gt;R5</title>
<path fill="none" stroke="black" d="M75.8,-915.64C163.35,-942.93 436.21,-1012.93 582,-879.37 634.65,-831.13 638.2,-604.61 637.56,-517.56"/>
<polygon fill="black" stroke="black" points="641.05,-517.67 637.45,-507.71 634.05,-517.74 641.05,-517.67"/>
<text text-anchor="middle" x="342.5" y="-967.37" font-family="Times New Roman,serif" font-size="30.00"> &#160;&#160;4 &#160;&#160;0% &#160;&#160;4.23e&#45;07 mol/s &#160;&#160;&#160;9.90E&#45;01</text>
</g>
<!-- R3 -->
<g id="node3" class="node">
<title>R3</title>
<g id="a_node3"><a xlink:href="3.svg" xlink:title="R3">
<polygon fill="azure" stroke="none" points="76,-864.87 18,-864.87 18,-817.87 76,-817.87 76,-864.87"/>
<text text-anchor="middle" x="47" y="-832.87" font-family="Times New Roman,serif" font-size="35.00">R3</text>
</a>
</g>
</g>
<!-- R3&#45;&gt;R5 -->
<g id="edge2" class="edge">
<title>R3&#45;&gt;R5</title>
<path fill="none" stroke="black" d="M75.86,-841.96C180.24,-843.91 544.07,-848.2 582,-814.37 625.63,-775.46 634.65,-594.12 636.52,-517.59"/>
<polygon fill="black" stroke="black" points="640.04,-517.74 636.75,-507.66 633.04,-517.59 640.04,-517.74"/>
<text text-anchor="middle" x="342.5" y="-851.37" font-family="Times New Roman,serif" font-size="30.00"> &#160;&#160;4 &#160;&#160;0% &#160;&#160;4.23e&#45;07 mol/s &#160;&#160;&#160;9.90E&#45;01</text>
</g>
<!-- R18 -->
<g id="node6" class="node">
<title>R18</title>
<g id="a_node6"><a xlink:href="18.svg" xlink:title="R18">
<polygon fill="azure" stroke="none" points="85,-799.87 9,-799.87 9,-752.87 85,-752.87 85,-799.87"/>
<text text-anchor="middle" x="47" y="-767.87" font-family="Times New Roman,serif" font-size="35.00">R18</text>
</a>
</g>
</g>
<!-- R18&#45;&gt;R5 -->
<g id="edge5" class="edge">
<title>R18&#45;&gt;R5</title>
<path fill="none" stroke="black" d="M84.96,-777.06C199.72,-778.87 544.47,-781.54 582,-749.37 616.7,-719.62 630.39,-582.39 634.99,-517.52"/>
<polygon fill="black" stroke="black" points="638.54,-517.87 635.72,-507.66 631.55,-517.4 638.54,-517.87"/>
<text text-anchor="middle" x="342.5" y="-786.37" font-family="Times New Roman,serif" font-size="30.00"> &#160;&#160;21 &#160;&#160;0% &#160;&#160;4.9e&#45;06 mol/s &#160;&#160;&#160;7.43E&#45;02</text>
</g>
<!-- R32 -->
<g id="node7" class="node">
<title>R32</title>
<g id="a_node7"><a xlink:href="32.svg" xlink:title="R32">
<polygon fill="azure" stroke="none" points="85,-734.87 9,-734.87 9,-687.87 85,-687.87 85,-734.87"/>
<text text-anchor="middle" x="47" y="-702.87" font-family="Times New Roman,serif" font-size="35.00">R32</text>
</a>
</g>
</g>
<!-- R32&#45;&gt;R5 -->
<g id="edge6" class="edge">
<title>R32&#45;&gt;R5</title>
<path fill="none" stroke="black" d="M84.88,-712.03C199.38,-713.77 543.47,-716.32 582,-685.37 608.07,-664.42 625.08,-569.23 632.58,-517.35"/>
<polygon fill="black" stroke="black" points="636.16,-518.06 634.08,-507.67 629.22,-517.09 636.16,-518.06"/>
<text text-anchor="middle" x="342.5" y="-721.37" font-family="Times New Roman,serif" font-size="30.00"> &#160;&#160;37 &#160;&#160;0% &#160;&#160;0.000691 mol/s &#160;&#160;&#160;6.18E&#45;04</text>
</g>
<!-- R47 -->
<g id="node8" class="node">
<title>R47</title>
<g id="a_node8"><a xlink:href="47.svg" xlink:title="R47">
<polygon fill="azure" stroke="none" points="85,-669.87 9,-669.87 9,-622.87 85,-622.87 85,-669.87"/>
<text text-anchor="middle" x="47" y="-637.87" font-family="Times New Roman,serif" font-size="35.00">R47</text>
</a>
</g>
</g>
<!-- R47&#45;&gt;R5 -->
<g id="edge7" class="edge">
<title>R47&#45;&gt;R5</title>
<path fill="none" stroke="black" d="M84.73,-647.14C198.82,-649.24 541.79,-653.08 582,-624.37 616.29,-599.88 629.21,-550.74 634.07,-517.44"/>
<polygon fill="black" stroke="black" points="637.63,-518.18 635.43,-507.82 630.68,-517.29 637.63,-518.18"/>
<text text-anchor="middle" x="342.5" y="-657.37" font-family="Times New Roman,serif" font-size="30.00"> &#160;&#160;52 &#160;&#160;0% &#160;&#160;0.000334 mol/s &#160;&#160;&#160;1.28E&#45;03</text>
</g>
<!-- R63 -->
<g id="node9" class="node">
<title>R63</title>
<g id="a_node9"><a xlink:href="63.svg" xlink:title="R63">
<polygon fill="azure" stroke="none" points="85,-604.87 9,-604.87 9,-557.87 85,-557.87 85,-604.87"/>
<text text-anchor="middle" x="47" y="-572.87" font-family="Times New Roman,serif" font-size="35.00">R63</text>
</a>
</g>
</g>
<!-- R63&#45;&gt;R5 -->
<g id="edge8" class="edge">
<title>R63&#45;&gt;R5</title>
<path fill="none" stroke="black" d="M84.77,-583.31C190.85,-588.32 495.37,-598.31 582,-553.37 597.98,-545.08 610.81,-529.84 620.04,-515.69"/>
<polygon fill="black" stroke="black" points="623.35,-517.99 625.58,-507.64 617.38,-514.34 623.35,-517.99"/>
<text text-anchor="middle" x="342.5" y="-596.37" font-family="Times New Roman,serif" font-size="30.00"> &#160;&#160;69 &#160;&#160;0% &#160;&#160;0.000155 mol/s &#160;&#160;&#160;2.74E&#45;03</text>
</g>
<!-- R64 -->
<g id="node10" class="node">
<title>R64</title>
<g id="a_node10"><a xlink:href="64.svg" xlink:title="R64">
<polygon fill="azure" stroke="none" points="85,-539.87 9,-539.87 9,-492.87 85,-492.87 85,-539.87"/>
<text text-anchor="middle" x="47" y="-507.87" font-family="Times New Roman,serif" font-size="35.00">R64</text>
</a>
</g>
</g>
<!-- R64&#45;&gt;R5 -->
<g id="edge9" class="edge">
<title>R64&#45;&gt;R5</title>
<path fill="none" stroke="black" d="M84.74,-516.82C171.57,-517.47 396.13,-516.64 582,-494.37 587.42,-493.72 593.1,-492.83 598.68,-491.83"/>
<polygon fill="black" stroke="black" points="599,-495.14 608.16,-489.81 597.68,-488.26 599,-495.14"/>
<text text-anchor="middle" x="342.5" y="-525.37" font-family="Times New Roman,serif" font-size="30.00"> &#160;&#160;70 &#160;&#160;0% &#160;&#160;2.58e&#45;06 mol/s &#160;&#160;&#160;1.24E&#45;01</text>
</g>
<!-- R65 -->
<g id="node11" class="node">
<title>R65</title>
<g id="a_node11"><a xlink:href="65.svg" xlink:title="R65">
<polygon fill="azure" stroke="none" points="85,-474.87 9,-474.87 9,-427.87 85,-427.87 85,-474.87"/>
<text text-anchor="middle" x="47" y="-442.87" font-family="Times New Roman,serif" font-size="35.00">R65</text>
</a>
</g>
</g>
<!-- R65&#45;&gt;R5 -->
<g id="edge10" class="edge">
<title>R65&#45;&gt;R5</title>
<path fill="none" stroke="black" d="M84.75,-447.56C172.07,-439.47 398.42,-424.23 582,-461.37 587.67,-462.51 593.5,-464.22 599.16,-466.18"/>
<polygon fill="black" stroke="black" points="597.47,-469.66 608.06,-469.93 599.94,-463.12 597.47,-469.66"/>
<text text-anchor="middle" x="342.5" y="-470.37" font-family="Times New Roman,serif" font-size="30.00"> &#160;&#160;71 &#160;&#160;0% &#160;&#160;8.96e&#45;05 mol/s &#160;&#160;&#160;4.73E&#45;03</text>
</g>
<!-- R66 -->
<g id="node12" class="node">
<title>R66</title>
<g id="a_node12"><a xlink:href="66.svg" xlink:title="R66">
<polygon fill="azure" stroke="none" points="85,-409.87 9,-409.87 9,-362.87 85,-362.87 85,-409.87"/>
<text text-anchor="middle" x="47" y="-377.87" font-family="Times New Roman,serif" font-size="35.00">R66</text>
</a>
</g>
</g>
<!-- R66&#45;&gt;R5 -->
<g id="edge11" class="edge">
<title>R66&#45;&gt;R5</title>
<path fill="none" stroke="black" d="M84.9,-383.02C191.33,-374.04 496.72,-353.12 582,-400.37 601.43,-411.13 615.21,-432 624.12,-450.12"/>
<polygon fill="black" stroke="black" points="621.34,-451.46 628.69,-459.1 627.71,-448.55 621.34,-451.46"/>
<text text-anchor="middle" x="342.5" y="-409.37" font-family="Times New Roman,serif" font-size="30.00"> &#160;&#160;72 &#160;&#160;0% &#160;&#160;0.00196 mol/s &#160;&#160;&#160;2.18E&#45;04</text>
</g>
<!-- R102 -->
<g id="node13" class="node">
<title>R102</title>
<g id="a_node13"><a xlink:href="102.svg" xlink:title="R102">
<polygon fill="azure" stroke="none" points="94,-344.87 0,-344.87 0,-297.87 94,-297.87 94,-344.87"/>
<text text-anchor="middle" x="47" y="-312.87" font-family="Times New Roman,serif" font-size="35.00">R102</text>
</a>
</g>
</g>
<!-- R102&#45;&gt;R5 -->
<g id="edge12" class="edge">
<title>R102&#45;&gt;R5</title>
<path fill="none" stroke="black" d="M93.93,-316.02C208.77,-303.64 504.69,-278.07 582,-333.37 618.95,-359.8 631.13,-413.8 635.11,-449.28"/>
<polygon fill="black" stroke="black" points="631.71,-449.47 636.14,-459.09 638.68,-448.81 631.71,-449.47"/>
<text text-anchor="middle" x="342.5" y="-342.37" font-family="Times New Roman,serif" font-size="30.00"> &#160;&#160;311 &#160;&#160;0% &#160;&#160;7.46e&#45;06 mol/s &#160;&#160;&#160;5.14E&#45;02</text>
</g>
<!-- R156 -->
<g id="node14" class="node">
<title>R156</title>
<g id="a_node14"><a xlink:href="156.svg" xlink:title="R156">
<polygon fill="azure" stroke="none" points="94,-279.87 0,-279.87 0,-232.87 94,-232.87 94,-279.87"/>
<text text-anchor="middle" x="47" y="-247.87" font-family="Times New Roman,serif" font-size="35.00">R156</text>
</a>
</g>
</g>
<!-- R156&#45;&gt;R5 -->
<g id="edge13" class="edge">
<title>R156&#45;&gt;R5</title>
<path fill="none" stroke="black" d="M93.73,-253.65C216.08,-246.82 544.22,-231.52 582,-261.37 611.22,-284.45 627.15,-392.9 633.58,-449.22"/>
<polygon fill="black" stroke="black" points="630.2,-449.51 634.77,-459.07 637.15,-448.75 630.2,-449.51"/>
<text text-anchor="middle" x="342.5" y="-270.37" font-family="Times New Roman,serif" font-size="30.00"> &#160;&#160;312 &#160;&#160;0% &#160;&#160;0.000947 mol/s &#160;&#160;&#160;4.51E&#45;04</text>
</g>
<!-- R157 -->
<g id="node15" class="node">
<title>R157</title>
<g id="a_node15"><a xlink:href="157.svg" xlink:title="R157">
<polygon fill="azure" stroke="none" points="94,-214.87 0,-214.87 0,-167.87 94,-167.87 94,-214.87"/>
<text text-anchor="middle" x="47" y="-182.87" font-family="Times New Roman,serif" font-size="35.00">R157</text>
</a>
</g>
</g>
<!-- R157&#45;&gt;R5 -->
<g id="edge14" class="edge">
<title>R157&#45;&gt;R5</title>
<path fill="none" stroke="black" d="M93.64,-185.71C209.18,-172.44 509.2,-144.87 582,-206.37 618.56,-237.25 631.34,-382.1 635.35,-449.15"/>
<polygon fill="black" stroke="black" points="631.91,-449.18 635.96,-458.97 638.89,-448.79 631.91,-449.18"/>
<text text-anchor="middle" x="342.5" y="-215.37" font-family="Times New Roman,serif" font-size="30.00"> &#160;&#160;313 &#160;&#160;0% &#160;&#160;0.00028 mol/s &#160;&#160;&#160;1.52E&#45;03</text>
</g>
<!-- R235 -->
<g id="node16" class="node">
<title>R235</title>
<g id="a_node16"><a xlink:href="235.svg" xlink:title="R235">
<polygon fill="azure" stroke="none" points="94,-149.87 0,-149.87 0,-102.87 94,-102.87 94,-149.87"/>
<text text-anchor="middle" x="47" y="-117.87" font-family="Times New Roman,serif" font-size="35.00">R235</text>
</a>
</g>
</g>
<!-- R235&#45;&gt;R5 -->
<g id="edge15" class="edge">
<title>R235&#45;&gt;R5</title>
<path fill="none" stroke="black" stroke-width="5" d="M93.87,-123.39C216.58,-115.88 545.54,-98.91 582,-130.37 627.71,-169.8 635.7,-353.36 636.91,-439.06"/>
<polygon fill="black" stroke="black" stroke-width="5" points="628.17,-434.06 637.1,-453.98 645.67,-433.91 628.17,-434.06"/>
<text text-anchor="middle" x="342.5" y="-139.37" font-family="Times New Roman,serif" font-size="30.00"> &#160;&#160;314 &#160;&#160;99% &#160;&#160;10.6 mol/s &#160;&#160;&#160;4.03E&#45;08</text>
</g>
<!-- R101 -->
<g id="node17" class="node">
<title>R101</title>
<g id="a_node17"><a xlink:href="101.svg" xlink:title="R101">
<polygon fill="azure" stroke="none" points="94,-84.87 0,-84.87 0,-37.87 94,-37.87 94,-84.87"/>
<text text-anchor="middle" x="47" y="-52.87" font-family="Times New Roman,serif" font-size="35.00">R101</text>
</a>
</g>
</g>
<!-- R101&#45;&gt;R5 -->
<g id="edge16" class="edge">
<title>R101&#45;&gt;R5</title>
<path fill="none" stroke="black" d="M93.65,-45.19C195.65,-12.28 443.88,49.42 582,-74.37 609.82,-99.3 628.81,-355.05 634.9,-448.99"/>
<polygon fill="black" stroke="black" points="631.46,-449.12 635.59,-458.88 638.45,-448.67 631.46,-449.12"/>
<text text-anchor="middle" x="342.5" y="-83.37" font-family="Times New Roman,serif" font-size="30.00"> &#160;&#160;883 &#160;&#160;0% &#160;&#160;2.49e&#45;05 mol/s &#160;&#160;&#160;1.66E&#45;02</text>
</g>
</g>
</svg>
