<?xml version="1.0" encoding="UTF-8" standalone="no"?>
<!DOCTYPE svg PUBLIC "-//W3C//DTD SVG 1.1//EN"
 "http://www.w3.org/Graphics/SVG/1.1/DTD/svg11.dtd">
<!-- Generated by graphviz version 8.0.3 (20230416.2022)
 -->
<!-- Title: G Pages: 1 -->
<svg width="571pt" height="320pt"
 viewBox="0.00 0.00 642.00 360.03" xmlns="http://www.w3.org/2000/svg" xmlns:xlink="http://www.w3.org/1999/xlink">
<g id="graph0" class="graph" transform="scale(0.888889 0.888889) rotate(0) translate(4 356.03)">
<title>G</title>
<polygon fill="white" stroke="none" points="-4,4 -4,-356.03 638,-356.03 638,4 -4,4"/>
<text text-anchor="middle" x="317" y="-319.23" font-family="Arial" font-size="36.00" fill="blue">Reaction Path Analysis</text>
<!-- R52 -->
<g id="node1" class="node">
<title>R52</title>
<g id="a_node1"><a xlink:href="52.svg" xlink:title="R52">
<polygon fill="azure" stroke="none" points="76,-165.53 0,-165.53 0,-118.53 76,-118.53 76,-165.53"/>
<text text-anchor="middle" x="38" y="-133.53" font-family="Times New Roman,serif" font-size="35.00">R52</text>
</a>
</g>
</g>
<!-- R9 -->
<g id="node2" class="node">
<title>R9</title>
<g id="a_node2"><a xlink:href="9.svg" xlink:title="R9">
<polygon fill="azure" stroke="none" points="625,-263.53 567,-263.53 567,-216.53 625,-216.53 625,-263.53"/>
<text text-anchor="middle" x="596" y="-231.53" font-family="Times New Roman,serif" font-size="35.00">R9</text>
</a>
</g>
</g>
<!-- R52&#45;&gt;R9 -->
<g id="edge1" class="edge">
<title>R52&#45;&gt;R9</title>
<path fill="none" stroke="black" stroke-width="5" d="M47.5,-165.52C54.77,-181.89 66.95,-202.59 85,-213.03 234.37,-299.43 451.38,-270.07 546.86,-251.02"/>
<polygon fill="black" stroke="black" stroke-width="5" points="543.36,-260.44 561.13,-247.76 539.76,-243.31 543.36,-260.44"/>
<text text-anchor="middle" x="317" y="-280.03" font-family="Times New Roman,serif" font-size="30.00"> &#160;&#160;58 &#160;&#160;98% &#160;&#160;0.304 mol/s &#160;&#160;&#160;1.41E&#45;06</text>
</g>
<!-- R3 -->
<g id="node3" class="node">
<title>R3</title>
<g id="a_node3"><a xlink:href="3.svg" xlink:title="R3">
<polygon fill="azure" stroke="none" points="625,-198.53 567,-198.53 567,-151.53 625,-151.53 625,-198.53"/>
<text text-anchor="middle" x="596" y="-166.53" font-family="Times New Roman,serif" font-size="35.00">R3</text>
</a>
</g>
</g>
<!-- R52&#45;&gt;R3 -->
<g id="edge2" class="edge">
<title>R52&#45;&gt;R3</title>
<path fill="none" stroke="black" stroke-width="5" d="M75.79,-151.49C78.89,-152.08 81.99,-152.61 85,-153.03 253.12,-176.54 455.18,-177.19 546.27,-176.02"/>
<polygon fill="black" stroke="black" stroke-width="5" points="541.33,-184.76 561.19,-175.69 541.05,-167.26 541.33,-184.76"/>
<text text-anchor="middle" x="317" y="-185.03" font-family="Times New Roman,serif" font-size="30.00"> &#160;&#160;58 &#160;&#160;98% &#160;&#160;0.304 mol/s &#160;&#160;&#160;1.41E&#45;06</text>
</g>
<!-- R1 -->
<g id="node4" class="node">
<title>R1</title>
<g id="a_node4"><a xlink:href="1.svg" xlink:title="R1">
<polygon fill="azure" stroke="none" points="625,-133.53 567,-133.53 567,-86.53 625,-86.53 625,-133.53"/>
<text text-anchor="middle" x="596" y="-101.53" font-family="Times New Roman,serif" font-size="35.00">R1</text>
</a>
</g>
</g>
<!-- R52&#45;&gt;R1 -->
<g id="edge3" class="edge">
<title>R52&#45;&gt;R1</title>
<path fill="none" stroke="black" d="M75.92,-122.75C78.94,-121.68 81.99,-120.75 85,-120.03 256.74,-79.3 470.18,-95.93 556.3,-105.29"/>
<polygon fill="black" stroke="black" points="555.79,-108.87 566.12,-106.5 556.57,-101.91 555.79,-108.87"/>
<text text-anchor="middle" x="317" y="-129.03" font-family="Times New Roman,serif" font-size="30.00"> &#160;&#160;165 &#160;&#160;1% &#160;&#160;0.00355 mol/s &#160;&#160;&#160;1.20E&#45;04</text>
</g>
<!-- R22 -->
<g id="node5" class="node">
<title>R22</title>
<g id="a_node5"><a xlink:href="22.svg" xlink:title="R22">
<polygon fill="azure" stroke="none" points="634,-68.53 558,-68.53 558,-21.53 634,-21.53 634,-68.53"/>
<text text-anchor="middle" x="596" y="-36.53" font-family="Times New Roman,serif" font-size="35.00">R22</text>
</a>
</g>
</g>
<!-- R52&#45;&gt;R22 -->
<g id="edge4" class="edge">
<title>R52&#45;&gt;R22</title>
<path fill="none" stroke="black" d="M44.39,-118.85C50.49,-98.39 62.63,-69.76 85,-56.03 232.53,34.54 452.1,-6.79 547.69,-31.39"/>
<polygon fill="black" stroke="black" points="546.61,-34.99 557.17,-34.16 548.39,-28.23 546.61,-34.99"/>
<text text-anchor="middle" x="317" y="-65.03" font-family="Times New Roman,serif" font-size="30.00"> &#160;&#160;165 &#160;&#160;1% &#160;&#160;0.00355 mol/s &#160;&#160;&#160;1.20E&#45;04</text>
</g>
</g>
</svg>
