<?xml version="1.0" encoding="UTF-8" standalone="no"?>
<!DOCTYPE svg PUBLIC "-//W3C//DTD SVG 1.1//EN"
 "http://www.w3.org/Graphics/SVG/1.1/DTD/svg11.dtd">
<!-- Generated by graphviz version 8.0.3 (20230416.2022)
 -->
<!-- Title: G Pages: 1 -->
<svg width="640pt" height="279pt"
 viewBox="0.00 0.00 720.00 314.11" xmlns="http://www.w3.org/2000/svg" xmlns:xlink="http://www.w3.org/1999/xlink">
<g id="graph0" class="graph" transform="scale(0.501961 0.501961) rotate(0) translate(4 552.23)">
<title>G</title>
<polygon fill="white" stroke="none" points="-4,4 -4,-552.23 1271,-552.23 1271,4 -4,4"/>
<text text-anchor="middle" x="633.5" y="-515.43" font-family="Arial" font-size="36.00" fill="blue">Reaction Path Analysis</text>
<!-- R55 -->
<g id="node1" class="node">
<title>R55</title>
<g id="a_node1"><a xlink:href="55.svg" xlink:title="R55">
<polygon fill="azure" stroke="none" points="676,-251.73 600,-251.73 600,-204.73 676,-204.73 676,-251.73"/>
<text text-anchor="middle" x="638" y="-219.73" font-family="Times New Roman,serif" font-size="35.00">R55</text>
</a>
</g>
</g>
<!-- R3 -->
<g id="node2" class="node">
<title>R3</title>
<g id="a_node2"><a xlink:href="3.svg" xlink:title="R3">
<polygon fill="azure" stroke="none" points="1258,-409.73 1200,-409.73 1200,-362.73 1258,-362.73 1258,-409.73"/>
<text text-anchor="middle" x="1229" y="-377.73" font-family="Times New Roman,serif" font-size="35.00">R3</text>
</a>
</g>
</g>
<!-- R55&#45;&gt;R3 -->
<g id="edge1" class="edge">
<title>R55&#45;&gt;R3</title>
<path fill="none" stroke="black" d="M641.12,-251.58C645.31,-282.67 657.7,-336.69 694,-362.23 848.6,-471 1095.23,-421.88 1189.58,-397.26"/>
<polygon fill="black" stroke="black" points="1190.3,-400.42 1199.06,-394.46 1188.49,-393.66 1190.3,-400.42"/>
<text text-anchor="middle" x="933.5" y="-438.23" font-family="Times New Roman,serif" font-size="30.00"> &#160;&#160;61 &#160;&#160;0% &#160;&#160;1.03e&#45;05 mol/s &#160;&#160;&#160;3.84E&#45;02</text>
</g>
<!-- R14 -->
<g id="node3" class="node">
<title>R14</title>
<g id="a_node3"><a xlink:href="14.svg" xlink:title="R14">
<polygon fill="azure" stroke="none" points="1267,-344.73 1191,-344.73 1191,-297.73 1267,-297.73 1267,-344.73"/>
<text text-anchor="middle" x="1229" y="-312.73" font-family="Times New Roman,serif" font-size="35.00">R14</text>
</a>
</g>
</g>
<!-- R55&#45;&gt;R14 -->
<g id="edge2" class="edge">
<title>R55&#45;&gt;R14</title>
<path fill="none" stroke="black" d="M652.66,-251.7C662.27,-265.83 676.52,-282.69 694,-291.23 778.87,-332.71 1066.18,-327.2 1180.5,-323.2"/>
<polygon fill="black" stroke="black" points="1180.47,-326.67 1190.33,-322.8 1180.21,-319.67 1180.47,-326.67"/>
<text text-anchor="middle" x="933.5" y="-334.23" font-family="Times New Roman,serif" font-size="30.00"> &#160;&#160;61 &#160;&#160;0% &#160;&#160;1.03e&#45;05 mol/s &#160;&#160;&#160;3.84E&#45;02</text>
</g>
<!-- R97 -->
<g id="node6" class="node">
<title>R97</title>
<g id="a_node6"><a xlink:href="97.svg" xlink:title="R97">
<polygon fill="azure" stroke="none" points="1267,-279.73 1191,-279.73 1191,-232.73 1267,-232.73 1267,-279.73"/>
<text text-anchor="middle" x="1229" y="-247.73" font-family="Times New Roman,serif" font-size="35.00">R97</text>
</a>
</g>
</g>
<!-- R55&#45;&gt;R97 -->
<g id="edge5" class="edge">
<title>R55&#45;&gt;R97</title>
<path fill="none" stroke="black" d="M675.95,-232.61C681.98,-233.22 688.16,-233.79 694,-234.23 873.16,-247.68 1086.79,-253.37 1180.26,-255.34"/>
<polygon fill="black" stroke="black" points="1179.98,-258.86 1190.05,-255.57 1180.12,-251.86 1179.98,-258.86"/>
<text text-anchor="middle" x="933.5" y="-263.23" font-family="Times New Roman,serif" font-size="30.00"> &#160;&#160;124 &#160;&#160;0% &#160;&#160;3.73e&#45;07 mol/s &#160;&#160;&#160;8.87E&#45;01</text>
</g>
<!-- R98 -->
<g id="node7" class="node">
<title>R98</title>
<g id="a_node7"><a xlink:href="98.svg" xlink:title="R98">
<polygon fill="azure" stroke="none" points="1267,-214.73 1191,-214.73 1191,-167.73 1267,-167.73 1267,-214.73"/>
<text text-anchor="middle" x="1229" y="-182.73" font-family="Times New Roman,serif" font-size="35.00">R98</text>
</a>
</g>
</g>
<!-- R55&#45;&gt;R98 -->
<g id="edge6" class="edge">
<title>R55&#45;&gt;R98</title>
<path fill="none" stroke="black" d="M674.58,-204.84C680.83,-201.72 687.44,-198.99 694,-197.23 784.88,-172.83 1067.39,-183.35 1180.48,-188.76"/>
<polygon fill="black" stroke="black" points="1180.05,-192.29 1190.2,-189.28 1180.39,-185.3 1180.05,-192.29"/>
<text text-anchor="middle" x="933.5" y="-206.23" font-family="Times New Roman,serif" font-size="30.00"> &#160;&#160;125 &#160;&#160;0% &#160;&#160;1.38e&#45;07 mol/s &#160;&#160;&#160;5.96E&#45;01</text>
</g>
<!-- R68 -->
<g id="node11" class="node">
<title>R68</title>
<g id="a_node11"><a xlink:href="68.svg" xlink:title="R68">
<polygon fill="azure" stroke="none" points="1267,-130.73 1191,-130.73 1191,-83.73 1267,-83.73 1267,-130.73"/>
<text text-anchor="middle" x="1229" y="-98.73" font-family="Times New Roman,serif" font-size="35.00">R68</text>
</a>
</g>
</g>
<!-- R55&#45;&gt;R68 -->
<g id="edge10" class="edge">
<title>R55&#45;&gt;R68</title>
<path fill="none" stroke="black" d="M647.3,-204.8C655.71,-184.87 670.84,-157.45 694,-144.23 740.28,-117.83 1120.37,-130.51 1173,-122.23 1175.52,-121.83 1178.08,-121.37 1180.66,-120.84"/>
<polygon fill="black" stroke="black" points="1181.28,-124.07 1190.26,-118.45 1179.74,-117.24 1181.28,-124.07"/>
<text text-anchor="middle" x="933.5" y="-153.23" font-family="Times New Roman,serif" font-size="30.00"> &#160;&#160;442 &#160;&#160;3% &#160;&#160;0.000631 mol/s &#160;&#160;&#160;9.67E&#45;01</text>
</g>
<!-- R55&#45;&gt;R68 -->
<g id="edge12" class="edge">
<title>R55&#45;&gt;R68</title>
<path fill="none" stroke="black" stroke-width="5" d="M640.26,-204.79C643.44,-171.69 654.64,-112.26 694,-85.23 840.66,15.5 1067.22,-47.01 1171.69,-84.74"/>
<polygon fill="black" stroke="black" stroke-width="5" points="1164.4,-91.22 1186.19,-90.01 1170.51,-74.82 1164.4,-91.22"/>
<text text-anchor="middle" x="933.5" y="-94.23" font-family="Times New Roman,serif" font-size="30.00"> &#160;&#160;453 &#160;&#160;96% &#160;&#160;0.0183 mol/s &#160;&#160;&#160;3.33E&#45;02</text>
</g>
<!-- R0 -->
<g id="node4" class="node">
<title>R0</title>
<g id="a_node4"><a xlink:href="0.svg" xlink:title="R0">
<polygon fill="azure" stroke="none" points="76,-446.73 18,-446.73 18,-399.73 76,-399.73 76,-446.73"/>
<text text-anchor="middle" x="47" y="-414.73" font-family="Times New Roman,serif" font-size="35.00">R0</text>
</a>
</g>
</g>
<!-- R0&#45;&gt;R55 -->
<g id="edge3" class="edge">
<title>R0&#45;&gt;R55</title>
<path fill="none" stroke="black" d="M75.74,-431.54C161.41,-455.37 425.44,-514.87 582,-395.23 622.84,-364.02 633.75,-301.62 636.43,-262.56"/>
<polygon fill="black" stroke="black" points="639.97,-262.9 637.01,-252.73 632.98,-262.53 639.97,-262.9"/>
<text text-anchor="middle" x="342.5" y="-476.23" font-family="Times New Roman,serif" font-size="30.00"> &#160;&#160;122 &#160;&#160;0% &#160;&#160;3.96e&#45;07 mol/s &#160;&#160;&#160;9.31E&#45;01</text>
</g>
<!-- R53 -->
<g id="node5" class="node">
<title>R53</title>
<g id="a_node5"><a xlink:href="53.svg" xlink:title="R53">
<polygon fill="azure" stroke="none" points="85,-381.73 9,-381.73 9,-334.73 85,-334.73 85,-381.73"/>
<text text-anchor="middle" x="47" y="-349.73" font-family="Times New Roman,serif" font-size="35.00">R53</text>
</a>
</g>
</g>
<!-- R53&#45;&gt;R55 -->
<g id="edge4" class="edge">
<title>R53&#45;&gt;R55</title>
<path fill="none" stroke="black" d="M84.6,-358.44C198.3,-358.82 540.26,-357.71 582,-331.23 606.34,-315.78 620.61,-285.71 628.49,-262.03"/>
<polygon fill="black" stroke="black" points="632.08,-263.26 631.67,-252.67 625.39,-261.21 632.08,-263.26"/>
<text text-anchor="middle" x="342.5" y="-367.23" font-family="Times New Roman,serif" font-size="30.00"> &#160;&#160;122 &#160;&#160;0% &#160;&#160;3.96e&#45;07 mol/s &#160;&#160;&#160;9.31E&#45;01</text>
</g>
<!-- R144 -->
<g id="node8" class="node">
<title>R144</title>
<g id="a_node8"><a xlink:href="144.svg" xlink:title="R144">
<polygon fill="azure" stroke="none" points="94,-316.73 0,-316.73 0,-269.73 94,-269.73 94,-316.73"/>
<text text-anchor="middle" x="47" y="-284.73" font-family="Times New Roman,serif" font-size="35.00">R144</text>
</a>
</g>
</g>
<!-- R144&#45;&gt;R55 -->
<g id="edge7" class="edge">
<title>R144&#45;&gt;R55</title>
<path fill="none" stroke="green" d="M93.62,-293.94C205.72,-295.19 492.07,-295.26 582,-265.23 587.94,-263.24 593.85,-260.43 599.46,-257.23"/>
<polygon fill="green" stroke="green" points="600.94,-259.81 607.58,-251.55 597.24,-253.86 600.94,-259.81"/>
<text text-anchor="middle" x="342.5" y="-303.23" font-family="Times New Roman,serif" font-size="30.00"> &#160;&#160;196 &#160;&#160;0% &#160;&#160;5.21e&#45;08 mol/s &#160;&#160;&#160;4.71E&#45;01</text>
</g>
<!-- R145 -->
<g id="node9" class="node">
<title>R145</title>
<g id="a_node9"><a xlink:href="145.svg" xlink:title="R145">
<polygon fill="azure" stroke="none" points="94,-251.73 0,-251.73 0,-204.73 94,-204.73 94,-251.73"/>
<text text-anchor="middle" x="47" y="-219.73" font-family="Times New Roman,serif" font-size="35.00">R145</text>
</a>
</g>
</g>
<!-- R145&#45;&gt;R55 -->
<g id="edge8" class="edge">
<title>R145&#45;&gt;R55</title>
<path fill="none" stroke="black" d="M93.73,-228.23C202.96,-228.23 478.21,-228.23 589.36,-228.23"/>
<polygon fill="black" stroke="black" points="589.21,-231.73 599.21,-228.23 589.21,-224.73 589.21,-231.73"/>
<text text-anchor="middle" x="342.5" y="-237.23" font-family="Times New Roman,serif" font-size="30.00"> &#160;&#160;197 &#160;&#160;0% &#160;&#160;7.17e&#45;06 mol/s &#160;&#160;&#160;5.33E&#45;02</text>
</g>
<!-- R146 -->
<g id="node10" class="node">
<title>R146</title>
<g id="a_node10"><a xlink:href="146.svg" xlink:title="R146">
<polygon fill="azure" stroke="none" points="94,-186.73 0,-186.73 0,-139.73 94,-139.73 94,-186.73"/>
<text text-anchor="middle" x="47" y="-154.73" font-family="Times New Roman,serif" font-size="35.00">R146</text>
</a>
</g>
</g>
<!-- R146&#45;&gt;R55 -->
<g id="edge9" class="edge">
<title>R146&#45;&gt;R55</title>
<path fill="none" stroke="black" stroke-width="5" d="M93.62,-162.52C205.72,-161.27 492.07,-161.2 582,-191.23 584.9,-192.2 587.79,-193.36 590.64,-194.68"/>
<polygon fill="black" stroke="black" stroke-width="5" points="581.88,-199.6 603.58,-201.91 590.54,-184.4 581.88,-199.6"/>
<text text-anchor="middle" x="342.5" y="-200.23" font-family="Times New Roman,serif" font-size="30.00"> &#160;&#160;198 &#160;&#160;99% &#160;&#160;1120.0 mol/s &#160;&#160;&#160;3.81E&#45;10</text>
</g>
<!-- R130 -->
<g id="node12" class="node">
<title>R130</title>
<g id="a_node12"><a xlink:href="130.svg" xlink:title="R130">
<polygon fill="azure" stroke="none" points="94,-102.73 0,-102.73 0,-55.73 94,-55.73 94,-102.73"/>
<text text-anchor="middle" x="47" y="-70.73" font-family="Times New Roman,serif" font-size="35.00">R130</text>
</a>
</g>
</g>
<!-- R130&#45;&gt;R55 -->
<g id="edge11" class="edge">
<title>R130&#45;&gt;R55</title>
<path fill="none" stroke="black" d="M93.76,-92.46C96.87,-93.13 99.97,-93.73 103,-94.23 155.61,-102.96 537.2,-95.3 582,-124.23 606.55,-140.09 620.84,-170.71 628.67,-194.63"/>
<polygon fill="black" stroke="black" points="625.58,-195.52 631.82,-204.08 632.28,-193.49 625.58,-195.52"/>
<text text-anchor="middle" x="342.5" y="-133.23" font-family="Times New Roman,serif" font-size="30.00"> &#160;&#160;443 &#160;&#160;0% &#160;&#160;0.0032 mol/s &#160;&#160;&#160;1.45E&#45;01</text>
</g>
<!-- R130&#45;&gt;R55 -->
<g id="edge13" class="edge">
<title>R130&#45;&gt;R55</title>
<path fill="none" stroke="black" d="M93.81,-60.12C193.48,-21.91 432.97,51.39 582,-57.23 624.87,-88.47 635.05,-153.7 637.06,-193.95"/>
<polygon fill="black" stroke="black" points="633.59,-193.96 637.43,-203.84 640.59,-193.72 633.59,-193.96"/>
<text text-anchor="middle" x="342.5" y="-66.23" font-family="Times New Roman,serif" font-size="30.00"> &#160;&#160;658 &#160;&#160;0% &#160;&#160;0.000543 mol/s &#160;&#160;&#160;8.55E&#45;01</text>
</g>
</g>
</svg>
