<?xml version="1.0" encoding="UTF-8" standalone="no"?>
<!DOCTYPE svg PUBLIC "-//W3C//DTD SVG 1.1//EN"
 "http://www.w3.org/Graphics/SVG/1.1/DTD/svg11.dtd">
<!-- Generated by graphviz version 8.0.3 (20230416.2022)
 -->
<!-- Title: G Pages: 1 -->
<svg width="640pt" height="365pt"
 viewBox="0.00 0.00 720.00 410.67" xmlns="http://www.w3.org/2000/svg" xmlns:xlink="http://www.w3.org/1999/xlink">
<g id="graph0" class="graph" transform="scale(0.492308 0.492308) rotate(0) translate(4 737.49)">
<title>G</title>
<polygon fill="white" stroke="none" points="-4,4 -4,-737.49 1296,-737.49 1296,4 -4,4"/>
<text text-anchor="middle" x="646" y="-700.69" font-family="Arial" font-size="36.00" fill="blue">Reaction Path Analysis</text>
<!-- R61 -->
<g id="node1" class="node">
<title>R61</title>
<g id="a_node1"><a xlink:href="61.svg" xlink:title="R61">
<polygon fill="azure" stroke="none" points="684,-343.99 608,-343.99 608,-296.99 684,-296.99 684,-343.99"/>
<text text-anchor="middle" x="646" y="-311.99" font-family="Times New Roman,serif" font-size="35.00">R61</text>
</a>
</g>
</g>
<!-- R4 -->
<g id="node2" class="node">
<title>R4</title>
<g id="a_node2"><a xlink:href="4.svg" xlink:title="R4">
<polygon fill="azure" stroke="none" points="1274,-659.99 1216,-659.99 1216,-612.99 1274,-612.99 1274,-659.99"/>
<text text-anchor="middle" x="1245" y="-627.99" font-family="Times New Roman,serif" font-size="35.00">R4</text>
</a>
</g>
</g>
<!-- R61&#45;&gt;R4 -->
<g id="edge1" class="edge">
<title>R61&#45;&gt;R4</title>
<path fill="none" stroke="black" d="M647.87,-343.93C650.72,-406.44 662.03,-574.7 702,-609.49 776.71,-674.52 1094.37,-650.94 1205.46,-640.43"/>
<polygon fill="black" stroke="black" points="1205.54,-643.85 1215.16,-639.4 1204.87,-636.88 1205.54,-643.85"/>
<text text-anchor="middle" x="945.5" y="-661.49" font-family="Times New Roman,serif" font-size="30.00"> &#160;&#160;67 &#160;&#160;0% &#160;&#160;0.00302 mol/s &#160;&#160;&#160;1.42E&#45;04</text>
</g>
<!-- R14 -->
<g id="node3" class="node">
<title>R14</title>
<g id="a_node3"><a xlink:href="14.svg" xlink:title="R14">
<polygon fill="azure" stroke="none" points="1283,-594.99 1207,-594.99 1207,-547.99 1283,-547.99 1283,-594.99"/>
<text text-anchor="middle" x="1245" y="-562.99" font-family="Times New Roman,serif" font-size="35.00">R14</text>
</a>
</g>
</g>
<!-- R61&#45;&gt;R14 -->
<g id="edge2" class="edge">
<title>R61&#45;&gt;R14</title>
<path fill="none" stroke="black" d="M649.29,-343.8C654.9,-395.66 671.18,-518.03 702,-543.49 739.64,-574.57 1071.55,-573.68 1196.61,-572.21"/>
<polygon fill="black" stroke="black" points="1196.4,-575.7 1206.35,-572.08 1196.31,-568.7 1196.4,-575.7"/>
<text text-anchor="middle" x="945.5" y="-581.49" font-family="Times New Roman,serif" font-size="30.00"> &#160;&#160;67 &#160;&#160;0% &#160;&#160;0.00302 mol/s &#160;&#160;&#160;1.42E&#45;04</text>
</g>
<!-- R0 -->
<g id="node4" class="node">
<title>R0</title>
<g id="a_node4"><a xlink:href="0.svg" xlink:title="R0">
<polygon fill="azure" stroke="none" points="1274,-529.99 1216,-529.99 1216,-482.99 1274,-482.99 1274,-529.99"/>
<text text-anchor="middle" x="1245" y="-497.99" font-family="Times New Roman,serif" font-size="35.00">R0</text>
</a>
</g>
</g>
<!-- R61&#45;&gt;R0 -->
<g id="edge3" class="edge">
<title>R61&#45;&gt;R0</title>
<path fill="none" stroke="black" d="M647.5,-343.92C649.65,-379.56 659.48,-446.59 702,-478.49 741.98,-508.48 1088.03,-507.99 1205.32,-506.94"/>
<polygon fill="black" stroke="black" points="1205.29,-510.43 1215.25,-506.84 1205.22,-503.43 1205.29,-510.43"/>
<text text-anchor="middle" x="945.5" y="-515.49" font-family="Times New Roman,serif" font-size="30.00"> &#160;&#160;126 &#160;&#160;0% &#160;&#160;0.000619 mol/s &#160;&#160;&#160;6.90E&#45;04</text>
</g>
<!-- R60 -->
<g id="node5" class="node">
<title>R60</title>
<g id="a_node5"><a xlink:href="60.svg" xlink:title="R60">
<polygon fill="azure" stroke="none" points="1283,-464.99 1207,-464.99 1207,-417.99 1283,-417.99 1283,-464.99"/>
<text text-anchor="middle" x="1245" y="-432.99" font-family="Times New Roman,serif" font-size="35.00">R60</text>
</a>
</g>
</g>
<!-- R61&#45;&gt;R60 -->
<g id="edge4" class="edge">
<title>R61&#45;&gt;R60</title>
<path fill="none" stroke="black" d="M653.42,-343.86C660.98,-366.48 675.96,-399.63 702,-415.49 743.64,-440.84 1072.32,-442.19 1196.61,-441.78"/>
<polygon fill="black" stroke="black" points="1196.31,-445.28 1206.29,-441.74 1196.28,-438.28 1196.31,-445.28"/>
<text text-anchor="middle" x="945.5" y="-450.49" font-family="Times New Roman,serif" font-size="30.00"> &#160;&#160;126 &#160;&#160;0% &#160;&#160;0.000619 mol/s &#160;&#160;&#160;6.90E&#45;04</text>
</g>
<!-- R99 -->
<g id="node6" class="node">
<title>R99</title>
<g id="a_node6"><a xlink:href="99.svg" xlink:title="R99">
<polygon fill="azure" stroke="none" points="1283,-399.99 1207,-399.99 1207,-352.99 1283,-352.99 1283,-399.99"/>
<text text-anchor="middle" x="1245" y="-367.99" font-family="Times New Roman,serif" font-size="35.00">R99</text>
</a>
</g>
</g>
<!-- R61&#45;&gt;R99 -->
<g id="edge5" class="edge">
<title>R61&#45;&gt;R99</title>
<path fill="none" stroke="black" d="M678.83,-343.92C686.11,-348.19 694.06,-352.06 702,-354.49 793.61,-382.54 1082,-379.9 1196.48,-377.63"/>
<polygon fill="black" stroke="black" points="1196.4,-381.11 1206.33,-377.41 1196.26,-374.11 1196.4,-381.11"/>
<text text-anchor="middle" x="945.5" y="-387.49" font-family="Times New Roman,serif" font-size="30.00"> &#160;&#160;128 &#160;&#160;0% &#160;&#160;4.24e&#45;07 mol/s &#160;&#160;&#160;9.91E&#45;01</text>
</g>
<!-- R100 -->
<g id="node7" class="node">
<title>R100</title>
<g id="a_node7"><a xlink:href="100.svg" xlink:title="R100">
<polygon fill="azure" stroke="none" points="1292,-334.99 1198,-334.99 1198,-287.99 1292,-287.99 1292,-334.99"/>
<text text-anchor="middle" x="1245" y="-302.99" font-family="Times New Roman,serif" font-size="35.00">R100</text>
</a>
</g>
</g>
<!-- R61&#45;&gt;R100 -->
<g id="edge6" class="edge">
<title>R61&#45;&gt;R100</title>
<path fill="none" stroke="black" d="M683.89,-319.93C784.85,-318.41 1066.13,-314.17 1187.29,-312.34"/>
<polygon fill="black" stroke="black" points="1187.21,-315.83 1197.16,-312.18 1187.11,-308.83 1187.21,-315.83"/>
<text text-anchor="middle" x="945.5" y="-328.49" font-family="Times New Roman,serif" font-size="30.00"> &#160;&#160;129 &#160;&#160;0% &#160;&#160;3.88e&#45;07 mol/s &#160;&#160;&#160;9.15E&#45;01</text>
</g>
<!-- R152 -->
<g id="node8" class="node">
<title>R152</title>
<g id="a_node8"><a xlink:href="152.svg" xlink:title="R152">
<polygon fill="azure" stroke="none" points="1292,-269.99 1198,-269.99 1198,-222.99 1292,-222.99 1292,-269.99"/>
<text text-anchor="middle" x="1245" y="-237.99" font-family="Times New Roman,serif" font-size="35.00">R152</text>
</a>
</g>
</g>
<!-- R61&#45;&gt;R152 -->
<g id="edge7" class="edge">
<title>R61&#45;&gt;R152</title>
<path fill="none" stroke="black" d="M668.35,-297.07C677.74,-288.35 689.49,-279.4 702,-274.49 789.07,-240.31 1067.12,-242.3 1187.52,-244.92"/>
<polygon fill="black" stroke="black" points="1187.25,-248.44 1197.33,-245.17 1187.41,-241.44 1187.25,-248.44"/>
<text text-anchor="middle" x="945.5" y="-283.49" font-family="Times New Roman,serif" font-size="30.00"> &#160;&#160;204 &#160;&#160;0% &#160;&#160;4.27e&#45;07 mol/s &#160;&#160;&#160;9.97E&#45;01</text>
</g>
<!-- R248 -->
<g id="node11" class="node">
<title>R248</title>
<g id="a_node11"><a xlink:href="248.svg" xlink:title="R248">
<polygon fill="azure" stroke="none" points="1292,-194.99 1198,-194.99 1198,-147.99 1292,-147.99 1292,-194.99"/>
<text text-anchor="middle" x="1245" y="-162.99" font-family="Times New Roman,serif" font-size="35.00">R248</text>
</a>
</g>
</g>
<!-- R61&#45;&gt;R248 -->
<g id="edge10" class="edge">
<title>R61&#45;&gt;R248</title>
<path fill="none" stroke="black" d="M651.06,-297.21C657.07,-270.48 671.17,-227.71 702,-207.49 745.17,-179.18 1099.85,-193.34 1187.35,-186.03"/>
<polygon fill="black" stroke="black" points="1187.71,-189.39 1197.25,-184.79 1186.92,-182.44 1187.71,-189.39"/>
<text text-anchor="middle" x="945.5" y="-216.49" font-family="Times New Roman,serif" font-size="30.00"> &#160;&#160;446 &#160;&#160;0% &#160;&#160;0.000654 mol/s &#160;&#160;&#160;1.00E+00</text>
</g>
<!-- R61&#45;&gt;R248 -->
<g id="edge13" class="edge">
<title>R61&#45;&gt;R248</title>
<path fill="none" stroke="black" d="M646.57,-297.09C647.29,-258.84 655,-183.74 702,-149.49 743.72,-119.08 1100.78,-137.38 1187.59,-149.92"/>
<polygon fill="black" stroke="black" points="1186.73,-153.5 1197.17,-151.69 1187.88,-146.59 1186.73,-153.5"/>
<text text-anchor="middle" x="945.5" y="-158.49" font-family="Times New Roman,serif" font-size="30.00"> &#160;&#160;721 &#160;&#160;16% &#160;&#160;3.36 mol/s &#160;&#160;&#160;1.95E&#45;04</text>
</g>
<!-- R163 -->
<g id="node12" class="node">
<title>R163</title>
<g id="a_node12"><a xlink:href="163.svg" xlink:title="R163">
<polygon fill="azure" stroke="none" points="1292,-91.99 1198,-91.99 1198,-44.99 1292,-44.99 1292,-91.99"/>
<text text-anchor="middle" x="1245" y="-59.99" font-family="Times New Roman,serif" font-size="35.00">R163</text>
</a>
</g>
</g>
<!-- R61&#45;&gt;R163 -->
<g id="edge11" class="edge">
<title>R61&#45;&gt;R163</title>
<path fill="none" stroke="black" d="M649.26,-297.06C654.81,-244.94 670.98,-121.97 702,-96.49 721.66,-80.34 1110.36,-76.95 1187.3,-74.23"/>
<polygon fill="black" stroke="black" points="1187.28,-77.69 1197.1,-73.71 1186.95,-70.7 1187.28,-77.69"/>
<text text-anchor="middle" x="945.5" y="-105.49" font-family="Times New Roman,serif" font-size="30.00"> &#160;&#160;447 &#160;&#160;0% &#160;&#160;0.000654 mol/s &#160;&#160;&#160;1.00E+00</text>
</g>
<!-- R61&#45;&gt;R163 -->
<g id="edge12" class="edge">
<title>R61&#45;&gt;R163</title>
<path fill="none" stroke="black" stroke-width="5" d="M647.86,-297.42C650.68,-235.93 661.93,-70.52 702,-37.49 781.27,27.86 1054.53,-6.1 1188.23,-39.66"/>
<polygon fill="black" stroke="black" stroke-width="5" points="1180.86,-47.36 1202.44,-44.03 1185.36,-30.44 1180.86,-47.36"/>
<text text-anchor="middle" x="945.5" y="-46.49" font-family="Times New Roman,serif" font-size="30.00"> &#160;&#160;685 &#160;&#160;82% &#160;&#160;16.4 mol/s &#160;&#160;&#160;3.98E&#45;05</text>
</g>
<!-- R153 -->
<g id="node9" class="node">
<title>R153</title>
<g id="a_node9"><a xlink:href="153.svg" xlink:title="R153">
<polygon fill="azure" stroke="none" points="94,-376.99 0,-376.99 0,-329.99 94,-329.99 94,-376.99"/>
<text text-anchor="middle" x="47" y="-344.99" font-family="Times New Roman,serif" font-size="35.00">R153</text>
</a>
</g>
</g>
<!-- R153&#45;&gt;R61 -->
<g id="edge8" class="edge">
<title>R153&#45;&gt;R61</title>
<path fill="none" stroke="black" d="M93.88,-354.04C187.5,-354.65 407.19,-353.34 590,-331.49 592.4,-331.2 594.84,-330.87 597.31,-330.5"/>
<polygon fill="black" stroke="black" points="597.86,-333.79 607.15,-328.68 596.71,-326.88 597.86,-333.79"/>
<text text-anchor="middle" x="346.5" y="-362.49" font-family="Times New Roman,serif" font-size="30.00"> &#160;&#160;205 &#160;&#160;11% &#160;&#160;1.89e&#45;05 mol/s &#160;&#160;&#160;2.17E&#45;02</text>
</g>
<!-- R154 -->
<g id="node10" class="node">
<title>R154</title>
<g id="a_node10"><a xlink:href="154.svg" xlink:title="R154">
<polygon fill="azure" stroke="none" points="94,-311.99 0,-311.99 0,-264.99 94,-264.99 94,-311.99"/>
<text text-anchor="middle" x="47" y="-279.99" font-family="Times New Roman,serif" font-size="35.00">R154</text>
</a>
</g>
</g>
<!-- R154&#45;&gt;R61 -->
<g id="edge9" class="edge">
<title>R154&#45;&gt;R61</title>
<path fill="none" stroke="black" stroke-width="5" d="M93.93,-283.82C184.88,-275.74 394.45,-262.9 587.82,-299.61"/>
<polygon fill="black" stroke="black" stroke-width="5" points="580.96,-307.36 602.28,-302.7 584.38,-290.2 580.96,-307.36"/>
<text text-anchor="middle" x="346.5" y="-307.49" font-family="Times New Roman,serif" font-size="30.00"> &#160;&#160;206 &#160;&#160;88% &#160;&#160;0.00015 mol/s &#160;&#160;&#160;2.83E&#45;03</text>
</g>
</g>
</svg>
