<?xml version="1.0" encoding="UTF-8" standalone="no"?>
<!DOCTYPE svg PUBLIC "-//W3C//DTD SVG 1.1//EN"
 "http://www.w3.org/Graphics/SVG/1.1/DTD/svg11.dtd">
<!-- Generated by graphviz version 8.0.3 (20230416.2022)
 -->
<!-- Title: G Pages: 1 -->
<svg width="640pt" height="273pt"
 viewBox="0.00 0.00 720.00 306.83" xmlns="http://www.w3.org/2000/svg" xmlns:xlink="http://www.w3.org/1999/xlink">
<g id="graph0" class="graph" transform="scale(0.487062 0.487062) rotate(0) translate(4 555.96)">
<title>G</title>
<polygon fill="white" stroke="none" points="-4,4 -4,-555.96 1310,-555.96 1310,4 -4,4"/>
<text text-anchor="middle" x="653" y="-519.16" font-family="Arial" font-size="36.00" fill="blue">Reaction Path Analysis</text>
<!-- R70 -->
<g id="node1" class="node">
<title>R70</title>
<g id="a_node1"><a xlink:href="70.svg" xlink:title="R70">
<polygon fill="azure" stroke="none" points="691,-253.46 615,-253.46 615,-206.46 691,-206.46 691,-253.46"/>
<text text-anchor="middle" x="653" y="-221.46" font-family="Times New Roman,serif" font-size="35.00">R70</text>
</a>
</g>
</g>
<!-- R104 -->
<g id="node7" class="node">
<title>R104</title>
<g id="a_node7"><a xlink:href="104.svg" xlink:title="R104">
<polygon fill="azure" stroke="none" points="1306,-309.46 1212,-309.46 1212,-262.46 1306,-262.46 1306,-309.46"/>
<text text-anchor="middle" x="1259" y="-277.46" font-family="Times New Roman,serif" font-size="35.00">R104</text>
</a>
</g>
</g>
<!-- R70&#45;&gt;R104 -->
<g id="edge6" class="edge">
<title>R70&#45;&gt;R104</title>
<path fill="none" stroke="black" d="M685.82,-253.4C693.11,-257.67 701.06,-261.53 709,-263.96 881.98,-316.88 1099.95,-303.47 1201.33,-292.96"/>
<polygon fill="black" stroke="black" points="1201.66,-296.34 1211.23,-291.8 1200.91,-289.38 1201.66,-296.34"/>
<text text-anchor="middle" x="956" y="-310.96" font-family="Times New Roman,serif" font-size="30.00"> &#160;&#160;137 &#160;&#160;0% &#160;&#160;2.6e&#45;07 mol/s &#160;&#160;&#160;7.18E&#45;01</text>
</g>
<!-- R76 -->
<g id="node8" class="node">
<title>R76</title>
<g id="a_node8"><a xlink:href="76.svg" xlink:title="R76">
<polygon fill="azure" stroke="none" points="1297,-221.46 1221,-221.46 1221,-174.46 1297,-174.46 1297,-221.46"/>
<text text-anchor="middle" x="1259" y="-189.46" font-family="Times New Roman,serif" font-size="35.00">R76</text>
</a>
</g>
</g>
<!-- R70&#45;&gt;R76 -->
<g id="edge7" class="edge">
<title>R70&#45;&gt;R76</title>
<path fill="none" stroke="black" stroke-width="2" d="M690.75,-230.26C779.24,-230.59 1011,-229.16 1203,-207.96 1205.39,-207.7 1207.83,-207.39 1210.3,-207.05"/>
<polygon fill="black" stroke="black" stroke-width="2" points="1209.77,-210.37 1219.12,-205.4 1208.71,-203.45 1209.77,-210.37"/>
<text text-anchor="middle" x="956" y="-238.96" font-family="Times New Roman,serif" font-size="30.00"> &#160;&#160;454 &#160;&#160;25% &#160;&#160;0.000431 mol/s &#160;&#160;&#160;7.46E&#45;01</text>
</g>
<!-- R70&#45;&gt;R76 -->
<g id="edge9" class="edge">
<title>R70&#45;&gt;R76</title>
<path fill="none" stroke="black" stroke-width="4" d="M668.5,-206.73C678.17,-193.56 692.18,-178.28 709,-170.96 904.34,-86.01 984.33,-119.15 1200.94,-172.19"/>
<polygon fill="black" stroke="black" stroke-width="4" points="1195.19,-178.21 1216.28,-176.13 1198.49,-164.61 1195.19,-178.21"/>
<text text-anchor="middle" x="956" y="-179.96" font-family="Times New Roman,serif" font-size="30.00"> &#160;&#160;461 &#160;&#160;74% &#160;&#160;0.00127 mol/s &#160;&#160;&#160;2.54E&#45;01</text>
</g>
<!-- R6 -->
<g id="node2" class="node">
<title>R6</title>
<g id="a_node2"><a xlink:href="6.svg" xlink:title="R6">
<polygon fill="azure" stroke="none" points="76,-448.46 18,-448.46 18,-401.46 76,-401.46 76,-448.46"/>
<text text-anchor="middle" x="47" y="-416.46" font-family="Times New Roman,serif" font-size="35.00">R6</text>
</a>
</g>
</g>
<!-- R6&#45;&gt;R70 -->
<g id="edge1" class="edge">
<title>R6&#45;&gt;R70</title>
<path fill="none" stroke="black" d="M75.89,-433.38C163.29,-457.92 435.58,-520.13 597,-396.96 637.97,-365.7 648.82,-303.04 651.46,-263.99"/>
<polygon fill="black" stroke="black" points="655,-264.34 652.03,-254.17 648.01,-263.97 655,-264.34"/>
<text text-anchor="middle" x="350" y="-479.96" font-family="Times New Roman,serif" font-size="30.00"> &#160;&#160;76 &#160;&#160;0% &#160;&#160;4.23e&#45;07 mol/s &#160;&#160;&#160;9.89E&#45;01</text>
</g>
<!-- R14 -->
<g id="node3" class="node">
<title>R14</title>
<g id="a_node3"><a xlink:href="14.svg" xlink:title="R14">
<polygon fill="azure" stroke="none" points="85,-383.46 9,-383.46 9,-336.46 85,-336.46 85,-383.46"/>
<text text-anchor="middle" x="47" y="-351.46" font-family="Times New Roman,serif" font-size="35.00">R14</text>
</a>
</g>
</g>
<!-- R14&#45;&gt;R70 -->
<g id="edge2" class="edge">
<title>R14&#45;&gt;R70</title>
<path fill="none" stroke="black" d="M84.81,-360.23C200.87,-360.79 553.97,-360.22 597,-332.96 621.35,-317.53 635.62,-287.46 643.5,-263.77"/>
<polygon fill="black" stroke="black" points="647.09,-265 646.68,-254.42 640.4,-262.95 647.09,-265"/>
<text text-anchor="middle" x="350" y="-368.96" font-family="Times New Roman,serif" font-size="30.00"> &#160;&#160;76 &#160;&#160;0% &#160;&#160;4.23e&#45;07 mol/s &#160;&#160;&#160;9.89E&#45;01</text>
</g>
<!-- R0 -->
<g id="node4" class="node">
<title>R0</title>
<g id="a_node4"><a xlink:href="0.svg" xlink:title="R0">
<polygon fill="azure" stroke="none" points="76,-318.46 18,-318.46 18,-271.46 76,-271.46 76,-318.46"/>
<text text-anchor="middle" x="47" y="-286.46" font-family="Times New Roman,serif" font-size="35.00">R0</text>
</a>
</g>
</g>
<!-- R0&#45;&gt;R70 -->
<g id="edge3" class="edge">
<title>R0&#45;&gt;R70</title>
<path fill="none" stroke="black" d="M75.84,-295.5C173.35,-297.06 498.87,-299.65 597,-266.96 602.95,-264.98 608.85,-262.17 614.46,-258.97"/>
<polygon fill="black" stroke="black" points="615.94,-261.55 622.59,-253.3 612.25,-255.6 615.94,-261.55"/>
<text text-anchor="middle" x="350" y="-304.96" font-family="Times New Roman,serif" font-size="30.00"> &#160;&#160;134 &#160;&#160;0% &#160;&#160;4.22e&#45;07 mol/s &#160;&#160;&#160;9.87E&#45;01</text>
</g>
<!-- R68 -->
<g id="node5" class="node">
<title>R68</title>
<g id="a_node5"><a xlink:href="68.svg" xlink:title="R68">
<polygon fill="azure" stroke="none" points="85,-253.46 9,-253.46 9,-206.46 85,-206.46 85,-253.46"/>
<text text-anchor="middle" x="47" y="-221.46" font-family="Times New Roman,serif" font-size="35.00">R68</text>
</a>
</g>
</g>
<!-- R68&#45;&gt;R70 -->
<g id="edge4" class="edge">
<title>R68&#45;&gt;R70</title>
<path fill="none" stroke="black" d="M84.87,-229.96C189.46,-229.96 487.94,-229.96 604.52,-229.96"/>
<polygon fill="black" stroke="black" points="604.23,-233.46 614.23,-229.96 604.23,-226.46 604.23,-233.46"/>
<text text-anchor="middle" x="350" y="-238.96" font-family="Times New Roman,serif" font-size="30.00"> &#160;&#160;134 &#160;&#160;0% &#160;&#160;4.22e&#45;07 mol/s &#160;&#160;&#160;9.87E&#45;01</text>
</g>
<!-- R103 -->
<g id="node6" class="node">
<title>R103</title>
<g id="a_node6"><a xlink:href="103.svg" xlink:title="R103">
<polygon fill="azure" stroke="none" points="94,-188.46 0,-188.46 0,-141.46 94,-141.46 94,-188.46"/>
<text text-anchor="middle" x="47" y="-156.46" font-family="Times New Roman,serif" font-size="35.00">R103</text>
</a>
</g>
</g>
<!-- R103&#45;&gt;R70 -->
<g id="edge5" class="edge">
<title>R103&#45;&gt;R70</title>
<path fill="none" stroke="black" d="M93.63,-164.17C207.98,-162.69 504.19,-162.04 597,-192.96 602.95,-194.94 608.85,-197.76 614.46,-200.96"/>
<polygon fill="black" stroke="black" points="612.25,-204.32 622.59,-206.63 615.94,-198.38 612.25,-204.32"/>
<text text-anchor="middle" x="350" y="-201.96" font-family="Times New Roman,serif" font-size="30.00"> &#160;&#160;136 &#160;&#160;0% &#160;&#160;1.76e&#45;06 mol/s &#160;&#160;&#160;1.63E&#45;01</text>
</g>
<!-- R140 -->
<g id="node9" class="node">
<title>R140</title>
<g id="a_node9"><a xlink:href="140.svg" xlink:title="R140">
<polygon fill="azure" stroke="none" points="94,-104.46 0,-104.46 0,-57.46 94,-57.46 94,-104.46"/>
<text text-anchor="middle" x="47" y="-72.46" font-family="Times New Roman,serif" font-size="35.00">R140</text>
</a>
</g>
</g>
<!-- R140&#45;&gt;R70 -->
<g id="edge8" class="edge">
<title>R140&#45;&gt;R70</title>
<path fill="none" stroke="black" stroke-width="5" d="M93.76,-94.2C96.87,-94.86 99.97,-95.46 103,-95.96 157.26,-104.91 550.78,-96.17 597,-125.96 618.47,-139.8 632.08,-164.93 640.4,-187.02"/>
<polygon fill="black" stroke="black" stroke-width="5" points="631.33,-185.49 645.83,-201.8 647.97,-180.08 631.33,-185.49"/>
<text text-anchor="middle" x="350" y="-134.96" font-family="Times New Roman,serif" font-size="30.00"> &#160;&#160;455 &#160;&#160;83% &#160;&#160;0.00267 mol/s &#160;&#160;&#160;1.64E&#45;01</text>
</g>
<!-- R140&#45;&gt;R70 -->
<g id="edge10" class="edge">
<title>R140&#45;&gt;R70</title>
<path fill="none" stroke="black" d="M93.95,-61.84C195.71,-22.85 443.21,53.12 597,-58.96 639.87,-90.21 650.05,-155.43 652.06,-195.68"/>
<polygon fill="black" stroke="black" points="648.59,-195.7 652.43,-205.57 655.59,-195.46 648.59,-195.7"/>
<text text-anchor="middle" x="350" y="-67.96" font-family="Times New Roman,serif" font-size="30.00"> &#160;&#160;666 &#160;&#160;16% &#160;&#160;0.000525 mol/s &#160;&#160;&#160;8.36E&#45;01</text>
</g>
</g>
</svg>
