<?xml version="1.0" encoding="UTF-8" standalone="no"?>
<!DOCTYPE svg PUBLIC "-//W3C//DTD SVG 1.1//EN"
 "http://www.w3.org/Graphics/SVG/1.1/DTD/svg11.dtd">
<!-- Generated by graphviz version 8.0.3 (20230416.2022)
 -->
<!-- Title: G Pages: 1 -->
<svg width="608pt" height="491pt"
 viewBox="0.00 0.00 684.00 551.93" xmlns="http://www.w3.org/2000/svg" xmlns:xlink="http://www.w3.org/1999/xlink">
<g id="graph0" class="graph" transform="scale(0.888889 0.888889) rotate(0) translate(4 547.93)">
<title>G</title>
<polygon fill="white" stroke="none" points="-4,4 -4,-547.93 680,-547.93 680,4 -4,4"/>
<text text-anchor="middle" x="338" y="-511.13" font-family="Arial" font-size="36.00" fill="blue">Reaction Path Analysis</text>
<!-- R74 -->
<g id="node1" class="node">
<title>R74</title>
<g id="a_node1"><a xlink:href="74.svg" xlink:title="R74">
<polygon fill="azure" stroke="none" points="76,-258.43 0,-258.43 0,-211.43 76,-211.43 76,-258.43"/>
<text text-anchor="middle" x="38" y="-226.43" font-family="Times New Roman,serif" font-size="35.00">R74</text>
</a>
</g>
</g>
<!-- R7 -->
<g id="node2" class="node">
<title>R7</title>
<g id="a_node2"><a xlink:href="7.svg" xlink:title="R7">
<polygon fill="azure" stroke="none" points="658,-472.43 600,-472.43 600,-425.43 658,-425.43 658,-472.43"/>
<text text-anchor="middle" x="629" y="-440.43" font-family="Times New Roman,serif" font-size="35.00">R7</text>
</a>
</g>
</g>
<!-- R74&#45;&gt;R7 -->
<g id="edge1" class="edge">
<title>R74&#45;&gt;R7</title>
<path fill="none" stroke="black" d="M38.01,-258.2C37.7,-298.84 43.64,-382.23 94,-421.93 170.39,-482.16 479.61,-461.87 589.23,-452.53"/>
<polygon fill="black" stroke="black" points="589.44,-455.94 599.1,-451.59 588.84,-448.97 589.44,-455.94"/>
<text text-anchor="middle" x="333.5" y="-471.93" font-family="Times New Roman,serif" font-size="30.00"> &#160;&#160;80 &#160;&#160;0% &#160;&#160;0.000825 mol/s &#160;&#160;&#160;5.18E&#45;04</text>
</g>
<!-- R14 -->
<g id="node3" class="node">
<title>R14</title>
<g id="a_node3"><a xlink:href="14.svg" xlink:title="R14">
<polygon fill="azure" stroke="none" points="667,-407.43 591,-407.43 591,-360.43 667,-360.43 667,-407.43"/>
<text text-anchor="middle" x="629" y="-375.43" font-family="Times New Roman,serif" font-size="35.00">R14</text>
</a>
</g>
</g>
<!-- R74&#45;&gt;R14 -->
<g id="edge2" class="edge">
<title>R74&#45;&gt;R14</title>
<path fill="none" stroke="black" d="M41.88,-258.27C46.86,-287.53 60.06,-336.69 94,-359.93 133.53,-387.01 456.9,-386.02 580.35,-384.62"/>
<polygon fill="black" stroke="black" points="580.36,-388.11 590.31,-384.49 580.27,-381.11 580.36,-388.11"/>
<text text-anchor="middle" x="333.5" y="-393.93" font-family="Times New Roman,serif" font-size="30.00"> &#160;&#160;80 &#160;&#160;0% &#160;&#160;0.000825 mol/s &#160;&#160;&#160;5.18E&#45;04</text>
</g>
<!-- R0 -->
<g id="node4" class="node">
<title>R0</title>
<g id="a_node4"><a xlink:href="0.svg" xlink:title="R0">
<polygon fill="azure" stroke="none" points="658,-342.43 600,-342.43 600,-295.43 658,-295.43 658,-342.43"/>
<text text-anchor="middle" x="629" y="-310.43" font-family="Times New Roman,serif" font-size="35.00">R0</text>
</a>
</g>
</g>
<!-- R74&#45;&gt;R0 -->
<g id="edge3" class="edge">
<title>R74&#45;&gt;R0</title>
<path fill="none" stroke="black" d="M55.27,-258.42C64.99,-270.42 78.47,-283.93 94,-290.93 182.4,-330.77 482.08,-324.24 589.38,-320.48"/>
<polygon fill="black" stroke="black" points="589.46,-323.95 599.33,-320.09 589.21,-316.95 589.46,-323.95"/>
<text text-anchor="middle" x="333.5" y="-331.93" font-family="Times New Roman,serif" font-size="30.00"> &#160;&#160;138 &#160;&#160;0% &#160;&#160;2.01e&#45;06 mol/s &#160;&#160;&#160;1.49E&#45;01</text>
</g>
<!-- R73 -->
<g id="node5" class="node">
<title>R73</title>
<g id="a_node5"><a xlink:href="73.svg" xlink:title="R73">
<polygon fill="azure" stroke="none" points="667,-277.43 591,-277.43 591,-230.43 667,-230.43 667,-277.43"/>
<text text-anchor="middle" x="629" y="-245.43" font-family="Times New Roman,serif" font-size="35.00">R73</text>
</a>
</g>
</g>
<!-- R74&#45;&gt;R73 -->
<g id="edge4" class="edge">
<title>R74&#45;&gt;R73</title>
<path fill="none" stroke="black" d="M75.94,-239.4C81.97,-240 88.15,-240.54 94,-240.93 273.17,-252.86 486.8,-254.18 580.26,-254.12"/>
<polygon fill="black" stroke="black" points="580.05,-257.62 590.05,-254.1 580.04,-250.62 580.05,-257.62"/>
<text text-anchor="middle" x="333.5" y="-262.93" font-family="Times New Roman,serif" font-size="30.00"> &#160;&#160;138 &#160;&#160;0% &#160;&#160;2.01e&#45;06 mol/s &#160;&#160;&#160;1.49E&#45;01</text>
</g>
<!-- R315 -->
<g id="node6" class="node">
<title>R315</title>
<g id="a_node6"><a xlink:href="315.svg" xlink:title="R315">
<polygon fill="azure" stroke="none" points="676,-193.43 582,-193.43 582,-146.43 676,-146.43 676,-193.43"/>
<text text-anchor="middle" x="629" y="-161.43" font-family="Times New Roman,serif" font-size="35.00">R315</text>
</a>
</g>
</g>
<!-- R74&#45;&gt;R315 -->
<g id="edge5" class="edge">
<title>R74&#45;&gt;R315</title>
<path fill="none" stroke="black" d="M74.92,-211.55C81.08,-208.47 87.57,-205.76 94,-203.93 193.38,-175.74 451.45,-199.62 571.43,-184.75"/>
<polygon fill="black" stroke="black" points="571.83,-188.09 581.25,-183.24 570.86,-181.16 571.83,-188.09"/>
<text text-anchor="middle" x="333.5" y="-212.93" font-family="Times New Roman,serif" font-size="30.00"> &#160;&#160;458 &#160;&#160;0% &#160;&#160;0.000653 mol/s &#160;&#160;&#160;9.99E&#45;01</text>
</g>
<!-- R74&#45;&gt;R315 -->
<g id="edge8" class="edge">
<title>R74&#45;&gt;R315</title>
<path fill="none" stroke="black" stroke-width="5" d="M46.44,-211.64C54.5,-190.75 69.58,-161.38 94,-147.93 136.88,-124.31 462,-135.63 561.62,-147.14"/>
<polygon fill="black" stroke="black" stroke-width="5" points="555.12,-155.91 576.17,-150.13 557.64,-138.6 555.12,-155.91"/>
<text text-anchor="middle" x="333.5" y="-156.93" font-family="Times New Roman,serif" font-size="30.00"> &#160;&#160;789 &#160;&#160;91% &#160;&#160;0.887 mol/s &#160;&#160;&#160;7.37E&#45;04</text>
</g>
<!-- R300 -->
<g id="node7" class="node">
<title>R300</title>
<g id="a_node7"><a xlink:href="300.svg" xlink:title="R300">
<polygon fill="azure" stroke="none" points="676,-90.43 582,-90.43 582,-43.43 676,-43.43 676,-90.43"/>
<text text-anchor="middle" x="629" y="-58.43" font-family="Times New Roman,serif" font-size="35.00">R300</text>
</a>
</g>
</g>
<!-- R74&#45;&gt;R300 -->
<g id="edge6" class="edge">
<title>R74&#45;&gt;R300</title>
<path fill="none" stroke="black" d="M40.84,-211.47C44.72,-179.61 56.76,-123.56 94,-96.93 135.31,-67.39 484.76,-76.2 571.31,-72.75"/>
<polygon fill="black" stroke="black" points="571.31,-76.2 581.1,-72.14 570.92,-69.21 571.31,-76.2"/>
<text text-anchor="middle" x="333.5" y="-105.93" font-family="Times New Roman,serif" font-size="30.00"> &#160;&#160;459 &#160;&#160;0% &#160;&#160;0.000649 mol/s &#160;&#160;&#160;9.92E&#45;01</text>
</g>
<!-- R74&#45;&gt;R300 -->
<g id="edge7" class="edge">
<title>R74&#45;&gt;R300</title>
<path fill="none" stroke="black" d="M41.94,-211.5C48.48,-163.63 65.91,-57.32 94,-35.93 178.7,28.53 470.04,-8.92 573,-35.93 576.18,-36.77 579.38,-37.83 582.54,-39.07"/>
<polygon fill="black" stroke="black" points="580.88,-42.61 591.44,-43.48 583.73,-36.21 580.88,-42.61"/>
<text text-anchor="middle" x="333.5" y="-44.93" font-family="Times New Roman,serif" font-size="30.00"> &#160;&#160;779 &#160;&#160;8% &#160;&#160;0.078 mol/s &#160;&#160;&#160;8.25E&#45;03</text>
</g>
</g>
</svg>
