<?xml version="1.0" encoding="UTF-8" standalone="no"?>
<!DOCTYPE svg PUBLIC "-//W3C//DTD SVG 1.1//EN"
 "http://www.w3.org/Graphics/SVG/1.1/DTD/svg11.dtd">
<!-- Generated by graphviz version 8.0.3 (20230416.2022)
 -->
<!-- Title: G Pages: 1 -->
<svg width="640pt" height="175pt"
 viewBox="0.00 0.00 720.00 196.77" xmlns="http://www.w3.org/2000/svg" xmlns:xlink="http://www.w3.org/1999/xlink">
<g id="graph0" class="graph" transform="scale(0.490421 0.490421) rotate(0) translate(4 352.65)">
<title>G</title>
<polygon fill="white" stroke="none" points="-4,4 -4,-352.65 1301,-352.65 1301,4 -4,4"/>
<text text-anchor="middle" x="648.5" y="-315.85" font-family="Arial" font-size="36.00" fill="blue">Reaction Path Analysis</text>
<!-- R83 -->
<g id="node1" class="node">
<title>R83</title>
<g id="a_node1"><a xlink:href="83.svg" xlink:title="R83">
<polygon fill="azure" stroke="none" points="691,-171.15 615,-171.15 615,-124.15 691,-124.15 691,-171.15"/>
<text text-anchor="middle" x="653" y="-139.15" font-family="Times New Roman,serif" font-size="35.00">R83</text>
</a>
</g>
</g>
<!-- R9 -->
<g id="node2" class="node">
<title>R9</title>
<g id="a_node2"><a xlink:href="9.svg" xlink:title="R9">
<polygon fill="azure" stroke="none" points="1288,-204.15 1230,-204.15 1230,-157.15 1288,-157.15 1288,-204.15"/>
<text text-anchor="middle" x="1259" y="-172.15" font-family="Times New Roman,serif" font-size="35.00">R9</text>
</a>
</g>
</g>
<!-- R83&#45;&gt;R9 -->
<g id="edge1" class="edge">
<title>R83&#45;&gt;R9</title>
<path fill="none" stroke="black" stroke-width="6" d="M690.95,-154.27C701.59,-155.95 713.23,-157.59 724,-158.65 902.28,-176.27 1115.4,-179.83 1209.39,-180.51"/>
<polygon fill="black" stroke="black" stroke-width="6" points="1204.07,-191.02 1224.13,-180.63 1204.19,-170.02 1204.07,-191.02"/>
<text text-anchor="middle" x="956" y="-188.65" font-family="Times New Roman,serif" font-size="30.00"> &#160;&#160;89 &#160;&#160;100% &#160;&#160;0.0019 mol/s &#160;&#160;&#160;2.25E&#45;04</text>
</g>
<!-- R14 -->
<g id="node3" class="node">
<title>R14</title>
<g id="a_node3"><a xlink:href="14.svg" xlink:title="R14">
<polygon fill="azure" stroke="none" points="1297,-139.15 1221,-139.15 1221,-92.15 1297,-92.15 1297,-139.15"/>
<text text-anchor="middle" x="1259" y="-107.15" font-family="Times New Roman,serif" font-size="35.00">R14</text>
</a>
</g>
</g>
<!-- R83&#45;&gt;R14 -->
<g id="edge2" class="edge">
<title>R83&#45;&gt;R14</title>
<path fill="none" stroke="black" stroke-width="6" d="M690.94,-133.88C701.47,-130.55 713.06,-127.44 724,-125.65 895.47,-97.7 1102,-105.31 1200.41,-111.4"/>
<polygon fill="black" stroke="black" stroke-width="6" points="1194.45,-121.92 1215.1,-112.75 1195.83,-100.97 1194.45,-121.92"/>
<text text-anchor="middle" x="956" y="-134.65" font-family="Times New Roman,serif" font-size="30.00"> &#160;&#160;89 &#160;&#160;100% &#160;&#160;0.0019 mol/s &#160;&#160;&#160;2.25E&#45;04</text>
</g>
<!-- R0 -->
<g id="node4" class="node">
<title>R0</title>
<g id="a_node4"><a xlink:href="0.svg" xlink:title="R0">
<polygon fill="azure" stroke="none" points="76,-264.15 18,-264.15 18,-217.15 76,-217.15 76,-264.15"/>
<text text-anchor="middle" x="47" y="-232.15" font-family="Times New Roman,serif" font-size="35.00">R0</text>
</a>
</g>
</g>
<!-- R0&#45;&gt;R83 -->
<g id="edge3" class="edge">
<title>R0&#45;&gt;R83</title>
<path fill="none" stroke="black" d="M75.87,-246.46C159.9,-262.49 416.05,-300.59 597,-211.65 611.39,-204.58 623.53,-191.86 632.71,-179.61"/>
<polygon fill="black" stroke="black" points="635.97,-182.06 638.86,-171.86 630.25,-178.03 635.97,-182.06"/>
<text text-anchor="middle" x="350" y="-276.65" font-family="Times New Roman,serif" font-size="30.00"> &#160;&#160;143 &#160;&#160;0% &#160;&#160;4.24e&#45;07 mol/s &#160;&#160;&#160;9.92E&#45;01</text>
</g>
<!-- R81 -->
<g id="node5" class="node">
<title>R81</title>
<g id="a_node5"><a xlink:href="81.svg" xlink:title="R81">
<polygon fill="azure" stroke="none" points="85,-199.15 9,-199.15 9,-152.15 85,-152.15 85,-199.15"/>
<text text-anchor="middle" x="47" y="-167.15" font-family="Times New Roman,serif" font-size="35.00">R81</text>
</a>
</g>
</g>
<!-- R81&#45;&gt;R83 -->
<g id="edge4" class="edge">
<title>R81&#45;&gt;R83</title>
<path fill="none" stroke="black" d="M85,-175.05C173.55,-173.4 404.61,-167.98 597,-153.65 599.37,-153.48 601.8,-153.28 604.26,-153.06"/>
<polygon fill="black" stroke="black" points="604.43,-156.47 614.05,-152.04 603.76,-149.5 604.43,-156.47"/>
<text text-anchor="middle" x="350" y="-183.65" font-family="Times New Roman,serif" font-size="30.00"> &#160;&#160;143 &#160;&#160;0% &#160;&#160;4.24e&#45;07 mol/s &#160;&#160;&#160;9.92E&#45;01</text>
</g>
<!-- R359 -->
<g id="node6" class="node">
<title>R359</title>
<g id="a_node6"><a xlink:href="359.svg" xlink:title="R359">
<polygon fill="azure" stroke="none" points="94,-111.15 0,-111.15 0,-64.15 94,-64.15 94,-111.15"/>
<text text-anchor="middle" x="47" y="-79.15" font-family="Times New Roman,serif" font-size="35.00">R359</text>
</a>
</g>
</g>
<!-- R359&#45;&gt;R83 -->
<g id="edge5" class="edge">
<title>R359&#45;&gt;R83</title>
<path fill="none" stroke="black" stroke-width="5" d="M93.85,-96.49C96.94,-96.93 100.01,-97.32 103,-97.65 206.66,-109.01 463.39,-88.97 595.92,-119"/>
<polygon fill="black" stroke="black" stroke-width="5" points="588.52,-126.68 610.08,-123.26 592.94,-109.75 588.52,-126.68"/>
<text text-anchor="middle" x="350" y="-125.65" font-family="Times New Roman,serif" font-size="30.00"> &#160;&#160;909 &#160;&#160;99% &#160;&#160;0.427 mol/s &#160;&#160;&#160;1.53E&#45;03</text>
</g>
<!-- R359&#45;&gt;R83 -->
<g id="edge6" class="edge">
<title>R359&#45;&gt;R83</title>
<path fill="none" stroke="black" d="M91.16,-64.25C95.08,-62.8 99.06,-61.57 103,-60.65 316.86,-10.99 404.69,45.29 597,-60.65 617.7,-72.05 631.69,-94.89 640.38,-114.3"/>
<polygon fill="black" stroke="black" points="637.48,-115.47 644.56,-123.36 643.95,-112.78 637.48,-115.47"/>
<text text-anchor="middle" x="350" y="-69.65" font-family="Times New Roman,serif" font-size="30.00"> &#160;&#160;1026 &#160;&#160;0% &#160;&#160;0.000653 mol/s &#160;&#160;&#160;9.98E&#45;01</text>
</g>
</g>
</svg>
