<?xml version="1.0" encoding="UTF-8" standalone="no"?>
<!DOCTYPE svg PUBLIC "-//W3C//DTD SVG 1.1//EN"
 "http://www.w3.org/Graphics/SVG/1.1/DTD/svg11.dtd">
<!-- Generated by graphviz version 8.0.3 (20230416.2022)
 -->
<!-- Title: G Pages: 1 -->
<svg width="608pt" height="380pt"
 viewBox="0.00 0.00 684.00 427.60" xmlns="http://www.w3.org/2000/svg" xmlns:xlink="http://www.w3.org/1999/xlink">
<g id="graph0" class="graph" transform="scale(0.888889 0.888889) rotate(0) translate(4 423.6)">
<title>G</title>
<polygon fill="white" stroke="none" points="-4,4 -4,-423.6 680,-423.6 680,4 -4,4"/>
<text text-anchor="middle" x="338" y="-386.8" font-family="Arial" font-size="36.00" fill="blue">Reaction Path Analysis</text>
<!-- R84 -->
<g id="node1" class="node">
<title>R84</title>
<g id="a_node1"><a xlink:href="84.svg" xlink:title="R84">
<polygon fill="azure" stroke="none" points="76,-200.1 0,-200.1 0,-153.1 76,-153.1 76,-200.1"/>
<text text-anchor="middle" x="38" y="-168.1" font-family="Times New Roman,serif" font-size="35.00">R84</text>
</a>
</g>
</g>
<!-- R10 -->
<g id="node2" class="node">
<title>R10</title>
<g id="a_node2"><a xlink:href="10.svg" xlink:title="R10">
<polygon fill="azure" stroke="none" points="667,-349.1 591,-349.1 591,-302.1 667,-302.1 667,-349.1"/>
<text text-anchor="middle" x="629" y="-317.1" font-family="Times New Roman,serif" font-size="35.00">R10</text>
</a>
</g>
</g>
<!-- R84&#45;&gt;R10 -->
<g id="edge1" class="edge">
<title>R84&#45;&gt;R10</title>
<path fill="none" stroke="black" stroke-width="2" d="M41.99,-200C47.08,-229.06 60.38,-277.6 94,-300.6 172.1,-354.04 464.61,-338.21 580.39,-329.55"/>
<polygon fill="black" stroke="black" stroke-width="2" points="578.33,-332.99 588.03,-328.74 577.79,-326.01 578.33,-332.99"/>
<text text-anchor="middle" x="333.5" y="-347.6" font-family="Times New Roman,serif" font-size="30.00"> &#160;&#160;90 &#160;&#160;28% &#160;&#160;0.0134 mol/s &#160;&#160;&#160;3.19E&#45;05</text>
</g>
<!-- R13 -->
<g id="node3" class="node">
<title>R13</title>
<g id="a_node3"><a xlink:href="13.svg" xlink:title="R13">
<polygon fill="azure" stroke="none" points="667,-284.1 591,-284.1 591,-237.1 667,-237.1 667,-284.1"/>
<text text-anchor="middle" x="629" y="-252.1" font-family="Times New Roman,serif" font-size="35.00">R13</text>
</a>
</g>
</g>
<!-- R84&#45;&gt;R13 -->
<g id="edge2" class="edge">
<title>R84&#45;&gt;R13</title>
<path fill="none" stroke="black" stroke-width="2" d="M56.16,-200.08C65.88,-211.43 79.07,-224 94,-230.6 180.3,-268.75 466.13,-265.23 580.29,-262.17"/>
<polygon fill="black" stroke="black" stroke-width="2" points="578.21,-265.64 588.11,-261.86 578.01,-258.64 578.21,-265.64"/>
<text text-anchor="middle" x="333.5" y="-272.6" font-family="Times New Roman,serif" font-size="30.00"> &#160;&#160;90 &#160;&#160;28% &#160;&#160;0.0134 mol/s &#160;&#160;&#160;3.19E&#45;05</text>
</g>
<!-- R318 -->
<g id="node4" class="node">
<title>R318</title>
<g id="a_node4"><a xlink:href="318.svg" xlink:title="R318">
<polygon fill="azure" stroke="none" points="676,-196.1 582,-196.1 582,-149.1 676,-149.1 676,-196.1"/>
<text text-anchor="middle" x="629" y="-164.1" font-family="Times New Roman,serif" font-size="35.00">R318</text>
</a>
</g>
</g>
<!-- R84&#45;&gt;R318 -->
<g id="edge3" class="edge">
<title>R84&#45;&gt;R318</title>
<path fill="none" stroke="black" d="M75.94,-181.19C81.96,-181.78 88.15,-182.28 94,-182.6 303.05,-193.97 359.12,-201.47 571.29,-182.55"/>
<polygon fill="black" stroke="black" points="571.52,-185.96 581.17,-181.57 570.89,-178.98 571.52,-185.96"/>
<text text-anchor="middle" x="333.5" y="-202.6" font-family="Times New Roman,serif" font-size="30.00"> &#160;&#160;468 &#160;&#160;0% &#160;&#160;0.000344 mol/s &#160;&#160;&#160;6.78E&#45;01</text>
</g>
<!-- R84&#45;&gt;R318 -->
<g id="edge6" class="edge">
<title>R84&#45;&gt;R318</title>
<path fill="none" stroke="black" d="M74.56,-153.15C80.81,-150.04 87.43,-147.33 94,-145.6 145.48,-132.09 521.16,-133.56 573,-145.6 573.49,-145.72 573.99,-145.84 574.48,-145.96"/>
<polygon fill="black" stroke="black" points="573.25,-149.56 583.84,-149.2 575.34,-142.88 573.25,-149.56"/>
<text text-anchor="middle" x="333.5" y="-154.6" font-family="Times New Roman,serif" font-size="30.00"> &#160;&#160;793 &#160;&#160;1% &#160;&#160;0.000724 mol/s &#160;&#160;&#160;3.22E&#45;01</text>
</g>
<!-- R285 -->
<g id="node5" class="node">
<title>R285</title>
<g id="a_node5"><a xlink:href="285.svg" xlink:title="R285">
<polygon fill="azure" stroke="none" points="676,-88.1 582,-88.1 582,-41.1 676,-41.1 676,-88.1"/>
<text text-anchor="middle" x="629" y="-56.1" font-family="Times New Roman,serif" font-size="35.00">R285</text>
</a>
</g>
</g>
<!-- R84&#45;&gt;R285 -->
<g id="edge4" class="edge">
<title>R84&#45;&gt;R285</title>
<path fill="none" stroke="black" d="M48.48,-153.4C57.33,-135.06 72.42,-110.6 94,-98.6 138.41,-73.91 485.05,-74.89 571.33,-70.48"/>
<polygon fill="black" stroke="black" points="571.35,-73.92 581.1,-69.78 570.9,-66.93 571.35,-73.92"/>
<text text-anchor="middle" x="333.5" y="-107.6" font-family="Times New Roman,serif" font-size="30.00"> &#160;&#160;469 &#160;&#160;1% &#160;&#160;0.000641 mol/s &#160;&#160;&#160;9.81E&#45;01</text>
</g>
<!-- R84&#45;&gt;R285 -->
<g id="edge5" class="edge">
<title>R84&#45;&gt;R285</title>
<path fill="none" stroke="black" stroke-width="4" d="M40.26,-153.17C43.44,-120.06 54.64,-60.63 94,-33.6 177.2,23.54 440.74,-3.39 572.15,-35.81"/>
<polygon fill="black" stroke="black" stroke-width="4" points="566.32,-41.82 587.44,-40.15 569.88,-28.29 566.32,-41.82"/>
<text text-anchor="middle" x="333.5" y="-42.6" font-family="Times New Roman,serif" font-size="30.00"> &#160;&#160;767 &#160;&#160;68% &#160;&#160;0.0323 mol/s &#160;&#160;&#160;1.95E&#45;02</text>
</g>
</g>
</svg>
