<?xml version="1.0" encoding="UTF-8" standalone="no"?>
<!DOCTYPE svg PUBLIC "-//W3C//DTD SVG 1.1//EN"
 "http://www.w3.org/Graphics/SVG/1.1/DTD/svg11.dtd">
<!-- Generated by graphviz version 8.0.3 (20230416.2022)
 -->
<!-- Title: G Pages: 1 -->
<svg width="640pt" height="411pt"
 viewBox="0.00 0.00 720.00 462.89" xmlns="http://www.w3.org/2000/svg" xmlns:xlink="http://www.w3.org/1999/xlink">
<g id="graph0" class="graph" transform="scale(0.47619 0.47619) rotate(0) translate(4 860.06)">
<title>G</title>
<polygon fill="white" stroke="none" points="-4,4 -4,-860.06 1340,-860.06 1340,4 -4,4"/>
<text text-anchor="middle" x="668" y="-823.26" font-family="Arial" font-size="36.00" fill="blue">Reaction Path Analysis</text>
<!-- R87 -->
<g id="node1" class="node">
<title>R87</title>
<g id="a_node1"><a xlink:href="87.svg" xlink:title="R87">
<polygon fill="azure" stroke="none" points="706,-419.56 630,-419.56 630,-372.56 706,-372.56 706,-419.56"/>
<text text-anchor="middle" x="668" y="-387.56" font-family="Times New Roman,serif" font-size="35.00">R87</text>
</a>
</g>
</g>
<!-- R13 -->
<g id="node2" class="node">
<title>R13</title>
<g id="a_node2"><a xlink:href="13.svg" xlink:title="R13">
<polygon fill="azure" stroke="none" points="1327,-633.56 1251,-633.56 1251,-586.56 1327,-586.56 1327,-633.56"/>
<text text-anchor="middle" x="1289" y="-601.56" font-family="Times New Roman,serif" font-size="35.00">R13</text>
</a>
</g>
</g>
<!-- R87&#45;&gt;R13 -->
<g id="edge1" class="edge">
<title>R87&#45;&gt;R13</title>
<path fill="none" stroke="black" stroke-width="3" d="M670.03,-419.39C673.21,-460.11 686.2,-543.49 739,-582.06 891.99,-693.82 1137.84,-649.09 1240.53,-623.36"/>
<polygon fill="black" stroke="black" stroke-width="3" points="1238.36,-627.51 1247.17,-621.64 1236.62,-620.73 1238.36,-627.51"/>
<text text-anchor="middle" x="978.5" y="-663.06" font-family="Times New Roman,serif" font-size="30.00"> &#160;&#160;93 &#160;&#160;46% &#160;&#160;0.15 mol/s &#160;&#160;&#160;2.85E&#45;06</text>
</g>
<!-- R14 -->
<g id="node3" class="node">
<title>R14</title>
<g id="a_node3"><a xlink:href="14.svg" xlink:title="R14">
<polygon fill="azure" stroke="none" points="1327,-568.56 1251,-568.56 1251,-521.56 1327,-521.56 1327,-568.56"/>
<text text-anchor="middle" x="1289" y="-536.56" font-family="Times New Roman,serif" font-size="35.00">R14</text>
</a>
</g>
</g>
<!-- R87&#45;&gt;R14 -->
<g id="edge2" class="edge">
<title>R87&#45;&gt;R14</title>
<path fill="none" stroke="black" stroke-width="3" d="M674.88,-419.46C683.54,-448.48 702.77,-496.83 739,-519.06 781.14,-544.92 1114.85,-545.95 1240.43,-545.41"/>
<polygon fill="black" stroke="black" stroke-width="3" points="1237.24,-548.9 1247.22,-545.35 1237.2,-541.9 1237.24,-548.9"/>
<text text-anchor="middle" x="978.5" y="-554.06" font-family="Times New Roman,serif" font-size="30.00"> &#160;&#160;93 &#160;&#160;46% &#160;&#160;0.15 mol/s &#160;&#160;&#160;2.85E&#45;06</text>
</g>
<!-- R105 -->
<g id="node6" class="node">
<title>R105</title>
<g id="a_node6"><a xlink:href="105.svg" xlink:title="R105">
<polygon fill="azure" stroke="none" points="1336,-503.56 1242,-503.56 1242,-456.56 1336,-456.56 1336,-503.56"/>
<text text-anchor="middle" x="1289" y="-471.56" font-family="Times New Roman,serif" font-size="35.00">R105</text>
</a>
</g>
</g>
<!-- R87&#45;&gt;R105 -->
<g id="edge5" class="edge">
<title>R87&#45;&gt;R105</title>
<path fill="none" stroke="black" d="M691.33,-419.47C704.08,-431.21 721.06,-444.32 739,-451.06 827.81,-484.43 1109.74,-483.46 1231.31,-481.36"/>
<polygon fill="black" stroke="black" points="1231.28,-484.85 1241.22,-481.16 1231.16,-477.85 1231.28,-484.85"/>
<text text-anchor="middle" x="978.5" y="-491.06" font-family="Times New Roman,serif" font-size="30.00"> &#160;&#160;146 &#160;&#160;0% &#160;&#160;4.27e&#45;07 mol/s &#160;&#160;&#160;9.98E&#45;01</text>
</g>
<!-- R106 -->
<g id="node7" class="node">
<title>R106</title>
<g id="a_node7"><a xlink:href="106.svg" xlink:title="R106">
<polygon fill="azure" stroke="none" points="1336,-438.56 1242,-438.56 1242,-391.56 1336,-391.56 1336,-438.56"/>
<text text-anchor="middle" x="1289" y="-406.56" font-family="Times New Roman,serif" font-size="35.00">R106</text>
</a>
</g>
</g>
<!-- R87&#45;&gt;R106 -->
<g id="edge6" class="edge">
<title>R87&#45;&gt;R106</title>
<path fill="none" stroke="black" d="M705.66,-399.63C716.4,-400.56 728.16,-401.47 739,-402.06 918.62,-411.88 1131.69,-414.29 1231.33,-414.87"/>
<polygon fill="black" stroke="black" points="1231.03,-418.38 1241.05,-414.93 1231.07,-411.38 1231.03,-418.38"/>
<text text-anchor="middle" x="978.5" y="-423.06" font-family="Times New Roman,serif" font-size="30.00"> &#160;&#160;147 &#160;&#160;0% &#160;&#160;2.33e&#45;07 mol/s &#160;&#160;&#160;6.88E&#45;01</text>
</g>
<!-- R60 -->
<g id="node17" class="node">
<title>R60</title>
<g id="a_node17"><a xlink:href="60.svg" xlink:title="R60">
<polygon fill="azure" stroke="none" points="1327,-354.56 1251,-354.56 1251,-307.56 1327,-307.56 1327,-354.56"/>
<text text-anchor="middle" x="1289" y="-322.56" font-family="Times New Roman,serif" font-size="35.00">R60</text>
</a>
</g>
</g>
<!-- R87&#45;&gt;R60 -->
<g id="edge16" class="edge">
<title>R87&#45;&gt;R60</title>
<path fill="none" stroke="black" stroke-width="2" d="M705.88,-376.63C716.31,-372 727.87,-367.65 739,-365.06 842.76,-340.96 1112.31,-359.38 1218,-346.06 1225.29,-345.14 1232.95,-343.85 1240.41,-342.4"/>
<polygon fill="black" stroke="black" stroke-width="2" points="1240.06,-345.64 1249.15,-340.2 1238.65,-338.78 1240.06,-345.64"/>
<text text-anchor="middle" x="978.5" y="-374.06" font-family="Times New Roman,serif" font-size="30.00"> &#160;&#160;445 &#160;&#160;34% &#160;&#160;0.11 mol/s &#160;&#160;&#160;5.90E&#45;03</text>
</g>
<!-- R87&#45;&gt;R60 -->
<g id="edge17" class="edge">
<title>R87&#45;&gt;R60</title>
<path fill="none" stroke="black" d="M680.21,-372.59C691.7,-351.57 711.72,-322.12 739,-309.06 787,-286.07 1165.39,-300.99 1218,-309.06 1225.45,-310.2 1233.19,-311.99 1240.69,-314.07"/>
<polygon fill="black" stroke="black" points="1239.5,-317.66 1250.08,-317.16 1241.49,-310.95 1239.5,-317.66"/>
<text text-anchor="middle" x="978.5" y="-318.06" font-family="Times New Roman,serif" font-size="30.00"> &#160;&#160;474 &#160;&#160;0% &#160;&#160;0.00065 mol/s &#160;&#160;&#160;9.94E&#45;01</text>
</g>
<!-- R93 -->
<g id="node18" class="node">
<title>R93</title>
<g id="a_node18"><a xlink:href="93.svg" xlink:title="R93">
<polygon fill="azure" stroke="none" points="1327,-251.56 1251,-251.56 1251,-204.56 1327,-204.56 1327,-251.56"/>
<text text-anchor="middle" x="1289" y="-219.56" font-family="Times New Roman,serif" font-size="35.00">R93</text>
</a>
</g>
</g>
<!-- R87&#45;&gt;R93 -->
<g id="edge18" class="edge">
<title>R87&#45;&gt;R93</title>
<path fill="none" stroke="black" d="M673.49,-372.59C680.95,-340.74 699.22,-284.86 739,-259.06 783.72,-230.07 1164.83,-237.73 1218,-234.06 1225.28,-233.56 1232.97,-232.97 1240.5,-232.35"/>
<polygon fill="black" stroke="black" points="1240.65,-235.76 1250.33,-231.44 1240.07,-228.79 1240.65,-235.76"/>
<text text-anchor="middle" x="978.5" y="-268.06" font-family="Times New Roman,serif" font-size="30.00"> &#160;&#160;475 &#160;&#160;0% &#160;&#160;0.000647 mol/s &#160;&#160;&#160;9.89E&#45;01</text>
</g>
<!-- R87&#45;&gt;R93 -->
<g id="edge19" class="edge">
<title>R87&#45;&gt;R93</title>
<path fill="none" stroke="black" d="M669.18,-372.59C670.93,-329.32 681.62,-237.71 739,-197.06 912.72,-74.01 1009.72,-153.01 1218,-197.06 1225.69,-198.69 1233.56,-201.22 1241.12,-204.14"/>
<polygon fill="black" stroke="black" points="1239.61,-207.72 1250.19,-208.34 1242.3,-201.26 1239.61,-207.72"/>
<text text-anchor="middle" x="978.5" y="-206.06" font-family="Times New Roman,serif" font-size="30.00"> &#160;&#160;913 &#160;&#160;18% &#160;&#160;0.0583 mol/s &#160;&#160;&#160;1.10E&#45;02</text>
</g>
<!-- R0 -->
<g id="node4" class="node">
<title>R0</title>
<g id="a_node4"><a xlink:href="0.svg" xlink:title="R0">
<polygon fill="azure" stroke="none" points="76,-744.56 18,-744.56 18,-697.56 76,-697.56 76,-744.56"/>
<text text-anchor="middle" x="47" y="-712.56" font-family="Times New Roman,serif" font-size="35.00">R0</text>
</a>
</g>
</g>
<!-- R0&#45;&gt;R87 -->
<g id="edge3" class="edge">
<title>R0&#45;&gt;R87</title>
<path fill="none" stroke="black" d="M75.8,-730.33C166.02,-758.48 453.95,-832.98 612,-695.06 651.35,-660.72 662.73,-500.77 665.87,-429.95"/>
<polygon fill="black" stroke="black" points="669.39,-430.52 666.3,-420.39 662.39,-430.23 669.39,-430.52"/>
<text text-anchor="middle" x="357.5" y="-784.06" font-family="Times New Roman,serif" font-size="30.00"> &#160;&#160;144 &#160;&#160;0% &#160;&#160;4.03e&#45;07 mol/s &#160;&#160;&#160;9.46E&#45;01</text>
</g>
<!-- R86 -->
<g id="node5" class="node">
<title>R86</title>
<g id="a_node5"><a xlink:href="86.svg" xlink:title="R86">
<polygon fill="azure" stroke="none" points="85,-679.56 9,-679.56 9,-632.56 85,-632.56 85,-679.56"/>
<text text-anchor="middle" x="47" y="-647.56" font-family="Times New Roman,serif" font-size="35.00">R86</text>
</a>
</g>
</g>
<!-- R86&#45;&gt;R87 -->
<g id="edge4" class="edge">
<title>R86&#45;&gt;R87</title>
<path fill="none" stroke="black" d="M84.89,-656.82C203.79,-658.92 571.62,-662.62 612,-629.06 642.27,-603.91 657.85,-488.47 663.91,-430.08"/>
<polygon fill="black" stroke="black" points="667.49,-430.51 665,-420.21 660.52,-429.81 667.49,-430.51"/>
<text text-anchor="middle" x="357.5" y="-667.06" font-family="Times New Roman,serif" font-size="30.00"> &#160;&#160;144 &#160;&#160;0% &#160;&#160;4.03e&#45;07 mol/s &#160;&#160;&#160;9.46E&#45;01</text>
</g>
<!-- R166 -->
<g id="node8" class="node">
<title>R166</title>
<g id="a_node8"><a xlink:href="166.svg" xlink:title="R166">
<polygon fill="azure" stroke="none" points="94,-614.56 0,-614.56 0,-567.56 94,-567.56 94,-614.56"/>
<text text-anchor="middle" x="47" y="-582.56" font-family="Times New Roman,serif" font-size="35.00">R166</text>
</a>
</g>
</g>
<!-- R166&#45;&gt;R87 -->
<g id="edge7" class="edge">
<title>R166&#45;&gt;R87</title>
<path fill="none" stroke="black" d="M93.93,-591.72C221.12,-593.12 571.26,-594.11 612,-563.06 652.99,-531.83 663.84,-469.15 666.47,-430.1"/>
<polygon fill="black" stroke="black" points="670.01,-430.44 667.03,-420.27 663.02,-430.08 670.01,-430.44"/>
<text text-anchor="middle" x="357.5" y="-601.06" font-family="Times New Roman,serif" font-size="30.00"> &#160;&#160;218 &#160;&#160;0% &#160;&#160;0.00595 mol/s &#160;&#160;&#160;7.19E&#45;05</text>
</g>
<!-- R167 -->
<g id="node9" class="node">
<title>R167</title>
<g id="a_node9"><a xlink:href="167.svg" xlink:title="R167">
<polygon fill="azure" stroke="none" points="94,-549.56 0,-549.56 0,-502.56 94,-502.56 94,-549.56"/>
<text text-anchor="middle" x="47" y="-517.56" font-family="Times New Roman,serif" font-size="35.00">R167</text>
</a>
</g>
</g>
<!-- R167&#45;&gt;R87 -->
<g id="edge8" class="edge">
<title>R167&#45;&gt;R87</title>
<path fill="none" stroke="black" d="M93.67,-526.43C220.19,-527.11 568.72,-526.45 612,-499.06 636.36,-483.65 650.63,-453.57 658.5,-429.88"/>
<polygon fill="black" stroke="black" points="662.09,-431.11 661.68,-420.52 655.4,-429.05 662.09,-431.11"/>
<text text-anchor="middle" x="357.5" y="-535.06" font-family="Times New Roman,serif" font-size="30.00"> &#160;&#160;219 &#160;&#160;0% &#160;&#160;0.00784 mol/s &#160;&#160;&#160;5.46E&#45;05</text>
</g>
<!-- R168 -->
<g id="node10" class="node">
<title>R168</title>
<g id="a_node10"><a xlink:href="168.svg" xlink:title="R168">
<polygon fill="azure" stroke="none" points="94,-484.56 0,-484.56 0,-437.56 94,-437.56 94,-484.56"/>
<text text-anchor="middle" x="47" y="-452.56" font-family="Times New Roman,serif" font-size="35.00">R168</text>
</a>
</g>
</g>
<!-- R168&#45;&gt;R87 -->
<g id="edge9" class="edge">
<title>R168&#45;&gt;R87</title>
<path fill="none" stroke="black" d="M93.6,-461.93C210.11,-463.64 516.29,-464.87 612,-433.06 617.95,-431.09 623.85,-428.28 629.46,-425.08"/>
<polygon fill="black" stroke="black" points="630.94,-427.66 637.59,-419.4 627.25,-421.71 630.94,-427.66"/>
<text text-anchor="middle" x="357.5" y="-471.06" font-family="Times New Roman,serif" font-size="30.00"> &#160;&#160;220 &#160;&#160;0% &#160;&#160;2.04 mol/s &#160;&#160;&#160;2.09E&#45;07</text>
</g>
<!-- R208 -->
<g id="node11" class="node">
<title>R208</title>
<g id="a_node11"><a xlink:href="208.svg" xlink:title="R208">
<polygon fill="azure" stroke="none" points="94,-419.56 0,-419.56 0,-372.56 94,-372.56 94,-419.56"/>
<text text-anchor="middle" x="47" y="-387.56" font-family="Times New Roman,serif" font-size="35.00">R208</text>
</a>
</g>
</g>
<!-- R208&#45;&gt;R87 -->
<g id="edge10" class="edge">
<title>R208&#45;&gt;R87</title>
<path fill="none" stroke="black" d="M93.77,-396.06C207.72,-396.06 503.31,-396.06 619.3,-396.06"/>
<polygon fill="black" stroke="black" points="619.27,-399.56 629.27,-396.06 619.27,-392.56 619.27,-399.56"/>
<text text-anchor="middle" x="357.5" y="-405.06" font-family="Times New Roman,serif" font-size="30.00"> &#160;&#160;269 &#160;&#160;0% &#160;&#160;0.000866 mol/s &#160;&#160;&#160;4.93E&#45;04</text>
</g>
<!-- R209 -->
<g id="node12" class="node">
<title>R209</title>
<g id="a_node12"><a xlink:href="209.svg" xlink:title="R209">
<polygon fill="azure" stroke="none" points="94,-354.56 0,-354.56 0,-307.56 94,-307.56 94,-354.56"/>
<text text-anchor="middle" x="47" y="-322.56" font-family="Times New Roman,serif" font-size="35.00">R209</text>
</a>
</g>
</g>
<!-- R209&#45;&gt;R87 -->
<g id="edge11" class="edge">
<title>R209&#45;&gt;R87</title>
<path fill="none" stroke="black" d="M93.74,-325.25C191.74,-314.53 428.03,-297.91 612,-359.06 617.95,-361.04 623.85,-363.85 629.46,-367.05"/>
<polygon fill="black" stroke="black" points="627.25,-370.41 637.59,-372.72 630.94,-364.47 627.25,-370.41"/>
<text text-anchor="middle" x="357.5" y="-368.06" font-family="Times New Roman,serif" font-size="30.00"> &#160;&#160;270 &#160;&#160;0% &#160;&#160;0.17 mol/s &#160;&#160;&#160;2.51E&#45;06</text>
</g>
<!-- R210 -->
<g id="node13" class="node">
<title>R210</title>
<g id="a_node13"><a xlink:href="210.svg" xlink:title="R210">
<polygon fill="azure" stroke="none" points="94,-289.56 0,-289.56 0,-242.56 94,-242.56 94,-289.56"/>
<text text-anchor="middle" x="47" y="-257.56" font-family="Times New Roman,serif" font-size="35.00">R210</text>
</a>
</g>
</g>
<!-- R210&#45;&gt;R87 -->
<g id="edge12" class="edge">
<title>R210&#45;&gt;R87</title>
<path fill="none" stroke="black" d="M93.61,-260.93C212.29,-248.52 527.35,-221.76 612,-277.06 640.93,-295.96 654.89,-334.31 661.46,-362.38"/>
<polygon fill="black" stroke="black" points="658.21,-362.89 663.71,-371.95 665.05,-361.44 658.21,-362.89"/>
<text text-anchor="middle" x="357.5" y="-286.06" font-family="Times New Roman,serif" font-size="30.00"> &#160;&#160;271 &#160;&#160;16% &#160;&#160;1090000.0 mol/s &#160;&#160;&#160;3.91E&#45;13</text>
</g>
<!-- R267 -->
<g id="node14" class="node">
<title>R267</title>
<g id="a_node14"><a xlink:href="267.svg" xlink:title="R267">
<polygon fill="azure" stroke="none" points="94,-224.56 0,-224.56 0,-177.56 94,-177.56 94,-224.56"/>
<text text-anchor="middle" x="47" y="-192.56" font-family="Times New Roman,serif" font-size="35.00">R267</text>
</a>
</g>
</g>
<!-- R267&#45;&gt;R87 -->
<g id="edge13" class="edge">
<title>R267&#45;&gt;R87</title>
<path fill="none" stroke="black" d="M93.93,-198.38C221.12,-191.38 571.24,-175.14 612,-206.06 636.81,-224.88 654.07,-312.41 662.03,-361.83"/>
<polygon fill="black" stroke="black" points="658.72,-362.3 663.72,-371.64 665.63,-361.22 658.72,-362.3"/>
<text text-anchor="middle" x="357.5" y="-215.06" font-family="Times New Roman,serif" font-size="30.00"> &#160;&#160;363 &#160;&#160;0% &#160;&#160;0.152 mol/s &#160;&#160;&#160;2.81E&#45;06</text>
</g>
<!-- R268 -->
<g id="node15" class="node">
<title>R268</title>
<g id="a_node15"><a xlink:href="268.svg" xlink:title="R268">
<polygon fill="azure" stroke="none" points="94,-159.56 0,-159.56 0,-112.56 94,-112.56 94,-159.56"/>
<text text-anchor="middle" x="47" y="-127.56" font-family="Times New Roman,serif" font-size="35.00">R268</text>
</a>
</g>
</g>
<!-- R268&#45;&gt;R87 -->
<g id="edge14" class="edge">
<title>R268&#45;&gt;R87</title>
<path fill="none" stroke="black" stroke-width="5" d="M93.9,-130.28C214.03,-116.2 533.77,-85.78 612,-150.06 642.71,-175.29 657.53,-288.57 663.55,-352.24"/>
<polygon fill="black" stroke="black" stroke-width="5" points="654.89,-347.67 665.35,-366.83 672.32,-346.15 654.89,-347.67"/>
<text text-anchor="middle" x="357.5" y="-159.06" font-family="Times New Roman,serif" font-size="30.00"> &#160;&#160;364 &#160;&#160;83% &#160;&#160;5580000.0 mol/s &#160;&#160;&#160;7.66E&#45;14</text>
</g>
<!-- R269 -->
<g id="node16" class="node">
<title>R269</title>
<g id="a_node16"><a xlink:href="269.svg" xlink:title="R269">
<polygon fill="azure" stroke="none" points="94,-94.56 0,-94.56 0,-47.56 94,-47.56 94,-94.56"/>
<text text-anchor="middle" x="47" y="-62.56" font-family="Times New Roman,serif" font-size="35.00">R269</text>
</a>
</g>
</g>
<!-- R269&#45;&gt;R87 -->
<g id="edge15" class="edge">
<title>R269&#45;&gt;R87</title>
<path fill="none" stroke="black" d="M93.72,-53.82C199.13,-17.34 461.64,54.31 612,-73.06 655.45,-109.87 664.58,-286.68 666.49,-361.98"/>
<polygon fill="black" stroke="black" points="663.01,-361.83 666.73,-371.75 670.01,-361.67 663.01,-361.83"/>
<text text-anchor="middle" x="357.5" y="-82.06" font-family="Times New Roman,serif" font-size="30.00"> &#160;&#160;365 &#160;&#160;0% &#160;&#160;11.6 mol/s &#160;&#160;&#160;3.67E&#45;08</text>
</g>
</g>
</svg>
