<?xml version="1.0" encoding="UTF-8" standalone="no"?>
<!DOCTYPE svg PUBLIC "-//W3C//DTD SVG 1.1//EN"
 "http://www.w3.org/Graphics/SVG/1.1/DTD/svg11.dtd">
<!-- Generated by graphviz version 8.0.3 (20230416.2022)
 -->
<!-- Title: G Pages: 1 -->
<svg width="640pt" height="245pt"
 viewBox="0.00 0.00 720.00 275.73" xmlns="http://www.w3.org/2000/svg" xmlns:xlink="http://www.w3.org/1999/xlink">
<g id="graph0" class="graph" transform="scale(0.498442 0.498442) rotate(0) translate(4 487.71)">
<title>G</title>
<polygon fill="white" stroke="none" points="-4,4 -4,-487.71 1280,-487.71 1280,4 -4,4"/>
<text text-anchor="middle" x="638" y="-450.91" font-family="Arial" font-size="36.00" fill="blue">Reaction Path Analysis</text>
<!-- R95 -->
<g id="node1" class="node">
<title>R95</title>
<g id="a_node1"><a xlink:href="95.svg" xlink:title="R95">
<polygon fill="azure" stroke="none" points="676,-233.21 600,-233.21 600,-186.21 676,-186.21 676,-233.21"/>
<text text-anchor="middle" x="638" y="-201.21" font-family="Times New Roman,serif" font-size="35.00">R95</text>
</a>
</g>
</g>
<!-- R0 -->
<g id="node2" class="node">
<title>R0</title>
<g id="a_node2"><a xlink:href="0.svg" xlink:title="R0">
<polygon fill="azure" stroke="none" points="1258,-410.21 1200,-410.21 1200,-363.21 1258,-363.21 1258,-410.21"/>
<text text-anchor="middle" x="1229" y="-378.21" font-family="Times New Roman,serif" font-size="35.00">R0</text>
</a>
</g>
</g>
<!-- R95&#45;&gt;R0 -->
<g id="edge1" class="edge">
<title>R95&#45;&gt;R0</title>
<path fill="none" stroke="black" d="M639.63,-233.06C641.97,-268.18 652.06,-333.78 694,-364.71 772.25,-422.43 1080.29,-400.39 1189.42,-390.5"/>
<polygon fill="black" stroke="black" points="1189.6,-393.9 1199.24,-389.5 1188.96,-386.93 1189.6,-393.9"/>
<text text-anchor="middle" x="933.5" y="-411.71" font-family="Times New Roman,serif" font-size="30.00"> &#160;&#160;120 &#160;&#160;0% &#160;&#160;9.65e&#45;07 mol/s &#160;&#160;&#160;2.35E&#45;01</text>
</g>
<!-- R43 -->
<g id="node3" class="node">
<title>R43</title>
<g id="a_node3"><a xlink:href="43.svg" xlink:title="R43">
<polygon fill="azure" stroke="none" points="1267,-345.21 1191,-345.21 1191,-298.21 1267,-298.21 1267,-345.21"/>
<text text-anchor="middle" x="1229" y="-313.21" font-family="Times New Roman,serif" font-size="35.00">R43</text>
</a>
</g>
</g>
<!-- R95&#45;&gt;R43 -->
<g id="edge2" class="edge">
<title>R95&#45;&gt;R43</title>
<path fill="none" stroke="black" d="M647.07,-233C655.42,-253.17 670.56,-281.18 694,-294.71 775.79,-341.92 1064.91,-331.14 1180.11,-324.73"/>
<polygon fill="black" stroke="black" points="1180.25,-328.17 1190.03,-324.11 1179.85,-321.18 1180.25,-328.17"/>
<text text-anchor="middle" x="933.5" y="-338.71" font-family="Times New Roman,serif" font-size="30.00"> &#160;&#160;120 &#160;&#160;0% &#160;&#160;9.65e&#45;07 mol/s &#160;&#160;&#160;2.35E&#45;01</text>
</g>
<!-- R163 -->
<g id="node5" class="node">
<title>R163</title>
<g id="a_node5"><a xlink:href="163.svg" xlink:title="R163">
<polygon fill="azure" stroke="none" points="1276,-266.21 1182,-266.21 1182,-219.21 1276,-219.21 1276,-266.21"/>
<text text-anchor="middle" x="1229" y="-234.21" font-family="Times New Roman,serif" font-size="35.00">R163</text>
</a>
</g>
</g>
<!-- R95&#45;&gt;R163 -->
<g id="edge4" class="edge">
<title>R95&#45;&gt;R163</title>
<path fill="none" stroke="black" stroke-width="5" d="M670.16,-233.04C677.61,-237.44 685.79,-241.38 694,-243.71 779.81,-268.09 1038.38,-255.25 1161.47,-247.37"/>
<polygon fill="black" stroke="black" stroke-width="5" points="1156.73,-256.06 1176.11,-246.02 1155.58,-238.6 1156.73,-256.06"/>
<text text-anchor="middle" x="933.5" y="-266.71" font-family="Times New Roman,serif" font-size="30.00"> &#160;&#160;686 &#160;&#160;99% &#160;&#160;0.497 mol/s &#160;&#160;&#160;1.31E&#45;03</text>
</g>
<!-- R95&#45;&gt;R163 -->
<g id="edge9" class="edge">
<title>R95&#45;&gt;R163</title>
<path fill="none" stroke="black" d="M675.87,-206.73C780.85,-198.69 1079.82,-178.93 1173,-206.71 1178.67,-208.4 1184.31,-210.89 1189.68,-213.77"/>
<polygon fill="black" stroke="black" points="1187.65,-217.23 1198.03,-219.32 1191.22,-211.21 1187.65,-217.23"/>
<text text-anchor="middle" x="933.5" y="-215.71" font-family="Times New Roman,serif" font-size="30.00"> &#160;&#160;915 &#160;&#160;0% &#160;&#160;0.000653 mol/s &#160;&#160;&#160;9.99E&#45;01</text>
</g>
<!-- R382 -->
<g id="node6" class="node">
<title>R382</title>
<g id="a_node6"><a xlink:href="382.svg" xlink:title="R382">
<polygon fill="azure" stroke="none" points="1276,-182.21 1182,-182.21 1182,-135.21 1276,-135.21 1276,-182.21"/>
<text text-anchor="middle" x="1229" y="-150.21" font-family="Times New Roman,serif" font-size="35.00">R382</text>
</a>
</g>
</g>
<!-- R95&#45;&gt;R382 -->
<g id="edge5" class="edge">
<title>R95&#45;&gt;R382</title>
<path fill="none" stroke="black" d="M655.22,-186.32C664.93,-174.44 678.41,-161.17 694,-154.71 778.83,-119.58 1052.05,-141.2 1171.37,-152.79"/>
<polygon fill="black" stroke="black" points="1170.79,-156.35 1181.08,-153.84 1171.47,-149.38 1170.79,-156.35"/>
<text text-anchor="middle" x="933.5" y="-163.71" font-family="Times New Roman,serif" font-size="30.00"> &#160;&#160;807 &#160;&#160;0% &#160;&#160;4.25e&#45;07 mol/s &#160;&#160;&#160;9.94E&#45;01</text>
</g>
<!-- R2 -->
<g id="node8" class="node">
<title>R2</title>
<g id="a_node8"><a xlink:href="2.svg" xlink:title="R2">
<polygon fill="azure" stroke="none" points="1258,-117.21 1200,-117.21 1200,-70.21 1258,-70.21 1258,-117.21"/>
<text text-anchor="middle" x="1229" y="-85.21" font-family="Times New Roman,serif" font-size="35.00">R2</text>
</a>
</g>
</g>
<!-- R95&#45;&gt;R2 -->
<g id="edge7" class="edge">
<title>R95&#45;&gt;R2</title>
<path fill="none" stroke="black" d="M643.07,-186.66C649.1,-160.21 663.21,-118.02 694,-98.71 776.22,-47.16 1081.06,-76.58 1189.44,-89.01"/>
<polygon fill="black" stroke="black" points="1188.86,-92.58 1199.19,-90.26 1189.67,-85.63 1188.86,-92.58"/>
<text text-anchor="middle" x="933.5" y="-107.71" font-family="Times New Roman,serif" font-size="30.00"> &#160;&#160;869 &#160;&#160;0% &#160;&#160;0.000835 mol/s &#160;&#160;&#160;5.12E&#45;04</text>
</g>
<!-- R16 -->
<g id="node9" class="node">
<title>R16</title>
<g id="a_node9"><a xlink:href="16.svg" xlink:title="R16">
<polygon fill="azure" stroke="none" points="1267,-52.21 1191,-52.21 1191,-5.21 1267,-5.21 1267,-52.21"/>
<text text-anchor="middle" x="1229" y="-20.21" font-family="Times New Roman,serif" font-size="35.00">R16</text>
</a>
</g>
</g>
<!-- R95&#45;&gt;R16 -->
<g id="edge8" class="edge">
<title>R95&#45;&gt;R16</title>
<path fill="none" stroke="black" d="M638.3,-186.51C638.53,-147.32 645.42,-68.77 694,-32.71 770,23.69 1064.42,-7.32 1180.53,-22.2"/>
<polygon fill="black" stroke="black" points="1179.83,-25.77 1190.2,-23.58 1180.73,-18.83 1179.83,-25.77"/>
<text text-anchor="middle" x="933.5" y="-41.71" font-family="Times New Roman,serif" font-size="30.00"> &#160;&#160;869 &#160;&#160;0% &#160;&#160;0.000835 mol/s &#160;&#160;&#160;5.12E&#45;04</text>
</g>
<!-- R329 -->
<g id="node4" class="node">
<title>R329</title>
<g id="a_node4"><a xlink:href="329.svg" xlink:title="R329">
<polygon fill="azure" stroke="none" points="94,-266.21 0,-266.21 0,-219.21 94,-219.21 94,-266.21"/>
<text text-anchor="middle" x="47" y="-234.21" font-family="Times New Roman,serif" font-size="35.00">R329</text>
</a>
</g>
</g>
<!-- R329&#45;&gt;R95 -->
<g id="edge3" class="edge">
<title>R329&#45;&gt;R95</title>
<path fill="none" stroke="black" stroke-width="5" d="M93.94,-243.03C186.14,-243.19 400.14,-241.07 578.5,-220.71 578.94,-220.66 579.39,-220.61 579.83,-220.56"/>
<polygon fill="black" stroke="black" stroke-width="5" points="575.84,-229.1 594.3,-217.45 573.21,-211.8 575.84,-229.1"/>
<text text-anchor="middle" x="342.5" y="-251.71" font-family="Times New Roman,serif" font-size="30.00"> &#160;&#160;553 &#160;&#160;99% &#160;&#160;1.39 mol/s &#160;&#160;&#160;3.07E&#45;07</text>
</g>
<!-- R390 -->
<g id="node7" class="node">
<title>R390</title>
<g id="a_node7"><a xlink:href="390.svg" xlink:title="R390">
<polygon fill="azure" stroke="none" points="94,-201.21 0,-201.21 0,-154.21 94,-154.21 94,-201.21"/>
<text text-anchor="middle" x="47" y="-169.21" font-family="Times New Roman,serif" font-size="35.00">R390</text>
</a>
</g>
</g>
<!-- R390&#45;&gt;R95 -->
<g id="edge6" class="edge">
<title>R390&#45;&gt;R95</title>
<path fill="none" stroke="black" d="M93.96,-173.39C186.62,-165.8 402.08,-153.91 578.5,-187.71 582.18,-188.42 585.93,-189.33 589.67,-190.39"/>
<polygon fill="black" stroke="black" points="588.51,-194.01 599.1,-193.68 590.62,-187.33 588.51,-194.01"/>
<text text-anchor="middle" x="342.5" y="-196.71" font-family="Times New Roman,serif" font-size="30.00"> &#160;&#160;858 &#160;&#160;0% &#160;&#160;1.74e&#45;05 mol/s &#160;&#160;&#160;2.34E&#45;02</text>
</g>
</g>
</svg>
