<?xml version="1.0" encoding="UTF-8" standalone="no"?>
<!DOCTYPE svg PUBLIC "-//W3C//DTD SVG 1.1//EN"
 "http://www.w3.org/Graphics/SVG/1.1/DTD/svg11.dtd">
<!-- Generated by graphviz version 8.0.3 (20230416.2022)
 -->
<!-- Title: G Pages: 1 -->
<svg width="640pt" height="192pt"
 viewBox="0.00 0.00 720.00 215.54" xmlns="http://www.w3.org/2000/svg" xmlns:xlink="http://www.w3.org/1999/xlink">
<g id="graph0" class="graph" transform="scale(0.507534 0.507534) rotate(0) translate(4 373.5)">
<title>G</title>
<polygon fill="white" stroke="none" points="-4,4 -4,-373.5 1257,-373.5 1257,4 -4,4"/>
<text text-anchor="middle" x="626.5" y="-336.7" font-family="Arial" font-size="36.00" fill="blue">Reaction Path Analysis</text>
<!-- R97 -->
<g id="node1" class="node">
<title>R97</title>
<g id="a_node1"><a xlink:href="97.svg" xlink:title="R97">
<polygon fill="azure" stroke="none" points="660,-172 584,-172 584,-125 660,-125 660,-172"/>
<text text-anchor="middle" x="622" y="-140" font-family="Times New Roman,serif" font-size="35.00">R97</text>
</a>
</g>
</g>
<!-- R205 -->
<g id="node4" class="node">
<title>R205</title>
<g id="a_node4"><a xlink:href="205.svg" xlink:title="R205">
<polygon fill="azure" stroke="none" points="1253,-261 1159,-261 1159,-214 1253,-214 1253,-261"/>
<text text-anchor="middle" x="1206" y="-229" font-family="Times New Roman,serif" font-size="35.00">R205</text>
</a>
</g>
</g>
<!-- R97&#45;&gt;R205 -->
<g id="edge3" class="edge">
<title>R97&#45;&gt;R205</title>
<path fill="none" stroke="black" stroke-width="5" d="M629.91,-171.75C637.73,-193.38 652.77,-224.35 678,-238.5 825.26,-321.09 1034.06,-284.09 1139.15,-257"/>
<polygon fill="black" stroke="black" stroke-width="5" points="1136.29,-266.21 1153.34,-252.58 1131.76,-249.31 1136.29,-266.21"/>
<text text-anchor="middle" x="914" y="-297.5" font-family="Times New Roman,serif" font-size="30.00"> &#160;&#160;701 &#160;&#160;94% &#160;&#160;0.0119 mol/s &#160;&#160;&#160;4.93E&#45;02</text>
</g>
<!-- R97&#45;&gt;R205 -->
<g id="edge7" class="edge">
<title>R97&#45;&gt;R205</title>
<path fill="none" stroke="black" d="M654.83,-171.93C662.11,-176.2 670.06,-180.07 678,-182.5 778.38,-213.22 1050.03,-169.49 1150,-201.5 1155.57,-203.28 1161.11,-205.8 1166.42,-208.67"/>
<polygon fill="black" stroke="black" points="1164.28,-212.07 1174.67,-214.17 1167.86,-206.05 1164.28,-212.07"/>
<text text-anchor="middle" x="914" y="-210.5" font-family="Times New Roman,serif" font-size="30.00"> &#160;&#160;917 &#160;&#160;4% &#160;&#160;0.00062 mol/s &#160;&#160;&#160;9.51E&#45;01</text>
</g>
<!-- R383 -->
<g id="node5" class="node">
<title>R383</title>
<g id="a_node5"><a xlink:href="383.svg" xlink:title="R383">
<polygon fill="azure" stroke="none" points="1253,-177 1159,-177 1159,-130 1253,-130 1253,-177"/>
<text text-anchor="middle" x="1206" y="-145" font-family="Times New Roman,serif" font-size="35.00">R383</text>
</a>
</g>
</g>
<!-- R97&#45;&gt;R383 -->
<g id="edge4" class="edge">
<title>R97&#45;&gt;R383</title>
<path fill="none" stroke="black" d="M659.75,-147.68C744.01,-145.98 957.87,-142.77 1148.32,-149.52"/>
<polygon fill="black" stroke="black" points="1147.98,-153.05 1158.1,-149.92 1148.23,-146.05 1147.98,-153.05"/>
<text text-anchor="middle" x="914" y="-158.5" font-family="Times New Roman,serif" font-size="30.00"> &#160;&#160;809 &#160;&#160;0% &#160;&#160;4.16e&#45;07 mol/s &#160;&#160;&#160;9.73E&#45;01</text>
</g>
<!-- R3 -->
<g id="node6" class="node">
<title>R3</title>
<g id="a_node6"><a xlink:href="3.svg" xlink:title="R3">
<polygon fill="azure" stroke="none" points="1235,-112 1177,-112 1177,-65 1235,-65 1235,-112"/>
<text text-anchor="middle" x="1206" y="-80" font-family="Times New Roman,serif" font-size="35.00">R3</text>
</a>
</g>
</g>
<!-- R97&#45;&gt;R3 -->
<g id="edge5" class="edge">
<title>R97&#45;&gt;R3</title>
<path fill="none" stroke="black" d="M647.68,-125.14C656.57,-118.15 667.1,-111.33 678,-107.5 851.51,-46.45 1077.26,-69.52 1166.39,-82.28"/>
<polygon fill="black" stroke="black" points="1165.66,-85.86 1176.06,-83.85 1166.68,-78.93 1165.66,-85.86"/>
<text text-anchor="middle" x="914" y="-116.5" font-family="Times New Roman,serif" font-size="30.00"> &#160;&#160;877 &#160;&#160;0% &#160;&#160;4.19e&#45;05 mol/s &#160;&#160;&#160;1.00E&#45;02</text>
</g>
<!-- R16 -->
<g id="node7" class="node">
<title>R16</title>
<g id="a_node7"><a xlink:href="16.svg" xlink:title="R16">
<polygon fill="azure" stroke="none" points="1244,-47 1168,-47 1168,0 1244,0 1244,-47"/>
<text text-anchor="middle" x="1206" y="-15" font-family="Times New Roman,serif" font-size="35.00">R16</text>
</a>
</g>
</g>
<!-- R97&#45;&gt;R16 -->
<g id="edge6" class="edge">
<title>R97&#45;&gt;R16</title>
<path fill="none" stroke="black" d="M626.43,-125.05C631.91,-97.08 645.54,-51.49 678,-30.5 756.17,20.04 1043.01,-5.34 1157.42,-17.88"/>
<polygon fill="black" stroke="black" points="1156.94,-21.46 1167.26,-19.09 1157.71,-14.5 1156.94,-21.46"/>
<text text-anchor="middle" x="914" y="-39.5" font-family="Times New Roman,serif" font-size="30.00"> &#160;&#160;877 &#160;&#160;0% &#160;&#160;4.19e&#45;05 mol/s &#160;&#160;&#160;1.00E&#45;02</text>
</g>
<!-- R0 -->
<g id="node2" class="node">
<title>R0</title>
<g id="a_node2"><a xlink:href="0.svg" xlink:title="R0">
<polygon fill="azure" stroke="none" points="67,-205 9,-205 9,-158 67,-158 67,-205"/>
<text text-anchor="middle" x="38" y="-173" font-family="Times New Roman,serif" font-size="35.00">R0</text>
</a>
</g>
</g>
<!-- R0&#45;&gt;R97 -->
<g id="edge1" class="edge">
<title>R0&#45;&gt;R97</title>
<path fill="none" stroke="black" stroke-width="5" d="M66.98,-182.18C143.93,-183.66 365.52,-185.38 563.43,-160.46"/>
<polygon fill="black" stroke="black" stroke-width="5" points="559.35,-169.04 578.04,-157.76 557.07,-151.69 559.35,-169.04"/>
<text text-anchor="middle" x="330" y="-191.5" font-family="Times New Roman,serif" font-size="30.00"> &#160;&#160;124 &#160;&#160;99% &#160;&#160;3.73e&#45;07 mol/s &#160;&#160;&#160;8.87E&#45;01</text>
</g>
<!-- R55 -->
<g id="node3" class="node">
<title>R55</title>
<g id="a_node3"><a xlink:href="55.svg" xlink:title="R55">
<polygon fill="azure" stroke="none" points="76,-140 0,-140 0,-93 76,-93 76,-140"/>
<text text-anchor="middle" x="38" y="-108" font-family="Times New Roman,serif" font-size="35.00">R55</text>
</a>
</g>
</g>
<!-- R55&#45;&gt;R97 -->
<g id="edge2" class="edge">
<title>R55&#45;&gt;R97</title>
<path fill="none" stroke="black" stroke-width="5" d="M75.93,-112.03C160.59,-102.86 375.21,-85.69 563.96,-125.21"/>
<polygon fill="black" stroke="black" stroke-width="5" points="556.76,-132.9 578.18,-128.68 560.55,-115.82 556.76,-132.9"/>
<text text-anchor="middle" x="330" y="-135.5" font-family="Times New Roman,serif" font-size="30.00"> &#160;&#160;124 &#160;&#160;99% &#160;&#160;3.73e&#45;07 mol/s &#160;&#160;&#160;8.87E&#45;01</text>
</g>
</g>
</svg>
