<?xml version="1.0" encoding="UTF-8" standalone="no"?>
<!DOCTYPE svg PUBLIC "-//W3C//DTD SVG 1.1//EN"
 "http://www.w3.org/Graphics/SVG/1.1/DTD/svg11.dtd">
<!-- Generated by graphviz version 8.0.3 (20230416.2022)
 -->
<!-- Title: G Pages: 1 -->
<svg width="640pt" height="194pt"
 viewBox="0.00 0.00 720.00 218.24" xmlns="http://www.w3.org/2000/svg" xmlns:xlink="http://www.w3.org/1999/xlink">
<g id="graph0" class="graph" transform="scale(0.501961 0.501961) rotate(0) translate(4 382.47)">
<title>G</title>
<polygon fill="white" stroke="none" points="-4,4 -4,-382.47 1271,-382.47 1271,4 -4,4"/>
<text text-anchor="middle" x="633.5" y="-345.67" font-family="Arial" font-size="36.00" fill="blue">Reaction Path Analysis</text>
<!-- R98 -->
<g id="node1" class="node">
<title>R98</title>
<g id="a_node1"><a xlink:href="98.svg" xlink:title="R98">
<polygon fill="azure" stroke="none" points="667,-189.97 591,-189.97 591,-142.97 667,-142.97 667,-189.97"/>
<text text-anchor="middle" x="629" y="-157.97" font-family="Times New Roman,serif" font-size="35.00">R98</text>
</a>
</g>
</g>
<!-- R3 -->
<g id="node4" class="node">
<title>R3</title>
<g id="a_node4"><a xlink:href="3.svg" xlink:title="R3">
<polygon fill="azure" stroke="none" points="1249,-310.97 1191,-310.97 1191,-263.97 1249,-263.97 1249,-310.97"/>
<text text-anchor="middle" x="1220" y="-278.97" font-family="Times New Roman,serif" font-size="35.00">R3</text>
</a>
</g>
</g>
<!-- R98&#45;&gt;R3 -->
<g id="edge3" class="edge">
<title>R98&#45;&gt;R3</title>
<path fill="none" stroke="black" d="M636.42,-189.83C643.99,-212.45 658.96,-245.6 685,-261.47 767.96,-312.02 1072.33,-297.28 1180.52,-290.23"/>
<polygon fill="black" stroke="black" points="1180.5,-293.67 1190.25,-289.51 1180.04,-286.69 1180.5,-293.67"/>
<text text-anchor="middle" x="924.5" y="-306.47" font-family="Times New Roman,serif" font-size="30.00"> &#160;&#160;276 &#160;&#160;0% &#160;&#160;1.89e&#45;05 mol/s &#160;&#160;&#160;2.16E&#45;02</text>
</g>
<!-- R15 -->
<g id="node5" class="node">
<title>R15</title>
<g id="a_node5"><a xlink:href="15.svg" xlink:title="R15">
<polygon fill="azure" stroke="none" points="1258,-245.97 1182,-245.97 1182,-198.97 1258,-198.97 1258,-245.97"/>
<text text-anchor="middle" x="1220" y="-213.97" font-family="Times New Roman,serif" font-size="35.00">R15</text>
</a>
</g>
</g>
<!-- R98&#45;&gt;R15 -->
<g id="edge4" class="edge">
<title>R98&#45;&gt;R15</title>
<path fill="none" stroke="black" d="M661.83,-189.89C669.11,-194.16 677.06,-198.03 685,-200.47 775.04,-228.06 1058.04,-225.73 1171.37,-223.58"/>
<polygon fill="black" stroke="black" points="1171.19,-227.06 1181.12,-223.36 1171.05,-220.06 1171.19,-227.06"/>
<text text-anchor="middle" x="924.5" y="-233.47" font-family="Times New Roman,serif" font-size="30.00"> &#160;&#160;276 &#160;&#160;0% &#160;&#160;1.89e&#45;05 mol/s &#160;&#160;&#160;2.16E&#45;02</text>
</g>
<!-- R255 -->
<g id="node6" class="node">
<title>R255</title>
<g id="a_node6"><a xlink:href="255.svg" xlink:title="R255">
<polygon fill="azure" stroke="none" points="1267,-161.97 1173,-161.97 1173,-114.97 1267,-114.97 1267,-161.97"/>
<text text-anchor="middle" x="1220" y="-129.97" font-family="Times New Roman,serif" font-size="35.00">R255</text>
</a>
</g>
</g>
<!-- R98&#45;&gt;R255 -->
<g id="edge5" class="edge">
<title>R98&#45;&gt;R255</title>
<path fill="none" stroke="black" stroke-width="5" d="M666.95,-165.8C750.73,-164.11 961.99,-158.85 1152.38,-145.23"/>
<polygon fill="black" stroke="black" stroke-width="5" points="1147.8,-153.9 1167.11,-143.71 1146.52,-136.45 1147.8,-153.9"/>
<text text-anchor="middle" x="924.5" y="-173.47" font-family="Times New Roman,serif" font-size="30.00"> &#160;&#160;731 &#160;&#160;99% &#160;&#160;1.06 mol/s &#160;&#160;&#160;6.15E&#45;04</text>
</g>
<!-- R98&#45;&gt;R255 -->
<g id="edge9" class="edge">
<title>R98&#45;&gt;R255</title>
<path fill="none" stroke="black" d="M644.5,-143.24C654.17,-130.06 668.18,-114.78 685,-107.47 733.81,-86.24 1112.52,-93.96 1164,-107.47 1167.18,-108.3 1170.38,-109.37 1173.54,-110.6"/>
<polygon fill="black" stroke="black" points="1171.88,-114.14 1182.44,-115.01 1174.73,-107.74 1171.88,-114.14"/>
<text text-anchor="middle" x="924.5" y="-116.47" font-family="Times New Roman,serif" font-size="30.00"> &#160;&#160;918 &#160;&#160;0% &#160;&#160;0.000654 mol/s &#160;&#160;&#160;9.99E&#45;01</text>
</g>
<!-- R383 -->
<g id="node8" class="node">
<title>R383</title>
<g id="a_node8"><a xlink:href="383.svg" xlink:title="R383">
<polygon fill="azure" stroke="none" points="1267,-77.97 1173,-77.97 1173,-30.97 1267,-30.97 1267,-77.97"/>
<text text-anchor="middle" x="1220" y="-45.97" font-family="Times New Roman,serif" font-size="35.00">R383</text>
</a>
</g>
</g>
<!-- R98&#45;&gt;R383 -->
<g id="edge8" class="edge">
<title>R98&#45;&gt;R383</title>
<path fill="none" stroke="black" d="M634.22,-143.11C640.36,-116.84 654.52,-75.38 685,-56.47 835.64,37.02 1059.2,-8.04 1162.68,-36.83"/>
<polygon fill="black" stroke="black" points="1161.63,-40.46 1172.21,-39.82 1163.54,-33.72 1161.63,-40.46"/>
<text text-anchor="middle" x="924.5" y="-65.47" font-family="Times New Roman,serif" font-size="30.00"> &#160;&#160;810 &#160;&#160;0% &#160;&#160;4.25e&#45;07 mol/s &#160;&#160;&#160;9.95E&#45;01</text>
</g>
<!-- R0 -->
<g id="node2" class="node">
<title>R0</title>
<g id="a_node2"><a xlink:href="0.svg" xlink:title="R0">
<polygon fill="azure" stroke="none" points="67,-249.97 9,-249.97 9,-202.97 67,-202.97 67,-249.97"/>
<text text-anchor="middle" x="38" y="-217.97" font-family="Times New Roman,serif" font-size="35.00">R0</text>
</a>
</g>
</g>
<!-- R0&#45;&gt;R98 -->
<g id="edge1" class="edge">
<title>R0&#45;&gt;R98</title>
<path fill="none" stroke="black" stroke-width="2" d="M66.8,-234.51C149.46,-256.83 399,-312.53 577,-228.47 590.33,-222.17 601.34,-210.5 609.69,-198.97"/>
<polygon fill="black" stroke="black" stroke-width="2" points="612.14,-202.11 614.8,-191.85 606.32,-198.21 612.14,-202.11"/>
<text text-anchor="middle" x="333.5" y="-281.47" font-family="Times New Roman,serif" font-size="30.00"> &#160;&#160;125 &#160;&#160;32% &#160;&#160;1.38e&#45;07 mol/s &#160;&#160;&#160;5.96E&#45;01</text>
</g>
<!-- R0&#45;&gt;R98 -->
<g id="edge6" class="edge">
<title>R0&#45;&gt;R98</title>
<path fill="none" stroke="black" stroke-width="4" d="M66.88,-203.24C74.01,-198.49 81.95,-194.14 90,-191.47 137.48,-175.72 466.79,-176.45 570.5,-172.28"/>
<polygon fill="black" stroke="black" stroke-width="4" points="565.68,-179.22 585.26,-171.13 564.91,-165.25 565.68,-179.22"/>
<text text-anchor="middle" x="333.5" y="-200.47" font-family="Times New Roman,serif" font-size="30.00"> &#160;&#160;798 &#160;&#160;67% &#160;&#160;2.83e&#45;07 mol/s &#160;&#160;&#160;7.47E&#45;01</text>
</g>
<!-- R55 -->
<g id="node3" class="node">
<title>R55</title>
<g id="a_node3"><a xlink:href="55.svg" xlink:title="R55">
<polygon fill="azure" stroke="none" points="76,-161.97 0,-161.97 0,-114.97 76,-114.97 76,-161.97"/>
<text text-anchor="middle" x="38" y="-129.97" font-family="Times New Roman,serif" font-size="35.00">R55</text>
</a>
</g>
</g>
<!-- R55&#45;&gt;R98 -->
<g id="edge2" class="edge">
<title>R55&#45;&gt;R98</title>
<path fill="none" stroke="black" stroke-width="2" d="M75.95,-132.53C164.23,-119.65 393.71,-93.76 577,-139.47 578.34,-139.8 579.68,-140.18 581.03,-140.59"/>
<polygon fill="black" stroke="black" stroke-width="2" points="578.64,-143.18 589.23,-143.38 581.08,-136.62 578.64,-143.18"/>
<text text-anchor="middle" x="333.5" y="-148.47" font-family="Times New Roman,serif" font-size="30.00"> &#160;&#160;125 &#160;&#160;32% &#160;&#160;1.38e&#45;07 mol/s &#160;&#160;&#160;5.96E&#45;01</text>
</g>
<!-- R56 -->
<g id="node7" class="node">
<title>R56</title>
<g id="a_node7"><a xlink:href="56.svg" xlink:title="R56">
<polygon fill="azure" stroke="none" points="76,-96.97 0,-96.97 0,-49.97 76,-49.97 76,-96.97"/>
<text text-anchor="middle" x="38" y="-64.97" font-family="Times New Roman,serif" font-size="35.00">R56</text>
</a>
</g>
</g>
<!-- R56&#45;&gt;R98 -->
<g id="edge7" class="edge">
<title>R56&#45;&gt;R98</title>
<path fill="none" stroke="black" stroke-width="4" d="M75.89,-61.95C167.99,-35.54 412.43,20.05 577,-76.47 594.69,-86.84 606.74,-105.86 614.67,-123.76"/>
<polygon fill="black" stroke="black" stroke-width="4" points="606.44,-122.07 620.06,-138.31 619.54,-117.12 606.44,-122.07"/>
<text text-anchor="middle" x="333.5" y="-85.47" font-family="Times New Roman,serif" font-size="30.00"> &#160;&#160;798 &#160;&#160;67% &#160;&#160;2.83e&#45;07 mol/s &#160;&#160;&#160;7.47E&#45;01</text>
</g>
</g>
</svg>
