<?xml version="1.0" encoding="UTF-8" standalone="no"?>
<!DOCTYPE svg PUBLIC "-//W3C//DTD SVG 1.1//EN"
 "http://www.w3.org/Graphics/SVG/1.1/DTD/svg11.dtd">
<!-- Generated by graphviz version 8.0.3 (20230416.2022)
 -->
<!-- Title: test Pages: 1 -->
<svg width="217pt" height="95pt"
 viewBox="0.00 0.00 217.00 95.00" xmlns="http://www.w3.org/2000/svg" xmlns:xlink="http://www.w3.org/1999/xlink">
<g id="graph0" class="graph" transform="scale(1 1) rotate(0) translate(4 91)">
<title>test</title>
<polygon fill="white" stroke="none" points="-4,4 -4,-91 213,-91 213,4 -4,4"/>
<!-- legend -->
<g id="node1" class="node">
<title>legend</title>
<polygon fill="none" stroke="black" points="11,-57 11,-80 198,-80 198,-57 11,-57"/>
<text text-anchor="start" x="80.5" y="-66" font-family="Times New Roman,serif" font-weight="bold" font-size="15.00">Legend</text>
<polygon fill="cornsilk" stroke="none" points="11,-32 11,-55 96,-55 96,-32 11,-32"/>
<polygon fill="none" stroke="black" points="11,-32 11,-55 96,-55 96,-32 11,-32"/>
<text text-anchor="start" x="14" y="-40" font-family="Times New Roman,serif" font-size="15.00"> &#160;&#160;&#160;&#160;&#160;&#160;&#160;&#160;&#160;&#160;&#160;&#160;&#160;&#160;&#160;&#160;&#160;&#160;&#160;&#160;</text>
<polygon fill="none" stroke="black" points="98,-32 98,-55 198,-55 198,-32 98,-32"/>
<text text-anchor="start" x="112" y="-40" font-family="Times New Roman,serif" font-size="15.00">Gas species</text>
<polygon fill="azure" stroke="none" points="11,-7 11,-30 96,-30 96,-7 11,-7"/>
<polygon fill="none" stroke="black" points="11,-7 11,-30 96,-30 96,-7 11,-7"/>
<text text-anchor="start" x="14" y="-15" font-family="Times New Roman,serif" font-size="15.00"> &#160;&#160;&#160;&#160;&#160;&#160;&#160;&#160;&#160;&#160;&#160;&#160;&#160;&#160;&#160;&#160;&#160;&#160;&#160;&#160;</text>
<polygon fill="none" stroke="black" points="98,-7 98,-30 198,-30 198,-7 98,-7"/>
<text text-anchor="start" x="101" y="-15" font-family="Times New Roman,serif" font-size="15.00">Surface species</text>
<polygon fill="none" stroke="black" points="8,-4 8,-83 201,-83 201,-4 8,-4"/>
</g>
</g>
</svg>
