<?xml version="1.0" encoding="UTF-8" standalone="no"?>
<!DOCTYPE svg PUBLIC "-//W3C//DTD SVG 1.1//EN"
 "http://www.w3.org/Graphics/SVG/1.1/DTD/svg11.dtd">
<!-- Generated by graphviz version 8.0.3 (20230416.2022)
 -->
<!-- Title: G Pages: 1 -->
<svg width="392pt" height="614pt"
 viewBox="0.00 0.00 441.00 691.00" xmlns="http://www.w3.org/2000/svg" xmlns:xlink="http://www.w3.org/1999/xlink">
<g id="graph0" class="graph" transform="scale(0.888889 0.888889) rotate(0) translate(4 687)">
<title>G</title>
<polygon fill="white" stroke="none" points="-4,4 -4,-687 437,-687 437,4 -4,4"/>
<text text-anchor="middle" x="216.5" y="-650.2" font-family="Arial" font-size="36.00" fill="blue">Reaction Path Analysis</text>
<!-- H(S1) -->
<g id="node1" class="node">
<title>H(S1)</title>
<g id="a_node1"><a xlink:href="Species\7.svg" xlink:title="H(S1)">
<polygon fill="azure" stroke="none" points="216.5,-243 113.5,-243 113.5,-196 216.5,-196 216.5,-243"/>
<text text-anchor="middle" x="165" y="-211" font-family="Times New Roman,serif" font-size="35.00">H(S1)</text>
</a>
</g>
</g>
<!-- H2 -->
<g id="node2" class="node">
<title>H2</title>
<g id="a_node2"><a xlink:href="Species\0.svg" xlink:title="H2">
<polygon fill="cornsilk" stroke="none" points="194.5,-145 135.5,-145 135.5,-98 194.5,-98 194.5,-145"/>
<text text-anchor="middle" x="165" y="-113" font-family="Times New Roman,serif" font-size="35.00">H2</text>
</a>
</g>
</g>
<!-- H(S1)&#45;&gt;H2 -->
<g id="edge1" class="edge">
<title>H(S1)&#45;&gt;H2</title>
<path fill="none" stroke="green" stroke-width="8" d="M165,-196.23C165,-187.09 165,-176.18 165,-165.59"/>
<polygon fill="green" stroke="green" stroke-width="8" points="179,-170.98 165,-150.98 151,-170.98 179,-170.98"/>
<text text-anchor="middle" x="211.5" y="-163" font-family="Times New Roman,serif" font-size="30.00"> &#160;&#160;150%</text>
</g>
<!-- N2(S1) -->
<g id="node3" class="node">
<title>N2(S1)</title>
<g id="a_node3"><a xlink:href="Species\5.svg" xlink:title="N2(S1)">
<polygon fill="azure" stroke="none" points="401,-145 279,-145 279,-98 401,-98 401,-145"/>
<text text-anchor="middle" x="340" y="-113" font-family="Times New Roman,serif" font-size="35.00">N2(S1)</text>
</a>
</g>
</g>
<!-- N2 -->
<g id="node4" class="node">
<title>N2</title>
<g id="a_node4"><a xlink:href="Species\1.svg" xlink:title="N2">
<polygon fill="cornsilk" stroke="none" points="370,-47 310,-47 310,0 370,0 370,-47"/>
<text text-anchor="middle" x="340" y="-15" font-family="Times New Roman,serif" font-size="35.00">N2</text>
</a>
</g>
</g>
<!-- N2(S1)&#45;&gt;N2 -->
<g id="edge2" class="edge">
<title>N2(S1)&#45;&gt;N2</title>
<path fill="none" stroke="green" stroke-width="3" d="M340,-98.23C340,-86.2 340,-71.11 340,-57.72"/>
<polygon fill="green" stroke="green" stroke-width="3" points="343.5,-60.98 340,-50.98 336.5,-60.98 343.5,-60.98"/>
<text text-anchor="middle" x="379" y="-65" font-family="Times New Roman,serif" font-size="30.00"> &#160;&#160;50%</text>
</g>
<!-- NH3 -->
<g id="node5" class="node">
<title>NH3</title>
<g id="a_node5"><a xlink:href="Species\2.svg" xlink:title="NH3">
<polygon fill="cornsilk" stroke="none" points="115.5,-635 30.5,-635 30.5,-588 115.5,-588 115.5,-635"/>
<text text-anchor="middle" x="73" y="-603" font-family="Times New Roman,serif" font-size="35.00">NH3</text>
</a>
</g>
</g>
<!-- NH3(S1) -->
<g id="node6" class="node">
<title>NH3(S1)</title>
<g id="a_node6"><a xlink:href="Species\8.svg" xlink:title="NH3(S1)">
<polygon fill="azure" stroke="none" points="146,-537 0,-537 0,-490 146,-490 146,-537"/>
<text text-anchor="middle" x="73" y="-505" font-family="Times New Roman,serif" font-size="35.00">NH3(S1)</text>
</a>
</g>
</g>
<!-- NH3&#45;&gt;NH3(S1) -->
<g id="edge3" class="edge">
<title>NH3&#45;&gt;NH3(S1)</title>
<path fill="none" stroke="green" stroke-width="6" d="M73,-588.23C73,-576.2 73,-561.11 73,-547.72"/>
<polygon fill="green" stroke="green" stroke-width="6" points="78.25,-552.98 73,-542.98 67.75,-552.98 78.25,-552.98"/>
<text text-anchor="middle" x="119.5" y="-555" font-family="Times New Roman,serif" font-size="30.00"> &#160;&#160;100%</text>
</g>
<!-- NH3(S1)&#45;&gt;H(S1) -->
<g id="edge5" class="edge">
<title>NH3(S1)&#45;&gt;H(S1)</title>
<path fill="none" stroke="black" stroke-width="6" d="M67.58,-490.25C60.84,-458.28 52.04,-397.94 68,-350 80.92,-311.21 110.5,-274.67 133.62,-250.36"/>
<polygon fill="black" stroke="black" stroke-width="6" points="133.97,-257.42 137.18,-246.59 126.45,-250.09 133.97,-257.42"/>
<text text-anchor="middle" x="114.5" y="-359" font-family="Times New Roman,serif" font-size="30.00"> &#160;&#160;100%</text>
</g>
<!-- NH2(S1) -->
<g id="node8" class="node">
<title>NH2(S1)</title>
<g id="a_node8"><a xlink:href="Species\9.svg" xlink:title="NH2(S1)">
<polygon fill="azure" stroke="none" points="238,-439 92,-439 92,-392 238,-392 238,-439"/>
<text text-anchor="middle" x="165" y="-407" font-family="Times New Roman,serif" font-size="35.00">NH2(S1)</text>
</a>
</g>
</g>
<!-- NH3(S1)&#45;&gt;NH2(S1) -->
<g id="edge6" class="edge">
<title>NH3(S1)&#45;&gt;NH2(S1)</title>
<path fill="none" stroke="black" stroke-width="6" d="M94.34,-490.23C106.79,-477.24 122.66,-460.68 136.21,-446.54"/>
<polygon fill="black" stroke="black" stroke-width="6" points="136.33,-453.83 139.46,-442.98 128.75,-446.56 136.33,-453.83"/>
<text text-anchor="middle" x="179.5" y="-457" font-family="Times New Roman,serif" font-size="30.00"> &#160;&#160;100%</text>
</g>
<!-- N(S1) -->
<g id="node7" class="node">
<title>N(S1)</title>
<g id="a_node7"><a xlink:href="Species\6.svg" xlink:title="N(S1)">
<polygon fill="azure" stroke="none" points="392,-243 288,-243 288,-196 392,-196 392,-243"/>
<text text-anchor="middle" x="340" y="-211" font-family="Times New Roman,serif" font-size="35.00">N(S1)</text>
</a>
</g>
</g>
<!-- N(S1)&#45;&gt;N2(S1) -->
<g id="edge4" class="edge">
<title>N(S1)&#45;&gt;N2(S1)</title>
<path fill="none" stroke="black" stroke-width="3" d="M340,-196.23C340,-184.2 340,-169.11 340,-155.72"/>
<polygon fill="black" stroke="black" stroke-width="3" points="343.5,-158.98 340,-148.98 336.5,-158.98 343.5,-158.98"/>
<text text-anchor="middle" x="379" y="-163" font-family="Times New Roman,serif" font-size="30.00"> &#160;&#160;50%</text>
</g>
<!-- NH2(S1)&#45;&gt;H(S1) -->
<g id="edge7" class="edge">
<title>NH2(S1)&#45;&gt;H(S1)</title>
<path fill="none" stroke="green" stroke-width="6" d="M165,-392.25C165,-358.28 165,-293.28 165,-253.71"/>
<polygon fill="green" stroke="green" stroke-width="6" points="170.25,-258.79 165,-248.79 159.75,-258.79 170.25,-258.79"/>
<text text-anchor="middle" x="211.5" y="-310" font-family="Times New Roman,serif" font-size="30.00"> &#160;&#160;100%</text>
</g>
<!-- NH(S1) -->
<g id="node9" class="node">
<title>NH(S1)</title>
<g id="a_node9"><a xlink:href="Species\10.svg" xlink:title="NH(S1)">
<polygon fill="azure" stroke="none" points="404,-341 276,-341 276,-294 404,-294 404,-341"/>
<text text-anchor="middle" x="340" y="-309" font-family="Times New Roman,serif" font-size="35.00">NH(S1)</text>
</a>
</g>
</g>
<!-- NH2(S1)&#45;&gt;NH(S1) -->
<g id="edge8" class="edge">
<title>NH2(S1)&#45;&gt;NH(S1)</title>
<path fill="none" stroke="green" stroke-width="6" d="M205.59,-392.23C230.59,-378.52 262.84,-360.83 289.49,-346.21"/>
<polygon fill="green" stroke="green" stroke-width="6" points="287.78,-353.39 294.03,-343.98 282.73,-344.18 287.78,-353.39"/>
<text text-anchor="middle" x="324.5" y="-359" font-family="Times New Roman,serif" font-size="30.00"> &#160;&#160;100%</text>
</g>
<!-- NH(S1)&#45;&gt;H(S1) -->
<g id="edge9" class="edge">
<title>NH(S1)&#45;&gt;H(S1)</title>
<path fill="none" stroke="green" stroke-width="6" d="M276.05,-297.72C262.05,-293.15 249.48,-288.56 243,-285 225.91,-275.61 208.98,-262.24 195.28,-250.11"/>
<polygon fill="green" stroke="green" stroke-width="6" points="202.13,-249.6 191.2,-246.76 195.07,-257.37 202.13,-249.6"/>
<text text-anchor="middle" x="289.5" y="-261" font-family="Times New Roman,serif" font-size="30.00"> &#160;&#160;100%</text>
</g>
<!-- NH(S1)&#45;&gt;N(S1) -->
<g id="edge10" class="edge">
<title>NH(S1)&#45;&gt;N(S1)</title>
<path fill="none" stroke="green" stroke-width="6" d="M340,-294.23C340,-282.2 340,-267.11 340,-253.72"/>
<polygon fill="green" stroke="green" stroke-width="6" points="345.25,-258.98 340,-248.98 334.75,-258.98 345.25,-258.98"/>
<text text-anchor="middle" x="386.5" y="-261" font-family="Times New Roman,serif" font-size="30.00"> &#160;&#160;100%</text>
</g>
</g>
</svg>
