<?xml version="1.0" encoding="UTF-8" standalone="no"?>
<!DOCTYPE svg PUBLIC "-//W3C//DTD SVG 1.1//EN"
 "http://www.w3.org/Graphics/SVG/1.1/DTD/svg11.dtd">
<!-- Generated by graphviz version 8.0.3 (20230416.2022)
 -->
<!-- Title: G Pages: 1 -->
<svg width="640pt" height="319pt"
 viewBox="0.00 0.00 720.00 359.20" xmlns="http://www.w3.org/2000/svg" xmlns:xlink="http://www.w3.org/1999/xlink">
<g id="graph0" class="graph" transform="scale(0.354767 0.354767) rotate(0) translate(4 896)">
<title>G</title>
<polygon fill="white" stroke="none" points="-4,4 -4,-896 1800,-896 1800,4 -4,4"/>
<text text-anchor="middle" x="898" y="-808" font-family="Arial" font-size="100.00" fill="blue">Pathway 1</text>
<!-- 1 -->
<g id="node1" class="node">
<title>1</title>
<g id="a_node1"><a xlink:href="Species_pathways\1.svg">
<polygon fill="none" stroke="black" points="1078,-360 718,-360 718,0 1078,0 1078,-360"/>
<image xlink:href="000001.png" width="348.966px" height="360px" preserveAspectRatio="xMinYMin meet" x="723.517" y="-360"/>
</a>
</g>
</g>
<!-- 2 -->
<g id="node2" class="node">
<title>2</title>
<g id="a_node2"><a xlink:href="Species_pathways\2.svg">
<polygon fill="none" stroke="black" points="1796,-360 1436,-360 1436,0 1796,0 1796,-360"/>
</a>
</g>
</g>
<!-- 1&#45;&gt;2 -->
<g id="edge1" class="edge">
<title>1&#45;&gt;2</title>
<path fill="none" stroke="black" stroke-width="11" d="M1078.29,-180C1181.9,-180 1312.36,-180 1418.72,-180"/>
<polygon fill="black" stroke="black" stroke-width="11" points="1418.57,-189.63 1428.57,-180 1418.57,-170.38 1418.57,-189.63"/>
<text text-anchor="middle" x="1257" y="-194" font-family="Times New Roman,serif" font-size="45.00"> &#160;&#160;0.9</text>
</g>
<!-- 3 -->
<g id="node3" class="node">
<title>3</title>
<g id="a_node3"><a xlink:href="Species_pathways\3.svg">
<polygon fill="none" stroke="black" points="1078,-774 718,-774 718,-414 1078,-414 1078,-774"/>
</a>
</g>
</g>
<!-- 2&#45;&gt;3 -->
<g id="edge2" class="edge">
<title>2&#45;&gt;3</title>
<path fill="none" stroke="black" stroke-width="11" stroke-dasharray="5,2" d="M1435.57,-283.75C1331.19,-344.1 1199.6,-420.19 1092.85,-481.91"/>
<polygon fill="black" stroke="black" stroke-width="11" points="1088.13,-473.99 1084.29,-487.33 1097.77,-490.66 1088.13,-473.99"/>
<text text-anchor="middle" x="1257" y="-485" font-family="Times New Roman,serif" font-size="45.00"> &#160;&#160;&#160;&#160;&#160;&#160;&#160;&#160;&#160;&#160;&#160;&#160;&#160;&#160;&#160;&#160;&#160;&#160;&#160;0.8*</text>
</g>
<!-- 4 -->
<g id="node4" class="node">
<title>4</title>
<g id="a_node4"><a xlink:href="Species_pathways\4.svg">
<polygon fill="none" stroke="black" points="360,-774 0,-774 0,-414 360,-414 360,-774"/>
</a>
</g>
</g>
<!-- 4&#45;&gt;3 -->
<g id="edge3" class="edge">
<title>4&#45;&gt;3</title>
<path fill="none" stroke="black" stroke-width="11" d="M377.14,-594C483.48,-594 613.94,-594 717.57,-594"/>
<polygon fill="black" stroke="black" stroke-width="11" points="377.29,-584.38 367.29,-594 377.29,-603.63 377.29,-584.38"/>
<text text-anchor="middle" x="539" y="-608" font-family="Times New Roman,serif" font-size="45.00"> &#160;&#160;0.9</text>
</g>
<!-- Original -->
<g id="node5" class="node">
<title>Original</title>
<g id="a_node5"><a xlink:href="pathway_visualization.svg" xlink:title="All Pathways">
<polygon fill="grey" stroke="black" points="324,-216 36,-216 36,-144 324,-144 324,-216"/>
<text text-anchor="middle" x="180" y="-169" font-family="Times New Roman,serif" font-size="45.00" fill="white">All Pathways</text>
</a>
</g>
</g>
<!-- Original&#45;&gt;1 -->
<g id="edge4" class="edge">
<title>Original&#45;&gt;1</title>
</g>
</g>
</svg>
