<?xml version="1.0" encoding="UTF-8" standalone="no"?>
<!DOCTYPE svg PUBLIC "-//W3C//DTD SVG 1.1//EN"
 "http://www.w3.org/Graphics/SVG/1.1/DTD/svg11.dtd">
<!-- Generated by graphviz version 8.0.3 (20230416.2022)
 -->
<!-- Title: G Pages: 1 -->
<svg width="640pt" height="147pt"
 viewBox="0.00 0.00 720.00 165.03" xmlns="http://www.w3.org/2000/svg" xmlns:xlink="http://www.w3.org/1999/xlink">
<g id="graph0" class="graph" transform="scale(0.324544 0.324544) rotate(0) translate(4 448)">
<title>G</title>
<polygon fill="white" stroke="none" points="-4,4 -4,-448 1968,-448 1968,4 -4,4"/>
<text text-anchor="middle" x="982" y="-411.2" font-family="Arial" font-size="36.00" fill="blue">Reaction Path Analysis</text>
<!-- 0 -->
<g id="node1" class="node">
<title>0</title>
<g id="a_node1"><a xlink:href="0.svg">
<polygon fill="none" stroke="black" points="1108,-396 892,-396 892,-180 1108,-180 1108,-396"/>
<image xlink:href="000000.png" width="216px" height="211.304px" preserveAspectRatio="xMinYMin meet" x="892" y="-393.652"/>
</a>
</g>
</g>
<!-- 1 -->
<g id="node3" class="node">
<title>1</title>
<g id="a_node3"><a xlink:href="1.svg">
<polygon fill="none" stroke="black" points="1964,-396 1748,-396 1748,-180 1964,-180 1964,-396"/>
<image xlink:href="000001.png" width="209.379px" height="216px" preserveAspectRatio="xMinYMin meet" x="1751.31" y="-396"/>
</a>
</g>
</g>
<!-- 0&#45;&gt;1 -->
<g id="edge2" class="edge">
<title>0&#45;&gt;1</title>
<path fill="none" stroke="darkmagenta" stroke-width="9" d="M1108.29,-288C1266.92,-288 1563.28,-288 1730.99,-288"/>
<polygon fill="darkmagenta" stroke="darkmagenta" stroke-width="9" points="1730.81,-295.88 1740.81,-288 1730.81,-280.13 1730.81,-295.88"/>
<text text-anchor="middle" x="1428" y="-302" font-family="Times New Roman,serif" font-size="45.00" fill="darkmagenta"> &#160;&#160;0.273</text>
</g>
<!-- 32 -->
<g id="node2" class="node">
<title>32</title>
<g id="a_node2"><a xlink:href="32.svg">
<polygon fill="none" stroke="black" points="252,-396 36,-396 36,-180 252,-180 252,-396"/>
<image xlink:href="100000.png" width="198.079px" height="216px" preserveAspectRatio="xMinYMin meet" x="44.9607" y="-396"/>
</a>
</g>
</g>
<!-- 32&#45;&gt;0 -->
<g id="edge1" class="edge">
<title>32&#45;&gt;0</title>
<path fill="none" stroke="darkmagenta" stroke-width="6" d="M252.29,-288C411.24,-288 708.48,-288 876.01,-288"/>
<polygon fill="darkmagenta" stroke="darkmagenta" stroke-width="6" points="875.81,-293.25 885.81,-288 875.81,-282.75 875.81,-293.25"/>
<text text-anchor="middle" x="572" y="-302" font-family="Times New Roman,serif" font-size="45.00" fill="darkmagenta"> &#160;&#160;0.077</text>
</g>
<!-- Original -->
<g id="node4" class="node">
<title>Original</title>
<g id="a_node4"><a xlink:href="..\pathway_visualization.svg" xlink:title="All Pathways">
<polygon fill="grey" stroke="black" points="288,-72 0,-72 0,0 288,0 288,-72"/>
<text text-anchor="middle" x="144" y="-25" font-family="Times New Roman,serif" font-size="45.00" fill="white">All Pathways</text>
</a>
</g>
</g>
<!-- Original&#45;&gt;0 -->
<g id="edge3" class="edge">
<title>Original&#45;&gt;0</title>
</g>
</g>
</svg>
