<?xml version="1.0" encoding="UTF-8" standalone="no"?>
<!DOCTYPE svg PUBLIC "-//W3C//DTD SVG 1.1//EN"
 "http://www.w3.org/Graphics/SVG/1.1/DTD/svg11.dtd">
<!-- Generated by graphviz version 8.0.3 (20230416.2022)
 -->
<!-- Title: G Pages: 1 -->
<svg width="640pt" height="252pt"
 viewBox="0.00 0.00 720.00 283.33" xmlns="http://www.w3.org/2000/svg" xmlns:xlink="http://www.w3.org/1999/xlink">
<g id="graph0" class="graph" transform="scale(0.324544 0.324544) rotate(0) translate(4 772)">
<title>G</title>
<polygon fill="white" stroke="none" points="-4,4 -4,-772 1968,-772 1968,4 -4,4"/>
<text text-anchor="middle" x="982" y="-735.2" font-family="Arial" font-size="36.00" fill="blue">Reaction Path Analysis</text>
<!-- 1 -->
<g id="node1" class="node">
<title>1</title>
<g id="a_node1"><a xlink:href="1.svg">
<polygon fill="none" stroke="black" points="1108,-558 892,-558 892,-342 1108,-342 1108,-558"/>
<image xlink:href="000001.png" width="209.379px" height="216px" preserveAspectRatio="xMinYMin meet" x="895.31" y="-558"/>
</a>
</g>
</g>
<!-- 34 -->
<g id="node3" class="node">
<title>34</title>
<g id="a_node3"><a xlink:href="34.svg">
<polygon fill="none" stroke="black" points="1964,-558 1748,-558 1748,-342 1964,-342 1964,-558"/>
<image xlink:href="100010.png" width="209.354px" height="216px" preserveAspectRatio="xMinYMin meet" x="1751.32" y="-558"/>
</a>
</g>
</g>
<!-- 1&#45;&gt;34 -->
<g id="edge2" class="edge">
<title>1&#45;&gt;34</title>
<path fill="none" stroke="cadetblue" stroke-width="9" d="M1108.29,-450C1266.92,-450 1563.28,-450 1730.99,-450"/>
<polygon fill="cadetblue" stroke="cadetblue" stroke-width="9" points="1730.81,-457.88 1740.81,-450 1730.81,-442.13 1730.81,-457.88"/>
<text text-anchor="middle" x="1428" y="-464" font-family="Times New Roman,serif" font-size="45.00" fill="cadetblue"> &#160;&#160;0.278</text>
</g>
<!-- 1&#45;&gt;34 -->
<g id="edge4" class="edge">
<title>1&#45;&gt;34</title>
<path fill="none" stroke="darkmagenta" stroke-width="9" d="M1108.44,-420.74C1179.27,-402.99 1274.43,-382.07 1360,-373 1487.19,-359.51 1631.6,-386.93 1731.48,-412.71"/>
<polygon fill="darkmagenta" stroke="darkmagenta" stroke-width="9" points="1729.05,-421.06 1740.73,-415.99 1733.07,-405.83 1729.05,-421.06"/>
<text text-anchor="middle" x="1428" y="-387" font-family="Times New Roman,serif" font-size="45.00" fill="darkmagenta"> &#160;&#160;0.278</text>
</g>
<!-- 5 -->
<g id="node2" class="node">
<title>5</title>
<g id="a_node2"><a xlink:href="5.svg">
<polygon fill="none" stroke="black" points="252,-720 36,-720 36,-504 252,-504 252,-720"/>
<image xlink:href="000101.png" width="186.545px" height="216px" preserveAspectRatio="xMinYMin meet" x="50.7273" y="-720"/>
</a>
</g>
</g>
<!-- 5&#45;&gt;1 -->
<g id="edge1" class="edge">
<title>5&#45;&gt;1</title>
<path fill="none" stroke="cadetblue" stroke-width="5" d="M252.29,-591.65C411.32,-561.48 708.78,-505.05 876.26,-473.28"/>
<polygon fill="cadetblue" stroke="cadetblue" stroke-width="5" points="876.8,-477.5 885.81,-471.33 875.17,-468.9 876.8,-477.5"/>
<text text-anchor="middle" x="572" y="-554" font-family="Times New Roman,serif" font-size="45.00" fill="cadetblue"> &#160;&#160;0.043</text>
</g>
<!-- 0 -->
<g id="node4" class="node">
<title>0</title>
<g id="a_node4"><a xlink:href="0.svg">
<polygon fill="none" stroke="black" points="252,-396 36,-396 36,-180 252,-180 252,-396"/>
<image xlink:href="000000.png" width="216px" height="211.304px" preserveAspectRatio="xMinYMin meet" x="36" y="-393.652"/>
</a>
</g>
</g>
<!-- 0&#45;&gt;1 -->
<g id="edge3" class="edge">
<title>0&#45;&gt;1</title>
<path fill="none" stroke="darkmagenta" stroke-width="9" d="M252.29,-308.35C411,-338.46 707.58,-394.72 875.25,-426.52"/>
<polygon fill="darkmagenta" stroke="darkmagenta" stroke-width="9" points="873.52,-434.54 884.81,-428.67 876.45,-419.07 873.52,-434.54"/>
<text text-anchor="middle" x="572" y="-392" font-family="Times New Roman,serif" font-size="45.00" fill="darkmagenta"> &#160;&#160;0.273</text>
</g>
<!-- Original -->
<g id="node5" class="node">
<title>Original</title>
<g id="a_node5"><a xlink:href="..\pathway_visualization.svg" xlink:title="All Pathways">
<polygon fill="grey" stroke="black" points="288,-72 0,-72 0,0 288,0 288,-72"/>
<text text-anchor="middle" x="144" y="-25" font-family="Times New Roman,serif" font-size="45.00" fill="white">All Pathways</text>
</a>
</g>
</g>
<!-- Original&#45;&gt;1 -->
<g id="edge5" class="edge">
<title>Original&#45;&gt;1</title>
</g>
</g>
</svg>
