<?xml version="1.0" encoding="UTF-8" standalone="no"?>
<!DOCTYPE svg PUBLIC "-//W3C//DTD SVG 1.1//EN"
 "http://www.w3.org/Graphics/SVG/1.1/DTD/svg11.dtd">
<!-- Generated by graphviz version 8.0.3 (20230416.2022)
 -->
<!-- Title: G Pages: 1 -->
<svg width="640pt" height="220pt"
 viewBox="0.00 0.00 720.00 247.91" xmlns="http://www.w3.org/2000/svg" xmlns:xlink="http://www.w3.org/1999/xlink">
<g id="graph0" class="graph" transform="scale(0.324544 0.324544) rotate(0) translate(4 675)">
<title>G</title>
<polygon fill="white" stroke="none" points="-4,4 -4,-675 1968,-675 1968,4 -4,4"/>
<text text-anchor="middle" x="982" y="-638.2" font-family="Arial" font-size="36.00" fill="blue">Reaction Path Analysis</text>
<!-- 17 -->
<g id="node1" class="node">
<title>17</title>
<g id="a_node1"><a xlink:href="17.svg">
<polygon fill="none" stroke="black" points="1108,-461 892,-461 892,-245 1108,-245 1108,-461"/>
<image xlink:href="010001.png" width="212.227px" height="216px" preserveAspectRatio="xMinYMin meet" x="893.886" y="-461"/>
</a>
</g>
</g>
<!-- 25 -->
<g id="node3" class="node">
<title>25</title>
<g id="a_node3"><a xlink:href="25.svg">
<polygon fill="none" stroke="black" points="1964,-623 1748,-623 1748,-407 1964,-407 1964,-623"/>
<image xlink:href="011001.png" width="216px" height="207.652px" preserveAspectRatio="xMinYMin meet" x="1748" y="-618.826"/>
</a>
</g>
</g>
<!-- 17&#45;&gt;25 -->
<g id="edge2" class="edge">
<title>17&#45;&gt;25</title>
<path fill="none" stroke="darkblue" stroke-width="6" d="M1108.29,-373.35C1267.32,-403.52 1564.78,-459.95 1732.26,-491.72"/>
<polygon fill="darkblue" stroke="darkblue" stroke-width="6" points="1731.01,-496.96 1741.81,-493.67 1732.96,-486.64 1731.01,-496.96"/>
<text text-anchor="middle" x="1428" y="-462" font-family="Times New Roman,serif" font-size="45.00" fill="darkblue"> &#160;&#160;0.096</text>
</g>
<!-- 16 -->
<g id="node4" class="node">
<title>16</title>
<g id="a_node4"><a xlink:href="16.svg">
<polygon fill="none" stroke="black" points="1964,-299 1748,-299 1748,-83 1964,-83 1964,-299"/>
<image xlink:href="010000.png" width="203.186px" height="216px" preserveAspectRatio="xMinYMin meet" x="1754.41" y="-299"/>
</a>
</g>
</g>
<!-- 17&#45;&gt;16 -->
<g id="edge4" class="edge">
<title>17&#45;&gt;16</title>
<path fill="none" stroke="darkmagenta" stroke-width="14" d="M1108.29,-332.65C1266.36,-302.66 1561.18,-246.74 1729.21,-214.86"/>
<polygon fill="darkmagenta" stroke="darkmagenta" stroke-width="14" points="1732.27,-226.23 1739.81,-212.33 1727.7,-202.16 1732.27,-226.23"/>
<text text-anchor="middle" x="1428" y="-300" font-family="Times New Roman,serif" font-size="45.00" fill="darkmagenta"> &#160;&#160;22.581</text>
</g>
<!-- 21 -->
<g id="node2" class="node">
<title>21</title>
<g id="a_node2"><a xlink:href="21.svg">
<polygon fill="none" stroke="black" points="252,-416 36,-416 36,-200 252,-200 252,-416"/>
<image xlink:href="010101.png" width="210.716px" height="216px" preserveAspectRatio="xMinYMin meet" x="38.6422" y="-416"/>
</a>
</g>
</g>
<!-- 21&#45;&gt;17 -->
<g id="edge1" class="edge">
<title>21&#45;&gt;17</title>
<path fill="none" stroke="darkblue" stroke-width="4" d="M252.29,-313.65C411.24,-322.03 708.48,-337.69 876.01,-346.52"/>
<polygon fill="darkblue" stroke="darkblue" stroke-width="4" points="875.64,-350.32 885.81,-347.35 876.01,-343.33 875.64,-350.32"/>
<text text-anchor="middle" x="572" y="-347" font-family="Times New Roman,serif" font-size="45.00" fill="darkblue"> &#160;&#160;0.033</text>
</g>
<!-- 21&#45;&gt;17 -->
<g id="edge3" class="edge">
<title>21&#45;&gt;17</title>
<path fill="none" stroke="darkmagenta" stroke-width="4" d="M252.36,-279.54C352.75,-256.69 506.76,-231.26 640,-250 720.46,-261.31 808.16,-286.23 876.74,-308.72"/>
<polygon fill="darkmagenta" stroke="darkmagenta" stroke-width="4" points="875.93,-312.8 886.52,-312.63 878.13,-306.15 875.93,-312.8"/>
<text text-anchor="middle" x="572" y="-264" font-family="Times New Roman,serif" font-size="45.00" fill="darkmagenta"> &#160;&#160;0.033</text>
</g>
<!-- Original -->
<g id="node5" class="node">
<title>Original</title>
<g id="a_node5"><a xlink:href="..\pathway_visualization.svg" xlink:title="All Pathways">
<polygon fill="grey" stroke="black" points="288,-72 0,-72 0,0 288,0 288,-72"/>
<text text-anchor="middle" x="144" y="-25" font-family="Times New Roman,serif" font-size="45.00" fill="white">All Pathways</text>
</a>
</g>
</g>
<!-- Original&#45;&gt;17 -->
<g id="edge5" class="edge">
<title>Original&#45;&gt;17</title>
</g>
</g>
</svg>
