<?xml version="1.0" encoding="UTF-8" standalone="no"?>
<!DOCTYPE svg PUBLIC "-//W3C//DTD SVG 1.1//EN"
 "http://www.w3.org/Graphics/SVG/1.1/DTD/svg11.dtd">
<!-- Generated by graphviz version 8.0.3 (20230416.2022)
 -->
<!-- Title: G Pages: 1 -->
<svg width="640pt" height="248pt"
 viewBox="0.00 0.00 720.00 279.21" xmlns="http://www.w3.org/2000/svg" xmlns:xlink="http://www.w3.org/1999/xlink">
<g id="graph0" class="graph" transform="scale(0.317776 0.317776) rotate(0) translate(4 777)">
<title>G</title>
<polygon fill="white" stroke="none" points="-4,4 -4,-777 2010,-777 2010,4 -4,4"/>
<text text-anchor="middle" x="1003" y="-740.2" font-family="Arial" font-size="36.00" fill="blue">Reaction Path Analysis</text>
<!-- 20 -->
<g id="node1" class="node">
<title>20</title>
<g id="a_node1"><a xlink:href="20.svg">
<polygon fill="none" stroke="black" points="1129,-640 913,-640 913,-424 1129,-424 1129,-640"/>
<image xlink:href="010100.png" width="208.58px" height="216px" preserveAspectRatio="xMinYMin meet" x="916.71" y="-640"/>
</a>
</g>
</g>
<!-- 16 -->
<g id="node3" class="node">
<title>16</title>
<g id="a_node3"><a xlink:href="16.svg">
<polygon fill="none" stroke="black" points="2006,-640 1790,-640 1790,-424 2006,-424 2006,-640"/>
<image xlink:href="010000.png" width="203.186px" height="216px" preserveAspectRatio="xMinYMin meet" x="1796.41" y="-640"/>
</a>
</g>
</g>
<!-- 20&#45;&gt;16 -->
<g id="edge2" class="edge">
<title>20&#45;&gt;16</title>
<path fill="none" stroke="chocolate" stroke-width="12" d="M1129.18,-587.56C1232.84,-634.62 1394.81,-690.67 1538,-665 1618.99,-650.48 1705.6,-618.9 1773.45,-590.16"/>
<polygon fill="chocolate" stroke="chocolate" stroke-width="12" points="1777.8,-599.71 1782.84,-586.12 1769.51,-580.42 1777.8,-599.71"/>
<text text-anchor="middle" x="1459.5" y="-685" font-family="Times New Roman,serif" font-size="45.00" fill="chocolate"> &#160;&#160;1.155</text>
</g>
<!-- 20&#45;&gt;16 -->
<g id="edge4" class="edge">
<title>20&#45;&gt;16</title>
<path fill="none" stroke="crimson" stroke-width="12" stroke-dasharray="5,2" d="M1129.29,-532C1291.71,-532 1599.28,-532 1771.73,-532"/>
<polygon fill="crimson" stroke="crimson" stroke-width="12" points="1771.52,-542.5 1781.52,-532 1771.52,-521.5 1771.52,-542.5"/>
<text text-anchor="middle" x="1459.5" y="-546" font-family="Times New Roman,serif" font-size="45.00" fill="crimson"> &#160;&#160;1.155*</text>
</g>
<!-- 20&#45;&gt;16 -->
<g id="edge6" class="edge">
<title>20&#45;&gt;16</title>
<path fill="none" stroke="darkgoldenrod" stroke-width="12" d="M1129.44,-502.74C1200.27,-484.99 1295.43,-464.07 1381,-455 1515.24,-440.77 1668.07,-469.2 1772.34,-495.45"/>
<polygon fill="darkgoldenrod" stroke="darkgoldenrod" stroke-width="12" points="1769.32,-505.57 1781.62,-497.89 1774.55,-485.23 1769.32,-505.57"/>
<text text-anchor="middle" x="1459.5" y="-469" font-family="Times New Roman,serif" font-size="45.00" fill="darkgoldenrod"> &#160;&#160;1.155</text>
</g>
<!-- 20&#45;&gt;16 -->
<g id="edge8" class="edge">
<title>20&#45;&gt;16</title>
<path fill="none" stroke="darkgreen" stroke-width="12" d="M1129.22,-470.74C1198.58,-434.72 1292.21,-392.68 1381,-374 1517.77,-345.23 1670.37,-403.65 1773.89,-457.4"/>
<polygon fill="darkgreen" stroke="darkgreen" stroke-width="12" points="1769.01,-467.41 1782.76,-462.81 1778.84,-448.85 1769.01,-467.41"/>
<text text-anchor="middle" x="1459.5" y="-388" font-family="Times New Roman,serif" font-size="45.00" fill="darkgreen"> &#160;&#160;1.155</text>
</g>
<!-- 50 -->
<g id="node2" class="node">
<title>50</title>
<g id="a_node2"><a xlink:href="50.svg">
<polygon fill="none" stroke="black" points="252,-722 36,-722 36,-506 252,-506 252,-722"/>
<image xlink:href="110010.png" width="176.436px" height="216px" preserveAspectRatio="xMinYMin meet" x="55.7822" y="-722"/>
</a>
</g>
</g>
<!-- 50&#45;&gt;20 -->
<g id="edge1" class="edge">
<title>50&#45;&gt;20</title>
<path fill="none" stroke="chocolate" stroke-width="12" stroke-dasharray="5,2" d="M252.41,-641.73C357.26,-664.79 521,-690.1 661,-665 741.99,-650.48 828.6,-618.9 896.45,-590.16"/>
<polygon fill="chocolate" stroke="chocolate" stroke-width="12" points="900.8,-599.71 905.84,-586.12 892.51,-580.42 900.8,-599.71"/>
<text text-anchor="middle" x="582.5" y="-689" font-family="Times New Roman,serif" font-size="45.00" fill="chocolate"> &#160;&#160;1.084*</text>
</g>
<!-- 50&#45;&gt;20 -->
<g id="edge5" class="edge">
<title>50&#45;&gt;20</title>
<path fill="none" stroke="darkgoldenrod" stroke-width="12" d="M252.29,-603.95C414.71,-588.72 722.28,-559.9 894.73,-543.74"/>
<polygon fill="darkgoldenrod" stroke="darkgoldenrod" stroke-width="12" points="895.54,-553.46 904.52,-542.07 893.58,-532.55 895.54,-553.46"/>
<text text-anchor="middle" x="582.5" y="-594" font-family="Times New Roman,serif" font-size="45.00" fill="darkgoldenrod"> &#160;&#160;1.084</text>
</g>
<!-- 50&#45;&gt;20 -->
<g id="edge7" class="edge">
<title>50&#45;&gt;20</title>
<path fill="none" stroke="darkgreen" stroke-width="12" d="M252.44,-565.56C322.47,-536.69 416.75,-502.87 504,-488 636.52,-465.42 790.25,-484.22 895.22,-503.77"/>
<polygon fill="darkgreen" stroke="darkgreen" stroke-width="12" points="892.81,-514.54 904.61,-506.1 896.76,-493.91 892.81,-514.54"/>
<text text-anchor="middle" x="582.5" y="-502" font-family="Times New Roman,serif" font-size="45.00" fill="darkgreen"> &#160;&#160;1.084</text>
</g>
<!-- 21 -->
<g id="node4" class="node">
<title>21</title>
<g id="a_node4"><a xlink:href="21.svg">
<polygon fill="none" stroke="black" points="252,-396 36,-396 36,-180 252,-180 252,-396"/>
<image xlink:href="010101.png" width="210.716px" height="216px" preserveAspectRatio="xMinYMin meet" x="38.6422" y="-396"/>
</a>
</g>
</g>
<!-- 21&#45;&gt;20 -->
<g id="edge3" class="edge">
<title>21&#45;&gt;20</title>
<path fill="none" stroke="crimson" stroke-width="6" d="M252.32,-306.8C357.45,-326.26 521.71,-359.49 661,-400 741.05,-423.28 828.92,-455.47 897.69,-482.24"/>
<polygon fill="crimson" stroke="crimson" stroke-width="6" points="895.28,-487.28 906.51,-486.03 899.11,-477.5 895.28,-487.28"/>
<text text-anchor="middle" x="582.5" y="-414" font-family="Times New Roman,serif" font-size="45.00" fill="crimson"> &#160;&#160;0.073</text>
</g>
<!-- Original -->
<g id="node5" class="node">
<title>Original</title>
<g id="a_node5"><a xlink:href="..\pathway_visualization.svg" xlink:title="All Pathways">
<polygon fill="grey" stroke="black" points="288,-72 0,-72 0,0 288,0 288,-72"/>
<text text-anchor="middle" x="144" y="-25" font-family="Times New Roman,serif" font-size="45.00" fill="white">All Pathways</text>
</a>
</g>
</g>
<!-- Original&#45;&gt;20 -->
<g id="edge9" class="edge">
<title>Original&#45;&gt;20</title>
</g>
</g>
</svg>
