<?xml version="1.0" encoding="UTF-8" standalone="no"?>
<!DOCTYPE svg PUBLIC "-//W3C//DTD SVG 1.1//EN"
 "http://www.w3.org/Graphics/SVG/1.1/DTD/svg11.dtd">
<!-- Generated by graphviz version 8.0.3 (20230416.2022)
 -->
<!-- Title: G Pages: 1 -->
<svg width="640pt" height="182pt"
 viewBox="0.00 0.00 720.00 204.29" xmlns="http://www.w3.org/2000/svg" xmlns:xlink="http://www.w3.org/1999/xlink">
<g id="graph0" class="graph" transform="scale(0.31746 0.31746) rotate(0) translate(4 568)">
<title>G</title>
<polygon fill="white" stroke="none" points="-4,4 -4,-568 2012,-568 2012,4 -4,4"/>
<text text-anchor="middle" x="1004" y="-531.2" font-family="Arial" font-size="36.00" fill="blue">Reaction Path Analysis</text>
<!-- 24 -->
<g id="node1" class="node">
<title>24</title>
<g id="a_node1"><a xlink:href="24.svg">
<polygon fill="none" stroke="black" points="1130,-435 914,-435 914,-219 1130,-219 1130,-435"/>
<image xlink:href="011000.png" width="216px" height="210.109px" preserveAspectRatio="xMinYMin meet" x="914" y="-432.055"/>
</a>
</g>
</g>
<!-- 25 -->
<g id="node2" class="node">
<title>25</title>
<g id="a_node2"><a xlink:href="25.svg">
<polygon fill="none" stroke="black" points="2008,-435 1792,-435 1792,-219 2008,-219 2008,-435"/>
<image xlink:href="011001.png" width="216px" height="207.652px" preserveAspectRatio="xMinYMin meet" x="1792" y="-430.826"/>
</a>
</g>
</g>
<!-- 24&#45;&gt;25 -->
<g id="edge1" class="edge">
<title>24&#45;&gt;25</title>
<path fill="none" stroke="chocolate" stroke-width="14" d="M1130.4,-382.58C1234.26,-429.66 1396.55,-485.72 1540,-460 1620.65,-445.54 1706.87,-414.17 1774.59,-385.52"/>
<polygon fill="chocolate" stroke="chocolate" stroke-width="14" points="1779.49,-396.32 1783.84,-381.12 1769.82,-373.81 1779.49,-396.32"/>
<text text-anchor="middle" x="1461" y="-480" font-family="Times New Roman,serif" font-size="45.00" fill="chocolate"> &#160;&#160;23.269</text>
</g>
<!-- 24&#45;&gt;25 -->
<g id="edge4" class="edge">
<title>24&#45;&gt;25</title>
<path fill="none" stroke="crimson" stroke-width="14" d="M1130.41,-327C1292.8,-327 1600.11,-327 1772.89,-327"/>
<polygon fill="crimson" stroke="crimson" stroke-width="14" points="1772.74,-339.25 1782.74,-327 1772.74,-314.75 1772.74,-339.25"/>
<text text-anchor="middle" x="1461" y="-341" font-family="Times New Roman,serif" font-size="45.00" fill="crimson"> &#160;&#160;23.269</text>
</g>
<!-- 24&#45;&gt;25 -->
<g id="edge6" class="edge">
<title>24&#45;&gt;25</title>
<path fill="none" stroke="darkgoldenrod" stroke-width="14" d="M1130.44,-297.74C1201.27,-279.99 1296.43,-259.07 1382,-250 1516.29,-235.76 1669.16,-264.1 1773.62,-290.32"/>
<polygon fill="darkgoldenrod" stroke="darkgoldenrod" stroke-width="14" points="1771.17,-302.39 1783.9,-293.01 1777.26,-278.66 1771.17,-302.39"/>
<text text-anchor="middle" x="1461" y="-264" font-family="Times New Roman,serif" font-size="45.00" fill="darkgoldenrod"> &#160;&#160;23.269</text>
</g>
<!-- 24&#45;&gt;25 -->
<g id="edge8" class="edge">
<title>24&#45;&gt;25</title>
<path fill="none" stroke="darkgreen" stroke-width="14" d="M1130.46,-260.78C1234.02,-204.97 1395.8,-138.67 1540,-169 1621.86,-186.22 1707.82,-223.29 1775.09,-257.2"/>
<polygon fill="darkgreen" stroke="darkgreen" stroke-width="14" points="1769.3,-268.09 1783.78,-261.74 1780.46,-246.28 1769.3,-268.09"/>
<text text-anchor="middle" x="1461" y="-183" font-family="Times New Roman,serif" font-size="45.00" fill="darkgreen"> &#160;&#160;23.269</text>
</g>
<!-- 16 -->
<g id="node3" class="node">
<title>16</title>
<g id="a_node3"><a xlink:href="16.svg">
<polygon fill="none" stroke="black" points="252,-435 36,-435 36,-219 252,-219 252,-435"/>
<image xlink:href="010000.png" width="203.186px" height="216px" preserveAspectRatio="xMinYMin meet" x="42.4068" y="-435"/>
</a>
</g>
</g>
<!-- 16&#45;&gt;24 -->
<g id="edge2" class="edge">
<title>16&#45;&gt;24</title>
<path fill="none" stroke="chocolate" stroke-width="14" d="M252.4,-382.58C356.26,-429.66 518.55,-485.72 662,-460 742.65,-445.54 828.87,-414.17 896.59,-385.52"/>
<polygon fill="chocolate" stroke="chocolate" stroke-width="14" points="901.49,-396.32 905.84,-381.12 891.82,-373.81 901.49,-396.32"/>
<text text-anchor="middle" x="583" y="-480" font-family="Times New Roman,serif" font-size="45.00" fill="chocolate"> &#160;&#160;23.588</text>
</g>
<!-- 16&#45;&gt;24 -->
<g id="edge3" class="edge">
<title>16&#45;&gt;24</title>
<path fill="none" stroke="crimson" stroke-width="14" d="M252.41,-327C414.8,-327 722.11,-327 894.89,-327"/>
<polygon fill="crimson" stroke="crimson" stroke-width="14" points="894.74,-339.25 904.74,-327 894.74,-314.75 894.74,-339.25"/>
<text text-anchor="middle" x="583" y="-341" font-family="Times New Roman,serif" font-size="45.00" fill="crimson"> &#160;&#160;23.588</text>
</g>
<!-- 16&#45;&gt;24 -->
<g id="edge5" class="edge">
<title>16&#45;&gt;24</title>
<path fill="none" stroke="darkgoldenrod" stroke-width="14" d="M252.44,-297.74C323.27,-279.99 418.43,-259.07 504,-250 638.29,-235.76 791.16,-264.1 895.62,-290.32"/>
<polygon fill="darkgoldenrod" stroke="darkgoldenrod" stroke-width="14" points="893.17,-302.39 905.9,-293.01 899.26,-278.66 893.17,-302.39"/>
<text text-anchor="middle" x="583" y="-264" font-family="Times New Roman,serif" font-size="45.00" fill="darkgoldenrod"> &#160;&#160;23.588</text>
</g>
<!-- 16&#45;&gt;24 -->
<g id="edge7" class="edge">
<title>16&#45;&gt;24</title>
<path fill="none" stroke="darkgreen" stroke-width="14" d="M252.46,-260.78C356.02,-204.97 517.8,-138.67 662,-169 743.86,-186.22 829.82,-223.29 897.09,-257.2"/>
<polygon fill="darkgreen" stroke="darkgreen" stroke-width="14" points="891.3,-268.09 905.78,-261.74 902.46,-246.28 891.3,-268.09"/>
<text text-anchor="middle" x="583" y="-183" font-family="Times New Roman,serif" font-size="45.00" fill="darkgreen"> &#160;&#160;23.588</text>
</g>
<!-- Original -->
<g id="node4" class="node">
<title>Original</title>
<g id="a_node4"><a xlink:href="..\pathway_visualization.svg" xlink:title="All Pathways">
<polygon fill="grey" stroke="black" points="288,-72 0,-72 0,0 288,0 288,-72"/>
<text text-anchor="middle" x="144" y="-25" font-family="Times New Roman,serif" font-size="45.00" fill="white">All Pathways</text>
</a>
</g>
</g>
<!-- Original&#45;&gt;24 -->
<g id="edge9" class="edge">
<title>Original&#45;&gt;24</title>
</g>
</g>
</svg>
