<?xml version="1.0" encoding="UTF-8" standalone="no"?>
<!DOCTYPE svg PUBLIC "-//W3C//DTD SVG 1.1//EN"
 "http://www.w3.org/Graphics/SVG/1.1/DTD/svg11.dtd">
<!-- Generated by graphviz version 8.0.3 (20230416.2022)
 -->
<!-- Title: G Pages: 1 -->
<svg width="640pt" height="303pt"
 viewBox="0.00 0.00 720.00 340.65" xmlns="http://www.w3.org/2000/svg" xmlns:xlink="http://www.w3.org/1999/xlink">
<g id="graph0" class="graph" transform="scale(0.324544 0.324544) rotate(0) translate(4 929)">
<title>G</title>
<polygon fill="white" stroke="none" points="-4,4 -4,-929 1968,-929 1968,4 -4,4"/>
<text text-anchor="middle" x="982" y="-892.2" font-family="Arial" font-size="36.00" fill="blue">Reaction Path Analysis</text>
<!-- 35 -->
<g id="node1" class="node">
<title>35</title>
<g id="a_node1"><a xlink:href="35.svg">
<polygon fill="none" stroke="black" points="1108,-703 892,-703 892,-487 1108,-487 1108,-703"/>
<image xlink:href="100011.png" width="190.523px" height="216px" preserveAspectRatio="xMinYMin meet" x="904.738" y="-703"/>
</a>
</g>
</g>
<!-- 34 -->
<g id="node3" class="node">
<title>34</title>
<g id="a_node3"><a xlink:href="34.svg">
<polygon fill="none" stroke="black" points="1964,-866 1748,-866 1748,-650 1964,-650 1964,-866"/>
<image xlink:href="100010.png" width="209.354px" height="216px" preserveAspectRatio="xMinYMin meet" x="1751.32" y="-866"/>
</a>
</g>
</g>
<!-- 35&#45;&gt;34 -->
<g id="edge2" class="edge">
<title>35&#45;&gt;34</title>
<path fill="none" stroke="blueviolet" stroke-width="3" stroke-dasharray="5,2" d="M1108.13,-682.36C1173.56,-729.95 1261.36,-784.1 1349.5,-809 1477.78,-845.24 1630.77,-820.92 1734.59,-794.91"/>
<polygon fill="blueviolet" stroke="blueviolet" stroke-width="3" points="1735.13,-798.36 1743.95,-792.49 1733.39,-791.58 1735.13,-798.36"/>
<text text-anchor="middle" x="1428" y="-841" font-family="Times New Roman,serif" font-size="45.00" fill="blueviolet"> &#160;&#160;0.016*</text>
</g>
<!-- 35&#45;&gt;34 -->
<g id="edge8" class="edge">
<title>35&#45;&gt;34</title>
<path fill="none" stroke="darkgreen" stroke-width="3" stroke-dasharray="5,2" d="M1108.29,-615.48C1267.96,-645.95 1567.18,-703.06 1734.28,-734.96"/>
<polygon fill="darkgreen" stroke="darkgreen" stroke-width="3" points="1733.33,-739.1 1743.81,-737.54 1734.64,-732.23 1733.33,-739.1"/>
<text text-anchor="middle" x="1428" y="-705" font-family="Times New Roman,serif" font-size="45.00" fill="darkgreen"> &#160;&#160;0.016*</text>
</g>
<!-- 35&#45;&gt;34 -->
<g id="edge10" class="edge">
<title>35&#45;&gt;34</title>
<path fill="none" stroke="darkred" stroke-width="3" d="M1108.16,-577.28C1211.61,-563.75 1371.93,-552.27 1506.5,-584 1587.36,-603.06 1670.87,-643.9 1735.87,-681.23"/>
<polygon fill="darkred" stroke="darkred" stroke-width="3" points="1734.38,-684.15 1744.78,-686.15 1737.9,-678.1 1734.38,-684.15"/>
<text text-anchor="middle" x="1428" y="-598" font-family="Times New Roman,serif" font-size="45.00" fill="darkred"> &#160;&#160;0.016</text>
</g>
<!-- 51 -->
<g id="node4" class="node">
<title>51</title>
<g id="a_node4"><a xlink:href="51.svg">
<polygon fill="none" stroke="black" points="1964,-540 1748,-540 1748,-324 1964,-324 1964,-540"/>
<image xlink:href="110011.png" width="182.093px" height="216px" preserveAspectRatio="xMinYMin meet" x="1764.95" y="-540"/>
</a>
</g>
</g>
<!-- 35&#45;&gt;51 -->
<g id="edge3" class="edge">
<title>35&#45;&gt;51</title>
<path fill="none" stroke="brown" stroke-dasharray="5,2" d="M1108.37,-520.3C1174.57,-478.88 1263.09,-431.51 1349.5,-410 1479.17,-377.72 1633.22,-391.57 1736.89,-408.12"/>
<polygon fill="brown" stroke="brown" points="1736.27,-411.73 1746.71,-409.89 1737.4,-404.82 1736.27,-411.73"/>
<text text-anchor="middle" x="1428" y="-424" font-family="Times New Roman,serif" font-size="45.00" fill="brown"> &#160;&#160;0.003*</text>
</g>
<!-- 39 -->
<g id="node5" class="node">
<title>39</title>
<g id="a_node5"><a xlink:href="39.svg">
<polygon fill="none" stroke="black" points="1964,-216 1748,-216 1748,0 1964,0 1964,-216"/>
<image xlink:href="100111.png" width="216px" height="214.5px" preserveAspectRatio="xMinYMin meet" x="1748" y="-215.25"/>
</a>
</g>
</g>
<!-- 35&#45;&gt;39 -->
<g id="edge6" class="edge">
<title>35&#45;&gt;39</title>
<path fill="none" stroke="cadetblue" d="M1108.21,-494.32C1174.18,-436.03 1262.51,-364.29 1349.5,-313 1474.83,-239.1 1631.79,-180.06 1737.28,-144.67"/>
<polygon fill="cadetblue" stroke="cadetblue" points="1738.26,-147.7 1746.64,-141.21 1736.05,-141.06 1738.26,-147.7"/>
<text text-anchor="middle" x="1428" y="-327" font-family="Times New Roman,serif" font-size="45.00" fill="cadetblue"> &#160;&#160;0.002</text>
</g>
<!-- 43 -->
<g id="node2" class="node">
<title>43</title>
<g id="a_node2"><a xlink:href="43.svg">
<polygon fill="none" stroke="black" points="252,-703 36,-703 36,-487 252,-487 252,-703"/>
<image xlink:href="101011.png" width="203.126px" height="216px" preserveAspectRatio="xMinYMin meet" x="42.4371" y="-703"/>
</a>
</g>
</g>
<!-- 43&#45;&gt;35 -->
<g id="edge1" class="edge">
<title>43&#45;&gt;35</title>
<path fill="none" stroke="blueviolet" stroke-width="3" d="M252.26,-679.91C320.15,-728.1 412.18,-783.71 504,-809 637.63,-845.81 782.25,-768.48 880.45,-696.71"/>
<polygon fill="blueviolet" stroke="blueviolet" stroke-width="3" points="882.65,-699.21 888.6,-690.44 878.48,-693.59 882.65,-699.21"/>
<text text-anchor="middle" x="572" y="-832" font-family="Times New Roman,serif" font-size="45.00" fill="blueviolet"> &#160;&#160;0.021</text>
</g>
<!-- 43&#45;&gt;35 -->
<g id="edge4" class="edge">
<title>43&#45;&gt;35</title>
<path fill="none" stroke="brown" stroke-width="3" d="M252.19,-614.26C323.32,-626.05 418.91,-639.99 504,-646 631.91,-655.04 777.9,-636.45 878,-619.24"/>
<polygon fill="brown" stroke="brown" stroke-width="3" points="878.26,-622.04 887.51,-616.87 877.05,-615.15 878.26,-622.04"/>
<text text-anchor="middle" x="572" y="-662" font-family="Times New Roman,serif" font-size="45.00" fill="brown"> &#160;&#160;0.021</text>
</g>
<!-- 43&#45;&gt;35 -->
<g id="edge5" class="edge">
<title>43&#45;&gt;35</title>
<path fill="none" stroke="cadetblue" stroke-width="3" d="M252.14,-583.89C352.37,-574.8 506.27,-564.16 640,-569 719.33,-571.87 808.33,-578.29 877.86,-584.04"/>
<polygon fill="cadetblue" stroke="cadetblue" stroke-width="3" points="877.25,-587.83 887.5,-585.18 877.83,-580.86 877.25,-587.83"/>
<text text-anchor="middle" x="572" y="-583" font-family="Times New Roman,serif" font-size="45.00" fill="cadetblue"> &#160;&#160;0.021</text>
</g>
<!-- 43&#45;&gt;35 -->
<g id="edge7" class="edge">
<title>43&#45;&gt;35</title>
<path fill="none" stroke="darkgreen" stroke-width="3" d="M252.41,-549.85C352.18,-513.26 505.21,-470.69 640,-490 721.22,-501.63 809.73,-527.36 878.54,-550.44"/>
<polygon fill="darkgreen" stroke="darkgreen" stroke-width="3" points="876.99,-553.97 887.59,-553.86 879.24,-547.34 876.99,-553.97"/>
<text text-anchor="middle" x="572" y="-504" font-family="Times New Roman,serif" font-size="45.00" fill="darkgreen"> &#160;&#160;0.021</text>
</g>
<!-- 43&#45;&gt;35 -->
<g id="edge9" class="edge">
<title>43&#45;&gt;35</title>
<path fill="none" stroke="darkred" stroke-width="3" d="M252.28,-521.65C320.92,-479.27 413.73,-430.1 504,-408 636.4,-375.59 781.6,-443.56 880.3,-506.45"/>
<polygon fill="darkred" stroke="darkred" stroke-width="3" points="878.5,-509.4 888.8,-511.89 882.3,-503.52 878.5,-509.4"/>
<text text-anchor="middle" x="572" y="-422" font-family="Times New Roman,serif" font-size="45.00" fill="darkred"> &#160;&#160;0.021</text>
</g>
<!-- Original -->
<g id="node6" class="node">
<title>Original</title>
<g id="a_node6"><a xlink:href="..\pathway_visualization.svg" xlink:title="All Pathways">
<polygon fill="grey" stroke="black" points="288,-258 0,-258 0,-186 288,-186 288,-258"/>
<text text-anchor="middle" x="144" y="-211" font-family="Times New Roman,serif" font-size="45.00" fill="white">All Pathways</text>
</a>
</g>
</g>
<!-- Original&#45;&gt;35 -->
<g id="edge11" class="edge">
<title>Original&#45;&gt;35</title>
</g>
</g>
</svg>
