<?xml version="1.0" encoding="UTF-8" standalone="no"?>
<!DOCTYPE svg PUBLIC "-//W3C//DTD SVG 1.1//EN"
 "http://www.w3.org/Graphics/SVG/1.1/DTD/svg11.dtd">
<!-- Generated by graphviz version 8.0.3 (20230416.2022)
 -->
<!-- Title: G Pages: 1 -->
<svg width="640pt" height="344pt"
 viewBox="0.00 0.00 720.00 387.38" xmlns="http://www.w3.org/2000/svg" xmlns:xlink="http://www.w3.org/1999/xlink">
<g id="graph0" class="graph" transform="scale(0.324544 0.324544) rotate(0) translate(4 1057)">
<title>G</title>
<polygon fill="white" stroke="none" points="-4,4 -4,-1057 1968,-1057 1968,4 -4,4"/>
<text text-anchor="middle" x="982" y="-1020.2" font-family="Arial" font-size="36.00" fill="blue">Reaction Path Analysis</text>
<!-- 43 -->
<g id="node1" class="node">
<title>43</title>
<g id="a_node1"><a xlink:href="43.svg">
<polygon fill="none" stroke="black" points="1108,-598 892,-598 892,-382 1108,-382 1108,-598"/>
<image xlink:href="101011.png" width="203.126px" height="216px" preserveAspectRatio="xMinYMin meet" x="898.437" y="-598"/>
</a>
</g>
</g>
<!-- 42 -->
<g id="node3" class="node">
<title>42</title>
<g id="a_node3"><a xlink:href="42.svg">
<polygon fill="none" stroke="black" points="1964,-1005 1748,-1005 1748,-789 1964,-789 1964,-1005"/>
<image xlink:href="101010.png" width="200.168px" height="216px" preserveAspectRatio="xMinYMin meet" x="1755.92" y="-1005"/>
</a>
</g>
</g>
<!-- 43&#45;&gt;42 -->
<g id="edge2" class="edge">
<title>43&#45;&gt;42</title>
<path fill="none" stroke="blue" stroke-width="3" stroke-dasharray="5,2" d="M1066.79,-598.3C1127.8,-687.81 1227.44,-809.24 1349.5,-867 1470.93,-924.46 1627.49,-924.01 1733.99,-914.32"/>
<polygon fill="blue" stroke="blue" stroke-width="3" points="1734.08,-917.44 1743.7,-912.99 1733.41,-910.47 1734.08,-917.44"/>
<text text-anchor="middle" x="1428" y="-923" font-family="Times New Roman,serif" font-size="45.00" fill="blue"> &#160;&#160;0.016*</text>
</g>
<!-- 43&#45;&gt;42 -->
<g id="edge10" class="edge">
<title>43&#45;&gt;42</title>
<path fill="none" stroke="darkgoldenrod" stroke-width="3" stroke-dasharray="5,2" d="M1108.29,-541.13C1268.28,-617.38 1568.38,-760.4 1735.29,-839.95"/>
<polygon fill="darkgoldenrod" stroke="darkgoldenrod" stroke-width="3" points="1733.28,-843.77 1743.81,-844.91 1736.29,-837.45 1733.28,-843.77"/>
<text text-anchor="middle" x="1428" y="-743" font-family="Times New Roman,serif" font-size="45.00" fill="darkgoldenrod"> &#160;&#160;0.016*</text>
</g>
<!-- 35 -->
<g id="node4" class="node">
<title>35</title>
<g id="a_node4"><a xlink:href="35.svg">
<polygon fill="none" stroke="black" points="1964,-435 1748,-435 1748,-219 1964,-219 1964,-435"/>
<image xlink:href="100011.png" width="190.523px" height="216px" preserveAspectRatio="xMinYMin meet" x="1760.74" y="-435"/>
</a>
</g>
</g>
<!-- 43&#45;&gt;35 -->
<g id="edge4" class="edge">
<title>43&#45;&gt;35</title>
<path fill="none" stroke="blueviolet" stroke-width="3" d="M1108.05,-523.49C1211.77,-550.67 1372.6,-578.83 1506.5,-541 1589.65,-517.51 1672.5,-467.99 1736.54,-422.5"/>
<polygon fill="blueviolet" stroke="blueviolet" stroke-width="3" points="1738.79,-425.04 1744.87,-416.36 1734.71,-419.36 1738.79,-425.04"/>
<text text-anchor="middle" x="1428" y="-573" font-family="Times New Roman,serif" font-size="45.00" fill="blueviolet"> &#160;&#160;0.021</text>
</g>
<!-- 43&#45;&gt;35 -->
<g id="edge6" class="edge">
<title>43&#45;&gt;35</title>
<path fill="none" stroke="brown" stroke-width="3" d="M1108.29,-469.52C1267.96,-439.05 1567.18,-381.94 1734.28,-350.04"/>
<polygon fill="brown" stroke="brown" stroke-width="3" points="1734.64,-352.77 1743.81,-347.46 1733.33,-345.9 1734.64,-352.77"/>
<text text-anchor="middle" x="1428" y="-437" font-family="Times New Roman,serif" font-size="45.00" fill="brown"> &#160;&#160;0.021</text>
</g>
<!-- 43&#45;&gt;35 -->
<g id="edge8" class="edge">
<title>43&#45;&gt;35</title>
<path fill="none" stroke="cadetblue" stroke-width="3" d="M1108.22,-420.15C1174.72,-381.07 1263.6,-336.25 1349.5,-316 1478.28,-285.64 1630.66,-294.84 1734.2,-307.55"/>
<polygon fill="cadetblue" stroke="cadetblue" stroke-width="3" points="1733.48,-311.49 1743.84,-309.28 1734.36,-304.55 1733.48,-311.49"/>
<text text-anchor="middle" x="1428" y="-330" font-family="Times New Roman,serif" font-size="45.00" fill="cadetblue"> &#160;&#160;0.021</text>
</g>
<!-- 43&#45;&gt;35 -->
<g id="edge12" class="edge">
<title>43&#45;&gt;35</title>
<path fill="none" stroke="darkgreen" stroke-width="3" d="M1102.3,-381.52C1166.52,-320.98 1255.07,-251.39 1349.5,-219 1478.04,-174.9 1631.39,-220.77 1735.22,-265.59"/>
<polygon fill="darkgreen" stroke="darkgreen" stroke-width="3" points="1733.39,-269.37 1743.95,-270.19 1736.21,-262.96 1733.39,-269.37"/>
<text text-anchor="middle" x="1428" y="-233" font-family="Times New Roman,serif" font-size="45.00" fill="darkgreen"> &#160;&#160;0.021</text>
</g>
<!-- 43&#45;&gt;35 -->
<g id="edge14" class="edge">
<title>43&#45;&gt;35</title>
<path fill="none" stroke="darkred" stroke-width="3" d="M1067.64,-381.7C1128.69,-293.76 1227.93,-176.11 1349.5,-124 1481.17,-67.56 1634.01,-148.99 1736.86,-224.89"/>
<polygon fill="darkred" stroke="darkred" stroke-width="3" points="1734.8,-227.97 1744.9,-231.16 1739,-222.36 1734.8,-227.97"/>
<text text-anchor="middle" x="1428" y="-138" font-family="Times New Roman,serif" font-size="45.00" fill="darkred"> &#160;&#160;0.021</text>
</g>
<!-- 51 -->
<g id="node2" class="node">
<title>51</title>
<g id="a_node2"><a xlink:href="51.svg">
<polygon fill="none" stroke="black" points="252,-598 36,-598 36,-382 252,-382 252,-598"/>
<image xlink:href="110011.png" width="182.093px" height="216px" preserveAspectRatio="xMinYMin meet" x="52.9535" y="-598"/>
</a>
</g>
</g>
<!-- 51&#45;&gt;43 -->
<g id="edge1" class="edge">
<title>51&#45;&gt;43</title>
<path fill="none" stroke="blue" stroke-width="4" d="M211.47,-598.41C274.17,-689.31 377.32,-812.7 504,-867 673.6,-939.69 837.25,-747.54 927.38,-611.6"/>
<polygon fill="blue" stroke="blue" stroke-width="4" points="930.59,-613.51 933.14,-603.22 924.73,-609.67 930.59,-613.51"/>
<text text-anchor="middle" x="572" y="-896" font-family="Times New Roman,serif" font-size="45.00" fill="blue"> &#160;&#160;0.037</text>
</g>
<!-- 51&#45;&gt;43 -->
<g id="edge3" class="edge">
<title>51&#45;&gt;43</title>
<path fill="none" stroke="blueviolet" stroke-width="4" d="M252.26,-574.91C320.15,-623.1 412.18,-678.71 504,-704 636.95,-740.62 780.78,-664.26 878.95,-592.8"/>
<polygon fill="blueviolet" stroke="blueviolet" stroke-width="4" points="881.64,-595.2 887.6,-586.44 877.48,-589.58 881.64,-595.2"/>
<text text-anchor="middle" x="572" y="-727" font-family="Times New Roman,serif" font-size="45.00" fill="blueviolet"> &#160;&#160;0.037</text>
</g>
<!-- 51&#45;&gt;43 -->
<g id="edge5" class="edge">
<title>51&#45;&gt;43</title>
<path fill="none" stroke="brown" stroke-width="4" d="M252.19,-509.26C323.32,-521.05 418.91,-534.99 504,-541 631,-549.98 775.81,-531.72 875.85,-514.61"/>
<polygon fill="brown" stroke="brown" stroke-width="4" points="877.26,-518.04 886.51,-512.87 876.06,-511.14 877.26,-518.04"/>
<text text-anchor="middle" x="572" y="-557" font-family="Times New Roman,serif" font-size="45.00" fill="brown"> &#160;&#160;0.037</text>
</g>
<!-- 51&#45;&gt;43 -->
<g id="edge7" class="edge">
<title>51&#45;&gt;43</title>
<path fill="none" stroke="cadetblue" stroke-width="4" d="M252.14,-478.89C352.37,-469.8 506.27,-459.16 640,-464 718.5,-466.84 806.47,-473.16 875.68,-478.86"/>
<polygon fill="cadetblue" stroke="cadetblue" stroke-width="4" points="875.25,-482.83 885.5,-480.18 875.83,-475.86 875.25,-482.83"/>
<text text-anchor="middle" x="572" y="-478" font-family="Times New Roman,serif" font-size="45.00" fill="cadetblue"> &#160;&#160;0.037</text>
</g>
<!-- 51&#45;&gt;43 -->
<g id="edge9" class="edge">
<title>51&#45;&gt;43</title>
<path fill="none" stroke="darkgoldenrod" stroke-width="4" d="M252.41,-444.85C352.18,-408.26 505.21,-365.69 640,-385 720.55,-396.54 808.26,-421.94 876.81,-444.86"/>
<polygon fill="darkgoldenrod" stroke="darkgoldenrod" stroke-width="4" points="875.99,-448.97 886.59,-448.86 878.24,-442.34 875.99,-448.97"/>
<text text-anchor="middle" x="572" y="-399" font-family="Times New Roman,serif" font-size="45.00" fill="darkgoldenrod"> &#160;&#160;0.037</text>
</g>
<!-- 51&#45;&gt;43 -->
<g id="edge11" class="edge">
<title>51&#45;&gt;43</title>
<path fill="none" stroke="darkgreen" stroke-width="4" d="M252.28,-416.65C320.92,-374.27 413.73,-325.1 504,-303 635.59,-270.78 779.83,-337.74 878.49,-400.3"/>
<polygon fill="darkgreen" stroke="darkgreen" stroke-width="4" points="876.5,-403.41 886.8,-405.89 880.29,-397.53 876.5,-403.41"/>
<text text-anchor="middle" x="572" y="-317" font-family="Times New Roman,serif" font-size="45.00" fill="darkgreen"> &#160;&#160;0.037</text>
</g>
<!-- 51&#45;&gt;43 -->
<g id="edge13" class="edge">
<title>51&#45;&gt;43</title>
<path fill="none" stroke="darkred" stroke-width="4" d="M248.67,-381.73C315.07,-320.48 406.8,-249.76 504,-217 646.69,-168.91 796.14,-276.52 893,-370.47"/>
<polygon fill="darkred" stroke="darkred" stroke-width="4" points="890.67,-373.03 900.25,-377.56 895.58,-368.05 890.67,-373.03"/>
<text text-anchor="middle" x="572" y="-231" font-family="Times New Roman,serif" font-size="45.00" fill="darkred"> &#160;&#160;0.037</text>
</g>
<!-- Original -->
<g id="node5" class="node">
<title>Original</title>
<g id="a_node5"><a xlink:href="..\pathway_visualization.svg" xlink:title="All Pathways">
<polygon fill="grey" stroke="black" points="288,-72 0,-72 0,0 288,0 288,-72"/>
<text text-anchor="middle" x="144" y="-25" font-family="Times New Roman,serif" font-size="45.00" fill="white">All Pathways</text>
</a>
</g>
</g>
<!-- Original&#45;&gt;43 -->
<g id="edge15" class="edge">
<title>Original&#45;&gt;43</title>
</g>
</g>
</svg>
