<?xml version="1.0" encoding="UTF-8" standalone="no"?>
<!DOCTYPE svg PUBLIC "-//W3C//DTD SVG 1.1//EN"
 "http://www.w3.org/Graphics/SVG/1.1/DTD/svg11.dtd">
<!-- Generated by graphviz version 8.0.3 (20230416.2022)
 -->
<!-- Title: G Pages: 1 -->
<svg width="640pt" height="147pt"
 viewBox="0.00 0.00 720.00 165.03" xmlns="http://www.w3.org/2000/svg" xmlns:xlink="http://www.w3.org/1999/xlink">
<g id="graph0" class="graph" transform="scale(0.324544 0.324544) rotate(0) translate(4 448)">
<title>G</title>
<polygon fill="white" stroke="none" points="-4,4 -4,-448 1968,-448 1968,4 -4,4"/>
<text text-anchor="middle" x="982" y="-411.2" font-family="Arial" font-size="36.00" fill="blue">Reaction Path Analysis</text>
<!-- 48 -->
<g id="node1" class="node">
<title>48</title>
<g id="a_node1"><a xlink:href="48.svg">
<polygon fill="none" stroke="black" points="1108,-396 892,-396 892,-180 1108,-180 1108,-396"/>
<image xlink:href="110000.png" width="159.235px" height="216px" preserveAspectRatio="xMinYMin meet" x="920.382" y="-396"/>
</a>
</g>
</g>
<!-- 32 -->
<g id="node2" class="node">
<title>32</title>
<g id="a_node2"><a xlink:href="32.svg">
<polygon fill="none" stroke="black" points="1964,-396 1748,-396 1748,-180 1964,-180 1964,-396"/>
<image xlink:href="100000.png" width="198.079px" height="216px" preserveAspectRatio="xMinYMin meet" x="1756.96" y="-396"/>
</a>
</g>
</g>
<!-- 48&#45;&gt;32 -->
<g id="edge1" class="edge">
<title>48&#45;&gt;32</title>
<path fill="none" stroke="darkmagenta" stroke-width="7" d="M1108.29,-288C1267.24,-288 1564.48,-288 1732.01,-288"/>
<polygon fill="darkmagenta" stroke="darkmagenta" stroke-width="7" points="1731.81,-294.13 1741.81,-288 1731.81,-281.88 1731.81,-294.13"/>
<text text-anchor="middle" x="1428" y="-302" font-family="Times New Roman,serif" font-size="45.00" fill="darkmagenta"> &#160;&#160;0.118</text>
</g>
<!-- 16 -->
<g id="node3" class="node">
<title>16</title>
<g id="a_node3"><a xlink:href="16.svg">
<polygon fill="none" stroke="black" points="252,-396 36,-396 36,-180 252,-180 252,-396"/>
<image xlink:href="010000.png" width="203.186px" height="216px" preserveAspectRatio="xMinYMin meet" x="42.4068" y="-396"/>
</a>
</g>
</g>
<!-- 16&#45;&gt;48 -->
<g id="edge2" class="edge">
<title>16&#45;&gt;48</title>
<path fill="none" stroke="darkmagenta" stroke-width="7" d="M252.29,-288C411.24,-288 708.48,-288 876.01,-288"/>
<polygon fill="darkmagenta" stroke="darkmagenta" stroke-width="7" points="875.81,-294.13 885.81,-288 875.81,-281.88 875.81,-294.13"/>
<text text-anchor="middle" x="572" y="-302" font-family="Times New Roman,serif" font-size="45.00" fill="darkmagenta"> &#160;&#160;0.148</text>
</g>
<!-- Original -->
<g id="node4" class="node">
<title>Original</title>
<g id="a_node4"><a xlink:href="..\pathway_visualization.svg" xlink:title="All Pathways">
<polygon fill="grey" stroke="black" points="288,-72 0,-72 0,0 288,0 288,-72"/>
<text text-anchor="middle" x="144" y="-25" font-family="Times New Roman,serif" font-size="45.00" fill="white">All Pathways</text>
</a>
</g>
</g>
<!-- Original&#45;&gt;48 -->
<g id="edge3" class="edge">
<title>Original&#45;&gt;48</title>
</g>
</g>
</svg>
