<?xml version="1.0" encoding="UTF-8" standalone="no"?>
<!DOCTYPE svg PUBLIC "-//W3C//DTD SVG 1.1//EN"
 "http://www.w3.org/Graphics/SVG/1.1/DTD/svg11.dtd">
<!-- Generated by graphviz version 8.0.3 (20230416.2022)
 -->
<!-- Title: G Pages: 1 -->
<svg width="640pt" height="267pt"
 viewBox="0.00 0.00 720.00 300.49" xmlns="http://www.w3.org/2000/svg" xmlns:xlink="http://www.w3.org/1999/xlink">
<g id="graph0" class="graph" transform="scale(0.324544 0.324544) rotate(0) translate(4 819)">
<title>G</title>
<polygon fill="white" stroke="none" points="-4,4 -4,-819 1968,-819 1968,4 -4,4"/>
<text text-anchor="middle" x="982" y="-782.2" font-family="Arial" font-size="36.00" fill="blue">Reaction Path Analysis</text>
<!-- 59 -->
<g id="node1" class="node">
<title>59</title>
<g id="a_node1"><a xlink:href="59.svg">
<polygon fill="none" stroke="black" points="1108,-517 892,-517 892,-301 1108,-301 1108,-517"/>
<image xlink:href="111011.png" width="192.214px" height="216px" preserveAspectRatio="xMinYMin meet" x="903.893" y="-517"/>
</a>
</g>
</g>
<!-- 51 -->
<g id="node3" class="node">
<title>51</title>
<g id="a_node3"><a xlink:href="51.svg">
<polygon fill="none" stroke="black" points="1964,-517 1748,-517 1748,-301 1964,-301 1964,-517"/>
<image xlink:href="110011.png" width="182.093px" height="216px" preserveAspectRatio="xMinYMin meet" x="1764.95" y="-517"/>
</a>
</g>
</g>
<!-- 59&#45;&gt;51 -->
<g id="edge2" class="edge">
<title>59&#45;&gt;51</title>
<path fill="none" stroke="crimson" stroke-width="8" d="M1086.52,-517.23C1181.28,-622.99 1341.21,-760.58 1496,-705 1594.46,-669.64 1685.18,-594.31 1750.79,-528.49"/>
<polygon fill="crimson" stroke="crimson" stroke-width="8" points="1755.9,-533.21 1757.92,-521.17 1745.92,-523.39 1755.9,-533.21"/>
<text text-anchor="middle" x="1428" y="-731" font-family="Times New Roman,serif" font-size="45.00" fill="crimson"> &#160;&#160;0.240</text>
</g>
<!-- 59&#45;&gt;51 -->
<g id="edge4" class="edge">
<title>59&#45;&gt;51</title>
<path fill="none" stroke="darkblue" stroke-width="8" d="M1108.16,-460.12C1178.08,-490.58 1272.33,-526.28 1360,-542 1489.19,-565.16 1633.83,-517.48 1733.23,-472.91"/>
<polygon fill="darkblue" stroke="darkblue" stroke-width="8" points="1735.38,-478.88 1741.56,-468.36 1729.56,-466.15 1735.38,-478.88"/>
<text text-anchor="middle" x="1428" y="-562" font-family="Times New Roman,serif" font-size="45.00" fill="darkblue"> &#160;&#160;0.240</text>
</g>
<!-- 59&#45;&gt;51 -->
<g id="edge6" class="edge">
<title>59&#45;&gt;51</title>
<path fill="none" stroke="darkgoldenrod" stroke-width="8" d="M1108.29,-409C1267.24,-409 1564.48,-409 1732.01,-409"/>
<polygon fill="darkgoldenrod" stroke="darkgoldenrod" stroke-width="8" points="1731.81,-416 1741.81,-409 1731.81,-402 1731.81,-416"/>
<text text-anchor="middle" x="1428" y="-423" font-family="Times New Roman,serif" font-size="45.00" fill="darkgoldenrod"> &#160;&#160;0.240</text>
</g>
<!-- 59&#45;&gt;51 -->
<g id="edge8" class="edge">
<title>59&#45;&gt;51</title>
<path fill="none" stroke="darkgreen" stroke-width="8" d="M1108.44,-379.74C1179.27,-361.99 1274.43,-341.07 1360,-332 1487.58,-318.47 1632.5,-346.1 1732.4,-371.95"/>
<polygon fill="darkgreen" stroke="darkgreen" stroke-width="8" points="1730.28,-379.21 1741.73,-374.99 1733.85,-365.67 1730.28,-379.21"/>
<text text-anchor="middle" x="1428" y="-346" font-family="Times New Roman,serif" font-size="45.00" fill="darkgreen"> &#160;&#160;0.240</text>
</g>
<!-- 59&#45;&gt;51 -->
<g id="edge10" class="edge">
<title>59&#45;&gt;51</title>
<path fill="none" stroke="darkmagenta" stroke-width="8" d="M1108.42,-340.65C1207.55,-285.8 1359.61,-222.31 1496,-251 1578.9,-268.44 1666,-306.24 1733.65,-340.49"/>
<polygon fill="darkmagenta" stroke="darkmagenta" stroke-width="8" points="1729.69,-346.4 1741.78,-344.74 1736.08,-333.95 1729.69,-346.4"/>
<text text-anchor="middle" x="1428" y="-265" font-family="Times New Roman,serif" font-size="45.00" fill="darkmagenta"> &#160;&#160;0.240</text>
</g>
<!-- 59&#45;&gt;51 -->
<g id="edge12" class="edge">
<title>59&#45;&gt;51</title>
<path fill="none" stroke="darkred" stroke-width="8" d="M1108.43,-302.2C1206.01,-218.56 1355.73,-122.99 1496,-166 1583.88,-192.95 1669.61,-249.49 1735.25,-301.25"/>
<polygon fill="darkred" stroke="darkred" stroke-width="8" points="1730.51,-306.42 1742.69,-307.19 1739.25,-295.48 1730.51,-306.42"/>
<text text-anchor="middle" x="1428" y="-180" font-family="Times New Roman,serif" font-size="45.00" fill="darkred"> &#160;&#160;0.240</text>
</g>
<!-- 58 -->
<g id="node2" class="node">
<title>58</title>
<g id="a_node2"><a xlink:href="58.svg">
<polygon fill="none" stroke="black" points="252,-517 36,-517 36,-301 252,-301 252,-517"/>
<image xlink:href="111010.png" width="183.091px" height="216px" preserveAspectRatio="xMinYMin meet" x="52.4543" y="-517"/>
</a>
</g>
</g>
<!-- 58&#45;&gt;59 -->
<g id="edge1" class="edge">
<title>58&#45;&gt;59</title>
<path fill="none" stroke="crimson" stroke-width="8" d="M230.52,-517.23C325.28,-622.99 485.21,-760.58 640,-705 738.46,-669.64 829.18,-594.31 894.79,-528.49"/>
<polygon fill="crimson" stroke="crimson" stroke-width="8" points="899.9,-533.21 901.92,-521.17 889.92,-523.39 899.9,-533.21"/>
<text text-anchor="middle" x="572" y="-731" font-family="Times New Roman,serif" font-size="45.00" fill="crimson"> &#160;&#160;0.240</text>
</g>
<!-- 58&#45;&gt;59 -->
<g id="edge3" class="edge">
<title>58&#45;&gt;59</title>
<path fill="none" stroke="darkblue" stroke-width="8" d="M252.44,-466.36C351.9,-512.62 504.46,-566.3 640,-542 721.67,-527.36 809.06,-495.37 877.17,-466.43"/>
<polygon fill="darkblue" stroke="darkblue" stroke-width="8" points="879.42,-472.5 885.84,-462.12 873.89,-459.64 879.42,-472.5"/>
<text text-anchor="middle" x="572" y="-562" font-family="Times New Roman,serif" font-size="45.00" fill="darkblue"> &#160;&#160;0.240</text>
</g>
<!-- 58&#45;&gt;59 -->
<g id="edge5" class="edge">
<title>58&#45;&gt;59</title>
<path fill="none" stroke="darkgoldenrod" stroke-width="8" d="M252.29,-409C411.24,-409 708.48,-409 876.01,-409"/>
<polygon fill="darkgoldenrod" stroke="darkgoldenrod" stroke-width="8" points="875.81,-416 885.81,-409 875.81,-402 875.81,-416"/>
<text text-anchor="middle" x="572" y="-423" font-family="Times New Roman,serif" font-size="45.00" fill="darkgoldenrod"> &#160;&#160;0.240</text>
</g>
<!-- 58&#45;&gt;59 -->
<g id="edge7" class="edge">
<title>58&#45;&gt;59</title>
<path fill="none" stroke="darkgreen" stroke-width="8" d="M252.44,-379.74C323.27,-361.99 418.43,-341.07 504,-332 631.58,-318.47 776.5,-346.1 876.4,-371.95"/>
<polygon fill="darkgreen" stroke="darkgreen" stroke-width="8" points="874.28,-379.21 885.73,-374.99 877.85,-365.67 874.28,-379.21"/>
<text text-anchor="middle" x="572" y="-346" font-family="Times New Roman,serif" font-size="45.00" fill="darkgreen"> &#160;&#160;0.240</text>
</g>
<!-- 58&#45;&gt;59 -->
<g id="edge9" class="edge">
<title>58&#45;&gt;59</title>
<path fill="none" stroke="darkmagenta" stroke-width="8" d="M252.42,-340.65C351.55,-285.8 503.61,-222.31 640,-251 722.9,-268.44 810,-306.24 877.65,-340.49"/>
<polygon fill="darkmagenta" stroke="darkmagenta" stroke-width="8" points="873.69,-346.4 885.78,-344.74 880.08,-333.95 873.69,-346.4"/>
<text text-anchor="middle" x="572" y="-265" font-family="Times New Roman,serif" font-size="45.00" fill="darkmagenta"> &#160;&#160;0.240</text>
</g>
<!-- 58&#45;&gt;59 -->
<g id="edge11" class="edge">
<title>58&#45;&gt;59</title>
<path fill="none" stroke="darkred" stroke-width="8" d="M252.43,-302.2C350.01,-218.56 499.73,-122.99 640,-166 727.88,-192.95 813.61,-249.49 879.25,-301.25"/>
<polygon fill="darkred" stroke="darkred" stroke-width="8" points="874.51,-306.42 886.69,-307.19 883.25,-295.48 874.51,-306.42"/>
<text text-anchor="middle" x="572" y="-180" font-family="Times New Roman,serif" font-size="45.00" fill="darkred"> &#160;&#160;0.240</text>
</g>
<!-- Original -->
<g id="node4" class="node">
<title>Original</title>
<g id="a_node4"><a xlink:href="..\pathway_visualization.svg" xlink:title="All Pathways">
<polygon fill="grey" stroke="black" points="288,-72 0,-72 0,0 288,0 288,-72"/>
<text text-anchor="middle" x="144" y="-25" font-family="Times New Roman,serif" font-size="45.00" fill="white">All Pathways</text>
</a>
</g>
</g>
<!-- Original&#45;&gt;59 -->
<g id="edge13" class="edge">
<title>Original&#45;&gt;59</title>
</g>
</g>
</svg>
