<?xml version="1.0" encoding="UTF-8" standalone="no"?>
<!DOCTYPE svg PUBLIC "-//W3C//DTD SVG 1.1//EN"
 "http://www.w3.org/Graphics/SVG/1.1/DTD/svg11.dtd">
<!-- Generated by graphviz version 8.0.3 (20230416.2022)
 -->
<!-- Title: G Pages: 1 -->
<svg width="640pt" height="53pt"
 viewBox="0.00 0.00 720.00 59.17" xmlns="http://www.w3.org/2000/svg" xmlns:xlink="http://www.w3.org/1999/xlink">
<g id="graph0" class="graph" transform="scale(0.467495 0.467495) rotate(0) translate(4 108.5)">
<title>G</title>
<polygon fill="white" stroke="none" points="-4,4 -4,-108.5 1365,-108.5 1365,4 -4,4"/>
<text text-anchor="middle" x="680.5" y="-71.7" font-family="Arial" font-size="36.00" fill="blue">Reaction Path Analysis</text>
<!-- N(S1) -->
<g id="node1" class="node">
<title>N(S1)</title>
<g id="a_node1"><a xlink:href="6.svg" xlink:title="N(S1)">
<polygon fill="azure" stroke="none" points="734,-47 630,-47 630,0 734,0 734,-47"/>
<text text-anchor="middle" x="682" y="-15" font-family="Times New Roman,serif" font-size="35.00">N(S1)</text>
</a>
</g>
</g>
<!-- N2(S1) -->
<g id="node3" class="node">
<title>N2(S1)</title>
<g id="a_node3"><a xlink:href="5.svg" xlink:title="N2(S1)">
<polygon fill="azure" stroke="none" points="1361,-47 1239,-47 1239,0 1361,0 1361,-47"/>
<text text-anchor="middle" x="1300" y="-15" font-family="Times New Roman,serif" font-size="35.00">N2(S1)</text>
</a>
</g>
</g>
<!-- N(S1)&#45;&gt;N2(S1) -->
<g id="edge2" class="edge">
<title>N(S1)&#45;&gt;N2(S1)</title>
<path fill="none" stroke="black" stroke-width="6" d="M733.93,-23.5C840.86,-23.5 1089.46,-23.5 1218.31,-23.5"/>
<polygon fill="black" stroke="black" stroke-width="6" points="1213.05,-34 1233.05,-23.5 1213.05,-13 1213.05,-34"/>
<text text-anchor="middle" x="991" y="-32.5" font-family="Times New Roman,serif" font-size="30.00"> &#160;&#160;6 &#160;&#160;100% &#160;&#160;1.17e&#45;08 mol/s &#160;&#160;&#160;5.92E&#45;06</text>
</g>
<!-- NH(S1) -->
<g id="node2" class="node">
<title>NH(S1)</title>
<g id="a_node2"><a xlink:href="10.svg" xlink:title="NH(S1)">
<polygon fill="azure" stroke="none" points="128,-47 0,-47 0,0 128,0 128,-47"/>
<text text-anchor="middle" x="64" y="-15" font-family="Times New Roman,serif" font-size="35.00">NH(S1)</text>
</a>
</g>
</g>
<!-- NH(S1)&#45;&gt;N(S1) -->
<g id="edge1" class="edge">
<title>NH(S1)&#45;&gt;N(S1)</title>
<path fill="none" stroke="green" stroke-width="6" d="M127.74,-23.5C243.04,-23.5 487.92,-23.5 609.47,-23.5"/>
<polygon fill="green" stroke="green" stroke-width="6" points="604.33,-34 624.33,-23.5 604.33,-13 604.33,-34"/>
<text text-anchor="middle" x="373" y="-32.5" font-family="Times New Roman,serif" font-size="30.00"> &#160;&#160;5 &#160;&#160;100% &#160;&#160;2.34e&#45;08 mol/s &#160;&#160;&#160;5.00E&#45;01</text>
</g>
</g>
</svg>
