<?xml version="1.0" encoding="UTF-8" standalone="no"?>
<!DOCTYPE svg PUBLIC "-//W3C//DTD SVG 1.1//EN"
 "http://www.w3.org/Graphics/SVG/1.1/DTD/svg11.dtd">
<!-- Generated by graphviz version 8.0.3 (20230416.2022)
 -->
<!-- Title: G Pages: 1 -->
<svg width="640pt" height="80pt"
 viewBox="0.00 0.00 720.00 89.68" xmlns="http://www.w3.org/2000/svg" xmlns:xlink="http://www.w3.org/1999/xlink">
<g id="graph0" class="graph" transform="scale(0.451658 0.451658) rotate(0) translate(4 172.5)">
<title>G</title>
<polygon fill="white" stroke="none" points="-4,4 -4,-172.5 1413,-172.5 1413,4 -4,4"/>
<text text-anchor="middle" x="704.5" y="-135.7" font-family="Arial" font-size="36.00" fill="blue">Reaction Path Analysis</text>
<!-- NH2(S1) -->
<g id="node1" class="node">
<title>NH2(S1)</title>
<g id="a_node1"><a xlink:href="9.svg" xlink:title="NH2(S1)">
<polygon fill="azure" stroke="none" points="782,-79 636,-79 636,-32 782,-32 782,-79"/>
<text text-anchor="middle" x="709" y="-47" font-family="Times New Roman,serif" font-size="35.00">NH2(S1)</text>
</a>
</g>
</g>
<!-- H(S1) -->
<g id="node3" class="node">
<title>H(S1)</title>
<g id="a_node3"><a xlink:href="7.svg" xlink:title="H(S1)">
<polygon fill="azure" stroke="none" points="1396.5,-112 1293.5,-112 1293.5,-65 1396.5,-65 1396.5,-112"/>
<text text-anchor="middle" x="1345" y="-80" font-family="Times New Roman,serif" font-size="35.00">H(S1)</text>
</a>
</g>
</g>
<!-- NH2(S1)&#45;&gt;H(S1) -->
<g id="edge2" class="edge">
<title>NH2(S1)&#45;&gt;H(S1)</title>
<path fill="none" stroke="green" stroke-width="6" d="M781.95,-65.63C785,-65.95 788.03,-66.24 791,-66.5 963.47,-81.61 1167.11,-86.35 1272.6,-87.83"/>
<polygon fill="green" stroke="green" stroke-width="6" points="1267.44,-98.34 1287.57,-88.1 1267.71,-77.34 1267.44,-98.34"/>
<text text-anchor="middle" x="1027" y="-96.5" font-family="Times New Roman,serif" font-size="30.00"> &#160;&#160;4 &#160;&#160;100% &#160;&#160;2.34e&#45;08 mol/s &#160;&#160;&#160;5.01E&#45;01</text>
</g>
<!-- NH(S1) -->
<g id="node4" class="node">
<title>NH(S1)</title>
<g id="a_node4"><a xlink:href="10.svg" xlink:title="NH(S1)">
<polygon fill="azure" stroke="none" points="1409,-47 1281,-47 1281,0 1409,0 1409,-47"/>
<text text-anchor="middle" x="1345" y="-15" font-family="Times New Roman,serif" font-size="35.00">NH(S1)</text>
</a>
</g>
</g>
<!-- NH2(S1)&#45;&gt;NH(S1) -->
<g id="edge3" class="edge">
<title>NH2(S1)&#45;&gt;NH(S1)</title>
<path fill="none" stroke="green" stroke-width="6" d="M781.8,-35.01C784.89,-34.44 787.97,-33.93 791,-33.5 956.14,-9.95 1151.82,-13.76 1260.53,-18.64"/>
<polygon fill="green" stroke="green" stroke-width="6" points="1254.92,-29.17 1275.4,-19.64 1255.93,-8.19 1254.92,-29.17"/>
<text text-anchor="middle" x="1027" y="-42.5" font-family="Times New Roman,serif" font-size="30.00"> &#160;&#160;4 &#160;&#160;100% &#160;&#160;2.34e&#45;08 mol/s &#160;&#160;&#160;5.01E&#45;01</text>
</g>
<!-- NH3(S1) -->
<g id="node2" class="node">
<title>NH3(S1)</title>
<g id="a_node2"><a xlink:href="8.svg" xlink:title="NH3(S1)">
<polygon fill="azure" stroke="none" points="146,-79 0,-79 0,-32 146,-32 146,-79"/>
<text text-anchor="middle" x="73" y="-47" font-family="Times New Roman,serif" font-size="35.00">NH3(S1)</text>
</a>
</g>
</g>
<!-- NH3(S1)&#45;&gt;NH2(S1) -->
<g id="edge1" class="edge">
<title>NH3(S1)&#45;&gt;NH2(S1)</title>
<path fill="none" stroke="black" stroke-width="6" d="M145.8,-55.5C261.31,-55.5 488.29,-55.5 615.67,-55.5"/>
<polygon fill="black" stroke="black" stroke-width="6" points="610.36,-66 630.36,-55.5 610.36,-45 610.36,-66"/>
<text text-anchor="middle" x="391" y="-64.5" font-family="Times New Roman,serif" font-size="30.00"> &#160;&#160;3 &#160;&#160;100% &#160;&#160;2.34e&#45;08 mol/s &#160;&#160;&#160;9.41E&#45;01</text>
</g>
</g>
</svg>
