<?xml version="1.0" encoding="UTF-8" standalone="no"?>
<!DOCTYPE svg PUBLIC "-//W3C//DTD SVG 1.1//EN"
 "http://www.w3.org/Graphics/SVG/1.1/DTD/svg11.dtd">
<!-- Generated by graphviz version 8.0.3 (20230416.2022)
 -->
<!-- Title: G Pages: 1 -->
<svg width="640pt" height="335pt"
 viewBox="0.00 0.00 720.00 376.47" xmlns="http://www.w3.org/2000/svg" xmlns:xlink="http://www.w3.org/1999/xlink">
<g id="graph0" class="graph" transform="scale(0.597572 0.597572) rotate(0) translate(4 556)">
<title>G</title>
<polygon fill="white" stroke="none" points="-4,4 -4,-556 1067,-556 1067,4 -4,4"/>
<text text-anchor="middle" x="531.5" y="-519.2" font-family="Arial" font-size="36.00" fill="blue">Reaction Path Analysis</text>
<!-- 1 -->
<g id="node1" class="node">
<title>1</title>
<g id="a_node1"><a xlink:href="1.svg">
<polygon fill="none" stroke="black" points="252,-504 36,-504 36,-288 252,-288 252,-504"/>
</a>
</g>
</g>
<!-- 2 -->
<g id="node2" class="node">
<title>2</title>
<g id="a_node2"><a xlink:href="2.svg">
<polygon fill="none" stroke="black" points="1063,-504 847,-504 847,-288 1063,-288 1063,-504"/>
</a>
</g>
</g>
<!-- 1&#45;&gt;2 -->
<g id="edge1" class="edge">
<title>1&#45;&gt;2</title>
<path fill="none" stroke="black" stroke-width="11" d="M252.43,-396C401.93,-396 672.09,-396 829.97,-396"/>
<polygon fill="black" stroke="black" stroke-width="11" points="829.77,-405.63 839.77,-396 829.77,-386.38 829.77,-405.63"/>
<text text-anchor="middle" x="549.5" y="-410" font-family="Times New Roman,serif" font-size="45.00"> &#160;&#160;0.9</text>
</g>
<!-- Original -->
<g id="node3" class="node">
<title>Original</title>
<g id="a_node3"><a xlink:href="..\pathway_visualization.svg" xlink:title="All Pathways">
<polygon fill="grey" stroke="black" points="288,-72 0,-72 0,0 288,0 288,-72"/>
<text text-anchor="middle" x="144" y="-25" font-family="Times New Roman,serif" font-size="45.00" fill="white">All Pathways</text>
</a>
</g>
</g>
<!-- Original&#45;&gt;1 -->
<g id="edge2" class="edge">
<title>Original&#45;&gt;1</title>
</g>
</g>
</svg>
