<?xml version="1.0" encoding="UTF-8" standalone="no"?>
<!DOCTYPE svg PUBLIC "-//W3C//DTD SVG 1.1//EN"
 "http://www.w3.org/Graphics/SVG/1.1/DTD/svg11.dtd">
<!-- Generated by graphviz version 8.0.3 (20230416.2022)
 -->
<!-- Title: G Pages: 1 -->
<svg width="640pt" height="470pt"
 viewBox="0.00 0.00 720.00 528.46" xmlns="http://www.w3.org/2000/svg" xmlns:xlink="http://www.w3.org/1999/xlink">
<g id="graph0" class="graph" transform="scale(0.4769 0.4769) rotate(0) translate(4 981)">
<title>G</title>
<polygon fill="white" stroke="none" points="-4,4 -4,-981 1338,-981 1338,4 -4,4"/>
<text text-anchor="middle" x="667" y="-944.2" font-family="Arial" font-size="36.00" fill="blue">Reaction Path Analysis</text>
<!-- CH3CH2(S) -->
<g id="node1" class="node">
<title>CH3CH2(S)</title>
<g id="a_node1"><a xlink:href="Species\38.svg" xlink:title="CH3CH2(S)">
<polygon fill="dodgerblue" stroke="none" points="234,-733 42,-733 42,-686 234,-686 234,-733"/>
<text text-anchor="middle" x="138" y="-701" font-family="Times New Roman,serif" font-size="35.00">CH3CH2(S)</text>
</a>
</g>
</g>
<!-- CH3CH3 -->
<g id="node2" class="node">
<title>CH3CH3</title>
<g id="a_node2"><a xlink:href="Species\2.svg" xlink:title="CH3CH3">
<polygon fill="none" stroke="none" points="212.5,-635 63.5,-635 63.5,-588 212.5,-588 212.5,-635"/>
<text text-anchor="middle" x="138" y="-603" font-family="Times New Roman,serif" font-size="35.00">CH3CH3</text>
</a>
</g>
</g>
<!-- CH3CH2(S)&#45;&gt;CH3CH3 -->
<g id="edge1" class="edge">
<title>CH3CH2(S)&#45;&gt;CH3CH3</title>
<path fill="none" stroke="green" d="M138,-686.23C138,-674.2 138,-659.11 138,-645.72"/>
<polygon fill="green" stroke="green" points="141.5,-645.98 138,-635.98 134.5,-645.98 141.5,-645.98"/>
<text text-anchor="middle" x="169.5" y="-653" font-family="Times New Roman,serif" font-size="30.00"> &#160;&#160;0%</text>
</g>
<!-- CH3(S) -->
<g id="node3" class="node">
<title>CH3(S)</title>
<g id="a_node3"><a xlink:href="Species\55.svg" xlink:title="CH3(S)">
<polygon fill="dodgerblue" stroke="none" points="690,-341 564,-341 564,-294 690,-294 690,-341"/>
<text text-anchor="middle" x="627" y="-309" font-family="Times New Roman,serif" font-size="35.00">CH3(S)</text>
</a>
</g>
</g>
<!-- CH4 -->
<g id="node4" class="node">
<title>CH4</title>
<g id="a_node4"><a xlink:href="Species\7.svg" xlink:title="CH4">
<polygon fill="none" stroke="none" points="668.5,-243 585.5,-243 585.5,-196 668.5,-196 668.5,-243"/>
<text text-anchor="middle" x="627" y="-211" font-family="Times New Roman,serif" font-size="35.00">CH4</text>
</a>
</g>
</g>
<!-- CH3(S)&#45;&gt;CH4 -->
<g id="edge2" class="edge">
<title>CH3(S)&#45;&gt;CH4</title>
<path fill="none" stroke="black" stroke-width="6" d="M627,-294.23C627,-282.2 627,-267.11 627,-253.72"/>
<polygon fill="black" stroke="black" stroke-width="6" points="632.25,-258.98 627,-248.98 621.75,-258.98 632.25,-258.98"/>
<text text-anchor="middle" x="673.5" y="-261" font-family="Times New Roman,serif" font-size="30.00"> &#160;&#160;100%</text>
</g>
<!-- CH3CH2OH(S) -->
<g id="node5" class="node">
<title>CH3CH2OH(S)</title>
<g id="a_node5"><a xlink:href="Species\14.svg" xlink:title="CH3CH2OH(S)">
<polygon fill="dodgerblue" stroke="none" points="895,-929 653,-929 653,-882 895,-882 895,-929"/>
<text text-anchor="middle" x="774" y="-897" font-family="Times New Roman,serif" font-size="35.00">CH3CH2OH(S)</text>
</a>
</g>
</g>
<!-- CH3CHOH(S) -->
<g id="node6" class="node">
<title>CH3CHOH(S)</title>
<g id="a_node6"><a xlink:href="Species\15.svg" xlink:title="CH3CHOH(S)">
<polygon fill="dodgerblue" stroke="none" points="886,-831 662,-831 662,-784 886,-784 886,-831"/>
<text text-anchor="middle" x="774" y="-799" font-family="Times New Roman,serif" font-size="35.00">CH3CHOH(S)</text>
</a>
</g>
</g>
<!-- CH3CH2OH(S)&#45;&gt;CH3CHOH(S) -->
<g id="edge3" class="edge">
<title>CH3CH2OH(S)&#45;&gt;CH3CHOH(S)</title>
<path fill="none" stroke="black" stroke-width="5" d="M774,-882.23C774,-870.2 774,-855.11 774,-841.72"/>
<polygon fill="black" stroke="black" stroke-width="5" points="778.38,-846.98 774,-836.98 769.63,-846.98 778.38,-846.98"/>
<text text-anchor="middle" x="813" y="-849" font-family="Times New Roman,serif" font-size="30.00"> &#160;&#160;87%</text>
</g>
<!-- CH2CH2OH(S) -->
<g id="node7" class="node">
<title>CH2CH2OH(S)</title>
<g id="a_node7"><a xlink:href="Species\17.svg" xlink:title="CH2CH2OH(S)">
<polygon fill="purple" stroke="none" points="644,-831 402,-831 402,-784 644,-784 644,-831"/>
<text text-anchor="middle" x="523" y="-799" font-family="Times New Roman,serif" font-size="35.00">CH2CH2OH(S)</text>
</a>
</g>
</g>
<!-- CH3CH2OH(S)&#45;&gt;CH2CH2OH(S) -->
<g id="edge4" class="edge">
<title>CH3CH2OH(S)&#45;&gt;CH2CH2OH(S)</title>
<path fill="none" stroke="black" d="M715.47,-882.11C678.5,-867.97 630.57,-849.64 591.79,-834.81"/>
<polygon fill="black" stroke="black" points="593.21,-831.23 582.62,-830.92 590.71,-837.76 593.21,-831.23"/>
<text text-anchor="middle" x="717.5" y="-849" font-family="Times New Roman,serif" font-size="30.00"> &#160;&#160;0%</text>
</g>
<!-- CH3CH2O(S) -->
<g id="node8" class="node">
<title>CH3CH2O(S)</title>
<g id="a_node8"><a xlink:href="Species\26.svg" xlink:title="CH3CH2O(S)">
<polygon fill="purple" stroke="none" points="1122,-831 904,-831 904,-784 1122,-784 1122,-831"/>
<text text-anchor="middle" x="1013" y="-799" font-family="Times New Roman,serif" font-size="35.00">CH3CH2O(S)</text>
</a>
</g>
</g>
<!-- CH3CH2OH(S)&#45;&gt;CH3CH2O(S) -->
<g id="edge5" class="edge">
<title>CH3CH2OH(S)&#45;&gt;CH3CH2O(S)</title>
<path fill="none" stroke="black" d="M832.74,-882.12C840.57,-879.08 848.49,-875.99 856,-873 886.86,-860.73 920.99,-846.77 949.51,-834.97"/>
<polygon fill="black" stroke="black" points="950.45,-837.96 958.35,-830.9 947.77,-831.49 950.45,-837.96"/>
<text text-anchor="middle" x="973" y="-849" font-family="Times New Roman,serif" font-size="30.00"> &#160;&#160;12%</text>
</g>
<!-- CH3COH(S) -->
<g id="node9" class="node">
<title>CH3COH(S)</title>
<g id="a_node9"><a xlink:href="Species\16.svg" xlink:title="CH3COH(S)">
<polygon fill="springgreen" stroke="none" points="871,-733 671,-733 671,-686 871,-686 871,-733"/>
<text text-anchor="middle" x="771" y="-701" font-family="Times New Roman,serif" font-size="35.00">CH3COH(S)</text>
</a>
</g>
</g>
<!-- CH3CHOH(S)&#45;&gt;CH3COH(S) -->
<g id="edge6" class="edge">
<title>CH3CHOH(S)&#45;&gt;CH3COH(S)</title>
<path fill="none" stroke="black" stroke-width="5" d="M773.3,-784.23C772.93,-772.2 772.46,-757.11 772.04,-743.72"/>
<polygon fill="black" stroke="black" stroke-width="5" points="776.39,-748.84 771.7,-738.98 767.64,-749.11 776.39,-748.84"/>
<text text-anchor="middle" x="812" y="-751" font-family="Times New Roman,serif" font-size="30.00"> &#160;&#160;84%</text>
</g>
<!-- CH3CHO(S) -->
<g id="node10" class="node">
<title>CH3CHO(S)</title>
<g id="a_node10"><a xlink:href="Species\27.svg" xlink:title="CH3CHO(S)">
<polygon fill="dodgerblue" stroke="none" points="1089,-733 889,-733 889,-686 1089,-686 1089,-733"/>
<text text-anchor="middle" x="989" y="-701" font-family="Times New Roman,serif" font-size="35.00">CH3CHO(S)</text>
</a>
</g>
</g>
<!-- CH3CHOH(S)&#45;&gt;CH3CHO(S) -->
<g id="edge7" class="edge">
<title>CH3CHOH(S)&#45;&gt;CH3CHO(S)</title>
<path fill="none" stroke="black" d="M833.06,-784.15C840.48,-781.16 847.94,-778.07 855,-775 881.64,-763.43 910.75,-749.57 935,-737.67"/>
<polygon fill="black" stroke="black" points="936.31,-740.44 943.73,-732.88 933.22,-734.16 936.31,-740.44"/>
<text text-anchor="middle" x="956.5" y="-751" font-family="Times New Roman,serif" font-size="30.00"> &#160;&#160;2%</text>
</g>
<!-- CH2CHOH(S) -->
<g id="node14" class="node">
<title>CH2CHOH(S)</title>
<g id="a_node14"><a xlink:href="Species\18.svg" xlink:title="CH2CHOH(S)">
<polygon fill="dodgerblue" stroke="none" points="648,-733 424,-733 424,-686 648,-686 648,-733"/>
<text text-anchor="middle" x="536" y="-701" font-family="Times New Roman,serif" font-size="35.00">CH2CHOH(S)</text>
</a>
</g>
</g>
<!-- CH2CH2OH(S)&#45;&gt;CH2CHOH(S) -->
<g id="edge11" class="edge">
<title>CH2CH2OH(S)&#45;&gt;CH2CHOH(S)</title>
<path fill="none" stroke="black" d="M526.02,-784.23C527.64,-772.2 529.69,-757.11 531.5,-743.72"/>
<polygon fill="black" stroke="black" points="535.08,-744.36 532.96,-733.98 528.15,-743.42 535.08,-744.36"/>
<text text-anchor="middle" x="563.5" y="-751" font-family="Times New Roman,serif" font-size="30.00"> &#160;&#160;0%</text>
</g>
<!-- CH3CH2O(S)&#45;&gt;CH3CHO(S) -->
<g id="edge14" class="edge">
<title>CH3CH2O(S)&#45;&gt;CH3CHO(S)</title>
<path fill="none" stroke="black" d="M1007.43,-784.23C1004.4,-772.08 1000.58,-756.81 997.21,-743.32"/>
<polygon fill="black" stroke="black" points="1000.44,-742.83 994.62,-733.98 993.65,-744.53 1000.44,-742.83"/>
<text text-anchor="middle" x="1044" y="-751" font-family="Times New Roman,serif" font-size="30.00"> &#160;&#160;12%</text>
</g>
<!-- CH2COH(S) -->
<g id="node11" class="node">
<title>CH2COH(S)</title>
<g id="a_node11"><a xlink:href="Species\19.svg" xlink:title="CH2COH(S)">
<polygon fill="springgreen" stroke="none" points="667,-635 467,-635 467,-588 667,-588 667,-635"/>
<text text-anchor="middle" x="567" y="-603" font-family="Times New Roman,serif" font-size="35.00">CH2COH(S)</text>
</a>
</g>
</g>
<!-- CH3COH(S)&#45;&gt;CH2COH(S) -->
<g id="edge8" class="edge">
<title>CH3COH(S)&#45;&gt;CH2COH(S)</title>
<path fill="none" stroke="green" stroke-width="4" d="M710.21,-686.08C703.01,-683.15 695.8,-680.09 689,-677 675.05,-670.66 644.58,-654.55 617.58,-640.02"/>
<polygon fill="green" stroke="green" stroke-width="4" points="623.67,-638.63 613.21,-636.96 620.35,-644.79 623.67,-638.63"/>
<text text-anchor="middle" x="728" y="-653" font-family="Times New Roman,serif" font-size="30.00"> &#160;&#160;73%</text>
</g>
<!-- CH3C(S) -->
<g id="node12" class="node">
<title>CH3C(S)</title>
<g id="a_node12"><a xlink:href="Species\40.svg" xlink:title="CH3C(S)">
<polygon fill="springgreen" stroke="none" points="845.5,-635 696.5,-635 696.5,-588 845.5,-588 845.5,-635"/>
<text text-anchor="middle" x="771" y="-603" font-family="Times New Roman,serif" font-size="35.00">CH3C(S)</text>
</a>
</g>
</g>
<!-- CH3COH(S)&#45;&gt;CH3C(S) -->
<g id="edge9" class="edge">
<title>CH3COH(S)&#45;&gt;CH3C(S)</title>
<path fill="none" stroke="black" d="M771,-686.23C771,-674.2 771,-659.11 771,-645.72"/>
<polygon fill="black" stroke="black" points="774.5,-645.98 771,-635.98 767.5,-645.98 774.5,-645.98"/>
<text text-anchor="middle" x="802.5" y="-653" font-family="Times New Roman,serif" font-size="30.00"> &#160;&#160;0%</text>
</g>
<!-- OH(S) -->
<g id="node13" class="node">
<title>OH(S)</title>
<g id="a_node13"><a xlink:href="Species\60.svg" xlink:title="OH(S)">
<polygon fill="purple" stroke="none" points="1238,-635 1128,-635 1128,-588 1238,-588 1238,-635"/>
<text text-anchor="middle" x="1183" y="-603" font-family="Times New Roman,serif" font-size="35.00">OH(S)</text>
</a>
</g>
</g>
<!-- CH3COH(S)&#45;&gt;OH(S) -->
<g id="edge10" class="edge">
<title>CH3COH(S)&#45;&gt;OH(S)</title>
<path fill="none" stroke="black" d="M870.98,-687.23C874.02,-686.79 877.03,-686.38 880,-686 921.05,-680.8 1026.67,-689.85 1066,-677 1091.31,-668.73 1092.78,-657.03 1116,-644 1118.49,-642.6 1121.05,-641.21 1123.65,-639.84"/>
<polygon fill="black" stroke="black" points="1124.9,-642.62 1132.2,-634.93 1121.7,-636.39 1124.9,-642.62"/>
<text text-anchor="middle" x="1147.5" y="-653" font-family="Times New Roman,serif" font-size="30.00"> &#160;&#160;0%</text>
</g>
<!-- CH3CO(S) -->
<g id="node17" class="node">
<title>CH3CO(S)</title>
<g id="a_node17"><a xlink:href="Species\28.svg" xlink:title="CH3CO(S)">
<polygon fill="springgreen" stroke="none" points="1061.5,-635 886.5,-635 886.5,-588 1061.5,-588 1061.5,-635"/>
<text text-anchor="middle" x="974" y="-603" font-family="Times New Roman,serif" font-size="35.00">CH3CO(S)</text>
</a>
</g>
</g>
<!-- CH3CHO(S)&#45;&gt;CH3CO(S) -->
<g id="edge15" class="edge">
<title>CH3CHO(S)&#45;&gt;CH3CO(S)</title>
<path fill="none" stroke="green" d="M985.52,-686.23C983.64,-674.2 981.28,-659.11 979.19,-645.72"/>
<polygon fill="green" stroke="green" points="982.51,-645.32 977.51,-635.98 975.6,-646.4 982.51,-645.32"/>
<text text-anchor="middle" x="1023" y="-653" font-family="Times New Roman,serif" font-size="30.00"> &#160;&#160;14%</text>
</g>
<!-- COOH(S) -->
<g id="node28" class="node">
<title>COOH(S)</title>
<g id="a_node28"><a xlink:href="Species\64.svg" xlink:title="COOH(S)">
<polygon fill="dodgerblue" stroke="none" points="1200.5,-145 1041.5,-145 1041.5,-98 1200.5,-98 1200.5,-145"/>
<text text-anchor="middle" x="1121" y="-113" font-family="Times New Roman,serif" font-size="35.00">COOH(S)</text>
</a>
</g>
</g>
<!-- OH(S)&#45;&gt;COOH(S) -->
<g id="edge34" class="edge">
<title>OH(S)&#45;&gt;COOH(S)</title>
<path fill="none" stroke="black" stroke-width="3" d="M1184.1,-588.01C1184.96,-568.55 1186,-539.68 1186,-514.5 1186,-514.5 1186,-514.5 1186,-218.5 1186,-189.17 1188.94,-177.95 1172,-154 1171.62,-153.47 1171.24,-152.95 1170.84,-152.43"/>
<polygon fill="black" stroke="black" stroke-width="3" points="1175.93,-152.54 1166.52,-147.67 1170.84,-157.35 1175.93,-152.54"/>
<text text-anchor="middle" x="1225" y="-359" font-family="Times New Roman,serif" font-size="30.00"> &#160;&#160;45%</text>
</g>
<!-- CH2CHOH(S)&#45;&gt;CH2COH(S) -->
<g id="edge12" class="edge">
<title>CH2CHOH(S)&#45;&gt;CH2COH(S)</title>
<path fill="none" stroke="green" d="M543.19,-686.23C547.11,-674.08 552.05,-658.81 556.4,-645.32"/>
<polygon fill="green" stroke="green" points="560,-646.57 559.74,-635.98 553.34,-644.42 560,-646.57"/>
<text text-anchor="middle" x="588.5" y="-653" font-family="Times New Roman,serif" font-size="30.00"> &#160;&#160;0%</text>
</g>
<!-- CHCHOH(S) -->
<g id="node15" class="node">
<title>CHCHOH(S)</title>
<g id="a_node15"><a xlink:href="Species\21.svg" xlink:title="CHCHOH(S)">
<polygon fill="dodgerblue" stroke="none" points="1334,-929 1128,-929 1128,-882 1334,-882 1334,-929"/>
<text text-anchor="middle" x="1231" y="-897" font-family="Times New Roman,serif" font-size="35.00">CHCHOH(S)</text>
</a>
</g>
</g>
<!-- CCHOH(S) -->
<g id="node16" class="node">
<title>CCHOH(S)</title>
<g id="a_node16"><a xlink:href="Species\24.svg" xlink:title="CCHOH(S)">
<polygon fill="dodgerblue" stroke="none" points="1322,-831 1140,-831 1140,-784 1322,-784 1322,-831"/>
<text text-anchor="middle" x="1231" y="-799" font-family="Times New Roman,serif" font-size="35.00">CCHOH(S)</text>
</a>
</g>
</g>
<!-- CHCHOH(S)&#45;&gt;CCHOH(S) -->
<g id="edge13" class="edge">
<title>CHCHOH(S)&#45;&gt;CCHOH(S)</title>
<path fill="none" stroke="green" d="M1231,-882.23C1231,-870.2 1231,-855.11 1231,-841.72"/>
<polygon fill="green" stroke="green" points="1234.5,-841.98 1231,-831.98 1227.5,-841.98 1234.5,-841.98"/>
<text text-anchor="middle" x="1262.5" y="-849" font-family="Times New Roman,serif" font-size="30.00"> &#160;&#160;0%</text>
</g>
<!-- CH3CO(S)&#45;&gt;CH3(S) -->
<g id="edge17" class="edge">
<title>CH3CO(S)&#45;&gt;CH3(S)</title>
<path fill="none" stroke="black" d="M895.95,-588.08C823.74,-563.31 718.82,-516.32 659,-439 639.5,-413.8 631.85,-377.73 628.86,-351.63"/>
<polygon fill="black" stroke="black" points="632.26,-351.39 627.82,-341.77 625.29,-352.06 632.26,-351.39"/>
<text text-anchor="middle" x="729.5" y="-457" font-family="Times New Roman,serif" font-size="30.00"> &#160;&#160;0%</text>
</g>
<!-- CH2CO(S) -->
<g id="node18" class="node">
<title>CH2CO(S)</title>
<g id="a_node18"><a xlink:href="Species\31.svg" xlink:title="CH2CO(S)">
<polygon fill="springgreen" stroke="none" points="1032.5,-537 857.5,-537 857.5,-490 1032.5,-490 1032.5,-537"/>
<text text-anchor="middle" x="945" y="-505" font-family="Times New Roman,serif" font-size="35.00">CH2CO(S)</text>
</a>
</g>
</g>
<!-- CH3CO(S)&#45;&gt;CH2CO(S) -->
<g id="edge16" class="edge">
<title>CH3CO(S)&#45;&gt;CH2CO(S)</title>
<path fill="none" stroke="green" stroke-width="2" d="M967.27,-588.23C963.6,-576.08 958.99,-560.81 954.91,-547.32"/>
<polygon fill="green" stroke="green" stroke-width="2" points="958.03,-547.54 951.79,-538.98 951.33,-549.56 958.03,-547.54"/>
<text text-anchor="middle" x="1003" y="-555" font-family="Times New Roman,serif" font-size="30.00"> &#160;&#160;26%</text>
</g>
<!-- CO(S) -->
<g id="node19" class="node">
<title>CO(S)</title>
<g id="a_node19"><a xlink:href="Species\54.svg" xlink:title="CO(S)">
<polygon fill="orange" stroke="none" points="1111.5,-243 1002.5,-243 1002.5,-196 1111.5,-196 1111.5,-243"/>
<text text-anchor="middle" x="1057" y="-211" font-family="Times New Roman,serif" font-size="35.00">CO(S)</text>
</a>
</g>
</g>
<!-- CH3CO(S)&#45;&gt;CO(S) -->
<g id="edge18" class="edge">
<title>CH3CO(S)&#45;&gt;CO(S)</title>
<path fill="none" stroke="black" d="M1034.85,-588.06C1064.99,-572.64 1095,-548.69 1095,-514.5 1095,-514.5 1095,-514.5 1095,-316.5 1095,-289.64 1090.2,-280.87 1076.88,-252.66"/>
<polygon fill="black" stroke="black" points="1079.66,-251.34 1072.25,-243.77 1073.32,-254.31 1079.66,-251.34"/>
<text text-anchor="middle" x="1126.5" y="-408" font-family="Times New Roman,serif" font-size="30.00"> &#160;&#160;0%</text>
</g>
<!-- CH2CO(S)&#45;&gt;CO(S) -->
<g id="edge21" class="edge">
<title>CH2CO(S)&#45;&gt;CO(S)</title>
<path fill="none" stroke="black" d="M995.03,-490.04C998.04,-487.33 1000.76,-484.32 1003,-481 1035.78,-432.42 981.63,-395.95 1018,-350 1025.33,-340.74 1035.66,-350.25 1043,-341 1062.47,-316.45 1064.04,-279.75 1061.94,-253.3"/>
<polygon fill="black" stroke="black" points="1065.35,-253.26 1060.85,-243.66 1058.38,-253.97 1065.35,-253.26"/>
<text text-anchor="middle" x="1049.5" y="-359" font-family="Times New Roman,serif" font-size="30.00"> &#160;&#160;0%</text>
</g>
<!-- CHCO(S) -->
<g id="node20" class="node">
<title>CHCO(S)</title>
<g id="a_node20"><a xlink:href="Species\34.svg" xlink:title="CHCO(S)">
<polygon fill="springgreen" stroke="none" points="979.5,-439 822.5,-439 822.5,-392 979.5,-392 979.5,-439"/>
<text text-anchor="middle" x="901" y="-407" font-family="Times New Roman,serif" font-size="35.00">CHCO(S)</text>
</a>
</g>
</g>
<!-- CH2CO(S)&#45;&gt;CHCO(S) -->
<g id="edge19" class="edge">
<title>CH2CO(S)&#45;&gt;CHCO(S)</title>
<path fill="none" stroke="green" stroke-width="5" d="M929.99,-490.12C928.21,-487.11 926.5,-484.02 925,-481 919.99,-470.91 915.42,-459.51 911.64,-449.13"/>
<polygon fill="green" stroke="green" stroke-width="5" points="917.44,-451.76 910,-443.78 909.19,-454.66 917.44,-451.76"/>
<text text-anchor="middle" x="964" y="-457" font-family="Times New Roman,serif" font-size="30.00"> &#160;&#160;99%</text>
</g>
<!-- CH2(S) -->
<g id="node21" class="node">
<title>CH2(S)</title>
<g id="a_node21"><a xlink:href="Species\56.svg" xlink:title="CH2(S)">
<polygon fill="dodgerblue" stroke="none" points="794,-439 668,-439 668,-392 794,-392 794,-439"/>
<text text-anchor="middle" x="731" y="-407" font-family="Times New Roman,serif" font-size="35.00">CH2(S)</text>
</a>
</g>
</g>
<!-- CH2CO(S)&#45;&gt;CH2(S) -->
<g id="edge20" class="edge">
<title>CH2CO(S)&#45;&gt;CH2(S)</title>
<path fill="none" stroke="black" d="M867.96,-490.04C860.12,-487.22 852.35,-484.19 845,-481 821.33,-470.71 796.23,-456.86 775.63,-444.64"/>
<polygon fill="black" stroke="black" points="777.58,-441.12 767.2,-438.97 773.97,-447.12 777.58,-441.12"/>
<text text-anchor="middle" x="876.5" y="-457" font-family="Times New Roman,serif" font-size="30.00"> &#160;&#160;0%</text>
</g>
<!-- CO(S)&#45;&gt;COOH(S) -->
<g id="edge30" class="edge">
<title>CO(S)&#45;&gt;COOH(S)</title>
<path fill="none" stroke="black" stroke-width="3" d="M1068.51,-196.07C1075.36,-183.37 1084.54,-167.39 1094,-154 1094.14,-153.81 1094.27,-153.62 1094.41,-153.43"/>
<polygon fill="black" stroke="black" stroke-width="3" points="1095.71,-157.87 1099,-147.8 1090.15,-153.62 1095.71,-157.87"/>
<text text-anchor="middle" x="1133" y="-163" font-family="Times New Roman,serif" font-size="30.00"> &#160;&#160;45%</text>
</g>
<!-- CHCO(S)&#45;&gt;CO(S) -->
<g id="edge24" class="edge">
<title>CHCO(S)&#45;&gt;CO(S)</title>
<path fill="none" stroke="black" stroke-width="5" d="M929.71,-392.14C932.41,-389.27 934.91,-386.2 937,-383 959.67,-348.28 935.01,-322.64 965,-294 976.3,-283.2 985.66,-293.15 999,-285 1013.06,-276.41 1025.7,-263.37 1035.56,-251.27"/>
<polygon fill="black" stroke="black" stroke-width="5" points="1036.55,-257.27 1039.23,-246.69 1029.64,-251.9 1036.55,-257.27"/>
<text text-anchor="middle" x="1004" y="-310" font-family="Times New Roman,serif" font-size="30.00"> &#160;&#160;99%</text>
</g>
<!-- CCO(S) -->
<g id="node22" class="node">
<title>CCO(S)</title>
<g id="a_node22"><a xlink:href="Species\37.svg" xlink:title="CCO(S)">
<polygon fill="dodgerblue" stroke="none" points="915,-341 783,-341 783,-294 915,-294 915,-341"/>
<text text-anchor="middle" x="849" y="-309" font-family="Times New Roman,serif" font-size="35.00">CCO(S)</text>
</a>
</g>
</g>
<!-- CHCO(S)&#45;&gt;CCO(S) -->
<g id="edge22" class="edge">
<title>CHCO(S)&#45;&gt;CCO(S)</title>
<path fill="none" stroke="black" d="M880.28,-392.14C878.01,-389.18 875.85,-386.09 874,-383 868.08,-373.11 863.08,-361.56 859.15,-351"/>
<polygon fill="black" stroke="black" points="862.2,-350.13 855.58,-341.86 855.6,-352.45 862.2,-350.13"/>
<text text-anchor="middle" x="905.5" y="-359" font-family="Times New Roman,serif" font-size="30.00"> &#160;&#160;0%</text>
</g>
<!-- CH(S) -->
<g id="node23" class="node">
<title>CH(S)</title>
<g id="a_node23"><a xlink:href="Species\57.svg" xlink:title="CH(S)">
<polygon fill="springgreen" stroke="none" points="821,-145 713,-145 713,-98 821,-98 821,-145"/>
<text text-anchor="middle" x="767" y="-113" font-family="Times New Roman,serif" font-size="35.00">CH(S)</text>
</a>
</g>
</g>
<!-- CHCO(S)&#45;&gt;CH(S) -->
<g id="edge23" class="edge">
<title>CHCO(S)&#45;&gt;CH(S)</title>
<path fill="none" stroke="black" stroke-width="5" d="M841.98,-392.09C817.81,-380.23 791.47,-363.4 774,-341 732.2,-287.38 745.47,-201.81 757.21,-155.26"/>
<polygon fill="black" stroke="black" stroke-width="5" points="760.63,-161.64 758.97,-150.86 752.18,-159.4 760.63,-161.64"/>
<text text-anchor="middle" x="789" y="-261" font-family="Times New Roman,serif" font-size="30.00"> &#160;&#160;99%</text>
</g>
<!-- CH2(S)&#45;&gt;CH3(S) -->
<g id="edge31" class="edge">
<title>CH2(S)&#45;&gt;CH3(S)</title>
<path fill="none" stroke="black" stroke-width="5" d="M668.1,-392.56C663.74,-389.72 659.64,-386.55 656,-383 647.05,-374.27 640.63,-362.28 636.15,-351"/>
<polygon fill="black" stroke="black" stroke-width="5" points="642.04,-353.91 634.56,-345.96 633.8,-356.85 642.04,-353.91"/>
<text text-anchor="middle" x="695" y="-359" font-family="Times New Roman,serif" font-size="30.00"> &#160;&#160;99%</text>
</g>
<!-- CCO(S)&#45;&gt;CO(S) -->
<g id="edge26" class="edge">
<title>CCO(S)&#45;&gt;CO(S)</title>
<path fill="none" stroke="black" d="M898.39,-294.08C902.83,-291.29 907.11,-288.25 911,-285 925.12,-273.2 920.7,-262.22 936,-252 952.6,-240.92 972.9,-233.73 992.08,-229.07"/>
<polygon fill="black" stroke="black" points="992.59,-232.32 1001.59,-226.74 991.07,-225.49 992.59,-232.32"/>
<text text-anchor="middle" x="967.5" y="-261" font-family="Times New Roman,serif" font-size="30.00"> &#160;&#160;0%</text>
</g>
<!-- C(S) -->
<g id="node24" class="node">
<title>C(S)</title>
<g id="a_node24"><a xlink:href="Species\58.svg" xlink:title="C(S)">
<polygon fill="dodgerblue" stroke="none" points="875.5,-243 792.5,-243 792.5,-196 875.5,-196 875.5,-243"/>
<text text-anchor="middle" x="834" y="-211" font-family="Times New Roman,serif" font-size="35.00">C(S)</text>
</a>
</g>
</g>
<!-- CCO(S)&#45;&gt;C(S) -->
<g id="edge25" class="edge">
<title>CCO(S)&#45;&gt;C(S)</title>
<path fill="none" stroke="black" d="M845.52,-294.23C843.64,-282.2 841.28,-267.11 839.19,-253.72"/>
<polygon fill="black" stroke="black" points="842.51,-253.32 837.51,-243.98 835.6,-254.4 842.51,-253.32"/>
<text text-anchor="middle" x="875.5" y="-261" font-family="Times New Roman,serif" font-size="30.00"> &#160;&#160;0%</text>
</g>
<!-- C(S)&#45;&gt;CH(S) -->
<g id="edge32" class="edge">
<title>C(S)&#45;&gt;CH(S)</title>
<path fill="none" stroke="green" d="M818.46,-196.23C809.64,-183.6 798.47,-167.6 788.79,-153.73"/>
<polygon fill="green" stroke="green" points="791.28,-152.17 782.69,-145.98 785.54,-156.18 791.28,-152.17"/>
<text text-anchor="middle" x="842.5" y="-163" font-family="Times New Roman,serif" font-size="30.00"> &#160;&#160;0%</text>
</g>
<!-- CH3CH(S) -->
<g id="node25" class="node">
<title>CH3CH(S)</title>
<g id="a_node25"><a xlink:href="Species\39.svg" xlink:title="CH3CH(S)">
<polygon fill="dodgerblue" stroke="none" points="174,-831 0,-831 0,-784 174,-784 174,-831"/>
<text text-anchor="middle" x="87" y="-799" font-family="Times New Roman,serif" font-size="35.00">CH3CH(S)</text>
</a>
</g>
</g>
<!-- CH3CH(S)&#45;&gt;CH3CH2(S) -->
<g id="edge27" class="edge">
<title>CH3CH(S)&#45;&gt;CH3CH2(S)</title>
<path fill="none" stroke="black" d="M98.83,-784.23C105.41,-771.84 113.72,-756.2 120.99,-742.52"/>
<polygon fill="black" stroke="black" points="124.46,-744.45 126.06,-733.98 118.28,-741.17 124.46,-744.45"/>
<text text-anchor="middle" x="152.5" y="-751" font-family="Times New Roman,serif" font-size="30.00"> &#160;&#160;0%</text>
</g>
<!-- CH2CH2(S) -->
<g id="node26" class="node">
<title>CH2CH2(S)</title>
<g id="a_node26"><a xlink:href="Species\41.svg" xlink:title="CH2CH2(S)">
<polygon fill="dodgerblue" stroke="none" points="384,-831 192,-831 192,-784 384,-784 384,-831"/>
<text text-anchor="middle" x="288" y="-799" font-family="Times New Roman,serif" font-size="35.00">CH2CH2(S)</text>
</a>
</g>
</g>
<!-- CH2CH2(S)&#45;&gt;CH3CH2(S) -->
<g id="edge28" class="edge">
<title>CH2CH2(S)&#45;&gt;CH3CH2(S)</title>
<path fill="none" stroke="green" d="M253.35,-784.02C234.13,-771.58 209.78,-755.88 188,-742 186.28,-740.9 184.53,-739.79 182.75,-738.66"/>
<polygon fill="green" stroke="green" points="185.13,-735.39 174.81,-732.99 181.38,-741.3 185.13,-735.39"/>
<text text-anchor="middle" x="269.5" y="-751" font-family="Times New Roman,serif" font-size="30.00"> &#160;&#160;0%</text>
</g>
<!-- CH2CH(S) -->
<g id="node27" class="node">
<title>CH2CH(S)</title>
<g id="a_node27"><a xlink:href="Species\42.svg" xlink:title="CH2CH(S)">
<polygon fill="dodgerblue" stroke="none" points="375,-929 201,-929 201,-882 375,-882 375,-929"/>
<text text-anchor="middle" x="288" y="-897" font-family="Times New Roman,serif" font-size="35.00">CH2CH(S)</text>
</a>
</g>
</g>
<!-- CH2CH(S)&#45;&gt;CH2CH2(S) -->
<g id="edge29" class="edge">
<title>CH2CH(S)&#45;&gt;CH2CH2(S)</title>
<path fill="none" stroke="green" d="M288,-882.23C288,-870.2 288,-855.11 288,-841.72"/>
<polygon fill="green" stroke="green" points="291.5,-841.98 288,-831.98 284.5,-841.98 291.5,-841.98"/>
<text text-anchor="middle" x="319.5" y="-849" font-family="Times New Roman,serif" font-size="30.00"> &#160;&#160;0%</text>
</g>
<!-- CO2(S) -->
<g id="node30" class="node">
<title>CO2(S)</title>
<g id="a_node30"><a xlink:href="Species\63.svg" xlink:title="CO2(S)">
<polygon fill="dodgerblue" stroke="none" points="1184.5,-47 1057.5,-47 1057.5,0 1184.5,0 1184.5,-47"/>
<text text-anchor="middle" x="1121" y="-15" font-family="Times New Roman,serif" font-size="35.00">CO2(S)</text>
</a>
</g>
</g>
<!-- COOH(S)&#45;&gt;CO2(S) -->
<g id="edge35" class="edge">
<title>COOH(S)&#45;&gt;CO2(S)</title>
<path fill="none" stroke="black" stroke-width="3" d="M1121,-98.23C1121,-86.2 1121,-71.11 1121,-57.72"/>
<polygon fill="black" stroke="black" stroke-width="3" points="1124.5,-60.98 1121,-50.98 1117.5,-60.98 1124.5,-60.98"/>
<text text-anchor="middle" x="1160" y="-65" font-family="Times New Roman,serif" font-size="30.00"> &#160;&#160;45%</text>
</g>
<!-- H2O(S) -->
<g id="node29" class="node">
<title>H2O(S)</title>
<g id="a_node29"><a xlink:href="Species\59.svg" xlink:title="H2O(S)">
<polygon fill="springgreen" stroke="none" points="1247,-733 1119,-733 1119,-686 1247,-686 1247,-733"/>
<text text-anchor="middle" x="1183" y="-701" font-family="Times New Roman,serif" font-size="35.00">H2O(S)</text>
</a>
</g>
</g>
<!-- H2O(S)&#45;&gt;OH(S) -->
<g id="edge33" class="edge">
<title>H2O(S)&#45;&gt;OH(S)</title>
<path fill="none" stroke="green" stroke-width="3" d="M1183,-686.23C1183,-674.2 1183,-659.11 1183,-645.72"/>
<polygon fill="green" stroke="green" stroke-width="3" points="1186.5,-648.98 1183,-638.98 1179.5,-648.98 1186.5,-648.98"/>
<text text-anchor="middle" x="1222" y="-653" font-family="Times New Roman,serif" font-size="30.00"> &#160;&#160;55%</text>
</g>
</g>
</svg>
