<?xml version="1.0" encoding="UTF-8" standalone="no"?>
<!DOCTYPE svg PUBLIC "-//W3C//DTD SVG 1.1//EN"
 "http://www.w3.org/Graphics/SVG/1.1/DTD/svg11.dtd">
<!-- Generated by graphviz version 8.0.3 (20230416.2022)
 -->
<!-- Title: test Pages: 1 -->
<svg width="195pt" height="295pt"
 viewBox="0.00 0.00 195.00 295.00" xmlns="http://www.w3.org/2000/svg" xmlns:xlink="http://www.w3.org/1999/xlink">
<g id="graph0" class="graph" transform="scale(1 1) rotate(0) translate(4 291)">
<title>test</title>
<polygon fill="white" stroke="none" points="-4,4 -4,-291 191,-291 191,4 -4,4"/>
<!-- legend -->
<g id="node1" class="node">
<title>legend</title>
<polygon fill="none" stroke="black" points="11,-257 11,-280 176,-280 176,-257 11,-257"/>
<text text-anchor="start" x="69.5" y="-266" font-family="Times New Roman,serif" font-weight="bold" font-size="15.00">Legend</text>
<polygon fill="coral" stroke="none" points="11,-232 11,-255 96,-255 96,-232 11,-232"/>
<polygon fill="none" stroke="black" points="11,-232 11,-255 96,-255 96,-232 11,-232"/>
<text text-anchor="start" x="14" y="-240" font-family="Times New Roman,serif" font-size="15.00"> &#160;&#160;&#160;&#160;&#160;&#160;&#160;&#160;&#160;&#160;&#160;&#160;&#160;&#160;&#160;&#160;&#160;&#160;&#160;&#160;</text>
<polygon fill="none" stroke="black" points="98,-232 98,-255 176,-255 176,-232 98,-232"/>
<text text-anchor="start" x="119.5" y="-240" font-family="Times New Roman,serif" font-size="15.00">0.85+</text>
<polygon fill="orangered" stroke="none" points="11,-207 11,-230 96,-230 96,-207 11,-207"/>
<polygon fill="none" stroke="black" points="11,-207 11,-230 96,-230 96,-207 11,-207"/>
<text text-anchor="start" x="14" y="-215" font-family="Times New Roman,serif" font-size="15.00"> &#160;&#160;&#160;&#160;&#160;&#160;&#160;&#160;&#160;&#160;&#160;&#160;&#160;&#160;&#160;&#160;&#160;&#160;&#160;&#160;</text>
<polygon fill="none" stroke="black" points="98,-207 98,-230 176,-230 176,-207 98,-207"/>
<text text-anchor="start" x="111.5" y="-215" font-family="Times New Roman,serif" font-size="15.00">0.7&#45;0.85</text>
<polygon fill="red" stroke="none" points="11,-182 11,-205 96,-205 96,-182 11,-182"/>
<polygon fill="none" stroke="black" points="11,-182 11,-205 96,-205 96,-182 11,-182"/>
<text text-anchor="start" x="14" y="-190" font-family="Times New Roman,serif" font-size="15.00"> &#160;&#160;&#160;&#160;&#160;&#160;&#160;&#160;&#160;&#160;&#160;&#160;&#160;&#160;&#160;&#160;&#160;&#160;&#160;&#160;</text>
<polygon fill="none" stroke="black" points="98,-182 98,-205 176,-205 176,-182 98,-182"/>
<text text-anchor="start" x="111.5" y="-190" font-family="Times New Roman,serif" font-size="15.00">0.55&#45;0.7</text>
<polygon fill="darkorange" stroke="none" points="11,-157 11,-180 96,-180 96,-157 11,-157"/>
<polygon fill="none" stroke="black" points="11,-157 11,-180 96,-180 96,-157 11,-157"/>
<text text-anchor="start" x="14" y="-165" font-family="Times New Roman,serif" font-size="15.00"> &#160;&#160;&#160;&#160;&#160;&#160;&#160;&#160;&#160;&#160;&#160;&#160;&#160;&#160;&#160;&#160;&#160;&#160;&#160;&#160;</text>
<polygon fill="none" stroke="black" points="98,-157 98,-180 176,-180 176,-157 98,-157"/>
<text text-anchor="start" x="111.5" y="-165" font-family="Times New Roman,serif" font-size="15.00">0.4&#45;0.55</text>
<polygon fill="orange" stroke="none" points="11,-132 11,-155 96,-155 96,-132 11,-132"/>
<polygon fill="none" stroke="black" points="11,-132 11,-155 96,-155 96,-132 11,-132"/>
<text text-anchor="start" x="14" y="-140" font-family="Times New Roman,serif" font-size="15.00"> &#160;&#160;&#160;&#160;&#160;&#160;&#160;&#160;&#160;&#160;&#160;&#160;&#160;&#160;&#160;&#160;&#160;&#160;&#160;&#160;</text>
<polygon fill="none" stroke="black" points="98,-132 98,-155 176,-155 176,-132 98,-132"/>
<text text-anchor="start" x="115.5" y="-140" font-family="Times New Roman,serif" font-size="15.00">0.2&#45;0.4</text>
<polygon fill="gold" stroke="none" points="11,-107 11,-130 96,-130 96,-107 11,-107"/>
<polygon fill="none" stroke="black" points="11,-107 11,-130 96,-130 96,-107 11,-107"/>
<text text-anchor="start" x="14" y="-115" font-family="Times New Roman,serif" font-size="15.00"> &#160;&#160;&#160;&#160;&#160;&#160;&#160;&#160;&#160;&#160;&#160;&#160;&#160;&#160;&#160;&#160;&#160;&#160;&#160;&#160;</text>
<polygon fill="none" stroke="black" points="98,-107 98,-130 176,-130 176,-107 98,-107"/>
<text text-anchor="start" x="115.5" y="-115" font-family="Times New Roman,serif" font-size="15.00">0.1&#45;0.2</text>
<polygon fill="lawngreen" stroke="none" points="11,-82 11,-105 96,-105 96,-82 11,-82"/>
<polygon fill="none" stroke="black" points="11,-82 11,-105 96,-105 96,-82 11,-82"/>
<text text-anchor="start" x="14" y="-90" font-family="Times New Roman,serif" font-size="15.00"> &#160;&#160;&#160;&#160;&#160;&#160;&#160;&#160;&#160;&#160;&#160;&#160;&#160;&#160;&#160;&#160;&#160;&#160;&#160;&#160;</text>
<polygon fill="none" stroke="black" points="98,-82 98,-105 176,-105 176,-82 98,-82"/>
<text text-anchor="start" x="111.5" y="-90" font-family="Times New Roman,serif" font-size="15.00">0.05&#45;0.1</text>
<polygon fill="green" stroke="none" points="11,-57 11,-80 96,-80 96,-57 11,-57"/>
<polygon fill="none" stroke="black" points="11,-57 11,-80 96,-80 96,-57 11,-57"/>
<text text-anchor="start" x="14" y="-65" font-family="Times New Roman,serif" font-size="15.00"> &#160;&#160;&#160;&#160;&#160;&#160;&#160;&#160;&#160;&#160;&#160;&#160;&#160;&#160;&#160;&#160;&#160;&#160;&#160;&#160;</text>
<polygon fill="none" stroke="black" points="98,-57 98,-80 176,-80 176,-57 98,-57"/>
<text text-anchor="start" x="106.5" y="-65" font-family="Times New Roman,serif" font-size="15.00">1E&#45;5&#45;0.05</text>
<polygon fill="dodgerblue" stroke="none" points="11,-32 11,-55 96,-55 96,-32 11,-32"/>
<polygon fill="none" stroke="black" points="11,-32 11,-55 96,-55 96,-32 11,-32"/>
<text text-anchor="start" x="14" y="-40" font-family="Times New Roman,serif" font-size="15.00"> &#160;&#160;&#160;&#160;&#160;&#160;&#160;&#160;&#160;&#160;&#160;&#160;&#160;&#160;&#160;&#160;&#160;&#160;&#160;&#160;</text>
<polygon fill="none" stroke="black" points="98,-32 98,-55 176,-55 176,-32 98,-32"/>
<text text-anchor="start" x="101" y="-40" font-family="Times New Roman,serif" font-size="15.00">1E&#45;10&#45;1E&#45;5</text>
<polygon fill="purple" stroke="none" points="11,-7 11,-30 96,-30 96,-7 11,-7"/>
<polygon fill="none" stroke="black" points="11,-7 11,-30 96,-30 96,-7 11,-7"/>
<text text-anchor="start" x="14" y="-15" font-family="Times New Roman,serif" font-size="15.00"> &#160;&#160;&#160;&#160;&#160;&#160;&#160;&#160;&#160;&#160;&#160;&#160;&#160;&#160;&#160;&#160;&#160;&#160;&#160;&#160;</text>
<polygon fill="none" stroke="black" points="98,-7 98,-30 176,-30 176,-7 98,-7"/>
<text text-anchor="start" x="106.5" y="-15" font-family="Times New Roman,serif" font-size="15.00">0.0&#45;1E&#45;10</text>
<polygon fill="none" stroke="black" points="8,-4 8,-283 179,-283 179,-4 8,-4"/>
</g>
</g>
</svg>
