<?xml version="1.0" encoding="UTF-8" standalone="no"?>
<!DOCTYPE svg PUBLIC "-//W3C//DTD SVG 1.1//EN"
 "http://www.w3.org/Graphics/SVG/1.1/DTD/svg11.dtd">
<!-- Generated by graphviz version 8.0.3 (20230416.2022)
 -->
<!-- Title: G Pages: 1 -->
<svg width="640pt" height="103pt"
 viewBox="0.00 0.00 720.00 116.29" xmlns="http://www.w3.org/2000/svg" xmlns:xlink="http://www.w3.org/1999/xlink">
<g id="graph0" class="graph" transform="scale(0.146621 0.146621) rotate(0) translate(4 701)">
<title>G</title>
<polygon fill="white" stroke="none" points="-4,4 -4,-701 4361,-701 4361,4 -4,4"/>
<text text-anchor="middle" x="2178.5" y="-613" font-family="Arial" font-size="100.00" fill="blue">Cl: 0 H: 2</text>
<!-- 34 -->
<g id="node1" class="node">
<title>34</title>
<g id="a_node1"><a xlink:href="Species_pathways\34.svg">
<polygon fill="none" stroke="black" points="360,-360 0,-360 0,0 360,0 360,-360"/>
<image xlink:href="100010.png" width="348.923px" height="360px" preserveAspectRatio="xMinYMin meet" x="5.53846" y="-360"/>
</a>
</g>
</g>
<!-- 50 -->
<g id="node2" class="node">
<title>50</title>
<g id="a_node2"><a xlink:href="Species_pathways\50.svg">
<polygon fill="none" stroke="black" points="931,-579 571,-579 571,-219 931,-219 931,-579"/>
<image xlink:href="110010.png" width="294.059px" height="360px" preserveAspectRatio="xMinYMin meet" x="603.97" y="-579"/>
</a>
</g>
</g>
<!-- 34&#45;&gt;50 -->
<g id="edge1" class="edge">
<title>34&#45;&gt;50</title>
<path fill="none" stroke="darkred" stroke-width="11" d="M360.25,-248.99C422.25,-272.85 492,-299.7 555.18,-324.02"/>
<polygon fill="darkred" stroke="darkred" stroke-width="11" points="550.88,-333.37 563.67,-327.98 557.79,-315.4 550.88,-333.37"/>
<text text-anchor="middle" x="465.5" y="-329" font-family="Times New Roman,serif" font-size="45.00" fill="darkred"> &#160;&#160;0.996</text>
</g>
<!-- 42 -->
<g id="node3" class="node">
<title>42</title>
<g id="a_node3"><a xlink:href="Species_pathways\42.svg">
<polygon fill="none" stroke="black" points="1502,-579 1142,-579 1142,-219 1502,-219 1502,-579"/>
<image xlink:href="101010.png" width="333.613px" height="360px" preserveAspectRatio="xMinYMin meet" x="1155.19" y="-579"/>
</a>
</g>
</g>
<!-- 50&#45;&gt;42 -->
<g id="edge2" class="edge">
<title>50&#45;&gt;42</title>
<path fill="none" stroke="darkred" stroke-width="10" d="M931.25,-399C992.85,-399 1062.12,-399 1124.98,-399"/>
<polygon fill="darkred" stroke="darkred" stroke-width="10" points="1124.67,-407.75 1134.67,-399 1124.67,-390.25 1124.67,-407.75"/>
<text text-anchor="middle" x="1036.5" y="-413" font-family="Times New Roman,serif" font-size="45.00" fill="darkred"> &#160;&#160;0.493</text>
</g>
<!-- 58 -->
<g id="node4" class="node">
<title>58</title>
<g id="a_node4"><a xlink:href="Species_pathways\58.svg">
<polygon fill="none" stroke="black" points="2073,-579 1713,-579 1713,-219 2073,-219 2073,-579"/>
<image xlink:href="111010.png" width="305.152px" height="360px" preserveAspectRatio="xMinYMin meet" x="1740.42" y="-579"/>
</a>
</g>
</g>
<!-- 42&#45;&gt;58 -->
<g id="edge3" class="edge">
<title>42&#45;&gt;58</title>
<path fill="none" stroke="darkred" stroke-dasharray="5,2" d="M1502.25,-399C1565.82,-399 1637.55,-399 1701.98,-399"/>
<polygon fill="darkred" stroke="darkred" points="1701.67,-402.5 1711.67,-399 1701.67,-395.5 1701.67,-402.5"/>
<text text-anchor="middle" x="1607.5" y="-413" font-family="Times New Roman,serif" font-size="45.00" fill="darkred"> &#160;&#160;0.002*</text>
</g>
<!-- 59 -->
<g id="node5" class="node">
<title>59</title>
<g id="a_node5"><a xlink:href="Species_pathways\59.svg">
<polygon fill="none" stroke="black" points="2644,-579 2284,-579 2284,-219 2644,-219 2644,-579"/>
<image xlink:href="111011.png" width="320.357px" height="360px" preserveAspectRatio="xMinYMin meet" x="2303.82" y="-579"/>
</a>
</g>
</g>
<!-- 58&#45;&gt;59 -->
<g id="edge4" class="edge">
<title>58&#45;&gt;59</title>
<path fill="none" stroke="darkred" stroke-width="8" d="M2073.25,-399C2135.12,-399 2204.71,-399 2267.78,-399"/>
<polygon fill="darkred" stroke="darkred" stroke-width="8" points="2267.67,-406 2277.67,-399 2267.67,-392 2267.67,-406"/>
<text text-anchor="middle" x="2178.5" y="-413" font-family="Times New Roman,serif" font-size="45.00" fill="darkred"> &#160;&#160;0.240</text>
</g>
<!-- 51 -->
<g id="node6" class="node">
<title>51</title>
<g id="a_node6"><a xlink:href="Species_pathways\51.svg">
<polygon fill="none" stroke="black" points="3215,-579 2855,-579 2855,-219 3215,-219 3215,-579"/>
<image xlink:href="110011.png" width="303.488px" height="360px" preserveAspectRatio="xMinYMin meet" x="2883.26" y="-579"/>
</a>
</g>
</g>
<!-- 59&#45;&gt;51 -->
<g id="edge5" class="edge">
<title>59&#45;&gt;51</title>
<path fill="none" stroke="darkred" stroke-width="8" d="M2644.25,-399C2706.12,-399 2775.71,-399 2838.78,-399"/>
<polygon fill="darkred" stroke="darkred" stroke-width="8" points="2838.67,-406 2848.67,-399 2838.67,-392 2838.67,-406"/>
<text text-anchor="middle" x="2749.5" y="-413" font-family="Times New Roman,serif" font-size="45.00" fill="darkred"> &#160;&#160;0.240</text>
</g>
<!-- 43 -->
<g id="node7" class="node">
<title>43</title>
<g id="a_node7"><a xlink:href="Species_pathways\43.svg">
<polygon fill="none" stroke="black" points="3786,-579 3426,-579 3426,-219 3786,-219 3786,-579"/>
<image xlink:href="101011.png" width="338.543px" height="360px" preserveAspectRatio="xMinYMin meet" x="3436.73" y="-579"/>
</a>
</g>
</g>
<!-- 51&#45;&gt;43 -->
<g id="edge6" class="edge">
<title>51&#45;&gt;43</title>
<path fill="none" stroke="darkred" stroke-width="4" d="M3215.25,-399C3277.12,-399 3346.71,-399 3409.78,-399"/>
<polygon fill="darkred" stroke="darkred" stroke-width="4" points="3409.67,-402.5 3419.67,-399 3409.67,-395.5 3409.67,-402.5"/>
<text text-anchor="middle" x="3320.5" y="-413" font-family="Times New Roman,serif" font-size="45.00" fill="darkred"> &#160;&#160;0.037</text>
</g>
<!-- 35 -->
<g id="node8" class="node">
<title>35</title>
<g id="a_node8"><a xlink:href="Species_pathways\35.svg">
<polygon fill="none" stroke="black" points="4357,-360 3997,-360 3997,0 4357,0 4357,-360"/>
<image xlink:href="100011.png" width="317.538px" height="360px" preserveAspectRatio="xMinYMin meet" x="4018.23" y="-360"/>
</a>
</g>
</g>
<!-- 43&#45;&gt;35 -->
<g id="edge7" class="edge">
<title>43&#45;&gt;35</title>
<path fill="none" stroke="darkred" stroke-width="3" d="M3786.25,-330.01C3849.17,-305.79 3920.07,-278.5 3983.98,-253.9"/>
<polygon fill="darkred" stroke="darkred" stroke-width="3" points="3984.59,-256.88 3992.67,-250.02 3982.08,-250.35 3984.59,-256.88"/>
<text text-anchor="middle" x="3891.5" y="-329" font-family="Times New Roman,serif" font-size="45.00" fill="darkred"> &#160;&#160;0.021</text>
</g>
<!-- 35&#45;&gt;34 -->
<g id="edge8" class="edge">
<title>35&#45;&gt;34</title>
<path fill="none" stroke="darkred" stroke-width="3" d="M3996.56,-159.48C3884.68,-148.41 3737.64,-137 3607,-137 750,-137 750,-137 750,-137 624.59,-137 484.07,-147.52 374.05,-158.15"/>
<polygon fill="darkred" stroke="darkred" stroke-width="3" points="374.06,-155.02 364.44,-159.48 374.74,-161.99 374.06,-155.02"/>
<text text-anchor="middle" x="2178.5" y="-151" font-family="Times New Roman,serif" font-size="45.00" fill="darkred"> &#160;&#160;0.016</text>
</g>
</g>
</svg>
