<?xml version="1.0" encoding="UTF-8" standalone="no"?>
<!DOCTYPE svg PUBLIC "-//W3C//DTD SVG 1.1//EN"
 "http://www.w3.org/Graphics/SVG/1.1/DTD/svg11.dtd">
<!-- Generated by graphviz version 8.0.3 (20230416.2022)
 -->
<!-- Title: G Pages: 1 -->
<svg width="640pt" height="162pt"
 viewBox="0.00 0.00 720.00 182.78" xmlns="http://www.w3.org/2000/svg" xmlns:xlink="http://www.w3.org/1999/xlink">
<g id="graph0" class="graph" transform="scale(0.170303 0.170303) rotate(0) translate(4 950)">
<title>G</title>
<polygon fill="white" stroke="none" points="-4,4 -4,-950 3754,-950 3754,4 -4,4"/>
<text text-anchor="middle" x="1875" y="-862" font-family="Arial" font-size="100.00" fill="blue">Pathway 5</text>
<!-- 34 -->
<g id="node1" class="node">
<title>34</title>
<g id="a_node1"><a xlink:href="Species_pathways\34.svg">
<polygon fill="none" stroke="black" points="895,-606 535,-606 535,-246 895,-246 895,-606"/>
<image xlink:href="100010.png" width="348.923px" height="360px" preserveAspectRatio="xMinYMin meet" x="540.538" y="-606"/>
</a>
</g>
</g>
<!-- 50 -->
<g id="node2" class="node">
<title>50</title>
<g id="a_node2"><a xlink:href="Species_pathways\50.svg">
<polygon fill="none" stroke="black" points="1466,-814 1106,-814 1106,-454 1466,-454 1466,-814"/>
<image xlink:href="110010.png" width="294.059px" height="360px" preserveAspectRatio="xMinYMin meet" x="1138.97" y="-814"/>
</a>
</g>
</g>
<!-- 34&#45;&gt;50 -->
<g id="edge1" class="edge">
<title>34&#45;&gt;50</title>
<path fill="none" stroke="cadetblue" stroke-width="11" d="M895.25,-491.53C957.12,-514.14 1026.71,-539.58 1089.78,-562.64"/>
<polygon fill="cadetblue" stroke="cadetblue" stroke-width="11" points="1085.97,-572.05 1098.67,-566.45 1092.58,-553.97 1085.97,-572.05"/>
<text text-anchor="middle" x="1000.5" y="-568" font-family="Times New Roman,serif" font-size="45.00" fill="cadetblue"> &#160;&#160;0.996</text>
</g>
<!-- 1 -->
<g id="node11" class="node">
<title>1</title>
<g id="a_node11"><a xlink:href="Species_pathways\1.svg">
<polygon fill="none" stroke="black" points="1466,-400 1106,-400 1106,-40 1466,-40 1466,-400"/>
<image xlink:href="000001.png" width="348.966px" height="360px" preserveAspectRatio="xMinYMin meet" x="1111.52" y="-400"/>
</a>
</g>
</g>
<!-- 34&#45;&gt;1 -->
<g id="edge11" class="edge">
<title>34&#45;&gt;1</title>
<path fill="none" stroke="cadetblue" stroke-width="9" d="M911.14,-355.35C974.21,-332.52 1043.8,-307.32 1105.67,-284.92"/>
<polygon fill="cadetblue" stroke="cadetblue" stroke-width="9" points="907.98,-348.29 901.25,-359.1 913.34,-363.1 907.98,-348.29"/>
<text text-anchor="middle" x="1000.5" y="-362" font-family="Times New Roman,serif" font-size="45.00" fill="cadetblue"> &#160;&#160;0.278</text>
</g>
<!-- 54 -->
<g id="node3" class="node">
<title>54</title>
<g id="a_node3"><a xlink:href="Species_pathways\54.svg">
<polygon fill="none" stroke="black" points="2037,-815 1677,-815 1677,-455 2037,-455 2037,-815"/>
<image xlink:href="110110.png" width="282.162px" height="360px" preserveAspectRatio="xMinYMin meet" x="1715.92" y="-815"/>
</a>
</g>
</g>
<!-- 50&#45;&gt;54 -->
<g id="edge2" class="edge">
<title>50&#45;&gt;54</title>
<path fill="none" stroke="cadetblue" stroke-width="6" d="M1466.25,-634.32C1528.12,-634.42 1597.71,-634.55 1660.78,-634.66"/>
<polygon fill="cadetblue" stroke="cadetblue" stroke-width="6" points="1660.66,-639.92 1670.67,-634.68 1660.68,-629.42 1660.66,-639.92"/>
<text text-anchor="middle" x="1571.5" y="-648" font-family="Times New Roman,serif" font-size="45.00" fill="cadetblue"> &#160;&#160;0.085</text>
</g>
<!-- 55 -->
<g id="node4" class="node">
<title>55</title>
<g id="a_node4"><a xlink:href="Species_pathways\55.svg">
<polygon fill="none" stroke="black" points="2608,-817 2248,-817 2248,-457 2608,-457 2608,-817"/>
<image xlink:href="110111.png" width="336.429px" height="360px" preserveAspectRatio="xMinYMin meet" x="2259.79" y="-817"/>
</a>
</g>
</g>
<!-- 54&#45;&gt;55 -->
<g id="edge3" class="edge">
<title>54&#45;&gt;55</title>
<path fill="none" stroke="cadetblue" stroke-width="6" d="M2037.25,-635.63C2099.12,-635.85 2168.71,-636.09 2231.78,-636.31"/>
<polygon fill="cadetblue" stroke="cadetblue" stroke-width="6" points="2231.65,-641.58 2241.67,-636.37 2231.69,-631.08 2231.65,-641.58"/>
<text text-anchor="middle" x="2142.5" y="-650" font-family="Times New Roman,serif" font-size="45.00" fill="cadetblue"> &#160;&#160;0.079</text>
</g>
<!-- 51 -->
<g id="node5" class="node">
<title>51</title>
<g id="a_node5"><a xlink:href="Species_pathways\51.svg">
<polygon fill="none" stroke="black" points="3179,-821 2819,-821 2819,-461 3179,-461 3179,-821"/>
<image xlink:href="110011.png" width="303.488px" height="360px" preserveAspectRatio="xMinYMin meet" x="2847.26" y="-821"/>
</a>
</g>
</g>
<!-- 55&#45;&gt;51 -->
<g id="edge4" class="edge">
<title>55&#45;&gt;51</title>
<path fill="none" stroke="cadetblue" stroke-width="6" d="M2608.25,-638.26C2670.12,-638.7 2739.71,-639.18 2802.78,-639.63"/>
<polygon fill="cadetblue" stroke="cadetblue" stroke-width="6" points="2802.63,-644.92 2812.67,-639.74 2802.71,-634.42 2802.63,-644.92"/>
<text text-anchor="middle" x="2713.5" y="-653" font-family="Times New Roman,serif" font-size="45.00" fill="cadetblue"> &#160;&#160;0.079</text>
</g>
<!-- 43 -->
<g id="node6" class="node">
<title>43</title>
<g id="a_node6"><a xlink:href="Species_pathways\43.svg">
<polygon fill="none" stroke="black" points="3750,-828 3390,-828 3390,-468 3750,-468 3750,-828"/>
<image xlink:href="101011.png" width="338.543px" height="360px" preserveAspectRatio="xMinYMin meet" x="3400.73" y="-828"/>
</a>
</g>
</g>
<!-- 51&#45;&gt;43 -->
<g id="edge5" class="edge">
<title>51&#45;&gt;43</title>
<path fill="none" stroke="cadetblue" stroke-width="4" d="M3179.25,-643.21C3241.12,-643.97 3310.71,-644.82 3373.78,-645.6"/>
<polygon fill="cadetblue" stroke="cadetblue" stroke-width="4" points="3373.63,-649.17 3383.67,-645.79 3373.71,-642.17 3373.63,-649.17"/>
<text text-anchor="middle" x="3284.5" y="-659" font-family="Times New Roman,serif" font-size="45.00" fill="cadetblue"> &#160;&#160;0.037</text>
</g>
<!-- 35 -->
<g id="node7" class="node">
<title>35</title>
<g id="a_node7"><a xlink:href="Species_pathways\35.svg">
<polygon fill="none" stroke="black" points="3750,-360 3390,-360 3390,0 3750,0 3750,-360"/>
<image xlink:href="100011.png" width="317.538px" height="360px" preserveAspectRatio="xMinYMin meet" x="3411.23" y="-360"/>
</a>
</g>
</g>
<!-- 43&#45;&gt;35 -->
<g id="edge6" class="edge">
<title>43&#45;&gt;35</title>
<path fill="none" stroke="cadetblue" stroke-width="3" d="M3570,-467.82C3570,-437.09 3570,-405.06 3570,-373.99"/>
<polygon fill="cadetblue" stroke="cadetblue" stroke-width="3" points="3573.5,-374.27 3570,-364.27 3566.5,-374.27 3573.5,-374.27"/>
<text text-anchor="middle" x="3542" y="-403" font-family="Times New Roman,serif" font-size="45.00" fill="cadetblue"> &#160;&#160;&#160;&#160;&#160;&#160;&#160;&#160;&#160;&#160;&#160;&#160;&#160;&#160;&#160;&#160;&#160;&#160;&#160;&#160;0.021</text>
</g>
<!-- 39 -->
<g id="node8" class="node">
<title>39</title>
<g id="a_node8"><a xlink:href="Species_pathways\39.svg">
<polygon fill="none" stroke="black" points="3179,-400 2819,-400 2819,-40 3179,-40 3179,-400"/>
<image xlink:href="100111.png" width="360px" height="357.5px" preserveAspectRatio="xMinYMin meet" x="2819" y="-398.75"/>
</a>
</g>
</g>
<!-- 39&#45;&gt;35 -->
<g id="edge7" class="edge">
<title>39&#45;&gt;35</title>
<path fill="none" stroke="cadetblue" d="M3189.94,-206.65C3254.37,-202.12 3326.1,-197.08 3389.67,-192.61"/>
<polygon fill="cadetblue" stroke="cadetblue" points="3189.98,-203.21 3180.25,-207.4 3190.48,-210.19 3189.98,-203.21"/>
<text text-anchor="middle" x="3284.5" y="-219" font-family="Times New Roman,serif" font-size="45.00" fill="cadetblue"> &#160;&#160;0.002</text>
</g>
<!-- 38 -->
<g id="node9" class="node">
<title>38</title>
<g id="a_node9"><a xlink:href="Species_pathways\38.svg">
<polygon fill="none" stroke="black" points="2608,-400 2248,-400 2248,-40 2608,-40 2608,-400"/>
<image xlink:href="100110.png" width="311.51px" height="360px" preserveAspectRatio="xMinYMin meet" x="2272.24" y="-400"/>
</a>
</g>
</g>
<!-- 38&#45;&gt;39 -->
<g id="edge8" class="edge">
<title>38&#45;&gt;39</title>
<path fill="none" stroke="cadetblue" stroke-dasharray="5,2" d="M2618.94,-220C2683.37,-220 2755.1,-220 2818.67,-220"/>
<polygon fill="cadetblue" stroke="cadetblue" points="2619.25,-216.5 2609.25,-220 2619.25,-223.5 2619.25,-216.5"/>
<text text-anchor="middle" x="2713.5" y="-234" font-family="Times New Roman,serif" font-size="45.00" fill="cadetblue"> &#160;&#160;0.002*</text>
</g>
<!-- 5 -->
<g id="node10" class="node">
<title>5</title>
<g id="a_node10"><a xlink:href="Species_pathways\5.svg">
<polygon fill="none" stroke="black" points="2037,-400 1677,-400 1677,-40 2037,-40 2037,-400"/>
<image xlink:href="000101.png" width="310.909px" height="360px" preserveAspectRatio="xMinYMin meet" x="1701.55" y="-400"/>
</a>
</g>
</g>
<!-- 5&#45;&gt;38 -->
<g id="edge9" class="edge">
<title>5&#45;&gt;38</title>
<path fill="none" stroke="cadetblue" stroke-width="8" d="M2053.14,-220C2116.21,-220 2185.8,-220 2247.67,-220"/>
<polygon fill="cadetblue" stroke="cadetblue" stroke-width="8" points="2053.25,-213 2043.25,-220 2053.25,-227 2053.25,-213"/>
<text text-anchor="middle" x="2142.5" y="-234" font-family="Times New Roman,serif" font-size="45.00" fill="cadetblue"> &#160;&#160;0.245</text>
</g>
<!-- 1&#45;&gt;5 -->
<g id="edge10" class="edge">
<title>1&#45;&gt;5</title>
<path fill="none" stroke="cadetblue" stroke-width="5" d="M1482.14,-220C1545.21,-220 1614.8,-220 1676.67,-220"/>
<polygon fill="cadetblue" stroke="cadetblue" stroke-width="5" points="1482.25,-215.63 1472.25,-220 1482.25,-224.38 1482.25,-215.63"/>
<text text-anchor="middle" x="1571.5" y="-234" font-family="Times New Roman,serif" font-size="45.00" fill="cadetblue"> &#160;&#160;0.043</text>
</g>
<!-- Original -->
<g id="node12" class="node">
<title>Original</title>
<g id="a_node12"><a xlink:href="pathway_visualization.svg" xlink:title="All Pathways">
<polygon fill="grey" stroke="black" points="288,-462 0,-462 0,-390 288,-390 288,-462"/>
<text text-anchor="middle" x="144" y="-415" font-family="Times New Roman,serif" font-size="45.00" fill="white">All Pathways</text>
</a>
</g>
</g>
<!-- Original&#45;&gt;34 -->
<g id="edge12" class="edge">
<title>Original&#45;&gt;34</title>
</g>
</g>
</svg>
