<?xml version="1.0" encoding="UTF-8" standalone="no"?>
<!DOCTYPE svg PUBLIC "-//W3C//DTD SVG 1.1//EN"
 "http://www.w3.org/Graphics/SVG/1.1/DTD/svg11.dtd">
<!-- Generated by graphviz version 8.0.3 (20230416.2022)
 -->
<!-- Title: G Pages: 1 -->
<svg width="640pt" height="426pt"
 viewBox="0.00 0.00 720.00 479.66" xmlns="http://www.w3.org/2000/svg" xmlns:xlink="http://www.w3.org/1999/xlink">
<g id="graph0" class="graph" transform="scale(0.446927 0.446927) rotate(0) translate(4 950)">
<title>G</title>
<polygon fill="white" stroke="none" points="-4,4 -4,-950 1428,-950 1428,4 -4,4"/>
<text text-anchor="middle" x="712" y="-862" font-family="Arial" font-size="100.00" fill="blue">Pathway 1</text>
<!-- 34 -->
<g id="node1" class="node">
<title>34</title>
<g id="a_node1"><a xlink:href="Species_pathways\34.svg">
<polygon fill="none" stroke="black" points="874,-593 514,-593 514,-233 874,-233 874,-593"/>
<image xlink:href="100010.png" width="348.923px" height="360px" preserveAspectRatio="xMinYMin meet" x="519.538" y="-593"/>
</a>
</g>
</g>
<!-- 50 -->
<g id="node2" class="node">
<title>50</title>
<g id="a_node2"><a xlink:href="Species_pathways\50.svg">
<polygon fill="none" stroke="black" points="1424,-828 1064,-828 1064,-468 1424,-468 1424,-828"/>
<image xlink:href="110010.png" width="294.059px" height="360px" preserveAspectRatio="xMinYMin meet" x="1096.97" y="-828"/>
</a>
</g>
</g>
<!-- 34&#45;&gt;50 -->
<g id="edge1" class="edge">
<title>34&#45;&gt;50</title>
<path fill="none" stroke="black" stroke-width="11" d="M874.44,-489.95C930.05,-513.8 991.59,-540.19 1048.19,-564.46"/>
<polygon fill="black" stroke="black" stroke-width="11" points="1043.65,-572.98 1056.63,-568.08 1051.23,-555.29 1043.65,-572.98"/>
<text text-anchor="middle" x="969" y="-572" font-family="Times New Roman,serif" font-size="45.00"> &#160;&#160;0.996</text>
</g>
<!-- 42 -->
<g id="node3" class="node">
<title>42</title>
<g id="a_node3"><a xlink:href="Species_pathways\42.svg">
<polygon fill="none" stroke="black" points="1424,-360 1064,-360 1064,0 1424,0 1424,-360"/>
<image xlink:href="101010.png" width="333.613px" height="360px" preserveAspectRatio="xMinYMin meet" x="1077.19" y="-360"/>
</a>
</g>
</g>
<!-- 34&#45;&gt;42 -->
<g id="edge3" class="edge">
<title>34&#45;&gt;42</title>
<path fill="none" stroke="black" stroke-width="11" d="M889.87,-330.14C946.48,-306.07 1008.02,-279.91 1063.63,-256.27"/>
<polygon fill="black" stroke="black" stroke-width="11" points="886.87,-320.94 881.44,-333.71 894.4,-338.65 886.87,-320.94"/>
<text text-anchor="middle" x="969" y="-339" font-family="Times New Roman,serif" font-size="45.00"> &#160;&#160;0.946</text>
</g>
<!-- 50&#45;&gt;42 -->
<g id="edge2" class="edge">
<title>50&#45;&gt;42</title>
<path fill="none" stroke="black" stroke-width="10" stroke-dasharray="5,2" d="M1244,-467.82C1244,-438.06 1244,-407.07 1244,-376.92"/>
<polygon fill="black" stroke="black" stroke-width="10" points="1252.75,-377.27 1244,-367.27 1235.25,-377.27 1252.75,-377.27"/>
<text text-anchor="middle" x="1216" y="-403" font-family="Times New Roman,serif" font-size="45.00"> &#160;&#160;&#160;&#160;&#160;&#160;&#160;&#160;&#160;&#160;&#160;&#160;&#160;&#160;&#160;&#160;&#160;&#160;&#160;0.493*</text>
</g>
<!-- Original -->
<g id="node4" class="node">
<title>Original</title>
<g id="a_node4"><a xlink:href="pathway_visualization.svg" xlink:title="All Pathways">
<polygon fill="grey" stroke="black" points="288,-449 0,-449 0,-377 288,-377 288,-449"/>
<text text-anchor="middle" x="144" y="-402" font-family="Times New Roman,serif" font-size="45.00" fill="white">All Pathways</text>
</a>
</g>
</g>
<!-- Original&#45;&gt;34 -->
<g id="edge4" class="edge">
<title>Original&#45;&gt;34</title>
</g>
</g>
</svg>
