<?xml version="1.0" encoding="UTF-8" standalone="no"?>
<!DOCTYPE svg PUBLIC "-//W3C//DTD SVG 1.1//EN"
 "http://www.w3.org/Graphics/SVG/1.1/DTD/svg11.dtd">
<!-- Generated by graphviz version 8.0.3 (20230416.2022)
 -->
<!-- Title: G Pages: 1 -->
<svg width="640pt" height="414pt"
 viewBox="0.00 0.00 720.00 466.00" xmlns="http://www.w3.org/2000/svg" xmlns:xlink="http://www.w3.org/1999/xlink">
<g id="graph0" class="graph" transform="scale(0.434193 0.434193) rotate(0) translate(4 950)">
<title>G</title>
<polygon fill="white" stroke="none" points="-4,4 -4,-950 1470,-950 1470,4 -4,4"/>
<text text-anchor="middle" x="733" y="-862" font-family="Arial" font-size="100.00" fill="blue">Pathway 4</text>
<!-- 35 -->
<g id="node1" class="node">
<title>35</title>
<g id="a_node1"><a xlink:href="Species_pathways\35.svg">
<polygon fill="none" stroke="black" points="895,-593 535,-593 535,-233 895,-233 895,-593"/>
<image xlink:href="100011.png" width="317.538px" height="360px" preserveAspectRatio="xMinYMin meet" x="556.231" y="-593"/>
</a>
</g>
</g>
<!-- 51 -->
<g id="node2" class="node">
<title>51</title>
<g id="a_node2"><a xlink:href="Species_pathways\51.svg">
<polygon fill="none" stroke="black" points="1466,-828 1106,-828 1106,-468 1466,-468 1466,-828"/>
<image xlink:href="110011.png" width="303.488px" height="360px" preserveAspectRatio="xMinYMin meet" x="1134.26" y="-828"/>
</a>
</g>
</g>
<!-- 35&#45;&gt;51 -->
<g id="edge1" class="edge">
<title>35&#45;&gt;51</title>
<path fill="none" stroke="brown" stroke-dasharray="5,2" d="M895.25,-487.03C959.08,-513.39 1031.14,-543.15 1095.78,-569.85"/>
<polygon fill="brown" stroke="brown" points="1094.09,-573.35 1104.67,-573.94 1096.76,-566.88 1094.09,-573.35"/>
<text text-anchor="middle" x="1000.5" y="-572" font-family="Times New Roman,serif" font-size="45.00" fill="brown"> &#160;&#160;0.003*</text>
</g>
<!-- 43 -->
<g id="node3" class="node">
<title>43</title>
<g id="a_node3"><a xlink:href="Species_pathways\43.svg">
<polygon fill="none" stroke="black" points="1466,-360 1106,-360 1106,0 1466,0 1466,-360"/>
<image xlink:href="101011.png" width="338.543px" height="360px" preserveAspectRatio="xMinYMin meet" x="1116.73" y="-360"/>
</a>
</g>
</g>
<!-- 35&#45;&gt;43 -->
<g id="edge3" class="edge">
<title>35&#45;&gt;43</title>
<path fill="none" stroke="brown" stroke-width="3" d="M907.94,-334.4C971.85,-308.23 1042.75,-279.2 1105.67,-253.43"/>
<polygon fill="brown" stroke="brown" stroke-width="3" points="907.18,-331.57 899.25,-338.6 909.83,-338.05 907.18,-331.57"/>
<text text-anchor="middle" x="1000.5" y="-339" font-family="Times New Roman,serif" font-size="45.00" fill="brown"> &#160;&#160;0.021</text>
</g>
<!-- 51&#45;&gt;43 -->
<g id="edge2" class="edge">
<title>51&#45;&gt;43</title>
<path fill="none" stroke="brown" stroke-width="4" d="M1286,-467.82C1286,-437.78 1286,-406.49 1286,-376.08"/>
<polygon fill="brown" stroke="brown" stroke-width="4" points="1289.5,-376.27 1286,-366.27 1282.5,-376.27 1289.5,-376.27"/>
<text text-anchor="middle" x="1258" y="-403" font-family="Times New Roman,serif" font-size="45.00" fill="brown"> &#160;&#160;&#160;&#160;&#160;&#160;&#160;&#160;&#160;&#160;&#160;&#160;&#160;&#160;&#160;&#160;&#160;&#160;&#160;&#160;0.037</text>
</g>
<!-- Original -->
<g id="node4" class="node">
<title>Original</title>
<g id="a_node4"><a xlink:href="pathway_visualization.svg" xlink:title="All Pathways">
<polygon fill="grey" stroke="black" points="288,-449 0,-449 0,-377 288,-377 288,-449"/>
<text text-anchor="middle" x="144" y="-402" font-family="Times New Roman,serif" font-size="45.00" fill="white">All Pathways</text>
</a>
</g>
</g>
<!-- Original&#45;&gt;35 -->
<g id="edge4" class="edge">
<title>Original&#45;&gt;35</title>
</g>
</g>
</svg>
