<?xml version="1.0" encoding="UTF-8" standalone="no"?>
<!DOCTYPE svg PUBLIC "-//W3C//DTD SVG 1.1//EN"
 "http://www.w3.org/Graphics/SVG/1.1/DTD/svg11.dtd">
<!-- Generated by graphviz version 8.0.3 (20230416.2022)
 -->
<!-- Title: G Pages: 1 -->
<svg width="640pt" height="220pt"
 viewBox="0.00 0.00 720.00 247.33" xmlns="http://www.w3.org/2000/svg" xmlns:xlink="http://www.w3.org/1999/xlink">
<g id="graph0" class="graph" transform="scale(0.244275 0.244275) rotate(0) translate(4 896)">
<title>G</title>
<polygon fill="white" stroke="none" points="-4,4 -4,-896 2616,-896 2616,4 -4,4"/>
<text text-anchor="middle" x="1306" y="-808" font-family="Arial" font-size="100.00" fill="blue">Pathway 6</text>
<!-- 24 -->
<g id="node1" class="node">
<title>24</title>
<g id="a_node1"><a xlink:href="Species_pathways\24.svg">
<polygon fill="none" stroke="black" points="896,-566 536,-566 536,-206 896,-206 896,-566"/>
<image xlink:href="011000.png" width="360px" height="350.182px" preserveAspectRatio="xMinYMin meet" x="536" y="-561.091"/>
</a>
</g>
</g>
<!-- 25 -->
<g id="node2" class="node">
<title>25</title>
<g id="a_node2"><a xlink:href="Species_pathways\25.svg">
<polygon fill="none" stroke="black" points="1468,-774 1108,-774 1108,-414 1468,-414 1468,-774"/>
<image xlink:href="011001.png" width="360px" height="346.087px" preserveAspectRatio="xMinYMin meet" x="1108" y="-767.043"/>
</a>
</g>
</g>
<!-- 24&#45;&gt;25 -->
<g id="edge1" class="edge">
<title>24&#45;&gt;25</title>
<path fill="none" stroke="chocolate" stroke-width="14" d="M896.18,-451.38C957.79,-473.87 1027.09,-499.16 1090.04,-522.13"/>
<polygon fill="chocolate" stroke="chocolate" stroke-width="14" points="1086.02,-533.62 1099.61,-525.54 1094.42,-510.6 1086.02,-533.62"/>
<text text-anchor="middle" x="1002" y="-528" font-family="Times New Roman,serif" font-size="45.00" fill="chocolate"> &#160;&#160;23.269</text>
</g>
<!-- 16 -->
<g id="node6" class="node">
<title>16</title>
<g id="a_node6"><a xlink:href="Species_pathways\16.svg">
<polygon fill="none" stroke="black" points="1468,-360 1108,-360 1108,0 1468,0 1468,-360"/>
<image xlink:href="010000.png" width="338.644px" height="360px" preserveAspectRatio="xMinYMin meet" x="1118.68" y="-360"/>
</a>
</g>
</g>
<!-- 24&#45;&gt;16 -->
<g id="edge6" class="edge">
<title>24&#45;&gt;16</title>
<path fill="none" stroke="chocolate" stroke-width="14" d="M913.75,-314.89C976.68,-292.15 1045.98,-267.1 1107.61,-244.83"/>
<polygon fill="chocolate" stroke="chocolate" stroke-width="14" points="909.42,-303.32 904.18,-318.24 917.75,-326.37 909.42,-303.32"/>
<text text-anchor="middle" x="1002" y="-322" font-family="Times New Roman,serif" font-size="45.00" fill="chocolate"> &#160;&#160;23.588</text>
</g>
<!-- 58 -->
<g id="node3" class="node">
<title>58</title>
<g id="a_node3"><a xlink:href="Species_pathways\58.svg">
<polygon fill="none" stroke="black" points="2040,-774 1680,-774 1680,-414 2040,-414 2040,-774"/>
<image xlink:href="111010.png" width="305.152px" height="360px" preserveAspectRatio="xMinYMin meet" x="1707.42" y="-774"/>
</a>
</g>
</g>
<!-- 25&#45;&gt;58 -->
<g id="edge2" class="edge">
<title>25&#45;&gt;58</title>
<path fill="none" stroke="chocolate" stroke-width="14" d="M1468.18,-594C1529.39,-594 1598.2,-594 1660.83,-594"/>
<polygon fill="chocolate" stroke="chocolate" stroke-width="14" points="1660.61,-606.25 1670.61,-594 1660.61,-581.75 1660.61,-606.25"/>
<text text-anchor="middle" x="1574" y="-608" font-family="Times New Roman,serif" font-size="45.00" fill="chocolate"> &#160;&#160;23.363</text>
</g>
<!-- 50 -->
<g id="node4" class="node">
<title>50</title>
<g id="a_node4"><a xlink:href="Species_pathways\50.svg">
<polygon fill="none" stroke="black" points="2612,-566 2252,-566 2252,-206 2612,-206 2612,-566"/>
<image xlink:href="110010.png" width="294.059px" height="360px" preserveAspectRatio="xMinYMin meet" x="2284.97" y="-566"/>
</a>
</g>
</g>
<!-- 58&#45;&gt;50 -->
<g id="edge3" class="edge">
<title>58&#45;&gt;50</title>
<path fill="none" stroke="chocolate" stroke-width="14" d="M2040.18,-528.62C2101.79,-506.13 2171.09,-480.84 2234.04,-457.87"/>
<polygon fill="chocolate" stroke="chocolate" stroke-width="14" points="2238.42,-469.4 2243.61,-454.46 2230.02,-446.38 2238.42,-469.4"/>
<text text-anchor="middle" x="2146" y="-528" font-family="Times New Roman,serif" font-size="45.00" fill="chocolate"> &#160;&#160;23.108</text>
</g>
<!-- 20 -->
<g id="node5" class="node">
<title>20</title>
<g id="a_node5"><a xlink:href="Species_pathways\20.svg">
<polygon fill="none" stroke="black" points="2040,-360 1680,-360 1680,0 2040,0 2040,-360"/>
<image xlink:href="010100.png" width="347.634px" height="360px" preserveAspectRatio="xMinYMin meet" x="1686.18" y="-360"/>
</a>
</g>
</g>
<!-- 20&#45;&gt;50 -->
<g id="edge4" class="edge">
<title>20&#45;&gt;50</title>
<path fill="none" stroke="chocolate" stroke-width="12" stroke-dasharray="5,2" d="M2056.94,-250.81C2120.09,-273.64 2189.72,-298.8 2251.61,-321.17"/>
<polygon fill="chocolate" stroke="chocolate" stroke-width="12" points="2060.15,-240.28 2047.18,-246.76 2053.01,-260.03 2060.15,-240.28"/>
<text text-anchor="middle" x="2146" y="-322" font-family="Times New Roman,serif" font-size="45.00" fill="chocolate"> &#160;&#160;1.084*</text>
</g>
<!-- 16&#45;&gt;20 -->
<g id="edge5" class="edge">
<title>16&#45;&gt;20</title>
<path fill="none" stroke="chocolate" stroke-width="12" d="M1486.15,-180C1548.98,-180 1618.11,-180 1679.61,-180"/>
<polygon fill="chocolate" stroke="chocolate" stroke-width="12" points="1486.18,-169.5 1476.18,-180 1486.18,-190.5 1486.18,-169.5"/>
<text text-anchor="middle" x="1574" y="-194" font-family="Times New Roman,serif" font-size="45.00" fill="chocolate"> &#160;&#160;1.155</text>
</g>
<!-- Original -->
<g id="node7" class="node">
<title>Original</title>
<g id="a_node7"><a xlink:href="pathway_visualization.svg" xlink:title="All Pathways">
<polygon fill="grey" stroke="black" points="288,-422 0,-422 0,-350 288,-350 288,-422"/>
<text text-anchor="middle" x="144" y="-375" font-family="Times New Roman,serif" font-size="45.00" fill="white">All Pathways</text>
</a>
</g>
</g>
<!-- Original&#45;&gt;24 -->
<g id="edge7" class="edge">
<title>Original&#45;&gt;24</title>
</g>
</g>
</svg>
