<?xml version="1.0" encoding="UTF-8" standalone="no"?>
<!DOCTYPE svg PUBLIC "-//W3C//DTD SVG 1.1//EN"
 "http://www.w3.org/Graphics/SVG/1.1/DTD/svg11.dtd">
<!-- Generated by graphviz version 8.0.3 (20230416.2022)
 -->
<!-- Title: G Pages: 1 -->
<svg width="640pt" height="141pt"
 viewBox="0.00 0.00 720.00 158.41" xmlns="http://www.w3.org/2000/svg" xmlns:xlink="http://www.w3.org/1999/xlink">
<g id="graph0" class="graph" transform="scale(0.147601 0.147601) rotate(0) translate(4 950)">
<title>G</title>
<polygon fill="white" stroke="none" points="-4,4 -4,-950 4332,-950 4332,4 -4,4"/>
<text text-anchor="middle" x="2164" y="-862" font-family="Arial" font-size="100.00" fill="blue">Pathway 11</text>
<!-- 48 -->
<g id="node1" class="node">
<title>48</title>
<g id="a_node1"><a xlink:href="Species_pathways\48.svg">
<polygon fill="none" stroke="black" points="896,-606 536,-606 536,-246 896,-246 896,-606"/>
<image xlink:href="110000.png" width="265.392px" height="360px" preserveAspectRatio="xMinYMin meet" x="583.304" y="-606"/>
</a>
</g>
</g>
<!-- 32 -->
<g id="node2" class="node">
<title>32</title>
<g id="a_node2"><a xlink:href="Species_pathways\32.svg">
<polygon fill="none" stroke="black" points="1468,-814 1108,-814 1108,-454 1468,-454 1468,-814"/>
<image xlink:href="100000.png" width="330.131px" height="360px" preserveAspectRatio="xMinYMin meet" x="1122.93" y="-814"/>
</a>
</g>
</g>
<!-- 48&#45;&gt;32 -->
<g id="edge1" class="edge">
<title>48&#45;&gt;32</title>
<path fill="none" stroke="darkmagenta" stroke-width="7" d="M896.18,-491.38C958.71,-514.2 1029.16,-539.91 1092.86,-563.15"/>
<polygon fill="darkmagenta" stroke="darkmagenta" stroke-width="7" points="1090.12,-568.86 1101.61,-566.54 1094.32,-557.36 1090.12,-568.86"/>
<text text-anchor="middle" x="1002" y="-568" font-family="Times New Roman,serif" font-size="45.00" fill="darkmagenta"> &#160;&#160;0.118</text>
</g>
<!-- 16 -->
<g id="node13" class="node">
<title>16</title>
<g id="a_node13"><a xlink:href="Species_pathways\16.svg">
<polygon fill="none" stroke="black" points="1468,-400 1108,-400 1108,-40 1468,-40 1468,-400"/>
<image xlink:href="010000.png" width="338.644px" height="360px" preserveAspectRatio="xMinYMin meet" x="1118.68" y="-400"/>
</a>
</g>
</g>
<!-- 48&#45;&gt;16 -->
<g id="edge13" class="edge">
<title>48&#45;&gt;16</title>
<path fill="none" stroke="darkmagenta" stroke-width="7" d="M910.93,-355.91C974.61,-332.9 1045.06,-307.44 1107.61,-284.83"/>
<polygon fill="darkmagenta" stroke="darkmagenta" stroke-width="7" points="909.5,-350.09 902.18,-359.24 913.66,-361.61 909.5,-350.09"/>
<text text-anchor="middle" x="1002" y="-362" font-family="Times New Roman,serif" font-size="45.00" fill="darkmagenta"> &#160;&#160;0.148</text>
</g>
<!-- 0 -->
<g id="node3" class="node">
<title>0</title>
<g id="a_node3"><a xlink:href="Species_pathways\0.svg">
<polygon fill="none" stroke="black" points="2040,-814 1680,-814 1680,-454 2040,-454 2040,-814"/>
<image xlink:href="000000.png" width="360px" height="352.174px" preserveAspectRatio="xMinYMin meet" x="1680" y="-810.087"/>
</a>
</g>
</g>
<!-- 32&#45;&gt;0 -->
<g id="edge2" class="edge">
<title>32&#45;&gt;0</title>
<path fill="none" stroke="darkmagenta" stroke-width="6" d="M1468.18,-634C1530.32,-634 1600.27,-634 1663.65,-634"/>
<polygon fill="darkmagenta" stroke="darkmagenta" stroke-width="6" points="1663.61,-639.25 1673.61,-634 1663.61,-628.75 1663.61,-639.25"/>
<text text-anchor="middle" x="1574" y="-648" font-family="Times New Roman,serif" font-size="45.00" fill="darkmagenta"> &#160;&#160;0.077</text>
</g>
<!-- 1 -->
<g id="node4" class="node">
<title>1</title>
<g id="a_node4"><a xlink:href="Species_pathways\1.svg">
<polygon fill="none" stroke="black" points="2612,-815 2252,-815 2252,-455 2612,-455 2612,-815"/>
<image xlink:href="000001.png" width="348.966px" height="360px" preserveAspectRatio="xMinYMin meet" x="2257.52" y="-815"/>
</a>
</g>
</g>
<!-- 0&#45;&gt;1 -->
<g id="edge3" class="edge">
<title>0&#45;&gt;1</title>
<path fill="none" stroke="darkmagenta" stroke-width="9" d="M2040.18,-634.31C2102.05,-634.42 2171.68,-634.55 2234.84,-634.66"/>
<polygon fill="darkmagenta" stroke="darkmagenta" stroke-width="9" points="2234.6,-642.54 2244.61,-634.69 2234.62,-626.79 2234.6,-642.54"/>
<text text-anchor="middle" x="2146" y="-648" font-family="Times New Roman,serif" font-size="45.00" fill="darkmagenta"> &#160;&#160;0.273</text>
</g>
<!-- 34 -->
<g id="node5" class="node">
<title>34</title>
<g id="a_node5"><a xlink:href="Species_pathways\34.svg">
<polygon fill="none" stroke="black" points="3184,-817 2824,-817 2824,-457 3184,-457 3184,-817"/>
<image xlink:href="100010.png" width="348.923px" height="360px" preserveAspectRatio="xMinYMin meet" x="2829.54" y="-817"/>
</a>
</g>
</g>
<!-- 1&#45;&gt;34 -->
<g id="edge4" class="edge">
<title>1&#45;&gt;34</title>
<path fill="none" stroke="darkmagenta" stroke-width="9" d="M2612.18,-635.63C2674.05,-635.85 2743.68,-636.09 2806.84,-636.31"/>
<polygon fill="darkmagenta" stroke="darkmagenta" stroke-width="9" points="2806.58,-644.21 2816.61,-636.37 2806.64,-628.46 2806.58,-644.21"/>
<text text-anchor="middle" x="2718" y="-650" font-family="Times New Roman,serif" font-size="45.00" fill="darkmagenta"> &#160;&#160;0.278</text>
</g>
<!-- 50 -->
<g id="node6" class="node">
<title>50</title>
<g id="a_node6"><a xlink:href="Species_pathways\50.svg">
<polygon fill="none" stroke="black" points="3756,-821 3396,-821 3396,-461 3756,-461 3756,-821"/>
<image xlink:href="110010.png" width="294.059px" height="360px" preserveAspectRatio="xMinYMin meet" x="3428.97" y="-821"/>
</a>
</g>
</g>
<!-- 34&#45;&gt;50 -->
<g id="edge5" class="edge">
<title>34&#45;&gt;50</title>
<path fill="none" stroke="darkmagenta" stroke-width="11" d="M3184.18,-638.26C3246.05,-638.69 3315.68,-639.18 3378.84,-639.62"/>
<polygon fill="darkmagenta" stroke="darkmagenta" stroke-width="11" points="3378.54,-649.3 3388.61,-639.74 3378.68,-630.05 3378.54,-649.3"/>
<text text-anchor="middle" x="3290" y="-653" font-family="Times New Roman,serif" font-size="45.00" fill="darkmagenta"> &#160;&#160;0.996</text>
</g>
<!-- 42 -->
<g id="node7" class="node">
<title>42</title>
<g id="a_node7"><a xlink:href="Species_pathways\42.svg">
<polygon fill="none" stroke="black" points="4328,-828 3968,-828 3968,-468 4328,-468 4328,-828"/>
<image xlink:href="101010.png" width="333.613px" height="360px" preserveAspectRatio="xMinYMin meet" x="3981.19" y="-828"/>
</a>
</g>
</g>
<!-- 50&#45;&gt;42 -->
<g id="edge6" class="edge">
<title>50&#45;&gt;42</title>
<path fill="none" stroke="darkmagenta" stroke-width="10" d="M3756.18,-643.2C3818.05,-643.96 3887.68,-644.82 3950.84,-645.59"/>
<polygon fill="darkmagenta" stroke="darkmagenta" stroke-width="10" points="3950.5,-654.42 3960.61,-645.8 3950.72,-636.92 3950.5,-654.42"/>
<text text-anchor="middle" x="3862" y="-659" font-family="Times New Roman,serif" font-size="45.00" fill="darkmagenta"> &#160;&#160;0.493</text>
</g>
<!-- 58 -->
<g id="node8" class="node">
<title>58</title>
<g id="a_node8"><a xlink:href="Species_pathways\58.svg">
<polygon fill="none" stroke="black" points="4328,-360 3968,-360 3968,0 4328,0 4328,-360"/>
<image xlink:href="111010.png" width="305.152px" height="360px" preserveAspectRatio="xMinYMin meet" x="3995.42" y="-360"/>
</a>
</g>
</g>
<!-- 42&#45;&gt;58 -->
<g id="edge7" class="edge">
<title>42&#45;&gt;58</title>
<path fill="none" stroke="darkmagenta" stroke-dasharray="5,2" d="M4148,-467.82C4148,-436.13 4148,-403.05 4148,-371.07"/>
<polygon fill="darkmagenta" stroke="darkmagenta" points="4151.5,-371.27 4148,-361.27 4144.5,-371.27 4151.5,-371.27"/>
<text text-anchor="middle" x="4120" y="-403" font-family="Times New Roman,serif" font-size="45.00" fill="darkmagenta"> &#160;&#160;&#160;&#160;&#160;&#160;&#160;&#160;&#160;&#160;&#160;&#160;&#160;&#160;&#160;&#160;&#160;&#160;&#160;0.002*</text>
</g>
<!-- 59 -->
<g id="node9" class="node">
<title>59</title>
<g id="a_node9"><a xlink:href="Species_pathways\59.svg">
<polygon fill="none" stroke="black" points="3756,-400 3396,-400 3396,-40 3756,-40 3756,-400"/>
<image xlink:href="111011.png" width="320.357px" height="360px" preserveAspectRatio="xMinYMin meet" x="3415.82" y="-400"/>
</a>
</g>
</g>
<!-- 59&#45;&gt;58 -->
<g id="edge8" class="edge">
<title>59&#45;&gt;58</title>
<path fill="none" stroke="darkmagenta" stroke-width="8" d="M3772.14,-206.31C3835.5,-201.86 3905.46,-196.95 3967.61,-192.59"/>
<polygon fill="darkmagenta" stroke="darkmagenta" stroke-width="8" points="3771.66,-199.74 3762.18,-207.43 3772.64,-213.71 3771.66,-199.74"/>
<text text-anchor="middle" x="3862" y="-219" font-family="Times New Roman,serif" font-size="45.00" fill="darkmagenta"> &#160;&#160;0.240</text>
</g>
<!-- 51 -->
<g id="node10" class="node">
<title>51</title>
<g id="a_node10"><a xlink:href="Species_pathways\51.svg">
<polygon fill="none" stroke="black" points="3184,-400 2824,-400 2824,-40 3184,-40 3184,-400"/>
<image xlink:href="110011.png" width="303.488px" height="360px" preserveAspectRatio="xMinYMin meet" x="2852.26" y="-400"/>
</a>
</g>
</g>
<!-- 51&#45;&gt;59 -->
<g id="edge9" class="edge">
<title>51&#45;&gt;59</title>
<path fill="none" stroke="darkmagenta" stroke-width="8" d="M3200.14,-220C3263.5,-220 3333.46,-220 3395.61,-220"/>
<polygon fill="darkmagenta" stroke="darkmagenta" stroke-width="8" points="3200.18,-213 3190.18,-220 3200.18,-227 3200.18,-213"/>
<text text-anchor="middle" x="3290" y="-234" font-family="Times New Roman,serif" font-size="45.00" fill="darkmagenta"> &#160;&#160;0.240</text>
</g>
<!-- 21 -->
<g id="node11" class="node">
<title>21</title>
<g id="a_node11"><a xlink:href="Species_pathways\21.svg">
<polygon fill="none" stroke="black" points="2612,-400 2252,-400 2252,-40 2612,-40 2612,-400"/>
<image xlink:href="010101.png" width="351.193px" height="360px" preserveAspectRatio="xMinYMin meet" x="2256.4" y="-400"/>
</a>
</g>
</g>
<!-- 21&#45;&gt;51 -->
<g id="edge10" class="edge">
<title>21&#45;&gt;51</title>
<path fill="none" stroke="darkmagenta" stroke-width="6" d="M2628.14,-220C2691.5,-220 2761.46,-220 2823.61,-220"/>
<polygon fill="darkmagenta" stroke="darkmagenta" stroke-width="6" points="2628.18,-214.75 2618.18,-220 2628.18,-225.25 2628.18,-214.75"/>
<text text-anchor="middle" x="2718" y="-234" font-family="Times New Roman,serif" font-size="45.00" fill="darkmagenta"> &#160;&#160;0.081</text>
</g>
<!-- 17 -->
<g id="node12" class="node">
<title>17</title>
<g id="a_node12"><a xlink:href="Species_pathways\17.svg">
<polygon fill="none" stroke="black" points="2040,-400 1680,-400 1680,-40 2040,-40 2040,-400"/>
<image xlink:href="010001.png" width="353.712px" height="360px" preserveAspectRatio="xMinYMin meet" x="1683.14" y="-400"/>
</a>
</g>
</g>
<!-- 17&#45;&gt;21 -->
<g id="edge11" class="edge">
<title>17&#45;&gt;21</title>
<path fill="none" stroke="darkmagenta" stroke-width="4" d="M2056.14,-220C2119.5,-220 2189.46,-220 2251.61,-220"/>
<polygon fill="darkmagenta" stroke="darkmagenta" stroke-width="4" points="2056.18,-216.5 2046.18,-220 2056.18,-223.5 2056.18,-216.5"/>
<text text-anchor="middle" x="2146" y="-234" font-family="Times New Roman,serif" font-size="45.00" fill="darkmagenta"> &#160;&#160;0.033</text>
</g>
<!-- 16&#45;&gt;17 -->
<g id="edge12" class="edge">
<title>16&#45;&gt;17</title>
<path fill="none" stroke="darkmagenta" stroke-width="14" d="M1486.96,-220C1549.57,-220 1618.38,-220 1679.61,-220"/>
<polygon fill="darkmagenta" stroke="darkmagenta" stroke-width="14" points="1487.18,-207.75 1477.18,-220 1487.18,-232.25 1487.18,-207.75"/>
<text text-anchor="middle" x="1574" y="-234" font-family="Times New Roman,serif" font-size="45.00" fill="darkmagenta"> &#160;&#160;22.581</text>
</g>
<!-- Original -->
<g id="node14" class="node">
<title>Original</title>
<g id="a_node14"><a xlink:href="pathway_visualization.svg" xlink:title="All Pathways">
<polygon fill="grey" stroke="black" points="288,-462 0,-462 0,-390 288,-390 288,-462"/>
<text text-anchor="middle" x="144" y="-415" font-family="Times New Roman,serif" font-size="45.00" fill="white">All Pathways</text>
</a>
</g>
</g>
<!-- Original&#45;&gt;48 -->
<g id="edge14" class="edge">
<title>Original&#45;&gt;48</title>
</g>
</g>
</svg>
