<?xml version="1.0" encoding="UTF-8" standalone="no"?>
<!DOCTYPE svg PUBLIC "-//W3C//DTD SVG 1.1//EN"
 "http://www.w3.org/Graphics/SVG/1.1/DTD/svg11.dtd">
<!-- Generated by graphviz version 8.0.3 (20230416.2022)
 -->
<!-- Title: G Pages: 1 -->
<svg width="640pt" height="162pt"
 viewBox="0.00 0.00 720.00 182.49" xmlns="http://www.w3.org/2000/svg" xmlns:xlink="http://www.w3.org/1999/xlink">
<g id="graph0" class="graph" transform="scale(0.170032 0.170032) rotate(0) translate(4 950)">
<title>G</title>
<polygon fill="white" stroke="none" points="-4,4 -4,-950 3760,-950 3760,4 -4,4"/>
<text text-anchor="middle" x="1878" y="-862" font-family="Arial" font-size="100.00" fill="blue">Pathway 9</text>
<!-- 34 -->
<g id="node1" class="node">
<title>34</title>
<g id="a_node1"><a xlink:href="Species_pathways\34.svg">
<polygon fill="none" stroke="black" points="896,-606 536,-606 536,-246 896,-246 896,-606"/>
<image xlink:href="100010.png" width="348.923px" height="360px" preserveAspectRatio="xMinYMin meet" x="541.538" y="-606"/>
</a>
</g>
</g>
<!-- 50 -->
<g id="node2" class="node">
<title>50</title>
<g id="a_node2"><a xlink:href="Species_pathways\50.svg">
<polygon fill="none" stroke="black" points="1468,-814 1108,-814 1108,-454 1468,-454 1468,-814"/>
<image xlink:href="110010.png" width="294.059px" height="360px" preserveAspectRatio="xMinYMin meet" x="1140.97" y="-814"/>
</a>
</g>
</g>
<!-- 34&#45;&gt;50 -->
<g id="edge1" class="edge">
<title>34&#45;&gt;50</title>
<path fill="none" stroke="darkgoldenrod" stroke-width="11" d="M896.18,-491.38C958.32,-514.06 1028.27,-539.59 1091.65,-562.71"/>
<polygon fill="darkgoldenrod" stroke="darkgoldenrod" stroke-width="11" points="1087.92,-572.15 1100.61,-566.54 1094.52,-554.07 1087.92,-572.15"/>
<text text-anchor="middle" x="1002" y="-568" font-family="Times New Roman,serif" font-size="45.00" fill="darkgoldenrod"> &#160;&#160;0.996</text>
</g>
<!-- 42 -->
<g id="node11" class="node">
<title>42</title>
<g id="a_node11"><a xlink:href="Species_pathways\42.svg">
<polygon fill="none" stroke="black" points="1468,-400 1108,-400 1108,-40 1468,-40 1468,-400"/>
<image xlink:href="101010.png" width="333.613px" height="360px" preserveAspectRatio="xMinYMin meet" x="1121.19" y="-400"/>
</a>
</g>
</g>
<!-- 34&#45;&gt;42 -->
<g id="edge11" class="edge">
<title>34&#45;&gt;42</title>
<path fill="none" stroke="darkgoldenrod" stroke-width="11" d="M912.14,-355.48C975.5,-332.58 1045.46,-307.29 1107.61,-284.83"/>
<polygon fill="darkgoldenrod" stroke="darkgoldenrod" stroke-width="11" points="909.31,-346.79 903.18,-359.24 915.85,-364.9 909.31,-346.79"/>
<text text-anchor="middle" x="1002" y="-362" font-family="Times New Roman,serif" font-size="45.00" fill="darkgoldenrod"> &#160;&#160;0.946</text>
</g>
<!-- 20 -->
<g id="node3" class="node">
<title>20</title>
<g id="a_node3"><a xlink:href="Species_pathways\20.svg">
<polygon fill="none" stroke="black" points="2040,-815 1680,-815 1680,-455 2040,-455 2040,-815"/>
<image xlink:href="010100.png" width="347.634px" height="360px" preserveAspectRatio="xMinYMin meet" x="1686.18" y="-815"/>
</a>
</g>
</g>
<!-- 50&#45;&gt;20 -->
<g id="edge2" class="edge">
<title>50&#45;&gt;20</title>
<path fill="none" stroke="darkgoldenrod" stroke-width="12" d="M1468.18,-634.31C1529.66,-634.42 1598.79,-634.54 1661.63,-634.65"/>
<polygon fill="darkgoldenrod" stroke="darkgoldenrod" stroke-width="12" points="1661.59,-645.17 1671.61,-634.69 1661.63,-624.17 1661.59,-645.17"/>
<text text-anchor="middle" x="1574" y="-648" font-family="Times New Roman,serif" font-size="45.00" fill="darkgoldenrod"> &#160;&#160;1.084</text>
</g>
<!-- 16 -->
<g id="node4" class="node">
<title>16</title>
<g id="a_node4"><a xlink:href="Species_pathways\16.svg">
<polygon fill="none" stroke="black" points="2612,-817 2252,-817 2252,-457 2612,-457 2612,-817"/>
<image xlink:href="010000.png" width="338.644px" height="360px" preserveAspectRatio="xMinYMin meet" x="2262.68" y="-817"/>
</a>
</g>
</g>
<!-- 20&#45;&gt;16 -->
<g id="edge3" class="edge">
<title>20&#45;&gt;16</title>
<path fill="none" stroke="darkgoldenrod" stroke-width="12" d="M2040.18,-635.63C2101.66,-635.84 2170.79,-636.09 2233.63,-636.31"/>
<polygon fill="darkgoldenrod" stroke="darkgoldenrod" stroke-width="12" points="2233.57,-646.84 2243.61,-636.37 2233.65,-625.84 2233.57,-646.84"/>
<text text-anchor="middle" x="2146" y="-650" font-family="Times New Roman,serif" font-size="45.00" fill="darkgoldenrod"> &#160;&#160;1.155</text>
</g>
<!-- 24 -->
<g id="node5" class="node">
<title>24</title>
<g id="a_node5"><a xlink:href="Species_pathways\24.svg">
<polygon fill="none" stroke="black" points="3184,-821 2824,-821 2824,-461 3184,-461 3184,-821"/>
<image xlink:href="011000.png" width="360px" height="350.182px" preserveAspectRatio="xMinYMin meet" x="2824" y="-816.091"/>
</a>
</g>
</g>
<!-- 16&#45;&gt;24 -->
<g id="edge4" class="edge">
<title>16&#45;&gt;24</title>
<path fill="none" stroke="darkgoldenrod" stroke-width="14" d="M2612.18,-638.26C2673.39,-638.69 2742.2,-639.17 2804.83,-639.61"/>
<polygon fill="darkgoldenrod" stroke="darkgoldenrod" stroke-width="14" points="2804.52,-651.92 2814.61,-639.74 2804.7,-627.42 2804.52,-651.92"/>
<text text-anchor="middle" x="2718" y="-653" font-family="Times New Roman,serif" font-size="45.00" fill="darkgoldenrod"> &#160;&#160;23.588</text>
</g>
<!-- 25 -->
<g id="node6" class="node">
<title>25</title>
<g id="a_node6"><a xlink:href="Species_pathways\25.svg">
<polygon fill="none" stroke="black" points="3756,-828 3396,-828 3396,-468 3756,-468 3756,-828"/>
<image xlink:href="011001.png" width="360px" height="346.087px" preserveAspectRatio="xMinYMin meet" x="3396" y="-821.043"/>
</a>
</g>
</g>
<!-- 24&#45;&gt;25 -->
<g id="edge5" class="edge">
<title>24&#45;&gt;25</title>
<path fill="none" stroke="darkgoldenrod" stroke-width="14" d="M3184.18,-643.2C3245.39,-643.95 3314.2,-644.8 3376.83,-645.57"/>
<polygon fill="darkgoldenrod" stroke="darkgoldenrod" stroke-width="14" points="3376.46,-657.92 3386.61,-645.8 3376.76,-633.43 3376.46,-657.92"/>
<text text-anchor="middle" x="3290" y="-659" font-family="Times New Roman,serif" font-size="45.00" fill="darkgoldenrod"> &#160;&#160;23.269</text>
</g>
<!-- 58 -->
<g id="node7" class="node">
<title>58</title>
<g id="a_node7"><a xlink:href="Species_pathways\58.svg">
<polygon fill="none" stroke="black" points="3756,-360 3396,-360 3396,0 3756,0 3756,-360"/>
<image xlink:href="111010.png" width="305.152px" height="360px" preserveAspectRatio="xMinYMin meet" x="3423.42" y="-360"/>
</a>
</g>
</g>
<!-- 25&#45;&gt;58 -->
<g id="edge6" class="edge">
<title>25&#45;&gt;58</title>
<path fill="none" stroke="darkgoldenrod" stroke-width="14" d="M3576,-467.82C3576,-438.75 3576,-408.5 3576,-379.02"/>
<polygon fill="darkgoldenrod" stroke="darkgoldenrod" stroke-width="14" points="3588.25,-379.27 3576,-369.27 3563.75,-379.27 3588.25,-379.27"/>
<text text-anchor="middle" x="3548" y="-403" font-family="Times New Roman,serif" font-size="45.00" fill="darkgoldenrod"> &#160;&#160;&#160;&#160;&#160;&#160;&#160;&#160;&#160;&#160;&#160;&#160;&#160;&#160;&#160;&#160;&#160;&#160;&#160;&#160;23.363</text>
</g>
<!-- 59 -->
<g id="node8" class="node">
<title>59</title>
<g id="a_node8"><a xlink:href="Species_pathways\59.svg">
<polygon fill="none" stroke="black" points="3184,-400 2824,-400 2824,-40 3184,-40 3184,-400"/>
<image xlink:href="111011.png" width="320.357px" height="360px" preserveAspectRatio="xMinYMin meet" x="2843.82" y="-400"/>
</a>
</g>
</g>
<!-- 59&#45;&gt;58 -->
<g id="edge7" class="edge">
<title>59&#45;&gt;58</title>
<path fill="none" stroke="darkgoldenrod" stroke-width="8" d="M3200.14,-206.31C3263.5,-201.86 3333.46,-196.95 3395.61,-192.59"/>
<polygon fill="darkgoldenrod" stroke="darkgoldenrod" stroke-width="8" points="3199.66,-199.74 3190.18,-207.43 3200.64,-213.71 3199.66,-199.74"/>
<text text-anchor="middle" x="3290" y="-219" font-family="Times New Roman,serif" font-size="45.00" fill="darkgoldenrod"> &#160;&#160;0.240</text>
</g>
<!-- 51 -->
<g id="node9" class="node">
<title>51</title>
<g id="a_node9"><a xlink:href="Species_pathways\51.svg">
<polygon fill="none" stroke="black" points="2612,-400 2252,-400 2252,-40 2612,-40 2612,-400"/>
<image xlink:href="110011.png" width="303.488px" height="360px" preserveAspectRatio="xMinYMin meet" x="2280.26" y="-400"/>
</a>
</g>
</g>
<!-- 51&#45;&gt;59 -->
<g id="edge8" class="edge">
<title>51&#45;&gt;59</title>
<path fill="none" stroke="darkgoldenrod" stroke-width="8" d="M2628.14,-220C2691.5,-220 2761.46,-220 2823.61,-220"/>
<polygon fill="darkgoldenrod" stroke="darkgoldenrod" stroke-width="8" points="2628.18,-213 2618.18,-220 2628.18,-227 2628.18,-213"/>
<text text-anchor="middle" x="2718" y="-234" font-family="Times New Roman,serif" font-size="45.00" fill="darkgoldenrod"> &#160;&#160;0.240</text>
</g>
<!-- 43 -->
<g id="node10" class="node">
<title>43</title>
<g id="a_node10"><a xlink:href="Species_pathways\43.svg">
<polygon fill="none" stroke="black" points="2040,-400 1680,-400 1680,-40 2040,-40 2040,-400"/>
<image xlink:href="101011.png" width="338.543px" height="360px" preserveAspectRatio="xMinYMin meet" x="1690.73" y="-400"/>
</a>
</g>
</g>
<!-- 43&#45;&gt;51 -->
<g id="edge9" class="edge">
<title>43&#45;&gt;51</title>
<path fill="none" stroke="darkgoldenrod" stroke-width="4" d="M2056.14,-220C2119.5,-220 2189.46,-220 2251.61,-220"/>
<polygon fill="darkgoldenrod" stroke="darkgoldenrod" stroke-width="4" points="2056.18,-216.5 2046.18,-220 2056.18,-223.5 2056.18,-216.5"/>
<text text-anchor="middle" x="2146" y="-234" font-family="Times New Roman,serif" font-size="45.00" fill="darkgoldenrod"> &#160;&#160;0.037</text>
</g>
<!-- 42&#45;&gt;43 -->
<g id="edge10" class="edge">
<title>42&#45;&gt;43</title>
<path fill="none" stroke="darkgoldenrod" stroke-width="3" stroke-dasharray="5,2" d="M1482.12,-220C1546.01,-220 1616.8,-220 1679.61,-220"/>
<polygon fill="darkgoldenrod" stroke="darkgoldenrod" stroke-width="3" points="1482.18,-216.5 1472.18,-220 1482.18,-223.5 1482.18,-216.5"/>
<text text-anchor="middle" x="1574" y="-234" font-family="Times New Roman,serif" font-size="45.00" fill="darkgoldenrod"> &#160;&#160;0.016*</text>
</g>
<!-- Original -->
<g id="node12" class="node">
<title>Original</title>
<g id="a_node12"><a xlink:href="pathway_visualization.svg" xlink:title="All Pathways">
<polygon fill="grey" stroke="black" points="288,-462 0,-462 0,-390 288,-390 288,-462"/>
<text text-anchor="middle" x="144" y="-415" font-family="Times New Roman,serif" font-size="45.00" fill="white">All Pathways</text>
</a>
</g>
</g>
<!-- Original&#45;&gt;34 -->
<g id="edge12" class="edge">
<title>Original&#45;&gt;34</title>
</g>
</g>
</svg>
