<?xml version="1.0" encoding="UTF-8" standalone="no"?>
<!DOCTYPE svg PUBLIC "-//W3C//DTD SVG 1.1//EN"
 "http://www.w3.org/Graphics/SVG/1.1/DTD/svg11.dtd">
<!-- Generated by graphviz version 8.0.3 (20230416.2022)
 -->
<!-- Title: G Pages: 1 -->
<svg width="640pt" height="125pt"
 viewBox="0.00 0.00 720.00 140.62" xmlns="http://www.w3.org/2000/svg" xmlns:xlink="http://www.w3.org/1999/xlink">
<g id="graph0" class="graph" transform="scale(0.110612 0.110612) rotate(0) translate(4 1126)">
<title>G</title>
<polygon fill="white" stroke="none" points="-4,4 -4,-1126 5782,-1126 5782,4 -4,4"/>
<text text-anchor="middle" x="2889" y="-1038" font-family="Arial" font-size="100.00" fill="blue">Cl: 1 H: 0</text>
<!-- 24 -->
<g id="node1" class="node">
<title>24</title>
<g id="a_node1"><a xlink:href="Species_pathways\24.svg">
<polygon fill="none" stroke="black" points="360,-377 0,-377 0,-17 360,-17 360,-377"/>
<image xlink:href="011000.png" width="360px" height="350.182px" preserveAspectRatio="xMinYMin meet" x="0" y="-372.091"/>
</a>
</g>
</g>
<!-- 25 -->
<g id="node2" class="node">
<title>25</title>
<g id="a_node2"><a xlink:href="Species_pathways\25.svg">
<polygon fill="none" stroke="black" points="1134,-579 774,-579 774,-219 1134,-219 1134,-579"/>
<image xlink:href="011001.png" width="360px" height="346.087px" preserveAspectRatio="xMinYMin meet" x="774" y="-572.043"/>
</a>
</g>
</g>
<!-- 24&#45;&gt;25 -->
<g id="edge1" class="edge">
<title>24&#45;&gt;25</title>
<path fill="none" stroke="chocolate" stroke-width="14" d="M360.19,-276.2C401.59,-292.41 445.86,-308.13 488,-320 574.19,-344.29 671.59,-362.24 754.9,-374.84"/>
<polygon fill="chocolate" stroke="chocolate" stroke-width="14" points="753.86,-387.26 765.55,-376.61 757.46,-363.02 753.86,-387.26"/>
<text text-anchor="middle" x="567" y="-369" font-family="Times New Roman,serif" font-size="45.00" fill="chocolate"> &#160;&#160;23.269</text>
</g>
<!-- 24&#45;&gt;25 -->
<g id="edge10" class="edge">
<title>24&#45;&gt;25</title>
<path fill="none" stroke="crimson" stroke-width="14" d="M360.24,-207.31C447.71,-215.56 553.71,-230.38 646,-257 682.78,-267.61 720.73,-282.02 756.87,-297.61"/>
<polygon fill="crimson" stroke="crimson" stroke-width="14" points="751.81,-309.28 765.89,-302.09 761.67,-286.85 751.81,-309.28"/>
<text text-anchor="middle" x="567" y="-271" font-family="Times New Roman,serif" font-size="45.00" fill="crimson"> &#160;&#160;23.269</text>
</g>
<!-- 58 -->
<g id="node3" class="node">
<title>58</title>
<g id="a_node3"><a xlink:href="Species_pathways\58.svg">
<polygon fill="none" stroke="black" points="1908,-767 1548,-767 1548,-407 1908,-407 1908,-767"/>
<image xlink:href="111010.png" width="305.152px" height="360px" preserveAspectRatio="xMinYMin meet" x="1575.42" y="-767"/>
</a>
</g>
</g>
<!-- 25&#45;&gt;58 -->
<g id="edge2" class="edge">
<title>25&#45;&gt;58</title>
<path fill="none" stroke="chocolate" stroke-width="14" d="M1134.14,-503.47C1174.98,-523.1 1219.03,-541.16 1262,-553 1347.52,-576.57 1445.03,-586.19 1528.6,-589.49"/>
<polygon fill="chocolate" stroke="chocolate" stroke-width="14" points="1528.17,-602.04 1538.58,-590.14 1529.01,-577.55 1528.17,-602.04"/>
<text text-anchor="middle" x="1341" y="-594" font-family="Times New Roman,serif" font-size="45.00" fill="chocolate"> &#160;&#160;23.363</text>
</g>
<!-- 25&#45;&gt;58 -->
<g id="edge11" class="edge">
<title>25&#45;&gt;58</title>
<path fill="none" stroke="crimson" stroke-width="14" d="M1134.36,-429.22C1221.15,-445.08 1326.54,-466.17 1420,-490 1455.84,-499.14 1493.66,-510.03 1530.05,-521.17"/>
<polygon fill="crimson" stroke="crimson" stroke-width="14" points="1526.61,-533.4 1539.78,-524.64 1533.85,-509.99 1526.61,-533.4"/>
<text text-anchor="middle" x="1341" y="-504" font-family="Times New Roman,serif" font-size="45.00" fill="crimson"> &#160;&#160;23.363</text>
</g>
<!-- 25&#45;&gt;58 -->
<g id="edge20" class="edge">
<title>25&#45;&gt;58</title>
<path fill="none" stroke="darkblue" stroke-width="14" d="M1134.38,-371.95C1222.13,-364.81 1328.32,-365.35 1420,-392 1458.12,-403.08 1496.03,-420.48 1531.54,-440.43"/>
<polygon fill="darkblue" stroke="darkblue" stroke-width="14" points="1525.89,-451.36 1540.68,-445.76 1538.15,-430.15 1525.89,-451.36"/>
<text text-anchor="middle" x="1341" y="-406" font-family="Times New Roman,serif" font-size="45.00" fill="darkblue"> &#160;&#160;23.363</text>
</g>
<!-- 50 -->
<g id="node4" class="node">
<title>50</title>
<g id="a_node4"><a xlink:href="Species_pathways\50.svg">
<polygon fill="none" stroke="black" points="3069,-1004 2709,-1004 2709,-644 3069,-644 3069,-1004"/>
<image xlink:href="110010.png" width="294.059px" height="360px" preserveAspectRatio="xMinYMin meet" x="2741.97" y="-1004"/>
</a>
</g>
</g>
<!-- 58&#45;&gt;50 -->
<g id="edge3" class="edge">
<title>58&#45;&gt;50</title>
<path fill="none" stroke="chocolate" stroke-width="14" d="M1908.25,-652.33C2024.65,-692.17 2180.49,-740.71 2322,-769 2442.92,-793.17 2580.57,-806.85 2689.85,-814.52"/>
<polygon fill="chocolate" stroke="chocolate" stroke-width="14" points="2688.72,-827.33 2699.53,-815.79 2690.38,-802.89 2688.72,-827.33"/>
<text text-anchor="middle" x="2115" y="-752" font-family="Times New Roman,serif" font-size="45.00" fill="chocolate"> &#160;&#160;23.108</text>
</g>
<!-- 59 -->
<g id="node8" class="node">
<title>59</title>
<g id="a_node8"><a xlink:href="Species_pathways\59.svg">
<polygon fill="none" stroke="black" points="2682,-742 2322,-742 2322,-382 2682,-382 2682,-742"/>
<image xlink:href="111011.png" width="320.357px" height="360px" preserveAspectRatio="xMinYMin meet" x="2341.82" y="-742"/>
</a>
</g>
</g>
<!-- 58&#45;&gt;59 -->
<g id="edge12" class="edge">
<title>58&#45;&gt;59</title>
<path fill="none" stroke="crimson" stroke-width="8" d="M1908.46,-586.12C1994.81,-585.23 2099.8,-583.47 2194,-580 2230.18,-578.67 2268.73,-576.78 2305.87,-574.72"/>
<polygon fill="crimson" stroke="crimson" stroke-width="8" points="2306.09,-581.38 2315.68,-573.83 2305.3,-567.4 2306.09,-581.38"/>
<text text-anchor="middle" x="2115" y="-598" font-family="Times New Roman,serif" font-size="45.00" fill="crimson"> &#160;&#160;0.240</text>
</g>
<!-- 58&#45;&gt;59 -->
<g id="edge15" class="edge">
<title>58&#45;&gt;59</title>
<path fill="none" stroke="darkblue" stroke-width="8" d="M1908.44,-539.01C1950.02,-529.86 1994.31,-521.69 2036,-517 2124.59,-507.03 2222.82,-513.91 2306.09,-525.02"/>
<polygon fill="darkblue" stroke="darkblue" stroke-width="8" points="2304.86,-532.75 2315.73,-527.18 2306.78,-518.88 2304.86,-532.75"/>
<text text-anchor="middle" x="2115" y="-531" font-family="Times New Roman,serif" font-size="45.00" fill="darkblue"> &#160;&#160;0.240</text>
</g>
<!-- 20 -->
<g id="node5" class="node">
<title>20</title>
<g id="a_node5"><a xlink:href="Species_pathways\20.svg">
<polygon fill="none" stroke="black" points="5004,-993 4644,-993 4644,-633 5004,-633 5004,-993"/>
<image xlink:href="010100.png" width="347.634px" height="360px" preserveAspectRatio="xMinYMin meet" x="4650.18" y="-993"/>
</a>
</g>
</g>
<!-- 50&#45;&gt;20 -->
<g id="edge4" class="edge">
<title>50&#45;&gt;20</title>
<path fill="none" stroke="chocolate" stroke-width="12" stroke-dasharray="5,2" d="M3069.25,-822.98C3431.7,-820.92 4249.15,-816.27 4625.96,-814.12"/>
<polygon fill="chocolate" stroke="chocolate" stroke-width="12" points="4625.9,-824.58 4635.84,-814.02 4625.78,-803.58 4625.9,-824.58"/>
<text text-anchor="middle" x="3663" y="-833" font-family="Times New Roman,serif" font-size="45.00" fill="chocolate"> &#160;&#160;1.084*</text>
</g>
<!-- 16 -->
<g id="node6" class="node">
<title>16</title>
<g id="a_node6"><a xlink:href="Species_pathways\16.svg">
<polygon fill="none" stroke="black" points="5778,-360 5418,-360 5418,0 5778,0 5778,-360"/>
<image xlink:href="010000.png" width="338.644px" height="360px" preserveAspectRatio="xMinYMin meet" x="5428.68" y="-360"/>
</a>
</g>
</g>
<!-- 20&#45;&gt;16 -->
<g id="edge5" class="edge">
<title>20&#45;&gt;16</title>
<path fill="none" stroke="chocolate" stroke-width="12" d="M5004.49,-718.99C5094.32,-667.94 5202.22,-600.33 5289.5,-527 5343.61,-481.53 5396.78,-426.43 5443.29,-373.65"/>
<polygon fill="chocolate" stroke="chocolate" stroke-width="12" points="5451.29,-380.73 5449.97,-366.29 5435.48,-366.91 5451.29,-380.73"/>
<text text-anchor="middle" x="5211" y="-647" font-family="Times New Roman,serif" font-size="45.00" fill="chocolate"> &#160;&#160;1.155</text>
</g>
<!-- 20&#45;&gt;16 -->
<g id="edge8" class="edge">
<title>20&#45;&gt;16</title>
<path fill="none" stroke="crimson" stroke-width="12" stroke-dasharray="5,2" d="M4981.8,-632.75C5052.79,-551.55 5123.07,-471.92 5132.5,-464 5214.77,-394.89 5315.57,-331.16 5402.21,-281.66"/>
<polygon fill="crimson" stroke="crimson" stroke-width="12" points="5407.14,-290.96 5410.66,-276.9 5396.78,-272.7 5407.14,-290.96"/>
<text text-anchor="middle" x="5211" y="-478" font-family="Times New Roman,serif" font-size="45.00" fill="crimson"> &#160;&#160;1.155*</text>
</g>
<!-- 16&#45;&gt;24 -->
<g id="edge6" class="edge">
<title>16&#45;&gt;24</title>
<path fill="none" stroke="chocolate" stroke-width="14" d="M5417.77,-164.35C5261.4,-152.06 5028.37,-137 4825,-137 953,-137 953,-137 953,-137 757.45,-137 534.88,-156.37 379.13,-173.1"/>
<polygon fill="chocolate" stroke="chocolate" stroke-width="14" points="377.09,-161.87 368.47,-175.13 379.73,-186.23 377.09,-161.87"/>
<text text-anchor="middle" x="2889" y="-151" font-family="Times New Roman,serif" font-size="45.00" fill="chocolate"> &#160;&#160;23.588</text>
</g>
<!-- 16&#45;&gt;24 -->
<g id="edge9" class="edge">
<title>16&#45;&gt;24</title>
<path fill="none" stroke="crimson" stroke-width="14" d="M5417.66,-123.79C5262.45,-80.14 5031.15,-27 4825,-27 953,-27 953,-27 953,-27 753.99,-27 532.74,-81.55 378.29,-128.84"/>
<polygon fill="crimson" stroke="crimson" stroke-width="14" points="374.19,-117.76 368.26,-132.42 381.44,-141.17 374.19,-117.76"/>
<text text-anchor="middle" x="2889" y="-41" font-family="Times New Roman,serif" font-size="45.00" fill="crimson"> &#160;&#160;23.588</text>
</g>
<!-- 21 -->
<g id="node7" class="node">
<title>21</title>
<g id="a_node7"><a xlink:href="Species_pathways\21.svg">
<polygon fill="none" stroke="black" points="4230,-742 3870,-742 3870,-382 4230,-382 4230,-742"/>
<image xlink:href="010101.png" width="351.193px" height="360px" preserveAspectRatio="xMinYMin meet" x="3874.4" y="-742"/>
</a>
</g>
</g>
<!-- 21&#45;&gt;20 -->
<g id="edge7" class="edge">
<title>21&#45;&gt;20</title>
<path fill="none" stroke="crimson" stroke-width="6" d="M4230.05,-620.22C4349.35,-659 4506.09,-709.96 4628.46,-749.75"/>
<polygon fill="crimson" stroke="crimson" stroke-width="6" points="4626.45,-755.57 4637.58,-753.67 4629.7,-745.58 4626.45,-755.57"/>
<text text-anchor="middle" x="4437" y="-716" font-family="Times New Roman,serif" font-size="45.00" fill="crimson"> &#160;&#160;0.073</text>
</g>
<!-- 17 -->
<g id="node10" class="node">
<title>17</title>
<g id="a_node10"><a xlink:href="Species_pathways\17.svg">
<polygon fill="none" stroke="black" points="5004,-579 4644,-579 4644,-219 5004,-219 5004,-579"/>
<image xlink:href="010001.png" width="353.712px" height="360px" preserveAspectRatio="xMinYMin meet" x="4647.14" y="-579"/>
</a>
</g>
</g>
<!-- 21&#45;&gt;17 -->
<g id="edge18" class="edge">
<title>21&#45;&gt;17</title>
<path fill="none" stroke="darkblue" stroke-width="4" d="M4230.05,-524.19C4349.23,-499.03 4505.77,-465.98 4628.08,-440.15"/>
<polygon fill="darkblue" stroke="darkblue" stroke-width="4" points="4629.52,-443.37 4638.58,-437.88 4628.08,-436.52 4629.52,-443.37"/>
<text text-anchor="middle" x="4437" y="-504" font-family="Times New Roman,serif" font-size="45.00" fill="darkblue"> &#160;&#160;0.033</text>
</g>
<!-- 51 -->
<g id="node9" class="node">
<title>51</title>
<g id="a_node9"><a xlink:href="Species_pathways\51.svg">
<polygon fill="none" stroke="black" points="3456,-742 3096,-742 3096,-382 3456,-382 3456,-742"/>
<image xlink:href="110011.png" width="303.488px" height="360px" preserveAspectRatio="xMinYMin meet" x="3124.26" y="-742"/>
</a>
</g>
</g>
<!-- 59&#45;&gt;51 -->
<g id="edge13" class="edge">
<title>59&#45;&gt;51</title>
<path fill="none" stroke="crimson" stroke-width="8" d="M2682.05,-562C2801.11,-562 2957.45,-562 3079.71,-562"/>
<polygon fill="crimson" stroke="crimson" stroke-width="8" points="3079.58,-569 3089.58,-562 3079.58,-555 3079.58,-569"/>
<text text-anchor="middle" x="2889" y="-576" font-family="Times New Roman,serif" font-size="45.00" fill="crimson"> &#160;&#160;0.240</text>
</g>
<!-- 59&#45;&gt;51 -->
<g id="edge16" class="edge">
<title>59&#45;&gt;51</title>
<path fill="none" stroke="darkblue" stroke-width="8" d="M2682.32,-503.77C2691.29,-501.93 2700.22,-500.31 2709,-499 2867.24,-475.34 2910.76,-475.34 3069,-499 3072.71,-499.55 3076.44,-500.16 3080.19,-500.82"/>
<polygon fill="darkblue" stroke="darkblue" stroke-width="8" points="3078.55,-507.77 3089.68,-502.77 3081.17,-494.02 3078.55,-507.77"/>
<text text-anchor="middle" x="2889" y="-513" font-family="Times New Roman,serif" font-size="45.00" fill="darkblue"> &#160;&#160;0.240</text>
</g>
<!-- 51&#45;&gt;21 -->
<g id="edge14" class="edge">
<title>51&#45;&gt;21</title>
<path fill="none" stroke="crimson" stroke-width="6" d="M3456.05,-562C3575.11,-562 3731.45,-562 3853.71,-562"/>
<polygon fill="crimson" stroke="crimson" stroke-width="6" points="3853.58,-567.25 3863.58,-562 3853.58,-556.75 3853.58,-567.25"/>
<text text-anchor="middle" x="3663" y="-576" font-family="Times New Roman,serif" font-size="45.00" fill="crimson"> &#160;&#160;0.081</text>
</g>
<!-- 51&#45;&gt;21 -->
<g id="edge17" class="edge">
<title>51&#45;&gt;21</title>
<path fill="none" stroke="darkblue" stroke-width="6" stroke-dasharray="5,2" d="M3456.14,-518.96C3498.01,-510.67 3542.62,-503.25 3584.5,-499 3653.92,-491.96 3672.08,-491.96 3741.5,-499 3778.31,-502.73 3817.23,-508.92 3854.54,-515.99"/>
<polygon fill="darkblue" stroke="darkblue" stroke-width="6" points="3853.04,-521.21 3863.86,-517.96 3855.04,-510.9 3853.04,-521.21"/>
<text text-anchor="middle" x="3663" y="-513" font-family="Times New Roman,serif" font-size="45.00" fill="darkblue"> &#160;&#160;0.081*</text>
</g>
<!-- 17&#45;&gt;25 -->
<g id="edge19" class="edge">
<title>17&#45;&gt;25</title>
<path fill="none" stroke="darkblue" stroke-width="6" d="M4643.67,-362.84C4487.73,-334.56 4255.38,-300 4051,-300 1727,-300 1727,-300 1727,-300 1529.21,-300 1305.21,-332.37 1149.64,-360.09"/>
<polygon fill="darkblue" stroke="darkblue" stroke-width="6" points="1149.24,-354.9 1140.33,-361.84 1151.1,-365.24 1149.24,-354.9"/>
<text text-anchor="middle" x="2889" y="-314" font-family="Times New Roman,serif" font-size="45.00" fill="darkblue"> &#160;&#160;0.096</text>
</g>
</g>
</svg>
