<?xml version="1.0" encoding="UTF-8" standalone="no"?>
<!DOCTYPE svg PUBLIC "-//W3C//DTD SVG 1.1//EN"
 "http://www.w3.org/Graphics/SVG/1.1/DTD/svg11.dtd">
<!-- Generated by graphviz version 8.0.3 (20230416.2022)
 -->
<!-- Title: G Pages: 1 -->
<svg width="640pt" height="218pt"
 viewBox="0.00 0.00 720.00 245.39" xmlns="http://www.w3.org/2000/svg" xmlns:xlink="http://www.w3.org/1999/xlink">
<g id="graph0" class="graph" transform="scale(0.501961 0.501961) rotate(0) translate(4 430.55)">
<title>G</title>
<polygon fill="white" stroke="none" points="-4,4 -4,-430.55 1271,-430.55 1271,4 -4,4"/>
<text text-anchor="middle" x="633.5" y="-393.75" font-family="Arial" font-size="36.00" fill="blue">Reaction Path Analysis</text>
<!-- R105 -->
<g id="node1" class="node">
<title>R105</title>
<g id="a_node1"><a xlink:href="105.svg" xlink:title="R105">
<polygon fill="azure" stroke="none" points="685,-202.05 591,-202.05 591,-155.05 685,-155.05 685,-202.05"/>
<text text-anchor="middle" x="638" y="-170.05" font-family="Times New Roman,serif" font-size="35.00">R105</text>
</a>
</g>
</g>
<!-- R13 -->
<g id="node7" class="node">
<title>R13</title>
<g id="a_node7"><a xlink:href="13.svg" xlink:title="R13">
<polygon fill="azure" stroke="none" points="1267,-235.05 1191,-235.05 1191,-188.05 1267,-188.05 1267,-235.05"/>
<text text-anchor="middle" x="1229" y="-203.05" font-family="Times New Roman,serif" font-size="35.00">R13</text>
</a>
</g>
</g>
<!-- R105&#45;&gt;R13 -->
<g id="edge6" class="edge">
<title>R105&#45;&gt;R13</title>
<path fill="none" stroke="black" stroke-width="6" d="M684.83,-188.27C687.92,-188.76 691,-189.19 694,-189.55 866.44,-210.22 1072.18,-212.42 1170.35,-212.12"/>
<polygon fill="black" stroke="black" stroke-width="6" points="1165.32,-222.61 1185.26,-212.01 1165.21,-201.61 1165.32,-222.61"/>
<text text-anchor="middle" x="933.5" y="-220.55" font-family="Times New Roman,serif" font-size="30.00"> &#160;&#160;885 &#160;&#160;100% &#160;&#160;0.0103 mol/s &#160;&#160;&#160;4.15E&#45;05</text>
</g>
<!-- R16 -->
<g id="node8" class="node">
<title>R16</title>
<g id="a_node8"><a xlink:href="16.svg" xlink:title="R16">
<polygon fill="azure" stroke="none" points="1267,-170.05 1191,-170.05 1191,-123.05 1267,-123.05 1267,-170.05"/>
<text text-anchor="middle" x="1229" y="-138.05" font-family="Times New Roman,serif" font-size="35.00">R16</text>
</a>
</g>
</g>
<!-- R105&#45;&gt;R16 -->
<g id="edge7" class="edge">
<title>R105&#45;&gt;R16</title>
<path fill="none" stroke="black" stroke-width="6" d="M684.84,-158.82C687.91,-157.93 690.98,-157.16 694,-156.55 864.5,-122.06 1071.87,-132.75 1170.52,-140.92"/>
<polygon fill="black" stroke="black" stroke-width="6" points="1164.41,-151.45 1185.25,-142.74 1166.24,-130.53 1164.41,-151.45"/>
<text text-anchor="middle" x="933.5" y="-165.55" font-family="Times New Roman,serif" font-size="30.00"> &#160;&#160;885 &#160;&#160;100% &#160;&#160;0.0103 mol/s &#160;&#160;&#160;4.15E&#45;05</text>
</g>
<!-- R0 -->
<g id="node2" class="node">
<title>R0</title>
<g id="a_node2"><a xlink:href="0.svg" xlink:title="R0">
<polygon fill="azure" stroke="none" points="76,-332.05 18,-332.05 18,-285.05 76,-285.05 76,-332.05"/>
<text text-anchor="middle" x="47" y="-300.05" font-family="Times New Roman,serif" font-size="35.00">R0</text>
</a>
</g>
</g>
<!-- R0&#45;&gt;R105 -->
<g id="edge1" class="edge">
<title>R0&#45;&gt;R105</title>
<path fill="none" stroke="black" d="M75.77,-315.92C159.88,-336.55 416.23,-386.74 582,-281.55 606.34,-266.1 620.61,-236.03 628.49,-212.35"/>
<polygon fill="black" stroke="black" points="632.08,-213.58 631.67,-202.99 625.39,-211.53 632.08,-213.58"/>
<text text-anchor="middle" x="342.5" y="-354.55" font-family="Times New Roman,serif" font-size="30.00"> &#160;&#160;146 &#160;&#160;0% &#160;&#160;4.27e&#45;07 mol/s &#160;&#160;&#160;9.98E&#45;01</text>
</g>
<!-- R87 -->
<g id="node3" class="node">
<title>R87</title>
<g id="a_node3"><a xlink:href="87.svg" xlink:title="R87">
<polygon fill="azure" stroke="none" points="85,-267.05 9,-267.05 9,-220.05 85,-220.05 85,-267.05"/>
<text text-anchor="middle" x="47" y="-235.05" font-family="Times New Roman,serif" font-size="35.00">R87</text>
</a>
</g>
</g>
<!-- R87&#45;&gt;R105 -->
<g id="edge2" class="edge">
<title>R87&#45;&gt;R105</title>
<path fill="none" stroke="black" d="M84.95,-244.16C190.15,-245.49 489.65,-246.39 582,-215.55 587.94,-213.56 593.85,-210.75 599.46,-207.55"/>
<polygon fill="black" stroke="black" points="600.94,-210.13 607.58,-201.87 597.24,-204.18 600.94,-210.13"/>
<text text-anchor="middle" x="342.5" y="-253.55" font-family="Times New Roman,serif" font-size="30.00"> &#160;&#160;146 &#160;&#160;0% &#160;&#160;4.27e&#45;07 mol/s &#160;&#160;&#160;9.98E&#45;01</text>
</g>
<!-- R331 -->
<g id="node4" class="node">
<title>R331</title>
<g id="a_node4"><a xlink:href="331.svg" xlink:title="R331">
<polygon fill="azure" stroke="none" points="94,-202.05 0,-202.05 0,-155.05 94,-155.05 94,-202.05"/>
<text text-anchor="middle" x="47" y="-170.05" font-family="Times New Roman,serif" font-size="35.00">R331</text>
</a>
</g>
</g>
<!-- R331&#45;&gt;R105 -->
<g id="edge3" class="edge">
<title>R331&#45;&gt;R105</title>
<path fill="none" stroke="black" stroke-width="5" d="M93.73,-178.55C197.16,-178.55 449.47,-178.55 570.33,-178.55"/>
<polygon fill="black" stroke="black" stroke-width="5" points="565.3,-187.3 585.3,-178.55 565.3,-169.8 565.3,-187.3"/>
<text text-anchor="middle" x="342.5" y="-187.55" font-family="Times New Roman,serif" font-size="30.00"> &#160;&#160;555 &#160;&#160;99% &#160;&#160;57100.0 mol/s &#160;&#160;&#160;7.49E&#45;12</text>
</g>
<!-- R385 -->
<g id="node5" class="node">
<title>R385</title>
<g id="a_node5"><a xlink:href="385.svg" xlink:title="R385">
<polygon fill="azure" stroke="none" points="94,-137.05 0,-137.05 0,-90.05 94,-90.05 94,-137.05"/>
<text text-anchor="middle" x="47" y="-105.05" font-family="Times New Roman,serif" font-size="35.00">R385</text>
</a>
</g>
</g>
<!-- R385&#45;&gt;R105 -->
<g id="edge4" class="edge">
<title>R385&#45;&gt;R105</title>
<path fill="none" stroke="black" d="M93.81,-107.95C188.08,-98.12 409.41,-83.92 582,-141.55 587.94,-143.53 593.85,-146.35 599.46,-149.55"/>
<polygon fill="black" stroke="black" points="597.24,-152.92 607.58,-155.23 600.94,-146.97 597.24,-152.92"/>
<text text-anchor="middle" x="342.5" y="-150.55" font-family="Times New Roman,serif" font-size="30.00"> &#160;&#160;813 &#160;&#160;0% &#160;&#160;2.58e&#45;05 mol/s &#160;&#160;&#160;1.61E&#45;02</text>
</g>
<!-- R392 -->
<g id="node6" class="node">
<title>R392</title>
<g id="a_node6"><a xlink:href="392.svg" xlink:title="R392">
<polygon fill="azure" stroke="none" points="94,-72.05 0,-72.05 0,-25.05 94,-25.05 94,-72.05"/>
<text text-anchor="middle" x="47" y="-40.05" font-family="Times New Roman,serif" font-size="35.00">R392</text>
</a>
</g>
</g>
<!-- R392&#45;&gt;R105 -->
<g id="edge5" class="edge">
<title>R392&#45;&gt;R105</title>
<path fill="none" stroke="black" d="M93.75,-34.9C192.27,-8.45 428,38.87 582,-61.55 610.38,-80.06 624.42,-117.42 631.15,-144.97"/>
<polygon fill="black" stroke="black" points="627.88,-145.35 633.47,-154.35 634.71,-143.83 627.88,-145.35"/>
<text text-anchor="middle" x="342.5" y="-70.55" font-family="Times New Roman,serif" font-size="30.00"> &#160;&#160;860 &#160;&#160;0% &#160;&#160;0.0115 mol/s &#160;&#160;&#160;3.72E&#45;05</text>
</g>
</g>
</svg>
