<?xml version="1.0" encoding="UTF-8" standalone="no"?>
<!DOCTYPE svg PUBLIC "-//W3C//DTD SVG 1.1//EN"
 "http://www.w3.org/Graphics/SVG/1.1/DTD/svg11.dtd">
<!-- Generated by graphviz version 8.0.3 (20230416.2022)
 -->
<!-- Title: G Pages: 1 -->
<svg width="640pt" height="288pt"
 viewBox="0.00 0.00 720.00 323.60" xmlns="http://www.w3.org/2000/svg" xmlns:xlink="http://www.w3.org/1999/xlink">
<g id="graph0" class="graph" transform="scale(0.490421 0.490421) rotate(0) translate(4 582.53)">
<title>G</title>
<polygon fill="white" stroke="none" points="-4,4 -4,-582.53 1301,-582.53 1301,4 -4,4"/>
<text text-anchor="middle" x="648.5" y="-545.73" font-family="Arial" font-size="36.00" fill="blue">Reaction Path Analysis</text>
<!-- R119 -->
<g id="node1" class="node">
<title>R119</title>
<g id="a_node1"><a xlink:href="119.svg" xlink:title="R119">
<polygon fill="azure" stroke="none" points="700,-280.03 606,-280.03 606,-233.03 700,-233.03 700,-280.03"/>
<text text-anchor="middle" x="653" y="-248.03" font-family="Times New Roman,serif" font-size="35.00">R119</text>
</a>
</g>
</g>
<!-- R26 -->
<g id="node2" class="node">
<title>R26</title>
<g id="a_node2"><a xlink:href="26.svg" xlink:title="R26">
<polygon fill="azure" stroke="none" points="1297,-373.03 1221,-373.03 1221,-326.03 1297,-326.03 1297,-373.03"/>
<text text-anchor="middle" x="1259" y="-341.03" font-family="Times New Roman,serif" font-size="35.00">R26</text>
</a>
</g>
</g>
<!-- R119&#45;&gt;R26 -->
<g id="edge1" class="edge">
<title>R119&#45;&gt;R26</title>
<path fill="none" stroke="black" d="M669.97,-279.74C681.19,-293.95 697.53,-311.01 716.5,-319.53 884.78,-395.16 1112.7,-372.59 1210.37,-357.84"/>
<polygon fill="black" stroke="black" points="1210.73,-361.17 1220.07,-356.17 1209.65,-354.25 1210.73,-361.17"/>
<text text-anchor="middle" x="956" y="-381.53" font-family="Times New Roman,serif" font-size="30.00"> &#160;&#160;169 &#160;&#160;14% &#160;&#160;0.00303 mol/s &#160;&#160;&#160;1.41E&#45;04</text>
</g>
<!-- R1 -->
<g id="node3" class="node">
<title>R1</title>
<g id="a_node3"><a xlink:href="1.svg" xlink:title="R1">
<polygon fill="azure" stroke="none" points="1288,-308.03 1230,-308.03 1230,-261.03 1288,-261.03 1288,-308.03"/>
<text text-anchor="middle" x="1259" y="-276.03" font-family="Times New Roman,serif" font-size="35.00">R1</text>
</a>
</g>
</g>
<!-- R119&#45;&gt;R1 -->
<g id="edge2" class="edge">
<title>R119&#45;&gt;R1</title>
<path fill="none" stroke="black" d="M699.72,-261.21C705.36,-261.71 711.06,-262.16 716.5,-262.53 904.67,-275.38 1130.18,-281.6 1219.17,-283.69"/>
<polygon fill="black" stroke="black" points="1218.99,-287.21 1229.07,-283.94 1219.16,-280.21 1218.99,-287.21"/>
<text text-anchor="middle" x="956" y="-291.53" font-family="Times New Roman,serif" font-size="30.00"> &#160;&#160;169 &#160;&#160;14% &#160;&#160;0.00303 mol/s &#160;&#160;&#160;1.41E&#45;04</text>
</g>
<!-- R44 -->
<g id="node11" class="node">
<title>R44</title>
<g id="a_node11"><a xlink:href="44.svg" xlink:title="R44">
<polygon fill="azure" stroke="none" points="1297,-220.03 1221,-220.03 1221,-173.03 1297,-173.03 1297,-220.03"/>
<text text-anchor="middle" x="1259" y="-188.03" font-family="Times New Roman,serif" font-size="35.00">R44</text>
</a>
</g>
</g>
<!-- R119&#45;&gt;R44 -->
<g id="edge10" class="edge">
<title>R119&#45;&gt;R44</title>
<path fill="none" stroke="black" d="M695.08,-233.16C702.05,-230.08 709.34,-227.36 716.5,-225.53 819.72,-199.17 1089.5,-217.08 1195.5,-206.53 1200.3,-206.05 1205.3,-205.45 1210.28,-204.77"/>
<polygon fill="black" stroke="black" points="1210.69,-208.1 1220.08,-203.19 1209.68,-201.17 1210.69,-208.1"/>
<text text-anchor="middle" x="956" y="-234.53" font-family="Times New Roman,serif" font-size="30.00"> &#160;&#160;649 &#160;&#160;3% &#160;&#160;0.00063 mol/s &#160;&#160;&#160;9.65E&#45;01</text>
</g>
<!-- R119&#45;&gt;R44 -->
<g id="edge11" class="edge">
<title>R119&#45;&gt;R44</title>
<path fill="none" stroke="black" stroke-width="5" d="M663.34,-233.14C673.12,-212.18 690.69,-182.77 716.5,-169.53 905.93,-72.38 987.02,-126.43 1195.5,-169.53 1197.51,-169.95 1199.53,-170.43 1201.56,-170.97"/>
<polygon fill="black" stroke="black" stroke-width="5" points="1194.38,-177.47 1216.14,-175.68 1200.05,-160.92 1194.38,-177.47"/>
<text text-anchor="middle" x="956" y="-178.53" font-family="Times New Roman,serif" font-size="30.00"> &#160;&#160;902 &#160;&#160;82% &#160;&#160;0.0171 mol/s &#160;&#160;&#160;3.54E&#45;02</text>
</g>
<!-- R182 -->
<g id="node4" class="node">
<title>R182</title>
<g id="a_node4"><a xlink:href="182.svg" xlink:title="R182">
<polygon fill="azure" stroke="none" points="94,-475.03 0,-475.03 0,-428.03 94,-428.03 94,-475.03"/>
<text text-anchor="middle" x="47" y="-443.03" font-family="Times New Roman,serif" font-size="35.00">R182</text>
</a>
</g>
</g>
<!-- R182&#45;&gt;R119 -->
<g id="edge3" class="edge">
<title>R182&#45;&gt;R119</title>
<path fill="none" stroke="black" d="M93.92,-464.82C196.15,-491.4 445.45,-539.17 597,-423.53 637.97,-392.27 648.82,-329.61 651.46,-290.56"/>
<polygon fill="black" stroke="black" points="655,-290.91 652.03,-280.74 648.01,-290.54 655,-290.91"/>
<text text-anchor="middle" x="350" y="-506.53" font-family="Times New Roman,serif" font-size="30.00"> &#160;&#160;486 &#160;&#160;0% &#160;&#160;1.91e&#45;06 mol/s &#160;&#160;&#160;1.55E&#45;01</text>
</g>
<!-- R218 -->
<g id="node5" class="node">
<title>R218</title>
<g id="a_node5"><a xlink:href="218.svg" xlink:title="R218">
<polygon fill="azure" stroke="none" points="94,-410.03 0,-410.03 0,-363.03 94,-363.03 94,-410.03"/>
<text text-anchor="middle" x="47" y="-378.03" font-family="Times New Roman,serif" font-size="35.00">R218</text>
</a>
</g>
</g>
<!-- R218&#45;&gt;R119 -->
<g id="edge4" class="edge">
<title>R218&#45;&gt;R119</title>
<path fill="none" stroke="black" d="M93.8,-386.84C218.05,-387.32 555.03,-386.12 597,-359.53 621.35,-344.1 635.62,-314.03 643.5,-290.34"/>
<polygon fill="black" stroke="black" points="647.09,-291.57 646.68,-280.98 640.4,-289.52 647.09,-291.57"/>
<text text-anchor="middle" x="350" y="-395.53" font-family="Times New Roman,serif" font-size="30.00"> &#160;&#160;566 &#160;&#160;0% &#160;&#160;0.205 mol/s &#160;&#160;&#160;2.09E&#45;06</text>
</g>
<!-- R316 -->
<g id="node6" class="node">
<title>R316</title>
<g id="a_node6"><a xlink:href="316.svg" xlink:title="R316">
<polygon fill="azure" stroke="none" points="94,-345.03 0,-345.03 0,-298.03 94,-298.03 94,-345.03"/>
<text text-anchor="middle" x="47" y="-313.03" font-family="Times New Roman,serif" font-size="35.00">R316</text>
</a>
</g>
</g>
<!-- R316&#45;&gt;R119 -->
<g id="edge5" class="edge">
<title>R316&#45;&gt;R119</title>
<path fill="none" stroke="black" d="M93.63,-322.32C207.98,-323.81 504.19,-324.45 597,-293.53 602.95,-291.55 608.85,-288.74 614.46,-285.54"/>
<polygon fill="black" stroke="black" points="615.94,-288.12 622.59,-279.87 612.25,-282.17 615.94,-288.12"/>
<text text-anchor="middle" x="350" y="-331.53" font-family="Times New Roman,serif" font-size="30.00"> &#160;&#160;567 &#160;&#160;0% &#160;&#160;1.46e&#45;05 mol/s &#160;&#160;&#160;2.77E&#45;02</text>
</g>
<!-- R238 -->
<g id="node7" class="node">
<title>R238</title>
<g id="a_node7"><a xlink:href="238.svg" xlink:title="R238">
<polygon fill="azure" stroke="none" points="94,-280.03 0,-280.03 0,-233.03 94,-233.03 94,-280.03"/>
<text text-anchor="middle" x="47" y="-248.03" font-family="Times New Roman,serif" font-size="35.00">R238</text>
</a>
</g>
</g>
<!-- R238&#45;&gt;R119 -->
<g id="edge6" class="edge">
<title>R238&#45;&gt;R119</title>
<path fill="none" stroke="black" d="M93.89,-256.53C202.81,-256.53 476.67,-256.53 595.51,-256.53"/>
<polygon fill="black" stroke="black" points="595.18,-260.03 605.18,-256.53 595.18,-253.03 595.18,-260.03"/>
<text text-anchor="middle" x="350" y="-265.53" font-family="Times New Roman,serif" font-size="30.00"> &#160;&#160;619 &#160;&#160;1% &#160;&#160;1310.0 mol/s &#160;&#160;&#160;3.27E&#45;10</text>
</g>
<!-- R325 -->
<g id="node8" class="node">
<title>R325</title>
<g id="a_node8"><a xlink:href="325.svg" xlink:title="R325">
<polygon fill="azure" stroke="none" points="94,-215.03 0,-215.03 0,-168.03 94,-168.03 94,-215.03"/>
<text text-anchor="middle" x="47" y="-183.03" font-family="Times New Roman,serif" font-size="35.00">R325</text>
</a>
</g>
</g>
<!-- R325&#45;&gt;R119 -->
<g id="edge7" class="edge">
<title>R325&#45;&gt;R119</title>
<path fill="none" stroke="black" d="M93.98,-185.8C190.26,-175.52 418.85,-160.19 597,-219.53 602.95,-221.51 608.85,-224.33 614.46,-227.53"/>
<polygon fill="black" stroke="black" points="612.25,-230.89 622.59,-233.2 615.94,-224.95 612.25,-230.89"/>
<text text-anchor="middle" x="350" y="-228.53" font-family="Times New Roman,serif" font-size="30.00"> &#160;&#160;620 &#160;&#160;0% &#160;&#160;0.124 mol/s &#160;&#160;&#160;3.46E&#45;06</text>
</g>
<!-- R310 -->
<g id="node9" class="node">
<title>R310</title>
<g id="a_node9"><a xlink:href="310.svg" xlink:title="R310">
<polygon fill="azure" stroke="none" points="94,-150.03 0,-150.03 0,-103.03 94,-103.03 94,-150.03"/>
<text text-anchor="middle" x="47" y="-118.03" font-family="Times New Roman,serif" font-size="35.00">R310</text>
</a>
</g>
</g>
<!-- R310&#45;&gt;R119 -->
<g id="edge8" class="edge">
<title>R310&#45;&gt;R119</title>
<path fill="none" stroke="black" stroke-width="5" d="M93.66,-121.54C210.13,-109.74 514.87,-84.93 597,-138.53 622.29,-155.04 636.16,-186.45 643.64,-212.72"/>
<polygon fill="black" stroke="black" stroke-width="5" points="634.37,-209.72 647.54,-227.13 651.38,-205.64 634.37,-209.72"/>
<text text-anchor="middle" x="350" y="-147.53" font-family="Times New Roman,serif" font-size="30.00"> &#160;&#160;634 &#160;&#160;98% &#160;&#160;104000.0 mol/s &#160;&#160;&#160;4.12E&#45;12</text>
</g>
<!-- R317 -->
<g id="node10" class="node">
<title>R317</title>
<g id="a_node10"><a xlink:href="317.svg" xlink:title="R317">
<polygon fill="azure" stroke="none" points="94,-85.03 0,-85.03 0,-38.03 94,-38.03 94,-85.03"/>
<text text-anchor="middle" x="47" y="-53.03" font-family="Times New Roman,serif" font-size="35.00">R317</text>
</a>
</g>
</g>
<!-- R317&#45;&gt;R119 -->
<g id="edge9" class="edge">
<title>R317&#45;&gt;R119</title>
<path fill="none" stroke="black" d="M93.9,-45.6C196.11,-13.29 445.34,47.58 597,-67.53 621.68,-86.27 639,-173.33 647,-222.49"/>
<polygon fill="black" stroke="black" points="643.68,-222.91 648.69,-232.24 650.59,-221.81 643.68,-222.91"/>
<text text-anchor="middle" x="350" y="-76.53" font-family="Times New Roman,serif" font-size="30.00"> &#160;&#160;635 &#160;&#160;0% &#160;&#160;2.49e&#45;05 mol/s &#160;&#160;&#160;1.66E&#45;02</text>
</g>
</g>
</svg>
