<?xml version="1.0" encoding="UTF-8" standalone="no"?>
<!DOCTYPE svg PUBLIC "-//W3C//DTD SVG 1.1//EN"
 "http://www.w3.org/Graphics/SVG/1.1/DTD/svg11.dtd">
<!-- Generated by graphviz version 8.0.3 (20230416.2022)
 -->
<!-- Title: G Pages: 1 -->
<svg width="640pt" height="241pt"
 viewBox="0.00 0.00 720.00 270.73" xmlns="http://www.w3.org/2000/svg" xmlns:xlink="http://www.w3.org/1999/xlink">
<g id="graph0" class="graph" transform="scale(0.498442 0.498442) rotate(0) translate(4 478.8)">
<title>G</title>
<polygon fill="white" stroke="none" points="-4,4 -4,-478.8 1280,-478.8 1280,4 -4,4"/>
<text text-anchor="middle" x="638" y="-442" font-family="Arial" font-size="36.00" fill="blue">Reaction Path Analysis</text>
<!-- R122 -->
<g id="node1" class="node">
<title>R122</title>
<g id="a_node1"><a xlink:href="122.svg" xlink:title="R122">
<polygon fill="azure" stroke="none" points="685,-235.3 591,-235.3 591,-188.3 685,-188.3 685,-235.3"/>
<text text-anchor="middle" x="638" y="-203.3" font-family="Times New Roman,serif" font-size="35.00">R122</text>
</a>
</g>
</g>
<!-- R1 -->
<g id="node2" class="node">
<title>R1</title>
<g id="a_node2"><a xlink:href="1.svg" xlink:title="R1">
<polygon fill="azure" stroke="none" points="1258,-300.3 1200,-300.3 1200,-253.3 1258,-253.3 1258,-300.3"/>
<text text-anchor="middle" x="1229" y="-268.3" font-family="Times New Roman,serif" font-size="35.00">R1</text>
</a>
</g>
</g>
<!-- R122&#45;&gt;R1 -->
<g id="edge1" class="edge">
<title>R122&#45;&gt;R1</title>
<path fill="none" stroke="black" stroke-width="5" d="M667.42,-235.12C675.54,-240.58 684.72,-245.7 694,-248.8 864.81,-305.84 1083.36,-292.51 1179.23,-282.71"/>
<polygon fill="black" stroke="black" stroke-width="5" points="1175.16,-291.3 1194.09,-280.43 1173.26,-273.9 1175.16,-291.3"/>
<text text-anchor="middle" x="933.5" y="-299.8" font-family="Times New Roman,serif" font-size="30.00"> &#160;&#160;173 &#160;&#160;99% &#160;&#160;0.00147 mol/s &#160;&#160;&#160;2.91E&#45;04</text>
</g>
<!-- R28 -->
<g id="node3" class="node">
<title>R28</title>
<g id="a_node3"><a xlink:href="28.svg" xlink:title="R28">
<polygon fill="azure" stroke="none" points="1267,-235.3 1191,-235.3 1191,-188.3 1267,-188.3 1267,-235.3"/>
<text text-anchor="middle" x="1229" y="-203.3" font-family="Times New Roman,serif" font-size="35.00">R28</text>
</a>
</g>
</g>
<!-- R122&#45;&gt;R28 -->
<g id="edge2" class="edge">
<title>R122&#45;&gt;R28</title>
<path fill="none" stroke="black" stroke-width="5" d="M684.73,-211.8C790.87,-211.8 1053.77,-211.8 1170.54,-211.8"/>
<polygon fill="black" stroke="black" stroke-width="5" points="1165.21,-220.55 1185.21,-211.8 1165.21,-203.05 1165.21,-220.55"/>
<text text-anchor="middle" x="933.5" y="-220.8" font-family="Times New Roman,serif" font-size="30.00"> &#160;&#160;173 &#160;&#160;99% &#160;&#160;0.00147 mol/s &#160;&#160;&#160;2.91E&#45;04</text>
</g>
<!-- R388 -->
<g id="node8" class="node">
<title>R388</title>
<g id="a_node8"><a xlink:href="388.svg" xlink:title="R388">
<polygon fill="azure" stroke="none" points="1276,-170.3 1182,-170.3 1182,-123.3 1276,-123.3 1276,-170.3"/>
<text text-anchor="middle" x="1229" y="-138.3" font-family="Times New Roman,serif" font-size="35.00">R388</text>
</a>
</g>
</g>
<!-- R122&#45;&gt;R388 -->
<g id="edge7" class="edge">
<title>R122&#45;&gt;R388</title>
<path fill="none" stroke="black" d="M667.42,-188.48C675.54,-183.02 684.72,-177.9 694,-174.8 860.35,-119.25 1071.99,-130.44 1171.48,-140.12"/>
<polygon fill="black" stroke="black" points="1170.89,-143.68 1181.19,-141.2 1171.59,-136.71 1170.89,-143.68"/>
<text text-anchor="middle" x="933.5" y="-183.8" font-family="Times New Roman,serif" font-size="30.00"> &#160;&#160;819 &#160;&#160;0% &#160;&#160;4.24e&#45;07 mol/s &#160;&#160;&#160;9.93E&#45;01</text>
</g>
<!-- R340 -->
<g id="node4" class="node">
<title>R340</title>
<g id="a_node4"><a xlink:href="340.svg" xlink:title="R340">
<polygon fill="azure" stroke="none" points="94,-375.3 0,-375.3 0,-328.3 94,-328.3 94,-375.3"/>
<text text-anchor="middle" x="47" y="-343.3" font-family="Times New Roman,serif" font-size="35.00">R340</text>
</a>
</g>
</g>
<!-- R340&#45;&gt;R122 -->
<g id="edge3" class="edge">
<title>R340&#45;&gt;R122</title>
<path fill="none" stroke="black" stroke-width="5" d="M93.9,-364.52C192.69,-389.02 428.93,-431.82 582,-329.8 607.13,-313.05 621.01,-281.65 628.53,-255.45"/>
<polygon fill="black" stroke="black" stroke-width="5" points="636.26,-262.6 632.47,-241.1 619.25,-258.47 636.26,-262.6"/>
<text text-anchor="middle" x="342.5" y="-402.8" font-family="Times New Roman,serif" font-size="30.00"> &#160;&#160;571 &#160;&#160;99% &#160;&#160;2430.0 mol/s &#160;&#160;&#160;1.76E&#45;10</text>
</g>
<!-- R241 -->
<g id="node5" class="node">
<title>R241</title>
<g id="a_node5"><a xlink:href="241.svg" xlink:title="R241">
<polygon fill="azure" stroke="none" points="94,-296.3 0,-296.3 0,-249.3 94,-249.3 94,-296.3"/>
<text text-anchor="middle" x="47" y="-264.3" font-family="Times New Roman,serif" font-size="35.00">R241</text>
</a>
</g>
</g>
<!-- R241&#45;&gt;R122 -->
<g id="edge4" class="edge">
<title>R241&#45;&gt;R122</title>
<path fill="none" stroke="black" d="M93.64,-277.63C206.46,-288.8 495.54,-312.68 582,-273.8 596.01,-267.5 607.91,-255.67 617.01,-244.02"/>
<polygon fill="black" stroke="black" points="620.35,-246.38 623.41,-236.23 614.69,-242.25 620.35,-246.38"/>
<text text-anchor="middle" x="342.5" y="-303.8" font-family="Times New Roman,serif" font-size="30.00"> &#160;&#160;709 &#160;&#160;0% &#160;&#160;0.000237 mol/s &#160;&#160;&#160;6.11E&#45;01</text>
</g>
<!-- R241&#45;&gt;R122 -->
<g id="edge9" class="edge">
<title>R241&#45;&gt;R122</title>
<path fill="none" stroke="black" d="M77.33,-249.47C85.24,-244.37 94.09,-239.65 103,-236.8 201.39,-205.33 459.49,-224.45 580.21,-217.75"/>
<polygon fill="black" stroke="black" points="580.35,-221.19 590.11,-217.05 579.9,-214.2 580.35,-221.19"/>
<text text-anchor="middle" x="342.5" y="-245.8" font-family="Times New Roman,serif" font-size="30.00"> &#160;&#160;931 &#160;&#160;0% &#160;&#160;0.000372 mol/s &#160;&#160;&#160;3.89E&#45;01</text>
</g>
<!-- R0 -->
<g id="node6" class="node">
<title>R0</title>
<g id="a_node6"><a xlink:href="0.svg" xlink:title="R0">
<polygon fill="azure" stroke="none" points="76,-212.3 18,-212.3 18,-165.3 76,-165.3 76,-212.3"/>
<text text-anchor="middle" x="47" y="-180.3" font-family="Times New Roman,serif" font-size="35.00">R0</text>
</a>
</g>
</g>
<!-- R0&#45;&gt;R122 -->
<g id="edge5" class="edge">
<title>R0&#45;&gt;R122</title>
<path fill="none" stroke="green" d="M75.73,-184.1C155.64,-171.52 392.8,-140.87 582,-184.8 582.49,-184.91 582.99,-185.03 583.48,-185.16"/>
<polygon fill="green" stroke="green" points="582.25,-188.75 592.84,-188.4 584.34,-182.07 582.25,-188.75"/>
<text text-anchor="middle" x="342.5" y="-193.8" font-family="Times New Roman,serif" font-size="30.00"> &#160;&#160;817 &#160;&#160;0% &#160;&#160;6.23e&#45;08 mol/s &#160;&#160;&#160;5.39E&#45;01</text>
</g>
<!-- R118 -->
<g id="node7" class="node">
<title>R118</title>
<g id="a_node7"><a xlink:href="118.svg" xlink:title="R118">
<polygon fill="azure" stroke="none" points="94,-147.3 0,-147.3 0,-100.3 94,-100.3 94,-147.3"/>
<text text-anchor="middle" x="47" y="-115.3" font-family="Times New Roman,serif" font-size="35.00">R118</text>
</a>
</g>
</g>
<!-- R118&#45;&gt;R122 -->
<g id="edge6" class="edge">
<title>R118&#45;&gt;R122</title>
<path fill="none" stroke="green" d="M93.65,-118.39C207.14,-105.79 498.91,-78.93 582,-124.8 602.69,-136.22 616.68,-159.06 625.37,-178.47"/>
<polygon fill="green" stroke="green" points="622.48,-179.63 629.55,-187.51 628.94,-176.94 622.48,-179.63"/>
<text text-anchor="middle" x="342.5" y="-133.8" font-family="Times New Roman,serif" font-size="30.00"> &#160;&#160;817 &#160;&#160;0% &#160;&#160;6.23e&#45;08 mol/s &#160;&#160;&#160;5.39E&#45;01</text>
</g>
<!-- R393 -->
<g id="node9" class="node">
<title>R393</title>
<g id="a_node9"><a xlink:href="393.svg" xlink:title="R393">
<polygon fill="azure" stroke="none" points="94,-82.3 0,-82.3 0,-35.3 94,-35.3 94,-82.3"/>
<text text-anchor="middle" x="47" y="-50.3" font-family="Times New Roman,serif" font-size="35.00">R393</text>
</a>
</g>
</g>
<!-- R393&#45;&gt;R122 -->
<g id="edge8" class="edge">
<title>R393&#45;&gt;R122</title>
<path fill="none" stroke="black" d="M93.93,-43.17C193.3,-12.47 431.42,44 582,-61.8 619.17,-87.92 631.29,-142.01 635.2,-177.59"/>
<polygon fill="black" stroke="black" points="631.8,-177.8 636.2,-187.44 638.77,-177.16 631.8,-177.8"/>
<text text-anchor="middle" x="342.5" y="-70.8" font-family="Times New Roman,serif" font-size="30.00"> &#160;&#160;864 &#160;&#160;0% &#160;&#160;2.55e&#45;05 mol/s &#160;&#160;&#160;1.62E&#45;02</text>
</g>
</g>
</svg>
