<?xml version="1.0" encoding="UTF-8" standalone="no"?>
<!DOCTYPE svg PUBLIC "-//W3C//DTD SVG 1.1//EN"
 "http://www.w3.org/Graphics/SVG/1.1/DTD/svg11.dtd">
<!-- Generated by graphviz version 8.0.3 (20230416.2022)
 -->
<!-- Title: G Pages: 1 -->
<svg width="640pt" height="175pt"
 viewBox="0.00 0.00 720.00 196.34" xmlns="http://www.w3.org/2000/svg" xmlns:xlink="http://www.w3.org/1999/xlink">
<g id="graph0" class="graph" transform="scale(0.492308 0.492308) rotate(0) translate(4 350.49)">
<title>G</title>
<polygon fill="white" stroke="none" points="-4,4 -4,-350.49 1296,-350.49 1296,4 -4,4"/>
<text text-anchor="middle" x="646" y="-313.69" font-family="Arial" font-size="36.00" fill="blue">Reaction Path Analysis</text>
<!-- R123 -->
<g id="node1" class="node">
<title>R123</title>
<g id="a_node1"><a xlink:href="123.svg" xlink:title="R123">
<polygon fill="azure" stroke="none" points="693,-169.99 599,-169.99 599,-122.99 693,-122.99 693,-169.99"/>
<text text-anchor="middle" x="646" y="-137.99" font-family="Times New Roman,serif" font-size="35.00">R123</text>
</a>
</g>
</g>
<!-- R28 -->
<g id="node2" class="node">
<title>R28</title>
<g id="a_node2"><a xlink:href="28.svg" xlink:title="R28">
<polygon fill="azure" stroke="none" points="1283,-262.99 1207,-262.99 1207,-215.99 1283,-215.99 1283,-262.99"/>
<text text-anchor="middle" x="1245" y="-230.99" font-family="Times New Roman,serif" font-size="35.00">R28</text>
</a>
</g>
</g>
<!-- R123&#45;&gt;R28 -->
<g id="edge1" class="edge">
<title>R123&#45;&gt;R28</title>
<path fill="none" stroke="black" d="M660.66,-169.97C670.27,-184.1 684.52,-200.96 702,-209.49 868.15,-290.61 1097.96,-265.02 1196.28,-248.63"/>
<polygon fill="black" stroke="black" points="1196.78,-251.92 1206.05,-246.78 1195.6,-245.02 1196.78,-251.92"/>
<text text-anchor="middle" x="945.5" y="-274.49" font-family="Times New Roman,serif" font-size="30.00"> &#160;&#160;174 &#160;&#160;0% &#160;&#160;1.98 mol/s &#160;&#160;&#160;2.15E&#45;07</text>
</g>
<!-- R1 -->
<g id="node3" class="node">
<title>R1</title>
<g id="a_node3"><a xlink:href="1.svg" xlink:title="R1">
<polygon fill="azure" stroke="none" points="1274,-197.99 1216,-197.99 1216,-150.99 1274,-150.99 1274,-197.99"/>
<text text-anchor="middle" x="1245" y="-165.99" font-family="Times New Roman,serif" font-size="35.00">R1</text>
</a>
</g>
</g>
<!-- R123&#45;&gt;R1 -->
<g id="edge2" class="edge">
<title>R123&#45;&gt;R1</title>
<path fill="none" stroke="black" d="M692.89,-151.74C695.97,-152.02 699.03,-152.27 702,-152.49 890.26,-166.57 1116.03,-172.09 1205.12,-173.82"/>
<polygon fill="black" stroke="black" points="1204.97,-177.34 1215.04,-174.03 1205.1,-170.34 1204.97,-177.34"/>
<text text-anchor="middle" x="945.5" y="-181.49" font-family="Times New Roman,serif" font-size="30.00"> &#160;&#160;174 &#160;&#160;0% &#160;&#160;1.98 mol/s &#160;&#160;&#160;2.15E&#45;07</text>
</g>
<!-- R131 -->
<g id="node7" class="node">
<title>R131</title>
<g id="a_node7"><a xlink:href="131.svg" xlink:title="R131">
<polygon fill="azure" stroke="none" points="1292,-109.99 1198,-109.99 1198,-62.99 1292,-62.99 1292,-109.99"/>
<text text-anchor="middle" x="1245" y="-77.99" font-family="Times New Roman,serif" font-size="35.00">R131</text>
</a>
</g>
</g>
<!-- R123&#45;&gt;R131 -->
<g id="edge6" class="edge">
<title>R123&#45;&gt;R131</title>
<path fill="none" stroke="black" d="M682.92,-123.11C689.08,-120.03 695.57,-117.32 702,-115.49 803.15,-86.83 1065.37,-107.06 1187.49,-96.38"/>
<polygon fill="black" stroke="black" points="1187.55,-99.79 1197.15,-95.33 1186.86,-92.83 1187.55,-99.79"/>
<text text-anchor="middle" x="945.5" y="-124.49" font-family="Times New Roman,serif" font-size="30.00"> &#160;&#160;651 &#160;&#160;0% &#160;&#160;0.000654 mol/s &#160;&#160;&#160;1.00E+00</text>
</g>
<!-- R123&#45;&gt;R131 -->
<g id="edge7" class="edge">
<title>R123&#45;&gt;R131</title>
<path fill="none" stroke="black" stroke-width="5" d="M654.44,-123.2C662.5,-102.31 677.58,-72.95 702,-59.49 885.75,41.73 972.74,-7.27 1180.67,-58.24"/>
<polygon fill="black" stroke="black" stroke-width="5" points="1173.35,-65.92 1194.84,-62.09 1177.44,-48.91 1173.35,-65.92"/>
<text text-anchor="middle" x="945.5" y="-68.49" font-family="Times New Roman,serif" font-size="30.00"> &#160;&#160;932 &#160;&#160;99% &#160;&#160;288.0 mol/s &#160;&#160;&#160;2.27E&#45;06</text>
</g>
<!-- R185 -->
<g id="node4" class="node">
<title>R185</title>
<g id="a_node4"><a xlink:href="185.svg" xlink:title="R185">
<polygon fill="azure" stroke="none" points="94,-234.99 0,-234.99 0,-187.99 94,-187.99 94,-234.99"/>
<text text-anchor="middle" x="47" y="-202.99" font-family="Times New Roman,serif" font-size="35.00">R185</text>
</a>
</g>
</g>
<!-- R185&#45;&gt;R123 -->
<g id="edge3" class="edge">
<title>R185&#45;&gt;R123</title>
<path fill="none" stroke="black" d="M93.95,-216.31C188.03,-224.63 408.38,-236.11 582.5,-183.49 589.39,-181.41 596.32,-178.42 602.93,-175.02"/>
<polygon fill="black" stroke="black" points="604.27,-177.72 611.33,-169.82 600.88,-171.6 604.27,-177.72"/>
<text text-anchor="middle" x="346.5" y="-232.49" font-family="Times New Roman,serif" font-size="30.00"> &#160;&#160;488 &#160;&#160;0% &#160;&#160;1.62e&#45;06 mol/s &#160;&#160;&#160;1.73E&#45;01</text>
</g>
<!-- R221 -->
<g id="node5" class="node">
<title>R221</title>
<g id="a_node5"><a xlink:href="221.svg" xlink:title="R221">
<polygon fill="azure" stroke="none" points="94,-169.99 0,-169.99 0,-122.99 94,-122.99 94,-169.99"/>
<text text-anchor="middle" x="47" y="-137.99" font-family="Times New Roman,serif" font-size="35.00">R221</text>
</a>
</g>
</g>
<!-- R221&#45;&gt;R123 -->
<g id="edge4" class="edge">
<title>R221&#45;&gt;R123</title>
<path fill="none" stroke="black" stroke-width="5" d="M93.85,-146.49C198.71,-146.49 456.33,-146.49 578.56,-146.49"/>
<polygon fill="black" stroke="black" stroke-width="5" points="573.4,-155.24 593.4,-146.49 573.4,-137.74 573.4,-155.24"/>
<text text-anchor="middle" x="346.5" y="-155.49" font-family="Times New Roman,serif" font-size="30.00"> &#160;&#160;572 &#160;&#160;99% &#160;&#160;0.133 mol/s &#160;&#160;&#160;3.22E&#45;06</text>
</g>
<!-- R318 -->
<g id="node6" class="node">
<title>R318</title>
<g id="a_node6"><a xlink:href="318.svg" xlink:title="R318">
<polygon fill="azure" stroke="none" points="94,-104.99 0,-104.99 0,-57.99 94,-57.99 94,-104.99"/>
<text text-anchor="middle" x="47" y="-72.99" font-family="Times New Roman,serif" font-size="35.00">R318</text>
</a>
</g>
</g>
<!-- R318&#45;&gt;R123 -->
<g id="edge5" class="edge">
<title>R318&#45;&gt;R123</title>
<path fill="none" stroke="black" d="M93.95,-76.68C188.03,-68.36 408.38,-56.88 582.5,-109.49 589.39,-111.58 596.32,-114.57 602.93,-117.97"/>
<polygon fill="black" stroke="black" points="600.88,-121.39 611.33,-123.17 604.27,-115.27 600.88,-121.39"/>
<text text-anchor="middle" x="346.5" y="-118.49" font-family="Times New Roman,serif" font-size="30.00"> &#160;&#160;573 &#160;&#160;0% &#160;&#160;2.94e&#45;06 mol/s &#160;&#160;&#160;1.13E&#45;01</text>
</g>
</g>
</svg>
