<?xml version="1.0" encoding="UTF-8" standalone="no"?>
<!DOCTYPE svg PUBLIC "-//W3C//DTD SVG 1.1//EN"
 "http://www.w3.org/Graphics/SVG/1.1/DTD/svg11.dtd">
<!-- Generated by graphviz version 8.0.3 (20230416.2022)
 -->
<!-- Title: G Pages: 1 -->
<svg width="616pt" height="544pt"
 viewBox="0.00 0.00 693.00 611.44" xmlns="http://www.w3.org/2000/svg" xmlns:xlink="http://www.w3.org/1999/xlink">
<g id="graph0" class="graph" transform="scale(0.888889 0.888889) rotate(0) translate(4 607.44)">
<title>G</title>
<polygon fill="white" stroke="none" points="-4,4 -4,-607.44 689,-607.44 689,4 -4,4"/>
<text text-anchor="middle" x="342.5" y="-570.64" font-family="Arial" font-size="36.00" fill="blue">Reaction Path Analysis</text>
<!-- R135 -->
<g id="node1" class="node">
<title>R135</title>
<g id="a_node1"><a xlink:href="135.svg" xlink:title="R135">
<polygon fill="azure" stroke="none" points="94,-289.94 0,-289.94 0,-242.94 94,-242.94 94,-289.94"/>
<text text-anchor="middle" x="47" y="-257.94" font-family="Times New Roman,serif" font-size="35.00">R135</text>
</a>
</g>
</g>
<!-- R1 -->
<g id="node2" class="node">
<title>R1</title>
<g id="a_node2"><a xlink:href="1.svg" xlink:title="R1">
<polygon fill="azure" stroke="none" points="667,-531.94 609,-531.94 609,-484.94 667,-484.94 667,-531.94"/>
<text text-anchor="middle" x="638" y="-499.94" font-family="Times New Roman,serif" font-size="35.00">R1</text>
</a>
</g>
</g>
<!-- R135&#45;&gt;R1 -->
<g id="edge1" class="edge">
<title>R135&#45;&gt;R1</title>
<path fill="none" stroke="black" stroke-width="5" d="M50.53,-289.57C56.53,-339.78 73.39,-456.21 103,-480.44 176.16,-540.31 470.85,-522.64 588.32,-512.92"/>
<polygon fill="black" stroke="black" stroke-width="5" points="583.85,-521.57 603.02,-511.13 582.35,-504.13 583.85,-521.57"/>
<text text-anchor="middle" x="342.5" y="-531.44" font-family="Times New Roman,serif" font-size="30.00"> &#160;&#160;187 &#160;&#160;90% &#160;&#160;0.00729 mol/s &#160;&#160;&#160;5.87E&#45;05</text>
</g>
<!-- R43 -->
<g id="node3" class="node">
<title>R43</title>
<g id="a_node3"><a xlink:href="43.svg" xlink:title="R43">
<polygon fill="azure" stroke="none" points="676,-466.94 600,-466.94 600,-419.94 676,-419.94 676,-466.94"/>
<text text-anchor="middle" x="638" y="-434.94" font-family="Times New Roman,serif" font-size="35.00">R43</text>
</a>
</g>
</g>
<!-- R135&#45;&gt;R43 -->
<g id="edge2" class="edge">
<title>R135&#45;&gt;R43</title>
<path fill="none" stroke="black" stroke-width="5" d="M49.05,-289.69C51.96,-323.61 62.81,-385.84 103,-415.44 140.63,-443.15 449.41,-444.59 579.53,-443.94"/>
<polygon fill="black" stroke="black" stroke-width="5" points="574.29,-452.69 594.23,-443.82 574.18,-435.19 574.29,-452.69"/>
<text text-anchor="middle" x="342.5" y="-452.44" font-family="Times New Roman,serif" font-size="30.00"> &#160;&#160;187 &#160;&#160;90% &#160;&#160;0.00729 mol/s &#160;&#160;&#160;5.87E&#45;05</text>
</g>
<!-- R2 -->
<g id="node4" class="node">
<title>R2</title>
<g id="a_node4"><a xlink:href="2.svg" xlink:title="R2">
<polygon fill="azure" stroke="none" points="667,-401.94 609,-401.94 609,-354.94 667,-354.94 667,-401.94"/>
<text text-anchor="middle" x="638" y="-369.94" font-family="Times New Roman,serif" font-size="35.00">R2</text>
</a>
</g>
</g>
<!-- R135&#45;&gt;R2 -->
<g id="edge3" class="edge">
<title>R135&#45;&gt;R2</title>
<path fill="none" stroke="black" d="M55.2,-289.87C63.15,-311.32 78.22,-341.86 103,-356.44 145.33,-381.34 482.83,-380.1 598.37,-378.93"/>
<polygon fill="black" stroke="black" points="598.19,-382.42 608.15,-378.81 598.11,-375.42 598.19,-382.42"/>
<text text-anchor="middle" x="342.5" y="-387.44" font-family="Times New Roman,serif" font-size="30.00"> &#160;&#160;244 &#160;&#160;8% &#160;&#160;0.000714 mol/s &#160;&#160;&#160;5.98E&#45;04</text>
</g>
<!-- R28 -->
<g id="node5" class="node">
<title>R28</title>
<g id="a_node5"><a xlink:href="28.svg" xlink:title="R28">
<polygon fill="azure" stroke="none" points="676,-336.94 600,-336.94 600,-289.94 676,-289.94 676,-336.94"/>
<text text-anchor="middle" x="638" y="-304.94" font-family="Times New Roman,serif" font-size="35.00">R28</text>
</a>
</g>
</g>
<!-- R135&#45;&gt;R28 -->
<g id="edge4" class="edge">
<title>R135&#45;&gt;R28</title>
<path fill="none" stroke="black" d="M79.5,-289.8C86.87,-294.13 94.93,-298.04 103,-300.44 193.22,-327.26 476.11,-319.72 589.4,-315.45"/>
<polygon fill="black" stroke="black" points="589.28,-318.92 599.14,-315.03 589.01,-311.92 589.28,-318.92"/>
<text text-anchor="middle" x="342.5" y="-328.44" font-family="Times New Roman,serif" font-size="30.00"> &#160;&#160;244 &#160;&#160;8% &#160;&#160;0.000714 mol/s &#160;&#160;&#160;5.98E&#45;04</text>
</g>
<!-- R250 -->
<g id="node6" class="node">
<title>R250</title>
<g id="a_node6"><a xlink:href="250.svg" xlink:title="R250">
<polygon fill="azure" stroke="none" points="685,-259.94 591,-259.94 591,-212.94 685,-212.94 685,-259.94"/>
<text text-anchor="middle" x="638" y="-227.94" font-family="Times New Roman,serif" font-size="35.00">R250</text>
</a>
</g>
</g>
<!-- R135&#45;&gt;R250 -->
<g id="edge5" class="edge">
<title>R135&#45;&gt;R250</title>
<path fill="none" stroke="green" d="M93.82,-266.14C184.55,-265.21 393.68,-261.36 580.29,-244.47"/>
<polygon fill="green" stroke="green" points="580.49,-247.88 590.13,-243.47 579.85,-240.91 580.49,-247.88"/>
<text text-anchor="middle" x="342.5" y="-274.44" font-family="Times New Roman,serif" font-size="30.00"> &#160;&#160;723 &#160;&#160;0% &#160;&#160;3.02e&#45;05 mol/s &#160;&#160;&#160;4.89E&#45;01</text>
</g>
<!-- R135&#45;&gt;R250 -->
<g id="edge9" class="edge">
<title>R135&#45;&gt;R250</title>
<path fill="none" stroke="green" d="M62.5,-243.21C72.17,-230.03 86.18,-214.76 103,-207.44 151.81,-186.21 530.34,-194.65 582,-207.44 583.92,-207.91 585.85,-208.47 587.77,-209.09"/>
<polygon fill="green" stroke="green" points="586.37,-212.69 596.96,-212.98 588.86,-206.14 586.37,-212.69"/>
<text text-anchor="middle" x="342.5" y="-216.44" font-family="Times New Roman,serif" font-size="30.00"> &#160;&#160;934 &#160;&#160;0% &#160;&#160;2.88e&#45;05 mol/s &#160;&#160;&#160;5.11E&#45;01</text>
</g>
<!-- R0 -->
<g id="node7" class="node">
<title>R0</title>
<g id="a_node7"><a xlink:href="0.svg" xlink:title="R0">
<polygon fill="azure" stroke="none" points="667,-182.94 609,-182.94 609,-135.94 667,-135.94 667,-182.94"/>
<text text-anchor="middle" x="638" y="-150.94" font-family="Times New Roman,serif" font-size="35.00">R0</text>
</a>
</g>
</g>
<!-- R135&#45;&gt;R0 -->
<g id="edge6" class="edge">
<title>R135&#45;&gt;R0</title>
<path fill="none" stroke="black" d="M52.28,-243.27C58.46,-217.21 72.67,-176.11 103,-157.44 144.79,-131.72 482.64,-149.91 598.32,-156.97"/>
<polygon fill="black" stroke="black" points="597.92,-160.51 608.11,-157.64 598.35,-153.53 597.92,-160.51"/>
<text text-anchor="middle" x="342.5" y="-166.44" font-family="Times New Roman,serif" font-size="30.00"> &#160;&#160;820 &#160;&#160;0% &#160;&#160;7.9e&#45;06 mol/s &#160;&#160;&#160;4.88E&#45;02</text>
</g>
<!-- R131 -->
<g id="node8" class="node">
<title>R131</title>
<g id="a_node8"><a xlink:href="131.svg" xlink:title="R131">
<polygon fill="azure" stroke="none" points="685,-117.94 591,-117.94 591,-70.94 685,-70.94 685,-117.94"/>
<text text-anchor="middle" x="638" y="-85.94" font-family="Times New Roman,serif" font-size="35.00">R131</text>
</a>
</g>
</g>
<!-- R135&#45;&gt;R131 -->
<g id="edge7" class="edge">
<title>R135&#45;&gt;R131</title>
<path fill="none" stroke="black" d="M48.25,-243.16C50.04,-207.03 59.36,-138.33 103,-106.44 177.42,-52.06 458.27,-74.9 580.07,-87.82"/>
<polygon fill="black" stroke="black" points="579.68,-91.41 590,-89 580.43,-84.45 579.68,-91.41"/>
<text text-anchor="middle" x="342.5" y="-115.44" font-family="Times New Roman,serif" font-size="30.00"> &#160;&#160;820 &#160;&#160;0% &#160;&#160;7.9e&#45;06 mol/s &#160;&#160;&#160;4.88E&#45;02</text>
</g>
<!-- R390 -->
<g id="node9" class="node">
<title>R390</title>
<g id="a_node9"><a xlink:href="390.svg" xlink:title="R390">
<polygon fill="azure" stroke="none" points="685,-52.94 591,-52.94 591,-5.94 685,-5.94 685,-52.94"/>
<text text-anchor="middle" x="638" y="-20.94" font-family="Times New Roman,serif" font-size="35.00">R390</text>
</a>
</g>
</g>
<!-- R135&#45;&gt;R390 -->
<g id="edge8" class="edge">
<title>R135&#45;&gt;R390</title>
<path fill="none" stroke="black" d="M49.95,-243.31C54.97,-189.89 70.33,-60.52 103,-34.44 175.18,23.18 458.45,-5.86 580.53,-21.57"/>
<polygon fill="black" stroke="black" points="579.76,-25.13 590.13,-22.95 580.67,-18.19 579.76,-25.13"/>
<text text-anchor="middle" x="342.5" y="-43.44" font-family="Times New Roman,serif" font-size="30.00"> &#160;&#160;822 &#160;&#160;0% &#160;&#160;4.24e&#45;07 mol/s &#160;&#160;&#160;9.92E&#45;01</text>
</g>
</g>
</svg>
