<?xml version="1.0" encoding="UTF-8" standalone="no"?>
<!DOCTYPE svg PUBLIC "-//W3C//DTD SVG 1.1//EN"
 "http://www.w3.org/Graphics/SVG/1.1/DTD/svg11.dtd">
<!-- Generated by graphviz version 8.0.3 (20230416.2022)
 -->
<!-- Title: G Pages: 1 -->
<svg width="640pt" height="266pt"
 viewBox="0.00 0.00 720.00 299.45" xmlns="http://www.w3.org/2000/svg" xmlns:xlink="http://www.w3.org/1999/xlink">
<g id="graph0" class="graph" transform="scale(0.487062 0.487062) rotate(0) translate(4 542.5)">
<title>G</title>
<polygon fill="white" stroke="none" points="-4,4 -4,-542.5 1310,-542.5 1310,4 -4,4"/>
<text text-anchor="middle" x="653" y="-505.7" font-family="Arial" font-size="36.00" fill="blue">Reaction Path Analysis</text>
<!-- R140 -->
<g id="node1" class="node">
<title>R140</title>
<g id="a_node1"><a xlink:href="140.svg" xlink:title="R140">
<polygon fill="azure" stroke="none" points="700,-252 606,-252 606,-205 700,-205 700,-252"/>
<text text-anchor="middle" x="653" y="-220" font-family="Times New Roman,serif" font-size="35.00">R140</text>
</a>
</g>
</g>
<!-- R1 -->
<g id="node2" class="node">
<title>R1</title>
<g id="a_node2"><a xlink:href="1.svg" xlink:title="R1">
<polygon fill="azure" stroke="none" points="1288,-466 1230,-466 1230,-419 1288,-419 1288,-466"/>
<text text-anchor="middle" x="1259" y="-434" font-family="Times New Roman,serif" font-size="35.00">R1</text>
</a>
</g>
</g>
<!-- R140&#45;&gt;R1 -->
<g id="edge1" class="edge">
<title>R140&#45;&gt;R1</title>
<path fill="none" stroke="black" d="M657.46,-251.82C664.73,-297.27 683.08,-395.09 709,-415.5 787.83,-477.56 1107.57,-455.89 1219.26,-446.16"/>
<polygon fill="black" stroke="black" points="1219.37,-449.58 1229.02,-445.21 1218.75,-442.61 1219.37,-449.58"/>
<text text-anchor="middle" x="956" y="-466.5" font-family="Times New Roman,serif" font-size="30.00"> &#160;&#160;192 &#160;&#160;0% &#160;&#160;2.66e&#45;05 mol/s &#160;&#160;&#160;1.56E&#45;02</text>
</g>
<!-- R53 -->
<g id="node3" class="node">
<title>R53</title>
<g id="a_node3"><a xlink:href="53.svg" xlink:title="R53">
<polygon fill="azure" stroke="none" points="1297,-401 1221,-401 1221,-354 1297,-354 1297,-401"/>
<text text-anchor="middle" x="1259" y="-369" font-family="Times New Roman,serif" font-size="35.00">R53</text>
</a>
</g>
</g>
<!-- R140&#45;&gt;R53 -->
<g id="edge2" class="edge">
<title>R140&#45;&gt;R53</title>
<path fill="none" stroke="black" d="M656.88,-251.84C661.85,-281.11 675.05,-330.27 709,-353.5 749.8,-381.41 1084.34,-379.86 1210.29,-378.26"/>
<polygon fill="black" stroke="black" points="1210.15,-381.75 1220.11,-378.11 1210.06,-374.75 1210.15,-381.75"/>
<text text-anchor="middle" x="956" y="-387.5" font-family="Times New Roman,serif" font-size="30.00"> &#160;&#160;192 &#160;&#160;0% &#160;&#160;2.66e&#45;05 mol/s &#160;&#160;&#160;1.56E&#45;02</text>
</g>
<!-- R3 -->
<g id="node4" class="node">
<title>R3</title>
<g id="a_node4"><a xlink:href="3.svg" xlink:title="R3">
<polygon fill="azure" stroke="none" points="1288,-336 1230,-336 1230,-289 1288,-289 1288,-336"/>
<text text-anchor="middle" x="1259" y="-304" font-family="Times New Roman,serif" font-size="35.00">R3</text>
</a>
</g>
</g>
<!-- R140&#45;&gt;R3 -->
<g id="edge3" class="edge">
<title>R140&#45;&gt;R3</title>
<path fill="none" stroke="black" d="M670.26,-252C679.99,-264 693.47,-277.51 709,-284.5 800.21,-325.52 1110.04,-318.14 1219.39,-314.12"/>
<polygon fill="black" stroke="black" points="1219.37,-317.58 1229.23,-313.71 1219.11,-310.59 1219.37,-317.58"/>
<text text-anchor="middle" x="956" y="-325.5" font-family="Times New Roman,serif" font-size="30.00"> &#160;&#160;281 &#160;&#160;0% &#160;&#160;7.37e&#45;07 mol/s &#160;&#160;&#160;2.69E&#45;01</text>
</g>
<!-- R26 -->
<g id="node5" class="node">
<title>R26</title>
<g id="a_node5"><a xlink:href="26.svg" xlink:title="R26">
<polygon fill="azure" stroke="none" points="1297,-271 1221,-271 1221,-224 1297,-224 1297,-271"/>
<text text-anchor="middle" x="1259" y="-239" font-family="Times New Roman,serif" font-size="35.00">R26</text>
</a>
</g>
</g>
<!-- R140&#45;&gt;R26 -->
<g id="edge4" class="edge">
<title>R140&#45;&gt;R26</title>
<path fill="none" stroke="black" d="M699.89,-233.8C702.97,-234.07 706.03,-234.3 709,-234.5 894.07,-246.76 1114.91,-247.9 1210.28,-247.73"/>
<polygon fill="black" stroke="black" points="1210.01,-251.23 1220,-247.71 1209.99,-244.23 1210.01,-251.23"/>
<text text-anchor="middle" x="956" y="-256.5" font-family="Times New Roman,serif" font-size="30.00"> &#160;&#160;281 &#160;&#160;0% &#160;&#160;7.37e&#45;07 mol/s &#160;&#160;&#160;2.69E&#45;01</text>
</g>
<!-- R70 -->
<g id="node6" class="node">
<title>R70</title>
<g id="a_node6"><a xlink:href="70.svg" xlink:title="R70">
<polygon fill="azure" stroke="none" points="1297,-192 1221,-192 1221,-145 1297,-145 1297,-192"/>
<text text-anchor="middle" x="1259" y="-160" font-family="Times New Roman,serif" font-size="35.00">R70</text>
</a>
</g>
</g>
<!-- R140&#45;&gt;R70 -->
<g id="edge5" class="edge">
<title>R140&#45;&gt;R70</title>
<path fill="none" stroke="black" stroke-width="5" d="M689.92,-205.11C696.08,-202.03 702.57,-199.32 709,-197.5 809.34,-169.1 1065.9,-188.28 1200.59,-177.88"/>
<polygon fill="black" stroke="black" stroke-width="5" points="1196.03,-186.53 1215.12,-175.94 1194.39,-169.11 1196.03,-186.53"/>
<text text-anchor="middle" x="956" y="-206.5" font-family="Times New Roman,serif" font-size="30.00"> &#160;&#160;455 &#160;&#160;82% &#160;&#160;0.00267 mol/s &#160;&#160;&#160;1.64E&#45;01</text>
</g>
<!-- R140&#45;&gt;R70 -->
<g id="edge8" class="edge">
<title>R140&#45;&gt;R70</title>
<path fill="none" stroke="black" d="M661.44,-205.2C669.5,-184.31 684.58,-154.95 709,-141.5 757.08,-115.02 1149.53,-129.08 1203,-141.5 1205.67,-142.12 1208.37,-142.89 1211.05,-143.77"/>
<polygon fill="black" stroke="black" points="1209.69,-147.38 1220.28,-147.66 1212.18,-140.84 1209.69,-147.38"/>
<text text-anchor="middle" x="956" y="-150.5" font-family="Times New Roman,serif" font-size="30.00"> &#160;&#160;666 &#160;&#160;16% &#160;&#160;0.000525 mol/s &#160;&#160;&#160;8.36E&#45;01</text>
</g>
<!-- R144 -->
<g id="node7" class="node">
<title>R144</title>
<g id="a_node7"><a xlink:href="144.svg" xlink:title="R144">
<polygon fill="azure" stroke="none" points="1306,-112 1212,-112 1212,-65 1306,-65 1306,-112"/>
<text text-anchor="middle" x="1259" y="-80" font-family="Times New Roman,serif" font-size="35.00">R144</text>
</a>
</g>
</g>
<!-- R140&#45;&gt;R144 -->
<g id="edge6" class="edge">
<title>R140&#45;&gt;R144</title>
<path fill="none" stroke="black" d="M655.54,-205.17C659.08,-172.87 670.71,-115.58 709,-89.5 748.89,-62.33 1069.36,-77.53 1201.42,-85.06"/>
<polygon fill="black" stroke="black" points="1200.92,-88.59 1211.11,-85.68 1201.32,-81.61 1200.92,-88.59"/>
<text text-anchor="middle" x="956" y="-98.5" font-family="Times New Roman,serif" font-size="30.00"> &#160;&#160;499 &#160;&#160;0% &#160;&#160;4.27e&#45;07 mol/s &#160;&#160;&#160;9.99E&#45;01</text>
</g>
<!-- R220 -->
<g id="node8" class="node">
<title>R220</title>
<g id="a_node8"><a xlink:href="220.svg" xlink:title="R220">
<polygon fill="azure" stroke="none" points="1306,-47 1212,-47 1212,0 1306,0 1306,-47"/>
<text text-anchor="middle" x="1259" y="-15" font-family="Times New Roman,serif" font-size="35.00">R220</text>
</a>
</g>
</g>
<!-- R140&#45;&gt;R220 -->
<g id="edge7" class="edge">
<title>R140&#45;&gt;R220</title>
<path fill="none" stroke="black" d="M657.24,-205.35C664.22,-159.15 682.24,-58.18 709,-37.5 784.43,20.79 1076.99,-3.44 1201.45,-16.84"/>
<polygon fill="black" stroke="black" points="1200.92,-20.41 1211.25,-18.02 1201.68,-13.45 1200.92,-20.41"/>
<text text-anchor="middle" x="956" y="-46.5" font-family="Times New Roman,serif" font-size="30.00"> &#160;&#160;500 &#160;&#160;0% &#160;&#160;3.46e&#45;07 mol/s &#160;&#160;&#160;8.39E&#45;01</text>
</g>
<!-- R189 -->
<g id="node9" class="node">
<title>R189</title>
<g id="a_node9"><a xlink:href="189.svg" xlink:title="R189">
<polygon fill="azure" stroke="none" points="94,-252 0,-252 0,-205 94,-205 94,-252"/>
<text text-anchor="middle" x="47" y="-220" font-family="Times New Roman,serif" font-size="35.00">R189</text>
</a>
</g>
</g>
<!-- R189&#45;&gt;R140 -->
<g id="edge9" class="edge">
<title>R189&#45;&gt;R140</title>
<path fill="none" stroke="black" stroke-width="5" d="M93.7,-233.4C99.35,-233.85 105.06,-234.24 110.5,-234.5 316.6,-244.37 373.4,-244.67 585.61,-234.41"/>
<polygon fill="black" stroke="black" stroke-width="5" points="580.75,-243.11 600.3,-233.4 579.89,-225.63 580.75,-243.11"/>
<text text-anchor="middle" x="350" y="-250.5" font-family="Times New Roman,serif" font-size="30.00"> &#160;&#160;667 &#160;&#160;95% &#160;&#160;0.0143 mol/s &#160;&#160;&#160;4.20E&#45;02</text>
</g>
<!-- R189&#45;&gt;R140 -->
<g id="edge10" class="edge">
<title>R189&#45;&gt;R140</title>
<path fill="none" stroke="black" d="M88.68,-205.03C95.75,-201.92 103.19,-199.21 110.5,-197.5 317.77,-148.92 382.23,-148.92 589.5,-197.5 593.38,-198.41 597.3,-199.6 601.18,-200.98"/>
<polygon fill="black" stroke="black" points="599.73,-204.57 610.32,-205.03 602.33,-198.07 599.73,-204.57"/>
<text text-anchor="middle" x="350" y="-206.5" font-family="Times New Roman,serif" font-size="30.00"> &#160;&#160;695 &#160;&#160;4% &#160;&#160;0.000625 mol/s &#160;&#160;&#160;9.58E&#45;01</text>
</g>
</g>
</svg>
