<?xml version="1.0" encoding="UTF-8" standalone="no"?>
<!DOCTYPE svg PUBLIC "-//W3C//DTD SVG 1.1//EN"
 "http://www.w3.org/Graphics/SVG/1.1/DTD/svg11.dtd">
<!-- Generated by graphviz version 8.0.3 (20230416.2022)
 -->
<!-- Title: G Pages: 1 -->
<svg width="623pt" height="330pt"
 viewBox="0.00 0.00 701.00 371.40" xmlns="http://www.w3.org/2000/svg" xmlns:xlink="http://www.w3.org/1999/xlink">
<g id="graph0" class="graph" transform="scale(0.888889 0.888889) rotate(0) translate(4 367.4)">
<title>G</title>
<polygon fill="white" stroke="none" points="-4,4 -4,-367.4 697,-367.4 697,4 -4,4"/>
<text text-anchor="middle" x="346.5" y="-330.6" font-family="Arial" font-size="36.00" fill="blue">Reaction Path Analysis</text>
<!-- R143 -->
<g id="node1" class="node">
<title>R143</title>
<g id="a_node1"><a xlink:href="143.svg" xlink:title="R143">
<polygon fill="azure" stroke="none" points="94,-169.9 0,-169.9 0,-122.9 94,-122.9 94,-169.9"/>
<text text-anchor="middle" x="47" y="-137.9" font-family="Times New Roman,serif" font-size="35.00">R143</text>
</a>
</g>
</g>
<!-- R54 -->
<g id="node2" class="node">
<title>R54</title>
<g id="a_node2"><a xlink:href="54.svg" xlink:title="R54">
<polygon fill="azure" stroke="none" points="684,-294.9 608,-294.9 608,-247.9 684,-247.9 684,-294.9"/>
<text text-anchor="middle" x="646" y="-262.9" font-family="Times New Roman,serif" font-size="35.00">R54</text>
</a>
</g>
</g>
<!-- R143&#45;&gt;R54 -->
<g id="edge1" class="edge">
<title>R143&#45;&gt;R54</title>
<path fill="none" stroke="black" stroke-width="5" d="M53.86,-169.84C61.1,-193.41 75.94,-228.59 103,-245.4 182.47,-294.76 464.85,-283.18 587.47,-275.51"/>
<polygon fill="black" stroke="black" stroke-width="5" points="582.7,-284.19 602.09,-274.16 581.56,-266.73 582.7,-284.19"/>
<text text-anchor="middle" x="346.5" y="-291.4" font-family="Times New Roman,serif" font-size="30.00"> &#160;&#160;195 &#160;&#160;84% &#160;&#160;35.3 mol/s &#160;&#160;&#160;1.21E&#45;08</text>
</g>
<!-- R1 -->
<g id="node3" class="node">
<title>R1</title>
<g id="a_node3"><a xlink:href="1.svg" xlink:title="R1">
<polygon fill="azure" stroke="none" points="675,-229.9 617,-229.9 617,-182.9 675,-182.9 675,-229.9"/>
<text text-anchor="middle" x="646" y="-197.9" font-family="Times New Roman,serif" font-size="35.00">R1</text>
</a>
</g>
</g>
<!-- R143&#45;&gt;R1 -->
<g id="edge2" class="edge">
<title>R143&#45;&gt;R1</title>
<path fill="none" stroke="black" stroke-width="5" d="M77.63,-169.89C85.47,-174.92 94.2,-179.56 103,-182.4 193.88,-211.7 480.8,-209.64 596.21,-207.52"/>
<polygon fill="black" stroke="black" stroke-width="5" points="591.38,-216.25 611.2,-207.1 591.03,-198.75 591.38,-216.25"/>
<text text-anchor="middle" x="346.5" y="-217.4" font-family="Times New Roman,serif" font-size="30.00"> &#160;&#160;195 &#160;&#160;84% &#160;&#160;35.3 mol/s &#160;&#160;&#160;1.21E&#45;08</text>
</g>
<!-- R201 -->
<g id="node4" class="node">
<title>R201</title>
<g id="a_node4"><a xlink:href="201.svg" xlink:title="R201">
<polygon fill="azure" stroke="none" points="693,-164.9 599,-164.9 599,-117.9 693,-117.9 693,-164.9"/>
<text text-anchor="middle" x="646" y="-132.9" font-family="Times New Roman,serif" font-size="35.00">R201</text>
</a>
</g>
</g>
<!-- R143&#45;&gt;R201 -->
<g id="edge3" class="edge">
<title>R143&#45;&gt;R201</title>
<path fill="none" stroke="black" d="M93.85,-146.01C201.64,-145.11 470.86,-142.86 588.5,-141.87"/>
<polygon fill="black" stroke="black" points="588.43,-145.36 598.4,-141.78 588.37,-138.36 588.43,-145.36"/>
<text text-anchor="middle" x="346.5" y="-154.4" font-family="Times New Roman,serif" font-size="30.00"> &#160;&#160;502 &#160;&#160;0% &#160;&#160;4.28e&#45;07 mol/s &#160;&#160;&#160;1.00E+00</text>
</g>
<!-- R370 -->
<g id="node5" class="node">
<title>R370</title>
<g id="a_node5"><a xlink:href="370.svg" xlink:title="R370">
<polygon fill="azure" stroke="none" points="693,-78.9 599,-78.9 599,-31.9 693,-31.9 693,-78.9"/>
<text text-anchor="middle" x="646" y="-46.9" font-family="Times New Roman,serif" font-size="35.00">R370</text>
</a>
</g>
</g>
<!-- R143&#45;&gt;R370 -->
<g id="edge4" class="edge">
<title>R143&#45;&gt;R370</title>
<path fill="none" stroke="black" d="M72.41,-122.93C81.35,-115.71 91.99,-108.58 103,-104.4 201.47,-67 466.59,-83.86 588.55,-68.3"/>
<polygon fill="black" stroke="black" points="588.78,-71.66 598.19,-66.8 587.8,-64.73 588.78,-71.66"/>
<text text-anchor="middle" x="346.5" y="-113.4" font-family="Times New Roman,serif" font-size="30.00"> &#160;&#160;669 &#160;&#160;0% &#160;&#160;0.000654 mol/s &#160;&#160;&#160;1.00E+00</text>
</g>
<!-- R143&#45;&gt;R370 -->
<g id="edge5" class="edge">
<title>R143&#45;&gt;R370</title>
<path fill="none" stroke="black" d="M51.67,-122.97C57.36,-95.59 71.17,-51.46 103,-31.4 191.87,24.61 467.27,-7.29 588.68,-31.62"/>
<polygon fill="black" stroke="black" points="587.74,-35.21 598.24,-33.8 589.16,-28.35 587.74,-35.21"/>
<text text-anchor="middle" x="346.5" y="-40.4" font-family="Times New Roman,serif" font-size="30.00"> &#160;&#160;1029 &#160;&#160;15% &#160;&#160;6.37 mol/s &#160;&#160;&#160;1.03E&#45;04</text>
</g>
</g>
</svg>
