<?xml version="1.0" encoding="UTF-8" standalone="no"?>
<!DOCTYPE svg PUBLIC "-//W3C//DTD SVG 1.1//EN"
 "http://www.w3.org/Graphics/SVG/1.1/DTD/svg11.dtd">
<!-- Generated by graphviz version 8.0.3 (20230416.2022)
 -->
<!-- Title: G Pages: 1 -->
<svg width="616pt" height="287pt"
 viewBox="0.00 0.00 693.00 323.41" xmlns="http://www.w3.org/2000/svg" xmlns:xlink="http://www.w3.org/1999/xlink">
<g id="graph0" class="graph" transform="scale(0.888889 0.888889) rotate(0) translate(4 319.41)">
<title>G</title>
<polygon fill="white" stroke="none" points="-4,4 -4,-319.41 689,-319.41 689,4 -4,4"/>
<text text-anchor="middle" x="342.5" y="-282.61" font-family="Arial" font-size="36.00" fill="blue">Reaction Path Analysis</text>
<!-- R148 -->
<g id="node1" class="node">
<title>R148</title>
<g id="a_node1"><a xlink:href="148.svg" xlink:title="R148">
<polygon fill="azure" stroke="none" points="94,-139.91 0,-139.91 0,-92.91 94,-92.91 94,-139.91"/>
<text text-anchor="middle" x="47" y="-107.91" font-family="Times New Roman,serif" font-size="35.00">R148</text>
</a>
</g>
</g>
<!-- R57 -->
<g id="node2" class="node">
<title>R57</title>
<g id="a_node2"><a xlink:href="57.svg" xlink:title="R57">
<polygon fill="azure" stroke="none" points="676,-232.91 600,-232.91 600,-185.91 676,-185.91 676,-232.91"/>
<text text-anchor="middle" x="638" y="-200.91" font-family="Times New Roman,serif" font-size="35.00">R57</text>
</a>
</g>
</g>
<!-- R148&#45;&gt;R57 -->
<g id="edge1" class="edge">
<title>R148&#45;&gt;R57</title>
<path fill="none" stroke="black" stroke-width="5" d="M61.66,-139.87C71.27,-154 85.52,-170.86 103,-179.41 261.16,-256.71 477.94,-235.97 579.77,-220"/>
<polygon fill="black" stroke="black" stroke-width="5" points="575.96,-229.51 594.26,-217.61 573.09,-212.24 575.96,-229.51"/>
<text text-anchor="middle" x="342.5" y="-243.41" font-family="Times New Roman,serif" font-size="30.00"> &#160;&#160;200 &#160;&#160;97% &#160;&#160;0.546 mol/s &#160;&#160;&#160;7.83E&#45;07</text>
</g>
<!-- R1 -->
<g id="node3" class="node">
<title>R1</title>
<g id="a_node3"><a xlink:href="1.svg" xlink:title="R1">
<polygon fill="azure" stroke="none" points="667,-167.91 609,-167.91 609,-120.91 667,-120.91 667,-167.91"/>
<text text-anchor="middle" x="638" y="-135.91" font-family="Times New Roman,serif" font-size="35.00">R1</text>
</a>
</g>
</g>
<!-- R148&#45;&gt;R1 -->
<g id="edge2" class="edge">
<title>R148&#45;&gt;R1</title>
<path fill="none" stroke="black" stroke-width="5" d="M93.89,-121.65C96.97,-121.93 100.03,-122.18 103,-122.41 281.65,-135.81 494.58,-141.51 588.46,-143.5"/>
<polygon fill="black" stroke="black" stroke-width="5" points="582.99,-152.26 603.17,-143.92 583.35,-134.77 582.99,-152.26"/>
<text text-anchor="middle" x="342.5" y="-151.41" font-family="Times New Roman,serif" font-size="30.00"> &#160;&#160;200 &#160;&#160;97% &#160;&#160;0.546 mol/s &#160;&#160;&#160;7.83E&#45;07</text>
</g>
<!-- R372 -->
<g id="node4" class="node">
<title>R372</title>
<g id="a_node4"><a xlink:href="372.svg" xlink:title="R372">
<polygon fill="azure" stroke="none" points="685,-79.91 591,-79.91 591,-32.91 685,-32.91 685,-79.91"/>
<text text-anchor="middle" x="638" y="-47.91" font-family="Times New Roman,serif" font-size="35.00">R372</text>
</a>
</g>
</g>
<!-- R148&#45;&gt;R372 -->
<g id="edge3" class="edge">
<title>R148&#45;&gt;R372</title>
<path fill="none" stroke="black" d="M83.92,-93.02C90.08,-89.95 96.57,-87.23 103,-85.41 202.38,-57.21 459.88,-76.8 580.29,-66.31"/>
<polygon fill="black" stroke="black" points="580.55,-69.7 590.15,-65.24 579.86,-62.74 580.55,-69.7"/>
<text text-anchor="middle" x="342.5" y="-94.41" font-family="Times New Roman,serif" font-size="30.00"> &#160;&#160;672 &#160;&#160;0% &#160;&#160;0.000626 mol/s &#160;&#160;&#160;9.59E&#45;01</text>
</g>
<!-- R148&#45;&gt;R372 -->
<g id="edge4" class="edge">
<title>R148&#45;&gt;R372</title>
<path fill="none" stroke="black" d="M55.44,-93.11C63.5,-72.22 78.58,-42.86 103,-29.41 196.23,21.96 478.31,-5.33 582,-29.41 582.49,-29.52 582.99,-29.64 583.48,-29.76"/>
<polygon fill="black" stroke="black" points="582.25,-33.36 592.84,-33 584.34,-26.68 582.25,-33.36"/>
<text text-anchor="middle" x="342.5" y="-38.41" font-family="Times New Roman,serif" font-size="30.00"> &#160;&#160;1033 &#160;&#160;2% &#160;&#160;0.0146 mol/s &#160;&#160;&#160;4.10E&#45;02</text>
</g>
</g>
</svg>
