<?xml version="1.0" encoding="UTF-8" standalone="no"?>
<!DOCTYPE svg PUBLIC "-//W3C//DTD SVG 1.1//EN"
 "http://www.w3.org/Graphics/SVG/1.1/DTD/svg11.dtd">
<!-- Generated by graphviz version 8.0.3 (20230416.2022)
 -->
<!-- Title: G Pages: 1 -->
<svg width="616pt" height="604pt"
 viewBox="0.00 0.00 693.00 678.96" xmlns="http://www.w3.org/2000/svg" xmlns:xlink="http://www.w3.org/1999/xlink">
<g id="graph0" class="graph" transform="scale(0.888889 0.888889) rotate(0) translate(4 674.96)">
<title>G</title>
<polygon fill="white" stroke="none" points="-4,4 -4,-674.96 689,-674.96 689,4 -4,4"/>
<text text-anchor="middle" x="342.5" y="-638.16" font-family="Arial" font-size="36.00" fill="blue">Reaction Path Analysis</text>
<!-- R149 -->
<g id="node1" class="node">
<title>R149</title>
<g id="a_node1"><a xlink:href="149.svg" xlink:title="R149">
<polygon fill="azure" stroke="none" points="94,-315.46 0,-315.46 0,-268.46 94,-268.46 94,-315.46"/>
<text text-anchor="middle" x="47" y="-283.46" font-family="Times New Roman,serif" font-size="35.00">R149</text>
</a>
</g>
</g>
<!-- R1 -->
<g id="node2" class="node">
<title>R1</title>
<g id="a_node2"><a xlink:href="1.svg" xlink:title="R1">
<polygon fill="azure" stroke="none" points="667,-598.46 609,-598.46 609,-551.46 667,-551.46 667,-598.46"/>
<text text-anchor="middle" x="638" y="-566.46" font-family="Times New Roman,serif" font-size="35.00">R1</text>
</a>
</g>
</g>
<!-- R149&#45;&gt;R1 -->
<g id="edge1" class="edge">
<title>R149&#45;&gt;R1</title>
<path fill="none" stroke="black" stroke-width="2" d="M49.48,-315.22C53.66,-372.49 67.59,-517.85 103,-547.96 177.18,-611.06 488.5,-588.86 598.39,-578.8"/>
<polygon fill="black" stroke="black" stroke-width="2" points="596.65,-582.2 606.28,-577.78 596,-575.23 596.65,-582.2"/>
<text text-anchor="middle" x="342.5" y="-598.96" font-family="Times New Roman,serif" font-size="30.00"> &#160;&#160;201 &#160;&#160;32% &#160;&#160;0.103 mol/s &#160;&#160;&#160;4.15E&#45;06</text>
</g>
<!-- R60 -->
<g id="node3" class="node">
<title>R60</title>
<g id="a_node3"><a xlink:href="60.svg" xlink:title="R60">
<polygon fill="azure" stroke="none" points="676,-533.46 600,-533.46 600,-486.46 676,-486.46 676,-533.46"/>
<text text-anchor="middle" x="638" y="-501.46" font-family="Times New Roman,serif" font-size="35.00">R60</text>
</a>
</g>
</g>
<!-- R149&#45;&gt;R60 -->
<g id="edge2" class="edge">
<title>R149&#45;&gt;R60</title>
<path fill="none" stroke="black" stroke-width="2" d="M51.34,-315.41C58.43,-361.67 76.57,-462 103,-482.96 140.6,-512.78 465.79,-512.04 589.5,-510.66"/>
<polygon fill="black" stroke="black" stroke-width="2" points="587.18,-514.15 597.14,-510.53 587.1,-507.15 587.18,-514.15"/>
<text text-anchor="middle" x="342.5" y="-519.96" font-family="Times New Roman,serif" font-size="30.00"> &#160;&#160;201 &#160;&#160;32% &#160;&#160;0.103 mol/s &#160;&#160;&#160;4.15E&#45;06</text>
</g>
<!-- R4 -->
<g id="node4" class="node">
<title>R4</title>
<g id="a_node4"><a xlink:href="4.svg" xlink:title="R4">
<polygon fill="azure" stroke="none" points="667,-468.46 609,-468.46 609,-421.46 667,-421.46 667,-468.46"/>
<text text-anchor="middle" x="638" y="-436.46" font-family="Times New Roman,serif" font-size="35.00">R4</text>
</a>
</g>
</g>
<!-- R149&#45;&gt;R4 -->
<g id="edge3" class="edge">
<title>R149&#45;&gt;R4</title>
<path fill="none" stroke="black" d="M50.52,-315.24C55.14,-345.32 67.99,-396.68 103,-420.96 143.36,-448.95 482.15,-447.06 598.19,-445.57"/>
<polygon fill="black" stroke="black" points="598.07,-449.06 608.02,-445.42 597.97,-442.06 598.07,-449.06"/>
<text text-anchor="middle" x="342.5" y="-454.96" font-family="Times New Roman,serif" font-size="30.00"> &#160;&#160;301 &#160;&#160;0% &#160;&#160;6.4e&#45;05 mol/s &#160;&#160;&#160;6.60E&#45;03</text>
</g>
<!-- R26 -->
<g id="node5" class="node">
<title>R26</title>
<g id="a_node5"><a xlink:href="26.svg" xlink:title="R26">
<polygon fill="azure" stroke="none" points="676,-403.46 600,-403.46 600,-356.46 676,-356.46 676,-403.46"/>
<text text-anchor="middle" x="638" y="-371.46" font-family="Times New Roman,serif" font-size="35.00">R26</text>
</a>
</g>
</g>
<!-- R149&#45;&gt;R26 -->
<g id="edge4" class="edge">
<title>R149&#45;&gt;R26</title>
<path fill="none" stroke="black" d="M62.87,-315.17C72.58,-328.16 86.51,-343.25 103,-350.96 188.46,-390.92 474.78,-385.71 589.18,-381.87"/>
<polygon fill="black" stroke="black" points="589.15,-385.34 599.03,-381.49 588.91,-378.34 589.15,-385.34"/>
<text text-anchor="middle" x="342.5" y="-392.96" font-family="Times New Roman,serif" font-size="30.00"> &#160;&#160;301 &#160;&#160;0% &#160;&#160;6.4e&#45;05 mol/s &#160;&#160;&#160;6.60E&#45;03</text>
</g>
<!-- R152 -->
<g id="node6" class="node">
<title>R152</title>
<g id="a_node6"><a xlink:href="152.svg" xlink:title="R152">
<polygon fill="azure" stroke="none" points="685,-338.46 591,-338.46 591,-291.46 685,-291.46 685,-338.46"/>
<text text-anchor="middle" x="638" y="-306.46" font-family="Times New Roman,serif" font-size="35.00">R152</text>
</a>
</g>
</g>
<!-- R149&#45;&gt;R152 -->
<g id="edge5" class="edge">
<title>R149&#45;&gt;R152</title>
<path fill="none" stroke="black" d="M93.89,-297.24C96.97,-297.51 100.03,-297.75 103,-297.96 276.73,-310.19 482.88,-313.62 580.44,-314.59"/>
<polygon fill="black" stroke="black" points="580.19,-318.1 590.22,-314.69 580.26,-311.1 580.19,-318.1"/>
<text text-anchor="middle" x="342.5" y="-322.96" font-family="Times New Roman,serif" font-size="30.00"> &#160;&#160;503 &#160;&#160;0% &#160;&#160;4.28e&#45;07 mol/s &#160;&#160;&#160;1.00E+00</text>
</g>
<!-- R231 -->
<g id="node7" class="node">
<title>R231</title>
<g id="a_node7"><a xlink:href="231.svg" xlink:title="R231">
<polygon fill="azure" stroke="none" points="685,-273.46 591,-273.46 591,-226.46 685,-226.46 685,-273.46"/>
<text text-anchor="middle" x="638" y="-241.46" font-family="Times New Roman,serif" font-size="35.00">R231</text>
</a>
</g>
</g>
<!-- R149&#45;&gt;R231 -->
<g id="edge6" class="edge">
<title>R149&#45;&gt;R231</title>
<path fill="none" stroke="black" d="M83.89,-268.47C90.05,-265.41 96.55,-262.73 103,-260.96 191.47,-236.77 462.08,-243.4 580.51,-247.66"/>
<polygon fill="black" stroke="black" points="580.02,-251.18 590.15,-248.05 580.28,-244.19 580.02,-251.18"/>
<text text-anchor="middle" x="342.5" y="-269.96" font-family="Times New Roman,serif" font-size="30.00"> &#160;&#160;504 &#160;&#160;0% &#160;&#160;4.26e&#45;07 mol/s &#160;&#160;&#160;9.96E&#45;01</text>
</g>
<!-- R282 -->
<g id="node8" class="node">
<title>R282</title>
<g id="a_node8"><a xlink:href="282.svg" xlink:title="R282">
<polygon fill="azure" stroke="none" points="685,-192.46 591,-192.46 591,-145.46 685,-145.46 685,-192.46"/>
<text text-anchor="middle" x="638" y="-160.46" font-family="Times New Roman,serif" font-size="35.00">R282</text>
</a>
</g>
</g>
<!-- R149&#45;&gt;R282 -->
<g id="edge7" class="edge">
<title>R149&#45;&gt;R282</title>
<path fill="none" stroke="black" d="M55.81,-268.76C64.05,-248.29 79.18,-219.65 103,-205.96 147.02,-180.66 494.58,-193.64 580.58,-185.43"/>
<polygon fill="black" stroke="black" points="580.83,-188.8 590.3,-184.05 579.94,-181.85 580.83,-188.8"/>
<text text-anchor="middle" x="342.5" y="-214.96" font-family="Times New Roman,serif" font-size="30.00"> &#160;&#160;673 &#160;&#160;0% &#160;&#160;0.000644 mol/s &#160;&#160;&#160;9.86E&#45;01</text>
</g>
<!-- R149&#45;&gt;R282 -->
<g id="edge10" class="edge">
<title>R149&#45;&gt;R282</title>
<path fill="none" stroke="black" d="M49.26,-268.53C52.44,-235.42 63.64,-175.99 103,-148.96 144.82,-120.24 494.45,-137.88 580.41,-149.32"/>
<polygon fill="black" stroke="black" points="579.69,-152.91 590.11,-150.96 580.75,-145.99 579.69,-152.91"/>
<text text-anchor="middle" x="342.5" y="-157.96" font-family="Times New Roman,serif" font-size="30.00"> &#160;&#160;766 &#160;&#160;14% &#160;&#160;0.0443 mol/s &#160;&#160;&#160;1.43E&#45;02</text>
</g>
<!-- R205 -->
<g id="node9" class="node">
<title>R205</title>
<g id="a_node9"><a xlink:href="205.svg" xlink:title="R205">
<polygon fill="azure" stroke="none" points="685,-91.46 591,-91.46 591,-44.46 685,-44.46 685,-91.46"/>
<text text-anchor="middle" x="638" y="-59.46" font-family="Times New Roman,serif" font-size="35.00">R205</text>
</a>
</g>
</g>
<!-- R149&#45;&gt;R205 -->
<g id="edge8" class="edge">
<title>R149&#45;&gt;R205</title>
<path fill="none" stroke="black" d="M51.13,-268.62C57.96,-221.48 75.82,-117.57 103,-95.96 122.59,-80.39 504.68,-76.48 580.45,-73.71"/>
<polygon fill="black" stroke="black" points="580.29,-77.17 590.1,-73.19 579.94,-70.18 580.29,-77.17"/>
<text text-anchor="middle" x="342.5" y="-104.96" font-family="Times New Roman,serif" font-size="30.00"> &#160;&#160;674 &#160;&#160;0% &#160;&#160;0.000651 mol/s &#160;&#160;&#160;9.96E&#45;01</text>
</g>
<!-- R149&#45;&gt;R205 -->
<g id="edge9" class="edge">
<title>R149&#45;&gt;R205</title>
<path fill="none" stroke="black" stroke-width="3" d="M49.41,-268.69C53.41,-211.39 66.97,-66.05 103,-36.96 185.82,29.9 479.04,-9.94 582,-36.96 585.18,-37.8 588.38,-38.86 591.54,-40.1"/>
<polygon fill="black" stroke="black" stroke-width="3" points="586.88,-42.64 597.44,-43.51 589.73,-36.24 586.88,-42.64"/>
<text text-anchor="middle" x="342.5" y="-45.96" font-family="Times New Roman,serif" font-size="30.00"> &#160;&#160;700 &#160;&#160;52% &#160;&#160;0.164 mol/s &#160;&#160;&#160;3.96E&#45;03</text>
</g>
</g>
</svg>
