<?xml version="1.0" encoding="UTF-8" standalone="no"?>
<!DOCTYPE svg PUBLIC "-//W3C//DTD SVG 1.1//EN"
 "http://www.w3.org/Graphics/SVG/1.1/DTD/svg11.dtd">
<!-- Generated by graphviz version 8.0.3 (20230416.2022)
 -->
<!-- Title: G Pages: 1 -->
<svg width="640pt" height="171pt"
 viewBox="0.00 0.00 720.00 192.86" xmlns="http://www.w3.org/2000/svg" xmlns:xlink="http://www.w3.org/1999/xlink">
<g id="graph0" class="graph" transform="scale(0.49574 0.49574) rotate(0) translate(4 341.8)">
<title>G</title>
<polygon fill="white" stroke="none" points="-4,4 -4,-341.8 1287,-341.8 1287,4 -4,4"/>
<text text-anchor="middle" x="641.5" y="-305" font-family="Arial" font-size="36.00" fill="blue">Reaction Path Analysis</text>
<!-- R160 -->
<g id="node1" class="node">
<title>R160</title>
<g id="a_node1"><a xlink:href="160.svg" xlink:title="R160">
<polygon fill="azure" stroke="none" points="693,-156.3 599,-156.3 599,-109.3 693,-109.3 693,-156.3"/>
<text text-anchor="middle" x="646" y="-124.3" font-family="Times New Roman,serif" font-size="35.00">R160</text>
</a>
</g>
</g>
<!-- R1 -->
<g id="node2" class="node">
<title>R1</title>
<g id="a_node2"><a xlink:href="1.svg" xlink:title="R1">
<polygon fill="azure" stroke="none" points="1274,-254.3 1216,-254.3 1216,-207.3 1274,-207.3 1274,-254.3"/>
<text text-anchor="middle" x="1245" y="-222.3" font-family="Times New Roman,serif" font-size="35.00">R1</text>
</a>
</g>
</g>
<!-- R160&#45;&gt;R1 -->
<g id="edge1" class="edge">
<title>R160&#45;&gt;R1</title>
<path fill="none" stroke="black" stroke-width="5" d="M660.73,-156.13C671.69,-172.35 688.64,-192.8 709.5,-202.8 873.13,-281.26 1098.15,-256.31 1195.68,-240.06"/>
<polygon fill="black" stroke="black" stroke-width="5" points="1191.88,-249.56 1210.06,-237.48 1188.85,-232.32 1191.88,-249.56"/>
<text text-anchor="middle" x="945.5" y="-265.8" font-family="Times New Roman,serif" font-size="30.00"> &#160;&#160;212 &#160;&#160;99% &#160;&#160;0.0693 mol/s &#160;&#160;&#160;6.17E&#45;06</text>
</g>
<!-- R68 -->
<g id="node3" class="node">
<title>R68</title>
<g id="a_node3"><a xlink:href="68.svg" xlink:title="R68">
<polygon fill="azure" stroke="none" points="1283,-189.3 1207,-189.3 1207,-142.3 1283,-142.3 1283,-189.3"/>
<text text-anchor="middle" x="1245" y="-157.3" font-family="Times New Roman,serif" font-size="35.00">R68</text>
</a>
</g>
</g>
<!-- R160&#45;&gt;R68 -->
<g id="edge2" class="edge">
<title>R160&#45;&gt;R68</title>
<path fill="none" stroke="black" stroke-width="5" d="M692.98,-141.61C698.53,-142.46 704.13,-143.22 709.5,-143.8 882.33,-162.48 1088.15,-165.61 1186.34,-165.94"/>
<polygon fill="black" stroke="black" stroke-width="5" points="1181.25,-174.69 1201.26,-165.97 1181.27,-157.19 1181.25,-174.69"/>
<text text-anchor="middle" x="945.5" y="-174.8" font-family="Times New Roman,serif" font-size="30.00"> &#160;&#160;212 &#160;&#160;99% &#160;&#160;0.0693 mol/s &#160;&#160;&#160;6.17E&#45;06</text>
</g>
<!-- R6 -->
<g id="node4" class="node">
<title>R6</title>
<g id="a_node4"><a xlink:href="6.svg" xlink:title="R6">
<polygon fill="azure" stroke="none" points="1274,-124.3 1216,-124.3 1216,-77.3 1274,-77.3 1274,-124.3"/>
<text text-anchor="middle" x="1245" y="-92.3" font-family="Times New Roman,serif" font-size="35.00">R6</text>
</a>
</g>
</g>
<!-- R160&#45;&gt;R6 -->
<g id="edge3" class="edge">
<title>R160&#45;&gt;R6</title>
<path fill="none" stroke="black" d="M692.97,-114.77C698.47,-113.17 704.07,-111.78 709.5,-110.8 892.59,-77.75 1116.69,-90.33 1205.3,-97.34"/>
<polygon fill="black" stroke="black" points="1204.9,-100.9 1215.16,-98.23 1205.47,-93.93 1204.9,-100.9"/>
<text text-anchor="middle" x="945.5" y="-119.8" font-family="Times New Roman,serif" font-size="30.00"> &#160;&#160;319 &#160;&#160;0% &#160;&#160;7.27e&#45;06 mol/s &#160;&#160;&#160;5.26E&#45;02</text>
</g>
<!-- R26 -->
<g id="node5" class="node">
<title>R26</title>
<g id="a_node5"><a xlink:href="26.svg" xlink:title="R26">
<polygon fill="azure" stroke="none" points="1283,-59.3 1207,-59.3 1207,-12.3 1283,-12.3 1283,-59.3"/>
<text text-anchor="middle" x="1245" y="-27.3" font-family="Times New Roman,serif" font-size="35.00">R26</text>
</a>
</g>
</g>
<!-- R160&#45;&gt;R26 -->
<g id="edge4" class="edge">
<title>R160&#45;&gt;R26</title>
<path fill="none" stroke="black" d="M657.94,-109.54C668.29,-90.51 685.77,-64.85 709.5,-52.8 871.72,29.54 1098.76,-4.21 1196.34,-24.57"/>
<polygon fill="black" stroke="black" points="1195.53,-28.19 1206.04,-26.86 1196.99,-21.35 1195.53,-28.19"/>
<text text-anchor="middle" x="945.5" y="-61.8" font-family="Times New Roman,serif" font-size="30.00"> &#160;&#160;319 &#160;&#160;0% &#160;&#160;7.27e&#45;06 mol/s &#160;&#160;&#160;5.26E&#45;02</text>
</g>
<!-- R146 -->
<g id="node6" class="node">
<title>R146</title>
<g id="a_node6"><a xlink:href="146.svg" xlink:title="R146">
<polygon fill="azure" stroke="none" points="94,-156.3 0,-156.3 0,-109.3 94,-109.3 94,-156.3"/>
<text text-anchor="middle" x="47" y="-124.3" font-family="Times New Roman,serif" font-size="35.00">R146</text>
</a>
</g>
</g>
<!-- R146&#45;&gt;R160 -->
<g id="edge5" class="edge">
<title>R146&#45;&gt;R160</title>
<path fill="none" stroke="black" d="M93.89,-138.18C96.97,-138.43 100.03,-138.64 103,-138.8 315.64,-150.36 372.07,-150.55 588.36,-138.77"/>
<polygon fill="black" stroke="black" points="588.32,-142.22 598.11,-138.18 587.94,-135.23 588.32,-142.22"/>
<text text-anchor="middle" x="346.5" y="-155.8" font-family="Times New Roman,serif" font-size="30.00"> &#160;&#160;670 &#160;&#160;0% &#160;&#160;0.000654 mol/s &#160;&#160;&#160;1.00E+00</text>
</g>
<!-- R146&#45;&gt;R160 -->
<g id="edge6" class="edge">
<title>R146&#45;&gt;R160</title>
<path fill="none" stroke="black" stroke-width="5" d="M83.56,-109.35C89.81,-106.23 96.43,-103.52 103,-101.8 306.12,-48.5 376.45,-46.91 589.42,-103.93"/>
<polygon fill="black" stroke="black" stroke-width="5" points="581.85,-111.57 603.44,-108.35 586.42,-94.68 581.85,-111.57"/>
<text text-anchor="middle" x="346.5" y="-110.8" font-family="Times New Roman,serif" font-size="30.00"> &#160;&#160;942 &#160;&#160;99% &#160;&#160;308.0 mol/s &#160;&#160;&#160;2.13E&#45;06</text>
</g>
</g>
</svg>
