<?xml version="1.0" encoding="UTF-8" standalone="no"?>
<!DOCTYPE svg PUBLIC "-//W3C//DTD SVG 1.1//EN"
 "http://www.w3.org/Graphics/SVG/1.1/DTD/svg11.dtd">
<!-- Generated by graphviz version 8.0.3 (20230416.2022)
 -->
<!-- Title: G Pages: 1 -->
<svg width="608pt" height="287pt"
 viewBox="0.00 0.00 684.00 323.41" xmlns="http://www.w3.org/2000/svg" xmlns:xlink="http://www.w3.org/1999/xlink">
<g id="graph0" class="graph" transform="scale(0.888889 0.888889) rotate(0) translate(4 319.41)">
<title>G</title>
<polygon fill="white" stroke="none" points="-4,4 -4,-319.41 680,-319.41 680,4 -4,4"/>
<text text-anchor="middle" x="338" y="-282.61" font-family="Arial" font-size="36.00" fill="blue">Reaction Path Analysis</text>
<!-- R161 -->
<g id="node1" class="node">
<title>R161</title>
<g id="a_node1"><a xlink:href="161.svg" xlink:title="R161">
<polygon fill="azure" stroke="none" points="94,-139.91 0,-139.91 0,-92.91 94,-92.91 94,-139.91"/>
<text text-anchor="middle" x="47" y="-107.91" font-family="Times New Roman,serif" font-size="35.00">R161</text>
</a>
</g>
</g>
<!-- R68 -->
<g id="node2" class="node">
<title>R68</title>
<g id="a_node2"><a xlink:href="68.svg" xlink:title="R68">
<polygon fill="azure" stroke="none" points="676,-232.91 600,-232.91 600,-185.91 676,-185.91 676,-232.91"/>
<text text-anchor="middle" x="638" y="-200.91" font-family="Times New Roman,serif" font-size="35.00">R68</text>
</a>
</g>
</g>
<!-- R161&#45;&gt;R68 -->
<g id="edge1" class="edge">
<title>R161&#45;&gt;R68</title>
<path fill="none" stroke="black" stroke-width="5" d="M61.66,-139.87C71.27,-154 85.52,-170.86 103,-179.41 261.16,-256.71 477.94,-235.97 579.77,-220"/>
<polygon fill="black" stroke="black" stroke-width="5" points="575.96,-229.51 594.26,-217.61 573.09,-212.24 575.96,-229.51"/>
<text text-anchor="middle" x="342.5" y="-243.41" font-family="Times New Roman,serif" font-size="30.00"> &#160;&#160;213 &#160;&#160;99% &#160;&#160;5.44 mol/s &#160;&#160;&#160;7.87E&#45;08</text>
</g>
<!-- R1 -->
<g id="node3" class="node">
<title>R1</title>
<g id="a_node3"><a xlink:href="1.svg" xlink:title="R1">
<polygon fill="azure" stroke="none" points="667,-167.91 609,-167.91 609,-120.91 667,-120.91 667,-167.91"/>
<text text-anchor="middle" x="638" y="-135.91" font-family="Times New Roman,serif" font-size="35.00">R1</text>
</a>
</g>
</g>
<!-- R161&#45;&gt;R1 -->
<g id="edge2" class="edge">
<title>R161&#45;&gt;R1</title>
<path fill="none" stroke="black" stroke-width="5" d="M93.89,-121.65C96.97,-121.93 100.03,-122.18 103,-122.41 281.65,-135.81 494.58,-141.51 588.46,-143.5"/>
<polygon fill="black" stroke="black" stroke-width="5" points="582.99,-152.26 603.17,-143.92 583.35,-134.77 582.99,-152.26"/>
<text text-anchor="middle" x="342.5" y="-151.41" font-family="Times New Roman,serif" font-size="30.00"> &#160;&#160;213 &#160;&#160;99% &#160;&#160;5.44 mol/s &#160;&#160;&#160;7.87E&#45;08</text>
</g>
<!-- R79 -->
<g id="node4" class="node">
<title>R79</title>
<g id="a_node4"><a xlink:href="79.svg" xlink:title="R79">
<polygon fill="azure" stroke="none" points="676,-79.91 600,-79.91 600,-32.91 676,-32.91 676,-79.91"/>
<text text-anchor="middle" x="638" y="-47.91" font-family="Times New Roman,serif" font-size="35.00">R79</text>
</a>
</g>
</g>
<!-- R161&#45;&gt;R79 -->
<g id="edge3" class="edge">
<title>R161&#45;&gt;R79</title>
<path fill="none" stroke="black" d="M83.92,-93.02C90.08,-89.95 96.57,-87.23 103,-85.41 205.48,-56.33 476.11,-78.07 582,-66.41 584.39,-66.14 586.83,-65.84 589.3,-65.5"/>
<polygon fill="black" stroke="black" points="589.77,-68.81 599.12,-63.84 588.71,-61.89 589.77,-68.81"/>
<text text-anchor="middle" x="342.5" y="-94.41" font-family="Times New Roman,serif" font-size="30.00"> &#160;&#160;683 &#160;&#160;0% &#160;&#160;0.000577 mol/s &#160;&#160;&#160;8.95E&#45;01</text>
</g>
<!-- R161&#45;&gt;R79 -->
<g id="edge4" class="edge">
<title>R161&#45;&gt;R79</title>
<path fill="none" stroke="black" d="M55.44,-93.11C63.5,-72.22 78.58,-42.86 103,-29.41 196.23,21.96 478.31,-5.33 582,-29.41 584.67,-30.03 587.37,-30.8 590.05,-31.68"/>
<polygon fill="black" stroke="black" points="588.69,-35.29 599.28,-35.57 591.18,-28.74 588.69,-35.29"/>
<text text-anchor="middle" x="342.5" y="-38.41" font-family="Times New Roman,serif" font-size="30.00"> &#160;&#160;908 &#160;&#160;0% &#160;&#160;0.00491 mol/s &#160;&#160;&#160;1.05E&#45;01</text>
</g>
</g>
</svg>
