<?xml version="1.0" encoding="UTF-8" standalone="no"?>
<!DOCTYPE svg PUBLIC "-//W3C//DTD SVG 1.1//EN"
 "http://www.w3.org/Graphics/SVG/1.1/DTD/svg11.dtd">
<!-- Generated by graphviz version 8.0.3 (20230416.2022)
 -->
<!-- Title: G Pages: 1 -->
<svg width="616pt" height="287pt"
 viewBox="0.00 0.00 693.00 323.10" xmlns="http://www.w3.org/2000/svg" xmlns:xlink="http://www.w3.org/1999/xlink">
<g id="graph0" class="graph" transform="scale(0.888889 0.888889) rotate(0) translate(4 319.1)">
<title>G</title>
<polygon fill="white" stroke="none" points="-4,4 -4,-319.1 689,-319.1 689,4 -4,4"/>
<text text-anchor="middle" x="342.5" y="-282.3" font-family="Arial" font-size="36.00" fill="blue">Reaction Path Analysis</text>
<!-- R162 -->
<g id="node1" class="node">
<title>R162</title>
<g id="a_node1"><a xlink:href="162.svg" xlink:title="R162">
<polygon fill="azure" stroke="none" points="94,-139.6 0,-139.6 0,-92.6 94,-92.6 94,-139.6"/>
<text text-anchor="middle" x="47" y="-107.6" font-family="Times New Roman,serif" font-size="35.00">R162</text>
</a>
</g>
</g>
<!-- R69 -->
<g id="node2" class="node">
<title>R69</title>
<g id="a_node2"><a xlink:href="69.svg" xlink:title="R69">
<polygon fill="azure" stroke="none" points="676,-232.6 600,-232.6 600,-185.6 676,-185.6 676,-232.6"/>
<text text-anchor="middle" x="638" y="-200.6" font-family="Times New Roman,serif" font-size="35.00">R69</text>
</a>
</g>
</g>
<!-- R162&#45;&gt;R69 -->
<g id="edge1" class="edge">
<title>R162&#45;&gt;R69</title>
<path fill="none" stroke="black" d="M61.66,-139.57C71.27,-153.7 85.52,-170.56 103,-179.1 266.47,-259 492.55,-234.16 589.62,-218.11"/>
<polygon fill="black" stroke="black" points="589.98,-221.43 599.26,-216.3 588.81,-214.53 589.98,-221.43"/>
<text text-anchor="middle" x="342.5" y="-243.1" font-family="Times New Roman,serif" font-size="30.00"> &#160;&#160;214 &#160;&#160;0% &#160;&#160;0.000648 mol/s &#160;&#160;&#160;6.59E&#45;04</text>
</g>
<!-- R1 -->
<g id="node3" class="node">
<title>R1</title>
<g id="a_node3"><a xlink:href="1.svg" xlink:title="R1">
<polygon fill="azure" stroke="none" points="667,-167.6 609,-167.6 609,-120.6 667,-120.6 667,-167.6"/>
<text text-anchor="middle" x="638" y="-135.6" font-family="Times New Roman,serif" font-size="35.00">R1</text>
</a>
</g>
</g>
<!-- R162&#45;&gt;R1 -->
<g id="edge2" class="edge">
<title>R162&#45;&gt;R1</title>
<path fill="none" stroke="black" d="M93.89,-121.34C96.97,-121.62 100.03,-121.88 103,-122.1 288.26,-136.01 510.38,-141.62 598.38,-143.4"/>
<polygon fill="black" stroke="black" points="598.1,-146.92 608.17,-143.62 598.24,-139.92 598.1,-146.92"/>
<text text-anchor="middle" x="342.5" y="-151.1" font-family="Times New Roman,serif" font-size="30.00"> &#160;&#160;214 &#160;&#160;0% &#160;&#160;0.000648 mol/s &#160;&#160;&#160;6.59E&#45;04</text>
</g>
<!-- R371 -->
<g id="node4" class="node">
<title>R371</title>
<g id="a_node4"><a xlink:href="371.svg" xlink:title="R371">
<polygon fill="azure" stroke="none" points="685,-79.6 591,-79.6 591,-32.6 685,-32.6 685,-79.6"/>
<text text-anchor="middle" x="638" y="-47.6" font-family="Times New Roman,serif" font-size="35.00">R371</text>
</a>
</g>
</g>
<!-- R162&#45;&gt;R371 -->
<g id="edge3" class="edge">
<title>R162&#45;&gt;R371</title>
<path fill="none" stroke="black" d="M83.92,-92.72C90.08,-89.64 96.57,-86.93 103,-85.1 202.38,-56.91 459.88,-76.5 580.29,-66.01"/>
<polygon fill="black" stroke="black" points="580.55,-69.4 590.15,-64.93 579.86,-62.43 580.55,-69.4"/>
<text text-anchor="middle" x="342.5" y="-94.1" font-family="Times New Roman,serif" font-size="30.00"> &#160;&#160;684 &#160;&#160;0% &#160;&#160;0.000652 mol/s &#160;&#160;&#160;9.97E&#45;01</text>
</g>
<!-- R162&#45;&gt;R371 -->
<g id="edge4" class="edge">
<title>R162&#45;&gt;R371</title>
<path fill="none" stroke="black" stroke-width="5" d="M55.44,-92.8C63.5,-71.92 78.58,-42.55 103,-29.1 191.13,19.45 448.03,-2.27 573.45,-28.17"/>
<polygon fill="black" stroke="black" stroke-width="5" points="566.42,-35.91 587.84,-31.7 570.21,-18.82 566.42,-35.91"/>
<text text-anchor="middle" x="342.5" y="-38.1" font-family="Times New Roman,serif" font-size="30.00"> &#160;&#160;1031 &#160;&#160;99% &#160;&#160;0.248 mol/s &#160;&#160;&#160;2.62E&#45;03</text>
</g>
</g>
</svg>
