<?xml version="1.0" encoding="UTF-8" standalone="no"?>
<!DOCTYPE svg PUBLIC "-//W3C//DTD SVG 1.1//EN"
 "http://www.w3.org/Graphics/SVG/1.1/DTD/svg11.dtd">
<!-- Generated by graphviz version 8.0.3 (20230416.2022)
 -->
<!-- Title: G Pages: 1 -->
<svg width="640pt" height="179pt"
 viewBox="0.00 0.00 720.00 201.90" xmlns="http://www.w3.org/2000/svg" xmlns:xlink="http://www.w3.org/1999/xlink">
<g id="graph0" class="graph" transform="scale(0.45584 0.45584) rotate(0) translate(4 389.7)">
<title>G</title>
<polygon fill="white" stroke="none" points="-4,4 -4,-389.7 1400,-389.7 1400,4 -4,4"/>
<text text-anchor="middle" x="698" y="-352.9" font-family="Arial" font-size="36.00" fill="blue">Reaction Path Analysis</text>
<!-- R164 -->
<g id="node1" class="node">
<title>R164</title>
<g id="a_node1"><a xlink:href="164.svg" xlink:title="R164">
<polygon fill="azure" stroke="none" points="745,-188.2 651,-188.2 651,-141.2 745,-141.2 745,-188.2"/>
<text text-anchor="middle" x="698" y="-156.2" font-family="Times New Roman,serif" font-size="35.00">R164</text>
</a>
</g>
</g>
<!-- R1 -->
<g id="node2" class="node">
<title>R1</title>
<g id="a_node2"><a xlink:href="1.svg" xlink:title="R1">
<polygon fill="azure" stroke="none" points="1378,-318.2 1320,-318.2 1320,-271.2 1378,-271.2 1378,-318.2"/>
<text text-anchor="middle" x="1349" y="-286.2" font-family="Times New Roman,serif" font-size="35.00">R1</text>
</a>
</g>
</g>
<!-- R164&#45;&gt;R1 -->
<g id="edge1" class="edge">
<title>R164&#45;&gt;R1</title>
<path fill="none" stroke="black" d="M710.26,-187.78C724.32,-213.72 751.04,-254.56 787.5,-272.7 879.16,-318.32 1198.41,-303.84 1309.52,-297.21"/>
<polygon fill="black" stroke="black" points="1309.45,-300.66 1319.22,-296.56 1309.02,-293.68 1309.45,-300.66"/>
<text text-anchor="middle" x="1023.5" y="-313.7" font-family="Times New Roman,serif" font-size="30.00"> &#160;&#160;216 &#160;&#160;0% &#160;&#160;0.00135 mol/s &#160;&#160;&#160;3.17E&#45;04</text>
</g>
<!-- R86 -->
<g id="node3" class="node">
<title>R86</title>
<g id="a_node3"><a xlink:href="86.svg" xlink:title="R86">
<polygon fill="azure" stroke="none" points="1387,-253.2 1311,-253.2 1311,-206.2 1387,-206.2 1387,-253.2"/>
<text text-anchor="middle" x="1349" y="-221.2" font-family="Times New Roman,serif" font-size="35.00">R86</text>
</a>
</g>
</g>
<!-- R164&#45;&gt;R86 -->
<g id="edge2" class="edge">
<title>R164&#45;&gt;R86</title>
<path fill="none" stroke="black" d="M744.85,-187.4C758.28,-193.08 773.21,-198.46 787.5,-201.7 973.46,-243.86 1202.67,-237.92 1300.32,-232.79"/>
<polygon fill="black" stroke="black" points="1300.22,-236.25 1310.01,-232.2 1299.84,-229.26 1300.22,-236.25"/>
<text text-anchor="middle" x="1023.5" y="-244.7" font-family="Times New Roman,serif" font-size="30.00"> &#160;&#160;216 &#160;&#160;0% &#160;&#160;0.00135 mol/s &#160;&#160;&#160;3.17E&#45;04</text>
</g>
<!-- R13 -->
<g id="node4" class="node">
<title>R13</title>
<g id="a_node4"><a xlink:href="13.svg" xlink:title="R13">
<polygon fill="azure" stroke="none" points="1387,-188.2 1311,-188.2 1311,-141.2 1387,-141.2 1387,-188.2"/>
<text text-anchor="middle" x="1349" y="-156.2" font-family="Times New Roman,serif" font-size="35.00">R13</text>
</a>
</g>
</g>
<!-- R164&#45;&gt;R13 -->
<g id="edge3" class="edge">
<title>R164&#45;&gt;R13</title>
<path fill="none" stroke="black" stroke-width="5" d="M744.89,-164.7C860.38,-164.7 1162.85,-164.7 1290.18,-164.7"/>
<polygon fill="black" stroke="black" stroke-width="5" points="1285.14,-173.45 1305.14,-164.7 1285.14,-155.95 1285.14,-173.45"/>
<text text-anchor="middle" x="1023.5" y="-173.7" font-family="Times New Roman,serif" font-size="30.00"> &#160;&#160;333 &#160;&#160;99% &#160;&#160;1.06 mol/s &#160;&#160;&#160;4.02E&#45;07</text>
</g>
<!-- R26 -->
<g id="node5" class="node">
<title>R26</title>
<g id="a_node5"><a xlink:href="26.svg" xlink:title="R26">
<polygon fill="azure" stroke="none" points="1387,-123.2 1311,-123.2 1311,-76.2 1387,-76.2 1387,-123.2"/>
<text text-anchor="middle" x="1349" y="-91.2" font-family="Times New Roman,serif" font-size="35.00">R26</text>
</a>
</g>
</g>
<!-- R164&#45;&gt;R26 -->
<g id="edge4" class="edge">
<title>R164&#45;&gt;R26</title>
<path fill="none" stroke="black" stroke-width="5" d="M744.85,-142C758.28,-136.33 773.21,-130.94 787.5,-127.7 967.24,-86.95 1187.37,-91.13 1290.08,-96.1"/>
<polygon fill="black" stroke="black" stroke-width="5" points="1284.58,-104.89 1305.01,-97.2 1285.5,-87.41 1284.58,-104.89"/>
<text text-anchor="middle" x="1023.5" y="-136.7" font-family="Times New Roman,serif" font-size="30.00"> &#160;&#160;333 &#160;&#160;99% &#160;&#160;1.06 mol/s &#160;&#160;&#160;4.02E&#45;07</text>
</g>
<!-- R167 -->
<g id="node7" class="node">
<title>R167</title>
<g id="a_node7"><a xlink:href="167.svg" xlink:title="R167">
<polygon fill="azure" stroke="none" points="1396,-58.2 1302,-58.2 1302,-11.2 1396,-11.2 1396,-58.2"/>
<text text-anchor="middle" x="1349" y="-26.2" font-family="Times New Roman,serif" font-size="35.00">R167</text>
</a>
</g>
</g>
<!-- R164&#45;&gt;R167 -->
<g id="edge6" class="edge">
<title>R164&#45;&gt;R167</title>
<path fill="none" stroke="black" d="M710.2,-141.4C724.2,-115.22 750.86,-74 787.5,-55.7 954.52,27.7 1185.73,-2.04 1291.32,-22.23"/>
<polygon fill="black" stroke="black" points="1290.56,-25.85 1301.04,-24.33 1291.9,-18.98 1290.56,-25.85"/>
<text text-anchor="middle" x="1023.5" y="-64.7" font-family="Times New Roman,serif" font-size="30.00"> &#160;&#160;825 &#160;&#160;0% &#160;&#160;2.86e&#45;07 mol/s &#160;&#160;&#160;7.51E&#45;01</text>
</g>
<!-- R351 -->
<g id="node6" class="node">
<title>R351</title>
<g id="a_node6"><a xlink:href="351.svg" xlink:title="R351">
<polygon fill="azure" stroke="none" points="94,-281.2 0,-281.2 0,-234.2 94,-234.2 94,-281.2"/>
<text text-anchor="middle" x="47" y="-249.2" font-family="Times New Roman,serif" font-size="35.00">R351</text>
</a>
</g>
</g>
<!-- R351&#45;&gt;R164 -->
<g id="edge5" class="edge">
<title>R351&#45;&gt;R164</title>
<path fill="none" stroke="black" stroke-width="5" d="M93.82,-267.1C197.65,-286.01 456.27,-319.53 642,-228.7 653.33,-223.16 663.25,-214.11 671.44,-204.54"/>
<polygon fill="black" stroke="black" stroke-width="5" points="675.89,-213.19 680.87,-191.94 661.88,-202.7 675.89,-213.19"/>
<text text-anchor="middle" x="372.5" y="-297.7" font-family="Times New Roman,serif" font-size="30.00"> &#160;&#160;589 &#160;&#160;99% &#160;&#160;110000000.0 mol/s &#160;&#160;&#160;3.90E&#45;15</text>
</g>
<!-- R349 -->
<g id="node8" class="node">
<title>R349</title>
<g id="a_node8"><a xlink:href="349.svg" xlink:title="R349">
<polygon fill="azure" stroke="none" points="94,-216.2 0,-216.2 0,-169.2 94,-169.2 94,-216.2"/>
<text text-anchor="middle" x="47" y="-184.2" font-family="Times New Roman,serif" font-size="35.00">R349</text>
</a>
</g>
</g>
<!-- R349&#45;&gt;R164 -->
<g id="edge7" class="edge">
<title>R349&#45;&gt;R164</title>
<path fill="none" stroke="black" d="M93.9,-192.12C192,-190.64 429.65,-185.76 640.15,-170.75"/>
<polygon fill="black" stroke="black" points="640.38,-174.17 650.11,-169.96 639.88,-167.19 640.38,-174.17"/>
<text text-anchor="middle" x="372.5" y="-200.7" font-family="Times New Roman,serif" font-size="30.00"> &#160;&#160;866 &#160;&#160;0% &#160;&#160;0.207 mol/s &#160;&#160;&#160;2.06E&#45;06</text>
</g>
<!-- R326 -->
<g id="node9" class="node">
<title>R326</title>
<g id="a_node9"><a xlink:href="326.svg" xlink:title="R326">
<polygon fill="azure" stroke="none" points="94,-128.2 0,-128.2 0,-81.2 94,-81.2 94,-128.2"/>
<text text-anchor="middle" x="47" y="-96.2" font-family="Times New Roman,serif" font-size="35.00">R326</text>
</a>
</g>
</g>
<!-- R326&#45;&gt;R164 -->
<g id="edge8" class="edge">
<title>R326&#45;&gt;R164</title>
<path fill="none" stroke="black" d="M93.84,-113.55C96.94,-113.99 100.01,-114.38 103,-114.7 222.16,-127.57 526.63,-101.24 642,-133.7 645.12,-134.58 648.25,-135.67 651.35,-136.9"/>
<polygon fill="black" stroke="black" points="649.53,-140.37 660.08,-141.29 652.41,-133.99 649.53,-140.37"/>
<text text-anchor="middle" x="372.5" y="-142.7" font-family="Times New Roman,serif" font-size="30.00"> &#160;&#160;943 &#160;&#160;0% &#160;&#160;1.1 mol/s &#160;&#160;&#160;5.93E&#45;04</text>
</g>
<!-- R326&#45;&gt;R164 -->
<g id="edge9" class="edge">
<title>R326&#45;&gt;R164</title>
<path fill="none" stroke="black" d="M91.16,-81.3C95.08,-79.85 99.06,-78.62 103,-77.7 336.35,-23.51 432.18,37.89 642,-77.7 662.7,-89.1 676.69,-111.94 685.38,-131.35"/>
<polygon fill="black" stroke="black" points="682.48,-132.51 689.56,-140.4 688.95,-129.83 682.48,-132.51"/>
<text text-anchor="middle" x="372.5" y="-86.7" font-family="Times New Roman,serif" font-size="30.00"> &#160;&#160;993 &#160;&#160;0% &#160;&#160;0.000654 mol/s &#160;&#160;&#160;9.99E&#45;01</text>
</g>
</g>
</svg>
