<?xml version="1.0" encoding="UTF-8" standalone="no"?>
<!DOCTYPE svg PUBLIC "-//W3C//DTD SVG 1.1//EN"
 "http://www.w3.org/Graphics/SVG/1.1/DTD/svg11.dtd">
<!-- Generated by graphviz version 8.0.3 (20230416.2022)
 -->
<!-- Title: G Pages: 1 -->
<svg width="640pt" height="160pt"
 viewBox="0.00 0.00 720.00 179.94" xmlns="http://www.w3.org/2000/svg" xmlns:xlink="http://www.w3.org/1999/xlink">
<g id="graph0" class="graph" transform="scale(0.492308 0.492308) rotate(0) translate(4 320.9)">
<title>G</title>
<polygon fill="white" stroke="none" points="-4,4 -4,-320.9 1296,-320.9 1296,4 -4,4"/>
<text text-anchor="middle" x="646" y="-284.1" font-family="Arial" font-size="36.00" fill="blue">Reaction Path Analysis</text>
<!-- R169 -->
<g id="node1" class="node">
<title>R169</title>
<g id="a_node1"><a xlink:href="169.svg" xlink:title="R169">
<polygon fill="azure" stroke="none" points="693,-140.4 599,-140.4 599,-93.4 693,-93.4 693,-140.4"/>
<text text-anchor="middle" x="646" y="-108.4" font-family="Times New Roman,serif" font-size="35.00">R169</text>
</a>
</g>
</g>
<!-- R88 -->
<g id="node2" class="node">
<title>R88</title>
<g id="a_node2"><a xlink:href="88.svg" xlink:title="R88">
<polygon fill="azure" stroke="none" points="1283,-233.4 1207,-233.4 1207,-186.4 1283,-186.4 1283,-233.4"/>
<text text-anchor="middle" x="1245" y="-201.4" font-family="Times New Roman,serif" font-size="35.00">R88</text>
</a>
</g>
</g>
<!-- R169&#45;&gt;R88 -->
<g id="edge1" class="edge">
<title>R169&#45;&gt;R88</title>
<path fill="none" stroke="black" stroke-width="5" d="M660.66,-140.37C670.27,-154.5 684.52,-171.36 702,-179.9 862.92,-258.46 1083.57,-236.92 1186.62,-220.6"/>
<polygon fill="black" stroke="black" stroke-width="5" points="1182.76,-230.12 1201.05,-218.19 1179.88,-212.85 1182.76,-230.12"/>
<text text-anchor="middle" x="945.5" y="-244.9" font-family="Times New Roman,serif" font-size="30.00"> &#160;&#160;221 &#160;&#160;99% &#160;&#160;24600.0 mol/s &#160;&#160;&#160;1.74E&#45;11</text>
</g>
<!-- R1 -->
<g id="node3" class="node">
<title>R1</title>
<g id="a_node3"><a xlink:href="1.svg" xlink:title="R1">
<polygon fill="azure" stroke="none" points="1274,-168.4 1216,-168.4 1216,-121.4 1274,-121.4 1274,-168.4"/>
<text text-anchor="middle" x="1245" y="-136.4" font-family="Times New Roman,serif" font-size="35.00">R1</text>
</a>
</g>
</g>
<!-- R169&#45;&gt;R1 -->
<g id="edge2" class="edge">
<title>R169&#45;&gt;R1</title>
<path fill="none" stroke="black" stroke-width="5" d="M692.89,-122.14C695.97,-122.42 699.03,-122.67 702,-122.9 883.54,-136.47 1099.97,-142.09 1195.07,-144.03"/>
<polygon fill="black" stroke="black" stroke-width="5" points="1189.87,-152.79 1210.04,-144.43 1190.21,-135.3 1189.87,-152.79"/>
<text text-anchor="middle" x="945.5" y="-151.9" font-family="Times New Roman,serif" font-size="30.00"> &#160;&#160;221 &#160;&#160;99% &#160;&#160;24600.0 mol/s &#160;&#160;&#160;1.74E&#45;11</text>
</g>
<!-- R277 -->
<g id="node5" class="node">
<title>R277</title>
<g id="a_node5"><a xlink:href="277.svg" xlink:title="R277">
<polygon fill="azure" stroke="none" points="1292,-80.4 1198,-80.4 1198,-33.4 1292,-33.4 1292,-80.4"/>
<text text-anchor="middle" x="1245" y="-48.4" font-family="Times New Roman,serif" font-size="35.00">R277</text>
</a>
</g>
</g>
<!-- R169&#45;&gt;R277 -->
<g id="edge4" class="edge">
<title>R169&#45;&gt;R277</title>
<path fill="none" stroke="black" d="M682.92,-93.51C689.08,-90.43 695.57,-87.72 702,-85.9 803.15,-57.23 1065.37,-77.46 1187.49,-66.78"/>
<polygon fill="black" stroke="black" points="1187.55,-70.2 1197.15,-65.73 1186.86,-63.23 1187.55,-70.2"/>
<text text-anchor="middle" x="945.5" y="-94.9" font-family="Times New Roman,serif" font-size="30.00"> &#160;&#160;689 &#160;&#160;0% &#160;&#160;0.000654 mol/s &#160;&#160;&#160;1.00E+00</text>
</g>
<!-- R169&#45;&gt;R277 -->
<g id="edge5" class="edge">
<title>R169&#45;&gt;R277</title>
<path fill="none" stroke="black" d="M654.44,-93.6C662.5,-72.71 677.58,-43.35 702,-29.9 796.79,22.32 1083.58,-5.42 1189,-29.9 1189.49,-30.01 1189.99,-30.13 1190.48,-30.25"/>
<polygon fill="black" stroke="black" points="1189.25,-33.85 1199.84,-33.49 1191.34,-27.17 1189.25,-33.85"/>
<text text-anchor="middle" x="945.5" y="-38.9" font-family="Times New Roman,serif" font-size="30.00"> &#160;&#160;970 &#160;&#160;0% &#160;&#160;14.7 mol/s &#160;&#160;&#160;4.44E&#45;05</text>
</g>
<!-- R211 -->
<g id="node4" class="node">
<title>R211</title>
<g id="a_node4"><a xlink:href="211.svg" xlink:title="R211">
<polygon fill="azure" stroke="none" points="94,-140.4 0,-140.4 0,-93.4 94,-93.4 94,-140.4"/>
<text text-anchor="middle" x="47" y="-108.4" font-family="Times New Roman,serif" font-size="35.00">R211</text>
</a>
</g>
</g>
<!-- R211&#45;&gt;R169 -->
<g id="edge3" class="edge">
<title>R211&#45;&gt;R169</title>
<path fill="none" stroke="black" stroke-width="6" d="M93.85,-116.9C198.71,-116.9 456.33,-116.9 578.56,-116.9"/>
<polygon fill="black" stroke="black" stroke-width="6" points="573.4,-127.4 593.4,-116.9 573.4,-106.4 573.4,-127.4"/>
<text text-anchor="middle" x="346.5" y="-125.9" font-family="Times New Roman,serif" font-size="30.00"> &#160;&#160;510 &#160;&#160;100% &#160;&#160;4.2e&#45;07 mol/s &#160;&#160;&#160;3.35E&#45;01</text>
</g>
</g>
</svg>
