<?xml version="1.0" encoding="UTF-8" standalone="no"?>
<!DOCTYPE svg PUBLIC "-//W3C//DTD SVG 1.1//EN"
 "http://www.w3.org/Graphics/SVG/1.1/DTD/svg11.dtd">
<!-- Generated by graphviz version 8.0.3 (20230416.2022)
 -->
<!-- Title: G Pages: 1 -->
<svg width="616pt" height="590pt"
 viewBox="0.00 0.00 693.00 664.09" xmlns="http://www.w3.org/2000/svg" xmlns:xlink="http://www.w3.org/1999/xlink">
<g id="graph0" class="graph" transform="scale(0.888889 0.888889) rotate(0) translate(4 660.09)">
<title>G</title>
<polygon fill="white" stroke="none" points="-4,4 -4,-660.09 689,-660.09 689,4 -4,4"/>
<text text-anchor="middle" x="342.5" y="-623.29" font-family="Arial" font-size="36.00" fill="blue">Reaction Path Analysis</text>
<!-- R170 -->
<g id="node1" class="node">
<title>R170</title>
<g id="a_node1"><a xlink:href="170.svg" xlink:title="R170">
<polygon fill="azure" stroke="none" points="94,-313.59 0,-313.59 0,-266.59 94,-266.59 94,-313.59"/>
<text text-anchor="middle" x="47" y="-281.59" font-family="Times New Roman,serif" font-size="35.00">R170</text>
</a>
</g>
</g>
<!-- R1 -->
<g id="node2" class="node">
<title>R1</title>
<g id="a_node2"><a xlink:href="1.svg" xlink:title="R1">
<polygon fill="azure" stroke="none" points="667,-583.59 609,-583.59 609,-536.59 667,-536.59 667,-583.59"/>
<text text-anchor="middle" x="638" y="-551.59" font-family="Times New Roman,serif" font-size="35.00">R1</text>
</a>
</g>
</g>
<!-- R170&#45;&gt;R1 -->
<g id="edge1" class="edge">
<title>R170&#45;&gt;R1</title>
<path fill="none" stroke="black" d="M49.78,-313.39C54.5,-368.59 69.4,-504.83 103,-533.09 177.53,-595.78 488.62,-573.84 598.42,-563.89"/>
<polygon fill="black" stroke="black" points="598.67,-567.29 608.3,-562.88 598.02,-560.32 598.67,-567.29"/>
<text text-anchor="middle" x="342.5" y="-584.09" font-family="Times New Roman,serif" font-size="30.00"> &#160;&#160;222 &#160;&#160;1% &#160;&#160;0.00248 mol/s &#160;&#160;&#160;1.73E&#45;04</text>
</g>
<!-- R89 -->
<g id="node3" class="node">
<title>R89</title>
<g id="a_node3"><a xlink:href="89.svg" xlink:title="R89">
<polygon fill="azure" stroke="none" points="676,-518.59 600,-518.59 600,-471.59 676,-471.59 676,-518.59"/>
<text text-anchor="middle" x="638" y="-486.59" font-family="Times New Roman,serif" font-size="35.00">R89</text>
</a>
</g>
</g>
<!-- R170&#45;&gt;R89 -->
<g id="edge2" class="edge">
<title>R170&#45;&gt;R89</title>
<path fill="none" stroke="black" d="M47.42,-313.51C47.87,-352.68 55.12,-430.87 103,-468.09 140.88,-497.54 465.9,-497.03 589.54,-495.74"/>
<polygon fill="black" stroke="black" points="589.21,-499.24 599.17,-495.63 589.13,-492.24 589.21,-499.24"/>
<text text-anchor="middle" x="342.5" y="-505.09" font-family="Times New Roman,serif" font-size="30.00"> &#160;&#160;222 &#160;&#160;1% &#160;&#160;0.00248 mol/s &#160;&#160;&#160;1.73E&#45;04</text>
</g>
<!-- R14 -->
<g id="node4" class="node">
<title>R14</title>
<g id="a_node4"><a xlink:href="14.svg" xlink:title="R14">
<polygon fill="azure" stroke="none" points="676,-453.59 600,-453.59 600,-406.59 676,-406.59 676,-453.59"/>
<text text-anchor="middle" x="638" y="-421.59" font-family="Times New Roman,serif" font-size="35.00">R14</text>
</a>
</g>
</g>
<!-- R170&#45;&gt;R14 -->
<g id="edge3" class="edge">
<title>R170&#45;&gt;R14</title>
<path fill="none" stroke="black" d="M51.53,-313.39C57.1,-341.2 70.84,-386.65 103,-408.09 142.87,-434.66 466.03,-432.68 589.39,-430.92"/>
<polygon fill="black" stroke="black" points="589.4,-434.4 599.34,-430.75 589.29,-427.4 589.4,-434.4"/>
<text text-anchor="middle" x="342.5" y="-440.09" font-family="Times New Roman,serif" font-size="30.00"> &#160;&#160;378 &#160;&#160;9% &#160;&#160;0.0206 mol/s &#160;&#160;&#160;2.08E&#45;05</text>
</g>
<!-- R26 -->
<g id="node5" class="node">
<title>R26</title>
<g id="a_node5"><a xlink:href="26.svg" xlink:title="R26">
<polygon fill="azure" stroke="none" points="676,-388.59 600,-388.59 600,-341.59 676,-341.59 676,-388.59"/>
<text text-anchor="middle" x="638" y="-356.59" font-family="Times New Roman,serif" font-size="35.00">R26</text>
</a>
</g>
</g>
<!-- R170&#45;&gt;R26 -->
<g id="edge4" class="edge">
<title>R170&#45;&gt;R26</title>
<path fill="none" stroke="black" d="M65.45,-313.5C75.15,-324.59 88.25,-336.78 103,-343.09 189.7,-380.15 475.29,-372.23 589.34,-367.39"/>
<polygon fill="black" stroke="black" points="589.31,-370.85 599.15,-366.92 589.01,-363.86 589.31,-370.85"/>
<text text-anchor="middle" x="342.5" y="-380.09" font-family="Times New Roman,serif" font-size="30.00"> &#160;&#160;378 &#160;&#160;9% &#160;&#160;0.0206 mol/s &#160;&#160;&#160;2.08E&#45;05</text>
</g>
<!-- R65 -->
<g id="node6" class="node">
<title>R65</title>
<g id="a_node6"><a xlink:href="65.svg" xlink:title="R65">
<polygon fill="azure" stroke="none" points="676,-311.59 600,-311.59 600,-264.59 676,-264.59 676,-311.59"/>
<text text-anchor="middle" x="638" y="-279.59" font-family="Times New Roman,serif" font-size="35.00">R65</text>
</a>
</g>
</g>
<!-- R170&#45;&gt;R65 -->
<g id="edge5" class="edge">
<title>R170&#45;&gt;R65</title>
<path fill="none" stroke="black" d="M93.89,-295.47C96.97,-295.72 100.03,-295.93 103,-296.09 315.57,-307.65 369.67,-311.45 582,-296.09 584.38,-295.92 586.82,-295.7 589.28,-295.46"/>
<polygon fill="black" stroke="black" points="589.57,-298.83 599.1,-294.2 588.76,-291.88 589.57,-298.83"/>
<text text-anchor="middle" x="342.5" y="-315.09" font-family="Times New Roman,serif" font-size="30.00"> &#160;&#160;451 &#160;&#160;0% &#160;&#160;0.00107 mol/s &#160;&#160;&#160;2.75E&#45;01</text>
</g>
<!-- R170&#45;&gt;R65 -->
<g id="edge8" class="edge">
<title>R170&#45;&gt;R65</title>
<path fill="none" stroke="black" d="M83.56,-266.63C89.81,-263.52 96.43,-260.81 103,-259.09 154.48,-245.58 530.34,-246.3 582,-259.09 584.66,-259.75 587.33,-260.56 589.99,-261.49"/>
<polygon fill="black" stroke="black" points="588.51,-265.07 599.1,-265.58 591.14,-258.58 588.51,-265.07"/>
<text text-anchor="middle" x="342.5" y="-268.09" font-family="Times New Roman,serif" font-size="30.00"> &#160;&#160;690 &#160;&#160;0% &#160;&#160;0.000406 mol/s &#160;&#160;&#160;7.25E&#45;01</text>
</g>
<!-- R173 -->
<g id="node7" class="node">
<title>R173</title>
<g id="a_node7"><a xlink:href="173.svg" xlink:title="R173">
<polygon fill="azure" stroke="none" points="685,-234.59 591,-234.59 591,-187.59 685,-187.59 685,-234.59"/>
<text text-anchor="middle" x="638" y="-202.59" font-family="Times New Roman,serif" font-size="35.00">R173</text>
</a>
</g>
</g>
<!-- R170&#45;&gt;R173 -->
<g id="edge6" class="edge">
<title>R170&#45;&gt;R173</title>
<path fill="none" stroke="black" d="M57.14,-266.94C65.85,-248.36 80.95,-223.55 103,-212.09 184.57,-169.7 460.2,-192.38 580.29,-204.76"/>
<polygon fill="black" stroke="black" points="579.76,-208.33 590.07,-205.89 580.49,-201.37 579.76,-208.33"/>
<text text-anchor="middle" x="342.5" y="-221.09" font-family="Times New Roman,serif" font-size="30.00"> &#160;&#160;511 &#160;&#160;0% &#160;&#160;4.26e&#45;07 mol/s &#160;&#160;&#160;9.97E&#45;01</text>
</g>
<!-- R284 -->
<g id="node8" class="node">
<title>R284</title>
<g id="a_node8"><a xlink:href="284.svg" xlink:title="R284">
<polygon fill="azure" stroke="none" points="685,-169.59 591,-169.59 591,-122.59 685,-122.59 685,-169.59"/>
<text text-anchor="middle" x="638" y="-137.59" font-family="Times New Roman,serif" font-size="35.00">R284</text>
</a>
</g>
</g>
<!-- R170&#45;&gt;R284 -->
<g id="edge7" class="edge">
<title>R170&#45;&gt;R284</title>
<path fill="none" stroke="black" d="M49.51,-266.62C53,-234.13 64.58,-176.48 103,-150.09 141.52,-123.62 450.6,-136.36 580.17,-142.97"/>
<polygon fill="black" stroke="black" points="579.86,-146.51 590.03,-143.53 580.22,-139.52 579.86,-146.51"/>
<text text-anchor="middle" x="342.5" y="-159.09" font-family="Times New Roman,serif" font-size="30.00"> &#160;&#160;512 &#160;&#160;0% &#160;&#160;3.97e&#45;07 mol/s &#160;&#160;&#160;9.34E&#45;01</text>
</g>
<!-- R134 -->
<g id="node9" class="node">
<title>R134</title>
<g id="a_node9"><a xlink:href="134.svg" xlink:title="R134">
<polygon fill="azure" stroke="none" points="685,-81.59 591,-81.59 591,-34.59 685,-34.59 685,-81.59"/>
<text text-anchor="middle" x="638" y="-49.59" font-family="Times New Roman,serif" font-size="35.00">R134</text>
</a>
</g>
</g>
<!-- R170&#45;&gt;R134 -->
<g id="edge9" class="edge">
<title>R170&#45;&gt;R134</title>
<path fill="none" stroke="black" d="M51.22,-266.63C58.18,-219.82 76.16,-117.45 103,-96.09 142.74,-64.46 494,-78.54 580.46,-71.64"/>
<polygon fill="black" stroke="black" points="580.66,-75.03 590.22,-70.47 579.9,-68.07 580.66,-75.03"/>
<text text-anchor="middle" x="342.5" y="-105.09" font-family="Times New Roman,serif" font-size="30.00"> &#160;&#160;691 &#160;&#160;0% &#160;&#160;0.000652 mol/s &#160;&#160;&#160;9.96E&#45;01</text>
</g>
<!-- R170&#45;&gt;R134 -->
<g id="edge10" class="edge">
<title>R170&#45;&gt;R134</title>
<path fill="none" stroke="black" stroke-width="5" d="M49.41,-266.81C53.41,-209.51 66.97,-64.18 103,-35.09 181.21,28.05 445.8,-9.38 570.65,-33.32"/>
<polygon fill="black" stroke="black" stroke-width="5" points="563.89,-41.09 585.21,-36.39 567.29,-23.92 563.89,-41.09"/>
<text text-anchor="middle" x="342.5" y="-44.09" font-family="Times New Roman,serif" font-size="30.00"> &#160;&#160;933 &#160;&#160;88% &#160;&#160;0.185 mol/s &#160;&#160;&#160;3.51E&#45;03</text>
</g>
</g>
</svg>
