<?xml version="1.0" encoding="UTF-8" standalone="no"?>
<!DOCTYPE svg PUBLIC "-//W3C//DTD SVG 1.1//EN"
 "http://www.w3.org/Graphics/SVG/1.1/DTD/svg11.dtd">
<!-- Generated by graphviz version 8.0.3 (20230416.2022)
 -->
<!-- Title: G Pages: 1 -->
<svg width="640pt" height="130pt"
 viewBox="0.00 0.00 720.00 146.46" xmlns="http://www.w3.org/2000/svg" xmlns:xlink="http://www.w3.org/1999/xlink">
<g id="graph0" class="graph" transform="scale(0.507534 0.507534) rotate(0) translate(4 252.5)">
<title>G</title>
<polygon fill="white" stroke="none" points="-4,4 -4,-252.5 1257,-252.5 1257,4 -4,4"/>
<text text-anchor="middle" x="626.5" y="-215.7" font-family="Arial" font-size="36.00" fill="blue">Reaction Path Analysis</text>
<!-- R177 -->
<g id="node1" class="node">
<title>R177</title>
<g id="a_node1"><a xlink:href="177.svg" xlink:title="R177">
<polygon fill="azure" stroke="none" points="678,-112 584,-112 584,-65 678,-65 678,-112"/>
<text text-anchor="middle" x="631" y="-80" font-family="Times New Roman,serif" font-size="35.00">R177</text>
</a>
</g>
</g>
<!-- R15 -->
<g id="node2" class="node">
<title>R15</title>
<g id="a_node2"><a xlink:href="15.svg" xlink:title="R15">
<polygon fill="azure" stroke="none" points="1253,-145 1177,-145 1177,-98 1253,-98 1253,-145"/>
<text text-anchor="middle" x="1215" y="-113" font-family="Times New Roman,serif" font-size="35.00">R15</text>
</a>
</g>
</g>
<!-- R177&#45;&gt;R15 -->
<g id="edge1" class="edge">
<title>R177&#45;&gt;R15</title>
<path fill="none" stroke="black" stroke-width="6" d="M677.7,-96.05C687.04,-97.38 696.82,-98.62 706,-99.5 868.74,-115.08 1061.87,-119.63 1156.26,-120.96"/>
<polygon fill="black" stroke="black" stroke-width="6" points="1151.12,-131.47 1171.25,-121.22 1151.39,-110.47 1151.12,-131.47"/>
<text text-anchor="middle" x="923" y="-129.5" font-family="Times New Roman,serif" font-size="30.00"> &#160;&#160;230 &#160;&#160;100% &#160;&#160;1.7 mol/s &#160;&#160;&#160;2.52E&#45;07</text>
</g>
<!-- R2 -->
<g id="node3" class="node">
<title>R2</title>
<g id="a_node3"><a xlink:href="2.svg" xlink:title="R2">
<polygon fill="azure" stroke="none" points="1244,-80 1186,-80 1186,-33 1244,-33 1244,-80"/>
<text text-anchor="middle" x="1215" y="-48" font-family="Times New Roman,serif" font-size="35.00">R2</text>
</a>
</g>
</g>
<!-- R177&#45;&gt;R2 -->
<g id="edge2" class="edge">
<title>R177&#45;&gt;R2</title>
<path fill="none" stroke="black" stroke-width="6" d="M677.75,-72.82C687,-70.24 696.73,-67.94 706,-66.5 872.96,-40.53 1074.47,-47.82 1165.36,-53.14"/>
<polygon fill="black" stroke="black" stroke-width="6" points="1159.62,-63.68 1180.24,-54.45 1160.93,-42.72 1159.62,-63.68"/>
<text text-anchor="middle" x="923" y="-75.5" font-family="Times New Roman,serif" font-size="30.00"> &#160;&#160;230 &#160;&#160;100% &#160;&#160;1.7 mol/s &#160;&#160;&#160;2.52E&#45;07</text>
</g>
<!-- R0 -->
<g id="node4" class="node">
<title>R0</title>
<g id="a_node4"><a xlink:href="0.svg" xlink:title="R0">
<polygon fill="azure" stroke="none" points="76,-177 18,-177 18,-130 76,-130 76,-177"/>
<text text-anchor="middle" x="47" y="-145" font-family="Times New Roman,serif" font-size="35.00">R0</text>
</a>
</g>
</g>
<!-- R0&#45;&gt;R177 -->
<g id="edge3" class="edge">
<title>R0&#45;&gt;R177</title>
<path fill="none" stroke="black" d="M75.83,-157.09C155.93,-166.36 392.96,-186.36 575,-125.5 580.94,-123.51 586.85,-120.7 592.46,-117.5"/>
<polygon fill="black" stroke="black" points="593.94,-120.07 600.58,-111.82 590.24,-114.13 593.94,-120.07"/>
<text text-anchor="middle" x="339" y="-176.5" font-family="Times New Roman,serif" font-size="30.00"> &#160;&#160;480 &#160;&#160;0% &#160;&#160;2.59e&#45;07 mol/s &#160;&#160;&#160;7.18E&#45;01</text>
</g>
<!-- R109 -->
<g id="node5" class="node">
<title>R109</title>
<g id="a_node5"><a xlink:href="109.svg" xlink:title="R109">
<polygon fill="azure" stroke="none" points="94,-112 0,-112 0,-65 94,-65 94,-112"/>
<text text-anchor="middle" x="47" y="-80" font-family="Times New Roman,serif" font-size="35.00">R109</text>
</a>
</g>
</g>
<!-- R109&#45;&gt;R177 -->
<g id="edge4" class="edge">
<title>R109&#45;&gt;R177</title>
<path fill="none" stroke="black" d="M93.67,-88.5C198.94,-88.5 458.39,-88.5 573.47,-88.5"/>
<polygon fill="black" stroke="black" points="573.14,-92 583.14,-88.5 573.14,-85 573.14,-92"/>
<text text-anchor="middle" x="339" y="-97.5" font-family="Times New Roman,serif" font-size="30.00"> &#160;&#160;480 &#160;&#160;0% &#160;&#160;2.59e&#45;07 mol/s &#160;&#160;&#160;7.18E&#45;01</text>
</g>
<!-- R353 -->
<g id="node6" class="node">
<title>R353</title>
<g id="a_node6"><a xlink:href="353.svg" xlink:title="R353">
<polygon fill="azure" stroke="none" points="94,-47 0,-47 0,0 94,0 94,-47"/>
<text text-anchor="middle" x="47" y="-15" font-family="Times New Roman,serif" font-size="35.00">R353</text>
</a>
</g>
</g>
<!-- R353&#45;&gt;R177 -->
<g id="edge5" class="edge">
<title>R353&#45;&gt;R177</title>
<path fill="none" stroke="black" stroke-width="5" d="M93.92,-17.94C187.36,-8.33 405.12,5.29 575,-51.5 577.9,-52.47 580.79,-53.64 583.64,-54.95"/>
<polygon fill="black" stroke="black" stroke-width="5" points="574.87,-59.87 596.58,-62.18 583.54,-44.67 574.87,-59.87"/>
<text text-anchor="middle" x="339" y="-60.5" font-family="Times New Roman,serif" font-size="30.00"> &#160;&#160;592 &#160;&#160;99% &#160;&#160;0.0624 mol/s &#160;&#160;&#160;6.86E&#45;06</text>
</g>
</g>
</svg>
