<?xml version="1.0" encoding="UTF-8" standalone="no"?>
<!DOCTYPE svg PUBLIC "-//W3C//DTD SVG 1.1//EN"
 "http://www.w3.org/Graphics/SVG/1.1/DTD/svg11.dtd">
<!-- Generated by graphviz version 8.0.3 (20230416.2022)
 -->
<!-- Title: G Pages: 1 -->
<svg width="640pt" height="288pt"
 viewBox="0.00 0.00 720.00 323.60" xmlns="http://www.w3.org/2000/svg" xmlns:xlink="http://www.w3.org/1999/xlink">
<g id="graph0" class="graph" transform="scale(0.490421 0.490421) rotate(0) translate(4 582.53)">
<title>G</title>
<polygon fill="white" stroke="none" points="-4,4 -4,-582.53 1301,-582.53 1301,4 -4,4"/>
<text text-anchor="middle" x="648.5" y="-545.73" font-family="Arial" font-size="36.00" fill="blue">Reaction Path Analysis</text>
<!-- R18 -->
<g id="node1" class="node">
<title>R18</title>
<g id="a_node1"><a xlink:href="18.svg" xlink:title="R18">
<polygon fill="azure" stroke="none" points="691,-280.03 615,-280.03 615,-233.03 691,-233.03 691,-280.03"/>
<text text-anchor="middle" x="653" y="-248.03" font-family="Times New Roman,serif" font-size="35.00">R18</text>
</a>
</g>
</g>
<!-- R5 -->
<g id="node2" class="node">
<title>R5</title>
<g id="a_node2"><a xlink:href="5.svg" xlink:title="R5">
<polygon fill="azure" stroke="none" points="1288,-373.03 1230,-373.03 1230,-326.03 1288,-326.03 1288,-373.03"/>
<text text-anchor="middle" x="1259" y="-341.03" font-family="Times New Roman,serif" font-size="35.00">R5</text>
</a>
</g>
</g>
<!-- R18&#45;&gt;R5 -->
<g id="edge1" class="edge">
<title>R18&#45;&gt;R5</title>
<path fill="none" stroke="black" d="M669.97,-279.74C681.19,-293.95 697.53,-311.01 716.5,-319.53 890.25,-397.62 1127.57,-371.02 1219.47,-356.43"/>
<polygon fill="black" stroke="black" points="1219.89,-359.74 1229.19,-354.68 1218.76,-352.84 1219.89,-359.74"/>
<text text-anchor="middle" x="956" y="-381.53" font-family="Times New Roman,serif" font-size="30.00"> &#160;&#160;21 &#160;&#160;0% &#160;&#160;4.9e&#45;06 mol/s &#160;&#160;&#160;7.43E&#45;02</text>
</g>
<!-- R1 -->
<g id="node3" class="node">
<title>R1</title>
<g id="a_node3"><a xlink:href="1.svg" xlink:title="R1">
<polygon fill="azure" stroke="none" points="1288,-308.03 1230,-308.03 1230,-261.03 1288,-261.03 1288,-308.03"/>
<text text-anchor="middle" x="1259" y="-276.03" font-family="Times New Roman,serif" font-size="35.00">R1</text>
</a>
</g>
</g>
<!-- R18&#45;&gt;R1 -->
<g id="edge2" class="edge">
<title>R18&#45;&gt;R1</title>
<path fill="none" stroke="black" d="M690.99,-260.42C699.37,-261.21 708.23,-261.97 716.5,-262.53 904.67,-275.38 1130.18,-281.6 1219.17,-283.69"/>
<polygon fill="black" stroke="black" points="1218.99,-287.21 1229.07,-283.94 1219.16,-280.21 1218.99,-287.21"/>
<text text-anchor="middle" x="956" y="-291.53" font-family="Times New Roman,serif" font-size="30.00"> &#160;&#160;21 &#160;&#160;0% &#160;&#160;4.9e&#45;06 mol/s &#160;&#160;&#160;7.43E&#45;02</text>
</g>
<!-- R89 -->
<g id="node11" class="node">
<title>R89</title>
<g id="a_node11"><a xlink:href="89.svg" xlink:title="R89">
<polygon fill="azure" stroke="none" points="1297,-220.03 1221,-220.03 1221,-173.03 1297,-173.03 1297,-220.03"/>
<text text-anchor="middle" x="1259" y="-188.03" font-family="Times New Roman,serif" font-size="35.00">R89</text>
</a>
</g>
</g>
<!-- R18&#45;&gt;R89 -->
<g id="edge10" class="edge">
<title>R18&#45;&gt;R89</title>
<path fill="none" stroke="black" d="M690.68,-235.17C698.93,-231.28 707.82,-227.75 716.5,-225.53 819.72,-199.17 1089.5,-217.08 1195.5,-206.53 1200.3,-206.05 1205.3,-205.45 1210.28,-204.77"/>
<polygon fill="black" stroke="black" points="1210.69,-208.1 1220.08,-203.19 1209.68,-201.17 1210.69,-208.1"/>
<text text-anchor="middle" x="956" y="-234.53" font-family="Times New Roman,serif" font-size="30.00"> &#160;&#160;422 &#160;&#160;4% &#160;&#160;0.000625 mol/s &#160;&#160;&#160;9.58E&#45;01</text>
</g>
<!-- R18&#45;&gt;R89 -->
<g id="edge11" class="edge">
<title>R18&#45;&gt;R89</title>
<path fill="none" stroke="black" stroke-width="5" d="M663.34,-233.14C673.12,-212.18 690.69,-182.77 716.5,-169.53 905.93,-72.38 987.02,-126.43 1195.5,-169.53 1197.51,-169.95 1199.53,-170.43 1201.56,-170.97"/>
<polygon fill="black" stroke="black" stroke-width="5" points="1194.38,-177.47 1216.14,-175.68 1200.05,-160.92 1194.38,-177.47"/>
<text text-anchor="middle" x="956" y="-178.53" font-family="Times New Roman,serif" font-size="30.00"> &#160;&#160;476 &#160;&#160;95% &#160;&#160;0.0142 mol/s &#160;&#160;&#160;4.22E&#45;02</text>
</g>
<!-- R32 -->
<g id="node4" class="node">
<title>R32</title>
<g id="a_node4"><a xlink:href="32.svg" xlink:title="R32">
<polygon fill="azure" stroke="none" points="85,-475.03 9,-475.03 9,-428.03 85,-428.03 85,-475.03"/>
<text text-anchor="middle" x="47" y="-443.03" font-family="Times New Roman,serif" font-size="35.00">R32</text>
</a>
</g>
</g>
<!-- R32&#45;&gt;R18 -->
<g id="edge3" class="edge">
<title>R32&#45;&gt;R18</title>
<path fill="none" stroke="black" d="M84.76,-462.39C180.46,-488.25 440.71,-542.79 597,-423.53 637.97,-392.27 648.82,-329.61 651.46,-290.56"/>
<polygon fill="black" stroke="black" points="655,-290.91 652.03,-280.74 648.01,-290.54 655,-290.91"/>
<text text-anchor="middle" x="350" y="-506.53" font-family="Times New Roman,serif" font-size="30.00"> &#160;&#160;105 &#160;&#160;0% &#160;&#160;6.4e&#45;06 mol/s &#160;&#160;&#160;5.89E&#45;02</text>
</g>
<!-- R47 -->
<g id="node5" class="node">
<title>R47</title>
<g id="a_node5"><a xlink:href="47.svg" xlink:title="R47">
<polygon fill="azure" stroke="none" points="85,-410.03 9,-410.03 9,-363.03 85,-363.03 85,-410.03"/>
<text text-anchor="middle" x="47" y="-378.03" font-family="Times New Roman,serif" font-size="35.00">R47</text>
</a>
</g>
</g>
<!-- R47&#45;&gt;R18 -->
<g id="edge4" class="edge">
<title>R47&#45;&gt;R18</title>
<path fill="none" stroke="black" d="M84.81,-386.8C200.87,-387.36 553.97,-386.79 597,-359.53 621.35,-344.1 635.62,-314.03 643.5,-290.34"/>
<polygon fill="black" stroke="black" points="647.09,-291.57 646.68,-280.98 640.4,-289.52 647.09,-291.57"/>
<text text-anchor="middle" x="350" y="-395.53" font-family="Times New Roman,serif" font-size="30.00"> &#160;&#160;157 &#160;&#160;0% &#160;&#160;0.0275 mol/s &#160;&#160;&#160;1.56E&#45;05</text>
</g>
<!-- R112 -->
<g id="node6" class="node">
<title>R112</title>
<g id="a_node6"><a xlink:href="112.svg" xlink:title="R112">
<polygon fill="azure" stroke="none" points="94,-345.03 0,-345.03 0,-298.03 94,-298.03 94,-345.03"/>
<text text-anchor="middle" x="47" y="-313.03" font-family="Times New Roman,serif" font-size="35.00">R112</text>
</a>
</g>
</g>
<!-- R112&#45;&gt;R18 -->
<g id="edge5" class="edge">
<title>R112&#45;&gt;R18</title>
<path fill="none" stroke="black" d="M93.63,-322.32C207.98,-323.81 504.19,-324.45 597,-293.53 602.95,-291.55 608.85,-288.74 614.46,-285.54"/>
<polygon fill="black" stroke="black" points="615.94,-288.12 622.59,-279.87 612.25,-282.17 615.94,-288.12"/>
<text text-anchor="middle" x="350" y="-331.53" font-family="Times New Roman,serif" font-size="30.00"> &#160;&#160;158 &#160;&#160;0% &#160;&#160;0.0037 mol/s &#160;&#160;&#160;1.16E&#45;04</text>
</g>
<!-- R63 -->
<g id="node7" class="node">
<title>R63</title>
<g id="a_node7"><a xlink:href="63.svg" xlink:title="R63">
<polygon fill="azure" stroke="none" points="85,-280.03 9,-280.03 9,-233.03 85,-233.03 85,-280.03"/>
<text text-anchor="middle" x="47" y="-248.03" font-family="Times New Roman,serif" font-size="35.00">R63</text>
</a>
</g>
</g>
<!-- R63&#45;&gt;R18 -->
<g id="edge6" class="edge">
<title>R63&#45;&gt;R18</title>
<path fill="none" stroke="black" d="M84.87,-256.53C189.46,-256.53 487.94,-256.53 604.52,-256.53"/>
<polygon fill="black" stroke="black" points="604.23,-260.03 614.23,-256.53 604.23,-253.03 604.23,-260.03"/>
<text text-anchor="middle" x="350" y="-265.53" font-family="Times New Roman,serif" font-size="30.00"> &#160;&#160;234 &#160;&#160;0% &#160;&#160;0.104 mol/s &#160;&#160;&#160;4.12E&#45;06</text>
</g>
<!-- R180 -->
<g id="node8" class="node">
<title>R180</title>
<g id="a_node8"><a xlink:href="180.svg" xlink:title="R180">
<polygon fill="azure" stroke="none" points="94,-215.03 0,-215.03 0,-168.03 94,-168.03 94,-215.03"/>
<text text-anchor="middle" x="47" y="-183.03" font-family="Times New Roman,serif" font-size="35.00">R180</text>
</a>
</g>
</g>
<!-- R180&#45;&gt;R18 -->
<g id="edge7" class="edge">
<title>R180&#45;&gt;R18</title>
<path fill="none" stroke="black" d="M93.98,-185.8C190.26,-175.52 418.85,-160.19 597,-219.53 602.95,-221.51 608.85,-224.33 614.46,-227.53"/>
<polygon fill="black" stroke="black" points="612.25,-230.89 622.59,-233.2 615.94,-224.95 612.25,-230.89"/>
<text text-anchor="middle" x="350" y="-228.53" font-family="Times New Roman,serif" font-size="30.00"> &#160;&#160;235 &#160;&#160;0% &#160;&#160;0.00094 mol/s &#160;&#160;&#160;4.54E&#45;04</text>
</g>
<!-- R235 -->
<g id="node9" class="node">
<title>R235</title>
<g id="a_node9"><a xlink:href="235.svg" xlink:title="R235">
<polygon fill="azure" stroke="none" points="94,-150.03 0,-150.03 0,-103.03 94,-103.03 94,-150.03"/>
<text text-anchor="middle" x="47" y="-118.03" font-family="Times New Roman,serif" font-size="35.00">R235</text>
</a>
</g>
</g>
<!-- R235&#45;&gt;R18 -->
<g id="edge8" class="edge">
<title>R235&#45;&gt;R18</title>
<path fill="none" stroke="black" stroke-width="5" d="M93.66,-121.54C210.13,-109.74 514.87,-84.93 597,-138.53 622.29,-155.04 636.16,-186.45 643.64,-212.72"/>
<polygon fill="black" stroke="black" stroke-width="5" points="634.37,-209.72 647.54,-227.13 651.38,-205.64 634.37,-209.72"/>
<text text-anchor="middle" x="350" y="-147.53" font-family="Times New Roman,serif" font-size="30.00"> &#160;&#160;328 &#160;&#160;99% &#160;&#160;566000.0 mol/s &#160;&#160;&#160;7.56E&#45;13</text>
</g>
<!-- R244 -->
<g id="node10" class="node">
<title>R244</title>
<g id="a_node10"><a xlink:href="244.svg" xlink:title="R244">
<polygon fill="azure" stroke="none" points="94,-85.03 0,-85.03 0,-38.03 94,-38.03 94,-85.03"/>
<text text-anchor="middle" x="47" y="-53.03" font-family="Times New Roman,serif" font-size="35.00">R244</text>
</a>
</g>
</g>
<!-- R244&#45;&gt;R18 -->
<g id="edge9" class="edge">
<title>R244&#45;&gt;R18</title>
<path fill="none" stroke="black" d="M93.9,-45.6C196.11,-13.29 445.34,47.58 597,-67.53 621.68,-86.27 639,-173.33 647,-222.49"/>
<polygon fill="black" stroke="black" points="643.68,-222.91 648.69,-232.24 650.59,-221.81 643.68,-222.91"/>
<text text-anchor="middle" x="350" y="-76.53" font-family="Times New Roman,serif" font-size="30.00"> &#160;&#160;329 &#160;&#160;0% &#160;&#160;0.00189 mol/s &#160;&#160;&#160;2.27E&#45;04</text>
</g>
</g>
</svg>
