<?xml version="1.0" encoding="UTF-8" standalone="no"?>
<!DOCTYPE svg PUBLIC "-//W3C//DTD SVG 1.1//EN"
 "http://www.w3.org/Graphics/SVG/1.1/DTD/svg11.dtd">
<!-- Generated by graphviz version 8.0.3 (20230416.2022)
 -->
<!-- Title: G Pages: 1 -->
<svg width="640pt" height="170pt"
 viewBox="0.00 0.00 720.00 191.37" xmlns="http://www.w3.org/2000/svg" xmlns:xlink="http://www.w3.org/1999/xlink">
<g id="graph0" class="graph" transform="scale(0.481203 0.481203) rotate(0) translate(4 349.5)">
<title>G</title>
<polygon fill="white" stroke="none" points="-4,4 -4,-349.5 1326,-349.5 1326,4 -4,4"/>
<text text-anchor="middle" x="661" y="-312.7" font-family="Arial" font-size="36.00" fill="blue">Reaction Path Analysis</text>
<!-- R183 -->
<g id="node1" class="node">
<title>R183</title>
<g id="a_node1"><a xlink:href="183.svg" xlink:title="R183">
<polygon fill="azure" stroke="none" points="708,-161 614,-161 614,-114 708,-114 708,-161"/>
<text text-anchor="middle" x="661" y="-129" font-family="Times New Roman,serif" font-size="35.00">R183</text>
</a>
</g>
</g>
<!-- R27 -->
<g id="node2" class="node">
<title>R27</title>
<g id="a_node2"><a xlink:href="27.svg" xlink:title="R27">
<polygon fill="azure" stroke="none" points="1313,-259 1237,-259 1237,-212 1313,-212 1313,-259"/>
<text text-anchor="middle" x="1275" y="-227" font-family="Times New Roman,serif" font-size="35.00">R27</text>
</a>
</g>
</g>
<!-- R183&#45;&gt;R27 -->
<g id="edge1" class="edge">
<title>R183&#45;&gt;R27</title>
<path fill="none" stroke="black" stroke-width="5" d="M674.65,-160.81C684.84,-177.03 700.78,-197.47 721,-207.5 885.41,-289.06 1112.17,-264.54 1216.83,-246.8"/>
<polygon fill="black" stroke="black" stroke-width="5" points="1213.09,-256.29 1231.25,-244.16 1210.02,-239.06 1213.09,-256.29"/>
<text text-anchor="middle" x="968" y="-273.5" font-family="Times New Roman,serif" font-size="30.00"> &#160;&#160;242 &#160;&#160;98% &#160;&#160;0.000266 mol/s &#160;&#160;&#160;1.60E&#45;03</text>
</g>
<!-- R2 -->
<g id="node3" class="node">
<title>R2</title>
<g id="a_node3"><a xlink:href="2.svg" xlink:title="R2">
<polygon fill="azure" stroke="none" points="1304,-194 1246,-194 1246,-147 1304,-147 1304,-194"/>
<text text-anchor="middle" x="1275" y="-162" font-family="Times New Roman,serif" font-size="35.00">R2</text>
</a>
</g>
</g>
<!-- R183&#45;&gt;R2 -->
<g id="edge2" class="edge">
<title>R183&#45;&gt;R2</title>
<path fill="none" stroke="black" stroke-width="5" d="M707.96,-146.73C712.36,-147.41 716.75,-148.02 721,-148.5 906.43,-169.36 1128.78,-171.23 1225.31,-170.92"/>
<polygon fill="black" stroke="black" stroke-width="5" points="1220.32,-179.66 1240.27,-170.81 1220.23,-162.16 1220.32,-179.66"/>
<text text-anchor="middle" x="968" y="-179.5" font-family="Times New Roman,serif" font-size="30.00"> &#160;&#160;242 &#160;&#160;98% &#160;&#160;0.000266 mol/s &#160;&#160;&#160;1.60E&#45;03</text>
</g>
<!-- R0 -->
<g id="node4" class="node">
<title>R0</title>
<g id="a_node4"><a xlink:href="0.svg" xlink:title="R0">
<polygon fill="azure" stroke="none" points="1304,-129 1246,-129 1246,-82 1304,-82 1304,-129"/>
<text text-anchor="middle" x="1275" y="-97" font-family="Times New Roman,serif" font-size="35.00">R0</text>
</a>
</g>
</g>
<!-- R183&#45;&gt;R0 -->
<g id="edge3" class="edge">
<title>R183&#45;&gt;R0</title>
<path fill="none" stroke="black" d="M707.95,-118.68C712.31,-117.41 716.7,-116.31 721,-115.5 910.99,-79.45 1144.28,-93.93 1235.17,-101.75"/>
<polygon fill="black" stroke="black" points="1234.77,-105.31 1245.04,-102.71 1235.39,-98.34 1234.77,-105.31"/>
<text text-anchor="middle" x="968" y="-124.5" font-family="Times New Roman,serif" font-size="30.00"> &#160;&#160;487 &#160;&#160;1% &#160;&#160;3.93e&#45;06 mol/s &#160;&#160;&#160;8.94E&#45;02</text>
</g>
<!-- R120 -->
<g id="node5" class="node">
<title>R120</title>
<g id="a_node5"><a xlink:href="120.svg" xlink:title="R120">
<polygon fill="azure" stroke="none" points="1322,-64 1228,-64 1228,-17 1322,-17 1322,-64"/>
<text text-anchor="middle" x="1275" y="-32" font-family="Times New Roman,serif" font-size="35.00">R120</text>
</a>
</g>
</g>
<!-- R183&#45;&gt;R120 -->
<g id="edge4" class="edge">
<title>R183&#45;&gt;R120</title>
<path fill="none" stroke="black" d="M671.64,-114.07C681.06,-94.54 697.44,-67.97 721,-55.5 883.71,30.69 1112.86,-3.8 1217.68,-26.56"/>
<polygon fill="black" stroke="black" points="1216.81,-30.17 1227.33,-28.92 1218.33,-23.34 1216.81,-30.17"/>
<text text-anchor="middle" x="968" y="-64.5" font-family="Times New Roman,serif" font-size="30.00"> &#160;&#160;487 &#160;&#160;1% &#160;&#160;3.93e&#45;06 mol/s &#160;&#160;&#160;8.94E&#45;02</text>
</g>
<!-- R356 -->
<g id="node6" class="node">
<title>R356</title>
<g id="a_node6"><a xlink:href="356.svg" xlink:title="R356">
<polygon fill="azure" stroke="none" points="94,-161 0,-161 0,-114 94,-114 94,-161"/>
<text text-anchor="middle" x="47" y="-129" font-family="Times New Roman,serif" font-size="35.00">R356</text>
</a>
</g>
</g>
<!-- R356&#45;&gt;R183 -->
<g id="edge5" class="edge">
<title>R356&#45;&gt;R183</title>
<path fill="none" stroke="black" stroke-width="6" d="M94,-137.5C201.26,-137.5 468.28,-137.5 593.37,-137.5"/>
<polygon fill="black" stroke="black" stroke-width="6" points="588.3,-148 608.3,-137.5 588.3,-127 588.3,-148"/>
<text text-anchor="middle" x="354" y="-146.5" font-family="Times New Roman,serif" font-size="30.00"> &#160;&#160;595 &#160;&#160;100% &#160;&#160;6.72e&#45;06 mol/s &#160;&#160;&#160;5.65E&#45;02</text>
</g>
</g>
</svg>
