<?xml version="1.0" encoding="UTF-8" standalone="no"?>
<!DOCTYPE svg PUBLIC "-//W3C//DTD SVG 1.1//EN"
 "http://www.w3.org/Graphics/SVG/1.1/DTD/svg11.dtd">
<!-- Generated by graphviz version 8.0.3 (20230416.2022)
 -->
<!-- Title: G Pages: 1 -->
<svg width="596pt" height="311pt"
 viewBox="0.00 0.00 671.00 350.08" xmlns="http://www.w3.org/2000/svg" xmlns:xlink="http://www.w3.org/1999/xlink">
<g id="graph0" class="graph" transform="scale(0.888889 0.888889) rotate(0) translate(4 346.08)">
<title>G</title>
<polygon fill="white" stroke="none" points="-4,4 -4,-346.08 667,-346.08 667,4 -4,4"/>
<text text-anchor="middle" x="331.5" y="-309.28" font-family="Arial" font-size="36.00" fill="blue">Reaction Path Analysis</text>
<!-- R192 -->
<g id="node1" class="node">
<title>R192</title>
<g id="a_node1"><a xlink:href="192.svg" xlink:title="R192">
<polygon fill="azure" stroke="none" points="94,-159.58 0,-159.58 0,-112.58 94,-112.58 94,-159.58"/>
<text text-anchor="middle" x="47" y="-127.58" font-family="Times New Roman,serif" font-size="35.00">R192</text>
</a>
</g>
</g>
<!-- R42 -->
<g id="node2" class="node">
<title>R42</title>
<g id="a_node2"><a xlink:href="42.svg" xlink:title="R42">
<polygon fill="azure" stroke="none" points="654,-257.58 578,-257.58 578,-210.58 654,-210.58 654,-257.58"/>
<text text-anchor="middle" x="616" y="-225.58" font-family="Times New Roman,serif" font-size="35.00">R42</text>
</a>
</g>
</g>
<!-- R192&#45;&gt;R42 -->
<g id="edge1" class="edge">
<title>R192&#45;&gt;R42</title>
<path fill="none" stroke="black" stroke-width="5" d="M59.42,-159.33C68.74,-175.52 83.53,-195.95 103,-206.08 251.68,-283.43 458.57,-262.15 557.66,-245.48"/>
<polygon fill="black" stroke="black" stroke-width="5" points="554.06,-254.94 572.22,-242.82 550.99,-237.71 554.06,-254.94"/>
<text text-anchor="middle" x="331.5" y="-270.08" font-family="Times New Roman,serif" font-size="30.00"> &#160;&#160;253 &#160;&#160;99% &#160;&#160;2.63 mol/s &#160;&#160;&#160;1.63E&#45;07</text>
</g>
<!-- R2 -->
<g id="node3" class="node">
<title>R2</title>
<g id="a_node3"><a xlink:href="2.svg" xlink:title="R2">
<polygon fill="azure" stroke="none" points="645,-192.58 587,-192.58 587,-145.58 645,-145.58 645,-192.58"/>
<text text-anchor="middle" x="616" y="-160.58" font-family="Times New Roman,serif" font-size="35.00">R2</text>
</a>
</g>
</g>
<!-- R192&#45;&gt;R2 -->
<g id="edge2" class="edge">
<title>R192&#45;&gt;R2</title>
<path fill="none" stroke="black" stroke-width="5" d="M93.83,-145.79C96.93,-146.28 100,-146.71 103,-147.08 272.19,-167.51 474.84,-169.68 566.15,-169.48"/>
<polygon fill="black" stroke="black" stroke-width="5" points="561.17,-178.23 581.13,-169.39 561.09,-160.73 561.17,-178.23"/>
<text text-anchor="middle" x="331.5" y="-178.08" font-family="Times New Roman,serif" font-size="30.00"> &#160;&#160;253 &#160;&#160;99% &#160;&#160;2.63 mol/s &#160;&#160;&#160;1.63E&#45;07</text>
</g>
<!-- R0 -->
<g id="node4" class="node">
<title>R0</title>
<g id="a_node4"><a xlink:href="0.svg" xlink:title="R0">
<polygon fill="azure" stroke="none" points="645,-127.58 587,-127.58 587,-80.58 645,-80.58 645,-127.58"/>
<text text-anchor="middle" x="616" y="-95.58" font-family="Times New Roman,serif" font-size="35.00">R0</text>
</a>
</g>
</g>
<!-- R192&#45;&gt;R0 -->
<g id="edge3" class="edge">
<title>R192&#45;&gt;R0</title>
<path fill="none" stroke="black" d="M93.84,-116.34C96.91,-115.46 99.98,-114.69 103,-114.08 276.66,-78.87 490.24,-92.42 576.34,-100.15"/>
<polygon fill="black" stroke="black" points="575.87,-103.71 586.15,-101.15 576.51,-96.74 575.87,-103.71"/>
<text text-anchor="middle" x="331.5" y="-123.08" font-family="Times New Roman,serif" font-size="30.00"> &#160;&#160;495 &#160;&#160;0% &#160;&#160;5.7e&#45;05 mol/s &#160;&#160;&#160;7.40E&#45;03</text>
</g>
<!-- R133 -->
<g id="node5" class="node">
<title>R133</title>
<g id="a_node5"><a xlink:href="133.svg" xlink:title="R133">
<polygon fill="azure" stroke="none" points="663,-62.58 569,-62.58 569,-15.58 663,-15.58 663,-62.58"/>
<text text-anchor="middle" x="616" y="-30.58" font-family="Times New Roman,serif" font-size="35.00">R133</text>
</a>
</g>
</g>
<!-- R192&#45;&gt;R133 -->
<g id="edge4" class="edge">
<title>R192&#45;&gt;R133</title>
<path fill="none" stroke="black" d="M56.31,-112.81C64.74,-93.05 79.87,-65.91 103,-53.08 250.09,28.52 459.35,-2.83 558.6,-24.75"/>
<polygon fill="black" stroke="black" points="557.76,-28.38 568.29,-27.17 559.3,-21.55 557.76,-28.38"/>
<text text-anchor="middle" x="331.5" y="-62.08" font-family="Times New Roman,serif" font-size="30.00"> &#160;&#160;495 &#160;&#160;0% &#160;&#160;5.7e&#45;05 mol/s &#160;&#160;&#160;7.40E&#45;03</text>
</g>
</g>
</svg>
