<?xml version="1.0" encoding="UTF-8" standalone="no"?>
<!DOCTYPE svg PUBLIC "-//W3C//DTD SVG 1.1//EN"
 "http://www.w3.org/Graphics/SVG/1.1/DTD/svg11.dtd">
<!-- Generated by graphviz version 8.0.3 (20230416.2022)
 -->
<!-- Title: G Pages: 1 -->
<svg width="640pt" height="171pt"
 viewBox="0.00 0.00 720.00 192.09" xmlns="http://www.w3.org/2000/svg" xmlns:xlink="http://www.w3.org/1999/xlink">
<g id="graph0" class="graph" transform="scale(0.484481 0.484481) rotate(0) translate(4 348.43)">
<title>G</title>
<polygon fill="white" stroke="none" points="-4,4 -4,-348.43 1317,-348.43 1317,4 -4,4"/>
<text text-anchor="middle" x="656.5" y="-311.63" font-family="Arial" font-size="36.00" fill="blue">Reaction Path Analysis</text>
<!-- R194 -->
<g id="node1" class="node">
<title>R194</title>
<g id="a_node1"><a xlink:href="194.svg" xlink:title="R194">
<polygon fill="azure" stroke="none" points="708,-168.93 614,-168.93 614,-121.93 708,-121.93 708,-168.93"/>
<text text-anchor="middle" x="661" y="-136.93" font-family="Times New Roman,serif" font-size="35.00">R194</text>
</a>
</g>
</g>
<!-- R2 -->
<g id="node2" class="node">
<title>R2</title>
<g id="a_node2"><a xlink:href="2.svg" xlink:title="R2">
<polygon fill="azure" stroke="none" points="1304,-201.93 1246,-201.93 1246,-154.93 1304,-154.93 1304,-201.93"/>
<text text-anchor="middle" x="1275" y="-169.93" font-family="Times New Roman,serif" font-size="35.00">R2</text>
</a>
</g>
</g>
<!-- R194&#45;&gt;R2 -->
<g id="edge1" class="edge">
<title>R194&#45;&gt;R2</title>
<path fill="none" stroke="black" stroke-width="6" d="M707.83,-155.16C710.92,-155.64 714,-156.07 717,-156.43 903.83,-178.66 1128.13,-179.82 1225.24,-179.08"/>
<polygon fill="black" stroke="black" stroke-width="6" points="1220.16,-189.58 1240.06,-178.88 1219.96,-168.58 1220.16,-189.58"/>
<text text-anchor="middle" x="968" y="-187.43" font-family="Times New Roman,serif" font-size="30.00"> &#160;&#160;255 &#160;&#160;100% &#160;&#160;2.07e&#45;05 mol/s &#160;&#160;&#160;1.98E&#45;02</text>
</g>
<!-- R43 -->
<g id="node3" class="node">
<title>R43</title>
<g id="a_node3"><a xlink:href="43.svg" xlink:title="R43">
<polygon fill="azure" stroke="none" points="1313,-136.93 1237,-136.93 1237,-89.93 1313,-89.93 1313,-136.93"/>
<text text-anchor="middle" x="1275" y="-104.93" font-family="Times New Roman,serif" font-size="35.00">R43</text>
</a>
</g>
</g>
<!-- R194&#45;&gt;R43 -->
<g id="edge2" class="edge">
<title>R194&#45;&gt;R43</title>
<path fill="none" stroke="black" stroke-width="6" d="M707.84,-125.69C710.91,-124.81 713.98,-124.04 717,-123.43 896.11,-87.27 1114.21,-99.03 1216.21,-107.68"/>
<polygon fill="black" stroke="black" stroke-width="6" points="1210.15,-118.22 1231.01,-109.54 1212.02,-97.3 1210.15,-118.22"/>
<text text-anchor="middle" x="968" y="-132.43" font-family="Times New Roman,serif" font-size="30.00"> &#160;&#160;255 &#160;&#160;100% &#160;&#160;2.07e&#45;05 mol/s &#160;&#160;&#160;1.98E&#45;02</text>
</g>
<!-- R0 -->
<g id="node4" class="node">
<title>R0</title>
<g id="a_node4"><a xlink:href="0.svg" xlink:title="R0">
<polygon fill="azure" stroke="none" points="76,-261.93 18,-261.93 18,-214.93 76,-214.93 76,-261.93"/>
<text text-anchor="middle" x="47" y="-229.93" font-family="Times New Roman,serif" font-size="35.00">R0</text>
</a>
</g>
</g>
<!-- R0&#45;&gt;R194 -->
<g id="edge3" class="edge">
<title>R0&#45;&gt;R194</title>
<path fill="none" stroke="black" d="M75.91,-243.87C160.07,-258.86 416.9,-294.24 601,-208.43 615.75,-201.55 628.61,-189.17 638.52,-177.19"/>
<polygon fill="black" stroke="black" points="641.82,-179.66 645.21,-169.62 636.3,-175.35 641.82,-179.66"/>
<text text-anchor="middle" x="354" y="-272.43" font-family="Times New Roman,serif" font-size="30.00"> &#160;&#160;830 &#160;&#160;0% &#160;&#160;4.26e&#45;07 mol/s &#160;&#160;&#160;9.95E&#45;01</text>
</g>
<!-- R190 -->
<g id="node5" class="node">
<title>R190</title>
<g id="a_node5"><a xlink:href="190.svg" xlink:title="R190">
<polygon fill="azure" stroke="none" points="94,-196.93 0,-196.93 0,-149.93 94,-149.93 94,-196.93"/>
<text text-anchor="middle" x="47" y="-164.93" font-family="Times New Roman,serif" font-size="35.00">R190</text>
</a>
</g>
</g>
<!-- R190&#45;&gt;R194 -->
<g id="edge4" class="edge">
<title>R190&#45;&gt;R194</title>
<path fill="none" stroke="black" d="M93.93,-172.56C188.79,-170.55 413.15,-164.71 601,-151.43 601.81,-151.37 602.62,-151.31 603.44,-151.25"/>
<polygon fill="black" stroke="black" points="603.61,-154.67 613.29,-150.36 603.03,-147.69 603.61,-154.67"/>
<text text-anchor="middle" x="354" y="-180.43" font-family="Times New Roman,serif" font-size="30.00"> &#160;&#160;830 &#160;&#160;0% &#160;&#160;4.26e&#45;07 mol/s &#160;&#160;&#160;9.95E&#45;01</text>
</g>
<!-- R374 -->
<g id="node6" class="node">
<title>R374</title>
<g id="a_node6"><a xlink:href="374.svg" xlink:title="R374">
<polygon fill="azure" stroke="none" points="94,-108.93 0,-108.93 0,-61.93 94,-61.93 94,-108.93"/>
<text text-anchor="middle" x="47" y="-76.93" font-family="Times New Roman,serif" font-size="35.00">R374</text>
</a>
</g>
</g>
<!-- R374&#45;&gt;R194 -->
<g id="edge5" class="edge">
<title>R374&#45;&gt;R194</title>
<path fill="none" stroke="black" stroke-width="5" d="M93.98,-93.82C98.37,-94.44 102.76,-94.99 107,-95.43 216.27,-106.74 494.86,-86.07 601,-114.43 601.32,-114.52 601.64,-114.6 601.96,-114.69"/>
<polygon fill="black" stroke="black" stroke-width="5" points="594.52,-121.13 616.32,-120.04 600.73,-104.77 594.52,-121.13"/>
<text text-anchor="middle" x="354" y="-123.43" font-family="Times New Roman,serif" font-size="30.00"> &#160;&#160;952 &#160;&#160;98% &#160;&#160;0.0398 mol/s &#160;&#160;&#160;1.59E&#45;02</text>
</g>
<!-- R374&#45;&gt;R194 -->
<g id="edge6" class="edge">
<title>R374&#45;&gt;R194</title>
<path fill="none" stroke="black" d="M93.73,-62.25C98.13,-60.71 102.6,-59.39 107,-58.43 321.52,-11.68 407.01,44.4 601,-58.43 622.42,-69.79 637.5,-92.78 647.05,-112.28"/>
<polygon fill="black" stroke="black" points="644.19,-113.45 651.54,-121.08 650.55,-110.53 644.19,-113.45"/>
<text text-anchor="middle" x="354" y="-67.43" font-family="Times New Roman,serif" font-size="30.00"> &#160;&#160;1038 &#160;&#160;1% &#160;&#160;0.000643 mol/s &#160;&#160;&#160;9.84E&#45;01</text>
</g>
</g>
</svg>
