<?xml version="1.0" encoding="UTF-8" standalone="no"?>
<!DOCTYPE svg PUBLIC "-//W3C//DTD SVG 1.1//EN"
 "http://www.w3.org/Graphics/SVG/1.1/DTD/svg11.dtd">
<!-- Generated by graphviz version 8.0.3 (20230416.2022)
 -->
<!-- Title: G Pages: 1 -->
<svg width="640pt" height="166pt"
 viewBox="0.00 0.00 720.00 187.11" xmlns="http://www.w3.org/2000/svg" xmlns:xlink="http://www.w3.org/1999/xlink">
<g id="graph0" class="graph" transform="scale(0.484481 0.484481) rotate(0) translate(4 339.3)">
<title>G</title>
<polygon fill="white" stroke="none" points="-4,4 -4,-339.3 1317,-339.3 1317,4 -4,4"/>
<text text-anchor="middle" x="656.5" y="-302.5" font-family="Arial" font-size="36.00" fill="blue">Reaction Path Analysis</text>
<!-- R199 -->
<g id="node1" class="node">
<title>R199</title>
<g id="a_node1"><a xlink:href="199.svg" xlink:title="R199">
<polygon fill="azure" stroke="none" points="708,-155.8 614,-155.8 614,-108.8 708,-108.8 708,-155.8"/>
<text text-anchor="middle" x="661" y="-123.8" font-family="Times New Roman,serif" font-size="35.00">R199</text>
</a>
</g>
</g>
<!-- R2 -->
<g id="node2" class="node">
<title>R2</title>
<g id="a_node2"><a xlink:href="2.svg" xlink:title="R2">
<polygon fill="azure" stroke="none" points="1304,-253.8 1246,-253.8 1246,-206.8 1304,-206.8 1304,-253.8"/>
<text text-anchor="middle" x="1275" y="-221.8" font-family="Times New Roman,serif" font-size="35.00">R2</text>
</a>
</g>
</g>
<!-- R199&#45;&gt;R2 -->
<g id="edge1" class="edge">
<title>R199&#45;&gt;R2</title>
<path fill="none" stroke="black" stroke-width="4" d="M677.28,-155.66C689.16,-171.61 707.16,-191.56 728.5,-201.3 897.37,-278.44 1126.94,-254.57 1225.64,-239.06"/>
<polygon fill="black" stroke="black" stroke-width="4" points="1222.65,-245.82 1241.23,-235.64 1220.36,-232.01 1222.65,-245.82"/>
<text text-anchor="middle" x="968" y="-263.3" font-family="Times New Roman,serif" font-size="30.00"> &#160;&#160;260 &#160;&#160;63% &#160;&#160;0.00183 mol/s &#160;&#160;&#160;2.34E&#45;04</text>
</g>
<!-- R53 -->
<g id="node3" class="node">
<title>R53</title>
<g id="a_node3"><a xlink:href="53.svg" xlink:title="R53">
<polygon fill="azure" stroke="none" points="1313,-188.8 1237,-188.8 1237,-141.8 1313,-141.8 1313,-188.8"/>
<text text-anchor="middle" x="1275" y="-156.8" font-family="Times New Roman,serif" font-size="35.00">R53</text>
</a>
</g>
</g>
<!-- R199&#45;&gt;R53 -->
<g id="edge2" class="edge">
<title>R199&#45;&gt;R53</title>
<path fill="none" stroke="black" stroke-width="4" d="M707.69,-140.62C714.64,-141.67 721.75,-142.61 728.5,-143.3 905.6,-161.45 1116.48,-164.81 1216.23,-165.31"/>
<polygon fill="black" stroke="black" stroke-width="4" points="1211.15,-172.32 1231.18,-165.39 1211.2,-158.32 1211.15,-172.32"/>
<text text-anchor="middle" x="968" y="-173.3" font-family="Times New Roman,serif" font-size="30.00"> &#160;&#160;260 &#160;&#160;63% &#160;&#160;0.00183 mol/s &#160;&#160;&#160;2.34E&#45;04</text>
</g>
<!-- R3 -->
<g id="node4" class="node">
<title>R3</title>
<g id="a_node4"><a xlink:href="3.svg" xlink:title="R3">
<polygon fill="azure" stroke="none" points="1304,-123.8 1246,-123.8 1246,-76.8 1304,-76.8 1304,-123.8"/>
<text text-anchor="middle" x="1275" y="-91.8" font-family="Times New Roman,serif" font-size="35.00">R3</text>
</a>
</g>
</g>
<!-- R199&#45;&gt;R3 -->
<g id="edge3" class="edge">
<title>R199&#45;&gt;R3</title>
<path fill="none" stroke="black" stroke-width="2" d="M707.69,-115.2C714.58,-113.21 721.67,-111.47 728.5,-110.3 916.32,-78.27 1145.76,-90.4 1235.47,-97.07"/>
<polygon fill="black" stroke="black" stroke-width="2" points="1232.96,-100.62 1243.2,-97.89 1233.49,-93.64 1232.96,-100.62"/>
<text text-anchor="middle" x="968" y="-119.3" font-family="Times New Roman,serif" font-size="30.00"> &#160;&#160;293 &#160;&#160;36% &#160;&#160;0.00104 mol/s &#160;&#160;&#160;4.11E&#45;04</text>
</g>
<!-- R41 -->
<g id="node5" class="node">
<title>R41</title>
<g id="a_node5"><a xlink:href="41.svg" xlink:title="R41">
<polygon fill="azure" stroke="none" points="1313,-58.8 1237,-58.8 1237,-11.8 1313,-11.8 1313,-58.8"/>
<text text-anchor="middle" x="1275" y="-26.8" font-family="Times New Roman,serif" font-size="35.00">R41</text>
</a>
</g>
</g>
<!-- R199&#45;&gt;R41 -->
<g id="edge4" class="edge">
<title>R199&#45;&gt;R41</title>
<path fill="none" stroke="black" stroke-width="2" d="M674.02,-109.01C685.26,-89.95 703.99,-64.27 728.5,-52.3 895.92,29.44 1127.97,-4.36 1226.6,-24.43"/>
<polygon fill="black" stroke="black" stroke-width="2" points="1224.62,-28.01 1235.12,-26.62 1226.05,-21.16 1224.62,-28.01"/>
<text text-anchor="middle" x="968" y="-61.3" font-family="Times New Roman,serif" font-size="30.00"> &#160;&#160;293 &#160;&#160;36% &#160;&#160;0.00104 mol/s &#160;&#160;&#160;4.11E&#45;04</text>
</g>
<!-- R345 -->
<g id="node6" class="node">
<title>R345</title>
<g id="a_node6"><a xlink:href="345.svg" xlink:title="R345">
<polygon fill="azure" stroke="none" points="94,-155.8 0,-155.8 0,-108.8 94,-108.8 94,-155.8"/>
<text text-anchor="middle" x="47" y="-123.8" font-family="Times New Roman,serif" font-size="35.00">R345</text>
</a>
</g>
</g>
<!-- R345&#45;&gt;R199 -->
<g id="edge5" class="edge">
<title>R345&#45;&gt;R199</title>
<path fill="none" stroke="black" stroke-width="5" d="M93.89,-137.69C96.97,-137.93 100.03,-138.14 103,-138.3 318.93,-150.05 378.59,-150.41 593.2,-138.82"/>
<polygon fill="black" stroke="black" stroke-width="5" points="588.62,-147.51 608.11,-137.69 587.67,-130.04 588.62,-147.51"/>
<text text-anchor="middle" x="354" y="-156.3" font-family="Times New Roman,serif" font-size="30.00"> &#160;&#160;953 &#160;&#160;99% &#160;&#160;1.93 mol/s &#160;&#160;&#160;3.38E&#45;04</text>
</g>
<!-- R345&#45;&gt;R199 -->
<g id="edge6" class="edge">
<title>R345&#45;&gt;R199</title>
<path fill="none" stroke="black" d="M83.56,-108.85C89.81,-105.74 96.43,-103.03 103,-101.3 318.8,-44.67 389.2,-44.67 605,-101.3 608.18,-102.14 611.38,-103.2 614.54,-104.44"/>
<polygon fill="black" stroke="black" points="612.88,-107.98 623.44,-108.85 615.73,-101.58 612.88,-107.98"/>
<text text-anchor="middle" x="354" y="-110.3" font-family="Times New Roman,serif" font-size="30.00"> &#160;&#160;1012 &#160;&#160;0% &#160;&#160;0.000654 mol/s &#160;&#160;&#160;1.00E+00</text>
</g>
</g>
</svg>
