<?xml version="1.0" encoding="UTF-8" standalone="no"?>
<!DOCTYPE svg PUBLIC "-//W3C//DTD SVG 1.1//EN"
 "http://www.w3.org/Graphics/SVG/1.1/DTD/svg11.dtd">
<!-- Generated by graphviz version 8.0.3 (20230416.2022)
 -->
<!-- Title: G Pages: 1 -->
<svg width="640pt" height="91pt"
 viewBox="0.00 0.00 720.00 102.65" xmlns="http://www.w3.org/2000/svg" xmlns:xlink="http://www.w3.org/1999/xlink">
<g id="graph0" class="graph" transform="scale(0.514056 0.514056) rotate(0) translate(4 173.5)">
<title>G</title>
<polygon fill="white" stroke="none" points="-4,4 -4,-173.5 1241,-173.5 1241,4 -4,4"/>
<text text-anchor="middle" x="618.5" y="-136.7" font-family="Arial" font-size="36.00" fill="blue">Reaction Path Analysis</text>
<!-- R204 -->
<g id="node1" class="node">
<title>R204</title>
<g id="a_node1"><a xlink:href="204.svg" xlink:title="R204">
<polygon fill="azure" stroke="none" points="670,-79 576,-79 576,-32 670,-32 670,-79"/>
<text text-anchor="middle" x="623" y="-47" font-family="Times New Roman,serif" font-size="35.00">R204</text>
</a>
</g>
</g>
<!-- R60 -->
<g id="node2" class="node">
<title>R60</title>
<g id="a_node2"><a xlink:href="60.svg" xlink:title="R60">
<polygon fill="azure" stroke="none" points="1237,-112 1161,-112 1161,-65 1237,-65 1237,-112"/>
<text text-anchor="middle" x="1199" y="-80" font-family="Times New Roman,serif" font-size="35.00">R60</text>
</a>
</g>
</g>
<!-- R204&#45;&gt;R60 -->
<g id="edge1" class="edge">
<title>R204&#45;&gt;R60</title>
<path fill="none" stroke="black" stroke-width="6" d="M669.98,-64.3C675.53,-65.15 681.13,-65.91 686.5,-66.5 850.51,-84.38 1045.6,-87.9 1140.46,-88.48"/>
<polygon fill="black" stroke="black" stroke-width="6" points="1135.24,-98.98 1155.28,-88.57 1135.33,-77.98 1135.24,-98.98"/>
<text text-anchor="middle" x="911" y="-96.5" font-family="Times New Roman,serif" font-size="30.00"> &#160;&#160;265 &#160;&#160;100% &#160;&#160;2.93 mol/s &#160;&#160;&#160;1.46E&#45;07</text>
</g>
<!-- R2 -->
<g id="node3" class="node">
<title>R2</title>
<g id="a_node3"><a xlink:href="2.svg" xlink:title="R2">
<polygon fill="azure" stroke="none" points="1228,-47 1170,-47 1170,0 1228,0 1228,-47"/>
<text text-anchor="middle" x="1199" y="-15" font-family="Times New Roman,serif" font-size="35.00">R2</text>
</a>
</g>
</g>
<!-- R204&#45;&gt;R2 -->
<g id="edge2" class="edge">
<title>R204&#45;&gt;R2</title>
<path fill="none" stroke="black" stroke-width="6" d="M669.97,-37.48C675.47,-35.87 681.07,-34.48 686.5,-33.5 854.29,-3.14 1058.08,-12.69 1149.51,-19.37"/>
<polygon fill="black" stroke="black" stroke-width="6" points="1143.5,-29.9 1164.25,-20.98 1145.12,-8.96 1143.5,-29.9"/>
<text text-anchor="middle" x="911" y="-42.5" font-family="Times New Roman,serif" font-size="30.00"> &#160;&#160;265 &#160;&#160;100% &#160;&#160;2.93 mol/s &#160;&#160;&#160;1.46E&#45;07</text>
</g>
<!-- R0 -->
<g id="node4" class="node">
<title>R0</title>
<g id="a_node4"><a xlink:href="0.svg" xlink:title="R0">
<polygon fill="azure" stroke="none" points="76,-112 18,-112 18,-65 76,-65 76,-112"/>
<text text-anchor="middle" x="47" y="-80" font-family="Times New Roman,serif" font-size="35.00">R0</text>
</a>
</g>
</g>
<!-- R0&#45;&gt;R204 -->
<g id="edge3" class="edge">
<title>R0&#45;&gt;R204</title>
<path fill="none" stroke="black" stroke-width="6" d="M75.97,-88.83C151.25,-89.42 364.79,-88.99 555.43,-67.64"/>
<polygon fill="black" stroke="black" stroke-width="6" points="551.52,-77.96 570.17,-65.22 549.09,-57.11 551.52,-77.96"/>
<text text-anchor="middle" x="335" y="-97.5" font-family="Times New Roman,serif" font-size="30.00"> &#160;&#160;505 &#160;&#160;100% &#160;&#160;4e&#45;07 mol/s &#160;&#160;&#160;9.40E&#45;01</text>
</g>
<!-- R151 -->
<g id="node5" class="node">
<title>R151</title>
<g id="a_node5"><a xlink:href="151.svg" xlink:title="R151">
<polygon fill="azure" stroke="none" points="94,-47 0,-47 0,0 94,0 94,-47"/>
<text text-anchor="middle" x="47" y="-15" font-family="Times New Roman,serif" font-size="35.00">R151</text>
</a>
</g>
</g>
<!-- R151&#45;&gt;R204 -->
<g id="edge4" class="edge">
<title>R151&#45;&gt;R204</title>
<path fill="none" stroke="black" stroke-width="6" d="M93.72,-18.93C181.44,-11.3 379.56,0.38 555.63,-31.79"/>
<polygon fill="black" stroke="black" stroke-width="6" points="548.53,-41.27 570.16,-34.77 552.52,-20.66 548.53,-41.27"/>
<text text-anchor="middle" x="335" y="-42.5" font-family="Times New Roman,serif" font-size="30.00"> &#160;&#160;505 &#160;&#160;100% &#160;&#160;4e&#45;07 mol/s &#160;&#160;&#160;9.40E&#45;01</text>
</g>
</g>
</svg>
