<?xml version="1.0" encoding="UTF-8" standalone="no"?>
<!DOCTYPE svg PUBLIC "-//W3C//DTD SVG 1.1//EN"
 "http://www.w3.org/Graphics/SVG/1.1/DTD/svg11.dtd">
<!-- Generated by graphviz version 8.0.3 (20230416.2022)
 -->
<!-- Title: G Pages: 1 -->
<svg width="640pt" height="246pt"
 viewBox="0.00 0.00 720.00 276.85" xmlns="http://www.w3.org/2000/svg" xmlns:xlink="http://www.w3.org/1999/xlink">
<g id="graph0" class="graph" transform="scale(0.501961 0.501961) rotate(0) translate(4 486.25)">
<title>G</title>
<polygon fill="white" stroke="none" points="-4,4 -4,-486.25 1271,-486.25 1271,4 -4,4"/>
<text text-anchor="middle" x="633.5" y="-449.45" font-family="Arial" font-size="36.00" fill="blue">Reaction Path Analysis</text>
<!-- R205 -->
<g id="node1" class="node">
<title>R205</title>
<g id="a_node1"><a xlink:href="205.svg" xlink:title="R205">
<polygon fill="azure" stroke="none" points="685,-234.75 591,-234.75 591,-187.75 685,-187.75 685,-234.75"/>
<text text-anchor="middle" x="638" y="-202.75" font-family="Times New Roman,serif" font-size="35.00">R205</text>
</a>
</g>
</g>
<!-- R2 -->
<g id="node2" class="node">
<title>R2</title>
<g id="a_node2"><a xlink:href="2.svg" xlink:title="R2">
<polygon fill="azure" stroke="none" points="1258,-332.75 1200,-332.75 1200,-285.75 1258,-285.75 1258,-332.75"/>
<text text-anchor="middle" x="1229" y="-300.75" font-family="Times New Roman,serif" font-size="35.00">R2</text>
</a>
</g>
</g>
<!-- R205&#45;&gt;R2 -->
<g id="edge1" class="edge">
<title>R205&#45;&gt;R2</title>
<path fill="none" stroke="black" d="M651.5,-234.55C661.59,-250.76 677.38,-271.19 697.5,-281.25 864.19,-364.61 1098.26,-333.82 1189.48,-317.14"/>
<polygon fill="black" stroke="black" points="1189.96,-320.43 1199.14,-315.14 1188.66,-313.55 1189.96,-320.43"/>
<text text-anchor="middle" x="933.5" y="-345.25" font-family="Times New Roman,serif" font-size="30.00"> &#160;&#160;266 &#160;&#160;0% &#160;&#160;7.02e&#45;07 mol/s &#160;&#160;&#160;2.75E&#45;01</text>
</g>
<!-- R86 -->
<g id="node3" class="node">
<title>R86</title>
<g id="a_node3"><a xlink:href="86.svg" xlink:title="R86">
<polygon fill="azure" stroke="none" points="1267,-267.75 1191,-267.75 1191,-220.75 1267,-220.75 1267,-267.75"/>
<text text-anchor="middle" x="1229" y="-235.75" font-family="Times New Roman,serif" font-size="35.00">R86</text>
</a>
</g>
</g>
<!-- R205&#45;&gt;R86 -->
<g id="edge2" class="edge">
<title>R205&#45;&gt;R86</title>
<path fill="none" stroke="black" d="M684.89,-220.53C689.14,-221.19 693.39,-221.78 697.5,-222.25 874.84,-242.49 1087.4,-244.7 1180.45,-244.57"/>
<polygon fill="black" stroke="black" points="1180.21,-248.07 1190.2,-244.55 1180.19,-241.07 1180.21,-248.07"/>
<text text-anchor="middle" x="933.5" y="-253.25" font-family="Times New Roman,serif" font-size="30.00"> &#160;&#160;266 &#160;&#160;0% &#160;&#160;7.02e&#45;07 mol/s &#160;&#160;&#160;2.75E&#45;01</text>
</g>
<!-- R13 -->
<g id="node4" class="node">
<title>R13</title>
<g id="a_node4"><a xlink:href="13.svg" xlink:title="R13">
<polygon fill="azure" stroke="none" points="1267,-202.75 1191,-202.75 1191,-155.75 1267,-155.75 1267,-202.75"/>
<text text-anchor="middle" x="1229" y="-170.75" font-family="Times New Roman,serif" font-size="35.00">R13</text>
</a>
</g>
</g>
<!-- R205&#45;&gt;R13 -->
<g id="edge3" class="edge">
<title>R205&#45;&gt;R13</title>
<path fill="none" stroke="black" stroke-width="5" d="M684.88,-192.34C689.1,-191.11 693.34,-190.05 697.5,-189.25 866.84,-156.81 1072.14,-166.46 1170.3,-174"/>
<polygon fill="black" stroke="black" stroke-width="5" points="1164.57,-182.8 1185.22,-175.7 1165.99,-165.36 1164.57,-182.8"/>
<text text-anchor="middle" x="933.5" y="-198.25" font-family="Times New Roman,serif" font-size="30.00"> &#160;&#160;344 &#160;&#160;99% &#160;&#160;0.0117 mol/s &#160;&#160;&#160;3.65E&#45;05</text>
</g>
<!-- R41 -->
<g id="node5" class="node">
<title>R41</title>
<g id="a_node5"><a xlink:href="41.svg" xlink:title="R41">
<polygon fill="azure" stroke="none" points="1267,-137.75 1191,-137.75 1191,-90.75 1267,-90.75 1267,-137.75"/>
<text text-anchor="middle" x="1229" y="-105.75" font-family="Times New Roman,serif" font-size="35.00">R41</text>
</a>
</g>
</g>
<!-- R205&#45;&gt;R41 -->
<g id="edge4" class="edge">
<title>R205&#45;&gt;R41</title>
<path fill="none" stroke="black" stroke-width="5" d="M648.51,-187.84C657.82,-168.32 674.04,-141.75 697.5,-129.25 851.81,-47 1068.89,-78.46 1170.86,-100.24"/>
<polygon fill="black" stroke="black" stroke-width="5" points="1163.67,-107.94 1185.09,-103.76 1167.48,-90.86 1163.67,-107.94"/>
<text text-anchor="middle" x="933.5" y="-138.25" font-family="Times New Roman,serif" font-size="30.00"> &#160;&#160;344 &#160;&#160;99% &#160;&#160;0.0117 mol/s &#160;&#160;&#160;3.65E&#45;05</text>
</g>
<!-- R208 -->
<g id="node6" class="node">
<title>R208</title>
<g id="a_node6"><a xlink:href="208.svg" xlink:title="R208">
<polygon fill="azure" stroke="none" points="94,-383.75 0,-383.75 0,-336.75 94,-336.75 94,-383.75"/>
<text text-anchor="middle" x="47" y="-351.75" font-family="Times New Roman,serif" font-size="35.00">R208</text>
</a>
</g>
</g>
<!-- R208&#45;&gt;R205 -->
<g id="edge5" class="edge">
<title>R208&#45;&gt;R205</title>
<path fill="none" stroke="black" d="M93.71,-372.78C192.64,-397.01 429.96,-439.28 582,-335.25 611.82,-314.85 625.65,-274.37 631.95,-245.21"/>
<polygon fill="black" stroke="black" points="635.53,-246.13 634.01,-235.65 628.66,-244.79 635.53,-246.13"/>
<text text-anchor="middle" x="342.5" y="-410.25" font-family="Times New Roman,serif" font-size="30.00"> &#160;&#160;515 &#160;&#160;0% &#160;&#160;1.83e&#45;05 mol/s &#160;&#160;&#160;2.23E&#45;02</text>
</g>
<!-- R257 -->
<g id="node7" class="node">
<title>R257</title>
<g id="a_node7"><a xlink:href="257.svg" xlink:title="R257">
<polygon fill="azure" stroke="none" points="94,-318.75 0,-318.75 0,-271.75 94,-271.75 94,-318.75"/>
<text text-anchor="middle" x="47" y="-286.75" font-family="Times New Roman,serif" font-size="35.00">R257</text>
</a>
</g>
</g>
<!-- R257&#45;&gt;R205 -->
<g id="edge6" class="edge">
<title>R257&#45;&gt;R205</title>
<path fill="none" stroke="black" d="M93.59,-296.76C206.3,-299.84 495.16,-303.63 582,-265.25 593.43,-260.2 603.84,-251.64 612.46,-242.82"/>
<polygon fill="black" stroke="black" points="614.69,-245.47 618.84,-235.72 609.52,-240.75 614.69,-245.47"/>
<text text-anchor="middle" x="342.5" y="-307.25" font-family="Times New Roman,serif" font-size="30.00"> &#160;&#160;516 &#160;&#160;0% &#160;&#160;1.13e&#45;06 mol/s &#160;&#160;&#160;2.15E&#45;01</text>
</g>
<!-- R149 -->
<g id="node8" class="node">
<title>R149</title>
<g id="a_node8"><a xlink:href="149.svg" xlink:title="R149">
<polygon fill="azure" stroke="none" points="94,-230.75 0,-230.75 0,-183.75 94,-183.75 94,-230.75"/>
<text text-anchor="middle" x="47" y="-198.75" font-family="Times New Roman,serif" font-size="35.00">R149</text>
</a>
</g>
</g>
<!-- R149&#45;&gt;R205 -->
<g id="edge7" class="edge">
<title>R149&#45;&gt;R205</title>
<path fill="none" stroke="black" d="M93.83,-216.22C96.93,-216.63 100,-216.98 103,-217.25 311.51,-236.05 367.58,-229.06 580.21,-217.24"/>
<polygon fill="black" stroke="black" points="580.32,-220.68 590.11,-216.63 579.94,-213.69 580.32,-220.68"/>
<text text-anchor="middle" x="342.5" y="-237.25" font-family="Times New Roman,serif" font-size="30.00"> &#160;&#160;674 &#160;&#160;0% &#160;&#160;0.000651 mol/s &#160;&#160;&#160;9.96E&#45;01</text>
</g>
<!-- R149&#45;&gt;R205 -->
<g id="edge8" class="edge">
<title>R149&#45;&gt;R205</title>
<path fill="none" stroke="black" stroke-width="5" d="M91.16,-183.85C95.08,-182.4 99.06,-181.17 103,-180.25 151.05,-169.09 477.23,-167.01 581.2,-183.53"/>
<polygon fill="black" stroke="black" stroke-width="5" points="574.06,-191.23 595.44,-186.8 577.68,-174.11 574.06,-191.23"/>
<text text-anchor="middle" x="342.5" y="-189.25" font-family="Times New Roman,serif" font-size="30.00"> &#160;&#160;700 &#160;&#160;92% &#160;&#160;0.164 mol/s &#160;&#160;&#160;3.96E&#45;03</text>
</g>
<!-- R97 -->
<g id="node9" class="node">
<title>R97</title>
<g id="a_node9"><a xlink:href="97.svg" xlink:title="R97">
<polygon fill="azure" stroke="none" points="85,-122.75 9,-122.75 9,-75.75 85,-75.75 85,-122.75"/>
<text text-anchor="middle" x="47" y="-90.75" font-family="Times New Roman,serif" font-size="35.00">R97</text>
</a>
</g>
</g>
<!-- R97&#45;&gt;R205 -->
<g id="edge9" class="edge">
<title>R97&#45;&gt;R205</title>
<path fill="none" stroke="black" d="M84.96,-103.54C90.98,-104.17 97.16,-104.76 103,-105.25 156.13,-109.7 535.41,-107.34 582,-133.25 600.04,-143.28 613.54,-162.02 622.66,-178.61"/>
<polygon fill="black" stroke="black" points="619.83,-179.76 627.52,-187.05 626.05,-176.56 619.83,-179.76"/>
<text text-anchor="middle" x="342.5" y="-142.25" font-family="Times New Roman,serif" font-size="30.00"> &#160;&#160;701 &#160;&#160;6% &#160;&#160;0.0119 mol/s &#160;&#160;&#160;4.93E&#45;02</text>
</g>
<!-- R97&#45;&gt;R205 -->
<g id="edge10" class="edge">
<title>R97&#45;&gt;R205</title>
<path fill="none" stroke="black" d="M83.56,-75.8C89.81,-72.68 96.43,-69.98 103,-68.25 308.92,-14.22 406.51,52.27 582,-68.25 617.36,-92.54 630,-142.97 634.51,-176.98"/>
<polygon fill="black" stroke="black" points="631.13,-177.28 635.74,-186.82 638.09,-176.48 631.13,-177.28"/>
<text text-anchor="middle" x="342.5" y="-77.25" font-family="Times New Roman,serif" font-size="30.00"> &#160;&#160;917 &#160;&#160;0% &#160;&#160;0.00062 mol/s &#160;&#160;&#160;9.51E&#45;01</text>
</g>
</g>
</svg>
