<?xml version="1.0" encoding="UTF-8" standalone="no"?>
<!DOCTYPE svg PUBLIC "-//W3C//DTD SVG 1.1//EN"
 "http://www.w3.org/Graphics/SVG/1.1/DTD/svg11.dtd">
<!-- Generated by graphviz version 8.0.3 (20230416.2022)
 -->
<!-- Title: G Pages: 1 -->
<svg width="640pt" height="189pt"
 viewBox="0.00 0.00 720.00 213.11" xmlns="http://www.w3.org/2000/svg" xmlns:xlink="http://www.w3.org/1999/xlink">
<g id="graph0" class="graph" transform="scale(0.490421 0.490421) rotate(0) translate(4 382.26)">
<title>G</title>
<polygon fill="white" stroke="none" points="-4,4 -4,-382.26 1301,-382.26 1301,4 -4,4"/>
<text text-anchor="middle" x="648.5" y="-345.46" font-family="Arial" font-size="36.00" fill="blue">Reaction Path Analysis</text>
<!-- R21 -->
<g id="node1" class="node">
<title>R21</title>
<g id="a_node1"><a xlink:href="21.svg" xlink:title="R21">
<polygon fill="azure" stroke="none" points="691,-165.76 615,-165.76 615,-118.76 691,-118.76 691,-165.76"/>
<text text-anchor="middle" x="653" y="-133.76" font-family="Times New Roman,serif" font-size="35.00">R21</text>
</a>
</g>
</g>
<!-- R8 -->
<g id="node2" class="node">
<title>R8</title>
<g id="a_node2"><a xlink:href="8.svg" xlink:title="R8">
<polygon fill="azure" stroke="none" points="1288,-290.76 1230,-290.76 1230,-243.76 1288,-243.76 1288,-290.76"/>
<text text-anchor="middle" x="1259" y="-258.76" font-family="Times New Roman,serif" font-size="35.00">R8</text>
</a>
</g>
</g>
<!-- R21&#45;&gt;R8 -->
<g id="edge1" class="edge">
<title>R21&#45;&gt;R8</title>
<path fill="none" stroke="green" d="M663.43,-165.38C674.27,-188.6 694.46,-223.16 724,-239.26 889.11,-329.26 1127.24,-294.37 1219.48,-275.88"/>
<polygon fill="green" stroke="green" points="1220.16,-279.11 1229.24,-273.66 1218.74,-272.25 1220.16,-279.11"/>
<text text-anchor="middle" x="956" y="-306.26" font-family="Times New Roman,serif" font-size="30.00"> &#160;&#160;26 &#160;&#160;0% &#160;&#160;2.72e&#45;08 mol/s &#160;&#160;&#160;4.85E&#45;01</text>
</g>
<!-- R1 -->
<g id="node3" class="node">
<title>R1</title>
<g id="a_node3"><a xlink:href="1.svg" xlink:title="R1">
<polygon fill="azure" stroke="none" points="1288,-225.76 1230,-225.76 1230,-178.76 1288,-178.76 1288,-225.76"/>
<text text-anchor="middle" x="1259" y="-193.76" font-family="Times New Roman,serif" font-size="35.00">R1</text>
</a>
</g>
</g>
<!-- R21&#45;&gt;R1 -->
<g id="edge2" class="edge">
<title>R21&#45;&gt;R1</title>
<path fill="none" stroke="green" d="M690.95,-165C701.29,-170.31 712.77,-175.28 724,-178.26 817.45,-203.12 1112.65,-203.41 1219.18,-202.66"/>
<polygon fill="green" stroke="green" points="1219.08,-206.15 1229.06,-202.58 1219.03,-199.15 1219.08,-206.15"/>
<text text-anchor="middle" x="956" y="-211.26" font-family="Times New Roman,serif" font-size="30.00"> &#160;&#160;26 &#160;&#160;0% &#160;&#160;2.72e&#45;08 mol/s &#160;&#160;&#160;4.85E&#45;01</text>
</g>
<!-- R37 -->
<g id="node4" class="node">
<title>R37</title>
<g id="a_node4"><a xlink:href="37.svg" xlink:title="R37">
<polygon fill="azure" stroke="none" points="1297,-160.76 1221,-160.76 1221,-113.76 1297,-113.76 1297,-160.76"/>
<text text-anchor="middle" x="1259" y="-128.76" font-family="Times New Roman,serif" font-size="35.00">R37</text>
</a>
</g>
</g>
<!-- R21&#45;&gt;R37 -->
<g id="edge3" class="edge">
<title>R21&#45;&gt;R37</title>
<path fill="none" stroke="black" d="M690.87,-141.96C795.46,-141.09 1093.94,-138.62 1210.52,-137.66"/>
<polygon fill="black" stroke="black" points="1210.26,-141.15 1220.23,-137.57 1210.2,-134.15 1210.26,-141.15"/>
<text text-anchor="middle" x="956" y="-150.26" font-family="Times New Roman,serif" font-size="30.00"> &#160;&#160;108 &#160;&#160;0% &#160;&#160;4.1e&#45;07 mol/s &#160;&#160;&#160;9.61E&#45;01</text>
</g>
<!-- R68 -->
<g id="node7" class="node">
<title>R68</title>
<g id="a_node7"><a xlink:href="68.svg" xlink:title="R68">
<polygon fill="azure" stroke="none" points="1297,-76.76 1221,-76.76 1221,-29.76 1297,-29.76 1297,-76.76"/>
<text text-anchor="middle" x="1259" y="-44.76" font-family="Times New Roman,serif" font-size="35.00">R68</text>
</a>
</g>
</g>
<!-- R21&#45;&gt;R68 -->
<g id="edge6" class="edge">
<title>R21&#45;&gt;R68</title>
<path fill="none" stroke="black" d="M685.96,-118.84C697.41,-111.63 710.77,-104.49 724,-100.26 921.05,-37.38 982.56,-88.34 1188,-64.26 1195.22,-63.42 1202.85,-62.37 1210.29,-61.27"/>
<polygon fill="black" stroke="black" points="1210.66,-64.6 1220.02,-59.63 1209.6,-57.68 1210.66,-64.6"/>
<text text-anchor="middle" x="956" y="-109.26" font-family="Times New Roman,serif" font-size="30.00"> &#160;&#160;425 &#160;&#160;0% &#160;&#160;0.00065 mol/s &#160;&#160;&#160;9.94E&#45;01</text>
</g>
<!-- R21&#45;&gt;R68 -->
<g id="edge7" class="edge">
<title>R21&#45;&gt;R68</title>
<path fill="none" stroke="black" stroke-width="5" d="M660.5,-119.12C669.63,-91.58 689.16,-46.84 724,-27.26 813.89,23.25 1086.51,-9.02 1188,-27.26 1192.42,-28.06 1196.93,-29.11 1201.42,-30.35"/>
<polygon fill="black" stroke="black" stroke-width="5" points="1194.54,-37.94 1216.27,-35.84 1199.98,-21.31 1194.54,-37.94"/>
<text text-anchor="middle" x="956" y="-36.26" font-family="Times New Roman,serif" font-size="30.00"> &#160;&#160;452 &#160;&#160;99% &#160;&#160;0.106 mol/s &#160;&#160;&#160;6.08E&#45;03</text>
</g>
<!-- R51 -->
<g id="node5" class="node">
<title>R51</title>
<g id="a_node5"><a xlink:href="51.svg" xlink:title="R51">
<polygon fill="azure" stroke="none" points="85,-198.76 9,-198.76 9,-151.76 85,-151.76 85,-198.76"/>
<text text-anchor="middle" x="47" y="-166.76" font-family="Times New Roman,serif" font-size="35.00">R51</text>
</a>
</g>
</g>
<!-- R51&#45;&gt;R21 -->
<g id="edge4" class="edge">
<title>R51&#45;&gt;R21</title>
<path fill="none" stroke="black" stroke-width="4" d="M84.78,-175.78C170.42,-176.57 390.18,-176.17 594.48,-152.9"/>
<polygon fill="black" stroke="black" stroke-width="4" points="590.11,-159.76 609.15,-150.46 588.46,-145.86 590.11,-159.76"/>
<text text-anchor="middle" x="350" y="-184.26" font-family="Times New Roman,serif" font-size="30.00"> &#160;&#160;163 &#160;&#160;77% &#160;&#160;0.000114 mol/s &#160;&#160;&#160;3.71E&#45;03</text>
</g>
<!-- R115 -->
<g id="node6" class="node">
<title>R115</title>
<g id="a_node6"><a xlink:href="115.svg" xlink:title="R115">
<polygon fill="azure" stroke="none" points="94,-133.76 0,-133.76 0,-86.76 94,-86.76 94,-133.76"/>
<text text-anchor="middle" x="47" y="-101.76" font-family="Times New Roman,serif" font-size="35.00">R115</text>
</a>
</g>
</g>
<!-- R115&#45;&gt;R21 -->
<g id="edge5" class="edge">
<title>R115&#45;&gt;R21</title>
<path fill="none" stroke="black" stroke-width="2" d="M93.79,-105.59C188.77,-97.09 413.62,-83.21 597,-120.26 599.65,-120.8 602.33,-121.45 605.01,-122.2"/>
<polygon fill="black" stroke="black" stroke-width="2" points="602.69,-125.77 613.28,-125.47 604.82,-119.1 602.69,-125.77"/>
<text text-anchor="middle" x="350" y="-129.26" font-family="Times New Roman,serif" font-size="30.00"> &#160;&#160;164 &#160;&#160;22% &#160;&#160;3.27e&#45;05 mol/s &#160;&#160;&#160;1.27E&#45;02</text>
</g>
</g>
</svg>
