<?xml version="1.0" encoding="UTF-8" standalone="no"?>
<!DOCTYPE svg PUBLIC "-//W3C//DTD SVG 1.1//EN"
 "http://www.w3.org/Graphics/SVG/1.1/DTD/svg11.dtd">
<!-- Generated by graphviz version 8.0.3 (20230416.2022)
 -->
<!-- Title: G Pages: 1 -->
<svg width="640pt" height="319pt"
 viewBox="0.00 0.00 720.00 358.46" xmlns="http://www.w3.org/2000/svg" xmlns:xlink="http://www.w3.org/1999/xlink">
<g id="graph0" class="graph" transform="scale(0.885201 0.885201) rotate(0) translate(4 355.95)">
<title>G</title>
<polygon fill="white" stroke="none" points="-4,4 -4,-355.95 719,-355.95 719,4 -4,4"/>
<text text-anchor="middle" x="357.5" y="-319.15" font-family="Arial" font-size="36.00" fill="blue">Reaction Path Analysis</text>
<!-- R210 -->
<g id="node1" class="node">
<title>R210</title>
<g id="a_node1"><a xlink:href="210.svg" xlink:title="R210">
<polygon fill="azure" stroke="none" points="94,-165.45 0,-165.45 0,-118.45 94,-118.45 94,-165.45"/>
<text text-anchor="middle" x="47" y="-133.45" font-family="Times New Roman,serif" font-size="35.00">R210</text>
</a>
</g>
</g>
<!-- R87 -->
<g id="node2" class="node">
<title>R87</title>
<g id="a_node2"><a xlink:href="87.svg" xlink:title="R87">
<polygon fill="azure" stroke="none" points="706,-263.45 630,-263.45 630,-216.45 706,-216.45 706,-263.45"/>
<text text-anchor="middle" x="668" y="-231.45" font-family="Times New Roman,serif" font-size="35.00">R87</text>
</a>
</g>
</g>
<!-- R210&#45;&gt;R87 -->
<g id="edge1" class="edge">
<title>R210&#45;&gt;R87</title>
<path fill="none" stroke="black" stroke-width="5" d="M59.41,-165.24C68.72,-181.44 83.51,-201.87 103,-211.95 269.84,-298.22 502.85,-271.05 609.54,-251.91"/>
<polygon fill="black" stroke="black" stroke-width="5" points="605.99,-261.35 624.02,-249.05 602.75,-244.16 605.99,-261.35"/>
<text text-anchor="middle" x="357.5" y="-279.95" font-family="Times New Roman,serif" font-size="30.00"> &#160;&#160;271 &#160;&#160;99% &#160;&#160;1090000.0 mol/s &#160;&#160;&#160;3.91E&#45;13</text>
</g>
<!-- R2 -->
<g id="node3" class="node">
<title>R2</title>
<g id="a_node3"><a xlink:href="2.svg" xlink:title="R2">
<polygon fill="azure" stroke="none" points="697,-198.45 639,-198.45 639,-151.45 697,-151.45 697,-198.45"/>
<text text-anchor="middle" x="668" y="-166.45" font-family="Times New Roman,serif" font-size="35.00">R2</text>
</a>
</g>
</g>
<!-- R210&#45;&gt;R2 -->
<g id="edge2" class="edge">
<title>R210&#45;&gt;R2</title>
<path fill="none" stroke="black" stroke-width="5" d="M93.83,-151.68C96.92,-152.17 100,-152.6 103,-152.95 292.6,-175.47 520.32,-176.45 618.29,-175.64"/>
<polygon fill="black" stroke="black" stroke-width="5" points="613.09,-184.38 633,-175.42 612.91,-166.88 613.09,-184.38"/>
<text text-anchor="middle" x="357.5" y="-183.95" font-family="Times New Roman,serif" font-size="30.00"> &#160;&#160;271 &#160;&#160;99% &#160;&#160;1090000.0 mol/s &#160;&#160;&#160;3.91E&#45;13</text>
</g>
<!-- R0 -->
<g id="node4" class="node">
<title>R0</title>
<g id="a_node4"><a xlink:href="0.svg" xlink:title="R0">
<polygon fill="azure" stroke="none" points="697,-133.45 639,-133.45 639,-86.45 697,-86.45 697,-133.45"/>
<text text-anchor="middle" x="668" y="-101.45" font-family="Times New Roman,serif" font-size="35.00">R0</text>
</a>
</g>
</g>
<!-- R210&#45;&gt;R0 -->
<g id="edge3" class="edge">
<title>R210&#45;&gt;R0</title>
<path fill="none" stroke="black" d="M93.84,-122.22C96.9,-121.33 99.98,-120.56 103,-119.95 296.98,-80.81 536.13,-97.23 628.28,-105.89"/>
<polygon fill="black" stroke="black" points="627.74,-109.45 638.03,-106.92 628.42,-102.48 627.74,-109.45"/>
<text text-anchor="middle" x="357.5" y="-128.95" font-family="Times New Roman,serif" font-size="30.00"> &#160;&#160;509 &#160;&#160;0% &#160;&#160;0.0281 mol/s &#160;&#160;&#160;1.52E&#45;05</text>
</g>
<!-- R168 -->
<g id="node5" class="node">
<title>R168</title>
<g id="a_node5"><a xlink:href="168.svg" xlink:title="R168">
<polygon fill="azure" stroke="none" points="715,-68.45 621,-68.45 621,-21.45 715,-21.45 715,-68.45"/>
<text text-anchor="middle" x="668" y="-36.45" font-family="Times New Roman,serif" font-size="35.00">R168</text>
</a>
</g>
</g>
<!-- R210&#45;&gt;R168 -->
<g id="edge4" class="edge">
<title>R210&#45;&gt;R168</title>
<path fill="none" stroke="black" d="M56.06,-118.78C64.4,-98.74 79.53,-70.99 103,-57.95 267.93,33.67 504,-5.24 610.76,-30.11"/>
<polygon fill="black" stroke="black" points="609.75,-33.7 620.29,-32.62 611.37,-26.89 609.75,-33.7"/>
<text text-anchor="middle" x="357.5" y="-66.95" font-family="Times New Roman,serif" font-size="30.00"> &#160;&#160;509 &#160;&#160;0% &#160;&#160;0.0281 mol/s &#160;&#160;&#160;1.52E&#45;05</text>
</g>
</g>
</svg>
