<?xml version="1.0" encoding="UTF-8" standalone="no"?>
<!DOCTYPE svg PUBLIC "-//W3C//DTD SVG 1.1//EN"
 "http://www.w3.org/Graphics/SVG/1.1/DTD/svg11.dtd">
<!-- Generated by graphviz version 8.0.3 (20230416.2022)
 -->
<!-- Title: G Pages: 1 -->
<svg width="629pt" height="318pt"
 viewBox="0.00 0.00 708.00 357.51" xmlns="http://www.w3.org/2000/svg" xmlns:xlink="http://www.w3.org/1999/xlink">
<g id="graph0" class="graph" transform="scale(0.888889 0.888889) rotate(0) translate(4 353.51)">
<title>G</title>
<polygon fill="white" stroke="none" points="-4,4 -4,-353.51 704,-353.51 704,4 -4,4"/>
<text text-anchor="middle" x="350" y="-316.71" font-family="Arial" font-size="36.00" fill="blue">Reaction Path Analysis</text>
<!-- R211 -->
<g id="node1" class="node">
<title>R211</title>
<g id="a_node1"><a xlink:href="211.svg" xlink:title="R211">
<polygon fill="azure" stroke="none" points="94,-164.01 0,-164.01 0,-117.01 94,-117.01 94,-164.01"/>
<text text-anchor="middle" x="47" y="-132.01" font-family="Times New Roman,serif" font-size="35.00">R211</text>
</a>
</g>
</g>
<!-- R88 -->
<g id="node2" class="node">
<title>R88</title>
<g id="a_node2"><a xlink:href="88.svg" xlink:title="R88">
<polygon fill="azure" stroke="none" points="691,-262.01 615,-262.01 615,-215.01 691,-215.01 691,-262.01"/>
<text text-anchor="middle" x="653" y="-230.01" font-family="Times New Roman,serif" font-size="35.00">R88</text>
</a>
</g>
</g>
<!-- R211&#45;&gt;R88 -->
<g id="edge1" class="edge">
<title>R211&#45;&gt;R88</title>
<path fill="none" stroke="black" stroke-width="5" d="M59.41,-163.79C68.72,-179.99 83.51,-200.42 103,-210.51 264.79,-294.31 490.61,-268.69 594.97,-250.25"/>
<polygon fill="black" stroke="black" stroke-width="5" points="591.26,-259.73 609.33,-247.47 588.06,-242.52 591.26,-259.73"/>
<text text-anchor="middle" x="350" y="-277.51" font-family="Times New Roman,serif" font-size="30.00"> &#160;&#160;272 &#160;&#160;99% &#160;&#160;396000.0 mol/s &#160;&#160;&#160;1.08E&#45;12</text>
</g>
<!-- R2 -->
<g id="node3" class="node">
<title>R2</title>
<g id="a_node3"><a xlink:href="2.svg" xlink:title="R2">
<polygon fill="azure" stroke="none" points="682,-197.01 624,-197.01 624,-150.01 682,-150.01 682,-197.01"/>
<text text-anchor="middle" x="653" y="-165.01" font-family="Times New Roman,serif" font-size="35.00">R2</text>
</a>
</g>
</g>
<!-- R211&#45;&gt;R2 -->
<g id="edge2" class="edge">
<title>R211&#45;&gt;R2</title>
<path fill="none" stroke="black" stroke-width="5" d="M93.83,-150.24C96.92,-150.72 100,-151.16 103,-151.51 286.73,-173.43 507.23,-174.77 603.29,-174.13"/>
<polygon fill="black" stroke="black" stroke-width="5" points="598.25,-182.87 618.17,-173.94 598.09,-165.37 598.25,-182.87"/>
<text text-anchor="middle" x="350" y="-182.51" font-family="Times New Roman,serif" font-size="30.00"> &#160;&#160;272 &#160;&#160;99% &#160;&#160;396000.0 mol/s &#160;&#160;&#160;1.08E&#45;12</text>
</g>
<!-- R0 -->
<g id="node4" class="node">
<title>R0</title>
<g id="a_node4"><a xlink:href="0.svg" xlink:title="R0">
<polygon fill="azure" stroke="none" points="682,-132.01 624,-132.01 624,-85.01 682,-85.01 682,-132.01"/>
<text text-anchor="middle" x="653" y="-100.01" font-family="Times New Roman,serif" font-size="35.00">R0</text>
</a>
</g>
</g>
<!-- R211&#45;&gt;R0 -->
<g id="edge3" class="edge">
<title>R211&#45;&gt;R0</title>
<path fill="none" stroke="black" d="M93.84,-120.78C96.91,-119.9 99.98,-119.13 103,-118.51 291.18,-80.49 523.03,-96.1 613.4,-104.49"/>
<polygon fill="black" stroke="black" points="612.91,-108.06 623.2,-105.53 613.58,-101.09 612.91,-108.06"/>
<text text-anchor="middle" x="350" y="-127.51" font-family="Times New Roman,serif" font-size="30.00"> &#160;&#160;510 &#160;&#160;0% &#160;&#160;4.2e&#45;07 mol/s &#160;&#160;&#160;3.35E&#45;01</text>
</g>
<!-- R169 -->
<g id="node5" class="node">
<title>R169</title>
<g id="a_node5"><a xlink:href="169.svg" xlink:title="R169">
<polygon fill="azure" stroke="none" points="700,-67.01 606,-67.01 606,-20.01 700,-20.01 700,-67.01"/>
<text text-anchor="middle" x="653" y="-35.01" font-family="Times New Roman,serif" font-size="35.00">R169</text>
</a>
</g>
</g>
<!-- R211&#45;&gt;R169 -->
<g id="edge4" class="edge">
<title>R211&#45;&gt;R169</title>
<path fill="none" stroke="black" d="M56.06,-117.35C64.4,-97.31 79.54,-69.56 103,-56.51 262.55,32.18 490.55,-4.53 595.36,-28.67"/>
<polygon fill="black" stroke="black" points="594.47,-32.29 605.01,-31.18 596.08,-25.48 594.47,-32.29"/>
<text text-anchor="middle" x="350" y="-65.51" font-family="Times New Roman,serif" font-size="30.00"> &#160;&#160;510 &#160;&#160;0% &#160;&#160;4.2e&#45;07 mol/s &#160;&#160;&#160;3.35E&#45;01</text>
</g>
</g>
</svg>
