<?xml version="1.0" encoding="UTF-8" standalone="no"?>
<!DOCTYPE svg PUBLIC "-//W3C//DTD SVG 1.1//EN"
 "http://www.w3.org/Graphics/SVG/1.1/DTD/svg11.dtd">
<!-- Generated by graphviz version 8.0.3 (20230416.2022)
 -->
<!-- Title: G Pages: 1 -->
<svg width="610pt" height="313pt"
 viewBox="0.00 0.00 686.00 352.51" xmlns="http://www.w3.org/2000/svg" xmlns:xlink="http://www.w3.org/1999/xlink">
<g id="graph0" class="graph" transform="scale(0.888889 0.888889) rotate(0) translate(4 348.51)">
<title>G</title>
<polygon fill="white" stroke="none" points="-4,4 -4,-348.51 682,-348.51 682,4 -4,4"/>
<text text-anchor="middle" x="339" y="-311.71" font-family="Arial" font-size="36.00" fill="blue">Reaction Path Analysis</text>
<!-- R214 -->
<g id="node1" class="node">
<title>R214</title>
<g id="a_node1"><a xlink:href="214.svg" xlink:title="R214">
<polygon fill="azure" stroke="none" points="94,-161.01 0,-161.01 0,-114.01 94,-114.01 94,-161.01"/>
<text text-anchor="middle" x="47" y="-129.01" font-family="Times New Roman,serif" font-size="35.00">R214</text>
</a>
</g>
</g>
<!-- R89 -->
<g id="node2" class="node">
<title>R89</title>
<g id="a_node2"><a xlink:href="89.svg" xlink:title="R89">
<polygon fill="azure" stroke="none" points="669,-259.01 593,-259.01 593,-212.01 669,-212.01 669,-259.01"/>
<text text-anchor="middle" x="631" y="-227.01" font-family="Times New Roman,serif" font-size="35.00">R89</text>
</a>
</g>
</g>
<!-- R214&#45;&gt;R89 -->
<g id="edge1" class="edge">
<title>R214&#45;&gt;R89</title>
<path fill="none" stroke="black" stroke-width="5" d="M59.42,-160.77C68.73,-176.97 83.52,-197.4 103,-207.51 256.97,-287.46 471.49,-264.46 572.75,-247.06"/>
<polygon fill="black" stroke="black" stroke-width="5" points="569.03,-256.54 587.15,-244.37 565.91,-239.32 569.03,-256.54"/>
<text text-anchor="middle" x="339" y="-272.51" font-family="Times New Roman,serif" font-size="30.00"> &#160;&#160;275 &#160;&#160;99% &#160;&#160;460.0 mol/s &#160;&#160;&#160;9.29E&#45;10</text>
</g>
<!-- R2 -->
<g id="node3" class="node">
<title>R2</title>
<g id="a_node3"><a xlink:href="2.svg" xlink:title="R2">
<polygon fill="azure" stroke="none" points="660,-194.01 602,-194.01 602,-147.01 660,-147.01 660,-194.01"/>
<text text-anchor="middle" x="631" y="-162.01" font-family="Times New Roman,serif" font-size="35.00">R2</text>
</a>
</g>
</g>
<!-- R214&#45;&gt;R2 -->
<g id="edge2" class="edge">
<title>R214&#45;&gt;R2</title>
<path fill="none" stroke="black" stroke-width="5" d="M93.83,-147.23C96.93,-147.72 100,-148.15 103,-148.51 278.15,-169.55 488.13,-171.38 581.33,-171"/>
<polygon fill="black" stroke="black" stroke-width="5" points="576.22,-179.75 596.17,-170.87 576.11,-162.25 576.22,-179.75"/>
<text text-anchor="middle" x="339" y="-179.51" font-family="Times New Roman,serif" font-size="30.00"> &#160;&#160;275 &#160;&#160;99% &#160;&#160;460.0 mol/s &#160;&#160;&#160;9.29E&#45;10</text>
</g>
<!-- R0 -->
<g id="node4" class="node">
<title>R0</title>
<g id="a_node4"><a xlink:href="0.svg" xlink:title="R0">
<polygon fill="azure" stroke="none" points="660,-129.01 602,-129.01 602,-82.01 660,-82.01 660,-129.01"/>
<text text-anchor="middle" x="631" y="-97.01" font-family="Times New Roman,serif" font-size="35.00">R0</text>
</a>
</g>
</g>
<!-- R214&#45;&gt;R0 -->
<g id="edge3" class="edge">
<title>R214&#45;&gt;R0</title>
<path fill="none" stroke="black" d="M93.84,-117.78C96.91,-116.89 99.98,-116.12 103,-115.51 282.58,-79.16 503.63,-93.55 591.43,-101.55"/>
<polygon fill="black" stroke="black" points="590.9,-105.11 601.19,-102.56 591.56,-98.14 590.9,-105.11"/>
<text text-anchor="middle" x="339" y="-124.51" font-family="Times New Roman,serif" font-size="30.00"> &#160;&#160;513 &#160;&#160;0% &#160;&#160;1.42e&#45;05 mol/s &#160;&#160;&#160;2.83E&#45;02</text>
</g>
<!-- R172 -->
<g id="node5" class="node">
<title>R172</title>
<g id="a_node5"><a xlink:href="172.svg" xlink:title="R172">
<polygon fill="azure" stroke="none" points="678,-64.01 584,-64.01 584,-17.01 678,-17.01 678,-64.01"/>
<text text-anchor="middle" x="631" y="-32.01" font-family="Times New Roman,serif" font-size="35.00">R172</text>
</a>
</g>
</g>
<!-- R214&#45;&gt;R172 -->
<g id="edge4" class="edge">
<title>R214&#45;&gt;R172</title>
<path fill="none" stroke="black" d="M56.31,-114.24C64.74,-94.47 79.87,-67.33 103,-54.51 255.16,29.82 471.89,-3.36 573.42,-26.04"/>
<polygon fill="black" stroke="black" points="572.53,-29.65 583.06,-28.47 574.09,-22.83 572.53,-29.65"/>
<text text-anchor="middle" x="339" y="-63.51" font-family="Times New Roman,serif" font-size="30.00"> &#160;&#160;513 &#160;&#160;0% &#160;&#160;1.42e&#45;05 mol/s &#160;&#160;&#160;2.83E&#45;02</text>
</g>
</g>
</svg>
