<?xml version="1.0" encoding="UTF-8" standalone="no"?>
<!DOCTYPE svg PUBLIC "-//W3C//DTD SVG 1.1//EN"
 "http://www.w3.org/Graphics/SVG/1.1/DTD/svg11.dtd">
<!-- Generated by graphviz version 8.0.3 (20230416.2022)
 -->
<!-- Title: G Pages: 1 -->
<svg width="640pt" height="85pt"
 viewBox="0.00 0.00 720.00 95.73" xmlns="http://www.w3.org/2000/svg" xmlns:xlink="http://www.w3.org/1999/xlink">
<g id="graph0" class="graph" transform="scale(0.479401 0.479401) rotate(0) translate(4 173.5)">
<title>G</title>
<polygon fill="white" stroke="none" points="-4,4 -4,-173.5 1331,-173.5 1331,4 -4,4"/>
<text text-anchor="middle" x="663.5" y="-136.7" font-family="Arial" font-size="36.00" fill="blue">Reaction Path Analysis</text>
<!-- R217 -->
<g id="node1" class="node">
<title>R217</title>
<g id="a_node1"><a xlink:href="217.svg" xlink:title="R217">
<polygon fill="azure" stroke="none" points="706,-79 612,-79 612,-32 706,-32 706,-79"/>
<text text-anchor="middle" x="659" y="-47" font-family="Times New Roman,serif" font-size="35.00">R217</text>
</a>
</g>
</g>
<!-- R1 -->
<g id="node4" class="node">
<title>R1</title>
<g id="a_node4"><a xlink:href="1.svg" xlink:title="R1">
<polygon fill="azure" stroke="none" points="1309,-112 1251,-112 1251,-65 1309,-65 1309,-112"/>
<text text-anchor="middle" x="1280" y="-80" font-family="Times New Roman,serif" font-size="35.00">R1</text>
</a>
</g>
</g>
<!-- R217&#45;&gt;R1 -->
<g id="edge3" class="edge">
<title>R217&#45;&gt;R1</title>
<path fill="none" stroke="black" stroke-width="6" d="M705.83,-65.23C708.92,-65.71 712,-66.14 715,-66.5 904.6,-89.01 1132.32,-90 1230.29,-89.19"/>
<polygon fill="black" stroke="black" stroke-width="6" points="1225.11,-99.68 1245,-88.97 1224.89,-78.68 1225.11,-99.68"/>
<text text-anchor="middle" x="969.5" y="-97.5" font-family="Times New Roman,serif" font-size="30.00"> &#160;&#160;561 &#160;&#160;100% &#160;&#160;0.000166 mol/s &#160;&#160;&#160;2.57E&#45;03</text>
</g>
<!-- R111 -->
<g id="node5" class="node">
<title>R111</title>
<g id="a_node5"><a xlink:href="111.svg" xlink:title="R111">
<polygon fill="azure" stroke="none" points="1327,-47 1233,-47 1233,0 1327,0 1327,-47"/>
<text text-anchor="middle" x="1280" y="-15" font-family="Times New Roman,serif" font-size="35.00">R111</text>
</a>
</g>
</g>
<!-- R217&#45;&gt;R111 -->
<g id="edge4" class="edge">
<title>R217&#45;&gt;R111</title>
<path fill="none" stroke="black" stroke-width="6" d="M705.84,-35.76C708.9,-34.88 711.98,-34.11 715,-33.5 891.74,2.16 1105.98,-8.3 1212.36,-16.99"/>
<polygon fill="black" stroke="black" stroke-width="6" points="1206.24,-27.51 1227.07,-18.77 1208.05,-6.59 1206.24,-27.51"/>
<text text-anchor="middle" x="969.5" y="-42.5" font-family="Times New Roman,serif" font-size="30.00"> &#160;&#160;561 &#160;&#160;100% &#160;&#160;0.000166 mol/s &#160;&#160;&#160;2.57E&#45;03</text>
</g>
<!-- R17 -->
<g id="node2" class="node">
<title>R17</title>
<g id="a_node2"><a xlink:href="17.svg" xlink:title="R17">
<polygon fill="azure" stroke="none" points="76,-112 0,-112 0,-65 76,-65 76,-112"/>
<text text-anchor="middle" x="38" y="-80" font-family="Times New Roman,serif" font-size="35.00">R17</text>
</a>
</g>
</g>
<!-- R17&#45;&gt;R217 -->
<g id="edge1" class="edge">
<title>R17&#45;&gt;R217</title>
<path fill="none" stroke="black" stroke-width="6" d="M75.87,-88.92C162.78,-89.51 387.69,-88.75 591.51,-67.06"/>
<polygon fill="black" stroke="black" stroke-width="6" points="587.38,-77.42 606.11,-64.79 585.08,-56.54 587.38,-77.42"/>
<text text-anchor="middle" x="348.5" y="-97.5" font-family="Times New Roman,serif" font-size="30.00"> &#160;&#160;280 &#160;&#160;100% &#160;&#160;2.96e&#45;07 mol/s &#160;&#160;&#160;7.65E&#45;01</text>
</g>
<!-- R3 -->
<g id="node3" class="node">
<title>R3</title>
<g id="a_node3"><a xlink:href="3.svg" xlink:title="R3">
<polygon fill="azure" stroke="none" points="67,-47 9,-47 9,0 67,0 67,-47"/>
<text text-anchor="middle" x="38" y="-15" font-family="Times New Roman,serif" font-size="35.00">R3</text>
</a>
</g>
</g>
<!-- R3&#45;&gt;R217 -->
<g id="edge2" class="edge">
<title>R3&#45;&gt;R217</title>
<path fill="none" stroke="black" stroke-width="6" d="M66.75,-20.69C146.39,-13.31 382.62,3.81 591.66,-32.81"/>
<polygon fill="black" stroke="black" stroke-width="6" points="584.55,-42.28 606.12,-35.59 588.36,-21.63 584.55,-42.28"/>
<text text-anchor="middle" x="348.5" y="-42.5" font-family="Times New Roman,serif" font-size="30.00"> &#160;&#160;280 &#160;&#160;100% &#160;&#160;2.96e&#45;07 mol/s &#160;&#160;&#160;7.65E&#45;01</text>
</g>
</g>
</svg>
