<?xml version="1.0" encoding="UTF-8" standalone="no"?>
<!DOCTYPE svg PUBLIC "-//W3C//DTD SVG 1.1//EN"
 "http://www.w3.org/Graphics/SVG/1.1/DTD/svg11.dtd">
<!-- Generated by graphviz version 8.0.3 (20230416.2022)
 -->
<!-- Title: G Pages: 1 -->
<svg width="621pt" height="158pt"
 viewBox="0.00 0.00 699.00 177.50" xmlns="http://www.w3.org/2000/svg" xmlns:xlink="http://www.w3.org/1999/xlink">
<g id="graph0" class="graph" transform="scale(0.888889 0.888889) rotate(0) translate(4 173.5)">
<title>G</title>
<polygon fill="white" stroke="none" points="-4,4 -4,-173.5 695,-173.5 695,4 -4,4"/>
<text text-anchor="middle" x="345.5" y="-136.7" font-family="Arial" font-size="36.00" fill="blue">Reaction Path Analysis</text>
<!-- R229 -->
<g id="node1" class="node">
<title>R229</title>
<g id="a_node1"><a xlink:href="229.svg" xlink:title="R229">
<polygon fill="azure" stroke="none" points="94,-79 0,-79 0,-32 94,-32 94,-79"/>
<text text-anchor="middle" x="47" y="-47" font-family="Times New Roman,serif" font-size="35.00">R229</text>
</a>
</g>
</g>
<!-- R4 -->
<g id="node2" class="node">
<title>R4</title>
<g id="a_node2"><a xlink:href="4.svg" xlink:title="R4">
<polygon fill="azure" stroke="none" points="682,-112 624,-112 624,-65 682,-65 682,-112"/>
<text text-anchor="middle" x="653" y="-80" font-family="Times New Roman,serif" font-size="35.00">R4</text>
</a>
</g>
</g>
<!-- R229&#45;&gt;R4 -->
<g id="edge1" class="edge">
<title>R229&#45;&gt;R4</title>
<path fill="none" stroke="black" stroke-width="6" d="M93.83,-65.23C96.92,-65.71 100,-66.14 103,-66.5 286.73,-88.42 507.23,-89.75 603.29,-89.11"/>
<polygon fill="black" stroke="black" stroke-width="6" points="598.26,-99.6 618.17,-88.93 598.08,-78.6 598.26,-99.6"/>
<text text-anchor="middle" x="350" y="-97.5" font-family="Times New Roman,serif" font-size="30.00"> &#160;&#160;300 &#160;&#160;100% &#160;&#160;0.00031 mol/s &#160;&#160;&#160;1.37E&#45;03</text>
</g>
<!-- R17 -->
<g id="node3" class="node">
<title>R17</title>
<g id="a_node3"><a xlink:href="17.svg" xlink:title="R17">
<polygon fill="azure" stroke="none" points="691,-47 615,-47 615,0 691,0 691,-47"/>
<text text-anchor="middle" x="653" y="-15" font-family="Times New Roman,serif" font-size="35.00">R17</text>
</a>
</g>
</g>
<!-- R229&#45;&gt;R17 -->
<g id="edge2" class="edge">
<title>R229&#45;&gt;R17</title>
<path fill="none" stroke="black" stroke-width="6" d="M93.84,-35.76C96.91,-34.88 99.98,-34.11 103,-33.5 279.13,2.09 493.53,-9.31 594.35,-17.8"/>
<polygon fill="black" stroke="black" stroke-width="6" points="588.36,-28.34 609.21,-19.65 590.22,-7.42 588.36,-28.34"/>
<text text-anchor="middle" x="350" y="-42.5" font-family="Times New Roman,serif" font-size="30.00"> &#160;&#160;300 &#160;&#160;100% &#160;&#160;0.00031 mol/s &#160;&#160;&#160;1.37E&#45;03</text>
</g>
</g>
</svg>
