<?xml version="1.0" encoding="UTF-8" standalone="no"?>
<!DOCTYPE svg PUBLIC "-//W3C//DTD SVG 1.1//EN"
 "http://www.w3.org/Graphics/SVG/1.1/DTD/svg11.dtd">
<!-- Generated by graphviz version 8.0.3 (20230416.2022)
 -->
<!-- Title: G Pages: 1 -->
<svg width="568pt" height="307pt"
 viewBox="0.00 0.00 639.00 345.06" xmlns="http://www.w3.org/2000/svg" xmlns:xlink="http://www.w3.org/1999/xlink">
<g id="graph0" class="graph" transform="scale(0.888889 0.888889) rotate(0) translate(4 341.06)">
<title>G</title>
<polygon fill="white" stroke="none" points="-4,4 -4,-341.06 635,-341.06 635,4 -4,4"/>
<text text-anchor="middle" x="315.5" y="-304.26" font-family="Arial" font-size="36.00" fill="blue">Reaction Path Analysis</text>
<!-- R232 -->
<g id="node1" class="node">
<title>R232</title>
<g id="a_node1"><a xlink:href="232.svg" xlink:title="R232">
<polygon fill="azure" stroke="none" points="94,-156.56 0,-156.56 0,-109.56 94,-109.56 94,-156.56"/>
<text text-anchor="middle" x="47" y="-124.56" font-family="Times New Roman,serif" font-size="35.00">R232</text>
</a>
</g>
</g>
<!-- R4 -->
<g id="node2" class="node">
<title>R4</title>
<g id="a_node2"><a xlink:href="4.svg" xlink:title="R4">
<polygon fill="azure" stroke="none" points="622,-254.56 564,-254.56 564,-207.56 622,-207.56 622,-254.56"/>
<text text-anchor="middle" x="593" y="-222.56" font-family="Times New Roman,serif" font-size="35.00">R4</text>
</a>
</g>
</g>
<!-- R232&#45;&gt;R4 -->
<g id="edge1" class="edge">
<title>R232&#45;&gt;R4</title>
<path fill="none" stroke="black" d="M59.43,-156.3C68.75,-172.48 83.54,-192.9 103,-203.06 253.76,-281.74 467.39,-254.58 553.66,-238.93"/>
<polygon fill="black" stroke="black" points="554.07,-242.22 563.26,-236.94 552.78,-235.34 554.07,-242.22"/>
<text text-anchor="middle" x="320" y="-265.06" font-family="Times New Roman,serif" font-size="30.00"> &#160;&#160;306 &#160;&#160;1% &#160;&#160;0.145 mol/s &#160;&#160;&#160;2.96E&#45;06</text>
</g>
<!-- R30 -->
<g id="node3" class="node">
<title>R30</title>
<g id="a_node3"><a xlink:href="30.svg" xlink:title="R30">
<polygon fill="azure" stroke="none" points="631,-189.56 555,-189.56 555,-142.56 631,-142.56 631,-189.56"/>
<text text-anchor="middle" x="593" y="-157.56" font-family="Times New Roman,serif" font-size="35.00">R30</text>
</a>
</g>
</g>
<!-- R232&#45;&gt;R30 -->
<g id="edge2" class="edge">
<title>R232&#45;&gt;R30</title>
<path fill="none" stroke="black" d="M93.83,-142.77C96.93,-143.26 100,-143.69 103,-144.06 263.82,-163.64 456.31,-166.26 544.1,-166.32"/>
<polygon fill="black" stroke="black" points="544.04,-169.82 554.04,-166.31 544.03,-162.82 544.04,-169.82"/>
<text text-anchor="middle" x="320" y="-175.06" font-family="Times New Roman,serif" font-size="30.00"> &#160;&#160;306 &#160;&#160;1% &#160;&#160;0.145 mol/s &#160;&#160;&#160;2.96E&#45;06</text>
</g>
<!-- R14 -->
<g id="node4" class="node">
<title>R14</title>
<g id="a_node4"><a xlink:href="14.svg" xlink:title="R14">
<polygon fill="azure" stroke="none" points="631,-124.56 555,-124.56 555,-77.56 631,-77.56 631,-124.56"/>
<text text-anchor="middle" x="593" y="-92.56" font-family="Times New Roman,serif" font-size="35.00">R14</text>
</a>
</g>
</g>
<!-- R232&#45;&gt;R14 -->
<g id="edge3" class="edge">
<title>R232&#45;&gt;R14</title>
<path fill="none" stroke="black" stroke-width="5" d="M93.84,-113.33C96.91,-112.45 99.98,-111.67 103,-111.06 256.17,-79.93 441.89,-88.4 534.16,-95.61"/>
<polygon fill="black" stroke="black" stroke-width="5" points="528.35,-104.41 549.01,-97.35 529.8,-86.97 528.35,-104.41"/>
<text text-anchor="middle" x="320" y="-120.06" font-family="Times New Roman,serif" font-size="30.00"> &#160;&#160;375 &#160;&#160;98% &#160;&#160;9.97 mol/s &#160;&#160;&#160;4.29E&#45;08</text>
</g>
<!-- R17 -->
<g id="node5" class="node">
<title>R17</title>
<g id="a_node5"><a xlink:href="17.svg" xlink:title="R17">
<polygon fill="azure" stroke="none" points="631,-59.56 555,-59.56 555,-12.56 631,-12.56 631,-59.56"/>
<text text-anchor="middle" x="593" y="-27.56" font-family="Times New Roman,serif" font-size="35.00">R17</text>
</a>
</g>
</g>
<!-- R232&#45;&gt;R17 -->
<g id="edge4" class="edge">
<title>R232&#45;&gt;R17</title>
<path fill="none" stroke="black" stroke-width="5" d="M56.57,-109.7C65.09,-90.22 80.2,-63.67 103,-51.06 242.08,25.88 439.13,-1.65 535.07,-22.03"/>
<polygon fill="black" stroke="black" stroke-width="5" points="527.88,-29.73 549.31,-25.54 531.7,-12.65 527.88,-29.73"/>
<text text-anchor="middle" x="320" y="-60.06" font-family="Times New Roman,serif" font-size="30.00"> &#160;&#160;375 &#160;&#160;98% &#160;&#160;9.97 mol/s &#160;&#160;&#160;4.29E&#45;08</text>
</g>
</g>
</svg>
