<?xml version="1.0" encoding="UTF-8" standalone="no"?>
<!DOCTYPE svg PUBLIC "-//W3C//DTD SVG 1.1//EN"
 "http://www.w3.org/Graphics/SVG/1.1/DTD/svg11.dtd">
<!-- Generated by graphviz version 8.0.3 (20230416.2022)
 -->
<!-- Title: G Pages: 1 -->
<svg width="603pt" height="312pt"
 viewBox="0.00 0.00 678.00 350.75" xmlns="http://www.w3.org/2000/svg" xmlns:xlink="http://www.w3.org/1999/xlink">
<g id="graph0" class="graph" transform="scale(0.888889 0.888889) rotate(0) translate(4 346.75)">
<title>G</title>
<polygon fill="white" stroke="none" points="-4,4 -4,-346.75 674,-346.75 674,4 -4,4"/>
<text text-anchor="middle" x="335" y="-309.95" font-family="Arial" font-size="36.00" fill="blue">Reaction Path Analysis</text>
<!-- R236 -->
<g id="node1" class="node">
<title>R236</title>
<g id="a_node1"><a xlink:href="236.svg" xlink:title="R236">
<polygon fill="azure" stroke="none" points="94,-160.25 0,-160.25 0,-113.25 94,-113.25 94,-160.25"/>
<text text-anchor="middle" x="47" y="-128.25" font-family="Times New Roman,serif" font-size="35.00">R236</text>
</a>
</g>
</g>
<!-- R15 -->
<g id="node2" class="node">
<title>R15</title>
<g id="a_node2"><a xlink:href="15.svg" xlink:title="R15">
<polygon fill="azure" stroke="none" points="661,-258.25 585,-258.25 585,-211.25 661,-211.25 661,-258.25"/>
<text text-anchor="middle" x="623" y="-226.25" font-family="Times New Roman,serif" font-size="35.00">R15</text>
</a>
</g>
</g>
<!-- R236&#45;&gt;R15 -->
<g id="edge1" class="edge">
<title>R236&#45;&gt;R15</title>
<path fill="none" stroke="black" stroke-width="5" d="M59.42,-160.01C68.73,-176.19 83.53,-196.62 103,-206.75 254.08,-285.28 464.41,-263.25 564.56,-246.24"/>
<polygon fill="black" stroke="black" stroke-width="5" points="560.91,-255.71 579.05,-243.57 557.81,-238.49 560.91,-255.71"/>
<text text-anchor="middle" x="335" y="-270.75" font-family="Times New Roman,serif" font-size="30.00"> &#160;&#160;316 &#160;&#160;99% &#160;&#160;1320.0 mol/s &#160;&#160;&#160;3.23E&#45;10</text>
</g>
<!-- R6 -->
<g id="node3" class="node">
<title>R6</title>
<g id="a_node3"><a xlink:href="6.svg" xlink:title="R6">
<polygon fill="azure" stroke="none" points="652,-193.25 594,-193.25 594,-146.25 652,-146.25 652,-193.25"/>
<text text-anchor="middle" x="623" y="-161.25" font-family="Times New Roman,serif" font-size="35.00">R6</text>
</a>
</g>
</g>
<!-- R236&#45;&gt;R6 -->
<g id="edge2" class="edge">
<title>R236&#45;&gt;R6</title>
<path fill="none" stroke="black" stroke-width="5" d="M93.83,-146.46C96.93,-146.95 100,-147.39 103,-147.75 274.9,-168.45 480.85,-170.47 573.11,-170.19"/>
<polygon fill="black" stroke="black" stroke-width="5" points="568.08,-178.94 588.03,-170.08 567.98,-161.44 568.08,-178.94"/>
<text text-anchor="middle" x="335" y="-178.75" font-family="Times New Roman,serif" font-size="30.00"> &#160;&#160;316 &#160;&#160;99% &#160;&#160;1320.0 mol/s &#160;&#160;&#160;3.23E&#45;10</text>
</g>
<!-- R2 -->
<g id="node4" class="node">
<title>R2</title>
<g id="a_node4"><a xlink:href="2.svg" xlink:title="R2">
<polygon fill="azure" stroke="none" points="652,-128.25 594,-128.25 594,-81.25 652,-81.25 652,-128.25"/>
<text text-anchor="middle" x="623" y="-96.25" font-family="Times New Roman,serif" font-size="35.00">R2</text>
</a>
</g>
</g>
<!-- R236&#45;&gt;R2 -->
<g id="edge3" class="edge">
<title>R236&#45;&gt;R2</title>
<path fill="none" stroke="black" d="M93.84,-117.01C96.91,-116.13 99.98,-115.36 103,-114.75 279.25,-79.04 496.06,-92.92 583.12,-100.78"/>
<polygon fill="black" stroke="black" points="582.77,-104.36 593.05,-101.8 583.42,-97.39 582.77,-104.36"/>
<text text-anchor="middle" x="335" y="-123.75" font-family="Times New Roman,serif" font-size="30.00"> &#160;&#160;612 &#160;&#160;0% &#160;&#160;8.82 mol/s &#160;&#160;&#160;4.85E&#45;08</text>
</g>
<!-- R109 -->
<g id="node5" class="node">
<title>R109</title>
<g id="a_node5"><a xlink:href="109.svg" xlink:title="R109">
<polygon fill="azure" stroke="none" points="670,-63.25 576,-63.25 576,-16.25 670,-16.25 670,-63.25"/>
<text text-anchor="middle" x="623" y="-31.25" font-family="Times New Roman,serif" font-size="35.00">R109</text>
</a>
</g>
</g>
<!-- R236&#45;&gt;R109 -->
<g id="edge4" class="edge">
<title>R236&#45;&gt;R109</title>
<path fill="none" stroke="black" d="M56.31,-113.48C64.74,-93.71 79.87,-66.57 103,-53.75 252.46,29.12 465.2,-3.07 565.52,-25.35"/>
<polygon fill="black" stroke="black" points="564.5,-28.94 575.03,-27.74 566.05,-22.11 564.5,-28.94"/>
<text text-anchor="middle" x="335" y="-62.75" font-family="Times New Roman,serif" font-size="30.00"> &#160;&#160;612 &#160;&#160;0% &#160;&#160;8.82 mol/s &#160;&#160;&#160;4.85E&#45;08</text>
</g>
</g>
</svg>
