<?xml version="1.0" encoding="UTF-8" standalone="no"?>
<!DOCTYPE svg PUBLIC "-//W3C//DTD SVG 1.1//EN"
 "http://www.w3.org/Graphics/SVG/1.1/DTD/svg11.dtd">
<!-- Generated by graphviz version 8.0.3 (20230416.2022)
 -->
<!-- Title: G Pages: 1 -->
<svg width="629pt" height="318pt"
 viewBox="0.00 0.00 708.00 357.36" xmlns="http://www.w3.org/2000/svg" xmlns:xlink="http://www.w3.org/1999/xlink">
<g id="graph0" class="graph" transform="scale(0.888889 0.888889) rotate(0) translate(4 353.36)">
<title>G</title>
<polygon fill="white" stroke="none" points="-4,4 -4,-353.36 704,-353.36 704,4 -4,4"/>
<text text-anchor="middle" x="350" y="-316.56" font-family="Arial" font-size="36.00" fill="blue">Reaction Path Analysis</text>
<!-- R240 -->
<g id="node1" class="node">
<title>R240</title>
<g id="a_node1"><a xlink:href="240.svg" xlink:title="R240">
<polygon fill="azure" stroke="none" points="94,-163.86 0,-163.86 0,-116.86 94,-116.86 94,-163.86"/>
<text text-anchor="middle" x="47" y="-131.86" font-family="Times New Roman,serif" font-size="35.00">R240</text>
</a>
</g>
</g>
<!-- R27 -->
<g id="node2" class="node">
<title>R27</title>
<g id="a_node2"><a xlink:href="27.svg" xlink:title="R27">
<polygon fill="azure" stroke="none" points="691,-261.86 615,-261.86 615,-214.86 691,-214.86 691,-261.86"/>
<text text-anchor="middle" x="653" y="-229.86" font-family="Times New Roman,serif" font-size="35.00">R27</text>
</a>
</g>
</g>
<!-- R240&#45;&gt;R27 -->
<g id="edge1" class="edge">
<title>R240&#45;&gt;R27</title>
<path fill="none" stroke="black" d="M59.41,-163.64C68.72,-179.84 83.51,-200.27 103,-210.36 270.04,-296.88 505.32,-266.77 604.73,-248.33"/>
<polygon fill="black" stroke="black" points="605.16,-251.63 614.33,-246.32 603.85,-244.75 605.16,-251.63"/>
<text text-anchor="middle" x="350" y="-277.36" font-family="Times New Roman,serif" font-size="30.00"> &#160;&#160;322 &#160;&#160;0% &#160;&#160;4.35e&#45;07 mol/s &#160;&#160;&#160;3.32E&#45;01</text>
</g>
<!-- R6 -->
<g id="node3" class="node">
<title>R6</title>
<g id="a_node3"><a xlink:href="6.svg" xlink:title="R6">
<polygon fill="azure" stroke="none" points="682,-196.86 624,-196.86 624,-149.86 682,-149.86 682,-196.86"/>
<text text-anchor="middle" x="653" y="-164.86" font-family="Times New Roman,serif" font-size="35.00">R6</text>
</a>
</g>
</g>
<!-- R240&#45;&gt;R6 -->
<g id="edge2" class="edge">
<title>R240&#45;&gt;R6</title>
<path fill="none" stroke="black" d="M93.83,-150.09C96.92,-150.57 100,-151.01 103,-151.36 293.52,-174.09 523.58,-174.68 613.43,-173.9"/>
<polygon fill="black" stroke="black" points="613.21,-177.39 623.17,-173.79 613.14,-170.39 613.21,-177.39"/>
<text text-anchor="middle" x="350" y="-182.36" font-family="Times New Roman,serif" font-size="30.00"> &#160;&#160;322 &#160;&#160;0% &#160;&#160;4.35e&#45;07 mol/s &#160;&#160;&#160;3.32E&#45;01</text>
</g>
<!-- R2 -->
<g id="node4" class="node">
<title>R2</title>
<g id="a_node4"><a xlink:href="2.svg" xlink:title="R2">
<polygon fill="azure" stroke="none" points="682,-131.86 624,-131.86 624,-84.86 682,-84.86 682,-131.86"/>
<text text-anchor="middle" x="653" y="-99.86" font-family="Times New Roman,serif" font-size="35.00">R2</text>
</a>
</g>
</g>
<!-- R240&#45;&gt;R2 -->
<g id="edge3" class="edge">
<title>R240&#45;&gt;R2</title>
<path fill="none" stroke="black" stroke-width="5" d="M93.84,-120.63C96.91,-119.74 99.98,-118.97 103,-118.36 284.66,-81.66 507.03,-94.94 603.51,-103.45"/>
<polygon fill="black" stroke="black" stroke-width="5" points="597.47,-112.23 618.2,-105.38 599.1,-94.81 597.47,-112.23"/>
<text text-anchor="middle" x="350" y="-127.36" font-family="Times New Roman,serif" font-size="30.00"> &#160;&#160;621 &#160;&#160;99% &#160;&#160;0.000947 mol/s &#160;&#160;&#160;4.51E&#45;04</text>
</g>
<!-- R120 -->
<g id="node5" class="node">
<title>R120</title>
<g id="a_node5"><a xlink:href="120.svg" xlink:title="R120">
<polygon fill="azure" stroke="none" points="700,-66.86 606,-66.86 606,-19.86 700,-19.86 700,-66.86"/>
<text text-anchor="middle" x="653" y="-34.86" font-family="Times New Roman,serif" font-size="35.00">R120</text>
</a>
</g>
</g>
<!-- R240&#45;&gt;R120 -->
<g id="edge4" class="edge">
<title>R240&#45;&gt;R120</title>
<path fill="none" stroke="black" stroke-width="5" d="M56.06,-117.2C64.4,-97.15 79.54,-69.41 103,-56.36 257.87,29.73 477.24,-2.33 585.82,-26.37"/>
<polygon fill="black" stroke="black" stroke-width="5" points="578.55,-34.05 600.01,-30.03 582.49,-17 578.55,-34.05"/>
<text text-anchor="middle" x="350" y="-65.36" font-family="Times New Roman,serif" font-size="30.00"> &#160;&#160;621 &#160;&#160;99% &#160;&#160;0.000947 mol/s &#160;&#160;&#160;4.51E&#45;04</text>
</g>
</g>
</svg>
