<?xml version="1.0" encoding="UTF-8" standalone="no"?>
<!DOCTYPE svg PUBLIC "-//W3C//DTD SVG 1.1//EN"
 "http://www.w3.org/Graphics/SVG/1.1/DTD/svg11.dtd">
<!-- Generated by graphviz version 8.0.3 (20230416.2022)
 -->
<!-- Title: G Pages: 1 -->
<svg width="640pt" height="229pt"
 viewBox="0.00 0.00 720.00 257.36" xmlns="http://www.w3.org/2000/svg" xmlns:xlink="http://www.w3.org/1999/xlink">
<g id="graph0" class="graph" transform="scale(0.498442 0.498442) rotate(0) translate(4 454.96)">
<title>G</title>
<polygon fill="white" stroke="none" points="-4,4 -4,-454.96 1280,-454.96 1280,4 -4,4"/>
<text text-anchor="middle" x="638" y="-418.16" font-family="Arial" font-size="36.00" fill="blue">Reaction Path Analysis</text>
<!-- R241 -->
<g id="node1" class="node">
<title>R241</title>
<g id="a_node1"><a xlink:href="241.svg" xlink:title="R241">
<polygon fill="azure" stroke="none" points="685,-221.46 591,-221.46 591,-174.46 685,-174.46 685,-221.46"/>
<text text-anchor="middle" x="638" y="-189.46" font-family="Times New Roman,serif" font-size="35.00">R241</text>
</a>
</g>
</g>
<!-- R15 -->
<g id="node2" class="node">
<title>R15</title>
<g id="a_node2"><a xlink:href="15.svg" xlink:title="R15">
<polygon fill="azure" stroke="none" points="1267,-379.46 1191,-379.46 1191,-332.46 1267,-332.46 1267,-379.46"/>
<text text-anchor="middle" x="1229" y="-347.46" font-family="Times New Roman,serif" font-size="35.00">R15</text>
</a>
</g>
</g>
<!-- R241&#45;&gt;R15 -->
<g id="edge1" class="edge">
<title>R241&#45;&gt;R15</title>
<path fill="none" stroke="black" stroke-width="5" d="M641.12,-221.31C645.31,-252.4 657.7,-306.42 694,-331.96 769.29,-384.93 1048.62,-370.21 1170.5,-360.9"/>
<polygon fill="black" stroke="black" stroke-width="5" points="1166.1,-369.56 1185.34,-359.25 1164.71,-352.11 1166.1,-369.56"/>
<text text-anchor="middle" x="933.5" y="-378.96" font-family="Times New Roman,serif" font-size="30.00"> &#160;&#160;324 &#160;&#160;98% &#160;&#160;0.0393 mol/s &#160;&#160;&#160;1.09E&#45;05</text>
</g>
<!-- R13 -->
<g id="node3" class="node">
<title>R13</title>
<g id="a_node3"><a xlink:href="13.svg" xlink:title="R13">
<polygon fill="azure" stroke="none" points="1267,-314.46 1191,-314.46 1191,-267.46 1267,-267.46 1267,-314.46"/>
<text text-anchor="middle" x="1229" y="-282.46" font-family="Times New Roman,serif" font-size="35.00">R13</text>
</a>
</g>
</g>
<!-- R241&#45;&gt;R13 -->
<g id="edge2" class="edge">
<title>R241&#45;&gt;R13</title>
<path fill="none" stroke="black" stroke-width="5" d="M652.66,-221.42C662.27,-235.55 676.52,-252.41 694,-260.96 776.47,-301.27 1050.1,-297.21 1170.41,-293.27"/>
<polygon fill="black" stroke="black" stroke-width="5" points="1165.65,-301.98 1185.33,-292.53 1165.04,-284.49 1165.65,-301.98"/>
<text text-anchor="middle" x="933.5" y="-303.96" font-family="Times New Roman,serif" font-size="30.00"> &#160;&#160;324 &#160;&#160;98% &#160;&#160;0.0393 mol/s &#160;&#160;&#160;1.09E&#45;05</text>
</g>
<!-- R274 -->
<g id="node5" class="node">
<title>R274</title>
<g id="a_node5"><a xlink:href="274.svg" xlink:title="R274">
<polygon fill="azure" stroke="none" points="1276,-249.46 1182,-249.46 1182,-202.46 1276,-202.46 1276,-249.46"/>
<text text-anchor="middle" x="1229" y="-217.46" font-family="Times New Roman,serif" font-size="35.00">R274</text>
</a>
</g>
</g>
<!-- R241&#45;&gt;R274 -->
<g id="edge4" class="edge">
<title>R241&#45;&gt;R274</title>
<path fill="none" stroke="black" d="M684.89,-203.2C687.97,-203.48 691.03,-203.73 694,-203.96 867.73,-217 1073.88,-222.74 1171.44,-224.88"/>
<polygon fill="black" stroke="black" points="1171.15,-228.4 1181.22,-225.11 1171.3,-221.4 1171.15,-228.4"/>
<text text-anchor="middle" x="933.5" y="-232.96" font-family="Times New Roman,serif" font-size="30.00"> &#160;&#160;517 &#160;&#160;0% &#160;&#160;4.26e&#45;07 mol/s &#160;&#160;&#160;9.97E&#45;01</text>
</g>
<!-- R275 -->
<g id="node6" class="node">
<title>R275</title>
<g id="a_node6"><a xlink:href="275.svg" xlink:title="R275">
<polygon fill="azure" stroke="none" points="1276,-184.46 1182,-184.46 1182,-137.46 1276,-137.46 1276,-184.46"/>
<text text-anchor="middle" x="1229" y="-152.46" font-family="Times New Roman,serif" font-size="35.00">R275</text>
</a>
</g>
</g>
<!-- R241&#45;&gt;R275 -->
<g id="edge5" class="edge">
<title>R241&#45;&gt;R275</title>
<path fill="none" stroke="black" d="M674.58,-174.57C680.83,-171.45 687.44,-168.72 694,-166.96 782.57,-143.18 1053.13,-152.57 1171.52,-158.06"/>
<polygon fill="black" stroke="black" points="1171,-161.59 1181.16,-158.57 1171.33,-154.6 1171,-161.59"/>
<text text-anchor="middle" x="933.5" y="-175.96" font-family="Times New Roman,serif" font-size="30.00"> &#160;&#160;518 &#160;&#160;0% &#160;&#160;3.26e&#45;07 mol/s &#160;&#160;&#160;8.07E&#45;01</text>
</g>
<!-- R122 -->
<g id="node10" class="node">
<title>R122</title>
<g id="a_node10"><a xlink:href="122.svg" xlink:title="R122">
<polygon fill="azure" stroke="none" points="1276,-100.46 1182,-100.46 1182,-53.46 1276,-53.46 1276,-100.46"/>
<text text-anchor="middle" x="1229" y="-68.46" font-family="Times New Roman,serif" font-size="35.00">R122</text>
</a>
</g>
</g>
<!-- R241&#45;&gt;R122 -->
<g id="edge10" class="edge">
<title>R241&#45;&gt;R122</title>
<path fill="none" stroke="black" d="M647.3,-174.52C655.71,-154.6 670.84,-127.17 694,-113.96 738.11,-88.79 1085.47,-99.14 1171.52,-91.51"/>
<polygon fill="black" stroke="black" points="1171.73,-94.89 1181.25,-90.25 1170.91,-87.94 1171.73,-94.89"/>
<text text-anchor="middle" x="933.5" y="-122.96" font-family="Times New Roman,serif" font-size="30.00"> &#160;&#160;709 &#160;&#160;0% &#160;&#160;0.000237 mol/s &#160;&#160;&#160;6.11E&#45;01</text>
</g>
<!-- R241&#45;&gt;R122 -->
<g id="edge11" class="edge">
<title>R241&#45;&gt;R122</title>
<path fill="none" stroke="black" d="M640.26,-174.52C643.44,-141.42 654.64,-81.99 694,-54.96 840.78,45.85 1067.59,-16.84 1171.95,-54.56"/>
<polygon fill="black" stroke="black" points="1170.67,-58.18 1181.26,-58.35 1173.08,-51.61 1170.67,-58.18"/>
<text text-anchor="middle" x="933.5" y="-63.96" font-family="Times New Roman,serif" font-size="30.00"> &#160;&#160;931 &#160;&#160;0% &#160;&#160;0.000372 mol/s &#160;&#160;&#160;3.89E&#45;01</text>
</g>
<!-- R20 -->
<g id="node4" class="node">
<title>R20</title>
<g id="a_node4"><a xlink:href="20.svg" xlink:title="R20">
<polygon fill="azure" stroke="none" points="85,-310.46 9,-310.46 9,-263.46 85,-263.46 85,-310.46"/>
<text text-anchor="middle" x="47" y="-278.46" font-family="Times New Roman,serif" font-size="35.00">R20</text>
</a>
</g>
</g>
<!-- R20&#45;&gt;R241 -->
<g id="edge3" class="edge">
<title>R20&#45;&gt;R241</title>
<path fill="none" stroke="black" d="M84.73,-298.52C175.89,-324.91 417.05,-380.47 582,-287.96 603.49,-275.91 617.58,-251.66 626.12,-231.37"/>
<polygon fill="black" stroke="black" points="629.71,-232.79 630.09,-222.21 623.19,-230.25 629.71,-232.79"/>
<text text-anchor="middle" x="342.5" y="-347.96" font-family="Times New Roman,serif" font-size="30.00"> &#160;&#160;424 &#160;&#160;0% &#160;&#160;0.000499 mol/s &#160;&#160;&#160;8.08E&#45;01</text>
</g>
<!-- R20&#45;&gt;R241 -->
<g id="edge9" class="edge">
<title>R20&#45;&gt;R241</title>
<path fill="none" stroke="black" d="M77.33,-263.62C85.24,-258.53 94.09,-253.81 103,-250.96 204.46,-218.5 480.13,-263.1 582,-231.96 586.59,-230.55 591.19,-228.67 595.65,-226.5"/>
<polygon fill="black" stroke="black" points="597.02,-229.21 604.18,-221.4 593.71,-223.04 597.02,-229.21"/>
<text text-anchor="middle" x="342.5" y="-259.96" font-family="Times New Roman,serif" font-size="30.00"> &#160;&#160;708 &#160;&#160;0% &#160;&#160;0.0021 mol/s &#160;&#160;&#160;1.92E&#45;01</text>
</g>
<!-- R300 -->
<g id="node7" class="node">
<title>R300</title>
<g id="a_node7"><a xlink:href="300.svg" xlink:title="R300">
<polygon fill="azure" stroke="none" points="94,-226.46 0,-226.46 0,-179.46 94,-179.46 94,-226.46"/>
<text text-anchor="middle" x="47" y="-194.46" font-family="Times New Roman,serif" font-size="35.00">R300</text>
</a>
</g>
</g>
<!-- R300&#45;&gt;R241 -->
<g id="edge6" class="edge">
<title>R300&#45;&gt;R241</title>
<path fill="none" stroke="black" d="M93.9,-199.38C96.98,-199.21 100.03,-199.07 103,-198.96 276.95,-192.48 483,-194.97 580.48,-196.75"/>
<polygon fill="black" stroke="black" points="580.2,-200.27 590.26,-196.95 580.33,-193.27 580.2,-200.27"/>
<text text-anchor="middle" x="342.5" y="-207.96" font-family="Times New Roman,serif" font-size="30.00"> &#160;&#160;596 &#160;&#160;0% &#160;&#160;1.75e&#45;05 mol/s &#160;&#160;&#160;2.33E&#45;02</text>
</g>
<!-- R301 -->
<g id="node8" class="node">
<title>R301</title>
<g id="a_node8"><a xlink:href="301.svg" xlink:title="R301">
<polygon fill="azure" stroke="none" points="94,-161.46 0,-161.46 0,-114.46 94,-114.46 94,-161.46"/>
<text text-anchor="middle" x="47" y="-129.46" font-family="Times New Roman,serif" font-size="35.00">R301</text>
</a>
</g>
</g>
<!-- R301&#45;&gt;R241 -->
<g id="edge7" class="edge">
<title>R301&#45;&gt;R241</title>
<path fill="none" stroke="black" stroke-width="5" d="M93.98,-130.66C188.57,-117.55 410.47,-96.65 582,-156.96 586.43,-158.51 590.8,-160.56 595.02,-162.92"/>
<polygon fill="black" stroke="black" stroke-width="5" points="585.84,-167.66 607.32,-171.59 595.63,-153.15 585.84,-167.66"/>
<text text-anchor="middle" x="342.5" y="-165.96" font-family="Times New Roman,serif" font-size="30.00"> &#160;&#160;597 &#160;&#160;99% &#160;&#160;4.34 mol/s &#160;&#160;&#160;9.85E&#45;08</text>
</g>
<!-- R357 -->
<g id="node9" class="node">
<title>R357</title>
<g id="a_node9"><a xlink:href="357.svg" xlink:title="R357">
<polygon fill="azure" stroke="none" points="94,-96.46 0,-96.46 0,-49.46 94,-49.46 94,-96.46"/>
<text text-anchor="middle" x="47" y="-64.46" font-family="Times New Roman,serif" font-size="35.00">R357</text>
</a>
</g>
</g>
<!-- R357&#45;&gt;R241 -->
<g id="edge8" class="edge">
<title>R357&#45;&gt;R241</title>
<path fill="none" stroke="black" d="M93.71,-58.49C192.14,-30.29 427.71,20.93 582,-78.96 611.01,-97.74 624.96,-136.11 631.5,-164.22"/>
<polygon fill="black" stroke="black" points="628.25,-164.74 633.74,-173.8 635.09,-163.29 628.25,-164.74"/>
<text text-anchor="middle" x="342.5" y="-87.96" font-family="Times New Roman,serif" font-size="30.00"> &#160;&#160;598 &#160;&#160;0% &#160;&#160;0.00923 mol/s &#160;&#160;&#160;4.63E&#45;05</text>
</g>
</g>
</svg>
