<?xml version="1.0" encoding="UTF-8" standalone="no"?>
<!DOCTYPE svg PUBLIC "-//W3C//DTD SVG 1.1//EN"
 "http://www.w3.org/Graphics/SVG/1.1/DTD/svg11.dtd">
<!-- Generated by graphviz version 8.0.3 (20230416.2022)
 -->
<!-- Title: G Pages: 1 -->
<svg width="640pt" height="170pt"
 viewBox="0.00 0.00 720.00 191.21" xmlns="http://www.w3.org/2000/svg" xmlns:xlink="http://www.w3.org/1999/xlink">
<g id="graph0" class="graph" transform="scale(0.484481 0.484481) rotate(0) translate(4 346.82)">
<title>G</title>
<polygon fill="white" stroke="none" points="-4,4 -4,-346.82 1317,-346.82 1317,4 -4,4"/>
<text text-anchor="middle" x="656.5" y="-310.02" font-family="Arial" font-size="36.00" fill="blue">Reaction Path Analysis</text>
<!-- R244 -->
<g id="node1" class="node">
<title>R244</title>
<g id="a_node1"><a xlink:href="244.svg" xlink:title="R244">
<polygon fill="azure" stroke="none" points="708,-174.32 614,-174.32 614,-127.32 708,-127.32 708,-174.32"/>
<text text-anchor="middle" x="661" y="-142.32" font-family="Times New Roman,serif" font-size="35.00">R244</text>
</a>
</g>
</g>
<!-- R18 -->
<g id="node2" class="node">
<title>R18</title>
<g id="a_node2"><a xlink:href="18.svg" xlink:title="R18">
<polygon fill="azure" stroke="none" points="1313,-207.32 1237,-207.32 1237,-160.32 1313,-160.32 1313,-207.32"/>
<text text-anchor="middle" x="1275" y="-175.32" font-family="Times New Roman,serif" font-size="35.00">R18</text>
</a>
</g>
</g>
<!-- R244&#45;&gt;R18 -->
<g id="edge1" class="edge">
<title>R244&#45;&gt;R18</title>
<path fill="none" stroke="black" stroke-width="6" d="M707.96,-160.05C712.36,-160.73 716.75,-161.34 721,-161.82 900.98,-182.07 1115.72,-184.42 1216.46,-184.26"/>
<polygon fill="black" stroke="black" stroke-width="6" points="1211.34,-194.76 1231.3,-184.18 1211.26,-173.76 1211.34,-194.76"/>
<text text-anchor="middle" x="968" y="-192.82" font-family="Times New Roman,serif" font-size="30.00"> &#160;&#160;329 &#160;&#160;100% &#160;&#160;0.00189 mol/s &#160;&#160;&#160;2.27E&#45;04</text>
</g>
<!-- R13 -->
<g id="node3" class="node">
<title>R13</title>
<g id="a_node3"><a xlink:href="13.svg" xlink:title="R13">
<polygon fill="azure" stroke="none" points="1313,-142.32 1237,-142.32 1237,-95.32 1313,-95.32 1313,-142.32"/>
<text text-anchor="middle" x="1275" y="-110.32" font-family="Times New Roman,serif" font-size="35.00">R13</text>
</a>
</g>
</g>
<!-- R244&#45;&gt;R13 -->
<g id="edge2" class="edge">
<title>R244&#45;&gt;R13</title>
<path fill="none" stroke="black" stroke-width="6" d="M707.95,-132C712.31,-130.73 716.7,-129.63 721,-128.82 899.01,-95.04 1115.04,-105.62 1216.34,-113.52"/>
<polygon fill="black" stroke="black" stroke-width="6" points="1210.21,-124.05 1231,-115.22 1211.93,-103.12 1210.21,-124.05"/>
<text text-anchor="middle" x="968" y="-137.82" font-family="Times New Roman,serif" font-size="30.00"> &#160;&#160;329 &#160;&#160;100% &#160;&#160;0.00189 mol/s &#160;&#160;&#160;2.27E&#45;04</text>
</g>
<!-- R342 -->
<g id="node4" class="node">
<title>R342</title>
<g id="a_node4"><a xlink:href="342.svg" xlink:title="R342">
<polygon fill="azure" stroke="none" points="94,-218.32 0,-218.32 0,-171.32 94,-171.32 94,-218.32"/>
<text text-anchor="middle" x="47" y="-186.32" font-family="Times New Roman,serif" font-size="35.00">R342</text>
</a>
</g>
</g>
<!-- R342&#45;&gt;R244 -->
<g id="edge3" class="edge">
<title>R342&#45;&gt;R244</title>
<path fill="none" stroke="black" stroke-width="5" d="M93.95,-211.02C96.99,-211.73 100.02,-212.34 103,-212.82 323.33,-247.95 401.51,-304.32 605,-212.82 615.99,-207.87 625.68,-199.53 633.74,-190.54"/>
<polygon fill="black" stroke="black" stroke-width="5" points="638.03,-199.41 643.41,-178.25 624.22,-188.66 638.03,-199.41"/>
<text text-anchor="middle" x="354" y="-270.82" font-family="Times New Roman,serif" font-size="30.00"> &#160;&#160;714 &#160;&#160;99% &#160;&#160;5.84 mol/s &#160;&#160;&#160;1.12E&#45;04</text>
</g>
<!-- R342&#45;&gt;R244 -->
<g id="edge6" class="edge">
<title>R342&#45;&gt;R244</title>
<path fill="none" stroke="black" d="M93.95,-177.84C96.99,-177.06 100.02,-176.37 103,-175.82 209.62,-155.84 477.89,-164.46 603.49,-156.78"/>
<polygon fill="black" stroke="black" points="603.36,-160.23 613.11,-156.07 602.89,-153.25 603.36,-160.23"/>
<text text-anchor="middle" x="354" y="-184.82" font-family="Times New Roman,serif" font-size="30.00"> &#160;&#160;1009 &#160;&#160;0% &#160;&#160;0.000654 mol/s &#160;&#160;&#160;1.00E+00</text>
</g>
<!-- R290 -->
<g id="node5" class="node">
<title>R290</title>
<g id="a_node5"><a xlink:href="290.svg" xlink:title="R290">
<polygon fill="azure" stroke="none" points="94,-130.32 0,-130.32 0,-83.32 94,-83.32 94,-130.32"/>
<text text-anchor="middle" x="47" y="-98.32" font-family="Times New Roman,serif" font-size="35.00">R290</text>
</a>
</g>
</g>
<!-- R290&#45;&gt;R244 -->
<g id="edge4" class="edge">
<title>R290&#45;&gt;R244</title>
<path fill="none" stroke="black" d="M93.63,-105.73C208.75,-103.4 508.64,-99.89 605,-123.82 605.36,-123.91 605.72,-124 606.08,-124.09"/>
<polygon fill="black" stroke="black" points="604.91,-127.71 615.5,-127.43 607.04,-121.05 604.91,-127.71"/>
<text text-anchor="middle" x="354" y="-132.82" font-family="Times New Roman,serif" font-size="30.00"> &#160;&#160;715 &#160;&#160;0% &#160;&#160;0.0161 mol/s &#160;&#160;&#160;3.75E&#45;02</text>
</g>
<!-- R290&#45;&gt;R244 -->
<g id="edge5" class="edge">
<title>R290&#45;&gt;R244</title>
<path fill="none" stroke="black" d="M73.24,-83.37C82.01,-76.69 92.33,-70.29 103,-66.82 315.17,2.18 408.73,39.27 605,-66.82 624.93,-77.59 638.79,-99.06 647.62,-117.61"/>
<polygon fill="black" stroke="black" points="644.76,-118.79 652.01,-126.52 651.16,-115.96 644.76,-118.79"/>
<text text-anchor="middle" x="354" y="-75.82" font-family="Times New Roman,serif" font-size="30.00"> &#160;&#160;771 &#160;&#160;0% &#160;&#160;0.000628 mol/s &#160;&#160;&#160;9.62E&#45;01</text>
</g>
</g>
</svg>
