<?xml version="1.0" encoding="UTF-8" standalone="no"?>
<!DOCTYPE svg PUBLIC "-//W3C//DTD SVG 1.1//EN"
 "http://www.w3.org/Graphics/SVG/1.1/DTD/svg11.dtd">
<!-- Generated by graphviz version 8.0.3 (20230416.2022)
 -->
<!-- Title: G Pages: 1 -->
<svg width="623pt" height="381pt"
 viewBox="0.00 0.00 701.00 428.70" xmlns="http://www.w3.org/2000/svg" xmlns:xlink="http://www.w3.org/1999/xlink">
<g id="graph0" class="graph" transform="scale(0.888889 0.888889) rotate(0) translate(4 424.7)">
<title>G</title>
<polygon fill="white" stroke="none" points="-4,4 -4,-424.7 697,-424.7 697,4 -4,4"/>
<text text-anchor="middle" x="346.5" y="-387.9" font-family="Arial" font-size="36.00" fill="blue">Reaction Path Analysis</text>
<!-- R245 -->
<g id="node1" class="node">
<title>R245</title>
<g id="a_node1"><a xlink:href="245.svg" xlink:title="R245">
<polygon fill="azure" stroke="none" points="693,-201.2 599,-201.2 599,-154.2 693,-154.2 693,-201.2"/>
<text text-anchor="middle" x="646" y="-169.2" font-family="Times New Roman,serif" font-size="35.00">R245</text>
</a>
</g>
</g>
<!-- R19 -->
<g id="node2" class="node">
<title>R19</title>
<g id="a_node2"><a xlink:href="19.svg" xlink:title="R19">
<polygon fill="azure" stroke="none" points="85,-350.2 9,-350.2 9,-303.2 85,-303.2 85,-350.2"/>
<text text-anchor="middle" x="47" y="-318.2" font-family="Times New Roman,serif" font-size="35.00">R19</text>
</a>
</g>
</g>
<!-- R19&#45;&gt;R245 -->
<g id="edge1" class="edge">
<title>R19&#45;&gt;R245</title>
<path fill="none" stroke="black" d="M84.75,-329.85C192.96,-338.4 507.96,-357.78 590,-301.7 619.82,-281.31 633.65,-240.83 639.95,-211.66"/>
<polygon fill="black" stroke="black" points="643.53,-212.58 642.01,-202.1 636.66,-211.24 643.53,-212.58"/>
<text text-anchor="middle" x="346.5" y="-348.7" font-family="Times New Roman,serif" font-size="30.00"> &#160;&#160;331 &#160;&#160;0% &#160;&#160;1.04e&#45;07 mol/s &#160;&#160;&#160;5.69E&#45;01</text>
</g>
<!-- R13 -->
<g id="node3" class="node">
<title>R13</title>
<g id="a_node3"><a xlink:href="13.svg" xlink:title="R13">
<polygon fill="azure" stroke="none" points="85,-285.2 9,-285.2 9,-238.2 85,-238.2 85,-285.2"/>
<text text-anchor="middle" x="47" y="-253.2" font-family="Times New Roman,serif" font-size="35.00">R13</text>
</a>
</g>
</g>
<!-- R13&#45;&gt;R245 -->
<g id="edge2" class="edge">
<title>R13&#45;&gt;R245</title>
<path fill="none" stroke="black" d="M84.68,-262.99C191.29,-266.22 499.26,-271.76 590,-231.7 601.43,-226.65 611.85,-218.09 620.46,-209.27"/>
<polygon fill="black" stroke="black" points="622.69,-211.92 626.84,-202.17 617.52,-207.2 622.69,-211.92"/>
<text text-anchor="middle" x="346.5" y="-273.7" font-family="Times New Roman,serif" font-size="30.00"> &#160;&#160;331 &#160;&#160;0% &#160;&#160;1.04e&#45;07 mol/s &#160;&#160;&#160;5.69E&#45;01</text>
</g>
<!-- R78 -->
<g id="node4" class="node">
<title>R78</title>
<g id="a_node4"><a xlink:href="78.svg" xlink:title="R78">
<polygon fill="azure" stroke="none" points="85,-197.2 9,-197.2 9,-150.2 85,-150.2 85,-197.2"/>
<text text-anchor="middle" x="47" y="-165.2" font-family="Times New Roman,serif" font-size="35.00">R78</text>
</a>
</g>
</g>
<!-- R78&#45;&gt;R245 -->
<g id="edge3" class="edge">
<title>R78&#45;&gt;R245</title>
<path fill="none" stroke="black" d="M84.86,-181.34C90.89,-182.32 97.1,-183.16 103,-183.7 315.1,-202.82 372.05,-195.69 588.36,-183.67"/>
<polygon fill="black" stroke="black" points="588.32,-187.12 598.11,-183.08 587.94,-180.14 588.32,-187.12"/>
<text text-anchor="middle" x="346.5" y="-203.7" font-family="Times New Roman,serif" font-size="30.00"> &#160;&#160;462 &#160;&#160;0% &#160;&#160;0.000654 mol/s &#160;&#160;&#160;1.00E+00</text>
</g>
<!-- R78&#45;&gt;R245 -->
<g id="edge6" class="edge">
<title>R78&#45;&gt;R245</title>
<path fill="none" stroke="black" stroke-width="4" d="M84.72,-152.86C90.67,-150.31 96.89,-148.12 103,-146.7 151.85,-135.35 483.48,-133.24 588.93,-149.93"/>
<polygon fill="black" stroke="black" stroke-width="4" points="583.43,-155.98 604.44,-153.24 586.31,-142.28 583.43,-155.98"/>
<text text-anchor="middle" x="346.5" y="-155.7" font-family="Times New Roman,serif" font-size="30.00"> &#160;&#160;717 &#160;&#160;63% &#160;&#160;2.69 mol/s &#160;&#160;&#160;2.43E&#45;04</text>
</g>
<!-- R115 -->
<g id="node5" class="node">
<title>R115</title>
<g id="a_node5"><a xlink:href="115.svg" xlink:title="R115">
<polygon fill="azure" stroke="none" points="94,-89.2 0,-89.2 0,-42.2 94,-42.2 94,-89.2"/>
<text text-anchor="middle" x="47" y="-57.2" font-family="Times New Roman,serif" font-size="35.00">R115</text>
</a>
</g>
</g>
<!-- R115&#45;&gt;R245 -->
<g id="edge4" class="edge">
<title>R115&#45;&gt;R245</title>
<path fill="none" stroke="black" d="M93.9,-70.88C96.98,-71.17 100.03,-71.45 103,-71.7 157.01,-76.19 542.62,-73.38 590,-99.7 608.04,-109.72 621.55,-128.45 630.66,-145.05"/>
<polygon fill="black" stroke="black" points="627.83,-146.2 635.52,-153.49 634.05,-143 627.83,-146.2"/>
<text text-anchor="middle" x="346.5" y="-108.7" font-family="Times New Roman,serif" font-size="30.00"> &#160;&#160;646 &#160;&#160;0% &#160;&#160;0.000654 mol/s &#160;&#160;&#160;1.00E+00</text>
</g>
<!-- R115&#45;&gt;R245 -->
<g id="edge5" class="edge">
<title>R115&#45;&gt;R245</title>
<path fill="none" stroke="black" stroke-width="2" d="M83.56,-42.24C89.81,-39.13 96.43,-36.42 103,-34.7 207.68,-7.23 500.79,26.57 590,-34.7 625.36,-58.98 638,-109.42 642.51,-143.42"/>
<polygon fill="black" stroke="black" stroke-width="2" points="639.13,-141.72 643.74,-151.26 646.09,-140.93 639.13,-141.72"/>
<text text-anchor="middle" x="346.5" y="-43.7" font-family="Times New Roman,serif" font-size="30.00"> &#160;&#160;716 &#160;&#160;36% &#160;&#160;1.53 mol/s &#160;&#160;&#160;4.26E&#45;04</text>
</g>
</g>
</svg>
