<?xml version="1.0" encoding="UTF-8" standalone="no"?>
<!DOCTYPE svg PUBLIC "-//W3C//DTD SVG 1.1//EN"
 "http://www.w3.org/Graphics/SVG/1.1/DTD/svg11.dtd">
<!-- Generated by graphviz version 8.0.3 (20230416.2022)
 -->
<!-- Title: G Pages: 1 -->
<svg width="640pt" height="224pt"
 viewBox="0.00 0.00 720.00 252.10" xmlns="http://www.w3.org/2000/svg" xmlns:xlink="http://www.w3.org/1999/xlink">
<g id="graph0" class="graph" transform="scale(0.479401 0.479401) rotate(0) translate(4 463.43)">
<title>G</title>
<polygon fill="white" stroke="none" points="-4,4 -4,-463.43 1331,-463.43 1331,4 -4,4"/>
<text text-anchor="middle" x="663.5" y="-426.63" font-family="Arial" font-size="36.00" fill="blue">Reaction Path Analysis</text>
<!-- R255 -->
<g id="node1" class="node">
<title>R255</title>
<g id="a_node1"><a xlink:href="255.svg" xlink:title="R255">
<polygon fill="azure" stroke="none" points="715,-228.93 621,-228.93 621,-181.93 715,-181.93 715,-228.93"/>
<text text-anchor="middle" x="668" y="-196.93" font-family="Times New Roman,serif" font-size="35.00">R255</text>
</a>
</g>
</g>
<!-- R41 -->
<g id="node2" class="node">
<title>R41</title>
<g id="a_node2"><a xlink:href="41.svg" xlink:title="R41">
<polygon fill="azure" stroke="none" points="1327,-261.93 1251,-261.93 1251,-214.93 1327,-214.93 1327,-261.93"/>
<text text-anchor="middle" x="1289" y="-229.93" font-family="Times New Roman,serif" font-size="35.00">R41</text>
</a>
</g>
</g>
<!-- R255&#45;&gt;R41 -->
<g id="edge1" class="edge">
<title>R255&#45;&gt;R41</title>
<path fill="none" stroke="black" stroke-width="6" d="M714.83,-215.16C717.92,-215.64 721,-216.07 724,-216.43 908.06,-238.28 1128.05,-239.85 1230.37,-239.18"/>
<polygon fill="black" stroke="black" stroke-width="6" points="1225.31,-249.67 1245.22,-239 1225.13,-228.67 1225.31,-249.67"/>
<text text-anchor="middle" x="978.5" y="-247.43" font-family="Times New Roman,serif" font-size="30.00"> &#160;&#160;346 &#160;&#160;100% &#160;&#160;0.000741 mol/s &#160;&#160;&#160;5.77E&#45;04</text>
</g>
<!-- R13 -->
<g id="node3" class="node">
<title>R13</title>
<g id="a_node3"><a xlink:href="13.svg" xlink:title="R13">
<polygon fill="azure" stroke="none" points="1327,-196.93 1251,-196.93 1251,-149.93 1327,-149.93 1327,-196.93"/>
<text text-anchor="middle" x="1289" y="-164.93" font-family="Times New Roman,serif" font-size="35.00">R13</text>
</a>
</g>
</g>
<!-- R255&#45;&gt;R13 -->
<g id="edge2" class="edge">
<title>R255&#45;&gt;R13</title>
<path fill="none" stroke="black" stroke-width="6" d="M714.84,-185.69C717.9,-184.81 720.98,-184.04 724,-183.43 906,-146.7 1127.76,-158.89 1230.57,-167.68"/>
<polygon fill="black" stroke="black" stroke-width="6" points="1224.35,-178.2 1245.22,-169.54 1226.24,-157.29 1224.35,-178.2"/>
<text text-anchor="middle" x="978.5" y="-192.43" font-family="Times New Roman,serif" font-size="30.00"> &#160;&#160;346 &#160;&#160;100% &#160;&#160;0.000741 mol/s &#160;&#160;&#160;5.77E&#45;04</text>
</g>
<!-- R24 -->
<g id="node4" class="node">
<title>R24</title>
<g id="a_node4"><a xlink:href="24.svg" xlink:title="R24">
<polygon fill="azure" stroke="none" points="85,-346.93 9,-346.93 9,-299.93 85,-299.93 85,-346.93"/>
<text text-anchor="middle" x="47" y="-314.93" font-family="Times New Roman,serif" font-size="35.00">R24</text>
</a>
</g>
</g>
<!-- R24&#45;&gt;R255 -->
<g id="edge3" class="edge">
<title>R24&#45;&gt;R255</title>
<path fill="none" stroke="black" d="M84.88,-335.28C178.75,-363.1 431.23,-422.99 601,-323.43 631.88,-305.32 649.39,-266.9 658.5,-238.81"/>
<polygon fill="black" stroke="black" points="662.04,-240.19 661.59,-229.61 655.34,-238.16 662.04,-240.19"/>
<text text-anchor="middle" x="357.5" y="-387.43" font-family="Times New Roman,serif" font-size="30.00"> &#160;&#160;428 &#160;&#160;0% &#160;&#160;0.000654 mol/s &#160;&#160;&#160;1.00E+00</text>
</g>
<!-- R24&#45;&gt;R255 -->
<g id="edge6" class="edge">
<title>R24&#45;&gt;R255</title>
<path fill="none" stroke="black" stroke-width="5" d="M82.62,-300.01C92.37,-294.56 103.25,-289.46 114,-286.43 218.24,-257.02 501.1,-309.26 601,-267.43 613.6,-262.15 625.25,-253.31 635.14,-243.94"/>
<polygon fill="black" stroke="black" stroke-width="5" points="638.17,-253.25 645.56,-232.7 625.46,-241.22 638.17,-253.25"/>
<text text-anchor="middle" x="357.5" y="-295.43" font-family="Times New Roman,serif" font-size="30.00"> &#160;&#160;730 &#160;&#160;99% &#160;&#160;262.0 mol/s &#160;&#160;&#160;2.49E&#45;06</text>
</g>
<!-- R292 -->
<g id="node5" class="node">
<title>R292</title>
<g id="a_node5"><a xlink:href="292.svg" xlink:title="R292">
<polygon fill="azure" stroke="none" points="94,-260.93 0,-260.93 0,-213.93 94,-213.93 94,-260.93"/>
<text text-anchor="middle" x="47" y="-228.93" font-family="Times New Roman,serif" font-size="35.00">R292</text>
</a>
</g>
</g>
<!-- R292&#45;&gt;R255 -->
<g id="edge4" class="edge">
<title>R292&#45;&gt;R255</title>
<path fill="none" stroke="black" d="M93.62,-235.34C221.53,-229.47 575.89,-213.16 601,-211.43 604.07,-211.21 607.21,-210.98 610.39,-210.74"/>
<polygon fill="black" stroke="black" points="610.54,-214.15 620.22,-209.85 609.97,-207.18 610.54,-214.15"/>
<text text-anchor="middle" x="357.5" y="-242.43" font-family="Times New Roman,serif" font-size="30.00"> &#160;&#160;533 &#160;&#160;0% &#160;&#160;4.44e&#45;06 mol/s &#160;&#160;&#160;8.08E&#45;02</text>
</g>
<!-- R293 -->
<g id="node6" class="node">
<title>R293</title>
<g id="a_node6"><a xlink:href="293.svg" xlink:title="R293">
<polygon fill="azure" stroke="none" points="94,-195.93 0,-195.93 0,-148.93 94,-148.93 94,-195.93"/>
<text text-anchor="middle" x="47" y="-163.93" font-family="Times New Roman,serif" font-size="35.00">R293</text>
</a>
</g>
</g>
<!-- R293&#45;&gt;R255 -->
<g id="edge5" class="edge">
<title>R293&#45;&gt;R255</title>
<path fill="none" stroke="black" d="M93.67,-170.06C208.14,-164.53 504.99,-152.82 601,-174.43 605.31,-175.4 609.67,-176.68 613.98,-178.17"/>
<polygon fill="black" stroke="black" points="612.34,-181.67 622.93,-181.97 614.84,-175.13 612.34,-181.67"/>
<text text-anchor="middle" x="357.5" y="-183.43" font-family="Times New Roman,serif" font-size="30.00"> &#160;&#160;534 &#160;&#160;0% &#160;&#160;0.000895 mol/s &#160;&#160;&#160;4.77E&#45;04</text>
</g>
<!-- R98 -->
<g id="node7" class="node">
<title>R98</title>
<g id="a_node7"><a xlink:href="98.svg" xlink:title="R98">
<polygon fill="azure" stroke="none" points="85,-111.93 9,-111.93 9,-64.93 85,-64.93 85,-111.93"/>
<text text-anchor="middle" x="47" y="-79.93" font-family="Times New Roman,serif" font-size="35.00">R98</text>
</a>
</g>
</g>
<!-- R98&#45;&gt;R255 -->
<g id="edge7" class="edge">
<title>R98&#45;&gt;R255</title>
<path fill="none" stroke="black" d="M84.9,-95.34C94.36,-96.9 104.53,-98.4 114,-99.43 167.87,-105.28 552.67,-99.93 601,-124.43 621.8,-134.97 638.36,-155.36 649.69,-173.04"/>
<polygon fill="black" stroke="black" points="646.94,-174.26 655.13,-180.98 652.92,-170.61 646.94,-174.26"/>
<text text-anchor="middle" x="357.5" y="-133.43" font-family="Times New Roman,serif" font-size="30.00"> &#160;&#160;731 &#160;&#160;0% &#160;&#160;1.06 mol/s &#160;&#160;&#160;6.15E&#45;04</text>
</g>
<!-- R98&#45;&gt;R255 -->
<g id="edge8" class="edge">
<title>R98&#45;&gt;R255</title>
<path fill="none" stroke="black" d="M84.97,-71.06C94.25,-67.49 104.32,-64.26 114,-62.43 326.65,-22.05 418.68,54.23 601,-62.43 638.41,-86.36 654.92,-137.49 661.99,-171.67"/>
<polygon fill="black" stroke="black" points="658.66,-171.94 663.96,-181.11 665.54,-170.64 658.66,-171.94"/>
<text text-anchor="middle" x="357.5" y="-71.43" font-family="Times New Roman,serif" font-size="30.00"> &#160;&#160;918 &#160;&#160;0% &#160;&#160;0.000654 mol/s &#160;&#160;&#160;9.99E&#45;01</text>
</g>
</g>
</svg>
