<?xml version="1.0" encoding="UTF-8" standalone="no"?>
<!DOCTYPE svg PUBLIC "-//W3C//DTD SVG 1.1//EN"
 "http://www.w3.org/Graphics/SVG/1.1/DTD/svg11.dtd">
<!-- Generated by graphviz version 8.0.3 (20230416.2022)
 -->
<!-- Title: G Pages: 1 -->
<svg width="616pt" height="491pt"
 viewBox="0.00 0.00 693.00 551.93" xmlns="http://www.w3.org/2000/svg" xmlns:xlink="http://www.w3.org/1999/xlink">
<g id="graph0" class="graph" transform="scale(0.888889 0.888889) rotate(0) translate(4 547.93)">
<title>G</title>
<polygon fill="white" stroke="none" points="-4,4 -4,-547.93 689,-547.93 689,4 -4,4"/>
<text text-anchor="middle" x="342.5" y="-511.13" font-family="Arial" font-size="36.00" fill="blue">Reaction Path Analysis</text>
<!-- R256 -->
<g id="node1" class="node">
<title>R256</title>
<g id="a_node1"><a xlink:href="256.svg" xlink:title="R256">
<polygon fill="azure" stroke="none" points="94,-258.43 0,-258.43 0,-211.43 94,-211.43 94,-258.43"/>
<text text-anchor="middle" x="47" y="-226.43" font-family="Times New Roman,serif" font-size="35.00">R256</text>
</a>
</g>
</g>
<!-- R42 -->
<g id="node2" class="node">
<title>R42</title>
<g id="a_node2"><a xlink:href="42.svg" xlink:title="R42">
<polygon fill="azure" stroke="none" points="676,-472.43 600,-472.43 600,-425.43 676,-425.43 676,-472.43"/>
<text text-anchor="middle" x="638" y="-440.43" font-family="Times New Roman,serif" font-size="35.00">R42</text>
</a>
</g>
</g>
<!-- R256&#45;&gt;R42 -->
<g id="edge1" class="edge">
<title>R256&#45;&gt;R42</title>
<path fill="none" stroke="black" stroke-width="4" d="M47.01,-258.2C46.7,-298.84 52.64,-382.23 103,-421.93 175.39,-479 456.86,-463.77 579.43,-454.08"/>
<polygon fill="black" stroke="black" stroke-width="4" points="574.69,-461 594.05,-452.38 573.54,-447.04 574.69,-461"/>
<text text-anchor="middle" x="342.5" y="-471.93" font-family="Times New Roman,serif" font-size="30.00"> &#160;&#160;347 &#160;&#160;75% &#160;&#160;0.373 mol/s &#160;&#160;&#160;1.15E&#45;06</text>
</g>
<!-- R13 -->
<g id="node3" class="node">
<title>R13</title>
<g id="a_node3"><a xlink:href="13.svg" xlink:title="R13">
<polygon fill="azure" stroke="none" points="676,-407.43 600,-407.43 600,-360.43 676,-360.43 676,-407.43"/>
<text text-anchor="middle" x="638" y="-375.43" font-family="Times New Roman,serif" font-size="35.00">R13</text>
</a>
</g>
</g>
<!-- R256&#45;&gt;R13 -->
<g id="edge2" class="edge">
<title>R256&#45;&gt;R13</title>
<path fill="none" stroke="black" stroke-width="4" d="M50.88,-258.27C55.86,-287.53 69.06,-336.69 103,-359.93 141.54,-386.33 449.8,-386.05 579.66,-384.73"/>
<polygon fill="black" stroke="black" stroke-width="4" points="574.39,-391.72 594.31,-384.49 574.24,-377.72 574.39,-391.72"/>
<text text-anchor="middle" x="342.5" y="-393.93" font-family="Times New Roman,serif" font-size="30.00"> &#160;&#160;347 &#160;&#160;75% &#160;&#160;0.373 mol/s &#160;&#160;&#160;1.15E&#45;06</text>
</g>
<!-- R294 -->
<g id="node4" class="node">
<title>R294</title>
<g id="a_node4"><a xlink:href="294.svg" xlink:title="R294">
<polygon fill="azure" stroke="none" points="685,-342.43 591,-342.43 591,-295.43 685,-295.43 685,-342.43"/>
<text text-anchor="middle" x="638" y="-310.43" font-family="Times New Roman,serif" font-size="35.00">R294</text>
</a>
</g>
</g>
<!-- R256&#45;&gt;R294 -->
<g id="edge3" class="edge">
<title>R256&#45;&gt;R294</title>
<path fill="none" stroke="black" d="M64.27,-258.42C73.99,-270.42 87.47,-283.93 103,-290.93 186.92,-328.75 461.26,-324.78 580.65,-321.07"/>
<polygon fill="black" stroke="black" points="580.49,-324.54 590.37,-320.72 580.26,-317.55 580.49,-324.54"/>
<text text-anchor="middle" x="342.5" y="-331.93" font-family="Times New Roman,serif" font-size="30.00"> &#160;&#160;535 &#160;&#160;0% &#160;&#160;4.25e&#45;07 mol/s &#160;&#160;&#160;9.94E&#45;01</text>
</g>
<!-- R295 -->
<g id="node5" class="node">
<title>R295</title>
<g id="a_node5"><a xlink:href="295.svg" xlink:title="R295">
<polygon fill="azure" stroke="none" points="685,-277.43 591,-277.43 591,-230.43 685,-230.43 685,-277.43"/>
<text text-anchor="middle" x="638" y="-245.43" font-family="Times New Roman,serif" font-size="35.00">R295</text>
</a>
</g>
</g>
<!-- R256&#45;&gt;R295 -->
<g id="edge4" class="edge">
<title>R256&#45;&gt;R295</title>
<path fill="none" stroke="black" d="M93.89,-240.23C96.97,-240.5 100.03,-240.73 103,-240.93 276.74,-252.5 482.89,-254.09 580.44,-254.12"/>
<polygon fill="black" stroke="black" points="580.23,-257.62 590.23,-254.12 580.22,-250.62 580.23,-257.62"/>
<text text-anchor="middle" x="342.5" y="-262.93" font-family="Times New Roman,serif" font-size="30.00"> &#160;&#160;536 &#160;&#160;0% &#160;&#160;4.1e&#45;07 mol/s &#160;&#160;&#160;9.61E&#45;01</text>
</g>
<!-- R333 -->
<g id="node6" class="node">
<title>R333</title>
<g id="a_node6"><a xlink:href="333.svg" xlink:title="R333">
<polygon fill="azure" stroke="none" points="685,-193.43 591,-193.43 591,-146.43 685,-146.43 685,-193.43"/>
<text text-anchor="middle" x="638" y="-161.43" font-family="Times New Roman,serif" font-size="35.00">R333</text>
</a>
</g>
</g>
<!-- R256&#45;&gt;R333 -->
<g id="edge5" class="edge">
<title>R256&#45;&gt;R333</title>
<path fill="none" stroke="black" d="M83.92,-211.55C90.08,-208.47 96.57,-205.76 103,-203.93 202.38,-175.74 460.45,-199.62 580.43,-184.75"/>
<polygon fill="black" stroke="black" points="580.83,-188.09 590.25,-183.24 579.86,-181.16 580.83,-188.09"/>
<text text-anchor="middle" x="342.5" y="-212.93" font-family="Times New Roman,serif" font-size="30.00"> &#160;&#160;732 &#160;&#160;0% &#160;&#160;0.000605 mol/s &#160;&#160;&#160;9.30E&#45;01</text>
</g>
<!-- R256&#45;&gt;R333 -->
<g id="edge8" class="edge">
<title>R256&#45;&gt;R333</title>
<path fill="none" stroke="black" d="M55.44,-211.64C63.5,-190.75 78.58,-161.38 103,-147.93 147.43,-123.46 494.83,-136.49 580.5,-148.39"/>
<polygon fill="black" stroke="black" points="579.74,-151.98 590.17,-150.13 580.87,-145.07 579.74,-151.98"/>
<text text-anchor="middle" x="342.5" y="-156.93" font-family="Times New Roman,serif" font-size="30.00"> &#160;&#160;1000 &#160;&#160;1% &#160;&#160;0.00806 mol/s &#160;&#160;&#160;6.98E&#45;02</text>
</g>
<!-- R276 -->
<g id="node7" class="node">
<title>R276</title>
<g id="a_node7"><a xlink:href="276.svg" xlink:title="R276">
<polygon fill="azure" stroke="none" points="685,-90.43 591,-90.43 591,-43.43 685,-43.43 685,-90.43"/>
<text text-anchor="middle" x="638" y="-58.43" font-family="Times New Roman,serif" font-size="35.00">R276</text>
</a>
</g>
</g>
<!-- R256&#45;&gt;R276 -->
<g id="edge6" class="edge">
<title>R256&#45;&gt;R276</title>
<path fill="none" stroke="black" d="M49.84,-211.47C53.72,-179.61 65.76,-123.56 103,-96.93 144.31,-67.39 493.76,-76.2 580.31,-72.75"/>
<polygon fill="black" stroke="black" points="580.31,-76.2 590.1,-72.14 579.92,-69.21 580.31,-76.2"/>
<text text-anchor="middle" x="342.5" y="-105.93" font-family="Times New Roman,serif" font-size="30.00"> &#160;&#160;733 &#160;&#160;0% &#160;&#160;0.00065 mol/s &#160;&#160;&#160;9.94E&#45;01</text>
</g>
<!-- R256&#45;&gt;R276 -->
<g id="edge7" class="edge">
<title>R256&#45;&gt;R276</title>
<path fill="none" stroke="black" stroke-width="2" d="M50.94,-211.5C57.48,-163.63 74.91,-57.32 103,-35.93 187.7,28.53 479.04,-8.92 582,-35.93 585.18,-36.77 588.38,-37.83 591.54,-39.07"/>
<polygon fill="black" stroke="black" stroke-width="2" points="588.88,-41.61 599.44,-42.48 591.73,-35.21 588.88,-41.61"/>
<text text-anchor="middle" x="342.5" y="-44.93" font-family="Times New Roman,serif" font-size="30.00"> &#160;&#160;759 &#160;&#160;22% &#160;&#160;0.109 mol/s &#160;&#160;&#160;5.94E&#45;03</text>
</g>
</g>
</svg>
