<?xml version="1.0" encoding="UTF-8" standalone="no"?>
<!DOCTYPE svg PUBLIC "-//W3C//DTD SVG 1.1//EN"
 "http://www.w3.org/Graphics/SVG/1.1/DTD/svg11.dtd">
<!-- Generated by graphviz version 8.0.3 (20230416.2022)
 -->
<!-- Title: G Pages: 1 -->
<svg width="640pt" height="156pt"
 viewBox="0.00 0.00 720.00 175.04" xmlns="http://www.w3.org/2000/svg" xmlns:xlink="http://www.w3.org/1999/xlink">
<g id="graph0" class="graph" transform="scale(0.487062 0.487062) rotate(0) translate(4 315.44)">
<title>G</title>
<polygon fill="white" stroke="none" points="-4,4 -4,-315.44 1310,-315.44 1310,4 -4,4"/>
<text text-anchor="middle" x="653" y="-278.64" font-family="Arial" font-size="36.00" fill="blue">Reaction Path Analysis</text>
<!-- R259 -->
<g id="node1" class="node">
<title>R259</title>
<g id="a_node1"><a xlink:href="259.svg" xlink:title="R259">
<polygon fill="azure" stroke="none" points="700,-137.94 606,-137.94 606,-90.94 700,-90.94 700,-137.94"/>
<text text-anchor="middle" x="653" y="-105.94" font-family="Times New Roman,serif" font-size="35.00">R259</text>
</a>
</g>
</g>
<!-- R44 -->
<g id="node2" class="node">
<title>R44</title>
<g id="a_node2"><a xlink:href="44.svg" xlink:title="R44">
<polygon fill="azure" stroke="none" points="1297,-230.94 1221,-230.94 1221,-183.94 1297,-183.94 1297,-230.94"/>
<text text-anchor="middle" x="1259" y="-198.94" font-family="Times New Roman,serif" font-size="35.00">R44</text>
</a>
</g>
</g>
<!-- R259&#45;&gt;R44 -->
<g id="edge1" class="edge">
<title>R259&#45;&gt;R44</title>
<path fill="none" stroke="black" stroke-width="5" d="M669.97,-137.65C681.19,-151.86 697.53,-168.91 716.5,-177.44 879.32,-250.61 1097.97,-231.86 1200.45,-217.2"/>
<polygon fill="black" stroke="black" stroke-width="5" points="1196.61,-225.73 1215.07,-214.08 1193.99,-208.43 1196.61,-225.73"/>
<text text-anchor="middle" x="956" y="-239.44" font-family="Times New Roman,serif" font-size="30.00"> &#160;&#160;351 &#160;&#160;99% &#160;&#160;134.0 mol/s &#160;&#160;&#160;3.20E&#45;09</text>
</g>
<!-- R13 -->
<g id="node3" class="node">
<title>R13</title>
<g id="a_node3"><a xlink:href="13.svg" xlink:title="R13">
<polygon fill="azure" stroke="none" points="1297,-165.94 1221,-165.94 1221,-118.94 1297,-118.94 1297,-165.94"/>
<text text-anchor="middle" x="1259" y="-133.94" font-family="Times New Roman,serif" font-size="35.00">R13</text>
</a>
</g>
</g>
<!-- R259&#45;&gt;R13 -->
<g id="edge2" class="edge">
<title>R259&#45;&gt;R13</title>
<path fill="none" stroke="black" stroke-width="5" d="M699.72,-119.12C705.36,-119.61 711.06,-120.07 716.5,-120.44 892.6,-132.46 1101.4,-138.68 1200.4,-141.14"/>
<polygon fill="black" stroke="black" stroke-width="5" points="1194.99,-149.91 1215.19,-141.64 1195.41,-132.41 1194.99,-149.91"/>
<text text-anchor="middle" x="956" y="-149.44" font-family="Times New Roman,serif" font-size="30.00"> &#160;&#160;351 &#160;&#160;99% &#160;&#160;134.0 mol/s &#160;&#160;&#160;3.20E&#45;09</text>
</g>
<!-- R302 -->
<g id="node5" class="node">
<title>R302</title>
<g id="a_node5"><a xlink:href="302.svg" xlink:title="R302">
<polygon fill="azure" stroke="none" points="1306,-77.94 1212,-77.94 1212,-30.94 1306,-30.94 1306,-77.94"/>
<text text-anchor="middle" x="1259" y="-45.94" font-family="Times New Roman,serif" font-size="35.00">R302</text>
</a>
</g>
</g>
<!-- R259&#45;&gt;R302 -->
<g id="edge4" class="edge">
<title>R259&#45;&gt;R302</title>
<path fill="none" stroke="black" d="M695.08,-91.06C702.05,-87.99 709.34,-85.27 716.5,-83.44 819.72,-57.08 1089.5,-74.99 1195.5,-64.44 1197.34,-64.26 1199.21,-64.05 1201.1,-63.84"/>
<polygon fill="black" stroke="black" points="1201.53,-67.18 1211,-62.44 1200.64,-60.24 1201.53,-67.18"/>
<text text-anchor="middle" x="956" y="-92.44" font-family="Times New Roman,serif" font-size="30.00"> &#160;&#160;737 &#160;&#160;0% &#160;&#160;0.000639 mol/s &#160;&#160;&#160;9.77E&#45;01</text>
</g>
<!-- R259&#45;&gt;R302 -->
<g id="edge5" class="edge">
<title>R259&#45;&gt;R302</title>
<path fill="none" stroke="black" d="M663.34,-91.05C673.12,-70.09 690.69,-40.68 716.5,-27.44 811.21,21.14 1091.26,-5.89 1195.5,-27.44 1197.58,-27.87 1199.68,-28.38 1201.79,-28.94"/>
<polygon fill="black" stroke="black" points="1200.68,-32.57 1211.27,-32.21 1202.77,-25.89 1200.68,-32.57"/>
<text text-anchor="middle" x="956" y="-36.44" font-family="Times New Roman,serif" font-size="30.00"> &#160;&#160;984 &#160;&#160;0% &#160;&#160;0.0273 mol/s &#160;&#160;&#160;2.29E&#45;02</text>
</g>
<!-- R355 -->
<g id="node4" class="node">
<title>R355</title>
<g id="a_node4"><a xlink:href="355.svg" xlink:title="R355">
<polygon fill="azure" stroke="none" points="94,-137.94 0,-137.94 0,-90.94 94,-90.94 94,-137.94"/>
<text text-anchor="middle" x="47" y="-105.94" font-family="Times New Roman,serif" font-size="35.00">R355</text>
</a>
</g>
</g>
<!-- R355&#45;&gt;R259 -->
<g id="edge3" class="edge">
<title>R355&#45;&gt;R259</title>
<path fill="none" stroke="black" stroke-width="4" d="M93.89,-119.82C96.97,-120.07 100.03,-120.28 103,-120.44 315.38,-131.99 374.14,-132.35 585.2,-120.96"/>
<polygon fill="black" stroke="black" stroke-width="4" points="580.52,-127.9 600.11,-119.82 579.76,-113.92 580.52,-127.9"/>
<text text-anchor="middle" x="350" y="-137.44" font-family="Times New Roman,serif" font-size="30.00"> &#160;&#160;736 &#160;&#160;66% &#160;&#160;0.000668 mol/s &#160;&#160;&#160;3.31E&#45;01</text>
</g>
<!-- R355&#45;&gt;R259 -->
<g id="edge6" class="edge">
<title>R355&#45;&gt;R259</title>
<path fill="none" stroke="black" stroke-width="2" d="M83.56,-90.99C89.81,-87.87 96.43,-85.17 103,-83.44 315.37,-27.71 384.63,-27.71 597,-83.44 600.18,-84.28 603.38,-85.34 606.54,-86.57"/>
<polygon fill="black" stroke="black" stroke-width="2" points="603.88,-89.11 614.44,-89.99 606.73,-82.72 603.88,-89.11"/>
<text text-anchor="middle" x="350" y="-92.44" font-family="Times New Roman,serif" font-size="30.00"> &#160;&#160;1022 &#160;&#160;33% &#160;&#160;0.00033 mol/s &#160;&#160;&#160;6.69E&#45;01</text>
</g>
</g>
</svg>
