<?xml version="1.0" encoding="UTF-8" standalone="no"?>
<!DOCTYPE svg PUBLIC "-//W3C//DTD SVG 1.1//EN"
 "http://www.w3.org/Graphics/SVG/1.1/DTD/svg11.dtd">
<!-- Generated by graphviz version 8.0.3 (20230416.2022)
 -->
<!-- Title: G Pages: 1 -->
<svg width="340pt" height="640pt"
 viewBox="0.00 0.00 382.83 720.00" xmlns="http://www.w3.org/2000/svg" xmlns:xlink="http://www.w3.org/1999/xlink">
<g id="graph0" class="graph" transform="scale(0.258976 0.258976) rotate(0) translate(4 2467.27)">
<title>G</title>
<polygon fill="white" stroke="none" points="-4,4 -4,-2467.27 1310,-2467.27 1310,4 -4,4"/>
<text text-anchor="middle" x="653" y="-2430.47" font-family="Arial" font-size="36.00" fill="blue">Reaction Path Analysis</text>
<!-- R26 -->
<g id="node1" class="node">
<title>R26</title>
<g id="a_node1"><a xlink:href="26.svg" xlink:title="R26">
<polygon fill="azure" stroke="none" points="691,-1214.77 615,-1214.77 615,-1167.77 691,-1167.77 691,-1214.77"/>
<text text-anchor="middle" x="653" y="-1182.77" font-family="Times New Roman,serif" font-size="35.00">R26</text>
</a>
</g>
</g>
<!-- R1 -->
<g id="node2" class="node">
<title>R1</title>
<g id="a_node2"><a xlink:href="1.svg" xlink:title="R1">
<polygon fill="azure" stroke="none" points="1288,-1344.77 1230,-1344.77 1230,-1297.77 1288,-1297.77 1288,-1344.77"/>
<text text-anchor="middle" x="1259" y="-1312.77" font-family="Times New Roman,serif" font-size="35.00">R1</text>
</a>
</g>
</g>
<!-- R26&#45;&gt;R1 -->
<g id="edge1" class="edge">
<title>R26&#45;&gt;R1</title>
<path fill="none" stroke="black" stroke-width="5" d="M661.84,-1214.62C671.39,-1238.97 690.05,-1275.96 720,-1293.27 878.85,-1385.12 1110.2,-1352.64 1209.64,-1332.44"/>
<polygon fill="black" stroke="black" stroke-width="5" points="1206.38,-1341.81 1224.11,-1329.07 1202.72,-1324.69 1206.38,-1341.81"/>
<text text-anchor="middle" x="956" y="-1363.27" font-family="Times New Roman,serif" font-size="30.00"> &#160;&#160;31 &#160;&#160;99% &#160;&#160;0.00062 mol/s &#160;&#160;&#160;6.89E&#45;04</text>
</g>
<!-- R13 -->
<g id="node3" class="node">
<title>R13</title>
<g id="a_node3"><a xlink:href="13.svg" xlink:title="R13">
<polygon fill="azure" stroke="none" points="1297,-1279.77 1221,-1279.77 1221,-1232.77 1297,-1232.77 1297,-1279.77"/>
<text text-anchor="middle" x="1259" y="-1247.77" font-family="Times New Roman,serif" font-size="35.00">R13</text>
</a>
</g>
</g>
<!-- R26&#45;&gt;R13 -->
<g id="edge2" class="edge">
<title>R26&#45;&gt;R13</title>
<path fill="none" stroke="black" stroke-width="5" d="M688.65,-1214.59C698.39,-1220.05 709.27,-1225.17 720,-1228.27 808.72,-1253.93 1080.73,-1256.66 1200.44,-1256.58"/>
<polygon fill="black" stroke="black" stroke-width="5" points="1195.29,-1265.32 1215.27,-1256.53 1195.25,-1247.82 1195.29,-1265.32"/>
<text text-anchor="middle" x="956" y="-1265.27" font-family="Times New Roman,serif" font-size="30.00"> &#160;&#160;31 &#160;&#160;99% &#160;&#160;0.00062 mol/s &#160;&#160;&#160;6.89E&#45;04</text>
</g>
<!-- R28 -->
<g id="node5" class="node">
<title>R28</title>
<g id="a_node5"><a xlink:href="28.svg" xlink:title="R28">
<polygon fill="azure" stroke="none" points="1297,-1214.77 1221,-1214.77 1221,-1167.77 1297,-1167.77 1297,-1214.77"/>
<text text-anchor="middle" x="1259" y="-1182.77" font-family="Times New Roman,serif" font-size="35.00">R28</text>
</a>
</g>
</g>
<!-- R26&#45;&gt;R28 -->
<g id="edge4" class="edge">
<title>R26&#45;&gt;R28</title>
<path fill="none" stroke="black" d="M690.87,-1191.27C795.46,-1191.27 1093.94,-1191.27 1210.52,-1191.27"/>
<polygon fill="black" stroke="black" points="1210.23,-1194.77 1220.23,-1191.27 1210.23,-1187.77 1210.23,-1194.77"/>
<text text-anchor="middle" x="956" y="-1200.27" font-family="Times New Roman,serif" font-size="30.00"> &#160;&#160;112 &#160;&#160;0% &#160;&#160;4.17e&#45;07 mol/s &#160;&#160;&#160;9.75E&#45;01</text>
</g>
<!-- R29 -->
<g id="node6" class="node">
<title>R29</title>
<g id="a_node6"><a xlink:href="29.svg" xlink:title="R29">
<polygon fill="azure" stroke="none" points="1297,-1149.77 1221,-1149.77 1221,-1102.77 1297,-1102.77 1297,-1149.77"/>
<text text-anchor="middle" x="1259" y="-1117.77" font-family="Times New Roman,serif" font-size="35.00">R29</text>
</a>
</g>
</g>
<!-- R26&#45;&gt;R29 -->
<g id="edge5" class="edge">
<title>R26&#45;&gt;R29</title>
<path fill="none" stroke="black" d="M688.65,-1167.95C698.39,-1162.5 709.27,-1157.38 720,-1154.27 895.01,-1103.67 1115.17,-1113.86 1210.45,-1121.63"/>
<polygon fill="black" stroke="black" points="1209.91,-1125.18 1220.17,-1122.54 1210.5,-1118.21 1209.91,-1125.18"/>
<text text-anchor="middle" x="956" y="-1163.27" font-family="Times New Roman,serif" font-size="30.00"> &#160;&#160;113 &#160;&#160;0% &#160;&#160;4.27e&#45;07 mol/s &#160;&#160;&#160;9.98E&#45;01</text>
</g>
<!-- R159 -->
<g id="node20" class="node">
<title>R159</title>
<g id="a_node20"><a xlink:href="159.svg" xlink:title="R159">
<polygon fill="azure" stroke="none" points="1306,-1084.77 1212,-1084.77 1212,-1037.77 1306,-1037.77 1306,-1084.77"/>
<text text-anchor="middle" x="1259" y="-1052.77" font-family="Times New Roman,serif" font-size="35.00">R159</text>
</a>
</g>
</g>
<!-- R26&#45;&gt;R159 -->
<g id="edge19" class="edge">
<title>R26&#45;&gt;R159</title>
<path fill="none" stroke="black" d="M660.04,-1168.07C668.46,-1140.93 686.61,-1097.19 720,-1077.27 873.46,-985.73 1097.86,-1022.02 1201.58,-1046.25"/>
<polygon fill="black" stroke="black" points="1200.59,-1049.85 1211.13,-1048.77 1202.22,-1043.04 1200.59,-1049.85"/>
<text text-anchor="middle" x="956" y="-1086.27" font-family="Times New Roman,serif" font-size="30.00"> &#160;&#160;318 &#160;&#160;0% &#160;&#160;3.53e&#45;07 mol/s &#160;&#160;&#160;8.51E&#45;01</text>
</g>
<!-- R6 -->
<g id="node4" class="node">
<title>R6</title>
<g id="a_node4"><a xlink:href="6.svg" xlink:title="R6">
<polygon fill="azure" stroke="none" points="76,-2333.77 18,-2333.77 18,-2286.77 76,-2286.77 76,-2333.77"/>
<text text-anchor="middle" x="47" y="-2301.77" font-family="Times New Roman,serif" font-size="35.00">R6</text>
</a>
</g>
</g>
<!-- R6&#45;&gt;R26 -->
<g id="edge3" class="edge">
<title>R6&#45;&gt;R26</title>
<path fill="none" stroke="black" d="M75.9,-2321.57C165.68,-2355.87 449.82,-2448.15 597,-2307.27 637.04,-2268.95 649.43,-1409.2 651.62,-1225.58"/>
<polygon fill="black" stroke="black" points="655.13,-1225.75 651.75,-1215.71 648.13,-1225.67 655.13,-1225.75"/>
<text text-anchor="middle" x="350" y="-2391.27" font-family="Times New Roman,serif" font-size="30.00"> &#160;&#160;98 &#160;&#160;0% &#160;&#160;0.000654 mol/s &#160;&#160;&#160;1.00E+00</text>
</g>
<!-- R6&#45;&gt;R26 -->
<g id="edge40" class="edge">
<title>R6&#45;&gt;R26</title>
<path fill="none" stroke="black" d="M73.6,-2286.86C82.31,-2280.27 92.51,-2273.91 103,-2270.27 154.9,-2252.29 557.9,-2289.85 597,-2251.27 634.38,-2214.39 648.8,-1402.44 651.51,-1225.23"/>
<polygon fill="black" stroke="black" points="655.02,-1225.54 651.67,-1215.49 648.02,-1225.44 655.02,-1225.54"/>
<text text-anchor="middle" x="350" y="-2279.27" font-family="Times New Roman,serif" font-size="30.00"> &#160;&#160;430 &#160;&#160;0% &#160;&#160;5.43 mol/s &#160;&#160;&#160;1.20E&#45;04</text>
</g>
<!-- R117 -->
<g id="node7" class="node">
<title>R117</title>
<g id="a_node7"><a xlink:href="117.svg" xlink:title="R117">
<polygon fill="azure" stroke="none" points="94,-2254.77 0,-2254.77 0,-2207.77 94,-2207.77 94,-2254.77"/>
<text text-anchor="middle" x="47" y="-2222.77" font-family="Times New Roman,serif" font-size="35.00">R117</text>
</a>
</g>
</g>
<!-- R117&#45;&gt;R26 -->
<g id="edge6" class="edge">
<title>R117&#45;&gt;R26</title>
<path fill="none" stroke="black" d="M93.8,-2219.78C96.9,-2219.21 99.99,-2218.7 103,-2218.27 130.21,-2214.46 577.49,-2214.62 597,-2195.27 632.17,-2160.39 648.22,-1397.73 651.4,-1225.59"/>
<polygon fill="black" stroke="black" points="654.91,-1225.74 651.6,-1215.67 647.92,-1225.61 654.91,-1225.74"/>
<text text-anchor="middle" x="350" y="-2227.27" font-family="Times New Roman,serif" font-size="30.00"> &#160;&#160;167 &#160;&#160;0% &#160;&#160;1.63e&#45;05 mol/s &#160;&#160;&#160;2.49E&#45;02</text>
</g>
<!-- R118 -->
<g id="node8" class="node">
<title>R118</title>
<g id="a_node8"><a xlink:href="118.svg" xlink:title="R118">
<polygon fill="azure" stroke="none" points="94,-2189.77 0,-2189.77 0,-2142.77 94,-2142.77 94,-2189.77"/>
<text text-anchor="middle" x="47" y="-2157.77" font-family="Times New Roman,serif" font-size="35.00">R118</text>
</a>
</g>
</g>
<!-- R118&#45;&gt;R26 -->
<g id="edge7" class="edge">
<title>R118&#45;&gt;R26</title>
<path fill="none" stroke="black" d="M93.91,-2162.85C96.99,-2162.64 100.04,-2162.45 103,-2162.27 130.43,-2160.64 577.46,-2158.59 597,-2139.27 630.16,-2106.49 647.67,-1390.87 651.29,-1225.27"/>
<polygon fill="black" stroke="black" points="654.8,-1225.81 651.52,-1215.74 647.8,-1225.66 654.8,-1225.81"/>
<text text-anchor="middle" x="350" y="-2171.27" font-family="Times New Roman,serif" font-size="30.00"> &#160;&#160;168 &#160;&#160;0% &#160;&#160;4.3e&#45;05 mol/s &#160;&#160;&#160;9.74E&#45;03</text>
</g>
<!-- R119 -->
<g id="node9" class="node">
<title>R119</title>
<g id="a_node9"><a xlink:href="119.svg" xlink:title="R119">
<polygon fill="azure" stroke="none" points="94,-2124.77 0,-2124.77 0,-2077.77 94,-2077.77 94,-2124.77"/>
<text text-anchor="middle" x="47" y="-2092.77" font-family="Times New Roman,serif" font-size="35.00">R119</text>
</a>
</g>
</g>
<!-- R119&#45;&gt;R26 -->
<g id="edge8" class="edge">
<title>R119&#45;&gt;R26</title>
<path fill="none" stroke="black" d="M93.58,-2102.6C218.85,-2105.79 561.5,-2111.19 597,-2076.27 627.88,-2045.9 646.98,-1384.6 651.14,-1225.48"/>
<polygon fill="black" stroke="black" points="654.66,-1225.58 651.42,-1215.5 647.67,-1225.4 654.66,-1225.58"/>
<text text-anchor="middle" x="350" y="-2113.27" font-family="Times New Roman,serif" font-size="30.00"> &#160;&#160;169 &#160;&#160;0% &#160;&#160;0.00303 mol/s &#160;&#160;&#160;1.41E&#45;04</text>
</g>
<!-- R130 -->
<g id="node10" class="node">
<title>R130</title>
<g id="a_node10"><a xlink:href="130.svg" xlink:title="R130">
<polygon fill="azure" stroke="none" points="94,-2059.77 0,-2059.77 0,-2012.77 94,-2012.77 94,-2059.77"/>
<text text-anchor="middle" x="47" y="-2027.77" font-family="Times New Roman,serif" font-size="35.00">R130</text>
</a>
</g>
</g>
<!-- R130&#45;&gt;R26 -->
<g id="edge9" class="edge">
<title>R130&#45;&gt;R26</title>
<path fill="none" stroke="black" d="M93.57,-2037.59C218.82,-2040.75 561.42,-2046.1 597,-2011.27 653.96,-1955.53 653.39,-1372.47 652.32,-1225.01"/>
<polygon fill="black" stroke="black" points="655.82,-1225.36 652.24,-1215.39 648.82,-1225.42 655.82,-1225.36"/>
<text text-anchor="middle" x="350" y="-2048.27" font-family="Times New Roman,serif" font-size="30.00"> &#160;&#160;238 &#160;&#160;0% &#160;&#160;6.69e&#45;05 mol/s &#160;&#160;&#160;6.31E&#45;03</text>
</g>
<!-- R131 -->
<g id="node11" class="node">
<title>R131</title>
<g id="a_node11"><a xlink:href="131.svg" xlink:title="R131">
<polygon fill="azure" stroke="none" points="94,-1994.77 0,-1994.77 0,-1947.77 94,-1947.77 94,-1994.77"/>
<text text-anchor="middle" x="47" y="-1962.77" font-family="Times New Roman,serif" font-size="35.00">R131</text>
</a>
</g>
</g>
<!-- R131&#45;&gt;R26 -->
<g id="edge10" class="edge">
<title>R131&#45;&gt;R26</title>
<path fill="none" stroke="black" d="M93.56,-1972.58C218.78,-1975.72 561.32,-1981 597,-1946.27 649.22,-1895.46 652.24,-1366.11 652.11,-1225.44"/>
<polygon fill="black" stroke="black" points="655.61,-1225.51 652.1,-1215.52 648.61,-1225.53 655.61,-1225.51"/>
<text text-anchor="middle" x="350" y="-1983.27" font-family="Times New Roman,serif" font-size="30.00"> &#160;&#160;239 &#160;&#160;0% &#160;&#160;5e&#45;07 mol/s &#160;&#160;&#160;3.15E&#45;01</text>
</g>
<!-- R182 -->
<g id="node12" class="node">
<title>R182</title>
<g id="a_node12"><a xlink:href="182.svg" xlink:title="R182">
<polygon fill="azure" stroke="none" points="94,-1929.77 0,-1929.77 0,-1882.77 94,-1882.77 94,-1929.77"/>
<text text-anchor="middle" x="47" y="-1897.77" font-family="Times New Roman,serif" font-size="35.00">R182</text>
</a>
</g>
</g>
<!-- R182&#45;&gt;R26 -->
<g id="edge11" class="edge">
<title>R182&#45;&gt;R26</title>
<path fill="none" stroke="black" d="M93.99,-1907.58C219.56,-1910.68 561.24,-1915.84 597,-1881.27 644.54,-1835.32 650.99,-1358.4 651.86,-1225.49"/>
<polygon fill="black" stroke="black" points="655.37,-1225.79 651.93,-1215.77 648.37,-1225.75 655.37,-1225.79"/>
<text text-anchor="middle" x="350" y="-1918.27" font-family="Times New Roman,serif" font-size="30.00"> &#160;&#160;240 &#160;&#160;0% &#160;&#160;0.135 mol/s &#160;&#160;&#160;3.18E&#45;06</text>
</g>
<!-- R140 -->
<g id="node13" class="node">
<title>R140</title>
<g id="a_node13"><a xlink:href="140.svg" xlink:title="R140">
<polygon fill="azure" stroke="none" points="94,-1864.77 0,-1864.77 0,-1817.77 94,-1817.77 94,-1864.77"/>
<text text-anchor="middle" x="47" y="-1832.77" font-family="Times New Roman,serif" font-size="35.00">R140</text>
</a>
</g>
</g>
<!-- R140&#45;&gt;R26 -->
<g id="edge12" class="edge">
<title>R140&#45;&gt;R26</title>
<path fill="none" stroke="black" d="M93.98,-1842.57C219.51,-1845.63 561.1,-1850.69 597,-1816.27 639.89,-1775.16 649.62,-1350.12 651.56,-1225.46"/>
<polygon fill="black" stroke="black" points="655.07,-1225.73 651.72,-1215.68 648.07,-1225.63 655.07,-1225.73"/>
<text text-anchor="middle" x="350" y="-1853.27" font-family="Times New Roman,serif" font-size="30.00"> &#160;&#160;281 &#160;&#160;0% &#160;&#160;7.37e&#45;07 mol/s &#160;&#160;&#160;2.69E&#45;01</text>
</g>
<!-- R141 -->
<g id="node14" class="node">
<title>R141</title>
<g id="a_node14"><a xlink:href="141.svg" xlink:title="R141">
<polygon fill="azure" stroke="none" points="94,-1799.77 0,-1799.77 0,-1752.77 94,-1752.77 94,-1799.77"/>
<text text-anchor="middle" x="47" y="-1767.77" font-family="Times New Roman,serif" font-size="35.00">R141</text>
</a>
</g>
</g>
<!-- R141&#45;&gt;R26 -->
<g id="edge13" class="edge">
<title>R141&#45;&gt;R26</title>
<path fill="none" stroke="black" d="M93.96,-1777.46C219.45,-1780.24 560.95,-1784.54 597,-1750.27 635.18,-1713.99 648.09,-1340.79 651.19,-1225.21"/>
<polygon fill="black" stroke="black" points="654.71,-1225.63 651.47,-1215.54 647.71,-1225.44 654.71,-1225.63"/>
<text text-anchor="middle" x="350" y="-1788.27" font-family="Times New Roman,serif" font-size="30.00"> &#160;&#160;282 &#160;&#160;0% &#160;&#160;0.000304 mol/s &#160;&#160;&#160;1.40E&#45;03</text>
</g>
<!-- R218 -->
<g id="node15" class="node">
<title>R218</title>
<g id="a_node15"><a xlink:href="218.svg" xlink:title="R218">
<polygon fill="azure" stroke="none" points="94,-1734.77 0,-1734.77 0,-1687.77 94,-1687.77 94,-1734.77"/>
<text text-anchor="middle" x="47" y="-1702.77" font-family="Times New Roman,serif" font-size="35.00">R218</text>
</a>
</g>
</g>
<!-- R218&#45;&gt;R26 -->
<g id="edge14" class="edge">
<title>R218&#45;&gt;R26</title>
<path fill="none" stroke="black" d="M93.94,-1712.44C219.37,-1715.15 560.73,-1719.31 597,-1685.27 630.54,-1653.8 646.37,-1332.03 650.72,-1225.4"/>
<polygon fill="black" stroke="black" points="654.24,-1225.75 651.15,-1215.62 647.25,-1225.47 654.24,-1225.75"/>
<text text-anchor="middle" x="350" y="-1722.27" font-family="Times New Roman,serif" font-size="30.00"> &#160;&#160;283 &#160;&#160;0% &#160;&#160;1.42 mol/s &#160;&#160;&#160;3.01E&#45;07</text>
</g>
<!-- R149 -->
<g id="node16" class="node">
<title>R149</title>
<g id="a_node16"><a xlink:href="149.svg" xlink:title="R149">
<polygon fill="azure" stroke="none" points="94,-1669.77 0,-1669.77 0,-1622.77 94,-1622.77 94,-1669.77"/>
<text text-anchor="middle" x="47" y="-1637.77" font-family="Times New Roman,serif" font-size="35.00">R149</text>
</a>
</g>
</g>
<!-- R149&#45;&gt;R26 -->
<g id="edge15" class="edge">
<title>R149&#45;&gt;R26</title>
<path fill="none" stroke="black" d="M93.91,-1647.41C219.27,-1650.04 560.45,-1654.01 597,-1620.27 625.93,-1593.57 644.37,-1322.7 650.09,-1225.64"/>
<polygon fill="black" stroke="black" points="653.64,-1225.88 650.73,-1215.7 646.66,-1225.48 653.64,-1225.88"/>
<text text-anchor="middle" x="350" y="-1657.27" font-family="Times New Roman,serif" font-size="30.00"> &#160;&#160;301 &#160;&#160;0% &#160;&#160;6.4e&#45;05 mol/s &#160;&#160;&#160;6.60E&#45;03</text>
</g>
<!-- R150 -->
<g id="node17" class="node">
<title>R150</title>
<g id="a_node17"><a xlink:href="150.svg" xlink:title="R150">
<polygon fill="azure" stroke="none" points="94,-1604.77 0,-1604.77 0,-1557.77 94,-1557.77 94,-1604.77"/>
<text text-anchor="middle" x="47" y="-1572.77" font-family="Times New Roman,serif" font-size="35.00">R150</text>
</a>
</g>
</g>
<!-- R150&#45;&gt;R26 -->
<g id="edge16" class="edge">
<title>R150&#45;&gt;R26</title>
<path fill="none" stroke="black" d="M93.87,-1582.36C219.13,-1584.89 560.07,-1588.59 597,-1555.27 645.22,-1511.77 651.54,-1307.95 652.1,-1225.76"/>
<polygon fill="black" stroke="black" points="655.6,-1225.79 652.14,-1215.77 648.6,-1225.76 655.6,-1225.79"/>
<text text-anchor="middle" x="350" y="-1592.27" font-family="Times New Roman,serif" font-size="30.00"> &#160;&#160;302 &#160;&#160;0% &#160;&#160;0.00474 mol/s &#160;&#160;&#160;9.02E&#45;05</text>
</g>
<!-- R156 -->
<g id="node18" class="node">
<title>R156</title>
<g id="a_node18"><a xlink:href="156.svg" xlink:title="R156">
<polygon fill="azure" stroke="none" points="94,-1539.77 0,-1539.77 0,-1492.77 94,-1492.77 94,-1539.77"/>
<text text-anchor="middle" x="47" y="-1507.77" font-family="Times New Roman,serif" font-size="35.00">R156</text>
</a>
</g>
</g>
<!-- R156&#45;&gt;R26 -->
<g id="edge17" class="edge">
<title>R156&#45;&gt;R26</title>
<path fill="none" stroke="black" d="M93.82,-1517.21C218.94,-1519.34 559.56,-1522.03 597,-1489.27 636.1,-1455.07 647.61,-1296.27 650.82,-1225.48"/>
<polygon fill="black" stroke="black" points="654.36,-1225.65 651.29,-1215.52 647.37,-1225.36 654.36,-1225.65"/>
<text text-anchor="middle" x="350" y="-1527.27" font-family="Times New Roman,serif" font-size="30.00"> &#160;&#160;312 &#160;&#160;0% &#160;&#160;0.000947 mol/s &#160;&#160;&#160;4.51E&#45;04</text>
</g>
<!-- R157 -->
<g id="node19" class="node">
<title>R157</title>
<g id="a_node19"><a xlink:href="157.svg" xlink:title="R157">
<polygon fill="azure" stroke="none" points="94,-1474.77 0,-1474.77 0,-1427.77 94,-1427.77 94,-1474.77"/>
<text text-anchor="middle" x="47" y="-1442.77" font-family="Times New Roman,serif" font-size="35.00">R157</text>
</a>
</g>
</g>
<!-- R157&#45;&gt;R26 -->
<g id="edge18" class="edge">
<title>R157&#45;&gt;R26</title>
<path fill="none" stroke="black" d="M93.74,-1452.03C218.65,-1453.66 558.78,-1455.11 597,-1423.27 627.04,-1398.25 642.7,-1283.83 648.84,-1225.57"/>
<polygon fill="black" stroke="black" points="652.41,-1226.02 649.94,-1215.71 645.45,-1225.31 652.41,-1226.02"/>
<text text-anchor="middle" x="350" y="-1461.27" font-family="Times New Roman,serif" font-size="30.00"> &#160;&#160;313 &#160;&#160;0% &#160;&#160;0.00028 mol/s &#160;&#160;&#160;1.52E&#45;03</text>
</g>
<!-- R160 -->
<g id="node21" class="node">
<title>R160</title>
<g id="a_node21"><a xlink:href="160.svg" xlink:title="R160">
<polygon fill="azure" stroke="none" points="94,-1409.77 0,-1409.77 0,-1362.77 94,-1362.77 94,-1409.77"/>
<text text-anchor="middle" x="47" y="-1377.77" font-family="Times New Roman,serif" font-size="35.00">R160</text>
</a>
</g>
</g>
<!-- R160&#45;&gt;R26 -->
<g id="edge20" class="edge">
<title>R160&#45;&gt;R26</title>
<path fill="none" stroke="black" d="M93.6,-1386.86C218.15,-1388.05 557.45,-1388.45 597,-1358.27 637.97,-1327.01 648.82,-1264.35 651.46,-1225.3"/>
<polygon fill="black" stroke="black" points="655,-1225.65 652.03,-1215.48 648.01,-1225.28 655,-1225.65"/>
<text text-anchor="middle" x="350" y="-1395.27" font-family="Times New Roman,serif" font-size="30.00"> &#160;&#160;319 &#160;&#160;0% &#160;&#160;7.27e&#45;06 mol/s &#160;&#160;&#160;5.26E&#45;02</text>
</g>
<!-- R238 -->
<g id="node22" class="node">
<title>R238</title>
<g id="a_node22"><a xlink:href="238.svg" xlink:title="R238">
<polygon fill="azure" stroke="none" points="94,-1344.77 0,-1344.77 0,-1297.77 94,-1297.77 94,-1344.77"/>
<text text-anchor="middle" x="47" y="-1312.77" font-family="Times New Roman,serif" font-size="35.00">R238</text>
</a>
</g>
</g>
<!-- R238&#45;&gt;R26 -->
<g id="edge21" class="edge">
<title>R238&#45;&gt;R26</title>
<path fill="none" stroke="black" d="M93.8,-1321.58C218.05,-1322.06 555.03,-1320.86 597,-1294.27 621.35,-1278.84 635.62,-1248.77 643.5,-1225.08"/>
<polygon fill="black" stroke="black" points="647.09,-1226.31 646.68,-1215.73 640.4,-1224.26 647.09,-1226.31"/>
<text text-anchor="middle" x="350" y="-1330.27" font-family="Times New Roman,serif" font-size="30.00"> &#160;&#160;320 &#160;&#160;0% &#160;&#160;1120.0 mol/s &#160;&#160;&#160;3.82E&#45;10</text>
</g>
<!-- R163 -->
<g id="node23" class="node">
<title>R163</title>
<g id="a_node23"><a xlink:href="163.svg" xlink:title="R163">
<polygon fill="azure" stroke="none" points="94,-1279.77 0,-1279.77 0,-1232.77 94,-1232.77 94,-1279.77"/>
<text text-anchor="middle" x="47" y="-1247.77" font-family="Times New Roman,serif" font-size="35.00">R163</text>
</a>
</g>
</g>
<!-- R163&#45;&gt;R26 -->
<g id="edge22" class="edge">
<title>R163&#45;&gt;R26</title>
<path fill="none" stroke="black" d="M93.63,-1257.06C207.98,-1258.55 504.19,-1259.19 597,-1228.27 602.95,-1226.29 608.85,-1223.48 614.46,-1220.28"/>
<polygon fill="black" stroke="black" points="615.94,-1222.86 622.59,-1214.61 612.25,-1216.92 615.94,-1222.86"/>
<text text-anchor="middle" x="350" y="-1266.27" font-family="Times New Roman,serif" font-size="30.00"> &#160;&#160;332 &#160;&#160;0% &#160;&#160;0.00239 mol/s &#160;&#160;&#160;1.79E&#45;04</text>
</g>
<!-- R164 -->
<g id="node24" class="node">
<title>R164</title>
<g id="a_node24"><a xlink:href="164.svg" xlink:title="R164">
<polygon fill="azure" stroke="none" points="94,-1214.77 0,-1214.77 0,-1167.77 94,-1167.77 94,-1214.77"/>
<text text-anchor="middle" x="47" y="-1182.77" font-family="Times New Roman,serif" font-size="35.00">R164</text>
</a>
</g>
</g>
<!-- R164&#45;&gt;R26 -->
<g id="edge23" class="edge">
<title>R164&#45;&gt;R26</title>
<path fill="none" stroke="black" d="M93.89,-1191.27C205.66,-1191.27 491.08,-1191.27 604.5,-1191.27"/>
<polygon fill="black" stroke="black" points="604.24,-1194.77 614.24,-1191.27 604.24,-1187.77 604.24,-1194.77"/>
<text text-anchor="middle" x="350" y="-1200.27" font-family="Times New Roman,serif" font-size="30.00"> &#160;&#160;333 &#160;&#160;0% &#160;&#160;1.06 mol/s &#160;&#160;&#160;4.02E&#45;07</text>
</g>
<!-- R246 -->
<g id="node25" class="node">
<title>R246</title>
<g id="a_node25"><a xlink:href="246.svg" xlink:title="R246">
<polygon fill="azure" stroke="none" points="94,-1149.77 0,-1149.77 0,-1102.77 94,-1102.77 94,-1149.77"/>
<text text-anchor="middle" x="47" y="-1117.77" font-family="Times New Roman,serif" font-size="35.00">R246</text>
</a>
</g>
</g>
<!-- R246&#45;&gt;R26 -->
<g id="edge24" class="edge">
<title>R246&#45;&gt;R26</title>
<path fill="none" stroke="black" d="M93.98,-1120.54C190.26,-1110.26 418.85,-1094.93 597,-1154.27 602.95,-1156.26 608.85,-1159.07 614.46,-1162.27"/>
<polygon fill="black" stroke="black" points="612.25,-1165.63 622.59,-1167.94 615.94,-1159.69 612.25,-1165.63"/>
<text text-anchor="middle" x="350" y="-1163.27" font-family="Times New Roman,serif" font-size="30.00"> &#160;&#160;334 &#160;&#160;0% &#160;&#160;0.000649 mol/s &#160;&#160;&#160;6.58E&#45;04</text>
</g>
<!-- R170 -->
<g id="node26" class="node">
<title>R170</title>
<g id="a_node26"><a xlink:href="170.svg" xlink:title="R170">
<polygon fill="azure" stroke="none" points="94,-1084.77 0,-1084.77 0,-1037.77 94,-1037.77 94,-1084.77"/>
<text text-anchor="middle" x="47" y="-1052.77" font-family="Times New Roman,serif" font-size="35.00">R170</text>
</a>
</g>
</g>
<!-- R170&#45;&gt;R26 -->
<g id="edge25" class="edge">
<title>R170&#45;&gt;R26</title>
<path fill="none" stroke="black" d="M93.66,-1056.28C210.13,-1044.48 514.87,-1019.67 597,-1073.27 625.57,-1091.92 639.57,-1129.61 646.25,-1157.4"/>
<polygon fill="black" stroke="black" points="642.99,-1157.85 648.54,-1166.87 649.82,-1156.36 642.99,-1157.85"/>
<text text-anchor="middle" x="350" y="-1082.27" font-family="Times New Roman,serif" font-size="30.00"> &#160;&#160;378 &#160;&#160;0% &#160;&#160;0.0206 mol/s &#160;&#160;&#160;2.08E&#45;05</text>
</g>
<!-- R171 -->
<g id="node27" class="node">
<title>R171</title>
<g id="a_node27"><a xlink:href="171.svg" xlink:title="R171">
<polygon fill="azure" stroke="none" points="94,-1019.77 0,-1019.77 0,-972.77 94,-972.77 94,-1019.77"/>
<text text-anchor="middle" x="47" y="-987.77" font-family="Times New Roman,serif" font-size="35.00">R171</text>
</a>
</g>
</g>
<!-- R171&#45;&gt;R26 -->
<g id="edge26" class="edge">
<title>R171&#45;&gt;R26</title>
<path fill="none" stroke="black" d="M93.6,-993.72C218.14,-987.15 557.42,-972.23 597,-1002.27 621.68,-1021.01 639,-1108.07 647,-1157.23"/>
<polygon fill="black" stroke="black" points="643.68,-1157.65 648.69,-1166.98 650.59,-1156.56 643.68,-1157.65"/>
<text text-anchor="middle" x="350" y="-1011.27" font-family="Times New Roman,serif" font-size="30.00"> &#160;&#160;379 &#160;&#160;0% &#160;&#160;17.5 mol/s &#160;&#160;&#160;2.44E&#45;08</text>
</g>
<!-- R280 -->
<g id="node28" class="node">
<title>R280</title>
<g id="a_node28"><a xlink:href="280.svg" xlink:title="R280">
<polygon fill="azure" stroke="none" points="94,-954.77 0,-954.77 0,-907.77 94,-907.77 94,-954.77"/>
<text text-anchor="middle" x="47" y="-922.77" font-family="Times New Roman,serif" font-size="35.00">R280</text>
</a>
</g>
</g>
<!-- R280&#45;&gt;R26 -->
<g id="edge27" class="edge">
<title>R280&#45;&gt;R26</title>
<path fill="none" stroke="black" d="M93.97,-925.63C211.89,-912.18 521.17,-883.86 597,-946.27 629.17,-972.76 643.97,-1096.32 649.4,-1157.2"/>
<polygon fill="black" stroke="black" points="645.99,-1157.48 650.33,-1167.15 652.97,-1156.88 645.99,-1157.48"/>
<text text-anchor="middle" x="350" y="-955.27" font-family="Times New Roman,serif" font-size="30.00"> &#160;&#160;380 &#160;&#160;0% &#160;&#160;0.00983 mol/s &#160;&#160;&#160;4.35E&#45;05</text>
</g>
<!-- R281 -->
<g id="node29" class="node">
<title>R281</title>
<g id="a_node29"><a xlink:href="281.svg" xlink:title="R281">
<polygon fill="azure" stroke="none" points="94,-889.77 0,-889.77 0,-842.77 94,-842.77 94,-889.77"/>
<text text-anchor="middle" x="47" y="-857.77" font-family="Times New Roman,serif" font-size="35.00">R281</text>
</a>
</g>
</g>
<!-- R281&#45;&gt;R26 -->
<g id="edge28" class="edge">
<title>R281&#45;&gt;R26</title>
<path fill="none" stroke="black" d="M93.78,-863.31C218.78,-855.68 559.13,-838.11 597,-870.27 640.14,-906.92 649.44,-1082.6 651.45,-1157.42"/>
<polygon fill="black" stroke="black" points="647.97,-1157.2 651.7,-1167.11 654.96,-1157.03 647.97,-1157.2"/>
<text text-anchor="middle" x="350" y="-879.27" font-family="Times New Roman,serif" font-size="30.00"> &#160;&#160;381 &#160;&#160;0% &#160;&#160;0.0612 mol/s &#160;&#160;&#160;6.99E&#45;06</text>
</g>
<!-- R300 -->
<g id="node30" class="node">
<title>R300</title>
<g id="a_node30"><a xlink:href="300.svg" xlink:title="R300">
<polygon fill="azure" stroke="none" points="94,-824.77 0,-824.77 0,-777.77 94,-777.77 94,-824.77"/>
<text text-anchor="middle" x="47" y="-792.77" font-family="Times New Roman,serif" font-size="35.00">R300</text>
</a>
</g>
</g>
<!-- R300&#45;&gt;R26 -->
<g id="edge29" class="edge">
<title>R300&#45;&gt;R26</title>
<path fill="none" stroke="black" d="M93.8,-795.17C212.04,-780.5 523.4,-749.09 597,-814.27 647.66,-859.14 652.47,-1073.09 652.37,-1157.2"/>
<polygon fill="black" stroke="black" points="648.86,-1156.94 652.32,-1166.95 655.86,-1156.96 648.86,-1156.94"/>
<text text-anchor="middle" x="350" y="-823.27" font-family="Times New Roman,serif" font-size="30.00"> &#160;&#160;406 &#160;&#160;0% &#160;&#160;0.00114 mol/s &#160;&#160;&#160;3.76E&#45;04</text>
</g>
<!-- R301 -->
<g id="node31" class="node">
<title>R301</title>
<g id="a_node31"><a xlink:href="301.svg" xlink:title="R301">
<polygon fill="azure" stroke="none" points="94,-759.77 0,-759.77 0,-712.77 94,-712.77 94,-759.77"/>
<text text-anchor="middle" x="47" y="-727.77" font-family="Times New Roman,serif" font-size="35.00">R301</text>
</a>
</g>
</g>
<!-- R301&#45;&gt;R26 -->
<g id="edge30" class="edge">
<title>R301&#45;&gt;R26</title>
<path fill="none" stroke="black" d="M93.85,-732.96C219.04,-724.37 559.85,-704.29 597,-737.27 628.37,-765.13 645.43,-1056.45 650.43,-1157.21"/>
<polygon fill="black" stroke="black" points="646.97,-1157.16 650.95,-1166.98 653.96,-1156.82 646.97,-1157.16"/>
<text text-anchor="middle" x="350" y="-746.27" font-family="Times New Roman,serif" font-size="30.00"> &#160;&#160;407 &#160;&#160;0% &#160;&#160;275.0 mol/s &#160;&#160;&#160;1.55E&#45;09</text>
</g>
<!-- R302 -->
<g id="node32" class="node">
<title>R302</title>
<g id="a_node32"><a xlink:href="302.svg" xlink:title="R302">
<polygon fill="azure" stroke="none" points="94,-694.77 0,-694.77 0,-647.77 94,-647.77 94,-694.77"/>
<text text-anchor="middle" x="47" y="-662.77" font-family="Times New Roman,serif" font-size="35.00">R302</text>
</a>
</g>
</g>
<!-- R302&#45;&gt;R26 -->
<g id="edge31" class="edge">
<title>R302&#45;&gt;R26</title>
<path fill="none" stroke="black" d="M93.9,-668.72C219.22,-662.2 560.33,-647.74 597,-681.27 632.15,-713.42 646.96,-1047.99 650.88,-1157.08"/>
<polygon fill="black" stroke="black" points="647.41,-1156.93 651.26,-1166.8 654.4,-1156.68 647.41,-1156.93"/>
<text text-anchor="middle" x="350" y="-690.27" font-family="Times New Roman,serif" font-size="30.00"> &#160;&#160;408 &#160;&#160;0% &#160;&#160;0.0322 mol/s &#160;&#160;&#160;1.33E&#45;05</text>
</g>
<!-- R305 -->
<g id="node33" class="node">
<title>R305</title>
<g id="a_node33"><a xlink:href="305.svg" xlink:title="R305">
<polygon fill="azure" stroke="none" points="94,-629.77 0,-629.77 0,-582.77 94,-582.77 94,-629.77"/>
<text text-anchor="middle" x="47" y="-597.77" font-family="Times New Roman,serif" font-size="35.00">R305</text>
</a>
</g>
</g>
<!-- R305&#45;&gt;R26 -->
<g id="edge32" class="edge">
<title>R305&#45;&gt;R26</title>
<path fill="none" stroke="black" d="M93.57,-600.3C211.97,-585.86 525.08,-555.04 597,-622.27 636.2,-658.93 648.42,-1039.84 651.27,-1157.11"/>
<polygon fill="black" stroke="black" points="647.79,-1157.01 651.52,-1166.92 654.79,-1156.84 647.79,-1157.01"/>
<text text-anchor="middle" x="350" y="-631.27" font-family="Times New Roman,serif" font-size="30.00"> &#160;&#160;411 &#160;&#160;0% &#160;&#160;58.5 mol/s &#160;&#160;&#160;7.31E&#45;09</text>
</g>
<!-- R306 -->
<g id="node34" class="node">
<title>R306</title>
<g id="a_node34"><a xlink:href="306.svg" xlink:title="R306">
<polygon fill="azure" stroke="none" points="94,-564.77 0,-564.77 0,-517.77 94,-517.77 94,-564.77"/>
<text text-anchor="middle" x="47" y="-532.77" font-family="Times New Roman,serif" font-size="35.00">R306</text>
</a>
</g>
</g>
<!-- R306&#45;&gt;R26 -->
<g id="edge33" class="edge">
<title>R306&#45;&gt;R26</title>
<path fill="none" stroke="black" stroke-width="5" d="M93.92,-537.98C219.28,-529.45 560.48,-509.6 597,-543.27 641.33,-584.15 649.97,-1008.04 651.62,-1147.25"/>
<polygon fill="black" stroke="black" stroke-width="5" points="642.88,-1142.17 651.84,-1162.08 660.38,-1141.99 642.88,-1142.17"/>
<text text-anchor="middle" x="350" y="-552.27" font-family="Times New Roman,serif" font-size="30.00"> &#160;&#160;412 &#160;&#160;97% &#160;&#160;112000.0 mol/s &#160;&#160;&#160;3.82E&#45;12</text>
</g>
<!-- R308 -->
<g id="node35" class="node">
<title>R308</title>
<g id="a_node35"><a xlink:href="308.svg" xlink:title="R308">
<polygon fill="azure" stroke="none" points="94,-499.77 0,-499.77 0,-452.77 94,-452.77 94,-499.77"/>
<text text-anchor="middle" x="47" y="-467.77" font-family="Times New Roman,serif" font-size="35.00">R308</text>
</a>
</g>
</g>
<!-- R308&#45;&gt;R26 -->
<g id="edge34" class="edge">
<title>R308&#45;&gt;R26</title>
<path fill="none" stroke="black" d="M93.96,-473.75C219.42,-467.32 560.86,-453.17 597,-487.27 646.17,-533.67 651.44,-1022.74 651.96,-1157.22"/>
<polygon fill="black" stroke="black" points="648.46,-1157.07 651.99,-1167.06 655.46,-1157.05 648.46,-1157.07"/>
<text text-anchor="middle" x="350" y="-496.27" font-family="Times New Roman,serif" font-size="30.00"> &#160;&#160;414 &#160;&#160;0% &#160;&#160;0.0828 mol/s &#160;&#160;&#160;5.16E&#45;06</text>
</g>
<!-- R309 -->
<g id="node36" class="node">
<title>R309</title>
<g id="a_node36"><a xlink:href="309.svg" xlink:title="R309">
<polygon fill="azure" stroke="none" points="94,-434.77 0,-434.77 0,-387.77 94,-387.77 94,-434.77"/>
<text text-anchor="middle" x="47" y="-402.77" font-family="Times New Roman,serif" font-size="35.00">R309</text>
</a>
</g>
</g>
<!-- R309&#45;&gt;R26 -->
<g id="edge35" class="edge">
<title>R309&#45;&gt;R26</title>
<path fill="none" stroke="black" d="M93.98,-409.26C219.52,-404.23 561.14,-393.86 597,-428.27 650.18,-479.32 652.49,-1015.66 652.16,-1157.19"/>
<polygon fill="black" stroke="black" points="648.66,-1157.16 652.13,-1167.17 655.66,-1157.18 648.66,-1157.16"/>
<text text-anchor="middle" x="350" y="-437.27" font-family="Times New Roman,serif" font-size="30.00"> &#160;&#160;415 &#160;&#160;0% &#160;&#160;1.63 mol/s &#160;&#160;&#160;2.63E&#45;07</text>
</g>
<!-- R310 -->
<g id="node37" class="node">
<title>R310</title>
<g id="a_node37"><a xlink:href="310.svg" xlink:title="R310">
<polygon fill="azure" stroke="none" points="94,-369.77 0,-369.77 0,-322.77 94,-322.77 94,-369.77"/>
<text text-anchor="middle" x="47" y="-337.77" font-family="Times New Roman,serif" font-size="35.00">R310</text>
</a>
</g>
</g>
<!-- R310&#45;&gt;R26 -->
<g id="edge36" class="edge">
<title>R310&#45;&gt;R26</title>
<path fill="none" stroke="black" d="M93.55,-344.52C218.77,-340.18 561.28,-331.61 597,-366.27 654.55,-422.11 653.54,-1008.91 652.35,-1157.32"/>
<polygon fill="black" stroke="black" points="648.84,-1156.98 652.26,-1167.01 655.84,-1157.04 648.84,-1156.98"/>
<text text-anchor="middle" x="350" y="-375.27" font-family="Times New Roman,serif" font-size="30.00"> &#160;&#160;416 &#160;&#160;0% &#160;&#160;1110.0 mol/s &#160;&#160;&#160;3.86E&#45;10</text>
</g>
<!-- R311 -->
<g id="node38" class="node">
<title>R311</title>
<g id="a_node38"><a xlink:href="311.svg" xlink:title="R311">
<polygon fill="azure" stroke="none" points="94,-304.77 0,-304.77 0,-257.77 94,-257.77 94,-304.77"/>
<text text-anchor="middle" x="47" y="-272.77" font-family="Times New Roman,serif" font-size="35.00">R311</text>
</a>
</g>
</g>
<!-- R311&#45;&gt;R26 -->
<g id="edge37" class="edge">
<title>R311&#45;&gt;R26</title>
<path fill="none" stroke="black" d="M93.57,-279.69C218.82,-275.79 561.42,-268.46 597,-303.27 628.1,-333.7 647.06,-998.61 651.16,-1157.43"/>
<polygon fill="black" stroke="black" points="647.68,-1157.06 651.43,-1166.97 654.67,-1156.89 647.68,-1157.06"/>
<text text-anchor="middle" x="350" y="-312.27" font-family="Times New Roman,serif" font-size="30.00"> &#160;&#160;417 &#160;&#160;0% &#160;&#160;3.1e&#45;06 mol/s &#160;&#160;&#160;1.08E&#45;01</text>
</g>
<!-- R312 -->
<g id="node39" class="node">
<title>R312</title>
<g id="a_node39"><a xlink:href="312.svg" xlink:title="R312">
<polygon fill="azure" stroke="none" points="94,-239.77 0,-239.77 0,-192.77 94,-192.77 94,-239.77"/>
<text text-anchor="middle" x="47" y="-207.77" font-family="Times New Roman,serif" font-size="35.00">R312</text>
</a>
</g>
</g>
<!-- R312&#45;&gt;R26 -->
<g id="edge38" class="edge">
<title>R312&#45;&gt;R26</title>
<path fill="none" stroke="black" d="M93.94,-217.3C224.36,-220.32 588.07,-229.5 597,-238.27 630.48,-271.17 647.77,-992.16 651.31,-1157.63"/>
<polygon fill="black" stroke="black" points="647.82,-1157.22 651.53,-1167.15 654.82,-1157.07 647.82,-1157.22"/>
<text text-anchor="middle" x="350" y="-247.27" font-family="Times New Roman,serif" font-size="30.00"> &#160;&#160;418 &#160;&#160;0% &#160;&#160;8.03e&#45;07 mol/s &#160;&#160;&#160;2.58E&#45;01</text>
</g>
<!-- R15 -->
<g id="node40" class="node">
<title>R15</title>
<g id="a_node40"><a xlink:href="15.svg" xlink:title="R15">
<polygon fill="azure" stroke="none" points="85,-169.77 9,-169.77 9,-122.77 85,-122.77 85,-169.77"/>
<text text-anchor="middle" x="47" y="-137.77" font-family="Times New Roman,serif" font-size="35.00">R15</text>
</a>
</g>
</g>
<!-- R15&#45;&gt;R26 -->
<g id="edge39" class="edge">
<title>R15&#45;&gt;R26</title>
<path fill="none" stroke="black" d="M84.73,-157.53C90.79,-159.03 97.03,-160.36 103,-161.27 130.15,-165.44 577.43,-161.01 597,-180.27 632.59,-215.3 648.34,-985 651.42,-1157.27"/>
<polygon fill="black" stroke="black" points="647.94,-1157.25 651.62,-1167.19 654.94,-1157.13 647.94,-1157.25"/>
<text text-anchor="middle" x="350" y="-189.27" font-family="Times New Roman,serif" font-size="30.00"> &#160;&#160;420 &#160;&#160;0% &#160;&#160;0.000617 mol/s &#160;&#160;&#160;9.46E&#45;01</text>
</g>
<!-- R15&#45;&gt;R26 -->
<g id="edge41" class="edge">
<title>R15&#45;&gt;R26</title>
<path fill="none" stroke="black" d="M85,-129.28C90.91,-127.21 97.04,-125.42 103,-124.27 129.95,-119.08 577.1,-105.37 597,-124.27 635.33,-160.68 649.01,-978.55 651.55,-1157.07"/>
<polygon fill="black" stroke="black" points="648.06,-1156.93 651.7,-1166.88 655.06,-1156.84 648.06,-1156.93"/>
<text text-anchor="middle" x="350" y="-133.27" font-family="Times New Roman,serif" font-size="30.00"> &#160;&#160;431 &#160;&#160;0% &#160;&#160;0.0108 mol/s &#160;&#160;&#160;5.41E&#45;02</text>
</g>
<!-- R322 -->
<g id="node41" class="node">
<title>R322</title>
<g id="a_node41"><a xlink:href="322.svg" xlink:title="R322">
<polygon fill="azure" stroke="none" points="94,-94.77 0,-94.77 0,-47.77 94,-47.77 94,-94.77"/>
<text text-anchor="middle" x="47" y="-62.77" font-family="Times New Roman,serif" font-size="35.00">R322</text>
</a>
</g>
</g>
<!-- R322&#45;&gt;R26 -->
<g id="edge42" class="edge">
<title>R322&#45;&gt;R26</title>
<path fill="none" stroke="black" d="M93.63,-53.73C198.59,-16.67 458.78,55.74 597,-77.27 636.87,-115.64 649.39,-973.76 651.61,-1157.03"/>
<polygon fill="black" stroke="black" points="648.13,-1156.92 651.74,-1166.88 655.12,-1156.84 648.13,-1156.92"/>
<text text-anchor="middle" x="350" y="-86.27" font-family="Times New Roman,serif" font-size="30.00"> &#160;&#160;898 &#160;&#160;0% &#160;&#160;0.0901 mol/s &#160;&#160;&#160;4.75E&#45;06</text>
</g>
</g>
</svg>
