<?xml version="1.0" encoding="UTF-8" standalone="no"?>
<!DOCTYPE svg PUBLIC "-//W3C//DTD SVG 1.1//EN"
 "http://www.w3.org/Graphics/SVG/1.1/DTD/svg11.dtd">
<!-- Generated by graphviz version 8.0.3 (20230416.2022)
 -->
<!-- Title: G Pages: 1 -->
<svg width="640pt" height="134pt"
 viewBox="0.00 0.00 720.00 150.49" xmlns="http://www.w3.org/2000/svg" xmlns:xlink="http://www.w3.org/1999/xlink">
<g id="graph0" class="graph" transform="scale(0.490421 0.490421) rotate(0) translate(4 268.76)">
<title>G</title>
<polygon fill="white" stroke="none" points="-4,4 -4,-268.76 1301,-268.76 1301,4 -4,4"/>
<text text-anchor="middle" x="648.5" y="-231.96" font-family="Arial" font-size="36.00" fill="blue">Reaction Path Analysis</text>
<!-- R265 -->
<g id="node1" class="node">
<title>R265</title>
<g id="a_node1"><a xlink:href="265.svg" xlink:title="R265">
<polygon fill="azure" stroke="none" points="700,-135.26 606,-135.26 606,-88.26 700,-88.26 700,-135.26"/>
<text text-anchor="middle" x="653" y="-103.26" font-family="Times New Roman,serif" font-size="35.00">R265</text>
</a>
</g>
</g>
<!-- R13 -->
<g id="node2" class="node">
<title>R13</title>
<g id="a_node2"><a xlink:href="13.svg" xlink:title="R13">
<polygon fill="azure" stroke="none" points="1297,-168.26 1221,-168.26 1221,-121.26 1297,-121.26 1297,-168.26"/>
<text text-anchor="middle" x="1259" y="-136.26" font-family="Times New Roman,serif" font-size="35.00">R13</text>
</a>
</g>
</g>
<!-- R265&#45;&gt;R13 -->
<g id="edge1" class="edge">
<title>R265&#45;&gt;R13</title>
<path fill="none" stroke="black" stroke-width="6" d="M699.83,-121.48C702.92,-121.97 706,-122.4 709,-122.76 887.32,-144.03 1100.27,-145.91 1200.48,-145.42"/>
<polygon fill="black" stroke="black" stroke-width="6" points="1195.29,-155.91 1215.22,-145.27 1195.15,-134.91 1195.29,-155.91"/>
<text text-anchor="middle" x="956" y="-153.76" font-family="Times New Roman,serif" font-size="30.00"> &#160;&#160;361 &#160;&#160;100% &#160;&#160;11400.0 mol/s &#160;&#160;&#160;3.76E&#45;11</text>
</g>
<!-- R86 -->
<g id="node3" class="node">
<title>R86</title>
<g id="a_node3"><a xlink:href="86.svg" xlink:title="R86">
<polygon fill="azure" stroke="none" points="1297,-103.26 1221,-103.26 1221,-56.26 1297,-56.26 1297,-103.26"/>
<text text-anchor="middle" x="1259" y="-71.26" font-family="Times New Roman,serif" font-size="35.00">R86</text>
</a>
</g>
</g>
<!-- R265&#45;&gt;R86 -->
<g id="edge2" class="edge">
<title>R265&#45;&gt;R86</title>
<path fill="none" stroke="black" stroke-width="6" d="M699.84,-92.02C702.91,-91.14 705.98,-90.37 709,-89.76 885.13,-54.17 1099.53,-65.57 1200.35,-74.05"/>
<polygon fill="black" stroke="black" stroke-width="6" points="1194.36,-84.6 1215.21,-75.91 1196.22,-63.68 1194.36,-84.6"/>
<text text-anchor="middle" x="956" y="-98.76" font-family="Times New Roman,serif" font-size="30.00"> &#160;&#160;361 &#160;&#160;100% &#160;&#160;11400.0 mol/s &#160;&#160;&#160;3.76E&#45;11</text>
</g>
<!-- R268 -->
<g id="node4" class="node">
<title>R268</title>
<g id="a_node4"><a xlink:href="268.svg" xlink:title="R268">
<polygon fill="azure" stroke="none" points="94,-191.26 0,-191.26 0,-144.26 94,-144.26 94,-191.26"/>
<text text-anchor="middle" x="47" y="-159.26" font-family="Times New Roman,serif" font-size="35.00">R268</text>
</a>
</g>
</g>
<!-- R268&#45;&gt;R265 -->
<g id="edge3" class="edge">
<title>R268&#45;&gt;R265</title>
<path fill="none" stroke="black" d="M93.77,-173.59C189.64,-184.16 417.53,-200.66 597,-145.76 601.59,-144.35 606.19,-142.47 610.65,-140.3"/>
<polygon fill="black" stroke="black" points="612.02,-143 619.18,-135.19 608.71,-136.84 612.02,-143"/>
<text text-anchor="middle" x="350" y="-192.76" font-family="Times New Roman,serif" font-size="30.00"> &#160;&#160;833 &#160;&#160;0% &#160;&#160;1.16e&#45;05 mol/s &#160;&#160;&#160;3.44E&#45;02</text>
</g>
<!-- R394 -->
<g id="node5" class="node">
<title>R394</title>
<g id="a_node5"><a xlink:href="394.svg" xlink:title="R394">
<polygon fill="azure" stroke="none" points="94,-103.26 0,-103.26 0,-56.26 94,-56.26 94,-103.26"/>
<text text-anchor="middle" x="47" y="-71.26" font-family="Times New Roman,serif" font-size="35.00">R394</text>
</a>
</g>
</g>
<!-- R394&#45;&gt;R265 -->
<g id="edge4" class="edge">
<title>R394&#45;&gt;R265</title>
<path fill="none" stroke="black" stroke-width="5" d="M93.85,-88.59C96.94,-89.03 100.01,-89.43 103,-89.76 276.31,-108.89 482.03,-111.92 585.51,-112.08"/>
<polygon fill="black" stroke="black" stroke-width="5" points="580.29,-120.83 600.29,-112.08 580.29,-103.33 580.29,-120.83"/>
<text text-anchor="middle" x="350" y="-120.76" font-family="Times New Roman,serif" font-size="30.00"> &#160;&#160;965 &#160;&#160;99% &#160;&#160;0.51 mol/s &#160;&#160;&#160;1.28E&#45;03</text>
</g>
<!-- R394&#45;&gt;R265 -->
<g id="edge5" class="edge">
<title>R394&#45;&gt;R265</title>
<path fill="none" stroke="black" d="M91.16,-56.35C95.08,-54.91 99.06,-53.67 103,-52.76 316.86,-3.09 395.66,34.81 597,-52.76 610.27,-58.53 621.8,-69.26 630.82,-80"/>
<polygon fill="black" stroke="black" points="628.57,-81.82 637.5,-87.53 634.08,-77.5 628.57,-81.82"/>
<text text-anchor="middle" x="350" y="-61.76" font-family="Times New Roman,serif" font-size="30.00"> &#160;&#160;1052 &#160;&#160;0% &#160;&#160;0.000653 mol/s &#160;&#160;&#160;9.99E&#45;01</text>
</g>
</g>
</svg>
