<?xml version="1.0" encoding="UTF-8" standalone="no"?>
<!DOCTYPE svg PUBLIC "-//W3C//DTD SVG 1.1//EN"
 "http://www.w3.org/Graphics/SVG/1.1/DTD/svg11.dtd">
<!-- Generated by graphviz version 8.0.3 (20230416.2022)
 -->
<!-- Title: G Pages: 1 -->
<svg width="640pt" height="175pt"
 viewBox="0.00 0.00 720.00 196.81" xmlns="http://www.w3.org/2000/svg" xmlns:xlink="http://www.w3.org/1999/xlink">
<g id="graph0" class="graph" transform="scale(0.490421 0.490421) rotate(0) translate(4 352.71)">
<title>G</title>
<polygon fill="white" stroke="none" points="-4,4 -4,-352.71 1301,-352.71 1301,4 -4,4"/>
<text text-anchor="middle" x="648.5" y="-315.91" font-family="Arial" font-size="36.00" fill="blue">Reaction Path Analysis</text>
<!-- R272 -->
<g id="node1" class="node">
<title>R272</title>
<g id="a_node1"><a xlink:href="272.svg" xlink:title="R272">
<polygon fill="azure" stroke="none" points="700,-163.21 606,-163.21 606,-116.21 700,-116.21 700,-163.21"/>
<text text-anchor="middle" x="653" y="-131.21" font-family="Times New Roman,serif" font-size="35.00">R272</text>
</a>
</g>
</g>
<!-- R13 -->
<g id="node2" class="node">
<title>R13</title>
<g id="a_node2"><a xlink:href="13.svg" xlink:title="R13">
<polygon fill="azure" stroke="none" points="1297,-261.21 1221,-261.21 1221,-214.21 1297,-214.21 1297,-261.21"/>
<text text-anchor="middle" x="1259" y="-229.21" font-family="Times New Roman,serif" font-size="35.00">R13</text>
</a>
</g>
</g>
<!-- R272&#45;&gt;R13 -->
<g id="edge1" class="edge">
<title>R272&#45;&gt;R13</title>
<path fill="none" stroke="black" stroke-width="5" d="M665.41,-162.99C674.72,-179.19 689.51,-199.62 709,-209.71 870.79,-293.51 1096.61,-267.89 1200.97,-249.45"/>
<polygon fill="black" stroke="black" stroke-width="5" points="1197.26,-258.93 1215.33,-246.67 1194.06,-241.72 1197.26,-258.93"/>
<text text-anchor="middle" x="956" y="-276.71" font-family="Times New Roman,serif" font-size="30.00"> &#160;&#160;368 &#160;&#160;98% &#160;&#160;990000.0 mol/s &#160;&#160;&#160;4.32E&#45;13</text>
</g>
<!-- R89 -->
<g id="node3" class="node">
<title>R89</title>
<g id="a_node3"><a xlink:href="89.svg" xlink:title="R89">
<polygon fill="azure" stroke="none" points="1297,-196.21 1221,-196.21 1221,-149.21 1297,-149.21 1297,-196.21"/>
<text text-anchor="middle" x="1259" y="-164.21" font-family="Times New Roman,serif" font-size="35.00">R89</text>
</a>
</g>
</g>
<!-- R272&#45;&gt;R89 -->
<g id="edge2" class="edge">
<title>R272&#45;&gt;R89</title>
<path fill="none" stroke="black" stroke-width="5" d="M699.83,-149.44C702.92,-149.92 706,-150.36 709,-150.71 887.32,-171.98 1100.27,-173.87 1200.48,-173.38"/>
<polygon fill="black" stroke="black" stroke-width="5" points="1195.28,-182.12 1215.22,-173.23 1195.16,-164.62 1195.28,-182.12"/>
<text text-anchor="middle" x="956" y="-181.71" font-family="Times New Roman,serif" font-size="30.00"> &#160;&#160;368 &#160;&#160;98% &#160;&#160;990000.0 mol/s &#160;&#160;&#160;4.32E&#45;13</text>
</g>
<!-- R14 -->
<g id="node4" class="node">
<title>R14</title>
<g id="a_node4"><a xlink:href="14.svg" xlink:title="R14">
<polygon fill="azure" stroke="none" points="1297,-131.21 1221,-131.21 1221,-84.21 1297,-84.21 1297,-131.21"/>
<text text-anchor="middle" x="1259" y="-99.21" font-family="Times New Roman,serif" font-size="35.00">R14</text>
</a>
</g>
</g>
<!-- R272&#45;&gt;R14 -->
<g id="edge3" class="edge">
<title>R272&#45;&gt;R14</title>
<path fill="none" stroke="black" d="M699.84,-119.98C702.91,-119.09 705.98,-118.32 709,-117.71 891.23,-80.89 1114.44,-94.37 1210.42,-102.88"/>
<polygon fill="black" stroke="black" points="1209.94,-106.44 1220.21,-103.86 1210.57,-99.47 1209.94,-106.44"/>
<text text-anchor="middle" x="956" y="-126.71" font-family="Times New Roman,serif" font-size="30.00"> &#160;&#160;401 &#160;&#160;1% &#160;&#160;10400.0 mol/s &#160;&#160;&#160;4.10E&#45;11</text>
</g>
<!-- R86 -->
<g id="node5" class="node">
<title>R86</title>
<g id="a_node5"><a xlink:href="86.svg" xlink:title="R86">
<polygon fill="azure" stroke="none" points="1297,-66.21 1221,-66.21 1221,-19.21 1297,-19.21 1297,-66.21"/>
<text text-anchor="middle" x="1259" y="-34.21" font-family="Times New Roman,serif" font-size="35.00">R86</text>
</a>
</g>
</g>
<!-- R272&#45;&gt;R86 -->
<g id="edge4" class="edge">
<title>R272&#45;&gt;R86</title>
<path fill="none" stroke="black" d="M662.31,-116.44C670.73,-96.67 685.86,-69.52 709,-56.71 873.63,34.41 1110.7,-6.64 1210.68,-30.23"/>
<polygon fill="black" stroke="black" points="1209.79,-33.86 1220.34,-32.8 1211.44,-27.06 1209.79,-33.86"/>
<text text-anchor="middle" x="956" y="-65.71" font-family="Times New Roman,serif" font-size="30.00"> &#160;&#160;401 &#160;&#160;1% &#160;&#160;10400.0 mol/s &#160;&#160;&#160;4.10E&#45;11</text>
</g>
<!-- R396 -->
<g id="node6" class="node">
<title>R396</title>
<g id="a_node6"><a xlink:href="396.svg" xlink:title="R396">
<polygon fill="azure" stroke="none" points="94,-163.21 0,-163.21 0,-116.21 94,-116.21 94,-163.21"/>
<text text-anchor="middle" x="47" y="-131.21" font-family="Times New Roman,serif" font-size="35.00">R396</text>
</a>
</g>
</g>
<!-- R396&#45;&gt;R272 -->
<g id="edge5" class="edge">
<title>R396&#45;&gt;R272</title>
<path fill="none" stroke="black" stroke-width="5" d="M93.89,-145.1C96.97,-145.34 100.03,-145.55 103,-145.71 315.38,-157.26 374.14,-157.62 585.2,-146.23"/>
<polygon fill="black" stroke="black" stroke-width="5" points="580.62,-154.92 600.11,-145.1 579.67,-137.45 580.62,-154.92"/>
<text text-anchor="middle" x="350" y="-162.71" font-family="Times New Roman,serif" font-size="30.00"> &#160;&#160;968 &#160;&#160;99% &#160;&#160;0.529 mol/s &#160;&#160;&#160;1.23E&#45;03</text>
</g>
<!-- R396&#45;&gt;R272 -->
<g id="edge6" class="edge">
<title>R396&#45;&gt;R272</title>
<path fill="none" stroke="black" d="M83.56,-116.26C89.81,-113.15 96.43,-110.44 103,-108.71 315.37,-52.99 384.63,-52.99 597,-108.71 600.18,-109.55 603.38,-110.61 606.54,-111.85"/>
<polygon fill="black" stroke="black" points="604.88,-115.39 615.44,-116.26 607.73,-108.99 604.88,-115.39"/>
<text text-anchor="middle" x="350" y="-117.71" font-family="Times New Roman,serif" font-size="30.00"> &#160;&#160;1055 &#160;&#160;0% &#160;&#160;0.000653 mol/s &#160;&#160;&#160;9.99E&#45;01</text>
</g>
</g>
</svg>
