<?xml version="1.0" encoding="UTF-8" standalone="no"?>
<!DOCTYPE svg PUBLIC "-//W3C//DTD SVG 1.1//EN"
 "http://www.w3.org/Graphics/SVG/1.1/DTD/svg11.dtd">
<!-- Generated by graphviz version 8.0.3 (20230416.2022)
 -->
<!-- Title: G Pages: 1 -->
<svg width="636pt" height="391pt"
 viewBox="0.00 0.00 716.00 439.56" xmlns="http://www.w3.org/2000/svg" xmlns:xlink="http://www.w3.org/1999/xlink">
<g id="graph0" class="graph" transform="scale(0.888889 0.888889) rotate(0) translate(4 435.56)">
<title>G</title>
<polygon fill="white" stroke="none" points="-4,4 -4,-435.56 712,-435.56 712,4 -4,4"/>
<text text-anchor="middle" x="354" y="-398.76" font-family="Arial" font-size="36.00" fill="blue">Reaction Path Analysis</text>
<!-- R279 -->
<g id="node1" class="node">
<title>R279</title>
<g id="a_node1"><a xlink:href="279.svg" xlink:title="R279">
<polygon fill="azure" stroke="none" points="708,-200.06 614,-200.06 614,-153.06 708,-153.06 708,-200.06"/>
<text text-anchor="middle" x="661" y="-168.06" font-family="Times New Roman,serif" font-size="35.00">R279</text>
</a>
</g>
</g>
<!-- R17 -->
<g id="node2" class="node">
<title>R17</title>
<g id="a_node2"><a xlink:href="17.svg" xlink:title="R17">
<polygon fill="azure" stroke="none" points="85,-358.06 9,-358.06 9,-311.06 85,-311.06 85,-358.06"/>
<text text-anchor="middle" x="47" y="-326.06" font-family="Times New Roman,serif" font-size="35.00">R17</text>
</a>
</g>
</g>
<!-- R17&#45;&gt;R279 -->
<g id="edge1" class="edge">
<title>R17&#45;&gt;R279</title>
<path fill="none" stroke="black" d="M84.66,-338.1C194.94,-348 521.19,-371.51 605,-312.56 637.98,-289.37 651.21,-242.84 656.49,-210.72"/>
<polygon fill="black" stroke="black" points="660.08,-211.42 658.05,-201.02 653.15,-210.41 660.08,-211.42"/>
<text text-anchor="middle" x="354" y="-359.56" font-family="Times New Roman,serif" font-size="30.00"> &#160;&#160;377 &#160;&#160;0% &#160;&#160;3.23e&#45;07 mol/s &#160;&#160;&#160;8.03E&#45;01</text>
</g>
<!-- R14 -->
<g id="node3" class="node">
<title>R14</title>
<g id="a_node3"><a xlink:href="14.svg" xlink:title="R14">
<polygon fill="azure" stroke="none" points="85,-293.06 9,-293.06 9,-246.06 85,-246.06 85,-293.06"/>
<text text-anchor="middle" x="47" y="-261.06" font-family="Times New Roman,serif" font-size="35.00">R14</text>
</a>
</g>
</g>
<!-- R14&#45;&gt;R279 -->
<g id="edge2" class="edge">
<title>R14&#45;&gt;R279</title>
<path fill="none" stroke="black" d="M84.69,-271.35C193.62,-276.07 513.19,-285.65 605,-240.56 619.39,-233.5 631.53,-220.78 640.71,-208.53"/>
<polygon fill="black" stroke="black" points="643.97,-210.97 646.86,-200.78 638.25,-206.95 643.97,-210.97"/>
<text text-anchor="middle" x="354" y="-284.56" font-family="Times New Roman,serif" font-size="30.00"> &#160;&#160;377 &#160;&#160;0% &#160;&#160;3.23e&#45;07 mol/s &#160;&#160;&#160;8.03E&#45;01</text>
</g>
<!-- R0 -->
<g id="node4" class="node">
<title>R0</title>
<g id="a_node4"><a xlink:href="0.svg" xlink:title="R0">
<polygon fill="azure" stroke="none" points="76,-228.06 18,-228.06 18,-181.06 76,-181.06 76,-228.06"/>
<text text-anchor="middle" x="47" y="-196.06" font-family="Times New Roman,serif" font-size="35.00">R0</text>
</a>
</g>
</g>
<!-- R0&#45;&gt;R279 -->
<g id="edge3" class="edge">
<title>R0&#45;&gt;R279</title>
<path fill="none" stroke="black" d="M75.86,-204.15C155.96,-202.8 394,-197.78 603.22,-182.61"/>
<polygon fill="black" stroke="black" points="603.39,-186.04 613.11,-181.81 602.88,-179.05 603.39,-186.04"/>
<text text-anchor="middle" x="354" y="-212.56" font-family="Times New Roman,serif" font-size="30.00"> &#160;&#160;522 &#160;&#160;0% &#160;&#160;1.58e&#45;07 mol/s &#160;&#160;&#160;6.13E&#45;01</text>
</g>
<!-- R243 -->
<g id="node5" class="node">
<title>R243</title>
<g id="a_node5"><a xlink:href="243.svg" xlink:title="R243">
<polygon fill="azure" stroke="none" points="94,-163.06 0,-163.06 0,-116.06 94,-116.06 94,-163.06"/>
<text text-anchor="middle" x="47" y="-131.06" font-family="Times New Roman,serif" font-size="35.00">R243</text>
</a>
</g>
</g>
<!-- R243&#45;&gt;R279 -->
<g id="edge4" class="edge">
<title>R243&#45;&gt;R279</title>
<path fill="none" stroke="black" d="M93.69,-137.15C208.95,-131.52 509.14,-119.86 605,-145.56 608.18,-146.42 611.37,-147.5 614.52,-148.74"/>
<polygon fill="black" stroke="black" points="612.87,-152.28 623.42,-153.17 615.73,-145.89 612.87,-152.28"/>
<text text-anchor="middle" x="354" y="-154.56" font-family="Times New Roman,serif" font-size="30.00"> &#160;&#160;522 &#160;&#160;0% &#160;&#160;1.58e&#45;07 mol/s &#160;&#160;&#160;6.13E&#45;01</text>
</g>
<!-- R361 -->
<g id="node6" class="node">
<title>R361</title>
<g id="a_node6"><a xlink:href="361.svg" xlink:title="R361">
<polygon fill="azure" stroke="none" points="94,-79.06 0,-79.06 0,-32.06 94,-32.06 94,-79.06"/>
<text text-anchor="middle" x="47" y="-47.06" font-family="Times New Roman,serif" font-size="35.00">R361</text>
</a>
</g>
</g>
<!-- R361&#45;&gt;R279 -->
<g id="edge5" class="edge">
<title>R361&#45;&gt;R279</title>
<path fill="none" stroke="black" stroke-width="5" d="M93.75,-68.86C96.86,-69.51 99.97,-70.09 103,-70.56 158.16,-79.19 556.48,-64.95 605,-92.56 621.48,-101.94 633.88,-118.52 642.7,-134.48"/>
<polygon fill="black" stroke="black" stroke-width="5" points="633.13,-133.92 649.71,-148.12 648.89,-126.31 633.13,-133.92"/>
<text text-anchor="middle" x="354" y="-101.56" font-family="Times New Roman,serif" font-size="30.00"> &#160;&#160;971 &#160;&#160;99% &#160;&#160;18.2 mol/s &#160;&#160;&#160;3.60E&#45;05</text>
</g>
<!-- R361&#45;&gt;R279 -->
<g id="edge6" class="edge">
<title>R361&#45;&gt;R279</title>
<path fill="none" stroke="black" d="M93.83,-35.76C96.9,-34.9 99.97,-34.15 103,-33.56 212.54,-12.47 513.04,29.59 605,-33.56 640.36,-57.85 653,-108.29 657.51,-142.29"/>
<polygon fill="black" stroke="black" points="654.13,-142.59 658.74,-152.13 661.09,-141.8 654.13,-142.59"/>
<text text-anchor="middle" x="354" y="-42.56" font-family="Times New Roman,serif" font-size="30.00"> &#160;&#160;1028 &#160;&#160;0% &#160;&#160;0.000654 mol/s &#160;&#160;&#160;1.00E+00</text>
</g>
</g>
</svg>
