<?xml version="1.0" encoding="UTF-8" standalone="no"?>
<!DOCTYPE svg PUBLIC "-//W3C//DTD SVG 1.1//EN"
 "http://www.w3.org/Graphics/SVG/1.1/DTD/svg11.dtd">
<!-- Generated by graphviz version 8.0.3 (20230416.2022)
 -->
<!-- Title: G Pages: 1 -->
<svg width="539pt" height="640pt"
 viewBox="0.00 0.00 605.98 720.00" xmlns="http://www.w3.org/2000/svg" xmlns:xlink="http://www.w3.org/1999/xlink">
<g id="graph0" class="graph" transform="scale(0.42247 0.42247) rotate(0) translate(4 1510.9)">
<title>G</title>
<polygon fill="white" stroke="none" points="-4,4 -4,-1510.9 1271,-1510.9 1271,4 -4,4"/>
<text text-anchor="middle" x="633.5" y="-1474.1" font-family="Arial" font-size="36.00" fill="blue">Reaction Path Analysis</text>
<!-- R28 -->
<g id="node1" class="node">
<title>R28</title>
<g id="a_node1"><a xlink:href="28.svg" xlink:title="R28">
<polygon fill="azure" stroke="none" points="676,-745.4 600,-745.4 600,-698.4 676,-698.4 676,-745.4"/>
<text text-anchor="middle" x="638" y="-713.4" font-family="Times New Roman,serif" font-size="35.00">R28</text>
</a>
</g>
</g>
<!-- R1 -->
<g id="node2" class="node">
<title>R1</title>
<g id="a_node2"><a xlink:href="1.svg" xlink:title="R1">
<polygon fill="azure" stroke="none" points="1258,-870.4 1200,-870.4 1200,-823.4 1258,-823.4 1258,-870.4"/>
<text text-anchor="middle" x="1229" y="-838.4" font-family="Times New Roman,serif" font-size="35.00">R1</text>
</a>
</g>
</g>
<!-- R28&#45;&gt;R1 -->
<g id="edge1" class="edge">
<title>R28&#45;&gt;R1</title>
<path fill="none" stroke="black" d="M642.92,-745.04C648.29,-768.76 660.41,-804.55 686.5,-821.9 846.32,-928.15 1095.13,-880.99 1189.74,-857.41"/>
<polygon fill="black" stroke="black" points="1190.41,-860.59 1199.23,-854.73 1188.68,-853.81 1190.41,-860.59"/>
<text text-anchor="middle" x="933.5" y="-896.9" font-family="Times New Roman,serif" font-size="30.00"> &#160;&#160;33 &#160;&#160;5% &#160;&#160;8.39e&#45;05 mol/s &#160;&#160;&#160;5.05E&#45;03</text>
</g>
<!-- R14 -->
<g id="node3" class="node">
<title>R14</title>
<g id="a_node3"><a xlink:href="14.svg" xlink:title="R14">
<polygon fill="azure" stroke="none" points="1267,-805.4 1191,-805.4 1191,-758.4 1267,-758.4 1267,-805.4"/>
<text text-anchor="middle" x="1229" y="-773.4" font-family="Times New Roman,serif" font-size="35.00">R14</text>
</a>
</g>
</g>
<!-- R28&#45;&gt;R14 -->
<g id="edge2" class="edge">
<title>R28&#45;&gt;R14</title>
<path fill="none" stroke="black" d="M663.94,-745.19C670.78,-750.29 678.52,-755.02 686.5,-757.9 776.55,-790.4 1065.54,-786.4 1180.34,-783.39"/>
<polygon fill="black" stroke="black" points="1180.31,-786.86 1190.21,-783.09 1180.12,-779.87 1180.31,-786.86"/>
<text text-anchor="middle" x="933.5" y="-793.9" font-family="Times New Roman,serif" font-size="30.00"> &#160;&#160;33 &#160;&#160;5% &#160;&#160;8.39e&#45;05 mol/s &#160;&#160;&#160;5.05E&#45;03</text>
</g>
<!-- R93 -->
<g id="node6" class="node">
<title>R93</title>
<g id="a_node6"><a xlink:href="93.svg" xlink:title="R93">
<polygon fill="azure" stroke="none" points="1267,-740.4 1191,-740.4 1191,-693.4 1267,-693.4 1267,-740.4"/>
<text text-anchor="middle" x="1229" y="-708.4" font-family="Times New Roman,serif" font-size="35.00">R93</text>
</a>
</g>
</g>
<!-- R28&#45;&gt;R93 -->
<g id="edge5" class="edge">
<title>R28&#45;&gt;R93</title>
<path fill="none" stroke="black" d="M675.84,-721.59C778.21,-720.72 1066.04,-718.27 1180.34,-717.3"/>
<polygon fill="black" stroke="black" points="1180.2,-720.8 1190.17,-717.21 1180.14,-713.8 1180.2,-720.8"/>
<text text-anchor="middle" x="933.5" y="-729.9" font-family="Times New Roman,serif" font-size="30.00"> &#160;&#160;115 &#160;&#160;0% &#160;&#160;4.27e&#45;07 mol/s &#160;&#160;&#160;9.98E&#45;01</text>
</g>
<!-- R41 -->
<g id="node26" class="node">
<title>R41</title>
<g id="a_node26"><a xlink:href="41.svg" xlink:title="R41">
<polygon fill="azure" stroke="none" points="1267,-656.4 1191,-656.4 1191,-609.4 1267,-609.4 1267,-656.4"/>
<text text-anchor="middle" x="1229" y="-624.4" font-family="Times New Roman,serif" font-size="35.00">R41</text>
</a>
</g>
</g>
<!-- R28&#45;&gt;R41 -->
<g id="edge25" class="edge">
<title>R28&#45;&gt;R41</title>
<path fill="none" stroke="black" stroke-width="2" d="M659.58,-698.43C667.27,-691.22 676.56,-684.08 686.5,-679.9 785.08,-638.41 1055.75,-659.11 1180.5,-643.5"/>
<polygon fill="black" stroke="black" stroke-width="2" points="1179.6,-646.88 1189.03,-642.04 1178.64,-639.95 1179.6,-646.88"/>
<text text-anchor="middle" x="933.5" y="-688.9" font-family="Times New Roman,serif" font-size="30.00"> &#160;&#160;433 &#160;&#160;25% &#160;&#160;0.000412 mol/s &#160;&#160;&#160;7.30E&#45;01</text>
</g>
<!-- R28&#45;&gt;R41 -->
<g id="edge26" class="edge">
<title>R28&#45;&gt;R41</title>
<path fill="none" stroke="black" stroke-width="4" d="M641.15,-698.6C645.05,-671.33 655.98,-627.32 686.5,-606.9 863.38,-488.58 961.63,-548.51 1170.86,-605.11"/>
<polygon fill="black" stroke="black" stroke-width="4" points="1165,-611.12 1186.13,-609.48 1168.59,-597.59 1165,-611.12"/>
<text text-anchor="middle" x="933.5" y="-615.9" font-family="Times New Roman,serif" font-size="30.00"> &#160;&#160;437 &#160;&#160;69% &#160;&#160;0.00112 mol/s &#160;&#160;&#160;2.70E&#45;01</text>
</g>
<!-- R0 -->
<g id="node4" class="node">
<title>R0</title>
<g id="a_node4"><a xlink:href="0.svg" xlink:title="R0">
<polygon fill="azure" stroke="none" points="76,-1395.4 18,-1395.4 18,-1348.4 76,-1348.4 76,-1395.4"/>
<text text-anchor="middle" x="47" y="-1363.4" font-family="Times New Roman,serif" font-size="35.00">R0</text>
</a>
</g>
</g>
<!-- R0&#45;&gt;R28 -->
<g id="edge3" class="edge">
<title>R0&#45;&gt;R28</title>
<path fill="none" stroke="black" d="M75.76,-1381.44C163.8,-1409.76 439.32,-1483.09 582,-1345.9 624.76,-1304.78 634.58,-880.47 636.55,-756.03"/>
<polygon fill="black" stroke="black" points="640.06,-756.32 636.72,-746.27 633.07,-756.21 640.06,-756.32"/>
<text text-anchor="middle" x="342.5" y="-1434.9" font-family="Times New Roman,serif" font-size="30.00"> &#160;&#160;112 &#160;&#160;0% &#160;&#160;4.17e&#45;07 mol/s &#160;&#160;&#160;9.75E&#45;01</text>
</g>
<!-- R26 -->
<g id="node5" class="node">
<title>R26</title>
<g id="a_node5"><a xlink:href="26.svg" xlink:title="R26">
<polygon fill="azure" stroke="none" points="85,-1330.4 9,-1330.4 9,-1283.4 85,-1283.4 85,-1330.4"/>
<text text-anchor="middle" x="47" y="-1298.4" font-family="Times New Roman,serif" font-size="35.00">R26</text>
</a>
</g>
</g>
<!-- R26&#45;&gt;R28 -->
<g id="edge4" class="edge">
<title>R26&#45;&gt;R28</title>
<path fill="none" stroke="black" d="M84.7,-1307.82C199.48,-1310.33 546.16,-1315.01 582,-1280.9 620.15,-1244.59 633.08,-871.4 636.19,-755.83"/>
<polygon fill="black" stroke="black" points="639.7,-756.25 636.47,-746.16 632.71,-756.07 639.7,-756.25"/>
<text text-anchor="middle" x="342.5" y="-1317.9" font-family="Times New Roman,serif" font-size="30.00"> &#160;&#160;112 &#160;&#160;0% &#160;&#160;4.17e&#45;07 mol/s &#160;&#160;&#160;9.75E&#45;01</text>
</g>
<!-- R94 -->
<g id="node7" class="node">
<title>R94</title>
<g id="a_node7"><a xlink:href="94.svg" xlink:title="R94">
<polygon fill="azure" stroke="none" points="85,-1265.4 9,-1265.4 9,-1218.4 85,-1218.4 85,-1265.4"/>
<text text-anchor="middle" x="47" y="-1233.4" font-family="Times New Roman,serif" font-size="35.00">R94</text>
</a>
</g>
</g>
<!-- R94&#45;&gt;R28 -->
<g id="edge6" class="edge">
<title>R94&#45;&gt;R28</title>
<path fill="none" stroke="black" d="M84.68,-1242.8C199.41,-1245.26 545.94,-1249.78 582,-1215.9 615.52,-1184.4 631.36,-862.65 635.71,-756.02"/>
<polygon fill="black" stroke="black" points="639.24,-756.38 636.15,-746.25 632.25,-756.1 639.24,-756.38"/>
<text text-anchor="middle" x="342.5" y="-1252.9" font-family="Times New Roman,serif" font-size="30.00"> &#160;&#160;116 &#160;&#160;0% &#160;&#160;2.42e&#45;06 mol/s &#160;&#160;&#160;1.31E&#45;01</text>
</g>
<!-- R121 -->
<g id="node8" class="node">
<title>R121</title>
<g id="a_node8"><a xlink:href="121.svg" xlink:title="R121">
<polygon fill="azure" stroke="none" points="94,-1200.4 0,-1200.4 0,-1153.4 94,-1153.4 94,-1200.4"/>
<text text-anchor="middle" x="47" y="-1168.4" font-family="Times New Roman,serif" font-size="35.00">R121</text>
</a>
</g>
</g>
<!-- R121&#45;&gt;R28 -->
<g id="edge7" class="edge">
<title>R121&#45;&gt;R28</title>
<path fill="none" stroke="black" d="M93.99,-1177.87C216.99,-1180.03 546.62,-1182.65 582,-1149.9 610.83,-1123.22 629.33,-853 635.08,-756.18"/>
<polygon fill="black" stroke="black" points="638.63,-756.45 635.72,-746.26 631.64,-756.04 638.63,-756.45"/>
<text text-anchor="middle" x="342.5" y="-1187.9" font-family="Times New Roman,serif" font-size="30.00"> &#160;&#160;172 &#160;&#160;0% &#160;&#160;1.23e&#45;06 mol/s &#160;&#160;&#160;2.05E&#45;01</text>
</g>
<!-- R122 -->
<g id="node9" class="node">
<title>R122</title>
<g id="a_node9"><a xlink:href="122.svg" xlink:title="R122">
<polygon fill="azure" stroke="none" points="94,-1135.4 0,-1135.4 0,-1088.4 94,-1088.4 94,-1135.4"/>
<text text-anchor="middle" x="47" y="-1103.4" font-family="Times New Roman,serif" font-size="35.00">R122</text>
</a>
</g>
</g>
<!-- R122&#45;&gt;R28 -->
<g id="edge8" class="edge">
<title>R122&#45;&gt;R28</title>
<path fill="none" stroke="black" d="M93.95,-1112.83C216.85,-1114.87 546.25,-1117.25 582,-1084.9 630.03,-1041.44 636.46,-838.22 637.07,-756.28"/>
<polygon fill="black" stroke="black" points="640.58,-756.34 637.13,-746.33 633.58,-756.31 640.58,-756.34"/>
<text text-anchor="middle" x="342.5" y="-1121.9" font-family="Times New Roman,serif" font-size="30.00"> &#160;&#160;173 &#160;&#160;0% &#160;&#160;0.00147 mol/s &#160;&#160;&#160;2.91E&#45;04</text>
</g>
<!-- R123 -->
<g id="node10" class="node">
<title>R123</title>
<g id="a_node10"><a xlink:href="123.svg" xlink:title="R123">
<polygon fill="azure" stroke="none" points="94,-1070.4 0,-1070.4 0,-1023.4 94,-1023.4 94,-1070.4"/>
<text text-anchor="middle" x="47" y="-1038.4" font-family="Times New Roman,serif" font-size="35.00">R123</text>
</a>
</g>
</g>
<!-- R123&#45;&gt;R28 -->
<g id="edge9" class="edge">
<title>R123&#45;&gt;R28</title>
<path fill="none" stroke="black" d="M93.89,-1047.77C216.65,-1049.66 545.74,-1051.67 582,-1019.9 621.08,-985.67 632.6,-826.88 635.82,-756.1"/>
<polygon fill="black" stroke="black" points="639.36,-756.28 636.28,-746.14 632.36,-755.98 639.36,-756.28"/>
<text text-anchor="middle" x="342.5" y="-1056.9" font-family="Times New Roman,serif" font-size="30.00"> &#160;&#160;174 &#160;&#160;0% &#160;&#160;1.98 mol/s &#160;&#160;&#160;2.15E&#45;07</text>
</g>
<!-- R184 -->
<g id="node11" class="node">
<title>R184</title>
<g id="a_node11"><a xlink:href="184.svg" xlink:title="R184">
<polygon fill="azure" stroke="none" points="94,-1005.4 0,-1005.4 0,-958.4 94,-958.4 94,-1005.4"/>
<text text-anchor="middle" x="47" y="-973.4" font-family="Times New Roman,serif" font-size="35.00">R184</text>
</a>
</g>
</g>
<!-- R184&#45;&gt;R28 -->
<g id="edge10" class="edge">
<title>R184&#45;&gt;R28</title>
<path fill="none" stroke="black" d="M93.81,-982.58C216.37,-983.98 544.97,-984.78 582,-953.9 612.02,-928.86 627.69,-814.44 633.83,-756.19"/>
<polygon fill="black" stroke="black" points="637.41,-756.64 634.94,-746.33 630.44,-755.93 637.41,-756.64"/>
<text text-anchor="middle" x="342.5" y="-991.9" font-family="Times New Roman,serif" font-size="30.00"> &#160;&#160;243 &#160;&#160;0% &#160;&#160;7.51e&#45;05 mol/s &#160;&#160;&#160;5.63E&#45;03</text>
</g>
<!-- R135 -->
<g id="node12" class="node">
<title>R135</title>
<g id="a_node12"><a xlink:href="135.svg" xlink:title="R135">
<polygon fill="azure" stroke="none" points="94,-940.4 0,-940.4 0,-893.4 94,-893.4 94,-940.4"/>
<text text-anchor="middle" x="47" y="-908.4" font-family="Times New Roman,serif" font-size="35.00">R135</text>
</a>
</g>
</g>
<!-- R135&#45;&gt;R28 -->
<g id="edge11" class="edge">
<title>R135&#45;&gt;R28</title>
<path fill="none" stroke="black" d="M93.68,-917.41C215.88,-918.37 543.69,-918.18 582,-888.9 622.84,-857.69 633.75,-795.29 636.43,-756.23"/>
<polygon fill="black" stroke="black" points="639.97,-756.57 637.01,-746.4 632.98,-756.2 639.97,-756.57"/>
<text text-anchor="middle" x="342.5" y="-925.9" font-family="Times New Roman,serif" font-size="30.00"> &#160;&#160;244 &#160;&#160;0% &#160;&#160;0.000714 mol/s &#160;&#160;&#160;5.98E&#45;04</text>
</g>
<!-- R185 -->
<g id="node13" class="node">
<title>R185</title>
<g id="a_node13"><a xlink:href="185.svg" xlink:title="R185">
<polygon fill="azure" stroke="none" points="94,-875.4 0,-875.4 0,-828.4 94,-828.4 94,-875.4"/>
<text text-anchor="middle" x="47" y="-843.4" font-family="Times New Roman,serif" font-size="35.00">R185</text>
</a>
</g>
</g>
<!-- R185&#45;&gt;R28 -->
<g id="edge12" class="edge">
<title>R185&#45;&gt;R28</title>
<path fill="none" stroke="black" d="M93.86,-852.14C215.76,-852.41 541.34,-850.7 582,-824.9 606.34,-809.45 620.61,-779.38 628.49,-755.7"/>
<polygon fill="black" stroke="black" points="632.08,-756.93 631.67,-746.34 625.39,-754.87 632.08,-756.93"/>
<text text-anchor="middle" x="342.5" y="-860.9" font-family="Times New Roman,serif" font-size="30.00"> &#160;&#160;245 &#160;&#160;10% &#160;&#160;77.2 mol/s &#160;&#160;&#160;5.54E&#45;09</text>
</g>
<!-- R220 -->
<g id="node14" class="node">
<title>R220</title>
<g id="a_node14"><a xlink:href="220.svg" xlink:title="R220">
<polygon fill="azure" stroke="none" points="94,-810.4 0,-810.4 0,-763.4 94,-763.4 94,-810.4"/>
<text text-anchor="middle" x="47" y="-778.4" font-family="Times New Roman,serif" font-size="35.00">R220</text>
</a>
</g>
</g>
<!-- R220&#45;&gt;R28 -->
<g id="edge13" class="edge">
<title>R220&#45;&gt;R28</title>
<path fill="none" stroke="black" d="M93.62,-787.61C205.72,-788.86 492.07,-788.93 582,-758.9 587.94,-756.91 593.85,-754.1 599.46,-750.9"/>
<polygon fill="black" stroke="black" points="600.94,-753.48 607.58,-745.22 597.24,-747.53 600.94,-753.48"/>
<text text-anchor="middle" x="342.5" y="-796.9" font-family="Times New Roman,serif" font-size="30.00"> &#160;&#160;286 &#160;&#160;0% &#160;&#160;8.4e&#45;06 mol/s &#160;&#160;&#160;4.62E&#45;02</text>
</g>
<!-- R145 -->
<g id="node15" class="node">
<title>R145</title>
<g id="a_node15"><a xlink:href="145.svg" xlink:title="R145">
<polygon fill="azure" stroke="none" points="94,-745.4 0,-745.4 0,-698.4 94,-698.4 94,-745.4"/>
<text text-anchor="middle" x="47" y="-713.4" font-family="Times New Roman,serif" font-size="35.00">R145</text>
</a>
</g>
</g>
<!-- R145&#45;&gt;R28 -->
<g id="edge14" class="edge">
<title>R145&#45;&gt;R28</title>
<path fill="none" stroke="black" d="M93.73,-721.9C202.96,-721.9 478.21,-721.9 589.36,-721.9"/>
<polygon fill="black" stroke="black" points="589.21,-725.4 599.21,-721.9 589.21,-718.4 589.21,-725.4"/>
<text text-anchor="middle" x="342.5" y="-730.9" font-family="Times New Roman,serif" font-size="30.00"> &#160;&#160;287 &#160;&#160;0% &#160;&#160;5.36e&#45;07 mol/s &#160;&#160;&#160;3.07E&#45;01</text>
</g>
<!-- R221 -->
<g id="node16" class="node">
<title>R221</title>
<g id="a_node16"><a xlink:href="221.svg" xlink:title="R221">
<polygon fill="azure" stroke="none" points="94,-680.4 0,-680.4 0,-633.4 94,-633.4 94,-680.4"/>
<text text-anchor="middle" x="47" y="-648.4" font-family="Times New Roman,serif" font-size="35.00">R221</text>
</a>
</g>
</g>
<!-- R221&#45;&gt;R28 -->
<g id="edge15" class="edge">
<title>R221&#45;&gt;R28</title>
<path fill="none" stroke="black" stroke-width="5" d="M93.81,-651.29C188.08,-641.47 409.41,-627.27 582,-684.9 584.9,-685.87 587.79,-687.03 590.64,-688.34"/>
<polygon fill="black" stroke="black" stroke-width="5" points="581.88,-693.27 603.58,-695.57 590.54,-678.07 581.88,-693.27"/>
<text text-anchor="middle" x="342.5" y="-693.9" font-family="Times New Roman,serif" font-size="30.00"> &#160;&#160;288 &#160;&#160;84% &#160;&#160;603.0 mol/s &#160;&#160;&#160;7.10E&#45;10</text>
</g>
<!-- R231 -->
<g id="node17" class="node">
<title>R231</title>
<g id="a_node17"><a xlink:href="231.svg" xlink:title="R231">
<polygon fill="azure" stroke="none" points="94,-615.4 0,-615.4 0,-568.4 94,-568.4 94,-615.4"/>
<text text-anchor="middle" x="47" y="-583.4" font-family="Times New Roman,serif" font-size="35.00">R231</text>
</a>
</g>
</g>
<!-- R231&#45;&gt;R28 -->
<g id="edge16" class="edge">
<title>R231&#45;&gt;R28</title>
<path fill="none" stroke="black" d="M93.66,-587.06C207.85,-575.88 502.38,-552.98 582,-604.9 610.38,-623.41 624.42,-660.77 631.15,-688.32"/>
<polygon fill="black" stroke="black" points="627.88,-688.7 633.47,-697.7 634.71,-687.18 627.88,-688.7"/>
<text text-anchor="middle" x="342.5" y="-613.9" font-family="Times New Roman,serif" font-size="30.00"> &#160;&#160;304 &#160;&#160;0% &#160;&#160;9.44e&#45;06 mol/s &#160;&#160;&#160;4.15E&#45;02</text>
</g>
<!-- R153 -->
<g id="node18" class="node">
<title>R153</title>
<g id="a_node18"><a xlink:href="153.svg" xlink:title="R153">
<polygon fill="azure" stroke="none" points="94,-550.4 0,-550.4 0,-503.4 94,-503.4 94,-550.4"/>
<text text-anchor="middle" x="47" y="-518.4" font-family="Times New Roman,serif" font-size="35.00">R153</text>
</a>
</g>
</g>
<!-- R153&#45;&gt;R28 -->
<g id="edge17" class="edge">
<title>R153&#45;&gt;R28</title>
<path fill="none" stroke="black" d="M93.71,-520.93C208.7,-506.93 506.24,-477.32 582,-534.9 606.37,-553.42 623.76,-639.15 631.87,-687.85"/>
<polygon fill="black" stroke="black" points="628.54,-688.19 633.59,-697.51 635.45,-687.08 628.54,-688.19"/>
<text text-anchor="middle" x="342.5" y="-543.9" font-family="Times New Roman,serif" font-size="30.00"> &#160;&#160;305 &#160;&#160;0% &#160;&#160;0.000691 mol/s &#160;&#160;&#160;6.18E&#45;04</text>
</g>
<!-- R249 -->
<g id="node19" class="node">
<title>R249</title>
<g id="a_node19"><a xlink:href="249.svg" xlink:title="R249">
<polygon fill="azure" stroke="none" points="94,-485.4 0,-485.4 0,-438.4 94,-438.4 94,-485.4"/>
<text text-anchor="middle" x="47" y="-453.4" font-family="Times New Roman,serif" font-size="35.00">R249</text>
</a>
</g>
</g>
<!-- R249&#45;&gt;R28 -->
<g id="edge18" class="edge">
<title>R249&#45;&gt;R28</title>
<path fill="none" stroke="black" d="M93.77,-458.76C216.23,-450.8 544.61,-432.56 582,-462.9 616.51,-490.91 630.27,-624.4 634.93,-688.03"/>
<polygon fill="black" stroke="black" points="631.49,-687.96 635.68,-697.69 638.47,-687.47 631.49,-687.96"/>
<text text-anchor="middle" x="342.5" y="-471.9" font-family="Times New Roman,serif" font-size="30.00"> &#160;&#160;337 &#160;&#160;0% &#160;&#160;1.98 mol/s &#160;&#160;&#160;2.16E&#45;07</text>
</g>
<!-- R167 -->
<g id="node20" class="node">
<title>R167</title>
<g id="a_node20"><a xlink:href="167.svg" xlink:title="R167">
<polygon fill="azure" stroke="none" points="94,-420.4 0,-420.4 0,-373.4 94,-373.4 94,-420.4"/>
<text text-anchor="middle" x="47" y="-388.4" font-family="Times New Roman,serif" font-size="35.00">R167</text>
</a>
</g>
</g>
<!-- R167&#45;&gt;R28 -->
<g id="edge19" class="edge">
<title>R167&#45;&gt;R28</title>
<path fill="none" stroke="black" d="M93.7,-390.87C209.38,-376.67 509.72,-346.82 582,-408.9 623.71,-444.73 633.81,-614.53 636.24,-687.95"/>
<polygon fill="black" stroke="black" points="632.77,-687.98 636.57,-697.87 639.77,-687.77 632.77,-687.98"/>
<text text-anchor="middle" x="342.5" y="-417.9" font-family="Times New Roman,serif" font-size="30.00"> &#160;&#160;338 &#160;&#160;1% &#160;&#160;14.0 mol/s &#160;&#160;&#160;3.06E&#45;08</text>
</g>
<!-- R250 -->
<g id="node21" class="node">
<title>R250</title>
<g id="a_node21"><a xlink:href="250.svg" xlink:title="R250">
<polygon fill="azure" stroke="none" points="94,-355.4 0,-355.4 0,-308.4 94,-308.4 94,-355.4"/>
<text text-anchor="middle" x="47" y="-323.4" font-family="Times New Roman,serif" font-size="35.00">R250</text>
</a>
</g>
</g>
<!-- R250&#45;&gt;R28 -->
<g id="edge20" class="edge">
<title>R250&#45;&gt;R28</title>
<path fill="none" stroke="black" d="M93.89,-328.71C216.64,-320.66 545.7,-302.26 582,-333.9 634.65,-379.79 638.23,-601.64 637.58,-687.69"/>
<polygon fill="black" stroke="black" points="634.07,-687.63 637.47,-697.66 641.07,-687.7 634.07,-687.63"/>
<text text-anchor="middle" x="342.5" y="-342.9" font-family="Times New Roman,serif" font-size="30.00"> &#160;&#160;339 &#160;&#160;0% &#160;&#160;0.993 mol/s &#160;&#160;&#160;4.31E&#45;07</text>
</g>
<!-- R284 -->
<g id="node22" class="node">
<title>R284</title>
<g id="a_node22"><a xlink:href="284.svg" xlink:title="R284">
<polygon fill="azure" stroke="none" points="94,-290.4 0,-290.4 0,-243.4 94,-243.4 94,-290.4"/>
<text text-anchor="middle" x="47" y="-258.4" font-family="Times New Roman,serif" font-size="35.00">R284</text>
</a>
</g>
</g>
<!-- R284&#45;&gt;R28 -->
<g id="edge21" class="edge">
<title>R284&#45;&gt;R28</title>
<path fill="none" stroke="black" d="M93.89,-260.66C210.01,-245.96 511.31,-215.01 582,-278.9 612.28,-306.27 629.97,-588.57 635.28,-687.71"/>
<polygon fill="black" stroke="black" points="631.84,-687.79 635.86,-697.6 638.83,-687.42 631.84,-687.79"/>
<text text-anchor="middle" x="342.5" y="-287.9" font-family="Times New Roman,serif" font-size="30.00"> &#160;&#160;385 &#160;&#160;0% &#160;&#160;0.0574 mol/s &#160;&#160;&#160;7.45E&#45;06</text>
</g>
<!-- R174 -->
<g id="node23" class="node">
<title>R174</title>
<g id="a_node23"><a xlink:href="174.svg" xlink:title="R174">
<polygon fill="azure" stroke="none" points="94,-225.4 0,-225.4 0,-178.4 94,-178.4 94,-225.4"/>
<text text-anchor="middle" x="47" y="-193.4" font-family="Times New Roman,serif" font-size="35.00">R174</text>
</a>
</g>
</g>
<!-- R174&#45;&gt;R28 -->
<g id="edge22" class="edge">
<title>R174&#45;&gt;R28</title>
<path fill="none" stroke="black" d="M93.95,-198.56C216.84,-190.09 546.23,-170.66 582,-202.9 618.08,-235.42 632.3,-577.54 635.97,-687.83"/>
<polygon fill="black" stroke="black" points="632.5,-687.77 636.32,-697.65 639.5,-687.54 632.5,-687.77"/>
<text text-anchor="middle" x="342.5" y="-211.9" font-family="Times New Roman,serif" font-size="30.00"> &#160;&#160;386 &#160;&#160;0% &#160;&#160;3.43 mol/s &#160;&#160;&#160;1.25E&#45;07</text>
</g>
<!-- R285 -->
<g id="node24" class="node">
<title>R285</title>
<g id="a_node24"><a xlink:href="285.svg" xlink:title="R285">
<polygon fill="azure" stroke="none" points="94,-160.4 0,-160.4 0,-113.4 94,-113.4 94,-160.4"/>
<text text-anchor="middle" x="47" y="-128.4" font-family="Times New Roman,serif" font-size="35.00">R285</text>
</a>
</g>
</g>
<!-- R285&#45;&gt;R28 -->
<g id="edge23" class="edge">
<title>R285&#45;&gt;R28</title>
<path fill="none" stroke="black" d="M93.99,-130.45C210.34,-115.24 512.15,-83.1 582,-147.9 621.73,-184.76 633.6,-569.94 636.31,-687.82"/>
<polygon fill="black" stroke="black" points="632.83,-687.76 636.56,-697.68 639.83,-687.6 632.83,-687.76"/>
<text text-anchor="middle" x="342.5" y="-156.9" font-family="Times New Roman,serif" font-size="30.00"> &#160;&#160;387 &#160;&#160;0% &#160;&#160;0.114 mol/s &#160;&#160;&#160;3.74E&#45;06</text>
</g>
<!-- R286 -->
<g id="node25" class="node">
<title>R286</title>
<g id="a_node25"><a xlink:href="286.svg" xlink:title="R286">
<polygon fill="azure" stroke="none" points="94,-95.4 0,-95.4 0,-48.4 94,-48.4 94,-95.4"/>
<text text-anchor="middle" x="47" y="-63.4" font-family="Times New Roman,serif" font-size="35.00">R286</text>
</a>
</g>
</g>
<!-- R286&#45;&gt;R28 -->
<g id="edge24" class="edge">
<title>R286&#45;&gt;R28</title>
<path fill="none" stroke="black" d="M93.88,-53.89C196.34,-17.01 445.48,53.56 582,-71.9 627.68,-113.88 635.46,-560.27 636.75,-687.96"/>
<polygon fill="black" stroke="black" points="633.26,-687.66 636.85,-697.63 640.25,-687.6 633.26,-687.66"/>
<text text-anchor="middle" x="342.5" y="-80.9" font-family="Times New Roman,serif" font-size="30.00"> &#160;&#160;388 &#160;&#160;1% &#160;&#160;8.85 mol/s &#160;&#160;&#160;4.83E&#45;08</text>
</g>
</g>
</svg>
