<?xml version="1.0" encoding="UTF-8" standalone="no"?>
<!DOCTYPE svg PUBLIC "-//W3C//DTD SVG 1.1//EN"
 "http://www.w3.org/Graphics/SVG/1.1/DTD/svg11.dtd">
<!-- Generated by graphviz version 8.0.3 (20230416.2022)
 -->
<!-- Title: G Pages: 1 -->
<svg width="640pt" height="212pt"
 viewBox="0.00 0.00 720.00 238.04" xmlns="http://www.w3.org/2000/svg" xmlns:xlink="http://www.w3.org/1999/xlink">
<g id="graph0" class="graph" transform="scale(0.487062 0.487062) rotate(0) translate(4 430.43)">
<title>G</title>
<polygon fill="white" stroke="none" points="-4,4 -4,-430.43 1310,-430.43 1310,4 -4,4"/>
<text text-anchor="middle" x="653" y="-393.63" font-family="Arial" font-size="36.00" fill="blue">Reaction Path Analysis</text>
<!-- R280 -->
<g id="node1" class="node">
<title>R280</title>
<g id="a_node1"><a xlink:href="280.svg" xlink:title="R280">
<polygon fill="azure" stroke="none" points="700,-203.93 606,-203.93 606,-156.93 700,-156.93 700,-203.93"/>
<text text-anchor="middle" x="653" y="-171.93" font-family="Times New Roman,serif" font-size="35.00">R280</text>
</a>
</g>
</g>
<!-- R26 -->
<g id="node2" class="node">
<title>R26</title>
<g id="a_node2"><a xlink:href="26.svg" xlink:title="R26">
<polygon fill="azure" stroke="none" points="1297,-333.93 1221,-333.93 1221,-286.93 1297,-286.93 1297,-333.93"/>
<text text-anchor="middle" x="1259" y="-301.93" font-family="Times New Roman,serif" font-size="35.00">R26</text>
</a>
</g>
</g>
<!-- R280&#45;&gt;R26 -->
<g id="edge1" class="edge">
<title>R280&#45;&gt;R26</title>
<path fill="none" stroke="black" stroke-width="5" d="M661.07,-203.74C669.81,-228.06 687.22,-265.03 716.5,-282.43 870.99,-374.27 1096.22,-344.7 1200.76,-323.73"/>
<polygon fill="black" stroke="black" stroke-width="5" points="1197.4,-333.12 1215.16,-320.43 1193.79,-315.99 1197.4,-333.12"/>
<text text-anchor="middle" x="956" y="-354.43" font-family="Times New Roman,serif" font-size="30.00"> &#160;&#160;380 &#160;&#160;99% &#160;&#160;0.00983 mol/s &#160;&#160;&#160;4.35E&#45;05</text>
</g>
<!-- R14 -->
<g id="node3" class="node">
<title>R14</title>
<g id="a_node3"><a xlink:href="14.svg" xlink:title="R14">
<polygon fill="azure" stroke="none" points="1297,-268.93 1221,-268.93 1221,-221.93 1297,-221.93 1297,-268.93"/>
<text text-anchor="middle" x="1259" y="-236.93" font-family="Times New Roman,serif" font-size="35.00">R14</text>
</a>
</g>
</g>
<!-- R280&#45;&gt;R14 -->
<g id="edge2" class="edge">
<title>R280&#45;&gt;R14</title>
<path fill="none" stroke="black" stroke-width="5" d="M686.67,-203.76C695.9,-209.22 706.24,-214.33 716.5,-217.43 805.6,-244.32 1080.09,-246.38 1200.45,-245.92"/>
<polygon fill="black" stroke="black" stroke-width="5" points="1195.42,-254.66 1215.38,-245.81 1195.33,-237.16 1195.42,-254.66"/>
<text text-anchor="middle" x="956" y="-254.43" font-family="Times New Roman,serif" font-size="30.00"> &#160;&#160;380 &#160;&#160;99% &#160;&#160;0.00983 mol/s &#160;&#160;&#160;4.35E&#45;05</text>
</g>
<!-- R0 -->
<g id="node5" class="node">
<title>R0</title>
<g id="a_node5"><a xlink:href="0.svg" xlink:title="R0">
<polygon fill="azure" stroke="none" points="1288,-203.93 1230,-203.93 1230,-156.93 1288,-156.93 1288,-203.93"/>
<text text-anchor="middle" x="1259" y="-171.93" font-family="Times New Roman,serif" font-size="35.00">R0</text>
</a>
</g>
</g>
<!-- R280&#45;&gt;R0 -->
<g id="edge4" class="edge">
<title>R280&#45;&gt;R0</title>
<path fill="none" stroke="black" d="M699.89,-180.43C814.64,-180.43 1112.44,-180.43 1219.2,-180.43"/>
<polygon fill="black" stroke="black" points="1219.09,-183.93 1229.09,-180.43 1219.09,-176.93 1219.09,-183.93"/>
<text text-anchor="middle" x="956" y="-189.43" font-family="Times New Roman,serif" font-size="30.00"> &#160;&#160;523 &#160;&#160;0% &#160;&#160;7.79e&#45;07 mol/s &#160;&#160;&#160;2.62E&#45;01</text>
</g>
<!-- R246 -->
<g id="node6" class="node">
<title>R246</title>
<g id="a_node6"><a xlink:href="246.svg" xlink:title="R246">
<polygon fill="azure" stroke="none" points="1306,-138.93 1212,-138.93 1212,-91.93 1306,-91.93 1306,-138.93"/>
<text text-anchor="middle" x="1259" y="-106.93" font-family="Times New Roman,serif" font-size="35.00">R246</text>
</a>
</g>
</g>
<!-- R280&#45;&gt;R246 -->
<g id="edge5" class="edge">
<title>R280&#45;&gt;R246</title>
<path fill="none" stroke="black" d="M686.67,-157.1C695.9,-151.65 706.24,-146.53 716.5,-143.43 886.97,-91.99 1101.17,-101.28 1201.4,-109.64"/>
<polygon fill="black" stroke="black" points="1200.91,-113.2 1211.18,-110.57 1201.52,-106.22 1200.91,-113.2"/>
<text text-anchor="middle" x="956" y="-152.43" font-family="Times New Roman,serif" font-size="30.00"> &#160;&#160;523 &#160;&#160;0% &#160;&#160;7.79e&#45;07 mol/s &#160;&#160;&#160;2.62E&#45;01</text>
</g>
<!-- R322 -->
<g id="node7" class="node">
<title>R322</title>
<g id="a_node7"><a xlink:href="322.svg" xlink:title="R322">
<polygon fill="azure" stroke="none" points="1306,-73.93 1212,-73.93 1212,-26.93 1306,-26.93 1306,-73.93"/>
<text text-anchor="middle" x="1259" y="-41.93" font-family="Times New Roman,serif" font-size="35.00">R322</text>
</a>
</g>
</g>
<!-- R280&#45;&gt;R322 -->
<g id="edge6" class="edge">
<title>R280&#45;&gt;R322</title>
<path fill="none" stroke="black" d="M659.27,-157.06C666.82,-129.72 683.57,-85.63 716.5,-65.43 869.99,28.74 1096.8,-9.57 1201.39,-34.86"/>
<polygon fill="black" stroke="black" points="1200.48,-38.49 1211.03,-37.49 1202.16,-31.69 1200.48,-38.49"/>
<text text-anchor="middle" x="956" y="-74.43" font-family="Times New Roman,serif" font-size="30.00"> &#160;&#160;544 &#160;&#160;0% &#160;&#160;3.01e&#45;07 mol/s &#160;&#160;&#160;7.72E&#45;01</text>
</g>
<!-- R81 -->
<g id="node4" class="node">
<title>R81</title>
<g id="a_node4"><a xlink:href="81.svg" xlink:title="R81">
<polygon fill="azure" stroke="none" points="85,-291.93 9,-291.93 9,-244.93 85,-244.93 85,-291.93"/>
<text text-anchor="middle" x="47" y="-259.93" font-family="Times New Roman,serif" font-size="35.00">R81</text>
</a>
</g>
</g>
<!-- R81&#45;&gt;R280 -->
<g id="edge3" class="edge">
<title>R81&#45;&gt;R280</title>
<path fill="none" stroke="black" stroke-width="2" d="M84.73,-280.12C177.66,-307.37 426.79,-365.89 597,-270.43 618.49,-258.38 632.58,-234.14 641.12,-213.84"/>
<polygon fill="black" stroke="black" stroke-width="2" points="643.71,-216.27 644.09,-205.68 637.19,-213.72 643.71,-216.27"/>
<text text-anchor="middle" x="350" y="-331.43" font-family="Times New Roman,serif" font-size="30.00"> &#160;&#160;465 &#160;&#160;20% &#160;&#160;0.000394 mol/s &#160;&#160;&#160;7.15E&#45;01</text>
</g>
<!-- R81&#45;&gt;R280 -->
<g id="edge8" class="edge">
<title>R81&#45;&gt;R280</title>
<path fill="none" stroke="black" stroke-width="3" d="M78.57,-245.01C86.18,-240.34 94.57,-236.06 103,-233.43 207.87,-200.69 491.92,-246.48 597,-214.43 601.59,-213.03 606.19,-211.15 610.65,-208.98"/>
<polygon fill="black" stroke="black" stroke-width="3" points="609.02,-213.69 616.18,-205.88 605.71,-207.52 609.02,-213.69"/>
<text text-anchor="middle" x="350" y="-242.43" font-family="Times New Roman,serif" font-size="30.00"> &#160;&#160;763 &#160;&#160;50% &#160;&#160;0.00099 mol/s &#160;&#160;&#160;2.85E&#45;01</text>
</g>
<!-- R302 -->
<g id="node8" class="node">
<title>R302</title>
<g id="a_node8"><a xlink:href="302.svg" xlink:title="R302">
<polygon fill="azure" stroke="none" points="94,-203.93 0,-203.93 0,-156.93 94,-156.93 94,-203.93"/>
<text text-anchor="middle" x="47" y="-171.93" font-family="Times New Roman,serif" font-size="35.00">R302</text>
</a>
</g>
</g>
<!-- R302&#45;&gt;R280 -->
<g id="edge7" class="edge">
<title>R302&#45;&gt;R280</title>
<path fill="none" stroke="black" d="M93.89,-180.43C202.81,-180.43 476.67,-180.43 595.51,-180.43"/>
<polygon fill="black" stroke="black" points="595.18,-183.93 605.18,-180.43 595.18,-176.93 595.18,-183.93"/>
<text text-anchor="middle" x="350" y="-189.43" font-family="Times New Roman,serif" font-size="30.00"> &#160;&#160;545 &#160;&#160;0% &#160;&#160;9.79e&#45;08 mol/s &#160;&#160;&#160;4.49E&#45;01</text>
</g>
<!-- R184 -->
<g id="node9" class="node">
<title>R184</title>
<g id="a_node9"><a xlink:href="184.svg" xlink:title="R184">
<polygon fill="azure" stroke="none" points="94,-115.93 0,-115.93 0,-68.93 94,-68.93 94,-115.93"/>
<text text-anchor="middle" x="47" y="-83.93" font-family="Times New Roman,serif" font-size="35.00">R184</text>
</a>
</g>
</g>
<!-- R184&#45;&gt;R280 -->
<g id="edge9" class="edge">
<title>R184&#45;&gt;R280</title>
<path fill="none" stroke="black" d="M93.86,-101.11C96.95,-101.59 100.02,-102.04 103,-102.43 321.41,-131.28 389.12,-70.48 597,-143.43 602.84,-145.48 608.66,-148.31 614.2,-151.49"/>
<polygon fill="black" stroke="black" points="611.89,-154.79 622.23,-157.1 615.59,-148.85 611.89,-154.79"/>
<text text-anchor="middle" x="350" y="-152.43" font-family="Times New Roman,serif" font-size="30.00"> &#160;&#160;764 &#160;&#160;17% &#160;&#160;0.000338 mol/s &#160;&#160;&#160;3.97E&#45;01</text>
</g>
<!-- R184&#45;&gt;R280 -->
<g id="edge10" class="edge">
<title>R184&#45;&gt;R280</title>
<path fill="none" stroke="black" d="M91.16,-69.03C95.08,-67.58 99.06,-66.35 103,-65.43 316.86,-15.77 411.25,51.63 597,-65.43 624.97,-83.06 639.03,-119.29 645.88,-146.39"/>
<polygon fill="black" stroke="black" points="642.67,-147.05 648.33,-156.01 649.5,-145.48 642.67,-147.05"/>
<text text-anchor="middle" x="350" y="-74.43" font-family="Times New Roman,serif" font-size="30.00"> &#160;&#160;949 &#160;&#160;11% &#160;&#160;0.000223 mol/s &#160;&#160;&#160;6.03E&#45;01</text>
</g>
</g>
</svg>
