<?xml version="1.0" encoding="UTF-8" standalone="no"?>
<!DOCTYPE svg PUBLIC "-//W3C//DTD SVG 1.1//EN"
 "http://www.w3.org/Graphics/SVG/1.1/DTD/svg11.dtd">
<!-- Generated by graphviz version 8.0.3 (20230416.2022)
 -->
<!-- Title: G Pages: 1 -->
<svg width="640pt" height="198pt"
 viewBox="0.00 0.00 720.00 222.80" xmlns="http://www.w3.org/2000/svg" xmlns:xlink="http://www.w3.org/1999/xlink">
<g id="graph0" class="graph" transform="scale(0.484481 0.484481) rotate(0) translate(4 404.78)">
<title>G</title>
<polygon fill="white" stroke="none" points="-4,4 -4,-404.78 1317,-404.78 1317,4 -4,4"/>
<text text-anchor="middle" x="656.5" y="-367.98" font-family="Arial" font-size="36.00" fill="blue">Reaction Path Analysis</text>
<!-- R283 -->
<g id="node1" class="node">
<title>R283</title>
<g id="a_node1"><a xlink:href="283.svg" xlink:title="R283">
<polygon fill="azure" stroke="none" points="708,-188.28 614,-188.28 614,-141.28 708,-141.28 708,-188.28"/>
<text text-anchor="middle" x="661" y="-156.28" font-family="Times New Roman,serif" font-size="35.00">R283</text>
</a>
</g>
</g>
<!-- R27 -->
<g id="node2" class="node">
<title>R27</title>
<g id="a_node2"><a xlink:href="27.svg" xlink:title="R27">
<polygon fill="azure" stroke="none" points="1313,-221.28 1237,-221.28 1237,-174.28 1313,-174.28 1313,-221.28"/>
<text text-anchor="middle" x="1275" y="-189.28" font-family="Times New Roman,serif" font-size="35.00">R27</text>
</a>
</g>
</g>
<!-- R283&#45;&gt;R27 -->
<g id="edge1" class="edge">
<title>R283&#45;&gt;R27</title>
<path fill="none" stroke="black" stroke-width="6" d="M707.83,-174.51C710.92,-175 714,-175.43 717,-175.78 898.14,-197.34 1114.51,-199.08 1216.02,-198.5"/>
<polygon fill="black" stroke="black" stroke-width="6" points="1211.1,-208.99 1231.02,-198.33 1210.94,-187.99 1211.1,-208.99"/>
<text text-anchor="middle" x="968" y="-206.78" font-family="Times New Roman,serif" font-size="30.00"> &#160;&#160;384 &#160;&#160;100% &#160;&#160;4.13e&#45;07 mol/s &#160;&#160;&#160;3.37E&#45;01</text>
</g>
<!-- R14 -->
<g id="node3" class="node">
<title>R14</title>
<g id="a_node3"><a xlink:href="14.svg" xlink:title="R14">
<polygon fill="azure" stroke="none" points="1313,-156.28 1237,-156.28 1237,-109.28 1313,-109.28 1313,-156.28"/>
<text text-anchor="middle" x="1275" y="-124.28" font-family="Times New Roman,serif" font-size="35.00">R14</text>
</a>
</g>
</g>
<!-- R283&#45;&gt;R14 -->
<g id="edge2" class="edge">
<title>R283&#45;&gt;R14</title>
<path fill="none" stroke="black" stroke-width="6" d="M707.84,-145.05C710.91,-144.16 713.98,-143.39 717,-142.78 896.11,-106.62 1114.21,-118.39 1216.21,-127.04"/>
<polygon fill="black" stroke="black" stroke-width="6" points="1210.15,-137.57 1231.01,-128.9 1212.02,-116.66 1210.15,-137.57"/>
<text text-anchor="middle" x="968" y="-151.78" font-family="Times New Roman,serif" font-size="30.00"> &#160;&#160;384 &#160;&#160;100% &#160;&#160;4.13e&#45;07 mol/s &#160;&#160;&#160;3.37E&#45;01</text>
</g>
<!-- R0 -->
<g id="node4" class="node">
<title>R0</title>
<g id="a_node4"><a xlink:href="0.svg" xlink:title="R0">
<polygon fill="azure" stroke="none" points="76,-309.28 18,-309.28 18,-262.28 76,-262.28 76,-309.28"/>
<text text-anchor="middle" x="47" y="-277.28" font-family="Times New Roman,serif" font-size="35.00">R0</text>
</a>
</g>
</g>
<!-- R0&#45;&gt;R283 -->
<g id="edge3" class="edge">
<title>R0&#45;&gt;R283</title>
<path fill="none" stroke="black" d="M75.81,-292.6C160.75,-311.79 421.64,-358.67 597.5,-258.78 620.93,-245.48 637.22,-219.35 647.28,-198.01"/>
<polygon fill="black" stroke="black" points="650.87,-199.55 651.73,-188.99 644.47,-196.71 650.87,-199.55"/>
<text text-anchor="middle" x="354" y="-328.78" font-family="Times New Roman,serif" font-size="30.00"> &#160;&#160;526 &#160;&#160;0% &#160;&#160;4.25e&#45;07 mol/s &#160;&#160;&#160;9.94E&#45;01</text>
</g>
<!-- R248 -->
<g id="node5" class="node">
<title>R248</title>
<g id="a_node5"><a xlink:href="248.svg" xlink:title="R248">
<polygon fill="azure" stroke="none" points="94,-244.28 0,-244.28 0,-197.28 94,-197.28 94,-244.28"/>
<text text-anchor="middle" x="47" y="-212.28" font-family="Times New Roman,serif" font-size="35.00">R248</text>
</a>
</g>
</g>
<!-- R248&#45;&gt;R283 -->
<g id="edge4" class="edge">
<title>R248&#45;&gt;R283</title>
<path fill="none" stroke="black" d="M93.92,-221.62C208.26,-223.26 503.27,-224.77 597.5,-198.78 603.01,-197.27 608.56,-195.19 613.97,-192.8"/>
<polygon fill="black" stroke="black" points="615.01,-195.7 622.51,-188.22 611.98,-189.39 615.01,-195.7"/>
<text text-anchor="middle" x="354" y="-230.78" font-family="Times New Roman,serif" font-size="30.00"> &#160;&#160;526 &#160;&#160;0% &#160;&#160;4.25e&#45;07 mol/s &#160;&#160;&#160;9.94E&#45;01</text>
</g>
<!-- R151 -->
<g id="node6" class="node">
<title>R151</title>
<g id="a_node6"><a xlink:href="151.svg" xlink:title="R151">
<polygon fill="azure" stroke="none" points="94,-160.28 0,-160.28 0,-113.28 94,-113.28 94,-160.28"/>
<text text-anchor="middle" x="47" y="-128.28" font-family="Times New Roman,serif" font-size="35.00">R151</text>
</a>
</g>
</g>
<!-- R151&#45;&gt;R283 -->
<g id="edge5" class="edge">
<title>R151&#45;&gt;R283</title>
<path fill="none" stroke="black" d="M93.72,-141.47C99.36,-141.96 105.06,-142.41 110.5,-142.78 290.23,-155 503.52,-161.16 603.27,-163.55"/>
<polygon fill="black" stroke="black" points="602.92,-167.07 613,-163.81 603.09,-160.07 602.92,-167.07"/>
<text text-anchor="middle" x="354" y="-171.78" font-family="Times New Roman,serif" font-size="30.00"> &#160;&#160;675 &#160;&#160;0% &#160;&#160;0.000654 mol/s &#160;&#160;&#160;1.00E+00</text>
</g>
<!-- R151&#45;&gt;R283 -->
<g id="edge7" class="edge">
<title>R151&#45;&gt;R283</title>
<path fill="none" stroke="black" stroke-width="5" d="M88.68,-113.31C95.75,-110.2 103.19,-107.5 110.5,-105.78 163.18,-93.44 547.21,-85.8 597.5,-105.78 608.85,-110.3 619.34,-117.96 628.35,-126.29"/>
<polygon fill="black" stroke="black" stroke-width="5" points="618.7,-129.05 638.84,-137.49 631.37,-116.97 618.7,-129.05"/>
<text text-anchor="middle" x="354" y="-114.78" font-family="Times New Roman,serif" font-size="30.00"> &#160;&#160;973 &#160;&#160;99% &#160;&#160;13.8 mol/s &#160;&#160;&#160;4.73E&#45;05</text>
</g>
<!-- R304 -->
<g id="node7" class="node">
<title>R304</title>
<g id="a_node7"><a xlink:href="304.svg" xlink:title="R304">
<polygon fill="azure" stroke="none" points="94,-76.28 0,-76.28 0,-29.28 94,-29.28 94,-76.28"/>
<text text-anchor="middle" x="47" y="-44.28" font-family="Times New Roman,serif" font-size="35.00">R304</text>
</a>
</g>
</g>
<!-- R304&#45;&gt;R283 -->
<g id="edge6" class="edge">
<title>R304&#45;&gt;R283</title>
<path fill="none" stroke="black" d="M93.95,-38.74C193.63,-11.14 433.9,39.59 597.5,-55.78 625.2,-71.93 641.7,-105.48 650.72,-131.11"/>
<polygon fill="black" stroke="black" points="647.7,-132.13 654.14,-140.54 654.35,-129.95 647.7,-132.13"/>
<text text-anchor="middle" x="354" y="-64.78" font-family="Times New Roman,serif" font-size="30.00"> &#160;&#160;837 &#160;&#160;0% &#160;&#160;9.37e&#45;07 mol/s &#160;&#160;&#160;2.39E&#45;01</text>
</g>
</g>
</svg>
