<?xml version="1.0" encoding="UTF-8" standalone="no"?>
<!DOCTYPE svg PUBLIC "-//W3C//DTD SVG 1.1//EN"
 "http://www.w3.org/Graphics/SVG/1.1/DTD/svg11.dtd">
<!-- Generated by graphviz version 8.0.3 (20230416.2022)
 -->
<!-- Title: G Pages: 1 -->
<svg width="640pt" height="178pt"
 viewBox="0.00 0.00 720.00 200.66" xmlns="http://www.w3.org/2000/svg" xmlns:xlink="http://www.w3.org/1999/xlink">
<g id="graph0" class="graph" transform="scale(0.49574 0.49574) rotate(0) translate(4 355.79)">
<title>G</title>
<polygon fill="white" stroke="none" points="-4,4 -4,-355.79 1287,-355.79 1287,4 -4,4"/>
<text text-anchor="middle" x="641.5" y="-318.99" font-family="Arial" font-size="36.00" fill="blue">Reaction Path Analysis</text>
<!-- R284 -->
<g id="node1" class="node">
<title>R284</title>
<g id="a_node1"><a xlink:href="284.svg" xlink:title="R284">
<polygon fill="azure" stroke="none" points="693,-170.29 599,-170.29 599,-123.29 693,-123.29 693,-170.29"/>
<text text-anchor="middle" x="646" y="-138.29" font-family="Times New Roman,serif" font-size="35.00">R284</text>
</a>
</g>
</g>
<!-- R14 -->
<g id="node2" class="node">
<title>R14</title>
<g id="a_node2"><a xlink:href="14.svg" xlink:title="R14">
<polygon fill="azure" stroke="none" points="1283,-268.29 1207,-268.29 1207,-221.29 1283,-221.29 1283,-268.29"/>
<text text-anchor="middle" x="1245" y="-236.29" font-family="Times New Roman,serif" font-size="35.00">R14</text>
</a>
</g>
</g>
<!-- R284&#45;&gt;R14 -->
<g id="edge1" class="edge">
<title>R284&#45;&gt;R14</title>
<path fill="none" stroke="black" stroke-width="5" d="M660.73,-170.12C671.69,-186.35 688.64,-206.79 709.5,-216.79 868.35,-292.97 1085.07,-271.67 1186.82,-255.5"/>
<polygon fill="black" stroke="black" stroke-width="5" points="1183.02,-265 1201.29,-253.06 1180.12,-247.74 1183.02,-265"/>
<text text-anchor="middle" x="945.5" y="-279.79" font-family="Times New Roman,serif" font-size="30.00"> &#160;&#160;385 &#160;&#160;99% &#160;&#160;0.0574 mol/s &#160;&#160;&#160;7.45E&#45;06</text>
</g>
<!-- R28 -->
<g id="node3" class="node">
<title>R28</title>
<g id="a_node3"><a xlink:href="28.svg" xlink:title="R28">
<polygon fill="azure" stroke="none" points="1283,-203.29 1207,-203.29 1207,-156.29 1283,-156.29 1283,-203.29"/>
<text text-anchor="middle" x="1245" y="-171.29" font-family="Times New Roman,serif" font-size="35.00">R28</text>
</a>
</g>
</g>
<!-- R284&#45;&gt;R28 -->
<g id="edge2" class="edge">
<title>R284&#45;&gt;R28</title>
<path fill="none" stroke="black" stroke-width="5" d="M692.98,-155.6C698.53,-156.45 704.13,-157.21 709.5,-157.79 882.33,-176.47 1088.15,-179.6 1186.34,-179.93"/>
<polygon fill="black" stroke="black" stroke-width="5" points="1181.25,-188.68 1201.26,-179.96 1181.27,-171.18 1181.25,-188.68"/>
<text text-anchor="middle" x="945.5" y="-188.79" font-family="Times New Roman,serif" font-size="30.00"> &#160;&#160;385 &#160;&#160;99% &#160;&#160;0.0574 mol/s &#160;&#160;&#160;7.45E&#45;06</text>
</g>
<!-- R1 -->
<g id="node7" class="node">
<title>R1</title>
<g id="a_node7"><a xlink:href="1.svg" xlink:title="R1">
<polygon fill="azure" stroke="none" points="1274,-138.29 1216,-138.29 1216,-91.29 1274,-91.29 1274,-138.29"/>
<text text-anchor="middle" x="1245" y="-106.29" font-family="Times New Roman,serif" font-size="35.00">R1</text>
</a>
</g>
</g>
<!-- R284&#45;&gt;R1 -->
<g id="edge6" class="edge">
<title>R284&#45;&gt;R1</title>
<path fill="none" stroke="black" d="M692.97,-128.77C698.47,-127.16 704.07,-125.77 709.5,-124.79 892.59,-91.74 1116.69,-104.32 1205.3,-111.33"/>
<polygon fill="black" stroke="black" points="1204.9,-114.9 1215.16,-112.22 1205.47,-107.92 1204.9,-114.9"/>
<text text-anchor="middle" x="945.5" y="-133.79" font-family="Times New Roman,serif" font-size="30.00"> &#160;&#160;854 &#160;&#160;0% &#160;&#160;2.57e&#45;05 mol/s &#160;&#160;&#160;1.61E&#45;02</text>
</g>
<!-- R91 -->
<g id="node8" class="node">
<title>R91</title>
<g id="a_node8"><a xlink:href="91.svg" xlink:title="R91">
<polygon fill="azure" stroke="none" points="1283,-73.29 1207,-73.29 1207,-26.29 1283,-26.29 1283,-73.29"/>
<text text-anchor="middle" x="1245" y="-41.29" font-family="Times New Roman,serif" font-size="35.00">R91</text>
</a>
</g>
</g>
<!-- R284&#45;&gt;R91 -->
<g id="edge7" class="edge">
<title>R284&#45;&gt;R91</title>
<path fill="none" stroke="black" d="M657.66,-123.63C667.93,-104.32 685.45,-78.06 709.5,-65.79 871.54,16.88 1098.67,-17.63 1196.31,-38.37"/>
<polygon fill="black" stroke="black" points="1195.5,-42 1206.01,-40.7 1196.99,-35.16 1195.5,-42"/>
<text text-anchor="middle" x="945.5" y="-74.79" font-family="Times New Roman,serif" font-size="30.00"> &#160;&#160;854 &#160;&#160;0% &#160;&#160;2.57e&#45;05 mol/s &#160;&#160;&#160;1.61E&#45;02</text>
</g>
<!-- R0 -->
<g id="node4" class="node">
<title>R0</title>
<g id="a_node4"><a xlink:href="0.svg" xlink:title="R0">
<polygon fill="azure" stroke="none" points="76,-263.29 18,-263.29 18,-216.29 76,-216.29 76,-263.29"/>
<text text-anchor="middle" x="47" y="-231.29" font-family="Times New Roman,serif" font-size="35.00">R0</text>
</a>
</g>
</g>
<!-- R0&#45;&gt;R284 -->
<g id="edge3" class="edge">
<title>R0&#45;&gt;R284</title>
<path fill="none" stroke="black" d="M75.79,-245.43C158.98,-260.84 411.31,-297.04 590,-209.79 603.93,-202.99 615.81,-190.9 624.92,-179.12"/>
<polygon fill="black" stroke="black" points="628.31,-181.41 631.34,-171.26 622.64,-177.31 628.31,-181.41"/>
<text text-anchor="middle" x="346.5" y="-274.79" font-family="Times New Roman,serif" font-size="30.00"> &#160;&#160;512 &#160;&#160;0% &#160;&#160;3.97e&#45;07 mol/s &#160;&#160;&#160;9.34E&#45;01</text>
</g>
<!-- R170 -->
<g id="node5" class="node">
<title>R170</title>
<g id="a_node5"><a xlink:href="170.svg" xlink:title="R170">
<polygon fill="azure" stroke="none" points="94,-198.29 0,-198.29 0,-151.29 94,-151.29 94,-198.29"/>
<text text-anchor="middle" x="47" y="-166.29" font-family="Times New Roman,serif" font-size="35.00">R170</text>
</a>
</g>
</g>
<!-- R170&#45;&gt;R284 -->
<g id="edge4" class="edge">
<title>R170&#45;&gt;R284</title>
<path fill="none" stroke="black" d="M93.74,-173.99C185.4,-172.15 398.31,-166.72 588.35,-152.83"/>
<polygon fill="black" stroke="black" points="588.39,-156.27 598.11,-152.04 587.87,-149.28 588.39,-156.27"/>
<text text-anchor="middle" x="346.5" y="-181.79" font-family="Times New Roman,serif" font-size="30.00"> &#160;&#160;512 &#160;&#160;0% &#160;&#160;3.97e&#45;07 mol/s &#160;&#160;&#160;9.34E&#45;01</text>
</g>
<!-- R287 -->
<g id="node6" class="node">
<title>R287</title>
<g id="a_node6"><a xlink:href="287.svg" xlink:title="R287">
<polygon fill="azure" stroke="none" points="94,-110.29 0,-110.29 0,-63.29 94,-63.29 94,-110.29"/>
<text text-anchor="middle" x="47" y="-78.29" font-family="Times New Roman,serif" font-size="35.00">R287</text>
</a>
</g>
</g>
<!-- R287&#45;&gt;R284 -->
<g id="edge5" class="edge">
<title>R287&#45;&gt;R284</title>
<path fill="none" stroke="black" d="M93.85,-95.63C96.94,-96.07 100.01,-96.46 103,-96.79 210.66,-108.62 485.8,-86.27 590,-115.79 593.12,-116.68 596.25,-117.77 599.34,-119.01"/>
<polygon fill="black" stroke="black" points="597.52,-122.48 608.08,-123.41 600.41,-116.1 597.52,-122.48"/>
<text text-anchor="middle" x="346.5" y="-124.79" font-family="Times New Roman,serif" font-size="30.00"> &#160;&#160;770 &#160;&#160;0% &#160;&#160;0.000654 mol/s &#160;&#160;&#160;1.00E+00</text>
</g>
<!-- R287&#45;&gt;R284 -->
<g id="edge8" class="edge">
<title>R287&#45;&gt;R284</title>
<path fill="none" stroke="black" stroke-width="5" d="M91.16,-63.39C95.08,-61.95 99.06,-60.71 103,-59.79 313.83,-10.83 400.42,44.64 590,-59.79 607.55,-69.46 620.28,-87.35 629.04,-104.4"/>
<polygon fill="black" stroke="black" stroke-width="5" points="619.42,-103.8 635.56,-118.5 635.4,-96.67 619.42,-103.8"/>
<text text-anchor="middle" x="346.5" y="-68.79" font-family="Times New Roman,serif" font-size="30.00"> &#160;&#160;974 &#160;&#160;99% &#160;&#160;47.4 mol/s &#160;&#160;&#160;1.38E&#45;05</text>
</g>
</g>
</svg>
