<?xml version="1.0" encoding="UTF-8" standalone="no"?>
<!DOCTYPE svg PUBLIC "-//W3C//DTD SVG 1.1//EN"
 "http://www.w3.org/Graphics/SVG/1.1/DTD/svg11.dtd">
<!-- Generated by graphviz version 8.0.3 (20230416.2022)
 -->
<!-- Title: G Pages: 1 -->
<svg width="640pt" height="176pt"
 viewBox="0.00 0.00 720.00 197.84" xmlns="http://www.w3.org/2000/svg" xmlns:xlink="http://www.w3.org/1999/xlink">
<g id="graph0" class="graph" transform="scale(0.498442 0.498442) rotate(0) translate(4 348.81)">
<title>G</title>
<polygon fill="white" stroke="none" points="-4,4 -4,-348.81 1280,-348.81 1280,4 -4,4"/>
<text text-anchor="middle" x="638" y="-312.01" font-family="Arial" font-size="36.00" fill="blue">Reaction Path Analysis</text>
<!-- R285 -->
<g id="node1" class="node">
<title>R285</title>
<g id="a_node1"><a xlink:href="285.svg" xlink:title="R285">
<polygon fill="azure" stroke="none" points="685,-169.31 591,-169.31 591,-122.31 685,-122.31 685,-169.31"/>
<text text-anchor="middle" x="638" y="-137.31" font-family="Times New Roman,serif" font-size="35.00">R285</text>
</a>
</g>
</g>
<!-- R28 -->
<g id="node2" class="node">
<title>R28</title>
<g id="a_node2"><a xlink:href="28.svg" xlink:title="R28">
<polygon fill="azure" stroke="none" points="1267,-262.31 1191,-262.31 1191,-215.31 1267,-215.31 1267,-262.31"/>
<text text-anchor="middle" x="1229" y="-230.31" font-family="Times New Roman,serif" font-size="35.00">R28</text>
</a>
</g>
</g>
<!-- R285&#45;&gt;R28 -->
<g id="edge1" class="edge">
<title>R285&#45;&gt;R28</title>
<path fill="none" stroke="black" stroke-width="5" d="M652.66,-169.28C662.27,-183.41 676.52,-200.27 694,-208.81 852.16,-286.11 1068.94,-265.37 1170.77,-249.41"/>
<polygon fill="black" stroke="black" stroke-width="5" points="1166.96,-258.91 1185.26,-247.01 1164.09,-241.65 1166.96,-258.91"/>
<text text-anchor="middle" x="933.5" y="-272.81" font-family="Times New Roman,serif" font-size="30.00"> &#160;&#160;387 &#160;&#160;98% &#160;&#160;0.114 mol/s &#160;&#160;&#160;3.74E&#45;06</text>
</g>
<!-- R14 -->
<g id="node3" class="node">
<title>R14</title>
<g id="a_node3"><a xlink:href="14.svg" xlink:title="R14">
<polygon fill="azure" stroke="none" points="1267,-197.31 1191,-197.31 1191,-150.31 1267,-150.31 1267,-197.31"/>
<text text-anchor="middle" x="1229" y="-165.31" font-family="Times New Roman,serif" font-size="35.00">R14</text>
</a>
</g>
</g>
<!-- R285&#45;&gt;R14 -->
<g id="edge2" class="edge">
<title>R285&#45;&gt;R14</title>
<path fill="none" stroke="black" stroke-width="5" d="M684.89,-151.05C687.97,-151.33 691.03,-151.59 694,-151.81 866.97,-164.79 1072.07,-170.55 1170.14,-172.71"/>
<polygon fill="black" stroke="black" stroke-width="5" points="1164.87,-181.47 1185.05,-173.15 1165.24,-163.98 1164.87,-181.47"/>
<text text-anchor="middle" x="933.5" y="-180.81" font-family="Times New Roman,serif" font-size="30.00"> &#160;&#160;387 &#160;&#160;98% &#160;&#160;0.114 mol/s &#160;&#160;&#160;3.74E&#45;06</text>
</g>
<!-- R344 -->
<g id="node7" class="node">
<title>R344</title>
<g id="a_node7"><a xlink:href="344.svg" xlink:title="R344">
<polygon fill="azure" stroke="none" points="1276,-109.31 1182,-109.31 1182,-62.31 1276,-62.31 1276,-109.31"/>
<text text-anchor="middle" x="1229" y="-77.31" font-family="Times New Roman,serif" font-size="35.00">R344</text>
</a>
</g>
</g>
<!-- R285&#45;&gt;R344 -->
<g id="edge7" class="edge">
<title>R285&#45;&gt;R344</title>
<path fill="none" stroke="black" d="M674.92,-122.43C681.08,-119.35 687.57,-116.64 694,-114.81 793.38,-86.62 1050.88,-106.21 1171.29,-95.72"/>
<polygon fill="black" stroke="black" points="1171.55,-99.11 1181.15,-94.64 1170.86,-92.14 1171.55,-99.11"/>
<text text-anchor="middle" x="933.5" y="-123.81" font-family="Times New Roman,serif" font-size="30.00"> &#160;&#160;768 &#160;&#160;0% &#160;&#160;0.000401 mol/s &#160;&#160;&#160;7.21E&#45;01</text>
</g>
<!-- R285&#45;&gt;R344 -->
<g id="edge8" class="edge">
<title>R285&#45;&gt;R344</title>
<path fill="none" stroke="black" d="M646.44,-122.51C654.5,-101.63 669.58,-72.26 694,-58.81 880.47,43.91 965.63,-10.66 1173,-58.81 1173.49,-58.93 1173.99,-59.04 1174.48,-59.17"/>
<polygon fill="black" stroke="black" points="1173.25,-62.76 1183.84,-62.41 1175.34,-56.08 1173.25,-62.76"/>
<text text-anchor="middle" x="933.5" y="-67.81" font-family="Times New Roman,serif" font-size="30.00"> &#160;&#160;1011 &#160;&#160;0% &#160;&#160;0.00104 mol/s &#160;&#160;&#160;2.79E&#45;01</text>
</g>
<!-- R84 -->
<g id="node4" class="node">
<title>R84</title>
<g id="a_node4"><a xlink:href="84.svg" xlink:title="R84">
<polygon fill="azure" stroke="none" points="85,-229.31 9,-229.31 9,-182.31 85,-182.31 85,-229.31"/>
<text text-anchor="middle" x="47" y="-197.31" font-family="Times New Roman,serif" font-size="35.00">R84</text>
</a>
</g>
</g>
<!-- R84&#45;&gt;R285 -->
<g id="edge3" class="edge">
<title>R84&#45;&gt;R285</title>
<path fill="none" stroke="black" d="M84.78,-215.87C174.57,-238.4 410.14,-285.09 582,-207.81 596.01,-201.51 607.91,-189.68 617.01,-178.03"/>
<polygon fill="black" stroke="black" points="620.35,-180.39 623.41,-170.25 614.69,-176.26 620.35,-180.39"/>
<text text-anchor="middle" x="342.5" y="-258.81" font-family="Times New Roman,serif" font-size="30.00"> &#160;&#160;469 &#160;&#160;1% &#160;&#160;0.000641 mol/s &#160;&#160;&#160;9.81E&#45;01</text>
</g>
<!-- R84&#45;&gt;R285 -->
<g id="edge6" class="edge">
<title>R84&#45;&gt;R285</title>
<path fill="none" stroke="black" stroke-width="5" d="M78.57,-182.4C86.18,-177.73 94.57,-173.45 103,-170.81 199.01,-140.78 446.11,-157.56 570.45,-152.24"/>
<polygon fill="black" stroke="black" stroke-width="5" points="565.64,-160.94 585.11,-151.06 564.64,-143.47 565.64,-160.94"/>
<text text-anchor="middle" x="342.5" y="-179.81" font-family="Times New Roman,serif" font-size="30.00"> &#160;&#160;767 &#160;&#160;98% &#160;&#160;0.0323 mol/s &#160;&#160;&#160;1.95E&#45;02</text>
</g>
<!-- R0 -->
<g id="node5" class="node">
<title>R0</title>
<g id="a_node5"><a xlink:href="0.svg" xlink:title="R0">
<polygon fill="azure" stroke="none" points="76,-141.31 18,-141.31 18,-94.31 76,-94.31 76,-141.31"/>
<text text-anchor="middle" x="47" y="-109.31" font-family="Times New Roman,serif" font-size="35.00">R0</text>
</a>
</g>
</g>
<!-- R0&#45;&gt;R285 -->
<g id="edge4" class="edge">
<title>R0&#45;&gt;R285</title>
<path fill="none" stroke="black" d="M75.73,-113.53C155.66,-102.12 392.85,-74.7 582,-118.81 582.49,-118.93 582.98,-119.05 583.48,-119.17"/>
<polygon fill="black" stroke="black" points="582.25,-122.77 592.84,-122.42 584.34,-116.09 582.25,-122.77"/>
<text text-anchor="middle" x="342.5" y="-127.81" font-family="Times New Roman,serif" font-size="30.00"> &#160;&#160;527 &#160;&#160;0% &#160;&#160;4.18e&#45;07 mol/s &#160;&#160;&#160;9.79E&#45;01</text>
</g>
<!-- R250 -->
<g id="node6" class="node">
<title>R250</title>
<g id="a_node6"><a xlink:href="250.svg" xlink:title="R250">
<polygon fill="azure" stroke="none" points="94,-76.31 0,-76.31 0,-29.31 94,-29.31 94,-76.31"/>
<text text-anchor="middle" x="47" y="-44.31" font-family="Times New Roman,serif" font-size="35.00">R250</text>
</a>
</g>
</g>
<!-- R250&#45;&gt;R285 -->
<g id="edge5" class="edge">
<title>R250&#45;&gt;R285</title>
<path fill="none" stroke="black" d="M93.91,-39.28C191.23,-13.4 422.41,32.96 582,-56.81 603.17,-68.72 617.22,-92.46 625.83,-112.43"/>
<polygon fill="black" stroke="black" points="622.87,-113.46 629.84,-121.45 629.37,-110.86 622.87,-113.46"/>
<text text-anchor="middle" x="342.5" y="-65.81" font-family="Times New Roman,serif" font-size="30.00"> &#160;&#160;527 &#160;&#160;0% &#160;&#160;4.18e&#45;07 mol/s &#160;&#160;&#160;9.79E&#45;01</text>
</g>
</g>
</svg>
