<?xml version="1.0" encoding="UTF-8" standalone="no"?>
<!DOCTYPE svg PUBLIC "-//W3C//DTD SVG 1.1//EN"
 "http://www.w3.org/Graphics/SVG/1.1/DTD/svg11.dtd">
<!-- Generated by graphviz version 8.0.3 (20230416.2022)
 -->
<!-- Title: G Pages: 1 -->
<svg width="640pt" height="164pt"
 viewBox="0.00 0.00 720.00 183.98" xmlns="http://www.w3.org/2000/svg" xmlns:xlink="http://www.w3.org/1999/xlink">
<g id="graph0" class="graph" transform="scale(0.481203 0.481203) rotate(0) translate(4 335.84)">
<title>G</title>
<polygon fill="white" stroke="none" points="-4,4 -4,-335.84 1326,-335.84 1326,4 -4,4"/>
<text text-anchor="middle" x="661" y="-299.04" font-family="Arial" font-size="36.00" fill="blue">Reaction Path Analysis</text>
<!-- R286 -->
<g id="node1" class="node">
<title>R286</title>
<g id="a_node1"><a xlink:href="286.svg" xlink:title="R286">
<polygon fill="azure" stroke="none" points="708,-153.34 614,-153.34 614,-106.34 708,-106.34 708,-153.34"/>
<text text-anchor="middle" x="661" y="-121.34" font-family="Times New Roman,serif" font-size="35.00">R286</text>
</a>
</g>
</g>
<!-- R28 -->
<g id="node2" class="node">
<title>R28</title>
<g id="a_node2"><a xlink:href="28.svg" xlink:title="R28">
<polygon fill="azure" stroke="none" points="1313,-251.34 1237,-251.34 1237,-204.34 1313,-204.34 1313,-251.34"/>
<text text-anchor="middle" x="1275" y="-219.34" font-family="Times New Roman,serif" font-size="35.00">R28</text>
</a>
</g>
</g>
<!-- R286&#45;&gt;R28 -->
<g id="edge1" class="edge">
<title>R286&#45;&gt;R28</title>
<path fill="none" stroke="black" stroke-width="5" d="M678.36,-153.22C690.99,-169.18 709.99,-189.12 732,-198.84 895.43,-271.01 1114.06,-252.19 1216.49,-237.57"/>
<polygon fill="black" stroke="black" stroke-width="5" points="1212.63,-246.1 1231.1,-234.46 1210.01,-228.79 1212.63,-246.1"/>
<text text-anchor="middle" x="968" y="-259.84" font-family="Times New Roman,serif" font-size="30.00"> &#160;&#160;388 &#160;&#160;99% &#160;&#160;8.85 mol/s &#160;&#160;&#160;4.83E&#45;08</text>
</g>
<!-- R14 -->
<g id="node3" class="node">
<title>R14</title>
<g id="a_node3"><a xlink:href="14.svg" xlink:title="R14">
<polygon fill="azure" stroke="none" points="1313,-186.34 1237,-186.34 1237,-139.34 1313,-139.34 1313,-186.34"/>
<text text-anchor="middle" x="1275" y="-154.34" font-family="Times New Roman,serif" font-size="35.00">R14</text>
</a>
</g>
</g>
<!-- R286&#45;&gt;R14 -->
<g id="edge2" class="edge">
<title>R286&#45;&gt;R14</title>
<path fill="none" stroke="black" stroke-width="5" d="M707.84,-137.82C715.87,-139 724.16,-140.07 732,-140.84 907.82,-158.17 1117.01,-161.92 1216.25,-162.68"/>
<polygon fill="black" stroke="black" stroke-width="5" points="1211.04,-171.44 1231.1,-162.81 1211.15,-153.94 1211.04,-171.44"/>
<text text-anchor="middle" x="968" y="-170.84" font-family="Times New Roman,serif" font-size="30.00"> &#160;&#160;388 &#160;&#160;99% &#160;&#160;8.85 mol/s &#160;&#160;&#160;4.83E&#45;08</text>
</g>
<!-- R0 -->
<g id="node4" class="node">
<title>R0</title>
<g id="a_node4"><a xlink:href="0.svg" xlink:title="R0">
<polygon fill="azure" stroke="none" points="1304,-121.34 1246,-121.34 1246,-74.34 1304,-74.34 1304,-121.34"/>
<text text-anchor="middle" x="1275" y="-89.34" font-family="Times New Roman,serif" font-size="35.00">R0</text>
</a>
</g>
</g>
<!-- R286&#45;&gt;R0 -->
<g id="edge3" class="edge">
<title>R286&#45;&gt;R0</title>
<path fill="none" stroke="black" d="M707.86,-113.38C715.82,-111.12 724.08,-109.13 732,-107.84 918.43,-77.47 1145.68,-88.58 1235.15,-94.79"/>
<polygon fill="black" stroke="black" points="1234.89,-98.35 1245.11,-95.58 1235.39,-91.37 1234.89,-98.35"/>
<text text-anchor="middle" x="968" y="-116.84" font-family="Times New Roman,serif" font-size="30.00"> &#160;&#160;528 &#160;&#160;0% &#160;&#160;2.82e&#45;07 mol/s &#160;&#160;&#160;3.76E&#45;01</text>
</g>
<!-- R250 -->
<g id="node5" class="node">
<title>R250</title>
<g id="a_node5"><a xlink:href="250.svg" xlink:title="R250">
<polygon fill="azure" stroke="none" points="1322,-56.34 1228,-56.34 1228,-9.34 1322,-9.34 1322,-56.34"/>
<text text-anchor="middle" x="1275" y="-24.34" font-family="Times New Roman,serif" font-size="35.00">R250</text>
</a>
</g>
</g>
<!-- R286&#45;&gt;R250 -->
<g id="edge4" class="edge">
<title>R286&#45;&gt;R250</title>
<path fill="none" stroke="black" d="M675.27,-106.44C687.37,-87.65 707.12,-62.54 732,-50.84 894.15,25.39 1114.76,-1.78 1217.29,-20.73"/>
<polygon fill="black" stroke="black" points="1216.54,-24.34 1227.02,-22.77 1217.85,-17.47 1216.54,-24.34"/>
<text text-anchor="middle" x="968" y="-59.84" font-family="Times New Roman,serif" font-size="30.00"> &#160;&#160;528 &#160;&#160;0% &#160;&#160;2.82e&#45;07 mol/s &#160;&#160;&#160;3.76E&#45;01</text>
</g>
<!-- R346 -->
<g id="node6" class="node">
<title>R346</title>
<g id="a_node6"><a xlink:href="346.svg" xlink:title="R346">
<polygon fill="azure" stroke="none" points="94,-153.34 0,-153.34 0,-106.34 94,-106.34 94,-153.34"/>
<text text-anchor="middle" x="47" y="-121.34" font-family="Times New Roman,serif" font-size="35.00">R346</text>
</a>
</g>
</g>
<!-- R346&#45;&gt;R286 -->
<g id="edge5" class="edge">
<title>R346&#45;&gt;R286</title>
<path fill="none" stroke="black" stroke-width="5" d="M93.89,-135.23C96.97,-135.47 100.03,-135.68 103,-135.84 318.93,-147.59 378.59,-147.95 593.2,-136.36"/>
<polygon fill="black" stroke="black" stroke-width="5" points="588.62,-145.05 608.11,-135.23 587.67,-127.58 588.62,-145.05"/>
<text text-anchor="middle" x="354" y="-153.84" font-family="Times New Roman,serif" font-size="30.00"> &#160;&#160;975 &#160;&#160;99% &#160;&#160;1.67 mol/s &#160;&#160;&#160;3.91E&#45;04</text>
</g>
<!-- R346&#45;&gt;R286 -->
<g id="edge6" class="edge">
<title>R346&#45;&gt;R286</title>
<path fill="none" stroke="black" d="M83.56,-106.39C89.81,-103.28 96.43,-100.57 103,-98.84 318.8,-42.21 389.2,-42.21 605,-98.84 608.18,-99.68 611.38,-100.74 614.54,-101.98"/>
<polygon fill="black" stroke="black" points="612.88,-105.52 623.44,-106.39 615.73,-99.12 612.88,-105.52"/>
<text text-anchor="middle" x="354" y="-107.84" font-family="Times New Roman,serif" font-size="30.00"> &#160;&#160;1013 &#160;&#160;0% &#160;&#160;0.000654 mol/s &#160;&#160;&#160;1.00E+00</text>
</g>
</g>
</svg>
