<?xml version="1.0" encoding="UTF-8" standalone="no"?>
<!DOCTYPE svg PUBLIC "-//W3C//DTD SVG 1.1//EN"
 "http://www.w3.org/Graphics/SVG/1.1/DTD/svg11.dtd">
<!-- Generated by graphviz version 8.0.3 (20230416.2022)
 -->
<!-- Title: G Pages: 1 -->
<svg width="640pt" height="170pt"
 viewBox="0.00 0.00 720.00 191.45" xmlns="http://www.w3.org/2000/svg" xmlns:xlink="http://www.w3.org/1999/xlink">
<g id="graph0" class="graph" transform="scale(0.492308 0.492308) rotate(0) translate(4 341.67)">
<title>G</title>
<polygon fill="white" stroke="none" points="-4,4 -4,-341.67 1296,-341.67 1296,4 -4,4"/>
<text text-anchor="middle" x="646" y="-304.87" font-family="Arial" font-size="36.00" fill="blue">Reaction Path Analysis</text>
<!-- R288 -->
<g id="node1" class="node">
<title>R288</title>
<g id="a_node1"><a xlink:href="288.svg" xlink:title="R288">
<polygon fill="azure" stroke="none" points="693,-156.17 599,-156.17 599,-109.17 693,-109.17 693,-156.17"/>
<text text-anchor="middle" x="646" y="-124.17" font-family="Times New Roman,serif" font-size="35.00">R288</text>
</a>
</g>
</g>
<!-- R29 -->
<g id="node2" class="node">
<title>R29</title>
<g id="a_node2"><a xlink:href="29.svg" xlink:title="R29">
<polygon fill="azure" stroke="none" points="1283,-254.17 1207,-254.17 1207,-207.17 1283,-207.17 1283,-254.17"/>
<text text-anchor="middle" x="1245" y="-222.17" font-family="Times New Roman,serif" font-size="35.00">R29</text>
</a>
</g>
</g>
<!-- R288&#45;&gt;R29 -->
<g id="edge1" class="edge">
<title>R288&#45;&gt;R29</title>
<path fill="none" stroke="black" stroke-width="5" d="M660.73,-156C671.69,-172.22 688.64,-192.67 709.5,-202.67 868.35,-278.84 1085.07,-257.55 1186.82,-241.37"/>
<polygon fill="black" stroke="black" stroke-width="5" points="1183.02,-250.88 1201.29,-238.94 1180.12,-233.62 1183.02,-250.88"/>
<text text-anchor="middle" x="945.5" y="-265.67" font-family="Times New Roman,serif" font-size="30.00"> &#160;&#160;390 &#160;&#160;99% &#160;&#160;2600.0 mol/s &#160;&#160;&#160;1.65E&#45;10</text>
</g>
<!-- R14 -->
<g id="node3" class="node">
<title>R14</title>
<g id="a_node3"><a xlink:href="14.svg" xlink:title="R14">
<polygon fill="azure" stroke="none" points="1283,-189.17 1207,-189.17 1207,-142.17 1283,-142.17 1283,-189.17"/>
<text text-anchor="middle" x="1245" y="-157.17" font-family="Times New Roman,serif" font-size="35.00">R14</text>
</a>
</g>
</g>
<!-- R288&#45;&gt;R14 -->
<g id="edge2" class="edge">
<title>R288&#45;&gt;R14</title>
<path fill="none" stroke="black" stroke-width="5" d="M692.98,-141.48C698.53,-142.33 704.13,-143.09 709.5,-143.67 882.33,-162.35 1088.15,-165.48 1186.34,-165.8"/>
<polygon fill="black" stroke="black" stroke-width="5" points="1181.25,-174.56 1201.26,-165.84 1181.27,-157.06 1181.25,-174.56"/>
<text text-anchor="middle" x="945.5" y="-174.67" font-family="Times New Roman,serif" font-size="30.00"> &#160;&#160;390 &#160;&#160;99% &#160;&#160;2600.0 mol/s &#160;&#160;&#160;1.65E&#45;10</text>
</g>
<!-- R0 -->
<g id="node4" class="node">
<title>R0</title>
<g id="a_node4"><a xlink:href="0.svg" xlink:title="R0">
<polygon fill="azure" stroke="none" points="1274,-124.17 1216,-124.17 1216,-77.17 1274,-77.17 1274,-124.17"/>
<text text-anchor="middle" x="1245" y="-92.17" font-family="Times New Roman,serif" font-size="35.00">R0</text>
</a>
</g>
</g>
<!-- R288&#45;&gt;R0 -->
<g id="edge3" class="edge">
<title>R288&#45;&gt;R0</title>
<path fill="none" stroke="black" d="M692.97,-114.64C698.47,-113.04 704.07,-111.65 709.5,-110.67 892.59,-77.62 1116.69,-90.2 1205.3,-97.21"/>
<polygon fill="black" stroke="black" points="1204.9,-100.77 1215.16,-98.1 1205.47,-93.79 1204.9,-100.77"/>
<text text-anchor="middle" x="945.5" y="-119.67" font-family="Times New Roman,serif" font-size="30.00"> &#160;&#160;530 &#160;&#160;0% &#160;&#160;1.53e&#45;05 mol/s &#160;&#160;&#160;2.64E&#45;02</text>
</g>
<!-- R251 -->
<g id="node5" class="node">
<title>R251</title>
<g id="a_node5"><a xlink:href="251.svg" xlink:title="R251">
<polygon fill="azure" stroke="none" points="1292,-59.17 1198,-59.17 1198,-12.17 1292,-12.17 1292,-59.17"/>
<text text-anchor="middle" x="1245" y="-27.17" font-family="Times New Roman,serif" font-size="35.00">R251</text>
</a>
</g>
</g>
<!-- R288&#45;&gt;R251 -->
<g id="edge4" class="edge">
<title>R288&#45;&gt;R251</title>
<path fill="none" stroke="black" d="M657.94,-109.41C668.29,-90.38 685.77,-64.72 709.5,-52.67 867.06,27.3 1085.76,-2.23 1187.61,-22.66"/>
<polygon fill="black" stroke="black" points="1186.77,-26.26 1197.27,-24.85 1188.18,-19.41 1186.77,-26.26"/>
<text text-anchor="middle" x="945.5" y="-61.67" font-family="Times New Roman,serif" font-size="30.00"> &#160;&#160;530 &#160;&#160;0% &#160;&#160;1.53e&#45;05 mol/s &#160;&#160;&#160;2.64E&#45;02</text>
</g>
<!-- R176 -->
<g id="node6" class="node">
<title>R176</title>
<g id="a_node6"><a xlink:href="176.svg" xlink:title="R176">
<polygon fill="azure" stroke="none" points="94,-156.17 0,-156.17 0,-109.17 94,-109.17 94,-156.17"/>
<text text-anchor="middle" x="47" y="-124.17" font-family="Times New Roman,serif" font-size="35.00">R176</text>
</a>
</g>
</g>
<!-- R176&#45;&gt;R288 -->
<g id="edge5" class="edge">
<title>R176&#45;&gt;R288</title>
<path fill="none" stroke="black" d="M93.89,-138.05C96.97,-138.3 100.03,-138.51 103,-138.67 315.64,-150.23 372.07,-150.42 588.36,-138.64"/>
<polygon fill="black" stroke="black" points="588.32,-142.09 598.11,-138.05 587.94,-135.1 588.32,-142.09"/>
<text text-anchor="middle" x="346.5" y="-155.67" font-family="Times New Roman,serif" font-size="30.00"> &#160;&#160;694 &#160;&#160;0% &#160;&#160;0.000654 mol/s &#160;&#160;&#160;1.00E+00</text>
</g>
<!-- R176&#45;&gt;R288 -->
<g id="edge6" class="edge">
<title>R176&#45;&gt;R288</title>
<path fill="none" stroke="black" stroke-width="5" d="M83.56,-109.22C89.81,-106.1 96.43,-103.39 103,-101.67 306.12,-48.37 376.45,-46.78 589.42,-103.8"/>
<polygon fill="black" stroke="black" stroke-width="5" points="581.85,-111.44 603.44,-108.22 586.42,-94.55 581.85,-111.44"/>
<text text-anchor="middle" x="346.5" y="-110.67" font-family="Times New Roman,serif" font-size="30.00"> &#160;&#160;976 &#160;&#160;99% &#160;&#160;43.3 mol/s &#160;&#160;&#160;1.51E&#45;05</text>
</g>
</g>
</svg>
