<?xml version="1.0" encoding="UTF-8" standalone="no"?>
<!DOCTYPE svg PUBLIC "-//W3C//DTD SVG 1.1//EN"
 "http://www.w3.org/Graphics/SVG/1.1/DTD/svg11.dtd">
<!-- Generated by graphviz version 8.0.3 (20230416.2022)
 -->
<!-- Title: G Pages: 1 -->
<svg width="635pt" height="158pt"
 viewBox="0.00 0.00 714.00 177.50" xmlns="http://www.w3.org/2000/svg" xmlns:xlink="http://www.w3.org/1999/xlink">
<g id="graph0" class="graph" transform="scale(0.888889 0.888889) rotate(0) translate(4 173.5)">
<title>G</title>
<polygon fill="white" stroke="none" points="-4,4 -4,-173.5 710,-173.5 710,4 -4,4"/>
<text text-anchor="middle" x="353" y="-136.7" font-family="Arial" font-size="36.00" fill="blue">Reaction Path Analysis</text>
<!-- R289 -->
<g id="node1" class="node">
<title>R289</title>
<g id="a_node1"><a xlink:href="289.svg" xlink:title="R289">
<polygon fill="azure" stroke="none" points="94,-79 0,-79 0,-32 94,-32 94,-79"/>
<text text-anchor="middle" x="47" y="-47" font-family="Times New Roman,serif" font-size="35.00">R289</text>
</a>
</g>
</g>
<!-- R14 -->
<g id="node2" class="node">
<title>R14</title>
<g id="a_node2"><a xlink:href="14.svg" xlink:title="R14">
<polygon fill="azure" stroke="none" points="706,-112 630,-112 630,-65 706,-65 706,-112"/>
<text text-anchor="middle" x="668" y="-80" font-family="Times New Roman,serif" font-size="35.00">R14</text>
</a>
</g>
</g>
<!-- R289&#45;&gt;R14 -->
<g id="edge1" class="edge">
<title>R289&#45;&gt;R14</title>
<path fill="none" stroke="black" stroke-width="6" d="M93.83,-65.23C96.92,-65.71 100,-66.14 103,-66.5 287.06,-88.36 507.05,-89.93 609.37,-89.25"/>
<polygon fill="black" stroke="black" stroke-width="6" points="604.31,-99.75 624.22,-89.07 604.13,-78.75 604.31,-99.75"/>
<text text-anchor="middle" x="357.5" y="-97.5" font-family="Times New Roman,serif" font-size="30.00"> &#160;&#160;391 &#160;&#160;100% &#160;&#160;116000.0 mol/s &#160;&#160;&#160;3.69E&#45;12</text>
</g>
<!-- R30 -->
<g id="node3" class="node">
<title>R30</title>
<g id="a_node3"><a xlink:href="30.svg" xlink:title="R30">
<polygon fill="azure" stroke="none" points="706,-47 630,-47 630,0 706,0 706,-47"/>
<text text-anchor="middle" x="668" y="-15" font-family="Times New Roman,serif" font-size="35.00">R30</text>
</a>
</g>
</g>
<!-- R289&#45;&gt;R30 -->
<g id="edge2" class="edge">
<title>R289&#45;&gt;R30</title>
<path fill="none" stroke="black" stroke-width="6" d="M93.84,-35.76C96.9,-34.88 99.98,-34.11 103,-33.5 285,3.23 506.76,-8.96 609.57,-17.76"/>
<polygon fill="black" stroke="black" stroke-width="6" points="603.35,-28.28 624.22,-19.62 605.24,-7.36 603.35,-28.28"/>
<text text-anchor="middle" x="357.5" y="-42.5" font-family="Times New Roman,serif" font-size="30.00"> &#160;&#160;391 &#160;&#160;100% &#160;&#160;116000.0 mol/s &#160;&#160;&#160;3.69E&#45;12</text>
</g>
</g>
</svg>
