<?xml version="1.0" encoding="UTF-8" standalone="no"?>
<!DOCTYPE svg PUBLIC "-//W3C//DTD SVG 1.1//EN"
 "http://www.w3.org/Graphics/SVG/1.1/DTD/svg11.dtd">
<!-- Generated by graphviz version 8.0.3 (20230416.2022)
 -->
<!-- Title: G Pages: 1 -->
<svg width="616pt" height="481pt"
 viewBox="0.00 0.00 693.00 541.00" xmlns="http://www.w3.org/2000/svg" xmlns:xlink="http://www.w3.org/1999/xlink">
<g id="graph0" class="graph" transform="scale(0.888889 0.888889) rotate(0) translate(4 537)">
<title>G</title>
<polygon fill="white" stroke="none" points="-4,4 -4,-537 689,-537 689,4 -4,4"/>
<text text-anchor="middle" x="342.5" y="-500.2" font-family="Arial" font-size="36.00" fill="blue">Reaction Path Analysis</text>
<!-- R292 -->
<g id="node1" class="node">
<title>R292</title>
<g id="a_node1"><a xlink:href="292.svg" xlink:title="R292">
<polygon fill="azure" stroke="none" points="94,-256.5 0,-256.5 0,-209.5 94,-209.5 94,-256.5"/>
<text text-anchor="middle" x="47" y="-224.5" font-family="Times New Roman,serif" font-size="35.00">R292</text>
</a>
</g>
</g>
<!-- R41 -->
<g id="node2" class="node">
<title>R41</title>
<g id="a_node2"><a xlink:href="41.svg" xlink:title="R41">
<polygon fill="azure" stroke="none" points="676,-461.5 600,-461.5 600,-414.5 676,-414.5 676,-461.5"/>
<text text-anchor="middle" x="638" y="-429.5" font-family="Times New Roman,serif" font-size="35.00">R41</text>
</a>
</g>
</g>
<!-- R292&#45;&gt;R41 -->
<g id="edge1" class="edge">
<title>R292&#45;&gt;R41</title>
<path fill="none" stroke="black" stroke-width="5" d="M47.42,-256.42C47.87,-295.6 55.12,-373.78 103,-411 175.78,-467.58 457.04,-452.62 579.49,-443.07"/>
<polygon fill="black" stroke="black" stroke-width="5" points="574.86,-451.74 594.08,-441.4 573.44,-434.3 574.86,-451.74"/>
<text text-anchor="middle" x="342.5" y="-461" font-family="Times New Roman,serif" font-size="30.00"> &#160;&#160;396 &#160;&#160;80% &#160;&#160;0.0452 mol/s &#160;&#160;&#160;9.45E&#45;06</text>
</g>
<!-- R14 -->
<g id="node3" class="node">
<title>R14</title>
<g id="a_node3"><a xlink:href="14.svg" xlink:title="R14">
<polygon fill="azure" stroke="none" points="676,-396.5 600,-396.5 600,-349.5 676,-349.5 676,-396.5"/>
<text text-anchor="middle" x="638" y="-364.5" font-family="Times New Roman,serif" font-size="35.00">R14</text>
</a>
</g>
</g>
<!-- R292&#45;&gt;R14 -->
<g id="edge2" class="edge">
<title>R292&#45;&gt;R14</title>
<path fill="none" stroke="black" stroke-width="5" d="M51.53,-256.3C57.1,-284.12 70.84,-329.57 103,-351 141.87,-376.91 449.94,-375.67 579.7,-373.97"/>
<polygon fill="black" stroke="black" stroke-width="5" points="574.47,-382.71 594.34,-373.67 574.22,-365.21 574.47,-382.71"/>
<text text-anchor="middle" x="342.5" y="-383" font-family="Times New Roman,serif" font-size="30.00"> &#160;&#160;396 &#160;&#160;80% &#160;&#160;0.0452 mol/s &#160;&#160;&#160;9.45E&#45;06</text>
</g>
<!-- R85 -->
<g id="node4" class="node">
<title>R85</title>
<g id="a_node4"><a xlink:href="85.svg" xlink:title="R85">
<polygon fill="azure" stroke="none" points="676,-315.5 600,-315.5 600,-268.5 676,-268.5 676,-315.5"/>
<text text-anchor="middle" x="638" y="-283.5" font-family="Times New Roman,serif" font-size="35.00">R85</text>
</a>
</g>
</g>
<!-- R292&#45;&gt;R85 -->
<g id="edge3" class="edge">
<title>R292&#45;&gt;R85</title>
<path fill="none" stroke="black" d="M61.59,-256.44C71.17,-270.48 85.42,-287.1 103,-295 188.92,-333.64 474.97,-309.04 589.24,-297.26"/>
<polygon fill="black" stroke="black" points="589.49,-300.65 599.07,-296.13 588.76,-293.69 589.49,-300.65"/>
<text text-anchor="middle" x="342.5" y="-324" font-family="Times New Roman,serif" font-size="30.00"> &#160;&#160;471 &#160;&#160;5% &#160;&#160;0.00324 mol/s &#160;&#160;&#160;1.44E&#45;01</text>
</g>
<!-- R292&#45;&gt;R85 -->
<g id="edge6" class="edge">
<title>R292&#45;&gt;R85</title>
<path fill="none" stroke="black" d="M93.89,-238.25C96.97,-238.53 100.03,-238.78 103,-239 209.24,-246.9 480.13,-226.86 582,-258 586.59,-259.41 591.19,-261.29 595.65,-263.46"/>
<polygon fill="black" stroke="black" points="593.71,-266.92 604.18,-268.57 597.02,-260.75 593.71,-266.92"/>
<text text-anchor="middle" x="342.5" y="-267" font-family="Times New Roman,serif" font-size="30.00"> &#160;&#160;773 &#160;&#160;0% &#160;&#160;0.000544 mol/s &#160;&#160;&#160;8.56E&#45;01</text>
</g>
<!-- R0 -->
<g id="node5" class="node">
<title>R0</title>
<g id="a_node5"><a xlink:href="0.svg" xlink:title="R0">
<polygon fill="azure" stroke="none" points="667,-233.5 609,-233.5 609,-186.5 667,-186.5 667,-233.5"/>
<text text-anchor="middle" x="638" y="-201.5" font-family="Times New Roman,serif" font-size="35.00">R0</text>
</a>
</g>
</g>
<!-- R292&#45;&gt;R0 -->
<g id="edge4" class="edge">
<title>R292&#45;&gt;R0</title>
<path fill="none" stroke="black" d="M91.16,-209.6C95.08,-208.16 99.06,-206.92 103,-206 284.44,-163.87 509.98,-190.33 598.66,-203.67"/>
<polygon fill="black" stroke="black" points="597.86,-207.25 608.27,-205.31 598.92,-200.33 597.86,-207.25"/>
<text text-anchor="middle" x="342.5" y="-215" font-family="Times New Roman,serif" font-size="30.00"> &#160;&#160;533 &#160;&#160;0% &#160;&#160;4.44e&#45;06 mol/s &#160;&#160;&#160;8.08E&#45;02</text>
</g>
<!-- R255 -->
<g id="node6" class="node">
<title>R255</title>
<g id="a_node6"><a xlink:href="255.svg" xlink:title="R255">
<polygon fill="azure" stroke="none" points="685,-168.5 591,-168.5 591,-121.5 685,-121.5 685,-168.5"/>
<text text-anchor="middle" x="638" y="-136.5" font-family="Times New Roman,serif" font-size="35.00">R255</text>
</a>
</g>
</g>
<!-- R292&#45;&gt;R255 -->
<g id="edge5" class="edge">
<title>R292&#45;&gt;R255</title>
<path fill="none" stroke="black" d="M55.45,-209.72C63.51,-188.84 78.6,-159.48 103,-146 143.91,-123.42 451.62,-135.79 580.49,-142.06"/>
<polygon fill="black" stroke="black" points="580.14,-145.6 590.3,-142.6 580.48,-138.61 580.14,-145.6"/>
<text text-anchor="middle" x="342.5" y="-155" font-family="Times New Roman,serif" font-size="30.00"> &#160;&#160;533 &#160;&#160;0% &#160;&#160;4.44e&#45;06 mol/s &#160;&#160;&#160;8.08E&#45;02</text>
</g>
<!-- R220 -->
<g id="node7" class="node">
<title>R220</title>
<g id="a_node7"><a xlink:href="220.svg" xlink:title="R220">
<polygon fill="azure" stroke="none" points="685,-80.5 591,-80.5 591,-33.5 685,-33.5 685,-80.5"/>
<text text-anchor="middle" x="638" y="-48.5" font-family="Times New Roman,serif" font-size="35.00">R220</text>
</a>
</g>
</g>
<!-- R292&#45;&gt;R220 -->
<g id="edge7" class="edge">
<title>R292&#45;&gt;R220</title>
<path fill="none" stroke="black" d="M49.84,-209.55C53.72,-177.68 65.76,-121.63 103,-95 144.31,-65.46 494.15,-77.65 580.47,-70.57"/>
<polygon fill="black" stroke="black" points="580.67,-73.96 590.22,-69.38 579.9,-67 580.67,-73.96"/>
<text text-anchor="middle" x="342.5" y="-104" font-family="Times New Roman,serif" font-size="30.00"> &#160;&#160;774 &#160;&#160;1% &#160;&#160;0.000592 mol/s &#160;&#160;&#160;9.14E&#45;01</text>
</g>
<!-- R292&#45;&gt;R220 -->
<g id="edge8" class="edge">
<title>R292&#45;&gt;R220</title>
<path fill="none" stroke="black" d="M50.94,-209.57C57.48,-161.7 74.91,-55.39 103,-34 185.22,28.57 460.82,-10.6 580.78,-34.21"/>
<polygon fill="black" stroke="black" points="579.71,-37.77 590.21,-36.31 581.09,-30.91 579.71,-37.77"/>
<text text-anchor="middle" x="342.5" y="-43" font-family="Times New Roman,serif" font-size="30.00"> &#160;&#160;959 &#160;&#160;11% &#160;&#160;0.00627 mol/s &#160;&#160;&#160;8.63E&#45;02</text>
</g>
</g>
</svg>
