<?xml version="1.0" encoding="UTF-8" standalone="no"?>
<!DOCTYPE svg PUBLIC "-//W3C//DTD SVG 1.1//EN"
 "http://www.w3.org/Graphics/SVG/1.1/DTD/svg11.dtd">
<!-- Generated by graphviz version 8.0.3 (20230416.2022)
 -->
<!-- Title: G Pages: 1 -->
<svg width="640pt" height="176pt"
 viewBox="0.00 0.00 720.00 198.10" xmlns="http://www.w3.org/2000/svg" xmlns:xlink="http://www.w3.org/1999/xlink">
<g id="graph0" class="graph" transform="scale(0.498442 0.498442) rotate(0) translate(4 349.28)">
<title>G</title>
<polygon fill="white" stroke="none" points="-4,4 -4,-349.28 1280,-349.28 1280,4 -4,4"/>
<text text-anchor="middle" x="638" y="-312.48" font-family="Arial" font-size="36.00" fill="blue">Reaction Path Analysis</text>
<!-- R293 -->
<g id="node1" class="node">
<title>R293</title>
<g id="a_node1"><a xlink:href="293.svg" xlink:title="R293">
<polygon fill="azure" stroke="none" points="685,-160.78 591,-160.78 591,-113.78 685,-113.78 685,-160.78"/>
<text text-anchor="middle" x="638" y="-128.78" font-family="Times New Roman,serif" font-size="35.00">R293</text>
</a>
</g>
</g>
<!-- R41 -->
<g id="node2" class="node">
<title>R41</title>
<g id="a_node2"><a xlink:href="41.svg" xlink:title="R41">
<polygon fill="azure" stroke="none" points="1267,-258.78 1191,-258.78 1191,-211.78 1267,-211.78 1267,-258.78"/>
<text text-anchor="middle" x="1229" y="-226.78" font-family="Times New Roman,serif" font-size="35.00">R41</text>
</a>
</g>
</g>
<!-- R293&#45;&gt;R41 -->
<g id="edge1" class="edge">
<title>R293&#45;&gt;R41</title>
<path fill="none" stroke="black" stroke-width="5" d="M650.42,-160.55C659.73,-176.74 674.52,-197.17 694,-207.28 850.42,-288.44 1068.47,-264.63 1170.75,-246.9"/>
<polygon fill="black" stroke="black" stroke-width="5" points="1167.23,-256.35 1185.33,-244.14 1164.08,-239.13 1167.23,-256.35"/>
<text text-anchor="middle" x="933.5" y="-273.28" font-family="Times New Roman,serif" font-size="30.00"> &#160;&#160;397 &#160;&#160;99% &#160;&#160;8.33 mol/s &#160;&#160;&#160;5.13E&#45;08</text>
</g>
<!-- R14 -->
<g id="node3" class="node">
<title>R14</title>
<g id="a_node3"><a xlink:href="14.svg" xlink:title="R14">
<polygon fill="azure" stroke="none" points="1267,-193.78 1191,-193.78 1191,-146.78 1267,-146.78 1267,-193.78"/>
<text text-anchor="middle" x="1229" y="-161.78" font-family="Times New Roman,serif" font-size="35.00">R14</text>
</a>
</g>
</g>
<!-- R293&#45;&gt;R14 -->
<g id="edge2" class="edge">
<title>R293&#45;&gt;R14</title>
<path fill="none" stroke="black" stroke-width="5" d="M684.83,-147C687.92,-147.49 691,-147.92 694,-148.28 866.44,-168.95 1072.18,-171.15 1170.35,-170.85"/>
<polygon fill="black" stroke="black" stroke-width="5" points="1165.31,-179.59 1185.26,-170.74 1165.22,-162.09 1165.31,-179.59"/>
<text text-anchor="middle" x="933.5" y="-179.28" font-family="Times New Roman,serif" font-size="30.00"> &#160;&#160;397 &#160;&#160;99% &#160;&#160;8.33 mol/s &#160;&#160;&#160;5.13E&#45;08</text>
</g>
<!-- R0 -->
<g id="node4" class="node">
<title>R0</title>
<g id="a_node4"><a xlink:href="0.svg" xlink:title="R0">
<polygon fill="azure" stroke="none" points="1258,-128.78 1200,-128.78 1200,-81.78 1258,-81.78 1258,-128.78"/>
<text text-anchor="middle" x="1229" y="-96.78" font-family="Times New Roman,serif" font-size="35.00">R0</text>
</a>
</g>
</g>
<!-- R293&#45;&gt;R0 -->
<g id="edge3" class="edge">
<title>R293&#45;&gt;R0</title>
<path fill="none" stroke="black" d="M684.84,-117.55C687.91,-116.66 690.98,-115.89 694,-115.28 876.19,-78.42 1100.49,-93.16 1189.23,-101.28"/>
<polygon fill="black" stroke="black" points="1188.82,-104.85 1199.11,-102.31 1189.48,-97.89 1188.82,-104.85"/>
<text text-anchor="middle" x="933.5" y="-124.28" font-family="Times New Roman,serif" font-size="30.00"> &#160;&#160;534 &#160;&#160;0% &#160;&#160;0.000895 mol/s &#160;&#160;&#160;4.77E&#45;04</text>
</g>
<!-- R255 -->
<g id="node5" class="node">
<title>R255</title>
<g id="a_node5"><a xlink:href="255.svg" xlink:title="R255">
<polygon fill="azure" stroke="none" points="1276,-63.78 1182,-63.78 1182,-16.78 1276,-16.78 1276,-63.78"/>
<text text-anchor="middle" x="1229" y="-31.78" font-family="Times New Roman,serif" font-size="35.00">R255</text>
</a>
</g>
</g>
<!-- R293&#45;&gt;R255 -->
<g id="edge4" class="edge">
<title>R293&#45;&gt;R255</title>
<path fill="none" stroke="black" d="M647.56,-113.91C656.07,-94.41 671.18,-67.86 694,-55.28 848.75,30.07 1069,-3.33 1171.49,-25.99"/>
<polygon fill="black" stroke="black" points="1170.69,-29.62 1181.22,-28.41 1172.24,-22.79 1170.69,-29.62"/>
<text text-anchor="middle" x="933.5" y="-64.28" font-family="Times New Roman,serif" font-size="30.00"> &#160;&#160;534 &#160;&#160;0% &#160;&#160;0.000895 mol/s &#160;&#160;&#160;4.77E&#45;04</text>
</g>
<!-- R147 -->
<g id="node6" class="node">
<title>R147</title>
<g id="a_node6"><a xlink:href="147.svg" xlink:title="R147">
<polygon fill="azure" stroke="none" points="94,-160.78 0,-160.78 0,-113.78 94,-113.78 94,-160.78"/>
<text text-anchor="middle" x="47" y="-128.78" font-family="Times New Roman,serif" font-size="35.00">R147</text>
</a>
</g>
</g>
<!-- R147&#45;&gt;R293 -->
<g id="edge5" class="edge">
<title>R147&#45;&gt;R293</title>
<path fill="none" stroke="black" d="M93.89,-142.66C96.97,-142.91 100.03,-143.12 103,-143.28 312.05,-154.65 367.59,-154.84 580.21,-143.26"/>
<polygon fill="black" stroke="black" points="580.32,-146.7 590.11,-142.66 579.94,-139.71 580.32,-146.7"/>
<text text-anchor="middle" x="342.5" y="-160.28" font-family="Times New Roman,serif" font-size="30.00"> &#160;&#160;671 &#160;&#160;0% &#160;&#160;0.000654 mol/s &#160;&#160;&#160;9.99E&#45;01</text>
</g>
<!-- R147&#45;&gt;R293 -->
<g id="edge6" class="edge">
<title>R147&#45;&gt;R293</title>
<path fill="none" stroke="black" stroke-width="5" d="M83.56,-113.83C89.81,-110.71 96.43,-108 103,-106.28 302.68,-53.88 371.89,-52.29 581.4,-108.4"/>
<polygon fill="black" stroke="black" stroke-width="5" points="573.85,-116.05 595.44,-112.83 578.42,-99.15 573.85,-116.05"/>
<text text-anchor="middle" x="342.5" y="-115.28" font-family="Times New Roman,serif" font-size="30.00"> &#160;&#160;978 &#160;&#160;99% &#160;&#160;1.12 mol/s &#160;&#160;&#160;5.86E&#45;04</text>
</g>
</g>
</svg>
