<?xml version="1.0" encoding="UTF-8" standalone="no"?>
<!DOCTYPE svg PUBLIC "-//W3C//DTD SVG 1.1//EN"
 "http://www.w3.org/Graphics/SVG/1.1/DTD/svg11.dtd">
<!-- Generated by graphviz version 8.0.3 (20230416.2022)
 -->
<!-- Title: G Pages: 1 -->
<svg width="640pt" height="174pt"
 viewBox="0.00 0.00 720.00 195.43" xmlns="http://www.w3.org/2000/svg" xmlns:xlink="http://www.w3.org/1999/xlink">
<g id="graph0" class="graph" transform="scale(0.487062 0.487062) rotate(0) translate(4 352.65)">
<title>G</title>
<polygon fill="white" stroke="none" points="-4,4 -4,-352.65 1310,-352.65 1310,4 -4,4"/>
<text text-anchor="middle" x="653" y="-315.85" font-family="Arial" font-size="36.00" fill="blue">Reaction Path Analysis</text>
<!-- R294 -->
<g id="node1" class="node">
<title>R294</title>
<g id="a_node1"><a xlink:href="294.svg" xlink:title="R294">
<polygon fill="azure" stroke="none" points="700,-171.15 606,-171.15 606,-124.15 700,-124.15 700,-171.15"/>
<text text-anchor="middle" x="653" y="-139.15" font-family="Times New Roman,serif" font-size="35.00">R294</text>
</a>
</g>
</g>
<!-- R42 -->
<g id="node2" class="node">
<title>R42</title>
<g id="a_node2"><a xlink:href="42.svg" xlink:title="R42">
<polygon fill="azure" stroke="none" points="1297,-264.15 1221,-264.15 1221,-217.15 1297,-217.15 1297,-264.15"/>
<text text-anchor="middle" x="1259" y="-232.15" font-family="Times New Roman,serif" font-size="35.00">R42</text>
</a>
</g>
</g>
<!-- R294&#45;&gt;R42 -->
<g id="edge1" class="edge">
<title>R294&#45;&gt;R42</title>
<path fill="none" stroke="black" stroke-width="4" d="M667.14,-170.86C676.71,-185.35 691.12,-202.86 709,-211.65 872.17,-291.85 1096.48,-268.76 1200.6,-251.68"/>
<polygon fill="black" stroke="black" stroke-width="4" points="1197.7,-259.42 1216.22,-249.12 1195.32,-245.63 1197.7,-259.42"/>
<text text-anchor="middle" x="956" y="-276.65" font-family="Times New Roman,serif" font-size="30.00"> &#160;&#160;398 &#160;&#160;79% &#160;&#160;0.0115 mol/s &#160;&#160;&#160;3.71E&#45;05</text>
</g>
<!-- R14 -->
<g id="node3" class="node">
<title>R14</title>
<g id="a_node3"><a xlink:href="14.svg" xlink:title="R14">
<polygon fill="azure" stroke="none" points="1297,-199.15 1221,-199.15 1221,-152.15 1297,-152.15 1297,-199.15"/>
<text text-anchor="middle" x="1259" y="-167.15" font-family="Times New Roman,serif" font-size="35.00">R14</text>
</a>
</g>
</g>
<!-- R294&#45;&gt;R14 -->
<g id="edge2" class="edge">
<title>R294&#45;&gt;R14</title>
<path fill="none" stroke="black" stroke-width="4" d="M699.89,-152.9C702.97,-153.18 706.03,-153.43 709,-153.65 887.86,-166.98 1100.15,-172.6 1200.27,-174.64"/>
<polygon fill="black" stroke="black" stroke-width="4" points="1194.87,-181.65 1215,-175.05 1195.14,-167.66 1194.87,-181.65"/>
<text text-anchor="middle" x="956" y="-183.65" font-family="Times New Roman,serif" font-size="30.00"> &#160;&#160;398 &#160;&#160;79% &#160;&#160;0.0115 mol/s &#160;&#160;&#160;3.71E&#45;05</text>
</g>
<!-- R373 -->
<g id="node6" class="node">
<title>R373</title>
<g id="a_node6"><a xlink:href="373.svg" xlink:title="R373">
<polygon fill="azure" stroke="none" points="1306,-111.15 1212,-111.15 1212,-64.15 1306,-64.15 1306,-111.15"/>
<text text-anchor="middle" x="1259" y="-79.15" font-family="Times New Roman,serif" font-size="35.00">R373</text>
</a>
</g>
</g>
<!-- R294&#45;&gt;R373 -->
<g id="edge5" class="edge">
<title>R294&#45;&gt;R373</title>
<path fill="none" stroke="black" d="M689.92,-124.26C696.08,-121.19 702.57,-118.47 709,-116.65 811.61,-87.61 1077.59,-108.32 1201.35,-97.55"/>
<polygon fill="black" stroke="black" points="1201.55,-100.95 1211.15,-96.49 1200.86,-93.98 1201.55,-100.95"/>
<text text-anchor="middle" x="956" y="-125.65" font-family="Times New Roman,serif" font-size="30.00"> &#160;&#160;775 &#160;&#160;3% &#160;&#160;0.000517 mol/s &#160;&#160;&#160;8.27E&#45;01</text>
</g>
<!-- R294&#45;&gt;R373 -->
<g id="edge8" class="edge">
<title>R294&#45;&gt;R373</title>
<path fill="none" stroke="black" d="M661.44,-124.36C669.5,-103.47 684.58,-74.1 709,-60.65 901.31,45.29 989.14,-10.99 1203,-60.65 1203.49,-60.77 1203.99,-60.89 1204.48,-61.01"/>
<polygon fill="black" stroke="black" points="1203.25,-64.61 1213.84,-64.25 1205.34,-57.93 1203.25,-64.61"/>
<text text-anchor="middle" x="956" y="-69.65" font-family="Times New Roman,serif" font-size="30.00"> &#160;&#160;1036 &#160;&#160;16% &#160;&#160;0.00246 mol/s &#160;&#160;&#160;1.73E&#45;01</text>
</g>
<!-- R0 -->
<g id="node4" class="node">
<title>R0</title>
<g id="a_node4"><a xlink:href="0.svg" xlink:title="R0">
<polygon fill="azure" stroke="none" points="76,-264.15 18,-264.15 18,-217.15 76,-217.15 76,-264.15"/>
<text text-anchor="middle" x="47" y="-232.15" font-family="Times New Roman,serif" font-size="35.00">R0</text>
</a>
</g>
</g>
<!-- R0&#45;&gt;R294 -->
<g id="edge3" class="edge">
<title>R0&#45;&gt;R294</title>
<path fill="none" stroke="black" d="M75.87,-246.46C159.9,-262.49 416.05,-300.59 597,-211.65 611.39,-204.58 623.53,-191.86 632.71,-179.61"/>
<polygon fill="black" stroke="black" points="635.97,-182.06 638.86,-171.86 630.25,-178.03 635.97,-182.06"/>
<text text-anchor="middle" x="350" y="-276.65" font-family="Times New Roman,serif" font-size="30.00"> &#160;&#160;535 &#160;&#160;0% &#160;&#160;4.25e&#45;07 mol/s &#160;&#160;&#160;9.94E&#45;01</text>
</g>
<!-- R256 -->
<g id="node5" class="node">
<title>R256</title>
<g id="a_node5"><a xlink:href="256.svg" xlink:title="R256">
<polygon fill="azure" stroke="none" points="94,-199.15 0,-199.15 0,-152.15 94,-152.15 94,-199.15"/>
<text text-anchor="middle" x="47" y="-167.15" font-family="Times New Roman,serif" font-size="35.00">R256</text>
</a>
</g>
</g>
<!-- R256&#45;&gt;R294 -->
<g id="edge4" class="edge">
<title>R256&#45;&gt;R294</title>
<path fill="none" stroke="black" d="M93.97,-174.88C186.61,-173.08 402.58,-167.73 595.21,-153.7"/>
<polygon fill="black" stroke="black" points="595.39,-157.12 605.11,-152.9 594.87,-150.14 595.39,-157.12"/>
<text text-anchor="middle" x="350" y="-183.65" font-family="Times New Roman,serif" font-size="30.00"> &#160;&#160;535 &#160;&#160;0% &#160;&#160;4.25e&#45;07 mol/s &#160;&#160;&#160;9.94E&#45;01</text>
</g>
<!-- R305 -->
<g id="node7" class="node">
<title>R305</title>
<g id="a_node7"><a xlink:href="305.svg" xlink:title="R305">
<polygon fill="azure" stroke="none" points="94,-111.15 0,-111.15 0,-64.15 94,-64.15 94,-111.15"/>
<text text-anchor="middle" x="47" y="-79.15" font-family="Times New Roman,serif" font-size="35.00">R305</text>
</a>
</g>
</g>
<!-- R305&#45;&gt;R294 -->
<g id="edge6" class="edge">
<title>R305&#45;&gt;R294</title>
<path fill="none" stroke="black" stroke-width="5" d="M93.85,-96.49C96.94,-96.93 100.01,-97.32 103,-97.65 206.66,-109.01 463.39,-88.97 595.92,-119"/>
<polygon fill="black" stroke="black" stroke-width="5" points="588.52,-126.68 610.08,-123.26 592.94,-109.75 588.52,-126.68"/>
<text text-anchor="middle" x="350" y="-125.65" font-family="Times New Roman,serif" font-size="30.00"> &#160;&#160;776 &#160;&#160;86% &#160;&#160;0.00365 mol/s &#160;&#160;&#160;1.32E&#45;01</text>
</g>
<!-- R305&#45;&gt;R294 -->
<g id="edge7" class="edge">
<title>R305&#45;&gt;R294</title>
<path fill="none" stroke="black" d="M91.16,-64.25C95.08,-62.8 99.06,-61.57 103,-60.65 316.86,-10.99 404.69,45.29 597,-60.65 617.7,-72.05 631.69,-94.89 640.38,-114.3"/>
<polygon fill="black" stroke="black" points="637.48,-115.47 644.56,-123.36 643.95,-112.78 637.48,-115.47"/>
<text text-anchor="middle" x="350" y="-69.65" font-family="Times New Roman,serif" font-size="30.00"> &#160;&#160;781 &#160;&#160;13% &#160;&#160;0.000555 mol/s &#160;&#160;&#160;8.68E&#45;01</text>
</g>
</g>
</svg>
