<?xml version="1.0" encoding="UTF-8" standalone="no"?>
<!DOCTYPE svg PUBLIC "-//W3C//DTD SVG 1.1//EN"
 "http://www.w3.org/Graphics/SVG/1.1/DTD/svg11.dtd">
<!-- Generated by graphviz version 8.0.3 (20230416.2022)
 -->
<!-- Title: G Pages: 1 -->
<svg width="312pt" height="640pt"
 viewBox="0.00 0.00 350.70 720.00" xmlns="http://www.w3.org/2000/svg" xmlns:xlink="http://www.w3.org/1999/xlink">
<g id="graph0" class="graph" transform="scale(0.226882 0.226882) rotate(0) translate(4 2816.85)">
<title>G</title>
<polygon fill="white" stroke="none" points="-4,4 -4,-2816.85 1370,-2816.85 1370,4 -4,4"/>
<text text-anchor="middle" x="683" y="-2780.05" font-family="Arial" font-size="36.00" fill="blue">Reaction Path Analysis</text>
<!-- R3 -->
<g id="node1" class="node">
<title>R3</title>
<g id="a_node1"><a xlink:href="3.svg" xlink:title="R3">
<polygon fill="azure" stroke="none" points="712,-1391.35 654,-1391.35 654,-1344.35 712,-1344.35 712,-1391.35"/>
<text text-anchor="middle" x="683" y="-1359.35" font-family="Times New Roman,serif" font-size="35.00">R3</text>
</a>
</g>
</g>
<!-- R1 -->
<g id="node2" class="node">
<title>R1</title>
<g id="a_node2"><a xlink:href="1.svg" xlink:title="R1">
<polygon fill="azure" stroke="none" points="1348,-1587.35 1290,-1587.35 1290,-1540.35 1348,-1540.35 1348,-1587.35"/>
<text text-anchor="middle" x="1319" y="-1555.35" font-family="Times New Roman,serif" font-size="35.00">R1</text>
</a>
</g>
</g>
<!-- R3&#45;&gt;R1 -->
<g id="edge1" class="edge">
<title>R3&#45;&gt;R1</title>
<path fill="none" stroke="black" d="M684.08,-1391.19C685.66,-1439.43 696.93,-1549.66 765,-1597.85 926.14,-1711.94 1184.41,-1621.21 1280.44,-1580.77"/>
<polygon fill="black" stroke="black" points="1281.46,-1583.71 1289.28,-1576.56 1278.71,-1577.27 1281.46,-1583.71"/>
<text text-anchor="middle" x="1001" y="-1661.85" font-family="Times New Roman,serif" font-size="30.00"> &#160;&#160;1 &#160;&#160;0% &#160;&#160;0.000437 mol/s &#160;&#160;&#160;9.76E&#45;04</text>
</g>
<!-- R3&#45;&gt;R1 -->
<g id="edge2" class="edge">
<title>R3&#45;&gt;R1</title>
<path fill="none" stroke="black" d="M687.12,-1391.12C693.72,-1429.98 713,-1507.22 765,-1541.85 766.34,-1542.74 1153.86,-1557.59 1279.31,-1562.38"/>
<polygon fill="black" stroke="black" points="1279.15,-1565.91 1289.27,-1562.79 1279.41,-1558.91 1279.15,-1565.91"/>
<text text-anchor="middle" x="1001" y="-1568.85" font-family="Times New Roman,serif" font-size="30.00"> &#160;&#160;1 &#160;&#160;0% &#160;&#160;0.000437 mol/s &#160;&#160;&#160;9.76E&#45;04</text>
</g>
<!-- R3&#45;&gt;R1 -->
<g id="edge3" class="edge">
<title>R3&#45;&gt;R1</title>
<path fill="none" stroke="black" d="M692.36,-1390.95C703.89,-1419.02 727.59,-1465.18 765,-1485.85 810.94,-1511.23 1187.43,-1487.6 1237,-1504.85 1254.69,-1511 1271.83,-1522.42 1285.75,-1533.58"/>
<polygon fill="black" stroke="black" points="1283.05,-1536.72 1292.97,-1540.44 1287.54,-1531.35 1283.05,-1536.72"/>
<text text-anchor="middle" x="1001" y="-1513.85" font-family="Times New Roman,serif" font-size="30.00"> &#160;&#160;1 &#160;&#160;0% &#160;&#160;0.000437 mol/s &#160;&#160;&#160;9.76E&#45;04</text>
</g>
<!-- R5 -->
<g id="node3" class="node">
<title>R5</title>
<g id="a_node3"><a xlink:href="5.svg" xlink:title="R5">
<polygon fill="azure" stroke="none" points="1348,-1475.35 1290,-1475.35 1290,-1428.35 1348,-1428.35 1348,-1475.35"/>
<text text-anchor="middle" x="1319" y="-1443.35" font-family="Times New Roman,serif" font-size="35.00">R5</text>
</a>
</g>
</g>
<!-- R3&#45;&gt;R5 -->
<g id="edge4" class="edge">
<title>R3&#45;&gt;R5</title>
<path fill="none" stroke="black" d="M711.82,-1387.79C726.83,-1397.44 746.11,-1408.16 765,-1413.85 861.45,-1442.9 1169.95,-1449.85 1279.2,-1451.42"/>
<polygon fill="black" stroke="black" points="1278.98,-1454.93 1289.03,-1451.56 1279.08,-1447.93 1278.98,-1454.93"/>
<text text-anchor="middle" x="1001" y="-1458.85" font-family="Times New Roman,serif" font-size="30.00"> &#160;&#160;4 &#160;&#160;0% &#160;&#160;4.23e&#45;07 mol/s &#160;&#160;&#160;9.90E&#45;01</text>
</g>
<!-- R14 -->
<g id="node9" class="node">
<title>R14</title>
<g id="a_node9"><a xlink:href="14.svg" xlink:title="R14">
<polygon fill="azure" stroke="none" points="1357,-1396.35 1281,-1396.35 1281,-1349.35 1357,-1349.35 1357,-1396.35"/>
<text text-anchor="middle" x="1319" y="-1364.35" font-family="Times New Roman,serif" font-size="35.00">R14</text>
</a>
</g>
</g>
<!-- R3&#45;&gt;R14 -->
<g id="edge10" class="edge">
<title>R3&#45;&gt;R14</title>
<path fill="none" stroke="black" d="M711.71,-1370.41C727.35,-1371.73 747.24,-1373.19 765,-1373.85 951.88,-1380.76 1174.53,-1376.58 1270.32,-1374.18"/>
<polygon fill="black" stroke="black" points="1270.19,-1377.66 1280.09,-1373.9 1270.01,-1370.66 1270.19,-1377.66"/>
<text text-anchor="middle" x="1001" y="-1385.85" font-family="Times New Roman,serif" font-size="30.00"> &#160;&#160;14 &#160;&#160;0% &#160;&#160;0.00065 mol/s &#160;&#160;&#160;9.94E&#45;01</text>
</g>
<!-- R3&#45;&gt;R14 -->
<g id="edge24" class="edge">
<title>R3&#45;&gt;R14</title>
<path fill="none" stroke="black" stroke-width="5" d="M711.75,-1354.33C727.06,-1347.62 746.64,-1340.24 765,-1336.85 868.14,-1317.79 1134.4,-1315.07 1237,-1336.85 1245.35,-1338.62 1253.88,-1341.31 1262.13,-1344.45"/>
<polygon fill="black" stroke="black" stroke-width="5" points="1254.36,-1350.78 1276.19,-1350.6 1261.24,-1334.69 1254.36,-1350.78"/>
<text text-anchor="middle" x="1001" y="-1345.85" font-family="Times New Roman,serif" font-size="30.00"> &#160;&#160;101 &#160;&#160;99% &#160;&#160;0.116 mol/s &#160;&#160;&#160;5.56E&#45;03</text>
</g>
<!-- R48 -->
<g id="node13" class="node">
<title>R48</title>
<g id="a_node13"><a xlink:href="48.svg" xlink:title="R48">
<polygon fill="azure" stroke="none" points="1357,-1316.35 1281,-1316.35 1281,-1269.35 1357,-1269.35 1357,-1316.35"/>
<text text-anchor="middle" x="1319" y="-1284.35" font-family="Times New Roman,serif" font-size="35.00">R48</text>
</a>
</g>
</g>
<!-- R3&#45;&gt;R48 -->
<g id="edge14" class="edge">
<title>R3&#45;&gt;R48</title>
<path fill="none" stroke="black" d="M698.38,-1344.67C712.5,-1324.33 736.1,-1296.13 765,-1283.85 855.21,-1245.52 1153.26,-1274.05 1270.26,-1287.18"/>
<polygon fill="black" stroke="black" points="1269.67,-1290.75 1280,-1288.4 1270.46,-1283.79 1269.67,-1290.75"/>
<text text-anchor="middle" x="1001" y="-1292.85" font-family="Times New Roman,serif" font-size="30.00"> &#160;&#160;54 &#160;&#160;0% &#160;&#160;3.95e&#45;07 mol/s &#160;&#160;&#160;9.29E&#45;01</text>
</g>
<!-- R51 -->
<g id="node16" class="node">
<title>R51</title>
<g id="a_node16"><a xlink:href="51.svg" xlink:title="R51">
<polygon fill="azure" stroke="none" points="1357,-1251.35 1281,-1251.35 1281,-1204.35 1357,-1204.35 1357,-1251.35"/>
<text text-anchor="middle" x="1319" y="-1219.35" font-family="Times New Roman,serif" font-size="35.00">R51</text>
</a>
</g>
</g>
<!-- R3&#45;&gt;R51 -->
<g id="edge17" class="edge">
<title>R3&#45;&gt;R51</title>
<path fill="none" stroke="black" d="M689.63,-1344.4C698.97,-1311.34 721.14,-1252.23 765,-1226.85 808.05,-1201.93 1143.82,-1218.01 1270.15,-1225.04"/>
<polygon fill="black" stroke="black" points="1269.82,-1228.59 1280,-1225.65 1270.22,-1221.6 1269.82,-1228.59"/>
<text text-anchor="middle" x="1001" y="-1235.85" font-family="Times New Roman,serif" font-size="30.00"> &#160;&#160;57 &#160;&#160;0% &#160;&#160;3.08e&#45;07 mol/s &#160;&#160;&#160;7.82E&#45;01</text>
</g>
<!-- R217 -->
<g id="node27" class="node">
<title>R217</title>
<g id="a_node27"><a xlink:href="217.svg" xlink:title="R217">
<polygon fill="azure" stroke="none" points="1366,-1186.35 1272,-1186.35 1272,-1139.35 1366,-1139.35 1366,-1186.35"/>
<text text-anchor="middle" x="1319" y="-1154.35" font-family="Times New Roman,serif" font-size="35.00">R217</text>
</a>
</g>
</g>
<!-- R3&#45;&gt;R217 -->
<g id="edge29" class="edge">
<title>R3&#45;&gt;R217</title>
<path fill="none" stroke="black" d="M685.97,-1344.52C690.9,-1302.47 707.87,-1214.73 765,-1175.85 844.38,-1121.83 1137.16,-1144.27 1261.52,-1156.68"/>
<polygon fill="black" stroke="black" points="1261.01,-1160.25 1271.31,-1157.77 1261.72,-1153.28 1261.01,-1160.25"/>
<text text-anchor="middle" x="1001" y="-1184.85" font-family="Times New Roman,serif" font-size="30.00"> &#160;&#160;280 &#160;&#160;0% &#160;&#160;2.96e&#45;07 mol/s &#160;&#160;&#160;7.65E&#45;01</text>
</g>
<!-- R198 -->
<g id="node39" class="node">
<title>R198</title>
<g id="a_node39"><a xlink:href="198.svg" xlink:title="R198">
<polygon fill="azure" stroke="none" points="1366,-1121.35 1272,-1121.35 1272,-1074.35 1366,-1074.35 1366,-1121.35"/>
<text text-anchor="middle" x="1319" y="-1089.35" font-family="Times New Roman,serif" font-size="35.00">R198</text>
</a>
</g>
</g>
<!-- R3&#45;&gt;R198 -->
<g id="edge41" class="edge">
<title>R3&#45;&gt;R198</title>
<path fill="none" stroke="black" d="M687.61,-1344.53C697.24,-1285.6 725.55,-1133.34 765,-1103.85 913.84,-992.57 1153.73,-1046.13 1261.91,-1078.88"/>
<polygon fill="black" stroke="black" points="1260.68,-1082.48 1271.27,-1082.08 1262.75,-1075.79 1260.68,-1082.48"/>
<text text-anchor="middle" x="1001" y="-1112.85" font-family="Times New Roman,serif" font-size="30.00"> &#160;&#160;292 &#160;&#160;0% &#160;&#160;1.58e&#45;07 mol/s &#160;&#160;&#160;6.13E&#45;01</text>
</g>
<!-- R7 -->
<g id="node4" class="node">
<title>R7</title>
<g id="a_node4"><a xlink:href="7.svg" xlink:title="R7">
<polygon fill="azure" stroke="none" points="76,-2691.35 18,-2691.35 18,-2644.35 76,-2644.35 76,-2691.35"/>
<text text-anchor="middle" x="47" y="-2659.35" font-family="Times New Roman,serif" font-size="35.00">R7</text>
</a>
</g>
</g>
<!-- R7&#45;&gt;R3 -->
<g id="edge5" class="edge">
<title>R7&#45;&gt;R3</title>
<path fill="none" stroke="black" d="M75.68,-2677.91C168.83,-2709.77 473.63,-2797.71 627,-2644.85 672.27,-2599.73 680.6,-1601.37 681.82,-1402.22"/>
<polygon fill="black" stroke="black" points="685.32,-1402.31 681.88,-1392.29 678.32,-1402.27 685.32,-1402.31"/>
<text text-anchor="middle" x="365" y="-2740.85" font-family="Times New Roman,serif" font-size="30.00"> &#160;&#160;7 &#160;&#160;0% &#160;&#160;0.00116 mol/s &#160;&#160;&#160;3.69E&#45;04</text>
</g>
<!-- R8 -->
<g id="node5" class="node">
<title>R8</title>
<g id="a_node5"><a xlink:href="8.svg" xlink:title="R8">
<polygon fill="azure" stroke="none" points="76,-2626.35 18,-2626.35 18,-2579.35 76,-2579.35 76,-2626.35"/>
<text text-anchor="middle" x="47" y="-2594.35" font-family="Times New Roman,serif" font-size="35.00">R8</text>
</a>
</g>
</g>
<!-- R8&#45;&gt;R3 -->
<g id="edge6" class="edge">
<title>R8&#45;&gt;R3</title>
<path fill="none" stroke="black" d="M75.67,-2603.89C185.63,-2607.73 587.63,-2619 627,-2579.85 669.9,-2537.19 680.1,-1594.46 681.74,-1401.98"/>
<polygon fill="black" stroke="black" points="685.24,-1402.17 681.83,-1392.14 678.24,-1402.11 685.24,-1402.17"/>
<text text-anchor="middle" x="365" y="-2616.85" font-family="Times New Roman,serif" font-size="30.00"> &#160;&#160;8 &#160;&#160;0% &#160;&#160;0.000324 mol/s &#160;&#160;&#160;1.32E&#45;03</text>
</g>
<!-- R10 -->
<g id="node6" class="node">
<title>R10</title>
<g id="a_node6"><a xlink:href="10.svg" xlink:title="R10">
<polygon fill="azure" stroke="none" points="85,-2561.35 9,-2561.35 9,-2514.35 85,-2514.35 85,-2561.35"/>
<text text-anchor="middle" x="47" y="-2529.35" font-family="Times New Roman,serif" font-size="35.00">R10</text>
</a>
</g>
</g>
<!-- R10&#45;&gt;R3 -->
<g id="edge7" class="edge">
<title>R10&#45;&gt;R3</title>
<path fill="none" stroke="black" d="M84.84,-2539.2C206.31,-2543.27 588.61,-2552.93 627,-2514.85 667.53,-2474.65 679.57,-1587.95 681.65,-1401.9"/>
<polygon fill="black" stroke="black" points="685.16,-1402.19 681.77,-1392.15 678.16,-1402.11 685.16,-1402.19"/>
<text text-anchor="middle" x="365" y="-2551.85" font-family="Times New Roman,serif" font-size="30.00"> &#160;&#160;10 &#160;&#160;0% &#160;&#160;0.000306 mol/s &#160;&#160;&#160;1.39E&#45;03</text>
</g>
<!-- R11 -->
<g id="node7" class="node">
<title>R11</title>
<g id="a_node7"><a xlink:href="11.svg" xlink:title="R11">
<polygon fill="azure" stroke="none" points="85,-2496.35 9,-2496.35 9,-2449.35 85,-2449.35 85,-2496.35"/>
<text text-anchor="middle" x="47" y="-2464.35" font-family="Times New Roman,serif" font-size="35.00">R11</text>
</a>
</g>
</g>
<!-- R11&#45;&gt;R3 -->
<g id="edge8" class="edge">
<title>R11&#45;&gt;R3</title>
<path fill="none" stroke="black" d="M84.84,-2474.13C206.3,-2477.97 588.58,-2486.91 627,-2448.85 665.09,-2411.12 678.98,-1581.41 681.54,-1401.9"/>
<polygon fill="black" stroke="black" points="685.06,-1402.08 681.7,-1392.03 678.06,-1401.98 685.06,-1402.08"/>
<text text-anchor="middle" x="365" y="-2486.85" font-family="Times New Roman,serif" font-size="30.00"> &#160;&#160;11 &#160;&#160;0% &#160;&#160;1.37e&#45;07 mol/s &#160;&#160;&#160;4.31E&#45;01</text>
</g>
<!-- R12 -->
<g id="node8" class="node">
<title>R12</title>
<g id="a_node8"><a xlink:href="12.svg" xlink:title="R12">
<polygon fill="azure" stroke="none" points="85,-2431.35 9,-2431.35 9,-2384.35 85,-2384.35 85,-2431.35"/>
<text text-anchor="middle" x="47" y="-2399.35" font-family="Times New Roman,serif" font-size="35.00">R12</text>
</a>
</g>
</g>
<!-- R12&#45;&gt;R3 -->
<g id="edge9" class="edge">
<title>R12&#45;&gt;R3</title>
<path fill="none" stroke="black" d="M84.84,-2409.12C206.28,-2412.95 588.52,-2421.84 627,-2383.85 662.71,-2348.59 678.36,-1575.13 681.43,-1402.02"/>
<polygon fill="black" stroke="black" points="684.94,-1402.11 681.62,-1392.05 677.94,-1401.99 684.94,-1402.11"/>
<text text-anchor="middle" x="365" y="-2420.85" font-family="Times New Roman,serif" font-size="30.00"> &#160;&#160;12 &#160;&#160;0% &#160;&#160;6.43e&#45;06 mol/s &#160;&#160;&#160;5.87E&#45;02</text>
</g>
<!-- R46 -->
<g id="node10" class="node">
<title>R46</title>
<g id="a_node10"><a xlink:href="46.svg" xlink:title="R46">
<polygon fill="azure" stroke="none" points="85,-2366.35 9,-2366.35 9,-2319.35 85,-2319.35 85,-2366.35"/>
<text text-anchor="middle" x="47" y="-2334.35" font-family="Times New Roman,serif" font-size="35.00">R46</text>
</a>
</g>
</g>
<!-- R46&#45;&gt;R3 -->
<g id="edge11" class="edge">
<title>R46&#45;&gt;R3</title>
<path fill="none" stroke="black" d="M84.83,-2344.12C206.26,-2347.92 588.45,-2356.77 627,-2318.85 660.35,-2286.04 677.72,-1567.98 681.3,-1401.91"/>
<polygon fill="black" stroke="black" points="684.82,-1402 681.53,-1391.93 677.82,-1401.85 684.82,-1402"/>
<text text-anchor="middle" x="365" y="-2355.85" font-family="Times New Roman,serif" font-size="30.00"> &#160;&#160;51 &#160;&#160;0% &#160;&#160;0.000155 mol/s &#160;&#160;&#160;2.75E&#45;03</text>
</g>
<!-- R47 -->
<g id="node11" class="node">
<title>R47</title>
<g id="a_node11"><a xlink:href="47.svg" xlink:title="R47">
<polygon fill="azure" stroke="none" points="85,-2301.35 9,-2301.35 9,-2254.35 85,-2254.35 85,-2301.35"/>
<text text-anchor="middle" x="47" y="-2269.35" font-family="Times New Roman,serif" font-size="35.00">R47</text>
</a>
</g>
</g>
<!-- R47&#45;&gt;R3 -->
<g id="edge12" class="edge">
<title>R47&#45;&gt;R3</title>
<path fill="none" stroke="black" d="M84.82,-2279.11C206.24,-2282.9 588.37,-2291.69 627,-2253.85 658.01,-2223.47 677.04,-1560.08 681.16,-1401.62"/>
<polygon fill="black" stroke="black" points="684.67,-1402.19 681.43,-1392.1 677.67,-1402.01 684.67,-1402.19"/>
<text text-anchor="middle" x="365" y="-2290.85" font-family="Times New Roman,serif" font-size="30.00"> &#160;&#160;52 &#160;&#160;0% &#160;&#160;0.000334 mol/s &#160;&#160;&#160;1.28E&#45;03</text>
</g>
<!-- R36 -->
<g id="node12" class="node">
<title>R36</title>
<g id="a_node12"><a xlink:href="36.svg" xlink:title="R36">
<polygon fill="azure" stroke="none" points="85,-2236.35 9,-2236.35 9,-2189.35 85,-2189.35 85,-2236.35"/>
<text text-anchor="middle" x="47" y="-2204.35" font-family="Times New Roman,serif" font-size="35.00">R36</text>
</a>
</g>
</g>
<!-- R36&#45;&gt;R3 -->
<g id="edge13" class="edge">
<title>R36&#45;&gt;R3</title>
<path fill="none" stroke="black" d="M84.82,-2214.1C206.21,-2217.87 588.28,-2226.6 627,-2188.85 684.14,-2133.15 683.43,-1549.3 682.33,-1401.63"/>
<polygon fill="black" stroke="black" points="685.83,-1401.97 682.24,-1392 678.83,-1402.02 685.83,-1401.97"/>
<text text-anchor="middle" x="365" y="-2225.85" font-family="Times New Roman,serif" font-size="30.00"> &#160;&#160;53 &#160;&#160;0% &#160;&#160;7.07e&#45;07 mol/s &#160;&#160;&#160;2.74E&#45;01</text>
</g>
<!-- R49 -->
<g id="node14" class="node">
<title>R49</title>
<g id="a_node14"><a xlink:href="49.svg" xlink:title="R49">
<polygon fill="azure" stroke="none" points="85,-2171.35 9,-2171.35 9,-2124.35 85,-2124.35 85,-2171.35"/>
<text text-anchor="middle" x="47" y="-2139.35" font-family="Times New Roman,serif" font-size="35.00">R49</text>
</a>
</g>
</g>
<!-- R49&#45;&gt;R3 -->
<g id="edge15" class="edge">
<title>R49&#45;&gt;R3</title>
<path fill="none" stroke="black" d="M84.81,-2149.09C206.17,-2152.83 588.17,-2161.49 627,-2123.85 679.39,-2073.07 682.29,-1542.94 682.12,-1402.07"/>
<polygon fill="black" stroke="black" points="685.62,-1402.12 682.1,-1392.13 678.62,-1402.13 685.62,-1402.12"/>
<text text-anchor="middle" x="365" y="-2160.85" font-family="Times New Roman,serif" font-size="30.00"> &#160;&#160;55 &#160;&#160;0% &#160;&#160;0.00282 mol/s &#160;&#160;&#160;1.52E&#45;04</text>
</g>
<!-- R50 -->
<g id="node15" class="node">
<title>R50</title>
<g id="a_node15"><a xlink:href="50.svg" xlink:title="R50">
<polygon fill="azure" stroke="none" points="85,-2106.35 9,-2106.35 9,-2059.35 85,-2059.35 85,-2106.35"/>
<text text-anchor="middle" x="47" y="-2074.35" font-family="Times New Roman,serif" font-size="35.00">R50</text>
</a>
</g>
</g>
<!-- R50&#45;&gt;R3 -->
<g id="edge16" class="edge">
<title>R50&#45;&gt;R3</title>
<path fill="none" stroke="black" d="M84.8,-2084.08C206.13,-2087.79 588.04,-2096.35 627,-2058.85 674.76,-2012.87 681.05,-1534.19 681.88,-1401.68"/>
<polygon fill="black" stroke="black" points="685.38,-1402.02 681.93,-1392 678.38,-1401.98 685.38,-1402.02"/>
<text text-anchor="middle" x="365" y="-2095.85" font-family="Times New Roman,serif" font-size="30.00"> &#160;&#160;56 &#160;&#160;0% &#160;&#160;0.000237 mol/s &#160;&#160;&#160;1.80E&#45;03</text>
</g>
<!-- R52 -->
<g id="node17" class="node">
<title>R52</title>
<g id="a_node17"><a xlink:href="52.svg" xlink:title="R52">
<polygon fill="azure" stroke="none" points="85,-2041.35 9,-2041.35 9,-1994.35 85,-1994.35 85,-2041.35"/>
<text text-anchor="middle" x="47" y="-2009.35" font-family="Times New Roman,serif" font-size="35.00">R52</text>
</a>
</g>
</g>
<!-- R52&#45;&gt;R3 -->
<g id="edge18" class="edge">
<title>R52&#45;&gt;R3</title>
<path fill="none" stroke="black" d="M84.79,-2019.07C206.08,-2022.74 587.89,-2031.19 627,-1993.85 670.04,-1952.75 679.67,-1526.97 681.57,-1402.09"/>
<polygon fill="black" stroke="black" points="685.08,-1402.35 681.73,-1392.3 678.08,-1402.25 685.08,-1402.35"/>
<text text-anchor="middle" x="365" y="-2030.85" font-family="Times New Roman,serif" font-size="30.00"> &#160;&#160;58 &#160;&#160;0% &#160;&#160;0.304 mol/s &#160;&#160;&#160;1.41E&#45;06</text>
</g>
<!-- R53 -->
<g id="node18" class="node">
<title>R53</title>
<g id="a_node18"><a xlink:href="53.svg" xlink:title="R53">
<polygon fill="azure" stroke="none" points="85,-1976.35 9,-1976.35 9,-1929.35 85,-1929.35 85,-1976.35"/>
<text text-anchor="middle" x="47" y="-1944.35" font-family="Times New Roman,serif" font-size="35.00">R53</text>
</a>
</g>
</g>
<!-- R53&#45;&gt;R3 -->
<g id="edge19" class="edge">
<title>R53&#45;&gt;R3</title>
<path fill="none" stroke="black" d="M84.77,-1954.06C206.02,-1957.68 587.7,-1965.99 627,-1928.85 665.41,-1892.54 678.16,-1517.93 681.21,-1401.91"/>
<polygon fill="black" stroke="black" points="684.72,-1402.29 681.48,-1392.2 677.73,-1402.11 684.72,-1402.29"/>
<text text-anchor="middle" x="365" y="-1965.85" font-family="Times New Roman,serif" font-size="30.00"> &#160;&#160;59 &#160;&#160;0% &#160;&#160;2.63e&#45;05 mol/s &#160;&#160;&#160;1.57E&#45;02</text>
</g>
<!-- R54 -->
<g id="node19" class="node">
<title>R54</title>
<g id="a_node19"><a xlink:href="54.svg" xlink:title="R54">
<polygon fill="azure" stroke="none" points="85,-1911.35 9,-1911.35 9,-1864.35 85,-1864.35 85,-1911.35"/>
<text text-anchor="middle" x="47" y="-1879.35" font-family="Times New Roman,serif" font-size="35.00">R54</text>
</a>
</g>
</g>
<!-- R54&#45;&gt;R3 -->
<g id="edge20" class="edge">
<title>R54&#45;&gt;R3</title>
<path fill="none" stroke="black" d="M84.76,-1888.97C205.95,-1892.31 587.49,-1899.78 627,-1862.85 660.67,-1831.37 676.41,-1508.91 680.73,-1402.05"/>
<polygon fill="black" stroke="black" points="684.26,-1402.38 681.15,-1392.25 677.26,-1402.1 684.26,-1402.38"/>
<text text-anchor="middle" x="365" y="-1900.85" font-family="Times New Roman,serif" font-size="30.00"> &#160;&#160;60 &#160;&#160;0% &#160;&#160;1.2 mol/s &#160;&#160;&#160;3.56E&#45;07</text>
</g>
<!-- R55 -->
<g id="node20" class="node">
<title>R55</title>
<g id="a_node20"><a xlink:href="55.svg" xlink:title="R55">
<polygon fill="azure" stroke="none" points="85,-1846.35 9,-1846.35 9,-1799.35 85,-1799.35 85,-1846.35"/>
<text text-anchor="middle" x="47" y="-1814.35" font-family="Times New Roman,serif" font-size="35.00">R55</text>
</a>
</g>
</g>
<!-- R55&#45;&gt;R3 -->
<g id="edge21" class="edge">
<title>R55&#45;&gt;R3</title>
<path fill="none" stroke="black" d="M84.73,-1823.95C205.86,-1827.21 587.19,-1834.45 627,-1797.85 656.05,-1771.14 674.42,-1499.6 680.11,-1402.3"/>
<polygon fill="black" stroke="black" points="683.66,-1402.51 680.74,-1392.33 676.67,-1402.11 683.66,-1402.51"/>
<text text-anchor="middle" x="365" y="-1834.85" font-family="Times New Roman,serif" font-size="30.00"> &#160;&#160;61 &#160;&#160;0% &#160;&#160;1.03e&#45;05 mol/s &#160;&#160;&#160;3.84E&#45;02</text>
</g>
<!-- R56 -->
<g id="node21" class="node">
<title>R56</title>
<g id="a_node21"><a xlink:href="56.svg" xlink:title="R56">
<polygon fill="azure" stroke="none" points="85,-1781.35 9,-1781.35 9,-1734.35 85,-1734.35 85,-1781.35"/>
<text text-anchor="middle" x="47" y="-1749.35" font-family="Times New Roman,serif" font-size="35.00">R56</text>
</a>
</g>
</g>
<!-- R56&#45;&gt;R3 -->
<g id="edge22" class="edge">
<title>R56&#45;&gt;R3</title>
<path fill="none" stroke="black" d="M84.7,-1758.91C205.73,-1762.06 586.78,-1769 627,-1732.85 675.48,-1689.27 681.64,-1484.4 682.13,-1402.15"/>
<polygon fill="black" stroke="black" points="685.63,-1402.17 682.16,-1392.16 678.63,-1402.15 685.63,-1402.17"/>
<text text-anchor="middle" x="365" y="-1769.85" font-family="Times New Roman,serif" font-size="30.00"> &#160;&#160;62 &#160;&#160;0% &#160;&#160;2.1e&#45;05 mol/s &#160;&#160;&#160;1.96E&#45;02</text>
</g>
<!-- R57 -->
<g id="node22" class="node">
<title>R57</title>
<g id="a_node22"><a xlink:href="57.svg" xlink:title="R57">
<polygon fill="azure" stroke="none" points="85,-1716.35 9,-1716.35 9,-1669.35 85,-1669.35 85,-1716.35"/>
<text text-anchor="middle" x="47" y="-1684.35" font-family="Times New Roman,serif" font-size="35.00">R57</text>
</a>
</g>
</g>
<!-- R57&#45;&gt;R3 -->
<g id="edge23" class="edge">
<title>R57&#45;&gt;R3</title>
<path fill="none" stroke="black" d="M84.66,-1693.8C205.55,-1696.57 586.23,-1702.38 627,-1666.85 666.37,-1632.53 677.74,-1472.57 680.87,-1401.74"/>
<polygon fill="black" stroke="black" points="684.39,-1402.31 681.31,-1392.18 677.4,-1402.02 684.39,-1402.31"/>
<text text-anchor="middle" x="365" y="-1704.85" font-family="Times New Roman,serif" font-size="30.00"> &#160;&#160;63 &#160;&#160;0% &#160;&#160;0.0415 mol/s &#160;&#160;&#160;1.03E&#45;05</text>
</g>
<!-- R98 -->
<g id="node23" class="node">
<title>R98</title>
<g id="a_node23"><a xlink:href="98.svg" xlink:title="R98">
<polygon fill="azure" stroke="none" points="85,-1651.35 9,-1651.35 9,-1604.35 85,-1604.35 85,-1651.35"/>
<text text-anchor="middle" x="47" y="-1619.35" font-family="Times New Roman,serif" font-size="35.00">R98</text>
</a>
</g>
</g>
<!-- R98&#45;&gt;R3 -->
<g id="edge25" class="edge">
<title>R98&#45;&gt;R3</title>
<path fill="none" stroke="black" d="M84.59,-1628.65C205.28,-1630.96 585.38,-1635.39 627,-1600.85 657.28,-1575.71 672.86,-1460.26 678.92,-1401.87"/>
<polygon fill="black" stroke="black" points="682.49,-1402.3 680,-1392 675.53,-1401.6 682.49,-1402.3"/>
<text text-anchor="middle" x="365" y="-1638.85" font-family="Times New Roman,serif" font-size="30.00"> &#160;&#160;276 &#160;&#160;0% &#160;&#160;1.89e&#45;05 mol/s &#160;&#160;&#160;2.16E&#45;02</text>
</g>
<!-- R215 -->
<g id="node24" class="node">
<title>R215</title>
<g id="a_node24"><a xlink:href="215.svg" xlink:title="R215">
<polygon fill="azure" stroke="none" points="94,-1586.35 0,-1586.35 0,-1539.35 94,-1539.35 94,-1586.35"/>
<text text-anchor="middle" x="47" y="-1554.35" font-family="Times New Roman,serif" font-size="35.00">R215</text>
</a>
</g>
</g>
<!-- R215&#45;&gt;R3 -->
<g id="edge26" class="edge">
<title>R215&#45;&gt;R3</title>
<path fill="none" stroke="black" d="M93.75,-1563.57C223.14,-1565.19 585,-1566.81 627,-1534.85 668.01,-1503.64 678.85,-1440.96 681.48,-1401.89"/>
<polygon fill="black" stroke="black" points="685.02,-1402.23 682.04,-1392.07 678.03,-1401.87 685.02,-1402.23"/>
<text text-anchor="middle" x="365" y="-1572.85" font-family="Times New Roman,serif" font-size="30.00"> &#160;&#160;277 &#160;&#160;0% &#160;&#160;24.3 mol/s &#160;&#160;&#160;1.76E&#45;08</text>
</g>
<!-- R216 -->
<g id="node25" class="node">
<title>R216</title>
<g id="a_node25"><a xlink:href="216.svg" xlink:title="R216">
<polygon fill="azure" stroke="none" points="94,-1521.35 0,-1521.35 0,-1474.35 94,-1474.35 94,-1521.35"/>
<text text-anchor="middle" x="47" y="-1489.35" font-family="Times New Roman,serif" font-size="35.00">R216</text>
</a>
</g>
</g>
<!-- R216&#45;&gt;R3 -->
<g id="edge27" class="edge">
<title>R216&#45;&gt;R3</title>
<path fill="none" stroke="black" d="M93.96,-1498.29C223.05,-1499.16 582.44,-1499 627,-1470.85 651.37,-1455.45 665.64,-1425.37 673.51,-1401.68"/>
<polygon fill="black" stroke="black" points="677.1,-1402.9 676.69,-1392.31 670.41,-1400.85 677.1,-1402.9"/>
<text text-anchor="middle" x="365" y="-1506.85" font-family="Times New Roman,serif" font-size="30.00"> &#160;&#160;278 &#160;&#160;0% &#160;&#160;1440.0 mol/s &#160;&#160;&#160;2.97E&#45;10</text>
</g>
<!-- R59 -->
<g id="node26" class="node">
<title>R59</title>
<g id="a_node26"><a xlink:href="59.svg" xlink:title="R59">
<polygon fill="azure" stroke="none" points="85,-1456.35 9,-1456.35 9,-1409.35 85,-1409.35 85,-1456.35"/>
<text text-anchor="middle" x="47" y="-1424.35" font-family="Times New Roman,serif" font-size="35.00">R59</text>
</a>
</g>
</g>
<!-- R59&#45;&gt;R3 -->
<g id="edge28" class="edge">
<title>R59&#45;&gt;R3</title>
<path fill="none" stroke="black" d="M84.85,-1433.63C195.9,-1435.6 525.87,-1438.39 627,-1404.85 633.09,-1402.83 639.13,-1399.94 644.86,-1396.64"/>
<polygon fill="black" stroke="black" points="646.55,-1399.09 653.16,-1390.81 642.83,-1393.16 646.55,-1399.09"/>
<text text-anchor="middle" x="365" y="-1442.85" font-family="Times New Roman,serif" font-size="30.00"> &#160;&#160;279 &#160;&#160;0% &#160;&#160;0.000511 mol/s &#160;&#160;&#160;8.35E&#45;04</text>
</g>
<!-- R140 -->
<g id="node28" class="node">
<title>R140</title>
<g id="a_node28"><a xlink:href="140.svg" xlink:title="R140">
<polygon fill="azure" stroke="none" points="94,-1391.35 0,-1391.35 0,-1344.35 94,-1344.35 94,-1391.35"/>
<text text-anchor="middle" x="47" y="-1359.35" font-family="Times New Roman,serif" font-size="35.00">R140</text>
</a>
</g>
</g>
<!-- R140&#45;&gt;R3 -->
<g id="edge30" class="edge">
<title>R140&#45;&gt;R3</title>
<path fill="none" stroke="black" d="M93.85,-1367.85C213.22,-1367.85 532.02,-1367.85 643.15,-1367.85"/>
<polygon fill="black" stroke="black" points="643.15,-1371.35 653.15,-1367.85 643.15,-1364.35 643.15,-1371.35"/>
<text text-anchor="middle" x="365" y="-1376.85" font-family="Times New Roman,serif" font-size="30.00"> &#160;&#160;281 &#160;&#160;0% &#160;&#160;7.37e&#45;07 mol/s &#160;&#160;&#160;2.69E&#45;01</text>
</g>
<!-- R141 -->
<g id="node29" class="node">
<title>R141</title>
<g id="a_node29"><a xlink:href="141.svg" xlink:title="R141">
<polygon fill="azure" stroke="none" points="94,-1326.35 0,-1326.35 0,-1279.35 94,-1279.35 94,-1326.35"/>
<text text-anchor="middle" x="47" y="-1294.35" font-family="Times New Roman,serif" font-size="35.00">R141</text>
</a>
</g>
</g>
<!-- R141&#45;&gt;R3 -->
<g id="edge31" class="edge">
<title>R141&#45;&gt;R3</title>
<path fill="none" stroke="black" d="M93.81,-1296.93C193.71,-1285.76 437.39,-1267.96 627,-1330.85 633.09,-1332.87 639.13,-1335.76 644.86,-1339.05"/>
<polygon fill="black" stroke="black" points="642.83,-1342.54 653.16,-1344.88 646.55,-1336.61 642.83,-1342.54"/>
<text text-anchor="middle" x="365" y="-1339.85" font-family="Times New Roman,serif" font-size="30.00"> &#160;&#160;282 &#160;&#160;0% &#160;&#160;0.000304 mol/s &#160;&#160;&#160;1.40E&#45;03</text>
</g>
<!-- R218 -->
<g id="node30" class="node">
<title>R218</title>
<g id="a_node30"><a xlink:href="218.svg" xlink:title="R218">
<polygon fill="azure" stroke="none" points="94,-1261.35 0,-1261.35 0,-1214.35 94,-1214.35 94,-1261.35"/>
<text text-anchor="middle" x="47" y="-1229.35" font-family="Times New Roman,serif" font-size="35.00">R218</text>
</a>
</g>
</g>
<!-- R218&#45;&gt;R3 -->
<g id="edge32" class="edge">
<title>R218&#45;&gt;R3</title>
<path fill="none" stroke="black" d="M93.95,-1232.55C215.1,-1219.51 539.91,-1190.9 627,-1247.85 656.12,-1266.89 670.05,-1305.56 676.56,-1333.88"/>
<polygon fill="black" stroke="black" points="673.31,-1334.46 678.78,-1343.54 680.17,-1333.03 673.31,-1334.46"/>
<text text-anchor="middle" x="365" y="-1256.85" font-family="Times New Roman,serif" font-size="30.00"> &#160;&#160;283 &#160;&#160;0% &#160;&#160;1.42 mol/s &#160;&#160;&#160;3.01E&#45;07</text>
</g>
<!-- R77 -->
<g id="node31" class="node">
<title>R77</title>
<g id="a_node31"><a xlink:href="77.svg" xlink:title="R77">
<polygon fill="azure" stroke="none" points="85,-1196.35 9,-1196.35 9,-1149.35 85,-1149.35 85,-1196.35"/>
<text text-anchor="middle" x="47" y="-1164.35" font-family="Times New Roman,serif" font-size="35.00">R77</text>
</a>
</g>
</g>
<!-- R77&#45;&gt;R3 -->
<g id="edge33" class="edge">
<title>R77&#45;&gt;R3</title>
<path fill="none" stroke="black" d="M84.9,-1170.52C205.7,-1163.23 583.99,-1143.25 627,-1175.85 652.18,-1194.93 669.38,-1284.12 677.2,-1333.95"/>
<polygon fill="black" stroke="black" points="673.85,-1334.18 678.82,-1343.53 680.77,-1333.12 673.85,-1334.18"/>
<text text-anchor="middle" x="365" y="-1184.85" font-family="Times New Roman,serif" font-size="30.00"> &#160;&#160;284 &#160;&#160;0% &#160;&#160;7.51e&#45;06 mol/s &#160;&#160;&#160;5.11E&#45;02</text>
</g>
<!-- R219 -->
<g id="node32" class="node">
<title>R219</title>
<g id="a_node32"><a xlink:href="219.svg" xlink:title="R219">
<polygon fill="azure" stroke="none" points="94,-1131.35 0,-1131.35 0,-1084.35 94,-1084.35 94,-1131.35"/>
<text text-anchor="middle" x="47" y="-1099.35" font-family="Times New Roman,serif" font-size="35.00">R219</text>
</a>
</g>
</g>
<!-- R219&#45;&gt;R3 -->
<g id="edge34" class="edge">
<title>R219&#45;&gt;R3</title>
<path fill="none" stroke="black" d="M93.78,-1101.86C216.04,-1086.91 546.33,-1053.72 627,-1119.85 659.67,-1146.63 674.24,-1272.21 679.51,-1333.72"/>
<polygon fill="black" stroke="black" points="676.08,-1333.74 680.39,-1343.43 683.06,-1333.17 676.08,-1333.74"/>
<text text-anchor="middle" x="365" y="-1128.85" font-family="Times New Roman,serif" font-size="30.00"> &#160;&#160;285 &#160;&#160;0% &#160;&#160;5.16e&#45;06 mol/s &#160;&#160;&#160;7.11E&#45;02</text>
</g>
<!-- R220 -->
<g id="node33" class="node">
<title>R220</title>
<g id="a_node33"><a xlink:href="220.svg" xlink:title="R220">
<polygon fill="azure" stroke="none" points="94,-1066.35 0,-1066.35 0,-1019.35 94,-1019.35 94,-1066.35"/>
<text text-anchor="middle" x="47" y="-1034.35" font-family="Times New Roman,serif" font-size="35.00">R220</text>
</a>
</g>
</g>
<!-- R220&#45;&gt;R3 -->
<g id="edge35" class="edge">
<title>R220&#45;&gt;R3</title>
<path fill="none" stroke="black" d="M93.92,-1039.52C223.76,-1030.56 586.74,-1008.83 627,-1042.85 670.76,-1079.82 679.71,-1257.77 681.54,-1333.55"/>
<polygon fill="black" stroke="black" points="678.06,-1333.46 681.77,-1343.38 685.05,-1333.31 678.06,-1333.46"/>
<text text-anchor="middle" x="365" y="-1051.85" font-family="Times New Roman,serif" font-size="30.00"> &#160;&#160;286 &#160;&#160;0% &#160;&#160;8.4e&#45;06 mol/s &#160;&#160;&#160;4.62E&#45;02</text>
</g>
<!-- R145 -->
<g id="node34" class="node">
<title>R145</title>
<g id="a_node34"><a xlink:href="145.svg" xlink:title="R145">
<polygon fill="azure" stroke="none" points="94,-1001.35 0,-1001.35 0,-954.35 94,-954.35 94,-1001.35"/>
<text text-anchor="middle" x="47" y="-969.35" font-family="Times New Roman,serif" font-size="35.00">R145</text>
</a>
</g>
</g>
<!-- R145&#45;&gt;R3 -->
<g id="edge36" class="edge">
<title>R145&#45;&gt;R3</title>
<path fill="none" stroke="black" d="M93.99,-975.21C224.01,-968.23 587.42,-952.03 627,-986.85 678.39,-1032.06 682.75,-1248.84 682.45,-1333.69"/>
<polygon fill="black" stroke="black" points="678.94,-1333.5 682.38,-1343.53 685.94,-1333.55 678.94,-1333.5"/>
<text text-anchor="middle" x="365" y="-995.85" font-family="Times New Roman,serif" font-size="30.00"> &#160;&#160;287 &#160;&#160;0% &#160;&#160;5.36e&#45;07 mol/s &#160;&#160;&#160;3.07E&#45;01</text>
</g>
<!-- R221 -->
<g id="node35" class="node">
<title>R221</title>
<g id="a_node35"><a xlink:href="221.svg" xlink:title="R221">
<polygon fill="azure" stroke="none" points="94,-936.35 0,-936.35 0,-889.35 94,-889.35 94,-936.35"/>
<text text-anchor="middle" x="47" y="-904.35" font-family="Times New Roman,serif" font-size="35.00">R221</text>
</a>
</g>
</g>
<!-- R221&#45;&gt;R3 -->
<g id="edge37" class="edge">
<title>R221&#45;&gt;R3</title>
<path fill="none" stroke="black" d="M93.7,-906.77C216.51,-891.53 549.6,-857.71 627,-927.85 657.01,-955.04 674.84,-1234.79 680.24,-1333.55"/>
<polygon fill="black" stroke="black" points="676.8,-1333.61 680.83,-1343.41 683.79,-1333.23 676.8,-1333.61"/>
<text text-anchor="middle" x="365" y="-936.85" font-family="Times New Roman,serif" font-size="30.00"> &#160;&#160;288 &#160;&#160;0% &#160;&#160;603.0 mol/s &#160;&#160;&#160;7.10E&#45;10</text>
</g>
<!-- R222 -->
<g id="node36" class="node">
<title>R222</title>
<g id="a_node36"><a xlink:href="222.svg" xlink:title="R222">
<polygon fill="azure" stroke="none" points="94,-871.35 0,-871.35 0,-824.35 94,-824.35 94,-871.35"/>
<text text-anchor="middle" x="47" y="-839.35" font-family="Times New Roman,serif" font-size="35.00">R222</text>
</a>
</g>
</g>
<!-- R222&#45;&gt;R3 -->
<g id="edge38" class="edge">
<title>R222&#45;&gt;R3</title>
<path fill="none" stroke="black" d="M93.57,-844.43C223.29,-835.16 587.77,-812.55 627,-847.85 663.17,-880.4 677.33,-1223.2 680.98,-1333.71"/>
<polygon fill="black" stroke="black" points="677.51,-1333.67 681.33,-1343.55 684.51,-1333.44 677.51,-1333.67"/>
<text text-anchor="middle" x="365" y="-856.85" font-family="Times New Roman,serif" font-size="30.00"> &#160;&#160;289 &#160;&#160;2% &#160;&#160;1470000.0 mol/s &#160;&#160;&#160;2.91E&#45;13</text>
</g>
<!-- R80 -->
<g id="node37" class="node">
<title>R80</title>
<g id="a_node37"><a xlink:href="80.svg" xlink:title="R80">
<polygon fill="azure" stroke="none" points="85,-806.35 9,-806.35 9,-759.35 85,-759.35 85,-806.35"/>
<text text-anchor="middle" x="47" y="-774.35" font-family="Times New Roman,serif" font-size="35.00">R80</text>
</a>
</g>
</g>
<!-- R80&#45;&gt;R3 -->
<g id="edge39" class="edge">
<title>R80&#45;&gt;R3</title>
<path fill="none" stroke="black" d="M84.74,-780.58C205.88,-773.47 587.27,-754.22 627,-790.85 667.05,-827.77 678.7,-1215.06 681.34,-1333.58"/>
<polygon fill="black" stroke="black" points="677.86,-1333.58 681.57,-1343.5 684.86,-1333.43 677.86,-1333.58"/>
<text text-anchor="middle" x="365" y="-799.85" font-family="Times New Roman,serif" font-size="30.00"> &#160;&#160;290 &#160;&#160;0% &#160;&#160;0.00298 mol/s &#160;&#160;&#160;1.43E&#45;04</text>
</g>
<!-- R223 -->
<g id="node38" class="node">
<title>R223</title>
<g id="a_node38"><a xlink:href="223.svg" xlink:title="R223">
<polygon fill="azure" stroke="none" points="94,-741.35 0,-741.35 0,-694.35 94,-694.35 94,-741.35"/>
<text text-anchor="middle" x="47" y="-709.35" font-family="Times New Roman,serif" font-size="35.00">R223</text>
</a>
</g>
</g>
<!-- R223&#45;&gt;R3 -->
<g id="edge40" class="edge">
<title>R223&#45;&gt;R3</title>
<path fill="none" stroke="black" d="M93.64,-715.54C223.56,-709.44 588.53,-695.7 627,-731.85 671.1,-773.29 679.99,-1207.04 681.64,-1333.45"/>
<polygon fill="black" stroke="black" points="678.16,-1333.42 681.78,-1343.37 685.15,-1333.33 678.16,-1333.42"/>
<text text-anchor="middle" x="365" y="-740.85" font-family="Times New Roman,serif" font-size="30.00"> &#160;&#160;291 &#160;&#160;0% &#160;&#160;2.01e&#45;05 mol/s &#160;&#160;&#160;2.04E&#45;02</text>
</g>
<!-- R199 -->
<g id="node40" class="node">
<title>R199</title>
<g id="a_node40"><a xlink:href="199.svg" xlink:title="R199">
<polygon fill="azure" stroke="none" points="94,-676.35 0,-676.35 0,-629.35 94,-629.35 94,-676.35"/>
<text text-anchor="middle" x="47" y="-644.35" font-family="Times New Roman,serif" font-size="35.00">R199</text>
</a>
</g>
</g>
<!-- R199&#45;&gt;R3 -->
<g id="edge42" class="edge">
<title>R199&#45;&gt;R3</title>
<path fill="none" stroke="black" d="M93.89,-646.76C217.17,-631.5 551.34,-597.83 627,-669.85 675.5,-716.01 681.26,-1199.74 681.92,-1333.66"/>
<polygon fill="black" stroke="black" points="678.42,-1333.47 681.96,-1343.45 685.42,-1333.44 678.42,-1333.47"/>
<text text-anchor="middle" x="365" y="-678.85" font-family="Times New Roman,serif" font-size="30.00"> &#160;&#160;293 &#160;&#160;0% &#160;&#160;0.00104 mol/s &#160;&#160;&#160;4.11E&#45;04</text>
</g>
<!-- R224 -->
<g id="node41" class="node">
<title>R224</title>
<g id="a_node41"><a xlink:href="224.svg" xlink:title="R224">
<polygon fill="azure" stroke="none" points="94,-611.35 0,-611.35 0,-564.35 94,-564.35 94,-611.35"/>
<text text-anchor="middle" x="47" y="-579.35" font-family="Times New Roman,serif" font-size="35.00">R224</text>
</a>
</g>
</g>
<!-- R224&#45;&gt;R3 -->
<g id="edge43" class="edge">
<title>R224&#45;&gt;R3</title>
<path fill="none" stroke="black" d="M93.63,-584.36C223.51,-574.92 588.39,-551.87 627,-587.85 682.24,-639.33 683,-1190.42 682.26,-1333.87"/>
<polygon fill="black" stroke="black" points="678.75,-1333.59 682.2,-1343.61 685.75,-1333.63 678.75,-1333.59"/>
<text text-anchor="middle" x="365" y="-596.85" font-family="Times New Roman,serif" font-size="30.00"> &#160;&#160;294 &#160;&#160;0% &#160;&#160;55.2 mol/s &#160;&#160;&#160;7.75E&#45;09</text>
</g>
<!-- R225 -->
<g id="node42" class="node">
<title>R225</title>
<g id="a_node42"><a xlink:href="225.svg" xlink:title="R225">
<polygon fill="azure" stroke="none" points="94,-546.35 0,-546.35 0,-499.35 94,-499.35 94,-546.35"/>
<text text-anchor="middle" x="47" y="-514.35" font-family="Times New Roman,serif" font-size="35.00">R225</text>
</a>
</g>
</g>
<!-- R225&#45;&gt;R3 -->
<g id="edge44" class="edge">
<title>R225&#45;&gt;R3</title>
<path fill="none" stroke="black" d="M93.66,-520.01C223.63,-512.41 588.73,-494.51 627,-530.85 686.05,-586.92 683.9,-1183.97 682.42,-1333.86"/>
<polygon fill="black" stroke="black" points="678.91,-1333.61 682.3,-1343.65 685.91,-1333.69 678.91,-1333.61"/>
<text text-anchor="middle" x="365" y="-539.85" font-family="Times New Roman,serif" font-size="30.00"> &#160;&#160;295 &#160;&#160;0% &#160;&#160;0.000459 mol/s &#160;&#160;&#160;9.30E&#45;04</text>
</g>
<!-- R226 -->
<g id="node43" class="node">
<title>R226</title>
<g id="a_node43"><a xlink:href="226.svg" xlink:title="R226">
<polygon fill="azure" stroke="none" points="94,-481.35 0,-481.35 0,-434.35 94,-434.35 94,-481.35"/>
<text text-anchor="middle" x="47" y="-449.35" font-family="Times New Roman,serif" font-size="35.00">R226</text>
</a>
</g>
</g>
<!-- R226&#45;&gt;R3 -->
<g id="edge45" class="edge">
<title>R226&#45;&gt;R3</title>
<path fill="none" stroke="black" d="M93.68,-455.41C223.71,-448.95 588.96,-434.25 627,-470.85 658.71,-501.35 677.24,-1174.62 681.2,-1334.17"/>
<polygon fill="black" stroke="black" points="677.71,-1333.84 681.46,-1343.75 684.71,-1333.67 677.71,-1333.84"/>
<text text-anchor="middle" x="365" y="-479.85" font-family="Times New Roman,serif" font-size="30.00"> &#160;&#160;296 &#160;&#160;0% &#160;&#160;1.77e&#45;05 mol/s &#160;&#160;&#160;2.30E&#45;02</text>
</g>
<!-- R227 -->
<g id="node44" class="node">
<title>R227</title>
<g id="a_node44"><a xlink:href="227.svg" xlink:title="R227">
<polygon fill="azure" stroke="none" points="94,-416.35 0,-416.35 0,-369.35 94,-369.35 94,-416.35"/>
<text text-anchor="middle" x="47" y="-384.35" font-family="Times New Roman,serif" font-size="35.00">R227</text>
</a>
</g>
</g>
<!-- R227&#45;&gt;R3 -->
<g id="edge46" class="edge">
<title>R227&#45;&gt;R3</title>
<path fill="none" stroke="black" d="M93.97,-386.67C217.46,-371.2 552.11,-337.02 627,-409.85 660.82,-442.74 677.85,-1167.64 681.33,-1334.02"/>
<polygon fill="black" stroke="black" points="677.84,-1333.67 681.54,-1343.59 684.84,-1333.52 677.84,-1333.67"/>
<text text-anchor="middle" x="365" y="-418.85" font-family="Times New Roman,serif" font-size="30.00"> &#160;&#160;297 &#160;&#160;0% &#160;&#160;0.000369 mol/s &#160;&#160;&#160;1.16E&#45;03</text>
</g>
<!-- R228 -->
<g id="node45" class="node">
<title>R228</title>
<g id="a_node45"><a xlink:href="228.svg" xlink:title="R228">
<polygon fill="azure" stroke="none" points="94,-351.35 0,-351.35 0,-304.35 94,-304.35 94,-351.35"/>
<text text-anchor="middle" x="47" y="-319.35" font-family="Times New Roman,serif" font-size="35.00">R228</text>
</a>
</g>
</g>
<!-- R228&#45;&gt;R3 -->
<g id="edge47" class="edge">
<title>R228&#45;&gt;R3</title>
<path fill="none" stroke="black" d="M93.66,-324.33C223.62,-314.8 588.71,-291.53 627,-327.85 664.33,-363.25 678.76,-1158 681.5,-1333.68"/>
<polygon fill="black" stroke="black" points="678.01,-1333.62 681.67,-1343.57 685.01,-1333.52 678.01,-1333.62"/>
<text text-anchor="middle" x="365" y="-336.85" font-family="Times New Roman,serif" font-size="30.00"> &#160;&#160;298 &#160;&#160;0% &#160;&#160;288.0 mol/s &#160;&#160;&#160;1.48E&#45;09</text>
</g>
<!-- R369 -->
<g id="node46" class="node">
<title>R369</title>
<g id="a_node46"><a xlink:href="369.svg" xlink:title="R369">
<polygon fill="azure" stroke="none" points="94,-286.35 0,-286.35 0,-239.35 94,-239.35 94,-286.35"/>
<text text-anchor="middle" x="47" y="-254.35" font-family="Times New Roman,serif" font-size="35.00">R369</text>
</a>
</g>
</g>
<!-- R369&#45;&gt;R3 -->
<g id="edge48" class="edge">
<title>R369&#45;&gt;R3</title>
<path fill="none" stroke="black" stroke-width="5" d="M93.69,-259.98C223.73,-252.3 589.01,-234.21 627,-270.85 665.54,-308.01 678.79,-1124.41 681.46,-1324.08"/>
<polygon fill="black" stroke="black" stroke-width="5" points="672.72,-1318.93 681.73,-1338.81 690.22,-1318.7 672.72,-1318.93"/>
<text text-anchor="middle" x="365" y="-279.85" font-family="Times New Roman,serif" font-size="30.00"> &#160;&#160;623 &#160;&#160;97% &#160;&#160;48200000.0 mol/s &#160;&#160;&#160;8.87E&#45;15</text>
</g>
<!-- R97 -->
<g id="node47" class="node">
<title>R97</title>
<g id="a_node47"><a xlink:href="97.svg" xlink:title="R97">
<polygon fill="azure" stroke="none" points="85,-221.35 9,-221.35 9,-174.35 85,-174.35 85,-221.35"/>
<text text-anchor="middle" x="47" y="-189.35" font-family="Times New Roman,serif" font-size="35.00">R97</text>
</a>
</g>
</g>
<!-- R97&#45;&gt;R3 -->
<g id="edge49" class="edge">
<title>R97&#45;&gt;R3</title>
<path fill="none" stroke="black" d="M84.82,-195.84C206.22,-189.59 588.31,-173.12 627,-210.85 668.25,-251.07 679.72,-1146.71 681.67,-1333.79"/>
<polygon fill="black" stroke="black" points="678.18,-1333.63 681.78,-1343.59 685.18,-1333.56 678.18,-1333.63"/>
<text text-anchor="middle" x="365" y="-219.85" font-family="Times New Roman,serif" font-size="30.00"> &#160;&#160;877 &#160;&#160;0% &#160;&#160;4.19e&#45;05 mol/s &#160;&#160;&#160;1.00E&#45;02</text>
</g>
<!-- R144 -->
<g id="node48" class="node">
<title>R144</title>
<g id="a_node48"><a xlink:href="144.svg" xlink:title="R144">
<polygon fill="azure" stroke="none" points="94,-156.35 0,-156.35 0,-109.35 94,-109.35 94,-156.35"/>
<text text-anchor="middle" x="47" y="-124.35" font-family="Times New Roman,serif" font-size="35.00">R144</text>
</a>
</g>
</g>
<!-- R144&#45;&gt;R3 -->
<g id="edge50" class="edge">
<title>R144&#45;&gt;R3</title>
<path fill="none" stroke="black" d="M93.72,-130.63C223.85,-124.78 589.34,-111.85 627,-148.85 670.4,-191.5 680.2,-1139.88 681.75,-1333.51"/>
<polygon fill="black" stroke="black" points="678.26,-1333.45 681.84,-1343.42 685.26,-1333.39 678.26,-1333.45"/>
<text text-anchor="middle" x="365" y="-157.85" font-family="Times New Roman,serif" font-size="30.00"> &#160;&#160;878 &#160;&#160;0% &#160;&#160;2.55e&#45;07 mol/s &#160;&#160;&#160;3.85E&#45;01</text>
</g>
<!-- R383 -->
<g id="node49" class="node">
<title>R383</title>
<g id="a_node49"><a xlink:href="383.svg" xlink:title="R383">
<polygon fill="azure" stroke="none" points="94,-91.35 0,-91.35 0,-44.35 94,-44.35 94,-91.35"/>
<text text-anchor="middle" x="47" y="-59.35" font-family="Times New Roman,serif" font-size="35.00">R383</text>
</a>
</g>
</g>
<!-- R383&#45;&gt;R3 -->
<g id="edge51" class="edge">
<title>R383&#45;&gt;R3</title>
<path fill="none" stroke="black" d="M93.91,-51.26C203.49,-14.93 481.97,57.48 627,-85.85 672.66,-130.97 680.69,-1134.44 681.83,-1333.65"/>
<polygon fill="black" stroke="black" points="678.34,-1333.6 681.89,-1343.58 685.34,-1333.56 678.34,-1333.6"/>
<text text-anchor="middle" x="365" y="-94.85" font-family="Times New Roman,serif" font-size="30.00"> &#160;&#160;879 &#160;&#160;0% &#160;&#160;7.36e&#45;06 mol/s &#160;&#160;&#160;5.21E&#45;02</text>
</g>
</g>
</svg>
