<?xml version="1.0" encoding="UTF-8" standalone="no"?>
<!DOCTYPE svg PUBLIC "-//W3C//DTD SVG 1.1//EN"
 "http://www.w3.org/Graphics/SVG/1.1/DTD/svg11.dtd">
<!-- Generated by graphviz version 8.0.3 (20230416.2022)
 -->
<!-- Title: G Pages: 1 -->
<svg width="640pt" height="179pt"
 viewBox="0.00 0.00 720.00 201.44" xmlns="http://www.w3.org/2000/svg" xmlns:xlink="http://www.w3.org/1999/xlink">
<g id="graph0" class="graph" transform="scale(0.487062 0.487062) rotate(0) translate(4 363.62)">
<title>G</title>
<polygon fill="white" stroke="none" points="-4,4 -4,-363.62 1310,-363.62 1310,4 -4,4"/>
<text text-anchor="middle" x="653" y="-326.82" font-family="Arial" font-size="36.00" fill="blue">Reaction Path Analysis</text>
<!-- R300 -->
<g id="node1" class="node">
<title>R300</title>
<g id="a_node1"><a xlink:href="300.svg" xlink:title="R300">
<polygon fill="azure" stroke="none" points="700,-178.12 606,-178.12 606,-131.12 700,-131.12 700,-178.12"/>
<text text-anchor="middle" x="653" y="-146.12" font-family="Times New Roman,serif" font-size="35.00">R300</text>
</a>
</g>
</g>
<!-- R15 -->
<g id="node2" class="node">
<title>R15</title>
<g id="a_node2"><a xlink:href="15.svg" xlink:title="R15">
<polygon fill="azure" stroke="none" points="1297,-276.12 1221,-276.12 1221,-229.12 1297,-229.12 1297,-276.12"/>
<text text-anchor="middle" x="1259" y="-244.12" font-family="Times New Roman,serif" font-size="35.00">R15</text>
</a>
</g>
</g>
<!-- R300&#45;&gt;R15 -->
<g id="edge1" class="edge">
<title>R300&#45;&gt;R15</title>
<path fill="none" stroke="black" stroke-width="5" d="M667.73,-177.95C678.69,-194.18 695.64,-214.62 716.5,-224.62 877.65,-301.83 1097.54,-279.93 1200.46,-263.45"/>
<polygon fill="black" stroke="black" stroke-width="5" points="1196.89,-272.92 1215.15,-260.95 1193.97,-255.66 1196.89,-272.92"/>
<text text-anchor="middle" x="956" y="-287.62" font-family="Times New Roman,serif" font-size="30.00"> &#160;&#160;406 &#160;&#160;98% &#160;&#160;0.00114 mol/s &#160;&#160;&#160;3.76E&#45;04</text>
</g>
<!-- R26 -->
<g id="node3" class="node">
<title>R26</title>
<g id="a_node3"><a xlink:href="26.svg" xlink:title="R26">
<polygon fill="azure" stroke="none" points="1297,-211.12 1221,-211.12 1221,-164.12 1297,-164.12 1297,-211.12"/>
<text text-anchor="middle" x="1259" y="-179.12" font-family="Times New Roman,serif" font-size="35.00">R26</text>
</a>
</g>
</g>
<!-- R300&#45;&gt;R26 -->
<g id="edge2" class="edge">
<title>R300&#45;&gt;R26</title>
<path fill="none" stroke="black" stroke-width="5" d="M699.98,-163.43C705.53,-164.28 711.13,-165.04 716.5,-165.62 891.99,-184.54 1101.07,-187.55 1200.27,-187.8"/>
<polygon fill="black" stroke="black" stroke-width="5" points="1195.1,-196.55 1215.11,-187.82 1195.11,-179.05 1195.1,-196.55"/>
<text text-anchor="middle" x="956" y="-196.62" font-family="Times New Roman,serif" font-size="30.00"> &#160;&#160;406 &#160;&#160;98% &#160;&#160;0.00114 mol/s &#160;&#160;&#160;3.76E&#45;04</text>
</g>
<!-- R1 -->
<g id="node5" class="node">
<title>R1</title>
<g id="a_node5"><a xlink:href="1.svg" xlink:title="R1">
<polygon fill="azure" stroke="none" points="1288,-146.12 1230,-146.12 1230,-99.12 1288,-99.12 1288,-146.12"/>
<text text-anchor="middle" x="1259" y="-114.12" font-family="Times New Roman,serif" font-size="35.00">R1</text>
</a>
</g>
</g>
<!-- R300&#45;&gt;R1 -->
<g id="edge4" class="edge">
<title>R300&#45;&gt;R1</title>
<path fill="none" stroke="black" d="M699.97,-136.59C705.47,-134.99 711.07,-133.6 716.5,-132.62 902.41,-99.09 1130.03,-112.03 1219.39,-119.15"/>
<polygon fill="black" stroke="black" points="1218.83,-122.7 1229.08,-120.03 1219.4,-115.72 1218.83,-122.7"/>
<text text-anchor="middle" x="956" y="-141.62" font-family="Times New Roman,serif" font-size="30.00"> &#160;&#160;596 &#160;&#160;1% &#160;&#160;1.75e&#45;05 mol/s &#160;&#160;&#160;2.33E&#45;02</text>
</g>
<!-- R241 -->
<g id="node6" class="node">
<title>R241</title>
<g id="a_node6"><a xlink:href="241.svg" xlink:title="R241">
<polygon fill="azure" stroke="none" points="1306,-81.12 1212,-81.12 1212,-34.12 1306,-34.12 1306,-81.12"/>
<text text-anchor="middle" x="1259" y="-49.12" font-family="Times New Roman,serif" font-size="35.00">R241</text>
</a>
</g>
</g>
<!-- R300&#45;&gt;R241 -->
<g id="edge5" class="edge">
<title>R300&#45;&gt;R241</title>
<path fill="none" stroke="black" d="M664.66,-131.45C674.92,-112.14 692.45,-85.89 716.5,-73.62 876.32,7.88 1098.61,-23.19 1201.54,-44.32"/>
<polygon fill="black" stroke="black" points="1200.51,-47.89 1211.02,-46.53 1201.95,-41.04 1200.51,-47.89"/>
<text text-anchor="middle" x="956" y="-82.62" font-family="Times New Roman,serif" font-size="30.00"> &#160;&#160;596 &#160;&#160;1% &#160;&#160;1.75e&#45;05 mol/s &#160;&#160;&#160;2.33E&#45;02</text>
</g>
<!-- R74 -->
<g id="node4" class="node">
<title>R74</title>
<g id="a_node4"><a xlink:href="74.svg" xlink:title="R74">
<polygon fill="azure" stroke="none" points="85,-222.12 9,-222.12 9,-175.12 85,-175.12 85,-222.12"/>
<text text-anchor="middle" x="47" y="-190.12" font-family="Times New Roman,serif" font-size="35.00">R74</text>
</a>
</g>
</g>
<!-- R74&#45;&gt;R300 -->
<g id="edge3" class="edge">
<title>R74&#45;&gt;R300</title>
<path fill="none" stroke="black" d="M84.88,-212.45C90.86,-214.18 97.05,-215.67 103,-216.62 319.82,-251.2 396.76,-306.66 597,-216.62 611.01,-210.32 622.91,-198.49 632.01,-186.84"/>
<polygon fill="black" stroke="black" points="635.35,-189.2 638.41,-179.06 629.69,-185.07 635.35,-189.2"/>
<text text-anchor="middle" x="350" y="-273.62" font-family="Times New Roman,serif" font-size="30.00"> &#160;&#160;459 &#160;&#160;0% &#160;&#160;0.000649 mol/s &#160;&#160;&#160;9.92E&#45;01</text>
</g>
<!-- R74&#45;&gt;R300 -->
<g id="edge6" class="edge">
<title>R74&#45;&gt;R300</title>
<path fill="none" stroke="black" stroke-width="5" d="M84.88,-184.23C90.86,-182.38 97.04,-180.74 103,-179.62 205.07,-160.46 457.7,-167.76 585.27,-161.16"/>
<polygon fill="black" stroke="black" stroke-width="5" points="580.69,-169.84 600.11,-159.87 579.6,-152.38 580.69,-169.84"/>
<text text-anchor="middle" x="350" y="-188.62" font-family="Times New Roman,serif" font-size="30.00"> &#160;&#160;779 &#160;&#160;97% &#160;&#160;0.078 mol/s &#160;&#160;&#160;8.25E&#45;03</text>
</g>
<!-- R343 -->
<g id="node7" class="node">
<title>R343</title>
<g id="a_node7"><a xlink:href="343.svg" xlink:title="R343">
<polygon fill="azure" stroke="none" points="94,-134.12 0,-134.12 0,-87.12 94,-87.12 94,-134.12"/>
<text text-anchor="middle" x="47" y="-102.12" font-family="Times New Roman,serif" font-size="35.00">R343</text>
</a>
</g>
</g>
<!-- R343&#45;&gt;R300 -->
<g id="edge7" class="edge">
<title>R343&#45;&gt;R300</title>
<path fill="none" stroke="black" d="M93.88,-108.86C208.13,-104.94 502.89,-97.73 597,-123.62 600.02,-124.45 603.05,-125.48 606.06,-126.66"/>
<polygon fill="black" stroke="black" points="604.54,-130.27 615.1,-131.15 607.4,-123.87 604.54,-130.27"/>
<text text-anchor="middle" x="350" y="-132.62" font-family="Times New Roman,serif" font-size="30.00"> &#160;&#160;780 &#160;&#160;0% &#160;&#160;0.00073 mol/s &#160;&#160;&#160;3.21E&#45;01</text>
</g>
<!-- R343&#45;&gt;R300 -->
<g id="edge8" class="edge">
<title>R343&#45;&gt;R300</title>
<path fill="none" stroke="black" d="M70.81,-87.26C79.99,-79.44 91.2,-71.69 103,-67.62 310.58,3.89 404.69,38.32 597,-67.62 617.7,-79.02 631.69,-101.86 640.38,-121.27"/>
<polygon fill="black" stroke="black" points="637.48,-122.43 644.56,-130.32 643.95,-119.75 637.48,-122.43"/>
<text text-anchor="middle" x="350" y="-76.62" font-family="Times New Roman,serif" font-size="30.00"> &#160;&#160;1010 &#160;&#160;0% &#160;&#160;0.000345 mol/s &#160;&#160;&#160;6.79E&#45;01</text>
</g>
</g>
</svg>
