<?xml version="1.0" encoding="UTF-8" standalone="no"?>
<!DOCTYPE svg PUBLIC "-//W3C//DTD SVG 1.1//EN"
 "http://www.w3.org/Graphics/SVG/1.1/DTD/svg11.dtd">
<!-- Generated by graphviz version 8.0.3 (20230416.2022)
 -->
<!-- Title: G Pages: 1 -->
<svg width="616pt" height="491pt"
 viewBox="0.00 0.00 693.00 551.93" xmlns="http://www.w3.org/2000/svg" xmlns:xlink="http://www.w3.org/1999/xlink">
<g id="graph0" class="graph" transform="scale(0.888889 0.888889) rotate(0) translate(4 547.93)">
<title>G</title>
<polygon fill="white" stroke="none" points="-4,4 -4,-547.93 689,-547.93 689,4 -4,4"/>
<text text-anchor="middle" x="342.5" y="-511.13" font-family="Arial" font-size="36.00" fill="blue">Reaction Path Analysis</text>
<!-- R305 -->
<g id="node1" class="node">
<title>R305</title>
<g id="a_node1"><a xlink:href="305.svg" xlink:title="R305">
<polygon fill="azure" stroke="none" points="94,-258.43 0,-258.43 0,-211.43 94,-211.43 94,-258.43"/>
<text text-anchor="middle" x="47" y="-226.43" font-family="Times New Roman,serif" font-size="35.00">R305</text>
</a>
</g>
</g>
<!-- R16 -->
<g id="node2" class="node">
<title>R16</title>
<g id="a_node2"><a xlink:href="16.svg" xlink:title="R16">
<polygon fill="azure" stroke="none" points="676,-472.43 600,-472.43 600,-425.43 676,-425.43 676,-472.43"/>
<text text-anchor="middle" x="638" y="-440.43" font-family="Times New Roman,serif" font-size="35.00">R16</text>
</a>
</g>
</g>
<!-- R305&#45;&gt;R16 -->
<g id="edge1" class="edge">
<title>R305&#45;&gt;R16</title>
<path fill="none" stroke="black" stroke-width="5" d="M47.01,-258.2C46.7,-298.84 52.64,-382.23 103,-421.93 175.39,-479 456.86,-463.77 579.43,-454.08"/>
<polygon fill="black" stroke="black" stroke-width="5" points="574.83,-462.74 594.05,-452.38 573.39,-445.3 574.83,-462.74"/>
<text text-anchor="middle" x="342.5" y="-471.93" font-family="Times New Roman,serif" font-size="30.00"> &#160;&#160;411 &#160;&#160;98% &#160;&#160;58.5 mol/s &#160;&#160;&#160;7.31E&#45;09</text>
</g>
<!-- R26 -->
<g id="node3" class="node">
<title>R26</title>
<g id="a_node3"><a xlink:href="26.svg" xlink:title="R26">
<polygon fill="azure" stroke="none" points="676,-407.43 600,-407.43 600,-360.43 676,-360.43 676,-407.43"/>
<text text-anchor="middle" x="638" y="-375.43" font-family="Times New Roman,serif" font-size="35.00">R26</text>
</a>
</g>
</g>
<!-- R305&#45;&gt;R26 -->
<g id="edge2" class="edge">
<title>R305&#45;&gt;R26</title>
<path fill="none" stroke="black" stroke-width="5" d="M50.88,-258.27C55.86,-287.53 69.06,-336.69 103,-359.93 141.54,-386.33 449.8,-386.05 579.66,-384.73"/>
<polygon fill="black" stroke="black" stroke-width="5" points="574.41,-393.47 594.31,-384.49 574.22,-375.97 574.41,-393.47"/>
<text text-anchor="middle" x="342.5" y="-393.93" font-family="Times New Roman,serif" font-size="30.00"> &#160;&#160;411 &#160;&#160;98% &#160;&#160;58.5 mol/s &#160;&#160;&#160;7.31E&#45;09</text>
</g>
<!-- R1 -->
<g id="node4" class="node">
<title>R1</title>
<g id="a_node4"><a xlink:href="1.svg" xlink:title="R1">
<polygon fill="azure" stroke="none" points="667,-342.43 609,-342.43 609,-295.43 667,-295.43 667,-342.43"/>
<text text-anchor="middle" x="638" y="-310.43" font-family="Times New Roman,serif" font-size="35.00">R1</text>
</a>
</g>
</g>
<!-- R305&#45;&gt;R1 -->
<g id="edge3" class="edge">
<title>R305&#45;&gt;R1</title>
<path fill="none" stroke="black" d="M64.27,-258.42C73.99,-270.42 87.47,-283.93 103,-290.93 191.4,-330.77 491.08,-324.24 598.38,-320.48"/>
<polygon fill="black" stroke="black" points="598.46,-323.95 608.33,-320.09 598.21,-316.95 598.46,-323.95"/>
<text text-anchor="middle" x="342.5" y="-331.93" font-family="Times New Roman,serif" font-size="30.00"> &#160;&#160;599 &#160;&#160;0% &#160;&#160;0.041 mol/s &#160;&#160;&#160;1.04E&#45;05</text>
</g>
<!-- R242 -->
<g id="node5" class="node">
<title>R242</title>
<g id="a_node5"><a xlink:href="242.svg" xlink:title="R242">
<polygon fill="azure" stroke="none" points="685,-277.43 591,-277.43 591,-230.43 685,-230.43 685,-277.43"/>
<text text-anchor="middle" x="638" y="-245.43" font-family="Times New Roman,serif" font-size="35.00">R242</text>
</a>
</g>
</g>
<!-- R305&#45;&gt;R242 -->
<g id="edge4" class="edge">
<title>R305&#45;&gt;R242</title>
<path fill="none" stroke="black" d="M93.89,-240.23C96.97,-240.5 100.03,-240.73 103,-240.93 276.74,-252.5 482.89,-254.09 580.44,-254.12"/>
<polygon fill="black" stroke="black" points="580.23,-257.62 590.23,-254.12 580.22,-250.62 580.23,-257.62"/>
<text text-anchor="middle" x="342.5" y="-262.93" font-family="Times New Roman,serif" font-size="30.00"> &#160;&#160;599 &#160;&#160;0% &#160;&#160;0.041 mol/s &#160;&#160;&#160;1.04E&#45;05</text>
</g>
<!-- R294 -->
<g id="node6" class="node">
<title>R294</title>
<g id="a_node6"><a xlink:href="294.svg" xlink:title="R294">
<polygon fill="azure" stroke="none" points="685,-193.43 591,-193.43 591,-146.43 685,-146.43 685,-193.43"/>
<text text-anchor="middle" x="638" y="-161.43" font-family="Times New Roman,serif" font-size="35.00">R294</text>
</a>
</g>
</g>
<!-- R305&#45;&gt;R294 -->
<g id="edge5" class="edge">
<title>R305&#45;&gt;R294</title>
<path fill="none" stroke="black" d="M83.92,-211.55C90.08,-208.47 96.57,-205.76 103,-203.93 202.38,-175.74 460.45,-199.62 580.43,-184.75"/>
<polygon fill="black" stroke="black" points="580.83,-188.09 590.25,-183.24 579.86,-181.16 580.83,-188.09"/>
<text text-anchor="middle" x="342.5" y="-212.93" font-family="Times New Roman,serif" font-size="30.00"> &#160;&#160;776 &#160;&#160;0% &#160;&#160;0.00365 mol/s &#160;&#160;&#160;1.32E&#45;01</text>
</g>
<!-- R305&#45;&gt;R294 -->
<g id="edge6" class="edge">
<title>R305&#45;&gt;R294</title>
<path fill="none" stroke="black" d="M55.44,-211.64C63.5,-190.75 78.58,-161.38 103,-147.93 147.43,-123.46 494.83,-136.49 580.5,-148.39"/>
<polygon fill="black" stroke="black" points="579.74,-151.98 590.17,-150.13 580.87,-145.07 579.74,-151.98"/>
<text text-anchor="middle" x="342.5" y="-156.93" font-family="Times New Roman,serif" font-size="30.00"> &#160;&#160;781 &#160;&#160;0% &#160;&#160;0.000555 mol/s &#160;&#160;&#160;8.68E&#45;01</text>
</g>
<!-- R257 -->
<g id="node7" class="node">
<title>R257</title>
<g id="a_node7"><a xlink:href="257.svg" xlink:title="R257">
<polygon fill="azure" stroke="none" points="685,-90.43 591,-90.43 591,-43.43 685,-43.43 685,-90.43"/>
<text text-anchor="middle" x="638" y="-58.43" font-family="Times New Roman,serif" font-size="35.00">R257</text>
</a>
</g>
</g>
<!-- R305&#45;&gt;R257 -->
<g id="edge7" class="edge">
<title>R305&#45;&gt;R257</title>
<path fill="none" stroke="black" d="M49.84,-211.47C53.72,-179.61 65.76,-123.56 103,-96.93 144.31,-67.39 493.76,-76.2 580.31,-72.75"/>
<polygon fill="black" stroke="black" points="580.31,-76.2 590.1,-72.14 579.92,-69.21 580.31,-76.2"/>
<text text-anchor="middle" x="342.5" y="-105.93" font-family="Times New Roman,serif" font-size="30.00"> &#160;&#160;782 &#160;&#160;0% &#160;&#160;0.000653 mol/s &#160;&#160;&#160;9.99E&#45;01</text>
</g>
<!-- R305&#45;&gt;R257 -->
<g id="edge8" class="edge">
<title>R305&#45;&gt;R257</title>
<path fill="none" stroke="black" d="M50.94,-211.5C57.48,-163.63 74.91,-57.32 103,-35.93 187.7,28.53 479.04,-8.92 582,-35.93 585.18,-36.77 588.38,-37.83 591.54,-39.07"/>
<polygon fill="black" stroke="black" points="589.88,-42.61 600.44,-43.48 592.73,-36.21 589.88,-42.61"/>
<text text-anchor="middle" x="342.5" y="-44.93" font-family="Times New Roman,serif" font-size="30.00"> &#160;&#160;964 &#160;&#160;0% &#160;&#160;0.572 mol/s &#160;&#160;&#160;1.14E&#45;03</text>
</g>
</g>
</svg>
