<?xml version="1.0" encoding="UTF-8" standalone="no"?>
<!DOCTYPE svg PUBLIC "-//W3C//DTD SVG 1.1//EN"
 "http://www.w3.org/Graphics/SVG/1.1/DTD/svg11.dtd">
<!-- Generated by graphviz version 8.0.3 (20230416.2022)
 -->
<!-- Title: G Pages: 1 -->
<svg width="640pt" height="319pt"
 viewBox="0.00 0.00 720.00 358.46" xmlns="http://www.w3.org/2000/svg" xmlns:xlink="http://www.w3.org/1999/xlink">
<g id="graph0" class="graph" transform="scale(0.885201 0.885201) rotate(0) translate(4 355.95)">
<title>G</title>
<polygon fill="white" stroke="none" points="-4,4 -4,-355.95 719,-355.95 719,4 -4,4"/>
<text text-anchor="middle" x="357.5" y="-319.15" font-family="Arial" font-size="36.00" fill="blue">Reaction Path Analysis</text>
<!-- R307 -->
<g id="node1" class="node">
<title>R307</title>
<g id="a_node1"><a xlink:href="307.svg" xlink:title="R307">
<polygon fill="azure" stroke="none" points="94,-165.45 0,-165.45 0,-118.45 94,-118.45 94,-165.45"/>
<text text-anchor="middle" x="47" y="-133.45" font-family="Times New Roman,serif" font-size="35.00">R307</text>
</a>
</g>
</g>
<!-- R16 -->
<g id="node2" class="node">
<title>R16</title>
<g id="a_node2"><a xlink:href="16.svg" xlink:title="R16">
<polygon fill="azure" stroke="none" points="706,-263.45 630,-263.45 630,-216.45 706,-216.45 706,-263.45"/>
<text text-anchor="middle" x="668" y="-231.45" font-family="Times New Roman,serif" font-size="35.00">R16</text>
</a>
</g>
</g>
<!-- R307&#45;&gt;R16 -->
<g id="edge1" class="edge">
<title>R307&#45;&gt;R16</title>
<path fill="none" stroke="black" stroke-width="3" d="M59.41,-165.24C68.72,-181.44 83.51,-201.87 103,-211.95 275.25,-301.02 518.01,-269.17 619.5,-250.08"/>
<polygon fill="black" stroke="black" stroke-width="3" points="616.87,-253.38 626.02,-248.05 615.54,-246.51 616.87,-253.38"/>
<text text-anchor="middle" x="357.5" y="-279.95" font-family="Times New Roman,serif" font-size="30.00"> &#160;&#160;413 &#160;&#160;41% &#160;&#160;2670000.0 mol/s &#160;&#160;&#160;1.60E&#45;13</text>
</g>
<!-- R27 -->
<g id="node3" class="node">
<title>R27</title>
<g id="a_node3"><a xlink:href="27.svg" xlink:title="R27">
<polygon fill="azure" stroke="none" points="706,-198.45 630,-198.45 630,-151.45 706,-151.45 706,-198.45"/>
<text text-anchor="middle" x="668" y="-166.45" font-family="Times New Roman,serif" font-size="35.00">R27</text>
</a>
</g>
</g>
<!-- R307&#45;&gt;R27 -->
<g id="edge2" class="edge">
<title>R307&#45;&gt;R27</title>
<path fill="none" stroke="black" stroke-width="3" d="M93.83,-151.68C96.92,-152.17 100,-152.6 103,-152.95 293.24,-175.54 521.86,-176.46 619.28,-175.63"/>
<polygon fill="black" stroke="black" stroke-width="3" points="616.25,-179.12 626.22,-175.53 616.19,-172.12 616.25,-179.12"/>
<text text-anchor="middle" x="357.5" y="-183.95" font-family="Times New Roman,serif" font-size="30.00"> &#160;&#160;413 &#160;&#160;41% &#160;&#160;2670000.0 mol/s &#160;&#160;&#160;1.60E&#45;13</text>
</g>
<!-- R13 -->
<g id="node4" class="node">
<title>R13</title>
<g id="a_node4"><a xlink:href="13.svg" xlink:title="R13">
<polygon fill="azure" stroke="none" points="706,-133.45 630,-133.45 630,-86.45 706,-86.45 706,-133.45"/>
<text text-anchor="middle" x="668" y="-101.45" font-family="Times New Roman,serif" font-size="35.00">R13</text>
</a>
</g>
</g>
<!-- R307&#45;&gt;R13 -->
<g id="edge3" class="edge">
<title>R307&#45;&gt;R13</title>
<path fill="none" stroke="black" stroke-width="3" d="M93.84,-122.22C96.9,-121.33 99.98,-120.56 103,-119.95 291.1,-82 521.68,-96.29 619.51,-105.08"/>
<polygon fill="black" stroke="black" stroke-width="3" points="615.94,-108.63 626.22,-106.07 616.58,-101.66 615.94,-108.63"/>
<text text-anchor="middle" x="357.5" y="-128.95" font-family="Times New Roman,serif" font-size="30.00"> &#160;&#160;629 &#160;&#160;58% &#160;&#160;3780000.0 mol/s &#160;&#160;&#160;1.13E&#45;13</text>
</g>
<!-- R110 -->
<g id="node5" class="node">
<title>R110</title>
<g id="a_node5"><a xlink:href="110.svg" xlink:title="R110">
<polygon fill="azure" stroke="none" points="715,-68.45 621,-68.45 621,-21.45 715,-21.45 715,-68.45"/>
<text text-anchor="middle" x="668" y="-36.45" font-family="Times New Roman,serif" font-size="35.00">R110</text>
</a>
</g>
</g>
<!-- R307&#45;&gt;R110 -->
<g id="edge4" class="edge">
<title>R307&#45;&gt;R110</title>
<path fill="none" stroke="black" stroke-width="3" d="M56.06,-118.78C64.4,-98.74 79.53,-70.99 103,-57.95 267.93,33.67 504,-5.24 610.76,-30.11"/>
<polygon fill="black" stroke="black" stroke-width="3" points="606.75,-32.7 617.29,-31.62 608.37,-25.89 606.75,-32.7"/>
<text text-anchor="middle" x="357.5" y="-66.95" font-family="Times New Roman,serif" font-size="30.00"> &#160;&#160;629 &#160;&#160;58% &#160;&#160;3780000.0 mol/s &#160;&#160;&#160;1.13E&#45;13</text>
</g>
</g>
</svg>
