<?xml version="1.0" encoding="UTF-8" standalone="no"?>
<!DOCTYPE svg PUBLIC "-//W3C//DTD SVG 1.1//EN"
 "http://www.w3.org/Graphics/SVG/1.1/DTD/svg11.dtd">
<!-- Generated by graphviz version 8.0.3 (20230416.2022)
 -->
<!-- Title: G Pages: 1 -->
<svg width="640pt" height="220pt"
 viewBox="0.00 0.00 720.00 247.14" xmlns="http://www.w3.org/2000/svg" xmlns:xlink="http://www.w3.org/1999/xlink">
<g id="graph0" class="graph" transform="scale(0.505529 0.505529) rotate(0) translate(4 430.55)">
<title>G</title>
<polygon fill="white" stroke="none" points="-4,4 -4,-430.55 1262,-430.55 1262,4 -4,4"/>
<text text-anchor="middle" x="629" y="-393.75" font-family="Arial" font-size="36.00" fill="blue">Reaction Path Analysis</text>
<!-- R31 -->
<g id="node1" class="node">
<title>R31</title>
<g id="a_node1"><a xlink:href="31.svg" xlink:title="R31">
<polygon fill="azure" stroke="none" points="676,-202.05 600,-202.05 600,-155.05 676,-155.05 676,-202.05"/>
<text text-anchor="middle" x="638" y="-170.05" font-family="Times New Roman,serif" font-size="35.00">R31</text>
</a>
</g>
</g>
<!-- R4 -->
<g id="node2" class="node">
<title>R4</title>
<g id="a_node2"><a xlink:href="4.svg" xlink:title="R4">
<polygon fill="azure" stroke="none" points="1258,-235.05 1200,-235.05 1200,-188.05 1258,-188.05 1258,-235.05"/>
<text text-anchor="middle" x="1229" y="-203.05" font-family="Times New Roman,serif" font-size="35.00">R4</text>
</a>
</g>
</g>
<!-- R31&#45;&gt;R4 -->
<g id="edge1" class="edge">
<title>R31&#45;&gt;R4</title>
<path fill="none" stroke="black" stroke-width="6" d="M675.95,-185.16C686.59,-186.84 698.23,-188.48 709,-189.55 881.29,-206.68 1087.05,-210.49 1179.19,-211.32"/>
<polygon fill="black" stroke="black" stroke-width="6" points="1174,-221.83 1194.07,-211.48 1174.15,-200.83 1174,-221.83"/>
<text text-anchor="middle" x="933.5" y="-219.55" font-family="Times New Roman,serif" font-size="30.00"> &#160;&#160;36 &#160;&#160;100% &#160;&#160;1e&#45;05 mol/s &#160;&#160;&#160;3.94E&#45;02</text>
</g>
<!-- R2 -->
<g id="node3" class="node">
<title>R2</title>
<g id="a_node3"><a xlink:href="2.svg" xlink:title="R2">
<polygon fill="azure" stroke="none" points="1258,-170.05 1200,-170.05 1200,-123.05 1258,-123.05 1258,-170.05"/>
<text text-anchor="middle" x="1229" y="-138.05" font-family="Times New Roman,serif" font-size="35.00">R2</text>
</a>
</g>
</g>
<!-- R31&#45;&gt;R2 -->
<g id="edge2" class="edge">
<title>R31&#45;&gt;R2</title>
<path fill="none" stroke="black" stroke-width="6" d="M675.94,-164.78C686.47,-161.45 698.06,-158.34 709,-156.55 879.96,-128.63 1086.78,-137 1179.23,-142.9"/>
<polygon fill="black" stroke="black" stroke-width="6" points="1173.51,-153.45 1194.18,-144.33 1174.94,-132.49 1173.51,-153.45"/>
<text text-anchor="middle" x="933.5" y="-165.55" font-family="Times New Roman,serif" font-size="30.00"> &#160;&#160;36 &#160;&#160;100% &#160;&#160;1e&#45;05 mol/s &#160;&#160;&#160;3.94E&#45;02</text>
</g>
<!-- R0 -->
<g id="node4" class="node">
<title>R0</title>
<g id="a_node4"><a xlink:href="0.svg" xlink:title="R0">
<polygon fill="azure" stroke="none" points="76,-332.05 18,-332.05 18,-285.05 76,-285.05 76,-332.05"/>
<text text-anchor="middle" x="47" y="-300.05" font-family="Times New Roman,serif" font-size="35.00">R0</text>
</a>
</g>
</g>
<!-- R0&#45;&gt;R31 -->
<g id="edge3" class="edge">
<title>R0&#45;&gt;R31</title>
<path fill="none" stroke="black" d="M75.77,-315.92C159.88,-336.55 416.23,-386.74 582,-281.55 606.34,-266.1 620.61,-236.03 628.49,-212.35"/>
<polygon fill="black" stroke="black" points="632.08,-213.58 631.67,-202.99 625.39,-211.53 632.08,-213.58"/>
<text text-anchor="middle" x="342.5" y="-354.55" font-family="Times New Roman,serif" font-size="30.00"> &#160;&#160;104 &#160;&#160;0% &#160;&#160;4.21e&#45;07 mol/s &#160;&#160;&#160;9.85E&#45;01</text>
</g>
<!-- R17 -->
<g id="node5" class="node">
<title>R17</title>
<g id="a_node5"><a xlink:href="17.svg" xlink:title="R17">
<polygon fill="azure" stroke="none" points="85,-267.05 9,-267.05 9,-220.05 85,-220.05 85,-267.05"/>
<text text-anchor="middle" x="47" y="-235.05" font-family="Times New Roman,serif" font-size="35.00">R17</text>
</a>
</g>
</g>
<!-- R17&#45;&gt;R31 -->
<g id="edge4" class="edge">
<title>R17&#45;&gt;R31</title>
<path fill="none" stroke="black" d="M84.95,-244.16C190.15,-245.49 489.65,-246.39 582,-215.55 587.94,-213.56 593.85,-210.75 599.46,-207.55"/>
<polygon fill="black" stroke="black" points="600.94,-210.13 607.58,-201.87 597.24,-204.18 600.94,-210.13"/>
<text text-anchor="middle" x="342.5" y="-253.55" font-family="Times New Roman,serif" font-size="30.00"> &#160;&#160;104 &#160;&#160;0% &#160;&#160;4.21e&#45;07 mol/s &#160;&#160;&#160;9.85E&#45;01</text>
</g>
<!-- R126 -->
<g id="node6" class="node">
<title>R126</title>
<g id="a_node6"><a xlink:href="126.svg" xlink:title="R126">
<polygon fill="azure" stroke="none" points="94,-202.05 0,-202.05 0,-155.05 94,-155.05 94,-202.05"/>
<text text-anchor="middle" x="47" y="-170.05" font-family="Times New Roman,serif" font-size="35.00">R126</text>
</a>
</g>
</g>
<!-- R126&#45;&gt;R31 -->
<g id="edge5" class="edge">
<title>R126&#45;&gt;R31</title>
<path fill="none" stroke="black" stroke-width="3" d="M93.73,-178.55C202.96,-178.55 478.21,-178.55 589.36,-178.55"/>
<polygon fill="black" stroke="black" stroke-width="3" points="586.21,-182.05 596.21,-178.55 586.21,-175.05 586.21,-182.05"/>
<text text-anchor="middle" x="342.5" y="-187.55" font-family="Times New Roman,serif" font-size="30.00"> &#160;&#160;178 &#160;&#160;50% &#160;&#160;0.00508 mol/s &#160;&#160;&#160;8.42E&#45;05</text>
</g>
<!-- R188 -->
<g id="node7" class="node">
<title>R188</title>
<g id="a_node7"><a xlink:href="188.svg" xlink:title="R188">
<polygon fill="azure" stroke="none" points="94,-137.05 0,-137.05 0,-90.05 94,-90.05 94,-137.05"/>
<text text-anchor="middle" x="47" y="-105.05" font-family="Times New Roman,serif" font-size="35.00">R188</text>
</a>
</g>
</g>
<!-- R188&#45;&gt;R31 -->
<g id="edge6" class="edge">
<title>R188&#45;&gt;R31</title>
<path fill="none" stroke="black" stroke-width="2" d="M93.81,-107.95C188.08,-98.12 409.41,-83.92 582,-141.55 587.94,-143.53 593.85,-146.35 599.46,-149.55"/>
<polygon fill="black" stroke="black" stroke-width="2" points="596.24,-151.92 606.58,-154.23 599.94,-145.97 596.24,-151.92"/>
<text text-anchor="middle" x="342.5" y="-150.55" font-family="Times New Roman,serif" font-size="30.00"> &#160;&#160;249 &#160;&#160;37% &#160;&#160;0.00378 mol/s &#160;&#160;&#160;1.13E&#45;04</text>
</g>
<!-- R254 -->
<g id="node8" class="node">
<title>R254</title>
<g id="a_node8"><a xlink:href="254.svg" xlink:title="R254">
<polygon fill="azure" stroke="none" points="94,-72.05 0,-72.05 0,-25.05 94,-25.05 94,-72.05"/>
<text text-anchor="middle" x="47" y="-40.05" font-family="Times New Roman,serif" font-size="35.00">R254</text>
</a>
</g>
</g>
<!-- R254&#45;&gt;R31 -->
<g id="edge7" class="edge">
<title>R254&#45;&gt;R31</title>
<path fill="none" stroke="black" d="M93.75,-34.9C192.27,-8.45 428,38.87 582,-61.55 610.38,-80.06 624.42,-117.42 631.15,-144.97"/>
<polygon fill="black" stroke="black" points="627.88,-145.35 633.47,-154.35 634.71,-143.83 627.88,-145.35"/>
<text text-anchor="middle" x="342.5" y="-70.55" font-family="Times New Roman,serif" font-size="30.00"> &#160;&#160;343 &#160;&#160;11% &#160;&#160;0.0012 mol/s &#160;&#160;&#160;3.56E&#45;04</text>
</g>
</g>
</svg>
