<?xml version="1.0" encoding="UTF-8" standalone="no"?>
<!DOCTYPE svg PUBLIC "-//W3C//DTD SVG 1.1//EN"
 "http://www.w3.org/Graphics/SVG/1.1/DTD/svg11.dtd">
<!-- Generated by graphviz version 8.0.3 (20230416.2022)
 -->
<!-- Title: G Pages: 1 -->
<svg width="640pt" height="118pt"
 viewBox="0.00 0.00 720.00 132.36" xmlns="http://www.w3.org/2000/svg" xmlns:xlink="http://www.w3.org/1999/xlink">
<g id="graph0" class="graph" transform="scale(0.481203 0.481203) rotate(0) translate(4 240.5)">
<title>G</title>
<polygon fill="white" stroke="none" points="-4,4 -4,-240.5 1326,-240.5 1326,4 -4,4"/>
<text text-anchor="middle" x="661" y="-203.7" font-family="Arial" font-size="36.00" fill="blue">Reaction Path Analysis</text>
<!-- R316 -->
<g id="node1" class="node">
<title>R316</title>
<g id="a_node1"><a xlink:href="316.svg" xlink:title="R316">
<polygon fill="azure" stroke="none" points="708,-118 614,-118 614,-71 708,-71 708,-118"/>
<text text-anchor="middle" x="661" y="-86" font-family="Times New Roman,serif" font-size="35.00">R316</text>
</a>
</g>
</g>
<!-- R119 -->
<g id="node4" class="node">
<title>R119</title>
<g id="a_node4"><a xlink:href="119.svg" xlink:title="R119">
<polygon fill="azure" stroke="none" points="1322,-151 1228,-151 1228,-104 1322,-104 1322,-151"/>
<text text-anchor="middle" x="1275" y="-119" font-family="Times New Roman,serif" font-size="35.00">R119</text>
</a>
</g>
</g>
<!-- R316&#45;&gt;R119 -->
<g id="edge3" class="edge">
<title>R316&#45;&gt;R119</title>
<path fill="none" stroke="black" stroke-width="6" d="M707.83,-104.23C710.92,-104.71 714,-105.14 717,-105.5 893.29,-126.47 1102.95,-128.68 1207.63,-128.25"/>
<polygon fill="black" stroke="black" stroke-width="6" points="1202.39,-138.75 1222.32,-128.13 1202.26,-117.75 1202.39,-138.75"/>
<text text-anchor="middle" x="968" y="-136.5" font-family="Times New Roman,serif" font-size="30.00"> &#160;&#160;567 &#160;&#160;100% &#160;&#160;1.46e&#45;05 mol/s &#160;&#160;&#160;2.77E&#45;02</text>
</g>
<!-- R1 -->
<g id="node5" class="node">
<title>R1</title>
<g id="a_node5"><a xlink:href="1.svg" xlink:title="R1">
<polygon fill="azure" stroke="none" points="1304,-86 1246,-86 1246,-39 1304,-39 1304,-86"/>
<text text-anchor="middle" x="1275" y="-54" font-family="Times New Roman,serif" font-size="35.00">R1</text>
</a>
</g>
</g>
<!-- R316&#45;&gt;R1 -->
<g id="edge4" class="edge">
<title>R316&#45;&gt;R1</title>
<path fill="none" stroke="black" stroke-width="6" d="M707.84,-74.76C710.91,-73.88 713.98,-73.11 717,-72.5 901.73,-35.2 1127.93,-48.89 1225.46,-57.55"/>
<polygon fill="black" stroke="black" stroke-width="6" points="1219.2,-68.07 1240.09,-59.48 1221.16,-47.16 1219.2,-68.07"/>
<text text-anchor="middle" x="968" y="-81.5" font-family="Times New Roman,serif" font-size="30.00"> &#160;&#160;567 &#160;&#160;100% &#160;&#160;1.46e&#45;05 mol/s &#160;&#160;&#160;2.77E&#45;02</text>
</g>
<!-- R81 -->
<g id="node2" class="node">
<title>R81</title>
<g id="a_node2"><a xlink:href="81.svg" xlink:title="R81">
<polygon fill="azure" stroke="none" points="85,-150 9,-150 9,-103 85,-103 85,-150"/>
<text text-anchor="middle" x="47" y="-118" font-family="Times New Roman,serif" font-size="35.00">R81</text>
</a>
</g>
</g>
<!-- R81&#45;&gt;R316 -->
<g id="edge1" class="edge">
<title>R81&#45;&gt;R316</title>
<path fill="none" stroke="black" d="M84.75,-133.14C174.73,-148.02 412.49,-178.92 601,-128.5 606.29,-127.08 611.6,-125.07 616.74,-122.71"/>
<polygon fill="black" stroke="black" points="618.04,-125.47 625.39,-117.84 614.88,-119.23 618.04,-125.47"/>
<text text-anchor="middle" x="354" y="-164.5" font-family="Times New Roman,serif" font-size="30.00"> &#160;&#160;464 &#160;&#160;19% &#160;&#160;0.000161 mol/s &#160;&#160;&#160;5.70E&#45;01</text>
</g>
<!-- R81&#45;&gt;R316 -->
<g id="edge5" class="edge">
<title>R81&#45;&gt;R316</title>
<path fill="none" stroke="black" stroke-width="2" d="M80.6,-103.01C88.83,-98.27 97.93,-93.99 107,-91.5 199.03,-66.25 481.6,-82.02 603.29,-90.33"/>
<polygon fill="black" stroke="black" stroke-width="2" points="600.98,-93.89 611.2,-91.09 601.47,-86.91 600.98,-93.89"/>
<text text-anchor="middle" x="354" y="-100.5" font-family="Times New Roman,serif" font-size="30.00"> &#160;&#160;790 &#160;&#160;26% &#160;&#160;0.000214 mol/s &#160;&#160;&#160;4.30E&#45;01</text>
</g>
<!-- R325 -->
<g id="node3" class="node">
<title>R325</title>
<g id="a_node3"><a xlink:href="325.svg" xlink:title="R325">
<polygon fill="azure" stroke="none" points="94,-62 0,-62 0,-15 94,-15 94,-62"/>
<text text-anchor="middle" x="47" y="-30" font-family="Times New Roman,serif" font-size="35.00">R325</text>
</a>
</g>
</g>
<!-- R325&#45;&gt;R316 -->
<g id="edge2" class="edge">
<title>R325&#45;&gt;R316</title>
<path fill="none" stroke="black" stroke-width="3" d="M93.77,-27.95C191.14,-7.77 424.38,28.49 601,-40.5 613.53,-45.39 625.03,-54.31 634.48,-63.52"/>
<polygon fill="black" stroke="black" stroke-width="3" points="629.45,-63.46 638.91,-68.23 634.49,-58.6 629.45,-63.46"/>
<text text-anchor="middle" x="354" y="-49.5" font-family="Times New Roman,serif" font-size="30.00"> &#160;&#160;549 &#160;&#160;53% &#160;&#160;0.000433 mol/s &#160;&#160;&#160;9.86E&#45;04</text>
</g>
</g>
</svg>
