<?xml version="1.0" encoding="UTF-8" standalone="no"?>
<!DOCTYPE svg PUBLIC "-//W3C//DTD SVG 1.1//EN"
 "http://www.w3.org/Graphics/SVG/1.1/DTD/svg11.dtd">
<!-- Generated by graphviz version 8.0.3 (20230416.2022)
 -->
<!-- Title: G Pages: 1 -->
<svg width="640pt" height="157pt"
 viewBox="0.00 0.00 720.00 176.27" xmlns="http://www.w3.org/2000/svg" xmlns:xlink="http://www.w3.org/1999/xlink">
<g id="graph0" class="graph" transform="scale(0.481203 0.481203) rotate(0) translate(4 321.62)">
<title>G</title>
<polygon fill="white" stroke="none" points="-4,4 -4,-321.62 1326,-321.62 1326,4 -4,4"/>
<text text-anchor="middle" x="661" y="-284.82" font-family="Arial" font-size="36.00" fill="blue">Reaction Path Analysis</text>
<!-- R317 -->
<g id="node1" class="node">
<title>R317</title>
<g id="a_node1"><a xlink:href="317.svg" xlink:title="R317">
<polygon fill="azure" stroke="none" points="708,-163.12 614,-163.12 614,-116.12 708,-116.12 708,-163.12"/>
<text text-anchor="middle" x="661" y="-131.12" font-family="Times New Roman,serif" font-size="35.00">R317</text>
</a>
</g>
</g>
<!-- R119 -->
<g id="node3" class="node">
<title>R119</title>
<g id="a_node3"><a xlink:href="119.svg" xlink:title="R119">
<polygon fill="azure" stroke="none" points="1322,-196.12 1228,-196.12 1228,-149.12 1322,-149.12 1322,-196.12"/>
<text text-anchor="middle" x="1275" y="-164.12" font-family="Times New Roman,serif" font-size="35.00">R119</text>
</a>
</g>
</g>
<!-- R317&#45;&gt;R119 -->
<g id="edge2" class="edge">
<title>R317&#45;&gt;R119</title>
<path fill="none" stroke="black" stroke-width="6" d="M707.83,-149.35C710.92,-149.83 714,-150.26 717,-150.62 893.29,-171.6 1102.95,-173.8 1207.63,-173.37"/>
<polygon fill="black" stroke="black" stroke-width="6" points="1202.39,-183.87 1222.32,-173.25 1202.26,-162.87 1202.39,-183.87"/>
<text text-anchor="middle" x="968" y="-181.62" font-family="Times New Roman,serif" font-size="30.00"> &#160;&#160;635 &#160;&#160;100% &#160;&#160;2.49e&#45;05 mol/s &#160;&#160;&#160;1.66E&#45;02</text>
</g>
<!-- R13 -->
<g id="node4" class="node">
<title>R13</title>
<g id="a_node4"><a xlink:href="13.svg" xlink:title="R13">
<polygon fill="azure" stroke="none" points="1313,-131.12 1237,-131.12 1237,-84.12 1313,-84.12 1313,-131.12"/>
<text text-anchor="middle" x="1275" y="-99.12" font-family="Times New Roman,serif" font-size="35.00">R13</text>
</a>
</g>
</g>
<!-- R317&#45;&gt;R13 -->
<g id="edge3" class="edge">
<title>R317&#45;&gt;R13</title>
<path fill="none" stroke="black" stroke-width="6" d="M707.84,-119.88C710.91,-119 713.98,-118.23 717,-117.62 896.11,-81.45 1114.21,-93.22 1216.21,-101.87"/>
<polygon fill="black" stroke="black" stroke-width="6" points="1210.15,-112.41 1231.01,-103.73 1212.02,-91.49 1210.15,-112.41"/>
<text text-anchor="middle" x="968" y="-126.62" font-family="Times New Roman,serif" font-size="30.00"> &#160;&#160;635 &#160;&#160;100% &#160;&#160;2.49e&#45;05 mol/s &#160;&#160;&#160;1.66E&#45;02</text>
</g>
<!-- R82 -->
<g id="node2" class="node">
<title>R82</title>
<g id="a_node2"><a xlink:href="82.svg" xlink:title="R82">
<polygon fill="azure" stroke="none" points="85,-207.12 9,-207.12 9,-160.12 85,-160.12 85,-207.12"/>
<text text-anchor="middle" x="47" y="-175.12" font-family="Times New Roman,serif" font-size="35.00">R82</text>
</a>
</g>
</g>
<!-- R82&#45;&gt;R317 -->
<g id="edge1" class="edge">
<title>R82&#45;&gt;R317</title>
<path fill="none" stroke="black" d="M84.78,-194.49C175.21,-219.23 414.08,-272.28 593.5,-201.62 609.61,-195.27 624.12,-182.98 635.45,-171.01"/>
<polygon fill="black" stroke="black" points="637.7,-173.63 641.76,-163.84 632.48,-168.96 637.7,-173.63"/>
<text text-anchor="middle" x="354" y="-245.62" font-family="Times New Roman,serif" font-size="30.00"> &#160;&#160;466 &#160;&#160;0% &#160;&#160;0.000547 mol/s &#160;&#160;&#160;8.59E&#45;01</text>
</g>
<!-- R82&#45;&gt;R317 -->
<g id="edge6" class="edge">
<title>R82&#45;&gt;R317</title>
<path fill="none" stroke="black" d="M84.93,-171.38C94.46,-168.69 104.78,-166.18 114.5,-164.62 324.87,-130.89 380.89,-159.42 593.5,-145.62 596.75,-145.41 600.09,-145.17 603.45,-144.91"/>
<polygon fill="black" stroke="black" points="603.55,-148.34 613.23,-144.05 602.99,-141.36 603.55,-148.34"/>
<text text-anchor="middle" x="354" y="-173.62" font-family="Times New Roman,serif" font-size="30.00"> &#160;&#160;792 &#160;&#160;1% &#160;&#160;0.00334 mol/s &#160;&#160;&#160;1.41E&#45;01</text>
</g>
<!-- R116 -->
<g id="node5" class="node">
<title>R116</title>
<g id="a_node5"><a xlink:href="116.svg" xlink:title="R116">
<polygon fill="azure" stroke="none" points="94,-119.12 0,-119.12 0,-72.12 94,-72.12 94,-119.12"/>
<text text-anchor="middle" x="47" y="-87.12" font-family="Times New Roman,serif" font-size="35.00">R116</text>
</a>
</g>
</g>
<!-- R116&#45;&gt;R317 -->
<g id="edge4" class="edge">
<title>R116&#45;&gt;R317</title>
<path fill="none" stroke="black" d="M93.84,-94.97C207.27,-93.7 498.71,-92.57 593.5,-112.62 596.91,-113.34 600.38,-114.23 603.84,-115.23"/>
<polygon fill="black" stroke="black" points="602.56,-118.82 613.15,-118.57 604.72,-112.16 602.56,-118.82"/>
<text text-anchor="middle" x="354" y="-121.62" font-family="Times New Roman,serif" font-size="30.00"> &#160;&#160;647 &#160;&#160;0% &#160;&#160;0.000652 mol/s &#160;&#160;&#160;9.98E&#45;01</text>
</g>
<!-- R116&#45;&gt;R317 -->
<g id="edge5" class="edge">
<title>R116&#45;&gt;R317</title>
<path fill="none" stroke="black" stroke-width="5" d="M79.94,-72.29C90.43,-65.92 102.49,-59.88 114.5,-56.62 319.95,-0.82 401.59,35.53 593.5,-56.62 612.02,-65.51 627.01,-82.36 638.03,-98.56"/>
<polygon fill="black" stroke="black" stroke-width="5" points="628.06,-98.94 645.95,-111.45 643,-89.82 628.06,-98.94"/>
<text text-anchor="middle" x="354" y="-65.62" font-family="Times New Roman,serif" font-size="30.00"> &#160;&#160;791 &#160;&#160;98% &#160;&#160;0.292 mol/s &#160;&#160;&#160;2.23E&#45;03</text>
</g>
</g>
</svg>
