<?xml version="1.0" encoding="UTF-8" standalone="no"?>
<!DOCTYPE svg PUBLIC "-//W3C//DTD SVG 1.1//EN"
 "http://www.w3.org/Graphics/SVG/1.1/DTD/svg11.dtd">
<!-- Generated by graphviz version 8.0.3 (20230416.2022)
 -->
<!-- Title: G Pages: 1 -->
<svg width="640pt" height="173pt"
 viewBox="0.00 0.00 720.00 194.83" xmlns="http://www.w3.org/2000/svg" xmlns:xlink="http://www.w3.org/1999/xlink">
<g id="graph0" class="graph" transform="scale(0.49574 0.49574) rotate(0) translate(4 345.34)">
<title>G</title>
<polygon fill="white" stroke="none" points="-4,4 -4,-345.34 1287,-345.34 1287,4 -4,4"/>
<text text-anchor="middle" x="641.5" y="-308.54" font-family="Arial" font-size="36.00" fill="blue">Reaction Path Analysis</text>
<!-- R32 -->
<g id="node1" class="node">
<title>R32</title>
<g id="a_node1"><a xlink:href="32.svg" xlink:title="R32">
<polygon fill="azure" stroke="none" points="684,-158.84 608,-158.84 608,-111.84 684,-111.84 684,-158.84"/>
<text text-anchor="middle" x="646" y="-126.84" font-family="Times New Roman,serif" font-size="35.00">R32</text>
</a>
</g>
</g>
<!-- R5 -->
<g id="node2" class="node">
<title>R5</title>
<g id="a_node2"><a xlink:href="5.svg" xlink:title="R5">
<polygon fill="azure" stroke="none" points="1274,-256.84 1216,-256.84 1216,-209.84 1274,-209.84 1274,-256.84"/>
<text text-anchor="middle" x="1245" y="-224.84" font-family="Times New Roman,serif" font-size="35.00">R5</text>
</a>
</g>
</g>
<!-- R32&#45;&gt;R5 -->
<g id="edge1" class="edge">
<title>R32&#45;&gt;R5</title>
<path fill="none" stroke="black" stroke-width="5" d="M659.66,-158.65C669.85,-174.86 685.79,-195.3 706,-205.34 869.76,-286.73 1097.2,-260.13 1195.52,-243.02"/>
<polygon fill="black" stroke="black" stroke-width="5" points="1191.97,-252.47 1210.06,-240.25 1188.81,-235.25 1191.97,-252.47"/>
<text text-anchor="middle" x="945.5" y="-269.34" font-family="Times New Roman,serif" font-size="30.00"> &#160;&#160;37 &#160;&#160;99% &#160;&#160;0.000691 mol/s &#160;&#160;&#160;6.18E&#45;04</text>
</g>
<!-- R2 -->
<g id="node3" class="node">
<title>R2</title>
<g id="a_node3"><a xlink:href="2.svg" xlink:title="R2">
<polygon fill="azure" stroke="none" points="1274,-191.84 1216,-191.84 1216,-144.84 1274,-144.84 1274,-191.84"/>
<text text-anchor="middle" x="1245" y="-159.84" font-family="Times New Roman,serif" font-size="35.00">R2</text>
</a>
</g>
</g>
<!-- R32&#45;&gt;R2 -->
<g id="edge2" class="edge">
<title>R32&#45;&gt;R2</title>
<path fill="none" stroke="black" stroke-width="5" d="M683.7,-143.03C691.06,-144.33 698.75,-145.52 706,-146.34 885.56,-166.64 1100.71,-168.83 1195.32,-168.68"/>
<polygon fill="black" stroke="black" stroke-width="5" points="1190.21,-177.43 1210.17,-168.61 1190.14,-159.93 1190.21,-177.43"/>
<text text-anchor="middle" x="945.5" y="-177.34" font-family="Times New Roman,serif" font-size="30.00"> &#160;&#160;37 &#160;&#160;99% &#160;&#160;0.000691 mol/s &#160;&#160;&#160;6.18E&#45;04</text>
</g>
<!-- R0 -->
<g id="node4" class="node">
<title>R0</title>
<g id="a_node4"><a xlink:href="0.svg" xlink:title="R0">
<polygon fill="azure" stroke="none" points="1274,-126.84 1216,-126.84 1216,-79.84 1274,-79.84 1274,-126.84"/>
<text text-anchor="middle" x="1245" y="-94.84" font-family="Times New Roman,serif" font-size="35.00">R0</text>
</a>
</g>
</g>
<!-- R32&#45;&gt;R0 -->
<g id="edge3" class="edge">
<title>R32&#45;&gt;R0</title>
<path fill="none" stroke="black" d="M683.91,-119.42C691.11,-116.93 698.7,-114.73 706,-113.34 890.2,-78.35 1116.26,-92.08 1205.32,-99.64"/>
<polygon fill="black" stroke="black" points="1204.96,-103.21 1215.23,-100.59 1205.57,-96.24 1204.96,-103.21"/>
<text text-anchor="middle" x="945.5" y="-122.34" font-family="Times New Roman,serif" font-size="30.00"> &#160;&#160;105 &#160;&#160;0% &#160;&#160;6.4e&#45;06 mol/s &#160;&#160;&#160;5.89E&#45;02</text>
</g>
<!-- R18 -->
<g id="node5" class="node">
<title>R18</title>
<g id="a_node5"><a xlink:href="18.svg" xlink:title="R18">
<polygon fill="azure" stroke="none" points="1283,-61.84 1207,-61.84 1207,-14.84 1283,-14.84 1283,-61.84"/>
<text text-anchor="middle" x="1245" y="-29.84" font-family="Times New Roman,serif" font-size="35.00">R18</text>
</a>
</g>
</g>
<!-- R32&#45;&gt;R18 -->
<g id="edge4" class="edge">
<title>R32&#45;&gt;R18</title>
<path fill="none" stroke="black" d="M656.72,-112.21C666.2,-92.92 682.61,-66.68 706,-54.34 868.51,31.4 1098.77,-5.13 1196.83,-26.69"/>
<polygon fill="black" stroke="black" points="1195.77,-30.26 1206.29,-29.04 1197.31,-23.43 1195.77,-30.26"/>
<text text-anchor="middle" x="945.5" y="-63.34" font-family="Times New Roman,serif" font-size="30.00"> &#160;&#160;105 &#160;&#160;0% &#160;&#160;6.4e&#45;06 mol/s &#160;&#160;&#160;5.89E&#45;02</text>
</g>
<!-- R127 -->
<g id="node6" class="node">
<title>R127</title>
<g id="a_node6"><a xlink:href="127.svg" xlink:title="R127">
<polygon fill="azure" stroke="none" points="94,-158.84 0,-158.84 0,-111.84 94,-111.84 94,-158.84"/>
<text text-anchor="middle" x="47" y="-126.84" font-family="Times New Roman,serif" font-size="35.00">R127</text>
</a>
</g>
</g>
<!-- R127&#45;&gt;R32 -->
<g id="edge5" class="edge">
<title>R127&#45;&gt;R32</title>
<path fill="none" stroke="black" stroke-width="6" d="M93.85,-135.34C201.2,-135.34 468.67,-135.34 587.06,-135.34"/>
<polygon fill="black" stroke="black" stroke-width="6" points="582,-145.84 602,-135.34 582,-124.84 582,-145.84"/>
<text text-anchor="middle" x="346.5" y="-144.34" font-family="Times New Roman,serif" font-size="30.00"> &#160;&#160;179 &#160;&#160;100% &#160;&#160;3.9e&#45;05 mol/s &#160;&#160;&#160;1.07E&#45;02</text>
</g>
</g>
</svg>
