<?xml version="1.0" encoding="UTF-8" standalone="no"?>
<!DOCTYPE svg PUBLIC "-//W3C//DTD SVG 1.1//EN"
 "http://www.w3.org/Graphics/SVG/1.1/DTD/svg11.dtd">
<!-- Generated by graphviz version 8.0.3 (20230416.2022)
 -->
<!-- Title: G Pages: 1 -->
<svg width="640pt" height="172pt"
 viewBox="0.00 0.00 720.00 193.88" xmlns="http://www.w3.org/2000/svg" xmlns:xlink="http://www.w3.org/1999/xlink">
<g id="graph0" class="graph" transform="scale(0.479401 0.479401) rotate(0) translate(4 355.49)">
<title>G</title>
<polygon fill="white" stroke="none" points="-4,4 -4,-355.49 1331,-355.49 1331,4 -4,4"/>
<text text-anchor="middle" x="663.5" y="-318.69" font-family="Arial" font-size="36.00" fill="blue">Reaction Path Analysis</text>
<!-- R320 -->
<g id="node1" class="node">
<title>R320</title>
<g id="a_node1"><a xlink:href="320.svg" xlink:title="R320">
<polygon fill="azure" stroke="none" points="715,-172.99 621,-172.99 621,-125.99 715,-125.99 715,-172.99"/>
<text text-anchor="middle" x="668" y="-140.99" font-family="Times New Roman,serif" font-size="35.00">R320</text>
</a>
</g>
</g>
<!-- R15 -->
<g id="node4" class="node">
<title>R15</title>
<g id="a_node4"><a xlink:href="15.svg" xlink:title="R15">
<polygon fill="azure" stroke="none" points="1327,-205.99 1251,-205.99 1251,-158.99 1327,-158.99 1327,-205.99"/>
<text text-anchor="middle" x="1289" y="-173.99" font-family="Times New Roman,serif" font-size="35.00">R15</text>
</a>
</g>
</g>
<!-- R320&#45;&gt;R15 -->
<g id="edge3" class="edge">
<title>R320&#45;&gt;R15</title>
<path fill="none" stroke="black" stroke-width="6" d="M714.98,-158.31C720.53,-159.16 726.13,-159.92 731.5,-160.49 912.72,-179.93 1128.78,-182.67 1230.12,-182.77"/>
<polygon fill="black" stroke="black" stroke-width="6" points="1225.09,-193.27 1245.08,-182.75 1225.07,-172.27 1225.09,-193.27"/>
<text text-anchor="middle" x="978.5" y="-191.49" font-family="Times New Roman,serif" font-size="30.00"> &#160;&#160;896 &#160;&#160;100% &#160;&#160;0.00998 mol/s &#160;&#160;&#160;4.28E&#45;05</text>
</g>
<!-- R16 -->
<g id="node5" class="node">
<title>R16</title>
<g id="a_node5"><a xlink:href="16.svg" xlink:title="R16">
<polygon fill="azure" stroke="none" points="1327,-140.99 1251,-140.99 1251,-93.99 1327,-93.99 1327,-140.99"/>
<text text-anchor="middle" x="1289" y="-108.99" font-family="Times New Roman,serif" font-size="35.00">R16</text>
</a>
</g>
</g>
<!-- R320&#45;&gt;R16 -->
<g id="edge4" class="edge">
<title>R320&#45;&gt;R16</title>
<path fill="none" stroke="black" stroke-width="6" d="M714.97,-131.46C720.47,-129.86 726.07,-128.47 731.5,-127.49 911.17,-95.13 1128.73,-105.09 1230.41,-112.53"/>
<polygon fill="black" stroke="black" stroke-width="6" points="1224.39,-123.06 1245.14,-114.13 1226.01,-102.12 1224.39,-123.06"/>
<text text-anchor="middle" x="978.5" y="-136.49" font-family="Times New Roman,serif" font-size="30.00"> &#160;&#160;896 &#160;&#160;100% &#160;&#160;0.00998 mol/s &#160;&#160;&#160;4.28E&#45;05</text>
</g>
<!-- R0 -->
<g id="node2" class="node">
<title>R0</title>
<g id="a_node2"><a xlink:href="0.svg" xlink:title="R0">
<polygon fill="azure" stroke="none" points="76,-265.99 18,-265.99 18,-218.99 76,-218.99 76,-265.99"/>
<text text-anchor="middle" x="47" y="-233.99" font-family="Times New Roman,serif" font-size="35.00">R0</text>
</a>
</g>
</g>
<!-- R0&#45;&gt;R320 -->
<g id="edge1" class="edge">
<title>R0&#45;&gt;R320</title>
<path fill="none" stroke="black" d="M75.72,-248.33C161.07,-264.85 425.39,-305.05 612,-213.49 626.39,-206.43 638.53,-193.71 647.71,-181.46"/>
<polygon fill="black" stroke="black" points="650.98,-183.91 653.87,-173.71 645.25,-179.88 650.98,-183.91"/>
<text text-anchor="middle" x="357.5" y="-279.49" font-family="Times New Roman,serif" font-size="30.00"> &#160;&#160;540 &#160;&#160;0% &#160;&#160;2.36e&#45;07 mol/s &#160;&#160;&#160;6.90E&#45;01</text>
</g>
<!-- R274 -->
<g id="node3" class="node">
<title>R274</title>
<g id="a_node3"><a xlink:href="274.svg" xlink:title="R274">
<polygon fill="azure" stroke="none" points="94,-200.99 0,-200.99 0,-153.99 94,-153.99 94,-200.99"/>
<text text-anchor="middle" x="47" y="-168.99" font-family="Times New Roman,serif" font-size="35.00">R274</text>
</a>
</g>
</g>
<!-- R274&#45;&gt;R320 -->
<g id="edge2" class="edge">
<title>R274&#45;&gt;R320</title>
<path fill="none" stroke="black" d="M93.75,-176.79C188.12,-175.1 411.47,-169.91 610.16,-155.54"/>
<polygon fill="black" stroke="black" points="610.39,-158.96 620.11,-154.74 609.88,-151.98 610.39,-158.96"/>
<text text-anchor="middle" x="357.5" y="-185.49" font-family="Times New Roman,serif" font-size="30.00"> &#160;&#160;540 &#160;&#160;0% &#160;&#160;2.36e&#45;07 mol/s &#160;&#160;&#160;6.90E&#45;01</text>
</g>
<!-- R348 -->
<g id="node6" class="node">
<title>R348</title>
<g id="a_node6"><a xlink:href="348.svg" xlink:title="R348">
<polygon fill="azure" stroke="none" points="94,-112.99 0,-112.99 0,-65.99 94,-65.99 94,-112.99"/>
<text text-anchor="middle" x="47" y="-80.99" font-family="Times New Roman,serif" font-size="35.00">R348</text>
</a>
</g>
</g>
<!-- R348&#45;&gt;R320 -->
<g id="edge5" class="edge">
<title>R348&#45;&gt;R320</title>
<path fill="none" stroke="black" stroke-width="5" d="M93.84,-98.33C96.94,-98.77 100.01,-99.17 103,-99.49 209.92,-111.15 474.86,-90.03 610.81,-120.82"/>
<polygon fill="black" stroke="black" stroke-width="5" points="603.52,-128.52 625.08,-125.1 607.93,-111.59 603.52,-128.52"/>
<text text-anchor="middle" x="357.5" y="-127.49" font-family="Times New Roman,serif" font-size="30.00"> &#160;&#160;989 &#160;&#160;81% &#160;&#160;0.00222 mol/s &#160;&#160;&#160;1.85E&#45;01</text>
</g>
<!-- R348&#45;&gt;R320 -->
<g id="edge6" class="edge">
<title>R348&#45;&gt;R320</title>
<path fill="none" stroke="black" d="M91.16,-66.09C95.08,-64.65 99.06,-63.41 103,-62.49 323.36,-11.32 413.85,46.66 612,-62.49 632.7,-73.9 646.69,-96.73 655.38,-116.15"/>
<polygon fill="black" stroke="black" points="652.48,-117.31 659.56,-125.2 658.95,-114.62 652.48,-117.31"/>
<text text-anchor="middle" x="357.5" y="-71.49" font-family="Times New Roman,serif" font-size="30.00"> &#160;&#160;1015 &#160;&#160;18% &#160;&#160;0.000505 mol/s &#160;&#160;&#160;8.15E&#45;01</text>
</g>
</g>
</svg>
