<?xml version="1.0" encoding="UTF-8" standalone="no"?>
<!DOCTYPE svg PUBLIC "-//W3C//DTD SVG 1.1//EN"
 "http://www.w3.org/Graphics/SVG/1.1/DTD/svg11.dtd">
<!-- Generated by graphviz version 8.0.3 (20230416.2022)
 -->
<!-- Title: G Pages: 1 -->
<svg width="623pt" height="432pt"
 viewBox="0.00 0.00 701.00 485.76" xmlns="http://www.w3.org/2000/svg" xmlns:xlink="http://www.w3.org/1999/xlink">
<g id="graph0" class="graph" transform="scale(0.888889 0.888889) rotate(0) translate(4 481.76)">
<title>G</title>
<polygon fill="white" stroke="none" points="-4,4 -4,-481.76 697,-481.76 697,4 -4,4"/>
<text text-anchor="middle" x="346.5" y="-444.96" font-family="Arial" font-size="36.00" fill="blue">Reaction Path Analysis</text>
<!-- R321 -->
<g id="node1" class="node">
<title>R321</title>
<g id="a_node1"><a xlink:href="321.svg" xlink:title="R321">
<polygon fill="azure" stroke="none" points="94,-230.26 0,-230.26 0,-183.26 94,-183.26 94,-230.26"/>
<text text-anchor="middle" x="47" y="-198.26" font-family="Times New Roman,serif" font-size="35.00">R321</text>
</a>
</g>
</g>
<!-- R0 -->
<g id="node2" class="node">
<title>R0</title>
<g id="a_node2"><a xlink:href="0.svg" xlink:title="R0">
<polygon fill="azure" stroke="none" points="675,-407.26 617,-407.26 617,-360.26 675,-360.26 675,-407.26"/>
<text text-anchor="middle" x="646" y="-375.26" font-family="Times New Roman,serif" font-size="35.00">R0</text>
</a>
</g>
</g>
<!-- R321&#45;&gt;R0 -->
<g id="edge1" class="edge">
<title>R321&#45;&gt;R0</title>
<path fill="none" stroke="black" d="M48.99,-230.17C51.82,-264.34 62.57,-327 103,-356.76 182.6,-415.35 495.82,-396.03 606.23,-387.16"/>
<polygon fill="black" stroke="black" points="606.49,-390.57 616.17,-386.26 605.92,-383.59 606.49,-390.57"/>
<text text-anchor="middle" x="346.5" y="-405.76" font-family="Times New Roman,serif" font-size="30.00"> &#160;&#160;542 &#160;&#160;0% &#160;&#160;9.02e&#45;06 mol/s &#160;&#160;&#160;4.33E&#45;02</text>
</g>
<!-- R276 -->
<g id="node3" class="node">
<title>R276</title>
<g id="a_node3"><a xlink:href="276.svg" xlink:title="R276">
<polygon fill="azure" stroke="none" points="693,-342.26 599,-342.26 599,-295.26 693,-295.26 693,-342.26"/>
<text text-anchor="middle" x="646" y="-310.26" font-family="Times New Roman,serif" font-size="35.00">R276</text>
</a>
</g>
</g>
<!-- R321&#45;&gt;R276 -->
<g id="edge2" class="edge">
<title>R321&#45;&gt;R276</title>
<path fill="none" stroke="black" d="M55.19,-230.19C63.14,-251.64 78.22,-282.19 103,-296.76 144.02,-320.87 458.1,-320.62 588.51,-319.45"/>
<polygon fill="black" stroke="black" points="588.47,-322.94 598.43,-319.35 588.4,-315.94 588.47,-322.94"/>
<text text-anchor="middle" x="346.5" y="-328.76" font-family="Times New Roman,serif" font-size="30.00"> &#160;&#160;542 &#160;&#160;0% &#160;&#160;9.02e&#45;06 mol/s &#160;&#160;&#160;4.33E&#45;02</text>
</g>
<!-- R16 -->
<g id="node4" class="node">
<title>R16</title>
<g id="a_node4"><a xlink:href="16.svg" xlink:title="R16">
<polygon fill="azure" stroke="none" points="684,-230.26 608,-230.26 608,-183.26 684,-183.26 684,-230.26"/>
<text text-anchor="middle" x="646" y="-198.26" font-family="Times New Roman,serif" font-size="35.00">R16</text>
</a>
</g>
</g>
<!-- R321&#45;&gt;R16 -->
<g id="edge3" class="edge">
<title>R321&#45;&gt;R16</title>
<path fill="none" stroke="black" stroke-width="5" d="M79.16,-230.09C86.61,-234.48 94.79,-238.43 103,-240.76 207.1,-270.34 485.9,-270.34 590,-240.76 591.67,-240.28 593.33,-239.74 594.99,-239.15"/>
<polygon fill="black" stroke="black" stroke-width="5" points="594.6,-248.64 608.84,-232.09 587.02,-232.87 594.6,-248.64"/>
<text text-anchor="middle" x="346.5" y="-271.76" font-family="Times New Roman,serif" font-size="30.00"> &#160;&#160;897 &#160;&#160;98% &#160;&#160;136.0 mol/s &#160;&#160;&#160;3.15E&#45;09</text>
</g>
<!-- R321&#45;&gt;R16 -->
<g id="edge4" class="edge">
<title>R321&#45;&gt;R16</title>
<path fill="none" stroke="black" stroke-width="5" d="M93.91,-204.07C96.98,-203.94 100.04,-203.84 103,-203.76 312.81,-198.04 370.2,-197.87 587.23,-203.88"/>
<polygon fill="black" stroke="black" stroke-width="5" points="581.79,-212.65 602.03,-204.46 582.28,-195.16 581.79,-212.65"/>
<text text-anchor="middle" x="346.5" y="-212.76" font-family="Times New Roman,serif" font-size="30.00"> &#160;&#160;897 &#160;&#160;98% &#160;&#160;136.0 mol/s &#160;&#160;&#160;3.15E&#45;09</text>
</g>
<!-- R321&#45;&gt;R16 -->
<g id="edge5" class="edge">
<title>R321&#45;&gt;R16</title>
<path fill="none" stroke="black" stroke-width="5" d="M69.57,-183.28C78.92,-174.79 90.57,-166.2 103,-161.76 204.92,-125.38 488.08,-125.38 590,-161.76 595.92,-163.87 601.67,-166.93 607.08,-170.47"/>
<polygon fill="black" stroke="black" stroke-width="5" points="598.29,-174.84 619.43,-180.28 609.08,-161.06 598.29,-174.84"/>
<text text-anchor="middle" x="346.5" y="-170.76" font-family="Times New Roman,serif" font-size="30.00"> &#160;&#160;897 &#160;&#160;98% &#160;&#160;136.0 mol/s &#160;&#160;&#160;3.15E&#45;09</text>
</g>
<!-- R267 -->
<g id="node5" class="node">
<title>R267</title>
<g id="a_node5"><a xlink:href="267.svg" xlink:title="R267">
<polygon fill="azure" stroke="none" points="693,-90.26 599,-90.26 599,-43.26 693,-43.26 693,-90.26"/>
<text text-anchor="middle" x="646" y="-58.26" font-family="Times New Roman,serif" font-size="35.00">R267</text>
</a>
</g>
</g>
<!-- R321&#45;&gt;R267 -->
<g id="edge6" class="edge">
<title>R321&#45;&gt;R267</title>
<path fill="none" stroke="black" d="M52.38,-183.65C58.66,-157.61 72.96,-116.36 103,-96.76 146.24,-68.54 500.4,-76.19 588.16,-72.59"/>
<polygon fill="black" stroke="black" points="588.32,-76.03 598.1,-71.97 587.92,-69.04 588.32,-76.03"/>
<text text-anchor="middle" x="346.5" y="-105.76" font-family="Times New Roman,serif" font-size="30.00"> &#160;&#160;966 &#160;&#160;1% &#160;&#160;1.38 mol/s &#160;&#160;&#160;4.75E&#45;04</text>
</g>
<!-- R321&#45;&gt;R267 -->
<g id="edge7" class="edge">
<title>R321&#45;&gt;R267</title>
<path fill="none" stroke="black" d="M47.57,-183.37C48.29,-145.11 56,-70.01 103,-35.76 190.46,27.98 485.32,-8.29 590,-35.76 593.18,-36.59 596.38,-37.66 599.54,-38.89"/>
<polygon fill="black" stroke="black" points="597.88,-42.43 608.44,-43.3 600.73,-36.04 597.88,-42.43"/>
<text text-anchor="middle" x="346.5" y="-44.76" font-family="Times New Roman,serif" font-size="30.00"> &#160;&#160;990 &#160;&#160;0% &#160;&#160;0.000654 mol/s &#160;&#160;&#160;1.00E+00</text>
</g>
</g>
</svg>
