<?xml version="1.0" encoding="UTF-8" standalone="no"?>
<!DOCTYPE svg PUBLIC "-//W3C//DTD SVG 1.1//EN"
 "http://www.w3.org/Graphics/SVG/1.1/DTD/svg11.dtd">
<!-- Generated by graphviz version 8.0.3 (20230416.2022)
 -->
<!-- Title: G Pages: 1 -->
<svg width="640pt" height="157pt"
 viewBox="0.00 0.00 720.00 176.95" xmlns="http://www.w3.org/2000/svg" xmlns:xlink="http://www.w3.org/1999/xlink">
<g id="graph0" class="graph" transform="scale(0.487062 0.487062) rotate(0) translate(4 318.93)">
<title>G</title>
<polygon fill="white" stroke="none" points="-4,4 -4,-318.93 1310,-318.93 1310,4 -4,4"/>
<text text-anchor="middle" x="653" y="-282.13" font-family="Arial" font-size="36.00" fill="blue">Reaction Path Analysis</text>
<!-- R327 -->
<g id="node1" class="node">
<title>R327</title>
<g id="a_node1"><a xlink:href="327.svg" xlink:title="R327">
<polygon fill="azure" stroke="none" points="700,-139.43 606,-139.43 606,-92.43 700,-92.43 700,-139.43"/>
<text text-anchor="middle" x="653" y="-107.43" font-family="Times New Roman,serif" font-size="35.00">R327</text>
</a>
</g>
</g>
<!-- R93 -->
<g id="node2" class="node">
<title>R93</title>
<g id="a_node2"><a xlink:href="93.svg" xlink:title="R93">
<polygon fill="azure" stroke="none" points="1297,-232.43 1221,-232.43 1221,-185.43 1297,-185.43 1297,-232.43"/>
<text text-anchor="middle" x="1259" y="-200.43" font-family="Times New Roman,serif" font-size="35.00">R93</text>
</a>
</g>
</g>
<!-- R327&#45;&gt;R93 -->
<g id="edge1" class="edge">
<title>R327&#45;&gt;R93</title>
<path fill="none" stroke="black" stroke-width="5" d="M668.86,-139.43C679.21,-153.58 694.39,-170.44 712.5,-178.93 875.87,-255.58 1097.7,-234.87 1200.87,-219.18"/>
<polygon fill="black" stroke="black" stroke-width="5" points="1196.95,-227.71 1215.3,-215.9 1194.17,-210.43 1196.95,-227.71"/>
<text text-anchor="middle" x="956" y="-242.93" font-family="Times New Roman,serif" font-size="30.00"> &#160;&#160;551 &#160;&#160;98% &#160;&#160;253.0 mol/s &#160;&#160;&#160;1.69E&#45;09</text>
</g>
<!-- R1 -->
<g id="node3" class="node">
<title>R1</title>
<g id="a_node3"><a xlink:href="1.svg" xlink:title="R1">
<polygon fill="azure" stroke="none" points="1288,-167.43 1230,-167.43 1230,-120.43 1288,-120.43 1288,-167.43"/>
<text text-anchor="middle" x="1259" y="-135.43" font-family="Times New Roman,serif" font-size="35.00">R1</text>
</a>
</g>
</g>
<!-- R327&#45;&gt;R1 -->
<g id="edge2" class="edge">
<title>R327&#45;&gt;R1</title>
<path fill="none" stroke="black" stroke-width="5" d="M699.96,-120.92C704.2,-121.3 708.43,-121.64 712.5,-121.93 895.67,-135.01 1114.04,-140.89 1209.41,-142.98"/>
<polygon fill="black" stroke="black" stroke-width="5" points="1203.97,-151.75 1224.15,-143.42 1204.34,-134.25 1203.97,-151.75"/>
<text text-anchor="middle" x="956" y="-150.93" font-family="Times New Roman,serif" font-size="30.00"> &#160;&#160;551 &#160;&#160;98% &#160;&#160;253.0 mol/s &#160;&#160;&#160;1.69E&#45;09</text>
</g>
<!-- R206 -->
<g id="node5" class="node">
<title>R206</title>
<g id="a_node5"><a xlink:href="206.svg" xlink:title="R206">
<polygon fill="azure" stroke="none" points="1306,-79.43 1212,-79.43 1212,-32.43 1306,-32.43 1306,-79.43"/>
<text text-anchor="middle" x="1259" y="-47.43" font-family="Times New Roman,serif" font-size="35.00">R206</text>
</a>
</g>
</g>
<!-- R327&#45;&gt;R206 -->
<g id="edge4" class="edge">
<title>R327&#45;&gt;R206</title>
<path fill="none" stroke="black" d="M692.33,-92.55C698.86,-89.47 705.73,-86.76 712.5,-84.93 817.08,-56.76 1091.78,-77.19 1199.5,-65.93 1200.14,-65.87 1200.78,-65.8 1201.43,-65.73"/>
<polygon fill="black" stroke="black" points="1201.62,-69.1 1211.09,-64.36 1200.73,-62.16 1201.62,-69.1"/>
<text text-anchor="middle" x="956" y="-93.93" font-family="Times New Roman,serif" font-size="30.00"> &#160;&#160;955 &#160;&#160;1% &#160;&#160;4.0 mol/s &#160;&#160;&#160;1.64E&#45;04</text>
</g>
<!-- R327&#45;&gt;R206 -->
<g id="edge5" class="edge">
<title>R327&#45;&gt;R206</title>
<path fill="none" stroke="black" d="M662.33,-92.59C671.2,-71.67 687.44,-42.28 712.5,-28.93 808.02,21.94 1093.8,-5.72 1199.5,-28.93 1200.28,-29.11 1201.06,-29.29 1201.84,-29.48"/>
<polygon fill="black" stroke="black" points="1200.43,-33.01 1211.02,-32.53 1202.44,-26.31 1200.43,-33.01"/>
<text text-anchor="middle" x="956" y="-37.93" font-family="Times New Roman,serif" font-size="30.00"> &#160;&#160;994 &#160;&#160;0% &#160;&#160;0.000654 mol/s &#160;&#160;&#160;1.00E+00</text>
</g>
<!-- R363 -->
<g id="node4" class="node">
<title>R363</title>
<g id="a_node4"><a xlink:href="363.svg" xlink:title="R363">
<polygon fill="azure" stroke="none" points="94,-139.43 0,-139.43 0,-92.43 94,-92.43 94,-139.43"/>
<text text-anchor="middle" x="47" y="-107.43" font-family="Times New Roman,serif" font-size="35.00">R363</text>
</a>
</g>
</g>
<!-- R363&#45;&gt;R327 -->
<g id="edge3" class="edge">
<title>R363&#45;&gt;R327</title>
<path fill="none" stroke="black" stroke-width="6" d="M93.89,-115.93C199.85,-115.93 461.9,-115.93 585.48,-115.93"/>
<polygon fill="black" stroke="black" stroke-width="6" points="580.18,-126.43 600.18,-115.93 580.18,-105.43 580.18,-126.43"/>
<text text-anchor="middle" x="350" y="-124.93" font-family="Times New Roman,serif" font-size="30.00"> &#160;&#160;839 &#160;&#160;100% &#160;&#160;0.00522 mol/s &#160;&#160;&#160;8.19E&#45;05</text>
</g>
</g>
</svg>
