<?xml version="1.0" encoding="UTF-8" standalone="no"?>
<!DOCTYPE svg PUBLIC "-//W3C//DTD SVG 1.1//EN"
 "http://www.w3.org/Graphics/SVG/1.1/DTD/svg11.dtd">
<!-- Generated by graphviz version 8.0.3 (20230416.2022)
 -->
<!-- Title: G Pages: 1 -->
<svg width="640pt" height="161pt"
 viewBox="0.00 0.00 720.00 181.35" xmlns="http://www.w3.org/2000/svg" xmlns:xlink="http://www.w3.org/1999/xlink">
<g id="graph0" class="graph" transform="scale(0.498442 0.498442) rotate(0) translate(4 319.41)">
<title>G</title>
<polygon fill="white" stroke="none" points="-4,4 -4,-319.41 1280,-319.41 1280,4 -4,4"/>
<text text-anchor="middle" x="638" y="-282.61" font-family="Arial" font-size="36.00" fill="blue">Reaction Path Analysis</text>
<!-- R328 -->
<g id="node1" class="node">
<title>R328</title>
<g id="a_node1"><a xlink:href="328.svg" xlink:title="R328">
<polygon fill="azure" stroke="none" points="685,-139.91 591,-139.91 591,-92.91 685,-92.91 685,-139.91"/>
<text text-anchor="middle" x="638" y="-107.91" font-family="Times New Roman,serif" font-size="35.00">R328</text>
</a>
</g>
</g>
<!-- R94 -->
<g id="node2" class="node">
<title>R94</title>
<g id="a_node2"><a xlink:href="94.svg" xlink:title="R94">
<polygon fill="azure" stroke="none" points="1267,-232.91 1191,-232.91 1191,-185.91 1267,-185.91 1267,-232.91"/>
<text text-anchor="middle" x="1229" y="-200.91" font-family="Times New Roman,serif" font-size="35.00">R94</text>
</a>
</g>
</g>
<!-- R328&#45;&gt;R94 -->
<g id="edge1" class="edge">
<title>R328&#45;&gt;R94</title>
<path fill="none" stroke="black" stroke-width="4" d="M652.66,-139.87C662.27,-154 676.52,-170.86 694,-179.41 852.16,-256.71 1068.94,-235.97 1170.77,-220"/>
<polygon fill="black" stroke="black" stroke-width="4" points="1167.67,-226.78 1186.26,-216.61 1165.38,-212.97 1167.67,-226.78"/>
<text text-anchor="middle" x="933.5" y="-243.41" font-family="Times New Roman,serif" font-size="30.00"> &#160;&#160;552 &#160;&#160;71% &#160;&#160;0.399 mol/s &#160;&#160;&#160;1.07E&#45;06</text>
</g>
<!-- R1 -->
<g id="node3" class="node">
<title>R1</title>
<g id="a_node3"><a xlink:href="1.svg" xlink:title="R1">
<polygon fill="azure" stroke="none" points="1258,-167.91 1200,-167.91 1200,-120.91 1258,-120.91 1258,-167.91"/>
<text text-anchor="middle" x="1229" y="-135.91" font-family="Times New Roman,serif" font-size="35.00">R1</text>
</a>
</g>
</g>
<!-- R328&#45;&gt;R1 -->
<g id="edge2" class="edge">
<title>R328&#45;&gt;R1</title>
<path fill="none" stroke="black" stroke-width="4" d="M684.89,-121.65C687.97,-121.93 691.03,-122.18 694,-122.41 872.65,-135.81 1085.58,-141.51 1179.46,-143.5"/>
<polygon fill="black" stroke="black" stroke-width="4" points="1174.03,-150.51 1194.17,-143.92 1174.31,-136.52 1174.03,-150.51"/>
<text text-anchor="middle" x="933.5" y="-151.41" font-family="Times New Roman,serif" font-size="30.00"> &#160;&#160;552 &#160;&#160;71% &#160;&#160;0.399 mol/s &#160;&#160;&#160;1.07E&#45;06</text>
</g>
<!-- R171 -->
<g id="node5" class="node">
<title>R171</title>
<g id="a_node5"><a xlink:href="171.svg" xlink:title="R171">
<polygon fill="azure" stroke="none" points="1276,-79.91 1182,-79.91 1182,-32.91 1276,-32.91 1276,-79.91"/>
<text text-anchor="middle" x="1229" y="-47.91" font-family="Times New Roman,serif" font-size="35.00">R171</text>
</a>
</g>
</g>
<!-- R328&#45;&gt;R171 -->
<g id="edge4" class="edge">
<title>R328&#45;&gt;R171</title>
<path fill="none" stroke="black" stroke-width="2" d="M674.92,-93.02C681.08,-89.95 687.57,-87.23 694,-85.41 793.38,-57.21 1050.88,-76.8 1171.29,-66.31"/>
<polygon fill="black" stroke="black" stroke-width="2" points="1169.55,-69.7 1179.15,-65.24 1168.86,-62.74 1169.55,-69.7"/>
<text text-anchor="middle" x="933.5" y="-94.41" font-family="Times New Roman,serif" font-size="30.00"> &#160;&#160;946 &#160;&#160;28% &#160;&#160;0.158 mol/s &#160;&#160;&#160;4.10E&#45;03</text>
</g>
<!-- R328&#45;&gt;R171 -->
<g id="edge5" class="edge">
<title>R328&#45;&gt;R171</title>
<path fill="none" stroke="black" d="M646.44,-93.11C654.5,-72.22 669.58,-42.86 694,-29.41 787.23,21.96 1069.31,-5.33 1173,-29.41 1173.49,-29.52 1173.99,-29.64 1174.48,-29.76"/>
<polygon fill="black" stroke="black" points="1173.25,-33.36 1183.84,-33 1175.34,-26.68 1173.25,-33.36"/>
<text text-anchor="middle" x="933.5" y="-38.41" font-family="Times New Roman,serif" font-size="30.00"> &#160;&#160;995 &#160;&#160;0% &#160;&#160;0.000651 mol/s &#160;&#160;&#160;9.96E&#45;01</text>
</g>
<!-- R364 -->
<g id="node4" class="node">
<title>R364</title>
<g id="a_node4"><a xlink:href="364.svg" xlink:title="R364">
<polygon fill="azure" stroke="none" points="94,-139.91 0,-139.91 0,-92.91 94,-92.91 94,-139.91"/>
<text text-anchor="middle" x="47" y="-107.91" font-family="Times New Roman,serif" font-size="35.00">R364</text>
</a>
</g>
</g>
<!-- R364&#45;&gt;R328 -->
<g id="edge3" class="edge">
<title>R364&#45;&gt;R328</title>
<path fill="none" stroke="black" stroke-width="6" d="M93.73,-116.41C197.16,-116.41 449.47,-116.41 570.33,-116.41"/>
<polygon fill="black" stroke="black" stroke-width="6" points="565.3,-126.91 585.3,-116.41 565.3,-105.91 565.3,-126.91"/>
<text text-anchor="middle" x="342.5" y="-125.41" font-family="Times New Roman,serif" font-size="30.00"> &#160;&#160;840 &#160;&#160;100% &#160;&#160;0.0129 mol/s &#160;&#160;&#160;3.31E&#45;05</text>
</g>
</g>
</svg>
