<?xml version="1.0" encoding="UTF-8" standalone="no"?>
<!DOCTYPE svg PUBLIC "-//W3C//DTD SVG 1.1//EN"
 "http://www.w3.org/Graphics/SVG/1.1/DTD/svg11.dtd">
<!-- Generated by graphviz version 8.0.3 (20230416.2022)
 -->
<!-- Title: G Pages: 1 -->
<svg width="640pt" height="92pt"
 viewBox="0.00 0.00 720.00 103.15" xmlns="http://www.w3.org/2000/svg" xmlns:xlink="http://www.w3.org/1999/xlink">
<g id="graph0" class="graph" transform="scale(0.513644 0.513644) rotate(0) translate(4 174.5)">
<title>G</title>
<polygon fill="white" stroke="none" points="-4,4 -4,-174.5 1242,-174.5 1242,4 -4,4"/>
<text text-anchor="middle" x="619" y="-137.7" font-family="Arial" font-size="36.00" fill="blue">Reaction Path Analysis</text>
<!-- R33 -->
<g id="node1" class="node">
<title>R33</title>
<g id="a_node1"><a xlink:href="33.svg" xlink:title="R33">
<polygon fill="azure" stroke="none" points="666,-79 590,-79 590,-32 666,-32 666,-79"/>
<text text-anchor="middle" x="628" y="-47" font-family="Times New Roman,serif" font-size="35.00">R33</text>
</a>
</g>
</g>
<!-- R2 -->
<g id="node2" class="node">
<title>R2</title>
<g id="a_node2"><a xlink:href="2.svg" xlink:title="R2">
<polygon fill="azure" stroke="none" points="1238,-112 1180,-112 1180,-65 1238,-65 1238,-112"/>
<text text-anchor="middle" x="1209" y="-80" font-family="Times New Roman,serif" font-size="35.00">R2</text>
</a>
</g>
</g>
<!-- R33&#45;&gt;R2 -->
<g id="edge1" class="edge">
<title>R33&#45;&gt;R2</title>
<path fill="none" stroke="black" stroke-width="6" d="M665.79,-64.96C668.89,-65.56 671.99,-66.08 675,-66.5 852.12,-91.1 1065.26,-91.11 1159.33,-89.62"/>
<polygon fill="black" stroke="black" stroke-width="6" points="1154.28,-100.11 1174.09,-89.24 1153.9,-79.11 1154.28,-100.11"/>
<text text-anchor="middle" x="918.5" y="-98.5" font-family="Times New Roman,serif" font-size="30.00"> &#160;&#160;38 &#160;&#160;100% &#160;&#160;1.94e&#45;05 mol/s &#160;&#160;&#160;2.12E&#45;02</text>
</g>
<!-- R6 -->
<g id="node3" class="node">
<title>R6</title>
<g id="a_node3"><a xlink:href="6.svg" xlink:title="R6">
<polygon fill="azure" stroke="none" points="1238,-47 1180,-47 1180,0 1238,0 1238,-47"/>
<text text-anchor="middle" x="1209" y="-15" font-family="Times New Roman,serif" font-size="35.00">R6</text>
</a>
</g>
</g>
<!-- R33&#45;&gt;R6 -->
<g id="edge2" class="edge">
<title>R33&#45;&gt;R6</title>
<path fill="none" stroke="black" stroke-width="6" d="M665.91,-36.22C668.93,-35.14 671.98,-34.21 675,-33.5 849.28,7.75 1064.64,-7.65 1159.39,-17.62"/>
<polygon fill="black" stroke="black" stroke-width="6" points="1152.98,-28.14 1174.02,-19.92 1155.3,-7.27 1152.98,-28.14"/>
<text text-anchor="middle" x="918.5" y="-42.5" font-family="Times New Roman,serif" font-size="30.00"> &#160;&#160;38 &#160;&#160;100% &#160;&#160;1.94e&#45;05 mol/s &#160;&#160;&#160;2.12E&#45;02</text>
</g>
<!-- R128 -->
<g id="node4" class="node">
<title>R128</title>
<g id="a_node4"><a xlink:href="128.svg" xlink:title="R128">
<polygon fill="azure" stroke="none" points="94,-79 0,-79 0,-32 94,-32 94,-79"/>
<text text-anchor="middle" x="47" y="-47" font-family="Times New Roman,serif" font-size="35.00">R128</text>
</a>
</g>
</g>
<!-- R128&#45;&gt;R33 -->
<g id="edge3" class="edge">
<title>R128&#45;&gt;R33</title>
<path fill="none" stroke="black" stroke-width="6" d="M93.92,-55.5C198.59,-55.5 454.69,-55.5 569.58,-55.5"/>
<polygon fill="black" stroke="black" stroke-width="6" points="564.27,-66 584.27,-55.5 564.27,-45 564.27,-66"/>
<text text-anchor="middle" x="337.5" y="-64.5" font-family="Times New Roman,serif" font-size="30.00"> &#160;&#160;180 &#160;&#160;100% &#160;&#160;13.2 mol/s &#160;&#160;&#160;3.24E&#45;08</text>
</g>
</g>
</svg>
