<?xml version="1.0" encoding="UTF-8" standalone="no"?>
<!DOCTYPE svg PUBLIC "-//W3C//DTD SVG 1.1//EN"
 "http://www.w3.org/Graphics/SVG/1.1/DTD/svg11.dtd">
<!-- Generated by graphviz version 8.0.3 (20230416.2022)
 -->
<!-- Title: G Pages: 1 -->
<svg width="623pt" height="289pt"
 viewBox="0.00 0.00 701.00 324.90" xmlns="http://www.w3.org/2000/svg" xmlns:xlink="http://www.w3.org/1999/xlink">
<g id="graph0" class="graph" transform="scale(0.888889 0.888889) rotate(0) translate(4 320.9)">
<title>G</title>
<polygon fill="white" stroke="none" points="-4,4 -4,-320.9 697,-320.9 697,4 -4,4"/>
<text text-anchor="middle" x="346.5" y="-284.1" font-family="Arial" font-size="36.00" fill="blue">Reaction Path Analysis</text>
<!-- R331 -->
<g id="node1" class="node">
<title>R331</title>
<g id="a_node1"><a xlink:href="331.svg" xlink:title="R331">
<polygon fill="azure" stroke="none" points="94,-140.4 0,-140.4 0,-93.4 94,-93.4 94,-140.4"/>
<text text-anchor="middle" x="47" y="-108.4" font-family="Times New Roman,serif" font-size="35.00">R331</text>
</a>
</g>
</g>
<!-- R105 -->
<g id="node2" class="node">
<title>R105</title>
<g id="a_node2"><a xlink:href="105.svg" xlink:title="R105">
<polygon fill="azure" stroke="none" points="693,-233.4 599,-233.4 599,-186.4 693,-186.4 693,-233.4"/>
<text text-anchor="middle" x="646" y="-201.4" font-family="Times New Roman,serif" font-size="35.00">R105</text>
</a>
</g>
</g>
<!-- R331&#45;&gt;R105 -->
<g id="edge1" class="edge">
<title>R331&#45;&gt;R105</title>
<path fill="none" stroke="black" stroke-width="5" d="M61.66,-140.37C71.27,-154.5 85.52,-171.36 103,-179.9 259.48,-256.29 472.42,-238.04 578.81,-221.96"/>
<polygon fill="black" stroke="black" stroke-width="5" points="574.86,-230.5 593.23,-218.71 572.1,-213.22 574.86,-230.5"/>
<text text-anchor="middle" x="346.5" y="-244.9" font-family="Times New Roman,serif" font-size="30.00"> &#160;&#160;555 &#160;&#160;99% &#160;&#160;57100.0 mol/s &#160;&#160;&#160;7.49E&#45;12</text>
</g>
<!-- R1 -->
<g id="node3" class="node">
<title>R1</title>
<g id="a_node3"><a xlink:href="1.svg" xlink:title="R1">
<polygon fill="azure" stroke="none" points="675,-168.4 617,-168.4 617,-121.4 675,-121.4 675,-168.4"/>
<text text-anchor="middle" x="646" y="-136.4" font-family="Times New Roman,serif" font-size="35.00">R1</text>
</a>
</g>
</g>
<!-- R331&#45;&gt;R1 -->
<g id="edge2" class="edge">
<title>R331&#45;&gt;R1</title>
<path fill="none" stroke="black" stroke-width="5" d="M93.89,-122.14C96.97,-122.42 100.03,-122.67 103,-122.9 284.54,-136.47 500.97,-142.09 596.07,-144.03"/>
<polygon fill="black" stroke="black" stroke-width="5" points="590.87,-152.79 611.04,-144.43 591.21,-135.3 590.87,-152.79"/>
<text text-anchor="middle" x="346.5" y="-151.9" font-family="Times New Roman,serif" font-size="30.00"> &#160;&#160;555 &#160;&#160;99% &#160;&#160;57100.0 mol/s &#160;&#160;&#160;7.49E&#45;12</text>
</g>
<!-- R234 -->
<g id="node4" class="node">
<title>R234</title>
<g id="a_node4"><a xlink:href="234.svg" xlink:title="R234">
<polygon fill="azure" stroke="none" points="693,-80.4 599,-80.4 599,-33.4 693,-33.4 693,-80.4"/>
<text text-anchor="middle" x="646" y="-48.4" font-family="Times New Roman,serif" font-size="35.00">R234</text>
</a>
</g>
</g>
<!-- R331&#45;&gt;R234 -->
<g id="edge3" class="edge">
<title>R331&#45;&gt;R234</title>
<path fill="none" stroke="black" d="M83.92,-93.51C90.08,-90.43 96.57,-87.72 103,-85.9 204.15,-57.23 466.37,-77.46 588.49,-66.78"/>
<polygon fill="black" stroke="black" points="588.55,-70.2 598.15,-65.73 587.86,-63.23 588.55,-70.2"/>
<text text-anchor="middle" x="346.5" y="-94.9" font-family="Times New Roman,serif" font-size="30.00"> &#160;&#160;962 &#160;&#160;0% &#160;&#160;169.0 mol/s &#160;&#160;&#160;3.87E&#45;06</text>
</g>
<!-- R331&#45;&gt;R234 -->
<g id="edge4" class="edge">
<title>R331&#45;&gt;R234</title>
<path fill="none" stroke="black" d="M55.44,-93.6C63.5,-72.71 78.58,-43.35 103,-29.9 197.79,22.32 484.58,-5.42 590,-29.9 590.49,-30.01 590.99,-30.13 591.48,-30.25"/>
<polygon fill="black" stroke="black" points="590.25,-33.85 600.84,-33.49 592.34,-27.17 590.25,-33.85"/>
<text text-anchor="middle" x="346.5" y="-38.9" font-family="Times New Roman,serif" font-size="30.00"> &#160;&#160;998 &#160;&#160;0% &#160;&#160;0.000654 mol/s &#160;&#160;&#160;1.00E+00</text>
</g>
</g>
</svg>
