<?xml version="1.0" encoding="UTF-8" standalone="no"?>
<!DOCTYPE svg PUBLIC "-//W3C//DTD SVG 1.1//EN"
 "http://www.w3.org/Graphics/SVG/1.1/DTD/svg11.dtd">
<!-- Generated by graphviz version 8.0.3 (20230416.2022)
 -->
<!-- Title: G Pages: 1 -->
<svg width="629pt" height="422pt"
 viewBox="0.00 0.00 708.00 474.39" xmlns="http://www.w3.org/2000/svg" xmlns:xlink="http://www.w3.org/1999/xlink">
<g id="graph0" class="graph" transform="scale(0.888889 0.888889) rotate(0) translate(4 470.39)">
<title>G</title>
<polygon fill="white" stroke="none" points="-4,4 -4,-470.39 704,-470.39 704,4 -4,4"/>
<text text-anchor="middle" x="350" y="-433.59" font-family="Arial" font-size="36.00" fill="blue">Reaction Path Analysis</text>
<!-- R335 -->
<g id="node1" class="node">
<title>R335</title>
<g id="a_node1"><a xlink:href="335.svg" xlink:title="R335">
<polygon fill="azure" stroke="none" points="94,-232.89 0,-232.89 0,-185.89 94,-185.89 94,-232.89"/>
<text text-anchor="middle" x="47" y="-200.89" font-family="Times New Roman,serif" font-size="35.00">R335</text>
</a>
</g>
</g>
<!-- R1 -->
<g id="node2" class="node">
<title>R1</title>
<g id="a_node2"><a xlink:href="1.svg" xlink:title="R1">
<polygon fill="azure" stroke="none" points="682,-376.89 624,-376.89 624,-329.89 682,-329.89 682,-376.89"/>
<text text-anchor="middle" x="653" y="-344.89" font-family="Times New Roman,serif" font-size="35.00">R1</text>
</a>
</g>
</g>
<!-- R335&#45;&gt;R1 -->
<g id="edge1" class="edge">
<title>R335&#45;&gt;R1</title>
<path fill="none" stroke="black" stroke-width="4" d="M49.04,-232.74C51.94,-266.4 62.79,-327.57 103,-355.39 183.08,-410.8 485.08,-376.48 603.72,-360.37"/>
<polygon fill="black" stroke="black" stroke-width="4" points="600.42,-367.2 619.27,-357.51 598.49,-353.34 600.42,-367.2"/>
<text text-anchor="middle" x="350" y="-394.39" font-family="Times New Roman,serif" font-size="30.00"> &#160;&#160;563 &#160;&#160;62% &#160;&#160;0.00288 mol/s &#160;&#160;&#160;1.48E&#45;04</text>
</g>
<!-- R335&#45;&gt;R1 -->
<g id="edge5" class="edge">
<title>R335&#45;&gt;R1</title>
<path fill="none" stroke="black" stroke-width="2" d="M55.19,-232.83C63.13,-254.29 78.2,-284.85 103,-299.39 150.38,-327.17 544.57,-302.02 597,-318.39 603.02,-320.27 609.03,-322.99 614.74,-326.1"/>
<polygon fill="black" stroke="black" stroke-width="2" points="611.64,-328.51 622.03,-330.61 615.21,-322.49 611.64,-328.51"/>
<text text-anchor="middle" x="350" y="-327.39" font-family="Times New Roman,serif" font-size="30.00"> &#160;&#160;862 &#160;&#160;24% &#160;&#160;0.00111 mol/s &#160;&#160;&#160;3.85E&#45;04</text>
</g>
<!-- R117 -->
<g id="node3" class="node">
<title>R117</title>
<g id="a_node3"><a xlink:href="117.svg" xlink:title="R117">
<polygon fill="azure" stroke="none" points="700,-288.89 606,-288.89 606,-241.89 700,-241.89 700,-288.89"/>
<text text-anchor="middle" x="653" y="-256.89" font-family="Times New Roman,serif" font-size="35.00">R117</text>
</a>
</g>
</g>
<!-- R335&#45;&gt;R117 -->
<g id="edge2" class="edge">
<title>R335&#45;&gt;R117</title>
<path fill="none" stroke="black" stroke-width="4" d="M79.82,-232.82C87.11,-237.09 95.06,-240.96 103,-243.39 147.98,-257.15 449.53,-262.77 585.6,-264.62"/>
<polygon fill="black" stroke="black" stroke-width="4" points="580.25,-271.63 600.34,-264.89 580.43,-257.63 580.25,-271.63"/>
<text text-anchor="middle" x="350" y="-273.39" font-family="Times New Roman,serif" font-size="30.00"> &#160;&#160;563 &#160;&#160;62% &#160;&#160;0.00288 mol/s &#160;&#160;&#160;1.48E&#45;04</text>
</g>
<!-- R274 -->
<g id="node4" class="node">
<title>R274</title>
<g id="a_node4"><a xlink:href="274.svg" xlink:title="R274">
<polygon fill="azure" stroke="none" points="700,-204.89 606,-204.89 606,-157.89 700,-157.89 700,-204.89"/>
<text text-anchor="middle" x="653" y="-172.89" font-family="Times New Roman,serif" font-size="35.00">R274</text>
</a>
</g>
</g>
<!-- R335&#45;&gt;R274 -->
<g id="edge3" class="edge">
<title>R335&#45;&gt;R274</title>
<path fill="none" stroke="black" d="M93.97,-208.61C186.61,-206.82 402.58,-201.46 595.21,-187.44"/>
<polygon fill="black" stroke="black" points="595.39,-190.86 605.11,-186.63 594.87,-183.88 595.39,-190.86"/>
<text text-anchor="middle" x="350" y="-217.39" font-family="Times New Roman,serif" font-size="30.00"> &#160;&#160;758 &#160;&#160;8% &#160;&#160;0.000374 mol/s &#160;&#160;&#160;3.89E&#45;01</text>
</g>
<!-- R335&#45;&gt;R274 -->
<g id="edge7" class="edge">
<title>R335&#45;&gt;R274</title>
<path fill="none" stroke="black" d="M62.5,-186.16C72.17,-172.98 86.18,-157.71 103,-150.39 153.33,-128.5 543.91,-136.46 597,-150.39 600.18,-151.23 603.38,-152.29 606.54,-153.52"/>
<polygon fill="black" stroke="black" points="604.88,-157.06 615.44,-157.94 607.73,-150.67 604.88,-157.06"/>
<text text-anchor="middle" x="350" y="-159.39" font-family="Times New Roman,serif" font-size="30.00"> &#160;&#160;1002 &#160;&#160;5% &#160;&#160;0.000238 mol/s &#160;&#160;&#160;6.11E&#45;01</text>
</g>
<!-- R393 -->
<g id="node5" class="node">
<title>R393</title>
<g id="a_node5"><a xlink:href="393.svg" xlink:title="R393">
<polygon fill="azure" stroke="none" points="700,-120.89 606,-120.89 606,-73.89 700,-73.89 700,-120.89"/>
<text text-anchor="middle" x="653" y="-88.89" font-family="Times New Roman,serif" font-size="35.00">R393</text>
</a>
</g>
</g>
<!-- R335&#45;&gt;R393 -->
<g id="edge4" class="edge">
<title>R335&#45;&gt;R393</title>
<path fill="none" stroke="black" d="M52.22,-186.04C58.36,-159.77 72.52,-118.3 103,-99.39 183.78,-49.26 472.01,-76.04 595.35,-90.31"/>
<polygon fill="black" stroke="black" points="594.71,-93.88 605.05,-91.56 595.53,-86.92 594.71,-93.88"/>
<text text-anchor="middle" x="350" y="-108.39" font-family="Times New Roman,serif" font-size="30.00"> &#160;&#160;842 &#160;&#160;0% &#160;&#160;4.19e&#45;07 mol/s &#160;&#160;&#160;9.80E&#45;01</text>
</g>
<!-- R118 -->
<g id="node6" class="node">
<title>R118</title>
<g id="a_node6"><a xlink:href="118.svg" xlink:title="R118">
<polygon fill="azure" stroke="none" points="700,-55.89 606,-55.89 606,-8.89 700,-8.89 700,-55.89"/>
<text text-anchor="middle" x="653" y="-23.89" font-family="Times New Roman,serif" font-size="35.00">R118</text>
</a>
</g>
</g>
<!-- R335&#45;&gt;R118 -->
<g id="edge6" class="edge">
<title>R335&#45;&gt;R118</title>
<path fill="none" stroke="black" stroke-width="2" d="M47.27,-186.15C47.46,-146.9 54.29,-68.26 103,-32.39 179.73,24.12 471.56,-7.65 595.63,-24.27"/>
<polygon fill="black" stroke="black" stroke-width="2" points="594.02,-27.85 604.4,-25.73 594.96,-20.92 594.02,-27.85"/>
<text text-anchor="middle" x="350" y="-41.39" font-family="Times New Roman,serif" font-size="30.00"> &#160;&#160;862 &#160;&#160;24% &#160;&#160;0.00111 mol/s &#160;&#160;&#160;3.85E&#45;04</text>
</g>
</g>
</svg>
