<?xml version="1.0" encoding="UTF-8" standalone="no"?>
<!DOCTYPE svg PUBLIC "-//W3C//DTD SVG 1.1//EN"
 "http://www.w3.org/Graphics/SVG/1.1/DTD/svg11.dtd">
<!-- Generated by graphviz version 8.0.3 (20230416.2022)
 -->
<!-- Title: G Pages: 1 -->
<svg width="608pt" height="386pt"
 viewBox="0.00 0.00 684.00 434.55" xmlns="http://www.w3.org/2000/svg" xmlns:xlink="http://www.w3.org/1999/xlink">
<g id="graph0" class="graph" transform="scale(0.888889 0.888889) rotate(0) translate(4 430.55)">
<title>G</title>
<polygon fill="white" stroke="none" points="-4,4 -4,-430.55 680,-430.55 680,4 -4,4"/>
<text text-anchor="middle" x="338" y="-393.75" font-family="Arial" font-size="36.00" fill="blue">Reaction Path Analysis</text>
<!-- R34 -->
<g id="node1" class="node">
<title>R34</title>
<g id="a_node1"><a xlink:href="34.svg" xlink:title="R34">
<polygon fill="azure" stroke="none" points="676,-202.05 600,-202.05 600,-155.05 676,-155.05 676,-202.05"/>
<text text-anchor="middle" x="638" y="-170.05" font-family="Times New Roman,serif" font-size="35.00">R34</text>
</a>
</g>
</g>
<!-- R6 -->
<g id="node2" class="node">
<title>R6</title>
<g id="a_node2"><a xlink:href="6.svg" xlink:title="R6">
<polygon fill="azure" stroke="none" points="76,-332.05 18,-332.05 18,-285.05 76,-285.05 76,-332.05"/>
<text text-anchor="middle" x="47" y="-300.05" font-family="Times New Roman,serif" font-size="35.00">R6</text>
</a>
</g>
</g>
<!-- R6&#45;&gt;R34 -->
<g id="edge1" class="edge">
<title>R6&#45;&gt;R34</title>
<path fill="none" stroke="black" d="M75.77,-315.92C159.88,-336.55 416.23,-386.74 582,-281.55 606.34,-266.1 620.61,-236.03 628.49,-212.35"/>
<polygon fill="black" stroke="black" points="632.08,-213.58 631.67,-202.99 625.39,-211.53 632.08,-213.58"/>
<text text-anchor="middle" x="342.5" y="-354.55" font-family="Times New Roman,serif" font-size="30.00"> &#160;&#160;39 &#160;&#160;0% &#160;&#160;4.27e&#45;07 mol/s &#160;&#160;&#160;9.99E&#45;01</text>
</g>
<!-- R2 -->
<g id="node3" class="node">
<title>R2</title>
<g id="a_node3"><a xlink:href="2.svg" xlink:title="R2">
<polygon fill="azure" stroke="none" points="76,-267.05 18,-267.05 18,-220.05 76,-220.05 76,-267.05"/>
<text text-anchor="middle" x="47" y="-235.05" font-family="Times New Roman,serif" font-size="35.00">R2</text>
</a>
</g>
</g>
<!-- R2&#45;&gt;R34 -->
<g id="edge2" class="edge">
<title>R2&#45;&gt;R34</title>
<path fill="none" stroke="black" d="M75.74,-244.03C171.39,-245.4 486.79,-247.34 582,-215.55 587.94,-213.56 593.85,-210.75 599.46,-207.55"/>
<polygon fill="black" stroke="black" points="600.94,-210.13 607.58,-201.87 597.24,-204.18 600.94,-210.13"/>
<text text-anchor="middle" x="342.5" y="-253.55" font-family="Times New Roman,serif" font-size="30.00"> &#160;&#160;39 &#160;&#160;0% &#160;&#160;4.27e&#45;07 mol/s &#160;&#160;&#160;9.99E&#45;01</text>
</g>
<!-- R0 -->
<g id="node4" class="node">
<title>R0</title>
<g id="a_node4"><a xlink:href="0.svg" xlink:title="R0">
<polygon fill="azure" stroke="none" points="76,-202.05 18,-202.05 18,-155.05 76,-155.05 76,-202.05"/>
<text text-anchor="middle" x="47" y="-170.05" font-family="Times New Roman,serif" font-size="35.00">R0</text>
</a>
</g>
</g>
<!-- R0&#45;&gt;R34 -->
<g id="edge3" class="edge">
<title>R0&#45;&gt;R34</title>
<path fill="none" stroke="black" d="M75.62,-178.55C168.71,-178.55 471.72,-178.55 589.53,-178.55"/>
<polygon fill="black" stroke="black" points="589.34,-182.05 599.34,-178.55 589.34,-175.05 589.34,-182.05"/>
<text text-anchor="middle" x="342.5" y="-187.55" font-family="Times New Roman,serif" font-size="30.00"> &#160;&#160;106 &#160;&#160;0% &#160;&#160;4.28e&#45;07 mol/s &#160;&#160;&#160;1.00E+00</text>
</g>
<!-- R19 -->
<g id="node5" class="node">
<title>R19</title>
<g id="a_node5"><a xlink:href="19.svg" xlink:title="R19">
<polygon fill="azure" stroke="none" points="85,-137.05 9,-137.05 9,-90.05 85,-90.05 85,-137.05"/>
<text text-anchor="middle" x="47" y="-105.05" font-family="Times New Roman,serif" font-size="35.00">R19</text>
</a>
</g>
</g>
<!-- R19&#45;&gt;R34 -->
<g id="edge4" class="edge">
<title>R19&#45;&gt;R34</title>
<path fill="none" stroke="black" d="M84.86,-108.91C173.34,-99.14 403.69,-82.01 582,-141.55 587.94,-143.53 593.85,-146.35 599.46,-149.55"/>
<polygon fill="black" stroke="black" points="597.24,-152.92 607.58,-155.23 600.94,-146.97 597.24,-152.92"/>
<text text-anchor="middle" x="342.5" y="-150.55" font-family="Times New Roman,serif" font-size="30.00"> &#160;&#160;106 &#160;&#160;0% &#160;&#160;4.28e&#45;07 mol/s &#160;&#160;&#160;1.00E+00</text>
</g>
<!-- R129 -->
<g id="node6" class="node">
<title>R129</title>
<g id="a_node6"><a xlink:href="129.svg" xlink:title="R129">
<polygon fill="azure" stroke="none" points="94,-72.05 0,-72.05 0,-25.05 94,-25.05 94,-72.05"/>
<text text-anchor="middle" x="47" y="-40.05" font-family="Times New Roman,serif" font-size="35.00">R129</text>
</a>
</g>
</g>
<!-- R129&#45;&gt;R34 -->
<g id="edge5" class="edge">
<title>R129&#45;&gt;R34</title>
<path fill="none" stroke="black" stroke-width="5" d="M93.75,-34.9C192.27,-8.45 428,38.87 582,-61.55 607.12,-77.93 621,-109.07 628.53,-135.12"/>
<polygon fill="black" stroke="black" stroke-width="5" points="619.23,-132 632.47,-149.35 636.23,-127.85 619.23,-132"/>
<text text-anchor="middle" x="342.5" y="-70.55" font-family="Times New Roman,serif" font-size="30.00"> &#160;&#160;181 &#160;&#160;99% &#160;&#160;2.69 mol/s &#160;&#160;&#160;1.59E&#45;07</text>
</g>
</g>
</svg>
