<?xml version="1.0" encoding="UTF-8" standalone="no"?>
<!DOCTYPE svg PUBLIC "-//W3C//DTD SVG 1.1//EN"
 "http://www.w3.org/Graphics/SVG/1.1/DTD/svg11.dtd">
<!-- Generated by graphviz version 8.0.3 (20230416.2022)
 -->
<!-- Title: G Pages: 1 -->
<svg width="640pt" height="380pt"
 viewBox="0.00 0.00 720.00 427.54" xmlns="http://www.w3.org/2000/svg" xmlns:xlink="http://www.w3.org/1999/xlink">
<g id="graph0" class="graph" transform="scale(0.885201 0.885201) rotate(0) translate(4 425.32)">
<title>G</title>
<polygon fill="white" stroke="none" points="-4,4 -4,-425.32 719,-425.32 719,4 -4,4"/>
<text text-anchor="middle" x="357.5" y="-388.52" font-family="Arial" font-size="36.00" fill="blue">Reaction Path Analysis</text>
<!-- R343 -->
<g id="node1" class="node">
<title>R343</title>
<g id="a_node1"><a xlink:href="343.svg" xlink:title="R343">
<polygon fill="azure" stroke="none" points="94,-200.82 0,-200.82 0,-153.82 94,-153.82 94,-200.82"/>
<text text-anchor="middle" x="47" y="-168.82" font-family="Times New Roman,serif" font-size="35.00">R343</text>
</a>
</g>
</g>
<!-- R1 -->
<g id="node2" class="node">
<title>R1</title>
<g id="a_node2"><a xlink:href="1.svg" xlink:title="R1">
<polygon fill="azure" stroke="none" points="697,-349.82 639,-349.82 639,-302.82 697,-302.82 697,-349.82"/>
<text text-anchor="middle" x="668" y="-317.82" font-family="Times New Roman,serif" font-size="35.00">R1</text>
</a>
</g>
</g>
<!-- R343&#45;&gt;R1 -->
<g id="edge1" class="edge">
<title>R343&#45;&gt;R1</title>
<path fill="none" stroke="black" d="M50.98,-200.73C56.06,-229.8 69.35,-278.35 103,-301.32 188.32,-359.54 515.43,-338.84 628.38,-329.71"/>
<polygon fill="black" stroke="black" points="628.56,-333.12 638.24,-328.81 627.99,-326.14 628.56,-333.12"/>
<text text-anchor="middle" x="357.5" y="-349.32" font-family="Times New Roman,serif" font-size="30.00"> &#160;&#160;578 &#160;&#160;15% &#160;&#160;0.000266 mol/s &#160;&#160;&#160;1.60E&#45;03</text>
</g>
<!-- R130 -->
<g id="node3" class="node">
<title>R130</title>
<g id="a_node3"><a xlink:href="130.svg" xlink:title="R130">
<polygon fill="azure" stroke="none" points="715,-284.82 621,-284.82 621,-237.82 715,-237.82 715,-284.82"/>
<text text-anchor="middle" x="668" y="-252.82" font-family="Times New Roman,serif" font-size="35.00">R130</text>
</a>
</g>
</g>
<!-- R343&#45;&gt;R130 -->
<g id="edge2" class="edge">
<title>R343&#45;&gt;R130</title>
<path fill="none" stroke="black" d="M66.06,-200.74C75.75,-211.46 88.64,-223.13 103,-229.32 192.94,-268.09 485.83,-265.84 610.25,-262.98"/>
<polygon fill="black" stroke="black" points="610.14,-266.46 620.05,-262.72 609.97,-259.46 610.14,-266.46"/>
<text text-anchor="middle" x="357.5" y="-273.32" font-family="Times New Roman,serif" font-size="30.00"> &#160;&#160;578 &#160;&#160;15% &#160;&#160;0.000266 mol/s &#160;&#160;&#160;1.60E&#45;03</text>
</g>
<!-- R300 -->
<g id="node4" class="node">
<title>R300</title>
<g id="a_node4"><a xlink:href="300.svg" xlink:title="R300">
<polygon fill="azure" stroke="none" points="715,-200.82 621,-200.82 621,-153.82 715,-153.82 715,-200.82"/>
<text text-anchor="middle" x="668" y="-168.82" font-family="Times New Roman,serif" font-size="35.00">R300</text>
</a>
</g>
</g>
<!-- R343&#45;&gt;R300 -->
<g id="edge3" class="edge">
<title>R343&#45;&gt;R300</title>
<path fill="none" stroke="black" stroke-width="3" d="M93.89,-182.7C96.97,-182.95 100.03,-183.16 103,-183.32 325.36,-195.41 384.28,-195.6 610.23,-183.3"/>
<polygon fill="black" stroke="black" stroke-width="3" points="607.32,-186.74 617.11,-182.7 606.94,-179.75 607.32,-186.74"/>
<text text-anchor="middle" x="357.5" y="-201.32" font-family="Times New Roman,serif" font-size="30.00"> &#160;&#160;780 &#160;&#160;41% &#160;&#160;0.00073 mol/s &#160;&#160;&#160;3.21E&#45;01</text>
</g>
<!-- R343&#45;&gt;R300 -->
<g id="edge6" class="edge">
<title>R343&#45;&gt;R300</title>
<path fill="none" stroke="black" d="M83.56,-153.86C89.81,-150.75 96.43,-148.04 103,-146.32 157.7,-131.96 557.3,-131.96 612,-146.32 615.18,-147.15 618.38,-148.22 621.54,-149.45"/>
<polygon fill="black" stroke="black" points="619.88,-152.99 630.44,-153.86 622.73,-146.6 619.88,-152.99"/>
<text text-anchor="middle" x="357.5" y="-155.32" font-family="Times New Roman,serif" font-size="30.00"> &#160;&#160;1010 &#160;&#160;19% &#160;&#160;0.000345 mol/s &#160;&#160;&#160;6.79E&#45;01</text>
</g>
<!-- R2 -->
<g id="node5" class="node">
<title>R2</title>
<g id="a_node5"><a xlink:href="2.svg" xlink:title="R2">
<polygon fill="azure" stroke="none" points="697,-116.82 639,-116.82 639,-69.82 697,-69.82 697,-116.82"/>
<text text-anchor="middle" x="668" y="-84.82" font-family="Times New Roman,serif" font-size="35.00">R2</text>
</a>
</g>
</g>
<!-- R343&#45;&gt;R2 -->
<g id="edge4" class="edge">
<title>R343&#45;&gt;R2</title>
<path fill="none" stroke="black" stroke-width="2" d="M57.08,-153.92C65.76,-135.13 80.83,-110.02 103,-98.32 194.15,-50.2 516.79,-77.84 628.55,-89.18"/>
<polygon fill="black" stroke="black" stroke-width="2" points="626,-92.74 636.3,-90.29 626.71,-85.78 626,-92.74"/>
<text text-anchor="middle" x="357.5" y="-107.32" font-family="Times New Roman,serif" font-size="30.00"> &#160;&#160;876 &#160;&#160;23% &#160;&#160;0.000413 mol/s &#160;&#160;&#160;1.03E&#45;03</text>
</g>
<!-- R118 -->
<g id="node6" class="node">
<title>R118</title>
<g id="a_node6"><a xlink:href="118.svg" xlink:title="R118">
<polygon fill="azure" stroke="none" points="715,-51.82 621,-51.82 621,-4.82 715,-4.82 715,-51.82"/>
<text text-anchor="middle" x="668" y="-19.82" font-family="Times New Roman,serif" font-size="35.00">R118</text>
</a>
</g>
</g>
<!-- R343&#45;&gt;R118 -->
<g id="edge5" class="edge">
<title>R343&#45;&gt;R118</title>
<path fill="none" stroke="black" stroke-width="2" d="M49.21,-154.05C52.32,-120.83 63.45,-60.81 103,-33.32 183.67,22.75 484.37,-6 610.62,-21.06"/>
<polygon fill="black" stroke="black" stroke-width="2" points="607.86,-24.61 618.21,-22.33 608.7,-17.66 607.86,-24.61"/>
<text text-anchor="middle" x="357.5" y="-42.32" font-family="Times New Roman,serif" font-size="30.00"> &#160;&#160;876 &#160;&#160;23% &#160;&#160;0.000413 mol/s &#160;&#160;&#160;1.03E&#45;03</text>
</g>
</g>
</svg>
