<?xml version="1.0" encoding="UTF-8" standalone="no"?>
<!DOCTYPE svg PUBLIC "-//W3C//DTD SVG 1.1//EN"
 "http://www.w3.org/Graphics/SVG/1.1/DTD/svg11.dtd">
<!-- Generated by graphviz version 8.0.3 (20230416.2022)
 -->
<!-- Title: G Pages: 1 -->
<svg width="629pt" height="290pt"
 viewBox="0.00 0.00 708.00 326.33" xmlns="http://www.w3.org/2000/svg" xmlns:xlink="http://www.w3.org/1999/xlink">
<g id="graph0" class="graph" transform="scale(0.888889 0.888889) rotate(0) translate(4 322.33)">
<title>G</title>
<polygon fill="white" stroke="none" points="-4,4 -4,-322.33 704,-322.33 704,4 -4,4"/>
<text text-anchor="middle" x="350" y="-285.53" font-family="Arial" font-size="36.00" fill="blue">Reaction Path Analysis</text>
<!-- R358 -->
<g id="node1" class="node">
<title>R358</title>
<g id="a_node1"><a xlink:href="358.svg" xlink:title="R358">
<polygon fill="azure" stroke="none" points="94,-140.83 0,-140.83 0,-93.83 94,-93.83 94,-140.83"/>
<text text-anchor="middle" x="47" y="-108.83" font-family="Times New Roman,serif" font-size="35.00">R358</text>
</a>
</g>
</g>
<!-- R242 -->
<g id="node2" class="node">
<title>R242</title>
<g id="a_node2"><a xlink:href="242.svg" xlink:title="R242">
<polygon fill="azure" stroke="none" points="700,-233.83 606,-233.83 606,-186.83 700,-186.83 700,-233.83"/>
<text text-anchor="middle" x="653" y="-201.83" font-family="Times New Roman,serif" font-size="35.00">R242</text>
</a>
</g>
</g>
<!-- R358&#45;&gt;R242 -->
<g id="edge1" class="edge">
<title>R358&#45;&gt;R242</title>
<path fill="none" stroke="black" stroke-width="5" d="M61.14,-140.54C70.71,-155.02 85.12,-172.54 103,-181.33 261.67,-259.31 478.16,-239.62 585.72,-222.78"/>
<polygon fill="black" stroke="black" stroke-width="5" points="582.04,-232.27 600.35,-220.37 579.19,-215 582.04,-232.27"/>
<text text-anchor="middle" x="350" y="-246.33" font-family="Times New Roman,serif" font-size="30.00"> &#160;&#160;601 &#160;&#160;98% &#160;&#160;2.23 mol/s &#160;&#160;&#160;1.92E&#45;07</text>
</g>
<!-- R1 -->
<g id="node3" class="node">
<title>R1</title>
<g id="a_node3"><a xlink:href="1.svg" xlink:title="R1">
<polygon fill="azure" stroke="none" points="682,-168.83 624,-168.83 624,-121.83 682,-121.83 682,-168.83"/>
<text text-anchor="middle" x="653" y="-136.83" font-family="Times New Roman,serif" font-size="35.00">R1</text>
</a>
</g>
</g>
<!-- R358&#45;&gt;R1 -->
<g id="edge2" class="edge">
<title>R358&#45;&gt;R1</title>
<path fill="none" stroke="black" stroke-width="5" d="M93.89,-122.57C96.97,-122.85 100.03,-123.11 103,-123.33 287.52,-137.07 507.62,-142.62 603.43,-144.5"/>
<polygon fill="black" stroke="black" stroke-width="5" points="598.09,-153.26 618.25,-144.89 598.42,-135.77 598.09,-153.26"/>
<text text-anchor="middle" x="350" y="-153.33" font-family="Times New Roman,serif" font-size="30.00"> &#160;&#160;601 &#160;&#160;98% &#160;&#160;2.23 mol/s &#160;&#160;&#160;1.92E&#45;07</text>
</g>
<!-- R295 -->
<g id="node4" class="node">
<title>R295</title>
<g id="a_node4"><a xlink:href="295.svg" xlink:title="R295">
<polygon fill="azure" stroke="none" points="700,-80.83 606,-80.83 606,-33.83 700,-33.83 700,-80.83"/>
<text text-anchor="middle" x="653" y="-48.83" font-family="Times New Roman,serif" font-size="35.00">R295</text>
</a>
</g>
</g>
<!-- R358&#45;&gt;R295 -->
<g id="edge3" class="edge">
<title>R358&#45;&gt;R295</title>
<path fill="none" stroke="black" d="M83.92,-93.94C90.08,-90.86 96.57,-88.15 103,-86.33 205.61,-57.28 471.59,-78 595.35,-67.23"/>
<polygon fill="black" stroke="black" points="595.55,-70.62 605.15,-66.16 594.86,-63.66 595.55,-70.62"/>
<text text-anchor="middle" x="350" y="-95.33" font-family="Times New Roman,serif" font-size="30.00"> &#160;&#160;979 &#160;&#160;1% &#160;&#160;0.033 mol/s &#160;&#160;&#160;1.91E&#45;02</text>
</g>
<!-- R358&#45;&gt;R295 -->
<g id="edge4" class="edge">
<title>R358&#45;&gt;R295</title>
<path fill="none" stroke="black" d="M55.44,-94.03C63.5,-73.14 78.58,-43.78 103,-30.33 199.15,22.64 490.07,-5.49 597,-30.33 597.49,-30.44 597.99,-30.56 598.48,-30.68"/>
<polygon fill="black" stroke="black" points="597.25,-34.28 607.84,-33.92 599.34,-27.6 597.25,-34.28"/>
<text text-anchor="middle" x="350" y="-39.33" font-family="Times New Roman,serif" font-size="30.00"> &#160;&#160;1025 &#160;&#160;0% &#160;&#160;0.000641 mol/s &#160;&#160;&#160;9.81E&#45;01</text>
</g>
</g>
</svg>
