<?xml version="1.0" encoding="UTF-8" standalone="no"?>
<!DOCTYPE svg PUBLIC "-//W3C//DTD SVG 1.1//EN"
 "http://www.w3.org/Graphics/SVG/1.1/DTD/svg11.dtd">
<!-- Generated by graphviz version 8.0.3 (20230416.2022)
 -->
<!-- Title: G Pages: 1 -->
<svg width="556pt" height="318pt"
 viewBox="0.00 0.00 626.00 357.50" xmlns="http://www.w3.org/2000/svg" xmlns:xlink="http://www.w3.org/1999/xlink">
<g id="graph0" class="graph" transform="scale(0.888889 0.888889) rotate(0) translate(4 353.5)">
<title>G</title>
<polygon fill="white" stroke="none" points="-4,4 -4,-353.5 622,-353.5 622,4 -4,4"/>
<text text-anchor="middle" x="309" y="-316.7" font-family="Arial" font-size="36.00" fill="blue">Reaction Path Analysis</text>
<!-- R36 -->
<g id="node1" class="node">
<title>R36</title>
<g id="a_node1"><a xlink:href="36.svg" xlink:title="R36">
<polygon fill="azure" stroke="none" points="76,-164 0,-164 0,-117 76,-117 76,-164"/>
<text text-anchor="middle" x="38" y="-132" font-family="Times New Roman,serif" font-size="35.00">R36</text>
</a>
</g>
</g>
<!-- R2 -->
<g id="node2" class="node">
<title>R2</title>
<g id="a_node2"><a xlink:href="2.svg" xlink:title="R2">
<polygon fill="azure" stroke="none" points="618,-262 560,-262 560,-215 618,-215 618,-262"/>
<text text-anchor="middle" x="589" y="-230" font-family="Times New Roman,serif" font-size="35.00">R2</text>
</a>
</g>
</g>
<!-- R36&#45;&gt;R2 -->
<g id="edge1" class="edge">
<title>R36&#45;&gt;R2</title>
<path fill="none" stroke="black" stroke-width="5" d="M47.5,-163.99C54.77,-180.35 66.95,-201.05 85,-211.5 231.97,-296.58 445.38,-268.13 539.88,-249.42"/>
<polygon fill="black" stroke="black" stroke-width="5" points="536.43,-258.83 554.22,-246.18 532.86,-241.7 536.43,-258.83"/>
<text text-anchor="middle" x="313.5" y="-277.5" font-family="Times New Roman,serif" font-size="30.00"> &#160;&#160;41 &#160;&#160;94% &#160;&#160;1.2e&#45;05 mol/s &#160;&#160;&#160;3.34E&#45;02</text>
</g>
<!-- R8 -->
<g id="node3" class="node">
<title>R8</title>
<g id="a_node3"><a xlink:href="8.svg" xlink:title="R8">
<polygon fill="azure" stroke="none" points="618,-197 560,-197 560,-150 618,-150 618,-197"/>
<text text-anchor="middle" x="589" y="-165" font-family="Times New Roman,serif" font-size="35.00">R8</text>
</a>
</g>
</g>
<!-- R36&#45;&gt;R8 -->
<g id="edge2" class="edge">
<title>R36&#45;&gt;R8</title>
<path fill="none" stroke="black" stroke-width="5" d="M75.79,-149.95C78.89,-150.55 81.99,-151.08 85,-151.5 250.41,-174.68 449.14,-175.51 539.28,-174.45"/>
<polygon fill="black" stroke="black" stroke-width="5" points="534.15,-183.19 554.02,-174.14 533.89,-165.69 534.15,-183.19"/>
<text text-anchor="middle" x="313.5" y="-183.5" font-family="Times New Roman,serif" font-size="30.00"> &#160;&#160;41 &#160;&#160;94% &#160;&#160;1.2e&#45;05 mol/s &#160;&#160;&#160;3.34E&#45;02</text>
</g>
<!-- R3 -->
<g id="node4" class="node">
<title>R3</title>
<g id="a_node4"><a xlink:href="3.svg" xlink:title="R3">
<polygon fill="azure" stroke="none" points="618,-132 560,-132 560,-85 618,-85 618,-132"/>
<text text-anchor="middle" x="589" y="-100" font-family="Times New Roman,serif" font-size="35.00">R3</text>
</a>
</g>
</g>
<!-- R36&#45;&gt;R3 -->
<g id="edge3" class="edge">
<title>R36&#45;&gt;R3</title>
<path fill="none" stroke="black" d="M75.92,-121.22C78.94,-120.15 81.99,-119.22 85,-118.5 254.17,-78.36 464.39,-94.6 549.53,-103.81"/>
<polygon fill="black" stroke="black" points="548.9,-107.37 559.22,-105 549.67,-100.42 548.9,-107.37"/>
<text text-anchor="middle" x="313.5" y="-127.5" font-family="Times New Roman,serif" font-size="30.00"> &#160;&#160;53 &#160;&#160;5% &#160;&#160;7.07e&#45;07 mol/s &#160;&#160;&#160;2.74E&#45;01</text>
</g>
<!-- R6 -->
<g id="node5" class="node">
<title>R6</title>
<g id="a_node5"><a xlink:href="6.svg" xlink:title="R6">
<polygon fill="azure" stroke="none" points="618,-67 560,-67 560,-20 618,-20 618,-67"/>
<text text-anchor="middle" x="589" y="-35" font-family="Times New Roman,serif" font-size="35.00">R6</text>
</a>
</g>
</g>
<!-- R36&#45;&gt;R6 -->
<g id="edge4" class="edge">
<title>R36&#45;&gt;R6</title>
<path fill="none" stroke="black" d="M44.59,-117.2C50.79,-97.01 62.96,-68.99 85,-55.5 235.19,36.43 460.75,-8.98 549.85,-32.44"/>
<polygon fill="black" stroke="black" points="548.7,-36.03 559.27,-35.25 550.52,-29.27 548.7,-36.03"/>
<text text-anchor="middle" x="313.5" y="-64.5" font-family="Times New Roman,serif" font-size="30.00"> &#160;&#160;53 &#160;&#160;5% &#160;&#160;7.07e&#45;07 mol/s &#160;&#160;&#160;2.74E&#45;01</text>
</g>
</g>
</svg>
