<?xml version="1.0" encoding="UTF-8" standalone="no"?>
<!DOCTYPE svg PUBLIC "-//W3C//DTD SVG 1.1//EN"
 "http://www.w3.org/Graphics/SVG/1.1/DTD/svg11.dtd">
<!-- Generated by graphviz version 8.0.3 (20230416.2022)
 -->
<!-- Title: G Pages: 1 -->
<svg width="636pt" height="291pt"
 viewBox="0.00 0.00 716.00 327.82" xmlns="http://www.w3.org/2000/svg" xmlns:xlink="http://www.w3.org/1999/xlink">
<g id="graph0" class="graph" transform="scale(0.888889 0.888889) rotate(0) translate(4 323.82)">
<title>G</title>
<polygon fill="white" stroke="none" points="-4,4 -4,-323.82 712,-323.82 712,4 -4,4"/>
<text text-anchor="middle" x="354" y="-287.02" font-family="Arial" font-size="36.00" fill="blue">Reaction Path Analysis</text>
<!-- R361 -->
<g id="node1" class="node">
<title>R361</title>
<g id="a_node1"><a xlink:href="361.svg" xlink:title="R361">
<polygon fill="azure" stroke="none" points="94,-141.32 0,-141.32 0,-94.32 94,-94.32 94,-141.32"/>
<text text-anchor="middle" x="47" y="-109.32" font-family="Times New Roman,serif" font-size="35.00">R361</text>
</a>
</g>
</g>
<!-- R248 -->
<g id="node2" class="node">
<title>R248</title>
<g id="a_node2"><a xlink:href="248.svg" xlink:title="R248">
<polygon fill="azure" stroke="none" points="708,-234.32 614,-234.32 614,-187.32 708,-187.32 708,-234.32"/>
<text text-anchor="middle" x="661" y="-202.32" font-family="Times New Roman,serif" font-size="35.00">R248</text>
</a>
</g>
</g>
<!-- R361&#45;&gt;R248 -->
<g id="edge1" class="edge">
<title>R361&#45;&gt;R248</title>
<path fill="none" stroke="black" d="M61.14,-141.03C70.71,-155.52 85.12,-173.04 103,-181.82 269.43,-263.54 498.5,-239.24 603.4,-221.79"/>
<polygon fill="black" stroke="black" points="603.79,-225.11 613.06,-219.97 602.61,-218.21 603.79,-225.11"/>
<text text-anchor="middle" x="354" y="-247.82" font-family="Times New Roman,serif" font-size="30.00"> &#160;&#160;608 &#160;&#160;2% &#160;&#160;0.424 mol/s &#160;&#160;&#160;1.01E&#45;06</text>
</g>
<!-- R1 -->
<g id="node3" class="node">
<title>R1</title>
<g id="a_node3"><a xlink:href="1.svg" xlink:title="R1">
<polygon fill="azure" stroke="none" points="690,-169.32 632,-169.32 632,-122.32 690,-122.32 690,-169.32"/>
<text text-anchor="middle" x="661" y="-137.32" font-family="Times New Roman,serif" font-size="35.00">R1</text>
</a>
</g>
</g>
<!-- R361&#45;&gt;R1 -->
<g id="edge2" class="edge">
<title>R361&#45;&gt;R1</title>
<path fill="none" stroke="black" d="M93.89,-123.06C96.97,-123.34 100.03,-123.6 103,-123.82 297.36,-138.24 530.62,-143.59 621.3,-145.21"/>
<polygon fill="black" stroke="black" points="621.08,-148.72 631.14,-145.4 621.2,-141.72 621.08,-148.72"/>
<text text-anchor="middle" x="354" y="-153.82" font-family="Times New Roman,serif" font-size="30.00"> &#160;&#160;608 &#160;&#160;2% &#160;&#160;0.424 mol/s &#160;&#160;&#160;1.01E&#45;06</text>
</g>
<!-- R279 -->
<g id="node4" class="node">
<title>R279</title>
<g id="a_node4"><a xlink:href="279.svg" xlink:title="R279">
<polygon fill="azure" stroke="none" points="708,-81.32 614,-81.32 614,-34.32 708,-34.32 708,-81.32"/>
<text text-anchor="middle" x="661" y="-49.32" font-family="Times New Roman,serif" font-size="35.00">R279</text>
</a>
</g>
</g>
<!-- R361&#45;&gt;R279 -->
<g id="edge3" class="edge">
<title>R361&#45;&gt;R279</title>
<path fill="none" stroke="black" stroke-width="5" d="M83.92,-94.43C90.08,-91.35 96.57,-88.64 103,-86.82 204.65,-58.08 464.07,-77.58 593.44,-68.49"/>
<polygon fill="black" stroke="black" stroke-width="5" points="589.01,-77.14 608.16,-66.66 587.46,-59.71 589.01,-77.14"/>
<text text-anchor="middle" x="354" y="-95.82" font-family="Times New Roman,serif" font-size="30.00"> &#160;&#160;971 &#160;&#160;97% &#160;&#160;18.2 mol/s &#160;&#160;&#160;3.60E&#45;05</text>
</g>
<!-- R361&#45;&gt;R279 -->
<g id="edge4" class="edge">
<title>R361&#45;&gt;R279</title>
<path fill="none" stroke="black" d="M55.44,-94.52C63.5,-73.63 78.58,-44.27 103,-30.82 200.71,23.01 496.34,-5.58 605,-30.82 605.49,-30.93 605.99,-31.05 606.48,-31.18"/>
<polygon fill="black" stroke="black" points="605.25,-34.77 615.84,-34.41 607.34,-28.09 605.25,-34.77"/>
<text text-anchor="middle" x="354" y="-39.82" font-family="Times New Roman,serif" font-size="30.00"> &#160;&#160;1028 &#160;&#160;0% &#160;&#160;0.000654 mol/s &#160;&#160;&#160;1.00E+00</text>
</g>
</g>
</svg>
