<?xml version="1.0" encoding="UTF-8" standalone="no"?>
<!DOCTYPE svg PUBLIC "-//W3C//DTD SVG 1.1//EN"
 "http://www.w3.org/Graphics/SVG/1.1/DTD/svg11.dtd">
<!-- Generated by graphviz version 8.0.3 (20230416.2022)
 -->
<!-- Title: G Pages: 1 -->
<svg width="640pt" height="85pt"
 viewBox="0.00 0.00 720.00 96.09" xmlns="http://www.w3.org/2000/svg" xmlns:xlink="http://www.w3.org/1999/xlink">
<g id="graph0" class="graph" transform="scale(0.481203 0.481203) rotate(0) translate(4 173.5)">
<title>G</title>
<polygon fill="white" stroke="none" points="-4,4 -4,-173.5 1326,-173.5 1326,4 -4,4"/>
<text text-anchor="middle" x="661" y="-136.7" font-family="Arial" font-size="36.00" fill="blue">Reaction Path Analysis</text>
<!-- R367 -->
<g id="node1" class="node">
<title>R367</title>
<g id="a_node1"><a xlink:href="367.svg" xlink:title="R367">
<polygon fill="azure" stroke="none" points="708,-79 614,-79 614,-32 708,-32 708,-79"/>
<text text-anchor="middle" x="661" y="-47" font-family="Times New Roman,serif" font-size="35.00">R367</text>
</a>
</g>
</g>
<!-- R118 -->
<g id="node2" class="node">
<title>R118</title>
<g id="a_node2"><a xlink:href="118.svg" xlink:title="R118">
<polygon fill="azure" stroke="none" points="1322,-112 1228,-112 1228,-65 1322,-65 1322,-112"/>
<text text-anchor="middle" x="1275" y="-80" font-family="Times New Roman,serif" font-size="35.00">R118</text>
</a>
</g>
</g>
<!-- R367&#45;&gt;R118 -->
<g id="edge1" class="edge">
<title>R367&#45;&gt;R118</title>
<path fill="none" stroke="black" stroke-width="6" d="M707.96,-64.73C712.36,-65.42 716.75,-66.02 721,-66.5 895.75,-86.16 1103.29,-88.95 1207.41,-88.95"/>
<polygon fill="black" stroke="black" stroke-width="6" points="1202.33,-99.45 1222.31,-88.91 1202.29,-78.45 1202.33,-99.45"/>
<text text-anchor="middle" x="968" y="-97.5" font-family="Times New Roman,serif" font-size="30.00"> &#160;&#160;618 &#160;&#160;100% &#160;&#160;32000.0 mol/s &#160;&#160;&#160;1.34E&#45;11</text>
</g>
<!-- R2 -->
<g id="node3" class="node">
<title>R2</title>
<g id="a_node3"><a xlink:href="2.svg" xlink:title="R2">
<polygon fill="azure" stroke="none" points="1304,-47 1246,-47 1246,0 1304,0 1304,-47"/>
<text text-anchor="middle" x="1275" y="-15" font-family="Times New Roman,serif" font-size="35.00">R2</text>
</a>
</g>
</g>
<!-- R367&#45;&gt;R2 -->
<g id="edge2" class="edge">
<title>R367&#45;&gt;R2</title>
<path fill="none" stroke="black" stroke-width="6" d="M707.95,-36.68C712.31,-35.41 716.7,-34.32 721,-33.5 904.41,1.3 1128.18,-10.99 1225.23,-18.92"/>
<polygon fill="black" stroke="black" stroke-width="6" points="1219.21,-29.45 1240.04,-20.71 1221.02,-8.53 1219.21,-29.45"/>
<text text-anchor="middle" x="968" y="-42.5" font-family="Times New Roman,serif" font-size="30.00"> &#160;&#160;618 &#160;&#160;100% &#160;&#160;32000.0 mol/s &#160;&#160;&#160;1.34E&#45;11</text>
</g>
<!-- R0 -->
<g id="node4" class="node">
<title>R0</title>
<g id="a_node4"><a xlink:href="0.svg" xlink:title="R0">
<polygon fill="azure" stroke="none" points="76,-112 18,-112 18,-65 76,-65 76,-112"/>
<text text-anchor="middle" x="47" y="-80" font-family="Times New Roman,serif" font-size="35.00">R0</text>
</a>
</g>
</g>
<!-- R0&#45;&gt;R367 -->
<g id="edge3" class="edge">
<title>R0&#45;&gt;R367</title>
<path fill="none" stroke="black" stroke-width="6" d="M75.94,-88.95C154.99,-89.9 387.3,-90.48 593.36,-67.63"/>
<polygon fill="black" stroke="black" stroke-width="6" points="589.51,-77.95 608.17,-65.23 587.1,-57.09 589.51,-77.95"/>
<text text-anchor="middle" x="354" y="-97.5" font-family="Times New Roman,serif" font-size="30.00"> &#160;&#160;844 &#160;&#160;100% &#160;&#160;2.88e&#45;07 mol/s &#160;&#160;&#160;7.54E&#45;01</text>
</g>
<!-- R337 -->
<g id="node5" class="node">
<title>R337</title>
<g id="a_node5"><a xlink:href="337.svg" xlink:title="R337">
<polygon fill="azure" stroke="none" points="94,-47 0,-47 0,0 94,0 94,-47"/>
<text text-anchor="middle" x="47" y="-15" font-family="Times New Roman,serif" font-size="35.00">R337</text>
</a>
</g>
</g>
<!-- R337&#45;&gt;R367 -->
<g id="edge4" class="edge">
<title>R337&#45;&gt;R367</title>
<path fill="none" stroke="black" stroke-width="6" d="M93.72,-18.81C186.33,-10.46 402.77,3.17 593.7,-31.8"/>
<polygon fill="black" stroke="black" stroke-width="6" points="586.53,-41.27 608.16,-34.76 590.52,-20.66 586.53,-41.27"/>
<text text-anchor="middle" x="354" y="-42.5" font-family="Times New Roman,serif" font-size="30.00"> &#160;&#160;844 &#160;&#160;100% &#160;&#160;2.88e&#45;07 mol/s &#160;&#160;&#160;7.54E&#45;01</text>
</g>
</g>
</svg>
