<?xml version="1.0" encoding="UTF-8" standalone="no"?>
<!DOCTYPE svg PUBLIC "-//W3C//DTD SVG 1.1//EN"
 "http://www.w3.org/Graphics/SVG/1.1/DTD/svg11.dtd">
<!-- Generated by graphviz version 8.0.3 (20230416.2022)
 -->
<!-- Title: G Pages: 1 -->
<svg width="640pt" height="294pt"
 viewBox="0.00 0.00 720.00 331.02" xmlns="http://www.w3.org/2000/svg" xmlns:xlink="http://www.w3.org/1999/xlink">
<g id="graph0" class="graph" transform="scale(0.867209 0.867209) rotate(0) translate(4 335.29)">
<title>G</title>
<polygon fill="white" stroke="none" points="-4,4 -4,-335.29 734,-335.29 734,4 -4,4"/>
<text text-anchor="middle" x="365" y="-298.49" font-family="Arial" font-size="36.00" fill="blue">Reaction Path Analysis</text>
<!-- R369 -->
<g id="node1" class="node">
<title>R369</title>
<g id="a_node1"><a xlink:href="369.svg" xlink:title="R369">
<polygon fill="azure" stroke="none" points="94,-167.79 0,-167.79 0,-120.79 94,-120.79 94,-167.79"/>
<text text-anchor="middle" x="47" y="-135.79" font-family="Times New Roman,serif" font-size="35.00">R369</text>
</a>
</g>
</g>
<!-- R92 -->
<g id="node2" class="node">
<title>R92</title>
<g id="a_node2"><a xlink:href="92.svg" xlink:title="R92">
<polygon fill="azure" stroke="none" points="721,-265.79 645,-265.79 645,-218.79 721,-218.79 721,-265.79"/>
<text text-anchor="middle" x="683" y="-233.79" font-family="Times New Roman,serif" font-size="35.00">R92</text>
</a>
</g>
</g>
<!-- R369&#45;&gt;R92 -->
<g id="edge1" class="edge">
<title>R369&#45;&gt;R92</title>
<path fill="none" stroke="black" stroke-width="5" d="M59.12,-167.57C68.37,-184.06 83.21,-205.01 103,-215.29 192.49,-261.79 496.78,-252.03 624.66,-245.6"/>
<polygon fill="black" stroke="black" stroke-width="5" points="619.84,-254.3 639.35,-244.51 618.92,-236.82 619.84,-254.3"/>
<text text-anchor="middle" x="365" y="-259.29" font-family="Times New Roman,serif" font-size="30.00"> &#160;&#160;623 &#160;&#160;99% &#160;&#160;48200000.0 mol/s &#160;&#160;&#160;8.87E&#45;15</text>
</g>
<!-- R3 -->
<g id="node3" class="node">
<title>R3</title>
<g id="a_node3"><a xlink:href="3.svg" xlink:title="R3">
<polygon fill="azure" stroke="none" points="712,-200.79 654,-200.79 654,-153.79 712,-153.79 712,-200.79"/>
<text text-anchor="middle" x="683" y="-168.79" font-family="Times New Roman,serif" font-size="35.00">R3</text>
</a>
</g>
</g>
<!-- R369&#45;&gt;R3 -->
<g id="edge2" class="edge">
<title>R369&#45;&gt;R3</title>
<path fill="none" stroke="black" stroke-width="5" d="M93.83,-154.02C96.92,-154.51 100,-154.94 103,-155.29 298.55,-178.41 533.58,-179.04 633.38,-178.05"/>
<polygon fill="black" stroke="black" stroke-width="5" points="628.26,-186.79 648.16,-177.8 628.05,-169.29 628.26,-186.79"/>
<text text-anchor="middle" x="365" y="-187.29" font-family="Times New Roman,serif" font-size="30.00"> &#160;&#160;623 &#160;&#160;99% &#160;&#160;48200000.0 mol/s &#160;&#160;&#160;8.87E&#45;15</text>
</g>
<!-- R1 -->
<g id="node4" class="node">
<title>R1</title>
<g id="a_node4"><a xlink:href="1.svg" xlink:title="R1">
<polygon fill="azure" stroke="none" points="712,-135.79 654,-135.79 654,-88.79 712,-88.79 712,-135.79"/>
<text text-anchor="middle" x="683" y="-103.79" font-family="Times New Roman,serif" font-size="35.00">R1</text>
</a>
</g>
</g>
<!-- R369&#45;&gt;R1 -->
<g id="edge3" class="edge">
<title>R369&#45;&gt;R1</title>
<path fill="none" stroke="black" d="M93.84,-124.55C96.9,-123.67 99.98,-122.9 103,-122.29 302.86,-82.01 549.41,-99.27 643.26,-108.19"/>
<polygon fill="black" stroke="black" points="642.9,-111.77 653.19,-109.25 643.58,-104.8 642.9,-111.77"/>
<text text-anchor="middle" x="365" y="-131.29" font-family="Times New Roman,serif" font-size="30.00"> &#160;&#160;867 &#160;&#160;0% &#160;&#160;31200.0 mol/s &#160;&#160;&#160;1.37E&#45;11</text>
</g>
<!-- R326 -->
<g id="node5" class="node">
<title>R326</title>
<g id="a_node5"><a xlink:href="326.svg" xlink:title="R326">
<polygon fill="azure" stroke="none" points="730,-70.79 636,-70.79 636,-23.79 730,-23.79 730,-70.79"/>
<text text-anchor="middle" x="683" y="-38.79" font-family="Times New Roman,serif" font-size="35.00">R326</text>
</a>
</g>
</g>
<!-- R369&#45;&gt;R326 -->
<g id="edge4" class="edge">
<title>R369&#45;&gt;R326</title>
<path fill="none" stroke="black" d="M55.98,-120.84C64.26,-100.55 79.36,-72.47 103,-59.29 272.97,35.47 516.9,-6.2 625.79,-32.17"/>
<polygon fill="black" stroke="black" points="624.67,-35.74 635.22,-34.71 626.33,-28.94 624.67,-35.74"/>
<text text-anchor="middle" x="365" y="-68.29" font-family="Times New Roman,serif" font-size="30.00"> &#160;&#160;867 &#160;&#160;0% &#160;&#160;31200.0 mol/s &#160;&#160;&#160;1.37E&#45;11</text>
</g>
</g>
</svg>
