<?xml version="1.0" encoding="UTF-8" standalone="no"?>
<!DOCTYPE svg PUBLIC "-//W3C//DTD SVG 1.1//EN"
 "http://www.w3.org/Graphics/SVG/1.1/DTD/svg11.dtd">
<!-- Generated by graphviz version 8.0.3 (20230416.2022)
 -->
<!-- Title: G Pages: 1 -->
<svg width="640pt" height="170pt"
 viewBox="0.00 0.00 720.00 191.10" xmlns="http://www.w3.org/2000/svg" xmlns:xlink="http://www.w3.org/1999/xlink">
<g id="graph0" class="graph" transform="scale(0.487062 0.487062) rotate(0) translate(4 344.75)">
<title>G</title>
<polygon fill="white" stroke="none" points="-4,4 -4,-344.75 1310,-344.75 1310,4 -4,4"/>
<text text-anchor="middle" x="653" y="-307.95" font-family="Arial" font-size="36.00" fill="blue">Reaction Path Analysis</text>
<!-- R376 -->
<g id="node1" class="node">
<title>R376</title>
<g id="a_node1"><a xlink:href="376.svg" xlink:title="R376">
<polygon fill="azure" stroke="none" points="700,-173.25 606,-173.25 606,-126.25 700,-126.25 700,-173.25"/>
<text text-anchor="middle" x="653" y="-141.25" font-family="Times New Roman,serif" font-size="35.00">R376</text>
</a>
</g>
</g>
<!-- R120 -->
<g id="node2" class="node">
<title>R120</title>
<g id="a_node2"><a xlink:href="120.svg" xlink:title="R120">
<polygon fill="azure" stroke="none" points="1306,-206.25 1212,-206.25 1212,-159.25 1306,-159.25 1306,-206.25"/>
<text text-anchor="middle" x="1259" y="-174.25" font-family="Times New Roman,serif" font-size="35.00">R120</text>
</a>
</g>
</g>
<!-- R376&#45;&gt;R120 -->
<g id="edge1" class="edge">
<title>R376&#45;&gt;R120</title>
<path fill="none" stroke="black" stroke-width="6" d="M699.84,-157.73C707.87,-158.9 716.16,-159.98 724,-160.75 891.57,-177.32 1089.92,-181.45 1191.19,-182.46"/>
<polygon fill="black" stroke="black" stroke-width="6" points="1186.07,-192.96 1206.16,-182.63 1186.25,-171.96 1186.07,-192.96"/>
<text text-anchor="middle" x="956" y="-190.75" font-family="Times New Roman,serif" font-size="30.00"> &#160;&#160;637 &#160;&#160;100% &#160;&#160;3e&#45;05 mol/s &#160;&#160;&#160;1.39E&#45;02</text>
</g>
<!-- R13 -->
<g id="node3" class="node">
<title>R13</title>
<g id="a_node3"><a xlink:href="13.svg" xlink:title="R13">
<polygon fill="azure" stroke="none" points="1297,-141.25 1221,-141.25 1221,-94.25 1297,-94.25 1297,-141.25"/>
<text text-anchor="middle" x="1259" y="-109.25" font-family="Times New Roman,serif" font-size="35.00">R13</text>
</a>
</g>
</g>
<!-- R376&#45;&gt;R13 -->
<g id="edge2" class="edge">
<title>R376&#45;&gt;R13</title>
<path fill="none" stroke="black" stroke-width="6" d="M699.86,-133.3C707.82,-131.03 716.08,-129.04 724,-127.75 895.47,-99.8 1102,-107.4 1200.41,-113.49"/>
<polygon fill="black" stroke="black" stroke-width="6" points="1194.45,-124.02 1215.1,-114.85 1195.83,-103.07 1194.45,-124.02"/>
<text text-anchor="middle" x="956" y="-136.75" font-family="Times New Roman,serif" font-size="30.00"> &#160;&#160;637 &#160;&#160;100% &#160;&#160;3e&#45;05 mol/s &#160;&#160;&#160;1.39E&#45;02</text>
</g>
<!-- R278 -->
<g id="node4" class="node">
<title>R278</title>
<g id="a_node4"><a xlink:href="278.svg" xlink:title="R278">
<polygon fill="azure" stroke="none" points="94,-217.25 0,-217.25 0,-170.25 94,-170.25 94,-217.25"/>
<text text-anchor="middle" x="47" y="-185.25" font-family="Times New Roman,serif" font-size="35.00">R278</text>
</a>
</g>
</g>
<!-- R278&#45;&gt;R376 -->
<g id="edge3" class="edge">
<title>R278&#45;&gt;R376</title>
<path fill="none" stroke="black" d="M93.95,-209.96C96.99,-210.67 100.02,-211.28 103,-211.75 319.82,-246.33 396.76,-301.79 597,-211.75 611.01,-205.45 622.91,-193.62 632.01,-181.97"/>
<polygon fill="black" stroke="black" points="635.35,-184.33 638.41,-174.19 629.69,-180.2 635.35,-184.33"/>
<text text-anchor="middle" x="350" y="-268.75" font-family="Times New Roman,serif" font-size="30.00"> &#160;&#160;761 &#160;&#160;0% &#160;&#160;0.00065 mol/s &#160;&#160;&#160;9.95E&#45;01</text>
</g>
<!-- R278&#45;&gt;R376 -->
<g id="edge6" class="edge">
<title>R278&#45;&gt;R376</title>
<path fill="none" stroke="black" stroke-width="2" d="M93.95,-176.78C96.99,-176 100.02,-175.31 103,-174.75 207.81,-155.08 471.38,-163.3 595.28,-155.73"/>
<polygon fill="black" stroke="black" stroke-width="2" points="593.36,-159.17 603.11,-155 592.89,-152.18 593.36,-159.17"/>
<text text-anchor="middle" x="350" y="-183.75" font-family="Times New Roman,serif" font-size="30.00"> &#160;&#160;1042 &#160;&#160;23% &#160;&#160;0.122 mol/s &#160;&#160;&#160;5.32E&#45;03</text>
</g>
<!-- R334 -->
<g id="node5" class="node">
<title>R334</title>
<g id="a_node5"><a xlink:href="334.svg" xlink:title="R334">
<polygon fill="azure" stroke="none" points="94,-129.25 0,-129.25 0,-82.25 94,-82.25 94,-129.25"/>
<text text-anchor="middle" x="47" y="-97.25" font-family="Times New Roman,serif" font-size="35.00">R334</text>
</a>
</g>
</g>
<!-- R334&#45;&gt;R376 -->
<g id="edge4" class="edge">
<title>R334&#45;&gt;R376</title>
<path fill="none" stroke="black" d="M93.81,-104.69C207.88,-102.45 502.26,-99.2 597,-122.75 597.36,-122.84 597.72,-122.93 598.08,-123.03"/>
<polygon fill="black" stroke="black" points="596.91,-126.65 607.5,-126.37 599.04,-119.98 596.91,-126.65"/>
<text text-anchor="middle" x="350" y="-131.75" font-family="Times New Roman,serif" font-size="30.00"> &#160;&#160;1001 &#160;&#160;0% &#160;&#160;0.000653 mol/s &#160;&#160;&#160;9.98E&#45;01</text>
</g>
<!-- R334&#45;&gt;R376 -->
<g id="edge5" class="edge">
<title>R334&#45;&gt;R376</title>
<path fill="none" stroke="black" stroke-width="4" d="M73.24,-82.3C82.01,-75.62 92.33,-69.22 103,-65.75 311.79,2.14 403.85,38.65 597,-65.75 613.79,-74.83 626.28,-91.5 635.07,-107.62"/>
<polygon fill="black" stroke="black" stroke-width="4" points="627.11,-106.39 642.01,-121.45 639.76,-100.38 627.11,-106.39"/>
<text text-anchor="middle" x="350" y="-74.75" font-family="Times New Roman,serif" font-size="30.00"> &#160;&#160;1041 &#160;&#160;75% &#160;&#160;0.386 mol/s &#160;&#160;&#160;1.69E&#45;03</text>
</g>
</g>
</svg>
