<?xml version="1.0" encoding="UTF-8" standalone="no"?>
<!DOCTYPE svg PUBLIC "-//W3C//DTD SVG 1.1//EN"
 "http://www.w3.org/Graphics/SVG/1.1/DTD/svg11.dtd">
<!-- Generated by graphviz version 8.0.3 (20230416.2022)
 -->
<!-- Title: G Pages: 1 -->
<svg width="640pt" height="156pt"
 viewBox="0.00 0.00 720.00 175.24" xmlns="http://www.w3.org/2000/svg" xmlns:xlink="http://www.w3.org/1999/xlink">
<g id="graph0" class="graph" transform="scale(0.45584 0.45584) rotate(0) translate(4 337.72)">
<title>G</title>
<polygon fill="white" stroke="none" points="-4,4 -4,-337.72 1400,-337.72 1400,4 -4,4"/>
<text text-anchor="middle" x="698" y="-300.92" font-family="Arial" font-size="36.00" fill="blue">Reaction Path Analysis</text>
<!-- R378 -->
<g id="node1" class="node">
<title>R378</title>
<g id="a_node1"><a xlink:href="378.svg" xlink:title="R378">
<polygon fill="azure" stroke="none" points="745,-169.22 651,-169.22 651,-122.22 745,-122.22 745,-169.22"/>
<text text-anchor="middle" x="698" y="-137.22" font-family="Times New Roman,serif" font-size="35.00">R378</text>
</a>
</g>
</g>
<!-- R92 -->
<g id="node2" class="node">
<title>R92</title>
<g id="a_node2"><a xlink:href="92.svg" xlink:title="R92">
<polygon fill="azure" stroke="none" points="1387,-267.22 1311,-267.22 1311,-220.22 1387,-220.22 1387,-267.22"/>
<text text-anchor="middle" x="1349" y="-235.22" font-family="Times New Roman,serif" font-size="35.00">R92</text>
</a>
</g>
</g>
<!-- R378&#45;&gt;R92 -->
<g id="edge1" class="edge">
<title>R378&#45;&gt;R92</title>
<path fill="none" stroke="black" stroke-width="5" d="M710.12,-169.01C719.37,-185.5 734.21,-206.45 754,-216.72 846.15,-264.53 1160.11,-253.88 1290.5,-247.12"/>
<polygon fill="black" stroke="black" stroke-width="5" points="1285.72,-255.82 1305.21,-246 1284.77,-238.35 1285.72,-255.82"/>
<text text-anchor="middle" x="1023.5" y="-261.72" font-family="Times New Roman,serif" font-size="30.00"> &#160;&#160;639 &#160;&#160;99% &#160;&#160;193000000.0 mol/s &#160;&#160;&#160;2.22E&#45;15</text>
</g>
<!-- R14 -->
<g id="node3" class="node">
<title>R14</title>
<g id="a_node3"><a xlink:href="14.svg" xlink:title="R14">
<polygon fill="azure" stroke="none" points="1387,-202.22 1311,-202.22 1311,-155.22 1387,-155.22 1387,-202.22"/>
<text text-anchor="middle" x="1349" y="-170.22" font-family="Times New Roman,serif" font-size="35.00">R14</text>
</a>
</g>
</g>
<!-- R378&#45;&gt;R14 -->
<g id="edge2" class="edge">
<title>R378&#45;&gt;R14</title>
<path fill="none" stroke="black" stroke-width="5" d="M744.83,-155.46C747.92,-155.94 751,-156.37 754,-156.72 949.67,-179.76 1183.86,-180.67 1290.29,-179.65"/>
<polygon fill="black" stroke="black" stroke-width="5" points="1285.1,-188.39 1305,-179.41 1284.9,-170.89 1285.1,-188.39"/>
<text text-anchor="middle" x="1023.5" y="-188.72" font-family="Times New Roman,serif" font-size="30.00"> &#160;&#160;639 &#160;&#160;99% &#160;&#160;193000000.0 mol/s &#160;&#160;&#160;2.22E&#45;15</text>
</g>
<!-- R0 -->
<g id="node4" class="node">
<title>R0</title>
<g id="a_node4"><a xlink:href="0.svg" xlink:title="R0">
<polygon fill="azure" stroke="none" points="1378,-137.22 1320,-137.22 1320,-90.22 1378,-90.22 1378,-137.22"/>
<text text-anchor="middle" x="1349" y="-105.22" font-family="Times New Roman,serif" font-size="35.00">R0</text>
</a>
</g>
</g>
<!-- R378&#45;&gt;R0 -->
<g id="edge3" class="edge">
<title>R378&#45;&gt;R0</title>
<path fill="none" stroke="black" d="M744.84,-125.98C747.9,-125.1 750.98,-124.33 754,-123.72 959.74,-82.3 1213.69,-100.41 1309.23,-109.58"/>
<polygon fill="black" stroke="black" points="1308.79,-113.15 1319.08,-110.65 1309.48,-106.19 1308.79,-113.15"/>
<text text-anchor="middle" x="1023.5" y="-132.72" font-family="Times New Roman,serif" font-size="30.00"> &#160;&#160;847 &#160;&#160;0% &#160;&#160;0.0147 mol/s &#160;&#160;&#160;2.90E&#45;05</text>
</g>
<!-- R370 -->
<g id="node5" class="node">
<title>R370</title>
<g id="a_node5"><a xlink:href="370.svg" xlink:title="R370">
<polygon fill="azure" stroke="none" points="1396,-72.22 1302,-72.22 1302,-25.22 1396,-25.22 1396,-72.22"/>
<text text-anchor="middle" x="1349" y="-40.22" font-family="Times New Roman,serif" font-size="35.00">R370</text>
</a>
</g>
</g>
<!-- R378&#45;&gt;R370 -->
<g id="edge4" class="edge">
<title>R378&#45;&gt;R370</title>
<path fill="none" stroke="black" d="M706.97,-122.27C715.25,-101.98 730.35,-73.9 754,-60.72 929.05,36.82 1180.52,-6.78 1291.59,-33.47"/>
<polygon fill="black" stroke="black" points="1290.67,-37.09 1301.22,-36.07 1292.34,-30.29 1290.67,-37.09"/>
<text text-anchor="middle" x="1023.5" y="-69.72" font-family="Times New Roman,serif" font-size="30.00"> &#160;&#160;847 &#160;&#160;0% &#160;&#160;0.0147 mol/s &#160;&#160;&#160;2.90E&#45;05</text>
</g>
<!-- R351 -->
<g id="node6" class="node">
<title>R351</title>
<g id="a_node6"><a xlink:href="351.svg" xlink:title="R351">
<polygon fill="azure" stroke="none" points="94,-169.22 0,-169.22 0,-122.22 94,-122.22 94,-169.22"/>
<text text-anchor="middle" x="47" y="-137.22" font-family="Times New Roman,serif" font-size="35.00">R351</text>
</a>
</g>
</g>
<!-- R351&#45;&gt;R378 -->
<g id="edge5" class="edge">
<title>R351&#45;&gt;R378</title>
<path fill="none" stroke="black" d="M93.86,-149.86C104.26,-150.64 115.25,-151.33 125.5,-151.72 344.89,-160.2 400.11,-160.2 619.5,-151.72 626.23,-151.46 633.27,-151.08 640.26,-150.62"/>
<polygon fill="black" stroke="black" points="640.4,-154.05 650.14,-149.86 639.92,-147.07 640.4,-154.05"/>
<text text-anchor="middle" x="372.5" y="-166.72" font-family="Times New Roman,serif" font-size="30.00"> &#160;&#160;1018 &#160;&#160;1% &#160;&#160;0.000647 mol/s &#160;&#160;&#160;9.89E&#45;01</text>
</g>
<!-- R351&#45;&gt;R378 -->
<g id="edge6" class="edge">
<title>R351&#45;&gt;R378</title>
<path fill="none" stroke="black" stroke-width="5" d="M93.85,-124.07C104.05,-120.2 114.97,-116.75 125.5,-114.72 341.09,-73.2 403.91,-73.2 619.5,-114.72 623.45,-115.48 627.45,-116.44 631.45,-117.55"/>
<polygon fill="black" stroke="black" stroke-width="5" points="624.41,-125.09 646.15,-123.07 629.91,-108.48 624.41,-125.09"/>
<text text-anchor="middle" x="372.5" y="-123.72" font-family="Times New Roman,serif" font-size="30.00"> &#160;&#160;1045 &#160;&#160;98% &#160;&#160;0.0603 mol/s &#160;&#160;&#160;1.06E&#45;02</text>
</g>
</g>
</svg>
