<?xml version="1.0" encoding="UTF-8" standalone="no"?>
<!DOCTYPE svg PUBLIC "-//W3C//DTD SVG 1.1//EN"
 "http://www.w3.org/Graphics/SVG/1.1/DTD/svg11.dtd">
<!-- Generated by graphviz version 8.0.3 (20230416.2022)
 -->
<!-- Title: G Pages: 1 -->
<svg width="640pt" height="341pt"
 viewBox="0.00 0.00 720.00 383.50" xmlns="http://www.w3.org/2000/svg" xmlns:xlink="http://www.w3.org/1999/xlink">
<g id="graph0" class="graph" transform="scale(0.787208 0.787208) rotate(0) translate(4 429.04)">
<title>G</title>
<polygon fill="white" stroke="none" points="-4,4 -4,-429.04 809,-429.04 809,4 -4,4"/>
<text text-anchor="middle" x="402.5" y="-392.24" font-family="Arial" font-size="36.00" fill="blue">Reaction Path Analysis</text>
<!-- R380 -->
<g id="node1" class="node">
<title>R380</title>
<g id="a_node1"><a xlink:href="380.svg" xlink:title="R380">
<polygon fill="azure" stroke="none" points="805,-220.54 711,-220.54 711,-173.54 805,-173.54 805,-220.54"/>
<text text-anchor="middle" x="758" y="-188.54" font-family="Times New Roman,serif" font-size="35.00">R380</text>
</a>
</g>
</g>
<!-- R0 -->
<g id="node2" class="node">
<title>R0</title>
<g id="a_node2"><a xlink:href="0.svg" xlink:title="R0">
<polygon fill="azure" stroke="none" points="76,-350.54 18,-350.54 18,-303.54 76,-303.54 76,-350.54"/>
<text text-anchor="middle" x="47" y="-318.54" font-family="Times New Roman,serif" font-size="35.00">R0</text>
</a>
</g>
</g>
<!-- R0&#45;&gt;R380 -->
<g id="edge1" class="edge">
<title>R0&#45;&gt;R380</title>
<path fill="none" stroke="black" d="M75.75,-329.56C186.5,-339.07 595.96,-369 702,-302.04 727.01,-286.25 741.27,-255.09 748.97,-230.8"/>
<polygon fill="black" stroke="black" points="752.53,-232.12 751.97,-221.54 745.81,-230.15 752.53,-232.12"/>
<text text-anchor="middle" x="402.5" y="-353.04" font-family="Times New Roman,serif" font-size="30.00"> &#160;&#160;804 &#160;&#160;0% &#160;&#160;4.22e&#45;07 mol/s &#160;&#160;&#160;9.87E&#45;01</text>
</g>
<!-- R92 -->
<g id="node3" class="node">
<title>R92</title>
<g id="a_node3"><a xlink:href="92.svg" xlink:title="R92">
<polygon fill="azure" stroke="none" points="85,-285.54 9,-285.54 9,-238.54 85,-238.54 85,-285.54"/>
<text text-anchor="middle" x="47" y="-253.54" font-family="Times New Roman,serif" font-size="35.00">R92</text>
</a>
</g>
</g>
<!-- R92&#45;&gt;R380 -->
<g id="edge2" class="edge">
<title>R92&#45;&gt;R380</title>
<path fill="none" stroke="black" d="M84.86,-263.07C205.31,-266.03 586.21,-272.09 702,-234.04 707.95,-232.08 713.86,-229.29 719.48,-226.09"/>
<polygon fill="black" stroke="black" points="720.95,-228.67 727.6,-220.42 717.26,-222.73 720.95,-228.67"/>
<text text-anchor="middle" x="402.5" y="-274.04" font-family="Times New Roman,serif" font-size="30.00"> &#160;&#160;804 &#160;&#160;0% &#160;&#160;4.22e&#45;07 mol/s &#160;&#160;&#160;9.87E&#45;01</text>
</g>
<!-- R394 -->
<g id="node4" class="node">
<title>R394</title>
<g id="a_node4"><a xlink:href="394.svg" xlink:title="R394">
<polygon fill="azure" stroke="none" points="94,-220.54 0,-220.54 0,-173.54 94,-173.54 94,-220.54"/>
<text text-anchor="middle" x="47" y="-188.54" font-family="Times New Roman,serif" font-size="35.00">R394</text>
</a>
</g>
</g>
<!-- R394&#45;&gt;R380 -->
<g id="edge3" class="edge">
<title>R394&#45;&gt;R380</title>
<path fill="none" stroke="black" d="M93.97,-197.04C218.86,-197.04 564.13,-197.04 700.52,-197.04"/>
<polygon fill="black" stroke="black" points="700.13,-200.54 710.13,-197.04 700.13,-193.54 700.13,-200.54"/>
<text text-anchor="middle" x="402.5" y="-206.04" font-family="Times New Roman,serif" font-size="30.00"> &#160;&#160;1048 &#160;&#160;0% &#160;&#160;17200.0 mol/s &#160;&#160;&#160;2.49E&#45;11</text>
</g>
<!-- R397 -->
<g id="node5" class="node">
<title>R397</title>
<g id="a_node5"><a xlink:href="397.svg" xlink:title="R397">
<polygon fill="azure" stroke="none" points="94,-155.54 0,-155.54 0,-108.54 94,-108.54 94,-155.54"/>
<text text-anchor="middle" x="47" y="-123.54" font-family="Times New Roman,serif" font-size="35.00">R397</text>
</a>
</g>
</g>
<!-- R397&#45;&gt;R380 -->
<g id="edge4" class="edge">
<title>R397&#45;&gt;R380</title>
<path fill="none" stroke="black" stroke-width="5" d="M93.91,-125.69C202.8,-112.37 483.91,-88.38 702,-160.04 704.9,-160.99 707.8,-162.15 710.65,-163.45"/>
<polygon fill="black" stroke="black" stroke-width="5" points="701.89,-168.38 723.6,-170.66 710.54,-153.17 701.89,-168.38"/>
<text text-anchor="middle" x="402.5" y="-169.04" font-family="Times New Roman,serif" font-size="30.00"> &#160;&#160;1050 &#160;&#160;99% &#160;&#160;222000000000.0 mol/s &#160;&#160;&#160;1.93E&#45;18</text>
</g>
<!-- R395 -->
<g id="node6" class="node">
<title>R395</title>
<g id="a_node6"><a xlink:href="395.svg" xlink:title="R395">
<polygon fill="azure" stroke="none" points="94,-90.54 0,-90.54 0,-43.54 94,-43.54 94,-90.54"/>
<text text-anchor="middle" x="47" y="-58.54" font-family="Times New Roman,serif" font-size="35.00">R395</text>
</a>
</g>
</g>
<!-- R395&#45;&gt;R380 -->
<g id="edge5" class="edge">
<title>R395&#45;&gt;R380</title>
<path fill="none" stroke="black" d="M93.61,-52.07C207.32,-17.74 508.17,54.3 702,-73.04 732.28,-92.93 746.03,-133.7 752.18,-163.07"/>
<polygon fill="black" stroke="black" points="748.89,-163.52 754.19,-172.7 755.77,-162.22 748.89,-163.52"/>
<text text-anchor="middle" x="402.5" y="-82.04" font-family="Times New Roman,serif" font-size="30.00"> &#160;&#160;1051 &#160;&#160;0% &#160;&#160;77300000.0 mol/s &#160;&#160;&#160;5.53E&#45;15</text>
</g>
</g>
</svg>
