<?xml version="1.0" encoding="UTF-8" standalone="no"?>
<!DOCTYPE svg PUBLIC "-//W3C//DTD SVG 1.1//EN"
 "http://www.w3.org/Graphics/SVG/1.1/DTD/svg11.dtd">
<!-- Generated by graphviz version 8.0.3 (20230416.2022)
 -->
<!-- Title: G Pages: 1 -->
<svg width="640pt" height="199pt"
 viewBox="0.00 0.00 720.00 224.40" xmlns="http://www.w3.org/2000/svg" xmlns:xlink="http://www.w3.org/1999/xlink">
<g id="graph0" class="graph" transform="scale(0.479401 0.479401) rotate(0) translate(4 412.08)">
<title>G</title>
<polygon fill="white" stroke="none" points="-4,4 -4,-412.08 1331,-412.08 1331,4 -4,4"/>
<text text-anchor="middle" x="663.5" y="-375.28" font-family="Arial" font-size="36.00" fill="blue">Reaction Path Analysis</text>
<!-- R381 -->
<g id="node1" class="node">
<title>R381</title>
<g id="a_node1"><a xlink:href="381.svg" xlink:title="R381">
<polygon fill="azure" stroke="none" points="715,-206.58 621,-206.58 621,-159.58 715,-159.58 715,-206.58"/>
<text text-anchor="middle" x="668" y="-174.58" font-family="Times New Roman,serif" font-size="35.00">R381</text>
</a>
</g>
</g>
<!-- R1 -->
<g id="node5" class="node">
<title>R1</title>
<g id="a_node5"><a xlink:href="1.svg" xlink:title="R1">
<polygon fill="azure" stroke="none" points="1318,-239.58 1260,-239.58 1260,-192.58 1318,-192.58 1318,-239.58"/>
<text text-anchor="middle" x="1289" y="-207.58" font-family="Times New Roman,serif" font-size="35.00">R1</text>
</a>
</g>
</g>
<!-- R381&#45;&gt;R1 -->
<g id="edge5" class="edge">
<title>R381&#45;&gt;R1</title>
<path fill="none" stroke="black" stroke-width="6" d="M714.89,-192.37C719.14,-193.03 723.39,-193.62 727.5,-194.08 915.85,-215.37 1141.81,-217 1239.3,-216.56"/>
<polygon fill="black" stroke="black" stroke-width="6" points="1234.26,-227.06 1254.19,-216.43 1234.12,-206.06 1234.26,-227.06"/>
<text text-anchor="middle" x="978.5" y="-225.08" font-family="Times New Roman,serif" font-size="30.00"> &#160;&#160;855 &#160;&#160;100% &#160;&#160;1.23e&#45;05 mol/s &#160;&#160;&#160;3.26E&#45;02</text>
</g>
<!-- R92 -->
<g id="node6" class="node">
<title>R92</title>
<g id="a_node6"><a xlink:href="92.svg" xlink:title="R92">
<polygon fill="azure" stroke="none" points="1327,-174.58 1251,-174.58 1251,-127.58 1327,-127.58 1327,-174.58"/>
<text text-anchor="middle" x="1289" y="-142.58" font-family="Times New Roman,serif" font-size="35.00">R92</text>
</a>
</g>
</g>
<!-- R381&#45;&gt;R92 -->
<g id="edge6" class="edge">
<title>R381&#45;&gt;R92</title>
<path fill="none" stroke="black" stroke-width="6" d="M714.88,-164.17C719.1,-162.94 723.34,-161.87 727.5,-161.08 908.33,-126.53 1127.94,-137.58 1230.3,-145.7"/>
<polygon fill="black" stroke="black" stroke-width="6" points="1224.36,-156.24 1245.16,-147.45 1226.11,-135.32 1224.36,-156.24"/>
<text text-anchor="middle" x="978.5" y="-170.08" font-family="Times New Roman,serif" font-size="30.00"> &#160;&#160;855 &#160;&#160;100% &#160;&#160;1.23e&#45;05 mol/s &#160;&#160;&#160;3.26E&#45;02</text>
</g>
<!-- R0 -->
<g id="node2" class="node">
<title>R0</title>
<g id="a_node2"><a xlink:href="0.svg" xlink:title="R0">
<polygon fill="azure" stroke="none" points="76,-295.58 18,-295.58 18,-248.58 76,-248.58 76,-295.58"/>
<text text-anchor="middle" x="47" y="-263.58" font-family="Times New Roman,serif" font-size="35.00">R0</text>
</a>
</g>
</g>
<!-- R0&#45;&gt;R381 -->
<g id="edge1" class="edge">
<title>R0&#45;&gt;R381</title>
<path fill="none" stroke="black" d="M75.9,-281.06C162.34,-307.14 430.73,-374.74 612,-273.08 633.49,-261.03 647.58,-236.78 656.12,-216.49"/>
<polygon fill="black" stroke="black" points="659.71,-217.92 660.09,-207.33 653.19,-215.37 659.71,-217.92"/>
<text text-anchor="middle" x="357.5" y="-336.08" font-family="Times New Roman,serif" font-size="30.00"> &#160;&#160;805 &#160;&#160;0% &#160;&#160;2.42e&#45;07 mol/s &#160;&#160;&#160;6.98E&#45;01</text>
</g>
<!-- R0&#45;&gt;R381 -->
<g id="edge3" class="edge">
<title>R0&#45;&gt;R381</title>
<path fill="none" stroke="black" d="M75.89,-249.67C84.16,-244.22 93.54,-239.09 103,-236.08 210.85,-201.72 503.72,-250.04 612,-217.08 616.59,-215.68 621.19,-213.8 625.66,-211.64"/>
<polygon fill="black" stroke="black" points="627.02,-214.34 634.18,-206.53 623.71,-208.17 627.02,-214.34"/>
<text text-anchor="middle" x="357.5" y="-245.08" font-family="Times New Roman,serif" font-size="30.00"> &#160;&#160;806 &#160;&#160;0% &#160;&#160;4.28e&#45;07 mol/s &#160;&#160;&#160;1.00E+00</text>
</g>
<!-- R93 -->
<g id="node3" class="node">
<title>R93</title>
<g id="a_node3"><a xlink:href="93.svg" xlink:title="R93">
<polygon fill="azure" stroke="none" points="85,-211.58 9,-211.58 9,-164.58 85,-164.58 85,-211.58"/>
<text text-anchor="middle" x="47" y="-179.58" font-family="Times New Roman,serif" font-size="35.00">R93</text>
</a>
</g>
</g>
<!-- R93&#45;&gt;R381 -->
<g id="edge2" class="edge">
<title>R93&#45;&gt;R381</title>
<path fill="none" stroke="black" d="M84.96,-185.03C90.99,-184.64 97.16,-184.3 103,-184.08 288.56,-177.18 508.7,-179.95 610.36,-181.85"/>
<polygon fill="black" stroke="black" points="610.22,-185.37 620.29,-182.06 610.36,-178.37 610.22,-185.37"/>
<text text-anchor="middle" x="357.5" y="-193.08" font-family="Times New Roman,serif" font-size="30.00"> &#160;&#160;805 &#160;&#160;0% &#160;&#160;2.42e&#45;07 mol/s &#160;&#160;&#160;6.98E&#45;01</text>
</g>
<!-- R94 -->
<g id="node4" class="node">
<title>R94</title>
<g id="a_node4"><a xlink:href="94.svg" xlink:title="R94">
<polygon fill="azure" stroke="none" points="85,-146.58 9,-146.58 9,-99.58 85,-99.58 85,-146.58"/>
<text text-anchor="middle" x="47" y="-114.58" font-family="Times New Roman,serif" font-size="35.00">R94</text>
</a>
</g>
</g>
<!-- R94&#45;&gt;R381 -->
<g id="edge4" class="edge">
<title>R94&#45;&gt;R381</title>
<path fill="none" stroke="black" d="M84.67,-116.98C176.63,-103.22 423.16,-75.89 612,-142.08 619.5,-144.71 626.82,-148.75 633.55,-153.29"/>
<polygon fill="black" stroke="black" points="631.18,-156.62 641.32,-159.7 635.31,-150.97 631.18,-156.62"/>
<text text-anchor="middle" x="357.5" y="-151.08" font-family="Times New Roman,serif" font-size="30.00"> &#160;&#160;806 &#160;&#160;0% &#160;&#160;4.28e&#45;07 mol/s &#160;&#160;&#160;1.00E+00</text>
</g>
<!-- R396 -->
<g id="node7" class="node">
<title>R396</title>
<g id="a_node7"><a xlink:href="396.svg" xlink:title="R396">
<polygon fill="azure" stroke="none" points="94,-81.58 0,-81.58 0,-34.58 94,-34.58 94,-81.58"/>
<text text-anchor="middle" x="47" y="-49.58" font-family="Times New Roman,serif" font-size="35.00">R396</text>
</a>
</g>
</g>
<!-- R396&#45;&gt;R381 -->
<g id="edge7" class="edge">
<title>R396&#45;&gt;R381</title>
<path fill="none" stroke="black" stroke-width="5" d="M93.96,-43.15C196.52,-12.85 447.93,44.39 612,-62.08 638.42,-79.23 652.31,-112.49 659.51,-139.81"/>
<polygon fill="black" stroke="black" stroke-width="5" points="650.11,-136.38 662.96,-154.02 667.2,-132.61 650.11,-136.38"/>
<text text-anchor="middle" x="357.5" y="-71.08" font-family="Times New Roman,serif" font-size="30.00"> &#160;&#160;1049 &#160;&#160;99% &#160;&#160;485000.0 mol/s &#160;&#160;&#160;8.82E&#45;13</text>
</g>
</g>
</svg>
