<?xml version="1.0" encoding="UTF-8" standalone="no"?>
<!DOCTYPE svg PUBLIC "-//W3C//DTD SVG 1.1//EN"
 "http://www.w3.org/Graphics/SVG/1.1/DTD/svg11.dtd">
<!-- Generated by graphviz version 8.0.3 (20230416.2022)
 -->
<!-- Title: G Pages: 1 -->
<svg width="640pt" height="86pt"
 viewBox="0.00 0.00 720.00 96.74" xmlns="http://www.w3.org/2000/svg" xmlns:xlink="http://www.w3.org/1999/xlink">
<g id="graph0" class="graph" transform="scale(0.484481 0.484481) rotate(0) translate(4 173.5)">
<title>G</title>
<polygon fill="white" stroke="none" points="-4,4 -4,-173.5 1317,-173.5 1317,4 -4,4"/>
<text text-anchor="middle" x="656.5" y="-136.7" font-family="Arial" font-size="36.00" fill="blue">Reaction Path Analysis</text>
<!-- R388 -->
<g id="node1" class="node">
<title>R388</title>
<g id="a_node1"><a xlink:href="388.svg" xlink:title="R388">
<polygon fill="azure" stroke="none" points="708,-79 614,-79 614,-32 708,-32 708,-79"/>
<text text-anchor="middle" x="661" y="-47" font-family="Times New Roman,serif" font-size="35.00">R388</text>
</a>
</g>
</g>
<!-- R1 -->
<g id="node4" class="node">
<title>R1</title>
<g id="a_node4"><a xlink:href="1.svg" xlink:title="R1">
<polygon fill="azure" stroke="none" points="1304,-112 1246,-112 1246,-65 1304,-65 1304,-112"/>
<text text-anchor="middle" x="1275" y="-80" font-family="Times New Roman,serif" font-size="35.00">R1</text>
</a>
</g>
</g>
<!-- R388&#45;&gt;R1 -->
<g id="edge3" class="edge">
<title>R388&#45;&gt;R1</title>
<path fill="none" stroke="black" stroke-width="6" d="M707.96,-64.73C712.36,-65.42 716.75,-66.02 721,-66.5 906.43,-87.36 1128.78,-89.23 1225.31,-88.92"/>
<polygon fill="black" stroke="black" stroke-width="6" points="1220.33,-99.42 1240.27,-88.81 1220.22,-78.42 1220.33,-99.42"/>
<text text-anchor="middle" x="968" y="-97.5" font-family="Times New Roman,serif" font-size="30.00"> &#160;&#160;856 &#160;&#160;100% &#160;&#160;0.00659 mol/s &#160;&#160;&#160;6.49E&#45;05</text>
</g>
<!-- R93 -->
<g id="node5" class="node">
<title>R93</title>
<g id="a_node5"><a xlink:href="93.svg" xlink:title="R93">
<polygon fill="azure" stroke="none" points="1313,-47 1237,-47 1237,0 1313,0 1313,-47"/>
<text text-anchor="middle" x="1275" y="-15" font-family="Times New Roman,serif" font-size="35.00">R93</text>
</a>
</g>
</g>
<!-- R388&#45;&gt;R93 -->
<g id="edge4" class="edge">
<title>R388&#45;&gt;R93</title>
<path fill="none" stroke="black" stroke-width="6" d="M707.95,-36.68C712.31,-35.41 716.7,-34.32 721,-33.5 899.01,0.27 1115.04,-10.31 1216.34,-18.21"/>
<polygon fill="black" stroke="black" stroke-width="6" points="1210.21,-28.73 1231,-19.91 1211.93,-7.8 1210.21,-28.73"/>
<text text-anchor="middle" x="968" y="-42.5" font-family="Times New Roman,serif" font-size="30.00"> &#160;&#160;856 &#160;&#160;100% &#160;&#160;0.00659 mol/s &#160;&#160;&#160;6.49E&#45;05</text>
</g>
<!-- R0 -->
<g id="node2" class="node">
<title>R0</title>
<g id="a_node2"><a xlink:href="0.svg" xlink:title="R0">
<polygon fill="azure" stroke="none" points="76,-112 18,-112 18,-65 76,-65 76,-112"/>
<text text-anchor="middle" x="47" y="-80" font-family="Times New Roman,serif" font-size="35.00">R0</text>
</a>
</g>
</g>
<!-- R0&#45;&gt;R388 -->
<g id="edge1" class="edge">
<title>R0&#45;&gt;R388</title>
<path fill="none" stroke="black" stroke-width="6" d="M75.94,-88.95C154.99,-89.9 387.3,-90.48 593.36,-67.63"/>
<polygon fill="black" stroke="black" stroke-width="6" points="589.51,-77.95 608.17,-65.23 587.1,-57.09 589.51,-77.95"/>
<text text-anchor="middle" x="354" y="-97.5" font-family="Times New Roman,serif" font-size="30.00"> &#160;&#160;819 &#160;&#160;100% &#160;&#160;4.24e&#45;07 mol/s &#160;&#160;&#160;9.93E&#45;01</text>
</g>
<!-- R122 -->
<g id="node3" class="node">
<title>R122</title>
<g id="a_node3"><a xlink:href="122.svg" xlink:title="R122">
<polygon fill="azure" stroke="none" points="94,-47 0,-47 0,0 94,0 94,-47"/>
<text text-anchor="middle" x="47" y="-15" font-family="Times New Roman,serif" font-size="35.00">R122</text>
</a>
</g>
</g>
<!-- R122&#45;&gt;R388 -->
<g id="edge2" class="edge">
<title>R122&#45;&gt;R388</title>
<path fill="none" stroke="black" stroke-width="6" d="M93.72,-18.81C186.33,-10.46 402.77,3.17 593.7,-31.8"/>
<polygon fill="black" stroke="black" stroke-width="6" points="586.53,-41.27 608.16,-34.76 590.52,-20.66 586.53,-41.27"/>
<text text-anchor="middle" x="354" y="-42.5" font-family="Times New Roman,serif" font-size="30.00"> &#160;&#160;819 &#160;&#160;100% &#160;&#160;4.24e&#45;07 mol/s &#160;&#160;&#160;9.93E&#45;01</text>
</g>
</g>
</svg>
