<?xml version="1.0" encoding="UTF-8" standalone="no"?>
<!DOCTYPE svg PUBLIC "-//W3C//DTD SVG 1.1//EN"
 "http://www.w3.org/Graphics/SVG/1.1/DTD/svg11.dtd">
<!-- Generated by graphviz version 8.0.3 (20230416.2022)
 -->
<!-- Title: G Pages: 1 -->
<svg width="640pt" height="236pt"
 viewBox="0.00 0.00 720.00 265.09" xmlns="http://www.w3.org/2000/svg" xmlns:xlink="http://www.w3.org/1999/xlink">
<g id="graph0" class="graph" transform="scale(0.481203 0.481203) rotate(0) translate(4 485.67)">
<title>G</title>
<polygon fill="white" stroke="none" points="-4,4 -4,-485.67 1326,-485.67 1326,4 -4,4"/>
<text text-anchor="middle" x="661" y="-448.87" font-family="Arial" font-size="36.00" fill="blue">Reaction Path Analysis</text>
<!-- R389 -->
<g id="node1" class="node">
<title>R389</title>
<g id="a_node1"><a xlink:href="389.svg" xlink:title="R389">
<polygon fill="azure" stroke="none" points="708,-246.17 614,-246.17 614,-199.17 708,-199.17 708,-246.17"/>
<text text-anchor="middle" x="661" y="-214.17" font-family="Times New Roman,serif" font-size="35.00">R389</text>
</a>
</g>
</g>
<!-- R0 -->
<g id="node2" class="node">
<title>R0</title>
<g id="a_node2"><a xlink:href="0.svg" xlink:title="R0">
<polygon fill="azure" stroke="none" points="1304,-395.17 1246,-395.17 1246,-348.17 1304,-348.17 1304,-395.17"/>
<text text-anchor="middle" x="1275" y="-363.17" font-family="Times New Roman,serif" font-size="35.00">R0</text>
</a>
</g>
</g>
<!-- R389&#45;&gt;R0 -->
<g id="edge1" class="edge">
<title>R389&#45;&gt;R0</title>
<path fill="none" stroke="black" d="M663.06,-245.99C665.99,-279.62 676.87,-340.75 717,-368.67 800.55,-426.81 1123.36,-391.36 1235.42,-376.93"/>
<polygon fill="black" stroke="black" points="1235.74,-380.28 1245.2,-375.52 1234.83,-373.34 1235.74,-380.28"/>
<text text-anchor="middle" x="968" y="-409.67" font-family="Times New Roman,serif" font-size="30.00"> &#160;&#160;821 &#160;&#160;0% &#160;&#160;9.75e&#45;06 mol/s &#160;&#160;&#160;4.03E&#45;02</text>
</g>
<!-- R134 -->
<g id="node3" class="node">
<title>R134</title>
<g id="a_node3"><a xlink:href="134.svg" xlink:title="R134">
<polygon fill="azure" stroke="none" points="1322,-311.17 1228,-311.17 1228,-264.17 1322,-264.17 1322,-311.17"/>
<text text-anchor="middle" x="1275" y="-279.17" font-family="Times New Roman,serif" font-size="35.00">R134</text>
</a>
</g>
</g>
<!-- R389&#45;&gt;R134 -->
<g id="edge2" class="edge">
<title>R389&#45;&gt;R134</title>
<path fill="none" stroke="black" d="M693.84,-246.07C701.12,-250.34 709.06,-254.22 717,-256.67 820.67,-288.71 1091.88,-270.19 1217.52,-279.75"/>
<polygon fill="black" stroke="black" points="1216.86,-283.29 1227.12,-280.65 1217.46,-276.31 1216.86,-283.29"/>
<text text-anchor="middle" x="968" y="-288.67" font-family="Times New Roman,serif" font-size="30.00"> &#160;&#160;821 &#160;&#160;0% &#160;&#160;9.75e&#45;06 mol/s &#160;&#160;&#160;4.03E&#45;02</text>
</g>
<!-- R1 -->
<g id="node5" class="node">
<title>R1</title>
<g id="a_node5"><a xlink:href="1.svg" xlink:title="R1">
<polygon fill="azure" stroke="none" points="1304,-246.17 1246,-246.17 1246,-199.17 1304,-199.17 1304,-246.17"/>
<text text-anchor="middle" x="1275" y="-214.17" font-family="Times New Roman,serif" font-size="35.00">R1</text>
</a>
</g>
</g>
<!-- R389&#45;&gt;R1 -->
<g id="edge5" class="edge">
<title>R389&#45;&gt;R1</title>
<path fill="none" stroke="black" stroke-width="5" d="M708,-222.67C820.73,-222.67 1109.94,-222.67 1225.36,-222.67"/>
<polygon fill="black" stroke="black" stroke-width="5" points="1220.33,-231.42 1240.33,-222.67 1220.33,-213.92 1220.33,-231.42"/>
<text text-anchor="middle" x="968" y="-231.67" font-family="Times New Roman,serif" font-size="30.00"> &#160;&#160;859 &#160;&#160;99% &#160;&#160;0.0143 mol/s &#160;&#160;&#160;3.00E&#45;05</text>
</g>
<!-- R96 -->
<g id="node6" class="node">
<title>R96</title>
<g id="a_node6"><a xlink:href="96.svg" xlink:title="R96">
<polygon fill="azure" stroke="none" points="1313,-181.17 1237,-181.17 1237,-134.17 1313,-134.17 1313,-181.17"/>
<text text-anchor="middle" x="1275" y="-149.17" font-family="Times New Roman,serif" font-size="35.00">R96</text>
</a>
</g>
</g>
<!-- R389&#45;&gt;R96 -->
<g id="edge6" class="edge">
<title>R389&#45;&gt;R96</title>
<path fill="none" stroke="black" stroke-width="5" d="M690.41,-199.33C698.54,-193.88 707.72,-188.76 717,-185.67 891.39,-127.65 1113.41,-140.28 1216.54,-150.69"/>
<polygon fill="black" stroke="black" stroke-width="5" points="1210.43,-159.47 1231.26,-152.91 1212.3,-142.07 1210.43,-159.47"/>
<text text-anchor="middle" x="968" y="-194.67" font-family="Times New Roman,serif" font-size="30.00"> &#160;&#160;859 &#160;&#160;99% &#160;&#160;0.0143 mol/s &#160;&#160;&#160;3.00E&#45;05</text>
</g>
<!-- R2 -->
<g id="node7" class="node">
<title>R2</title>
<g id="a_node7"><a xlink:href="2.svg" xlink:title="R2">
<polygon fill="azure" stroke="none" points="1304,-116.17 1246,-116.17 1246,-69.17 1304,-69.17 1304,-116.17"/>
<text text-anchor="middle" x="1275" y="-84.17" font-family="Times New Roman,serif" font-size="35.00">R2</text>
</a>
</g>
</g>
<!-- R389&#45;&gt;R2 -->
<g id="edge7" class="edge">
<title>R389&#45;&gt;R2</title>
<path fill="none" stroke="black" d="M665.53,-199.47C671.1,-171.79 684.84,-126.62 717,-105.67 802.31,-50.1 1123.98,-77.14 1235.58,-88.5"/>
<polygon fill="black" stroke="black" points="1235.01,-92.06 1245.32,-89.61 1235.73,-85.1 1235.01,-92.06"/>
<text text-anchor="middle" x="968" y="-114.67" font-family="Times New Roman,serif" font-size="30.00"> &#160;&#160;875 &#160;&#160;0% &#160;&#160;8.87e&#45;07 mol/s &#160;&#160;&#160;2.46E&#45;01</text>
</g>
<!-- R94 -->
<g id="node8" class="node">
<title>R94</title>
<g id="a_node8"><a xlink:href="94.svg" xlink:title="R94">
<polygon fill="azure" stroke="none" points="1313,-51.17 1237,-51.17 1237,-4.17 1313,-4.17 1313,-51.17"/>
<text text-anchor="middle" x="1275" y="-19.17" font-family="Times New Roman,serif" font-size="35.00">R94</text>
</a>
</g>
</g>
<!-- R389&#45;&gt;R94 -->
<g id="edge8" class="edge">
<title>R389&#45;&gt;R94</title>
<path fill="none" stroke="black" d="M665.4,-199.28C672.57,-153.68 690.72,-55.63 717,-35.67 796.07,24.38 1106.66,-6.76 1226.48,-21.43"/>
<polygon fill="black" stroke="black" points="1225.78,-25 1236.14,-22.76 1226.64,-18.05 1225.78,-25"/>
<text text-anchor="middle" x="968" y="-44.67" font-family="Times New Roman,serif" font-size="30.00"> &#160;&#160;875 &#160;&#160;0% &#160;&#160;8.87e&#45;07 mol/s &#160;&#160;&#160;2.46E&#45;01</text>
</g>
<!-- R0&#45;&gt;R389 -->
<g id="edge3" class="edge">
<title>R0&#45;&gt;R389</title>
<path fill="none" stroke="black" stroke-width="6" d="M1248.4,-348.25C1239.69,-341.66 1229.49,-335.3 1219,-331.67 1166.25,-313.41 765.16,-340.89 717,-312.67 698.98,-302.11 686.1,-283.09 677.35,-265.25"/>
<polygon fill="black" stroke="black" stroke-width="6" points="688.69,-265.39 671.19,-251.12 669.38,-273.64 688.69,-265.39"/>
<text text-anchor="middle" x="968" y="-340.67" font-family="Times New Roman,serif" font-size="30.00"> &#160;&#160;829 &#160;&#160;100% &#160;&#160;3.78e&#45;07 mol/s &#160;&#160;&#160;8.96E&#45;01</text>
</g>
<!-- R184 -->
<g id="node4" class="node">
<title>R184</title>
<g id="a_node4"><a xlink:href="184.svg" xlink:title="R184">
<polygon fill="azure" stroke="none" points="94,-246.17 0,-246.17 0,-199.17 94,-199.17 94,-246.17"/>
<text text-anchor="middle" x="47" y="-214.17" font-family="Times New Roman,serif" font-size="35.00">R184</text>
</a>
</g>
</g>
<!-- R184&#45;&gt;R389 -->
<g id="edge4" class="edge">
<title>R184&#45;&gt;R389</title>
<path fill="none" stroke="black" stroke-width="6" d="M94,-222.67C201.26,-222.67 468.28,-222.67 593.37,-222.67"/>
<polygon fill="black" stroke="black" stroke-width="6" points="588.3,-233.17 608.3,-222.67 588.3,-212.17 588.3,-233.17"/>
<text text-anchor="middle" x="354" y="-231.67" font-family="Times New Roman,serif" font-size="30.00"> &#160;&#160;829 &#160;&#160;100% &#160;&#160;3.78e&#45;07 mol/s &#160;&#160;&#160;8.96E&#45;01</text>
</g>
</g>
</svg>
