<?xml version="1.0" encoding="UTF-8" standalone="no"?>
<!DOCTYPE svg PUBLIC "-//W3C//DTD SVG 1.1//EN"
 "http://www.w3.org/Graphics/SVG/1.1/DTD/svg11.dtd">
<!-- Generated by graphviz version 8.0.3 (20230416.2022)
 -->
<!-- Title: G Pages: 1 -->
<svg width="640pt" height="90pt"
 viewBox="0.00 0.00 720.00 100.72" xmlns="http://www.w3.org/2000/svg" xmlns:xlink="http://www.w3.org/1999/xlink">
<g id="graph0" class="graph" transform="scale(0.501567 0.501567) rotate(0) translate(4 174.5)">
<title>G</title>
<polygon fill="white" stroke="none" points="-4,4 -4,-174.5 1272,-174.5 1272,4 -4,4"/>
<text text-anchor="middle" x="634" y="-137.7" font-family="Arial" font-size="36.00" fill="blue">Reaction Path Analysis</text>
<!-- R39 -->
<g id="node1" class="node">
<title>R39</title>
<g id="a_node1"><a xlink:href="39.svg" xlink:title="R39">
<polygon fill="azure" stroke="none" points="672,-79 596,-79 596,-32 672,-32 672,-79"/>
<text text-anchor="middle" x="634" y="-47" font-family="Times New Roman,serif" font-size="35.00">R39</text>
</a>
</g>
</g>
<!-- R10 -->
<g id="node2" class="node">
<title>R10</title>
<g id="a_node2"><a xlink:href="10.svg" xlink:title="R10">
<polygon fill="azure" stroke="none" points="1268,-112 1192,-112 1192,-65 1268,-65 1268,-112"/>
<text text-anchor="middle" x="1230" y="-80" font-family="Times New Roman,serif" font-size="35.00">R10</text>
</a>
</g>
</g>
<!-- R39&#45;&gt;R10 -->
<g id="edge1" class="edge">
<title>R39&#45;&gt;R10</title>
<path fill="none" stroke="black" stroke-width="6" d="M672,-63.92C677.51,-64.93 683.13,-65.84 688.5,-66.5 863.38,-87.89 1072.21,-89.75 1171.31,-89.21"/>
<polygon fill="black" stroke="black" stroke-width="6" points="1166.21,-99.7 1186.13,-89.05 1166.05,-78.7 1166.21,-99.7"/>
<text text-anchor="middle" x="932" y="-97.5" font-family="Times New Roman,serif" font-size="30.00"> &#160;&#160;44 &#160;&#160;100% &#160;&#160;9.75e&#45;05 mol/s &#160;&#160;&#160;4.35E&#45;03</text>
</g>
<!-- R2 -->
<g id="node3" class="node">
<title>R2</title>
<g id="a_node3"><a xlink:href="2.svg" xlink:title="R2">
<polygon fill="azure" stroke="none" points="1259,-47 1201,-47 1201,0 1259,0 1259,-47"/>
<text text-anchor="middle" x="1230" y="-15" font-family="Times New Roman,serif" font-size="35.00">R2</text>
</a>
</g>
</g>
<!-- R39&#45;&gt;R2 -->
<g id="edge2" class="edge">
<title>R39&#45;&gt;R2</title>
<path fill="none" stroke="black" stroke-width="6" d="M671.86,-38.29C677.34,-36.34 682.99,-34.64 688.5,-33.5 866.55,3.39 1084.69,-9.83 1180.25,-18.44"/>
<polygon fill="black" stroke="black" stroke-width="6" points="1174.13,-28.98 1195.04,-20.42 1176.12,-8.07 1174.13,-28.98"/>
<text text-anchor="middle" x="932" y="-42.5" font-family="Times New Roman,serif" font-size="30.00"> &#160;&#160;44 &#160;&#160;100% &#160;&#160;9.75e&#45;05 mol/s &#160;&#160;&#160;4.35E&#45;03</text>
</g>
<!-- R0 -->
<g id="node4" class="node">
<title>R0</title>
<g id="a_node4"><a xlink:href="0.svg" xlink:title="R0">
<polygon fill="azure" stroke="none" points="67,-112 9,-112 9,-65 67,-65 67,-112"/>
<text text-anchor="middle" x="38" y="-80" font-family="Times New Roman,serif" font-size="35.00">R0</text>
</a>
</g>
</g>
<!-- R0&#45;&gt;R39 -->
<g id="edge3" class="edge">
<title>R0&#45;&gt;R39</title>
<path fill="none" stroke="black" stroke-width="6" d="M66.83,-89.28C144.96,-91.09 373.31,-93.68 575.48,-67.74"/>
<polygon fill="black" stroke="black" stroke-width="6" points="571.78,-78.02 590.21,-64.96 569,-57.21 571.78,-78.02"/>
<text text-anchor="middle" x="336" y="-98.5" font-family="Times New Roman,serif" font-size="30.00"> &#160;&#160;110 &#160;&#160;100% &#160;&#160;4.27e&#45;07 mol/s &#160;&#160;&#160;9.99E&#45;01</text>
</g>
<!-- R23 -->
<g id="node5" class="node">
<title>R23</title>
<g id="a_node5"><a xlink:href="23.svg" xlink:title="R23">
<polygon fill="azure" stroke="none" points="76,-47 0,-47 0,0 76,0 76,-47"/>
<text text-anchor="middle" x="38" y="-15" font-family="Times New Roman,serif" font-size="35.00">R23</text>
</a>
</g>
</g>
<!-- R23&#45;&gt;R39 -->
<g id="edge4" class="edge">
<title>R23&#45;&gt;R39</title>
<path fill="none" stroke="black" stroke-width="6" d="M75.9,-18.86C162.11,-9.11 383.42,9.56 575.78,-31.62"/>
<polygon fill="black" stroke="black" stroke-width="6" points="568.26,-41.04 590.09,-35.22 572.9,-20.56 568.26,-41.04"/>
<text text-anchor="middle" x="336" y="-42.5" font-family="Times New Roman,serif" font-size="30.00"> &#160;&#160;110 &#160;&#160;100% &#160;&#160;4.27e&#45;07 mol/s &#160;&#160;&#160;9.99E&#45;01</text>
</g>
</g>
</svg>
