<?xml version="1.0" encoding="UTF-8" standalone="no"?>
<!DOCTYPE svg PUBLIC "-//W3C//DTD SVG 1.1//EN"
 "http://www.w3.org/Graphics/SVG/1.1/DTD/svg11.dtd">
<!-- Generated by graphviz version 8.0.3 (20230416.2022)
 -->
<!-- Title: G Pages: 1 -->
<svg width="640pt" height="176pt"
 viewBox="0.00 0.00 720.00 197.62" xmlns="http://www.w3.org/2000/svg" xmlns:xlink="http://www.w3.org/1999/xlink">
<g id="graph0" class="graph" transform="scale(0.492308 0.492308) rotate(0) translate(4 352.82)">
<title>G</title>
<polygon fill="white" stroke="none" points="-4,4 -4,-352.82 1296,-352.82 1296,4 -4,4"/>
<text text-anchor="middle" x="646" y="-316.02" font-family="Arial" font-size="36.00" fill="blue">Reaction Path Analysis</text>
<!-- R391 -->
<g id="node1" class="node">
<title>R391</title>
<g id="a_node1"><a xlink:href="391.svg" xlink:title="R391">
<polygon fill="azure" stroke="none" points="693,-166.32 599,-166.32 599,-119.32 693,-119.32 693,-166.32"/>
<text text-anchor="middle" x="646" y="-134.32" font-family="Times New Roman,serif" font-size="35.00">R391</text>
</a>
</g>
</g>
<!-- R1 -->
<g id="node5" class="node">
<title>R1</title>
<g id="a_node5"><a xlink:href="1.svg" xlink:title="R1">
<polygon fill="azure" stroke="none" points="1274,-264.32 1216,-264.32 1216,-217.32 1274,-217.32 1274,-264.32"/>
<text text-anchor="middle" x="1245" y="-232.32" font-family="Times New Roman,serif" font-size="35.00">R1</text>
</a>
</g>
</g>
<!-- R391&#45;&gt;R1 -->
<g id="edge5" class="edge">
<title>R391&#45;&gt;R1</title>
<path fill="none" stroke="black" d="M659.66,-166.12C669.85,-182.33 685.79,-202.77 706,-212.82 875.45,-297.03 1113.08,-265.63 1205.3,-248.75"/>
<polygon fill="black" stroke="black" points="1205.88,-252.01 1215.06,-246.72 1204.59,-245.13 1205.88,-252.01"/>
<text text-anchor="middle" x="945.5" y="-276.82" font-family="Times New Roman,serif" font-size="30.00"> &#160;&#160;861 &#160;&#160;0% &#160;&#160;0.000785 mol/s &#160;&#160;&#160;5.44E&#45;04</text>
</g>
<!-- R106 -->
<g id="node6" class="node">
<title>R106</title>
<g id="a_node6"><a xlink:href="106.svg" xlink:title="R106">
<polygon fill="azure" stroke="none" points="1292,-199.32 1198,-199.32 1198,-152.32 1292,-152.32 1292,-199.32"/>
<text text-anchor="middle" x="1245" y="-167.32" font-family="Times New Roman,serif" font-size="35.00">R106</text>
</a>
</g>
</g>
<!-- R391&#45;&gt;R106 -->
<g id="edge6" class="edge">
<title>R391&#45;&gt;R106</title>
<path fill="none" stroke="black" d="M692.96,-152.05C697.36,-152.73 701.76,-153.34 706,-153.82 880.64,-173.56 1088.93,-176.17 1187.26,-176.16"/>
<polygon fill="black" stroke="black" points="1187.13,-179.66 1197.13,-176.15 1187.13,-172.66 1187.13,-179.66"/>
<text text-anchor="middle" x="945.5" y="-184.82" font-family="Times New Roman,serif" font-size="30.00"> &#160;&#160;861 &#160;&#160;0% &#160;&#160;0.000785 mol/s &#160;&#160;&#160;5.44E&#45;04</text>
</g>
<!-- R13 -->
<g id="node7" class="node">
<title>R13</title>
<g id="a_node7"><a xlink:href="13.svg" xlink:title="R13">
<polygon fill="azure" stroke="none" points="1283,-134.32 1207,-134.32 1207,-87.32 1283,-87.32 1283,-134.32"/>
<text text-anchor="middle" x="1245" y="-102.32" font-family="Times New Roman,serif" font-size="35.00">R13</text>
</a>
</g>
</g>
<!-- R391&#45;&gt;R13 -->
<g id="edge7" class="edge">
<title>R391&#45;&gt;R13</title>
<path fill="none" stroke="black" stroke-width="5" d="M692.95,-124C697.31,-122.73 701.7,-121.63 706,-120.82 878.17,-88.11 1086.92,-97.97 1186.18,-105.57"/>
<polygon fill="black" stroke="black" stroke-width="5" points="1180.39,-114.37 1201.03,-107.26 1181.8,-96.92 1180.39,-114.37"/>
<text text-anchor="middle" x="945.5" y="-129.82" font-family="Times New Roman,serif" font-size="30.00"> &#160;&#160;891 &#160;&#160;99% &#160;&#160;0.0955 mol/s &#160;&#160;&#160;4.48E&#45;06</text>
</g>
<!-- R94 -->
<g id="node8" class="node">
<title>R94</title>
<g id="a_node8"><a xlink:href="94.svg" xlink:title="R94">
<polygon fill="azure" stroke="none" points="1283,-69.32 1207,-69.32 1207,-22.32 1283,-22.32 1283,-69.32"/>
<text text-anchor="middle" x="1245" y="-37.32" font-family="Times New Roman,serif" font-size="35.00">R94</text>
</a>
</g>
</g>
<!-- R391&#45;&gt;R94 -->
<g id="edge8" class="edge">
<title>R391&#45;&gt;R94</title>
<path fill="none" stroke="black" stroke-width="5" d="M656.64,-119.4C666.06,-99.87 682.45,-73.3 706,-60.82 863.06,22.45 1083.82,-9.76 1186.85,-31.8"/>
<polygon fill="black" stroke="black" stroke-width="5" points="1179.84,-39.54 1201.27,-35.37 1183.66,-22.46 1179.84,-39.54"/>
<text text-anchor="middle" x="945.5" y="-69.82" font-family="Times New Roman,serif" font-size="30.00"> &#160;&#160;891 &#160;&#160;99% &#160;&#160;0.0955 mol/s &#160;&#160;&#160;4.48E&#45;06</text>
</g>
<!-- R0 -->
<g id="node2" class="node">
<title>R0</title>
<g id="a_node2"><a xlink:href="0.svg" xlink:title="R0">
<polygon fill="azure" stroke="none" points="76,-226.32 18,-226.32 18,-179.32 76,-179.32 76,-226.32"/>
<text text-anchor="middle" x="47" y="-194.32" font-family="Times New Roman,serif" font-size="35.00">R0</text>
</a>
</g>
</g>
<!-- R0&#45;&gt;R391 -->
<g id="edge1" class="edge">
<title>R0&#45;&gt;R391</title>
<path fill="none" stroke="black" stroke-width="3" d="M75.86,-210.61C158.73,-232.21 409.13,-286.15 590,-204.82 604.01,-198.52 615.91,-186.68 625.01,-175.03"/>
<polygon fill="black" stroke="black" stroke-width="3" points="626.35,-179.39 629.41,-169.25 620.69,-175.27 626.35,-179.39"/>
<text text-anchor="middle" x="346.5" y="-256.82" font-family="Times New Roman,serif" font-size="30.00"> &#160;&#160;826 &#160;&#160;58% &#160;&#160;4.02e&#45;07 mol/s &#160;&#160;&#160;9.43E&#45;01</text>
</g>
<!-- R0&#45;&gt;R391 -->
<g id="edge3" class="edge">
<title>R0&#45;&gt;R391</title>
<path fill="none" stroke="black" stroke-width="3" d="M75.97,-181.04C84.24,-175.74 93.6,-170.75 103,-167.82 203.35,-136.46 465.99,-155.6 588.41,-148.76"/>
<polygon fill="black" stroke="black" stroke-width="3" points="585.35,-152.2 595.11,-148.07 584.9,-145.22 585.35,-152.2"/>
<text text-anchor="middle" x="346.5" y="-176.82" font-family="Times New Roman,serif" font-size="30.00"> &#160;&#160;832 &#160;&#160;41% &#160;&#160;2.9e&#45;07 mol/s &#160;&#160;&#160;7.57E&#45;01</text>
</g>
<!-- R166 -->
<g id="node3" class="node">
<title>R166</title>
<g id="a_node3"><a xlink:href="166.svg" xlink:title="R166">
<polygon fill="azure" stroke="none" points="94,-138.32 0,-138.32 0,-91.32 94,-91.32 94,-138.32"/>
<text text-anchor="middle" x="47" y="-106.32" font-family="Times New Roman,serif" font-size="35.00">R166</text>
</a>
</g>
</g>
<!-- R166&#45;&gt;R391 -->
<g id="edge2" class="edge">
<title>R166&#45;&gt;R391</title>
<path fill="none" stroke="black" stroke-width="3" d="M93.76,-108.05C188.1,-95.6 410.39,-73.93 590,-115.82 590.49,-115.93 590.98,-116.05 591.48,-116.18"/>
<polygon fill="black" stroke="black" stroke-width="3" points="587.25,-118.77 597.84,-118.42 589.34,-112.09 587.25,-118.77"/>
<text text-anchor="middle" x="346.5" y="-124.82" font-family="Times New Roman,serif" font-size="30.00"> &#160;&#160;826 &#160;&#160;58% &#160;&#160;4.02e&#45;07 mol/s &#160;&#160;&#160;9.43E&#45;01</text>
</g>
<!-- R249 -->
<g id="node4" class="node">
<title>R249</title>
<g id="a_node4"><a xlink:href="249.svg" xlink:title="R249">
<polygon fill="azure" stroke="none" points="94,-73.32 0,-73.32 0,-26.32 94,-26.32 94,-73.32"/>
<text text-anchor="middle" x="47" y="-41.32" font-family="Times New Roman,serif" font-size="35.00">R249</text>
</a>
</g>
</g>
<!-- R249&#45;&gt;R391 -->
<g id="edge4" class="edge">
<title>R249&#45;&gt;R391</title>
<path fill="none" stroke="black" stroke-width="3" d="M93.85,-36.28C192.19,-10.04 427.6,37.52 590,-53.82 611.17,-65.72 625.23,-89.47 633.83,-109.44"/>
<polygon fill="black" stroke="black" stroke-width="3" points="629.87,-107.47 636.84,-115.45 636.37,-104.87 629.87,-107.47"/>
<text text-anchor="middle" x="346.5" y="-62.82" font-family="Times New Roman,serif" font-size="30.00"> &#160;&#160;832 &#160;&#160;41% &#160;&#160;2.9e&#45;07 mol/s &#160;&#160;&#160;7.57E&#45;01</text>
</g>
</g>
</svg>
