<?xml version="1.0" encoding="UTF-8" standalone="no"?>
<!DOCTYPE svg PUBLIC "-//W3C//DTD SVG 1.1//EN"
 "http://www.w3.org/Graphics/SVG/1.1/DTD/svg11.dtd">
<!-- Generated by graphviz version 8.0.3 (20230416.2022)
 -->
<!-- Title: G Pages: 1 -->
<svg width="640pt" height="252pt"
 viewBox="0.00 0.00 720.00 283.75" xmlns="http://www.w3.org/2000/svg" xmlns:xlink="http://www.w3.org/1999/xlink">
<g id="graph0" class="graph" transform="scale(0.787208 0.787208) rotate(0) translate(4 316.4)">
<title>G</title>
<polygon fill="white" stroke="none" points="-4,4 -4,-316.4 809,-316.4 809,4 -4,4"/>
<text text-anchor="middle" x="402.5" y="-279.6" font-family="Arial" font-size="36.00" fill="blue">Reaction Path Analysis</text>
<!-- R397 -->
<g id="node1" class="node">
<title>R397</title>
<g id="a_node1"><a xlink:href="397.svg" xlink:title="R397">
<polygon fill="azure" stroke="none" points="94,-145.9 0,-145.9 0,-98.9 94,-98.9 94,-145.9"/>
<text text-anchor="middle" x="47" y="-113.9" font-family="Times New Roman,serif" font-size="35.00">R397</text>
</a>
</g>
</g>
<!-- R0 -->
<g id="node2" class="node">
<title>R0</title>
<g id="a_node2"><a xlink:href="0.svg" xlink:title="R0">
<polygon fill="azure" stroke="none" points="787,-243.9 729,-243.9 729,-196.9 787,-196.9 787,-243.9"/>
<text text-anchor="middle" x="758" y="-211.9" font-family="Times New Roman,serif" font-size="35.00">R0</text>
</a>
</g>
</g>
<!-- R397&#45;&gt;R0 -->
<g id="edge1" class="edge">
<title>R397&#45;&gt;R0</title>
<path fill="none" stroke="black" d="M59.11,-145.71C68.35,-162.21 83.19,-183.17 103,-193.4 210.96,-249.12 594.83,-230.59 718.39,-222.98"/>
<polygon fill="black" stroke="black" points="718.42,-226.42 728.18,-222.3 717.98,-219.43 718.42,-226.42"/>
<text text-anchor="middle" x="402.5" y="-240.4" font-family="Times New Roman,serif" font-size="30.00"> &#160;&#160;1047 &#160;&#160;0% &#160;&#160;0.68 mol/s &#160;&#160;&#160;6.29E&#45;07</text>
</g>
<!-- R394 -->
<g id="node3" class="node">
<title>R394</title>
<g id="a_node3"><a xlink:href="394.svg" xlink:title="R394">
<polygon fill="azure" stroke="none" points="805,-178.9 711,-178.9 711,-131.9 805,-131.9 805,-178.9"/>
<text text-anchor="middle" x="758" y="-146.9" font-family="Times New Roman,serif" font-size="35.00">R394</text>
</a>
</g>
</g>
<!-- R397&#45;&gt;R394 -->
<g id="edge2" class="edge">
<title>R397&#45;&gt;R394</title>
<path fill="none" stroke="black" d="M93.83,-132.14C96.92,-132.62 100,-133.05 103,-133.4 322.79,-158.9 586.69,-158.33 700.37,-156.6"/>
<polygon fill="black" stroke="black" points="700.28,-160.08 710.22,-156.42 700.16,-153.09 700.28,-160.08"/>
<text text-anchor="middle" x="402.5" y="-165.4" font-family="Times New Roman,serif" font-size="30.00"> &#160;&#160;1047 &#160;&#160;0% &#160;&#160;0.68 mol/s &#160;&#160;&#160;6.29E&#45;07</text>
</g>
<!-- R380 -->
<g id="node4" class="node">
<title>R380</title>
<g id="a_node4"><a xlink:href="380.svg" xlink:title="R380">
<polygon fill="azure" stroke="none" points="805,-113.9 711,-113.9 711,-66.9 805,-66.9 805,-113.9"/>
<text text-anchor="middle" x="758" y="-81.9" font-family="Times New Roman,serif" font-size="35.00">R380</text>
</a>
</g>
</g>
<!-- R397&#45;&gt;R380 -->
<g id="edge3" class="edge">
<title>R397&#45;&gt;R380</title>
<path fill="none" stroke="black" stroke-width="5" d="M93.84,-102.65C96.9,-101.77 99.97,-101 103,-100.4 314.2,-58.04 571.5,-72.97 690.61,-83.54"/>
<polygon fill="black" stroke="black" stroke-width="5" points="684.48,-92.31 705.2,-85.45 686.09,-74.89 684.48,-92.31"/>
<text text-anchor="middle" x="402.5" y="-109.4" font-family="Times New Roman,serif" font-size="30.00"> &#160;&#160;1050 &#160;&#160;99% &#160;&#160;222000000000.0 mol/s &#160;&#160;&#160;1.93E&#45;18</text>
</g>
<!-- R2 -->
<g id="node5" class="node">
<title>R2</title>
<g id="a_node5"><a xlink:href="2.svg" xlink:title="R2">
<polygon fill="azure" stroke="none" points="787,-48.9 729,-48.9 729,-1.9 787,-1.9 787,-48.9"/>
<text text-anchor="middle" x="758" y="-16.9" font-family="Times New Roman,serif" font-size="35.00">R2</text>
</a>
</g>
</g>
<!-- R397&#45;&gt;R2 -->
<g id="edge4" class="edge">
<title>R397&#45;&gt;R2</title>
<path fill="none" stroke="black" stroke-width="5" d="M55.41,-98.92C63.45,-77.85 78.51,-48.19 103,-34.4 206.11,23.69 574.89,-6.85 708.35,-20.2"/>
<polygon fill="black" stroke="black" stroke-width="5" points="702.26,-28.99 723.05,-22.32 704.05,-11.58 702.26,-28.99"/>
<text text-anchor="middle" x="402.5" y="-43.4" font-family="Times New Roman,serif" font-size="30.00"> &#160;&#160;1050 &#160;&#160;99% &#160;&#160;222000000000.0 mol/s &#160;&#160;&#160;1.93E&#45;18</text>
</g>
</g>
</svg>
