<?xml version="1.0" encoding="UTF-8" standalone="no"?>
<!DOCTYPE svg PUBLIC "-//W3C//DTD SVG 1.1//EN"
 "http://www.w3.org/Graphics/SVG/1.1/DTD/svg11.dtd">
<!-- Generated by graphviz version 8.0.3 (20230416.2022)
 -->
<!-- Title: G Pages: 1 -->
<svg width="640pt" height="90pt"
 viewBox="0.00 0.00 720.00 101.44" xmlns="http://www.w3.org/2000/svg" xmlns:xlink="http://www.w3.org/1999/xlink">
<g id="graph0" class="graph" transform="scale(0.50513 0.50513) rotate(0) translate(4 174.5)">
<title>G</title>
<polygon fill="white" stroke="none" points="-4,4 -4,-174.5 1263,-174.5 1263,4 -4,4"/>
<text text-anchor="middle" x="629.5" y="-137.7" font-family="Arial" font-size="36.00" fill="blue">Reaction Path Analysis</text>
<!-- R48 -->
<g id="node1" class="node">
<title>R48</title>
<g id="a_node1"><a xlink:href="48.svg" xlink:title="R48">
<polygon fill="azure" stroke="none" points="663,-79 587,-79 587,-32 663,-32 663,-79"/>
<text text-anchor="middle" x="625" y="-47" font-family="Times New Roman,serif" font-size="35.00">R48</text>
</a>
</g>
</g>
<!-- R1 -->
<g id="node4" class="node">
<title>R1</title>
<g id="a_node4"><a xlink:href="1.svg" xlink:title="R1">
<polygon fill="azure" stroke="none" points="1250,-112 1192,-112 1192,-65 1250,-65 1250,-112"/>
<text text-anchor="middle" x="1221" y="-80" font-family="Times New Roman,serif" font-size="35.00">R1</text>
</a>
</g>
</g>
<!-- R48&#45;&gt;R1 -->
<g id="edge3" class="edge">
<title>R48&#45;&gt;R1</title>
<path fill="none" stroke="black" stroke-width="6" d="M662.79,-64.96C665.89,-65.56 668.99,-66.08 672,-66.5 854.96,-91.8 1075.28,-91.39 1171.31,-89.71"/>
<polygon fill="black" stroke="black" stroke-width="6" points="1166.39,-100.19 1186.17,-89.28 1165.97,-79.19 1166.39,-100.19"/>
<text text-anchor="middle" x="923" y="-98.5" font-family="Times New Roman,serif" font-size="30.00"> &#160;&#160;159 &#160;&#160;100% &#160;&#160;2.88e&#45;05 mol/s &#160;&#160;&#160;1.44E&#45;02</text>
</g>
<!-- R19 -->
<g id="node5" class="node">
<title>R19</title>
<g id="a_node5"><a xlink:href="19.svg" xlink:title="R19">
<polygon fill="azure" stroke="none" points="1259,-47 1183,-47 1183,0 1259,0 1259,-47"/>
<text text-anchor="middle" x="1221" y="-15" font-family="Times New Roman,serif" font-size="35.00">R19</text>
</a>
</g>
</g>
<!-- R48&#45;&gt;R19 -->
<g id="edge4" class="edge">
<title>R48&#45;&gt;R19</title>
<path fill="none" stroke="black" stroke-width="6" d="M662.91,-36.22C665.93,-35.14 668.98,-34.21 672,-33.5 846.73,7.81 1061.6,-6.34 1162.51,-16.64"/>
<polygon fill="black" stroke="black" stroke-width="6" points="1156.1,-27.16 1177.1,-18.86 1158.34,-6.28 1156.1,-27.16"/>
<text text-anchor="middle" x="923" y="-42.5" font-family="Times New Roman,serif" font-size="30.00"> &#160;&#160;159 &#160;&#160;100% &#160;&#160;2.88e&#45;05 mol/s &#160;&#160;&#160;1.44E&#45;02</text>
</g>
<!-- R6 -->
<g id="node2" class="node">
<title>R6</title>
<g id="a_node2"><a xlink:href="6.svg" xlink:title="R6">
<polygon fill="azure" stroke="none" points="58,-112 0,-112 0,-65 58,-65 58,-112"/>
<text text-anchor="middle" x="29" y="-80" font-family="Times New Roman,serif" font-size="35.00">R6</text>
</a>
</g>
</g>
<!-- R6&#45;&gt;R48 -->
<g id="edge1" class="edge">
<title>R6&#45;&gt;R48</title>
<path fill="none" stroke="black" stroke-width="6" d="M57.98,-88.95C135.52,-89.88 360.08,-90.33 566.16,-66.43"/>
<polygon fill="black" stroke="black" stroke-width="6" points="562.4,-76.73 581,-63.92 559.89,-55.88 562.4,-76.73"/>
<text text-anchor="middle" x="327" y="-97.5" font-family="Times New Roman,serif" font-size="30.00"> &#160;&#160;54 &#160;&#160;100% &#160;&#160;3.95e&#45;07 mol/s &#160;&#160;&#160;9.29E&#45;01</text>
</g>
<!-- R3 -->
<g id="node3" class="node">
<title>R3</title>
<g id="a_node3"><a xlink:href="3.svg" xlink:title="R3">
<polygon fill="azure" stroke="none" points="58,-47 0,-47 0,0 58,0 58,-47"/>
<text text-anchor="middle" x="29" y="-15" font-family="Times New Roman,serif" font-size="35.00">R3</text>
</a>
</g>
</g>
<!-- R3&#45;&gt;R48 -->
<g id="edge2" class="edge">
<title>R3&#45;&gt;R48</title>
<path fill="none" stroke="black" stroke-width="6" d="M57.96,-20.42C135.98,-12.57 362.7,5.2 566.83,-34.16"/>
<polygon fill="black" stroke="black" stroke-width="6" points="559.45,-43.6 581.14,-37.29 563.63,-23.02 559.45,-43.6"/>
<text text-anchor="middle" x="327" y="-42.5" font-family="Times New Roman,serif" font-size="30.00"> &#160;&#160;54 &#160;&#160;100% &#160;&#160;3.95e&#45;07 mol/s &#160;&#160;&#160;9.29E&#45;01</text>
</g>
</g>
</svg>
