<?xml version="1.0" encoding="UTF-8" standalone="no"?>
<!DOCTYPE svg PUBLIC "-//W3C//DTD SVG 1.1//EN"
 "http://www.w3.org/Graphics/SVG/1.1/DTD/svg11.dtd">
<!-- Generated by graphviz version 8.0.3 (20230416.2022)
 -->
<!-- Title: G Pages: 1 -->
<svg width="557pt" height="317pt"
 viewBox="0.00 0.00 627.00 356.53" xmlns="http://www.w3.org/2000/svg" xmlns:xlink="http://www.w3.org/1999/xlink">
<g id="graph0" class="graph" transform="scale(0.888889 0.888889) rotate(0) translate(4 352.53)">
<title>G</title>
<polygon fill="white" stroke="none" points="-4,4 -4,-352.53 623,-352.53 623,4 -4,4"/>
<text text-anchor="middle" x="309.5" y="-315.73" font-family="Arial" font-size="36.00" fill="blue">Reaction Path Analysis</text>
<!-- R49 -->
<g id="node1" class="node">
<title>R49</title>
<g id="a_node1"><a xlink:href="49.svg" xlink:title="R49">
<polygon fill="azure" stroke="none" points="76,-163.03 0,-163.03 0,-116.03 76,-116.03 76,-163.03"/>
<text text-anchor="middle" x="38" y="-131.03" font-family="Times New Roman,serif" font-size="35.00">R49</text>
</a>
</g>
</g>
<!-- R7 -->
<g id="node2" class="node">
<title>R7</title>
<g id="a_node2"><a xlink:href="7.svg" xlink:title="R7">
<polygon fill="azure" stroke="none" points="610,-261.03 552,-261.03 552,-214.03 610,-214.03 610,-261.03"/>
<text text-anchor="middle" x="581" y="-229.03" font-family="Times New Roman,serif" font-size="35.00">R7</text>
</a>
</g>
</g>
<!-- R49&#45;&gt;R7 -->
<g id="edge1" class="edge">
<title>R49&#45;&gt;R7</title>
<path fill="none" stroke="black" d="M47.51,-163.01C54.78,-179.37 66.95,-200.07 85,-210.53 234.43,-297.12 453.74,-264.55 541.56,-246.43"/>
<polygon fill="black" stroke="black" points="542.04,-249.69 551.1,-244.19 540.59,-242.85 542.04,-249.69"/>
<text text-anchor="middle" x="309.5" y="-276.53" font-family="Times New Roman,serif" font-size="30.00"> &#160;&#160;55 &#160;&#160;0% &#160;&#160;0.00282 mol/s &#160;&#160;&#160;1.52E&#45;04</text>
</g>
<!-- R3 -->
<g id="node3" class="node">
<title>R3</title>
<g id="a_node3"><a xlink:href="3.svg" xlink:title="R3">
<polygon fill="azure" stroke="none" points="610,-196.03 552,-196.03 552,-149.03 610,-149.03 610,-196.03"/>
<text text-anchor="middle" x="581" y="-164.03" font-family="Times New Roman,serif" font-size="35.00">R3</text>
</a>
</g>
</g>
<!-- R49&#45;&gt;R3 -->
<g id="edge2" class="edge">
<title>R49&#45;&gt;R3</title>
<path fill="none" stroke="black" d="M75.79,-148.98C78.89,-149.58 81.99,-150.11 85,-150.53 253.79,-174.24 457.83,-174.43 541.44,-173.3"/>
<polygon fill="black" stroke="black" points="541.25,-176.79 551.19,-173.14 541.14,-169.79 541.25,-176.79"/>
<text text-anchor="middle" x="309.5" y="-182.53" font-family="Times New Roman,serif" font-size="30.00"> &#160;&#160;55 &#160;&#160;0% &#160;&#160;0.00282 mol/s &#160;&#160;&#160;1.52E&#45;04</text>
</g>
<!-- R1 -->
<g id="node4" class="node">
<title>R1</title>
<g id="a_node4"><a xlink:href="1.svg" xlink:title="R1">
<polygon fill="azure" stroke="none" points="610,-131.03 552,-131.03 552,-84.03 610,-84.03 610,-131.03"/>
<text text-anchor="middle" x="581" y="-99.03" font-family="Times New Roman,serif" font-size="35.00">R1</text>
</a>
</g>
</g>
<!-- R49&#45;&gt;R1 -->
<g id="edge3" class="edge">
<title>R49&#45;&gt;R1</title>
<path fill="none" stroke="black" stroke-width="5" d="M75.92,-120.25C78.94,-119.18 81.99,-118.25 85,-117.53 244.8,-79.58 441.84,-92.71 531.48,-101.81"/>
<polygon fill="black" stroke="black" stroke-width="5" points="525.3,-110.59 546.12,-104.03 527.17,-93.19 525.3,-110.59"/>
<text text-anchor="middle" x="309.5" y="-126.53" font-family="Times New Roman,serif" font-size="30.00"> &#160;&#160;161 &#160;&#160;99% &#160;&#160;0.313 mol/s &#160;&#160;&#160;1.37E&#45;06</text>
</g>
<!-- R20 -->
<g id="node5" class="node">
<title>R20</title>
<g id="a_node5"><a xlink:href="20.svg" xlink:title="R20">
<polygon fill="azure" stroke="none" points="619,-66.03 543,-66.03 543,-19.03 619,-19.03 619,-66.03"/>
<text text-anchor="middle" x="581" y="-34.03" font-family="Times New Roman,serif" font-size="35.00">R20</text>
</a>
</g>
</g>
<!-- R49&#45;&gt;R20 -->
<g id="edge4" class="edge">
<title>R49&#45;&gt;R20</title>
<path fill="none" stroke="black" stroke-width="5" d="M44.59,-116.23C50.79,-96.04 62.96,-68.03 85,-54.53 222.84,29.88 425.24,-3.23 523,-26.77"/>
<polygon fill="black" stroke="black" stroke-width="5" points="515.78,-34.48 537.31,-30.89 520.05,-17.51 515.78,-34.48"/>
<text text-anchor="middle" x="309.5" y="-63.53" font-family="Times New Roman,serif" font-size="30.00"> &#160;&#160;161 &#160;&#160;99% &#160;&#160;0.313 mol/s &#160;&#160;&#160;1.37E&#45;06</text>
</g>
</g>
</svg>
