<?xml version="1.0" encoding="UTF-8" standalone="no"?>
<!DOCTYPE svg PUBLIC "-//W3C//DTD SVG 1.1//EN"
 "http://www.w3.org/Graphics/SVG/1.1/DTD/svg11.dtd">
<!-- Generated by graphviz version 8.0.3 (20230416.2022)
 -->
<!-- Title: G Pages: 1 -->
<svg width="640pt" height="189pt"
 viewBox="0.00 0.00 720.00 212.59" xmlns="http://www.w3.org/2000/svg" xmlns:xlink="http://www.w3.org/1999/xlink">
<g id="graph0" class="graph" transform="scale(0.526749 0.526749) rotate(0) translate(4 354.75)">
<title>G</title>
<polygon fill="white" stroke="none" points="-4,4 -4,-354.75 1211,-354.75 1211,4 -4,4"/>
<text text-anchor="middle" x="603.5" y="-317.95" font-family="Arial" font-size="36.00" fill="blue">Reaction Path Analysis</text>
<!-- R54 -->
<g id="node1" class="node">
<title>R54</title>
<g id="a_node1"><a xlink:href="54.svg" xlink:title="R54">
<polygon fill="azure" stroke="none" points="646,-164.25 570,-164.25 570,-117.25 646,-117.25 646,-164.25"/>
<text text-anchor="middle" x="608" y="-132.25" font-family="Times New Roman,serif" font-size="35.00">R54</text>
</a>
</g>
</g>
<!-- R13 -->
<g id="node2" class="node">
<title>R13</title>
<g id="a_node2"><a xlink:href="13.svg" xlink:title="R13">
<polygon fill="azure" stroke="none" points="1207,-262.25 1131,-262.25 1131,-215.25 1207,-215.25 1207,-262.25"/>
<text text-anchor="middle" x="1169" y="-230.25" font-family="Times New Roman,serif" font-size="35.00">R13</text>
</a>
</g>
</g>
<!-- R54&#45;&gt;R13 -->
<g id="edge1" class="edge">
<title>R54&#45;&gt;R13</title>
<path fill="none" stroke="black" stroke-width="5" d="M617.82,-163.92C625.4,-180.35 638.06,-201.27 656.5,-211.75 802.37,-294.68 1011.09,-270.03 1110.77,-251.33"/>
<polygon fill="black" stroke="black" stroke-width="5" points="1107.24,-260.77 1125.16,-248.3 1103.84,-243.6 1107.24,-260.77"/>
<text text-anchor="middle" x="888.5" y="-278.75" font-family="Times New Roman,serif" font-size="30.00"> &#160;&#160;60 &#160;&#160;99% &#160;&#160;1.2 mol/s &#160;&#160;&#160;3.56E&#45;07</text>
</g>
<!-- R3 -->
<g id="node3" class="node">
<title>R3</title>
<g id="a_node3"><a xlink:href="3.svg" xlink:title="R3">
<polygon fill="azure" stroke="none" points="1198,-197.25 1140,-197.25 1140,-150.25 1198,-150.25 1198,-197.25"/>
<text text-anchor="middle" x="1169" y="-165.25" font-family="Times New Roman,serif" font-size="35.00">R3</text>
</a>
</g>
</g>
<!-- R54&#45;&gt;R3 -->
<g id="edge2" class="edge">
<title>R54&#45;&gt;R3</title>
<path fill="none" stroke="black" stroke-width="5" d="M645.96,-150.01C649.51,-150.69 653.06,-151.29 656.5,-151.75 825.2,-174.72 1027.81,-175.63 1119.14,-174.64"/>
<polygon fill="black" stroke="black" stroke-width="5" points="1114.24,-183.37 1134.12,-174.35 1114,-165.88 1114.24,-183.37"/>
<text text-anchor="middle" x="888.5" y="-183.75" font-family="Times New Roman,serif" font-size="30.00"> &#160;&#160;60 &#160;&#160;99% &#160;&#160;1.2 mol/s &#160;&#160;&#160;3.56E&#45;07</text>
</g>
<!-- R1 -->
<g id="node4" class="node">
<title>R1</title>
<g id="a_node4"><a xlink:href="1.svg" xlink:title="R1">
<polygon fill="azure" stroke="none" points="1198,-132.25 1140,-132.25 1140,-85.25 1198,-85.25 1198,-132.25"/>
<text text-anchor="middle" x="1169" y="-100.25" font-family="Times New Roman,serif" font-size="35.00">R1</text>
</a>
</g>
</g>
<!-- R54&#45;&gt;R1 -->
<g id="edge3" class="edge">
<title>R54&#45;&gt;R1</title>
<path fill="none" stroke="black" d="M645.82,-121.94C649.36,-120.67 652.96,-119.57 656.5,-118.75 828.99,-78.98 1042.92,-95.07 1129.23,-104.15"/>
<polygon fill="black" stroke="black" points="1128.74,-107.73 1139.06,-105.33 1129.5,-100.77 1128.74,-107.73"/>
<text text-anchor="middle" x="888.5" y="-127.75" font-family="Times New Roman,serif" font-size="30.00"> &#160;&#160;170 &#160;&#160;0% &#160;&#160;0.00185 mol/s &#160;&#160;&#160;2.31E&#45;04</text>
</g>
<!-- R27 -->
<g id="node5" class="node">
<title>R27</title>
<g id="a_node5"><a xlink:href="27.svg" xlink:title="R27">
<polygon fill="azure" stroke="none" points="1207,-67.25 1131,-67.25 1131,-20.25 1207,-20.25 1207,-67.25"/>
<text text-anchor="middle" x="1169" y="-35.25" font-family="Times New Roman,serif" font-size="35.00">R27</text>
</a>
</g>
</g>
<!-- R54&#45;&gt;R27 -->
<g id="edge4" class="edge">
<title>R54&#45;&gt;R27</title>
<path fill="none" stroke="black" d="M614.99,-117.42C621.54,-97.22 634.2,-69.19 656.5,-55.75 805.21,33.86 1025.03,-6.38 1120.67,-30.42"/>
<polygon fill="black" stroke="black" points="1119.61,-34.02 1130.17,-33.12 1121.35,-27.24 1119.61,-34.02"/>
<text text-anchor="middle" x="888.5" y="-64.75" font-family="Times New Roman,serif" font-size="30.00"> &#160;&#160;170 &#160;&#160;0% &#160;&#160;0.00185 mol/s &#160;&#160;&#160;2.31E&#45;04</text>
</g>
<!-- R143 -->
<g id="node6" class="node">
<title>R143</title>
<g id="a_node6"><a xlink:href="143.svg" xlink:title="R143">
<polygon fill="azure" stroke="none" points="94,-229.25 0,-229.25 0,-182.25 94,-182.25 94,-229.25"/>
<text text-anchor="middle" x="47" y="-197.25" font-family="Times New Roman,serif" font-size="35.00">R143</text>
</a>
</g>
</g>
<!-- R143&#45;&gt;R54 -->
<g id="edge5" class="edge">
<title>R143&#45;&gt;R54</title>
<path fill="none" stroke="black" stroke-width="5" d="M93.66,-211.11C183.96,-220.01 390.62,-231.92 552,-177.75 554.72,-176.84 557.43,-175.75 560.11,-174.54"/>
<polygon fill="black" stroke="black" stroke-width="5" points="560.19,-184.72 573.29,-167.25 551.57,-169.49 560.19,-184.72"/>
<text text-anchor="middle" x="327.5" y="-227.75" font-family="Times New Roman,serif" font-size="30.00"> &#160;&#160;195 &#160;&#160;99% &#160;&#160;35.3 mol/s &#160;&#160;&#160;1.21E&#45;08</text>
</g>
<!-- R201 -->
<g id="node7" class="node">
<title>R201</title>
<g id="a_node7"><a xlink:href="201.svg" xlink:title="R201">
<polygon fill="azure" stroke="none" points="94,-164.25 0,-164.25 0,-117.25 94,-117.25 94,-164.25"/>
<text text-anchor="middle" x="47" y="-132.25" font-family="Times New Roman,serif" font-size="35.00">R201</text>
</a>
</g>
</g>
<!-- R201&#45;&gt;R54 -->
<g id="edge6" class="edge">
<title>R201&#45;&gt;R54</title>
<path fill="none" stroke="black" d="M93.75,-140.75C198.13,-140.75 453.07,-140.75 559.3,-140.75"/>
<polygon fill="black" stroke="black" points="559.01,-144.25 569.01,-140.75 559.01,-137.25 559.01,-144.25"/>
<text text-anchor="middle" x="327.5" y="-149.75" font-family="Times New Roman,serif" font-size="30.00"> &#160;&#160;262 &#160;&#160;0% &#160;&#160;0.0123 mol/s &#160;&#160;&#160;3.48E&#45;05</text>
</g>
<!-- R262 -->
<g id="node8" class="node">
<title>R262</title>
<g id="a_node8"><a xlink:href="262.svg" xlink:title="R262">
<polygon fill="azure" stroke="none" points="94,-99.25 0,-99.25 0,-52.25 94,-52.25 94,-99.25"/>
<text text-anchor="middle" x="47" y="-67.25" font-family="Times New Roman,serif" font-size="35.00">R262</text>
</a>
</g>
</g>
<!-- R262&#45;&gt;R54 -->
<g id="edge7" class="edge">
<title>R262&#45;&gt;R54</title>
<path fill="none" stroke="black" d="M93.66,-70.4C183.96,-61.5 390.62,-49.58 552,-103.75 557.87,-105.72 563.7,-108.5 569.26,-111.66"/>
<polygon fill="black" stroke="black" points="566.95,-114.96 577.29,-117.26 570.63,-109.01 566.95,-114.96"/>
<text text-anchor="middle" x="327.5" y="-112.75" font-family="Times New Roman,serif" font-size="30.00"> &#160;&#160;356 &#160;&#160;0% &#160;&#160;0.285 mol/s &#160;&#160;&#160;1.50E&#45;06</text>
</g>
</g>
</svg>
