<?xml version="1.0" encoding="UTF-8" standalone="no"?>
<!DOCTYPE svg PUBLIC "-//W3C//DTD SVG 1.1//EN"
 "http://www.w3.org/Graphics/SVG/1.1/DTD/svg11.dtd">
<!-- Generated by graphviz version 8.0.3 (20230416.2022)
 -->
<!-- Title: G Pages: 1 -->
<svg width="640pt" height="243pt"
 viewBox="0.00 0.00 720.00 273.78" xmlns="http://www.w3.org/2000/svg" xmlns:xlink="http://www.w3.org/1999/xlink">
<g id="graph0" class="graph" transform="scale(0.501961 0.501961) rotate(0) translate(4 480.82)">
<title>G</title>
<polygon fill="white" stroke="none" points="-4,4 -4,-480.82 1271,-480.82 1271,4 -4,4"/>
<text text-anchor="middle" x="633.5" y="-444.02" font-family="Arial" font-size="36.00" fill="blue">Reaction Path Analysis</text>
<!-- R56 -->
<g id="node1" class="node">
<title>R56</title>
<g id="a_node1"><a xlink:href="56.svg" xlink:title="R56">
<polygon fill="azure" stroke="none" points="676,-223.32 600,-223.32 600,-176.32 676,-176.32 676,-223.32"/>
<text text-anchor="middle" x="638" y="-191.32" font-family="Times New Roman,serif" font-size="35.00">R56</text>
</a>
</g>
</g>
<!-- R3 -->
<g id="node2" class="node">
<title>R3</title>
<g id="a_node2"><a xlink:href="3.svg" xlink:title="R3">
<polygon fill="azure" stroke="none" points="1258,-288.32 1200,-288.32 1200,-241.32 1258,-241.32 1258,-288.32"/>
<text text-anchor="middle" x="1229" y="-256.32" font-family="Times New Roman,serif" font-size="35.00">R3</text>
</a>
</g>
</g>
<!-- R56&#45;&gt;R3 -->
<g id="edge1" class="edge">
<title>R56&#45;&gt;R3</title>
<path fill="none" stroke="black" stroke-width="5" d="M669.41,-223.14C678.05,-228.6 687.77,-233.72 697.5,-236.82 867.76,-291.05 1084.17,-279.23 1179.35,-270.28"/>
<polygon fill="black" stroke="black" stroke-width="5" points="1175.05,-278.9 1194.07,-268.19 1173.3,-261.49 1175.05,-278.9"/>
<text text-anchor="middle" x="933.5" y="-286.82" font-family="Times New Roman,serif" font-size="30.00"> &#160;&#160;62 &#160;&#160;98% &#160;&#160;2.1e&#45;05 mol/s &#160;&#160;&#160;1.96E&#45;02</text>
</g>
<!-- R14 -->
<g id="node3" class="node">
<title>R14</title>
<g id="a_node3"><a xlink:href="14.svg" xlink:title="R14">
<polygon fill="azure" stroke="none" points="1267,-223.32 1191,-223.32 1191,-176.32 1267,-176.32 1267,-223.32"/>
<text text-anchor="middle" x="1229" y="-191.32" font-family="Times New Roman,serif" font-size="35.00">R14</text>
</a>
</g>
</g>
<!-- R56&#45;&gt;R14 -->
<g id="edge2" class="edge">
<title>R56&#45;&gt;R14</title>
<path fill="none" stroke="black" stroke-width="5" d="M675.84,-199.82C775.32,-199.82 1049.92,-199.82 1170.24,-199.82"/>
<polygon fill="black" stroke="black" stroke-width="5" points="1165.17,-208.57 1185.17,-199.82 1165.17,-191.07 1165.17,-208.57"/>
<text text-anchor="middle" x="933.5" y="-208.82" font-family="Times New Roman,serif" font-size="30.00"> &#160;&#160;62 &#160;&#160;98% &#160;&#160;2.1e&#45;05 mol/s &#160;&#160;&#160;1.96E&#45;02</text>
</g>
<!-- R98 -->
<g id="node8" class="node">
<title>R98</title>
<g id="a_node8"><a xlink:href="98.svg" xlink:title="R98">
<polygon fill="azure" stroke="none" points="1267,-158.32 1191,-158.32 1191,-111.32 1267,-111.32 1267,-158.32"/>
<text text-anchor="middle" x="1229" y="-126.32" font-family="Times New Roman,serif" font-size="35.00">R98</text>
</a>
</g>
</g>
<!-- R56&#45;&gt;R98 -->
<g id="edge7" class="edge">
<title>R56&#45;&gt;R98</title>
<path fill="none" stroke="black" d="M669.41,-176.5C678.05,-171.04 687.77,-165.92 697.5,-162.82 868.29,-108.42 1085.52,-120.48 1180.23,-129.45"/>
<polygon fill="black" stroke="black" points="1179.87,-133.03 1190.17,-130.52 1180.56,-126.06 1179.87,-133.03"/>
<text text-anchor="middle" x="933.5" y="-171.82" font-family="Times New Roman,serif" font-size="30.00"> &#160;&#160;798 &#160;&#160;1% &#160;&#160;2.83e&#45;07 mol/s &#160;&#160;&#160;7.47E&#45;01</text>
</g>
<!-- R0 -->
<g id="node4" class="node">
<title>R0</title>
<g id="a_node4"><a xlink:href="0.svg" xlink:title="R0">
<polygon fill="azure" stroke="none" points="76,-376.32 18,-376.32 18,-329.32 76,-329.32 76,-376.32"/>
<text text-anchor="middle" x="47" y="-344.32" font-family="Times New Roman,serif" font-size="35.00">R0</text>
</a>
</g>
</g>
<!-- R0&#45;&gt;R56 -->
<g id="edge3" class="edge">
<title>R0&#45;&gt;R56</title>
<path fill="none" stroke="black" d="M75.87,-360.96C160.83,-383.95 420.52,-440.8 582,-328.82 613.18,-307.2 626.78,-264.09 632.65,-233.67"/>
<polygon fill="black" stroke="black" points="636.22,-234.55 634.48,-224.1 629.33,-233.36 636.22,-234.55"/>
<text text-anchor="middle" x="342.5" y="-404.82" font-family="Times New Roman,serif" font-size="30.00"> &#160;&#160;123 &#160;&#160;0% &#160;&#160;3.64e&#45;07 mol/s &#160;&#160;&#160;8.70E&#45;01</text>
</g>
<!-- R53 -->
<g id="node5" class="node">
<title>R53</title>
<g id="a_node5"><a xlink:href="53.svg" xlink:title="R53">
<polygon fill="azure" stroke="none" points="85,-311.32 9,-311.32 9,-264.32 85,-264.32 85,-311.32"/>
<text text-anchor="middle" x="47" y="-279.32" font-family="Times New Roman,serif" font-size="35.00">R53</text>
</a>
</g>
</g>
<!-- R53&#45;&gt;R56 -->
<g id="edge4" class="edge">
<title>R53&#45;&gt;R56</title>
<path fill="none" stroke="black" d="M84.97,-289.35C190.93,-293.17 493.69,-300.11 582,-258.82 595.01,-252.74 606.43,-242.06 615.44,-231.44"/>
<polygon fill="black" stroke="black" points="618.64,-234.03 622.13,-224.03 613.16,-229.67 618.64,-234.03"/>
<text text-anchor="middle" x="342.5" y="-300.82" font-family="Times New Roman,serif" font-size="30.00"> &#160;&#160;123 &#160;&#160;0% &#160;&#160;3.64e&#45;07 mol/s &#160;&#160;&#160;8.70E&#45;01</text>
</g>
<!-- R147 -->
<g id="node6" class="node">
<title>R147</title>
<g id="a_node6"><a xlink:href="147.svg" xlink:title="R147">
<polygon fill="azure" stroke="none" points="94,-246.32 0,-246.32 0,-199.32 94,-199.32 94,-246.32"/>
<text text-anchor="middle" x="47" y="-214.32" font-family="Times New Roman,serif" font-size="35.00">R147</text>
</a>
</g>
</g>
<!-- R147&#45;&gt;R56 -->
<g id="edge5" class="edge">
<title>R147&#45;&gt;R56</title>
<path fill="none" stroke="black" stroke-width="5" d="M93.78,-222.55C182.98,-221.76 386.79,-218.74 579.36,-205.69"/>
<polygon fill="black" stroke="black" stroke-width="5" points="574.71,-214.37 594.05,-204.25 573.49,-196.91 574.71,-214.37"/>
<text text-anchor="middle" x="342.5" y="-230.82" font-family="Times New Roman,serif" font-size="30.00"> &#160;&#160;199 &#160;&#160;99% &#160;&#160;116.0 mol/s &#160;&#160;&#160;3.70E&#45;09</text>
</g>
<!-- R132 -->
<g id="node7" class="node">
<title>R132</title>
<g id="a_node7"><a xlink:href="132.svg" xlink:title="R132">
<polygon fill="azure" stroke="none" points="94,-167.32 0,-167.32 0,-120.32 94,-120.32 94,-167.32"/>
<text text-anchor="middle" x="47" y="-135.32" font-family="Times New Roman,serif" font-size="35.00">R132</text>
</a>
</g>
</g>
<!-- R132&#45;&gt;R56 -->
<g id="edge6" class="edge">
<title>R132&#45;&gt;R56</title>
<path fill="none" stroke="black" d="M93.89,-149.07C96.97,-149.35 100.03,-149.6 103,-149.82 209.24,-157.71 479.52,-139.75 582,-168.82 585.12,-169.71 588.24,-170.8 591.34,-172.04"/>
<polygon fill="black" stroke="black" points="589.52,-175.51 600.08,-176.44 592.41,-169.13 589.52,-175.51"/>
<text text-anchor="middle" x="342.5" y="-177.82" font-family="Times New Roman,serif" font-size="30.00"> &#160;&#160;660 &#160;&#160;0% &#160;&#160;0.000638 mol/s &#160;&#160;&#160;9.76E&#45;01</text>
</g>
<!-- R132&#45;&gt;R56 -->
<g id="edge9" class="edge">
<title>R132&#45;&gt;R56</title>
<path fill="none" stroke="black" d="M83.56,-120.37C89.81,-117.25 96.43,-114.55 103,-112.82 154.48,-99.31 535.38,-87.14 582,-112.82 602.7,-124.22 616.69,-147.06 625.38,-166.47"/>
<polygon fill="black" stroke="black" points="622.48,-167.63 629.56,-175.52 628.95,-164.95 622.48,-167.63"/>
<text text-anchor="middle" x="342.5" y="-121.82" font-family="Times New Roman,serif" font-size="30.00"> &#160;&#160;903 &#160;&#160;0% &#160;&#160;0.0261 mol/s &#160;&#160;&#160;2.38E&#45;02</text>
</g>
<!-- R220 -->
<g id="node9" class="node">
<title>R220</title>
<g id="a_node9"><a xlink:href="220.svg" xlink:title="R220">
<polygon fill="azure" stroke="none" points="94,-83.32 0,-83.32 0,-36.32 94,-36.32 94,-83.32"/>
<text text-anchor="middle" x="47" y="-51.32" font-family="Times New Roman,serif" font-size="35.00">R220</text>
</a>
</g>
</g>
<!-- R220&#45;&gt;R56 -->
<g id="edge8" class="edge">
<title>R220&#45;&gt;R56</title>
<path fill="none" stroke="black" d="M93.7,-44.14C192.63,-13.26 429.93,43.82 582,-59.82 616.7,-83.47 629.51,-132.66 634.24,-165.96"/>
<polygon fill="black" stroke="black" points="630.85,-166.09 635.55,-175.59 637.8,-165.23 630.85,-166.09"/>
<text text-anchor="middle" x="342.5" y="-68.82" font-family="Times New Roman,serif" font-size="30.00"> &#160;&#160;851 &#160;&#160;0% &#160;&#160;3.44e&#45;05 mol/s &#160;&#160;&#160;1.21E&#45;02</text>
</g>
</g>
</svg>
