<?xml version="1.0" encoding="UTF-8" standalone="no"?>
<!DOCTYPE svg PUBLIC "-//W3C//DTD SVG 1.1//EN"
 "http://www.w3.org/Graphics/SVG/1.1/DTD/svg11.dtd">
<!-- Generated by graphviz version 8.0.3 (20230416.2022)
 -->
<!-- Title: G Pages: 1 -->
<svg width="640pt" height="92pt"
 viewBox="0.00 0.00 720.00 103.90" xmlns="http://www.w3.org/2000/svg" xmlns:xlink="http://www.w3.org/1999/xlink">
<g id="graph0" class="graph" transform="scale(0.517381 0.517381) rotate(0) translate(4 174.5)">
<title>G</title>
<polygon fill="white" stroke="none" points="-4,4 -4,-174.5 1233,-174.5 1233,4 -4,4"/>
<text text-anchor="middle" x="614.5" y="-137.7" font-family="Arial" font-size="36.00" fill="blue">Reaction Path Analysis</text>
<!-- R58 -->
<g id="node1" class="node">
<title>R58</title>
<g id="a_node1"><a xlink:href="58.svg" xlink:title="R58">
<polygon fill="azure" stroke="none" points="648,-79 572,-79 572,-32 648,-32 648,-79"/>
<text text-anchor="middle" x="610" y="-47" font-family="Times New Roman,serif" font-size="35.00">R58</text>
</a>
</g>
</g>
<!-- R2 -->
<g id="node4" class="node">
<title>R2</title>
<g id="a_node4"><a xlink:href="2.svg" xlink:title="R2">
<polygon fill="azure" stroke="none" points="1220,-112 1162,-112 1162,-65 1220,-65 1220,-112"/>
<text text-anchor="middle" x="1191" y="-80" font-family="Times New Roman,serif" font-size="35.00">R2</text>
</a>
</g>
</g>
<!-- R58&#45;&gt;R2 -->
<g id="edge3" class="edge">
<title>R58&#45;&gt;R2</title>
<path fill="none" stroke="black" stroke-width="6" d="M647.79,-64.96C650.89,-65.56 653.99,-66.08 657,-66.5 834.12,-91.1 1047.26,-91.11 1141.33,-89.62"/>
<polygon fill="black" stroke="black" stroke-width="6" points="1136.28,-100.11 1156.09,-89.24 1135.9,-79.11 1136.28,-100.11"/>
<text text-anchor="middle" x="900.5" y="-98.5" font-family="Times New Roman,serif" font-size="30.00"> &#160;&#160;232 &#160;&#160;100% &#160;&#160;1.1e&#45;06 mol/s &#160;&#160;&#160;2.19E&#45;01</text>
</g>
<!-- R17 -->
<g id="node5" class="node">
<title>R17</title>
<g id="a_node5"><a xlink:href="17.svg" xlink:title="R17">
<polygon fill="azure" stroke="none" points="1229,-47 1153,-47 1153,0 1229,0 1229,-47"/>
<text text-anchor="middle" x="1191" y="-15" font-family="Times New Roman,serif" font-size="35.00">R17</text>
</a>
</g>
</g>
<!-- R58&#45;&gt;R17 -->
<g id="edge4" class="edge">
<title>R58&#45;&gt;R17</title>
<path fill="none" stroke="black" stroke-width="6" d="M647.91,-36.22C650.93,-35.14 653.98,-34.21 657,-33.5 825.96,6.49 1033.51,-6.76 1132.37,-16.69"/>
<polygon fill="black" stroke="black" stroke-width="6" points="1126.15,-27.23 1147.14,-18.9 1128.36,-6.35 1126.15,-27.23"/>
<text text-anchor="middle" x="900.5" y="-42.5" font-family="Times New Roman,serif" font-size="30.00"> &#160;&#160;232 &#160;&#160;100% &#160;&#160;1.1e&#45;06 mol/s &#160;&#160;&#160;2.19E&#45;01</text>
</g>
<!-- R4 -->
<g id="node2" class="node">
<title>R4</title>
<g id="a_node2"><a xlink:href="4.svg" xlink:title="R4">
<polygon fill="azure" stroke="none" points="58,-112 0,-112 0,-65 58,-65 58,-112"/>
<text text-anchor="middle" x="29" y="-80" font-family="Times New Roman,serif" font-size="35.00">R4</text>
</a>
</g>
</g>
<!-- R4&#45;&gt;R58 -->
<g id="edge1" class="edge">
<title>R4&#45;&gt;R58</title>
<path fill="none" stroke="black" stroke-width="6" d="M57.91,-89.24C134.63,-90.88 355.47,-92.98 551.5,-67.74"/>
<polygon fill="black" stroke="black" stroke-width="6" points="547.79,-78.03 566.21,-64.96 544.99,-57.22 547.79,-78.03"/>
<text text-anchor="middle" x="319.5" y="-98.5" font-family="Times New Roman,serif" font-size="30.00"> &#160;&#160;64 &#160;&#160;100% &#160;&#160;3.91e&#45;07 mol/s &#160;&#160;&#160;9.21E&#45;01</text>
</g>
<!-- R6 -->
<g id="node3" class="node">
<title>R6</title>
<g id="a_node3"><a xlink:href="6.svg" xlink:title="R6">
<polygon fill="azure" stroke="none" points="58,-47 0,-47 0,0 58,0 58,-47"/>
<text text-anchor="middle" x="29" y="-15" font-family="Times New Roman,serif" font-size="35.00">R6</text>
</a>
</g>
</g>
<!-- R6&#45;&gt;R58 -->
<g id="edge2" class="edge">
<title>R6&#45;&gt;R58</title>
<path fill="none" stroke="black" stroke-width="6" d="M57.98,-19.92C135.33,-10.85 358.56,9.64 551.7,-31.6"/>
<polygon fill="black" stroke="black" stroke-width="6" points="544.26,-41.04 566.09,-35.22 548.9,-20.56 544.26,-41.04"/>
<text text-anchor="middle" x="319.5" y="-42.5" font-family="Times New Roman,serif" font-size="30.00"> &#160;&#160;64 &#160;&#160;100% &#160;&#160;3.91e&#45;07 mol/s &#160;&#160;&#160;9.21E&#45;01</text>
</g>
</g>
</svg>
