<?xml version="1.0" encoding="UTF-8" standalone="no"?>
<!DOCTYPE svg PUBLIC "-//W3C//DTD SVG 1.1//EN"
 "http://www.w3.org/Graphics/SVG/1.1/DTD/svg11.dtd">
<!-- Generated by graphviz version 8.0.3 (20230416.2022)
 -->
<!-- Title: G Pages: 1 -->
<svg width="640pt" height="593pt"
 viewBox="0.00 0.00 720.00 667.53" xmlns="http://www.w3.org/2000/svg" xmlns:xlink="http://www.w3.org/1999/xlink">
<g id="graph0" class="graph" transform="scale(0.503937 0.503937) rotate(0) translate(4 1173.45)">
<title>G</title>
<polygon fill="white" stroke="none" points="-4,4 -4,-1173.45 1266,-1173.45 1266,4 -4,4"/>
<text text-anchor="middle" x="631" y="-1136.65" font-family="Arial" font-size="36.00" fill="blue">Reaction Path Analysis</text>
<!-- R6 -->
<g id="node1" class="node">
<title>R6</title>
<g id="a_node1"><a xlink:href="6.svg" xlink:title="R6">
<polygon fill="azure" stroke="none" points="660,-572.95 602,-572.95 602,-525.95 660,-525.95 660,-572.95"/>
<text text-anchor="middle" x="631" y="-540.95" font-family="Times New Roman,serif" font-size="35.00">R6</text>
</a>
</g>
</g>
<!-- R2 -->
<g id="node2" class="node">
<title>R2</title>
<g id="a_node2"><a xlink:href="2.svg" xlink:title="R2">
<polygon fill="azure" stroke="none" points="1244,-925.95 1186,-925.95 1186,-878.95 1244,-878.95 1244,-925.95"/>
<text text-anchor="middle" x="1215" y="-893.95" font-family="Times New Roman,serif" font-size="35.00">R2</text>
</a>
</g>
</g>
<!-- R6&#45;&gt;R2 -->
<g id="edge1" class="edge">
<title>R6&#45;&gt;R2</title>
<path fill="none" stroke="black" d="M632.32,-572.87C633.77,-640.75 641.88,-835.28 687,-875.45 827.01,-1000.09 1079.87,-942.73 1175.75,-914.68"/>
<polygon fill="black" stroke="black" points="1176.54,-917.8 1185.12,-911.58 1174.53,-911.1 1176.54,-917.8"/>
<text text-anchor="middle" x="923" y="-961.45" font-family="Times New Roman,serif" font-size="30.00"> &#160;&#160;6 &#160;&#160;0% &#160;&#160;0.00355 mol/s &#160;&#160;&#160;1.21E&#45;04</text>
</g>
<!-- R1 -->
<g id="node3" class="node">
<title>R1</title>
<g id="a_node3"><a xlink:href="1.svg" xlink:title="R1">
<polygon fill="azure" stroke="none" points="1244,-860.95 1186,-860.95 1186,-813.95 1244,-813.95 1244,-860.95"/>
<text text-anchor="middle" x="1215" y="-828.95" font-family="Times New Roman,serif" font-size="35.00">R1</text>
</a>
</g>
</g>
<!-- R6&#45;&gt;R1 -->
<g id="edge2" class="edge">
<title>R6&#45;&gt;R1</title>
<path fill="none" stroke="black" d="M633.38,-572.72C637.35,-630.79 650.92,-779.61 687,-810.45 723.86,-841.95 1060.15,-839.81 1175.43,-838.13"/>
<polygon fill="black" stroke="black" points="1175.25,-841.62 1185.19,-837.96 1175.14,-834.62 1175.25,-841.62"/>
<text text-anchor="middle" x="923" y="-847.45" font-family="Times New Roman,serif" font-size="30.00"> &#160;&#160;6 &#160;&#160;0% &#160;&#160;0.00355 mol/s &#160;&#160;&#160;1.21E&#45;04</text>
</g>
<!-- R9 -->
<g id="node4" class="node">
<title>R9</title>
<g id="a_node4"><a xlink:href="9.svg" xlink:title="R9">
<polygon fill="azure" stroke="none" points="1244,-795.95 1186,-795.95 1186,-748.95 1244,-748.95 1244,-795.95"/>
<text text-anchor="middle" x="1215" y="-763.95" font-family="Times New Roman,serif" font-size="35.00">R9</text>
</a>
</g>
</g>
<!-- R6&#45;&gt;R9 -->
<g id="edge3" class="edge">
<title>R6&#45;&gt;R9</title>
<path fill="none" stroke="black" d="M635.14,-572.77C641.99,-619.89 659.87,-723.77 687,-745.45 724.88,-775.71 1060.5,-774.39 1175.52,-773.02"/>
<polygon fill="black" stroke="black" points="1175.3,-776.51 1185.26,-772.88 1175.22,-769.51 1175.3,-776.51"/>
<text text-anchor="middle" x="923" y="-782.45" font-family="Times New Roman,serif" font-size="30.00"> &#160;&#160;15 &#160;&#160;0% &#160;&#160;4.28e&#45;07 mol/s &#160;&#160;&#160;1.00E+00</text>
</g>
<!-- R34 -->
<g id="node8" class="node">
<title>R34</title>
<g id="a_node8"><a xlink:href="34.svg" xlink:title="R34">
<polygon fill="azure" stroke="none" points="1253,-730.95 1177,-730.95 1177,-683.95 1253,-683.95 1253,-730.95"/>
<text text-anchor="middle" x="1215" y="-698.95" font-family="Times New Roman,serif" font-size="35.00">R34</text>
</a>
</g>
</g>
<!-- R6&#45;&gt;R34 -->
<g id="edge7" class="edge">
<title>R6&#45;&gt;R34</title>
<path fill="none" stroke="black" d="M634.12,-572.8C638.31,-603.88 650.71,-657.89 687,-683.45 725.63,-710.64 1044.26,-709.59 1166.51,-708.16"/>
<polygon fill="black" stroke="black" points="1166.41,-711.65 1176.37,-708.02 1166.32,-704.65 1166.41,-711.65"/>
<text text-anchor="middle" x="923" y="-717.45" font-family="Times New Roman,serif" font-size="30.00"> &#160;&#160;39 &#160;&#160;0% &#160;&#160;4.27e&#45;07 mol/s &#160;&#160;&#160;9.99E&#45;01</text>
</g>
<!-- R48 -->
<g id="node10" class="node">
<title>R48</title>
<g id="a_node10"><a xlink:href="48.svg" xlink:title="R48">
<polygon fill="azure" stroke="none" points="1253,-665.95 1177,-665.95 1177,-618.95 1253,-618.95 1253,-665.95"/>
<text text-anchor="middle" x="1215" y="-633.95" font-family="Times New Roman,serif" font-size="35.00">R48</text>
</a>
</g>
</g>
<!-- R6&#45;&gt;R48 -->
<g id="edge9" class="edge">
<title>R6&#45;&gt;R48</title>
<path fill="none" stroke="black" d="M645.66,-572.91C655.27,-587.04 669.52,-603.9 687,-612.45 770.55,-653.32 1052.95,-648.23 1166.32,-644.38"/>
<polygon fill="black" stroke="black" points="1166.2,-647.85 1176.07,-644 1165.95,-640.85 1166.2,-647.85"/>
<text text-anchor="middle" x="923" y="-655.45" font-family="Times New Roman,serif" font-size="30.00"> &#160;&#160;54 &#160;&#160;0% &#160;&#160;3.95e&#45;07 mol/s &#160;&#160;&#160;9.29E&#45;01</text>
</g>
<!-- R58 -->
<g id="node11" class="node">
<title>R58</title>
<g id="a_node11"><a xlink:href="58.svg" xlink:title="R58">
<polygon fill="azure" stroke="none" points="1253,-600.95 1177,-600.95 1177,-553.95 1253,-553.95 1253,-600.95"/>
<text text-anchor="middle" x="1215" y="-568.95" font-family="Times New Roman,serif" font-size="35.00">R58</text>
</a>
</g>
</g>
<!-- R6&#45;&gt;R58 -->
<g id="edge10" class="edge">
<title>R6&#45;&gt;R58</title>
<path fill="none" stroke="black" d="M659.95,-552.86C668.61,-553.82 678.19,-554.78 687,-555.45 863.41,-568.74 1073.69,-574.5 1166.26,-576.52"/>
<polygon fill="black" stroke="black" points="1166.14,-580.04 1176.21,-576.76 1166.29,-573.04 1166.14,-580.04"/>
<text text-anchor="middle" x="923" y="-584.45" font-family="Times New Roman,serif" font-size="30.00"> &#160;&#160;64 &#160;&#160;0% &#160;&#160;3.91e&#45;07 mol/s &#160;&#160;&#160;9.21E&#45;01</text>
</g>
<!-- R68 -->
<g id="node14" class="node">
<title>R68</title>
<g id="a_node14"><a xlink:href="68.svg" xlink:title="R68">
<polygon fill="azure" stroke="none" points="1253,-535.95 1177,-535.95 1177,-488.95 1253,-488.95 1253,-535.95"/>
<text text-anchor="middle" x="1215" y="-503.95" font-family="Times New Roman,serif" font-size="35.00">R68</text>
</a>
</g>
</g>
<!-- R6&#45;&gt;R68 -->
<g id="edge13" class="edge">
<title>R6&#45;&gt;R68</title>
<path fill="none" stroke="black" d="M659.94,-530.15C668.27,-525.39 677.68,-520.95 687,-518.45 776.49,-494.42 1054.26,-504.65 1166.37,-509.98"/>
<polygon fill="black" stroke="black" points="1166.16,-513.52 1176.32,-510.51 1166.5,-506.53 1166.16,-513.52"/>
<text text-anchor="middle" x="923" y="-527.45" font-family="Times New Roman,serif" font-size="30.00"> &#160;&#160;74 &#160;&#160;0% &#160;&#160;3.59e&#45;07 mol/s &#160;&#160;&#160;8.61E&#45;01</text>
</g>
<!-- R70 -->
<g id="node16" class="node">
<title>R70</title>
<g id="a_node16"><a xlink:href="70.svg" xlink:title="R70">
<polygon fill="azure" stroke="none" points="1253,-470.95 1177,-470.95 1177,-423.95 1253,-423.95 1253,-470.95"/>
<text text-anchor="middle" x="1215" y="-438.95" font-family="Times New Roman,serif" font-size="35.00">R70</text>
</a>
</g>
</g>
<!-- R6&#45;&gt;R70 -->
<g id="edge15" class="edge">
<title>R6&#45;&gt;R70</title>
<path fill="none" stroke="black" d="M640.26,-525.95C648.65,-505.98 663.76,-478.53 687,-465.45 728.1,-442.31 1044.5,-444.76 1166.36,-446.59"/>
<polygon fill="black" stroke="black" points="1166.14,-450.11 1176.19,-446.76 1166.25,-443.11 1166.14,-450.11"/>
<text text-anchor="middle" x="923" y="-474.45" font-family="Times New Roman,serif" font-size="30.00"> &#160;&#160;76 &#160;&#160;0% &#160;&#160;4.23e&#45;07 mol/s &#160;&#160;&#160;9.89E&#45;01</text>
</g>
<!-- R26 -->
<g id="node19" class="node">
<title>R26</title>
<g id="a_node19"><a xlink:href="26.svg" xlink:title="R26">
<polygon fill="azure" stroke="none" points="1253,-395.95 1177,-395.95 1177,-348.95 1253,-348.95 1253,-395.95"/>
<text text-anchor="middle" x="1215" y="-363.95" font-family="Times New Roman,serif" font-size="35.00">R26</text>
</a>
</g>
</g>
<!-- R6&#45;&gt;R26 -->
<g id="edge18" class="edge">
<title>R6&#45;&gt;R26</title>
<path fill="none" stroke="black" d="M633.59,-526.01C637.18,-493.54 648.87,-435.76 687,-408.45 729.67,-377.87 1107.14,-395.57 1159,-387.45 1161.52,-387.05 1164.08,-386.58 1166.66,-386.06"/>
<polygon fill="black" stroke="black" points="1167.28,-389.29 1176.26,-383.67 1165.74,-382.46 1167.28,-389.29"/>
<text text-anchor="middle" x="923" y="-417.45" font-family="Times New Roman,serif" font-size="30.00"> &#160;&#160;98 &#160;&#160;0% &#160;&#160;0.000654 mol/s &#160;&#160;&#160;1.00E+00</text>
</g>
<!-- R6&#45;&gt;R26 -->
<g id="edge27" class="edge">
<title>R6&#45;&gt;R26</title>
<path fill="none" stroke="black" stroke-width="5" d="M634.94,-526.01C641.48,-478.15 658.91,-371.83 687,-350.45 725.59,-321.07 1052.44,-337.55 1156.35,-351.99"/>
<polygon fill="black" stroke="black" stroke-width="5" points="1149.83,-359.78 1171,-354.45 1152.72,-342.52 1149.83,-359.78"/>
<text text-anchor="middle" x="923" y="-359.45" font-family="Times New Roman,serif" font-size="30.00"> &#160;&#160;430 &#160;&#160;99% &#160;&#160;5.43 mol/s &#160;&#160;&#160;1.20E&#45;04</text>
</g>
<!-- R104 -->
<g id="node20" class="node">
<title>R104</title>
<g id="a_node20"><a xlink:href="104.svg" xlink:title="R104">
<polygon fill="azure" stroke="none" points="1262,-320.95 1168,-320.95 1168,-273.95 1262,-273.95 1262,-320.95"/>
<text text-anchor="middle" x="1215" y="-288.95" font-family="Times New Roman,serif" font-size="35.00">R104</text>
</a>
</g>
</g>
<!-- R6&#45;&gt;R104 -->
<g id="edge19" class="edge">
<title>R6&#45;&gt;R104</title>
<path fill="none" stroke="black" d="M633.44,-526.35C637.51,-469.5 651.21,-325.29 687,-296.45 722.91,-267.51 1029.15,-284.77 1157.63,-293.41"/>
<polygon fill="black" stroke="black" points="1157.19,-296.96 1167.4,-294.14 1157.66,-289.97 1157.19,-296.96"/>
<text text-anchor="middle" x="923" y="-305.45" font-family="Times New Roman,serif" font-size="30.00"> &#160;&#160;315 &#160;&#160;0% &#160;&#160;4.22e&#45;07 mol/s &#160;&#160;&#160;9.88E&#45;01</text>
</g>
<!-- R159 -->
<g id="node23" class="node">
<title>R159</title>
<g id="a_node23"><a xlink:href="159.svg" xlink:title="R159">
<polygon fill="azure" stroke="none" points="1262,-255.95 1168,-255.95 1168,-208.95 1262,-208.95 1262,-255.95"/>
<text text-anchor="middle" x="1215" y="-223.95" font-family="Times New Roman,serif" font-size="35.00">R159</text>
</a>
</g>
</g>
<!-- R6&#45;&gt;R159 -->
<g id="edge22" class="edge">
<title>R6&#45;&gt;R159</title>
<path fill="none" stroke="black" d="M632.51,-526.38C634.49,-461.42 643.85,-279.26 687,-242.45 821.11,-128.04 1051.79,-180.15 1157.77,-212.95"/>
<polygon fill="black" stroke="black" points="1156.65,-216.58 1167.24,-216.26 1158.76,-209.91 1156.65,-216.58"/>
<text text-anchor="middle" x="923" y="-251.45" font-family="Times New Roman,serif" font-size="30.00"> &#160;&#160;318 &#160;&#160;0% &#160;&#160;3.53e&#45;07 mol/s &#160;&#160;&#160;8.51E&#45;01</text>
</g>
<!-- R10 -->
<g id="node5" class="node">
<title>R10</title>
<g id="a_node5"><a xlink:href="10.svg" xlink:title="R10">
<polygon fill="azure" stroke="none" points="85,-1060.95 9,-1060.95 9,-1013.95 85,-1013.95 85,-1060.95"/>
<text text-anchor="middle" x="47" y="-1028.95" font-family="Times New Roman,serif" font-size="35.00">R10</text>
</a>
</g>
</g>
<!-- R10&#45;&gt;R6 -->
<g id="edge4" class="edge">
<title>R10&#45;&gt;R6</title>
<path fill="none" stroke="black" d="M84.68,-1049.51C179.9,-1078.27 437.12,-1139.31 575,-1010.45 606.15,-981.33 623.38,-685.4 628.42,-583.62"/>
<polygon fill="black" stroke="black" points="631.96,-583.9 628.95,-573.74 624.97,-583.56 631.96,-583.9"/>
<text text-anchor="middle" x="339" y="-1097.45" font-family="Times New Roman,serif" font-size="30.00"> &#160;&#160;22 &#160;&#160;0% &#160;&#160;3.75e&#45;05 mol/s &#160;&#160;&#160;1.12E&#45;02</text>
</g>
<!-- R19 -->
<g id="node6" class="node">
<title>R19</title>
<g id="a_node6"><a xlink:href="19.svg" xlink:title="R19">
<polygon fill="azure" stroke="none" points="85,-995.95 9,-995.95 9,-948.95 85,-948.95 85,-995.95"/>
<text text-anchor="middle" x="47" y="-963.95" font-family="Times New Roman,serif" font-size="35.00">R19</text>
</a>
</g>
</g>
<!-- R19&#45;&gt;R6 -->
<g id="edge5" class="edge">
<title>R19&#45;&gt;R6</title>
<path fill="none" stroke="green" d="M84.97,-973.21C198.89,-975.22 539.08,-978.37 575,-945.45 627.64,-897.19 631.19,-670.68 630.56,-583.64"/>
<polygon fill="green" stroke="green" points="634.05,-583.75 630.45,-573.78 627.05,-583.82 634.05,-583.75"/>
<text text-anchor="middle" x="339" y="-982.45" font-family="Times New Roman,serif" font-size="30.00"> &#160;&#160;23 &#160;&#160;0% &#160;&#160;6.38e&#45;08 mol/s &#160;&#160;&#160;4.65E&#45;01</text>
</g>
<!-- R33 -->
<g id="node7" class="node">
<title>R33</title>
<g id="a_node7"><a xlink:href="33.svg" xlink:title="R33">
<polygon fill="azure" stroke="none" points="85,-930.95 9,-930.95 9,-883.95 85,-883.95 85,-930.95"/>
<text text-anchor="middle" x="47" y="-898.95" font-family="Times New Roman,serif" font-size="35.00">R33</text>
</a>
</g>
</g>
<!-- R33&#45;&gt;R6 -->
<g id="edge6" class="edge">
<title>R33&#45;&gt;R6</title>
<path fill="none" stroke="black" d="M84.93,-908.17C198.74,-910.06 538.65,-912.89 575,-880.45 618.61,-841.52 627.65,-660.19 629.51,-583.66"/>
<polygon fill="black" stroke="black" points="633.03,-583.81 629.75,-573.74 626.04,-583.66 633.03,-583.81"/>
<text text-anchor="middle" x="339" y="-917.45" font-family="Times New Roman,serif" font-size="30.00"> &#160;&#160;38 &#160;&#160;0% &#160;&#160;1.94e&#45;05 mol/s &#160;&#160;&#160;2.12E&#45;02</text>
</g>
<!-- R36 -->
<g id="node9" class="node">
<title>R36</title>
<g id="a_node9"><a xlink:href="36.svg" xlink:title="R36">
<polygon fill="azure" stroke="none" points="85,-865.95 9,-865.95 9,-818.95 85,-818.95 85,-865.95"/>
<text text-anchor="middle" x="47" y="-833.95" font-family="Times New Roman,serif" font-size="35.00">R36</text>
</a>
</g>
</g>
<!-- R36&#45;&gt;R6 -->
<g id="edge8" class="edge">
<title>R36&#45;&gt;R6</title>
<path fill="none" stroke="black" d="M84.88,-843.11C198.53,-844.81 538.02,-847.17 575,-815.45 609.69,-785.68 623.38,-648.46 627.98,-583.59"/>
<polygon fill="black" stroke="black" points="631.54,-583.94 628.72,-573.73 624.55,-583.47 631.54,-583.94"/>
<text text-anchor="middle" x="339" y="-852.45" font-family="Times New Roman,serif" font-size="30.00"> &#160;&#160;53 &#160;&#160;0% &#160;&#160;7.07e&#45;07 mol/s &#160;&#160;&#160;2.74E&#45;01</text>
</g>
<!-- R63 -->
<g id="node12" class="node">
<title>R63</title>
<g id="a_node12"><a xlink:href="63.svg" xlink:title="R63">
<polygon fill="azure" stroke="none" points="85,-800.95 9,-800.95 9,-753.95 85,-753.95 85,-800.95"/>
<text text-anchor="middle" x="47" y="-768.95" font-family="Times New Roman,serif" font-size="35.00">R63</text>
</a>
</g>
</g>
<!-- R63&#45;&gt;R6 -->
<g id="edge11" class="edge">
<title>R63&#45;&gt;R6</title>
<path fill="none" stroke="black" d="M84.79,-778.08C198.2,-779.72 537.03,-781.97 575,-751.45 601.06,-730.49 618.07,-635.31 625.58,-583.42"/>
<polygon fill="black" stroke="black" points="629.15,-584.14 627.08,-573.75 622.22,-583.16 629.15,-584.14"/>
<text text-anchor="middle" x="339" y="-787.45" font-family="Times New Roman,serif" font-size="30.00"> &#160;&#160;69 &#160;&#160;0% &#160;&#160;0.000155 mol/s &#160;&#160;&#160;2.74E&#45;03</text>
</g>
<!-- R67 -->
<g id="node13" class="node">
<title>R67</title>
<g id="a_node13"><a xlink:href="67.svg" xlink:title="R67">
<polygon fill="azure" stroke="none" points="85,-735.95 9,-735.95 9,-688.95 85,-688.95 85,-735.95"/>
<text text-anchor="middle" x="47" y="-703.95" font-family="Times New Roman,serif" font-size="35.00">R67</text>
</a>
</g>
</g>
<!-- R67&#45;&gt;R6 -->
<g id="edge12" class="edge">
<title>R67&#45;&gt;R6</title>
<path fill="none" stroke="black" d="M84.65,-713.2C197.64,-715.21 535.37,-718.76 575,-690.45 609.29,-665.95 622.2,-616.81 627.06,-583.52"/>
<polygon fill="black" stroke="black" points="630.63,-584.26 628.42,-573.89 623.68,-583.37 630.63,-584.26"/>
<text text-anchor="middle" x="339" y="-723.45" font-family="Times New Roman,serif" font-size="30.00"> &#160;&#160;73 &#160;&#160;0% &#160;&#160;1.67e&#45;05 mol/s &#160;&#160;&#160;2.43E&#45;02</text>
</g>
<!-- R69 -->
<g id="node15" class="node">
<title>R69</title>
<g id="a_node15"><a xlink:href="69.svg" xlink:title="R69">
<polygon fill="azure" stroke="none" points="85,-670.95 9,-670.95 9,-623.95 85,-623.95 85,-670.95"/>
<text text-anchor="middle" x="47" y="-638.95" font-family="Times New Roman,serif" font-size="35.00">R69</text>
</a>
</g>
</g>
<!-- R69&#45;&gt;R6 -->
<g id="edge14" class="edge">
<title>R69&#45;&gt;R6</title>
<path fill="none" stroke="black" d="M84.66,-649.35C189.69,-654.22 489.62,-663.78 575,-619.45 590.98,-611.15 603.8,-595.91 613.03,-581.76"/>
<polygon fill="black" stroke="black" points="616.34,-584.06 618.58,-573.71 610.37,-580.41 616.34,-584.06"/>
<text text-anchor="middle" x="339" y="-662.45" font-family="Times New Roman,serif" font-size="30.00"> &#160;&#160;75 &#160;&#160;0% &#160;&#160;1.85 mol/s &#160;&#160;&#160;2.31E&#45;07</text>
</g>
<!-- R71 -->
<g id="node17" class="node">
<title>R71</title>
<g id="a_node17"><a xlink:href="71.svg" xlink:title="R71">
<polygon fill="azure" stroke="none" points="85,-605.95 9,-605.95 9,-558.95 85,-558.95 85,-605.95"/>
<text text-anchor="middle" x="47" y="-573.95" font-family="Times New Roman,serif" font-size="35.00">R71</text>
</a>
</g>
</g>
<!-- R71&#45;&gt;R6 -->
<g id="edge16" class="edge">
<title>R71&#45;&gt;R6</title>
<path fill="none" stroke="black" d="M84.9,-582.87C171.05,-583.44 392.03,-582.43 575,-560.45 580.42,-559.79 586.1,-558.9 591.68,-557.9"/>
<polygon fill="black" stroke="black" points="592,-561.21 601.16,-555.89 590.67,-554.34 592,-561.21"/>
<text text-anchor="middle" x="339" y="-591.45" font-family="Times New Roman,serif" font-size="30.00"> &#160;&#160;77 &#160;&#160;0% &#160;&#160;9.98e&#45;06 mol/s &#160;&#160;&#160;3.95E&#45;02</text>
</g>
<!-- R72 -->
<g id="node18" class="node">
<title>R72</title>
<g id="a_node18"><a xlink:href="72.svg" xlink:title="R72">
<polygon fill="azure" stroke="none" points="85,-540.95 9,-540.95 9,-493.95 85,-493.95 85,-540.95"/>
<text text-anchor="middle" x="47" y="-508.95" font-family="Times New Roman,serif" font-size="35.00">R72</text>
</a>
</g>
</g>
<!-- R72&#45;&gt;R6 -->
<g id="edge17" class="edge">
<title>R72&#45;&gt;R6</title>
<path fill="none" stroke="black" d="M84.91,-513.64C171.55,-505.67 394.27,-490.86 575,-527.45 580.67,-528.59 586.5,-530.3 592.16,-532.26"/>
<polygon fill="black" stroke="black" points="590.47,-535.74 601.06,-536.01 592.94,-529.2 590.47,-535.74"/>
<text text-anchor="middle" x="339" y="-536.45" font-family="Times New Roman,serif" font-size="30.00"> &#160;&#160;78 &#160;&#160;0% &#160;&#160;0.0317 mol/s &#160;&#160;&#160;1.35E&#45;05</text>
</g>
<!-- R236 -->
<g id="node21" class="node">
<title>R236</title>
<g id="a_node21"><a xlink:href="236.svg" xlink:title="R236">
<polygon fill="azure" stroke="none" points="94,-475.95 0,-475.95 0,-428.95 94,-428.95 94,-475.95"/>
<text text-anchor="middle" x="47" y="-443.95" font-family="Times New Roman,serif" font-size="35.00">R236</text>
</a>
</g>
</g>
<!-- R236&#45;&gt;R6 -->
<g id="edge20" class="edge">
<title>R236&#45;&gt;R6</title>
<path fill="none" stroke="black" d="M93.88,-448.38C206.48,-439.22 493.25,-421.14 575,-466.45 594.43,-477.21 608.21,-498.08 617.12,-516.2"/>
<polygon fill="black" stroke="black" points="614.34,-517.54 621.69,-525.18 620.71,-514.63 614.34,-517.54"/>
<text text-anchor="middle" x="339" y="-475.45" font-family="Times New Roman,serif" font-size="30.00"> &#160;&#160;316 &#160;&#160;15% &#160;&#160;1320.0 mol/s &#160;&#160;&#160;3.23E&#45;10</text>
</g>
<!-- R237 -->
<g id="node22" class="node">
<title>R237</title>
<g id="a_node22"><a xlink:href="237.svg" xlink:title="R237">
<polygon fill="azure" stroke="none" points="94,-410.95 0,-410.95 0,-363.95 94,-363.95 94,-410.95"/>
<text text-anchor="middle" x="47" y="-378.95" font-family="Times New Roman,serif" font-size="35.00">R237</text>
</a>
</g>
</g>
<!-- R237&#45;&gt;R6 -->
<g id="edge21" class="edge">
<title>R237&#45;&gt;R6</title>
<path fill="none" stroke="black" stroke-width="4" d="M93.75,-382.14C207.38,-369.94 498.81,-344.93 575,-399.45 608.75,-423.59 621.83,-470.74 626.88,-505.76"/>
<polygon fill="black" stroke="black" stroke-width="4" points="619.98,-501.06 629.14,-520.17 633.9,-499.52 619.98,-501.06"/>
<text text-anchor="middle" x="339" y="-408.45" font-family="Times New Roman,serif" font-size="30.00"> &#160;&#160;317 &#160;&#160;70% &#160;&#160;5840.0 mol/s &#160;&#160;&#160;7.32E&#45;11</text>
</g>
<!-- R160 -->
<g id="node24" class="node">
<title>R160</title>
<g id="a_node24"><a xlink:href="160.svg" xlink:title="R160">
<polygon fill="azure" stroke="none" points="94,-345.95 0,-345.95 0,-298.95 94,-298.95 94,-345.95"/>
<text text-anchor="middle" x="47" y="-313.95" font-family="Times New Roman,serif" font-size="35.00">R160</text>
</a>
</g>
</g>
<!-- R160&#45;&gt;R6 -->
<g id="edge23" class="edge">
<title>R160&#45;&gt;R6</title>
<path fill="none" stroke="black" d="M93.65,-316.14C207.75,-301.42 501.44,-270.27 575,-328.45 604.09,-351.45 620.08,-459.39 626.55,-515.45"/>
<polygon fill="black" stroke="black" points="623.16,-515.7 627.75,-525.25 630.12,-514.93 623.16,-515.7"/>
<text text-anchor="middle" x="339" y="-337.45" font-family="Times New Roman,serif" font-size="30.00"> &#160;&#160;319 &#160;&#160;0% &#160;&#160;7.27e&#45;06 mol/s &#160;&#160;&#160;5.26E&#45;02</text>
</g>
<!-- R238 -->
<g id="node25" class="node">
<title>R238</title>
<g id="a_node25"><a xlink:href="238.svg" xlink:title="R238">
<polygon fill="azure" stroke="none" points="94,-280.95 0,-280.95 0,-233.95 94,-233.95 94,-280.95"/>
<text text-anchor="middle" x="47" y="-248.95" font-family="Times New Roman,serif" font-size="35.00">R238</text>
</a>
</g>
</g>
<!-- R238&#45;&gt;R6 -->
<g id="edge24" class="edge">
<title>R238&#45;&gt;R6</title>
<path fill="none" stroke="black" d="M93.64,-254.18C214.92,-245.97 538.47,-227.15 575,-257.45 614.12,-289.88 625.6,-445.36 628.82,-515.27"/>
<polygon fill="black" stroke="black" points="625.36,-515.27 629.28,-525.11 632.35,-514.97 625.36,-515.27"/>
<text text-anchor="middle" x="339" y="-266.45" font-family="Times New Roman,serif" font-size="30.00"> &#160;&#160;320 &#160;&#160;13% &#160;&#160;1120.0 mol/s &#160;&#160;&#160;3.82E&#45;10</text>
</g>
<!-- R239 -->
<g id="node26" class="node">
<title>R239</title>
<g id="a_node26"><a xlink:href="239.svg" xlink:title="R239">
<polygon fill="azure" stroke="none" points="94,-215.95 0,-215.95 0,-168.95 94,-168.95 94,-215.95"/>
<text text-anchor="middle" x="47" y="-183.95" font-family="Times New Roman,serif" font-size="35.00">R239</text>
</a>
</g>
</g>
<!-- R239&#45;&gt;R6 -->
<g id="edge25" class="edge">
<title>R239&#45;&gt;R6</title>
<path fill="none" stroke="black" d="M93.99,-186.24C208.89,-171.83 504.3,-141.81 575,-203.45 621.32,-243.83 628.78,-436.02 629.87,-515.22"/>
<polygon fill="black" stroke="black" points="626.38,-515.09 629.99,-525.05 633.38,-515.01 626.38,-515.09"/>
<text text-anchor="middle" x="339" y="-212.45" font-family="Times New Roman,serif" font-size="30.00"> &#160;&#160;321 &#160;&#160;0% &#160;&#160;9.08e&#45;05 mol/s &#160;&#160;&#160;4.66E&#45;03</text>
</g>
<!-- R240 -->
<g id="node27" class="node">
<title>R240</title>
<g id="a_node27"><a xlink:href="240.svg" xlink:title="R240">
<polygon fill="azure" stroke="none" points="94,-150.95 0,-150.95 0,-103.95 94,-103.95 94,-150.95"/>
<text text-anchor="middle" x="47" y="-118.95" font-family="Times New Roman,serif" font-size="35.00">R240</text>
</a>
</g>
</g>
<!-- R240&#45;&gt;R6 -->
<g id="edge26" class="edge">
<title>R240&#45;&gt;R6</title>
<path fill="none" stroke="black" d="M93.74,-124.16C215.26,-115.91 539.36,-97.1 575,-128.45 603.99,-153.94 622.36,-419.62 628.08,-515.32"/>
<polygon fill="black" stroke="black" points="624.64,-515.35 628.72,-525.12 631.63,-514.94 624.64,-515.35"/>
<text text-anchor="middle" x="339" y="-137.45" font-family="Times New Roman,serif" font-size="30.00"> &#160;&#160;322 &#160;&#160;0% &#160;&#160;4.35e&#45;07 mol/s &#160;&#160;&#160;3.32E&#45;01</text>
</g>
<!-- R103 -->
<g id="node28" class="node">
<title>R103</title>
<g id="a_node28"><a xlink:href="103.svg" xlink:title="R103">
<polygon fill="azure" stroke="none" points="94,-85.95 0,-85.95 0,-38.95 94,-38.95 94,-85.95"/>
<text text-anchor="middle" x="47" y="-53.95" font-family="Times New Roman,serif" font-size="35.00">R103</text>
</a>
</g>
</g>
<!-- R103&#45;&gt;R6 -->
<g id="edge28" class="edge">
<title>R103&#45;&gt;R6</title>
<path fill="none" stroke="black" d="M93.95,-45.86C195.35,-12.53 439.97,49.43 575,-73.45 607.65,-103.16 623.97,-410.93 628.59,-515.16"/>
<polygon fill="black" stroke="black" points="625.13,-515.15 629.06,-524.99 632.13,-514.85 625.13,-515.15"/>
<text text-anchor="middle" x="339" y="-82.45" font-family="Times New Roman,serif" font-size="30.00"> &#160;&#160;884 &#160;&#160;0% &#160;&#160;3.58e&#45;07 mol/s &#160;&#160;&#160;3.52E&#45;01</text>
</g>
</g>
</svg>
