<?xml version="1.0" encoding="UTF-8" standalone="no"?>
<!DOCTYPE svg PUBLIC "-//W3C//DTD SVG 1.1//EN"
 "http://www.w3.org/Graphics/SVG/1.1/DTD/svg11.dtd">
<!-- Generated by graphviz version 8.0.3 (20230416.2022)
 -->
<!-- Title: G Pages: 1 -->
<svg width="640pt" height="201pt"
 viewBox="0.00 0.00 720.00 226.22" xmlns="http://www.w3.org/2000/svg" xmlns:xlink="http://www.w3.org/1999/xlink">
<g id="graph0" class="graph" transform="scale(0.498442 0.498442) rotate(0) translate(4 399.42)">
<title>G</title>
<polygon fill="white" stroke="none" points="-4,4 -4,-399.42 1280,-399.42 1280,4 -4,4"/>
<text text-anchor="middle" x="638" y="-362.62" font-family="Arial" font-size="36.00" fill="blue">Reaction Path Analysis</text>
<!-- R66 -->
<g id="node1" class="node">
<title>R66</title>
<g id="a_node1"><a xlink:href="66.svg" xlink:title="R66">
<polygon fill="azure" stroke="none" points="676,-198.92 600,-198.92 600,-151.92 676,-151.92 676,-198.92"/>
<text text-anchor="middle" x="638" y="-166.92" font-family="Times New Roman,serif" font-size="35.00">R66</text>
</a>
</g>
</g>
<!-- R5 -->
<g id="node2" class="node">
<title>R5</title>
<g id="a_node2"><a xlink:href="5.svg" xlink:title="R5">
<polygon fill="azure" stroke="none" points="1258,-328.92 1200,-328.92 1200,-281.92 1258,-281.92 1258,-328.92"/>
<text text-anchor="middle" x="1229" y="-296.92" font-family="Times New Roman,serif" font-size="35.00">R5</text>
</a>
</g>
</g>
<!-- R66&#45;&gt;R5 -->
<g id="edge1" class="edge">
<title>R66&#45;&gt;R5</title>
<path fill="none" stroke="black" stroke-width="5" d="M645.19,-198.67C652.99,-222.95 668.98,-259.88 697.5,-277.42 777.23,-326.45 1064.01,-315.33 1179.4,-308.62"/>
<polygon fill="black" stroke="black" stroke-width="5" points="1174.65,-317.31 1194.08,-307.36 1173.59,-299.85 1174.65,-317.31"/>
<text text-anchor="middle" x="933.5" y="-323.42" font-family="Times New Roman,serif" font-size="30.00"> &#160;&#160;72 &#160;&#160;97% &#160;&#160;0.00196 mol/s &#160;&#160;&#160;2.18E&#45;04</text>
</g>
<!-- R14 -->
<g id="node3" class="node">
<title>R14</title>
<g id="a_node3"><a xlink:href="14.svg" xlink:title="R14">
<polygon fill="azure" stroke="none" points="1267,-263.92 1191,-263.92 1191,-216.92 1267,-216.92 1267,-263.92"/>
<text text-anchor="middle" x="1229" y="-231.92" font-family="Times New Roman,serif" font-size="35.00">R14</text>
</a>
</g>
</g>
<!-- R66&#45;&gt;R14 -->
<g id="edge2" class="edge">
<title>R66&#45;&gt;R14</title>
<path fill="none" stroke="black" stroke-width="5" d="M669.41,-198.74C678.05,-204.2 687.77,-209.32 697.5,-212.42 784.08,-239.99 1051.69,-241.71 1170.34,-241.03"/>
<polygon fill="black" stroke="black" stroke-width="5" points="1165.4,-249.78 1185.34,-240.88 1165.27,-232.28 1165.4,-249.78"/>
<text text-anchor="middle" x="933.5" y="-249.42" font-family="Times New Roman,serif" font-size="30.00"> &#160;&#160;72 &#160;&#160;97% &#160;&#160;0.00196 mol/s &#160;&#160;&#160;2.18E&#45;04</text>
</g>
<!-- R0 -->
<g id="node4" class="node">
<title>R0</title>
<g id="a_node4"><a xlink:href="0.svg" xlink:title="R0">
<polygon fill="azure" stroke="none" points="1258,-198.92 1200,-198.92 1200,-151.92 1258,-151.92 1258,-198.92"/>
<text text-anchor="middle" x="1229" y="-166.92" font-family="Times New Roman,serif" font-size="35.00">R0</text>
</a>
</g>
</g>
<!-- R66&#45;&gt;R0 -->
<g id="edge3" class="edge">
<title>R66&#45;&gt;R0</title>
<path fill="none" stroke="black" d="M675.84,-175.42C780.94,-175.42 1081.51,-175.42 1189.1,-175.42"/>
<polygon fill="black" stroke="black" points="1189.08,-178.92 1199.08,-175.42 1189.08,-171.92 1189.08,-178.92"/>
<text text-anchor="middle" x="933.5" y="-184.42" font-family="Times New Roman,serif" font-size="30.00"> &#160;&#160;131 &#160;&#160;2% &#160;&#160;5.14e&#45;05 mol/s &#160;&#160;&#160;8.18E&#45;03</text>
</g>
<!-- R64 -->
<g id="node5" class="node">
<title>R64</title>
<g id="a_node5"><a xlink:href="64.svg" xlink:title="R64">
<polygon fill="azure" stroke="none" points="1267,-133.92 1191,-133.92 1191,-86.92 1267,-86.92 1267,-133.92"/>
<text text-anchor="middle" x="1229" y="-101.92" font-family="Times New Roman,serif" font-size="35.00">R64</text>
</a>
</g>
</g>
<!-- R66&#45;&gt;R64 -->
<g id="edge4" class="edge">
<title>R66&#45;&gt;R64</title>
<path fill="none" stroke="black" d="M669.41,-152.1C678.05,-146.64 687.77,-141.52 697.5,-138.42 868.29,-84.02 1085.52,-96.08 1180.23,-105.04"/>
<polygon fill="black" stroke="black" points="1179.87,-108.62 1190.17,-106.12 1180.56,-101.66 1179.87,-108.62"/>
<text text-anchor="middle" x="933.5" y="-147.42" font-family="Times New Roman,serif" font-size="30.00"> &#160;&#160;131 &#160;&#160;2% &#160;&#160;5.14e&#45;05 mol/s &#160;&#160;&#160;8.18E&#45;03</text>
</g>
<!-- R102 -->
<g id="node7" class="node">
<title>R102</title>
<g id="a_node7"><a xlink:href="102.svg" xlink:title="R102">
<polygon fill="azure" stroke="none" points="1276,-68.92 1182,-68.92 1182,-21.92 1276,-21.92 1276,-68.92"/>
<text text-anchor="middle" x="1229" y="-36.92" font-family="Times New Roman,serif" font-size="35.00">R102</text>
</a>
</g>
</g>
<!-- R66&#45;&gt;R102 -->
<g id="edge6" class="edge">
<title>R66&#45;&gt;R102</title>
<path fill="none" stroke="black" d="M643.48,-152.1C650.08,-124.81 665.32,-80.78 697.5,-60.42 846.2,33.69 1068.3,-4.27 1171.51,-29.62"/>
<polygon fill="black" stroke="black" points="1170.46,-33.22 1181.01,-32.26 1172.17,-26.43 1170.46,-33.22"/>
<text text-anchor="middle" x="933.5" y="-69.42" font-family="Times New Roman,serif" font-size="30.00"> &#160;&#160;800 &#160;&#160;0% &#160;&#160;4.27e&#45;07 mol/s &#160;&#160;&#160;9.98E&#45;01</text>
</g>
<!-- R172 -->
<g id="node6" class="node">
<title>R172</title>
<g id="a_node6"><a xlink:href="172.svg" xlink:title="R172">
<polygon fill="azure" stroke="none" points="94,-198.92 0,-198.92 0,-151.92 94,-151.92 94,-198.92"/>
<text text-anchor="middle" x="47" y="-166.92" font-family="Times New Roman,serif" font-size="35.00">R172</text>
</a>
</g>
</g>
<!-- R172&#45;&gt;R66 -->
<g id="edge5" class="edge">
<title>R172&#45;&gt;R66</title>
<path fill="none" stroke="black" d="M93.89,-180.8C96.97,-181.05 100.03,-181.26 103,-181.42 315.57,-192.98 369.43,-192.98 582,-181.42 584.38,-181.29 586.81,-181.13 589.26,-180.94"/>
<polygon fill="black" stroke="black" points="589.4,-184.36 599.06,-180 588.8,-177.38 589.4,-184.36"/>
<text text-anchor="middle" x="342.5" y="-198.42" font-family="Times New Roman,serif" font-size="30.00"> &#160;&#160;692 &#160;&#160;1% &#160;&#160;0.000646 mol/s &#160;&#160;&#160;9.88E&#45;01</text>
</g>
<!-- R172&#45;&gt;R66 -->
<g id="edge7" class="edge">
<title>R172&#45;&gt;R66</title>
<path fill="none" stroke="black" stroke-width="5" d="M83.56,-151.96C89.81,-148.85 96.43,-146.14 103,-144.42 302.68,-92.02 371.89,-90.43 581.4,-146.54"/>
<polygon fill="black" stroke="black" stroke-width="5" points="573.85,-154.18 595.44,-150.96 578.42,-137.29 573.85,-154.18"/>
<text text-anchor="middle" x="342.5" y="-153.42" font-family="Times New Roman,serif" font-size="30.00"> &#160;&#160;905 &#160;&#160;98% &#160;&#160;0.0523 mol/s &#160;&#160;&#160;1.22E&#45;02</text>
</g>
</g>
</svg>
