<?xml version="1.0" encoding="UTF-8" standalone="no"?>
<!DOCTYPE svg PUBLIC "-//W3C//DTD SVG 1.1//EN"
 "http://www.w3.org/Graphics/SVG/1.1/DTD/svg11.dtd">
<!-- Generated by graphviz version 8.0.3 (20230416.2022)
 -->
<!-- Title: G Pages: 1 -->
<svg width="564pt" height="338pt"
 viewBox="0.00 0.00 635.00 380.22" xmlns="http://www.w3.org/2000/svg" xmlns:xlink="http://www.w3.org/1999/xlink">
<g id="graph0" class="graph" transform="scale(0.888889 0.888889) rotate(0) translate(4 376.22)">
<title>G</title>
<polygon fill="white" stroke="none" points="-4,4 -4,-376.22 631,-376.22 631,4 -4,4"/>
<text text-anchor="middle" x="313.5" y="-339.42" font-family="Arial" font-size="36.00" fill="blue">Reaction Path Analysis</text>
<!-- R67 -->
<g id="node1" class="node">
<title>R67</title>
<g id="a_node1"><a xlink:href="67.svg" xlink:title="R67">
<polygon fill="azure" stroke="none" points="76,-192.72 0,-192.72 0,-145.72 76,-145.72 76,-192.72"/>
<text text-anchor="middle" x="38" y="-160.72" font-family="Times New Roman,serif" font-size="35.00">R67</text>
</a>
</g>
</g>
<!-- R6 -->
<g id="node2" class="node">
<title>R6</title>
<g id="a_node2"><a xlink:href="6.svg" xlink:title="R6">
<polygon fill="azure" stroke="none" points="618,-248.72 560,-248.72 560,-201.72 618,-201.72 618,-248.72"/>
<text text-anchor="middle" x="589" y="-216.72" font-family="Times New Roman,serif" font-size="35.00">R6</text>
</a>
</g>
</g>
<!-- R67&#45;&gt;R6 -->
<g id="edge1" class="edge">
<title>R67&#45;&gt;R6</title>
<path fill="none" stroke="black" d="M43.67,-192.32C49.37,-213.85 61.35,-244.74 85,-259.22 171.62,-312.22 445.54,-290.99 542,-259.22 545.81,-257.96 549.56,-256.26 553.18,-254.27"/>
<polygon fill="black" stroke="black" points="554.77,-256.78 561.39,-248.5 551.06,-250.85 554.77,-256.78"/>
<text text-anchor="middle" x="313.5" y="-300.22" font-family="Times New Roman,serif" font-size="30.00"> &#160;&#160;73 &#160;&#160;0% &#160;&#160;1.67e&#45;05 mol/s &#160;&#160;&#160;2.43E&#45;02</text>
</g>
<!-- R67&#45;&gt;R6 -->
<g id="edge2" class="edge">
<title>R67&#45;&gt;R6</title>
<path fill="none" stroke="black" d="M65.18,-192.63C71.3,-196.9 78.07,-200.77 85,-203.22 132.93,-220.12 491.25,-219.51 542,-222.22 544.4,-222.34 546.88,-222.48 549.37,-222.63"/>
<polygon fill="black" stroke="black" points="549.08,-226.18 559.28,-223.3 549.51,-219.19 549.08,-226.18"/>
<text text-anchor="middle" x="313.5" y="-231.22" font-family="Times New Roman,serif" font-size="30.00"> &#160;&#160;73 &#160;&#160;0% &#160;&#160;1.67e&#45;05 mol/s &#160;&#160;&#160;2.43E&#45;02</text>
</g>
<!-- R67&#45;&gt;R6 -->
<g id="edge3" class="edge">
<title>R67&#45;&gt;R6</title>
<path fill="none" stroke="black" d="M75.65,-166.61C78.81,-166.45 81.96,-166.31 85,-166.22 135.75,-164.56 496.37,-143.93 542,-166.22 553.73,-171.95 563.35,-182.28 570.7,-192.71"/>
<polygon fill="black" stroke="black" points="568.2,-194.29 576.57,-200.79 574.08,-190.49 568.2,-194.29"/>
<text text-anchor="middle" x="313.5" y="-175.22" font-family="Times New Roman,serif" font-size="30.00"> &#160;&#160;73 &#160;&#160;0% &#160;&#160;1.67e&#45;05 mol/s &#160;&#160;&#160;2.43E&#45;02</text>
</g>
<!-- R2 -->
<g id="node3" class="node">
<title>R2</title>
<g id="a_node3"><a xlink:href="2.svg" xlink:title="R2">
<polygon fill="azure" stroke="none" points="618,-136.72 560,-136.72 560,-89.72 618,-89.72 618,-136.72"/>
<text text-anchor="middle" x="589" y="-104.72" font-family="Times New Roman,serif" font-size="35.00">R2</text>
</a>
</g>
</g>
<!-- R67&#45;&gt;R2 -->
<g id="edge4" class="edge">
<title>R67&#45;&gt;R2</title>
<path fill="none" stroke="black" stroke-width="5" d="M53.51,-145.77C61.4,-135.28 72.17,-124 85,-118.22 164.99,-82.17 429.29,-99.63 539.29,-108.81"/>
<polygon fill="black" stroke="black" stroke-width="5" points="533.34,-117.59 554.01,-110.59 534.84,-100.16 533.34,-117.59"/>
<text text-anchor="middle" x="313.5" y="-127.22" font-family="Times New Roman,serif" font-size="30.00"> &#160;&#160;236 &#160;&#160;99% &#160;&#160;0.124 mol/s &#160;&#160;&#160;3.46E&#45;06</text>
</g>
<!-- R19 -->
<g id="node4" class="node">
<title>R19</title>
<g id="a_node4"><a xlink:href="19.svg" xlink:title="R19">
<polygon fill="azure" stroke="none" points="627,-71.72 551,-71.72 551,-24.72 627,-24.72 627,-71.72"/>
<text text-anchor="middle" x="589" y="-39.72" font-family="Times New Roman,serif" font-size="35.00">R19</text>
</a>
</g>
</g>
<!-- R67&#45;&gt;R19 -->
<g id="edge5" class="edge">
<title>R67&#45;&gt;R19</title>
<path fill="none" stroke="black" stroke-width="5" d="M41.38,-146.1C45.43,-120.05 56.26,-78.8 85,-59.22 221.5,33.83 430.84,-4.6 530.9,-31.03"/>
<polygon fill="black" stroke="black" stroke-width="5" points="523.48,-38.71 545.09,-35.59 528.13,-21.84 523.48,-38.71"/>
<text text-anchor="middle" x="313.5" y="-68.22" font-family="Times New Roman,serif" font-size="30.00"> &#160;&#160;236 &#160;&#160;99% &#160;&#160;0.124 mol/s &#160;&#160;&#160;3.46E&#45;06</text>
</g>
</g>
</svg>
