<?xml version="1.0" encoding="UTF-8" standalone="no"?>
<!DOCTYPE svg PUBLIC "-//W3C//DTD SVG 1.1//EN"
 "http://www.w3.org/Graphics/SVG/1.1/DTD/svg11.dtd">
<!-- Generated by graphviz version 8.0.3 (20230416.2022)
 -->
<!-- Title: G Pages: 1 -->
<svg width="640pt" height="159pt"
 viewBox="0.00 0.00 720.00 178.77" xmlns="http://www.w3.org/2000/svg" xmlns:xlink="http://www.w3.org/1999/xlink">
<g id="graph0" class="graph" transform="scale(0.490421 0.490421) rotate(0) translate(4 320.01)">
<title>G</title>
<polygon fill="white" stroke="none" points="-4,4 -4,-320.01 1301,-320.01 1301,4 -4,4"/>
<text text-anchor="middle" x="648.5" y="-283.21" font-family="Arial" font-size="36.00" fill="blue">Reaction Path Analysis</text>
<!-- R69 -->
<g id="node1" class="node">
<title>R69</title>
<g id="a_node1"><a xlink:href="69.svg" xlink:title="R69">
<polygon fill="azure" stroke="none" points="691,-144.51 615,-144.51 615,-97.51 691,-97.51 691,-144.51"/>
<text text-anchor="middle" x="653" y="-112.51" font-family="Times New Roman,serif" font-size="35.00">R69</text>
</a>
</g>
</g>
<!-- R13 -->
<g id="node2" class="node">
<title>R13</title>
<g id="a_node2"><a xlink:href="13.svg" xlink:title="R13">
<polygon fill="azure" stroke="none" points="1297,-242.51 1221,-242.51 1221,-195.51 1297,-195.51 1297,-242.51"/>
<text text-anchor="middle" x="1259" y="-210.51" font-family="Times New Roman,serif" font-size="35.00">R13</text>
</a>
</g>
</g>
<!-- R69&#45;&gt;R13 -->
<g id="edge1" class="edge">
<title>R69&#45;&gt;R13</title>
<path fill="none" stroke="black" stroke-width="5" d="M675.32,-144.41C691.19,-160.09 714.3,-179.54 739,-189.01 897.09,-249.65 1102.19,-237.52 1200.5,-226.72"/>
<polygon fill="black" stroke="black" stroke-width="5" points="1196.34,-235.31 1215.19,-224.29 1194.3,-217.93 1196.34,-235.31"/>
<text text-anchor="middle" x="956" y="-244.01" font-family="Times New Roman,serif" font-size="30.00"> &#160;&#160;75 &#160;&#160;98% &#160;&#160;1.85 mol/s &#160;&#160;&#160;2.31E&#45;07</text>
</g>
<!-- R6 -->
<g id="node3" class="node">
<title>R6</title>
<g id="a_node3"><a xlink:href="6.svg" xlink:title="R6">
<polygon fill="azure" stroke="none" points="1288,-177.51 1230,-177.51 1230,-130.51 1288,-130.51 1288,-177.51"/>
<text text-anchor="middle" x="1259" y="-145.51" font-family="Times New Roman,serif" font-size="35.00">R6</text>
</a>
</g>
</g>
<!-- R69&#45;&gt;R6 -->
<g id="edge2" class="edge">
<title>R69&#45;&gt;R6</title>
<path fill="none" stroke="black" stroke-width="5" d="M690.74,-126.47C705.68,-128.51 723.14,-130.65 739,-132.01 911.5,-146.8 1117.16,-151.78 1209.23,-153.35"/>
<polygon fill="black" stroke="black" stroke-width="5" points="1203.96,-162.11 1224.1,-153.68 1204.24,-144.61 1203.96,-162.11"/>
<text text-anchor="middle" x="956" y="-161.01" font-family="Times New Roman,serif" font-size="30.00"> &#160;&#160;75 &#160;&#160;98% &#160;&#160;1.85 mol/s &#160;&#160;&#160;2.31E&#45;07</text>
</g>
<!-- R2 -->
<g id="node5" class="node">
<title>R2</title>
<g id="a_node5"><a xlink:href="2.svg" xlink:title="R2">
<polygon fill="azure" stroke="none" points="1288,-112.51 1230,-112.51 1230,-65.51 1288,-65.51 1288,-112.51"/>
<text text-anchor="middle" x="1259" y="-80.51" font-family="Times New Roman,serif" font-size="35.00">R2</text>
</a>
</g>
</g>
<!-- R69&#45;&gt;R2 -->
<g id="edge4" class="edge">
<title>R69&#45;&gt;R2</title>
<path fill="none" stroke="black" d="M690.86,-109.47C705.67,-105.36 722.99,-101.21 739,-99.01 917.16,-74.58 1132.9,-82.16 1219.4,-86.69"/>
<polygon fill="black" stroke="black" points="1219.08,-90.23 1229.25,-87.28 1219.46,-83.25 1219.08,-90.23"/>
<text text-anchor="middle" x="956" y="-108.01" font-family="Times New Roman,serif" font-size="30.00"> &#160;&#160;241 &#160;&#160;1% &#160;&#160;0.023 mol/s &#160;&#160;&#160;1.86E&#45;05</text>
</g>
<!-- R27 -->
<g id="node6" class="node">
<title>R27</title>
<g id="a_node6"><a xlink:href="27.svg" xlink:title="R27">
<polygon fill="azure" stroke="none" points="1297,-47.51 1221,-47.51 1221,-0.51 1297,-0.51 1297,-47.51"/>
<text text-anchor="middle" x="1259" y="-15.51" font-family="Times New Roman,serif" font-size="35.00">R27</text>
</a>
</g>
</g>
<!-- R69&#45;&gt;R27 -->
<g id="edge5" class="edge">
<title>R69&#45;&gt;R27</title>
<path fill="none" stroke="black" d="M672.12,-97.72C687.68,-79.7 711.85,-56.02 739,-45.01 901.43,20.81 1116.36,-1.21 1210.46,-15.63"/>
<polygon fill="black" stroke="black" points="1209.9,-19.24 1220.32,-17.34 1210.99,-12.33 1209.9,-19.24"/>
<text text-anchor="middle" x="956" y="-54.01" font-family="Times New Roman,serif" font-size="30.00"> &#160;&#160;241 &#160;&#160;1% &#160;&#160;0.023 mol/s &#160;&#160;&#160;1.86E&#45;05</text>
</g>
<!-- R162 -->
<g id="node4" class="node">
<title>R162</title>
<g id="a_node4"><a xlink:href="162.svg" xlink:title="R162">
<polygon fill="azure" stroke="none" points="94,-144.51 0,-144.51 0,-97.51 94,-97.51 94,-144.51"/>
<text text-anchor="middle" x="47" y="-112.51" font-family="Times New Roman,serif" font-size="35.00">R162</text>
</a>
</g>
</g>
<!-- R162&#45;&gt;R69 -->
<g id="edge3" class="edge">
<title>R162&#45;&gt;R69</title>
<path fill="none" stroke="black" stroke-width="5" d="M93.89,-121.01C202.5,-121.01 475.09,-121.01 594.48,-121.01"/>
<polygon fill="black" stroke="black" stroke-width="5" points="589.24,-129.76 609.24,-121.01 589.24,-112.26 589.24,-129.76"/>
<text text-anchor="middle" x="350" y="-130.01" font-family="Times New Roman,serif" font-size="30.00"> &#160;&#160;214 &#160;&#160;99% &#160;&#160;0.000648 mol/s &#160;&#160;&#160;6.59E&#45;04</text>
</g>
</g>
</svg>
