<?xml version="1.0" encoding="UTF-8" standalone="no"?>
<!DOCTYPE svg PUBLIC "-//W3C//DTD SVG 1.1//EN"
 "http://www.w3.org/Graphics/SVG/1.1/DTD/svg11.dtd">
<!-- Generated by graphviz version 8.0.3 (20230416.2022)
 -->
<!-- Title: G Pages: 1 -->
<svg width="640pt" height="271pt"
 viewBox="0.00 0.00 720.00 304.96" xmlns="http://www.w3.org/2000/svg" xmlns:xlink="http://www.w3.org/1999/xlink">
<g id="graph0" class="graph" transform="scale(0.524161 0.524161) rotate(0) translate(4 513.16)">
<title>G</title>
<polygon fill="white" stroke="none" points="-4,4 -4,-513.16 1217,-513.16 1217,4 -4,4"/>
<text text-anchor="middle" x="606.5" y="-476.36" font-family="Arial" font-size="36.00" fill="blue">Reaction Path Analysis</text>
<!-- R7 -->
<g id="node1" class="node">
<title>R7</title>
<g id="a_node1"><a xlink:href="7.svg" xlink:title="R7">
<polygon fill="azure" stroke="none" points="640,-242.66 582,-242.66 582,-195.66 640,-195.66 640,-242.66"/>
<text text-anchor="middle" x="611" y="-210.66" font-family="Times New Roman,serif" font-size="35.00">R7</text>
</a>
</g>
</g>
<!-- R1 -->
<g id="node2" class="node">
<title>R1</title>
<g id="a_node2"><a xlink:href="1.svg" xlink:title="R1">
<polygon fill="azure" stroke="none" points="1213,-275.66 1155,-275.66 1155,-228.66 1213,-228.66 1213,-275.66"/>
<text text-anchor="middle" x="1184" y="-243.66" font-family="Times New Roman,serif" font-size="35.00">R1</text>
</a>
</g>
</g>
<!-- R7&#45;&gt;R1 -->
<g id="edge1" class="edge">
<title>R7&#45;&gt;R1</title>
<path fill="none" stroke="black" stroke-width="6" d="M639.9,-225.77C648.11,-227.48 657.12,-229.12 665.5,-230.16 836.84,-251.27 1042.23,-253.09 1134.24,-252.68"/>
<polygon fill="black" stroke="black" stroke-width="6" points="1129.17,-263.17 1149.1,-252.54 1129.03,-242.17 1129.17,-263.17"/>
<text text-anchor="middle" x="897.5" y="-261.16" font-family="Times New Roman,serif" font-size="30.00"> &#160;&#160;7 &#160;&#160;100% &#160;&#160;0.00116 mol/s &#160;&#160;&#160;3.69E&#45;04</text>
</g>
<!-- R3 -->
<g id="node3" class="node">
<title>R3</title>
<g id="a_node3"><a xlink:href="3.svg" xlink:title="R3">
<polygon fill="azure" stroke="none" points="1213,-210.66 1155,-210.66 1155,-163.66 1213,-163.66 1213,-210.66"/>
<text text-anchor="middle" x="1184" y="-178.66" font-family="Times New Roman,serif" font-size="35.00">R3</text>
</a>
</g>
</g>
<!-- R7&#45;&gt;R3 -->
<g id="edge2" class="edge">
<title>R7&#45;&gt;R3</title>
<path fill="none" stroke="black" stroke-width="6" d="M639.98,-205.37C648.03,-202.04 656.95,-198.93 665.5,-197.16 834.79,-162 1041.95,-174.04 1134.41,-182.19"/>
<polygon fill="black" stroke="black" stroke-width="6" points="1128.22,-192.72 1149.11,-184.13 1130.17,-171.81 1128.22,-192.72"/>
<text text-anchor="middle" x="897.5" y="-206.16" font-family="Times New Roman,serif" font-size="30.00"> &#160;&#160;7 &#160;&#160;100% &#160;&#160;0.00116 mol/s &#160;&#160;&#160;3.69E&#45;04</text>
</g>
<!-- R20 -->
<g id="node4" class="node">
<title>R20</title>
<g id="a_node4"><a xlink:href="20.svg" xlink:title="R20">
<polygon fill="azure" stroke="none" points="76,-405.66 0,-405.66 0,-358.66 76,-358.66 76,-405.66"/>
<text text-anchor="middle" x="38" y="-373.66" font-family="Times New Roman,serif" font-size="35.00">R20</text>
</a>
</g>
</g>
<!-- R20&#45;&gt;R7 -->
<g id="edge3" class="edge">
<title>R20&#45;&gt;R7</title>
<path fill="none" stroke="black" d="M75.8,-393.43C168.57,-419.41 415.15,-473 564,-360.16 596.91,-335.21 606.64,-286.18 609.31,-253.04"/>
<polygon fill="black" stroke="black" points="612.84,-253.66 609.98,-243.47 605.86,-253.23 612.84,-253.66"/>
<text text-anchor="middle" x="324.5" y="-437.16" font-family="Times New Roman,serif" font-size="30.00"> &#160;&#160;24 &#160;&#160;0% &#160;&#160;3.52e&#45;06 mol/s &#160;&#160;&#160;9.78E&#45;02</text>
</g>
<!-- R35 -->
<g id="node5" class="node">
<title>R35</title>
<g id="a_node5"><a xlink:href="35.svg" xlink:title="R35">
<polygon fill="azure" stroke="none" points="76,-340.66 0,-340.66 0,-293.66 76,-293.66 76,-340.66"/>
<text text-anchor="middle" x="38" y="-308.66" font-family="Times New Roman,serif" font-size="35.00">R35</text>
</a>
</g>
</g>
<!-- R35&#45;&gt;R7 -->
<g id="edge4" class="edge">
<title>R35&#45;&gt;R7</title>
<path fill="none" stroke="black" d="M75.72,-319.5C180.9,-325.55 481.01,-338.07 564,-290.16 578.67,-281.68 589.47,-266.43 596.89,-252.22"/>
<polygon fill="black" stroke="black" points="600.32,-254.18 601.5,-243.65 594.01,-251.14 600.32,-254.18"/>
<text text-anchor="middle" x="324.5" y="-334.16" font-family="Times New Roman,serif" font-size="30.00"> &#160;&#160;40 &#160;&#160;0% &#160;&#160;1.17e&#45;05 mol/s &#160;&#160;&#160;3.40E&#45;02</text>
</g>
<!-- R49 -->
<g id="node6" class="node">
<title>R49</title>
<g id="a_node6"><a xlink:href="49.svg" xlink:title="R49">
<polygon fill="azure" stroke="none" points="76,-275.66 0,-275.66 0,-228.66 76,-228.66 76,-275.66"/>
<text text-anchor="middle" x="38" y="-243.66" font-family="Times New Roman,serif" font-size="35.00">R49</text>
</a>
</g>
</g>
<!-- R49&#45;&gt;R7 -->
<g id="edge5" class="edge">
<title>R49&#45;&gt;R7</title>
<path fill="none" stroke="black" stroke-width="4" d="M75.82,-253.04C158.83,-254.53 367.25,-255.4 561.83,-229.51"/>
<polygon fill="black" stroke="black" stroke-width="4" points="558.58,-236.34 577.43,-226.66 556.66,-222.47 558.58,-236.34"/>
<text text-anchor="middle" x="324.5" y="-262.16" font-family="Times New Roman,serif" font-size="30.00"> &#160;&#160;55 &#160;&#160;76% &#160;&#160;0.00282 mol/s &#160;&#160;&#160;1.52E&#45;04</text>
</g>
<!-- R73 -->
<g id="node7" class="node">
<title>R73</title>
<g id="a_node7"><a xlink:href="73.svg" xlink:title="R73">
<polygon fill="azure" stroke="none" points="76,-210.66 0,-210.66 0,-163.66 76,-163.66 76,-210.66"/>
<text text-anchor="middle" x="38" y="-178.66" font-family="Times New Roman,serif" font-size="35.00">R73</text>
</a>
</g>
</g>
<!-- R73&#45;&gt;R7 -->
<g id="edge6" class="edge">
<title>R73&#45;&gt;R7</title>
<path fill="none" stroke="black" d="M75.95,-182.57C162.63,-172.93 385.25,-154.82 564,-197.16 566.81,-197.82 569.65,-198.68 572.47,-199.66"/>
<polygon fill="black" stroke="black" points="570.9,-203.2 581.48,-203.67 573.5,-196.7 570.9,-203.2"/>
<text text-anchor="middle" x="324.5" y="-206.16" font-family="Times New Roman,serif" font-size="30.00"> &#160;&#160;79 &#160;&#160;0% &#160;&#160;2.65e&#45;05 mol/s &#160;&#160;&#160;1.56E&#45;02</text>
</g>
<!-- R74 -->
<g id="node8" class="node">
<title>R74</title>
<g id="a_node8"><a xlink:href="74.svg" xlink:title="R74">
<polygon fill="azure" stroke="none" points="76,-145.66 0,-145.66 0,-98.66 76,-98.66 76,-145.66"/>
<text text-anchor="middle" x="38" y="-113.66" font-family="Times New Roman,serif" font-size="35.00">R74</text>
</a>
</g>
</g>
<!-- R74&#45;&gt;R7 -->
<g id="edge7" class="edge">
<title>R74&#45;&gt;R7</title>
<path fill="none" stroke="black" stroke-width="2" d="M75.86,-118.25C181.4,-107.76 482.41,-83.1 564,-133.16 582.79,-144.68 594.36,-166.72 601.2,-185.61"/>
<polygon fill="black" stroke="black" stroke-width="2" points="598.16,-185.57 604.62,-193.97 604.81,-183.38 598.16,-185.57"/>
<text text-anchor="middle" x="324.5" y="-142.16" font-family="Times New Roman,serif" font-size="30.00"> &#160;&#160;80 &#160;&#160;22% &#160;&#160;0.000825 mol/s &#160;&#160;&#160;5.18E&#45;04</text>
</g>
<!-- R75 -->
<g id="node9" class="node">
<title>R75</title>
<g id="a_node9"><a xlink:href="75.svg" xlink:title="R75">
<polygon fill="azure" stroke="none" points="76,-80.66 0,-80.66 0,-33.66 76,-33.66 76,-80.66"/>
<text text-anchor="middle" x="38" y="-48.66" font-family="Times New Roman,serif" font-size="35.00">R75</text>
</a>
</g>
</g>
<!-- R75&#45;&gt;R7 -->
<g id="edge8" class="edge">
<title>R75&#45;&gt;R7</title>
<path fill="none" stroke="black" d="M75.8,-44.45C168.58,-14.94 415.18,47.48 564,-65.16 600.7,-92.93 609.2,-148.84 610.61,-185.1"/>
<polygon fill="black" stroke="black" points="607.12,-184.75 610.84,-194.67 614.12,-184.6 607.12,-184.75"/>
<text text-anchor="middle" x="324.5" y="-74.16" font-family="Times New Roman,serif" font-size="30.00"> &#160;&#160;81 &#160;&#160;0% &#160;&#160;7.34e&#45;06 mol/s &#160;&#160;&#160;5.22E&#45;02</text>
</g>
</g>
</svg>
