<?xml version="1.0" encoding="UTF-8" standalone="no"?>
<!DOCTYPE svg PUBLIC "-//W3C//DTD SVG 1.1//EN"
 "http://www.w3.org/Graphics/SVG/1.1/DTD/svg11.dtd">
<!-- Generated by graphviz version 8.0.3 (20230416.2022)
 -->
<!-- Title: G Pages: 1 -->
<svg width="640pt" height="197pt"
 viewBox="0.00 0.00 720.00 221.92" xmlns="http://www.w3.org/2000/svg" xmlns:xlink="http://www.w3.org/1999/xlink">
<g id="graph0" class="graph" transform="scale(0.487062 0.487062) rotate(0) translate(4 401)">
<title>G</title>
<polygon fill="white" stroke="none" points="-4,4 -4,-401 1310,-401 1310,4 -4,4"/>
<text text-anchor="middle" x="653" y="-364.2" font-family="Arial" font-size="36.00" fill="blue">Reaction Path Analysis</text>
<!-- R71 -->
<g id="node1" class="node">
<title>R71</title>
<g id="a_node1"><a xlink:href="71.svg" xlink:title="R71">
<polygon fill="azure" stroke="none" points="691,-200.5 615,-200.5 615,-153.5 691,-153.5 691,-200.5"/>
<text text-anchor="middle" x="653" y="-168.5" font-family="Times New Roman,serif" font-size="35.00">R71</text>
</a>
</g>
</g>
<!-- R6 -->
<g id="node2" class="node">
<title>R6</title>
<g id="a_node2"><a xlink:href="6.svg" xlink:title="R6">
<polygon fill="azure" stroke="none" points="1288,-330.5 1230,-330.5 1230,-283.5 1288,-283.5 1288,-330.5"/>
<text text-anchor="middle" x="1259" y="-298.5" font-family="Times New Roman,serif" font-size="35.00">R6</text>
</a>
</g>
</g>
<!-- R71&#45;&gt;R6 -->
<g id="edge1" class="edge">
<title>R71&#45;&gt;R6</title>
<path fill="none" stroke="black" stroke-width="3" d="M660.18,-200.27C667.99,-224.55 683.97,-261.48 712.5,-279 797.28,-331.06 1109.54,-316.59 1219.43,-309.68"/>
<polygon fill="black" stroke="black" stroke-width="3" points="1216.57,-313.11 1226.32,-308.98 1216.12,-306.13 1216.57,-313.11"/>
<text text-anchor="middle" x="956" y="-325" font-family="Times New Roman,serif" font-size="30.00"> &#160;&#160;77 &#160;&#160;45% &#160;&#160;9.98e&#45;06 mol/s &#160;&#160;&#160;3.95E&#45;02</text>
</g>
<!-- R14 -->
<g id="node3" class="node">
<title>R14</title>
<g id="a_node3"><a xlink:href="14.svg" xlink:title="R14">
<polygon fill="azure" stroke="none" points="1297,-265.5 1221,-265.5 1221,-218.5 1297,-218.5 1297,-265.5"/>
<text text-anchor="middle" x="1259" y="-233.5" font-family="Times New Roman,serif" font-size="35.00">R14</text>
</a>
</g>
</g>
<!-- R71&#45;&gt;R14 -->
<g id="edge2" class="edge">
<title>R71&#45;&gt;R14</title>
<path fill="none" stroke="black" stroke-width="3" d="M684.4,-200.33C693.05,-205.79 702.76,-210.91 712.5,-214 804.45,-243.22 1094.85,-243.68 1210.14,-242.64"/>
<polygon fill="black" stroke="black" stroke-width="3" points="1207.1,-246.13 1217.06,-242.53 1207.03,-239.13 1207.1,-246.13"/>
<text text-anchor="middle" x="956" y="-251" font-family="Times New Roman,serif" font-size="30.00"> &#160;&#160;77 &#160;&#160;45% &#160;&#160;9.98e&#45;06 mol/s &#160;&#160;&#160;3.95E&#45;02</text>
</g>
<!-- R0 -->
<g id="node4" class="node">
<title>R0</title>
<g id="a_node4"><a xlink:href="0.svg" xlink:title="R0">
<polygon fill="azure" stroke="none" points="1288,-200.5 1230,-200.5 1230,-153.5 1288,-153.5 1288,-200.5"/>
<text text-anchor="middle" x="1259" y="-168.5" font-family="Times New Roman,serif" font-size="35.00">R0</text>
</a>
</g>
</g>
<!-- R71&#45;&gt;R0 -->
<g id="edge3" class="edge">
<title>R71&#45;&gt;R0</title>
<path fill="none" stroke="black" stroke-width="3" d="M690.87,-177C798.23,-177 1109.92,-177 1219.42,-177"/>
<polygon fill="black" stroke="black" stroke-width="3" points="1216.26,-180.5 1226.26,-177 1216.26,-173.5 1216.26,-180.5"/>
<text text-anchor="middle" x="956" y="-186" font-family="Times New Roman,serif" font-size="30.00"> &#160;&#160;135 &#160;&#160;52% &#160;&#160;1.16e&#45;05 mol/s &#160;&#160;&#160;3.43E&#45;02</text>
</g>
<!-- R68 -->
<g id="node5" class="node">
<title>R68</title>
<g id="a_node5"><a xlink:href="68.svg" xlink:title="R68">
<polygon fill="azure" stroke="none" points="1297,-135.5 1221,-135.5 1221,-88.5 1297,-88.5 1297,-135.5"/>
<text text-anchor="middle" x="1259" y="-103.5" font-family="Times New Roman,serif" font-size="35.00">R68</text>
</a>
</g>
</g>
<!-- R71&#45;&gt;R68 -->
<g id="edge4" class="edge">
<title>R71&#45;&gt;R68</title>
<path fill="none" stroke="black" stroke-width="3" d="M684.4,-153.67C693.05,-148.21 702.76,-143.1 712.5,-140 888.98,-83.93 1113.61,-97.11 1210.26,-106.52"/>
<polygon fill="black" stroke="black" stroke-width="3" points="1206.83,-110.09 1217.13,-107.61 1207.53,-103.13 1206.83,-110.09"/>
<text text-anchor="middle" x="956" y="-149" font-family="Times New Roman,serif" font-size="30.00"> &#160;&#160;135 &#160;&#160;52% &#160;&#160;1.16e&#45;05 mol/s &#160;&#160;&#160;3.43E&#45;02</text>
</g>
<!-- R104 -->
<g id="node7" class="node">
<title>R104</title>
<g id="a_node7"><a xlink:href="104.svg" xlink:title="R104">
<polygon fill="azure" stroke="none" points="1306,-70.5 1212,-70.5 1212,-23.5 1306,-23.5 1306,-70.5"/>
<text text-anchor="middle" x="1259" y="-38.5" font-family="Times New Roman,serif" font-size="35.00">R104</text>
</a>
</g>
</g>
<!-- R71&#45;&gt;R104 -->
<g id="edge6" class="edge">
<title>R71&#45;&gt;R104</title>
<path fill="none" stroke="black" d="M658.47,-153.68C665.08,-126.39 680.31,-82.35 712.5,-62 866.36,35.29 1096.58,-5.02 1201.84,-31.18"/>
<polygon fill="black" stroke="black" points="1200.68,-34.75 1211.24,-33.82 1202.4,-27.97 1200.68,-34.75"/>
<text text-anchor="middle" x="956" y="-71" font-family="Times New Roman,serif" font-size="30.00"> &#160;&#160;801 &#160;&#160;1% &#160;&#160;4.28e&#45;07 mol/s &#160;&#160;&#160;1.00E+00</text>
</g>
<!-- R142 -->
<g id="node6" class="node">
<title>R142</title>
<g id="a_node6"><a xlink:href="142.svg" xlink:title="R142">
<polygon fill="azure" stroke="none" points="94,-200.5 0,-200.5 0,-153.5 94,-153.5 94,-200.5"/>
<text text-anchor="middle" x="47" y="-168.5" font-family="Times New Roman,serif" font-size="35.00">R142</text>
</a>
</g>
</g>
<!-- R142&#45;&gt;R71 -->
<g id="edge5" class="edge">
<title>R142&#45;&gt;R71</title>
<path fill="none" stroke="black" d="M93.89,-182.39C96.97,-182.63 100.03,-182.84 103,-183 322.23,-194.93 377.77,-194.93 597,-183 599.38,-182.87 601.81,-182.71 604.26,-182.53"/>
<polygon fill="black" stroke="black" points="604.4,-185.94 614.06,-181.59 603.8,-178.97 604.4,-185.94"/>
<text text-anchor="middle" x="350" y="-200" font-family="Times New Roman,serif" font-size="30.00"> &#160;&#160;668 &#160;&#160;10% &#160;&#160;0.000581 mol/s &#160;&#160;&#160;9.00E&#45;01</text>
</g>
<!-- R142&#45;&gt;R71 -->
<g id="edge7" class="edge">
<title>R142&#45;&gt;R71</title>
<path fill="none" stroke="black" stroke-width="5" d="M83.56,-153.55C89.81,-150.44 96.43,-147.73 103,-146 309.14,-91.91 380.45,-90.32 596.48,-148.15"/>
<polygon fill="black" stroke="black" stroke-width="5" points="588.85,-155.77 610.44,-152.55 593.42,-138.88 588.85,-155.77"/>
<text text-anchor="middle" x="350" y="-155" font-family="Times New Roman,serif" font-size="30.00"> &#160;&#160;906 &#160;&#160;89% &#160;&#160;0.00521 mol/s &#160;&#160;&#160;1.00E&#45;01</text>
</g>
</g>
</svg>
