<?xml version="1.0" encoding="UTF-8" standalone="no"?>
<!DOCTYPE svg PUBLIC "-//W3C//DTD SVG 1.1//EN"
 "http://www.w3.org/Graphics/SVG/1.1/DTD/svg11.dtd">
<!-- Generated by graphviz version 8.0.3 (20230416.2022)
 -->
<!-- Title: G Pages: 1 -->
<svg width="571pt" height="320pt"
 viewBox="0.00 0.00 642.00 360.03" xmlns="http://www.w3.org/2000/svg" xmlns:xlink="http://www.w3.org/1999/xlink">
<g id="graph0" class="graph" transform="scale(0.888889 0.888889) rotate(0) translate(4 356.03)">
<title>G</title>
<polygon fill="white" stroke="none" points="-4,4 -4,-356.03 638,-356.03 638,4 -4,4"/>
<text text-anchor="middle" x="317" y="-319.23" font-family="Arial" font-size="36.00" fill="blue">Reaction Path Analysis</text>
<!-- R72 -->
<g id="node1" class="node">
<title>R72</title>
<g id="a_node1"><a xlink:href="72.svg" xlink:title="R72">
<polygon fill="azure" stroke="none" points="76,-165.53 0,-165.53 0,-118.53 76,-118.53 76,-165.53"/>
<text text-anchor="middle" x="38" y="-133.53" font-family="Times New Roman,serif" font-size="35.00">R72</text>
</a>
</g>
</g>
<!-- R14 -->
<g id="node2" class="node">
<title>R14</title>
<g id="a_node2"><a xlink:href="14.svg" xlink:title="R14">
<polygon fill="azure" stroke="none" points="634,-263.53 558,-263.53 558,-216.53 634,-216.53 634,-263.53"/>
<text text-anchor="middle" x="596" y="-231.53" font-family="Times New Roman,serif" font-size="35.00">R14</text>
</a>
</g>
</g>
<!-- R72&#45;&gt;R14 -->
<g id="edge1" class="edge">
<title>R72&#45;&gt;R14</title>
<path fill="none" stroke="black" stroke-width="4" d="M47.5,-165.52C54.77,-181.89 66.95,-202.59 85,-213.03 229.82,-296.8 438.23,-271.75 537.81,-252.79"/>
<polygon fill="black" stroke="black" stroke-width="4" points="534.95,-260.5 553.18,-249.7 532.19,-246.77 534.95,-260.5"/>
<text text-anchor="middle" x="317" y="-280.03" font-family="Times New Roman,serif" font-size="30.00"> &#160;&#160;78 &#160;&#160;62% &#160;&#160;0.0317 mol/s &#160;&#160;&#160;1.35E&#45;05</text>
</g>
<!-- R6 -->
<g id="node3" class="node">
<title>R6</title>
<g id="a_node3"><a xlink:href="6.svg" xlink:title="R6">
<polygon fill="azure" stroke="none" points="625,-198.53 567,-198.53 567,-151.53 625,-151.53 625,-198.53"/>
<text text-anchor="middle" x="596" y="-166.53" font-family="Times New Roman,serif" font-size="35.00">R6</text>
</a>
</g>
</g>
<!-- R72&#45;&gt;R6 -->
<g id="edge2" class="edge">
<title>R72&#45;&gt;R6</title>
<path fill="none" stroke="black" stroke-width="4" d="M75.79,-151.49C78.89,-152.08 81.99,-152.61 85,-153.03 253.12,-176.54 455.18,-177.19 546.27,-176.02"/>
<polygon fill="black" stroke="black" stroke-width="4" points="541.3,-183.01 561.19,-175.69 541.08,-169.01 541.3,-183.01"/>
<text text-anchor="middle" x="317" y="-185.03" font-family="Times New Roman,serif" font-size="30.00"> &#160;&#160;78 &#160;&#160;62% &#160;&#160;0.0317 mol/s &#160;&#160;&#160;1.35E&#45;05</text>
</g>
<!-- R2 -->
<g id="node4" class="node">
<title>R2</title>
<g id="a_node4"><a xlink:href="2.svg" xlink:title="R2">
<polygon fill="azure" stroke="none" points="625,-133.53 567,-133.53 567,-86.53 625,-86.53 625,-133.53"/>
<text text-anchor="middle" x="596" y="-101.53" font-family="Times New Roman,serif" font-size="35.00">R2</text>
</a>
</g>
</g>
<!-- R72&#45;&gt;R2 -->
<g id="edge3" class="edge">
<title>R72&#45;&gt;R2</title>
<path fill="none" stroke="black" stroke-width="2" d="M75.92,-122.75C78.94,-121.68 81.99,-120.75 85,-120.03 256.74,-79.3 470.18,-95.93 556.3,-105.29"/>
<polygon fill="black" stroke="black" stroke-width="2" points="553.79,-108.87 564.12,-106.5 554.57,-101.91 553.79,-108.87"/>
<text text-anchor="middle" x="317" y="-129.03" font-family="Times New Roman,serif" font-size="30.00"> &#160;&#160;247 &#160;&#160;37% &#160;&#160;0.0192 mol/s &#160;&#160;&#160;2.23E&#45;05</text>
</g>
<!-- R30 -->
<g id="node5" class="node">
<title>R30</title>
<g id="a_node5"><a xlink:href="30.svg" xlink:title="R30">
<polygon fill="azure" stroke="none" points="634,-68.53 558,-68.53 558,-21.53 634,-21.53 634,-68.53"/>
<text text-anchor="middle" x="596" y="-36.53" font-family="Times New Roman,serif" font-size="35.00">R30</text>
</a>
</g>
</g>
<!-- R72&#45;&gt;R30 -->
<g id="edge4" class="edge">
<title>R72&#45;&gt;R30</title>
<path fill="none" stroke="black" stroke-width="2" d="M44.39,-118.85C50.49,-98.39 62.63,-69.76 85,-56.03 232.53,34.54 452.1,-6.79 547.69,-31.39"/>
<polygon fill="black" stroke="black" stroke-width="2" points="545.61,-34.99 556.17,-34.16 547.39,-28.23 545.61,-34.99"/>
<text text-anchor="middle" x="317" y="-65.03" font-family="Times New Roman,serif" font-size="30.00"> &#160;&#160;247 &#160;&#160;37% &#160;&#160;0.0192 mol/s &#160;&#160;&#160;2.23E&#45;05</text>
</g>
</g>
</svg>
