<?xml version="1.0" encoding="UTF-8" standalone="no"?>
<!DOCTYPE svg PUBLIC "-//W3C//DTD SVG 1.1//EN"
 "http://www.w3.org/Graphics/SVG/1.1/DTD/svg11.dtd">
<!-- Generated by graphviz version 8.0.3 (20230416.2022)
 -->
<!-- Title: G Pages: 1 -->
<svg width="640pt" height="175pt"
 viewBox="0.00 0.00 720.00 196.77" xmlns="http://www.w3.org/2000/svg" xmlns:xlink="http://www.w3.org/1999/xlink">
<g id="graph0" class="graph" transform="scale(0.490421 0.490421) rotate(0) translate(4 352.65)">
<title>G</title>
<polygon fill="white" stroke="none" points="-4,4 -4,-352.65 1301,-352.65 1301,4 -4,4"/>
<text text-anchor="middle" x="648.5" y="-315.85" font-family="Arial" font-size="36.00" fill="blue">Reaction Path Analysis</text>
<!-- R75 -->
<g id="node1" class="node">
<title>R75</title>
<g id="a_node1"><a xlink:href="75.svg" xlink:title="R75">
<polygon fill="azure" stroke="none" points="691,-171.15 615,-171.15 615,-124.15 691,-124.15 691,-171.15"/>
<text text-anchor="middle" x="653" y="-139.15" font-family="Times New Roman,serif" font-size="35.00">R75</text>
</a>
</g>
</g>
<!-- R7 -->
<g id="node2" class="node">
<title>R7</title>
<g id="a_node2"><a xlink:href="7.svg" xlink:title="R7">
<polygon fill="azure" stroke="none" points="1288,-204.15 1230,-204.15 1230,-157.15 1288,-157.15 1288,-204.15"/>
<text text-anchor="middle" x="1259" y="-172.15" font-family="Times New Roman,serif" font-size="35.00">R7</text>
</a>
</g>
</g>
<!-- R75&#45;&gt;R7 -->
<g id="edge1" class="edge">
<title>R75&#45;&gt;R7</title>
<path fill="none" stroke="black" stroke-width="6" d="M690.7,-155.4C697.9,-156.68 705.41,-157.85 712.5,-158.65 894.96,-179.37 1113.69,-181.33 1209.28,-181.06"/>
<polygon fill="black" stroke="black" stroke-width="6" points="1204.13,-191.55 1224.07,-180.96 1204.02,-170.55 1204.13,-191.55"/>
<text text-anchor="middle" x="956" y="-189.65" font-family="Times New Roman,serif" font-size="30.00"> &#160;&#160;81 &#160;&#160;100% &#160;&#160;7.34e&#45;06 mol/s &#160;&#160;&#160;5.22E&#45;02</text>
</g>
<!-- R14 -->
<g id="node3" class="node">
<title>R14</title>
<g id="a_node3"><a xlink:href="14.svg" xlink:title="R14">
<polygon fill="azure" stroke="none" points="1297,-139.15 1221,-139.15 1221,-92.15 1297,-92.15 1297,-139.15"/>
<text text-anchor="middle" x="1259" y="-107.15" font-family="Times New Roman,serif" font-size="35.00">R14</text>
</a>
</g>
</g>
<!-- R75&#45;&gt;R14 -->
<g id="edge2" class="edge">
<title>R75&#45;&gt;R14</title>
<path fill="none" stroke="black" stroke-width="6" d="M690.9,-131.62C697.95,-129.18 705.36,-127.02 712.5,-125.65 887.65,-92.15 1100.2,-102.51 1200.42,-110.34"/>
<polygon fill="black" stroke="black" stroke-width="6" points="1194.37,-120.88 1215.17,-112.06 1196.1,-99.95 1194.37,-120.88"/>
<text text-anchor="middle" x="956" y="-134.65" font-family="Times New Roman,serif" font-size="30.00"> &#160;&#160;81 &#160;&#160;100% &#160;&#160;7.34e&#45;06 mol/s &#160;&#160;&#160;5.22E&#45;02</text>
</g>
<!-- R0 -->
<g id="node4" class="node">
<title>R0</title>
<g id="a_node4"><a xlink:href="0.svg" xlink:title="R0">
<polygon fill="azure" stroke="none" points="76,-264.15 18,-264.15 18,-217.15 76,-217.15 76,-264.15"/>
<text text-anchor="middle" x="47" y="-232.15" font-family="Times New Roman,serif" font-size="35.00">R0</text>
</a>
</g>
</g>
<!-- R0&#45;&gt;R75 -->
<g id="edge3" class="edge">
<title>R0&#45;&gt;R75</title>
<path fill="none" stroke="black" d="M75.87,-246.46C159.9,-262.49 416.05,-300.59 597,-211.65 611.39,-204.58 623.53,-191.86 632.71,-179.61"/>
<polygon fill="black" stroke="black" points="635.97,-182.06 638.86,-171.86 630.25,-178.03 635.97,-182.06"/>
<text text-anchor="middle" x="350" y="-276.65" font-family="Times New Roman,serif" font-size="30.00"> &#160;&#160;139 &#160;&#160;0% &#160;&#160;4.05e&#45;07 mol/s &#160;&#160;&#160;9.49E&#45;01</text>
</g>
<!-- R73 -->
<g id="node5" class="node">
<title>R73</title>
<g id="a_node5"><a xlink:href="73.svg" xlink:title="R73">
<polygon fill="azure" stroke="none" points="85,-199.15 9,-199.15 9,-152.15 85,-152.15 85,-199.15"/>
<text text-anchor="middle" x="47" y="-167.15" font-family="Times New Roman,serif" font-size="35.00">R73</text>
</a>
</g>
</g>
<!-- R73&#45;&gt;R75 -->
<g id="edge4" class="edge">
<title>R73&#45;&gt;R75</title>
<path fill="none" stroke="black" d="M85,-175.05C173.55,-173.4 404.61,-167.98 597,-153.65 599.37,-153.48 601.8,-153.28 604.26,-153.06"/>
<polygon fill="black" stroke="black" points="604.43,-156.47 614.05,-152.04 603.76,-149.5 604.43,-156.47"/>
<text text-anchor="middle" x="350" y="-183.65" font-family="Times New Roman,serif" font-size="30.00"> &#160;&#160;139 &#160;&#160;0% &#160;&#160;4.05e&#45;07 mol/s &#160;&#160;&#160;9.49E&#45;01</text>
</g>
<!-- R357 -->
<g id="node6" class="node">
<title>R357</title>
<g id="a_node6"><a xlink:href="357.svg" xlink:title="R357">
<polygon fill="azure" stroke="none" points="94,-111.15 0,-111.15 0,-64.15 94,-64.15 94,-111.15"/>
<text text-anchor="middle" x="47" y="-79.15" font-family="Times New Roman,serif" font-size="35.00">R357</text>
</a>
</g>
</g>
<!-- R357&#45;&gt;R75 -->
<g id="edge5" class="edge">
<title>R357&#45;&gt;R75</title>
<path fill="none" stroke="black" stroke-width="5" d="M93.85,-96.49C96.94,-96.93 100.01,-97.32 103,-97.65 206.66,-109.01 463.39,-88.97 595.92,-119"/>
<polygon fill="black" stroke="black" stroke-width="5" points="588.52,-126.68 610.08,-123.26 592.94,-109.75 588.52,-126.68"/>
<text text-anchor="middle" x="350" y="-125.65" font-family="Times New Roman,serif" font-size="30.00"> &#160;&#160;907 &#160;&#160;99% &#160;&#160;0.297 mol/s &#160;&#160;&#160;2.19E&#45;03</text>
</g>
<!-- R357&#45;&gt;R75 -->
<g id="edge6" class="edge">
<title>R357&#45;&gt;R75</title>
<path fill="none" stroke="black" d="M91.16,-64.25C95.08,-62.8 99.06,-61.57 103,-60.65 316.86,-10.99 404.69,45.29 597,-60.65 617.7,-72.05 631.69,-94.89 640.38,-114.3"/>
<polygon fill="black" stroke="black" points="637.48,-115.47 644.56,-123.36 643.95,-112.78 637.48,-115.47"/>
<text text-anchor="middle" x="350" y="-69.65" font-family="Times New Roman,serif" font-size="30.00"> &#160;&#160;1024 &#160;&#160;0% &#160;&#160;0.000653 mol/s &#160;&#160;&#160;9.98E&#45;01</text>
</g>
</g>
</svg>
