<?xml version="1.0" encoding="UTF-8" standalone="no"?>
<!DOCTYPE svg PUBLIC "-//W3C//DTD SVG 1.1//EN"
 "http://www.w3.org/Graphics/SVG/1.1/DTD/svg11.dtd">
<!-- Generated by graphviz version 8.0.3 (20230416.2022)
 -->
<!-- Title: G Pages: 1 -->
<svg width="608pt" height="491pt"
 viewBox="0.00 0.00 684.00 551.93" xmlns="http://www.w3.org/2000/svg" xmlns:xlink="http://www.w3.org/1999/xlink">
<g id="graph0" class="graph" transform="scale(0.888889 0.888889) rotate(0) translate(4 547.93)">
<title>G</title>
<polygon fill="white" stroke="none" points="-4,4 -4,-547.93 680,-547.93 680,4 -4,4"/>
<text text-anchor="middle" x="338" y="-511.13" font-family="Arial" font-size="36.00" fill="blue">Reaction Path Analysis</text>
<!-- R81 -->
<g id="node1" class="node">
<title>R81</title>
<g id="a_node1"><a xlink:href="81.svg" xlink:title="R81">
<polygon fill="azure" stroke="none" points="76,-258.43 0,-258.43 0,-211.43 76,-211.43 76,-258.43"/>
<text text-anchor="middle" x="38" y="-226.43" font-family="Times New Roman,serif" font-size="35.00">R81</text>
</a>
</g>
</g>
<!-- R9 -->
<g id="node2" class="node">
<title>R9</title>
<g id="a_node2"><a xlink:href="9.svg" xlink:title="R9">
<polygon fill="azure" stroke="none" points="658,-472.43 600,-472.43 600,-425.43 658,-425.43 658,-472.43"/>
<text text-anchor="middle" x="629" y="-440.43" font-family="Times New Roman,serif" font-size="35.00">R9</text>
</a>
</g>
</g>
<!-- R81&#45;&gt;R9 -->
<g id="edge1" class="edge">
<title>R81&#45;&gt;R9</title>
<path fill="none" stroke="black" stroke-width="5" d="M38.01,-258.2C37.7,-298.84 43.64,-382.23 94,-421.93 168.23,-480.45 462.29,-462.95 579.45,-453.35"/>
<polygon fill="black" stroke="black" stroke-width="5" points="574.92,-462.01 594.1,-451.59 573.43,-444.57 574.92,-462.01"/>
<text text-anchor="middle" x="333.5" y="-471.93" font-family="Times New Roman,serif" font-size="30.00"> &#160;&#160;87 &#160;&#160;96% &#160;&#160;0.0437 mol/s &#160;&#160;&#160;9.78E&#45;06</text>
</g>
<!-- R13 -->
<g id="node3" class="node">
<title>R13</title>
<g id="a_node3"><a xlink:href="13.svg" xlink:title="R13">
<polygon fill="azure" stroke="none" points="667,-407.43 591,-407.43 591,-360.43 667,-360.43 667,-407.43"/>
<text text-anchor="middle" x="629" y="-375.43" font-family="Times New Roman,serif" font-size="35.00">R13</text>
</a>
</g>
</g>
<!-- R81&#45;&gt;R13 -->
<g id="edge2" class="edge">
<title>R81&#45;&gt;R13</title>
<path fill="none" stroke="black" stroke-width="5" d="M41.88,-258.27C46.86,-287.53 60.06,-336.69 94,-359.93 132.54,-386.33 440.8,-386.05 570.66,-384.73"/>
<polygon fill="black" stroke="black" stroke-width="5" points="565.41,-393.47 585.31,-384.49 565.22,-375.97 565.41,-393.47"/>
<text text-anchor="middle" x="333.5" y="-393.93" font-family="Times New Roman,serif" font-size="30.00"> &#160;&#160;87 &#160;&#160;96% &#160;&#160;0.0437 mol/s &#160;&#160;&#160;9.78E&#45;06</text>
</g>
<!-- R82 -->
<g id="node4" class="node">
<title>R82</title>
<g id="a_node4"><a xlink:href="82.svg" xlink:title="R82">
<polygon fill="azure" stroke="none" points="667,-342.43 591,-342.43 591,-295.43 667,-295.43 667,-342.43"/>
<text text-anchor="middle" x="629" y="-310.43" font-family="Times New Roman,serif" font-size="35.00">R82</text>
</a>
</g>
</g>
<!-- R81&#45;&gt;R82 -->
<g id="edge3" class="edge">
<title>R81&#45;&gt;R82</title>
<path fill="none" stroke="black" d="M55.27,-258.42C64.99,-270.42 78.47,-283.93 94,-290.93 180.01,-329.69 466,-324.56 580.25,-320.79"/>
<polygon fill="black" stroke="black" points="580.2,-324.26 590.08,-320.42 579.97,-317.27 580.2,-324.26"/>
<text text-anchor="middle" x="333.5" y="-331.93" font-family="Times New Roman,serif" font-size="30.00"> &#160;&#160;142 &#160;&#160;0% &#160;&#160;4.27e&#45;07 mol/s &#160;&#160;&#160;9.99E&#45;01</text>
</g>
<!-- R83 -->
<g id="node5" class="node">
<title>R83</title>
<g id="a_node5"><a xlink:href="83.svg" xlink:title="R83">
<polygon fill="azure" stroke="none" points="667,-277.43 591,-277.43 591,-230.43 667,-230.43 667,-277.43"/>
<text text-anchor="middle" x="629" y="-245.43" font-family="Times New Roman,serif" font-size="35.00">R83</text>
</a>
</g>
</g>
<!-- R81&#45;&gt;R83 -->
<g id="edge4" class="edge">
<title>R81&#45;&gt;R83</title>
<path fill="none" stroke="black" d="M75.94,-239.4C81.97,-240 88.15,-240.54 94,-240.93 273.17,-252.86 486.8,-254.18 580.26,-254.12"/>
<polygon fill="black" stroke="black" points="580.05,-257.62 590.05,-254.1 580.04,-250.62 580.05,-257.62"/>
<text text-anchor="middle" x="333.5" y="-262.93" font-family="Times New Roman,serif" font-size="30.00"> &#160;&#160;143 &#160;&#160;0% &#160;&#160;4.24e&#45;07 mol/s &#160;&#160;&#160;9.92E&#45;01</text>
</g>
<!-- R316 -->
<g id="node6" class="node">
<title>R316</title>
<g id="a_node6"><a xlink:href="316.svg" xlink:title="R316">
<polygon fill="azure" stroke="none" points="676,-193.43 582,-193.43 582,-146.43 676,-146.43 676,-193.43"/>
<text text-anchor="middle" x="629" y="-161.43" font-family="Times New Roman,serif" font-size="35.00">R316</text>
</a>
</g>
</g>
<!-- R81&#45;&gt;R316 -->
<g id="edge5" class="edge">
<title>R81&#45;&gt;R316</title>
<path fill="none" stroke="black" d="M74.92,-211.55C81.08,-208.47 87.57,-205.76 94,-203.93 193.38,-175.74 451.45,-199.62 571.43,-184.75"/>
<polygon fill="black" stroke="black" points="571.83,-188.09 581.25,-183.24 570.86,-181.16 571.83,-188.09"/>
<text text-anchor="middle" x="333.5" y="-212.93" font-family="Times New Roman,serif" font-size="30.00"> &#160;&#160;464 &#160;&#160;0% &#160;&#160;0.000161 mol/s &#160;&#160;&#160;5.70E&#45;01</text>
</g>
<!-- R81&#45;&gt;R316 -->
<g id="edge8" class="edge">
<title>R81&#45;&gt;R316</title>
<path fill="none" stroke="black" d="M46.44,-211.64C54.5,-190.75 69.58,-161.38 94,-147.93 138.43,-123.46 485.83,-136.49 571.5,-148.39"/>
<polygon fill="black" stroke="black" points="570.74,-151.98 581.17,-150.13 571.87,-145.07 570.74,-151.98"/>
<text text-anchor="middle" x="333.5" y="-156.93" font-family="Times New Roman,serif" font-size="30.00"> &#160;&#160;790 &#160;&#160;0% &#160;&#160;0.000214 mol/s &#160;&#160;&#160;4.30E&#45;01</text>
</g>
<!-- R280 -->
<g id="node7" class="node">
<title>R280</title>
<g id="a_node7"><a xlink:href="280.svg" xlink:title="R280">
<polygon fill="azure" stroke="none" points="676,-90.43 582,-90.43 582,-43.43 676,-43.43 676,-90.43"/>
<text text-anchor="middle" x="629" y="-58.43" font-family="Times New Roman,serif" font-size="35.00">R280</text>
</a>
</g>
</g>
<!-- R81&#45;&gt;R280 -->
<g id="edge6" class="edge">
<title>R81&#45;&gt;R280</title>
<path fill="none" stroke="black" d="M40.84,-211.47C44.72,-179.61 56.76,-123.56 94,-96.93 135.31,-67.39 484.76,-76.2 571.31,-72.75"/>
<polygon fill="black" stroke="black" points="571.31,-76.2 581.1,-72.14 570.92,-69.21 571.31,-76.2"/>
<text text-anchor="middle" x="333.5" y="-105.93" font-family="Times New Roman,serif" font-size="30.00"> &#160;&#160;465 &#160;&#160;0% &#160;&#160;0.000394 mol/s &#160;&#160;&#160;7.15E&#45;01</text>
</g>
<!-- R81&#45;&gt;R280 -->
<g id="edge7" class="edge">
<title>R81&#45;&gt;R280</title>
<path fill="none" stroke="black" d="M41.94,-211.5C48.48,-163.63 65.91,-57.32 94,-35.93 178.7,28.53 470.04,-8.92 573,-35.93 576.18,-36.77 579.38,-37.83 582.54,-39.07"/>
<polygon fill="black" stroke="black" points="580.88,-42.61 591.44,-43.48 583.73,-36.21 580.88,-42.61"/>
<text text-anchor="middle" x="333.5" y="-44.93" font-family="Times New Roman,serif" font-size="30.00"> &#160;&#160;763 &#160;&#160;2% &#160;&#160;0.00099 mol/s &#160;&#160;&#160;2.85E&#45;01</text>
</g>
</g>
</svg>
