<?xml version="1.0" encoding="UTF-8" standalone="no"?>
<!DOCTYPE svg PUBLIC "-//W3C//DTD SVG 1.1//EN"
 "http://www.w3.org/Graphics/SVG/1.1/DTD/svg11.dtd">
<!-- Generated by graphviz version 8.0.3 (20230416.2022)
 -->
<!-- Title: G Pages: 1 -->
<svg width="640pt" height="526pt"
 viewBox="0.00 0.00 720.00 591.95" xmlns="http://www.w3.org/2000/svg" xmlns:xlink="http://www.w3.org/1999/xlink">
<g id="graph0" class="graph" transform="scale(0.490421 0.490421) rotate(0) translate(4 1068.92)">
<title>G</title>
<polygon fill="white" stroke="none" points="-4,4 -4,-1068.92 1301,-1068.92 1301,4 -4,4"/>
<text text-anchor="middle" x="648.5" y="-1032.12" font-family="Arial" font-size="36.00" fill="blue">Reaction Path Analysis</text>
<!-- R89 -->
<g id="node1" class="node">
<title>R89</title>
<g id="a_node1"><a xlink:href="89.svg" xlink:title="R89">
<polygon fill="azure" stroke="none" points="691,-497.42 615,-497.42 615,-450.42 691,-450.42 691,-497.42"/>
<text text-anchor="middle" x="653" y="-465.42" font-family="Times New Roman,serif" font-size="35.00">R89</text>
</a>
</g>
</g>
<!-- R14 -->
<g id="node2" class="node">
<title>R14</title>
<g id="a_node2"><a xlink:href="14.svg" xlink:title="R14">
<polygon fill="azure" stroke="none" points="1297,-530.42 1221,-530.42 1221,-483.42 1297,-483.42 1297,-530.42"/>
<text text-anchor="middle" x="1259" y="-498.42" font-family="Times New Roman,serif" font-size="35.00">R14</text>
</a>
</g>
</g>
<!-- R89&#45;&gt;R14 -->
<g id="edge1" class="edge">
<title>R89&#45;&gt;R14</title>
<path fill="none" stroke="black" stroke-width="6" d="M690.9,-481.25C699.28,-482.69 708.17,-484.02 716.5,-484.92 891.99,-503.84 1101.07,-506.84 1200.27,-507.1"/>
<polygon fill="black" stroke="black" stroke-width="6" points="1195.1,-517.6 1215.11,-507.11 1195.11,-496.6 1195.1,-517.6"/>
<text text-anchor="middle" x="956" y="-515.92" font-family="Times New Roman,serif" font-size="30.00"> &#160;&#160;95 &#160;&#160;100% &#160;&#160;0.00516 mol/s &#160;&#160;&#160;8.29E&#45;05</text>
</g>
<!-- R13 -->
<g id="node3" class="node">
<title>R13</title>
<g id="a_node3"><a xlink:href="13.svg" xlink:title="R13">
<polygon fill="azure" stroke="none" points="1297,-465.42 1221,-465.42 1221,-418.42 1297,-418.42 1297,-465.42"/>
<text text-anchor="middle" x="1259" y="-433.42" font-family="Times New Roman,serif" font-size="35.00">R13</text>
</a>
</g>
</g>
<!-- R89&#45;&gt;R13 -->
<g id="edge2" class="edge">
<title>R89&#45;&gt;R13</title>
<path fill="none" stroke="black" stroke-width="6" d="M690.82,-458.77C699.13,-455.97 708.01,-453.45 716.5,-451.92 890.31,-420.57 1100.58,-429.84 1200.23,-437"/>
<polygon fill="black" stroke="black" stroke-width="6" points="1194.42,-447.54 1215.16,-438.59 1196.02,-426.6 1194.42,-447.54"/>
<text text-anchor="middle" x="956" y="-460.92" font-family="Times New Roman,serif" font-size="30.00"> &#160;&#160;95 &#160;&#160;100% &#160;&#160;0.00516 mol/s &#160;&#160;&#160;8.29E&#45;05</text>
</g>
<!-- R90 -->
<g id="node4" class="node">
<title>R90</title>
<g id="a_node4"><a xlink:href="90.svg" xlink:title="R90">
<polygon fill="azure" stroke="none" points="85,-952.42 9,-952.42 9,-905.42 85,-905.42 85,-952.42"/>
<text text-anchor="middle" x="47" y="-920.42" font-family="Times New Roman,serif" font-size="35.00">R90</text>
</a>
</g>
</g>
<!-- R90&#45;&gt;R89 -->
<g id="edge3" class="edge">
<title>R90&#45;&gt;R89</title>
<path fill="none" stroke="black" d="M84.69,-941.15C182.48,-971.2 451.85,-1036.87 597,-902.92 625.93,-876.22 644.37,-605.34 650.09,-508.29"/>
<polygon fill="black" stroke="black" points="653.64,-508.53 650.73,-498.34 646.66,-508.12 653.64,-508.53"/>
<text text-anchor="middle" x="350" y="-992.92" font-family="Times New Roman,serif" font-size="30.00"> &#160;&#160;148 &#160;&#160;0% &#160;&#160;1.62e&#45;06 mol/s &#160;&#160;&#160;1.73E&#45;01</text>
</g>
<!-- R91 -->
<g id="node5" class="node">
<title>R91</title>
<g id="a_node5"><a xlink:href="91.svg" xlink:title="R91">
<polygon fill="azure" stroke="none" points="85,-887.42 9,-887.42 9,-840.42 85,-840.42 85,-887.42"/>
<text text-anchor="middle" x="47" y="-855.42" font-family="Times New Roman,serif" font-size="35.00">R91</text>
</a>
</g>
</g>
<!-- R91&#45;&gt;R89 -->
<g id="edge4" class="edge">
<title>R91&#45;&gt;R89</title>
<path fill="none" stroke="black" d="M84.83,-864.82C201.76,-867.32 559.14,-872.08 597,-837.92 645.22,-794.41 651.54,-590.59 652.1,-508.4"/>
<polygon fill="black" stroke="black" points="655.6,-508.43 652.14,-498.42 648.6,-508.4 655.6,-508.43"/>
<text text-anchor="middle" x="350" y="-874.92" font-family="Times New Roman,serif" font-size="30.00"> &#160;&#160;149 &#160;&#160;0% &#160;&#160;2.44e&#45;06 mol/s &#160;&#160;&#160;1.30E&#45;01</text>
</g>
<!-- R170 -->
<g id="node6" class="node">
<title>R170</title>
<g id="a_node6"><a xlink:href="170.svg" xlink:title="R170">
<polygon fill="azure" stroke="none" points="94,-822.42 0,-822.42 0,-775.42 94,-775.42 94,-822.42"/>
<text text-anchor="middle" x="47" y="-790.42" font-family="Times New Roman,serif" font-size="35.00">R170</text>
</a>
</g>
</g>
<!-- R170&#45;&gt;R89 -->
<g id="edge5" class="edge">
<title>R170&#45;&gt;R89</title>
<path fill="none" stroke="black" d="M93.82,-799.86C218.94,-801.98 559.56,-804.67 597,-771.92 636.1,-737.71 647.61,-578.91 650.82,-508.13"/>
<polygon fill="black" stroke="black" points="654.36,-508.3 651.29,-498.16 647.37,-508 654.36,-508.3"/>
<text text-anchor="middle" x="350" y="-809.92" font-family="Times New Roman,serif" font-size="30.00"> &#160;&#160;222 &#160;&#160;0% &#160;&#160;0.00248 mol/s &#160;&#160;&#160;1.73E&#45;04</text>
</g>
<!-- R171 -->
<g id="node7" class="node">
<title>R171</title>
<g id="a_node7"><a xlink:href="171.svg" xlink:title="R171">
<polygon fill="azure" stroke="none" points="94,-757.42 0,-757.42 0,-710.42 94,-710.42 94,-757.42"/>
<text text-anchor="middle" x="47" y="-725.42" font-family="Times New Roman,serif" font-size="35.00">R171</text>
</a>
</g>
</g>
<!-- R171&#45;&gt;R89 -->
<g id="edge6" class="edge">
<title>R171&#45;&gt;R89</title>
<path fill="none" stroke="black" d="M93.74,-734.67C218.65,-736.31 558.78,-737.75 597,-705.92 627.04,-680.9 642.7,-566.47 648.84,-508.22"/>
<polygon fill="black" stroke="black" points="652.41,-508.66 649.94,-498.36 645.45,-507.95 652.41,-508.66"/>
<text text-anchor="middle" x="350" y="-743.92" font-family="Times New Roman,serif" font-size="30.00"> &#160;&#160;223 &#160;&#160;0% &#160;&#160;2.11 mol/s &#160;&#160;&#160;2.03E&#45;07</text>
</g>
<!-- R172 -->
<g id="node8" class="node">
<title>R172</title>
<g id="a_node8"><a xlink:href="172.svg" xlink:title="R172">
<polygon fill="azure" stroke="none" points="94,-692.42 0,-692.42 0,-645.42 94,-645.42 94,-692.42"/>
<text text-anchor="middle" x="47" y="-660.42" font-family="Times New Roman,serif" font-size="35.00">R172</text>
</a>
</g>
</g>
<!-- R172&#45;&gt;R89 -->
<g id="edge7" class="edge">
<title>R172&#45;&gt;R89</title>
<path fill="none" stroke="black" d="M93.6,-669.5C218.15,-670.69 557.45,-671.09 597,-640.92 637.97,-609.65 648.82,-546.99 651.46,-507.94"/>
<polygon fill="black" stroke="black" points="655,-508.29 652.03,-498.12 648.01,-507.93 655,-508.29"/>
<text text-anchor="middle" x="350" y="-677.92" font-family="Times New Roman,serif" font-size="30.00"> &#160;&#160;224 &#160;&#160;0% &#160;&#160;1.65 mol/s &#160;&#160;&#160;2.59E&#45;07</text>
</g>
<!-- R212 -->
<g id="node9" class="node">
<title>R212</title>
<g id="a_node9"><a xlink:href="212.svg" xlink:title="R212">
<polygon fill="azure" stroke="none" points="94,-627.42 0,-627.42 0,-580.42 94,-580.42 94,-627.42"/>
<text text-anchor="middle" x="47" y="-595.42" font-family="Times New Roman,serif" font-size="35.00">R212</text>
</a>
</g>
</g>
<!-- R212&#45;&gt;R89 -->
<g id="edge8" class="edge">
<title>R212&#45;&gt;R89</title>
<path fill="none" stroke="black" d="M93.8,-604.23C218.05,-604.7 555.03,-603.51 597,-576.92 621.35,-561.49 635.62,-531.41 643.5,-507.73"/>
<polygon fill="black" stroke="black" points="647.09,-508.96 646.68,-498.37 640.4,-506.9 647.09,-508.96"/>
<text text-anchor="middle" x="350" y="-612.92" font-family="Times New Roman,serif" font-size="30.00"> &#160;&#160;273 &#160;&#160;0% &#160;&#160;2.16e&#45;05 mol/s &#160;&#160;&#160;1.90E&#45;02</text>
</g>
<!-- R213 -->
<g id="node10" class="node">
<title>R213</title>
<g id="a_node10"><a xlink:href="213.svg" xlink:title="R213">
<polygon fill="azure" stroke="none" points="94,-562.42 0,-562.42 0,-515.42 94,-515.42 94,-562.42"/>
<text text-anchor="middle" x="47" y="-530.42" font-family="Times New Roman,serif" font-size="35.00">R213</text>
</a>
</g>
</g>
<!-- R213&#45;&gt;R89 -->
<g id="edge9" class="edge">
<title>R213&#45;&gt;R89</title>
<path fill="none" stroke="black" d="M93.63,-539.71C207.98,-541.19 504.19,-541.84 597,-510.92 602.95,-508.94 608.85,-506.12 614.46,-502.92"/>
<polygon fill="black" stroke="black" points="615.94,-505.5 622.59,-497.25 612.25,-499.56 615.94,-505.5"/>
<text text-anchor="middle" x="350" y="-548.92" font-family="Times New Roman,serif" font-size="30.00"> &#160;&#160;274 &#160;&#160;0% &#160;&#160;21.1 mol/s &#160;&#160;&#160;2.03E&#45;08</text>
</g>
<!-- R214 -->
<g id="node11" class="node">
<title>R214</title>
<g id="a_node11"><a xlink:href="214.svg" xlink:title="R214">
<polygon fill="azure" stroke="none" points="94,-497.42 0,-497.42 0,-450.42 94,-450.42 94,-497.42"/>
<text text-anchor="middle" x="47" y="-465.42" font-family="Times New Roman,serif" font-size="35.00">R214</text>
</a>
</g>
</g>
<!-- R214&#45;&gt;R89 -->
<g id="edge10" class="edge">
<title>R214&#45;&gt;R89</title>
<path fill="none" stroke="black" d="M93.89,-473.92C205.66,-473.92 491.08,-473.92 604.5,-473.92"/>
<polygon fill="black" stroke="black" points="604.24,-477.42 614.24,-473.92 604.24,-470.42 604.24,-477.42"/>
<text text-anchor="middle" x="350" y="-482.92" font-family="Times New Roman,serif" font-size="30.00"> &#160;&#160;275 &#160;&#160;0% &#160;&#160;460.0 mol/s &#160;&#160;&#160;9.29E&#45;10</text>
</g>
<!-- R271 -->
<g id="node12" class="node">
<title>R271</title>
<g id="a_node12"><a xlink:href="271.svg" xlink:title="R271">
<polygon fill="azure" stroke="none" points="94,-432.42 0,-432.42 0,-385.42 94,-385.42 94,-432.42"/>
<text text-anchor="middle" x="47" y="-400.42" font-family="Times New Roman,serif" font-size="35.00">R271</text>
</a>
</g>
</g>
<!-- R271&#45;&gt;R89 -->
<g id="edge11" class="edge">
<title>R271&#45;&gt;R89</title>
<path fill="none" stroke="black" d="M93.63,-408.13C207.98,-406.64 504.19,-406 597,-436.92 602.95,-438.9 608.85,-441.71 614.46,-444.91"/>
<polygon fill="black" stroke="black" points="612.25,-448.28 622.59,-450.58 615.94,-442.33 612.25,-448.28"/>
<text text-anchor="middle" x="350" y="-445.92" font-family="Times New Roman,serif" font-size="30.00"> &#160;&#160;367 &#160;&#160;0% &#160;&#160;429.0 mol/s &#160;&#160;&#160;9.96E&#45;10</text>
</g>
<!-- R272 -->
<g id="node13" class="node">
<title>R272</title>
<g id="a_node13"><a xlink:href="272.svg" xlink:title="R272">
<polygon fill="azure" stroke="none" points="94,-367.42 0,-367.42 0,-320.42 94,-320.42 94,-367.42"/>
<text text-anchor="middle" x="47" y="-335.42" font-family="Times New Roman,serif" font-size="35.00">R272</text>
</a>
</g>
</g>
<!-- R272&#45;&gt;R89 -->
<g id="edge12" class="edge">
<title>R272&#45;&gt;R89</title>
<path fill="none" stroke="black" stroke-width="5" d="M93.8,-343.51C218.06,-342.78 555.06,-343.28 597,-369.92 618.56,-383.61 632.18,-408.74 640.47,-430.86"/>
<polygon fill="black" stroke="black" stroke-width="5" points="631.4,-429.34 645.88,-445.69 648.05,-423.96 631.4,-429.34"/>
<text text-anchor="middle" x="350" y="-378.92" font-family="Times New Roman,serif" font-size="30.00"> &#160;&#160;368 &#160;&#160;99% &#160;&#160;990000.0 mol/s &#160;&#160;&#160;4.32E&#45;13</text>
</g>
<!-- R273 -->
<g id="node14" class="node">
<title>R273</title>
<g id="a_node14"><a xlink:href="273.svg" xlink:title="R273">
<polygon fill="azure" stroke="none" points="94,-302.42 0,-302.42 0,-255.42 94,-255.42 94,-302.42"/>
<text text-anchor="middle" x="47" y="-270.42" font-family="Times New Roman,serif" font-size="35.00">R273</text>
</a>
</g>
</g>
<!-- R273&#45;&gt;R89 -->
<g id="edge13" class="edge">
<title>R273&#45;&gt;R89</title>
<path fill="none" stroke="black" d="M93.9,-283.25C96.98,-283.49 100.03,-283.72 103,-283.92 130.41,-285.77 575.12,-289.3 597,-305.92 638.27,-337.25 649.02,-400.33 651.57,-439.65"/>
<polygon fill="black" stroke="black" points="648.11,-439.73 652.1,-449.54 655.11,-439.39 648.11,-439.73"/>
<text text-anchor="middle" x="350" y="-314.92" font-family="Times New Roman,serif" font-size="30.00"> &#160;&#160;369 &#160;&#160;0% &#160;&#160;147.0 mol/s &#160;&#160;&#160;2.91E&#45;09</text>
</g>
<!-- R18 -->
<g id="node15" class="node">
<title>R18</title>
<g id="a_node15"><a xlink:href="18.svg" xlink:title="R18">
<polygon fill="azure" stroke="none" points="85,-232.42 9,-232.42 9,-185.42 85,-185.42 85,-232.42"/>
<text text-anchor="middle" x="47" y="-200.42" font-family="Times New Roman,serif" font-size="35.00">R18</text>
</a>
</g>
</g>
<!-- R18&#45;&gt;R89 -->
<g id="edge14" class="edge">
<title>R18&#45;&gt;R89</title>
<path fill="none" stroke="black" d="M84.88,-223.31C90.86,-225.16 97.04,-226.8 103,-227.92 156.99,-238.05 554.49,-212.13 597,-246.92 626.57,-271.11 642.41,-382.68 648.71,-439.89"/>
<polygon fill="black" stroke="black" points="645.31,-439.99 649.84,-449.56 652.27,-439.25 645.31,-439.99"/>
<text text-anchor="middle" x="350" y="-255.92" font-family="Times New Roman,serif" font-size="30.00"> &#160;&#160;422 &#160;&#160;0% &#160;&#160;0.000625 mol/s &#160;&#160;&#160;9.58E&#45;01</text>
</g>
<!-- R18&#45;&gt;R89 -->
<g id="edge15" class="edge">
<title>R18&#45;&gt;R89</title>
<path fill="none" stroke="black" d="M84.88,-195.09C90.86,-193.36 97.05,-191.87 103,-190.92 157.2,-182.27 554.65,-156 597,-190.92 634.88,-222.14 647,-371.66 650.6,-439.87"/>
<polygon fill="black" stroke="black" points="647.15,-440.04 651.14,-449.85 654.14,-439.69 647.15,-440.04"/>
<text text-anchor="middle" x="350" y="-199.92" font-family="Times New Roman,serif" font-size="30.00"> &#160;&#160;476 &#160;&#160;0% &#160;&#160;0.0142 mol/s &#160;&#160;&#160;4.22E&#45;02</text>
</g>
<!-- R94 -->
<g id="node16" class="node">
<title>R94</title>
<g id="a_node16"><a xlink:href="94.svg" xlink:title="R94">
<polygon fill="azure" stroke="none" points="85,-133.42 9,-133.42 9,-86.42 85,-86.42 85,-133.42"/>
<text text-anchor="middle" x="47" y="-101.42" font-family="Times New Roman,serif" font-size="35.00">R94</text>
</a>
</g>
</g>
<!-- R94&#45;&gt;R89 -->
<g id="edge16" class="edge">
<title>R94&#45;&gt;R89</title>
<path fill="none" stroke="black" d="M84.95,-114.3C90.98,-114.91 97.16,-115.48 103,-115.92 130.39,-117.96 576.44,-117.7 597,-135.92 641.85,-175.65 650.17,-362.39 651.68,-439.98"/>
<polygon fill="black" stroke="black" points="648.19,-439.67 651.86,-449.61 655.19,-439.55 648.19,-439.67"/>
<text text-anchor="middle" x="350" y="-144.92" font-family="Times New Roman,serif" font-size="30.00"> &#160;&#160;477 &#160;&#160;0% &#160;&#160;0.839 mol/s &#160;&#160;&#160;7.78E&#45;04</text>
</g>
<!-- R94&#45;&gt;R89 -->
<g id="edge17" class="edge">
<title>R94&#45;&gt;R89</title>
<path fill="none" stroke="black" d="M83.56,-86.46C89.81,-83.35 96.43,-80.64 103,-78.92 315.37,-23.19 431.39,65.23 597,-78.92 650.73,-125.68 653.62,-352.45 652.68,-439.66"/>
<polygon fill="black" stroke="black" points="649.17,-439.48 652.54,-449.53 656.17,-439.58 649.17,-439.48"/>
<text text-anchor="middle" x="350" y="-87.92" font-family="Times New Roman,serif" font-size="30.00"> &#160;&#160;914 &#160;&#160;0% &#160;&#160;0.000653 mol/s &#160;&#160;&#160;9.99E&#45;01</text>
</g>
</g>
</svg>
