<?xml version="1.0" encoding="UTF-8" standalone="no"?>
<!DOCTYPE svg PUBLIC "-//W3C//DTD SVG 1.1//EN"
 "http://www.w3.org/Graphics/SVG/1.1/DTD/svg11.dtd">
<!-- Generated by graphviz version 8.0.3 (20230416.2022)
 -->
<!-- Title: G Pages: 1 -->
<svg width="640pt" height="347pt"
 viewBox="0.00 0.00 720.00 390.43" xmlns="http://www.w3.org/2000/svg" xmlns:xlink="http://www.w3.org/1999/xlink">
<g id="graph0" class="graph" transform="scale(0.492308 0.492308) rotate(0) translate(4 700.95)">
<title>G</title>
<polygon fill="white" stroke="none" points="-4,4 -4,-700.95 1296,-700.95 1296,4 -4,4"/>
<text text-anchor="middle" x="646" y="-664.15" font-family="Arial" font-size="36.00" fill="blue">Reaction Path Analysis</text>
<!-- R90 -->
<g id="node1" class="node">
<title>R90</title>
<g id="a_node1"><a xlink:href="90.svg" xlink:title="R90">
<polygon fill="azure" stroke="none" points="684,-344.45 608,-344.45 608,-297.45 684,-297.45 684,-344.45"/>
<text text-anchor="middle" x="646" y="-312.45" font-family="Times New Roman,serif" font-size="35.00">R90</text>
</a>
</g>
</g>
<!-- R14 -->
<g id="node2" class="node">
<title>R14</title>
<g id="a_node2"><a xlink:href="14.svg" xlink:title="R14">
<polygon fill="azure" stroke="none" points="1283,-568.45 1207,-568.45 1207,-521.45 1283,-521.45 1283,-568.45"/>
<text text-anchor="middle" x="1245" y="-536.45" font-family="Times New Roman,serif" font-size="35.00">R14</text>
</a>
</g>
</g>
<!-- R90&#45;&gt;R14 -->
<g id="edge1" class="edge">
<title>R90&#45;&gt;R14</title>
<path fill="none" stroke="black" d="M648.33,-344.07C652.19,-401.74 665.51,-549.42 702,-578.95 786.12,-647.03 1084.9,-608.53 1189,-578.95 1193.87,-577.56 1198.74,-575.61 1203.44,-573.33"/>
<polygon fill="black" stroke="black" points="1204.69,-576.1 1211.84,-568.28 1201.37,-569.94 1204.69,-576.1"/>
<text text-anchor="middle" x="945.5" y="-624.95" font-family="Times New Roman,serif" font-size="30.00"> &#160;&#160;96 &#160;&#160;2% &#160;&#160;0.132 mol/s &#160;&#160;&#160;3.23E&#45;06</text>
</g>
<!-- R90&#45;&gt;R14 -->
<g id="edge2" class="edge">
<title>R90&#45;&gt;R14</title>
<path fill="none" stroke="black" d="M649.9,-344.27C656.43,-392.51 673.91,-500.6 702,-522.95 723.19,-539.8 1161.95,-540.68 1189,-541.95 1191.37,-542.06 1193.79,-542.18 1196.24,-542.3"/>
<polygon fill="black" stroke="black" points="1195.86,-545.83 1206.02,-542.85 1196.22,-538.84 1195.86,-545.83"/>
<text text-anchor="middle" x="945.5" y="-550.95" font-family="Times New Roman,serif" font-size="30.00"> &#160;&#160;96 &#160;&#160;2% &#160;&#160;0.132 mol/s &#160;&#160;&#160;3.23E&#45;06</text>
</g>
<!-- R90&#45;&gt;R14 -->
<g id="edge3" class="edge">
<title>R90&#45;&gt;R14</title>
<path fill="none" stroke="black" d="M648.21,-344.37C651.33,-377.84 662.45,-438.43 702,-466.95 745.92,-498.62 1139.77,-463.39 1189,-485.95 1202.06,-491.93 1213.48,-502.59 1222.49,-513.22"/>
<polygon fill="black" stroke="black" points="1220.21,-514.99 1229.17,-520.65 1225.7,-510.64 1220.21,-514.99"/>
<text text-anchor="middle" x="945.5" y="-494.95" font-family="Times New Roman,serif" font-size="30.00"> &#160;&#160;96 &#160;&#160;2% &#160;&#160;0.132 mol/s &#160;&#160;&#160;3.23E&#45;06</text>
</g>
<!-- R0 -->
<g id="node3" class="node">
<title>R0</title>
<g id="a_node3"><a xlink:href="0.svg" xlink:title="R0">
<polygon fill="azure" stroke="none" points="1274,-470.45 1216,-470.45 1216,-423.45 1274,-423.45 1274,-470.45"/>
<text text-anchor="middle" x="1245" y="-438.45" font-family="Times New Roman,serif" font-size="35.00">R0</text>
</a>
</g>
</g>
<!-- R90&#45;&gt;R0 -->
<g id="edge4" class="edge">
<title>R90&#45;&gt;R0</title>
<path fill="none" stroke="black" d="M654.22,-344.34C662.18,-365.77 677.26,-396.3 702,-410.95 748.61,-438.55 1135.36,-426.41 1189,-433.95 1194.45,-434.71 1200.15,-435.77 1205.73,-436.95"/>
<polygon fill="black" stroke="black" points="1204.68,-440.53 1215.21,-439.33 1206.23,-433.7 1204.68,-440.53"/>
<text text-anchor="middle" x="945.5" y="-442.95" font-family="Times New Roman,serif" font-size="30.00"> &#160;&#160;148 &#160;&#160;0% &#160;&#160;1.62e&#45;06 mol/s &#160;&#160;&#160;1.73E&#45;01</text>
</g>
<!-- R89 -->
<g id="node4" class="node">
<title>R89</title>
<g id="a_node4"><a xlink:href="89.svg" xlink:title="R89">
<polygon fill="azure" stroke="none" points="1283,-405.45 1207,-405.45 1207,-358.45 1283,-358.45 1283,-405.45"/>
<text text-anchor="middle" x="1245" y="-373.45" font-family="Times New Roman,serif" font-size="35.00">R89</text>
</a>
</g>
</g>
<!-- R90&#45;&gt;R89 -->
<g id="edge5" class="edge">
<title>R90&#45;&gt;R89</title>
<path fill="none" stroke="black" d="M678.84,-344.34C686.12,-348.61 694.07,-352.49 702,-354.95 805.49,-387.01 1080.85,-371.46 1189,-377.95 1191.37,-378.09 1193.79,-378.24 1196.24,-378.4"/>
<polygon fill="black" stroke="black" points="1195.81,-381.95 1206.03,-379.13 1196.29,-374.96 1195.81,-381.95"/>
<text text-anchor="middle" x="945.5" y="-386.95" font-family="Times New Roman,serif" font-size="30.00"> &#160;&#160;148 &#160;&#160;0% &#160;&#160;1.62e&#45;06 mol/s &#160;&#160;&#160;1.73E&#45;01</text>
</g>
<!-- R107 -->
<g id="node5" class="node">
<title>R107</title>
<g id="a_node5"><a xlink:href="107.svg" xlink:title="R107">
<polygon fill="azure" stroke="none" points="1292,-340.45 1198,-340.45 1198,-293.45 1292,-293.45 1292,-340.45"/>
<text text-anchor="middle" x="1245" y="-308.45" font-family="Times New Roman,serif" font-size="35.00">R107</text>
</a>
</g>
</g>
<!-- R90&#45;&gt;R107 -->
<g id="edge6" class="edge">
<title>R90&#45;&gt;R107</title>
<path fill="none" stroke="black" d="M683.89,-320.7C784.85,-320.03 1066.13,-318.14 1187.29,-317.33"/>
<polygon fill="black" stroke="black" points="1187.18,-320.82 1197.16,-317.26 1187.14,-313.82 1187.18,-320.82"/>
<text text-anchor="middle" x="945.5" y="-328.95" font-family="Times New Roman,serif" font-size="30.00"> &#160;&#160;150 &#160;&#160;0% &#160;&#160;4.27e&#45;07 mol/s &#160;&#160;&#160;9.99E&#45;01</text>
</g>
<!-- R108 -->
<g id="node6" class="node">
<title>R108</title>
<g id="a_node6"><a xlink:href="108.svg" xlink:title="R108">
<polygon fill="azure" stroke="none" points="1292,-275.45 1198,-275.45 1198,-228.45 1292,-228.45 1292,-275.45"/>
<text text-anchor="middle" x="1245" y="-243.45" font-family="Times New Roman,serif" font-size="35.00">R108</text>
</a>
</g>
</g>
<!-- R90&#45;&gt;R108 -->
<g id="edge7" class="edge">
<title>R90&#45;&gt;R108</title>
<path fill="none" stroke="black" d="M671.99,-297.47C680.82,-290.56 691.24,-283.83 702,-279.95 789.89,-248.26 1066.85,-248.86 1187.22,-250.75"/>
<polygon fill="black" stroke="black" points="1186.97,-254.26 1197.02,-250.92 1187.08,-247.26 1186.97,-254.26"/>
<text text-anchor="middle" x="945.5" y="-288.95" font-family="Times New Roman,serif" font-size="30.00"> &#160;&#160;151 &#160;&#160;0% &#160;&#160;4.23e&#45;07 mol/s &#160;&#160;&#160;9.89E&#45;01</text>
</g>
<!-- R64 -->
<g id="node10" class="node">
<title>R64</title>
<g id="a_node10"><a xlink:href="64.svg" xlink:title="R64">
<polygon fill="azure" stroke="none" points="1283,-191.45 1207,-191.45 1207,-144.45 1283,-144.45 1283,-191.45"/>
<text text-anchor="middle" x="1245" y="-159.45" font-family="Times New Roman,serif" font-size="35.00">R64</text>
</a>
</g>
</g>
<!-- R90&#45;&gt;R64 -->
<g id="edge11" class="edge">
<title>R90&#45;&gt;R64</title>
<path fill="none" stroke="black" stroke-width="4" d="M651.83,-297.57C658.42,-272.21 672.92,-232.82 702,-213.95 744.13,-186.61 1080.77,-195.73 1186.6,-185.16"/>
<polygon fill="black" stroke="black" stroke-width="4" points="1183.29,-191.99 1202.11,-182.25 1181.32,-178.12 1183.29,-191.99"/>
<text text-anchor="middle" x="945.5" y="-222.95" font-family="Times New Roman,serif" font-size="30.00"> &#160;&#160;449 &#160;&#160;63% &#160;&#160;2.88 mol/s &#160;&#160;&#160;2.27E&#45;04</text>
</g>
<!-- R90&#45;&gt;R64 -->
<g id="edge12" class="edge">
<title>R90&#45;&gt;R64</title>
<path fill="none" stroke="black" d="M646.57,-297.56C647.29,-259.3 655,-184.2 702,-149.95 745.73,-118.08 1135.56,-141.43 1189,-149.95 1191.51,-150.35 1194.06,-150.85 1196.62,-151.42"/>
<polygon fill="black" stroke="black" points="1195.56,-155.01 1206.12,-154.12 1197.31,-148.24 1195.56,-155.01"/>
<text text-anchor="middle" x="945.5" y="-158.95" font-family="Times New Roman,serif" font-size="30.00"> &#160;&#160;478 &#160;&#160;0% &#160;&#160;0.000654 mol/s &#160;&#160;&#160;1.00E+00</text>
</g>
<!-- R121 -->
<g id="node11" class="node">
<title>R121</title>
<g id="a_node11"><a xlink:href="121.svg" xlink:title="R121">
<polygon fill="azure" stroke="none" points="1292,-92.45 1198,-92.45 1198,-45.45 1292,-45.45 1292,-92.45"/>
<text text-anchor="middle" x="1245" y="-60.45" font-family="Times New Roman,serif" font-size="35.00">R121</text>
</a>
</g>
</g>
<!-- R90&#45;&gt;R121 -->
<g id="edge13" class="edge">
<title>R90&#45;&gt;R121</title>
<path fill="none" stroke="black" d="M649.26,-297.52C654.81,-245.4 670.98,-122.43 702,-96.95 721.66,-80.8 1110.36,-77.41 1187.3,-74.7"/>
<polygon fill="black" stroke="black" points="1187.28,-78.15 1197.1,-74.18 1186.95,-71.16 1187.28,-78.15"/>
<text text-anchor="middle" x="945.5" y="-105.95" font-family="Times New Roman,serif" font-size="30.00"> &#160;&#160;479 &#160;&#160;0% &#160;&#160;0.000654 mol/s &#160;&#160;&#160;1.00E+00</text>
</g>
<!-- R90&#45;&gt;R121 -->
<g id="edge14" class="edge">
<title>R90&#45;&gt;R121</title>
<path fill="none" stroke="black" stroke-width="2" d="M647.86,-297.88C650.68,-236.39 661.93,-70.98 702,-37.95 785.51,30.89 1084.32,-10.48 1189,-37.95 1192.18,-38.78 1195.38,-39.85 1198.54,-41.08"/>
<polygon fill="black" stroke="black" stroke-width="2" points="1195.88,-43.62 1206.44,-44.49 1198.73,-37.23 1195.88,-43.62"/>
<text text-anchor="middle" x="945.5" y="-46.95" font-family="Times New Roman,serif" font-size="30.00"> &#160;&#160;930 &#160;&#160;33% &#160;&#160;1.52 mol/s &#160;&#160;&#160;4.30E&#45;04</text>
</g>
<!-- R173 -->
<g id="node7" class="node">
<title>R173</title>
<g id="a_node7"><a xlink:href="173.svg" xlink:title="R173">
<polygon fill="azure" stroke="none" points="94,-409.45 0,-409.45 0,-362.45 94,-362.45 94,-409.45"/>
<text text-anchor="middle" x="47" y="-377.45" font-family="Times New Roman,serif" font-size="35.00">R173</text>
</a>
</g>
</g>
<!-- R173&#45;&gt;R90 -->
<g id="edge8" class="edge">
<title>R173&#45;&gt;R90</title>
<path fill="none" stroke="black" d="M93.95,-390.77C188.03,-399.08 408.38,-410.56 582.5,-357.95 589.39,-355.87 596.32,-352.87 602.93,-349.47"/>
<polygon fill="black" stroke="black" points="604.27,-352.18 611.33,-344.27 600.88,-346.05 604.27,-352.18"/>
<text text-anchor="middle" x="346.5" y="-406.95" font-family="Times New Roman,serif" font-size="30.00"> &#160;&#160;225 &#160;&#160;0% &#160;&#160;1.14e&#45;06 mol/s &#160;&#160;&#160;2.15E&#45;01</text>
</g>
<!-- R174 -->
<g id="node8" class="node">
<title>R174</title>
<g id="a_node8"><a xlink:href="174.svg" xlink:title="R174">
<polygon fill="azure" stroke="none" points="94,-344.45 0,-344.45 0,-297.45 94,-297.45 94,-344.45"/>
<text text-anchor="middle" x="47" y="-312.45" font-family="Times New Roman,serif" font-size="35.00">R174</text>
</a>
</g>
</g>
<!-- R174&#45;&gt;R90 -->
<g id="edge9" class="edge">
<title>R174&#45;&gt;R90</title>
<path fill="none" stroke="black" d="M93.85,-320.95C204.33,-320.95 484.38,-320.95 597.01,-320.95"/>
<polygon fill="black" stroke="black" points="597,-324.45 607,-320.95 597,-317.45 597,-324.45"/>
<text text-anchor="middle" x="346.5" y="-329.95" font-family="Times New Roman,serif" font-size="30.00"> &#160;&#160;226 &#160;&#160;1% &#160;&#160;0.00218 mol/s &#160;&#160;&#160;1.96E&#45;04</text>
</g>
<!-- R175 -->
<g id="node9" class="node">
<title>R175</title>
<g id="a_node9"><a xlink:href="175.svg" xlink:title="R175">
<polygon fill="azure" stroke="none" points="94,-279.45 0,-279.45 0,-232.45 94,-232.45 94,-279.45"/>
<text text-anchor="middle" x="47" y="-247.45" font-family="Times New Roman,serif" font-size="35.00">R175</text>
</a>
</g>
</g>
<!-- R175&#45;&gt;R90 -->
<g id="edge10" class="edge">
<title>R175&#45;&gt;R90</title>
<path fill="none" stroke="black" stroke-width="5" d="M93.95,-251.13C188.03,-242.81 408.38,-231.34 582.5,-283.95 586.35,-285.11 590.21,-286.56 594.01,-288.2"/>
<polygon fill="black" stroke="black" stroke-width="5" points="585.54,-294.25 607.33,-295.63 593.55,-278.69 585.54,-294.25"/>
<text text-anchor="middle" x="346.5" y="-292.95" font-family="Times New Roman,serif" font-size="30.00"> &#160;&#160;227 &#160;&#160;98% &#160;&#160;0.162 mol/s &#160;&#160;&#160;2.65E&#45;06</text>
</g>
</g>
</svg>
