<?xml version="1.0" encoding="UTF-8" standalone="no"?>
<!DOCTYPE svg PUBLIC "-//W3C//DTD SVG 1.1//EN"
 "http://www.w3.org/Graphics/SVG/1.1/DTD/svg11.dtd">
<!-- Generated by graphviz version 8.0.3 (20230416.2022)
 -->
<!-- Title: G Pages: 1 -->
<svg width="640pt" height="150pt"
 viewBox="0.00 0.00 720.00 169.15" xmlns="http://www.w3.org/2000/svg" xmlns:xlink="http://www.w3.org/1999/xlink">
<g id="graph0" class="graph" transform="scale(0.33264 0.33264) rotate(0) translate(4 448)">
<title>G</title>
<polygon fill="white" stroke="none" points="-4,4 -4,-448 1920,-448 1920,4 -4,4"/>
<text text-anchor="middle" x="958" y="-411.2" font-family="Arial" font-size="36.00" fill="blue">Reaction Path Analysis</text>
<!-- 3 -->
<g id="node1" class="node">
<title>3</title>
<g id="a_node1"><a xlink:href="3.svg">
<polygon fill="none" stroke="black" points="1084,-396 868,-396 868,-180 1084,-180 1084,-396"/>
</a>
</g>
</g>
<!-- 4 -->
<g id="node3" class="node">
<title>4</title>
<g id="a_node3"><a xlink:href="4.svg">
<polygon fill="none" stroke="black" points="1916,-396 1700,-396 1700,-180 1916,-180 1916,-396"/>
</a>
</g>
</g>
<!-- 3&#45;&gt;4 -->
<g id="edge2" class="edge">
<title>3&#45;&gt;4</title>
<path fill="none" stroke="black" stroke-width="11" d="M1084.23,-288C1237.98,-288 1520.39,-288 1682.94,-288"/>
<polygon fill="black" stroke="black" stroke-width="11" points="1682.74,-297.63 1692.74,-288 1682.74,-278.38 1682.74,-297.63"/>
<text text-anchor="middle" x="1392" y="-302" font-family="Times New Roman,serif" font-size="45.00"> &#160;&#160;0.9</text>
</g>
<!-- 2 -->
<g id="node2" class="node">
<title>2</title>
<g id="a_node2"><a xlink:href="2.svg">
<polygon fill="none" stroke="black" points="252,-396 36,-396 36,-180 252,-180 252,-396"/>
</a>
</g>
</g>
<!-- 2&#45;&gt;3 -->
<g id="edge1" class="edge">
<title>2&#45;&gt;3</title>
<path fill="none" stroke="black" stroke-width="11" stroke-dasharray="5,2" d="M252.23,-288C405.98,-288 688.39,-288 850.94,-288"/>
<polygon fill="black" stroke="black" stroke-width="11" points="850.74,-297.63 860.74,-288 850.74,-278.38 850.74,-297.63"/>
<text text-anchor="middle" x="560" y="-302" font-family="Times New Roman,serif" font-size="45.00"> &#160;&#160;0.8*</text>
</g>
<!-- Original -->
<g id="node4" class="node">
<title>Original</title>
<g id="a_node4"><a xlink:href="..\pathway_visualization.svg" xlink:title="All Pathways">
<polygon fill="grey" stroke="black" points="288,-72 0,-72 0,0 288,0 288,-72"/>
<text text-anchor="middle" x="144" y="-25" font-family="Times New Roman,serif" font-size="45.00" fill="white">All Pathways</text>
</a>
</g>
</g>
<!-- Original&#45;&gt;3 -->
<g id="edge3" class="edge">
<title>Original&#45;&gt;3</title>
</g>
</g>
</svg>
